<?xml version="1.0" encoding="utf-8"?>
<!-- Generator: Adobe Illustrator 24.2.3, SVG Export Plug-In . SVG Version: 6.00 Build 0)  -->
<svg version="1.1" id="a0eaf0da-a163-479f-9854-9d623ca468b0"
	 xmlns="http://www.w3.org/2000/svg" xmlns:xlink="http://www.w3.org/1999/xlink" x="0px" y="0px" viewBox="0 0 733.1 506.1"
	 style="enable-background:new 0 0 733.1 506.1; fill: #215342;" xml:space="preserve" height="225" width="400" transform="translate(-50, 0)">
<path d="M373.7,352.6c-0.8,0-1.4,0-1.7,0c-5.8-0.2-11.3-2.6-15.3-6.8c-1.7-1.8-2.4-3.5-2.2-5c0.4-1.3,1.1-2.4,2.1-3.2l0.5-0.5
	c0.9-0.8,1.8-1.7,2.4-2.8c0.1-0.2,0.2-0.4,0.3-0.6c0.1,0,0.3,0.1,0.4,0.1c0.1,0,0.2,0,0.3,0c1-0.2,1.5-1.1,1.9-1.9
	c0.1-0.2,0.2-0.4,0.3-0.5c0.8-1.2,1.9-2.1,3.2-2.6c0.3-0.1,0.5-0.3,0.8-0.4c1.1-0.5,2.2-1.1,3.2-1.9c1.2-1,1.4-2.5,1.6-3.9l0-0.3
	c0.3-2.1-1.3-4-2.9-4.9c-1.7-0.8-3.6-1.1-5.5-1.1c-7.6-0.4-15.3-0.4-22.8-0.3c-1.8,0-4,0-5.8,1.2c-2.5,1.9-3.1,5.4-1.2,8
	c0.2,0.3,0.5,0.6,0.7,0.8c0.9,0.7,1.9,1.2,3,1.6c1.2,0.4,2.3,1,3.2,2c0.3,0.4,0.5,0.9,0.7,1.4c0.2,0.6,0.6,1.1,0.9,1.7
	c0.6,0.7,1.4,1.1,2.3,1c0.1,0,0.1,0,0.2,0c0.1,0.4,0.2,0.8,0.4,1.1c0.6,1,1.3,1.8,2.2,2.5c0.4,0.4,0.9,0.8,1.3,1.3
	c1.4,1.6,2.3,4.3,1.1,6.4c-0.4,0.7-0.9,1.2-1.5,1.7c-4.2,2.6-8.8,4.4-13.7,5.4c-5.8,1.2-11.9,0.9-17.5-1c-0.3-0.1-0.5,0-0.6,0.3
	c0,0.1,0,0.3,0,0.4c0.4,0.7,0.9,1.3,1.6,1.8l0.2,0.1c1,0.9,1.9,1.7,2.7,2.3l0.3,0.2c0.1,0,0.1,0.1,0.2,0.1c2.5,0.7,5.1,1,7.7,1.1
	c0.8,0,1.7,0,2.5-0.1c4-0.5,7.8-1.8,11.3-3.7c0.9-0.4,1.9-0.8,2.8-1.2c0.3-0.2,0.7-0.3,1-0.5c1.7-1,3.5-1.6,5.4-1.9
	c2.4-0.2,4.8,0.8,7.1,1.8l0.9,0.4c2.9,1.3,5.9,2.2,9,2.7c3.5,0.8,7,1.2,10.6,1.2c4.7,0,9.4-0.6,14-1.8c0.1,0,0.1,0,0.2-0.1
	c0.9-0.7,1.7-1.4,2.3-2.3c0.5-0.7,0.9-1.4,1.2-2.2c0.2-0.3,0.2-0.6,0.2-0.9c0-0.2-0.1-0.4-0.2-0.5l0,0l-0.4,0.2v0l0.4-0.3
	c-0.1-0.2-0.4-0.3-0.6-0.2l-0.4,0.2c-5.6,2.4-11.4,3.9-17.4,4.5C376.8,352.5,375,352.6,373.7,352.6z M368.1,319.4
	c0.8,0.9,1,2.2,0.5,3.3c-0.8,1.4-2.8,1.7-4.6,1.8c-2.2,0.2-4.4,0.5-5.4,2.3c-0.5,1-0.7,2.2-0.6,3.4c0,0.6,0.1,1.1,0.2,1.7
	c-0.3,0.7-0.7,1.3-1.3,1.8c-1,0.8-2.4,1.2-3.7,0.8c-0.1,0-0.2-0.1-0.3-0.1c-0.7-0.3-1.5-0.3-2.3,0.1c-0.1,0-0.2,0.1-0.3,0.1
	c-1.8,0.6-3.7-0.3-4.3-2.1c0-0.1-0.1-0.2-0.1-0.4c0.5-1.6,0.7-3.3,0.5-5c-0.2-1.9-1.5-3.6-3.3-4.3c-1.1-0.2-2.2-0.2-3.3,0.1
	c-0.4,0.1-0.7,0.1-1.1,0.2c-1.2,0.2-2.7-0.2-3.1-1.2c-0.5-1.3,1.2-2.6,2.4-3.1c3.3-1.2,6.9-0.7,10.5-0.3l1.1,0.1
	c3.3,0.4,8.1,0.7,11.1-0.9c1.3-0.2,2.7-0.2,4-0.1C366,317.9,367.2,318.5,368.1,319.4z"/>
<path d="M324.2,234.8c-2-0.9-4.1-1.5-6.2-1.6c-0.3,0-0.5,0.2-0.5,0.5c0,0.1,0,0.2,0.1,0.3l2.8,5.3c-1.4-0.3-2.9,0.2-4,1.2
	c-0.2,0.2-0.2,0.5,0,0.7c0,0,0.1,0.1,0.1,0.1c5.3,2.5,9.7,6.7,12.3,12c0.1,0.2,0.3,0.3,0.4,0.3c0.1,0,0.2,0,0.2-0.1
	c0.2-0.1,0.3-0.4,0.2-0.7c-2-4.1-3.8-8.1-4-12.2l1.7,3.1c0.1,0.2,0.4,0.3,0.7,0.2c0.1-0.1,0.2-0.2,0.3-0.4l1.2-12.8
	c0.4-3.2,0.5-6.4,0.1-9.5l-0.5,0.1l-0.5,0.1c0.1,0.3,0.1,0.6,0.1,0.9L324.2,234.8z"/>
<path d="M324.1,250.8c-0.6-0.7-1.2-1.4-1.6-2.1c-1.5-1.5-3.3-2.8-5.3-3.7c-4.9-3.4-11.1-4.4-16.9-2.8c-7.3,2.2-12.5,8.3-15.5,13.1
	l0,0c-3.1,4.9,1,12.2,3.7,16.1c3.7,5.3,9.1,9,12.8,11.4c0.2,0.1,0.4,0.2,0.7,0.2c0,0,0.1,0,0.1,0c0.2,0,0.5-0.2,0.6-0.4
	c0.2-0.3,0.2-0.6,0.1-0.9c-0.1-0.3-0.4-0.6-0.7-0.8c-0.6-0.5-1.2-0.9-1.8-1.3c-1.7-1.3-3.4-2.6-5-4.1c-2.1-1.9-3.7-4.3-4.6-7
	c-0.6-2.5-0.7-5.1-0.4-7.6c0-2.3,0.5-4.6,1.5-6.7c1.2-2.1,3-3.8,5.1-5c2-1.2,4.2-2.1,6.5-2.6c-0.9,0.6-1.8,1.3-2.6,2.2
	c-3.8,1.6-6.7,4.7-8.2,8.6c-1.6,4.5-1,9.9,1.6,14.9c1.1,2.3,2.8,4.3,4.8,5.8c2.5,1.7,5.6,2.3,8.8,2.8c2,0.4,4.1,0.6,6.2,0.6
	c0.9,0,1.8-0.1,2.8-0.2c5.7-0.9,10.3-4.9,14.2-8.6c0.1-0.1,0.1-0.2,0.2-0.3c0.4-5.3-0.8-10.6-3.6-15.2
	C327.4,254.8,325.6,252.7,324.1,250.8z M295.2,265c-0.5-2.7-0.2-5.5,0.7-8.1c2.1-5.1,7.5-7.5,10.6-8.4c3.9-1.1,7.2-0.7,11,0.5
	c2,0.6,4.8,3.5,7,6.1c1.9,4.4,2.1,9.3,0.5,13.8c-2,5.3-6.6,9.2-12.2,10.3c-5.6,1-11.3-1.3-14.6-5.9C296.6,270.9,295.5,268,295.2,265
	L295.2,265z"/>
<path d="M309.2,253.7c-1.1,0.8-2,1.9-2.6,3.1c-0.1,0.2-0.1,0.5,0.2,0.7c0.2,0.1,0.4,0.3,0.5,0.5l0.1,0.2c0,0,0.1,0.1,0.1,0.1
	c0.3,0.3,0.5,0.7,0.5,1.1c0.2,0.4,0.3,0.8,0.3,1.3c0,0.9-0.4,1.7-1.2,2.1c-0.3,0.2-0.7,0.3-1.1,0.3c-0.3,0-0.5,0.3-0.4,0.5
	c0,0,0,0,0,0.1c0.1,0.7,0.3,1.3,0.6,2c0.5,1.3,1.4,2.3,2.5,3.1c0.8,0.5,1.7,0.8,2.7,0.8c0.5,0,0.9-0.1,1.4-0.2c1-0.4,1.9-1.1,2.5-2
	c2.7-3.6,2.7-8.5,0.1-12.1c-0.7-1-1.7-1.8-2.9-2.3C311.2,252.5,309.6,252.7,309.2,253.7z"/>
<path d="M412.8,245.6c-2.7-1.8-5.6-3.2-8.6-4.1c-4.3-1-8.8-0.7-12.9,1c-3.9,1.6-7.3,4-10.1,7.1c-2.8,2.2-4.7,5.2-5.4,8.7
	c-0.8-1.6-1.4-3.4-1.7-5.2c0-0.3-0.3-0.5-0.6-0.4c-0.2,0-0.3,0.1-0.4,0.3c-1.2,2.6-2.2,5.2-3.1,8c0,0,0,0.1,0,0.1
	c-0.7,6.8-0.6,13.6,0.3,20.4c0.1,1.1,0.3,2.2,0.6,3.6c0,0,0,0.1,0,0.1c0.4,0.9,0.9,1.7,1.4,2.5c0.1,0.1,0.3,0.2,0.4,0.2
	c0.1,0,0.1,0,0.2,0c0.2-0.1,0.4-0.3,0.3-0.5c-0.6-7.9,0-19.3,6.4-28.9c0.3-0.4,0.5-0.7,0.8-1.1c0,0.1-0.1,0.3-0.1,0.4
	c-0.4,2.5-0.4,5,0,7.4c0.3,2.9,1.3,5.6,2.9,8c1.9,2.4,4.6,4.1,7.5,4.9c2.3,0.8,4.7,1.2,7.2,1.2c2.5,0,5-0.4,7.3-1.3
	c4.7-1.7,8.4-5.4,10.4-10c2.1-5.2,1.3-11.8-2-17.1c-1.1-1.7-2.4-3.3-4-4.6c2,1.2,3.7,2.8,5.1,4.6c2.3,2.6,3.8,5.7,4.4,9.1
	c0.9,6.5-3.2,12.3-7.3,15.7c-4.6,3.7-10.2,5.8-16.5,7.8c-0.3,0.1-0.4,0.4-0.3,0.6c0.1,0.2,0.2,0.3,0.4,0.3c0.9,0.1,1.9,0.2,2.8,0.2
	c5.1,0,10-1.6,14.1-4.6c4.9-3.5,8.4-8.6,10.1-14.4c1.1-3.1,1.2-6.4,0.3-9.6C421.2,251.4,416.9,248.1,412.8,245.6z M401.3,245.5
	c0.6,0,1.3,0.1,1.9,0.1c3.5,1,6.4,3.3,8.3,6.4c2.5,4.3,3,9.4,1.6,14.2c-0.6,2.1-1.6,4.1-3.2,5.6c-1.6,1.4-3.5,2.5-5.5,3.2
	c-2.6,1-5.3,1.6-8.1,1.5c-5.7-0.4-10.6-3.9-12.9-9.1c-1.9-4.5-1.7-9.6,0.4-14C388.6,248.7,394.8,246,401.3,245.5L401.3,245.5z"/>
<path d="M396.5,252.9c-1.7,0.4-3.2,1.6-3.8,3.3c-0.1,0.2,0,0.4,0.1,0.6c0.9,0.6,1.2,1.7,0.9,2.7c-0.1,0.2-0.3,0.4-0.4,0.6
	c-0.3,0.3-0.5,0.7-0.7,1.2c-0.2,0.7,0,1.5,0.5,2.1c0.4,0.5,1,0.9,1.6,1.2c1.2,0.6,2.4,0.9,3.7,1c0.3,0,0.7,0,1-0.1
	c1.7-0.2,3.2-1.3,3.9-2.9c0.4-1.3,0.5-2.7,0.1-4c-0.3-1.6-1-3.1-2.1-4.3C400.1,253,398.3,252.5,396.5,252.9z"/>
<path d="M305.8,177.3c2.9,8.2,2.3,17.2-1.8,24.9c-1.5-2.3-3.1-4.6-4.9-6.6c-0.2-0.2-0.5-0.2-0.7-0.1c-0.1,0.1-0.2,0.3-0.2,0.5
	l1.5,8.6l-4.5-4.6c-0.2-0.2-0.5-0.2-0.7,0c-0.2,0.2-0.2,0.4-0.1,0.6c2.4,4.4,2.6,9.7,0.7,14.3c-0.1,0.3,0,0.5,0.3,0.7
	c0.1,0,0.2,0,0.3,0c4-1.1,7.1-5,7.7-9.4c0.7,2,1,4.1,0.9,6.2c0,0.3,0.2,0.5,0.5,0.5c0.1,0,0.3,0,0.4-0.1c2.1-2,4-4.2,5.6-6.6
	c1.1-1.8,1.7-3.9,1.9-6c0.8,1.8,1.4,3.7,1.7,5.6c0,0.2,0.2,0.4,0.4,0.4c0.2,0,0.4-0.1,0.5-0.3c1.7-4.2,1.9-8.8,0.6-13.1
	c3.8,6.3,5.8,13.4,5.9,20.7c0,0.3,0.2,0.5,0.5,0.5c0.2,0,0.4-0.1,0.5-0.3c0.6-1.5,1.1-3.2,1.2-4.8c0.5,2.6,0.8,5.2,0.8,7.8
	c0,0.2,0.2,0.4,0.4,0.5c0,0,0.1,0,0.1,0c0.2,0,0.4-0.1,0.5-0.3c1.6-4.2,2.5-8.6,2.7-13.1c0.2-4.5-0.9-9.1-3.2-13
	c-1.9-2.8-4.1-5.3-6.7-7.5c-3.5-3.3-6.8-6.4-8-10.8c-0.1-0.2-0.3-0.4-0.6-0.4c-0.3,0-0.4,0.3-0.4,0.5c0.3,4.7,1.8,9.2,4.2,13.2
	c-3.2-2.3-5.7-5.4-7.1-9c-0.1-0.3-0.2-0.6-0.3-0.8c-0.1-0.3-0.4-0.4-0.7-0.3c-0.2,0.1-0.4,0.4-0.3,0.6
	C305.6,176.8,305.7,177,305.8,177.3z M322.5,201.2c0.2,0.5,0.4,1.1,0.5,1.6C322.8,202.2,322.7,201.7,322.5,201.2L322.5,201.2z"/>
<path d="M340.9,194.7c0.2,0,0.4-0.2,0.4-0.5c0.2-2.8,1-5.5,2.5-7.8c-0.1,1.5-0.1,3,0,4.5c0,0.3,0.2,0.5,0.5,0.5
	c0.3,0,0.5-0.2,0.5-0.4c0,0,0,0,0,0c0.2-1.7,0.7-3.4,1.5-4.9l0.7,3c0,0.2,0.2,0.4,0.4,0.4c0.2,0,0.4-0.1,0.5-0.3
	c0.6-1.4,1.4-2.8,2.4-3.9l1,10.7c0,0.8,0.4,1.6,1,2.1c0.3,0.2,0.7,0.3,1.1,0.2c0.5-0.2,0.8-0.5,1-1l10.3-16.5l4.5,19.6
	c0,0.2,0.2,0.4,0.5,0.4c0.2,0,0.4-0.1,0.5-0.3c1.2-3.5,1.5-7.2,0.7-10.8c-0.1-0.7-0.1-1.2,0.1-1.3c0.1,0,0.1,0,0.2,0
	c0.4,0.2,0.7,0.6,0.9,1c4.2,7.6,12.1,12.4,20.8,12.7h0c0.3,0,0.5-0.2,0.5-0.5c0-0.1,0-0.2-0.1-0.2c-2.1-3.8-4.8-7.1-8-9.9
	c-0.4-0.3-0.8-0.8-0.9-1.3c0-0.1,0-0.2,0.1-0.3c0.3-0.3,1,0,1.4,0.2c2.1,1.2,4.3,2,6.6,2.5c2.4,0.5,4.9,0.1,7.1-1.1
	c0.2-0.1,0.3-0.5,0.2-0.7c-0.1-0.1-0.1-0.2-0.2-0.2c-9.2-3.9-17.1-10.2-22.9-18.3c-0.2-0.2-0.5-0.3-0.7-0.1
	c-0.2,0.1-0.2,0.3-0.2,0.5l2.4,11.2c-1.9-2.6-3.8-5.3-5.5-8c-0.1-0.2-0.5-0.3-0.7-0.2c-0.2,0.1-0.3,0.3-0.2,0.6
	c0.6,2,0.8,4.1,0.7,6.2l-1.4-1c-1.7-2.1-2.9-4.6-3.4-7.2c-0.1-0.3-0.3-0.4-0.6-0.4c-0.1,0-0.1,0-0.2,0.1c-5.4,3.6-9.8,8.5-12.6,14.4
	l-2.4-9.8c-0.1-0.3-0.3-0.4-0.6-0.4c-0.2,0-0.4,0.2-0.4,0.4c-0.1,0.7-0.4,1.3-0.8,1.9l-1.6-4.7c-0.1-0.2-0.2-0.3-0.3-0.3
	c-0.2,0-0.3,0-0.5,0.1c-3.2,2.8-5.6,6.5-7,10.5c-0.6-1.6-1.3-3.3-2.1-4.8c-0.1-0.2-0.4-0.3-0.7-0.2c-0.2,0.1-0.3,0.2-0.3,0.4
	c-0.2,4.5,0.7,9.1,2.6,13.2C340.4,194.7,340.6,194.8,340.9,194.7z"/>
<path d="M341.1,224.7c0,0.2,0.2,0.4,0.5,0.5c0.3,0,0.5-0.2,0.5-0.4c0.3-2,1-3.9,2-5.7c0.2-0.4,0.5-0.8,0.8-0.8c0.3,0,0.5,0.4,0.7,1
	c1.2,4.2,0.8,8.8,0.3,13.2c-0.5,5.2-1.1,10.6,1.1,15.4c0.1,0.2,0.3,0.3,0.5,0.3c0,0,0.1,0,0.1,0c0.2,0,0.4-0.2,0.4-0.5
	c0.8-8.8,4.4-17,10.4-23.5l-2,14.2c0,0.3,0.2,0.5,0.4,0.6c0.2,0,0.5-0.1,0.5-0.4c3.7-13.2,13.2-24,25-28.3c0.3-0.1,0.4-0.4,0.3-0.6
	c-0.1-0.2-0.3-0.4-0.6-0.3c-5.3,1.3-10.4,3.1-15.4,5.3c-4.2,2-8,4.8-11,8.4c0.9-4.7,0.9-9.6-0.1-14.3c-0.1-0.3-0.3-0.4-0.6-0.4
	c-0.2,0.1-0.4,0.3-0.4,0.5c0.3,3-0.3,6.1-1.9,8.7c0.8-5.7-0.8-11.5-4.2-16.1c-0.2-0.2-0.5-0.3-0.7-0.1c-0.1,0.1-0.2,0.3-0.2,0.5
	c0.6,3.7,0.7,7.5,0.2,11.3c-0.7-3.6-2.2-6.9-4.4-9.8c-0.2-0.2-0.5-0.3-0.7-0.1c-0.2,0.1-0.2,0.3-0.2,0.5c0.5,1.7,0.8,3.4,0.9,5.1
	c-1.5-3.7-4.5-6.6-8.3-7.9c-0.3-0.1-0.5,0-0.6,0.3c-0.1,0.2,0,0.3,0.1,0.5c2.5,3.9,3.1,8.7,1.6,13c-0.1,0.3,0,0.5,0.3,0.6
	c0.2,0.1,0.5,0,0.6-0.2l2.6-5.3L341.1,224.7z"/>
<path d="M367,228c-0.2-0.1-0.5,0.1-0.6,0.3c-3.2,7-3.2,15-0.2,22c0.1,0.3,0.4,0.4,0.7,0.3c0.1-0.1,0.3-0.2,0.3-0.4l1.3-6.5
	c0.4,2.8,1.2,5.5,2.5,8c0.1,0.2,0.3,0.3,0.5,0.3c0,0,0.1,0,0.1,0c0.2,0,0.4-0.2,0.4-0.5l0.2-2.7l1.2,2.3c0.1,0.2,0.4,0.3,0.7,0.2
	c0.2-0.1,0.3-0.2,0.3-0.4c0.1-3.4,0.3-7.2,2-10.3c2.1-3.9,6.5-6,9.5-7.4c0.9-0.4,1.9-0.8,2.8-1.2c3-1.1,5.9-2.5,8.6-4.3
	c0.2-0.2,0.3-0.5,0.1-0.7c-0.2-0.2-0.4-0.3-0.7-0.1c-2.9,1.8-6.4,2.3-9.7,2.9c-1,0.2-2.1,0.3-3.1,0.5c-3,0.5-5.8,1.6-8.2,3.4
	c1.8-3.3,4-6.4,6.4-9.3c0.2-0.2,0.2-0.5-0.1-0.7c-0.2-0.1-0.4-0.2-0.6,0c-5.5,3.4-10.7,6.9-13,12.2c-0.9-2.3-1.2-4.9-1-7.4
	C367.4,228.2,367.3,228,367,228z"/>
<path d="M437.4,191.5c-2.9,0.6-5.6,1.9-7.8,3.7l1-9.2c0-0.3-0.2-0.5-0.4-0.6c-0.2,0-0.3,0-0.4,0.1l-8.3,8.4l-5.5-17.1
	c-0.1-0.3-0.4-0.4-0.6-0.3c-0.2,0.1-0.3,0.3-0.3,0.5c-0.1,6.1-2.6,11.9-7,16.3c4.1-7.2,4.6-15,1.1-20.5c-0.2-0.2-0.5-0.3-0.7-0.1
	c-0.2,0.1-0.2,0.3-0.2,0.5c0.9,7.8-3.1,15.2-7.1,22.4l-0.3,0.6c-4.3,7.7-7.9,16-5.5,24c0.1,0.2,0.3,0.4,0.5,0.4c0,0,0,0,0.1,0
	c0.2,0,0.4-0.2,0.4-0.5c0.1-3.6,1-7.1,2.6-10.3c-0.4,2.4-0.3,4.8,0.3,7.1c0.1,0.3,0.3,0.4,0.6,0.4c0.1,0,0.2-0.1,0.3-0.2
	c1.1-1.5,2.1-3.2,2.8-5l0.5,6.4c0,0.3,0.2,0.5,0.5,0.5h0c0.3,0,0.5-0.2,0.5-0.5c0.4-9.1,4.5-17.6,11.4-23.5l-2.7,7.9
	c-0.2,0.4-0.3,0.9-0.5,1.3c-0.1,0.3,0.1,0.5,0.4,0.6c0.3,0.1,0.5-0.1,0.6-0.3l0.4-1.2c1-2.5,2.9-4.5,5.2-5.9
	c-2,4.7-2.9,9.8-2.6,14.9c0,0.2,0.2,0.4,0.4,0.5c0.2,0,0.5-0.1,0.5-0.3c2-5.3,5.1-10.1,9.1-14.2l2,9.4c0.1,0.3,0.3,0.4,0.6,0.4
	c0.2,0,0.3-0.2,0.4-0.4c1.6-5.6,4.5-10.8,8.5-15.1c0.2-0.2,0.2-0.5,0-0.7C437.8,191.6,437.6,191.5,437.4,191.5L437.4,191.5z"/>
<path d="M471,186.6c-0.2,0-0.5,0.2-0.5,0.4c-1.1,6.7-5.4,12.1-10.7,17.7c2.8-5.3,3.9-11.3,3.3-17.3c0-0.2-0.2-0.4-0.4-0.4
	c-0.2,0-0.5,0.1-0.5,0.3c-2.6,8.2-7.7,15.5-14.6,20.7c-0.1,0.1-0.2,0.3-0.2,0.4c0,0.2,0.1,0.5,0.3,0.6c0.3,0.2,0.6,0.3,0.9,0.3
	l-8.5,6.4c-0.2,0.2-0.3,0.5-0.1,0.7c0.1,0.1,0.2,0.2,0.4,0.2c3.2,0.1,6.4-0.8,9.1-2.5c-1.9,4.9-5.6,8.8-10.4,11.1
	c-0.3,0.1-0.4,0.4-0.2,0.7c0.1,0.2,0.3,0.3,0.5,0.3h0c18.7-0.7,33.3-16.5,32.6-35.2c-0.1-1.3-0.2-2.7-0.4-4
	C471.5,186.7,471.3,186.6,471,186.6z"/>
<path d="M400.6,174c0.1,1.6,0.4,3.2,1,4.6c0.1,0.3,0.4,0.4,0.7,0.3c0.2-0.1,0.3-0.3,0.3-0.6c-1-4.6,0.9-9.9,4.9-13.8
	c3.2-3.1,7.7-5.4,13.7-7c2.6-0.7,5.4-1.2,8-1.7c2.4-0.5,4.9-1,7.4-1.6c6.3-1.6,10.8-3.8,14.3-6.9c0.2-0.2,0.2-0.5,0-0.7
	c-0.2-0.2-0.5-0.2-0.7,0c-3.6,3.2-8.7,5.1-15.8,6.1c-1.9,0.3-3.8,0.5-5.7,0.7c-3.9,0.3-7.8,0.9-11.6,1.8c-2.3,0.6-4.4,1.4-6.5,2.6
	c2.5-1.8,5.1-3.4,7.8-4.9c1.4-0.8,2.9-1.5,4.4-2.3c4.4-2.2,8.6-4.6,12.7-7.3c6.3-4.4,10.5-9.3,12.8-14.8c0.1-0.3-0.1-0.5-0.3-0.6
	c-0.2-0.1-0.5,0-0.6,0.2c-3.1,5.8-8.5,10.8-16.5,15.2c-3.3,1.8-6.8,3.5-10.2,5.1c-3.4,1.6-7,3.3-10.4,5.1c-2.2,1.1-4.2,2.6-6,4.3
	c-1.8,1.8-3,4.1-3.4,6.6c-0.1,1.2-0.3,2.2-0.4,3.2C399.9,170.1,399.6,172.1,400.6,174C400.6,174,400.6,174,400.6,174z"/>
<path d="M415.1,146.4c0.1,0,0.2,0,0.3,0c3.7,0,7.2-5.1,8.6-7.4c0.9-1.6,1.8-3.2,2.6-4.8c1.1-2.3,2.4-4.6,3.9-6.8
	c3.3-4.4,7.7-7.9,12.7-10.2c5.1-2.2,10.5-3.7,16-4.3c0.3,0,0.5-0.2,0.5-0.5s-0.2-0.5-0.5-0.5c-7.6-0.3-15.1,1.9-21.3,6.4
	c-6.1,4.4-11.2,10.1-15,16.7c-0.3,0.5-0.6,1.1-1,1.7c-1.9,3.3-3.9,6.8-7,8.8c-0.2,0.2-0.3,0.5-0.1,0.7
	C414.8,146.3,415,146.3,415.1,146.4L415.1,146.4z"/>
<path d="M430.9,169.5c-1.4-0.2-2.8-0.4-4.2-0.7c-4.6-0.8-9.3-1.6-13.7-0.4c0.8-1.4,1.9-2.6,3.1-3.6l0.1-0.1c0.2-0.2,0.2-0.5,0-0.7
	c-0.2-0.2-0.4-0.2-0.6-0.1c-3.1,1.8-5.2,4.9-5.8,8.4c0,0.3,0.1,0.5,0.4,0.6c0.2,0,0.3,0,0.4-0.1c2.2-2,5.1-3,8-2.9
	c2.3,0.1,4.7,0.3,7,0.9c0.7,0.1,1.3,0.2,2,0.4c14,2.4,26.8-0.5,35.1-7.9c0.2-0.2,0.2-0.5,0-0.7c-0.2-0.2-0.4-0.2-0.6-0.1
	C452.8,168.4,441.8,170.8,430.9,169.5z"/>
<path d="M300.2,169.6c-2.4-1.8-5.2-2.9-8.1-3.5c-0.2,0-0.5,0.1-0.5,0.3c-0.1,0.2,0,0.5,0.2,0.6l3.8,2.7c-4.7-0.6-9.5-0.1-14.2,0.4
	c-1.8,0.2-3.7,0.4-5.6,0.5c-9.2,0.6-15.9-1-20.3-5c-0.2-0.2-0.5-0.2-0.7,0c-0.2,0.2-0.2,0.5,0,0.7c6.2,6.1,12.3,9.1,18.3,8.7
	c1.7-0.1,3.4-0.4,5-0.8c0.9-0.2,1.8-0.4,2.7-0.6c4.4-0.7,9-0.4,13.3,1.1c2.4,0.7,4.7,2.1,6.5,3.9c1.8,1.8,2.7,4.2,2.5,6.7
	c0,0.3,0.2,0.5,0.4,0.6c0,0,0.1,0,0.1,0c0.2,0,0.4-0.2,0.5-0.4c0.2-1.3,0.1-2.6-0.1-3.9c-0.3-1.7-0.4-3.4-0.3-5
	c0.3-8.9-5.3-16.7-10-21.7c-13.7-14.4-33.1-21.9-52.9-20.6c-0.3,0-0.5,0.2-0.5,0.5c0,0.3,0.2,0.5,0.5,0.5c13.9,0.9,26,4,35.8,9.3
	C287.5,150.6,295.9,159.4,300.2,169.6z"/>
<path d="M243.3,128.9c20.2-4.4,41,4.5,51.7,22.2l0,0c0.1,0.2,0.5,0.3,0.7,0.2c0.2-0.1,0.3-0.5,0.2-0.7l0,0l-0.3-0.6
	c-1.5-2.7-3.2-5.3-5.1-7.7c-11.3-14.1-30.1-19.8-47.4-14.4c-0.3,0.1-0.4,0.4-0.3,0.6C242.8,128.8,243.1,129,243.3,128.9L243.3,128.9
	z"/>
<path d="M302.2,183.8c0.2-0.1,0.3-0.4,0.2-0.6c-0.6-1.6-1.6-3-3-4c-5.9-3.4-14-3.1-21.1,0.8c-6.9,3.8-11.8,10.1-15.4,15.2
	c-0.2,0.2-0.1,0.5,0.1,0.7c0.2,0.1,0.4,0.1,0.6,0c1.6-1.5,3.2-3,4.6-4.5c2-2.1,4.2-4.1,6.4-6c4.4-3.5,8.9-5.6,13.3-6.1
	c5.2-0.6,10.3,1.1,13.4,4.5C301.7,183.8,302,183.9,302.2,183.8z"/>
<path d="M314.8,329.8c-0.3-0.1-0.6-0.1-0.9-0.1c-0.4,0-0.8-0.1-1.2-0.2c-0.5-0.2-1-0.6-0.9-1.1c0-0.3-0.2-0.5-0.5-0.5
	c-0.1,0-0.3,0-0.4,0.1c-0.9,1-2,1.9-3.2,2.7c-0.5,0.3-1.1,0.4-1.7,0.3c-0.2-0.1-0.3-0.2-0.4-0.4c-0.1-0.5-0.1-1,0.1-1.4
	c0.1-0.3,0-0.5-0.3-0.6c-0.2-0.1-0.5,0-0.6,0.2c-0.4,0.6-0.6,1.3-0.8,2c-0.2,0.8,0,1.6,0.6,2.3c0.6,0.7,1.7,0.8,2.5,0.2
	c0.2-0.2,0.4-0.5,0.5-0.7c0.1-0.2,0.2-0.3,0.3-0.5c0.3-0.2,0.6-0.3,0.9-0.1c0.4,0.2,0.7,0.5,0.9,0.8c0.1,0.2,0.2,0.3,0.3,0.5
	c0.2,0.3,0.4,0.6,0.6,0.9c0.4,0.5,1,0.8,1.6,0.8c0.1,0,0.2,0,0.3,0c0.4-0.1,0.7-0.3,1-0.5l3-2.3c0.2-0.1,0.2-0.3,0.2-0.5
	C316.5,330.5,315.7,329.9,314.8,329.8z"/>
<path d="M324.7,345.5c2.4,0.9,5,1.3,7.5,1.3c0.2,0,0.4,0,0.6,0c1.5,0,2.5-0.5,2.8-1.4c0.1-0.3,0.2-0.5,0.2-0.8
	c0-0.2,0.1-0.4,0.1-0.6c0.2-0.5,0.9-0.6,1.6-0.8c0.5-0.1,1.9-0.4,2.3-1.5c0.1-0.2,0-0.5-0.3-0.6c-1.2-0.5-2.6-0.3-3.7,0.6
	c-0.5,0.4-0.9,0.7-1.3,1.1c-0.4,0.4-0.8,0.7-1.2,1.1c-0.7,0.6-1.7,0.8-2.6,0.5c-0.2-0.1-0.3-0.2-0.5-0.3c-0.3-0.3-0.7-0.5-1.1-0.6
	c-0.6-0.1-1.3,0.1-1.8,0.4c-0.1,0-0.2,0.1-0.3,0.1c-0.7,0.3-1.4,0.4-2.2,0.4l-0.1,0c-0.3-0.1-0.5,0-0.6,0.3c-0.1,0.2,0,0.4,0.1,0.6
	C324.4,345.4,324.5,345.5,324.7,345.5z"/>
<path d="M375.6,339.4c-2.6,0-5.2-0.7-7.4-1.9l0,0c-1-0.4-1.9-1.1-2.6-2c-0.2-0.2-0.5-0.3-0.7-0.1c-0.1,0.1-0.2,0.3-0.2,0.4
	c0,0.3-0.1,0.6-0.3,0.9c-0.1,0.2-0.1,0.3-0.2,0.5c-0.4,0.8-0.1,1.6,0.7,2c0.6,0.2,1.1,0,1.6-0.4c0.2-0.1,0.3-0.2,0.5-0.3
	c0.5-0.2,1.1,0.3,1.4,0.8c0.2,0.2,0.3,0.5,0.4,0.7c0.2,0.5,0.5,0.9,0.9,1.3c0.7,0.7,1.6,1,2.5,1c0.3,0,0.6,0,0.9-0.1
	c1.1-0.3,2.2-1,2.9-1.9c0.2-0.2,0.1-0.5-0.1-0.7C375.8,339.4,375.7,339.4,375.6,339.4L375.6,339.4z"/>
<path d="M368.4,345.1c-0.4-0.6-1-1.1-1.6-1.5c-0.7-0.6-1.7-0.8-2.6-0.7c-0.6,0.1-1.2,0.6-1.4,1.2c-0.2,0.5-0.1,1,0.2,1.4
	c0.6,0.7,1.5,0.6,2.2,0.4c0.4-0.1,0.8-0.1,1.2-0.1c0.4,0.1,0.7,0.6,1,1.1c0.1,0.2,0.2,0.4,0.3,0.5c0.9,1.2,2.1,2,3.6,2.3
	c0.9,0.2,1.8,0.3,2.7,0.3c0.5,0,0.9,0,1.4,0c1.4,0.1,2.9-0.2,4.2-0.7c1.5-0.7,2.4-2.2,2.2-3.8c0-0.3-0.3-0.5-0.6-0.4
	c-0.1,0-0.2,0-0.2,0.1C377.2,347.8,372.1,347.8,368.4,345.1z"/>
<path d="M277.7,305.3c-7.2,1.3-14.5-1.6-18.7-7.5c-0.2-0.2-0.5-0.3-0.7-0.1c-0.2,0.1-0.3,0.4-0.2,0.6c1.8,4.7,5.8,8.1,8.8,10.2l0,0
	c1.2,0.9,2.7,1.3,4.2,1.3c0.9,0,1.7-0.1,2.5-0.2l0.7-0.1c0.3,0,0.5-0.3,0.4-0.6c0-0.1-0.1-0.2-0.1-0.3c-0.3-0.3-0.7-0.6-1-0.9
	c1.6,0,3.2-0.6,4.5-1.5c0.2-0.2,0.3-0.5,0.1-0.7C278.1,305.3,277.9,305.2,277.7,305.3L277.7,305.3z"/>
<path d="M298.1,190.5c0.2-0.2,0.2-0.5,0-0.7c-0.2-0.2-0.5-0.2-0.7,0l-10.8,9.6c-1.3,1.1-2.8,2.4-4.4,2.1c-0.5-0.1-0.9-0.2-1.4-0.4
	c-1-0.4-2.2-0.8-3.2,0c-0.7,0.6-1.1,1.4-1.2,2.3c0,0.2-0.1,0.4-0.1,0.6c-0.1,0.5-0.4,0.9-0.9,1.2c-0.1,0.1-0.3,0.1-0.4,0
	c-0.3-0.1-0.5-0.6-0.6-1.1c-0.4-1.8-0.7-3.6-0.8-5.5c0-0.3-0.2-0.5-0.5-0.5c-0.3,0-0.5,0.2-0.5,0.4l-0.6,5.6
	c-1.5-1.6-3.4-2.7-5.5-3.4c-0.3-0.1-0.5,0.1-0.6,0.3c0,0.1,0,0.2,0,0.4c1.4,3.1,2,6.5,1.8,9.9c-5.9-2.5-11.1-6.4-15.1-11.5
	c-0.2-0.2-0.5-0.2-0.7-0.1c-0.2,0.2-0.2,0.5-0.1,0.7c3.4,4.7,7.4,8.9,12,12.5c1,0.8,2.1,1.4,3.3,1.7c0.2,0,0.4,0.1,0.7,0.1
	c1.2,0.1,2.3-0.6,2.9-1.6c0.6-1.2,0.1-2.6-0.3-3.8c-0.1-0.2-0.1-0.4-0.2-0.6c-0.3-1-0.4-2.6,0.6-2.9c0.8-0.3,1.6,0.4,2.5,1.2
	c1.3,1.2,2.6,1.6,3.6,1c1.1-0.6,1.2-2,1.2-3.2l0-0.1c0-0.8,0.4-1.9,1.1-1.9h0c0.4,0,0.7,0.4,1.1,0.8c0.3,0.3,0.6,0.6,0.9,0.8
	c1.4,0.8,3.2,0.2,5-1.7L298.1,190.5z"/>
<path d="M434.9,189.2c1.5,0.9,3.1,0,4.6-0.8c1.3-0.8,2.6-1.5,3.6-0.9c0.9,0.5,1.1,1.7,1.2,3l0.6,8.1c0.1,1.5,0.8,2.4,1.7,2.4h0
	c1.2,0,1.7-1.4,1.9-1.9c2.1-5.8,5.8-10.9,10.7-14.6c0.2-0.2,0.3-0.5,0.1-0.7c-0.2-0.2-0.4-0.3-0.7-0.1c-4.4,2.9-8.1,6.7-10.9,11.2
	c0-2.9,0.6-5.8,1.8-8.5c0.1-0.2,0-0.5-0.2-0.7c-0.2-0.1-0.5,0-0.6,0.2l-2.1,2.9c0.6-3,1.6-5.9,2.9-8.6c0.1-0.2,0-0.5-0.2-0.7
	c-0.2-0.1-0.4-0.1-0.6,0.1c-2.9,2.7-6.4,4.6-10.3,5.4l1.2-4c0.1-0.3-0.1-0.5-0.3-0.6c-0.2-0.1-0.5,0-0.6,0.3
	c-0.6,0.9-1.8,1.1-2.7,0.7c-0.9-0.4-1.7-1-2.4-1.7c-0.2-0.2-0.3-0.3-0.5-0.4c-1-1-2.3-1.6-3.6-1.7h-0.1c-0.4,0-0.8,0.1-1.2,0.2
	c-0.4,0.1-0.8,0.2-1.2,0.1c-1.4-0.1-2.3-1.6-3.5-3.6l-0.3-0.4c-0.1-0.2-0.5-0.3-0.7-0.2c-0.1,0.1-0.2,0.2-0.2,0.3
	c-0.7,2.8,1,5.6,3.7,6.3c0.4,0.1,0.9,0.2,1.3,0.2c0.3,0,0.7-0.1,1-0.1c0.5-0.1,1-0.1,1.6-0.1c0.9,0.4,1.7,1,2.2,1.9
	c0.2,0.2,0.4,0.5,0.6,0.7c0.7,0.9,1.7,1.4,2.8,1.5c0.2,0,0.3,0,0.5,0l-1.2,4.5C434.6,188.8,434.7,189.1,434.9,189.2z"/>
<path d="M432.6,245.9l3,0.9c0.2,0.1,0.5,0,0.6-0.2c0.1-0.2,0.1-0.5-0.1-0.6c-0.2-0.2-0.4-0.4-0.6-0.7c-0.7-1.1-1.8-2-3-2.4l-6-2.6
	c-0.3-0.1-0.5,0-0.7,0.3c-0.1,0.2,0,0.4,0.1,0.5l2.2,2.3l-4.9-0.9l-12-2.5c-0.3-0.1-0.5,0.1-0.6,0.4c0,0.2,0.1,0.4,0.3,0.6
	c7.8,3.9,14.6,7.7,18,14.3c0.1,0.2,0.3,0.3,0.4,0.3c0,0,0.1,0,0.1,0c0.2-0.1,0.4-0.3,0.4-0.5c-0.1-1.9-0.7-3.8-1.8-5.3
	c1.7,1,3.3,2.2,4.9,3.5c0.2,0.2,0.5,0.1,0.7-0.1c0.1-0.2,0.2-0.4,0-0.6l-2-3.5l5,2.4c0.2,0.1,0.5,0,0.7-0.2c0.1-0.2,0.1-0.4-0.1-0.6
	L432.6,245.9z"/>
<path d="M391.8,252.4c0.6,0.1,1.2,0.1,1.8,0c1.3-0.3,2.5-0.8,3.6-1.4c0.5-0.3,1.1-0.6,1.1-1.2c0,0.2-0.1,0.3-0.3,0.4
	c-1.5,0.7-3.1,1.2-4.8,1.4c-0.6,0-1.2-0.1-1.8-0.2c0.1-0.1,0.1-0.3,0.2-0.4c0.8-0.8,1.8-1.4,2.8-1.9c0.5-0.2,1.1-0.6,1.8-0.4
	c-0.5-0.3-1.1-0.1-1.6,0c-1.2,0.3-2.4,0.9-3.4,1.7C390.3,251.4,390.3,252.5,391.8,252.4z"/>
<path d="M305.5,253.3c0.4,0,0.7,0,1.1,0.1c0.6-0.1,1.2-0.3,1.7-0.6c1-0.4,1.9-1.1,2.5-2c-0.2,0.2-0.4,0.4-0.6,0.6
	c-1.1,0.7-2.4,1.2-3.7,1.4c-0.4-0.1-0.8-0.2-1.2-0.2c1.4-1.5,3-2.7,4.9-3.6c-1.5,0.4-2.9,1.1-4.1,2c-0.7,0.4-1.2,0.9-1.6,1.6
	C304.3,253.2,305,253.4,305.5,253.3z"/>
<path d="M555.1,399.3c-1.4-1.5-2.9-3-4.3-4.5l11.5,1.9c0.3,0,0.5-0.1,0.6-0.4c0-0.1,0-0.2,0-0.3c-2.8-5.7-7.1-10.5-12.4-13.8
	l11.5,0.3c0.2,0,0.4-0.1,0.5-0.3c0.1-0.2,0-0.4-0.2-0.6l-14-10.8l0.1,0c2.5-1.2,4.7-2.7,6.8-4.5c0.2-0.2,0.2-0.5,0.1-0.7
	c-0.1-0.2-0.4-0.2-0.6-0.1c-4.5,1.7-9.5,1.5-13.8-0.5c-4.4-2-8.2-5-11.2-8.8c-0.5-0.6-1-1.2-1.5-1.9c-0.3-0.4-0.6-0.8-1-1.2
	c3,1.5,6,3,8.9,4.6c0.2,0.1,0.5,0.1,0.7-0.2c0.1-0.2,0.1-0.5-0.1-0.6c-5.8-5.6-12.7-10.1-20.2-13.1c-1.8-1.4-3.8-2.6-5.8-3.7
	c-2.9-1.6-6.1-2.6-9.4-3l8.8-1.8c0.3-0.1,0.4-0.3,0.4-0.6c0-0.1-0.1-0.3-0.3-0.3c-5.1-2.5-10.7-3.8-16.4-3.8c3.2-0.4,6.4-1,9.6-1.9
	c0.3-0.1,0.4-0.4,0.3-0.6c0-0.1-0.2-0.3-0.3-0.3c-1.1-0.4-2.2-1-3.2-1.6c-1.4-0.9-2.9-1.4-4.5-1.6l0.2-0.1c4.5-2.6,12-6.1,15.7-6.1
	c0.3,0,0.5-0.2,0.5-0.5c0-0.2-0.1-0.3-0.2-0.4c-0.8-0.6-1.5-1.2-2.2-1.9c0-0.1,0-0.1-0.1-0.2c-0.7-0.8-1.4-1.7-1.9-2.6
	c-0.6-1.5-1.1-3.1-1.6-4.6c-0.2-0.8-0.5-1.6-0.7-2.4c-3.3-9.7-9.5-18.2-17.7-24.4c6.1-0.4,12.1-2.4,17.3-5.6
	c0.2-0.1,0.3-0.5,0.2-0.7c-0.1-0.2-0.4-0.3-0.6-0.2c-6.7,3.1-14.7-1.4-18.4-7.3c-3.6-5.9-4.3-13.1-4.8-19.6c2.5,2.7,6.5,3.6,10,2.1
	c0.2-0.1,0.4-0.4,0.2-0.7c0-0.1-0.1-0.2-0.2-0.2c-3.7-2-6.4-5.4-9.1-8.7c-0.8-1-1.7-2.1-2.5-3.1c-2.6-3-7.5-7.7-13.4-7.6
	c4.5-3.9,10.5-5.6,16.4-4.6c0.2,0,0.4-0.1,0.5-0.2c0.1-0.2,0.1-0.4,0-0.6c-0.3-0.4-0.6-0.8-1-1.2l-0.3-0.4c0-0.1-0.1-0.1-0.2-0.1
	c-1.8-0.9-3.8-1.5-5.8-1.8c0.8-0.8,1.5-1.7,2.2-2.7c0.1-0.2,0.1-0.4,0-0.6c-0.4-0.6-0.8-1.2-1.2-1.8v0c-0.1-0.1-0.2-0.3-0.3-0.4l0,0
	c0.4,0.6,0.8,1.2,1.2,1.8c0.1,0.1,0.2,0.2,0.4,0.2h0c0.2,0,0.3-0.1,0.4-0.3c1.7-3.1,2.2-6.7,1.6-10.2c1-4.6,1.3-9.4,0.8-14.1
	c-0.6-5.7-2.3-11.3-4.9-16.4c5.6-18.7,3.2-38.9,0.1-59.6c-0.7-4.8-1.5-10.2-4-15c-1.2-2.4-2.8-4.5-4.8-6.2c-0.6-1-1.3-2-2-3
	c-2.7-3.4-6.2-5.5-9.7-5.8c-4.8-0.5-9.2,2.3-12.2,4.4c-12.8,9.1-21.9,22.5-29.3,34.3c-1.1,1.8-2.3,3.6-3.4,5.4
	c-0.8,1.3-1.6,2.5-2.4,3.8c-7.2,9.6-15.2,18.5-23.9,26.8l-0.5-9.4c0-0.3-0.2-0.5-0.5-0.5c-0.2,0-0.3,0.1-0.4,0.2
	c-4.1,5.8-10.2,9.9-17.1,11.7l1.9-5.4c0.1-0.3,0-0.5-0.3-0.6c0,0-0.1,0-0.1,0c-6-0.3-11.8,2.2-15.8,6.8c-1.3-1.9-1.7-4.4-1-6.6
	c0.1-0.3-0.1-0.5-0.3-0.6c-0.1,0-0.2,0-0.3,0c-2.6,0.7-4.7,2.5-5.8,5l-3.6-5.1c-0.2-0.2-0.5-0.3-0.7-0.1c-0.1,0.1-0.2,0.2-0.2,0.3
	c-0.6,1.8-2.2,3.1-4.1,3.4c-0.7,0.1-3.3-1.2-5.3-2.3c-3.4-1.8-5.5-2.9-6.7-2.6c-0.3,0.1-0.5,0.3-0.6,0.5c-0.3,0.9-1.1,1.5-2.1,1.6
	c-5.3,0.5-16.6-12.3-26.4-24.4c-3.7-6.7-7.9-13.1-12.6-19.2c-8-10-16.9-16.8-26.6-20.4c-3.3-1.2-7.5-2.2-11.4-1.4
	c-0.2-0.2-0.4-0.2-0.6-0.1c-0.2,0.1-0.4,0.3-0.6,0.4c-1,0.3-1.9,0.8-2.7,1.4c-3.8,2.7-5.2,7.7-6,12.2c-1,5.3-1.6,10.6-1.9,16
	c-2.3,26.5,1.8,53.1,11.9,77.7c0.5,2,0.9,4,1.3,6c-1.9-1.6-3.5-3.5-4.8-5.6c-0.1-0.2-0.4-0.3-0.7-0.2c-0.2,0.1-0.3,0.3-0.2,0.5
	c0.4,6.4,0.9,12.9,2.9,19.1c1.5,5,4.3,9.6,8.2,13.2l-3.5,0.7c-0.3,0.1-0.4,0.3-0.4,0.6c0,0.1,0.1,0.2,0.2,0.3l2.4,2.2
	c-4.5,2-7.6,6.3-8.1,11.3c0,0.1,0,0.3,0.1,0.4c0.1,0.1,0.2,0.2,0.4,0.2l5-0.1c-3.4,3.1-5.9,7-7.3,11.3c-0.1,0.3,0.1,0.5,0.3,0.6
	c0.2,0.1,0.4,0,0.5-0.1c0.3-0.3,0.8-0.4,1.3-0.3c0.8,0.2,1.4,0.7,1.7,1.5c0.5,1.4-0.1,3-0.8,4.3c-1.9,4-4.5,7.7-7.8,10.8
	c-0.2,0.2-0.2,0.4-0.1,0.6c0.1,0.2,0.3,0.3,0.5,0.3c3.9-0.5,8.1-1,12.3-1.6c0.7-0.1,1.3,0.3,1.7,0.8c0.3,0.4,0.2,1-0.1,1.4
	c-3.3,4.4-7.1,8.4-11.3,11.8c0,0-0.1,0.1-0.1,0.1c-0.2,0.3-0.4,0.7-0.6,1c-0.1,0.2-0.1,0.4,0,0.6c0.7,0.8,1.4,1.6,2.1,2.4l0,0
	c0.5,0.6,1.1,1.2,1.6,1.7c0.1,0.1,0.2,0.2,0.2,0.3c0,0,0,0,0,0l0.2,0.2c0,0,0,0,0,0c0.1,0.1,0.3,0.3,0.4,0.4l0.3,0.3
	c0.3,0.3,0.5,0.5,0.8,0.8c0.4,0.4,0.8,0.7,1.2,1.1l0,0c1.5,1.4,3.1,2.7,4.8,3.9c-2.3-0.1-4.7,0.2-6.9,0.8c-0.3,0.1-0.4,0.3-0.3,0.6
	c0,0.1,0.1,0.3,0.3,0.3c3.4,1.5,6.7,3.5,9.5,5.8c-10.1,1.7-18.8,8.4-23,17.8c-0.1,0.3,0,0.5,0.3,0.7c0.1,0.1,0.3,0.1,0.4,0l9.3-5.2
	c-2.8,3.9-4.3,8.6-5.7,13.2c-0.4,1.1-0.7,2.3-1.1,3.4c0,0.1,0,0.1-0.1,0.2c-1.4,0.3-2.9,0.6-4.3,1c-2.1,0.5-4.3,1.1-6.4,1.7
	c2.5-0.4,5-0.8,7.5-1.1c0.9-0.1,1.9-0.2,2.8-0.4c-2.8,7.6-6.7,12.2-11.5,13.9c-0.2,0.1-0.4,0.3-0.3,0.6c0,0.2,0.3,0.4,0.5,0.4
	c6.7-0.4,13.1-3.5,17.6-8.4c-0.2,0.5-0.4,1.1-0.6,1.6c-6.9,4.5-13.6,9.3-19.9,14.4c-6.4,5.2-12.4,10.9-17.9,17.2
	c6.5-6.1,13.4-11.8,20.5-17.2c5.2-4,10.8-8,16.5-11.7c-1.6,5.8-1.9,11.8-1,17.7c-2.8,2.1-5.3,4.7-7.2,7.7c-3.3,5.1-5.4,13.7-5.6,22
	h-90.7v19h94.1c0.8,2,2,3.9,3.5,5.4c3.5,3.2,7.7,4.4,11.6,5.3c5.3,1.1,10.6,1.8,16,2.2c0.2,0.4,0.5,0.7,0.8,1
	c1.5,1.5,3.7,2.1,5.8,1.6c1.5-0.4,2.8-1.2,3.8-2.3c5.6,0,11.3-0.4,16.9-1c5.8-0.7,11.3-1.6,16-5.8c1.9-1.8,3.4-4,4.4-6.4h144.4
	c1.3,2.4,3.1,4.5,5.3,6.2c5.1,3.6,10.7,4,16.6,4c0.4,0,0.9,0,1.3,0c5.2,0,10.4-0.3,15.6-0.8c1.2,1,2.6,1.6,4.1,1.8
	c0.3,0,0.5,0,0.8,0c1.9,0,3.6-0.8,4.8-2.3c0.3-0.3,0.5-0.7,0.7-1.1c5.3-1,10.6-2.3,15.7-3.9l0.1,0c0.2,0.3,0.5,0.5,0.8,0.7
	c0.7,0.6,1.6,0.9,2.6,0.9c0.4,0,0.8-0.1,1.1-0.2c1.1-0.5,2-1.3,2.6-2.3c0.7-1,1.2-2,1.5-3.2h89.2v-19L555.1,399.3z M475.1,213.3
	c-0.1-0.1-0.1-0.2-0.2-0.2c-0.1-0.2-0.2-0.3-0.3-0.4c-0.1-0.2-0.5-0.3-0.7-0.2c0,0-0.1,0.1-0.1,0.1c-6,6.9-14.3,11.5-23.3,13.1
	c-0.3,0-0.5,0.3-0.4,0.6c0,0.2,0.2,0.4,0.4,0.4l9.7,2c-3.8,2.5-8.3,3.8-12.9,3.8c-0.3,0-0.5,0.2-0.5,0.4c0,0.3,0.1,0.5,0.4,0.5
	c2.7,0.6,5.1,1.9,7,3.8l-13.5,0.6c-0.3,0-0.5,0.2-0.5,0.5c0,0.2,0.1,0.3,0.2,0.4l27.6,16.6c1,0.6,2,1.2,2.9,2
	c-5.2-2-10.9-2.6-16.4-1.8c-0.3,0-0.5,0.3-0.4,0.6c0,0.2,0.2,0.3,0.3,0.4c3.9,1.2,7.6,3,11,5.3c0,0.1,0.1,0.1,0.1,0.2
	c0.5,1.7,0.8,3.5,0.8,5.3c0.1,1.1,0.2,2.3,0.4,3.4c1.2,6.6,5.8,12.1,12,14.5c-3,0.7-6.2,0.5-9.1-0.6c-0.3-0.1-0.5,0-0.6,0.3
	c-0.1,0.2,0,0.4,0.1,0.5c3,3.1,6,6.2,9.9,8.2c3.3,1.8,7.2,2.3,10.9,1.3c-2.7,3-6.5,4.9-10.5,5.2c-0.3,0-0.5,0.3-0.5,0.5
	c0,0.2,0.2,0.4,0.4,0.4c6.7,2,12.7,6,17,11.5c0.1,0.1,0.2,0.2,0.4,0.2c0,0,0.1,0,0.1,0c0.2,0,0.3-0.2,0.4-0.4c0.4-2,0.7-4,0.7-6
	c0.8,1.9,1.8,3.8,3,5.4c0.2,1,0.6,2,1.1,2.9c0.3,0.4,0.6,0.8,0.9,1.2c-8.9,2.9-18.1,4.7-27.5,5.1c-0.3,0-0.5,0.2-0.5,0.5
	c0,0.1,0.1,0.3,0.2,0.4c2.6,2.2,5.8,3.8,9.2,4.5c-1.4,1.1-3,1.9-4.6,2.4c-1.9-0.7-3.7-1.3-5.2-1.7c-4.6-1.4-9.2-2.5-13.9-3.5
	c6.9-5.3,12.8-11.8,17.4-19.1c0.1-0.2,0.1-0.5-0.2-0.7c-0.2-0.1-0.4-0.1-0.5,0c-4,2.3-8.8,3-13.3,1.9c4.2-3.8,9-7,14.1-9.3
	c0.2-0.1,0.3-0.3,0.3-0.6c0-0.2-0.3-0.4-0.5-0.4c-5.7,0.2-11.5-0.7-16.9-2.7c1.3-0.2,2.5-0.6,3.5-1.2c0.2-0.1,0.3-0.5,0.2-0.7
	c0-0.1-0.1-0.1-0.2-0.2c-4-2.2-7.2-5.6-9.2-9.6c2.5,1.6,5.4,2.3,8.3,2.1c0.3,0,0.5-0.3,0.5-0.5c0-0.1,0-0.2-0.1-0.3
	c-7.6-9.5-18.2-16-26.4-16.2c-0.2,0-0.5,0.2-0.5,0.4c0,0.2,0.1,0.5,0.3,0.6c5.8,2.4,9.9,7.6,10.9,13.7c-2-1.8-4.6-2.8-7.2-2.8
	c-0.3,0-0.5,0.2-0.5,0.5c0,0.2,0.1,0.4,0.3,0.5c4.2,1.6,7.9,4.4,10.5,8.1l-8,0.7c-0.3,0-0.5,0.3-0.5,0.5c0,0.1,0.1,0.2,0.1,0.3
	c3.9,4.1,6.5,9.4,7.3,15l-10.7-5c-0.2-0.1-0.5,0-0.7,0.2c-0.1,0.2-0.1,0.4,0,0.5c4.8,6.9,11.8,12,19.9,14.3c-3.6,1.4-7.5,2-11.4,1.8
	c-0.3,0-0.5,0.2-0.5,0.4c0,0.3,0.1,0.5,0.4,0.6l6.5,1.5c-1.3,1.2-2.6,2.4-3.9,3.6c-3.4-0.5-6.8-1-10.2-1.5c-9-1.2-18.1-1.6-27.2-1
	c-0.4-0.1-0.8-0.2-1.3-0.4c-0.9-0.5-1.8-0.9-2.8-1.2c0.6-0.2,1.2-0.4,1.8-0.6c0.5,0,1,0,1.5-0.1c6.1-0.7,11.9-3.1,16.7-7
	c0.2-0.2,0.2-0.5,0.1-0.7c-0.1-0.1-0.2-0.2-0.4-0.2l-8,0.2c3.6-1.7,6.7-4.4,8.9-7.7c0.2-0.2,0.1-0.5-0.1-0.7c-0.2-0.1-0.3-0.1-0.5,0
	c-4.3,2.2-8.8,3.7-13.5,4.5c4.1-2.2,7.7-5.1,10.8-8.6c0.2-0.2,0.2-0.5,0-0.7c-0.2-0.2-0.4-0.2-0.6,0c-11.9,8.9-28.7,6.7-37.9-4.9
	c-0.2-0.2-0.5-0.3-0.7-0.1c-0.1,0.1-0.2,0.2-0.2,0.4c-0.1,2.6,0.9,5.2,3,7.9l0,0c2.8,3.4,6.5,6.1,10.6,7.9c-1.2,0.1-2.5-0.3-3.6-0.9
	c-0.2-0.1-0.5-0.1-0.7,0.2c-0.1,0.2-0.1,0.5,0.1,0.6l4.1,3.5c-1.9,0-3.8,0.3-5.5,0.9c-0.3,0.1-0.4,0.4-0.3,0.6
	c0,0.1,0.1,0.2,0.2,0.2c1.3,0.9,2.7,1.7,4.1,2.4c-0.5-0.1-1.1-0.1-1.6-0.2c-0.2,0-0.4,0.1-0.5,0.3c-0.1,0.2,0,0.5,0.1,0.6
	c1.8,1.5,3.7,2.9,5.8,4.1c0.5,0.3,1,0.7,1.5,1c-8.6,1.3-16.9,3.8-24,7.9c7.4-3.5,15.7-4.7,23.8-5.9c1.1-0.2,2.3-0.3,3.4-0.4
	c0.8,0.3,1.7,0.7,2.6,1c3,1,5.3,3.3,6.3,6.3l-1.3-1.2c-0.2-0.2-0.5-0.2-0.7,0c-0.1,0.1-0.2,0.4-0.1,0.5c0.3,0.6,0.4,1.2,0.5,1.8
	c-1.1-0.2-2.2-0.3-3.3-0.5c-0.1-1.1-0.6-2.1-1.3-2.9c-0.2-0.2-0.5-0.2-0.7-0.1c-0.1,0.1-0.2,0.3-0.2,0.4c0,0.8-0.4,1.6-1,2.2
	c-3.2-0.3-6.5-0.4-9.7-0.3c-4.3,0.2-8.7,0.4-12.8,1.7c0,0,0,0,0,0c-0.4-0.5-0.8-1-1.4-1.3c-1.5-0.8-3.2,0-4.6,0.9l-2-1.2
	c-0.2-0.1-0.5-0.1-0.7,0.2c-1.1,1.8-0.4,2.9,0.2,3.5c0.8,0.7,1.9,1,2.9,0.7c0.4-0.1,0.9-0.3,1.3-0.5c0.5-0.3,1.1-0.5,1.7-0.4
	c0.4,0.2,0.7,0.4,0.9,0.7c0.1,0.1,0.2,0.2,0.3,0.3c1.2,1.1,2.8,1.6,4.4,1.6c0.2,0,0.5,0,0.7,0c1.4-0.1,2.7-0.5,3.9-1
	c0.4-0.1,0.8-0.2,1.2-0.5c0.2-0.1,0.3-0.4,0.2-0.7c-0.1-0.2-0.4-0.3-0.6-0.2c-0.3,0.1-0.7,0.3-1,0.4c-1.1,0.1-2.2,0-3.3-0.3
	c-1.3-0.2-2.5-0.7-3.5-1.5c-0.1-0.1-0.3-0.3-0.4-0.5c4.4-0.8,9-0.5,13.6-0.3c2,0.1,4,0.3,6.1,0.5c-1.2,0.5-2.2,1.4-2.9,2.6
	c-0.1,0.2-0.2,0.5-0.3,0.7c-0.1,0.4-0.3,0.7-0.6,1c-0.4,0.3-0.9,0.5-1.4,0.6l-0.4,0.1c-2.2,0.7-4,2.2-5,4.2c-0.1,0.2,0,0.5,0.2,0.7
	c0.1,0,0.1,0,0.2,0.1c0.3,0,0.6,0.1,0.8,0.1c2.7,0,5.5-1.7,7.6-4.8l0.2-0.3c0.5-1,1.3-1.7,2.3-2.2c0.4-0.1,0.8-0.1,1.2-0.1
	c0.5,0,1-0.1,1.5-0.2c0.8-0.3,1.5-0.9,1.9-1.8c1.4,0.2,2.7,0.4,4,0.6c0,4.3-1,8.6-2.9,12.4c-2.1,0.7-4.2,1.7-6.1,2.9
	c-6.2-4.7-13.4-7.8-21.3-6.5c6.7-0.5,13.4,2.9,19.7,7.9c-2.4,2.6-4.7,5.5-6.7,8.4c-0.4,0.6-0.7,1-0.9,1.2c-2.5,3.2-6.3,5-9.4,6.3
	c-12.4,5.1-23.4,7.4-35.8,7.2c-7.3-0.1-11.7-0.3-18.3-3.4c-4.4-2.1-8.4-5-11.7-8.5c0,0-0.1-0.1-0.1-0.1l-0.1-0.1
	c-2.1-2.1-4.1-4.4-6.3-7c0,0,0,0,0,0c-0.8-1-1.6-2-2.5-3l-0.4-0.5c-0.3-0.2-0.6-0.5-0.9-0.7c3.4-2.3,7.5-5.3,11.7-6.4
	c-3.9,0.5-7.5,2.5-11.1,4.2c-0.7,0.3-1.3,0.7-1.9,1.1c-0.8-0.7-1.5-1.3-2.3-2l0,0c-1.6-1.2-3.2-2.6-5-4.2c-1.7-1.5-3.3-3.2-4.9-4.9
	c5.9,0.1,11.8,0.5,17.7,1c0,0.1,0.1,0.2,0.2,0.2c0.4,0.4,1,0.5,1.6,0.5c0.7,0,1.3-0.1,1.9-0.4c3.2,0.3,6.4,0.7,9.6,1.3
	c0.2,0.6,0.8,1,1.4,1c0.1,0,0.1,0,0.2,0c0.4,0,0.9-0.1,1.3-0.3c0.2,0.1,0.5,0.1,0.7,0.2c-0.2-0.1-0.4-0.2-0.6-0.2l0,0
	c1.1-0.3,2.1-0.8,3-1.4c1-0.6,1.8-1.6,2.1-2.8c0.1-0.3-0.1-0.5-0.4-0.6c-0.2,0-0.4,0-0.5,0.1l-0.9,1c-0.1-0.1-0.2-0.2-0.4-0.2
	c-0.7-0.1-1.2,1-1.4,1.6c-1.5-0.1-3,0.2-4.4,0.7c-0.1,0.1-0.3,0.2-0.3,0.3c-2.6-0.8-5.2-1.5-7.8-2c0.4-0.3,0.8-0.7,1.2-1.1
	c1.3-1.6,3.2-2.5,5.2-2.5c0.4,0,0.9-0.1,1.3-0.1c1.8-0.3,3.6-1.3,3.8-3.1c0-0.3-0.2-0.5-0.5-0.5c-0.2,0-0.4,0.1-0.5,0.3
	c-0.7,1.3-2.6,1.5-3.6,1.5c-0.3,0-0.6,0-0.9,0c-2.5-0.4-5,0.7-6.4,2.9c-0.3,0.3-0.6,0.7-0.9,1c-0.5,0.5-1.1,0.9-1.7,1.1
	c-2.3-0.4-4.6-0.7-6.9-1c-5-0.5-10.1-0.8-15.1-0.9c-0.3-0.4-0.6-0.7-0.8-1.1c0.1-0.1,0.1-0.3,0.1-0.4c-0.4-1.8-0.5-3.6-0.1-5.4
	c11.5-2,23.1-2.6,34.8-2c-11.4-1.9-22.9-1.9-34.3,0c0.9-2.7,2.4-5.2,4.5-7.2c3.6-3.4,8.9-5.5,14.8-5.8c0.3,0,0.5-0.3,0.5-0.5
	c0-0.2-0.2-0.4-0.3-0.4c-2.4-0.8-5-1.2-7.5-1.3c6.4-2.3,12.1-6.3,16.3-11.7c3.3-1.1,6.2-3.2,8.1-6.2l-0.8,5c0,0.3,0.1,0.5,0.4,0.6
	c0.2,0,0.4,0,0.5-0.2c5.8-8.2,8-18.5,6.1-28.4l0,0c-0.5-2.3-1.6-4.5-3.2-6.3c-0.2-0.2-0.5-0.2-0.7-0.1c-0.1,0.1-0.2,0.3-0.2,0.5
	c1.4,6.1,1.2,12.4-0.5,18.3c-0.3-1.2-0.8-2.3-1.4-3.3c-0.1-0.2-0.4-0.3-0.7-0.2c-0.1,0.1-0.2,0.2-0.2,0.3c-0.2,0.6-0.3,1.2-0.3,1.8
	c-0.2-0.5-0.5-0.9-0.8-1.3c-0.2-0.2-0.5-0.3-0.7-0.1c-0.1,0.1-0.2,0.3-0.2,0.4c0.2,5.6-2.2,10.9-4.7,15.6c-2,2.1-4.2,3.9-6.6,5.5
	c0.8-0.8,1.5-1.7,2.1-2.7c0.2-0.2,0.1-0.5-0.1-0.7c-0.1-0.1-0.3-0.1-0.5,0c-5.6,2.8-11.6,4.5-17.8,5c-0.3,0-0.5,0.3-0.5,0.5
	c0,0.1,0.1,0.3,0.2,0.3c1.2,1,2.6,1.7,4.1,2.2c-5,1.5-9.2,5-11.5,9.7c-0.1,0.2-0.1,0.5,0.2,0.7c0.2,0.1,0.5,0.1,0.7-0.2
	c0.7-1.1,1.8-1.9,3.1-2.3c-1.8,1.7-3.4,3.6-4.7,5.7c-5.7,0.4-11.3-1.9-15-6.3c-0.2-0.2-0.5-0.2-0.7-0.1c-0.2,0.2-0.2,0.4-0.1,0.6
	c1.6,2.5,3.6,4.8,5.8,6.7l-7-1.7c-0.3-0.1-0.5,0.1-0.6,0.4c0,0.2,0,0.4,0.2,0.5l8.7,6.2c0.3,0.2,0.6,0.5,0.6,0.7
	c0,0.2-0.4,0.5-0.7,0.7c-1.1,0.7-2.2,1.4-3.2,2.1c-6.7,1.9-13.3,4.4-19.6,7.3c-3.5,0.3-6.9,0.7-10.3,1.1c0.8-1,1.6-2,2.5-2.9
	c0.2-0.2,0.2-0.5,0-0.7c-0.1-0.1-0.3-0.2-0.5-0.1c-3.6,1.1-6.9,2.7-10,4.9c-1.5,0.2-3.1,0.5-4.6,0.8c3.4-8.4,9.6-15.3,17.5-19.5
	c0.2-0.1,0.3-0.4,0.2-0.7c-0.1-0.2-0.2-0.3-0.4-0.3l-9.1-0.5c3-1.9,6.4-3.1,10-3.5c0.8,0.6,1.5,1.3,2.3,1.9
	c5.2,4.3,11.4,8.8,18.6,9.6c0,0,0,0,0.1,0c0.3,0,0.5-0.2,0.5-0.5c0-0.2-0.1-0.3-0.2-0.4c-4.1-3.2-8.3-6.4-12.1-9.6c0,0,0,0,0,0
	c-0.3-0.2-0.6-0.5-0.9-0.7c-0.4-0.3-0.7-0.6-1-0.9c-3.6-3.1-6.4-7-8.4-11.3c-2-4.1-2.9-8.7-2.5-13.3c0.1-1.2,0.3-2.4,0.6-3.5
	c7.3-5.4,15.2-9.9,23.5-13.5c0.3-0.1,0.4-0.4,0.3-0.7c-0.1-0.1-0.2-0.3-0.3-0.3c-5.1-1.2-10.4-0.5-15,1.9
	c3.5-6.4,9.9-10.8,17.1-11.9c0.3,0,0.5-0.3,0.4-0.6c0-0.2-0.2-0.4-0.4-0.4c-8.4-1.8-17.2,0.5-23.7,6.2c-0.7-5.5,2.3-10.8,7.3-13.2
	c0.3-0.1,0.4-0.4,0.3-0.7c-0.1-0.2-0.3-0.3-0.6-0.3c-2.4,0.5-4.8,0-6.8-1.4c3.2-1.9,6.7-3.3,10.4-4c0.3-0.1,0.4-0.3,0.4-0.6
	c0-0.2-0.1-0.3-0.3-0.4l-8.9-4.3c0.4-2.5,2.8-4.2,5-4.9c2.1-0.5,4.2-0.7,6.3-0.5c0.6,0,1.2,0,1.8,0c2.3,0,5.7-0.3,8.1-2.4
	c0.2-0.2,0.2-0.5,0.1-0.7c-0.1-0.1-0.2-0.2-0.4-0.2c-0.8,0-1.6,0.1-2.4,0.2c-1.8,0.2-3.7,0.4-5.6-0.5c-3.2-1.6-6.4-3.4-9.4-5.4
	c-0.7-1.1-1.3-2.2-1.6-3.5l7.1,0.5c0.2,0,0.5-0.1,0.5-0.4c0.1-0.2-0.1-0.5-0.3-0.6c-4-1.8-7.5-4.5-10.3-7.9
	c4.2,1.9,8.7,3.1,13.3,3.5c0.3,0,0.5-0.2,0.5-0.4c0-0.3-0.1-0.5-0.4-0.6c-9.7-3-17.4-10.4-20.7-20c-0.2-0.5-0.3-1-0.5-1.5
	c0.1-1.4,0.3-2.8,0.6-4.1l4.6,2.3c0.2,0.1,0.5,0,0.7-0.2c0.1-0.2,0.1-0.4,0-0.5c-9.6-14.4-15.8-30.8-17.9-48
	c-0.7-10.4-0.5-20.7,0.4-31.1c0.2-1.2,0.4-2.5,0.6-3.7c1.3-6.6,3.5-11.4,6.8-14.3c0.6,0,1.3,0,1.9,0.1c11.9,1.3,21.5,10.1,30.1,19.4
	c4,4.3,7.9,8.7,11.8,13.2c3.6,5.3,7.7,11.1,11.8,16.9c9.7,13.8,19.7,28.1,22.5,33.5c0.1,0.2,0.3,0.3,0.4,0.3c0,0,0.1,0,0.1,0
	c0.2-0.1,0.4-0.3,0.4-0.5c0-4.7,3.9-8.5,8.6-8.5c0.5,0,1,0,1.5,0.1c0.2,0,0.3,0,0.5-0.1c0.1-0.1,0.2-0.3,0.2-0.4l-0.7-4.6l10.6,6.2
	c0.2,0.1,0.5,0.1,0.7-0.2c0.1-0.1,0.1-0.3,0.1-0.4l-1.2-4.5c2.7,1.4,4.9,3.8,5.9,6.7c0.1,0.3,0.4,0.4,0.6,0.3
	c2.4-0.8,4.5-2.4,5.9-4.5l-0.4,6.2c0,0.3,0.2,0.5,0.5,0.5c0.1,0,0.2,0,0.3-0.1c6.8-4.7,14.8-7.4,23-7.8c1.8,1.4,2.7,3.6,2.4,5.9
	c0,0.3,0.1,0.5,0.4,0.6c0.2,0,0.4-0.1,0.5-0.3c0.9-1.8,1.3-3.9,1-5.9l7.1,6.4c0.2,0.2,0.5,0.2,0.7,0c0,0,0.1-0.1,0.1-0.2
	c2.1-5.7,4.4-11.3,6.9-16.8c11.4-21.1,25.4-40.6,41.6-58.2c3-3.2,6.2-6.4,10.3-7.4c3.4-0.8,7.4,0,11.1,2.3c1.4,0.9,2.7,1.9,3.9,3
	c1.5,3,2.6,6.1,3.3,9.4c2.7,12.2,4.6,24.6,5.5,37.1c0.9,12,0.8,25.7-6.6,36c-0.5,0.6-1.2,1.7-0.8,2.8c0.2,0.6,0.7,1,1.3,1
	c1.1,0.1,2.3-0.4,3-1.3c0.2-0.2,0.4-0.5,0.6-0.8c0.4-0.8,1-1.4,1.7-1.8c3.9,7.8,5.1,16.6,3.4,25.2c-0.4,2-1,4-1.7,5.9l0,0
	c-0.1,0.1-0.1,0.3-0.1,0.4l0,0c0,0.1,0,0.1,0,0.2c0.1,0.1,0.1,0.2,0.2,0.3C474.8,212.8,475,213,475.1,213.3z M430.6,336.3
	c-0.2,0.1-0.3,0.5-0.2,0.7c0.1,0.2,0.3,0.3,0.5,0.2c0.8-0.2,1.6-0.4,2.5-0.6c3.9,1.2,7.8,2.6,11.5,4.2c5.3,2.5,10.3,5.4,15.2,8.7
	c-0.9,0.1-1.8,0.2-2.7,0.2c-0.3,0-0.5,0.2-0.5,0.5c0,0.3,0.2,0.5,0.5,0.5c2,0,3.9,0.3,5.8,0.9c0.5,0.3,0.9,0.6,1.4,1l-13.5,2.5
	c-0.3,0-0.5,0.3-0.4,0.6c0,0.2,0.2,0.3,0.4,0.4l11,3.2c-14.5,4.1-28.6,7-41,2c-0.3-0.1-0.5,0-0.6,0.3c-0.1,0.2,0,0.4,0.2,0.6
	c4.8,3.6,11.2,5.8,18.6,6.3c1.2,0.1,2.4,0.1,3.6,0.1c1.7,0,3.4-0.1,5.1-0.2c-2.5,1.6-4.8,3.5-6.8,5.7c-3.3,3.4-5.5,7.6-6.3,12.2
	c-0.8-1.6-1.6-3.2-2.5-4.8c-4.5-8.1-9.7-15.7-15.7-22.8c-2.3-2.8-4.8-5.5-7.4-7.9c2.5-1,4.7-2.7,6.2-5c1.6-1.7,3-4.9,4.4-12.2
	c0-0.1,0-0.2,0-0.3c0.3,0.1,0.5,0.1,0.8,0.2c3.5,0.8,7,1.6,10.5,2.6C431,336.1,430.8,336.2,430.6,336.3z M480.2,424.4
	c-1.7-0.9-3-2.3-3.6-4.1c-0.8-2.5-0.5-5.3-0.1-8.1c0.1-0.5,0.1-0.9,0.2-1.3c0.9-8.1-0.1-16.4-3.1-24c-0.1-0.5-0.6-0.8-1.1-0.7
	c-0.6,0.2-0.9,0.8-0.8,1.4c1,8.1,0.7,16.4-0.8,24.4c-0.3,1.9-0.9,3.7-1.8,5.3c-0.7,1.1-1.9,2.1-3.1,1.6c-0.8-0.5-1.4-1.1-1.9-1.9
	c-0.6-1-1.5-1.8-2.6-2.3c-1.1-0.4-2.2,0.7-3.2,1.8c-0.7,0.7-1.5,1.5-2,1.5c-0.8,0.1-3.9-2.2-6.3-4.3c-0.4-0.8-0.9-1.6-1.2-2.4
	c-0.3-1.3-0.6-2.6-0.8-4c-0.8-5-1.2-10.1-1.1-15.2c0-0.2-0.2-0.4-0.4-0.5c-0.2,0-0.5,0.1-0.6,0.3c-2.2,6.1-2.3,12.7-0.5,18.9
	c-4.4-3.1-7.3-9.6-7.2-16.3c0-0.1,0-0.3,0-0.4c0.6,1.2,1.2,2.3,1.7,3.3c-0.5-1.4-1.1-2.7-1.7-4.1c0.4-6.3,3.1-12.3,7.4-16.9
	c3.7-3.8,8.5-7.9,13.4-5.8l0.2,0.1c1,0.4,2.4,1,3.4,0c0.5-0.5,0.8-1.1,1-1.8l0.1-0.4c1.1-3.1,4.1-4.8,6.1-5.8c1.9-0.9,3.9-1.5,6-1.9
	c2.8,2.1,5.5,4.3,8.1,6.5c-2.3-2.3-4.7-4.5-7.1-6.7c6-1,12.3-0.4,17.5,0.4c3.3,0.5,6.6,1.4,9.8,2.5c0.7,0.4,1.5,0.8,2.4,1.3
	c3,1.5,6.4,3.3,7.9,4.8c4.1,4,7.4,8.7,9.7,14c2.6,9.7,1.5,21.4-2.8,29.1c-0.4-1.1-1.1-2.1-2.1-2.8c-0.1-0.1-0.3-0.1-0.5-0.1
	c-0.2,0.1-0.3,0.2-0.3,0.4c-0.3,2.1-0.9,4.2-1.9,6.2c0,0.1-0.1,0.1-0.1,0.2c-0.3-0.2-0.5-0.4-0.7-0.7c-0.4-0.7-0.7-1.5-0.8-2.3
	c-0.6-2.7-1-5.5-1.1-8.3c-0.3-3.9-0.6-7.9-2.2-12c-0.2-0.7-0.8-1.1-1.5-0.9c-0.8,0.4-1.2,1.2-0.9,2.1c1,4.7,1.3,9.6,1.1,14.4
	c-0.5,6-3.2,12.7-7.4,13.7c-0.9,0.3-1.8,0-2.4-0.7c-0.7-1-0.8-2.8-0.9-4.3l0-0.1c-0.1-1.8-0.4-3.5-0.7-5.3c-0.3-1.6-1.3-2.3-2.1-2.3
	c-0.8,0-1.7,0.6-1.9,2.3c-0.2,2.6-0.9,5.1-2,7.4C489.9,424.7,484.6,426.7,480.2,424.4z M277.3,388.5c-0.5-0.1-1,0.3-1,0.8
	c-2.1,7.9-2.2,16.2-0.5,24.2c0.1,0.4,0.2,0.9,0.3,1.3c0.7,2.7,1.3,5.6,0.8,8.1c-0.4,1.8-1.5,3.4-3.1,4.5c-4.2,2.8-9.6,1.4-13.1-3.5
	c-1.4-2.2-2.4-4.6-2.8-7.1c-0.3-1.6-1.4-2.1-2.1-2.1c-0.9,0.1-1.8,0.9-1.9,2.5c-0.1,1.8-0.2,3.5-0.1,5.3v0.1
	c0.1,1.6,0.1,3.3-0.5,4.4c-0.4,0.8-1.4,1.2-2.3,1c-4.3-0.6-7.7-6.9-8.8-12.9c-0.8-4.8-1-9.6-0.5-14.5c0.2-0.9-0.3-1.7-1.2-2
	c-0.5-0.1-1.1,0.1-1.4,1.1c-1.2,4.2-1,8.3-0.9,12.2c0.2,2.8,0.1,5.6-0.2,8.4c-0.1,0.8-0.3,1.6-0.6,2.4c-0.3,0.8-1.3,1.3-2.1,1
	c-1-0.5-1.8-1.2-2.5-2.1c-5.8-7-8.7-19.4-7.1-30c1.7-5.5,4.4-10.6,8.1-15c1.4-1.7,4.5-3.8,7.3-5.6c0.8-0.6,1.6-1.1,2.3-1.5
	c3-1.5,6.2-2.7,9.4-3.6c7.1-1.9,16.2-3.7,24.4-1c2.2,0.7,5.2,2.1,6.7,5.1l0.2,0.4c0.2,0.4,0.4,0.8,0.6,1.1
	c-4.5,5.9-8.6,12.1-12.4,18.6c-1.3,2.2-2.6,4.5-3.8,6.7c1.5-2.1,2.9-4.1,4.4-6.2c4.6-6,9.1-12.2,13.7-18.2c0.7-0.1,1.4-0.4,2-0.8
	l0.2-0.1c4.6-2.5,9.9,1,13.9,4.4c5.2,4.4,8.5,10.5,9.4,17.2c0.8,6.7-1.4,13.5-5.4,17c1.2-6.3,0.3-12.9-2.5-18.7
	c-0.1-0.2-0.4-0.3-0.7-0.2c-0.2,0.1-0.3,0.3-0.3,0.5c0.6,5.1,0.8,10.2,0.6,15.3c-0.1,1.4-0.2,2.7-0.4,4c-0.3,0.9-0.6,1.7-1,2.6
	c-2.2,2.4-5,5-5.8,5c-0.5,0-1.4-0.7-2.1-1.3c-1.1-1-2.3-1.9-3.4-1.5c-1,0.6-1.8,1.5-2.3,2.6c-0.4,0.8-1,1.5-1.7,2.1
	c-1.1,0.7-2.5-0.2-3.2-1.2c-1.1-1.6-1.9-3.3-2.3-5.1c-2.4-7.8-3.6-16-3.5-24.2C278.3,389.2,277.9,388.7,277.3,388.5z M537.5,371
	c2.9,2.8,6.5,4.8,10.4,5.8l-21.5,3.8c-0.7-2.2-1.6-4.4-2.7-6.5c1.1,0,2.2,0,3.3,0.1h0c0.3,0,0.5-0.2,0.5-0.5c0-0.2-0.1-0.3-0.3-0.4
	l-6.6-3.8c-1.1-1.4-2.4-2.6-3.8-3.8c2.5,0.1,4.9,0.5,7.3,1.2c0.3,0.1,0.5-0.1,0.6-0.3c0-0.1,0-0.3,0-0.4c-1.2-2.2-3-4-5.2-5.2
	c2.3-0.2,4.5-0.1,6.8,0.3c1.2,1.1,2.4,2.3,3.6,3.5c0.7,0.8,1.5,1.6,2.3,2.4C533.8,368.6,535.6,370,537.5,371L537.5,371z
	 M528.9,391.5c4.1,2.3,8,4.9,11.7,7.8h-11.4C529.3,396.7,529.2,394.1,528.9,391.5L528.9,391.5z M512,351.9c-0.1,0-0.3,0-0.4,0
	c-1.3,0-2.6,0-3.8-0.2c-0.5-0.1-1.1-0.1-1.6-0.1c-0.3,0-0.5,0.3-0.4,0.6c0,0.2,0.1,0.3,0.3,0.4c3,1.5,5.4,4,6.9,6.9
	c-1.3,0.4-2.7,0.8-4.1,1.3c-0.8-0.3-1.6-0.6-2.5-0.9c-3-1.4-6.1-2.4-9.3-3c-0.4-0.1-0.8-0.1-1.2-0.2c-5.7-1.1-11.1-3.4-15.8-6.6
	c6.2-1.3,12.5-2.9,18.8-4.5c2.2,0,4.4,0,6.6,0.2c5.5,1.4,10.6,3.9,14.9,7.6C517.6,352.4,514.8,351.9,512,351.9L512,351.9z
	 M312.9,358.5l0.3,0.2c3.5,2.8,7.2,5.7,8.3,9.8c0.1,0.3,0.4,0.4,0.6,0.3c0.2-0.1,0.4-0.3,0.3-0.6l-0.3-1.2
	c6.1,5.6,13,10.1,20.6,13.3c0.3,0.1,0.5,0,0.7-0.3c0.1-0.2,0-0.4-0.1-0.6c-1-1-1.6-2.4-1.8-3.8c6.2,4.1,14.2,4.3,20.6,0.5
	c-0.2,0.3-0.4,0.6-0.7,0.9l-0.2,0.2c-0.5,0.6-0.8,1.5-0.7,2.3c0.1,0.4,0.4,0.8,0.8,1c0.2,0.1,0.4,0.2,0.6,0.2
	c0.7-0.1,1.3-0.4,1.8-0.8l6.7-5.8c0,1.6,0.7,3.1,1.9,4.2c0.2,0.2,0.5,0.2,0.7-0.1c0.1-0.1,0.1-0.1,0.1-0.2c0.5-2.5,2.6-4.8,5.6-6.4
	c1.6-0.8,3.3-1.5,5.1-2c1.1-0.4,2.3-0.8,3.5-1.3c7.5-3.1,13.4-9.2,19-15.1c0.4-0.4,0.8-0.8,1.2-1.2c9.8,9.2,18.2,21.9,23.3,29.5
	c0.9,1.4,1.8,2.9,2.7,4.4c-2-0.5-3.9-1.3-5.7-2.2c-0.2-0.1-0.5,0-0.7,0.2c-0.1,0.2-0.1,0.4,0.1,0.6l2.7,2.4l-4.8-1.2
	c-0.2-0.1-0.4,0-0.5,0.2c-0.1,0.2-0.1,0.4,0,0.6l2.1,2.5c-1.9-0.5-3.9-1-6.3-1.6c-0.3-0.1-0.5,0.1-0.6,0.4c0,0.2,0,0.4,0.2,0.5
	c4.4,3.4,9.4,6,14.8,7.6c0.2,0.9,0.3,1.8,0.5,2.7c0,0.1,0.1,0.3,0.1,0.4h-21.6c-1.9-5.5-2.2-11.4-0.7-17c0.1-0.3-0.1-0.5-0.3-0.6
	s-0.5,0.1-0.6,0.3c-1.6,4-2.7,8.2-3.3,12.4c-0.2,1.6-0.2,3.3-0.1,4.9h-10.4c-0.3-0.3-0.6-0.6-0.9-0.9c-0.2-0.2-0.5-0.2-0.7,0
	c-0.2,0.1-0.2,0.4-0.1,0.6c0.1,0.1,0.1,0.3,0.2,0.4h-7.3c-2.5-2.1-5.2-4-8-5.8c-0.2-0.1-0.5-0.1-0.7,0.1c-0.1,0.1-0.1,0.3-0.1,0.4
	c0.6,1.7,1.1,3.4,1.4,5.2H342c0.1-0.2,0.3-0.4,0.4-0.6c4.2-6.1,10.8-11.2,19.4-14.6l1.3-0.5c0.3-0.1,0.4-0.4,0.3-0.7
	c-0.1-0.2-0.4-0.4-0.6-0.3c-0.4,0.2-0.9,0.3-1.3,0.5c-5.2,2-11.3,4.6-16.6,8.1c-3.3,2.2-6.3,4.9-8.7,8.1h-0.5
	c1.4-2.6,2.9-5.2,4.6-7.6c0.2-0.2,0.1-0.5-0.1-0.7c-0.2-0.1-0.4-0.1-0.6,0c-3.1,2.3-5.9,5.1-8.1,8.3H315c0.1-0.7,0.2-1.4,0.3-2
	c1.4-10.1-1.5-18.5-8.3-24.2c-7.2-6.1-11.1-6.3-14.2-6.4c-0.4,0-0.8,0-1.2-0.1c4.5-5.4,9.5-10.3,14.9-14.8
	C308.3,354.4,310.4,356.7,312.9,358.5L312.9,358.5z M474.2,329.3c-0.3,0-0.5,0.2-0.5,0.4c0,0.2,0.1,0.4,0.2,0.5l2.9,1.8
	c-7.7,4.1-16.3,5.9-24.7,7.7c-0.3,0.1-0.4,0.3-0.4,0.6c0,0.2,0.2,0.4,0.4,0.4c2.4,0.4,4.7,0.6,7.1,0.6c5.4-0.1,10.8-1,16-2.7h0l0,0
	c1.2-0.4,2.4-0.8,3.6-1.3c4.4-1.2,9.4-1.3,14.1-1.3c-4.9,2.3-9.4,5.5-13.3,9.4c-5.5,1.8-11.2,3.1-17,3.9c-5.8-4.2-12-7.9-18.5-10.9
	c-2.3-1-4.6-1.9-7-2.7c7.7-2.4,15-6,21.5-10.7c4.9,0.9,9.7,1.9,14.4,3c1.6,0.4,3.2,0.8,4.8,1.2C476.7,329.4,475.4,329.4,474.2,329.3
	L474.2,329.3z M433.5,334.5c-3.2-1-6.4-1.8-9.6-2.6c-1.2-0.3-2.5-0.6-3.7-0.8c0.3-4.4-0.9-8-3.4-10c-0.1-0.1-0.2-0.1-0.3-0.2
	c10.7-0.2,21.3,0.6,31.8,2.3C443.6,327.2,438.6,331,433.5,334.5L433.5,334.5z M272.8,334.9l-0.3,0c-2,0.1-4,0.3-5.9,0.4
	c3.2-1.3,6.4-2.6,9.6-3.6c0.1,0,0.3-0.1,0.4-0.1C275.3,332.7,274,333.8,272.8,334.9L272.8,334.9z M270.4,337.3
	c-1.3,1.3-2.5,2.7-3.7,4.2c-0.2,0.2-0.1,0.5,0.1,0.7c0.2,0.1,0.4,0.1,0.6,0.1c3.8-2,8.3-4.4,13-5.4c0.8,0,1.7-0.1,2.5-0.1
	c-1.1,0.7-2,1.6-2.8,2.6c-0.2,0.2-0.1,0.5,0.1,0.7c0.1,0.1,0.3,0.1,0.4,0.1c5.4-1.2,11.1-0.7,16.3,1.3c0.6,0.7,1.2,1.4,1.9,2.1
	c2,2,4.2,3.8,6.5,5.4c0.1,0.4,0.2,0.7,0.4,1.1c-5.1,3.6-9.7,7.9-13.7,12.8c-0.9,1.1-1.9,2.2-2.8,3.3c-2.1-0.9-4.1-1.9-6-3
	c-3.1-2-6.6-3.3-10.3-3.9c-8-1.2-16.1,0.9-23.1,3c-2.8,0.8-5.5,2-8,3.5c0-0.4,0-0.8-0.1-1.2c3.1-10.1,9.6-18.9,18.4-24.7
	c0.2-0.2,0.3-0.5,0.1-0.7c-0.1-0.1-0.3-0.2-0.4-0.2c-0.3,0-0.7,0-1,0.1c0.6-0.3,1.1-0.6,1.7-0.8
	C263.8,337.7,267.1,337.5,270.4,337.3L270.4,337.3z M245.4,347.3c0.2-0.5,0.4-1.1,0.6-1.6c0.9-0.5,1.7-1,2.6-1.5
	C247.5,345.2,246.4,346.2,245.4,347.3L245.4,347.3z M247.1,342.9c0.6-1.3,1.3-2.6,2.1-3.8c2.1-0.2,4.2-0.4,6.2-0.6
	C252.6,339.9,249.9,341.4,247.1,342.9L247.1,342.9z M236.5,343.6c0.3-1.1,0.6-2.1,1-3.2l2.5-0.3
	C238.8,341.2,237.6,342.4,236.5,343.6L236.5,343.6z M475.2,213.4c0.4,0.6,0.8,1.2,1.2,1.8C476,214.6,475.6,214,475.2,213.4
	L475.2,213.4z"/>
</svg>
