<?xml version="1.0" encoding="utf-8"?>
<!-- Generator: Adobe Illustrator 24.2.3, SVG Export Plug-In . SVG Version: 6.00 Build 0)  -->
<svg version="1.1" id="e9f5c12e-d9d0-428f-8fcd-ab4884ed4831"
	 xmlns="http://www.w3.org/2000/svg" xmlns:xlink="http://www.w3.org/1999/xlink" x="0px" y="0px" viewBox="0 0 683.2 452.1"
	 style="enable-background:new 0 0 846.6 519.2; fill: #215342;" xml:space="preserve" height="209" width="340" transform="translate(-70, 0)">
<path d="M389.9,282.8c0.1-0.3,0.2-0.6,0.2-1c0.4-2.3-0.4-4.6-1.1-6.8l-0.2-0.7c-0.7-2.2-1.3-4.8-0.3-6.9c0.1-0.3,0-0.5-0.3-0.7
	c0,0,0,0,0,0c-0.6-0.3-1.2-0.2-1.8,0.1c-1.1,0.8-1.3,2.8-1.3,3.6c0,0.9,0,1.8,0.1,2.7c0.1,1,0.2,2,0.1,2.9c-0.1,1.6-0.8,3.5-2.4,4.2
	c-0.3,0.1-0.6,0.2-0.9,0.3c-0.4,0.1-0.8,0.2-1.2,0.4c-0.9,0.4-1.5,1.4-1.2,2.4c0.3,0.7,1.1,1.2,1.8,1.1c0.3,0,0.5,0,0.8-0.1
	c0.3-0.1,0.6-0.2,0.9-0.3c0.9-0.5,1.9-0.5,2.8-0.1c0.2,0.1,0.4,0.1,0.6,0.2C387.8,284.5,389.3,284,389.9,282.8z"/>
<path d="M323.4,153.6c3.5,2.9,7.4,6.2,10.5,10.3c1.8,2.5,3.4,5.1,4.8,7.8c0.7,1.2,1.4,2.5,2.1,3.7c1.8,3.3,4.2,6.3,7.1,8.8l-4.1-0.8
	c-0.3-0.1-0.5,0.1-0.6,0.4c0,0.1,0,0.3,0.1,0.4c2.3,3.3,5.7,5.6,9.6,6.5c-2.9,2.7-4.7,6.3-5.1,10.2c0,0.3,0.2,0.5,0.5,0.5
	c0.2,0,0.4-0.1,0.5-0.3c0.8-1.7,2.1-3,3.8-3.8c-0.5,4.8-3,9.1-6.8,12c-0.4,0.3-0.9,0.6-1.4,0.9c-0.2,0.2-0.3,0.5-0.1,0.7
	c0.1,0.1,0.2,0.2,0.4,0.2c0.1,0,0.2,0,0.3-0.1c0.4-0.3,0.9-0.6,1.3-0.9c3.7-2.5,8-5.9,9.6-10.7c0.2-0.5,0.3-1,0.4-1.5
	c0.2-0.7,0.4-1.4,0.7-2.1c0.4-1.1,1.2-2,2.3-2.4c0.3-0.1,0.4-0.4,0.3-0.6c-0.1-0.2-0.2-0.3-0.4-0.3c-1.1-0.2-2.2-0.2-3.2,0.1
	c1.3-1.9,3.2-3.3,5.3-4.1c0.3-0.1,0.4-0.4,0.3-0.6c-0.1-0.2-0.3-0.3-0.5-0.3c-1.7,0-3.3-0.3-4.9-0.7c0.9-0.3,1.8-0.8,2.4-1.5
	c0.2-0.2,0.2-0.5,0-0.7c-0.1-0.1-0.2-0.1-0.2-0.1c-4.7-1-9.2-3.9-13.4-8.8c-2.2-2.6-4.2-5.3-6.1-8.1c-1.2-1.8-2.5-3.6-3.8-5.3
	c-4.2-5.5-8.3-9-12.7-10.9c-0.3-0.1-0.5,0-0.7,0.3c-0.1,0.2,0,0.4,0.1,0.6C322.3,152.7,322.8,153.1,323.4,153.6z"/>
<path d="M322.6,239c1.9-2,1.3-5.3-0.5-7.2c-1.4-1.4-3.1-2.4-5-3c2.1-0.5,4.3-0.5,6.4,0.2c0.3,0.1,0.5-0.1,0.6-0.3
	c0.1-0.2,0-0.5-0.2-0.6l-5.4-3.2l9.8-2.9c0.3-0.1,0.4-0.4,0.3-0.6c0-0.2-0.2-0.3-0.4-0.3c-2.6-0.7-4.9-2.4-6.3-4.8l3.2,1.3
	c0.3,0.1,0.5,0,0.7-0.3c0-0.1,0-0.1,0-0.2c0.2-9.9-4.2-19.3-12.1-25.4c-0.2-0.2-0.5-0.1-0.7,0.1c-0.2,0.2-0.1,0.5,0.1,0.7
	c4.2,3.7,7.2,8.6,8.5,14.1c0.2,0.9,0.6,3-0.7,3.8c-0.7,0.4-1.6,0.3-2.3-0.1c-0.8-0.5-1.5-1.2-2-2l-8.2-10.4c-0.8-1-3.2-4-6-3.1
	c-1.9,0.6-2.7,2.7-3.1,4.2c-3.1,10.4-2.4,19.3,2.1,27.2c3.9,6.8,9.4,12.6,16,16.8c0.1,0.1,0.2,0.1,0.3,0.1c0.3,0,0.5-0.2,0.5-0.5
	c0-0.1,0-0.2-0.1-0.3l-1.4-1.9C319.5,240.7,321.4,240.3,322.6,239z"/>
<path d="M300.6,191c0.9-0.1,1.7,0.1,2.6,0.3c0.3,0.1,0.7,0.2,1,0.2c1.7,0.4,3.2,0,4-0.9c0.2-0.2,0.2-0.5-0.1-0.7c0,0,0,0,0,0
	c-1.8-1.3-3.7-2.5-5.8-3.4c1.5,0.2,3,0.7,4.3,1.4c0.2,0.1,0.5,0.1,0.7-0.2c0.1-0.2,0.1-0.5-0.1-0.7l-7-5l7.1-0.1
	c0.3,0,0.5-0.2,0.5-0.5c0-0.1-0.1-0.3-0.1-0.3c-1.7-1.7-4.1-2.2-6.4-2.7c-0.4-0.1-0.9-0.2-1.3-0.3c-1.5-0.4-5.1-1.5-5.6-4.3
	c-0.3-1.9,1-3.7,1.9-4.6c2-2.1,4.5-3.5,7.4-4c0.3,0,0.5-0.3,0.4-0.6c0-0.2-0.2-0.3-0.3-0.4c-1.3-0.5-2.6-0.7-4-0.6
	c0.8-0.3,1.5-0.5,2.3-0.6c0.3-0.1,0.4-0.3,0.4-0.6c0-0.1-0.1-0.2-0.2-0.3c-2-1.6-4.5-2.4-7.1-2.1c-2.7-6-3.7-12.6-2.7-19.1
	c0.4-2.9,1.4-4.7,2.8-5.5c1.4-0.7,3-0.7,4.4-0.1c1.5,0.6,2.9,1.5,4.1,2.5c0.2,0.2,0.5,0.1,0.7-0.1c0.1-0.2,0.1-0.4,0-0.6
	c-1.5-2.1-3.4-4.7-6.2-5.9c-1.9-0.8-4.1-0.7-6,0.3c-0.9,0.5-1.5,1.4-1.7,2.4c-2.4,21-0.9,42.3,4.3,62.8c0.1,0.2,0.2,0.4,0.5,0.4h0
	c0.2,0,0.4-0.1,0.5-0.3C296.8,194.5,298.1,191.4,300.6,191z"/>
<path d="M458.3,182.1L458.3,182.1c2.2,0.5,4.2,1.7,5.7,3.4c-1.1-0.1-2.1,0-3.1,0.3c-0.3,0.1-0.4,0.4-0.3,0.6
	c0.1,0.2,0.2,0.3,0.4,0.3c1.1,0.3,2,1.1,2.5,2.1c0.3,0.6,0.6,1.3,0.9,2c0.2,0.5,0.4,1,0.6,1.4c2.1,4.5,6.8,7.3,10.7,9.4
	c0.5,0.3,0.9,0.5,1.4,0.7c0.2,0.1,0.5,0,0.7-0.2c0.1-0.2,0-0.5-0.2-0.7c-0.5-0.2-1-0.5-1.4-0.7c-4.1-2.4-7-6.4-8.1-11
	c1.7,0.6,3.2,1.8,4.1,3.3c0.1,0.2,0.5,0.3,0.7,0.2c0.2-0.1,0.3-0.3,0.2-0.5c-0.8-3.8-3-7.1-6.2-9.4c3.7-1.3,6.8-4,8.7-7.5
	c0.1-0.2,0-0.5-0.2-0.7c-0.1-0.1-0.3-0.1-0.4,0l-3.9,1.3c2.5-2.8,4.5-5.9,5.9-9.4c0.6-1.3,1.1-2.6,1.6-3.9c1.1-2.8,2.3-5.6,3.8-8.2
	c2.6-4.4,6.1-8.1,9.2-11.3c0.5-0.5,1-1,1.4-1.5c0.2-0.2,0.2-0.5,0-0.7c-0.2-0.2-0.4-0.2-0.6-0.1c-4.2,2.4-7.7,6.2-11.2,12.1
	c-1.1,1.8-2.1,3.8-3.1,5.6c-1.5,3-3.2,5.9-5,8.6c-3.6,5.3-7.7,8.7-12.2,10.2c-0.3,0.1-0.4,0.4-0.3,0.6c0,0.1,0.1,0.2,0.2,0.2
	c0.7,0.6,1.6,1,2.5,1.2c-1.5,0.6-3.1,1-4.8,1.2c-0.3,0-0.5,0.3-0.4,0.6C458,181.8,458.1,182,458.3,182.1z"/>
<path d="M494.2,210.8c0.1,0.2,0.2,0.3,0.4,0.3l0,0l10,1.7l-5,3.8c-0.2,0.2-0.3,0.5-0.1,0.7c0.1,0.2,0.4,0.2,0.6,0.2
	c2-0.9,4.1-1.2,6.2-0.9c-1.8,0.8-3.4,2-4.6,3.6c-1.5,2.1-1.7,5.4,0.4,7.1c1.4,1.1,3.3,1.3,5.9,0.6l-1.1,2c-0.1,0.2,0,0.5,0.2,0.7
	c0.2,0.1,0.4,0.1,0.6,0c6-4.9,10.7-11.2,13.8-18.3c3.5-8.3,3.2-17.1-1-26.9c-0.6-1.4-1.7-3.3-3.6-3.7c-2.8-0.6-4.9,2.7-5.5,3.8
	l-6.9,11.1c-0.4,0.8-1,1.6-1.7,2.2c-0.6,0.5-1.5,0.7-2.3,0.4c-1.3-0.6-1.2-2.8-1.1-3.6c0.7-5.5,3.1-10.6,6.8-14.8
	c0.2-0.2,0.2-0.5,0-0.7c-0.2-0.2-0.5-0.2-0.7,0c-7,6.8-10.3,16.6-8.9,26.3c0,0.3,0.3,0.5,0.6,0.4c0.1,0,0.1,0,0.2-0.1l3-1.6
	c-1.1,2.4-3.1,4.4-5.6,5.4C494.2,210.2,494.1,210.5,494.2,210.8z"/>
<path d="M508.3,126c0.2,0.1,0.4,0.1,0.6-0.1l0,0c1.1-1.2,2.4-2.1,3.7-2.9c1.3-0.8,2.9-0.9,4.3-0.4c1.6,0.7,2.7,2.3,3.4,5.1
	c1.7,6.2,1.5,12.8-0.4,19h-0.1c-2.5,0-4.9,1-6.6,2.8c-0.2,0.2-0.2,0.5,0,0.7c0.1,0.1,0.2,0.1,0.3,0.1c0.8,0.1,1.6,0.2,2.3,0.3
	c-1.3,0.1-2.6,0.5-3.8,1.1c-0.2,0.1-0.3,0.4-0.2,0.7c0.1,0.2,0.2,0.3,0.4,0.3c2.8,0.2,5.5,1.2,7.7,3.1c0.9,0.8,2.4,2.4,2.3,4.3
	c-0.1,2.8-3.5,4.4-5,4.9c-0.4,0.1-0.8,0.3-1.3,0.4c-2.2,0.7-4.5,1.5-6,3.4c-0.1,0.2-0.1,0.4,0,0.5c0.1,0.2,0.3,0.3,0.5,0.3l7-0.7
	l-6.3,5.6c-0.2,0.2-0.2,0.5,0,0.7c0.2,0.2,0.5,0.2,0.7,0.1c1.2-0.9,2.6-1.5,4.1-1.9c-1.9,1.1-3.7,2.4-5.3,3.9
	c-0.1,0.1-0.2,0.2-0.2,0.4c0,0.1,0.1,0.3,0.2,0.4c0.9,0.8,2.4,1,4.1,0.5c0.3-0.1,0.6-0.2,1-0.4c0.8-0.4,1.6-0.6,2.5-0.6
	c2.5,0,4.1,2.9,5.1,5.1c0.1,0.2,0.3,0.3,0.5,0.3c0,0,0,0,0.1,0c0.2,0,0.4-0.2,0.4-0.4c2.8-20.7,1.8-41.7-3-62c-0.2-1-1-1.8-1.9-2.1
	c-1.9-0.7-4.1-0.6-5.9,0.4c-2.6,1.5-4.2,4.2-5.4,6.4C508,125.6,508.1,125.9,508.3,126z"/>
<path d="M370.1,236c-0.3,0-0.5,0.3-0.5,0.5c0,0.2,0.2,0.4,0.4,0.5c4.4,0.9,8.1,3.7,10.2,7.7c-1.1-0.9-2.3-1.7-3.6-2.3
	c-0.4-0.3-0.9-0.5-1.4-0.7c-0.3-0.1-0.5,0-0.6,0.3c-0.1,0.2,0,0.5,0.3,0.6c0.4,0.2,0.9,0.4,1.3,0.6c1.1,0.7,2,1.5,2.7,2.6
	c-8.2-4.6-17.8-6.2-27.1-4.7c-0.3,0-0.5,0.3-0.4,0.6c0,0.3,0.3,0.4,0.5,0.4c5.5-0.4,11,0.1,16.3,1.6c5.2,1.4,9.9,4.3,13.5,8.4
	c0.1,0.2,0.3,0.2,0.5,0.2c0.2-0.1,0.3-0.2,0.4-0.4c0.1-0.4,0.1-0.9,0-1.3c0.6,0.9,1.1,1.9,1.4,3c0.1,0.2,0.3,0.4,0.5,0.4h0
	c0.2,0,0.4-0.2,0.5-0.4c0.4-2.2,0.2-4.5-0.5-6.6c0.1,0,0.3,0,0.4,0c0.2-0.1,0.3-0.3,0.3-0.5c-0.3-3-2.1-5.7-4.7-7.1
	C375.5,236.7,372.8,235.8,370.1,236z"/>
<path d="M384.4,275.1c0-5.2,0-11.7-3-16.8c-1.7-2.6-3.8-4.9-6.3-6.8c-2.2-1.8-4.6-3.2-7.2-4.2c-3.8-1.3-8.4-1.4-13.8-0.3
	c-3.1,0.7-6.1,1.6-8.9,2.9c-0.1,0-0.1,0-0.2,0c-0.1,0.1-0.2,0.1-0.3,0.2c-1.2,0.6-2.5,1.2-3.7,1.8c-1.2,0.5-2.5,1-3.8,1.3
	c-0.9,0.4-2,0.4-2.9-0.1c-0.2-0.2-0.5-0.1-0.7,0.1c-0.1,0.1-0.1,0.3,0,0.5c0.7,1.6,2.1,2.8,3.8,3.2l-2.3,0.9
	c-0.2,0.1-0.3,0.3-0.3,0.5c0,0.2,0.2,0.4,0.4,0.4c0.9,0.2,1.8,0.4,2.7,0.5c-1.1,1.6-1.7,3.5-1.8,5.5c0,0.3,0.2,0.5,0.5,0.5
	c0.1,0,0.3,0,0.4-0.1l2.1-1.8c0,1.1-0.1,2.2-0.3,3.2c-0.3,1.3-1.2,2.5-2.4,3.1c-0.3,0.1-0.4,0.4-0.3,0.7c0.1,0.2,0.3,0.3,0.6,0.3
	c1.4-0.4,2.8-0.9,4.1-1.7l-0.5,2.3c-0.1,0.3,0.1,0.5,0.4,0.6c0.1,0,0.3,0,0.4-0.1l1.1-0.8c0.2,0.6,0.5,1.1,1,1.6
	c1.3,1.2,3,2.1,4.7,2.6c0.8,0.3,1.6,0.6,2.4,1c0.2,0.1,0.5,0,0.7-0.2c0.1-0.2,0.1-0.4-0.1-0.6c-1-1-1.9-2.1-2.6-3.4c0,0,0,0,0,0
	c0.1-0.2,0.1-0.5-0.1-0.7c-0.3-0.3-0.7-0.6-0.9-1l-0.1-0.1c-0.1-0.3-0.3-0.5-0.4-0.8c-0.5-1.6-0.8-3.2-0.8-4.9
	c-0.2-2.2,0-4.5,0.5-6.7c0.2-0.7,0.6-1.4,1-2.1c0.9-0.4,1.7-0.7,2.6-1.1c2.1-1,4.3-1.8,6.6-2.4c1.2-0.2,5.2-1,7.7-0.7
	c1.9,0.4,3.9,1,5.7,1.8c2.6,1.6,4.8,3.8,6.5,6.4c2.2,3.4,2.9,7.6,2.1,11.5c-0.2,0.9-0.5,1.7-1,2.4c-0.6,0.7-1.4,1.3-2.3,1.8
	c-3.4,1.7-7.2,2.5-11,2.4c-3.8-0.1-7.6-0.9-11.2-2.3c-0.3-0.1-0.5,0-0.6,0.3c-0.1,0.2,0,0.5,0.2,0.6c3.2,1.9,6.8,3.3,10.5,3.9
	c0.1,0.2,0.3,0.3,0.4,0.3h0.1c0.3,0,0.6-0.1,0.9-0.1c0.4,0,0.8,0,1.2,0c4.2-0.2,8.3-1.1,12.1-2.9c2.1-0.7,4.2-1.4,6.3-2.3
	C384.3,275.5,384.4,275.3,384.4,275.1z"/>
<path d="M436.9,247.3c0.2,0.1,0.5,0,0.6-0.3l0.1-0.3c-0.2,1.9-0.2,3.8,0,5.7c0,0.2,0.2,0.4,0.5,0.5h0c0.2,0,0.4-0.2,0.5-0.4
	c0.3-1.2,0.6-2.3,1-3.4c0,0.9-0.1,1.9-0.2,2.8c0,0.3,0.2,0.5,0.4,0.6c0.2,0,0.4-0.1,0.5-0.2c7.2-11.5,20.1-18.2,33.6-17.4
	c0.3,0,0.5-0.2,0.5-0.4c0-0.3-0.1-0.5-0.4-0.6c-5.7-1.1-11.6-0.7-17.1,1.2c-4.8,1.6-9.2,4.2-13.1,7.5c0.7-1.4,1.7-2.7,2.8-3.7
	c0.2-0.2,0.2-0.5,0.1-0.7c-0.2-0.2-0.5-0.2-0.7-0.1c-1.6,1.3-3.1,2.9-4.4,4.5c0.1-4.1,2.3-7.9,5.9-9.9c0.2-0.1,0.3-0.4,0.2-0.7
	c-0.1-0.2-0.3-0.3-0.5-0.3c-1.4,0.2-2.8,0.7-5.5,2.7c-1.8,1.5-3.2,3.4-3.9,5.6c-0.7,2.1-1.1,4.4-1.4,6.6
	C436.5,247.1,436.6,247.3,436.9,247.3z"/>
<path d="M358.7,199.1c0.1,0.2,0.3,0.3,0.5,0.3l3.5-0.2c-1.2,1.6-2.6,3.1-4.2,4.3c-0.2,0.1-0.2,0.4-0.2,0.6c0.1,0.2,0.3,0.4,0.5,0.3
	l1,0l-7.2,7.4c-0.2,0.2-0.2,0.5,0,0.7c0.2,0.2,0.4,0.2,0.6,0.1l18.8-10.8c0.2-0.1,0.3-0.4,0.2-0.7c0,0-0.1-0.1-0.1-0.1
	c-1.3-1.2-3-1.9-4.8-2c3.9-3.1,8.3-5.7,12.9-7.7c0.3-0.1,0.4-0.4,0.3-0.7c-0.1-0.1-0.2-0.2-0.3-0.3c-0.4-0.1-0.8-0.2-1.3-0.4
	c-3-0.9-7.1-2.1-12,2l-8,6.7C358.6,198.7,358.6,199,358.7,199.1z"/>
<path d="M446.9,188.1c0.5,0.3,1,0.6,1.5,0.9c-0.7,0.6-1,1.4-1.1,2.3c0,0.2,0.1,0.4,0.4,0.5c2.1,0.6,4.1,1.4,5.9,2.4l-1.8,1.3
	c-0.2,0.2-0.3,0.5-0.1,0.7c0.1,0.1,0.2,0.2,0.3,0.2c2.6,0.5,5.1,1.5,7.5,2.8c0.7,0.3,1.4,0.7,2.1,1c2.4,1.2,4.9,1.9,7.6,2
	c1,0,1.9-0.1,2.9-0.4c0.3-0.1,0.4-0.4,0.3-0.6c0-0.1-0.1-0.2-0.3-0.3l-11.4-5.5l1.5-0.1c0.3,0,0.5-0.2,0.5-0.5
	c0-0.2-0.1-0.3-0.3-0.4l-8.3-4.6c1-0.1,2,0,2.9,0.4c0.3,0.1,0.5,0,0.7-0.3c0.1-0.2,0-0.4-0.1-0.6c-3.5-2.9-8.1-4.2-12.6-3.5
	c-0.3,0-0.5,0.3-0.4,0.6c0,0.1,0.1,0.3,0.2,0.3C445.3,187.2,446.1,187.7,446.9,188.1z"/>
<path d="M396,180.7c2.8-0.3,5.7,0.5,8,2.2c-0.2,0.2-0.3,0.4-0.3,0.7c-0.4,0-0.8,0-1.2,0c-0.3,0-0.5,0.3-0.4,0.6
	c0,0.2,0.2,0.4,0.5,0.4l1.7,0.1c1.2,0.3,2.3,0.9,3.2,1.8c1.3,1.4,2.3,2.9,3.2,4.6c0.1,0.2,0.4,0.3,0.7,0.2c0.2-0.1,0.3-0.2,0.3-0.4
	l0.1-2.3l2.2,4.3c0.1,0.2,0.3,0.3,0.4,0.3c0,0,0.1,0,0.1,0c0.2,0,0.4-0.2,0.4-0.4c0.5-5.8,3.3-11.2,7.7-15c0.2-0.2,0.2-0.5,0.1-0.7
	c-0.1-0.2-0.4-0.2-0.6-0.1c-2.1,0.8-3.9,2.1-5.5,3.7c0.4-0.7,0.9-1.4,1.5-2c0.2-0.2,0.2-0.5,0-0.7c-0.2-0.2-0.5-0.2-0.7,0l-4.6,4.1
	l0.7-3.3c0.1-0.3-0.1-0.5-0.4-0.6c-0.2-0.1-0.5,0.1-0.6,0.3c-0.6,1.3-1.4,2.6-2.4,3.6c-4.6-3.2-10.2-4.1-14.3-2.1
	c-0.2,0.1-0.3,0.4-0.3,0.6C395.5,180.6,395.7,180.8,396,180.7z"/>
<path d="M391.4,325.1c-0.6,0.4-1.3,0.8-2,1.1c-0.3,0.1-0.4,0.3-0.4,0.6c0,0.2,0.2,0.3,0.3,0.3c1.2,0.4,2.5,0.3,3.8,0
	c0.5-0.1,0.9-0.5,1.2-0.9c0.1-0.3,0.1-0.7,0-1c-0.2-0.4-0.5-0.7-0.9-0.9C393,324.1,392.5,324.4,391.4,325.1z"/>
<path d="M443,309.5c-0.6-0.1-1.3,0.1-1.7,0.7c-0.8,1.1-2.2,1.7-3.5,1.7c-0.2,0-0.3,0.1-0.4,0.2c-0.1,0.1-0.1,0.3-0.1,0.5
	c0.5,1.1,1.6,1.8,2.8,1.7c0.2,0,0.4,0,0.5,0c1.3-0.3,2.3-1.1,2.9-2.2c0.2-0.4,0.3-0.8,0.3-1.2C443.8,310.2,443.5,309.7,443,309.5z"
	/>
<path d="M434.3,322.7c0.9,0.1,1.9-0.2,2.5-0.9c0.3-0.4,0.4-1,0.1-1.5c-0.1-0.2-0.3-0.3-0.5-0.3c-1.5,0.1-3-0.1-4.4-0.6
	c-0.2-0.1-0.4,0-0.5,0.1c-0.1,0.1-0.2,0.3-0.1,0.5C431.8,321.4,432.9,322.4,434.3,322.7z"/>
<path d="M428.7,326.1c-0.2,0-0.3,0.1-0.4,0.3c-0.1,0.2-0.1,0.3,0,0.5c0.9,1.5,2.5,2.4,4.2,2.5c0.1,0,0.2,0,0.3,0
	c0.7-0.1,1.5-0.4,1.6-1.2c0-0.4-0.1-1.1-1.5-1.5C431.6,326.1,430.1,326,428.7,326.1z"/>
<path d="M442.8,323.8c-0.2,0-0.4,0.1-0.6,0.1c-0.2,0-0.5,0-0.9,0.1c-0.7,0.1-1.5,0.3-2.1,0.7c-0.3,0.1-0.5,0.4-0.6,0.7
	c-0.1,0.4,0.1,0.8,0.5,1c0.2,0.1,0.5,0.2,0.8,0.1h0c1.3,0,2.5-0.3,3.7-0.8c0.7-0.3,0.8-0.8,0.8-1.1c0-0.3-0.2-0.5-0.4-0.6
	C443.6,323.7,443.1,323.7,442.8,323.8z"/>
<path d="M450.8,323.7c0,0,0.1,0,0.1,0c0.4,0,0.8-0.2,1.2-0.4c0.7-0.4,1.4-1,1.9-1.6c0.3-0.3,0.5-0.7,0.5-1.1c0-0.3-0.1-0.6-0.4-0.9
	c-0.2-0.2-0.5-0.3-0.8-0.2c-0.2,0-0.4,0.1-0.6,0.3l-2.3,1.8c-0.7,0.6-0.8,1.1-0.7,1.4C449.9,323.3,450.3,323.6,450.8,323.7z"/>
<path d="M392.2,294.2L392.2,294.2c1.7-0.1,3.2-0.9,4.2-2.3c-0.3,1-0.7,2-1.2,2.9c-0.1,0.2,0,0.5,0.2,0.7c0.1,0,0.2,0.1,0.3,0.1
	c0.2,0,0.3-0.1,0.4-0.2l4.5-6.2c0.3-0.4,0.6-0.8,1-1c0.3-0.2,0.7-0.1,0.9,0.1c0.1,0.3,0.1,0.5,0.1,0.8c-0.1,0.6,0.1,1.1,0.5,1.6
	c0.6,0.4,1.3,0.4,1.9,0c0.2-0.1,0.3-0.3,0.5-0.5c1.4,1.9,3.5,3.2,5.9,3.6c0.1,0,0.2,0,0.3,0c0.3,0,0.5-0.2,0.5-0.4c0,0,0,0,0,0
	c0-0.3-0.2-0.5-0.4-0.5c-0.1,0-0.2,0-0.2,0c-1.1-0.2-1.8-1.5-2.3-2.7c-1.5-3.1-3.3-6.1-5.4-8.9c-0.2-0.2-0.5-0.3-0.7-0.1
	c-0.1,0.1-0.2,0.2-0.2,0.3c-0.3,1.3-1,2.5-1.9,3.5c-0.1-1.1-0.1-2.2-0.2-3.3c0-1.2-0.1-2.4-0.2-3.6c-0.1-2.7-0.9-5.4-2.3-7.8
	c-0.1-0.2-0.5-0.3-0.7-0.2c-0.2,0.1-0.3,0.3-0.2,0.5c0.5,2.7,0.7,5.4,0.8,8.2c-0.1,5.5-2.4,10.8-6.4,14.6c-0.2,0.2-0.2,0.5,0,0.7
	C391.9,294.1,392,294.2,392.2,294.2z"/>
<path d="M433.3,275.1c0.2,0,0.4-0.2,0.4-0.4c0.1,0,0.2,0,0.3,0c0.2,0.3,0.3,0.6,0.3,1l0.5,4.3c0,0.5,0.2,1,0.4,1.5
	c0.3,0.5,0.8,0.8,1.4,0.9c0.1,0,0.2,0,0.2,0c0.8-0.1,1.1-0.9,1.4-1.5c0.1-0.4,0.3-0.7,0.6-1c0.5-0.3,1.3,0.3,1.7,0.6
	c0.5,0.5,1.6,1.4,2.7,0.9c0.1,0,0.2-0.1,0.2-0.2c0.5-0.7-0.1-1.4-0.3-1.8c-0.1-0.2-0.2-0.4-0.2-0.4c0.1,0,0.1,0,0.2,0l9.6,1.8
	c0.2,0,0.4-0.1,0.5-0.3c0.1-0.2,0-0.5-0.1-0.6c-1.7-1.4-3.5-2.6-5.4-3.6c2.3-0.1,4.5-0.7,6.6-1.6c0.1,0,0.1-0.1,0.2-0.1
	c0.6,0.1,1.2,0.2,1.8,0.2c0.4,0,0.8,0,1.2,0c2.7,0.1,5.4-0.8,7.5-2.4c0.2-0.2,0.3-0.5,0.1-0.7c-0.1-0.2-0.4-0.2-0.6-0.2
	c-5.8,2.5-12.4,1.4-17.1-2.8c-2.3-2-3.2-5.3-2.2-8.2c0.7-2.5,2.4-4.9,5.2-7.4c3.4-3,7.3-5.2,11.7-6.6c3-0.9,7.3-1.5,10.5,0.7
	c3.4,2.3,4.2,6.8,3.6,10.4c-0.7,4-3.1,7.6-5.2,10.6c-0.2,0.2-0.1,0.5,0.1,0.7c0.2,0.1,0.4,0.1,0.6,0c1.5-1.2,2.8-2.7,3.8-4.3
	c1.8,0.1,3.5,0.7,5,1.7c0.2,0.2,0.5,0.1,0.7-0.1c0.1-0.1,0.1-0.3,0.1-0.5c-1-2.8-0.6-5.8,0.9-8.3l1,1.4c0.2,0.2,0.5,0.3,0.7,0.1
	c0.1-0.1,0.2-0.2,0.2-0.3c0.4-2.5,0.1-5.1-1-7.5c2-0.3,3.8-1.1,5.3-2.5c0.2-0.2,0.2-0.5,0-0.7c-0.1-0.1-0.2-0.1-0.3-0.1
	c-1.6-0.3-3-1-4.2-2.2l2.2,0.1c0.3,0,0.5-0.2,0.5-0.5c0-0.1,0-0.3-0.1-0.3c-1.2-1.4-2.7-2.5-4.4-3.1c0-0.1,0.1-0.1,0.1-0.2
	c0.9-2,1.3-4.2,1-6.4c0-0.2-0.2-0.4-0.4-0.4c-0.2,0-0.4,0.1-0.5,0.3c-0.7,1.6-2.1,2.8-3.7,3.4c-0.2,0.1-0.5,0.2-0.7,0.3
	c-1,0.3-2.1,0.4-3.2,0.4c-8.2-0.5-16.4,1.8-23.1,6.7c-6.8,5-11.4,12.4-13.1,20.6c0,0.2-0.1,0.4-0.1,0.7c-0.2,0.4-0.3,0.9-0.5,1.3
	c-2-3.6-2.8-7.7-2.3-11.7c0-0.3-0.1-0.5-0.4-0.5c-0.3,0-0.5,0.1-0.6,0.3c-1,2.9-1.7,5.8-2.3,8.8c-0.5,3-0.3,6.2,0.6,9.1
	C432.8,275,433,275.1,433.3,275.1z"/>
<path d="M388,334c-0.6,0.1-1.1,0.3-1.7,0.6c-1,0.5-2.1,1-3.2,1.2c-0.3,0-0.5,0.3-0.4,0.5c0,0.1,0.1,0.3,0.2,0.3
	c0.8,0.6,1.8,1,2.8,0.9c1.2,0,2.4-0.4,3.3-1.3c0.3-0.3,0.5-0.6,0.5-1c0-0.3-0.1-0.7-0.3-0.9C388.9,334.2,388.5,334,388,334z"/>
<path d="M487.8,204.6c-0.1,0.3-0.3,0.6-0.6,0.7c-0.2,0-0.5-0.2-0.7-0.4c-3.8-3.7-6.3-9.6-7.2-16.6c0-0.3-0.3-0.5-0.6-0.4
	c-0.1,0-0.3,0.1-0.4,0.2c-2.1,3.3-2.2,7.5-0.2,10.9c0.3,0.5,0.6,0.9,0.9,1.3c0.5,0.6,0.9,1.2,1.2,1.8c1.5,3.1,0.1,6.9-1.3,10.2
	c-0.1,0.3,0,0.5,0.3,0.7c0.1,0.1,0.3,0.1,0.4,0c1.4-0.8,2.7-1.8,3.9-2.9c0,1.7-0.3,3.3-0.9,4.9c-0.1,0.3,0,0.5,0.3,0.6
	c0.1,0,0.3,0,0.4,0c1.8-0.8,3.4-1.8,4.9-3c0.5,4.9,2.3,9.5,5.4,13.3c0.2,0.2,0.5,0.2,0.7,0.1c0.2-0.1,0.2-0.4,0.2-0.6
	c-0.4-1.1-0.5-2.2-0.3-3.4c1.7,4.1,4.6,7.6,8.2,10.2c0.2,0.2,0.5,0.1,0.7-0.1c0.1-0.2,0.1-0.4,0-0.6c-2-2.5-3.7-5.2-5.1-8
	c-1.4-2.8-1.9-6-1.4-9c0.1-0.3-0.1-0.5-0.4-0.6c-0.1,0-0.2,0-0.3,0l-2.9,1.2c-1.2-5.1-0.9-10.5,1-15.4c0.1-0.3,0-0.5-0.3-0.6
	c-0.1-0.1-0.3,0-0.4,0C491.1,200.2,489.1,202.2,487.8,204.6z"/>
<path d="M334.1,233.6C334.1,233.6,334.1,233.6,334.1,233.6L334.1,233.6c1.2-1.2,1.9-2.7,2.1-4.4l0.4,0.3c0.2,0.1,0.5,0.1,0.7-0.2
	c0,0,0-0.1,0.1-0.1c0.5-1.9,0.7-3.9,0.7-5.9c3.8-2.1,7.1-4.9,9.8-8.3c0.2-0.2,0.1-0.5-0.1-0.7c-0.1-0.1-0.3-0.1-0.4-0.1
	c-4.2,0.8-8.5,0.1-12.2-2c-0.2-0.1-0.5-0.1-0.7,0.2c-0.1,0.1-0.1,0.2-0.1,0.4c0.4,1.9,1.1,3.7,1.9,5.5c-3.4-2.1-5.8-5.6-6.5-9.6
	c-0.1-0.2-0.3-0.4-0.5-0.4c-0.2,0-0.5,0.2-0.5,0.4c-0.7,5.1,1.1,10.2,4.8,13.7c0.3,0.2,0.6,0.6,0.7,0.9c0.1,0.2,0,0.5-0.2,0.6
	c-0.5,0.5-1.1,0.7-1.7,0.7c-0.4,0-0.7-0.1-1.1-0.1c-0.9-0.2-1.8-0.2-2.6,0.1c-0.3,0.1-0.4,0.4-0.3,0.6c0,0.1,0.1,0.2,0.2,0.3l4,2.3
	c-2.1,0.8-4.4,0.7-6.4-0.2c-0.3-0.1-0.5,0-0.7,0.3c-0.1,0.2-0.1,0.3,0,0.5l2.7,4.4L326,231c-0.2-0.2-0.5-0.1-0.7,0.1
	c-0.1,0.1-0.1,0.3-0.1,0.4c1.6,5.8-0.5,12-5.3,15.8c-0.2,0.2-0.3,0.5-0.1,0.7c0.1,0.2,0.4,0.2,0.6,0.2c5.6-1.9,10.4-9,11.3-16.4
	l1.7,1.8C333.6,233.8,333.9,233.8,334.1,233.6z"/>
<path d="M466.3,251.5c-1.2-1-2.6-1.7-4.1-2c-1.9-0.5-3.8-0.4-5.7,0.1c-1.7,0.5-3.2,1.7-4,3.3c-0.6,1.2-0.7,2.7-0.2,3.9
	c0,0.1,0.1,0.2,0.3,0.3c0.1,0.1,0.3,0.1,0.4,0c2.3-0.8,4.8,0,6.2,1.9c1.2,2,0.8,4.6-1,6.1c-0.6,0.5-1.4,0.8-2.2,0.8
	c-0.3,0-0.7-0.2-0.9-0.4c-0.2-0.2-0.5-0.2-0.7-0.1c-0.2,0.1-0.2,0.4-0.1,0.6c1.1,2.5,3.6,4.1,6.3,4c0.3,0,0.5,0,0.8,0
	c2.9-0.4,5.4-2.2,6.8-4.7c1.3-2.4,1.7-5.2,1.1-7.9C469,255.2,467.9,253.1,466.3,251.5z"/>
<path d="M359.5,269.6c-0.3,0-0.7-0.2-0.9-0.4c-0.2-0.2-0.5-0.2-0.7-0.1c-0.2,0.1-0.2,0.4-0.1,0.6c1.1,2.5,3.6,4.1,6.3,4
	c0.3,0,0.5,0,0.8,0c2.9-0.4,5.4-2.2,6.8-4.7c1.3-2.4,1.7-5.2,1.1-7.9c-0.3-2.2-1.3-4.3-3-5.9c-1.2-1-2.6-1.7-4.1-2
	c-1.9-0.5-3.8-0.4-5.7,0.1c-1.7,0.5-3.2,1.7-4,3.3c-0.6,1.2-0.7,2.7-0.2,3.9c0.1,0.3,0.4,0.4,0.6,0.3c0,0,0,0,0,0
	c2.3-0.8,4.8,0,6.2,1.9c1.2,2,0.8,4.6-1,6.1C361.1,269.3,360.3,269.6,359.5,269.6z"/>
<path d="M626.4,385.8h-64.3c-0.6-5.2-2.1-10.3-4.5-15c2.3,4.2,4.1,8.7,5.3,13.3c-0.8-7-3.3-13.7-7.4-19.5
	c-7.5-10.5-18.3-18.5-29.6-24.5c-2.8-1.3-5.8-2.5-8.7-3.5l3.8-1c0.5-0.1,0.9-0.7,0.7-1.2c-0.1-0.3-0.3-0.6-0.6-0.7
	c-8.1-3-11.8-12.4-11.4-20.5c4.2,0.8,8.4,1.7,12.2,2.7c16.8,4.5,28.3,8,40.2,21.5c5.5,5.8,9.3,12.9,13,19.9
	c-2.8-6.6-5.7-13.2-10.2-18.9c-11.4-14.3-23.6-19.2-40.7-23.6c-4.8-1.3-9.6-2.4-14.4-3.3c0-0.3,0.1-0.5,0.1-0.8
	c0.9-1.9,1.7-3.8,2.5-5.7c0.4-1,0.9-2,1.4-3c3.8,0.4,7.6,0.9,11.4,1.6c10.6,1.5,20.3,3.8,30,8.8c5.3,2.9,10.2,6.7,14.3,11.2
	c-3.4-4.6-7.5-8.5-12.2-11.7c-9.6-6.1-20.9-8.4-31.9-10.1c-3.6-0.7-7.2-1.2-10.8-1.5c0.2-0.3,0.3-0.6,0.5-1l0.6-1.3
	c0.4,0.3,0.7,0.6,1,1c0.7,0.7,1.1,1.2,1.6,1c0.3-0.1,0.4-0.4,0.4-0.7c0-3.2,1-7.7,2.1-12.4c1.5-6.6,3.2-14,2.4-19.6
	c0.9,0.7,2.6,2,4,3.3c0.2,0.2,0.5,0.2,0.7-0.1c0.1-0.1,0.2-0.3,0.1-0.5c-1.8-4.7-4.1-9.3-6.7-13.7c0.3,0.1,0.5,0.2,0.7,0.3
	c1.5,0.6,2,0.8,2.3,0.4c0.2-0.2,0.2-0.5,0-0.7c-2.5-3.6-5.2-8.2-5.5-9.9c-0.2-1.1-0.3-2.2-0.4-3.2c0-5.3,1.4-10.4,3.3-15.7v0
	c0.7-1.9,1.4-3.8,2.2-5.7c2.5-6.4,5.1-13.1,5.6-20c0.1-2.7,0.1-5.4-0.1-8.1c-0.1-1.8-0.2-3.6-0.2-5.3c0.1-4.2,0.5-8.4,1.1-12.6
	c0.2-1.7,0.4-3.3,0.6-5c1.8-16.2,0.5-32.6-3.9-48.3c0-0.1,0-0.2,0-0.2c-0.4-2.5-1.2-4.9-2.3-7.2c-0.2-0.6-0.4-1.2-0.6-1.7
	c-0.1-0.3-0.4-0.4-0.6-0.3c-0.1,0-0.1,0.1-0.2,0.1c-0.7-0.8-1.6-1.4-2.6-1.8c-4.2-1.7-8.6,0.9-11.5,3.1
	c-15.2,10.8-26.6,26.2-36.7,39.8c-3.1,4.1-6.2,8.4-10.1,11.8c-3.1,2.6-8,5.9-13.8,6.1c-2.3,0-4.7-0.2-7-0.6c-2-0.4-4.1-0.6-6.2-0.6
	l0.6-0.3c0.2-0.1,0.3-0.4,0.2-0.7c-0.1-0.1-0.2-0.2-0.4-0.3c-5.4-0.5-10.8,0.3-15.8,2.3l1-2.1c0.1-0.2,0-0.5-0.2-0.7
	c-0.1-0.1-0.2-0.1-0.4,0l-9.2,2.6c-0.5,0.2-1,0.2-1.5,0.3c-1.4,0-2.6-1.1-3.7-2.2c-0.2-0.2-0.5-0.2-0.7,0c0,0,0,0.1-0.1,0.1
	c-0.5,0.8-0.8,1.7-0.9,2.6c-2.2-1-4.6-1.7-7-2.1c-0.2,0-0.4,0.1-0.5,0.3c-0.1,0.2-0.1,0.4,0.1,0.6l1.3,1.3
	c-4.3-1.2-8.8-1.5-13.2-0.8c-1.5,0.2-3.3,0.7-4.3,2.2c-0.1,0.2-0.1,0.5,0.2,0.7c0.1,0,0.1,0.1,0.2,0.1l0.2,0
	c-1.6,0.3-3.2,0.7-4.7,1.1c-2.3,0.7-4.6,1.2-6.9,1.4c-5.9,0.4-11.2-2.2-14.6-4.5c-4.3-2.9-8-6.9-11.6-10.7
	c-11.7-12.5-25-26.7-41.5-35.8c-3.2-1.8-8-3.9-11.9-1.7c-1,0.5-1.8,1.3-2.4,2.1c-0.1,0-0.1-0.1-0.2-0.1c-0.3-0.1-0.5,0.1-0.6,0.4
	c-0.1,0.6-0.3,1.2-0.4,1.8c-0.9,2.4-1.4,5-1.5,7.5c0,0.1,0,0.2,0.1,0.2c-2.5,16.3-1.9,33,1.8,49.1c0.4,1.7,0.8,3.3,1.2,5
	c1.1,4.1,2,8.3,2.6,12.6c0.2,1.8,0.3,3.6,0.5,5.4c0.1,2.7,0.4,5.5,0.9,8.1c1.3,6.9,4.7,13.3,8,19.5c3.3,6.3,6.5,12.3,7.7,18.8
	c-0.1,1.4-0.5,2.8-1,4.2c-1.9,4.1-4.2,8-7,11.6c-0.3,0.4-0.3,1.1,0.2,1.4c0.3,0.3,0.8,0.3,1.2,0.1c0.9-0.6,1.8-1.1,2.7-1.5
	c-2.2,7.5-4.5,15-4.5,15c-0.2,0.5,0.1,1.1,0.7,1.3c0.3,0.1,0.6,0,0.9-0.2l3.5-2.6c0.6,2.4,1.9,7.1,2.4,8.5c0.7,2,1.3,4,1.7,5.8
	c-0.1,0.1-0.1,0.3-0.2,0.4c1.5,3.4,2.9,7.1,3,10.8c0.2,0.5,0.4,1,0.6,1.4c0.2,0.5,0.7,0.7,1.2,0.7c0.9-0.1,1.1-1,1.4-2.8
	c0.4,0.9,0.8,1.7,1.3,2.6c0.8,1.8,1.6,3.6,2.4,5.4c0.4,0.9,0.8,1.7,1.2,2.6c-6,1.8-11.9,3.9-17.7,6.2c-1.1,0.8-2.3,1.5-3.5,2.1
	c-4.4,2.1-8.8,3.7-13.1,5.5c0,0.1-0.1,0.1-0.1,0.2c-0.7,0.4-1.4,0.7-2.1,1.1c-5.3,3.1-11.5,6.7-15.9,10.4c1.6-1,3.3-2,5-3
	c0.3-0.2,0.5-0.3,0.9-0.5c1.5-0.8,3-1.6,4.5-2.4c5.4-3.7,11.5-6.3,17.6-8.6c0.1-0.1,0.2-0.2,0.3-0.3c8.1-3.6,16.3-6.7,24.8-9.2
	c1.6,3.6,3.5,7.1,5.6,10.4c0.8,1.2,1.7,2.4,2.6,3.6c-4.2,2.5-8.1,5.4-11.9,8.6c-8,6.1-14.2,14.1-19.7,22.4c-0.5,0.7-0.9,1.4-1.4,2.2
	c-1.9,1.6-3.5,3.5-4.9,5.5c-2.2,3.7-3.7,7.7-4.3,12l-67.8,0c-0.3,0-0.5,0.2-0.5,0.5v16.4c0,0.3,0.2,0.5,0.5,0.5h68
	c1.2,5.4,2.6,9.5,5.3,11.9c3.2,2.9,6.9,4,10.5,4.7c4.8,1,9.6,1.6,14.4,1.9c0.2,0.3,0.4,0.6,0.7,0.9c1.4,1.3,3.4,1.9,5.2,1.5
	c1.3-0.3,2.5-1,3.5-2c5.1,0,10.1-0.3,15.2-0.9c5.2-0.6,10.2-1.5,14.4-5.2c1.8-1.8,3.3-3.9,4.2-6.2c2.4-1.8,4.3-4,5.8-6.5
	c0,0,0,0,0.1,0h116.6c1.9,2.7,4.3,5,7.2,6.7c1.2,2.2,2.9,4.2,4.9,5.7c4.6,3.2,9.7,3.5,14.9,3.6h1.1c4.7,0,9.5-0.2,14.2-0.7
	c1.1,0.9,2.3,1.4,3.7,1.6c1.9,0.2,3.8-0.5,5.1-2c0.2-0.3,0.4-0.6,0.6-0.9c4.8-0.9,9.5-2,14.2-3.5l0,0c0.2,0.2,0.4,0.4,0.7,0.6
	c0.7,0.5,1.5,0.8,2.3,0.8c0.3,0,0.7-0.1,1-0.2c1-0.4,1.8-1.1,2.4-2c0.6-0.9,1.1-1.9,1.4-3c0.8-0.6,1.5-1.3,2.2-2
	c1.2-1.4,2-3,2.5-4.7h65.7c0.3,0,0.5-0.2,0.5-0.5v-16.4C626.9,386,626.7,385.8,626.4,385.8z M525,341.6
	c10.6,5.5,20.9,13.4,28.5,23.2c1,1.2,2,2.5,2.8,3.9c-0.4-0.7-0.9-1.4-1.4-2c-3.4-4.1-8-7.1-13.1-8.6c-2.7-1.3-5.5-2.2-8.4-2.7
	c-2.6-0.5-5.4-0.9-8.2-1.2c-0.6-0.7-1.2-1.4-1.8-2.2c-2.5-4.9-5.3-9.7-8.3-14.3C518.5,338.8,521.8,340.1,525,341.6z M509.8,332.8
	l-2.3-0.3c-0.5-0.1-1,0.3-1.1,0.8c0,0,0,0.1,0,0.1c-0.8-0.2-1.6-0.4-2.4-0.6c-0.9-0.7-1.8-1.4-2.7-2.1c-0.7-0.5-1.4-0.9-2.1-1.3
	c2-2.6,3.7-5.3,5.3-8.1C505.4,325.5,507.2,329.4,509.8,332.8z M508.6,336.7c-0.5-0.4-0.9-0.9-1.4-1.3c0.2,0.1,0.4,0.1,0.6,0.2l0,0
	C508,336,508.3,336.4,508.6,336.7z M482.9,328.3c0.6-1.4,1.1-2.9,1.5-4.4c4.1,1.6,8.1,3.5,12,5.7c-0.3,0.4-0.6,0.8-1,1.2l0,0
	C491.3,329.9,487.1,329,482.9,328.3z M484.9,339.8c-4.1,0.8-8.2,1.3-12.3,1.3c4.3-2.7,7.6-6.6,9.7-11.2c3.9,0.7,7.9,1.5,11.8,2.3v0
	c-2.4,2.4-5.6,3.8-9,4c-0.5,0-1,0.5-1,1C484.1,338.2,484.4,339,484.9,339.8z M484.9,322.4c0.8-3.4,1.3-6.9,1.6-10.4
	c0-0.2,0-0.4-0.1-0.6c-0.1-0.2-0.2-0.4-0.3-0.5c0.5,0,0.9,0,1.4,0c5.5,0.1,11,0.6,16.5,1.4c-0.8,2.8-1.6,5.6-2.7,8.4l0,0
	c-1,2.7-2.3,5.3-3.9,7.7C493.4,326,489.2,324,484.9,322.4z M498.2,330.7L498.2,330.7c0,0,0.1,0,0.1,0.1c0.5,0.4,1.1,0.7,1.6,1.1
	c-0.7-0.2-1.5-0.3-2.2-0.5C497.9,331.1,498,330.9,498.2,330.7z M328.3,326.4c-0.6-1.7-1.1-3.6-1.6-5.4c-0.1-0.5-0.3-1.1-0.4-1.6
	c9.8-2.6,19.8-4.4,29.8-5.5c6.6-0.7,13.1-1,19.3-1.1c2.6,0,5.3,0,7.9,0.3c1.9,0.2,4,0.3,5.6,1.4c-2.5-1.9-5.8-1.9-8.7-2.4
	c-8.5-0.8-17.1-0.7-25.5,0.4c-9.7,1.1-19.4,2.9-28.9,5.4c-0.2-0.7-0.4-1.4-0.7-2.1c-1.9-5.4-5.1-10.2-8.2-14.8
	c-0.4-0.6-0.8-1.2-1.2-1.8c0.1-0.1,0.2-0.1,0.3-0.2c0.4-0.3,0.5-0.7,0.4-1.1c-0.3-0.8-1.1-1.3-2-1.2c-0.1,0-0.2,0-0.3,0
	c-3.2-5.1-6.4-11.1-6.6-17.6c-0.1-1.5,1.5-8.1,2.5-12.1c0.1-0.5-0.2-1.1-0.7-1.2c-0.3-0.1-0.6,0-0.8,0.2c-0.5,0.3-0.9,0.6-1.4,0.9
	c0.4-0.9,1-2.4,1.6-3.6c0.7-1.5,1.2-2.7,1.6-3.6c2.2-3.8,1.6-8.8,0.2-12.4c-1.3-3-2.9-5.8-4.8-8.4c-0.8-1.1-1.5-2.3-2.3-3.5
	c-6.9-11.2-9.3-24.9-11.4-37c-3.6-20.6-7.7-43.8-4.8-65.9c0.9-2.5,2.2-4.7,4.4-5.6c3.3-1.4,7.2,0.4,9.9,2
	c14.2,8.2,25.7,20.6,36.8,32.6c4.3,4.7,8.8,9.5,13.3,14c2.6,2.5,5.4,5.1,8.9,6.1c1.2,0.3,2.4,0.5,3.6,0.5c3.5,0,7.1-1.3,10.6-2.7
	l0.7-0.3c4.1-1.8,8.4-3.6,12.8-3.1c0.3,0,0.5-0.2,0.6-0.4c0-0.2-0.1-0.5-0.4-0.5c0,0-0.1,0-0.1,0c-0.2-0.5-0.6-0.9-1-1.2
	c4.9-0.6,9.8,0.3,14.2,2.5c0.1,0,0.1,0.1,0.2,0.1c0.1,0,0.1,0,0.2,0c0.1-0.1,0.2-0.2,0.3-0.3c0.2-0.7,0.2-1.4-0.1-2l4,1.9
	c0.3,0.1,0.5,0,0.7-0.2c0-0.1,0-0.1,0-0.2l0.1-1.9l3.5,2.5c0.2,0.1,0.5,0.1,0.7-0.1c1.2-1.3,2.6-2.3,4.2-3c-0.3,0.6-0.4,1.2-0.3,1.8
	c0,0.3,0.3,0.5,0.5,0.5c0.1,0,0.2-0.1,0.3-0.1c0.6-0.6,1.3-1.2,2-1.7c-0.3,0.5-0.5,1-0.7,1.5c-0.1,0.2,0,0.4,0.1,0.5
	c0.1,0.1,0.3,0.2,0.5,0.1c4-1.6,8.2-2.8,12.5-3.4c-0.1,0.1-0.1,0.3-0.1,0.4l-0.4,0.5c-0.2,0.2-0.1,0.5,0.1,0.7
	c0.2,0.1,0.4,0.1,0.5,0l2.1-1.1c3.7-0.3,7.5,0.7,11.1,1.8l0.7,0.2c2.9,0.9,5.9,1.4,8.9,1.6c1.8,0,3.6-0.3,5.3-1c3.3-1.4,5.8-4.2,8-7
	c4-4.9,7.8-10.2,11.5-15.2c9.5-13,19.3-26.5,32.4-36.1c2.4-1.8,6.1-4.1,9.5-3.1c2.3,0.7,3.8,2.6,5,5c5.4,21.3,4.1,44.5,2.9,65.1
	c-0.7,12.1-1.5,25.8-6.9,37.5c-0.6,1.2-1.2,2.5-1.8,3.7c-1.6,2.8-2.8,5.8-3.7,8.8c-0.2,0.9-0.4,1.7-0.5,2.6c0,0,0,0,0,0
	c-1.3,6.6,0.4,13.9,2.2,21c1.7,7,3.4,14.2,2.1,20.6c-0.9,4.5-3.3,8.5-5.7,12.4c-2.4,2.8-4.4,6-5.9,9.4c-21.5-1-43.3,3-63.7,10
	c20.7-4.7,42.3-9.2,63-8.4c-0.9,2.2-1.6,4.4-2.1,6.7c-0.2,0.8-0.3,1.6-0.5,2.4c-6.4-0.9-12.8-1.4-19.3-1.4c-0.3-0.3-0.5-0.6-0.8-0.9
	c-0.4-0.4-1-0.5-1.4-0.1c-0.3,0.2-0.4,0.6-0.3,0.9c0,0,0,0.1,0,0.1c-12.9,0-25.7,1.7-38.2,4.9c12.7-1.9,25.5-2.9,38.4-3
	c0.3,3.5,0,7-0.9,10.4c-9-2.8-18.5-4.2-28-3.9c9.4,0.7,18.6,2.5,27.5,5.4c-0.5,1.7-1.2,3.4-2.1,4.9c-1.4-0.2-2.8-0.4-4.3-0.5
	c-9.3-0.9-18.7-0.3-28.1,0.6c9.7-0.1,19.4,0.2,29.1,1.2c0.8,0.1,1.6,0.2,2.3,0.3c-0.6,0.9-1.2,1.8-1.9,2.6
	c-4.8,5.7-12.4,8.7-19.2,7.7c-3.2-0.6-6.4-1.6-9.5-2.8c-0.3-0.1-0.5,0-0.7,0.3c0,0.1,0,0.3,0,0.4l1.1,2.7c-0.1,0.1-0.3,0.1-0.4,0.2
	c-2.5,0.1-5-0.5-7.4-1.5c-0.5-0.2-1-0.4-1.5-0.6c-2.4-1.1-4.8-1.8-7.4-2.2c-0.8-0.1-1.5-0.1-2.3-0.1c-1.2,0-2.4-0.1-3.5-0.4
	c-2.4-0.7-4.5-2.6-6.4-6c-1.2-1.8-1.9-3.8-2.1-6c-0.1-1.6,0.4-3.1,1.4-4.4c0.3-0.3,0.7-0.5,1-0.8c0.3-0.3,0.4-0.7,0.2-1
	c0.9-1.3,1.5-2.8,1.7-4.4c0.1-0.5,0.1-0.9,0.1-1.4c0-0.6,0-1.1,0.1-1.7c1.7,0.5,3.5,0.2,4.9-0.9c1.5-1.1,2.5-2.8,2.8-4.6
	c0.3-1.7,0.4-3.5,0-5.3c-0.1-1.6-0.8-3.1-1.8-4.3c-1.2-1.1-2.7-1.7-4.4-1.6h-0.1c-1.4,0.1-2.9,0.3-4.2,0.8l-0.3,0.1
	c-3.7,1-7.5,1.8-11.2,2.4c-0.2,0-0.4,0.2-0.4,0.4c-1.1,0.1-2.3,0.1-3.4-0.2c-0.5-0.1-1-0.3-1.5-0.4c-0.5-0.2-1-0.3-1.6-0.4
	c-1.1-0.3-2.3-0.3-3.5,0.1c-1.6,0.7-2.7,2.2-3,3.8c-0.3,1.6-0.2,3.2,0.1,4.7c0.2,1.7,0.7,3.4,1.4,5c0.5,0.9,1.2,1.8,2.1,2.4
	c0.3,0.5,0.7,0.9,1.3,1c1.1,0.4,3.4,0.3,4.2-0.8c0.1-0.2,0.2-0.3,0.3-0.5c0.2-0.3,0.3-0.5,0.5-0.6c0.2-0.1,0.4,0,0.5,0.1
	c0.2,0.2,0.4,0.4,0.5,0.7c0.2,0.7,0.3,1.4,0.1,2.1c-0.1,0.8-0.1,1.5,0.1,2.3c0.6,1.8,1.9,3.4,3.6,4.2c1.9,2,3.2,4.6,3.7,7.3
	c0.4,1.9,0.2,3.9-0.6,5.7c-1,1.5-2.3,2.8-3.8,3.7c-1.1,0.9-2.2,1.6-3.5,2.2c-0.5,0.2-0.9,0.3-1.4,0.5c-0.4,0.1-0.9,0.3-1.3,0.4
	c-1.9,0.8-3.7,1.8-5.3,3.1c-1.4,1.1-2.9,2-4.5,2.7c0.7-0.9,1.2-2,1.7-3.1c0.1-0.3,0-0.5-0.3-0.7c-0.2-0.1-0.4,0-0.5,0.1
	c-3.3,2.9-7.3,4.9-11.6,5.8c-4,0-8-0.4-12-1.2c-2.1-0.4-4.1-1-6.1-1.8c3.4-4.1,7-8.1,10.8-11.8c6.2-1.1,12.5-1.7,18.9-1.8
	c-0.2,0.2-0.3,0.4-0.3,0.6c0,0.5,0.3,1,0.8,1.1c0.1,0,0.2,0,0.4,0c0.2,0,0.5,0,0.7-0.1c1.4-0.4,2.6-1.2,3.6-2.2
	c0.4-0.3,0.5-0.8,0.5-1.2c0-0.3-0.2-0.6-0.5-0.8c-0.5-0.3-1-0.3-1.5-0.1c-0.4,0.1-0.7,0.3-1.1,0.5c0,0-0.1,0-0.1,0.1l-2.3,1.9
	c-4.7-0.3-9.4-0.3-14,0c1-0.4,1.9-1.2,2.4-2.1c0.1-0.2,0-0.5-0.2-0.7c0,0-0.1,0-0.1,0c-0.4-0.1-0.9-0.1-1.3-0.1
	c1.6-1.2,3.2-2.3,4.9-3.4c-2.1,1-4.1,2.2-6.1,3.4c-0.3,0-0.6,0.1-0.9,0.1c-0.2,0-0.4,0.1-0.5,0.1c-0.1,0-0.2,0.1-0.3,0.1l-1.7,1.5
	c-0.1,0.1-0.2,0.3-0.2,0.4c0,0.1,0,0.1,0.1,0.2c-0.4,0.3-0.8,0.6-1.2,1c-1.1,0.2-2.2,0.3-3.3,0.5c-6.2,1.2-12.2,2.9-18.1,5.1
	c-2.3-3-3.7-6.5-3.9-10.3c1-0.4,2-0.8,2.9-1.1c7.8-2.9,15.9-5,24.1-6.1c3.4-0.4,6.9-0.6,10.4-0.5c0.5,0.7,1.2,1.1,2.1,1.3
	c0.2,0,0.4,0.1,0.7,0.1c0.8,0,1.5-0.3,2.2-0.7c0,0,0,0,0,0c0,0,0.1,0,0.1,0c0,0-0.1,0-0.1,0c0.3-0.2,0.5-0.6,0.4-0.9
	c0-0.3-0.2-0.6-0.9-0.8c-1-0.2-1.9-0.2-2.9,0c-0.5,0.1-0.9,0.1-1.4,0.1c-0.2,0-0.4,0.1-0.5,0.2c-0.1,0.1-0.1,0.3,0,0.5
	c-12.5-1.7-25.4,2-37.1,6.5c0.1-1.1,0.3-2.2,0.6-3.3c0.2-0.5-0.1-1.1-0.6-1.3c-0.4-0.1-0.7,0-1,0.2c-1.4,1.5-2.1,3.5-2,5.5
	c-4.8,1.8-9.5,4-14,6.5C330.4,331,329.2,328.8,328.3,326.4z M411.9,317.5c0,0.3,0,0.5,0,0.8c0,0.3,0,0.5-0.1,0.8
	c-0.7-0.1-1.4-0.3-2.1-0.7c-0.2-0.2-0.4-0.5-0.6-0.7c-0.7-0.8-1.1-1.8-1.2-2.9c0-0.4,0.1-0.7,0.2-1.1c0.1-0.3,0.1-0.7,0.2-1l0-0.3
	c0.1-1.3,0.3-2.7-0.9-3.7c-1.2-1-2.8-1.4-4.3-1c-0.7,0.1-1.3,0.5-1.8,1.1c-0.3,0.5-0.5,1.1-0.6,1.8c-0.6,0.4-1.4,0.5-2.1,0.3
	c-0.5-0.6-1-1.2-1.3-1.9c-0.6-1.3-1-2.7-1.1-4.1c-0.2-1.2-0.1-2.5,0.3-3.7c0.3-0.5,0.8-1,1.4-1.2c0.6-0.3,1.1-0.7,1.5-1.3
	c0.1-0.1,0.7,0.1,1,0.2c0.3,0.1,0.6,0.2,0.9,0.3c2.4,0.5,5,0.3,7.4-0.4c0.1,0,0.2-0.1,0.3-0.2c0.1-0.2,0.3-0.3,0.5-0.4
	c1.7,0.5,3.5,0.5,5.2,0.2c1.3-0.3,2.3-0.6,3.3-0.9c1-0.3,1.9-0.6,3.3-0.9c0.9-0.3,1.8-0.4,2.7-0.2c0.7,0.3,1.3,0.8,1.7,1.5
	c1.7,2.5,2.1,5.7,1.1,8.6c-0.3,0.7-0.8,1.5-1.5,1.5c-0.3,0-0.6-0.2-0.9-0.3l-0.1-0.1c-0.3-0.2-0.6-0.3-0.8-0.5
	c-0.8-0.7-1.9-0.8-2.9-0.4c-1.9,0.6-2.9,2.6-2.5,4.5c0.1,0.4,0.3,0.8,0.5,1.1c0.1,0.2,0.3,0.5,0.4,0.7c0.3,1,0.3,2.1-0.1,3.1
	c-0.2,0.4-0.3,0.8-0.5,1.1c-0.3,0.2-0.6,0.4-0.8,0.7c-0.6,0.4-1.3,0.7-1.9,1c-0.4,0-0.7-0.2-1-0.5c-0.3-0.5-0.4-1.1-0.3-1.7
	c0.1-0.9-0.2-1.8-0.8-2.5c-0.2-0.2-0.5-0.2-0.7,0C411.8,314.9,411.8,316.3,411.9,317.5z M416.8,339.1c2.4-0.4,4.9-0.3,7.3,0.3
	c2,0.4,4.1,1,6,1.5c2,0.6,4.1,1.1,6.2,1.6c2.7,0.6,5.4,0.8,8.1,0.6v0c0.5,0.2,1.4,0.3,3.4-0.1c0.3-0.1,0.6-0.1,0.8-0.2
	c1.5-0.5,3.1-0.6,4.6-0.5c0.6,0.1,1.2,0.3,1.7,0.5c0.5,0.2,1.1,0.4,1.7,0.5c0.1,0,0.2,0,0.4,0.1c-6.9,3.4-14.4,7.6-17.1,11.4
	c-4,5.5-6,5.9-11,6.6l-0.2,0c-2.3,0.3-5.3,0.5-8.2,0.7c-3,0.2-6.1,0.4-8.5,0.8c-1.6,0.2-10-4-13.6-5.8c-2-1-3.1-1.6-3.6-1.7
	c-2.1-0.7-3.3-1.3-4.5-1.8c-1.2-0.5-2.5-1.1-4.7-1.9l-0.3-0.1c0.3-0.1,0.7-0.1,1-0.2c2.1-0.3,4.1-0.9,6-1.6c0.6-0.2,1.1-0.5,1.7-0.8
	c2.2-0.4,4.2-1.2,6.2-2.2l11-5.4C413,340.3,414.9,339.6,416.8,339.1z M340.6,359.4c-0.2,0-0.3,0-0.5,0.1c-0.3,0.3-0.6,0.5-0.8,0.8
	c-1-0.6-2.1-1-3.1-1.5c0-0.6,0.2-2.6,0.3-3.5c0.4-2.6,0.9-4.9,1.2-6c0-0.2,0.8-2.5,1.1-3.8c0.3-0.1,0.6-0.3,0.8-0.4
	c1.7,1,3.7,1.5,5.6,1.6h0.2c0.3,0,0.5,0,0.8,0.1c0,0-0.1,0.1-0.1,0.1c-0.4,0.2-0.8,0.6-1,1c-0.3,0.8-0.1,1.8,0.7,2.3
	c0.5,0.3,1,0.6,1.6,0.7c2.7,0.6,5.4,1,8.1,1.2c-0.4,0.6-0.9,1.2-1.3,1.8c-2.4,3.3-4.6,6.7-6.8,10.2c-0.5-0.1-1-0.2-1.5-0.4
	c-1.9-0.8-3.7-1.6-5.4-2.7c0.1-0.4,0.2-0.7,0.3-1.1C341,359.7,340.9,359.4,340.6,359.4z M337.8,339.6c-1.9-1.5-3.6-3.3-5-5.2
	c4.3-2.3,8.7-4.3,13.2-6c0,0.3,0.1,0.7,0.2,1c0.6,3.3,1.9,6.4,3.8,9.2c-2.6,1-5.1,2.1-7.6,3.3C340.7,341.2,339.2,340.5,337.8,339.6z
	 M333,357.9c-0.5-0.1-1-0.2-1.6-0.3c-4.6-0.6-9.3-0.3-13.8,0.8c0.5-0.3,0.9-0.7,1.4-1c6.1-4.2,12.5-8,19-11.5c0,0,0.1-0.1,0.1-0.1
	c-0.8,1.3-1.7,3.1-1.8,3.2C335.5,350.4,333.7,356.4,333,357.9z M350.9,348.1c-0.4,0-0.8,0-1.2-0.2c-0.1,0-0.2-0.1-0.3-0.3
	c0.1-0.2,0.2-0.4,0.4-0.5c0.1-0.1,0.1-0.2,0.2-0.3c0.7-0.8,0.8-1.9,0.2-2.8c-0.2-0.2-0.4-0.3-0.7-0.3c-1.8-0.1-3.5-0.4-5.1-1
	c2.1-1,4.3-1.9,6.4-2.8c2.3,3,5.1,5.6,8.3,7.6l0,0c-0.2,0.3-0.4,0.6-0.7,0.8C356,348.3,353.4,348.2,350.9,348.1z M353.7,338.9
	c5.9-2.1,11.9-3.8,18-5c-3.6,3.3-7,6.8-10.1,10.6C358.7,343.2,356,341.3,353.7,338.9z M376,331.7c0.1-0.1,0.2-0.1,0.2-0.2
	c0.2,0.1,0.3,0.1,0.5,0.1C376.5,331.7,376.3,331.7,376,331.7z M310.8,351c4.8-4.6,10-8.8,15.5-12.6c1-0.7,2-1.4,3.1-2
	c1.7,2,3.7,3.8,5.8,5.3c0.8,0.8,1.6,1.5,2.4,2.1c0.1,0.1,0.2,0.2,0.4,0.3c-0.4,0.2-0.9,0.4-1.3,0.7c-8.2,4.2-16.1,9.2-23.4,14.8
	c-1,0.3-1.9,0.5-2.8,0.8c-2.8,0.8-5.5,2-8,3.6c-1,0.4-2,0.9-3,1.5C302.8,360.2,306.6,355.4,310.8,351z M296.3,373.3L296.3,373.3
	c1.2-1.5,4.1-3.3,6.6-5l0.4-0.3c-2.8,2.7-5.6,5.5-8.1,8.5c-1.5,1.8-3,3.6-4.4,5.5C292.3,378.9,294.1,376,296.3,373.3z M336.2,384.9
	c0.1-0.6-0.3-1.1-0.9-1.2c-0.5,0-0.9,0.3-1,0.7c-1.6,6.1-2,12.4-1,18.6c0,0.1,0,0.1,0,0.2c0,0,0-0.1,0-0.1c0.2,1,0.3,1.9,0.6,2.9
	c0.1,0.4,0.2,0.8,0.3,1.2c0.6,2.4,1.2,4.9,0.7,7.2c-0.4,1.6-1.4,3-2.8,3.9c-3.7,2.5-8.6,1.2-11.8-3.1c-1.3-1.9-2.1-4.1-2.5-6.3l0,0
	c-0.3-1.5-1.3-1.9-2-1.9c-0.8,0.1-1.6,0.8-1.7,2.3c-0.1,1.6-0.1,3.2-0.1,4.7v0.1c0.2,1.3,0,2.6-0.4,3.9c-0.4,0.7-1.2,1.1-2,0.9
	c-3.9-0.5-6.9-6.1-7.9-11.4c-0.7-4.2-0.9-8.5-0.5-12.8c0.2-0.8-0.3-1.6-1.1-1.8c-0.6-0.1-1.2,0.4-1.3,1c-1.1,3.8-0.9,7.3-0.8,10.8
	c0.2,2.5,0.1,5-0.2,7.4c-0.1,0.7-0.2,1.4-0.5,2.1c-0.3,0.7-1.1,1.1-1.9,0.9c-0.9-0.4-1.6-1-2.2-1.8c-4.8-5.7-7.4-15.4-6.6-24.3
	c0.3-0.8,0.6-1.6,0.9-2.4c0.1-0.2,0.1-0.3,0-0.5c0,0-0.1-0.1-0.1-0.1c3.1-3.9,6.4-7.6,9.7-11.2c2.8-3,6.2-6.4,9.9-9.6
	c1.4-0.5,2.8-1,4.2-1.3c6.4-1.7,14.6-3.3,22-0.9c2,0.6,4.7,1.8,6,4.5l0.2,0.3c0.2,0.6,0.6,1.1,1,1.5c0.5,0.4,1.2,0.4,1.9,0.2
	c-3.4,6.1-6.2,12.5-8.2,19.2C336.2,387.4,336.2,386.1,336.2,384.9z M362,402.7c1-5.6,0.2-11.4-2.3-16.5c-0.1-0.2-0.4-0.3-0.7-0.2
	c-0.2,0.1-0.3,0.3-0.3,0.5c0.6,4.5,0.7,9,0.5,13.5c-0.1,1.2-0.2,2.4-0.4,3.6c-0.3,0.8-0.6,1.5-0.9,2.3c-2,2.1-4.5,4.4-5.2,4.4
	c-0.5,0-1.2-0.6-1.9-1.2c-1-0.9-2.1-1.7-3.1-1.3c-0.9,0.5-1.6,1.3-2.1,2.3c-0.4,0.7-0.9,1.3-1.5,1.9c-1,0.6-2.2-0.2-2.9-1.1
	c-1-1.4-1.7-2.9-2.1-4.5c-1.5-4.7-2.4-9.4-2.8-14.3c2.7-8.3,6.4-16.3,10.8-23.8c3.8-1,7.9,1.7,11.2,4.4c4.6,3.8,7.6,9.3,8.4,15.2
	C367.5,393.7,365.6,399.6,362,402.7z M369.9,385.8c-0.2-6.1-3-11.9-7.7-15.8c-6.4-5.2-9.8-5.6-12.6-5.7c2.5-4.1,5.3-8.1,8.2-12.1
	c0.5,0,1,0,1.5,0c2,0,4-0.1,6-0.4c-2.4,2-5,3.6-7.8,4.9c-0.3,0.1-0.4,0.4-0.2,0.7c0.1,0.2,0.3,0.3,0.5,0.3l10.9-1.4l-3.9,3
	c-0.2,0.2-0.3,0.5-0.1,0.7c0.1,0.2,0.4,0.2,0.6,0.2c1-0.6,2.2-0.8,3.4-0.8c1,0.1,2,0.9,1.9,1.9c-0.2,0.8-0.7,1.4-1.3,1.9l-6.1,5.4
	c-0.2,0.2-0.2,0.5,0,0.7c0.1,0.1,0.3,0.2,0.4,0.2c7.2-0.6,14.2-3,20.3-6.9c-1.3,3.8-3.2,7.5-5.5,10.8c-0.2,0.2-0.1,0.5,0.1,0.7
	c0.2,0.1,0.4,0.1,0.6,0l10.2-6.3c-0.5,3.8-2.3,7.3-5,10c-0.2,0.2-0.2,0.5,0,0.7c0.1,0.1,0.2,0.1,0.4,0.1c0.1,0,0.2,0,0.3-0.1
	c5.5-3.7,11.4-6.8,17.5-9.4l-0.6,6.7c0,0.3,0.2,0.5,0.5,0.5c0.1,0,0.3,0,0.4-0.1l6-5.6c4.2,4.2,9.7,6.8,15.6,7.3
	c0.3,0,0.5-0.2,0.5-0.4c0-0.3-0.1-0.5-0.4-0.6c-2.5-0.6-4.3-2.7-4.4-5.3c7.6,2.5,15.8,2.6,23.4,0.1c0.3-0.1,0.4-0.4,0.3-0.6
	c0-0.1-0.1-0.2-0.1-0.2l-2.9-2.7c4.3-0.9,8.8,0.5,11.8,3.7c0.2,0.2,0.5,0.2,0.7,0c0.1-0.1,0.1-0.2,0.2-0.3c0.5-3,0.1-6.1-1.4-8.9
	c0.1,0,0.2,0,0.3,0c5,0,6.8,7.8,6.8,7.9c0,0.2,0.2,0.3,0.3,0.4c0.2,0.1,0.3,0,0.5-0.1c3.1-2.8,4.9-6.8,5.1-11
	c0.9,0.7,1.8,1.4,2.8,2.1c1.3,0.8,2.4,1.7,3.5,2.8c0.2,0.2,0.5,0.2,0.7,0.1c0.1-0.1,0.2-0.3,0.2-0.5l-1.5-6.6
	c3.9,2.2,8.5,3,12.9,2.3c4.8-0.6,9.4-2.3,13.8-4c0.3-0.1,0.4-0.4,0.3-0.6c-0.1-0.2-0.4-0.4-0.6-0.3c-4.4,1.3-9.2,0.5-12.9-2.1
	c-1.8-1.4-3.4-3-4.9-4.7c-1.3-1.5-2.7-2.9-4.3-4.2c5.1-0.2,10.1-1.2,14.9-2.8c0.5-0.2,0.8-0.7,0.6-1.3c-0.1-0.2-0.2-0.4-0.4-0.5
	l-1.2-0.8c3.4-1,6.2-3.2,6.9-5.5c0,0,0.1-0.1,0.1-0.1c0.2-0.2,0.4-0.4,0.6-0.6c2.3,0.5,4.6,1.1,6.9,1.6c3.3,2.6,6.4,5.4,9.4,8.3
	c0.4,0.6,0.8,1.3,1.2,1.9c0.4,2.2,0.5,4.5,0.5,6.8c-1.4-3.3-3.7-6.2-6.6-8.5c-0.2-0.2-0.5-0.1-0.7,0.1c-0.1,0.1-0.1,0.3-0.1,0.4
	c1.2,4.1,1.9,8.3,2.2,12.6c-2,0.9-3.9,2-5.7,3.4c-1.6,1.2-3.3,2.3-5.1,3.2c-1,0.5-2.1,0.8-3.2,0.9c-2.8,0.5-6.3,1-12.2,7.1
	c-4,4-6.2,9.5-6,15.1H369.9z M555.2,404.8c-0.4-1-1-1.8-1.8-2.4c-0.2-0.2-0.5-0.1-0.7,0.1c0,0.1-0.1,0.1-0.1,0.2
	c-0.3,1.9-0.8,3.7-1.7,5.5c0,0,0,0.1-0.1,0.1c-0.2-0.1-0.4-0.3-0.5-0.6c-0.3-0.6-0.6-1.3-0.7-2c-0.5-2.4-0.9-4.9-1-7.4
	c-0.2-3.5-0.5-7-2-10.7c-0.2-0.6-0.8-1-1.4-0.8c-0.7,0.3-1.1,1.1-0.9,1.9c0.9,4.2,1.2,8.5,0.9,12.8c-0.4,5.3-2.8,11.2-6.6,12.2
	c-0.8,0.3-1.6,0-2.1-0.6c-0.6-0.9-0.7-2.5-0.8-3.9c-0.1-1.6-0.3-3.1-0.6-4.7c-0.3-1.5-1.2-2.1-2-2.1c-0.7,0-1.6,0.6-1.7,2.1
	c-0.2,2.3-0.8,4.5-1.8,6.6c-2.7,4.6-7.4,6.4-11.4,4.3c-1.5-0.7-2.6-2-3.2-3.6c-0.8-2.2-0.4-4.7-0.1-7.2c0.1-0.4,0.1-0.8,0.2-1.2
	c0.8-7.2-0.1-14.6-2.8-21.4c-0.1-0.5-0.6-0.7-1.1-0.6c-0.5,0.2-0.8,0.8-0.7,1.3c0.9,7.2,0.7,14.5-0.8,21.7c-0.3,1.7-0.8,3.3-1.6,4.7
	c-0.6,0.9-1.7,1.9-2.7,1.4c-0.7-0.4-1.3-1-1.7-1.7c-0.6-0.9-1.4-1.6-2.4-2c-1.1-0.3-2,0.7-3,1.6c-0.6,0.6-1.3,1.3-1.8,1.4
	c-0.6,0.1-3.4-1.9-5.7-3.8c-0.4-0.7-0.8-1.4-1.1-2.1c-0.3-1.1-0.5-2.3-0.7-3.5c-0.7-4.5-1-9-1-13.5c0-0.2-0.2-0.4-0.4-0.5
	c-0.2,0-0.5,0.1-0.6,0.3c-2,5.3-2.1,11.2-0.5,16.6c-3.9-2.7-6.4-8.4-6.4-14.3c0.1-6,2.6-11.7,6.7-16c3.3-3.3,7.6-7,12.1-5.2l0.2,0.1
	c0.9,0.4,2.2,0.9,3.1,0c0.4-0.5,0.7-1,0.9-1.6l0.1-0.4c1-2.8,3.6-4.2,5.5-5.1c5.6-2.5,12.1-2.6,17.8-2c2.3,2.8,4.5,5.7,6.7,8.6
	c6.2,8.1,12.3,16.3,18.9,24.1c-5.2-7.6-10.3-15.4-15.9-22.8c-2.4-3.2-4.9-6.4-7.4-9.6c0.7,0.1,1.3,0.2,1.9,0.3c3,0.5,6,1.2,8.8,2.2
	c0.7,0.3,1.4,0.7,2.2,1.1c2.7,1.4,5.7,2.9,7.1,4.2c3.7,3.5,6.6,7.7,8.7,12.4C560.1,387.8,559,398,555.2,404.8z"/>
</svg>
