<?xml version="1.0" encoding="utf-8"?>
<!-- Generator: Adobe Illustrator 24.2.3, SVG Export Plug-In . SVG Version: 6.00 Build 0)  -->
<svg version="1.1" id="bb772f98-0b39-4e78-87e3-06a8a2df0f5d"
	 xmlns="http://www.w3.org/2000/svg" xmlns:xlink="http://www.w3.org/1999/xlink" x="0px" y="0px" viewBox="0 0 807.2 529.3"
	 style="enable-background:new 0 0 807.2 529.3; fill: #215342;" xml:space="preserve" height="222" width="400" transform="translate(-50, 1)">
<path d="M407,245c0.2,0.1,0.5,0.1,0.6-0.1l0.2-0.3c-1.1,3.8-2.9,7.4-5.4,10.4c-0.2,0.2-0.1,0.5,0.1,0.7c0.1,0.1,0.3,0.1,0.5,0.1
	c0.8-0.3,1.6-0.8,2.3-1.3c-1.5,3.4-3.8,6.3-6.7,8.6c-0.2,0.2-0.3,0.5-0.1,0.7c0.1,0.1,0.2,0.2,0.4,0.2c0.1,0,0.2,0,0.2-0.1
	c10-5.6,15.5-16.7,19.9-25.6c0.1-0.2,0-0.5-0.2-0.7c-0.2-0.1-0.5,0-0.6,0.1c-2.1,2.7-4.6,5.1-7.3,7.2c1.6-3.5,1.8-7.6,2-11.5l0-0.2
	c0.2-4.4,0.7-9.5,2.3-13.1c0.1-0.3,0-0.5-0.2-0.7c-0.1-0.1-0.3-0.1-0.5,0c-2.4,1.4-3.3,4.1-3.6,5.6c-0.3,1.4-0.4,2.8-0.4,4.2
	c0,0.8-0.1,1.5-0.2,2.3c-0.4,4.4-2.1,8.7-3.7,12.8C406.7,244.6,406.8,244.9,407,245z"/>
<path d="M447.3,240.3c-0.2-0.2-0.4-0.2-0.6-0.1c-4.3,2.4-7.7,6.1-9.8,10.5c0.4-1.9,0.9-3.9,1.5-5.7c0.1-0.3-0.1-0.5-0.3-0.6
	c-0.2-0.1-0.5,0-0.6,0.2c-5.6,9.2-6.3,20.5-1.9,30.3c0.1,0.2,0.3,0.3,0.5,0.3c0.1,0,0.1,0,0.1,0c0.2-0.1,0.4-0.3,0.3-0.6
	c-0.6-3.5-0.8-7-0.8-10.5c0.3,0.5,0.6,1,1,1.4c0.1,0.1,0.3,0.2,0.5,0.1c0.2-0.1,0.3-0.2,0.3-0.4c0.9-8.8,4.3-17.2,9.7-24.2
	C447.5,240.7,447.5,240.4,447.3,240.3z"/>
<path d="M391.6,253.3c1.6-1.8,1.6-4.5,1.5-6.3c-0.2-3-0.9-6-1.9-8.8c0.1-3.6-2.5-6.7-4.5-8.8c-3.8-3.9-7.3-6.3-10.9-7.8
	c-5.2-1.9-11-2-16.3-0.1c-5.2,1.8-9.9,4.9-13.7,8.9c-0.2,0.2-0.2,0.5,0,0.7c0,0,0,0,0,0c1.3,0.9,2.4,2.1,3,3.6
	c0.4,1.5,0.4,3.1,0,4.6l0,0.2c-0.4,1.6-0.4,3.2-0.1,4.8c0.1,0.2,0.3,0.4,0.5,0.4l0,0c0,0.1,0,0.2,0,0.2c0.5,2.2,1.6,4.3,3.2,5.9
	c1.6,1.6,3.3,3,5.1,4.2c2.8,2,6.2,4.1,9.8,4.1c0.2,0,0.4,0,0.6,0c0.3,0,0.5-0.3,0.5-0.5c0-0.2-0.2-0.4-0.4-0.5
	c-10.2-1.6-17.2-11.2-15.6-21.4c0.3-1.8,0.8-3.6,1.6-5.3l0,0c0.6-1,1.3-1.9,2.2-2.6c0.2-0.2,0.5-0.5,0.7-0.7
	c3.4-2.1,7.4-3.2,11.4-3.2c0.1,0,0.1,0.1,0.2,0.1c2.2,0.2,4.3,0.9,6.2,2.1c0.5,0.3,1.3,0.9,1.4,1.5c-0.3,0-0.8,0.1-1.3,0.1
	c-2.5,0.1-6.7,0.4-8.3,2.4c-0.5,0.7-0.7,1.6-0.6,2.4c0.2,0.5,0.5,0.9,0.9,1.2c0.8,0.6,1.2,1.6,1.1,2.6c-0.1,1-0.8,1.7-1.7,2
	c-0.2,0-0.3,0.1-0.5,0.1c-0.4,0-0.9,0.1-1.2,0.3c-0.5,0.4-0.9,1-0.9,1.6c0,0.5,0,1.1,0.2,1.6c0.2,1.1,0.6,2.1,1.1,3
	c0.6,1,1.4,1.8,2.5,2.3c0.6,0.2,1.2,0.4,1.8,0.4c0.7,0,1.3-0.1,2-0.3c1.1-0.4,2.2-1.1,3.2-1.8c1.5-1.1,2.9-2.4,4.1-3.8
	c0.2-0.2,0.2-0.5,0-0.7c0,0-0.1-0.1-0.1-0.1c-0.5-0.2-1-0.4-1.5-0.5c-0.8-0.2-1.6-0.6-2.2-1.1c-0.7-0.9-0.7-2.2-0.1-3.1
	c0.7-1,1.8-1.6,3-1.7c1.3-0.2,2.5-0.1,3.8,0.2c0.3,0,0.5-0.1,0.6-0.4c0.2-1.3-0.3-2.6-1.3-3.4c-0.3-0.3-0.7-0.6-1.1-0.9
	c-0.5-0.4-0.9-0.8-1.3-1.2c-0.2-0.3-0.3-0.5-0.3-0.6c0.1-0.1,0.4-0.1,0.9,0l2.9,1c4.5,3.9,7.2,9.6,7.4,15.6c0.1,1.4-0.2,2.8-0.8,4.1
	c-0.7,1-1.7,1.9-2.7,2.5c-4.2,2.7-8.7,4.8-13.5,6.3c-0.3,0.1-0.4,0.4-0.3,0.6c0.1,0.2,0.3,0.4,0.5,0.4c0,0,0.1,0,0.1,0l14.1-3.5
	C388.2,255.3,390.2,254.8,391.6,253.3z"/>
<path d="M490.9,264.4c-3.9-4.6-9-7.8-14.8-9.2c-4-0.9-8.5-0.9-14,0.2c-2.9,0.6-6.9,1.7-8.7,4.7c-2.4,1.7-4.6,3.8-6.4,6.2
	c-1.1,1.5-2.5,3.7-1.9,6.1c0.4,2,2,3.6,3.3,4.8l11,11c0.1,0.1,0.2,0.1,0.4,0.1c0.3,0,0.5-0.2,0.5-0.5c0-0.1,0-0.2-0.1-0.3
	c-3.6-3.9-6.6-8.2-9-12.9c-0.7-1.1-1.1-2.3-1.2-3.6c0.1-1.4,0.5-2.7,1.4-3.8c3.7-5.7,10.7-9,17.9-8.8c0.1,0.2,0.3,0.3,0.5,0.3
	c0.2,0,0.4-0.1,0.6-0.1c0.9-0.1,1.8,0.2,2.5,0.8c0.5,0.3,0.7,0.9,0.6,1.5c-0.2,0.5-0.8,0.7-1.5,1c-2.2,0.8-4.3,1.8-6.4,3
	c-0.6,0.3-1.1,0.8-1.3,1.4c-0.1,0.7,0.1,1.5,0.6,2.1c0.2,0.2,0.3,0.5,0.4,0.7c0.4,0.9-0.1,1.9-0.9,2.2c-0.3,0.1-0.6,0.2-0.9,0.1
	c-0.3,0-0.5,0.1-0.6,0.4c0,0.1,0,0.1,0,0.2c0.3,2.1,0.9,4.2,1.8,6.1c0.9,2.1,2.8,3.6,4.9,4.2c0.4,0.1,0.9,0.1,1.3,0.1
	c1.6,0,3.1-0.5,4.4-1.4c1.6-1.1,3-2.4,4.2-3.8c0.1-0.1,0.2-0.4,0.1-0.5c-0.1-0.2-0.3-0.3-0.5-0.3c-2.8,0.1-5.1-2.1-5.2-4.9
	c-0.1-2.8,2.1-5.1,4.9-5.2c1.4-0.1,2.8,0.5,3.8,1.5c0.1,0.1,0.3,0.2,0.4,0.1c0.2,0,0.3-0.1,0.4-0.3c0.3-0.6,0.3-1.3-0.1-1.9
	c-0.2-0.4-0.5-0.8-0.8-1.1l-0.2-0.2c-0.7-0.8-1.3-1.8-1.8-2.8c3.9,2.3,7.2,5.6,9.3,9.6c0.1,0.3,0.2,0.7,0.3,1
	c0.4,1.1,0.7,2.3,0.7,3.4c-0.5,5.8-3.9,11-9,13.8c-5.5,2.7-12,2.8-17.6,0.3c-0.2-0.1-0.5,0-0.7,0.2c-0.1,0.2,0,0.5,0.2,0.6
	c3.3,2.3,7.4,2.6,11.1,2.6h0.5c2.3,0.1,4.6-0.1,6.9-0.6c2.3-0.4,4.4-1.5,6-3c0.1-0.1,0.1-0.1,0.2-0.2c0.2,0.2,0.5,0.1,0.6,0
	c1.1-1.2,1.9-2.6,2.4-4.1l0.1-0.2c0.5-1.4,1.3-2.7,2.4-3.8c1.4-0.8,3-1.3,4.6-1.3c0.3,0,0.5-0.3,0.5-0.5c0,0,0-0.1,0-0.1
	C497.3,274,494.7,268.8,490.9,264.4z M470.4,258.2c-0.3,0-0.5,0.1-0.8,0.1C469.8,258.2,470.1,258.2,470.4,258.2L470.4,258.2z"/>
<path d="M394,257c0.8-0.7,1.5-1.5,2.2-2.4c2.1-2.6,2.3-6.3,0.6-9.2c-0.2-0.2-0.5-0.3-0.7-0.1c-0.1,0.1-0.2,0.2-0.2,0.3
	c-1.1,4.6-2.2,8.6-5.3,11.2l-0.3,0.3c-1.3,0.8-2.1,2.3-1.9,3.9v0.4c-0.1,2.8-1.2,5.4-3.1,7.5c-1.9,2.1-4.1,3.8-6.6,5.2
	c-0.2,0.1-0.3,0.4-0.2,0.7c0.1,0.2,0.3,0.2,0.4,0.2c0,0,0,0,0.1,0c2.7-0.3,5.2-1.4,7.4-3c2.2-1.7,3.6-4.1,4.1-6.9
	c0.1-0.5,0.1-1.1,0.1-1.6C390.6,260.9,391.9,258.5,394,257L394,257z"/>
<path d="M422.1,292.7c-0.2-1-0.9-1.8-1.8-2.2c-6.9-4.2-12.8-6.6-18.5-7.5c-1.8-0.4-3.7-0.4-5.5,0.2c-1.9,0.6-3.3,2.3-3.5,4.3
	c0,1.2,0.6,2.3,1.5,3.1c0.4,0.3,0.8,0.5,1.3,0.7c0.6,0.2,1.1,0.6,1.5,1c0.4,0.8,0.6,1.8,0.4,2.7l0,0.4c-0.2,1.2,0.2,2.4,1.1,3.3
	c-0.1,0.5-0.2,1-0.2,1.5c-0.1,0.9,0,1.8,0.3,2.7c0.3,0.6,0.6,1.1,1.1,1.6c0.2,0.3,0.4,0.5,0.6,0.8c0.8,1.1,1.1,2.5,0.9,3.9
	c0,0.3,0.1,0.5,0.4,0.6c0,0,0.1,0,0.1,0c0.2,0,0.4-0.1,0.5-0.3c0.5-1.2,1.6-2.2,3.6-3.1c0.4-0.2,0.8-0.3,1.2-0.5
	c1.3-0.4,2.5-1.1,3.6-1.9c0.9-0.7,1.6-1.6,2.2-2.7c0.4-0.5,0.9-0.9,1.4-1.2c0.9-0.4,1.9-0.6,2.8-0.6c1.2,0,2.4-0.3,3.4-0.9
	C421.9,297.6,422.5,295.6,422.1,292.7z M395.4,287c1.3-1.5,3.1-2.4,5.1-2.3c2,0,4,0.5,5.9,1.2c4.3,1.5,8.4,3.5,12.3,5.8
	c0.9,0.8,1.5,2,1.5,3.2c0,0.6-0.4,1.3-0.9,1.7c-0.3,0.3-0.8,0.4-1.2,0.4c-0.4,0-0.7-0.3-0.8-0.7c0-0.2,0-0.3,0.2-0.4
	c0.1-0.1,0.2-0.1,0.3-0.1c0.3,0.1,0.5-0.1,0.6-0.4c0.1-0.3-0.1-0.5-0.3-0.6c-1-0.3-2-0.5-3-0.5c-1.1,0-2.2,0.5-3,1.3
	c-0.8,1.1-1.1,2.4-1.1,3.7l0,0.3c0,0.5-0.1,1-0.2,1.4c-0.1,0.1-0.1,0.2-0.2,0.2c-1.1,1.1-2.3,2-3.8,2.6c-0.4,0.2-0.9,0.3-1.4,0.2
	c-0.4,0-0.7-0.3-0.8-0.6c0-0.1,0-0.2,0-0.2c0-0.2,0-0.3-0.1-0.5c-0.1-0.5-0.7-0.8-1.2-0.7c-0.3,0.1-0.5,0.3-0.6,0.6
	c0,0.1-0.1,0.1-0.1,0.1c-0.1,0.1-0.4,0-0.7-0.2c-1.3-1-2-2.6-1.9-4.3c0-0.5,0.1-0.9,0.2-1.4c0.3-0.7,0.6-1.5,1-2.1
	c0.1-0.1,0.2-0.2,0.4-0.4c0.7-0.7,1.2-1.6,1.4-2.6c0-1-0.4-2.1-1.1-2.8c-0.7-0.7-1.4-1.2-2.2-1.7c-0.1-0.1-0.3-0.1-0.4,0
	c-0.1,0-0.3,0.2-0.3,0.3c-0.1,0.2-0.2,0.5-0.2,0.8c-0.1,0.4-0.2,0.8-0.4,1c-0.3,0.1-0.7,0.2-1,0.1c-1.2-0.1-1.9-0.4-2.1-1
	C394.8,287.9,395,287.4,395.4,287L395.4,287z"/>
<path d="M415.9,338.9c-2.8-2.3-6.1-7-7.8-9.6c-0.4-0.6-0.8-1.2-1.3-1.8c-3.1-4.4-5.1-9.7-6.7-14.3c-0.1-0.2-0.2-0.3-0.5-0.3
	c-0.2,0-0.4,0.1-0.5,0.3c-1.5,3.5-11.1,8.7-11.2,8.7c-0.1,0-12.2,5-15.3,5.5c-0.3,0-0.5,0.3-0.4,0.6c0,0.2,0.2,0.4,0.4,0.4
	c4.4,0.8,7.6-0.6,10.8-1.9c2.4-1.2,5.1-1.9,7.8-2.1c1.4-0.2,2.9-0.6,4.2-1c0.4-0.1,0.7-0.2,0.8-0.2c0.5-0.1,1-0.4,1.4-0.7
	c0.4,2.3,1.4,5.4,3.1,6.5c0.2,0.1,0.5,0.1,0.7-0.2c0.1-0.1,0.1-0.2,0.1-0.3c0.1-0.7,0.3-1.3,0.5-1.9c0.1-0.2,0.1-0.5,0.2-0.7
	c1.7,3.9,5.7,10.7,13.1,13.8c0.1,0,0.1,0,0.2,0c0.3,0,0.5-0.2,0.5-0.5C416.1,339.2,416,339,415.9,338.9L415.9,338.9z"/>
<path d="M336.8,173.1c-0.3-0.1-0.5,0-0.6,0.3l-5.9,14.9c0.2-3.7-0.3-7.4-1.4-11c-0.1-0.2-0.3-0.4-0.5-0.4c-0.2,0-0.4,0.2-0.5,0.4
	c-1,8.7-2.8,17.4-5.2,25.9l-3.6-3.5c-0.2-0.2-0.5-0.2-0.7,0c-0.2,0.2-0.2,0.4-0.1,0.6l1.8,3.1c-1.2-0.4-2.6-0.4-3.8,0.2
	c-0.3,0.1-0.4,0.4-0.2,0.7c0,0.1,0.1,0.1,0.2,0.2l2,1.5c-3.3,0.7-6.4,2.3-8.8,4.7c-0.2,0.2-0.2,0.5,0,0.7c0.1,0.1,0.3,0.2,0.4,0.1
	l1-0.2c-2.6,2.5-2.9,3-2.5,3.5c0.1,0.1,0.2,0.2,0.4,0.2l3.6,0.1h0c0.3,0,0.5-0.2,0.5-0.5c0-0.1,0-0.2-0.1-0.3l-0.8-1.3l2.3-0.6
	c0.3-0.1,0.4-0.3,0.4-0.6c0-0.1-0.1-0.2-0.1-0.2L314,211c5.1-3.1,10.9-4.8,16.9-5.1c0.3,0,0.5-0.2,0.5-0.5c0-0.3-0.2-0.5-0.5-0.5
	c-1.7-0.1-3.4-0.8-4.7-1.9l5.7-0.4c0.3,0,0.5-0.3,0.5-0.5c0-0.2-0.1-0.3-0.2-0.4c-1.2-0.8-2.2-1.9-3-3.1c0.5,0.3,1,0.7,1.4,1.1
	c0.6,0.6,1.5,1,2.4,1c0.4,0,0.9-0.2,1.2-0.6c0.4-0.7,0.5-1.5,0.3-2.2c-1.4-8.2,0.8-16.7,2.7-24.3
	C337.2,173.4,337.1,173.2,336.8,173.1z"/>
<path d="M416.9,342.6c-0.2-0.2-0.5-0.3-0.7-0.1c-0.2,0.1-0.3,0.4-0.1,0.6c0.5,0.9,1,1.7,1.6,2.5c0.6,0.9,1.2,1.7,1.7,2.7
	c3.2,5.7,9.2,9.4,15.7,9.7h0c0.3,0,0.5-0.2,0.5-0.5c0-0.2-0.1-0.3-0.2-0.4l-2.3-1.4c4.1,1,8.4,1.1,12.6,0.5c0.3,0,0.5-0.3,0.4-0.6
	c0-0.2-0.2-0.3-0.3-0.4l-1.3-0.4h0c2.7,0,5.3-0.6,7.7-1.7c0.2-0.1,0.3-0.4,0.3-0.6c-0.1-0.2-0.3-0.4-0.5-0.4
	c-5.3,0.6-12.2,1.2-18.9-0.2C426.1,350.5,420.4,347.2,416.9,342.6z"/>
<path d="M401.4,274.9c1.6-0.9,3.3-1.5,5.1-1.9c0.3-0.1,0.4-0.4,0.3-0.6c0-0.1-0.1-0.2-0.2-0.3c-1-0.8-2.7-1.6-5.5-0.7
	c-3.7,1.1-6.8,3.7-8.6,7.2c-0.1,0.2,0,0.5,0.2,0.7c0.1,0.1,0.2,0.1,0.3,0l0.8-0.2c-1.3,2.1-2.4,4.4-3.1,6.7c-0.1,0.3,0,0.5,0.3,0.6
	c0.1,0,0.1,0,0.2,0c0.2,0,0.4-0.1,0.5-0.3c1.2-2.2,3.1-3.8,5.5-4.5c2.4-0.7,4.9-1.1,7.4-1.2c0.3,0,0.5-0.3,0.5-0.5
	c0-0.2-0.1-0.4-0.3-0.4c-2-0.8-4.2-1.3-6.4-1.4C399,276.8,400.1,275.6,401.4,274.9z"/>
<path d="M429.1,296.8c0.3,0.1,0.5,0,0.7-0.3c0.1-0.2,0-0.3-0.1-0.5c-1.3-1.8-2.5-3.7-3.4-5.7l2.1,1c0.1,0,0.2,0.1,0.3,0.1
	c0.1,0.3,0.2,0.5,0.2,0.8c0,0.2,0.2,0.3,0.4,0.4c0.2,0,0.4,0,0.5-0.2c0.3-0.4,0.3-1-0.1-1.4c-0.1-0.1-0.1-0.1-0.2-0.2
	c-1.2-3.3-3.7-6-6.9-7.4c-0.2-0.1-0.5,0-0.7,0.2c-0.1,0.2,0,0.5,0.2,0.7c1.2,0.7,1.9,1.9,1.9,3.3c-0.5-0.4-1.2-0.5-1.9-0.3
	c-0.2,0-0.3,0.2-0.4,0.4c-0.1,1.1,0.2,2.3,1,3.2c0.4,0.6,0.8,1.3,0.9,2c0,0.9-0.3,1.8-0.8,2.5c-0.1,0.2-0.2,0.3-0.3,0.5
	c-0.5,0.7-0.9,1.4-1.2,2.2c-0.1,0.3,0.1,0.5,0.3,0.6c0.2,0.1,0.4,0,0.5-0.2C423.9,296.6,426.6,295.9,429.1,296.8z"/>
<path d="M543.2,199.6c0.3-0.1,0.4-0.4,0.3-0.6c-0.1-0.2-0.2-0.3-0.4-0.3c-6.3-1.2-12.9,0.5-17.8,4.7c0.7-4.5,2.2-8.9,4.4-13
	c2.4-4.5,6-8.2,10.5-10.5c4.8-2.4,10.4-2.8,15.8-3.1c4.4-0.3,8.9-0.6,13.1-1.9c0.3-0.1,0.4-0.4,0.3-0.6c0-0.2-0.2-0.3-0.3-0.3
	c-4.9-1.5-10-1.9-15.1-1.3c5.1-3.8,10.3-7.5,16.3-9.7c7.3-2.6,14.8-2.2,20.1,1.2c0.2,0.1,0.5,0.1,0.7-0.2c0.1-0.1,0.1-0.2,0.1-0.3
	c-0.5-3.1-4-4.8-7-5.9c-5.1-1.9-10.3-0.8-13.7,0.4c-4.4,1.5-8.3,4-12.2,6.4l-44.6,27.9c-0.2,0.1-0.3,0.5-0.2,0.7
	c0.1,0.2,0.3,0.3,0.5,0.2l7.5-1.4c-2.9,2.1-5.1,4.9-6.4,8.2c-0.1,0.3,0,0.5,0.3,0.6c0.2,0.1,0.3,0,0.5-0.1l4.8-3.4
	c-3.9,6.3-5.6,13.7-4.9,21.1c0,0.2,0.2,0.4,0.5,0.5c0.3,0,0.5-0.2,0.5-0.4c0,0,0,0,0,0c0.6-3.2,1.8-6.3,3.6-9.1l-0.5,18.9
	c-0.1,1-0.1,1.9-0.1,2.9c0,0.3,0.2,0.5,0.5,0.5s0.5-0.2,0.5-0.5l0.1-2.8C521.8,215.5,531,203.6,543.2,199.6z"/>
<path d="M368.4,183.8c0.1,0,0.3-0.1,0.3-0.1c5.5-5.4,10.9-11.1,14.3-17.3c-0.5,2-0.8,4-0.8,6c0.1,3.2,1.4,7.3,4.9,9.3
	c0.2,0.1,0.5,0,0.7-0.2c0.1-0.2,0.1-0.3,0-0.5c-2.2-4.1-2.5-9-0.8-13.3c0.5-1.1,1-2.2,1.6-3.2c1-1.6,1.8-3.4,2.3-5.2
	c1.1,2.6,1.4,5.5,1,8.3c0,0.3,0.1,0.5,0.4,0.6c0.2,0,0.4-0.1,0.5-0.3c2.1-4.2,2.7-9.1,1.4-13.6c2.4,1.1,6,2.4,9.3,3.6
	c2.2,0.8,4.3,1.6,5.5,2.1c0.3,0.1,0.5,0,0.7-0.3c0.1-0.2,0-0.5-0.2-0.6c-12.2-8.2-22.6-21.7-30.7-40.2c-1.5-3.4-3-7.2-4.6-11.3
	c-5.6-14.4-12-30.8-20.8-32.9c-0.3-0.1-0.5,0.1-0.6,0.4c0,0.2,0,0.3,0.1,0.5c4.8,5.3,8.6,11.4,11.2,18.1c-1.9,0.1-3.9,0.5-5.6,1.3
	c-0.2,0.1-0.4,0.4-0.2,0.7c0.1,0.1,0.2,0.3,0.4,0.3c4.5,0.8,7.7,4.3,9.6,7.1c2.2,3.4,3.6,7.3,5,11.1l0.2,0.6
	c1.2,3.7,2.8,7.2,4.8,10.5c-2.8-1.2-5.8-1.9-8.9-2.2c-0.2,0-0.5,0.1-0.5,0.4c-0.1,0.2,0.1,0.5,0.3,0.6c6.7,3,11.3,6.8,14.5,12.1
	c2.8,4.6,1.4,9.5-0.1,14.8c-0.3,1.2-0.7,2.4-1,3.5c-2.7,9.8-8.2,18.8-14.6,28.8c-0.1,0.2-0.1,0.5,0.2,0.7
	C368.2,183.8,368.3,183.8,368.4,183.8L368.4,183.8z"/>
<path d="M457.4,244.8c0.2,0.1,0.4,0.1,0.5,0c0.2-0.1,0.4-0.3,0.5-0.4c0.9-0.3,2.7-0.8,3.4-1l13.5-3.4c0.3-0.1,0.4-0.3,0.4-0.6
	c-0.1-0.2-0.2-0.4-0.4-0.4c-6.1-0.5-12.3,1.1-17.4,4.6c-0.7,0.3-0.8,0.5-0.8,0.8C457.1,244.6,457.2,244.7,457.4,244.8z"/>
<path d="M504.9,253.5c-6-3.8-12.7-6.3-19.7-7.3l3.7-0.6c0.3,0,0.5-0.3,0.4-0.6c0-0.2-0.2-0.3-0.3-0.4c-8.5-2.7-17.6-1.9-25.5,2.1
	c-0.2,0.1-0.3,0.4-0.2,0.7c0.1,0.2,0.4,0.3,0.6,0.2c4.2-1.4,9.5-1.1,14.6,0.9c4.7,1.9,8.9,4.9,13,7.9c0.2,0.2,0.5,0.1,0.7-0.1
	c0.1-0.1,0.1-0.2,0.1-0.4c-0.3-2.1-1.4-4.1-3.1-5.4c5.2,0.9,10.4,2.2,15.4,3.8c0.3,0.1,0.5-0.1,0.6-0.3
	C505.2,253.8,505.1,253.6,504.9,253.5L504.9,253.5z"/>
<path d="M360.7,205.1c5,2.1,9.8,4.5,14.4,7.2c-2.2-0.1-4.3,0.6-6,2.1c-0.2,0.2-0.2,0.5,0,0.7c0.1,0.1,0.2,0.2,0.3,0.2
	c5.1,0.4,10.3,0.7,15.2,2.4c5.2,1.8,9.5,5,11.8,8.9c0.1,0.2,0.4,0.3,0.7,0.2c0.2-0.1,0.3-0.4,0.2-0.6c-3.4-8.3-10-14.9-18.3-18.4
	c-0.3-0.1-0.5,0-0.7,0.3c-0.1,0.2,0,0.4,0.1,0.5l2.5,2.9c-6.1-3.9-12.9-6.3-20.1-7.3c-0.2,0-0.5,0.1-0.5,0.4
	C360.4,204.7,360.5,205,360.7,205.1z"/>
<path d="M546.5,265.6l-4.1-1.8c1.4-0.4,2.7-1.3,3.7-2.4c0.2-0.2,0.1-0.5-0.1-0.7c0,0-0.1-0.1-0.2-0.1c-1.8-0.5-3.8-0.7-5.6-0.5
	c1.3-5.3,3.2-10.6,5.5-15.6c0.1-0.3,0-0.5-0.2-0.7c-0.2-0.1-0.5,0-0.6,0.2l-4.3,5.8c0.2-2.5,0.7-4.9,1.7-7.3c0.1-0.3,0-0.5-0.3-0.7
	s-0.5,0-0.7,0.3l0,0l-6.6,14.4c-0.4,1-1,1.9-1.8,2.6c-0.5,0.3-1.2,0.5-1.8,0.4c-0.3-0.2-0.7-0.4-1.1-0.6c-0.2-0.1-0.5,0-0.7,0.2
	c-0.1,0.2-0.1,0.4,0,0.5c0.3,0.4,0.8,0.7,1.3,0.8c1,0.6,1.8,1.4,2.6,2.3l-1.6,0l0,0c-0.3,0-0.5,0.2-0.5,0.5c0,0.2,0.1,0.3,0.2,0.4
	l4,2.8c-0.5,0.4-1.1,0.6-1.7,0.5c-0.2,0-0.5,0.1-0.5,0.3c-0.1,0.2,0,0.5,0.2,0.6c3.7,2.1,6.7,5.4,8.4,9.4c0.1,0.2,0.2,0.5,0.3,0.7
	c0.1,0.3,0.4,0.4,0.6,0.3c0.3-0.1,0.4-0.4,0.3-0.6c-0.1-0.2-0.2-0.5-0.3-0.7c-0.8-2.1-1.2-4.4-1.2-6.7c1.1,2.4,2.6,4.6,4.5,6.4
	c0.2,0.2,0.5,0.2,0.7,0c0.1-0.1,0.2-0.3,0.1-0.5c-1.4-3.9-3.6-7.6-6.4-10.7l5.9,1.1c0.3,0.1,0.5-0.1,0.6-0.4
	C546.8,265.9,546.7,265.7,546.5,265.6L546.5,265.6z"/>
<path d="M360.9,385.6c-0.2-0.1-0.5,0.1-0.6,0.3c-4.5,9.4-15.3,15.4-25.6,14.5c1.7-1.2,3-2.8,3.8-4.6c0.1-0.3,0-0.5-0.3-0.7
	c-0.1,0-0.2-0.1-0.4,0c-3.2,1-6.6,1.8-9.9,2.2c1.4-1.2,2.3-2.9,2.5-4.8c0-0.3-0.2-0.5-0.4-0.5c0,0,0,0-0.1,0l0,0l-4.4,0l2.4-0.9
	c0.3-0.1,0.4-0.4,0.3-0.6c-0.1-0.2-0.2-0.3-0.4-0.3l-10.7-1.8c-0.2,0-0.3,0-0.4,0.1c-0.1,0.1-0.2,0.3-0.2,0.4
	c0.1,1.3,1.4,1.9,2.8,2.5c-0.2,0.1-0.5,0.2-0.8,0.2c-0.5,0.1-1.1-0.1-1.5-0.4c-0.2-0.2-0.5-0.1-0.7,0.1c-0.2,0.2-0.1,0.5,0,0.7
	c1.9,1.7,4.2,3,6.7,3.8c-1.6,1.1-2.8,2.7-3.5,4.6c-0.1,0.3,0,0.5,0.3,0.6c0.1,0,0.2,0,0.3,0c3.2-1.1,6.5-1.5,9.8-1.1
	c-0.8,1.8-0.9,3.8-0.5,5.8c0.1,0.3,0.3,0.4,0.6,0.4c0.7-0.1,1.3-0.4,1.8-0.7l-0.8,2.4c-0.1,0.3,0,0.5,0.3,0.6c0.1,0,0.3,0,0.4,0
	l3.5-1.8c-1,1.2-1.9,2.6-2.6,4c-0.1,0.2,0,0.5,0.2,0.7c0.2,0.1,0.5,0.1,0.6-0.1c3.1-3.7,7.6-5.9,12-8c1.3-0.6,2.7-1.3,4-2
	c4.3-2.3,11.5-7.3,11.7-14.7C361.3,385.8,361.1,385.6,360.9,385.6z"/>
<path d="M397.7,410.9c-5.4-0.5-10.2-3.5-12.9-8.1c-0.1-0.2-0.3-0.3-0.5-0.2c-0.2,0-0.4,0.2-0.4,0.4l-1.1,3.7
	c-2.8-3.4-4-7.8-3.5-12.1c0-0.3-0.2-0.5-0.4-0.6c-0.3,0-0.5,0.2-0.6,0.4c-0.7,4.4-2.5,8.5-5.3,12l0.7-3.1c0.1-0.3-0.1-0.5-0.4-0.6
	c-0.1,0-0.2,0-0.3,0c-1,0.4-1.9,1-2.6,1.8l0.7-2.8c0.1-0.3-0.1-0.5-0.4-0.6c-0.2,0-0.4,0-0.5,0.1l-4.2,4.3c-2.6,0.2-5.2,1-7.6,2.2
	c-0.3,0.1-0.4,0.4-0.2,0.7c0.1,0.1,0.1,0.2,0.2,0.2c2.4,1.1,5.1,1.1,7.5,0l-1.7,2.8c-0.1,0.2-0.1,0.5,0.2,0.7c0.1,0,0.1,0.1,0.2,0.1
	c4.1,0.6,8.2-0.6,11.3-3.2l0.4,3.8c0,0.2,0.2,0.4,0.5,0.4h0c0.2,0,0.4-0.2,0.5-0.4l1-5.1c5.7,3.6,12.5,5.2,19.2,4.3
	c0.3,0,0.5-0.3,0.4-0.6C398.1,411.1,397.9,410.9,397.7,410.9L397.7,410.9z"/>
<path d="M399.4,372.6c0-0.2-0.2-0.5-0.4-0.5c-0.2-0.1-0.5,0.1-0.6,0.3c-0.8,2.2-1.4,4.4-1.5,6.7c-0.5-3.9-0.3-7.9,0.5-11.7
	c0.1-0.3-0.1-0.5-0.4-0.6c-0.1,0-0.3,0-0.4,0.1c-1.9,1.5-2,3.9-2.1,6.3c0,0.7-0.1,1.5-0.1,2.2c-0.8,7.1,0.3,14.3,3.2,20.8
	c0.1,0.3,0.4,0.4,0.7,0.3c0.2-0.1,0.4-0.4,0.3-0.6c-0.5-1.8-0.7-3.7-0.6-5.5c3.7,8.4,10.2,15.2,18.3,19.3c0.2,0.1,0.5,0,0.7-0.2
	c0.1-0.2,0-0.5-0.1-0.6c-3.9-3-7.3-6.7-10-10.9c1.8,1.5,3.8,2.7,6,3.7c0.3,0.1,0.5,0,0.7-0.3c0.1-0.2,0-0.5-0.2-0.6
	C404.4,394,399.3,383.6,399.4,372.6z"/>
<path d="M375.9,323.1c0.1,0,0.3,0,0.4-0.1c0.6-0.2,1-0.7,1.1-1.3c0.1-0.1,0.1-0.3,0.2-0.4c0.6-0.7,1.3-1.3,2.2-1.5
	c1.1-0.3,2.1-1,2.7-2c0.1-0.2,0.2-0.4,0.3-0.6c0.1-0.2,0.2-0.4,0.3-0.6c0.1-0.2,0.4-0.4,0.5-0.3c0.1,0,0.1,0.1,0.1,0.1
	c0.1,0.1,0.1,0.1,0.2,0.2c0.3,0.3,0.8,0.4,1.2,0.3c0.7-0.2,1.3-0.8,1.6-1.4c0.1-0.3,0.2-0.5,0.3-0.8c0.1-0.5,0.3-1,0.7-1.4
	c0.1-0.1,0.1-0.1,0.1-0.2c0.4-1.4,0.6-2.8,0.8-4.2c0-0.3-0.2-0.5-0.4-0.6c-0.2,0-0.5,0.1-0.5,0.4c-0.4,1.8-1.1,3.5-2.3,5
	c-1.1,1.2-3,2-4.6,1.2c-0.2-0.1-0.5,0-0.7,0.2l-2,3.5c0-0.1-0.1-0.2-0.1-0.2c-0.2-0.2-0.4-0.4-0.7-0.4c-0.4,0-0.8,0.1-1.1,0.4
	c-0.1,0.1-0.2,0.2-0.3,0.3c-0.1,0.1-0.2,0.2-0.3,0.3c0,0,0-0.1,0-0.1c0-0.3-0.3-0.5-0.5-0.4c-0.1,0-0.2,0.1-0.3,0.1
	c-0.2,0.2-0.3,0.6-0.2,0.9c0,0.2-0.1,0.5-0.2,0.7c-0.1,0.3-0.2,0.7-0.2,1.1c0,0.7,0.2,1.3,0.7,1.8
	C375.3,323,375.6,323.1,375.9,323.1z"/>
<path d="M412.6,322.8L412.6,322.8c0.1,0,0.2,0,0.3-0.1l0.7,2.4c0.1,0.2,0.2,0.3,0.4,0.4c0.2,0,0.4-0.1,0.5-0.3l2.5,3.8
	c0.1,0.2,0.5,0.3,0.7,0.2s0.3-0.5,0.2-0.7c-1.1-1.9-1.6-4-1.5-6.2c0-0.3-0.2-0.5-0.5-0.5s-0.5,0.2-0.5,0.5c0,0.2-0.1,0.4-0.1,0.6
	c-1-1.7-1.8-3.5-2.4-5.4l-0.2-0.7c-0.1-0.3-0.4-0.4-0.6-0.3c-0.2,0.1-0.3,0.3-0.3,0.5l0.4,5.3C412.1,322.6,412.3,322.8,412.6,322.8z
	"/>
<path d="M428,340.5c0,0,0.1,0,0.1-0.1c0.4,0.5,0.8,1,1.2,1.5c0.2,0.2,0.5,0.2,0.7,0c0,0,0.1-0.1,0.1-0.1c1.2,1.4,2.8,2.5,4.4,3.2
	c0.1,0,0.1,0,0.2,0c0.3,0,0.5-0.2,0.5-0.5c0-0.1-0.1-0.3-0.2-0.4c-1.5-1.4-2.8-3-3.8-4.7c0-0.2-0.2-0.4-0.4-0.5
	c-0.2-0.1-0.5,0-0.7,0.2c-0.1,0.1-0.1,0.3,0,0.4l0,0c-0.1-0.2-0.2-0.4-0.2-0.7l-0.6-4c0-0.3-0.3-0.5-0.6-0.4c-0.2,0-0.3,0.1-0.4,0.3
	c-0.2,0.4-0.3,0.7-0.4,1.1l-0.2-0.5c-0.1-0.3-0.4-0.4-0.6-0.3c-0.2,0.1-0.4,0.3-0.3,0.6c0,0,0,0,0,0c0,0-0.1,0.1-0.2,0.1
	c-0.2-0.1-0.3-0.3-0.3-0.6c0-0.3,0-0.5,0.1-0.8c0-0.1,0.1-0.3,0.1-0.4c0.1-0.7,0-1.3-1.2-2.5c-0.2-0.2-0.5-0.2-0.7,0
	c-0.1,0.1-0.2,0.2-0.2,0.4c0.1,3,1.1,6,2.9,8.4C427.5,340.6,427.8,340.6,428,340.5z"/>
<path d="M428.9,310.3c-0.2,0-0.3,0.2-0.4,0.3c-1.8-0.7-3.5-1.7-5.2-2.8c-0.2-0.2-0.5-0.1-0.7,0.1c-0.1,0.2-0.1,0.4,0,0.6
	c0.8,1.4,1.6,2.7,2.6,3.9c0.1,0.1,0.2,0.2,0.4,0.2c0,0,0.1,0,0.1,0c0.1,0.2,0.2,0.4,0.3,0.7c0.2,0.5,0.5,0.8,1,0.9
	c0.7,0.1,1.3-0.3,1.5-1c0,0,0,0,0-0.1c0.8,0.8,1.8,1.4,2.8,1.9c0.2,0.1,0.5,0,0.7-0.2c0.1-0.2,0.1-0.3,0-0.5l-2.5-3.8
	C429.3,310.3,429.1,310.2,428.9,310.3z"/>
<path d="M381.1,298.1c-0.1,0.4,0,0.8,0.2,1.1c0.3,0.4,0.7,0.7,1.2,0.7c0.6,0,1.2-0.1,1.6-0.5c0.1,0.2,0.1,0.3,0.3,0.4
	c0.2,0.2,0.6,0.4,0.9,0.3c0.4-0.1,0.7-0.4,0.9-0.8l2-3.3c0.1-0.2,0.1-0.5-0.2-0.7c-0.1-0.1-0.3-0.1-0.5,0c-2.2,0.9-4.6,1-6.9,0.5
	c-0.2,0-0.4,0.1-0.5,0.2c-0.6,1-1.6,1.7-2.8,1.9c-1.2,0.3-2.5,0.4-3.7,0.3l0,0c-0.3,0-0.5,0.2-0.5,0.5c0,0.2,0.1,0.3,0.2,0.4
	c2.5,1.5,5.7,1.1,7.8-0.9C381,298.2,381.1,298.1,381.1,298.1z"/>
<path d="M622.3,420.6h-88.8c-4.8-7.5-10-14.8-15.3-22c0.4,0.1,0.8,0.2,1.2,0.3c1.5,0.5,3,0.8,4.6,0.9c0.8,0,1.6-0.1,2.4-0.4
	c0.3-0.1,0.4-0.4,0.3-0.6c0-0.1-0.1-0.2-0.2-0.3c-2.4-1.4-10.3-6.9-10.3-19.2c0-0.6,0-1.2,0-1.8c0.8-5.3,3.4-10.5,6-15.6l0.9-1.7
	c0.9-1.7,1.8-3.4,2.6-5.2c2.8,2.2,5.5,4.5,8.3,6.8c6,5,12,10.1,17.8,15.3c-5.2-5.6-10.7-11-16.5-16.1c-2.9-2.5-5.9-5-8.9-7.4
	c0.4-0.9,0.7-1.8,1.1-2.7c0.8-0.9,1.6-1.9,2.4-2.8c1.6-1.8,3.3-3.8,4.9-5.8c0.8,0.3,1.7,0.7,2.5,1c4.2,1.7,8.3,3.4,12.5,5.6
	c-1.5-1.2-8.6-4.8-12.2-6.5c-0.7-0.3-1.4-0.6-2.2-0.9c2.3-2.9,4.3-6,5.9-9.3c1.4-2.9,2.3-6.1,2.7-9.3c6.3,1.8,12.7,3.7,19,5.6
	c-6-2.4-12.1-4.6-18.3-6.7l-0.6-0.2c0.1-0.9,0.2-1.7,0.2-2.5c0.1-3.1,0.7-6.1,1.8-8.9c0.4,2.2,1.5,4.1,3.1,5.7
	c0.2,0.2,0.5,0.2,0.7,0c0.1-0.1,0.2-0.2,0.1-0.4c-0.3-5.4,1.6-10.7,3.4-15.9c0.3-0.9,0.7-1.9,1-2.8c1.4-3.8,2.2-7.8,2.4-11.9
	c0.9,0.3,1.8,0.5,2.8,0.5c0.8,0,1.5-0.1,2.2-0.4c0.9-0.3,1.6-0.9,2-1.8c2.8-0.6,5.2-2.8,6.6-6c0.9-2.1,1.5-4.3,1.9-6.6
	c0.2-0.8,0.3-1.5,0.5-2.3c2.4-10.1,8.3-17.1,14.5-24.6c2.5-3,5.1-6,7.5-9.4c4.7,2.8,9.3,5.6,13.9,8.6c-2.6-2.3-8.3-6.5-13.1-9.8
	c0.4-0.6,0.9-1.3,1.3-1.9c2.9-4.7,5.4-9.6,7.4-14.7c3,2.3,5.9,4.6,8.8,7.2c-2.6-2.9-5.4-5.7-8.4-8.2c6.7-16.5,11.7-37.5,11.9-49.3
	c0.3-1.7,0.3-3.5-0.1-5.3c-0.8-3.2-2.4-6.2-4.5-8.8c-1.6-2.2-3.6-4.2-5.9-5.7c-2.9-1.6-6.2-2.6-9.5-2.8c-10.7-1.2-21.4,1.3-30.5,7.1
	c-1.3,0.8-2.6,1.8-3.8,2.7c-0.4,0.3-0.9,0.6-1.3,0.9c-21.1,11.6-44.3,18.8-68.3,21.3c-0.8-0.5-1.6-1-2.4-1.5
	c-2.3-1.3-4.6-2.8-6.7-4.3c-0.5-0.3-0.9-0.7-1.4-1.1c-3.4-2.6-7-5.3-11.3-5.6c-1.3,0-2.7,0-4,0.2c-1.6,0.3-3.2,0.3-4.8,0.1
	c-2.4-0.5-4.4-2-6.4-3.7c-1.8-1.6-3.8-2.8-6-3.7c-2-0.5-4-0.7-6-0.5c-1.8,0.1-3.6,0-5.3-0.4c-1.8-0.6-3.5-1.4-5-2.5
	c-1.3-0.9-2.7-1.6-4.2-2.3c-4.1-1.6-8.8-0.9-12.7-0.2c-13.2-7.7-21.5-22-28.3-33.4l-3.8-6.5l-13.8-27.6c-2.2-4.8-4.9-9.5-7.9-13.8
	c-3.1-4.4-7.3-8-12.2-10.3c-5-2.3-10.8-2.4-15.8-0.2c-2.1,1-3.9,2.5-5.3,4.3c-5.7,5.8-13.4,22.8-18.7,39.5
	c-5.3,0.3-10.6,0.9-15.8,1.9c-4.1,0.7-12.5,3.4-14.1,4.4c5.5-1.9,11.3-3.1,17-3.8c4.1-0.5,8.2-0.8,12.3-1c-0.8,2.7-1.6,5.3-2.3,7.9
	c-4.9,2-9.5,4-13.7,5.8c-5.2,2.4-11.1,5.3-16.1,8l-0.1,0l0.1,0c-1,0.5-2,1.1-2.9,1.6c1.1-0.5,2.3-1,3.4-1.5
	c5.3,0.9,10.6,1.9,15.8,2.9c-5.8,0.6-12.6,1.6-16.6,2.5c7.2-0.8,14.3-1.2,21.5-1.5c1.6,0.3,3.2,0.6,4.8,1l0.3,0.1
	c-0.3,4.9-0.3,9.9,0,14.8c0,1,0.1,1.9,0.1,2.8c-4,0.9-8,1.9-11.9,3c-8.8,2.5-17.5,5.4-25.9,9c9.5-2.9,19-5.4,28.6-7.9
	c3.1-0.8,6.2-1.5,9.3-2.2c0.2,8-0.1,15.7-3.5,23.6c-0.2,0.6-0.5,1.1-0.7,1.7c-5.5,6.8-3.4,16.9-2,21.8l-2.5-0.6
	c-0.2,0-0.4,0-0.5,0.1c-0.1,0.1-0.2,0.3-0.1,0.5c1.4,3.9,0.9,8.8,0,13.4c-1.4,3.9-2.4,8-3.1,12.1c-0.2,0.7-0.3,1.4-0.3,2.1
	c-0.4,2-0.4,4-0.2,6c0.8,3.8,0.5,7.7-0.9,11.3c-0.6,1.3-1.4,2.5-2.4,3.6c-0.5,0.7-1.1,1.4-1.6,2.2c-2,3.1-2.7,6.9-2,10.5
	c0,0.1,0.1,0.3,0.3,0.3c-7.3-1.2-14.5-2.2-21.8-3.1c-7-0.9-16.1-1.8-22.1-2.1c7.8,1.2,15.7,2.5,23.5,3.6c7.8,1.1,15.5,2.3,23.3,3.6
	c-2.5,8.2-1.4,16.4,0.1,25.3c-6.1,1-12.1,2.3-18.1,3.8c-16.4,4.3-32.2,10.5-47.7,17.1c-11.5,4.8-22.7,10.2-33.6,16.3
	c11.9-5.1,24.5-10.6,35.8-15.4c20.2-8.6,42.4-16.4,63.8-20.1c0.1,0.4,0.2,0.9,0.2,1.3c0.9,5.2,1.8,10.6,2.3,16.3
	c-0.1,1.2-0.2,2.7-0.3,4.3c-0.2,3.7-0.4,7.8-1.2,9.6c-0.4,0.8-0.8,1.7-1.2,2.5c-15.1,4.7-29.9,10.4-44.3,16.8
	c-5,2.2-11.7,5.5-15.6,7.5c6.3-2.5,12.6-5,18.9-7.5c13.1-5.3,26.2-10.5,39.7-14.8c-1.6,2.7-3.7,5.2-6.2,7.1
	c-0.2,0.2-0.3,0.5-0.1,0.7c0.1,0.1,0.1,0.1,0.2,0.2c1.4,0.4,2.9,0.5,4.4,0.3c-10.5,7.8-20.6,16.2-30.1,24.3
	c-9.9,8.4-19.3,17.4-28.2,26.9c9.9-8.8,19.8-17.6,29.7-26.3c10.1-8.6,20.5-17.1,31.3-24.9c0.6-0.1,1.2,0.1,1.8,0.4c0,0,0,0,0,0.1
	c-1.4,5.1-3.9,9.8-6.3,14.4c-0.9,1.7-8.9,6.2-11.4,6.1c-0.2,0-0.4,0.1-0.5,0.3c-0.1,0.2,0,0.4,0.2,0.6c0.1,0.1,0.2,0.1,0.2,0.1v0
	c1.3,1.4,3.1,2.3,5,2.6c-8.5,3.7-15.1,12.2-16.9,21.9c-0.1,0.1-0.1,0.3-0.2,0.4c-0.7,1.6-1.4,3.2-2.2,4.8c-2.3,4.5-5.2,7.4-8.5,8.6
	c-0.3,0.1-0.4,0.4-0.3,0.6c0.1,0.2,0.2,0.3,0.4,0.3l6.3,0.4c-0.1,0.1-0.1,0.1-0.2,0.2c-4.3,1.7-8.1,4.4-11.2,7.8
	c-3.8,4.1-6.7,11.4-8,18.6H135.3c-0.3,0-0.5,0.2-0.5,0.5v25c0,0.3,0.2,0.5,0.5,0.5h106.1c3.1,2.8,6.9,4.2,10.5,5.2
	c5.4,1.6,10.8,2.9,16.4,3.8c0.2,0.4,0.5,0.7,0.7,1c1.3,1.4,3.1,2.2,5,2.2c0.2,0,0.5,0,0.7,0c1.5-0.2,3-0.8,4.2-1.7
	c5.8,0.6,11.7,0.9,17.5,0.9h0.1c6.1,0,11.9-0.3,17.1-3.7c2.3-1.6,4.2-3.7,5.6-6.1c1.1-0.6,2.2-1.3,3.2-2.1c0,0,0,0,0,0.1
	c0.1,0.2,0.3,0.3,0.5,0.3h107.1c0.8,0.8,1.8,1.5,2.7,2.2c1.1,2.5,2.8,4.8,4.9,6.6c4.8,4,10.7,4.9,16.7,5.6c5.9,0.7,11.8,1,17.7,1.1
	c1.1,1.1,2.5,1.8,4,2.2c0.5,0.1,1,0.2,1.5,0.2c1.6,0,3.2-0.6,4.5-1.7c0.3-0.3,0.6-0.6,0.8-0.9c5.6-0.3,11.2-1,16.7-2
	c0,0,0.1,0,0.1,0c0.2,0.3,0.5,0.5,0.7,0.8c0.8,0.7,1.9,1.1,3,1.2c0.2,0,0.5,0,0.7-0.1c1.1-0.3,2.2-0.9,2.9-1.8c0.9-0.9,1.5-1.9,2-3
	c1-0.5,1.9-1.2,2.7-1.9c2.3-1.9,3.8-4.8,4.9-8.4h105.5c0.3,0,0.5-0.2,0.5-0.5v-25C622.8,420.8,622.6,420.6,622.3,420.6z
	 M327.6,136.5c-1.1,0.4-2.2,0.9-3.2,1.4c0.7-0.6,1.4-1.2,2.2-1.7C327,136.3,327.3,136.4,327.6,136.5z M308,131.4
	c1.3,0.3,2.7,0.6,4,0.9c-0.2,4.8,0,9.6,0.5,14.4c-1.5,0.3-3.1,0.5-4.6,0.9C307.5,142.2,307.5,136.8,308,131.4z M308.2,129.3
	c1.3,0,2.7,0,4,0c0,0.5-0.1,1-0.1,1.5c-1.3-0.3-2.6-0.6-4-0.8C308.2,129.7,308.2,129.5,308.2,129.3L308.2,129.3z M322.3,134.8
	c-0.3,0.2-0.7,0.4-1,0.5c0.2-0.2,0.4-0.4,0.6-0.7L322.3,134.8z M326.1,148.8c0.9-0.6,1.8-1.1,2.7-1.7c1.6,0,3.1,0,4.7,0.1
	C331,147.5,328.5,148,326.1,148.8z M312.7,124.9c-0.1,0.9-0.3,1.8-0.4,2.8c-1.3,0-2.7,0-4,0.1c0.6-5.2,1.6-10.3,2.8-15.4
	c1.5-0.6,3.1-1.1,4.6-1.7C314.5,115.9,313.4,120.9,312.7,124.9z M332.7,145.2c2.9-1.3,6-2.3,9.1-3c3,1.5,5.9,3.1,8.6,4.9
	c1.4,0.9,2.7,1.8,4,2.7c-0.9-0.3-1.7-0.6-2.5-0.9C345.8,146.6,339.2,145.4,332.7,145.2L332.7,145.2z M320.9,144.9
	c2.3-3.2,5.3-5.9,8.9-7.7c1.8,0.6,3.6,1.3,5.4,2C330.2,140.5,325.4,142.4,320.9,144.9L320.9,144.9z M324.4,133.8
	c-0.4-0.1-0.8-0.2-1.2-0.3c1.5-1.3,3.1-2.5,4.9-3.6c2.5,0.2,5,0.5,7.4,0.8C331.7,131.2,328,132.2,324.4,133.8L324.4,133.8z
	 M331.6,106.9l1.3-1.1c0.8-0.2,1.6-0.3,2.4-0.5c1.2,0.2,2.3,0.4,3.5,0.7C336.3,105.9,333.9,106.2,331.6,106.9z M316.4,108.5
	c-1.6,0.6-3.1,1.2-4.7,1.8c0.6-2.2,1.2-4.3,1.8-6.4c1.4,0,2.7,0,4.1,0C317.2,105.4,316.8,106.9,316.4,108.5z M305.5,275.1
	c-0.1,0.2,0,0.5,0.2,0.7c0.1,0,0.1,0,0.2,0c0.2,0,0.4-0.1,0.4-0.3c2.3-4.3,6.1-7.5,10.7-9c5.3,1.2,10.6,2.6,15.9,4.1
	c5.2,1.7,10.3,3.6,15.3,5.7c-4.7,0.3-9.4-0.4-13.9-1.9c-0.3-0.1-0.5,0-0.6,0.3c-0.1,0.2,0,0.4,0.1,0.6c1.9,1.6,4.1,2.8,6.5,3.5
	c-3.6,0-7.1-0.6-10.6-1.5c-3.6-1-7.4-1.5-11.2-1.5c-0.3,0-0.5,0.2-0.5,0.5c0,0.2,0.1,0.4,0.3,0.5l4.7,1.5c-4.5,0.2-8.8,2.3-11.9,5.6
	c-6,0.2-11.9,0.7-17.8,1.5c0.9-5.8,4.2-12.5,12.8-19.6c0.1-0.1,0.1-0.1,0.2-0.2c0.4-0.3,0.9-0.7,1.3-1c1.6,0.3,3.2,0.7,4.9,1
	C309.6,268.1,307.2,271.4,305.5,275.1z M345,287.4c-3.8,4.2-6.5,9.1-8.2,14.5c-0.1,0.3,0.1,0.5,0.3,0.6c0.2,0.1,0.4,0,0.6-0.2
	l0.8-1.1c-0.3,1.1-0.4,2.3-0.5,3.5c-9.7,2.7-19,6.5-27.8,11.3c-3.7,0.8-7.4,1.7-11.1,2.7c1.5-1.4,3.2-2.5,5.1-3.3
	c0.2-0.1,0.3-0.3,0.3-0.6c-0.1-0.3-0.3-0.4-0.6-0.4c-3.1,0-6.2,0.8-8.9,2.3c1.3-2.7,2.3-5.5,2.9-8.4c0.1-0.6,0.3-1.2,0.4-1.8
	c1.1-5.1,2.3-10.3,5.8-13.9c0.2-0.2,0.2-0.5,0-0.7c-0.1-0.1-0.4-0.2-0.5-0.1c-3.8,1.8-6.9,4.7-8.8,8.4c-0.1-0.8-0.3-1.8-0.5-2.7
	c-0.8-3.4-1.1-7-0.9-10.5c1.3-0.2,2.6-0.3,3.9-0.5c4.2-0.5,8.5-0.8,12.8-1c-0.6,0.9-1.2,1.8-1.6,2.7c-0.1,0.2,0,0.5,0.2,0.7
	c0.1,0,0.1,0.1,0.2,0.1c0.2,0,0.4-0.1,0.4-0.3c0.8-1.5,2.1-2.6,3.7-3.3C323.7,285.1,334.4,285.7,345,287.4
	C345,287.3,345,287.3,345,287.4L345,287.4z M468,321.8c-0.1-0.4-0.2-0.7-0.4-1.1c1.5,0.6,2.9,1.2,4.2,1.8c-1.3-0.2-2.6-0.4-3.8-0.5
	C468,321.9,468,321.8,468,321.8L468,321.8z M467.1,337l0.2,1.5c0,0.2,0.2,0.4,0.5,0.4c0.2,0,0.5-0.2,0.5-0.4c1-4.9,1.1-10,0.1-15
	c3.2,0.4,6.3,0.9,9.4,1.5c9.9,4.6,19.4,9.9,28.4,15.9c0,0.1,0,0.1,0.1,0.2c2.1,2.4,4,5,5.7,7.7c-0.8-0.6-1.8-1-2.8-1.4
	c-0.3-0.1-0.5,0.1-0.6,0.3c0,0.1,0,0.3,0,0.4c1.7,3.1,3.6,6.6,4,10.3c0.1,2.4,0,4.8-0.5,7.1l-0.6,4.1l-5.2-3.9
	c-0.1-0.1-0.3-0.1-0.4-0.1c-0.1,0-0.3,0.1-0.3,0.3c-0.9,1.9-1,4.1-0.4,6.2c0.3,1.2,0.7,2.3,1.3,3.4c-4.5-4-8.1-8.9-10.7-14.3
	c-0.1-0.2-0.3-0.3-0.4-0.3h0c-0.2,0-0.4,0.1-0.4,0.3c-1,1.8-1.6,3.9-1.8,5.9c-4.1-4.4-8.5-8.7-13.1-12.7
	c-4.9-4.4-10.1-8.5-15.4-12.3C465.8,340.7,466.6,338.9,467.1,337L467.1,337z M497,310.8c3,1.8,5.6,4.1,7.7,6.8
	c2.9,3.9,5.4,8.2,7.2,12.7c0.1,0.2,0.3,0.3,0.5,0.3c0,0,0,0,0.1,0c0.2,0,0.4-0.2,0.4-0.4c0.5-3.9-0.3-7.8-2.3-11.1
	c-1.4-2.4-3.1-4.6-5-6.6c1,0.2,2.1,0.5,3.1,0.7c0.2,0.2,0.4,0.4,0.6,0.6c0.2,0.2,0.5,0.2,0.7,0.1c0.1-0.1,0.2-0.2,0.2-0.4
	c4.5,1.1,9,2.2,13.4,3.4c0.2,3.2,0.3,6.4,0.3,9.6c-1.8-2.2-2.8-4.8-3-7.6c0-0.3-0.2-0.5-0.5-0.5l0,0c-0.3,0-0.5,0.2-0.5,0.5
	c-0.2,4.6,0.9,9.2,3.4,13.1c-1.4-1.1-3.1-1.9-4.8-2.4c-0.3-0.1-0.5,0.1-0.6,0.3c0,0.2,0,0.3,0.1,0.5c1.3,1.5,2.3,3.3,2.9,5.2
	c-8.7-3.1-17.5-5.7-26.3-8.2c-0.8-0.2-1.6-0.4-2.4-0.6c-1.2-3-3-5.8-5.4-8l3.1,1.5c0.2,0.1,0.5,0,0.7-0.2c0.1-0.2,0.1-0.4-0.1-0.6
	c-2.7-2.9-6.2-6.6-10.6-8.4h2.5l0,0c0.3,0,0.5-0.2,0.5-0.5c0-0.2-0.2-0.4-0.4-0.5l-10.2-2.3c2.3,0.1,4.6,0.2,7,0.4
	C485.1,308.8,491.1,309.6,497,310.8L497,310.8z M536.5,327.4c-1.1-2.4-2-5-2.7-7.5c1.2,0.3,2.3,0.7,3.5,1
	C537.3,323.1,537,325.3,536.5,327.4L536.5,327.4z M506.9,448.7c-0.1-0.1-0.3-0.1-0.5-0.1c-0.2,0-0.3,0.2-0.3,0.3
	c-0.6,2-1.4,3.9-2.6,5.6c0,0.1-0.1,0.1-0.1,0.2c-0.3-0.2-0.5-0.4-0.6-0.7c-0.3-0.7-0.5-1.4-0.6-2.2c-0.3-2.6-0.4-5.3-0.2-7.9
	c0.1-3.7,0.3-7.5-1-11.5c-0.1-0.7-0.8-1.1-1.4-1c-0.8,0.2-1.3,1-1.1,1.9c0.5,4.5,0.3,9.1-0.5,13.6c-1.1,5.6-4.7,11.5-9.2,12
	c-0.9,0.2-1.9-0.2-2.4-1c-0.6-1-0.6-2.7-0.5-4.2c0.1-1.7,0-3.4-0.1-5c0.1-1.2-0.8-2.2-1.9-2.4c-1.1,0-2.1,0.8-2.2,1.9
	c-0.5,2.4-1.5,4.7-2.9,6.7c-3.7,4.6-9.4,5.9-13.8,3.2c-1.6-0.9-2.8-2.4-3.3-4.2c-0.6-2.4,0.1-5,0.8-7.6c0.1-0.4,0.2-0.8,0.3-1.2
	c1.8-7.5,1.6-15.4-0.6-22.9c-0.1-0.5-0.6-0.8-1.1-0.8c-0.6,0.1-1,0.7-0.9,1.3c0.2,7.7-1,15.4-3.5,22.8c-0.5,1.7-1.3,3.4-2.4,4.8
	c-0.8,0.9-2.2,1.8-3.4,1.1c-0.7-0.5-1.3-1.2-1.8-2c-0.6-1-1.4-1.9-2.4-2.4c-1.1-0.4-2.3,0.5-3.5,1.3c-0.6,0.6-1.4,1-2.3,1.2
	c-0.9,0-4.1-2.8-6.1-4.7c-0.4-0.8-0.7-1.6-1-2.4c-0.2-1.2-0.3-2.5-0.4-3.8c-0.3-4.8-0.1-9.6,0.5-14.4c0-0.3-0.2-0.5-0.4-0.5
	c-0.2,0-0.4,0.1-0.5,0.3c-2.9,5.4-3.8,11.6-2.6,17.6c-4.2-3.3-6.6-9.7-5.8-16.1c1-6.4,4.5-12.2,9.7-16.1c4.2-3.1,9.7-6.4,14.6-4
	l0.2,0.1c1,0.5,2.3,1.2,3.5,0.4c0.5-0.4,0.9-1,1.2-1.6l0.2-0.4c1.5-2.8,4.7-4,7-4.7c6.3-1.9,13.3-1.4,19.5-0.2
	c2.5,5.6,4.8,11.2,7.1,16.7c3.4,8.4,6.9,16.7,10.3,25h0c-2.5-8.3-5.3-16.5-8.5-24.6c-2.3-5.6-4.6-11.3-7-16.8c1.5,0.3,2.9,0.6,4.2,1
	c3.4,0.9,6.7,2,9.9,3.4c0.7,0.4,1.5,0.9,2.4,1.5c2.9,1.8,6.2,3.8,7.7,5.4c3.8,4.1,6.6,8.9,8.5,14.1c1.7,9.4-0.8,20.2-6.1,26.9
	C508.5,450.5,507.9,449.5,506.9,448.7L506.9,448.7z M322,423.6c-0.1-0.3-0.4-0.4-0.7-0.3c-0.2,0.1-0.3,0.3-0.3,0.5
	c0.1,4.8-0.3,9.6-1.1,14.3c-0.3,1.3-0.5,2.5-0.8,3.7c-0.4,0.8-0.8,1.5-1.3,2.3c-2.2,1.7-5.7,4.1-6.6,4c-0.6,0-1.4-0.8-2.1-1.5
	c-1.1-1-2.2-2.1-3.3-1.7c-1.1,0.4-2,1.2-2.7,2.1c-0.5,0.7-1.2,1.3-2,1.8c-1.3,0.5-2.6-0.5-3.3-1.5c-0.9-1.6-1.6-3.3-1.9-5
	c-1.7-7.6-2-15.3-0.9-23c0.1-0.6-0.2-1.2-0.8-1.4c-0.5-0.1-1,0.2-1.1,0.6c-3,7.1-4.1,15-3.1,22.7c0.1,0.4,0.1,0.8,0.2,1.3
	c0.4,2.6,0.8,5.3-0.1,7.6c-0.7,1.7-2,3.1-3.7,3.8c-4.6,2.2-10.1,0.3-13.3-4.7c-1.2-2.1-1.9-4.5-2.1-7c0-1.1-0.8-2.1-1.9-2.2
	c-1.2,0.1-2.1,1-2.2,2.2c-0.3,1.6-0.5,3.3-0.7,5l0,0.1c-0.1,1.5-0.2,3.1-1,4c-0.6,0.7-1.6,1-2.5,0.7c-4.4-1-7.2-7.3-7.7-13
	c-0.3-4.6,0-9.1,1-13.6c0.3-0.8-0.1-1.7-0.9-2c-0.7-0.2-1.3,0.2-1.5,0.8c-1.7,3.8-2,7.6-2.3,11.3c-0.1,2.6-0.5,5.3-1.1,7.8
	c-0.2,0.7-0.4,1.5-0.8,2.1c-0.5,0.8-1.5,1.1-2.4,0.7c-1-0.5-1.8-1.3-2.4-2.2c-5.3-7.2-6.9-19.1-4-28.8c2.4-5,5.8-9.5,10-13.1
	c1.6-1.4,5.1-3,8.2-4.5c0.9-0.4,1.8-0.8,2.5-1.2c3.3-1,6.7-1.8,10.2-2.3c6.2-0.8,13.7-1.4,20.8,0.2c-0.6,1.1-1.2,2.2-1.6,3.1
	c0.6-1,1.3-2,1.9-3c1.5,0.4,3,0.8,4.4,1.4c2.2,0.9,5.2,2.5,6.4,5.5l0.1,0.4c0.2,0.6,0.5,1.2,1,1.7c1,0.9,2.4,0.4,3.5,0l0.2-0.1
	c5.1-1.9,10.2,2,14,5.6c4.8,4.4,7.6,10.6,7.8,17.1c0.1,6.4-2.9,12.5-7.5,15.3C324.5,435.6,324.3,429.2,322,423.6z M294,327.8
	c5.5-3.8,11.2-7.3,17.1-10.4c0.7-0.1,1.3-0.3,2-0.4c-1.8,1.5-3.3,3.3-4.4,5.4c-0.1,0.2-0.1,0.5,0.2,0.7c0.2,0.1,0.4,0.1,0.6-0.1
	c1.4-1.3,3.2-2.1,5.1-2.4l-3.9,3.5c-0.2,0.2-0.2,0.5,0,0.7c0.2,0.2,0.4,0.2,0.7,0.1c1.9-1.3,4.2-1.8,6.4-1.4c-2.1,2-4.2,3.9-6.4,5.7
	c-0.2,0.2-0.2,0.5-0.1,0.7c0.2,0.2,0.4,0.2,0.6,0.1c3.2-1.9,7.3-1,10,0.5c2.7,1.6,5.2,3.6,7.3,5.8l1.1,1c0.6,0.5,1.2,1.1,1.8,1.6
	c-1.9,2.1-3.7,4.2-5.3,6.1c-1.5,1.8-2.9,3.5-4.4,5.3c-1.9-0.9-3.7-1.7-5.4-2.3c0.6-0.4,1.3-0.9,2.1-1.4c1.2-0.8,2.4-1.6,2.9-2
	c0.2-0.2,0.2-0.5,0.1-0.7c0,0,0,0,0,0c-3.1-3.1-11-2.3-13.6-2c-0.6-5.3-2.7-10.2-6.2-14.3c-0.2-0.2-0.5-0.2-0.7-0.1
	c-0.2,0.1-0.2,0.3-0.1,0.5c2.6,7.7-2.1,14.8-5.6,16.1h0c-0.3,0.1-0.4,0.4-0.3,0.7c0.1,0.2,0.4,0.4,0.6,0.3l0,0h0
	c4.8-1.8,9.2,0.2,13.9,2.4c-2,0.8-4.1,1.4-6.2,1.8c-0.3,0-0.5,0.3-0.4,0.6c0,0.2,0.2,0.4,0.4,0.4c4.8,0.6,8.6,3.7,12.5,7.1l0.3,0.2
	c-4,5.2-7.9,10.5-11.6,16c-1.4-1.4-3.2-2.4-5-3c-0.6-0.2-1.2-0.4-1.8-0.6c-1.3-0.4-2.7-0.9-3.9-1.5l6.7-0.7c0.3,0,0.5-0.3,0.4-0.6
	c0-0.2-0.1-0.3-0.3-0.4l-10-4.8c3.9-0.9,7.1-3.5,8.8-7.1c0.1-0.2,0.1-0.4-0.1-0.5c-0.1-0.1-0.3-0.2-0.5-0.2
	c-2.5,0.3-4.9,0.5-7.4,0.4c1.7-1,3.3-2.2,4.8-3.5c0.2-0.2,0.2-0.5,0-0.7c-0.1-0.1-0.2-0.1-0.3-0.2c-2.6-0.6-5.3-0.8-8-0.6
	c-0.6-0.1-1.3-0.1-1.9-0.2c3.4-3.2,5.7-7.4,6.5-12c0.2-1.5,0.4-3.1,0.4-4.7C293.6,331.1,293.8,329.5,294,327.8L294,327.8z
	 M290.7,290.2c0-0.6,0-1.1,0-1.7C290.6,289.1,290.6,289.7,290.7,290.2L290.7,290.2z M297.2,320.8c2.7-0.7,5.4-1.4,8.1-2.1
	c-3.6,2.1-7.2,4.4-10.7,6.7C295.3,323.7,296.1,322.2,297.2,320.8L297.2,320.8z M271.5,375.6c4.2-3.7,9.5-5.8,15.1-6
	c-1.6,1.7-2.9,3.7-3.6,5.9c-0.1,0.3,0,0.5,0.3,0.6c0.1,0,0.3,0,0.4,0c1-0.6,2-1.1,3-1.4c-1.4,3.1-1.7,7.4-2,11.1
	c-0.1,1.1-0.1,2.1-0.2,3.1c-5.3,0-10.6,0.4-15.8,1.3c-2.4,0.4-4.7,1-7,1.7C264.2,386,267.5,380.5,271.5,375.6L271.5,375.6z
	 M298.2,384.3c-0.8,0.2-1.7,0.5-2.7,0.7c-0.8,0.2-1.6,0.4-2.3,0.6c2-3.3,7.6-6,7.7-6.1c0.2-0.1,0.4-0.4,0.2-0.7
	c-0.1-0.2-0.3-0.3-0.5-0.3c-2.6,0.2-5.3,0.6-7.9,1.2c2.5-2.6,6.8-3.6,10.3-4.2c0.2,0,0.4,0.1,0.6,0.1
	C301.8,378.5,299.9,381.4,298.2,384.3L298.2,384.3z M441.3,400.9c-0.6-1-1.3-2.2-1.9-3.3l8.8,2.5c-1.1,0.3-2.3,0.5-3.5,0.5
	C443.6,400.6,442.4,400.8,441.3,400.9L441.3,400.9z M520.2,355c-0.9-2.7-2.4-5.1-4.2-7.3c1.8,1.3,3.7,2.7,5.5,4
	C521.1,352.9,520.7,354,520.2,355z M491.8,328.9c0.1,0.2,0.4,0.3,0.6,0.2c0.2-0.1,0.3-0.3,0.3-0.5c0.3,0.1,0.5,0.1,0.8,0.2
	c9.4,2.5,18.6,5.3,27.8,8.5c1.1,4.2,1.3,8.5,0.5,12.8c-10.3-8-21.3-15.1-32.8-21.3c-1.4-0.7-2.9-1.5-4.5-2.3
	c2.3,0.5,4.5,1.1,6.8,1.7C491.5,328.4,491.7,328.7,491.8,328.9z M455.5,391.5c-0.3-0.1-0.5,0.1-0.6,0.3c-0.1,0.2,0,0.3,0.1,0.5
	c1,1.3,2.3,2.4,3.7,3.2c-0.9,0.4-1.7,0.7-2.5,1.1c-9.2-0.4-18.3-2.8-26.5-7.1c-0.2-0.1-0.5,0-0.7,0.2c-0.1,0.2-0.1,0.4,0,0.5
	c0.4,0.5,0.9,1.6,1.4,2.6c0.2,0.5,0.5,0.9,0.7,1.4c-2-1.2-4.3-3.8-6.2-6c-1-1.1-1.9-2.2-2.7-2.9c-0.2-0.2-0.5-0.2-0.7,0
	c-0.1,0.1-0.2,0.3-0.1,0.4c0.2,1.3,0.2,2.7,0.2,4c0,0.9,0,1.8,0.1,2.5c-0.6-0.6-1.5-1.2-2.4-1.9c-2.1-1.6-4.5-3.5-5.5-5.7
	c-0.1-0.3-0.4-0.4-0.7-0.3c-0.2,0.1-0.3,0.3-0.3,0.5c0,6.8,6.5,14.5,13.5,16.3c0.2,0,0.4,0,0.5-0.1c0.1-0.1,0.2-0.3,0.1-0.5
	c-0.2-0.7-0.6-2-1-3.2c-0.2-0.8-0.5-1.5-0.7-2.1c4,1.7,9.7,4.7,13.2,6.6c-3.1,1.2-6,2.8-8.6,4.9c-4.6,3.3-7.7,8.4-8.6,14h-87.2
	c-0.1-0.1-0.3-0.2-0.4-0.3c-0.6-5.2-3-10.1-6.9-13.6c-6.8-6.5-10.8-7.1-14-7.6c-1.3-0.1-2.5-0.5-3.7-1c-2-1-4-2.2-5.9-3.5
	c-2.3-1.6-4.8-2.9-7.4-3.9c1.3-1.9,2.6-3.9,3.6-6c0.1-0.2,0.1-0.4-0.1-0.6l0,0c1.9-2.8,3.7-5.5,5.6-8.3c0.2,0,0.5,0.1,0.7,0.1
	c0.2,0,0.4,0,0.5-0.2c0.1-0.2,0.1-0.4,0.1-0.5c-0.1-0.2-0.3-0.5-0.4-0.7c3.8-5.5,7.7-10.8,11.8-16.1c2.5,2.3,5.4,4.1,8.6,5.5
	l-4.3,0.6c-0.3,0-0.5,0.3-0.4,0.6c0,0.1,0.1,0.3,0.2,0.4c2.8,1.7,6.1,2.8,9.4,2.9c-2.5,0.7-5.1,1.1-7.6,1.4c-0.3,0-0.5,0.3-0.4,0.5
	c0,0.2,0.1,0.3,0.3,0.4c6.6,3.1,19.2,0.7,24-0.4c-0.4,0.4-0.8,0.7-1.3,1.1c-1,0.9-2,1.8-2.8,2.5c-0.2,0.2-0.2,0.5-0.1,0.7
	c0.1,0.1,0.2,0.2,0.4,0.2c0.1,0,0.1,0,0.2,0c1.7-0.6,4-1.2,6.2-1.8c2.2-0.6,4.5-1.2,6.3-1.8c1.1-0.3,2.1-0.8,2.8-1.7
	c0,0,0.1-0.1,0.1-0.1c0.2-0.1,0.3-0.5,0.2-0.7c-0.1-0.2-0.4-0.3-0.7-0.2c-2.1,1-4.5,1.1-6.7,0.5c0.2-0.4,0.5-0.8,0.8-1.3
	c0.3-0.6,0.7-1.2,1.1-1.8c0.2-0.2,0.1-0.5-0.1-0.7c-0.1-0.1-0.3-0.1-0.4-0.1c-1.5,0.3-3.1,0.8-4.7,1.2c-2.2,0.7-4.5,1.2-6.8,1.7
	c0.1-0.1,0.2-0.2,0.3-0.3c0.3-0.2,0.5-0.4,0.8-0.6c1.2-0.9,3.4-4.4,3.6-4.8c0.1-0.2,0.1-0.5-0.2-0.7c-0.1-0.1-0.3-0.1-0.4-0.1
	c-0.1,0-9.2,2-20.9-5.4c0.7-0.2,1.4-0.3,2.1-0.3c1.2,0,2.3-0.2,3.4-0.8c0.2-0.2,0.3-0.5,0.1-0.7c-0.1-0.1-0.1-0.2-0.2-0.2
	c-1.8-0.7-3.9-1.7-6.1-2.8c-0.3-0.1-0.6-0.3-0.9-0.4c3.1-3.8,6.2-7.5,9.5-11.2c1.5,1.2,3.1,2.2,4.8,3c-1.5,0.3-3,0.5-4.5,0.5
	c-0.3,0-0.5,0.2-0.5,0.5c0,0.2,0.1,0.4,0.3,0.4c7.5,3.6,15.6,5.4,23.9,5.4c0.4,0,0.8,0,1.2,0c2.8,1.3,5.6,2.5,8.4,3.6
	c2.5,1,5.1,1.7,7.7,1.9c-0.9,0.5-1.6,1.2-2.3,1.9c-0.2,0.2-0.2,0.5,0,0.7c0.1,0.1,0.2,0.1,0.3,0.1c4.7,0.7,9.5,0.4,14.1-0.9
	c6.3,6.3,14.6,10.2,23.4,11.1c5.8,2.9,12.1,4.8,18.6,5.6c-1.3,0.3-2.6,0.4-3.9,0.2c-0.2,0-0.4,0.1-0.5,0.3c-0.1,0.2,0,0.4,0.1,0.6
	c2.8,2.5,6.8,2.7,9.7,2.4c1.6-0.2,3.1-0.5,4.6-0.8c1.7-0.4,3.4-0.6,5.1-0.8c6.9-0.5,14.4,2.2,22.9,8.3c0.2,0.2,0.5,0.1,0.7-0.1
	c0.1-0.2,0.1-0.4,0-0.5c-0.2-0.4-0.4-0.8-0.6-1.2c-1.1-2.6-2.7-4.9-4.7-6.9l0.7,0.1c2.4,0.4,4.8,1,7.1,1.9c2.7,4.9,5.2,9.9,7.6,15
	C470.1,394,462.5,393.7,455.5,391.5L455.5,391.5z M333.9,335.9c-0.2-0.1-0.4-0.2-0.6-0.3c-0.4-0.2-0.9-0.4-1.4-0.6
	c0.3-0.1,0.7-0.1,1-0.2c1.3-0.2,2.6-0.4,3.4-0.6c-0.6,0.7-1.3,1.4-1.9,2.1C334.3,336.1,334.1,336,333.9,335.9L333.9,335.9z
	 M316.5,314.6L316.5,314.6c0.1,0,0.2-0.1,0.3-0.1C316.7,314.5,316.6,314.6,316.5,314.6z M297.3,266c0.5-1.1,1-2.3,1.6-3.3
	c1.5,0.3,3,0.6,4.5,0.8C301.2,264,299.2,264.8,297.3,266z M555.2,277.2c-0.1-0.2-0.3-0.3-0.5-0.3c-0.2,0-0.4,0.2-0.4,0.4l-2.1,16
	l-2.2-5.8c-0.1-0.3-0.4-0.4-0.6-0.3c-0.2,0.1-0.4,0.3-0.3,0.6c0.8,3.8,0.1,7.9-2,11.2c-0.5,0.8-1,1.6-1.4,2.4c-0.3,0.5-0.5,1-1.1,2
	c-0.2,0.4-0.5,0.8-0.8,1.2c-1,1.3-1.7,2.8-2.1,4.4c-0.9-2.1-1.3-4.2-1.4-6.5c0-0.3-0.2-0.5-0.5-0.5c-0.3,0-0.5,0.2-0.5,0.5
	c-0.2,3.7-0.3,10.3,0.8,14.7c-0.3-0.3-0.6-0.5-0.9-0.8c-0.8-0.7-1.6-1.5-2.3-2.3c-0.2-0.2-0.5-0.2-0.7-0.1c-0.2,0.1-0.2,0.4-0.1,0.6
	c0.6,1.5,1,3,1.2,4.7c-1.3-0.4-2.6-0.8-3.9-1.2c-0.8-2.8-1.4-5.6-1.9-8.5l-0.2-1.6c-0.5-4-1.1-8-2.9-11.6l1.9,1.2
	c0.2,0.2,0.5,0.1,0.7-0.1c0.1-0.1,0.1-0.3,0-0.5c-2.4-6.5-6.8-12-12.5-15.9c-0.2-0.2-0.5-0.1-0.7,0.1c-0.1,0.2-0.1,0.4,0,0.5
	c1.4,2.4,2.5,5,3.2,7.7l-2.4-1.7c-0.1-0.1-0.3-0.2-0.5-0.3c-0.2-0.1-0.5-0.1-0.7,0.2c-0.1,0.2-0.1,0.5,0.1,0.7l0.4,0.3
	c0.8,0.7,1.4,1.6,1.6,2.6l-5.8-3.5c-0.2-0.1-0.5-0.1-0.7,0.2c-0.1,0.2-0.1,0.5,0.1,0.6c4.4,4.4,7.5,10.8,9.1,18.4
	c0.5,2.7,0.9,5.5,1.1,8.3c-4.7-1.3-9.6-2.6-14.4-3.8l-0.1-0.1c-1.4-2.4-2.9-5.1-6.4-5.8c-3.3-0.7-6.7-0.8-10.1-0.4
	c-0.3,0-0.5,0.3-0.5,0.5c0,0.3,0.3,0.5,0.5,0.5c1.8,0,3.6,0.4,5.4,1.1c-1.6-0.1-3.1,0.2-4.6,0.7c-0.1,0-0.1,0.1-0.2,0.2
	c-9.6-1.7-19.3-2.6-29.1-2.6l1.2-0.4c0.3-0.1,0.4-0.4,0.3-0.6c-0.1-0.2-0.2-0.3-0.4-0.3c-6.8-0.6-12.9-4.2-16.8-9.8
	c-0.2-0.2-0.5-0.3-0.7-0.1c-0.1,0.1-0.2,0.3-0.2,0.5c0.2,2.3,1.4,4.5,3.1,6c-0.9,0-1.7,0.2-2.6,0.4c-0.2,0.1-0.4,0.3-0.3,0.6
	c0,0.3,0.3,0.4,0.5,0.4c3.1-0.3,5.9,1.6,8.1,3.7c-8.4,0.6-16.7,2.4-24.6,5.5c8.6-2.2,17.4-3.5,26.3-3.7l0,0l0.6,0.6
	c2.6,2.9,5.3,6,9.2,6.8c0.3,0.1,0.5-0.1,0.6-0.4c0-0.2,0-0.4-0.2-0.5c-0.9-0.6-1.7-1.3-2.4-2.1c2,1,4.2,1.9,6.4,2.5c1,0.3,2,0.6,3,1
	c5.9,2.1,11.1,5.8,15,10.7c-3.7-0.9-7.4-1.8-11.1-2.6c-3.9-1.9-8.2-3.8-12.5-5.4c-1.6-2-3.6-3.8-5.8-5.2c-0.2-0.2-0.5-0.1-0.7,0.1
	c-0.1,0.2-0.1,0.4,0,0.6c0.7,0.9,1.3,1.9,1.9,2.9c-8.3-2.6-16.4-3.7-22.7-0.9c6.1-2.3,15.4,0,23.8,3.1c0.4,0.9,0.8,1.8,1.1,2.7
	c-8.4-0.7-16.8,0-25,2c8.4-1.2,17-1.3,25.5-0.5c1.7,6,1.4,12.4-1,18.2c-6.9-4.9-14.6-8.7-22.7-11.3c7.9,3,14.9,7.8,21.9,12.5
	l0.2,0.1c-0.1,0.3-0.3,0.6-0.4,0.8c-0.1,0.2-0.1,0.5,0.1,0.6c0.1,0.1,0.2,0.1,0.3,0.1c0.1,0,0.3-0.1,0.4-0.2
	c0.2-0.2,0.4-0.5,0.6-0.7c9.5,6.8,18.4,14.4,26.5,22.8c0.9,0.9,1.9,1.9,2.8,2.9c0,2.4,0.3,4.8,1.1,7.1c1.6,4.4,4,8.4,7.1,11.9
	c-3.1-0.3-6.1-1.5-8.7-3.4c-0.2-0.2-0.5-0.1-0.7,0.1c-0.1,0.2-0.1,0.4,0,0.6l1,1.6c-3-0.5-5.8-1.8-8-3.9c-0.2-0.2-0.5-0.2-0.7,0
	c-0.2,0.2-0.2,0.5,0,0.7l5.6,6.6c-2.7-0.9-5.2-2.1-7.7-3.5c-1.3-0.7-2.7-1.5-4.2-2.2c-0.2-0.1-0.5,0-0.7,0.2c-0.1,0.1-0.1,0.3,0,0.5
	c0.5,1,1,2.1,1.4,3.2c0.4,1,0.8,2.1,1.3,3c-0.4,0.1-0.7,0.2-1.1,0.3c-2.1-4.5-4.3-8.9-6.6-13.2c0.1,0.1,0.3,0.2,0.4,0.3
	c0.2,0.2,0.5,0.1,0.7-0.1c0.1-0.2,0.1-0.4,0-0.5c-1.1-1.8-2.5-3.4-4-4.8l0,0c1.2,0.7,2.6,1.5,4.5,2.7c0.2,0.1,0.5,0.1,0.7-0.2
	c0.1-0.2,0.1-0.4,0-0.6c-2.5-3.5-5.7-6.5-9.2-8.9c-4.4-7.1-9.3-13.9-14.7-20.3c-8.2-9.5-17.6-18.8-29.6-23.3
	c9.4,4.6,16.6,11.9,23.9,19.5c6.4,6.9,12.1,14.3,17.2,22.3c-0.9-0.5-1.9-1-2.9-1.4c-0.3-0.1-0.5,0-0.6,0.3c-0.1,0.2,0,0.4,0.1,0.6
	c1.2,1,2.2,2.2,2.9,3.7c-2.5-1.1-5.2-1.6-7.9-1.5c-0.3,0-0.5,0.3-0.4,0.6c0,0.1,0.1,0.3,0.2,0.3l3.8,2.7c-5.9,1.1-12,0.4-17.5-2
	c-0.3-0.1-0.5,0-0.7,0.3c-0.1,0.2-0.1,0.4,0.1,0.5l1.8,2.2c-9.7-0.5-19.2-2-28.6-4.6c-5.4-3.4-10.2-7-12.2-12.3
	c-0.1-0.2-0.3-0.3-0.5-0.3c-0.2,0-0.4,0.2-0.4,0.5c-0.1,1.9,0.4,3.8,1.4,5.4c-5-3-9.4-7-12.9-11.7c-0.6-0.9-1.3-2-1-2.9
	c0.1-0.3-0.1-0.5-0.3-0.6c-0.2-0.1-0.4,0-0.5,0.1c-2.2,2-4.7,3.6-7.4,4.7c0.8-1.7,1.8-3.1,3.2-4.4c0.2-0.2,0.2-0.5,0-0.7
	c-0.1-0.2-0.4-0.2-0.5-0.1l-10.4,3.9l2.6-4.2c0.1-0.2,0.1-0.5-0.2-0.7c-0.1-0.1-0.3-0.1-0.5,0c-3.1,1.5-6.6,2-10,1.4
	c-0.2,0-0.3,0-0.5,0.2c-0.1,0.1-0.2,0.3-0.1,0.5c0.3,1,1.1,1.9,2.1,2.2c-3.2,0.5-6.5,0.4-9.6-0.2c0,0,0,0-0.1,0
	c-6.2-1.8-11.9-4.6-17.1-8.4l-0.5-0.4c-0.4-0.3-0.9-0.6-1.3-0.9c0.2-0.3,0.5-0.5,0.7-0.8c3.2-3.4,6.5-6.7,9.9-9.9
	c0.4,0.7,0.9,1.3,1.4,2c1.5,1.8,3.5,3,5.8,3.6c-0.9,0.5-2,0.8-3,0.9c-0.3,0-0.5,0.3-0.4,0.5c0,0.2,0.2,0.4,0.4,0.4
	c1.5,0.3,3,0.3,4.4,0l-0.7,0.6c-0.4,0.3-0.7,0.8-0.7,1.3c0,0.3,0.2,0.6,0.5,0.8c0.6,0.2,1.3,0.2,1.9-0.1c1.1-0.5,2.1-1.1,3.1-1.8
	l-1.2,2.8c-0.1,0.3,0,0.5,0.3,0.7c0.2,0.1,0.4,0,0.6-0.1c3.8-4,9.1-6.2,14.6-5.9c0.3,0,0.5-0.2,0.5-0.5c0-0.3-0.2-0.5-0.5-0.5
	c-1.5-0.1-3-0.2-4.5-0.2c0.3-0.2,0.7-0.5,0.9-0.8c0.1-0.2,0.1-0.4,0-0.6c-0.1-0.2-0.3-0.3-0.5-0.3c-3.9,0.5-8.9,0.8-13.8-0.5
	c-2.7-0.7-5.3-2-7.4-3.9c1.1-1,2.3-2,3.5-3c0.3-0.2,0.7-0.5,1.1-0.8c0,0,0,0.1,0,0.1c0.1,0.3,0.4,0.4,0.6,0.3
	c0.2-0.1,0.3-0.2,0.3-0.4l0-0.3c0.1,0.3,0.3,0.5,0.5,0.6c0.3,0.1,0.6,0.1,0.8-0.1c0.2-0.2,0.4-0.4,0.5-0.7c0.5,0.6,1.2,1,1.9,1
	c0.1,0,0.1,0,0.2,0c1-0.1,1.9-0.4,2.7-0.9l0.4-0.2c2.8-1.3,6-1.7,9-1.1c0.3,0.1,0.5-0.1,0.6-0.4c0-0.2-0.1-0.5-0.3-0.6
	c-1.8-0.8-3.9-0.9-6.6-0.2c-0.7,0.2-1.4,0.4-2.1,0.6c-1.2,0.4-2.4,0.7-3.7,1c-0.3-0.7-0.4-1.4-0.5-2.1c0.9-0.6,1.9-1.1,2.9-1.5
	c-1,0.3-1.9,0.7-2.9,1.2c0-0.1,0-0.2,0-0.3c0-0.3-0.2-0.5-0.5-0.5c-0.2,0-0.4,0.1-0.5,0.4l0,0.2c-0.4-0.3-0.9-0.5-1.4-0.6
	c-0.3,0-0.6-0.1-0.9-0.1c-0.4,0-0.8-0.1-1.2-0.1c0-0.3,0-0.5-0.1-0.8c0-0.3-0.2-0.5-0.5-0.5c-0.1,0-0.1,0-0.2,0
	c-0.7,0.3-0.8,0.8-0.8,1c0.1,0.4,0.3,0.7,0.6,0.9c0.1,1,0.3,2,0.6,3c-1.8,1.1-3.5,2.4-5.2,3.7c-0.9-0.9-1.7-2-2.3-3.2
	c-0.1-0.2-0.4-0.3-0.7-0.2c-0.2,0.1-0.3,0.4-0.2,0.6c0.5,1.4,1.1,2.7,1.7,4c-3,2.6-5.9,5.3-8.6,8.2c0-0.1-0.1-0.2-0.2-0.3
	c-3.7-2.3-7.8-4-12.1-4.9c0.5-1.2,4.1-2.7,5.9-3.5c0.8-0.3,1.4-0.6,1.8-0.8c0.2-0.1,0.3-0.4,0.2-0.7c-0.1-0.1-0.2-0.2-0.3-0.2
	c-3.9-1.4-8.5-0.3-10.6,0.4c1.4-2.7,3.4-6.1,4.4-6.5c0.3-0.1,0.4-0.4,0.3-0.6c-0.1-0.2-0.2-0.3-0.4-0.3c-3.3-0.5-6.6-0.2-9.8,0.7
	c0.1-0.1,0.2-0.2,0.3-0.3c4.2-0.8,8.5-1.5,12.8-2.2c8.3-1.2,16.7-1.8,25.1-2c5.4-0.3,11,0.3,16.3-0.5c-3.6,0.2-7.2-0.4-10.9-0.5
	c-6.2-0.4-12.5-0.4-18.7,0.1c-7.8,0.6-15.5,1.6-23.2,3.1c0,0,0,0,0,0c-0.1-0.2-0.3-0.2-0.5-0.2c5.9-2.9,12-5.3,18.3-7.3
	c0.7-0.2,1.4-0.4,2.1-0.6c0.1,1,0.2,2,0.4,3c0.1,0.2,0.3,0.4,0.5,0.4h0.1c0.3,0,0.4-0.2,0.4-0.5c0-1.1,0.1-2.2,0.3-3.3
	c5.8-1.4,11.7-2.3,17.7-2.8c7.1-0.6,14.4-0.8,21.4,0.6c-9.1-2.8-18.9-2.6-28.3-1.5c-3.5,0.5-7,1.1-10.5,2c1.4-6.3,4.8-11.9,9.7-16
	c1.6,0.3,3.2,0.6,4.8,0.9c7.6,1.8,15.5,3,22.7,6.3c-5.5-3.3-11.8-4.9-17.9-6.6c-2.6-0.7-5.3-1.3-8-1.8c1.3-0.9,2.7-1.7,4.2-2.4
	c0.2-0.1,0.3-0.3,0.3-0.6c-0.1-0.2-0.3-0.4-0.5-0.4c-3.1,0.3-6.3,0.8-8.7,2.5c-4.7-0.8-9.4-1.3-14.1-1.7c0,0,0-0.1,0.1-0.2
	c0-0.2-0.1-0.4-0.3-0.5l-1.8-1c6.4,0.7,18.3,0.5,24.9-3.2c8.2,4,15.9,8.8,23.1,14.4c-6.3-6.1-13.5-11.3-21.3-15.3
	c1-0.5,2-1.1,2.9-1.7c0.2-0.2,0.3-0.5,0.1-0.7c-0.1-0.2-0.4-0.3-0.6-0.2c-0.5,0.2-1,0.3-1.5,0.4c0.9-0.6,1.8-1.3,2.6-2
	c0.2-0.2,0.2-0.5,0-0.7c-0.1-0.1-0.4-0.2-0.6-0.1c-2.7,1.2-5.5,2-8.4,2.5c-10.1-4.5-20.6-7.9-31.3-10.4l0.1,0
	c6.9-1.3,13.4,0.7,17.5,2.6c0.3,0.1,0.5,0,0.7-0.3c0.1-0.2,0-0.5-0.2-0.6c-4.2-2.1-8.6-3.7-13.2-4.8c1,0,2.1,0.1,3.1,0.1l1.2,0
	c0.3,0,0.5-0.2,0.5-0.5c0-0.2-0.1-0.4-0.3-0.5c-5-2.7-11-3.2-16.3-1.2c-0.3,0.1-0.4,0.4-0.3,0.6c0.1,0.2,0.3,0.3,0.5,0.3
	c1.5-0.1,2.9,0,4.4,0.1c-1.4,0.7-2.7,1.6-4,2.6c-2.4-0.5-4.8-1-7.2-1.5c-2.4-0.5-4.8-0.9-7.3-1.3c1.7-2.6,3.8-4.9,6.2-6.8l0.3-0.2
	c1.5-0.8,3-1.7,3.9-2.2c0.2-0.1,0.3-0.3,0.2-0.5c0.6-0.3,1.2-0.6,1.8-0.8c0.2-0.1,0.4-0.4,0.3-0.6c-0.1-0.2-0.3-0.4-0.6-0.4
	l-8.8,1.4c4.9-4,15.2-5.6,15.3-5.6c0.3,0,0.5-0.3,0.4-0.6c0-0.3-0.3-0.5-0.5-0.4c0,0,0,0,0,0c-2.4,0.2-6.3,0-7.1-1.3
	c1.9-1.2,4.9-1.9,8.1-2.6c4.9-1.1,10.5-2.4,13.3-5.9c0.2-0.2,0.1-0.5-0.1-0.7c-0.1-0.1-0.4-0.1-0.5-0.1c-2.1,1-4.5,1.3-6.7,0.7
	c5.8-6.5,11.8-3.1,17.2,0c0.2,0.1,0.5,0.1,0.7-0.2c0.1-0.1,0.1-0.2,0.1-0.3c-0.2-1.4-2.9-4.8-6.6-6.9c-2.3-1.3-5.7-2.5-9.3-1
	c-5.9,2.5-12.1,4.4-18.4,5.6c-1.5,0.3-3,0.7-4.3,1c-0.3,0.1-0.4,0.3-0.3,0.6c0.1,0.2,0.2,0.3,0.4,0.4l7.6,0.7
	c-0.4,0.2-0.8,0.3-1.2,0.5c-1.9,0.9-3.9,1.6-5.9,2.1c-1.7,0.4-3.3,1-4.9,1.7c-2.6-1.9-4.1-5.1-4-8.3c0.6,1.5,1.4,3,2.3,4.3
	c0.2,0.2,0.5,0.3,0.7,0.1c0.2-0.1,0.2-0.3,0.2-0.5c-0.6-2.9-0.5-6,0.3-8.9c0.5,0.5,1.1,0.8,1.8,1c1,0.3,2.1,0.1,3-0.4
	c0.2-0.1,0.3-0.5,0.2-0.7c-0.1-0.1-0.2-0.2-0.3-0.2c-2.4-0.6-4-3.1-4.4-5.4c-0.3-2.5-0.1-5.1,0.5-7.6l0.1-0.3
	c0.4-1.7,0.7-3.4,0.8-5.1c0.1-0.6,0.2-1.2,0.3-1.9c0.5,0.6,1,1.2,1.7,1.6c0.2,0.1,0.5,0.1,0.7-0.1c0,0,0-0.1,0-0.1
	c1.2-3.1,0.6-6.6-1.3-9.3l1.7-0.3c0.1,0,0.1,0,0.2,0c0,0,0.1,0,0.1,0c0.1,0,0.2-0.1,0.3-0.2l1-0.2c0.3,0,0.5-0.3,0.4-0.6
	c0-0.2-0.1-0.3-0.3-0.4c-2.1-1-3.8-2.6-4.8-4.6c-0.5-1.4-0.8-2.8-0.8-4.3c0.1-3.6,1.3-7.2,3.4-10.1c0.5-0.8,1.1-1.6,1.6-2.3
	c1.6-2.2,3.2-4.4,3.9-7c0.8-3,0.2-6.2-0.4-9.2l-0.1-0.8c-0.5-2.7-0.8-5.3-1.1-8c1.6-0.3,3.1-0.6,4.7-0.8c0.4,3.3,1,6.5,1.9,9.7
	c0.1,0.2,0.2,0.3,0.4,0.4c4.6,0.7,9.3,0.8,14,0.1c-2.9,2.3-5.5,5-7.7,8.1c-2.3,3.6-9.2,14.9-9.2,15c-0.1,0.2-0.1,0.5,0.2,0.7
	c0.1,0,0.2,0.1,0.3,0.1c0.1,0,0.2,0,0.3-0.1c0.1-0.1,12.7-7.4,15-8.5c7.9-3.8,20.6-6.4,20.7-6.5c0.3-0.1,0.4-0.3,0.4-0.6
	c0-0.3-0.2-0.5-0.5-0.4c0,0,0,0,0,0c-0.7,0-14.9,0.9-23.6,4.8c5.1-3.7,13.9-7.6,18.5-9.2c0.3-0.1,0.4-0.4,0.3-0.6
	c-0.1-0.2-0.3-0.4-0.5-0.3c-5.3,0.5-10.4,1.8-15.3,3.7c4.6-4.2,10.8-6.3,17-5.8c6.3,0.4,12.8,2.9,19.3,7.5c1.4,0.9,2.6,2.1,3.6,3.5
	c0.1,0.2,0.4,0.3,0.7,0.2c0.2-0.1,0.3-0.4,0.2-0.6c-2.7-7.5-7.9-13.9-14.8-18c2.5,0.9,5,2,7.4,3.2c1.5,1.3,2.9,2.7,4.4,4.2
	c1.9,2.1,4.1,4.1,5.5,6.7c-1.6-3.2-3.7-6.2-6.1-8.9c1.2,0.7,2.4,1.4,3.7,2.2c2.8,1.9,5.7,3.9,7.4,6.8c-2.7-5.5-9.2-10.2-15.7-13.6
	c-3.7-3.2-7.6-6.1-11.9-8.5c-1.3-0.8-2.6-1.5-4-2.2c3.1-0.5,6.2-0.7,9.3-0.5c0.2,0,0.4-0.1,0.5-0.3c0.1-0.2,0.1-0.4-0.1-0.6
	c-2.3-2.4-6-3.3-11.5-2.6c-1.6,0.2-3.2,0.5-4.7,0.8c-2-0.8-4-1.6-6-2.4c0.2-0.1,0.5-0.2,0.7-0.3c0.3-0.1,0.4-0.4,0.3-0.6
	c-0.1-0.2-0.3-0.4-0.6-0.3c-0.8,0.2-1.5,0.4-2.3,0.6c-0.6-0.2-1.2-0.4-1.8-0.6c2.4-1.5,4.9-2.6,7.6-3.4c0.3-0.1,0.4-0.3,0.3-0.6
	c0-0.1-0.1-0.2-0.2-0.3c8,1,15.8,2.7,23.5,5.1c4.9,1.7,19.5,6.2,20,11.9c0.2-5.1-11.5-10.4-15.7-12c-10.6-3.9-21.7-6.3-32.9-7.3
	c12-6,26.3-4.8,37.1,3.1c0.2,0.2,0.5,0.1,0.7-0.1c0.1-0.1,0.1-0.3,0.1-0.5c-1.3-3.2-4.2-5.7-8.9-7.8c-8.2-3.7-17.4-4.8-26.3-3.2
	c6.4-2.2,13.2-2.7,19.8-1.3c0.3,0.1,0.5-0.1,0.6-0.4c0-0.2,0-0.3-0.1-0.5c-1.9-1.9-4.6-3.1-8.4-3.8c-6.8-1.2-13.8-0.3-20.2,2.3
	c4.5-4.6,10.2-7.6,16.5-8.7c0.3,0,0.5-0.3,0.4-0.6c0-0.2-0.1-0.3-0.3-0.4c-0.1,0-0.1,0-0.2-0.1c4.8,1.1,9.4,2.7,13.9,4.7
	c2.6,1.1,5.1,2.4,7.6,3.8c2.3,1.5,4.8,2.8,6.4,5c-1.4-2.3-3.7-3.8-5.8-5.4c-3-2.1-6.3-4-9.6-5.5c-4.5-2.1-9.3-3.7-14.2-4.8
	c2.5-0.4,5.1-0.6,7.6-0.7c5.5,0.1,12.1,0,16.5,3.7c-3.6-3.8-9.3-4.6-14.2-5.2c-4.9-0.3-9.8,0-14.7,0.9c-0.1-0.2-0.2-0.3-0.4-0.3
	c-1.2-0.2-2.4-0.1-3.5,0.1c-0.1,0-0.2,0-0.3,0c1.3-1.1,2.7-2.1,4.1-2.9c1.5-0.9,2.9-1.8,4.2-3c0.1-0.1,0.2-0.3,0.2-0.4
	c4.6-0.2,9.3,0.5,13.7,2c0.2,0.1,0.4,0,0.6-0.2c0.1-0.2,0.1-0.4,0-0.6c-5.4-7-14.1-10.6-22.9-9.8l9.3-5.7c0.4-0.2,0.7-0.5,0.9-0.8
	c0.2-0.4,0.2-0.9,0-1.3c-0.2-0.5-0.7-1-1.3-1.1c-0.8-0.2-1.7-0.1-2.5,0.2l-5.7,1.7c2.9-2.3,6.6-3.5,9.9-4.6c0.3-0.1,0.4-0.4,0.3-0.6
	c0-0.1-0.2-0.3-0.3-0.3c-0.8-0.3-1.6-0.5-2.5-0.6c3.8-1.3,7.6-2,11.1-0.9c0.3,0.1,0.5-0.1,0.6-0.3c0.1-0.2,0-0.5-0.2-0.6
	c-3-2.1-6.5-3.4-10.2-3.8c-10.2-0.6-14.3,8.9-16.1,13l-0.3,0.7c-0.8,1.8-3.4,9.9-6.1,19.1c-1.4,0-2.7,0-4,0
	c4.2-12.7,9.7-24.9,16.5-36.4c0.8-0.9,1.7-1.8,2.7-2.6c2.7-2.3,6.3-3.4,9.9-3.1c3.8,0.5,7,3.1,9.1,5c9.2,8.3,15,19.6,20.7,30.4
	c2.2,4.3,4.5,8.6,7,12.9c8.3,18.1,19.9,34.4,34.3,48.1c0.2,0.2,0.4,0.2,0.6,0.1l3.8-2.5l-1.5,2.9c-0.1,0.2,0,0.5,0.2,0.7
	c0.2,0.1,0.4,0.1,0.5,0c2.5-1.7,5.2-3.1,8.1-4l-3.3,15.5c-0.1,0.3,0.1,0.5,0.4,0.6c0.2,0,0.4-0.1,0.5-0.3l3.3-6.1l0.5,1.6
	c0.1,0.3,0.4,0.4,0.6,0.3c0.2-0.1,0.4-0.3,0.3-0.6c-0.4-3.4,2-6.6,5.5-7c3.4-0.4,6.6,2,7,5.5c0.3,2.1-0.6,4.2-2.2,5.6
	c-0.2,0.2-0.3,0.5-0.1,0.7c0.1,0.2,0.3,0.2,0.5,0.2c0.3-0.1,0.6-0.2,0.9-0.3l-6.1,20c-0.1,0.3,0.1,0.5,0.3,0.6c0.1,0,0.3,0,0.4-0.1
	c0.5-0.3,1-0.7,1.3-1.1l-4,19c-0.1,0.3,0.1,0.5,0.3,0.6c0.3,0.1,0.5-0.1,0.6-0.3c3.6-9.1,9.4-17.1,16.9-23.4
	c-1.7,2.5-2.9,5.3-3.6,8.2c-0.1,0.3,0.1,0.5,0.4,0.6c0.2,0,0.4,0,0.5-0.2c7.5-9.7,17.6-17.1,29.2-21.2l-3,4.4
	c-0.2,0.2-0.1,0.5,0.1,0.7c0.1,0.1,0.3,0.1,0.5,0l3.5-1.5c-5.1,5.7-8.7,12.6-10.5,20.1c-0.1,0.3,0.1,0.5,0.4,0.6
	c0.2,0.1,0.4,0,0.5-0.2c2.9-4.4,5.9-8.9,10-12.2s9-4.8,13.3-4.2l-3.5,2.4c-0.2,0.2-0.3,0.5-0.1,0.7c0.1,0.1,0.2,0.2,0.3,0.2
	c3.9,0.5,7.8,0,11.4-1.6l-1.1,2.8c-0.1,0.3,0,0.5,0.3,0.6c0.2,0.1,0.4,0,0.5-0.1c6-5.3,13.9-7.6,21.7-9.8c1.5-0.4,2.9-0.8,4.4-1.3
	c12.9-3.9,25.1-9.7,36.3-17.3c1.3-0.7,2.6-1.4,4-2.1c7.7-4,14.1-6.2,20.1-6.9c7.7-0.9,14.8,0.7,20.1,4.5c3.8,2.8,6.6,6.8,7.8,11.4
	c-1.2,13.7-4.3,32-11.7,49.6c-0.8-0.7-1.7-1.4-2.4-1.9c-0.2-0.1-0.4-0.3-0.6-0.4c6.7-14.2,10.2-27.6,10.3-40.1
	c0.1-4.1-0.3-10.1-4.1-14c-3.4-3.5-8.7-4.4-12.8-5.1c-0.2,0-0.5-0.1-0.7-0.1c-0.3,0-0.5,0.2-0.6,0.4c0,0.3,0.1,0.5,0.4,0.6
	c0.3,0,0.5,0.1,0.8,0.1c1.5,0.3,2.9,0.7,4.2,1.2c-1.3-0.2-2.5-0.3-3.8-0.2c-0.3,0-0.5,0.2-0.5,0.5c0,0.2,0.1,0.4,0.3,0.4
	c8.1,3.3,13.5,11.1,13.5,19.9c-1.4-2.4-3.2-4.4-5.5-5.9c-0.2-0.2-0.5-0.1-0.7,0.1c-0.1,0.2-0.1,0.4,0,0.6c1.2,1.5,2.2,3.2,2.9,5
	c-4.6-4.1-10.4-6.5-16.5-6.7c-0.3,0-0.5,0.2-0.5,0.4c0,0.3,0.2,0.5,0.4,0.5c4.2,0.7,8.1,2.5,11.2,5.4c-8.9-4.2-19.1-4.9-28.4-1.9
	c-0.3,0.1-0.4,0.4-0.3,0.6c0.1,0.2,0.3,0.4,0.5,0.3c8.1-0.7,14.7,0.1,20.3,2.3c5.6,2.2,10.4,4.6,13.3,11.6
	c-7.9-7.4-19-10.3-29.5-7.7c-0.3,0.1-0.4,0.4-0.3,0.6c0.1,0.2,0.3,0.3,0.5,0.4c0.1,0,10.8,0.2,16.4,1.9c5.3,1.7,11.3,6.4,12.5,11
	l-7.8-5.3c-0.2-0.2-0.5-0.1-0.7,0.1c-0.1,0.2-0.1,0.4,0,0.6l1.1,1.3c-3.1-1.8-6.7-2.8-10.3-3c-5.2-0.4-10,0.5-15.1,1.4l-0.3,0.1
	c-0.3,0-0.4,0.3-0.4,0.5c0,0.3,0.3,0.5,0.5,0.4c17.3-0.6,21.8,3.4,25.4,6.6c0.4,0.4,0.9,0.8,1.3,1.1c-1.9-0.3-3.7-1-5.3-2
	c-0.2-0.1-0.5,0-0.7,0.2c-0.1,0.2-0.1,0.4,0.1,0.6c1,1.1,2,2.2,2.8,3.5c0.2,0.3,0.4,0.6,0.6,0.9c-4-0.9-12.5-1.7-12.9-1.7
	c-0.2,0-0.5,0.1-0.5,0.4c0,0,0,0,0,0.1c-8.9-4.3-18.3-7.2-28.3-7.2c-4.5,0-9,0.5-13.3,1.6c-2.3,0.6-4.7,1.2-6.7,2.6
	c2.1-1.3,4.7-1.6,7.1-2c4.3-0.7,8.7-0.9,13.1-0.6c10.4,0.4,20.3,3.8,29.7,8.6c-6.1-1.3-13-2.1-17.2-1.4c-0.3,0-0.5,0.3-0.4,0.6
	c0,0.2,0.1,0.3,0.3,0.4c0.9,0.3,1.7,0.6,2.6,0.8c2.5,0.7,6,1.6,7.9,3.3c-5.2-0.6-10.4,0-15.4,1.7c-0.2,0.1-0.4,0.3-0.3,0.6
	c0,0.2,0.3,0.4,0.5,0.4c7-0.2,13,0.3,18.7,3.7c-3.1-0.6-6.2-0.9-9.4-0.7c-0.3,0-0.5,0.2-0.5,0.5c0,0.1,0.1,0.3,0.2,0.4
	c1.3,1.1,2.8,2.2,4.2,3.2l0.4,0.3c-4.4-0.4-8.8-0.4-13.2-0.1c-5.4-1.3-11.1-1.5-16.6-0.7c-4.4,0.6-13.7,2.9-15.7,7.1
	c2.7-4.3,13.7-5.7,18.6-5.8c2.5-0.1,5,0,7.5,0.3c-5.7,1-11.3,3-16.3,5.9c-2.6,1.7-5.8,3.5-6.9,6.6c3.7-6.1,16.4-9.9,27.6-11.7
	c3.8,0.8,7.6,2,11.2,3.5l0.3,0.3l0.3,0.3c-6.9-2-14.1-2.5-21.2-1.6c-0.3,0-0.5,0.3-0.5,0.5s0.3,0.5,0.5,0.5c8.7,0.2,17.2,3,24.4,8
	c-2-0.8-4.2-1.3-6.3-1.4c-0.2,0-0.5,0.1-0.5,0.4c0,0,0,0.1,0,0.1c-7.7-1.8-15.7-1.6-23.3,0.8c-0.3,0.1-0.4,0.4-0.3,0.6
	c0.1,0.2,0.3,0.4,0.6,0.3c5.7-0.9,11.6,0.1,16.8,2.7c3.6,1.8,6.9,4.1,9.9,6.7c-1.7-0.9-3.5-1.5-5.4-2c-0.3-0.1-0.5,0.1-0.6,0.4
	c0,0.2,0,0.4,0.2,0.5c1.6,1,2.8,2.5,3.5,4.2c-5.3-4.7-12.2-7.3-19.3-7.4c-0.2,0-0.5,0.1-0.5,0.4c-0.1,0.2,0,0.5,0.2,0.6l8.2,4.4
	c-5-1.2-10.2-1.3-15.3-0.5c-0.3,0-0.5,0.3-0.4,0.6c0,0.2,0.2,0.4,0.4,0.4c7.5,0.7,14.8,2.4,21.8,5.2c-4.6-0.6-9.3-0.7-13.9-0.2
	c-0.3,0-0.5,0.3-0.4,0.5c0,0.1,0,0.2,0.1,0.3c3.2,3.9,5.2,8.7,5.6,13.7c0.4,4.7-0.7,9.4-2.7,12.2c-0.1,0.2-0.3,0.4-0.4,0.5
	c-0.2,0.2-0.1,0.5,0.1,0.7c0.1,0.1,0.2,0.1,0.3,0.1c0.2,0,0.3-0.1,0.4-0.2c0.1-0.2,0.3-0.4,0.4-0.6c4.8-6.7,6.1-15.2,3.7-23
	c4.2,0.7,8.3,2.2,11.9,4.6c0.2,0.1,0.5,0.1,0.6-0.1c7.3-7.4,13.9-15.4,19.6-24.1l0.7,0.4c1,0.6,2,1.2,3,1.7
	c-4.4,6.5-9.6,12.5-15.5,17.6l-0.6,0.5c-2.4,2-4.8,4.1-6,7c-1,2.6-1,5.4-1,8.2c0,1,0,2,0,2.9c0,3.7-1.1,7.3-3.3,10.3
	c-2,2.6-5,4.2-8.2,4.3C556.6,281.1,556.1,279.1,555.2,277.2z M592.1,230.8c-1.1-0.7-2.3-1.4-3.5-2.1c3.2-4.9,6.1-10,8.7-15.2
	c0.2-0.5,0.5-0.9,0.7-1.4c1.1,0.7,2.1,1.5,3.1,2.2c-2.5,5.8-5.5,11.4-8.9,16.7C592.2,230.9,592.1,230.9,592.1,230.8L592.1,230.8z
	 M586.7,202.7c0.7,0.4,1.4,0.8,2,1.2l0,0C588,203.4,587.4,203,586.7,202.7L586.7,202.7z M581.6,224.6c-1.1-0.6-2.1-1.2-3.2-1.7
	c-3.2-2.3-6.8-3.9-10.7-4.9c-1.6-0.6-3.2-1.1-4.8-1.6c3.2-0.4,6.4-0.5,9.7-0.5c0.2,0,0.5,0,0.7,0
	C576.8,218.5,580.1,221.2,581.6,224.6z M531.6,420.6h-7.5c-1.1-1.1-2.3-2.2-3.4-3.1c2-0.5,4-0.7,6-0.7c0.2,0,0.4-0.1,0.5-0.3
	c0.1-0.2,0.1-0.4,0-0.5c-0.1-0.1-8.3-11.4-15.7-18.3c1.5,0,3.1,0.2,4.6,0.4C521.3,405.5,526.5,413,531.6,420.6L531.6,420.6z
	 M299.2,128.2c-6.6-1.1-14.9-2.1-20.6-2.6c5.7-2.5,11.3-4.8,17.1-7.2c3.8-1.5,7.7-3.1,11.5-4.6c-1.2,4.6-2.1,9.3-2.7,14
	C302.8,128,301,128.1,299.2,128.2z M285.2,258.9c0.2,0,0.3-0.1,0.4-0.3c1.1-2.4,2.9-4.6,5-6.2c0.5-0.3,0.9-0.5,1.4-0.7
	c-1.6,2.4-2.8,4.9-3.8,7.6C287.3,259.2,286.3,259.1,285.2,258.9z"/>
</svg>
