<?xml version="1.0" encoding="utf-8"?>
<!-- Generator: Adobe Illustrator 24.2.3, SVG Export Plug-In . SVG Version: 6.00 Build 0)  -->
<svg version="1.1" id="b3b89879-0cfb-40cd-9e94-11b58214cf3a"
	 xmlns="http://www.w3.org/2000/svg" xmlns:xlink="http://www.w3.org/1999/xlink" x="0px" y="0px" viewBox="0 0 683.2 452.1"
	 style="enable-background:new 0 0 786.8 479.5; fill: #215342;" xml:space="preserve" height="221" width="365" transform="translate(-67, 0)">
<path d="M304.6,223.1c0.5-0.1,1.1-0.2,1.6-0.3c0.7-0.1,1.4-0.3,2.2-0.3c7.1-0.7,14.3,1,20.3,4.8l-4.7-1c-0.3-0.1-0.5,0.1-0.6,0.4
	c-0.1,0.3,0.1,0.5,0.4,0.6c2.2,0.7,4.2,2.1,5.5,4c1.1,1.7,2.1,3.4,2.8,5.3l-3-1.2c-0.3-0.1-0.5,0-0.6,0.3c-0.1,0.2,0,0.4,0.1,0.5
	c4.5,5.4,11.2,8.2,17.2,10.6c0.1,0,0.1,0,0.2,0c0.3,0,0.5-0.2,0.5-0.5c0-0.2-0.1-0.3-0.2-0.4c-2.8-1.6-5.4-3.6-7.8-5.9
	c-2.3-2.2-3.9-5.1-4.4-8.3c-0.1-0.4-0.1-0.9-0.1-1.4c0-1.4-0.3-2.7-0.9-4l2.1,0.1c0.1,0.4,0.2,0.9,0.2,1.3l0,0.2
	c0.5,5.5,3.3,10.6,7.7,14c0.2,0.2,0.5,0.1,0.7-0.1c0.1-0.2,0.1-0.4,0-0.6c-2.8-3.3-7.1-9.6-5.1-14.5c3.9-0.1,7.7,0.6,11.3,2.1
	c-0.4,0.1-0.8,0.3-1.1,0.5c-3.1,2.3-4.1,6.5-2.4,10c0.1,0.2,0.2,0.3,0.4,0.3h0c0.2,0,0.3-0.1,0.4-0.2c0.9-1.2,2-2.2,3.2-3
	c0.2-0.2,0.3-0.5,0.1-0.7c-0.1-0.2-0.3-0.2-0.5-0.2c-0.6,0-1.1-0.3-1.4-0.8c-0.2-0.5,0-1.1,0.5-1.4c0.2-0.1,0.5-0.1,0.8,0
	c0.2,0.1,0.4,0.2,0.5,0.5c0.1,0.2,0.3,0.3,0.5,0.3c0.2,0,0.4-0.1,0.5-0.3c0.5-1.2,0.6-2.5,0.4-3.8c0,0,0-0.1,0-0.1
	c4.1,2.3,6.1,7.1,6.8,9.2c0.1,0.3,0.2,0.7,0.3,1.2c0,0.1,0,0.2,0.1,0.2c-0.1,0.9-0.4,1.8-0.8,2.6c-0.4,0.5-1,0.8-1.6,0.9
	c-1.8,0.4-4.1-0.2-6.2-0.8c-0.6-0.2-1.2-0.3-1.8-0.5c-0.2,0-0.4,0-0.5,0.2c-0.1,0.2-0.1,0.4,0,0.5c0.8,1.4,2.4,1.9,3.7,2.2
	c1.1,0.3,2.2,0.4,3.3,0.4c0.5,0,0.9,0,1.4-0.1c1.6-0.2,3.1-1.1,4-2.5c0.5-1,0.8-2,0.7-3.1c0-0.9-0.1-1.8-0.4-2.6
	c-0.5-1.6-1.3-3.1-2.3-4.4c-2-2.8-4.6-5.1-7.7-6.6c-2.1-0.9-4.3-1.5-6.6-1.8c-1.3-1-2.8-1.8-4.4-2.3c3.8,0.4,7.5,1.2,11.1,2.2
	c0.3,0.1,0.5-0.1,0.6-0.4c0.1-0.2-0.1-0.5-0.3-0.6c-5.7-2.3-11.5-4.2-17.4-5.7c-6-1.5-12.2-1.9-18.3-1.1c-0.3,0-0.5,0.3-0.4,0.6
	c0,0.3,0.3,0.4,0.5,0.4c1.3,0,2.6,0.1,3.9,0.3c-4.1,0.9-8.3,1.3-12.5,1c-0.3,0-0.5,0.2-0.6,0.4c0,0.3,0.1,0.5,0.4,0.5l1.9,0.4
	l-4.4,1.7c-0.2,0.1-0.4,0.3-0.3,0.6C304.1,223,304.3,223.2,304.6,223.1z"/>
<path d="M460.8,243.4c0.1-0.2,0-0.5-0.2-0.6c-3.5-2.1-7.4-3.6-11.5-4.3c0.5-0.3,1-0.6,1.4-1c0.2-0.2,0.2-0.5,0.1-0.7
	c-0.1-0.1-0.3-0.2-0.5-0.2c-3.3,0.6-6.9,0.3-11.7-1c-1.3-0.4-2.7-0.8-4-1.2c-2.5-0.8-5.1-1.5-7.6-2c-4.7-0.9-8.8-0.5-12.1,1
	c-0.3,0.1-0.4,0.4-0.2,0.7c0.1,0.2,0.3,0.3,0.5,0.3c2.1-0.5,4.3-0.6,6.4-0.4l-0.8,0.2c-0.2,0.1-0.4,0.3-0.4,0.6
	c0,0.3,0.2,0.4,0.5,0.4c0,0,0,0,0,0c3.9-0.1,7.8,0.7,11.3,2.4c-1.2-0.1-2.5-0.1-3.8-0.1c-3-0.9-6.2-1.2-9.3-1
	c-3.6,0.4-7,1.8-9.9,3.9c-1.5,1-2.7,2.2-3.8,3.7c-0.5,0.8-1,1.6-1.3,2.5c-0.5,1.1-0.6,2.2-0.4,3.4c0.4,1.7,1.6,3.1,3.1,3.9
	c1.7,0.9,3.5,1.4,5.3,1.7c0.5,0.1,0.9,0.1,1.4,0.1c1.1,0.1,2.2-0.3,3-1c0.2-0.2,0.2-0.5,0-0.7c-0.1-0.1-0.2-0.1-0.3-0.2
	c-4.2-0.4-7.2-1.2-8.8-2.3c-0.6-0.3-1.1-0.9-1.4-1.5c-0.3-0.9,0.2-2.2,0.7-3.2c0.1-0.2,0.3-0.4,0.4-0.6c2-3,4.9-5.3,8.3-6.4
	c-1.7,3.5-0.7,7.7,2.4,10.2c0.1,0.1,0.2,0.1,0.3,0.1c0.2,0,0.4-0.1,0.5-0.3c0.8-1.7,1.2-3.5,1.3-5.3c0-0.3-0.2-0.5-0.5-0.5
	c0,0-0.1,0-0.1,0c-0.6,0.1-1.1,0.3-1.7,0.6c-0.3-0.4-0.5-0.8-0.6-1.3c-0.1-0.5,0.1-1,0.5-1.3c0.5-0.2,1-0.2,1.5,0
	c0.3,0.1,0.5-0.1,0.6-0.4c0-0.1,0-0.3-0.1-0.4c-0.4-0.8-1-1.4-1.8-1.9c4.1-0.5,9.7,0.9,13.3,2.5c-1.5,6-5.9,9.4-10.1,12
	c-0.2,0.1-0.3,0.5-0.2,0.7c0.1,0.2,0.4,0.3,0.6,0.2c5.2-1.8,9.6-5.6,12-10.6c0.3,0.1,0.7,0.1,1.1,0.1c-1.9,3.6-4.4,6.8-7.4,9.6
	c-0.2,0.2-0.2,0.5,0,0.7c0.2,0.2,0.4,0.2,0.6,0.1c3.6-2.5,7.1-5,10.6-7.6c0,0.1,0.1,0.1,0.1,0.2c0.2,0.2,0.4,0.2,0.7,0.1
	c4.3-2.7,9.4-3.7,14.4-2.9c-0.4,0.1-0.8,0.2-1.1,0.3c-0.3,0.1-0.4,0.4-0.3,0.6c0.1,0.2,0.2,0.3,0.4,0.3c5.3,0.6,10.4,2.4,14.9,5.1
	c0.2,0.1,0.5,0.1,0.7-0.2c0.1-0.2,0.1-0.4,0-0.6C466.1,247.5,463.6,245.2,460.8,243.4C460.8,243.4,460.8,243.4,460.8,243.4z"/>
<path d="M312.6,314.8c6.9,3.6,14.5,5.8,22.2,6.6c-2.6,1.8-5.5,3.2-8.6,4.1c-0.3,0.1-0.4,0.4-0.3,0.6c0,0.1,0.1,0.3,0.3,0.3
	c3.4,1.4,7.2,1.5,10.7,0.4c-1.8,1.8-4,3.1-6.4,4c-0.3,0.1-0.4,0.4-0.3,0.6c0.1,0.1,0.2,0.3,0.3,0.3c2.3,0.7,4.6-0.2,6.8-1.1
	c2.2-0.9,4.4-1.7,6.4-1c1.4,0.7,2.6,1.8,3.4,3.1l0.3,0.3c6.3,7.8,15,13.3,24.8,15.6c0.3,0.1,0.5-0.1,0.6-0.4c0.1-0.2,0-0.4-0.2-0.5
	c-2-1.1-3.9-2.5-5.6-4c1.1-0.1,2.2-0.4,3.1-1c2.9-0.1,5.7-0.7,8.4-1.7l-1.2,1.4c-0.2,0.2-0.2,0.5,0,0.7c0.1,0.1,0.2,0.1,0.3,0.1
	c0,0,0.1,0,0.1,0c3.2-0.7,6.3-1.8,9.2-3.4l0.6-0.3c2.1-1.5,4.7-2,7.1-1.4l13.3,1.4c0.2,0,0.5-0.1,0.5-0.3c0.1-0.2,0-0.5-0.2-0.6
	l-4.3-2.4c4,0,8-0.8,11.6-2.3c0.3-0.1,0.4-0.4,0.3-0.7c-0.1-0.2-0.2-0.3-0.4-0.3c-3.4-0.6-6.6-2.1-9.3-4.2c-0.2-0.2-0.5-0.1-0.7,0.1
	c-0.1,0.1-0.1,0.3-0.1,0.4c0.1,0.4,0.2,0.8,0.4,1.2l-5-1.1c-0.2,0-0.3,0-0.5,0.1c-0.1,0.1-0.2,0.3-0.1,0.5c0.1,0.4,0.2,0.7,0.4,1.1
	c-1.7-0.3-3.3-1-4.8-1.9c-0.2-0.1-0.5-0.1-0.7,0.2c-0.1,0.1-0.1,0.2-0.1,0.3c0.4,2.2,1.4,4.3,2.9,5.9c-6.1-0.8-12.8-1.8-18.4-5.1
	c-0.2-0.1-0.5-0.1-0.7,0.2c-0.1,0.2-0.1,0.4,0,0.5c0.7,1.2,0.9,2.8,0.4,4.1l0,0c-1-0.3-2.9,0.6-4.3,1.6c-0.3-3.2-0.8-4-1.5-4.3
	c-0.8-0.3-1.6,0.4-2.4,1.1c-0.8,0.7-1.6,1.5-2.4,1.3c-0.7-0.2-1.3-0.6-1.7-1.2c-1.9-2.1-4.4-4.6-4.9-7.7c0-0.3-0.3-0.4-0.5-0.4
	c-0.3,0-0.5,0.2-0.5,0.5c-0.3,3.1,0.9,5.9,2.3,8.5c0.2,0.4,0.4,0.8,0.7,1.2c-0.5-0.5-0.9-1-1.3-1.5l-3.3-4c-0.2-0.2-0.5-0.2-0.7-0.1
	c-0.1,0.1-0.2,0.3-0.2,0.4l0.2,2.5c-1.5-2.4-2.6-4.9-3.5-7.5c-0.1-0.3-0.4-0.4-0.6-0.3c-0.2,0.1-0.3,0.2-0.3,0.4
	c-0.2,2.8,0.1,5.5,0.9,8.2c-0.7-0.7-1.3-1.5-1.9-2.2c-2.3-2.8-3.7-6.2-4-9.8c0-0.3-0.3-0.5-0.5-0.5c-0.1,0-0.2,0-0.2,0.1
	c-0.6,0.4-1.1,1-1.3,1.7c-0.1,0.3-0.3,0.5-0.4,0.8c-0.2,0.3-0.4,0.6-0.7,0.8c-0.2-0.4-0.4-2.2,0.8-6.9c0.1-0.3-0.1-0.5-0.4-0.6
	c-0.2,0-0.4,0-0.5,0.2c-1.6,1.7-3.5,3.1-5.7,4l3.1-5.6c0.1-0.2,0-0.5-0.2-0.7c-0.1-0.1-0.2-0.1-0.3-0.1l-9.3,1.2
	c0.2-0.4,0.4-0.9,0.7-1.6c0.6-1.6,1.5-3.9,2.5-4.3c0.2-0.1,0.4-0.3,0.3-0.6c0-0.2-0.3-0.4-0.5-0.4c-5.2,0.2-10.3-1.2-14.5-4.1
	c-0.2-0.2-0.5-0.1-0.7,0.1c-0.1,0.1-0.1,0.2-0.1,0.4c0.4,2.8,2.3,5.1,4.8,6.2c-4.5,1.8-8.9,3.2-13,2c-0.3-0.1-0.5,0.1-0.6,0.3
	C312.3,314.4,312.4,314.7,312.6,314.8L312.6,314.8z M370.6,338.8C370.6,338.8,370.6,338.8,370.6,338.8L370.6,338.8L370.6,338.8z"/>
<path d="M442.8,211.8l-0.9,4.4c-0.1,0.3,0.1,0.5,0.4,0.6c0.1,0,0.2,0,0.3,0l4.8-2.3l-1.1,2.1c-0.1,0.2,0,0.5,0.2,0.7
	c0,0,0.1,0,0.2,0.1l12,1.9l-1.9,8.1c-0.1,0.3,0.1,0.5,0.4,0.6c0.1,0,0.2,0,0.3,0c3.4-1.5,6.3-4,8.3-7.1c0.1-0.2,0.1-0.4,0-0.5
	c-0.1-0.2-0.3-0.3-0.5-0.2c-1.7,0.1-3.5-0.1-5.2-0.6l3.8-3.4c0.2-0.2,0.2-0.5,0-0.7c-0.1-0.1-0.3-0.2-0.5-0.2
	c-4.5,0.9-9.2,0.3-13.4-1.7c0.3-0.3,0.6-0.5,0.9-0.7c0.1-0.1,0.2-0.1,0.3-0.2c0.6-0.4,1-1,1.1-1.6c0.1-0.4-0.1-0.8-0.3-1
	c-0.5-0.5-1.2-0.6-2.2-0.2c-1.1,0.4-2.3,0.9-3.4,1.4c0.7-1.4,1.2-2.9,1.4-4.4c0-0.3-0.1-0.5-0.4-0.6c-0.1,0-0.3,0-0.4,0.1l-1.8,1.6
	l1.6-4.7c0.1-0.3,0-0.5-0.3-0.6c-0.2-0.1-0.4,0-0.6,0.2l-4.3,5.9c-2.4,0.9-4.2,1.5-6,2.1c-0.3,0.1-0.4,0.4-0.3,0.6
	c0,0.1,0.1,0.2,0.2,0.2C437.8,212.8,440.6,213,442.8,211.8z"/>
<path d="M327,209.1c0.1,0,0.3-0.1,0.4-0.2c0.1-0.1,0.1-0.1,0.1-0.2c0.4,0.1,0.9,0,1.3-0.2c0.7-0.4,1.1-1.2,1-1.9
	c0-0.4-0.1-0.9-0.3-1.3c0.7,0.3,1.4,0.5,2.2,0.6c0.3,0,0.5-0.2,0.5-0.5c0,0,0-0.1,0-0.1l-0.2-1.6c0.6,0.8,1.4,1.4,2.3,1.8
	c0.2,0.1,0.5,0,0.7-0.2c0.1-0.2,0.1-0.3,0-0.5c-0.7-1.1-0.1-2.6,0.6-3.9l3.4-6.7l1.6,5.5c0.1,0.2,0.2,0.3,0.5,0.4
	c0.2,0,0.4-0.1,0.5-0.3c2.1-4.9,3.8-9.7,2.5-14.3c-0.1-0.2-0.2-0.3-0.4-0.4c-0.2,0-0.4,0.1-0.5,0.3l-2.6,4.6
	c-0.3-2.4-1.2-4.7-2.6-6.6c-0.1-0.2-0.4-0.2-0.6-0.2c-0.2,0.1-0.3,0.3-0.3,0.5c0.2,5-1.1,10-3.8,14.2c-0.8-2-1.8-3.9-3-5.7
	c-0.2-0.2-0.5-0.3-0.7-0.1c-0.2,0.1-0.2,0.3-0.2,0.5c0.4,3,0.3,6.1-0.4,9c-1.6-0.8-3.1-1.8-4.3-3c-0.2-0.2-0.5-0.2-0.7,0
	c-0.1,0.1-0.2,0.4-0.1,0.6l0.7,1.5l-1.5-1.5c-0.2-0.2-0.5-0.2-0.7,0c-0.1,0.1-0.2,0.3-0.1,0.5c0.3,1.6,1.1,3,2.2,4.1
	c-1.8-0.7-3.3-1.8-4.5-3.2c-0.2-0.2-0.5-0.2-0.7-0.1c-0.2,0.1-0.2,0.4-0.1,0.6c1.8,3.4,4.6,6.2,7.9,8.1
	C326.8,209,326.9,209.1,327,209.1z"/>
<path d="M452.5,190.8c-0.1,0.1-0.2,0.2-0.3,0.3c-0.2,0.2-0.1,0.5,0.1,0.7c0.2,0.2,0.5,0.1,0.7-0.1l0.3-0.3c1.6-1.6,3.5-2.9,5.7-3.6
	c2.3-0.7,4.7-1.3,7.2-1.6c0.3,0,0.5-0.3,0.4-0.6c0-0.2-0.1-0.3-0.3-0.4c-1.7-0.7-3.6-1-5.5-0.8c-0.8,0.1-1.5,0.2-2.3,0.4
	c1.6-0.8,3.4-1.4,5.2-1.7c0.3,0,0.5-0.3,0.4-0.6c0-0.2-0.2-0.4-0.5-0.4c-1,0-2,0-3,0.1c3.3-1,6.7-1.4,10.1-1.2
	c5.2,0.3,10.3,1.2,15.3,2.5c0.3,0.1,0.5-0.1,0.6-0.4c0-0.2-0.1-0.5-0.3-0.6c-9.5-3.9-20.1-4.3-29.9-1.2c-3,0.9-5.6,3-7,5.9
	c-0.1,0.3,0,0.5,0.2,0.7c0.2,0.1,0.5,0,0.6-0.1c0.3-0.3,0.5-0.6,0.8-0.8c-0.4,0.6-0.9,1.2-1.2,1.8c-0.1,0.2-0.1,0.5,0.2,0.7
	c0.1,0.1,0.3,0.1,0.5,0c1.3-0.7,2.8-1,4.3-1.1C453.9,189.3,453.2,190,452.5,190.8z M452.6,191.5c0.2-0.2,0.4-0.5,0.6-0.7
	C453,191,452.8,191.2,452.6,191.5L452.6,191.5z"/>
<path d="M447.1,199.4c4.3,1.6,8.2,4.1,11.4,7.3c0.2,0.2,0.5,0.2,0.7,0c0.2-0.2,0.2-0.5,0-0.7c-1.3-1.6-2.8-3.1-4.4-4.5
	c3.7,1.2,7.3,2.7,10.8,4.4c0.2,0.1,0.5,0,0.7-0.2c0.1-0.2,0-0.5-0.2-0.6c-4.3-3.2-11.2-6.9-19-6.7c-0.3,0-0.5,0.2-0.5,0.5
	C446.8,199.2,446.9,199.4,447.1,199.4L447.1,199.4z"/>
<path d="M348.4,187c1.6,0.8,3.1,1.8,4.4,3c-1.5,0.1-2.9,0.6-4,1.5c-0.2,0.2-0.2,0.5-0.1,0.7c0.1,0.2,0.3,0.2,0.5,0.2
	c3.5-1.1,7.2-0.9,10.6,0.4c0.1,0,0.1,0,0.2,0c0.3,0,0.5-0.2,0.5-0.5c0-0.2-0.1-0.3-0.2-0.4c-3.6-2.4-7.4-4.3-11.5-5.8
	c-0.3-0.1-0.5,0-0.6,0.3C348.1,186.7,348.2,186.9,348.4,187L348.4,187z"/>
<path d="M575.6,362.8h-43.5c-2.9-3.6-6.1-7-9.4-10.3c-7.7-7.5-15.9-14.5-24.5-21c-0.1-2.2-0.4-4.3-0.9-6.4l4.1,2.9
	c0.2,0.2,0.5,0.1,0.7-0.1c0-0.1,0.1-0.1,0.1-0.2c0.4-2.8-0.3-5.7-1.8-8.1c5.5,2.1,11.4,2.5,17.1,1.3c0.3-0.1,0.4-0.3,0.4-0.6
	c0-0.2-0.2-0.3-0.3-0.4c-3.6-1.2-6.6-3.4-8.8-6.5c1.1,0.6,2.4,1,3.7,1c0.5,0,1-0.1,1.5-0.2c0.3-0.1,0.4-0.3,0.4-0.6
	c0-0.1-0.1-0.2-0.2-0.3c-0.5-0.4-0.9-0.8-1.4-1.3c14.6,7.4,28.9,15.1,42.9,23.9c6.1,3.7,11.9,7.8,17.6,12.2
	c-5.8-5.1-12-9.7-18.6-13.7c-13.9-8.7-28.4-16.4-43-23.9c-1.3-2.1-2.3-4.4-2.8-6.8c-0.2-1.1-0.4-2.2-0.6-3.2
	c12.8,3.7,25.4,8.1,38,12.7c6.1,2.2,12.1,4.4,18.2,6.5c-6-2.6-12.1-5-18.2-7.3c-12.6-4.6-25.3-9-38.1-12.8c0-0.2-0.1-0.5-0.1-0.7
	c-0.3-2.2-0.8-4.4-1.3-6.6c-1.2-4.2-3.5-8-6.5-11.2c1.6,0.6,3.1,1.6,4.3,2.9c0.2,0.2,0.5,0.2,0.7,0c0.1-0.1,0.2-0.3,0.2-0.5
	c-1.5-5.8-4.1-11.3-7.9-16c0.1-0.1,0.2-0.2,0.2-0.3c0.3-3.5-1.1-7-3.7-9.4l4.2-4c0.2-0.2,0.2-0.4,0.1-0.6c-0.1-0.2-0.3-0.3-0.5-0.3
	c-4.8,0.6-9.5-2.1-11.5-6.5l2.3-1c0.3-0.1,0.4-0.4,0.3-0.7c0,0,0-0.1-0.1-0.1c-1.4-1.9-3.2-3.3-5.3-4.2c0.1-8.9,0.2-18.9,4-27.6
	c1.6-3.4,3.4-6.6,5.5-9.7c1.5-2.3,3-4.7,4.3-7.1c4.2,0.9,8.3,2.1,12.3,3.6c6.4,2.5,12.6,5.5,18.6,8.8c0.2,0.1,0.5,0,0.7-0.2
	c0.1-0.2,0-0.5-0.2-0.7c-6-3.5-12.2-6.4-18.7-8.8c-3.9-1.6-8-2.9-12.1-3.9c0.3-0.6,0.6-1.2,0.8-1.8c4-9.4,3.7-20.1,3.4-29.6
	c-0.2-5.4-0.7-11.4-4.8-14.9c-2.9-2.3-6.7-3.2-10.4-2.6c-3.5,0.7-6.9,1.9-10.1,3.7c-16.3,8.1-31,19-43.5,32.1l-1-3.5
	c-0.1-0.2-0.3-0.4-0.5-0.4c-0.2,0-0.4,0.2-0.4,0.5c-0.2,3.1-2.9,5.5-6.1,5.2c-2.2-0.2-4.1-1.6-4.9-3.7c-0.2-0.7-0.3-1.5-0.2-2.3
	c0-0.5,0.1-1,0-1.5c0-0.3-0.3-0.5-0.6-0.4c-0.2,0-0.3,0.1-0.4,0.2c-0.6,0.9-1,2-1.2,3.1l-2-4.2c-0.1-0.2-0.3-0.3-0.5-0.3
	c-0.2,0-0.4,0.2-0.4,0.4c-0.3,1.2-0.4,2.5-0.3,3.7c-0.4-0.6-0.7-1.2-1-1.8c0-0.1-0.1-0.1-0.2-0.2c-0.2-0.1-0.4-0.3-0.6-0.4
	c-0.2-0.2-0.5-0.1-0.7,0.1c-1.5,1.7-3.6,2.7-5.9,2.8c0.4-0.9,0.6-1.8,0.7-2.8c0-0.3-0.2-0.5-0.5-0.5c-0.1,0-0.2,0-0.3,0.1
	c-5.1,3.1-11.6,2.5-16.1-1.4l-0.4-0.4c-0.4-0.4-0.9-0.8-1.4-1.1c-0.7-0.5-1.6-0.7-2.5-0.5c-0.5,0.1-0.9,0.4-1.2,0.8
	c-0.4-0.9-0.7-1.9-0.9-2.8c0-0.3-0.3-0.5-0.6-0.4c0,0-0.1,0-0.1,0l-6.8,2.3c0.9-1.8,0.9-3.9,0-5.7c-0.1-0.2-0.3-0.3-0.5-0.2
	c-0.2,0-0.4,0.1-0.4,0.3c-1.2,3.3-2.6,4.9-4.4,4.9h0c-1.8,0-3.1-1.7-4.1-3.2c-3.6-5.5-6.8-11.4-9.9-17.1
	c-5.6-10.4-11.3-21.2-20-29.5c-2.4-2.4-5.1-4.3-8.1-5.7c-3.1-1.4-6.6-1.8-9.9-0.9c-0.1,0-0.2,0.1-0.3,0.2
	c-9,12.7-13.6,27.9-13.2,43.4c-11.2,2-21.6,7.1-30,14.7c-0.2,0.2-0.2,0.5,0,0.7c0.2,0.2,0.5,0.2,0.7,0.1
	c9.4-6.8,19.1-11.2,28.7-13.1c0.2-0.1,0.5-0.1,0.7-0.1c0.1,1.8,0.3,3.7,0.5,5.5c0.2,1.4,0.4,2.8,0.7,4.2c0.4,2.5,0.8,5.1,1,7.7
	c-1.4,0.6-2.7,1.3-4.1,2c-0.2,0.1-0.3,0.4-0.2,0.7c0.1,0.2,0.4,0.3,0.6,0.2c1.2-0.5,2.4-0.9,3.7-1.4c0,1.4,0,2.8-0.2,4.2
	c-0.3,2.1-0.8,4.2-1.5,6.3c-1.1,3.9-2.3,8-1.3,12.1c0.1,0.4,0.2,0.8,0.3,1.2c0.4,1.1,0.6,2.3,0.4,3.4c-0.3,1.6-1.6,2.7-3.1,3.9
	l-11.7,9.3c-6.2,2.9-11.8,6.8-16.6,11.6c-0.2,0.2-0.2,0.5,0,0.7c0.1,0.1,0.4,0.2,0.6,0.1l5.1-2.2L266.2,246
	c-0.1,0.2-0.2,0.4-0.1,0.6c0.1,0.2,0.3,0.3,0.5,0.2l8.3-1.7c-3.2,2.8-5.9,6.2-8,9.9c-0.1,0.2,0,0.5,0.2,0.7c0.2,0.1,0.5,0.1,0.6-0.1
	c2-2.2,4.7-3.6,7.7-4c-1.2,2.3-2.4,4.7-3.4,7.1c-1.7,3.6-3.1,7.3-4.3,11.1c-11.3,1.4-22.5,3.4-33.6,5.4c-7.1,1.3-17.1,3.5-22.4,5
	c7.6-1.4,15.2-2.8,22.8-4.3c11-1.9,22-3.9,33-5.3c-0.8,2.7-1.6,5.4-2.2,8.1c-7.6,2.5-14.8,5.1-21.2,7.5c-7,2.7-13.9,5.7-20.6,9.1
	c7-3,14.1-5.8,21.2-8.6c6.8-2.6,13.6-5,20.4-7.2c-1.8,8.1-2.6,16.5-2.4,24.8c-7.6,6.3-14.8,13-21.6,20.1
	c-6.1,6.2-11.9,12.8-17.2,19.8c5.8-6.7,11.4-12.8,17.5-19.2c6.8-6.9,13.9-13.5,21.3-19.7c0,1.1,0.1,2.3,0.2,3.4
	c0,0.2,0.2,0.4,0.4,0.5c0.2,0,0.4-0.1,0.5-0.3c0.7-1.5,1.4-3.1,2-4.6c-0.8,4.8-2.1,9.5-3.7,14.1c-1.7,2.2-3.8,3.9-6.2,5.2
	c-0.2,0.1-0.3,0.4-0.2,0.7c0.1,0.2,0.2,0.3,0.4,0.3c5.4,0.3,10.6-1.6,14.6-5.3c-0.1,8-2.9,15.8-8,22c-0.2,0.2-0.1,0.5,0.1,0.7
	c0.1,0.1,0.3,0.1,0.5,0.1l6-2c-1.5,3.8-3.7,7.2-6.6,10c-0.2,0.2-0.2,0.5,0,0.7c0.2,0.2,0.5,0.2,0.7,0c1-0.9,2.2-1.5,3.5-1.9
	c-1.4,3.1-3.4,5.9-5.8,8.3c-0.2,0.2-0.2,0.5,0,0.7c0.1,0.1,0.3,0.2,0.5,0.1c2.3-0.9,4.5-1.9,6.7-3c-1,1.7-1.9,3.5-2.5,5.4
	c-0.1,0.4-0.3,0.9-0.4,1.3l0,0.2c-0.1,0.3,0.1,0.5,0.4,0.6c0,0,0,0,0,0l1.1,0.2h-73.5c-0.3,0-0.5,0.2-0.5,0.5v17.4
	c0,0.3,0.2,0.5,0.5,0.5h79c0.2,0.2,0.4,0.4,0.6,0.6c2.6,2.2,5.8,3,8.8,3.6c4,0.8,8,1.3,12,1.6c0.2,0.2,0.4,0.4,0.6,0.6
	c0.9,0.8,2.2,1.3,3.4,1.3c0.3,0,0.7,0,1-0.1c1.1-0.2,2.1-0.7,3-1.4c0.5,0,0.9,0,1.4,0c3.7,0,7.5-0.2,11.4-0.5
	c4.4-0.4,8.6-1,12.2-3.7c0.8-0.6,1.4-1.3,2-2h93.7c0.4,0.3,0.8,0.5,1.3,0.8c1,1.7,2.4,3.2,4,4.3c3.8,2.5,8.1,2.7,12.5,2.8
	c1,0,2,0,2.9,0c3.3,0,6.6-0.1,9.9-0.4c0.9,0.7,2,1.1,3.1,1.3c0.2,0,0.4,0,0.7,0c1.4,0,2.7-0.5,3.7-1.5c0.2-0.2,0.4-0.4,0.5-0.7
	c4-0.6,8-1.4,11.9-2.4c0.2,0.2,0.3,0.3,0.5,0.5c0.6,0.4,1.3,0.6,2,0.7c0.3,0,0.6,0,0.8-0.1c0.8-0.3,1.5-0.8,2.1-1.5
	c0.6-0.6,1-1.4,1.3-2.2c0.7-0.4,1.3-0.9,1.8-1.4c0,0,0.1-0.1,0.1-0.1h93.8c0.3,0,0.5-0.2,0.5-0.5v-17.4
	C576.1,363,575.9,362.8,575.6,362.8z M268.6,363.9C268.6,363.9,268.6,363.9,268.6,363.9C268.6,363.9,268.6,363.9,268.6,363.9
	L268.6,363.9z M443.7,361.5c-0.1-0.4-0.6-0.6-1-0.5c-0.5,0.2-0.8,0.6-0.7,1.1c0.6,5.3,0.2,10.7-1.1,15.9c-0.3,1.2-0.7,2.4-1.4,3.4
	c-0.5,0.7-1.4,1.3-2.3,1c-0.5-0.3-1-0.7-1.4-1.2c-0.5-0.7-1.2-1.2-2-1.6c-0.9-0.3-1.7,0.5-2.6,1.2c-0.5,0.4-1.1,0.9-1.5,1h0
	c-0.6,0-2.8-1.5-4.6-2.9c-0.3-0.5-0.6-1-0.9-1.6c-0.2-0.8-0.4-1.7-0.5-2.6c-0.5-3.3-0.7-6.6-0.5-10c0-0.3-0.2-0.5-0.5-0.5
	c-0.2,0-0.4,0.1-0.5,0.3c-1.7,3.8-2,8.1-0.9,12.1c-3.2-2.5-5-6.4-4.8-10.4c0.3-4.5,2.5-8.7,6-11.7c2.8-2.4,6.5-5,10.2-3.7l0.1,0.1
	c0.8,0.3,1.8,0.7,2.6,0.1c0.4-0.3,0.7-0.8,0.8-1.2l0.1-0.3c0.9-2,3.1-3,4.7-3.6c6-2.3,13-1.6,18.5-0.8c2.5,0.4,5,1,7.3,1.7
	c0.5,0.3,1.1,0.5,1.8,0.9c2.1,0.8,4,1.9,5.8,3.2c2.4,2.1,4.5,4.6,6.1,7.4c0,0,0,0-0.1,0c-2.2,0.5-4.3,1.3-6.3,2.4
	c-0.2,0.1-0.3,0.5-0.2,0.7c0.1,0.1,0.2,0.2,0.4,0.2c2.6,0.3,5.2,1,7.7,1.9c0.7,5.3-0.5,10.7-3.2,15.2c-0.3-0.7-0.8-1.3-1.5-1.8
	c-0.1-0.1-0.3-0.1-0.5,0c-0.1,0.1-0.3,0.2-0.3,0.3c-0.3,1.4-0.8,2.7-1.5,4l0,0c-0.1-0.1-0.3-0.2-0.4-0.4c-0.3-0.4-0.4-0.9-0.5-1.4
	c-0.4-1.8-0.6-3.6-0.6-5.4c0-2.7-0.5-5.4-1.4-8c-0.2-0.5-0.7-0.8-1.3-0.7c-0.6,0.2-1,0.9-0.8,1.5c0.6,3.1,0.8,6.3,0.5,9.4
	c-0.5,3.9-2.6,8.2-5.8,8.8c-0.6,0.2-1.3,0-1.7-0.5c-0.5-0.9-0.7-1.8-0.6-2.8c-0.1-1.2-0.2-2.3-0.4-3.5c-0.1-0.9-0.8-1.6-1.7-1.7
	c-0.9,0.1-1.5,0.8-1.6,1.6c-0.2,1.7-0.7,3.3-1.6,4.8c-2.4,3.4-6.3,4.6-9.6,3c-1.2-0.5-2.1-1.5-2.5-2.6c-0.6-1.6-0.2-3.4,0.1-5.2
	c0.1-0.3,0.1-0.6,0.2-0.9C446.5,372.1,445.8,366.6,443.7,361.5L443.7,361.5z M310.6,358.9c-0.4-0.1-0.8,0.2-1,0.6
	c-1.7,5.2-2,10.7-0.8,16c0.1,0.3,0.1,0.6,0.2,0.9c0.4,1.8,0.9,3.6,0.4,5.2c-0.4,1.2-1.2,2.2-2.4,2.8c-3.2,1.8-7.2,0.8-9.8-2.4
	c-1-1.4-1.7-3-1.9-4.6c-0.1-0.9-0.8-1.5-1.7-1.5c-0.9,0.1-1.6,0.9-1.6,1.8c-0.1,1.2-0.2,2.4-0.2,3.6c0.1,0.9,0,1.9-0.4,2.8
	c-0.4,0.5-1,0.7-1.6,0.6c-3.2-0.4-5.6-4.5-6.3-8.4c-0.5-3.1-0.5-6.3-0.1-9.4c0.1-0.6-0.3-1.3-0.9-1.5c-0.6-0.1-1.1,0.2-1.2,0.8
	c-0.8,2.6-1.1,5.3-0.9,8c0.1,1.8,0,3.7-0.3,5.5c-0.1,0.5-0.2,1-0.4,1.5c-0.3,0.5-0.9,0.8-1.5,0.6c-0.7-0.3-1.3-0.7-1.8-1.3
	c-4.2-4.6-6.2-12.7-4.7-19.6c1.4-3.6,3.6-6.9,6.4-9.7c1.7-1.4,3.6-2.6,5.6-3.6c0.7-0.4,1.2-0.7,1.7-1c2.3-0.9,4.7-1.7,7.2-2.2
	c5.4-1.2,12.3-2.3,18.4-0.4c1.6,0.5,3.9,1.4,4.9,3.3l0.1,0.2c0.2,0.5,0.5,0.9,0.9,1.2c0.9,0.4,1.9,0.3,2.6-0.2l0.1-0.1
	c3.5-1.6,7.4,0.8,10.4,3c3.7,2.7,6.1,6.7,6.7,11.2c0.5,4-1,8.1-4.1,10.7c0.9-4.1,0.3-8.4-1.6-12c-0.1-0.2-0.4-0.3-0.7-0.2
	c-0.2,0.1-0.3,0.3-0.3,0.5c0.4,3.3,0.4,6.7,0.1,10c-0.1,0.9-0.2,1.8-0.4,2.6c-0.2,0.6-0.5,1.1-0.8,1.6c-1.7,1.5-3.9,3.1-4.4,3.2l0,0
	c-0.6-0.2-1.1-0.5-1.5-0.9c-0.9-0.7-1.8-1.3-2.6-1c-0.8,0.4-1.4,1-1.9,1.7c-0.3,0.5-0.8,1-1.3,1.3c-0.9,0.3-1.8-0.1-2.3-0.8
	c-0.7-1-1.3-2.1-1.6-3.3c-1.7-5.1-2.4-10.5-2.1-15.8C311.4,359.5,311.1,359.1,310.6,358.9L310.6,358.9z M275,302.5
	c-0.2-0.1-0.5-0.1-0.6,0.1c-1.5,1.6-2.7,3.4-3.5,5.4c-1-2.3-1.7-4.8-2-7.3l0-0.1c5.2-4,10.5-7.8,16-11.4c2.1,0.6,4.3,1.2,6.5,1.8
	c-1.9,0.1-3.8,0.1-5.6-0.2c-0.3,0-0.5,0.1-0.6,0.4c0,0.2,0.1,0.4,0.3,0.5c4.5,2.5,9.5,4.1,14.6,4.5c0.9,0.1,1.3,0.3,1.4,0.6
	c0.1,0.4-0.4,0.9-1,1.2c-1.9,0.9-3.9,1.4-6,1.5c-0.3,0-0.5,0.2-0.5,0.5c0,0.2,0.1,0.4,0.3,0.4c8.1,3.7,17.3,4.1,25.7,1.1
	c0.3-0.1,0.4-0.4,0.3-0.6c-0.1-0.2-0.2-0.3-0.4-0.3c-3.7-0.7-7.3-2-10.6-3.8c2-0.3,4-0.3,6,0c0.3,0,0.5-0.1,0.6-0.4
	c0-0.2-0.1-0.4-0.3-0.5c-2.3-1.1-4.5-2.5-6.5-4.2c0,0,0.1,0,0.1,0c3,1,5.8,2.3,8.5,3.5l0.6,0.3c5.2,2.3,10.8,4.5,16.4,4.3l-1.3,0.9
	c-0.2,0.2-0.3,0.5-0.1,0.7c0.1,0.1,0.1,0.2,0.2,0.2c0.7,0.3,1.4,0.5,2.2,0.6c-0.2,0.1-0.4,0.1-0.6,0.2c-0.1,0.1-0.2,0.2-0.3,0.3
	c0,0.1,0,0.3,0,0.4c1.4,2.5,3.8,4.4,6.6,5.1c-0.6,0.5-1.3,0.8-2.1,1c-0.3,0.1-0.4,0.3-0.4,0.6c0,0.2,0.2,0.3,0.4,0.4l3.5,0.6
	c1,2.3,13.7,11.8,21.7,14.5c0.3,0.1,0.5,0,0.6-0.3c0.1-0.2,0-0.5-0.3-0.6c-5.1-2.3-9.7-5.7-13.4-9.9c-2.5-2.6-4.2-5.9-5.1-9.4
	c7.7-0.1,15.2-2.1,21.9-5.8c1.5-0.8,2.9-1.8,4.2-3c6.4,8.2,15.1,14.4,25,17.6c1,1.3,1.9,2.7,2.7,4.1c-6.2,5.7-14.1,9.2-22.5,9.8
	c-0.3,0-0.5,0.3-0.5,0.5c0,0.2,0.2,0.4,0.4,0.5c1.7,0.2,3.5,0.4,5.2,0.4c8.1,0,16-2.5,22.6-7.3c0.2-0.2,0.3-0.5,0.1-0.7
	c-0.1-0.1-0.2-0.2-0.3-0.2c-0.7-0.1-1.4-0.5-1.9-1.1c5.4-0.3,10.4-2.8,13.9-6.8c5.9,0.3,11.8-0.3,17.5-1.9c0.2-0.1,0.4-0.3,0.4-0.6
	c0-0.3-0.3-0.4-0.5-0.4c-2.2,0.2-4.4,0.3-6.5,0.3c0.1-0.3,0-0.5-0.3-0.6c0,0,0,0,0,0c-2.9-0.9-5.8-2-8.7-3.2l4.3-0.8
	c0.3,0,0.5-0.3,0.4-0.6c0-0.1-0.1-0.3-0.2-0.3l-0.9-0.5c1.5,0.4,2.9,0.7,4.4,1c0.3,0.1,0.5-0.1,0.6-0.4c0-0.2,0-0.4-0.2-0.5l-1-0.9
	c11.5,4.1,23.7,6,35.9,5.5c0.6-0.1,1.1-0.1,1.7-0.1c6.1,3.6,12.1,7.5,18.1,11.6c-8,1.3-16.2,1.2-24.2-0.2c-0.3,0-0.6-0.1-0.9-0.2
	c-4.7-1.5-9.2-3.8-13.1-6.8c-0.2-0.2-0.5-0.1-0.7,0.1c-0.1,0.2-0.1,0.4,0,0.6c0.9,1.4,1.7,2.6,2.5,3.7c-1.8-1.1-3.4-2.6-4.7-4.3
	c-0.2-0.2-0.5-0.2-0.7,0c-0.2,0.2-0.2,0.4-0.1,0.6c2.2,3.1,4.6,6,7.1,8.9l-13.6-0.3c-0.2,0-0.4,0.1-0.5,0.3c-0.1,0.2-0.1,0.4,0,0.5
	c1,1.4,2.2,2.7,3.5,3.8c-7.6-0.2-15.4-0.5-22.7-2.5c-0.3-0.1-0.5,0.1-0.6,0.3c-0.1,0.2,0,0.5,0.3,0.6c11.1,4.6,23,7,35,7
	c0.5,0,1,0,1.6,0c0.4,0,0.8-0.1,1.2-0.3c0.4-0.3,0.6-0.7,0.5-1.1c-0.1-0.8-0.5-1.5-1.2-1.9c-0.2-0.1-0.4-0.2-0.5-0.3h0
	c4.1,0.8,8.2,1,12.4,0.5c0.3,0,0.5-0.3,0.4-0.6c0-0.1-0.1-0.3-0.2-0.4l-4.5-3.1c4.4,0,8.7-0.5,13-1.5c1.4,0.1,2.9,0.1,4.3,0.3
	c5,0.6,9.9,2.2,14.3,4.6c-2.2-0.4-4.5-0.7-6.8-0.7l0,0c-0.3,0-0.5,0.2-0.5,0.5c0,0.1,0.1,0.3,0.1,0.3c3,3.1,4.1,7.4,4.9,12.3
	l-1.2-1.9c0-0.1-0.1-0.2-0.1-0.3c0-0.1-0.2-0.3-0.3-0.3l-0.2-0.4c-0.2-0.2-0.5-0.3-0.7-0.1c-0.1,0.1-0.2,0.2-0.2,0.3
	c-0.4,1.7-0.5,3.4-0.1,5.1c-0.2,3-0.1,5.9,0.3,8.8c-1.4-0.6-2.8-0.9-4.3-1c-0.3-0.4-0.5-0.7-0.8-1c-2.9-3.2-6.7-5.4-10.9-6.6
	c-2.2-1-4.6-1.7-7-2.1c-5.4-0.9-11.7-1.8-17.7-0.5c-2.7,0.6-5.3,1.7-7.6,3.2c-1.4,0.9-2.8,1.6-4.3,2.3c-0.9,0.3-1.8,0.5-2.7,0.6
	c-2.4,0.3-5.3,0.7-10.4,5.1c-3.1,2.5-5,6.1-5.4,10.1h-74.3c0.5-5.3-1.8-10.5-6.2-13.7c-5.4-4.1-8.3-4.3-10.7-4.4
	c-0.9,0-1.8-0.2-2.7-0.4c-1.5-0.6-3-1.3-4.5-2c-2.4-1.4-5-2.3-7.7-2.7c-5.1-0.7-10.2,0-14.9,1.1c-5.9-0.1-11.7,1-17.1,3.2
	c1.9-3.9,4.2-7.7,6.8-11.1c0.2-0.2,0.1-0.5-0.1-0.7c-0.1-0.1-0.3-0.1-0.5-0.1c-2,0.7-3.9,1.8-5.5,3.2c1-2.8,2.1-5.5,3.4-8.1
	c4.9-6,12-9.9,19.7-10.7c0.3,0,0.5-0.3,0.5-0.5c0-0.2-0.1-0.4-0.3-0.4c-5.4-2-11.4-1.4-16.3,1.6l0-4.3c0-0.3-0.2-0.5-0.5-0.5
	c-0.1,0-0.2,0-0.3,0.1l-6.6,5.6c-2.5-4.6-2.8-10.1-1.1-15C275.3,302.9,275.2,302.6,275,302.5L275,302.5z M304.1,218.4
	c2.1-0.4,4.5-0.9,6-2.6c0.2-0.2,0.2-0.5-0.1-0.7c-0.1-0.1-0.2-0.1-0.3-0.1l0,0l-4.4,0c5.7-3,12.3-3.8,18.6-2
	c0.3,0.1,0.5-0.1,0.6-0.3c0-0.1,0-0.3-0.1-0.4c-1.6-2.3-4.2-3.6-6.9-3.5c-1.8,0.1-3.5-0.6-4.7-1.9l3.2-0.8c0.3-0.1,0.4-0.3,0.4-0.6
	c0-0.2-0.2-0.3-0.4-0.4c-3.4-0.8-5.3-4.3-5.5-7.3c-0.2-2.7,0.7-5.6,2.6-8.7l1.2,2.1c0.1,0.2,0.4,0.3,0.7,0.2
	c0.1-0.1,0.2-0.1,0.2-0.3c0.7-1.8,1-3.8,0.9-5.8c1.5,1.3,2.8,2.8,3.8,4.4c0.1,0.2,0.5,0.3,0.7,0.2c0.2-0.1,0.2-0.3,0.2-0.4
	c-0.2-3.3-1.9-6.4-3.4-8.7c-0.4-0.6-0.8-1.2-1.2-1.8c-0.2-0.3-0.5-0.7-0.7-1c7.3-1.5,14.7-1.7,22.1-0.7c-1.1,0.1-2.2,0.3-3.3,0.6
	c-0.3,0.1-0.4,0.3-0.4,0.6c0,0.2,0.2,0.4,0.5,0.4c6.1,0.3,11.9,2.2,17,5.6c0.2,0.2,0.5,0.1,0.7-0.1c0.1-0.2,0.1-0.4,0-0.6
	c-1.1-1.4-2.4-2.6-3.9-3.6c3.1,0.9,6,2.4,8.6,4.3c0.2,0.2,0.5,0.1,0.7-0.1c0.1-0.2,0.1-0.5,0-0.6c-3.3-3.4-7.3-6-11.7-7.7
	c1,0.2,2.1,0.5,3.4,0.8c0.3,0.1,0.5-0.1,0.6-0.4c0.1-0.2-0.1-0.5-0.3-0.6c-5.4-2.5-11.4-3.6-17.3-3.2c-0.3,0-0.5,0-0.8,0.1
	c-0.3,0-0.5,0.3-0.4,0.6c0,0.3,0.3,0.5,0.5,0.4c0.2,0,0.5,0,0.7-0.1c1.5-0.1,3,0.3,4.3,1c-5.3-0.3-10.6-0.1-15.8,0.5
	c-2.1,0.3-4.2,0.7-6.3,1.2c-0.7-1-1.2-2.1-1.7-3.2c-1.1-2.5-1.2-5.3-0.2-7.8c1.4,1.6,3,3,4.7,4.2c0.2,0.2,0.5,0.1,0.7-0.1
	c0.1-0.2,0.1-0.4,0-0.6c-2-2.6-3.5-5.6-4.5-8.7c1.6-0.1,3.2-0.1,4.8,0c0.6,2.8,1.6,5.2,3.2,6.5c0.7,0.5,1.6,0.8,2.5,0.8
	c0.5-0.1,1.1-0.2,1.6-0.4c1.4-0.4,2.9-0.5,4.4-0.2c2.7,0.4,5.3,1.1,7.9,1.8c-4-1.9-8.2-4.6-12.8-3.7c-1.8,0.3-1.1,0.4-2.2-0.3
	c-0.7-0.5-1.3-2.1-1.9-4.3c4.5,0.4,8.9,1.5,13.1,3.1l-3.2,0c-0.3,0-0.5,0.2-0.5,0.5c0,0.3,0.2,0.5,0.5,0.5c4.3,0.4,8.5,1.5,12.5,3.1
	c0.3,0.1,0.5,0,0.7-0.3c0-0.1,0-0.1,0-0.2c0.1-2.5-2.5-3.6-5-4.6c-5.9-2.4-12.2-3.9-18.5-4.4c-1.1-6.1-1.4-14.7-0.1-18.5
	c-1.9,3.6-3.2,11.8-2.5,18.4c-1.7-0.1-3.4,0-5.1,0c-1.1-4.2-1.3-8.6-0.6-12.9c0.4-1.1,0.8-2.2,1.2-3.4c0.4-1.4,0.9-2.8,1.5-4.2
	c1.2-3,2.9-5,4.9-5.9c2.2-1,5.4-0.7,6.7,1.5c1.1,2,0.4,4.5-0.4,6.5l-0.2,0.5c-0.8,2.2-1.7,4.4-1.2,6.7c0.8,3.1,3.8,4.9,6.5,6.5
	l0.7,0.4c6.1,3.6,11.1,8.8,14.5,15.1c-2.2-0.2-4.4,0.4-6.3,1.6c-0.2,0.2-0.3,0.5-0.1,0.7c0.1,0.1,0.2,0.2,0.4,0.2
	c7.6,0.7,14.4,4.9,18.6,11.3c0.2,0.4,0.5,0.7,0.7,1.1c1.3,2.2,2.7,4.4,5.1,5.2c0.3,0.1,0.5,0,0.6-0.3c0-0.1,0-0.1,0-0.2l0-1.9
	c0.3,0.4,0.6,0.8,0.9,1.1c0.2,0.2,0.5,0.2,0.7,0c0.1-0.1,0.2-0.3,0.1-0.5c-0.7-2.5,0.9-5.1,2.7-6.6c1.6-1.2,3.3-2.1,5-2.8
	c0.7-0.3,1.3-0.6,2-0.9c0.6-0.3,1.3-0.7,1.9-1.1c0.3,0.1,0.6,0.2,0.9,0.3c0.3,0.1,0.6,0.3,0.9,0.5c0.9,0.6,2,1,3,1
	c0.5,0,1.1-0.2,1.6-0.4c0.4-0.1,0.8-0.2,1.2-0.3c1.2,0,2.3,0.4,3.2,1.1l0.5,0.3c3.9,2.1,8.4,2.8,12.7,2l-0.7,1.1
	c-0.1,0.2-0.1,0.4,0,0.5c0.1,0.2,0.3,0.2,0.5,0.2l7.3-1.4c1.2-0.6,2.7-0.1,3.5,1l0.3,0.3c0.7,0.7,1.5,1.4,2.4,1.9
	c1.2,2.8,3.1,5.2,5.7,6.8c0.4,0.3,0.9,0.5,1.4,0.8c0.9,0.4,1.7,1,2.4,1.5c1.1,0.8,1.7,2.1,1.5,3.5c-0.1,0.3,0.1,0.5,0.4,0.6
	c0.2,0,0.3,0,0.4-0.1c0.4-0.4,0.8-0.9,1.1-1.4c0.6,4,0.3,8.1-0.9,12c-0.1,0.3,0.1,0.5,0.3,0.6c0.2,0.1,0.4,0,0.5-0.1
	c3-3.3,5.6-7,7.9-10.9l0.2,6.8c0,0.2,0.2,0.4,0.4,0.5c0.2,0,0.5-0.1,0.6-0.3c2.7-5.5,7.4-9.9,13.1-12.2c0.3-0.1,0.4-0.4,0.3-0.7
	c-0.1-0.1-0.2-0.2-0.3-0.3c-2-0.8-4.2-0.8-6.3,0l5.5-6.4c0.1-0.1,0.2-0.4,0.1-0.5c-0.1-0.2-0.3-0.3-0.5-0.3c-1.2,0-2.3,0.2-3.4,0.5
	c7.3-6.3,17.2-8.7,26.6-6.4c0.3,0.1,0.5-0.1,0.6-0.4c0-0.1,0-0.3-0.1-0.4c-1.8-3-1.7-7.3,0.3-11c2.1-3.8,5.7-6.5,8.2-8.2
	c2.7-1.8,4.7-2.4,6.4-1.7c1.9,0.8,2.7,3,3.2,4.9c3,10.7,2,22.1-2.9,32.1c-1-0.1-2-0.3-3.1-0.4c2.7-4.9,4.5-10.3,5.3-15.8
	c-1.5,4.1-3.7,7.9-5.5,11.8c-0.6,1.3-1.3,2.6-2,3.8c-0.9-0.1-1.7-0.1-2.6-0.1c-1-1-2.1-2.5-3.2-3.4c-0.5-0.5-1.1-1-1.6-1.4
	c0.4,0.4,0.7,0.9,1,1.4c0.8,1,1.4,2.2,2.1,3.4c-8.6-0.2-17.1,1.6-24.9,5.1c-0.3,0.1-0.4,0.4-0.2,0.7c0.1,0.1,0.2,0.2,0.4,0.3
	c1.1,0.2,2.7,0.4,4.5,0.5c2.1,0.2,4.4,0.4,6.7,0.8c0.3,0,0.5-0.2,0.6-0.4c0-0.2-0.1-0.4-0.3-0.5c-1.8-0.9-3.8-1.5-5.9-1.6
	c6.6-2.1,13.5-3.1,20.5-3c0,0,0,0,0.1,0.1c1.1,1,2.8,1.1,3.9,0.1c1.2,0.1,2.3,0.2,3.5,0.3c-0.5,0.9-1,1.8-1.6,2.7
	c-0.1,0.2-0.1,0.5,0.2,0.7c0.1,0.1,0.3,0.1,0.4,0.1c2.1-0.5,4-1.5,5.6-2.9l0.1,0c-3.1,6.2-7.9,11.5-13.9,15.1
	c-0.4,0.2-0.7,0.4-1.1,0.7c-2,1-3.8,2.4-5.3,4.2c-0.8,1.3-1.5,2.8-1.9,4.3c-0.3,0.8-0.5,1.6-0.8,2.4c-0.9,2-2.7,4-4.8,3.8
	c-0.3,0-0.5,0.2-0.6,0.4c0,0.3,0.2,0.5,0.4,0.6c3.2,0.4,6.4,0.3,9.5-0.2c-2.8,3.1-6.6,5.3-10.8,6.1c-0.3,0.1-0.4,0.3-0.4,0.6
	c0,0.2,0.1,0.3,0.3,0.4c3.2,1.3,6.7,1.8,10.2,1.5c-3.5,1.5-7.3,1.8-11,0.8l-0.2-0.1c-0.3-0.1-0.5,0.1-0.6,0.4
	c-0.1,0.3,0.1,0.5,0.3,0.6l0.3,0.1c2.2,0.6,4.4,1.4,6.5,2.3l-1.6,0.7c-0.3,0.1-0.4,0.4-0.2,0.7c0.1,0.1,0.2,0.2,0.3,0.3
	c6.3,2.3,11.6,6.7,15,12.5l-2.9,1.2c-0.3,0.1-0.4,0.4-0.3,0.7c0.1,0.1,0.2,0.2,0.3,0.3c2,0.8,3.9,1.7,5.7,2.8l4.8,7.4
	c-2.8-1.2-5.9-1.7-9-1.6c-0.2,0-0.4,0.1-0.4,0.3c-0.1,0.2-0.1,0.4,0,0.5c1.4,1.9,3.2,3.3,5.4,4.3c-0.4,0.4-0.6,1-0.6,1.6
	c-4.3,0.5-8.7,0.5-13.1-0.2c-0.3,0-0.5,0.2-0.6,0.4c0,0.2,0,0.3,0.2,0.4c3.1,2.9,6.9,5.1,11,6.3l-8.7,0.7c-0.3,0-0.5,0.3-0.5,0.5
	c0,0.1,0.1,0.2,0.1,0.3c1.3,1.3,3.1,2.1,5,2.2c-5.1,3.7-11,6-17.2,6.9c-6.2-2.1-12.6-4.1-19-5.6c-1.3-0.3-2.7-0.6-4-0.9
	c5.8-1.8,11.1-4.8,15.6-8.8c0.2-0.2,0.2-0.5,0-0.7c-0.1-0.1-0.2-0.2-0.4-0.2c-3.8-0.1-7.5-0.6-11.1-1.6c-0.3-0.1-0.7-0.2-0.9-0.5
	c0,0,0-0.1,0-0.1c0-0.1,0.2-0.2,0.4-0.3l5.2-3.4c0.2-0.1,0.3-0.5,0.1-0.7c-0.1-0.1-0.2-0.2-0.3-0.2c-1.4-0.4-2.9-0.6-4.4-0.5
	l4.7-4.4c0.2-0.2,0.2-0.5,0-0.7c-0.1-0.2-0.4-0.2-0.6-0.1c-7.6,3.1-15.9,4.2-24.1,3.4c-0.3,0-0.5,0.2-0.5,0.4c0,0.2,0.1,0.4,0.3,0.5
	l3.8,1.8c-4.2-0.1-8.4-0.7-12.5-1.7c-3.8-1-9-3.2-12.4-7.8c-1.9-2.7-3-5.8-3.3-9c0-0.3-0.2-0.5-0.5-0.5h0c-0.3,0-0.5,0.2-0.5,0.5
	c-0.3,6.5,1.9,12.8,6.1,17.7c-2-0.5-3.9-1.4-5.5-2.7c-0.2-0.2-0.5-0.1-0.7,0.1c-0.1,0.2-0.1,0.4,0,0.6c2,2.4,4.3,4.6,6.8,6.6
	c-4.7-0.9-8.9-3.2-12.1-6.7c0-2.1,0.5-4.2,1.5-6c0.1-0.2,0.1-0.5-0.2-0.7c-0.1,0-0.2-0.1-0.2-0.1c-1.5,0-3,0.5-4.2,1.5
	c0.4-2.1,0.6-4.3,0.6-6.4c0-0.3-0.2-0.5-0.5-0.5c-0.1,0-0.1,0-0.2,0c-1,0.3-1.8,0.9-2.5,1.7c0-3.4,0.4-6.8,1.4-10
	c0.4,1.8,1.1,3.4,1.9,5c0.1,0.2,0.4,0.3,0.7,0.2c0.2-0.1,0.3-0.2,0.3-0.4c0.2-2.5,1.9-8.7,4.2-14.3c-0.3,1.4-0.3,2.8-0.2,4.1
	c0,0.3,0.3,0.5,0.6,0.4c0.2,0,0.3-0.1,0.4-0.3c0.5-1.2,7.4-8.7,13.4-8.5c-0.2,0.3-0.6,0.6-0.9,1c-1.9,2-5.5,5.8-5.9,11
	c0,0.3,0.2,0.5,0.5,0.5c0.2,0,0.3-0.1,0.4-0.2c2.6-3.3,5.8-6,9.4-8.1c3.6-2.1,7.7-3.1,11.9-2.9c1.1,0.1,2.1,0.2,3.2,0.4
	c1.3,0.2,2.7,0.4,4,0.4c1.8,0,5-0.3,6.9-2.6c0.1-0.2,0.2-0.4,0.1-0.5c-0.1-0.2-0.3-0.3-0.5-0.3c-5.4,0.4-10.8-0.5-15.8-2.5
	c1.8-1,3.7-1.7,5.7-2.2c0.3-0.1,0.4-0.3,0.4-0.6c0-0.2-0.2-0.3-0.3-0.4c-2.6-1-5.5-1-8.1-0.1l3-3.2c0.1-0.1,0.2-0.4,0.1-0.6
	c-0.1-0.2-0.3-0.3-0.5-0.3c-2.7,0.2-5.2,1.2-7.3,3c2.2-5.9,3.3-12.1,3-18.4c0-0.3-0.2-0.5-0.5-0.5c-0.2,0-0.4,0.1-0.5,0.3
	c-0.4,0.9-0.9,1.8-1.4,2.7c-0.2,0.4-0.5,0.8-0.7,1.2c-0.4-3.8-1.5-10.8-2.2-13.7c-0.1-0.3-0.3-0.4-0.6-0.4c-0.2,0-0.4,0.3-0.4,0.5
	c0.3,6.9-1.1,17.2-1.9,21.8c-0.8-1.9-2.1-4.4-3.1-5.1c-0.2-0.2-0.5-0.1-0.7,0.1c-0.1,0.1-0.1,0.3,0,0.5c1.4,3.2,1.3,6.8-0.3,9.9
	c-1.4,2.6-3.8,4.6-6.1,6.3l0.2-3.1c0-0.3-0.2-0.5-0.5-0.5c-0.2,0-0.4,0.1-0.5,0.3c-0.6,1.2-1.3,2.4-1.8,3.7
	c-0.4-3.8-2.4-7.3-5.5-9.5c-0.2-0.2-0.5-0.1-0.7,0.1c-0.1,0.1-0.1,0.3-0.1,0.4c1.3,3.9-0.4,7.8-2.3,11.1c0.3-3-0.1-5.1-2.7-7.6
	c-0.2-0.2-0.5-0.2-0.7,0c-0.1,0.1-0.1,0.2-0.1,0.3c-0.7,7.1-1.3,9.9-8,14.4c-0.3-3.9-0.3-7.8-0.1-11.7c0-0.5,0-0.8,0-1
	c0-0.3-0.2-0.5-0.5-0.5c-0.2,0-0.3,0.1-0.4,0.2c-0.5,0.8-1.3,2.1-2.1,3.4c-0.7,1.1-1.3,2.2-1.8,3c-0.8-1.2-1.4-2.6-1.8-4
	c0-1,0-2-0.1-2.9c-0.1-1-0.2-1.9-0.3-2.9c-0.3-2.2-0.4-4.5-0.3-6.8c0.1-2.5,0.9-4.9,2.3-7l1.3-1.4c0.2-0.2,0.2-0.5,0-0.7
	c-0.2-0.2-0.5-0.2-0.7,0c-0.5,0.5-1,1-1.4,1.5l-3.8,4.1c2.9-7.2,8.2-13.1,15.1-16.7c0.2-0.1,0.3-0.4,0.2-0.7
	c-0.1-0.2-0.3-0.3-0.5-0.3c-10.1,2.3-18.1,9.9-20.9,19.9c-1.5-2.7-3.5-5.2-5.9-7.2c-0.2-0.2-0.5-0.2-0.7,0.1c-0.2,0.2-0.2,0.5,0,0.7
	c1.2,1.3,1.9,3,1.8,4.8c-0.9-0.7-2-1.1-3.2-1.2c-3.7-0.5-7.4-0.6-11.1-0.4c-0.3,0-0.5,0.3-0.5,0.5c0,0.2,0.1,0.3,0.3,0.4
	c2.1,1.1,4,2.4,5.6,4.1c-3.1,0.3-5.9,0.6-7.4,1.5c-0.2,0.2-0.3,0.5-0.1,0.7c0.1,0.1,0.2,0.2,0.3,0.2c10.5,2.6,19.1,10,23.3,20
	c0.1,2.2,0.1,4.5-0.2,6.7c-0.8,2.1-2,4-3.5,5.7c-1,1.1-2.1,2-3.3,2.9c-5.1,1.9-10.6,2.8-16.1,2.6c0.9-0.3,1.7-0.8,2.4-1.4
	c0.2-0.2,0.2-0.5,0-0.7c-0.1-0.1-0.2-0.1-0.3-0.1c-9.4-1.7-18.1-7.4-24.4-16.1c-0.2-0.2-0.5-0.3-0.7-0.1c-0.2,0.1-0.2,0.3-0.2,0.5
	c0.9,3.8,2.5,7.5,4.7,10.8c-1.3-1.2-2.4-2.6-3.2-4.2c-0.1-0.2-0.4-0.3-0.7-0.2c-0.2,0.1-0.3,0.4-0.2,0.6c1.2,3.5,2.8,6.9,4.9,10
	c-1.9-1.2-3.7-2.5-5.4-4.1c-0.2-0.2-0.5-0.2-0.7,0c-0.2,0.2-0.2,0.4,0,0.6l7.6,10.3l-6.1-2.1c-0.4-0.1-0.8-0.1-1.1,0
	c-0.2,0.1-0.3,0.3-0.4,0.5c0,0.4,0.1,0.8,0.4,1l3.4,3.1l-6-2.6c-0.3-0.1-0.5,0-0.7,0.3c-0.1,0.2-0.1,0.3,0,0.5c1.7,2.6,3.8,5,6.2,7
	c-5.2,0.5-10.5,1.2-15.8,2.2c-2.5-0.2-5-0.3-7.6-0.4c-1.8-1.2-3.5-2.5-5.3-3.8c2,0,4-0.5,5.7-1.4c0.2-0.1,0.3-0.4,0.2-0.7
	c0-0.1-0.1-0.1-0.1-0.2L284.7,252l5.8-3.8c0.2-0.2,0.3-0.5,0.1-0.7c-0.1-0.1-0.2-0.2-0.4-0.2l0,0l-4.6,0c1.6-2.1,3.7-3.8,6-5.1
	c0.2-0.1,0.3-0.4,0.2-0.7c-0.1-0.2-0.2-0.3-0.4-0.3l-7.4-0.5c2.3-3.9,6.1-6.6,10.6-7.4c0.3,0,0.5-0.3,0.4-0.6c0-0.1,0-0.1-0.1-0.2
	c-1-1.7-2.6-2.9-4.4-3.6c2-1.2,4.2-2.1,6.4-2.7c0.3-0.1,0.4-0.3,0.4-0.6c0-0.2-0.2-0.3-0.4-0.4c-1.6-0.4-3-1-4.3-2l5.5-3.3
	c1.8-0.7,3.6-1.2,5.5-1.6L304.1,218.4z M332.3,173.1c-0.3,0-0.7,0-1,0.1C331.6,173.2,332,173.1,332.3,173.1L332.3,173.1z
	 M492.2,303.3c-0.3,0.1-0.4,0.3-0.4,0.6c0,0.2,0.2,0.4,0.5,0.4c2.9,0.2,5.5,2.1,6.5,4.8c0.3,0.8,0.5,1.7,0.6,2.6
	c0.1,1.6,0.7,3.1,1.5,4.4c-4.5-0.2-8.9-1.3-13.1-3c-0.3-0.1-0.5,0-0.7,0.3c0,0.1-0.1,0.2,0,0.3c0.4,1.5,0.5,3.2,0.2,4.8
	c-1.3-1.2-2.7-2.2-4.3-2.9c-0.3-0.1-0.5,0-0.7,0.3c-0.1,0.1-0.1,0.3,0,0.5l2.3,3.9c-0.5,0.1-1.1,0.2-1.6,0.3
	c-5.7-4-11.6-7.8-17.6-11.4c5,0.1,9.9,1.7,14,4.6c0.2,0.2,0.5,0.1,0.7-0.1c0.1-0.2,0.1-0.4,0-0.6c-1.7-2.7-3.8-5.2-6.1-7.3
	c3.3,1,6.4,2.4,9.2,4.4c0.2,0.2,0.5,0.1,0.7-0.1c0.1-0.1,0.1-0.2,0.1-0.3c-0.6-4.2-2.7-8.1-5.9-10.9c1.9,0,3.7-0.2,5.6-0.7
	c3.6,1.6,7.1,3.2,10.7,4.9C493.7,303,492.9,303.1,492.2,303.3z M269.8,275.7c2.6-2.6,5.9-4.4,9.4-5.3c-1.7,1.7-3.3,3.6-4.8,5.6
	c-1.7,0.5-3.4,1-5,1.6C269.6,276.9,269.7,276.3,269.8,275.7L269.8,275.7z M408.1,289.4c0.4,0.2,0.9,0.4,1.3,0.5c-0.4,0-0.8,0-1.2,0
	C408.1,289.7,408.1,289.5,408.1,289.4L408.1,289.4z M355.9,265.3c-0.2,0.1-0.4,0.3-0.3,0.6c0,0.2,0.3,0.4,0.5,0.4
	c1.6,0,3.2-0.4,4.6-0.9c-0.9,1.3-1.5,2.8-1.8,4.4c-1.9-0.6-3.9-1.2-5.8-1.6c0-0.2-0.1-0.5-0.3-0.5c0,0-0.1,0-0.1,0
	c-0.9-0.1-1.8-0.1-2.8-0.2c-1-0.2-2.1-0.4-3.1-0.5c4-1.6,7.6-3.9,10.6-6.9c1.6-0.2,3.3-0.5,5-0.6
	C360.4,262.5,358.4,264.5,355.9,265.3L355.9,265.3z M387.4,270L387.4,270c0.7,0.8,1.2,1.8,1.3,2.9c0.1,0.8-0.3,1.5-0.9,1.9
	c-0.5,0.4-1.6,1.1-2,0.8c-0.1-0.1-0.3-0.2-0.4-0.4c-0.2-0.3-0.5-0.5-0.8-0.7c-0.7-0.3-1.5-0.3-2.2,0.2c-0.9,0.9-1.7,1.8-2.3,2.9
	l-0.2,0.2c-0.9,1.5-1.5,3.1-1.9,4.7c-0.2-0.2-0.4-0.3-0.6-0.5c-0.3-0.2-0.5-0.5-0.8-0.7c0-0.4,0-1,0-1.4c0-0.6,0.1-1.2,0.2-1.8
	c0.1-0.6,0.2-1.3,0.2-2c0-0.9-0.4-1.2-0.7-1.3c-0.4-0.1-0.9,0.1-1.1,0.5c-0.1,0.2-0.2,0.5-0.3,0.8c-0.3,1.7-0.9,3.3-1.7,4.8
	c-0.4,0.4-0.9,0.8-1.4,1.2c-0.1,0-0.3,0.1-0.4,0.1c0.5-1.9,0.6-3.9,0.5-5.9c-0.1-0.4-0.7-3.7-1.2-4.3c-0.5-0.6-1.3-0.9-2.1-0.6
	c-0.3,0.1-0.7,0.3-0.9,0.5c-0.2,0.1-0.3,0.2-0.5,0.3c-0.5,0.3-1.3-0.2-1.8-0.7c-0.4-0.9-0.4-1.9-0.1-2.8c0.1-0.4,0.4-0.8,0.7-1.1
	c0.7-0.7,1.6-1.2,2.5-1.5c1.3-0.2,2.6-0.1,3.9,0.4c0.5,0.1,1,0.3,1.4,0.5c2.1,0.8,4.4,1.2,6.6,1.2c0.4,0,0.7,0,1.1,0.1
	c1.6,0,3.2,0.4,4.7,1C386.7,269.4,387.1,269.7,387.4,270L387.4,270z M384.5,276.9c0.1,0,0.1,0,0.2,0
	C384.6,276.9,384.5,276.9,384.5,276.9L384.5,276.9z M366.8,265.1c-1.1,0.6-2,1.5-2.6,2.6c-0.4,0.6-0.7,1.2-0.8,1.8
	c-0.3,1.4,0.1,2.9,1.2,3.9c0,0.2,0,0.4,0,0.6c0.1,1.8,0.5,3.5,1,5.2c0,0.1,0.1,0.2,0.1,0.2c-1.8,2.8-4.8,4.5-8.1,4.8
	c1.2-1.4,2.3-2.9,3.1-4.5c0.1-0.2,0-0.5-0.2-0.7c-0.1,0-0.2-0.1-0.3-0.1c-0.9,0.1-1.8,0.4-2.7,0.8l1.2-2.6c0.1-0.2,0.1-0.4,0-0.5
	c-0.1-0.1-0.3-0.2-0.4-0.2c-0.7,0.1-1.4,0.2-2,0.4l2.7-4c0.2-0.2,0.1-0.5-0.1-0.7c-0.1-0.1-0.2-0.1-0.4-0.1
	c-1.7,0.3-3.4,0.6-5.1,0.8l-7.2-0.7c2.5-0.8,4.7-2,6.8-3.6c2,0.4,4.1,0.9,6.1,1.4c0,0,0,0,0,0.1c0,0.3,0.1,0.5,0.4,0.6
	c0.2,0,0.4-0.1,0.5-0.2c0,0,0.1-0.1,0.1-0.1c0.7,0.2,1.5,0.4,2.2,0.6c-0.7-0.3-1.4-0.5-2.1-0.8c1.7-2.5,4.1-4.4,6.8-5.7
	c0.5,0.1,1,0.1,1.5,0.2C367.8,264.6,367.3,264.8,366.8,265.1L366.8,265.1z M367.2,249.1c0.3-0.2,0.6-0.4,0.9-0.6
	c-1.5,2.1-2.7,4.3-3.7,6.6c-0.3,0.7-0.6,1.3-0.9,2c-0.3,0.7-0.7,1.4-1.1,2c-1.5,0.1-3,0.1-4.5,0.3c0.1-0.1,0.2-0.2,0.3-0.4
	c1.4-1.1,2.7-2.3,3.9-3.7c0.2-0.2,0.2-0.5-0.1-0.7c-0.1-0.1-0.3-0.2-0.5-0.1c-1.6,0.7-3.4,1-5.1,0.9c-0.4,0-0.8,0-1.2,0l0.1,0
	c0.7-0.3,1.3-0.6,1.9-1C360.5,252.7,363.9,251,367.2,249.1L367.2,249.1z M381.5,246.2c0,0.2,0.1,0.3,0.1,0.5
	C381.6,246.5,381.6,246.3,381.5,246.2L381.5,246.2z M325,295.6c-0.2,0-0.4-0.1-0.5-0.2C324.6,295.5,324.8,295.5,325,295.6L325,295.6
	z M433.9,294.2c1,1.8,2.3,3.4,4,4.7c-7.8,0-15.5-2-22.4-5.9c-0.2-0.1-0.5,0-0.7,0.2c-0.1,0.1-0.1,0.3,0,0.4l1.3,3
	c-1.3,0-2.6-0.1-3.9-0.2c-2.1-1.6-3.5-3.8-4.1-6.3c0.6,0,1.3,0.1,1.9,0.1c4.2,1.4,8.7,1.9,13.1,1.2c0.7-0.1,1.1-0.5,1.1-1
	c3.2,1.1,6.4,2.3,9.5,3.6C433.9,294.1,433.9,294.1,433.9,294.2L433.9,294.2z M397.6,282.6c-1.3-0.3-2.6-0.7-3.8-1.4
	c-0.2-0.1-0.5-0.1-0.7,0.2c0,0,0,0.1,0,0.1c-0.5,1.8-0.2,3.8,0.7,5.5c-1.3-0.6-2.4-1.7-3-3c-0.1-0.2-0.4-0.4-0.7-0.2
	c-0.2,0.1-0.3,0.2-0.3,0.4l-0.2,3.5c-0.5-0.7-1.1-1.3-1.8-1.7c-0.2-0.2-0.5-0.1-0.7,0.1c-0.1,0.2-0.1,0.4,0,0.6
	c0.5,0.9,1.2,1.6,2,2.3l-3.5-0.8c-0.2-0.2-0.4-0.3-0.6-0.5c-0.2-0.2-0.5-0.2-0.7,0c-0.1,0.1-0.2,0.3-0.1,0.5c0,0.1,0,0.1,0.1,0.2
	c0,0.1,0,0.3,0,0.4c0.1,0.2,0.2,0.4,0.4,0.5c0.1,0.2,0.2,0.4,0.3,0.5c0.6,1.2,1,2.5,1.2,3.8c-2.6-2.3-4.9-4.9-6.9-7.7
	c0.1,0,0.3,0,0.4,0c0.1,0,0.2,0,0.3,0c1-0.2,1.9-0.7,2.5-1.5c1.7-1.6,3.2-3.4,4.5-5.3c0.4-0.5,0.6-1.2,0.5-1.8c0,0,0,0,0,0
	c1.6-0.4,2.8-1.7,3-3.4c0-1.3-0.4-2.6-1.2-3.6c-0.5-0.7-1.1-1.4-1.8-1.9c1,0.3,1.9,0.5,2.8,0.8c1,1.8,1.7,3.7,2.1,5.6
	c0.1,0.3,0.3,0.4,0.6,0.4c0.2,0,0.4-0.3,0.4-0.5c-0.1-1.7-0.4-3.4-0.7-5.1c-0.2-1.2-0.4-2.4-0.5-3.7c1.8,3.7,3,7.7,3.7,11.7l0.1,0.4
	c0.1,1.1,0.4,2.2,0.8,3.2C397,281.8,397.3,282.2,397.6,282.6L397.6,282.6z M452.7,290c1.8,1.3,3.9,2.2,6.1,2.7
	c-7.5,2.5-15.6,2.8-23.4,0.9c-3.4-1.5-6.9-2.9-10.5-4c1.7-0.1,3.4-0.2,5-0.2C437.6,289.3,445.1,289.5,452.7,290L452.7,290z
	 M422.8,289l-0.6-0.3c0.9,0.1,1.8,0.2,2.6,0.2C424.2,289,423.5,289,422.8,289L422.8,289z M324.1,269c3.7,2.3,7.8,3.8,12,4.4
	c0,0-0.1,0.1-0.1,0.1c-5.1-1.2-10.3-2.2-15.5-3c1.1-0.4,2.1-0.9,3.2-1.3C323.8,269.1,323.9,269.1,324.1,269z M334.2,273.9
	c-0.9,0.1-1.8,0.2-2.7,0.3c-3.6,0.4-6.7,0.8-9.8,0.3c-0.2,0-0.5,0.1-0.6,0.3c-0.1,0.2,0,0.5,0.2,0.6c4.5,2.4,9.5,3.7,14.6,3.9
	c-3,0.9-6,1.6-9.1,2.1c-7.1-0.1-14.2-1-21.2-2.4l5.9-0.9c0.3,0,0.5-0.3,0.4-0.6c0-0.2-0.1-0.3-0.3-0.4c-1-0.5-2-1.1-3-1.6
	c3.3-1.6,6.6-3.1,10-4.5C324,271.8,329.1,272.8,334.2,273.9L334.2,273.9z M452.1,288.5c-0.2,0-0.4,0.1-0.5,0.3c0,0.1,0,0.3,0,0.4
	c-2.5-0.2-5-0.3-7.5-0.4c-5-0.2-10-0.1-15,0c2.6-0.3,5.1-1.5,7-3.3c0.2-0.2,0.2-0.5,0-0.7c-0.1-0.1-0.2-0.1-0.3-0.1
	c-1.5-0.2-2.9-0.6-4.3-1.1c1.9-0.3,3.7-0.8,5.5-1.3c2.1,0.5,4.2,1,6.3,1.5c5.5,1.4,10.9,3,16.3,4.8
	C457.1,288.8,454.6,288.7,452.1,288.5z M323.1,268.4c-1.5,0.6-3,1.2-4.5,1.8c-3.5-0.5-7-1-10.6-1.3c4.4-0.7,8.9-1.3,13.4-1.7
	C321.9,267.6,322.5,268,323.1,268.4z M317.1,270.8c-3.1,1.3-6.2,2.7-9.2,4.2c-2.6-1.5-5.2-3-7.7-4.7c1.5-0.3,3-0.6,4.4-0.9
	C308.8,269.7,313,270.2,317.1,270.8L317.1,270.8z M299.2,269.6c-0.3-0.2-0.5-0.4-0.8-0.5c0.9,0,1.8,0.1,2.7,0.1c0,0,0.1,0,0.1,0
	C300.5,269.3,299.9,269.5,299.2,269.6L299.2,269.6z M304.5,283.1c1.3,0.4,2.7,0.7,4,1.1c2.1,0.6,4.3,1,6.5,1.2
	c2.4,0.9,4.9,1.6,7.5,2c0.3,0,0.5,0.1,0.8,0.1c-0.7,0.2-1.3,0.4-2,0.5c-0.3,0.1-0.4,0.3-0.4,0.6c0,0.1,0.1,0.2,0.1,0.3
	c1.4,1.4,3.2,2.3,5.1,2.9c-2.4,0.8-4.9,1.1-7.4,1c-0.8-0.4-1.6-0.7-2.4-1.1c-1.1-0.5-2.3-1-3.4-1.5c0.6-0.4,1.1-1,1.5-1.6
	c0.1-0.2,0.1-0.5-0.2-0.7c-0.1,0-0.2-0.1-0.3-0.1c-8.2-0.2-16.4-0.7-24.6-1.6c2.7-1.7,5.5-3.3,8.3-4.9
	C299.9,281.9,302.2,282.5,304.5,283.1L304.5,283.1z M485.1,297.6c0.1,0,0.1,0,0.2-0.1c0.3-0.1,0.4-0.4,0.3-0.6
	c-0.1-0.2-0.2-0.3-0.4-0.4c-2.3-0.4-4.5-1.5-6.1-3.2c5.5,1,11,2.2,16.5,3.6c-0.2,0.1-0.3,0.2-0.3,0.4c0,0.2,0.1,0.4,0.3,0.5
	c2.7,1.1,4.9,3.1,6.1,5.7c-1.8-0.5-3.7-0.8-5.6-0.8C492.5,301,488.8,299.3,485.1,297.6L485.1,297.6z M501.8,298.8
	c-0.1-0.1-0.1-0.1-0.2-0.2l0.2,0.1C501.8,298.7,501.8,298.8,501.8,298.8L501.8,298.8z M502.3,295c-0.3,0-0.5,0.1-0.6,0.4
	c0,0.1,0,0.1,0,0.2c0.1,0.4,0.2,0.8,0.3,1.2c-0.1,0.4-0.1,0.8-0.2,1.2c-3.6-1-7.3-2-11-2.9c-3.6-0.8-7.3-1.6-10.9-2.2
	c2-0.9,4-2,5.8-3.3c1.6-1.1,3.2-2,4.8-2.9c2.3-1.2,4.9-1.6,7.5-1.4c2.8,3,4.8,6.6,5.8,10.5C503.5,295.3,502.9,295.1,502.3,295
	L502.3,295z M273.8,277c-1,1.4-1.9,2.9-2.7,4.5c-0.1,0.2,0,0.5,0.2,0.7c0.2,0.1,0.4,0.1,0.6-0.1c6.3-5.6,14.8-8.1,23.1-6.6l-8.3,4.4
	c-0.2,0.1-0.3,0.4-0.2,0.6c0.1,0.2,0.3,0.4,0.5,0.3c3.1-0.4,6.3-0.3,9.4,0.4c-2.8,1.6-5.6,3.3-8.3,5c-2.3-0.3-4.5-0.5-6.7-0.8
	c-1.7-0.3-3.3-1-4.7-2c-0.2-0.2-0.5-0.1-0.7,0.1c-0.1,0.1-0.1,0.3-0.1,0.4c0.7,2.6,3.6,3.7,6,4.4c0.7,0.2,1.3,0.4,2,0.6
	c-5,3.3-9.8,6.8-14.6,10.5c0.7-3.7,2.2-7.1,4.2-10.3c0.2-0.2,0.1-0.5-0.1-0.7c-0.1-0.1-0.3-0.1-0.5,0c-2.1,1-4,2.2-5.7,3.7
	c0.6-4.6,1.3-9.1,2.3-13.7C270.8,277.9,272.3,277.4,273.8,277z M508,304.9c0.1,0.5,0.3,0.9,0.4,1.4
	C508.3,305.8,508.1,305.3,508,304.9z M521.7,352.4c3.5,3.4,6.9,6.8,10.1,10.4h-41.1c-0.9-0.6-1.8-1.2-2.8-1.7c2.6-0.8,5.2-2,7.5-3.5
	c0.2-0.2,0.3-0.5,0.1-0.7c-0.1-0.1-0.2-0.2-0.3-0.2c-3-1-5.6-3-7.3-5.6l1.6,0.1c1.8,1.2,4,1.8,6.2,1.8c0.6,0,1.1,0,1.7-0.1
	c0.3,0,0.5-0.3,0.4-0.6c0-0.1-0.1-0.3-0.2-0.3c-2.9-2.3-4.9-5.4-5.9-9c-0.8-3.2-1.3-6.4-1.5-9.7c2.1,1.9,4.7,3,7.5,3.4
	c0.1,0,0.3,0,0.4-0.1c0.1-0.1,0.2-0.2,0.2-0.4c0.1-1.2,0.1-2.5,0.1-3.7C506.5,338.7,514.3,345.3,521.7,352.4z"/>
</svg>
