<?xml version="1.0" encoding="utf-8"?>
<!-- Generator: Adobe Illustrator 24.2.3, SVG Export Plug-In . SVG Version: 6.00 Build 0)  -->
<svg version="1.1" id="f7a7603b-71de-4155-9c62-6d6c0c3c544d"
	 xmlns="http://www.w3.org/2000/svg" xmlns:xlink="http://www.w3.org/1999/xlink" x="0px" y="0px" viewBox="0 0 683.2 452.1"
	 style="enable-background:new 0 0 719.4 465.4; fill: #215342;" xml:space="preserve" height="218" width="400" transform="translate(-50, 0)">
<path d="M348.4,246c0.7-0.3,1.5-0.3,2.3,0l7.1,2c0.1,0,0.3,0,0.4-0.1c0.1,0,0.1-0.1,0.1-0.2c0,0,0,0,0-0.1v-0.1l0,0
	c0-1.3-0.6-2.6-1.6-3.4l-0.4-0.4c-0.7-0.6-1.2-1.4-1.6-2.2c-0.4-1.2,0-2.4,0.6-3.6c0.2-0.4,0.4-0.8,0.7-1.2l0,0
	c0-0.1,0.1-0.1,0.1-0.2l0,0v-0.1l0,0c0,0,0-0.1-0.1-0.1l0,0l-0.1-0.1l0,0l0,0h-0.1h-0.1h-0.1h-0.1h-0.1l-0.1,0.1l0,0
	c-0.7,0.9-1.3,1.6-1.8,2.3c-1.2,1.5-1.9,2.6-3.1,2.8c-0.6,0.1-1.1,0.1-1.7,0c-0.5-0.1-1.1-0.1-1.6-0.1c-1.6,0.3-2.9,1.3-3.5,2.7
	c-0.2,0.5-0.3,1-0.4,1.5c-0.1,2,0.8,4,2.4,5.2c0.2,0.2,0.5,0.4,0.8,0.6c0.9,0.7,1.7,1.3,1.8,2.2c0.1,0.7-0.3,1.4-0.8,2.1
	c-0.4,0.4-0.8,0.8-1.2,1.1l0,0c-0.1,0.1-0.1,0.1-0.1,0.2c0,0,0,0,0,0.1s0,0.2,0,0.3c0,0,0,0,0,0.1v0.1l0,0c0.1,0.1,0.1,0.1,0.2,0.1
	c0,0,0,0,0.1,0s0.2,0,0.2,0l0,0l4.5-1.7c0.5-0.2,1-0.4,1.5-0.8c0.1-0.1,0.2-0.2,0.3-0.4c0.2-0.4,0.3-0.8,0.3-1.3
	c-0.1-1-0.6-1.9-1.3-2.5c-0.5-0.4-1-0.8-1.6-1.1s-1.1-0.7-1.6-1.1c-0.5-0.5-0.8-1.1-0.8-1.8c0-0.2,0-0.3,0.1-0.5
	C348.1,246.3,348.2,246.1,348.4,246z"/>
<path d="M373.9,259.7c0-0.2,0-0.4-0.1-0.6c0-0.1,0-0.2,0-0.3c0-0.2-0.1-0.5-0.2-0.7l0,0c-0.4-1.5-1.3-2.8-2.5-3.9l-0.1-0.1l0,0
	c-1.7-1.3-3.8-1.9-6-1.7c-0.2,0-0.3,0.2-0.4,0.4c0,0.1,0,0.2,0,0.3s0.1,0.2,0.1,0.3c0.3,0.4,0.6,0.8,0.9,1.1
	c1.3,1.3,2.4,2.9,3.1,4.7c0,0.1,0.1,0.2,0.1,0.3c0.1,0.4,0.2,0.8-0.1,1.1c-0.2,0.2-0.6,0.3-1.1,0.2c-1.1-0.1-2.3-0.5-3.3-1
	c-0.2-0.1-0.3-0.1-0.5-0.2c-0.5-0.3-1-0.5-1.5-0.6c-0.8-0.3-1.7-0.1-2.4,0.4c-0.6,0.5-1.2,1.5-0.7,3.6v0.2c0.2,0.7,0.3,1.5,0.2,2.3
	c-0.1,0.2-0.2,0.3-0.2,0.5c0,0.1,0,0.1,0,0.2c0,0,0,0,0,0.1v0.1c0,0,0,0,0,0.1c0,0,0,0.1,0.1,0.1c0,0,0,0,0.1,0.1c0,0,0,0,0.1,0
	c0,0,0,0,0.1,0c0,0,0,0,0.1,0l0,0h0.1l0,0c0.1,0,0.1,0,0.2-0.1l0,0c0.1,0,0.1-0.1,0.1-0.1c0.1-0.2,0.2-0.3,0.2-0.5
	c0.7-0.9,1.8-1.5,3-1.5c1,0,2,0.2,2.9,0.4c0.5,0.1,1,0.2,1.5,0.3c1.6,0.4,3.4,0.1,4.7-0.9C373.5,263,374.1,261.3,373.9,259.7
	L373.9,259.7z"/>
<path d="M353.4,295.4c0.8,1.6,1.8,3.1,3.1,4.4c0.2,0.2,0.4,0.3,0.7,0.3c0.2,0,0.4-0.1,0.6-0.2c0.1-0.1,0.2-0.2,0.3-0.4
	c0.6-1.2,0.3-3.8-1.3-6c-1.6-2.1-2.9-3.5-4-4.8c-1.2-1.3-2.4-2.6-4-4.7c-1.5-1.8-2.5-3.9-2.8-6.3c-0.1-1.8,0.4-3.6,1.3-5.2l0,0
	c0.1,0,0.2-0.1,0.3-0.2c0.6-0.8,1.3-1.6,2-2.3c0.7-0.7,1.6-1.1,2.5-1.3c0.4,0,0.9,0,1.3,0s0.9,0,1.3,0c1.4-0.1,2.7-0.9,3.6-2l0,0
	l0,0l0,0c0.1-0.2,0.1-0.4,0-0.5c-0.1-0.2-0.3-0.3-0.5-0.3l-5.2,0.4c-0.1,0-0.2,0-0.3,0c-0.1,0-0.1-0.2,0-0.4l0,0
	c0.1-0.2,0.2-0.4,0.4-0.5c0.1-0.1,0.2-0.3,0.3-0.4c0.1-0.1,0.2-0.3,0.2-0.4c0.2-0.4,0.1-0.9-0.1-1.3c-0.4-0.5-1.2-0.7-1.8-0.3
	c-0.3,0.2-0.7,0.4-0.9,0.8l-0.2,0.2c-0.2,0.2-0.4,0.4-0.7,0.4c-0.3,0-0.5-0.2-0.6-0.4c-0.2-0.3-0.3-0.6-0.4-1
	c-0.5-1.2-0.7-2.4-0.8-3.7v-0.1v-0.1c0,0,0-0.1-0.1-0.1c0,0,0,0,0-0.1l-0.1-0.1l0,0c0,0-0.1,0-0.2,0l0,0l0,0c-0.1,0-0.1,0-0.2,0l0,0
	c-0.1,0-0.1,0.1-0.2,0.1c-0.1,0.2-0.3,0.3-0.4,0.5c-0.7,1.3-0.3,2.9,0,3.8c0.1,0.4,0.3,0.7,0.4,1.1c0.4,0.8,0.6,1.7,0.7,2.6
	c0,0.5-0.1,1-0.2,1.5l0,0c-0.8,1.3-1.7,2.5-2.8,3.6c-1.6,1.8-3.8,2.9-6.2,3.1c-2.4,0.1-4.5-0.9-6.9-1.9c-0.7-0.3-1.4-0.7-2.2-1
	c-4.6-1.8-9.6-2.3-14.4-1.3c-0.9,0.2-1.5,0.6-1.8,1.1c-0.1,0.2-0.1,0.4-0.1,0.6c0,0.9,0.9,1.5,2.4,1.5c0.1,0,0.2,0,0.3,0
	c7.7,0,18.1,1.1,24.7,6.1C345.8,284.2,350.2,289.4,353.4,295.4z"/>
<path d="M332,265.2c0.4,0.2,0.8,0.4,1.2,0.5c0.8,0.2,1.6,0.4,2.4,0.4c0.1,0,0.1,0,0.2,0c1,0,2-0.5,2.5-1.3c0.1-0.1,0.1-0.2,0.1-0.4
	l0,0v-0.1c0,0,0,0,0-0.1l0,0c0,0,0-0.1-0.1-0.1l0,0c-0.3-0.2-0.7-0.4-0.8-0.5l0,0c-0.1-0.1-0.3-0.1-0.5-0.1
	c-1.6,0.4-3.3,0.4-4.9-0.1c-0.1,0-0.3,0-0.4,0c-0.1,0.1-0.2,0.2-0.2,0.3c-0.1,0.4,0.1,0.8,0.3,1.2C331.8,265,331.9,265.1,332,265.2z
	"/>
<path d="M335.9,253.5c-1.1-2.6-3.4-4.6-6.2-5.2c-4.1-2.9-8.9-4.5-13.9-4.7l0,0c-0.1,0-0.1,0-0.2,0l0,0l-0.1,0.1c0,0,0,0,0,0.1
	c0,0,0,0.1-0.1,0.1v0.1c0,0,0,0,0,0.1l0,0v0.1v0.1l0.1,0.1l0,0c1.5,1,3.2,1.7,5,2c1.2,0.2,2.3,0.6,3.4,1c1.1,0.6,2.1,1.2,3.1,2
	l7.3,5.5l0,0c0.1,0,0.2,0.1,0.3,0.1l0,0h0.1h0.1l0,0c0.2-0.1,0.3-0.2,0.3-0.4s0-0.3,0.6-0.6C335.9,254.1,336,253.8,335.9,253.5
	L335.9,253.5z"/>
<path d="M333.1,241.8c-0.4-0.2-0.8-0.5-1.2-0.7c-1.4-0.6-2.6-1.6-3.5-2.7c-0.1-0.2-0.3-0.4-0.4-0.6c-0.2-0.5-0.5-0.9-0.9-1.3
	c-0.1-0.1-0.2-0.2-0.4-0.3l0,0l2.2-1c0,0,0.1,0,0.1-0.1c0,0,0,0,0.1,0l0,0l0.1-0.1c0,0,0,0,0-0.1v-0.1c0,0,0,0,0-0.1v-0.1l0,0l0,0
	c-0.1-0.1-0.2-0.2-0.3-0.2c-2.4-0.6-4.8-0.8-7.2-0.5h-0.2c-2.1,0.1-4.2,0.2-5.5,1.4l-1.1,0.9c-0.1,0-0.1,0.1-0.1,0.2c0,0,0,0,0,0.1
	v0.1v0.1c0,0,0,0,0,0.1c0,0,0,0.1,0.1,0.1l0,0l0,0c0,0,0.1,0.1,0.2,0.1l0,0c0.1,0,0.1,0,0.2,0l4.3-0.3v0.1c0.1,0.5,0.5,0.9,1,1.1
	c0.4,0.1,0.8,0.2,1.3,0.1c0.2,0,0.4,0,0.5,0c1.2,0.1,2.1,1,3.1,2c3.1,3,6.5,5.5,10.2,7.6c0.1,0,0.2,0.1,0.2,0.1c0.1,0,0.2,0,0.2-0.1
	c0.1,0,0.1-0.1,0.2-0.2c0-0.1,0.1-0.1,0.1-0.2C336.8,245.3,335.5,243.3,333.1,241.8z"/>
<path d="M357.4,159.4c1.2-3.1,1.9-6.4,2.2-9.8c0-0.1,0-0.2-0.1-0.3l0,0c0-0.1-0.1-0.1-0.1-0.1l0,0l0,0c-0.1,0-0.1,0-0.2-0.1
	c-0.1,0-0.2,0-0.3,0.1l0,0c-0.1,0-0.1,0.1-0.2,0.2c-4.1,6.8-10.2,12.2-17.5,15.3l0,0l0.7-4.7c0-0.1,0-0.2,0-0.3l0,0
	c0-0.1-0.1-0.1-0.2-0.2c-0.1,0-0.1-0.1-0.2-0.1s-0.2,0-0.3,0l0,0c-0.1,0-0.2,0.1-0.2,0.2c-1,1.8-2.3,3.4-3.8,4.8l0,0
	c0.5-1.4,0.7-2.8,0.8-4.3c0-0.1,0-0.2-0.1-0.3l0,0c-0.1-0.1-0.1-0.1-0.2-0.2h-0.1l0,0l0,0c-0.1,0-0.2,0-0.3,0.1l0,0
	c-0.1,0.1-0.1,0.1-0.2,0.2c-1.9,5.5-6.5,9.7-12.2,11c-0.2,0-0.3,0.2-0.4,0.4l0,0c0,0.1,0,0.1,0,0.2l0,0l0,0v0.1c0,0,0,0.1,0.1,0.1
	l0,0l0.1,0.1l0,0c0.1,0,0.1,0,0.2,0c0,0,0,0,0.1,0c5.9-0.6,11.6-1.9,17.1-4.1l0,0c-0.5,0.6-1,1.2-1.3,1.9c0,0,0,0,0,0.1s0,0.1,0,0.2
	v0.1c0,0.1,0,0.2,0.1,0.2l0,0l0.1,0.1l0,0c0.1,0,0.2,0,0.2,0.1h0.1c0.1,0,0.1,0,0.2-0.1c0,0,0,0,0.1,0c1.4-1.2,3.5-1.7,6.2-1.6
	c0.8,0,1.6,0.1,2.4,0.2c1.5,0.2,3,0.2,4.6,0.1c4.1-0.6,7.8-2.5,10.5-5.6c2.6-3,4.9-6.3,6.7-9.8c0.1-0.2,0.1-0.4,0-0.5l0,0l-0.1-0.1
	l0,0l0,0h-0.1l0,0h-0.1c0,0,0,0-0.1,0h-0.1c-0.1,0-0.2,0.1-0.2,0.2c-1.9,2.5-4.6,4.5-7.6,5.5l0,0c1.5-2.4,2.2-5.1,2.2-7.8
	c0-0.2-0.1-0.3-0.2-0.4l0,0h-0.1h-0.1l0,0l0,0c-0.1,0-0.1,0-0.2,0l0,0c-0.1,0-0.1,0.1-0.2,0.2C362.3,153.5,359.9,156.5,357.4,159.4
	L357.4,159.4z"/>
<path d="M361.1,184.9c0.1,0,0.1,0.1,0.2,0.1l0,0l0,0c0.1,0,0.2,0,0.3-0.1l0,0c0,0,0-0.1,0.1-0.1c0,0,0,0,0-0.1v-0.1v-0.1l0,0v-0.1
	c0,0,0,0,0-0.1s0-0.1-0.1-0.2c-1.9-2.6-4.3-4.9-6.9-6.8c-2.1-1.4-4.5-2.4-7-2.7l0,0l3-1.4l0,0c0.1,0,0.1-0.1,0.2-0.1c0,0,0,0,0-0.1
	c0,0,0-0.1,0.1-0.1v-0.1v-0.1v-0.1l0,0l0,0l-0.1-0.1c0,0,0,0-0.1,0s-0.1-0.1-0.2-0.1l0,0c-5.3-0.7-10.7,0.5-15.2,3.3
	c-0.6,0.4-1.1,0.7-1.5,0.9s-0.8,0.4-1.2,0.7c-0.1,0.1-0.1,0.2-0.2,0.3c0,0.1,0,0.2,0,0.3c0.1,0.2,0.3,0.3,0.5,0.3
	c8.2-1.4,16.6,0.9,23,6.2l0,0c0.1,0,0.1,0.1,0.2,0.1c0,0,0,0,0.1,0s0.1,0,0.2,0c0,0,0,0,0.1,0h0.1c0,0,0.1,0,0.1-0.1l0,0l0,0
	c0-0.1,0.1-0.1,0.1-0.2c0,0,0,0,0-0.1s0-0.2,0-0.2l0,0c-0.3-0.8-0.7-1.5-1.1-2.2l0,0c1.8,0.9,3.5,2,5.1,3.2
	C361,184.8,361.1,184.8,361.1,184.9z"/>
<path d="M433.6,221c0,0.2,0.2,0.4,0.4,0.4c0.2,0,0.4-0.1,0.5-0.3l2.6-5.6l0,0c1.2,6,1.6,12.1,1.1,18.2c0,0.1,0,0.2,0.1,0.3
	s0.1,0.2,0.2,0.2c0.2,0.1,0.4,0,0.6-0.1l1.7-2l0,0c0.6,4.7,0.3,9.5-1,14.1c0,0.1,0,0.1,0,0.2c0,0.2,0.2,0.4,0.4,0.4h0.1
	c0.2,0,0.4-0.1,0.5-0.4c2-7,6.3-13.1,12.1-17.4l0.1-0.1l0.1-0.1c0-0.1,0-0.2,0-0.3l0,0l0,0c0-0.1-0.1-0.1-0.1-0.2l0,0
	c-0.1-0.1-0.1-0.1-0.2-0.1c-2.3-0.7-4.8-0.4-6.8,1c-3.4-6.8-2.3-15.1,2.9-20.7c0,0,0.1-0.1,0.1-0.2l0,0c0-0.1,0-0.1,0-0.2l0,0
	c0-0.1,0-0.1,0-0.2l0,0c0-0.1-0.1-0.1-0.1-0.2l0,0l0,0l-0.1-0.1l0,0h-0.1c-2.4-0.1-4.7,0.7-6.5,2.2l0,0c-0.1,0.1-0.3,0.3-0.4,0.4
	c-0.1,0.1-0.3,0.3-0.4,0.4l-0.1,0.1c-0.2,0.3-0.4,0.5-0.6,0.8c-0.7-4,0.4-7.9,1.8-10.8c0.8-1.7,1.7-3,2.5-3.7
	c0.3-0.2,0.5-0.3,0.8-0.5c0.1,0,0.1-0.1,0.1-0.1l0,0v-0.1v-0.1v-0.1V196l0,0v-0.1l0,0l0,0l-0.1-0.1l0,0c-0.1-0.1-0.2-0.1-0.4,0
	c-0.4,0.1-0.7,0.3-1,0.6C436.1,201.8,432,211.5,433.6,221L433.6,221z"/>
<path d="M362.5,221.5c2-2.1,3.7-4.5,5.2-7c0.9-1.3,1.7-2.7,2.7-3.9c2.2-3,5.9-6.7,10.4-7.1l0,0c0.1,0,0.2,0,0.2-0.1l0,0
	c0.1-0.1,0.1-0.2,0.1-0.3l0,0V203l0,0c0-0.1,0-0.1-0.1-0.2l-0.1-0.1l-0.1-0.1c0,0,0,0-0.1,0l0,0l0,0c-3.6-0.7-7.4,1.1-11.5,5.3
	c-1.1,1.1-2.1,2.3-3.1,3.4c-1.8,2.2-3.7,4.1-5.9,5.9c-3,2.2-6.2,3.9-9.7,5.2l0,0c-0.2-0.6-0.5-1.1-0.9-1.5c1.9-3.1,3.5-6.4,4.7-9.8
	c0.8-1.1,1.5-2.3,2.3-3.5c2.2-3.7,3.2-7,3.2-10.1c-0.2-4.7-2.6-9.1-6.4-12c-1.4-1-2.9-1.9-4.4-2.7c-2.6-1.2-5.4-2.1-8.2-2.5
	c-5.7-1.1-11.6-0.7-17.1,1.3c0,0,0,0-0.1,0l-0.1,0.1c0,0,0,0.1-0.1,0.1c0,0,0,0.1-0.1,0.1v0.1c0,0,0,0,0,0.1v0.1l0,0l0,0
	c0,0.1,0.1,0.1,0.1,0.2l0,0c0.1,0,0.1,0.1,0.2,0.1l0,0c0.2,0,0.4,0.1,0.6,0.2c1.3,0.5,2.1,2.1,2.1,3.5c-0.1,1.8-0.7,3.5-1.6,5
	l-0.3,0.6c-0.9,1.4-1.6,3-2,4.7c-0.3,2.2,0,4.4,1,6.3c2.3,5.3,6.8,9.3,12.4,10.8l0,0c0.1,0,0.1,0,0.2,0h0.1c0.1,0,0.2-0.1,0.2-0.2
	v-0.1c0,0,0,0,0-0.1l0,0c0-0.1,0-0.2,0-0.3v-0.1c0-0.1-0.1-0.1-0.1-0.2l0,0c-7.8-5.2-10.5-15.3-6.6-23.6c0.3-0.6,0.6-1.1,0.9-1.6
	c5.4-1.2,11.1-0.3,15.8,2.5l0,0c-0.3,0.1-0.5,0.3-0.7,0.6l0,0c0,0,0,0.1-0.1,0.1v0.1v0.1c0,0,0,0,0,0.1v0.1l0,0l0.1,0.1l0,0l0,0
	c0,0,0,0,0.1,0c0.3,0.1,0.5,0.3,0.7,0.5l0,0c0.2,0.2,0.4,0.3,0.5,0.5l0.1,0.1c0.1,0.2,0.2,0.4,0.3,0.6c0,0.1,0.1,0.1,0.1,0.2
	c0.1,0.2,0.2,0.4,0.2,0.6c0,0.1,0,0.1,0,0.2c0,0.2,0,0.3,0.1,0.5c0,0.1,0,0.2,0,0.2c0,0.1,0,0.3,0,0.4c0,0.1,0,0.2,0,0.3
	s-0.1,0.2-0.1,0.4c0,0.1-0.1,0.3-0.1,0.4v0.1c0,0.1-0.1,0.1-0.1,0.2c-0.1,0.2-0.2,0.3-0.3,0.5c-0.1,0.1-0.1,0.1-0.2,0.2
	c-0.1,0.1-0.3,0.3-0.4,0.4c-0.1,0.1-0.1,0.1-0.2,0.2c-0.2,0.1-0.4,0.3-0.6,0.4c0,0-0.1,0-0.1,0.1c-0.3,0.1-0.5,0.2-0.8,0.3
	c-1.8,0.2-3.6-0.4-4.7-1.8c-0.1-0.1-0.2-0.2-0.4-0.1l0,0c-0.1,0-0.2,0-0.2,0.1l0,0l0,0l-0.1,0.1c-0.2,0.3-0.4,0.6-0.5,1
	c-1.1,2.3-1.2,4.9-0.5,7.4c0.3,0.9,0.9,1.5,1.6,1.5h0.1c0.4,0,0.8-0.2,1.1-0.4c2.3-1.2,4.4-2.6,6.3-4.3c1.3-1.1,2.2-2.4,2.9-3.9
	c0.4-0.9,0.7-1.8,0.9-2.8c0-0.2,0-0.4,0.1-0.6l0,0c1.5,2,2.5,4.3,2.8,6.8c0.2,2.5-0.6,5-2,6.8c-0.9,1.2-2.1,2.2-3.5,2.7
	c-1,0.3-2,0.6-3.1,0.7c-2,0.3-4,0.7-5.4,2.2c-0.1,0.1-0.1,0.1-0.1,0.2v0.1v0.1v0.1l0,0l0.1,0.1l0,0l0,0c0.1,0.1,0.1,0.1,0.2,0.1l0,0
	c0.1,0,0.2,0,0.2,0c2.1-0.5,4.4-0.2,6.3,0.9c0.3,0.1,0.5,0.3,0.8,0.4c-0.2,0.4-0.4,0.8-0.6,1.2c-0.1,0.4-0.3,0.8-0.5,1.2
	c-0.6,1.2-1.4,2.3-2.3,3.2c-1.8,1.3-4,1.6-6.1,0.9c-2.1-0.7-4-1.9-5.5-3.6c-0.1-0.1-0.2-0.1-0.3-0.1l0,0h-0.1l0,0h-0.1
	c0,0,0,0-0.1,0c0,0,0,0-0.1,0c0,0,0,0,0,0.1c0,0,0,0,0,0.1v0.1v0.1c0,0,0,0,0,0.1v0.1l0,0c0,0.1,0,0.1,0.1,0.2
	c0.9,1.4,1.9,2.7,3.1,3.8l0,0c-4.1-0.9-7.8-3.2-10.5-6.4c-0.1-0.1-0.3-0.2-0.4-0.2l0,0c-0.1,0-0.1,0-0.1,0s0,0-0.1,0c0,0,0,0-0.1,0
	l0,0l-0.1,0.1c0,0,0,0,0,0.1s0,0.1,0,0.2c0.1,1.5,0.7,2.9,1.7,4l0,0c-2.4-1-4.6-2.4-6.4-4.1c-0.1-0.1-0.2-0.1-0.3-0.1l0,0
	c-0.1,0-0.2,0-0.3,0.1l0,0c0,0,0,0-0.1,0l0,0c-0.1,0.1-0.1,0.2-0.1,0.3l0,0c0,0.1,0,0.2,0.1,0.3c3.5,5.9,9.8,9.1,17,12.4
	c1.3,0.7,2.7,1.1,4.2,1.4c0.3,0,0.5,0,0.8,0c1.8-0.1,3.5-0.5,5.1-1.2C351.4,228.5,357.9,226.2,362.5,221.5z"/>
<path d="M327.8,153.7c0.8-1.4,1.9-2.8,3.1-3.9l0,0c-0.4,1.6-0.5,3.2-0.2,4.7c0,0.1,0.1,0.2,0.2,0.3s0.2,0.1,0.3,0.1
	c0.2,0,0.4-0.1,0.5-0.4c0.8-2.9,2.5-5.5,4.8-7.4l0,0l0.9,1.7c0,0.1,0.1,0.2,0.2,0.2s0.2,0.1,0.3,0.1c0.2,0,0.4-0.2,0.4-0.4
	c0.2-1,0-2.1-0.5-3c2,0.8,3.9,1.8,5.6,3.2l0,0c0.1,0.1,0.2,0.1,0.3,0.1c0,0,0,0,0.1,0s0.2,0,0.2-0.1c0,0,0.1,0,0.1-0.1l0,0l0,0
	c0.1-0.1,0.1-0.2,0.1-0.3l0,0c0-0.1,0-0.2-0.1-0.3l-2.9-3.4c1.1,0.5,2.1,1.2,3,2c1.5,1.3,2.6,3,3.4,4.9l0,0c0,0,0,0.1,0.1,0.1l0,0
	l0.1,0.1c0,0,0,0,0.1,0h0.1c0,0,0,0,0.1,0h0.1l0,0l0,0c0,0,0.1,0,0.1-0.1c0,0,0,0,0.1-0.1c0,0,0-0.1,0.1-0.1c0,0,0,0,0-0.1v-0.1
	v-0.1v-0.1c-0.6-3.2-2.8-6.3-6-8.6c-1.2-0.8-2.5-1.6-3.9-2.1l0,0c-0.5-0.5-1-1.1-1.3-1.7c-0.5-1.1-0.6-2.3-0.3-3.5l0.2-0.7
	c0.1-0.2,0-0.4-0.1-0.5c0,0-0.1-0.1-0.2-0.1c-0.3-0.1-0.5,0-0.6,0.3c-0.1,0.2-0.2,0.5-0.3,0.8c-0.6,1.6-1.1,3.2-1.7,4.9l0,0
	c-0.3-1-0.6-2-1.1-3c-0.1-0.3-0.3-0.6-0.4-1c-2.6-6.6-1.9-13.4-0.8-18c1.5-6.2,4.3-11.8,7.1-17c2.9-5.3,6.5-11.4,11.2-16.3
	c0,0,0.1-0.1,0.1-0.2l0,0c0-0.1,0-0.1,0-0.2l0,0v-0.1c0,0,0,0,0-0.1c0,0,0-0.1-0.1-0.1l0,0c0,0,0,0-0.1,0c0,0,0,0-0.1,0H350
	c0,0,0,0-0.1,0s-0.1,0-0.2,0l0,0c-0.1,0-0.1,0-0.2,0.1c-11.4,8.7-19,21.6-21.1,35.8c-0.5,3.6-0.7,7.3-0.8,10.9
	c-0.1,2.8-0.2,5.7-0.5,8.5c-0.6,5.8-1.9,10.5-4,14.3c-0.7,1.2-1.5,2.4-2.4,3.4l0,0c-0.1,0.1-0.1,0.2-0.1,0.3l0,0c-1,1-2.3,1.7-3.6,2
	c-0.5,0-1.1,0-1.6,0c-0.2,0-0.4,0.1-0.5,0.3c0,0.1,0,0.1-0.1,0.2c0,0.3,0.2,0.5,0.5,0.5c0.2,0,0.5,0,0.7,0c0.3,0,0.7,0,1-0.1
	c2.3,0,4.5-0.7,6.5-1.9c0.2-0.2,0.4-0.3,0.5-0.5C325.8,156.8,326.9,155.3,327.8,153.7z"/>
<path d="M502.3,206.6L502.3,206.6c0-0.1-0.1-0.1-0.1-0.1s0,0-0.1-0.1l0,0c0,0,0,0-0.1,0c0,0,0,0-0.1,0h-0.1h-0.1c0,0,0,0-0.1,0h-0.1
	l0,0l-0.1,0.1c-5.4,5.5-11.7,10-18.6,13.3c-6.9,3.4-14,6.4-21.3,8.9c-0.4,0.2-0.8,0.2-0.9,0.1l0,0c0-0.1,0-0.3,0-0.4
	c0.8-4.9,4.1-9.1,8.7-10.9l0,0c0.1,0,0.1-0.1,0.1-0.1s0,0,0-0.1c0,0,0-0.1,0.1-0.1c0,0,0,0,0-0.1V217v-0.1v-0.1c0,0,0,0,0-0.1l0,0
	c0,0,0,0,0-0.1l-0.1-0.1l0,0c0,0-0.1,0-0.1-0.1c0,0,0,0-0.1,0s-0.1,0-0.2,0l0,0c-2.7,0.4-5.4,1.1-7.9,2.1c-1.5,0.4-3.1,0.6-4.7,0.8
	l0,0l4.9-2.6c0.1,0,0.1-0.1,0.2-0.1l0,0c0,0,0-0.1,0.1-0.2c0,0,0,0,0-0.1v-0.1v-0.1c0,0,0,0,0-0.1l0,0l-0.1-0.1c0,0,0,0-0.1,0
	s-0.1-0.1-0.2-0.1l0,0c-1.8-0.2-3.6-0.4-5.4-0.4c-0.6,0-1.2,0-1.8,0c1.5-0.7,3-1.3,4.6-1.8c0.1,0,0.1-0.1,0.2-0.1l0,0
	c0,0,0.1-0.1,0.1-0.2c0,0,0,0,0-0.1v-0.1V213l0,0l0,0c0-0.1-0.1-0.1-0.1-0.1s0,0,0-0.1c-0.1,0-0.1-0.1-0.2-0.1l0,0l-2-0.5l4.8-0.8
	c0.1,0,0.2-0.1,0.2-0.1l0,0c0.1-0.1,0.1-0.1,0.1-0.2l0,0V211c0,0,0,0,0-0.1l0,0l0,0c0-0.1,0-0.1-0.1-0.2c0,0,0,0,0-0.1
	c-0.1-0.1-0.1-0.1-0.2-0.1l0,0c-3.1-0.8-6.1-2.2-8.7-4.1l0,0c0,0-0.1-0.1-0.2-0.1h-0.1h-0.1h-0.1h-0.1c0,0,0,0-0.1,0
	c0,0-0.1,0-0.1,0.1l0,0c0,0,0,0.1-0.1,0.1l0,0c-0.2,0.6-0.1,1.4,0.3,1.9c0.7,0.8,1.6,1.4,2.7,1.7c-3.1,1.6-5.5,4.3-6.8,7.6v0.1v0.1
	v0.1v0.1c0,0,0,0.1,0.1,0.1c0,0,0,0,0.1,0.1c0,0,0.1,0,0.1,0.1c0,0,0,0,0.1,0s0,0,0.1,0l0,0c0.7,0.1,1.4,0.2,2,0.2
	c-0.6,0.3-1.1,0.7-1.7,1.1l0,0c-0.1,0.1-0.1,0.2-0.2,0.2c0,0,0,0,0,0.1v0.1v0.1c0,0,0,0,0,0.1c0,0,0,0.1,0.1,0.1l0,0l0,0
	c0.1,0.1,0.2,0.1,0.3,0.2l6.9,1.7c0.1,0,0.1,0,0.2,0c-1.7,2.9-3.1,6.1-4.1,9.4c-0.1,0.5-0.3,1-0.4,1.6c-0.5,2.4-0.5,4.7-0.1,6.8
	c0.3,1.5,0.8,3,1.5,4.3c0.1,0.2,0.3,0.3,0.4,0.3l0,0h0.1c0.2,0,0.4-0.2,0.4-0.4c0.4-4.7,3.6-9.2,8.8-12.4c2.7-1.5,5.4-2.8,8.3-3.9
	c1-0.4,1.9-0.7,2.9-1h0.1c1.2-0.4,2.4-0.8,3.5-1.3c11.8-4.5,20-10.7,24.6-18.5c0.1-0.1,0.1-0.2,0.1-0.3l0,0
	C502.4,206.7,502.3,206.6,502.3,206.6z"/>
<path d="M373.6,94.7C373.6,94.7,373.5,94.7,373.6,94.7c0-0.1-0.1-0.1-0.1-0.1l0,0h-0.1c0,0,0,0-0.1,0h-0.1l0,0h-0.1c0,0,0,0-0.1,0
	c0,0-0.1,0-0.1,0.1l0,0l-0.1,0.1l0,0c0,0.1,0,0.1,0,0.2c-0.2,6.1-1.7,10.5-4.5,13.2l-5.4-5.9c0,0-0.1,0-0.1-0.1l0,0h-0.1l0,0h-0.1
	l0,0h-0.1l0,0c0,0,0,0-0.1,0c0,0,0,0,0,0.1l0,0c0,0,0,0.1-0.1,0.1l0,0v0.1l0,0c0,0.1,0,0.1,0.1,0.2l0,0c0.5,0.7,0.8,1.5,1.2,2.2
	c2.1,4.8,2.2,10.4,2,16.6l-6-3.8l-2.2-1.4l0,0c-0.1,0-0.1-0.1-0.2-0.1c0,0,0,0-0.1,0s-0.1,0-0.2,0c0,0,0,0-0.1,0c0,0-0.1,0-0.1,0.1
	c0,0,0,0-0.1,0.1l0,0l0,0c0,0,0,0.1-0.1,0.2c0,0,0,0,0,0.1s0,0.1,0,0.2l0,0l3.4,6.7l0,0l-5.2-5.5c0,0-0.1-0.1-0.2-0.1l0,0h-0.1
	c0,0,0,0-0.1,0h-0.1c0,0,0,0-0.1,0c0,0-0.1,0-0.1,0.1l0,0c0,0,0,0,0,0.1c0,0,0,0,0,0.1v0.1c0,0,0,0,0,0.1v0.1l0,0
	c0,0.1,0,0.1,0.1,0.2c2.2,3.2,4.1,6.6,5.4,10.3c-2.4-3.3-5.4-6.1-8.8-8.3h-0.1l0,0h-0.1l0,0h-0.1l0,0l-0.1,0.1l0,0c0,0,0,0-0.1,0.1
	v0.1l0,0c0,0.1,0,0.1,0,0.2l0,0v0.1l0,0l0.1,0.1l0,0c2.3,2,4.3,4.3,6,6.9c2.7,4.3,4.4,9.2,4.7,14.3c0,0.1,0.1,0.2,0.1,0.3
	c0.1,0.1,0.2,0.1,0.3,0.2h0.1c0.2,0,0.4-0.1,0.5-0.3c2.3-5.2,5.2-11.7,4.6-18.2l0,0c1,1.1,1.8,2.5,2.2,4c0,0.1,0,0.1,0.1,0.2
	c0.1,0.1,0.3,0.2,0.5,0.2s0.4-0.2,0.4-0.5l0.1-13.4l0,0l1.6,2.5c0,0.1,0.1,0.1,0.2,0.2c0,0,0,0,0.1,0h0.1h0.1c0,0,0,0,0.1,0
	c0,0,0.1,0,0.1-0.1l0,0l0,0c0.1-0.1,0.2-0.2,0.2-0.4l0.3-6l0,0l1.3,4.7c0,0.1,0.1,0.2,0.2,0.3c0.1,0.1,0.2,0.1,0.3,0.1
	c0.2,0,0.4-0.2,0.5-0.4c1.3-7,1.1-14.2-0.6-21.2C373.6,94.8,373.6,94.8,373.6,94.7z"/>
<path d="M352,81.2h0.1c0,0,0,0,0.1,0c0.2,0,0.4,0,0.5-0.2l0,0c0.5-0.6,0.9-1.2,1.4-1.8c2.5-2.5,6.3-3.9,10.2-5.2
	c0.6-0.3,1.3-0.4,1.9-0.3c0.1,0,0.2,0.1,0.3,0.1c0.8,0.4,1.3,1.4,1.6,3.1c0,0.1,0.1,0.2,0.2,0.3s0.2,0.1,0.3,0.1
	c0.3,0,0.5-0.2,0.5-0.5v-2.3l0,0c1.9,2.1,3.5,4.4,4.7,7c0,0.1,0.1,0.2,0.2,0.2c0.1,0.1,0.2,0.1,0.3,0.1h0.1c0.2-0.1,0.4-0.3,0.4-0.5
	c-0.2-4.3-2.4-8.3-6.1-10.8l0,0c-0.1-0.1-0.2-0.1-0.3-0.1c-5.7,0.9-11,3.8-14.9,8.1c-0.6,0.6-1.1,1.2-1.6,1.9
	C351.7,80.7,351.8,81,352,81.2L352,81.2z"/>
<path d="M446.4,201.5L446.4,201.5c0,0.1,0,0.1,0.1,0.2c0,0,0,0,0,0.1l0.1,0.1l0,0l0,0c4.3,1.9,9,2.9,13.8,2.8c0.5,0,1.1,0,1.7,0
	c5.2-0.3,10.4-1.1,15.5-2.2c0,0,0,0,0.1,0s0.1-0.1,0.2-0.1c0,0,0,0,0.1-0.1c0-0.1,0.1-0.1,0.1-0.2c0-0.1,0-0.1,0-0.2
	c0-0.1-0.1-0.2-0.1-0.2l0,0c-0.1-0.1-0.1-0.1-0.2-0.1l0,0l-11.2-1.9l0,0c6.6-2.1,13.7-2.2,20.4-0.5c0.2,0,0.4,0,0.5-0.2l0,0
	c0,0,0.1-0.1,0.1-0.2l0,0l0,0v-0.1c0,0,0,0,0-0.1v-0.1c0,0,0,0,0-0.1c0,0,0-0.1-0.1-0.1l-0.1-0.1c-4.4-2.1-9-3.7-13.8-4.8l0,0
	l10-3.3c0,0,0.1,0,0.1-0.1c0,0,0.1,0,0.1-0.1l0.1-0.1v-0.1v-0.1l0,0v-0.1l0,0l0,0c0-0.1-0.1-0.1-0.1-0.2l0,0c-0.1,0-0.1-0.1-0.2-0.1
	l0,0l-5.3-1.2l0,0c5.1-2.1,10.7-2.9,15.7-3.7c0,0,0,0,0.1,0s0.1,0,0.2-0.1c0,0,0.1,0,0.1-0.1l0.1-0.1c0-0.1,0-0.2,0-0.3
	s-0.1-0.2-0.1-0.2l0,0c-0.1-0.1-0.1-0.1-0.2-0.1l0,0c-8-2-16.4-1.3-23.9,2c-0.1,0-0.1,0.1-0.2,0.2l0,0c0,0.1-0.1,0.1-0.1,0.2l0,0
	c0,0.1,0,0.1,0,0.2c0,0,0,0,0,0.1l0,0l0,0l0.1,0.1c0,0,0,0,0.1,0s0.1,0.1,0.2,0.1l3.1,0.3l0,0l-6,1.5c-0.3,0.1-0.4,0.3-0.4,0.6
	c0,0.1,0.1,0.2,0.2,0.3s0.2,0.1,0.4,0.1c1.6-0.3,3.2-0.2,4.8,0.1l0,0c-1.6,0.9-3.3,1.4-5.1,1.6c-0.3,0-0.7,0.1-1,0.1
	s-0.5,0.2-0.5,0.5c0,0.2,0.1,0.4,0.3,0.5c0.1,0,0.1,0,0.2,0c1.9,0.1,3.7,0.3,5.5,0.8l0,0c-7.9,3.7-16.2,6.5-24.8,8.3
	c0,0-0.1,0-0.1,0.1c0,0,0,0-0.1,0l-0.1,0.1c0,0,0,0-0.1,0.1v0.1c0,0,0,0,0,0.1C446.4,201.3,446.4,201.4,446.4,201.5
	C446.4,201.4,446.4,201.4,446.4,201.5z"/>
<path d="M498.5,175.5c0,0,0,0.1,0.1,0.1l0,0l0,0l0.1,0.1l0,0c0.2,0.1,0.4,0.1,0.6,0l0,0c0.5-0.4,1-0.8,1.6-1.1
	c2.9-1.6,6.2-2.2,9.5-1.8l0,0c-2.1,1.1-3.9,2.7-5.4,4.5l0,0c-0.1,0.1-0.1,0.2-0.1,0.2s0,0,0,0.1s0,0.2,0.1,0.3l0,0
	c0,0,0,0.1,0.1,0.1l0,0c0.1,0,0.1,0.1,0.2,0.1h0.1c0.1,0,0.1,0,0.2-0.1l0,0c2.3-1.5,4.9-2.7,7.7-3.3c0.7-0.2,1.5-0.2,2.1,0
	c1.2,0.6,1.2,2.3,1.1,3.7c-0.2,1.3-0.4,2.6-0.7,3.9c-0.7,3.9-1.7,7.8-3,11.6l0,0c-0.1,0.2,0.1,0.5,0.3,0.6c0.1,0,0.1,0,0.2,0
	c0.2,0,0.4-0.1,0.4-0.3c0.9-1.8,1.8-3.3,2.6-4.7c1.7-2.5,3-5.3,3.8-8.3l0,0c0.5-1.8-1.1-6.9-2-8.2c-1.9-2.7-3.3-2.9-5.5-3
	c-4.5-0.2-8.9,1-12.6,3.6c-0.6,0.3-1.1,0.7-1.6,1.1c-0.1,0-0.1,0.1-0.1,0.2c0,0,0,0,0,0.1v0.1C498.5,175.3,498.5,175.4,498.5,175.5
	C498.5,175.4,498.5,175.5,498.5,175.5z"/>
<path d="M546.9,365.5h-41.1c-4.7-5.2-9.5-10.3-14.5-15.3c-10.8-10.8-21.7-21.4-33-31.6c-6.8-6.1-13.7-12.1-21-17.6l0,0
	c2.8-3,4.6-6.7,5.3-10.7c1.3-0.2,2.5-0.6,3.6-1.4c1.6-1.1,3-2.4,4.2-3.9l3.7-4.1l0.8,1.8c0.1,0.3,0.4,0.4,0.7,0.3
	c0.1,0,0.2-0.1,0.2-0.2c1.3-2.3,2.5-4.7,3.5-7.1c0.1-0.1,0.1-0.1,0.2-0.2c2.6-6,8.1-10.1,13.3-14.2c1.3-1,2.7-2.1,4-3.1
	c9.3-7.5,16.6-17.1,23.7-26.4c0.1-0.1,0.1-0.2,0.1-0.3c6.6-5.1,12.1-11.5,16.1-18.8c4.2-7.5,8.2-15.2,10.2-22.9
	c1-2.3,1.6-4.9,1.5-7.4c0-0.5,0-1.1,0-1.7c0-4.8,0.1-10.2-2.5-13.9c-1.9-2.5-4.6-4.1-7.6-4.6c-2.9-0.4-5.9-0.4-8.9,0.2
	c-11.6,1.9-22.6,7-33.1,11.9c-1.7,0.8-3.5,1.6-5.2,2.4c-7.3,3.5-14.9,6.3-22.8,8.3c-4.4,0.9-8.9,1.3-13.5,1.3l0,0
	c-0.9,0.1-1.7-0.1-2.4-0.7c-0.2-0.3-0.4-0.7-0.4-1.1c0-0.2-0.1-0.4-0.2-0.5c-0.5-1.4-1.5-2.5-2.8-3.2c-0.4-0.2-0.8-0.3-1.2-0.3
	l-4.6-4.2c-1.5-4-5.1-7.3-10.3-9.4c-1.9-3.6-5.5-6.1-9.5-6.4c-0.2,0-0.4,0-0.7,0c-1.3,0.2-2.6-0.4-3.4-1.4c-0.2-0.2-0.3-0.3-0.5-0.5
	c-2.3-2.2-5.6-2.7-9-2.8c-2.2-1.6-3.9-3.8-4.9-6.3c-1.4-3.7-1.6-7.8-1.8-11.7c-0.4-9.9-0.9-20.1,0-30.1c0.2-2.5,0.5-5.1,0.8-7.6
	c1.2-10,2.5-20.4-1.3-29.8c-1.5-3.8-3.6-6.4-6.2-8c-3-1.8-7-2.2-11.6-1.1c-6.4,1.4-12.7,4.8-18.7,10.3c-1.1,1-2.2,2-3.2,3.1
	c-7.6,7.1-13.9,15.5-18.7,24.8c-4.1,8.1-9.3,15.7-15.2,22.6c-1,1.2-1.9,2.3-2.5,3.1c-2.2,2.7-4,5.7-5.3,8.9c-1,2.9-1.8,5.9-2.4,9
	c-0.5,2.3-1,4.7-1.7,6.9c-0.3,1-0.7,2-1,3c-0.7,1.8-1.3,3.7-1.8,5.7c-0.1,0.6-0.2,1.3-0.3,1.9c-2.1,3-3.7,6.4-4.5,10
	c-0.1,0.5-0.2,1-0.2,1.4c0,0.1,0,0.2,0,0.2c0,0.3-0.1,0.6-0.1,0.9c0,0.2,0,0.3,0,0.5c-0.1,1.3,0,2.6,0.1,3.8l-1-0.6
	c-0.2-0.2-0.5-0.1-0.7,0.1c-0.1,0.1-0.1,0.3-0.1,0.4c0.4,1.2,0.5,2.4,0.6,3.6l-0.3-0.9c-0.1-0.3-0.4-0.4-0.6-0.3
	c-0.2,0.1-0.4,0.3-0.4,0.6c0.6,3.7-0.5,7.6-3.1,10.3c-0.1,0.1-0.1,0.2-0.1,0.3c-1.5,1.5-3.3,2.8-5.1,4c-0.2,0.1-0.3,0.4-0.2,0.6
	c0.3,0.7,0.9,1.1,1.7,1.3c-1,0.9-2.1,1.6-3.3,2c-0.3,0.1-0.4,0.4-0.3,0.6c0.1,0.2,0.2,0.3,0.4,0.3l1.9,0.2c-3.1,3.9-5,8.5-5.5,13.4
	c0,0.3,0.2,0.5,0.4,0.6c0.2,0,0.3-0.1,0.4-0.2l1.3-1.6c-1.3,4.5-1.6,9.3-0.8,14c0,0.4,0,0.8,0,1.2c-4.1-0.8-8.2-1.5-12.3-2.3
	c-12.3-4.2-24.7-8.1-37.2-11.4c-2-0.5-4.8-1.3-6.2-1.6l6.1,2c9.7,3.3,19.4,6.3,29.1,9.5c-12-2-24-3.7-36.1-5.4
	c-8.8-1.2-18.6-2.1-26.9-2.7c9.5,1.5,19.1,3,28.7,4.3c14.4,2,28.8,4.1,43.1,6.6c4.1,1.4,8.2,2.9,12.3,4.4c0,0.2,0.1,0.3,0.1,0.5
	c0.5,2.8,1.1,5.4-0.1,7.7c-0.4,0.7-0.8,1.3-1.3,2c-0.7,0.9-1.3,1.8-1.7,2.9c-0.8,2.7,0.5,5.2,1.8,7.6c0.1,0.1,0.2,0.3,0.2,0.4
	c0.1,1.2,0.2,2.4,0.1,3.5c-0.7,0-1.4,0-2,0.1c-22.7,1.2-45.4,3-67.9,5.6c-6.1,0.8-13.3,1.8-18.7,2.7c7.5-0.5,15-1.1,22.4-1.7
	c21.3-2,42.5-4,63.9-5c0.7,0,1.4-0.1,2.2-0.1c-0.2,2.1-0.8,4.1-1.5,6c-0.9,0.2-1.8,0.5-2.7,0.7c-17.4,5-34.9,10.3-51.9,16.5
	c-2.5,0.9-5.9,2.2-7.9,3c2.7-0.8,5.4-1.6,8.1-2.4c17.9-5.4,35.7-11.3,53.7-16.3c-1.5,3-3.6,5.7-6.2,7.7c-0.2,0.2-0.3,0.5-0.1,0.7
	c0.1,0.2,0.3,0.2,0.5,0.2l3.9-1.2c-1.7,2.9-3.9,5.4-6.6,7.5c-0.2,0.2-0.3,0.5-0.1,0.7c0.1,0.1,0.2,0.2,0.4,0.2l5.5,0.4
	c-6,6.7-10,15-11.3,23.9c0,0.3,0.2,0.5,0.4,0.6c0.1,0,0.2,0,0.3-0.1l5.8-3.4c-1,6.6-5.1,12.4-11,15.5c-0.2,0.1-0.3,0.3-0.3,0.6
	c0.1,0.2,0.3,0.4,0.5,0.4c1.5-0.1,3.1-0.4,4.5-0.9c-2.6,2.9-5.7,5.2-9.2,7c-0.2,0.1-0.3,0.3-0.3,0.6c0.1,0.2,0.3,0.4,0.5,0.4
	l2.4-0.2c-4.3,3.1-8.1,6.9-11.2,11.2c-5.9-0.5-11.8,0.8-17,2.2c-2.6,0.7-5,1.7-7.3,3c-4.5,1.7-8.3,4.7-11.1,8.6
	c-2.5,3.5-4.2,9.2-4.8,15h-78.2c-0.3,0-0.5,0.2-0.5,0.5v21c0,0.3,0.2,0.5,0.5,0.5h84.2c2.6,1.9,5.6,3.2,8.7,3.7
	c4.3,0.9,8.6,1.6,13,1.9c0.2,0.3,0.4,0.5,0.6,0.8c1,1,2.3,1.5,3.7,1.5c0.4,0,0.7,0,1.1-0.1c1.2-0.3,2.3-0.9,3.2-1.7
	c0.6,0,1.2,0,1.8,0c3.9,0,7.9-0.2,12-0.6c4.7-0.4,9.3-1.1,13.2-4.3c0.4-0.4,0.9-0.8,1.3-1.2h121.2c0.9,1.3,2,2.4,3.2,3.3
	c4.1,2.9,8.7,3.3,13.5,3.4c1.2,0,2.3,0,3.5,0c3.5,0,6.9-0.2,10.3-0.4c1,0.8,2.1,1.3,3.3,1.5c0.2,0,0.5,0,0.7,0c1.9,0,3.6-1,4.5-2.6
	c2.4-0.4,4.7-0.8,7-1.3c1,3,2.1,6,3.1,9c0.7,2,1.3,4,2,6l1.3-0.1c-0.7-2.2-1.4-4.5-2.2-6.7c-1-2.8-1.9-5.7-2.9-8.5
	c1.5-0.4,3-0.7,4.5-1.2c0.2,0.2,0.4,0.4,0.6,0.5c0.6,0.5,1.4,0.8,2.2,0.8c0.3,0,0.6,0,0.9-0.1c0.9-0.3,1.7-1,2.2-1.8
	c0.5-0.6,0.8-1.3,1.1-1.9h50l0.4,0.5h0.1c-0.1-0.2-0.2-0.3-0.3-0.5h52.2c0.3,0,0.5-0.2,0.5-0.5v-21
	C547.4,365.7,547.2,365.5,546.9,365.5z M271.9,228.5c-0.3-0.1-0.6-0.2-0.9-0.3c1.3,0.2,2.6,0.5,3.8,0.7c0,0.2,0.1,0.5,0.1,0.7
	C273.9,229.3,272.9,228.9,271.9,228.5z M281.2,232.1c-0.4-0.2-0.9-0.3-1.3-0.5c-0.2-0.4-0.5-0.8-0.7-1.2
	C279.9,231,280.5,231.5,281.2,232.1z M304,236.2c-1.9,0.8-3.5,2.1-4.6,3.8c-3.8-1.9-7.7-3.6-11.7-5.3c0-0.1-0.1-0.2-0.2-0.3
	c-1.3-1.1-2.5-2.3-3.6-3.7c0.5,0.1,1,0.2,1.6,0.3c1.1,0.4,2.3,0.6,3.5,0.8c4.6,1.1,9.3,2.2,13.8,3.5l0,0L304,236.2z M300.5,257
	c-2.1,0.3-4.1,0.7-6.1,1c-0.2-0.4-0.5-0.9-0.7-1.3l0,0c2.2,0,4.5,0,6.8,0C300.4,256.8,300.5,256.9,300.5,257z M284.8,234.9
	c4.3,1.8,9.1,4,13.9,6.3c-0.2,0.5-0.5,0.9-0.7,1.4c-0.3,0.8-0.5,1.6-0.4,2.4c0.1,1,0.8,1.8,1.7,2.1c0.3,0.1,0.5,0.1,0.8,0
	c-0.5,2.6-0.5,5.3-0.1,8c-2.4,0-4.9,0-7.3,0c-0.2-0.3-0.4-0.7-0.5-1c-0.6-1-1-2.2-1.2-3.4c-0.1-1.1,0.4-2.1,1.4-2.6
	c0.3-0.1,0.4-0.4,0.3-0.6c0-0.1-0.1-0.2-0.2-0.3c-3.6-2.2-6.6-5.2-8.6-8.9c-0.8-1.4-1.6-2.7-2.3-4c-0.2-0.3-0.4-0.7-0.6-1
	C282.3,233.9,283.5,234.4,284.8,234.9z M288.2,259.2c0,0.1-0.1,0.2-0.2,0.2c-0.5,0.1-1,0.2-1.4,0.3c-0.3,0-0.6,0.1-0.9,0.2
	c-2,0.5-4,1-6,1.5c0-0.1-0.1-0.1-0.1-0.2l0,0c-0.5-1.2-1-2.6-0.6-3.8c0.1-0.1,0.1-0.3,0.2-0.4c2.6-0.1,5.3-0.2,8.2-0.3
	c0.2,0.5,0.5,1,0.7,1.5C288.2,258.6,288.3,258.9,288.2,259.2z M278.3,244.3c3.4,3.1,6.2,6.8,8.3,10.9c-1.7,0.1-3.4,0.1-5,0.2l0,0
	C279,252.4,277.8,248.3,278.3,244.3z M269.5,377.1c1-4.9,0.4-9.9-1.8-14.4c-0.1-0.2-0.4-0.3-0.7-0.2c-0.2,0.1-0.3,0.3-0.3,0.5
	c0.4,3.9,0.5,7.9,0.2,11.9c-0.1,1.1-0.2,2.1-0.4,3.1c-0.3,0.7-0.5,1.3-0.8,1.9c-1.8,1.8-4.2,3.8-4.8,3.8c-0.4,0-1.1-0.6-1.7-1
	c-0.9-0.8-1.9-1.6-2.8-1.2c-0.8,0.5-1.5,1.2-2,2c-0.4,0.6-0.8,1.2-1.4,1.6c-0.9,0.5-1.9-0.2-2.5-1c-0.8-1.2-1.4-2.6-1.8-4
	c-1.8-6.1-2.6-12.5-2.4-18.9c0.1-0.5-0.3-1-0.8-1.2c-0.4-0.1-0.9,0.2-1,0.7c-1.9,6.2-2.1,12.7-0.8,19c0.1,0.3,0.2,0.7,0.2,1
	c0.5,2.1,1,4.3,0.5,6.3c-0.4,1.4-1.3,2.6-2.6,3.4c-3.4,2.1-7.8,0.9-10.6-2.9c-1.1-1.7-1.8-3.6-2.1-5.6c-0.3-1.2-1.1-1.8-1.8-1.7
	c-0.7,0-1.5,0.7-1.7,2c-0.1,1.4-0.2,2.8-0.2,4.3c0.1,1.1,0,2.3-0.4,3.4c-0.4,0.6-1.1,0.9-1.8,0.7c-3.5-0.5-6.1-5.5-6.9-10.1
	c-0.6-3.7-0.6-7.5-0.2-11.3c0.1-0.7-0.3-1.4-1-1.7c-0.6-0.1-1.1,0.3-1.3,0.9c-0.8,3.1-1.2,6.3-0.9,9.5c0.1,2.2,0,4.4-0.3,6.5
	c-0.1,0.6-0.2,1.2-0.5,1.8c-0.3,0.6-1,0.9-1.6,0.7c-0.1,0-0.2-0.1-0.4-0.2l0,0c-0.4-0.3-0.7-0.6-1.1-0.9c-0.2-0.2-0.3-0.4-0.5-0.5
	c-4.6-5.5-6.7-15.2-5.2-23.4c1.5-4.3,3.8-8.2,6.8-11.5c1.1-1.3,3.7-2.9,6-4.3c0.7-0.4,1.3-0.8,1.9-1.2c2.5-1.1,5.1-2,7.7-2.6
	c5.8-1.4,13.3-2.7,19.9-0.4c1.9,0.6,4.2,1.7,5.3,4l0.1,0.3c0.2,0.5,0.5,1,0.9,1.4c0.9,0.7,2,0.1,2.8-0.3l0.1-0.1
	c3.8-1.9,8,0.9,11.2,3.6c4.1,3.4,6.7,8.2,7.3,13.5C274.4,369.3,272.6,374.3,269.5,377.1z M290.2,365.4v0.1h-3.4
	c0.2-0.2,0.3-0.3,0.5-0.5l0,0c0.2-0.2,0.3-0.3,0.5-0.5c0.5-0.5,1.2-0.8,2-0.7c0.2,0,0.4,0.2,0.5,0.4
	C290.3,364.6,290.3,365,290.2,365.4z M373.8,361.7L373.8,361.7c-5.3,0.3-10.7-0.4-15.7-2.2c-0.2-0.1-0.5,0-0.6,0.2l0,0
	c-0.1,0.2-0.1,0.5,0.1,0.6l3.2,2.8l0,0l-4.9-0.6h-0.1h-0.1h-0.1c0,0-0.1,0-0.1,0.1c0,0,0,0-0.1,0.1v0.1v0.1l0,0c0,0,0,0,0,0.1v0.1
	v0.1c0,0,0,0.1,0.1,0.1c0,0,0,0.1,0.1,0.1l2.6,2l0,0h-35.8c-0.9-1.4-1.8-2.8-2.4-4.4l0,0c0-0.1-0.1-0.1-0.2-0.2c0,0,0,0-0.1,0
	s-0.1-0.1-0.2-0.1s-0.1,0-0.2,0s-0.2,0.1-0.2,0.2l0,0c0,0.1-0.1,0.2-0.1,0.3l0.3,4.1h-2.4c-3.8-3.3-8.3-5.8-13.1-7.2
	c-0.1,0-0.3,0-0.4,0l0,0c-0.1,0-0.1,0.1-0.1,0.1l0,0c0,0-0.1,0.1-0.1,0.2l0,0l0,0c0,0.1,0,0.1,0,0.2l0,0c0,0.1,0,0.1,0.1,0.2l0,0
	l2.9,4.4l0,0c-5.9,0-11.3-3-14.4-8l0,0c0-0.1-0.1-0.1-0.1-0.1h-0.1h-0.1c-0.1,0-0.2,0-0.3,0.1c-0.1,0-0.1,0.1-0.2,0.2l0,0
	c0,0.1-0.1,0.2-0.1,0.3c0.1,0.9,0.2,1.8,0.5,2.7c0.3,0.9,0.6,1.8,1,2.6l0,0c-2-0.6-3.9-2.4-5.4-5c-0.1-0.2-0.3-0.3-0.4-0.3
	c-0.2,0-0.4,0.1-0.4,0.3l-4.2,8l0,0c0,0.1,0,0.1,0,0.2c0,0,0,0,0,0.1s0,0.2,0.1,0.2l0,0l0,0l0.1,0.1c0,0,0,0,0.1,0s0.1,0,0.2,0h0.1
	c0.1,0,0.1,0,0.1-0.1h0.1l2.6-2.1l0,0c-0.2,1-0.5,2-1,2.9h-7.3c0.3-2.9,0-5.9-0.8-8.7l0,0c2.4-2,5-3.7,7.8-5.1
	c0.2-0.1,0.3-0.2,0.3-0.4c0-0.1,0-0.1,0-0.2c-0.1-0.2-0.3-0.4-0.5-0.4c-3.3,0.3-6.6,0.7-9.9,1.3c-1-1.4-2.2-2.7-3.5-3.8
	c-5.8-4.9-9-5.1-11.5-5.3c-1,0-2-0.2-2.9-0.5c-1.7-0.7-3.3-1.5-4.8-2.4c-1.8-1.1-3.7-2-5.7-2.6l0,0c0.7-0.8,1.3-1.6,2.1-2.4
	c8.5-3.4,17.2-6.4,26-8.9c0,0,0,0,0.1,0h0.1c2.9-0.8,5.8-1.7,8.7-2.4c0,0,0,0,0.1,0c0,0,0.1,0,0.1-0.1c0,0,0-0.1,0.1-0.1
	c0,0,0-0.1,0.1-0.1v-0.1c0,0,0,0,0-0.1v-0.1l0,0l0,0c0-0.1,0-0.1-0.1-0.2l0,0c-0.1-0.1-0.1-0.1-0.2-0.1l-3.4-1.3
	c4.2-0.8,8-3.2,10.4-6.8c0.2-0.2,0.1-0.5-0.1-0.7c-0.1,0-0.1-0.1-0.2-0.1s-0.1,0-0.2,0c-3.1,0.6-6.4,0.4-9.4-0.4
	c-1.8-0.5-3.6-1.3-5.2-2.3l4.5-4.6c0,0,0,0,0-0.1l0.1-0.1v-0.1V306v-0.1c0,0,0,0,0-0.1c0,0,0-0.1-0.1-0.1l0,0l0,0l-0.1-0.1
	c0,0,0,0-0.1,0s-0.1,0-0.2,0l0,0c-1,0.2-2,0.2-2.9-0.1c-0.6-0.2-1.1-0.4-1.6-0.7l7.5-5.7l0,0c0.1-0.1,0.1-0.1,0.1-0.2v-0.1
	c0,0,0,0,0-0.1v-0.1c0,0,0,0,0-0.1c0,0,0-0.1-0.1-0.1l0,0l0,0c-0.1-0.1-0.1-0.1-0.2-0.2l-1.6-0.5c1.3-0.7,2.4-1.7,3.2-2.9
	c0,0,0,0,0-0.1c0,0,0,0,0-0.1v-0.1c0,0,0,0,0-0.1v-0.1v-0.1l0,0l-0.1-0.1l0,0l0,0c0,0,0,0-0.1,0c-3.3-1.2-6-3.5-7.9-6.5l0,0l3.3,1.1
	c0.2,0.1,0.4,0,0.6-0.2c0.1-0.1,0.1-0.2,0.1-0.3c0-0.1,0-0.2-0.1-0.3c-1.3-1.6-2.1-3.5-2.6-5.4c-1-4.3-0.2-9.2,0.6-12.9l0.3-1.6
	c0.3-1.6,0.7-3.2,1-4.8l0,0c0.1,0.4,0.2,0.8,0.3,1.2l0,0c0.6,2.2,2.4,7.4,7,8.7c0.2,0.1,0.5-0.1,0.6-0.3l0,0c0,0,0,0,0-0.1
	s0-0.1,0-0.2s0-0.1-0.1-0.2c-1.9-3.2-3.6-6.5-5.1-9.9l0,0c1.6-0.4,3.2-0.8,4.8-1.2c0,0,0,0,0.1,0.1c3.9,2,7.4,4.8,10.2,8.2
	c1,1,1.6,2.3,1.6,3.7c-0.1,0.7-0.5,1.4-1.1,1.8c-0.1,0.1-0.2,0.1-0.3,0.2c-0.4-0.1-0.8-0.1-1.2-0.1l0,0c-0.1,0-0.1,0-0.2,0.1
	c0,0-0.1,0-0.1,0.1l-0.1,0.1c0,0,0,0,0,0.1c0,0,0,0,0,0.1v0.1l0,0l0,0c0,0.1,0,0.1,0.1,0.2c0,0,0,0,0,0.1s0.1,0.1,0.2,0.1l0,0
	c0.4,0.2,0.9,0.3,1.4,0.2c1.5,0.4,2.8,1.2,3.8,2.3c0.5,0.6,1,1.3,1.5,2c0.5,0.7,0.9,1.4,1.3,2.1l0.5,0.9c0.2,0.3,0.3,0.6,0.5,0.8
	c3.5,5.7,7.9,10.7,13,14.8c0.1,0.1,0.2,0.1,0.3,0.1l0,0c0.1,0,0.2,0,0.3-0.1c0,0,0.1,0,0.1-0.1l0,0l0,0c0.1-0.1,0.1-0.2,0.1-0.3l0,0
	c0-0.1,0-0.2-0.1-0.3c-3.5-4.5-7.9-10-8.7-16.4l0,0l1.5,0.2c0.1,0,0.2,0,0.3-0.1c0.1,0,0.2-0.1,0.2-0.2c0.1-0.2,0.1-0.4-0.1-0.6
	c-4.1-4-7-9.1-8.3-14.6c0,0,0,0,0-0.1c0,0,0-0.1-0.1-0.1c0,0,0,0-0.1-0.1l-0.1-0.1h-0.1c0,0,0,0-0.1,0h-0.1l0,0l0,0
	c-0.1,0-0.1,0-0.1,0.1c0,0,0,0-0.1,0c0,0-0.1,0.1-0.1,0.2l0,0c-0.2,0.6-0.3,1.1-0.3,1.7l0,0c-2-3.1-3.8-6.3-5.5-9.5l0,0
	c1.9-0.4,3.9-0.7,5.8-1c0.7,2.1,1.7,4.1,2.9,5.8c0.1,0.1,0.2,0.2,0.4,0.2c0.1,0,0.1,0,0.2,0l0,0c0.2-0.1,0.3-0.3,0.3-0.5
	c0-2,0-4,0-6.1l0,0c1.8-0.2,3.6-0.4,5.3-0.6c0.3,0,0.6-0.1,0.9-0.1c8.3,0.5,16.3,1.5,22.9,3.6l0,0c3,0.9,5.7,2,8,3.4l0,0
	c-5.4-4-13-6.3-21.4-7.6l0,0c0.6,0,1.2,0,1.8,0c2.2,0.1,4.5-0.2,6.7,0.5l0,0c-1.7-0.8-3.7-0.7-5.6-0.9c-1.2-0.1-2.4-0.1-3.7-0.2
	c-0.5,0-1.1,0-1.6,0c-1.2,0-2.4,0-3.5,0c-3.2-0.3-6.4-0.5-9.7-0.6c0.1-2.2,0.3-4.3,0.7-6.4c0.2-1.3,0.5-2.6,0.9-3.9l0,0
	c4,2,8.1,3.9,11.9,6.2c0.1,0.1,0.2,0.1,0.3,0.2c0.5,0.3,0.9,0.6,1.4,0.9c0,0-0.1,0-0.1-0.1c-4.2-3-8.6-5.7-13.1-8.2l0,0
	c0.7-2.2,1.8-4.3,3.1-6.2c4.3,1.6,8.5,3.7,12.7,5.7c4.3,2.2,8.4,4.6,12.4,7.4c1.6,1.2,3.3,2.4,4.6,4c0.4,0.5,0.8,1,1.1,1.6l0,0
	c-0.6-1.5-1.7-2.8-2.9-3.9c0,0,0,0-0.1-0.1c-0.7-0.7-1.4-1.3-2.1-1.9c-2.6-2.1-5.3-4.1-8.2-5.8c-5.3-3.3-10.9-6-16.7-8.1l0,0
	c0.3-0.4,0.6-0.8,1-1.2c3.6-3.9,8.6-5.9,13.2-5.4h0.1h0.1h0.1c0,0,0,0,0.1,0c0,0,0.1,0,0.1-0.1c0,0,0,0,0-0.1v-0.1c0,0,0,0,0-0.1
	c0,0,0,0,0-0.1c0,0,0,0,0-0.1c0,0,0,0,0-0.1v-0.1c0,0,0,0,0-0.1c0,0,0-0.1-0.1-0.1l0,0l-0.1-0.1l0,0l-0.5-0.2
	c-0.5-0.2-1-0.3-1.5-0.5c-0.7-0.2-1.5-0.4-2.3-0.5c-2.2-0.3-4.7-0.1-7.2,1.9c-3.7,2.9-8.5,3.8-13.1,2.6c-0.1,0-0.1,0-0.2,0l0,0H301
	c0,0,0,0-0.1,0l-0.1,0.1l0,0l-0.1,0.1l0,0l0,0c0,0.1,0,0.3,0.1,0.4c-3.6-1-7.2-1.9-10.9-2.7l0,0c-1.9-1.6-3.2-3.7-3.9-6.1
	c-1-3-1.6-6.2-1.6-9.4c1.9,1.6,4,2.9,6.3,3.8c0.1,0,0.1,0,0.2,0l0,0c0.1,0,0.1,0,0.2-0.1l0,0l0.1-0.1c0,0,0,0,0-0.1c0,0,0,0,0-0.1
	l0,0v-0.1v-0.1c0-0.1,0-0.1-0.1-0.2l0,0l-1.9-3c2.2-0.6,4.1-1.8,5.4-3.6c0-0.1,0.1-0.1,0.1-0.2l0,0c0-0.1,0-0.1,0-0.2c0,0,0,0,0-0.1
	V210c0,0,0-0.1-0.1-0.1c0,0,0,0-0.1-0.1l0,0c-0.1,0-0.1-0.1-0.2-0.1c-1.3-0.2-2.6-0.7-3.7-1.3l0,0c3.4,0.3,6.8,0.3,10.1-0.2
	c0.1,0,0.2,0,0.2-0.1l0,0c0.1,0,0.1-0.1,0.1-0.2l0,0v-0.1c0,0,0,0,0-0.1l0,0l0,0c0-0.1,0-0.1-0.1-0.1c0,0,0,0,0-0.1
	s-0.1-0.1-0.2-0.1c-3.2-1.4-6.2-3-9.2-4.7l0,0c3.2-0.3,6.3-1.5,8.9-3.5c1.3-0.9,2.5-1.9,3.7-2.8c1.7-1.4,3.5-2.7,5.3-3.9
	c2.9-1.7,6.2-2.8,9.7-3.1c0.1,0,0.2-0.1,0.3-0.1l0,0c0.1-0.1,0.1-0.1,0.1-0.2l0,0V189l0,0c0-0.1,0-0.2-0.1-0.2l0,0
	c-0.1-0.1-0.1-0.1-0.2-0.1c-3.2-0.8-6.5-0.7-9.7,0.2c-1.2,0.3-2.3,0.6-3.4,0.9c-1.6,0.5-3.2,0.9-4.9,1.2c-2.2,0.4-5.4,0.5-8-1
	c-0.2-0.1-0.5-0.1-0.7,0.2c0,0.1-0.1,0.1-0.1,0.2c-0.1,1.1,0.3,2.2,1.2,2.9l0,0c0.2,0.2,0.4,0.3,0.6,0.4l0,0c-0.7,0.1-1.4,0-2.1-0.1
	s-1.3-0.5-1.9-0.9c-0.5-0.4-1-1-1.2-1.6c-0.2-0.7-0.3-1.5-0.1-2.3c1.3-1.4,2.2-3.1,2.5-4.9c2.1,0.7,4.3,1,6.5,1
	c0.2,0,0.4-0.2,0.5-0.4c0-0.2,0-0.4-0.2-0.5l-0.1-0.1c-0.6-0.2-1.1-0.5-1.5-0.9c-0.1-0.1-0.3-0.3-0.4-0.4c8.3,1.7,17,0.1,24.1-4.5
	c0.1,0,0.1-0.1,0.2-0.2l0,0c0-0.1,0-0.1,0-0.2c0,0,0,0,0-0.1v-0.1v-0.1l0,0l0,0l-0.1-0.1l0,0c-0.1,0-0.1-0.1-0.2-0.1h-2.1l0,0
	c1.8-0.6,3.4-1.5,4.9-2.6c0.2-0.1,0.2-0.4,0.2-0.6l0,0v-0.1l0,0c-0.1-0.1-0.1-0.1-0.2-0.2l0,0c-0.1,0-0.2,0-0.3,0
	c-7.1,2.7-15,1.7-21.3-2.5h-0.1c0,0,0,0-0.1,0s-0.1,0-0.2,0l0,0c-0.1,0-0.2,0.1-0.3,0.2c-0.1,0.1-0.1,0.3-0.1,0.5
	c0.7,1.8,1.7,3.5,3.1,4.9l-3.2-0.5c-0.3,0-0.5,0.1-0.6,0.4c0,0.2,0,0.3,0.1,0.4l1.6,1.7c-2.3,0.1-4.5-0.8-6.1-2.5
	c-0.2-0.2-0.4-0.5-0.6-0.7c-0.4-0.6-0.7-1.2-1-1.8c-0.2-1.7,0-3.5,0.5-5.1c0.1-0.5,0.5-1.2,1-1.2c0.2,0,0.3,0.1,0.4,0.3
	c0.1,0.1,0.3,0.3,0.4,0.5l0.1,0.1c0.1,0.2,0.2,0.4,0.4,0.5c0.5,0.4,1.1,0.6,1.7,0.4c0.2-0.1,0.3-0.3,0.3-0.6c-0.3-1-0.5-2.1-0.6-3.2
	c0.1-0.1,0.3-0.2,0.4-0.3c1-0.2,2,0,2.8,0.7c0.3,0.2,0.6,0.5,0.8,0.7c0.3,0.2,0.5,0.5,0.8,0.8s0.6,0.6,0.9,0.9l0,0
	c2.4,2.2,5.5,3.4,8.8,3.3c0.9,0,1.8-0.1,2.7-0.3c4-0.9,7.6-3.4,9.7-6.9c0.1-0.1,0.1-0.3,0-0.5c0,0,0,0,0-0.1c0,0,0,0-0.1-0.1
	l-0.1-0.1l0,0l0,0h-0.1l0,0c-0.2,0-0.3,0-0.4,0.1c-1.3,1.5-2.8,2.7-4.5,3.7l0,0c0-0.1,0-0.1,0.1-0.2c0.1-0.3,0.2-0.5,0.2-0.8
	c0-0.1,0.1-0.3,0.1-0.4c0.1-0.3,0.1-0.6,0.1-0.8c0-0.1,0-0.1,0-0.2c0-0.1,0-0.2-0.1-0.2l0,0c0-0.1-0.1-0.1-0.1-0.1s0,0-0.1,0l0,0
	c-0.1,0-0.1,0-0.2,0c-0.2,0-0.3,0.1-0.4,0.2c-1.2,2-3.4,3.4-5.7,3.6c-2.3,0.2-4.5-0.9-6.1-2.6c-1.3-1.3-2.2-3-2.7-4.6
	c-1.2-4.2-0.3-8.7,0.4-12.7c0-0.1,0-0.2-0.1-0.3l0,0c0,0,0,0-0.1-0.1c0,0,0-0.1-0.1-0.1l0,0c0,0-0.1,0-0.1-0.1l0,0l0,0
	c-0.2,0-0.5,0.1-0.5,0.3l-2.4,6.2l0,0c1.3-11.8,5.7-23.1,12.8-32.6l0,0c1.1,0.7,1.8,1.9,2,3.1c0.2,1.7,0.2,3.4-0.2,5.1l-2.7,16.6
	c0,0.2,0.1,0.4,0.2,0.5l0,0c0.1,0,0.2,0.1,0.2,0.1c0.1,0,0.2,0,0.3-0.1c2.9-2.4,5-6.2,6-11c0.6-2.9,0.9-5.8,1.1-8.7
	c0.1-1.2,0.2-2.5,0.3-3.7c1.9-17.7,10.1-34.2,23-46.4c3.6-3,7.4-5.6,11.4-8c3.8-2.2,8.2-4.4,13-4.3c3.1,0.1,6.8,1.5,8.9,4.1
	c0.7,0.9,1.2,1.9,1.5,3c2.4,18,2,36.3-1,54.2l0,0l-1.8-3.5l0,0l0,0c0-0.1-0.1-0.1-0.2-0.2h-0.1c-0.1,0-0.1,0-0.2,0s-0.1,0-0.2,0.1
	c-0.2,0.1-0.3,0.3-0.3,0.5c1.1,6.3-0.4,12.9-4.1,18.1l0,0c0.2-2.5,0-5.1-0.8-7.5c0-0.1,0-0.1-0.1-0.2c-0.1-0.1-0.3-0.2-0.4-0.2
	c-0.2,0-0.4,0.2-0.5,0.4c-1,4.3-2.8,8.3-5.3,11.8c-0.1,0.1-0.1,0.3-0.1,0.5c0,0.1,0.1,0.1,0.1,0.2c0.1,0.1,0.1,0.1,0.2,0.1
	c2.5,0.6,5.8-0.1,8.7-1.9l0,0l-1.4,3.7c0,0.1,0,0.1,0,0.2l0,0c0,0.1,0,0.1,0,0.2l0,0c0,0,0,0.1,0.1,0.1l0.1,0.1l0,0
	c0,0,0.1,0,0.1,0.1c0,0,0,0,0.1,0l0,0c0.1,0,0.1,0,0.2,0c2.7-0.6,5-2.4,6.2-4.9l0,0L379,157c0,0.1,0,0.1,0.1,0.2
	c0,0.1,0.1,0.1,0.2,0.2c0,0,0.1,0,0.1,0.1h0.1h0.1c0.1,0,0.1,0,0.2-0.1c1.3-0.6,2.7-0.8,4.1-0.5l0,0l-0.9,4c0,0.2,0,0.3,0.1,0.4
	l0.1,0.1c0.1,0,0.1,0.1,0.2,0c0.1,0,0.3-0.1,0.4-0.2c1.4-1.7,3.4-2.8,5.6-3.1c0.2,0.1,0.5,0.1,0.7,0.2l0,0c-0.9,2.1-3.3,3.3-5.6,4.5
	l-0.8,0.4c-6.2,3.3-11.3,8.3-14.7,14.5c-0.1,0.1-0.1,0.3,0,0.4l0,0c0,0,0,0.1,0.1,0.1c0,0,0,0,0.1,0.1l0,0c0,0,0,0,0.1,0.1
	c0.2,0.1,0.5,0.1,0.6-0.1c0.8-1,1.7-1.8,2.7-2.6l0,0c-0.5,1.2-0.9,2.4-1,3.7c0,0.1,0,0.2,0.1,0.3c0,0,0,0.1,0.1,0.1l0,0
	c0.1,0.1,0.2,0.1,0.3,0.1c0.1,0,0.3,0,0.4-0.1c3.3-3.3,7.1-6.2,11.1-8.5c0.4-0.3,0.9-0.5,1.4-0.5c0.3,0,0.6,0.2,0.8,0.5
	c0.2,0.3,0.4,0.8,0.4,1.2c0,0.7-0.2,1.4-0.5,2c-0.1,0.2-0.2,0.5-0.2,0.7c-1.2,3.8-0.3,7.9,0.4,11.3c0,0.1,0,0.1,0.1,0.2
	c0.1,0.2,0.3,0.2,0.4,0.2c0.2,0,0.4-0.2,0.5-0.4c0.8-4.5,1.6-9.1,3.8-13.2c1.7-3.1,5-6.5,9.2-7.2l0,0c-5.9,6.7-9.3,15.3-9.5,24.3v1
	c0,2.8-0.1,5.6-1.8,7.6l-0.1,0.1c-0.5,0.4-0.8,1.1-0.8,1.8c0,0.2,0.1,0.4,0.2,0.6c0.1,0.2,0.3,0.3,0.4,0.4c0.3,0.2,0.7,0.3,1,0.3
	c0.2,0,0.4,0,0.5-0.1c0.7-0.3,1.3-0.8,1.8-1.5c2.5-3.2,4.6-6.6,6.3-10.3c0.3-0.6,0.6-1.3,0.9-1.9c0.7-1.7,1.5-3.3,2.4-4.8
	c1.2-1.9,2.6-3.6,4.3-5.1c0,0,0,0,0.1-0.1c-1,1.4-1.9,3-2.6,4.6c0,0,0,0.1,0,0.2c0,0,0,0,0,0.1v0.1c0,0.1,0,0.1,0.1,0.2l0,0
	c0,0.1,0.1,0.1,0.2,0.1h0.1c0,0,0,0,0.1,0s0.3,0,0.4-0.1c1.2-1.1,2.6-1.9,4-2.6l0,0c-2.3,4.4-5.2,8.5-8.6,12.1
	c-0.1,0.1-0.1,0.2-0.1,0.3l0,0v0.1c0,0,0,0,0,0.1c0,0,0,0.1,0.1,0.1c0,0,0,0,0,0.1l0,0c0,0,0,0,0.1,0c0.1,0.1,0.2,0.1,0.3,0.1
	c3-0.8,5.6-2.4,7.7-4.7c1.3-1.3,2.5-2.8,3.6-4.2c0.7-0.9,1.4-1.7,2.1-2.6c1.4-1.6,3.6-3.8,6.2-3.9c0.5,0,0.9,0.1,1.3,0.4
	c0,0,0.1,0.1,0.1,0.2c0,0.1,0,0.1,0,0.2c-0.1,0.3-0.2,0.5-0.4,0.7c-2.7,3.6-5.5,7.3-9,10.2c-0.6,0.5-1.2,0.9-1.8,1.4
	c-1.2,0.9-2.3,1.8-3.4,2.8c-1.7,1.6-2.8,3.8-3,6.2v0.1v0.1l0,0c0,0.1,0.1,0.1,0.1,0.2l0,0c0.1,0.1,0.2,0.1,0.3,0.1
	c0.2,0,0.3-0.1,0.4-0.2c4.7-6.3,10.9-11.4,18-14.8l0,0c-0.3,0.9-0.4,1.7-0.6,2.6c-0.2,1.2-0.6,2.5-1,3.7c-1.6,4-5.6,6.7-8.8,8.9
	c-0.2,0.1-0.2,0.3-0.2,0.5c0,0,0,0,0,0.1v0.1l0,0l0.1,0.1l0,0c0.2,0.1,0.4,0.2,0.6,0.1c1.9-1,3.8-1.8,5.8-2.6
	c0.5-0.2,1.1-0.3,1.4-0.1c0.1,0.1,0.1,0.1,0.2,0.2c0.2,0.3,0.2,0.7,0.3,1c0.5,5.6-1.5,11.2-5.3,15.3c-0.1,0.1-0.2,0.4-0.1,0.5
	c0,0.1,0.1,0.1,0.1,0.2c0.1,0.1,0.2,0.1,0.3,0.1c0.1,0,0.1,0,0.2,0c4.1-1.5,6.6-5.3,8-8.3c0.8-1.8,1.5-3.6,2.1-5.5
	c0.6-1.7,1.2-3.5,2-5.2c1.1-2.7,2.9-5.1,5.3-6.8c0,0,0,0,0.1,0l-3.2,4.1c-0.1,0.2-0.1,0.4,0,0.5l0,0c0.1,0.2,0.3,0.3,0.5,0.2
	l7.3-1.1l0,0l-6.5,4.7l-0.1,0.1c0,0,0,0-0.1,0.1v0.1c0,0.1,0,0.2,0,0.2v0.1v0.1l0,0c0,0.1,0.1,0.1,0.2,0.1h0.1h0.1h0.1
	c6.4-2.2,12.3-5.8,17.2-10.5l0,0c0.1-0.1,0.2-0.3,0.1-0.5l0,0c5.1-1.1,10-2.9,14.6-5.2c0.4-0.2,0.7-0.3,1.1-0.5
	c2.5-1.2,5-2.4,7.4-3.7c0.3-0.2,0.7-0.4,1-0.5c5.7-2.9,11.7-5.9,17.8-8.3c15.3-5.9,26-7.4,30.4-4.3c3.6,5,4.1,10.7,3.3,16.1
	c-0.2,1.4-0.5,2.7-0.8,4.1c-0.4,1.7-0.9,3.3-1.4,4.8c-2.5,7.5-7,14.4-11.3,21c-0.7,1.1-1.4,2.1-2.1,3.2c-0.4,0.6-0.8,1.2-1.2,1.9
	c-2.9,4.3-6.2,8.6-10.6,11.5c-3.5,2.3-7.7,3.6-11.7,4.8l-1,0.3c-4.4,1.4-9,3-12.7,5.9c-0.5,0.4-1,0.9-1.5,1.3
	c-3.2,3.2-4.8,7.4-4.4,11.2c0,0.2,0.2,0.4,0.5,0.4l0,0c0.1,0,0.2,0,0.3-0.1c0.1-0.1,0.1-0.2,0.2-0.3c0.6-2.3,2-4.2,3.5-5.7
	c1.9-2,4.2-3.3,5.8-4.1c2.6-1.2,5.2-2.3,7.9-3.1c0.9-0.3,1.8-0.6,2.7-0.9c0.9-0.3,1.8-0.7,2.7-1c0.2-0.1,0.4-0.2,0.6-0.3l0,0
	c-3.5,2.8-6.3,6.5-8.7,9.8l0,0c-3.1,4.2-6.3,8.4-10.7,11.2c-4.8,3-10.5,3.5-14.4,1c-1.5-1-2.6-2.3-3.3-3.9c-0.4-0.9-0.7-1.9-0.8-3
	c-0.3-2.1,0.5-4.3,2-5.8c0.2-0.1,0.2-0.4,0.1-0.6l0,0c-0.1-0.2-0.3-0.3-0.5-0.3c-2,0.4-3.7,1.6-4.8,3.3l0,0c0.2-2.4,1-4.7,2.2-6.8
	c0-0.1,0.1-0.1,0.1-0.2l0,0c0-0.1,0-0.1,0-0.2c0,0,0,0,0-0.1V242c0,0,0-0.1-0.1-0.1c0,0,0,0-0.1,0l0,0h-0.1l0,0
	c-0.2-0.1-0.4,0-0.5,0.2c-3.8,4.8-5.5,10.2-4.5,14.9c0.2,0.8,0.4,1.5,0.7,2.2c0.9,2.1,2.4,3.9,4.4,5.2c1.7,1.1,3.7,1.7,5.7,1.5l0,0
	c-1.4,2.5-2.2,5.2-2.4,8.1c0,0.1,0,0.1,0,0.2c0,0,0,0,0,0.1c0,0,0,0.1,0.1,0.1l0.1,0.1l0,0c0.1,0,0.1,0,0.2,0l0,0l0,0
	c0.1,0,0.3,0,0.4-0.2l3-3.1l0,0c-0.6,1.5-1.4,2.9-2.3,4.3c-0.8,1-1.7,2-2.6,2.8c-1.2,1.1-2.5,2.1-3.9,3c-1,0.6-2.1,1.1-3.3,1.4
	c-0.6,0.1-1.2,0.1-1.7,0.1c-1.8,0-3.5-1-4.4-2.6l0,0l-0.3-1.2l0,0c-0.1-0.3-0.3-0.4-0.6-0.4c-0.3,0.1-0.4,0.3-0.4,0.5
	c0.1,0.5,0.2,0.9,0.4,1.3l1,3.5c-1.7-1.3-2.9-3.1-3.7-5.1l0,0c0,0,0-0.1-0.1-0.1l-0.1-0.1l0,0h-0.1l0,0c0,0-0.1,0-0.2,0l0,0h-0.1
	c-0.2,0.1-0.4,0.3-0.3,0.6l0.9,5.4c-0.2-0.5-0.5-0.9-0.7-1.4c-1.5-3.3-2.3-6.9-2.4-10.5c-0.1-5.1,0.3-10.1,1.2-15.1l0,0
	c0-0.1,0-0.2,0-0.2s0,0,0-0.1s-0.1-0.1-0.2-0.2c0,0,0,0-0.1,0h-0.1l0,0c-0.1,0-0.2,0-0.2,0s0,0-0.1,0s-0.1,0.1-0.2,0.2l0,0
	c-4.4,8-5.4,19.7-2.4,28.6l0,0c-2.8-2.3-5.1-7.6-6.1-9.9c0-0.1-0.1-0.2-0.2-0.2c-0.1-0.1-0.2-0.1-0.3-0.1c-0.2,0-0.4,0.2-0.4,0.4
	c-0.3,2,0.8,5.5,1.9,8.7c0.5,1.3,0.8,2.6,1.1,3.9c-1.5-0.2-3.5-1.9-5-3.1c-0.1-0.1-0.2-0.1-0.3-0.2c-0.5-0.4-0.9-0.7-1.2-1l0,0
	c-0.1-0.1-0.2-0.1-0.3-0.1l0,0c-0.1,0-0.2,0-0.3,0.1l0,0c0,0-0.1,0-0.1,0.1l0,0c0,0.1-0.1,0.2-0.1,0.2s0,0,0,0.1s0,0.2,0.1,0.2l0,0
	c1.2,1.6,2.1,3.3,2.9,5.1c-4.8-2.9-9.7-5.6-14.8-8c-4.1-2-8.3-3.8-12.6-5.3c0.1-1.1,0.2-2.2,0.1-3.3l0,0c1.2,1.1,2.2,2.4,3.1,3.8
	c0,0.1,0.1,0.1,0.1,0.1l0,0c0,0,0.1,0.1,0.2,0.1l0,0c0.1,0,0.3,0,0.4-0.1c0.1,0,0.1-0.1,0.2-0.2l0,0c0-0.1,0-0.1,0-0.2l0,0l-0.2-2.1
	l0,0c1.7,1.3,3.6,2.2,5.6,2.7c2.6,0.7,5.3-0.1,7-2.1c0-0.1,0.1-0.1,0.1-0.2v-0.1l0,0c0-0.1-0.1-0.3-0.2-0.4s-0.2-0.1-0.3-0.1
	c-2.8,0.2-5.6-0.3-8.1-1.6c-3.7-1.9-6.5-5.2-9-8.1c-1.8-2.1-3.8-4.6-4.8-7.4c-0.5-1.5-0.8-3.3-0.5-5.1c0.2-1.1,0.6-2.1,1.4-3
	c0.8-0.8,1.6-1.6,2.6-2.2c0.3-0.2,0.7-0.5,1-0.7c0.1,0.1,0.3,0.3,0.4,0.4c1.7,1.3,2.9,3.2,3.2,5.3c0,0.2,0.2,0.4,0.4,0.4
	c0.2,0,0.4-0.1,0.5-0.3s0.2-0.5,0.3-0.7c0.5-1.7,0.1-3.4-0.3-5c-0.3-1-0.4-2-0.5-3c0-0.4,0-0.9,0.1-1.3l0,0c1.3-1.9,2.6-3.8,3.7-5.8
	c0.9-0.7,1.9-1.2,3-1.6c3.3-1,6.8-0.8,10,0.5l0,0c-0.5,0.1-0.9,0.4-1.2,0.8l0,0v0.1v0.1v0.1l0,0c0,0.1,0.1,0.2,0.2,0.3h0.1
	c0.6,0.3,1,0.6,1.4,1.1l0,0c0.2,0.2,0.3,0.4,0.4,0.7c0,0,0,0.1,0.1,0.1c0.1,0.2,0.2,0.5,0.2,0.7v0.1c0,0.2,0.1,0.4,0.1,0.6
	c0,0.1,0,0.1,0,0.2c0,0.1,0,0.3,0,0.4c0,0.1,0,0.2,0,0.3s-0.1,0.2-0.1,0.3c0,0.2-0.1,0.3-0.2,0.4c0,0,0,0,0,0.1c0,0,0,0.1-0.1,0.1
	c-0.1,0.2-0.2,0.4-0.4,0.6l-0.1,0.1c-0.2,0.2-0.3,0.4-0.5,0.5c0,0,0,0-0.1,0.1c-0.5,0.4-1,0.6-1.6,0.7c-1.8,0.2-3.6-0.5-4.7-1.8
	c-0.1-0.1-0.3-0.2-0.4-0.2c-0.2,0-0.3,0.1-0.4,0.3c-0.6,0.9-1,2-1.2,3c-0.4,1.7-0.3,3.6,0.2,5.3c0.3,0.9,0.9,1.5,1.6,1.5h0.1
	c0.4,0,0.8-0.2,1.1-0.4c2.3-1.2,4.4-2.6,6.3-4.3c1.8-1.5,3-3.5,3.6-5.8c0.1-0.3,0.2-0.6,0.2-1c0.2-1.1,0.1-2.1-0.3-3.1l0,0
	c4.2,3.1,7.1,7.6,8,12.8l0,0c-3,3.9-7.2,6.5-12,7.5s-9.7,0.1-13.9-2.4c-0.2-0.1-0.5-0.1-0.7,0.2l0,0c0,0.1-0.1,0.2-0.1,0.3l0,0
	c0,0.1,0,0.2,0.1,0.3c3.6,4.3,9,6.7,14.6,6.7c0.1,0,0.2,0,0.4,0c2.2,0,4.4-0.5,6.3-1.7c1.4-1,2.6-2.3,3.6-3.7l0.4-0.5
	c0.9-1.2,4.2-3.6,5.7-3.5c0.3,0,0.3,0.1,0.4,0.2l0.1,0.1l0,0c0,0,0.1,0.1,0.2,0.1l0,0c0.1,0,0.2,0,0.4-0.1c0.1-0.1,0.1-0.1,0.2-0.2
	l0,0c0-0.1,0-0.1,0-0.2l0,0c-0.2-1.2-0.4-2.2-0.5-3.2c-0.2-3.2-1.3-6.2-3.1-8.8c-2.3-3.4-6.2-7.8-10.5-10s-9.4-2.5-13.9-0.8
	l-0.4,0.2c-3,1.3-3.9,1.6-6,4.4c-0.9,1.2-1.8,2.5-2.7,3.8c-0.2,0.3-0.5,0.7-0.7,1l-0.2,0.1c-0.4,0.2-0.7,0.3-1.1,0.5
	c-2.2,0.9-4.1,2.4-5.5,4.4c-0.1-3.3,0-6.6,0.8-9.6c0.3-1,0.6-2,1-3c2-4.4,5.7-7.7,9.3-11c1.4-1.3,2.9-2.6,4.3-4
	c1.1-1.1,1.8-2.2,2-3.1c0.1-0.6,0.1-1.2-0.1-1.7c-0.1-0.3-0.4-0.4-0.7-0.3c0,0,0,0-0.1,0.1l-0.1,0.1c0,0,0,0-0.1,0.1
	c-1.7,2.6-4.3,4.6-7.5,7.2l-0.7,0.5c-3.9,2.8-7.3,6.2-10.2,10.1c-1.5,2.1-3.1,5-3.9,8.5c-0.4,1.6-0.6,3.3-0.5,5
	c0.1,1.5,0.3,2.9,0.5,4.4c0.5,2.3,0.6,4.6,0.3,6.9c-0.1,0.3-0.1,0.6-0.2,0.9l0,0c-0.1,0.3-0.2,0.5-0.2,0.8c-0.4,1.9,0.2,3.9,1.5,5.2
	l6,8c1.5,1.8,2.8,3.9,3.6,6.1l0,0c-1.8-0.6-3.7-1.2-5.5-1.7c-1-0.2-2-0.5-3.1-0.8c-0.1-0.3-0.1-0.6,0-0.9c0-0.1,0.1-0.2,0.1-0.3
	s0-0.1,0.1-0.2v-0.1l0,0c0-0.1-0.1-0.2-0.1-0.3l0,0l0,0l-0.1-0.1c-0.2-0.1-0.5-0.1-0.6,0.1c-0.1,0.1-0.2,0.1-0.3,0.1
	c-0.4-0.1-0.7-0.4-0.8-0.8c-0.1-0.3-0.1-0.7-0.1-1.1c0-0.6-0.1-1.1-0.3-1.6c-0.3-0.7-0.9-1.2-1.7-1.4c-0.2,0-0.5,0.1-0.6,0.2
	c-0.1,0.1-0.1,0.2-0.1,0.3s0,0.2,0.1,0.3c0.3,0.6,0.4,1.3,0.3,2l0,0c-0.8-0.4-1.7-0.2-2.3,0.4l0,0c0,0.1-0.1,0.1-0.1,0.2v0.1h-0.1
	c-0.6-0.2-1.2,0.1-1.5,0.7c0,0.1-0.1,0.2-0.1,0.3c0,0.3,0,0.6,0.1,0.9l0,0c-0.4,0-0.9,0-1.3,0.1c0.1,0,0.1,0,0.2,0
	c0.4,0,0.8,0,1.1,0c0.2,0.5,0.6,0.8,1.1,1c0.7,0.2,1.4,0.2,2.1,0.1h0.2c0.5-0.1,0.9-0.1,1.4,0c0.1,1.4,1,2.5,2.3,2.9
	c0.2,0.1,0.4,0.1,0.6,0.1c0.9,0.1,1.7,0.7,1.9,1.5l1.6,2.7l0,0c-6.2-3.1-12.8-5.6-19.6-7.3c-0.2-0.1-0.3-0.1-0.5-0.2
	c-0.5-0.2-1-0.3-1.5-0.3c-0.4-0.1-0.8-0.2-1.1-0.3c0.1,0,0.1,0,0.2,0.1c0.2,0.1,0.5,0.2,0.7,0.2l0,0c-0.5,0.1-0.8,0.4-1,0.9
	c-0.1,0.1-0.1,0.3-0.1,0.4c0,0.8,0.8,1.3,1.1,1.5c6.4,3.8,12,8.7,16.5,14.5c0,0.1,0.1,0.1,0.2,0.1s0.1,0.1,0.2,0.1c0,0,0,0,0.1,0
	c0.2,0,0.3-0.1,0.4-0.3c0.5-1.5,0.2-3.1-0.6-4.4c-0.8-1.2-1.8-2.2-2.9-3.1l-5.9-5c-0.4-0.3-0.8-0.7-1.2-1c-1-0.9-2-1.7-3.1-2.5
	c4.2,1.5,8.2,3.3,12.3,5.2c2.4,1.1,4.8,2.3,7.1,3.6c0.1,0,0.1,0.1,0.2,0.1l2.5,4c0,0.1,0.1,0.1,0.2,0.2c0.1,0,0.2,0.1,0.2,0.1
	s0,0,0.1,0c0.2,0,0.4-0.2,0.4-0.3c0.2-0.6,0.3-1.3,0.4-1.9l0,0c1.3,0.7,2.5,1.4,3.7,2.1c-1.7,4.1-4,8-6.8,11.4c-4.3-2-8.6-4-13-5.8
	l0,0c-5.3-5-11.3-9.4-17.7-12.9l0,0c5.3,3.2,9.8,7.3,14.3,11.5c-5.2-2.1-10.4-4-15.7-5.8l0,0c6,2.7,12.1,5.4,18.3,8.2l0,0
	c3.2,3.1,6.2,6.3,9.1,9.5c-1.9,1.6-3.9,3-6,4.3c0,0-0.1,0-0.1,0.1c0,0-0.1,0-0.1,0.1c0,0,0,0.1-0.1,0.1v0.1v0.1l0,0v0.1l0,0l0,0
	c0,0.1,0.1,0.1,0.1,0.1l0,0c0.1,0,0.1,0.1,0.2,0.1l0,0c0.1,0,0.2,0,0.3,0c2.8,0,5.6-0.7,8.1-2.1l0,0c2.1,2.4,4.1,4.9,6,7.4
	c-2.7-0.3-5.4-0.8-8-1.3c-6-1.1-12.2-2.3-18.1-1l0,0l2.2-1.5c0.2-0.1,0.3-0.4,0.2-0.6l0,0l0,0l-0.1-0.1l0,0c0,0-0.1,0-0.1-0.1
	c0,0,0,0-0.1,0c0,0,0,0-0.1,0s-0.2,0-0.3,0c-4.5,2.4-9.6,2.1-13.1,1.4c-4.5-0.9-8.7-2.8-12.8-4.6l0,0c-0.1,0-0.2,0-0.2,0h-0.1
	c-0.1,0-0.1,0.1-0.2,0.1s-0.1,0.1-0.1,0.2s0,0.2,0,0.3l0,0c0,0.1,0.1,0.2,0.1,0.3c0.7,0.7,1.6,1.4,2.5,1.9c0.3,0.2,0.6,0.3,0.9,0.4
	l0,0c-6.9,1-14,0-20.2-3c-0.7-0.3-1.4-0.7-2.1-1.1l0,0l0,0c-0.1,0-0.2-0.1-0.2-0.1h-0.1c-0.1,0-0.1,0-0.2,0.1
	c-0.1,0-0.1,0.1-0.2,0.2c0,0.1-0.1,0.2-0.1,0.3l0,0c0,0.1,0,0.2,0.1,0.3c1.7,2.2,4,4,6.7,5.4c4.6,2.4,10.7,3.7,18.3,3.9
	c2.2,0.1,4.5,0.1,6.7,0.1c4.8,0,9.8,0,14.6,0.7c0.1,0,0.3,0,0.4,0.1c1.5,0.2,2.9,0.5,4.3,0.9l0,0c-2.6,0.9-5.2,1.4-7.9,1.6
	c-9-0.3-18.5-0.9-28.8-1.7c-0.3,0-0.5,0.2-0.5,0.4c0,0.3,0.1,0.5,0.4,0.6l0,0l14.2,3.8l0,0l-7.1,0.2h-0.1h-0.1c0,0-0.1,0-0.1,0.1
	l-0.1,0.1c0,0,0,0,0,0.1v0.1c0,0,0,0,0,0.1l0,0c0,0,0,0,0,0.1v0.1c0,0,0,0.1,0.1,0.1l0.1,0.1c0,0,0,0.1,0.1,0.1l7.2,3.4l0,0
	l-14.2,1.9h-0.1c0,0,0,0-0.1,0c0,0,0,0-0.1,0.1l-0.1,0.1v0.1v0.1c0,0,0,0,0,0.1c0,0,0,0,0,0.1l0,0v0.1c0,0,0,0.1,0.1,0.1l0,0
	l0.1,0.1l7.1,3.7l0,0C337,335,330,336,323,335.8c-2.2,0.1-4.4-0.4-6.4-1.3c-1.9-0.9-3.3-2.8-3.4-4.9l0,0c0-0.1,0-0.1-0.1-0.2
	c0,0,0-0.1-0.1-0.1c-0.1-0.1-0.1-0.1-0.2-0.1s-0.1,0-0.2,0s-0.2,0-0.3,0.1l0,0c-0.1,0.1-0.1,0.1-0.2,0.2l0,0l-1.6,5l0,0l-4.4-4.3
	c-0.1-0.1-0.2-0.1-0.3-0.1l0,0c-0.1,0-0.1,0-0.2,0l0,0l-0.1,0.1l0,0l0,0l-0.1,0.1l0,0v0.1v0.1l0.4,4l0,0c-1.6,0.2-3.3-0.2-4.6-1.1
	h-0.1H301h-0.1c-0.1,0-0.1,0-0.2,0s-0.2,0.1-0.2,0.2l0,0l0,0c0,0.1-0.1,0.1-0.1,0.2v0.1c0,0.1,0,0.1,0,0.2c0,0,0,0,0,0.1l2.6,4.4
	l0,0c-5.9,2.2-12.3,2.9-18.5,2.1c0,0,0,0-0.1,0s-0.1,0-0.2,0h-0.1c-0.1,0-0.1,0.1-0.2,0.2v0.1v0.1l0,0c0,0.1,0,0.2,0,0.2v0.1
	l0.1,0.1l0,0c10.4,5.4,22.5,5.2,34.2,5c10.9-0.2,22.2-0.4,32,4c0.1,0,0.1,0,0.2,0s0.2,0,0.2-0.1l0,0c0.1,0,0.1-0.1,0.1-0.1
	s0,0,0-0.1v-0.1V350l0,0l0,0c0-0.1,0-0.1-0.1-0.2l0,0c0-0.1-0.1-0.1-0.2-0.2l-8.3-5.3l0,0c8.4,2.7,18.2,5.2,27.5,3.2
	c0.1,0,0.2-0.1,0.2-0.1l0,0c0,0,0.1-0.1,0.1-0.2c0,0,0,0,0-0.1V347v-0.1l0,0l0,0c0-0.1-0.1-0.1-0.1-0.2l0,0
	c-0.1-0.1-0.1-0.1-0.2-0.1l-7.9-2.6l0,0c5.5-2.4,11.3-4,17.3-4.5l7,2.9l0,0l-3.6,0.6c0,0,0,0-0.1,0s-0.1,0-0.2,0.1c0,0,0,0-0.1,0.1
	c0,0.1-0.1,0.1-0.1,0.2l0,0c0,0.1,0,0.1,0,0.2l0,0l0,0c0,0,0,0,0,0.1c0,0,0,0.1,0.1,0.1c0,0,0,0.1,0.1,0.1l0.1,0.1c0,0,0,0,0.1,0
	c1.1,0.3,2,0.9,2.8,1.7l0,0c-0.2,0.1-0.4,0.2-0.6,0.3c-1.6,0.2-3.2,0.1-4.8-0.3c-0.1,0-0.3,0-0.4,0l0,0l-0.1,0.1l0,0v0.1
	c0,0,0,0,0,0.1l0,0l0,0c0,0.1,0,0.1,0,0.2l0,0c0,0.1,0.1,0.2,0.2,0.3l2.3,1.3l0,0c-1.1,0.8-2.2,1.7-3.2,2.7
	c-1.9,1.8-3.4,3.9-4.3,6.2C374.4,358.7,374,360.2,373.8,361.7z M436.4,300.4c-0.2-0.2-0.5-0.3-0.7-0.5l0,0c0.2-0.2,0.4-0.5,0.7-0.7
	V300.4z M420.8,302.6c-5.6-4.4-11.5-8.5-17.6-12.2c-1-0.6-2.1-1.3-3.1-1.9c-0.2-1.7-0.8-3.4-1.7-4.9c-0.1-0.2-0.3-0.3-0.5-0.2
	c-0.2,0-0.3,0.2-0.4,0.4c-0.3,0.9-0.6,1.8-0.9,2.8c-1.4-0.8-2.9-1.6-4.3-2.4l0,0c-0.3-2.3-1.5-4.4-3.4-5.7c-0.5-0.4-1.1-0.7-1.6-1
	c-0.7-0.3-1.4-0.8-2-1.3c-0.3-0.3-0.6-0.7-0.9-1.1c0.2,0.1,0.4,0.1,0.7,0.2c2.6,0.8,5.4,1.8,8,2.8c0.1,0.4,0.1,0.8,0.1,1.2
	c0,0.3,0.2,0.5,0.5,0.5c0.2,0,0.4-0.1,0.5-0.4s0.1-0.5,0.2-0.8c2.4,1,4.8,2,6.8,2.8c7.5,3.2,14.7,7,21.6,11.4
	c1.1,3.5,1.4,7.1,0.9,10.7c-0.4-1.3-1.1-2.6-2-3.7c-0.2-0.2-0.5-0.3-0.7-0.1c-0.1,0.1-0.2,0.3-0.2,0.4
	C420.8,300.8,420.8,301.6,420.8,302.6z M416.2,308.4c-2.7,0.4-5.5-0.3-7.7-2c-0.2-0.2-0.5-0.1-0.7,0.1c-0.1,0.2-0.1,0.4,0,0.6
	c0.7,1.1,1.5,2.2,2.4,3.2c-5-3-10.2-5.7-15.4-8.4c1.5-2.8,2.9-5.7,4.2-8.6l0,0c0.3,1.1,0.5,2.3,0.5,3.5l0,0c0,0.3,0.2,0.5,0.5,0.5
	l0,0c0.3,0,0.5-0.2,0.5-0.5l0,0c0-2.2,0.1-4.4-0.1-6.4c7.1,4.3,13.9,9,20.4,14.1c0,0.8-0.1,1.6-0.2,2.4v0.3
	c-1.7-1.1-2.9-2.9-3.3-4.9c0-0.2-0.2-0.4-0.4-0.4c-0.2,0-0.4,0.1-0.5,0.3C415.5,304.2,415.5,306.4,416.2,308.4z M406.7,318.4
	c-0.1-0.2-0.3-0.3-0.5-0.3c-2.7,0.3-5.3,0.5-7.9,0.5c-0.3-0.4-0.6-0.9-1-1.3c3-0.8,5.9-1.7,8.7-2.8c0.3-0.1,0.4-0.4,0.3-0.6
	c-0.1-0.3-0.4-0.4-0.6-0.3c-3.3,1.1-6.8,1.6-10.3,1.2c-0.9-1.1-1.7-2.2-2.6-3.3c-1.4-1.7-2.7-3.3-4.2-5c0.1-0.1,0.3-0.2,0.4-0.2
	c0,0.3,0.1,0.6,0.3,0.9c0.2,0.4,0.6,0.6,1,0.6c1.1,0.1,1.7-1,1.9-1.4c0.6-1,1.2-2,1.8-3.1c6.7,3.3,13.2,7,19.4,11l-3.1,1
	c-0.3,0.1-0.4,0.4-0.3,0.6c0,0.1,0.1,0.2,0.3,0.3c1.3,0.6,2.7,0.9,4.1,1l-11.9,5c1.5-0.9,2.8-2,4-3.2
	C406.7,318.8,406.7,318.6,406.7,318.4z M396.3,318.5c-1,0-2-0.2-2.9-0.3c0.8-0.2,1.5-0.4,2.3-0.6C395.9,318,396.1,318.2,396.3,318.5
	z M388.3,300.5c-0.8,0.9-1.7,1.8-2.6,2.6l0,0c-2.1-2.4-4.3-4.7-6.5-6.9C382.2,297.6,385.2,299,388.3,300.5z M429.1,389.8
	L429.1,389.8c-0.7,0.2-1.4,0-1.8-0.6c-0.5-1.1-0.7-2.2-0.7-3.4c-0.1-1.4-0.2-2.8-0.5-4.1c-0.2-1.3-1-1.9-1.8-1.9
	c-0.7,0-1.5,0.6-1.7,1.8c-0.2,2-0.8,3.9-1.8,5.7c-2.5,4-6.8,5.5-10.4,3.6c-1.3-0.7-2.3-1.8-2.8-3.2c-0.6-1.9-0.3-4.1,0.1-6.3
	c0.1-0.4,0.1-0.7,0.2-1c0.9-6.4,0.2-12.9-2.1-18.9c-0.1-0.4-0.6-0.7-1-0.6c-0.5,0.2-0.8,0.7-0.7,1.2c0.7,6.4,0.3,12.8-1.1,19
	c-0.3,1.4-0.8,2.8-1.5,4.1c-0.5,0.8-1.5,1.6-2.5,1.1c-0.6-0.4-1.1-0.9-1.5-1.5c-0.5-0.8-1.2-1.5-2.1-1.9c-1-0.3-1.9,0.6-2.8,1.4
	c-0.6,0.5-1.2,1.1-1.6,1.2l0,0c-0.6,0-3-1.8-5-3.4c-0.3-0.6-0.7-1.2-1-1.9c-0.2-1-0.4-2-0.6-3.1c-0.6-3.9-0.8-7.9-0.6-11.9
	c0-0.3-0.2-0.5-0.5-0.5c-0.2,0-0.4,0.1-0.5,0.3c-1.9,4.6-2.1,9.7-0.8,14.5c-3.4-2.5-5.5-7.5-5.4-12.6c0.3-5.3,2.6-10.3,6.4-13.9
	c1.2-1.1,2.5-2.2,3.8-3.1c1.7-0.7,3.4-1.3,5.2-1.7c0.7,0,1.3,0.2,1.9,0.4l0.1,0.1c0.8,0.3,2,0.8,2.9,0.1c0.4-0.4,0.7-0.9,0.9-1.4
	l0.1-0.3c1-2.4,3.2-3.6,5.1-4.3c2.4-1,4.9-1.5,7.5-1.7c8.2,15.3,14.5,31.4,20.3,47.8C430.3,389.3,429.7,389.6,429.1,389.8z
	 M444.2,382.2c-0.3-0.8-0.9-1.6-1.6-2.1c-0.2-0.2-0.5-0.1-0.7,0.1c0,0.1-0.1,0.1-0.1,0.2c-0.3,1.7-0.8,3.3-1.6,4.7l0,0
	c-0.2-0.1-0.3-0.3-0.4-0.5c-0.3-0.5-0.5-1.1-0.6-1.8c-0.4-2.1-0.7-4.3-0.7-6.5c0-3.2-0.5-6.4-1.6-9.4c-0.2-0.6-0.7-0.9-1.3-0.8
	c-0.7,0.3-1.1,1-0.9,1.7c0.7,3.7,0.9,7.5,0.6,11.2c-0.3,3.1-1.4,6.1-3.3,8.6c-5.6-16-11.9-31.9-19.8-46.9c1.5,0,2.9,0,4.4,0.1
	c0.1,0,0.2,0.1,0.3,0.1c0.1,0.1,0.3,0,0.4,0h0.1c2,0.2,3.9,0.4,5.7,0.7c2.7,0.5,5.4,1.2,7.9,2.1c0.6,0.3,1.2,0.6,2,1
	c2.4,1.2,5.1,2.6,6.3,3.8c3.2,3.1,5.8,6.9,7.6,11C448.8,367.4,447.7,376.3,444.2,382.2z M420.8,335.8c0.3,0.7,0.7,1.4,1.2,2
	l-0.5-0.1C421.2,337.1,421,336.4,420.8,335.8z M450.8,365.5c-0.7-6.4-3-13-6.1-16.7s-7.1-6.4-11.7-7.8c-2.4-1.2-4.9-2-7.5-2.5
	c-0.8-0.2-1.7-0.3-2.6-0.5c-1-3.1-1.7-6.2-2.3-9.4c0.5,0.5,1,1,1.5,1.4c0.2,0.2,0.5,0.2,0.7-0.1c0.2-0.2,0.2-0.5,0-0.7
	c-2.8-2.8-3.8-6.8-2.9-10.6c1.2,0.9,2.4,1.8,3.6,2.7c14.5,11.6,24.8,26.1,35.2,41.1c0.7,1,1.4,2,2.1,3L450.8,365.5z M462.3,365.5
	c-0.7-1-1.4-2-2-3c-10.5-15.3-21.4-30.7-36-42.4c-0.3-0.3-0.7-0.5-1.1-0.8c0.2-0.3,0.4-0.6,0.5-0.9l2.3-7.4c0.4,0.9,0.9,1.8,1.6,2.5
	c0.2,0.2,0.5,0.2,0.7,0c0.1-0.1,0.1-0.2,0.1-0.2c0.2-0.7,0.3-1.3,0.5-2c18.3,16,34.3,35.2,48.7,54.1L462.3,365.5z M479.4,365.5
	c-14.9-19.9-31.1-39.3-49.8-55.6c1.2-3.3,3-6.3,5.2-8.9c6.8,5,13.2,10.3,19.5,15.9l0,0c12.5,11,24.5,22.6,36.3,34.4
	c4.8,4.8,9.7,9.5,14.6,14.3L479.4,365.5L479.4,365.5z"/>
</svg>
