<?xml version="1.0" encoding="utf-8"?>
<!-- Generator: Adobe Illustrator 24.2.3, SVG Export Plug-In . SVG Version: 6.00 Build 0)  -->
<svg version="1.1" id="f5887690-5005-4d88-ab5d-ebefc1119118"
	 xmlns="http://www.w3.org/2000/svg" xmlns:xlink="http://www.w3.org/1999/xlink" x="0px" y="0px" viewBox="0 0 842.9 400"
	 style="enable-background:new 0 0 842.9 400; fill: #215342;" xml:space="preserve" height="250" width="325" transform="translate(30, 70)">
<path d="M347.1,239c-1.2,0.2-2.4-0.3-3-1.4c-0.5-1.2-0.5-2.6,0.1-3.7c0.1-0.2,0-0.4-0.1-0.6l-1.1-1.1c-0.1-0.1-0.3-0.2-0.5-0.1
	c-1.3,0.4-2.2,1.7-2.6,4c-0.7,3.7-0.8,7.5-0.3,11.3c0,0.8,0.3,1.6,0.7,2.3c0.4,0.6,1.1,1,1.9,1.1c0.2,0,0.4,0,0.6-0.1
	c0.6-0.3,1.2-0.8,1.5-1.5c1.7-3,2.9-6.1,3.6-9.5c0.1-0.3-0.1-0.5-0.4-0.6C347.3,239,347.2,239,347.1,239L347.1,239z"/>
<path d="M443,248c0.4,0.4,1,0.7,1.7,0.7c0.3,0,0.6-0.1,0.9-0.2c0.6-0.4,1-1,1.1-1.7c1.1-3.2,1.6-6.6,1.6-10c0-0.3-0.2-0.5-0.5-0.5
	c-0.1,0-0.1,0-0.2,0c-1.1,0.5-2.4,0.2-3.2-0.7c-0.8-1.1-1-2.4-0.6-3.7c0-0.2,0-0.4-0.2-0.5l-1.3-0.9c-0.2-0.1-0.4-0.1-0.5,0
	c-1.2,0.7-1.8,2.1-1.8,4.4c0.1,3.8,0.7,7.5,1.9,11.1C442.1,246.7,442.5,247.4,443,248z"/>
<path d="M304.3,361.1c0.2,0.1,0.5,0,0.6-0.2c0.4-0.6,0.8-1.2,1.3-1.7l3,16.8c0,0.2,0.2,0.4,0.5,0.4h0c0.2,0,0.4-0.1,0.5-0.4
	c3.4-11.2,8.2-21.9,14.5-31.8c0.1-0.2,0.1-0.5-0.2-0.7c0,0-0.1,0-0.1,0c-0.5-0.2-1.1-0.4-1.6-0.6c-3-2-5.8-4.3-8.4-6.8
	c-0.2-0.2-0.5-0.2-0.7,0c0,0-0.1,0.1-0.1,0.1c-0.3,0.5-0.6,1-0.8,1.5c0,0,0,0,0,0c-0.1,0.2-0.2,0.3-0.3,0.5l0,0.1v0
	c-3.9,7-6.7,14.5-8.5,22.3C304,360.8,304.1,361,304.3,361.1z"/>
<path d="M322.1,324.3C322.1,324.3,322.1,324.3,322.1,324.3c-0.2,0.3-0.4,0.5-0.6,0.8c-0.3,0.3-0.6,0.7-0.8,1
	c-0.4,0.6-0.9,1.1-1.3,1.7c0,0,0,0.1,0,0.1c-0.1,0.2-0.3,0.3-0.4,0.5c-0.1,0.1-0.1,0.3-0.1,0.5c0.4,1,0.8,1.9,1.4,2.8
	c1.5,2.3,3.3,4.4,5.3,6.2l-1.3,0.4c-0.3,0.1-0.4,0.4-0.3,0.6c0,0.1,0.1,0.2,0.1,0.2c0.7,0.6,1.5,1.2,2.4,1.7c0.1,0,0.2,0.1,0.2,0.1
	c0.2,0,0.3-0.1,0.4-0.2c0.8-1.1,1.6-2.3,2.4-3.4c0.1-0.1,0.1-0.1,0.2-0.2c1.3-1.8,2.7-3.6,4.2-5.4c0.5-0.6,1-1.2,1.5-1.8
	c0.3-0.3,0.6-0.7,0.8-1c0.6-0.7,1.1-1.3,1.7-1.9c0.1-0.1,0.1-0.3,0.1-0.4c0-0.1-0.1-0.3-0.2-0.4c-2.4-1.7-4.6-3.6-6.6-5.8l0,0
	c-0.7-0.9-1.4-1.8-2-2.7c-0.1-0.2-0.5-0.3-0.7-0.2c0,0-0.1,0-0.1,0.1C326.3,319.6,324.1,321.9,322.1,324.3z"/>
<path d="M472.4,303.9c0.9,0.2,1.8,0.5,2.7,0.8h0c2.5,0.7,5,1.6,7.4,2.5c0.1,0,0.1,0,0.2,0c0.2,0,0.4-0.1,0.4-0.3
	c2-3.7,3.6-7.6,4.6-11.6c0.1-0.3-0.1-0.5-0.4-0.6c-0.1,0-0.2,0-0.3,0c-0.8,0.4-1.6,0.6-2.4,0.8c-0.3,0.1-0.4,0.3-0.4,0.6
	c0,0.1,0,0.1,0.1,0.2c0.1,0.2-0.1,0.4-0.1,0.4c-0.2,0.2-0.5,0.2-0.7,0c-0.3-0.2-0.5-0.4-0.8-0.6l-0.5-0.3h0
	c-0.7-0.5-1.5-1.1-2.2-1.6c0,0,0,0,0,0c-0.1-0.1-0.3-0.2-0.4-0.3c-0.8-0.5-1.7-1.1-2.5-1.6l-0.2-0.1c-0.9-0.5-1.8-1-2.7-1.5
	c0,0-0.1,0-0.1,0c-0.1-0.1-0.2-0.1-0.4-0.2c-0.2-0.1-0.5,0-0.7,0.2c0,0.1-0.1,0.2-0.1,0.2c0.1,3.5-0.1,7.1-0.6,10.6
	c-0.1,0.6-0.2,1.2-0.3,1.7C472,303.6,472.1,303.8,472.4,303.9z"/>
<path d="M318.2,326.8L318.2,326.8c0.2,0,0.3-0.1,0.4-0.2c0.1-0.1,0.2-0.3,0.3-0.4l0,0c0.4-0.6,0.9-1.1,1.4-1.7l0.1-0.1
	c0.4-0.5,0.8-1,1.3-1.5c2-2.3,4.1-4.5,6.4-6.6c0.2-0.2,0.2-0.4,0.1-0.7c-0.1-0.2-0.4-0.3-0.7-0.2c-0.2,0.1-0.5,0.1-0.7,0
	c-0.3-0.1-0.5-0.4-0.6-0.6c-1.4-3.7-1.5-7.8-0.1-11.5c0.1-0.3,0-0.5-0.3-0.6c-0.1,0-0.1,0-0.2,0h0c-0.3,0-0.6-0.1-0.8-0.3
	c-0.1-0.2-0.2-0.4-0.2-0.6c0.7-2.2,1.7-4.3,2.9-6.3c0.1-0.1,0.1-0.3,0-0.5c0,0,0,0,0,0s0,0,0,0c-0.1-0.1-0.1-0.1-0.2-0.2
	c0,0-0.1,0-0.1,0c0,0-0.1,0-0.1,0c-0.4-0.1-0.8-0.2-1.2-0.5c-0.1,0-0.2-0.1-0.3-0.1c-7.7,0.9-15.3,2.4-22.7,4.5
	c-0.2,0.1-0.4,0.3-0.4,0.5c0,2.9,0.7,5.8,2.2,8.4c0.1,0.2,0.4,0.3,0.7,0.2c0.1-0.1,0.2-0.1,0.2-0.2l0.9-2.1
	c2.2,7.8,6,15.1,11.3,21.3C318,326.8,318.1,326.8,318.2,326.8z"/>
<path d="M397.6,285.2c-0.5-0.1-1.1-0.1-1.6,0.1l-0.1,0c-2,0.4-4.1,0.4-6.1-0.1c-0.3,0-0.5,0.1-0.6,0.4c0,0.3,0.1,0.5,0.4,0.6
	c1.8,0.4,3.2,1.7,3.9,3.4c0.1,0.2,0.3,0.3,0.5,0.3l0,0c0.2,0,0.4-0.1,0.5-0.3c0.7-1.5,2.2-2.4,3.8-2.4c0.2,0,0.3-0.1,0.4-0.2
	c0.1-0.1,0.1-0.3,0.1-0.4C398.6,285.9,398.2,285.4,397.6,285.2z"/>
<path d="M466.3,310.7l0.1-0.2c0.1-0.2,0.2-0.5,0.4-0.8l0,0l0,0c0.5-1.8,0.8-3.6,0.9-5.4c0-0.1,0-0.1,0-0.2c-0.1-0.2-0.2-0.3-0.4-0.3
	h0l0,0l0,0h0c-2.8-0.6-5.7-1-8.6-1.3c-0.1,0-0.1,0-0.2,0c-0.7,0.2-1.4,0.4-2.1,0.6l0,0c-0.2,0.1-0.5,0-0.7-0.1
	c-0.2-0.1-0.3-0.3-0.4-0.5c-0.1-0.2-0.2-0.3-0.4-0.3c-2.1-0.1-4.2-0.2-6.4-0.2c-0.1,0-0.3,0.1-0.4,0.2c-0.1,0.1-0.1,0.2-0.1,0.4
	c0,0.1,0,0.3-0.1,0.4c-0.1,0.2-0.2,0.4-0.4,0.5c-0.2,0.1-0.5,0.2-0.7,0.1c-0.2-0.1-0.3-0.1-0.5-0.1c-0.5-0.1-1.1-0.1-1.6-0.1h-0.4
	c-0.3,0-0.5,0.2-0.5,0.5c0,0.2,0.1,0.4,0.3,0.5c3.1,1.2,6.1,2.8,8.8,4.7c3.2,2.2,6.2,4.8,8.8,7.7c0.1,0.1,0.2,0.2,0.4,0.2h0
	c0.1,0,0.3-0.1,0.4-0.2C464,314.7,465.3,312.8,466.3,310.7C466.3,310.7,466.3,310.7,466.3,310.7z"/>
<path d="M483.3,307.1c0,0.2,0.1,0.4,0.3,0.5c1.1,0.4,2.1,0.9,3.1,1.3c0.1,0,0.1,0,0.2,0c0.2,0,0.4-0.1,0.5-0.3
	c0.4-0.9,0.7-1.7,1-2.5c0.1-0.3,0-0.5-0.3-0.6c-0.1,0-0.2,0-0.3,0l-4.1,1.1C483.4,306.8,483.3,306.9,483.3,307.1z"/>
<path d="M486.3,309.8c-3.7-1.7-7.6-3.1-11.5-4.2c-0.3-0.1-0.5,0.1-0.6,0.3c-0.1,0.2,0,0.4,0.2,0.5c3.2,2.7,6.2,5.6,8.8,8.9
	c0.1,0.1,0.2,0.2,0.4,0.2h0c0.2,0,0.3-0.1,0.4-0.2c1-1.5,1.8-3.1,2.6-4.8c0.1-0.1,0.1-0.3,0-0.4C486.6,310,486.5,309.9,486.3,309.8z
	"/>
<path d="M482.8,317.1c0.1-0.2,0.1-0.4,0-0.6c-2.4-3-5.1-5.8-8.1-8.4v0c-0.9-0.8-1.8-1.5-2.6-2.1l0,0l0,0c-0.2-0.2-0.5-0.1-0.7,0.1
	c0,0.1-0.1,0.1-0.1,0.2c-0.6,2.2-1.4,4.4-2.4,6.4c-1.1,2.4-2.6,4.6-4.3,6.5c-0.2,0.2-0.2,0.4,0,0.6c0.5,0.6,1,1.3,1.5,2
	c0.1,0.2,0.2,0.3,0.3,0.5c1.5,2.2,2.9,4.4,4.1,6.7c0.1,0.1,0.2,0.2,0.3,0.3c0,0,0.1,0,0.1,0c0.1,0,0.2,0,0.3-0.1
	C475.7,325.8,479.6,321.7,482.8,317.1z"/>
<path d="M487.7,323.6c-0.1-0.2-0.3-0.2-0.4-0.2h0c-0.2,0-0.3,0.1-0.4,0.3c-1.3,2.5-2.3,4.2-2.9,5.2c-0.2-0.6-0.5-1.2-0.7-1.8
	c-0.4-0.8-0.7-1.7-0.9-2.6c0-0.2-0.2-0.4-0.5-0.4c-0.2,0-0.4,0.1-0.5,0.3c-0.4,1.1-0.7,2.2-1,3.2c-0.9,3.4-1.6,6.1-5,7.3
	c-0.4,0.1-0.8,0.3-1.3,0.4c-0.3,0.1-0.4,0.4-0.3,0.6c0,0,0,0,0,0c0.9,2.4,1.8,4.9,2.6,7.5c0,0.1,0.1,0.3,0.3,0.3
	c0.1,0.1,0.3,0.1,0.4,0c5.7-2.9,10.7-7.1,14.6-12.2c0.1-0.1,0.1-0.3,0.1-0.5C490.5,328.6,489.2,326,487.7,323.6z"/>
<path d="M492.1,312.8c-0.1,0-0.2,0.1-0.3,0.3c-1.3,3-2.6,5.9-3.9,8.5c-0.1,0.2-0.1,0.3,0,0.5c1.5,2.5,2.9,5.1,4.1,7.7
	c0.1,0.2,0.2,0.3,0.4,0.3h0.1c0.2,0,0.3-0.1,0.4-0.2c2.7-3.8,5.1-7.8,7-12c0.1-0.2,0-0.5-0.2-0.6c-2.4-1.6-4.8-3-7.3-4.4
	C492.4,312.8,492.2,312.8,492.1,312.8z"/>
<path d="M650.6,432.5h-70.5c-5.2-13.4-12.7-25.8-22.1-36.7l2.6-0.2c0.3,0,0.5-0.3,0.5-0.5c0-0.1-0.1-0.2-0.2-0.3
	c-3.9-3.5-6.9-7.9-8.6-12.8l5.6-0.6c0.3,0,0.5-0.3,0.4-0.6c0-0.1-0.1-0.2-0.1-0.3l-9.9-10.2c-1.7-3.1-2.9-6.5-3.6-10
	c-0.3-1.6-0.5-3.2-0.7-4.8c-0.2-2-0.6-4.1-1-6.1c-0.7-3.4-2.4-6.5-4.9-8.9l2.7-0.7c0.3-0.1,0.4-0.3,0.4-0.6c0,0,0-0.1,0-0.1
	c-1.6-3.5-4.1-6.4-7.3-8.4l2.6-2.5c0.2-0.2,0.2-0.5,0-0.7c-0.1-0.1-0.2-0.2-0.3-0.2c-3.5-0.2-6.7-2.2-8.4-5.3c2.3-0.5,4-2.4,4.1-4.8
	c0-0.3-0.2-0.5-0.5-0.5l-4.9-0.4c-2.6-2.2-5.1-4.7-7.3-7.3c-2.4-2.8-5-5.4-7.8-7.7c-1.6-8.7,0-17.9,2-27.3l0.2-0.8
	c2.2-10.2,4.5-20.8,2.2-30.9l3.3,2.3c0.2,0.2,0.5,0.1,0.7-0.1c0.1-0.1,0.1-0.2,0.1-0.3c-0.5-4.1-1.3-8.1-2.3-12.1l4.8-18.5
	c0-0.2,0-0.3-0.1-0.4c-0.1-0.1-0.3-0.2-0.4-0.2c-1.7,0.1-3.4-0.4-4.7-1.6l3.5-3.3c0.2-0.2,0.2-0.5,0-0.7c0,0-0.1-0.1-0.1-0.1
	c-3.4-1.7-6.1-4.7-7.3-8.4l0.9,0.6c0.2,0.2,0.5,0.1,0.7-0.1c0.1-0.1,0.1-0.2,0.1-0.4c-0.8-6.9,0.4-14,1.6-20.7l6.3-37.3
	c2.4,2,4.7,4.1,7,6.2c0.2,0.2,0.4,0.4,0.5,0.4c-2.3-2.6-4.8-5.1-7.3-7.5l4.7-27.6c2.1,0.7,4.1,1.5,6,2.2c4.7,1.8,9,4.3,13,7.3
	c-3.6-3.2-7.6-5.9-12-8c-2.2-1.1-4.5-2.1-6.7-3l1.9-11.4c1-5.9,2.1-12.6,0.1-18.8c-0.2-0.6-0.4-1.1-0.7-1.7c-0.9-2.7-2.7-5-5-6.7
	c-4.2-2.9-9.4-3.9-14.5-3c-4.3,0.7-8.8,2.5-13.7,5.7c-9.2,5.8-16.7,13.7-24.1,21.3c-7.1,7.4-14.4,15.6-21.5,23.5
	c-3.4,3.8-6.8,7.6-10.2,11.4c-3.6,1.3-7.4,2.2-10.4,2c-1.1-0.1-2.1-0.2-3.2-0.3c-4.4-0.4-8.9-0.8-13.2,0c-2.3,0.5-4.5,1.1-6.7,1.8
	c-2.5,0.9-5.1,1.5-7.7,2c-4.8,0.6-9.8-0.5-14.5-1.5c-3.9-1-7.9-1.6-11.9-1.7h-0.1c-3.6,0.1-7.2,0.6-10.7,1.5
	c-2.2,0.4-4.5,0.9-6.7,1.2c-3.6,0.5-7.2,0.2-10.7-0.9l-38.3-32.2c-8.2-6.9-16.7-14-26.5-18.9c-5.3-2.6-10-4-14.4-4.2
	c-5.1-0.4-10.2,1.3-14.1,4.7c-2.1,2-3.6,4.5-4.2,7.4c-0.2,0.6-0.4,1.2-0.5,1.8c-0.7,4.4-0.5,8.9,0.7,13.2c-5,2-10.8,4.6-14.6,6.5
	c4.9-1.9,9.9-3.7,14.9-5.4c0.4,1.6,0.9,3.2,1.3,4.7l3.7,12.9c-2.5,1-5,2.1-7.5,3.2c-1.7,0.7-3.5,1.6-5.1,2.3
	c2.4-0.9,4.9-1.7,7.4-2.6c1.8-0.6,3.7-1.2,5.5-1.8l3.8,13.3c-0.3,0.2-0.5,0.5-0.8,0.7c-5,4.5-11.8,11.2-15.4,15.1
	c5.4-4.9,11-9.6,16.6-14.3l4.6,16c-2.3,2.4-4.5,5-6.5,7.7c2.2-2.3,4.4-4.6,6.8-6.8l9.3,32.6c1.9,6.8,3.9,13.7,3.9,20.9
	c0,0.3,0.2,0.5,0.5,0.5c0.1,0,0.3-0.1,0.3-0.1l0.7-0.7c-1.1,3.9-4.7,7.7-7.8,9.7c-0.2,0.2-0.3,0.5-0.1,0.7c0,0,0.1,0.1,0.1,0.1
	l3.9,3c-1.1,1.3-2.8,2.1-4.5,2.2c-0.2,0-0.3,0.1-0.4,0.2c-0.1,0.1-0.1,0.3-0.1,0.5c1.5,3.9,2.8,7.5,4,11.1c0.5,1.3,0.9,2.6,1.4,4
	c-1.9,2.9-3.7,5.8-5.2,8.9c-0.1,0.3,0,0.5,0.3,0.6c0.1,0,0.3,0,0.4,0c1.6-1,3.4-1.7,5.2-2.1c-0.9,3.5-2.8,17.3-1.9,21.5
	c0.1,0.3,0.3,0.4,0.6,0.4c0,0,0.1,0,0.1-0.1l2.8-1.5c1,16.2,4.7,28.4,11.1,36.1c0.7,0.8,1.4,1.6,2.2,2.4c1.7,1.8,3.5,3.7,4.4,5.9
	c0.6,1.6,0.6,3.5-0.1,5.1c-0.5,1.3-1.6,2.3-2.8,2.8c-0.3,0.1-0.4,0.4-0.3,0.6c0.1,0.1,0.2,0.3,0.3,0.3c1.8,0.6,3.7,0.5,5.5-0.1
	c0.8,2.3,2.2,4.3,4,5.9c-3.3,6.4-4.9,13.5-4.9,20.7c-0.5,1.5-0.9,3-1.3,4.5c-1.5,6.7-3.3,14.3-9.3,17.2c-0.2,0.1-0.4,0.4-0.2,0.7
	c0,0.1,0.1,0.2,0.2,0.2c1.8,1,3.9,1.3,6,0.9c-0.9,6.2-1.6,12.5-2,18.9c-3.7,0.6-7.3,1.5-10.9,2.5c-3.1,0.9-6.2,2.2-9,3.9
	c-5.5,2.3-10.2,6.1-13.5,11c-3.4,5.1-5.6,13.7-5.8,22h-84.4c-0.3,0-0.5,0.2-0.5,0.5v17.9c0,0.3,0.2,0.5,0.5,0.5h87.5
	c0.7,2.1,1.9,4,3.5,5.5c3.5,3.3,7.6,4.5,11.6,5.4c5.3,1.1,10.6,2,16,2.4c0.2,0.4,0.5,0.7,0.8,1c1.2,1.2,2.8,1.9,4.4,1.9
	c0.4,0,0.9,0,1.3-0.1c1.5-0.4,2.8-1.1,3.9-2.2c0.5,0,0.9,0,1.4,0c5.2,0,10.4-0.3,15.5-0.8c5.8-0.6,11.4-1.5,16-5.6
	c2.1-2,3.7-4.3,4.8-6.9c0.2-0.2,0.4-0.3,0.6-0.5h139.7c1.1,1,2.3,1.9,3.6,2.7c1.3,2.5,3.1,4.8,5.3,6.5c5,3.7,10.7,4.1,16.5,4.3
	c1.1,0,2.3,0,3.4,0c4.6,0,9.1-0.2,13.6-0.6c1.2,1,2.6,1.7,4.1,1.9c0.3,0,0.6,0.1,0.8,0.1c1.8,0,3.6-0.8,4.8-2.2
	c0.3-0.3,0.5-0.7,0.7-1.1c5.3-0.9,10.6-2.1,15.8-3.7l0.1,0c0.2,0.3,0.5,0.5,0.8,0.7c0.7,0.6,1.7,0.9,2.6,1c0.4,0,0.7-0.1,1.1-0.2
	c1.1-0.5,2-1.2,2.6-2.2c0.7-1,1.3-2.2,1.6-3.4c0.9-0.7,1.7-1.4,2.4-2.2c0.4-0.5,0.8-1,1.1-1.5h98.2c0.3,0,0.5-0.2,0.5-0.5V433
	C651.1,432.7,650.8,432.5,650.6,432.5C650.6,432.5,650.6,432.5,650.6,432.5z M500.6,423.2c-0.1-0.5-0.6-0.8-1.1-0.7
	c-0.6,0.2-0.9,0.8-0.8,1.4c0.9,8.1,0.5,16.4-1.1,24.4c-0.3,1.9-0.9,3.7-1.8,5.3c-0.7,1.1-1.9,2.1-3.1,1.5c-0.8-0.5-1.4-1.2-1.9-1.9
	c-0.6-1-1.5-1.8-2.6-2.3c-1.1-0.4-2.2,0.7-3.3,1.8c-0.7,0.7-1.5,1.5-2,1.5h0c-0.8,0-3.8-2.3-6.3-4.4c-0.4-0.8-0.8-1.6-1.2-2.5
	c-0.3-1.3-0.5-2.6-0.8-4c-0.7-5-1-10.1-0.9-15.2c0-0.2-0.2-0.4-0.4-0.5c-0.2,0-0.5,0.1-0.6,0.3c-2.3,6-2.5,12.7-0.7,18.9
	c-4.3-3.1-7.2-9.6-7-16.4c0.2-6.7,3-13.2,7.7-18c3.7-3.7,8.6-7.7,13.5-5.7l0.2,0.1c1,0.4,2.4,1,3.4,0.1c0.5-0.5,0.8-1.1,1-1.8
	l0.1-0.4c1.2-3.1,4.1-4.7,6.2-5.7c7.9-3.5,17.2-2.6,24.5-1.3c3.3,0.6,6.6,1.5,9.8,2.6c0.7,0.4,1.5,0.8,2.4,1.3
	c3,1.6,6.3,3.4,7.8,4.9c4,4,7.3,8.8,9.5,14.1c2.5,9.8,1.2,21.4-3.2,29c-0.4-1.1-1.1-2.1-2-2.9c-0.1-0.1-0.3-0.1-0.5-0.1
	c-0.2,0.1-0.3,0.2-0.3,0.4c-0.3,2.1-1,4.2-1.9,6.1c0,0.1-0.1,0.1-0.1,0.2c-0.3-0.2-0.5-0.4-0.6-0.7c-0.4-0.7-0.6-1.5-0.8-2.3
	c-0.6-2.7-0.9-5.5-1-8.3c-0.2-3.9-0.5-7.9-2-12c-0.2-0.7-0.8-1.1-1.5-0.9c-0.8,0.3-1.2,1.2-1,2.1c0.9,4.8,1.2,9.6,0.9,14.4
	c-0.5,6-3.3,12.7-7.6,13.6c-0.9,0.3-1.8,0-2.4-0.8c-0.7-1-0.8-2.8-0.9-4.3l0-0.1c-0.1-1.8-0.3-3.5-0.6-5.3c-0.3-1.6-1.3-2.3-2.1-2.3
	c-0.8,0-1.7,0.6-1.9,2.3c-0.2,2.6-0.9,5.1-2.1,7.4c-3.1,5.2-8.4,7.1-12.8,4.7c-1.7-0.9-2.9-2.4-3.5-4.2c-0.8-2.5-0.4-5.4,0-8.1
	c0.1-0.5,0.1-0.9,0.2-1.3C504.4,439.1,503.5,430.9,500.6,423.2L500.6,423.2z M304.4,422.3c-0.5-0.1-1,0.3-1,0.8
	c-2.2,7.9-2.5,16.2-0.8,24.2c0.1,0.4,0.2,0.9,0.3,1.3c0.6,2.7,1.3,5.6,0.6,8.1c-0.4,1.8-1.6,3.4-3.2,4.4c-4.2,2.8-9.6,1.3-13.1-3.7
	c-1.4-2.2-2.3-4.6-2.7-7.2c-0.3-1.6-1.3-2.1-2.1-2.1c-0.9,0.1-1.8,0.8-1.9,2.5c-0.1,1.8-0.2,3.5-0.2,5.3v0.1c0,1.6,0.1,3.3-0.5,4.4
	c-0.5,0.8-1.4,1.2-2.3,1c-4.3-0.6-7.6-7-8.6-13c-0.7-4.8-0.8-9.6-0.3-14.5c0.2-0.9-0.3-1.7-1.1-2c-0.5-0.1-1.1,0.1-1.4,1
	c-1.2,4.2-1.1,8.2-1,12.1c0.2,2.8,0.1,5.6-0.3,8.4c-0.1,0.8-0.3,1.6-0.6,2.3c-0.3,0.8-1.3,1.3-2.1,1c-1-0.5-1.8-1.2-2.4-2.1
	c-5.7-7.1-8.5-19.5-6.7-30.1c1.8-5.5,4.6-10.5,8.3-14.9c1.4-1.7,4.6-3.7,7.4-5.5c0.9-0.6,1.6-1,2.3-1.5c3-1.4,6.2-2.6,9.5-3.4
	c7.1-1.8,16.3-3.5,24.4-0.7c2.2,0.8,5.2,2.1,6.6,5.1l0.2,0.4c0.2,0.7,0.6,1.2,1.1,1.7c1.1,0.8,2.4,0.1,3.4-0.4l0.2-0.1
	c3.6-1.9,7.6-0.2,11,2.3c0,0.1,0.1,0.1,0.1,0.2c0,0.1,0.1,0.1,0.1,0.2l0.2,0.1c0.1,0,0.1,0.1,0.2,0.1c0.1,0,0.2,0.1,0.3,0.1
	c0.7,0.5,1.3,1.1,2,1.6c5.1,4.4,8.4,10.6,9.1,17.3c0.7,6.7-1.6,13.4-5.6,16.9c1.3-6.3,0.5-12.9-2.3-18.7c-0.1-0.2-0.4-0.4-0.7-0.2
	c-0.2,0.1-0.3,0.3-0.3,0.5c0.6,5.1,0.7,10.2,0.4,15.3c-0.1,1.4-0.3,2.7-0.4,4c-0.3,0.9-0.6,1.7-1,2.5c-2.3,2.4-5.1,4.9-5.9,4.9h0
	c-0.5,0-1.4-0.7-2.1-1.4c-1.1-1-2.3-2-3.4-1.5c-1,0.6-1.8,1.5-2.4,2.5c-0.4,0.8-1,1.5-1.7,2.1c-1.1,0.7-2.4-0.3-3.2-1.3
	c-1-1.6-1.8-3.3-2.3-5.2c-2.3-7.9-3.4-16-3.1-24.2C305.4,423.1,305,422.5,304.4,422.3L304.4,422.3z M297.5,365.9c0.4,4,1.7,7.7,4,11
	c0.1,0.1,0.2,0.2,0.4,0.2c0.3,0,0.5-0.2,0.5-0.5c0,0,0-0.1,0-0.1c-1.1-3.8-0.9-7.8,0.4-11.5c0.1-0.2,0-0.5-0.3-0.6
	c-0.3-0.1-0.4-0.4-0.4-0.7c1.1-6.2,2.8-12.3,5.3-18.2c1.3-3,2.8-6,4.4-8.8l0,0c0.3-0.6,0.7-1.1,1-1.7c0.1-0.2,0.1-0.4-0.1-0.6
	l-0.1-0.1c-3.2-3.5-25.2-32.9-29.7-59.6c-2.8-16.8-5.3-36.1-3.7-39.8c0.1-0.3,0-0.5-0.3-0.7c-0.2-0.1-0.5,0-0.6,0.2
	c-0.1,0.2-0.3,0.4-0.4,0.7c2.7-6.6,6.9-12.4,12.3-17c-0.8,3.1-1,6.3-0.4,9.4c0.5,2.5,1.3,5,2.3,7.4c0.4,1.1,0.8,2.1,1.1,3.2
	c1.3,3.8,1.6,6.8,1.2,9.4c-2.6-4.4-4.6-9.1-5.8-14.1c-0.1-0.3-0.3-0.4-0.6-0.4c-0.2,0.1-0.4,0.2-0.4,0.5c-0.1,2.1-0.4,4.2-0.7,6.2
	c-0.6,3.6-0.9,7.2-0.6,10.8c0.2,1.4,0.4,2.7,0.8,4.1c-0.1,10.1,3,19.9,8.9,28.1l-4.2,0.8c-0.3,0.1-0.4,0.3-0.4,0.6
	c0,0.1,0.1,0.2,0.1,0.3l8.6,8.3c0,1.6-0.6,3.2-1.5,4.5c-0.2,0.2-0.1,0.5,0.1,0.7c0.1,0.1,0.2,0.1,0.3,0.1c0.1,0,0.1,0,0.2,0l3.5-1.4
	c0,0.1,0,0.1,0,0.2c0,0.3,0.1,0.5,0.4,0.6c0.1,0,0.2,0,0.2,0c3-0.9,6.1-1.7,9.1-2.3c3.4-0.7,6.9-1.3,10.4-1.7c0.3,0,0.5-0.3,0.4-0.6
	c0-0.1-0.1-0.2-0.2-0.3c-0.4-0.3-0.7-0.7-1-1.2c0.4-0.5,2.9,0,4.2,0.2l0.2,0c0.3,0.1,0.5-0.1,0.6-0.3c0.1-0.2,0-0.5-0.3-0.6
	c-0.4-0.2-0.7-0.5-1-0.8c-1.1-1.3-4.1-5.3-3.7-6.8c1.7-0.4,3.5-0.6,5.3-0.5c0.2,0,0.4-0.1,0.5-0.3c0.1-0.2,0-0.5-0.2-0.6
	c-2.8-1.9-5.4-4.1-7.8-6.5c-5.6-5.6-7.3-10.3-9-14.9c-0.2-0.7-0.5-1.3-0.7-2l0,0c3.8,3.4,7.9,6.3,12.3,8.8c0.2,0.1,0.5,0.1,0.7-0.2
	c0.1-0.2,0.1-0.3,0-0.5c-0.5-0.8-1-2-1.6-3.1c-0.2-0.3-0.3-0.7-0.5-1c8.5,6.7,15.9,8.3,26,8.4c-0.6,0.4-1.1,0.7-1.8,1
	c-0.8,0.4-1.5,0.8-2.2,1.3c-0.2,0.2-0.3,0.5-0.1,0.7c0.1,0.1,0.2,0.2,0.4,0.2c4.3,0.5,8.6-0.4,12.3-2.6l-1.5,2.4
	c-0.1,0.2-0.1,0.5,0.2,0.7c0,0,0.1,0,0.1,0.1c1.5,0.3,3,0.4,4.5,0.2c-2.2,1.7-4.6,3.2-7,4.5c-0.2,0.1-0.3,0.4-0.2,0.7
	c0.1,0.1,0.2,0.2,0.3,0.2c2.7,0.6,5.4,0.9,8.1,0.9c-6.9,3.7-16.8,3.8-23-0.2c-0.2-0.1-0.5-0.1-0.7,0.2c-0.1,0.2-0.1,0.4,0,0.5
	l0.3,0.5c0.9,1.7,2.1,3.1,3.5,4.4c-1.5-0.2-3-0.5-4.4-0.9c-0.3-0.1-0.5,0.1-0.6,0.3c-0.1,0.2,0,0.4,0.1,0.5c0.4,0.4,0.8,0.8,1.3,1.1
	c0.2,0.2,0.3,0.4,0.3,0.6c0,0.3-0.1,0.6-0.3,0.8c-0.3,0.3-0.6,0.5-0.8,0.8l-0.4,0.3c-0.2,0.2-0.2,0.5,0,0.7c0.1,0.1,0.1,0.1,0.2,0.1
	c0.1,0,0.2,0.1,0.3,0.2c0,0,0,0,0,0c0.2,0.2,0.3,0.5,0.2,0.8c0,0.3,0.2,0.5,0.5,0.5c0,0,0,0,0,0h0c10-0.2,20.1,0.8,29.9,3
	c0.3,0,0.4,0.3,0.4,0.5c0,0,0,0.1,0,0.1c0,0.3-0.3,0.6-0.7,0.5c0,0,0,0-0.1,0c-1.1-0.2-2.2-0.5-3.3-0.7l0,0c-4-0.8-8.1-1.4-12.1-1.7
	c-5.1-0.5-10.3-0.6-15.4-0.4c-0.3,0-0.5,0.2-0.5,0.5c0,0.1,0.1,0.2,0.1,0.3c0.4,0.4,0.5,1,0.1,1.4c-1.2,1.2-2.3,2.5-3.2,4
	c-1,2.1-1.5,4.3-1.5,6.6c0,2.1,0.3,4.1,0.8,6.1c0,0.2,0.2,0.3,0.3,0.4c0.2,0.1,0.3,0,0.5-0.1c6.6-5.4,13.9-9.9,21.9-13.1
	c0.2-0.1,0.3,0,0.4,0.1c0,0,0,0.1,0,0.1c0.1,0.3,0,0.7-0.3,0.8c0,0,0,0,0,0c-5.7,2.4-11.2,5.4-16.2,9c-1.9,1.4-3.8,2.9-5.8,4.6
	c-0.1,0.1-0.2,0.4-0.1,0.5c0.1,0.2,0.1,0.5,0.2,0.8c0.3,0.5,0.5,1.1,0.8,1.6c1.6,2.9,3.6,5.5,6,7.8c0.1,0.1,0.2,0.1,0.4,0.1
	c0.1,0,0.3-0.1,0.4-0.2c0.7-0.7,1.4-1.5,2.1-2.2c0.2-0.2,0.2-0.5,0-0.7c-0.1-0.1-0.2-0.1-0.3-0.1c-0.1,0-0.3-0.1-0.4-0.1
	c-0.1,0-0.1-0.1-0.2-0.1l-1-0.2c-0.2-0.1-0.4-0.2-0.5-0.4c-0.1-0.2-0.1-0.4-0.1-0.6c0.1-0.5,0.5-0.8,0.9-0.8c0.4,0,0.7,0,1.1,0
	c0.3,0,0.6,0,0.9,0c0.6,0,1.2-0.1,1.9-0.1c0.1,0,0.2,0,0.3,0.1c0.2,0.1,0.4,0.1,0.6-0.1c7.4-7.1,15.7-13.2,24.6-18.3
	c0.2-0.1,0.5-0.1,0.7,0.2c0,0,0,0,0,0c0.1,0.2,0.1,0.5-0.1,0.6c0,0,0,0,0,0c-9.9,5.6-19,12.6-27,20.7c-0.9,1-1.9,1.9-2.8,2.9
	c-0.2,0.2-0.2,0.5,0,0.7c0.4,0.5,0.8,1,1.1,1.5c-0.7-0.2-1.3-0.4-1.9-0.8c-0.2-0.1-0.4-0.1-0.6,0.1c-0.1,0.2-0.3,0.3-0.4,0.5
	c0,0,0,0,0,0c-0.3,0.3-0.6,0.7-0.9,1c-0.4,0.5-0.9,1-1.3,1.5c-0.4,0.5-0.8,1-1.2,1.5c-0.2,0.2-0.4,0.5-0.6,0.7c0,0,0,0,0,0
	c-2.2,2.7-4.3,5.5-6.3,8.4c-0.2,0.2-0.1,0.5,0.1,0.7c0,0,0.1,0,0.1,0.1c3.5,1.4,7.6,1.7,11.5,1.9l0.1,0h0c0.2,0,0.4-0.1,0.5-0.3
	c1-2.4,2.1-4.7,3.2-7c0.3-0.5,0.5-1.1,0.8-1.6c2.2-4.3,4.7-8.5,7.4-12.5c0.2-0.2,0.1-0.5-0.1-0.7c-0.1-0.1-0.3-0.1-0.4-0.1l-0.2,0.1
	c-0.2,0.1-0.4,0.2-0.6,0.2c-0.2,0-0.4,0-0.6-0.1c-0.1-0.1-0.2-0.2-0.3-0.4c-0.1-0.2-0.1-0.4,0-0.5c0.1-0.2,0.2-0.3,0.3-0.4l0.3-0.1
	c0,0,0,0,0,0l1-0.4c0.2-0.1,0.4-0.2,0.6-0.2s0.5-0.2,0.7-0.3c0.1-0.1,0.3-0.1,0.4-0.1c0.1,0,0.1,0,0.2,0c0.2-0.1,0.5-0.1,0.7-0.2
	c0,0,0.1,0,0.1,0c0.1,0,0.3-0.1,0.3-0.2c1.2-1.6,2.3-3.1,3.3-4.5c0.1-0.2,0.3-0.2,0.4-0.1c0,0,0.1,0,0.1,0.1
	c0.3,0.2,0.3,0.6,0.1,0.9c0,0,0,0,0,0c-1,1.3-2.1,2.7-3.3,4.4c0,0.1-0.1,0.2-0.1,0.2c0,0.3-0.2,0.5-0.5,0.6c-0.1,0-0.1,0.1-0.2,0.2
	c-1.5,2.1-2.9,4.3-4.2,6.4s-2.5,4.3-3.7,6.6l0,0l0,0.1c-0.1,0.1-0.1,0.3-0.2,0.4l0,0c-0.1,0.2-0.2,0.4-0.3,0.5
	c-0.2,0.5-0.5,0.9-0.7,1.4c0,0.1-0.1,0.2-0.1,0.3c0,0,0,0,0,0c-0.2,0.4-0.4,0.8-0.6,1.2c0,0,0,0.1,0,0.1c-0.9,1.8-1.8,3.7-2.5,5.6
	c-0.1,0.2,0,0.3,0.1,0.5c0.1,0.1,0.2,0.2,0.4,0.2c3,0.2,6,0.3,9,0.3l0,0c0.2,0,0.4-0.1,0.5-0.3c0.5-1.3,1.1-2.7,1.7-4.1
	c0.3-0.6,0.5-1.3,0.8-1.9c0.1-0.2,0-0.5-0.2-0.6c-0.4-0.3-0.8-0.6-1.3-1c-0.6-0.6-1.1-1.3-1.3-2.2l0.8,0.2c0.8,0.2,1.7,0.5,2.8,0.7
	c0.2,0.1,0.5-0.1,0.6-0.3c1.5-3,3-5.9,4.7-8.6c0.1-0.2,0.1-0.5-0.2-0.7c0,0-0.1,0-0.2-0.1c-0.1,0-0.1,0-0.2-0.1
	c-0.1,0-0.2-0.1-0.3,0c-0.2,0-0.3,0-0.5-0.1c-0.1,0-0.2,0-0.2,0l-0.5,0.1c-0.2,0-0.4-0.1-0.6-0.3c-0.1-0.1-0.2-0.3-0.2-0.5
	c-0.1-0.5,0.2-0.9,0.7-1c0.3-0.1,0.5-0.1,0.8-0.2c0.4-0.1,0.7-0.2,1.1-0.3c0.3-0.1,0.6-0.2,1-0.4c0,0,0.1,0,0.1-0.1
	c0.1-0.1,0.3-0.1,0.4-0.2c0.2-0.1,0.5-0.1,0.7,0c0.2,0.1,0.5,0,0.6-0.2c3.3-4.8,7-9.4,11-13.6c0.1-0.2,0.4-0.3,0.6-0.2
	c0,0,0.1,0,0.1,0c0.1,0,0.1,0,0.1,0c0.1,0,0.1,0.1,0.2,0.2c0.1,0.1,0.1,0.1,0.1,0.2c0,0,0,0,0,0c0,0,0,0.1,0.1,0.1c0,0,0,0,0,0
	c0,0.1,0,0.1,0,0.2c0,0,0,0,0,0.1c0,0.1,0,0.2,0,0.2c0,0,0,0,0,0c0,0.1-0.1,0.2-0.2,0.3c-3.3,3.4-6.3,7-9.1,10.8c0,0,0,0,0,0
	l-0.2,0.3c-0.2,0.3-0.4,0.6-0.6,0.9c0,0,0,0.1-0.1,0.1c-0.3,0.4-0.6,0.9-0.9,1.3c-0.1,0.1-0.1,0.2-0.1,0.3c0,0.4-0.2,0.7-0.6,0.8
	c-0.1,0-0.2,0.1-0.2,0.2c-0.9,1.4-1.7,2.7-2.5,4.1l0,0l-0.1,0.2l-0.1,0.1c0,0.1-0.1,0.1-0.1,0.2c-0.1,0.1-0.1,0.2-0.2,0.3
	c0,0.1-0.1,0.1-0.1,0.2L360,330v0c-0.9,1.5-1.7,3.1-2.5,4.8c-0.1,0.2,0,0.5,0.2,0.7c0,0,0.1,0,0.1,0c3,0.7,6.1,0.8,9.2,0.2
	c0.6-0.1,1.1-0.3,1.6-0.5c6.5-1.5,12.4-5,16.8-10.1l-0.1,2.5c0,0.3,0.2,0.5,0.5,0.5c0,0,0.1,0,0.1,0c3.4-0.7,6.4-2.6,8.6-5.3
	l11.3,4.4c0.3,0.1,0.5,0,0.6-0.3c0-0.1,0-0.2,0-0.2l-0.2-1.7c5.1,5.3,12.4,7.9,19.8,7.2c0.3,0,0.5-0.3,0.4-0.6
	c0-0.1-0.1-0.3-0.2-0.3c-0.5-0.4-0.8-0.8-1.1-1.3c0.6,0.1,1.2,0.2,1.9,0.3c3.3,0.8,6.7,1,10,0.8c0.2,0,0.5,0,0.7,0
	c2.8,0,5.7-0.1,8.9-0.4c-4.4,5.3-18.2,14.1-23.8,14.4c-2.9,0.2-5.3-0.5-6.4-1.8c-0.4-0.5-0.6-1.1-0.4-1.7c0.1-0.3-0.1-0.5-0.4-0.6
	c-0.2-0.1-0.5,0.1-0.6,0.3c-0.8,2.4-0.9,5.1-0.3,7.6c-5.5,0.6-11.1-0.8-15.6-4.1c-0.2-0.2-0.5-0.1-0.7,0.1c-0.1,0.1-0.1,0.2-0.1,0.3
	l0.5,5.3c-2.5-1.6-4.4-3.9-5.7-6.6c-0.1-0.3-0.4-0.4-0.7-0.2c-0.1,0.1-0.3,0.2-0.3,0.4l-0.7,3.9c-0.8-1.3-1.2-2.7-1.3-4.3
	c0-0.3-0.2-0.5-0.5-0.5c-0.2,0-0.3,0.1-0.4,0.3c-1.9,3.2-5.6,4.9-9.2,4.3c0.8-1.9,1.2-3.9,1.2-5.9c0-0.3-0.2-0.5-0.5-0.5
	c-0.2,0-0.3,0.1-0.4,0.2c-2.7,3.3-7.8,4.9-12.7,3.9c-3.8-0.8-7.7-3.1-11.6-6.7c-0.1-0.1-0.3-0.2-0.4-0.1c-0.2,0-0.3,0.1-0.4,0.3
	c-0.2,0.4-0.3,0.7-0.5,1.1l0,0c0,0.1,0,0.1-0.1,0.2c-0.2,0.4-0.4,0.8-0.5,1.3c0,0,0,0.1,0,0.1c-0.3,0.6-0.5,1.2-0.8,1.9
	c-0.1,0.3,0,0.5,0.3,0.6c0.1,0,0.1,0,0.2,0c0.5,0,1.1,0,1.6,0c4.4,6.7,11.5,11.1,19.4,12.1c0.1,0,0.3,0,0.4-0.1
	c0.1-0.1,0.2-0.2,0.2-0.4l0.1-1.9c3.6,3.5,8.3,5.6,13.2,6c-0.6,0.4-1.2,0.7-1.8,1.1c-2.6,1.6-5,3.1-7.3,2.6c-0.1,0-0.2,0-0.2-0.1
	c-5.8-1.6-12.1-4.9-18.2-8.2c-3.4-1.8-6.6-3.5-9.5-4.8c-0.3-0.1-0.5,0-0.7,0.3c0,0,0,0,0,0.1c-0.2,0.5-0.3,1.1-0.5,1.6
	c0,0,0,0,0,0.1c-0.1,0.3-0.1,0.5-0.2,0.8c-0.2,0.9-0.5,1.7-0.7,2.6c-0.1,0.5-0.3,1-0.4,1.5c-0.3,1.3-0.6,2.5-0.8,3.8
	c-0.1,0.5-0.2,1-0.3,1.6c-0.1,0.6-0.2,1.1-0.3,1.7c0,0,0,0.1,0,0.1c-0.3,2.1-0.6,4.1-0.8,6.2c-1.4,14.6,0.3,29.3,5.1,43.1
	c0.1,0.2,0,0.5-0.2,0.6c0,0-0.1,0-0.1,0c-0.3,0.1-0.7,0-0.9-0.3c0,0,0,0,0,0c-2.9-7.8-4.8-16-5.6-24.4c-0.8-8.7-0.5-17.4,0.9-26.1
	c0.2-1,0.3-2,0.5-3c0-0.2,0.1-0.3,0.1-0.5c0.2-1,0.4-2,0.6-3c0-0.1,0-0.2,0.1-0.3c0.3-1.1,0.5-2.2,0.8-3.4c0-0.1,0-0.2,0.1-0.3
	c0.3-1.1,0.6-2.2,0.9-3.3c0.1-0.3-0.1-0.5-0.3-0.6c-1.6-0.7-3.3-1.1-5.1-1.4c-1.2-0.2-2.5-0.3-3.8-0.5c-0.2,0-0.5,0.1-0.5,0.3
	c-0.6,1.5-1.1,3-1.6,4.6c0,0,0,0,0,0c-0.2,0.6-0.4,1.1-0.5,1.7c0,0.1-0.1,0.2-0.1,0.3c-0.5,1.5-0.9,3-1.3,4.4
	c-0.1,0.3-0.2,0.7-0.3,1c-0.1,0.3-0.2,0.7-0.3,1c0,0,0,0.1,0,0.1c-1.1,4.4-2,8.9-2.6,13.4c0,0.3-0.5,0.3-0.5,0.3
	c0,0-0.5-0.1-0.5-0.4c0.6-4.7,1.5-9.4,2.6-14l0,0l0.1-0.4c0-0.1,0-0.1,0.1-0.2c0.3-1,0.5-2.1,0.8-3.1c0-0.1,0-0.1,0.1-0.2
	c0.3-1.1,0.6-2.1,1-3.2c0.6-1.8,1.2-3.7,1.9-5.5c0.1-0.3,0-0.5-0.3-0.6c0,0-0.1,0-0.1,0c-4.1-0.7-8.1-1.7-12-2.9
	c-0.2-0.1-0.5,0-0.6,0.2c-0.2,0.3-0.3,0.5-0.5,0.8c0,0,0,0,0,0c-0.3,0.5-0.6,1-0.9,1.4c0,0,0,0,0,0.1c-3.6,5.8-6.7,12-9.2,18.3
	c0,0,0,0.1,0,0.1c-0.2,0.5-0.4,0.9-0.5,1.4c-0.3,0.7-0.5,1.4-0.8,2.1c-0.2,0.6-0.5,1.3-0.7,1.9c-0.2,0.6-0.4,1.1-0.6,1.7
	c-0.3,0.9-0.6,1.8-0.9,2.7v0c-0.1,0.2-0.1,0.4-0.2,0.6c-0.4,1.5-0.9,3.1-1.4,4.9c0,0.1,0,0.1,0,0.2l1.3,7.3
	c-0.3,1.7-1.2,3.3-2.5,4.5c-0.2,0.2-0.2,0.5,0,0.7c0.1,0.1,0.1,0.1,0.2,0.1c2.4,0.7,4.9,0.3,6.9-1.1l-2,4.1c-0.1,0.2,0,0.5,0.2,0.7
	c0.1,0.1,0.3,0.1,0.4,0l3.4-1.1l-1.8,4c-1.9-0.9-3.8-1.8-5.6-2.9c-3.1-2-6.6-3.4-10.2-4c-2-0.3-4-0.5-6.1-0.4
	C294.3,383.6,295.4,374.6,297.5,365.9L297.5,365.9z M259.1,136.9c0.1,0.2,0.2,0.5,0.4,0.7l-0.1,0.1
	C259.3,137.5,259.2,137.2,259.1,136.9L259.1,136.9z M279.1,109.8c-0.3,0.1-0.4,0.4-0.3,0.7c0.1,0.3,0.4,0.4,0.7,0.3
	c7.5-3,15.9-3.1,23.4-0.2l-5,0c-0.3,0-0.5,0.2-0.5,0.5c0,0.3,0.2,0.5,0.4,0.5c2.6,0.5,5.2,1.3,7.6,2.5c-1.7,0.1-3.3,0.3-4.9,0.6
	c-14.5-0.4-28.4,3.6-41.9,8.8c-2.5-5.4-4.5-11-6-16.7c0,0,0-0.1,0-0.1c14-4.8,27.4-6.8,41.3-2.7c2.2,0.6,4.5,1.2,6.8,2
	c0.8,0.6,1.5,1.3,2.3,1.9C295.1,105.5,286.6,106.2,279.1,109.8L279.1,109.8z M461.3,117.7c-3.5,3.9-5.9,8.6-7.1,13.7
	c-0.1,0.3,0.1,0.5,0.4,0.6c0.1,0,0.2,0,0.3,0c1.8-0.7,3.8-1,5.7-0.8c-3.5,4.9-5.3,11-6.9,16.3c-0.5,1.6-0.9,3.2-1.3,4.9
	c0-1.6-0.3-3.2-0.8-4.8c-0.1-0.2-0.2-0.3-0.4-0.3c-0.2,0-0.4,0.1-0.5,0.3c-0.9,2-2,4-3.3,5.8l-0.3-10.9c0-0.2-0.2-0.4-0.4-0.5
	c-0.2,0-0.5,0.1-0.6,0.3c-1.4,2.6-3.8,4.5-6.6,5.2c0.6-3.3,1.5-6.5,2.5-9.7c1.5-1.7,2.9-3.5,4-5.5c0.6-0.9,1.3-1.9,2-2.9
	C452,124.9,456.5,121,461.3,117.7z M473.9,106.9c2.2-1.4,4.7-2.5,7.2-3.3c0.3-0.1,0.4-0.4,0.3-0.6c-0.1-0.2-0.3-0.4-0.5-0.4
	l-4.8,0.6c7.1-3.6,15.4-4.5,23.1-2.4c0.3,0.1,0.5-0.1,0.6-0.3c0.1-0.3-0.1-0.5-0.3-0.6c-5.9-2-12.3-2.4-18.4-1
	c0.9-0.5,1.9-1.1,2.8-1.5c8.1-4.8,17.4-5.4,27-3.4c1.9,0.4,3.8,0.8,5.6,1.3c-1.5-0.6-3-1.1-4.5-1.6c-7.7-2.3-16.5-4-24.1-0.7
	c9.2-4.9,19.2-8.1,29.5-9.4c1.7-0.2,3.6-0.3,5.1-0.4c-1.3-0.1-2.6-0.1-3.9-0.1c-11.4,0-23.1,2.7-32.6,9.1c-2.5,1.6-4.9,3.3-7.2,5.2
	c1.2-1.3,2.4-2.5,3.5-3.8c2-2.2,4.1-4.5,6.3-6.6c6.3-6.2,12-9.9,17.9-11.7c4.9-1.6,10.2-1.4,15,0.3c1.3,1.4,2.2,3.1,2.9,4.9
	c1.7,4.6,1.3,9.6,0.8,13.4c-0.7,5.1-1.8,10.1-3.4,14.9c-4.6-1.5-9.2-2.7-13.9-3.5c-7.6-1-15.3-1-22.9-0.1c-2.6,0.4-5.3,0.9-7.8,1.5
	C476,106.8,475,106.8,473.9,106.9L473.9,106.9z M475.8,100.5c2.3-1.9,4.8-3.6,7.5-5.1c-2.3,1.4-4.5,3-6.6,4.7
	C476.5,100.2,476.2,100.3,475.8,100.5L475.8,100.5z M492.6,311.3c-0.1,0.2,0,0.5,0.2,0.6c2.5,1.3,4.9,2.8,7.2,4.3
	c0.1,0.1,0.2,0.1,0.3,0.1c0,0,0.1,0,0.1,0c0.1,0,0.3-0.1,0.3-0.3c1.9-4.4,3.5-8.9,4.8-13.5c1.6,1.5,3.3,2.8,5.2,3.9
	c0.5,4.4-0.2,8.9-2.1,13c-0.3,0.6-0.6,1.3-1,2.1c-0.1,0.2-0.1,0.5,0.1,0.6c2.1,1.8,4.1,3.6,6,5.4c11.3,11.3,19.5,25.3,23.7,40.7
	c0.1,0.2,0,0.5-0.3,0.5c0,0,0,0-0.1,0c-0.2,0.1-0.5,0-0.6-0.3c0,0,0,0,0,0c-2.4-8.6-6-16.8-10.8-24.3c-5-7.9-11.2-15-18.4-21
	c-0.1-0.1-0.3-0.1-0.4-0.1c-0.1,0-0.3,0.1-0.3,0.2c-2.9,4.5-6.6,8.6-10.8,11.9c-0.3,0.2-0.5,0.4-0.8,0.6l-0.3,0.2
	c-0.2,0.1-0.2,0.3-0.2,0.5c2,6.1,3.2,12.5,3.4,19c0,0.2-0.1,0.4-0.3,0.4c0,0,0,0-0.1,0c-0.3,0-0.5-0.2-0.5-0.4c0,0,0,0,0,0
	c-0.2-6.1-1.3-12.1-3.2-18c-0.1-0.3-0.4-0.4-0.6-0.3c-0.1,0-0.1,0-0.1,0.1c-4.1,3.2-8.7,5.8-13.7,7.4c-0.7,0.2-1.4,0.4-2.2,0.6
	c-0.3,0.1-0.4,0.3-0.4,0.6c0,0,0,0,0,0c1.6,6.2,2.7,12.5,3.3,18.8c0,0.1,0.1,0.3,0.2,0.3c0.1,0.1,0.3,0.1,0.4,0.1
	c2.3-0.4,4.7-0.5,7.1-0.5c0.2,0,0.4-0.1,0.4-0.3c0.1-0.2,0.1-0.4,0-0.5c-0.6-0.8-1.4-1.6-2.1-2.3c-0.6-0.6-1.2-1.3-1.6-1.7
	c2.1-0.6,13.5-0.4,19.2,0c0,0,0.1,0,0.1,0c-0.7,1.1-5.6,3.8-7.4,3.9c-0.3,0-0.5,0.3-0.5,0.5c0,0,0,0,0,0.1l0.5,2.4
	c0.4,2.2,0.9,4.4,1.3,6.6c0,0.2,0,0.3,0,0.5c0,0,0,0.1,0,0.1l0.2,0.9c1.3,5,2.6,10.3,4.1,15.4c-1.1,0.3-7-2.5-8.5-4.3
	c-0.2-0.2-0.5-0.2-0.7-0.1c-0.1,0.1-0.2,0.3-0.2,0.5c0.1,0.5,0.2,1.3,0.3,2.2c0.1,1,0.3,2,0.4,2.8c-1.4,0-7.6-3.9-9.4-5.7
	c-0.2-0.2-0.5-0.2-0.7,0c-0.1,0.1-0.2,0.3-0.1,0.4c0.5,3.6,1.5,10.9,1.6,15.4c0,0,0,0,0,0c-1,0.4-2,0.6-3.1,0.7
	c-3.1,0.5-6.9,1-13.4,7.6c-2.9-6.1-5.8-12.9-6.3-15.9c-0.1-0.5,0.1-1,0.5-1.3c0.4-0.3,0.9-0.3,1.3-0.1c1.5,0.8,3,1.8,4.3,3
	c0.2,0.2,0.5,0.2,0.7,0c0.1-0.1,0.1-0.3,0.1-0.4c-0.2-1-0.5-2.1-0.7-3.1l-0.1-0.4c0-0.2,0-0.2,0.1-0.3c0.7-0.5,3.1-0.1,3.4,0.2
	c0.2,0.2,0.5,0.3,0.7,0.1c0.1-0.1,0.2-0.3,0.2-0.4c-0.1-2.5-0.2-5.1-0.2-7.6c0-1.8,0-3.6,0-5.4c0-2.6,0-5.2-0.1-7.8
	c1.1-0.2,7.1,2.6,11.4,5.2c0.2,0.1,0.5,0.1,0.7-0.2c0.1-0.1,0.1-0.3,0-0.5c-0.3-0.6-0.8-1.4-1.4-2.4c-1.3-2-2.4-4.1-3.3-6.3
	c0-0.1-0.1-0.1-0.1-0.2c-0.1-0.1-0.1-0.2-0.2-0.3c-0.6-6.4-1.6-12.7-3.2-19L476,346c-0.1-0.3-0.3-0.4-0.6-0.4
	c-1.7,0.3-3.5,0.6-5.2,0.7c0.2,0,0.4-0.1,0.6-0.1c1.5-0.4,3-0.9,4.4-1.5c0.2-0.1,0.4-0.4,0.3-0.6c-0.8-2.7-1.7-5.3-2.7-7.9
	c-0.1-0.2-0.3-0.4-0.6-0.3c-3.8,0.7-7.7,1.1-11.6,1.2c-1.8,0.1-3.1,0-4.3,0c4.8-1.6,9.3-3.8,13.4-6.7c0.2-0.1,0.3-0.4,0.2-0.6
	c-1-1.9-2.1-3.8-3.4-5.7c0,0,0,0,0-0.1c-0.2-0.3-0.3-0.5-0.5-0.7c-0.1-0.2-0.3-0.4-0.4-0.6v0c0,0,0,0,0,0c0-0.1-0.1-0.1-0.1-0.2
	c-0.2-0.3-0.5-0.7-0.8-1c-0.1-0.2-0.3-0.4-0.4-0.6l0,0c0,0-0.1-0.1-0.1-0.1c-0.1-0.1-0.2-0.2-0.4-0.2c-0.1,0-0.3,0-0.4,0.2
	c-0.4,0.4-0.8,0.8-1.3,1.2c0,0-0.1,0.1-0.1,0.1c-0.1,0.1-0.2,0.2-0.3,0.2c-0.2,0.1-0.3,0.3-0.5,0.4c-0.3,0.3-0.6,0.5-0.9,0.8l0,0
	c-0.3,0.2-0.6,0.5-1,0.7l0,0c-0.3,0.2-0.6,0.4-1,0.6l-0.1,0c-0.3,0.2-0.6,0.4-1,0.6l-0.1,0.1c-0.3,0.2-0.6,0.3-0.9,0.5
	c-0.1,0-0.2,0.1-0.3,0.1c-0.3,0.1-0.5,0.3-0.8,0.4c-0.2,0.1-0.3,0.1-0.5,0.2c-0.2,0.1-0.4,0.2-0.6,0.3c-0.4,0.1-0.8,0.3-1.1,0.4
	c-0.1,0-0.2,0-0.3,0c0,0,0,0,0,0c-0.1,0-0.2-0.1-0.3-0.1c-0.2-0.1-0.3-0.3-0.4-0.4c-0.2-0.4-0.1-0.9,0.3-1.2c3.5-2,6.6-4.5,9.2-7.6
	c0.2-0.2,0.2-0.5,0-0.7c-2-2.2-4.2-4.2-6.5-6.1c-0.2-0.2-0.5-0.1-0.7,0.1c-0.1,0.1-0.1,0.2-0.1,0.2c0,0,0,0.1,0,0.1
	c0,0.1,0,0.2,0,0.3c0,0.1,0,0.3,0,0.4c-0.1,0.5-0.5,0.8-0.9,0.8l-0.8,0c-0.5,0-1,0-1.6,0c-0.8,0-1.6,0-2.4-0.1
	c-1.5-0.2-3-0.5-4.5-0.8c-0.4-0.1-0.7-0.6-0.5-1.1c0.1-0.3,0.4-0.6,0.7-0.6c0.7,0.1,1.4,0.2,2.1,0.3l0.4,0.1c0.2,0,0.4,0.1,0.7,0.1
	c0.4,0.1,0.8,0.1,1.2,0.2c0.2,0,0.3,0,0.4-0.2c0.2-0.2,0.4-0.3,0.7-0.3c0.6,0,1.3-0.1,1.9-0.1c0.4,0,0.7-0.1,1.1-0.1
	c0.3,0,0.5-0.3,0.5-0.5c0-0.1-0.1-0.3-0.2-0.4c-4.5-3.2-9.7-5.5-15.1-6.7c-0.2,0-0.3-0.2-0.3-0.3c0,0,0-0.1,0-0.1
	c0,0,0.1-0.5,0.6-0.4c0.7,0.2,1.5,0.3,2.4,0.6c0.3,0.1,0.5-0.1,0.6-0.3c0-0.2,0-0.3-0.1-0.4c-0.1-0.2-0.1-0.4,0-0.6
	c0.1-0.2,0.2-0.3,0.4-0.3c0.1,0,0.3,0,0.4,0l0.4,0c0.2,0,0.3-0.1,0.4-0.3c0.1-0.2,0.2-0.3,0.4-0.4c0.2-0.1,0.5-0.2,0.8-0.1l2.8,0.6
	c0,0,0.1,0,0.1,0c1.4,0,2.7,0,4.1,0l0,0h0.1c1.3,0,2.6,0.1,3.9,0.2c0.1,0,0.3,0,0.4-0.1c0.1-0.1,0.2-0.2,0.2-0.3
	c0-0.4,0.3-0.6,0.6-0.8c0.5-0.1,1-0.2,1.5-0.3c0.4,0,0.8-0.1,1.1-0.2c0.2,0,0.4,0,0.6,0.1c0.2,0.1,0.3,0.3,0.4,0.5
	c0,0.1,0,0.3,0,0.4c0,0.2,0,0.3,0.1,0.5c0.1,0.1,0.2,0.2,0.2,0.4c0.1,0.2,0.2,0.3,0.4,0.3c1.6,0.2,3.2,0.4,5,0.8
	c0.2,0,0.5-0.1,0.6-0.3c0.1-0.2,0-0.5-0.2-0.6c-10.8-6.4-23.3-9.6-35.9-9.1c-0.2,0-0.3-0.1-0.4-0.2c-0.1-0.2-0.1-0.4,0-0.6
	c0.1-0.2,0.3-0.3,0.5-0.3c0.9,0,1.8,0,2.7,0c0.4,0,0.8,0,1.3,0c0.5,0,0.9,0,1.4,0c0.5,0,1,0.1,1.5,0.1c0.4,0,0.7,0,1.1,0.1
	c0.6,0,1.1,0.1,1.7,0.2c0.3,0,0.6,0.1,0.9,0.1c0.6,0.1,1.2,0.1,1.8,0.2c0.3,0,0.5,0.1,0.8,0.1c0.6,0.1,1.3,0.2,1.9,0.3
	c0.2,0,0.3,0.1,0.5,0.1c1.5,0.3,3,0.7,4.5,1.1l0,0c0.6,0.2,1.1,0.3,1.7,0.5l0,0l0.1,0c0.4,0.1,0.8,0.2,1.2,0.3c1,0.3,2,0.7,3,1.1
	l0.2,0.1c1,0.4,2,0.8,3.1,1.3l0,0c1.5,0.7,3,1.4,4.5,2.2c0.1,0.1,0.2,0.1,0.3,0.2c1.1,0.6,2.3,1.3,3.4,1.9c0.2,0.1,0.5,0.1,0.7-0.2
	c0.1-0.1,0.1-0.2,0.1-0.3c-0.1-0.6-0.2-1.3-0.3-1.9v0c0,0,0-0.1,0-0.1c-0.1-0.7-0.3-1.4-0.5-2l0-0.1c-0.2-0.6-0.4-1.2-0.6-1.8
	c0-0.1-0.1-0.2-0.1-0.3c0,0,0,0,0,0c-0.1-0.1-0.1-0.3-0.2-0.4v0c0,0,0,0,0-0.1c-0.2-0.4-0.3-0.7-0.5-1.1l-0.1-0.2
	c-0.2-0.3-0.3-0.7-0.5-1c-0.1-0.1-0.1-0.2-0.2-0.4c-0.1-0.3-0.3-0.5-0.5-0.7c-0.2-0.4-0.5-0.7-0.8-1.1c-0.1-0.2-0.1-0.4-0.1-0.6
	c0-0.2,0.2-0.4,0.3-0.5l0.4-0.2c0.3-0.1,0.4-0.4,0.3-0.7c-0.1-0.1-0.1-0.2-0.3-0.3c-1-0.4-2.3-0.9-3.7-1.4c-0.1,0-0.1-0.1-0.2-0.1
	c0,0-0.1-0.1-0.2-0.1h0l0,0c-0.9-0.2-1.7-0.4-2.6-0.5c-0.2,0-0.5-0.1-0.7-0.1c-0.7-0.1-1.3-0.2-2-0.3c-0.2,0-0.4,0-0.6-0.1
	c-0.7-0.1-1.4-0.2-2.1-0.2c-0.1,0-0.3,0-0.4,0c-0.8-0.1-1.6-0.1-2.5-0.1h0c-1,0-2,0-3.1,0c-0.6,0-1.2,0-1.8,0.1
	c-0.4,0-0.7,0-1.1,0.1c-0.8,0-1.5,0.1-2.3,0.2h0c-6.4,0.7-12.6,2.4-18.4,5.2h0l-0.4,0.2c-0.2,0.1-0.4,0.2-0.6,0.3
	c-0.3,0.2-0.7,0-0.8-0.3c0,0,0,0,0,0c-0.1-0.2-0.1-0.5,0.1-0.6c0,0,0.1,0,0.1,0l0,0c0.4-0.2,0.7-0.4,1.1-0.5l0,0l0,0
	c4.1-2,8.4-3.4,12.8-4.3c8.2-1.7,16.6-1.6,24.8,0.1c0.2,0,0.3,0,0.5-0.1l1.2-1.2c0.2-0.2,0.2-0.5,0-0.7c-0.1-0.1-0.1-0.1-0.2-0.1
	l-1.1-0.3c-0.4-0.1-0.9-0.2-1.3-0.4l-0.2-0.1c0,0,0,0,0,0c-0.1,0-0.2-0.1-0.2-0.1c-0.1-0.1-0.1-0.1-0.2-0.2c0,0,0,0,0,0
	c-0.1-0.1-0.1-0.2-0.1-0.3c-0.1-0.4,0.1-0.8,0.4-1c0.1-0.1,0.3-0.2,0.4-0.3l0.2-0.2c0.2-0.2,0.3-0.5,0.1-0.7
	c-0.1-0.1-0.2-0.2-0.3-0.2c-1.1-0.2-2.2-0.3-3.4-0.3c0,0-0.1,0-0.1,0c-6.5,1.7-13.3,2.1-20,1.1l-0.5-0.1c0.9-0.9,1.5-2.1,1.9-3.3
	c0.1-0.3-0.1-0.5-0.3-0.6c-0.1,0-0.3,0-0.4,0.1c-4.4,2.9-11.5,2.8-17.7,1.3c2-0.5,4.3-1.2,6.2-1.8c1.7-0.6,3.5-1,5.3-1.4
	c0.3,0,0.5-0.3,0.4-0.6c0-0.1-0.1-0.2-0.2-0.3c-1.1-0.9-2.3-1.6-3.6-2.3c-2.4-1.4-5.3-3.1-6.3-5c2.7,1.1,7.5,2.7,7.8,2.8
	c0.3,0.1,0.5-0.1,0.6-0.3c0.1-0.2,0-0.4-0.1-0.5c-2.4-2.7-5.5-6.8-5.3-8.3c6.4,3.4,14.1,4.8,23,4.1c11.1-1,21.6-5.4,30.2-12.5
	c-2.5,4.3-7.2,11.8-7.3,11.9c-0.1,0.2-0.1,0.5,0.2,0.7c0.1,0.1,0.3,0.1,0.5,0c0.4-0.1,7.4-2.9,11.3-5c-3.7,5.7-7.6,11-13,15
	c-1,0.7-2,1.3-3,1.8c-0.2,0.1-0.3,0.4-0.2,0.7c0,0.1,0.1,0.1,0.2,0.2c0.3,0.2,0.9,0.2,3.2,0.2c0.8,0,2,0,3.1,0c0.5,0,1,0.1,1.5,0.2
	c-0.7,0.8-1.5,1.6-2.4,2.2c-1.7,1.4-2.3,2-2.3,2.4c0,0,0,0.1,0,0.1c0,0,0,0.1,0,0.1c-0.1,0.3,0.1,0.5,0.4,0.6c0.1,0,0.1,0,0.2,0
	c0.4-0.1,0.8-0.2,1.2-0.3c0,0,0.1,0,0.1,0c0.2-0.1,0.4-0.2,0.5-0.2s0.3-0.2,0.5-0.3c0.1-0.1,0.2-0.1,0.3-0.1c0,0,0,0,0.1,0
	c0.1,0,0.2,0,0.2,0l0,0c0.1,0,0.1,0,0.2,0.1l0,0c0.1,0,0.1,0.1,0.2,0.1c0.4,0.3,0.5,0.9,0.3,1.3c-0.1,0.3-0.3,1-0.6,2.1
	c-0.2,0.9-0.6,2.1-0.7,2.4c-0.1,0.2,0,0.5,0.2,0.7c0.1,0.1,0.3,0.1,0.4,0c0.4-0.2,0.8-0.1,1.2,0.1c0.3,0.2,0.4,0.4,0.5,0.8l0,0
	c0,0.1,0,0.1,0.1,0.2c0,0,0,0.1,0,0.1c0,0.1,0.1,0.1,0.2,0.2c0.4,0.2,0.8,0.4,1.2,0.6c1.3,0.7,2.7,1.4,4,2.3
	c1.8,1.1,3.5,2.3,5.2,3.6c0.2,0.2,0.5,0.1,0.7-0.1c4.8-5.7,14.3-21.9,19.2-46.5c0.1-0.3-0.1-0.5-0.4-0.6c-0.2,0-0.4,0-0.5,0.2
	c-0.8,1.3-1.9,2.3-3.1,3.1c-1.2,0.5-2.9,0.3-3.5-0.8c-0.3-1-0.3-2.1,0.2-3l2-6.7c0.5-1.6,0.1-2.8-0.9-3.1c-0.7-0.1-1.3,0-1.9,0.4
	l-5,2.8c4.7-9.1,7.4-19.2,7.8-29.5c0-0.2-0.1-0.4-0.3-0.5l1.8-5.2c2.3,1.5,4.3,3.2,6.2,5.2c0.9,3,1.6,6.1,1.9,9.3
	C512,257.6,500.1,293.3,492.6,311.3z M554.3,398.3c-0.2-0.2-0.5-0.2-0.7,0c-0.1,0.1-0.2,0.3-0.1,0.5c3.5,10.5,8.1,20.5,13.7,30
	l-5-2.4c-0.2-0.1-0.5,0-0.7,0.2c-0.1,0.1-0.1,0.3,0,0.4l2.4,5.5h-7.7c-0.3-9.5-3.4-20.2-8-25.9c-2.4-3-5.3-5.5-8.7-7.4
	c2.4-3,4.2-6.5,5.2-10.3c5.5,3.6,10.1,8.3,13.6,13.8L554.3,398.3z M361.5,404.5c0.2-0.4,0.4-0.9,0.5-1.4c0.1-0.3-0.1-0.5-0.4-0.6
	c-0.2,0-0.3,0-0.4,0.1c-0.8,0.7-1.6,1.3-2.5,1.9c-0.4,0.2-0.8,0.2-1.1-0.1c-0.3-0.2-0.5-0.6-0.4-1c1.2-3.3,3.1-6.4,5.4-9.1
	c1.9-2.9,4.1-5.6,6.6-8.1c0.6-0.5,1.4-0.5,1.9,0.1c0.3,0.3,0.4,0.8,0.3,1.2c-1.2,4.2-1.3,8.7-0.4,13c0,0.2,0.2,0.4,0.4,0.4
	c0.2,0,0.4-0.1,0.5-0.2c0.6-1,1-2.2,1.2-3.4c0-0.7,0.5-1.3,1.2-1.4c0.7-0.1,1.3,0.3,1.5,1c0.4,2.5,1.7,4.8,3.6,6.5
	c0.2,0.2,0.5,0.2,0.7,0c0-0.1,0.1-0.1,0.1-0.2l0.2-0.6c0.3-1,0.7-2.1,1-3.2c0.1-0.7,0.7-1.1,1.4-1c0.8,0.1,1.4,0.7,1.5,1.5
	c0.4,4,0.7,8.1,1.1,12.1l0.6,6.5c0,0.5-0.3,1-0.8,1.2c-0.6,0.3-1.3,0.2-1.8-0.2c-3.3-3.3-6.3-7-8.8-11c-0.1-0.2-0.5-0.3-0.7-0.2
	c-0.1,0.1-0.2,0.2-0.2,0.3c-0.3,2-0.6,3.9-0.9,5.9c-0.4,2.9-0.9,5.8-1.4,8.7c-0.1,0.4-0.5,0.8-0.9,0.8c-0.5,0.1-1-0.1-1.2-0.5
	c-2.8-5.5-4.6-11.5-5.3-17.6c0-0.3-0.3-0.5-0.6-0.4c-0.1,0-0.2,0.1-0.3,0.2c-0.4,0.5-1.1,0.5-1.6,0.2
	C361.3,405.5,361.2,405,361.5,404.5C361.5,404.5,361.5,404.5,361.5,404.5L361.5,404.5z M282.7,128.9c0.2,0.1,0.5,0.1,0.6,0
	c7.9-7.5,20.4-9.9,30.6-6.1h0c-3.8,0-7.6,0.7-11.1,2.2c-0.3,0.1-0.4,0.4-0.3,0.7c0.1,0.2,0.3,0.3,0.5,0.3c3.4,0,6.8,0.6,10.1,1.6
	c-3.3,0.7-6.5,2-9.3,3.8c-11.4,1.3-22.6,8.8-31.8,16.6l-1.4-2.4c-1.9-3.3-3.9-6.7-5.8-10.1c7-5.7,14.7-10.4,23-13.9
	c-2.1,2-3.9,4.3-5.2,6.8C282.4,128.5,282.5,128.7,282.7,128.9L282.7,128.9z M384.4,220.3c-0.2-1.5-0.5-3.1-0.6-4.4
	c2.2,1.5,3.2,4.2,4.3,6.8c1.3,3.3,2.6,6.4,5.9,6.8c1.9,0.4,3.7-0.7,4.3-2.6c0.8-2.2,1.3-4.5,1.4-6.8c0.6-4.4,1.3-9.7,4.2-13.8
	c-0.7,4-0.3,10.4,0.8,12.1c0.1,0.1,0.2,0.2,0.4,0.2c0.2,0,0.3-0.1,0.4-0.2c1.2-1.6,2.5-3,4-4.2c0.6-0.5,1.2-1,1.9-1.7
	c-4.3,8.8-4.1,15.3-3,19.8c0.8,4.1,1.8,8.2,3,12.1c-1.9-0.5-7.1-2.2-7.6-2.4c-0.2-0.1-0.5,0-0.7,0.2c0,0,0,0,0,0
	c-1.6,3.4,0,5.4,1.2,6.7c0.5,0.5,0.8,1,1.1,1.6c-1.8-0.9-7.9-6.5-9-9c-0.1-0.2-0.3-0.3-0.5-0.3c-0.2,0-0.4,0.2-0.4,0.4
	c-0.3,2-5.8,10.6-7.3,11.6c-0.6-1.1-0.6-2.6-0.5-4.3c0.1-2.5,0.1-5.3-1.6-8c-0.1-0.1-0.2-0.2-0.4-0.2c-0.2,0-0.3,0.1-0.4,0.2
	c-3.2,4.1-6.7,8-10.5,11.6c0,0,0-0.1,0-0.1c1.8-3.8,3.1-7.8,4.2-11.9l0,0c0.4-1.2,0.7-2.5,0.9-3.7c0.2-1,0.4-2,0.6-2.8
	c0-0.2,0-0.3-0.1-0.4c-0.1-0.1-0.1-0.1-0.2-0.1c0.1-6-2.1-11.5-4.5-17.6c0.7,0.7,1.4,1.4,2.1,2c2.7,2.3,4.9,5,6.5,8.1
	c0.1,0.2,0.4,0.3,0.7,0.2c0.2-0.1,0.3-0.3,0.3-0.5C384.9,223.9,384.7,222.1,384.4,220.3L384.4,220.3z M434.5,202.3
	c0.2,0.1,0.4,0.2,0.6,0.1c9.5-5.6,22.1-5.2,30.7,0.9c0,0,0,0,0.1,0c0.4,0.4,0.8,0.8,1.1,1.2c2.7,2.7,5.9,3.9,9.4,5.1
	c1.3,0.5,2.6,0.9,3.9,1.5c-1.9-0.2-3.8-0.5-5.7-0.9c-0.3-0.1-0.5,0.1-0.6,0.4c0,0.2,0,0.3,0.1,0.4c2.3,2.5,4.4,5.3,6.2,8.1
	c-2.5-0.2-5-1-7.1-2.2c-0.2-0.1-0.5-0.1-0.7,0.2c-0.1,0.1-0.1,0.2,0,0.4c0.9,3.4,3.4,6.1,6.6,7.5c-2.4,0.2-4.8-0.2-7.1-1.1
	c-0.7-0.3-1.4-0.6-2.1-1c-4-4.3-10-8-14.6-8.9c-5.3-1-12.1-1.8-18.6,0.6c0.2-0.5,0.3-1.1,0.3-1.6c0-0.9,0.4-1.7,0.9-2.4
	c0.2-0.2,0.1-0.5-0.1-0.7c-0.2-0.1-0.4-0.2-0.6,0c-1.3,0.9-2.6,1.8-4,2.6c-3.1,1.6-5.9,3.9-8,6.8c0.7-2.2,1.6-4.3,2.6-6.4
	c0.1-0.2,0-0.5-0.2-0.7c-0.2-0.1-0.3-0.1-0.5,0c-1.9,1.2-7.8,8.5-10.2,12.3c0.4-11.9,7-21.3,18.4-26.1c-0.1,0.4-0.3,0.8-0.4,1.2
	c-0.2,0.8-0.5,1.7-0.7,2.2C434.3,201.9,434.4,202.2,434.5,202.3z M414.7,277.6c0.2,0.5,0.4,0.9,0.6,1.4c0.1,0.1,0.1,0.3,0.2,0.4
	c0.2,0.5,0.4,1.1,0.5,1.6v0l0.1,0.3v0c0.5,1.8,0.5,3.7,0,5.5c-0.9,3.1-2.3,4.6-7.1,4c-0.9-0.1-1.8-0.3-2.7-0.7
	c-1.3-0.4-2.5-0.8-3.8-0.2c-1.6,0.7-2.5,1.6-2.7,2.5l0,0.1c-0.5,1.5-0.8,3-0.8,4.6c0.2,1.2,0.7,2.2,1.4,3.2c0.8,1.1,1.4,2,0.7,3.5
	c-0.6,1.4-2.8,3.1-4,2.9c-1.1-0.2-1.2-0.8-1.4-1.9c0-0.9-0.3-1.7-0.9-2.4c-0.2-0.2-0.5-0.2-0.7,0c-0.1,0.1-0.1,0.1-0.1,0.2
	c-0.2,0.7-0.3,1.4-0.2,2.1c0.2,0.9-0.1,1.7-0.7,2.4c-1,0.5-2.9-0.8-4.2-2.2c-0.7-0.9-1-2.1-0.8-3.2c0.3-0.8,0.7-1.6,1.2-2.3
	c0.5-0.6,0.7-1.3,0.8-2c-0.1-1.9-0.6-3.7-1.5-5.4c-1.8-3.4-3.6-2.8-5.9-2.2c-1.3,0.4-2.7,0.7-4.1,0.8c-1.9,0-3.6-0.8-4.9-2.2
	c-1.3-1.5-2-3.5-2.2-5.5c0-0.5,0-1.1,0.1-1.6c0-0.2,0-0.3,0.1-0.5c0-0.4,0.1-0.7,0.2-1.1c0.3-1.4,1.5-5.8,4.7-7.7
	c1.1-0.6,1.8-0.6,1.9-0.4c0.1,0.1,0,0.4-0.1,0.6c-1.6,2.2-2.5,3.5-2.6,6.3c0,0.1,0.1,0.3,0.2,0.4c0.1,0.1,0.3,0.1,0.4,0.1
	c0.6-0.1,1.2-0.3,1.8-0.6c1.9-0.8,5.5-2.3,17-2.3c7.2,0,13,2,14.5,3.1c0.1,0.1,0.3,0.1,0.5,0.1c0,0,0.1,0,0.1,0
	c0.1,0,0.2-0.1,0.2-0.2c0,0,0.1-0.1,0.1-0.1c0,0,0.1-0.1,0.1-0.2l0-0.1c0-0.1,0.1-0.1,0.1-0.2l0-0.2c0,0,0,0,0-0.1
	c0-0.1,0.1-0.1,0.1-0.2l0,0c0.1-0.5,0-1-0.2-1.4c-0.3-0.9-0.8-1.7-1.4-2.5l-0.3-0.5c-0.3-0.6-0.1-1.4,0.5-1.7c0.5-0.2,1-0.2,1.4,0.2
	c1.4,1.4,2.6,3,3.5,4.7C414.5,277.1,414.6,277.3,414.7,277.6z M426.7,235.3c3-5.9,10.6-9.5,21.9-10.2c0.5,0,0.9,0,1.4,0
	c2.6,0,5.3,0.5,7.8,1.4c4.1,3.1,6.3,8.1,5.9,13.2c-0.5,5.3-3.4,10.1-7.8,13c-4.6,3-10.1,4.3-15.5,3.6c-5.8-0.7-10.8-3.6-13.4-7.6
	C424.7,244.4,424.6,239.5,426.7,235.3z M359.3,251.4c-2.4,4.4-7.3,7.6-13.2,8.7c-5.5,1-11.1,0-15.8-2.9c-4.7-2.9-7.8-7.8-8.6-13.2
	c-0.3-2.3-0.1-4.6,0.6-6.8c0.9-0.8,1.9-1.4,2.9-1.9c3.3-1.8,6.8-3.3,10.4-4.3c1.8-0.5,3.6-0.8,5.4-1c6.7,0.1,13.1,3.2,17.3,8.5
	c0.8,1,1.5,2.2,2.1,3.3C361.3,245,360.9,248.4,359.3,251.4L359.3,251.4z M324.3,234.8c0.4-0.3,0.7-0.5,1.1-0.7
	C325,234.3,324.6,234.5,324.3,234.8c-0.2,0.1-0.4,0.3-0.6,0.4C323.8,235.1,324,234.9,324.3,234.8L324.3,234.8z M327,233
	c-0.2,0.1-0.3,0.2-0.5,0.3C326.7,233.2,326.8,233.1,327,233L327,233z M332.5,230.7c-0.5,0.2-1.1,0.4-1.6,0.6c-0.1,0-0.2,0.1-0.3,0.1
	c0.1,0,0.2-0.1,0.3-0.1C331.4,231,331.9,230.8,332.5,230.7L332.5,230.7z M352.1,230.1c-2-0.6-4.1-1.1-6.2-1.3
	c-3-0.9-6.1-1.1-9.2-0.5c-3.4,0.7-6.6,1.8-9.7,3.3c-0.2,0.1-0.5,0.2-0.8,0.2c-0.1,0-0.2-0.1-0.3-0.1c0-0.1,0.2-0.2,0.2-0.3
	c1.4-1.5,3.1-2.7,4.9-3.7c2.3-0.9,4.7-1.5,7.2-1.8c8-0.8,16,2,21.8,7.7C357.6,232.2,354.9,231,352.1,230.1L352.1,230.1z
	 M321.6,236.8c0.2-0.2,0.5-0.4,0.7-0.6C322.1,236.4,321.9,236.6,321.6,236.8s-0.5,0.4-0.7,0.6C321.2,237.2,321.4,237,321.6,236.8
	L321.6,236.8z M417.4,285.2c0,0.1,0,0.2,0,0.3C417.4,285.4,417.4,285.3,417.4,285.2L417.4,285.2z M418.3,306.4
	C418.3,306.4,418.3,306.4,418.3,306.4c0-0.2,0.1-0.3,0.2-0.4c0.1-0.1,0.3-0.2,0.5-0.2c0.5,0,1.1,0,1.6,0h0c0.3,0,0.5-0.1,0.8-0.2
	c0.4-0.1,0.8,0.1,0.9,0.5c0,0.1,0,0.2,0,0.3c0,0.1,0,0.2,0,0.3c0,0.1,0.1,0.1,0.1,0.2c0,0.2,0,0.4-0.1,0.6c-0.1,0.2-0.2,0.3-0.4,0.4
	c-0.2,0.1-0.5,0.1-0.7,0.1c-0.2,0-0.4-0.1-0.6-0.1l-0.8-0.1c-0.1,0-0.2,0-0.3-0.1l-0.1,0c-0.1-0.1-0.3-0.1-0.4-0.1
	c-0.1,0-0.2-0.1-0.4-0.1c-0.1,0-0.2-0.1-0.3-0.2l-0.2-0.2C418.3,306.8,418.3,306.7,418.3,306.4C418.3,306.5,418.3,306.4,418.3,306.4
	L418.3,306.4z M419.3,244.9c0.3-0.7,0.6-1.4,1-2.1c1.1,6.8,5.6,12.6,11.8,15.4c3.2,1.4,6.7,2.2,10.2,2.1c4.6,0,9-1.1,13.1-3.2
	c6.9-3.5,11.7-9.4,12.9-15.8c0.6-3.2,0.2-6.4-1.1-9.4c2.7,2.3,5.1,5,7.1,8c0,0,0,0,0.1,0.1c-0.6,3.6-2,7.1-4.3,10
	c-1.8,1.1-3.6,2.3-5.6,3.5c-4.8,2.8-9.9,5.6-15.5,6.8c-7.9,1.7-16.1,0.3-23.1-3.8C422.7,253.1,420.5,249.1,419.3,244.9L419.3,244.9z
	 M316.8,242.9c0,1,0.2,2,0.4,3c1.5,6.6,6.6,12.5,13.7,15.8c3.8,1.8,7.9,2.7,12,2.7c4,0,8-0.9,11.5-2.8c6.6-3.6,10.9-10.3,11.2-17.9
	c0.5,2.4,0.4,4.9-0.1,7.3c-2.7,9.8-10.5,15.9-20.2,15.9c-3.5-0.1-6.9-0.7-10.2-1.7c-4.4-1.2-9.5-2.8-13.2-6.3
	C317.5,254.6,316.3,247.1,316.8,242.9L316.8,242.9z M430,314c0.1-0.5,0.4-0.8,0.9-0.8h0c0.1,0,0.2,0,0.3-0.1
	c0.1-0.1,0.3-0.1,0.5-0.1c1,0,1.9,0.2,2.8,0.6c0.4,0.1,0.7,0.5,0.6,1c0,0.2-0.1,0.3-0.2,0.4c0,0.1-0.1,0.1-0.1,0.2
	c0,0.2-0.1,0.3-0.2,0.4c-0.1,0.1-0.3,0.2-0.5,0.2c-0.7-0.1-1.5-0.3-2.2-0.5c-0.1,0-0.1,0-0.2,0c-0.2,0-0.3,0-0.4-0.1
	c0,0-0.1,0-0.1,0l-0.5-0.1C430.2,314.8,429.9,314.4,430,314z M350.1,203.5c-0.3,0.1-0.4,0.4-0.3,0.6c0.1,0.2,0.3,0.4,0.5,0.4h0
	c2.9-0.1,5.6,1.4,8.3,2.8c0.5,0.3,1,0.5,1.5,0.8c2.1,1.2,4.4,1.9,6.9,2c-2.8,1.2-5.7,1.8-8.8,1.7h0c-0.3,0-0.5,0.2-0.5,0.5
	c0,0.1,0,0.2,0.1,0.3c1,1,2.2,1.9,3.5,2.6c1.1,0.6,2.1,1.3,2.9,2.2l-4.4-1.7c-0.3-0.1-0.5,0-0.6,0.3c0,0.1,0,0.2,0,0.4
	c0.8,2,1.7,4,2.6,6c-5.2-3.4-11.2-5.3-17.4-5.6c-11.9-0.7-20.6,6.2-21.6,7c-3.5,2.4-6.7,5.3-9.4,8.5c1.3-3.1,3.1-5.9,5.5-8.4
	c0.2-0.2,0.2-0.5,0-0.7c-0.2-0.2-0.4-0.2-0.6,0c-1.2,0.9-2.4,1.6-3.4,2.2c-0.7,0.5-1.5,0.9-2.3,1.4c1.6-4.7,4.7-8.7,8.9-11.4
	c0.2-0.2,0.3-0.5,0.1-0.7c-0.1-0.2-0.4-0.3-0.7-0.1l-8.1,4.9c5.1-8.8,13.5-15.3,23.4-17.9c6.6-1,13.2-0.9,19.8,0.2L350.1,203.5z
	 M322.4,156.6l-3.9-0.7c-3-2.4-7.1-3.5-10.6-1.8c-0.2,0.1-0.4,0.4-0.2,0.7c0.1,0.1,0.2,0.2,0.3,0.3c3.1,1.2,5.8,3.4,7.4,6.3
	c-1-0.1-2,0.1-2.9,0.5c-1,0.5-1.8,1.4-2.3,2.4l-2.5-2c-0.2-0.2-0.5-0.1-0.7,0.1c-0.1,0.1-0.1,0.3-0.1,0.4c0.8,3,1.2,6.1,1.1,9.1
	c-1.6-0.1-3.2-0.8-4.5-1.8c-0.2-0.2-0.5-0.1-0.7,0.1c-0.2,0.2-0.1,0.5,0.1,0.7l3.5,3.2c-2.3,0.2-4.5-0.4-6.4-1.8
	c-0.2-0.2-0.5-0.1-0.7,0.1c-0.1,0.1-0.1,0.2-0.1,0.4l1.1,6.4l-5.9-4.5c-0.2-0.2-0.5-0.1-0.7,0.1c-0.1,0.1-0.1,0.3-0.1,0.5l3.6,8.7
	c-2.1-1.9-4.3-3.5-6.8-4.7c-1.2-1.4-2.3-2.8-3.4-4.3c-2.6-3.9-4.9-8-7-12.2c-0.5-1-1-2-1.6-3c0.8-0.2,1.6-0.5,2.5-0.7
	c6.9-1.9,13.9-3.6,21-4.9c6.3-1.4,12.8-1.2,19,0.5C321.5,155.2,321.9,155.9,322.4,156.6L322.4,156.6z M297.1,137.1
	c-0.2,0.2-0.1,0.5,0.1,0.7c0.2,0.1,0.4,0.2,0.6,0c6.5-3.6,14.6-2.8,20.2,2.1l-5.2-0.5c-0.2,0-0.4,0.1-0.5,0.3
	c-0.1,0.2-0.1,0.4,0.1,0.6l5,5.1l-5-0.7c-0.2,0-0.4,0.1-0.5,0.3c-0.1,0.2,0,0.5,0.2,0.6c3,2.1,5.6,4.7,7.9,7.6
	c-13.2-5.1-26.3,0.2-39.9,5.3c-0.6,0.2-1.1,0.5-1.7,0.7c-1.8-3.3-3.6-6.6-5.5-9.9c8.3-6.5,17.6-13.1,27.9-15.8
	C299.4,134.6,298.2,135.8,297.1,137.1z M363.8,302.3l-0.2,0.1l-0.1,0c-0.1,0-0.1,0-0.2,0c-0.1,0-0.3,0.1-0.5,0c-0.1,0-0.1,0-0.1-0.1
	c-0.1-0.1-0.2-0.1-0.4,0l-0.4,0.1c-0.4,0.1-0.9-0.2-1-0.6c-0.1-0.2,0-0.4,0.1-0.5c0.1-0.2,0.3-0.4,0.5-0.4c0.6-0.2,1.3-0.4,2-0.7
	c0.3-0.1,0.7-0.3,1-0.4l0.2-0.1h0l0,0l0,0l0.6-0.3c0.2-0.1,0.5-0.2,0.8-0.1c0.1,0,0.2,0,0.3,0c0.4-0.2,0.8,0,1.1,0.3
	c0.1,0.2,0.1,0.4,0.1,0.6c-0.1,0.2-0.2,0.4-0.4,0.6c-0.9,0.6-1.9,1-2.9,1.4c-0.1,0-0.2,0-0.3,0C363.9,302.2,363.9,302.3,363.8,302.3
	L363.8,302.3z M366.4,312.2c-1.1,0.2-2.1,0.5-3.2,0.7c-0.5,0.1-1-0.2-1.1-0.6c-0.1-0.2,0-0.4,0.1-0.6c0.1-0.2,0.3-0.4,0.6-0.5
	c0.5-0.2,1-0.3,1.5-0.4c0.1,0,0.3-0.1,0.3-0.3c0.1-0.3,0.4-0.5,0.7-0.5c0.5,0,0.9,0,1.4-0.1c0.4,0,0.9-0.1,1.3-0.1
	c0.1,0,0.2,0,0.2,0c0.1,0,0.1,0,0.2,0l1-0.1c0.3,0,0.7,0.3,0.8,0.7c0.1,0.4-0.1,0.7-0.4,1l0,0c-0.9,0.4-1.9,0.7-2.9,0.7L366.4,312.2
	z M447.6,330.1C447.6,330.1,447.5,330,447.6,330.1L447.6,330.1c-0.2-0.6-0.4-1-0.6-1.5c0,0,0,0,0-0.1c-2.8-7.6-7.2-14.5-12.7-20.3
	c-0.1-0.1-0.2-0.1-0.3-0.1c-0.2,0-0.4,0-0.6-0.1c-0.3,0-0.5,0-0.8,0h-0.2c-0.2,0-0.4,0-0.6,0c-0.5,0-0.9-0.3-1-0.8
	c0-0.1,0-0.1-0.1-0.2c-0.1-0.2-0.2-0.4-0.2-0.7c0-0.2,0.1-0.4,0.3-0.6c0.2-0.2,0.2-0.5,0-0.7c0,0,0,0,0,0c-2.9-2.5-6.2-4.7-9.7-6.4
	c-0.1-0.1-0.3-0.2-0.3-0.3c0-0.1,0-0.2,0-0.3l0,0c0-0.1,0.1-0.2,0.2-0.3c0,0,0,0,0,0l0,0c0.1,0,0.2-0.1,0.3-0.1c0,0,0,0,0,0
	c0.1,0,0.2,0,0.3,0.1c0.3,0.2,0.7,0.3,1,0.5l0.4,0.2c0.2,0.1,0.5,0,0.7-0.2c0.1-0.1,0.1-0.3,0-0.4c-0.1-0.2-0.1-0.4-0.1-0.6
	c0.1-0.2,0.2-0.4,0.4-0.5c0.2-0.1,0.5-0.2,0.7-0.1l0.6,0.1c0.9,0.2,1.7,0.4,2.6,0.6l0.9,0.2c0.8,0.2,1.6,0.4,2.4,0.6
	c0.5,0.1,0.8,0.7,0.7,1.2c-0.1,0.4-0.4,0.6-0.8,0.6c-0.1,0-0.1,0-0.2,0.1c-0.1,0-0.1,0.1-0.2,0.1c-0.1,0-0.2,0.1-0.3,0.2
	c-0.2,0.3-0.6,0.5-1,0.4c-0.5-0.1-0.9-0.3-1.4-0.4L428,300c-0.3-0.1-0.5,0.1-0.6,0.3c-0.1,0.2,0,0.4,0.2,0.6
	c1.9,1.3,3.7,2.8,5.5,4.4c0.1,0.1,0.2,0.1,0.3,0.1c0.4,0,0.7,0.1,1.1,0.1c0.4,0.1,0.9,0.1,1.3,0.1c0.5,0,0.9,0.4,0.9,0.9
	c0,0.4-0.2,0.7-0.6,0.8c-0.3,0.1-0.4,0.4-0.3,0.7c0,0.1,0.1,0.1,0.1,0.1c1.4,1.5,2.8,3.2,4,4.9c1.8,2.5,3.5,5.1,4.9,7.9
	c0.1,0.2,0.2,0.3,0.4,0.3c0.2,0,0.3-0.1,0.4-0.2c0.1-0.2,0.4-0.4,0.7-0.4c0.2,0,0.4,0,0.7,0l0.2,0c0.5-0.1,0.9-0.2,1.4-0.2
	c0.2,0,0.5,0.1,0.6,0.3c0.1,0.2,0.2,0.4,0.2,0.6c0,0.1,0.1,0.3,0.2,0.3c0.1,0.1,0.2,0.2,0.3,0.3c0.1,0.2,0.1,0.4,0.1,0.6
	c0,0.2-0.1,0.4-0.3,0.6c-0.2,0.2-0.4,0.3-0.7,0.3H449c-0.6,0-1.2,0-1.8-0.1c-0.1,0-0.2,0-0.2,0c-0.3-0.1-0.5,0.1-0.6,0.3
	c0,0.1,0,0.2,0,0.4c0.9,1.8,1.6,3.7,2.3,5.6c0.4,1.2,0.8,2.4,1.2,3.6c0.1,0.4,0.3,0.9,0.4,1.3c0.1,0.4,0.2,0.7,0.3,1.1
	c0.2,0.7,0.3,1.3,0.5,2c0.7,3,1.2,5.9,1.6,8.9c0,0.2,0.1,0.3,0.3,0.4c0,0,0,0-0.1,0c-0.1,0.1-0.1,0.2-0.1,0.4c0.3,2.7,0.5,5.4,0.5,8
	c0.2,19.1-4.8,37.4-10.5,56c-0.1,0.3-0.4,0.5-0.7,0.4c0,0,0,0,0,0c-0.3-0.1-0.4-0.3-0.4-0.6c0,0,0,0,0-0.1
	c3.1-10.7,5.8-20.4,7.7-30.5c2.4-12.5,3-23.3,2-33.3c0-0.3-0.2-0.5-0.5-0.5c0,0,0,0,0,0c-4.7,0.2-10.7,0.7-16.4,3.3
	c-3,1.4-5.9,3.1-8.6,5c-1.5,1-3,2-4.5,2.9c-5.3,3.2-9.9,4.4-14.1,3.8c-2-0.4-4-1-5.9-1.8c-1.1-0.4-2.2-0.9-3.3-1.2
	c1.9-0.6,3.7-1.5,5.3-2.7l4.1,4c0.1,0.1,0.2,0.1,0.4,0.1c0.1,0,0.1,0,0.2,0c0.2-0.1,0.3-0.2,0.3-0.4c0.4-2.3,2.1-4.2,4.3-4.9
	l0.8,1.2c0.1,0.2,0.4,0.3,0.7,0.2c2.9-1.7,5.7-3.5,8.4-5.5c4.4-3.2,8.2-5.9,13.7-6.5c4.1,0.4,7.7,1,11.2,1.7
	c1.1,0.2,2.3,0.4,3.4,0.6c0,0,0.1,0,0.1,0c0.3,0,0.5-0.2,0.5-0.5c0,0,0,0,0-0.1c-0.2-2-0.6-4-1-6c0,0,0,0,0,0c0-0.2-0.1-0.3-0.1-0.5
	c0-0.1-0.1-0.3-0.1-0.4c-0.1-0.6-0.3-1.2-0.4-1.8l0,0l0,0c-0.1-0.5-0.2-0.9-0.4-1.3c-0.1-0.4-0.2-0.8-0.3-1.2
	c-0.1-0.3-0.2-0.7-0.3-1c0-0.1-0.1-0.2-0.1-0.3c0,0,0,0,0,0c-0.2-0.8-0.5-1.6-0.8-2.4c0-0.1-0.1-0.2-0.3-0.3
	C447.6,330.4,447.6,330.2,447.6,330.1L447.6,330.1z M497,211.6C497,211.5,497,211.5,497,211.6C497,211.5,497,211.5,497,211.6
	L497,211.6z M511.9,133.6c-2.1,4.6-4.2,9.4-6.1,14.2c-0.5,1.2-0.9,2.4-1.4,3.6c-1.6,4.3-3.4,8.6-5.5,12.7c-1.4,2.7-3.2,5.3-5.2,7.6
	c0,0,0,0,0,0c-0.2-0.1-0.4-0.1-0.6,0c-2,1.6-4.1,3.1-6.4,4.2l3.8-6.5c0.1-0.2,0.1-0.5-0.2-0.7c-0.1-0.1-0.3-0.1-0.4,0
	c-4.2,1.2-8.2,3.2-11.7,5.9l0.2-0.3c0.1-0.2,0-0.5-0.2-0.7c-0.1-0.1-0.3-0.1-0.4,0c-2.2,1.1-4.2,2.5-6,4.1c0.8-3.4,3.4-6.2,5.9-8.9
	l0.2-0.2c3-3.3,6-7.2,5.5-11.6c0-0.3-0.3-0.5-0.6-0.4c-0.1,0-0.3,0.1-0.4,0.2c-3.2,4.8-8.5,7.5-14.6,9.9c2.4-2.4,4.1-5.5,4.9-8.8
	c0.1-0.3-0.1-0.5-0.4-0.6c-0.2,0-0.4,0-0.5,0.2l-2,2.3c-1.6-4.4-1.4-9.2,0.6-13.5c0.1-0.2,0-0.5-0.2-0.7c-0.2-0.1-0.4-0.1-0.6,0.1
	c-1,1-2,2.1-2.9,3.3l-4,1.2c0-0.3,0-0.5,0-0.8c0.7-1.4,1.6-2.8,2.5-4.1c0.5-0.2,0.9-0.3,1.4-0.5c2.6-0.9,5.4-1.5,8.2-1.6
	c8.1-0.1,14.4,3.5,21.7,7.2c1.7,0.9,3.7,2.1,5.2,3c-1.3-1-2.6-2-4-2.9c-7.6-5.1-16.6-10.9-26.2-8.5c-1.7,0.5-3.5,1.1-5.3,1.8
	c1.5-1.9,3.1-3.7,4.9-5.3c0.2-0.2,0.2-0.5,0-0.7c-0.1-0.1-0.3-0.2-0.5-0.2l-3,0.8c0.6-0.3,1.1-0.5,1.6-0.7c7.6-3.3,15.1-1,22.4,2.5
	c3.9,1.9,7.6,4.1,11.1,6.5c-3-2.5-6.2-4.8-9.5-6.9c-7.2-4.6-16.6-8.3-24.7-3.6c-0.4,0.2-0.7,0.4-1.1,0.6l2.7-3.5
	c0.2-0.2,0.1-0.5-0.1-0.7c-0.1-0.1-0.3-0.1-0.4-0.1l-5,1.1c5-5.4,12.9-7.1,19.7-4.3c0.3,0.1,0.5,0,0.7-0.3c0.1-0.2,0-0.4-0.1-0.6
	c-2.6-2.5-5.6-4.4-8.9-5.7c0.7,0,1.4,0,2.1,0c6.2,0.2,12.5,0.9,18.6,2.1c5.5,1.2,10.9,4.4,15.7,7.8
	C512.1,133.1,512,133.3,511.9,133.6L511.9,133.6z M356.3,307.4c-0.1,0.1-0.2,0.1-0.2,0.1c-0.5,0.1-1,0.2-1.5,0.4
	c-0.6,0.2-1.2,0.3-1.8,0.4c-0.2,0.1-0.5,0-0.7-0.1c-0.2-0.1-0.3-0.3-0.4-0.5c-0.1-0.2,0-0.4,0.1-0.6c0.1-0.2,0.3-0.4,0.5-0.4l0,0
	c0.1,0,0.1-0.1,0.2-0.1c0.1-0.1,0.2-0.1,0.2-0.2c0.1,0,0.1-0.1,0.2-0.2c0.1-0.2,0.3-0.3,0.5-0.4c0.4-0.1,0.7-0.1,1.1-0.2
	c0,0,0.1,0,0.1,0l0.2-0.1c0.4-0.2,0.8-0.3,1.3-0.4c0.2-0.1,0.5,0,0.7,0.1c0.1,0.1,0.2,0.1,0.2,0.2c0,0.1,0.1,0.1,0.2,0.1
	c0.4,0.2,0.6,0.8,0.4,1.2c-0.1,0.2-0.3,0.4-0.5,0.4l-0.5,0.1C356.4,307.3,356.3,307.3,356.3,307.4z M345.8,311.1
	c0,0.2-0.1,0.3-0.2,0.5c-0.1,0.1-0.2,0.2-0.4,0.3c-0.8,0.1-1.6,0.3-2.3,0.5l-0.6,0.2c-0.1,0-0.2,0.1-0.3,0.1c-0.1,0-0.3,0.1-0.4,0.1
	l-0.1,0l-0.8,0.2c-0.1,0-0.2,0.1-0.3,0.1c-0.1,0-0.1,0-0.2,0l-0.1,0c-0.5,0.1-1-0.2-1.1-0.7c0-0.2,0-0.4,0-0.6c0,0,0-0.1,0-0.2
	c0.1-0.2,0.2-0.4,0.4-0.6c0.2-0.1,0.3-0.3,0.2-0.5c-0.1-0.5,0.2-0.9,0.6-1.1l0.1-0.1c0.1-0.1,0.3-0.1,0.4-0.1c0.1,0,0.2,0,0.3,0
	c1.4,0.2,2.7,0.5,4,0.8C345.6,310.4,345.8,310.8,345.8,311.1L345.8,311.1z M512.9,131.4c-4.2-3.2-8.8-5.8-13.8-7.5
	c-6.5-1.7-13.3-2.6-20-2.5c-2.3,0-4.5,0.1-6.8,0.3c-1.4-0.4-2.8-0.6-4.2-0.7c3.1-1.4,6.4-2.3,9.7-2.7c0.3,0,0.5-0.3,0.4-0.6
	c0-0.2-0.2-0.4-0.4-0.4c-3.6-1-7.4-1.3-11.2-0.9c9.7-4.8,22.2-3.8,30.8,2.6c0.2,0.2,0.5,0.1,0.7-0.1c0.1-0.2,0.1-0.4,0-0.6
	c-3.9-5.5-9.6-9.3-16.1-10.7c1.1-0.2,2.2-0.3,3.3-0.4c5.7-0.7,16.1-0.9,21.8,0c4.8,0.8,9.5,1.9,14.1,3.3
	C518.9,117.5,515.9,124.5,512.9,131.4z M292.7,117.7c-10.6,3.1-20.1,9.2-28.7,16.2c-1.6-3-3.2-6-4.7-9.1c5.9-2,11.9-3.9,17.9-5.5
	c6.1-1.4,12.2-2.5,18.4-3.1C294.6,116.7,293.6,117.2,292.7,117.7z M511.1,175.5c-0.1,0-0.3,0-0.4,0c-0.1,0.1-0.2,0.2-0.3,0.3
	c-1.5,3.9-1.9,8.2-1.1,12.3l-2.9-3.2c-0.2-0.2-0.5-0.2-0.7,0c0,0-0.1,0.1-0.1,0.1l-7.8,14.5c0.1-3.1,0.8-6.2,2.1-9
	c0.1-0.2,0-0.4-0.1-0.5c-0.1-0.1-0.3-0.2-0.5-0.2c-4.1,1-6.6,4.7-7.5,9c-2.4,1.6-5.4,2.3-8.3,2.1c-0.8-0.1-1.6-0.1-2.4-0.1
	c-0.3,0-0.7,0-1-0.1c2.7-1.3,5.3-2.7,7.8-4.2c0.2-0.1,0.3-0.5,0.2-0.7c-0.1-0.2-0.4-0.3-0.7-0.2c-2.2,1.1-4.7,1.1-6.9,0.1
	c1.8-0.6,3.3-1.7,4.4-3.2c4.1-5.1,7-11.1,8.5-17.4c6.6-4.1,11.1-8.7,13.4-14.2c0.9-2.2,1.6-4.5,2.2-6.8c0.4-1.4,0.8-2.8,1.2-4.2
	c1.5-4,3.3-7.9,5.4-11.6c0.4-0.8,0.8-1.5,1.2-2.3l0.4,0.3c0.6,0.5,1.2,0.9,1.7,1.4c-3.1,12.5-6,25.5-6,38.5L511.1,175.5z M517.4,135
	c0.1-0.3,0.3-0.6,0.4-0.9c1.6-3.2,3.1-6.6,4.4-10c-0.3,1.2-0.6,2.4-0.8,3.7c-0.6,2.3-1.1,4.7-1.7,7l-0.4,1.8
	C518.6,136,518,135.5,517.4,135L517.4,135z M429.7,141.4c-0.7-0.5-1.2-1.2-1.6-2c-0.1-0.2-0.4-0.3-0.7-0.2c-0.1,0.1-0.2,0.2-0.3,0.4
	c-0.6,4.2-2.9,8-6.3,10.6c0.8-3.1,1.2-6.4,0.9-9.6c0-0.2-0.2-0.4-0.5-0.5c-0.2,0-0.5,0.1-0.5,0.4c-0.5,2.3-1.8,4.3-3.7,5.7
	c-0.6-1.2-0.9-2.5-0.8-3.8c0-0.2-0.1-0.4-0.2-0.4c-0.2-0.1-0.4-0.1-0.5,0c-3.3,2.1-5.2,5.7-5,9.6l-2.2-3.9c-0.1-0.2-0.4-0.3-0.7-0.2
	c-0.1,0-0.1,0.1-0.2,0.1c-2.1,3.1-2.8,6.9-1.9,10.5c0.1,0.3,0.2,0.5,0.2,0.8c0.3,0.7,0.4,1.5,0.5,2.2c0.1,0.9-0.4,1.7-1.2,2.1
	c-0.4,0.1-0.8,0-1.1-0.2c-0.6-0.4-1-1-1.2-1.7c-0.2-0.8-0.2-1.6-0.2-2.4c0-0.5,0-1,0-1.6c-0.1-1.4-0.8-3.2-2.4-3.7
	c-0.2-0.1-0.5,0-0.6,0.3c-3,6.5-4.8,13.5-5.3,20.6c-1-2.3-0.8-5.1-0.7-7.8c0-0.5,0.1-1,0.1-1.5c0.2-5.2-1.5-9-4.6-10.2
	c-0.1-0.1-0.3,0-0.4,0c-0.1,0.1-0.2,0.2-0.2,0.3l-0.8,4.4c-5-3.5-9.1-8-12.3-13.2c-0.1-0.2-0.2-0.2-0.4-0.2h0
	c-0.2,0-0.3,0.1-0.4,0.2l-1.9,2.8c-4.3-4.2-9.5-7.4-15.2-9.4c7.1-1.1,14.4-0.7,21.5-0.4l13.2,0.6c5.3,0.2,10.8,0.5,16.1-0.5
	c2.3-0.4,4.6-1,6.7-1.7c1.8-0.5,3.7-1,5.5-1.4c4.7-1,8.6-0.9,11.8,0.4c-0.2,1.2-1.3,2.6-2.4,3.9L429.7,141.4z M340.8,148.5
	c-2.5-0.7-4.8-1.8-6.9-3.4c-0.2-0.2-0.5-0.1-0.7,0.1c-0.1,0.1-0.1,0.3-0.1,0.5c1.9,4.3,1.8,9.2-0.2,13.5l-0.4-0.7
	c-0.6-2-1.4-3.9-2.2-5.7c-2.2-5.3-4.7-11.2-8.8-15.8c1.9-0.4,3.9-0.3,5.8,0.2c0.2,0.1,0.4,0,0.5-0.1c0.1-0.1,0.2-0.3,0.1-0.5
	c-1.8-5.1-4.8-9.6-8.8-13.2c3.1,1.6,6.1,3.4,9,5.4C333.1,134.7,337.4,141.4,340.8,148.5L340.8,148.5z M291.8,101.5
	c-13.1-3.5-26.9-1-39.4,3.6c-1-4-1.1-8.1-0.4-12.1c0.4-1.9,1.2-3.7,2.3-5.3c4.6-2.4,9.9-3.1,15-2.1c6.1,1.1,12.2,4.2,19.3,9.8
	c2.4,1.9,4.8,4,7,6c0.7,0.6,1.5,1.3,2.2,1.9C295.8,102.7,293.8,102.1,291.8,101.5z M260.2,139.1c1.4,2.6,2.9,5.1,4.5,7.5
	c0.9,1.4,1.8,2.7,2.7,4c0.2,0.3,0.4,0.5,0.5,0.8c-0.9,0.8-1.7,1.5-2.5,2.3l-0.2,0.2c-0.8-2.2-1.6-4.3-2.3-6.5
	c-0.8-2.3-1.7-4.6-2.5-6.9c-0.2-0.4-0.3-0.9-0.5-1.3L260.2,139.1z M268.7,152.6c2.1,2.9,3.9,6,5.4,9.2c0.6,1.4,1.2,2.8,1.7,4.1
	c0.8,2.3,1.8,4.5,3,6.6c1.2,2.1,2.7,4,4.5,5.7c7,7.7,11.7,17.2,13.3,27.5c-1.4-2.6-4-4.4-6.9-4.8c-0.3,0-0.5,0.2-0.6,0.4
	c0,0.1,0,0.2,0.1,0.3c1.6,2.8,2.6,5.8,3.1,9l-9.5-13.8c-0.1-0.1-0.2-0.2-0.4-0.2l0,0c-0.2,0-0.3,0.1-0.4,0.2l-2.6,3.6
	c0.2-4.3-0.6-8.5-2.5-12.4c-0.1-0.2-0.4-0.3-0.7-0.2c0,0,0,0,0,0l-1.7,0.9c-1.3-11.5-4.8-22.7-8.7-33.6
	C266.6,154.3,267.7,153.4,268.7,152.6L268.7,152.6z M339.8,135.7c-0.2-0.2-0.4-0.5-0.6-0.8C339.4,135.2,339.6,135.4,339.8,135.7
	L339.8,135.7z M331.1,450.8L331.1,450.8z"/>
</svg>
