<?xml version="1.0" encoding="utf-8"?>
<!-- Generator: Adobe Illustrator 24.2.3, SVG Export Plug-In . SVG Version: 6.00 Build 0)  -->
<svg version="1.1" id="fc43fda3-7240-48f3-b382-9ac14758c1c2"
	 xmlns="http://www.w3.org/2000/svg" xmlns:xlink="http://www.w3.org/1999/xlink" x="0px" y="0px" viewBox="0 0 892 522.8"
	 style="enable-background:new 0 0 892 522.8; fill: #215342;" xml:space="preserve" height="247" width="290">
<path d="M454.6,296c1-0.3,1.9-1,2.5-1.8c0.2-0.2,0.4-0.4,0.6-0.6c1.5-1.4,3.7-1.9,5.9-2.5c1-0.2,2.1-0.5,3.1-0.8
	c1-0.3,2-0.9,2.7-1.6c1-1.2,1.4-2.9,1-4.4c-0.4-1.4-1-2.7-1.9-3.9c-0.2-0.3-0.4-0.6-0.6-0.9c-1-1.6-1.3-3-1-4.1
	c0.3-0.6,0.2-1.4-0.2-1.9c-0.3-0.3-0.6-0.5-1-0.6c-4.3-1-8.7-0.9-13,0.1c-0.5,0.1-0.9,0.7-0.7,1.2c0.1,0.5,0.6,0.8,1.1,0.7
	c2.4-0.1,4.9,0.5,6.9,1.8c1.8,1,3.3,2.6,4,4.5c0.7,1.8,0.4,3.9-0.8,5.5c-1.2,1.4-3.2,1.9-4.9,1c-0.3-0.2-0.6-0.4-0.9-0.6
	c-0.7-0.6-1.4-1-2.3-1.3c-2.3-0.5-4.2,1.5-4.9,3.6c-0.5,1.4-0.4,3,0.2,4.3c0.2,0.5,0.5,0.9,0.8,1.2c0.6,0,1.1,0.3,1.3,0.9
	c0,0,0,0,0,0c0.4,0.2,0.8,0.3,1.3,0.3C454.1,296.1,454.3,296.1,454.6,296z"/>
<path d="M562.2,235.1l5.8-4.5c0.2-0.1,0.2-0.4,0.2-0.6c-0.1-0.2-0.3-0.3-0.5-0.3c-4.3,0.4-8.6,0.4-12.9-0.1l3-4
	c0.2-0.2,0.1-0.5-0.1-0.7c-0.1-0.1-0.3-0.1-0.4-0.1c-3.2,0.8-6.6,0.5-9.6-0.9c3.4-3.6,5.5-8.2,5.9-13.2c0-0.3-0.2-0.5-0.5-0.5
	c-0.1,0-0.2,0-0.3,0.1c-8.6,6.5-19.9,8.4-30.2,5c-0.3-0.1-0.5,0.1-0.6,0.3c-0.1,0.2,0,0.4,0.1,0.5l3.4,3.3c-5.8-1.5-11.7-3-17.7-3
	c-3.3,0-6.5,0.4-9.6,1.3c-0.3,0-0.5-0.1-0.8,0c-3.1,0.1-6.1,1-8.7,2.6c0.4-2.9,1.6-5.6,3.3-7.9c0.2-0.2,0.1-0.5-0.1-0.7
	c-0.1-0.1-0.3-0.1-0.4-0.1c-2.5,0.7-4.7,2.2-6.3,4.3v-3c0-0.3-0.2-0.5-0.5-0.5c-0.2,0-0.3,0.1-0.4,0.2l-2,3
	c-0.1-5.6,1.2-11.6,4.1-18.3c0.1-0.3,0-0.5-0.3-0.7c-0.2-0.1-0.4,0-0.6,0.1c-4,4.6-7.8,10.1-7.5,19.6c0,0.6,0,1.2-0.1,1.9
	c-1,2.6-2.7,4.9-4.8,6.7c-0.7,0.7-1.6,1.1-2.6,1.1c1.1-3.6,1.8-7.3,2-11.1c0-0.3-0.2-0.5-0.5-0.5c-0.2,0-0.4,0.1-0.5,0.3
	c-2.2,4.8-5.2,9.1-9,12.8c-4.3,4.6-7.4,7.8-4.5,16.5c0.2,0.6,0.3,0.7,0.5,0.7s0.3,0,0.5-0.1l3.4-3c0.2,2.5,1,4.9,2.2,7.1
	c0.1,0.2,0.4,0.3,0.7,0.2c0.1-0.1,0.2-0.2,0.3-0.4c0.2-3.7,1.5-7.2,3.7-10.2c0,2.1,0.5,4.1,1.3,6c0.1,0.3,0.4,0.4,0.7,0.2
	c0.2-0.1,0.3-0.2,0.3-0.4c0.7-4.4,2.8-8.5,6-11.7c0.4-0.4,0.8-0.7,1.1-1.1l0.2-0.2c3.9-2.8,8.4-4.7,13.1-5.6
	c-1.1,0.8-2.2,1.7-3.2,2.7c-3.2,2.7-5.6,6.1-7.2,9.9c-0.6,1.8-1.1,3.7-1.5,5.6c-0.7,3.2-1.3,6.3-3.2,8.7c-0.2,0.2-0.1,0.5,0.1,0.7
	l11.5,7.4c0.2,0.2,0.5,0.1,0.7-0.1c0.1-0.2,0.1-0.4,0-0.6c-2.6-3.1-4.7-6.4-6.4-10c-0.4-0.6-0.6-1.3-0.6-2c0-0.5,0.4-1.2,0.9-1.2
	h0.1c0.3,1.2,0.8,2.3,1.4,3.3c1.6,3.1,3.8,5.9,6.4,8.2c2.6,2.3,6,3.8,9.5,4.2c0.4,0,0.9,0.1,1.3,0.1c4.3,0,8.2-1.8,11.3-3.4
	c3-1.6,6.7-3.9,8.4-7.7c0.1-0.3,0-0.5-0.3-0.7c-0.2-0.1-0.5,0-0.6,0.2c-2.1,2.7-4.9,4.7-8.2,5.8c-3.3,1.1-6.7,1.8-10.1,2
	c-1.9,0.3-3.9,0.2-5.8-0.3c-2.2-0.9-4.2-2.4-5.6-4.4c-2.3-2.6-4-5.6-5-8.9c-0.1-0.7-0.1-1.5,0-2.2c0.5-2.2,1.6-4.2,3.2-5.8
	c1.7-2,3.7-3.7,5.8-5.2c-0.6,1.5-1,3-1.3,4.5c-0.1,0.3,0.1,0.5,0.4,0.6c0.3,0.1,0.5-0.1,0.6-0.4c0.3-1.2,1-2.3,2.1-2.9
	c1-0.7,2.3-0.9,3.5-0.6c1.2,0.4,2.2,1.2,2.7,2.4c0.6,1,0.7,2.2,0.4,3.4l-8.5,1.8c-0.1,0-0.2,0.1-0.3,0.2c-0.1,0.1-0.1,0.2-0.1,0.4
	c1.2,5.5,5.3,9.9,10.7,11.6c0.4,0.1,0.9,0.2,1.3,0.2c0.3,0,0.6,0,0.8-0.1c0.7-0.3,1.2-0.8,1.6-1.4c3.1-4.6,3.8-10.4,2-15.6
	c-1.2-3.3-3.4-6.1-6.3-8.1c1-0.2,1.9-0.3,2.9-0.4c7.4-0.3,14.6,3.9,17.1,10.1c0.1,0.3,0.4,0.4,0.7,0.3c0.2-0.1,0.4-0.4,0.3-0.6
	c-2.1-6.1-6.2-11.3-11.7-14.7c3.1,0.6,6,1.7,8.7,3.3c3.3,2,6.3,4.3,9.2,6.9c1.1,9.4-4.7,19.4-15.2,26.1c-0.2,0.1-0.3,0.5-0.2,0.7
	c0.1,0.1,0.2,0.2,0.4,0.2c7-0.7,12.1-6.4,17-12c2.2-2.7,4.6-5.1,7.3-7.3c-0.4,1.2-0.7,2.5-1,3.7c-0.3,1.7-0.9,3.4-1.6,5
	c-0.1,0.2,0,0.5,0.2,0.7c0.2,0.1,0.5,0,0.6-0.1c5-6,11.3-9,17.9-8.4l-3,2.8c-0.2,0.2-0.2,0.5,0,0.7c0.2,0.2,0.4,0.2,0.6,0.1
	c3.3-1.6,7-2,10.5-1.1l-0.8,0.7c-0.2,0.2-0.2,0.5,0,0.7c0.1,0.1,0.2,0.1,0.3,0.2c5.8,1,11.4,2.6,16.9,4.6c0.3,0.1,0.5,0,0.6-0.3
	c0.1-0.2,0-0.3-0.1-0.5C577,242.6,570.1,237.7,562.2,235.1z"/>
<path d="M395.2,294.2c0.3-0.1,0.4-0.4,0.3-0.6c-0.1-0.2-0.3-0.4-0.6-0.3c-4.5,1-8.9,2.6-13.1,4.6c1.5-1.2,2.7-2.6,3.6-4.3
	c0.1-0.2,0-0.5-0.2-0.7c-0.1-0.1-0.3-0.1-0.4,0c-7.3,2.5-13.6,7.4-17.9,13.8c-0.2,0.2-0.1,0.5,0.1,0.7c0.2,0,0.4,0.1,0.6,0l3.6-1.9
	l-2.4,3.2c-0.3,0.5-1.4,1.9-0.7,3.1c0.3,0.5,0.8,0.8,1.3,0.9c0.9-0.4,1.8-0.7,2.7-1.1c0.3-0.3,0.5-0.6,0.7-0.9
	C378.5,303.2,386.3,297.4,395.2,294.2z"/>
<path d="M510.9,282.6c-0.3-0.1-0.5,0.1-0.6,0.3s0,0.4,0.1,0.5c0.9,0.9,2.2,1.9,3.7,3.1c1.3,1.1,2.8,2.2,4.2,3.5
	c-2.8-0.9-5.6-1.6-8.5-2c-0.3,0-0.5,0.1-0.6,0.4c0,0.2,0.1,0.5,0.4,0.6c5.2,1.5,9.7,4.5,13.1,8.7l0.5,0.6c1.4,1.8,2.9,3.7,5.3,4.1
	h0.1c0.3,0,0.5-0.2,0.5-0.5c0-0.1,0-0.1,0-0.2c-0.9-2.1-2.1-4.1-3.6-5.9l1.7,1c1,0.6,1.9,0.6,2.4,0c0.5-0.6,0.4-1.4-0.4-2.3
	C524.4,288.9,518.1,284.7,510.9,282.6z"/>
<path d="M500.8,342c0.1,0.1,0.2,0.1,0.3,0.1c0.3,0,0.5-0.2,0.5-0.5c-0.1-1.7-0.9-3.3-2.1-4.5c-0.9-0.9-2-1.6-3.1-2.2
	c0.5-0.2,0.9-0.2,1.4-0.2c0.2,0,0.4-0.1,0.5-0.4c0.1-0.2,0-0.5-0.2-0.6c-1.7-1-3.5-1.8-5.4-2.3c-0.3-0.4-0.9-0.6-2.5-1.1
	c-0.3-0.1-0.5,0.1-0.6,0.3c0,0.2,0,0.3,0.1,0.5C493,335.2,496.7,338.8,500.8,342z"/>
<path d="M508.1,143.1c0.2,0.2,0.5,0.5,0.7,0.8c0.9,1.3,0.8,3,0.6,4.9c-0.2,1.8-0.4,3.6,0.5,5.2c0.1,0.1,0.2,0.2,0.3,0.2h0.1
	c0.1,0,0.2,0,0.2-0.1c4.9-2.7,10.8-3.2,16.1-1.2c0.2,0.1,0.4,0,0.5-0.1c0.1-0.1,0.2-0.3,0.1-0.5c-1.3-3.2-3.9-5.7-7.1-6.9
	c4.6-2,9.3-3.6,14.2-4.6c7.7-1.9,15.6-3.3,23.5-4.2c0.9-0.1,1.8-0.2,2.7-0.3c-1.1,3.2-2.4,6.4-3.8,9.4c-0.5,1.1-1.1,2.1-1.6,3.2
	c-1.3,2.4-2.5,4.9-3.5,7.5c-1.1,3.1-2.1,7.6-0.6,11.8c0.3,1,0.9,1.5,1.6,1.5c0.5,0,1-0.3,1.3-0.6l18.4-16.5c0.2-0.2,0.2-0.5,0-0.7
	c-0.1-0.2-0.3-0.3-0.4-0.3c-4.4,0.9-8.5,3.1-11.6,6.3c-0.9,0.9-1.8,1.7-2.6,1.5c-0.7-0.4-1.1-1.2-1-2c0.2-0.9,0.7-1.7,1.3-2.5
	l0.1-0.1c6.5-9.1,10.2-20,10.6-31.2c0.2-4.4-0.2-8.9-1-13.3c0-0.2-0.3-0.4-0.5-0.4s-0.4,0.2-0.5,0.4c-0.4,2-0.7,4-1.1,6
	c-3.8-0.3-7.6-0.1-11.3,0.4c-13.1,1.6-26.3,6.7-34.8,17.1l-0.1,0.1c-1.2,0.8-2.3,1.6-3.5,2.4c0.4-1.7,0.9-3.4,1.6-5
	c0.1-0.3,0-0.5-0.3-0.6c-0.1-0.1-0.3,0-0.4,0c-0.5,0.3-1.1,0.2-1.5-0.1c-0.2-0.2-0.5-0.2-0.7,0.1l-1.3,1.9c0.7-2.4,1.5-4.7,2.4-7
	c0.1-0.3,0.2-0.6,0.3-0.8c7-8.9,16.2-15.2,26.3-21.2c1.6-0.9,3.4-1.9,4.9-2.8c-1.4,0.6-2.8,1.2-4.3,1.9c-8.8,4.2-18,8.8-24.4,16.5
	c-0.6,0.9-1.3,1.7-1.9,2.6h-0.1c4.4-7.2,10.3-13.4,16.7-19.2c5.9-5.4,12.4-11.2,18.5-15.9c2.1-1.6,4.5-3.3,6.5-4.7
	c-1.6,0.9-3.1,1.8-4.6,2.7c-8.1,5.2-15.6,11.1-22.6,17.7c-7.6,6.7-14.3,14.8-18,24.2c-2,3.3-3.8,6.7-5.4,10.2
	c-0.7,1.6-1.3,3.5-0.5,5C507.4,142.3,507.7,142.7,508.1,143.1z M553.9,117.9c3.8-0.9,7.7-1.3,11.6-1.4c-0.5,2.4-1,4.8-1.5,7.2h-0.2
	c-11.3,0.4-22.9,0.7-33.6,4.6c-1.4,0.6-2.8,1.3-4.2,1.9C533.9,124,543.5,120.2,553.9,117.9z M515.7,137.1c0.7-0.4,1.4-0.8,2.1-1.2
	c-1.1,1.5-2,3.1-2.8,4.8C515.2,139.5,515.4,138.3,515.7,137.1z M521.5,134.2c0.1-0.1,0.3-0.2,0.4-0.4c3.5-1.8,7.1-3.3,10.9-4.5
	c10.3-2.9,20.4-3.8,30.8-5.1h0.4c-0.9,4.1-2,8.1-3.3,12c-0.9,0-1.6,0-2.3,0c-13.3,0.4-27.5,2-39.1,8.9c-0.4-0.1-0.8-0.2-1.2-0.3
	l-0.4-0.1c-0.8,0-1.6-0.3-2.2-0.8c-0.3-0.3-0.5-0.8-0.5-1.2C516.7,139.5,518.9,136.7,521.5,134.2z"/>
<path d="M367.8,135.7c-7.9-8.1-19.4-11.1-30.4-11.9c-3.4-0.3-7.5-0.4-11.1-0.3c-0.1-0.7-0.2-1.5-0.2-2.2c0-0.2-0.2-0.4-0.5-0.5
	c-0.2,0-0.5,0.1-0.5,0.4c-0.2,0.8-0.3,1.5-0.5,2.3c-1.2,0-2.4,0.1-3.5,0.2c1.1,0,2.3,0.1,3.4,0.1c-1.3,7.9,0.2,16.1,4.3,23
	c1,1.6,2.1,3.2,3.1,4.7c2.4,3.4,4.9,7,5.7,11c-4.2-3-8.8-5.4-13.7-6.9c-0.3-0.1-0.5,0.1-0.6,0.3c0,0.1,0,0.1,0,0.2
	c0.1,3.5,2.2,6.9,5.8,9.1c3.1,2,6.8,2.9,10.2,3.7c1.2,0.3,2.5,0.5,3.7,0.6c0.3,0,0.5,0,0.8,0c1.7-0.1,3.2-1,4-2.5
	c1.4-2.9-1.1-5.7-3.5-7.9c-10.7-10-16.5-24.3-17.9-35.2c4.6,0.3,9.1,0.8,13.2,1.4c15.6,2.5,29.3,8.1,34.3,23.5h-0.1
	c-6.2-7.6-22.3-9.8-30.6-11.4c-1.2-0.2-2.6-0.4-3.7-0.6c3.4,0.9,6.7,1.9,10.1,2.9c6.1,2.1,17.3,4.4,23,9c-1.9-0.1-3.7,0-5.6,0.2
	c-0.3,0-0.5,0.3-0.4,0.6c0,0.2,0.2,0.3,0.3,0.4c1.8,0.6,3.4,1.8,4.4,3.4c-0.7-0.2-1.4-0.1-2,0.2c-0.3,0.1-0.5,0.4-0.5,0.8
	c0,0.4,0.3,0.7,0.8,0.9l7.8,3.8c0.1,0,0.1,0,0.2,0c0.1,0,0.1,0,0.2,0c0.1-0.1,0.2-0.2,0.3-0.3c2.5-6.4,2.1-13.5-1-19.6
	c3.8,0,7.6,1.2,10.7,3.4c0.2,0.2,0.5,0.1,0.7-0.1c0.1-0.1,0.1-0.3,0.1-0.4c-0.1-0.2-0.1-0.6-0.2-1.1c-0.9-4.1-3.3-14.9-11.2-20.1
	c-0.2-0.2-0.5-0.1-0.7,0.1c-0.1,0.1-0.1,0.2-0.1,0.3c0.2,0.7,0.4,1.4,0.7,2c-1.1-1.2-2.2-2.4-3.4-3.6c-4.5-4-9.8-7.1-15.4-9.1
	c-5.7-3.7-11.7-6.9-17.7-10.1c-1.2-0.6-2.6-1.3-3.7-1.9c1.3,0.8,2.6,1.6,3.9,2.4c3.9,2.4,7.9,5,11.6,7.6c-4.4-1.3-9-2.3-13.4-3.2
	c-2.1-0.3-4.6-0.8-6.6-1.1c2.4,0.6,4.7,1.3,7,2c6.3,2,12.4,3.7,18.1,6.2c2.1,1.6,4.2,3.1,6,4.7c6.1,5.3,11.6,11.2,16.6,17.5
	c-2.9,0-8.8,1.7-9,1.7c-1.4-1.7-2.8-3.3-4.3-4.9c-10-10.2-23-17.8-37.3-19.4c-4.6-0.7-12-1.4-15.3-1.5c5.9,0.8,11.8,1.9,17.6,3.3
	c13,2.8,23.8,9.9,33.4,18.6c2.2,2,4.5,4.3,6.5,6.5c0.9,2.2,2.5,6.1,3.8,10.1c-0.4-0.1-0.9-0.1-1.3-0.1
	C373.3,144,371.1,139.5,367.8,135.7z M366.5,116.9c4.5,2.7,8.5,6,12,9.9c1.2,3,2.8,7.1,2.4,7.8c-0.1,0-0.3,0-0.4,0
	C376.7,128,372,122,366.5,116.9z"/>
<path d="M734.3,429.6H641c0.8-5.2,0.9-10.4,0.3-15.6c0.2,0,0.5,0,0.7,0.1l6.6,2.4c0.1,0,0.1,0,0.2,0c0.1,0,0.2,0,0.3-0.1
	c0.1-0.1,0.2-0.2,0.2-0.4c1.7-11.1,0.4-22.4-3.8-32.9l2.5,3.2c0.2,0.2,0.5,0.3,0.7,0.1c0.1-0.1,0.2-0.2,0.2-0.4
	c0.3-10.7-1.9-21.4-6.5-31c2.1,1.5,4.5,2.3,7,2.4c0.3,0,0.5-0.2,0.5-0.5c0-0.2-0.1-0.3-0.2-0.4c-6-4.9-7.7-13.2-8.8-20.6l-0.1-0.7
	c-1-6.7-2.1-13.7-5.9-19.1c1.7,1.1,3.3,2.4,4.7,3.9c0.2,0.2,0.5,0.2,0.7,0c0.1-0.1,0.2-0.3,0.2-0.4c-1.4-10.5-5.5-20.5-11.9-28.9
	c2.4-0.8,5-0.1,6.7,1.8c0.2,0.2,0.5,0.2,0.7,0.1c0.2-0.1,0.2-0.4,0.1-0.6c-2-5.2-5.4-9.9-9.8-13.4c4.1,0.9,8,2.7,11.3,5.3
	c0.2,0.2,0.5,0.1,0.7-0.1c0.1-0.2,0.1-0.4,0-0.6c-5.2-7.7-9.6-15.9-13.1-24.5v-0.3c-1.5-4.9-2.8-9.9-4-14.8
	c-1.3-5.5-2.7-11.2-4.6-16.7c-4-11.9-9.7-20.8-17.1-26.4c2.8-0.6,5.7-0.5,8.4,0.4c0.3,0.1,0.5-0.1,0.6-0.3c0.1-0.2,0-0.3-0.1-0.5
	c-3.4-3.9-8-6.5-13.2-7.3l4.1-12.3c0.1-0.3-0.1-0.5-0.3-0.6c-0.2-0.1-0.4,0-0.5,0.2c-1.6,1.9-3.7,3.4-6,4.4c-3-7.6-3.2-16-0.4-23.7
	c0.1-0.3,0-0.5-0.3-0.6h-0.3c-1.9,0.5-3.6,1.5-4.9,2.9c-0.1-0.3-0.3-0.6-0.4-0.9c0.5-25.8-0.1-53.7-9.1-79
	c-1.7-4.8-3.8-9.5-8.1-12.1c-3.6-2-7.7-2.5-11.7-1.4c-3.8,1.1-7.4,2.8-10.7,5c-17.8,11.6-31,28.9-42.5,45.8c0-0.8-0.1-1.6-0.3-2.4
	c-0.1-0.3-0.3-0.4-0.6-0.4c-0.2,0-0.3,0.2-0.4,0.3c-1.6,4.6-4.6,8.5-8.7,11.2c-0.5-1.4-0.7-3-0.5-4.5c0-0.3-0.2-0.5-0.4-0.6
	c-0.1,0-0.2,0-0.3,0.1c-2.6,1.6-4.5,4.1-5.4,7c-1.1-1.7-1.5-3.7-1.1-5.7c0.1-0.3-0.1-0.5-0.4-0.6h-0.3c-3,1.3-5.5,3.5-7.3,6.3
	c-0.7-1.5-1-3.2-0.8-4.9c0-0.2-0.1-0.4-0.2-0.5c-0.1-0.1-0.3-0.1-0.5,0c-2.2,1.1-3.9,3.2-4.5,5.6c-1.2-1.5-2.7-2.7-4.4-3.6
	c-0.2-0.1-0.5,0-0.7,0.2c0,0.1-0.1,0.2-0.1,0.2c0,2.3-1.1,4.5-3,5.9c-2,0.3-4,0.3-5.9,0.2c-0.6,0-1.2-0.1-1.8-0.1
	c-3.3-0.2-6.7-0.5-9.9,0.4c-0.5,0.1-1,0.3-1.5,0.5c-1.1,0.5-2.3,0.7-3.4,0.8c-1.5-0.1-2.9-0.5-4.3-1.2c-1.9-0.8-3.8-1.6-5.9-1.1
	c-0.7,0.2-1.5,0.6-2.1,1c-0.5,0.3-1,0.6-1.5,0.8c-1,0.4-2.1,0.4-3.1,0.1c-0.3-0.2-0.6-0.5-0.9-0.8c-0.9-1.4-0.8-3.3,0.4-4.4
	c0.2-0.2,0.2-0.5,0-0.7c-0.1-0.1-0.3-0.2-0.5-0.1c-2.6,0.8-5,2.3-6.8,4.3c-1.2-2.9-3.3-5.3-6.1-6.7c-0.2-0.1-0.4-0.1-0.5,0
	c-0.2,0.1-0.2,0.3-0.2,0.5l0.5,4.7c-3.7-0.6-6.6-3.7-6.9-7.4c0-0.3-0.2-0.5-0.5-0.5c-0.1,0-0.2,0-0.2,0.1c-1.2,0.8-2.2,1.9-2.8,3.2
	l-3.8-3.9c-0.2-0.2-0.5-0.2-0.7,0c-0.1,0.1-0.2,0.3-0.1,0.4l0.3,3.4c-2-0.2-3.9-1-5.5-2.2c-1.2-3.6-3.2-6.9-5.9-9.7
	c-1.9-1.7-4.1-3.2-6.3-4.4c-0.5-0.3-0.9-0.6-1.4-0.8c-5.5-3.5-10.8-7.4-15.8-11.6c-2.5-2-5-4.1-7.6-6c-6.8-5.1-15.9-11.2-26.7-12.9
	c-5.5-0.9-10.1-0.1-13.1,2.4c-3.8,3.1-4.8,8.2-5.4,12.7c-3.2,22.1-2.5,42.8,2.1,61.5c1,4.3,2.4,8.5,4.2,12.6c1,6.2,1,12.6-0.2,18.8
	l-6-0.6c-0.3,0-0.5,0.2-0.5,0.4c0,0.2,0.1,0.4,0.3,0.5c1.8,0.7,3.3,2,4.3,3.6l-12.8,10.9c-0.2,0.2-0.2,0.5-0.1,0.7
	c0.1,0.2,0.4,0.2,0.6,0.1c2.7-1.3,5.5-2.3,8.5-2.7c-4.8,12.9-15.7,22.5-29,25.8c-0.3,0.1-0.4,0.3-0.4,0.6c0,0.2,0.2,0.3,0.3,0.4
	c2.5,0.8,5.1,1.1,7.8,1.1h1.4c-10.1,10.4-16.6,19.8-19.5,28c-0.1,0.3,0,0.5,0.3,0.6c0.2,0.1,0.4,0,0.5-0.1c0.7-0.5,1.5-0.9,2.4-1
	c0.5-0.1,1.1-0.2,1.6-0.4c-2.4,5.9-9.7,10.1-15.7,12.7c-0.3,0.1-0.4,0.4-0.3,0.7c0,0.1,0.1,0.1,0.1,0.2c1.4,1.4,4,3.3,6,3.3l-1,1.5
	c-1.6,2.3-3.4,4.9-5.1,7.5c-0.1,5.6-3,11.2-6,16.2c-0.3,2.7-0.6,5.4-0.8,8.2c0.5-0.8,1-1.6,1.4-2.4c0,1,0,2.1,0.1,3.2
	c0,0.5,0.1,1,0.1,1.5c0.2,5.3-1.1,10.5-3.8,15.1c-0.1,0.2-0.1,0.5,0.2,0.7c0.1,0.1,0.2,0.1,0.3,0.1l4.6-0.7l-4.2,6
	c-0.2,0.2-0.1,0.5,0.1,0.7c0.1,0.1,0.3,0.1,0.4,0.1l3-0.6c-7,12-10.3,25.9-9.4,39.8c0,0.3,0.2,0.5,0.5,0.5s0.5-0.2,0.5-0.5
	c0.5-5.5,1.9-10.9,4.2-15.9c-0.5,7.7,0.5,15.4,3,22.7c-3,2.3-5.9,4.7-8.1,6.8c2.7-2.1,5.6-4,8.4-5.9c0.7,1.8,1.4,3.7,2.3,5.4
	c0.1,0.2,0.3,0.3,0.5,0.3h0.1c0.2-0.1,0.4-0.3,0.4-0.5c-0.1-2.5-0.1-4.9,0.1-7.4l3.5-2.3c-3.6,14.5-3.2,29.5,1.2,43.8
	c0.8,2.6,4,2.8,5.5,0.7c0.8-1.1,1.5-2.2,2.3-3.3c-0.3,5.3-0.2,10.5,0.9,15.7c-8.3,0-46.1-0.1-50.5-0.3c0-0.1-49.7,0.6-49.7,0.6
	c-0.8,0-1.5,0.7-1.5,1.5v22c0,0.8,0.7,1.5,1.5,1.5h111.8c0.7,1.2,1.7,2.4,2.8,3.3c4.2,3.5,8.9,4.6,13.1,5.4c6,1.1,12,1.9,18.1,2.3
	c0.3,0.4,0.6,0.7,0.9,1c1.3,1.2,3.1,1.8,4.9,1.8c0.5,0,1-0.1,1.6-0.2c1.6-0.4,3.1-1.2,4.3-2.3c6.4,0,12.7-0.3,19.1-1
	c6.5-0.7,12.8-1.7,17.9-5.9c1.5-1.3,2.8-2.8,3.8-4.5h168.1c0.2,0,0.4,0,0.5-0.1c0.9,1.2,2,2.2,3.2,3.1c5.5,4,11.8,4.7,18.3,5.1
	c3.7,0.2,7.3,0.3,10.8,0.3c2.8,0,5.6-0.1,8.3-0.2c1.3,1.1,2.8,1.8,4.5,2.1c0.4,0.1,0.8,0.1,1.2,0.1c1.9,0,3.8-0.7,5.1-2.1
	c0.3-0.3,0.6-0.7,0.9-1.1c6-0.7,12.1-1.7,18-3.2h0.1c0.3,0.3,0.5,0.6,0.8,0.8c0.9,0.7,1.9,1.1,3,1.1c0.3,0,0.7,0,1-0.1
	c1.2-0.4,2.3-1.2,3-2.2c0.9-1,1.5-2.1,1.9-3.4c0.2-0.1,0.4-0.3,0.6-0.4c0.2,0.1,0.5,0.2,0.7,0.2h116.6c0.8,0,1.5-0.7,1.5-1.5v-22
	C735.8,430.3,735.1,429.6,734.3,429.6z M504,132.8c0-0.1,0.1-0.2,0-0.3c10-19.5,24.2-36.5,41.5-49.9c4.7-3.6,10.8-7.6,16.9-6.1
	c3.6,1,6.6,3.4,8.5,6.7c1.9,3.3,3.2,6.8,4,10.5c2.2,8.6,3.9,17.4,5.2,26.3c1.1,6.7,2.2,14.7,1.7,22.4c-0.5,8.3-2.9,15.5-6.7,21.1
	c-0.5,0.7-1.1,1.5-1.6,2.2c-2.3,3-4.6,6.1-4.6,9.9c0,1.3,0.5,2.3,1.4,2.6c0.2,0,0.3,0.1,0.5,0.1c0.9,0,1.7-0.8,2.4-2.2l5.2-11.7
	c0.3-0.8,0.8-1.5,1.6-1.9c0.2-0.1,0.4-0.1,0.6,0c0.4,0.2,0.6,0.8,0.8,1.3l0.4,1.2v1.3c0.1,1.8,0.3,3.6,0.5,5.4
	c0.3,2.4,0.5,4.8,0.5,7.2c-0.2,9.7-5,18.6-13,24.1c1.4-4.8,2.3-9.7,2.7-14.7c0-0.3-0.2-0.5-0.5-0.5c-0.2,0-0.4,0.1-0.5,0.3
	c-0.9,2.3-2.1,4.3-3.7,6.2c0.1-0.4,0.1-0.8,0.2-1.2c0.3-3.2,0.3-6.4,0-9.5c0-0.7-0.1-1.5-0.1-2.2c-0.2-3.7-0.2-7.7,1.2-11.3
	c0.1-0.3,0-0.5-0.3-0.6c-0.2-0.1-0.5,0-0.6,0.2c-3.9,6.1-7.1,12.7-9.4,19.6c-0.6-4.1-2.4-7.9-5.3-10.9c-0.2-0.2-0.5-0.2-0.7,0
	c-0.1,0.1-0.1,0.2-0.1,0.3l-2.4,11.4c-1.5-3.6-3.2-7.4-6.2-10.2c-1.4-1.3-2.9-2.4-4.5-3.5c-2.6-1.8-5.1-3.5-6.4-6.1
	c-0.1-0.2-0.4-0.3-0.7-0.2c-0.1,0.1-0.2,0.1-0.2,0.2c-1.3,3.1-2.1,6.4-2.2,9.8c-2.9-4.4-4.1-9.8-3.2-15.1c0-0.3-0.1-0.5-0.4-0.6
	c-0.2,0-0.3,0-0.4,0.1c-1.3,1.2-2.5,2.5-3.5,3.9c0.4-2.6,1.1-5.1,2-7.6c0.1-0.3,0-0.5-0.3-0.6h-0.4c-2.8,1.2-5.6,2.3-8.5,3.2
	c1.5-1.8,3.4-3.3,5.4-4.4c0.2-0.1,0.3-0.3,0.3-0.6c-0.1-0.2-0.3-0.4-0.6-0.4c-6.3,0-12.5,2.1-17.5,6c1.5-2.5,2.9-5.5,2.8-8.6
	c-0.2-2.3-0.8-4.6-1.8-6.7c-0.5-1.1-0.9-2.3-1.2-3.5C501.7,141.1,502.1,136.6,504,132.8z M313.7,149.3c-3-19.6-3.3-36.5-0.9-51.6
	c1.1-7,3.4-11.1,7.1-12.6s7.8,0.1,11.5,1.7c25,10.5,43,23.5,54.7,39.1c0.3,0.9,0.7,1.7,1,2.6c0.2,0.6,0.5,1.1,0.7,1.7
	c2.6,6.9,2.7,14.4,0.3,21.4c-1.3-4-3.2-7.8-5.7-11.2c-0.2-0.2-0.5-0.3-0.7-0.1c-0.2,0.1-0.2,0.3-0.2,0.5c0.9,4.4,1.4,8.8,1.4,13.3
	c-0.1,2.8-0.6,5.6-1.6,8.2l-3.3,1.8c-2.4-1.6-5.3-2.5-8.2-2.4c-0.3,0-0.5,0.2-0.5,0.5c0,0.1,0.1,0.3,0.2,0.4
	c2.7,2.2,4.6,5.3,5.3,8.8c-3.1-2.4-6.9-3.7-10.9-3.9c-0.2,0-0.3,0.1-0.4,0.2c-0.1,0.1-0.1,0.3,0,0.5c1.6,3.5,4.5,6.2,8.1,7.7
	c-5.3,2.5-11.3,3-16.9,1.3c-0.3-0.1-0.5,0.1-0.6,0.3v0.4c0.7,1.1,1.5,2.1,2.4,3c-3.9,1.5-8.2,1.6-12.1,0.1c-0.3-0.1-0.5,0-0.6,0.3
	c-0.1,0.2,0,0.4,0.1,0.6c2.8,2.5,5.9,4.7,9.1,6.7c-6.3,1.9-12.4,4.4-18.2,7.3c-0.2,0.1-0.3,0.4-0.2,0.7c0.1,0.2,0.2,0.3,0.4,0.3
	c6,0.2,11.7,2.7,16.1,6.8c-5.9-0.2-12-0.5-17.7-2.1c-0.8-0.2-1.6-0.4-2.3-0.6c-2.7-0.9-5.5-1.4-8.3-1.5c-0.4-0.7-0.7-1.5-0.9-2.3
	c-0.4-2.3-0.5-4.7-0.3-7c0-0.7,0.1-1.3,0.1-2c0.1-3.1-0.1-6.2-0.6-9.2c0.4,0.5,0.9,1,1.3,1.5l1.7,1.7c1.2,1.1,2.3,2.3,3.3,3.6
	c1.4,1.7,2,3.9,1.6,6.1c-0.1,0.5,0.2,1.1,0.7,1.2h0.3c0.1,0,0.1,0,0.2,0c1.4-0.3,2.5-1.3,3-2.6c1-2.5,0.1-6.5-2-9.7
	c-1.6-2.2-3.5-4.2-5.6-6c-1.5-1.4-3-2.8-4.3-4.3C316.4,164.6,314.8,156.5,313.7,149.3z M277.5,420.3c-1.2-9.3-4.6-30.5-4.6-30.5
	s-5.9,15.7-7.9,18.9c-2.6-11.9-1.9-18.6,1.3-30.5c0.4-1.3,4.6-12.3,5.4-13c4.2-2.6,1.7-0.8,5.9-3.2c-1.2,5.6-1.8,11.4-1.8,17.1
	c-3.4,3.3-6.6,6.6-9.1,9.3c3-2.7,6-5.4,9.1-8.1c0,5.4,0.6,10.8,1.7,16.1c0,0.2,0.2,0.4,0.4,0.4s0.4-0.1,0.5-0.3l4.4-10.7
	c0.1,6.7,1.5,13.2,4,19.4c0,0.1,0.1,0.1,0.1,0.1c-1.7,1.5-3.2,3.2-4.5,5c-1.9,2.9-3.4,6.1-4.3,9.4
	C277.8,419.8,277.7,420.1,277.5,420.3z M316.4,345.3c0.1,0.1,0.3,0.2,0.4,0.3c0.2,0.2,0.5,0.2,0.7,0c0.1-0.2,0.2-0.4,0.1-0.6
	l-0.2-0.4c2.6-2,5.3-3.9,8.1-5.8c0.9-0.3,1.8-0.6,2.6-1c-0.4,1.5-0.7,3-0.8,4.5c0,0.3,0.2,0.5,0.5,0.5c0.2,0,0.3-0.1,0.4-0.2
	c2.5-3.3,5.8-5.9,9.6-7.7c-2.4,5.1-3,10.8-1.9,16.3c0.4,1.4,0.5,2.8,0.2,4.2c-10.6,8.5-20.5,17.8-29.7,27.8
	c-5.3,5.9-10.3,12-15.1,18.2c-1.2,0.8-2.4,1.6-3.5,2.5c2.2-7.9,5.3-15.8,9.4-23.2c0.1-0.2,0-0.5-0.2-0.7c-0.2-0.1-0.4-0.1-0.6,0.1
	l-4.8,4.6l0.1-9.1c0.1-1-0.1-2.1-0.6-3c-0.5-0.7-1.2-1.2-2-1.4c-1.2-0.2-2.4,0-3.4,0.6c-1.1,0.8-2,1.9-2.6,3.2
	c-0.1-0.5-0.2-1-0.3-1.5c1.5-1.3,2.9-2.6,4.4-3.9C296.8,361,306.3,352.9,316.4,345.3z M316.2,342.6l3.6-1.5c-1,0.8-2.1,1.5-3.1,2.3
	C316.5,343.1,316.4,342.8,316.2,342.6z M341.8,353.2c2.6-2,5.3-3.8,8-5.7c-0.6,2.8-0.3,5.8,1.1,8.3c0.1,0.2,0.3,0.3,0.5,0.3
	s0.4-0.2,0.4-0.3l0.3-1c0.2,2.6,0.6,5.3,1.2,7.8c-8.8,9-16.9,18.7-24.7,28.6c-7.5-0.2-14.9,1.6-21.4,3.3c-3.5,0.9-6.9,2.3-10,4.1
	c-0.9,0.4-1.8,0.7-2.6,1.2c4.1-5.2,8.3-10.2,12.9-15.2C318,373.2,329.5,362.7,341.8,353.2z M353.7,364.5c0.5,1.7,1,3.3,1.7,5
	c0.1,0.3,0.4,0.4,0.7,0.3c0.2-0.1,0.3-0.3,0.3-0.5v-3.1c2,3.2,4.4,6.2,7.1,9c-3.7,7.8-6.9,15.8-9.3,24.1c-0.9-0.2-1.8-0.3-2.6-0.6
	c-2.3-0.9-4.6-1.9-6.8-3.1c-3.6-2.1-7.5-3.4-11.6-4c-0.9-0.1-1.9-0.2-2.8-0.3C337.8,382.1,345.5,373,353.7,364.5z M284.5,370.4
	c-0.6,0.5-1.2,1.1-1.8,1.7c-0.5-4.6-0.2-9.3,1-13.8c9.9-5.5,20.1-10.4,30.5-14.8c0.4,0.2,0.8,0.6,1.1,0.9
	C304.6,352.5,294.4,361.3,284.5,370.4z M371.6,444.3c1.4-6.6,0.3-13.5-2.9-19.4c-0.1-0.2-0.4-0.3-0.7-0.2c-0.2,0.1-0.3,0.3-0.3,0.5
	c0.7,5.2,1,10.5,0.7,15.7c-0.1,1.4-0.3,2.8-0.4,4.1c-0.3,0.9-0.7,1.8-1.1,2.6c-2.2,2.1-5.6,5.1-6.6,5.1c-0.9-0.2-1.8-0.7-2.5-1.4
	c-1.3-1-2.6-2-3.7-1.5c-1.1,0.6-2,1.5-2.6,2.6c-0.5,0.9-1.1,1.6-1.9,2.2c-1.3,0.7-2.9-0.2-3.8-1.3c-1.2-1.6-2.1-3.4-2.7-5.3
	c-2.7-8-4.1-16.4-4-24.9c0.2-0.6-0.2-1.2-0.8-1.3c-0.5-0.1-1,0.3-1.1,0.8c-2.3,8.1-2.5,16.7-0.5,24.9c0.1,0.4,0.2,0.9,0.4,1.4
	c0.7,2.8,1.5,5.7,0.9,8.3c-0.5,1.9-1.8,3.6-3.5,4.6c-4.7,2.9-10.9,1.4-15-3.6c-1.6-2.2-2.7-4.7-3.2-7.4c-0.1-1.2-1.1-2.1-2.3-2.1
	c-1.2,0.2-2.1,1.3-2,2.5c-0.1,1.8-0.2,3.7-0.1,5.5v0.1c0.1,1.6,0.2,3.4-0.5,4.5c-0.6,0.9-1.6,1.3-2.6,1c-4.9-0.6-8.7-7.1-10-13.3
	c-0.9-4.9-1.1-9.9-0.6-14.9c0.2-0.9-0.4-1.7-1.2-2c-0.7-0.1-1.4,0.4-1.5,1.1c-1.3,4.3-1.1,8.5-1,12.5c0.2,2.9,0.2,5.8-0.2,8.6
	c-0.1,0.8-0.3,1.6-0.6,2.4c-0.5,0.9-1.5,1.4-2.5,1.1c-1.1-0.5-2.1-1.2-2.8-2.1c-6.6-7.2-9.9-20-8-30.9c1.9-5.7,5-11,9.1-15.4
	c1.5-1.7,5.1-3.9,8.2-5.8c1-0.6,1.8-1.1,2.6-1.6c3.4-1.5,7-2.7,10.6-3.6c4.5-1.2,9.1-1.9,13.7-2.3c-3.2,4.1-6.4,8.2-9.5,12.3
	c-4.3,5.8-10.4,14.5-13.2,19.1c5.2-6.6,10.4-13.1,15.6-19.7c3.1-3.9,6.1-7.8,9.2-11.7c4-0.2,8,0.3,11.8,1.4c2.5,0.8,5.9,2.1,7.6,5.2
	c0.1,0.1,0.1,0.3,0.2,0.4c0.3,0.7,0.7,1.3,1.3,1.7c1.2,0.8,2.6,0.1,3.7-0.4l0.2-0.1c0.4-0.2,0.9-0.4,1.4-0.5
	c-1.7,5.9-3.2,11.9-4.6,17.9c-0.7,3.1-1.6,7-2.4,10.9l1,0.1c1.4-5.8,2.9-11.6,4.3-17.4c1-3.9,2-7.9,3.2-11.7
	c4.5-0.4,9.1,2.5,12.8,5.4c5.7,4.3,9.5,10.6,10.6,17.7C378.7,433.7,376.2,440.7,371.6,444.3z M455.2,429.4c0.1-4.8,1.9-9.6,5-13.6
	c0.8,5.1,3.5,9.7,7.6,12.8c0.2,0.2,0.5,0.1,0.7-0.1c0.1-0.2,0.1-0.4,0-0.6c-2.1-3.3-2.8-7.3-1.9-11.1c1.3,2.7,2.9,5.2,4.8,7.5
	c0.2,0.2,0.5,0.2,0.7,0.1c0.2-0.1,0.2-0.4,0.1-0.6c-1.5-3.5-1.6-7.4-0.1-10.9c2.5,5.1,7.4,8.4,11.3,10.3c2.7,1.3,5.4,2.4,8.2,3.3
	c2.3,0.8,4.7,1.7,6.9,2.7c0.2,0.1,0.3,0.2,0.5,0.2H455.2z M516.1,429.9c-1.4-1.9-2.9-3.7-4.5-5.5c-0.5-0.6-1.1-1.2-1.6-1.7
	c-2-2.1-3.8-4.3-5.4-6.6c-2.2-3.4-3.1-7-2.5-10.1c0-0.3-0.1-0.5-0.4-0.6c-0.2,0-0.4,0-0.5,0.2c-2.9,4.5-3.3,10.2-1.1,15.1
	c-9.8-1.4-17.9-8.4-20.8-17.8c-0.1-0.2-0.3-0.4-0.6-0.4c-0.3,0.1-0.4,0.3-0.4,0.5l0.8,7.9c-2.8-2.8-5.2-5.9-7-9.4
	c-0.1-0.2-0.3-0.3-0.4-0.3c-0.2,0-0.4,0.1-0.4,0.3l-4.8,9c-0.6-3.8-3.7-7.6-9.2-11.3c-0.2-0.2-0.5-0.1-0.7,0.1s-0.1,0.5,0.1,0.7
	c2.3,1.8,3.1,4.9,3.3,7.2c0.1,0.7,0.1,1.4,0.1,2.1c-0.4,1.1-1.1,2.1-2,2.8c-2,1.7-4.6,2.5-7.2,3.3c-0.4,0.1-0.8,0.3-1.2,0.4
	c-2.5,0.7-4.8,1.9-6.7,3.6l1.4-6.6c0.1-0.3-0.1-0.5-0.4-0.6c-0.2,0-0.4,0-0.5,0.2l-7.7,8.6c1.2-4.1,0.3-8.5-2.4-11.8
	c-0.2-0.2-0.5-0.2-0.7-0.1c-0.1,0.1-0.2,0.2-0.2,0.4c0.3,9.6-6.1,18.1-15.4,20.4h-35.7c1-10.1-2.3-18.3-9.7-23.9
	c-8.2-6.2-12.5-6.5-16-6.6h-0.1c2.4-7.9,5.4-15.6,9-23c7.7,7.4,17.3,12.3,27.8,14.3c0.1,0.3,0.2,0.6,0.3,0.8
	c2.5,6.1,6,12.8,12.1,16.9c0.1,0.1,0.2,0.1,0.3,0.1c0.3,0,0.5-0.2,0.5-0.5c0-0.1,0-0.2-0.1-0.3c-2.3-3.7-1.9-8.5,0.9-11.9
	c-0.5,2.2-0.4,4.4,0.4,6.5c0.1,0.3,0.4,0.4,0.6,0.3c0.1,0,0.1-0.1,0.2-0.1c5.6-5.3,13.8-6.7,22.4-7.6c-0.7,0.6-1.5,1.2-2.3,1.6
	c-0.2,0.1-0.3,0.4-0.2,0.7c0.1,0.2,0.3,0.3,0.5,0.3c10.5-1,22.4-2.1,32.2-7.7c2.9,0.5,5.8,1.4,8.5,2.6c0,0,0,0,0.1,0.1
	c2.2,1.6,4.7,2.8,7.3,3.5c8.5,2.5,17.5,2.7,26.1,0.6c0.3-0.1,0.4-0.3,0.4-0.6c0-0.1-0.1-0.2-0.1-0.2l-2.1-2.2
	c1.9-0.6,3.7-1.4,5.5-2.1c4.3-1.8,8.4-3.4,13-3.4h0.1c7.5,0,14.2,2.2,19.1,6.1c0.2,0.2,0.5,0.1,0.7-0.1s0.2-0.5,0-0.7l-9.2-9.2
	c5.6,0.5,10.6,1.3,15.2,4.5c0.2,0.1,0.4,0.1,0.6,0c2.2,1.8,4.7,3.3,7.4,4.4c-1.8,0.8-3.8,1.2-5.8,1c-0.2,0-0.4,0.1-0.5,0.3
	s0,0.4,0.2,0.6c0.8,0.6,1.6,1.1,2.4,1.6c-0.4,0.2-0.8,0.4-1.2,0.5c-1.3,0.5-2.7,0.8-4.1,0.8c-3.5,0.3-7.8,0.8-15.6,7.4
	c-7.2,6.1-9.9,14.6-8,24.6H516.1z M497.4,373.7c-6.4,2.3-13,4-19.8,5.1c-3.2-1.2-6.3-2.9-9.1-4.9c-0.2-0.2-0.5-0.1-0.7,0.1
	c-0.1,0.1-0.1,0.3-0.1,0.4c0.8,2.2,2.2,4.1,4.1,5.4c-2.2-0.5-4.3-1.5-6-3c-0.2-0.2-0.5-0.2-0.7,0.1c-0.1,0.1-0.1,0.2-0.1,0.3
	c0.1,1.5,0.2,3,0.4,4.5c-5.3-1.2-10.3-3.6-14.7-6.9c-0.2-0.2-0.5-0.1-0.7,0.1c-0.1,0.1-0.1,0.2-0.1,0.3c0,1.4,0.3,3,0.9,4.4
	c-3.6-0.8-6.8-2.9-9.1-5.8c-0.1-0.2-0.3-0.2-0.5-0.2s-0.3,0.2-0.4,0.4l-0.5,2.4c-0.9-0.7-1.8-1.3-2.8-1.9c-1.7-1-3.6-2.2-3.9-3.3
	c-0.1-0.2-0.2-0.3-0.5-0.3c-0.2,0-0.4,0.1-0.5,0.3c-1.5,3.4-14,10.6-19.7,11.6c1.6-1.9,2.9-4,3.8-6.3c0.1-0.3,0-0.5-0.3-0.6
	c-0.1-0.1-0.3,0-0.4,0c-0.1,0-8.4,4.9-13.8,4.3c-0.2-1.7,0.5-6.5,1.8-11.8c2.6-5.9,9-14,15.8-16.5c0.2-0.1,0.3-0.2,0.3-0.4
	c1.6-6.6,5.4-12.5,10.8-16.7c1.3-1,2.7-2,4.1-2.9c2.8-1.8,5.8-3.8,7.9-6.5c0.5-0.7,1-1.4,1.4-2.2c0.3,0.7,0.7,1.3,1.1,2
	c2.6,3.8,6.6,6.2,9.9,7.9c1.1,0.6,2.2,1.1,3.4,1.7c2.6,1.2,5.2,2.6,7.6,4.2c1.3,0.9,2.5,1.9,3.7,2.9c1.4,1.1,2.8,2.2,4.2,3.2
	c1.2,0.8,2.4,1.5,3.7,2.1c0.8,1.7,1.5,3.3,2.3,4.9c0.1,0.1,0.2,0.2,0.4,0.3c5.4,0.9,9.7,4.4,12.3,7c3,3.2,5.6,6.8,7.9,10.6
	c-2.1-0.6-4.2-1-6.4-1.1c-0.3,0-0.5,0.2-0.5,0.5c0,0.1,0,0.1,0,0.2C494.4,371.4,495.7,372.9,497.4,373.7z M544,334.4
	c-1.6,2-3.4,3.9-5.3,5.7c-0.2-0.1-0.3-0.2-0.5-0.3c-1.3-1-2.6-1.9-3.9-2.8L544,334.4z M533.6,336.1c-0.1,0-0.1,0.1-0.2,0.2
	c-6.2-4.4-12.6-8.6-19.2-12.5l-1.5-0.9c1.7,0.3,3.4,0.6,5.1,1l1.2,0.7c0.1,0,0.2,0.1,0.3,0.1s0.2,0,0.3-0.1c0.1-0.1,0.2-0.2,0.2-0.3
	c5.5,1.2,11,2.8,16.4,4.4c2,0.6,3.9,1.2,5.9,1.9C539.4,332.6,536.5,334.4,533.6,336.1z M543.7,345.5c13,9.6,25.3,19.8,37.5,30.7
	c-6.3,0.8-12.7,0.5-18.8-1c-0.3-0.1-0.5,0.1-0.6,0.4c0,0.2,0,0.4,0.2,0.5l6.3,4.7c-1.1,0-2.2-0.1-3.3-0.2
	c-7.5-9.9-15.8-19.2-24.8-27.7c-1.6-1.5-3.2-2.9-4.8-4.4C538.2,347.6,541,346.6,543.7,345.5z M617,381.3l3.3,2.7
	c-3.4,0-6.9,0.5-10.2,1.4c-0.3,0.1-0.4,0.3-0.4,0.6c0,0.1,0.1,0.2,0.2,0.3l6.1,3.4h-5.6c-0.3,0-0.5,0.2-0.5,0.5
	c0,0.2,0.1,0.3,0.2,0.4c2.2,1.6,4.1,3.5,5.6,5.8l-8.5-0.2c-1.6-0.8-3.3-1.5-5-2.1c-3.3-1.6-6.7-2.8-10.3-3.6
	c-5.8-1.4-11.6-2.2-17.6-2.4l-3.1-1.5l5.8-1.4c0.3-0.1,0.4-0.3,0.4-0.6c0-0.1-0.1-0.2-0.1-0.2l-1.9-2c3.3-0.6,6.5-1.5,9.7-2.6
	c0.1,0.1,0.2,0.1,0.2,0.2c4,3.6,8,7.3,11.9,11c-3.6-4-7.3-7.9-11.1-11.6c5.6-2.1,10.6-5,13.8-8.1c0.2-0.2,0.2-0.5,0-0.7
	s-0.4-0.2-0.6-0.1c-5.2,2.8-10.8,4.7-16.7,5.6c-11.9-11.1-24.4-21.5-37.5-31.1c5-2.1,9.9-4.5,14.6-7.3c3.8,1.7,7.5,3.5,11.2,5.4
	c16.7,11.2,32.4,23.8,47.1,37.5c-0.3-0.1-0.4-0.1-0.6-0.2c-0.2,0-0.4,0.1-0.5,0.3C616.8,380.9,616.9,381.1,617,381.3z M539.2,353.8
	c8.7,8.3,16.7,17.1,24,26.6c-10.8-1.2-21.1-5.6-30.6-9.9c-2.7-3.6-6.1-6.6-10-8.8c2.9-0.6,5.8-0.8,8.7-0.6c0.2,0,0.5-0.1,0.5-0.4
	c0.1-0.2-0.1-0.5-0.3-0.6l-13.2-6.1c4.9-0.6,9.6-2.1,13.9-4.5c0.5-0.2,1-0.3,1.6-0.5C535.6,350.6,537.4,352.2,539.2,353.8z
	 M615.8,449.2c-0.4-1.3-1.1-2.4-2.2-3.1c-0.2-0.2-0.5-0.1-0.7,0.1c0,0-0.1,0.1-0.1,0.2c-0.5,2.2-1.3,4.3-2.5,6.2
	c-0.1,0.1-0.1,0.1-0.2,0.2c-0.3-0.2-0.6-0.5-0.8-0.8c-0.4-0.7-0.6-1.5-0.8-2.4c-0.5-2.8-0.8-5.7-0.7-8.6c-0.1-4-0.1-8.2-1.7-12.5
	c-0.2-0.7-0.9-1.1-1.6-1c-0.8,0.3-1.3,1.2-1.1,2.1c0.8,4.9,0.9,9.9,0.3,14.9c-0.9,6.2-4.3,12.9-9.2,13.7c-1,0.3-2.1-0.1-2.7-0.9
	c-0.8-1.1-0.8-2.9-0.8-4.5v-0.1c0-1.8-0.2-3.7-0.4-5.5c-0.2-1.7-1.3-2.4-2.2-2.4s-1.9,0.7-2.2,2.2c-0.4,2.7-1.3,5.2-2.7,7.5
	c-3.8,5.2-9.8,7-14.8,4.3c-1.8-0.9-3.2-2.5-3.8-4.4c-0.7-2.5-0.1-5.4,0.5-8.3c0.1-0.5,0.2-0.9,0.3-1.4c1.5-8.3,0.8-16.9-2-24.9
	c-0.1-0.5-0.6-0.8-1.2-0.7c-0.6,0.2-1,0.8-0.9,1.4c0.7,8.4-0.2,16.9-2.4,25c-0.4,1.9-1.2,3.8-2.3,5.4c-0.8,1.1-2.3,2.1-3.7,1.5
	c-0.8-0.5-1.5-1.2-2.1-2.1c-0.7-1.1-1.6-1.9-2.7-2.5c-1.2-0.4-2.5,0.6-3.7,1.7c-0.9,0.7-1.7,1.5-2.4,1.5c-1,0-4.6-2.8-6.9-4.8
	c-0.4-0.8-0.9-1.7-1.2-2.6c-0.3-1.3-0.5-2.7-0.7-4.1c-0.6-5.2-0.7-10.5-0.3-15.7c0-0.3-0.2-0.5-0.5-0.5c-0.2,0-0.4,0.1-0.5,0.3
	c-2.8,6.1-3.4,13-1.7,19.5c-4.8-3.4-7.8-10.3-7.3-17.3c0.7-7.1,4.1-13.6,9.5-18.2c4.4-3.7,10.1-7.6,15.6-5.3l0.2,0.1
	c1.1,0.5,2.5,1.1,3.7,0.2c0.5-0.5,1-1.1,1.2-1.8c0.1-0.1,0.1-0.3,0.2-0.4c1.5-3.2,4.9-4.7,7.3-5.6c3.6-1.3,7.4-1.9,11.3-2
	c3.9,5.7,7.7,11.7,11.3,17.4c3.1,4.9,6,10,8.5,15.3c-2.1-5.3-4.6-10.5-7.5-15.5c-3.4-5.9-6.9-11.6-10.7-17.2c5,0.1,9.9,0.7,14.8,1.7
	c3.7,0.7,7.4,1.8,10.9,3.1c0.8,0.4,1.7,0.9,2.7,1.5c3.3,1.7,7,3.7,8.6,5.4c4.3,4.2,7.7,9.3,10,14.9
	C623.2,429.6,621.1,441.6,615.8,449.2z M634.8,408.9c-0.2,0-0.3,0.1-0.4,0.2c-0.1,0.1-0.1,0.3-0.1,0.4c1.1,6.5,1,13-0.1,19.5h-8.8
	c-0.2-6.9-1.8-13.7-4.7-20c-0.5-3.6-1.6-7.1-3.3-10.3l11.1,5c0.3,0.1,0.5,0,0.7-0.2c0.1-0.2,0.1-0.3,0-0.5l-8.8-13.2l9.8,2.2h0.1
	c4.3,4.1,8.2,8.6,11.6,13.4c-3.3-5.5-7.3-10.5-11.7-15.1c-2.2-3.9-5.5-7.1-9.4-9.3c-12.1-11.6-25-22.3-38.5-32.3
	c5,2.9,10,6,14.9,9.3c6.4,4,12.7,8.1,19,12.3c-5.4-4.3-11-8.4-16.7-12.3c-9.1-6.3-18.6-12-28.5-17.1c-2.9-1.9-5.8-3.8-8.8-5.6
	c1.9-1.2,3.8-2.5,5.7-3.8c0.2-0.2,0.3-0.5,0.1-0.7c-0.1-0.2-0.4-0.3-0.6-0.2c-2.8,1.3-6,1.6-9,0.9c6-2.5,12.6-3,18.8-1.4
	c0.3,0.1,0.5-0.1,0.6-0.4v-0.3c-0.1-0.3-0.2-0.7-0.4-1c12.4,5.7,24.6,12.2,37,18.9c7,3.7,14.4,7.6,21.3,11.2
	c-6.1-3.8-12.2-7.5-18.4-11.1c-14.6-8.1-27.8-15.2-40.7-21c-2.2-5.2-5.6-9.9-9.9-13.7c4.1-1.3,8.5-1.7,12.8-1.2
	c0.3,0,0.5-0.2,0.6-0.4c0-0.1,0-0.3-0.1-0.4l-6.5-8.2c4-1.8,8.4-2.4,12.7-1.8c0.2,0,0.4-0.1,0.5-0.2c0.1-0.2,0.1-0.4,0-0.5
	c-1.7-3.1-3.9-5.8-6.5-8.1c2.5-4.6,7.2-7.7,12.4-8c0.3,0,0.5-0.2,0.5-0.5c0-0.1-0.1-0.3-0.2-0.3c-2.1-2-4.7-3.4-7.4-4.3
	c2.7-5.3,4-11.3,3.7-17.2c0-0.3-0.2-0.5-0.5-0.5s-0.5,0.2-0.5,0.5c0.1,2.6-1,5.3-3.4,8.2l-6.8,8.1c-0.2,0.2-0.1,0.5,0.1,0.7
	c0.1,0.1,0.1,0.1,0.2,0.1l3.2,0.6c-5.5,8.4-13.9,14.4-23.5,17c-0.3,0.1-0.4,0.3-0.4,0.6c0.1,0.2,0.2,0.3,0.4,0.4l5,0.6
	c-6.9,5.9-16.3,8-25,5.5c-0.3-0.1-0.5,0.1-0.6,0.3c-0.1,0.2,0,0.5,0.3,0.6l13.9,6.6l-5.5,1.4c-0.3,0.1-0.4,0.3-0.4,0.6
	c0,0,0,0,0,0.1c0.3,0.7,0.6,1.3,0.9,2c-19.2-6-39.6-9.5-64.5-10.4c16.3,2.2,32.2,3.7,48.4,7.5c5.8,1.3,11.5,2.9,17.1,4.7
	c1.1,1.8,2.4,3.4,3.9,4.8c-1.6,1.6-3.3,3.2-5.1,4.6c-13.9-7.2-31-15.1-46.8-13.9c5.6-0.2,11.1,1.4,16.5,2.9
	c8.2,2.4,16.1,5.6,23.8,9.4c1.8,0.9,3.5,1.8,5.3,2.7c-0.7,0.5-1.4,1.1-2.1,1.6c-2-0.7-4.1-1.4-6.1-2c-5.9-1.9-11.9-3.5-18-4.7
	c-0.6-1.2-1.5-2.2-2.7-2.8c0.7-0.2,1.4-0.4,2-0.7c0.3-0.1,0.4-0.4,0.2-0.7c-0.1-0.2-0.2-0.3-0.4-0.3c-2.7-0.4-5.4-0.6-8.1-0.4
	c-0.3,0-0.5,0.3-0.5,0.5c0,0.1,0.1,0.3,0.2,0.4c1.5,1.2,3,2.2,4.6,3.2c-1.5-0.2-3-0.4-4.6-0.5c-3.7-2.1-7.6-4-11.6-5.6h1.4
	c0.3,0,0.5-0.2,0.5-0.5c0-0.2-0.2-0.4-0.4-0.5l-7.3-2l4.7-1.7c0.3-0.1,0.4-0.4,0.3-0.6c-0.1-0.2-0.2-0.3-0.4-0.3
	c-4.3-0.5-8.6-0.1-12.7,1.2l2-1.8c0.2-0.2,0.2-0.5,0-0.7s-0.4-0.2-0.6-0.1l-6.9,3.8c-0.2,0.1-0.3,0.4-0.2,0.7
	c0.1,0.1,0.2,0.2,0.3,0.2c5.6,1.2,11.2,1.9,16.9,2.3c3.6,1.6,7.1,3.5,10.7,5.4c-4.1-0.2-8.1,0-12.2,0.5c4.7-0.2,9.4-0.1,14.1,0.5
	c7.5,4.3,14.7,8.8,21.8,13.7c2.4,1.6,4.7,3.3,7,5c-1.8,1.6-3.7,3.1-5.7,4.4c-5.5-4.8-11.5-9.2-17.9-12.9c0,0,0.1,0,0.1-0.1
	c0.1-0.2,0.1-0.4,0-0.6c-1.1-1.4-2.6-2.5-4.3-3.2c-0.8-0.3-1.6-0.5-2.4-0.7c0.9-0.2,1.8-0.5,2.6-0.9c0.3-0.1,0.4-0.4,0.3-0.7
	c-0.1-0.2-0.2-0.3-0.4-0.3l-7.7-0.6h-0.3c-1.2-0.2-2.4-0.1-3.7,0c-0.3,0-0.5,0.3-0.4,0.6c0,0.2,0.2,0.4,0.4,0.4
	c2.7,0.6,4.9,2.2,7.2,4c2.2,1.7,4.4,3.4,7.1,4.1h0.1c0.3,0,0.5-0.2,0.5-0.5c0-0.1-0.1-0.3-0.1-0.4c-0.8-0.8-1.7-1.5-2.7-2.1
	c0.3,0.1,0.7,0.2,1,0.2c6.8,4.2,13.2,9,19.3,14.3c-0.1,0-0.1,0.1-0.2,0.1l-9.1,1.6c-4.5,0.8-9.7,1.7-14.4,0.6
	c-0.3-0.1-0.5,0.1-0.6,0.4v0.3c0.6,1.4,1.7,2.5,3.2,3.1c-6.1,0.7-12.3-0.3-17.8-2.9c-1-1.1-2.1-2.1-3.4-2.9
	c-1.4-0.8-2.7-1.6-4.2-2.2c-3.8-1.6-7.1-4-9.8-7.1c-3.7-4.1-8.3-7.2-13.5-9.1l-1.1-0.5c-3.4-1.6-7-3.4-9.7-6.2
	c-1.3-1.3-2.3-2.9-3.1-4.5c0.2-0.8,0.4-1.6,0.7-2.4c0.4-1.2,1.2-2.2,2.2-3c0.4-0.2,0.7-0.4,1.1-0.6c0.9-0.4,1.8-0.9,2.5-1.6
	c1.3-1.4,1.8-3.4,1.4-6.2c-0.3-2.2-0.9-4.4-1.8-6.5c0,0,0,0,0,0c-0.2-0.6-0.8-0.9-1.3-0.9c-0.2,0-0.4,0-0.7,0.1
	c-0.7,0.3-1.1,1-0.9,1.8c0.6,1.8,0.9,3.7,0.8,5.7c0,1.6-0.8,3.1-2.1,4.1c-0.3,0.2-0.6,0.3-1,0.2c-0.1-0.2-0.2-0.5-0.2-0.7l-0.8-5.4
	c-0.1-0.8-0.9-1.4-1.7-1.3c-0.6,0.1-1,0.5-1.2,1c-0.7,2.1-1.1,4.2-1.3,6.4c-1.9-0.5-3.4-2.1-3.8-4c-0.4-2.2,0.6-4.6,1.4-6.6
	c0.3-0.7,0-1.5-0.6-1.8c-0.2-0.1-0.5-0.2-0.7-0.2c1-0.9,1.4-2.2,1.1-3.5c-0.3-1.1-0.8-2.2-1.6-3c-0.6-0.8-1.4-1.4-2.3-1.8
	c-1.1-0.5-2.4-0.3-3.3,0.5c-0.3,0.2-0.5,0.5-0.7,0.8c-0.1,0.1-0.2,0.3-0.3,0.4c-0.8,0.6-1.8,0.6-2.6-0.1c-0.9-0.9-1.3-2-1.4-3.2
	c-0.3-3.7,1.5-7.3,4.6-9.4c2.5-1.4,5.5-2,8.3-1.6c0.5,0.1,1-0.3,1.1-0.9c0.1-0.4-0.2-0.8-0.5-1c-1.3-0.6-2.7-1-4.2-1
	c0.4-2.5,1.3-4.9,2.7-7.1c0.1-0.2,0.1-0.5-0.2-0.7c-0.2-0.1-0.3-0.1-0.5,0c-1.5,0.9-2.8,1.6-4.1,2.3c-0.9,0.5-1.7,0.9-2.7,1.4
	c2.9-6,2.8-13-0.1-18.9c-0.1-0.2-0.4-0.3-0.7-0.2c-0.2,0.1-0.3,0.3-0.3,0.5c0.1,2.4-0.2,4.7-0.8,7c-0.8-7.3-4.8-16.5-8.3-21.3
	c2.4,1.5,4.6,3.3,6.5,5.5c0.2,0.2,0.5,0.3,0.7,0.1c0.2-0.1,0.2-0.4,0.2-0.6c-0.2-0.4-0.4-0.9-0.6-1.4c-0.9-2.4-2.1-5.3-4.3-7.1
	c-5.3-4.2-11-9.5-13.1-16.9c-0.1-0.3-0.4-0.4-0.6-0.3c-0.1,0-0.3,0.1-0.3,0.3c-0.6,1.4-0.9,2.9-0.7,4.4c-3.8-3.3-8.7-5.1-13.8-5
	c-0.3,0-0.5,0.2-0.5,0.5c0,0.2,0.1,0.4,0.3,0.5c2.1,0.8,4.1,2,5.9,3.4c-3.2-0.5-6.5-0.2-9.6,1c-0.3,0.1-0.4,0.4-0.3,0.6
	c0.1,0.1,0.2,0.3,0.3,0.3c2.5,0.8,4.8,1.9,6.9,3.4c-2.3-0.3-4.7-0.2-7,0.4c-0.3,0.1-0.4,0.3-0.3,0.6c0,0.2,0.2,0.3,0.4,0.4
	c3.7,0.9,7.1,2.9,9.6,5.7l0.4,0.4c-0.2-0.1-0.3-0.2-0.5-0.3c-5.6-3.4-12.1-5.3-18.7-5.5c-1.3,0-2.6,0.1-3.9,0.2
	c-4,0.1-8,0.7-11.9,1.7l-0.9,0.2c-6.5,1.5-13.3,3.1-19.5,1.2c-0.3-0.1-0.5,0.1-0.6,0.3c-0.1,0.2,0,0.4,0.2,0.5c2,1.5,4.2,2.9,6.5,4
	l-8.6,1c-2.5,0.2-5.1,0.6-7.5,1.3c-5.9,1.7-11.3,6.1-15.2,12.2c-0.1,0.2-0.1,0.5,0.1,0.7c0.2,0.1,0.4,0.1,0.6,0
	c7.1-5.5,15.7-8.4,24.6-8.5l-6.7,3.5c-0.5,0.2-1,0.5-1.4,0.7c-0.2,0.2-0.3,0.5-0.1,0.7c0.1,0.2,0.4,0.3,0.6,0.2l1.3-0.7
	c2.8-1.1,6-1.1,8.8,0c3.3,1.1,6.3,3.3,9.2,5.5c3.9,3,7.8,6.1,11.5,9.3c0.2,0.2,0.5,0.2,0.7,0s0.2-0.5,0-0.7l-0.7-0.8
	c-1.7-1.7-3.2-3.5-4.5-5.5c-1.6-3.1-2.5-9-1.2-13c1.2-4,4.9-7.4,9.7-9.1c0.8-0.3,1.6-0.5,2.5-0.7c-5.3,4.5-8.7,10.8-9.5,17.7
	c0,0.3,0.2,0.5,0.4,0.6c0.3,0,0.5-0.1,0.6-0.4c1.3-6.6,7.5-12.2,14.9-13.4c1-0.2,2-0.2,3-0.3c-2.5,2.5-4.1,5.7-4.6,9.2
	c-0.7,5.5,1.2,11,5.2,14.8c0.5,0.6,1.1,0.9,1.9,1.1h0.3c0.6,0,1.2-0.2,1.8-0.5c4.9-2.7,8-7.9,8.1-13.6c0-0.1-0.1-0.3-0.1-0.4
	c-0.1-0.1-0.2-0.2-0.4-0.1l-8.8,0.1c-0.5-1-0.6-2.2-0.3-3.4c0.7-2.4,3.3-3.8,5.7-3.1c1.3,0.4,2.3,1.3,2.9,2.5
	c0.1,0.3,0.4,0.4,0.7,0.3c0.2-0.1,0.4-0.4,0.3-0.6c-0.6-1.5-1.3-2.9-2.2-4.2c2.4,1,4.7,2.3,6.9,3.8c1.9,1.2,3.4,3,4.4,5
	c0.3,0.7,0.4,1.4,0.5,2.2c-0.3,3.4-1.4,6.7-3.1,9.7c-1,2.2-2.6,4.1-4.7,5.5c-1.8,0.9-3.7,1.4-5.6,1.5c-3.5,0.5-7,0.5-10.4,0.1
	c-3.4-0.4-6.7-1.8-9.3-4c-0.2-0.2-0.5-0.2-0.7,0c-0.2,0.2-0.2,0.4,0,0.6c2.5,3.3,6.6,4.8,9.9,5.8c2.7,0.8,5.5,1.3,8.3,1.4
	c1.6,0,3.2-0.2,4.8-0.7c3.4-1.1,6.4-3.2,8.5-6.1c2.1-2.8,3.7-6,4.7-9.3c0.4-1.2,0.6-2.3,0.7-3.6c0,0,0.1,0,0.1-0.1
	c0.5-0.1,1,0.5,1.2,1c0.1,0.7,0.1,1.4-0.2,2.1c-0.9,3.9-2.4,7.6-4.3,11.1c-0.1,0.2,0,0.5,0.2,0.7c0.2,0.1,0.4,0.1,0.6-0.1l9.8-9.7
	c0.2-0.2,0.2-0.5,0-0.7c-2.4-2-3.7-4.8-5-7.8c-0.7-1.8-1.6-3.5-2.6-5.2c-0.6-0.9-1.2-1.7-2-2.5c-0.4-1.3-1-2.5-1.7-3.6
	c5.1,2.6,11,9.9,15.6,17.1c-0.1,2.9-0.6,5.9-1.6,8.7c-0.1,0.3,0,0.5,0.3,0.6c0.1,0.1,0.3,0,0.4-0.1c1.5-0.8,2.7-2.1,3.5-3.7
	c0.2,1.4,0.2,2.8,0.2,4.2c0,2.3-0.2,4.7-0.6,7c-2.4,0.9-4.8,1.5-7.3,1.9c-3.8,0.4-7.7-0.2-11.4-0.8c-0.2,0-0.4,0-0.5,0.2
	c-0.1,0.1-0.1,0.3-0.1,0.5c0.5,1.2,1.4,2.2,2.4,2.9c-7.7,0.8-14.7,5-19,11.5c-0.1,0.2-0.1,0.5,0.2,0.7c0.1,0.1,0.2,0.1,0.3,0.1
	s0.2,0,0.3-0.1c4-2.7,9.5-3.5,16.5-2.3c0.3,0,0.5-0.1,0.6-0.4c0-0.2,0-0.3-0.1-0.4c-0.6-0.6-1.1-1.3-1.6-2.1
	c-0.3-0.4-0.5-0.8-0.8-1.1c6.2,0.9,14.6-0.1,19.2-3.8c-0.8,3.2-1.3,6.5-1.4,9.8c0,0.1-0.1,0.2-0.1,0.4c-0.6,1.8-0.5,3.8,0.4,5.5
	c1,1.5,2.6,2.6,4.4,3.1c0.4,0.1,0.9,0.3,1.3,0.4c1,0.3,2,0.7,3,1.2c0.4,0.3,0.9,0.6,1.3,0.9c0.6,0.4,1.1,0.8,1.8,1.2
	c0.7,0.4,1.6,0.6,2.4,0.6c0.3,0,0.6,0,0.9-0.1c-2.1,2.2-3.1,5.2-2.7,8.2c0.4,2.8,1.9,5.3,4.2,6.9c0.4,0.3,0.9,0.6,1.3,0.8
	c0.6,0.3,1.2,0.7,1.8,1.2c0.5,0.6,0.8,1.3,0.8,2c-2,4.9-5.4,9.1-9.9,12c-1.4,0.9-2.9,1.6-4.4,2.4c-5.5,2.3-10.1,6.3-12.9,11.6
	c-1.4,2.2-3,4.3-4.8,6.2c-5.3,5.4-14,7.6-21.6,5.5c-2.1-1.1-4.2-2-6.5-2.7c3.1-3.4,6.3-6.6,9.8-9.5c0.9,0.4,1.8,0.6,2.8,0.6
	c0.1,0,0.1,0,0.2,0c4.1-2,7.8-4.7,11.1-7.8c0.2-0.2,0.2-0.5,0-0.7c-0.1-0.2-0.4-0.2-0.6-0.1l-6,2.7l-0.3,0.3l-4.9,1.7
	c-0.2,0.1-0.4,0.3-0.3,0.6c0,0.1,0.1,0.3,0.3,0.3c-0.5,0.3-1,0.6-1.4,0.9l-1.1,0.4c-0.2,0.1-0.3,0.2-0.3,0.4c0,0.1,0,0.1,0,0.2
	c-3.8,2.8-7.4,6-10.7,9.5c-3-0.9-6.1-1.5-9.3-1.9c1.9-1.6,3.9-3.1,5.9-4.7c6-4.4,12.2-8.6,18.5-12.4s12.8-7.1,19.2-10.7l0.8,0.2h0.1
	c0,0,0,0,0.1,0c1.3-0.2,3.3-1.5,5.5-3.1c0.4-0.3,0.9-0.6,1.3-0.9c0.2-0.2,0.3-0.5,0.1-0.7c-0.1-0.1-0.2-0.2-0.4-0.2l-1.5-0.1
	c-0.1,0-0.1,0-0.2,0l-4.9,1.3c-0.3,0.1-0.4,0.3-0.4,0.6c0,0.1,0.1,0.3,0.3,0.3c0.4,0.2,0.7,0.3,1.1,0.5c-1.3,0.4-2.6,0.6-4,0.6
	c-0.3,0-0.5,0.2-0.5,0.5c0,0.2,0.1,0.4,0.4,0.5l1.3,0.4c-5.8,2.7-11.7,5.3-17.3,8.4c-8.5,4.8-16.6,10.2-24.2,16.3
	c-0.6,0.5-1.2,1-1.8,1.5l1.2-1.6c0.2-0.2,0.1-0.5-0.1-0.7l-0.1-0.1c-1.4-0.5-3-0.4-4.4,0.3c-0.9,0.4-1.6,1-2.2,1.8l-1-7.3
	c3.2-1.8,6.4-3.5,9.7-5.1c3.5-1.8,6.9-3.5,10.5-5.1v0.1c0.1,0.3,0.3,0.4,0.5,0.4l4.3-0.4c-1.5,1-3.1,2.1-4.8,3.4
	c-0.2,0.2-0.3,0.5-0.1,0.7c0.2,0.2,0.5,0.3,0.7,0.1l5.5-3.8c3.3-2.1,6.8-3.8,10.6-4.9c0.3-0.1,0.4-0.3,0.4-0.6
	c-0.1-0.3-0.3-0.4-0.6-0.4l-10.1,1.6c-0.3,0-0.5,0.3-0.4,0.6c0,0.1,0.1,0.3,0.2,0.3c-0.9,0.4-1.7,0.9-2.6,1.2
	c-4.6,1.1-8.9,3.3-13.2,5.1c-3.6,1.6-7.2,3.4-10.7,5.2v-0.2c0-0.2-0.2-0.4-0.4-0.4c-0.2,0-0.4,0.1-0.5,0.3l-0.4,1.1
	c-0.6,0.3-1.1,0.6-1.7,0.9c-1.3-3-2-6.2-2.2-9.5v-0.5c11-3,22.1-5.7,33.2-8.4c5.5-1.4,11.1-2.8,16.6-4.2c2.8-0.6,5.6-1.7,8.5-1.8
	c-2.1-0.2-4.2,0.4-6.3,0.6c-4.5,0.7-8.9,1.6-13.3,2.4c-2.5,0.5-5,1.1-7.5,1.6c6.4-3.5,13-7,20.2-8.4c0.3-0.1,0.4-0.3,0.4-0.5
	c0-0.3-0.2-0.5-0.5-0.4c-2.7,0.1-5.4,0.2-6.7-0.8c-0.1-0.1-0.2-0.1-0.3-0.1l-9,0.3c-0.3,0-0.5,0.2-0.5,0.5c0,0.2,0.1,0.3,0.2,0.4
	c0.8,0.5,1.6,0.9,2.5,1.1c-1.9,0.5-3.6,1.2-5.3,2.3c-0.2,0.2-0.3,0.5-0.1,0.7c0.1,0.1,0.1,0.2,0.2,0.2l1.1,0.4l-4.2,4.2
	c-0.1,0.1-0.2,0.3-0.1,0.5c-8.8,2-17.6,4.2-26.3,6.5c-0.9,0.2-1.9,0.5-2.8,0.8c0.5-3.7,2.4-6.8,5.1-8.3c0.2-0.1,0.3-0.4,0.2-0.6
	c0-0.1-0.1-0.1-0.1-0.2c17-7.5,34.9-13,53.3-16.2c-15.9,1.2-31.3,5.5-46.1,11.5c-0.9,0.4-1.8,0.7-2.7,1.1c-3.4,1.4-6.7,2.9-10.1,4.4
	c-9,1.1-18-1-25.6-5.9l3.5-0.2c0.3,0,0.5-0.3,0.5-0.5s-0.1-0.3-0.3-0.4c-7.1-3.9-12.1-10.8-13.8-18.7c-0.1-0.3-0.3-0.4-0.6-0.4
	c-0.2,0.1-0.4,0.3-0.4,0.5l1.1,13.6c0.1,3.4,0.7,6.7,1.7,9.9c1,3.1,3.1,5.7,5.8,7.3l-6.4,6c-0.2,0.2-0.2,0.5,0,0.7
	c0.1,0.1,0.3,0.2,0.5,0.1l8-1.6c-1.7,1.8-3.1,3.9-4.1,6.1c-1,0.7-2,1.3-3,2c-3.7,1.3-7.3,2.8-11,4.3c-3.5-6.7-6.7-14.1-6.7-22
	c0.1-1-0.1-1.9-0.8-2.7c-0.5-0.4-1.1-0.6-1.7-0.5c-0.9,0.2-1.6,0.7-2,1.5c-0.4,1-0.6,2.2-0.5,3.3v0.5c0,0.7-0.1,1.3-0.3,1.9
	c-1.2-8.5-0.8-17.2,1.2-25.6c0.1-0.3-0.1-0.5-0.4-0.6c-3-0.6-6.1,0-8.6,1.7c0.7-6,2.7-11.8,5.7-17c0.1-0.2,0.1-0.5-0.2-0.7
	c-0.1-0.1-0.2-0.1-0.4-0.1l-2.2,0.5c0.8-2.1,2.1-4,3.8-5.5c0.2-0.2,0.2-0.5,0-0.7c-0.1-0.1-0.2-0.2-0.3-0.2l-2.7-0.3l2-2.5
	c0.2-0.2,0.1-0.5-0.1-0.7c-0.1,0-0.1-0.1-0.2-0.1l-1.9-0.4l4.5-6.4c0.2-0.2,0.1-0.5-0.1-0.7c0,0,0,0-0.1,0c-1.1-0.6-2.5-0.7-3.7-0.2
	c2.7-3.1,5.9-5.7,9.6-7.6c0.2-0.1,0.3-0.4,0.2-0.7c-0.1-0.2-0.4-0.3-0.6-0.2c-12.8,4.7-21.9,16.2-23.4,29.8c0,0.2,0.1,0.5,0.3,0.5
	c0.2,0.1,0.5,0,0.6-0.2c1.2-2.1,3-3.9,5.2-5c-7.1,11.8-9,26-5.3,39.3c0.1,0.2,0.3,0.4,0.6,0.4c0.2,0,0.4-0.3,0.4-0.5
	c-0.1-5.5,3-10.6,7.8-13.2c-1.4,6.9,0.5,15,5.2,22.2c3.5,5.1,7.6,9.8,12.2,13.8c-9.6,4.1-19,8.7-28.2,13.7c0.9-2.6,2-5.1,3.5-7.5
	c0.1-0.2,0.1-0.5-0.2-0.7c-0.1-0.1-0.3-0.1-0.5,0l-7.7,3.4l4.5-11.4c0.1-0.3,0-0.5-0.3-0.6H283c-2.2,0.8-4.1,2-5.8,3.6
	c0.5-4,1.8-7.8,3.9-11.2c0.1-0.2,0.1-0.5-0.2-0.7c-0.2-0.1-0.5-0.1-0.6,0.1c-0.3,0.4-0.7,0.8-1.1,1.2c-1.7,1.5-3,3.4-4,5.5l-2.7,6.2
	c-0.1,0.3,0,0.5,0.3,0.7c0,0,0.1,0,0.2,0l1.9,0.2l-2.2,5c-0.1,0.2,0,0.4,0.2,0.5c0.2,0.1,0.4,0.2,0.6,0.1l1.2-0.6l-7.9,14.5
	c-0.1,0.2,0,0.5,0.2,0.7c0.1,0.1,0.2,0.1,0.3,0.1c0.9-0.2,1.8-0.4,2.6-0.7c-4.1,2.5-8.1,5.2-12.1,7.9c-0.7,0.5-1.5,1.1-2.2,1.6
	c0.7-7.6,2.6-14.9,5.6-21.9c0.1-0.2,0.1-0.4-0.1-0.5c-0.1-0.1-0.3-0.2-0.5-0.2c-2.3,0.3-4.3,1.3-5.9,3c0.3-4.5,1.3-9,3-13.2
	c0.1-0.3,0-0.5-0.3-0.6c-0.2-0.1-0.4,0-0.5,0.1l-3.7,2.9c2.7-8.8,6.8-17.1,12-24.7c0.2-0.2,0.1-0.5-0.1-0.7
	c-2.8-1.6-6.3-1.6-9.1-0.1c0-2.8,0.2-5.6,0.7-8.4c1.4-4.7,3.3-9.3,5.6-13.7c2.5-4.6,9.2-13.6,15.4-18.7c0.2-0.2,0.2-0.5,0.1-0.7
	c-0.1-0.2-0.3-0.2-0.5-0.2c-2.5,1.1-4.9,2.4-7.2,4c-2.1,1.3-4.4,2.7-5.9,3.4c3.4-5.5,10.5-12.5,16.2-16.4c0.2-0.1,0.3-0.4,0.2-0.6
	c-0.1-0.2-0.3-0.4-0.5-0.3c-1.3,0.1-2.6,0.1-4,0c-0.8,0-1.6-0.1-2.4-0.1c1.4-1.1,3.3-2.6,5.2-4.1c2.6-2.1,5.2-4.2,6.4-5.1
	c0.2-0.2,0.3-0.5,0.1-0.7c-0.1-0.1-0.1-0.1-0.2-0.2c-0.6-0.2-1.6,0.2-4.1,1.1c-0.9,0.3-2.1,0.8-2.8,1c2-5.1,8.4-9.8,13.5-11.5
	c0.3-0.1,0.4-0.4,0.3-0.6c-0.1-0.2-0.2-0.3-0.4-0.3l-5.7-1.1c2.3-6.9,6.6-13,12.4-17.5c1-0.4,1.9-0.9,2.8-1.3
	c1.3-0.7,2.7-1.3,4.1-1.9c2-0.7,4.9-1.3,7.4-0.2c0.3,0.1,0.5,0,0.7-0.2c0.1-0.1,0.1-0.3,0-0.4c-0.9-2.3-2.9-4-5.3-4.6l0.1-0.1
	c12.1-2.1,24.5-1.7,36.5,1.1c0.2,0,0.4,0,0.5-0.2c0.1-0.2,0.1-0.4,0-0.6l-4.1-6.8c9.2-0.7,18.5,0.4,27.4,3.1
	c0.3,0.1,0.5-0.1,0.6-0.3v-0.4c-2.5-4.7-5.7-8.9-9.4-12.7c9,2.9,17.5,7.1,25.2,12.7c0.1,0.1,0.2,0.1,0.3,0.1c0.1,0,0.2,0,0.3-0.1
	c0.2-0.1,0.3-0.3,0.2-0.5c-2.6-9.2-8.7-17.1-17.1-21.9c8.1-2.6,16.9-1,23.5,4.3c0.2,0.2,0.5,0.1,0.7-0.1c0.1-0.1,0.1-0.3,0.1-0.5
	c-1.7-4.6-4.4-8.7-7.9-12.1c3.2,0.8,6.1,2.5,8.3,4.8c0.2,0.2,0.5,0.2,0.7,0c0.1-0.1,0.2-0.2,0.2-0.4c0-5.6-0.9-11.1-2.9-16.3
	l-1.6-9.6c4.7,3.1,8.3,7.5,10.6,12.6c0.1,0.3,0.4,0.4,0.7,0.3c0.2-0.1,0.3-0.2,0.3-0.4c0.2-2.6-0.1-5.3-0.7-7.8
	c3.7,3,7.2,6.3,10.4,9.9c3.8,4.6,6.1,9.3,6.9,14c0,0.2,0.2,0.4,0.5,0.4c0.2,0,0.4-0.2,0.5-0.4c1.2-6.1-1.1-12.3-2.9-16.5
	c-0.6-1.3-1.2-2.7-1.9-4c-1.9-3.6-3.4-7.4-4.4-11.4c-1.3-5.5-0.4-10.7,2.2-14.2c0.2,4.1,3,7.7,6.9,9c0.2,0.1,0.4,0,0.5-0.1
	c0.1-0.1,0.2-0.3,0.1-0.5c-1.6-4.1-1.6-8.8,0.1-12.9c1.6,1.3,2.5,3.3,2.5,5.3c0,0.3,0.2,0.5,0.5,0.5c0.1,0,0.3-0.1,0.4-0.2
	c1.3-1.4,1.8-3.3,1.5-5.2c1.3,0.2,2.7,0.1,4-0.2c0.4-0.1,0.7-0.2,1.1-0.2c1.4-0.4,2.8-0.6,4.2-0.5c2.1,0.3,4.1,1.3,5.5,2.8
	c1.5,1.6,2.8,3.4,3.9,5.3c0.1,0.1,0.3,0.2,0.4,0.2c0.2,0,0.3-0.1,0.4-0.2c0.7-1.2,1.2-2.6,1.4-4c0.6,0.7,1.3,1.3,2.1,1.7
	c1.2,0.8,2.8,0.8,4,0c0.7-0.6,1.3-1.4,1.6-2.3c0.2-0.4,0.4-0.9,0.6-1.3c1.2-1.8,3.7-2.3,5.5-2.5c0.7,0,1.3-0.1,2-0.1
	c1.2,0,2.5-0.1,3.7-0.3c0.1,2,0.8,3.9,2.1,5.5c0.2,0.2,0.5,0.2,0.7,0.1s0.2-0.3,0.2-0.5c-0.5-1.8-0.2-3.7,0.8-5.2
	c4.3,4.9,6.8,11.1,7.1,17.5c0,0.3,0.2,0.5,0.5,0.5c0.2,0,0.4-0.1,0.4-0.3c1.3-2.4,2.2-5,2.9-7.6c0.4-1.8,0.5-3.7,0.2-5.5
	c2.2,3.6,3.3,7.9,3.1,12.1c-0.3,5.2-1.8,10.3-4.4,14.8c-0.6,1.1-1.2,2.1-1.8,3.2c-2.7,4.6-5.4,9.4-5.1,14.7c0,0.2,0.1,0.4,0.3,0.4
	c0.2,0.1,0.4,0,0.5-0.1c5-5.8,10.9-10.7,17.6-14.5c-1.9,4.7-2.5,9.9-3,14.6c0,0.3,0.2,0.5,0.4,0.6c0.2,0,0.4-0.1,0.5-0.2
	c1.6-2.4,3.4-4.7,5.4-6.8c4.5-3.6,10.1-5.8,15.9-6.2c-2.1,2.2-4,4.6-5.7,7.2c-0.2,0.2-0.1,0.5,0.1,0.7c0.2,0.1,0.4,0.1,0.6,0
	c4-2.6,9.1-3.2,13.6-1.4c-7.2,6.2-12.2,14.6-14.1,23.9c-0.1,0.3,0.1,0.5,0.4,0.6c0.2,0,0.3,0,0.4-0.1c4.3-3.9,10.4-6.5,17.5-7.6
	c6-0.7,12-0.9,18-0.4c-2.5,1.8-4.2,4.5-4.9,7.5c-0.1,0.3,0.1,0.5,0.4,0.6h0.1c0.1,0,0.1,0,0.2,0c7-2.9,14.5-4,22-3.2
	c3.1,3.9,8.7,4.8,13.2,4.4c2.5-0.3,5-0.8,7.4-1.4c2.4-0.6,4.8-1.1,7.3-1.4c4.8-0.5,11.2,0.8,14.3,5.5l-12.1,0.1
	c-0.3,0-0.5,0.2-0.5,0.5c0,0.3,0.2,0.5,0.5,0.5c6.2,0.7,11.9,3.7,16,8.3l-7-0.1c-0.3,0-0.5,0.2-0.5,0.5c0,0.2,0.1,0.3,0.2,0.4
	c6.1,3.6,11.5,9.1,16.3,16.3c1.1,2.8,1.9,5.8,2.3,8.7c-3.3-2.8-7.6-4-11.9-3.2c-0.3,0-0.5,0.3-0.4,0.6c0,0.1,0.1,0.2,0.2,0.3
	c10.5,7.6,15.1,15.4,20.5,26.2c-5.2-2.1-7.2-2.7-13.5-2.2c-0.3,0-0.5,0.3-0.5,0.5c0,0.1,0,0.2,0.1,0.3c7.5,9.7,13.5,20.3,18,31.7
	c-1.2-1.1-2.6-1.9-4.2-2.4c-0.3-0.1-0.5,0.1-0.6,0.3v0.4l5.5,9.3c-2.7-1.2-5.8-1.6-8.7-1c-0.3,0.1-0.4,0.3-0.4,0.6
	c0,0.1,0,0.1,0.1,0.2c7.4,10,13.7,20.8,18.9,32.1l-3.3-1.5c-0.3-0.1-0.5,0-0.7,0.3c-0.1,0.1-0.1,0.3,0,0.4c1.7,3.3,2.9,6.8,3.6,10.4
	c-2.7-1.2-5.4-2.6-7.9-4.1c-0.2-0.1-0.5-0.1-0.7,0.2c-0.1,0.2-0.1,0.4,0,0.5c5.8,8.6,10.4,17.9,13.7,27.7c-3.8-3.7-8.9-5.9-14.2-6.2
	c-0.2,0-0.4,0.1-0.5,0.3c-0.1,0.2-0.1,0.4,0.1,0.5c9.8,11.5,15.7,25.7,17,40.8c-0.5,0.1-1,0.2-1.5,0.3c-1.1,0-2.2,0.2-3.2,0.5
	C638.7,408.9,636.8,409,634.8,408.9z"/>
</svg>
