<?xml version="1.0" encoding="utf-8"?>
<!-- Generator: Adobe Illustrator 24.2.3, SVG Export Plug-In . SVG Version: 6.00 Build 0)  -->
<svg version="1.1" id="b885693e-e636-4226-b92c-15e189115cc2"
	 xmlns="http://www.w3.org/2000/svg" xmlns:xlink="http://www.w3.org/1999/xlink" x="0px" y="0px" viewBox="0 0 800.2 498.7"
	 style="enable-background:new 0 0 800.2 498.7; fill: #215342;" xml:space="preserve" height="240" width="290">
<g>
	<path d="M482.2,204.4c-1.2-0.9-2.5-1.8-3.9-2.6c-5.2-2.7-11.4-3.1-16.9-1c-6.5,2.4-11.1,6.5-12.6,11.3c-1.9,6-1.9,15.7-1.4,16.6
		c0.3,0.4,0.9,0.6,1.4,0.6c1,0,1.9,0.5,2.4,1.3c1.4,2,2.1,2.2,2.5,2.2c1.7-0.1,3.4,0.2,4.9,0.7c0.6,0.3,1.1,0.5,1.7,0.7
		c0.3,0.1,0.5-0.1,0.6-0.4c0.1-0.2,0-0.5-0.3-0.6c-0.5-0.3-1.1-0.5-1.7-0.7c-2.2-1.3-3.9-3.3-5-5.6c-0.1-0.2-0.2-0.4-0.3-0.6
		c0.1-0.2,0.1-0.3,0-0.5c-2.5-4.2-2.3-9.5,0.6-13.5c3-4,7.7-6.4,12.6-6.6c5-0.2,9.9,1.2,14.1,4c1.7,1.1,3.2,2.4,4.6,3.9
		c0.3,5.4-1.7,10.6-5.3,14.5c-4.3,4.4-10.2,6.7-16.3,6.3c-0.3,0-0.5,0.2-0.5,0.5c0,0.2,0.1,0.4,0.2,0.5c2.3,1.4,4.9,2.2,7.5,2.1
		c1.6,0,3.3-0.3,4.8-0.8c4-1.4,7.5-4.1,9.9-7.6c2.3-3.4,4-7.2,5-11.3c0.3-1,0.4-2,0.4-3c0.8,0.3,1.7,0.6,2.5,0.8
		c4.8,1.2,9.7,2,14.6,2.3h0c0.3,0,0.5-0.2,0.5-0.5c0-0.3-0.2-0.5-0.5-0.5c-2.1-0.3-4.1-1-5.8-2.1c1.7-0.3,3.3-0.9,4.8-1.9
		c0.2-0.2,0.3-0.5,0.1-0.7c-0.1-0.1-0.3-0.2-0.5-0.2c-0.8,0.1-1.6,0.1-2.4,0c3-1.1,5.5-3.4,7.1-6.2c0.1-0.2,0-0.5-0.2-0.7
		c-0.1-0.1-0.3-0.1-0.4,0c-4.2,1.6-8.6,2.8-13.1,3.5c-1.9,0.2-3.7,0.3-5.6,0.2c-2.5-0.5-5-1.4-7.2-2.7
		C484.2,205.9,483.2,205.1,482.2,204.4z M481.7,206.5L481.7,206.5c0.1,0.1,0.2,0.2,0.4,0.3C481.9,206.6,481.8,206.6,481.7,206.5z"/>
	<path d="M468.9,209.9c0.4-0.2,0.9-0.3,1.4-0.4c0.3-0.1,0.4-0.3,0.4-0.6c0-0.1-0.1-0.2-0.1-0.3c-0.7-0.8-1.6-1.4-2.6-1.8
		c-0.2-0.1-0.4-0.1-0.5,0.1c-1.8,1.4-2.9,3.5-3.1,5.8c-0.2,2.2,0.1,4.4,0.8,6.4c1,3.4,2.6,5.8,4.7,7.2c0.1,0.1,0.2,0.1,0.3,0.1
		c0.2,0,0.3-0.1,0.4-0.2c2.5-3.3,3.5-7.4,2.8-11.5c0-0.2-0.3-0.4-0.5-0.4c-1.2,0.1-2.4,0.3-3.4,0.8c-0.4-1.1-0.8-2.3-1-3.5
		c-0.1-0.3-0.1-0.6-0.1-0.9C468.3,210.3,468.6,210,468.9,209.9z"/>
	<path d="M347,164.7c0.2,0.2,0.5,0.2,0.7,0c0.1-0.1,0.2-0.3,0.2-0.5l-1.4-6.2l11,0.7c0.2,0,0.4-0.1,0.5-0.3c0.1-0.2,0-0.4-0.2-0.6
		l-3.8-2.8c3.3-0.2,6.5,0.2,9.7,1.1c0.3,0.1,0.5-0.1,0.6-0.4c0.1-0.2-0.1-0.5-0.3-0.6c-1.7-0.6-3-1.9-3.6-3.6l9.7,1.6
		c0.2,0,0.4-0.1,0.5-0.2l9.5-16c0.1-0.2,0.1-0.5-0.2-0.7c-0.2-0.1-0.4-0.1-0.6,0.1l-10.3,9.5c-0.5,0.5-1,0.9-1.6,1.1
		c-1,0.1-2-0.2-2.8-0.7l-0.2-0.1c-5.2-2.5-11.2-2.9-16.8-1.1c-0.3,0.1-0.4,0.4-0.3,0.6c0,0.1,0.1,0.2,0.2,0.3l3.2,2.2
		c-4,0.5-7.8,1.6-11.4,3.3c-0.2,0.1-0.4,0.4-0.2,0.7c0.1,0.1,0.1,0.2,0.3,0.2l3.9,1.6c-2.6,1.2-5.3,2.2-8,3.1
		c-1.3,0.4-2.5,0.8-3.7,1.4c-0.2,0.1-0.3,0.4-0.2,0.7c0.1,0.2,0.3,0.3,0.5,0.2C337.5,158.5,343.1,160.5,347,164.7z"/>
	<path d="M458.3,198.6c5.5-2.3,11.6-2.6,17.3-0.9c0.3,0.1,0.5-0.1,0.6-0.3c0.1-0.2,0-0.4-0.1-0.5c-4.7-4.6-11.5-6.5-17.9-5.2
		l5.6-6.1c0.2-0.2,0.2-0.5,0-0.7c-0.1-0.1-0.3-0.2-0.5-0.1l-6.5,1.8l0-0.4c0-0.3-0.2-0.5-0.5-0.5c-0.2,0-0.4,0.1-0.5,0.3
		c-0.8,1.6-2.1,3-3.6,4.1c0.3-2.1,0.2-4.3-0.3-6.4c-0.1-0.2-0.3-0.4-0.5-0.4c-0.2,0-0.4,0.1-0.5,0.4c-1.6,5-3.8,9.9-6.5,14.4
		c-0.1,0.2-0.1,0.5,0.2,0.7c0.1,0,0.2,0.1,0.2,0.1c0.4,0,0.8,0,1.2-0.1c-1.6,3.4-2.8,7.1-3.6,10.8c-0.1,0.3,0.1,0.5,0.4,0.6
		c0.2,0,0.4,0,0.5-0.2l1.9-2.3c-0.2,0.9-0.3,1.9-0.2,2.8c0,0.2,0.2,0.4,0.4,0.5c0,0,0.1,0,0.1,0c0.2,0,0.4-0.1,0.5-0.3
		C448.6,205.2,452.9,201,458.3,198.6z"/>
	<path d="M403.8,193.7c0.2,0,0.3-0.1,0.4-0.2c0.1-0.1,0.1-0.3,0-0.5c-0.9-1.8-2-3.4-3.3-4.9l2.3,0.6c0.3,0.1,0.5-0.1,0.6-0.3
		c0-0.2,0-0.3-0.1-0.4c-2.2-2.7-4.9-5-8.1-6.6c-3.7-1.9-7.1-2.1-10.1-0.6c-0.2,0.1-0.4,0.4-0.2,0.7c0.1,0.2,0.3,0.3,0.5,0.3h0
		c2,0,3.9,0.6,5.4,1.9c-1.8-0.2-3.7-0.2-5.5,0c-0.3,0-0.5,0.3-0.4,0.6c0,0.3,0.3,0.5,0.5,0.4c2.6-0.3,5.1,1.2,6.1,3.7
		c-9.2-2.8-20.1,0.2-26.3,7.3c-0.2,0.2-0.2,0.5,0.1,0.7c0.2,0.1,0.4,0.2,0.5,0.1c5.4-2.7,12.7-2.6,19.4,0.3
		c6.4,2.8,11.8,7.5,16.3,11.7c0.1,0.1,0.2,0.1,0.3,0.1c0.1,0,0.2,0,0.2-0.1c0.2-0.1,0.3-0.3,0.3-0.5c-0.3-1.8-0.9-3.6-1.9-5.2
		l6.8,4.9c0.2,0.2,0.5,0.1,0.7-0.1c0.1-0.1,0.1-0.2,0.1-0.3c-0.5-4.8-2.1-9.5-4.9-13.5L403.8,193.7z"/>
	<path d="M509.2,257.9c-0.2-0.2-0.5-0.2-0.7,0.1c-0.1,0.1-0.1,0.3-0.1,0.5c0.7,1.8,1.3,3.5,1.9,5.2c-1.6-0.2-3.3,0-4.8,0.5
		c-0.3,0.1-0.4,0.4-0.3,0.6c0,0.1,0.1,0.1,0.1,0.2l2.7,2.7c-0.2,0.5-0.9,0.8-1.6,1.1c-0.2,0.1-0.4,0.2-0.5,0.2
		c-0.8,0.3-1.4,1-1.6,1.8c-0.1,0.5,0,0.9,0.3,1.3c0.4,0.4,1,0.6,1.6,0.6l0.3,0c1.8,0.3,3.4,1.8,4.6,4.8l0.2,0.6
		c0.9,2.1,1.9,4.5,4.1,5.7c0.1,0,0.2,0.1,0.2,0.1c0.3,0,0.5-0.2,0.5-0.5c0,0,0-0.1,0-0.1l-2.9-11.9l3,1.9c0.2,0.1,0.5,0.1,0.7-0.2
		c0.1-0.1,0.1-0.2,0.1-0.3C516.5,266.9,513.6,261.6,509.2,257.9z"/>
	<path d="M385.8,153.2l-14,4c-0.3,0.1-0.4,0.4-0.3,0.6c0,0.1,0.1,0.2,0.2,0.2l2,1.7c-1.6-0.2-3.2,0.1-4.6,1
		c-0.2,0.2-0.3,0.5-0.1,0.7c0.1,0.1,0.1,0.1,0.2,0.2l12.9,5.8c0.3,0.1,0.5,0,0.7-0.3c0-0.1,0.1-0.2,0-0.3l-0.8-4
		c0.2,0.3,0.5,0.7,0.8,1c0.5,0.6,1.2,0.9,1.9,0.9c0.5-0.1,0.9-0.4,1.1-0.8c0.3-0.8,0.3-1.7,0-2.4c-0.1-0.1-0.1-0.3-0.2-0.4
		c-0.3-0.5-0.5-1-0.5-1.5l24.1,9c0.1,0,0.1,0,0.2,0c0.3,0,0.5-0.2,0.5-0.5c0,0,0-0.1,0-0.1c-2.2-10.6-6-20.9-11.2-30.4
		c-0.1-0.2-0.4-0.3-0.7-0.2c-0.2,0.1-0.3,0.4-0.2,0.6c1.3,3.4,1.6,7.1,0.9,10.7c-2.8-3.9-6.8-6.9-11.3-8.6c-0.3-0.1-0.5,0-0.6,0.3
		c0,0.1,0,0.2,0,0.3c0.7,2.7,1,5.4,0.8,8.2l-5.4-1.6c-0.3-0.1-0.5,0.1-0.6,0.3c-0.1,0.2,0,0.4,0.2,0.5
		C383.2,149.5,384.7,151.2,385.8,153.2z"/>
	<path d="M445.8,160.9c0.2,0.1,0.4,0.1,0.6-0.1l6.4-6.9c-0.5,2.2-1.3,4.4-2.4,6.4c-0.1,0.2-0.1,0.5,0.2,0.7c0.2,0.1,0.4,0.1,0.6-0.1
		l3.6-3.5l-1.4,11.3c0,0.2,0.1,0.4,0.3,0.5c0.1,0,0.1,0,0.2,0c0.2,0,0.3-0.1,0.4-0.2c8.6-11.3,23.4-17.8,37.8-16.7
		c0.2,0,0.4-0.1,0.5-0.3c0.1-0.2,0-0.4-0.2-0.6c-6.6-4.5-15.1-5.3-22.4-2l4.2-5.1c0.1-0.2,0.1-0.4,0-0.6c-0.1-0.2-0.4-0.3-0.6-0.2
		c-3.1,1-5.9,2.7-8.2,4.9c0.6-4.5,0.5-9.1-0.2-13.6c0-0.3-0.3-0.5-0.6-0.4c-0.2,0-0.3,0.1-0.4,0.3l-6.7,13.1c-0.7,0.2-1.3,0.5-1.9,1
		c0.2-0.9,0.4-1.9,0.6-2.8c0.5-2,0.9-4,1.1-6c0-0.3-0.2-0.5-0.5-0.5c-0.2,0-0.3,0-0.4,0.2c-5.5,5.8-9.2,13-10.9,20.8
		C445.5,160.6,445.6,160.8,445.8,160.9z"/>
	<path d="M417.5,136.8c2.2,2,3,5,3.9,8.2c0.9,3.3,1.8,6.8,4.6,9c0.2,0.2,0.5,0.1,0.7-0.1c0.1-0.1,0.1-0.2,0.1-0.3l0.1-6.3
		c1.9,2.4,3.3,5.3,4,8.3c0,0.2,0.2,0.4,0.4,0.4h0c0.2,0,0.4-0.1,0.5-0.3l2.8-6.6l0.4,6.5c0,0.3,0.3,0.5,0.5,0.5
		c0.2,0,0.4-0.2,0.5-0.4c1.7-7.8,5.3-15.2,10.4-21.4c0.2-0.2,0.1-0.5-0.1-0.7c-0.1-0.1-0.3-0.1-0.5-0.1c-3.4,1.5-6.2,4.1-8.5,8.1
		c0.1-2.7,0.7-5.4,1.7-7.9c0.1-0.3,0-0.5-0.3-0.7c-0.2-0.1-0.4,0-0.6,0.2c-2.7,3.4-4.9,7.2-6.7,11.2l-3.2-7.1
		c-0.1-0.3-0.4-0.4-0.7-0.2c-0.1,0-0.2,0.1-0.2,0.2l-1,1.8c-0.9-0.9-1.5-2-2-3.1c-0.1-0.2-0.3-0.4-0.5-0.3c-0.2,0-0.4,0.2-0.4,0.5
		l-0.5,5.9c-1.3-2.2-2.9-4.2-4.8-5.9c-0.1-0.1-0.2-0.2-0.4-0.3c-0.2-0.2-0.5-0.1-0.7,0.1c-0.2,0.2-0.1,0.5,0.1,0.7
		C417.2,136.5,417.4,136.6,417.5,136.8z"/>
	<path d="M341.7,249.1c0.2,0.1,0.4,0.1,0.5,0l0,0l3.7-2.5c-1.1,1.5-2.1,3.1-3,4.8c-0.1,0.2,0,0.5,0.2,0.7c0.2,0.1,0.4,0.1,0.5,0
		l2.9-2c-0.4,0.9-0.8,1.9-1.3,2.8c-0.4,0.7-0.8,1.5-1.1,2.3c-0.6,1.4-1.6,4.8,0.4,7.2c0.2,0.2,0.5,0.2,0.7,0.1
		c0.1-0.1,0.1-0.2,0.2-0.3c1.6-8,5.8-15.3,11.9-20.8c0.2-0.2,0.2-0.5,0-0.7c-0.1-0.1-0.3-0.2-0.4-0.2c-2.2,0.3-4.4,0.9-6.4,2
		c2-2.7,4.6-4.8,7.6-6.1c0.3-0.1,0.4-0.4,0.2-0.7c-0.1-0.2-0.3-0.3-0.6-0.3c-7.1,1.8-13.1,6.6-16.5,13.2
		C341.3,248.7,341.4,249,341.7,249.1z"/>
	<path d="M500.7,255.1c0.2,0.1,0.5,0,0.7-0.2c0.1-0.1,0.1-0.3,0-0.4c-0.9-2.1-2.1-4-3.5-5.8l4.2,2.4c0.2,0.1,0.5,0,0.7-0.2
		c0.1-0.2,0.1-0.4-0.1-0.6c-4.2-4.2-9.1-7.6-14.5-10.1c-0.3-0.1-0.5,0-0.7,0.3c-0.1,0.2,0,0.4,0.1,0.6c2,1.8,3.9,3.8,4.7,6l-4.6-1.4
		c-0.3-0.1-0.5,0.1-0.6,0.3c-0.1,0.2,0,0.4,0.2,0.5c6.5,4.6,10.9,11.7,14.8,18c0.1,0.2,0.5,0.3,0.7,0.2c0.1-0.1,0.2-0.2,0.2-0.4
		c0.2-3.6-1.7-7-3.5-9.8L500.7,255.1z"/>
	<path d="M316.4,232.4c0.2,0.1,0.5-0.1,0.6-0.3c0.9-2,2.2-3.8,3.8-5.3c-0.6,3.6,0.1,7.3,2.1,10.4c0.1,0.1,0.3,0.2,0.4,0.2h0
		c0.2,0,0.3-0.1,0.4-0.3c2.1-5.4,5.5-10.2,9.8-14.1c0.2-0.2,0.2-0.5,0-0.7c-0.1-0.1-0.2-0.2-0.4-0.2c-2.9-0.1-5.7,0.7-8.1,2.2l1.4-5
		c0.1-0.3-0.1-0.5-0.3-0.6c-0.1,0-0.3,0-0.4,0.1l-4.9,3c1-2.1,2.3-4,3.9-5.8c0.2-0.2,0.2-0.5,0-0.7c-0.2-0.2-0.5-0.2-0.6,0
		c-5,4-8,10.1-8.1,16.6C316.1,232.1,316.2,232.3,316.4,232.4z"/>
	<path d="M512.3,230.7c6.3,3.8,11.9,8.6,16.5,14.3c0.2,0.2,0.5,0.2,0.7,0.1c0.1-0.1,0.2-0.3,0.2-0.4c-0.5-5-2.2-9.8-5.1-13.8
		c3.1,1.1,6,2.5,8.9,4c0.2,0.1,0.5,0,0.7-0.2c0.1-0.1,0.1-0.3,0-0.4c-2.8-7.7-9.2-13.5-17.1-15.6c-0.3-0.1-0.5,0.1-0.6,0.4
		c0,0.2,0,0.4,0.2,0.5c2,1.6,3.8,3.3,5.6,5.1c-2.8-1-5.8-0.9-8.5,0.3c-0.3,0.1-0.4,0.4-0.2,0.7c0.1,0.1,0.2,0.2,0.3,0.3
		c2.4,1,4.5,2.6,6,4.7c-2.3-0.7-4.8-1-7.2-0.8c-0.3,0-0.5,0.3-0.5,0.5C512,230.5,512.1,230.6,512.3,230.7z"/>
	<path d="M387.4,269.2c-0.7-0.1-1.4-0.2-2.1-0.2c-0.1,0-0.3,0-0.4,0c-0.2-0.2-0.4-0.2-0.6-0.1l-4.1,2.8c-0.2,0.2-0.3,0.5-0.1,0.7
		c0.1,0.2,0.4,0.3,0.6,0.2l1.1-0.4l-0.4,0.6c-0.2,0.2-0.1,0.5,0.1,0.7c0.1,0.1,0.3,0.1,0.5,0c2-0.9,3.9-2,5.7-3.4
		c0.2-0.2,0.3-0.5,0.1-0.7C387.7,269.3,387.6,269.3,387.4,269.2z"/>
	<path d="M373.7,273.8C373.7,273.8,373.7,273.7,373.7,273.8L373.7,273.8c-0.7-0.1-1.4-0.1-2,0.2c-0.1,0-0.2,0.1-0.4,0.1
		c-0.1,0-0.2,0-0.3,0.1c-1.3,0.9-2.4,1.9-3.3,3.1c-0.2,0.2-0.1,0.5,0.1,0.7c0.2,0.1,0.4,0.1,0.6,0l0.5-0.3c-0.1,0.3-0.2,0.6-0.2,0.8
		c0,0.2,0,0.3,0.2,0.4c0.1,0.1,0.2,0.1,0.3,0.1c0,0,0.1,0,0.1,0c2.3-0.6,4.2-2.4,4.8-4.7C374.1,274.1,373.9,273.8,373.7,273.8z"/>
	<path d="M385.4,286.5L385.4,286.5l-0.6,0.2l0,0c0.1-0.3,0-0.5-0.3-0.7c-0.1-0.1-0.3-0.1-0.5,0c-0.2,0.2-0.5,0.3-0.8,0.3
		c-0.2,0-0.4,0.1-0.5,0.2l-2.7,4.7c-0.1,0.2-0.1,0.5,0.2,0.7c0.1,0,0.2,0.1,0.3,0.1c0.2,0,0.3-0.1,0.4-0.2l0.3-0.4
		c0.1,0.3,0.3,0.4,0.6,0.4c0.1,0,0.2-0.1,0.3-0.2l3.8-4.4c0.2-0.2,0.2-0.5-0.1-0.7C385.8,286.5,385.6,286.4,385.4,286.5z"/>
	<path d="M400.5,278.3c-0.2-0.1-0.4-0.1-0.6,0.1l0,0l-4.3,4.1c-0.2,0.2-0.2,0.5,0,0.7c0.1,0.1,0.2,0.1,0.3,0.2l-1.2,1.9
		c-0.1,0.2-0.1,0.5,0.1,0.7c0.2,0.1,0.4,0.1,0.6-0.1l0.9-0.8c0.1,0.3,0.3,0.4,0.6,0.4c0.2,0,0.3-0.1,0.3-0.3c1-2.1,2.2-4.1,3.4-6.1
		C400.8,278.7,400.7,278.4,400.5,278.3z"/>
	<path d="M389.9,295.4c0.1-0.3,0-0.5-0.3-0.6c-0.2-0.1-0.4,0-0.6,0.1c-1.5,1.8-2.8,3.9-3.8,6c-0.1,0.2,0,0.5,0.2,0.7
		c0.2,0.1,0.4,0,0.6-0.1l1.4-1.6c0,0.2,0.1,0.3,0.1,0.4c0.1,0.3,0.4,0.4,0.7,0.3c0.1,0,0.2-0.1,0.2-0.2c0.9-1.3,1.5-2.8,1.6-4.3
		c0-0.2-0.1-0.3-0.2-0.4C389.9,295.6,389.9,295.5,389.9,295.4z"/>
	<path d="M482.2,277.2l-5.3-2.9c-0.2-0.1-0.4-0.1-0.6,0.1c-0.3,0.2-0.4,0.5-0.4,0.8c0,0.4,0.3,0.7,0.6,0.9c0,0,0.1,0.1,0.1,0.1
		c0,0.2,0,0.4,0.2,0.5l0.3,0.2c0,0.1,0,0.2,0,0.4c0,0.2-0.1,0.3-0.2,0.4c-0.2,0.1-0.3,0.4-0.2,0.7c0,0.1,0.1,0.1,0.1,0.1
		c0.8,0.8,1.9,1.2,3,1.2c0.3,0,0.6,0,0.9-0.1c0.3-0.1,0.4-0.3,0.4-0.6c0-0.1-0.1-0.2-0.2-0.3l-1.5-1.2l2.5,0.7
		c0.2,0.1,0.5-0.1,0.6-0.3C482.5,277.6,482.4,277.3,482.2,277.2z"/>
	<path d="M461.8,279.5L461.8,279.5l-3-1.4c0.1-0.1,0.1-0.1,0.1-0.2c0.1-0.3,0-0.5-0.3-0.6c-1-0.4-1.7-0.7-2.2-0.8
		c-0.8-0.3-1-0.4-1.3-0.1l-0.2-0.1c-0.3-0.1-0.5,0.1-0.6,0.3c-0.1,0.2,0,0.5,0.3,0.6l0.7,0.3c-0.2,0.3-0.2,0.7-0.2,1
		c0,0.9,0.5,1.7,1.2,2.2c0.9,0.5,2,0.8,3.1,0.7c0.3,0,0.5,0,0.7,0c0.3,0,0.5-0.2,0.5-0.5c0-0.1,0-0.2-0.1-0.3l-0.3-0.3l1.2,0.2
		c0.3,0,0.5-0.2,0.6-0.4C462.1,279.8,462,279.6,461.8,279.5z"/>
	<path d="M472.1,296.8c0.3,0,0.5-0.3,0.4-0.6c0-0.2-0.1-0.3-0.3-0.4c-0.4-0.1-0.7-0.3-0.9-0.6c-0.1-0.1-0.1-0.2,0-0.3
		c0,0,0-0.1,0.1-0.1c0.1,0,0.5,0.2,0.6,0.3c0.2,0.2,0.4,0.3,0.7,0.5c0.6,0.6,1.3,1.1,2,1.6c0.2,0.2,0.5,0.1,0.7-0.1
		c0.2-0.2,0.1-0.5-0.1-0.7c-0.6-0.5-1.3-1.1-1.9-1.6c-1-0.9-1.8-1.9-2.6-3c-0.1-0.1-0.2-0.2-0.3-0.2c-0.3-0.1-0.9-0.2-1.2,0.2
		c-0.3,0.4-0.1,0.8,0.2,1.2c0.1,0.2,0.2,0.3,0.2,0.5c0.1,0.2,0.2,0.5,0,0.8c0,0.1-0.2,0.1-0.2,0.1c-0.1-0.3-0.4-0.4-0.6-0.3
		c-0.3,0.1-0.4,0.4-0.3,0.6C469.1,296.2,470.6,297.1,472.1,296.8z"/>
	<path d="M444.5,288.7c0.8,0.2,1.5,0.7,2,1.3c0.2,0.2,0.3,0.5,0.4,0.8c0.1,0.3,0.2,0.6,0.4,0.8c1,1.6,3,2.1,4.9,2.3c0,0,0,0,0.1,0
		c0.3,0,0.5-0.2,0.5-0.5c0-0.2-0.1-0.3-0.2-0.4c-0.8-0.5-1.5-1.1-2.1-1.7l1,0.3c0.2,0.1,0.5,0,0.6-0.2c0.1-0.2,0.1-0.5-0.1-0.6
		c-2.3-2.2-5.2-3.5-8.3-3.8c-0.3,0-0.5,0.2-0.5,0.5c0,0.1,0,0.2,0.1,0.3C443.4,288.2,443.9,288.5,444.5,288.7z"/>
	<path d="M459,300.6L459,300.6l2,1.3c0.1,0.1,0.2,0.1,0.3,0.1c0.3,0,0.5-0.2,0.5-0.5c0-0.1,0-0.2-0.1-0.3l-2.2-3.5
		c-0.1-0.1-0.1-0.2-0.2-0.2c-0.3-0.2-0.7-0.1-1,0.1c-0.3,0.3-0.2,0.7,0,1.3l-0.8-0.6c-0.2-0.2-0.5-0.1-0.7,0.1
		c-0.1,0.1-0.1,0.3-0.1,0.4C457,299.8,457.9,300.6,459,300.6z"/>
	<path d="M363,208.8c-1.6,9.2,2.3,18.3,12.5,19.8c0.4,0.1,1,0.2,1.3,0.2c-1.2-0.5-2.4-1-3.6-1.6C366.6,223.6,363.7,216.3,363,208.8z
		"/>
	<path d="M480.4,224.7c0.4-0.6,0.8-1.1,1.2-1.7c1.6-2.2,3.6-5.5,1.7-8.1c-2.1-2-4.4-3.6-7-4.9c1.8,1.7,3.5,3.5,5.4,5.2
		c0.3,0.3,0.5,0.6,0.7,1c0.5,1.4,0,3.4-0.8,5.3C481.3,222.6,480.8,223.7,480.4,224.7z"/>
	<path d="M674.8,407.2H562.5c1-3.6,1.9-7.2,2.6-10.8c1.9-9.8,2-18.5,0.1-26l3.4,2.6c0.2,0.2,0.5,0.1,0.7-0.1c0.1-0.2,0.1-0.4,0-0.6
		c-4.2-6.4-4.9-14.5-5.1-22.3c0-0.8,0-1.7,0-2.5c0.1-5-0.3-10-1.2-14.9c0.9,0.9,1.9,1.8,2.8,2.8c4.3,4.2,8.6,8.5,12.7,12.8
		c-3.7-4.6-7.7-9.1-11.8-13.4c-1.4-1.5-2.8-2.9-4.3-4.3c-0.2-0.8-0.4-1.5-0.7-2.3l2.9,1.8c0.2,0.1,0.5,0.1,0.7-0.2
		c0.1-0.2,0.1-0.4,0-0.5c-3.8-5.6-5.9-12.1-6.1-18.9l3.8,2c0.2,0.1,0.5,0,0.7-0.2c0-0.1,0.1-0.2,0.1-0.3c-0.5-5-2.8-9.7-6.4-13.1
		c1,0.1,2-0.1,3-0.5c0.3-0.1,0.4-0.4,0.3-0.7c0-0.1-0.1-0.1-0.1-0.2c-2.8-2.3-5.1-5-6.9-8.1c0.2-5.3,0.9-10.5,2-15.7
		c0.7-3.5,1.3-7.2,1.7-10.8c0.9-8.9,0.1-17.9-2.5-26.4l2.2,0.5c0.2,0,0.3,0,0.4-0.1c0.1-0.1,0.2-0.3,0.2-0.4c-0.1-2-0.9-3.9-2.2-5.4
		c0.1,0,0.1,0,0.2,0c0.1,0,0.2,0,0.3-0.1c0,0,0.1-0.1,0.1-0.1l2.8,0.6c0.3,0.1,0.5-0.1,0.6-0.4c0-0.2,0-0.4-0.1-0.5
		c-2-1.9-3.6-4.2-4.8-6.6c-0.1-1.3-0.2-2.6-0.2-4c-0.1-1.7-0.1-3.4-0.3-5.1c-1-8.1-5.6-15.3-9.8-21.7c2.3,0.4,4.3,1.8,5.4,3.8
		c0.1,0.2,0.4,0.3,0.7,0.2c0.2-0.1,0.3-0.4,0.2-0.6c-2.3-5.2-5.7-9.9-9.8-13.8c0.8-0.3,1.4-0.9,1.8-1.7c0.1-0.2,0.1-0.4,0-0.5
		c-1.1-1.3-2.4-2.4-3.9-3.1c-1.6-1-3.1-1.9-3.8-3.4c-1-2.1-0.3-4.4,0.6-6.8c0.7-1.8,1.1-3.8,1.1-5.7c0.2-0.9,0.3-1.8,0.5-2.6
		l4.8-27.5c1-5,1.6-10,2-15.1c0.3-7.2-0.6-14.5-2.8-21.4c-1-3.4-2.6-6.6-4.7-9.3c-2.3-2.9-5.6-4.7-9.3-5.1c-3.7-0.2-7.2,1.4-10.2,3
		c-13.1,6.9-25,15.8-35.4,26.3c-5.3,2.3-11.2,3.2-16.9,2.5c-0.2,0-0.4,0.1-0.5,0.2c-0.1,0.1-0.1,0.3-0.1,0.5c0.4,0.9,1,1.7,1.9,2.3
		l-11.7-0.6c-5.2-1.4-10.8-1.6-16.1-1.5c-1.2,0-2.5,0.1-3.7,0.1c-5.8,0.2-11.8,0.4-17.5-0.8c-1.4-0.3-2.9-0.7-4.2-1.1
		c-3-1-6.2-1.5-9.4-1.6c-3.1,0.2-6.2,0.7-9.2,1.7h0c-5.3,0.5-10.7,0.6-16,0.1c1.5-0.4,3-1,4.3-1.8c0.2-0.1,0.3-0.4,0.2-0.7
		c-0.1-0.2-0.3-0.2-0.4-0.2c-5.1-0.1-10.1-1.5-14.5-4.1c-4.8-5.8-9.9-11.4-15.2-16.7c-2.5-2.6-5.2-5-8-7.3c-3.1-3.5-6.8-6.4-11-8.5
		c-3.1-1.5-5.7-2.2-8.1-2c-3.5,0.4-6.7,2.2-8.9,4.9c-5.8,6.3-7.3,15.2-8.1,23.1c-1.4,13.2-0.9,26.6,1.5,39.6l0.2,3.7
		c0.1,1.9,0.2,3.7,0.5,5.5c-0.1,0-0.1,0-0.2,0.1c-0.2,0.1-0.2,0.3-0.2,0.5l2.4,13.8l-3.9-0.9c-0.3-0.1-0.5,0.1-0.6,0.4
		c0,0.2,0,0.4,0.2,0.5c1,0.7,1.8,1.7,2.3,2.9l-4.2,1.8c-0.3,0.1-0.4,0.4-0.3,0.7c0.1,0.1,0.2,0.2,0.3,0.3l2.1,0.7
		c-3.4,1.8-6.1,4.5-8,7.8c-0.1,0.2,0,0.5,0.2,0.7c0.1,0,0.2,0.1,0.2,0.1c0.1,0,0.1,0,0.2,0c1.6-0.7,3.2-1.3,4.8-1.8
		c-1.1,1.8-2.4,3.5-3.8,5.1c-0.6,0.7-1.2,1.2-2,1.7c-0.7,0.4-1.5,0.3-2.2-0.1c-0.2-0.2-0.5-0.1-0.7,0.1c-0.1,0.1-0.1,0.3,0,0.5
		l1.8,3.8l-2.2,0.3c-0.3,0-0.5,0.3-0.4,0.6c0,0.2,0.1,0.3,0.3,0.4c1.2,0.7,1.7,2.2,1.3,3.5c-0.3,1.1-0.7,2.1-1.3,3.1
		c-0.2,0.4-0.4,0.7-0.6,1.1c-1.2,2.7-2.1,5.5-2.7,8.3c-0.2,0.8-0.4,1.7-0.6,2.5c-0.8,3.1-2.1,7-5.1,9.6c-0.2,0.2-0.2,0.5-0.1,0.7
		c0,0,0,0,0,0c1.6,1.5,2.9,3.4,3.8,5.4c-0.2,7.9-1.1,15.8-2.7,23.6c-0.1,0.3,0.1,0.5,0.4,0.6c0.1,0,0.2,0,0.3-0.1l1.4-0.7
		c-2.3,3.7-3.8,7.9-4.5,12.2c-0.1,0.1-0.1,0.2-0.2,0.3c-2.7,14.2-8.9,27.4-18.2,38.4c-0.2,0.1-0.3,0.3-0.4,0.5
		c-0.1,0.2-0.1,0.5,0.2,0.7c0.2,0.1,0.5,0.1,0.6-0.1c0.1-0.1,0.2-0.3,0.3-0.4c0.4-0.2,0.8-0.3,1.2-0.2c1,0.2,1.9,1,2.1,2
		c0.2,1.8-1,3.4-2.1,5l-0.2,0.2c-1.6,2.2-2.9,4.5-4.1,7c-6.1,6-11.5,12.6-16,19.8c-0.5,0.4-1.1,0.9-1.6,1.3c0.1,0.4-0.2,0.9-1,1.4
		c-10.1,6.6-10.1,13.9-9,12.2c1-1.7,4.9-0.7,4.9-0.7s4.9-4.9-6.3,6.6c-11.1,11.5-8,21.9-8,21.9l5.2-3.1c0,0,1.7,5.6-4.2,9.7
		s-4.9,16-4.9,16l5.6-3.8l3.5,16l-48.6-0.3l-0.2-0.1h-67.8c-0.3,0-0.5,0.2-0.5,0.5v24c0,0.3,0.2,0.5,0.5,0.5h138.5c0,0,0.1,0,0.1,0
		c2.9,1.8,6,3.1,9.4,3.7c5.3,1.2,10.6,2,16,2.5c0.2,0.4,0.5,0.7,0.8,1c1.5,1.5,3.7,2.2,5.7,1.7c1.5-0.4,2.8-1.1,3.9-2.2
		c0.7,0,1.3,0,2,0c4.9,0,9.9-0.3,14.9-0.8c5.8-0.6,11.4-1.4,16.1-5.5c0.2-0.1,0.3-0.3,0.5-0.4h150.7c0.8,1.1,1.8,2.1,2.9,2.9
		c5,3.7,10.6,4.2,16.5,4.3c1.3,0,2.7,0.1,4,0.1c4.4,0,8.7-0.2,12.9-0.6c1.2,1,2.6,1.7,4.1,1.9c2.1,0.3,4.2-0.5,5.6-2.2
		c0.3-0.3,0.5-0.7,0.7-1.1c5.3-0.9,10.6-2.1,15.8-3.6l0.1,0c0.2,0.3,0.5,0.5,0.8,0.7c0.7,0.6,1.7,1,2.6,1c0.4,0,0.7-0.1,1.1-0.2
		c1.1-0.4,2-1.2,2.6-2.2c0.2-0.2,0.4-0.6,0.7-1h129.3c0.3,0,0.5-0.2,0.5-0.5v-24C675.3,407.5,675,407.2,674.8,407.2z M267.6,296.4
		L267.6,296.4c0.1-0.1,0.2-0.2,0.3-0.4C267.8,296.2,267.7,296.3,267.6,296.4z M540.7,360.1c-1.4-1.8-2.8-3.6-4.2-5.4
		c-1.3-1.6-2.5-3.2-3.8-4.8c0.4,0,0.8,0,1.2,0c0.2,0,0.4-0.1,0.5-0.3c0.1-0.2,0-0.4-0.1-0.6l-4.2-4.3l5.8-1.1
		c1.8,1.4,3.8,2.6,5.8,3.6c2.1,1,4.1,2.3,5.9,3.7c3.2,2.8,5,6.7,5.1,10.9C549.1,360.3,544.9,359.6,540.7,360.1L540.7,360.1
		C540.8,360.1,540.7,360.1,540.7,360.1z M508.1,356.6c-0.5-2.8-1.1-5.5-1.7-8.2c5-3.1,9.6-6.8,13.7-11c1.8,2,3.5,4,5.2,5.9
		c-0.1,0.1-0.1,0.1-0.2,0.2l0,0C520.3,348.8,514.6,353.3,508.1,356.6z M473.2,343.2l0.9,3.7l-13.9-6.7c-1.2-0.6-2.4-1-3.6-1.4
		c-1-0.8-2-1.5-3-2.2c-0.2-0.1-0.5-0.1-0.7,0.2c0,0.1-0.1,0.2-0.1,0.2c-0.1,2.6,0.6,5.3,2.1,7.5c-5.8-2.3-11-6-15-10.7
		c-0.2-0.2-0.5-0.2-0.7-0.1c-0.1,0.1-0.2,0.3-0.2,0.5l1.5,5.4c-2.5-0.5-4.9-2.2-7.4-5.2c-0.5-0.6-1-1.2-1.4-1.8
		c-1.4-1.8-2.9-3.5-4.7-5c1.6-0.4,3.2-0.9,4.7-1.5c2.4-0.9,5-1.6,7.5-2c0.6-0.1,1.1-0.1,1.7-0.2c2,0,3.9-0.5,5.7-1.4
		c0.9-0.6,1.7-1.4,2.4-2.3c0.2-0.3,0.5-0.5,0.7-0.8c2-2.1,4.5-3.7,7.3-4.5c6,8.8,11.7,17.7,17.6,26.5c0.1,0.5,0.1,1,0.1,1.4
		l-0.9-0.4c-0.2-0.1-0.5,0-0.7,0.2C473.2,343,473.2,343.1,473.2,343.2z M401.4,328c-0.2-0.1-0.4,0-0.5,0.1
		c-7.2,7-16.8,11.1-26.9,11.4c-0.3,0-0.5,0.2-0.5,0.5c0,0.1,0.1,0.3,0.2,0.4c1.5,1.4,3.5,2.2,5.5,2.5l-7.2,2.6
		c-0.3,0.1-0.4,0.4-0.3,0.6c0,0.1,0.1,0.2,0.2,0.3l0.6,0.3c-1.8,0.4-3.6,0.9-5.3,1.4c-0.1,0-0.2,0.1-0.2,0.2l-9.9,2.3
		c-0.3,0.1-0.4,0.3-0.4,0.6c0,0.2,0.2,0.3,0.4,0.4c4.7,1,9.5,1.5,14.3,1.5c0.5,0.4,1.1,0.7,1.7,1c-9.7,5.4-24.1,8.7-34.7,1.6
		c0.8-0.1,1.7-0.3,2.5-0.5c1.2-0.4,2.4-0.6,3.6-0.5c0.3,0,0.5-0.2,0.5-0.4c0-0.3-0.1-0.5-0.4-0.6c-0.8-0.2-1.5-0.5-2.2-0.7
		c1-1.3,2.1-2.6,3.1-3.9c6.1-7.7,12-15.5,17.9-23.2c0.9-0.3,1.8-0.5,2.7-0.8l0,0c5.6-1.4,11.5-1.6,17.2-1.9c0.3,0,0.5-0.2,0.5-0.5
		c0-0.2-0.1-0.3-0.2-0.4c-4.2-2.8-9.3-4.2-14.4-4c0.4-0.5,0.8-1.1,1.2-1.6l1.4-0.7c0.2-0.1,0.3-0.4,0.2-0.7
		c-0.1-0.1-0.2-0.2-0.3-0.2c1.1-1.4,2.3-2.8,3.4-4.2l0,0c0.8,0.2,1.7,0.4,2.6,0.6c1.8,0.3,3.6,0.5,5.4,0.5c1.2,0.4,2.4,0.6,3.6,0.7
		c-0.1,2.1,0.7,4.2,2.2,5.6c1.4,1.1,3.1,1.9,4.8,2.4l15.7,5.4l1.3,0.4c-0.3,0.1-0.6,0.2-0.9,0.3c-3.8,1.7-7.2,4-10.3,6.7
		c1-1.4,1.7-3,2.3-4.6C401.8,328.3,401.7,328,401.4,328z M293.9,366.2c0.1-0.5,0-1.1-0.1-1.6c0-0.3-0.3-0.4-0.5-0.4l-4.2,0.5
		l2.2-2.9c0.2-0.2,0.1-0.5-0.1-0.7c-0.1-0.1-0.3-0.1-0.4-0.1l-3.7,0.8l2.3-4.2c0.1-0.2,0-0.5-0.2-0.7c0,0-0.1,0-0.1-0.1l-2-0.4
		l0.1-0.2c5.7-6.9,11.5-13.9,17.6-20.8c3.6,4.7,7.4,9.2,11.6,13.5c-4.5,6.4-8.9,13.1-12.6,19.3c-1.8-0.7-3.6-1.3-5.5-1.6v0
		C296.8,366.4,295.4,366.2,293.9,366.2z M297.9,298.3c6-4.3,12.2-8.3,18.6-12c1.8,2.2,3.9,4.1,6.3,5.7c0.2,0.2,0.5,0.1,0.7-0.1
		c0.1-0.1,0.1-0.3,0.1-0.4c-0.6-1.9-0.6-3.8-0.3-5.8c2.4,1.6,5.3,2.4,8.1,2.1c-6.8,4.3-13.3,9-19.6,13.8c-4.1,3.1-8.1,6.3-12.1,9.5
		C300.1,306.8,299.5,302.4,297.9,298.3z M327.3,280.7c4.6-2.2,9.4-4.2,14.4-6c0.7,0.2,1.3,0.3,2,0.3c-1.1,3.5-3.6,6.3-6.9,7.8
		c-1.6,0.7-3.3,1.2-5,1.2C330.2,283.1,328.7,281.9,327.3,280.7z M335.3,287.9c3.6,0.6,7.4,0.4,10.9-0.6l1.5,6.1
		c-9,6-17.1,13.3-24.8,20.7c-3.4,3.4-6.8,7-10.2,10.5c-1.9-2.8-3.3-6-4.2-9.3c-0.1-0.3-0.3-0.4-0.6-0.4c-0.1,0-0.1,0.1-0.2,0.1
		l-2.2,1.9l-0.9-7.6C314.4,301.5,324.6,294.4,335.3,287.9z M357.9,307.3c0.2-0.1,0.3-0.2,0.3-0.4l0.5-3.1c4.7,2.5,9.6,4.6,14.6,6.2
		c-1.2,1.5-2.4,3-3.5,4.3c-6.6-1.5-13.5-1.8-20.2-0.8l0.8-5.3c1.4-1.5,2.7-2.9,4.2-4.3c0.8,1.1,1.7,2.2,2.7,3.2l0,0
		C357.5,307.3,357.7,307.4,357.9,307.3z M350.9,305.7l0-0.1c0-0.3-0.1-0.5-0.4-0.6c-0.2,0-0.4,0-0.5,0.2l-3.4,4.4
		c-0.1-4-0.8-8-2-11.8c0-0.1-0.2-0.2-0.3-0.3c0,0,0,0,0,0c1.4-1,2.8-1.9,4.2-2.9c0.1,0,0.2-0.1,0.3-0.2l0,0c0.3-0.2,0.7-0.4,1-0.7
		c0.8,3.2,2.2,6.2,4,8.9C352.9,303.7,351.9,304.7,350.9,305.7z M313.6,325.8c7.4-8,15.3-15.6,23.7-22.7c-1,1.2-1.8,2.6-2.5,4h0
		c-0.1,0.2,0,0.5,0.2,0.7c0.2,0.1,0.5,0,0.7-0.2c0.9-1.6,2.3-3,4-3.8c-0.7,2.6-1.9,5.1-3.6,7.3c-0.1,0.2-0.1,0.4-0.1,0.5
		c0.1,0.2,0.3,0.3,0.5,0.3c1,0,2.1-0.3,3-0.7c-1.7,3.7-2.8,7.7-3.3,11.7c-3.8,4.7-7.5,9.5-11.1,14.3c-0.4-0.3-0.9-0.7-1.4-1.1
		l-1.3-1.1C319,332.3,316.1,329.2,313.6,325.8z M325.1,341.4c2.7,0.7,5.7,1.5,9.4,2.6c0,0,0.1,0,0.1,0c0.3,0,0.5-0.2,0.5-0.5
		c0-0.2-0.1-0.4-0.3-0.4l-1.8-0.9c-2.4-1.1-4.7-2.5-6.8-4.1c3.3-4.3,6.5-8.5,9.8-12.7c0,0.3,0,0.6,0,0.9c0,0.2,0.1,0.3,0.2,0.4
		c0.2,0.1,0.3,0.1,0.5,0c5.4-2.9,11-5.1,16.9-6.8c-2.9,3.6-4.1,8.3-3.2,12.8c0,0.2,0.2,0.3,0.4,0.4c0,0,0.1,0,0.1,0
		c0.1,0,0.3-0.1,0.4-0.2c2.6-2.7,5.7-4.8,9.1-6.2c-5.8,7.7-11.4,15.4-16.6,23.5c-0.5,0.8-1.1,1.7-1.6,2.5c-6.6-2.4-12.6-7-18.2-11.7
		L325.1,341.4z M385.8,310.6c0.4,0,0.8-0.1,1.2-0.1C386.6,310.5,386.2,310.5,385.8,310.6L385.8,310.6z M410.4,320.5
		c-1.5-1-3-2-4.8-1.9c-0.4,0-0.9,0.1-1.3,0.2c-0.3,0.1-0.6,0.1-1,0.2c-0.6,0.1-1.2-0.1-1.6-0.5c-0.2-0.3-0.3-0.5-0.3-0.8
		c-0.1-0.3-0.2-0.7-0.3-1c-0.6-0.9-1.6-1.5-2.7-1.3c-0.5,0-0.9-0.2-1.3-0.3c-0.7-0.2-1.3-0.8-1.4-1.5c-0.2-0.7,0.1-1.5,0.6-2
		c0.8-0.7,1.4-1.4,2-1.9c2.4-0.9,4.8-1.8,6.7-2.6c1.8-0.8,3.4-1.9,5-3c2.7-1.9,5.4-3.8,8-3.9c0.6,0,1.3-0.1,2-0.1
		c3.3-0.3,7.9-0.6,9.9,1.3c4.3,4,9.2,7.3,14.6,9.6c-0.2,1.8-0.8,3.5-1.7,5l0,0c-0.9,1.7-1.9,3.5-3.6,4c-1,0.2-2,0.2-3,0
		c-0.5-0.1-1-0.1-1.5-0.2c-2.3,0-4.6,0.5-6.7,1.5l-0.9,0.3c-6.2,2.2-11.3,2.2-15,0.1C411.3,321.2,410.9,320.9,410.4,320.5z
		 M412.3,263.1c-0.8,0-1.6,0-2.4,0.1c-0.6,0.1-1.2,0.1-1.9,0.1c-1.2,0-2.6-0.5-3-1.6c-0.1-0.5-0.1-1,0.1-1.5
		c0.1-0.1,0.3-0.1,0.4-0.2c0.7-0.4,1.4-0.8,2-1.2c1.3-0.8,2.8-1.6,4.2-2.1c1.4-0.1,2.8,0,4.2,0.5c0.5,0.2,1.1,0.5,1.6,0.7
		c1.1,0.6,2.2,1,3.4,1.2c1.4,0.1,2.7-0.1,4-0.5c1.3-0.4,2.6-0.6,3.9-0.4c1.4,0.4,2.8,1.1,3.9,2.1c0.7,0.6,1.5,1.1,2.3,1.5
		c0,0,0,0,0,0c-0.2,1-1,1.9-2,2.1c-0.6,0.1-1.2,0.1-1.8-0.1c-0.8-0.2-1.6-0.2-2.3,0c-1.5,0.4-2.5,1.9-2.4,3.4
		c0.1,0.6,0.3,1.1,0.6,1.7c0.2,0.4,0.4,0.8,0.5,1.3c0.1,1-0.2,2-0.8,2.8c-0.1,0.1-0.2,0.2-0.3,0.3c-0.6,0.5-1.3,0.8-2,0.9
		c-0.7,0-1.3-0.3-1.7-0.9c-0.1-0.3-0.2-0.7-0.2-1.1c0-0.6-0.1-1.1-0.4-1.6c-0.1-0.1-0.2-0.2-0.3-0.2c-0.1,0-0.3,0-0.4,0.1
		c-0.6,0.5-1,1.3-1,2.1c-0.1,0.6-0.2,1.2-0.6,1.4c-0.5,0.2-1,0.2-1.5,0.1c-0.3-0.1-0.6-0.2-0.8-0.3c-1.2-0.9-2.2-1.8-2.2-2.7
		c0-1,0.2-1.9,0.6-2.8c0.3-0.8,0.5-1.6,0.4-2.4C416.1,264.2,413.8,263.2,412.3,263.1z M458.7,315c1.1,0.1,2.1,0.2,3.2,0.2
		c1.5,0,3.1-0.1,4.5-0.5c0.1,0,0.1-0.1,0.2-0.1c0.5,0,0.9-0.1,1.4-0.2c3.2,8,5.3,16.4,6.4,25c-5-8.1-10.2-16.2-15.5-24L458.7,315z
		 M469.4,314.2c2.7-0.9,5.3-2.2,7.6-3.9c2.7-1.7,5.3-3.4,8.3-4c1.4-0.3,2.8-0.4,4.2-0.3c6.7,12,11.1,25.1,14.4,38.5
		c-0.7,0.2-1.5,0.5-2.2,0.7l0,0c0.5-2.2-0.1-4.6-1.7-6.3c-0.2-0.2-0.5-0.2-0.7,0c-0.1,0.1-0.1,0.2-0.1,0.3c-0.5,3.6-3.2,6.5-6.7,7.4
		c-3.6,0.8-7.3-0.6-9.5-3.6c-0.2-0.2-0.5-0.3-0.7-0.1c-0.1,0.1-0.2,0.3-0.2,0.5l0.3,3.4l-5.1-2.5c-0.4-0.6-0.8-1.3-1.2-1.9
		C475.2,332.7,472.9,323.2,469.4,314.2z M494.5,312.2c-0.6-1.5-1.3-2.9-2.1-4.3c8.9,8.5,17.9,18.4,25.8,27.3
		c-3.5,3.9-7.9,6.9-12.8,8.8v0C502.8,333.1,499.2,322.4,494.5,312.2z M476.7,357.2c0,0,0.1,0,0.1,0c0.2-0.1,0.3-0.3,0.2-0.5
		c0-1,0.7-1.9,1.7-2.2l1.3,4.9c0.1,0.2,0.3,0.4,0.5,0.4c0.1,0,0.2,0,0.3-0.1l12.7-7.5l-2.1,2.4c-0.2,0.2-0.2,0.5,0,0.7
		c0.1,0.1,0.3,0.2,0.5,0.1c4.6-1.6,9-3.7,13.2-6.2c0.6,2.7,1.2,5.4,1.7,8.1c-3.1,1.5-6.3,2.7-9.5,3.7c-0.3,0.1-0.4,0.4-0.3,0.6
		c0,0.2,0.2,0.3,0.3,0.3c3.4,0.8,7,0.6,10.3-0.6c0.3,1.7,0.6,3.4,0.9,5.1c-3.2-0.1-6.4,0.2-9.5,0.9c-3.6,0.9-7,2.5-9.9,4.8
		c-1.8,1.3-3.7,2.5-5.7,3.6c-1.1,0.5-2.3,0.8-3.6,0.9c-1.8,0.2-3.6,0.7-5.3,1.4C475.7,371.2,476.5,364.2,476.7,357.2z M521.1,336.3
		c0.1-0.1,0.2-0.2,0.3-0.3c3.9-4.2,5.3-7.9,4.1-11.1c-0.1-0.2-0.3-0.3-0.5-0.3c-0.2,0-0.4,0.1-0.5,0.3c-1.3,3.3-3.1,6.5-5.4,9.2
		c-4.8-5.4-9.8-10.8-14.8-16.1c-3.6-3.6-7.5-7.8-11.8-11.9l21.3,1.1c0.2,0,0.4-0.1,0.5-0.4c0.1-0.2,0-0.5-0.2-0.6l-3.7-2.2
		c2.1,0.1,4.1-0.4,5.9-1.4c0.2-0.1,0.3-0.4,0.2-0.7c-0.1-0.2-0.3-0.3-0.5-0.3c-6.1,1-12.2-1.8-18.3-5.1c-0.8-0.4-1.6-0.9-2.3-1.6
		c-0.5-0.5-0.8-1.2-0.7-1.9c2.2-0.7,4.5-0.7,6.7-0.1c0.3,0.1,0.5-0.1,0.6-0.4c0-0.1,0-0.3-0.1-0.4l-2.4-3.1c0.3,0.1,0.7,0.3,1,0.4
		c0.1,0.1,0.3,0.2,0.4,0.2c16.2,6.8,31.2,15.9,44.6,27.2c-0.3,1.8-0.5,3.7-0.8,5.5L541,318c-0.2-0.2-0.5-0.3-0.7-0.1
		c-0.1,0.1-0.2,0.2-0.2,0.4c-0.2,5.8-1.3,11.5-3.3,16.9l-5.3-6.9c-0.2-0.2-0.5-0.3-0.7-0.1c-0.2,0.1-0.2,0.3-0.2,0.5
		c1.3,4.9-1.5,9.8-4.4,13.5C524.5,340.2,522.8,338.3,521.1,336.3z M521.5,97.6c0.3,0.1,0.5-0.1,0.6-0.3c0-0.1,0-0.2,0-0.3
		c-0.6-1.5-1.6-2.8-2.9-3.9c1.6-0.3,3.2-0.2,4.7,0.4c0.2,0.1,0.4,0,0.6-0.1c0.1-0.2,0.2-0.4,0.1-0.6c-1.4-2.5-3.9-4.3-6.7-4.8
		c0.3-0.1,0.5-0.3,0.8-0.4c3.1-1.4,7.6-3,11.5-1.4c4.4,1.8,6.1,7,7.4,12.2c1,4.1,1.8,8.2,2.4,12.3c-6.4-4.5-13.4-7.9-20.9-10.2
		c-1.1-1.5-2.5-2.6-4.1-3.5C517.1,96.8,519.4,97,521.5,97.6z M475,132.2c6.9-4.5,14.5-7.5,22.5-9.1c6.8-1.2,13.8-1,20.6,0.5
		c3,0.8,5.8,1.8,8.6,2.7c0.3,0.1,0.5,0,0.6-0.3c0.1-0.3,0-0.5-0.3-0.6c-2.8-1.2-5.8-2.1-8.7-2.8c-2.6-0.8-5.3-1.4-8-1.8
		c-5.8-1.1-11.7-1-17.4,0.3c-6,1.5-11.3,4.6-16.1,8.1c4.7-7.2,10.2-12.5,30.4-11.9c0.3,0,0.5-0.2,0.5-0.5c0-0.2-0.1-0.4-0.3-0.5
		c-5.4-1.9-11.1-3-16.8-3.1c3.1-1.3,10.1-3.1,20.4,0.1c0.3,0.1,0.5-0.1,0.6-0.3c0.1-0.2,0-0.4-0.1-0.5c-1-0.8-2.1-1.5-3.2-2.1
		c6.6,0.7,13.1,1.8,19.5,3.6c1.2,0.3,2.5,0.8,3.5,1.1c-1-0.4-1.9-0.8-2.9-1.2c-7.4-2.9-15.1-4.6-23-5.1c-1.1-0.6-2.2-1.2-3-1.7
		c2.3-0.2,4.7-0.2,7,0c0.3,0.1,0.5-0.1,0.6-0.4c0.1-0.2,0-0.5-0.3-0.6c-1.3-0.7-4.5-1.3-7.1-1.7c2.6-0.4,5.2-0.6,7.8-0.6
		c3.6,0,7.1,1.1,10,3.1c0.2,0.2,0.5,0.1,0.7-0.1c0.1-0.1,0.1-0.2,0.1-0.3c0-1.5-0.4-3-1.1-4.4c6.5,2.1,12.7,4.8,18.7,8.1
		c0.4,0.2,0.7,0.4,1.1,0.6c0.1,1.1,0.2,2.2,0.3,3.2h0c0.4,7.9-1.1,16.1-4.7,24.8c-0.1,0.1-0.2,0.1-0.2,0.2c-1,2.5-2.6,4.8-4.7,6.5
		c-0.9-0.3-1.8-0.6-2.6-0.9c-14.3-4.5-29.6-7.4-44.7-6c0.1-0.6,0.3-1.1,0.7-1.6c0.1-0.2,0.2-0.4,0.1-0.6c-0.1-0.2-0.3-0.3-0.5-0.3
		c-1.8,0.2-3.6,0.2-5.4,0c4.2-1.8,8.6-3.1,13.1-3.7c11.8-1.9,22.5-1.5,31.7,1.3c0.3,0.1,0.5-0.1,0.6-0.3c0.1-0.3,0-0.5-0.3-0.6
		c-14.8-5.9-31.4-5.5-45.9,1.2c3.2-2.3,6.7-4.1,10.4-5.3c0.3-0.1,0.4-0.4,0.3-0.6c-0.1-0.3-0.4-0.4-0.6-0.3
		c-4.8,1.5-9.3,3.9-13.1,7.1c-0.3-0.2-0.6-0.5-0.9-0.8C474.1,133.7,474.5,132.9,475,132.2z M295.1,207c0.6-1.5,1.3-3.1,2-4.6
		c1.6-3.3,2.9-6.6,3.8-10.1c0.2-0.8,0.4-1.7,0.5-2.6c0.3-1.8,0.8-3.5,1.4-5.2c2.2-4.9,6.9-8.1,12.2-8.4c0.3,0,0.5-0.2,0.5-0.5
		c0-0.1-0.1-0.3-0.2-0.3l0,0c-0.8-0.7-1.8-1.3-2.9-1.6l2.1-1c4.3-0.7,8.7-0.9,13.1-0.6c0.2,0,0.4-0.1,0.5-0.3
		c0.1-0.2,0.1-0.4-0.1-0.6l-5.5-5.9l9.5,0.6c0.3,0,0.5-0.2,0.5-0.5c0-0.2-0.1-0.3-0.2-0.4l-10.2-7.9c1.1-0.1,2.1-0.3,3.1-0.7
		c2.2-0.9,4.2-2.1,6-3.5l13.5-9.6c0.2-0.2,0.3-0.5,0.1-0.7c-0.1-0.1-0.2-0.2-0.4-0.2h0c-4.3,0.1-8.8,0.5-11.7,3.4
		c-0.5,0.5-1,1.1-1.4,1.6c-0.6,0.8-1.3,1.6-2.1,2.2c-2.6,1.7-6.3,0.3-8.7-1.4c-4.6-3.3-7.6-8.5-8.3-14.1c-0.1-1.3-0.6-2.4-1.5-3.3
		c0-11.1,0.4-21.4,1-31.3c0.3-4.7,0.7-9.2,2.3-13.4c1.8-4.7,5-8.2,8.8-9.8c0.6-0.3,1.3-0.5,2-0.6c3.5,0.8,6.9,2,10.1,3.6
		c-2.8,1-5.1,3.3-6.2,6.1c-0.3,1-0.5,2-0.5,3.1c-4.2,0.9-8.2,2.4-12,4.3c-0.9,0.4-1.7,0.9-2.6,1.4c1.2-0.6,2.3-1,3.6-1.5
		c3.6-1.2,7.3-2.2,11.1-2.9c0.2,1.9,0.9,3.6,2.1,5.1c0.1,0.1,0.2,0.2,0.4,0.2c0.2,0,0.3-0.1,0.4-0.2c1.9-2.3,4.1-4.4,6.6-6h0.1
		c-0.5,1.9-1.6,3.7-3,5.1c-0.2,0.2-0.2,0.5,0,0.7c0.2,0.2,0.5,0.2,0.7,0c1.9-1.5,4-2.8,6.2-3.8c-2.7,2.4-4.9,5.4-6.4,8.7
		c-5.7,1.4-11.2,3.5-16.4,6.3c-0.8,0.4-1.8,1-2.5,1.4c1.5-0.7,2.8-1.2,4.3-1.8c4.5-1.7,9.2-3.1,13.9-4.2c-0.5,1.2-0.8,2.4-1.1,3.6
		c-0.1,0.3,0.1,0.5,0.4,0.6c0.1,0,0.3,0,0.4-0.1c4.3-3,9.3-4.9,14.6-5.4c-2.5,0.9-4.8,2.4-6.7,4.3c-0.2,0.2-0.2,0.5,0,0.7
		c0.1,0.1,0.4,0.2,0.6,0.1c4.2-1.9,8.9-1.9,13.1-0.2c3.8,1.7,7.2,4.3,9.6,7.6c0.2,0.3,0.5,0.6,0.7,0.9c-2.1-0.8-4.3-1.5-6.5-2
		c-11.2-2.9-23-3.4-34.4-1.4c-0.8,0.1-1.7,0.3-2.4,0.4c1.5-0.1,3-0.2,4.5-0.3c8.7-0.2,17.4,0.2,26,1.3c4,0.5,8,1.3,12,2.2
		c0.4,0.1,0.8,0.2,1.2,0.3c0.6,0.8,1.2,1.7,1.7,2.6c-3.3-1.4-6.7-2.4-10.3-3.1c-6.7-1.4-13.6-1.7-20.4-1c-6.8,0.7-13.4,3.1-19.1,6.9
		c-0.2,0.2-0.3,0.5-0.1,0.7c0.1,0.2,0.4,0.3,0.6,0.2c9.3-4.3,19.4-6.5,29.6-6.3c7.4,0.2,14.7,2.1,21.3,5.4c0.4,0.7,0.8,1.4,1.2,2.1
		c-1.5-0.8-3.2-1.1-4.9-1.1c-0.3,0-0.5,0.2-0.5,0.5c0,0.1,0.1,0.3,0.2,0.4c0.5,0.4,0.9,0.9,1.4,1.4c-10.5-4.6-22-6.2-33.4-4.5
		c-0.3,0-0.5,0.3-0.4,0.5c0,0.3,0.3,0.5,0.5,0.4c10.9-0.7,20.4,0.3,28.5,3c-8.4-1.6-17.1-0.7-25,2.7c-0.3,0.1-0.4,0.4-0.3,0.7
		c0.1,0.2,0.4,0.3,0.6,0.3c5.9-2.1,12.1-2.9,18.3-2.5c5.2,0.4,10.2,2.1,14.5,5c-0.9,0-1.8,0.1-2.6,0.3c-3.9-0.2-7.7,0-11.6,0.4
		c-11.3-1-22.9,1.1-33.5,5.1c-1.1,0.4-2.4,0.9-3.3,1.4c1.4-0.5,2.8-0.9,4.3-1.3c8.2-2.1,16.6-3.3,25-3.7
		c-8.4,2.2-16.1,6.5-25.4,13.6c-1.3,1-2.8,2.2-4,3.2c1.6-1.1,3.3-2.2,5-3.2c8.6-5.3,16.8-9.5,26.4-12c2.8-0.6,5.5-1.1,8.2-1.5
		c0.9,0,1.8,0.1,2.7,0.2c-1,0.5-2,1-3,1.6c-3.8,2.4-7.3,5.1-10.5,8.1c-0.2,0.2-0.2,0.5,0,0.7c0.1,0.1,0.2,0.2,0.4,0.2
		c0,0,0.1,0,0.1,0c2.4-0.8,4.7-1.9,6.9-3.1c3.8-1.9,8.2-4.1,11.6-4.7c0.9-0.1,1.9-0.1,2.8,0c2.1,0.1,4.3,0.2,5.2-0.9
		c0.2-0.3,0.4-0.7,0.4-1l3.2,2.3c0.2,0.2,0.5,0.1,0.7-0.1c0.1-0.1,0.1-0.2,0.1-0.3l-0.1-2.9l4.3,2.7c0.2,0.1,0.5,0.1,0.7-0.2
		c0,0,0-0.1,0-0.1c0.8-2.5-0.6-5-2.2-7.4c-1.4-2.1-2.9-4.2-4.4-6.3c0.3-0.2,0.6-0.4,0.8-0.6c0.3-0.4,0.5-0.8,0.5-1.3
		c2.4-0.3,4.8-0.8,7.1-1.5c1.3,0,2.7-0.2,4.2-0.4c2.1-0.3,4.3-0.5,6.4-0.5c3.5,0.2,6.9,0.7,10.2,1.5c1.3,0.3,2.5,0.5,3.8,0.8
		c7.2,1.2,14.4,1.7,21.7,1.6h0.6c6.3,0,12.7-0.2,19.1-0.5c6.5,2.3,13.6,2.6,20.3,0.8c-0.6,3-1.9,5.8-3.7,8.2
		c-0.2,0.2-0.1,0.5,0.1,0.7c0,0,0.1,0.1,0.1,0.1c-1.1,1.6-1.9,3.3-2.5,5.1c-1.2,3.9-0.4,7.9,1.9,10.4c0.2,0.2,0.5,0.2,0.7,0
		c0,0,0.1-0.1,0.1-0.1c0.7-1.2,1.6-2.3,2.6-3.2c0,0,0.1,0,0.1,0c0.1,0,0.2,0,0.3-0.1c0.1-0.1,0.2-0.1,0.2-0.2
		c3.3,3.3,19.7,9.7,20.9,9.7h0c0.2,0,0.4-0.2,0.5-0.4c0.1-0.4-0.3-0.6-0.5-0.7c-4.9-2.8-10-6.1-10.5-8.8c6.5,0.1,13.1,0.6,19.6,1.5
		c8.3,1,16.5,2.4,24.6,4.2c1,0.2,2.1,0.5,3.1,0.7c-2.4,2.1-5.3,3.5-8.4,4.2c-6,1.2-12.2,0.2-17.5-2.7c-0.7-0.4-1.4-0.8-2.2-1.2
		c-2.9-1.6-5.8-3.3-9.2-3.2c-0.6,0-1.3,0.2-1.7,0.7c-0.2,0.2-0.3,0.6-0.3,0.9c0.1,0.9,1,1.3,1.4,1.5l23,9.4c1.5,0.6,3,1.3,4.4,2.2
		c1.3,0.8,2.3,2.1,2.7,3.6c0,0.2,0.2,0.3,0.3,0.4c0.1,0,0.1,0,0.2,0c0.1,0,0.2,0,0.3-0.1c1.8-1.3,3.4-2.8,5-4.5
		c2.4-1.9,4.4-4.1,6.2-6.5c-1,4.4-2.7,8.7-5,12.6c-0.1,0.2-0.1,0.5,0.2,0.7c0.1,0.1,0.3,0.1,0.4,0l3-1l-0.2,0.9l-5.8,8.9l-1.8-7.5
		c-0.1-0.3-0.3-0.4-0.6-0.4c-0.1,0-0.2,0.1-0.2,0.1l-1.5,1.4c-2.5-5.1-4.9-8.3-7.3-9.8c-0.2-0.1-0.5-0.1-0.7,0.2
		c-0.1,0.1-0.1,0.3,0,0.4c2,6.2,3.4,12.6,4.1,19c0,0.3,0.3,0.5,0.6,0.4c0.1,0,0.2-0.1,0.3-0.2c0.7-0.8,1.3-1.7,1.8-2.7l0.3,6.1
		c0,0.3,0.2,0.5,0.5,0.5c0.1,0,0.2,0,0.3-0.1l2.8-2.2c4.8,2.6,9,6.2,12.3,10.6l-2.1-0.1c-0.2,0-0.4,0.1-0.5,0.3
		c-0.1,0.2,0,0.4,0.1,0.6c5.9,5.1,8.5,13.1,10.5,20.1l0.4,1.4c1.1,4.5,2.6,9,4.5,13.3l-1.3-0.9c-0.2-0.2-0.5-0.1-0.7,0.1
		c-0.1,0.1-0.1,0.3-0.1,0.4l2.7,8.5l-3.4-1.3c-0.3-0.1-0.5,0-0.6,0.3c-0.1,0.1,0,0.3,0,0.4c6.4,13.1,6.9,28.2,1.3,41.7l-2.9-4
		c-0.2-0.2-0.5-0.3-0.7-0.1c-0.2,0.1-0.2,0.3-0.2,0.5c0.7,4.4-0.1,9-2.3,12.9l-1.5-2.4c-0.1-0.2-0.5-0.3-0.7-0.2
		c-0.2,0.1-0.3,0.4-0.2,0.6c1.8,3.9,1.5,8.5-0.8,12.2c-0.1,0.2-0.1,0.5,0.2,0.7c0.2,0.1,0.4,0.1,0.6,0c3.3-2.3,6.2-5.1,8.7-8.4
		c0.6,2.1,1.3,4.2,2.1,6.2c-0.1,2.9-0.3,5.3-0.4,7.5l-2.7-3.7c-0.2-0.2-0.5-0.3-0.7-0.1c-0.1,0.1-0.2,0.2-0.2,0.4
		c-0.1,6.7-0.5,13.3-1.3,19.9c-13.4-11.1-28.3-20.2-44.4-26.9c0-2.5-0.9-5-2.7-6.8c-0.2-0.2-0.4-0.2-0.6-0.1c-1.6,1-3,2.5-3.8,4.3
		c-7.1-2.5-14.5-4.3-21.9-5.5c7.6,2,14.7,4.2,21.3,6.7c-0.5,1.1-0.9,2.2-1.3,3.3c-1.3,3.3-2.5,6.5-5.3,8.2c-0.1,0-0.2,0.1-0.2,0.1
		c-2-3-4.3-5.9-6.7-8.6l-0.8-1.7l2.2,0.7c0.3,0.1,0.5-0.1,0.6-0.3c0.1-0.2,0-0.4-0.1-0.5l-2.2-2.1c-0.1-0.1-0.2-0.1-0.3-0.1
		c-2.3-0.4-2.7-0.4-2.9,0.1c0,0.1,0,0.2,0,0.2c-3.1-3.1-6.3-6.2-10.1-8.4c3.8,2.9,7.2,6.2,10.2,9.9c0,0-0.1,0-0.1,0.1
		c-0.2,0.2-0.2,0.5,0,0.7c0.1,0.1,0.1,0.1,0.2,0.2l1.7,1.3c1.4,1.8,2.8,3.5,4,5.1c1,1.4,2,2.8,2.9,4.2c-0.1,0-0.2,0.1-0.3,0.1
		c-7.9-6.7-16.5-12.2-25.6-13.1c6.9,0.9,15.3,6.3,24.1,13.8c-0.7,0.3-1.4,0.8-2,1.4c-0.4,0.5-0.8,1-1.2,1.5
		c-0.3,0.4-0.5,0.8-0.8,1.2c-0.9,0.9-2,1.7-3.2,2.2c-2.9,1.4-5.9,2.5-9,3.3c-0.3-0.7-0.6-1.3-0.9-2c-5.9-12.6-12.9-25.6-24.6-34
		c10.9,9.5,17.5,22.6,23.7,35.5c0.1,0.3,0.2,0.6,0.4,0.8c-3.3,0.7-6.8,1.1-10.2,1.1c-5.6-8.1-15.1-20.7-21.6-21
		c6.1,0.7,14.8,13.7,19.6,20.5c-3.9-1.3-9.5-3.3-12.4-5c-3.8-2.2-9.1-8.1-14.9-16.4l-0.1-0.1c-2.2-3.1-2.9-6.9-3.3-10.6
		c0.1-0.3,0.2-0.5,0.4-0.7c0.6-0.8,1.4-1.4,2.3-1.9c0.2-0.1,0.4-0.3,0.6-0.4c0.7-0.4,1.2-0.9,1.7-1.5c0.9-0.8,1.5-1.7,1.8-2.8
		c0.1-0.4,0.2-0.8,0.2-1.1c0.1-0.7,0.3-1.4,0.7-2c0.6-0.6,1.4-1,2.3-1.2c0.7-0.2,1.3-0.4,1.9-0.8c1.2-0.7,1.9-1.9,2.1-3.2
		c0.3,0.1,0.6,0.1,0.9,0.1c1.4,0.1,2.8-0.6,3.5-1.9c0.1-0.2,0-0.5-0.2-0.7c0,0-0.1,0-0.1,0c-1-0.4-1.5-1.4-1.2-2.4
		c0.3-1,0.7-1.9,1.4-2.7l0.3-0.5c0.9-1.1,1.3-2.5,1.2-3.9c0-0.3-0.3-0.5-0.6-0.4c-0.1,0-0.2,0.1-0.3,0.2c-1.6,2-4.2,2.8-6.2,3.1
		c-1.4,0.2-2.9,0.3-4.3,0.3c-1,0-2.1,0.1-3.1,0.2c-2.4,0.1-4.8,0.9-6.8,2.3l-0.4-0.4c-0.7-0.8-1.5-1.3-2.5-1.6
		c-0.3-0.1-0.6-0.2-0.9-0.2c-0.4-0.2-0.9-0.3-1.4-0.4c-0.3-0.1-0.7-0.2-1-0.3c-3.3-1.2-5.3-4.5-4.9-7.9c0.7-3.5,3.2-6.2,6.6-7.2
		c0.4-0.1,0.8-0.2,1.2-0.3c0.8-0.2,1.6-0.4,2.4-0.7c1.3-0.5,2.3-1.8,2.4-3.2c-0.1-1.9-2.1-3.1-4-3.3c-3.3-0.5-6.5,0.7-9.6,1.9
		c-2.8,1.1-5.7,2.1-8.6,1.9c-1.9-0.1-4.1-1.1-4.7-2.9c-0.2-0.9-0.2-1.8,0.1-2.7c0,0,0,0,0,0c0.7-0.9,2.2-10.4,1.1-16.6
		c-0.8-4.9-4.9-9.7-11.1-13c-5.3-2.9-11.6-3.5-17.3-1.5c-1.5,0.6-2.9,1.2-4.3,2c-1.1,0.6-2.3,1.2-3.5,1.6c-3.5,1.4-7.3,1.9-11,1.5
		c-0.1,0-0.2,0-0.3,0c-3.1-0.6-6.1-1.6-8.9-2.9c-0.2-0.1-0.5,0-0.7,0.2c-0.1,0.1-0.1,0.3,0,0.4c0.6,1.6,1.9,2.8,3.5,3.4
		c-4.2,3-9.9,3-14-0.1c-0.2-0.2-0.5-0.1-0.7,0.1c-0.1,0.2-0.1,0.4,0,0.6c1.2,1.6,2.8,2.8,4.6,3.7c0.6,0.3,1.2,0.7,1.6,1
		c2.8,1.9,6.3,2.4,9.5,1.5c-0.4,0.6-0.9,1.2-1.4,1.7c-0.2,0.2-0.2,0.5-0.1,0.7c0.1,0.1,0.2,0.2,0.4,0.2c0,0,0.1,0,0.1,0
		c3.5-0.9,6.8-2.2,9.9-4c-0.2,0.9-0.2,1.9,0,2.8c0.4,4.1,1.5,8.1,3.3,11.9c1.9,3.8,5,7,8.9,9c2.2,1.1,4.6,1.6,7.1,1.6
		c1.9,0,3.9-0.4,5.7-1.2c0.3-0.1,0.4-0.4,0.2-0.7c-0.1-0.2-0.2-0.3-0.4-0.3c-6.2-0.5-11.9-3.6-15.6-8.6c-3.4-4.8-4.4-10.8-2.9-16.4
		c5.1-3.2,11.2-4.6,17.2-3.9c-1.6,1.1-2.9,2.7-3.5,4.6c-0.7,2.1-1,4.2-0.9,6.4c0.1,3.5,0.9,6.1,2.4,7.9c0.1,0.1,0.2,0.2,0.3,0.2h0
		c0.1,0,0.2,0,0.3-0.1c3-2.7,4.9-6.5,5.2-10.5c0-0.3-0.2-0.5-0.4-0.5c-1.1-0.2-2.1-0.2-3.2,0.1c-0.1-1.2-0.1-2.4-0.1-3.6
		c0-0.3,0-0.6,0.2-0.9c0.2-0.3,0.5-0.6,0.8-0.6c0.4-0.1,0.9-0.1,1.3-0.1c0.3,0,0.5-0.2,0.5-0.5c0-0.1,0-0.2-0.1-0.2
		c-0.3-0.7-0.8-1.3-1.3-1.8c0.7,0.1,1.3,0.3,2,0.4c6.4,1.3,11.4,6.5,12.6,12.9c0,0.5-0.1,1-0.1,1.5c-0.5,2.8-1.8,5.5-3.6,7.7
		c-1.5,2.1-3.6,3.8-6,4.8c-0.6,0.1-1.2,0.2-1.8,0.4c-0.3,0.1-0.4,0.4-0.3,0.6c0.1,0.2,0.3,0.4,0.5,0.4c0.6-0.1,1.3-0.2,1.9-0.4
		c1.4-0.2,2.8-0.3,4.2-0.1c-0.2,1.1,0.2,2.2,1,2.9c0.8,0.6,1.8,0.9,2.8,0.9c0.5,0,0.9,0.1,1.4,0.2c1.6,0.5,2.9,1.7,3.5,3.2
		c0.6,1.6,1,3.3,1.2,5c0.4,3,0.7,6.3-1.4,8.4c-0.3,0.3-0.5,0.5-0.8,0.7c-0.5,0.4-1,0.9-1.4,1.4c-0.6,1-0.8,2.2-0.4,3.3
		c0.6,1.6,1.8,2.8,3.3,3.3c0.7,0.2,1.4,0.3,2.1,0.3c1.2,0,2.5-0.3,3.6-0.7c0,0.4,0,0.9,0.1,1.3c0.6,1.6,1.8,2.9,3.3,3.6
		c0.4,0.2,0.9,0.4,1.3,0.6c0.9,0.3,1.7,0.8,2.4,1.4c1.1,1.3,2,2.7,2.5,4.3c0.7,1.6,2,2.8,3.6,3.5c0.4,0.3,0.9,0.6,1.3,0.8l0.2,0.1
		c0.3,0.1,0.5,0.3,0.7,0.5c0.1,0.3,0.2,0.6,0.2,0.9v0.1c0,0.5,0.1,1.1,0.2,1.6c-0.5,4-1.1,8.6-3.1,11.6c-1.1,1.6-2.3,3-3.7,4.3
		c-3.7,3.7-10.7,8.4-15.4,10.9c-0.7,0.4-1.5,0.7-2.2,1c-3.5,1.1-7.6,0.8-11.8,0.3c-1.7-0.2-3.4-0.4-5.2-0.7c2.7-3.3,5.5-6.6,8.3-9.8
		c3.6-3.9,7.4-8.1,12.5-10.1c-8.4,2.8-16.2,11.6-22.7,19.7c-4.3-0.6-8.5-2.1-12.3-4.3c-1.5-0.9-2.8-2-4.1-3.2
		c2.9-2.7,6.1-5.1,9.3-7.3c0.8-0.5,1.6-1,2.4-1.5c0.1,0.2,0.3,0.3,0.5,0.3c0.2,0,0.4-0.1,0.5-0.3l0.4-0.8
		c7.9-4.9,16.4-8.7,25.4-11.2c4-1.2,8.1-1.8,12.2-1.8c-4.2-0.4-8.4,0-12.5,0.9c-6.7,1.4-13.1,3.8-19.1,7c-1.7,0.8-3.3,1.7-4.9,2.6
		l0.4-0.9c0.1-0.3,0-0.5-0.2-0.7c-0.1-0.1-0.2-0.1-0.3,0c0-0.1-0.1-0.2-0.1-0.3c-0.1-0.2-0.2-0.3-0.4-0.3c-0.2,0-0.4,0.1-0.5,0.2
		l-2.6,4.4c-4,2.7-7.9,5.6-11.5,8.8c-1.4-1.4-2.6-2.9-3.9-4.3c-0.6-0.7-1.2-1.4-1.7-2.1c7.6-4.5,15.5-8.6,23.6-12
		c-8.5,2.7-16.8,6.4-24.5,10.8c-1.3-1.8-2.3-3.8-2.9-5.9c-0.3-1.3-0.5-2.6-0.5-3.9c3.7-1.8,7.4-3.5,11.2-4.9c-0.4,0.7-0.9,1.3-1.2,2
		c-0.1,0.2,0,0.5,0.2,0.7c0.2,0.1,0.4,0.1,0.6,0l-0.1,0.5c-0.1,0.2,0.1,0.5,0.3,0.6c0.1,0,0.1,0,0.2,0c0.2,0,0.4-0.1,0.5-0.3
		c0.9-1.8,2.1-3.4,3.6-4.8c1.6-0.5,3.2-1,4.9-1.3c-1.4,0.2-2.8,0.4-4.2,0.7c0.1-0.2,0.1-0.4,0-0.6c-0.2-0.2-0.5-0.3-0.7-0.1
		c-0.2,0.2-0.5,0.4-0.8,0.6c0-0.1,0.1-0.3,0.2-0.6c0.1-0.3,0-0.5-0.3-0.6c-0.2-0.1-0.4,0-0.5,0.1c-0.6,0.6-1.1,1.3-1.7,2
		c-4.2,1-8.3,2.4-12.2,4.1c-0.1-0.6-0.1-1.1-0.2-1.7c-0.3-1.5-0.7-2.9-1.3-4.3c2.9-0.9,5.8-1.8,8.8-2.6c9.6-2.6,19.5-4.2,29.5-4.8
		c2.4-0.1,4.9-0.1,7.3,0.1c1.2,0,2.5,0.3,3.6,0.9c-1-0.7-2.2-1.1-3.4-1.2c-2.7-0.4-5.4-0.6-8.2-0.6c-10.5-0.1-20.9,1.9-31,4.7
		c-2.5,0.7-4.9,1.4-7.2,2.2c-1.5-2.8-3.3-5.5-5.3-8c-0.1-0.2-0.3-0.2-0.5-0.2c-0.2,0-0.3,0.2-0.4,0.4l-0.1,0.3
		c-2.5-2.6-2.1-7.4,0-10.5c0.2-0.2,0.1-0.5-0.1-0.7c-0.2-0.1-0.5-0.1-0.6,0.1c-3.2,3.1-5,7.3-5.2,11.8c0,0.3,0.2,0.5,0.5,0.5
		c0.1,0,0.3,0,0.3-0.1l1.6-1.4c-0.2,1.7-0.9,3.4-2,4.7c-0.2,0.2-0.2,0.5,0.1,0.7c0.1,0.1,0.2,0.1,0.4,0.1l4.7-0.5l-2.6,3.1
		c-0.2,0.2-0.1,0.5,0.1,0.7c0,0,0,0,0,0c0.7,0.5,1.5,1,2.3,1.3c-4.6,1.7-9.1,3.7-13.5,5.7c-2.6-2.1-4.9-4.6-6.8-7.3
		c-4.3-6.3-5.2-13.8-2.3-19.2c0.1-0.2,0-0.5-0.2-0.7c-0.2-0.1-0.4-0.1-0.6,0.1c-3,3.1-5.2,6.8-6.5,11c-1.8-5.5-2.8-11.3-2.9-17.1
		c0-0.3-0.2-0.5-0.5-0.5c-0.2,0-0.4,0.1-0.5,0.3l-3.6,8.5c-2.5-6.3-4.1-13-4.8-19.8c0-0.3-0.3-0.5-0.5-0.4c-0.1,0-0.2,0-0.3,0.1
		l-2.3,1.9c-0.4-2.5-0.6-5.1-0.9-7.8c0.6-1,0.8-2.2,0.7-3.3c-0.1-0.8-0.3-1.7-0.6-2.5c-0.1-0.4-0.2-0.7-0.3-1.1
		C292.1,217.8,292.7,213,295.1,207z M363.5,129.8c-0.1,0-0.1,0-0.2,0.1l-0.2,0C363.2,129.8,363.4,129.8,363.5,129.8z M288.8,265.8
		c0.1-0.5,0.1-1,0-1.5c1.2-2.3,2.7-4.4,4.6-6.2c0.8,4.6,2,9.1,3.5,13.5c0.1,0.2,0.3,0.4,0.5,0.3c0.2,0,0.4-0.2,0.5-0.4l0.4-2.6
		c1.6,4.7,4.7,8.7,8.9,11.3c0.2,0.1,0.5,0.1,0.7-0.2c0.1-0.1,0.1-0.3,0.1-0.4c-0.1-0.4,0-0.8,0.4-1c0.6-0.5,1.5-0.7,2.3-0.4
		c1.2,0.5,2,1.8,2.7,3.1l0.2,0.3c0.7,1.2,1.5,2.4,2.3,3.5c-6.3,3.6-12.4,7.5-18.3,11.8c-1.1-2.6-2.5-5-4.2-7.2
		c-0.2-0.2-0.5-0.3-0.7-0.1c-0.1,0.1-0.2,0.3-0.2,0.4l0,0l0.1,2.2c-1.7-4.6-2.4-9.5-2-14.4c0-0.3-0.2-0.5-0.5-0.5
		c-0.1,0-0.3,0-0.4,0.1l-2.3,1.8L288.8,265.8z M264.9,347.9c1.9-6.7,3.4-13.4,4.5-20.3c1.9-2.4,4.4-4.2,7.3-5.2
		c3.2-0.9,6.5-0.9,9.7,0c-3.3,2.9-6.5,5.8-9.7,8.8c-2,1.8-4.5,4.2-6.1,5.8c2.2-1.8,4.4-3.7,6.6-5.5c3.6-2.9,7.2-5.7,10.7-8.6
		c1.1,0.4,2.2,0.8,3.2,1.3c3.1,1.6,6,3.5,8.8,5.6c0.5,0.3,0.9,0.7,1.4,1c0.8,1.2,1.7,2.4,2.6,3.6c-6.3,7.1-12.4,14.4-18.2,21.9
		l-2-0.4c0.4-0.6,0.6-1.3,0.5-2c0-0.2-0.3-0.4-0.5-0.4c-1.6,0.1-3,0.7-4.2,1.7l1.3-15.6c0-0.3-0.2-0.5-0.5-0.5
		c-0.2,0-0.4,0.1-0.5,0.3c-5,10.1-4.9,27.8-4.9,28.6c0,0.3,0.2,0.5,0.5,0.5c0.2,0,0.3-0.1,0.4-0.2c1.1-1.9,2.4-3.6,4-5.2l0.2,0.9
		c-1.3,1.7-2.5,3.4-3.7,5.1c-0.5,0.1-0.9,0.3-1.4,0.4c-2.4,0.7-4.7,1.6-6.9,2.7c0-0.1,0-0.3,0-0.4c0-0.3-0.2-0.5-0.5-0.5
		c-0.1,0-0.2,0-0.3,0.1l-1.1,0.8l0-0.2c0-0.2-0.1-0.3-0.1-0.5l1-8.9c0-0.3-0.2-0.5-0.4-0.6c-0.1,0-0.2,0-0.3,0.1l-1.3,0.9
		c-0.1-1-0.2-2-0.2-3l2.6-7.9c0-0.2,0-0.3-0.1-0.5c-0.1-0.1-0.2-0.2-0.4-0.2l-2.2,0C264.8,350.1,264.8,349,264.9,347.9z
		 M280.8,367.7c-1.3,0.3-2.5,0.6-3.7,0.9c1.1-1.3,2.1-2.6,3.2-3.9L280.8,367.7z M263.6,363.5l0,0.1l-0.1,0.1L263.6,363.5z
		 M240.9,407.2c-0.3-10.4-0.5-20.8-0.5-31.2h0l2.6-10.7l13.7-23.6c-0.5,8.2,0,16.4,1.5,24.5c0,0.2,0.2,0.4,0.4,0.4
		c0.2,0,0.4-0.1,0.5-0.3l1-2.5c0,0.3,0.1,0.6,0.1,0.9c0.6,3.6,0.8,7.3,0.6,11c-3.3,2.2-6.1,5-8.3,8.2c-3.6,5.3-5.9,14.5-6,23.2
		H240.9z M248,419.3L248,419.3c0.3,1.5,0.7,2.8,1.1,4.1C248.6,422.1,248.2,420.7,248,419.3z M331.3,418.2c1.3-6.3,0.5-12.9-2.2-18.7
		c-0.1-0.2-0.4-0.4-0.7-0.2c-0.2,0.1-0.3,0.3-0.3,0.5c0.5,5.1,0.6,10.2,0.3,15.3c-0.1,1.4-0.3,2.7-0.5,4c-0.3,0.9-0.6,1.7-1,2.5
		c-2.3,2.3-5.1,4.9-5.9,4.9h0c-0.5,0-1.4-0.7-2.1-1.4c-1.1-1-2.3-2-3.4-1.5c-1,0.6-1.8,1.5-2.4,2.5c-0.4,0.8-1,1.5-1.7,2.1
		c-1.1,0.7-2.4-0.3-3.2-1.3c-1-1.6-1.8-3.3-2.2-5.2c-2.3-7.9-3.3-16.1-3-24.2c0.1-0.6-0.3-1.2-0.9-1.4h0c-0.5-0.1-1,0.3-1,0.8
		c-2.2,7.9-2.5,16.2-0.9,24.2c0.1,0.4,0.2,0.9,0.3,1.3c0.6,2.7,1.2,5.6,0.6,8.1c-0.4,1.8-1.6,3.4-3.2,4.4c-4.2,2.7-9.6,1.2-13.1-3.7
		c-1.4-2.2-2.3-4.6-2.7-7.2c-0.3-1.6-1.3-2.2-2.1-2.1c-0.9,0-1.8,0.8-1.9,2.5c-0.2,1.8-0.2,3.5-0.2,5.3v0.1c0,1.6,0.1,3.3-0.5,4.4
		c-0.5,0.8-1.4,1.2-2.3,1c-1.8-0.4-3.3-1.4-4.4-2.9h0.6c0.3,0,0.5-0.2,0.5-0.5c0-0.1,0-0.1,0-0.2c-0.2-0.6-0.4-1.2-0.5-1.9
		c-0.1-0.3-0.3-0.4-0.6-0.4c0,0-0.1,0-0.1,0c-0.4,0.2-0.7,0.3-1.1,0.4c-0.1,0-0.1,0-0.2,0l-0.2,0c0,0,0,0,0,0
		c-1.3-2.4-2.1-5-2.6-7.6c-0.7-4.8-0.8-9.7-0.3-14.5c0.2-0.8-0.3-1.7-1.1-2c-0.5-0.1-1.1,0.1-1.4,1c-1.3,4.2-1.2,8.2-1.1,12.1
		c0.1,2.8,0,5.6-0.3,8.4c-0.1,0.8-0.3,1.6-0.6,2.3c-0.3,0.8-1.3,1.3-2.1,1c-1-0.5-1.8-1.2-2.4-2.1c-5.7-7.1-8.4-19.5-6.5-30.1
		c1.8-5.4,4.6-10.5,8.3-14.9c1.4-1.7,4.6-3.7,7.4-5.5c0.9-0.5,1.6-1,2.3-1.5c3.1-1.4,6.2-2.5,9.5-3.4c7.1-1.8,16.3-3.5,24.4-0.6
		c2.2,0.8,5.2,2.1,6.6,5.2l0.2,0.4c0.2,0.7,0.6,1.2,1.1,1.7c1.1,0.8,2.4,0.2,3.4-0.4l0.2-0.1c4.7-2.4,9.9,1.2,13.8,4.6
		c5.1,4.4,8.3,10.6,9.1,17.3C337.7,408,335.4,414.7,331.3,418.2z M434.1,390.7c7.7,5.3,16.1,9.4,25,12.4c0.1,1.4,0.2,2.8,0.5,4.1
		H339.7c0.1-0.6,0.2-1.2,0.3-1.8c1.5-10.1-1.2-18.5-7.9-24.3c-7.1-6.2-11-6.5-14.1-6.7c-1.2,0-2.5-0.2-3.6-0.7
		c-2.1-0.9-4-1.9-5.9-3.1c-1.5-0.9-3-1.7-4.6-2.4c4.5-6.1,9-12.2,13.5-18.3c0.9,0.9,1.8,1.8,2.7,2.7c0.2,0.2,0.5,0.2,0.7,0
		c0.1-0.1,0.2-0.4,0.1-0.5c-0.7-1.5-0.6-3.3,0.3-4.7l10.1,13c0.2,0.2,0.5,0.3,0.7,0.1c0.2-0.1,0.2-0.4,0.2-0.6l-1.2-3.7v0l4.7,7.4
		c0.1,0.2,0.5,0.3,0.7,0.2c0.2-0.1,0.3-0.3,0.2-0.5l-0.8-3.9l26.6,20.2c0.2,0.2,0.5,0.1,0.7-0.1c0.1-0.1,0.1-0.3,0.1-0.4l-0.9-4.8
		l15,10.3c0.2,0.2,0.5,0.1,0.7-0.1c0.1-0.1,0.1-0.3,0.1-0.4l-1-3.9c9,6.5,18.8,11.9,29.1,16c0.1,0,0.1,0,0.2,0
		c0.3,0,0.5-0.2,0.5-0.5c0-0.1,0-0.2-0.1-0.3c-5-7.9-9.5-16.1-13.6-24.6c1.6,1.4,3.3,2.6,5.2,3.5c0.2,0.1,0.5,0,0.7-0.2
		c0-0.1,0.1-0.2,0.1-0.2c-0.2-7,2-13.8,6.2-19.4c13,5.7,26.6,9.8,40.5,12.3c0,0,0.1,0,0.1,0c0.3,0,0.5-0.2,0.5-0.5
		c0-0.1,0-0.3-0.1-0.3c-2.9-3.2-3.9-7.8-2.4-11.8c7.7,4.5,16.2,7.7,25,9.4c0.2,0,0.3,0,0.4-0.1c0.1-0.1,0.2-0.3,0.2-0.4
		c-0.2-2.8-0.8-5.5-1.7-8.1c0.1,0,0.1,0,0.2-0.1c0.2-0.1,0.3-0.4,0.2-0.6l-1.4-4.2c2.7,2.5,5.6,4.7,8.7,6.7
		c-0.2,7.2-0.9,14.3-2.2,21.4c-0.1,0.3-0.1,0.6-0.2,0.9c-2.5,1.5-4.8,3.4-6.8,5.5c-3.1,3.1-5.3,7-6.3,11.3c-8.6-1-17.1-2.9-25.2-5.9
		c-0.3-0.1-0.5,0-0.6,0.3C433.9,390.4,434,390.6,434.1,390.7z M545.6,424.4c-0.4-1.1-1.1-2.1-2-2.9c-0.2-0.2-0.5-0.1-0.7,0.1
		c0,0.1-0.1,0.1-0.1,0.2c-0.3,2.1-1,4.2-2,6.1c0,0.1-0.1,0.1-0.1,0.2c-0.3-0.2-0.5-0.4-0.6-0.7c-0.4-0.7-0.6-1.5-0.8-2.3
		c-0.1-0.3-0.1-0.7-0.2-1h0.4c0.3,0,0.5-0.2,0.5-0.5c0,0,0,0,0,0c-0.3-5.3,0-10.6,0.8-15.9c0-0.3-0.2-0.5-0.4-0.6
		c-0.2,0-0.4,0.1-0.5,0.2c-0.7,1-1.4,2-2,3.1c-0.3-1.9-0.8-3.8-1.4-5.6c-0.1-0.7-0.8-1.1-1.5-0.9c-0.8,0.3-1.2,1.2-1,2.1
		c0.6,3.3,0.9,6.6,1,10c-1.1,2.5-2.1,5-2.8,7.7c-0.1,0.3,0.1,0.5,0.3,0.6c0,0,0.1,0,0.1,0l1.5,0c-1.2,4.7-3.6,9-7,9.8
		c-0.9,0.3-1.8,0-2.4-0.8c-0.7-1-0.8-2.8-0.9-4.4l0-0.1c-0.1-1.8-0.3-3.5-0.6-5.3c-0.3-1.6-1.3-2.3-2.1-2.3c-0.8,0-1.7,0.6-1.9,2.2
		c-0.2,2.6-0.9,5.1-2.2,7.4c-3.1,5.2-8.4,7.1-12.8,4.7c-1.7-0.9-2.9-2.4-3.5-4.2c-0.8-2.5-0.4-5.4,0-8.1c0.1-0.4,0.1-0.9,0.2-1.3
		c1.1-8.1,0.1-16.4-2.7-24.1h0c-0.1-0.5-0.6-0.8-1.1-0.7c-0.6,0.2-0.9,0.8-0.8,1.4c0.9,8.2,0.5,16.4-1.2,24.4
		c-0.3,1.9-1,3.7-1.9,5.3c-0.7,1.1-1.9,2.1-3.1,1.5c-0.8-0.5-1.4-1.2-1.9-1.9c-0.6-1-1.5-1.8-2.6-2.3c-1.1-0.4-2.2,0.7-3.3,1.8
		c-0.7,0.7-1.5,1.5-2,1.5c-0.8,0-3.8-2.2-6.3-4.4c-0.4-0.8-0.8-1.6-1.2-2.5c-0.3-1.3-0.5-2.6-0.8-4c-0.7-5-1-10.2-0.8-15.2
		c0-0.3-0.2-0.5-0.5-0.5c-0.2,0-0.4,0.1-0.5,0.3c-2.3,6-2.6,12.6-0.8,18.9c-4.3-3.1-7.1-9.7-7-16.4c0.3-6.7,3-13.2,7.8-18
		c0.4-0.4,0.8-0.7,1.2-1.1c-1.2,6-2.6,12.1-4.2,18c2.3-6.3,4.2-12.8,5.7-19.3c3.3-2.7,7.1-4.8,10.9-3.2l0.2,0.1c1,0.4,2.4,1,3.4,0.1
		c0.5-0.5,0.8-1.1,1-1.8l0.1-0.4c1.2-3.1,4.1-4.7,6.2-5.7c4.5-1.8,9.4-2.6,14.2-2.4c0.4,2.1,0.7,4.3,1,6.4
		c1.5,9.6,3.1,19.3,4.5,28.9c-0.7-9.8-1.7-19.6-3.2-29.4c-0.3-1.9-0.6-3.9-0.9-5.8c2.9,0.2,5.9,0.5,8.8,1.1c3.3,0.6,6.6,1.5,9.8,2.7
		c0.7,0.4,1.5,0.8,2.4,1.3c3,1.6,6.3,3.4,7.8,4.9c4,4.1,7.2,8.9,9.4,14.1C551.4,405.2,550,416.8,545.6,424.4z M557.2,405.2
		c-0.2,0.7-0.4,1.4-0.6,2l-2.8,0c-0.2-9.5-3.3-20.3-7.9-25.9c-3.7-4.7-8.7-8.1-14.3-10c-2.9-1.5-6-2.5-9.3-3.2
		c-4.1-0.9-8.2-1.5-12.4-1.7c-0.3-1.9-0.7-3.8-1-5.7c2.5-1,4.9-2.3,7.2-3.7l1-0.6c4.5-2.8,9.2-5.6,14.3-6.3c1.6,1.8,3.1,3.4,4.4,4.8
		c1.5,1.7,3.2,3.5,4.7,5.2c-0.2,0.1-0.3,0.4-0.2,0.7c0.1,0.1,0.2,0.2,0.3,0.2c0.3,0.1,0.7,0.2,1,0.3l0.5,0.5
		c-0.1-0.2-0.3-0.3-0.4-0.5c9.5,3.2,16.6,11.3,18.3,21.2C561.3,390.2,559.2,397.8,557.2,405.2z"/>
</g>
</svg>
