<?xml version="1.0" encoding="utf-8"?>
<!-- Generator: Adobe Illustrator 24.2.3, SVG Export Plug-In . SVG Version: 6.00 Build 0)  -->
<svg version="1.1" id="f1b18bcd-5201-47c7-a409-11464bc85387"
	 xmlns="http://www.w3.org/2000/svg" xmlns:xlink="http://www.w3.org/1999/xlink" x="0px" y="0px" viewBox="0 0 778.3 471.8"
	 style="enable-background:new 0 0 778.3 471.8; fill: #215342;" xml:space="preserve" height="250" width="300">

<path class="st0" d="M353.9,278.1c0.4,0.1,0.8,0,1.1-0.2c0.2-0.1,0.4-0.3,0.6-0.5c0,0,0,0,0,0l0.2-0.1c0.1,0,0.1-0.1,0.2-0.1
	c0.4-0.2,0.9-0.4,1.2-0.7c0.1-0.1,0.2-0.3,0.3-0.5c0-0.1,0.1-0.1,0.1-0.2c0-0.1,0-0.3,0-0.4c0-0.1,0-0.3-0.1-0.4
	c0-0.1-0.1-0.1-0.2-0.2c-0.1-0.2-0.2-0.3-0.4-0.4c-0.2-0.1-0.5-0.2-0.8-0.1c-1.1,0.4-2.2,1-3.1,1.8c-0.2,0.2-0.3,0.5-0.3,0.7
	c0,0.3,0.1,0.5,0.3,0.7C353.3,277.9,353.6,278.1,353.9,278.1z"/>
<path class="st0" d="M364.7,281.2c0-0.1,0-0.2-0.1-0.2c0,0,0,0,0,0c0,0,0-0.1-0.1-0.1c0,0,0,0-0.1,0c0,0,0,0,0,0c0,0,0,0,0,0
	c0,0,0,0,0,0c-0.1-0.1-0.2-0.2-0.4-0.2c0,0-0.1,0-0.1,0c-0.1,0-0.2,0-0.3,0.1c-0.1,0.1-0.3,0.1-0.4,0.1c-0.1,0-0.2,0.1-0.3,0.2
	c-0.2-0.1-0.3-0.1-0.5,0c-1.4,0.5-2.4,1.6-2.8,3c-0.1,0.3,0,0.7,0.3,1c0.3,0.3,0.6,0.3,1,0.3c0.3-0.1,0.6-0.1,0.8-0.2c0,0,0,0,0,0.1
	c0,0,0,0,0,0c0.1,0,0.1-0.1,0.2-0.1c0,0,0,0,0,0c0.1,0,0.2-0.1,0.2-0.1c0.1-0.1,0.3-0.1,0.4-0.2c0.9-0.6,1.6-1.4,2.1-2.3
	c0,0,0-0.1,0-0.1c0-0.1,0-0.1,0-0.2c0-0.1,0-0.2,0-0.4C364.8,281.6,364.7,281.3,364.7,281.2z"/>
<path class="st0" d="M427.9,274.1c0.2,0,0.5,0,0.7,0c0.4-0.1,0.9-0.2,1.3,0l-0.6-0.3c0.3-0.1,0.5-0.2,0.7-0.3
	c0.3-0.2,0.6-0.4,0.8-0.6c-0.5-0.3-1-0.7-1.5-1.1c-0.4-0.3-0.8-0.6-1.2-0.8c-0.1-0.1-0.3-0.1-0.6-0.2c0,0-0.2,0-0.2-0.1
	c0,0-0.1,0-0.1,0c-0.4,0-0.7,0-1.1,0c-0.1,0-0.2,0-0.3,0c0,0-0.1,0-0.2,0c-0.2,0-0.4,0.1-0.5,0.1c-0.1,0-0.2,0-0.2,0.1
	c0,0-0.1,0.1-0.2,0.1c0,0,0,0,0,0c-0.1,0.2-0.2,0.5-0.3,0.7c-0.1,0.6,0.1,1.2,0.6,1.7C425.8,274.1,426.9,274.2,427.9,274.1z"/>
<path class="st0" d="M406.8,271.9c0.2,0.4,0.6,0.6,0.9,0.8c0.3,0.1,0.6,0.1,0.9,0.1c0.3,0,0.6,0,1-0.1c0.3-0.1,0.6-0.1,0.9-0.3
	c0.5-0.3,0.8-0.8,0.7-1.4c0,0,0,0,0.1,0c0,0,0,0,0,0c0,0,0,0,0,0c0,0,0,0-0.1,0c-0.1-0.3-0.4-0.7-0.7-0.8c-0.1-0.1-0.3-0.1-0.4-0.2
	c-0.2,0-0.4-0.1-0.6-0.1c-0.6-0.1-1.2-0.1-1.7,0c-0.3,0-0.5,0.1-0.7,0.3c-0.2,0.2-0.3,0.5-0.3,0.7c0,0,0,0,0,0.1
	C406.6,271.3,406.6,271.6,406.8,271.9z"/>
<path class="st0" d="M468.7,130.8c-2.2-1.6-4.8-2.6-7.5-2.8c3.9-2.8,9.4-3,13.5-0.5c-2.3-3.3-5.7-5.8-9.6-7.1
	c1.3-4.3,4.5-8.1,8.6-9.9c1.1-0.5,2.3-0.9,3-1.8c1.4-1.7,0.8-4.2,0.6-6.4c-0.4-4,0.8-8.2,3.4-11.3c5.1-6.4,14.2-7.9,20.5-13.1
	c-6.6-0.2-13.2,1.9-18.9,5.1c-5.8,3.2-10.8,7.6-15.4,12.4c-8,8.3-15,18.1-17.5,29.3c-0.7,3.4-1.1,6.8-1,10.3c3.4-3.7,5.8-4.8,8.3-5
	c-3.8,4-6.8,8.8-8.6,14C451.6,136.1,460.1,130.7,468.7,130.8z"/>
<path class="st0" d="M300,85.7c1.1,1.7,2.3,3.7,1.8,5.7c-0.4,1.8-2,3.1-2.3,4.8c-0.5,2.8,2.2,5,4.5,6.7c4.6,3.5,8.7,7.6,12.1,12.3
	c0.8,1.1,1.5,2.9,0.4,3.7c-0.6,0.5-8.1-3.5-11.6-2.3c3.1,1.6,6.2,3.3,9.2,4.9c-2.2-0.6-4.7,0.3-5.7,3.2c9.3,0,18.3,5.4,22.7,13.6
	c-0.9-4.3-2.6-8.4-5-12.1c2.5,1.6,4.7,3.5,6.7,5.6c-0.8-9.8-4.9-20.4-12.8-27.4c1,1.1,6.5,3.5,6.5,3.5s-6.5-12.2-11.5-17.1
	c-5-5-10.1-10-15.7-14.3c-5.7-4.3-12-7.8-18.9-9.4C288.2,71.8,294.9,78.2,300,85.7z"/>
<path class="st0" d="M320.5,131.3c-0.7-0.6-1.4-1.3-2.3-1.6c-0.9-0.3-2-0.3-2.7,0.4c1.4,1.6,2.8,3.3,3.6,5.2c0.8,2,0.8,4.4-0.4,6.1
	c-1.1,1.5-3,2.3-4.8,2.8c-1.8,0.5-3.7,0.7-5.4,1.6c-1.7,0.9-3.1,2.6-2.9,4.5c-2.8-1-4.6-4.3-5.3-6.4c0.7,5.1,1.5,10.3,3.5,15
	c0.3,0.7,0.7,1.5,1.3,1.9s1.6,0.6,2.1,0c0.4-0.4,0.4-1,0.4-1.6c-0.1-1.5-0.8-3-1.2-4.5c-0.3-1.5-0.2-3.3,1-4.3
	c1.1-0.8,2.6-0.8,3.9-0.6c2,0.2,3.9,0.4,5.9,0.6c0.7-1.4-0.9-3-0.7-4.5c0.2-1.2,1.4-1.9,2.6-2.2s2.4-0.3,3.5-0.9
	c2-1.1,2.6-3.9,1.9-6.1C323.9,134.6,322.2,132.9,320.5,131.3z"/>
<path class="st0" d="M471.1,158.2c-1.7-0.4-3-1.8-4.2-3.1c-1.3-1.4-2.6-2.9-2.9-4.7c-0.2-0.8-0.1-1.7-0.2-2.5
	c-0.1-0.8-0.5-1.7-1.3-2c-0.7-0.3-1.6-0.1-2.4-0.1s-1.8,0-2.2-0.8c-0.5-0.8,0.1-1.8,0.7-2.5c1.2-1.6,2.5-3.2,2.8-4.9
	c-3.1,2.3-5.9,5.1-8.2,8.2c-0.9,1.2-1.7,2.8-0.7,3.9c0.8,1,2.5,0.8,3.8,0.5c1.3-0.3,3-0.3,3.6,1c0.3,0.7,0.1,1.4,0,2.2
	c-0.1,0.7,0.1,1.6,0.7,1.9c1,0.4,2.1-0.9,3.2-0.6c0.7,0.2,0.9,1,0.8,1.7c-0.1,0.7-0.4,1.3-0.5,2c-0.4,2.1,1.1,4.3,3.1,5.1
	c2,0.8,4.3,0.4,6.2-0.6c1.9-1,3.5-2.4,5.1-3.9c-1,3.5-2.8,6.7-4.6,9.9c5.5-3.1,10-8,12.6-13.8c-3.7,1-7.4,2.1-11.1,2.9
	C473.8,158.2,472.4,158.5,471.1,158.2z"/>
<path class="st0" d="M544,375.3c-1.4-6.5-3.9-12.6-7-16.4c-4.2-5-9.2-8-14.4-9.6c-2.9-1.4-6-2.4-9.1-2.9c-2-0.4-4-0.7-6-1
	c-3.6-5.2-7.3-10.2-11.3-15c-2-11.8-6.7-23.3-11.8-34.2c1.8,0.7,3.7,1.4,5.5,2.2c-2.7-3.5-5.5-7-8-10.6c3.2,1.1,6.3,2.3,9.4,3.5
	c2.5,1,5,1.9,7.4,2.9c11.6,7.8,22.8,16.1,33.9,24.5c7,5.3,14.3,10.8,21.3,16c-6.8-5.9-13.7-11.7-20.8-17.2
	c-9.3-7.1-18.7-14.1-28.3-20.8c10.5,4.4,20.9,9.3,31.2,14.7c7.8,4.1,15.7,8.3,23.2,12.9c-6.6-4.8-13.6-9-20.7-13
	c-12.7-6.8-25.8-12.9-39.2-18.3c-7.3-4.9-14.7-9.5-22.2-13.8c-0.5-2.8-0.4-5.7-0.1-8.5c0.1-0.7,0.2-1.5,0.3-2.2
	c22.2,3.8,45.2,10.6,66.4,19c5.7,2.3,11.3,4.7,16.9,7.8c-5.1-3.3-10.5-6.1-16-8.6c-18.6-8.1-38.3-13.5-58.1-17.9c-3-0.6-6-1.2-9-1.7
	c0.6-3.4,1.4-6.8,1.9-10.2c1.2-7.7,1.2-15.5,2.8-23.1c1.8-8.2,5.4-15.9,8.4-23.8c2.5-6.6,4.5-13.7,4.4-20.7c3.5-6,7-12,10.6-18
	c2.4-4,4.8-8.2,5.4-12.8c0.6-4.1-0.3-8.3-0.5-12.5c-0.5-7.2,2.6-15.6,5-24.3c0,0,0,0,0,0c0.8-1.4,1.2-3.1,1.5-4.7
	c0-0.1,0-0.3,0.1-0.4c1.2-3.2,2.1-6.5,2.1-10c1.3-4.5,2.6-9.1,3.9-13.6c1.2-4.2,2.3-8.4,2.5-12.7s-0.8-8.8-3.5-12.2
	c-3-3.8-8-5.7-12.9-6c-4.9-0.2-9.7,1.1-14.2,2.9c-19.8,7.9-34.9,24-49.3,39.7c-5.8,6.2-11.5,12.5-17.7,19.3
	c-1.4,1.8-3.2,3.3-5.2,4.3c-16.2-9.1-36.1-9.2-54.8-9.1c-5.2,0.1-10.4,0.1-15.7,0.2c-1-0.6-1.8-1.2-2.5-1.7
	c-2.2-1.8-3.8-4.2-5.5-6.6c-8.6-12.5-17.6-25-28.5-35.6c-10.9-10.6-24-19.4-38.6-23.4c-4.9-1.4-10.5-2.1-14.9,0.4
	c-5.2,2.9-7.4,9.1-8.3,15c-3.6,23.1,6.1,46.1,7,69.5c-2.6,8.4-1.7,18.7,1.6,28.2c1.4,4.1,3.3,8.1,4.6,12.3c1.8,6,2.3,12.3,3.9,18.3
	c1.9,7,5.2,13.5,8.8,19.9c1.1,4.4,1.2,9,1.3,13.5c0.1,8.9,0.3,17.9,0.4,26.8c2.6-0.8,4.6-3.1,5-5.8c0.5,2.1,0.9,4.2,1.4,6.3
	c-0.1,7.7-2.3,15.3-6.2,21.9c1.2-0.3,1.4,1.6,1,2.8l-0.9,2.3c-26.2,10.8-50.5,26.5-72.7,44c-9.1,7.1-18.2,15-26.2,22.9
	c9.3-7.8,19.3-15.8,28.6-23.1c21.3-16.6,44.6-31.5,69.6-42c-1.2,3-2.3,6-3.5,9.1c-16.5,10.5-32.7,21.6-48.7,32.8
	c-8.2,5.8-17.9,13-24.9,18.7c10.2-6.8,20.2-13.8,30.2-20.8c14-9.7,28.2-19.3,42.6-28.5c-2.8,7.2-5.5,14.4-8.3,21.7
	c-3.8,9.8-7.5,20.4-6.4,30.6c-1.9,2.5-3.7,5-5.6,7.4c-4.4,2.2-8.6,5.5-11.8,10.5c-1.5,2.3-2.7,5.3-3.6,8.6H136v20.3h103.4
	c0.1,0.9,0.3,1.8,0.4,2.6c1.4,6.8,3,11.5,5.9,14.2c3.5,3.2,7.5,4.3,11.4,5.1c5.4,1.1,10.8,1.8,16.2,2.2c0.3,0.4,0.5,0.8,0.9,1.1
	c1.5,1.4,3.5,1.9,5.3,1.5c1.4-0.3,2.7-1.1,3.7-2.3c5.7,0,11.4-0.4,17-1c5.4-0.6,11.1-1.5,15.7-5.7c1.8-1.6,3.4-4.1,4.6-7
	c3.6-2.7,6.3-6.4,8.2-10.9h126.4c2.4,4.8,5.9,8.6,10.1,11.2c1.5,2.7,3.4,5,5.4,6.4c5.1,3.6,10.8,3.9,16.3,3.9
	c5.7,0,11.4-0.2,17.1-0.8c1.2,1,2.6,1.7,4,1.8c1.9,0.2,3.8-0.5,5.1-2.1c0.3-0.4,0.5-0.8,0.8-1.2c5.3-1,10.7-2.3,15.9-4
	c0.1,0,0.2-0.1,0.4-0.1c0.3,0.3,0.6,0.6,0.9,0.9c1,0.7,2.1,1,3.2,0.7c0.9-0.3,1.7-1.2,2.4-2.1c0.8-1.1,1.4-2.5,1.5-3.4
	c0.9-0.7,1.7-1.4,2.5-2.3c1.8-2.1,2.9-5.1,3.6-9H648v-20.3H544z M505.8,345.3c-2.9-0.3-5.9-0.5-8.8-0.3c0.3-4,0.1-8-0.4-12
	C499.7,337,502.8,341.1,505.8,345.3z M493.3,290.6c-1.4-0.6-2.9-1.1-4.3-1.7c-2.8-1.1-5.6-2.1-8.4-3.1c-0.9-1.3-1.7-2.7-2.4-4.1
	c-0.1-0.2-0.2-0.4-0.3-0.6C483.1,284.2,488.2,287.3,493.3,290.6z M484.6,216.4c-0.9,2.5-2.7,4.7-3.7,7.1c-1.1,2.6-1.4,5.4-1.9,8.2
	c-1.5,8.8-4.7,17.4-9.4,25c-4,2.2-7.5,5.3-11.1,8.2c-3.6-0.3-7.2-0.5-10.8-0.6c-0.4-1.3-0.6-2.7-0.8-4c6.6-1.8,12.4-6.4,15.6-12.4
	c-4.7,2.6-9.6,4.7-14.8,6.3l0.6-0.5c1.1-0.5,2.2-1.2,3.3-1.8c4.9-3.2,9.8-6.4,13.4-11c1.9-2.5,3.4-5.4,4.5-8.3
	c5.1-12.8,5-27.6-0.3-40.3c1,2.3,0.5,5.5-1.2,8.1c-1.6-5.8-6-10.8-11.7-13.1c3.2-1.1,6.7-1.4,10-0.9c1,0.4,2,0.8,3,1.4
	c2.8,1.8,5,4.4,6.3,7.5c-0.1-2.1-0.4-4.2-1.4-6c0.3,0.2,0.6,0.4,0.9,0.6c1.8,1.9,3.5,4.1,4.8,6.4c-0.4-0.9-0.8-1.9-1.3-2.8
	c2.1,3.6,3.8,7.3,5.1,11.2C485,208.5,485.9,212.6,484.6,216.4z M476.1,308.7c-1.6-1.4-3.1-2.8-4.7-4.2c0-1.5,0.2-3,0.7-4.4
	c1.1,1.4,2.1,2.8,3.1,4.2C475.5,305.7,475.9,307.2,476.1,308.7z M441.5,264.1c-3,0-6,0-9,0c0.2-0.1,0.4-0.3,0.4-0.5
	c0-0.1,0-0.1,0-0.2c0.1,0,0.1,0,0.2,0c-0.1,0-0.1,0-0.2,0c0-0.3-0.2-0.6-0.5-0.8c-1.2-0.8-2.6-1-4-0.7c-0.2,0-0.3,0.2-0.5,0.3
	c-0.5,0.1-0.9,0.2-1.2,0.5c-0.4,0.4-0.6,1-0.3,1.5c0,0.1,0.1,0.1,0.2,0.2c-3.9,0.2-7.9,0.5-11.8,0.9c-0.1,0-0.2-0.1-0.2-0.1
	c-0.2-0.4-0.7-0.8-1.2-0.6c-0.1,0-0.1,0-0.2,0.1c-0.9-0.3-2-0.3-2.9,0c-0.1,0-0.1,0-0.2,0c0,0,0.1,0,0.1,0c-0.3,0.1-0.5,0.2-0.8,0.3
	c-0.5,0.2-0.6,0.9-0.4,1.4c0.5,0.9,1.6,1.1,2.6,0.9c0.4-0.1,0.7-0.2,1.1-0.4c0.4-0.1,0.8-0.3,1.2-0.4c0,0,0,0,0,0
	c1.1,0.1,2.2,0,3.3-0.2c-0.4-0.2-0.8-0.4-1.3-0.6c7.8-0.3,15.7-0.4,23.6-0.3c0,0.2,0.1,0.4,0.2,0.6c0.8,3.1,0,6.5-1.5,9.5
	c-8-1-16.1-1.7-24.1-1.5c-5.2,0.2-10.5,0.5-15.5,2.1c7.2-1.6,14.7-1.1,22.1-0.9c5.7,0.3,11.2,0.8,16.7,1.4c-1.2,0.9-2.4,1.9-3,3.2
	c-0.2,0.5-0.4,1-0.5,1.5c-0.1,0.2-0.2,0.3-0.4,0.5c-3.6-1.2-7.4-2.1-11.2-2.7c0.5-0.4,0.7-1,0.5-1.6c-0.2-0.4-0.5-0.8-0.9-1.1
	c-0.7-0.5-1.7-0.7-2.5-0.4c-0.1,0-0.1,0-0.1,0.1c-0.2-0.2-0.6-0.4-1-0.3c-1.1,0.2-1.4,1.6-0.9,2.4c0.4,0.8,1.4,1.1,2.2,1.2
	c0.5,0.1,0.9,0.1,1.4,0.1c0.4,0,0.9-0.1,1.2-0.3c3.7,0.8,7.3,1.9,10.7,3.2c-2.8,2.7-6.7,4.4-10.6,4.8c-2.2,0.2-4.3,0.1-6.5-0.3
	c-2.1-1.1-4.1-2.6-6-4.2c-2.5-2.1-5.1-4.2-8.1-5.5c-1.6-0.7-3.4-1.2-4.9-2.1c-0.8-0.5-1.4-1.1-2-1.8c-0.6-1.8-0.6-3.8-0.2-5.7
	c0.3-1.6,0.9-3.1,1.6-4.5c0.7-0.5,1.4-1.1,2-1.7c1.3-1.6,2.1-3.5,2.7-5.4c0.4-1.4,0.9-2.9,2.2-3.5c0.6-0.3,1.4-0.3,2.1-0.4
	c2.3-0.4,4.3-2,5.7-3.9c1.4-1.9,2.2-4.2,3.1-6.4c0.3-0.8,0.6-1.9,0-2.6c0,0,0,0,0,0c0-0.1,0-0.1,0-0.2c-0.2-1.5-0.3-3.2,0.9-4.1
	c0.7-0.6,1.6-0.5,2.5-0.2c0.7,0.8,1.4,1.5,2.2,2.1c2.3,1.8,5,3.1,7.5,4.7c7.4,4.8,12.7,12.6,14.8,21.1c-12.8-4.7-26.2-8.4-39.9-8.6
	C415.5,255.9,428.7,259.4,441.5,264.1z M397.4,307.5c-5.5,1.7-11.2,4.2-16.7,2.6s-11.8-4.3-16.9-7c0.6,3.1,2,3.1,2.6,6.2
	c-7.1-4.6-12.5-11.1-17.7-17.8c-0.6-1.5-1.1-2.9-1.6-4.4c2.1,1.8,4.3,3.4,6.8,4.5c0.3,0.1,0.6,0.2,0.9,0.4c-0.2,0-0.4-0.1-0.6-0.1
	c3.7,3.3,9.6,2.8,13.9,0.5c4.4-2.3,7.7-6.2,11.5-9.3c3.8-3.2,8.6-5.8,13.5-5.1c1.4,0.2,2.7,0.8,4,1.6c4.1,4.7,9.6,8.3,15.7,10.3
	c3.7,1.2,7.8,1.8,11.5,0.9c-1.5,4.1-4.1,8.3-7.6,11.3c-2.4,2.1-5.3,3.6-8.3,4.5c2.8-2.2,5-4.9,6.1-8.3
	C409.8,302.9,403.7,305.5,397.4,307.5z M348.9,274.1c-2.8,0.8-5.5,1.9-8.1,3.1c-1-2.3-1.7-4.8-2-7.4c2.4-0.3,4.8-0.7,7.2-1
	c-0.1,0.1-0.1,0.1-0.2,0.2c-0.3,0.3-0.6,0.6-0.9,1c-0.2,0.2-0.4,0.4-0.6,0.6c0.1,0,0.1,0,0.2,0c0,0,0,0,0,0c0,0.1,0,0.1-0.1,0.2
	c0,0,0,0.1-0.1,0.1c0,0.1,0,0.3,0,0.4c0,0.2,0,0.2,0.1,0.4c0,0.1,0.1,0.1,0.2,0.2c0.1,0.1,0.3,0.3,0.5,0.3c0.1,0,0.2,0,0.3,0
	c0,0,0,0,0,0c0.1,0,0.2,0,0.3,0c0.1,0,0.2-0.1,0.3-0.1c0,0,0,0,0.1,0c0.1-0.1,0.2-0.2,0.3-0.3c0.2-0.2,0.3-0.4,0.4-0.6
	c0.1-0.2,0.2-0.5,0.4-0.7c0.1-0.1,0.2-0.2,0.3-0.3c0.3-0.4,0.3-0.9,0-1.2c-0.1-0.1-0.2-0.1-0.3-0.1c0,0-0.1,0-0.1,0c0,0,0,0-0.1-0.1
	c0,0,0,0-0.1,0c3-0.4,6-0.7,9-1c5.2-0.5,10.4-1,15.6-1.4c2.8-0.1,5.7-0.5,8.5,0c-2.7-0.7-5.6-0.6-8.4-0.7c-3.4,0-6.8,0.1-10.2,0.3
	c0.4-0.3,0.8-0.5,1.2-0.8c0.6-0.5,1.4-1.1,1.2-2c-0.3-1-1.4-1.1-2.2-0.6c-0.3,0.1-0.5,0.4-0.7,0.5c-0.3,0.2-0.5,0.4-0.8,0.6
	c-0.6,0.5-1.2,0.9-1.9,1.4c-0.2,0.2-0.4,0.3-0.5,0.6c-0.1,0.2,0,0.4,0,0.6c-0.6,0-1.1,0.1-1.7,0.1c-5.9,0.6-11.8,1.2-17.7,2.1
	c0-0.7-0.1-1.5,0-2.2c-0.8,0.8-1.5,1.7-2.3,2.5c-0.2,0-0.4,0.1-0.6,0.1c0.3-1.2,0.5-2.3,0.8-3.5c4.5-1.4,9-2.6,13.7-3.6
	c3.8-0.8,8.1-1.5,11.6-2c2.9-0.2,5.9-1.1,8.7-0.1c-2.7-1.3-5.9-0.7-8.7-0.7c-4.1,0.3-8.2,0.8-12.2,1.5c-4.3,0.8-8.6,1.9-12.7,3.2
	c0.2-0.9,0.4-1.8,0.6-2.8c-1.2,1-2.4,1.9-3.6,2.9c2.9-5.9,7.4-11.1,12.9-14.9c-1.6-0.4-3.3-0.7-4.9-1.1c3.9-3.3,8.4-6,13-8.2
	c4.9-2.3,9.9-4.2,15-6c0.5,0.6,0.4,1.6,0.4,2.4c-0.2,3,1.2,6.1,3.6,7.9c0,0.2,0,0.4,0,0.6c0.1,2.3,1.7,4.8,4,5.1
	c1.3,0.2,2.7-0.2,3.8,0.5c1.3,0.9,1.2,2.9,1.5,4.5c0.5,3.1,2.9,5.3,5.1,7.6c0.7,3.1,0.9,5.8,0.1,8.2c-0.9,2.7-3,4.9-5.6,5.9
	c-1.8,0.7-3.8,0.9-5.7,1.5c-4.4,1.5-7.5,5.3-10.8,8.5c-2.3,2.2-5.1,4.4-8.1,5.1c-4-0.9-7.7-2.8-10.8-5.4c3-2.4,6.1-4.8,9.3-7
	c6.2-4,12.6-8.3,19.6-10.5c-0.3,0.3-0.6,0.7-0.9,1.1c-0.3,0.4-0.5,0.9-0.7,1.3c0,0,0,0-0.1,0c0,0,0,0.1,0,0.1c0,0,0,0,0,0.1
	c0,0,0,0,0,0c0,0.1,0,0.1,0,0.2c0,0.1,0,0.3,0,0.4c0,0.1,0,0.1,0,0.2c0,0.1,0,0.2,0.1,0.3c0,0,0,0.1,0,0.1c0,0,0,0,0,0
	c0.1,0.1,0.1,0.2,0.1,0.3c0,0,0,0.1,0.1,0.1c0,0,0.1,0.1,0.1,0.1c0.1,0,0.2,0.1,0.2,0.1c0.1,0,0.1-0.1,0.2-0.1
	c0.2-0.1,0.4-0.2,0.5-0.3c0.1-0.1,0.2-0.1,0.2-0.2c-0.2,0.1,0,0,0.1,0c0.3-0.2,0.5-0.5,0.8-0.7c0,0,0.1-0.1,0.1-0.1c0,0,0,0,0,0
	c0,0,0,0,0,0c0-0.1,0-0.1,0,0c0,0,0-0.1,0.1-0.1c0.1-0.2,0.3-0.4,0.4-0.6c0.3-0.4,0.5-0.7,0.7-1.1c0-0.1,0-0.2,0-0.3
	c0.1-0.1,0.2-0.2,0.2-0.3c0,0,0-0.1,0-0.1c0,0,0-0.1,0-0.1c0,0,0,0,0,0c0-0.1,0-0.2,0-0.3c0,0,0,0,0,0c0,0,0,0,0-0.1c0,0,0,0,0-0.1
	c0,0,0,0,0,0c0,0-0.1-0.1-0.1-0.1c0,0,0,0,0,0c0,0-0.1-0.1-0.1-0.1c0,0-0.1-0.1-0.1-0.1c0,0-0.1-0.1-0.1-0.1
	c-0.1-0.1-0.2-0.2-0.3-0.4c-0.2,0-0.4,0-0.6,0.1c-0.3,0.2-0.5,0.5-0.8,0.7c-2.6,0.6-5.1,1.4-7.6,2.5c0.1-0.1,0.2-0.3,0.2-0.4
	c0,0,0.1-0.1,0.1-0.1c0.3-0.2,0.7-0.4,1-0.6c0.4-0.2,0.6-0.7,0.5-1.1c0,0,0-0.1-0.1-0.1c-1.1-0.3-2.2-0.2-3.3,0.1
	c-0.3,0.2-0.5,0.3-0.8,0.5c-0.4,0.3-0.8,0.6-1.1,1c-0.2,0.3-0.4,0.5-0.5,0.9c0,0.1,0,0.2,0,0.2c0,0,0,0,0,0c0,0.1,0.1,0.2,0.1,0.2
	c0.1,0.2,0,0.4,0,0.5c0,0.2,0.1,0.3,0.3,0.4c0,0,0,0,0,0c-4.9,2.5-9.6,5.6-14,8.7c-1.7,1.3-3.4,2.6-5,3.9c-0.1-0.1-0.1-0.1-0.2-0.2
	c-2.1-2-3.8-4.4-5.1-7c2.6-1.3,5.2-2.4,7.8-3.4c2.7-0.9,5.6-2.1,8.5-2C354.6,272.4,351.6,273.4,348.9,274.1z M291.1,297.3
	c0.8-3.8,1.6-7.6,2.5-11.4c0.3-0.2,0.5-0.3,0.8-0.5c5.3-3.2,10.6-6.2,16-9c5,3.1,10,6.1,15.2,8.9c-9.1,5.8-17.5,12.7-25.4,20.1
	c0.5-0.9,1-1.9,1.7-2.8c-3-0.4-6.1,0.3-8.6,1.9c1.1-2.5,2.2-5,3.3-7.5C294.7,297.2,292.9,297.3,291.1,297.3z M300.4,224.5
	c0.2,5.9,1.3,11.8,3.2,17.4l-7-8.6c1.3,6.1,5.2,11.5,9.9,15.7c4.7,4.2,10.2,7.3,15.7,10.4c-2.7-0.7-5.4-1.4-8.1-2.1
	c2.1,2.8,5.2,7.2,8,9.6c-1.5-0.8-5.9-1.2-5.9-1.2s2.5,3,3.8,4.5c-0.1,0.1-0.3,0.1-0.4,0.2c-1.6-0.6-3.9-0.8-5.1-1.7
	c0.4,1.2,0.9,2.3,1.5,3.3c-0.3,0.2-0.6,0.3-0.9,0.5c-3.4-2.7-6.5-5.8-9.3-9.2c0.3,1.7,0.6,3.4,1,5.1c-0.1,0-0.1-0.1-0.2-0.1
	c-5.6-5.8-11.4-12.1-12.8-20c0.2,1-0.1,2.1-0.7,2.9c-0.6-4.1-1-8.3-1.1-12.5c-0.6,0.9-1.2,1.8-1.7,2.6c-1.3-8.6,2.8-17.7,9.8-22.7
	c-0.4,4.3-0.7,8.7-1.1,13C299.9,229.4,300.4,227,300.4,224.5z M312.7,211.5c3.9,0.6,7.4,2.7,10.8,4.7c-2.3-1.7-4.4-3.8-6-6.2
	c-2-5.4-1.2-11.8,2.2-16.4c0.1-0.2,0.3-0.4,0.5-0.4c0.4-0.2,0.9,0.2,1,0.7c0.1,0.4,0.1,0.8,0.1,1.1c-0.7,3.2-0.7,6.6,0,9.7
	c1.3,5.2,4.6,9.9,9.2,12.7c-2.4-3.4-4.8-7-6.1-10.9c-1.3-4-1.5-8.5,0.4-12.2c1.4-2.8,3.9-4.9,6.6-6.5c-1.5,1.4-2.6,3-3.4,4.9
	c-1.4,3.5-1.4,7.5,0,11c-1.3-4.8,0.3-10.2,4-13.5c3.1-2.7,7.3-3.8,11.4-3.6c0.4,0,0.8,0,1.2,0.1c-1,0.6-1.8,1.4-2.5,2.4
	c-0.1,0-0.1,0-0.2,0.1c-0.1,0.3-0.2,0.5-0.4,0.8c0,0,0,0,0,0c0,0,0,0,0,0.1c-1.2,2.7-2.2,5.6-2.5,8.6c-0.3,3.3,0.2,6.8,2,9.5
	c0.3,0.5,0.7,1,1.3,1c0.4,0,0.8-0.2,1.1-0.5c2.5-1.9,4.4-4.6,5.4-7.6c-1.6,0-3.3,0-4.8-0.6c-1.5-0.6-2.9-1.8-3.1-3.4
	c-0.1-1.2,0.3-2.3,0.8-3.4c0.3-0.7,0.6-1.3,0.9-2c0.3,0,0.5-0.1,0.8-0.2c1.7-0.4,3.6,0,4.9,1.2c-0.6-2.1-1.3-4.2-2-5.9
	c1.9,0.3,3.7,0.8,5.5,1.4c1,0.8,1.9,1.7,2.7,2.6c3.1,3.4,5.2,6.5,6.1,12.1c1.2,7.8-2.5,12.1-13.8,15.5c9.8-1.2,14.5-6.4,16.3-12.1
	c0.1,0.9,0.1,1.8,0.1,2.6c-1.2,3.3-3.1,6.5-5.7,9c1.1,0.2,2.2,0.1,3.3-0.2c-4.1,4.6-9.7,7.8-15.8,8.8c2.1-1.4,3.9-3.2,5.1-5.4
	c-0.3,0.2-0.7,0.3-1,0.5c-4.2,2.5-9,3.8-13.9,4.1c-4.9,0.3-9.7-0.4-14.4-1.7c-0.2,0-0.3-0.1-0.5-0.1c-2.8-1.6-5.2-3.8-7.2-6.3
	c1.8,0.5,3.6,1,5.5,1.5c-2.3-1.4-4.3-3.2-5.9-5.4c1.5,0.6,3,1.2,4.5,1.8C315.3,214.4,313.8,213.1,312.7,211.5z M337.9,178.8
	c3.4-0.9,6.9-1.3,10.3-0.7c2,1.5,3.9,2.9,5.9,4.4c0.8,0.6,1.7,1.2,2.2,2.1c0.5,0.9,0.7,2.1,0.1,2.9c-3.2-0.5-5.8-2.8-8.8-4.2
	c-5.1-2.4-11.6-1.6-16.1,1.9c2.2-2.9,5.3-5.1,8.8-6.1C339.5,178.9,338.7,178.8,337.9,178.8z M349.9,178.4c-2.6-3.3-7.3-4.8-11.4-3.8
	c3.3-1.3,6.7-2.2,10.2-2.5c-4-3.1-9.3-4.6-14.3-4.1c-6.3,0.6-12,4-17.2,7.7c-0.8,0.6-1.5,1.1-2.3,1.7c1.1-1.4,2.2-2.7,3.4-3.9
	c5.5-5.6,12.7-9.8,20.5-9.9c5.3-0.1,10.4,1.8,14.8,4.9c4.6,6.3,7.8,14.1,9.4,19.7c-2.4-1.1-3.8-1.9-5.2-3
	C355.6,182.5,352.9,180.2,349.9,178.4z M308.8,275.7c-5,2.6-9.9,5.5-14.7,8.3c0.4-1.4,0.8-2.8,1.2-4.2
	C299.8,278.3,304.3,276.9,308.8,275.7z M295.9,278.2c0.6-1.7,1.2-3.4,1.8-5.1c1.9-0.8,4-1.1,6-1c1,0.7,2,1.4,3,2
	c0.3,0.2,0.5,0.3,0.8,0.5C303.6,275.7,299.7,276.9,295.9,278.2z M298.9,308.5c8.9-8.5,17.9-16,28.1-22.4c1.5,0.8,3,1.6,4.6,2.4
	c2.1,1.7,4.2,3.2,5.9,4.8c-14.3,13.9-26,30.5-37,47.2c-1.6-5.3-3-10.7-3.5-16.2C296.5,319,297,313.5,298.9,308.5z M398.2,252.5
	c0.2,1.2,0.8,2.3,0.8,3.5c0,1.1-0.5,2.2-1.1,3.2c-0.6,1-1.3,1.9-2.1,2.8c-1.4,0.6-3,0.8-4.5,0.6c-0.7-1.6-2-2.8-3.2-4.1
	c-1.4-1.5-2.8-3.4-2.4-5.4c0.3-1.3,1.2-2.4,1.5-3.7c0.3-1.5-0.4-3.2-1.7-4s-3.1-0.7-4.3,0.3c-1.2,1-2.2,2.9-3.7,2.7
	c-1.2-0.2-1.8-1.5-2-2.7c-0.3-2-0.1-4.1,0.6-6c0.6-0.6,1.3-1.1,2-1.5c2.4-1.2,5.3-1.2,8-1.1c5.3,0.1,10.6,0.3,15.8,0.4
	c1.5,0,3.1,0.1,4.3,1c1.1,0.8,1.7,2.2,2.6,3.3c0.2,0.2,0.4,0.4,0.6,0.6c0.4,1.8,0.3,3.8-0.3,5.6c-0.3,0.8-0.8,1.6-1.6,1.8
	c-0.7,0.1-1.4-0.3-1.9-0.8c-0.5-0.5-0.9-1.1-1.5-1.6c-1.4-1-3.5-0.7-4.7,0.5S397.9,250.8,398.2,252.5z M433,227.3
	c-2.8-0.7-5.5-1.9-8.2-2.9c1.2-0.1,2.5-0.3,3.7-0.5c0.6,0.1,1.1,0.1,1.7,0.2c0.1,0,0.1,0,0.2,0c0,0,0,0,0,0c0,0,0,0,0,0
	c0.1,0,0.2,0,0.4,0.1c0.1,0,0.1,0,0.2,0.1c0,0,0,0,0.1,0c0.1,0.1,0.2,0.1,0.3,0.2c0.4,0.3,1.1,0.1,1.4-0.4c0.1-0.3,0.2-0.5,0.1-0.8
	c0.1,0,0.1,0,0.2,0c-0.1,0-0.1,0-0.2-0.1c-0.1-0.2-0.2-0.4-0.4-0.6c-0.6-0.4-1.3-0.5-2-0.6c-0.3,0-0.6,0-0.9-0.1c-0.1,0-0.3,0-0.4,0
	c0,0-0.1,0-0.1,0c0,0,0,0,0,0c-0.3-0.1-0.6-0.2-0.9-0.4c0,0,0,0,0,0c-0.1-0.1-0.2-0.2-0.3-0.3c-0.3-0.3-0.6-0.5-1-0.7
	c-0.3-0.1-0.6-0.1-0.9,0c-5.3-2.8-7-6.4-6.1-11.8c0.8-5.2,2.8-8.1,5.8-11.4c2.4-2.5,5.2-4.8,8.6-5.7c-2.3,2.7-3.3,6.4-3,9.9
	c0.3,3.6,1.9,7.1,4.2,9.9c0.4,0.5,0.9,1,1.5,1.3c0.6,0.3,1.3,0.4,1.9,0.1c0.6-0.3,0.9-0.9,1.1-1.5c0.9-2.1,1.5-4.3,1.8-6.5
	c0.1-0.6,0.1-1.3-0.2-1.8c-0.3-0.5-0.9-0.7-1.5-0.9c-1.7-0.4-3.6-0.1-5,0.9c-0.4-1.6-0.7-3.2-0.9-4.8c-0.1-0.5-0.2-1.1,0-1.6
	c0.3-0.9,1.2-1.4,2.1-1.5c0.9-0.1,1.8,0.1,3.3-0.3c-0.9-0.5-1.2-1.6-1.5-2.5c-0.1-0.4-0.3-0.8-0.6-1.1c3.4,0,6.7,1.2,9.7,2.9
	c2.8,1.6,5.5,3.7,7,6.5c1.9,3.5,1.7,7.8,0.4,11.5c-1.3,3.7-3.6,7.1-5.9,10.3c3.4-2.1,6.1-5.2,7.7-8.8c2.3-2,4.6-4.1,6.9-6.1
	c-1.2,6.6-5.2,12.7-10.8,16.4C446.7,227.7,439.5,228.9,433,227.3z M463.8,285.1l-2.9,10.4c1.7-1.2,3.4-2.4,5.1-3.6
	c0,3.2,0.5,6.4,1.5,9.4c-3.1-2.4-6.3-4.8-9.6-6.9c-3.8-2.5-7.8-5-11.8-7.1c-0.3-0.6-0.6-1.1-0.9-1.7c3.1-1.4,6-3,8.9-4.7
	c0.8-0.2,1.5-0.5,2.3-0.8c1.2,0.3,2.4,0.6,3.7,0.9c-0.3,2.3-1,4.5-2.1,6.5C459.8,286.6,461.8,285.8,463.8,285.1z M506.1,163.7
	c-2.3,6-6.1,11.5-10.9,15.7c2.6-4.5,5.4-9.4,4.9-14.7c-0.2-2.1-1-4.1-1-6.2c0-4.7,3.4-8.5,5.9-12.6
	C506.7,151.7,507.4,158,506.1,163.7z M423.5,154.9c0.2-4,0.8-8,1.8-12c2.2-5,4.7-9.9,7.4-14.7c-0.7,0.8-1.5,1.4-2.5,1.9
	c15.1-23.7,35.6-43.9,59.4-58.8c4.4-2.7,9-5.3,14.1-6.1c5.1-0.8,10.8,0.7,13.9,4.8c2.6,3.4,2.9,8,2.8,12.2
	c-0.2,7.3-1.7,14.5-3.1,21.7c-1.1,5.7-2.5,11.7-6.5,15.8c-1.2,1.2-2.7,2.4-3.2,4.1c-0.3,1.3,0,2.7,0.3,4c0.3,1.8,0.4,3.6,0.2,5.4
	c-2.4,4-4.3,8.3-5.7,12.7c-1.1,1.7-2.2,3.3-3.4,4.9c-0.6,0.8-1.3,1.7-2.3,1.8c-1.2,0.2-2.3-0.8-2.7-1.9c-0.4-1.1-0.3-2.3-0.2-3.5
	c-1.7,1.3-1.8,4-1.2,6c0.7,2.1,2,3.9,2.6,6c0.9,2.8,0.6,5.8,0.3,8.8c-0.3,2.8-0.7,5.9-2.7,8c-1.5,1.5-3.7,2.4-4.6,4.3
	c-0.7,1.5-0.5,3.2-0.8,4.8c-0.4,2.3-1.9,4.5-4.2,5.3c-1.3,0.5-2.8,0.4-4.1-0.1c-1.5-3.9-4-7.4-7.3-10c3.6-2.2,6.5-5.6,8.1-9.6
	c-3.5,3.4-8.8,4.9-13.6,3.7c-2.8-0.7-5.4-2.3-8.1-3.3c1.7,0.2,3.3,0.3,5,0.1c3.5-0.4,7-2.1,8.6-5.1c-3.3,2-7.5,1.4-11-0.2
	c-3.5-1.6-6.5-4.1-9.9-5.9c-3.4-1.8-7.5-2.9-11-1.4c0.5-4.7,2.5-9.2,5.5-12.9c-3-0.5-6.2,0.6-8.3,2.8c-0.4-10.2,1.1-20.4,4.5-31.3
	c-7.4,13.4-12.4,28.1-14.9,43.3c1.3-3.3,3.7-6.2,6.7-8.1c-0.1,2-0.5,4-1.4,5.8c-1.5,2.1-3.1,4.1-4.6,6.2c-1.8-0.5-3.1-2.2-3.7-4
	S423.4,156.8,423.5,154.9z M426.6,174.4c-1.1,2-2.3,4-3.4,6c3-3.5,7.5-5.2,12-6.1c1.4-0.3,2.9-0.5,4.3-0.7c-2.2,2.3-4,4.8-5.4,7.6
	c-3,1.9-5.7,4.3-8,7c-3.8,3-6.9,6.9-8.6,11.3c-1.6,4.2-1.9,10.8,1.4,16c0.3,0.9,0.6,1.7,0.9,2.6c-1.8-1.5-6.4-3.2-6.7-6.6
	c-3.3,5.4-5.2,9.4-4.3,15.6c-2.2-6.8-0.2-14,2.1-20.8c2-6,4.1-12,6.4-17.9c-3.4,3.6-6.9,7.4-9,11.7c-0.1,0-0.1-0.1-0.2-0.1
	C409.9,189.4,416.9,179.5,426.6,174.4z M417.9,132.1c0.9,2.2-3.3,2.9-3.3,2.9s-2.1-0.7-4.6-1.7c3.8,3.1,3.9,4.9,4.5,8.7
	c0.9-0.4,1.6-1.2,1.9-2.2c3.3,4.1,3.8,11.7,3.5,17.1c-0.2,0.2-0.3,0.5-0.5,0.7c-0.2,0.3-0.4,0.5-0.7,0.8c-0.2-2.9-1.3-5.7-3.1-7.9
	c-0.4,2.5-0.8,4.9-1.2,7.4c0,0-0.1,0-0.1,0c0-3.1-1.3-6.1-3.2-8.6c-2.1-2.7-4.8-4.8-7.5-6.9c0.5,4.8,0.5,9.6,0.1,14.4
	c-3.3-3.4-6.5-6.8-9.8-10.1c0.2,1.5,0.4,3.1-0.1,4.5c-0.5,1.4-2,2.6-3.5,2.3c-1.2-0.3-1.9-1.4-2.6-2.4c-1.5-2.4-3.1-4.9-4.6-7.3
	l-1.1,7.1c-1.4-4.9-3.9-9.5-7.3-13.3c-1.4,4.5-3.4,8.8-5.9,12.7c-3.4-1.7-1.4-11.4-1.9-10.6c-1.3,2.3-5.3,6.7-7.2,9.6
	c0-2.4,0-4.8,0-7.2c0-1.7,0.1-3.6,1-5c1-1.5,2.8-2.3,4.2-3.5c1.4-1.1,2.6-3.2,1.6-4.8c-3.7,2-8.3,0-11.4-3
	C375.9,119.8,398.8,122.2,417.9,132.1z M286.1,213.3c-0.6,0.6-1.1,1.4-1.5,2.2c-2-3.4-4-6.9-6.1-10.3c-1.8-3.1-3.7-6.3-3.7-9.8
	c-0.1-3.5,2.4-7.4,5.9-7.6c1.3-0.1,2.6,0.4,3.8,0.6s2.7,0.1,3.6-0.8c0.9-0.9,0.8-2.8-0.4-3.2c-0.4-0.1-0.9-0.1-1.3-0.1
	c-3.1,0.1-6-1.9-7.8-4.5s-2.5-5.7-3.2-8.8c-0.6-3.1-1.2-6.2-2.5-9c-0.5-1-1.1-2.1-2.1-2.6c-0.5-0.3-1.2-0.4-1.8-0.3
	c-1.2-2.1-2.6-4.1-3.5-6.3c-0.9-2.4-1.2-5.2,0-7.5c4.6,2.9,5.2,5.2,12.7,6c-4.9-2-9.1-3.6-14.4-16.1c-4.5-10.7-3.6-24.9-5.5-36.3
	c-1.2-7.4-2.5-15.9-2-24.3c1.8-27.8,19-18.6,22.8-17.8c12.4,2.8,26.4,13.3,35.6,22.5c8.9,8.9,18.7,23.2,27.4,34.5
	c6.5,10.7,11.6,22.2,15.1,34.2c0,1.5-0.1,2.9-0.1,4.3c-3.2-7.3-6.8-13.6-9.5-17.8c-0.5,1.1-0.9,2.2-1.4,3.3
	c-1.4-5.9-2.9-11.8-5.4-17.3c-2.5-5.5-6.2-10.6-11.3-13.9c2.4,4.3,4.9,8.6,6.4,13.3s2.2,9.8,0.9,14.6c-1.1,4-3.5,7.9-2.6,12
	c0.2,0.9,0.6,1.9,0.6,2.8c0,1-0.5,2-1.4,2.3c-1,0.3-2-0.4-2.9-1c-0.9-0.5-2.3-0.8-2.8,0.1c-0.7,1.1,0.9,2.5,0.5,3.7
	c-0.3,1.1-1.7,1.4-2.7,1.1s-2-1-3-1.2c-1.1-0.2-2.5,0.3-2.5,1.4c0,0.4,0.1,0.7,0.2,1c0.3,1.9-1.9,3.5-3.9,3.2
	c-1.9-0.2-3.5-1.6-5-2.9c0.2,2,0.5,4,0.7,6c0.1,1.2,0.5,2.4,0.8,3.6c-0.2,0.4-0.5,0.8-0.6,1.2c-0.7,1.4-1.3,3.2-2.8,3.5
	c-1,0.2-2.1-0.3-2.9-0.9c-2.4-1.6-4.5-3.5-6.3-5.7c-1.7-4.6-2.6-9.4-2.5-14.3c-2.1,3.4-4.2,7-4.2,11c0,3.5,1.6,6.8,2.5,10.3
	c0.8,3.3,0.8,6.9,0.1,10.2c-0.2,0.9-0.5,1.7-1,2.4s-1.6,1-2.4,0.5c0.2,1.7,0.4,3.3,0,5s-1.2,3.2-2.7,4c-0.8,0.4-1.7,0.6-2.2,1.2
	c-0.6,0.6-0.4,1.9,0.5,1.9c1,1.8,2.1,3.7,2.6,5.7c0.5,2,0.5,4.3-0.4,6.1C289.6,210.4,287.6,211.7,286.1,213.3z M287.5,219.2
	c-0.2-0.1-0.5-0.2-0.7-0.3c1.6-0.6,3-1.9,4.2-3.3c1.7-2,3.2-4.3,5.5-5.6c1.1-0.6,2.4-0.9,3.6-1.2c0,1.8,0,3.6,0.1,5.4
	c0,0.3,0,0.5-0.1,0.8c-0.6,0-1.3,0.1-1.8,0.4c-1.9,0.7-3.4,1.9-5.2,2.8C291.5,219.2,289.4,219.8,287.5,219.2z M277.7,311.3
	c-1.2,4.6-2.4,9.2-3.6,13.8c2-2,4-4,6-6c-0.2,2.5-0.3,4.9-0.5,7.4c0.2-0.6,0.8-1,1.6-1.2c-5.9,6.7-11.6,13.7-17.1,20.8
	C266,333.7,270.7,321.7,277.7,311.3z M263.6,348.7c6.1-7.9,12.4-15.7,19-23.2c0.2,0.1,0.3,0.2,0.5,0.3c1.3,1.1,1.5,3,1.7,4.7
	c0.8,6.5,2.7,12.8,5.7,18.5c-0.4-0.1-0.7-0.1-1.1-0.2c-7.7-1.2-15.4,0.7-22.9,2.9c-1.1,0.3-2.2,0.7-3.3,1.2
	C263.3,351.4,263.4,350,263.6,348.7z M262.1,350.5c0.1,0.8,0.3,1.7,0.5,2.5c-1.3,0.6-2.6,1.2-3.9,1.9
	C259.9,353.5,261,352,262.1,350.5z M322.6,400.5c1.6-6.5,0.8-13.9-2.2-19.7c0.5,5.1,1,10.3,0.6,15.3c-0.1,1.4-0.2,2.8-0.4,4.1
	c-0.3,0.9-0.7,1.9-1,2.7c0,0-4.8,5.2-6.2,5.2c-1.6,0-3.9-3.5-5.4-2.8c-1.6,0.7-2.4,3.7-4,4.6c-1.3,0.8-2.8,0-3.9-1.3
	c-1.1-1.4-1.8-3.3-2.4-5.3c-2.4-7.6-3.6-16.1-3.5-24.4c0-0.9-0.8-1.2-1-0.4c-2.1,7.4-2.2,16.1-0.5,24c0.7,3.2,1.8,6.6,1.1,9.6
	c-0.5,2.3-1.9,3.8-3.3,4.8c-4.4,3-10.1,1.5-13.8-3.6c-1.3-1.8-2.3-4.4-2.9-7.3c-0.5-2.4-2.8-2.1-3,0.4c-0.1,1.9-0.2,3.7-0.1,5.3
	c0.1,1.7,0.2,3.5-0.5,4.8c-0.6,1.2-1.8,1.4-2.8,1.2c-4.4-0.6-8-6.7-9.2-13.3c-0.9-4.6-0.9-9.7-0.5-14.6c0.1-1.4-1.2-2-1.5-0.7
	c-2,7.1-0.1,13.7-1,20.5c-0.1,0.9-0.3,1.8-0.6,2.5c-0.6,1.2-1.7,1.6-2.7,1.3s-1.9-1.2-2.7-2.2c-5.9-7.1-8.9-19.6-7.2-30.5
	c0.5-1.7,1.1-3.4,1.9-5.1c3-4.2,6.1-8.5,9.1-12.7c2.1-1.6,4.8-3.3,6.9-4.7c3.1-1.5,6.3-2.7,9.5-3.6c7.4-2,15.5-3.4,23-1.5
	c-0.4,0.6-0.7,1.1-1.1,1.7c-4.6,7.4-10.6,17.7-13.8,23.9c5.2-8.2,10.5-16.3,15.7-24.5c0.2-0.3,0.3-0.5,0.5-0.8
	c0.1,0,0.3,0.1,0.4,0.1c2.7,0.9,5.5,2.3,7,5.3c0.3,0.7,0.6,1.5,1.2,1.9c0.9,0.7,2,0,3-0.5c4.8-2.6,10.1,0.8,14.5,4.4
	c4.9,4,8.7,10.4,9.5,17.5S327.6,397,322.6,400.5z M331,375.3c-1.1-5-3.7-9.3-7.8-12.7c-1.5-1.2-2.8-2.2-4-3c-1.2-4.7-1.9-9.6-2-14.5
	c-2.9,3.1-4.5,7.3-4.7,11.5c-0.2,0-0.5-0.1-0.7-0.1c-3.8-4.8-6.3-10.6-7.2-16.6c-1.6,1.7-2.5,4.1-2.4,6.5c-0.5-1.4-0.9-2.8-1.3-4.1
	c11.2-17,23-33.9,37.4-47.9c0.8,0.9,1.5,1.8,2.1,2.9c0.1-1.7,0.2-3.4,0.2-5.1c0.5-0.5,1-0.9,1.5-1.4c2.7,3.5,5.5,7,8.7,10.1
	c-5.4,5-9.4,11.5-11.5,18.5c1.9-2.2,4.2-4,6.8-5.3c-0.8,3-1.6,6.1-2.3,9.1c1.7-1.7,3.3-3.5,5-5.2c-0.1,3.5-0.3,7-0.4,10.5
	c1.9-3.6,3.7-7.1,5.6-10.7c1.4,7.8,4.4,15.3,8.8,21.9c0.5-6.5,1-12.9,1.5-19.4c14.5,4.6,29.2,9.2,44.4,10.3
	c-3.4-2.3-6.3-5.3-8.5-8.8c7.7,1.2,15.8,0,22.8-3.4c-4,0.3-8.1-0.5-11.7-2.3c2.9-2.3,5.7-6,8.3-10c3.1-2.4,6.3-4.8,10-6.3
	c3.9-1.6,8.5-2.1,12.4-0.4c-2.2-1.6-4.4-3.3-6.6-4.9c3.4-1,7-0.9,10.3,0.3c-0.9-1.5-1.8-2.9-2.7-4.4l5.2-0.2
	c-0.1-0.2-0.3-0.4-0.4-0.5c1.9,1.1,3.9,2.2,5.8,3.4c5.3,3.5,10.2,6.9,15,10.7c0.9,2.1,2,4,3.3,5.9c-0.1-1.1-0.3-2.2-0.3-3.4
	c1.4,1.2,2.9,2.5,4.3,3.8c0.2,0.2,0.5,0.5,0.7,0.7c0.4,2.7,0.8,5.4,1,8.2l-4.5-1.1c0.5,3.7,0.6,7.4,0.3,11.1l-5-6.2
	c1.3,5.7,1.7,11.5,1.3,17.3c-0.7-1.4-1.4-2.7-2.1-4.1c-0.3,1.4-0.5,2.7-0.8,4.1c-1.9-2.8-3.7-5.5-5.6-8.3
	c-1.2,6.5-4.5,12.5-8.8,17.7c-4.2,5.1-9.3,9.5-14.3,13.9c9.3-3.4,17.4-9.9,22.8-18.2c-0.4,3.4-1.3,6.7-2.7,9.9
	c5.1-5,10.3-10,15.4-15c1.3-1.2,2.6-2.5,3.4-4.1s0.9-3.7-0.1-5.1c1,1.5,2.7,2.5,4.5,2.7c0.1-2.1-0.4-4.2-1.4-6.1
	c1.3,1.1,2.7,2.2,4,3.3c0.2-3.1-1.1-6.3-3.5-8.3c2.8,0.8,5.6,2.1,8,3.8c2.4,6.1,2.5,12.9,2.8,19.7c-0.4,0.1-0.7,0.2-1.1,0.3
	c-7.2,1.9-9.1,5.2-15.4,8.6c-4,2.2-7.7-0.7-16.9,8.9c-3.3,3.4-5.3,7.4-6.1,11.9H331z M537.6,403c-0.3-1.5-1.1-2.9-2.2-3.7
	c-0.4,2.2-0.9,4.4-1.9,6.3c-0.1,0.2-0.2,0.4-0.3,0.6c-0.5-0.2-0.9-0.5-1.3-1c-0.4-0.7-0.7-1.6-0.9-2.4c-1.7-6.6-0.5-13.4-3.3-20.2
	c-0.5-1.2-1.7-0.5-1.5,0.9c0.9,4.8,1.4,9.9,1.1,14.6c-0.5,6.7-3.4,13.1-7.8,14.2c-1,0.2-2.1,0.1-2.9-0.9c-0.8-1.2-0.9-3-1-4.7
	c-0.1-1.6-0.3-3.4-0.7-5.2c-0.4-2.5-2.8-2.5-3,0c-0.3,3-1,5.7-2.1,7.6c-3.2,5.5-8.7,7.6-13.4,5.1c-1.5-0.8-3.1-2.2-3.8-4.4
	c-1-3-0.4-6.5,0-9.7c0.9-8-0.2-16.6-3.1-23.8c-0.3-0.7-1-0.3-0.9,0.5c1,8.2,0.7,16.7-0.8,24.6c-0.4,2-0.9,4-1.8,5.5
	c-0.9,1.5-2.4,2.4-3.7,1.8c-1.7-0.8-2.8-3.6-4.5-4.2c-1.6-0.5-3.5,3.3-5,3.4c-1.4,0.1-6.8-4.5-6.8-4.5c-0.5-0.8-0.9-1.7-1.3-2.6
	c-0.3-1.3-0.6-2.6-0.8-4c-1-5-1-10.2-1.1-15.3c-2.3,6.1-2.3,13.6,0,19.8c-5.4-2.9-8.7-10.3-8.6-17.5c0.1-7.2,3.2-13.9,7.6-18.4
	c4-4.1,8.9-8,14-6c1,0.4,2.2,1,3.1,0.2c0.5-0.5,0.7-1.3,1-2c1.1-3.1,3.8-4.8,6.4-6c6.9-3.2,15-3,22.5-2c0,0.1,0.1,0.1,0.1,0.2
	c4.3,6.3,8.4,12.7,11.9,19.5c-1.9-5-6.6-13.5-10.4-19.5c0.2,0,0.4,0.1,0.7,0.1c3.3,0.5,6.6,1.4,9.9,2.5c3.5,1.9,8.5,4.2,10.5,6.2
	c4.1,4,7.8,9.2,9.8,14.2C543.9,382.9,542.4,395.2,537.6,403z"/>
</svg>
