<!-- SVG credit to RostoumArt on Etsy, https://www.etsy.com/shop/RostoumArt -->

<svg xmlns="http://www.w3.org/2000/svg" viewBox="0 0 537.34 501.6" style="fill: #215342;"><title>Asset 93</title><g id="Layer_2" data-name="Layer 2"><g id="Layer_1-2" data-name="Layer 1"><path d="M478,372.11c2.33,17.62.93,34.83-6.49,51.17-12.2,26.86-39.07,42.72-72.3,41.88-8.2-2.64-15.23,1.57-23,7.8-20,16.11-44.19,22.86-69.13,26.06-30.16,3.87-60.4,4.07-90.06-4.19-20.78-5.78-39.7-15.15-56.07-29.54-2.4-2.1-6.78-2.65-10.25-2.69-12.75-.15-25.75,1.83-38.2-.05-14.29-2.16-27.56-7.23-36.11-21.67-2.85-4.82-8.84-9.07-11.33-15-16.67-39.76-10-87.69,31.22-112.44,12.94-7.77,27.05-11.85,42.29-9.83,5.37.71,5.91-2.81,7.15-6.17,10.65-28.78,28.6-51.62,55.61-66.56,72.14-39.9,164.2-8.21,193.62,64.77,1.5,3.72,3.11,5.89,7.73,5.72C452.21,299.61,472.9,333.39,478,372.11ZM361,151.91c24.92-3.22,43.75-22.81,45.59-48.93A159.42,159.42,0,0,0,405.1,69c-2.89-19.91-9.53-38.58-23.82-53.51C361.36-5.3,322.4-8.38,305.44,26.31,297.58,42.38,295.27,59.46,295,77l-1.83.4C296,90.8,297.5,104.65,302,117.47,310.46,141.94,334.67,155.31,361,151.91Zm-172.07,0c22.8-1.78,38.78-14.15,47.81-35,11.48-26.44,10.27-53.3.88-80C222.75-5.18,180.33-3.52,158.35,18.61c-20.26,20.4-27.69,46-28.69,73.89-.3,11.63,1.38,22.84,7.32,32.94C148.6,145.2,166.51,153.66,188.88,151.92ZM96.73,234.39c10.77-27.63,9.69-55.52-.8-82.85-13-34-50.67-39.24-73.18-10.57C6.88,161.19.73,184.71,0,213.53.42,217,.79,224,2.17,230.87,7.42,257,33.56,273.43,57.76,268.62,77.55,264.68,89.74,252.35,96.73,234.39Zm416.91-93.93c-17.31-22-47.34-20.22-63.82,2.65-12.3,17-14.86,36.92-16.07,55.63.26,17,2.78,31.89,11,45.33,10.77,17.58,26.49,27.27,47.17,25.39,20.08-1.82,34.48-13.35,40.43-32.65C543.2,201.66,536.1,169,513.64,140.46Z"/></g></g></svg>