<?xml version="1.0" encoding="utf-8"?>
<!-- Generator: Adobe Illustrator 24.2.3, SVG Export Plug-In . SVG Version: 6.00 Build 0)  -->
<svg version="1.1" id="ae252d4e-c6f7-4778-a543-9b5f78b85022"
	 xmlns="http://www.w3.org/2000/svg" xmlns:xlink="http://www.w3.org/1999/xlink" x="0px" y="0px" viewBox="0 0 748 489.9"
	 style="enable-background:new 0 0 748 489.9; fill: #215342;" xml:space="preserve" height="247" width="290">
<path d="M410.3,200c-7.4,1.3-14.2,7.2-17.2,14.9c-2.7,6.8-2.7,15,0.1,23c0.1,0.4,0.5,0.7,0.9,0.7c0.1,0,0.2,0,0.2,0
	c1.4-0.3,2.4-1.4,2.6-2.8c0-0.5,0-0.9-0.1-1.4c-0.1-0.3-0.1-0.6-0.1-0.9c0-0.1,0.1-0.3,0.1-0.4c0.1,0.1,0.2,0.2,0.2,0.3
	c2,2.5,4.8,4.2,7.9,4.8c2.2,0.8,4.5,1.2,6.9,1.1h0.1c6.6,0,15.4-2.6,18.3-9.5c0.7-1.7,1.3-3.4,1.9-5.2c0.5,0.1,1-0.3,1.1-0.8
	c0-0.2,0.1-0.3,0.1-0.5c0.4-2.4,0.4-4.8,0.2-7.1c0-1.3,0-2.6-0.2-3.8l3.7-2.3c0.5-0.3,0.6-0.9,0.3-1.4c-0.1-0.1-0.2-0.2-0.3-0.3
	c-4-2.5-8.1-4.7-12.5-6.5C420,199.9,415.1,199.3,410.3,200z M430,218.9c0.3,3.6-0.6,7.3-2.5,10.4c-1.7,2.5-6,5.6-8.7,6.2
	c-3.3,0.9-6.7,1.1-10,0.7c-0.1-0.1-0.2-0.1-0.3-0.1c-7.6-1.9-12.3-9.6-10.4-17.3c0-0.1,0.1-0.2,0.1-0.3c1.2-4.1,4-7.5,7.7-9.7
	c5.4-3.4,12.1-3.7,17.8-0.9c2.3,1.3,4.3,3.1,5.6,5.4C429.7,215.2,429.9,217.1,430,218.9z"/>
<path d="M412.3,208.2c-1.1-0.1-2.3,0.3-3.1,1c-0.7,0.6-1.1,1.4-1.2,2.2c0,0.3,0.2,0.5,0.5,0.5c0,0,0,0,0,0c1.5,0.1,2.6,0.1,3.7,0.1
	c0.5,2.1,0.5,4.3,0.2,6.5c-2,0.4-4,0.5-6,0.4c-0.2,0-0.3,0.1-0.4,0.2c-0.1,0.1-0.1,0.3,0,0.5c0.9,2.3,2.1,4.5,3.6,6.5
	c1.6,2.1,3.9,3.5,6.4,3.9c0,0,0,0,0.1,0c0.1,0,0.3-0.1,0.4-0.2c2.3-2.7,3.6-6,3.7-9.5c0.1-3.4-1.1-6.7-3.2-9.4
	C415.8,209.6,414.1,208.5,412.3,208.2z"/>
<path d="M339.3,210.9c-5.8-4.2-13.2-5.5-20-3.5c-6.8,2-12.5,6.7-15.8,12.9c0.1,0.6,0.1,1.2,0.2,1.8c0.2,0.4,0.7,0.7,1.2,0.5l0.6-0.2
	c-0.3,1.4-0.3,2.8,0,4.2c0.2,3.3,1.2,6.4,2.7,9.4c0.7,1.2,1.6,2.3,2.6,3.2c0.7,0.7,1.4,1.4,2.2,1.9c1.9,1.2,3.9,2.2,6.1,2.8
	c3.3,1,6.8,1.5,10.2,1.5c1.7,0,3.4-0.1,5.1-0.5c2-0.3,3.9-0.9,5.8-1.6c1.6-0.6,3.1-1.3,4.6-2.1c1.7-0.8,3.2-2.1,4.1-3.8
	c0.4-1.2,0.6-2.4,0.6-3.6c0-4.3-0.8-8.6-2.4-12.6C345.5,217.1,342.8,213.5,339.3,210.9z M313.8,237.5c-2.5-2.4-4-5.7-4.1-9.2
	c-0.1-4.8,2.1-9.4,5.8-12.5c3.8-3,8.6-4.5,13.5-4.1c5,0.3,9.7,2.7,12.8,6.6c1.8,2.7,3,5.7,3.5,8.9c0.4,1.7,0.4,3.6,0.1,5.3
	c-0.6,2.3-2,4.4-3.9,5.9c-1,0.8-2,1.6-3.1,2.2C330.2,243.8,321,242.6,313.8,237.5L313.8,237.5z"/>
<path d="M331.9,220.5c-0.3-1.2-0.9-2.4-1.7-3.4c-0.8-1.1-2-1.8-3.4-2c-2.3-0.4-4.4,1-6.3,2.5c-0.2,0.1-0.2,0.4-0.2,0.6
	c0.1,0.2,0.3,0.3,0.5,0.3c2.8-0.1,5.6,0.2,8.4,0.8l-0.6,5.9l-6.7,0c-0.5,0.1-1,0-1.3-0.3c-0.2-0.2-0.5-0.2-0.7,0
	c-0.1,0.1-0.1,0.2-0.1,0.3c-0.8,5.4,2.3,10.7,7.4,12.6c0.1,0,0.1,0,0.2,0c0.1,0,0.3-0.1,0.4-0.1
	C332.2,233.2,333.8,226.6,331.9,220.5z"/>
<path d="M281.2,201.6c-3.2,0.6-6.5,0.5-9.6-0.4c0.9-0.2,1.7-0.4,2.5-0.6c5.6-1.5,11.3-2.9,16.9-4.4c0.3-0.1,0.4-0.3,0.4-0.6
	c0-0.1-0.1-0.2-0.2-0.3c-1.2-1-1.9-2.5-1.8-4.1l6,4c0.1,0.1,0.3,0.1,0.4,0.1c0.1-0.1,0.3-0.2,0.3-0.3c0.2-0.5,0.3-1,0.4-1.5
	c2.6-3.3,3.2-7.7,1.7-11.6c1.5,0.5,2.9,1.5,3.8,2.7c0.2,0.2,0.5,0.3,0.7,0.1c0.2-0.1,0.2-0.3,0.2-0.5c-0.8-2.8-2.6-5.2-5.1-6.8
	c7.6-2.5,15.6-3.7,23.7-3.5h0c0.3,0,0.5-0.2,0.5-0.5c0-0.1,0-0.2-0.1-0.3c-0.8-0.9-1.7-1.7-2.7-2.4l5.1,0.8c0.3,0,0.5-0.1,0.6-0.4
	c0-0.2,0-0.3-0.2-0.5c-2.6-2.2-5.5-4-8.6-5.3c1.9-1.6,2.5-4.3,1.6-6.6c-1.3-6.9-14.2-25.9-21.9-37.4c-2.2-3.3-4-5.9-4.9-7.3
	c-0.5-0.8-12.3-19.8-18.4-16.8c-0.2,0.1-0.3,0.4-0.2,0.7c0,0.1,0.1,0.1,0.2,0.2c6.5,4.7,10.6,8.6,12.3,11.8c0.3,0.6,0.7,1.2,1,1.7
	c-1.6-1.3-3.3-2.4-5.1-3.4c-4.5-2.2-9.7-2.5-14.6-2.3c-0.8,0.1-1.8,0.2-2.5,0.3c1.5-0.1,3.1,0,4.6,0.1c3.8,0.4,8.1,1.1,11.6,3
	c3.2,1.8,6.2,4,8.9,6.6c0.5,0.8,1,1.7,1.5,2.5c-5-4.7-12-6-18.9-6.5c-0.9-0.1-2-0.1-2.8-0.1c1.7,0.3,3.3,0.6,5,0.9
	c6.2,1.4,10.8,3.1,15.5,6.6c0.3,0.2,0.6,0.5,0.9,0.8l-5.1,0.3c-0.3,0-0.5,0.3-0.5,0.5c0,0.2,0.2,0.4,0.4,0.5c3.3,1,6.4,2.7,9.1,4.9
	c-2.8-0.8-5.8-1.2-8.8-1.1c-0.3,0-0.5,0.2-0.5,0.5s0.2,0.5,0.5,0.5c7.1,0.7,13.4,4.7,17.3,10.7l-5.3-4.6c-0.2-0.2-0.5-0.2-0.7,0.1
	c-0.1,0.2-0.2,0.4,0,0.6c3.1,4.6,5.8,8.5,8.5,12.4c-2.3-1.5-4.7-2.7-7.3-3.6c-5.6-3.7-11.8-6.3-18.3-7.8c-0.8-0.2-1.8-0.4-2.5-0.5
	c2.2,0.6,4.4,1.4,6.5,2.3c3.2,1.4,6.4,3,9.4,4.8c-0.9-0.2-1.9-0.3-2.8-0.4c-0.2,0-0.5,0.1-0.5,0.4c-0.1,0.2,0.1,0.5,0.3,0.6
	c4.4,2,8.1,5.1,10.9,9c-6.7-4.4-15.3-5.1-23.1-5.2c-1.1,0-2.5,0-3.5,0.1c2.8,0.2,5.2,0.5,7.9,1c8,1.4,15.3,3.3,21.1,8
	c0.2,0.4,0.4,0.9,0.6,1.3c-7.4-3.7-16.3-4.2-24.8-2.7c-0.4-0.4-0.8-0.8-1.2-1.2c-6.4-6.8-10.2-15.6-10.8-25c0-0.2-0.2-0.4-0.4-0.5
	c-0.2,0-0.4,0.1-0.5,0.3c-1.3,2.7-2,5.7-1.8,8.8c0.3,6.7,4.3,12.6,7.9,17.8c0.3,0.4,0.6,0.8,0.8,1.3c-1.4,0.4-2.7,0.9-4,1.4
	c-1.3,0.5-2.5,1-3.7,1.6c-0.8-0.6-1.8-0.9-2.7-0.9c-0.2,0-0.3,0.1-0.4,0.2c-0.1,0.2-0.1,0.3,0,0.5c4.6,8.3,10.1,16,16.5,22.9
	c0.7,0.9,1.7,1.6,2.8,2.1c0.3,0.1,0.6,0.1,0.8,0.1c1.1,0.1,2.1-0.6,2.5-1.6c0.4-1.3-0.5-2.3-1.2-3.2c-0.4-0.4-0.7-0.9-1-1.4
	c2.3-1.7,3.1-4.7,1.9-7.3c-0.1-0.3-0.3-0.5-0.4-0.8c-0.5-0.8-0.9-1.6-0.6-2.3c0.4-0.9,1.7-1,2.8-0.7l0.5,0.1c1.2,0.3,2.5,0.7,3.7,0
	c0.2-0.1,0.3-0.4,0.2-0.7c0,0,0,0,0,0c-2.3-3.1-4.9-5.9-7.9-8.4c-0.7-0.7-1.5-1.3-2.2-2c4.6-0.4,9.2-0.3,13.7,0.4
	c3.7,0.4,7.3,1.4,10.6,3c0.9,2.3,1.4,4.7,1.7,7.2c-2-0.8-4.1-1.2-6.3-1.3h0c-1,0-2.2,0.4-2.3,1.5c0,0.6,0.3,1.2,0.9,1.6l3.1,2.8
	c-4.8-0.9-9.8-0.3-14.3,1.5c-0.3,0.1-0.4,0.4-0.3,0.7c0,0,0,0.1,0,0.1c2.5,4,4.6,8.2,6.2,12.6c-0.1,1-0.3,2-0.5,3
	c-0.2,0.9-0.7,1.9-1.4,1.9c-0.4-0.1-0.7-0.3-1-0.6l-4.9-4c-0.2-0.2-0.5-0.1-0.7,0.1c-0.1,0.2-0.2,0.4,0,0.6c0.9,1.2,1.6,2.6,2,4.1
	c0.3,1.4-0.2,2.8-1.3,3.7c-1.2,0.6-2.5,0.7-3.7,0.3c-4.8-0.9-9.4-3-13.2-6c-0.2-0.2-0.5-0.1-0.7,0.1c-0.1,0.2-0.1,0.4,0,0.6l3.1,5
	c-3-1.1-5.6-3-7.7-5.4c-0.2-0.2-0.5-0.2-0.7-0.1c-0.1,0.1-0.2,0.2-0.2,0.4c0.2,3.6,1.2,7.2,2.9,10.4l-3.7,2.2
	c-0.2,0.1-0.3,0.4-0.2,0.7c0,0.1,0.1,0.1,0.2,0.2l2.1,1.3l-1.9,1.2c-0.2,0.1-0.3,0.5-0.2,0.7c0,0.1,0.1,0.1,0.1,0.1l3,2.1
	c-4,2.1-6.6,6.2-6.8,10.7c0,0.3,0.2,0.5,0.5,0.5c0.2,0,0.3-0.1,0.4-0.2c1.4-2,3.5-3.4,5.8-4.1c-5.6,10-7.5,21.7-5.3,32.9
	c0,0.2,0.3,0.4,0.5,0.4c0,0,0,0,0,0c0.3,0,0.5-0.2,0.5-0.5c0.3-10.1,3.7-19.9,9.9-27.9c0.2-0.2,0.1-0.5-0.1-0.7
	c-0.1-0.1-0.3-0.1-0.5-0.1l-1.9,0.6c1.7-3.2,4.4-5.7,7.6-7.4c0.2-0.1,0.4-0.4,0.2-0.7c-0.1-0.1-0.2-0.2-0.4-0.3l-2.7-0.5l10.2-6.7
	c0.2-0.2,0.3-0.5,0.1-0.7C281.6,201.7,281.4,201.6,281.2,201.6L281.2,201.6z M269,155.5c1.1-0.3,2.2-0.6,3.3-0.8
	c3.2,4.9,5.8,9.7,5.9,15.1c-2.2,0.2-4.2-1.9-5.7-3.8c-2.9-3.7-5.8-7.2-8.4-8.9C265.7,156.4,267.4,155.9,269,155.5z"/>
<path d="M353.6,278.1c-1,0.2-2.1,0.3-3.1,0.3c-0.1,0-0.3,0.1-0.4,0.2l-1.6,1.7c-0.2,0.2-0.2,0.5,0,0.7c0.1,0.1,0.3,0.2,0.5,0.1
	l1.2-0.4l-0.5,1.4c-0.1,0.3,0,0.5,0.3,0.6c0.1,0,0.3,0,0.4,0c1.6-0.9,2.9-2.3,3.7-3.9c0.1-0.2,0.1-0.4,0-0.5
	C354,278.1,353.8,278,353.6,278.1z"/>
<path d="M342.6,272.8c0.2-0.2,0.1-0.5-0.1-0.7c-0.1-0.1-0.3-0.1-0.4-0.1c-0.5,0.2-1,0.4-1.5,0.7c-0.2,0.1-0.4,0.2-0.6,0.4
	c-0.1,0-0.2,0.1-0.2,0.2l-0.8,1.6c-0.1,0.2,0,0.5,0.2,0.7c0.1,0.1,0.2,0.1,0.4,0l0.8-0.2c-0.1,0.1-0.1,0.2-0.2,0.3
	c-0.2,0.2-0.1,0.5,0.1,0.7c0.2,0.2,0.5,0.1,0.7-0.1l1.7-2c0.2-0.2,0.2-0.4,0-0.6C342.4,273.5,342.4,273.1,342.6,272.8z"/>
<path d="M347.2,291l0.2-0.3c0.2-0.2,0.1-0.5-0.1-0.7c-0.1-0.1-0.3-0.1-0.4-0.1c-0.8,0.2-1.7,0.6-2.6,2.9l-1.1,2.7
	c-0.1,0.3,0,0.5,0.3,0.6c0.2,0.1,0.4,0,0.5-0.1l1.3-1.1c0,0,0,0,0.1,0.1c0.2,0.2,0.4,0.2,0.6,0c0.8-0.5,1.4-1.2,1.9-1.9
	c0.2-0.3,0.4-0.7,0.4-1.1c0-0.3-0.2-0.7-0.5-0.9C347.7,291.2,347.4,291.1,347.2,291z"/>
<path d="M378.4,203.8c-0.5,3.7,0.1,7.4,0.8,11c0.5,2.5,0.9,5.1,1,7.7c0.2,1.6-0.3,3.2-1.2,4.6c-1.4,1.7-3.7,1.8-6.2,1.9
	c-0.7,0-1.4,0.1-2.1,0.2c-7.4,1.1-13,7.4-13,14.9c0,0.2,0.1,0.4,0.4,0.5c0,0,0.1,0,0.1,0c0.2,0,0.3-0.1,0.4-0.2
	c2-2.7,4.5-4.9,7.4-6.5l0.8,1.3c0.1,0.2,0.5,0.3,0.7,0.2c0.1-0.1,0.2-0.2,0.2-0.3c0.4-1.8,2.3-3,4.1-2.5c0.2,0,0.4,0.1,0.6,0.2
	c0.2,0.1,0.4,0.2,0.6,0.4c0.8,0.5,1.8,1.2,2.9,0.6c0.4-0.3,0.8-0.7,1-1.2c0.1-0.3,0.3-0.5,0.5-0.8c0.5-0.4,1.3-0.2,2.5,0.5l9.4,5.9
	c0.2,0.1,0.5,0.1,0.7-0.2c0.1-0.1,0.1-0.3,0-0.5c-3.1-7.9-4.2-16.4-3.2-24.8l0.8,3.4c0,0.2,0.3,0.4,0.5,0.4c0.2,0,0.4-0.2,0.5-0.4
	c1.8-13.1,12.5-23.2,25.6-24.4c0.3,0,0.5-0.3,0.5-0.5c0-0.2-0.1-0.3-0.3-0.4c-4.2-2.1-9-2.6-13.5-1.3l2.6-2.4c0.2-0.2,0.2-0.5,0-0.7
	c-0.1-0.1-0.2-0.1-0.3-0.2c-4.2-0.5-7.9,2.5-11,5.4l-8.1,7.5c-0.6-3.8-0.2-7.8,1.3-11.4c0.1-0.3,0-0.5-0.3-0.7
	c-0.2-0.1-0.5,0-0.6,0.2c-2.5,5.1-3.9,10.6-4.3,16.3c-0.7-1.1-1-2.3-1-3.6c0-0.3-0.2-0.5-0.4-0.5
	C378.7,203.4,378.5,203.6,378.4,203.8L378.4,203.8z"/>
<path d="M337.9,198.2c-0.3-0.1-0.5,0.1-0.6,0.4c0,0.2,0,0.4,0.2,0.5l2.3,2.1c-3.7-0.8-7.5-0.7-11.1,0.3c-0.3,0.1-0.4,0.3-0.4,0.6
	c0,0.2,0.1,0.3,0.3,0.3c8.6,3.5,15.8,9.8,20.3,17.9c0.1,0.2,0.3,0.3,0.4,0.3c0,0,0.1,0,0.1,0c0.2,0,0.4-0.2,0.4-0.4
	c0.3-3.4-0.4-6.8-1.9-9.9c1.7,1.1,3.2,2.5,4.4,4.1c0.2,0.2,0.5,0.3,0.7,0.1c0.1-0.1,0.2-0.2,0.2-0.3c0.6-1.9,0.1-3.9-1.4-6.3
	C348.7,202.9,343.6,199.5,337.9,198.2z"/>
<path d="M427.2,246.1c0.1,0.2,0.3,0.3,0.5,0.3c0,0,0.1,0,0.1,0c6.9-1.5,15.5-3.5,23-0.9c0.2,0.1,0.4,0,0.5-0.1
	c0.1-0.1,0.2-0.3,0.1-0.5c-0.3-1.3-1-2.5-1.9-3.6l5.7-2.4c0.3-0.1,0.4-0.4,0.3-0.7c0-0.1-0.1-0.2-0.2-0.2c-0.9-0.5-2-0.9-3-1
	c0.4-0.3,0.6-0.8,0.8-1.2c0.1-0.3,0-0.5-0.3-0.6c0,0,0,0,0,0l-4.3-1.6c1.1-1.4,1.7-3,1.9-4.8c0-0.3-0.2-0.5-0.5-0.5
	c-0.1,0-0.3,0-0.4,0.1c-0.3,0.3-0.7,0.5-1.2,0.5c0.5-2,0.4-4.1-0.2-6c-0.1-0.2-0.3-0.4-0.5-0.4c-0.3,0-0.4,0.2-0.4,0.5
	c-0.1,4.6-2.5,8.9-6.5,11.3c-0.2,0.1-0.3,0.4-0.2,0.7c0.1,0.1,0.2,0.2,0.3,0.2l2.2,0.6c-4.6,4.1-9.9,7.4-15.6,9.7
	C427.2,245.6,427.1,245.9,427.2,246.1z"/>
<path d="M315.3,254.8c-5.7-2.3-11-5.6-15.6-9.7l2.2-0.6c0.3-0.1,0.4-0.3,0.4-0.6c0-0.1-0.1-0.2-0.2-0.3c-3.9-2.4-6.4-6.7-6.5-11.3
	c0-0.3-0.2-0.5-0.5-0.5c-0.2,0-0.4,0.2-0.5,0.4c-0.6,1.9-0.7,4-0.2,6c-0.4,0-0.8-0.2-1.2-0.5c-0.2-0.2-0.5-0.2-0.7,0
	c-0.1,0.1-0.2,0.3-0.1,0.4c0.1,1.8,0.8,3.4,1.9,4.8l-4.3,1.6c-0.3,0.1-0.4,0.4-0.3,0.6c0,0,0,0,0,0c0.2,0.5,0.5,0.9,0.8,1.2
	c-1.1,0.2-2.1,0.5-3,1c-0.2,0.1-0.3,0.4-0.2,0.7c0.1,0.1,0.1,0.2,0.2,0.2l5.7,2.4c-0.9,1-1.5,2.2-1.9,3.6c-0.1,0.3,0.1,0.5,0.4,0.6
	c0.1,0,0.2,0,0.3,0c7.5-2.5,16.1-0.6,23,0.9c0,0,0.1,0,0.1,0c0.3,0,0.5-0.2,0.5-0.5C315.6,255,315.5,254.8,315.3,254.8L315.3,254.8z
	"/>
<path d="M439.8,161.1c-0.2,0-0.2,0-0.2-0.1c-0.4-0.9,2-7.3,2.7-8.6c6-10.8,9.6-22.8,10.4-35.2c0-0.3-0.2-0.5-0.4-0.5
	c-0.2,0-0.5,0.1-0.6,0.3l-4.6,13.8c-0.2,1.1-0.8,2.2-1.7,3c-1.3,1-3.3,0.5-5.2-0.2c-0.3-0.1-0.5,0-0.6,0.3c0,0.1,0,0.2,0,0.3
	c1.7,7.3,0.7,15-2.9,21.5c-0.8,1.5-1.6,2.2-2.5,2.2c-1-0.2-1.8-1-1.8-2c0-0.5,0-0.9,0-1.4c0.1-1.4,0.1-2.7-0.1-4.1
	c0-0.3-0.3-0.5-0.6-0.4c-0.2,0-0.4,0.2-0.4,0.4c-1.3,5-2.7,12.5-0.6,19.4c0,0.1,0.1,0.2,0.1,0.3c0.1,0.3,0.4,0.4,0.7,0.3
	c0.2-0.1,0.4-0.4,0.3-0.6c0-0.1,0-0.1-0.1-0.2c0-0.1,0-0.2,0.1-0.2c0.5-0.6,3.1-1,6.3-0.2c0.1,0,0.4,0.2,0.8,0.3
	c2.1,1.1,4.5,1.7,6.8,1.9c1.1,0,2.1-0.2,3.1-0.7c1.8-1,2.8-3.1,3.2-6.1c0.7-4.3,1.7-8.6,3.1-12.7c2.2-7.4,4.5-15.1,3.3-21.1
	c0-0.2-0.2-0.4-0.5-0.4c-0.2,0-0.4,0.2-0.5,0.4C454.9,140.6,443,160.4,439.8,161.1z"/>
<path d="M400,286.8c1,0,1.9,0.3,2.7,0.8c0.2,0.1,0.3,0.2,0.5,0.4c0.3,0.3,0.7,0.5,1.1,0.7c0.3,0.2,0.7,0.2,1.1,0.2
	c0.4,0,0.9-0.1,1.2-0.4c0.2-0.2,0.2-0.5,0-0.7c0,0,0,0-0.1-0.1c-0.6-0.5-2.1-1.7-2-2.1c0-0.1,0-0.3-0.1-0.4
	c-0.1-0.1-0.2-0.2-0.4-0.2c-0.8,0-1.7-0.1-2.5-0.3c-0.2-0.1-0.5-0.2-0.7-0.2c-0.3,0-0.5,0.1-0.6,0.4c-0.1,0.3,0.1,0.5,0.4,0.6
	c0.2,0.1,0.4,0.1,0.6,0.2l0,0l-1.3,0c-0.3,0-0.5,0.2-0.5,0.5S399.7,286.8,400,286.8L400,286.8z"/>
<path d="M618.5,386.1h-90.9c-0.9-3.4-2.4-6.6-4.5-9.4c-3.2-3.9-7.5-6.8-12.3-8.4c-2.5-1.2-5.1-2.1-7.7-2.7l-1.3-5.7l1.8,2.1
	c0.2,0.2,0.5,0.2,0.7,0.1c0.2-0.1,0.2-0.4,0.1-0.6c-6-14.6-12.9-28.8-20.5-42.6c0.1-0.2,0.1-0.5-0.1-0.6l-0.1-0.1
	c-0.1-0.1-0.3-0.3-0.4-0.4c-2.6-4.6-5.2-9.1-7.9-13.6c4.9,2.9,9.6,5.9,14.2,8.9c2,1.3,4.4,2.9,6.1,4c-1.4-1.2-2.9-2.3-4.4-3.4
	c-4.6-3.5-10.1-7.4-16.3-11.3c-1-5.2-0.6-10.6,1.3-15.6l1.6,0.5c-0.5-0.2-1.1-0.4-1.6-0.7c0.4-1.1,0.9-2.1,1.5-3.1
	c0.1-0.2,0.1-0.4,0-0.5c-0.1-0.2-0.3-0.2-0.5-0.2l-3.4,0.4c0.7-1.4,1.4-2.7,2-4.1c3.8,1.5,7.5,3.2,11,4.8c6.6,2.9,13.2,5.9,19.7,9.1
	c-6-3.5-12-6.7-18.2-9.8c-3.9-2-7.9-3.8-12-5.5c0.6-1.6,1.2-3.2,1.7-4.9l0.3,0.7c0.1,0.2,0.3,0.3,0.5,0.3c0.2,0,0.4-0.2,0.4-0.5
	c0.3-5,1.8-9.8,4.3-14.1c0.5-1,1.2-1.8,2.1-2.5c0.8-0.6,1.9-0.6,2.8-0.1c0.2,0.2,0.5,0.1,0.7-0.1c0.1-0.1,0.1-0.3,0.1-0.4
	c-1.7-6.4-1.9-13-0.8-19.5c0.3,0.2,0.6,0.2,0.9,0.2c0.7,0.1,1.4-0.2,1.8-0.8c0.1-0.1,0.1-0.2,0.1-0.4l-2.1-17.1c0-0.4,0-0.9-0.1-1.3
	c0.2-0.1,0.4-0.2,0.6-0.1c0.3,0.1,0.5-0.1,0.6-0.3c0-0.2,0-0.4-0.1-0.5c-0.4-0.4-0.9-0.9-1.5-1.6c0-0.1-0.1-0.2-0.2-0.3
	c-2.6-2.9-6.7-8.2-7.9-13.7l1.7,1c0.2,0.1,0.5,0.1,0.7-0.2c0.1-0.1,0.1-0.2,0.1-0.4c-0.9-3.7-2.8-7.1-5.6-9.8c0.7,0,1.4-0.1,2-0.4
	c0.3-0.1,0.4-0.4,0.3-0.6c0-0.1-0.1-0.2-0.2-0.3c-4.8-3-8.5-7.5-10.5-12.8c0.1-2.4,0.4-4.9,0.8-7.3c0.3-1.6,0.5-3.3,0.7-4.9
	c0.5-5.7-0.4-11.4-1.2-16.9l-2.2-13.9c0.1-8.8-0.6-17.6-1.9-26.3c-2.4-14.3-7.6-26.2-15.2-35.1c-4.2-4.9-8.6-7.2-12.8-6.6
	c-4.5,0.7-7.5,4.5-9.9,8.1c-5.7,8.5-10.3,17.7-14.8,26.6l-16.9,33.4c-0.9,0.9-1.8,1.8-2.5,2.8l-0.2-2.5c0-0.3-0.3-0.5-0.5-0.5
	c-0.1,0-0.2,0.1-0.3,0.1c-4.9,4.4-11,7.4-17.5,8.7l0-3.6c0-0.3-0.2-0.5-0.5-0.5c-0.1,0-0.2,0-0.3,0.1l-5.5,3.7l-6.4-4.3
	c-0.2-0.2-0.5-0.1-0.7,0.1c0,0,0,0,0,0.1l-1.9,4.1c-0.2-0.3-0.3-0.7-0.4-1.1c-0.2-0.8-0.6-1.5-1.2-2c-1.1-0.6-2.4-0.4-3.3,0.6
	c-0.5,0.5-0.9,1-1.2,1.6c-0.2,0.3-0.3,0.6-0.5,0.8c-1.8,2.3-4.6,3.6-7.5,3.5c-3-0.1-5.9-0.7-8.7-1.7l-11.4-3.5
	c-0.3-0.1-0.5,0.1-0.6,0.3c0,0.1,0,0.2,0,0.3l0.8,2.2c-2.4-1.5-5.1-2.3-7.9-2.4c0,0,0,0-0.1,0l-2-3c-2.9-4.3-6.1-9.4-9.5-14.7
	c-11.4-17.9-23.1-36.3-29.4-38c-5-2-10.8-1.1-15,2.2c-4.3,3.3-6.7,8.3-8.4,12.3c-7.6,18.7-8.1,39.6-1.3,58.6
	c-0.9,4.2-0.3,8.6,0.2,12.3l1.5,11.1c0.4,2.6,0.6,5.2,0.4,7.8c-0.7,1.6-1.7,3-2.8,4.3c-0.1,0.1-0.1,0.2-0.1,0.4
	c0,0.1,0.1,0.3,0.2,0.4c1.4,1.1,3.3,1.4,5,0.8c-2.8,4.6-6,8.9-9.6,12.8c-0.2,0.2-0.2,0.5,0,0.7c0,0,0.1,0.1,0.1,0.1
	c1.9,0.9,4.1,1.1,6.2,0.7c-1.2,6.5-3.3,12.8-6.5,18.6c-0.1,0.2-0.1,0.4,0,0.5c0.1,0.2,0.3,0.2,0.5,0.2c1.9-0.3,3.8-0.1,5.6,0.5
	c-3,4.2-4.5,9.3-4.2,14.4c-1,3-1.6,6.1-1.8,9.2c0,0.3,0.2,0.5,0.5,0.5c0.2,0,0.4-0.1,0.5-0.3c0.3-0.9,1.1-1.7,2-2.1l0.8,16.7
	c0,0.3,0.2,0.5,0.5,0.5c0.1,0,0.3-0.1,0.4-0.2c0.6-0.8,1.2-1.7,1.8-2.5c1.5,5.1,6.3,14.7,10.6,18.4c1,3.9,2.5,7.7,4.2,11.3
	c0.1,0.2,0.3,0.3,0.5,0.3c0.2,0,0.4-0.1,0.4-0.3l0.9-2.2l1,3.2c0,1.9-0.1,3.7-0.2,5.6c-0.1,0.8-0.1,1.7-0.2,2.6
	c-5.4,4.7-10.7,9.4-16.1,14.1c-6.5,6-15.3,14.5-20.1,19.7c7.7-6.8,15.5-13.6,23.2-20.4c4.3-3.7,8.5-7.4,12.8-11
	c-0.3,2.9-0.7,5.7-1.4,8.5c-1,4.4-2.9,8.5-5.8,12c-0.2,0.2-0.2,0.5,0.1,0.7c0.2,0.1,0.4,0.2,0.6,0.1c0.7-0.4,1.4-0.7,2.2-0.8
	c-0.7,1.5-1.3,3.1-1.8,4.7c-1,0.8-2,1.7-3,2.5c-2.3,2-4.7,4.1-7,6.1c2.5-1.9,4.9-3.7,7.4-5.5c0.7-0.5,1.4-1.1,2.1-1.6
	c-2.3,8.1-2.3,16.8-2.1,25.2l0,1.1c-1.8,0.3-3.5,0.7-5.1,1c-2.8,0.6-5.4,1.5-8,2.8c-4.8,1.6-9.1,4.5-12.3,8.4
	c-2.6,3.2-4.6,8.4-5.5,13.9h-99.5c-0.3,0-0.5,0.2-0.5,0.5v20c0,0.3,0.2,0.5,0.5,0.5h102.2c0.5,0.9,1.1,1.6,1.8,2.3
	c2.9,2.7,6.5,3.9,10,4.7c4.6,1.1,9.2,1.9,13.9,2.4c0.2,0.3,0.4,0.6,0.7,0.8c1.1,1.1,2.5,1.7,4.1,1.6c0.3,0,0.6,0,1-0.1
	c1.3-0.2,2.5-0.8,3.5-1.6c2.1,0.1,4.3,0.2,6.4,0.2c2.8,0,5.6-0.1,8.4-0.2c5.1-0.3,10-0.8,14.3-3.9c1.9-1.5,3.4-3.3,4.5-5.4
	c0.4-0.3,0.8-0.5,1.2-0.8h148.9c1.6,2.1,3.6,3.9,5.8,5.3c1.1,2.1,2.6,3.9,4.5,5.4c4.3,3.1,9.2,3.6,14.4,3.9c2.9,0.2,5.7,0.2,8.5,0.2
	c2.2,0,4.3-0.1,6.4-0.2c1,0.8,2.2,1.4,3.5,1.6c0.3,0.1,0.6,0.1,1,0.1c1.5,0,3-0.6,4.1-1.6c0.2-0.2,0.5-0.5,0.7-0.8
	c4.7-0.5,9.4-1.4,14-2.4l0,0c0.2,0.2,0.4,0.4,0.6,0.6c0.7,0.5,1.5,0.9,2.4,0.9c0.3,0,0.6,0,0.8-0.1c1-0.3,1.8-0.9,2.4-1.7
	c0.7-0.8,1.2-1.7,1.5-2.6c0.8-0.5,1.5-1.1,2.2-1.7c1.8-1.9,3.1-4.2,3.6-6.8h90.8c0.3,0,0.5-0.2,0.5-0.5v-20
	C619,386.4,618.8,386.1,618.5,386.1z M328.6,158.3c0.1,0.1,0.1,0.2,0.2,0.2l-0.1-0.1C328.6,158.4,328.6,158.4,328.6,158.3z
	 M441.1,269c2.3,0.7,4.4,2,6.1,3.7c0.2,0.2,0.5,0.2,0.7,0c0.1-0.1,0.2-0.3,0.1-0.5c-0.2-0.8-0.5-1.6-0.8-2.3
	c7.5,1.7,15,3.9,22.2,6.6c-0.9,2.2-2.3,4.2-4.1,5.8c-0.6-0.2-1.2-0.5-1.9-0.7l-1.2-0.6c-0.1-0.1-0.3-0.1-0.4,0
	c-6.5-2.4-13.1-4.4-19.8-6.1C442.2,273,441.9,270.9,441.1,269z M461.8,114c0.6,4.7,0.8,9.4,0.7,14.1c-0.1,4.2,0.1,8.5,0.6,12.7
	l-7.8,24.6c-0.1,0.3,0.1,0.5,0.3,0.6c0.2,0.1,0.4,0,0.5-0.2l6.1-7.5c0.4-0.6,1-1.1,1.7-1.4c0.4-0.1,0.9,0,1.2,0.3
	c0.6,0.4,1,1.1,1.2,1.8c0.1,1.2,0,2.3-0.4,3.5l-0.1,0.6c-1.1,4.4-1,8.9,0.1,13.2c0.6,2.8,1.7,5.4,3.4,7.7c0.2,0.3,0.4,0.6,0.6,0.9
	c0.1,0.1,0.1,0.1,0.2,0.2c1.1,1.3,2.3,2.4,3.7,3.4c-0.9-0.2-1.7-0.3-2.6-0.5c-0.2,0-0.4,0.1-0.5,0.3c-0.1,0.2,0,0.4,0.1,0.6
	c0.6,0.5,1.2,1,1.8,1.5c1.8,1.4,3.5,2.9,5,4.6c-0.2,0.1-0.4,0.2-0.5,0.4c-0.1,0.1-0.3,0.2-0.5,0.3c-0.2,0.1-0.3,0.3-0.3,0.5
	c1.5,6.7,4.8,13.3,8,19.6c0.5,0.9,0.9,1.8,1.4,2.7c-0.3-0.2-0.6-0.4-0.9-0.6c-0.7-0.4-1.4-0.9-2.2-1.3c-0.5-1.1-1.1-2.1-1.7-3.2
	c-0.8-1.6-1.6-3-2.3-4.4l-0.8-1.6c-2.6-5.6-5.1-10.9-7.2-16.7c-0.1-0.2-0.2-0.3-0.4-0.3c-0.2,0-0.4,0-0.5,0.2l-1.9,2.6
	c-1.1-2.9-1.8-5.9-2.3-9c0-0.3-0.3-0.5-0.6-0.4c-0.1,0-0.3,0.1-0.3,0.2l-1.6,2.4l-0.1-6.1c0-0.2-0.1-0.3-0.2-0.4
	c-0.2-0.1-0.3-0.1-0.5,0c-1,0.6-1.9,1.3-2.7,2.3l0.4-5.3c0-0.3-0.2-0.5-0.5-0.5c-0.2,0-0.4,0.1-0.5,0.3c-1.2,2.9-3.4,5.4-6.1,7.1
	l1.7-2.8c0.1-0.2,0.1-0.5-0.2-0.7c-0.2-0.1-0.4-0.1-0.5,0c-2.4,1.6-5.4,2.2-8.2,1.7c-2.4-2.1-4.2-4.8-5.1-7.8
	c-0.1-0.3-0.3-0.4-0.6-0.4c-3.1,0.6-6.1,2-8.7,3.9c-2.5-5.1-4.2-10.5-4.8-16.2c0-3.2,0.4-6.3,1.2-9.4c0.1-0.3-0.1-0.5-0.3-0.6
	c-0.2-0.1-0.4,0-0.5,0.1c-1.9,2-4.1,3.7-6.5,5l2.9-8.7c0.1-0.3-0.1-0.5-0.3-0.6c0,0,0,0-0.1,0c-3.9-0.7-8-0.6-11.9,0.5
	c0-0.1,0-0.3,0-0.4c2.7-2.7,5.6-5.2,8.8-7.3c5.7-4.2,11.6-8.3,18.1-11.3c1.3-0.6,2.7-1.2,4-1.7c-0.9,0.2-1.8,0.5-2.6,0.8
	c-8.5,2.9-20.9,9.3-28.1,17.5c0.4-2.7,2-5.1,4.3-6.7c0.2-0.1,0.3-0.4,0.2-0.6c-0.1-0.2-0.3-0.4-0.5-0.3c-1.9,0.1-3.7,0.6-5.3,1.5
	c1.2-1.3,2.6-2.5,3.9-3.8c6.4-6.1,14.4-10,23.2-12.3c1.2-0.3,2.5-0.6,3.6-0.8c-1.1,0.1-2.2,0.3-3.4,0.4c-7,1.2-14.1,3.3-19.8,7.7
	c-3.2,2.7-6.1,5.7-8.6,9.1c0.5-5.7,3.4-10.9,7.9-14.3c5-3.6,10.9-5.8,17.1-6.6c0.3,0,0.5-0.3,0.4-0.6c0-0.2-0.1-0.3-0.3-0.4
	c-5-1.8-11.7,0.6-17.8,3.3c2.7-6.7,8.5-13,15.8-12.6c0.3,0,0.5-0.2,0.5-0.5c0-0.2-0.1-0.4-0.3-0.5c-2.6-1.2-5.6-1.4-8.3-0.5
	c5.4-2,11.9-2.3,16.9-0.4c6.1,2.9,10.8,7.1,15.8,12c0.3,0.3,1.2,1.2,1,1c-1.7-2.1-3.4-4-5.3-5.9c-4.1-4-8.6-8.5-14.4-9.7
	c-4.4-0.7-8.9-0.1-13,1.7c3.5-3.5,6.5-4.3,10-5.1c0.6-0.1,1.2-0.3,1.8-0.4c0.2-0.1,0.4-0.3,0.4-0.6c0-0.3-0.3-0.4-0.5-0.4
	c0,0,0,0,0,0l-0.4,0c-4,0.2-8.2,0.4-10.9,2.3c0.2-0.5,0.4-0.9,0.7-1.4c1.7-1.2,3.5-2.3,5.3-3.3c3.2-1.6,6.1-3.2,9.7-3.8
	c4.9-0.5,9.7,0.4,14.6,1.4c0.5,0.1,1,0.2,1.5,0.3C459.2,100.7,460.9,107.3,461.8,114z M519.6,408.7c-0.2-0.2-0.5-0.1-0.7,0.1
	c0,0-0.1,0.1-0.1,0.2c-0.4,1.7-1,3.3-1.9,4.8c0,0,0,0.1-0.1,0.1c-0.2-0.1-0.4-0.3-0.5-0.5c-0.3-0.6-0.5-1.2-0.6-1.8
	c-0.4-2.2-0.6-4.4-0.5-6.6c0.1-3.3-0.3-6.6-1.4-9.7c-0.2-0.6-0.8-1-1.4-0.8c-0.7,0.2-1.1,1-0.9,1.7c0.6,3.8,0.7,7.7,0.2,11.5
	c-0.7,4.8-3.4,9.9-7.1,10.5c-0.7,0.2-1.5-0.1-2-0.7c-0.5-1.1-0.7-2.3-0.6-3.5c0-1.4-0.1-2.8-0.3-4.3c0-1-0.8-1.9-1.8-2
	c-1,0-1.8,0.8-1.8,1.8c-0.3,2.1-1,4-2.1,5.8c-2.9,4-7.6,5.4-11.4,3.3c-1.4-0.7-2.4-1.9-2.9-3.4c-0.6-2-0.2-4.2,0.3-6.4
	c0.1-0.4,0.1-0.7,0.2-1.1c1.2-6.5,0.7-13.2-1.6-19.4c-0.1-0.4-0.6-0.7-1-0.6c-0.5,0.2-0.8,0.7-0.8,1.2c0.5,6.5-0.1,13.1-1.9,19.4
	c-0.3,1.5-1,2.9-1.8,4.1c-0.6,0.8-1.7,1.6-2.8,1.1c-0.6-0.4-1.2-0.9-1.6-1.6c-0.5-0.9-1.3-1.5-2.2-2c-1-0.3-2,0.5-3,1.3
	c-0.6,0.5-1.3,1.1-1.8,1.1h0c-0.7,0-3.3-1.9-5.3-3.7c-0.3-0.6-0.7-1.3-1-2c-0.2-1-0.4-2.1-0.5-3.2c-0.5-4-0.5-8.1-0.2-12.2
	c0-0.3-0.2-0.5-0.5-0.5c-0.2,0-0.4,0.1-0.5,0.3c-2.2,4.6-2.7,9.9-1.4,14.9c-3.6-2.7-5.8-7.8-5.4-13.1c0.5-5.5,3.2-10.5,7.4-14
	c3.4-2.8,7.8-5.9,12-4.1l0.2,0.1c0.9,0.4,2,0.9,3,0.2c0.4-0.4,0.8-0.9,1-1.4l0.1-0.3c1.1-2.4,3.8-3.6,5.6-4.3
	c7-2.5,15.2-1.5,21.5-0.3c2.9,0.6,5.7,1.4,8.5,2.4c0.6,0.3,1.3,0.7,2.1,1.1c2.5,1.4,5.4,2.9,6.7,4.2c3.3,3.3,6,7.2,7.8,11.5
	c1.8,7.8,0.3,16.9-3.8,22.9C521,410.1,520.4,409.3,519.6,408.7L519.6,408.7z M278.7,383.3c-0.5-0.1-0.9,0.2-1,0.6
	c-2.2,6.2-2.8,12.9-1.6,19.4c0.1,0.4,0.1,0.7,0.2,1.1c0.4,2.2,0.9,4.5,0.3,6.4c-0.5,1.5-1.5,2.7-2.9,3.4c-3.8,2.1-8.4,0.7-11.3-3.3
	c-1.1-1.7-1.8-3.7-2.1-5.8c-0.1-1-0.8-1.7-1.8-1.8h0c-1,0.1-1.8,1-1.8,2c-0.2,1.4-0.3,2.9-0.3,4.3c0.1,1.2-0.1,2.4-0.6,3.4
	c-0.5,0.6-1.3,0.9-2,0.7c-3.7-0.6-6.4-5.8-7.1-10.5c-0.5-3.8-0.4-7.7,0.2-11.5c0.2-0.7-0.2-1.5-0.9-1.7c-0.6-0.1-1.2,0.2-1.3,0.8
	c-1,3.1-1.5,6.4-1.4,9.7c0,2.2-0.1,4.4-0.5,6.6c-0.1,0.6-0.3,1.2-0.6,1.8c-0.4,0.6-1.2,0.9-1.9,0.7c-0.8-0.4-1.5-1-2-1.7
	c-4.8-5.8-6.7-15.8-4.7-24.1c1.8-4.3,4.4-8.3,7.8-11.6c1.3-1.3,4.1-2.8,6.7-4.2c0.8-0.4,1.4-0.8,2.1-1.1c2.7-1,5.6-1.9,8.5-2.4
	c1.3-0.3,2.8-0.5,4.3-0.7c0.1,0.1,0.2,0.2,0.4,0.2h0c0.2,0,0.4-0.1,0.4-0.3c4.9-0.6,10.3-0.8,15.3,0.8c-1.6,3.6-3.1,7.3-4,9.7
	c1.6-3.1,3.2-6.3,4.9-9.4c0.1,0,0.1,0,0.2,0.1c1.9,0.7,4.5,1.9,5.6,4.3l0.1,0.3c0.2,0.6,0.5,1,1,1.4c1,0.7,2.1,0.2,3-0.2l0.2-0.1
	c4.2-1.8,8.6,1.2,12,4.1c4.2,3.5,6.9,8.5,7.4,14c0.4,5.3-1.8,10.5-5.4,13.1c1.3-5,0.8-10.2-1.4-14.9c-0.1-0.2-0.4-0.4-0.7-0.2
	c-0.2,0.1-0.3,0.3-0.3,0.5c0.3,4.1,0.2,8.1-0.2,12.2c-0.2,1.1-0.3,2.2-0.5,3.2c-0.3,0.7-0.6,1.3-1,2c-2,1.8-4.6,3.7-5.3,3.7h0
	c-0.5,0-1.2-0.6-1.8-1.1c-1-0.8-2-1.7-3-1.3c-0.9,0.4-1.7,1.1-2.2,2c-0.4,0.6-0.9,1.2-1.6,1.6c-1,0.5-2.1-0.3-2.7-1.1
	c-0.8-1.3-1.4-2.7-1.8-4.1c-1.7-6.3-2.4-12.9-1.9-19.4C279.6,384,279.2,383.5,278.7,383.3z M428.2,383.7c0.2-0.1,0.3-0.3,0.4-0.4
	c2.2-4.6,3.6-7.5,5.1-10.3c0.3-0.5,0.1-1.1-0.4-1.3c-0.3-0.2-0.7-0.1-1,0.1l-20.6,14.4h-0.9l0-4c0-0.6-0.5-1-1-1
	c-0.2,0-0.3,0-0.5,0.1l-8.3,4.9h-8.5c-0.9-0.8-2-1.4-3.2-1.7c-2.3-0.5-4.8,0.1-6.6,1.7h-1c-1.1-1.4-2.5-2.5-4.2-3.2
	c-0.5-0.2-1.1,0.1-1.3,0.6c0,0,0,0.1,0,0.1l-0.7,2.5h-2.9c-0.5-0.6-0.9-1.3-1.2-2c-0.2-0.5-0.8-0.7-1.3-0.5
	c-0.5,0.2-0.7,0.7-0.5,1.2l0.4,1.3h-15.4l-29.9-10.7c-0.5-0.2-1.1,0.1-1.3,0.6c-0.1,0.4,0,0.8,0.3,1.1c3.9,3.4,8.1,6.5,12.6,9h-23.9
	c-0.1-5.4-2.6-10.4-6.7-13.8c-6.1-5.2-9.5-5.5-12.2-5.8c-1.1,0-2.1-0.3-3.1-0.6c-1.8-0.8-3.5-1.7-5.1-2.7c-1.2-0.7-2.4-1.4-3.6-1.9
	c1-1.9,2-3.7,3-5.6c1.7-3.2,3.4-6.3,5.1-9.4c3.1,2.9,6.8,4.9,10.9,5.9c0.3,0.1,0.5-0.1,0.6-0.4c0-0.2,0-0.4-0.2-0.5
	c-3.4-2.7-6.4-6-8.7-9.6c4.9-9,10.5-17.5,16.7-25.7c0,0.1,0,0.2,0,0.3c-0.2,0.9-0.7,1.6-1.3,2.3c-0.2,0.2-0.1,0.5,0.1,0.7
	c0.2,0.1,0.4,0.1,0.5,0.1c1.4-0.8,2.6-1.9,3.6-3.2c0.3-0.3,0.5-0.6,0.8-0.9c1.6-1.8,3.1-2.6,4.6-2.5c1,0.1,1.8,0.8,2.1,1.7
	c0.2,0.4,0.2,0.9,0,1.4c-0.1,0.1-0.2,0.2-0.2,0.3c-0.2,0.2-0.1,0.5,0.1,0.7c0.2,0.2,0.5,0.1,0.7-0.1c0.1-0.1,0.2-0.2,0.3-0.4
	c0.9-1,2.1-1.7,3.4-1.9c-5.3,9.2-10.1,18.8-14.3,28.6c-1.1-0.4-2.2-0.9-3.2-1.3c-0.2-0.1-0.5,0-0.7,0.2c-0.1,0.1-0.1,0.3,0,0.4
	c0.7,1.2,1.6,2.3,2.8,3c-0.2,0.4-0.3,0.7-0.5,1.1l-0.2,0.2c-0.5,0.5-1.2,0.9-1.8,1.3c-0.3,0.1-0.4,0.4-0.3,0.7
	c0.1,0.2,0.2,0.3,0.4,0.3c0.3,0,0.5,0.1,0.8,0.1l-1,2.3c-0.8,2-1.7,4-2.4,6c1.3-2.6,2.6-5.2,4-7.9l0.2-0.4c1.5,0.1,3,0,4.5,0
	c1.5-0.1,3-0.1,4.5,0l-3.8,2.8c-0.2,0.1-0.2,0.4-0.2,0.6c0.1,0.2,0.3,0.3,0.5,0.3l13.1-0.1l-3.5,5.6c-0.1,0.2-0.1,0.5,0.2,0.7
	c0.1,0.1,0.3,0.1,0.5,0c1.8-1,3.7-1.7,5.8-1.9c1.8,0,4,0.8,4.6,2.6c0.3,1,0,2-0.6,2.8c-0.2,0.3-0.5,0.5-0.8,0.6l-1.3,0.1
	c-0.3,0-0.5,0.3-0.4,0.5c0,0.2,0.2,0.4,0.4,0.4c0.5,0.1,1.1,0.1,1.6-0.1l18.9-2c-0.6,2.4-1.8,4.6-3.5,6.4c-0.2,0.2-0.2,0.5,0,0.7
	c0.1,0.1,0.3,0.2,0.5,0.1l22.4-5.7c1.2-0.4,2.4-0.5,3.7-0.2c1.9,0.7,2.8,3.1,2.6,7.1c0,0.3,0.2,0.5,0.5,0.5c0.1,0,0.2,0,0.2-0.1
	c4.4-2.2,7.7-6.1,9-10.8c11-0.6,22-2,32.8-4.2c0.3-0.1,0.4-0.3,0.4-0.6c0-0.1-0.1-0.2-0.2-0.3L414,351c10.8-1.7,21.3-5.2,30.8-10.6
	c0.2-0.1,0.3-0.4,0.2-0.7c-0.1-0.1-0.2-0.2-0.3-0.2l-6.6-1.9c9-3.6,17-9.3,23.2-16.7c0.4,0.5,0.9,1,1.3,1.5c0.5,0.6,1,1.2,1.5,1.8
	c-3,7.5-7.5,14.2-13.2,20c-0.2,0.2-0.2,0.5,0,0.7c0.1,0.1,0.4,0.2,0.6,0.1l12.1-5.9l-6.1,5.3c-0.2,0.2-0.2,0.5-0.1,0.7
	c0.1,0.2,0.4,0.2,0.6,0.1c6.3-2.7,13-4.3,19.9-4.6c0.3,0,0.5-0.2,0.5-0.5c0-0.1,0-0.2-0.1-0.3l-7.7-10.3l4.7-2.1
	c5.9,4.3,10.8,9.9,14.2,16.3c0.9,3.8,1.2,7.6,0.7,11.5l-6.5-4.2c-0.5-0.3-1.1-0.2-1.4,0.3c-0.2,0.3-0.2,0.6-0.1,0.9
	c1.5,3.7,2.6,7.6,3.1,11.6c-1.1,0.1-2.2,0.2-3.3,0.4c-3.2,0.6-6.2,1.8-8.9,3.5c-1.7,1-3.4,1.9-5.1,2.7c-1,0.4-2.1,0.6-3.2,0.6
	c-2.7,0.3-6.1,0.6-12.3,5.8c-2.9,2.4-5.1,5.7-6.1,9.3h-22.3C425.6,385.3,426.9,384.5,428.2,383.7L428.2,383.7z M289.3,310.4
	c0.1,0.3,0.2,0.6,0.3,0.8c-0.6,0.4-1.1,0.9-1.7,1.3C288.3,311.7,288.7,311,289.3,310.4z M436.8,316.1c-0.3-0.1-0.5,0.1-0.6,0.4
	c0,0.2,0,0.4,0.2,0.5c0.8,0.6,1.6,1.2,2.3,2l-6.3-2.4c-0.3-0.1-0.5,0-0.6,0.3c0,0,0,0.1,0,0.1l-0.3,3.7l-1.1-2
	c-0.1-0.2-0.3-0.3-0.5-0.3c-0.2,0-0.4,0.1-0.4,0.3c-0.5,1.4-1.2,2.7-2.1,3.9c-0.5-1.3-1.3-2.6-2.4-3.5c-0.1-0.1-0.2-0.1-0.4-0.1
	l-8,0.4c2.9-2,5.6-4.3,8.2-6.7c0.2-0.2,0.2-0.5,0-0.7c-0.1-0.1-0.3-0.2-0.4-0.1c-3.5,0.6-7,0.6-10.5-0.1c-0.2,0-0.4,0-0.5,0.2
	c-0.1,0.2-0.1,0.4,0,0.5c0.4,0.6,0.9,1.2,1.4,1.7l-5.4,0.4c-0.3,0-0.5,0.3-0.5,0.5c0,0.1,0,0.2,0.1,0.3c0.3,0.4,0.7,0.8,1.1,1.1
	l-4.5,0.1c-0.2,0-0.3,0.1-0.4,0.2c-1.6,2.3-3.8,4.2-6.4,5.4l0.3-2.3c0-0.3-0.2-0.5-0.4-0.6c-0.2,0-0.3,0-0.4,0.2
	c-2.3,2.5-5.4,3.8-8.8,3.8c-3.4,0-6.8-0.5-10-1.5c-0.1,0-0.3,0-0.4,0.1c-0.1,0.1-0.2,0.2-0.2,0.4l0,1.6l-8-1.9
	c-0.2-0.1-0.5,0.1-0.6,0.3l-0.8,1.9l-5.6-0.4c-3.7-1.7-7.3-3.4-10.9-5.1c-0.2-0.1-0.5,0-0.7,0.2c-0.1,0.2-0.1,0.4,0,0.5
	c1.5,2.2,3.5,4.2,5.7,5.8l-3.6,2.5l-4.8,1.1c-0.1,0-0.2,0.1-0.3,0.2c-0.8,1.2-1.2,2.6-1.3,4.1c-1.3-0.9-2.4-2-3.3-3.2
	c-0.2-0.2-0.5-0.3-0.7-0.1c-0.1,0.1-0.2,0.2-0.2,0.3l-0.5,2.3l-1.4-3.6c-0.1-0.3-0.4-0.4-0.7-0.3c0,0-0.1,0-0.1,0.1l-5.7,4.1
	c0.5-0.9,1-1.8,1.7-2.5c0.2-0.2,0.2-0.5,0-0.7c-0.2-0.1-0.4-0.2-0.6-0.1c-1,0.5-2,0.9-3.1,1.2c2-4.3,4.4-9.3,7.1-14.5
	c3.3,0.1,6.6-0.2,9.8-0.9c6.6-1.3,12.6-4.6,17.3-9.4c0.8-0.9,1.6-1.8,2.3-2.7c1.1-1.3,2.2-2.6,3.4-3.8c2-2.1,4.8-3.2,7.7-3.2
	c0.1,0,0.3,0,0.4-0.2c0,0,0-0.1,0-0.1c2.1,0.7,4.1,1.7,5.9,3c1.2,0.8,2.3,1.8,3.4,2.7c2.3,2.1,4.8,3.8,7.5,5.1c2.4,1,5,1.5,7.6,1.5
	c4.6,0,9.4-1.3,14.4-2.8c2.1-0.6,4.3-0.8,6.5-0.5c3.5,3.7,7,7.5,10.4,11.3C437.1,316.2,436.9,316.2,436.8,316.1L436.8,316.1z
	 M325.7,314.3c1.4,0.1,2.8,0.3,4.1,0.6l0.8,0.2c2.6,0.5,5.3,0.9,8,1c-2.5,5.2-4.7,10.3-6.5,14.8c-0.7,0.1-1.3,0.2-2,0.2l2.4-3.1
	c0.1-0.2,0.1-0.4,0-0.6c-0.1-0.2-0.4-0.2-0.6-0.2c-4.3,1.7-9.1,1.6-13.4-0.2C320.8,322.7,323.1,318.4,325.7,314.3L325.7,314.3z
	 M318,328.2c1.7,2,3.9,3.4,6.4,4l-1.8,2.1c-0.2,0.2-0.2,0.5,0,0.7c0.1,0.1,0.1,0.1,0.2,0.1c2.4,0.5,4.9,0.8,7.4,0.8
	c0,0.1-0.1,0.1-0.1,0.2c-0.8,0.8-1.8,1.4-2.8,1.8c-0.3,0.1-0.4,0.4-0.3,0.7c0.1,0.2,0.3,0.3,0.5,0.3c0.5,0,1.1,0,1.6,0
	c-0.6,1.6-1.1,3.3-1.6,4.6c0.7-1.5,1.4-3.1,2.1-4.6c3.9-0.3,7.8-1.3,11.3-3.1c0.2,1.4-0.1,2.9-0.9,4.1c-0.1,0.2-0.1,0.5,0.2,0.7
	c0.1,0,0.2,0.1,0.3,0.1c0,0,0,0,0.1,0c5.3-0.7,10.3-2.8,14.5-6c0.5,2,1.7,3.9,3.3,5.3c0.2,0.2,0.5,0.2,0.7,0
	c0.1-0.2,0.2-0.4,0.1-0.6c-0.8-1.4-0.1-3.3,0.9-4.6c0.7-0.8,1.5-1.5,2.4-2.2c0.6-0.5,1.2-0.9,1.7-1.5c0.4-0.4,0.7-0.8,1.1-1.2
	c1.8,0.2,3.7,0.5,5.5,1l-2.5,5.6c-0.1,0.3,0,0.5,0.3,0.7c0,0,0.1,0,0.1,0c2,0.2,3.9-0.9,5.4-1.8c1.6-1,3.2-1.8,4.8-1.6
	c0.9,0.2,1.7,0.8,2.1,1.6c0.3,0.5,0.2,1.1-0.1,1.6c-0.2,0.2-0.1,0.5,0.1,0.7c0.1,0.1,0.2,0.1,0.3,0.1c0.1,0,0.2,0,0.2-0.1
	c3.6-1.9,7-4.2,10-6.9c5.3,1.9,11.1,1.9,16.4,0.2c0.3-0.1,0.4-0.4,0.3-0.6c-0.1-0.2-0.3-0.3-0.5-0.3c-2-0.1-3.7-1.2-4.6-3
	c2.3-0.9,4.6-2,6.8-3.2c0.5,0.5,1.2,1,1.8,1.4c0.6,0.4,1.3,0.7,2,1c1,0.4,1.9,0.9,2.8,1.5c1.3,0.9,2.4,2.6,2.1,4.2
	c-0.1,0.2,0.1,0.5,0.3,0.6c0.2,0.1,0.5,0,0.6-0.2c1.1-1.8,1.6-3.8,1.5-5.9c4.8,2,10,2.6,15.1,1.9c0.3,0,0.5-0.3,0.4-0.6
	c0-0.1-0.1-0.2-0.2-0.3c-1-1-1.7-2.3-1.9-3.7c3.1,0.6,6.3,0.7,9.4,0.3c0.6,0.6,1.1,1.3,1.7,1.9s1.2,1.4,1.8,2
	c-0.9,0.4-1.9,0.7-2.9,1.1c-0.3,0.1-0.4,0.4-0.3,0.6c0.1,0.2,0.2,0.3,0.4,0.3l1.3,0.1l-9.5,3c-0.3,0.1-0.4,0.4-0.3,0.6
	c0,0.1,0.1,0.2,0.3,0.3l2.7,1.3l-23,4.2c-0.2,0-0.3,0.2-0.4,0.3l-1.1,3.2l-15.5,0.6c-0.2,0-0.3,0.1-0.4,0.2l-2.3,3.1l-0.6-2.1
	c-0.1-0.3-0.3-0.4-0.6-0.4c0,0,0,0,0,0c-2.5,0.8-4.8,2.2-6.7,4l-6.7-2.3c-0.3-0.1-0.5,0-0.6,0.3c0,0.1,0,0.2,0,0.2l0.3,2.1
	c-6.8-2.8-11.2-1.5-17.1,2.1l-0.9-3c0-0.2-0.2-0.3-0.3-0.3c-0.2-0.1-0.3,0-0.5,0.1c-1.2,0.7-2.5,1.4-3.8,1.9c-1.2,0.5-2.3,1-3.1,1.5
	l0-2.1c0-0.3-0.2-0.5-0.5-0.5c-0.2,0-0.3,0.1-0.4,0.2c-1.1,1.3-3.1,1.7-5.1,2.2c-0.3,0.1-0.7,0.2-1,0.2l0.5-2.4
	c0.1-0.3-0.1-0.5-0.4-0.6c-0.1,0-0.3,0-0.4,0.1c-3.3,2-7.1,2.9-11,2.5l2.1-3.6c0.1-0.2,0.1-0.5-0.2-0.7c-0.1-0.1-0.3-0.1-0.4,0
	c-8.8,2.4-20.2,0.5-28.7-2.6C312.8,338.4,315.3,333.2,318,328.2L318,328.2z M447.4,327.5c-0.6-0.7-1.1-1.5-1.7-2.2
	c-0.5-0.6-0.9-1.2-1.4-1.8c1.1-0.2,2.3-0.4,3.4-0.8c0.3-0.1,0.4-0.4,0.3-0.6c-0.1-0.2-0.2-0.3-0.4-0.4c-1.2-0.2-2.3-0.5-3.4-1.1
	c2.3-0.7,4.6-1.6,6.7-2.8c0.2-0.1,0.3-0.4,0.2-0.7c0-0.1-0.1-0.1-0.2-0.2l-2.3-1.5c1.5-0.9,2.8-2.2,3.8-3.7c2.7,2.5,5.2,5.1,7.7,7.8
	C456.4,322.9,452.1,325.6,447.4,327.5L447.4,327.5z M440.4,312.8c-0.3,0-0.5,0.2-0.6,0.4c0,0.2,0.1,0.4,0.2,0.5l3.1,2.3
	c-1.5,0.3-2.9,0.4-4.4,0.3c-3.1-3.8-6.3-7.6-9.6-11.2c1.8,0.3,3.6,0.8,5.3,1.3l1.1,0.3c0.3,0.1,0.5-0.1,0.6-0.4c0-0.2,0-0.3-0.1-0.4
	l-3.4-3.9c3.8,0.2,7.6,1.3,11,3.1c0.2,0.1,0.5,0,0.7-0.2c0.1-0.1,0.1-0.2,0.1-0.3c0-0.1,0-0.1,0-0.2c2.2,1.9,4.4,3.9,6.6,5.9
	C447.8,312.3,444.1,313.2,440.4,312.8L440.4,312.8z M466.8,287.9l1.7-1.3c1.2,3.8,1.1,8-0.4,11.7c-1.9-1.1-3.8-2.1-5.7-3.2
	C463.8,292.7,465.3,290.2,466.8,287.9z M290.4,312.9c0.9,1.9,2,3.7,3.2,5.4c0.1,0.1,0.2,0.2,0.4,0.2h0c0.2,0,0.3-0.1,0.4-0.3
	l0.3-0.5c-0.1,0.8-0.1,1.5-0.1,2.3c0,0.3,0.2,0.5,0.5,0.5c0.1,0,0.3-0.1,0.4-0.1c1.1-1.2,2.5-2.1,3.9-2.9l0,5.6
	c0,0.2,0.1,0.4,0.4,0.5c0,0,0.1,0,0.1,0c0.2,0,0.3-0.1,0.4-0.2c1.7-2.6,3.5-5.1,5.5-7.6c0.8-1,1.5-1.4,2.1-1.4
	c-6.2,8.1-11.8,16.6-16.7,25.5c-0.7-1.3-1.4-2.6-2-4c-0.1-0.1-0.2-0.2-0.3-0.3c-0.1,0-0.3,0-0.4,0l-3.6,1.9l-1.3-5.9
	c0-0.2-0.2-0.3-0.4-0.4c-0.2,0-0.4,0-0.5,0.2l-2.1,2.9c-2.2-3-4-6.4-5.2-9.9C280.3,320.6,285.3,316.8,290.4,312.9z M276.3,359.7
	c-3.2-0.6-6.5-0.7-9.7-0.4c0.5-2.2,1.3-4.4,2.1-6.5c1.2-2.7,2-5.6,2.5-8.5c0.3-0.5,0.7-1,1.1-1.4l0.6,3.5c0,0.3,0.3,0.5,0.6,0.4
	c0.2,0,0.4-0.2,0.4-0.5c0-2.2,0.4-4.8,2.4-5.3c0.3-0.1,0.6-0.1,0.9,0c2.2,0.3,3.2,3,3.8,5.1c0.1,0.3,0.4,0.4,0.6,0.3
	c0,0,0.1,0,0.1-0.1c1.1-0.7,1.2-2.1,1.3-3.3c0-0.2,0-0.3,0-0.5c0-0.7,0.4-1.4,0.9-1.9c0.2-0.1,0.4-0.2,0.6-0.1
	c0.4,0.1,0.7,0.6,1,1.1c0.8,1.3,1.7,2.4,2.7,3.5c-2.2,4.2-4.3,8.4-6.3,12.5c-0.5,1-1,2.1-1.5,3.3C279.1,360.4,277.7,360,276.3,359.7
	L276.3,359.7z M464.3,323.8c-0.2-0.2-0.3-0.5-0.5-0.7c-0.7-0.9-1.4-1.8-2.1-2.7c1.2-1.4,2.3-2.8,3.3-4.3c0.2-0.2,0.1-0.5-0.1-0.7
	c-0.2-0.1-0.5-0.1-0.7,0.1c-1.1,1.3-2.3,2.4-3.5,3.6c-2.4-2.9-4.9-5.7-7.6-8.4c0.2-0.4,0.4-0.8,0.6-1.3c0.1-0.3,0-0.5-0.3-0.7
	c-0.2-0.1-0.4,0-0.5,0.1c-0.3,0.3-0.6,0.5-0.9,0.7c-2.8-2.8-5.7-5.4-8.7-8c0-0.1-0.1-0.1-0.1-0.2l3.8,2.2c0.2,0.1,0.5,0.1,0.7-0.2
	l4.4-6.9c0.7,3.8,2.2,7.4,4.3,10.6c0.2,0.2,0.5,0.3,0.7,0.1c0.1-0.1,0.2-0.2,0.2-0.3c1-3.6,2.5-7.1,4.3-10.5c1.9,1,3.9,2.1,5.8,3.2
	c0,0,0,0.1-0.1,0.1c-0.1,0.2,0,0.5,0.2,0.7c0.2,0.1,0.3,0.1,0.5,0l0.3-0.2c0.1,0.1,0.3,0.1,0.4,0.2
	C468.9,308.5,467.3,316.4,464.3,323.8L464.3,323.8z M275.2,298.8c0.2,0.4,0.3,0.7,0.5,1.1c-0.3,0.3-0.7,0.6-1,0.9
	C274.8,300.1,275,299.4,275.2,298.8z M276.4,301.4c2.4,4.7,5.7,9,9.6,12.6c-3.8,2.9-7.6,5.9-11.3,9c0-0.1,0-0.1-0.1-0.2
	c-0.7-6.1-0.9-12.3-0.5-18.5c0-0.3,0.1-0.7,0.1-1C275,302.6,275.7,302,276.4,301.4L276.4,301.4z M494,341c0.3,0.4,0.5,0.9,0.7,1.4
	C494.5,341.9,494.3,341.5,494,341L494,341z M389.3,152.7C389.3,152.7,389.3,152.7,389.3,152.7c3.6,0,10.2-12.7,27-48.1
	c3-6.2,5.8-12.1,8.3-17.2c1.6-3.2,6.9-10.8,9.1-13.5c1.4-1.6,3.5-2.4,5.7-2.3c2.5,0.2,6.2,1.7,9.9,8c2.7,4.5,5.1,9.1,7.2,13.9
	c-5.2-1.7-10.7-3.2-16.2-2.7c-2.9,0.5-5.6,1.5-8.1,3c-1.9,1-3.7,2.2-5.4,3.5c3.6-6.8,8.8-12.6,15.1-17c0.2-0.2,0.3-0.5,0.1-0.7
	c-0.1-0.2-0.3-0.3-0.5-0.2c-0.4,0.1-0.7,0.1-1.1,0.1c-2.5,0-4.8,1.1-6.3,3.1c-13.3,15.6-21.5,34.6-29.4,53.1
	c-2.5,5.8-4.9,12.3-3.7,18.2c-0.7,0.8-1.4,1.5-2.2,2.1c0.3-1.2,0.3-2.5,0.1-3.7c0-0.3-0.3-0.5-0.6-0.4c-0.2,0-0.4,0.2-0.4,0.3
	c-1.2,3.5-4,6.3-7.5,7.5c0.9-0.9,1.6-1.9,2.2-3c0.1-0.2,0-0.5-0.2-0.7c-0.1-0.1-0.3-0.1-0.4,0c-3.4,1.3-6.9,1.9-10.5,1.9
	c-0.7,0-1.3,0.1-1.9,0.3c-0.1,0-0.1,0-0.2,0.1c-0.3,0-0.5,0.2-0.5,0.5c0,0.1,0.1,0.3,0.2,0.4c3.1,2.9,7.1,4.5,11.3,4.6l-2.4,5.2
	c-0.1,0.3,0,0.5,0.2,0.7c0.1,0,0.1,0,0.2,0c0.1,0,0.1,0,0.2,0c2.5-0.8,4.8-1.8,7.1-3c6.1-1.7,12.3-2.9,18.5-3.5l-1.2,7.8
	c0,0.3,0.1,0.5,0.4,0.6c0.1,0,0.3,0,0.4-0.1l6.1-5.6c0.9,2.3,2.1,4.4,3.8,6.2c0.1,0.4,0.2,0.8,0.3,1.1c1.7,5.1,5.1,9.4,9.6,12.3
	c0.2,0.1,0.5,0.1,0.7-0.2c0.1-0.1,0.1-0.2,0.1-0.3c-0.1-1.5,0.7-3,2-3.8c2.5,3.7,6.6,6.1,11.1,6.5c5,2,10.2,3.7,15.4,5.2l-3.7,6.3
	c-0.1,0.2-0.1,0.5,0.2,0.7c0.1,0,0.1,0.1,0.2,0.1c2.6,0.3,5.3,0,7.8-0.9l0.8,6.7c0,0.2,0.2,0.4,0.4,0.4c0.2,0,0.5-0.1,0.5-0.3
	l1.2-3.8l1.1,1.8c4,6.4,8.4,13.5,11.4,20.4c1.3,9,1.5,18.1,0.7,27.2l-1.4-3.1c-0.1-0.3-0.4-0.4-0.7-0.3c-0.2,0.1-0.3,0.3-0.3,0.5
	c0,4.5-0.9,8.9-2.7,12.9c0.3-2.9,0.2-5.8-0.4-8.6c-0.1-0.2-0.2-0.4-0.5-0.4c-0.2,0-0.4,0.2-0.5,0.4l-4.9,17.4l-0.6-1.4
	c-0.1-0.3-0.4-0.4-0.7-0.2c-0.2,0.1-0.3,0.3-0.3,0.5c0.2,2-0.1,4-0.6,5.8c-7.7-3-15.6-5.4-23.7-7.1c-2.5-4.9-6.7-8.7-11.7-10.9
	l4.9,0.2c0.2,0,0.4-0.1,0.5-0.3c0.1-0.2,0-0.4-0.2-0.6c-4.5-3.6-10.6-3.6-16.6-2.9l3.1-2.1c0.2-0.2,0.3-0.5,0.1-0.7
	c-0.1-0.1-0.3-0.2-0.4-0.2c-6.7,0.3-13.3,1.7-19.5,4.2c-0.3,0.1-0.4,0.4-0.3,0.7c0.1,0.2,0.3,0.3,0.5,0.3l0,0l6.8,0
	c-0.7,0.3-1.4,0.6-2.2,0.8c-0.2,0.1-0.4,0.3-0.3,0.6c0.1,0.2,0.3,0.4,0.5,0.4c7-0.3,13.7,2.3,18.8,7.2l-2.6-0.1
	c-0.2,0-0.5,0.1-0.5,0.4c-0.1,0.2,0.1,0.5,0.3,0.6c0.1,0.1,0.2,0.1,0.3,0.2c-9.7-0.4-19.7,0.2-28.7,3.8c1.4-0.4,2.8-0.7,4.2-1
	c0,0.2,0,0.4,0.2,0.5c0.8,0.7,1.6,1.3,2.6,1.9l-2.3-0.2c-0.3,0-0.5,0.2-0.5,0.4c-0.1,0.2,0.1,0.5,0.3,0.6c1,0.3,2,0.5,3,0.5
	c0.5,0,1.1,0,1.6-0.1l0.4,0c0.2,0,0.3-0.1,0.4-0.2c0.5-0.1,0.9-0.3,1.3-0.5c0.2-0.1,0.3-0.3,0.3-0.6c-0.1-0.2-0.3-0.4-0.5-0.4
	c-0.3,0-0.6,0-0.9,0c0,0,0-0.1,0.1-0.1c0.1-0.3-0.1-0.5-0.3-0.6l-3.7-1.2c-0.1,0-0.1,0-0.2-0.1l-0.5-0.2c8.7-1.6,17.7-1.2,26.6-0.6
	c0.1,0,0.2,0,0.3,0c2.7,1.8,5.1,4,7,6.6c-10.1-2.1-20.3-2.8-29.1-0.6c3.1-0.5,6.2-0.6,9.4-0.5c-0.6,0.5-1,1.1-1.4,1.7
	c-0.2,0.2-0.1,0.5,0.1,0.7c0,0,0.1,0,0.1,0.1c0.3,0.1,0.6,0.1,0.8,0c0.4,0.5,1,0.8,1.7,0.9l1.2,0.7c0.2,0.1,0.5,0.1,0.7-0.2
	c0.1-0.2,0.1-0.4-0.1-0.6l-0.2-0.2c0.5-0.3,0.8-0.7,1-1.3c0.2-0.5,0.1-1.1-0.2-1.6c5.4,0.6,10.8,1.5,16.1,2.8
	c0.5,0.1,0.9,0.2,1.4,0.3c0.2,0.4,0.5,0.8,0.7,1.2c0.1,0.2,0.3,0.3,0.4,0.3h0c0.2,0,0.4-0.2,0.4-0.3c0.1-0.2,0.1-0.5,0.2-0.7
	c6.6,1.6,13.2,3.4,19.8,5.3l-0.7,4.6l-5.1-4.3c-0.1-0.1-0.3-0.1-0.5-0.1c-2.1,0.6-4.3,0.4-6.2-0.5c-0.2-0.1-0.5,0-0.7,0.2
	c-0.1,0.1-0.1,0.2,0,0.4c0.4,1.4,1.1,2.6,1.9,3.8c-2.2,0.3-4.5-0.1-6.5-1.2c-2.2-1.3-4.3-2.9-6.1-4.7c-0.2-0.2-0.5-0.2-0.7,0
	c-0.1,0.1-0.2,0.3-0.1,0.5c0.5,1.2,0.8,2.4,1,3.6c-2.9-0.9-5.8-1.6-8.8-2.2c0-0.2,0-0.5-0.1-0.7c-0.1-0.7-0.6-1.3-1.3-1.5
	c-0.4-0.1-0.9,0-1.3,0.2c-0.2,0.2-0.4,0.4-0.5,0.6c-0.7-0.1-1.3,0.1-1.9,0.4c-0.1,0.1-0.2,0.2-0.2,0.3c-1-0.1-2-0.2-3-0.2
	c1,0.1,2,0.2,2.9,0.4v0c0,0.2,0.1,0.4,0.3,0.4l4.3,1.5c0.1,0,0.1,0,0.2,0c0.1,0,0.2,0,0.3-0.1c0.1-0.1,0.2-0.2,0.2-0.4
	c0-0.1,0-0.2,0-0.2c3,0.8,6,1.8,9,2.9c0.1,1.6,0,3.2-0.3,4.8c-0.1-0.1-0.3-0.1-0.4-0.1l-2.6,0.7c-0.9,0.4-1.8,0.7-2.8,1
	c-9.8-7.4-20.6-13.7-32.7-16.1c-0.4-0.3-0.7-0.6-0.9-1c0-0.1-0.1-0.1-0.2-0.2c-0.5-0.2-0.9-0.5-1.2-0.1c-0.2,0.2-0.2,0.4-0.1,0.6
	l-1.6,1.9c-0.2,0.2-0.2,0.5,0.1,0.7c0,0,0.1,0.1,0.1,0.1c2,1,4.4,0.9,6.4-0.2c0.2-0.1,0.3-0.4,0.2-0.7c-0.1-0.1-0.2-0.2-0.4-0.2
	c-0.7-0.1-1.3-0.3-1.9-0.6c4,1.2,7.9,2.8,11.7,4.7l-3.1-0.3c-0.3,0-0.5,0.2-0.5,0.4c0,0.1,0,0.2,0,0.3c0.5,1,1.3,1.8,2.4,2.2
	c0,0.3,0.2,0.5,0.5,0.5c0,0,0,0,0,0c0,0,0,0,0.1,0l1.3-0.2c0.3,0,0.5,0,0.8-0.1c0.3-0.1,0.4-0.3,0.4-0.6c0-0.3-0.3-0.4-0.6-0.4
	L412,283c0.4-0.3,0.8-0.6,1.3-0.9c0,0,0,0,0,0c5.7,3.1,11.3,6.7,16.5,10.6c-0.9,0.1-1.7,0.2-2.6,0.1c-0.2,0-0.4,0.1-0.5,0.3
	c-0.1,0.2,0,0.4,0.1,0.6l1.3,1.1c-2.8,0.6-5.7,0.8-8.6,0.7c-5-4.8-10.6-9-16.7-12.3c5.4,3.5,10.3,7.6,14.8,12.2
	c-0.6,0-1.1-0.1-1.7-0.2c-0.2,0-0.4,0.1-0.5,0.3c-0.1,0.2,0,0.5,0.2,0.6l0.7,0.5c-8.4,2.6-17.5,2-25.5-1.5c0.2-0.2,0.2-0.5,0-0.7
	c0,0-0.1-0.1-0.2-0.1c-3.3-1.3-6-3.7-7.7-6.7c-0.6-1-1-2.1-1.1-3.2c0-1,0.2-2,0.5-3c1.6-5.8,3.3-10.8,7.3-13.9
	c0.3-0.3,0.7-0.5,1.1-0.8c1.3-0.8,2.4-1.8,3.2-3.1c0.7-1.7,0.6-3.7-0.4-5.3c-0.9-1.5-2-2.9-3.4-4c-0.2-0.2-0.5-0.2-0.7,0
	c-0.1,0.1-0.2,0.3-0.1,0.5c0.6,1.8,1,3.7,0,4.9c-0.9,1.2-2.7,1.4-4.3,1.5l-20,1.1c-0.7,0.1-1.3,0-2-0.1c-1-0.4-1.7-1.3-1.9-2.4
	c-0.1-1.1,0.2-2.3,0.8-3.2c0.1-0.2,0.1-0.5-0.2-0.7c-0.2-0.1-0.4-0.1-0.6,0.1c-1.3,1.1-2.3,2.5-2.9,4.1c-0.7,1.6-0.7,3.5,0.2,5.1
	c1.1,1.8,3.1,2.5,5,3.2c0.8,0.3,1.6,0.6,2.4,0.9c3.2,1.6,5.2,5,6.8,7.8l1.4,2.4c0.9,1.4,1.6,3,1.9,4.6c0.1,1.2,0,2.4-0.4,3.5
	c-1.1,1.6-2.3,3.1-3.6,4.4c-3.2,3-6.6,5.8-10.3,8.2c-2.7,1.9-5.8,4.2-9.3,5c-2.1,0.4-4.2,0.5-6.4,0.3c3.5-6.3,7.5-12.3,12.1-17.8
	l-0.3,0.6c-0.1,0.2-0.1,0.5,0.2,0.7c0.1,0,0.2,0.1,0.3,0.1c0.1,0,0.1,0,0.2,0l1.4-0.5c0,0,0,0.1,0.1,0.1c0.2,0.2,0.4,0.2,0.6,0.1
	c0.2-0.1,0.4-0.3,0.5-0.6l3-3.9c0.1-0.2,0.1-0.4,0-0.6c-0.1-0.2-0.4-0.3-0.6-0.2c-0.6,0.2-1.2,0.4-1.7,0.6c1.8-1.7,3.8-3.2,6-4.4
	c-2.8,1.2-5.3,2.8-7.6,4.8c-0.1,0-0.1,0-0.2,0c-0.1,0-0.2,0.1-0.3,0.1l-2.7,2.3c-0.2,0.2-0.2,0.4-0.1,0.6c-5,5.4-9.3,11.4-12.8,17.9
	l-0.4,0l-11.1-1.1l0-0.5c1.8-2.5,3.7-4.9,5.7-7.2c4.8-5.7,9.7-11.7,16.1-15.7c-6.7,3.4-12.1,9.1-17.1,14.6c-2.4,2.7-4.6,5.5-6.8,8.4
	c-0.9,0.4-1.8,0.9-2.6,1.5l0.5-3.4c0-0.3-0.1-0.5-0.4-0.6c-0.2,0-0.3,0-0.5,0.2l-2.3,2.6c-0.3-1.5-0.7-3-1.4-4.4
	c3.4-3.2,7-6.2,10.2-8.7c0.5-0.4,1.1-0.8,1.6-1.2c0.1,0,0.2-0.1,0.3-0.1c0.1-0.1,0.2-0.2,0.3-0.3c3.1-2.5,6.5-4.7,10.1-6.5
	c-3,1.4-6,2.9-8.9,4.6c0.3-0.7,0.5-1.4,0.5-2.1c0-0.3-0.2-0.5-0.5-0.5c-0.1,0-0.2,0-0.3,0.1c-0.2,0.1-0.5,0.3-0.7,0.4
	c-1.6,0.6-2.8,2-3.2,3.7l-0.2,1.1c0,0,0,0.1,0,0.1c-3.6,2.4-7,5.1-10.2,8c0,0-0.1,0-0.1,0c-0.2,0-0.4,0.2-0.4,0.4
	c0,0.1-0.1,0.2-0.1,0.2c-0.6,0.6-1.3,1.2-1.9,1.7c-1.3-1.6-3.3-2.6-5.4-2.6h0c-1.5,0-2.9,0.5-4.1,1.4l0.8-2
	c9.2-6.5,18.6-12.9,28.4-18.5c5.4-2.8,11.3-4.5,17.1-6.1c-6.1,0.9-12.2,2-17.8,4.5c-9.4,4.5-17.9,10.7-26.3,16.7
	c0-0.1,0-0.3-0.1-0.4c-0.1-0.1-0.4-0.2-0.5-0.1c-4.7,2.1-8.8,5.5-11.9,9.7c-0.5,0.3-0.9,0.7-1.4,1c-0.1-2.3-0.8-4.5-2-6.3
	c-0.1-0.1-0.2-0.2-0.4-0.2c-0.1,0-0.3,0-0.4,0.1c-2.7,2.4-5.9,4.4-9.3,5.7c0.8-1.8,0.9-3.9,0.4-5.8c-0.1-0.3-0.3-0.4-0.6-0.4
	c-0.1,0-0.2,0.1-0.2,0.1l-3.8,3.8c-0.2-1.4-0.5-2.7-1-4c7-5.6,14.6-10.5,22.6-14.7c0.4-0.2,0.9-0.4,1.3-0.6
	c-0.2,0.6-0.4,1.2-0.6,1.8c-0.1,0.3,0.1,0.5,0.4,0.6c0.1,0,0.3,0,0.4,0c2.9-1.6,6-2.6,9.3-3.1l0.1,2.7c0,0.2,0.2,0.5,0.4,0.5
	c0.2,0,0.5-0.1,0.5-0.3c0.9-2.8,2.2-5.4,4-7.7c2.7-0.9,5.5-1.7,8.4-2.5c1.1-0.3,2.1-0.6,3.2-0.8c-0.6,0.4-1.2,0.8-1.7,1.2
	c-0.4,0.3-0.8,0.5-1.2,0.8c-0.1,0.1-0.2,0.1-0.2,0.2l-0.9,2.3c-0.1,0.3,0,0.5,0.3,0.6c0.2,0.1,0.3,0,0.5-0.1l0.4-0.3l-0.2,0.4
	c-0.1,0.2,0,0.5,0.2,0.7c0.2,0.1,0.4,0.1,0.5,0l1-0.8c0.1,0,0.3,0,0.4-0.1l1-0.9c0.1-0.1,0.2-0.3,0.2-0.4c0.9-1.2,1.6-2.5,2.1-3.8
	c0-0.1,0-0.3-0.1-0.4c4.6-1.3,9.4-2.1,14.2-2.3c-6-0.4-11.9,0.7-17.8,1.9c-2.8,0.6-5.5,1.2-8.2,2c0.1-0.1,0.2-0.3,0.4-0.4
	c0.2-0.2,0.2-0.5,0-0.7c-0.1-0.2-0.4-0.2-0.6-0.1l-2,0.9c2.9-4.5,7.1-8,12.1-9.9c1.8-0.7,3.6-1.1,5.5-1.4l0.1,0
	c0.3,0,0.5-0.3,0.4-0.6c0-0.2-0.1-0.3-0.3-0.4c-3-1.4-6.3-1.9-9.6-1.4c2.3-2.6,5.4-4.4,8.9-4.9c0.3,0,0.5-0.3,0.4-0.6
	c0-0.2-0.2-0.4-0.5-0.4h0c-10.2,0.3-19.6,5.5-27.9,10.1c-0.2,0.1-0.3,0.4-0.2,0.7c0.1,0.1,0.2,0.2,0.3,0.2c1.7,0.5,3.5,0.9,5.3,1.1
	l-10.9,5.1c-0.3,0.1-0.4,0.4-0.2,0.7c0.1,0.2,0.2,0.3,0.4,0.3c2.9,0.2,5.8,0.1,8.6-0.4c-2.4,2.1-4.3,4.7-5.7,7.6
	c-1.1,0.5-2.1,1-3.2,1.5c-7.9,4.1-15.3,9-22.3,14.5c-0.9-2.3-2.1-4.4-3.6-6.4c-0.2-0.2-0.5-0.3-0.7-0.1c-0.1,0.1-0.1,0.2-0.2,0.3
	c-0.3,1.2-0.4,2.5-0.3,3.8c-3.4-4.6-6-9.8-7.7-15.3c-0.1-0.2-0.3-0.4-0.6-0.3c-0.2,0-0.4,0.3-0.4,0.5l0,4
	c-2.7-6.5-4.3-13.3-4.9-20.3c0-0.3-0.2-0.4-0.5-0.5h0c-0.2,0-0.5,0.2-0.5,0.4c-0.7,5.2-0.7,10.4,0.1,15.6c-1.7-3.1-3.3-6.2-4.2-8.2
	c-1.9-4.1-3-11-3.3-15.5c0-0.2-0.2-0.4-0.5-0.5c-0.2,0-0.5,0.1-0.5,0.4c-0.2,0.6-0.6,1.2-0.9,1.7l-0.3,0.4c0-0.2,0-0.4-0.1-0.6
	c-0.5-4.7-1.1-10.4,1.7-18c0.2-0.3,0.5-0.7,0.7-1c3.3-5,4.2-9.4,2.4-12.7c-0.1-0.1-0.2-0.2-0.4-0.3c-1.6-0.2-3.3,0.1-4.7,1
	c1.4-6.5,3.2-13,5.4-19.2c0.1-0.3,0-0.5-0.3-0.6c-0.1-0.1-0.3,0-0.4,0.1c-0.6,0.4-1.4,0.5-2.2,0.3c4.4-5.2,5.6-12.3,3.2-18.6
	c-0.1-0.4-0.1-0.9-0.2-1.3l-1.8-10.4c-0.1-0.5-0.4-2.9,0.9-3.3c0.7-0.1,1.4,0.1,1.9,0.5l12.9,7.1c0.2,0.1,0.5,0,0.7-0.2
	c0.1-0.2,0.1-0.5-0.1-0.6c-2.9-2.6-5.9-5.3-8.7-8.3c-5.2-6.6-8.5-14.4-9.7-22.7c-1.4-8.8-1.1-18.4,1.1-31c1.3-7.7,3.7-13.7,7.1-18.3
	c6.8-9.1,9.9-8.2,16.9-3.3c6.8,4.8,17,21.2,26,35.8c8.4,13.5,14.5,23.2,19,27.4c1.7,2.3,2.8,4.9,3.5,7.7c0,0.1,0.1,0.3,0.2,0.3
	c3.8,2.2,7.9,3.6,12.3,4.1c0,0,0,0,0.1,0c0.3,0,0.5-0.2,0.5-0.5c0-0.2-0.1-0.4-0.3-0.4c-1.2-0.6-2.2-2.5-3-4c0-0.1-0.1-0.1-0.1-0.2
	c1.5,0.5,3.4,1,5.3,1.5c2.2,0.5,4.4,1.1,6.5,1.9c0.3,0.1,0.5,0,0.7-0.2c0.1-0.1,0.1-0.3,0-0.4c-0.5-1.3-1.2-2.6-2-3.8
	c-0.3-0.5-0.7-1.1-1.2-1.9c2.3-0.5,4.1-2.6,5.6-4.5c0.5-0.6,1-1.2,1.5-1.8c0.2-0.2,0.2-0.5,0-0.7c-0.1-0.1-0.3-0.2-0.5-0.1
	c-9,2.5-13.3,1.6-17-0.6c-0.2-0.1-0.5-0.1-0.7,0.2c-0.1,0.1-0.1,0.3,0,0.5c1,2.4,2.5,4.5,4.6,6.2c-4.5-0.2-8.9-2.7-13.4-7.4
	c-0.9-1.4-1.7-2.8-2.4-4.3c2.4,1.2,5.1,1.7,7.8,1.2c0.3-0.1,0.4-0.3,0.4-0.6l-0.5-2.9c8.2,3.7,17.3,5,26.3,4c0.1,0,0.3-0.1,0.4-0.2
	c0.1-0.1,0.1-0.3,0.1-0.4l-0.5-2.3c3.1-0.1,6.1,0.5,9,1.7c0.3,0.1,0.6,0.3,1,0.4c1.4,0.7,2.9,1.1,4.4,1.3c1.2,0,2.5-0.5,3.4-1.3
	c0.4-0.4,0.7-0.9,0.9-1.5c1.8,0.9,3.5,2.1,4.9,3.6c0.2,0.2,0.5,0.2,0.7,0l5.5-4.6l0.4,3.6c0,0.2,0.2,0.4,0.3,0.4
	c0,0.1,0,0.1,0.1,0.2C387.8,152,388.5,152.6,389.3,152.7z M412,283.5l0.7-0.1L412,283.5z M336.1,288.6c-0.2,0.2-0.4,0.5-0.6,0.7
	C335.7,289.1,335.9,288.9,336.1,288.6L336.1,288.6z"/>
</svg>
