<?xml version="1.0" encoding="utf-8"?>
<!-- Generator: Adobe Illustrator 24.2.3, SVG Export Plug-In . SVG Version: 6.00 Build 0)  -->
<svg version="1.1" id="b235925c-2a1e-472d-8cc0-5bf9c15bcc62"
	 xmlns="http://www.w3.org/2000/svg" xmlns:xlink="http://www.w3.org/1999/xlink" x="0px" y="0px" viewBox="0 0 1137.5 734.5"
	 style="enable-background:new 0 0 1137.5 734.5; fill: #215342;" xml:space="preserve" height="259" width="290">
<path d="M582.4,399.9c-6.2-3.1-10.1-9.5-10-16.4c0-0.8,0.1-1.6,0.2-2.4c0.2-1.2,0.2-2.4,0.2-3.6c0-0.3-0.3-0.5-0.5-0.5
	c-0.2,0-0.3,0.1-0.4,0.2c-4.8,7.1-3.4,16.7,3.3,22c1.4,1.2,3.2,2,5.1,2.1c0.7,0,1.4-0.1,2.1-0.4c0.2-0.1,0.4-0.4,0.2-0.7
	C582.6,400.1,582.5,400,582.4,399.9L582.4,399.9z"/>
<path d="M602.3,379.2c-1.6-0.6-3.4-0.8-5.1-0.5c-0.4,0-0.7,0.1-1.1,0.1c-1.4,0.1-3.9-0.1-4.9-1.8c-0.4-1.1-0.6-2.2-0.3-3.4
	c0.1-0.9,0.1-1.9,0-2.9c1.4-0.7,2.9-1.2,4.5-1.3c0.3,0,0.5-0.3,0.5-0.5c0-0.2-0.1-0.3-0.2-0.4c-1.8-1.2-4.6-1.2-6.1,0.7l0,0
	c-6.1,8.2-5.1,19.6,2.3,26.7c0.5,0.6,1.2,1,2,1.1c0.1,0,0.2,0,0.3,0c1.1,0,2.1-0.8,3.1-2.3c2.9-4.6,4.7-9.7,5.4-15
	C602.6,379.5,602.5,379.3,602.3,379.2z"/>
<path d="M468.1,382.9c0.2,0.5,0.6,0.8,1.1,0.8c0,0,0.1,0,0.1,0c0.3,0,0.5-0.2,0.7-0.4l2.6-2.2c1.6-1.3,3.1-2.7,4.4-4.4
	c1.4-2.3,2.5-4.8,3.1-7.5c0-0.2,0-0.3-0.1-0.5c-0.1-0.1-0.3-0.2-0.4-0.2c-2.3,0.3-4.6,0.5-6.9,0.7c-0.2-0.8-0.4-1.6-0.7-2.3
	c-0.2-0.5-0.4-0.9-0.5-1.4c-0.2-0.6-0.6-2.5,0.4-3.6c0.8-0.6,1.8-0.9,2.8-0.7c0.4,0,0.8,0.1,1.2,0.1c0.7,0.1,1.5,0.2,2.2,0.2
	c0.3,0,0.5-0.3,0.5-0.5c0-0.1-0.1-0.3-0.2-0.3c-0.8-0.8-1.8-1.4-2.8-1.9c-1.3-0.5-2.7-0.5-4,0.1c-2.8,1.3-5,3.7-6.1,6.6
	c-1.1,2.9-1.3,5.9-0.7,8.9C465.5,377.5,466.5,380.3,468.1,382.9z"/>
<path d="M439.7,263.4c7.4,3.9,13.2,10.4,16.3,18.2c1.6,4.1,2.8,8.2,3.8,12.5c0.2,1,0.4,1.9,0.7,2.8c0.1,0.2,0.2,0.4,0.5,0.4h0
	c0.2,0,0.4-0.1,0.5-0.3c3.3-8.3,3.4-17.5,0.4-26c3.8,1,7.3,3.1,10,5.9c0.1,0.1,0.3,0.2,0.4,0.1c0.2,0,0.3-0.1,0.4-0.3
	c0.8-1.6,1.1-3.4,1-5.1l5.9,7.3c0.2,0.2,0.5,0.2,0.7,0.1c0.1-0.1,0.2-0.2,0.2-0.3c1.3-7.9,0.8-16-1.4-23.7c-0.1-0.2-0.3-0.4-0.5-0.4
	l0,0c-0.2,0-0.4,0.1-0.5,0.4l-1.3,4.4c-3.4-4.9-6.5-10.2-9.5-15.2c-2.8-4.8-5.7-9.7-8.9-14.4c-8.1-12-16.7-20-26.1-24.4
	c-0.3-0.1-0.5,0-0.7,0.2c-0.1,0.2,0,0.4,0.1,0.6c7.7,6.6,14.4,15.6,20.1,26.8c4.8,9.5,8.4,19.8,11.9,29.7c-4-3.1-8.8-5.1-13.8-5.6
	c-0.2,0-0.4,0.1-0.5,0.2c-0.1,0.2-0.1,0.4,0,0.5l3.6,5.8c-4.1-2.4-9-2.9-13.5-1.3c-0.3,0.1-0.4,0.4-0.3,0.6
	C439.5,263.3,439.6,263.4,439.7,263.4L439.7,263.4z"/>
<path d="M587,424.2c6.9,2,13.3,3.7,19.4,3.7c3,0,5.9-0.4,8.7-1.3c0.2-0.1,0.4-0.3,0.3-0.6c0-0.2-0.3-0.4-0.5-0.4
	c-3.6,0.1-7.2-0.9-10.1-2.9c5.9-0.1,12.2-2.6,19.1-7.5c2.1-1.5,4.2-3.1,6.2-4.7c3.7-3,7.6-5.8,11.7-8.2c0.2-0.1,0.3-0.4,0.2-0.7
	c-0.1-0.1-0.2-0.2-0.3-0.3c-3.9-1-7.9-1.6-11.9-1.6c-4.1,0-8.2,1.5-11.3,4.2c-0.2,0.2-0.2,0.5,0,0.7c0.1,0.1,0.3,0.2,0.5,0.1
	c2.4-0.5,4.8-0.5,7.2,0.1c-4.4,1.3-8.6,3.1-12.7,5.2c-6.4,3.1-12.4,6-19.1,6h-0.1c-3.8,0.1-7.6-0.9-10.9-2.9
	c-0.2-0.1-0.5-0.1-0.7,0.2c-0.1,0.1-0.1,0.3,0,0.4c0.8,2.1,2.1,3.9,3.7,5.5c-3.2-0.6-6.3-1.6-9.3-2.9c-0.3-0.1-0.5,0-0.7,0.3
	c-0.1,0.1-0.1,0.3,0,0.4C578.3,421.3,582.9,422.9,587,424.2z"/>
<path d="M477.7,406.6c-0.1-0.2-0.4-0.3-0.6-0.3c-1.5,0.4-3.1,0.5-4.6,0.3c1.6-0.5,3-1.6,4-3c0.1-0.2,0.1-0.5-0.2-0.7
	c-0.1-0.1-0.2-0.1-0.3-0.1c-8.5,0.6-14.8,0.1-20.3-1.7c-7.1-2.3-12.5-7-15.1-12.7c-0.1-0.3-0.4-0.4-0.7-0.3
	c-0.2,0.1-0.3,0.3-0.3,0.6l1.4,5.3c-3.1-2.5-4.8-6.2-4.7-10.2c0-0.3-0.2-0.5-0.5-0.5c-0.2,0-0.4,0.1-0.5,0.4
	c-2.4,8.6,1.6,17.7,9.6,21.6c0.5,0.2,1,0.6,1.3,1.1c0,0.1,0,0.2,0,0.3c-0.2,0.2-0.5,0.3-0.8,0.3c-1.5,0.3-3,0.4-4.5,0.3
	c-0.2,0-0.4,0.1-0.5,0.3c-0.1,0.2,0,0.5,0.2,0.6c6.4,4.1,14.3,5,21.5,2.5l-1.6,2.3c-0.2,0.2-0.1,0.5,0.1,0.7
	c0.1,0.1,0.2,0.1,0.3,0.1c0,0,0.1,0,0.1,0c5.9-1.3,11.4-3.6,16.5-6.8C477.7,407.1,477.8,406.9,477.7,406.6z"/>
<path d="M561.7,349.1c0.2,0.1,0.5,0,0.6-0.2l3-5.2l-1,13c0,0.3,0.2,0.5,0.5,0.5c0.2,0,0.4-0.1,0.5-0.3c1.9-4.2,5.5-7.3,9.9-8.4
	l-4,8.1c-0.1,0.2,0,0.5,0.2,0.7c0.2,0.1,0.4,0.1,0.6-0.1c12.9-11.8,30.6-16.7,47.7-13.3c0.3,0.1,0.5-0.1,0.6-0.4
	c0-0.2,0-0.4-0.2-0.5c-4.5-4-11-4.1-17.4-3.9l-16.1,0.6l17.9-13.2c0.2-0.2,0.3-0.5,0.1-0.7c-0.1-0.1-0.2-0.2-0.4-0.2
	c-6.2,0-12.4,0.9-18.4,2.8l2.7-9.3c0.1-0.3-0.1-0.5-0.3-0.6c-0.1,0-0.2,0-0.2,0c-4.9,1.1-9.4,3.5-13.1,6.9c0.1-3.3,2-6.4,4.8-8.1
	c0.2-0.1,0.3-0.4,0.2-0.7c0,0,0,0,0-0.1c-0.4-0.5-0.9-0.7-1.5-0.8c-1.4-0.1-3.5,1-6.1,3.4c0,0-0.1,0.1-0.1,0.1
	c-6.1,8.7-9.7,18.7-10.7,29.3C561.3,348.8,561.5,349,561.7,349.1z"/>
<path d="M485.3,312.2c-3.7-1.7-7.7-2.9-11.8-3.4c-0.3,0-0.5,0.2-0.6,0.4c0,0.2,0.1,0.4,0.2,0.5c3,2.2,5.8,4.6,8.5,7.2
	c-7.8-3.8-16.6-5-25.1-3.3c-0.3,0.1-0.4,0.3-0.4,0.6c0,0.2,0.1,0.3,0.3,0.4c2.4,1,4.8,1.9,7.3,2.6c2.4,0.7,4.8,1.6,7.2,2.6
	c3.5,1.5,8,4.3,10.2,8.7c-6.5-2.9-13.9-3.1-20.6-0.5c-0.3,0.1-0.4,0.4-0.3,0.7c0,0.1,0.1,0.2,0.3,0.3l6.1,2.8l-16.6,3.4
	c-0.3,0.1-0.4,0.3-0.4,0.6c0,0.2,0.2,0.4,0.5,0.4c13.4,0.7,26.6,3.7,39.1,8.7c0.3,0.1,0.5,0,0.7-0.3c0.1-0.2,0-0.3-0.1-0.5l-2.8-4
	l10.1,6.8c0.1,0.1,0.2,0.1,0.3,0.1c0.1,0,0.2,0,0.3-0.1c0.2-0.1,0.3-0.3,0.2-0.5c-1-5-2.7-9.9-5-14.5c1.9,1.1,3.4,2.7,4.3,4.6
	c0.1,0.3,0.4,0.4,0.7,0.2c0.2-0.1,0.3-0.3,0.3-0.5c-0.1-11.1-5.2-21.5-13.9-28.3c-0.2-0.2-0.5-0.1-0.7,0.1c-0.1,0.1-0.1,0.3-0.1,0.5
	C484,309.8,484.6,311,485.3,312.2z"/>
<path d="M436.8,440.6c-4.5,0.7-9-0.7-12.3-3.8c0.9-0.3,1.8-0.3,2.7-0.1c0.3,0.1,0.5-0.1,0.6-0.4c0.1-0.2,0-0.4-0.2-0.6l-5.8-3.5
	l4-0.1c0.3,0,0.5-0.2,0.5-0.5c0-0.2-0.1-0.3-0.2-0.4c-3.4-2.1-6.4-4.7-8.9-7.7c-1.2-1.5-3.8-4-7.5-4.2c-0.2,0-0.4,0.1-0.5,0.3
	c-0.1,0.2,0,0.4,0.2,0.6c2.1,1.6,3.8,3.5,5.1,5.8l-2-1.6c-0.2-0.2-0.5-0.1-0.7,0.1c-0.1,0.2-0.1,0.4,0,0.6l5.8,10.4l-2.9-1.2
	c-0.3-0.1-0.5,0-0.7,0.3c-0.1,0.1-0.1,0.3,0,0.4c2.1,4.1,5.7,7.2,10.1,8.5c1.4,0.4,2.9,0.6,4.4,0.6c3.1,0,6-0.8,8.7-2.4
	c0.2-0.1,0.3-0.5,0.2-0.7C437.2,440.7,437,440.6,436.8,440.6L436.8,440.6z"/>
<path d="M460.7,470.6c0.2,0.1,0.5,0.1,0.6-0.1l0.8-0.9l-0.3,0.7c-0.1,0.2,0,0.5,0.2,0.6c0.1,0,0.2,0.1,0.2,0.1
	c0.2,0,0.3-0.1,0.4-0.2c0.2-0.3,0.5-0.6,0.9-0.8v0.2c0,0.3,0.2,0.5,0.5,0.5c0,0,0.1,0,0.1,0c2.4-0.7,4.8-1.6,7.1-2.7
	c0.3-0.1,0.4-0.4,0.2-0.7c0-0.1-0.1-0.2-0.2-0.2c-2.2-1.2-4.9-1.3-7.1-0.2c0-0.5,0-1-0.1-1.5c-0.1-0.3-0.3-0.4-0.6-0.4
	c-0.1,0-0.2,0.1-0.2,0.2c-1.2,1.4-2.2,3-2.8,4.8C460.4,470.3,460.5,470.5,460.7,470.6z"/>
<path d="M487.5,470.1c-1.7,0.6-3.5,1.1-4.7,0.7c-0.2-0.1-0.4,0-0.5,0.1c-1,0.9-1.9,1.9-2.5,3c-0.1,0.2-0.1,0.5,0.2,0.7
	c0.2,0.1,0.4,0.1,0.5,0l1.5-1l0,0.2c-0.1,0.3,0.1,0.5,0.4,0.6c0.1,0,0.2,0,0.3,0l1.4-0.6l-0.2,0.4c-0.1,0.2-0.1,0.5,0.2,0.7
	c0.1,0,0.2,0.1,0.3,0.1c0.1,0,0.2,0,0.3-0.1c1.4-1.1,2.6-2.4,3.6-3.8c0.1-0.2,0.1-0.5-0.2-0.7C487.8,470.1,487.6,470,487.5,470.1
	L487.5,470.1z"/>
<path d="M875.7,561.5H742.8c-1.1-1.8-2-3.6-2.9-5.5c2.5-1.3,5.4-1.3,8-0.1c0.2,0.1,0.5,0,0.7-0.2c0.1-0.2,0.1-0.4-0.1-0.6
	c-4.5-4.2-9.2-8.5-14.8-11.8c-2.4-1.4-5-2.6-7.6-3.5c3.6-2,6.5-4.9,8.4-8.5c0.1-0.2,0.1-0.4,0-0.5c-0.1-0.2-0.3-0.2-0.5-0.2
	c-3.8,0.6-7.7-0.1-11-2c-0.9-0.7-1.8-1.3-2.8-2c-1-0.9-1.9-1.8-2.6-2.9c3-0.3,5.9,1.1,7.5,3.6c0.1,0.2,0.4,0.3,0.7,0.2
	c0.2-0.1,0.3-0.3,0.2-0.5c-0.8-5.3-3.6-10.1-7.9-13.4c3.4-0.5,6.5-1.7,9.3-3.7c0.2-0.1,0.3-0.4,0.2-0.6c-0.1-0.2-0.3-0.3-0.5-0.3
	c-5.2,0.7-10.4-0.9-14.3-4.4c-2.5-2.4-4.7-5.1-6.7-7.9c-0.8-1.1-1.6-2.2-2.4-3.3c3.3,0.6,6.6,1.4,9.8,2.3c0.2,0.1,0.4,0,0.5-0.1
	c0.1-0.1,0.2-0.3,0.1-0.5c-0.7-2.5-1.5-5-2.5-7.4c0.9,0.2,1.8,0.5,2.7,0.7c-0.9-0.4-1.9-0.7-2.8-1.1c-2.3-5.4-5.6-10.4-9.6-14.7
	l7.9,2.2c0.3,0.1,0.5-0.1,0.6-0.3c0.1-0.2,0-0.4-0.2-0.5c0,0,0,0-0.1,0c8.9,3,17.9,6,26.8,8.9c-9.7-4.4-19.5-8.4-29.6-11.9
	c-2.9-3.6-6.3-8.6-7.5-10.4c1.9-0.4,6.8-1.7,9.4-5.2c0.2-0.2,0.1-0.5-0.1-0.7c-0.1,0-0.1-0.1-0.2-0.1c-5.2-0.7-7.5-2.9-10-5.2
	c-5.6-5.2,3.7-21.2,10.4-32.9c1.5-2.6,2.9-5,4-7.1c0.1-0.2,0.1-0.4-0.1-0.6c-0.3-0.3-0.7-0.2-1.4,0.1c-1.3,0.4-7.6,3.1-14,6
	c3.9-3.1,6.8-5.8,7.1-6c0,0,4.5-3.2,9.5-2.9c0.3,0,0.5-0.2,0.5-0.5c0-0.1,0-0.3-0.1-0.4c-4.6-4.8-10.9-7.7-17.6-7.9
	c0.5-0.4,1.1-0.7,1.6-1c5.8-3.7,9.6-6.1,12.3-12.4c0.1-0.3,0-0.5-0.3-0.7c-0.1,0-0.1,0-0.2,0c-0.4,0-1,0-1.7,0
	c-2.5,0.1-7.4,0.2-9.6-0.8c3.8-0.7,7.4-2.1,10.7-4.1c0.2-0.1,0.3-0.4,0.2-0.7c0,0,0,0,0-0.1c-2.5-3.1-3.7-7-4.6-11
	c0.3-3.7-0.4-7.4-2.1-10.7c6.8-6.4,12.8-13.6,17.7-21.6c0.1-0.2,0.1-0.5-0.2-0.7c-0.2-0.1-0.4-0.1-0.6,0c-3.2,2.4-7.2,3.5-11.2,3.2
	c6-3,11-7.8,14.3-13.6c1.1-1.3,2.1-2.7,3-4.1c1.4-2.5,2.1-5.4,2-8.4c-2.8-27.7,0.7-45,4.4-59.6c1.9,0.3,3.8,0.6,5.7,0.9
	c-1.9-0.5-3.7-0.9-5.6-1.3c0.4-1.5,0.8-3,1.1-4.4c0.7-2.7,1.4-5.3,2-7.9c4.2,0.1,8.3,0.3,12.5,0.5c-4.1-0.6-8.2-1.1-12.3-1.5
	c2.3-8.9,3.2-18,2.7-27.1c-0.6-9.5-0.7-19.2-0.8-25c0-1.9-0.1-3.4-0.1-4.5c0-0.4,0-0.7,0-1.1c0,0,0-0.1,0-0.1
	c0.1-1.3-0.7-2.6-1.9-3.2c-0.8-0.6-1.6-1.1-2.6-1.4c-1.1-0.7-2.3-0.8-3.5-0.4c-1.8,0.2-3.5,0.6-5.2,1.2c-12.4,4.4-22.9,12.9-33,21.2
	c-1.5,1.3-3,2.5-4.6,3.7c-22.2,17.9-46.8,33.3-70.7,48.2c1.1-5.5,4-10.4,8.2-14.1c0.2-0.1,0.2-0.4,0.1-0.6c-0.1-0.2-0.3-0.3-0.5-0.3
	c-8.2,0.9-16,4.2-22.3,9.6c0.8-3.8,2.5-7.3,4.9-10.2c0.2-0.2,0.1-0.5-0.1-0.7c-0.2-0.1-0.4-0.2-0.6,0l-18.3,10.3
	c-1.8,1.1-3.7,1.9-5.7,2.5c-1.9,0.5-4,0.1-5.6-1.2c-1.3-1.2-1.9-3.6-0.7-5c0.2-0.2,0.2-0.5-0.1-0.7c-0.2-0.2-0.5-0.2-0.6,0L571,242
	c-4.7-4.9-6-12-3.5-18.2c0.1-0.3,0-0.5-0.3-0.7c-0.2-0.1-0.3-0.1-0.5,0c-3.5,2.4-6.7,5-9.7,7.9l0.2-7c0-0.3-0.2-0.5-0.5-0.5
	c-0.2,0-0.3,0.1-0.4,0.2c-5,6.8-12.7,12.3-22.5,16.1c-8.8,3.4-18.2,5.1-27.4,6.7c-4.7,0.8-9.9,1.5-13.3-1.6
	c-2.1-2.2-3.1-5.2-2.7-8.2c0.5-3,1.6-6,3.2-8.6c0.1-0.2,0.1-0.5-0.2-0.7c-0.2-0.1-0.5-0.1-0.6,0.1c-3.7,3.8-6.8,8.2-9.2,12.9
	c-2.8-5.6-6.5-10.7-11-15c-0.2-0.2-0.5-0.2-0.7,0c-0.1,0.1-0.2,0.3-0.1,0.5l1.1,5.4c-4.2-7.6-9.1-14.8-14.5-21.6
	c-9.6-12.1-21-22.8-32-33.2l-28.7-27c0-0.2-0.1-0.3-0.2-0.4c-0.3-0.2-0.7-0.5-1-0.7l-1.2-1.1c-0.3-0.3-0.7-0.7-1-1.1
	c-0.7-0.8-1.4-1.5-2.2-2.2c-0.4-0.3-0.9-0.7-1.3-0.9l-4.6-4.3c-1.3-1.5-2.5-3-3.6-4.6l-0.2-0.3c-0.7-1.2-1.7-2.3-2.8-3.2
	c-0.9-0.7-2-1.1-3.2-1.1l-0.1-0.1c-0.1-0.1-0.4-0.2-0.6-0.1c-0.1,0.1-0.2,0.2-0.2,0.3c-0.2,0.1-0.4,0.1-0.6,0.2
	c-0.9,0.5-1.5,1.3-1.7,2.3c-0.2,0.7,0,1.5,0.4,2.1c0.1,7.8,3.9,15.7,7.5,23.4l0.3,0.7c0.9,2,1.8,4,2.7,5.9
	c1.3,6.1,1.8,12.4,1.3,18.6c-0.1,2.2-0.3,4.4-0.6,6.6c-0.5-0.2-0.9-0.3-1.4-0.4c-1.9-0.6-3.8-1.2-5.7-1.7c2.2,0.8,4.9,1.9,7,2.8
	c-0.2,1.5-0.3,3-0.5,4.4c-0.3,2.6-0.6,5.3-0.8,8c-3.6-0.3-7.5-0.5-11.6-0.6c-2.5-0.1-5.2-0.1-7.7-0.1c3.1,0.2,6.1,0.5,9.2,0.8
	c3.6,0.4,6.9,0.7,10,1.2c-0.3,3.8-0.4,7.5-0.3,11.3c0.2,3.6,0.6,7.3,1.1,10.9c0.9,6.9,1.8,14,0.5,20.9c-0.8,3.7-2,7.3-3.5,10.8
	c-0.3,0.8-0.6,1.7-1,2.6c-5.1,3.4-9.9,7.2-14.4,11.4c-4.7,4.4-8.8,9.4-12.2,14.9c4.2-5.7,9.1-10.8,14.5-15.3c3.5-3,7.2-5.8,11-8.3
	c-0.3,0.9-0.6,1.9-0.9,2.8c-3.1,11.2-1.8,23.3-0.6,34c0.2,3.3,0.9,6.5,2.1,9.6c1.2,2.9,3.5,5.3,6.5,6.4l-5.3,7.3
	c-0.2,0.2-0.1,0.5,0.1,0.7c0,0,0,0,0,0c3.8,2.4,6,6.7,5.7,11.2c-2.3,2.9-4.2,6.1-5.4,9.6c-0.1,0.3,0,0.5,0.3,0.6
	c0.2,0.1,0.4,0,0.5-0.1c5-4.8,11.9-7.3,18.9-6.6c-6.3,4.3-10,11.6-12.3,16.8c-0.8,1.8-1.5,3.7-2.3,5.5c-2,4.9-4,10-7,14.4
	c-2.3,3.3-4.6,5.2-7.1,5.7c-0.3,0.1-0.4,0.3-0.4,0.6c0,0.1,0.1,0.2,0.1,0.2c3.5,3.8,8.6,5.6,13.7,4.8c-1.6,3.7-4.3,6.9-7.6,9.1
	c-0.2,0.2-0.3,0.5-0.1,0.7c0.1,0.1,0.1,0.1,0.2,0.2c2.3,0.9,4.8,1.4,7.4,1.3c-1.2,1.3-2.5,2.5-3.9,3.5c-1.7,0.5-3.3,1.1-4.8,1.9
	c-0.2,0.1-0.3,0.4-0.2,0.7c0,0.1,0.1,0.2,0.2,0.2c8.1,4.1,15,10.1,20.3,17.5c-4.3-1-8.7-0.5-12.7,1.4c-0.2,0.1-0.4,0.4-0.2,0.7
	c0,0.1,0.1,0.2,0.2,0.2c4.6,2.3,8.8,5.3,12.4,8.9c-0.8-0.2-1.5-0.3-2.3-0.3h0c-2,0-4,0.8-5.5,2.2c-0.2,0.2-0.2,0.5,0,0.7
	c0.1,0.1,0.1,0.1,0.2,0.1c7.6,2.5,12.3,9.6,15,15c0.5,1,0.9,2,1.4,3c-5.3,1.4-10.3,2.8-14.8,4c-19.6,5.6-39.1,11.4-58.4,17.7
	c-6.4,2.2-13.6,4.7-19.5,7c6.6-1.9,13.2-3.7,19.7-5.7c24.4-7.5,48.9-15,73.6-21.4c0.8,2,1.6,4.1,2.3,6.1c0.4,1,0.7,2,1.1,3
	c-2,0.8-4.1,1.7-6.1,2.6c-0.4-0.2-0.7-0.5-1.1-0.7c-0.2-0.2-0.5-0.1-0.7,0.1c-0.1,0.2-0.1,0.4,0,0.5c0.1,0.3,0.3,0.5,0.4,0.7
	c-10.4,4.7-20.5,10.1-30.2,16c-19.1,11.5-37.3,24.5-54.5,38.7c-7.1,5.9-13.9,12.2-20.3,18.9c7.7-6.8,15.6-13.2,23.6-19.7
	c24.7-19.7,54-39.2,82.5-52.2c2.2,3.5,5.1,6.5,8.5,8.8l-7.3-2.1c-0.3-0.1-0.5,0.1-0.6,0.3c-0.1,0.2,0,0.4,0.2,0.5
	c3.3,2.8,6.8,5.3,10.5,7.6c-2.9,2.3-5.8,4.7-8.7,7.1c-12.5,10.5-24.5,21.6-36.3,32.8c-6.6,6.3-13.8,13.8-19.5,20.1
	c7.2-6.6,14.5-13.1,21.6-19.8c14.9-13.5,29.4-27,45-39c2.3,1.3,4.6,2.6,7,3.7c-4.7,1.3-14.7,5.5-20.5,19.2c-0.1,0.3,0,0.5,0.3,0.7
	c0.2,0.1,0.3,0.1,0.5,0c2.7-1.8,5.8-2.9,9-3.5c-4.8,4.6-7.1,8.9-9.3,13c-0.9,1.7-1.8,3.4-2.9,5c-5.6,0.4-11.1,1.3-16.6,2.6
	c-3.8,0.9-7.5,2.2-11,4c-6.8,2.3-12.8,6.6-17.2,12.2c-3.5,4.4-6.1,11.4-7.4,18.8H211.7c-0.3,0-0.5,0.2-0.5,0.5v25.9
	c0,0.3,0.2,0.5,0.5,0.5h138.6c0.8,3,2.3,5.8,4.5,8.1c4.1,4,9.1,5.6,13.9,6.8c6.4,1.6,12.9,2.8,19.5,3.6c1.4,2.2,3.8,3.6,6.5,3.5
	c0.4,0,0.9,0,1.3-0.1c1.8-0.3,3.5-1.2,4.8-2.4c3,0.1,6,0.2,9,0.2c3.9,0,7.8-0.1,11.8-0.4c7.1-0.4,14-1.2,19.9-5.7
	c2.6-2.1,4.7-4.8,6.2-7.8c2.5-1.6,4.8-3.6,6.7-5.9H579c0.1,0,0.1,0,0.2-0.1c2.5,5,6.3,9.3,11,12.3c1.5,3,3.6,5.7,6.2,7.8
	c5.9,4.5,12.8,5.3,20,5.7c4,0.2,7.9,0.4,11.8,0.4c3,0,6.1-0.1,9.1-0.2c1.1,1,2.4,1.7,3.8,2.1c0.2,0.7,0.5,1.3,0.7,2
	c-0.2-0.6-0.4-1.3-0.5-1.9c0.3,0.1,0.6,0.2,0.9,0.2c3.1,0.6,6.2-0.8,7.8-3.4c6.6-0.8,13.1-2,19.6-3.6l0.2,0c0.3,0.3,0.6,0.6,0.9,0.9
	c0.9,0.8,2.1,1.2,3.2,1.2c0.4,0,0.7,0,1.1-0.1c1.3-0.5,2.5-1.3,3.3-2.4c0.9-1.1,1.7-2.4,2.1-3.8c1.1-0.7,2.2-1.6,3.1-2.5
	c3.3-3.2,4.9-8.1,6-14.5h186.1c0.3,0,0.5-0.2,0.5-0.5V562C876.2,561.8,875.9,561.5,875.7,561.5z M618.1,595
	c-0.5,2.2-1.3,4.2-2.5,6.1c-0.9,1.3-2.6,2.4-4.1,1.7c-0.9-0.6-1.7-1.4-2.3-2.4c-0.7-1.2-1.7-2.2-3-2.8c-1.3-0.5-2.7,0.7-4,1.9
	c-0.9,0.8-1.9,1.7-2.6,1.7h0c-1.1,0-5.1-3.2-7.6-5.4c-0.5-0.9-0.9-1.9-1.4-2.9c-0.3-1.5-0.5-3.1-0.8-4.7c-0.8-5.9-0.6-11.9-0.3-17.7
	c0-0.3-0.2-0.5-0.5-0.5c-0.2,0-0.4,0.1-0.5,0.3c-3.1,6.9-3.7,14.7-1.8,22c-5.4-3.8-8.6-11.6-8.1-19.6c0.7-7.9,4.4-15.3,10.4-20.5
	c4.8-4.2,11-8.6,17-5.9l0.2,0.1c1.2,0.6,2.8,1.3,4,0.3c0.5-0.4,0.9-1,1.1-1.6c3.4,6.7,6.7,13.6,9.7,20.4c-0.4,0.3-0.5,0.8-0.5,1.3
	C621.5,576.2,620.6,585.8,618.1,595z M449.2,563.9c-0.1-0.3-0.4-0.4-0.7-0.2c-0.2,0.1-0.3,0.3-0.3,0.5c0.3,5.8,0.5,11.9-0.3,17.7
	c-0.2,1.6-0.5,3.2-0.7,4.6c-0.4,1-0.9,2-1.4,2.9c-2.5,2.3-6.4,5.4-7.5,5.4h0c-0.7,0-1.7-0.9-2.6-1.7c-1.3-1.1-2.6-2.3-3.9-1.9
	c-1.2,0.6-2.3,1.6-3,2.8c-0.6,0.9-1.4,1.7-2.3,2.4c-1.1,0.4-2.3,0.2-3.1-0.7c2.3-5.4,4.5-10.7,6.8-16.2c5-11.8,10.1-24.1,15.6-36.1
	c1,0.8,2,1.6,2.9,2.4c6,5.2,9.7,12.6,10.4,20.5c0.6,8-2.7,15.8-8,19.6C453,578.6,452.3,570.8,449.2,563.9z M419.9,588.6
	c-2.4-9.2-3.3-18.8-2.6-28.3c0.1-0.7-0.3-1.3-0.9-1.5c-0.5-0.1-1.1,0.3-1.2,0.8c-3.1,9-3.8,18.6-2.2,28c0.1,0.5,0.2,1,0.3,1.5
	c0.6,3.2,1.3,6.5,0.4,9.4c-0.7,2.2-2.2,4-4.1,5c-5.4,3-12,1-16.1-4.9c-1.6-2.6-2.6-5.5-3-8.5c-0.3-1.8-1.4-2.5-2.3-2.5
	c-1,0-2.1,0.9-2.3,2.7c-0.3,2-0.4,4.1-0.5,6.2v0.1c0,1.8-0.1,3.9-0.9,5.1c-0.7,0.9-1.9,1.4-3,1c-5.3-1-9.1-8.5-10-15.5
	c-0.7-5.6-0.6-11.2,0.3-16.8c0.2-0.9-0.3-1.9-1.2-2.3c-0.7-0.1-1.5,0.3-1.6,1.1c-1.7,4.8-1.8,9.5-1.9,14c0.1,3.3-0.2,6.5-0.8,9.7
	c-0.1,0.9-0.4,1.8-0.8,2.7c-0.5,1-1.7,1.5-2.8,1.1c-1.2-0.6-2.2-1.5-2.9-2.6c-6.7-8.5-9.4-23-6.7-35.3c2.5-6.3,6.2-12,10.9-16.9
	c1.8-1.9,5.8-4.1,9.3-6.1c1.1-0.6,2-1.1,2.9-1.6c3.8-1.5,7.8-2.7,11.8-3.5c8.8-1.8,20.2-3.3,30.1,0.4c1.3,0.5,2.6,1.1,3.8,1.8
	c-2.1,3.7-4.2,7.5-6.3,11.2c-4.6,8.4-8.9,17.1-12.8,25.8c4.7-8.3,9.5-16.5,14.2-24.8c2.1-3.7,4.2-7.5,6.4-11.2
	c1.2,0.9,2.1,2.1,2.8,3.5c0.1,0.1,0.1,0.3,0.2,0.4c0.2,0.8,0.7,1.4,1.3,2c1.3,1,2.8,0.3,4-0.3l0.2-0.1c4.3-1.9,8.7-0.1,12.7,2.6
	c-5.5,12.3-10.6,24.8-15.7,37.2c-1.9,4.8-4,10.3-5.9,15.6c-0.1-0.1-0.2-0.2-0.3-0.4C421.3,592.9,420.4,590.8,419.9,588.6
	L419.9,588.6z M442.8,449c-2,0.2-4,0-5.9-0.7c3.6-0.7,7.3-1.3,10.9-1.9C446.3,447.7,444.6,448.6,442.8,449L442.8,449z M431.8,449.4
	c2.5,1.1,5,1.9,7.6,2.5c-0.5,0.8-1.2,1.3-2.1,1.6c-0.3,0.1-0.4,0.4-0.3,0.6c0.1,0.2,0.2,0.3,0.4,0.3c0.7,0.1,1.5,0.2,2.2,0.2
	c-0.8,0.2-1.5,0.4-2.3,0.6c-7.1,1.9-14.2,4.2-21.1,6.8l-4.5-8c3.4-0.8,6.7-1.7,10.1-2.4C425.1,450.8,428.5,450.1,431.8,449.4
	L431.8,449.4z M419,474.6c1.3,0,2.4-0.9,2.6-2.2c0-0.7-0.2-1.3-0.6-1.8l-3.8-6.8c8.8-3.2,17.7-5.9,26.7-8.3
	c-0.2,2.3,0.4,4.6,1.7,6.4c0.4,0.6,0.8,1.1,1.3,1.7c-1.6,0.8-3.1,1.6-4.6,2.5c-6.9,3.8-13.6,8.1-19.9,12.8c-1.5-1.4-3-2.9-4.3-4.4
	C418.3,474.6,418.7,474.6,419,474.6z M448.6,465.5c0.2,0.3,0.5,0.5,0.7,0.7c0.5,0.5,1,1,1.5,1.5c0.8,0.8,1.5,1.7,2.1,2.6
	c0.4,1.3,1,2.7,1.6,3.9c0.1,0.2,0.3,0.3,0.4,0.3c0.1,0,0.1,0,0.2,0c0.2-0.1,0.4-0.3,0.3-0.6c-0.3-1.5-0.8-2.8-1.7-4.1
	c-0.7-2.1-1.1-4.2-1.3-6.4c4.6-2.2,9.2-4.3,13.9-6.1l0.6,0l-2.2,1.8c-0.2,0.2-0.2,0.5-0.1,0.7c0.1,0.1,0.2,0.2,0.4,0.2
	c0,0,0,0,0.1,0c2.4-0.3,4.6-1.8,5.8-3.9l2-0.8c0.1,0,0.2-0.1,0.2-0.2c3.8-1.1,7.6-2,11.4-2.6c-4.7,0-9.4,0.6-14,1.7
	c0-0.3-0.3-0.4-0.5-0.4c0,0-0.1,0-0.1,0l-3.5,1.1c-0.2,0.1-0.4,0.3-0.3,0.5c-4.7,1.4-9.2,3.2-13.7,5.3c0-1.2,0.1-2.4,0.3-3.5
	c0-0.3-0.1-0.5-0.4-0.6c-0.2,0-0.5,0.1-0.5,0.3l-1,2.7c0-2.1,0.3-4.2,0.8-6.2c0.7-0.2,1.4-0.4,2.2-0.5c1.6-0.4,3.1-0.8,4.7-1.1
	c-0.3,0.6-0.5,1.2-0.6,1.8c-0.1,0.3,0.1,0.5,0.4,0.6c0.2,0,0.3,0,0.4-0.1l1.8-1.5l-0.2,0.3c-0.1,0.2-0.1,0.5,0.2,0.7
	c0.2,0.1,0.4,0.1,0.6-0.1c1-0.8,1.8-1.8,2.4-2.9c2.3-0.5,4.5-1,6.8-1.5c1.7-0.3,3.5-0.7,5.2-1.1c0.3-0.1,0.6-0.1,0.9-0.2
	c1.2-0.2,2.4-0.2,3.5-0.1c-0.8-0.2-1.6-0.3-2.4-0.2h0c0.1,0,0.2-0.1,0.3-0.1c0.3-0.1,0.4-0.4,0.3-0.7c0,0,0-0.1,0-0.1
	c-0.3-0.4-0.7-0.8-1.1-1.1c0-0.1-0.1-0.2-0.2-0.2l-0.2-0.1l0.4-0.1c0.3-0.1,0.4-0.3,0.4-0.6c0-0.2-0.2-0.3-0.4-0.4
	c-1.5-0.3-1.9,0-2,0.2c-0.4-0.2-0.8-0.4-1.3-0.5c-0.2-0.1-0.5,0.1-0.6,0.3c-0.1,0.2,0,0.5,0.2,0.6l0.5,0.2c-0.1,0.1-0.2,0.3-0.2,0.5
	l-0.2,0c-0.3,0-0.5,0.1-0.5,0.4c-0.1,0.2,0.1,0.5,0.3,0.6c0.3,0.1,0.7,0.2,1.1,0.2l0.1,0c-0.6,0.1-1.1,0.2-1.7,0.2
	c-0.3,0-0.5,0.2-0.5,0.5c0,0.2,0.2,0.4,0.4,0.5c0.1,0,0.3,0,0.4,0.1c-1.3,0.2-2.7,0.3-4,0.5c-1.7,0.2-3.4,0.5-5.1,0.8
	c0-0.1-0.1-0.2-0.2-0.2c0.3-0.3,0.6-0.7,0.8-1c0.1-0.2,0.1-0.5-0.2-0.7c-0.1-0.1-0.3-0.1-0.4-0.1c-0.3,0.1-0.6,0.2-0.9,0.3
	c-0.6,0.1-1.3,0.4-1.8,0.7l0,0c-0.7,0.5-1.3,1.1-1.8,1.8c-2.4,0.5-4.8,1-7.3,1.5c0.8-2.2,1.9-4.2,3.4-6.1c2.6-0.3,5.1-0.6,7.7-0.9
	c8.1-0.7,16.3-1.7,24.3-0.5c-8.6-1.9-19-1.9-30.1-0.7c0.2-0.2,0.4-0.4,0.6-0.6c2.7-2.5,6.4-3.6,9.9-4.7l0.6-0.2
	c0.3-0.1,0.4-0.4,0.3-0.6c-0.1-0.2-0.3-0.4-0.5-0.4c-6.6,0.3-12.4,3.6-17.4,7.2c-6.1,0.8-12.3,2-18.5,3.2c-1-0.2-2-0.2-3-0.1
	c-0.2,0-0.4,0.2-0.4,0.4c0,0.1,0,0.3,0.1,0.4c-6.3,1.4-12.5,2.9-18.3,4.4l-7.7-13.8l6.9,2.8c0.3,0.1,0.5,0,0.7-0.3
	c0.1-0.2,0-0.4-0.1-0.5l-7.3-8.9l4.1,0.8c0.3,0.1,0.7,0.3,1,0.4c0.9,0.3,1.8,0.7,2.7,1.1c0.3,0.1,0.5,0,0.7-0.2
	c0.1-0.1,0.1-0.3,0-0.4c-3.6-6.6-7.4-13.3-11.2-19.8c-1.5-2.9-3.4-5.5-5.8-7.7c4.7,1.4,9.3,3,13.8,4.9c0.3,0.1,0.5,0,0.6-0.3
	c0.1-0.2,0-0.4-0.1-0.5l-18.8-23.5c3.5-0.7,5.6-4.6,6.5-8.2c0.1-0.6,0.3-1.2,0.4-1.8c0.3-1.6,0.7-3.1,1.3-4.6
	c0.9,0.1,1.8,0.2,2.7,0.2c1.4,0,2.7-0.1,4.1-0.3c0.8-0.1,1.5-0.2,2.3-0.3c3.5-0.5,7.1-1,10.5-0.1c0.3,0.1,0.5-0.1,0.6-0.4
	c0.1-0.2,0-0.4-0.2-0.5c-2.6-1.8-5.4-3.3-8.3-4.3c4.3-0.9,8.7-1.1,13.1-0.7c0.3,0,0.5-0.1,0.5-0.4c0-0.3-0.1-0.5-0.3-0.6
	c-1.4-0.4-2.7-1.2-3.6-2.3c5,1.2,10.2,1.7,15.3,1.6c0.3,0,0.5-0.2,0.5-0.5c0-0.2-0.1-0.4-0.3-0.4c-0.5-0.3-1.1-0.6-1.5-1
	c1.9,0.7,4,0.8,6,0.3c1.1-0.3,2.2-0.7,3.3-1.3c-1.5,4.8-1.7,9.9-0.6,14.8c1.8,7.8,7.1,14.1,13.8,16.5c0.2,0,0.4,0.1,0.4,0.3
	c0,0.1,0,0.1,0,0.2c4,3.2,9.9,4.2,17.5,3c5.8-0.9,11.4-2.6,16.7-5c2.8,4.4,3.5,9.8,2,14.7c0,0.1,0,0.3,0.1,0.4
	c2.6,3.7-0.4,7.7-1.7,9.2c-3.4,3.9-8.1,6.4-13.1,7.3c-0.3,0-0.5,0.3-0.4,0.6c0,0.1,0.1,0.3,0.2,0.4c2.1,1.2,4.4,2,6.7,2.4
	c-3.2,2.2-7.1,3.2-10.9,2.9c-0.2,0-0.4,0.1-0.5,0.2c-0.1,0.2-0.1,0.4,0,0.5c1.1,1.6,2.8,2.9,4.6,3.6c0,0,0.1,0,0.1,0
	c4.5,0.2,9.1,0.6,13.7,1c0,0,0.1,0,0.1,0c2.4-0.3,4.3,0.9,6.2,3.7c0.4,0.6,0.7,1.2,1.1,1.8c0,0,0,0.1,0.1,0.1c0,0.6-0.1,1.2-0.4,1.7
	c-0.2,0.3-0.4,0.6-0.7,0.9c-0.2,0.2-0.4,0.5-0.6,0.7c-1.2,1.8-1.4,4.1-0.6,6.2c0.8,1.9,2,3.6,3.5,5c0.5,0.5,1,1,1.6,1.5
	c0.9,0.8,1.8,1.7,2.7,2.7c0.6,0.7,1.2,1.5,1.8,2.3c0.7,1,1.4,1.9,2.2,2.7c0.4,0.4,0.7,0.7,1.1,1.1c0,0.3,0.1,0.6,0.3,0.8
	c0.4,0.5,0.8,0.9,1.4,1.1l0.2,0.1c2.2,1.3,3.9,3.4,4.8,5.8c0.6,1.7,0.8,3.4,0.6,5.2l-0.3,0.8c-0.3,0.6-0.7,1.3-1.1,1.1
	c-0.1-0.1-0.3-0.2-0.4-0.3c-0.1-0.1-0.2-0.2-0.3-0.3c-1.3-1-3-0.1-4.1,0.7c-5.6,3.7-11.6,6.7-17.9,8.9c-3,1-6.4,1.8-9.2,0.4
	c-0.2-0.1-0.5,0-0.7,0.2c-0.1,0.1-0.1,0.2,0,0.4c1.1,3.9,7.7,4.2,13.5,2.8c2.1-0.5,4.3-1.2,6.3-1.9c3.2-1.2,6.5-2,9.8-2.5
	c5.5-0.6,11,0.9,15.7,2.4c1.3,0.4,2.6,0.9,3.9,1.3c3.8,1.4,7.7,2.6,11.6,3.4c1.9,0.4,3.9,0.5,5.8,0.6c3.6,0.1,7.1-0.8,10.3-2.4
	c0.2-0.1,0.3-0.4,0.2-0.7c-0.1-0.2-0.2-0.2-0.4-0.3c-10.8-0.6-21.3-4.1-30.4-10.1l-0.8-0.5c-1.1-0.8-2.3-1.5-3.5-2.1
	c-0.2-0.1-0.4-0.2-0.6-0.3c-0.6-0.3-1.2-0.6-1.8-1c-0.2-0.2-0.4-0.4-0.6-0.6c-0.7-2.9,0.2-5.9,2.4-7.8c0.5-0.5,1.1-0.9,1.7-1.3
	c0.5-0.3,1-0.7,1.4-1.1c0.4-0.3,0.7-0.7,1.1-1c1.3-0.7,2.5-1.5,3.6-2.5c0.5-0.5,1-1.1,1.5-1.6c1.3-1.7,3-3.1,5-4
	c0.6-0.4,1.3-0.7,1.9-1.1c1.9-1.3,3.6-2.9,5-4.8c0.7-0.8,1-1.7,1.1-2.8c-0.1-1.3-0.8-2.4-1.8-3.1c-0.3-0.3-0.6-0.5-1-0.7
	c-0.4-0.3-0.8-0.6-1.1-0.9c2.7-1.9,5.7-3.3,8.9-4.1c3.2-0.6,6.4-0.7,9.6-0.5c0.9,0,1.9,0.1,2.8,0.1c3.8,0.1,8.6-0.2,12.3-2.8
	c0.2-0.2,0.3-0.5,0.1-0.7c-0.1-0.1-0.2-0.2-0.3-0.2c-3.5-0.6-6.5-2.7-8.2-5.7c3.2,1.5,6.9,1.2,9.9-0.7c0.2-0.2,0.3-0.5,0.1-0.7
	c-0.1-0.1-0.1-0.2-0.3-0.2l-9.2-3.1c-2.1-0.7-4.7-1.6-6.1-3.5c-1.1-1.6-1.7-3.5-1.8-5.5c-0.7-5.3-1.3-12.9,2.5-18.5
	c0.4-0.6,0.8-1.2,1-1.9c2.1,3.2,5.4,5.3,8.5,7c6.8,3.8,12.8,5.7,18.4,6c7.1,0.3,13.8-2.3,17.8-6.9c0.2-0.2,0.2-0.5-0.1-0.7
	c-0.2-0.1-0.4-0.2-0.6-0.1c-7.4,4.1-17.3,4.5-26.7,1.1c-4.7-1.7-10.8-5.1-13.3-11.1c-2.4-5.8-0.7-13.5,4.3-18.7
	c5.4-5.6,13-7.6,18.4-8.2c4.9-0.6,11.9-0.5,18,3c2.4,1.4,4.6,3.3,6.2,5.6c0.2,1.6,0.3,3.3,0.1,4.9c-0.8,9.1-2.9,15.7-6.6,20.7
	c-0.2,0.2-0.1,0.5,0.1,0.7c0,0,0,0,0.1,0c0.4,0.2,0.8,0.3,1.3,0.3c1.4-0.2,2.7-0.8,3.7-1.9c1.9-1.9,3.4-4.1,4.6-6.6
	c2.2-3.7,3.2-8,2.9-12.3c0.1-1.2,0.1-2.5,0-3.8c0.7-1.1,1.8-1.9,3.1-2.1c2.1,2.3,3.5,5.2,3.2,8.2c0,0.1,0,0.3,0.1,0.4
	c0.1,0.1,0.2,0.2,0.4,0.2c3.8-0.1,7.6-0.1,11.3,0l-4.4,1.6c-0.3,0.1-0.4,0.4-0.3,0.6c0.1,0.2,0.3,0.4,0.6,0.3
	c5.5-1.1,11.1-0.7,16.3,1.1c-1.1,0.7-2.1,1.6-2.8,2.7c-0.1,0.2-0.1,0.5,0.2,0.7c0.1,0,0.1,0.1,0.2,0.1c3.6,0.6,7.2,1.7,10.5,3.2
	l-4.6,0.6c-0.3,0-0.5,0.3-0.4,0.6c0,0.2,0.2,0.3,0.3,0.4c5.7,2,11,5.2,15.5,9.4c-1.4,0.1-2.8,0.5-4.1,1c-0.3,0.1-0.4,0.4-0.3,0.7
	c0,0,0,0.1,0.1,0.1c2.9,3.3,7,5.3,11.4,5.6c0.4,0,0.8,0,1.4,0c4.4,0,8.8-0.6,13-1.7c1.1,0.2,2,0.4,2.6,0.5c-2,2.2-8.4,9.3-10.2,12.6
	c0,0,0,0.1-0.1,0.1c0,0.1-0.1,0.1-0.1,0.2c-0.1,0.2-0.1,0.4,0.1,0.6c0.1,0.1,0.1,0.1,0.2,0.1c0.1,0.1,0.2,0.1,0.3,0.2
	c3.8,1.6,11.9-2.3,15-3.9c-4.6,11.2-9.9,23-11.1,23.6c-0.3,0-0.5,0.2-0.5,0.5c0,0.1,0,0.1,0.1,0.2l0.2,0.3c2.4,4.8,5.2,9.6,7.9,10.7
	c-1.1,0.7-2,1.3-2.9,1.8c-3,2-5,3.4-10,3.4c-0.3,0-0.5,0.2-0.5,0.5c0,0.1,0,0.2,0.1,0.3c0.4,0.6,0.7,1.1,1.1,1.7
	c-8.5-2.7-17-5.2-25.6-7.4c5.4-1.6,10.6-3.8,15.6-6.5c0.2-0.1,0.3-0.4,0.2-0.7c-0.1-0.2-0.3-0.3-0.5-0.2c-2.3,0.4-4.7,0.3-7-0.2
	l14.8-7.9c0.2-0.1,0.3-0.4,0.2-0.7c0-0.1-0.1-0.1-0.1-0.2c-1.2-1-2.7-1.7-4.2-2.1c1.8-0.6,3.8-0.8,5.7-0.7c0.2,0,0.4-0.1,0.5-0.3
	c0.1-0.2,0.1-0.4-0.1-0.5c-2.4-3-5.1-5.7-8.1-8.2c1.9,0.1,3.8,0.5,5.5,1.2c0.3,0.1,0.5,0,0.7-0.3c0.1-0.1,0.1-0.3,0-0.4
	c-2-4.8-6.5-8.2-11.7-8.9c-0.2,0-0.5,0.1-0.5,0.3c-0.1,0.2,0,0.5,0.2,0.6c1.4,0.8,2.6,1.8,3.7,3l-6.5,0.6c-0.3,0-0.5,0.3-0.5,0.5
	c0,0.1,0,0.1,0,0.2c0.6,1.3,1.5,2.4,2.7,3.3l-2.2-0.1c-0.2,0-0.5,0.1-0.5,0.4c-0.1,0.2,0,0.5,0.3,0.6l7.3,3.7l-8.9,1.2
	c-0.3,0-0.5,0.3-0.4,0.6c0,0.1,0,0.1,0.1,0.2l1.9,3.3c-6.8,0.3-13.4,2.6-18.9,6.6c-0.2,0.2-0.3,0.5-0.1,0.7c0.1,0.1,0.1,0.1,0.2,0.2
	l10.7,4l-7.8,4.9c-24.2-5.3-48.7-6.8-72.7,0.5c-0.2,0-0.3,0-0.5,0c-0.1,0-0.3,0.1-0.4,0.2c-5.1,1.6-10.1,3.5-15,5.9
	c5.3-1.9,10.6-3.4,15.7-4.7c0.3,0.2,0.6,0.4,0.9,0.6l-0.3,0c-0.2,0-0.4,0.1-0.5,0.3c-0.1,0.2,0,0.5,0.2,0.6c1.8,1.1,3.7,2,5.7,2.6
	c0.3,0.1,0.5-0.1,0.6-0.3c0.1-0.2,0-0.4-0.1-0.5c-0.2-0.1-0.3-0.3-0.5-0.4c0.6-0.1,1.1-0.3,1.7-0.5c0.2-0.1,0.3-0.3,0.3-0.5
	c-0.3-1.2-1.1-2.2-2.3-2.6c-0.4-0.1-0.9-0.2-1.3-0.2c23.2-5,44.4-3.8,66,0.7l-5.5,3.5c-0.2,0.1-0.3,0.5-0.2,0.7
	c0.1,0.1,0.2,0.2,0.4,0.2c0,0,0.1,0,0.1,0c3.8-0.9,7.7-1.9,11.5-3c10.1,2.4,20.3,5.4,31,8.8c1.3,2.9,2.2,5.9,2.5,9
	c-6.7-6.1-17.9-6.9-25.2-1.6c-0.2,0.1-0.3,0.4-0.2,0.6c0.1,0.1,0.1,0.2,0.2,0.4c-11.6-2.4-23.9-4.6-36.3-6.3c4.2-1.8,8.1-4,11.8-6.7
	c0.2-0.2,0.3-0.5,0.1-0.7c-0.1-0.2-0.4-0.3-0.6-0.2c-4.5,1.9-9.5,2.6-14.3,2.1c3.9-0.7,7.5-2.7,10.3-5.6c0.2-0.2,0.2-0.5,0-0.7
	c-0.2-0.1-0.4-0.2-0.6-0.1c-11.8,5.7-25.7,4.7-36.6-2.6c-0.2-0.2-0.5-0.1-0.7,0.1c-0.1,0.2-0.1,0.3,0,0.5c0.7,1.3,1.6,2.4,2.6,3.4
	c-1.7-0.4-3.4-0.3-5.1,0.2c-0.3,0.1-0.4,0.4-0.3,0.6c0,0.1,0.1,0.2,0.2,0.3c3,1.8,5.7,4,7.9,6.6c-10.5-0.8-21.1-1-31.7-0.6
	c-0.1-0.1-0.1-0.2-0.2-0.2l-0.7-0.3c0.3,0,0.5-0.3,0.4-0.6c0-0.1-0.1-0.3-0.2-0.3c-1.6-0.9-3.5-1.2-5.3-1c-0.1,0-0.3,0.1-0.4,0.2
	c-0.4,0.1-0.8,0.2-1.1,0.4c-0.2,0.1-0.3,0.4-0.2,0.7c0.1,0.1,0.2,0.2,0.4,0.2c0.8,0.1,1.5,0.3,2.2,0.5c-0.6,0.2-1.3,0.3-2,0.4
	c-0.2,0-0.4,0.2-0.4,0.4c-6.1,0.5-12.2,1.5-18.2,2.8c7.8-1.2,15.8-1.2,23.7-1.4c10.8-0.4,21.5-0.2,32.2,0.6c0,0,0,0,0,0
	c-0.2,0.2-0.2,0.5,0,0.7c2,2.3,3,5.3,2.9,8.4l-3.1-4.6c-0.2-0.2-0.5-0.3-0.7-0.1c-0.2,0.1-0.2,0.3-0.2,0.5c0.2,2.2-0.1,4.4-0.7,6.6
	c-9-1.5-18.1-2-27.1-1.4c0-0.7-0.4-1.3-1-1.7c-0.5-0.3-1-0.6-1.5-0.9c-0.2-0.1-0.5-0.3-0.7-0.4c-0.1-0.2-0.2-0.3-0.4-0.3
	c-1.1-0.2-2.3,0-3.3,0.5c-0.2,0.1-0.3,0.4-0.2,0.7c0.1,0.1,0.2,0.2,0.3,0.2l3.1,1.2c-0.7,0.1-1.4,0.1-2,0c-0.3,0-0.5,0.2-0.5,0.5
	c0,0.2,0.1,0.4,0.3,0.5c0.3,0.1,0.6,0.2,0.9,0.3c-1.8,0.3-3.6,0.6-5.3,1c-3.8-2.4-7.7-4.4-11.9-6.1c3.5,2,6.9,4.2,10.2,6.5
	c-1.6,0.4-3.2,1-4.8,1.6c1.7-0.6,3.5-1,5.4-1.1c2.3,1.7,4.6,3.4,6.8,5.2c-2.1-0.5-4.1-1.1-6.2-1.5c-4.8-0.9-9.7-2-14.6-1.4
	c4.9,0,9.7,1.6,14.4,2.9c3.4,1,6.8,2.1,10.2,3.3c3.6,3.2,7,6.5,10.2,10.1l-0.7,0.5c-0.2,0.2-0.3,0.5-0.1,0.7
	c0.1,0.1,0.2,0.2,0.4,0.2c0,0,0.1,0,0.1,0c0.4-0.1,0.8-0.2,1.2-0.3c2.5,2.8,4.9,5.6,7.2,8.6c-6.5-0.6-12.7-2.5-18.5-5.6
	c-0.2-0.1-0.5,0-0.7,0.2c0,0.1-0.1,0.2-0.1,0.3l0.2,3.9l-3.2-2.1c-0.2-0.2-0.5-0.1-0.7,0.1c0,0,0,0,0,0c-3.9,5.8-10.6,9.2-17.6,8.8
	c-0.1,0-0.2,0-0.3,0.1c-3,2.2-6.2,4.2-9.4,5.9l2.2-3.2c0.2-0.2,0.1-0.5-0.1-0.7c-0.2-0.1-0.4-0.1-0.5,0c-11.7,5.9-25.7,4.7-36.3-3.1
	c-0.2-0.2-0.5-0.1-0.7,0.1c-0.1,0.2-0.1,0.4,0,0.5l1.3,2.6c-7.7-2.2-14.2-7.3-18.1-14.3c-0.1-0.2-0.4-0.3-0.7-0.2
	c-0.1,0.1-0.2,0.2-0.3,0.4l-0.3,2.1c-1-2.5-1.1-5.4-0.3-8c0.1-0.3-0.1-0.5-0.3-0.6c-0.2-0.1-0.3,0-0.5,0.1
	c-4.7,3.9-10.2,6.8-16.1,8.5c0.4-0.6,0.7-1.2,1.1-1.7c0.8-0.9,1.5-1.8,2.2-2.7c0.1-0.2,0.1-0.4,0-0.6c3.1-4.4,6.4-8.7,9.8-12.8
	c4.2-5.1,8.9-9.9,14-14.2c1.5-1.2,3-2.3,4.6-3.3c0,0.1-0.1,0.1-0.1,0.2c-0.7,0.8-1.3,1.7-1.7,2.6c-0.1,0.3,0,0.5,0.3,0.7
	c0.2,0.1,0.3,0,0.5-0.1l0.6-0.4c0,0.1-0.1,0.2-0.1,0.3c-0.1,0.3,0.1,0.5,0.4,0.6c0.1,0,0.2,0,0.3,0l0.1-0.1
	c-0.5,0.8-0.9,1.8-1.1,2.7c-0.1,0.3,0.1,0.5,0.4,0.6c0.1,0,0.3,0,0.4-0.1l6.7-4.7c0.2-0.2,0.3-0.5,0.1-0.7c-0.1-0.1-0.2-0.2-0.3-0.2
	c-0.6-0.2-1.2-0.3-1.8-0.2c0.1-0.3-0.1-0.5-0.3-0.6c-0.5-0.1-1.1-0.1-1.6,0l-0.3,0.1c-0.3,0.1-0.6,0.2-0.9,0.2
	c-0.3,0-0.5-0.1-0.7-0.3v0c0.3-0.3,0.6-0.6,1-0.8c0.2-0.1,0.3-0.4,0.2-0.6c0.2-0.1,0.5-0.1,0.8-0.2c-0.3,0-0.5,0-0.8,0.1
	c-0.1-0.2-0.4-0.3-0.6-0.2c-0.3,0.1-0.7,0.3-0.9,0.6c-2,0.7-3.8,2.1-5.6,3.2c-6.7,4.7-12.6,10.4-17.6,16.9
	c-3.1,3.8-5.9,7.8-8.6,11.8c-5.7,2.6-12.2,3.2-18.3,1.6c0.9-0.3,1.8-0.8,2.5-1.5c1.3-1.2,2.1-3,2-4.8c0-0.2-0.2-0.4-0.4-0.5
	c-1.4-0.2-2.7-0.2-4.1-0.1c6-7.7,12.9-14.6,20.4-20.7c3.4-2.8,6.9-5.4,10.7-7.7c1.5-0.9,3-1.7,4.6-2.4c0.1,0,0.1,0,0.2,0
	c-0.1,0-0.2,0-0.3,0.1c-0.3,0.1-0.5,0.3-0.4,0.6c0,0.2,0.1,0.3,0.3,0.4c0.2,0.1,0.4,0.1,0.6,0.1c0.3,0,0.6-0.1,0.8-0.2
	c0.1-0.1,0.2-0.1,0.3-0.2c1.8-0.4,3.5-1.1,5.2-1.9c0.2-0.1,0.4-0.4,0.2-0.7c-0.1-0.1-0.2-0.2-0.3-0.3c-0.5-0.1-1-0.2-1.5-0.3
	c0-0.1,0-0.1,0-0.2c0-0.2-0.2-0.4-0.4-0.5c0,0-0.1,0-0.1-0.1c-0.5-0.3-1.3-0.7-3.5,0l-3.1,1.1c-0.2,0.1-0.4,0.1-0.5,0.2
	c-0.3,0.1-0.4,0.4-0.3,0.6c0.1,0.2,0.4,0.4,0.6,0.3l0.5-0.2c0.3-0.1,0.7-0.2,1.1-0.2c-0.4,0.2-0.8,0.3-1.3,0.5
	c-0.3,0.1-0.4,0.3-0.3,0.6c0.1,0.2,0.3,0.4,0.5,0.4c-6,2.1-12.7,7-16.6,10.1c-7.5,6.1-14.2,13.2-19.9,20.9c-1.3,0.2-2.7,0.6-3.9,1.1
	l4-4.1c0.5-0.4,1-0.7,1.4-1.1c0.2-0.2,0.2-0.5,0-0.7c-0.1-0.1-0.2-0.2-0.3-0.2c-4.6-0.1-9.1-0.6-13.6-1.5c-3.5-2.3-6.8-4.8-9.9-7.6
	C431.9,474.9,440.1,469.9,448.6,465.5L448.6,465.5z M409.9,342.1l-4.3-2.6l5.9-2.6c0.3-0.1,0.4-0.4,0.3-0.7c0-0.1-0.1-0.2-0.2-0.2
	l-7.3-4.7c2.8,0,5.4-0.9,7.6-2.5c2.9-2,5-4.8,7-7.5c1.1-1.5,3.8-5,4.3-9.4c0-0.3-0.2-0.5-0.4-0.6c-0.3,0-0.5,0.1-0.6,0.4
	c-0.7,3.6-3.3,6-5.7,7.5c-0.1,0-0.2,0-0.2,0.1c-3.5,2.1-7.6,2.7-11.6,1.7c-3.2-0.7-6-2.4-8.2-4.9c4,1.9,8.7,1.5,12.4-1
	c0.2-0.2,0.3-0.5,0.1-0.7c-0.1-0.1-0.1-0.1-0.2-0.2l-7.1-2.7l8.8-1.9c0.3-0.1,0.4-0.3,0.4-0.6c0-0.1-0.1-0.2-0.2-0.3
	c-1.4-1.2-3.1-2.1-5-2.6l14.3-2.1c0.3,0,0.5-0.3,0.4-0.6c0-0.1-0.1-0.2-0.2-0.3c-10.6-8.6-24.6-11.7-37.8-8.4
	c4.5-12.1,14.4-21.4,26.9-25c0.3-0.1,0.4-0.3,0.3-0.6c-0.1-0.2-0.2-0.3-0.4-0.4c-4.7-0.9-9.5-0.9-14.2,0l8.3-4
	c0.2-0.1,0.4-0.4,0.2-0.7c-0.1-0.2-0.2-0.3-0.4-0.3c-1.7,0-3.5,0-5.2,0.2c11.8-6.2,24.4-10.6,37.4-13.2c3.6-0.7,6.7-1.2,10.2-1.6
	c1.5,0,3.6-0.7,4.8,0.4c-0.6-1-2.1-0.8-3.1-1c-3.2-0.1-6.5,0-9.7,0.3c-14.2,0.9-28.6,7.3-41.1,15.2c-4.7,0.6-9.2,2-13.4,4.2
	c1-4,2.6-7.7,5-11c3.1-1.8,6.3-3.6,9.6-5.3c11.8-6.1,23.9-10.7,37-11.2c3.3-0.3,6.6-0.2,9.9,0.3c1.9,0.3,3.9,0.9,5.1,2.4
	c-2.7-3.9-10-4.1-14.5-4.4c-6.6-0.2-13.2,0.7-19.5,2.8l-0.1,0c-6.2,2.1-12.3,4.7-18.1,7.8c-2,1.1-4.1,2.2-6.1,3.3
	c6.2-6.8,14.9-10.8,24.1-11.1c0,0,0.1,0,0.1,0l0.1,0c0.3-0.1,0.4-0.4,0.2-0.7c-0.1-0.1-0.2-0.2-0.3-0.3c-6.9-2.4-14.3-2.9-21.5-1.4
	l5.3-3.1c0.2-0.1,0.3-0.4,0.2-0.7c-0.1-0.1-0.2-0.2-0.4-0.2c-3.5-0.6-7-0.5-10.5,0.3c1.3-4.8,5-9.1,10.3-12c5.1-2.8,10.9-4,16.5-5.2
	c0.3-0.1,0.4-0.3,0.4-0.6c0-0.2-0.1-0.3-0.3-0.4c-5.5-2.3-11.5-2.9-17.3-1.8l5-2.4c0.3-0.1,0.4-0.4,0.2-0.7
	c-0.1-0.1-0.2-0.2-0.3-0.3l-12.3-3.6c-0.1-1.4-0.1-2.9-0.1-4.3c22.9,4.1,31.2,11.1,55.4,29.2c-20.1-18.7-33.1-27.6-55.4-30.9
	c0-3.5,0.2-6.9,0.6-10.4c15.2,6.5,31.3,14.4,43.4,24.8c3.7,3,7.1,6.3,10.2,9.9c0.9,1.2,2,2.4,2.8,3.7c-9.7-18.8-35.5-31.9-56.2-39.5
	c0.3-2.8,0.8-5.7,1.4-8.5c0.5-2.6,1.5-5.7,3.9-6.6c2-0.8,4.4,0.1,6.4,1.1c6.5,3.2,12.5,7.2,17.9,11.9c0.2,0.2,0.5,0.2,0.7,0
	c0.2-0.2,0.2-0.5,0-0.7c-9.8-11.5-20.9-21.8-32.9-30.9c-1.6-2.6-2.9-5.5-3.9-8.4c-0.5-1.3-0.7-2.6-0.6-4c2,1.9,4.1,3.6,6,5.2
	c31.1,25.6,56.6,56.5,81.2,86.3l4.5,5.4c4.4,8.6,7.2,18,8.2,27.6c0,0.2,0.2,0.4,0.3,0.4c0.2,0.1,0.4,0,0.5-0.1
	c2.3-2.5,3.6-5.7,3.8-9c9.6,13.6,14.1,30,12.8,46.6c0,0.3,0.2,0.5,0.5,0.5c0.2,0,0.4-0.1,0.5-0.3c3.9-9.4,5.3-19.6,4-29.6
	c4.6,11.1,10.5,23.6,21.2,31.1c0.1,0.1,0.2,0.1,0.3,0.1c0.1,0,0.2,0,0.3-0.1c0.2-0.1,0.2-0.4,0.1-0.6c-3.9-7.9-7.6-15.8-9.3-24.1
	c-1.9-8.9-1.2-17.5,2-24.2c2.3,4.2,3.5,9,3.4,13.9c0,0.3,0.2,0.5,0.5,0.5c0.1,0,0.2,0,0.3-0.1c2.2-1.6,3.7-4.1,3.9-6.8
	c2.2,2.2,3.1,5.5,2.4,8.5c-0.1,0.3,0.1,0.5,0.4,0.6c0.1,0,0.3,0,0.4-0.1c5.4-3.4,9.1-9,10.1-15.3c8.1,2.3,15.1,7.5,19.6,14.6
	c0.1,0.2,0.5,0.3,0.7,0.2c0.1,0,0.1-0.1,0.2-0.2c2.4-4.2,4.5-8.5,6.5-12.9c1,1.9,1.4,4.1,1,6.3c-0.1,0.3,0.1,0.5,0.4,0.6
	c0.2,0,0.4,0,0.5-0.2c0.7-1.2,1.8-2.3,3-3.1c1.1-0.7,2.6-0.6,3.5,0.3c0.9,1.1,0.5,2.8,0.1,4.4c-1.8,6-3.4,11.4-3.6,17.1
	c-0.2,6.8,1.6,12.5,4.9,15.2c0.1,0.1,0.3,0.1,0.5,0.1c0.2-0.1,0.3-0.2,0.3-0.4c2.8-16.1,11-30.7,23.3-41.4
	c-1.9,5.1-2.4,10.6-1.4,15.9c0.1,0.3,0.3,0.4,0.6,0.4c0.2,0,0.3-0.1,0.4-0.3l1.7-3.9c0.6,5.8,2.9,11.3,6.6,15.9
	c0.2,0.2,0.5,0.2,0.7,0.1c0.1-0.1,0.2-0.2,0.2-0.4c0.2-12.7,4.1-25,11.2-35.5c7.2-10.8,18-18.7,30.5-22.3c0.1,0,0.1,0,0.2-0.1
	l56.9-44.3c3.3-2.6,7-5.5,11.3-6.7c2.8-0.8,5.8-0.7,8.5,0.4c-5.2,7.1-11.4,13.5-18.3,19c-0.2,0.2-0.3,0.5-0.1,0.7
	c0.1,0.2,0.4,0.2,0.6,0.1c4.2-2.1,9.4-4.7,14.5-2.4c2.5,1,4.1,3.6,3.7,6.3c-0.7,3.8-4.6,5-8.3,6.2l-0.9,0.3
	c-8,2.6-14.9,7.8-19.6,14.8c-0.2,0.2-0.1,0.5,0.1,0.7c0.1,0.1,0.3,0.1,0.5,0l16.1-6.9c-4.3,3.8-11.1,10.2-11.1,10.3
	c-0.2,0.2-0.2,0.5,0,0.7c0.1,0.2,0.4,0.2,0.6,0.1l5.8-2.8c-1.6,2.7-3.2,5.3-4.5,7.1c-7.2,0.2-14.3,1.1-21.2,2.8
	c-14.4,4.1-28.7,12-37.1,24.7c8.9-10.5,23.7-18.3,36.2-22.2c6.7-1.9,13.7-3,20.6-3.3c-0.2,0.3-0.4,0.5-0.7,0.7l-0.3,0.2
	c-0.2,0.1-0.3,0.4-0.2,0.7c0.1,0.2,0.4,0.3,0.6,0.2c0.1,0,0.2-0.1,0.3-0.1c0.9-0.5,1.9-1.1,2.9-1.8c4.2-0.2,8.4-0.2,12.8-0.2
	c-0.5,3.3-0.6,6.7-0.4,10c0,0.2,0,0.5,0,0.7c-0.8-0.1-1.7-0.3-2.5-0.4c-22.6-3-49.1-2-66,15.2c18.4-14.4,42.7-16,65.6-14
	c1,0.1,1.9,0.2,2.9,0.3c0.1,5.7-0.1,11-3.7,14.3c-2.5,2.3-6.1,3.3-9.5,4.3c-3.6,1.1-7.3,2.2-9.9,4.7c-6.6-2.8-13.6-4.4-20.7-4.5
	c-3.3,0-6.6,0.7-9.7,2c-0.9,0.4-1.7,0.9-2.4,1.6c-4.4-0.2-8.7,0.9-12.6,2.9l5.2-7.9c0.1-0.2,0.1-0.4,0-0.5c-0.1-0.2-0.3-0.3-0.5-0.2
	c-3.7,0.2-7.3,1.2-10.6,3c2.2-12.3,12.7-21.6,20.4-27.6c1.3-1,2.6-2,3.9-2.9c8.4-6.3,17-12.8,19.6-21.8c0.1-0.3-0.1-0.5-0.3-0.6
	c-0.2,0-0.4,0-0.5,0.1c-6.6,6.3-14.2,11.4-21.7,16.4c-4.9,3.3-10,6.7-14.8,10.4c-10.2,8-22.6,21.1-23.7,37.6c0,0.3,0.2,0.5,0.5,0.5
	c0.1,0,0.2,0,0.3-0.1c2.4-1.5,4.6-3.4,6.5-5.5l-4.4,13.5c-0.1,0.3,0.1,0.5,0.3,0.6c0.2,0.1,0.4,0,0.5-0.1l6.4-7.3
	c-3.2,10.4-2.9,21.6,0.8,31.9c0.1,0.2,0.3,0.3,0.5,0.3c0,0,0.1,0,0.1,0c0.2,0,0.4-0.2,0.4-0.5c0.3-18,13.1-34.8,30.3-39.9
	c0.3-0.1,0.4-0.4,0.3-0.6c0-0.2-0.2-0.3-0.3-0.3c-2.2-0.7-4.4-1.2-6.7-1.3c1-0.7,2.2-1.3,3.5-1.5c2.7-0.6,5.6-0.8,8.4-0.6
	c6.7,0.6,13.3,2.1,19.6,4.5c-0.1,0.1-0.2,0.2-0.2,0.3c-0.1,0.2-0.1,0.4,0,0.6c0.1,0.2,0.4,0.2,0.6,0.1c0.4-0.2,0.8-0.3,1.2-0.5
	c2.2,0.8,4.4,1.7,6.6,2.7c-2.3,1.7-4.5,3.6-6.6,5.6c-0.2,0.2-0.2,0.5,0,0.7c0.2,0.2,0.4,0.2,0.6,0.1c5.3-2.8,11.8-2.1,16.3,1.9
	c-13.5,3.4-26.3,9.4-37.6,17.5c-0.2,0.2-0.3,0.5-0.1,0.7c0.1,0.2,0.4,0.3,0.6,0.2c5.6-2.8,11.5-5.6,17.6-7.2
	c5.3-1.4,14-1.8,20.2-0.1l-19.1,7.1c-0.2,0.1-0.4,0.3-0.3,0.6c0,0.2,0.3,0.4,0.5,0.4l22.9-0.8c-2,13.1-8.9,19.9-16.8,25.2
	c-1.2,0.5-2.4,0.9-3.6,1.2c-3.3,1-6.7,1.2-10.1,0.7c3.9-0.7,7.2-3.2,9.2-6.6c0.1-0.2,0-0.5-0.2-0.7c-0.2-0.1-0.4-0.1-0.5,0
	c-7,4.7-15.5,5.3-24.5,1.9c-0.3-0.1-0.5,0-0.6,0.3c0,0.1,0,0.2,0,0.3c2.1,6,7,10.7,13.2,12.4l-3.8,3.5c-0.2,0.2-0.2,0.5,0,0.7
	c0.1,0.1,0.2,0.2,0.4,0.2c0,0,0.1,0,0.1,0c2.3,0,4.6,0.7,6.4,2c-1.8,1.6-4,2.7-6.4,3c-0.3,0-0.5,0.3-0.4,0.6c0,0.1,0.1,0.3,0.2,0.3
	l13.2,9.4l-5.2,0.2c-0.3,0-0.5,0.2-0.5,0.5c0,0.2,0.1,0.4,0.3,0.4c3.3,1.5,6.1,3.9,8.3,6.8c0.7,2.7,1.4,5.4,2.1,8
	c-5.5,1.4-11.4,0-15.6-3.8c-0.2-0.2-0.5-0.2-0.7,0c-0.1,0.1-0.2,0.3-0.1,0.5c1.6,6.3,5.1,12,9.9,16.4c-3.1,2.9-6.4,5.5-9.9,7.8
	c-3.3,0.1-6.6-0.2-9.9-0.8l5-2c0.3-0.1,0.4-0.4,0.3-0.7c-0.1-0.2-0.3-0.3-0.5-0.3c-3.8,0.3-7.5-0.5-10.8-2.4c-3-1.7-5.9-3.7-8.6-6
	c2.6-0.5,5.3-0.3,7.7,0.8c0.3,0.1,0.5,0,0.7-0.3c0.1-0.2,0-0.5-0.2-0.6c-7.4-5.4-16.3-8.1-25.5-7.8l3.8-3.6c0.2-0.2,0.2-0.5,0-0.7
	c-0.1-0.1-0.3-0.2-0.4-0.2l-9.5,1.6c0.8-0.8,1.5-1.7,2-2.7c0.1-0.2,0-0.5-0.2-0.7c-0.1-0.1-0.3-0.1-0.5,0
	c-4.7,2.5-10.3,3.1-15.4,1.7c-13.9-16.8-38.5-19.8-56-6.7c0,0-0.1,0.1-0.1,0.1c-5.6,8.2-9.8,17.2-12.4,26.8l-0.4,1.4
	c-1.2,4.8-2.4,9.7-6.2,12.5c-0.2,0.1-0.4,0.3-0.5,0.4c-0.6,0.4-1.2,0.9-1.7,1.5c-1.3,1.7-1,3.9-0.7,5.8l0,0.4c0.8,5.1,0,10.3-2.1,15
	c-0.9,1.8-2,3.5-3.1,5.2c-0.8,1.2-1.6,2.4-2.3,3.7c-0.8,1.4-1.4,2.8-1.9,4.4c-3.2,2.5-7,4-11.1,4.3c-4.6,0.5-9.7-0.2-15.5-2.1
	c-0.7-0.2-1.5-0.5-2.2-0.8c-2.6-2.4-4.1-6.4-4-11.1c0.1-2.9,0.5-5.7,1.1-8.6c0.3-1.9,0.7-3.9,0.9-5.9c0.4-4.2,0.2-10.2-3.6-14.1
	c-0.3-0.3-0.6-0.6-1-1c-1-0.7-1.7-1.7-2.2-2.8c-0.2-1-0.2-1.9-0.1-2.9c0.3-1.3,0.1-2.6-0.4-3.8c-2.3-3.8-2.5-8.4-2.7-12.8
	c-0.1-1.5-0.2-3.1-0.3-4.6c-0.9-7.8-3.8-15.1-8.5-21.4c0-0.1-0.1-0.1-0.1-0.1c-7.4-4.7-15.9-7.3-24.6-7.6c-2.8-0.2-5.7,0.2-8.4,1.1
	c-0.8,0.3-1.6,0.7-2.3,1.1c-5.8,0.9-11.8,0.8-17.6-0.3c-0.3-0.1-0.5,0.1-0.6,0.4c0,0.1,0,0.3,0.1,0.4l1.4,1.9
	c-8.2-0.7-16.5,0.1-24.4,2.5c-0.2,0.1-0.4,0.3-0.4,0.6c0,0.3,0.3,0.4,0.5,0.4c2.1-0.1,4.3,0.3,6.2,1.1c-6.5,1.4-13.1,1.7-19.7,0.8
	c2.9-5.3,6.8-9.9,11.6-13.5c0.2-0.2,0.3-0.5,0.1-0.7C410,342.2,409.9,342.2,409.9,342.1L409.9,342.1z M726.7,232.4
	c-0.9,1.3-1.6,2.7-2,4.2c-3.4-0.1-6.9-0.1-10.3-0.1C718.6,233.5,722.9,230.8,726.7,232.4z M708.5,239.6c-0.1,0.1-0.2,0.1-0.2,0.1
	C708.4,239.7,708.4,239.7,708.5,239.6L708.5,239.6z M717.5,272.2c-3,1.4-5.8,3.1-8.5,4.9c-1.8-0.9-3.6-1.8-5.4-2.6
	C708.1,273.1,712.8,272.3,717.5,272.2z M526,465.3c-1,0.5-2.1,0.6-3.1,0.3c-1-0.3-1.7-1.1-1.8-2.2c0-0.2,0-0.3,0-0.5
	c0-0.3,0-0.5,0-0.8c0-0.6-0.5-1.2-1.1-1.4c-0.3-0.1-0.5,0.1-0.6,0.4l-0.7,2.7c-0.1,0.3-0.2,0.7-0.4,0.9c-0.4,0.4-1,0.6-1.5,0.5
	c-1,0-1.9-0.2-2.8-0.5c-1-0.9-1.9-1.9-2.7-3c1.5-0.5,2.7-1.9,2.8-3.5c0.2-1.7-0.6-3.3-2-4.2c-1.3-0.7-2.8-1-4.3-0.9
	c-1.2,0-2.3-0.1-3.4-0.5c-2.1-1-3.1-3.5-3.9-6c-0.1-0.5-0.3-1.3,0.1-1.6c0.3-0.2,0.7-0.1,1.2,0.1c1.3,0.5,2.7,1,4,1.5
	c4.4,1.7,9,3.5,13.9,3.7c3.3,0,6.6-0.4,9.8-1.1c4.1-0.8,8.1-1.5,12-0.8c0.5,0,1,0.2,1.3,0.6c0.3,0.4,0.2,1-0.2,1.9
	c-0.7,1.5-1.7,2.7-3,3.7c-1.3,0.9-2.8,1.3-4.4,1.1c-0.5-0.1-1.1-0.3-1.6-0.5c-0.6-0.2-1.2-0.4-1.8-0.6c-2.4-0.4-4.7,0.9-5.5,3.2
	c-0.3,1.2,0,2.5,0.8,3.5c0.5,0.6,1.1,1.1,1.9,1.3c-0.4,0.5-0.9,0.9-1.3,1.4C527,464.8,526.5,465.1,526,465.3z M447.6,366
	c0.7-3.7,2.1-6.5,4.2-8.2c2.3-1.9,5.5-2.5,8.1-2.8c7.6-0.9,14.5,0.1,19.9,2.9c2.6,1.3,4.9,3.3,6.5,5.7c2.7,4.3,2.7,9.9,2.7,14.5
	c0,0,0,0.1,0,0.1c0.8,3.7-1.2,7.9-5,10.7c-3,2.2-7,3.5-12.1,3.9c-4.9,0.4-9.9,0.1-14.7-1c-0.2,0-0.3-0.1-0.3-0.3
	c0-0.1,0-0.1,0.1-0.2C449.5,385,446,375.5,447.6,366L447.6,366z M580.7,455.2C580.7,455.2,580.7,455.2,580.7,455.2
	c0.1-0.1,0.2-0.1,0.3-0.1C580.9,455.1,580.8,455.1,580.7,455.2z M700.3,516.6c3,1.6,5.9,3.1,8.9,4.7c-4.4,1.2-8.6,2.8-12.6,4.9
	c-0.2,0.1-0.3,0.4-0.2,0.7c0,0.1,0.1,0.1,0.2,0.2c2.5,1.8,5.4,3.1,8.4,3.8c-8.8,1.6-16.9,6-23,12.4c-0.2,0.2-0.2,0.5,0,0.7
	c0.1,0,0.1,0.1,0.2,0.1c10.1,3.5,19.2,9.5,26.4,17.4H688c-1.2-4.5-3.2-8.7-5.9-12.4c-4.4-5.7-10.4-9.9-17.2-12.2
	c-3.5-1.8-7.2-3.1-11-4c-6-1.5-12.1-2.4-18.3-2.7c-5.1-6-10.7-11.6-16.6-16.7c7.1-1.9,13.9-5,20-8.9c1.2-0.3,2.4-0.6,3.6-0.9
	c3.9-1.1,7.7-2.6,11.4-4c1.5-0.6,3-1.2,4.5-1.7c9.9,3.8,19.6,7.9,29.1,12.5c-8.3-0.4-16.7-1.1-24.9-2c-0.2,0-0.4,0.1-0.5,0.2
	c-0.1,0.2-0.1,0.3,0,0.5l3.7,7.3c-3.7-0.1-7.4-1.1-10.7-2.8c-0.2-0.1-0.5,0-0.7,0.2c-0.1,0.2-0.1,0.4,0.1,0.6c6.2,7.2,16,10,25,7
	c0.3-0.1,0.4-0.4,0.3-0.6c0-0.1-0.1-0.2-0.2-0.2c-2.5-1.9-4.8-4.1-6.5-6.7c5.2,2.6,11.4,2.5,17.4,2.4l1.5,0c2.7-0.1,5.4,0.1,8,0.5
	L700.3,516.6z M726.6,552.2c1.8,3.3,3.9,6.5,6.3,9.3h-15.1c-0.1-0.5-0.2-1.1-0.3-1.6c-0.7-4.3-2.7-8.2-5.7-11.3
	c2.4-0.9,5-0.7,7.2,0.6c0.2,0.1,0.5,0.1,0.7-0.2c0.1-0.1,0.1-0.2,0.1-0.3c-0.3-2.5-1.8-4.7-4-6c1.6-0.1,3.2-0.3,4.7-0.7
	c4.5,2.4,8.6,5.5,12.1,9.2l-5.6,0.2c-0.3,0-0.5,0.2-0.5,0.5C726.5,552,726.6,552.1,726.6,552.2L726.6,552.2z M520.2,558
	c-0.1-0.1-0.3-0.1-0.4-0.1c-3.8,1.1-7.6,2.3-11.4,3.6h-43.3l4.4-18.1c0.4-1.6,0.9-3.7,0.2-5.5l0,0c-0.8-2.3-3.1-3.7-5.2-4.7
	c-3.8-1.8-7.7-3.2-11.8-4.1c1.2-2.4,2.4-4.7,3.7-7c8.3,1.3,16.4,4.1,23.7,8.3c0.5,0.3,1,0.6,1.5,0.9c4.2,2.5,8.9,5.2,13.7,4.9
	l-6.8,4.9c-0.2,0.2-0.3,0.5-0.1,0.7c0.1,0.1,0.2,0.2,0.3,0.2c10.6,1,21.3,1,31.9-0.2l-6.1,6.7c-0.2,0.2-0.2,0.5,0,0.7
	c0.1,0.1,0.1,0.1,0.2,0.1c2.6,0.7,5.2,1,7.8,1c6.8,0,14.4-2,23.1-5.9c2.9-1.3,5.7-2.8,8.5-4.2c6.5-3.3,13.2-6.6,20.3-8.5
	c11.6-3.1,22.6-1.1,29.2,5.4c0.2,0.2,0.5,0.2,0.7,0c0.1-0.1,0.2-0.3,0.1-0.4c-0.4-3-1.3-5.9-2.5-8.7c2.2,3.6,4.3,7.2,6.3,11
	c-0.8,0.4-1.7,0.8-2.7,1.3c-1.4,0.6-2.9,0.9-4.5,0.9c-3.8,0.4-8.5,0.9-17,8.3c-0.6,0.5-1.1,1-1.6,1.5c-4.2,0.4-8.5,0.2-12.7-0.6
	c-0.2,0-0.4,0-0.5,0.2c-0.1,0.1-0.1,0.3-0.1,0.5l2.5,5.9l-13.1-0.8c-0.2,0-0.4,0.1-0.5,0.2c-1.2,2-2.7,3.8-4.4,5.4h-33.5l0.1-3.2
	C520.4,558.2,520.3,558.1,520.2,558L520.2,558z M575.9,478.9c7.1,0.1,14.1,0.7,21.1,1.7c-1.1,2.5-2.5,4.8-4.3,6.9
	c-1.6,1.9-3.4,3.6-5.4,5.1c-5.5-2.7-11.2-4.9-17.1-6.7c-2.9-2.4-5.9-4.6-9.1-6.7l0.8-0.1C566.6,478.8,571.2,478.7,575.9,478.9
	L575.9,478.9z M625.1,530.9c-5.7,1.1-8.8,3-12.3,5.1c-0.9,0.5-1.8,1.1-2.8,1.7c-2.9-5.3-5.9-10.5-9.2-15.6l7.8,0.4
	c0.2,0,0.4-0.1,0.5-0.4c0.1-0.2,0-0.5-0.3-0.6c-2.4-1.2-4.4-3.2-5.6-5.6c4.4-0.2,8.7-0.8,12.9-1.8c2.4,2,4.6,4,6.8,6
	c3.5,3.3,6.8,6.6,9.9,10C630.2,530.2,627.6,530.4,625.1,530.9L625.1,530.9z M431.2,527.8c1.3-3.9,3.9-7.3,7.3-9.7
	c0.2-0.2,0.3-0.5,0.1-0.7c-0.1-0.1-0.1-0.2-0.2-0.2c-1.4-0.5-2.7-0.8-4.1-1.1c0.9-1.4,1.8-2.8,2.7-4.2c4.3-0.9,8.7-1.3,13.1-1.3
	c2.9,1,5.7,2.4,8.4,3.9c-0.3,0.5-0.5,0.9-0.8,1.4c-5.7,0.6-11.2,2.1-16.5,4.4c-0.2,0.1-0.3,0.3-0.3,0.6c0.1,0.2,0.3,0.4,0.5,0.4
	c4.4-0.3,8.8-0.2,13.1,0.4c-1.2,2.3-2.4,4.6-3.5,6.9C444.4,527.3,437.8,527,431.2,527.8L431.2,527.8z M602.9,481.6
	c0.6,0.1,1.2,0.2,1.8,0.4l2.3,2.3c0.2,0.2,0.5,0.2,0.7,0c0.1-0.1,0.1-0.2,0.1-0.3l0.1-1.3c13.1,2.9,26,6.5,38.6,10.9
	c-7.4,4.2-15.4,7.3-23.7,9.1c-6,0.3-12.1,0.4-18.1,0.1c-4.4-3-9-5.7-13.7-8.2C596.1,491.3,600.2,486.8,602.9,481.6L602.9,481.6z
	 M459.9,515.6c0.1,0.1,0.2,0.1,0.3,0.2c-0.1,0-0.3,0-0.4,0L459.9,515.6z M660.1,479.6c-0.3,0.1-0.4,0.3-0.4,0.6c0,0.1,0,0.1,0.1,0.2
	c0.7,1,1.6,1.9,2.6,2.4c-5.5,2.4-11.2,4.2-17.1,5.2c-0.3,0-0.5,0.3-0.4,0.6c0,0.1,0.1,0.2,0.2,0.3c1.5,1.3,3.4,2.2,5.3,2.4
	c-0.5,0.3-1,0.6-1.5,0.9c-13.3-4.9-26.9-8.8-40.7-11.8l0.7-7.9c4.6-0.5,9.2-1.5,13.6-3.1c13.8,1.7,27.6,4,41.4,6.8
	c0.8,1.2,1.8,2.3,3,3.3C664.6,479.1,662.3,479.1,660.1,479.6L660.1,479.6z M603.3,468.1c-1.1,0.1-2.2-0.3-3-1
	c0.8,0.1,1.6,0.1,2.5,0.2C603,467.6,603.2,467.8,603.3,468.1L603.3,468.1z M577.8,490.9c2.5,1,4.9,2.1,7.4,3.3
	c-1.2,0.9-2.4,1.8-3.7,2.6c-2.3-2.5-4.7-4.9-7.2-7.2C575.6,490,576.7,490.4,577.8,490.9L577.8,490.9z M588.8,495.9
	c4.7,2.5,9.3,5.2,13.8,8.1c1.1,1.3,2.5,2.4,4.1,3l-12.5,0.7c-1.2,0-2.3,0-3.5,0c-2.4-3.2-5-6.3-7.7-9.4
	C585,497.8,586.9,496.9,588.8,495.9L588.8,495.9z M434.3,512.5c-0.7,1.1-1.4,2.2-2.1,3.3c-2.5-0.3-4.9-0.3-7.4,0
	C427.9,514.5,431,513.4,434.3,512.5z M689.1,498.1c-0.2-0.1-0.5,0-0.7,0.2c-0.1,0.2-0.1,0.4,0.1,0.6c3.5,3.3,6.4,7.3,8.5,11.7
	c-1.7,0-3.3-0.1-5-0.2c-8.9-4.4-19.4-9.1-30.9-13.7c0.4-0.1,0.8-0.3,1.2-0.4c10.5-3.5,21.7-4.8,32.7-4c1,2.7,2.4,5.3,4.1,7.6
	C695.7,500.5,692.2,499.8,689.1,498.1z M624.8,595.6c0.1-0.5,0.2-1,0.3-1.5c1.1-6.5,1.1-13.1,0-19.6c1.9,4.5,3.7,9,5.4,13.5
	c2.8,7.4,5.6,14.8,8.3,22.3c-3.3,1.7-7.1,1.6-10.3-0.2c-2-1.1-3.5-2.9-4.2-5C623.5,602.1,624.2,598.8,624.8,595.6z M632.1,587.7
	c-5.6-15.3-12.1-30.3-19.4-44.8c1.8-2.8,5-4.2,7.3-5.1c5.6-1.9,11.6-2.7,17.5-2.2c5.4,6.6,10.4,13.5,15,20.7
	c4.9,7.7,9.7,15.5,14.3,23.5c0.6,4.7,0.6,9.4,0,14.1c-1,7-4.8,14.6-10.1,15.5c-1.1,0.3-2.3-0.1-3-1.1c-0.8-1.2-0.9-3.3-0.9-5.1v-0.1
	c0-2.1-0.2-4.1-0.5-6.2c-0.2-1.8-1.3-2.7-2.4-2.7c-0.9,0-2,0.6-2.3,2.5c-0.4,3-1.4,5.9-3,8.5c-1.3,2-3.1,3.6-5.2,4.8
	C637.3,602.5,634.8,595,632.1,587.7L632.1,587.7z M677.4,595.6c-0.1-0.1-0.3-0.1-0.5-0.1c-0.2,0.1-0.3,0.2-0.3,0.3
	c-0.5,2.5-1.4,4.8-2.7,7c-0.1,0.1-0.1,0.2-0.2,0.3c-0.4-0.2-0.7-0.5-0.9-0.9c-0.4-0.9-0.7-1.8-0.8-2.7c-0.6-3.2-0.8-6.4-0.8-9.7
	c-0.1-4.5-0.2-9.2-1.9-14c-0.2-0.7-0.9-1.2-1.6-1.1c-0.9,0.3-1.4,1.3-1.2,2.3c0,0.3,0.1,0.6,0.1,0.9c-3.9-8-8.3-15.8-13.2-23.4
	c-4-6.5-8.5-12.7-13.2-18.7c3.5,0.4,6.9,0.9,10,1.5c4.1,0.8,8,2,11.9,3.5c0.9,0.5,1.8,1,2.9,1.6c3.6,2,7.6,4.2,9.4,6.1
	c4.7,4.8,8.5,10.5,10.9,16.8c2.6,11.6,0.3,25.1-5.5,33.7C679.4,597.8,678.5,596.5,677.4,595.6L677.4,595.6z M409.3,520.6
	c-0.7,1-1.5,2.1-2.5,3.2c-1.3-0.1-2.6-0.1-4,0C404.8,522.3,407,521.3,409.3,520.6z M410.8,466.3c0.5,1.4,1.1,2.8,1.7,4.1
	c-2.2-0.4-4.3-1.1-6.3-2.1C407.7,467.6,409.2,466.9,410.8,466.3z"/>
<path d="M580.9,473.2L580.9,473.2c-0.2,0.3-0.1,0.5,0.1,0.7c1.2,1,2.7,1.8,4.3,2.1c0.1,0,0.1,0,0.2,0c0.4,0.1,0.7,0.1,1.1,0.2
	c0.2,0,0.4-0.1,0.5-0.3l0,0l0.9,0.6c0.2,0.2,0.5,0.1,0.7-0.1c0.1-0.2,0.1-0.4,0-0.5c-1.1-1.8-2.7-3.3-4.4-4.4
	c-0.1-0.1-0.3-0.1-0.4-0.1c-0.1,0-0.2,0.1-0.3,0.3c-0.4,0.2-2.3-0.4-3.5-0.8c-0.3-0.1-0.5,0.1-0.6,0.3c-0.1,0.2,0,0.4,0.1,0.5
	C579.9,472.3,580.4,472.8,580.9,473.2z"/>
<path d="M550.8,469.3l1.8,0.3l-1.2,0.4c-0.3,0.1-0.4,0.4-0.3,0.6c0,0.1,0.1,0.2,0.2,0.3c0.8,0.5,1.8,0.8,2.8,0.8
	c0.4,0,0.8,0,1.2-0.1c0.3-0.1,0.4-0.3,0.4-0.6c0,0,0-0.1,0-0.1c0.7-0.1,1.2-0.8,1.1-1.5c0-0.4-0.2-0.7-0.6-0.9
	c-0.4-0.3-0.9-0.5-1.4-0.6c-0.2,0-0.4,0-0.5,0.1c-0.1,0-0.2,0-0.2,0l-3.1,0.4c-0.3,0-0.5,0.3-0.4,0.6
	C550.4,469.1,550.6,469.3,550.8,469.3L550.8,469.3z M554.4,468.1L554.4,468.1l-0.4,0.3L554.4,468.1z"/>
<path d="M575.8,484.5c0.3,0.1,0.5,0.1,0.6,0.3c-0.3,0-0.5,0.3-0.4,0.6c0,0.2,0.2,0.4,0.4,0.4c0.1,0,0.1,0,0.2,0
	c0.6,0.1,1.1,0.1,1.7,0.1c0.3,0,0.6,0,0.8,0c0.3,0,0.7-0.1,0.9-0.4c0.2-0.2,0.3-0.5,0.2-0.8c-0.1-0.4-0.5-0.8-0.9-1
	c0.4-0.2,0.7-0.6,0.9-1c0.1-0.1,0.1-0.3,0-0.4c-0.1-0.1-0.2-0.2-0.4-0.3c-1.2-0.2-2.5-0.6-3.6-1.2c-0.2-0.1-0.5,0-0.6,0.2
	c-0.2,0.3-0.2,0.7,0,0.9c0.1,0.1,0.2,0.2,0.3,0.2c0.3,0,0.5,0.1,0.7,0.3c-0.1,0.1-0.3,0.1-0.5,0.1l-0.1,0c-0.5-0.1-1,0-1.3,0.3
	c-0.1,0.1-0.2,0.3-0.2,0.5C574.6,483.9,575.1,484.3,575.8,484.5z"/>
<path d="M657.2,304.9c1.8-1.5,4-2.3,6.3-2.4l-5,7.2c-0.1,0.2-0.1,0.4,0,0.5c0.1,0.2,0.3,0.3,0.5,0.3l9.3-0.3
	c-0.9,2.6-2.9,4.8-5.4,5.9c-0.3,0.1-0.4,0.4-0.3,0.7c0.1,0.2,0.2,0.3,0.4,0.3c8.7,0.3,17.3,1.8,25.7,4.3c0,0,0.1,0,0.1,0
	c0.3,0,0.5-0.2,0.5-0.5c0-0.1-0.1-0.3-0.1-0.4l-10.5-10.6c-1.1-1.1-2.7-2.5-4.4-2.4l2.6-8.4c0.1-0.3-0.1-0.5-0.3-0.6
	c-2.8-0.9-5.8-1.1-8.7-0.6c-0.4-4.9,2.1-10.1,5-14.9c0.1-0.2,0.1-0.5-0.2-0.7c-0.2-0.1-0.4-0.1-0.6,0c-7.4,5.5-12.8,13.2-15.6,22
	c-0.1,0.3,0.1,0.5,0.3,0.6C656.9,305,657.1,305,657.2,304.9L657.2,304.9z"/>
<path d="M428.3,297.6c0.3,0,0.5-0.2,0.5-0.5c0-0.1,0-0.2-0.1-0.3l-4.6-5.6l14,0.6c0.2,0,0.4-0.1,0.5-0.3c0.1-0.2,0.1-0.4,0-0.5
	l-3.3-5.1l8.6,1.7c0.2,0,0.5-0.1,0.6-0.3c3.5-8.1,0-18.7-7.7-23.1c-0.2-0.1-0.5-0.1-0.7,0.2c-0.1,0.1-0.1,0.3,0,0.4
	c1.9,4.5,2.7,9.4,2.4,14.3c-3.6-0.5-7.1-1.5-10.5-2.9c-0.3-0.1-0.5,0-0.7,0.3c-0.1,0.2,0,0.5,0.2,0.6c2,1,3.4,2.7,3.9,4.9
	c-4.5,0.6-8.8,1.6-13.1,3.2c-0.3,0.1-0.4,0.4-0.3,0.6c0.1,0.2,0.2,0.3,0.4,0.3c1.1,0.1,2.2,0.5,3,1.2c-3.1,1.5-6.3,2.8-9.5,3.9
	c-1.8,0.7-3.5,1.3-5.2,2c-0.3,0.1-0.4,0.4-0.3,0.7c0.1,0.2,0.3,0.4,0.6,0.3c7.2-1.4,14.6-0.2,21,3.5
	C428.1,297.6,428.2,297.6,428.3,297.6z"/>
<path d="M541.8,357.4c0.3,0,0.5-0.1,0.6-0.4l5.2-27.8c0.2-1.1,0.5-2.1,1.3-2.5c0.4-0.1,0.9-0.2,1.3-0.1c0.3,0,0.6,0,0.9,0
	c2.7-0.2,4.2-3,4.8-5.6c0.1-0.5,0.2-1,0.3-1.5c0.2-1.5,0.6-3,1.3-4.3l1.8,6.3c0.1,0.2,0.3,0.4,0.5,0.4h0c0.2,0,0.4-0.1,0.5-0.3
	c2.2-6.7,5.2-13.1,8.8-19.1c0-0.1,0.1-0.2,0.1-0.3c0.1-6-0.9-10.5-3-14.3c-0.1-0.2-0.4-0.3-0.7-0.2c-0.1,0.1-0.2,0.2-0.3,0.4
	c-0.3,7.1-2.4,14.1-6,20.2c-0.9-0.8-1.5-1.9-1.8-3.1c0-0.2-0.2-0.4-0.4-0.4c-0.2,0-0.4,0.1-0.5,0.2l-4.4,7.8c-0.4-0.5-0.9-0.8-1.5-1
	c-1.4-0.4-2.8,0-3.8,1c-1.5,1.5-1.8,3.7-2,6l-3.2,38C541.4,357.1,541.6,357.3,541.8,357.4z"/>
<path d="M507.9,321.7c0.1,0.3,0.3,0.4,0.6,0.4c0.1,0,0.2-0.1,0.2-0.1l3-2.9c3.1,9.9,4.5,20.3,4,30.7c0,0.3,0.2,0.5,0.5,0.5
	c0.2,0,0.4-0.1,0.5-0.3c3.2-8.1,3.3-17.1,3-23.2c-0.1-3.1-0.4-6.3-0.6-9.3c-0.3-4.6-0.7-9.3-0.7-13.9c0-0.3-0.2-0.5-0.5-0.5
	c-0.2,0-0.4,0.1-0.5,0.3l-5.1,10.4c-0.3-3.4-1-6.8-2.2-10c-0.1-0.3-0.4-0.4-0.6-0.3c-0.2,0.1-0.3,0.2-0.3,0.4
	c-0.8,3.5-1.3,7.1-1.4,10.6l0-0.1c-1.4-2.7-1.4-2.7-1.9-2.5c-0.1,0-0.4,0.2-0.3,0.7L507.9,321.7z"/>
<path d="M511.7,359.5l-0.4-0.8c-0.1-0.2-0.4-0.3-0.7-0.2c-0.2,0.1-0.3,0.3-0.3,0.6c1.9,7.4,2.9,15,2.8,22.6c0,0.3,0.2,0.5,0.5,0.5
	c0.2,0,0.4-0.1,0.5-0.3l3.4-7.8l3.9,9.3c0.1,0.3,0.4,0.4,0.7,0.3c0.1-0.1,0.2-0.2,0.3-0.3l1.6-5.5c1.3,5.9,3.7,11.5,6.9,16.7
	c0.1,0.1,0.3,0.2,0.4,0.2c0,0,0.1,0,0.1,0c0.2,0,0.4-0.2,0.4-0.4l5.4-25.2c0.1-0.3-0.1-0.5-0.4-0.6c-0.2,0-0.3,0-0.5,0.1
	c-2.4,2.4-4.4,5.2-6,8.2c-0.1-3.1-0.6-6.1-1.6-9c-0.3-1.1-1-2.5-2.4-2.9c-1.7-0.4-3,1.2-3.6,2.8c-0.1,0.2-0.2,0.5-0.3,0.7
	c-0.2,1-0.7,1.9-1.4,2.6C516.7,369.3,513.9,363.9,511.7,359.5z"/>
</svg>
