<?xml version="1.0" encoding="utf-8"?>
<!-- Generator: Adobe Illustrator 24.2.3, SVG Export Plug-In . SVG Version: 6.00 Build 0)  -->
<svg version="1.1" id="bb6d2e37-9e94-408b-980b-07d7ce41d601"
	 xmlns="http://www.w3.org/2000/svg" xmlns:xlink="http://www.w3.org/1999/xlink" x="0px" y="0px" viewBox="0 0 650 400"
	 style="enable-background:new 0 0 650 400; fill: #215342;" xml:space="preserve" height="200" width="250" transform="translate(-25, -4)">
<path d="M628.9,410.3C628.9,410.3,628.8,410.3,628.9,410.3l-88.8,0c-0.9-5.3-2.9-10.4-5.5-13.6c-3.2-3.9-7.5-6.8-12.3-8.4
	c-2.5-1.3-5.2-2.2-8-2.8c-6.3-1.3-13.5-2.7-20.5-1.4c-1,0.2-1.9,0.4-2.9,0.7c-4.9-9.5-10.7-18.6-17.3-27l10,2.1
	c0.2,0,0.4-0.1,0.5-0.3c0.1-0.2,0.1-0.4-0.1-0.6l-15.9-15.7c0.5,0,0.9,0,1.4,0c0.2,0,0.5,0,0.7,0c0.3,0,0.5-0.2,0.5-0.5
	c0-0.1-0.1-0.3-0.2-0.4c-3.6-2.9-6.5-6.6-8.5-10.8c-0.2-0.4-0.4-0.8-0.5-1.2l3.2,3.3c0.1,0.1,0.2,0.2,0.4,0.2c0.1,0,0.1,0,0.2,0
	c0.2-0.1,0.3-0.2,0.3-0.4l1.4-9.5c1.1,2.3,2.8,4.2,4.9,5.6c0.2,0.2,0.5,0.1,0.7-0.1c0.1-0.1,0.1-0.3,0.1-0.4
	c-2.2-7.6,0.2-15.8,2.3-22.6c1.5,2,1.9,4.6,1.2,6.9c-0.1,0.3,0.1,0.5,0.3,0.6c0.2,0.1,0.5,0,0.6-0.2c2.1-3.9,3.2-8.2,3.1-12.7
	c1,0.7,2.2,1.2,3.4,1.4c0.2,0,0.4-0.1,0.5-0.3c0.1-0.2,0.1-0.4-0.1-0.6c-1.5-1.8-2.2-4.2-1.8-6.5l1.5,1.4c0.1,0.1,0.3,0.2,0.5,0.1
	c0.2-0.1,0.3-0.2,0.3-0.4c0.8-6.1,2.3-12.2,4.5-18l0.6,5.1c0,0.3,0.3,0.5,0.6,0.4c0.2,0,0.3-0.1,0.4-0.2c2.2-3.6,3.3-7.8,3.1-12.1
	l3.1,2.9c0.2,0.2,0.5,0.2,0.7,0c0.1-0.1,0.2-0.3,0.1-0.5c-1.5-4-1.9-8.3-1.1-12.5c1.5,0.3,2.9,1.1,3.8,2.3c0.2,0.2,0.5,0.3,0.7,0.1
	c0.1-0.1,0.2-0.3,0.2-0.4c-0.4-8.6,2-17,6.7-24.2c1.7,1.3,2.6,3.3,2.6,5.4c0,0.3,0.2,0.5,0.5,0.5c0.3,0,0.5-0.2,0.5-0.5
	c0.6-8.2,1.3-18,5.3-26.4c2.3-3.2,4.2-6.7,5.6-10.4c0.7-1.8,1.2-3.6,1.8-5.4c2.4,1.9,4.5,3.7,6.2,5.2c1.3,1.2,2.8,2.7,3.8,3.9
	c-0.9-1.2-1.8-2.3-2.8-3.4c-2.2-2.3-4.5-4.6-6.9-6.7c0.3-1.1,0.6-2.2,0.9-3.3c3.8,1.5,7.4,3.1,11,4.9c1.4,0.7,3.1,1.7,4.3,2.4
	c-1.3-0.9-2.6-1.8-4-2.6c-3.6-2.2-7.3-4.1-11.1-5.9c0.3-1,0.5-2.1,0.7-3.1c0.3-1.4,0.7-2.9,1.1-4.3c0.3,0.2,0.6,0.4,0.8,0.6
	c1.2,1,2.4,2,3.5,3.1c-1-1.2-2.1-2.3-3.2-3.3c-0.3-0.3-0.7-0.6-1-0.9c0.6-2.2,1.2-4.4,1.9-6.5c0.5-1.6,1.2-3.3,1.8-4.9
	c1.9,1.7,3.8,3.5,5.5,5.5c3.2,3.5,6.1,7.2,8.8,11.1c0.2,0.2,0.3,0.4,0.4,0.6c-2.1-3.7-4.5-7.3-7.1-10.7c-2.1-2.8-4.4-5.4-7-7.9
	c0.6-1.4,1.2-2.8,1.8-4.2c1-2.4,2-4.8,3-7.3c0.5-1.4,1.1-3,1.6-4.7c1.3,0.2,2.7,0.3,4,0.5c2.1,0.3,4.5,0.7,6.4,1.1
	c-1.4-0.4-2.8-0.8-4.2-1.1c-2-0.5-3.9-0.9-5.9-1.3c1.4-4.4,2-8.9,1.8-13.5c-0.2-2.8-0.8-5.5-1.8-8.1c-0.6-4-2.8-7.7-6.1-10.1
	c-5.5-3.9-10-3.4-16.8-1.1c-6.3,2.1-11.8,6.2-17.3,10.5c-16.1,12.6-31.6,26.3-46.6,39.6l0.5-5c0-0.3-0.2-0.5-0.4-0.5
	c-0.1,0-0.3,0-0.4,0.1c-0.7,0.6-1.3,1.2-1.9,1.9c-2.8,1.2-5.8,1.8-8.9,1.6l0.4-1.7c0.1-0.3-0.1-0.5-0.4-0.6c0,0,0,0-0.1,0l-10.6-1.1
	c-5.4-1.8-11.4-2-17.2-1.9c-0.9,0-1.9,0-2.8,0.1c-6.2,0.1-12.6,0.3-18.5-1.4c-0.3-0.1-0.5,0.1-0.6,0.3c0,0.2,0,0.3,0.1,0.4l1.2,1.6
	c-3.7-1-7.2-2.7-10.2-5.2c-12.4-13.6-23.6-28.3-33.3-44c-0.4-0.7-0.9-1.4-1.3-2.1c-3.2-5.3-6.6-10.7-11-15.2
	c-2.6-2.7-7.3-6.6-13-7.8c-1.1-0.5-2.3-0.8-3.6-0.9c-5.6-0.5-11.6,2.4-15.7,7.6c-3.2,4-5.3,9.2-6.7,16.4c-1,5-1.5,10.1-1.7,15.3
	c-0.9-0.1-1.7-0.1-2.4-0.2c0.8,0.1,1.6,0.3,2.4,0.5c-0.2,5.2-0.1,10.3,0,15.4c-6.2,0.2-12.5,0.7-18.7,1.5c-2.5,0.3-5.1,0.7-7.6,1.1
	c2.9-0.2,5.9-0.4,8.8-0.5c5.5-0.2,11.4-0.4,17.5-0.5c0.1,2.4,0.2,4.7,0.3,7c0.1,1.2,0.1,2.4,0.2,3.6c-0.8,0.1-1.7,0.1-2.5,0.2
	c0.8,0,1.7,0,2.5,0.1c1.2,25.1,2.7,50.8,11.2,74.9c1.4,3.9,3,7.9,4.5,11.7c4.4,10.8,8.9,22,9.1,33.7l-4.3,2
	c-0.3,0.1-0.4,0.4-0.2,0.7c0,0.1,0.1,0.1,0.1,0.1l9.6,9.8c-2.3,0.7-3.8,2.7-3.8,5.1c0,0.1,0.1,0.3,0.2,0.4
	c5.8,4.9,9.5,11.9,10.4,19.5c0.3,3,0.5,5.4,0.5,7.4c0,0.2,0.2,0.4,0.4,0.5c0,0,0.1,0,0.1,0c0.2,0,0.4-0.1,0.5-0.3
	c1.3-3.3,2.9-6.4,4.8-9.3c3.3-5,7.3-9.5,12-13.2c0.1-0.1,0.2-0.3,0.2-0.5c-0.9-4-0.8-8.1,0.1-12.1c1.3-3,3.1-5.8,5.5-8.1
	c1.1-0.2,2.2-0.4,3.3-0.7c-1.2,1.5-2.1,3.2-2.9,4.9c-1.4,3-1.7,6.4-0.9,9.7l-0.2-0.1c-0.2-0.2-0.5-0.1-0.7,0.1
	c-0.1,0.1-0.1,0.2-0.1,0.3c0.1,0.8,0.2,1.6,0.4,2.4c0.1,0.3,0.3,0.4,0.6,0.4c0.1,0,0.1,0,0.2-0.1c5.8-3.7,12.2-6.2,18.9-7.5
	c0,0,0.1,0,0.1,0c0,0,0,0,0,0c0.1,0.1,0.2,0.2,0.2,0.3c0,0.1,0,0.1-0.1,0.1c0,0,0,0,0,0c-4.1,0.8-8.2,2.2-12,3.9
	c-2.5,1.1-4.8,2.5-7.1,4c-0.2,0.1-0.3,0.4-0.2,0.6c0.2,0.6,0.4,1.2,0.7,1.7c0,0-0.1,0-0.1,0.1c-0.2,0.1-0.3,0.3-0.2,0.5
	c0.3,1.3,0.8,2.5,1.4,3.6c0.1,0.2,0.4,0.3,0.7,0.2c0,0,0,0,0,0c5.5-4,11.4-7.6,17.6-10.5c0.1-0.1,0.3,0,0.3,0.1c0,0,0,0,0,0
	c0.1,0.1,0,0.1-0.1,0.2c-2.2,1.1-4.5,2.3-6.7,3.5c-0.1,0.1-0.2,0.2-0.2,0.3c0,0.1,0,0.3,0.1,0.4c0,0.1,0.1,0.2,0,0.3
	c0,0.1,0,0.1,0,0.2c0,0.1,0,0.2,0,0.2c0,0.1-0.1,0.2-0.2,0.3c-0.1,0.1-0.2,0.3-0.2,0.5c0,0.2-0.1,0.4-0.3,0.5l-0.3,0.1
	c-0.6,0.1-1.1,0.3-1.6,0.5l-0.2,0.1c-0.1,0.1-0.3,0.1-0.4,0.1c-0.1,0-0.2-0.1-0.3-0.2c0,0,0-0.1,0-0.1c0-0.3-0.3-0.5-0.6-0.4
	c-0.1,0-0.1,0-0.2,0.1c-2.1,1.4-4.3,2.9-6.4,4.4c-0.1,0.1-0.2,0.3-0.2,0.4l0,0c-0.1,0-0.3,0-0.4,0.1c-0.3,0.2-0.6,0.5-0.9,0.7
	c-0.2,0.2-0.3,0.4-0.1,0.7c0.8,1.4,1.8,2.7,2.9,3.9c0.2,0.2,0.5,0.2,0.7,0.1c4.3-3.1,9-5.6,13.9-7.6c0.3-0.1,0.4-0.4,0.3-0.7
	c0-0.1-0.1-0.2-0.2-0.3c-0.1-0.1-0.3-0.1-0.4,0c-0.1,0-0.2,0-0.3,0c0,0-0.1,0-0.1,0l-0.1-0.1c-0.2-0.2-0.3-0.5-0.3-0.7
	c0-0.2,0-0.4,0.1-0.6c0.2-0.3,0.5-0.6,0.9-0.6l0.1,0c0.1,0,0.2,0,0.3,0l0.2-0.1c0.2-0.1,0.4-0.2,0.7-0.2c0.2-0.1,0.4-0.2,0.6-0.3
	c0.1-0.1,0.3-0.1,0.5-0.1c0.1,0,0.3,0.1,0.3,0.3c0.1,0.1,0.1,0.3,0,0.4c0,0.1-0.1,0.2-0.1,0.2c0,0-0.1,0.1-0.1,0.2
	c0,0.1-0.1,0.2-0.2,0.3c-0.3,0.1-0.5,0.3-0.8,0.4l-0.3,0.2c0,0-0.1,0-0.1,0.1c-0.1,0.1-0.2,0.1-0.2,0.2c0,0.1-0.1,0.1-0.1,0.2
	c-0.2,0.2-0.1,0.5,0.1,0.7c0.1,0.1,0.3,0.1,0.5,0.1c3-1.2,6.1-2.2,9.3-2.9c0.1,0,0.3,0,0.3,0.1c0.1,0.1,0.1,0.2,0,0.3
	c-0.2,0.2-0.2,0.5,0,0.7c0.1,0.1,0.2,0.1,0.2,0.1c0.2,0,0.4,0.2,0.5,0.4c0,0,0,0,0,0.1c0,0.1,0.1,0.2,0.2,0.3c0,0.1,0.1,0.2,0.1,0.3
	c0,0,0,0,0,0l0,0.3c0,0,0,0,0,0.1c0,0,0,0,0,0.1l-0.1,0.3c0,0.1-0.1,0.1-0.2,0.2c0,0-0.1,0.1-0.1,0.1c-0.1,0-0.2,0.1-0.2,0.1
	c-0.1,0-0.2,0-0.3,0c-0.1,0-0.2,0-0.3,0c-0.1,0-0.2-0.1-0.3-0.1c-0.1-0.1-0.2-0.1-0.2-0.2c-0.1-0.1-0.1-0.1-0.2-0.2
	c0-0.1-0.1-0.2-0.1-0.2c0-0.1,0-0.2,0-0.2l-0.5-0.1l0.5,0c0,0,0-0.1,0-0.1c0-0.1,0-0.1,0-0.2l0-0.3c0-0.1,0-0.1,0.1-0.2
	c0.2-0.2,0.2-0.5-0.1-0.7c-0.1-0.1-0.3-0.1-0.4-0.1c-6,1.6-11.8,4-17.2,7.1c-1.8,1-3.6,2.2-5.3,3.4c-0.2,0.2-0.3,0.5-0.1,0.7
	c0,0,0,0,0.1,0.1c0.9,0.9,1.8,1.7,2.8,2.4c-0.5,0-1-0.1-1.5-0.2c-0.5-0.3-0.9-0.5-1.4-0.7c-0.3-0.1-0.5-0.2-0.8-0.4
	c-0.1-0.1-0.3-0.1-0.4-0.2l-0.2-0.1c-0.2-0.1-0.4-0.1-0.6,0c-0.5,0.4-1,0.8-1.5,1.2h0l0,0c-0.6,0.5-1.2,1-1.7,1.5
	c-0.2,0.2-0.4,0.3-0.6,0.5h0c0,0-0.1,0.1-0.1,0.1c-0.4,0.3-0.7,0.6-1.1,1c0,0,0,0,0,0.1c-4.8,4.5-8.9,9.8-12.2,15.6
	c-0.6,1-1.1,2-1.6,3.1l0,0c-0.5,1.1-1.1,2.3-1.5,3.4c-0.1,0.2-0.2,0.4-0.3,0.7c-0.7,1.7-1.3,3.4-1.9,5.1c-0.1,0.2-0.2,0.5-0.2,0.7
	c-0.2,0.5-0.3,1-0.5,1.6c-0.1,0.4-0.2,0.8-0.3,1.1c-0.2,0.7-0.4,1.4-0.5,2c-0.1,0.5-0.2,1.1-0.4,1.6c-0.1,0.3-0.1,0.7-0.2,1
	c-0.2,0.9-0.3,1.7-0.5,2.6c-0.7,4.2-1,8.4-0.9,12.6c0,0.1,0,0.2-0.2,0.2c-0.2,0-0.3-0.1-0.3-0.2c0,0,0,0,0,0
	c-0.2-3.5,0-7.1,0.4-10.6c0,0,0,0,0,0c0.4-3.6,1.1-7.1,2.1-10.5c0.9-3.1,2-6.2,3.3-9.2c0,0,0,0,0,0c3.4-7.8,8.2-14.8,14.3-20.7
	c0.1-0.1,0.3-0.3,0.4-0.4c0.3-0.3,0.5-0.5,0.8-0.8l0.2-0.2c0.4-0.4,0.8-0.7,1.2-1.1c0.3-0.3,0.6-0.5,0.9-0.8
	c0.2-0.2,0.4-0.3,0.6-0.5c0.5-0.4,0.9-0.8,1.4-1.1c0.2-0.2,0.3-0.5,0.1-0.7c0,0-0.1-0.1-0.1-0.1c-1-0.8-1.9-1.6-2.7-2.5l-0.7-0.7
	c-0.2-0.2-0.5-0.2-0.7,0c-0.1,0.1-0.2,0.2-0.3,0.3c0,0,0,0,0,0c-0.2,0.1-0.3,0.3-0.5,0.4c-0.5,0.4-0.9,0.8-1.4,1.1c0,0,0,0-0.1,0.1
	c-0.7,0.6-1.5,1.3-2.2,2c0,0-0.1,0-0.1,0c-0.7,0.6-1.4,1.3-2.1,1.9c0,0-0.1,0.1-0.1,0.1c-0.9,0.8-1.7,1.7-2.6,2.6
	c-0.2,0.2-0.5,0.5-0.7,0.7c-0.9,0.9-1.8,1.8-2.6,2.8c0,0,0,0-0.1,0.1h0c0,0,0,0,0,0c0,0,0,0,0,0c0,0,0,0-0.1,0l0,0
	c0,0-0.1-0.1-0.1-0.1c-0.1-0.1,0-0.2,0-0.3c3.8-4.4,8-8.5,12.4-12.1c0,0,0.1-0.1,0.1-0.1c0,0,0,0,0-0.1c0,0,0-0.1,0-0.1c0,0,0,0,0,0
	c0,0,0,0,0,0c0,0,0-0.1,0-0.1c0,0,0-0.1,0-0.1c0,0,0,0,0,0c-0.9-1.8-1.7-3.6-2.2-5.6c-0.1-0.3-0.4-0.4-0.6-0.3
	c-0.1,0-0.1,0.1-0.2,0.1c-0.4,0.4-0.8,0.8-1.3,1.1c-0.1,0-0.1,0.1-0.2,0.1c-0.1,0.1-0.3,0.3-0.4,0.4l-0.3,0.2c0,0,0,0,0,0.1
	c-6.5,6-11.6,13.5-14.7,21.8c0,0.1-0.2,0.2-0.3,0.2c-0.3,0-0.5,0.2-0.5,0.5c-0.1,1.4-0.4,2.9-0.9,4.2c-1,1.3-2,2.7-2.9,4.1
	c-0.1,0.1-0.1,0.1-0.2,0.2c-0.1,0.1-0.2,0.2-0.2,0.4c-1.4,2.1-2.8,4.2-4.1,6.3c-0.1,0.2-0.1,0.5,0.2,0.7c0.1,0.1,0.2,0.1,0.3,0.1
	l2.8-0.4c-1.1,2.9-2.9,5.4-5.3,7.4c-0.2,0.2-0.2,0.5,0,0.7c0.1,0.1,0.1,0.1,0.2,0.1l4.1,1.2c-0.8,1.3-1.5,2.6-2.3,3.9
	c-3.4,5.2-6.7,10.9-8.2,17.1c-0.3,0.8-0.6,1.5-0.9,2.3c-6.4-0.8-12.9,0.4-18.6,1.6c-2.8,0.6-5.4,1.5-8,2.8
	c-4.8,1.6-9.1,4.5-12.3,8.4c-3.4,4.2-5.7,11.6-6,18.5c-0.1,0-0.1,0-0.2,0h-89.7c-0.3,0-0.5,0.2-0.5,0.5v20c0,0.3,0.2,0.5,0.5,0.5
	H279c2.1,1.1,4.4,1.9,6.8,2.4c4.6,1.1,9.2,1.9,13.9,2.4c0.2,0.3,0.4,0.6,0.7,0.8c1.1,1.1,2.5,1.7,4.1,1.6c0.3,0,0.6,0,1-0.1
	c1.3-0.2,2.5-0.8,3.5-1.6c2.1,0.1,4.3,0.2,6.4,0.2c2.8,0,5.6-0.1,8.4-0.2c5.1-0.3,10-0.8,14.3-3.9c0.6-0.5,1.2-1,1.8-1.6H467
	c0.5,0.4,1.1,0.8,1.6,1.1c1.1,2.1,2.6,3.9,4.5,5.4c4.3,3.1,9.2,3.6,14.4,3.9c2.8,0.2,5.7,0.2,8.5,0.2c2.2,0,4.3-0.1,6.4-0.2
	c1,0.8,2.2,1.4,3.5,1.6c0.3,0.1,0.6,0.1,1,0.1c1.5,0,3-0.6,4.1-1.6c0.2-0.2,0.5-0.5,0.7-0.8c4.7-0.5,9.4-1.4,14-2.4l0,0
	c0.2,0.2,0.4,0.4,0.6,0.6c0.7,0.5,1.5,0.9,2.4,0.9c0.3,0,0.6,0,0.8-0.1c1-0.3,1.8-0.9,2.4-1.7c0.7-0.8,1.2-1.7,1.5-2.6
	c0.8-0.5,1.5-1.1,2.2-1.7c0.8-0.8,1.5-1.7,2-2.7h91.2c0.3,0,0.5-0.2,0.5-0.5v-20C629.3,410.6,629.1,410.4,628.9,410.3z M483.6,273.8
	L483.6,273.8c-5.7,3.2-11.7,6-17.7,8.4c-3.2,1.4-6.5,2.3-9.9,2.8c-2.9,0.4-5.9,0-8.6-1.2l0.1,0c5.2-0.1,10.4-1.1,15.3-3.1
	c0.3-0.1,0.4-0.4,0.3-0.7c-0.1-0.2-0.2-0.3-0.4-0.3l-1.8-0.3c6.6-2,13.9-4.6,20.1-8.9c2.5-1.7,4.8-3.8,6.8-6.1
	C486.7,267.7,485.3,270.9,483.6,273.8z M419.7,277.1c0-0.1,0-0.2-0.1-0.2c-0.9-2.4-1.5-4.9-1.8-7.5c0.4,0.5,0.9,0.9,1.5,1.3
	c7.1,4.3,7.5,6.2,7.9,8.3l0,0.2c0,0,0,0.1,0,0.1c0.2,1.9,0.7,3.7,1.5,5.3C425.2,282.8,422.1,280.2,419.7,277.1L419.7,277.1z
	 M425.2,250.6c-0.2,0.3-0.3,0.6-0.4,1c-0.1,0.3-0.1,0.5-0.1,0.8c-0.6,2.4-0.7,4.8-0.3,7.2l0.1,0.6c0.2,0.7,0.2,1.4,0.2,2.1
	c0,0.8-0.4,1.5-1,2c-0.3,0.1-0.6,0.2-0.9,0.2c-0.8-0.8-1.6-1.6-2.3-2.4c-0.3-1.2-0.5-2.4-0.6-3.7c0.1-4.1,0.8-8.2,2.1-12.1
	c0.4-0.7,0.9-1.4,1.3-2.1c1.2-1.1,2.4-2.2,3.7-3.1l0,0c0.4-0.3,0.7-0.5,1.1-0.8c0.8-0.5,1.8-0.5,2.7-0.2c0.5,0.4,0.8,1,0.7,1.6
	C428.7,244,426.5,247.1,425.2,250.6z M431.8,248.9c2.4-2.9,5.6-5,9.2-6c-1.3,1.7-2,3.8-2,6c0.1,3.1,1.7,5.9,4.3,7.6
	c0.3,0.2,0.7,0.4,1.1,0.4c0,0,0.1,0,0.1,0c0.4-0.1,0.9-0.3,1.2-0.6c2.3-1.9,3.7-4.6,4-7.5c0-0.1,0-0.3-0.1-0.4
	c-0.1-0.1-0.2-0.2-0.4-0.1c-2,0.1-3.9,0.5-5.8,1.1c-0.1-0.3-0.2-0.6-0.3-0.9c-0.2-0.4-0.3-0.7-0.4-1.1c-0.2-0.7-0.1-1.6,0.4-2.2
	c0.6-0.6,1.4-1,2.3-1.1c1-0.1,1.9-0.1,2.9,0c0.2,0,0.3-0.1,0.4-0.2c0.1-0.1,0.1-0.3,0-0.5c-0.1-0.3-0.3-0.6-0.5-0.9
	c0.5,0.1,1,0.1,1.6,0.3c2.9,0.6,5.5,2.1,7.4,4.5c1.5,2.2,2.2,4.8,2,7.4l0,0c-0.1,1.4-0.4,2.8-0.9,4.1c-0.4,0.6-0.7,1.1-1.2,1.7
	c-2.1,2.7-5,4.7-8.3,5.6c-2.9,0.7-6,0.7-8.9,0.2c-2.1-0.5-4-1.4-5.8-2.6c-1.4-1-2.6-2.2-3.6-3.6c-0.7-1.4-1.1-2.9-1.2-4.4
	C429.3,253.1,430.2,250.7,431.8,248.9z M465.2,231.2c5,2.6,7.9,7.2,10.6,11.9c-3.3-3.2-7.2-5.8-11.4-7.8l0,0c-0.3-0.1-0.5,0-0.7,0.3
	c-0.1,0.1-0.1,0.3,0,0.5c0.3,0.4,0.6,1.1,0.9,1.7l0.2,0.3c-3.7-2-7.6-3.5-11.7-4.4c-0.3,0-0.5,0.1-0.6,0.4c0,0.2,0,0.4,0.2,0.5
	c0.4,0.4,0.8,0.9,1,1.5c0.1,0.2,0.3,0.5,0.4,0.7c-7.3-0.9-14.1,0.6-19.4,4.1c0,0-0.1,0-0.1,0c0,0,0-0.1,0-0.1
	c0.9-2.2,2.1-4.3,3.6-6.1c2.8-2.6,6.1-4.6,9.8-5.7c6.6-2.1,13.6-2.1,20.1,0.2c0.6,0.4,1.2,0.8,1.8,1.2c-0.5,0-1,0-1.5,0
	c-1.1,0-2.3,0-3,0c-0.3,0-0.5,0.2-0.5,0.5C464.9,230.9,465,231.1,465.2,231.2z M470.8,257.7c0.1,0.2,0.2,0.3,0.4,0.3l5.4,0.2
	c-5.5,5-11.8,8.9-18.7,11.5c-0.1,0-0.2,0-0.2,0.1c1.6-1.2,3-2.7,4.3-4.3c2.3-2.8,3.5-6.2,3.4-9.8c0.2-0.8,0.4-1.7,0.5-2.6
	c0.1-1.3,0.2-2.5,0.1-3.8c3.1,2.6,6.8,4.4,10.8,5.3c-1.9,0.7-3.8,1.5-5.6,2.4C470.7,257.2,470.6,257.5,470.8,257.7z M435.3,267.7
	c0.3-0.5,1.2-0.3,1.9-0.1c0.7,0.3,1.4,0.3,2.1,0.2c1.8,0.5,3.7,0.8,5.6,0.8c0.7,0,1.5,0,2.2-0.1c3.8-0.5,7.3-2.2,9.9-4.9
	c1.4-1.6,2.6-3.3,3.6-5.2l1.1-1.4c0.3,1.6,0.2,3.2-0.5,4.7c-0.1,0.2-0.2,0.4-0.3,0.6c-0.1,0.2-0.2,0.3-0.3,0.4c0,0,0,0,0,0
	c-0.2,0.3-0.3,0.6-0.5,0.8c-1.8,2.4-4.1,4.3-6.9,5.5c-2.8,1.2-5.7,1.9-8.7,2.1c-3.7,0.3-6.4-0.2-8.3-1.6c-0.4-0.2-0.7-0.5-0.9-0.9
	C435.2,268.3,435.2,267.9,435.3,267.7z M519.1,196.8c0,0.1-0.1,0.2-0.1,0.2c-1.1-0.8-2.2-1.7-3.4-2.4c1.3,0.4,2.6,0.9,3.8,1.3
	L519.1,196.8z M466.8,186.7c3.5-8.4,10.1-15.3,18.4-19.1c0.2-0.1,0.3-0.3,0.3-0.6c-0.1-0.2-0.3-0.4-0.5-0.4l-8.3,0.9
	c4.8-3.9,10.3-6.9,16.2-8.8c0.3-0.1,0.4-0.4,0.3-0.6c-0.1-0.2-0.3-0.4-0.5-0.3c-1.7,0.2-4.3,0.6-6.7,1c-1.8,0.3-3.6,0.6-5.2,0.8
	c0.7-0.6,1.4-1.3,2.1-1.9c5.7-5.3,11.6-10.9,18.5-16.1c0.7-0.6,1.5-1.1,2.2-1.7c6.9-5.4,14.1-11,21.9-10.2c4.4,1,7,3.2,8.5,5.8
	c1.2,3.8,1.7,7.9,1.2,11.9c-0.4,3.8-1.2,7.5-2.4,11.1c-7.4-1.1-14.9-1.2-22.4-0.3c-8,1-16.2,3.2-22.9,7.7c6.9-3.6,15.3-4.7,22.3-5.6
	c7.5-0.9,15.1-1.1,22.6-0.7c-0.7,2-1.4,4-2.1,5.9l-2.6,7.3c-4.4-3.4-9.5-5.7-15-6.7c-6.1-0.9-12.2,0.4-18.1,1.7
	c5.5-0.7,11.1-1.4,16.7-0.5c5.8,1.1,11.2,3.5,15.9,7.1l-4.1,11.3c-12.7-8.6-29-10.9-43.3-4.5c3.3-2.5,7.1-4.1,11.2-4.7
	c0.3,0,0.5-0.2,0.5-0.5c0-0.3-0.2-0.5-0.5-0.5c-3.1-0.2-6.2,0.1-9.2,1c3.3-2,6.7-3.8,10.3-5.2c0.3-0.1,0.4-0.4,0.3-0.7
	c-0.1-0.2-0.3-0.3-0.5-0.3c-8.6,1.6-16.2,6.8-20.8,14.2c-0.1,0.2-0.1,0.5,0.2,0.7c0.2,0.1,0.4,0.1,0.5,0l1.1-0.6
	c-1.1,1.4-2,3-2.7,4.8c-0.1,0.3,0,0.5,0.3,0.6c0.1,0.1,0.3,0,0.5,0l2.3-1.5c-1.5,2.4-2.3,5.2-2.4,8.1c0,0.3,0.2,0.5,0.5,0.5
	c0,0,0,0,0,0c0.1,0,0.2,0,0.3-0.1c4-3.7,8.6-6.8,13.7-8.9c0.3-0.1,0.4-0.4,0.3-0.7c-0.1-0.1-0.2-0.2-0.3-0.3
	c-2.3-0.6-4.7-0.8-7.1-0.4c1.7-1.6,3.7-2.8,5.9-3.6c0.3-0.1,0.4-0.4,0.3-0.6c-0.1-0.2-0.3-0.4-0.5-0.3l-6,0.8c0.5-0.5,1-1,1.6-1.4
	c14.7-5,30.5-2.6,43.5,5l-2.9,8c-3.1-1.2-6.3-2.3-9.5-3.2c-3.5-2-7.1-3.6-10.9-4.9c-4.5-1.4-9.6-2.9-14.3-1.5
	c5.3-0.9,12.6,1.5,19.8,5.1c-6.4-1.2-12.5-1.4-17.3,0.4c4.8-1.5,13.5-0.1,22.4,2.5c2.9,1.7,5.7,3.5,8.4,5.4
	c-0.6,1.6-1.3,3.2-2.3,4.6c-1.1,1.7-2.8,2.8-4.8,3.2c-0.2,0-0.4,0-0.7,0.1c-0.3,0.1-0.4,0.3-0.4,0.6c0.1,0.2,0.3,0.4,0.5,0.4
	c0.2,0,0.4,0,0.5-0.1c0.7,0.1,1.4,0.7,1.6,1.4c0.3,1,0.3,2.1,0,3.1c-0.3,1.3-0.7,2.7-1.1,4c-4,1.9-7.5,4.6-10.3,7.9
	c-0.5,0.8-1.2,1.5-2,2.1c-0.8,0.6-1.6,1.4-2.2,2.3c-1.9,2.4-5.3,4.9-8.8,4.3c0.8-0.9,1.6-2.1,2.5-3.3c1.2-2,2.7-3.7,4.5-5.2
	c0.2-0.2,0.3-0.5,0.1-0.7c0-0.1-0.1-0.1-0.2-0.2c-4.4-2.3-6.3-2.1-10.5-0.3c0.6-2.8,2-6,4.3-7.5c0,0,0,0,0,0
	c1.2,0.2,2.5,0.8,3.7,1.3c1.6,0.8,3.3,1.3,5.1,1.5c0.2,0,0.4,0,0.6,0c3.3,0,6.3-1.9,7.7-4.9c0.4-0.7,0.5-1.6,0.2-2.4
	c-0.6-1.2-2.1-1.6-4.2-1.1l-7.8,1.8c-2.1,0.5-4.7,0.9-6-0.7c-1.1-1.3-0.7-3.2-0.5-4c0.2-0.6,0.4-1.3,0.7-1.9
	c0.3-0.8,0.6-1.7,0.8-2.6c0.5-2.4-0.2-4.9-2-6.7c-1.3-1.3-3.2-1.7-5-1.1c-0.3,0.1-0.4,0.4-0.3,0.6c0,0,0,0.1,0,0.1
	c2.4,4.5,2.4,10-0.2,14.4l-0.1,0.2c-0.7,1.2-1.6,2.6-0.9,4c0.6,1.1,1.8,1.7,3,1.6h0c0.6,0,1.2-0.1,1.8-0.2c0.1,0,0.3,0,0.4-0.1
	c-1.2,0.5-2.4,1-3.5,1.5c-2.3,1.2-4.8,2.1-7.3,2.7c2.3-3.8,1.7-6.6,0.8-11l0-0.2c0-0.2-0.2-0.4-0.5-0.4c-0.2,0-0.4,0.1-0.5,0.3
	c-1.5,4.1-5.7,7.7-9.6,10c0.4-2.4,0.6-4.8,0.5-7.2c0.2-1.3,0.4-2.5,0.5-3.7c0.9-2.7,2.2-5.3,3.7-7.7c0.2-0.2,0.1-0.5-0.1-0.7
	c-0.1-0.1-0.3-0.1-0.4-0.1c-0.9,0.2-1.7,0.6-2.5,1.2c0.1-1,0.1-2,0.2-3c0.1-1.2,0.2-2.4,0.2-3.7c0-0.2-0.1-0.4-0.2-0.5
	c-0.2-0.1-0.3-0.1-0.5,0c-2.4,1.3-4.6,3-6.4,5.1C462.6,193.8,464.5,190.2,466.8,186.7z M511.3,206.7c-0.1,0-0.3,0-0.4,0.1
	C511,206.7,511.1,206.7,511.3,206.7L511.3,206.7z M444.7,212.2c0.6,1,0.9,1.8,0.6,2.2c-0.1,0.2-0.1,0.4,0,0.6h0
	c0.1,0.2,0.4,0.2,0.6,0.1c5.5-2.7,10.8-5.8,16-9.2v0c-4,4.7-10,10.5-24,14.9l0,0c-1.6,0.4-3.3,0.9-4.8,1.5c0.7-0.6,1.5-1.1,2.2-1.7
	C438.7,218,442.3,215.3,444.7,212.2z M386.5,171.3c0.6,0.4,1.3,0.8,1.9,1.1c2.9,1.5,5.5,1.9,7.6,1c0.2-0.1,0.3-0.3,0.3-0.5
	c0-0.4,0-0.9,0.2-1.3c2.7,2.1,6,3.3,9.4,3.5h0c0.3,0,0.5-0.2,0.5-0.5c0-0.1,0-0.2-0.1-0.3l0,0l-1.2-1.4l20.5,0.6
	c-0.2,0.4-0.4,0.8-0.7,1.1c-0.7,1-1.5,2.2-0.6,3.3c0.7,0.9,2.2,0.2,4.1-0.7c1.7-0.8,3.8-1.8,5.4-1.6c-0.6,1.2-0.9,2.5-0.2,2.9
	c1.4,0.8,2.8-0.1,4-0.8c0.7-0.5,1.5-0.9,2.4-1c-1.7,4.7-3.7,9.2-6.2,13.5c-0.1,0.1-0.2,0.2-0.4,0.2c-0.2,0-0.3-0.1-0.4-0.2l-1.3-2.8
	c-0.1-0.3-0.4-0.4-0.7-0.2c-0.1,0.1-0.2,0.2-0.3,0.3l-0.7,2.5c0,0.2-0.2,0.3-0.3,0.3c-0.2,0-0.3-0.1-0.4-0.2
	c-0.3-0.5-0.5-0.9-0.8-1.4c-0.6-1.1-1.2-2.3-1.9-3.3c-0.2-0.2-0.5-0.3-0.7-0.1c-0.2,0.2-0.3,0.5-0.1,0.7c1.7,2.7,0.1,6.2-1.5,8.7
	c-0.5,0.8-1.1,1.5-1.8,2.1c-0.2,0.2-0.3,0.3-0.5,0.5c-0.2,0.2-0.5,0.3-0.8,0.2c-0.3-0.1-0.4-0.3-0.5-0.6c-0.1-0.6-0.1-1.1-0.2-1.7
	c-0.1-2.1-0.4-4.2-1.1-6.2c-0.1-0.2-0.3-0.3-0.5-0.3c-0.2,0-0.4,0.2-0.4,0.4c-0.3,2.1-0.8,4.1-1.5,6.1l-0.2,0.7
	c-0.1,0.4-0.5,0.6-0.9,0.5c-0.2-0.1-0.4-0.3-0.5-0.5c-0.8-3.7-2.1-7.3-3.8-10.7c-0.1-0.2-0.4-0.3-0.7-0.2c-0.1,0.1-0.2,0.2-0.3,0.4
	c-0.1,1.9-1.9,4.3-3.2,6.2l-0.5,0.6c-0.1,0.2-0.4,0.2-0.6,0.1c-0.1-0.1-0.1-0.1-0.2-0.2c-0.1-0.6-0.3-1.2-0.5-1.7
	c-0.5-1.3-0.7-2.6-0.8-4c0-0.3-0.2-0.5-0.5-0.5c-0.1,0-0.3,0.1-0.4,0.2c-1.8,2.5-3.2,5.3-4.1,8.3c-0.2,0-0.4,0-0.5-0.1
	c-0.4-0.2-0.7-0.6-0.6-1c0-3.4,0.2-8,1.3-10.8c0.1-0.3,0-0.5-0.3-0.6c-0.1-0.1-0.3,0-0.4,0c-0.9,0.4-1.8,0.8-2.7,1.1
	c-0.6,0.2-1.3,0.5-2,0.8c0.2-1.7,0.7-3.3,1.4-4.8c0.1-0.3,0-0.5-0.3-0.7c-0.2-0.1-0.4,0-0.5,0.1c-1.4,1.1-2.9,2.1-4.6,2.8
	c-1.1-4.1-3.3-7.8-6.4-10.6C385.4,170.7,385.9,171,386.5,171.3z M406.5,252.7c0.1-2.6-0.2-5.2-0.8-7.7c-0.1-0.2-0.3-0.3-0.5-0.3
	c-0.2,0-0.4,0.1-0.5,0.3c-0.3,0.6-0.5,1.4-0.9,2.3c-0.4,1.1-0.9,2.3-1.5,3.8c-1.5-6.9-1.1-14.1,1.1-20.8c2.2-3.1,3.3-6.7,3.1-10.5
	c0-0.3-0.2-0.5-0.5-0.5c-0.1,0-0.2,0-0.3,0.1c-0.8,0.7-1.5,1.5-2.2,2.3c-0.1,0.1-0.1,0.1-0.2,0.2c0.1-0.2,0.1-0.5,0.2-0.7
	c1.5-5.7,2.7-10.6,6.3-15.3c-0.5,4.2-0.5,9.3,1.4,12.8v0c0.1,0.2,0.3,0.3,0.4,0.3c0.2,0,0.4-0.1,0.4-0.3c0.2-0.5,0.5-1.1,0.8-1.7
	c0.7-1.7,1.5-3.3,2.6-4.8c0,0.4,0,0.8,0.1,1.3c0,2.6,0.3,5.2,0.8,7.8c0.9,3.9,1,7.9,0.2,11.8c-0.3-1.2-0.9-2.3-1.6-3.3
	c-0.2-0.2-0.5-0.3-0.7-0.1c-0.1,0.1-0.2,0.3-0.2,0.4C414.3,235.8,408.7,250.1,406.5,252.7z M374,199.7c-1.5-4.5-3.4-8.8-5.7-12.9
	c0-0.1,0.1-0.1,0.1-0.2c7.4,0.9,14.7,10.7,16.2,15.1c-2.6-1.6-3.7-1.4-4.9-1.2l-0.3,0.1c-0.3,0-0.5,0.3-0.4,0.6
	c0,0.1,0.1,0.3,0.2,0.3c5.3,3.5,6.9,5.7,8.7,10.3c0.1,0.2,0.2,0.3,0.4,0.3c0.2,0,0.4-0.1,0.5-0.3c0.7-1.2,1-2.5,1-3.9
	c0-0.2,0-0.5,0.1-0.8c3,5.3,3.7,15.2,2.4,21.7c-6.9-17.5-16-22.7-21.6-25.9c-1.1-0.6-2.2-1.3-3.3-2.1c1.8-0.9,4-1.1,6-0.5
	c0.3,0.1,0.5-0.1,0.6-0.4C374.1,199.9,374.1,199.8,374,199.7z M371.1,224.5c-3.4-1.4-8.2-1.4-12.7-1.1c0.8-0.6,1.7-1,2.7-1.2
	c0.3-0.1,0.4-0.3,0.4-0.6c0-0.2-0.2-0.3-0.3-0.4c-2.8-0.9-5.8-1.3-8.7-1c2.7-1.3,5.6-2.3,8.5-3.1c2.8-0.7,5.7-0.6,8.5,0.1
	c3,0.9,6.9,3.3,10.6,6c4.9,4.1,6.2,7.8,7.4,11.3c0.3,0.9,0.6,1.8,1,2.7c-5.2-4.5-14.8-10.2-21.3-11.4c1.3-0.2,2.6-0.3,3.8-0.4
	c0.3,0,0.5-0.2,0.5-0.5C371.4,224.8,371.2,224.6,371.1,224.5z M354,233.9c2.3-1.9,5.2-2.9,8.2-2.9c0.1,0,0.3,0,0.4,0
	c0.7,0,1.5,0.1,2.2,0.2c-1.7,1.8-2.8,4.1-3.2,6.6v0c-0.5,3.3,0.4,6.6,2.3,9.2c0.2,0.4,0.6,0.6,1,0.7c0.1,0,0.1,0,0.2,0
	c0.4,0,0.7-0.2,1-0.4c2.4-1.8,4.1-4.4,4.7-7.3c0.1-0.3-0.1-0.5-0.4-0.6c0,0,0,0,0,0c-1.7-0.3-3.4-0.3-5.1-0.1c0-0.4-0.1-0.7-0.1-1.1
	c-0.1-0.5-0.1-0.9-0.1-1.4c-0.1-0.9,0.2-1.8,0.7-2.4c0.6-0.5,1.3-0.7,2.1-0.7c0.8,0.1,1.6,0.3,2.4,0.6c0.3,0.1,0.5,0,0.6-0.3
	c0-0.1,0-0.2,0-0.3c0-0.2-0.1-0.4-0.2-0.7c3.3,1.7,6,4.3,7.8,7.6c1.2,2.1,1.7,4.6,1.3,7c-0.1,0.4-0.2,0.8-0.4,1.2
	c-3.2,3.9-7.9,6.5-13,7c-2.8-0.1-5.5-0.7-8.1-1.9c-3-1.6-5.5-4.1-7-7.2c-0.3-0.6-0.6-1.2-0.8-1.8c-0.2-1.4-0.3-2.8-0.1-4.2
	C350.8,238.2,352,235.8,354,233.9z M376.2,255.5c0.5-0.6,1.1-1,1.7-1.3c1.7-0.8,3.1-2,4.3-3.5c0.3-0.4,0.5-0.8,0.7-1.2
	c1.3-1.2,2.1-3,2.1-4.8c-0.2-1.4-0.8-2.8-1.7-3.9l-0.1-0.1l-0.2-3.5c2.8,2.1,5,5,6.3,8.3c-0.2,1.8-0.9,3.5-2,5
	c-1.3,1.8-2.8,3.3-4.6,4.6c-0.3,0.2-0.7,0.3-1,0.5c-0.2,0.1-0.4,0.2-0.7,0.3c-1.3,0.6-2.7,1.1-4,1.6c-0.3,0-0.7-0.1-0.9-0.3
	C375.8,256.6,375.8,255.9,376.2,255.5z M318.3,221c-6.1-5.5-8.5-14.2-10.5-23.4c-0.9-3.9-1.5-7.4-0.1-10.5h0c0.5-1.1,1.2-2.1,1.9-3
	c0.7-0.9,1.3-1.8,1.8-2.7c1.2-2.3,1.3-5.5-0.9-6.9c-0.2-0.2-0.5-0.1-0.7,0.1c-0.1,0.1-0.1,0.3,0,0.5c0.2,0.6,0.2,1.2-0.1,1.8
	c-0.4,0.7-1.2,1.2-2,1.3c-1.6,0-3.1-1-3.8-2.5c-0.7-1.6-1.1-3.3-1.1-5.1l-0.7-8.1c14.3,0.8,35.6-0.1,46.4,10.1
	c0.6,1,1.1,2.1,1.6,3.1c-0.2-0.1-0.5-0.3-0.7-0.4c-10.6-5.1-22.9-3-34.1-1.7c-1.4,0.2-2.8,0.4-4.2,0.7c2-0.1,4-0.2,6-0.3
	c7.1-0.2,14.2-0.3,21.3,0.1c4.1,0.2,8.1,1.1,11.9,2.7c0.1,0.1,0.2,0.1,0.3,0.2c0.5,1.1,0.9,2.3,1.3,3.4l-12.2-3.3
	c-0.3-0.1-0.5,0.1-0.6,0.4c0,0.2,0,0.4,0.2,0.5l9.6,8.4c0.2,0.2,0.5,0.2,0.7,0c0.1-0.1,0.1-0.2,0.1-0.3l0-0.3l4.6,3
	c0.2,0.1,0.5,0.1,0.7-0.2c0.1-0.1,0.1-0.3,0-0.4l-0.9-2.3l5.4,4.9c0.1,0.1,0.2,0.1,0.3,0.1c0.3,0,0.5-0.2,0.5-0.5c0,0,0,0,0,0
	c-0.3-13-6.2-25.1-16.2-33.4c-0.2-0.2-0.5-0.1-0.7,0.1c-0.1,0.2-0.1,0.4,0,0.6l0.2,0.3c2.9,4.8,6.2,10.2,9,16l-3.6-2.4
	c-0.2-0.1-0.4-0.1-0.6,0.1c-0.2,0.1-0.2,0.4-0.1,0.6c-11-11.9-30.8-11.3-46.3-10.5l-0.9-10.2c16.3,0.2,33,2.4,45,11.6
	c-8.9-8.8-21.9-12.2-34-13c-3.7-0.3-7.4-0.4-11.1-0.4l-0.5-5.2c-0.3-3.1-0.5-6.2-0.6-9.3c0.3,0.1,0.5,0.1,0.8,0.2
	c19.9,4.8,42.2,10.6,53.4,28c-1.6-4.5-5.2-8.1-8.4-11.6c-11.8-11.2-29.4-15.2-45.2-17.3l-0.6-0.1c-0.1-3.4,0.1-6.7,0.6-10
	c0-0.1,0-0.2,0.1-0.3c1.3,0.3,2.6,0.6,4,0.9c10.9,2.8,20.5,5.2,29.7,10.6c2,1.1,3.9,2.4,5.8,3.8c1,0.9,2.3,1.6,2.8,2.9
	c-0.3-1.4-1.5-2.3-2.5-3.3c-1.7-1.6-3.5-3-5.5-4.4c-9.4-6.8-21.1-8.9-32.4-10.6c-0.6-0.1-1.2-0.2-1.9-0.3c0.8-4.5,3.2-12,9.8-15.4
	c0,0,0.1,0,0.1-0.1c2.9-2.6,6.3-5.6,10.4-6.5c1.8-0.4,3.7-0.1,5.5,0.6c0.7,0.9,1.3,1.7,2,2.6c8.7,12.1,17.2,24.5,25.2,37l-9.2-4.6
	c-0.2-0.1-0.5,0-0.7,0.2c-0.1,0.2,0,0.5,0.2,0.6c5.9,4.2,11,9.4,15.1,15.4l-5.6-0.3c-0.2,0-0.4,0.1-0.5,0.4c-0.1,0.2,0,0.5,0.2,0.6
	c3.4,2,6.5,4.7,8.9,7.8l-6.4-1.4c-0.3-0.1-0.5,0.1-0.6,0.4c0,0.2,0,0.3,0.1,0.5c6,5.9,10,13.6,11.4,22c-0.9-1.3-1.9-2.4-3.1-3.4
	c-0.2-0.2-0.5-0.1-0.7,0.1c-0.1,0.2-0.1,0.4-0.1,0.5c1.2,2.3,2,4.8,2.4,7.4l-3.1-1c-0.1,0-0.1,0-0.2-0.1c-0.3-0.1-0.5,0.1-0.6,0.3
	c-0.1,0.3,0.1,0.5,0.3,0.6l0.2,0.1c1.2,0.5,2.1,1.4,2.7,2.5c0.8,1.5,0.9,3.3,0.4,4.9c-0.9,2.7-3.5,4.9-6.9,5.7
	c-3.2,0.8-6.6,0.5-9.6,0.1c-0.3,0-0.5,0.2-0.6,0.4c0,0.2,0.1,0.4,0.2,0.5l6.2,4.2c-2.1,1.7-5.5,1.3-7.7-0.2c-2.4-1.7-3.9-4.5-5.1-7
	c2.2-0.9,4.2-2.2,5-4.4c0.1-0.3,0-0.5-0.3-0.6c-0.1,0-0.2,0-0.4,0c-4.6,1.9-9.9-0.3-11.8-4.8c-0.8-1.8-0.9-3.8-0.4-5.8l0.1-0.3
	c0.3-1.3,0.8-2.8-0.3-3.9c-0.4-0.4-1-0.6-1.6-0.6c-1.2,0.1-2.3,0.7-3.1,1.6c-2.5,3-3.9,6.9-3.9,10.9c0,3.7,0.5,7.3,1.4,10.8
	c-2.4-0.1-4.7-1.2-6.3-3.1c-0.4-0.4-0.7-0.8-1.1-1.2c-1.3-1.6-2.7-3.3-5-2.3c-0.3,0.1-0.4,0.4-0.3,0.7c0,0,0,0,0,0.1l7.5,11.6
	c0.1,0.1,0.2,0.4,0.5,0.6C319.6,212.4,318.5,216.6,318.3,221z M323.8,208.4c0.1-0.1,0.2-0.2,0.3-0.4c0.1-0.2,0.3-0.4,0.4-0.5
	c0.5-0.3,1-0.1,2,0.6c0.7,0.5,1.5,0.9,2.4,1c0.1,0,0.1,0,0.2,0c1.7-0.1,2.2-1.8,2.7-3.3c0.1-0.4,0.3-0.8,0.4-1.2
	c1-2.4,3.9-3.5,6.8-4.4c0.4-0.1,0.8-0.2,1.2-0.4c0.3,3.4,1,6.7,2.1,9.9c0,0,0,0,0,0.1c-0.5-0.4-1.1-0.8-1.5-1.2
	c-0.2-0.2-0.5-0.2-0.7,0c-0.1,0.2-0.2,0.4-0.1,0.6l3.2,6.3c-2.9-1.2-5.7-2.6-8.4-4.3c-0.5-0.4-1.2-0.6-1.9-0.6c-0.6,0-1.2,0.4-1.5,1
	c-0.5,1.2-0.4,2.6,0.2,3.8c0.7,1.3,1.2,2.6,0.8,3.4L323.8,208.4z M352.5,261.5c-9.1-2.9-16.9-8.8-22.2-16.7c2.3-0.5,4.5-1.6,6.3-3.2
	h0c0.2-0.2,0.2-0.5,0-0.7c0-0.1-0.1-0.1-0.2-0.1c-2.5-1.1-4.4-3.1-5.4-5.6c2.2,0.9,4.6,1.4,7,1.4c0.7,0,1.4,0,2.1-0.1
	c0.2,8,3.7,15.5,9.7,20.8c1.8,1.6,3.9,2.9,6,3.9C354.7,261.3,353.6,261.3,352.5,261.5z M366,259.8c-0.1,0.1-0.2,0.2-0.3,0.2
	c-2.4,0.3-4.9,0.1-7.2-0.6c-4.9-1.7-8.6-5.7-10.1-10.7c-0.6-1.9-0.9-3.9-0.9-5.9l0.7,1.3c0.5,2.1,1.4,4,2.5,5.8
	c2.1,3.2,5.2,5.6,8.8,6.8c1.6,0.5,3.2,0.8,4.8,0.9c0.2,0.1,0.5,0.1,0.7,0.1c0.8,0.1,1.3,0.2,1.5,0.6
	C366.7,258.9,366.4,259.4,366,259.8z M369.9,287.4l0.5-0.5c2.1-2.1,4.8-4.6,5.6-6.1c0.1-0.2,0-0.5-0.2-0.7c-0.2-0.1-0.3-0.1-0.5,0
	c-2.2,1.3-5,1.1-7.7,0.9c3.1-1.5,6.1-3.3,8.8-5.4c1.5-1,3-2.1,4.4-3.3c0.6-0.5,1.3-1,1.9-1.5c0.6,2.1,0.5,4.2-0.1,6.3l0,0
	c0,0.1-0.1,0.2-0.1,0.3c-0.8,1.9-1.6,3.7-2.6,5.5C376.9,285.2,373.5,286.7,369.9,287.4z M381.7,301.1c-0.1,0.1-0.3,0.2-0.5,0.2
	c-0.1,0-0.3-0.1-0.3-0.2c-0.1-0.1-0.2-0.2-0.4-0.2c-0.1,0-0.2-0.1-0.3-0.1c-0.1-0.1-0.2-0.1-0.3-0.1c0,0-0.1,0-0.1,0l-0.2,0
	c-0.1,0-0.2,0-0.3,0c-0.1,0-0.2-0.1-0.2-0.2c0-0.1-0.1-0.2-0.1-0.3c0-0.1,0.1-0.2,0.1-0.3c0,0,0-0.1,0.1-0.1l0.3-0.1h0l0.3,0
	c0,0,0.1,0,0.1,0l0.1,0l0.1,0c0.1,0,0.1,0,0.2-0.1c0.1,0,0.1-0.1,0.2-0.1c0.2-0.1,0.4,0,0.6,0.2l0,0.1c0.1,0.1,0.2,0.2,0.3,0.2
	c0.1,0,0.2,0.1,0.2,0.1l0.2,0.1l0,0c0.1,0.1,0.2,0.3,0.2,0.5C381.9,300.8,381.8,301,381.7,301.1z M386.1,295.6
	c-0.4,0-0.8-0.1-1.1-0.3c-1.4-0.6-2.6-1.6-3.6-2.7c-1.3-3.8-0.5-8,2.1-11.1c1.8-0.3,3.6-0.1,5.3,0.4c2.2,0.8,4.6,1.1,7,0.7
	c0.6-0.1,1.2-0.1,1.8-0.1c2.7,0.3,5.3,0.7,7.9,1.4c1.2,0.3,2.3,0.5,3.5,0.6c1.8,0.1,3.5-0.3,5-1.3c0.3,0,0.7,0,1,0.1
	c1.6,0.4,4.6,2.3,5.4,3.9c0,0.3,0,0.6,0.1,0.9c0.1,1.6,0.2,3.3-0.4,4.6c-0.6,1.4-1.5,2.7-2.6,3.7c-1.1,0.5-2.3,0.8-3.5,0.8
	c-0.2,0-0.5,0-0.7,0.1c0.3-0.2,0.7-0.4,1-0.7c0.5-0.3,0.9-0.7,1.2-1.1c0.4-0.6,0.2-1.5-0.4-1.9c-0.5-0.2-1-0.3-1.5-0.1l-0.9,0.2
	c-2.5,0.7-5.2,1.3-7.5,2.1c-1.2,0.4-1.6,1.9-1.5,3.1c0.1,0.4,0.1,0.8,0.2,1.2c0.2,0.5,0.2,1.1,0.2,1.7c0,0.1,0,0.1,0,0.2
	c-0.3,0.5-0.7,0.9-1.1,1.3c-0.5,0.5-1,0.9-1.5,1.3c-1,0.8-2,1.8-2.8,2.8c-0.3,0.4-0.6,0.9-0.8,1.4c0-0.3-0.1-0.6-0.2-0.8
	c0-0.1-0.1-0.2-0.2-0.3c0.1-1.4-0.5-2.7-1.7-3.5c-0.6-0.7-1.1-1.4-1.4-2.2c-0.5-0.9-0.5-2,0-3c0.1-0.2,0.2-0.4,0.4-0.5
	c0.3-0.4,0.6-0.8,0.7-1.3c0.3-1.3-0.6-2.6-2.5-3.5c-2.2-1.1-4.5-1.8-7-2.2c-0.2,0-0.4,0-0.5,0.2c-0.4,0.6-0.3,1.4,0.5,2.2
	c0.3,0.3,0.6,0.7,0.6,1C386.6,295.4,386.3,295.6,386.1,295.6z M416.4,309.5c-0.3-0.1-0.5-0.3-0.6-0.5c-0.1-0.2-0.1-0.4-0.2-0.6
	c0-0.1,0-0.3,0-0.4c0-0.2,0.2-0.5,0.3-0.6c0.1-0.1,0.3-0.2,0.5-0.3c0.1,0,0.2,0,0.3,0h0c0,0,0.1,0,0.1,0l0.2,0
	c0.1,0,0.3,0.1,0.4,0.2c0.1,0,0.1,0.1,0.1,0.1c0.1,0.1,0.1,0.2,0.2,0.3c0.1,0.1,0.1,0.2,0.1,0.3c0,0,0,0.1,0,0.1
	c0,0.2,0.1,0.3,0.3,0.4c0.1,0,0.2,0.1,0.2,0.2c0,0,0,0.1,0,0.1c0,0,0,0.1,0,0.1c0,0,0,0.1,0,0.1c0,0,0,0.1,0,0.1l-0.1,0.2
	c-0.1,0.1-0.2,0.1-0.3,0.1c0,0-0.1,0-0.2,0l-0.1,0c-0.1,0-0.2,0.1-0.3,0.1c0,0-0.1,0-0.1,0.1c-0.1,0.1-0.3,0.1-0.4,0.1
	c-0.1,0-0.1,0-0.2,0l-0.3,0.4l0,0l0.2-0.4C416.5,309.5,416.5,309.5,416.4,309.5z M415.4,313.3L415.4,313.3c0,0.1-0.1,0.2-0.2,0.3
	c-0.1,0.1-0.2,0.1-0.5,0c-0.1,0-0.2,0-0.2,0l-0.1,0c0,0-0.1,0-0.1,0c-0.3,0.1-0.7,0.1-1,0.2l-0.3,0c-0.2,0-0.3,0.1-0.5,0.1
	c-0.2,0-0.3-0.1-0.4-0.3c-0.1-0.1-0.3-0.2-0.5-0.3c-0.3-0.1-0.4-0.4-0.3-0.6c0-0.1,0.1-0.2,0.2-0.3c0.1,0,0.2-0.1,0.2,0h0
	c0.1,0,0.1,0,0.2,0c0.1,0,0.3,0,0.4,0l0.6,0.1c0.6,0.1,1.1,0.1,1.6,0.1c0.1,0,0.3,0.1,0.4,0.1c0.1,0.1,0.2,0.1,0.4,0.1
	c0.1,0,0.2,0.1,0.2,0.2C415.4,313,415.4,313.1,415.4,313.3z M389.5,300.2c-0.4-0.4-0.8-0.7-1.1-1
	C388.8,299.4,389.2,299.8,389.5,300.2z M378.9,313.3l0.1,0l0.1,0c0.2-0.1,0.3-0.3,0.3-0.5c0-0.2,0-0.3,0-0.5
	c0.1-0.2,0.2-0.4,0.3-0.5c0,0,0,0,0,0c0,0,0,0,0.1,0l0.2-0.2l0,0c0.2-0.1,0.5-0.2,0.7-0.2c0.3,0,0.5,0.1,0.8,0.2
	c0.2,0.1,0.4,0.3,0.6,0.5c0.2,0.2,0.2,0.5,0.1,0.8c-0.1,0.2-0.3,0.4-0.5,0.4l0,0c-0.2,0-0.4,0.2-0.4,0.4c0,0,0,0,0,0.1
	c0,0.1,0,0.1,0,0.2c0,0,0,0.1-0.1,0.1l-0.2,0.1c-0.4,0.2-0.9,0.3-1.3,0.3h0l-0.1,0l-0.1,0c-0.2,0-0.3,0-0.5-0.1
	c-0.1-0.1-0.2-0.2-0.2-0.3C378.5,313.8,378.6,313.5,378.9,313.3z M369.1,313.6c0.1,0,0.1-0.1,0.2-0.2c0.1-0.1,0.2-0.2,0.3-0.2
	c0.3-0.1,0.7-0.1,1-0.2c0.4,0,0.8-0.1,1.1-0.2c0.3-0.1,0.6,0.1,0.7,0.4c0.1,0.3-0.1,0.6-0.4,0.7c-0.2,0.1-0.4,0.1-0.6,0.2
	c-0.2,0.1-0.4,0.1-0.6,0.2l-0.1,0c-0.1,0-0.2,0.1-0.3,0.2l-0.2,0.1c-0.1,0-0.3,0-0.4,0c-0.1,0-0.2,0-0.4,0c-0.1,0-0.1,0-0.2,0
	l-0.2-0.1c-0.1-0.1-0.1-0.2-0.1-0.3C368.8,313.9,368.9,313.7,369.1,313.6z M347.3,359c0.1-3.9,0.7-7.7,1.7-11.4
	c0.3-1,0.6-1.9,0.9-2.9c0.1-0.3,0.2-0.6,0.3-0.9c0.2-0.7,0.5-1.3,0.7-2c0.1-0.3,0.3-0.6,0.4-1c0.3-0.8,0.7-1.6,1-2.3
	c0.1-0.2,0.1-0.3,0.2-0.5c2.4-5,5.6-9.6,9.3-13.7c0.9-1,1.8-1.9,2.7-2.8c2.4-2.3,5-4.3,7.7-6.1c0.1,0,0.2-0.1,0.3,0.1
	c0.1,0.1,0.1,0.3-0.1,0.5c0,0,0,0,0,0c-2.6,1.7-5,3.7-7.3,5.8c0,0,0,0,0,0c-0.5,0.5-1,0.9-1.5,1.4c-0.2,0.2-0.4,0.4-0.6,0.6
	c0,0,0,0,0,0c-0.4,0.4-0.8,0.8-1.1,1.2c0,0,0,0.1-0.1,0.1c-3.3,3.7-6.1,7.9-8.3,12.3c0,0,0,0-0.1,0.1c-1.5,3-2.7,6.1-3.6,9.3
	c0,0.1,0,0.1-0.1,0.2c-0.2,0.7-0.4,1.4-0.6,2.1c0,0.2-0.1,0.3-0.1,0.5c-0.2,0.6-0.3,1.2-0.4,1.9c-0.1,0.3-0.1,0.5-0.2,0.8
	c-0.1,0.5-0.2,1.1-0.3,1.6c-0.1,0.4-0.1,0.9-0.2,1.3c-0.1,0.4-0.1,0.8-0.2,1.2c-0.1,0.9-0.2,1.7-0.3,2.6c0,0.2-0.1,0.3-0.3,0.3
	C347.4,359.2,347.3,359.1,347.3,359C347.3,359,347.3,359,347.3,359z M349.8,382.7L349.8,382.7l-2.1,9.9c0,0.1,0,0.3,0.1,0.4
	c-0.4-0.3-0.7-0.7-1.1-1c-1.1-1-2.3-1.9-3.6-2.7C345.2,386.9,347.5,384.7,349.8,382.7z M350.3,410.4c-0.1,0.1-0.2,0.2-0.2,0.4
	c-0.1,1.2-0.2,2.5-0.5,3.6c-0.8,2.7-2.4,5.1-4.6,6.8c1.3-5,0.8-10.2-1.4-14.9c-0.1-0.2-0.4-0.4-0.7-0.2c-0.2,0.1-0.3,0.3-0.3,0.5
	c0.3,4.1,0.2,8.1-0.2,12.2c-0.2,1.1-0.3,2.2-0.5,3.2c-0.3,0.7-0.6,1.3-1,2c-2,1.8-4.6,3.7-5.3,3.7h0c-0.5,0-1.2-0.6-1.8-1.1
	c-1-0.8-2-1.7-3-1.3c-0.9,0.4-1.7,1.1-2.2,2c-0.4,0.6-0.9,1.2-1.6,1.6c-1,0.5-2.1-0.3-2.7-1.1c-0.8-1.3-1.4-2.7-1.8-4.1
	c-1.7-6.3-2.4-12.9-1.9-19.4c0.1-0.5-0.3-1-0.8-1.2c-0.5-0.1-0.9,0.2-1,0.6c-2.2,6.2-2.8,12.9-1.6,19.4c0.1,0.4,0.1,0.7,0.2,1.1
	c0.4,2.2,0.9,4.5,0.3,6.4c-0.5,1.5-1.5,2.7-2.9,3.4c-3.8,2.1-8.4,0.7-11.3-3.3c-1.1-1.7-1.8-3.7-2.1-5.8c-0.1-1-0.8-1.7-1.8-1.8
	c-1,0.1-1.8,1-1.8,2c-0.2,1.4-0.3,2.9-0.3,4.3c0.1,1.2-0.1,2.4-0.6,3.4c-0.5,0.6-1.3,0.9-2,0.7c-3.7-0.6-6.4-5.8-7.1-10.5
	c-0.5-3.8-0.4-7.7,0.2-11.5c0.2-0.7-0.2-1.5-0.9-1.7c-0.6-0.1-1.2,0.2-1.3,0.8c-1,3.1-1.5,6.4-1.4,9.7c0,2.2-0.1,4.5-0.5,6.6
	c-0.1,0.6-0.3,1.2-0.6,1.8c-0.4,0.6-1.2,0.9-1.9,0.7c-0.8-0.4-1.5-1-2-1.7c-4.8-5.8-6.7-15.8-4.7-24.1c1.8-4.3,4.4-8.3,7.8-11.6
	c1.3-1.3,4.1-2.8,6.7-4.2c0.8-0.4,1.4-0.8,2.1-1.1c2.7-1,5.6-1.9,8.4-2.4c6.3-1.2,14.4-2.3,21.4,0.3c1.9,0.7,4.5,1.9,5.6,4.3
	l0.1,0.3c0.2,0.6,0.5,1,1,1.4c1,0.7,2.1,0.2,3-0.2l0.2-0.1c4.2-1.8,8.6,1.2,12,4.1c4.2,3.5,6.9,8.5,7.4,14
	C350.4,408.9,350.4,409.7,350.3,410.4z M360.5,410.3h-7.3c1.1-6.9-0.7-12.8-5.2-17.3c0.2,0.1,0.4,0.1,0.6,0l4.8-3.9
	c-0.9,3.6,0,7.5,2.5,10.3c0.1,0.1,0.3,0.2,0.5,0.2c0.2,0,0.3-0.1,0.4-0.3l4.3-9.7c0.3,0.4,0.6,0.9,0.9,1.3
	C360.7,397.3,360.3,403.8,360.5,410.3z M376.6,323.4C376.6,323.4,376.6,323.4,376.6,323.4c-0.3,0.4-0.6,0.7-0.9,1.1
	c0,0.1-0.1,0.1-0.1,0.2c-0.3,0.3-0.5,0.7-0.8,1c0,0,0,0,0,0c-0.1,0.2-0.2,0.3-0.4,0.5c-0.5,0.7-1.1,1.4-1.6,2.1
	c0,0.1-0.1,0.1-0.1,0.2l0,0c-2.7,3.7-5.1,7.5-7.2,11.5l0,0c0,0.1-0.1,0.2-0.1,0.3c-0.5,0.9-1,1.8-1.4,2.8c-0.1,0.2-0.2,0.5-0.3,0.7
	c-0.5,1-1,2.1-1.5,3.1c-0.1,0.3-0.3,0.6-0.4,0.9c-0.3,0.6-0.6,1.3-0.8,1.9c0,0,0,0,0,0c-2.6,6.4-4.4,13-5.6,19.8
	c0,0.1,0,0.1-0.2,0.1c-0.2,0-0.3-0.2-0.3-0.3c0,0,0,0,0,0c0.8-5.1,2-10.1,3.7-15.1c0.7-2,1.4-4,2.3-6c0.3-0.6,0.5-1.3,0.8-1.9
	c0.3-0.6,0.6-1.3,0.9-1.9c0.2-0.4,0.4-0.8,0.6-1.2c0.5-1.1,1.1-2.2,1.7-3.3c2.6-4.8,5.5-9.4,8.9-13.7c0,0,0,0,0,0
	c0.2-0.3,0.5-0.6,0.7-0.9c0,0,0,0,0,0h0c4.4-5.6,9.5-10.7,15.2-15.1c0.2-0.1,0.4-0.1,0.5,0.1c0.1,0.1,0.1,0.2,0,0.3
	c-4,3.2-7.8,6.7-11.2,10.5C378.1,321.7,377.4,322.5,376.6,323.4z M412.3,339.7c0.4-0.9,0.8-1.8,0.8-1.8c0.1-0.3,0-0.5-0.3-0.7
	c-0.2-0.1-0.3,0-0.5,0.1c-4.7,3-10.1,4.7-15.7,5c-0.9-0.3-1.9-0.6-2.9-0.9c-2.5-0.7-4.9-1.6-7.3-2.6c-1.7-0.8-3.1-2.2-4.1-3.8
	c-0.5-0.7-1.1-1.5-1.8-2.3c-0.2-0.2-0.5-0.2-0.7,0c-0.1,0.1-0.1,0.1-0.2,0.2l-0.4,1.4c-0.8-2.4-0.4-5,1-7c0.7-0.4,1.4-0.7,2.2-0.9
	c0.9-0.3,1.8-0.4,2.8-0.6c1.1-0.2,2.2-0.5,3.3-0.8c3.3-1.1,6.1-3.4,7.9-6.5c0.3-0.5,0.5-1,0.7-1.6c0.3,1.3,0.8,2.5,1.4,3.6
	c2.4,3.8,6.1,6.5,10.4,7.7c0.5,0.2,1.1,0.3,1.6,0.5c1.7,0.4,3.3,1,4.7,2c0.7,0.5,1.3,1.2,1.7,2C416.2,335.4,414.5,337.8,412.3,339.7
	z M439,342.4c-0.1-0.4-0.3-0.7-0.4-1.1c0-0.1-0.1-0.3-0.1-0.4c-0.3-0.8-0.7-1.6-1.1-2.4c-0.1-0.2-0.2-0.4-0.3-0.6
	c-0.1-0.2-0.2-0.4-0.3-0.6c0,0-0.1-0.1-0.1-0.1c-1.2-2.3-2.6-4.5-4.2-6.5c0,0,0,0,0-0.1c-0.1-0.1-0.2-0.3-0.3-0.4
	c-0.1-0.1-0.1-0.1-0.1-0.2c0,0,0,0,0,0c-0.2-0.3-0.5-0.6-0.7-0.9c-0.1-0.1-0.3-0.2-0.5-0.2c-4,0.9-8.1,0.9-12-0.1
	c-2.6-0.6-5.1-1.6-7.4-2.9c2.1,0.8,4.3,1.4,6.5,1.7c1.6,0.2,3.2,0.4,4.8,0.4c2,0,4-0.2,5.9-0.7c0.3-0.1,0.4-0.3,0.4-0.6
	c0-0.1-0.1-0.2-0.1-0.2c-4.5-4.2-9.9-7.4-15.8-9.2c-0.2-0.1-0.3-0.3-0.3-0.5c0,0,0,0,0,0c0-0.2,0.2-0.3,0.4-0.3c0,0,0,0,0.1,0
	c2.2,0.7,4.4,1.5,6.5,2.5c0.2,0.1,0.5,0,0.7-0.2c0,0,0,0,0-0.1c0,0,0-0.1,0-0.1c0,0,0.1-0.1,0.1-0.1c0,0,0.1,0,0.1-0.1
	c0,0,0.1-0.1,0.1-0.1l0.2,0c0.1,0,0.1,0,0.2,0c0,0,0.1,0.1,0.1,0.1c0.1,0.1,0.3,0.1,0.4,0.1c0.2,0,0.4,0,0.5,0
	c0.1,0,0.2,0.1,0.2,0.1c0.1,0,0.1,0.1,0.2,0.1c0.1,0.1,0.2,0.2,0.2,0.3c0,0.1,0,0.1,0,0.2c0,0.1,0,0.2,0,0.2c0,0,0,0.1,0,0.1
	c0,0,0,0.1,0,0.1c0,0.1,0,0.2,0.1,0.3c0.1,0.1,0.1,0.2,0.1,0.3c0,0,0,0,0,0.1c0,0.2,0.1,0.4,0.2,0.5c0.8,0.5,1.6,1,2.2,1.4
	c1.8,1.3,3.5,2.7,5.1,4.2c0.1,0.1,0.3,0.2,0.5,0.1c1.7-0.6,3.3-1.6,4.7-2.7c0.2-0.2,0.2-0.5,0.1-0.7c0,0,0,0-0.1-0.1
	c-3.3-2.9-7.1-5.2-11-7c-0.2-0.1-0.2-0.2-0.2-0.3c0-0.2,0.1-0.4,0.3-0.5c0.2-0.1,0.4-0.1,0.6-0.1c4.1,1.9,7.9,4.3,11.4,7.2
	c0.2,0.2,0.5,0.2,0.7,0c0.7-0.8,1.3-1.6,1.9-2.5c0.1-0.2,0.1-0.5-0.1-0.6c-1.9-1.6-3.9-3.1-6-4.4c-0.2-0.1-0.5-0.1-0.6,0.1
	c0,0-0.1,0.1-0.1,0.1c-0.1,0.1-0.3,0.1-0.5,0c-0.2-0.1-0.5-0.1-0.7-0.2l-0.2-0.1c-0.3-0.1-0.5-0.2-0.8-0.3c-0.1,0-0.1-0.1-0.2-0.1
	c-0.1,0-0.2-0.1-0.3-0.1c-0.1-0.1-0.2-0.2-0.3-0.4c0-0.1,0-0.2-0.1-0.2c0-0.1-0.1-0.1-0.1-0.2c0-0.1,0-0.3,0.1-0.4
	c0.1-0.2,0-0.5-0.2-0.7c-2.8-1.6-5.8-2.9-8.9-3.9c-0.2-0.1-0.2-0.2-0.2-0.4c0,0,0,0,0,0c0.1-0.2,0.2-0.2,0.3-0.1
	c6.9,2.3,13.4,5.8,19,10.4c0.2,0.2,0.5,0.1,0.7-0.1c0,0,0.1-0.1,0.1-0.1c0.9-2.2,1-4.7,0.1-7c0.5,0.1,0.9,0.3,1.3,0.5
	c0.2,0.2,0.5,0.1,0.7-0.1c0-0.1,0.1-0.2,0.1-0.2c0.1-0.8,0.1-1.6-0.1-2.4c0-0.2-0.1-0.3-0.3-0.4c-4.2-1.7-8.7-2.8-13.2-3.4
	c-0.3,0-0.5,0.2-0.6,0.4c0,0.2,0,0.3,0.1,0.4c0.1,0.1,0.2,0.3,0.2,0.4c0,0.3-0.3,0.5-0.6,0.4c-0.1,0-0.1,0-0.2,0l-0.1,0
	c-0.1,0-0.2,0-0.3,0l-0.1,0c-0.1,0-0.2-0.1-0.3-0.1c-0.1,0-0.3-0.1-0.4-0.2c-0.1-0.1-0.1-0.1-0.2-0.1l-0.2-0.1
	c-0.2-0.1-0.4-0.2-0.6-0.3c-0.1-0.1-0.2-0.2-0.2-0.3c0-0.1,0-0.2,0-0.3c0.1-0.3,0-0.5-0.3-0.6c0,0-0.1,0-0.1,0l-0.4,0
	c-0.3,0-0.6,0-1,0c-0.2,0-0.4-0.2-0.4-0.4c0,0,0,0,0,0c0-0.1,0-0.4,0.3-0.3c5.9,0.1,11.8,1.2,17.4,3.2c0.2,0.1,0.4,0,0.5-0.1
	c0,0,0,0,0-0.1l0.5,0.2c0.3,0.1,0.5,0,0.7-0.3c0-0.1,0-0.2,0-0.3l-1.1-3.3h0.4c0.3,0,0.5-0.2,0.5-0.5c0-0.1,0-0.1,0-0.2
	c-1.3-3.2-3.8-5.8-7-7c-0.2-0.1-0.5-0.2-0.7-0.3c2.5-0.4,5,0.1,7.2,1.4c0.2,0.2,0.5,0.1,0.7-0.1c0.1-0.2,0.1-0.5-0.1-0.7l-1.3-1.1
	l4.3,1.6c3,2.8,5,6.5,5.8,10.5c-0.1,0-0.1,0-0.2,0c-0.2,0-0.4,0.2-0.4,0.5c-0.1,1.2-0.3,2.4-0.6,3.5c-0.1,0.2,0,0.4,0.2,0.6
	c3.2,1.8,6.2,4,9,6.5c0.1,0.1,0.1,0.2,0.1,0.3c0,0,0,0,0,0.1c-0.1,0.2-0.4,0.2-0.6,0.1c0,0,0,0,0,0c-2.7-2.2-5.5-4.2-8.5-5.9
	c-0.2-0.1-0.5-0.1-0.7,0.2c0,0,0,0.1,0,0.1c-0.7,2.1-1.8,4-3.1,5.7l-0.2-0.8c-0.1-0.3-0.3-0.4-0.6-0.4c-0.1,0-0.2,0.1-0.3,0.2
	c-0.7,1.2-1.4,2.3-2.2,3.4c-0.2,0.2-0.1,0.5,0.1,0.7c1.8,1.7,3.5,3.5,5.1,5.4c0,0,0,0,0,0c1.2,1.4,2.3,2.8,3.3,4.3
	c0.4,0.6,0.8,1.1,1.2,1.7c0.1,0.2,0.3,0.5,0.4,0.7c0.5,0.8,1,1.6,1.4,2.4c0.1,0.1,0.1,0.3,0.2,0.4c0.4,0.8,0.8,1.5,1.2,2.3
	c0.1,0.1,0.1,0.3,0.2,0.4c0.3,0.7,0.6,1.3,0.9,2c1.8,4.1,3.2,8.4,4,12.8c0,0.2-0.1,0.4-0.3,0.4c0,0,0,0,0,0c-0.1,0-0.2,0-0.3-0.1
	c0,0,0,0,0-0.1c-1-4.6-2.5-9-4.5-13.3c-0.6-1.2-1.2-2.4-1.8-3.5c-0.2-0.3-0.3-0.6-0.5-0.9c-0.2-0.4-0.4-0.7-0.6-1.1
	c-0.3-0.5-0.6-1-0.9-1.5c-0.1-0.2-0.3-0.4-0.4-0.6c-0.4-0.7-0.9-1.3-1.3-1.9c-0.1-0.1-0.1-0.2-0.2-0.3c0,0,0,0,0,0
	c-0.6-0.8-1.2-1.6-1.8-2.4c0,0,0,0,0,0c-0.3-0.4-0.6-0.7-0.9-1.1c-0.2-0.2-0.3-0.4-0.5-0.6c-0.5-0.6-1-1.2-1.5-1.7c0,0,0,0,0,0
	c-0.4-0.5-0.9-1-1.3-1.4c0,0,0,0,0,0c-0.5-0.5-0.9-0.9-1.4-1.4c-0.1-0.1-0.2-0.1-0.4-0.1c-0.1,0-0.3,0.1-0.4,0.2
	c-0.6,0.7-1.2,1.4-2.1,2.2c-0.1,0.1-0.2,0.2-0.2,0.4c0,0.1,0.1,0.3,0.1,0.4c0.4,0.4,0.8,0.8,1.1,1.2c0.9,1,1.9,2.1,2.7,3.2l0.1,0.2
	c0.9,1.1,1.7,2.3,2.5,3.4v0c0,0.1,0.1,0.1,0.1,0.2c0.4,0.7,0.9,1.4,1.3,2.1c0.1,0.2,0.2,0.4,0.3,0.5c0.4,0.7,0.8,1.4,1.1,2.1
	l0.1,0.2c1.3,2.6,2.4,5.2,3.3,8c0,0,0,0,0,0c2,6.4,2.7,13.1,2,19.8c0,0.2-0.2,0.3-0.4,0.3c-0.2,0-0.2-0.1-0.2-0.2
	c0.4-4.6,0.1-9.1-0.8-13.6c-1.4-6.8-4.1-13.2-8-19c0,0-0.1-0.1-0.1-0.1c-1.5-2.3-3.2-4.4-5.1-6.4v0l0,0c0,0-0.1-0.1-0.1-0.1
	c0,0,0,0,0,0c-0.1-0.1-0.2-0.2-0.3-0.3c0,0,0-0.1-0.1-0.1c-0.1-0.1-0.2-0.2-0.3-0.3l-0.2-0.2l-0.1-0.1c-0.2-0.2-0.4-0.2-0.6-0.1
	c-1.5,1.1-3.1,1.9-4.8,2.6c-0.3,0.1-0.4,0.4-0.3,0.6c0,0.1,0.1,0.1,0.1,0.2l0.2,0.2c0.2,0.2,0.4,0.4,0.5,0.6
	c1.7,2.1,3.2,4.4,4.4,6.7c0,0,0,0.1,0,0.1c0.6,1.1,1.1,2.2,1.5,3.2c0.1,0.4,0.3,0.7,0.4,1.1l0,0c0.2,0.6,0.4,1.2,0.6,1.8
	c2.4,7.8,2.5,16.2,0.1,24l0,0.2c-0.1,0.2-0.1,0.3-0.2,0.5c0,0.1,0,0.1-0.1,0.1c0,0,0,0,0,0c0,0,0,0-0.1,0c-0.1,0-0.2,0-0.3,0
	c-0.1-0.1-0.2-0.2-0.1-0.3c1.4-4.8,2-9.7,1.6-14.7C440.9,349.3,440.2,345.8,439,342.4C439,342.4,439,342.4,439,342.4z M419.9,312.2
	L419.9,312.2c0-0.1,0-0.2,0.1-0.3c0.1-0.1,0.2-0.2,0.3-0.2c0.1,0,0.3,0,0.4,0.1c0.1,0.1,0.2,0.1,0.3,0.2c0,0,0.1,0,0.1,0l0.1,0.1
	c0.1,0,0.2,0.1,0.2,0.1l0.5,0.2c0.1,0,0.3,0.1,0.4,0.1c0,0,0.1,0,0.1,0c0,0,0.1,0,0.1,0l0.2,0.2c0.2,0.1,0.2,0.4,0.2,0.6
	c-0.1,0.2-0.2,0.4-0.4,0.4c-0.2,0-0.4,0-0.6-0.1c0,0-0.1,0-0.1,0c-0.3-0.1-0.6-0.2-1-0.4c-0.3-0.1-0.6-0.3-0.8-0.5l-0.1-0.1
	C420,312.5,419.9,312.3,419.9,312.2z M457.4,410.3h-2.2c-0.1-0.1-0.3-0.2-0.4-0.2c-0.2-0.1-0.4-0.1-0.6,0.1c0,0-0.1,0.1-0.1,0.1H452
	c-3.7-3.5-7.9-6.5-12.4-9c2.8-0.6,5.8-0.2,8.4,1.2l0.2,0.1c0.2,0.1,0.5,0,0.7-0.2c0.1-0.2,0-0.5-0.2-0.7c-0.1,0-0.1-0.1-0.2-0.1
	c-2.1-1.2-3.8-2.9-5-4.9c4.2-0.1,8.4,0.8,12.2,2.6c0.2,0.1,0.3,0.1,0.5,0c0.1-0.1,0.2-0.2,0.2-0.4c0.5-10.6-2.3-21.1-7.9-30.1
	c13.3,2.4,25.5,8.8,35,18.4l-4.3,0.5c-0.3,0-0.5,0.3-0.4,0.6c0,0.1,0,0.1,0.1,0.2c0.4,0.6,0.7,1.2,1.1,1.9c-0.1,0-0.1,0.1-0.2,0.1
	c-1,0.4-2.1,0.6-3.2,0.6c-2.7,0.3-6.2,0.6-12.3,5.8c-4.1,3.3-6.5,8.3-6.7,13.5C457.5,410.4,457.5,410.3,457.4,410.3z M532.9,431.1
	c-0.3-0.9-0.9-1.7-1.7-2.3c-0.2-0.2-0.5-0.1-0.7,0.1c0,0-0.1,0.1-0.1,0.2c-0.4,1.7-1,3.3-1.9,4.8c0,0,0,0.1-0.1,0.1
	c-0.2-0.1-0.4-0.3-0.5-0.5c-0.3-0.6-0.5-1.2-0.6-1.8c-0.4-2.2-0.6-4.4-0.5-6.6c0.1-3.3-0.3-6.6-1.4-9.7c-0.2-0.6-0.8-1-1.4-0.8
	c-0.7,0.2-1.1,1-0.9,1.7c0.6,3.8,0.7,7.7,0.2,11.5c-0.7,4.8-3.4,9.9-7.1,10.5c-0.7,0.2-1.5-0.1-2-0.7c-0.5-1.1-0.7-2.3-0.6-3.5
	c0-1.4-0.1-2.8-0.3-4.3c0-1-0.8-1.9-1.8-2c-1,0-1.8,0.8-1.8,1.8c-0.3,2.1-1,4-2.1,5.8c-2.9,4-7.6,5.4-11.4,3.3
	c-1.4-0.7-2.4-1.9-2.9-3.4c-0.6-2-0.2-4.2,0.3-6.4c0.1-0.4,0.1-0.7,0.2-1.1c1.2-6.5,0.7-13.2-1.6-19.4c-0.1-0.4-0.6-0.7-1-0.6
	c-0.5,0.2-0.9,0.7-0.8,1.2c0.5,6.5-0.1,13.1-1.9,19.4c-0.3,1.5-1,2.9-1.8,4.1c-0.6,0.8-1.7,1.6-2.7,1.1c-0.6-0.4-1.2-0.9-1.6-1.6
	c-0.5-0.9-1.3-1.5-2.2-2c-1-0.3-2,0.5-3,1.3c-0.6,0.5-1.3,1.1-1.8,1.1h0c-0.7,0-3.3-1.9-5.3-3.7c-0.3-0.6-0.7-1.3-1-2
	c-0.2-1-0.4-2.1-0.5-3.2c-0.5-4-0.5-8.1-0.2-12.2c0-0.3-0.2-0.5-0.5-0.5c-0.2,0-0.4,0.1-0.5,0.3c-2.2,4.6-2.7,9.9-1.4,14.9
	c-3.6-2.7-5.8-7.8-5.4-13.1c0.5-5.5,3.2-10.5,7.4-14c3.4-2.8,7.8-5.9,12-4.1l0.2,0.1c0.9,0.4,2,0.9,3,0.2c0.4-0.4,0.8-0.9,1-1.4
	l0.1-0.3c1.1-2.4,3.8-3.6,5.6-4.3c7-2.5,15.2-1.5,21.5-0.3c2.9,0.6,5.7,1.4,8.5,2.4c0.6,0.3,1.3,0.7,2.1,1.1
	c2.5,1.3,5.4,2.9,6.7,4.2c3.3,3.3,6,7.2,7.8,11.5C538.5,416,536.9,425.2,532.9,431.1z"/>
</svg>
