<svg id="e2a4c683-1b1f-41b2-a7d2-1bffa69ef177" data-name="Layer 2" xmlns="http://www.w3.org/2000/svg" viewBox="0 0 764.833 488.308" style="fill: #215342;" height="300" width="290" transform="translate(0, -25)"><path d="M295.2,215.391a16.124,16.124,0,0,0,4.824,4.294.5.5,0,0,0,.574-.819,7.071,7.071,0,0,1-2.614-5.669,13.1,13.1,0,0,1,1.894-6.337.5.5,0,0,0-.568-.726,7.7,7.7,0,0,0-4.44,3.3A5.754,5.754,0,0,0,295.2,215.391Z"/><path d="M347.8,272.179a.5.5,0,0,0-.809-.378c-.2.156-.388.318-.572.487l-.239.152a.507.507,0,0,0-.444-.036,4.331,4.331,0,0,0-2.015,1.662.5.5,0,0,0,.691.692l.136-.088a.5.5,0,0,0,.8.5,2.876,2.876,0,0,0,.635-.729.515.515,0,0,0,.243.324c.5.327,1-.252,1.471-.815a1.625,1.625,0,0,0,.421-1.223A.864.864,0,0,0,347.8,272.179Z"/><path d="M334.311,279.742a.5.5,0,0,0-.557.077,3.671,3.671,0,0,0-1.165,3.132.5.5,0,0,0,.366.421.484.484,0,0,0,.13.017.5.5,0,0,0,.4-.2,3.691,3.691,0,0,0,.247-.368.5.5,0,0,0,.353,0,.554.554,0,0,0,.352-.441.5.5,0,0,0-.009-.166l.16-1.99A.5.5,0,0,0,334.311,279.742Zm-.4,2.616c.033-.012.029-.028,0-.049C333.943,282.33,333.947,282.346,333.914,282.358Z"/><path d="M342.869,280.277a.5.5,0,0,0-.619.283l-.165.4a2.922,2.922,0,0,0-.292.165.5.5,0,0,0-.829.4.936.936,0,0,0,.169.54l.15.42a5.943,5.943,0,0,0,.466.592.487.487,0,0,0,.19.037.5.5,0,0,0,.462-.308l.417-1a3.579,3.579,0,0,0,.38-.926A.5.5,0,0,0,342.869,280.277Z"/><path d="M355.886,278.463a.5.5,0,0,0-.8-.54,8.961,8.961,0,0,0-.681.64,1.36,1.36,0,0,0-.16-.01,1.228,1.228,0,0,0-.979.656,4.287,4.287,0,0,0-.688,2.137c-.069.167-.134.337-.194.508a.5.5,0,0,0,.116.517.5.5,0,0,0,.356.148.52.52,0,0,0,.16-.026,3.489,3.489,0,0,0,1.439-.939,6.081,6.081,0,0,0,1.686-2.469.5.5,0,0,0-.088-.492A.536.536,0,0,0,355.886,278.463Z"/><path d="M341.178,288.827a1.987,1.987,0,0,0-1.145.672l-.144-.813a.5.5,0,0,0-.991.06,10.05,10.05,0,0,0,.261,2.9.5.5,0,0,0,.278.337.5.5,0,0,0,.436-.009,3.621,3.621,0,0,0,1.888-2.568.5.5,0,0,0-.583-.576Z"/><path d="M394.7,269.962a10.94,10.94,0,0,0,1.392.751.5.5,0,0,0,.349.8,16.1,16.1,0,0,1,2.288.467.52.52,0,0,0,.117.014.5.5,0,0,0,.3-.9c-.084-.064-.169-.127-.255-.188a.5.5,0,0,0-.38-.444l-.153-.034c-.1-.024-.207-.049-.31-.076a12.523,12.523,0,0,0-2.94-1.289.5.5,0,0,0-.409.9Z"/><path d="M407.329,273.467a.536.536,0,0,0,.121.079.5.5,0,0,0,.212.047.491.491,0,0,0,.17-.03,1.049,1.049,0,0,0,.6-.568,1.415,1.415,0,0,0,.287-.422.5.5,0,0,0-.019-.441.5.5,0,0,0-.363-.254l-.048-.006a1.463,1.463,0,0,0-.4-.312c-.188-.111-.266-.157-.308-.349a.5.5,0,0,0-.977.216l.118.541-.44.069a.5.5,0,0,0-.343.767A1.585,1.585,0,0,0,407.329,273.467Z"/><path d="M388.068,281.12a.5.5,0,0,0-.331.937l.269.131a1.274,1.274,0,0,0,0,.706,1.618,1.618,0,0,0,1.133,1.122,1.956,1.956,0,0,0,.465.055,3.89,3.89,0,0,0,1.712-.533.5.5,0,0,0,.039-.87,5.492,5.492,0,0,0-.72-.379,1.975,1.975,0,0,0-.776-.761,1.461,1.461,0,0,0-.885-.146A7.109,7.109,0,0,0,388.068,281.12Z"/><path d="M743.416,373.673H566.186a165.164,165.164,0,0,1-11.437-14.423l7.789,2.068a.5.5,0,0,0,.406-.9,20.187,20.187,0,0,1-5.585-5.585l5.7,2.459a.5.5,0,0,0,.655-.661,32.673,32.673,0,0,0-27.473-18.87l12.9-2.968a.5.5,0,0,0-.007-.976,41.111,41.111,0,0,1-18.7-9.633,79.136,79.136,0,0,0,.675-29.121l5.855,3.874a.5.5,0,0,0,.766-.318c2.176-10.716-2.2-21.508-6.482-30.783l-.779-1.684c-3.162-6.827-6.4-13.83-7.626-21.09a1.31,1.31,0,0,1,.367-.221,3.24,3.24,0,0,1,1.864.111l7.761,1.935a.5.5,0,0,0,.532-.77c-5.108-7.375-10.113-14.909-14.988-22.5a51.806,51.806,0,0,0-5.937-11.185,25.943,25.943,0,0,0,8.834,1.029.5.5,0,0,0,.08-.987A31.976,31.976,0,0,1,501.5,198.357l7.559-.16a.5.5,0,0,0,.4-.78,26.366,26.366,0,0,0-16.022-10.769l10.933-1.524a.5.5,0,0,0,.2-.917,57.223,57.223,0,0,0-19.317-7.8,191.4,191.4,0,0,1,37.213,4.028.5.5,0,0,0,.3-.947,93.864,93.864,0,0,0-48.711-7.219,22.34,22.34,0,0,1,8.331-1.331.482.482,0,0,0,.515-.48.5.5,0,0,0-.474-.52,102.519,102.519,0,0,0-20.279.97l7.305-3.486a.5.5,0,0,0-.259-.949,50.758,50.758,0,0,0-5.787.849c.413-.136.82-.275,1.237-.409,1.882-.576,3.677-1.089,5.465-1.472,5.573.064,11.152.52,16.645.973a.513.513,0,0,0,.535-.422.5.5,0,0,0-.383-.564,139.715,139.715,0,0,0-17.412-2.844l3.045-.353a.5.5,0,0,0-.014-1l-2.457-.217a112.7,112.7,0,0,1,33.023,4.152.5.5,0,0,0,.362-.926,66.741,66.741,0,0,0-21.431-6.656c4.6-8.835,9.2-17.8,13.341-26.989,1.777.4,3.567.883,5.414,1.449a71.752,71.752,0,0,1,17.074,7.416,48.383,48.383,0,0,1,4.069,2.82c-.8-.746-1.637-1.457-2.5-2.136a58.208,58.208,0,0,0-23.46-10.9q1-2.257,1.962-4.532c1.017-.009,2.028-.015,3.027-.03,7.282,0,14.565.027,21.845.207,1.414.032,2.957.08,4.3.117q-2.148-.3-4.3-.562a168.593,168.593,0,0,0-23.219-1.519c-.3.006-.6.015-.907.023q1.565-3.793,2.977-7.645c10.872-1.131,22.944-1.5,33.945-.075,1.319.164,3.349.516,4.56.748-1.418-.408-2.853-.759-4.295-1.072a108.507,108.507,0,0,0-32.047-1.53c5.751-2.307,13.093-5.157,19.459-6.594,1.261-.3,2.812-.579,3.936-.748q-1.344.084-2.683.254a102.31,102.31,0,0,0-21.741,5.841,152.559,152.559,0,0,0,5.743-20.874.5.5,0,0,0-.45-.594c-11.457-.928-22.068,5.207-30.936,11.331-1.2.828-2.4,1.67-3.6,2.515-7.826,5.507-15.918,11.2-25.237,13.235a62.6,62.6,0,0,1-9.615,1.13,64.643,64.643,0,0,0-38.439-1.123,11.363,11.363,0,0,1,1.617-5.06.5.5,0,0,0-.527-.749,156.511,156.511,0,0,0-31.761,10.1,10.127,10.127,0,0,1,1.64-5.995.5.5,0,0,0-.621-.732c-4.545,2.028-9.246,4.125-14.233,4.892-5.455.841-10.609-.216-14.141-2.9a.5.5,0,0,0-.771.574l1.367,3.658-21.6-5.86a.5.5,0,0,0-.538.773l3.259,4.577a65.568,65.568,0,0,0-41.674,3.987c-.3.134-.591.291-.885.442A36.93,36.93,0,0,0,265.8,131.03a.5.5,0,0,0-.069.786,10.48,10.48,0,0,0,1.9,1.408,150.624,150.624,0,0,1-32.611-7.031c-2.008-.672-4.039-1.4-6-2.106-4.236-1.52-8.617-3.092-13.066-4.214-7.682-1.939-14.252-2.167-20.083-.7a.5.5,0,0,0-.365.374c-1.452,6.387.1,12.691,2.645,19.408a135.583,135.583,0,0,0-23.487,14.425c-1.21.937-2.621,2.073-3.661,2.97q1.968-1.429,4-2.778a216.6,216.6,0,0,1,23.676-13.264q.489,1.239,1.01,2.5c-3.745,1.527-7.429,3.2-11.061,4.854q-2.017.956-4.013,1.954,2.912-1.155,5.844-2.259c2.593-.918,5.945-2.176,9.673-3.486.041.1.08.193.121.291q.765,1.818,1.539,3.649-4.011,2.445-7.823,5.207A88.344,88.344,0,0,0,178.6,166.65c-.838.993-1.66,2.044-2.384,3.1a43.412,43.412,0,0,1,3.337-3.591c6.886-6.459,14.647-11.6,22.922-16.736q1.329,3.123,2.714,6.249a147.389,147.389,0,0,0-21.76,14.756c-.8.641-1.729,1.4-2.425,1.991q1.766-1.174,3.548-2.321c6.976-4.5,14.168-8.648,21.363-12.784,2.323,5.152,4.831,10.25,7.642,15.177a64.953,64.953,0,0,0-16.924,8.318.5.5,0,0,0,.472.875,75,75,0,0,1,12.664-3.873l-8.447,6.07a.5.5,0,0,0,.476.871,124.628,124.628,0,0,1,11.931-4.046c2.944-.254,5.894-.418,8.842-.624a50.616,50.616,0,0,0-13.834,6.875.5.5,0,0,0,.441.884l7.007-2.235-1.928,1.1a.5.5,0,0,0,.383.916,101.847,101.847,0,0,1,19.15-3.464,63.415,63.415,0,0,0-16.879,12.155.5.5,0,0,0,.609.783,30.346,30.346,0,0,1,15.753-4.155,38.109,38.109,0,0,0-20.8,14.978,46.25,46.25,0,0,0-7.388,4.317.5.5,0,0,0,.3.906l8.184-.176-14.879,13.445a.5.5,0,0,0-.128.56.47.47,0,0,0,.484.31l7.075-.3-6.172,18.376a53.241,53.241,0,0,1-17.479,20.007.5.5,0,0,0,.384.9l6.153-1.148-12.937,27.144a.5.5,0,0,0,.18.636.5.5,0,0,0,.654-.1l6.588-7.82a136.749,136.749,0,0,0-3.091,22.821.5.5,0,0,0,.447.523.51.51,0,0,0,.546-.421,24.037,24.037,0,0,1,8.6-14.883,121.8,121.8,0,0,0,1.88,33.4.5.5,0,0,0,.39.393.485.485,0,0,0,.1.01.5.5,0,0,0,.414-.218,59.465,59.465,0,0,1,17.846-16.9,55.751,55.751,0,0,1-28.19,31.153.5.5,0,0,0,.112.943,35.042,35.042,0,0,0,12.511.234,7.609,7.609,0,0,1-3.051,2.305.5.5,0,0,0-.071.888,4.677,4.677,0,0,0,3.447.527A85.2,85.2,0,0,0,184.7,373.673H21.416a.5.5,0,0,0-.5.5v16a.5.5,0,0,0,.5.5H237.832a9.914,9.914,0,0,0,1.439,1.733c2.943,2.745,6.543,3.887,10,4.713a119.191,119.191,0,0,0,13.917,2.445,5.6,5.6,0,0,0,.653.806,5.768,5.768,0,0,0,4.062,1.644,6.1,6.1,0,0,0,.958-.077,7.534,7.534,0,0,0,3.489-1.639c2.12.1,4.256.158,6.415.158q4.165,0,8.424-.243c5.107-.292,10.045-.814,14.3-3.938a16.54,16.54,0,0,0,4.457-5.39c.109-.068.213-.142.321-.212H435.7a21.6,21.6,0,0,0,5.361,4.694,16.538,16.538,0,0,0,4.475,5.39c4.272,3.125,9.228,3.646,14.355,3.937q4.274.245,8.462.244c2.167,0,4.31-.06,6.438-.158a7.565,7.565,0,0,0,3.5,1.638,6.019,6.019,0,0,0,.962.078,5.789,5.789,0,0,0,4.074-1.644,5.485,5.485,0,0,0,.656-.806,120.125,120.125,0,0,0,13.976-2.445l.031-.008a5.259,5.259,0,0,0,.628.591,3.965,3.965,0,0,0,2.406.865,3.159,3.159,0,0,0,.818-.1,5,5,0,0,0,2.421-1.723,7.824,7.824,0,0,0,1.532-2.643,15.445,15.445,0,0,0,2.2-1.69,13.454,13.454,0,0,0,3.464-6.215H743.416a.5.5,0,0,0,.5-.5v-16A.5.5,0,0,0,743.416,373.673ZM435.643,323.227c-.7-.1-1.4-.187-2.095-.25a.514.514,0,0,0-.494.279.5.5,0,0,0,.085.561,36.552,36.552,0,0,0,5.652,4.889c1.7,3.032,3.369,6.1,5.032,9.181q4.172,7.7,8.2,15.484a10.416,10.416,0,0,1-3.081.617c-2.74.268-6.15.6-12.254,5.761-.461.389-.891.8-1.305,1.211A57.8,57.8,0,0,0,402.5,338.491a.5.5,0,0,0-.337.936,40.314,40.314,0,0,1,13.833,10.279,88.454,88.454,0,0,0-30.829-9.51.51.51,0,0,0-.543.382.5.5,0,0,0,.316.585c6.824,2.49,13.06,8.182,17.558,16.026a82.758,82.758,0,0,1,6.8,16.484H390.675a44.979,44.979,0,0,0-7.978-6.859.5.5,0,0,0-.666.732,42.244,42.244,0,0,1,4.175,6.127H344.019a39.907,39.907,0,0,1-.584-10.255.5.5,0,0,0-.955-.241l-4.645,10.5h-.253a36.373,36.373,0,0,1,1.681-28.4.5.5,0,0,0-.812-.572c-6.251,6.9-9.7,16.8-9.7,27.865,0,.367.011.738.018,1.108H316.707a19.749,19.749,0,0,0-2.236-13.519,68.493,68.493,0,0,1,8.166-18.7.5.5,0,0,0-.413-.767l-.182,0a12.452,12.452,0,0,0-8.818,4.283,30.152,30.152,0,0,0-4.5,6.746,27.6,27.6,0,0,1,3.323-13.529.5.5,0,0,0-.742-.637l-8.741,6.669a14.657,14.657,0,0,1-1-7.719c7.781-11.03,17.959-25.948,28.517-38.421.482.177.976.35,1.5.518.794.255,1.566.472,2.327.669l-6.721,5.377a.5.5,0,0,0,.1.843,8.809,8.809,0,0,0,5.895.541A19.691,19.691,0,0,0,330.184,313a.5.5,0,0,0,.208.518.5.5,0,0,0,.557,0l5.309-3.513.108,5.532a2.087,2.087,0,0,0,.405,1.4,1.308,1.308,0,0,0,1.258.406,2.023,2.023,0,0,0,1.46-1.231,4.4,4.4,0,0,0,.15-1.831c-.015-.237-.029-.476-.024-.711a1.633,1.633,0,0,1,.532-1.267,82.923,82.923,0,0,0,18.244,16.445.5.5,0,0,0,.77-.493l-1.01-6.522a17.592,17.592,0,0,1,9.964,9.216.5.5,0,0,0,.456.295.509.509,0,0,0,.077-.006,19.219,19.219,0,0,0,13.667-9.645,38.539,38.539,0,0,0,18.964,3,.5.5,0,0,0,.243-.9,4.81,4.81,0,0,1-1.9-3.123,15.95,15.95,0,0,1,13.311,2.767.5.5,0,0,0,.805-.416l-.325-8.28a17.965,17.965,0,0,0,14.034-1.09.5.5,0,0,0-.09-.921A14.314,14.314,0,0,1,419,305.844l6.289,2.441a.5.5,0,0,0,.509-.1A169.049,169.049,0,0,1,435.643,323.227ZM332.85,212.143a9.359,9.359,0,0,1,3.024,8.82c-.7,4.068-3.674,7.825-7.937,10.17a40.5,40.5,0,0,1-8.464.787c-9.977,0-19.8-5.082-25.019-12.947a17.312,17.312,0,0,1-1.894-3.683c0-.1-.009-.211-.01-.314a28.377,28.377,0,0,0,25.106,14.91,28.313,28.313,0,0,0,7.854-1.1,10.873,10.873,0,0,0,5.374-3.049,12.471,12.471,0,0,0,2.086-4.327c.731-2.238,1.38-4.607.583-6.8-.947-2.606-3.553-4.026-6.14-5.257-1.912-.909-3.854-1.827-5.829-2.692a19.5,19.5,0,0,0-4.7-1.905c.616.113,1.231.235,1.843.37a.523.523,0,0,0,.176.006C324.185,206.729,328.852,208.539,332.85,212.143Zm20.458-10.167c1.986,4.444,5.158,10.492,5.714,10.819.779.458,1.678-.562,5.547-5.483a86.981,86.981,0,0,1,7.207-8.445c-.515,1.962-1.457,5.059-2.441,8.292-1.431,4.7-2.911,9.563-3.32,11.743-.111.591-.246,1.236-.388,1.917-.848,4.068-2.011,9.639.029,12.834.935,1.465,2.512.821,3.9.25,1.646-.674,2.794-1.048,3.749-.174a5.944,5.944,0,0,0,5.226.979,4.6,4.6,0,0,0,3.433-2.542,6.206,6.206,0,0,0-.016-2.313c-.249-2.677-.69-7.433,1.811-10.588-.253,7.823,4.354,13.542,6.633,16.371a.5.5,0,0,0,.389.187.51.51,0,0,0,.167-.029.5.5,0,0,0,.333-.471,16.011,16.011,0,0,0-.2-1.958c-.451-3.305-1.237-9.123,3.056-14.251a64.885,64.885,0,0,0,2.619,11.365l-2.594-2.211a.5.5,0,0,0-.82.44,73.488,73.488,0,0,0,3.168,14.2l-10.277-3.188a.5.5,0,0,0-.643.552c1.25,8.353,8.973,13.68,16.361,17.788l.1.057c4.165,2.316,8.654,4.822,12.137,8.07a85.639,85.639,0,0,0-12.475.916,101.145,101.145,0,0,1,12.939.028,21.847,21.847,0,0,1,2.157,11.169c-2.3-.59-4.576-1.125-6.8-1.582a1.7,1.7,0,0,0-1.532-.3,75.513,75.513,0,0,0-14.618-1.552.48.48,0,0,0-.365-.117,1.242,1.242,0,0,1-.646-.276c-.142-.088-.284-.176-.429-.247a1.531,1.531,0,0,0-1.447.071.908.908,0,0,0-.41.732c-.478.044-.958.087-1.417.151.471-.05.942-.078,1.413-.092,0,.017,0,.032,0,.049a1.272,1.272,0,0,0,.26.636c.031.043.062.088.1.133a.5.5,0,0,0,.652.626l.052-.019a1.464,1.464,0,0,0,.164.063,1.163,1.163,0,0,0,.347.052,1.193,1.193,0,0,0,.582-.15.968.968,0,0,0,.46-.555l.55-.209a.5.5,0,0,0,.315-.465c2.261.242,4.514.695,6.741,1.055,1.858.334,3.7.726,5.547,1.138a.494.494,0,0,0-.129.426.507.507,0,0,0,.542.4l.2-.02a.336.336,0,0,1,.258.2.5.5,0,0,0,.347.335.976.976,0,0,0,.582.407.882.882,0,0,0,.182.02.678.678,0,0,0,.512-.215.622.622,0,0,0,.112-.558.669.669,0,0,0-.321-.365l.357-.037c2.56.615,5.108,1.283,7.649,1.967a18.068,18.068,0,0,1-1.7,5.39,16.4,16.4,0,0,1-3.632,4.711c-6.252-5.106-13.249-10.431-21.532-10.893a26.509,26.509,0,0,1,9.158,3.524.5.5,0,0,0-.164.143.5.5,0,0,0,.1.678,13.207,13.207,0,0,0,1.353.942,1,1,0,0,0-.21.538.5.5,0,0,0,.236.463,1.4,1.4,0,0,0,.808.2,1.463,1.463,0,0,0,.067.553,1.342,1.342,0,0,0,.851.89,1.212,1.212,0,0,0,.367.057,1.362,1.362,0,0,0,.882-.34,1.312,1.312,0,0,0,.467-.9c2.19,1.664,4.29,3.458,6.35,5.191-.213.16-.435.306-.655.456a59.516,59.516,0,0,0-23.946-5.225c7.183.454,14.144,2.863,20.815,5.515.5.215,1.022.448,1.541.678a16.029,16.029,0,0,1-9.46,1.89c-4.592-.568-8.7-3.135-12.663-5.618a60.9,60.9,0,0,0-7.089-4c-.488-.326-.973-.656-1.48-.955l-.409-.238a8.081,8.081,0,0,1-2.859-2.285c-.842-2.687-.752-4.628.272-5.932a7.267,7.267,0,0,1,2.14-1.622c.417-.244.833-.49,1.223-.766a4.938,4.938,0,0,0,3.128-3,13.423,13.423,0,0,0,.695-3.724c.042-.462.083-.925.143-1.383.261-1.981.923-3.348,1.97-4.063a6.922,6.922,0,0,1,1.97-.8,7.892,7.892,0,0,0,2.228-.922c2-1.349,2.373-4.1,1.707-6.115a11.615,11.615,0,0,0-3.892-5.036c-1.388-1.149-3.328-2.56-4.694-2.76a.5.5,0,0,0-.509.737,11.822,11.822,0,0,0,2.607,2.935c.248.222.5.445.735.671,1.424,1.341,2.117,2.518,2.181,3.7a2.627,2.627,0,0,1-.9,2.053,1.63,1.63,0,0,1-1.372.41,3.635,3.635,0,0,1-1.371-.788,4.99,4.99,0,0,0-1.575-.928,2.862,2.862,0,0,0-2.336.345,4.333,4.333,0,0,0-1.939,2.833,10.3,10.3,0,0,0,.518,4.587l.188.714a13.848,13.848,0,0,1,.019,7.853,8.854,8.854,0,0,1-1.047.723,2.941,2.941,0,0,1-2.52.439c-.911-.413-1.258-1.612-1.511-2.705l-1.5-6.456a.5.5,0,0,0-.425-.383.507.507,0,0,0-.507.269,9.049,9.049,0,0,0-.4,6.082c.219,1.105.447,2.248-.082,3.066a2.422,2.422,0,0,1-1.431.942c-.078.021-.157.032-.235.049a10.414,10.414,0,0,1-3.87-7.8c-.01-.57.029-1.162.067-1.734a13.906,13.906,0,0,0-.016-2.912c-.24-1.645-1.284-3.453-3.074-3.785-1.533-.283-2.9.61-4.1,1.4l-.3.2c-.7.45-2.432,1.409-3.55.6a2.248,2.248,0,0,1-.749-2.021,7.025,7.025,0,0,1,.846-2.427,76.361,76.361,0,0,1,4.561-7.955.5.5,0,0,0-.733-.663c-3.173,2.569-4.984,4.292-6.077,6.579-1.064,2.227-1.313,5.44.53,7.6a10.107,10.107,0,0,0,3.789,2.426,13,13,0,0,1,2.768,1.506,12.644,12.644,0,0,1,3.16,4.538c.309.611.617,1.223.952,1.811a8.9,8.9,0,0,0,4.349,4.042,10.71,10.71,0,0,1,2.411,2.99,4.316,4.316,0,0,1-.014,4.2,6.775,6.775,0,0,1-3.019,2.072c-.411.187-.82.375-1.212.582a14.569,14.569,0,0,0-5.536,5.48,19.534,19.534,0,0,1-11.8,8.056,17.75,17.75,0,0,1-5.476-.33,24.013,24.013,0,0,1-7.366-3.081c7.926-8.81,15.927-15.843,23.162-18.44-9.283,2.5-17.355,9.694-24.4,17.639-.766-.52-1.53-1.076-2.293-1.687-.523-.419-1-.838-1.469-1.256a83.233,83.233,0,0,1,6.254-6.249,27.26,27.26,0,0,1,5.921-4.4,45.371,45.371,0,0,0-13.08,9.792,18.388,18.388,0,0,1-3.536-4.664,12.635,12.635,0,0,1-1.175-3.415c7.537-4.639,15.131-9.339,23.4-12.23.566.037,1.135.093,1.709.186-.482-.116-.968-.2-1.456-.278q.946-.325,1.9-.619-1.151.252-2.286.555c-4.061-.564-8.269.088-12.315.53q-4.161.544-8.278,1.378l.037-.062a51.462,51.462,0,0,1,8.148-7.745q.915-.721,1.844-1.444c5.933-4.628,12.068-9.414,14.714-16.441a.5.5,0,0,0-.685-.627l-4.336,2.1c5.378-6.769,7.255-16.461,7.339-16.909a.5.5,0,0,0-.652-.566c-.876.3-2.221.761-3.558,1.238.065-.064.136-.118.2-.183C353.281,225.551,354.656,216.85,353.308,201.976Zm70.218-5.949c4.456.182,9,.624,11.421,3.665,2.04,2.563,2.472,6.784,1.323,12.905-.58,3.092-1.569,7.052-4.074,10.248-1.015,1.293-10.431,12.348-28.389,2.485-.221-.122-.419-.262-.63-.392a21.729,21.729,0,0,0,10.835,3.079q.628,0,1.248-.044a.5.5,0,0,0,0-1A22.237,22.237,0,0,1,399.1,218.3a3.976,3.976,0,0,1-.991-2.152,4.157,4.157,0,0,1,.545-1.829,39.712,39.712,0,0,1,2.043-3.733,32.842,32.842,0,0,1,8.28-6.292,13.985,13.985,0,0,0,5.482,12.637,5.157,5.157,0,0,0,2,.983,2.878,2.878,0,0,0,.565.056,2.4,2.4,0,0,0,1.768-.712,3.3,3.3,0,0,0,.728-2.008,18.321,18.321,0,0,0-4.307-13.547,32.3,32.3,0,0,1,12.851-1.242,5.6,5.6,0,0,1,3.662,1.409,5.829,5.829,0,0,1,1.058,3.308,26.651,26.651,0,0,1-.639,10.3,13.55,13.55,0,0,1-5.908,8.009.5.5,0,0,0,.171.927,2.95,2.95,0,0,0,.477.038c1.277,0,2.57-.8,3.849-2.4a24.323,24.323,0,0,0,5.207-17.495,6.83,6.83,0,0,0-1.634-4.276,6.987,6.987,0,0,0-3.769-1.638,33.872,33.872,0,0,0-19.115,2,30.307,30.307,0,0,0-9.36,6.045q-.9.7-1.754,1.465a27.648,27.648,0,0,1,9.766-8.358C414.38,197.6,420.016,196.519,423.526,196.027Zm-89.814,74.7a4.627,4.627,0,0,0-.822.431.5.5,0,0,0-.515-.022.967.967,0,0,0-.5.9c-.015.026-.032.052-.049.077-.061.077-.121.156-.178.236a.5.5,0,0,0,.756.648,1.174,1.174,0,0,0,.141.073,1.21,1.21,0,0,0,.487.1,1.619,1.619,0,0,0,1.251-.67,2.665,2.665,0,0,0,.416-.961.868.868,0,0,0,.091-.307.5.5,0,0,0,.031-.284c.009-.125.018-.268.027-.431a.492.492,0,0,0-.138-.365c.562-.107,1.123-.222,1.686-.324a56.757,56.757,0,0,1,9.61-.99c-8.167,2.241-15.712,6.277-22.969,10.708a9.413,9.413,0,0,1,.5-3.614c.423-1.174.925-2.453,1.528-3.73q4.385-1.042,8.813-1.891Zm32.475,17.263c1.827-.927,5.426-2.3,8.979-1.054a16.639,16.639,0,0,1,3.7,2.044,15.7,15.7,0,0,0,3.119,1.762l2.642,2.015a3.069,3.069,0,0,1-.381,1.926c-.719,1.191-2.071,2.02-4.255,2.611a23.036,23.036,0,0,1-9.276.551.478.478,0,0,0-.131,0,27.059,27.059,0,0,1-13.246-1.65,27.106,27.106,0,0,1,2.937-4.052A31.861,31.861,0,0,1,366.187,287.988Zm-63.179-83.93c.222-.018.443-.026.665-.041a37.231,37.231,0,0,1,9.841,1.618,9.671,9.671,0,0,0-1,3.383,37.886,37.886,0,0,0-.366,5.886,11.04,11.04,0,0,0,.777,4.429,6.754,6.754,0,0,0,1.462,2.065,1.9,1.9,0,0,0,1.018.573,1.33,1.33,0,0,0,.188.013,2.087,2.087,0,0,0,.837-.21,7.622,7.622,0,0,0,3.723-4.007,18.5,18.5,0,0,0,1.238-5.21l.1-.789c.112-.948.233-1.915.413-2.865a40.9,40.9,0,0,1,6.175,3.689c.282.209.578.409.874.61a5.686,5.686,0,0,1,2.448,2.461,6.064,6.064,0,0,1-.284,3.816,13.406,13.406,0,0,1-2.192,4.383,11.045,11.045,0,0,1-5.709,3.559,19.231,19.231,0,0,1-6.922.45,31.009,31.009,0,0,1-23.632-15.142,17.616,17.616,0,0,1,.679-3.359,6.473,6.473,0,0,1,2.281-3.287A18.2,18.2,0,0,1,303.008,204.058ZM298.4,293.552l-.4,3.589c-3.829,3.113-7.551,6.351-11.2,9.674A76.171,76.171,0,0,1,298.4,293.552Zm25.977,1.644a22.782,22.782,0,0,0,4.323,2.335c-3.139,3.807-6.059,7.615-8.779,11.015-6.158,8.151-12.166,16.427-17.833,24.929a23.823,23.823,0,0,1,1.569-4.572.5.5,0,0,0-.18-.635.49.49,0,0,0-.384-.063C309.536,316.365,316.493,304.973,324.376,295.2Zm179.215,96.473a.5.5,0,0,0-.771.274,15.928,15.928,0,0,1-1.907,4.792c-.019.028-.042.052-.061.08a1.642,1.642,0,0,1-.492-.516,5.966,5.966,0,0,1-.586-1.808,33.693,33.693,0,0,1-.549-6.639,27.576,27.576,0,0,0-1.37-9.693,1.148,1.148,0,0,0-1.353-.83,1.45,1.45,0,0,0-.933,1.722,40.06,40.06,0,0,1,.24,11.5c-.693,4.753-3.352,9.9-7.091,10.549a1.912,1.912,0,0,1-2-.665,6.887,6.887,0,0,1-.605-3.52,38.416,38.416,0,0,0-.337-4.255,2.02,2.02,0,0,0-1.822-1.991h-.032a1.931,1.931,0,0,0-1.789,1.815,14.248,14.248,0,0,1-2.112,5.764c-2.9,4.021-7.584,5.392-11.374,3.33a5.871,5.871,0,0,1-2.9-3.37c-.614-1.968-.158-4.231.284-6.419.072-.356.143-.711.21-1.062a37.23,37.23,0,0,0-1.574-19.357.9.9,0,0,0-1.03-.64,1.091,1.091,0,0,0-.768,1.209,56.05,56.05,0,0,1-1.885,19.379,12.6,12.6,0,0,1-1.8,4.145c-.634.82-1.735,1.6-2.749,1.1a5.434,5.434,0,0,1-1.577-1.579,5.214,5.214,0,0,0-2.194-1.962c-1-.336-2,.5-2.961,1.319-.625.528-1.333,1.126-1.793,1.136H447.9c-.671,0-3.257-1.9-5.311-3.689-.34-.631-.659-1.288-.957-1.965-.2-1.017-.374-2.082-.534-3.172a64.092,64.092,0,0,1-.224-12.158.5.5,0,0,0-.949-.24,22.06,22.06,0,0,0-1.384,14.878c-3.6-2.651-5.779-7.834-5.4-13.113a20.736,20.736,0,0,1,7.393-14c3.391-2.845,7.822-5.881,12.027-4.071l.159.069c.911.4,2.046.892,3.015.177a3.35,3.35,0,0,0,.959-1.431l.138-.306c1.138-2.429,3.758-3.606,5.63-4.281,7.051-2.539,15.212-1.474,21.535-.263a52.82,52.82,0,0,1,8.484,2.422c.616.341,1.291.7,2.071,1.121,2.535,1.349,5.409,2.879,6.684,4.155a34.588,34.588,0,0,1,7.792,11.5c1.841,7.811.283,16.937-3.777,22.858A4.771,4.771,0,0,0,503.591,391.669Zm-79.85-32.449a23.453,23.453,0,0,0,4.941,3.234.5.5,0,0,0,.686-.627,16.844,16.844,0,0,0-2.979-5,49.172,49.172,0,0,1,7.545,5.742,18.2,18.2,0,0,0-4,11.108h-.264A64.086,64.086,0,0,0,423.741,359.22Zm-20.307-6.334c7.42,4.114,13.664,11.372,17.866,20.787h-9.067A36.223,36.223,0,0,0,403.434,352.886Zm52.641-17.456c2.622,3.592,5.292,7.371,7.695,10.956-2.086-3.684-4.3-7.292-6.612-10.839.994.1,1.989.165,2.985.179a.573.573,0,0,0,.437-.247.5.5,0,0,0,0-.5l-3.336-5.794a80.83,80.83,0,0,1,23.086,10.211.509.509,0,0,0,.272.08.5.5,0,0,0,.414-.78,27.928,27.928,0,0,1-4.271-10.444,34.161,34.161,0,0,1,12.8,9.849.5.5,0,0,0,.891-.3,64.8,64.8,0,0,0-1.548-16.43l3.723-.423a151.709,151.709,0,0,1,18.889,2.517,34.38,34.38,0,0,0,13,11.016l-6.467,6.115a.5.5,0,0,0,.459.849,27.368,27.368,0,0,1,27.494,9.878,29.371,29.371,0,0,0-14.3,8.62.5.5,0,0,0,.348.836l13.163.578a12.738,12.738,0,0,1-2.1,9.353,14,14,0,0,1-1.161,1.482c-.488.079-.982.159-1.451.237a63.267,63.267,0,0,1-7.968,1.016l-11.974.226h-8.015c-.909-5.475-2.886-10.725-5.55-13.989a26.575,26.575,0,0,0-12.326-8.4,34.045,34.045,0,0,0-8-2.794c-6.27-1.347-13.547-2.673-20.536-1.357a24.828,24.828,0,0,0-8.879,3.549,43.591,43.591,0,0,1-4.92,2.562q-3.4-7.882-7.228-15.571-1.91-3.717-3.89-7.425A38.821,38.821,0,0,0,456.075,335.43ZM265.04,388.007a1.926,1.926,0,0,0-1.783-1.815h-.031a2.02,2.02,0,0,0-1.818,1.992,38.378,38.378,0,0,0-.336,4.343,6.748,6.748,0,0,1-.6,3.431,1.9,1.9,0,0,1-1.993.665c-3.723-.646-6.37-5.8-7.061-10.548a40.142,40.142,0,0,1,.241-11.506,1.455,1.455,0,0,0-.934-1.723,1.149,1.149,0,0,0-1.349.832,27.677,27.677,0,0,0-1.364,9.692,33.838,33.838,0,0,1-.547,6.639,6.065,6.065,0,0,1-.584,1.809,1.535,1.535,0,0,1-1.858.682,5.3,5.3,0,0,1-2.049-1.72c-4.754-5.819-6.7-15.753-4.74-24.1a34.522,34.522,0,0,1,7.778-11.558c1.269-1.276,4.132-2.806,6.657-4.156.776-.415,1.448-.779,2.061-1.119a52.388,52.388,0,0,1,8.45-2.423c6.3-1.211,14.424-2.277,21.446.263a10.309,10.309,0,0,1,5.128,3.447q-2.819,5.754-5.506,11.571c-2,4.479-6.153,13.757-6.783,15.872q1.855-3.694,3.715-7.384a37.777,37.777,0,0,0-.309,15.054c.067.353.138.709.209,1.067.439,2.186.893,4.448.283,6.414a5.872,5.872,0,0,1-2.891,3.371c-3.776,2.06-8.432.69-11.325-3.33A14.271,14.271,0,0,1,265.04,388.007Zm18.587-21.679q1.765-3.507,3.529-7.016c1.112-2.217,2.233-4.46,3.359-6.711a2.781,2.781,0,0,0,.81,1.107c.963.715,2.094.221,3-.176l.161-.069c4.191-1.807,8.6,1.225,11.974,4.07a20.753,20.753,0,0,1,7.363,14c.381,5.277-1.79,10.458-5.371,13.11a22.114,22.114,0,0,0-1.379-14.874.5.5,0,0,0-.949.239,64.266,64.266,0,0,1-.221,12.158c-.16,1.091-.332,2.157-.533,3.175-.3.677-.614,1.333-.953,1.962-2.045,1.791-4.62,3.69-5.287,3.69h-.007c-.459-.011-1.163-.608-1.785-1.136-.961-.815-1.956-1.66-2.953-1.319a5.188,5.188,0,0,0-2.186,1.962,5.417,5.417,0,0,1-1.57,1.579c-1.007.5-2.1-.278-2.734-1.1a12.636,12.636,0,0,1-1.788-4.145,56.235,56.235,0,0,1-1.877-19.38A1.116,1.116,0,0,0,283.627,366.328Zm225.72,21.264-.017.054Zm-230.475-68.5a.5.5,0,0,0,.427.424.4.4,0,0,0,.068,0,.5.5,0,0,0,.458-.3,74.972,74.972,0,0,1,3.909-7.607c4.554-4.3,9.219-8.47,14.041-12.442l-.208,1.881a.5.5,0,0,0,.87.388l2.553-2.857a16.664,16.664,0,0,0,.435,9.444.5.5,0,0,0,.914.067,114.9,114.9,0,0,1,15.931-22.874,11.69,11.69,0,0,0,.418,2.47,13.746,13.746,0,0,0,4.59,6.667c-7.519,9.065-13.9,19.968-18.525,28.119q-6.8,12.246-13.082,24.774c-.635-.351-1.242-.7-1.83-1.044a24.667,24.667,0,0,0-8.846-3.55c-6.962-1.316-14.209.011-20.455,1.358a33.786,33.786,0,0,0-7.973,2.8,29.013,29.013,0,0,0-3.221,1.3c9.421-10.805,19.028-21.455,29.175-31.462Zm-44.606,54.586h-7.05q4.491-5.161,8.958-10.345A41.338,41.338,0,0,0,234.266,373.673Zm-22.448-59.864c.064-.274.112-.555.171-.831C211.93,313.254,211.882,313.535,211.818,313.809Zm225.649,9.713a144.131,144.131,0,0,0-17.289-24.729c2.042,1.166,4.028,2.386,5.853,3.656,9.248,6.442,16.752,15.589,23.417,24.175A112.207,112.207,0,0,0,437.467,323.522Zm-179.939-13.07a.5.5,0,0,0,.918-.058,21.038,21.038,0,0,1,17.235-13.546l2.588,18.036c-11.391,11.183-22.043,23.177-32.472,35.274a25.88,25.88,0,0,0-5.5,5.045,21.37,21.37,0,0,0-2.734,4.562l-.383.447c-2.892,3.488-6.564,8.075-9.735,12.182a116.4,116.4,0,0,1,7.264-13.406.5.5,0,0,0-.56-.748,52.363,52.363,0,0,0-24.476,15.433h-3.745l1.312-12.708a.5.5,0,0,0-.87-.383l-7.574,8.5-.14-7.575a.5.5,0,0,0-.332-.462.5.5,0,0,0-.55.148l-3.941,4.661c.793-7.14,3.02-14.232,6.51-22.971a74.355,74.355,0,0,1,7.431-9.433.5.5,0,0,0-.508-.82l-8.174,2.413a37.245,37.245,0,0,0,11.307-15.227,53.63,53.63,0,0,0-.176,6.516.5.5,0,0,0,.829.36,30.122,30.122,0,0,1,10.594-5.98,32.038,32.038,0,0,0-5.066,15.014.5.5,0,0,0,.875.366c2.745-3.142,5.619-6.235,8.557-9.209a14.644,14.644,0,0,1-2.721,7.3c-1.183,1.148-2.33,2.274-3.385,3.338.625-.533,1.259-1.056,1.885-1.588-.024.024-.046.052-.071.076a.5.5,0,0,0,.3.857c2.253.222,4.517.333,6.78.333a70.982,70.982,0,0,0,35.145-9.33.5.5,0,0,0-.353-.923,233.484,233.484,0,0,1-31.986,4.507,58.754,58.754,0,0,1,13.826-12.836.5.5,0,0,0-.212-.912c-.5-.066-.994-.114-1.492-.159,4.146-3.459,8.368-6.877,12.674-10.2A14.408,14.408,0,0,0,257.528,310.452ZM233.98,177.7c-1.134-.138-2.256-.239-3.372-.317-.334-.046-.669-.076-1-.114a125.91,125.91,0,0,1,23.953-1.318.473.473,0,0,0,.516-.427.5.5,0,0,0-.372-.557c-8.376-2.136-17.1-2.057-24.679-1.376a127.768,127.768,0,0,1,15.339-2.463.5.5,0,0,0,.03-.99,64.594,64.594,0,0,0-14.7-.711,14.328,14.328,0,0,0-2.331-.915,88.225,88.225,0,0,1,18.107-3.351.5.5,0,0,0,.211-.932,38.977,38.977,0,0,0-20.187-5.175,56.549,56.549,0,0,1,41.618-5.177.5.5,0,0,0,.371-.921,56.065,56.065,0,0,0-18.858-6.28,130.348,130.348,0,0,1,31.423,1.528.5.5,0,0,0,.328-.93,62.075,62.075,0,0,0-13.536-5.6,94.83,94.83,0,0,1,31.635,6.519.5.5,0,0,0,.588-.759A44.608,44.608,0,0,0,284.283,134.6l9.184,2.1a.5.5,0,0,0,.485-.819,20.711,20.711,0,0,0-6.388-4.86c7.475-.947,14.809,2.829,22.286,7.141a.5.5,0,0,0,.574-.813,21.191,21.191,0,0,1-2.64-2.933c-1.819-2.282-3.881-4.868-7.815-6.493-.79-.326-1.592-.615-2.4-.883a64.96,64.96,0,0,1,33.018,5.119.5.5,0,0,0,.664-.653,33.587,33.587,0,0,0-5.313-8.614,124.438,124.438,0,0,1,22.451,8.213.5.5,0,0,0,.653-.693l-3.281-5.944L357,132.938a.5.5,0,0,0,.767-.582,13.372,13.372,0,0,1-.892-5.618l4.14,2.13a.5.5,0,0,0,.725-.382l.105-.831.929,3.345a.5.5,0,0,0,.277.323.509.509,0,0,0,.425-.008,84.358,84.358,0,0,1,24.675-7.748,12.331,12.331,0,0,0,1.273,8.608.486.486,0,0,0,.444.256.5.5,0,0,0,.436-.269l3.252-6.253a19.434,19.434,0,0,0,1.058,8.251.5.5,0,0,0,.424.329.482.482,0,0,0,.478-.246c4.017-6.874,11.659-11.889,20.965-13.758a51.881,51.881,0,0,1,12.589-.832c-6.843.944-11.878,3.112-15.314,6.641a.5.5,0,0,0,.562.806,38.444,38.444,0,0,1,8.237-2.583,28.821,28.821,0,0,0-11.426,8.457.5.5,0,0,0,.541.79,38.637,38.637,0,0,1,6.862-1.451.5.5,0,0,0,.29.112,14.294,14.294,0,0,0,5.787-.9l-5.143,6.377a.5.5,0,0,0,.667.73,123.044,123.044,0,0,1,21.857-11.558,48.12,48.12,0,0,0-14.978,14.321.5.5,0,0,0,.74.658,41.116,41.116,0,0,1,22.346-9.6,23.406,23.406,0,0,0-6.483,5.066.5.5,0,0,0,.53.808,89.589,89.589,0,0,1,21.864-4.321,61.737,61.737,0,0,0-15.686,8.891.5.5,0,0,0,.426.88l8.325-2.035-5.9,2.991a.5.5,0,0,0,.274.944,48.627,48.627,0,0,0,29.291-13.7,31.689,31.689,0,0,1-16.076,18.216.5.5,0,0,0,.182.949l5.127.36a22.482,22.482,0,0,0-9.033,5.842.485.485,0,0,0-.121.337,65.916,65.916,0,0,0-14.8,3.922.5.5,0,0,0,.184.964h0c1.161,0,2.607-.087,4.28-.183,1.755-.1,3.677-.21,5.658-.253a49.946,49.946,0,0,0-7.58,4.4.5.5,0,0,0,.288.909.485.485,0,0,0,.124-.016,63.106,63.106,0,0,1,10.387-1.692q-1.389.621-2.738,1.335c-3.372,1.585-6.578,3.636-9.733,5.506-.157.094-.305.182-.423.257.271-.123.544-.244.816-.366q-1.265.682-2.49,1.433a.5.5,0,0,0-.212.585.488.488,0,0,0,.522.338,32.326,32.326,0,0,0,6.383-1.449,13.075,13.075,0,0,0-3.06,4.255.5.5,0,0,0,.7.641,25.762,25.762,0,0,1,10.2-3.174,32.334,32.334,0,0,0-9.895,8.38.5.5,0,0,0,.393.809.494.494,0,0,0,.3-.1A32.99,32.99,0,0,1,460.7,179.6c8.351,1.584,16.463,4.789,23.689,7.664l.576.23-1.992,3.391a.5.5,0,0,0,.379.75c6.081.64,10.822,5.666,14.658,10.5a195.226,195.226,0,0,1,11.538,16.835c.745,1.173,1.5,2.366,2.268,3.56,2.517,6.146,4.889,12.371,7.127,18.624.023.1.047.214.069.318.407,1.886.7,3.213.951,4.142.168,4.353,1.42,9.858,3.776,16.61.415,1.191.843,2.383,1.274,3.579,2.636,7.325,5.359,14.9,5.023,22.619l-10.715-1.675a.5.5,0,0,0-.54.682,31.244,31.244,0,0,1,1.5,18.558A13.985,13.985,0,0,0,505,304.613a.5.5,0,0,0,.072.906A17.194,17.194,0,0,1,514.44,314a78.507,78.507,0,0,0-15.668,1.389,143.372,143.372,0,0,1-16.789-6.753.5.5,0,0,0-.689.615,15.193,15.193,0,0,0,6.586,8.107l-7.221,1.113a.5.5,0,0,0-.367.726l3.287,6.292-12.712-5.517a.5.5,0,0,0-.468.037.5.5,0,0,0-.231.411l-.177,8.652a36.1,36.1,0,0,1-19.385-10.676.5.5,0,0,0-.865.333l-.111,6.1c-6.691-8.858-14.048-17.348-23.118-23.8-3.123-2.062-6.373-4.037-9.728-5.836-.263-.266-.534-.524-.8-.787-.319-.58-.632-1.163-.932-1.755a20.8,20.8,0,0,0,4.5-5.385A41.349,41.349,0,0,1,435.436,296a.5.5,0,0,0,.805-.524l-.69-2.259,5.615,3.933a.5.5,0,0,0,.711-.675l-4.094-6.515a29.355,29.355,0,0,1,21.241,15.483.5.5,0,0,0,.445.273.545.545,0,0,0,.106-.011.5.5,0,0,0,.394-.469l.4-10.025q4.125,1.661,8.238,3.343c1.469.614,3.019,1.277,4.476,1.906q-2.169-1.166-4.366-2.28c-2.43-1.238-5.234-2.592-8.307-4l.358-8.976,26.562,6.431a.5.5,0,0,0,.373-.915l-14.889-8.869c.99-.233,1.986-.433,2.98-.649,2.112.648,4.671,1.47,6.518,2.04q-2.7-1.1-5.412-2.155l-.214-.08a190.26,190.26,0,0,1,44.067-4.123.537.537,0,0,0,.448-.256.5.5,0,0,0-.016-.515A37.147,37.147,0,0,0,501,260.9a54.175,54.175,0,0,1,15.875-7.056.5.5,0,0,0,.275-.781,42.37,42.37,0,0,0-16.322-13.22,8.229,8.229,0,0,1,4.853-1.235.528.528,0,0,0,.5-.327.5.5,0,0,0-.173-.574l-8.307-6.132,9.431-.284a.5.5,0,0,0,.383-.8,97.9,97.9,0,0,0-32.984-27.538,39.167,39.167,0,0,1,12.762-2.48.5.5,0,0,0,.243-.93,42.859,42.859,0,0,0-32.3-4.455l2.249-4.2a.5.5,0,0,0-.531-.728,114.292,114.292,0,0,1-19.47,1.864l-2.817-2.244a22.78,22.78,0,0,0-18.823-3.254l5.651-4.195a.5.5,0,0,0,.176-.56.517.517,0,0,0-.478-.341l-5.341.052a65.7,65.7,0,0,1,10.114-6.557.5.5,0,0,0,0-.887,49.652,49.652,0,0,0-26.226-5.336l7.3-7a.5.5,0,0,0-.3-.859A29.018,29.018,0,0,0,388.84,165.3a19.934,19.934,0,0,0,.647-16.163.5.5,0,0,0-.44-.312.493.493,0,0,0-.467.269c-1.444,2.775-3.025,5.63-4.6,8.439a57.833,57.833,0,0,0-.75-15.094.5.5,0,0,0-.96-.086l-2.515,6.657a22.721,22.721,0,0,1-.784-7.874.5.5,0,0,0-.191-.434,10.96,10.96,0,0,0-2.227-7.934.541.541,0,0,0-.408-.191.5.5,0,0,0-.4.215,40.863,40.863,0,0,0-6.987,19.437,36.46,36.46,0,0,0-6.672-11.224.5.5,0,0,0-.874.278l-.616,5.979a36.159,36.159,0,0,0-20.75-14.458.5.5,0,0,0-.613.576l2.179,11.819a21.794,21.794,0,0,0-9.554-2.781.51.51,0,0,0-.452.236.5.5,0,0,0-.01.509,56.7,56.7,0,0,1,6.046,16.035l-4.83-3.991a.5.5,0,0,0-.81.475l.274,1.493-3.16-2.49a.5.5,0,0,0-.777.569l2.045,5.405a28.438,28.438,0,0,0-16.756-7.7.511.511,0,0,0-.482.249.5.5,0,0,0,.028.541,79.781,79.781,0,0,1,9.894,19l-4.442-2.789a.5.5,0,0,0-.671.716l3.565,4.944a40.2,40.2,0,0,0-25.586,2.816.5.5,0,0,0-.128.82,31.475,31.475,0,0,0,9.521,6.026l-9.321,1.458a.5.5,0,0,0-.086.967l6.3,2.172-2.278.356a.5.5,0,0,0-.127.951l2.6,1.161a43.412,43.412,0,0,0-15.426,5.972l-1.957.125c-6.819.451-13.87.919-20.648-.309a.5.5,0,0,0-.564.65,9.635,9.635,0,0,0,4.6,5.389,66.491,66.491,0,0,0-27.464,8.018.5.5,0,0,0,.24.938h0l9.23-.076a68.6,68.6,0,0,0-11.878,10.115.5.5,0,0,0,.54.811,21.779,21.779,0,0,1,12.986-.672c-.832.459-1.709.868-2.621,1.294A24.846,24.846,0,0,0,243,228.348h0a95.015,95.015,0,0,0-26.966,39.911.5.5,0,0,0,.878.457,12.966,12.966,0,0,1,6.117-4.594l-5.415,7.866a.5.5,0,0,0,.793.607,16.873,16.873,0,0,1,8.628-5.348l-4.25,4.84a.5.5,0,0,0,.5.812l24.42-6.513a64.3,64.3,0,0,0-9.6,27.1.5.5,0,0,0,.875.385l4.57-5.262a101.329,101.329,0,0,0-3.2,20.648.5.5,0,0,0,.947.247A42.553,42.553,0,0,1,253.6,294.6a30.109,30.109,0,0,0-.909,9.214.5.5,0,0,0,.3.432.5.5,0,0,0,.521-.079l2.584-2.207a14.892,14.892,0,0,0,.032,3.917c-4.844,3.753-9.585,7.63-14.255,11.55a36.576,36.576,0,0,0-11.3,1.33,19.972,19.972,0,0,0,2.942-4.778.5.5,0,0,0-.433-.7,40.548,40.548,0,0,0-14.873,2.024,17.8,17.8,0,0,1,4.516-11.353,57.168,57.168,0,0,1,9.486-2.407.5.5,0,0,0,.181-.92,25.567,25.567,0,0,0-28.641,2.023,101.315,101.315,0,0,1,5.785-23.759.5.5,0,0,0-.561-.667l-1.8.335c-4.137.764-9.171,1.694-13.091,3.414,10.3-18.862,12.427-33.15,13.256-42.7.749-1.12,1.478-2.247,2.2-3.363,1.345-2.075,2.735-4.221,4.195-6.248,5.663-7.866,11.783-12.354,18.19-13.341a.5.5,0,0,0,0-.989,31.688,31.688,0,0,0-11.9.46,43.7,43.7,0,0,1,10.5-5.213.5.5,0,0,0-.116-.972l-8.907-.806a27.5,27.5,0,0,1,19.529-1.97.5.5,0,0,0,.395-.909c-3.3-2.006-7.681-2.737-13.371-2.234a46.339,46.339,0,0,0-12.965,3.094,37.936,37.936,0,0,1,11.616-8.124c6.5-3,13.65-4.506,20.4-5.688a.5.5,0,0,0-.074-.993,67.09,67.09,0,0,1-14.308-1.893,53.589,53.589,0,0,1,39.392,1.547.5.5,0,0,0,.433-.9,107.544,107.544,0,0,0-33.933-10.8c5.363-.068,10.758.077,16.093.436a.5.5,0,0,0,.106-.994c-3.342-.5-7.274-1.063-11.082-1.485a49.813,49.813,0,0,0-9.364-.14C234.247,177.732,234.112,177.72,233.98,177.7Z"/></svg>