<?xml version="1.0" encoding="utf-8"?>
<!-- Generator: Adobe Illustrator 24.2.3, SVG Export Plug-In . SVG Version: 6.00 Build 0)  -->
<svg version="1.1" id="eb069a3f-b773-4c19-b96a-786b0eeed11e"
	 xmlns="http://www.w3.org/2000/svg" xmlns:xlink="http://www.w3.org/1999/xlink" x="0px" y="0px" viewBox="0 0 780 480.2"
	 style="enable-background:new 0 0 780 480.2; fill: #215342;" xml:space="preserve" height="330" width="375" transform="translate(-45, -58)">
<style type="text/css">
	.st0{ fill: #215342;stroke:#000000;stroke-width:0;stroke-linecap:round;stroke-linejoin:round;}
</style>
<g>
	<path d="M382.5,222.5c0,0,0,0.1,0.1,0.1c0,0,0,0,0,0.1c0,0,0.1,0.1,0.1,0.1c0,0,0,0,0,0c0,0,0,0,0,0c0.1,0,0.1,0.1,0.2,0.1
		c0,0,0,0,0,0l0,0l0,0c0.2,0,0.5-0.1,0.7-0.1c0,0,0,0,0,0c-0.2,1.7,0,3.4,0.8,5c1,2,2.2,3.8,3.6,5.5c0,0,0,0,0,0
		c0.1,0.1,0.2,0.2,0.4,0.2c0.1,0,0.2,0,0.3-0.1c0.2-0.1,0.3-0.4,0.2-0.7c-1.4-2.5-1.7-5.3-2-8.3c-0.2-2,0.4-4.1,1.6-5.8
		c1.2-1.7,2.7-3.2,4.4-4.4c5.3-3.8,11.8-5.6,18.3-5.1c2.8,0.2,5.5,0.9,8,1.9c0,0,0,0,0,0c-1.9-0.3-3.9-0.4-5.8-0.3
		c-0.9,0-1.9,0-2.8,0c-0.8,0-1.5-0.1-2.3-0.1c-1.6-0.2-3.3-0.2-4.9,0c-4.8,0.6-8.6,3.7-10.9,6.1c-1.7,1.7-3,3.8-3.8,6.1
		c-0.9,3-0.4,6.2,1.3,8.8c0.6,1,1.4,1.9,2.3,2.6c1.5,1.2,3.4,1.8,5.3,1.9l0.1-1c0,0,0,0,0,0c-1.3-0.2-2.6-0.7-3.6-1.5
		c-1-0.8-1.9-1.8-2.4-3.1c-1-2.5-1-5.3,0.1-7.8c1.1-2.5,2.9-4.7,5.1-6.2c5.9-4.3,13.5-5.2,20.2-2.3c0.9,0.3,1.7,0.8,2.4,1.3
		c1.3,0.9,2.3,2,3.1,3.3c1.4,3,1.2,6.5-0.5,9.3c-1.8,2.8-4.3,5.2-7.3,6.7l0.4,0.9l0,0c3-1.2,5.9-2.7,8.7-4.3
		c2.2-1.3,4.3-2.7,5.1-5.1c0.7-2.2,0-4.5-0.6-6.3c-0.8-2.4-2.1-4.5-3.9-6.3c0.7,0.5,1.4,1,2,1.5c0.7,0.5,1.3,1.1,1.9,1.7
		c0,0,0,0,0,0c0.1,0.1,0.1,0.1,0.2,0.1c0,0,0,0,0,0c0.1,0,0.2,0,0.2,0c0,0,0,0,0,0c0.1,0,0.1-0.1,0.2-0.1c0,0,0,0,0.1,0
		c0,0,0-0.1,0-0.1c0,0,0,0,0-0.1c0,0,0-0.1,0-0.1c0,0,0-0.1,0-0.1c0,0,0-0.1,0-0.1c-1.2-3.9-2.4-7.9-4.8-11.4
		c-1-1.5-2.2-2.7-3.5-3.7c-2.1-1.7-4.6-2.6-7-2.7c-0.3,0-0.5,0.2-0.5,0.4c0,0.2,0.1,0.4,0.2,0.5c0.1,0,0.1,0.1,0.2,0.1
		c0.5,0.1,1,0.3,1.5,0.6c0.4,0.3,0.8,0.7,1.1,1.1c-2.1-0.4-4.2-0.5-6.4-0.3c-0.3,0-0.5,0.3-0.5,0.5c0,0.1,0,0.1,0,0.2c0,0,0,0,0,0
		c0,0,0.1,0.1,0.1,0.1l1.7,1.6l-0.2,0.2c-1,0.1-2-0.2-2.9-0.7c0,0,0,0,0,0c-0.1,0-0.1,0-0.2-0.1c0,0-0.1,0-0.1,0
		c-0.1,0-0.1,0-0.2,0.1c-0.1,0-0.1,0.1-0.2,0.2c-0.1,0.1-0.1,0.2-0.1,0.3c0,0,0,0,0,0c0,0.1,0,0.2,0.1,0.3l1.2,1.6
		c-4,0.2-8.5,0.5-12.4,2.3c-6.4,2.8-10.7,8.9-14,14.4c0,0,0,0,0,0.1c0,0,0,0.1,0,0.1C382.5,222.4,382.5,222.4,382.5,222.5
		C382.5,222.5,382.5,222.5,382.5,222.5z"/>
	<path d="M405.4,219.7c0.2-0.4,0.2-0.9,0-1.3c0,0,0,0,0,0c-0.3-0.6-0.8-0.9-1.4-1c-0.8-0.1-1.7,0.2-2.2,0.8c-0.5,0.5-0.9,1.2-1,1.9
		c-0.4,1.4-0.6,2.8-0.6,4.3c0,2.4,0.5,4.8,1.5,7c0.3,0.8,0.9,1.6,1.6,2.1c0.4,0.3,0.9,0.4,1.4,0.4c0.5,0,1.1-0.2,1.4-0.6
		c0.5-0.7,0.8-1.5,0.7-2.4c0-2.9,0.4-5.9,1.1-8.7c0,0,0,0,0,0c0,0,0-0.1,0-0.1c0,0,0-0.1,0-0.1c0,0,0-0.1,0-0.1c0,0,0,0,0-0.1
		c0,0-0.1-0.1-0.1-0.1c0,0,0,0,0,0c0,0-0.1,0-0.1-0.1c0,0,0,0,0,0c0,0,0,0,0,0c0,0,0,0,0,0c-0.5,0-1-0.2-1.5-0.4
		c-0.4-0.2-0.6-0.5-0.7-0.9c0,0,0,0,0,0C405.3,220.1,405.3,219.9,405.4,219.7z"/>
	<path d="M407.8,226.5c0,0.4,0.1,0.8,0.4,1.1c0.2,0.2,0.5,0.3,0.8,0.3c0.1,0,0.2,0,0.3,0c0.3-0.1,0.6-0.2,0.8-0.4
		c1.3-1,2.2-2.6,2.3-4.2c0-0.1,0-0.2,0-0.3c-0.1-0.3-0.3-0.6-0.6-0.7c-0.2-0.1-0.8-0.2-1.2,0.7l-1.1,2.2c0-0.1,0-0.2,0-0.3
		c0-0.4-0.1-0.9-0.2-1.3c-0.1-0.2-0.2-0.3-0.5-0.4c-0.2,0-0.4,0.1-0.5,0.3c-0.4,1-0.5,2-0.6,3C407.8,226.4,407.8,226.4,407.8,226.5z
		"/>
	<path d="M503.5,195.9C503.4,195.8,503.4,195.8,503.5,195.9c-0.5-0.5-1.2-0.7-1.8-0.6c-0.9,0.1-1.8,0.5-2.3,1.3
		c-0.5,0.6-0.8,1.3-0.8,2c-0.3,2.3,0,4.7,1,6.8c0.6,1.3,1.4,2.4,2.3,3.4c0.6,0.7,1.4,1.2,2.3,1.5c0.3,0.1,0.6,0.1,0.9,0.1
		c0.9,0,1.7-0.3,2.3-0.9c0.5-0.7,0.6-1.6,0.3-2.4c-0.6-2.7-0.7-5.5-0.4-8.2c0-0.1,0-0.1,0-0.2c0,0,0-0.1,0-0.1c0,0,0-0.1,0-0.1
		c0,0,0-0.1-0.1-0.1c0,0,0,0-0.1,0c0,0-0.1,0-0.1-0.1c0,0,0,0-0.1,0c0,0,0,0-0.1,0c0,0-0.1,0-0.1,0c-0.6,0.1-1.3,0.1-1.9,0
		c-0.5-0.1-0.9-0.3-1-0.6c0,0,0,0,0,0c0-0.2,0-0.4,0-0.5C503.8,196.7,503.7,196.2,503.5,195.9z"/>
	<path d="M441.7,209.7C441.7,209.7,441.7,209.7,441.7,209.7c-0.1-0.2-0.3-0.3-0.5-0.3c-0.2,0-0.4,0.2-0.5,0.4
		c-0.5,1.6-1.5,3.1-2.9,4c0,0,0,0,0,0c-0.2-1.9-0.8-3.9-1.8-5.4c-0.8-1.2-1.8-2-3.1-2.3c-0.1,0-0.2,0-0.2,0c0,0,0,0,0,0
		c-0.1,0-0.1,0-0.2,0.1c0,0,0,0,0,0c0,0-0.1,0.1-0.1,0.1c0,0,0,0,0,0.1c0,0,0,0.1,0,0.1c0,0,0,0,0,0c0,0.1,0,0.1,0,0.2
		c0,0,0,0,0,0.1c1.5,5.3,1.4,10.9-0.5,16.1c0,0.1,0,0.2,0,0.2c0,0,0,0,0,0.1c0,0.1,0,0.1,0.1,0.2c0,0,0,0,0,0.1c0,0,0,0,0.1,0.1
		c0,0,0.1,0,0.1,0.1c0,0,0,0,0,0c0,0,0,0,0,0c0.1,0,0.1,0,0.2,0c0,0,0,0,0,0c0.1,0,0.2,0,0.2-0.1c0.5-0.4,1-0.9,1.4-1.5c0,0,0,0,0,0
		c0.1,2.5-0.2,5.1-1,7.5c0,0.1,0,0.2,0,0.3c0,0,0,0,0,0c0,0.1,0.1,0.2,0.2,0.2c0,0,0,0,0.1,0c0,0,0.1,0,0.1,0.1c0,0,0.1,0,0.1,0
		c0,0,0,0,0,0c0.1,0,0.2,0,0.3-0.1c3.3-2.6,5-6.7,4.6-10.8l0,0l1.4,1.2c0.1,0.1,0.1,0.1,0.2,0.1c0,0,0,0,0.1,0c0.1,0,0.1,0,0.2,0
		c0,0,0,0,0.1,0c0,0,0,0,0.1,0c0,0,0.1,0,0.1-0.1c0,0,0,0,0,0c0,0,0,0,0,0c0-0.1,0.1-0.1,0.1-0.2c0,0,0,0,0,0c0-0.1,0-0.2,0-0.2
		l-0.5-1.3c0,0,0,0,0,0c0.4,0.4,0.9,0.7,1.4,0.9c0,0,0,0,0,0c0,0,0.1,0,0.1,0c0,0,0.1,0,0.1,0c0,0,0.1,0,0.1,0c0,0,0.1,0,0.1,0
		c0,0,0.1,0,0.1,0c0,0,0,0,0.1,0c0,0,0.1-0.1,0.1-0.1c0,0,0,0,0,0c0,0,0,0,0,0c0,0,0,0,0,0c0.3-0.7,0.4-1.6,0.2-2.3l0,0l7,2.5
		c0.1,0,0.1,0,0.2,0c0,0,0,0,0.1,0c0,0,0.1,0,0.1-0.1c0,0,0.1,0,0.1-0.1c0,0,0,0,0.1-0.1c0,0,0-0.1,0.1-0.1c0,0,0,0,0,0c0,0,0,0,0,0
		c0-0.1,0-0.1,0-0.2c0,0,0,0,0,0c0-0.1,0-0.1-0.1-0.2c-2-2.7-3.4-5.7-4.2-8.9c-0.1-0.2-0.3-0.4-0.5-0.4c0,0,0,0,0,0
		c-0.2,0-0.4,0.2-0.5,0.4l-0.7,3.4l0,0C443.1,212.2,442.2,211,441.7,209.7z"/>
	<path d="M527.5,186.9c-4.1-2.1-8.4-3.7-12.8-4.8c-3.9-1.1-7.9-1.5-11.9-1.3c-4.1,0.2-8,1.5-11.3,3.8c-2.1,1.6-4,3.5-5.4,5.7
		c-2.6,3.7-4.2,7.9-4.8,12.3c-0.6,4.1,0.1,8.3,2.2,11.9l0,0c0,0,0,0,0,0c0,0,0.1,0.1,0.1,0.1c1.3,1.2,2.6,1.1,3.9,0.8
		c0,0,0.1,0,0.1,0c0.1,0,0.3-0.1,0.4-0.1c0.4-0.1,0.8-0.2,1.2-0.2c1.4,0,2.8,0.2,4.1,0.7c0.4,0.1,0.8,0.2,1.1,0.3
		c1.8,0.5,3.6,0.7,5.4,0.7c1.8,0,3.5-0.2,5.3-0.6c1.7-0.4,3.4-1.1,4.9-1.9c0,0,0,0,0.1-0.1c0,0,0,0,0.1-0.1c0,0,0-0.1,0.1-0.1
		c0,0,0,0,0,0c0,0,0-0.1,0-0.1c0,0,0,0,0-0.1c0,0,0-0.1,0-0.1c0,0,0,0,0-0.1c0,0,0,0,0,0c0,0,0-0.1-0.1-0.1c0,0,0,0,0,0
		c0,0-0.1-0.1-0.1-0.1c0,0,0,0,0,0c0,0-0.1,0-0.2,0c0,0,0,0,0,0c-0.1,0-0.1,0-0.2,0c0,0,0,0,0,0c-0.9,0.3-1.9,0.6-2.8,0.8
		c-2.9,0.6-5.8,0.6-8.7,0.1c-3.8-0.7-7.5-1.7-11.1-3c0.1-3.9,0.3-8.4,2.1-12.1c2.5-4.7,6.8-8.1,12-9.2c0,0,0,0,0,0
		c5.2-1.1,10.6-0.7,15.5,1.1c0.3,0.1,0.6,0.2,0.9,0.3c1.4,0.4,2.8,0.8,3.3,2c2.7,6.3,0.1,12.4-7.6,18.2l-0.3,0.3
		c-0.1,0-0.1,0.1-0.1,0.1c0,0,0,0,0,0c0,0.1-0.1,0.1-0.1,0.2c0,0,0,0,0,0c0,0.1,0,0.1,0,0.2c0,0,0,0,0,0c0,0,0,0.1,0.1,0.1
		c0,0,0,0,0,0c0,0,0,0,0,0c0,0,0.1,0.1,0.1,0.1c0,0,0,0,0.1,0c0,0,0.1,0,0.1,0c0,0,0.1,0,0.1,0c0,0,0.1,0,0.1,0c0.1,0,0.1,0,0.2-0.1
		c3.2-1.6,13.4-7.7,10.8-18.6c-0.6-2.5-2.9-4-5.3-5.4c-6.4-3.5-13.9-3.9-20.5-1.4c-3,1.1-5.8,2.8-8.2,5.1c-2.4,2.3-4.3,5-5.6,8.1
		c0,0,0,0,0,0c0.4-1.4,0.8-2.7,1.4-4.1c2.2-5,4.7-8.4,10.9-10.5c3.3-1.1,7.9-2.1,11.6-2c0.5,0,1,0,1.5,0.1c6.2,0.7,12,3.5,16.4,7.9
		c0.1,2.4-0.3,4.9-1.1,7.1c0,0.1,0,0.1,0,0.2c0,0,0,0,0,0c0,0.1,0,0.1,0,0.2c0,0,0,0,0,0c0,0,0.1,0.1,0.1,0.1c0,0,0,0,0.1,0
		c0,0,0.1,0,0.1,0.1c0,0,0,0,0,0c0,0,0.1,0,0.1,0c0,0,0.1,0,0.1,0c0,0,0.1,0,0.1,0c0,0,0,0,0.1,0c0,0,0.1,0,0.1-0.1c0,0,0,0,0,0
		c0,0,0.1-0.1,0.1-0.2c1.4-3.2,5-7.3,7.8-9.8c0.2-0.1,0.2-0.4,0.1-0.6c-0.1-0.2-0.3-0.3-0.5-0.3c0,0,0,0,0,0c0,0,0,0,0,0
		c-2,0.2-4-0.8-5.9-1.8L527.5,186.9z"/>
	<path d="M586.9,205.2c-1.8-0.2-3.6,0.1-5.2,0.9c-0.1,0.1-0.2,0.2-0.3,0.3c0,0,0,0,0,0c0,0.1,0,0.1,0,0.2c0,0,0,0,0,0
		c0,0.1,0,0.1,0,0.2c0,0,0,0,0,0c0,0,0,0,0,0c0,0.1,0.1,0.1,0.1,0.1c0,0,0,0,0,0c0,0,0.1,0.1,0.1,0.1c0,0,0,0,0.1,0l7.5,2.3l0,0
		l-1.8,0.5c-0.1,0-0.1,0-0.1,0.1c0,0,0,0,0,0c0,0-0.1,0.1-0.1,0.1c0,0,0,0,0,0.1c0,0,0,0.1,0,0.1c0,0,0,0,0,0.1c0,0,0,0.1,0,0.1
		c0,0,0,0,0,0c0,0,0,0,0,0c0,0.1,0,0.1,0.1,0.2c0,0,0,0,0,0c0,0.1,0.1,0.1,0.2,0.1c0,0,0,0,0,0l6.1,2.5l0,0l-3.9,1.3
		c0,0-0.1,0-0.1,0c0,0-0.1,0-0.1,0.1c0,0,0,0.1-0.1,0.1c0,0,0,0.1-0.1,0.1c0,0,0,0.1,0,0.1c0,0,0,0,0,0.1c0,0,0,0.1,0,0.1
		c0,0,0,0,0,0c0,0,0,0,0,0c0,0.1,0.1,0.1,0.1,0.2c0,0,0,0,0,0c0.1,0,0.1,0.1,0.2,0.1c0,0,0,0,0,0c2.7,0.7,5.3,1.9,7.6,3.5
		c2.9,2.1,5.3,4.8,7,8l-5.9-0.4c-0.3,0-0.5,0.2-0.5,0.4c0,0.2,0,0.4,0.2,0.5c0,0,0.1,0.1,0.2,0.1c1.8,0.6,3.5,1.6,4.9,2.7
		c2.5,1.9,4.4,4.5,5.5,7.5c0,0.1,0.1,0.2,0.2,0.2c0.1,0.1,0.2,0.1,0.3,0.1c0,0,0.1,0,0.1,0c0.3-0.1,0.4-0.3,0.3-0.6
		c-1.9-8.9-5-17.5-9.2-25.5l3.3,0.8c0.2,0.1,0.5-0.1,0.6-0.3c0.1-0.2,0.1-0.5-0.1-0.6c-0.3-0.3-0.6-0.5-1-0.8
		c-2.3-1.7-4.9-2.9-7.7-3.6c0,0,0,0,0,0c2.7-0.7,5.2-2.3,7-4.5c0.1-0.1,0.1-0.1,0.1-0.2c0,0,0,0,0,0c0-0.1,0-0.1,0-0.2
		c0,0,0,0,0-0.1c0,0,0-0.1-0.1-0.1c0,0,0,0-0.1-0.1c0,0,0,0,0,0c0,0,0,0,0,0c0,0-0.1-0.1-0.2-0.1c0,0,0,0,0,0c-0.1,0-0.2,0-0.2,0
		c-3.5,1-7,1.7-10.6,2.1C589.7,204.7,588.3,204.9,586.9,205.2z"/>
	<path d="M552,119.6C552,119.6,552,119.6,552,119.6c2.3-0.4,4.4-1.6,5.8-3.4c0,0,0,0,0,0c-0.1,0.8,0.1,1.5,0.4,2.2l-2,9.3
		c0,0.1,0,0.2,0,0.3c0,0,0,0,0,0c0,0.1,0.1,0.1,0.1,0.1c0,0,0,0,0,0c0,0,0.1,0,0.1,0.1c0,0,0,0,0.1,0c0,0,0,0,0,0c0,0,0.1,0,0.1,0
		c0,0,0,0,0.1,0c0,0,0.1,0,0.1,0c0,0,0,0,0.1,0l3-1.5l0,0l-1.1,4.7c0,0.1,0,0.2,0,0.3c0,0,0,0,0,0c0,0.1,0.1,0.1,0.1,0.1
		c0,0,0,0,0,0c0,0,0.1,0,0.1,0.1c0,0,0,0,0.1,0c0,0,0,0,0,0c0,0,0,0,0,0c0.1,0,0.2,0,0.3,0l1.7-0.8l0,0l-1.4,15.8
		c0,0.1,0,0.2,0.1,0.3c0,0,0,0,0,0c0,0.1,0.1,0.1,0.2,0.2c0,0,0,0,0,0c0,0,0.1,0,0.1,0.1c0,0,0,0,0.1,0c0,0,0,0,0,0c0,0,0,0,0,0
		c0.1,0,0.1,0,0.2,0c0,0,0,0,0,0c0.1,0,0.1-0.1,0.2-0.2c1.4-2.1,3.2-3.9,5.3-5.4l0,0l-2.2,6.2c-0.1,0.2,0,0.4,0.1,0.5
		c0,0,0.1,0.1,0.1,0.1c0,0,0,0,0,0c0,0,0,0,0,0c0,0,0.1,0,0.1,0c0,0,0,0,0,0c0,0,0.1,0,0.1,0c0,0,0,0,0.1,0
		c6.1-2.4,11.8-5.5,17.2-9.2c0,0,0,0,0,0c-2.1,8.2-2.1,16.8-0.1,25c0,0.1,0.1,0.2,0.2,0.3c0,0,0,0,0,0c0,0,0.1,0,0.1,0
		c0,0,0,0,0.1,0c0,0,0.1,0,0.1,0c0,0,0.1,0,0.1,0c0,0,0,0,0,0c0,0,0,0,0,0c0,0,0.1,0,0.1,0c0,0,0,0,0,0c0,0,0.1-0.1,0.1-0.1
		c0,0,0,0,0,0c0.1-0.1,0.1-0.2,0.1-0.3c0-1,0.2-1.9,0.6-2.8c0,0,0,0,0,0c1.3,2.7,1.1,5.8-0.5,8.3c-0.1,0.1-0.1,0.2-0.1,0.3
		c0,0,0,0,0,0c0,0.1,0,0.1,0,0.2c0,0,0,0,0,0c0,0,0.1,0.1,0.1,0.1c0,0,0,0,0,0c0,0,0,0,0.1,0.1c0,0,0,0,0,0c0.1,0,0.1,0.1,0.2,0.1
		c0,0,0,0,0,0c0,0,0,0,0,0c0,0,0,0,0.1,0c4-0.7,7.6-3.1,9.7-6.6l0,0l0.6,3.3c0,0.2,0.2,0.4,0.4,0.4c0,0,0,0,0,0
		c0.2,0,0.4-0.1,0.5-0.2c3.6-6.5,3-14.5,2-21.4c-1.1-7.2-0.1-21,1.5-27.7c0-0.2,0-0.3-0.1-0.5c-0.1-0.1-0.3-0.2-0.4-0.2c0,0,0,0,0,0
		c-2.1,0.3-2.7,3.9-3.4,7.7c-0.1,0.6-0.2,1.3-0.3,1.9c0,0,0,0.1,0,0.1c0.1-0.7,0.1-1.5,0.2-2.3c0.6-6.8,1.6-17.1,0.1-24.6
		c0-0.2-0.3-0.4-0.5-0.4c0,0,0,0,0,0c-0.5,0-0.5,0-1.1,3.7c-0.4,2.3-1.1,6.5-1.6,8.8c0,0,0,0,0,0c-0.1-1.9,0-4.1,0.1-6.3
		c0.4-9.5,0.8-21.3-11.4-31.3c-0.1-0.1-0.2-0.1-0.3-0.1c0,0-0.1,0-0.1,0c0,0-0.1,0-0.1,0c0,0-0.1,0-0.1,0c0,0,0,0-0.1,0
		c0,0,0,0-0.1,0.1c0,0,0,0,0,0c0,0,0,0,0,0.1c-0.1,0.1-0.1,0.2-0.1,0.3c1,4.8,0.8,9.8-0.6,14.5c0,0,0,0,0,0
		c-0.8-4.1-2.7-7.9-5.5-11.1c-0.1-0.1-0.2-0.2-0.3-0.2c0,0,0,0-0.1,0c0,0-0.1,0-0.1,0c0,0-0.1,0-0.1,0c0,0-0.1,0-0.1,0c0,0,0,0,0,0
		c-0.1,0.1-0.1,0.2-0.2,0.3c-1.1,8.2-2.8,16.3-5.2,24.3c0,0,0,0,0,0c-1-2.1-1.6-4.4-1.7-6.8c0-0.2-0.2-0.4-0.4-0.5
		c-0.1,0-0.1,0-0.2,0c-0.2,0-0.3,0.1-0.4,0.3c-3,7.9-7.1,15.4-12.2,22.1c-0.1,0.2-0.1,0.4,0,0.6C551.6,119.5,551.8,119.6,552,119.6z
		"/>
	<path d="M489.8,171.2c0.2-2.1,1.2-4.1,2.7-5.5c0.1-0.1,0.1-0.2,0.1-0.3c0,0,0,0,0,0c0-0.1,0-0.2,0-0.3c0,0,0,0,0,0
		c0,0,0-0.1-0.1-0.1c0,0,0,0,0,0c-0.1-0.1-0.1-0.1-0.2-0.1c0,0,0,0-0.1,0c-0.1,0-0.2,0-0.3,0c-2.6,1.4-5,3-7.3,4.9c0,0,0,0,0,0
		c0.1-1.4,0.5-2.7,1.1-4c0-0.1,0.1-0.2,0-0.3c0,0,0,0,0,0c0-0.1,0-0.2-0.1-0.2c0,0,0,0,0,0c0,0,0,0,0,0c0,0-0.1-0.1-0.1-0.1
		c0,0,0,0,0,0c-0.1,0-0.1,0-0.2,0c0,0,0,0-0.1,0c-0.1,0-0.2,0-0.2,0.1c-3.1,2.4-5.6,5.5-7.3,9c-0.2,0.4-0.4,0.7-0.8,0.9c0,0,0,0,0,0
		c0,0-0.1,0-0.1,0c-0.1-0.1-0.2-0.5-0.2-0.7l-0.2-8.8c0-0.1,0-0.2-0.1-0.3c0,0,0,0,0,0c0-0.1-0.1-0.1-0.2-0.2c0,0,0,0,0,0
		c0,0-0.1,0-0.1,0c0,0-0.1,0-0.1,0c0,0,0,0,0,0c0,0,0,0,0,0c-0.1,0-0.2,0-0.2,0.1c0,0,0,0,0,0c-0.1,0-0.1,0.1-0.2,0.2
		c-1.8,4-2.8,8.3-2.9,12.6c0,0,0,0,0,0c-0.2-0.2-0.5-0.4-0.8-0.4c-0.3,0-0.6,0.1-0.9,0.2c-0.2,0.1-0.3,0.3-0.2,0.5l0.7,8.9
		c0,0.2,0.2,0.4,0.4,0.5c0,0,0,0,0,0c0.2,0,0.5-0.1,0.5-0.3c0.4-1.1,1.1-2,2-2.7c0,0,0,0,0,0c0.3,1,0.3,2.1,0.1,3.2
		c0,0.2,0.1,0.5,0.3,0.6c0.1,0,0.1,0,0.2,0c0,0,0,0,0,0c0.2,0,0.3-0.1,0.4-0.2c1.5-2.1,3.5-3.8,5.7-5c0,0,0,0,0,0l-0.9,4.1
		c0,0,0,0.1,0,0.1c0,0.1,0,0.1,0,0.1c0,0,0,0.1,0,0.1c0,0.1,0.1,0.1,0.1,0.1c0.1,0.1,0.1,0.1,0.2,0.1c0,0,0,0,0,0c0,0,0,0,0,0
		c0.1,0,0.2,0,0.2,0c0,0,0.1,0,0.1,0c0.1,0,0.1-0.1,0.1-0.1c0,0,0,0,0.1,0c1.1-1.6,2.6-2.9,4.3-3.7c0,0,0,0,0,0
		c-0.4,0.6-0.7,1.3-0.9,2c0,0.1,0,0.2,0,0.3c0,0,0,0,0,0.1c0,0,0.1,0.1,0.1,0.1c0,0,0,0,0,0c0,0,0.1,0,0.1,0.1c0,0,0,0,0,0
		c0,0,0,0,0,0c0,0,0.1,0,0.1,0c0,0,0.1,0,0.1,0c0,0,0.1,0,0.1,0c0,0,0.1,0,0.1,0c10.4-7.4,23.1-10.4,35.5-8.6
		c2.9,0.4,5.7,1.1,8.5,2.1c0,0,0,0,0,0c0.1,0,0.2,0,0.3,0c0,0,0,0,0,0c0.1,0,0.2-0.1,0.2-0.1c0,0,0,0,0,0c0,0,0,0,0,0
		c0,0,0.1-0.1,0.1-0.2c0,0,0-0.1,0-0.1c0,0,0-0.1,0-0.1c0,0,0-0.1,0-0.1c0,0,0-0.1-0.1-0.1c0,0,0,0,0-0.1c-3.6-3.2-8.1-5.3-12.8-6
		c-1.1-0.2-2.1-0.3-3.2-0.4c-3.2-0.4-6.4-0.5-9.5-0.4c0,0,0,0,0,0c2.6-1.9,5.5-3.1,8.7-3.5c0.1,0,0.2-0.1,0.2-0.1c0,0,0,0,0,0
		c0.1-0.1,0.1-0.1,0.1-0.2c0,0,0,0,0,0c0,0,0-0.1,0-0.1c0,0,0,0,0-0.1c0,0,0,0,0-0.1c0,0,0-0.1-0.1-0.1c0,0,0-0.1-0.1-0.1
		c0,0-0.1-0.1-0.2-0.1c0,0,0,0,0,0c-1-0.3-2-0.5-3-0.6c-3.1-0.4-6.2-0.3-9.2,0.4C497,168.6,493.4,169.8,489.8,171.2
		C489.8,171.2,489.8,171.2,489.8,171.2z"/>
	<path d="M391.8,199.6c0,0.1,0,0.2,0.1,0.2c0,0,0,0,0,0c0,0,0,0,0,0c0,0.1,0.1,0.1,0.1,0.1c0,0,0,0,0,0c0,0,0,0,0.1,0
		c0,0,0.1,0,0.1,0c0,0,0.1,0,0.1,0c0,0,0.1,0,0.1,0c0.1,0,0.1,0,0.2-0.1c0,0,0,0,0,0l0,0c11-8,26.1-6.9,35.8,2.7
		c0.1,0.1,0.1,0.1,0.2,0.1c0,0,0,0,0,0c0,0,0.1,0,0.1,0c0,0,0,0,0.1,0c0,0,0,0,0.1,0c0,0,0.1,0,0.1,0c0,0,0.1,0,0.1-0.1
		c0,0,0,0,0.1-0.1c0,0,0-0.1,0.1-0.1c0,0,0,0,0-0.1c0,0,0-0.1,0-0.1c0,0,0,0,0,0c0,0,0,0,0-0.1c0,0,0,0,0,0l-0.8-3.8l0,0l2.9,2.2
		c0.3,0.3,0.7,0.4,1.2,0.3c0.1,0,0.3-0.1,0.5-0.4c0.2-0.2,0.3-0.6,0.2-1.2l-0.4-2.5l0,0l1.2,1.2c0.1,0.1,0.2,0.1,0.2,0.1
		c0,0,0,0,0,0c0.1,0,0.2,0,0.2,0c0,0,0,0,0,0c0,0,0.1,0,0.1-0.1c0,0,0,0,0,0c0,0,0,0,0,0c0,0,0,0,0,0c0.1-0.1,0.1-0.1,0.1-0.2
		c0,0,0,0,0,0c0-0.1,0-0.2,0-0.3c-2.2-5.7-5.5-10.9-9.8-15.3c-0.1-0.1-0.2-0.1-0.3-0.2c0,0,0,0,0,0c-0.1,0-0.1,0-0.1,0c0,0,0,0,0,0
		c0,0-0.1,0-0.1,0.1c0,0,0,0,0,0c0,0,0,0,0,0c0,0,0,0,0,0.1c0,0,0,0.1-0.1,0.1c0,0,0,0,0,0c0,0.1,0,0.3,0.1,0.4l1.6,2.8l0,0
		c-3.9-1.7-8.2-2.5-12.5-2.2c0,0,0,0,0,0c-0.1,0-0.1,0-0.2,0.1c0,0,0,0-0.1,0c0,0-0.1,0.1-0.1,0.1c0,0,0,0,0,0.1c0,0,0,0.1,0,0.1
		c0,0,0,0,0,0.1c0,0,0,0,0,0.1c0,0,0,0,0,0.1c0,0,0,0.1,0,0.1c0,0,0,0.1,0.1,0.1c0,0,0.1,0.1,0.1,0.1c0,0,0,0.1,0.1,0.1l3.9,2.1l0,0
		h-2.8c0,0,0,0,0,0c-0.1,0-0.1,0-0.2,0.1c0,0,0,0-0.1,0c-0.1,0-0.1,0.1-0.2,0.2c0,0,0,0,0,0c0,0.1,0,0.1,0,0.2c0,0,0,0,0,0.1
		c0,0.1,0,0.1,0,0.2c0,0,0,0.1,0.1,0.1c0,0,0.1,0.1,0.1,0.1c0,0,0,0,0,0l3.6,1.6l0,0c-7-0.7-14.1,0.3-20.7,2.8
		c-0.1,0-0.1,0.1-0.2,0.1c0,0,0,0,0,0c0,0,0,0.1-0.1,0.1c0,0,0,0.1,0,0.1c0,0,0,0,0,0.1c0,0,0,0.1,0,0.1c0,0,0,0,0,0
		c0,0,0,0.1,0,0.1c0,0,0,0,0,0.1c0,0,0,0,0,0c0,0.1,0.1,0.1,0.1,0.1c0,0,0,0,0,0c0.1,0.1,0.2,0.1,0.4,0.1l3.6-0.4l0,0
		c-3.8,1.8-6.9,4-8.4,6c-0.3,0.4-0.5,0.7-0.6,1.1C391.8,199.5,391.8,199.5,391.8,199.6C391.8,199.6,391.8,199.6,391.8,199.6z"/>
	<path d="M532.1,212.4c0-0.1-0.1-0.2-0.2-0.3c-0.2-0.1-0.4-0.1-0.5,0l0,0c-1.2,0.8-2.4,1.4-3.8,1.9c0.6-0.8,1.1-1.6,1.5-2.6
		c0,0,0,0,0-0.1c0-0.1,0-0.1,0-0.2c0,0,0-0.1,0-0.1c0,0,0-0.1-0.1-0.1c-0.1-0.1-0.1-0.1-0.2-0.2c-0.1,0-0.2,0-0.3,0c0,0,0,0,0,0
		c-0.1,0-0.2,0.1-0.2,0.1c0,0,0,0,0,0c-0.3,0.3-0.6,0.6-1,0.9c0,0,0,0,0,0c0.8-1.2,1.4-2.6,1.6-4c0-0.1,0-0.3-0.1-0.4c0,0,0,0,0,0
		c0,0-0.1-0.1-0.1-0.1c0,0,0,0,0,0c-0.1,0-0.1-0.1-0.2-0.1c0,0,0,0,0,0c0,0,0,0,0,0c-0.1,0-0.2,0-0.2,0c0,0,0,0,0,0
		c-0.1,0-0.1,0.1-0.2,0.1c0,0,0,0,0,0c-1,0.9-2,1.9-3.1,2.7c-3.1,2.7-6.4,5.2-9.9,7.4c-2.2,1.4-4.8,2.8-7.2,2.2c0,0-0.1,0-0.1,0
		c0,0-0.1,0-0.1,0c0,0-0.1,0-0.1,0c0,0-0.1,0-0.1,0.1c0,0,0,0-0.1,0.1c0,0-0.1,0.1-0.1,0.1c0,0,0,0,0,0.1c0,0,0,0,0,0.1
		c0,0,0,0,0,0.1c0,0,0,0.1,0,0.1c0,0,0,0.1,0,0.1c0,0,0,0,0,0c0,0.1,0,0.1,0.1,0.2l0.6,0.6l0,0c-1.5-0.1-3-0.3-4.5-0.7
		c0,0-0.1,0-0.1,0c0,0-0.1,0-0.1,0c0,0-0.1,0-0.1,0c0,0-0.1,0-0.1,0.1c0,0,0,0-0.1,0.1c0,0-0.1,0.1-0.1,0.1c0,0,0,0,0,0.1
		c0,0,0,0,0,0.1c0,0,0,0,0,0.1c0,0,0,0.1,0,0.1c0,0,0,0.1,0,0.1c0,0,0,0,0,0c0,0.1,0,0.1,0.1,0.2l0.4,0.5l0,0
		c-4.5,0.6-9.1-0.4-13-2.8c0,0-0.1,0-0.1,0c0,0-0.1,0-0.1,0c0,0-0.1,0-0.1,0c0,0-0.1,0-0.1,0c0,0-0.1,0-0.1,0c0,0-0.1,0-0.1,0.1
		c0,0,0,0-0.1,0.1c0,0,0,0,0,0c0,0,0,0,0,0.1c0,0,0,0.1,0,0.1c0,0,0,0.1,0,0.1c0,0,0,0.1,0,0.1c0,0,0,0.1,0,0.1l1.3,2.4l0,0
		c-2.7,0.3-5.5-0.9-7-3.1c0,0-0.1-0.1-0.1-0.1c0,0-0.1-0.1-0.1-0.1c0,0-0.1,0-0.1,0c0,0-0.1,0-0.1,0c0,0-0.1,0-0.1,0c0,0,0,0,0,0
		c-0.1,0-0.1,0-0.2,0.1c0,0,0,0,0,0c0,0,0,0,0,0c-0.1,0-0.1,0.1-0.1,0.1c0,0,0,0.1,0,0.1c0,0,0,0.1,0,0.2c0,0,0,0.1,0,0.1l0.4,3.2
		l0,0c-1.9-0.6-3.4-2.1-4-4c-0.1-0.2-0.3-0.4-0.5-0.4c-0.1,0-0.2,0-0.3,0.1c-0.1,0.1-0.1,0.2-0.2,0.3c-0.5,2.5-1.4,4.9-2.6,7.1
		c-0.1,0.1-0.1,0.3,0,0.5c0.1,0.1,0.2,0.2,0.4,0.3c0.8,0.1,1.6,0.1,2.4,0c-0.7,1.3-1.5,2.5-2.5,3.6c-0.1,0.1-0.1,0.2-0.1,0.2
		c0,0,0,0,0,0c0,0.1,0,0.1,0,0.2c0,0,0,0,0,0c0,0.1,0,0.1,0.1,0.2c0,0,0,0,0,0c0,0,0,0.1,0.1,0.1c0,0,0,0,0.1,0c0,0,0.1,0,0.1,0
		c0,0,0.1,0,0.1,0c1.6,0.3,3.3,0.3,4.9,0.1c0,0,0,0,0,0l-2.7,1.8l0,0c-0.1,0.1-0.1,0.1-0.2,0.2c0,0,0,0,0,0c0,0.1,0,0.1,0,0.2
		c0,0,0,0,0,0c0,0.1,0,0.1,0,0.2c0,0,0,0,0,0c0,0,0,0.1,0,0.1c0,0,0,0,0,0c0,0,0.1,0.1,0.1,0.1c0,0,0,0,0.1,0.1
		c0.3,0.1,0.7,0.2,1.1,0.2c1.3-0.1,2.5-0.6,3.6-1.4c5.1-3.1,11.1-4.3,16.9-5.2c1.1-0.2,2.2-0.3,3.3-0.5c4.9-0.5,9.7-1.5,14.5-2.9
		c4.5-1.6,8.3-3.9,11-6.8c1.2-1.3,2.2-2.8,3-4.3c0,0,0-0.1,0-0.1c0,0,0-0.1,0-0.1C532.2,212.6,532.1,212.5,532.1,212.4
		C532.1,212.5,532.1,212.4,532.1,212.4z"/>
	<path d="M430.5,230.1C430.5,230.1,430.5,230.1,430.5,230.1c-0.1-0.1-0.1-0.2-0.2-0.2c0,0,0,0,0,0c0,0,0,0-0.1,0c-0.1,0-0.1,0-0.2,0
		c0,0,0,0-0.1,0c-0.1,0-0.2,0-0.2,0.1c-4.2,3.6-9,6.4-14.1,8.4c-0.7,0.3-1.5,0.6-2.2,0.8l0.3-0.4c0.1-0.1,0.1-0.2,0.1-0.3
		c0,0,0,0,0,0c0-0.1,0-0.2-0.1-0.3c0,0,0,0,0,0c0,0,0,0,0,0c0,0,0-0.1-0.1-0.1c0,0,0,0,0,0c-0.1,0-0.1-0.1-0.2-0.1c0,0-0.1,0-0.1,0
		c-0.1,0-0.2,0-0.2,0.1c0,0,0,0,0,0c0,0,0,0,0,0c-1.2,0.6-2.4,1.2-3.6,1.7c-1.2,0.5-2.5,0.9-3.8,1.2l0.2-0.2
		c0.1-0.1,0.1-0.2,0.1-0.3c0,0,0,0,0,0c0-0.1,0-0.2-0.1-0.3c0,0,0,0,0,0c0,0,0,0,0,0c0,0,0-0.1-0.1-0.1c0,0,0,0,0,0
		c-0.1-0.1-0.1-0.1-0.2-0.1c0,0-0.1,0-0.1,0c-0.1,0-0.2,0-0.3,0c0,0,0,0,0,0c0,0,0,0,0,0c-0.6,0.3-1.2,0.6-1.8,0.8
		c-1.8,0.7-3.8,1.1-5.8,1.1h0l1.5-1.2c0.1-0.1,0.1-0.1,0.1-0.2c0,0,0,0,0,0c0-0.1,0-0.2,0-0.3c0,0,0,0,0,0c0,0,0,0,0,0
		c0-0.1,0-0.1-0.1-0.2c0,0,0,0-0.1,0c0,0-0.1-0.1-0.1-0.1c0,0-0.1,0-0.1,0c-0.1,0-0.1,0-0.2,0c0,0,0,0,0,0c-3.9,1-8,0.3-11.4-1.9
		c-0.1-0.1-0.2-0.1-0.3-0.1c0,0,0,0,0,0c0,0-0.1,0-0.1,0c0,0-0.1,0-0.1,0c0,0,0,0,0,0c0,0-0.1,0.1-0.1,0.1c0,0,0,0,0,0c0,0,0,0,0,0
		c0,0,0,0.1-0.1,0.1c0,0.9,0.3,1.7,0.9,2.3c0,0,0,0,0,0c-0.2-0.1-0.4-0.3-0.6-0.4c-0.1-0.1-0.2-0.1-0.3-0.1c0,0,0,0,0,0
		c-0.1,0-0.2,0-0.3,0.1c0,0-0.1,0.1-0.1,0.1c0,0,0,0,0,0c0,0,0,0,0,0c-0.1,0.1-0.1,0.2-0.1,0.3c0,0,0,0,0,0c0,0.1,0,0.2,0.1,0.3
		c1.2,2,2.9,3.5,5.1,4.4c0,0,0,0,0,0c-0.5,0-1.1,0-1.6,0c-0.1,0-0.1,0-0.2,0c-0.2,0-0.3,0.2-0.4,0.3c-0.1,0.2,0,0.5,0.3,0.6
		c3.8,1.8,8,2.4,12.2,1.9c0.1,0.2,0.3,0.4,0.5,0.4h0c0.2,0,0.4,0,0.6,0c3.7-0.3,7.3-1.2,10.6-2.8l0,0l-0.6,1.1
		c0,0.1-0.1,0.2-0.1,0.3c0,0,0,0,0,0.1c0,0.1,0,0.2,0.1,0.2c0,0.1,0.1,0.1,0.1,0.1c0.1,0,0.2,0.1,0.3,0.1c0,0,0,0,0,0
		c0.1,0,0.2,0,0.3-0.1c1.9-1.4,3.8-2.6,5.9-3.6c0.1-0.1,0.3-0.2,0.4-0.2c0.5-0.3,1-0.5,1.5-0.8c0.2-0.1,0.4-0.2,0.6-0.3
		c0.7-0.4,1.4-0.8,2.1-1.3c0,0,0.1-0.1,0.1-0.1c1-0.7,1.9-1.4,2.7-2.2c2.6-2.5,4-5.4,3.9-8.2c0,0,0,0,0-0.1
		C430.5,230.2,430.5,230.2,430.5,230.1z"/>
	<path d="M396.5,147.7C396.5,147.7,396.5,147.8,396.5,147.7c0.1,0.1,0.2,0.1,0.3,0.2c0,0,0,0,0,0l0,0c5.7,1.1,11.2,2.7,16.6,4.7
		c0.1,0,0.1,0,0.2,0c0,0,0,0,0.1,0c0.1,0,0.1,0,0.2-0.1c0,0,0,0,0.1,0c0,0,0.1,0,0.1-0.1c0,0,0-0.1,0.1-0.1c0,0,0,0,0,0c0,0,0,0,0,0
		c0-0.1,0-0.1,0-0.2c0,0,0,0,0-0.1c0-0.1,0-0.1-0.1-0.2l-1.5-2.2c0,0,0,0,0,0c0.9,0.5,1.7,1.1,2.4,1.7c0.1,0.1,0.1,0.1,0.2,0.1
		c0,0,0,0,0.1,0c0.1,0,0.1,0,0.2,0c0,0,0,0,0.1,0c0,0,0.1,0,0.1,0c0,0,0.1,0,0.1-0.1c0,0,0,0,0,0c0,0,0,0,0,0c0,0,0.1-0.1,0.1-0.1
		c0,0,0,0,0-0.1c0-0.1,0-0.1,0-0.2c0,0,0,0,0,0l0,0l-0.7-2.8h0l11.4,2.2c0.2,0,0.4-0.1,0.5-0.2c0.1-0.1,0.1-0.2,0.1-0.3
		c0-0.1,0-0.2-0.1-0.3c-1-1.3-1.7-2.8-2.1-4.4l0,0l6,2.4c0.2,0.1,0.4,0,0.5-0.1c0.1-0.1,0.2-0.3,0.1-0.5l0,0l-3.8-10.1
		c0-0.1-0.1-0.1-0.1-0.2c0,0,0,0,0,0c0,0-0.1-0.1-0.1-0.1c0,0,0,0-0.1,0c0,0-0.1,0-0.1,0c0,0,0,0-0.1,0c0,0-0.1,0-0.1,0c0,0,0,0,0,0
		c0,0,0,0-0.1,0c0,0-0.1,0-0.1,0.1c0,0,0,0-0.1,0.1c0,0,0,0-0.1,0.1c0,0,0,0.1,0,0.1c0,0,0,0,0,0.1c0,0.1,0,0.1,0,0.2c0,0,0,0,0,0
		c0,0,0,0,0,0l1.3,4.8l0,0c-1.3-0.7-2.7-1.3-4.1-1.8c-1.8-0.6-3.7-1-5.6-1.1c-0.2,0-0.4,0.1-0.5,0.3c0,0,0,0,0,0
		c-0.1,0.2,0,0.4,0.2,0.6c1.2,1,2.2,2.1,3,3.5c0,0,0,0,0,0c-3.5,0.2-7-0.1-10.4-0.9c-0.2-0.1-0.5,0.1-0.6,0.3c0,0.1,0,0.1,0,0.2
		c0,0.2,0.1,0.3,0.2,0.4l2.6,1.9c0,0,0,0,0,0c-0.9,0.1-1.8,0.2-2.7,0.2c-0.9,0.1-1.9,0.2-2.8,0.2c-2.4,0.2-4.8,0.4-7.3,0.8
		c-1,0.1-2,0.3-3,0.4h0c0,0,0,0,0,0c-0.1,0-0.2,0.1-0.2,0.1c0,0,0,0,0,0c-0.1,0.1-0.1,0.1-0.1,0.2c0,0,0,0.1,0,0.1c0,0,0,0.1,0,0.1
		c0,0,0,0,0,0C396.4,147.6,396.4,147.7,396.5,147.7z"/>
	<path d="M463.9,136c0.2,0,0.4-0.1,0.5-0.3c0-0.1,0.1-0.1,0.1-0.2c0.1-1,0.4-2,0.9-3c0.2-0.3,0.3-0.6,0.5-0.9l1.1,4.5
		c0.1,0.2,0.2,0.4,0.5,0.4h0c0.2,0,0.4-0.1,0.5-0.3c0,0,0,0,0,0c0.1-0.4,0.3-0.8,0.5-1.2c1.2-2.8,3.5-5.1,6.3-6.4l-0.7,3.1
		c0,0.2,0,0.4,0.2,0.5c0.2,0.1,0.4,0.1,0.6,0c6.3-4.8,13.7-7.8,21.4-8.8c0,0,0,0,0,0c0.1,0,0.1-0.1,0.2-0.1c0,0,0,0,0.1,0
		c0.1-0.1,0.1-0.2,0.1-0.2c0,0,0,0,0-0.1c0,0,0-0.1,0-0.1c0,0,0,0,0,0c0-0.1-0.1-0.2-0.1-0.2c0,0,0,0-0.1-0.1
		c-0.1,0-0.1-0.1-0.2-0.1c0,0,0,0-0.1,0c-5.5-0.7-11.1,0.2-16.1,2.4c0,0,0,0,0,0c0.1-0.2,0.2-0.4,0.3-0.6c0.3-0.7,0.5-1.4,0.5-2.1
		c0-0.3-0.2-0.5-0.5-0.5c-0.1,0-0.2,0-0.2,0l-8.3,3.5c0-0.1,0-0.2,0-0.2c0,0,0,0,0,0c0-0.1,0-0.2-0.1-0.2c0,0,0,0,0,0
		c0-0.1-0.1-0.1-0.1-0.1c0,0,0,0,0,0c0,0,0,0-0.1,0c0,0-0.1,0-0.1,0c0,0,0,0-0.1,0c0,0-0.1,0-0.1,0c0,0-0.1,0-0.1,0c0,0-0.1,0-0.1,0
		l-4.8,3.5c-0.6-0.4-1.1-0.9-1.4-1.5c-0.5-0.7-1.1-1.5-1.9-1c-0.1,0-0.1,0.1-0.2,0.2c0,0.1-0.1,0.2-0.1,0.3l0.6,9.6
		C463.4,135.8,463.6,136,463.9,136z"/>
	<path class="st0" d="M496.5,123.3c0.1-0.1,0.1-0.2,0.1-0.2"/>
	<path class="st0" d="M496.4,123.4c-0.1,0-0.1,0.1-0.2,0.1"/>
	<path class="st0" d="M471.4,124.5c0,0,0.1,0,0.1,0"/>
	<path class="st0" d="M471.7,124.6c0.1,0,0.1,0.1,0.1,0.1"/>
	<path class="st0" d="M496.4,122.6C496.5,122.6,496.5,122.6,496.4,122.6"/>
	<path class="st0" d="M471.9,124.7c0,0.1,0.1,0.1,0.1,0.2"/>
	<path d="M430.3,154.9C430.3,154.9,430.3,154.9,430.3,154.9C430.3,154.9,430.3,154.9,430.3,154.9c0,0.1,0.1,0.2,0.1,0.2c0,0,0,0,0,0
		c0.1,0.1,0.1,0.1,0.2,0.1c2.7,0.9,5.2,2.4,7.2,4.5c0,0,0,0,0,0c0.1,0.1,0.1,0.1,0.2,0.1c0,0,0,0,0.1,0c0.1,0,0.1,0,0.2,0
		c0,0,0,0,0.1,0c0,0,0.1,0,0.1,0c0,0,0,0,0.1,0c0,0,0,0,0,0c0,0,0,0,0,0c0,0,0.1-0.1,0.1-0.1c0,0,0-0.1,0-0.1c0-0.1,0-0.1,0-0.2
		c0,0,0,0,0-0.1l-0.2-1l0,0c0.5,0.4,1,0.7,1.5,0.9c0,0,0,0,0,0c0.2,0.1,0.5,0,0.6-0.3l0-0.1l0,0l2.5,3.9c0,0.1,0.1,0.1,0.2,0.2
		c0.1,0,0.2,0.1,0.2,0.1c0,0,0,0,0,0c0,0,0.1,0,0.1,0c0,0,0.1,0,0.1-0.1c0,0,0,0,0,0c0,0,0.1-0.1,0.1-0.1c0,0,0,0,0,0
		c0,0,0-0.1,0-0.1c0,0,0,0,0-0.1c0,0,0,0,0,0c0,0,0-0.1,0-0.1c-0.8-2.7-1.6-5.4-2.6-8.1c0-0.1,0-0.2,0-0.3c-0.7-2.3-1.5-4.5-2.5-6.6
		c0,0-0.1-0.1-0.1-0.1c0,0,0,0,0,0c0,0,0,0-0.1,0c0,0-0.1,0-0.1-0.1c0,0,0,0-0.1,0c0,0-0.1,0-0.1,0c0,0,0,0-0.1,0c0,0-0.1,0-0.1,0
		c0,0,0,0,0,0c0,0,0,0,0,0c0,0-0.1,0-0.1,0.1c0,0,0,0,0,0c0,0-0.1,0.1-0.1,0.1c0,0,0,0,0,0c0,0.1,0,0.2,0,0.3
		c0.6,1.6,1.2,3.1,1.8,4.7l0,0L438,151c-0.1,0-0.1-0.1-0.2-0.1c0,0,0,0-0.1,0c0,0-0.1,0-0.1,0c0,0-0.1,0-0.1,0c0,0,0,0-0.1,0
		c0,0-0.1,0.1-0.1,0.1c0,0,0,0,0,0c0,0,0,0,0,0c0,0.1-0.1,0.1-0.1,0.2c0,0,0,0,0,0c0,0.1,0,0.2,0,0.2c0.2,0.6,0.4,1.2,0.7,1.7
		l-0.7-0.2l-0.7-0.2h0c0,0,0,0,0,0c-0.1,0-0.1,0-0.2,0c0,0-0.1,0-0.1,0c0,0,0,0-0.1,0c0,0-0.1,0-0.1,0.1c0,0,0,0,0,0
		c0,0-0.1,0.1-0.1,0.1c0,0,0,0,0,0c0,0,0,0,0,0c0,0.1,0,0.2,0,0.2l0.1,0.6c-2.1-0.6-4.2-1-5.5,0.4
		C430.3,154.5,430.3,154.7,430.3,154.9z"/>
	<path d="M461.7,152.2c0,0,0.1,0,0.1,0c0,0,0,0,0,0c0.2,0,0.4-0.1,0.4-0.3c0.1-0.2,0.2-0.4,0.3-0.5l0,0l1.6,2.7c0,0,0,0,0,0
		c0,0,0.1,0.1,0.1,0.1c0,0,0.1,0,0.1,0.1c0,0,0,0,0.1,0c0,0,0.1,0,0.1,0c0,0,0.1,0,0.1,0c0,0,0.1,0,0.1,0c0,0,0.1,0,0.1,0
		c0,0,0,0,0,0c0,0,0.1,0,0.1-0.1c0,0,0,0,0,0c0,0,0,0,0,0c0.3,0.4,0.6,0.8,1,1.1c0.1,0,0.1,0.1,0.2,0.1c0,0,0,0,0,0c0,0,0.1,0,0.1,0
		c0,0,0,0,0,0c0,0,0.1,0,0.1,0c0,0,0.1,0,0.1,0c0,0,0,0,0.1,0c0,0,0.1-0.1,0.1-0.1c0,0,0,0,0-0.1c0,0,0-0.1,0.1-0.1c0,0,0,0,0-0.1
		c0,0,0-0.1,0-0.1c0,0,0,0,0-0.1c-0.6-4.4,0.5-9,3.1-12.6c0.1-0.1,0.1-0.2,0.1-0.3c0,0,0,0,0,0c0-0.1,0-0.2-0.1-0.3c0,0,0,0,0,0
		c0,0,0,0,0-0.1c0,0,0,0,0,0c-0.1-0.1-0.2-0.1-0.3-0.1c0,0,0,0,0,0c-0.1,0-0.2,0-0.3,0.1c-2,1.7-3.6,3.8-4.8,6.1c0,0,0,0,0,0
		c-0.1-0.6-0.3-1.1-0.5-1.7c-0.1-0.2-0.3-0.3-0.5-0.3c0,0,0,0,0,0c-0.2,0-0.4,0.1-0.5,0.3l-0.9,2.2c0,0,0,0,0,0
		c-0.7-1.7-1-3.5-0.9-5.4c0-0.1,0-0.1,0-0.2c0,0,0,0,0,0c0,0,0-0.1-0.1-0.1c0,0,0,0,0-0.1c0,0,0,0-0.1-0.1c0,0,0,0-0.1,0
		c0,0-0.1,0-0.1,0c0,0-0.1,0-0.1,0c0,0,0,0,0,0c0,0,0,0-0.1,0c0,0-0.1,0-0.1,0c0,0-0.1,0-0.1,0c0,0-0.1,0-0.1,0c0,0,0,0-0.1,0.1
		c0,0-0.1,0.1-0.1,0.1c0,0,0,0,0,0c0,0,0,0.1-0.1,0.1c-0.5,3.1-0.1,6.3,1.3,9.2C461.4,152.1,461.5,152.2,461.7,152.2z"/>
	<path d="M535.4,171.6C535.4,171.6,535.4,171.7,535.4,171.6c0.1,0.1,0.1,0.2,0.2,0.2c0,0,0,0,0,0l0,0c4.3,2.4,9.1,3.5,14,3.3
		c0.7,0,1.4-0.1,2.1-0.2l0,0l-3.5,3.5c-0.1,0.1-0.1,0.1-0.1,0.2c0,0,0,0,0,0c0,0.1,0,0.1,0,0.2c0,0,0,0,0,0.1c0,0,0,0.1,0,0.1
		c0,0,0,0,0,0.1c0,0,0,0,0,0c0,0,0,0,0,0c0,0,0.1,0.1,0.1,0.1c0,0,0,0,0.1,0c0.1,0,0.1,0,0.2,0l3.6-0.8l0,0l-6.1,6.5
		c0,0-0.1,0.1-0.1,0.1c0,0,0,0,0,0c0,0,0,0.1,0,0.1c0,0,0,0,0,0c0,0.1,0,0.1,0,0.2c0,0,0,0,0,0c0,0,0,0.1,0.1,0.1c0,0,0,0,0,0
		c0,0,0,0,0,0c0,0,0.1,0.1,0.1,0.1c0,0,0,0,0,0c0.1,0,0.1,0,0.2,0c0,0,0,0,0,0c0.1,0,0.1,0,0.2,0c1.2-0.6,2.4-1.1,3.6-1.7
		c9-4.3,18-9.1,25.2-16.2c0.1-0.1,0.1-0.2,0.1-0.2c0,0,0,0,0-0.1c0-0.1,0-0.2,0-0.3c0,0,0-0.1-0.1-0.1c0,0,0,0,0-0.1c0,0,0,0,0,0
		c-0.1-0.1-0.2-0.1-0.2-0.1c0,0,0,0,0,0c-0.1,0-0.2,0-0.3,0c-4,1.8-8.1,3.4-12.3,4.9l0,0l3.1-3.3c0.1-0.1,0.1-0.1,0.1-0.2
		c0,0,0,0,0-0.1c0-0.1,0-0.1,0-0.2c0,0,0,0,0-0.1c0,0,0,0,0-0.1c0,0,0-0.1-0.1-0.1c0,0,0,0,0,0c0,0,0,0,0,0c-0.1,0-0.1-0.1-0.2-0.1
		c0,0,0,0,0,0c-0.1,0-0.2,0-0.2,0l-8.8,3l0,0l1.5-2.9c0-0.1,0.1-0.1,0.1-0.2c0,0,0,0,0-0.1c0,0,0-0.1,0-0.1c0,0,0-0.1,0-0.1
		c0,0,0-0.1-0.1-0.1c0,0-0.1-0.1-0.1-0.1c0,0,0,0,0,0c0,0,0,0,0,0c-0.1,0-0.1,0-0.2,0c0,0,0,0,0,0c-0.1,0-0.1,0-0.2,0
		c-7.3,3.4-15.3,4.8-21.5,3.7c-0.1,0-0.1,0-0.2,0c0,0,0,0,0,0c-0.1,0-0.1,0-0.2,0.1c0,0,0,0,0,0c0,0-0.1,0.1-0.1,0.1c0,0,0,0,0,0
		c0,0,0,0.1,0,0.1c0,0,0,0,0,0c0,0,0,0,0,0C535.3,171.5,535.3,171.5,535.4,171.6z"/>
	<path d="M352.7,228.9c0.9,0.5,1.8,1,2.8,1.3c0,0,0,0,0.1,0c0.5,0.2,1,0.3,1.5,0.4c0,0,0,0,0,0c0.5,0.1,0.9,0.1,1.4,0.2c0,0,0,0,0,0
		c0.3,0,0.7,0,1,0c0.1,0,0.2,0,0.4,0c0.2,0,0.4,0,0.5,0c0.3,0,0.7-0.1,1-0.1c0.1,0,0.3,0,0.4-0.1c0.4-0.1,0.7-0.2,1.1-0.3
		c0.1,0,0.2-0.1,0.4-0.1c0.4-0.1,0.9-0.3,1.3-0.5c0,0,0.1,0,0.1,0c0,0,0.1,0,0.1-0.1c0,0,0,0,0.1,0c0,0,0-0.1,0.1-0.1c0,0,0,0,0-0.1
		c0,0,0-0.1,0-0.1c0,0,0,0,0,0c0-0.1,0-0.1,0-0.2c0,0,0,0,0,0c0,0,0,0,0,0c-0.1-0.1-0.2-0.2-0.3-0.3l-2.4-0.7
		c3.3-0.7,6.4-2.4,8.7-4.8c0,0,0,0,0-0.1c0,0,0.1-0.1,0.1-0.1c0,0,0-0.1,0-0.1c0,0,0,0,0-0.1c0,0,0-0.1,0-0.1c0,0,0,0,0,0
		c0,0,0-0.1-0.1-0.1c0,0,0,0,0,0c0,0,0,0,0,0c-0.1-0.1-0.1-0.1-0.2-0.1l-1.4-0.4l4.2-2.8c0,0,0,0,0,0c0,0,0.1-0.1,0.1-0.1
		c0,0,0-0.1,0-0.1c0,0,0-0.1,0-0.1c0,0,0-0.1,0-0.1c0,0,0,0,0,0c0,0,0-0.1-0.1-0.1c0,0,0,0,0,0c0,0,0,0,0,0c0-0.1-0.1-0.1-0.2-0.1
		c0,0,0,0,0,0c-0.1,0-0.2,0-0.2,0c0,0,0,0,0,0l-0.7,0.1l0,0l6.1-4.5c0.1,0,0.1-0.1,0.1-0.1c0,0,0,0,0,0c0-0.1,0.1-0.1,0.1-0.2
		c0,0,0,0,0,0c0-0.1,0-0.1,0-0.2c0,0,0,0,0,0c0,0,0-0.1-0.1-0.1c0,0,0,0,0,0c0,0,0,0,0,0c0,0,0-0.1-0.1-0.1c0,0,0,0-0.1,0
		c0,0-0.1,0-0.1,0c0,0-0.1,0-0.1,0c0,0,0,0-0.1,0c-0.1,0-0.1,0-0.2,0c-4.8,2.3-8.9,4.2-13.2,4.9c0,0,0,0-0.1,0c0,0-0.1,0-0.1,0
		c0,0-0.1,0-0.1,0.1c0,0,0,0,0,0c0,0,0,0.1-0.1,0.1c0,0,0,0,0,0.1c0,0,0,0.1,0,0.1c0,0,0,0,0,0.1c0,0,0,0,0,0.1c0,0,0,0.1,0,0.1
		c0,0,0,0,0,0c0,0,0.1,0.1,0.1,0.1c0,0,0,0,0,0c0,0,0.1,0.1,0.1,0.1c0,0,0,0,0,0c0.1,0,0.1,0,0.2,0h0h0.9l-3.5,1.8
		c-0.1,0-0.1,0.1-0.2,0.2c0,0,0,0,0,0c0,0.1-0.1,0.1-0.1,0.2c0,0,0,0,0,0c0,0,0,0.1,0,0.1c0,0,0,0,0,0.1c0,0,0,0,0,0.1c0,0,0,0,0,0
		c0,0,0.1,0.1,0.1,0.1c0,0,0,0,0.1,0.1c0.1,0,0.1,0.1,0.2,0.1c0,0,0,0,0,0l1,0.1c-2.3,0.8-4.7,1.2-7.2,1.2c0,0-0.1,0-0.1,0
		c0,0-0.1,0-0.1,0c-0.1,0-0.1,0.1-0.2,0.2c0,0,0,0,0,0.1c0,0.1-0.1,0.1-0.1,0.2c0,0,0,0,0,0c0,0.1,0,0.1,0,0.2
		c0.4,1.1,1.2,2,2.2,2.6l-5.3,1.7c0,0-0.1,0-0.1,0.1c0,0,0,0,0,0c0,0-0.1,0.1-0.1,0.1c0,0,0,0,0,0c-0.1,0.1-0.1,0.3-0.1,0.4
		C352.5,228.7,352.6,228.8,352.7,228.9z"/>
	<path d="M435.4,264.1C435.3,264.1,435.3,264.1,435.4,264.1c-0.1-0.1-0.1-0.1-0.1-0.1c0,0-0.1,0-0.1-0.1c0,0,0,0,0,0c0,0,0,0,0,0
		c-0.1,0-0.1,0-0.2,0c0,0,0,0-0.1,0c-0.1,0-0.2,0-0.2,0.1h0c-0.5,0.5-1.2,0.8-2,0.8c-0.1,0-0.3,0.1-0.4,0.2l-2.2,3
		c0,0.1-0.1,0.1-0.1,0.2c0,0,0,0,0,0.1c0,0,0,0.1,0,0.1c0,0,0,0,0,0.1c0,0,0,0.1,0,0.1c0,0,0,0,0.1,0.1c0,0,0,0.1,0.1,0.1
		c0,0,0,0,0,0c0,0,0.1,0,0.1,0c0,0,0,0,0.1,0c0,0,0.1,0,0.1,0c0,0,0,0,0.1,0c0,0,0.1,0,0.1,0c0,0,0,0,0.1,0c0.1,0,0.1-0.1,0.2-0.1
		l0-0.1c0,0,0,0,0.1,0.1c0.1,0.1,0.3,0.1,0.5,0.1c0.6-0.2,1.2-0.6,1.6-1.1c0.1,0,0.2,0,0.3-0.1c0.9-0.8,1.6-1.8,2-2.9
		c0-0.1,0-0.2,0-0.2c0,0,0,0,0-0.1C435.4,264.2,435.4,264.2,435.4,264.1z"/>
	<path d="M425.7,268.2c-0.2,0-0.4,0-0.5,0.2h0c-0.2,0.3-0.4,0.6-1.9,1c-0.2,0-0.3,0.2-0.3,0.3l-0.9,2.5c0,0,0,0,0,0
		c0,0.1,0,0.2,0,0.2c0,0,0,0,0,0.1c0,0.1,0.1,0.2,0.1,0.2c0,0,0.1,0,0.1,0.1c0,0,0,0,0.1,0c0,0,0,0,0,0c0.1,0,0.2,0,0.3,0
		c0,0,0,0,0.1,0c0.1,0,0.2-0.1,0.2-0.1c0,0,0,0,0,0l1-1.2l0,0c0,0,0.1,0.1,0.1,0.1c0,0,0,0,0,0c0,0,0.1,0,0.1,0.1c0,0,0,0,0.1,0
		c0,0,0.1,0,0.1,0c0,0,0.1,0,0.1,0c0,0,0.1,0,0.1,0c0,0,0.1,0,0.1,0c0,0,0,0,0,0c0.8-0.5,1.3-1.3,1.4-2.2c0-0.1,0-0.2-0.1-0.3
		l0.1-0.1c0.2-0.2,0.1-0.5-0.1-0.7C425.8,268.2,425.7,268.2,425.7,268.2z"/>
	<path d="M441.5,269.8C441.5,269.8,441.5,269.8,441.5,269.8c-0.1,0-0.1,0-0.1-0.1c0,0,0,0,0,0c0,0-0.1,0-0.1,0c0,0-0.1,0-0.1,0
		c0,0-0.1,0-0.1,0c0,0-0.1,0-0.1,0.1c0,0,0,0,0,0c0,0-0.1,0.1-0.1,0.2c-0.2,0.4-0.3,0.8-0.9,0.9c-0.2,0.1-0.4,0.3-0.5,0.6
		c0,0,0,0,0,0.1l-0.1,0.8c0,0.1,0,0.2,0.1,0.3c0,0.3,0,0.6,0.1,0.9c0,0.2,0.2,0.4,0.4,0.4c0,0,0.1,0,0.1,0c0,0,0,0,0,0
		c0.2,0,0.4-0.1,0.4-0.3l0.6-1.1c0.1,0,0.1-0.1,0.2-0.2c0.2-0.3,0.3-0.5,0.4-0.8l0.4-0.7c0,0,0,0,0,0c0,0,0,0,0,0
		c0.1-0.2,0-0.4-0.1-0.5c0,0,0-0.1,0-0.1c0,0,0,0,0,0c0-0.1,0-0.1-0.1-0.2c0,0,0,0,0-0.1C441.6,269.9,441.6,269.8,441.5,269.8z"/>
	<path d="M437.3,273.2c0,0-0.1,0-0.1-0.1c0,0,0,0,0,0c0,0-0.1,0-0.1,0c0,0,0,0-0.1,0c0,0-0.1,0-0.1,0c0,0,0,0,0,0
		c-0.1,0-0.2,0.1-0.3,0.3c-0.1,0.2-0.2,0.5-0.4,0.7c0,0-0.1,0-0.1,0c0,0,0,0,0,0c0,0-0.1,0-0.1,0c0,0-0.1,0-0.1,0c0,0,0,0,0,0
		c-0.1,0-0.1,0-0.1,0c0,0,0,0,0,0c0,0-0.1,0.1-0.1,0.1c0,0,0,0,0,0c0,0,0,0,0,0c0,0,0,0.1-0.1,0.1l-0.7,2.5c-0.1,0.2,0,0.4,0.1,0.5
		c0,0,0.1,0.1,0.2,0.1c0.1,0,0.1,0,0.2,0c0.2,0,0.4-0.1,0.5-0.3c0.1-0.3,0.3-0.5,0.4-0.8c0,0,0,0,0,0c0,0.1,0.1,0.1,0.1,0.2
		c0,0,0,0,0.1,0c0,0,0.1,0,0.1,0.1c0,0,0.1,0,0.1,0c0,0,0,0,0.1,0c0.1,0,0.1,0,0.1,0c0,0,0,0,0,0c0,0,0,0,0,0
		c0.1-0.1,0.2-0.2,0.3-0.3l0.6-2.6C437.5,273.5,437.4,273.3,437.3,273.2C437.3,273.2,437.3,273.2,437.3,273.2z"/>
	<path d="M427.9,260.9C427.9,260.9,427.9,260.9,427.9,260.9c-0.1,0-0.1-0.1-0.1-0.1c0,0,0,0,0,0c-0.1,0-0.1-0.1-0.2-0.1
		c0,0-0.1,0-0.1,0c-0.1,0-0.1,0-0.2,0.1c0,0,0,0,0,0l0,0c-0.1,0-0.2,0-0.3,0.1c-0.1,0-0.3,0-0.4,0.1l-1.2,1.3c0,0,0,0,0,0l0,0
		c-0.1,0.1-0.1,0.2-0.1,0.2c0,0,0,0,0,0.1c0,0.1,0,0.2,0,0.3c0,0,0,0.1,0.1,0.1c0,0,0,0,0,0c0,0,0,0,0,0c0.1,0.1,0.2,0.1,0.3,0.1
		c0,0,0,0,0,0c0.1,0,0.2,0,0.3-0.1c0.1,0,0.2-0.1,0.2-0.1c0.2,0.2,0.5,0.3,0.7,0.1c0.1,0,0.1-0.1,0.1-0.1l1-1.5l0,0
		c0.1-0.1,0.1-0.2,0.1-0.3c0,0,0,0,0,0C428,261.1,428,261,427.9,260.9C427.9,260.9,427.9,260.9,427.9,260.9z"/>
	<path d="M421.8,262.7c0-0.1-0.1-0.1-0.1-0.1c0,0,0,0-0.1,0c0,0-0.1,0-0.1-0.1c0,0,0,0,0,0c0,0-0.1,0-0.1,0c0,0,0,0-0.1,0
		c-0.1,0-0.1,0-0.2,0h0c-0.1,0-0.2,0.1-0.3,0.1c-0.2,0-0.3,0-0.5,0.1l-0.1,0.1c-0.2,0-0.5,0-0.7,0.2l-1.2,1.6c0,0.1-0.1,0.1-0.1,0.2
		c0,0,0,0,0,0c0,0,0,0.1,0,0.1c0,0,0,0,0,0.1c0,0,0,0.1,0,0.1c0,0,0,0,0,0.1c0,0,0,0.1,0.1,0.1c0,0,0,0,0,0c0,0,0,0,0.1,0
		c0,0,0,0,0.1,0c0,0,0.1,0,0.1,0c0,0,0,0,0.1,0c0,0,0.1,0,0.1,0c0,0,0,0,0.1,0c0.1,0,0.1-0.1,0.2-0.1l0.5-0.5l0,0
		c0.1,0.1,0.2,0.2,0.3,0.2c0.1,0,0.3,0,0.4-0.1c0.6-0.5,1.1-1.1,1.4-1.8C421.8,263,421.8,262.9,421.8,262.7
		C421.8,262.7,421.8,262.7,421.8,262.7z"/>
	<path d="M485.6,248.2C485.6,248.2,485.6,248.2,485.6,248.2c0-0.1,0-0.1-0.1-0.1c0,0,0,0,0,0c0,0-0.1-0.1-0.1-0.1c0,0,0,0-0.1,0
		c0,0-0.1,0-0.1,0l0,0l-0.2,0l0.2-0.1c0.2-0.1,0.4-0.4,0.2-0.7c-0.1-0.1-0.2-0.2-0.3-0.3c-0.9-0.3-1.8-0.3-2.7-0.1c0,0,0,0,0,0
		c-0.2,0-0.4,0.3-0.4,0.5v0c-0.1,0-0.3,0.1-0.3,0.2c-0.2,0.1-0.4,0.1-0.7,0.2c-0.1,0-0.2,0.1-0.2,0.2c0,0,0,0,0,0
		c-0.1,0.1-0.1,0.2-0.1,0.3c0,0,0,0,0,0c0,0,0,0.1,0,0.1c0,0,0,0,0,0c0,0.1,0.1,0.1,0.1,0.2c0,0,0,0,0.1,0c0.1,0,0.1,0.1,0.2,0.1
		c0,0,0,0,0,0l3.9,0.2h0c0,0,0,0,0,0c0.1,0,0.1,0,0.2,0c0,0,0,0,0,0c0.1,0,0.1-0.1,0.2-0.1c0,0,0,0,0,0c0.1-0.1,0.1-0.2,0.1-0.3
		c0,0,0,0,0,0c0,0,0,0,0,0C485.7,248.3,485.7,248.2,485.6,248.2z"/>
	<path d="M501.9,244.5l-2.2-0.7c0,0,0,0,0,0c-0.2,0-0.3,0-0.5,0.1c-0.2,0.1-0.3,0.1-0.5,0.2c0,0,0,0,0,0l-0.4,0c-0.1,0-0.1,0-0.2,0
		c0,0,0,0-0.1,0c0,0-0.1,0-0.1,0c0,0-0.1,0-0.1,0.1c0,0,0,0,0,0.1c0,0,0,0.1-0.1,0.1c0,0,0,0,0,0.1c0,0,0,0,0,0.1c0,0,0,0.1,0,0.1
		c0,0,0,0,0,0c0,0.1,0,0.1,0.1,0.2c0,0,0,0,0,0c0.1,0.1,0.2,0.2,0.3,0.2l2.4,0.7c0.3,0.1,0.7,0.2,1,0.3c0,0,0.1,0,0.1,0c0,0,0,0,0,0
		c0.1-0.3,0.3-0.5,0.4-0.8c0-0.1,0.1-0.1,0.1-0.2c0,0,0,0,0,0C502.3,244.9,502.1,244.6,501.9,244.5z"/>
	<path d="M481.6,256.2C481.6,256.2,481.5,256.2,481.6,256.2c-0.1-0.1-0.1-0.2-0.2-0.2c0,0,0,0,0,0h0h0l-3-1.3
		c-0.2-0.1-0.5,0-0.6,0.2c-0.2,0-0.4,0-0.7-0.1c-0.2,0-0.4,0.1-0.5,0.3c0,0.1,0,0.2,0,0.3c0,0.1,0.1,0.2,0.2,0.3l3.5,2.1
		c0,0,0,0,0.1,0c0,0,0.1,0,0.1,0c0,0,0.1,0,0.1,0c0,0,0.1,0,0.1,0c0,0,0.1,0,0.1,0c0,0,0,0,0.1,0c0,0,0.1,0,0.1-0.1c0,0,0,0,0.1-0.1
		c0,0,0,0,0,0c0,0,0,0,0-0.1c0,0,0,0,0-0.1c0,0,0-0.1,0-0.1c0,0,0,0,0-0.1c0,0,0-0.1,0-0.1c0,0,0,0,0-0.1c0,0-0.1-0.1-0.1-0.1
		c0,0,0,0,0,0l-0.1-0.1c0,0,0,0,0,0c0.1,0,0.3,0,0.4,0c0,0,0,0,0.1,0c0,0,0.1,0,0.1,0c0,0,0.1,0,0.1,0c0,0,0,0,0.1-0.1
		c0,0,0,0,0.1-0.1c0,0,0,0,0-0.1c0,0,0-0.1,0-0.1c0,0,0-0.1,0-0.1c0,0,0,0,0-0.1c0,0,0,0,0,0C481.6,256.3,481.6,256.3,481.6,256.2z"
		/>
	<path d="M478.6,264c0,0.1,0.1,0.1,0.1,0.2c0,0,0.1,0.1,0.1,0.1c-0.1,0.2,0,0.4,0.1,0.5c0,0,0.1,0.1,0.2,0.1l0.7,0.3
		c0.4,0.3,0.9,0.5,1.5,0.7c0.1,0,0.2,0.1,0.3,0.1c0,0,0,0,0.1,0c0.1,0,0.1,0,0.2,0c0,0,0.1,0,0.1,0c0,0,0.1,0,0.1-0.1
		c0,0,0.1,0,0.1-0.1c0,0,0,0,0,0c0,0,0.1-0.1,0.1-0.1c0,0,0,0,0,0c0,0,0,0,0,0c0-0.1,0-0.1,0-0.2c0,0,0,0,0,0c0-0.1-0.1-0.2-0.1-0.2
		c0,0,0,0,0,0c-0.3-0.4-0.7-0.7-1.1-1c0,0,0,0,0,0c0,0,0-0.1,0-0.1c0-0.1,0-0.3-0.3-0.5c-0.1-0.1-0.3-0.2-0.6-0.2
		c-0.1,0-0.3,0-0.4,0.1c-0.1-0.1-0.3-0.1-0.4-0.2c-0.1,0-0.2,0-0.3,0c0,0,0,0,0,0c-0.1,0-0.2,0.1-0.3,0.2c0,0,0,0,0,0
		c0,0-0.1,0.1-0.1,0.1c0,0,0,0.1,0,0.1c0,0,0,0,0,0.1C478.6,263.8,478.6,263.9,478.6,264C478.6,264,478.6,264,478.6,264z"/>
	<path d="M484.3,266.3C484.4,266.3,484.4,266.3,484.3,266.3c0.1,0.1,0.2,0.1,0.3,0.2c0,0,0,0,0,0h0c0.7,0.1,1.3,0.6,1.7,1.2l0.1,0.3
		c0.1,0.2,0.3,0.3,0.5,0.3c0,0,0,0,0,0c0.1,0,0.1,0,0.2,0c0.2-0.3,0.4-0.7,0.5-1l-0.3-1.8c0,0,0-0.1,0.1-0.1c0.1-0.4,0-0.8-0.3-1
		c0,0,0,0,0,0c0-0.1-0.1-0.1-0.2-0.1c0,0,0,0-0.1,0c-0.1,0-0.1,0-0.2,0c0,0,0,0-0.1,0c0,0-0.1,0-0.1,0c0,0-0.1,0-0.1,0c0,0,0,0,0,0
		c0,0,0,0,0,0c0,0-0.1,0.1-0.1,0.1c0,0,0,0,0,0.1c0,0.1,0,0.1,0,0.2c0,0,0,0,0,0l0,0.2l0,0c0,0,0,0,0,0c0,0-0.1-0.1-0.1-0.1
		c0,0,0,0-0.1,0c0,0-0.1,0-0.1,0c0,0-0.1,0-0.1,0c0,0-0.1,0-0.1,0c0,0-0.1,0-0.1,0c0,0,0,0-0.1,0c0,0,0,0,0,0c0,0-0.1,0.1-0.1,0.1
		c0,0,0,0,0,0.1c0,0,0,0.1,0,0.1c0,0,0,0,0,0.1c0,0,0,0-0.1,0c-0.2,0-0.4,0.1-0.6,0.1c0,0,0,0-0.1,0c0,0,0,0,0,0c0,0,0,0,0,0
		c-0.1,0-0.2,0.1-0.2,0.1c0,0,0,0,0,0c-0.1,0.1-0.1,0.1-0.1,0.2c0,0,0,0.1,0,0.1c0,0,0,0.1,0,0.1c0,0,0,0,0,0
		C484.2,266.2,484.3,266.3,484.3,266.3z"/>
	<path d="M774.7,368.3H624.2c-0.7-6.3-2.7-12.7-5.6-16.5c-3-3.9-7.1-6.9-11.8-8.5c-2.4-1.3-5-2.2-7.7-2.8c-1.7-0.4-3.6-0.8-5.4-1.1
		c-0.6-2.1-1.6-4.2-2.8-6.1c1.5,0.4,3.1,0.4,4.6,0.1c0.3-0.1,0.4-0.3,0.4-0.6c0-0.1-0.1-0.2-0.2-0.3c-3-2-5.4-4.7-7-7.9
		c-1.7-5.1-2.2-10.5-1.2-15.8c2.5,2.3,5,4.6,7.5,7c6.7,6.4,13.4,12.8,19.8,19.5c-3.6-4.5-11-12.6-16.4-17.9c-3.5-3.4-7-6.8-10.6-10
		c0-0.1,0-0.1,0-0.2c1.7,1.3,3.8,2,6,2.1c0.3,0,0.5-0.2,0.5-0.5c0-0.1,0-0.2-0.1-0.3c-2.2-3.8-3.4-8.1-3.4-12.4
		c3.3,0.3,6.6-0.7,9.2-2.8c0.2-0.2,0.2-0.5,0.1-0.7c-0.1-0.1-0.2-0.2-0.3-0.2c-1.1-0.1-2.1-0.3-3.1-0.7c4.5-2.1,9.2-3.7,14.1-4.8
		c4.9,2.2,9.9,4.5,14.8,7c6,2.8,11.8,6.2,17.3,9.9c-5.2-4.2-10.8-7.9-16.8-10.9c-4.3-2.3-8.7-4.4-13.2-6.4h0c0.3,0,0.5-0.3,0.4-0.6
		c0,0,0-0.1,0-0.1l-1.1-2.9l2.5,0.8c0.3,0.1,0.5-0.1,0.6-0.3c0.1-0.2,0-0.3-0.1-0.5c-1-1.2-1.7-2.7-1.9-4.3c1.3,0.9,2.7,1.6,4.2,2.1
		c0.3,0.1,0.5-0.1,0.6-0.3c0-0.1,0-0.2,0-0.3c-1.7-3.4-2.9-7.1-3.7-10.8c-0.2-1.4-0.3-2.8-0.2-4.1c0.7-2,1.7-3.9,2.9-5.6l0.3-0.4
		c1.6-2.2,2.9-4.6,3.9-7.2l0.3,2.7c0,0.3,0.3,0.5,0.6,0.4c0.2,0,0.4-0.2,0.4-0.3c2.5-7.8,1.8-16.2-1.9-23.5c1.6,0.5,3.3,0.4,4.9-0.2
		c0.3-0.1,0.4-0.4,0.3-0.7c0-0.1-0.1-0.1-0.1-0.2c-3.6-3.2-4.3-8.1-5.1-13.2c-0.6-3.7-1.2-7.5-2.9-10.7c0.4,0.1,0.8,0.2,1.2,0.2
		c0.2,0,0.3-0.1,0.4-0.2c0.1-0.1,0.1-0.3,0.1-0.5c-1.1-3.6-2.7-7-4.7-10.1l3.3,0.9c0.3,0.1,0.5-0.1,0.6-0.4c0-0.1,0-0.3-0.1-0.4
		c-0.3-0.4-0.7-0.9-1-1.3c1.7,0.6,3.5,0.9,5.3,0.9c0.7,0,1.3,0,2-0.1c0.3,0,0.6-0.2,0.8-0.4c0.1-0.2,0.2-0.4,0.1-0.6
		c-0.1-0.4-0.3-0.7-0.6-0.9c-1.7-1.2-3.2-2.8-4.3-4.5l3.6,1.2c0.3,0.1,0.5-0.1,0.6-0.3c0.1-0.2,0-0.4-0.1-0.5
		c-2.6-2.2-4.4-5.2-5.3-8.4c1.5,1.2,3.2,2.1,5,2.8c0.3,0.1,0.5,0,0.6-0.3c0-0.1,0-0.2,0-0.3c-1.8-4.5-4.8-8.4-8.6-11.4
		c-0.5-0.5-1.2-0.9-1.9-1.1c-0.3-0.1-0.6-0.2-0.9-0.2l1.7-2.2c0.1-0.2,0.1-0.4,0-0.5c-0.1-0.2-0.3-0.3-0.5-0.3l-4.1,0.3l-1-2.6
		c-2.2-8.8-2.4-18-2.7-27.6c0-6.9-0.5-13.8-1.3-20.6c-2.2-16.2-8.6-31.5-14.8-46.3c-0.1-0.2-0.2-0.3-0.4-0.3c-0.2,0-0.4,0.1-0.5,0.2
		l-1.5,2.4c-3.2-5-7.5-9.1-12.7-12c-0.2-0.1-0.5,0-0.7,0.2c-0.1,0.2-0.1,0.4,0,0.5l0.4,0.6c-5.2-2.5-10.8-4.1-16.5-4.5
		c-0.2,0-0.5,0.1-0.5,0.4c0,0.1,0,0.2,0,0.3l-3.9,0.1c-0.3,0-0.5,0.2-0.5,0.5c0,0,0,0,0,0c0.4,6.1-0.2,12.3-1.6,18.2l-2.7-4.4
		c-0.1-0.2-0.5-0.3-0.7-0.2c-0.2,0.1-0.3,0.4-0.2,0.6c3.5,9.5,3.4,19-0.3,26c-2,3.7-4.9,6.8-7.8,9.7c0,0,0,0,0,0
		c-0.2-0.1-0.5-0.1-0.6,0.1c-3,3.4-7.4,5.3-12,5.2l3.2-2.9c0.2-0.2,0.2-0.5,0-0.7c-0.2-0.2-0.4-0.2-0.6-0.1
		c-1.7,0.9-3.5,1.5-5.4,1.8c1.7-1.3,3.1-3,4-5c0.1-0.3,0-0.5-0.3-0.7c-0.2-0.1-0.4,0-0.6,0.1c-2.4,2.3-5.5,3.7-8.9,3.9
		c-3,0.3-6,0.2-8.9-0.2c1.7-1.2,3.9-1.7,5.9-1.2c0.2,0,0.3,0.1,0.5,0.1c0.3,0.1,0.5-0.1,0.6-0.4c0.1-0.3-0.1-0.5-0.3-0.6
		c-0.2,0-0.3-0.1-0.5-0.1c-5.9-1.4-12.1,0.2-17.5,1.9c-0.9,0.3-1.8,0.6-2.7,0.9c-2.4,0.8-4.8,1.6-7.2,2.2c1.8-1.4,3.5-3,4.9-4.7
		c0.2-0.2,0.1-0.5-0.1-0.7c-0.2-0.2-0.5-0.2-0.6,0c-4.1,3.3-9.4,4.9-14.7,4.4c1.1-1.2,1.9-2.6,2.3-4.1c0.1-0.3-0.1-0.5-0.3-0.6
		c-0.2-0.1-0.3,0-0.5,0.1c-4.7,4.1-11.7,4.2-17.3,3.7c-0.8-0.1-1.5-0.1-2.3-0.2c-5.5-0.5-11.2-1-16.4,1.1c-3.3,1.3-6,3.6-8.7,5.8
		c-0.7,0.6-1.4,1.1-2.1,1.7c-3,2.4-6.9,5.1-11.4,5c-0.2,0-0.4,0.2-0.5,0.4c-0.1,0.2,0.1,0.5,0.3,0.6l3.7,1.8
		c-2.9,1.4-6.1,1.8-9.3,1.1c-0.3-0.1-0.5,0.1-0.6,0.4c0,0.2,0,0.4,0.2,0.5l2.5,1.8c-2.9,0.6-6,0.2-9.3-0.2c-4.3-0.5-8.7-1-12.7,0.7
		c-0.3,0.1-0.4,0.4-0.3,0.7c0.1,0.1,0.2,0.2,0.3,0.3c2.6,0.7,5.3,1.1,8,1.2c-6.8,4.8-15.8,5.1-23,0.9c-0.2-0.1-0.5-0.1-0.7,0.2
		c-0.1,0.1-0.1,0.3,0,0.4c0.7,2.2,2.3,3.9,4.4,4.9c-2.1,0.3-4.2,0.1-6.2-0.5c-0.3-0.1-0.5,0-0.6,0.3c0,0.1,0,0.3,0.1,0.4
		c0.8,1.2,1.8,2.2,3,3c-4.4,2.3-8.4,5.3-11.9,8.9c-0.2,0.2-0.2,0.5,0,0.7c0.1,0.1,0.3,0.2,0.5,0.1l6.4-1.4c-0.6,1.4-1.6,2.6-3,3.3
		c-1.5,0.9-3.4,1.2-5.2,0.8c-0.1,0-0.2,0-0.3,0c-11.8-3.9-21.5-14.1-24.2-26.3l1.6-1.7c0.2-0.2,0.2-0.5,0-0.7
		c-0.1-0.1-0.3-0.2-0.5-0.1c-2,0.6-3.6-2-4.5-3.5c-0.8-1.2-1.2-2.6-1.3-4.1c0.1-0.8,0.4-1.5,1-2c0.4-0.3,0.8-0.5,1.3-0.4
		c0.3,0,0.5-0.2,0.6-0.4c0-0.3-0.2-0.5-0.4-0.6c-2.6-0.3-5.3,0.1-7.6,1.4l-0.3-3.9c0-0.2-0.2-0.4-0.4-0.5c-0.2,0-0.4,0.1-0.5,0.3
		c-0.8,1.7-2,3.1-3.5,4.2c0.4-2.3,1.3-4.5,2.7-6.3c0.2-0.2,0.1-0.5-0.1-0.7c-0.2-0.1-0.4-0.1-0.6,0c-3.8,2.5-7.3,5.6-10.1,9.2
		l0.2-0.8c0.1-0.3-0.1-0.5-0.4-0.6c-0.2,0-0.4,0-0.5,0.1c-5.6,5.5-8.9,13.6-9.3,23.1c-0.4,8.4,1.5,17,3.5,24.9
		c0.1,0.4,0.2,1,0.4,1.8c1.7,7.2,7,29.1,13.2,37.5c0.8,1.4,0.7,3.1-0.3,4.3c-0.2,0.2-0.1,0.5,0.1,0.7c0,0,0.1,0,0.1,0.1
		c3.9,1.7,7.4,4.3,10.2,7.5c0.4,0.5,0.9,1.1,1.3,1.6c0.1,0.1,0.1,0.1,0.2,0.1c2.8,5.8,0.3,9.9,0.2,10.1l-3.6,5.9
		c-0.1,0.2-0.1,0.5,0.2,0.7c0.1,0.1,0.3,0.1,0.4,0l0.9-0.3c-0.3,0.6-0.6,1.3-0.9,1.9c-1.3,2.7-1.7,5.7-1.4,8.7
		c0.1,0.6,0.1,1.1,0.2,1.7c0.2,1.3,0.3,2.6,0.2,3.8c-5.4,4.1-12.1,6.1-18.9,5.6c-0.2,0-0.4,0.1-0.5,0.3c-0.1,0.2-0.1,0.4,0.1,0.6
		l3.8,4.1l-13.9-2.3c-0.3,0-0.5,0.1-0.6,0.4c0,0.1,0,0.3,0.1,0.4l4.2,5.3c-10.3,2.8-21.1,3.2-31.6,1.1c-0.3-0.1-0.5,0.1-0.6,0.4
		c0,0.2,0,0.4,0.2,0.5c2.9,2.3,6.2,4.3,9.6,5.7l-34.2,4.2c-0.3,0-0.5,0.3-0.4,0.6c0,0.2,0.2,0.4,0.4,0.4l8.7,1.9
		c-11.2,6.5-23.9,10.2-36.8,10.5c-0.3,0-0.5,0.2-0.5,0.5c0,0.2,0.1,0.3,0.2,0.4l5.9,3.5c-11.8,3.7-22.6,10.2-31.5,19
		c-0.2,0.2-0.2,0.5,0,0.7c0.1,0.1,0.3,0.2,0.5,0.1l6.7-1.7c-10.4,13.9-24.9,24.3-41.5,29.7c-0.3,0.1-0.4,0.4-0.3,0.6
		c0.1,0.2,0.2,0.3,0.3,0.3c1.8,0.5,3.7,0.7,5.5,0.7c-3,2.6-5.8,5.5-8.1,8.7c-4.7,4.4-9,9-13.2,13.9H13.7c-0.3,0-0.5,0.2-0.5,0.5
		v15.1c0,0.3,0.2,0.5,0.5,0.5H232c-0.5,0.5-1,0.9-1.5,1.3l1.8-1.3h110c0.2,0.2,0.3,0.4,0.4,0.5c2.8,2.8,6.3,3.9,9.6,4.8
		c4.4,1.1,8.8,1.9,13.3,2.5c0.2,0.3,0.4,0.6,0.6,0.8c1.2,1.3,3.1,1.9,4.8,1.6c1.2-0.2,2.4-0.8,3.3-1.7c2,0.1,4.1,0.2,6.1,0.2
		c2.7,0,5.3-0.1,8.1-0.2c4.9-0.3,9.6-0.8,13.7-4c1.5-1.2,2.8-2.7,3.7-4.4h145.5c1.2,1.3,2.6,2.5,4.1,3.5c1,2.1,2.5,4,4.3,5.4
		c4.1,3.2,8.8,3.7,13.7,4c2.7,0.2,5.4,0.2,8.1,0.2c2.1,0,4.1-0.1,6.1-0.2c1,0.8,2.1,1.4,3.4,1.7c0.3,0.1,0.6,0.1,0.9,0.1
		c1.5,0,2.9-0.6,3.9-1.7c0.2-0.2,0.4-0.5,0.6-0.8c4.5-0.5,9-1.4,13.3-2.5c0.2,0.2,0.4,0.4,0.6,0.6c0.6,0.6,1.5,0.9,2.3,0.9
		c0.3,0,0.5,0,0.8-0.1c0.9-0.3,1.8-0.9,2.3-1.7c0.7-0.8,1.2-1.7,1.5-2.7c0.8-0.5,1.5-1.1,2.1-1.7c1.4-1.4,2.4-3.1,2.9-5h152.3
		c0.3,0,0.5-0.2,0.5-0.5v-15.1C775.2,368.5,775,368.3,774.7,368.3z M578,337.1c0.3,0,0.5-0.2,0.5-0.5c0-0.1-0.1-0.2-0.1-0.3
		c0,0,0,0,0-0.1c-3-2.6-6.5-4.6-10.3-5.9c-0.1-0.1-0.2-0.3-0.3-0.4c0,0,0,0,0,0l13.2-1.8c0.3,0,0.5-0.3,0.4-0.5
		c-0.2-1.2-0.6-2.3-1.2-3.4c-0.6-1-1.4-1.9-2.4-2.6c0,0,0,0,0,0c3.2,1.4,6,3.6,8.2,6.3c0,0,0,0,0,0c-1-0.1-2.1,0.2-3,0.8
		c-0.1,0.1-0.2,0.2-0.2,0.3c0,0,0,0,0,0c0,0.1,0,0.1,0,0.2c0,0,0,0,0,0.1c0,0,0,0.1,0,0.1c0,0,0,0,0,0l0,0l3.9,5.4l0,0l-2.4-0.6
		c-0.2-0.1-0.4,0-0.5,0.2c-0.1,0.2-0.1,0.4,0,0.6c0.7,1.2,1.4,2.4,2,3.7c-2.2,0-4.3,0.1-6.4,0.5c-1.4,0.3-2.9,0.7-4.2,1.3
		c-0.7-1-1.4-2-2.1-3c0,0,0,0,0,0C574.8,337.2,576.4,337.1,578,337.1z M555.1,311c-0.2,0-0.4,0-0.5,0c-0.5,0-1.1,0.1-1.6,0.1
		c-0.1,0-0.2,0-0.3,0c-1.7-1.9-3.4-3.8-5.1-5.7c0,0,0,0,0,0c0.8-0.7,1.5-1.4,2.2-2.1c0,0,0.1-0.1,0.1-0.1c0,0,0,0,0,0
		c0,0,0-0.1,0-0.1c0,0,0-0.1,0-0.1c0,0,0-0.1,0-0.1c0,0,0-0.1,0-0.1c0,0,0,0,0-0.1c0,0,0-0.1-0.1-0.1c0,0,0,0,0,0c0,0,0,0-0.1,0
		c-0.1-0.1-0.2-0.1-0.3-0.1c-1.3,0.2-2.6,0.4-4,0.6c-6.5-7-13.6-13.5-21.1-19.4c0,0,0,0,0,0c7.1-0.4,13.3-2.3,18.1-5.6
		c0.3-0.2,0.6-0.5,1-0.7c7.5,4,14.8,8.5,21.8,13.5c0,0,0,0,0,0c-0.8,0.1-1.7,0.3-2.5,0.3c-0.1,0-0.3,0.1-0.3,0.2c0,0,0,0,0,0
		c0,0-0.1,0.1-0.1,0.2c0,0,0,0.1,0,0.1c0,0,0,0,0,0.1c0,0,0,0,0,0c0,0.1,0.1,0.3,0.2,0.3c1.1,0.8,2.4,1.4,3.7,1.7l0,0l-9.2,2.4
		c-0.1,0-0.2,0.1-0.2,0.1c0,0,0,0,0,0c0,0.1-0.1,0.1-0.1,0.2c0,0,0,0,0,0.1c0,0,0,0.1,0,0.1c0,0,0,0.1,0,0.1c0,0,0,0,0,0
		c0,0,0,0,0,0c0,0.1,0.1,0.1,0.1,0.2c0,0,0,0,0,0c0.1,0.1,0.1,0.1,0.2,0.1c1.7,0.4,3.4,0.7,5.1,0.7c3.4-0.1,6.8-0.7,9.9-2
		c1.3,1,2.6,2,3.9,3v0l2.2,1.9c0,0,0,0,0,0c-2.8,1-5.5,2.5-8,4.2c-0.7,0.4-1.4,0.9-2,1.3c-3,1.9-7.1,3.9-11.2,3.3
		c-0.1,0-0.2,0-0.3,0c0,0,0,0,0,0c-0.1,0-0.1,0.1-0.2,0.1c0,0,0,0,0,0c0,0-0.1,0.1-0.1,0.2c0,0,0,0,0,0c0,0,0,0,0,0c0,0,0,0,0,0
		c0,0.1,0,0.1,0,0.2c0,0,0,0,0,0c0,0.1,0.1,0.1,0.2,0.2l0.8,0.6c0,0,0,0,0,0c-0.1,0-0.2,0-0.3,0C556.2,311,555.7,310.9,555.1,311z
		 M547.6,312c-0.7,0.1-1.4,0.3-2.1,0.4c-4.2,0.5-8.4,0.2-12.4-0.9c0,0,0,0,0,0c4.9-0.4,9.6-2.2,13.5-5.2c1.5,1.7,3.1,3.4,4.6,5.1
		c0,0,0,0,0,0C549.9,311.5,548.7,311.7,547.6,312L547.6,312z M540.1,316.6C540.1,316.6,540.1,316.6,540.1,316.6
		c0.1,0,0.2-0.1,0.3-0.1c0.1,0,0.2,0.1,0.3,0.1C540.5,316.6,540.3,316.6,540.1,316.6z M514.9,295.7
		C514.9,295.7,514.9,295.7,514.9,295.7c-0.1,0-0.2,0-0.2,0c0,0,0,0,0,0c-0.1,0-0.1,0-0.2,0.1c0,0,0,0,0,0c0,0-0.1,0.1-0.1,0.1
		c0,0,0,0,0,0c0,0,0,0,0,0.1c0,0,0,0.1,0,0.1c0,0,0,0,0,0.1c0,0,0,0.1,0,0.1c0,0,0,0,0,0c0,0,0,0.1,0.1,0.1l1.8,2.6l0,0l-2-0.5
		c0,0,0,0,0,0c-0.3-0.1-0.5,0.1-0.6,0.4c0,0.1,0,0.3,0.1,0.4l1.3,1.9c-1.4,0.4-2.8,0.6-4.2,0.6c-0.5,0-1-0.1-1.4-0.2c0,0,0,0,0,0
		c-0.1,0-0.2,0-0.2,0c0,0,0,0,0,0c-0.1,0-0.1,0.1-0.2,0.1c0,0,0,0,0,0c0,0-0.1,0.1-0.1,0.1c0,0,0,0,0,0c0,0,0,0.1,0,0.1
		c0,0,0,0,0,0.1c0,0,0,0,0,0.1c0,0.1,0,0.1,0,0.1c0,0,0,0,0,0c0,0,0,0.1,0.1,0.1l2,1.9c-3.4,1.6-7,2.7-10.7,3.3
		c-0.5,0.1-1.1,0.1-1.6,0.1c-3.7,0.1-7.1-1-9.4-3.1c0,0-0.1-0.1-0.2-0.1c0,0,0,0,0,0c0,0-0.1,0-0.1,0c0,0-0.1,0-0.1,0
		c0,0-0.1,0-0.1,0c0,0-0.1,0-0.1,0.1c0,0,0,0,0,0c0,0,0,0-0.1,0.1c-0.2,0.2-0.2,0.4,0,0.6l2.6,3.5l0,0l-1.9-0.4l0,0
		c-0.1,0-0.2,0-0.2,0c0,0,0,0,0,0c-0.1,0-0.1,0.1-0.2,0.1c0,0,0,0,0,0c0,0-0.1,0.1-0.1,0.1c0,0,0,0,0,0.1c0,0,0,0.1,0,0.1
		c0,0,0,0.1,0,0.1c0,0,0,0.1,0,0.1c0,0,0,0.1,0.1,0.1c0,0,0,0.1,0,0.1l4.1,3.3c-2.6,0.5-5.3,0.7-7.9,0.6c-4.4-0.1-8.8-1.1-12.9-2.7
		c-0.1,0-0.1,0-0.2,0c-0.1,0-0.2,0-0.2,0.1c0,0-0.1,0-0.1,0.1c0,0-0.1,0.1-0.1,0.1c0,0,0,0,0,0.1c0,0.1,0,0.1,0,0.2
		c0.1,2.4,1.2,4.6,3,6.1c-0.3,0-0.5,0-0.8,0c-0.8,0-1.5-0.2-2.2-0.6c-0.1,0-0.1,0-0.2-0.1c0,0,0,0-0.1,0c0,0-0.1,0-0.1,0
		c0,0-0.1,0-0.1,0c0,0,0,0-0.1,0c0,0-0.1,0.1-0.1,0.1c0,0,0,0,0,0c0,0,0,0-0.1,0.1c-0.1,0.2-0.1,0.5,0.1,0.6
		c6.1,5.4,13.8,7.1,19.1,7.6c1.4,0.1,2.7,0.2,4,0.2c0,0,0,0,0,0c5.6-0.1,11.1-0.8,16.6-2c0.3-0.1,0.4-0.3,0.4-0.6
		c0-0.1-0.1-0.3-0.2-0.3c-1.5-0.8-2.8-1.9-3.8-3.2c0,0,0,0,0,0c4.2,1.1,8.6,1.7,12.9,1.7c4.3,0,8.7-0.5,13-1.5c0,0,0,0,0,0
		c-2,1.1-4.1,2.1-6.3,3c-2.2,0.9-4.5,1.3-6.9,1.4c-1.4,0-2.8-0.1-4.2-0.4c0,0,0,0,0,0c-0.1,0-0.2,0-0.2,0c0,0,0,0,0,0
		c-0.1,0-0.1,0.1-0.2,0.1c0,0,0,0,0,0c0,0-0.1,0.1-0.1,0.2c0,0,0,0,0,0.1c0,0,0,0.1,0,0.1c0,0,0,0.1,0,0.1c0,0,0,0.1,0,0.1
		c0,0,0,0.1,0.1,0.1c0,0,0,0.1,0.1,0.1l1,0.9l-6.7,0.5c0,0-0.1,0-0.1,0c-5.3,1.7-10.7,2.6-16.2,2.5c-3.3,0-6.6-0.4-9.8-1.1
		c0,0,0,0,0,0c0,0-0.1,0-0.1,0c0,0,0,0-0.1,0c-0.1,0-0.1,0-0.2,0.1c0,0,0,0,0,0c-0.1,0.1-0.2,0.2-0.2,0.3c0,0.1,0,0.3,0.1,0.4
		l1.3,1.6l0,0l-10.2-0.4l0,0c-0.2,0-0.3,0.1-0.4,0.2c-4.9,5.5-12.9,8.7-21.4,8.5c-0.6,0-1.1,0-1.7-0.1l3.8-2.6c0,0,0,0,0,0
		c0,0,0.1-0.1,0.1-0.1c0,0,0-0.1,0-0.1c0-0.1,0-0.1,0-0.2c0-0.1,0-0.2-0.1-0.2c-0.1-0.1-0.1-0.1-0.2-0.2c0,0,0,0,0,0
		c-0.1,0-0.2,0-0.3,0c0,0,0,0,0,0c-5.6,1.4-11.2,2.2-16.9,2.2c-5.3,0-10.7-0.6-15.9-1.8c0,0,0,0,0,0c-0.2-0.1-0.4,0-0.6,0.2
		c0,0,0,0.1,0,0.1c0,0,0,0,0,0c-3-0.7-6-1.5-9-2.3c0-0.2-0.1-0.3-0.3-0.4l-3.7-2.1c0.6-1.4,1.2-2.7,1.8-4.1c0,0,0,0,0,0
		c1.8,1.1,3.9,1.8,6.1,1.8c0.2,0,0.4,0,0.5,0c1.3,0,2.5-0.6,3.4-1.5c0,0,0,0,0-0.1c0-0.1,0.1-0.1,0.1-0.2c0-0.1,0-0.2,0-0.3
		c0,0,0,0,0,0c0-0.1-0.1-0.1-0.1-0.1c0,0,0,0,0,0c0,0,0,0,0,0c-0.1-0.1-0.2-0.1-0.3-0.1c-1.5-0.1-2.9-0.4-4.2-0.9l2.4-1.1
		c0,0,0.1-0.1,0.1-0.1c0,0,0,0,0,0c0,0,0.1-0.1,0.1-0.1c0,0,0,0,0-0.1c0-0.1,0-0.1,0-0.2c0,0,0,0,0,0c0-0.1,0-0.1,0-0.2c0,0,0,0,0,0
		c0,0,0,0,0,0c-0.1-0.1-0.2-0.2-0.4-0.3c-1.8-0.3-3.6-0.8-5.2-1.4c0,0-0.1-0.1-0.2-0.1l0.1-0.3c0,0,0,0,0,0c0.1-0.1,0.1-0.2,0.1-0.3
		c1.6-3.6,3.1-7.2,4.8-10.8c0.2,0,0.4-0.1,0.4-0.3c0.2-0.5,0.5-1,0.8-1.4c0,0,0,0,0,0c0,1.9,0.5,3.9,1.5,5.5
		c0.1,0.1,0.2,0.2,0.3,0.2c0,0,0,0,0.1,0c0,0,0.1,0,0.1,0c0.1,0,0.1,0,0.2-0.1c0.1-0.1,0.2-0.2,0.2-0.3c0.3-1.1,1.1-2.1,2.2-2.5
		c0,0,0,0,0,0c0,1.2-0.5,2.3-1.4,3.1c-0.2,0.2-0.2,0.5,0,0.7c0.1,0.1,0.2,0.2,0.3,0.2c1.8,0.2,3.6,0.2,5.5,0.2c0.6,0,1.2,0,1.8-0.1
		c0,0,0,0,0,0c-0.6,1.1-1.6,1.9-2.7,2.3c-0.1,0-0.2,0.1-0.2,0.2c0,0,0,0,0,0c-0.1,0.1-0.1,0.2-0.1,0.3c0,0,0,0,0,0c0,0,0,0,0,0
		c0,0,0,0.1,0,0.1c0,0,0,0,0,0c0,0.1,0.1,0.1,0.1,0.2c0,0,0,0,0.1,0c0.1,0,0.1,0.1,0.2,0.1c0,0,0,0,0,0c0,0,0,0,0,0
		c3.3,0,6.6-0.7,9.6-2.2c0,0,0,0,0,0c0.3,2,1.1,3.8,2.1,5.5c-1,0.7-2,1.4-3,2c-1.1,0.7-2.6,1.4-3.8,1.2c-0.2,0-0.4-0.1-0.5-0.2
		c-0.1,0-0.1,0-0.2,0c0,0-0.1,0-0.1,0c0,0,0,0-0.1,0c0,0-0.1,0-0.1,0.1c0,0,0,0,0,0c0,0-0.1,0.1-0.1,0.1c0,0,0,0,0,0c0,0,0,0,0,0
		c-0.1,0.2,0,0.5,0.2,0.6c1.1,0.8,2.3,1.3,3.6,1.5c-2.2,0.8-4.5,1.1-6.8,0.9c-0.3,0-0.5,0.2-0.5,0.4c-0.1,0.2,0.1,0.5,0.3,0.6
		c2.3,0.7,4.6,1.3,7,1.5c1.4,0.2,2.9,0.2,4.3,0.2c1.7,0,3.4-0.1,5.1-0.3c5-0.6,9.9-1.6,14.8-2.9l0,0l-1,1.3
		c-0.1,0.1-0.1,0.2-0.1,0.2c0,0,0,0,0,0.1c0,0,0,0.1,0,0.1c0,0,0,0.1,0,0.1c0,0,0,0.1,0.1,0.1c0,0,0,0.1,0.1,0.1c0,0,0,0,0,0
		c0,0,0,0,0,0c0.1,0,0.2,0.1,0.2,0.1c0.4,0,0.8,0,1.1,0c0.1,0,0.2,0,0.3,0c0.3,0,0.5,0,0.8-0.1c0.1,0,0.3,0,0.4-0.1
		c0.2,0,0.5-0.1,0.7-0.1c0.1,0,0.3-0.1,0.4-0.1c0.2-0.1,0.4-0.1,0.6-0.2c0.2-0.1,0.3-0.1,0.5-0.2c0.2-0.1,0.4-0.2,0.6-0.2
		c0.1-0.1,0.3-0.1,0.4-0.2c0.2-0.1,0.5-0.2,0.7-0.4c0.1,0,0.2-0.1,0.2-0.1c0.3-0.2,0.5-0.3,0.7-0.5c0.1,0,0.1-0.1,0.2-0.1
		c0.3-0.2,0.5-0.4,0.7-0.6c0,0,0.1-0.1,0.1-0.1c0.2-0.2,0.5-0.4,0.7-0.7c0,0,0.1-0.1,0.1-0.1c0.2-0.2,0.4-0.4,0.6-0.7
		c0.1-0.1,0.1-0.1,0.2-0.2c0.2-0.2,0.3-0.4,0.5-0.7c0.1-0.1,0.1-0.2,0.2-0.3c0.1-0.2,0.3-0.5,0.4-0.7c0.1-0.1,0.1-0.2,0.2-0.3
		c0.1-0.2,0.2-0.5,0.3-0.7c0-0.1,0.1-0.2,0.1-0.3c0.1-0.3,0.2-0.5,0.3-0.8c0-0.1,0-0.2,0.1-0.3c0.1-0.3,0.2-0.6,0.2-0.9
		c0-0.1,0-0.1,0-0.2c0.1-0.3,0.1-0.7,0.1-1c0,0,0,0,0-0.1c0,0,0-0.1,0-0.1c0-0.3,0-0.6,0-0.9c0-0.1,0-0.1,0-0.2c0-0.3,0-0.6-0.1-0.9
		c0-0.1,0-0.1,0-0.2c0-0.3-0.1-0.6-0.1-0.8c0,0,0,0,0-0.1c-0.1-0.3-0.1-0.6-0.2-0.9c0,0,0-0.1,0-0.1c0,0,0-0.1-0.1-0.1
		c0,0-0.1-0.1-0.1-0.1c0,0,0,0-0.1,0c0,0-0.1,0-0.1,0c0,0-0.1,0-0.1,0c0,0,0,0-0.1,0c0,0-0.1,0-0.1,0c0,0,0,0,0,0c0,0-0.1,0-0.1,0.1
		c0,0-0.1,0-0.1,0.1c-1.5,1.4-3.3,2.4-5.3,2.8c0,0,0,0,0,0l1.5-2.7c0,0,0,0,0-0.1c0-0.1,0-0.1,0-0.2c0,0,0-0.1,0-0.1
		c0-0.1,0-0.2-0.1-0.2c0,0-0.1-0.1-0.1-0.1c0,0,0,0,0,0c0,0,0,0,0,0c-0.1,0-0.2-0.1-0.3-0.1c0,0-0.1,0-0.1,0c-0.1,0-0.1,0-0.2,0.1
		c0,0,0,0,0,0c-2.2,1.8-4.9,2.8-7.8,2.6c0,0,0,0,0,0c-0.1-0.1-0.2-0.1-0.3-0.2c0.5-0.6,0.8-1.3,0.8-2.1c0,0,0,0,0-0.1
		c0-0.1,0-0.1,0-0.2c0,0,0-0.1-0.1-0.1c0,0,0,0,0,0c0,0-0.1-0.1-0.1-0.1c0,0,0,0-0.1,0c0,0-0.1,0-0.1,0c0,0,0,0,0,0c0,0,0,0,0,0
		c-0.1,0-0.2,0-0.2,0c0,0,0,0,0,0c-1.2,0.7-2.6,1.2-4,1.5c0,0,0,0,0,0c-0.5-0.8-0.7-1.8-0.6-2.7c0,0,0,0,0-0.1c0-0.1,0-0.1,0-0.2
		c0,0,0-0.1-0.1-0.1c0,0,0,0,0,0c0,0-0.1-0.1-0.1-0.1c0,0,0,0-0.1,0c0,0-0.1,0-0.1,0c0,0,0,0-0.1,0c0,0,0,0,0,0c-0.1,0-0.1,0-0.2,0
		c0,0,0,0,0,0c-0.6,0.3-1.2,0.7-1.7,1.2c0,0,0,0,0,0l0.4-1.8c0-0.1,0-0.3-0.1-0.4c0,0,0,0,0,0c0,0-0.1-0.1-0.1-0.1c0,0,0,0,0,0
		c0,0-0.1,0-0.1,0c0,0,0,0-0.1,0c0,0,0,0-0.1,0c0,0,0,0-0.1,0c-0.1,0-0.1,0-0.1,0c0,0,0,0,0,0c-0.1,0-0.2,0.1-0.3,0.3
		c-0.7,1.5-2.3,2.4-3.9,2.2c0,0,0,0,0,0c0.9-1.9,1.1-4.1,0.5-6.2c0-0.1-0.1-0.2-0.2-0.3c0,0,0,0,0,0c0,0-0.1,0-0.1,0
		c0,0-0.1,0-0.1,0c0,0,0,0,0,0c-0.1,0-0.1,0-0.2,0c-0.1,0-0.1,0.1-0.2,0.1c-0.6,0.5-1,1.2-1.2,1.9c0,0,0,0,0,0c-1-2-1.6-4.1-2-6.3
		c0.1-1.5,0.5-3,1.1-4.4c0.2-0.4,0.4-0.9,0.7-1.3c0.9-1.1,2-2,3.4-2.5c0,0,0,0,0,0c-0.6,0.8-1,1.7-1.3,2.7c0,0.2,0,0.3,0.1,0.5
		c0,0,0,0,0,0c0,0,0.1,0,0.1,0.1c0,0,0.1,0,0.1,0c0,0,0,0,0,0c0,0,0,0,0.1,0c0,0,0.1,0,0.1,0c0,0,0,0,0.1,0c0,0,0.1,0,0.1,0
		c0,0,0,0,0,0c0.1-0.1,0.2-0.1,0.2-0.3c0.2-0.5,0.6-0.8,1-1c0.6-0.2,1.2-0.3,1.9-0.2c0.2,0,0.4,0.1,0.6,0.2c1.2,0.6,2.2,1.4,3,2.4
		c0.2,0.2,0.4,0.4,0.6,0.6c2.2,2.2,4.8,4,7.7,5.2c0.1,0,0.1,0,0.2,0c0,0,0,0,0,0c0.1,0,0.1,0,0.2,0c0,0,0,0,0,0
		c0.2-0.1,0.3-0.2,0.3-0.4c0-0.1,0-0.1,0-0.2c-1-2.8-1.7-5.7-2.1-8.7c0-0.2-0.2-0.4-0.4-0.4c-0.1,0-0.1,0-0.2,0
		c-0.2,0-0.3,0.2-0.4,0.3l-0.8,2.2l0,0c-0.6-1.6-0.9-3.4-0.9-5.1c0-0.2-0.1-0.4-0.3-0.5c-0.1,0-0.2,0-0.3,0c-0.1,0-0.2,0.1-0.3,0.2
		c-0.6,0.7-1.2,1.4-1.8,2l0,0l0,0c0,0-0.1,0.1-0.1,0.1c-0.1,0-0.1,0-0.2,0c-1.8-0.7-3.1-2.3-3.5-4.2c-0.5-2.1,0-4.4,1.1-6.2
		c0.2-0.3,0.4-0.6,0.6-0.8l0.1-0.2c0.4-0.8,0.9-1.5,1.4-2.2c0.5-0.7,1.9-2.6,3-4.2c1-0.6,2-1.1,3.1-1.5c1.5-0.6,3-1,4.6-1.2
		c2.6-0.3,5.2-0.1,7.8,0.7c0,0,0.1,0,0.1,0c0.5,0.1,1.1,0.1,1.6,0.3c0,0,0.1,0,0.1,0l0.2,0c1.7,0.5,3.3,1.4,4.6,2.6
		c0.2,0.2,0.5,0.5,0.9,0.7c1.4,1.2,4,3.4,3.4,4.7c-0.2,0.4-0.3,0.6-0.5,0.7c-0.2,0-0.5-0.1-1.1-0.2c-0.4-0.1-0.9-0.3-1.3-0.3
		c0,0,0,0,0,0c-0.1,0-0.2,0-0.2,0c0,0,0,0-0.1,0c0,0-0.1,0-0.1,0.1c0,0,0,0,0,0c0,0-0.1,0.1-0.1,0.1c0,0,0,0,0,0c0,0,0,0.1,0,0.1
		c0,0,0,0,0,0c0,0,0,0.1,0,0.1c0,0,0,0.1,0,0.1c0.2,0.5,0.3,1.1,0.4,1.6c0,0,0,0,0,0l-1.7-0.1h0c-0.1,0-0.3,0-0.4,0.1
		c-0.1,0.1-0.2,0.2-0.2,0.4c0,1.6-0.1,3.2-0.6,4.8c0,0,0,0.1,0,0.1c0,0,0,0,0,0c0,0.1,0,0.1,0,0.2c0,0,0,0,0,0
		c0,0.1,0.1,0.1,0.1,0.2c0,0,0,0,0,0c0,0,0.1,0.1,0.1,0.1c0,0,0,0,0,0c0,0,0,0,0,0c0,0,0.1,0,0.1,0c0,0,0,0,0,0c0,0,0.1,0,0.1,0
		c2.3-0.7,4.3-2.2,5.6-4.2c0.9,0,1.7-0.1,2.6-0.3c0.8-0.2,1.7-0.3,2.5-0.3c0.3,0.1,0.5-0.1,0.6-0.3c0-0.1,0-0.1,0-0.2c0,0,0,0,0,0
		c0-0.1,0-0.1,0-0.2c-0.2-0.4-0.3-0.7-0.5-1.1c-0.7-1.2-1.1-2.5-1.1-3.9h0.1c1.7,1.8,4,3.1,6.4,3.6c1.9,0.4,3.8,0.7,5.7,0.8
		c1.7,0.1,3.3,0.3,4.9,0.6c2,0.4,3.7,1.1,5.1,2.1c1.3,1,2.3,2.2,2.8,3.6c0,0.1,0,0.1,0.1,0.2c0.1,0.1,0.3,0.2,0.5,0.2
		c0.2,0,0.4-0.2,0.4-0.5l0-5.4c3.3,3.7,7.9,6.2,12.8,7c0,0,0.1,0,0.1,0c0.3,0,0.5-0.2,0.5-0.5c0-0.1,0-0.2-0.1-0.2l-3.8-7.8
		c0.3,0,0.6,0,1,0c3.6,2.8,7,5.7,10.4,8.7c3.9,3.5,7.6,7.1,11.1,10.8c-3.4,0.2-6.8,0-10.1-0.5c0,0,0,0,0,0c1.4-0.3,2.8-0.8,4.2-1.4
		c0,0,0,0,0.1,0c0,0,0.1-0.1,0.1-0.1c0,0,0-0.1,0.1-0.1c0,0,0-0.1,0-0.1c0-0.1,0-0.2,0-0.3c0-0.1-0.1-0.1-0.2-0.2c0,0,0,0,0,0
		c-0.1,0-0.2-0.1-0.2-0.1c-1.1,0-2.1-0.1-3.3-0.3c-0.9-0.1-1.9-0.2-3-0.3C525.6,299.3,520.1,298,514.9,295.7z M382.2,301.8
		C382.2,301.8,382.2,301.8,382.2,301.8C382.2,301.8,382.2,301.8,382.2,301.8c0-0.1,0-0.1-0.1-0.2c0,0,0,0,0-0.1c0,0,0-0.1-0.1-0.1
		c0,0,0,0-0.1,0c0,0-0.1,0-0.1-0.1c0,0-0.1,0-0.1,0c0,0,0,0,0,0c-3.6,0-7.1-1.1-10.1-3c4.1-4.4,8.4-8.6,12.8-12.7c0,0,0,0,0,0
		c-0.1,1.3-0.4,2.6-0.8,3.9c0,0.1,0,0.2,0,0.2c0,0,0,0,0,0c0,0.1,0,0.1,0.1,0.2c0,0,0,0,0,0c0,0,0.1,0.1,0.1,0.1c0,0,0,0,0.1,0
		c0,0,0,0,0.1,0c0,0,0,0,0,0c0,0,0.1,0,0.1,0c0,0,0,0,0.1,0c0.1,0,0.1,0,0.2-0.1l2-1.4c0,0,0,0,0,0c0.1,3.1,1.6,6,3.9,7.9
		c0.1,0,0.1,0.1,0.2,0.1c0,0,0,0,0.1,0c0,0,0.1,0,0.1,0c0,0,0.1,0,0.1,0c0,0,0.1,0,0.1,0c0,0,0.1-0.1,0.1-0.1c0,0,0,0,0,0
		c0,0,0,0,0,0c0.1-0.1,0.1-0.3,0.1-0.4l-0.2-0.9c0,0,0,0,0,0c0.9,1.1,1.9,2.2,3,3.2c-1.4,1.8-2.7,3.7-4.1,5.5
		c-0.6,0.8-1.1,1.6-1.7,2.3c0,0,0,0,0,0c0,0,0-0.1,0-0.1c0-0.2-0.2-0.3-0.4-0.4c-3.4-0.5-6.8-1.5-9.9-2.9l3.9-0.6
		c0.1,0,0.1,0,0.2-0.1c0,0,0,0,0,0c0,0,0.1-0.1,0.1-0.1c0,0,0,0,0,0c0,0,0.1-0.1,0.1-0.1c0,0,0,0,0,0
		C382.2,301.9,382.2,301.9,382.2,301.8z M367.3,291.7c5.1-2.6,10.3-5.2,15.5-7.7c0,0.1,0,0.2,0,0.2c0,0.2,0.2,0.4,0.4,0.4
		c0,0,0,0,0,0c-4.5,4.1-8.8,8.4-12.9,12.9c-0.7-0.5-1.3-1.1-1.9-1.7C368,294.5,367.6,293.1,367.3,291.7
		C367.3,291.7,367.3,291.7,367.3,291.7z M384,284.1l0.2-0.6l0.3-0.1l0,0c0,0.1,0,0.2,0,0.3C384.3,283.8,384.1,283.9,384,284.1
		L384,284.1z M398.7,302.1c1.3,0.8,2.7,1.5,4.2,2v0c-0.4,0.6-0.8,1.3-1.2,1.9c-4.1,0.7-8.3,1.1-12.4,1.1l0,0
		c1.9-2.6,3.8-5.2,5.7-7.7c0.1,0.1,0.2,0.2,0.4,0.3C396.4,300.6,397.5,301.4,398.7,302.1z M404.3,304.6
		C404.3,304.6,404.3,304.6,404.3,304.6c0.3,0.1,0.7,0.2,1,0.3h0c-0.3,0.1-0.7,0.3-1,0.4c-0.2,0.1-0.4,0.2-0.7,0.3L404.3,304.6z
		 M409,312.5C409,312.5,408.9,312.4,409,312.5c0-0.1-0.1-0.2-0.1-0.2c0,0,0,0,0-0.1c0,0,0,0,0,0c0,0-0.1-0.1-0.1-0.1c0,0,0,0,0,0
		c-0.1,0-0.1,0-0.2,0l-1.5,0c2.6-2,4.9-4.5,6.7-7.3c0,0,0,0,0,0c0.3,1,0.7,2,1,2.9c-1.7,3.7-3.4,7.5-5,11.2v0v0l-5.4-3.7
		c1.7-0.4,3.2-1.1,4.5-2.2c0,0,0,0,0,0c0,0,0.1-0.1,0.1-0.1c0,0,0-0.1,0-0.1c0,0,0-0.1,0-0.1C409,312.6,409,312.5,409,312.5z
		 M407.8,323.3l-0.2,0.5l-0.1,0c-0.1,0-0.2,0.1-0.2,0.1c0,0,0,0,0,0c-0.1,0.1-0.1,0.1-0.1,0.2c0,0,0,0,0,0c0,0.1,0,0.1,0,0.2
		c0,0,0,0,0,0c0,0.1,0.1,0.2,0.1,0.2c0,0,0,0,0,0c-0.6,1.4-1.2,2.8-1.8,4.3l-5.2-2.9l-5.8-3.3l4.6-0.5c0,0,0,0,0,0
		c0.1,0,0.2-0.1,0.3-0.1c0,0,0,0,0,0c0,0,0-0.1,0.1-0.1c0,0,0-0.1,0-0.1c0,0,0-0.1,0-0.1c0,0,0-0.1,0-0.1c0,0,0,0,0,0c0,0,0,0,0,0
		c0-0.1-0.1-0.2-0.1-0.3l-3.4-3.5c0.4-0.7,0.9-1.4,1.3-2.1c0,0,0,0,0,0c0.5,0.5,1.1,1,1.6,1.5c0.8,0.7,1.6,1.5,2.5,2.2
		C403.3,321,405.4,322.4,407.8,323.3z M396.5,314.2c-0.6,0.9-1.1,1.8-1.7,2.7c0,0,0,0,0,0l-1.7-1.7
		C394.3,315,395.4,314.6,396.5,314.2C396.5,314.2,396.5,314.2,396.5,314.2z M387.4,307.2c0.1-0.1,0.3-0.2,0.4-0.3c0,0,0,0,0,0
		l-0.2,0.3C387.6,307.2,387.5,307.2,387.4,307.2C387.4,307.2,387.4,307.2,387.4,307.2z M583,292.9c-0.5,0-1,0-1.4-0.1c0,0,0,0,0,0
		c-0.1,0-0.2,0-0.2,0c0,0,0,0,0,0c-0.1,0-0.1,0.1-0.2,0.1c0,0,0,0,0,0c0,0-0.1,0.1-0.1,0.2c0,0,0,0,0,0c0,0,0,0,0,0.1c0,0,0,0,0,0.1
		c0,0,0,0.1,0,0.1c0,0,0,0.1,0,0.1c0,0,0,0,0,0.1c0,0,0,0.1,0.1,0.1l2.8,2.2c-2.4,0.8-4.9,1.4-7.5,1.8c0,0,0,0,0,0
		c-1.1-0.9-2.1-1.7-3.2-2.5c1.8-0.7,3.6-1.6,5.4-2.5c1.5-0.8,3.1-1.7,4.5-2.5c5-2.8,10.1-5.7,15.7-6.9c0.2-0.1,0.4-0.2,0.4-0.4
		c0-0.2-0.1-0.4-0.3-0.5l-4.7-2.3c0,0,0,0,0,0c3,1.2,6,2.5,9,3.7c0,0.1-0.1,0.1-0.1,0.2c0,0.2,0.1,0.4,0.3,0.5l0.6,0.3
		c-2.8,0.7-5.5,1.7-8,3c-0.7,0.2-1.4,0.3-2.2,0.5c-0.6,0.1-1.3,0.3-1.9,0.4c-0.1,0-0.2,0.1-0.3,0.2
		C589.6,291.3,586.4,292.8,583,292.9z M551.1,267.1c0.3-0.7,0.5-1.3,0.7-2c11.2,3.2,22.2,6.9,33,11.2l0.2,0.1l0,0l-5.7,1
		c-0.1,0-0.1,0-0.2,0.1c0,0,0,0-0.1,0.1c0,0-0.1,0-0.1,0.1c0,0,0,0,0,0.1c0,0,0,0.1,0,0.1c0,0,0,0.1,0,0.1c0,0,0,0.1,0,0.1
		c0,0,0,0,0,0c0,0.1,0,0.1,0.1,0.2c1,1.7,2.5,3,4.2,3.7h0c-1.7,1.6-3.5,3-5.5,4.2s-4,2.2-6.2,3c-1.4,0.5-2.9,1-4.4,1.3
		c-3.6-2.6-7.2-5.1-11-7.4c-3.7-2.3-7.6-4.6-11.5-6.6c0.4-0.4,0.9-0.8,1.3-1.1c0.8-0.8,1.6-1.6,2.2-2.5
		C549.3,270.9,550.3,269,551.1,267.1z M552.1,263.7c0.2-1.1,0.3-2.3,0.4-3.4c0.1,0,0.2,0.1,0.2,0.1c0.3,0.7,0.5,1.5,0.5,2.3
		c0,0.1,0,0.2,0.1,0.2c0,0,0,0,0,0c0,0.1,0.1,0.1,0.1,0.1c0,0,0,0,0,0c0,0,0.1,0,0.1,0c0,0,0,0,0.1,0c0,0,0,0,0,0c0,0,0,0,0,0
		c0.1,0,0.1,0,0.2,0c0,0,0,0,0.1,0c0.1,0,0.1-0.1,0.1-0.2c0,0,0,0,0,0c0.3-0.5,0.5-1.1,0.7-1.6c7.8,3,15.4,6.3,22.9,10.1
		c1.6,0.9,3.3,1.8,4.9,2.7c0,0,0,0,0,0c-1-0.4-2-0.8-3-1.1C570.7,269.4,561.5,266.3,552.1,263.7
		C552.1,263.7,552.1,263.7,552.1,263.7z M343.1,241.6c0.1-0.1,0.1-0.2,0.2-0.4c0,0,0-0.1,0-0.1c0,0,0-0.1,0-0.1
		c0-0.1,0.1-0.1,0.1-0.2c0,0,0,0,0,0c0-0.1,0.1-0.2,0.1-0.3c0.1-0.4,0.2-0.9-0.1-1.3c-0.5-0.9-1.7-0.7-2.5-0.4h0h0h0l5.7-7.6
		c0.2-0.1,0.3-0.3,0.3-0.5c0,0,0,0,0,0c0-0.1,0-0.2,0-0.3c0,0,0,0,0,0c0-0.1-0.1-0.2-0.2-0.2c0,0,0,0,0,0c0,0,0,0,0,0
		c0,0-0.1-0.1-0.1-0.1c0,0-0.1,0-0.1,0c0,0-0.1,0-0.1,0c0,0-0.1,0-0.1,0c0,0-0.1,0-0.1,0.1c0,0-0.1,0-0.1,0.1l-0.1,0.1
		c0,0-0.1,0-0.1-0.1c0,0,0,0,0,0c0-0.3,0.2-0.6,0.5-0.9l6.4-7.2c0,0,0,0,0,0c0-0.1,0.1-0.1,0.1-0.2c0,0,0-0.1,0-0.1c0,0,0-0.1,0-0.1
		c0,0,0,0,0-0.1c0,0,0-0.1-0.1-0.1c0,0,0,0,0,0c0,0,0,0-0.1-0.1c0,0,0,0-0.1,0c0,0-0.1,0-0.1-0.1c0,0-0.1,0-0.1,0
		c-1.4-0.2-2.6-1.1-3.1-2.4c0,0,0,0,0,0c0.8-0.3,1.7-0.3,2.6,0c0.2,0.1,0.3,0,0.5-0.1c0.1-0.1,0.2-0.2,0.2-0.4c0,0,0,0,0,0
		c-0.1-5.8-3.6-11-8.9-13.4c0,0,0,0,0,0l3.9-1.4c0.1,0,0.2-0.1,0.3-0.3c0,0,0,0,0,0c0,0,0-0.1,0-0.1c0,0,0-0.1,0-0.1
		c0,0,0-0.1,0-0.1c0,0,0,0,0,0c0-0.1-0.1-0.2-0.2-0.3l-3.4-1.9l0,0l4.6-1.3c0.2-0.1,0.4-0.3,0.4-0.5c0,0,0,0,0,0
		c0-0.3-0.3-0.4-0.5-0.4c-2.5,0.2-5,0-7.4-0.5c0,0,0,0,0,0c0.7-0.2,1.2-0.6,1.5-1.2c0-0.1,0-0.1,0.1-0.2c0-0.2,0-0.3-0.2-0.5
		c-3.6-2.9-6.8-6.3-9.5-10c-0.3-0.4-0.6-0.8-0.9-1.2c1.5,0.9,3.1,1.5,4.8,1.9c0,0,0,0,0.1,0c0.1,0,0.1,0,0.2,0c0,0,0.1,0,0.1,0
		c0,0,0.1,0,0.1-0.1c0,0,0.1,0,0.1-0.1c0,0,0,0,0,0c0,0,0.1-0.1,0.1-0.2c0,0,0,0,0,0c0,0,0,0,0,0c0-0.1,0-0.2,0-0.2c0,0,0,0,0,0
		c0-0.1-0.1-0.2-0.1-0.2c-2.3-2.2-4.3-4.8-5.6-7.6c4.5,3.6,10,5.7,15.7,6c0.7,0.1,1.4-0.1,1.9-0.5c0.4-0.4,0.6-0.9,0.5-1.4
		c-0.1-0.7-0.4-1.3-0.9-1.8c-0.2-0.2-0.4-0.3-0.6-0.4c-0.3-0.2-0.6-0.3-0.9-0.5c-0.2-0.1-0.5-0.2-0.7-0.4c0,0,0,0,0,0l7,1
		c0.3,0,0.5-0.1,0.6-0.4c0-0.1,0-0.3-0.1-0.4l-0.9-1.2c1.3,0.4,2.6,0.4,3.9,0.1c0.1,0,0.2-0.1,0.3-0.2c0,0,0,0,0,0
		c0,0,0-0.1,0.1-0.2c0,0,0,0,0,0c0-0.1,0-0.1,0-0.2c0,0,0,0,0,0c0,0,0,0,0-0.1c0,0,0-0.1,0-0.1c0,0-0.1-0.1-0.1-0.1c0,0,0,0,0,0
		c0,0,0,0,0,0c-4-2.9-6.9-7.1-8.2-11.9l5.4,3.3c0.1,0,0.2,0.1,0.2,0.1c0,0,0,0,0,0c0.1,0,0.2,0,0.2-0.1c0,0,0,0,0,0
		c0.1,0,0.1-0.1,0.1-0.1c0,0,0,0,0,0c0,0,0,0,0,0c0,0,0,0,0-0.1c0,0,0-0.1,0-0.1c0,0,0-0.1,0-0.1c0-0.1,0-0.1-0.1-0.2c0,0,0,0,0,0
		l-1-1.5l5,2.2c0,0,0.1,0,0.1,0c0,0,0,0,0.1,0c0,0,0.1,0,0.1,0c0,0,0,0,0,0c0,0,0.1,0,0.1-0.1c0,0,0,0,0,0c0,0,0.1-0.1,0.1-0.1
		c0,0,0,0,0,0c0,0,0,0,0,0c0,0,0-0.1,0-0.1c0,0,0,0,0,0c0-0.1,0-0.1,0-0.2c0,0,0,0,0,0c0-0.1,0-0.1-0.1-0.2c0,0,0,0,0,0
		c0-0.1-0.1-0.1-0.1-0.1c0,0,0,0,0,0c-0.5-0.3-0.9-0.6-1.4-1c-1.3-1-2.5-2.2-3.5-3.6c4.4,2.8,9.6,4,14.7,3.6c0.1,0,0.2,0,0.2-0.1
		c0,0,0,0,0,0c0.1,0,0.1-0.1,0.1-0.2c0,0,0,0,0,0c0-0.1,0-0.1,0-0.2c0,0,0,0,0,0c0,0,0,0,0,0c0,0,0,0,0-0.1c0-0.1,0-0.1-0.1-0.1
		c0,0,0,0,0-0.1c0-0.1-0.1-0.1-0.2-0.1l-0.2-0.1c0,0,0,0,0,0c1.9,0,3.9-0.3,5.7-1c0.1,0,0.2-0.1,0.2-0.2c0,0,0,0,0,0
		c0-0.1,0.1-0.1,0.1-0.2c0,0,0,0,0,0c0-0.1,0-0.1,0-0.2c0,0,0,0,0,0c0,0,0,0,0,0c0,0,0,0,0,0c0-0.1-0.1-0.1-0.1-0.2c0,0,0,0-0.1,0
		c-0.1,0-0.1-0.1-0.2-0.1c-6.8-0.7-13.3-3.1-18.9-7.1c0,0,0,0,0,0c-2.6-1.8-7.4-9.1-7.5-9.2c0-0.1-0.1-0.1-0.2-0.1c0,0,0,0-0.1,0
		c0,0-0.1,0-0.1,0c0,0-0.1,0-0.1,0c0,0,0,0-0.1,0c0,0-0.1,0-0.1,0.1c0,0,0,0,0,0c0,0,0,0,0,0c-0.1,0.1-0.2,0.2-0.2,0.4
		c0,0.7,0,1.4,0.1,2.1c0,0,0,0,0,0c-1.7-2.5-2.9-6-4.2-9.7c-2-6-4.3-12.5-9.1-15.8c-1.6-1.1-3.5-1.8-5.7-2.1c-0.2,0-0.4,0.1-0.5,0.3
		c-0.1,0.2,0,0.5,0.2,0.6c0,0,0,0,0,0c1,0.6,1.9,1.2,2.7,1.9c5.7,4.4,7,9.5,6,12.3c0,0,0,0,0,0c-0.6-0.8-1.3-1.5-2-2
		c-2.1-1.7-4.5-2.3-6.1-1.8c-0.2,0.1-0.3,0.2-0.3,0.3c0,0.2,0,0.3,0.1,0.5c2.1,2.4,3.8,5.2,5,8.1c-1.7-0.9-3.5-1.5-5.4-1.8
		c0,0,0,0-0.1,0c-0.1,0-0.1,0-0.2,0c0,0-0.1,0-0.1,0c0,0-0.1,0-0.1,0.1c0,0-0.1,0-0.1,0.1c0,0,0,0,0,0c0,0,0,0.1-0.1,0.1
		c0,0,0,0,0,0c0,0,0,0,0,0c0,0.1,0,0.1,0,0.2c0,0,0,0,0,0c0,0.1,0.1,0.1,0.1,0.2c3.7,3.2,4.2,8.6,4.3,11.1c-1.8,0.3-5.3,0.2-8.6-2.2
		c-1.5-1.1-3-2.6-4.2-4.8c0-0.1-0.1-0.1-0.2-0.2c0,0,0,0-0.1,0c0,0-0.1,0-0.1,0c0,0-0.1,0-0.1,0c0,0,0,0-0.1,0c0,0-0.1,0-0.1,0
		c0,0,0,0,0,0c0,0,0,0,0,0c-0.1,0-0.1,0.1-0.2,0.1c0,0,0,0,0,0c0,0.1-0.1,0.1-0.1,0.2c-0.4,8.5,2.9,12.8,5.5,16.2
		c0.9,1.1,1.7,2.3,2.4,3.6c0,0,0,0,0,0c-1.6-0.7-4.5-2.1-5.5-4.5c-0.1-0.3-0.4-0.4-0.7-0.3c-0.2,0.1-0.3,0.3-0.3,0.5
		c0,0.1,0,0.1,0,0.2c1.4,3.8,2.6,7.7,3.5,11.7c1.7,6.7,3,12.2,10,20l1.2,4.4c0,0,0,0,0,0c-3.6-3.9-6.9-8.1-9.9-12.4
		c-0.9-2.9-1.7-5.7-2.4-8.4l-5-17.6c-2-6.9-4-14.1-3.5-21.4c0.1-0.8,0.1-1.5,0.3-2.3c0.9-5.5,3.7-11.7,9.3-14.9l-0.2,1.7
		c0,0,0,0,0,0.1c0,0.1,0,0.1,0,0.2c0,0,0,0.1,0.1,0.1c0,0,0,0,0.1,0.1c0.1,0.1,0.2,0.1,0.3,0.1c0.2,0,0.4-0.1,0.5-0.2
		c1.5-2.5,5.1-3.7,8.3-2.7c3.5,1,5.8,3.9,7.2,6.2c1.3,2.3,2.4,4.6,3.2,7.1c0.3,0.7,0.5,1.4,0.8,2.1c3.1,7.6,6.8,13.2,11.4,17.1
		c4.2,3.6,9.4,5.6,14.9,5.7c0.6,0.3,1.2,0.4,1.9,0.5c0.2,0,0.4,0,0.6,0c1.5-0.1,3-0.4,4.4-1c5.1-1.9,9.9-4.7,14-8.3c0,0,0,0,0-0.1
		c0,0,0.1-0.1,0.1-0.1c0,0,0-0.1,0-0.1c0,0,0-0.1,0-0.1c0,0,0,0,0-0.1c0-0.1,0-0.1,0-0.1c0,0,0,0,0,0c0,0,0-0.1-0.1-0.1c0,0,0,0,0,0
		c0,0,0,0,0,0c0,0-0.1-0.1-0.1-0.1l-6.4-2.2l0,0c6.1-4,13.2-6,20.5-5.8c0.2,0,0.4-0.1,0.5-0.3c0-0.1,0.1-0.2,0.1-0.3
		c0-0.1,0-0.2-0.1-0.3l-1.4-2l0,0c7.1-0.6,13.9-2.9,19.9-6.7c3.8-1.1,7.3-3.1,10.1-5.9c0.8-0.7,1.5-1.4,2.3-2.2
		c2.8-2.6,5.6-5.3,9.1-6.8c5.6-2.4,12-1.4,18.2-0.4c5.7,0.9,11.6,1.9,17,0.2c2.2,0.5,4.5,0.5,6.7,0.2c2.3-0.4,4.6-0.9,6.9-1.6
		c1.3-0.4,2.6-0.7,4-1.1c4.2-1,7.5-1,10.2,0l0,0l-0.2,0.9c0,0,0,0,0,0c-0.1,0.3,0.1,0.5,0.4,0.6c0.1,0,0.3,0,0.4,0
		c3.9-2.1,8.8-1,12.2,0c0.7,0.2,1.3,0.4,2,0.6c2.4,0.8,4.8,1.4,7.3,1.8c0,0,0,0,0,0c-0.1,0.1-0.2,0.1-0.3,0.2
		c-0.9,0.6-1.8,1.1-2.5,1.5c-1.9,1-3.3,1.9-4.2,3.5c0,0.1-0.1,0.2-0.1,0.3c0,0.1,0,0.2,0.1,0.3c0.1,0.2,0.3,0.2,0.5,0.2
		c5.6-0.7,10.9-2.8,15.4-6.1c0,0,0,0,0,0c-0.4,1.3-0.8,2.7-1.1,4c-0.8,4.1-0.9,8.2-0.1,12.3c0,0.2,0.2,0.3,0.3,0.4
		c0.2,0.1,0.4,0,0.5-0.1c3.8-3.4,7.2-7.4,10-11.7c0,0,0,0,0,0c0-0.1,0.1-0.1,0.1-0.2c0,0,0,0,0,0c0-0.1,0-0.1,0-0.2c0,0,0,0,0,0
		c0-0.1-0.1-0.1-0.1-0.2c0,0,0,0,0-0.1c0,0-0.1,0-0.1,0c0,0,0,0,0,0c-0.1,0-0.2,0-0.4,0l-5.6,2.6l0,0c4.9-9.6,9.9-19.4,13.3-29.8
		c1.2-3.7,2.1-7.4,2.8-11c1.5-7.8,1.7-15.3,0.5-22.1c0,0,0,0,0,0c9.5,1.6,18.8,7,25.6,15c6.3,7.3,10.8,17,13.1,27.9
		c2.2,10.4,2.2,21.1,2.3,31.5l0.1,23.1c0,2.8,0,6.2,1.9,8.9c1.1,1.6,2.9,2.6,4.8,2.7c0.1,0,0.3,0,0.4,0c0,0,0.1,0,0.1,0
		c0.1,0.7,0.2,1.5,0.4,2.2c0.1,0.2,0.2,0.4,0.5,0.4c1.7,0.1,3.4,0.6,4.9,1.3c0,0,0,0,0,0c-0.4,0.1-0.9,0.2-1.3,0.4
		c-0.1,0-0.1,0.1-0.2,0.2c0,0,0,0,0,0c0,0.1-0.1,0.1-0.1,0.2c0,0,0,0.1,0,0.1c0,0,0,0,0,0.1c0,0.1,0,0.1,0,0.1c0,0,0,0,0,0
		c0,0,0,0,0,0c0.1,0.1,0.2,0.2,0.4,0.3c1.7,0.2,2.7,2,3.1,3.5c0.2,0.7,0.3,1.4,0.4,2.2c0.1,0.7,0.2,1.4,0.4,2.1c0,0,0,0,0,0
		c-0.9-0.5-1.7-1.1-2.4-1.8c-0.2-0.2-0.5-0.2-0.7,0c-0.1,0.1-0.1,0.2-0.1,0.3c0,0,0,0,0,0c-0.2,3.2,0.7,6.3,2.6,8.8l0,0l-1.8-0.5
		c-4.3-4.6-9.2-8.6-14.6-11.9c-0.2-0.1-0.5-0.1-0.6,0.1c0,0,0,0,0,0c0,0,0,0,0,0c0,0,0,0,0,0.1c0,0,0,0.1,0,0.1c0,0,0,0,0,0.1
		c0,0.1,0,0.2,0,0.2c1.3,2.5,4.7,6.3,7.1,9.1c0.8,0.8,1.6,1.7,2.3,2.7c0.8,1.5,1.3,3.2,1.7,4.8c0.4,1.7,1,3.3,1.9,4.8l0,0l-2.9,0.5
		c-0.1,0-0.2,0.1-0.2,0.1c0,0,0,0,0,0c0,0-0.1,0.1-0.1,0.1c0,0,0,0,0,0.1c0,0,0,0.1,0,0.1c0,0,0,0.1,0,0.1c0,0,0,0,0,0c0,0,0,0,0,0
		c0,0.1,0.1,0.2,0.1,0.2c5.8,6.8,8.7,15.6,8.2,24.6l0,0l-4.1,0.6c-0.1,0-0.2,0.1-0.3,0.1c0,0,0,0,0,0c0,0-0.1,0.1-0.1,0.1
		c0,0,0,0,0,0.1c0,0,0,0.1,0,0.1c0,0,0,0.1,0,0.1c0,0,0,0,0,0c0,0,0,0,0,0c0,0.1,0.1,0.2,0.1,0.2c3.9,4.4,5.7,10.3,5.1,16.2
		c0,0,0,0,0,0c-0.5,3.2-1.4,6.4-2.6,9.4c-0.5,1.3-0.9,2.6-1.4,3.9c-0.5,1.3-0.8,2.7-1,4c-0.2,1.4-0.4,2.7-0.4,4.1c0,0,0,0,0,0
		c-0.1,0.4-0.2,0.8-0.3,1.2c-0.6,2.9-0.6,5.9,0,8.8c0,0,0,0,0,0c-0.5,0-1.1,0-1.6-0.2c-0.1,0-0.3,0-0.4,0c-0.1,0.1-0.2,0.2-0.3,0.3
		c-0.2,0.6-0.4,1.3-0.6,1.9c-0.5,1.9-0.6,4-0.5,6c0,0,0,0,0,0c-1-0.3-2-0.5-3-0.4c-3-1.3-6.1-2.6-9.2-3.8c0,0,0,0,0,0l6.8-1.6
		c0.1,0,0.1,0,0.2-0.1c0,0,0,0,0,0c0,0,0.1-0.1,0.1-0.1c0,0,0,0,0,0c0,0,0-0.1,0-0.1c0,0,0-0.1,0-0.1c0,0,0,0,0-0.1c0,0,0,0,0-0.1
		c0,0,0-0.1,0-0.1l-1.2-2.4l0,0l5.4-0.2c0,0,0.1,0,0.1,0c0,0,0.1,0,0.1,0c0,0,0.1-0.1,0.1-0.1c0,0,0,0,0,0c0,0,0.1-0.1,0.1-0.1
		c0,0,0,0,0-0.1c0,0,0-0.1,0-0.1c0,0,0,0,0-0.1c0,0,0,0,0,0c0-0.1,0-0.1-0.1-0.2c0,0,0-0.1,0-0.1l-5.7-8l0,0l3.1,0.7
		c0.2,0,0.4,0,0.5-0.2c0,0,0,0,0,0c0,0,0-0.1,0.1-0.1c0,0,0,0,0,0c0,0,0,0,0,0c0,0,0,0,0-0.1c0-0.1,0-0.1,0-0.2c0,0,0,0,0,0
		c0-0.1-0.1-0.2-0.3-0.3c-1.5-0.7-2.9-1.6-4.3-2.5c-0.8-0.5-1.5-1-2.2-1.4c-0.2-0.1-0.5-0.1-0.6,0.1c0,0,0,0,0,0c0,0,0,0,0,0
		c0,0,0,0,0,0c0,0.1-0.1,0.2,0,0.3l0.9,6.8l0,0l-2.1-0.6c-0.3-0.1-0.5,0.1-0.6,0.3c0,0,0,0.1,0,0.1c0,0.1,0,0.2,0,0.3l1.3,2.7l0,0
		l-2,0c-0.3,0-0.5,0.2-0.5,0.5c0,0,0,0,0,0c0,0.3,0.2,0.5,0.5,0.5c0.2,0,0.3,0.1,0.3,0.3c0.1,0.2,0.1,0.3,0.1,0.5
		c0,0.2-0.1,0.3-0.2,0.5c-0.6,0.5-1.3,0.8-2.1,0.9l-6.7,1.2c-1.5-0.6-2.9-1.1-4.4-1.7c-1.6-1.1-3.2-2.2-4.9-3.2
		c-7.2-4.3-14.9-8-22.7-11c0,0,0,0,0,0c0.6-1.7,1.1-3.4,1.4-5.1c0.5-2.9,0.6-5.8,0.2-8.8c0,0,0,0,0,0c1.8,0.8,3.7,1,5.6,0.5
		c0.2-0.1,0.3-0.2,0.4-0.4c0-0.1,0-0.1,0-0.2c0-0.1,0-0.1-0.1-0.2c-7.3-9-18.2-14.3-29.9-14.5c0,0,0,0,0,0l4-2l0,0
		c0.2-0.1,0.4-0.4,0.2-0.7c-0.1-0.2-0.4-0.3-0.6-0.3c-8.3,3.2-19.7,7.5-30,4.5c-0.1,0-0.2,0-0.3,0c0,0,0,0,0,0
		c-0.1,0-0.1,0.1-0.2,0.1c-0.1,0.1-0.1,0.1-0.1,0.2c-0.1,0.2,0,0.4,0.1,0.5c3.7,3.5,8.4,5.6,13.4,6.1c0,0,0,0,0,0
		c-0.9,0.4-2,0.5-3,0.3c-0.1,0-0.2,0-0.3,0c0,0,0,0,0,0c-0.1,0-0.1,0.1-0.2,0.2c0,0.1-0.1,0.1-0.1,0.2c0,0.2,0,0.4,0.2,0.5
		c1.4,0.8,1.9,2.4,2.6,4.4c0.3,0.9,0.6,1.8,1,2.8c0.1,0.3,0.2,0.5,0.3,0.8c0,0,0,0,0,0c-8.1-1.8-16.3-2.6-24.5-2.6
		c-0.1-0.1-0.1-0.3,0-0.4c0,0,0,0,0,0c0,0,0,0,0,0c0,0,0,0,0,0c0-0.3-0.2-0.5-0.4-0.6l-3-0.4c-0.2,0-0.5-0.1-0.7-0.1
		c-0.1,0-0.3,0-0.4,0.1c-0.1,0.1-0.2,0.2-0.2,0.3c0,0.3,0.2,0.5,0.4,0.6c0,0,0,0,0.1,0.1c0.2,0.1,0.4,0.2,0.7,0.3
		c0,0.1,0.1,0.2,0.2,0.3c0,0,0,0,0,0c-2,0.1-4.1,0.2-6.1,0.4c0,0,0.1,0,0.1,0c6.3-0.2,13.8,0.7,19.5,1.3c4.9,0.6,9.9,1.4,14.9,2.5
		c0.7,2.3,1,4.6,1,7c0,0,0,0,0,0c-6.5-0.8-13.1-1.1-19.7-1c0.1-0.2,0-0.5-0.2-0.6l-1.5-1c0.1-0.4-0.1-0.4-2.2-1.2
		c-0.1,0-0.2,0-0.4,0c-0.1,0-0.2,0-0.3,0c0,0,0,0,0,0c-0.1,0-0.1,0-0.2,0.1c0,0,0,0-0.1,0c0,0,0,0,0,0c0,0-0.1,0.1-0.1,0.2
		c-0.1,0.2,0,0.4,0.1,0.5c0.9,1,2.1,1.7,3.4,2.1c0,0,0,0,0,0c-3.6,0.1-7.2,0.3-10.8,0.7c0.1-0.1,0-0.3,0-0.4
		c-0.1-0.1-0.2-0.2-0.3-0.3c0,0,0,0,0,0l0.9,0.3c0.1,0.1,0.3,0,0.4,0c0.1,0,0.2-0.1,0.3-0.3c0.1-0.3,0-0.5-0.3-0.7l-3.2-1.3
		c-0.1-0.1-0.3-0.1-0.4-0.2c-0.2-0.1-0.4,0-0.5,0.1c0,0,0,0,0,0c-0.1,0-0.2,0.1-0.2,0.2c-0.1,0.2-0.1,0.4,0,0.6
		c0.1,0.1,0.2,0.2,0.3,0.3c-0.2,0.2-0.2,0.5,0.1,0.7c0.1,0.1,0.2,0.1,0.3,0.1c0.1,0,0.3,0,0.4,0c0.4,0.4,0.9,0.7,1.3,0.9
		c0,0,0,0,0,0c-1.6,0.2-3.2,0.4-4.7,0.6c0,0,0,0,0.1,0c12.5-0.7,25.1-0.4,37.5,0.9c-0.1,2.3-0.6,4.6-1.4,6.8c0,0,0,0,0,0
		c-4.9-1.6-9.9-2.8-15.1-3.7c-4.7-0.7-9.6-1.3-14.2-0.3c0,0,0,0,0.1,0c5-0.6,9.6,0.4,14.5,1.4c4.8,1,9.5,2.4,14.2,3.9
		c-0.2,0.5-0.5,1.1-0.8,1.6l0,0l0-0.6c0-0.3-0.2-0.5-0.5-0.5c0,0,0,0,0,0c0,0,0,0,0,0c0,0-0.1,0-0.1,0c-0.1,0-0.1,0.1-0.2,0.1
		c-2.1,2.5-4.7,4.5-7.5,6.1c0,0,0,0,0,0c-4.3-2.7-8.8-5.1-13.4-7.2c-0.4-0.3-0.9-0.6-1.4-0.8c-0.1,0-0.2,0-0.3,0
		c-0.1,0-0.2-0.1-0.3-0.1l0,0c-0.1-0.1-0.2-0.1-0.3-0.1c-1.9-0.8-3.7-1.5-5.7-2.1c-4.3-1.3-8.8-2.6-13.3-2.4c0,0,0.1,0,0.1,0
		c4.5,0.1,8.8,1.7,13,3.2c1.9,0.7,3.7,1.5,5.6,2.4c0.1,0.1,0.1,0.3,0.2,0.4h0h-0.1c-0.1,0-0.2,0-0.3,0.1c-0.1,0.1-0.2,0.1-0.2,0.2
		c-0.1,0.2,0,0.4,0.1,0.6l2.4,2.2c0.1,0.1,0.2,0.1,0.3,0.1c0,0,0,0,0.1,0c0,0,0.1,0,0.1,0c0,0,0.1,0,0.1,0c0,0,0,0,0.1,0
		c0,0,0,0,0.1,0c0,0,0,0,0,0c0,0,0,0,0,0c0.1-0.1,0.1-0.2,0.1-0.3c0-0.1-0.1-0.3-0.1-0.4c0,0,0,0,0,0c0.4,0.1,0.7,0.2,1.1,0.3
		c0.1,0,0.2,0,0.3,0c0.1,0,0.2-0.1,0.2-0.2c0.1-0.1,0.1-0.3,0.1-0.5c0,0,0,0,0,0c2.6,1.3,5.2,2.7,7.7,4.2c0.8,0.5,1.6,0.9,2.3,1.4
		c0,0,0,0,0,0c-7.6,3.9-16.5,4.4-24.6,1.4c-0.1,0-0.2,0-0.3,0c-0.5-0.3-1-0.6-1.5-0.9c-3.5-2-7.2-4.1-11.2-4.8
		c-0.8-0.2-1.6-0.3-2.4-0.4c-0.4-0.1-0.8-0.1-1.2-0.2c-0.7-0.5-1.5-0.9-2.2-1.3l-0.4-0.2c-2.1-0.6-3.5-2.5-3.7-4.6
		c-0.3-0.6-0.2-1.3,0-1.9c0.1-0.1,0.3-0.2,0.4-0.3c0.2-0.1,0.3-0.2,0.5-0.2c0.2-0.1,0.3-0.1,0.5-0.2c0,0,0,0,0,0c2-1,2.7-3.4,3-4.7
		c0.1-0.7,0.2-1.5,0.3-2.2c0.1-1,0.2-2,0.5-2.9c0.2-0.7,0.5-1.4,0.9-1.9c0,0,0,0,0,0l0.2-0.1c0.5-0.2,0.9-0.4,1.3-0.6
		c1.3-0.7,2.5-1.6,3.5-2.7c1.4-1.6,1.8-3.8,1.1-5.8c-0.7-1.6-2.5-2.8-4.8-3.2c-0.1,0-0.2,0-0.4,0.1c-0.1,0.1-0.2,0.2-0.2,0.3
		c-0.1,0.2,0,0.5,0.2,0.6c0.2,0.1,0.3,0.2,0.4,0.3c0,0,0,0,0,0c1.7,1.2,2.3,3.5,1.4,5.4c-0.7,1.3-1.9,2.1-3.4,2.2
		c-0.7,0-1.4,0-2.1-0.1c-0.4-0.1-0.9-0.1-1.3-0.1c-1.3-0.2-2.7,0.3-3.5,1.3c-1,1.3-0.5,3.1-0.1,4c0.1,0.3,0.3,0.7,0.5,1
		c0.4,0.7,0.7,1.4,0.8,2.2c0.1,1.1-0.1,2.2-0.7,3.1c-0.1,0.2-0.3,0.5-0.4,0.7c-0.8,1-2,1.5-3.2,1.5c-0.2,0-0.3,0.1-0.4,0.2
		c0,0,0,0.1-0.1,0.1c-1.5-0.1-2.9-0.6-4.1-1.5c-1.1-0.9-2-2.1-2.5-3.5c-0.1-0.4-0.2-0.7-0.2-1.1c-0.1-0.5-0.2-1-0.3-1.5
		c-0.2-0.8-0.6-1.4-1.2-1.9c-0.2-0.2-0.4-0.3-0.6-0.4c-0.9-0.3-1.8-0.3-2.7,0c-0.5,0.1-0.9,0.2-1.4,0.2c-0.5,0-0.9-0.1-1.3-0.3
		c0,0-0.1,0-0.1-0.1c-0.1-0.1-0.3-0.2-0.4-0.3c-0.1,0-0.1-0.1-0.2-0.2c-0.1-0.1-0.2-0.2-0.3-0.2c-0.1-0.1-0.2-0.2-0.2-0.3
		c0-0.1-0.1-0.1-0.1-0.2c-0.1-0.1-0.2-0.3-0.2-0.4c0,0,0-0.1,0-0.1c-0.1-0.2-0.1-0.3-0.2-0.5c0,0,0,0,0,0c0-0.2-0.1-0.5-0.1-0.7
		c0-0.1,0-0.2,0-0.4c0-0.1,0-0.2,0.1-0.3c0-0.2,0.1-0.3,0.1-0.4c0-0.1,0.1-0.1,0.1-0.2c0.2-0.4,0.4-0.7,0.7-1
		c0.8-0.7,1.3-1.7,1.3-2.8c0-0.1,0-0.2-0.1-0.3c0,0,0,0,0,0c0,0-0.1-0.1-0.1-0.1c0,0,0,0-0.1-0.1c0,0,0,0,0,0c-0.1,0-0.1,0-0.2,0
		c0,0-0.1,0-0.1,0c-1.8,0.3-2.9,2-3.6,3.5c-0.6,1.2-1.1,2.5-1.3,3.8c-0.2,1.4,0.2,2.9,1.2,4c0,0,0,0,0,0c1,0.9,2.2,1.4,3.5,1.6
		c1,0.2,2,0.6,2.9,1.2c0,0,0,0,0,0c0.7,0.7,1.2,1.5,1.5,2.4c0.4,0.9,0.9,1.8,1.5,2.5c0.1,0.1,0.3,0.3,0.4,0.4
		c1.1,0.9,2.4,1.3,3.8,1.3c0.2,0,0.3,0,0.5,0c0.2,0,0.4,0,0.5-0.1h0c1,0.7,1.8,1.7,2.2,2.9c0.6,2.4,0.2,4.9-1.2,6.9
		c-1.2,1.7-2.5,3.3-4,4.7c-0.3,0.3-0.7,0.7-1,1c-1.1,1.1-2.1,2.4-3,3.7l-0.9,1.2c-2.6,3.4-5.3,6.9-9,8.9c-3.9,2.1-8.4,2.7-12.6,1.6
		c0,0,0,0,0,0c1.5-3,3.1-6,4.8-8.9c0,0,0,0,0,0c0,0.2,0,0.3,0,0.5c0,0.1,0.1,0.2,0.1,0.3c0.1,0.1,0.2,0.1,0.3,0.2h0
		c0.2,0,0.5-0.2,0.5-0.4l0.5-2.8c0.1-0.2,0.2-0.4,0.2-0.6c0.8-1.3,1.5-2.6,2.3-3.9c2.4-3.5,4.8-7.2,8-10c0.1-0.1,0.1-0.1,0.2-0.2
		c0.4-0.4,0.8-0.7,1.3-1c-0.1,0.1-0.2,0.2-0.3,0.2c-6.5,4.5-11.4,11.3-15.6,18.6c0,0,0,0,0,0c0-0.1-0.1-0.1-0.1-0.1
		c-0.1,0-0.1-0.1-0.2-0.1c-0.2,0-0.4,0.1-0.5,0.3c0,0.1-0.1,0.2-0.1,0.2c-0.1,0-0.2,0-0.3,0.1c-0.1,0.1-0.2,0.2-0.2,0.4l-0.3,2.7
		c0,0,0,0,0,0c-0.9,1.7-1.8,3.4-2.6,5.2c-2.3-1.3-4.4-2.7-6.5-4.2c0,0,0,0,0,0c1.6-2.2,3.3-4.4,4.9-6.6c1.8-2.1,4.6-5.7,6.9-8.1
		c1.4-1.2,2.5-3.2,4.1-3.8c0,0,0.1-0.1,0.1-0.1c0,0,0,0,0,0c0,0-0.1,0-0.1,0c-0.6,0.3-1.1,0.6-1.5,1c-3,2.5-5.8,5.2-8.4,8
		c-2.6,2.8-4.9,5.7-7.2,8.7c0,0,0,0,0,0c-0.5-0.4-1.1-0.9-1.6-1.4c-1.4-1.3-2.6-2.7-3.6-4.3c2.5-2.8,5.2-5.5,7.9-8.2
		c0,0,0,0,0.1-0.1c-0.5,0.7-0.9,1.5-1.2,2.4c-0.1,0.2-0.1,0.4,0.1,0.5c0,0,0.1,0.1,0.2,0.1c0.2,0.1,0.5,0,0.7-0.2l0.5-0.9
		c0,0,0.1,0,0.1,0c0.2,0,0.4-0.1,0.5-0.2l1.1-1.8c0.4-0.3,0.6-0.7,0.7-1.2c0.1-0.2,0-0.4-0.1-0.5c0,0-0.1-0.1-0.1-0.1
		c-0.1-0.1-0.3-0.1-0.4,0c0,0,0,0,0,0c0.6-0.6,1.3-1.2,1.9-1.8c3.7-3.3,7.3-6.5,11.1-9.3c0,0,0,0,0,0c0,0.2,0.1,0.3,0.2,0.4
		c0,0,0,0,0,0c0.1,0.1,0.2,0.1,0.3,0.1c0.1,0,0.3-0.1,0.4-0.1c0.6-0.6,1.1-1.3,1.5-2c1.2-0.8,2.5-1.6,3.8-2.3
		c-0.1,0.1-0.3,0.1-0.4,0.2c-1.1,0.5-2.1,1-3.2,1.6c0,0,0,0,0,0c0.1-0.1,0.1-0.3,0.2-0.4c0.1-0.2,0-0.4-0.1-0.5c0,0-0.1-0.1-0.1-0.1
		c0,0,0,0-0.1,0c0,0,0,0,0,0c0-0.1-0.1-0.2-0.2-0.3c-0.1-0.1-0.2-0.1-0.4-0.1c-0.1,0-0.2,0.1-0.3,0.2l-1.3,1.9
		c-0.1,0.2-0.1,0.4,0,0.6l0,0c-9,5.4-16.9,12.7-24,20.7c0,0,0,0,0,0c-1.1-1.9-1.7-4-1.9-6.2c0-0.1,0-0.2-0.1-0.2c0,0,0,0,0,0
		c0-0.1-0.1-0.1-0.1-0.1c0,0,0,0-0.1,0c0,0,0,0-0.1,0c-0.1,0-0.1,0-0.2,0c-0.2,0-0.3,0.1-0.4,0.3l-1.1,2.1c0,0,0,0,0,0
		c-0.1-1-0.1-2,0-2.9c3.8-1.7,7.5-3.4,11.3-5.1c0,0-0.1,0-0.1,0c-3.7,1.2-7.4,2.6-11.1,4.1c0,0,0,0,0,0c0.1-1.1,0.3-2.1,0.5-3.2
		c5.9-3.8,12.1-7.3,18.5-10.2c2-0.8,4.5-1.9,7-2.6c0.1,0,0.1,0,0.2,0c0.3-0.1,0.7-0.2,1-0.2c0.1,0,0.2,0,0.3,0
		c0.3-0.1,0.7-0.1,1-0.1c0,0-0.1,0-0.1,0c-4.5,0.1-8.8,2-13,3.5c-4.9,2.1-9.6,4.6-14.2,7.4c0.8-2.2,1.9-4.4,3.2-6.3
		c0.8-1.1,1.7-2.2,2.8-3.2c0.1-0.1,0.2-0.1,0.3-0.2c0.7-0.4,1.5-0.9,2.2-1.3c0.1-0.1,0.2-0.1,0.3-0.2c0.1,0,0.1-0.1,0.2-0.2
		c0,0,0,0,0-0.1c0-0.1,0-0.2,0-0.2c0-0.1,0-0.1-0.1-0.2c-0.1-0.2-0.3-0.3-0.5-0.3l0,0c0,0,0,0,0,0c4.6-1.2,8.8-3.7,11.9-7.3
		c0,0,0,0,0,0c0,0,0,0,0,0c0.1-0.1,0.1-0.1,0.1-0.2c0,0,0-0.1,0-0.1c0-0.1,0-0.2-0.1-0.2c0-0.1-0.1-0.1-0.1-0.1
		c-0.1-0.1-0.2-0.1-0.3-0.1c0,0,0,0,0,0c-0.1,0-0.2,0-0.3,0.1c-5.6,3.6-12.6,4.7-19.1,3c-0.2,0-0.4,0-0.5,0.1c0,0,0,0-0.1,0.1
		c0,0,0,0,0,0.1c0,0,0,0.1-0.1,0.1c0,0.1,0,0.3,0.1,0.4l0.9,1.4l0,0c-5.4-0.3-11.8-0.4-17.1,2.4c0,0,0,0,0,0c-0.1,0-0.1,0.1-0.1,0.1
		c0,0,0,0,0,0c0,0.1-0.1,0.1-0.1,0.2c0,0,0,0,0,0c0,0.1,0,0.1,0,0.2c0,0,0,0,0,0c0,0,0,0,0,0.1c0,0,0,0,0.1,0.1c0,0,0,0,0.1,0.1
		c0,0,0.1,0.1,0.1,0.1c0,0,0,0,0.1,0c0,0,0.1,0,0.1,0l2,0.1l0,0c-1.4,1.2-2.8,2.5-4.1,3.8c0,0,0,0,0,0c0,0-0.1,0.1-0.1,0.1
		c-3.7,6.8-5.3,14.6-4.4,22.4c0,0,0,0,0,0l-0.6,0.3c-2.2,1-4.3,2.1-6.5,3.1c-0.7,0.4-1.5,0.7-2.2,1.1c-2.1,1-4.2,2.1-6.3,3.1
		c-0.7-4.3-0.6-8.7,0.3-13c0,0,0-0.1,0-0.1c0,0,0-0.1,0-0.1c0,0,0-0.1,0-0.1c0,0,0-0.1-0.1-0.1c-0.1-0.1-0.2-0.1-0.3-0.2
		c-0.1,0-0.2,0-0.3,0c0,0,0,0,0,0c-0.1,0-0.2,0.1-0.2,0.2l-3.8,4.9c-0.9-1.7-1.4-3.6-1.6-5.5c0-0.2-0.1-0.3-0.2-0.4
		c-0.1-0.1-0.3-0.1-0.5,0c-0.4,0.2-0.8,0.5-1.2,0.8c-0.1,0.1-0.2,0.2-0.3,0.3c-0.1,0.1-0.1,0.1-0.2,0.2c-0.1,0.2-0.2,0.4-0.3,0.6
		c0,0,0,0,0,0c-2.5-2.9-3.4-7.5-2.2-12c1.1-4.4,3.7-8.3,6.5-12.2c0,0,0-0.1,0.1-0.1c0,0,0,0,0-0.1c0-0.1,0-0.1,0-0.2c0,0,0,0,0,0
		c0-0.1-0.1-0.2-0.2-0.3c-0.1-0.1-0.3-0.1-0.4-0.1c-2.9,0.8-5.4,2.5-7.1,4.9c-0.2,0.3-0.5,0.7-0.7,1.1c0,0,0,0,0,0
		c0.3-1.5,0.7-3.1,1.1-4.8c0,0,0,0,0-0.1c0-0.1,0-0.1,0-0.2c0,0,0-0.1,0-0.1c0-0.1-0.1-0.1-0.1-0.2c0,0-0.1-0.1-0.2-0.1
		c-0.1,0-0.2,0-0.3,0c0,0,0,0,0,0c-0.1,0-0.2,0.1-0.2,0.2c0,0,0,0,0,0c-3.6,6.2-5.2,13.3-4.5,20.4c-0.9,2.3-1.1,4.8-0.6,7.3
		c0,0,0,0,0,0c-0.8-0.9-1.5-1.9-2.1-3c-0.7-1.8-1.5-3.5-2.3-5.2c-0.8-2.5-1.2-5.1-1.2-7.7c0-0.3-0.2-0.5-0.5-0.5c0,0,0,0,0,0
		c0,0,0,0,0,0c0,0-0.1,0-0.1,0l-1.6,0.5c1.1-2.5,1.3-5.2,0.7-7.8c-0.2-1-0.4-2-0.6-3c-0.5-1.9-0.8-3.8-0.9-5.7
		C340.8,246.4,341.6,243.8,343.1,241.6z M417,274c0.4-0.4,0.7-0.7,1.1-1.1c0,0,0,0,0,0l-0.5,0.8C417.4,273.8,417.2,273.9,417,274
		C417,274,417,274,417,274z M251.1,368.3h-82.4c0.5-0.3,0.9-0.5,1.4-0.8c1.6-0.9,3.2-1.8,4.7-2.7c0,0,0,0,0,0c0,0,0,0,0,0
		c0.1,0,0.1-0.1,0.2-0.2c0,0,0-0.1,0-0.1c0,0,0-0.1,0-0.1c0,0,0-0.1,0-0.1c0,0,0,0,0,0c0-0.1,0-0.1-0.1-0.2c0,0,0,0,0,0c0,0,0,0,0,0
		c-0.1-0.1-0.2-0.2-0.4-0.2l-6.2-0.2c3.4-6.8,7.6-13.2,12.6-19c0,0,0,0,0,0c13.4-9.6,28.1-17.2,43.7-22.6c0.1,0,0.1-0.1,0.2-0.1
		c0,0,0,0,0-0.1c0,0,0-0.1,0.1-0.1c0,0,0-0.1,0-0.1c0,0,0,0,0-0.1c0-0.1,0-0.1,0-0.2c0,0,0,0,0,0c0,0,0,0,0,0
		c-0.1-0.2-0.2-0.3-0.3-0.3l-10.3-2.5l0,0l20-9.9c0,0,0,0,0,0c0,0,0.1-0.1,0.1-0.1c0,0,0,0,0.1-0.1c0,0,0-0.1,0.1-0.1c0,0,0,0,0-0.1
		c0,0,0-0.1,0-0.1c0,0,0,0,0,0c0-0.1,0-0.1,0-0.2c0,0,0,0,0,0c0,0,0,0,0,0c0,0,0,0,0-0.1c-1.4-1.9-3.6-3.1-5.9-3.4c0,0,0,0,0,0
		c16.4-7.4,34.4-10.6,52.4-9.3c0.1,0,0.2,0,0.2-0.1c0,0,0,0,0,0c0.1,0,0.1-0.1,0.1-0.1c0,0,0,0,0,0c0,0,0,0,0,0c0,0,0-0.1,0-0.2
		c0,0,0,0,0,0c0,0,0,0,0,0c0-0.1,0-0.2-0.1-0.3c0,0,0,0,0,0c0-0.1-0.1-0.1-0.2-0.2c-3.4-2.1-5.8-5.5-6.6-9.5l0,0l25-1
		c3-0.1,5.9-0.3,8.8-0.8c7,1,14.2,0.6,21-1.3l-2.4,3.9c-0.1,0.2-0.1,0.5,0.2,0.7c0,0,0.1,0,0.1,0c0,0,0,0,0,0c0.1,0,0.1,0,0.2,0
		c0,0,0,0,0.1,0c3.9-0.6,7.8-1.5,11.6-2.7c2.3-0.7,4.5-1.6,6.6-2.6c0,0,0,0,0,0c0.3,0.4,0.6,0.8,1,1.2c0.3,0.3,0.6,0.6,0.9,1
		c1.4,1.5,2.8,3.1,3.1,5c0,0.2,0.2,0.4,0.4,0.4c0,0,0.1,0,0.1,0c0.1,0,0.2,0,0.2-0.1c0.1,0,0.1-0.1,0.2-0.2c1.5-2.3,2.1-5,1.7-7.7
		c0-0.4-0.1-0.7-0.1-1.1c0-0.4,0.1-0.8,0.2-1.2c0,0,0,0,0,0c1.1,2.8,1.3,5.9,0.5,8.8c-0.1,0.3,0.1,0.5,0.4,0.6c0.1,0,0.2,0,0.2,0
		c0.1,0,0.1,0,0.2-0.1c1-0.7,1.8-1.5,2.5-2.5c0,0,0,0,0,0c0.4,2.1,1.2,4.1,2.4,5.8c0,0.1,0.1,0.1,0.2,0.1c0,0,0,0,0,0
		c0,0,0.1,0,0.1,0.1c0,0,0,0,0,0c0.1,0,0.1,0,0.2,0c0.1,0,0.1,0,0.2-0.1c0.1-0.1,0.2-0.2,0.2-0.3l0.3-2c0,0,0,0,0,0
		c0.5,1.1,1.1,2.2,1.9,3.3c-6.8,3.5-13.4,7.2-20.1,11c0,0,0,0,0,0c-1.6,0-3.3,0-4.9,0c0,0,0-0.1,0-0.1c0-0.3-0.2-0.5-0.4-0.5
		c-2.4-0.3-4.7-1-6.8-2.1c0,0,0,0,0,0c1.1-0.2,2.1-0.4,3.2-0.7c3.1-1,6-2.6,8.4-4.9c0,0,0.1-0.1,0.1-0.1c0,0,0,0,0,0
		c0.1-0.2,0-0.4-0.1-0.5c-0.1-0.2-0.4-0.2-0.6-0.1c0,0,0,0,0,0c-0.6,0.3-1.2,0.5-1.9,0.7c-1.9,0.7-3.8,1.1-5.8,1.3
		c0.9-0.6,1.7-1.2,2.4-1.9c0,0,0.1-0.1,0.1-0.1c0,0,0,0,0-0.1c0.1-0.2,0-0.4-0.1-0.5c-0.1-0.2-0.4-0.2-0.6-0.1c0,0,0,0,0,0
		c-1.2,0.6-2.5,1.1-3.8,1.6c-5.6,1.9-11.7,2.2-17.5,0.8c-0.1,0-0.1,0-0.2,0c0,0,0,0-0.1,0c0,0-0.1,0-0.1,0c-0.1,0.1-0.2,0.2-0.3,0.3
		c-0.1,0.3,0.1,0.5,0.3,0.6l8,2.6l0,0l-11.8,0.8h0c-0.3,0-0.5,0.3-0.5,0.5c0,0.2,0.1,0.3,0.3,0.4c7.6,4.1,16.1,6.3,24.8,6.2
		c0.2,0,0.5,0,0.7,0c-1.4,0.8-2.7,1.6-4.1,2.5c-9.9,6.2-19.7,12.8-29.2,19.5c0,0,0,0,0,0c-4.7-0.1-9.3-1.1-13.7-3l0,0l9.7-3
		c0,0,0,0,0,0c0.2-0.1,0.4-0.3,0.3-0.6c0-0.3-0.3-0.4-0.5-0.4c-6.5,0.3-12.9-0.5-19-2.6c4.3-2.6,8.9-6.4,14.1-15.6
		c0.1-0.2,0-0.5-0.2-0.7c-0.1,0-0.2-0.1-0.3-0.1c0,0,0,0,0,0c-0.1,0-0.2,0-0.2,0.1c0,0,0,0,0,0c-3.7,3.2-7.6,5.4-11.8,6.7
		c-5.4,1.7-11.3,1.9-18.1,0.6c0,0,0,0-0.1,0c-0.1,0-0.1,0-0.2,0c0,0,0,0,0,0c-0.2,0.1-0.3,0.2-0.3,0.4c0,0.2,0,0.4,0.2,0.5
		c3.3,2.4,7.2,4.1,11.2,5c0,0,0,0,0,0l-12.3,3.8l0,0c-0.3,0.1-0.4,0.4-0.3,0.6c0,0.1,0.2,0.3,0.3,0.3l5.1,1.9l-7.1,2.3
		c-0.3,0.1-0.4,0.4-0.3,0.6c0.1,0.2,0.2,0.3,0.3,0.3c10.9,3.2,22.1,5.3,33.4,6.2c-2.6,1.6-5.3,3-8.2,4c-1,0.3-1.9,0.6-2.9,0.9
		c0,0,0,0,0,0c-0.3,0.1-0.4,0.3-0.4,0.6c0,0.2,0.2,0.3,0.3,0.3c1.9,0.6,3.8,1.2,5.7,1.6C275,349.5,263,358.8,251.1,368.3
		C251.2,368.3,251.1,368.3,251.1,368.3z M318,368.3h-64.8h0c11.8-9.2,23.7-18.4,35.8-27.4c4.6,1,9.4,1.5,14.1,1.5
		c5.8,0,11.6-0.7,17.3-2.2c0,0,0,0,0.1,0c0.1,0,0.1-0.1,0.1-0.1c0,0,0.1-0.1,0.1-0.1c0-0.1,0.1-0.1,0.1-0.2c0-0.1,0-0.1,0-0.2
		c0,0,0,0,0,0c0,0,0,0,0,0c0-0.1-0.1-0.2-0.1-0.2c0,0,0,0-0.1,0c-0.1,0-0.1-0.1-0.2-0.1c0,0,0,0,0,0l-19.1-1.3l0,0
		c3.9-2,7.4-4.8,10.2-8.2c0.1-0.2,0.2-0.4,0-0.6c0,0,0,0,0,0c-0.1-0.2-0.3-0.3-0.5-0.2c-2,0.4-4,0.6-6.1,0.7c0,0,0,0,0,0
		c9.2-6.5,18.6-12.7,28.2-18.7c1.9-1.1,3.8-2.3,5.6-3.4c4.9-0.3,9.7-1.4,14.3-3.1c0.2-0.1,0.4-0.3,0.3-0.6c0-0.1,0-0.1-0.1-0.2
		c-0.1-0.1-0.3-0.2-0.4-0.3c-2.4,0-4.9,0.1-7.3,0.1c0,0,0,0,0,0c6-3.4,12.1-6.7,18.3-9.9c0.7,0.9,1.5,1.7,2.4,2.4c0,0,0,0,0,0
		c-1.1,0.3-2.2,0.8-3.3,1.2c-0.1,0-0.2,0.1-0.2,0.2c0,0,0,0,0,0c0,0.1-0.1,0.1-0.1,0.2c0,0,0,0,0,0c0,0.1,0,0.1,0,0.2c0,0,0,0,0,0
		c0,0,0,0,0,0c0,0,0,0,0,0c0,0.1,0.1,0.1,0.1,0.2c0,0,0,0,0,0c0.1,0,0.1,0.1,0.2,0.1c1.9,0.2,3.7,0.8,5.3,1.8l0,0l-0.1,0.1
		c-1,0-2,0.2-2.9,0.5c-0.2,0.1-0.4,0.4-0.3,0.6c0,0.1,0,0.1,0.1,0.2c0.1,0.1,0.3,0.2,0.5,0.2c0.4-0.1,0.9,0,1.3,0c0,0,0,0,0,0
		c-2.2,2.5-4.3,5-6.4,7.5c-4,4.7-7.8,9.5-11.6,14.4l-1.4,0.7l0,0c1.4-1.8,2.7-3.6,3.8-5.7c1.5-2.8,2.1-5.9,1.6-9
		c0-0.1,0-0.1-0.1-0.2c0,0,0,0,0,0c0,0-0.1-0.1-0.1-0.1c0,0-0.1,0-0.1,0c0,0-0.1,0-0.1,0c0,0-0.1,0-0.1,0c0,0,0,0-0.1,0c0,0,0,0,0,0
		c0,0-0.1,0-0.1,0.1c0,0,0,0-0.1,0c-0.1,0-0.1,0.1-0.1,0.2c-3,5-6.8,9.6-11.1,13.5c-0.2,0.1-0.2,0.4-0.1,0.6
		c0.1,0.2,0.3,0.3,0.5,0.3c0,0,0,0,0,0c0.6-0.1,1.2-0.2,1.8-0.4c0,0,0,0,0,0c-2.4,2.1-5.3,3.6-8.3,4.4c0,0,0,0,0,0
		c0,0-0.1,0-0.1,0.1c0,0,0,0-0.1,0.1c0,0-0.1,0.1-0.1,0.1c0,0,0,0.1,0,0.1c0,0,0,0,0,0.1c0,0,0,0.1,0,0.1c0,0,0,0,0,0c0,0,0,0,0,0
		c0,0.1,0,0.1,0.1,0.2c0,0,0,0,0,0c0,0.1,0.1,0.1,0.2,0.1c2.5,1.2,5.2,1.7,7.9,1.7c0.4,0,0.8,0,1.2-0.1c0,0,0,0,0,0
		c-0.6,0.9-1.3,1.7-1.9,2.6c-4.6,6.3-9.1,12.7-13.4,19.1c-0.6,0.9-1.3,1.9-1.9,2.8C323.5,359.1,320.7,363.7,318,368.3L318,368.3z
		 M341.5,335.3c0.3-0.4,0.6-0.8,0.9-1.2l0,0l0,0c0,0,0,0,0,0c0.1,0,0.1,0,0.2,0.1c0.1,0,0.1,0,0.2,0c1-0.3,1.9-0.4,2.9-0.4
		c-1.3,1.3-2.8,2.3-4.4,3.2c-0.5,0.3-1.1,0.6-1.6,0.8C340.4,336.9,340.9,336.1,341.5,335.3z M346,329.9c-0.6,0.8-1.4,1.6-2.2,2.3
		c0,0,0,0,0,0c0.5-0.7,1.1-1.4,1.6-2.2C345.6,330,345.8,330,346,329.9C346,329.9,346,329.9,346,329.9z M319,368.3
		C319,368.3,319,368.3,319,368.3c3.4-5.3,6.9-10.6,10.4-15.9l0,0l0,0c0.5-0.8,1.1-1.6,1.6-2.4c2-2.9,4-5.8,6.1-8.7
		c0.6-0.8,1.2-1.6,1.7-2.5c0.1,0.1,0.2,0.1,0.3,0.1c0,0,0.1,0,0.1,0l15.9-2.8c0.1,0,0.1,0,0.2-0.1c0,0,0,0,0,0c0,0,0.1-0.1,0.1-0.1
		c0-0.1,0.1-0.1,0.1-0.2c0-0.1,0-0.1,0-0.2c0,0,0,0,0,0c0,0,0,0,0,0c0-0.1-0.1-0.2-0.2-0.3c-0.9-0.8-2-1.2-3.2-1.2l-3.6-0.1
		c-0.4,0-0.7,0-1-0.2c-0.1-0.1-0.2-0.2-0.1-0.4c0,0,0,0,0,0c2.9-2.1,5.3-4.8,7-8c0,0,0,0,0,0c0-0.1,0.1-0.1,0.1-0.2c0,0,0,0,0,0
		c0-0.1,0-0.1,0-0.2c0,0,0,0,0-0.1c0,0,0-0.1-0.1-0.1c0,0,0,0-0.1-0.1c0,0,0,0-0.1,0c0,0,0,0,0,0c0,0-0.1,0-0.1,0c0,0-0.1,0-0.1,0
		c-0.1,0-0.1,0-0.2,0c0,0,0,0-0.1,0l-2.3,1c0.6-1.1,1-2.2,1.2-3.4c0-0.1,0-0.2,0-0.3c0,0,0,0,0,0c0,0,0-0.1-0.1-0.1c0,0,0,0,0,0
		c0,0-0.1,0-0.1-0.1c0,0,0,0-0.1,0c0,0,0,0,0,0s0,0,0,0c-0.1,0-0.2,0-0.3,0c0,0,0,0,0,0l-0.3,0.1l0,0c3.6-4.6,7.3-9.1,11.1-13.6
		c1.8-2.2,3.7-4.3,5.6-6.4c1.1,0.5,2.2,1.1,3.2,1.8l0.6,0.4c1.1,0.9,2.3,1.6,3.6,2.3l0,0l-3.3,0.4c-0.1,0-0.2,0.1-0.2,0.1
		c0,0,0,0,0,0c-0.1,0-0.1,0.1-0.1,0.2c0,0,0,0,0,0c0,0,0,0.1,0,0.1c0,0,0,0.1,0,0.1c0,0,0,0,0,0c0,0,0,0,0,0c0,0.1,0,0.1,0.1,0.2
		c0,0,0,0,0,0c0.1,0.1,0.1,0.1,0.2,0.1c0.6,0.2,1.2,0.4,1.8,0.6c0,0,0,0,0,0c-3.3,0.8-6.2,2.9-7.9,5.9c0,0,0,0,0,0c0,0,0,0,0,0
		c0,0.1,0,0.1,0,0.2c0,0,0,0.1,0,0.1c0,0,0,0.1,0,0.1c0,0,0,0.1,0.1,0.1c0,0,0,0,0,0c0,0,0.1,0.1,0.1,0.1c0,0,0,0,0,0c0,0,0,0,0,0
		c0.1,0,0.1,0.1,0.2,0.1l11,0.6l0,0l-10.9,7c-0.1,0.1-0.1,0.1-0.2,0.2c0,0,0,0,0,0.1c0,0.1,0,0.2,0,0.3c0,0,0,0.1,0.1,0.1
		c0,0,0,0,0,0c0,0,0,0,0,0c0.1,0.1,0.1,0.1,0.2,0.2c0,0,0,0,0,0c0.1,0,0.2,0,0.3,0c3-0.8,6.2-0.9,9.3-0.3l0,0l-0.1,0.1
		c-4.5,3.7-8.7,7.9-12.4,12.4l-0.9,0.2c-2.7,0.6-5.2,1.6-7.6,2.8c-4.7,1.6-8.7,4.6-11.7,8.5c-3.6,4.7-5.9,13.3-5.8,21H319z
		 M408.9,377C408.9,377,408.9,377,408.9,377c1.2-5,0.7-10.3-1.3-15c-0.1-0.2-0.2-0.3-0.4-0.3c-0.1,0-0.1,0-0.2,0
		c-0.2,0.1-0.4,0.3-0.4,0.5c0.3,4.1,0.2,8.2-0.2,12.3c-0.2,1.1-0.3,2.2-0.5,3.2c-0.3,0.7-0.6,1.3-0.9,2c-2,1.8-4.4,3.7-5,3.7h0
		c-0.4,0-1.1-0.6-1.7-1.1c-0.9-0.8-1.9-1.7-2.9-1.3c-0.9,0.4-1.6,1.1-2.1,2c-0.4,0.6-0.9,1.2-1.5,1.6c-0.9,0.5-2-0.3-2.6-1.1
		c-0.8-1.3-1.4-2.7-1.7-4.2c-1.7-6.4-2.3-13-1.8-19.6c0.1-0.5-0.2-1.1-0.8-1.2c-0.5-0.1-0.9,0.2-1,0.7c-0.3,0.8-0.5,1.6-0.7,2.4
		c-1.5,5.6-1.8,11.4-0.8,17.2c0.1,0.4,0.1,0.7,0.2,1.1c0.4,2.2,0.9,4.5,0.3,6.5c0,0,0,0,0,0c-0.4,1.5-1.4,2.7-2.8,3.4
		c-3.6,2.1-8,0.7-10.8-3.4c-1.1-1.8-1.8-3.8-2-5.8c-0.2-1.4-1.1-1.9-1.8-1.8c-0.7,0-1.4,0.5-1.7,1.5c0,0.1-0.1,0.3-0.1,0.5
		c-0.2,1.5-0.3,2.9-0.3,4.4c0.1,0.9,0,1.8-0.3,2.6c-0.1,0.3-0.2,0.6-0.3,0.8c-0.4,0.6-1.2,0.9-1.9,0.7c-3.5-0.7-6.1-5.9-6.7-10.7
		c-0.5-3.9-0.4-7.8,0.2-11.6c0.2-0.7-0.2-1.5-0.9-1.7c-0.6-0.1-1.2,0.3-1.3,0.8c0,0,0,0,0,0c-1,3.2-1.4,6.5-1.3,9.8
		c0,2.2-0.1,4.5-0.5,6.7c0,0.3-0.1,0.6-0.2,0.9c-0.1,0.3-0.2,0.6-0.4,0.9c-0.3,0.6-1.1,0.9-1.7,0.7c-0.8-0.4-1.5-1-1.9-1.7
		c-4.5-5.9-6.4-15.9-4.5-24.4c0,0,0,0,0,0c1.7-4.3,4.2-8.3,7.4-11.7c1.2-1.3,3.9-2.8,6.4-4.2c0.7-0.4,1.4-0.8,2-1.1
		c2.6-1,5.3-1.9,8.1-2.4l0.4-0.1l0,0c-1.2,2-2.4,3.9-3.6,5.9c-1.6,2.6-3.1,5.3-4.6,7.9c0,0,0,0,0,0c1.7-2.6,3.5-5.1,5.2-7.7
		c1.4-2.1,2.9-4.2,4.3-6.4c4.5-0.8,9.7-1.4,14.7-0.5c0,0,0,0,0,0c-5.8,10.2-10.8,20.8-15.1,31.8c-0.7,2-1.5,4.2-2.1,6.2c0,0,0,0,0,0
		c0.3-0.8,0.7-1.6,1-2.4c0.2-0.5,0.4-0.9,0.6-1.4c0.4-1,0.9-2,1.3-3c4.8-10.5,10.1-20.8,15.7-30.8c0.9,0.2,1.8,0.5,2.7,0.8
		c1.8,0.7,4.3,1.9,5.4,4.3l0.1,0.3c0.2,0.6,0.5,1,0.9,1.4c0.9,0.7,2.1,0.2,2.9-0.2l0.2-0.1c1.1-0.5,2.4-0.7,3.6-0.5c0,0,0,0,0,0
		c-0.5,1.3-1,2.6-1.4,4c-0.7,2.1-1.7,4.8-2.2,6.5c0,0,0,0,0,0c1.1-2.4,2.2-4.8,3.2-7.3c0.5-1,0.9-2,1.3-3c2.5,0.7,4.9,2.6,6.9,4.4
		c2.5,2.3,4.5,5.1,5.7,8.2c0.7,1.9,1.2,3.9,1.4,6C414.4,369.1,412.3,374.3,408.9,377z M544.9,368.2L544.9,368.2h-69.1
		c0-0.1,0-0.1,0-0.2c0,0,0,0,0-0.1c0,0,0-0.1,0-0.1c0,0,0-0.1-0.1-0.1c0,0,0,0,0,0c0,0-0.1-0.1-0.1-0.1c0,0-0.1,0-0.1,0
		c0,0-0.1,0-0.1,0c0,0-0.1,0-0.1,0c0,0-0.1,0-0.1,0c0,0-0.1,0-0.1,0c-0.3,0.2-0.6,0.4-1,0.7H468c0-0.1,0-0.2,0-0.3
		c0-0.3-0.2-0.5-0.5-0.5c-0.1,0-0.2,0-0.3,0.1c-0.3,0.2-0.5,0.5-0.8,0.7h-50.1c0.1-0.3,0.2-0.7,0.2-1c1.3-6.7,0.2-12.6-3.3-17.2
		c0,0,0,0,0,0c5.6,0.2,11.1,0.8,17.2,1.5c0,0,0,0,0.1,0c0,0,0.1,0,0.1,0c0,0,0.1,0,0.1,0c0,0,0.1,0,0.1-0.1c0,0,0.1-0.1,0.1-0.1
		c0,0,0,0,0,0c0-0.1,0.1-0.1,0.1-0.2c0,0,0-0.1,0-0.1c0,0,0,0,0-0.1c0-0.1-0.1-0.2-0.2-0.3c-8-3.9-15.3-5.9-22-6.2c0,0,0,0,0,0
		c7.6-1.8,15.5-2.2,23.3-1.3c0.4,0,0.8,0.1,1.2,0.1l0.5,0.1c1.9,0.6,3.9,1.2,5.9,1.6c6.5,1.3,13.3,1.5,19.8,1.5l0,0l-5.4,2.8
		c-0.1,0-0.1,0.1-0.2,0.1c0,0,0,0,0,0.1c0,0,0,0.1,0,0.1c0,0.1,0,0.2,0,0.4c0.1,0.1,0.2,0.2,0.3,0.3c8.4,1.8,17.1,1.6,25.4-0.6l0,0
		l-6.1,4.2c-0.1,0-0.1,0.1-0.1,0.1c-0.1,0.1-0.1,0.3-0.1,0.5c0.1,0.2,0.3,0.4,0.5,0.3c10.2-1,20.4,0.3,30,3.7c0.1,0,0.1,0,0.2,0
		c0.1,0,0.2,0,0.3-0.1c0,0,0,0,0,0c0,0,0-0.1,0.1-0.1c0,0,0-0.1,0.1-0.1c0,0,0,0,0,0c0,0,0-0.1,0-0.1c0,0,0,0,0-0.1l-0.4-3.5l0,0
		c9.7-0.2,19.5,0.1,29.2,1c0.1,0,0.2,0,0.3-0.1c2.4-1.5,4.9-3,7.6-4.4c6-4.6,12.7-8.2,19.9-10.5c3.7-1.2,7.4-2,11.2-2.5
		c0.8,1,1.6,2.1,2.4,3.2c0,0,0,0,0,0c-1.2,0.6-2.4,1.3-3.5,2c-1.6,1-3.2,1.9-4.9,2.7c-1,0.4-2,0.6-3,0.6c-2.6,0.3-5.9,0.6-11.7,5.8
		c-1.5,1.3-2.7,2.8-3.7,4.4C545.5,359.8,544.5,364,544.9,368.2z M616.9,386.4C616.9,386.4,616.9,386.4,616.9,386.4
		c-0.3-0.9-0.8-1.7-1.6-2.3l0,0c0,0-0.1,0-0.1,0c-0.2-0.1-0.5-0.1-0.6,0.1c0,0.1-0.1,0.1-0.1,0.2c-0.4,1.7-1,3.3-1.8,4.8
		c0,0,0,0,0,0.1c0,0,0,0,0,0c-0.2-0.1-0.3-0.3-0.4-0.5c-0.3-0.6-0.5-1.2-0.6-1.8c-0.4-2.2-0.6-4.5-0.5-6.7c0.1-3.3-0.3-6.6-1.3-9.8
		c-0.1-0.4-0.4-0.8-0.9-0.8c-0.1,0-0.3,0-0.4,0c-0.7,0.3-1.1,1-0.9,1.7c0.6,3.8,0.7,7.8,0.2,11.6c-0.7,4.8-3.2,10-6.8,10.7
		c-0.4,0.1-0.7,0.1-1.1,0c-0.3-0.1-0.6-0.3-0.8-0.6c-0.5-1.1-0.7-2.3-0.6-3.6c0-1.4-0.1-2.9-0.3-4.3c-0.1-1.2-0.8-1.8-1.5-2
		c-0.1,0-0.2,0-0.3,0c-0.7,0-1.5,0.5-1.8,1.8c-0.3,2.1-0.9,4.1-2,5.8c-2.6,3.8-6.7,5.3-10.1,3.7c-0.2-0.1-0.5-0.2-0.7-0.3
		c-1.3-0.7-2.3-1.9-2.8-3.4c-0.6-2-0.2-4.3,0.3-6.5c0.1-0.4,0.1-0.7,0.2-1.1c1.1-6.5,0.6-13.3-1.5-19.5c-0.1-0.3-0.3-0.6-0.7-0.6
		c-0.1,0-0.2,0-0.3,0c-0.5,0.2-0.9,0.7-0.8,1.2c0.5,6.6-0.1,13.2-1.8,19.6c-0.3,1.5-0.9,2.9-1.7,4.2c-0.5,0.7-1.4,1.4-2.2,1.2
		c-0.1,0-0.2-0.1-0.2-0.1c0,0-0.1,0-0.1,0c0,0,0,0,0,0c-0.6-0.4-1.1-1-1.5-1.6c-0.5-0.9-1.2-1.5-2.1-2c0,0,0,0,0,0
		c-1-0.4-1.9,0.5-2.9,1.3c-0.6,0.5-1.3,1.1-1.7,1.1h0c-0.1,0-0.2,0-0.3-0.1c-0.9-0.4-3-2.1-4.7-3.6c-0.3-0.6-0.6-1.3-0.9-2
		c-0.2-1-0.4-2.1-0.5-3.2c-0.4-4.1-0.5-8.2-0.2-12.3c0-0.1,0-0.2-0.1-0.3c0,0,0,0,0,0c0-0.1-0.1-0.1-0.2-0.2c-0.1,0-0.1,0-0.2,0
		c0,0,0,0,0,0c0,0,0,0,0,0c-0.1,0-0.2,0-0.3,0.1c0,0,0,0,0,0c-0.1,0.1-0.2,0.1-0.2,0.2c-2.1,4.7-2.5,10-1.3,15c0,0,0,0,0,0
		c-3.4-2.7-5.5-7.9-5.1-13.2c0.5-5.5,3-10.5,7.1-14.2c3.2-2.9,7.5-5.9,11.4-4.1c0,0,0,0,0,0l0.2,0.1c0.2,0.1,0.4,0.2,0.7,0.3
		c0.7,0.3,1.5,0.4,2.3-0.1c0.4-0.4,0.7-0.9,0.9-1.4l0.1-0.3c1.1-2.5,3.6-3.6,5.4-4.3c0.3-0.1,0.6-0.2,0.9-0.3c0,0,0,0,0,0
		c1.4,1.8,2.8,3.7,4.2,5.6l0.9,1.2l0.1,0.1l-0.1-0.1c-1.5-2.3-3-4.6-4.5-6.9c6.4-1.9,13.5-0.9,19.1,0.2c2.8,0.6,5.5,1.4,8.1,2.4
		c0,0,0,0,0,0c0.6,0.3,1.2,0.7,2,1.1c2.4,1.4,5.2,2.9,6.4,4.2c3.2,3.3,5.8,7.3,7.5,11.6C622.2,371.2,620.8,380.4,616.9,386.4z"/>
</g>
</svg>
