<svg id="e9812d84-6958-46cf-bfc4-94e4af12fb0f" data-name="Layer 2" xmlns="http://www.w3.org/2000/svg" viewBox="0 0 804 514.197" style="fill: #215342;" height="283" width="290" transform="translate(0, 0.5)"><path d="M428.832,191.264a4.664,4.664,0,0,0-.584,2.066,4.9,4.9,0,0,0,1.189,2.685,46.743,46.743,0,0,0,6.415,7.583,16.194,16.194,0,0,0,9.029,4.278l.044,0a.5.5,0,0,0,.22-.949c-2.848-1.4-6.393-3.134-8.225-6.162a11.443,11.443,0,0,1-1.408-3.983,16.129,16.129,0,0,1,3.142-12.416,57.21,57.21,0,0,1,8.8-2.611c-.148.523-.266,1.05-.369,1.562a26.432,26.432,0,0,0-.52,7.851,15.313,15.313,0,0,0,2.682,7.452,3.494,3.494,0,0,0,2.7,1.752h0a3.755,3.755,0,0,0,2.61-1.483,22.075,22.075,0,0,0,4.375-7.139.5.5,0,0,0-.162-.569,5.967,5.967,0,0,1-2.44-3.956,3.451,3.451,0,0,1,2.1-3.6.5.5,0,0,0,.337-.38,13.915,13.915,0,0,0,.233-1.659,20.561,20.561,0,0,1,6.7,2.513,9.094,9.094,0,0,1,2.884,2.527,8.7,8.7,0,0,1,1.352,4.169,15.068,15.068,0,0,1-5.106,12.662c-4.468,3.841-10.91,4.686-16.023,4.992a.5.5,0,0,0-.091.985,32.644,32.644,0,0,0,7.852,1.073,22.06,22.06,0,0,0,2.329-.121,16.3,16.3,0,0,0,9.417-4.036,18.91,18.91,0,0,0,4.554-7.341,23.523,23.523,0,0,0,1.454-12.282,39.763,39.763,0,0,0,4.077,2.293.491.491,0,0,0-.146.222.5.5,0,0,0,.25.6,21.048,21.048,0,0,0,9.467,2.242,20.187,20.187,0,0,0,5.037-.63.5.5,0,0,0-.034-.976l-3.835-.709a.527.527,0,0,0,.012-.149.5.5,0,0,0-.4-.454,10.184,10.184,0,0,1-2.808-1.03,4.014,4.014,0,0,0,.934-.465.5.5,0,0,0-.163-.9c-3.174-.766-6-2.668-8.725-4.508-.621-.419-1.241-.837-1.865-1.242a26.428,26.428,0,0,0-5.92-3,36.117,36.117,0,0,0-18.6-3.248,28.781,28.781,0,0,0-5.126,1.092,24.642,24.642,0,0,0-6.856,2.468C435.336,180.628,431.907,184.736,428.832,191.264Z"/><path d="M382.035,163.838a25.217,25.217,0,0,0-12.066-9.226,31.237,31.237,0,0,0-14.872-1.349c-3.317-.079-6.726,1.071-9.983,2.4l-.684.28c-3.854,1.58-7.835,3.216-11.867,2.7a.506.506,0,0,0-.538.342.5.5,0,0,0,.235.593l2.2,1.2a27.054,27.054,0,0,1-7.89-.983.5.5,0,0,0-.516.805,11.414,11.414,0,0,0,6.671,3.559,22.973,22.973,0,0,0,4.2.338c1.095,0,2.185-.048,3.259-.1a.5.5,0,0,0,.205-.945,2,2,0,0,1-.763-.694,45.138,45.138,0,0,0,5.906.167,26.359,26.359,0,0,0-.955,11.053,19.42,19.42,0,0,0,2.554,8.247,15.168,15.168,0,0,0,7.859,6.043,25.168,25.168,0,0,0,8.464,1.277q.613,0,1.252-.019a.5.5,0,0,0,.128-.979c-4.683-1.406-10.479-3.63-13.752-8.39A17.149,17.149,0,0,1,348.99,166a16.537,16.537,0,0,1,2.972-5.133,9.628,9.628,0,0,1,3.262-2.128c3.559-1.282,7.369-.788,11.13.328a34.776,34.776,0,0,0-2.593,2.811,3.969,3.969,0,0,0-.916,1.617,4.092,4.092,0,0,0,.1,1.755c.033.161.065.323.09.484a5.228,5.228,0,0,1-.81,3.7,10.981,10.981,0,0,1-.764.97,8.741,8.741,0,0,0-1.1,1.5,6.748,6.748,0,0,0-.69,3.093c-.053,2.071.5,3.648,1.611,4.56a4.05,4.05,0,0,0,2.6.868,5.482,5.482,0,0,0,2.28-.515,12.833,12.833,0,0,0,3.7-2.984l4.155-4.323a.5.5,0,0,0-.342-.846,5.976,5.976,0,0,1-1.659-.214,1.637,1.637,0,0,1-1.04-.86,1.757,1.757,0,0,1-.057-.952,3.356,3.356,0,0,1,1.447-2.216,3.237,3.237,0,0,1,2.6-.408.5.5,0,0,0,.6-.294,20.11,20.11,0,0,0,.9-2.586c.627.5,1.246,1.009,1.861,1.516.654.539,1.293,1.058,1.929,1.56a22.509,22.509,0,0,1,1,2.142,15.17,15.17,0,0,1,.759,9.819,13.553,13.553,0,0,1-4.41,6.464,18.494,18.494,0,0,1-7.131,3.534.5.5,0,0,0,.127.984c.021,0,.043,0,.064,0a27.046,27.046,0,0,1,3.787-.128,32.533,32.533,0,0,0,3.34-.071c1.756-.157,4.939-.8,6.528-3.362a10.668,10.668,0,0,0,1.212-4.672c.451-4.6,1.013-10.325-1.392-15.081A16.06,16.06,0,0,0,382.035,163.838Z"/><path d="M373.294,213.853a46.935,46.935,0,0,0-13.708-2.991l.242-.275a.5.5,0,0,0-.3-.825l.779-.949a.5.5,0,0,0,.06-.543A.483.483,0,0,0,359.9,208a15.4,15.4,0,0,0-9.037,3.578c-.59.5-1.14.908-1.634,1.277-1.221.913-2.186,1.633-2.554,2.789a.5.5,0,0,0,.772.556,10.982,10.982,0,0,1,3.813-1.787,32.463,32.463,0,0,0-3.612,4.576.5.5,0,0,0,.7.686,3.823,3.823,0,0,1,3.132-.494,16.332,16.332,0,0,0-3.191,4.615.5.5,0,0,0,.717.635l.624-.385a30.618,30.618,0,0,0-1.718,8.69.5.5,0,0,0,.39.513.506.506,0,0,0,.109.012.5.5,0,0,0,.462-.309,13.085,13.085,0,0,1,5.176-6.079.5.5,0,0,0-.153-.913,4.5,4.5,0,0,0-.895-.108c3.873-2.97,8.753-4.6,13.119-6.054a.5.5,0,0,0,.1-.9,11.862,11.862,0,0,0-5.356-1.629,37.844,37.844,0,0,1,12.272-2.44.5.5,0,0,0,.164-.968Z"/><path d="M368.446,233.09a5.37,5.37,0,0,0-.888.033.5.5,0,0,0-.391.028l-2.054,1.048a.5.5,0,0,0,.227.945h.021a7.915,7.915,0,0,0,2.139-.389,1.592,1.592,0,0,0,.548-.128,1.5,1.5,0,0,0,.837-.876.5.5,0,0,0-.439-.661Z"/><path d="M431.331,251.983a1.6,1.6,0,0,0,.788.263.923.923,0,0,0,.408-.093.9.9,0,0,0,.482-.629,1.142,1.142,0,0,0-.225-.948.894.894,0,0,0-.88-.379l-1.124-.858a.5.5,0,0,0-.752.176,1.562,1.562,0,0,0,.238,1.631A3.646,3.646,0,0,0,431.331,251.983Z"/><path d="M418.605,199.829a.5.5,0,0,0-.964.207c.02.441.05.883.086,1.324l-1.945-1.9a.5.5,0,0,0-.845.421l.1.8a5,5,0,0,1-1.594-1.785l-.119-.23a2.161,2.161,0,0,0-2.591-1.5l-5.391.462.754-1.182a.5.5,0,0,0-.5-.764,16.253,16.253,0,0,0-4.475,1.386,4.944,4.944,0,0,1,.813-1.518.5.5,0,0,0-.532-.79l-.519.15a1.339,1.339,0,0,0-.133-1.174.5.5,0,0,0-.421-.236h0a.5.5,0,0,0-.421.23,10.337,10.337,0,0,1-2.954,3.011.5.5,0,0,0,.337.913l.7-.085a9.833,9.833,0,0,1-3.9,2.2.5.5,0,0,0-.146.891,5.366,5.366,0,0,0,3.668.887l-1.389,1.522a.5.5,0,0,0,.344.837,17.575,17.575,0,0,0,7.071-1.117c.4-.152.894-.339,1.181-.176a1.5,1.5,0,0,1,.454.711,2.245,2.245,0,0,0,.869,1.182,1.717,1.717,0,0,0,2.01-.347,2.7,2.7,0,0,0,.421-.526,2.823,2.823,0,0,0,1.1,1.13,1.921,1.921,0,0,0,1.81-.048,1.537,1.537,0,0,0,.4-.334,30.593,30.593,0,0,0,7.441,4.681.505.505,0,0,0,.2.043.5.5,0,0,0,.481-.634,38.573,38.573,0,0,1-1.205-6.316A4.176,4.176,0,0,0,418.605,199.829Z"/><path d="M363.21,193.517a.5.5,0,0,0-.154-.965,23.1,23.1,0,0,1-21.083-16.893,8.445,8.445,0,0,1-.014-3.81c.052-.329.1-.651.141-.971a.5.5,0,0,0-.93-.307,13.111,13.111,0,0,0-.853,1.787l-.065-.384a.5.5,0,0,0-.468-.417.476.476,0,0,0-.507.368,13.812,13.812,0,0,0,.441,8.451c-.2-.136-.411-.264-.622-.383a.5.5,0,0,0-.74.5,10.689,10.689,0,0,0,.4,1.8,11.7,11.7,0,0,0-2.119-1.133.5.5,0,0,0-.542.11.5.5,0,0,0-.109.542,15.191,15.191,0,0,0,6.315,7.317.192.192,0,0,0-.012.025.5.5,0,0,0,.147.593l1.869,1.484a4.7,4.7,0,0,1-.766-.293.5.5,0,0,0-.473.88,23.473,23.473,0,0,0,11.906,3.191A22.931,22.931,0,0,0,363.21,193.517Z"/><path d="M478.31,202.753a.5.5,0,0,0-.617.267,10.022,10.022,0,0,1-3.368,4.046l.543-1.016a.5.5,0,0,0-.784-.6,27.328,27.328,0,0,1-25.771,6.271.5.5,0,0,0-.58.247.5.5,0,0,0,.122.618,18.915,18.915,0,0,0,6.248,3.26l-.445.077a.5.5,0,0,0-.027.979,39.4,39.4,0,0,0,18.7-.208.5.5,0,0,0,.285-.77,3.776,3.776,0,0,0-1.042-1.005,20.939,20.939,0,0,0,5.534-2.17.5.5,0,0,0-.305-.931,11.965,11.965,0,0,1-3.387-.088,15.826,15.826,0,0,0,5.219-8.389A.5.5,0,0,0,478.31,202.753Z"/><path d="M433.935,170.579a.5.5,0,0,0-.794-.6c-.93,1.008-4.767,2.512-6.854,3.253a13.029,13.029,0,0,1,.61-3.287.671.671,0,0,0,0-.608.506.506,0,0,0-.486-.206c-.739.109-5.654,7.654-6.835,11.141a.5.5,0,0,0,.748.579,10.788,10.788,0,0,0,2.593-2.4l-.949,4.338a.5.5,0,0,0,.936.33l1.565-3.133-.62,4.738a.5.5,0,0,0,.313.53.491.491,0,0,0,.183.035.5.5,0,0,0,.408-.211,37.012,37.012,0,0,1,18.379-13.611.5.5,0,0,0-.08-.968,15.652,15.652,0,0,0-10.268,1.972Z"/><path d="M340.3,80.187c-.476-.735-.966-1.5-1.4-2.262-2.459-4.386-3.51-9.936-3.212-16.969a64.166,64.166,0,0,1,2.469-15,26.585,26.585,0,0,1,13.964,1.988c3.242,1.577,7.224,3.405,8.771,6.944-1.052-3.712-4.76-5.928-7.919-7.734a21.908,21.908,0,0,0-14.586-1.968A64.042,64.042,0,0,1,343,33.838a.5.5,0,0,0-.573-.716c-3.646.988-6.457,4.135-7.713,8.634-.449,1.608-.828,3.241-1.175,4.883-.263.108-.527.214-.786.33-.691.3-1.442.663-2.065,1,.909-.374,1.838-.7,2.779-.98a81.712,81.712,0,0,0-1.3,24.771c.368,3.571,1.042,7.68,3.243,11.076A29.278,29.278,0,0,0,337.2,85.22c.55.681,1.119,1.386,1.608,2.116a7.306,7.306,0,0,1,1.455,4.926.5.5,0,0,0,.494.577.5.5,0,0,0,.288-.092c2.476-1.744,2.665-5.273,1.793-7.814A22.2,22.2,0,0,0,340.3,80.187Z"/><path d="M469.3,125.5a.5.5,0,0,0,.238.061.5.5,0,0,0,.4-.2,49.735,49.735,0,0,1,12.717-11.853.5.5,0,0,0-.388-.906,23.856,23.856,0,0,0-4.595,1.591l5.87-6.063a.5.5,0,0,0-.3-.844,7.876,7.876,0,0,0-1.543-.027,58.765,58.765,0,0,1,10.887-6.893.5.5,0,0,0,.261-.587.485.485,0,0,0-.532-.359l-2.25.235c3.273-2.846,6.8-5.511,10.512-8.316l1.964-1.487a.5.5,0,0,0-.525-.845,92.284,92.284,0,0,0-20.286,13.758.5.5,0,0,0,.333.873h0a33.433,33.433,0,0,0-9.11,8.2.5.5,0,0,0,.649.727l.912-.5a18.183,18.183,0,0,0-2.086,3.547l-3.359,9.275A.5.5,0,0,0,469.3,125.5Z"/><path d="M378.542,104.844a.473.473,0,0,0,.1-.01.5.5,0,0,0,.4-.49,40.887,40.887,0,0,0-.818-8.145,10.258,10.258,0,0,0,1.214,1.226.5.5,0,0,0,.805-.516l-2.99-10.658.654.826a.5.5,0,0,0,.888-.37c-.389-3.289-2.175-6.117-3.9-8.852-.721-1.141-1.456-2.307-2.091-3.508l1.94,1.739a.5.5,0,0,0,.811-.525A53.91,53.91,0,0,0,361.241,52.8a.5.5,0,0,0-.715.7,49.181,49.181,0,0,1,9.434,15.683l-.792-.261c-3.845-8.436-21.411-12.666-29.334-14.924-.911-.233-1.908-.484-2.775-.688q1.929.666,3.848,1.359,8.064,2.9,15.988,6.164c3.5,1.6,9.575,3.9,12.056,8.018l-2.436-.8a.5.5,0,0,0-.545.79A37.532,37.532,0,0,1,372.846,82.1l-1.806-1.438a.481.481,0,0,0-.245-.1,25.969,25.969,0,0,0-9.1-4.308c-5.391-4.341-11.22-8.225-15.258-11.025-.814-.54-1.754-1.164-2.5-1.64q1.388,1.1,2.769,2.212,6.024,4.843,12,9.743c-2.131-.431-4.284-.723-6.37-.946-2.513-.277-5.161-.448-7.625-.513q.588.072,1.176.149c3.357.441,6.955,1.047,10.36,1.8,1.464.309,2.951.679,4.425,1.12,1.549,1.271,3.1,2.536,4.647,3.812,2.954,2.644,6.148,5.17,8.352,8.383a12.38,12.38,0,0,1-1.383-1.085.5.5,0,0,0-.694.719,16.945,16.945,0,0,1,4.15,7.273,33.6,33.6,0,0,0-7.087-3.566.5.5,0,0,0-.5.844c.837.741,1.727,1.418,2.588,2.074a30.642,30.642,0,0,1,3.022,2.5,19.582,19.582,0,0,1,4.314,6.417A.5.5,0,0,0,378.542,104.844ZM364.3,78.431a25.519,25.519,0,0,1,7.019,4.13,22.047,22.047,0,0,1,3.809,7.645c-.357-.176-.691-.39-1.028-.6C372.127,85.867,368.476,82.034,364.3,78.431Z"/><path d="M396.562,173.993a.5.5,0,0,0,.421.383.485.485,0,0,0,.506-.259,7.278,7.278,0,0,0,.406-5.307,54.24,54.24,0,0,0-3.845-11,.5.5,0,0,0-.949.167,29.537,29.537,0,0,0-.052,5.047l-3.178-5.039a.5.5,0,0,0-.921.316l.186,1.876a30.252,30.252,0,0,0-11.6-6.814.5.5,0,0,0-.489.844,39.232,39.232,0,0,1,11.976,21.842.5.5,0,0,0,.443.409l.049,0a.5.5,0,0,0,.466-.318,19.026,19.026,0,0,0,1.133-4.4l.724,3.007a.5.5,0,0,0,.478.383.479.479,0,0,0,.49-.365l1.81-6.457A29.41,29.41,0,0,1,396.562,173.993Z"/><path d="M353.723,88.209c-1.039-.561-2.165-1.146-3.186-1.642q1.8,1.157,3.559,2.363c5.075,3.539,19.774,13.834,18.583,20.795,1.01-2.957-1.069-5.925-2.626-8.306C365.985,95.572,359.873,91.594,353.723,88.209Z"/><path d="M776.439,356.56H538.244a.5.5,0,0,0-.38.175c-.007.009-.009.02-.015.029a28.751,28.751,0,0,0-4.985-11.227,26.5,26.5,0,0,0-12.291-8.4,33.886,33.886,0,0,0-7.984-2.8c-5.44-1.171-11.637-2.326-17.748-1.741a89.485,89.485,0,0,0-.958-18.485,58.892,58.892,0,0,0-10-24.934c-.559-1.687-1.071-3.388-1.522-5.1,4.949,3.794,9.441,7.459,13.2,10.646,1.828,1.563,3.688,3.2,5.436,4.793q-2.388-2.578-4.893-5.044a174.5,174.5,0,0,0-14.292-12.639c-.387-1.7-.709-3.421-.945-5.157-.136-.992-.25-1.955-.341-2.9,9.548,6.138,18.87,12.644,28.086,19.257,2.25,1.6,5.167,3.777,7,5.108q-2.361-2.1-4.781-4.132a283.927,283.927,0,0,0-30.452-22.123c-.06-.958-.089-1.894-.082-2.811,7.312,2.1,14.566,4.414,21.822,6.694,2.016.637,4.541,1.49,6.254,2.039q-2.82-1.206-5.666-2.35c-7.325-2.985-14.79-5.633-22.368-7.89a24.043,24.043,0,0,1,2.854-10.4q.765-1.021,1.483-2.116l-.267,1.574a.5.5,0,0,0,.853.43,47.944,47.944,0,0,0,12.517-24.469l.157.605a.5.5,0,0,0,.974-.228c-.927-4.449,1.116-8.85,3.091-13.107.676-1.455,1.374-2.959,1.948-4.449,2.619-6.8,2.83-14.25,2.538-21.3a20.352,20.352,0,0,0,1.455-5.284c.256-1.758.357-3.552.455-5.287.088-1.556.179-3.166.382-4.727a32.147,32.147,0,0,1,2.379-8.57c5.087-4.859,7.827-9.772,8.88-15.736a35.005,35.005,0,0,0,.382-5.636,27.252,27.252,0,0,1,.656-6.751c.8-2.948,2.611-5.567,4.361-8.1.345-.5.689-1,1.026-1.5,8.579-12.751,12.774-28.1,16.031-41.482.438-1.8.837-3.537,1.162-5.243,1.631.3,3.26.629,4.847,1.025q-1.721-.6-3.473-1.1c-.416-.12-.858-.233-1.291-.348a30.635,30.635,0,0,0,.449-9.714c-.788-5.81-4.209-10.637-8.715-12.3a16.029,16.029,0,0,0-8.508-.335c-.049,0-.1,0-.145,0a31.531,31.531,0,0,0-11.029,3.34c-1.465.689-2.91,1.416-4.338,2.169A70.544,70.544,0,0,0,504.2,72.7c-16.957,10.538-31.452,25.129-45.55,39.331-.375.377-.749.751-1.123,1.128-4.085.983-10.006.09-13.247-1.012a54.984,54.984,0,0,1-8.927-4.3c-.889-.5-1.778-.992-2.672-1.472-3.588-1.926-7.88-3.919-12.511-4.1a34.365,34.365,0,0,0-5.29.327c-.933.105-1.866.211-2.8.274-3.215.221-5.675-.219-7.513-1.344a.5.5,0,0,0-.527,0,.5.5,0,0,0-.231.473l.093.926c-4.268-.181-8.437-1.872-11.374-3.115-2.66-6.5-5.09-13.2-7.434-19.721-4.213-11.717-8.53-23.692-14.394-34.774a70.461,70.461,0,0,0-8.087-13.092c-.782-1.074-1.581-2.136-2.413-3.178a31.692,31.692,0,0,0-8.459-7.908c-.041-.024-.084-.042-.125-.066a16.255,16.255,0,0,0-7.839-3.5c-4.825-.524-10.078,2.272-13.4,7.118-2.865,4.172-4.14,9.046-5.4,14.525-3.084,13.433-6.2,29.041-4.2,44.278.079.6.166,1.195.252,1.794.441,3.05.9,6.2.293,9.2a27.045,27.045,0,0,1-2.448,6.333,35.069,35.069,0,0,0-2.193,5.216c-1.69,5.662-.421,11.528,1.844,17.291a17.4,17.4,0,0,1-.072,3.812,39.078,39.078,0,0,1-1.754,7.132,46.383,46.383,0,0,1-4.8,11.1c-1.327,2.053-2.717,3.093-4.135,3.093h-.028a.5.5,0,0,0-.334.872,17.111,17.111,0,0,0,5.137,3.156c-.454,1.237-.964,2.458-1.47,3.661-1.461,3.477-2.973,7.072-3,10.921a29.255,29.255,0,0,0,.741,5.842c.161.822.322,1.643.451,2.468.53,3.376.269,5.855-.821,7.8a.5.5,0,0,0,.516.738l2.012-.326a13.419,13.419,0,0,1-2.806,5.442.5.5,0,0,0-.081.518.5.5,0,0,0,.426.306,6.77,6.77,0,0,0,2.93-.461c-1.831,9.277-3.847,20.386-.975,30.518a58.375,58.375,0,0,1-3.1,21.17.5.5,0,0,0,.089.484.5.5,0,0,0,.462.172l2.035-.326a7.639,7.639,0,0,1-3.464,5.42.5.5,0,0,0,.148.91l.666.16-1.514,1.753c-14.775,4.3-29.46,8.938-43.859,14.367-2.13.8-4.409,1.677-6.435,2.48q3.971-1.161,7.938-2.33c13.547-3.953,26.985-8.361,40.522-12.394l-1.726,2a.5.5,0,0,0,.517.807l1.508-.435c-1.142,1.273-2.225,2.6-3.28,3.952-10.531,7.542-20.524,15.934-30.336,24.223-6.533,5.627-15.151,13.713-19.941,18.769,7.655-6.569,15.391-13.045,23.066-19.591,7.895-6.646,15.96-13.3,24.336-19.468a76.867,76.867,0,0,0-9.319,18.522.5.5,0,0,0,.859.479l2.5-3.038c-.085.185-.172.361-.257.549-.561,1.246-1.117,2.537-1.68,3.847-2.53,5.877-5.144,11.954-9.218,16.306a.5.5,0,0,0,.278.834,8.11,8.11,0,0,0,2.422-.511c.47-.13,1.1-.3,1.537-.4-.281,5.187-.775,10.365-1.253,15.379-.44,4.617-.884,9.357-1.16,14.047-5.687-.335-11.4.745-16.459,1.837a33.713,33.713,0,0,0-7.952,2.8,26.393,26.393,0,0,0-12.243,8.4c-2.887,3.559-4.964,9.477-5.734,15.476H70.439a.5.5,0,0,0-.5.5v22a.5.5,0,0,0,.5.5H246.715A23.647,23.647,0,0,0,255.1,383a118.77,118.77,0,0,0,13.88,2.445,5.509,5.509,0,0,0,.651.805,5.745,5.745,0,0,0,4.052,1.645,5.922,5.922,0,0,0,.955-.077,7.513,7.513,0,0,0,3.481-1.639c2.113.1,4.242.158,6.395.158q4.155,0,8.4-.243c5.094-.292,10.018-.813,14.263-3.938a13.966,13.966,0,0,0,2.611-2.6H464.81a21.4,21.4,0,0,0,2.318,1.659,16.531,16.531,0,0,0,4.463,5.391c4.259,3.124,9.2,3.645,14.318,3.937q4.262.243,8.436.243c2.162,0,4.3-.06,6.424-.158a7.555,7.555,0,0,0,3.494,1.639,5.984,5.984,0,0,0,.96.077,5.769,5.769,0,0,0,4.063-1.644,5.491,5.491,0,0,0,.655-.806,119.513,119.513,0,0,0,13.938-2.445l.03-.007a5.227,5.227,0,0,0,.625.59,3.954,3.954,0,0,0,2.4.866,3.147,3.147,0,0,0,.817-.106,4.962,4.962,0,0,0,2.415-1.722,7.807,7.807,0,0,0,1.529-2.644,15.4,15.4,0,0,0,2.192-1.69,10.822,10.822,0,0,0,2.285-3.18H776.439a.5.5,0,0,0,.5-.5v-22A.5.5,0,0,0,776.439,356.56ZM529.49,377.522a.5.5,0,0,0-.771.274,15.957,15.957,0,0,1-1.9,4.792c-.02.028-.042.052-.061.079a1.641,1.641,0,0,1-.489-.515,6.122,6.122,0,0,1-.584-1.808,33.7,33.7,0,0,1-.549-6.64,27.66,27.66,0,0,0-1.366-9.692,1.143,1.143,0,0,0-1.35-.831,1.451,1.451,0,0,0-.932,1.723,40.166,40.166,0,0,1,.239,11.5c-.692,4.753-3.343,9.9-7.071,10.548a1.9,1.9,0,0,1-2-.664,6.9,6.9,0,0,1-.6-3.52,38.175,38.175,0,0,0-.336-4.255,2.018,2.018,0,0,0-1.818-1.991c-.765-.031-1.6.538-1.818,1.815a14.256,14.256,0,0,1-2.106,5.764c-2.9,4.02-7.56,5.392-11.343,3.33a5.874,5.874,0,0,1-2.9-3.37c-.612-1.969-.157-4.232.284-6.42.071-.357.142-.711.209-1.061a37.341,37.341,0,0,0-1.569-19.358.9.9,0,0,0-1.029-.639,1.092,1.092,0,0,0-.769,1.209,56.183,56.183,0,0,1-1.878,19.379,12.453,12.453,0,0,1-1.791,4.146c-.631.817-1.731,1.595-2.74,1.1a5.424,5.424,0,0,1-1.573-1.579,5.2,5.2,0,0,0-2.187-1.962c-1.005-.34-2,.5-2.957,1.319-.623.528-1.329,1.126-1.788,1.136h-.007c-.668,0-3.247-1.9-5.3-3.69-.34-.628-.657-1.284-.953-1.96-.2-1.019-.374-2.085-.535-3.176a64.33,64.33,0,0,1-.222-12.158.5.5,0,0,0-.95-.24,22.105,22.105,0,0,0-1.38,14.875c-3.586-2.651-5.761-7.833-5.38-13.111a20.751,20.751,0,0,1,7.374-14c3.38-2.846,7.8-5.88,11.992-4.071l.159.07c.911.4,2.044.891,3.008.175a3.35,3.35,0,0,0,.958-1.432l.137-.305c1.134-2.428,3.748-3.606,5.615-4.28,7.03-2.539,15.17-1.475,21.476-.263a52.471,52.471,0,0,1,8.461,2.422c.614.34,1.287.7,2.065,1.12,2.529,1.349,5.395,2.879,6.666,4.155a34.59,34.59,0,0,1,7.772,11.5c1.836,7.81.283,16.934-3.765,22.856A4.782,4.782,0,0,0,529.49,377.522ZM289.2,352.134a.9.9,0,0,0-1.025.641,37.476,37.476,0,0,0-1.563,19.356c.066.351.137.705.208,1.061.439,2.188.893,4.451.283,6.421a5.863,5.863,0,0,1-2.883,3.37c-3.762,2.06-8.407.692-11.292-3.33a14.291,14.291,0,0,1-2.1-5.765,1.925,1.925,0,0,0-1.779-1.815h-.031a2.016,2.016,0,0,0-1.814,1.991,38.309,38.309,0,0,0-.337,4.349,6.737,6.737,0,0,1-.6,3.427,1.886,1.886,0,0,1-1.986.664c-3.712-.646-6.352-5.8-7.041-10.549a40.241,40.241,0,0,1,.24-11.5,1.453,1.453,0,0,0-.933-1.723,1.142,1.142,0,0,0-1.346.832,27.763,27.763,0,0,0-1.361,9.691,33.842,33.842,0,0,1-.546,6.64,6.1,6.1,0,0,1-.582,1.81,1.526,1.526,0,0,1-1.851.682,5.3,5.3,0,0,1-2.042-1.721c-4.742-5.818-6.678-15.752-4.728-24.1a34.539,34.539,0,0,1,7.759-11.559c1.264-1.276,4.12-2.806,6.638-4.156.775-.415,1.445-.779,2.056-1.119a52.068,52.068,0,0,1,8.426-2.422c6.282-1.21,14.389-2.276,21.388.264,1.859.674,4.461,1.851,5.591,4.279l.136.3a3.35,3.35,0,0,0,.955,1.433c.962.716,2.09.222,3-.175l.158-.069c4.177-1.808,8.577,1.225,11.943,4.069a20.779,20.779,0,0,1,7.343,14c.379,5.277-1.784,10.457-5.354,13.11a22.186,22.186,0,0,0-1.375-14.873.5.5,0,0,0-.95.239,64.436,64.436,0,0,1-.222,12.159c-.159,1.09-.33,2.155-.531,3.174-.295.676-.612,1.333-.95,1.962-2.039,1.79-4.607,3.689-5.271,3.689h-.007c-.457-.01-1.16-.608-1.78-1.135-.958-.816-1.953-1.662-2.946-1.319a5.189,5.189,0,0,0-2.181,1.962,5.42,5.42,0,0,1-1.566,1.579c-1,.5-2.1-.278-2.725-1.1a12.664,12.664,0,0,1-1.783-4.145,56.411,56.411,0,0,1-1.872-19.381A1.09,1.09,0,0,0,289.2,352.134Zm77.048-112.909-.037-.007a.5.5,0,0,0-.336-.182.505.505,0,0,0-.423.162l-.438.487c-3.781.382-7.429,1.789-11,3.008a69.553,69.553,0,0,0-7.273,3.2A11.164,11.164,0,0,1,346,244.45a.5.5,0,0,0-.427-.3,18.926,18.926,0,0,1-.08-2.553c3.816-.682,7.752-1.336,11.037-1.81,3.4-.368,6.844-1.034,10.264-.8C366.61,239.059,366.427,239.134,366.252,239.225Zm68.494,21.409c.035.079.078.155.11.236a.519.519,0,0,0,.033.158l.244.631a.5.5,0,0,0,.6.3l.253.264a.5.5,0,0,0,.843-.476c-.082-.306-.2-.6-.3-.9,2.089.258,4.177.529,6.265.785l1.463.189a15.93,15.93,0,0,1-6.52,4.437c-.083.034-.167.06-.25.093-2.409-2.094-4.964-4.213-7.576-6.181a.506.506,0,0,0,.042-.058C431.552,260.264,433.149,260.444,434.746,260.634Zm6.736-3.345a15.908,15.908,0,0,0-2.675-6.309c.986.434,1.986.883,2.991,1.34.4.986.793,1.965,1.17,2.921a.5.5,0,0,0,.465.316.47.47,0,0,0,.082-.007.5.5,0,0,0,.417-.469c.028-.59.016-1.183.007-1.775q1.494.7,2.989,1.419c-.012.058-.026.116-.038.174a30.584,30.584,0,0,1-1.1,4.133Q443.662,258.092,441.482,257.289Zm-70.037,8.516a1.807,1.807,0,0,0,.886.355,1.131,1.131,0,0,0,1-.47,2.307,2.307,0,0,0,.223-2.007l-.069-.2a4.91,4.91,0,0,1-.264-.942l2.333,2.044a.5.5,0,0,0,.828-.346,4.906,4.906,0,0,1,.326-1.788,12.8,12.8,0,0,1,2.57-3.076,13.257,13.257,0,0,1,2.77,2.214.506.506,0,0,0,.467.125.5.5,0,0,0,.354-.329,4.264,4.264,0,0,1,3.776-2.853l.011.014c.426.533,1.558,1.951,6.141,2.426a9.165,9.165,0,0,1,2.251.784c1.676.725,3.559,1.539,5.156.939,2.141,2.247,1.684,3.339,1.685,3.339a.5.5,0,0,0,.309.733c2.787.721,5.418,1.85,5.517,2.368a6.8,6.8,0,0,1-.8,3.11.556.556,0,0,0,.2.644,5.8,5.8,0,0,0,2.048.218,24.912,24.912,0,0,0,6.195-.821,4.738,4.738,0,0,1-.76,2.222.5.5,0,0,0,.414.78.427.427,0,0,0,.087-.008c.948-.167,1.888-.366,2.823-.58-.633.575-1.239,1.179-1.837,1.778-.135.136-.274.272-.411.408a46.231,46.231,0,0,1-20.618,4.567,36.97,36.97,0,0,1-22.634-8.136,33.138,33.138,0,0,1-6.105-6.641l-.227-.33a13.116,13.116,0,0,0-1.452-1.861,7.807,7.807,0,0,0-1.35-2.551c.817.218,1.643.4,2.477.541a.562.562,0,0,0,.081.006.5.5,0,0,0,.416-.223c.008-.011,0-.025.012-.036C368.343,263.7,370.235,265.008,371.445,265.805Zm67.137,7.124c-.811.049-1.621.1-2.431.135q.887-.323,1.743-.727C438.124,272.534,438.353,272.73,438.582,272.929Zm2.122-.148q-.678-.6-1.362-1.2c.388-.223.762-.468,1.135-.715q.99.883,1.982,1.782C441.875,272.7,441.29,272.737,440.7,272.781Zm15.2-1.978a3.162,3.162,0,0,1,.081-2.316.5.5,0,0,0-.828-.539l-2.246,2.5.122-1.5a.5.5,0,0,0-.766-.462l-5.944,3.762c-.675.078-1.351.145-2.028.213q-1.206-1.107-2.522-2.3c4.5-1.338,8.941-2.935,13.248-4.5q3.09,1.753,6.15,3.656A22.959,22.959,0,0,1,455.9,270.8Zm7.049-2.305c-.747-.472-1.488-.953-2.24-1.416-.423-.257-.852-.508-1.277-.762.974-.564,1.932-1.154,2.884-1.754,1.618.318,3.239.656,4.865,1.04l.124.031,0,0A24.1,24.1,0,0,1,462.949,268.5Zm-74.407-50.752h.006a11.362,11.362,0,0,1,1.727-.736,10.6,10.6,0,0,1,4.009-.263,5.93,5.93,0,0,0,.73.039c.137.038.277.069.41.117a12.932,12.932,0,0,1,2.1,1.053c.263.153.527.3.8.451a21.135,21.135,0,0,0,9.573,2.465c.479.011.971.013,1.454.01,2.121,0,4.113,0,5.316.969a.5.5,0,0,0,.11.067,4.858,4.858,0,0,1,2.344,2.96,7.816,7.816,0,0,1-.1,3.716c-.3,1.27-1.685,3.115-2.825,3.379a3.145,3.145,0,0,1-2.312-.618c-.216-.132-.428-.275-.639-.416a8.163,8.163,0,0,0-1.923-1.048,4.441,4.441,0,0,0-2.987.072,3.319,3.319,0,0,0-1.989,1.933,4.981,4.981,0,0,0,.268,3.1l.076.249c.713,2.346-.168,3.925-1.609,5.725a4.544,4.544,0,0,1-2.657.6,2.783,2.783,0,0,1-2.21-3.709.5.5,0,0,0-.739-.593,12.245,12.245,0,0,0-3.205,2.99,4.109,4.109,0,0,1-2.161-1.013,5.657,5.657,0,0,1-.373-4.281,8.386,8.386,0,0,1,1.684-2.412l.256-.291a6.8,6.8,0,0,0,1.824-3.273,3,3,0,0,0-1.883-3.392,4.157,4.157,0,0,0-2.629.416c-.277.11-.553.221-.83.3a4.051,4.051,0,0,1-3.652-.675,4.973,4.973,0,0,1-1.42-4.145,6.255,6.255,0,0,1,2.274-2.928A8.118,8.118,0,0,1,388.542,217.746Zm89.869,41.14a23.494,23.494,0,0,1-6.337,5.571l.134-2.745a.5.5,0,0,0-.9-.317,22.527,22.527,0,0,1-2.657,3.045c-.245-.059-.489-.123-.734-.181q-1.35-.793-2.708-1.575c2.266-1.518,4.484-3.087,6.659-4.638l1.529,1.118a.5.5,0,0,0,.607-.013,28.037,28.037,0,0,0,7.568-9.474q.762-.785,1.481-1.611Zm-142.3-11.921c.038.073.078.148.117.221-1.052-1.07-2.186-2.087-3.362-3.069q.779-.174,1.557-.343Zm-37.763,31.3c.841-1.174,1.738-2.305,2.668-3.408l6.759-3.589-3.071,6.472q-3.5,3.24-6.887,6.594c-1.449,1.431-3.2,3.173-4.551,4.571C294.8,285.359,296.485,281.823,298.343,278.264Zm159.2-16.8-.054-1.333c.547.3,1.1.588,1.641.886A15.715,15.715,0,0,1,457.546,261.461Zm-4.266-.07c-.095-.015-.19-.032-.285-.046-.12-1.276-.274-2.55-.451-3.822.82.42,1.636.85,2.452,1.278Zm-26.052-1.525c.26.195.524.4.786.6a7.509,7.509,0,0,0,.964.783c.029.02.065.017.1.03,2.237,1.739,4.545,3.635,6.89,5.639-.526.189-1.055.365-1.588.532a88.926,88.926,0,0,0-11.363-7.762C424.431,259.707,425.853,259.818,427.228,259.866Zm-71.78-25.117-.686.524Zm-2.27.091a.537.537,0,0,0-.036-.118.524.524,0,0,0-.07-.091q.906-.236,1.816-.459Zm-3.558,3.612a.5.5,0,0,0,.685.547l.076-.032c-.045.154-.075.312-.11.468-.171.017-.342.036-.512.052-1.4.165-2.792.36-4.184.568a19.182,19.182,0,0,1,.745-3.539c.325-.1.648-.2.974-.29q1.589-.458,3.183-.9A17.408,17.408,0,0,0,349.62,238.452Zm-15.987,3.836q-1.182.261-2.36.535-.287-.23-.574-.456,1.2-.544,2.412-1.064ZM297.8,295.257a.5.5,0,0,0-.614-.761,23.012,23.012,0,0,0-6.458,5.206c-.788.82-1.594,1.66-2.51,2.493,1.445-4.425,3.092-8.77,4.961-13.1q2.691-2.286,5.394-4.556c1.571-1.275,3.162-2.593,4.768-3.936l-2.477,5.222a.5.5,0,0,0,.711.642l11.889-7.2.067,6.437c-5.33,6.328-10.485,12.953-15.676,19.623-3.156,4.178-6.439,8.773-9.481,13.24C289.336,310.981,290.532,304.2,297.8,295.257Zm2.849,8.871c6.588-8.275,13.443-16.93,20.731-24.9a14.6,14.6,0,0,1,1.357-.58,25.9,25.9,0,0,0,2.511,17.645c-.268.32-.555.66-.7.845q.375-.376.748-.754a24.92,24.92,0,0,0,1.888,2.979.5.5,0,0,0,.4.2.414.414,0,0,0,.4-.195,58.548,58.548,0,0,1,15.065-13.755c-1.161,3.966-2.477,9.448-1.073,10a.6.6,0,0,0,.775-.315c4.145-8.45,15.4-5.71,18.246-4.859-1.313,1.66-5.465,6.523-9.415,7a.5.5,0,0,0,.06,1,14.56,14.56,0,0,1,1.814.182c3.1.428,7.716,1.065,12.923-3.658a33.788,33.788,0,0,1-1.074,8.166c-.883,4.132-1.8,8.405-.265,12.305a.5.5,0,0,0,.888.084c4.379-6.886,9.477-11.331,15.151-13.212,6.893-2.284,14.617-.007,17.966,5.3a.5.5,0,0,0,.883-.071L403.554,299a28.853,28.853,0,0,0,17.932,13.251.5.5,0,0,0,.614-.509l-.283-6.347,6.007,2.494a.506.506,0,0,0,.543-.107.5.5,0,0,0,.113-.542,16.076,16.076,0,0,1-1.1-7.43c3.869,3.771,9.019,5.861,14.008,7.885,1.5.61,3.055,1.24,4.538,1.9a66.308,66.308,0,0,1,27.8,23.526.5.5,0,0,0,.416.223h.041a.5.5,0,0,0,.415-.294,49.324,49.324,0,0,0,4.14-16.249c.112.141.227.285.338.426,3.169,4.023,5.891,7.545,9.062,11.823.275.368.55.75.808,1.1q-.548-.909-1.106-1.811-3.5-5.645-7.339-11.066c-.542-.759-1.1-1.5-1.653-2.258a48.636,48.636,0,0,0-.266-7.636c1.4,1.357,2.857,2.767,4.032,3.888q-2.008-2.272-4.051-4.516l3.715,1.605a.5.5,0,0,0,.7-.5,14.031,14.031,0,0,0-2.375-6.845l5.446,2.364a66.037,66.037,0,0,1,3.977,30.1,26.388,26.388,0,0,0-6.778,3.061,42.451,42.451,0,0,1-5.124,2.662,10.19,10.19,0,0,1-3.143.642c-2.734.268-6.134.6-12.223,5.76a18.319,18.319,0,0,0-6.421,10.959H439.824a.474.474,0,0,0,.04-.111,14.452,14.452,0,0,0-.626-8.022.5.5,0,0,0-.961.156,22.782,22.782,0,0,1-1.962,7.517.5.5,0,0,0,.037.46H393.678c.432-8.055,1.31-16.484,4.044-24.5l4.988,7.824a.474.474,0,0,0,.435.231.5.5,0,0,0,.422-.253,20.246,20.246,0,0,0,2.568-11.34l9.2,5.159a.5.5,0,0,0,.65-.729l-10.21-14.1a.5.5,0,0,0-.839.044l-2.451,4.259a3.542,3.542,0,0,0-.65-1.072,4.58,4.58,0,0,0-4.129-1.5c-2.449.454-4.194,2.469-5.65,4.338-1.227,1.574-2.489,3.195-4.171,3.971l1-10.765a.5.5,0,0,0-.83-.42l-12.248,10.872c.341-1.53.272-3.038-1.452-4.069a.5.5,0,0,0-.63.1l-9.058,10.167a.5.5,0,0,0,.715.7c1.2-1.127,2.253-1.466,3.129-1,1.051.553,1.2,2.132.674,3.2a8.245,8.245,0,0,1-2.942,2.838.5.5,0,0,0,.537.844l3.521-2.069a9.546,9.546,0,0,1-3.215,3.956.5.5,0,0,0,.543.839,54.965,54.965,0,0,0,14.278-11.951,53.667,53.667,0,0,0,1.457,13.235.5.5,0,0,0,.445.383.514.514,0,0,0,.5-.306l1.892-4.508a158.635,158.635,0,0,0,3.431,15.635h-22.72a25.764,25.764,0,0,0-1.347-3.3.541.541,0,0,0-.453-.278.5.5,0,0,0-.448.287l-1.552,3.29h-.87a15.968,15.968,0,0,1-2.785-6.252.5.5,0,0,0-.351-.38.494.494,0,0,0-.5.134,15.9,15.9,0,0,0-3.2,4.883l-3.341-16.392a.5.5,0,0,0-.894-.2,12.811,12.811,0,0,1-6.131,4.523l.447-7.367a.5.5,0,0,0-.859-.377l-1.723,1.788.9-5.233a.5.5,0,0,0-.71-.535l-4.446,2.139a9.259,9.259,0,0,0,.493-4.915.5.5,0,0,0-.9-.172L331.8,337.67a.5.5,0,0,0,.006.571.493.493,0,0,0,.536.193l5.121-1.368a17.915,17.915,0,0,1-5.346,7.354.5.5,0,0,0,.455.868l3.09-.9a57.544,57.544,0,0,0-8.709,10.252.5.5,0,0,0,.557.756,113.346,113.346,0,0,0,17.067-6.552l-2.118,7.712h-19.8a18.525,18.525,0,0,0-6.689-15.412c-6.065-5.159-9.453-5.492-12.175-5.76a10.087,10.087,0,0,1-3.131-.643,42.1,42.1,0,0,1-5.1-2.661,26.362,26.362,0,0,0-6.674-3.039c.019-.045.035-.088.054-.133a34.544,34.544,0,0,0,1.985-5.959.5.5,0,0,0-.939-.321,5.968,5.968,0,0,1-1.656,1.483c-.266.192-.528.38-.771.569.246-1.617.44-3.184.63-4.71Q294.418,312.048,300.647,304.128Zm18.014,65.546a13.476,13.476,0,0,1-1.155,1.723c-.058.072-.121.134-.18.2Q318.037,370.68,318.661,369.674Zm220.4-280.161q-1.741-.123-3.485-.2-1.279-.065-2.564-.091c.176-.315.342-.635.523-.947a6.727,6.727,0,0,0,.923-3.668c1.8.15,3.571.347,5.3.572-.086.624-.177,1.239-.271,1.833C539.352,87.83,539.209,88.666,539.059,89.513Zm-23.5,29.029a12.885,12.885,0,0,0,1.953-.224,8.354,8.354,0,0,0,5.112-3.931,24.449,24.449,0,0,0,2.357-5.649l.066-.2a108.654,108.654,0,0,1,7.65-18.737c.916-.053,1.834-.1,2.761-.136,1.17-.057,2.493-.095,3.6-.127-2.253,12.65-7.045,28.7-17.182,42.634-.3-.93-.652-1.845-1.037-2.744a68.347,68.347,0,0,0-6.093-10.821C515.009,118.578,515.28,118.56,515.556,118.542Zm-62.277-1.109c-3.694,3.693-10.359,3.415-12.419,1.865a.5.5,0,0,0-.79.5c.417,1.953,2.588,3.345,4.888,4.819l.823.53a7.938,7.938,0,0,1,2.414,2.8c.055.588.153,1.188.267,1.8a30.511,30.511,0,0,0,1.758,6.62,10.692,10.692,0,0,0,4.525,5.28.5.5,0,0,0,.711-.594,9.027,9.027,0,0,1-.3-4.2,56.672,56.672,0,0,0,15.1,10.865.5.5,0,0,0,.592-.785,41.142,41.142,0,0,1-8.668-15.038.5.5,0,0,0-.973.089l-.559,4.444a18.559,18.559,0,0,1-2.941-15.453c.1-.173.189-.338.308-.516,2.756-4.131,6.42-7.622,9.963-11L484.828,93.4c5.88-5.6,11.96-11.4,18.7-16.159,7.51-5.309,14.983-8.65,22.209-9.928a30.923,30.923,0,0,1,8.317-.412c2.9,1.626,5.006,4.855,5.765,8.874a28.119,28.119,0,0,1,.032,8.69c-1.763-.36-3.6-.661-5.491-.892a18.513,18.513,0,0,0-2.276-5.716.5.5,0,0,0-.937.188c-.172,1.731-.433,3.45-.763,5.154-8.675-.526-17.707.747-23.688,5.721a19.613,19.613,0,0,1,5.3-2.463,53.4,53.4,0,0,1,18.15-2.1q-.531,2.468-1.271,4.882a48.565,48.565,0,0,0-18.328,3.813c-3.726,1.7-7.8,3.332-10.575,6.447,2.85-2.563,6.5-3.744,9.826-5.1a69.225,69.225,0,0,1,18.795-4.287,57.821,57.821,0,0,1-12.5,21.343,13.355,13.355,0,0,1-3.871,3.167c-.076.036-.155.061-.232.095-.127-.173-.252-.348-.38-.52a35.558,35.558,0,0,0-8.638-8.289q4.94-.065,9.874.26c1.049.062,2.384.184,3.272.253q-1.385-.279-2.778-.511a91.464,91.464,0,0,0-12.186-1.088,17.527,17.527,0,0,0-10.172-2.241,16.712,16.712,0,0,1,8.35,2.264c-5.931.2-11.671,1.595-16.151,5.663,4.31-3.276,9.693-4.242,15.087-4.45.955-.054,1.912-.084,2.868-.112a44.315,44.315,0,0,1,9.525,9.229,20.245,20.245,0,0,1-6.017.3.53.53,0,0,0-.483.3,4.415,4.415,0,0,0,.275,3.995c-.541-.1-1.082-.192-1.625-.277-6.5-1.024-13.453-1.163-19.435,1.953-3.749,2.089-7.728,4.665-10.218,8.256-.284.211-.555.314-.764.189a.419.419,0,0,1-.185-.288.93.93,0,0,1,.137-.683,3.1,3.1,0,0,1,.284-.335,4.763,4.763,0,0,0,1.2-2.143.5.5,0,0,0-.8-.523,14.409,14.409,0,0,0-4.923,12.042.5.5,0,0,0,.839.322,31.968,31.968,0,0,0,2.615-2.954c.524-.642,1.059-1.3,1.578-1.876-.026.506-.038.962-.049,1.387a9.582,9.582,0,0,1-.647,3.9.5.5,0,0,0,.406.688l8.559.955a19.866,19.866,0,0,0-3.712,3.28.5.5,0,0,0,.2.8,23.05,23.05,0,0,0,9.209,1.335,7.211,7.211,0,0,1-6.206,3.755c-.516.048-.96.089-1.006.56a.625.625,0,0,0,.134.417c.278.323.921.39,3.552.536a25.54,25.54,0,0,1,3.833.376,6.784,6.784,0,0,1-.03,1.342c-.077.952-.146,1.775.319,2.224a.946.946,0,0,0,.81.25,12.411,12.411,0,0,0,2.578-.672,14.913,14.913,0,0,0-1.168,2.314.594.594,0,0,0,.271.738c.78.439,4.889-1.182,7.421-2.693-.5.891-1.122,1.906-1.727,2.9a42.951,42.951,0,0,0-2.754,4.92c-.335.836-.272,1.453.184,1.833a1.382,1.382,0,0,0,.911.285c.045,0,.087,0,.128,0,2.186-.093,10.48-10.7,12.169-14.97.325-.823.642-1.59.942-2.317,1.681-4.066,2.894-7,2.14-11.521a.5.5,0,0,0-.958-.1c-2.8,7.088-6.283,11.485-10.342,13.068a9.793,9.793,0,0,1-7.832-.406.491.491,0,0,1-.281-.39.474.474,0,0,1,.174-.434c3.684-3.051,9.827-8.583,9.581-11.367a.5.5,0,0,0-.773-.374,39.962,39.962,0,0,1-8.7,3.833,3.788,3.788,0,0,1-2.191-.478c-.481-.528-.329-.81.536-1.782.166-.187.341-.383.51-.592a24.416,24.416,0,0,1,3.841-3.85l.876-.751a.5.5,0,0,0,.126-.59.493.493,0,0,0-.533-.282,62.1,62.1,0,0,0-8.151,1.889l1.122-1.213a.5.5,0,0,0-.687-.724,16.069,16.069,0,0,1-5.045,2.839,1.788,1.788,0,0,0-.326-.635,2.287,2.287,0,0,0-1.837-.847,3.066,3.066,0,0,0-1.1.279c1.339-2.493,2.623-3.625,5.137-5.842a.5.5,0,0,0-.176-.85,8.113,8.113,0,0,0-5.386.2c1.08-.752,2.209-1.456,3.346-2.155,6.189-3.787,12.957-5.182,20.8-4.728,1.045.036,2.157.114,3.233.208a4.159,4.159,0,0,0,.924.991,4.421,4.421,0,0,0,5.38-.12,8.108,8.108,0,0,0,.783-.778,5.9,5.9,0,0,1,.85-.811,3.151,3.151,0,0,1,.969-.44,91.148,91.148,0,0,1,6.464,9.555,37.917,37.917,0,0,1,1.908,3.8,75.774,75.774,0,0,1-8.57,9.885.5.5,0,0,0-.119.537,20.024,20.024,0,0,1-1.178,16.6c-2.651,4.808-7.427,6.108-13.4,7.307a.5.5,0,0,0-.39.6c.263,1.193,1.532,1.579,2.875,1.986,1.695.514,3.574,1.092,4.388,3.208-.236,2.289-.314,4.877-.392,7.525-.139,4.7-.285,9.555-1.461,12.078a26.452,26.452,0,0,0-4.782-5.778.5.5,0,0,0-.784.592,50.006,50.006,0,0,1,2.836,7l-2.473-1.143a.505.505,0,0,0-.611.155.5.5,0,0,0,.024.627c2.024,2.327,1.75,5.927,1.367,8.433a71.434,71.434,0,0,1-3.22,12.384c-.27.557-.519,1.149-.756,1.759l-.125-.812a.5.5,0,0,0-.471-.423.464.464,0,0,0-.508.38,31.026,31.026,0,0,1-19.445,21.323.5.5,0,0,0-.162.852,4.433,4.433,0,0,0,1.908.946,12.746,12.746,0,0,1-3.844.95.5.5,0,0,0-.14.964,13.61,13.61,0,0,0,9.493.129,22.8,22.8,0,0,1-1.164,5.838,34.838,34.838,0,0,1-7,7.583l-.078-1.15a.5.5,0,0,0-.809-.358l-2.215,1.755-.62-1.9a.5.5,0,0,0-.935-.044,16.812,16.812,0,0,1-8.124,8.287q-1.767-.988-3.548-1.948l-.059-1.451a.5.5,0,0,0-.917-.255l-.579.873q-1.8-.952-3.61-1.874c-.429-2.647-.966-5.278-1.636-7.868a.5.5,0,0,0-.871-.191,13.7,13.7,0,0,0-2.47,5.637q-1.7-.8-3.415-1.56a29.125,29.125,0,0,0-1.159-6.35,18.332,18.332,0,0,1,3.04,5.157.5.5,0,0,0,.891.085,13.345,13.345,0,0,0,1.985-7.449l1.009.9a.5.5,0,0,0,.833-.394,21.173,21.173,0,0,0-1.373-6.616l.522.435a.5.5,0,0,0,.792-.551l-.645-1.82.979.655a.5.5,0,0,0,.744-.6,12.72,12.72,0,0,0-3.076-4.576,10.993,10.993,0,0,0-3.593-2.452.5.5,0,0,0-.516.839,7.635,7.635,0,0,1,2.167,3.29l-4.709-1.828a.5.5,0,0,0-.449.887,8.127,8.127,0,0,1,3.41,4.714l-1.666-1.231a.5.5,0,0,0-.684.719,6.507,6.507,0,0,1,1.238,2.431,21.3,21.3,0,0,0-7.79-3.106.494.494,0,0,0-.526.247.5.5,0,0,0,.063.577l2.67,3-3.895-1.112a.5.5,0,0,0-.5.827c3.281,3.429,5.521,7.773,7.367,12.08q-1.929-.805-3.884-1.551-.155-.29-.318-.575c-.2-.345-.568-.923-1-.9a.518.518,0,0,0-.439.307c-.058.135-.095.247.069.552-2.173-.772-4.357-1.552-6.567-2.235l-.573-.74a.5.5,0,0,0-.866.135,10.479,10.479,0,0,0-2.256-.516.465.465,0,0,0-.241.042,39.656,39.656,0,0,0-4.251-.775,1.933,1.933,0,0,0-1.1.139c-.057.079,0,.165.057.224.126-.485.936-.251,1.356-.184a23.837,23.837,0,0,1,2.627.681c.34.1.675.225,1.013.337a.482.482,0,0,0,.1.358,5.878,5.878,0,0,0,3.651,1.978.5.5,0,0,0,.527-.689c-.016-.038-.035-.076-.053-.114,1.306.509,2.607,1.031,3.915,1.534,1.227.508,2.5,1.044,3.8,1.6a22.3,22.3,0,0,1,1.044,2.457.5.5,0,0,0-.487.555,6.824,6.824,0,0,0,.93,2.742l.019.03a.5.5,0,0,0,.686.163.362.362,0,0,0,.038-.026l.319.543c-1.528-.5-3.075-.937-4.649-1.3a53.6,53.6,0,0,0-8.415-1.388c.014-.018.036-.027.048-.047a3.112,3.112,0,0,0,.4-.1.5.5,0,0,0,.048-.937l-2.1-.894a1.378,1.378,0,0,0-1.085-.034.763.763,0,0,0-.4.515.938.938,0,0,0,.58,1.038,5.1,5.1,0,0,0,1,.438,16.773,16.773,0,0,0-2.244.181c6.731.323,14.319,2.7,22.119,6.264-.148-.016-.295-.036-.443-.051-2.673-.318-5.353-.593-8.038-.8-.1-.223-.191-.453-.305-.671l-.036-.07,0-.009c-.122-.281-.227-.523-.539-.551a.513.513,0,0,0-.461.219.423.423,0,0,0-.086.309.5.5,0,0,0-.4.219.705.705,0,0,0-.121.426c-1.639-.1-3.28-.183-4.922-.223l-1.281-.663a.48.48,0,0,0-.389-.012c-5.932-4.163-12-7.263-17.168-7.233,3.924.193,9.517,3.273,15.867,7.919-1.3.031-2.612.06-3.905.2a56.822,56.822,0,0,0-15.661-5.933,68.772,68.772,0,0,1,13.731,6.251,10.865,10.865,0,0,0-2.788,1.007,11.072,11.072,0,0,1,3.2-.763,111.9,111.9,0,0,1,11.916,8.2,40.156,40.156,0,0,1-4.018.816,38.947,38.947,0,0,1-7.15-.183.492.492,0,0,0-.332-.3c-8.6-2.1-15.814-8.1-22.179-13.389a6.3,6.3,0,0,1-1.541-1.62c-.624-1.108-.527-2.643.3-4.69l.266-.647c.2-.482.4-.97.576-1.465a32.623,32.623,0,0,1,4.195-2.2c2.817-1.3,5.731-2.651,7.143-5.023.1-.171.174-.3.233-.413.166-.305.183-.337.6-.631a4.5,4.5,0,0,1,1.429-.554l.433-.119c6.452-1.85,9.293-6.01,8.447-12.362-.347-2.6-2.225-4.889-3.882-6.907-.316-.384-.626-.763-.92-1.135-1.5-1.9-3.029-3.651-5.212-4.17a10.114,10.114,0,0,0-3.47-.023c-.553.061-1.126.124-1.675.135-2.621.069-5.338-.993-8.561-3.288-.669-.477-1.785-1.277-2.937-.867a3.149,3.149,0,0,0-1.648,2.027c-.08.191-.169.372-.256.554a27.914,27.914,0,0,1-3.669,2.4,25.9,25.9,0,0,0-4.288,2.886,10.455,10.455,0,0,0-3.431,5.727,7.556,7.556,0,0,0,1.7,6.469,12.518,12.518,0,0,0,1.919,1.594,8.4,8.4,0,0,1,3.9,5.924c.2.645.4,1.29.642,1.912a16.11,16.11,0,0,0,5.33,7.073,6.829,6.829,0,0,1-.175,3.385,6.9,6.9,0,0,1-4.022,4.231l-.154.059c-4.916,1.885-15.806,5.283-26.1,3.229,1.956-2.006,3.924-4,5.94-5.947a38.114,38.114,0,0,1,5.312-4.3,3.485,3.485,0,0,1,2-.755c-.984-.168-1.893.467-2.744.875a40.72,40.72,0,0,0-6.6,4.751c-1.88,1.625-3.714,3.3-5.523,5.006a25.617,25.617,0,0,1-6.278-2.51.506.506,0,0,0-.2-.06l-.435-.246c-.367-.208-.738-.424-1.11-.642q4.095-2.2,8.337-4.076c.006,0,.01.013.016.018a.5.5,0,0,0,.315.111.493.493,0,0,0,.3-.1l.784-.6a2.984,2.984,0,0,0,1.292-.588q4.581-1.907,9.3-3.476a.5.5,0,0,0-.01.293.5.5,0,0,0,.48.359l.055,0a3,3,0,0,0,1.556-.654.5.5,0,0,0,.128-.113.415.415,0,0,0,.052-.067l.338-.168a.5.5,0,0,0,.261-.566c.733-.227,1.467-.453,2.2-.669-.787.134-1.556.29-2.33.441a.436.436,0,0,0-.38-.153c-.915.039-1.294.055-1.4.5v.018a88.269,88.269,0,0,0-9.875,2.738c-.017,0-.031-.015-.049-.016a2.865,2.865,0,0,0-1.708.363q-.018.018-.036.039a4.518,4.518,0,0,0-.495.432,88.235,88.235,0,0,0-10.835,4.91,20.785,20.785,0,0,1-5.125-4.417c2.518-1.378,5.06-2.638,7.625-3.745a9.414,9.414,0,0,0-.885,1.6,4.573,4.573,0,0,1,.619,1.045.5.5,0,0,0,.627.032,20.537,20.537,0,0,0,2.959-2.622.5.5,0,0,0-.5-.822,1.827,1.827,0,0,1-1.139.072,67.625,67.625,0,0,1,7.727-2.614l-.406.45a.5.5,0,0,0-.041.616.486.486,0,0,0,.078.09l.008.02a.5.5,0,0,0,.412.306c.115.011.229.017.344.017A3.769,3.769,0,0,0,368,240.142a.5.5,0,0,0-.292-.793l-.1-.019a.5.5,0,0,0-.67-.408c-.024.009-.046.021-.069.03-4.95-.755-10.04-.2-15.027.324a16.445,16.445,0,0,1,8.839-5.078.5.5,0,0,0,0-.98,6.952,6.952,0,0,0-1.007-.119q2.082-.412,4.186-.718c2.359-.238,5.721-.855,8.351.032-3.293-1.391-7.051-.892-10.529-.681a83.952,83.952,0,0,0-15.628,3.2,18.619,18.619,0,0,0-.12-9.615.5.5,0,0,0-.891-.15,31.032,31.032,0,0,0-4.873,11.225c-4.383-2.772-8.852-5.68-12.211-9.7-3.851-4.615-5.461-10.179-4.305-14.884a.5.5,0,0,0-.923-.361l-1.352,2.452a30.511,30.511,0,0,1,.2-5.181c.055-.134.106-.271.166-.4a.478.478,0,0,0-.046-.45c.013-.086.022-.172.036-.257a.5.5,0,0,0,.856.014,9.235,9.235,0,0,0,1.358-5.432,12.707,12.707,0,0,0,5.669,1.334.523.523,0,0,0,.5-.331.5.5,0,0,0-.151-.554,33.832,33.832,0,0,1-11.886-25.66,47.46,47.46,0,0,1,3.768-10.629.5.5,0,0,0-.648-.682,17.994,17.994,0,0,0-3.088,1.716l1.305-2.374a.5.5,0,0,0-.682-.677,18.363,18.363,0,0,0-5.388,4.582,23.4,23.4,0,0,1,2.395-10.618.5.5,0,0,0-.531-.714l-1.054.175a44.49,44.49,0,0,1,7.168-8.432.5.5,0,0,0-.51-.838,5.556,5.556,0,0,1-4.068-.514,3.617,3.617,0,0,1,.138-1.031,52.139,52.139,0,0,1,7.177-15.622,13.118,13.118,0,0,0,1.757-3.236c.041-.091.079-.182.118-.273,5.786,3.51,7.136,5.859,7.676,6.807.213.376.382.673.749.72.4.048.634-.2,1.126-.709a30.324,30.324,0,0,1,3.38-3.014,3.214,3.214,0,0,0,1.666,1.313,3.894,3.894,0,0,0,3.4-.343,5.559,5.559,0,0,0,2.134-5.383,13.519,13.519,0,0,0-1.638-4.552,9.248,9.248,0,0,1,4.389,1.529.5.5,0,0,0,.779-.427l-.082-3.381,1.724,1.77a.5.5,0,0,0,.857-.325,12.872,12.872,0,0,1,4.041-8.673,8.081,8.081,0,0,0,1.356,2.813,3.671,3.671,0,0,0,3.841,1.346,4.929,4.929,0,0,0,1.622-1.076,6.5,6.5,0,0,1,.889-.695c1.719-1.041,4.09-.242,7.044,2.382a.5.5,0,0,0,.44.115.5.5,0,0,0,.351-.291,12.167,12.167,0,0,1,3.156-4.334,23.038,23.038,0,0,1,1.6,2.828.5.5,0,0,0,.944-.192,27.788,27.788,0,0,0-1.431-10.915.5.5,0,0,0-.456-.336.486.486,0,0,0-.478.3l-2.549,6.031-2.063-3.2a.5.5,0,0,0-.92.268,3.021,3.021,0,0,1-1.429,2.47,5.009,5.009,0,0,1-4.4.594c-2.568-.961-4.237-3.559-5.531-5.974l-.354-.667c-1.274-2.4-2.592-4.889-4.88-6.448a.5.5,0,0,0-.74.214,32.9,32.9,0,0,0-2.623,15.744,51.96,51.96,0,0,1-7.737-9.282.5.5,0,0,0-.919.27,36.781,36.781,0,0,0,1.341,10.089,34.772,34.772,0,0,1-8.344-13.75.491.491,0,0,0-.528-.344.5.5,0,0,0-.445.445,33.9,33.9,0,0,0,7.046,24.114,6.56,6.56,0,0,1-5.355-2.219.5.5,0,0,0-.845.507,6.007,6.007,0,0,1,.21,3.691,9.351,9.351,0,0,1-3.057-3.545.491.491,0,0,0-.506-.277.5.5,0,0,0-.431.383l-.488,2.1a61.35,61.35,0,0,1-6.43-6.14c-.837-1.516-1.081-3.307-1.207-6.324a19.921,19.921,0,0,1,6.411-15.379.5.5,0,0,0,.133-.538c-7.986-22.382-3.8-45.506,1.126-60.963,1.055-3.311,2.379-7.1,4.758-10.209,2.5-3.259,5.851-5.213,9.211-5.373a31.323,31.323,0,0,1,7.332,4.081c5.953,4.367,11.2,10.69,15.6,18.793,3.939,7.262,6.825,15.162,9.615,22.8l8,21.9c1.681,4.6,3.419,9.36,4.05,14.287a26.539,26.539,0,0,1-.1,7.775,42.841,42.841,0,0,1-12.483,12.31l.855-3.367a.5.5,0,0,0-.814-.5,40.839,40.839,0,0,1-11.024,6.942.5.5,0,0,0-.217.743c.772,1.125,2.113,1.679,4.081,1.679a12.848,12.848,0,0,0,1.4-.082,43.374,43.374,0,0,0,16.254-5.174,3.078,3.078,0,0,1-.546,2.987.5.5,0,0,0,.516.809,27.66,27.66,0,0,0,14.128-9.648,37.716,37.716,0,0,1,7.215.83.5.5,0,0,0,.255-.964c-1.034-.365-2.443-.856-3.853-1.346l-1.833-.637a7.606,7.606,0,0,0,4.305-1.541.5.5,0,0,0-.428-.857c-2.746.479-6.5-1.64-7.638-2.958a26.673,26.673,0,0,1-4.063-6.731,26.194,26.194,0,0,0,14.651,4.841.5.5,0,0,0,.487-.639l-.163-.557a12.649,12.649,0,0,0,6.049,1.089.5.5,0,0,0,.387-.767l-.52-.817a40.405,40.405,0,0,1,11.625,4.117.5.5,0,0,0,.4.032,12.814,12.814,0,0,1,5.589-.615l-1.207,1.318a.5.5,0,0,0-.123.425.5.5,0,0,0,.263.357,12.621,12.621,0,0,0,7.864,1.2l-.349.891a.5.5,0,0,0,.215.616,19.105,19.105,0,0,0,9.211,2.123,21.74,21.74,0,0,0,5.938-.809C454.017,116.69,453.648,117.064,453.279,117.433ZM313.345,210.691a13.55,13.55,0,0,1,1.585-1.719.48.48,0,0,0,.077.169.5.5,0,0,0,.589.107,1.428,1.428,0,0,1,.972-.095c-1.084,2.7-1.868,9.108-1.858,11.614a.5.5,0,0,0,.914.279c.142-.209.7-.9,1.184-1.518l.564-.71c2.595,10.926,7.235,15.77,10.04,18.7a9.348,9.348,0,0,1,2.2,2.816.5.5,0,0,0,.928.059l.983-2.087.84,1.588q-1.547.666-3.074,1.374l-.378-.294-.431-.335c-5.519-4.288-10.718-9.142-11.388-15.579a.5.5,0,0,0-.436-.444.509.509,0,0,0-.531.324l-1.016,2.777a24.888,24.888,0,0,0-3.4-10.542A10.015,10.015,0,0,1,313.345,210.691Z"/></svg>