<svg id="aca3261a-b8e2-4a7e-85ed-b8887caf8f64" data-name="Layer 2" xmlns="http://www.w3.org/2000/svg" viewBox="0 0 767.51 480.015" style="fill: #215342;" height="248" width="290"><path d="M403.647,197.159c1.6-3.923-.066-8.955-3.8-11.457a12.217,12.217,0,0,0-12.305-.365,4.034,4.034,0,0,0-1.516,1.266,1.3,1.3,0,0,1-.183.212.5.5,0,0,0-.217.55l.256.965a.5.5,0,0,0,.729.307,4.221,4.221,0,0,1,4.254-.034,2.935,2.935,0,0,1,1.072,3.714,5.7,5.7,0,0,1-3.054,2l-.388.154c-2.067.835-3.2,1.971-3.357,3.378a3.47,3.47,0,0,0,1.05,2.746,6.941,6.941,0,0,0,2.36,1.468,14.272,14.272,0,0,0,5.4,1.1,11.794,11.794,0,0,0,3.18-.424A9.845,9.845,0,0,0,403.647,197.159Z"/><path d="M304.57,172.474a4.008,4.008,0,0,0-1.794.8,1.247,1.247,0,0,1-.234.157.606.606,0,0,0-.364.512l-.08.962a.5.5,0,0,0,.172.42.506.506,0,0,0,.441.108,3.666,3.666,0,0,1,3.809,1.223,3.3,3.3,0,0,1-.275,4.079,5.405,5.405,0,0,1-3.412,1.075l-.411.038c-2.118.206-3.553,1.012-4.147,2.333a3.794,3.794,0,0,0,.048,3.006,6.553,6.553,0,0,0,1.66,2.177,11.7,11.7,0,0,0,7.586,3.267l.211,0a9.722,9.722,0,0,0,7.545-3.592,10.429,10.429,0,0,0-10.755-16.571Z"/><path d="M310.211,234.873a.5.5,0,0,0-.357-.933l-.087.032c-.221.075-.531.107-1.586-.281a.494.494,0,0,0-.524.112l-.831.814a3.687,3.687,0,0,0-.289.284.5.5,0,0,0,.024.7.5.5,0,0,0,.7,0l.24-.236a2.869,2.869,0,0,1,.347-.252.5.5,0,0,0,.673.4l1.6-.6C310.146,234.9,310.178,234.886,310.211,234.873Zm-.308-.419.126-.047Z"/><path d="M313.586,242.713a11.472,11.472,0,0,0-3.024-.146.5.5,0,0,0-.332.144l-1.173,1.152a.5.5,0,0,0,.349.858.514.514,0,0,0,.159-.026l1.468-.492a.517.517,0,0,0,.1.163.5.5,0,0,0,.557.119l1.972-.824a.5.5,0,0,0-.079-.948Z"/><path d="M371.284,247.172c.285.142.573.273.833.391a.5.5,0,0,0,.431.488,2.832,2.832,0,0,0,.753.043.99.99,0,0,0,.721.187,1.024,1.024,0,0,0,.183-.057,5.068,5.068,0,0,1,.774.279.485.485,0,0,0,.208.046.5.5,0,0,0,.5-.5,2.118,2.118,0,0,0-.634-1.64,1.429,1.429,0,0,0-.359-.233,1.915,1.915,0,0,0-1.873-.627,4.529,4.529,0,0,0-1.586.754.5.5,0,0,0,.049.865Z"/><path d="M481.159,99.315a.5.5,0,0,0-.487.344c-1.857,5.7-5.878,10.491-9.766,15.119-4.106,4.89-8.352,9.946-10.141,16.143a46.054,46.054,0,0,0-1.312,7.928c-.2,1.9-.409,3.871-.792,5.761a30.319,30.319,0,0,1-7.378,14.482c-.687.749-1.967,2.143-1.416,3.625.368.983,1.459,1.6,3,1.706.243.016.483.023.721.023,5.322,0,9.763-3.878,12.2-7.63a47.666,47.666,0,0,0,4.762-11.033c.347-1.034.692-2.067,1.056-3.09,1.471-4.137,3.7-9.283,7.884-12.385a.5.5,0,0,0,.161-.6.508.508,0,0,0-.548-.294,16.072,16.072,0,0,0-11.1,8.124c-.538,1.016-1.149,2.167-2.09,2.185h-.02c-.9,0-1.533-1.1-1.739-2.123a11.21,11.21,0,0,1,2.094-8.223,38.555,38.555,0,0,1,4.425-5.184c.508-.527,1.015-1.054,1.511-1.589,7.607-8.2,11.138-16.769,9.446-22.922A.5.5,0,0,0,481.159,99.315Z"/><path d="M261.178,118.366a13.528,13.528,0,0,1,1.293-2.792,15.3,15.3,0,0,0,1.338-2.861c1.039-3.356-.327-7.422-3.4-10.116a.5.5,0,0,0-.574-.061.5.5,0,0,0-.249.521,6.558,6.558,0,0,1,.025,3.183c-.292.842-1.211,1.619-2.045,1.375a2.88,2.88,0,0,1-1.246-.986c-3.905-4.521-6.73-10.5-8.394-17.781-1.488-6.509-1.912-13.3-2.321-19.864a.5.5,0,0,0-.967-.146,42.81,42.81,0,0,0,.623,31.505c.983,2.321,2.185,4.576,3.348,6.757a71.129,71.129,0,0,1,3.807,7.916,70.921,70.921,0,0,1,2.164,7.146c.59,2.228,1.2,4.53,2.007,6.739,1.42,3.886,4.144,9.011,9.054,11.355a4.733,4.733,0,0,0,2.048.5,3.5,3.5,0,0,0,1.176-.2,3.07,3.07,0,0,0,1.742-1.5,3.3,3.3,0,0,0-.487-3.262,9.291,9.291,0,0,0-1.824-1.762l-.4-.323a19.977,19.977,0,0,1-6.469-9.872A9.9,9.9,0,0,1,261.178,118.366Z"/><path d="M357.918,331.786a50.937,50.937,0,0,0-7.59-.078,48.189,48.189,0,0,1-7.757-.11c-4.827-.6-10.109-3.377-11.03-8.246a.5.5,0,0,0-.99.064,6.842,6.842,0,0,1-1.926,4.33c1-3.668,1.74-7.261.049-9.431a.507.507,0,0,0-.544-.17.5.5,0,0,0-.35.45,16.944,16.944,0,0,1-13.207,15.291.5.5,0,0,0-.395.557.489.489,0,0,0,.531.432l8.186-.589a78.431,78.431,0,0,1-10.324,8.607.5.5,0,0,0-.186.572.48.48,0,0,0,.5.337,19.576,19.576,0,0,0,11.937-4.961,15.55,15.55,0,0,0,8,10.884.5.5,0,0,0,.229.055.5.5,0,0,0,.5-.517l-.532-15.336a19.959,19.959,0,0,0,12.17,2.249c4.461-.466,8.722-1.968,12.842-3.421a.5.5,0,0,0-.111-.969Z"/><path d="M434.971,330.194a.5.5,0,0,0,.843-.5c-2.183-6.382-7.819-11.034-12.347-14.771-5.434-4.484-10.843-8.577-16.94-9.7l6.978-1.426a.5.5,0,0,0,.131-.934c-5.634-2.933-12.257-2.187-18.56-1.171l-.385.062c-6,.97-12.206,1.971-17.728-.206a.5.5,0,0,0-.515.839c3.965,3.509,9.528,5.487,15.952,5.73l-3.242.845a.5.5,0,0,0,.051.978l10.754,1.636-12.49,3.176a.5.5,0,0,0,.241.97A49.619,49.619,0,0,1,434.971,330.194Z"/><path d="M478.46,67.321c-2.453-.247-4.876.758-7.165,1.529-8.132,3.039-15.083,8.47-21.5,14.2-7.518,6.706-14.375,14.281-19.084,23.249-.819,1.5-1.644,3.12-2.345,4.622,1.183-2.041,2.457-4.027,3.8-5.963C439.972,93.647,464.8,68.633,478.46,67.321Z"/><path d="M431.3,117.122c.562-1.142,1.169-2.262,1.807-3.363a135.519,135.519,0,0,1,9.942-14.315,83.761,83.761,0,0,1,17.528-16.85,64.352,64.352,0,0,0-15.371,11.689,78.649,78.649,0,0,0-12.863,20.245C431.975,115.383,431.624,116.247,431.3,117.122Z"/><path d="M454.052,102.747q-.721.427-1.436.863c-9.377,5.886-19.61,12.722-23.579,23.55,2.219-4.191,5.6-7.488,9.071-10.859q6.858-6.425,14.258-12.24C452.92,103.622,453.546,103.142,454.052,102.747Z"/><path d="M259.731,67.536c-1.144-.5-2.531-1.1-3.549-1.5q1.948,1.026,3.88,2.087,10.986,6.023,21.5,12.855c6.595,4.4,12.754,8.715,17.63,15.218C290.3,81.989,274.538,74.212,259.731,67.536Z"/><path d="M258.931,61.379q1.242.585,2.455,1.227c6.017,3.176,11.655,7,17.5,10.478,5.3,3.255,10.083,6.168,14.3,10.37-8.231-10.311-20.489-16.409-32.438-21.4C260.148,61.819,259.528,61.588,258.931,61.379Z"/><path d="M264.759,52.187a92.524,92.524,0,0,0-16.625-7.654c-.668-.209-1.529-.448-2.093-.567a36.465,36.465,0,0,1,3.6,1.542c5.315,2.6,10.308,5.805,15.339,8.909A81.271,81.271,0,0,1,278.03,63.9c.645.385,8.193,7.975,5.369,6.011,1.408,1.363.687-.147.138-.852A55.7,55.7,0,0,0,264.759,52.187Z"/><path d="M318.527,321.175a.5.5,0,0,0-.683-.114,15.491,15.491,0,0,1-10.12,2.61c3.245-3,4.228-5.6,3-7.914a.5.5,0,0,0-.422-.267.539.539,0,0,0-.442.231,23.973,23.973,0,0,1-16.939,10.733.5.5,0,0,0-.089.973,18.768,18.768,0,0,0,6.855.851L287.54,334.4a.5.5,0,0,0,.164.942,22.258,22.258,0,0,0,2.7.162,30.648,30.648,0,0,0,14.026-3.766c5.109-2.661,9.635-6.329,14.011-9.876A.5.5,0,0,0,318.527,321.175Z"/><path d="M375.329,320.638a.5.5,0,0,0-.87.46,18.729,18.729,0,0,0,2.167,4.523,27.009,27.009,0,0,0-7.15-2.634.5.5,0,0,0-.6.429,11.026,11.026,0,0,0,1.763,7.363c-3.544-1.1-7.012-3.305-12.387-6.823a.5.5,0,0,0-.738.6,22.393,22.393,0,0,0,20.433,13.83q.678,0,1.355-.045a.5.5,0,0,0,.313-.859,20.967,20.967,0,0,1-4.9-7.286,23.409,23.409,0,0,0,15.649,3.053.5.5,0,0,0,.173-.926C385.279,329.249,379.316,325.762,375.329,320.638Z"/><path d="M732.009,382.247H492.478c-.6-8.549-3.993-17.831-11.118-23.886-5.367-4.561-13.182-7.28-19.831-8.479a75.223,75.223,0,0,1-12.565-19.954,39.1,39.1,0,0,0-14.57-17.31l-.1-.12,17.245,3.334a.517.517,0,0,0,.095.009.5.5,0,0,0,.179-.967,93.341,93.341,0,0,1-28.571-17.339,6.6,6.6,0,0,1,4.328,1.267.5.5,0,0,0,.715-.678,44.839,44.839,0,0,0-14.918-14.015l8.861.429a.455.455,0,0,0,.485-.305.5.5,0,0,0-.121-.561,49.407,49.407,0,0,0-14.61-9.3,16.284,16.284,0,0,1,6.661.945,203.239,203.239,0,0,1,30.007,26.054c1.534,1.667,3.057,3.44,4.436,5.189-1.1-1.638-2.271-3.226-3.494-4.773-6.558-8.456-18.064-18.967-30.693-28a15.494,15.494,0,0,0-6.368-4.361q-1.021-.669-2.044-1.321a55.7,55.7,0,0,1,17.119-1.44c.209.145.417.293.626.437,1.724,1.225,3.718,2.692,5.267,3.819q-2.251-1.957-4.554-3.852c-.134-.109-.275-.218-.409-.327.284.025.569.04.852.07a.5.5,0,0,0,.516-.309c0-.008,0-.016,0-.025a327.155,327.155,0,0,1,29.226,19.311c1.754,1.3,3.542,2.67,5.218,4q-2.3-2.133-4.691-4.166a214.585,214.585,0,0,0-38.2-25.472,7.637,7.637,0,0,0,.962-.888c.565.149,1.135.287,1.7.44A254.816,254.816,0,0,1,463.25,276.7c1.9.966,3.892,2.039,5.685,3.053q-2.355-1.589-4.792-3.052c-12.971-7.707-28.642-14.039-44.855-18.6.007-.011.017-.022.024-.034a.47.47,0,0,0,.037-.152,20.766,20.766,0,0,1,12.925-4.063q8.193,3.387,16.081,7.263c2.178,1.116,4.423,2.341,6.473,3.569-1.722-1.222-3.5-2.372-5.3-3.468a124.645,124.645,0,0,0-12.79-6.728,17.465,17.465,0,0,1,4.237,1.71.5.5,0,0,0,.735-.549,21.371,21.371,0,0,0-3.02-6.886,25.568,25.568,0,0,0,20.1-2.578.5.5,0,0,0-.365-.917,15.992,15.992,0,0,1-15.858-5.935,9.651,9.651,0,0,0,7.068-.756.5.5,0,0,0-.152-.933,42.526,42.526,0,0,1-9.827-2.976l.008,0a34.669,34.669,0,0,0,6.1-3.664c.939-.655,1.91-1.334,2.889-1.946,3.591-2.247,6.815-3.088,9.574-2.5a.5.5,0,0,0,.524-.76,17.477,17.477,0,0,0-5.462-5.346l4.273.108a.525.525,0,0,0,.473-.3.5.5,0,0,0-.108-.551,30.966,30.966,0,0,1-6.755-10.107c3.747,1.63,7.991,1.714,11.778,1.789a.548.548,0,0,0,.442-.25.5.5,0,0,0,0-.508l-7.226-12a14.955,14.955,0,0,1,12.125,8.617.5.5,0,0,0,.956-.236c-.285-4.454-2.978-8.871-7.389-12.119q-.7-.516-1.431-.981a21.543,21.543,0,0,0-.285-3.76l6.594,5.555a.5.5,0,0,0,.787-.2c1.871-4.725,3.554-9.691,2.136-14.216a2.087,2.087,0,0,0,.253-.014,4.715,4.715,0,0,0,2.8-2c4.8-6.543,10.742-14.662,11.7-23.885a102.287,102.287,0,0,0,3.7-13.882.5.5,0,0,0-.129-.453.51.51,0,0,0-.449-.145,1.138,1.138,0,0,1-.976-.342,2.854,2.854,0,0,1-.584-1.148,12.263,12.263,0,0,1-.55-3.556c.08-.2.176-.4.266-.6,6.378-5.037,9.8-12.209,11.584-17.621,2.5-7.592,3.192-15.577,3.866-23.3.906-10.392,1.843-21.138-.437-31.653-.99-4.57-2.414-7.915-4.482-10.526A12.981,12.981,0,0,0,485.63,46.9c-3.347.17-6.341,1.94-8.746,3.363-23.646,13.982-50.324,29.8-68.7,53-1.593,1.2-3.207,2.378-4.858,3.485a30.166,30.166,0,0,1-8.283,4.241,12.234,12.234,0,0,1-8.438-.338l1.594-3.13a.5.5,0,0,0-.8-.581,7.375,7.375,0,0,1-6.05,1.7,25.709,25.709,0,0,1-4.981-1.233c-.546-.173-1.091-.347-1.638-.509a40.3,40.3,0,0,0-11.643-1.644,57.891,57.891,0,0,0-5.858.273l-.389.034a37.494,37.494,0,0,1-10.062-.04c-3.774-.712-6.81-2.643-8.331-5.3a.5.5,0,0,0-.886.461l2.246,4.788a20.456,20.456,0,0,1-11.931-3.119c-6.517-7.951-12.458-16.435-18.237-24.707-3.514-5.031-7.148-10.231-10.863-15.24-9.9-13.347-23.666-29.914-42.407-39.621-2.79-1.443-5.792-2.7-8.882-2.18-4.456.761-7.778,4.931-9.873,12.394-4.355,15.514-7.7,30.052-4.448,50.861A44.97,44.97,0,0,0,233,90.134c-.41,7.466,1.578,15.227,3.732,21.228l.154.426a16.669,16.669,0,0,1,1.142,4.326,5.038,5.038,0,0,1-1.438,4.208,3.1,3.1,0,0,1-2.253.717,2.276,2.276,0,0,1-1.591-.768.5.5,0,0,0-.8.6c1.773,2.568,1.258,5.785.713,9.192a38.711,38.711,0,0,0-.5,4.036c-.34,6.55,3.14,12.537,6.71,17.72a.485.485,0,0,0-.469.148.5.5,0,0,0-.014.618,10.192,10.192,0,0,1,1.534,9.01.5.5,0,0,0,.71.593l3.668-1.933a22.721,22.721,0,0,1-4.9,19.521.5.5,0,0,0,.63.76,15.843,15.843,0,0,1,13.8-.925,23.621,23.621,0,0,1-8.78,9.537.5.5,0,0,0,.077.894l2.035.791a23.17,23.17,0,0,1-9.684-3.237.5.5,0,0,0-.726.639,17.524,17.524,0,0,0,12.705,9.218,11.581,11.581,0,0,1-4.394,1.589.5.5,0,0,0-.149.945,18.306,18.306,0,0,0,8.486,1.831,15.355,15.355,0,0,1-12.7,4.672.507.507,0,0,0-.511.289.5.5,0,0,0,.115.577,13.564,13.564,0,0,0,4.968,2.907,22.508,22.508,0,0,1-7.983-1.207.5.5,0,0,0-.542.8,20.494,20.494,0,0,0,12.193,6.759,34.8,34.8,0,0,0,5.178.314,38.825,38.825,0,0,0-12.258,12.2,11.734,11.734,0,0,0-1.994,5.2c-1.078,2.133-2.364,5.254-1.717,8.411a.5.5,0,0,0,.424.4.494.494,0,0,0,.513-.271c2.944-5.829,4.544-7.921,10.929-8.511a17.656,17.656,0,0,1,9.712,1.558c.618.259,1.217.509,1.833.713a29.939,29.939,0,0,0-5.716,4.276,8.029,8.029,0,0,0-3.665,5.263.5.5,0,0,0,.648.56,16.178,16.178,0,0,1,9.072.032,31.363,31.363,0,0,1,3.887,1.33c-3.482.781-6.721,1.548-9.514,2.184-13.767,3.473-27.487,7.178-40.95,11.705-2.579.865-5.975,2.008-8.063,2.778q4.8-1.276,9.6-2.548c10.706-2.662,28.845-8.2,46.93-12.337-22.043,13.884-43.586,32.841-55.4,43.086-7.8,6.842-16.211,14.838-22.983,21.866,7.924-6.992,15.911-13.911,23.811-20.929,15.868-13.841,31.313-26.906,48.732-38.556,3.279-2.154,6.593-4.282,9.961-6.323.453.208.907.416,1.355.629a12.255,12.255,0,0,0-5.735,3.511.5.5,0,0,0-.08.56.514.514,0,0,0,.5.276l7.96-.752a15.084,15.084,0,0,0-3.283,7.284.5.5,0,0,0,.833.444,10.077,10.077,0,0,1,3.406-2.057,1.062,1.062,0,0,1,.258-.062,1.317,1.317,0,0,1-.109.223l-2.959,5.051a27.841,27.841,0,0,1-3.955,5c-1.659,1.779-3.108,3.344-3.709,5.439-1.12.756-2.426,1.633-3.313,2.254l3.213-1.843c-.025.107-.058.208-.078.317a.5.5,0,0,0,.865.421,24.009,24.009,0,0,1,3.258-3.022,12.087,12.087,0,0,0-.738,2.366,27.922,27.922,0,0,0-.131,7.6.492.492,0,0,0,.11.262c-6.074,4.752-12.06,9.616-17.889,14.668-1.6,1.388-3.7,3.193-4.993,4.364q2.655-1.993,5.309-3.987c7.154-5.325,13.891-10.557,20.676-15.759a10.259,10.259,0,0,1,6.044.557c-.3.334-.686.825-1.239,1.535-2.707,3.47-8.344,10.686-14.7,9.529a.5.5,0,0,0-.363.91,14.461,14.461,0,0,0,5.789,2.2,13.3,13.3,0,0,1-5.468,2.392c-.89.208-1.79.373-2.69.539A35.666,35.666,0,0,0,251.5,300.9a22.411,22.411,0,0,0-9.932,6.909,41.215,41.215,0,0,0-6.247,10.343.5.5,0,0,0,.8.567,45.38,45.38,0,0,1,10.391-7.307,35.562,35.562,0,0,0-3.971,10.353.5.5,0,0,0,.784.509,50.121,50.121,0,0,1,6.853-4.181,42.858,42.858,0,0,1-10.249,24.738.5.5,0,0,0,.364.828l5.614.143-6.692,7.223a.5.5,0,0,0,.337.838,10.93,10.93,0,0,0,4.918-.842c-.359.539-.7,1.1-1.044,1.678-7.583.481-18.564,3.171-25.676,8.762-6.714,5.279-10.462,13.13-11.833,20.787H11.009a.5.5,0,0,0-.5.5v24a.5.5,0,0,0,.5.5h200.2c.05.063.092.131.143.194,3.623,4.408,9.862,5.322,15.521,4.293a13.317,13.317,0,0,0,2.629,2.016,13.887,13.887,0,0,0,6.488,2.309,4.52,4.52,0,0,0,.979.007,7.8,7.8,0,0,0,4.82-1.208c.312-.209.624-.426.927-.654a31.485,31.485,0,0,0,3.149,1.065c5.327,2.348,8.992.594,13.495-2.772a22.059,22.059,0,0,0,3.306-3.016c1.569.961,4.762,1.655,7.476,1.938,1.768,2.023,3.571,2.423,4.639-.106a11.289,11.289,0,0,0,2.148-.668c.241-.087.681-.294.992-.445l-.154.078a12.208,12.208,0,0,0,4.53-3.031H423.853a10.937,10.937,0,0,0,1.136.332c.958,2.546,2.706,2.168,4.468.163,2.623-.249,5.719-.905,7.258-1.847a21.021,21.021,0,0,0,3.1,3.062c4.242,3.428,7.725,5.23,12.924,2.944a30.087,30.087,0,0,0,3.064-1.026c.287.232.581.453.875.666a7.216,7.216,0,0,0,4.61,1.27,4.191,4.191,0,0,0,.944,0,15.939,15.939,0,0,0,8.908-4.218c3.984.809,8.3.565,11.741-1.351H732.009a.5.5,0,0,0,.5-.5v-24A.5.5,0,0,0,732.009,382.247Zm-327.981-3.39c1.281,2.112,2.462,2.988,3.575,3.39H340.942a29.4,29.4,0,0,1-5.532-9.468.5.5,0,0,0-.956.042,32.238,32.238,0,0,1-4.6,9.426H297.775c2.434-4.584-1.255-11.276-3.74-14.891l10.117-15.846a.5.5,0,0,0-.793-.605,24.461,24.461,0,0,1-13.86,7.627c2.676-3.568,5.461-7.228,8.633-10.749a.5.5,0,0,0-.7-.711,93.461,93.461,0,0,1-15.264,10.833,41.336,41.336,0,0,0-19.816-3.695c-4.241-.636-10.942-1.386-14.971-1.558a29.466,29.466,0,0,1,6.818-8.746.5.5,0,0,0-.544-.828l-3.989,1.906a23.062,23.062,0,0,0,4.3-7.375.5.5,0,0,0-.825-.52,15.1,15.1,0,0,1-5.132,3.358,183.814,183.814,0,0,0,6.44-24.284,49.854,49.854,0,0,1,6.411-2.069.5.5,0,0,0,.191-.876,9.653,9.653,0,0,0-8.4-1.668l4.119-4.029a.5.5,0,0,0-.347-.858l-7.565-.041c3.716-2.186,8.141-3.1,12.436-3.987l1.46-.3c5.555-1.172,11.212-2.822,14.969-6.932a.5.5,0,0,0-.517-.815,17.222,17.222,0,0,1-7.924.517c7.026-11.165,16.641-11.125,18.875-10.486a.5.5,0,0,0,.413-.9,43.253,43.253,0,0,0-7.94-4.458,16.6,16.6,0,0,0-6.533-1.191q3.687-2.8,7.472-5.589a31.248,31.248,0,0,1,5.945,2.04c.628.263,1.256.527,1.884.776a35.12,35.12,0,0,0,8.414,2.246l.1.053c-6.293,9.288-12.255,18.8-17.706,28.608-.725,1.3-1.658,2.969-2.234,4.06q1.281-1.964,2.57-3.923c6.223-9.339,12.249-18.814,18.549-28.1l1.974,1.075-2.923,2.54a.5.5,0,0,0-.116.605.505.505,0,0,0,.56.258,15.326,15.326,0,0,1,9.436.8l-3.142,3.048a.5.5,0,0,0,.331.858,30.731,30.731,0,0,1,17.154,6.033,9.1,9.1,0,0,1-5.125,1.778.5.5,0,0,0-.1.987,38.071,38.071,0,0,0,11.752.848l-4.609,6.557a.5.5,0,0,0,.52.775,30.124,30.124,0,0,0,9.895-4.267,12.068,12.068,0,0,0,9.392,4.59c.28,0,.562-.011.842-.031a.5.5,0,0,0,.192-.943,6.255,6.255,0,0,1-2.471-2.336,19.777,19.777,0,0,0,17.192-.6.5.5,0,0,0,.242-.58.482.482,0,0,0-.514-.359,16.7,16.7,0,0,1-7.987-1.424c1.948-3.293,5.846-5,9.376-6.348l.267-.1a31.682,31.682,0,0,0,7.642-3.735,26.171,26.171,0,0,1,6.943.52c.681.131,1.367.274,2.056.416,4.212.872,8.57,1.776,12.7.458a.5.5,0,0,0-.037-.963,17.132,17.132,0,0,1-6.69-3.256c3.593.34,7.045-1.583,8.945-2.9,1.156-.8,2.263-1.7,3.334-2.563.822-.666,1.66-1.339,2.523-1.976.411.016.821.05,1.232.087q1.713,1.617,3.407,3.266A18.85,18.85,0,0,0,400,282.829a.5.5,0,0,0,.171.928,25.407,25.407,0,0,1,8.63,3.061q1.679,1.692,3.331,3.383l-5.468-.656a.488.488,0,0,0-.537.349.5.5,0,0,0,.247.59c8,4.155,14.26,10.8,20.246,17.37a6.256,6.256,0,0,0-4.317,1.5.5.5,0,0,0,.23.871l8.209,1.587c.187.085.375.153.562.243,6.474,3.72,9.549,12.511,10.987,19.233l.384,1.813c1.2,5.695,2.453,11.566,5.2,16.4-3.216.278-6.722.677-9.293,1.042-10.087-1.089-23.182,3.483-29.123,10.429C408.159,362.473,400.155,372.82,404.028,378.857ZM293.456,362.181l-1.114,2.914-.084-.1c-.293-.345-.617-.679-.945-1.011C292.049,363.4,292.77,362.8,293.456,362.181ZM262.985,239.014a19.959,19.959,0,0,1,7.112-2.121.5.5,0,0,0,.25-.9c-4.232-3.192-8.543-5.041-12.579-5.409.162-.049.328-.092.5-.137a4.7,4.7,0,0,0,2.351-1.18.5.5,0,0,0-.206-.836c-4.587-1.375-10.585-.412-14.944,2.27a19.524,19.524,0,0,1,2.652-3.762,22.093,22.093,0,0,1,9.7-4.359.5.5,0,0,0,.371-.7A5.576,5.576,0,0,0,256.815,220a10.892,10.892,0,0,1,4.265-1.572c.457.5.9,1.005,1.329,1.513a23.774,23.774,0,0,0,2.663,2.836c2.368,2.025,5.4,3.036,8.2,3.866l-2.779,2.5a.5.5,0,0,0,.334.872.535.535,0,0,0,.1-.011,22.677,22.677,0,0,1,8.865-.094,10.409,10.409,0,0,0,8.6-3.272.5.5,0,0,0-.559-.8,13.449,13.449,0,0,1-7.731.694,14.28,14.28,0,0,0,3.7-1.28,23.305,23.305,0,0,0,8.956-3.869,45.745,45.745,0,0,0,5.168-4.579c.684-.672,1.369-1.344,2.07-2,1.994-1.855,4.7-4.1,7.962-4.968a.5.5,0,0,0,.053-.949,10.135,10.135,0,0,0-4.813-.621,33.433,33.433,0,0,1,6.1-4.56,27.69,27.69,0,0,0,7.8-3.814c.095.007.191,0,.286.019a3.761,3.761,0,0,1,3.054,2.654,3.136,3.136,0,0,1-1.582,3.513.5.5,0,0,0-.274.578.48.48,0,0,0,.519.375l1.853-.126a12.732,12.732,0,0,1-5.386,5.158.5.5,0,0,0,.161.944,8.89,8.89,0,0,0,2.539-.039,20.422,20.422,0,0,1-3.342,2.55.5.5,0,0,0,.086.9,7.866,7.866,0,0,0,6.312-.811,5.664,5.664,0,0,0,1.382,3.834c.012.044.022.088.033.132a13.155,13.155,0,0,1,.26,6.956c-.088.629-.176,1.259-.239,1.889-.289,2.928.214,5.185,1.5,6.707a10.648,10.648,0,0,0,3,2.231c.321.183.641.367.954.56,1.585.98,2.458,2.055,2.6,3.195a6.008,6.008,0,0,1-.01,1.087,5.078,5.078,0,0,0,.087,1.73l.064.237c.391,1.458,1.181,4.361,5.6,5.978a6.6,6.6,0,0,1-.32,6.729c-1.407,2.159-3.949,3.791-7.556,4.852a30.1,30.1,0,0,1-14.6.581.505.505,0,0,0-.518.212.5.5,0,0,0,0,.56,8.075,8.075,0,0,0,4.812,3.059,22.606,22.606,0,0,0,5.557.442c4.328-.009,9.714-.02,14-2.569l.222-.134a3.83,3.83,0,0,1,1.365-.614,3.74,3.74,0,0,1,2.277.733l.5.287a68.2,68.2,0,0,0,11.927,5.791,26.292,26.292,0,0,0,8.275,1.434,18.7,18.7,0,0,0,5.558-.807.5.5,0,0,0-.112-.976c-9.5-.7-17.606-4.8-22.838-11.541a3.537,3.537,0,0,1-.264-3.341,11.849,11.849,0,0,1,1.92-3l.178-.226a14.451,14.451,0,0,0,1.516-2.27,11.347,11.347,0,0,0,4.594-6.328l.057-.241a4.089,4.089,0,0,1,.707-1.795,3.876,3.876,0,0,1,2.467-.874l.126-.017a13.576,13.576,0,0,0,5.658-1.873,7.4,7.4,0,0,0,3.444-4.944c.3-1.9-.288-3.985-1.784-6.369a20.318,20.318,0,0,0-4.365-5,.5.5,0,0,0-.793.532,28.8,28.8,0,0,0,1.121,2.954,23.754,23.754,0,0,1,1.237,3.407c.472,1.887.4,4.411-1.205,5.838a6.73,6.73,0,0,1-3.528,1.342c-.331.048-.664.087-1,.127a14.438,14.438,0,0,0-3.149.616c-2.289.811-3.419,1.983-3.182,3.3.819,4.529-.157,6.145-1.017,7.571-.072.119-.134.237-.2.354a4.826,4.826,0,0,1-.973.652,1.9,1.9,0,0,1-1.555.115c-.782-.347-1.1-1.389-1.319-2.462l-1.208-5.825a.5.5,0,0,0-.466-.4.5.5,0,0,0-.5.353l-1.953,6.374c-.257.842-.582,1.648-1.217,1.855a2.534,2.534,0,0,1-1.556-.249l-.021-.007c-2.447-2.619-3.042-5.03-1.929-7.654.111-.258.235-.512.358-.765a10.951,10.951,0,0,0,.568-1.308,3.19,3.19,0,0,0-.089-2.57,3.809,3.809,0,0,0-2.061-1.531,15.738,15.738,0,0,0-3.819-.957l-.22-.026a3.77,3.77,0,0,1-1.478-.361,2.84,2.84,0,0,1-1.112-1.964c-.552-2.974.863-5.976,2.489-9.045a7.4,7.4,0,0,1,3.8-3.084q.335-.157.648-.313a.5.5,0,0,0-.161-.944,9.532,9.532,0,0,0-6.2,1.362l-.234.149a2.955,2.955,0,0,1-1.218.56,1.715,1.715,0,0,1-1.464-.832,19.71,19.71,0,0,1,7.5-16.472.5.5,0,0,0-.5-.857,10.835,10.835,0,0,1-2.445.737l1.359-2.2a.5.5,0,0,0-.507-.756,9.9,9.9,0,0,0-3.513,1.3,11.394,11.394,0,0,1,1.58-5.979c.689-1.025,1.45-2.024,2.2-2.99a41.8,41.8,0,0,0,3-4.245c1.911-3.237,2.492-6.5,1.638-9.182a.5.5,0,0,0-.451-.348.477.477,0,0,0-.484.3l-2.029,4.636c-.743-2.29-.147-5.232,1.69-8.106.128-.2.277-.392.412-.589a37.967,37.967,0,0,1,8.2-5.932,13.292,13.292,0,0,0,2.262,7.034.5.5,0,0,0,.913-.308c-.147-2.61.612-5.41,2.391-8.814.563-1.076,1.188-2.15,1.791-3.188a51.469,51.469,0,0,0,2.764-5.2c.057-.13.105-.264.16-.4a18.464,18.464,0,0,0,6.035,8.621.5.5,0,0,0,.8-.506l-1.017-4.45c2.985,2.128,3.858,6.366,3.66,9.577a39.845,39.845,0,0,1-1.206,6.717,51.382,51.382,0,0,0-1.1,5.448,23.866,23.866,0,0,0,3.168,15.383l2.8,10.662c1.012,3.864,2.282,7.8,5.654,9.755a20.1,20.1,0,0,0,8.039,2.32h.035a.5.5,0,0,0,.366-.841,32.8,32.8,0,0,1-4.794-6.671c.659.459,1.341.883,2.017,1.294.394.24.787.479,1.174.725a38,38,0,0,1,9.432,8.82.5.5,0,0,0,.894-.336l-.208-3.517a22.909,22.909,0,0,1,6.013,7.738.5.5,0,0,0,.289.258.485.485,0,0,0,.386-.026,1.759,1.759,0,0,1,1.354-.058,3.082,3.082,0,0,1,1.711,1.514,8.959,8.959,0,0,1,.635,3.616l.028.65a26.986,26.986,0,0,0,1.551,7.645,119.737,119.737,0,0,0-13.476-2.638,73.486,73.486,0,0,0-13.254-.729c-.028-.006-.053-.018-.082-.023a1.409,1.409,0,0,0-.738.063c-.076,0-.153.006-.229.011-2.261.289-4.844.314-6.751,1.674a10.939,10.939,0,0,1,5.244-1.075.473.473,0,0,0,.232.679l2.093.956a.509.509,0,0,0,.208.045.5.5,0,0,0,.448-.723l.729.084a.5.5,0,0,0,.357-.9c-.06-.045-.127-.093-.191-.14,2.583.1,4.988.35,7.454.684-.009.013-.026.017-.033.031a.505.505,0,0,0-.06.179.5.5,0,0,0-.066.927,3.417,3.417,0,0,0,1.543.319.931.931,0,0,0,.722.49l.048,0a.5.5,0,0,0,.439-.263.489.489,0,0,0,.057-.3,1.3,1.3,0,0,0,.359-.1l.033-.006a.5.5,0,0,0,.383-.325.926.926,0,0,0,.17-.435l.149.023c2.429.4,4.84.857,7.24,1.352q0,2.555-.179,4.768a53.789,53.789,0,0,0-25.022-4.443c8.055-.167,17.153,2.62,24.1,5.359.269.116.532.245.8.364-.052.5-.111.988-.177,1.461q-2.542-.772-5.135-1.332l.224-1.191a.5.5,0,0,0-.854-.436,3.87,3.87,0,0,1-1.6-.888.5.5,0,0,0-.777.184l-.734,1.668a47.5,47.5,0,0,0-5.9-.474c1.945.236,3.828.577,5.671.99l-.109.248a.5.5,0,0,0,.2.631,1.9,1.9,0,0,0,2-.1,2.4,2.4,0,0,0,.255-.2c.144.038.291.072.434.111a1.809,1.809,0,0,1-.022.465.5.5,0,0,0,.4.581.582.582,0,0,0,.092.008.5.5,0,0,0,.49-.407l.068-.361q2.6.75,5.111,1.666c-.11.651-.234,1.272-.368,1.871a185.328,185.328,0,0,0-22.344-2.1c7.348.809,14.721,1.892,22.071,3.223a22.381,22.381,0,0,1-2.237,5.608q-2.152-.969-4.245-1.784l.057-.462a.5.5,0,0,0-.463-.56,7.379,7.379,0,0,1-.905-.118.508.508,0,0,0-.269-.125.5.5,0,0,0-.221.021c-.123-.028-.245-.058-.366-.087a9.968,9.968,0,0,0-1.345-.259,4.544,4.544,0,0,0-.964.019c-1.543-.479-3.048-.881-4.5-1.188a27.651,27.651,0,0,1,3.668,1.383,3.085,3.085,0,0,0-1.283.834.5.5,0,0,0-.055.59.509.509,0,0,0,.547.228,3,3,0,0,1,3.37,1.77.491.491,0,0,0,.57.311.5.5,0,0,0,.4-.513,4.355,4.355,0,0,1,.044-.845l.416,1.672a.5.5,0,0,0,.485.379h.031a.5.5,0,0,0,.466-.438l.207-1.674c1.221.583,2.477,1.2,3.735,1.835a12.93,12.93,0,0,1-3.941,3.824,86.672,86.672,0,0,0-14.147-9.086,1.953,1.953,0,0,0-.286-.684,1.132,1.132,0,0,0-.16-.583,1.01,1.01,0,0,0-.741-.447.5.5,0,0,0-.409.119,2.1,2.1,0,0,0-1.3.055.934.934,0,0,0-.307.07,44.117,44.117,0,0,0-7.479-2.432,50.5,50.5,0,0,1,7,2.869.928.928,0,0,0-.078.449,1.129,1.129,0,0,0,.586.911,2.085,2.085,0,0,0,1.325.1,1.014,1.014,0,0,1,.631.033.478.478,0,0,0,.364.094l.141.08a.5.5,0,0,0,.247.065c.011,0,.02-.008.03-.009a109.349,109.349,0,0,1,13.375,9.037,12.873,12.873,0,0,1-4.059,1.094.5.5,0,0,0-.064.984l.395.093a14.876,14.876,0,0,1-9.928.622.5.5,0,0,0-.56.212.5.5,0,0,0,.045.6,9.024,9.024,0,0,0,6.906,2.788q.3,0,.611-.016a26.452,26.452,0,0,0,7.714-1.959.5.5,0,0,0,.253-.2l1.1-1.757.074.771a.5.5,0,0,0,.4.442.491.491,0,0,0,.539-.253l.256-.476q1.586,1.305,3.17,2.67l-2.122,8.811-3.216-.561a2.267,2.267,0,0,0-1.907.29,1.408,1.408,0,0,0-.48,1.163,1.992,1.992,0,0,0,.675,1.377,57.609,57.609,0,0,0-12.5,3.653.5.5,0,0,0-.566.1,4.9,4.9,0,0,1-.372.322q-1.3.573-2.571,1.209a10.794,10.794,0,0,1-2.246.273c-.952.023-1.933-.056-2.882-.128a31.029,31.029,0,0,0-3.136-.128,30.317,30.317,0,0,0-8.978,2.1l-6.609,2.281a25.247,25.247,0,0,1-8.128,1.831c-4.215-.016-8.151-2.186-11.625-4.1a50.235,50.235,0,0,1-9.82-6.461c-.681-.622-1.345-1.3-1.987-1.953a27,27,0,0,0-4.058-3.613,13.884,13.884,0,0,0-6.6-2.286c1.535-2.217,3.083-4.425,4.665-6.609,1.2-1.615,2.36-3.224,3.524-4.82.357-.151.712-.306,1.06-.474a.5.5,0,0,0,.275-.544.485.485,0,0,0-.33-.352,114.247,114.247,0,0,1,7.507-9.376,1.662,1.662,0,0,0,.48-.015,1.171,1.171,0,0,0,.807-.609.891.891,0,0,0,.065-.644.534.534,0,0,0-.032-.117c1.166-1.209,2.37-2.394,3.669-3.522-1.359,1-2.654,2.078-3.906,3.2-.249-.174-.751-.287-1.706.135a44.081,44.081,0,0,0-11.074,3.892,84.386,84.386,0,0,0-7.591,4.128,4.76,4.76,0,0,1-3.4-2.011,4.455,4.455,0,0,0-.284-.364c-.107-.129-.2-.262-.3-.393.5-.287.988-.578,1.484-.865q1.768-1.029,3.542-2.05c.007.012.008.027.016.04a.5.5,0,0,0,.419.226.492.492,0,0,0,.235-.058l2.343-1.252a4.366,4.366,0,0,0,2.765-.754.5.5,0,0,0,.192-.569.511.511,0,0,0-.491-.343c-.216.007-.439,0-.66-.013,1.546-.857,3.1-1.7,4.667-2.52.752-.325,1.508-.71,2.272-1.086.056.021.12.037.176.058-.051-.024-.107-.043-.157-.067a12.16,12.16,0,0,1,5-1.565,13.1,13.1,0,0,0-5.562,1.323,32.206,32.206,0,0,0-10.5-2.346l2.391-2.238a.5.5,0,0,0,.121-.555.535.535,0,0,0-.475-.311,23.428,23.428,0,0,0-3.454.258.5.5,0,0,0-.347.239l-1.372,2.327c-.024.04-.015.087-.027.132-2.023-.038-4.113.028-6.238.166a26.313,26.313,0,0,1,.7-5.219c.142-.6.256-1.164.36-1.7,2.034-.639,4.12-1.3,6.237-1.876a.494.494,0,0,0,.142.342.5.5,0,0,0,.353.146.507.507,0,0,0,.278-.085l.316-.212a.5.5,0,0,0,.181.145.5.5,0,0,0,.434,0l1.057-.513a.5.5,0,0,0,.169.123.5.5,0,0,0,.481-.041.747.747,0,0,0,.337-.615.92.92,0,0,0-.038-.2,28.335,28.335,0,0,1,13.526-.05,31.019,31.019,0,0,0-14.091-.813,5.3,5.3,0,0,0-.5-.405A.5.5,0,0,0,301,232.9a6.276,6.276,0,0,0-1.041.781,61.181,61.181,0,0,0-7.025,1.808c.064-.388.124-.765.18-1.123a23.389,23.389,0,0,1,.856-3.99.5.5,0,0,0-.88-.453,27.768,27.768,0,0,0-3.523,6.722,112.525,112.525,0,0,0-13.047,5.862c-1.486-.471-2.931-.948-4.382-1.429A33.2,33.2,0,0,0,262.985,239.014Zm16.44-182.99A.5.5,0,0,0,279,56.8c3.225,4.776,7.979,8.228,12.576,11.567,1.121.814,2.24,1.626,3.335,2.455,4.353,3.3,10.192,8.391,11.811,15.188a19.984,19.984,0,0,0-7.266-2.523.5.5,0,0,0-.395.874,25.2,25.2,0,0,1,7.029,10.072l-4.5-3.084a.5.5,0,0,0-.669.73,35.508,35.508,0,0,1,6.628,31.854.494.494,0,0,0,.3.592c-.106.742-.2,1.485-.283,2.231a1.593,1.593,0,0,0-.432-.04,1.456,1.456,0,0,0-1.2.669.5.5,0,0,0-.038.449c.672,1.663,1.25,3.28,1.8,4.852l-5.43-1.644a.5.5,0,0,0-.589.71l.951,1.822-4.141-1.3a.5.5,0,0,0-.5.834,6.205,6.205,0,0,1,1.666,2.869,45.032,45.032,0,0,1-6.941-.714l-2.131-4.593a6.709,6.709,0,0,1-.764-2.359,1.947,1.947,0,0,1,.839-1.823,3.464,3.464,0,0,1,2.615.293l.124.044c1.617.58,2.86.449,3.594-.375a3.559,3.559,0,0,0,.656-1.338,2.023,2.023,0,0,1,.551-1.049c.386-.283.9-.156,1.694.088a4.747,4.747,0,0,0,1.791.3,2.991,2.991,0,0,0,2.421-2.111,7.849,7.849,0,0,0,.256-2.985,61.745,61.745,0,0,0-1.184-11.12,20.8,20.8,0,0,0-5.084-10.023.5.5,0,0,0-.786.607,25.759,25.759,0,0,1,3.64,11.378,5.958,5.958,0,0,1-.175,2.366,2.084,2.084,0,0,1-1.4,1.41,3.27,3.27,0,0,1-1.93-.442,27.313,27.313,0,0,1-7.413-5.107.5.5,0,0,0-.826.5,24.361,24.361,0,0,0,4.551,8.491l-6.366.5c-1.625.127-2.573.675-2.818,1.628-.325,1.267.858,2.25,1.5,2.778.468.389,1.173,1.187.852,1.715-.215.356-.748.408-1.536.448-.845.043-1.9.1-2.342,1.025a2.358,2.358,0,0,0-.048,1.571,2.9,2.9,0,0,1,.093.726,1.58,1.58,0,0,1-1.415,1.262,4.882,4.882,0,0,1-2.4-.474,59.436,59.436,0,0,1-6.261-3.072c-1.982-1.066-4.228-2.274-6.867-3.467a.5.5,0,0,0-.565.8,90.411,90.411,0,0,0,11.034,10.2,33.067,33.067,0,0,0,10.206,5.252,6.356,6.356,0,0,0,2.958,2.6,27.789,27.789,0,0,1-8.571,2.569.5.5,0,0,0-.174.936,16.164,16.164,0,0,0,3.825,1.473,8.125,8.125,0,0,1-1.2.765,43.809,43.809,0,0,1-11.2-2.58.5.5,0,0,0-.595.742l2.837,4.343a20.106,20.106,0,0,1-10.662-7.807.5.5,0,0,0-.879.465,32.951,32.951,0,0,0,6.169,9.968,30.457,30.457,0,0,1-12.943-8.446c-4.045-4.245-7.23-9.3-10.31-14.183a3.651,3.651,0,0,1-.057-5.154,11.381,11.381,0,0,0,.826-1.417c1.561-3.4-.576-7.183-2.3-10.236q-1.524-2.7-2.773-5.525c-7.17-24.871-2.878-50.358,2.493-68.351a11.8,11.8,0,0,1,4.525-6.68c2.517-1.621,5.764-1.384,8.044-.9,5.7,1.21,11.339,4.769,17.243,10.882,1.866,1.93,3.67,3.993,5.414,5.987a114.941,114.941,0,0,0,7.932,8.471Zm51.12,53.428a46.205,46.205,0,0,0,11.347,4.582l-4.529.095a.5.5,0,0,0-.318.877l4.855,4.237a37.716,37.716,0,0,1-23.028-1.791.5.5,0,0,0-.677.577l.586,2.473a13.785,13.785,0,0,1-6.228-9.667l.958-3.162a20.867,20.867,0,0,0,10.31,7.45.5.5,0,0,0,.582-.735l-5.1-8.386,10.386,2.91C329.973,109.1,330.256,109.277,330.545,109.452ZM345.02,151.4a.5.5,0,0,0,.649-.085c1.8-2.03,3.637-4.1,5.317-6.3a54.431,54.431,0,0,1-5.674,16.683,1.371,1.371,0,0,1-.093.147c0-.014-.007-.029-.011-.046l-.868-3.956a.5.5,0,0,0-.944-.1,36.133,36.133,0,0,1-2.629,4.8,7.063,7.063,0,0,0-2.1-6.066.5.5,0,0,0-.828.426,6.237,6.237,0,0,1-.685,3.489,25.369,25.369,0,0,0-6.787-5.981,22.311,22.311,0,0,0-3.166-5.142l7.58,3.594a.5.5,0,0,0,.713-.431,11.769,11.769,0,0,0-2.824-7.666,27.581,27.581,0,0,0-4.508-4.31c3.478.68,5.9,2.335,8.849,4.355.953.652,1.938,1.327,3.03,2.015a.5.5,0,0,0,.646-.1c1.574-1.826.367-4.03-.514-5.638-.135-.245-.266-.485-.383-.713a10.936,10.936,0,0,1,5.132,5.474,6.144,6.144,0,0,1-.075,4.919A.5.5,0,0,0,345.02,151.4Zm34.941-31.207c-1.572-1.149-2.142-3.21-2.6-4.868-.1-.354-.19-.683-.285-.981,6.046,2.4,9.628,1.75,21.209-.843-.273.322-.52.631-.754.922a9.145,9.145,0,0,1-5.311,3.735.5.5,0,0,0,.111.977l.823.061c3.791.289,7.4.563,11.343-.67-4.03,4.023-9.441,5.846-15.15,6.776-.724-.081-1.552-.143-2.449-.209-4.62-.342-10.834-.8-13.152-4.661a45.289,45.289,0,0,0,5.891.664.5.5,0,0,0,.325-.9Zm26.272,139.972a26.706,26.706,0,0,1-5.419-5.085q2.092.436,4.18.9c.408.4.835.779,1.274,1.146A8.944,8.944,0,0,0,406.233,260.164Zm-6.658-5.049,2.959,7.434a29.43,29.43,0,0,1-6.586-3.331.5.5,0,0,0-.634.766,9.041,9.041,0,0,1,1.784,2.587c-1.055-.569-2.105-1.11-3.15-1.635a15.892,15.892,0,0,0,2.079-6.819q1.767.342,3.532.7A.5.5,0,0,0,399.575,255.115Zm-1.653,12.074a9.161,9.161,0,0,1-2.325,5.28l-.685-.616a5.672,5.672,0,0,0-2.8-3.895.5.5,0,0,0-.72.324l-.1.4q-1.429-1.226-2.895-2.425l.332-.618.115.748a.5.5,0,0,0,.868.256,37,37,0,0,0,3.557-4.584q.772.411,1.52.818,1.49.822,2.956,1.667A8.92,8.92,0,0,1,397.922,267.189ZM278.634,243.167l-.2-.063a113.412,113.412,0,0,1,10.6-4.8c-.225.771-.426,1.551-.583,2.341l-.068-.425a.523.523,0,0,0-.509-.422.5.5,0,0,0-.482.45,30.107,30.107,0,0,0-.123,4.027c-2.866.31-5.76.732-8.62,1.221a13.131,13.131,0,0,1,.331-1.725A.5.5,0,0,0,278.634,243.167Zm32.774,3.108c-.885.368-1.751.75-2.578,1.068-1.86.824-3.69,1.711-5.507,2.623a6.907,6.907,0,0,0-3.307.308,2.035,2.035,0,0,0-1.208,1.948.4.4,0,0,0,.024.074q-2.177,1.168-4.332,2.372a17.834,17.834,0,0,1-2.895-9.568C299.519,244.4,306.434,244.61,311.408,246.275Zm5,4.919a5.015,5.015,0,0,0-.658.32.5.5,0,0,0,.467.884l.593-.288a2.241,2.241,0,0,1,1.077-.16,89.15,89.15,0,0,0-8.267,9.333l-6.882-.5,1.411-1.12a.5.5,0,0,0-.3-.891l-.864-.014c-.52-.007-1.041-.019-1.557-.039,2.284-1.424,4.6-2.789,6.979-4.057a57.577,57.577,0,0,1,8.634-3.776Zm.133.491-.542.262Zm-16.3,22.5c-.188.006-.374.029-.561.043a22.686,22.686,0,0,1-5.365-3.9,35.649,35.649,0,0,1-3.747-4.342q2.516-1.758,5.056-3.48l.785,1.57a.5.5,0,0,0,.357.269.514.514,0,0,0,.429-.124l.878-.809-.161.453a.5.5,0,0,0,.418.665,23.211,23.211,0,0,0,2.462.131,24.068,24.068,0,0,0,7.07-1.078c-2.063,2.741-4.048,5.537-6.027,8.294C301.3,272.639,300.771,273.41,300.24,274.18Zm-5.346-13.139.083.167-.09.059Zm-1.229,1.04q-1.986,1.347-3.939,2.744c-.975-1.385-1.893-2.811-2.785-4.235q2.073-1.218,4.153-2.428A30.145,30.145,0,0,0,293.665,262.081Zm108.576-9.4c-1.542-.665-3.1-1.3-4.664-1.882.014-.294.038-.589.035-.881q2.214,1.14,4.369,2.386C402.064,252.433,402.155,252.555,402.241,252.682Zm-4.931.384c.056-.279.089-.559.129-.839q1.777.739,3.538,1.515Q399.141,253.385,397.31,253.066Zm-1.241-.242.018.034-.018,0C396.069,252.844,396.07,252.835,396.069,252.824Zm3.976-7.949a.5.5,0,0,0-.935.322,19.811,19.811,0,0,0,1.642,4.9q-1.6-.873-3.235-1.678a13.1,13.1,0,0,0-2.344-6.335q2.937.636,5.844,1.363A27.479,27.479,0,0,0,404.93,250,12.629,12.629,0,0,1,400.045,244.875ZM262.776,208.853a9.444,9.444,0,0,1-2.5-2.55,4.368,4.368,0,0,1-.653-2.327,7.665,7.665,0,0,0,2.492,1.509.493.493,0,0,0,.535-.124.5.5,0,0,0,.1-.541,30.547,30.547,0,0,0-3.3-5.858,32.847,32.847,0,0,0,7.807,1.852,20.693,20.693,0,0,0,5.6,6.942,14.03,14.03,0,0,0,2.96,1.645,20.747,20.747,0,0,1-10.657-3.248c-.089-.059-.179-.119-.27-.177a.5.5,0,0,0-.551.834c.09.06.181.121.272.179a25.594,25.594,0,0,1,5.52,4.976,27.627,27.627,0,0,1-4.1-1.594c-.78-.351-1.56-.7-2.352-1.012-.116-.046-.245-.088-.367-.132C263.133,209.1,262.95,208.983,262.776,208.853Zm32.5,4.763a.5.5,0,0,0,.626-.029l1.2-1.061a10.593,10.593,0,0,1-9.626,6.722.5.5,0,0,0-.073.993l1.9.325a46.8,46.8,0,0,1-7.015,2.829,15.647,15.647,0,0,1-9.059-3.513,10.95,10.95,0,0,0,2.771-.634.5.5,0,0,0-.13-.967,4.331,4.331,0,0,1-2.729-1.338,16.592,16.592,0,0,0,8.034-2.605c.5-.206.993-.422,1.473-.669a7.868,7.868,0,0,1-1.572,1.8.5.5,0,0,0,.323.882.505.505,0,0,0,.1-.011c3.9-.815,7.067-3.375,10.133-5.853l.417-.337a44.373,44.373,0,0,1,3.572-2.649c1.371-.6,2.72-1.233,4.054-1.867-.15.166-.3.329-.448.5a27.959,27.959,0,0,0-4.119,6.869A.5.5,0,0,0,295.273,213.616Zm20.553-19.4a14.1,14.1,0,0,1-12.778,3.081,14.985,14.985,0,0,1-10.006-9.176,16.15,16.15,0,0,1,1.382-13.915,14.623,14.623,0,0,1,11.622-7.048c.1,0,.2,0,.3,0a12.717,12.717,0,0,1,10.417,5.015,22.425,22.425,0,0,1,2.7,4.912.609.609,0,0,0,.015.1l.344,1.372a15.472,15.472,0,0,1-1.519,12.685A18.259,18.259,0,0,0,315.826,194.211ZM289.1,195.963a11.713,11.713,0,0,1-4.856-8.492c.019,0,.038,0,.057,0a.5.5,0,0,0,.459-.353,14.9,14.9,0,0,0-.864-10.865l-.253-.5a5.484,5.484,0,0,1-.815-2.393,2.644,2.644,0,0,1,.205-.99,33.645,33.645,0,0,1,15.639-5.7,61.663,61.663,0,0,0-8.179,4.4,7.861,7.861,0,0,0-3.122,2.86,8.225,8.225,0,0,0-.5,4.352,37.784,37.784,0,0,0,1,7.286,19.282,19.282,0,0,0,11.549,12.7c.4.152.808.274,1.218.4C296.686,198.68,292.4,198.271,289.1,195.963Zm36.968-9.194c-.085.025-.164.061-.249.087-.036-.168-.074-.333-.111-.487a27.69,27.69,0,0,0-1.7-5.444c-.068-.145-.143-.3-.224-.45a32.043,32.043,0,0,0-1.93-5.651,18.737,18.737,0,0,0-6.015-7.55,6.132,6.132,0,0,1,1.64.2c6.073,1.531,9.937,10.072,10.034,15.522C327.547,185.085,327.009,186.5,326.07,186.769Zm-11.788-36.063a.5.5,0,0,0-.019.992,11.632,11.632,0,0,1,8.378,5.895L319.675,157a.492.492,0,0,0-.5.19.5.5,0,0,0-.045.53l1.108,2.143-4.959-.4a.5.5,0,0,0-.52.635l.718,2.526c-6.035-1.388-12.789-2.836-19.327-1.806a22.4,22.4,0,0,0-8.755,3.407,31.655,31.655,0,0,0-9.721,1.218A74.868,74.868,0,0,1,291.9,154.507l.568-.237c.353-.148.706-.3,1.057-.435A25.8,25.8,0,0,1,306.74,152.3a.5.5,0,0,0,.428-.847,11.01,11.01,0,0,0-4.569-2.744,30.4,30.4,0,0,1,17.3,2.051A24.662,24.662,0,0,0,314.282,150.706Zm101.885,21.559a.5.5,0,0,0-.336.923,29.179,29.179,0,0,1,7.258,6.132c-.534-.065-1.139-.111-1.759-.159a13.035,13.035,0,0,1-2.913-.4.5.5,0,0,0-.6.763,14.953,14.953,0,0,1,3.409,11.89,67.368,67.368,0,0,0-13.938-9.877,34.311,34.311,0,0,0-4.049-2.27,25.375,25.375,0,0,1,6.862.89.493.493,0,0,0,.534-.176.5.5,0,0,0,.031-.563c-2.859-4.73-11.183-7.515-17.316-7.188.51-.394,1.041-.827,1.562-1.252a25.682,25.682,0,0,1,3.113-2.315.5.5,0,0,0-.08-.91c-2.61-.9-5.93-.235-8.863.351l-.7.139c4.812-3.621,12.711-4.882,18.922-4.148a51.867,51.867,0,0,1,13.359,8.893Zm-41.509-24.19a.5.5,0,0,0,.637-.115,18.788,18.788,0,0,1,11.335-6.537l-4.783,11.334a.5.5,0,0,0,.686.641l4.169-2.1c-.313.428-.61.868-.906,1.309a.495.495,0,0,0-.954-.1,33.26,33.26,0,0,1-10,13.935,14.648,14.648,0,0,0-3.441-3.571c-.579-.478-1.179-.973-1.717-1.489a14.533,14.533,0,0,1-3.979-6.871,35.161,35.161,0,0,1,11.978-15.553l-3.238,8.509A.5.5,0,0,0,374.658,148.075Zm-3.078,54.668a25.289,25.289,0,0,1,.132-7.49,22.65,22.65,0,0,1,13.514-17.007,15.349,15.349,0,0,0-5.686,8.356,34.272,34.272,0,0,0-1.966,3.981c-.1.142-.2.28-.3.415a27.286,27.286,0,0,0-2.543,5.157,5.487,5.487,0,0,0-.561,2.451,5.386,5.386,0,0,0,1.844,3.176,46.551,46.551,0,0,0,6.8,6.208c.1.07.205.129.306.2a18.953,18.953,0,0,1-11.39-5.2C371.68,202.909,371.633,202.825,371.58,202.743Zm23.635,7.45h-.067c-.485,0-.97-.015-1.453-.039a14.27,14.27,0,0,1-11.79-20.952l.535-1.274a.611.611,0,0,0,.03-.1,24.586,24.586,0,0,1,2.541-3.492,34.5,34.5,0,0,1,12.258-4.559c.174.022.341.044.5.069a15.126,15.126,0,0,1,10.988,8.592,15.35,15.35,0,0,1-12.234,21.669c-.26.03-.521.048-.781.063C395.566,210.178,395.39,210.192,395.215,210.193Zm2.527,1.755a19.815,19.815,0,0,0,16.09-11.341,36.445,36.445,0,0,0,2.084-7.081c.057-.259.116-.533.171-.814a16.654,16.654,0,0,1,1.334,10.873c-.81.758-1.563,1.571-2.294,2.376-.775.855-1.578,1.739-2.433,2.517a18.135,18.135,0,0,1-15.771,4.176Zm23.467-15.68c.034-.163.068-.326.1-.49C421.277,195.942,421.243,196.105,421.209,196.268Zm-67.371-55.351c-.006-.024-.013-.048-.019-.073.022-.037.043-.075.065-.113C353.869,140.793,353.854,140.855,353.838,140.917Zm-82.882,39.05c.37.127.735.264,1.108.378C271.691,180.231,271.326,180.094,270.956,179.967Zm-9.477,33.527a.484.484,0,0,0-.293-.039A.484.484,0,0,1,261.479,213.494Zm156.052,33.472q-1.692-.566-3.392-1.116a14.706,14.706,0,0,1-7.552-8.783,18.252,18.252,0,0,1,5.638,3.842.5.5,0,0,0,.854-.345,34.833,34.833,0,0,0-1.109-10.674,16.864,16.864,0,0,0-2.25-4.684,19.085,19.085,0,0,1,3.617,1.917c4.23,2.925,6.806,7.653,9,12.055l-4.2-1.839a.5.5,0,0,0-.664.644,11.016,11.016,0,0,0,8.14,6.239,16.465,16.465,0,0,0,3.036.317A14.715,14.715,0,0,1,417.531,246.966ZM370.688,126.882l-.077.01-.028-.044ZM287.333,245.549a31.1,31.1,0,0,0,3.148,11.444c-1.416.82-2.839,1.629-4.247,2.463-.066-.107-.134-.215-.2-.322a.5.5,0,0,0-.909.142l-.254,1.006c-.347.207-.69.42-1.036.628a10.4,10.4,0,0,1-1.1-7.953.5.5,0,0,0-.67-.589,6.021,6.021,0,0,1-3.513.28,6.238,6.238,0,0,0,1.555-5,.5.5,0,0,0-.859-.273l-.708.748c-.027-.418-.028-.838-.016-1.259C281.538,246.344,284.486,245.9,287.333,245.549Zm198.252-117.13a31.774,31.774,0,0,0-3.108,4.754c-.394.552-.794,1.1-1.2,1.642a1.48,1.48,0,0,0-.225,1.328c-.479,1.1-.941,2.228-1.368,3.44-1.2,3.414-2.108,6.974-2.982,10.415-.537,2.116-1.091,4.305-1.711,6.432-1.164,4-2.8,8.51-6.074,11.571-5.146,4.8-12.883,4.932-18.465,4.191-2.5-.331-5.036-.854-7.485-1.361-2.072-.429-4.181-.863-6.313-1.191-2.558-1.638-5.167-3.264-7.819-4.76a75.755,75.755,0,0,0-9.571-4.6q1.23-.273,2.43-.633c3.666-.146,7.224-1.686,10.174-2.977l19.783-8.655a.5.5,0,0,0-.273-.953l-9.383,1.371c-1.445.212-2.942.355-3.968-.4a1.862,1.862,0,0,1-.6-1.858.9.9,0,0,1,.706-.754.5.5,0,0,0,.173-.924,4.8,4.8,0,0,0-3.7-.455l1-6.334a.5.5,0,0,0-.762-.5,15.4,15.4,0,0,1-4.263,2.132,4.831,4.831,0,0,1-4.259-.671,4.917,4.917,0,0,1-1.433-4.446,15.426,15.426,0,0,1,1.855-4.854.5.5,0,0,0-.809-.571,18.528,18.528,0,0,1-5.161,3.86,106.036,106.036,0,0,1,8.663-19.278.5.5,0,0,0-.785-.6,52.479,52.479,0,0,0-14.836,26.48.5.5,0,0,0,.726.546,1.373,1.373,0,0,1,1.55,2.248.5.5,0,0,0,.32.878l6.9.1a2.9,2.9,0,0,0-.405,1.022,3.517,3.517,0,0,0,1.248,3.464,5.38,5.38,0,0,0,4.166.725,19.1,19.1,0,0,1-7,4.93,8.589,8.589,0,0,1-6.366-.317l4.633-3.26a.5.5,0,0,0-.392-.9c-4,.845-8.585-1.98-10.217-6.3-1.42-3.762-.883-8.453,1.47-12.87,2.143-4.019,5.394-7.351,8.537-10.574a.5.5,0,0,0-.515-.824l-4.9,1.638,5.14-4.592a.5.5,0,0,0,.122-.579.488.488,0,0,0-.516-.29l-1.056.129a50.976,50.976,0,0,0,11.278-8.794.5.5,0,0,0-.536-.816L419.31,108.1c.624-3.192,2.666-6.058,4.818-9.078l.808-1.138a38.456,38.456,0,0,0,4.546-8,225.1,225.1,0,0,1,42.224-28.459A31.893,31.893,0,0,1,480.379,58a10.947,10.947,0,0,1,8.263,1.388c2.741,1.933,4.061,5.475,4.991,8.685A77.246,77.246,0,0,1,485.585,128.419ZM276.373,272.6a11.734,11.734,0,0,1,3.13-.361l.046,0q-3.462,2.589-6.9,5.207A12.58,12.58,0,0,1,276.373,272.6Zm131.857,7.754a19.3,19.3,0,0,0-3.582.591q-1.328-1.268-2.712-2.583A24.256,24.256,0,0,1,408.23,280.356ZM273.775,406.544a5.443,5.443,0,0,0-.382-1.344,3.676,3.676,0,0,0-1.837-2.333c-2.393-.8-2.514,2.248-2.6,3.9a15.16,15.16,0,0,1-4.1-.807c-1.457-.586-4.324-3.737-5.254-5.885a25.156,25.156,0,0,1-2.536-9.895c.009-1.854.281-4.732.027-4.411-.478.6-2.438,7.357-.825,14.79.069.319,1.811,7.235-2.322,9.685a18.648,18.648,0,0,1-1.655-1.044,26.908,26.908,0,0,0-2.356-1.913c-.939-.71-2.474-.367-2.431.9a6.669,6.669,0,0,0,1.942,2.864c-1.753-.221-2.441-1.282-3.284-2.714l-.048-.081c-.255-.447-.242-.416-.835-1.566a35.125,35.125,0,0,1-2.754-7.008,67.025,67.025,0,0,1-2.15-16.052.223.223,0,0,0-.438-.043,45.963,45.963,0,0,0-1.2,14.323,7.725,7.725,0,0,0,.269,2.108c.352,2.212,2.3,5,2.075,7.971a5.221,5.221,0,0,1-3.623,4c-.168-.156-.319-.309-.452-.45a12.119,12.119,0,0,0-3.157-2.764,1.334,1.334,0,0,0-1.776,1.879c.062.111.131.23.2.352a12.4,12.4,0,0,1-5.985-6.324c-.207-.581-.41-1.192-.611-1.845-.1-.334-.47-1.794-.5-1.9-.022-.089-.046-.185-.067-.271a55.384,55.384,0,0,1-1.321-9.126,26.937,26.937,0,0,1,0-4.6.186.186,0,0,0-.358-.08,26.618,26.618,0,0,0-1.333,6.109,30.885,30.885,0,0,0,.461,11.079,4.241,4.241,0,0,1-.167.407c-1.477,3.466-8.119,2.654-10.8-2.631a36.14,36.14,0,0,1-2.117-11.841c-.046-7.688,2.4-18.892,11.026-26.25a20.989,20.989,0,0,1,7.217-4.94,32.448,32.448,0,0,1,6.987-1.554c-4.614,2.91-5.969,9.935-5.969,9.935s4.044-5.054,6.106-6.491c4.066-2.834,7.4-5.138,16.045-4.984,2.461.206,6.5.795,6.011,1-4.4,1.631-5.478,2.751-6.975,4.142a9.226,9.226,0,0,0-2.919,4.59,28.633,28.633,0,0,1,9.284-5.51c4.39-1.5,10.383-2.646,15.531-1.832a40.1,40.1,0,0,1,13.643,4.736c.5.285,1.306.792,2.206,1.417,12.294,13.528,4.936,18.677,2.67,18.593-3.88.707-7.933-1.9-7.933-1.9s-2.159-1.247-1.877-.891c.294.509.576,1.027.866,1.608a24.357,24.357,0,0,1,2.008,13.232C282.4,402.927,277.287,405.639,273.775,406.544Zm201.888-5.178a4.124,4.124,0,0,1-.149-.41,32.239,32.239,0,0,0,.759-11.09,27.341,27.341,0,0,0-1.111-6.135.18.18,0,0,0-.348.075,28,28,0,0,1-.134,4.605,57.873,57.873,0,0,1-1.532,9.123c-.023.086-.048.182-.072.271-.031.109-.426,1.567-.535,1.9-.212.65-.425,1.261-.642,1.839a12.488,12.488,0,0,1-5.945,6.259c.074-.121.144-.239.206-.35a1.3,1.3,0,0,0-1.657-1.9,12.093,12.093,0,0,0-3.121,2.729c-.132.138-.282.29-.448.445a5.068,5.068,0,0,1-3.377-4.053c-.13-2.981,1.823-5.746,2.225-7.958a8.122,8.122,0,0,0,.32-2.107,47.621,47.621,0,0,0-.751-14.36.214.214,0,0,0-.422.037,70.108,70.108,0,0,1-2.528,16.05,36.55,36.55,0,0,1-2.853,6.985c-.6,1.145-.59,1.113-.848,1.557l-.049.081c-.853,1.424-1.546,2.478-3.241,2.677a6.834,6.834,0,0,0,1.951-2.844c.078-1.265-1.391-1.628-2.316-.929a26.9,26.9,0,0,0-2.325,1.887,18.107,18.107,0,0,1-1.624,1.025c-3.913-2.506-2.038-9.41-1.963-9.729,1.766-7.424.069-14.212-.374-14.823-.236-.324-.056,2.561-.1,4.418a26.27,26.27,0,0,1-2.724,9.879c-.957,2.14-3.809,5.26-5.23,5.828a14.3,14.3,0,0,1-3.975.758c-.036-1.66-.065-4.712-2.394-3.943a3.739,3.739,0,0,0-1.836,2.314,5.626,5.626,0,0,0-.406,1.341c-3.359-.95-8.2-3.73-8.947-11.8a25.437,25.437,0,0,1,2.311-13.227c.295-.578.582-1.094.88-1.6.282-.354-1.834.868-1.834.868s-3.979,2.558-7.7,1.8c-2.186.056-9.129-5.193,3.1-18.588.884-.615,1.678-1.112,2.165-1.392a38.256,38.256,0,0,1,13.281-4.573c4.983-.75,10.726.474,14.913,2.029a26.9,26.9,0,0,1,8.79,5.634,9.164,9.164,0,0,0-2.683-4.634c-1.4-1.411-2.406-2.546-6.6-4.234-.468-.209,3.444-.748,5.82-.924,8.335-.047,11.483,2.3,15.32,5.191,1.945,1.465,5.7,6.578,5.7,6.578s-1.106-7.053-5.47-10.025a29.994,29.994,0,0,1,6.689,1.643,19.8,19.8,0,0,1,6.813,5.038c8.1,7.477,10.143,18.729,9.88,26.428a37.814,37.814,0,0,1-2.376,11.832C483.411,404.126,476.988,404.856,475.663,401.366Z"/></svg>