<svg id="e7d3d902-a6b3-4fb4-b601-2d140b6a0de0" data-name="Layer 2" xmlns="http://www.w3.org/2000/svg" viewBox="0 0 736 518.698" style="fill: #215342;" height="265" width="290"><path d="M269.908,250.093a18.967,18.967,0,0,0-7.736-.712,1,1,0,0,0,.229-.455.943.943,0,0,0-.25-.819.47.47,0,0,0-.28-.158,21.172,21.172,0,0,0-13.277,2.245.465.465,0,0,0-.225.549.454.454,0,0,0,.5.325l1.177-.126a12.686,12.686,0,0,0-3.745,3.3.466.466,0,0,0,.615.678,7.286,7.286,0,0,1,4.135-1.047,17.318,17.318,0,0,1-12.052,6.145.466.466,0,0,0-.357.726,5.712,5.712,0,0,0,3.946,2.265,11.241,11.241,0,0,0,2.511.061,12.438,12.438,0,0,0-4.188,6.117.466.466,0,0,0,.728.506l1.359-1.033a16.29,16.29,0,0,0-1.113,6.242.466.466,0,0,0,.323.434.478.478,0,0,0,.143.022.465.465,0,0,0,.373-.187c4.116-5.509,8.779-10.957,14.97-13.5a.466.466,0,0,0-.03-.873l-1.85-.619,10.6-3.947a.466.466,0,0,0-.181-.9,16.9,16.9,0,0,1-6.237-.935,20.135,20.135,0,0,0,10.041-3.473.465.465,0,0,0-.127-.829Z"/><path d="M316.482,234.258a.466.466,0,0,0,.695-.572c-.312-.69-.643-1.37-1.071-2.229a36.44,36.44,0,0,0-4.323-6.7.466.466,0,0,0-.814.4l.444,1.849-6.054-1.107a.465.465,0,0,0-.42.78l4.572,4.791c.327.344.507.709.407.831-.054.064-.215.122-.691.043l-4.048-.671a.459.459,0,0,0-.531.354.467.467,0,0,0,.32.551,27.306,27.306,0,0,1,8.266,3.763,13.107,13.107,0,0,1,5.207,7.067.466.466,0,0,0,.45.347.486.486,0,0,0,.092-.009.467.467,0,0,0,.37-.521,26.256,26.256,0,0,0-3.049-9.093Z"/><path d="M330.989,248.259A.463.463,0,0,0,330.6,248a4.641,4.641,0,0,0-2.3.483,6.88,6.88,0,0,0,.155-3.076.462.462,0,0,0-.2-.3.469.469,0,0,0-.355-.07,4.268,4.268,0,0,0-1.336.521,23.255,23.255,0,0,0-.178-7.361.466.466,0,0,0-.907-.037,55.935,55.935,0,0,0-1.976,12.581.466.466,0,0,0,.414.482.475.475,0,0,0,.277-.055l-.288,2.9a.413.413,0,0,0,.007.14,6.088,6.088,0,0,1-.865,4.493l-.1.151a.466.466,0,0,0,.766.53c.037-.053.074-.107.11-.161l7.137-10.493A.465.465,0,0,0,330.989,248.259Z"/><path d="M289.556,220.448a25.882,25.882,0,0,0-4.443-2.343.466.466,0,0,0-.58.664l.793,1.379-.987-.611a.472.472,0,0,0-.514.017.465.465,0,0,0-.186.478,16.4,16.4,0,0,0,.532,1.906l-4.064-4.051a.466.466,0,0,0-.718.585,9.815,9.815,0,0,1,.982,7.682,22.448,22.448,0,0,1-3.133,6.666,14.142,14.142,0,0,0-1.964-2.686.466.466,0,0,0-.8.267,25.423,25.423,0,0,1-4.068,11.207.466.466,0,0,0,.742.56,35.9,35.9,0,0,1,4.712-4.318c.681-.553,1.362-1.107,2.024-1.678,2.034-1.753,4.5-4.18,5.523-7.483.233-.752.5-1.6,1.092-1.735a1.956,1.956,0,0,1,1.3.461l5.249,3.337a.466.466,0,0,0,.716-.4,9.6,9.6,0,0,0-1.74-5.407,11.916,11.916,0,0,1,4.784,4.022.465.465,0,0,0,.83-.4A14.218,14.218,0,0,0,289.556,220.448Z"/><path d="M277.669,216.453a.468.468,0,0,0-.108-.5l-4.869-4.786a9.769,9.769,0,0,1,6.951.77.467.467,0,0,0,.634-.622,14.067,14.067,0,0,0-8.511-6.7,33.974,33.974,0,0,0-8.414-1.372l4.9-1.738a.466.466,0,0,0-.077-.9c-3.683-.634-7.386-1.429-11.007-2.361a17.252,17.252,0,0,1-4.12-1.467,20.52,20.52,0,0,1-3.366-2.609l-.745-.65a.465.465,0,0,0-.731.164c-.981,2.222.569,4.57,2.042,6.149l.263.282c1.353,1.441,2.752,2.931,2.7,4.724a6.857,6.857,0,0,1-1.081,2.958c-.209.384-.417.768-.6,1.158-1.634,3.507-1.223,8.054,1.1,12.163,2.115,3.745,5.5,6.771,8.22,9.2a.465.465,0,0,0,.652-.663,13.426,13.426,0,0,1-3.356-6.859,18.722,18.722,0,0,0,6.811,4.076.466.466,0,0,0,.464-.784,20.233,20.233,0,0,1-3.163-3.709,6.22,6.22,0,0,1,1.275,1.245.465.465,0,0,0,.834-.321,3.916,3.916,0,0,0-1.338-2.275c-.129-.134-.256-.267-.376-.4-.476-.534-.931-1.507-.453-2a1.909,1.909,0,0,1,1.023-.389,92.444,92.444,0,0,1,14.034-1.491A.469.469,0,0,0,277.669,216.453Z"/><path d="M299.909,262.362a2.987,2.987,0,0,0,1.985.961l.1,0a3.933,3.933,0,0,0,2.472-1.148,12.329,12.329,0,0,0,4.046-7.251.465.465,0,0,0-.377-.535,4.774,4.774,0,0,1-3.924-4.942,1.475,1.475,0,0,1,.218-.809,1.148,1.148,0,0,1,1.2-.286,4.339,4.339,0,0,1,1.432.861.466.466,0,0,0,.7-.578l-.336-.652c-.179-.344-.326-.628-.382-.751a3.849,3.849,0,0,0-3.862-2.088,5.907,5.907,0,0,0-3.816,2.1,9.879,9.879,0,0,0-2.344,6.632,15.43,15.43,0,0,0,1.761,6.779A6.508,6.508,0,0,0,299.909,262.362Z"/><path d="M296.318,312.8a4.413,4.413,0,0,0-.952.467,2.184,2.184,0,0,1-1.591.442c-.148,0-.295-.008-.44,0-1.152.039-1.2.384-1.226.55a.377.377,0,0,0,0,.106l-.693,2.9a.466.466,0,0,0,.885.283c.112-.279.239-.552.377-.819a.467.467,0,0,0,.66-.02,7.232,7.232,0,0,1,3.273-2.365,1.43,1.43,0,0,0,.518-.205.789.789,0,0,0,.308-.937A.868.868,0,0,0,296.318,312.8Z"/><path d="M303.737,310.868a2.72,2.72,0,0,0-1.909.477,3.118,3.118,0,0,0-1.363,1.712.466.466,0,0,0,.181.526.459.459,0,0,0,.263.082.465.465,0,0,0,.292-.1l.739-.6a.467.467,0,0,0,.48.023,5.689,5.689,0,0,0,1.667-1.353.465.465,0,0,0,.054-.476A.5.5,0,0,0,303.737,310.868Z"/><path d="M312.188,309.691c-.226.172-.375.285-1.074.06a.464.464,0,0,0-.54.2l-.669,1.092a.466.466,0,0,0,.4.709.456.456,0,0,0,.184-.038l1.047-.449a.464.464,0,0,0,.52-.1l.753-.778a.466.466,0,0,0-.618-.694Z"/><path d="M303,320.255a4.765,4.765,0,0,1-1.7.293c-.156.009-.31.017-.464.029a2.921,2.921,0,0,0-2.513,1.338.478.478,0,0,0-.065.233l-.016,1.482a.466.466,0,0,0,.345.455.457.457,0,0,0,.121.016.468.468,0,0,0,.406-.237l.161-.286a.892.892,0,0,0,.844.225,1.2,1.2,0,0,0,.7-.744,4.941,4.941,0,0,1,2.571-1.958.465.465,0,0,0-.388-.846Z"/><path d="M299.852,302.151c-.274.064-.547.133-.819.2a10.209,10.209,0,0,1-3.167.468.46.46,0,0,0-.352.115,12.827,12.827,0,0,0-2.034,2.292.466.466,0,0,0,.028.566.472.472,0,0,0,.415.161.466.466,0,0,0,.462.522.468.468,0,0,0,.3-.112c.46-.393.941-.766,1.436-1.115a.479.479,0,0,0,.2.192.467.467,0,0,0,.52-.07,6.505,6.505,0,0,1,2.7-1.708,1.433,1.433,0,0,0,.6-.242.8.8,0,0,0,.195-1.1A.466.466,0,0,0,299.852,302.151Z"/><path d="M324.67,289.573q.391.038.779.037a17.486,17.486,0,0,0,4.038-.635c.83-.2,1.689-.4,2.531-.518a26.074,26.074,0,0,1,6.353.2l.568.064a1.415,1.415,0,0,0,.737-.069.793.793,0,0,0,.449-1.018.907.907,0,0,0-.371-.4,10.622,10.622,0,0,0-6.292-1.36c-.743.026-1.486.084-2.229.143a26.838,26.838,0,0,1-3.968.119,1.673,1.673,0,0,1-.951-.26,1.255,1.255,0,0,1-.349-.874,4.469,4.469,0,0,1,.6-2.205.466.466,0,0,0-.686-.595,8.442,8.442,0,0,0-3.169,4.735,2.263,2.263,0,0,0,.092,1.664A2.212,2.212,0,0,0,324.67,289.573Z"/><path d="M325.075,269.241a.466.466,0,0,0,.527.769l4.335-2.817-.62,1.056a.465.465,0,0,0,.715.58,65.2,65.2,0,0,0,6.446-6.8c2.925,1.9,5.952,3.713,9.006,5.386a.466.466,0,0,0,.57-.72,17.327,17.327,0,0,1-2.558-3.737l.847.608a.467.467,0,0,0,.686-.594A13.533,13.533,0,0,0,342,259.4l-.218-.2A15.955,15.955,0,0,1,339,256.165a13.785,13.785,0,0,1-.9-1.786c-.356-.8-.571-1.288-.928-1.47a.466.466,0,0,0-.657.281A30.966,30.966,0,0,1,325.075,269.241Z"/><path d="M355.409,264.012c1.163.991,3.613,1.965,6.209,3,.747.3,1.51.6,2.232.9a8.833,8.833,0,0,0,1.349.583.466.466,0,0,0,.34-.866c-.407-.186-.841-.373-1.289-.561a9.677,9.677,0,0,1-3.457-3.275,15.192,15.192,0,0,1-2.115-5.878,10.377,10.377,0,0,1,1.333-7.406c2.885-5.357,9.568-7.387,11.884-7.3,2.564.072,11.079.906,12.982,8.65,1.529,6.231-1.11,9.408-3.663,12.48-.375.452-.747.9-1.1,1.348a.466.466,0,0,0,.561.711,13.284,13.284,0,0,0,7.182-8.006,16.136,16.136,0,0,0-.981-12.175l2.157.21a.46.46,0,0,0,.441-.216.467.467,0,0,0,0-.491,7.186,7.186,0,0,0-1.365-1.622l3.235.053a.478.478,0,0,0,.473-.44.464.464,0,0,0-.42-.489,37.041,37.041,0,0,1-9.726-2.725l-.443-.17a44.335,44.335,0,0,0-9.445-2.852c-3.451-.5-6.346,1.154-9.509,3.2a14.926,14.926,0,0,0-5.541,7.494h0a27.716,27.716,0,0,0-1.48,15.6A.473.473,0,0,0,355.409,264.012Z"/><path d="M376.524,252.8a.466.466,0,0,0-.782.506l.054.09a.958.958,0,0,1-.195,1.037,1.425,1.425,0,0,1-1.286.331,2.545,2.545,0,0,1-1.3-.807,3.9,3.9,0,0,1-.344-4.648c.265-.393.7-.738,1.045-.643a.47.47,0,0,0,.566-.3.465.465,0,0,0-.263-.582,3.575,3.575,0,0,0-3.316-.024,7.091,7.091,0,0,0-3.457,6.568,13.552,13.552,0,0,0,2.619,6.992,3.673,3.673,0,0,0,2.244,1.825,2.344,2.344,0,0,0,.385.032,3.475,3.475,0,0,0,1.877-.654,7.142,7.142,0,0,0,2.242-9.585A1.551,1.551,0,0,0,376.524,252.8Z"/><path d="M399.358,226.154a.462.462,0,0,0,.513-.278,34.946,34.946,0,0,1,2.228-4.408l-.217,1.052a.466.466,0,0,0,.84.36l.257-.372-.294,2.077a.466.466,0,0,0,.821.361,27.356,27.356,0,0,1,6.456-5.82,38.753,38.753,0,0,0,7.407,8.847.466.466,0,0,0,.759-.471l-.406-1.492a15.716,15.716,0,0,0,10.091,5.793.4.4,0,0,0,.06,0,.465.465,0,0,0,.307-.816,20.143,20.143,0,0,1-6.8-13.862.466.466,0,0,0-.915-.094l-1.165,4.273a7.681,7.681,0,0,1-.858-3.338.466.466,0,0,0-.883-.2,11.218,11.218,0,0,1-2.464,3.252,6.84,6.84,0,0,1-2.657-8.232.465.465,0,0,0-.525-.642,9.614,9.614,0,0,0-3.391,1.455,9.345,9.345,0,0,0,.819-2.122.465.465,0,0,0-.625-.525,15.657,15.657,0,0,0-9.739,14.755A.466.466,0,0,0,399.358,226.154Z"/><path d="M360.2,312.4l.012-.006a5.852,5.852,0,0,0,1.223.553.78.78,0,0,0,.273.159.675.675,0,0,0,.2.033.627.627,0,0,0,.433-.173.466.466,0,0,0-.216-.794l-.078-.018v-.012a1.112,1.112,0,0,0-.182-.622,1.133,1.133,0,0,0-.751-.4l-.59-.114a.475.475,0,0,0-.154-.062.425.425,0,0,0-.174,0l-2.456-.477a.465.465,0,0,0-.39.812C357.918,311.749,359.316,312.809,360.2,312.4Z"/><path d="M352.443,309.145a4.341,4.341,0,0,0-3.734.283.466.466,0,0,0,.075.841,5.325,5.325,0,0,0,2.945.193,1.165,1.165,0,0,0,.779-.254.464.464,0,0,0,.186-.431.465.465,0,0,0-.251-.632Z"/><path d="M367.432,304.27l.467.145a5.248,5.248,0,0,1,1.15.583.467.467,0,0,0,.1.531,6.724,6.724,0,0,0,2.4,1.491c.119.047.234.081.331.109a.461.461,0,0,0,.131.019.466.466,0,0,0,.134-.912c-.06-.018-.12-.037-.179-.057a.691.691,0,0,1-.278-.166l.021,0,1.843.344c.159.273.342.486.619.486h.009a.518.518,0,0,0,.435-.281.848.848,0,0,0-.164-.815,1.954,1.954,0,0,0-1.034-.6l-5.223-1.619c-.167-.059-.335-.112-.506-.156a.466.466,0,0,0-.257.895Z"/><path d="M355.815,317.362a3.719,3.719,0,0,0,1.383.284,2.756,2.756,0,0,0,.905-.147.466.466,0,0,0-.125-.905,8.52,8.52,0,0,1-2.149-.813.469.469,0,0,0-.569.161h0l-.739-.449a.466.466,0,0,0-.515.775A8.811,8.811,0,0,0,355.815,317.362Z"/><path d="M430.712,342.492a.466.466,0,0,0-.832.275l-.105,3.832a27.217,27.217,0,0,1-4.68-5.394.466.466,0,0,0-.822.414,20.428,20.428,0,0,0,11.712,12.544.466.466,0,0,0,.528-.735l-2.5-2.947a34.537,34.537,0,0,0,12.475,4.13l.059,0a.465.465,0,0,0,.354-.769,32.52,32.52,0,0,1-7.729-19.42.466.466,0,0,0-.872-.2,16.949,16.949,0,0,0-.673,14.842A32.833,32.833,0,0,1,430.712,342.492Z"/><path d="M273.438,202.627a9.782,9.782,0,0,0,1.272-.211,12.624,12.624,0,0,1,4.35.891,14.527,14.527,0,0,0,4.354.933,5.712,5.712,0,0,0,1.913-.314,9.628,9.628,0,0,0,1.225-.559,4.279,4.279,0,0,1,3.851-.436c.26.056.52.112.78.158a2.348,2.348,0,0,0,1.612-.155,1.931,1.931,0,0,0,.77-2.165,3.8,3.8,0,0,0-.709-1.329,3.333,3.333,0,0,1,3.51.47.465.465,0,0,0,.764-.257,8.659,8.659,0,0,0-.778-5.141c-.375-.86-.824-1.689-1.26-2.491-.348-.642-.708-1.3-1.02-1.971a3.2,3.2,0,0,1-.406-2.249,1.177,1.177,0,0,1,.8-.714.593.593,0,0,1,.566.105.466.466,0,0,0,.713-.588l-2.117-3.405.769.625a.463.463,0,0,0,.551.028.468.468,0,0,0,.191-.518,36.493,36.493,0,0,0-5.743-11.614.466.466,0,0,0-.791.486,39.939,39.939,0,0,1,3.062,7.214l-10.129-1.772a.466.466,0,0,0-.271.884,17.49,17.49,0,0,1,7.8,6.943l-1.236-1.078a.465.465,0,0,0-.7.6,18.012,18.012,0,0,1,2.68,11.148,1.423,1.423,0,0,1-.26.853c-.283.278-.86.17-1.418.067l-.155-.029c-2.715-.493-5.4.667-7.667,1.868l-.847.454a21.073,21.073,0,0,1-4.893,2.134,5.767,5.767,0,0,0-1.306.225.468.468,0,0,0-.326.536A.46.46,0,0,0,273.438,202.627Z"/><path d="M388.579,194.181a10.335,10.335,0,0,0,2.406-2.818.466.466,0,0,0-.4-.7,9.642,9.642,0,0,0-4.031.884l1.3-4.352a.466.466,0,0,0-.753-.484l-1.3,1.141a12.791,12.791,0,0,1,.719-5.191.466.466,0,0,0-.72-.529l-.384.291a50.02,50.02,0,0,1,2.61-5.891c.71-1.439,1.445-2.927,2.147-4.555a.466.466,0,0,0-.731-.538,30.767,30.767,0,0,0-10.215,17.76.467.467,0,0,0,.846.345l1.209-1.795a43.259,43.259,0,0,0-.984,5.025.465.465,0,0,0,.807.374,13.361,13.361,0,0,0,1.183-1.518l-.717,4.794a1.665,1.665,0,0,0,.277,1.415,1.693,1.693,0,0,0,1.643.274,19.955,19.955,0,0,1,9.158.148,4.662,4.662,0,0,0-1.611,4.53.465.465,0,0,0,.691.3,17.318,17.318,0,0,1,11.945-2.074.466.466,0,0,0,.385-.816A26.6,26.6,0,0,0,388.579,194.181Z"/><path d="M710.487,373.843H467.644a29.574,29.574,0,0,0-1.052-2.809c.115.055.224.116.34.17a.458.458,0,0,0,.2.044.466.466,0,0,0,.241-.865c-.549-.331-1.078-.68-1.592-1.04a16.561,16.561,0,0,0-1.489-2.337,21.955,21.955,0,0,0-6.18-5.449,44.575,44.575,0,0,1-5.467-10.828c-2.675-7.652-3.618-15.84-4.464-23.8l4.5,3.055a.466.466,0,0,0,.712-.509A14.561,14.561,0,0,0,450.4,323.9c7.123,2.3,14.2,4.688,21.223,7.039,6.285,2.123,12.582,4.211,18.862,6.351q-9.019-3.853-18.224-7.25c-6.546-2.258-13.634-4.712-21.047-7.136.466.047.933.089,1.4.1a.486.486,0,0,0,.446-.3.464.464,0,0,0-.137-.522,57.628,57.628,0,0,0-10-7.2,24.859,24.859,0,0,0-4.009-1.668l.065-.024c.18-.066.374-.13.561-.195,17.546,5.5,34.608,12.529,51.155,19.7,7.29,3.145,14.6,6.235,21.882,9.407q-10.556-5.585-21.452-10.491c-16.136-7.067-32.561-13.867-49.379-19.281a11.912,11.912,0,0,1,6.884-.045.466.466,0,0,0,.506-.746l-.807-.927a10.816,10.816,0,0,1,3.738,2.135.465.465,0,0,0,.771-.38,8.474,8.474,0,0,0-1.221-3.836c6.64.947,13.25,2.149,19.8,3.54,7,1.509,13.982,3.171,20.806,5.361a135.994,135.994,0,0,0-17.883-5.811,222.965,222.965,0,0,0-23.765-4.458,8.331,8.331,0,0,0-1.278-1.131,4.7,4.7,0,0,0,.515-1.127,10.841,10.841,0,0,0-.122-5.1l-1.7-9.054a12.4,12.4,0,0,0,6.552,1.019.466.466,0,0,0,.267-.8l-4.332-4.162,3.327.872a.466.466,0,0,0,.566-.579c-.537-1.859-.167-3.789.226-5.833.145-.753.294-1.531.393-2.3a18.166,18.166,0,0,0-4.027-13.681l2.692.8a.466.466,0,0,0,.562-.627,95.722,95.722,0,0,0-6.979-14.327c-.336-.53-.682-1.037-1.03-1.539a30.692,30.692,0,0,1,3.276,1.6.47.47,0,0,0,.231.061.466.466,0,0,0,.365-.756c-3.942-4.967-7.9-8.42-12-10.453a19.5,19.5,0,0,1,11.209,3.043.465.465,0,0,0,.707-.5,9.689,9.689,0,0,0-.6-1.723,30.842,30.842,0,0,1,4.144,4.991.466.466,0,0,0,.834-.39,33.137,33.137,0,0,0-10.37-15.872l2.948.062a.5.5,0,0,0,.444-.3.468.468,0,0,0-.126-.519,9.671,9.671,0,0,0-1.977-1.338,7.273,7.273,0,0,1,.925.183.468.468,0,0,0,.5-.19.463.463,0,0,0-.012-.539,7.7,7.7,0,0,0-6.81-2.93,21.614,21.614,0,0,0,1.233-4.515c.238-1.419.383-2.87.524-4.274a39.489,39.489,0,0,1,1.088-6.805c.34-1.2.809-2.409,1.262-3.575a16.492,16.492,0,0,0,1.634-10.327l-.018-.176,2.868.694c1.83.446,3.808.941,5.554,1.375q-2.154-.732-4.319-1.431c-1-.314-2.433-.765-4.173-1.3-.06-.568-.111-1.139-.123-1.7-.027-1.311.175-3.706,1.831-5.023a.462.462,0,0,0,.164-.26,28.088,28.088,0,0,0,.8-4.927c.084-.3.183-.586.262-.883.159-.592.3-1.189.438-1.785q1.406.41,2.814.846c5.762,1.755,11.462,3.726,17.031,6.023a125.391,125.391,0,0,0-12.1-5.4q-3.693-1.419-7.492-2.618a86.859,86.859,0,0,0,1.28-23.45q3.115.061,6.232.121c1.329.028,2.848.072,4.065.1q-2.3-.248-4.6-.465c-1.673-.129-3.612-.289-5.743-.455-.254-3.764-.638-7.438-1.043-10.945-.227-1.957-.469-3.818-.807-5.607A29.605,29.605,0,0,1,454.113,125a76.249,76.249,0,0,1,7.459-6.715c.664-.523,2.1-1.589,2.985-2.133q-.926.433-1.829.914a35.017,35.017,0,0,0-13.464,12.257,13.665,13.665,0,0,0-1.849,3.57c-.242-.693-.5-1.379-.815-2.051a16.992,16.992,0,0,0-3.018-4.488,4.276,4.276,0,0,1,.852-2.469,25.978,25.978,0,0,1,4.306-4.092,20.6,20.6,0,0,1,6.049-1.885,21.275,21.275,0,0,1,2.3-.177c-.608-.059-1.219-.088-1.83-.094a21.045,21.045,0,0,0-11.053,3.316c-1.234.708-2.447,1.538-3.686,2.25a14.515,14.515,0,0,1,3.633-3.295,50.844,50.844,0,0,1,6.779-3.869,26.122,26.122,0,0,1,2.709-.726c-.491.026-.973.087-1.456.147.035-.015.069-.033.1-.048-.067.018-.132.039-.2.057-4.674.6-8.986,2.678-13.108,4.905-1.31.607-2.61,1.317-3.943,1.9a13.721,13.721,0,0,0-1.645-.259q2.572-2.094,5.164-4.164c.546-.39,1.614-1.243,2.788-2.033a44.883,44.883,0,0,1,7.375-2.917,33.028,33.028,0,0,0-9.947,3.117c2.69-2.171,5.278-4.471,7.76-6.853,4.155-3.61,8.083-7.5,12.13-11.215.288-.275.67-.641.843-.818q-1.469,1.206-2.956,2.389c-7.067,5.5-10.31,8.156-17.021,13.087-4.112,2.971-8.481,5.579-12.522,8.562,4.7-4.275,9.45-8.492,14.32-12.56.65-.5,1.3-1,1.951-1.489,1.092-.8,2.468-1.756,3.436-2.418q-1.321.741-2.617,1.525c-14.35,8.952-29.864,20.521-40.472,34.4a236.222,236.222,0,0,0-25.884,32.388.444.444,0,0,0-.145.041,44.149,44.149,0,0,0-13.119,9.83,3.421,3.421,0,0,1,.817-2.406.466.466,0,0,0-.574-.717l-5.772,3.167a6.222,6.222,0,0,0-.293-4.26,15.86,15.86,0,0,0-3.365-4.523.466.466,0,0,0-.779.47,6.5,6.5,0,0,1-8.062,8.282,7.034,7.034,0,0,0,.988-4.527.465.465,0,0,0-.61-.384,10.554,10.554,0,0,0-6.147,5.533l-.083.184c-.256.571-.521,1.163-.989,1.358-.765.323-1.663-.537-2.276-1.315a.466.466,0,0,0-.824.2l-.082.444a9.626,9.626,0,0,0-2.074-2.031.467.467,0,0,0-.737.343,10.956,10.956,0,0,1-1.687,5.037,51.723,51.723,0,0,0-1.064-7.678.46.46,0,0,0-.512-.363.467.467,0,0,0-.409.476,9.758,9.758,0,0,1-1.862,5.973,10.768,10.768,0,0,1-5.669-9.922.466.466,0,0,0-.3-.463.471.471,0,0,0-.532.152,64.367,64.367,0,0,1-4.678,5.4l-.186-2.845a.464.464,0,0,0-.667-.389,4.292,4.292,0,0,0-1.839,2.454c-.078.184-.156.368-.237.545-.359.783-1.215,1.744-2,1.424a2.429,2.429,0,0,1-.963-1.168,27.607,27.607,0,0,0-8.458-9.309c-1.421-1.736-2.879-3.4-4.289-5.016-11.3-12.912-22.931-26.208-36.626-37.046-7.332-8.053-12.845-14.932-26.264-20.11-.652-.276-1.55-.647-2.054-.841q1.128.567,2.242,1.157a69.947,69.947,0,0,1,9.029,5.544,51.48,51.48,0,0,1,6.034,5.88c.447.483.885.978,1.323,1.474-4.925-2.666-10.626-4.012-15.479-6.251-.788-.346-1.691-.772-2.4-1.106q1.276.805,2.578,1.574a43.065,43.065,0,0,0,5.3,2.717c1.376.838,2.741,1.7,4.13,2.518-1.628-.365-3.276-.658-4.85-1.024a49.973,49.973,0,0,1-13.96-5.549c-.758-.4-1.683-.945-2.322-1.31q1.222.922,2.479,1.8a58.317,58.317,0,0,0,5.482,3.477c.4.3.812.582,1.229.861-2.778-1.084-5.444-2.23-6.727-2.753-4.8-2.057-9.76-4.261-15.053-4.09-.6-.037-1.2-.049-1.808-.032-1.373.033-3.172.21-4.3.363,1.373.007,2.747.026,4.117.121,2.525.2,11.48,1.709,27.046,12.758.239.187-15.84-8.638-22.962-8.263.852.131,16.109,4.184,17.767,12.883.141.36.253.744.365,1.127-.016-.008-.033-.009-.05-.018A4.569,4.569,0,0,1,231.3,132c-.309-.3-.633-.576-.954-.858a17.987,17.987,0,0,0-3.976-3.508,16.637,16.637,0,0,0-3.035-2.208c-.552-.337-1.379-.891-1.764-1.121,1.256,1.169,2.427,2.43,3.568,3.712,2.84,3.369,4.1,6.636,4.843,11.568a33.022,33.022,0,0,1,.262,5.439c-.021.491-.063.954-.121,1.39-.027.205-.052.414-.089.6.024-.068.042-.136.065-.2a86.581,86.581,0,0,0,.26,13.371c-1.779.46-3.453.934-4.974,1.4-1.657.507-3.646,1.16-5.085,1.694,1.781-.482,3.573-.92,5.371-1.333,1.452-.314,3.054-.65,4.759-.989a277.546,277.546,0,0,0,4.733,28.419q.5,2.443.962,4.763c.046.231.094.467.141.7-.506.117-1,.235-1.446.344.49-.074.981-.141,1.472-.213.041.2.081.407.123.612a71.6,71.6,0,0,0,2.012,11.589l2.655,11.4c.714,3.069,1.523,6.547,3.716,9.206.072.086.155.167.231.252a11.091,11.091,0,0,0-2.842,1.264.466.466,0,0,0,.239.859l1.327.028a24.931,24.931,0,0,0-11.975,14.474.466.466,0,0,0,.84.384,25.515,25.515,0,0,1,12.941-10.42c-1.329,1.082-2.608,2.23-3.821,3.429a.467.467,0,0,0-.088.542.461.461,0,0,0,.488.249,14.9,14.9,0,0,0,5.286-1.917,5.581,5.581,0,0,1-1.5,2.309,10.68,10.68,0,0,1-2.1,1.449c-.444.257-.887.515-1.3.8-8.026,5.507-11.324,12.169-11.17,12.958a.5.5,0,0,0,.312.362.529.529,0,0,0,.18.036c.233,0,.5-.221,1.427-1a68.042,68.042,0,0,1,6.682-5.028,27.474,27.474,0,0,0-3.536,6.032c-.119.28-.234.564-.35.85a10.26,10.26,0,0,1-2.467,4.129.466.466,0,0,0,.462.793l1.47-.541a15.155,15.155,0,0,1-3.359,5.182.467.467,0,0,0,.121.744,8.262,8.262,0,0,0,3.282.864,8.23,8.23,0,0,0-1.561,4.729,24.776,24.776,0,0,0,.294,4.2c.072.561.144,1.121.2,1.682a10.512,10.512,0,0,1-.618,5.488,4.442,4.442,0,0,1-4.137,2.722.461.461,0,0,0-.484.311.467.467,0,0,0,.188.544,14.659,14.659,0,0,0,7.9,2.267,15.006,15.006,0,0,0,2-.15,11.289,11.289,0,0,1-7.03,4.055.466.466,0,0,0-.126.885l2.564,1.163-.245.173a.466.466,0,0,0-.023.744,7.086,7.086,0,0,0,4.837,1.492,13.857,13.857,0,0,1-7.615,4.376.466.466,0,0,0-.076.893,16.14,16.14,0,0,0,5.665,1.038,16.075,16.075,0,0,0-2.751,5.669c-15.152,3.83-30.195,8.1-45.138,12.666-4.752,1.517-12.789,4.118-15.7,5.264q8.557-2.287,17.1-4.635c15.383-4.36,30.75-8.791,46.262-12.667l-1.266,3.263a.466.466,0,0,0,.727.531,6.134,6.134,0,0,1,5.654-.676,32.28,32.28,0,0,1-6.162,9.428q-6.518,3.117-12.954,6.393Q201.368,339.78,180.1,351.7c-5.63,3.219-14.208,8.284-18.046,10.838,6.759-3.546,13.509-7.107,20.213-10.754,13.683-7.542,27.437-14.958,41.372-22.024q4.772-2.412,9.5-4.713a31.188,31.188,0,0,1-4.429,3.089.466.466,0,0,0,.227.87l3.985.04a15.99,15.99,0,0,1-13.662,6,.468.468,0,0,0-.448.245.463.463,0,0,0,.046.509,8.514,8.514,0,0,0,6.368,2.9,16.669,16.669,0,0,0,3.711-.3,38.632,38.632,0,0,0-1.639,14.739q-12.785,10.2-25.32,20.705H45.124a.466.466,0,0,0-.466.466v20.5a.466.466,0,0,0,.466.466H176.807c-5.362,4.73-11.226,10.1-15.48,14.241q8.63-7.054,17.151-14.241h45.005c.124.139.237.288.368.418a17.334,17.334,0,0,0,8.352,4.139,95.121,95.121,0,0,0,11.576,2.138,4.816,4.816,0,0,0,.537.693,4.74,4.74,0,0,0,3.426,1.456,4.841,4.841,0,0,0,.81-.069,6.2,6.2,0,0,0,2.912-1.432c1.76.085,3.532.137,5.325.137q3.474,0,7.025-.213c4.264-.256,8.388-.713,11.946-3.459a14.348,14.348,0,0,0,3.719-4.723,17.908,17.908,0,0,0,1.51-1.105,16.209,16.209,0,0,1-1.25,1.2.466.466,0,0,0,.3.82H405.771a18.137,18.137,0,0,0,3.52,2.984,14.337,14.337,0,0,0,3.734,4.723c3.571,2.745,7.71,3.2,11.991,3.458q3.565.215,7.053.213c1.8,0,3.581-.052,5.348-.137a6.236,6.236,0,0,0,2.925,1.433,4.857,4.857,0,0,0,.813.068,4.764,4.764,0,0,0,3.436-1.455,4.827,4.827,0,0,0,.54-.694,95.585,95.585,0,0,0,11.609-2.135,4.477,4.477,0,0,0,.508.5,3.261,3.261,0,0,0,2.041.77,2.579,2.579,0,0,0,.7-.095,4.2,4.2,0,0,0,2.044-1.523,6.93,6.93,0,0,0,1.276-2.313,12.907,12.907,0,0,0,1.829-1.477,10.82,10.82,0,0,0,2.541-4.317H710.487a.465.465,0,0,0,.465-.466v-20.5A.465.465,0,0,0,710.487,373.843ZM441.052,323.208c.281.27.566.588.551.886a.434.434,0,0,1-.213.355,1.791,1.791,0,0,1-1.424.115c-.179-.058-.36-.127-.543-.2a3.273,3.273,0,0,0-2.474-.254.466.466,0,0,0,.078.883,8.746,8.746,0,0,1,5.478,4.7,28.032,28.032,0,0,1,2.186,6.757l.139.593c1.329,5.668,3.343,13.025,7.153,19.663.5.878,1.08,1.813,1.734,2.776a27.549,27.549,0,0,0-6.395-2.3c-5.23-1.18-11.3-2.342-17.137-1.189-.195.039-.37.085-.556.127-7.05-5.574-14.35-10.837-21.653-16.068-1.186-.829-2.478-1.722-3.844-2.651a29.835,29.835,0,0,1,11.076,1.491.461.461,0,0,0,.439-.076.466.466,0,0,0,.174-.41,8.785,8.785,0,0,0-2.5-5.279l3.818.31a.469.469,0,0,0,.432-.218.463.463,0,0,0,.006-.484,14.044,14.044,0,0,0-4.366-4.475,37.715,37.715,0,0,0,14.856-7.144.465.465,0,0,0-.009-.737l-1.118-.841a18.97,18.97,0,0,0,4.393-1.3A19.062,19.062,0,0,1,441.052,323.208Zm-48.04-1.828,2.587,2.251-1.625-.362a.466.466,0,0,0-.458.755l1.311,1.557c-1.221.179-2.435.385-3.64.6a24.8,24.8,0,0,1-12.654-4.3,25.508,25.508,0,0,0,2.729-10.337q3.719-.942,7.47-1.745c.934.082,1.866.192,2.8.289a19.527,19.527,0,0,1,5.44,4.427.468.468,0,0,0,.355.164.44.44,0,0,0,.1-.011.466.466,0,0,0,.348-.331,4.567,4.567,0,0,0-.736-3.589c6.709.909,13.388,2.176,20.033,3.707a47.486,47.486,0,0,1-12.775-1.208q-.385-.1-.774-.189a.466.466,0,0,0-.214.907c.254.064.507.126.761.186a16.2,16.2,0,0,1,9.653,7.482l-7.02-1.664a.459.459,0,0,0-.46.149.467.467,0,0,0-.081.476l1.262,3.179a27.216,27.216,0,0,0-14.129-3.211.466.466,0,0,0-.283.817Zm-14-10.512c-.029-.541-.088-1.08-.167-1.616,1.749.043,3.5.107,5.243.21C382.378,309.885,380.688,310.362,379.007,310.868Zm1.054.976a21.034,21.034,0,0,1-1.137,1.9c.062-.537.09-1.077.1-1.618C379.371,312.032,379.715,311.934,380.061,311.844Zm15.281-8.4q1.632.181,3.258.386A14.707,14.707,0,0,1,395.342,303.446Zm9.611,3.784c3.21-.332,6.428-.577,9.653-.71,6.01,1.255,11.963,2.764,17.866,4.455l.252.179a47.5,47.5,0,0,1-11.655,2.97c-7.3-1.8-14.666-3.32-21.957-4.392A13.906,13.906,0,0,0,404.953,307.23Zm-5.5-1.86a32.608,32.608,0,0,0,3.126-.994q.681.1,1.362.206c-.41.153-.824.294-1.245.409A10.236,10.236,0,0,1,399.45,305.37Zm7.208.363c.192-.2.376-.405.554-.616.712.122,1.422.237,2.134.368C408.449,305.556,407.554,305.648,406.658,305.733Zm23.248,3.139q-4.844-1.34-9.732-2.5c6.165-.052,12.342.223,18.51.758a6.305,6.305,0,0,1,.093,1.611,19.01,19.01,0,0,0-8.51-.3.463.463,0,0,0-.366.359C429.9,308.826,429.908,308.848,429.906,308.872Zm-27.744,28.713c.693.46,1.381.927,2.07,1.393l-3.765-1.142C401.029,337.734,401.594,337.654,402.162,337.585Zm46.1-179.12a117.151,117.151,0,0,1-1.278,18.911q-1.527-.45-3.067-.857c.947-5.441,1.614-10.612,2.127-14.97.279-2.366.529-4.705.645-7.024l1.6.031C448.289,155.867,448.275,157.172,448.26,158.465Zm-12.319-35.992-.029.013h0Zm-8.115-.365c-.333.235-.648.469-.976.7-.189.059-.378.116-.565.18C426.8,122.7,427.312,122.4,427.826,122.108Zm-6.908,3.183c-.26.241-.512.485-.769.728-.072.046-.147.089-.219.136C420.26,125.868,420.587,125.578,420.918,125.291Zm-166.007-.2c-.02-.01-.041-.017-.061-.026-.065-.065-.125-.135-.192-.2l0,0Zm-3.088-.878c-.07-.014-.141-.029-.212-.042-.528-.335-1.062-.661-1.611-.963C250.609,123.539,251.219,123.873,251.823,124.211Zm-3.352-.264c-.218.007-.437.026-.656.042-.16-.042-.319-.084-.475-.134l-.038-.011c-.188-.068-.367-.145-.557-.21C247.281,123.718,247.861,123.82,248.471,123.947Zm-1.961.185-.008,0-.039-.007Zm-.064.012-.06.011-.06-.019C246.366,124.137,246.406,124.14,246.446,124.144Zm-.806-.018c.153.023.3.055.455.08-.109.019-.219.037-.328.058l-.13-.067C245.639,124.173,245.64,124.149,245.64,124.126Zm-4.925,1.779c.117,0,.234-.009.351-.012-.2.1-.383.225-.576.335A1.13,1.13,0,0,0,240.715,125.905Zm-.637.562c-.054.033-.111.062-.164.1,0-.026,0-.052-.01-.077C239.962,126.479,240.02,126.475,240.078,126.467Zm-4.411,51.059c-.734-3.527-1.492-7.174-1.955-10.778l-.021-.163c-.261-2.025-.522-4.068-.738-6.117.778-.146,1.578-.29,2.388-.432.019,1.2.062,2.365.118,3.473.267,5.327,1.677,11.822,3.257,18.159-.706.157-1.408.315-2.113.478C236.3,180.6,235.985,179.055,235.667,177.526ZM241.1,294.785a22.946,22.946,0,0,1,9.178-9.18,8.231,8.231,0,0,0-1.018,1.588.466.466,0,0,0,.692.582,24.613,24.613,0,0,1,12.586-4.557.465.465,0,0,0,.432-.5,5.661,5.661,0,0,0-.718-2.3,57.439,57.439,0,0,0,8.154.451,8.545,8.545,0,0,1-3.318,2,.466.466,0,0,0,.1.908,18.86,18.86,0,0,0,3.08.042l-5.22,3.019a.466.466,0,0,0,.231.869h.246a44.092,44.092,0,0,0,13.428-2.12l-.9.763a.468.468,0,0,0-.126.545.473.473,0,0,0,.489.272,21.154,21.154,0,0,0,6.144-1.968,36.653,36.653,0,0,0-6.908,10.474.465.465,0,0,0,.813.44,23.225,23.225,0,0,1,5.552-5.546c-1.089,3.177-.877,6.692-.554,9.769-11.935.665-23.843,2.94-35.468,5.527-1.6.373-3.2.761-4.793,1.145a14.2,14.2,0,0,1,5.829-8.024.466.466,0,0,0-.106-.831,7.692,7.692,0,0,0-5.922.511l1.561-2.514a.468.468,0,0,0-.2-.666A7.44,7.44,0,0,0,241.1,294.785Zm47.685-35.717a10.5,10.5,0,0,0,5.117,6.938.465.465,0,0,0,.511-.77,12.893,12.893,0,0,1-3.977-12.8,9.911,9.911,0,0,1,5.2-7.774,13.888,13.888,0,0,1,9.578-1.234,11.255,11.255,0,0,1,6.023,3.13,15.579,15.579,0,0,1,2.97,6.142,14.759,14.759,0,0,1,.927,6.082,10.09,10.09,0,0,1-4.115,6.533,28.006,28.006,0,0,1-7.242,3.688.466.466,0,0,0,.033.882,12.053,12.053,0,0,0,9.264-1c.222-.124.431-.265.644-.4-.568.63-1.12,1.277-1.644,1.948-.222.283-.439.57-.657.858a22.607,22.607,0,0,1-2.084,2.494c-.024.024-.052.049-.077.072a19.209,19.209,0,0,1-17.237-.315.466.466,0,0,0-.621.65c.319.529.667,1.04,1.03,1.538a29.03,29.03,0,0,0-7.608-.893l2.277-.977a.466.466,0,0,0,.056-.828c-3.51-2.1-7.869-4.711-12.578-4.711h-.154a15.544,15.544,0,0,0-3.013.359,7.392,7.392,0,0,1,4.486-1.988.466.466,0,0,0,.327-.784,5.4,5.4,0,0,0-3.135-1.627l2-1.11a.466.466,0,0,0-.132-.864,14.863,14.863,0,0,0-4.007-.275c.771-1.78,3.012-2.733,4.946-3.372l.2-.07a7.487,7.487,0,0,0,1.792-.453c3.9-1.443,7.289-4.116,10.307-6.614A26.99,26.99,0,0,0,288.783,259.068Zm-7.69,45.319a12.487,12.487,0,0,0-2.65,0,5.031,5.031,0,0,0,1.3-2.1.449.449,0,0,0-.07-.382q1.961-.18,3.925-.314l.007.062a.466.466,0,0,0,.364.4.477.477,0,0,0,.1.011.468.468,0,0,0,.4-.226c.065-.109.138-.213.2-.32,5.093-.323,10.21-.428,15.361-.252-1.1.119-2.2.251-3.294.376a115.862,115.862,0,0,0-15.231,3.177.194.194,0,0,0,0-.024A.466.466,0,0,0,281.093,304.387Zm-34.629,4.943-3.384-1.025c.5-.119.99-.243,1.486-.361,4.51-1.065,9.023-2.048,13.545-2.916-.024.03-.059.049-.076.085a.465.465,0,0,0,.1.525,10.09,10.09,0,0,0,3.006,2.034,10.438,10.438,0,0,1-2.914.566.466.466,0,0,0-.111.912,19.332,19.332,0,0,0,7.507.685q-6.535,2.311-12.923,4.991a22.424,22.424,0,0,0-7.336-3.9l1.211-.75a.466.466,0,0,0-.109-.843Zm12.474-4.457c6.536-1.235,13.092-2.225,19.684-2.866a22.836,22.836,0,0,1-9.494,2.951A56.81,56.81,0,0,1,258.938,304.873Zm-6.448,16.716,4.871,3.1a6.438,6.438,0,0,0-3.2,4.792.467.467,0,0,0,.714.445l2.195-1.4a6.8,6.8,0,0,0-.451,2.309c-3.051,2.149-6.062,4.359-9.047,6.594a23.061,23.061,0,0,0-8.4,3.256A30.329,30.329,0,0,1,252.49,321.589ZM268.3,331.2a.466.466,0,0,0,.5.206c1.963-.477,3.9.266,5.951,1.054a16.349,16.349,0,0,0,4.713,1.29c.176.011.353.016.529.016.136,0,.271-.017.407-.024.149.105.3.212.448.31a241.933,241.933,0,0,0-15.506,20.733,18.924,18.924,0,0,0-6.674-2.679c-5.219-1.036-10.618-.2-15.438.831a38.86,38.86,0,0,1,21.588-6.114.466.466,0,0,0,.267-.854,20.526,20.526,0,0,0-11.88-3.367c1.395-1.188,1.91-2.484,1.419-3.683-.512-1.249-1.95-1.9-4.092-1.807-.2.008-.391.03-.587.043,3.259-2.408,6.585-4.793,9.976-7.107a17.728,17.728,0,0,1,10.958-1.555,9.734,9.734,0,0,0-2.548,2.163A.466.466,0,0,0,268.3,331.2Zm13.041-12.628a.467.467,0,0,0,.349.31,2.961,2.961,0,0,0,2.658-.994l.815,4.63c-4.554,1.535-8.68,1.012-13.774.356l-.205-.026c3.589-2.129,7.241-4.124,10.957-5.93a3.672,3.672,0,0,1-.705,1.2A.465.465,0,0,0,281.336,318.571Zm8.273,17.866a9.524,9.524,0,0,0,.094,4.7.467.467,0,0,0,.391.336.474.474,0,0,0,.461-.23l1.027-1.79a12.09,12.09,0,0,0,.623,1.1q-.517.736-1.035,1.471-4.851,7.173-9.624,14.4l-.06-2.314a.466.466,0,0,0-.91-.13l-.916,2.871a37.667,37.667,0,0,1-1.422-4.693.466.466,0,0,0-.922.106,42.648,42.648,0,0,1-.244,6.807,13.284,13.284,0,0,0-4.165-.967,8.035,8.035,0,0,1-2.594-.557,32.435,32.435,0,0,1-3.888-2.1,244.193,244.193,0,0,1,15.614-20.7A15.08,15.08,0,0,0,289.609,336.437Zm-43.282,8.9a18.93,18.93,0,0,0-4.061,7.229.468.468,0,0,0,.168.506c.018.013.041.01.06.02-.3.066-.6.131-.9.2a27.331,27.331,0,0,0-6.657,2.452l-.042.015A25.348,25.348,0,0,1,246.327,345.342Zm-42.5,28.5q11.685-9.747,23.568-19.252c.056.754.119,1.5.19,2.213a.465.465,0,0,0,.422.418.3.3,0,0,0,.042,0,.467.467,0,0,0,.448-.338,12.873,12.873,0,0,1,2.89-5.143q.236,2.619.715,5.21a21.914,21.914,0,0,0-7.4,6.155c-1.978,2.555-3.5,6.5-4.339,10.735Zm77.782,14.943a20.278,20.278,0,0,0-1.175-12.919.466.466,0,0,0-.89.214,59.222,59.222,0,0,1-.184,10.642c-.133.953-.276,1.884-.443,2.774q-.369.887-.791,1.713c-1.709,1.57-3.877,3.187-4.363,3.21-.359-.008-.938-.525-1.449-.98-.813-.724-1.653-1.476-2.523-1.164a4.425,4.425,0,0,0-1.843,1.733,4.623,4.623,0,0,1-1.294,1.369c-.806.419-1.69-.248-2.2-.947a11.415,11.415,0,0,1-1.487-3.622,51.666,51.666,0,0,1-1.562-16.961.977.977,0,0,0-.69-1.088.8.8,0,0,0-.906.587,34.326,34.326,0,0,0-1.3,16.948c.055.306.114.615.174.926.366,1.915.745,3.9.236,5.619a5.03,5.03,0,0,1-2.392,2.932c-3.115,1.787-6.962.593-9.356-2.9a12.853,12.853,0,0,1-1.75-5.039c-.187-1.134-.917-1.632-1.56-1.616-.671.014-1.416.567-1.564,1.771a35.275,35.275,0,0,0-.281,3.8,6.156,6.156,0,0,1-.5,3,1.442,1.442,0,0,1-1.6.562c-3.079-.562-5.27-5.057-5.845-9.208a36.9,36.9,0,0,1,.2-10.068,1.312,1.312,0,0,0-.831-1.541,1,1,0,0,0-1.169.756,25.371,25.371,0,0,0-1.137,8.486,30.984,30.984,0,0,1-.456,5.811,5.5,5.5,0,0,1-.484,1.579,1.179,1.179,0,0,1-1.477.579,4.449,4.449,0,0,1-1.685-1.491c-3.958-5.089-5.574-13.779-3.947-21.08a30.34,30.34,0,0,1,6.476-10.109,27.969,27.969,0,0,1,5.535-3.629c.645-.362,1.2-.68,1.713-.978a41.948,41.948,0,0,1,7.024-2.115c5.238-1.059,12-1.99,17.83.227a13.171,13.171,0,0,1,1.9.88c-.71,1.067-1.422,2.134-2.123,3.206-4.118,6.41-8.105,12.913-11.889,19.529l1.517-.052c4.326-7.473,8.8-14.824,13.539-21.965a5.69,5.69,0,0,1,1.7,2.128l.114.267a2.958,2.958,0,0,0,.807,1.266c.833.651,1.837.19,2.57-.148l.131-.06c2.455-1.112,5.012-.095,7.292,1.475-3.481,5.414-6.89,10.874-10.172,16.411l1.062-.043c3.409-5.184,6.773-10.4,10.149-15.607.549.429,1.077.876,1.578,1.319a18.454,18.454,0,0,1,6.125,12.244C286.268,381.972,284.515,386.444,281.606,388.786Zm9.33-14.943h-2.329a16.351,16.351,0,0,0-2.356-6.969.93.93,0,0,1,.483-.149c.64.054.827,1.151.837,1.792.01.61.041,2.468,1.432,2.842a.464.464,0,0,0,.555-.28l1.483-3.791A10.545,10.545,0,0,1,290.936,373.843Zm.035-20.632a.467.467,0,0,0-.61-.457,16.478,16.478,0,0,0-8.732,6.86l-.024-.914c3.734-5.724,7.514-11.417,11.4-17.036a11.782,11.782,0,0,0,1.085,1.191.466.466,0,0,0,.762-.484,4.485,4.485,0,0,1-.213-1.569,16.9,16.9,0,0,0,3.126,3.073l.194.158a15.269,15.269,0,0,1,3.535,3.579,4.719,4.719,0,0,1,.427,4.6,20.454,20.454,0,0,0-5.081,7.288,11.857,11.857,0,0,1,.311-2.93.466.466,0,0,0-.869-.318l-2.381,4.7A11.029,11.029,0,0,1,290.971,353.211Zm5.665-20.767c.187.013.375.023.56.023s.347,0,.518-.016c.068,0,.133-.02.2-.026l-.408.573C297.215,332.814,296.922,332.634,296.636,332.444Zm-.916,41.4a16.773,16.773,0,0,0,3.721-4.577,17.529,17.529,0,0,0,2.961,4.577Zm4.177-39.389c-.417-.247-.838-.5-1.258-.752.106-.146.208-.293.314-.439l.882-1.2c.729-.2,1.439-.459,2.136-.712a11.936,11.936,0,0,0,2.752-1.276,4.345,4.345,0,0,0,1.884-2.586.465.465,0,0,0-.677-.508,23.641,23.641,0,0,1-3.562,1.671,124.745,124.745,0,0,1,12.25-14.3c1.518-1.451,3.088-2.84,4.742-4.133,1.124-.783,2.247-1.808,3.643-2-2.491.3-4.468,2.237-6.515,3.547a66.426,66.426,0,0,0-7.037,6.377.446.446,0,0,0-.424,0l-.178.111c-.2.126-.5.315-1.245.726a3.131,3.131,0,0,0-1.287,1.348.466.466,0,0,0,.419.671.493.493,0,0,0,.121-.036c-2.3,2.6-4.451,5.339-6.528,8.139a6.74,6.74,0,0,1-1.123.022,5.274,5.274,0,0,0,1.5-1.814.466.466,0,0,0-.656-.607,9.7,9.7,0,0,1-6.637,1.194,9.532,9.532,0,0,1-2.561-.874c-.287-.4-.55-.8-.8-1.2q3.528-3.675,7.3-7.105c2.417-1.914,4.809-4.519,7.962-5.019-2.386.041-4.432,1.7-6.374,2.93a85.127,85.127,0,0,0-9.522,8.086,21.151,21.151,0,0,1-2.49-10c3.7-1.609,7.222-3.069,11.257-4.389,2.669-.792,5.379-1.759,8.191-1.762-5.727-.193-11.26,2.01-16.623,3.779-.929.355-1.846.733-2.762,1.112a5.094,5.094,0,0,1,.371-1.766.466.466,0,0,0-.716-.589,12.076,12.076,0,0,0-1.8,2.415,11.936,11.936,0,0,0-2.5-4.965.466.466,0,0,0-.824.384l.194.873a19.807,19.807,0,0,1,.72,5.641,139.888,139.888,0,0,0-13.25,7.108A84.1,84.1,0,0,1,255.95,319.2l.05-.008a.467.467,0,0,0,.293-.748,22.239,22.239,0,0,0-2.587-2.752q7.029-2.909,14.317-5.408a15.394,15.394,0,0,1-6.338,6.617.466.466,0,0,0,.131.866,7.164,7.164,0,0,0,1.4.135,10.535,10.535,0,0,0,6.323-2.415,31.319,31.319,0,0,0,4.2-4.234c.439-.5.88-1.008,1.329-1.5a22.483,22.483,0,0,1,2.792-2.635q8.091-2.388,16.362-4.1c3.146-.584,6.229-1.208,9.349-1.579.5.03,1,.066,1.5.1-.5.447-1,.905-1.455,1.4a.466.466,0,0,0,.342.783.461.461,0,0,0,.265-.083l.395-.276a.9.9,0,0,0,.47.272,1.542,1.542,0,0,0,1.066-.251l1.356-.744a.426.426,0,0,0,.057.048.466.466,0,0,0,.4.07,19.042,19.042,0,0,0,3.234-1.26.465.465,0,0,0-.022-.844,4.3,4.3,0,0,0-2.278-.323c-.27.035-.444.051-.555.057a.467.467,0,0,0-.549-.053l-.89.553h0l-.061-.05a.7.7,0,0,0-.956-.025l-.089.078c-.771.008-1.543.031-2.315.079a105.625,105.625,0,0,0-17.958-.73c3.83-5.389,9.6-9.209,14.976-12.558a7.564,7.564,0,0,0-.4,3.24.466.466,0,0,0,.847.22,62.541,62.541,0,0,1,6.878-8.277,20.458,20.458,0,0,0,2.073,4.641.465.465,0,0,0,.4.222.512.512,0,0,0,.087-.008.465.465,0,0,0,.371-.378c.7-4.031,1.5-8.6,4.077-12.111a28.413,28.413,0,0,1,4.436-4.45,27.935,27.935,0,0,0,4.711-4.791.466.466,0,0,0-.674-.63,11.088,11.088,0,0,1-5.8,2.416,28.779,28.779,0,0,1,3.177-4.168.466.466,0,0,0-.591-.715,36.024,36.024,0,0,0-3,2.335,11.944,11.944,0,0,0,1.735-3.68,17.85,17.85,0,0,0-.068-8.351c-.838-4.118-2.814-9.637-7.471-12.544-4.031-2.515-8.869-2.487-14.313-2.209a.466.466,0,0,0-.126.907,3.467,3.467,0,0,1,1.416.921c-4.928.171-9.961,2.639-15.355,7.521l-.413.376a18.392,18.392,0,0,1-2.858,2.282,5.494,5.494,0,0,1-3.791.848.465.465,0,0,0-.484.7c.611.97,2.313,1.316,3.017,1.419a7.069,7.069,0,0,0,2.177,0,13.805,13.805,0,0,1-2.1,1.865,12.941,12.941,0,0,1-4.165,1.2,34.4,34.4,0,0,0-13.773,4.5.467.467,0,0,0,.185.866l1.219.135A59.364,59.364,0,0,0,252.352,268a22.513,22.513,0,0,0-7.564,10.351.466.466,0,0,0,.776.469,5.035,5.035,0,0,1,.923-.741,14.18,14.18,0,0,1-8.948,8.6,14.24,14.24,0,0,1-2.075-.568,4.253,4.253,0,0,0,1.225-2.134,9.439,9.439,0,0,0,.1-3.181c-.062-.661-.136-1.323-.212-1.986a29.454,29.454,0,0,1-.26-6.359c.323-3.05,1.739-5.569,3.788-6.739a.466.466,0,0,0,.127-.7,8.043,8.043,0,0,0-3.586-2.469,15.649,15.649,0,0,0,2.2-5.764.466.466,0,0,0-.557-.532,21,21,0,0,1,7.246-8.075,26.44,26.44,0,0,1,18.831-1.049.466.466,0,0,0,.6-.563,11.149,11.149,0,0,0-4.4-6.239,19.4,19.4,0,0,1,7.807,2.562.466.466,0,0,0,.675-.556,14.715,14.715,0,0,0-5.961-7.1,30.605,30.605,0,0,0-4.979-2.573,33.032,33.032,0,0,1,7.1,2.091.466.466,0,0,0,.472-.793c-3.673-2.932-8.047-4.181-13.583-5.763l-.739-.211c-.346-.1-.7-.175-1.051-.239a12.1,12.1,0,0,1-4.371-14.844c.161-.374.342-.75.523-1.127.706-1.467,1.436-2.985,1.129-4.64-.327-1.767-1.692-2.962-3.012-4.117-.188-.165-.375-.328-.557-.492a19.947,19.947,0,0,1-5.314-7.893c.347-.049.695-.1,1.042-.151,6.763-.709,35.316-5.4,39.617-1.6-2.374-2.18-6.1-2.013-9.13-2.361-10.664-.468-21.246,1.556-31.629,3.8a19.885,19.885,0,0,1-.6-2.09,78.945,78.945,0,0,0-1.361-9.9q1.078-.165,2.16-.323c.508,2.028,1.031,4.039,1.538,5.986.433,1.663.853,3.273,1.238,4.8a.464.464,0,0,0,.451.352.44.44,0,0,0,.08-.007.465.465,0,0,0,.383-.5c-.34-3.418.086-9.62,1.231-10.522,3.4-2.675,9.079-.236,9.124-.216l5.206,2.464a.466.466,0,0,0,.54-.739,24.1,24.1,0,0,0-4.6-3.6c2.8-.3,5.634-.56,8.428-.744a48.77,48.77,0,0,1,7.7.02c5.3,3.593,9.937,8.153,14.545,12.973a74.536,74.536,0,0,0-12.086-12.669,26.542,26.542,0,0,1,7.586,2.363,12.45,12.45,0,0,1,4.653,3.547c-2.121-3.229-5.94-4.916-9.477-6.14a27.76,27.76,0,0,0-4.385-.993c-.932-.676-1.881-1.329-2.868-1.928a49.543,49.543,0,0,0-11.02-4.266.458.458,0,0,0-.246-.213,11.874,11.874,0,0,0-3.156-.675q-.779-.148-1.559-.27c-3.52-.716-7.082-1.254-10.594-1.785a21.527,21.527,0,0,1,2.4-4.173.466.466,0,0,0-.656-.649l-4.583,3.482a14.951,14.951,0,0,1,5.815-8.988c.135-.1.283-.177.422-.27,12.011-1.377,24.979-1.246,32.38,4.134-6.74-5.793-18.037-6.777-29.091-5.763a14.862,14.862,0,0,1,7.8-.558.466.466,0,0,0,.212-.907,17.419,17.419,0,0,0-13.327,2.1q-.976.143-1.94.3a22.313,22.313,0,0,1,4.745-7.788.466.466,0,0,0-.682-.634,40.065,40.065,0,0,1-3.37,2.883c-.591.47-1.192.948-1.766,1.429a15.218,15.218,0,0,1,15.933-7.792c1.071.271,2.132.574,3.183.873a.466.466,0,0,0,.3-.881,16.11,16.11,0,0,0-3.409-.935,25.72,25.72,0,0,0-7.585-.927,13.3,13.3,0,0,0-7.018,2.336l2.408-4.3a.466.466,0,0,0-.673-.609,18.008,18.008,0,0,0-2.333,1.943,23.243,23.243,0,0,1,12.342-9.679.466.466,0,0,0-.073-.9c-3.089-.479-7.663,1.62-10.885,4.989a24.368,24.368,0,0,0-5.937,12.1,44.923,44.923,0,0,0-.787,8.96q-1.26.27-2.473.556a51.91,51.91,0,0,1,.449-16.006c1.8-8.35,6.6-12.493,8.03-13.564a15.509,15.509,0,0,1,5.521-2.529c2.8-.775,6.419.122,10.751,2.669a42.028,42.028,0,0,1,8.451,7.264l17.577,18.043c.791,1.007,1.584,2.014,2.4,2.994,1.91,2.3,3.942,4.561,5.9,6.745,2.353,2.616,4.785,5.322,7.017,8.109a63.718,63.718,0,0,1,5.742,8.341,30.76,30.76,0,0,1,.967,4.672,6.411,6.411,0,0,0-3.546-.961.465.465,0,0,0-.224.866,4.645,4.645,0,0,1,1.622,1.322,1.254,1.254,0,0,1-.046,1.537c-.385.338-.981.242-1.674.132a3.863,3.863,0,0,0-2.058.048.465.465,0,0,0-.153.765A13.729,13.729,0,0,1,302.8,204.2a10.306,10.306,0,0,1-2.812-5.468.465.465,0,0,0-.416-.387.451.451,0,0,0-.48.3,17.687,17.687,0,0,0-.667,9.9c.182.812.3,1.685-.173,2.01-.493.336-1.28-.145-1.857-.6-1.631-1.3-3.261-2.643-4.841-3.981a.466.466,0,0,0-.681.626A8.329,8.329,0,0,1,292.288,210a11.4,11.4,0,0,0-2.36-1.669.467.467,0,0,0-.684.431,29.068,29.068,0,0,0,4.7,14.7.466.466,0,0,0,.828-.416,11.509,11.509,0,0,1-.706-4.215,1.381,1.381,0,0,1,.284-.985.435.435,0,0,1,.413-.074,1.535,1.535,0,0,1,.915.822,6.484,6.484,0,0,1,.286.845,4.234,4.234,0,0,0,.761,1.655,3.112,3.112,0,0,0,3.513.619,8.106,8.106,0,0,0,2.659-2.118c3.1-3.319,6.281-6.912,8.214-11.146a17.512,17.512,0,0,0,1.461-10.859A47.387,47.387,0,0,1,320.72,219.5a.466.466,0,0,0,.442.418.443.443,0,0,0,.479-.377l2.138-11,.078,1.758a.467.467,0,0,0,.386.438.461.461,0,0,0,.512-.285l.544-1.347,1.15,10.036a.467.467,0,0,0,.791.279c2.538-2.5,3.138-6.2,3.573-10.076.023-.211.047-.423.07-.634.366.742.757,1.466,1.143,2.177.5.924,1.021,1.878,1.46,2.842,1.279,2.808,1.577,5.251.884,7.26a.466.466,0,0,0,.871.331,32.77,32.77,0,0,0,1.789-7.209c.218-1.291.442-2.625.748-3.907.5-2.089,1.659-5.512,4.165-7.57a8.951,8.951,0,0,0-.559,5.319,22.975,22.975,0,0,0,2.822,6.812.465.465,0,0,0,.847-.067l1.1-3.093c.331,3.2,1.028,6.142,3.168,8.269a.466.466,0,0,0,.794-.355,20.148,20.148,0,0,1,2.151-10.087,15.838,15.838,0,0,0,.748,4.024.468.468,0,0,0,.4.319.454.454,0,0,0,.451-.246,19.816,19.816,0,0,1,5.068-6.132,20.588,20.588,0,0,0,4.232,14.107.463.463,0,0,0,.367.181.466.466,0,0,0,.454-.571,11.262,11.262,0,0,1,.862-6.677c.471-1.173,1.054-2.329,1.618-3.448.487-.964.989-1.961,1.425-2.977a40.1,40.1,0,0,0,2.53-9.391,34.172,34.172,0,0,0,10.038,23.617.47.47,0,0,0,.324.13.447.447,0,0,0,.175-.034.467.467,0,0,0,.291-.416,28.623,28.623,0,0,1,1.089-6.91,17.81,17.81,0,0,0,.985,4.038.466.466,0,0,0,.81.116,14.155,14.155,0,0,1,5.829-4.534,9.271,9.271,0,0,0-1.112,4.28.466.466,0,0,0,.181.375.472.472,0,0,0,.407.081A30.045,30.045,0,0,0,404.866,209.2a.466.466,0,0,0-.658-.652,19.912,19.912,0,0,1-8.264,4.016l2.276-4.354a.463.463,0,0,0-.018-.462.5.5,0,0,0-.407-.219,18.6,18.6,0,0,0-6.685,1.446l1.445-2.462a.467.467,0,0,0-.55-.678,28.439,28.439,0,0,0-6.757,3.308A11.665,11.665,0,0,1,388,200.4a.466.466,0,0,0-.422-.766,10.122,10.122,0,0,0-7.169,5.112l.068-1.251a.466.466,0,0,0-.843-.3,14.62,14.62,0,0,0-2.3,4.9,20.011,20.011,0,0,1,.949-14.168.466.466,0,0,0-.564-.64,9.223,9.223,0,0,0-3.968,2.535,46.773,46.773,0,0,1,1.607-9.756c10.032-17.644,20.758-34.336,34.991-48.166,4.165-4.046,9.257-8.445,15.455-10.392,5.872-1.844,11.938-.945,15.977,2.244.381.451.729.895,1.025,1.311a29.9,29.9,0,0,1,4.874,13.134,68.214,68.214,0,0,1,.6,9.532l-1.565-.114a39,39,0,0,0-.258-6.425c-.5-3.78-1.953-9.1-6.063-12.969-3.811-3.591-9.3-4.882-13.667-3.215a.466.466,0,0,0-.287.544.473.473,0,0,0,.5.354,13.969,13.969,0,0,1,11.728,4.7,25.762,25.762,0,0,0-9.7-1.159.466.466,0,0,0-.026.927,15.807,15.807,0,0,1,12.735,10.7.965.965,0,0,1,.06.606c-.125.241-.712.128-1.2-.08a29.493,29.493,0,0,0-16.313-1.877.466.466,0,0,0,.052.924,36.851,36.851,0,0,1,13.771,3.58,6.378,6.378,0,0,1,2.866,2.261,9.4,9.4,0,0,0-6.908-.368.463.463,0,0,0-.312.461.453.453,0,0,0,.27.379c-12.938-.351-26.755.438-33.277,5.177,3.044-2.025,6.831-2.425,10.363-2.986,5.623-.815,12.321-.826,18.409-.877,2.57.02,5.14.064,7.709.1a10.771,10.771,0,0,1,1.681,1.279,43.689,43.689,0,0,0-22.34.595.465.465,0,0,0-.321.55.476.476,0,0,0,.526.357,32.4,32.4,0,0,1,12.634.086q.633.15,1.246.338c-10.18,3.13-26.607,9.667-30.67,17.455,3.4-4.91,9.394-7.057,14.476-9.789,5.991-2.869,11.113-5.127,17.033-7.384a17.437,17.437,0,0,1,6.2,3.718,17.934,17.934,0,0,0-4.8-1.724.466.466,0,0,0-.366.834,27.562,27.562,0,0,1,9,11.172,32.728,32.728,0,0,0-14.36-2.987,73.633,73.633,0,0,0-15.767,2.153.466.466,0,0,0,.1.92,78.335,78.335,0,0,1,17.3,1.775,74.819,74.819,0,0,0-18.4.348c-6.409,1.049-13.082,2.535-18.264,6.677,5.363-3.583,13.175-4.711,18.453-5.367a80.29,80.29,0,0,1,15.483-.456.459.459,0,0,0,.389.372c3.481.45,7.426.961,10.537,3.007,2.408,1.583,4.42,4.605,4.116,7.591q-.181.775-.375,1.55a.466.466,0,0,0,.886.281,6.6,6.6,0,0,0,.408-1.664c.654-2.776,1.212-5.556,1.706-8.285q1.535.381,3.071.8a44.128,44.128,0,0,1-2.445,8.281c-.732,1.768-1.619,3.53-2.477,5.235-.082.161-.163.324-.244.486-1.881-.554-3.947-1.145-6.128-1.738,1.031-2.031,2.18-3.947,3.236-5.7a.466.466,0,0,0-.7-.6l-6.382,5.289-.255-.065c-.91-2.571-1.93-5.091-3.828-6.354a.465.465,0,0,0-.682.58,14.2,14.2,0,0,1,1.224,4.967c-11.754-2.781-24.232-4.571-27.62-.648,3.75-3.925,19.093.306,23.866,1.154,1.261.275,2.52.563,3.779.846a14.03,14.03,0,0,1-2.815,8.131l.636-4.515a.466.466,0,0,0-.9-.238c-.957,2.4-4.449,2.6-5.908,2.574-.286-.005-.574-.014-.864-.023-2.336-.071-4.748-.141-6.6,1.324a.466.466,0,0,0,.289.831h0a7.054,7.054,0,0,1,4.2,1.455l-4.048.512a2.369,2.369,0,0,0-.555.074.466.466,0,0,0,.175.913l.439-.055a1.614,1.614,0,0,1,.848.261l-3.568,4.15a.466.466,0,0,0-.058.522.449.449,0,0,0,.465.244,5.372,5.372,0,0,1,5.557,6.086c-.009.039-.017.078-.026.116a.466.466,0,0,0,.91.2c.009-.04.019-.081.027-.121a7.273,7.273,0,0,1,2.94-4.3l-.656,3.6a.466.466,0,0,0,.773.427l1.978-1.809,5.066,9.912a4.949,4.949,0,0,0,2.54,2.772,2.713,2.713,0,0,0,.868.143,2.948,2.948,0,0,0,1.4-.368,5.815,5.815,0,0,0,2.571-3.536c.941-3.5.191-7.087-.534-10.558a35.219,35.219,0,0,1-.973-6.875,23.829,23.829,0,0,1,2.662-10.269q3.126.733,6.246,1.483a40.121,40.121,0,0,0-3.143,7.833,15.278,15.278,0,0,0-1.425,8.086,21.36,21.36,0,0,0,.8,3.271,24.787,24.787,0,0,1,.686,2.637c.823,4.507-.952,9.1-3,13.8a.465.465,0,0,0,.13.546.447.447,0,0,0,.147.053c-.159.125-.307.235-.434.325a37.952,37.952,0,0,1-12.52,5.784.466.466,0,0,0,.183.912l10.954-1.6c-2.314,2.18-5.608,3.2-8.806,4.2l-.678.212c-3.926,1.23-8.19,3-10.045,6.82a.467.467,0,0,0,.675.594,24.522,24.522,0,0,1,15.583-3.482,33.2,33.2,0,0,1,3.456.5,19.407,19.407,0,0,1,2.049.848,12.074,12.074,0,0,0-4.55,1.66.466.466,0,0,0,.28.861,31.533,31.533,0,0,1,10.321.969,85.629,85.629,0,0,1,4.791,7.781,16.842,16.842,0,0,0-10.579-1.482.467.467,0,0,0-.059.9l1.87.633a24.657,24.657,0,0,0-7.331,1.957.466.466,0,0,0,.26.887,13.738,13.738,0,0,1,7.338.884,14.522,14.522,0,0,0-3.538.774.466.466,0,0,0,.066.9,26.657,26.657,0,0,1,14.232,7.945,55.18,55.18,0,0,1,3.822,11.2l-5.029-1.676a.466.466,0,0,0-.614.445,18.355,18.355,0,0,0,1.329,6.691.464.464,0,0,0,.084.232,16.483,16.483,0,0,1-3-3.023.465.465,0,0,0-.8.113A18.609,18.609,0,0,0,443.9,294.4a62.549,62.549,0,0,1-15.534-10.686,16.79,16.79,0,0,0,2.545.228,11.616,11.616,0,0,0,5.306-1.19.468.468,0,0,0,.251-.48.463.463,0,0,0-.373-.393,16.631,16.631,0,0,1-9.627-5.838,23.262,23.262,0,0,0,8.381,1.211.466.466,0,0,0,.047-.927,17.943,17.943,0,0,1-10.991-6.082,36.216,36.216,0,0,1-2.169-2.946c-.679-.99-1.38-2.015-2.172-2.958a10.755,10.755,0,0,0-5.282-3.663,3.866,3.866,0,0,1,1.656-.431.466.466,0,0,0,.221-.868,18.9,18.9,0,0,0-5.532-2.134,9.141,9.141,0,0,0,1.747-.915.466.466,0,0,0-.243-.852,60.851,60.851,0,0,1-9.53-.842,19.837,19.837,0,0,1-8.587-3.676.466.466,0,0,0-.586.725c.674.557,1.468,1.352,2.386,2.272.449.451.931.933,1.433,1.42a5.37,5.37,0,0,0-1.578.1.466.466,0,0,0-.052.9,15.468,15.468,0,0,1,9.63,10.024,15.6,15.6,0,0,0-8.63-1.417.465.465,0,0,0-.342.7l2.692,4.461a48.568,48.568,0,0,1-7.731-.5,35.133,35.133,0,0,1-2.718-2.475.466.466,0,0,0-.794.36,16.268,16.268,0,0,0,1.048,4.911c-5.911-.413-10.525-.342-15.044,2.853a.466.466,0,0,0,.223.844c.28.028,1.581.305,2.729.55.733.155,1.334.283,1.8.378-2.8,1.875-7.314,1.195-10.762.225a11.1,11.1,0,0,1-7.629-7.818.466.466,0,0,0-.918.119l.016,1.938c-.056-.143-.11-.284-.165-.425-.907-2.354-1.845-4.787-3.989-6.184a.466.466,0,0,0-.7.54l.382,1.123c-1.613-1.194-3.418-2.011-4.426-1.244a.465.465,0,0,0,.026.761c4.024,2.638,5,5.758,6.029,9.061.93,2.978,1.892,6.056,4.993,9.157a.467.467,0,0,0,.743-.114,6.127,6.127,0,0,0,.654-3.352c2.772,2.548,6.508,5.956,9.694,7.453a.467.467,0,0,0,.655-.517l-.868-4.176c7.9,2.244,13.118,4.28,17.774,11.336a.466.466,0,0,0,.845-.354,23.709,23.709,0,0,0-3.554-8.306,17.034,17.034,0,0,0,6.671,1.5.446.446,0,0,0,.459-.345.466.466,0,0,0-.224-.528,8.587,8.587,0,0,1-3.509-3.667c5.261-2.412,11.532,1.492,12.581,2.834a.466.466,0,0,0,.833-.3c-.141-4.714-2.93-7.019-6.339-8.531a25.7,25.7,0,0,0,6.455-1.788,44.631,44.631,0,0,1,7.5,2.448.467.467,0,0,0,.6-.639,16.362,16.362,0,0,0-.913-1.574,56.017,56.017,0,0,0,11.954,6.661c.329.126.644.22.966.331a37.139,37.139,0,0,0,17.633,14.711l-2.67-.062a.465.465,0,0,0-.3.834,17.888,17.888,0,0,1,4.725,5.543,52.466,52.466,0,0,0-6.631-1.133l-.193-.024a.462.462,0,0,0-.485.275.468.468,0,0,0,.127.543,6.361,6.361,0,0,1,1.787,2.506c-.808-.076-1.615-.157-2.423-.226a150.482,150.482,0,0,0-21.228-.5c-2.175-.456-4.359-.868-6.547-1.259.1-.154.2-.307.3-.466a.466.466,0,0,0-.616-.65c-.516.267-1.039.533-1.567.793-.641-.109-1.279-.227-1.92-.33,0-.01,0-.02-.006-.03a.464.464,0,0,0-.6-.263c-.142.053-.29.087-.434.136-3.3-.51-6.62-.948-9.957-1.289q-2.172-.2-4.352-.368a6.368,6.368,0,0,1-1.269-1.162.466.466,0,0,0-.732.578c.12.158.25.307.372.464a137.469,137.469,0,0,0-26.635.245l-1.933-.76a1.367,1.367,0,0,0-.785-.12,1.2,1.2,0,0,0-.2.064,1.384,1.384,0,0,1-.8.038.457.457,0,0,0-.22.023l-.956.341a.465.465,0,0,0-.308.436,1.081,1.081,0,0,0,1,1.01,2.362,2.362,0,0,0,.888-.111l.139-.036c.093-.024.191-.023.285-.039v0a1.609,1.609,0,0,0,1.01,1.012,2.046,2.046,0,0,0,.617.091,4.344,4.344,0,0,0,1.389-.3.452.452,0,0,0,.112-.076.916.916,0,0,0,.311.1.792.792,0,0,0,.085,0,.742.742,0,0,0,.469-.166.646.646,0,0,0,.24-.442.735.735,0,0,0-.459-.7c5.214-.139,10.441.087,15.651.238,3.828.131,7.585.344,11.3.639a40.219,40.219,0,0,0,4.8,4.734c-.506.089-1.013.167-1.517.26l-.156.031L389.1,308a.468.468,0,0,0-.43.4c0,.008,0,.016,0,.024-.1.021-.2.038-.3.059q-4.935-.4-9.753-.434a16.953,16.953,0,0,0-1.783-4.7.466.466,0,0,0-.861.331,24.618,24.618,0,0,1,.433,3.763c.012.2.028.409.042.613a88.086,88.086,0,0,0-21.43,2.651,132.607,132.607,0,0,1,21.527-1.5c.024.241.043.483.074.72a12.149,12.149,0,0,1,.1,1.65c-1.685.553-3.349,1.166-5,1.82l-1-.581a.466.466,0,0,0-.694.329,1.507,1.507,0,0,0-.019.276c-1.044-.446-2.106-.863-3.169-1.247a.467.467,0,0,0-.613.541,2.838,2.838,0,0,0,2.664,1.852,48.587,48.587,0,0,0-4.421,2.055c-5.388-1.585-10.5-2.312-14.932-1.674,4.479-.317,8.994.785,13.231,2.164.194.063.378.129.57.193a13.38,13.38,0,0,0-1.772,1.358,14.577,14.577,0,0,1,2.034-1.269c1.064.358,2.091.728,3.1,1.105-.209-.022-.415-.062-.625-.071a.462.462,0,0,0-.461.311.494.494,0,0,0-.026.142,4.542,4.542,0,0,0-2.682-.159.466.466,0,0,0-.044.888,10.878,10.878,0,0,0,2.534.7c.3.034.611.043.917.049.06.05.118.1.173.157a.469.469,0,0,0,.325.131.476.476,0,0,0,.208-.048.465.465,0,0,0,.208-.208c.089.007.177.016.267.028.56.074,1.416.187,1.827-.5a.461.461,0,0,0,.032-.387c1.058.43,2.1.876,3.15,1.341a12.4,12.4,0,0,1-3.153,2.028.466.466,0,0,0,.02.861,21.158,21.158,0,0,1-7.16.839.448.448,0,0,0-.461.3.465.465,0,0,0,.142.53,10.049,10.049,0,0,0,6.239,2.172,9.607,9.607,0,0,0,1.606-.134,9.836,9.836,0,0,0,3.191-1.146c3.925-.036,5.863.948,7.248,2.6-2.088.84-6.121,4.482-9.417,7.682-6.419-7.255-15.691-17.55-24.859-18.9,3.929.83,7.193,3.206,10.2,5.763l-.372-.262a.464.464,0,0,0-.471-.039c-1.106.532-2.563.127-3.845-.293a83.509,83.509,0,0,1-10.08-3.794,28.523,28.523,0,0,1-5.8-3.615,56.327,56.327,0,0,1,.208-7.371,3,3,0,0,1,.362-1.4,3.153,3.153,0,0,1,.631-.62c.16-.131.319-.262.466-.405a3.6,3.6,0,0,0,.737-1.108,24.721,24.721,0,0,0,1.536-2.664,13.789,13.789,0,0,1,2.728-4.036,13.514,13.514,0,0,1,4.852-2.422,16.191,16.191,0,0,0,4.76-2.251,4.644,4.644,0,0,0,1.857-2.715,5.372,5.372,0,0,0-.125-2.155c-.708-3.266-2.576-6.833-5.694-7.049a.48.48,0,0,0-.414.2.462.462,0,0,0-.043.457,17.86,17.86,0,0,1,1.514,5.971,6.928,6.928,0,0,1-.889,4.571,3.051,3.051,0,0,1-3.8,1.171,5.213,5.213,0,0,1-.79-.619,2.783,2.783,0,0,0-4.317-.043c-.788.592-2.255,1.694-2.281,3.265a4.457,4.457,0,0,0,.434,1.75c.085.209.169.419.236.632a5.974,5.974,0,0,1-.225,3.784,10.9,10.9,0,0,1-.487,1.109,1.69,1.69,0,0,1-.28.24,1.236,1.236,0,0,1-1.246.1c-.455-.262-.692-.9-.7-1.9v-.24a4.017,4.017,0,0,0-.586-2.545.464.464,0,0,0-.559-.141,2.788,2.788,0,0,0-1.434,2.439,10.622,10.622,0,0,0-.017,1.071,6.812,6.812,0,0,1-.061,1.353c-.037.2-.131.547-.349.657a.826.826,0,0,1-.608-.037,2.362,2.362,0,0,1-1.089-.835,14.359,14.359,0,0,1-.875-1.891,6.927,6.927,0,0,1-.369-3.973c.066-.274.154-.544.242-.814a5.631,5.631,0,0,0,.384-1.959c-.068-1.861-1.791-3.182-3.364-3.622a3.477,3.477,0,0,0-2.887.273,4.372,4.372,0,0,0-.7.64,2.431,2.431,0,0,1-.728.6,1.328,1.328,0,0,1-1.287-.237,3.085,3.085,0,0,1-.912-1.315,9.12,9.12,0,0,1-.32-5.334,28.389,28.389,0,0,1,1.858-5.284.466.466,0,0,0-.7-.562,14.62,14.62,0,0,0-5.112,6.179,6.449,6.449,0,0,0-.644,3.056,5.488,5.488,0,0,0,1.418,3.055,8.81,8.81,0,0,0,3.587,2.519c.431.162.875.29,1.318.418a10.876,10.876,0,0,1,1.777.62c1.826.889,2.991,2.738,3.978,4.605l.334.638a24.84,24.84,0,0,0,1.833,3.129,6.1,6.1,0,0,0,.6,1.488c.173.314.362.618.551.922a12.455,12.455,0,0,1,.727,1.271,12.909,12.909,0,0,1,.918,4.3,8.059,8.059,0,0,1-.118,3.229,3.777,3.777,0,0,1-.251.588,23.976,23.976,0,0,1-5,3.673,64.748,64.748,0,0,1-8.582,3.788c-1.067.41-2.282.806-3.177.3a.467.467,0,0,0-.526.047l-5.794,4.782a.466.466,0,0,0,.3.825.463.463,0,0,0,.155-.026l1.639-.578c5.359-1.887,10.9-3.839,16.427-6.159a17.375,17.375,0,0,0,5.034-2.876c.066-.036.137-.063.2-.1.128-.077.255-.16.382-.244a2.474,2.474,0,0,1,1.212-.538,2.718,2.718,0,0,1,.937.272l.194.082a9.513,9.513,0,0,0,1.612.483,26.482,26.482,0,0,0,4.814,2.124c6.477,2.319,12.974,4.27,19.257,6.156l1.551.466c2.709,2.708,5.3,5.539,7.853,8.391.1.116.2.235.3.351-1.8,1.771-3.284,3.308-3.936,3.991a.416.416,0,0,0-.092.139c-.077.178-1.49,3.487-2.295,5.521a6.541,6.541,0,0,1-.457-2.6.466.466,0,0,0-.643-.584,12.271,12.271,0,0,0-3.458,2.451A12.394,12.394,0,0,1,357.3,347.8a21.278,21.278,0,0,1-3.23,1.721l3.415-5.092a.465.465,0,0,0-.614-.666,19.9,19.9,0,0,0-4.7,3.656l-.585-1.132a.467.467,0,0,0-.38-.251.482.482,0,0,0-.412.192,16.014,16.014,0,0,1-6.426,5.2l-.283-1.151a.462.462,0,0,0-.23-.3.469.469,0,0,0-.375-.031l-8.8,3.061a1.981,1.981,0,0,0-.374-1.055,1.511,1.511,0,0,0-1.962-.434,1.239,1.239,0,0,0-.544.912,11.1,11.1,0,0,1-3.525-2.071.467.467,0,0,0-.753.215l-.43,1.406a9.05,9.05,0,0,0-3.963-3.447c-.334-.174-.675-.344-1.016-.514a11.743,11.743,0,0,1-4.123-2.834.466.466,0,0,0-.821.2,8.215,8.215,0,0,1-.957,2.481,11.06,11.06,0,0,0-2.84-4.576.466.466,0,0,0-.789.337l0,.887a3.906,3.906,0,0,0-1.222-.862,46.869,46.869,0,0,0-8.277-7.24C302.042,335.725,300.952,335.079,299.9,334.454ZM240.287,172.76a21.544,21.544,0,0,1,1.081-3.187c.372.077.745.142,1.115.221q2.053.475,4.123.944A13.463,13.463,0,0,0,240.287,172.76Zm12.3-.584a66.866,66.866,0,0,1,14.875,5.42c.261.154.51.324.768.482a58.794,58.794,0,0,0-9.02.185c-2.283.223-4.556.526-6.824.861a14.527,14.527,0,0,0-10.347-1.381A12.9,12.9,0,0,1,252.587,172.176Zm-12-12.847c.008-.045.023-.092.032-.138l.162-.023C240.718,159.222,240.651,159.273,240.588,159.329ZM376.662,312.787a12.241,12.241,0,0,1-3.183,7.132,82.781,82.781,0,0,0-8.559-3.163c1.822-.795,3.758-1.383,5.629-2.059.022,0,.048,0,.07.006l.312.141a.461.461,0,0,0,.353.014,1.988,1.988,0,0,1,.488.249.466.466,0,0,0,.61-.062l.115-.124.14.082a.465.465,0,0,0,.689-.305l.21-.966Q375.095,313.242,376.662,312.787Zm24.344,61.056H390.7a19.411,19.411,0,0,1,6.342-4.489,12.008,12.008,0,0,0,4.285-3.178l.209,4.828a.466.466,0,0,0,.3.415.47.47,0,0,0,.259.019A15.861,15.861,0,0,0,401.006,373.843Zm1.008-23.924a.466.466,0,0,0-.255.478c.57,4.357-1.357,9.3-5.157,13.213a43.538,43.538,0,0,1-10.375,7.356,6.13,6.13,0,0,0,.651-3.135.467.467,0,0,0-.777-.316l-3.974,3.559a13.867,13.867,0,0,0-.583-6.7.467.467,0,0,0-.406-.311.448.448,0,0,0-.448.249,32.172,32.172,0,0,1-7.868,9.528H315.078a19.04,19.04,0,0,1,.913-6.509.466.466,0,0,0-.567-.58c-2.027.538-3.107,2.64-3.414,4.276a13.95,13.95,0,0,0-.181,2.813h-8.6a.458.458,0,0,0,.068-.189,15.584,15.584,0,0,1,3.339-8.823,10.128,10.128,0,0,0,1.9,3.287.482.482,0,0,0,.371.16.463.463,0,0,0,.356-.189l6.405-8.7a6.111,6.111,0,0,0,1.673-2.272l.9-1.219c.037-.049.086-.12.141-.2a53.335,53.335,0,0,1,13.546,9.7.466.466,0,0,0,.327.134.461.461,0,0,0,.211-.05.466.466,0,0,0,.249-.485,5.653,5.653,0,0,1,1.367-4.528,6.123,6.123,0,0,0,5.651,4.542h.006a.466.466,0,0,0,.457-.556c-.306-1.546.963-3.078,2.356-3.91a18.545,18.545,0,0,1,2.141-1.039,15.653,15.653,0,0,0,2.74-1.41,11.037,11.037,0,0,0,2.362-2.33,34.433,34.433,0,0,1,4.49-1.813,17.345,17.345,0,0,1,9.868-.471.465.465,0,0,0,.581-.552L364.1,350.2a46.391,46.391,0,0,0,12.759-1.651.466.466,0,0,0,.249-.729c-.868-1.157-1.68-2.477-1.412-3.656,4.6,5.417,9.154,10.882,13.776,16.285,1.317,1.55,2.775,3.283,4.011,4.732q-1.381-1.909-2.783-3.8-6.9-9.356-14.357-18.285a4.951,4.951,0,0,1,1.735-.977,14.969,14.969,0,0,1,9.131-.3.47.47,0,0,0,.475-.137.465.465,0,0,0,.084-.487l-.466-1.141a29.56,29.56,0,0,0,8.372,1.22,28.648,28.648,0,0,0,8.735-1.35.465.465,0,0,0,.324-.447.442.442,0,0,0-.068-.2c8.059,5.463,15.848,11.295,23.476,17.248a22.009,22.009,0,0,0-5.377,2.6,34.785,34.785,0,0,1-4.274,2.326,8.113,8.113,0,0,1-2.607.557c-2.291.236-5.143.529-10.242,5.056-.256.228-.5.463-.74.7a16.028,16.028,0,0,0,1.833-6.245l1.1,2.664a.466.466,0,0,0,.872-.03,33.091,33.091,0,0,0,1.573-13.305,21.4,21.4,0,0,0-1.737-6.521.466.466,0,0,0-.876.313,13.734,13.734,0,0,1-1.084,10.546,26.445,26.445,0,0,0-4.04-5.174A.466.466,0,0,0,402.014,349.919Zm60.806,47A4.179,4.179,0,0,0,461.463,395a.466.466,0,0,0-.729.253,14.356,14.356,0,0,1-1.586,4.189l-.02.028a1.454,1.454,0,0,1-.347-.408,5.427,5.427,0,0,1-.485-1.578,30.918,30.918,0,0,1-.459-5.812,25.3,25.3,0,0,0-1.141-8.485,1.007,1.007,0,0,0-1.174-.755,1.311,1.311,0,0,0-.83,1.54,36.783,36.783,0,0,1,.2,10.068c-.577,4.151-2.779,8.646-5.871,9.208a1.447,1.447,0,0,1-1.61-.563,6.294,6.294,0,0,1-.5-3.073,34.79,34.79,0,0,0-.281-3.726c-.149-1.2-.9-1.755-1.568-1.77a1.707,1.707,0,0,0-1.565,1.616,12.825,12.825,0,0,1-1.758,5.039c-2.4,3.5-6.27,4.688-9.4,2.9a5.036,5.036,0,0,1-2.4-2.932c-.511-1.72-.131-3.7.235-5.612.061-.313.121-.625.176-.933a34.176,34.176,0,0,0-1.31-16.948.8.8,0,0,0-.909-.587.979.979,0,0,0-.689,1.088,51.448,51.448,0,0,1-1.569,16.961,11.329,11.329,0,0,1-1.493,3.622c-.515.7-1.4,1.367-2.216.947a4.63,4.63,0,0,1-1.3-1.369,4.435,4.435,0,0,0-1.85-1.733c-.873-.308-1.715.439-2.531,1.164-.514.456-1.1.972-1.456.981h-.006c-.525,0-2.667-1.646-4.377-3.211-.283-.55-.547-1.123-.794-1.714-.168-.89-.311-1.821-.445-2.774a58.934,58.934,0,0,1-.184-10.641.466.466,0,0,0-.889-.214,20.2,20.2,0,0,0-1.181,12.921c-2.923-2.339-4.686-6.814-4.372-11.372a18.422,18.422,0,0,1,6.151-12.244c2.81-2.48,6.481-5.124,9.952-3.556l.132.061c.736.336,1.743.8,2.577.147a2.967,2.967,0,0,0,.811-1.268l.113-.264c.944-2.115,3.115-3.139,4.666-3.726a20.463,20.463,0,0,1,4.555-1.123q3.343,2.639,6.654,5.289a131.685,131.685,0,0,1,11.365,10.218l.124,0a99.262,99.262,0,0,0-10.586-10.7c-1.929-1.695-3.9-3.344-5.882-4.971a44.814,44.814,0,0,1,11.674,1.057,42.283,42.283,0,0,1,7.051,2.114c.513.3,1.075.617,1.724.98a28.084,28.084,0,0,1,5.556,3.629,30.331,30.331,0,0,1,6.485,10.054C467.431,383.808,466.157,391.738,462.82,396.92Z"/><path d="M377.252,235.6a24.827,24.827,0,0,0,3.922.307c.651.016,1.3.032,1.951.075a23.694,23.694,0,0,1,16.2,8.024c.177.2.352.411.529.62a9.59,9.59,0,0,0,3.664,3.1.442.442,0,0,0,.167.032.467.467,0,0,0,.431-.645,23.92,23.92,0,0,0-7.222-9.5,41.777,41.777,0,0,1,9.576,5.618.466.466,0,0,0,.7-.56,14.414,14.414,0,0,0-7.641-7.543c1.458.034,2.917.113,4.364.238a.447.447,0,0,0,.486-.332.464.464,0,0,0-.227-.543,34.2,34.2,0,0,0-22.046-3.5l-.529.1a11.812,11.812,0,0,1-2.89.3A3.389,3.389,0,0,1,376,230.023a.466.466,0,0,0-.83.412,7,7,0,0,0,2.283,3,18.516,18.516,0,0,1-4.759-1.63.466.466,0,0,0-.608.659A7.635,7.635,0,0,0,377.252,235.6Z"/></svg>