<svg id="bb9facca-9b57-4e19-ae1d-ea5d257dc9f3" data-name="Layer 2" xmlns="http://www.w3.org/2000/svg" viewBox="0 0 762 503.101" style="fill: #215342;" height="300" width="350" transform="translate(-5, -30)"><path d="M295.632,198.114a.5.5,0,0,0-.965-.225,17.278,17.278,0,0,1-7.468,8.667,11.615,11.615,0,0,0,1.611-2.894.5.5,0,0,0-.094-.511.5.5,0,0,0-.5-.151l-.762.193c-.019-.155-.04-.347-.047-.6a35.5,35.5,0,0,0-10.576-24.267.5.5,0,0,0-.842.447l.146.807a28.958,28.958,0,0,0-17.153-3.8l1.061-.566a.5.5,0,0,0-.269-.94,69.105,69.105,0,0,0-14.545,2.117,36.889,36.889,0,0,0-8.658,2.4l2.832-3.436a.5.5,0,0,0,.068-.53.566.566,0,0,0-.54-.288,20.328,20.328,0,0,0-12.248,4.174l.364-1.441a.5.5,0,0,0-.829-.485l-4.32,4.11a.907.907,0,0,1-.216.171.966.966,0,0,1-.227-.756,10.13,10.13,0,0,1,.235-1.347c.182-.82.326-1.467-.03-1.914a.978.978,0,0,0-.8-.348h0a.5.5,0,0,0-.453.286,12.609,12.609,0,0,0,3.134,14.576.5.5,0,0,0,.824-.367l.06-2.185a2.346,2.346,0,0,0,.586.91,1.5,1.5,0,0,0,1.161.365,1.111,1.111,0,0,0,.805-.489,1.6,1.6,0,0,0,.149-1.169,2.53,2.53,0,0,1-.034-.33c0-.5.432-.981,1.364-1.515a41.717,41.717,0,0,1,5.086-2.471,2.924,2.924,0,0,1-1.692,1.278.5.5,0,0,0,.238.971c4.289-.966,8.725-1.965,12.612-4.292.5-.3.994-.623,1.485-.945.7-.459,1.374-.9,2.072-1.273a19.837,19.837,0,0,0,10.589,24.367.5.5,0,0,0,.45-.892c-4.583-2.532-7.708-7.769-8.155-13.667-.146-1.913-.134-6.652,3.109-9.348a8.367,8.367,0,0,1,3.223-1.6c.418.044.831.09,1.236.136a.486.486,0,0,0,.538-.361.52.52,0,0,0,.011-.11,17.992,17.992,0,0,1,3.449-.045,26.99,26.99,0,0,1,20.437,12.026,12.281,12.281,0,0,1-5.647,12.771c-4.389,2.542-9.843,2.05-14.609,1.388a.5.5,0,0,0-.469.795c1.717,2.292,4.943,3.566,8.426,3.338a24.97,24.97,0,0,0,7.89-2.231,4.577,4.577,0,0,1-1.009,1.946.5.5,0,0,0-.072.556.511.511,0,0,0,.49.272l2.03-.177a12.415,12.415,0,0,1-6.817,7.5.5.5,0,0,0,.2.96l.059,0a38.391,38.391,0,0,0,7.861-1.552A21.621,21.621,0,0,0,295.632,198.114Z"/><path d="M267.113,197.244h.029a.5.5,0,0,0,.41-.26,17.633,17.633,0,0,0,1.513-12.978,1.92,1.92,0,0,0-.937-1.329,2.31,2.31,0,0,0-1.967.243.5.5,0,0,0-.218.207,13.094,13.094,0,0,0,.761,13.907A.5.5,0,0,0,267.113,197.244Z"/><path d="M271.956,214.666a.5.5,0,0,0-.542-.35,27.443,27.443,0,0,1-11.771-1.066l2.176-.283a.5.5,0,0,0,.072-.976c-3.685-1.051-7.354-2.278-10.944-3.659a14.655,14.655,0,0,0,1.768-.183.5.5,0,0,0,.156-.933,32.015,32.015,0,0,1-11.822-10.994.543.543,0,0,0-.428-.232c-1.219.014-1.666,1.032-1.844,2.317a45.95,45.95,0,0,1-2.522-8.795.5.5,0,0,0-.478-.411h-.014a.5.5,0,0,0-.486.383,21.933,21.933,0,0,0-.383,8.214l-1.4-2.047a.5.5,0,0,0-.906.2,12.892,12.892,0,0,0,1.295,8.035l-.86-.565a.5.5,0,0,0-.757.551,16.465,16.465,0,0,0,4.424,7.216,37.344,37.344,0,0,0,6.688,5.075,36.927,36.927,0,0,0,9.824,4.643,19.219,19.219,0,0,0,4.955.673,14.679,14.679,0,0,0,5.917-1.174.5.5,0,0,0-.152-.955A16.022,16.022,0,0,1,259,218.023a26.324,26.324,0,0,0,12.706-2.764A.5.5,0,0,0,271.956,214.666Z"/><path d="M413.886,230.229A54.513,54.513,0,0,1,392.9,227.71a.5.5,0,0,0-.557.773l1.315,1.77a9.2,9.2,0,0,1-3.947-1.024.5.5,0,0,0-.627.748l1.294,1.7a24.349,24.349,0,0,1-11.012,1.607.482.482,0,0,0-.53.384.5.5,0,0,0,.3.579,55.344,55.344,0,0,0,8.2,2.281l-2.993.457a.5.5,0,0,0,0,.988,67.256,67.256,0,0,0,21.779-.09.5.5,0,0,0,.247-.869,12.983,12.983,0,0,0-3.87-2.353,64.587,64.587,0,0,0,11.616-3.468.5.5,0,0,0,.3-.577A.49.49,0,0,0,413.886,230.229Z"/><path d="M357.883,123.762a28.249,28.249,0,0,0,7.62-1.269l1.022-.3c4.324-1.259,8.794-2.562,12.889-1.143a.5.5,0,0,0,.511-.833,22.931,22.931,0,0,0-11.334-5.941l5.273-1.777a.5.5,0,0,0,.01-.944,15.906,15.906,0,0,0-8.976-.655c10.238-15.149,26.881-31.183,41.6-45.366,3.953-3.809,7.688-7.406,11.049-10.754a.5.5,0,0,0-.638-.765c-19.2,13.343-47.04,37.665-62.294,62.3a.5.5,0,0,0,.678.694l4.683-2.749a3.26,3.26,0,0,1-.073,2.957c-1.218,2.163-5.305,3.425-8.586,3.682a.5.5,0,0,0-.253.905A11.458,11.458,0,0,0,357.883,123.762Z"/><path d="M392.193,129.762a28.512,28.512,0,0,0,11.29-1.13l-3.427,3.831a.5.5,0,0,0,.484.821l5.293-1.2-2.494,2.979a.5.5,0,0,0-.038.589.506.506,0,0,0,.55.215,10.088,10.088,0,0,1,9.792,2.895l-4.194.845a.5.5,0,0,0-.21.884,30.553,30.553,0,0,0,9.813,5.129l-6.97,1.217a.5.5,0,0,0-.187.912,13.578,13.578,0,0,0,14.009.329,13.577,13.577,0,0,0,6.533-12.4.5.5,0,0,0-.954-.173,8.409,8.409,0,0,1-6.281,4.685,42.209,42.209,0,0,1,4.738-22.965.5.5,0,0,0-.637-.7,76.693,76.693,0,0,0-17.719,10.511l2.729-4.9a.5.5,0,0,0-.594-.718l-13.916,4.6a16.311,16.311,0,0,1-4.97,1.09c-.3,0-.645-.02-.952-.04-.933-.06-1.813-.117-2.233.487a2.045,2.045,0,0,0,.138,1.909A.5.5,0,0,0,392.193,129.762Z"/><path d="M332.117,196.344a.5.5,0,0,0-.948.144c-1.045,7.617,1.958,14.711,7.652,18.072a.5.5,0,0,0,.253.069.5.5,0,0,0,.455-.709,10.957,10.957,0,0,1-.994-4.255,1.757,1.757,0,0,1,.365-1.395.534.534,0,0,1,.523-.052h0c.057.114.114.226.171.335a.5.5,0,0,0,.944-.241,1.081,1.081,0,0,0-.32-.745,3.524,3.524,0,0,1-.406-1.412,1.244,1.244,0,0,1,.79-1.257c.719-.146,1.346.675,1.971,1.461a10.847,10.847,0,0,0,9.137,4.017.5.5,0,0,0,.137-.968c-3.941-1.447-7-5.21-9.344-11.506-.876-2.349-1.662-5.075-.847-7.486.579-1.713,1.931-3.248,4.254-4.829a28.971,28.971,0,0,1,21.227-4.534c2.728.487,4.474,1.352,5.491,2.722,1.184,1.594,1.251,3.777,1.178,5.5a31.663,31.663,0,0,1-5.434,16.324.5.5,0,0,0,.632.732c3.293-1.6,5.913-4.834,7.38-9.094a43.01,43.01,0,0,0,1.8-11.077c.3.018.6,0,.9.011,1.043.353,2.107.644,3.156.927a23.506,23.506,0,0,1,6.174,2.286,9.627,9.627,0,0,0-3.863,1.7.5.5,0,0,0-.169.579.484.484,0,0,0,.511.32,19.722,19.722,0,0,1,13.854,4.261,15.173,15.173,0,0,0-6,3.674.5.5,0,0,0-.1.557.494.494,0,0,0,.483.3c3.7-.2,7.835-.419,11.545.8a8.463,8.463,0,0,0-4,2.859.5.5,0,0,0,.576.771c4.05-1.549,8.758-.115,12.538,1.036a40.86,40.86,0,0,0,5.905,1.431,16.244,16.244,0,0,0,9.726,3.713,11.723,11.723,0,0,0,1.394-.083.5.5,0,0,0,.313-.829,20.578,20.578,0,0,1-4.679-9.013l2.555,1.461a.5.5,0,0,0,.748-.44,91.163,91.163,0,0,0-3.768-24.749l2.038.407a.5.5,0,0,0,.45-.845,17.99,17.99,0,0,1-4.232-6.639,2.712,2.712,0,0,1,2.269.615.5.5,0,0,0,.731-.676,42.638,42.638,0,0,0-12.793-12.049.5.5,0,0,0-.7.669l4.986,8.852c.385.685.708,1.392.456,1.916a.5.5,0,0,1-.429.209.649.649,0,0,1-.22-.027l-.163-.383a.5.5,0,0,0-.951.1,1.01,1.01,0,0,0,.318.965l2.467,5.81-.578-.144a.5.5,0,0,0-.6.626l1.57,5.33-.4-.322a.5.5,0,0,0-.8.51l1.88,7.462-1.14-.977a.5.5,0,0,0-.815.483l1.635,7.716c-3.6-1.3-6.262-4.494-8.841-7.594l-.449-.539c-2.977-3.566-6.662-7.238-11.43-7.439a.467.467,0,0,0-.5.349.5.5,0,0,0,.207.571l3.213,2.06-.37.006a24.9,24.9,0,0,0-10.036-2.271H392.7l1.328-1.253a.5.5,0,0,0-.453-.851,43.585,43.585,0,0,1-16.695.448l-4.342-1.31a56.787,56.787,0,0,0-7.6-1.913,28.919,28.919,0,0,0-21.56,5.421l.249-.754a.5.5,0,0,0-.744-.578,21.685,21.685,0,0,0-9.685,16.977Z"/><path d="M383.624,209.8a.5.5,0,0,0-.6-.118A16.147,16.147,0,0,1,379.34,211l3-3.65a.5.5,0,0,0-.7-.71A50.679,50.679,0,0,1,353.7,217.313a.5.5,0,0,0-.087.985l2.344.575a34.955,34.955,0,0,1-6.162.678h-.061a14.5,14.5,0,0,1-7.866-2.036.5.5,0,0,0-.433-.053,1.387,1.387,0,0,0-1.044.966c0,.017-.007.035-.009.053a10.219,10.219,0,0,1-3.048-2.363.5.5,0,0,0-.861.451,17.142,17.142,0,0,0,11.078,11.89.47.47,0,0,0,.155.025.5.5,0,0,0,.371-.835l-1.585-1.753a44.623,44.623,0,0,0,26.852-1.563.5.5,0,0,0-.106-.961l-1.77-.263a23.463,23.463,0,0,0,6.349-4.985,65.314,65.314,0,0,0,5.841-7.709A.5.5,0,0,0,383.624,209.8Z"/><path d="M358.607,200.627l.059,0a.938.938,0,0,0,.685-.377,1.9,1.9,0,0,0,.322-1.077,28.81,28.81,0,0,0-1.023-9.759,5.061,5.061,0,0,0-.79-1.77,2.224,2.224,0,0,0-1.971-.917,2.179,2.179,0,0,0-1.622,1.226,4.507,4.507,0,0,0-.409,1.774,13.806,13.806,0,0,0,3.994,10.564h0A1.078,1.078,0,0,0,358.607,200.627Z"/><path d="M295.084,193.319a.5.5,0,0,0,.423.233.493.493,0,0,0,.176-.032.5.5,0,0,0,.318-.544c-1.046-6.784-2.122-13.763-2.069-20.724l.276,1.187a.5.5,0,0,0,.945.089,34.34,34.34,0,0,0,1.636-22.767.5.5,0,0,0-.546-.361.493.493,0,0,0-.217.082c-.383-1.761-.774-3.4-1.175-4.649a.5.5,0,0,0-.975.193,57.754,57.754,0,0,1-4.552,27.624l-1.7-2.346a2.861,2.861,0,0,0-.323-.442.5.5,0,0,0-.778.625l.262.364a2.336,2.336,0,0,1,.255,1.488,2.23,2.23,0,0,1-.976,1.6.5.5,0,0,0-.2.616A117.649,117.649,0,0,0,295.084,193.319Z"/><path d="M335.49,176.558a.5.5,0,0,0-.345-.918,11.826,11.826,0,0,0-5.077,2.13l.46-1a.5.5,0,0,0-.661-.664l-.666.3-.461-6.606c-.357-5.125-.451-10.43,2.6-14.025a.5.5,0,0,0-.637-.753c-5.141,3.058-6.367,9.792-6.639,13.535-.116,1.586-.142,3.2-.167,4.771a41.825,41.825,0,0,1-.816,9.13,7.021,7.021,0,0,1-.348-4.037.5.5,0,0,0-.925-.376,26.443,26.443,0,0,0-.244,22.336.5.5,0,0,0,.954-.211A28.172,28.172,0,0,1,335.49,176.558Z"/><path d="M346.107,173.775a.5.5,0,0,0,.238-.061,37.356,37.356,0,0,1,16.3-4.052,113.892,113.892,0,0,1,17.044,1,.5.5,0,0,0,.321-.92,30.275,30.275,0,0,0-20.335-4.305l2.554-2.983a.5.5,0,0,0-.325-.822,10.251,10.251,0,0,0-3.717.284l1.124-1.221a.5.5,0,0,0-.275-.83,8.176,8.176,0,0,0-1.977-.132l.176-.181c1.435-1.481,2.92-3.012,3.213-5.046A.5.5,0,0,0,360.2,154a.5.5,0,0,0-.563.049l-5.6,4.582a3.1,3.1,0,0,0-1.4,2.1,1.56,1.56,0,0,0,.831,1.4l-2.712,3.209a.5.5,0,0,0-.028.61.509.509,0,0,0,.263.191,66.745,66.745,0,0,0-5.3,6.856.5.5,0,0,0,.415.779Z"/><path d="M245.24,166.706a.5.5,0,0,0,.424.9,30.154,30.154,0,0,1,19.846.229c.7.252,1.386.531,2.076.81a22.06,22.06,0,0,0,6.232,1.826l.044,0a.5.5,0,0,0,.467-.678,65.2,65.2,0,0,1-2.794-9.5l.632.255a.5.5,0,0,0,.564-.133.5.5,0,0,0,.059-.577l-.876-1.544.173.085a.5.5,0,0,0,.692-.618,11.67,11.67,0,0,0-3.221-4.764c-.43-.382-.825-.757-1.2-1.111-1.537-1.457-2.752-2.608-4.561-2.651a.51.51,0,0,0-.474.31.5.5,0,0,0,.121.555,15.677,15.677,0,0,1,4.629,8.513l-5.233-1.436a.5.5,0,0,0-.626.559,3.048,3.048,0,0,0,.667,1.465l-1.8-.074a.5.5,0,0,0-.23.953,14.747,14.747,0,0,1,3.646,2.412A29.5,29.5,0,0,0,245.24,166.706Z"/><path d="M309.517,122.386a.5.5,0,0,0,.49-.383l.037-.155a16.93,16.93,0,0,0,.892,3.7.48.48,0,0,0,.485.328.5.5,0,0,0,.422-.257,98.265,98.265,0,0,1-.705,21.92.5.5,0,0,0,.392.561.523.523,0,0,0,.1.011.5.5,0,0,0,.482-.365c2.874-10.235,6.11-21.763,13.507-30.351l-1.34,6.059a.5.5,0,0,0,.946.308,14.72,14.72,0,0,1,3.97-5.323,5.632,5.632,0,0,1-.406,3.536.5.5,0,0,0,.847.52l9.327-11.994a.5.5,0,0,0,.028-.575.507.507,0,0,0-.53-.221,14.923,14.923,0,0,0-6.176,2.978,17.8,17.8,0,0,1,2.326-6.845.5.5,0,0,0-.477-.752,22.533,22.533,0,0,0-16.585,9.989,26.381,26.381,0,0,0-1.25-6.282.487.487,0,0,0-.5-.344.5.5,0,0,0-.464.39l-1.479,6.555a18.617,18.617,0,0,0-6.693-5.361.5.5,0,0,0-.692.566l2.556,11.4A.5.5,0,0,0,309.517,122.386Z"/><path d="M382.866,127.906l-4.343.047a8.367,8.367,0,0,1,2.716-1.639.5.5,0,0,0-.285-.957,78.293,78.293,0,0,1-14.978,1.957.5.5,0,0,0-.3.886c1.183.972,3.357,1.14,5.8,1.171a3.848,3.848,0,0,1-1.527.367.5.5,0,0,0-.028,1A29.759,29.759,0,0,1,385.6,136.81l-.889.291a.5.5,0,0,0,.308.951,5.592,5.592,0,0,1,4.592.825,14.9,14.9,0,0,1,3.574,3.58c.75.972,1.481,1.974,2.216,2.979,3.048,4.174,6.2,8.491,10.845,10.875a.5.5,0,0,0,.721-.535,60.716,60.716,0,0,1-.878-14.2.5.5,0,0,0-.774-.445l-3.64,2.406.319-2.686a.492.492,0,0,0-.124-.393.451.451,0,0,0-.376-.166l-2.246.018a3.015,3.015,0,0,1,2.166-1.577.5.5,0,0,0,.114-.956l-12.576-5.155a3.229,3.229,0,0,1,1.282-.1.5.5,0,0,0,.3-.939,16.8,16.8,0,0,0-7.784-1.89,3.955,3.955,0,0,0,.6-1.129.5.5,0,0,0-.475-.658Z"/><path d="M236.626,150.2h.029a.5.5,0,0,0,.469-.451,11.246,11.246,0,0,1,2.811-6.558l.952.978a.5.5,0,0,0,.827-.175,5.205,5.205,0,0,0,.312-2.157,1.5,1.5,0,0,1,.9.385.5.5,0,0,0,.835-.434l-.246-1.832a40.686,40.686,0,0,0,15.149-6.155.5.5,0,0,0-.1-.882l-2.027-.778,11.237-3.454a.5.5,0,0,0,.172-.863,6.106,6.106,0,0,0-.809-.569l8.727-.439a.5.5,0,0,0,.118-.979,33.761,33.761,0,0,0-20.2.373.5.5,0,0,0,.29.956,3.425,3.425,0,0,1,3.357,1.04,37.774,37.774,0,0,1-10.749,3.534.5.5,0,0,0-.143.939l2.837,1.437a27.475,27.475,0,0,1-10.675,2.619.5.5,0,0,0-.145.972.8.8,0,0,1,.484.733,1.465,1.465,0,0,1-.64,1.365c-1.152.645-2.642-.181-3.071-.448a.5.5,0,0,0-.753.317,5.128,5.128,0,0,0-.1,1.548l-1.515-1.342a.5.5,0,0,0-.82.478l1.994,9.447A.5.5,0,0,0,236.626,150.2Z"/><path d="M220.409,171.589a.5.5,0,0,0,.273.08.5.5,0,0,0,.36-.153,40.207,40.207,0,0,1,18.889-11,.5.5,0,0,0,.032-.961l-5.326-1.735a55.369,55.369,0,0,1,10.857-4.175.5.5,0,0,0,.076-.939,8.265,8.265,0,0,0-5.072-.14l-.609.132a10.978,10.978,0,0,1-4,.389c-1.327-.208-2.777-1.187-2.854-2.589a.5.5,0,0,0-.5-.473h-.006a.5.5,0,0,0-.494.485,12.975,12.975,0,0,1-1.4,5.478,3.7,3.7,0,0,0-1.7-1.842.5.5,0,0,0-.683.228,20.106,20.106,0,0,1-6.632,7.831.5.5,0,0,0,.192.9,6.1,6.1,0,0,0,2.835-.136,38.629,38.629,0,0,0-4.43,8.012A.5.5,0,0,0,220.409,171.589Z"/><path d="M275.823,234.62c-.379.142-.949.355-1.31.443a.5.5,0,0,0-.069-.2.5.5,0,0,0-.4-.239,6.02,6.02,0,0,0-4.068,1.275.5.5,0,0,0,.283.891c.136.008.271.012.407.012a.5.5,0,0,0,.436.746.535.535,0,0,0,.118-.014,18.9,18.9,0,0,0,5.027-2.018.5.5,0,0,0-.428-.9Z"/><path d="M258.838,241.8l-1.039.966c-.093,0-.178.017-.244.026a.491.491,0,0,0-.24.1,9.243,9.243,0,0,0-2.064,2.262.5.5,0,0,0,.76.638l1.637-1.522a.511.511,0,0,0,.206-.084,1.767,1.767,0,0,0,.691-.681l.987-.987a.5.5,0,0,0-.694-.72Z"/><path d="M277.227,250.522a17.728,17.728,0,0,0-1.869-.6.484.484,0,0,0-.521-.369c-.276.02-.553.045-.828.074l-.4-.066.874-.4a.5.5,0,0,0-.42-.909l-1.83.846-1.371.263c-.069,0-.139,0-.207,0a.5.5,0,0,0-.313-.856,3.666,3.666,0,0,0-2.6.846,6.723,6.723,0,0,0-1.923.483.5.5,0,0,0,.085.95,6.165,6.165,0,0,0-.539.441.5.5,0,0,0,.648.761c.336-.264.682-.514,1.035-.751a5.305,5.305,0,0,1,1.882-.624.492.492,0,0,0,.313-.168c.251-.025.5-.044.754-.059l-.077.021a.5.5,0,0,0-.011.962,17.732,17.732,0,0,0,7.2.122.5.5,0,0,0,.118-.963Z"/><path d="M261.982,252.061a.5.5,0,0,0-.605-.033l-.173.117.218-.32a.5.5,0,0,0-.748-.653l-3.471,3.117a.5.5,0,0,0,.334.872.512.512,0,0,0,.191-.038q.591-.244,1.171-.52a.5.5,0,0,0,.544.254,4.612,4.612,0,0,0,2.931-2.029.5.5,0,0,0-.392-.767Z"/><path d="M274.08,260.439l3.96-.227a.44.44,0,0,0,.03.045.5.5,0,0,0,.4.2.487.487,0,0,0,.076-.006l2.827-.437a.5.5,0,0,0,.421-.547.478.478,0,0,0-.525-.446l-2.591.149a2.59,2.59,0,0,0-.478-.221l.925-.339a.5.5,0,0,0-.172-.969h0a11.693,11.693,0,0,0-3.667.617.5.5,0,0,0-.235.78l-1.17.429a.5.5,0,0,0-.317.571A.507.507,0,0,0,274.08,260.439Z"/><path d="M270.574,269.02a.5.5,0,0,0-.585-.767l-2.309.941a.5.5,0,0,0-.309.518.834.834,0,0,0,.612.741,1.062,1.062,0,0,0,.279.036A3.51,3.51,0,0,0,270.574,269.02Z"/><path d="M340.326,245.01a.5.5,0,0,0,0-.933l-1.041-.409c0-.011,0-.022,0-.032a.53.53,0,0,0-.525-.469,9.508,9.508,0,0,0-2.455.323l-1.379.181a.5.5,0,0,0-.435.507c-.154.078-.3.165-.455.251-.973-.269-2.192-.542-3.766-.867-.131-.032-.262-.059-.394-.081a.494.494,0,0,0-.576.4.5.5,0,0,0,.391.582l.363.075a5.44,5.44,0,0,1,1.069.379c-.135.049-.271.1-.408.14l-.75.019a.5.5,0,0,0-.443.294q-.309.065-.621.109l-1.31.112a.5.5,0,0,0,.043,1h.014a11.8,11.8,0,0,0,1.364-.116l1.5-.128a12.078,12.078,0,0,0,4.287.786,11.884,11.884,0,0,0,2.372-.238.5.5,0,0,0,.381-.623,8.02,8.02,0,0,0,2.968-.11.5.5,0,0,0,.153-.913C340.56,245.172,340.442,245.093,340.326,245.01Zm-12.688,1.079a11.42,11.42,0,0,0,1.265-.108A11.42,11.42,0,0,1,327.638,246.089Z"/><path d="M349.221,244.5a.5.5,0,0,0-.579.313c0,.014-.01.027-.014.041-.253.032-.5.071-.755.119a.5.5,0,0,0-.181.909,14.111,14.111,0,0,0,7.663,2.306h0a.5.5,0,0,0,.491-.6l.768.1a.5.5,0,0,0,.217-.973c-.5-.158-1.008-.318-1.507-.477a.5.5,0,0,0-.3-.475,12.268,12.268,0,0,0-4.636-1.007Z"/><path d="M336.74,239.063a.5.5,0,0,0,.284.516,3.414,3.414,0,0,0,1.427.411,1.75,1.75,0,0,0,.4-.044,1.454,1.454,0,0,0,.952-.77.5.5,0,0,0,.245-.412.532.532,0,0,0-.15-.437,1.043,1.043,0,0,0-.177-.35,1.529,1.529,0,0,0-1.1-.512,2.172,2.172,0,0,0-1.747-.148l-1.283-.107a.5.5,0,0,0-.112.993l2.314.328c-.212.03-.428.064-.645.1A.5.5,0,0,0,336.74,239.063Z"/><path d="M329.605,253.025c1.216.058,2.316.124,3.292.2a.5.5,0,0,0,.332.236l.05.01-.88.185a.5.5,0,0,0,.034.984,31.237,31.237,0,0,0,7.443.133.5.5,0,0,0,.048-.988l-.932-.187a.537.537,0,0,0-.031-.124.634.634,0,0,0-.375-.389l0-.016a.5.5,0,0,0-.2-.51,8.648,8.648,0,0,0-9-.468.5.5,0,0,0,.22.936Zm6.334.151c.066.013.13.032.195.047C336.069,253.208,336.005,253.189,335.939,253.176Z"/><path d="M359.3,260.926c.224.145.455.281.692.405l3.591,2.421a.5.5,0,0,0,.676-.11.5.5,0,0,0-.068-.682l-1.543-1.342.01-.02a.5.5,0,0,0-.219-.632l-1.535-.851a.5.5,0,0,0-.578.067l-1.236-.665-.063-.042a.493.493,0,0,0-.135-.065l-1.246-.671a.5.5,0,0,0-.574.81A6.441,6.441,0,0,0,359.3,260.926Z"/><path d="M338.407,268.779l.089.031a.5.5,0,0,0,.407.419,5.927,5.927,0,0,0,.913.12c.314,0,.505-.1.581-.389a.958.958,0,0,0,.021-.107l.354-.1a.5.5,0,0,0,.359-.554.523.523,0,0,0-.5-.427l-2.066.034a.5.5,0,0,0-.154.973Z"/><path d="M346.446,270.809a.449.449,0,0,0,.075.06,6.32,6.32,0,0,0,1.488.71,3.923,3.923,0,0,0,1.133.256h.039a.5.5,0,0,0,.066-1,5.409,5.409,0,0,1-.591-.115l.228-.028a.5.5,0,0,0,.068-.979l-3-.8a.5.5,0,0,0-.556.743A3.111,3.111,0,0,0,346.446,270.809Z"/><path d="M362.412,206.318a14.139,14.139,0,0,0,7.2-7.176,14.635,14.635,0,0,0,1.608-9.38.493.493,0,0,0-.515-.39.5.5,0,0,0-.47.442,24.46,24.46,0,0,1-8.325,15.659.5.5,0,0,0,.325.88A.483.483,0,0,0,362.412,206.318Z"/><path d="M275.023,202.01a.5.5,0,0,0,.395.806.526.526,0,0,0,.089-.008,3.579,3.579,0,0,0,1.943-1.3,19.527,19.527,0,0,0,4.571-8.438,2.688,2.688,0,0,0,.039-1.456c-.3-.928-1.212-1.295-2.181-1.684a10.594,10.594,0,0,1-1.244-.564.5.5,0,0,0-.523.851,2.718,2.718,0,0,1,.954,1.823,9.1,9.1,0,0,1-.932,5.277A26.215,26.215,0,0,1,275.023,202.01Z"/><path d="M323.83,297.208a.5.5,0,0,0-.7-.566l-18.7,8.883a27.9,27.9,0,0,0,4.541-10.61.5.5,0,0,0-.9-.381,27.624,27.624,0,0,1-2.111,2.609c-.3.337-.557.632-.753.875a51.521,51.521,0,0,1-17.586,14.048.5.5,0,0,0,.383.922,39.545,39.545,0,0,1,9.608-2.047,66.479,66.479,0,0,1-11.882,7.3.5.5,0,0,0,.316.941c10.025-2.065,19.532-4.492,25.709-11.2a41.856,41.856,0,0,1-2.176,10.82.5.5,0,0,0,.192.575.493.493,0,0,0,.281.087.5.5,0,0,0,.325-.12A41.969,41.969,0,0,0,323.83,297.208Z"/><path d="M732.1,365.889H570.744c-16.251-12.532-29.227-25.172-40.752-36.4q-.887-.864-1.762-1.716a55.816,55.816,0,0,0-5.766-5.806q-1.47-1.317-2.969-2.606c-8.656-8.184-16.836-15.269-25.554-20.643a101.752,101.752,0,0,1-23.02-23.435,4.531,4.531,0,0,0,5.223-.558.5.5,0,0,0-.011-.7A105.389,105.389,0,0,0,465.511,265c-2.587-2.357-10.4-8.734-14.738-11.772l3.532-.006a.5.5,0,0,0,.18-.966,15.618,15.618,0,0,1-7.091-5.545l.763.107a.5.5,0,0,0,.439-.832,31.814,31.814,0,0,1-7.606-15.577c1.349.619,2.71,1.207,4.088,1.751a.512.512,0,0,0,.184.034.5.5,0,0,0,.422-.768,18.689,18.689,0,0,1-2.859-8.973l.367.663a.5.5,0,0,0,.936-.2,27.566,27.566,0,0,0-4.8-17.583l3.983,1.36a.5.5,0,0,0,.576-.752,33.278,33.278,0,0,1-5.358-14.343,6.214,6.214,0,0,0,4.213.873.5.5,0,0,0,.345-.758c-2.8-4.506-2.933-10.18-2.657-15.639l.088-1.63a37.1,37.1,0,0,0,.834-12.318c-.179-2.285-.477-4.6-.764-6.832a69.376,69.376,0,0,1-.849-13.348,69.254,69.254,0,0,1,2.147-11.684c.4-1.647.817-3.349,1.171-5.036.267-1.268.5-2.545.7-3.824,1.039.6,2.084,1.2,3.121,1.8,1.071.62,2.354,1.382,3.294,1.924q-1.378-.972-2.765-1.933-1.77-1.219-3.552-2.427.368-2.322.64-4.658l3.22.979c1.485.454,3.192,1,4.545,1.414q-1.836-.753-3.682-1.483c-1.223-.461-2.571-.973-4.015-1.517.568-5.148.838-10.32,1.1-15.386.014-.263.027-.527.041-.79.783.318,1.588.647,2.281.924-.755-.388-1.513-.767-2.27-1.15.151-2.923.3-5.862.413-8.812.984.086,1.954.173,2.851.254-.946-.168-1.9-.314-2.843-.472.245-6.351.329-12.745-.036-19.11,3.034.184,6.029.445,8.932.821,2.323.3,5.124.813,7.143,1.288-1.222-.4-2.459-.747-3.7-1.063a95.213,95.213,0,0,0-12.438-2.175A97.413,97.413,0,0,0,443,50.707c-.775-2.86-1.8-5.757-3.865-7.847a.5.5,0,0,0-.154-.171l-.073-.043c-.148-.14-.285-.288-.443-.419a12.054,12.054,0,0,0-9.366-2.221c-.5.07-1,.167-1.483.276a24.055,24.055,0,0,0-6.323,1.566c-5.685,2.244-10.414,6.173-14.986,9.972-13,10.8-26.447,21.975-37.839,34.841-.791.761-1.4,1.378-1.9,1.887-.448.452-.8.813-1.126,1.113l.427-4.46a.5.5,0,0,0-.934-.292c-2.283,4.075-6.821,7.059-12.449,8.187-4.775.958-9.821.564-14.63,0a8.861,8.861,0,0,1,2.879-1.952.5.5,0,0,0-.142-.959,19.344,19.344,0,0,0-7.51,1.214,23.989,23.989,0,0,1-5.765,1.234,11.569,11.569,0,0,1-8.7-3.5.5.5,0,0,0-.861.346A3.727,3.727,0,0,1,315.7,92.5a11.907,11.907,0,0,1-4.012,1.12,40.725,40.725,0,0,1-8.5.689,18.255,18.255,0,0,1-2.133-.249,25.265,25.265,0,0,1-6.954-6.839.5.5,0,0,0-.9.186l-.831,4.364L237.939,48.123c-4.354-3.494-9.289-7.453-15.06-9.24-6.471-2.005-13.089-.659-16.857,3.433a16.248,16.248,0,0,0-3.849,10.6,47.385,47.385,0,0,0,1.444,11.158l2.042,9.646h0c-3.3-.029-6.6.025-9.894.141-2.1.077-4.286.182-6.343.319,2.618.03,5.236.1,7.853.2q2.916.11,5.83.263c-4.608,1.7-8.812,3.46-12.159,4.887-1.608.707-3.373,1.5-4.874,2.211q2.679-1.017,5.378-1.98c3.775-1.251,8.874-3.08,14.463-4.855l.935,4.418c-1.029.194-2.027.391-2.96.591-1.747.381-3.565.819-5.248,1.281,2.205-.4,4.422-.741,6.644-1.037.546-.064,1.117-.129,1.7-.194l5.4,25.5a229.633,229.633,0,0,0-23.652,11.057c-2.237,1.222-4.731,2.624-6.771,3.851q3.78-1.817,7.6-3.547c7.683-3.335,15.322-6.892,23.137-9.872l1.858,8.781c-.224,1.983-.4,4.126-.466,6.35q-3.066,2.94-6.039,5.972c-1.4,1.429-2.82,2.9-4.172,4.346q3.022-2.763,6.094-5.473,2.046-1.8,4.1-3.587a46.993,46.993,0,0,0,.271,5.628,31.085,31.085,0,0,0,5.037,14.225L215,142.279a.5.5,0,0,0-.3.948,15.306,15.306,0,0,1,4.635,3.18,8.528,8.528,0,0,0-2.344,1.05,24.271,24.271,0,0,0-1.956,1.438,19.4,19.4,0,0,1-2.2,1.577.5.5,0,0,0,.142.919l3.007.688c-2.653,2.024-3.924,5.406-4.666,7.885-.183.608-.354,1.223-.526,1.839-.723,2.592-1.47,5.271-3.053,7.408a.5.5,0,0,0,.573.768l2.751-.992a75.354,75.354,0,0,1-6.054,12.276.5.5,0,0,0,.6.73l4.016-1.478c-1.168,4.478-.428,9.189.568,13.639.161.717.329,1.434.5,2.153a50.7,50.7,0,0,1,1.639,10.042c-.025.1-.043.2-.07.294A7.58,7.58,0,0,1,209.3,211.2a.5.5,0,0,0,.373.915l3.7-.88a19.28,19.28,0,0,0-1.252,6.678.5.5,0,0,0,.431.5.488.488,0,0,0,.551-.362,8.227,8.227,0,0,1,1.109-2.415,27.144,27.144,0,0,0,2.645,13.523.5.5,0,0,0,.939-.315,12.887,12.887,0,0,1-.1-4.349,67.285,67.285,0,0,0,3.1,7.183c2.095,4.373,4.073,8.5,4.255,13.117a.5.5,0,0,0,.6.472,5.255,5.255,0,0,0,2.549-1.309c.7,4.444,3.377,8.126,5.591,10.5.861.924,1.786,1.785,2.731,2.622a322.271,322.271,0,0,0-28.21,21.787c-14.381,12.484-28.4,25.4-41.829,38.911-3.743,3.83-10.026,10.384-12.18,12.968q6.926-6.548,13.852-13.09c20.215-19.37,40.884-39.141,63.066-55.36q3.117-2.223,6.319-4.319c1.225,1.035,2.481,2.025,3.718,3-13.989,9.175-26.478,20.384-38.639,31.821q-12.7,12.133-24.932,24.746c.485.125.97.243,1.454.368,8.889-9.112,17.928-18.08,27.236-26.764,11.5-10.8,23.046-20.686,36.014-29.273.421.333.844.663,1.261,1a44.123,44.123,0,0,1,5.742,5.405c-.2.139-.4.275-.595.414-13.478,9.545-26.853,19.258-39.619,29.745-1.484,1.217-3.325,2.721-4.583,3.792q2.427-1.727,4.851-3.455c13.7-9.683,27.015-19.894,40.787-29.472a21.805,21.805,0,0,1,1.659,2.443,1.265,1.265,0,0,0,.355.587.5.5,0,0,0,.782-.6c-.062-.113-.123-.226-.187-.337a.567.567,0,0,1,.027-.173.921.921,0,0,1,.659-.616,3.066,3.066,0,0,1,1.986.753l.4.265C249.084,279.627,243,288.6,238.3,294.9c-7.565,10.788-14.787,21.839-21.539,33.166.435.121.871.241,1.306.363q10.864-18.182,23.274-35.378c4-5.388,9.582-13.287,15.737-20.645l.843.562a14.029,14.029,0,0,0,7.64,5.928c.056.02.115.032.172.052q-1.479,2.03-2.968,4.147a22.29,22.29,0,0,1-5.78,1.091.5.5,0,0,0-.1.982l2.648.712a9.63,9.63,0,0,1-8.8,2.817.5.5,0,0,0-.517.768,11.909,11.909,0,0,0,4.625,4.037,46.213,46.213,0,0,1-9.062,2.642.5.5,0,0,0-.3.805,30.936,30.936,0,0,0,4.9,4.836q-.389.615-.774,1.231a21.78,21.78,0,0,0-4.934,8.017c-4,6.625-7.7,13.016-10.829,18.656a73.509,73.509,0,0,0-14.965,2,35.835,35.835,0,0,0-8.424,2.939,27.955,27.955,0,0,0-12.969,8.83c-4.064,4.974-6.616,14.326-6.4,22.44H10.1a.5.5,0,0,0-.5.5v17a.5.5,0,0,0,.5.5H198.04a25.057,25.057,0,0,0,8.909,3.637,126.552,126.552,0,0,0,14.727,2.574,5.745,5.745,0,0,0,.694.856,6.082,6.082,0,0,0,4.273,1.722,6.374,6.374,0,0,0,1.009-.081,7.965,7.965,0,0,0,3.684-1.726c2.245.1,4.506.167,6.792.167q4.406,0,8.907-.256c5.4-.307,10.613-.855,15.1-4.139a14.812,14.812,0,0,0,2.786-2.754H394.037a14.831,14.831,0,0,0,2.8,2.755c4.509,3.283,9.745,3.831,15.163,4.138q4.519.257,8.944.256c2.3,0,4.566-.064,6.82-.167a8,8,0,0,0,3.7,1.726,6.4,6.4,0,0,0,1.011.081,6.112,6.112,0,0,0,4.288-1.722,5.814,5.814,0,0,0,.7-.855,127.8,127.8,0,0,0,14.787-2.575l.052-.013a5.44,5.44,0,0,0,.672.632,4.17,4.17,0,0,0,2.523.905,3.328,3.328,0,0,0,.859-.11,5.247,5.247,0,0,0,2.546-1.8,8.146,8.146,0,0,0,1.618-2.782c.229-.146.452-.307.676-.465H732.1a.5.5,0,0,0,.5-.5v-17A.5.5,0,0,0,732.1,365.889ZM418.447,377.227c.076-.376.151-.749.221-1.119a38.994,38.994,0,0,0-1.661-20.361.917.917,0,0,0-1.058-.656,1.123,1.123,0,0,0-.788,1.244,58.782,58.782,0,0,1-1.994,20.406,13.281,13.281,0,0,1-1.9,4.371c-.678.871-1.854,1.7-2.945,1.163a5.746,5.746,0,0,1-1.677-1.67,5.47,5.47,0,0,0-2.307-2.055c-1.033-.353-2.088.529-3.1,1.382-.664.559-1.418,1.192-1.916,1.2h-.009c-.716,0-3.463-2-5.64-3.894-.361-.666-.7-1.36-1.015-2.075-.214-1.073-.4-2.195-.567-3.344a67.134,67.134,0,0,1-.235-12.8.5.5,0,0,0-.949-.241,23.084,23.084,0,0,0-1.442,15.717c-3.85-2.781-6.19-8.275-5.783-13.872a21.812,21.812,0,0,1,7.826-14.758c3.592-3,8.29-6.2,12.749-4.289l.17.073c.957.415,2.149.929,3.156.188a3.486,3.486,0,0,0,1.006-1.5l.146-.322c.072-.153.166-.287.249-.431,3.367,4.193,6.695,8.385,9.987,12.538,4.645,5.842,9.323,11.658,13.97,17.5q-5.589-8.326-11.568-16.384-5.724-7.427-11.555-14.812A12.1,12.1,0,0,1,414.7,335.5a31.671,31.671,0,0,1,11.222-1.626c.6.525,1.157,1.015,1.63,1.419-.455-.474-.916-.944-1.373-1.417a69.044,69.044,0,0,1,11.309,1.346,56.053,56.053,0,0,1,8.978,2.551c.651.359,1.366.743,2.191,1.18,2.684,1.422,5.725,3.033,7.075,4.379a36.4,36.4,0,0,1,8.247,12.114c1.953,8.247.292,17.887-4.028,24.124a5.02,5.02,0,0,0-1.768-2.452.5.5,0,0,0-.771.273,16.726,16.726,0,0,1-2.018,5.051c-.026.038-.056.07-.082.106a1.753,1.753,0,0,1-.553-.566,6.444,6.444,0,0,1-.623-1.911,35.283,35.283,0,0,1-.581-6.994c-.057-3.289-.115-6.691-1.446-10.192a1.185,1.185,0,0,0-1.4-.857,1.5,1.5,0,0,0-.964,1.784A41.929,41.929,0,0,1,450,375.93c-.734,5.012-3.553,10.443-7.52,11.126a2.054,2.054,0,0,1-2.149-.712c-.6-.868-.625-2.332-.644-3.718a39.843,39.843,0,0,0-.357-4.477,2.106,2.106,0,0,0-1.9-2.072H437.4a2.012,2.012,0,0,0-1.864,1.888,14.953,14.953,0,0,1-2.238,6.077c-3.082,4.247-8.043,5.691-12.066,3.513a6.217,6.217,0,0,1-3.083-3.562C417.5,381.916,417.98,379.532,418.447,377.227ZM243.1,355.091a.912.912,0,0,0-1.056.656,39.151,39.151,0,0,0-1.654,20.361c.069.369.144.741.221,1.116.464,2.306.945,4.691.3,6.77a6.21,6.21,0,0,1-3.069,3.562c-4.006,2.174-8.946.731-12.014-3.513a15,15,0,0,1-2.23-6.078,2.008,2.008,0,0,0-1.857-1.888H221.7a2.1,2.1,0,0,0-1.892,2.073,40.056,40.056,0,0,0-.357,4.57,7.065,7.065,0,0,1-.641,3.625,2.036,2.036,0,0,1-2.137.711c-3.95-.683-6.758-6.114-7.489-11.126a42.107,42.107,0,0,1,.253-12.116,1.5,1.5,0,0,0-.963-1.784,1.183,1.183,0,0,0-1.394.857c-1.326,3.5-1.384,6.9-1.441,10.193a35.5,35.5,0,0,1-.579,6.993,6.457,6.457,0,0,1-.62,1.912,1.654,1.654,0,0,1-2,.73,5.616,5.616,0,0,1-2.178-1.82c-5.033-6.128-7.089-16.593-5.02-25.387a36.377,36.377,0,0,1,8.233-12.175c1.345-1.346,4.373-2.957,7.046-4.378.822-.438,1.535-.822,2.183-1.181a55.609,55.609,0,0,1,8.94-2.55c6.665-1.276,15.264-2.4,22.694.277,1.977.712,4.742,1.955,5.945,4.52l.144.32a3.512,3.512,0,0,0,1,1.5c1.006.743,2.193.227,3.146-.188l.168-.073c4.447-1.911,9.119,1.289,12.695,4.289a21.845,21.845,0,0,1,7.8,14.758c.405,5.594-1.923,11.087-5.756,13.869a23.163,23.163,0,0,0-1.437-15.713.5.5,0,0,0-.949.24,67.321,67.321,0,0,1-.235,12.8c-.17,1.15-.352,2.272-.564,3.345-.315.715-.652,1.409-1.012,2.074-2.167,1.888-4.9,3.893-5.614,3.893h-.009c-.5-.011-1.244-.644-1.905-1.2-1.009-.852-2.047-1.734-3.093-1.383a5.467,5.467,0,0,0-2.3,2.056,5.717,5.717,0,0,1-1.667,1.669c-1.086.535-2.256-.292-2.929-1.162a13.32,13.32,0,0,1-1.9-4.372,58.991,58.991,0,0,1-1.985-20.406A1.122,1.122,0,0,0,243.1,355.091Zm136.447-98.4q5.082,1.605,10.124,3.327c.213.135.416.287.64.4a28.251,28.251,0,0,0-6.176,1.427.5.5,0,0,0-.326.385.5.5,0,0,0,.176.474l2.738,2.235a17.418,17.418,0,0,0-2.322.129q-3.168-1.234-6.339-2.459A23.233,23.233,0,0,0,379.546,256.687Zm60.163-15.249a11.209,11.209,0,0,1-3.449-4.17.5.5,0,0,0-.94.316l3.779,18.335a127.161,127.161,0,0,1-23.89,5.168.5.5,0,0,0-.441.508l.137,6.154h-.065q-8.542-3.29-17.17-6.354,1.594-1.125,3.222-2.241c6.928-2.228,14.706-4.113,22.343-3.289a.512.512,0,0,0,.409-.145.5.5,0,0,0,.14-.41,16.822,16.822,0,0,0-3.552-8.48l9.1-.67a.5.5,0,0,0,.336-.831l-3.463-3.876c-.285-.32-.915-1.109-.608-1.545.183-.26.656-.312,1.049-.328a17.372,17.372,0,0,1,5.733.725.5.5,0,0,0,.644-.508c-.216-3.752-.46-8-2.653-11.522-.3-.48-.639-1.025-.489-1.42.213-.556,1.253-.53,1.692-.5.712.06,1.422.151,2.127.262q1.83,1.069,3.711,2.048A28.116,28.116,0,0,0,439.709,241.438Zm53.2,114.8a.5.5,0,0,0-.985,0,6.812,6.812,0,0,1-1.9,3.588l-1.1-4.57a.5.5,0,0,0-.485-.383h0a.5.5,0,0,0-.485.381,69.429,69.429,0,0,1-3.558,10.633h-8.345a58.334,58.334,0,0,0,2.469-15.713.5.5,0,0,0-.41-.5.5.5,0,0,0-.559.318l-5.887,15.89h-3.468a42.488,42.488,0,0,0-2.148-14.148q2.322,1.932,4.641,3.866c-1.629-1.6-3.292-3.159-4.942-4.733-.053-.144-.1-.294-.153-.437a.464.464,0,0,0,.137.037.483.483,0,0,0,.105-.012.5.5,0,0,0,.392-.437l.459-4.47.9.605a.5.5,0,0,0,.773-.336l1.81-11.349a.51.51,0,0,0-.014-.221A67.421,67.421,0,0,0,471.5,322.9a9.436,9.436,0,0,0-1.2-4.612,9.911,9.911,0,0,1-.746-1.891.5.5,0,0,0-.985.159,40.208,40.208,0,0,1-1.653,15.407l-1.57-3.608a.508.508,0,0,0-.489-.3.5.5,0,0,0-.449.357c-.612,2.07-.159,4.192.28,6.245.13.606.26,1.212.36,1.814.391,2.319.085,5.415-2.057,6.509a7.342,7.342,0,0,1-1.113.42c-.041.014-.081.029-.123.042a28.081,28.081,0,0,0-13.018-8.825c-.123-.061-.244-.126-.369-.185,2.431-.722,4.855-1.487,7.309-2.275a.5.5,0,0,0,.334-.588.491.491,0,0,0-.556-.383c-3.345.462-6.773.857-10.24,1.2q-13.605-11.691-27.586-22.936c4.354-1.651,8.529-3.919,10.468-7.705l.421,3.907a.5.5,0,0,0,.9.245l13.6-18.3,2.809,4.378a.514.514,0,0,0,.453.229.5.5,0,0,0,.42-.285,12.281,12.281,0,0,0-.04-10.186c2.125.824,4.857,1.928,6.592,2.586q-3.261-1.593-6.549-3.132c-.142-.066-.286-.128-.428-.194-.122-.228-.231-.463-.367-.682l.934.608a.5.5,0,0,0,.708-.666l-5.175-9.135a.5.5,0,0,0-.509-.248c-.989.152-1.851-.625-2.769-1.444a.5.5,0,0,0-.831.417l.481,5.566-4.4.268q-5.351-2.3-10.752-4.483l13.5-6.272a.5.5,0,0,0-.03-.92,13.855,13.855,0,0,0-3.9-.872c5-1.2,10.151-1.838,13.5-1.127a30.557,30.557,0,0,1,15.622,9.067l-6.615-2.374a.5.5,0,0,0-.4.914,12.594,12.594,0,0,1,5.976,6.9l-4.123-2.491a.5.5,0,0,0-.749.525c1.257,6.349,4.43,10.967,7.789,15.856.626.911,1.264,1.84,1.9,2.8l-3.5-2.127a.5.5,0,0,0-.735.583c2.816,8.581-.515,17.7-4.486,27.058a.5.5,0,0,0,.46.7.491.491,0,0,0,.223-.053,24.486,24.486,0,0,0,12.957-17.178l7.183,5.433a.5.5,0,0,0,.8-.368l.255-4.09a50.212,50.212,0,0,0,5.912,4.549l8.718,13.028a.488.488,0,0,0,.122.126l3.475,9.632L496,329.923a.5.5,0,0,0-.665.593,27.572,27.572,0,0,0,2.068,5.471l-.516-.527a.5.5,0,0,0-.819.542,157.452,157.452,0,0,1,9.081,29.887H494.673ZM254.28,312.324a34.782,34.782,0,0,0,4.763-.472q-.745,2.589-1.405,5.2A12.285,12.285,0,0,1,254.28,312.324Zm1.452,13.071c-.456-.471-.9-.949-1.329-1.448l1.663-.162C255.952,324.321,255.842,324.858,255.732,325.4Zm.634-2.969a6.96,6.96,0,0,1-3.491-3.066,18.169,18.169,0,0,0,4.086.461Q256.653,321.121,256.366,322.426Zm21.609,41.833a26.408,26.408,0,0,0,.582-5.373c.513.022,1.025.039,1.529.039a29.546,29.546,0,0,0,10.7-1.893c9.081-3.5,15.411-11.817,19.381-17.766a.5.5,0,0,0-.568-.754,62.1,62.1,0,0,1-26.928,2.422,11.321,11.321,0,0,0,4.954-4.951.5.5,0,0,0-.049-.528.5.5,0,0,0-.5-.188,34.946,34.946,0,0,1-30.2-8.762q.309-1.547.643-3.09a.489.489,0,0,0,.061-.2.355.355,0,0,0-.006-.057q.372-1.694.78-3.379c.5-.037,1-.084,1.5-.163a.5.5,0,0,0,.151-.938,11.915,11.915,0,0,1-1.2-.728q.808-3.207,1.756-6.384a34.966,34.966,0,0,0,8.464-2.947c.028-.014.039-.045.063-.064.222,0,.444.016.665.016a31.463,31.463,0,0,0,20.078-7.261.5.5,0,0,0-.365-.882c-7.541.668-14.714-2.2-22.508-5.942a22.552,22.552,0,0,0,6.679-1.463.5.5,0,0,0-.058-.951,18.958,18.958,0,0,1-4.812-1.961q.35-.756.709-1.512l9.115-2.119a41.059,41.059,0,0,0,15.206,4,33.536,33.536,0,0,0,3.3.846,45.086,45.086,0,0,0,9.127.857,81.349,81.349,0,0,0,8.336-.477c1.787-.185,3.708-.424,5.692-.763.315,0,.615.022.935.022a109.133,109.133,0,0,0,21.969-2.492q1.041,3.166,1.979,6.365a23.825,23.825,0,0,1-6.25-3.335.5.5,0,0,0-.771.567l2.112,5.967a26.49,26.49,0,0,1-6.178-6.652.5.5,0,0,0-.548-.212.5.5,0,0,0-.371.457,35.5,35.5,0,0,1-10.758,23.5.5.5,0,0,0,.423.855,46.42,46.42,0,0,0,16.444-5.956l-.859,5.641a.5.5,0,0,0,.888.384,33.275,33.275,0,0,1,9.489-7.959q1.218,4.753,2.36,9.527A78.162,78.162,0,0,0,319.616,343.4l-.763,1.081c-2.085,2.963-4.219,6-6.925,7.91l-4.31,1.861a.5.5,0,0,0,.2.959.466.466,0,0,0,.09-.009,11.39,11.39,0,0,0,4.458-1.91l14.927-6.443-1.979,6.148a.5.5,0,0,0,.828.507,73.141,73.141,0,0,1,26.045-16.631,6.3,6.3,0,0,0-.983,4.6.5.5,0,0,0,.854.252q1.774-1.862,3.744-3.619c1.244,5.561,2.488,11.123,3.776,16.674a74.469,74.469,0,0,1-6.953,11.109h-.833a14.324,14.324,0,0,0-5.373-10.864.5.5,0,0,0-.769.587c1.108,2.666,1.417,5.71,1.03,10.179a.533.533,0,0,0,.008.1h-69.1Q277.8,365.087,277.975,364.259Zm-10.4-74.905c-.116-.079-.24-.147-.354-.229l.517-.12C267.68,289.121,267.625,289.237,267.571,289.354ZM351.933,315.2c-.609-2.324-1.245-4.982-1.94-7.809a111.541,111.541,0,0,1,10.853-5.041l11.082-4.658q4.982,4.853,9.775,9.988a86.125,86.125,0,0,0-12.652,8.6,8.5,8.5,0,0,0,.137-4.551.5.5,0,0,0-.835-.235,40.072,40.072,0,0,1-15.11,9.289c-.068-.291-.137-.581-.2-.871l1.429-2.744a.5.5,0,0,0-.629-.695c-.491.2-.975.41-1.462.617Q352.154,316.145,351.933,315.2Zm66.639,15.047a26.316,26.316,0,0,0-9.379,3.732c-.647.375-1.313.756-2.015,1.138-4.686-5.851-9.46-11.635-14.371-17.3,3.675-1.324,7.372-2.569,11.041-3.776,5.825,5.291,11.647,10.585,17.533,15.806C420.441,329.946,419.5,330.076,418.572,330.25ZM392.988,302.4q-5.2-4.61-10.451-9.16l7.217-3.033q5.7,3.971,11.239,8.117A30.7,30.7,0,0,1,392.988,302.4ZM376.2,287.8c-2.868-2.424-5.755-4.827-8.686-7.174l.949-.1a.5.5,0,0,0,.444-.557A5.625,5.625,0,0,0,367,276.441c.311-.034.627-.093.94-.136,1.962,1.089,3.887,2.189,5.717,3.285,2.924,1.812,5.8,3.673,8.652,5.561C380.305,286.108,378.269,287,376.2,287.8Zm-16.328-3.931a.5.5,0,0,0-.07-.965,2.87,2.87,0,0,1-1.85-1.269l7.646-.807c.93.746,1.859,1.491,2.771,2.23q3.225,2.613,6.4,5.286a62.207,62.207,0,0,1-8.053,2.362q-2.243-2.061-4.533-4.073-1.518-1.262-3.054-2.516C359.372,284.035,359.621,283.956,359.869,283.871Zm21.3,9.94q5.241,4.531,10.4,9.158a86.59,86.59,0,0,0-8.544,3.977q-4.707-5.037-9.62-9.871Zm33.621-6.447a.5.5,0,0,0-.26.508l.6,4.454-6.21-2.525a.5.5,0,0,0-.688.461l-.029,5.293-3.344-2.1a.5.5,0,0,0-.752.3,7.892,7.892,0,0,1-2.044,3.59c-1.452-1.1-2.9-2.2-4.36-3.288q-3.042-2.254-6.288-4.551l8-3.36a.5.5,0,0,0,.056-.894l-2.744-1.581,13.948-6.478q7.545,3.079,15.108,6.111A43.662,43.662,0,0,0,414.792,287.364Zm-19.741-15.617a.5.5,0,0,0-.08.868,11.489,11.489,0,0,0,5.679,1.979,188.582,188.582,0,0,1-16.731,9.77c-4.363-2.9-8.908-5.762-13.574-8.484a51.731,51.731,0,0,0,16.244-6.938c.485-.3.964-.612,1.445-.921q4.073,1.618,8.135,3.264C395.8,271.44,395.419,271.583,395.051,271.747Zm-37.606,12.932q3.761,3.086,7.405,6.379a47.31,47.31,0,0,1-6.94.757.5.5,0,0,0-.25.923l3.776,2.372a25.059,25.059,0,0,1-14.678.265c-.748-2.438-1.567-4.844-2.474-7.137C348.644,287.285,353.066,286.1,357.445,284.679Zm24.134,37.558c3.2-1.391,6.464-2.673,9.755-3.882,4.975,5.713,9.819,11.558,14.575,17.428-.666.334-1.363.668-2.154,1-.133.056-.264.092-.395.138-1.937-.152-3.877-.368-5.778-.671a.493.493,0,0,0-.467.179,26.541,26.541,0,0,1-2.027,2.21,28.492,28.492,0,0,0-7.617,4.879c-.254.213-.491.435-.731.656-.088.037-.172.079-.26.115l1.543-3.692a.5.5,0,0,0-.722-.62,223.633,223.633,0,0,0-24.686,17.494l-.592-5.631a.5.5,0,0,0-.953-.154c-.262.581-.536,1.156-.813,1.73q-1.551-8.175-3.326-16.305C363.5,331.467,371.622,326.567,381.579,322.237Zm58.7,9.443c-5.554-1.188-11.855-2.353-18.1-1.888q-8.226-8.317-16.841-16.233l2.376-.778c2.526-.825,5.05-1.65,7.568-2.493.273-.092.547-.187.821-.282,9.108,7.279,18.049,14.793,27.007,22.4Q441.716,331.989,440.276,331.68ZM430.14,275.93a.5.5,0,0,0-.175.955,16.515,16.515,0,0,1,6.559,5.361,43.71,43.71,0,0,0-9.328.77q-7.383-3.406-14.863-6.6l9.59-4.454q4.911,1.925,9.815,3.869Zm-32-5.412q-4.311-1.743-8.637-3.449c2.243-1.487,4.444-3.04,6.591-4.56l.245-.173q7.485,2.667,14.914,5.5A46.52,46.52,0,0,0,398.139,270.518ZM297.951,251.025a8.192,8.192,0,0,1-.7-3.325l-.03-.428a6.452,6.452,0,0,0-1.459-4.151,7.025,7.025,0,0,0-3.457-1.609l-.581-.154c-1.627-.448-2.6-1.142-2.89-2.065a2.57,2.57,0,0,1,1.394-2.817,5.147,5.147,0,0,1,3.646-.177,18.965,18.965,0,0,1,2.434.906c.449.19.9.38,1.354.552a18.685,18.685,0,0,0,7.8,1.148.484.484,0,0,0,.254-.1,25.64,25.64,0,0,0,3.565-.4c1.254-.226,2.511-.519,3.727-.8a43.68,43.68,0,0,1,6.272-1.141,1.507,1.507,0,0,1,.858.09c.485.306.237,1.319.149,1.622a8.322,8.322,0,0,1-1.325,2.852,3.96,3.96,0,0,1-2.445,1.562,6.565,6.565,0,0,1-2.049-.134c-.382-.064-.764-.127-1.146-.161a7.619,7.619,0,0,0-4.126.812,3.339,3.339,0,0,0-2.072,2.714,4.08,4.08,0,0,0,.306,1.445l.1.292a6.856,6.856,0,0,1,.208,3.278,4.765,4.765,0,0,1-2.969,1.871,1.557,1.557,0,0,1-1.308-.236,1.968,1.968,0,0,1-.363-1.075,4.106,4.106,0,0,0-.3-1.154.835.835,0,0,0-.488-.462.7.7,0,0,0-.556.064.977.977,0,0,0-.439.628,3.215,3.215,0,0,0,.039,1.307c.023.139.049.279.063.418.039.349-.038.755-.257.855a.906.906,0,0,1-.61-.058A5.116,5.116,0,0,1,297.951,251.025ZM377.6,353.607l2.756,4.367a25.721,25.721,0,0,0,.576,6.285c.117.553.248,1.095.391,1.63H367.307C370.922,361.957,374.381,357.846,377.6,353.607Zm132.514,1.179,5.738,6.448a50.425,50.425,0,0,1,2.7,4.655h-8.586A77.88,77.88,0,0,0,510.117,354.786Zm13.541-5.368,1-5.023a4.215,4.215,0,0,0,2.69.894,5.743,5.743,0,0,0,4.04-1.693A66.465,66.465,0,0,1,542.9,358.5l-4.131-1.174a.5.5,0,0,0-.561.746l4.9,7.815H526.33Zm31.527,13.449q1.248,1.48,2.463,3.022h-.777A21.529,21.529,0,0,0,555.185,362.867ZM434.9,106.969a21.852,21.852,0,0,0,2.3-4.02l0,0a26.965,26.965,0,0,0,1.632-6.39l2.389.964a50.271,50.271,0,0,1-5.491,14.733q-1.557-.553-3.173-1.11A11.365,11.365,0,0,0,434.9,106.969Zm4.034-11.184c.24-1.991.342-4.011.387-6.029,1.012.076,2.026.142,3.038.221a66.855,66.855,0,0,1-1.019,6.972Zm3.6-7.737c-.032.478-.09.938-.131,1.41-1.021-.157-2.045-.3-3.069-.445q.02-1.137.03-2.269c.013-1.209.026-2.412.06-3.6.12-4.192-.079-8.37-.333-12.462q1.529.03,3.05.087A106.538,106.538,0,0,1,442.54,88.048Zm-5.105-14.577a23.4,23.4,0,0,0-1.221-2.832c.326,0,.651.006.976.01C437.3,71.57,437.38,72.507,437.435,73.471Zm-2.749-2.83.779,3.011a14.994,14.994,0,0,0-3.371-3C432.957,70.645,433.821,70.642,434.686,70.641Zm.571,18.82a1.153,1.153,0,0,1,.211.429.592.592,0,0,1-.119.462.229.229,0,0,1-.156.089c-.152,0-.357-.2-.54-.368-.271-.254-.557-.489-.847-.717C434.29,89.388,434.773,89.428,435.257,89.461Zm-3.666,22.761q1.778.528,3.554,1.063c-.039.065-.073.134-.113.2-.213.344-.434.689-.655,1.034-1.037-.657-2.085-1.3-3.131-1.938C431.364,112.461,431.476,112.341,431.591,112.222Zm-212.265.475c-.388-.444-.776-.885-1.119-1.335a15.308,15.308,0,0,1-2.444-5.553q2.77-.992,5.577-1.857,1.522,4.353,3.334,8.586-1.686,1.416-3.338,2.873A13.914,13.914,0,0,0,219.326,112.7Zm-4.253-10.044-4.579-23.069c1.486-.15,3.046-.294,4.668-.426a139.1,139.1,0,0,0,5.678,23.351q-2.724.837-5.424,1.813C215.3,103.758,215.181,103.2,215.073,102.653Zm19.857,1.957c-1.272.487-2.519,1.03-3.743,1.605l3.361-3.274a.5.5,0,0,0-.5-.833l-5.338,1.751,1.289-1.924a.478.478,0,0,0,.065-.233,75.9,75.9,0,0,1,12.368-1.594A61.6,61.6,0,0,0,234.93,104.61ZM219.478,75.9c2.562.294,5.19.668,7.82,1.211-2.664.06-5.3.23-7.87.462C219.425,77.015,219.446,76.457,219.478,75.9Zm-5.013-1.873q-2.487-.154-4.978-.232c1.585-.474,3.195-.932,4.811-1.364C214.353,72.963,214.4,73.5,214.465,74.027Zm.175,1.4c.11.872.219,1.745.345,2.615-1.614.2-3.165.429-4.664.669l-.73-3.679Q212.117,75.212,214.64,75.431Zm43.871,188.654a.5.5,0,0,0,.454.29.512.512,0,0,0,.139-.019,5.53,5.53,0,0,0,1.534-.715,2.3,2.3,0,0,0,.4-.3.628.628,0,0,0-.535-1.059.285.285,0,0,0-.042,0q1.284-.867,2.576-1.721a.5.5,0,0,0,.5.2l.385-.08-.1.049a.5.5,0,0,0,.356.928c.651-.17,1.312-.314,1.973-.459a84.5,84.5,0,0,0-8.469,8.386,34.312,34.312,0,0,1-2.368-3.791q1.621-1.113,3.246-2.22l-.007.016A.5.5,0,0,0,258.511,264.085Zm.017,6.615a110.5,110.5,0,0,1,7.891-8.357h0a4.272,4.272,0,0,0,2.953-1.572l2.377-1.305a.5.5,0,0,0-.384-.917l-.89.265a31.132,31.132,0,0,1,7.915-4.781,31.81,31.81,0,0,0-10.089,5.428l-.391.116a.489.489,0,0,0-.006-.316.5.5,0,0,0-.574-.322l-.269.057a.5.5,0,0,0-.346-.153,6.19,6.19,0,0,0-1.183.1c.681-.437,1.358-.882,2.045-1.31,3.362-1.979,6.74-4.524,10.677-5.091-4.757.334-8.907,3.293-13.052,5.416-3.572,2.1-7.051,4.343-10.484,6.658a33.9,33.9,0,0,1-2.862-8.656c4.57-2.7,9.25-5.217,14.056-7.48,3.789-1.64,8.3-3.666,12.88-4.255-5.463.269-10.721,2.265-15.714,4.379a102.923,102.923,0,0,0-11.766,6c-.014,0-.023-.017-.038-.02a.494.494,0,0,0-.525.261l-.071.135c-.436.259-.874.513-1.308.776a18.926,18.926,0,0,1,.4-5.277q2.911-1.658,5.864-3.238c3.344-1.764,6.686-3.59,10.116-5.193a5.036,5.036,0,0,0,3.371-.117.5.5,0,0,0,.4.774,13,13,0,0,0,4.129-.555l2.966,1.057a.5.5,0,0,0,.518-.828,4.6,4.6,0,0,0-.924-.7c.781-.161.859-.3.98-.51a.5.5,0,0,0,.031-.434.5.5,0,0,0-.323-.294,10.771,10.771,0,0,0-4.464-.646,7.07,7.07,0,0,0-1.227.289.491.491,0,0,0-.258-.02l-1.077.2q.993-.39,2-.743c-.849.262-1.684.558-2.525.841l-3.657.683a.5.5,0,0,0-.337.746,126.114,126.114,0,0,0-15.1,6.926,18.7,18.7,0,0,1,5.072-8.027.5.5,0,0,0-.335-.868h-.09a13.586,13.586,0,0,0-12,7.581,64.066,64.066,0,0,1-9.242-11.11c-2.049-3.375-4.325-8.591-3.538-14.271a.5.5,0,0,0-.757-.5,12.128,12.128,0,0,0-5.512,8.011,5.314,5.314,0,0,1-1.847-1.128,23.7,23.7,0,0,1,3.429-20.475.5.5,0,0,0-.546-.77,9.69,9.69,0,0,0-4.684,3.023,16.637,16.637,0,0,1,2.075-5.365,46.771,46.771,0,0,1,4.686-6.3.5.5,0,0,0-.014-.656,4.575,4.575,0,0,0-4.193-1.2c-.166.03-.33.065-.492.106l2.282-1.894a1.266,1.266,0,0,0,.542-.9.868.868,0,0,0-.34-.728,1.761,1.761,0,0,0-1.478-.173,17.8,17.8,0,0,0-3.676,1.651c-.711.385-1.446.782-2.288,1.179a6.158,6.158,0,0,0-2.26,1.9c-.011-.087-.015-.169-.027-.256-.277-1.973-.75-3.932-1.207-5.825-.4-1.653-.812-3.362-1.087-5.057-.7-4.292-.291-7.826,1.205-10.507a.5.5,0,0,0-.786-.6,4.545,4.545,0,0,1-1.939,1.111,33.484,33.484,0,0,0,3.843-12.6.5.5,0,0,0-.837-.415l-.346.319c.264-.856.49-1.719.713-2.565.311-1.182.632-2.4,1.043-3.564.753-2.127,2.192-4.919,4.775-6.144a.5.5,0,0,0-.053-.925l-1.255-.429a1.989,1.989,0,0,1,3.434.973.5.5,0,0,0,.82.285,3.356,3.356,0,0,0,.683-.835A8.967,8.967,0,0,0,223.669,138a48.3,48.3,0,0,1,5.829,1.429.493.493,0,0,0,.543-.169.5.5,0,0,0,.034-.568l-3.085-5.088a82.371,82.371,0,0,1,12.239.032.5.5,0,0,0,.416-.172.5.5,0,0,0,.11-.436,10.951,10.951,0,0,0-6.28-7.1,27.278,27.278,0,0,0-7.819-2.051c1.066-.643,2.155-1.27,3.278-1.814a26.667,26.667,0,0,1,9.483-1.283.5.5,0,0,0,.174-.977,12.618,12.618,0,0,0-7.8.4,21.558,21.558,0,0,0-2.083.861,27.512,27.512,0,0,0-7.964,4.074c-.867.643-2.03,1.288-2.635.713-.4-.375-.344-1.1-.281-1.86a5.28,5.28,0,0,1,.648-.957c.281-.324.585-.64.89-.958a9.976,9.976,0,0,0,2.2-2.935c.128-.048.254-.1.382-.145,7.583-2.843,15.2-5.6,22.891-8.138,8.205-2.65,16.579-5.247,25.138-3.937-14.9-3.52-34.349,5.44-48.24,11.707a4.008,4.008,0,0,0,.14-.736,4.1,4.1,0,0,0-.08-1.184q1.722-1.449,3.457-2.882a2.171,2.171,0,0,0,.543.654,1.781,1.781,0,0,0,1.122.381,4.36,4.36,0,0,0,2.44-1.03,63.525,63.525,0,0,1,18.775-9.518.5.5,0,0,0-.012-.958,17.862,17.862,0,0,0-8.56-.134,63.267,63.267,0,0,1,5.637-3.172,42.29,42.29,0,0,1,8.966.9c1.634.428,3.447.785,4.715,1.97-1.058-1.247-2.721-1.774-4.21-2.329a35.048,35.048,0,0,0-7.423-1.483,28.8,28.8,0,0,1,13.272-2.713c-2.941-.726-5.99-.179-8.906.406a37.017,37.017,0,0,0-6.6,2.128,65.122,65.122,0,0,0-18.451,2.009,4.208,4.208,0,0,1-2.066-2.811,6.6,6.6,0,0,1,2.787-6.052,20.471,20.471,0,0,1,6.683-2.989.5.5,0,0,0,0-.955c-2.1-.665-4.2.1-6.232.838-.279.1-.556.2-.83.3-1.548.541-4.348,1.2-5.92-.369a65.376,65.376,0,0,1-1.512-10.04c4.393-.262,9.058-.385,13.667-.214.8.262,1.585.545,2.368.856a60.18,60.18,0,0,1,12.436,6.895c1.742,1.407,3.67,2.614,5,4.564a14.971,14.971,0,0,0-3.174-3.807A49.458,49.458,0,0,0,239.351,79.7c-.511-.282-1.035-.53-1.557-.783,7.849.672,15.186,2.382,20.3,5.922a96.506,96.506,0,0,1,11.486,20.2.5.5,0,0,0,.955-.273l-.787-4.806a32.173,32.173,0,0,1,7.314,12.216,32.634,32.634,0,0,0-14.541,3.893.5.5,0,0,0,.113.925,102.475,102.475,0,0,1,16.1,5.6.5.5,0,0,0,.561-.806l-4.515-4.633a64.424,64.424,0,0,1,10.069,4.674.5.5,0,0,0,.719-.606l-3.488-9.489,2.266,1.348a.5.5,0,0,0,.688-.68l-1.765-3.051a22.385,22.385,0,0,1,3.654,3.217.5.5,0,0,0,.78-.622c-9.866-14.288-21.049-30.482-36.879-40.446-1.826-1.15-3.393-2.262-4.909-3.337a34.194,34.194,0,0,0-8.017-4.707.5.5,0,0,0-.464.875,96.527,96.527,0,0,1,20.006,19.662c-5.953-4.554-14.783-6.432-23.981-6.821a64.375,64.375,0,0,0-13.187-2.652c-.22-.023-.439-.04-.658-.063.029-.251.044-.5.083-.754a18.026,18.026,0,0,1,.641-2.727c8.309-1.778,16.229-2.386,21.374.011-5.4-3.026-12.953-2.962-20.837-1.477a13.22,13.22,0,0,1,7.223-7.528.5.5,0,0,0,.005-.936,13.343,13.343,0,0,0-4.222-.854,28.1,28.1,0,0,1,3.184-.584.5.5,0,0,0,.014-.991,12.333,12.333,0,0,0-10.621,3.759,15.5,15.5,0,0,1,8.362-7.57.5.5,0,0,0-.158-.969,14.648,14.648,0,0,0-7.716,1.935,9.618,9.618,0,0,1,6.016-4.744.5.5,0,0,0,.149-.906,6.527,6.527,0,0,0-4-.662,10.6,10.6,0,0,1-1.186.02,3.947,3.947,0,0,0-3.661,2.43,10.116,10.116,0,0,0-.7,4.191,136.25,136.25,0,0,0,.585,14.972c-1.7.463-3.387.968-5.053,1.5l-1.4-7.076c-.811-4.088-1.65-8.315-1.111-12.5.592-4.585,2.925-8.328,6.242-10.012a12.62,12.62,0,0,1,10.2-.019,35.7,35.7,0,0,1,9.047,5.789c15.361,12.31,29.747,26.23,43.66,39.692,6.29,6.087,13.419,12.985,16.324,21.9a.5.5,0,0,0,.418.342.483.483,0,0,0,.485-.237,18.463,18.463,0,0,0,2.629-9.506l-.01-1.231a18.67,18.67,0,0,0,16.588,5.066.5.5,0,0,0,.053-.966A23.813,23.813,0,0,1,305.4,100.3a4.063,4.063,0,0,0,1.227-.1,3.5,3.5,0,0,0,2.365-2c0-.006,0-.014,0-.021,12.16,1.481,24.665,2.853,36.981.969a6.725,6.725,0,0,0-1.74,6.949.5.5,0,0,0,.311.305.508.508,0,0,0,.432-.055,13.129,13.129,0,0,0,3.971-4.044,15.769,15.769,0,0,1,1.577,7.843.5.5,0,0,0,.866.37c17.971-19.464,36.553-39.59,58.08-55.806a70.01,70.01,0,0,1,13.643-8.492A32.755,32.755,0,0,1,433,43.528a11.779,11.779,0,0,1,3.147,2.679c3.251,4.028,4.179,9.392,4.911,15,.376,2.875.7,5.606.964,8.255-1-.075-2.008-.143-3.014-.193-.035-.54-.068-1.085-.1-1.621-.086-1.3-.171-2.585-.254-3.922a12.357,12.357,0,0,0-5.591-8.07.5.5,0,0,0-.693.678l2.025,3.477a.5.5,0,0,0-.608.748,19.929,19.929,0,0,1,3.209,8.625c-.537-.019-1.074-.036-1.612-.048-.045-.074-.085-.151-.131-.224a.5.5,0,0,0-.921.208c-1.772-.027-3.543-.028-5.312.007a14.369,14.369,0,0,0-4.283-.873.492.492,0,0,0-.5.363.5.5,0,0,0,.236.573c.047.026.09.058.137.084A56.614,56.614,0,0,0,408.286,72.5c-3.224,1.227-6.588,2.569-9.1,5.007,3.076-2.4,6.651-3.286,10.343-4.394a78.568,78.568,0,0,1,15.846-2.285c.5-.019,1-.031,1.5-.048a22.739,22.739,0,0,1,6.906,8.611,15.886,15.886,0,0,0-1.641-1.9.5.5,0,0,0-.781.609,15.448,15.448,0,0,1,.786,1.524l-1.588-2a.5.5,0,0,0-.849.514l1.472,3.318a15.722,15.722,0,0,0-13.65-1.058.5.5,0,0,0,.136.961A30.351,30.351,0,0,1,434.008,88.3c-.758-.093-1.515-.193-2.274-.279a13.224,13.224,0,0,0-6.338-1.5.5.5,0,0,0-.484.425.5.5,0,0,0,.133.411q-2.976-.24-5.961-.381c-7.683-2.912-15.21-4.943-20.448-4.247,5.591-.162,10.871,2,16.044,4.1-.152,0-.305-.01-.457-.012-9.777-.143-20.885.959-28.3,7.984,9.05-6.8,21.284-6.451,32.095-6.293.347.012.694.031,1.041.045.611.249,1.224.494,1.836.742a56.54,56.54,0,0,0-7.107,3.567.5.5,0,0,0,.432.9c5.258-2.105,11.233-1.347,16.909-.215.2.041.4.085.593.128l2.827,1.141c.04.031.088.052.127.085a2.469,2.469,0,0,1,.778,2.871,3.063,3.063,0,0,0-.561.813,22.16,22.16,0,0,1-8.845,8.7.5.5,0,0,0,.448.893,24.452,24.452,0,0,1,4.395-1.455c-.085.212-.18.42-.257.635l-.075.211a6.269,6.269,0,0,1-.5,1.175c-.137.159-.28.319-.422.478a3.105,3.105,0,0,1-1.008.591c-1.484-.485-2.987-.963-4.5-1.424-.1-.056-.2-.116-.3-.172-7.068-3.834-14.606-7.37-22.734-7.954,6.045,1.043,11.4,3.484,16.715,6.33-10.745-2.825-21.339-4.343-28.15-1.9,3.961-1.092,8.194-.59,12.214-.074,5.386.907,10.686,2.231,15.959,3.644,2.009.547,4.01,1.115,6.012,1.686l1.406.8a47.2,47.2,0,0,0-8.956,3.568.5.5,0,0,0,.417.908,4.375,4.375,0,0,1,2.207-.256c-1.585.342-3.148.77-4.7,1.236a158.721,158.721,0,0,0-19.649-1.685c-3.887.038-7.918-.09-11.652,1.126,4.59-.765,9.292-.05,13.908.15,5.363.367,10.733.6,16.1.811a61.178,61.178,0,0,0-7.9,3.162.5.5,0,0,0,.219.95l.049,0,12.746-1.257a14.9,14.9,0,0,0,11-4.817q.6-.528,1.171-1.059l3.5,2c-1.435,2.265-2.773,4.628-2.88,7.332-.112,2.865,1.2,5.442,2.462,7.933a21.514,21.514,0,0,1,2.283,5.824,20.376,20.376,0,0,1-.308,6.612c-.164,1.069-.334,2.174-.422,3.271-.379,4.7.726,9.362,1.8,13.872.306,1.288.611,2.575.882,3.863a39.757,39.757,0,0,1,.9,7.18,29.869,29.869,0,0,1-1.61,5.447c-.224.549-.463,1.092-.7,1.635a23.146,23.146,0,0,0-1.665,4.647,19.027,19.027,0,0,0,.118,6.8,32.943,32.943,0,0,0,2.785,9.128c.2.914.435,1.821.726,2.709a9.059,9.059,0,0,1-2.536-3.336.5.5,0,0,0-.956.153c-.379,3.869.813,7.62,1.966,11.247a38.107,38.107,0,0,1,1.963,8.234c.058.695.079,1.406.1,2.119.011.373.024.748.041,1.123q-.435,1.48-.719,2.979a30.083,30.083,0,0,0-13.8-10.55.5.5,0,0,0-.479.869,47.841,47.841,0,0,1,6.321,5.477,16.111,16.111,0,0,0-4.608-.655.5.5,0,0,0-.325.877,7.368,7.368,0,0,1,1.965,2.751,12.765,12.765,0,0,0-4.507.229.5.5,0,0,0-.384.436c-.086.842.576,1.425,1.966,1.733a1.125,1.125,0,0,1,.841.652.959.959,0,0,1-.416.183l-4.283,1.206a.5.5,0,0,0-.178.871l3.65,2.94-20.074,15.334a.5.5,0,0,0,.071.841l3.753,1.967a29.81,29.81,0,0,1-5.829,6.4l-13.314,1.918a.49.49,0,0,0-.287.168l-.341-.119q-3.982-1.34-7.987-2.616a56.266,56.266,0,0,0-.523-10.633,10.1,10.1,0,0,1,2.772,4.11.5.5,0,0,0,.959-.278l-1.772-7.883a4.1,4.1,0,0,0-1.437-2.705,4.223,4.223,0,0,0-2.89-.379l-.253.026c-4.015.4-8.038-1.017-11.924-2.386-4.272-1.5-8.689-3.058-13.2-2.282a.5.5,0,0,0-.085.963,24.819,24.819,0,0,1,2.542,1.138,18.422,18.422,0,0,0,4.1,1.618,29.111,29.111,0,0,1,13.08,6.813l-.119-.041a.5.5,0,0,0-.46.875,13.285,13.285,0,0,1,5.081,7.884,6.389,6.389,0,0,1-3.648-2.86.5.5,0,0,0-.868.5,24.432,24.432,0,0,1,1.519,3.335c-4.281-1.262-8.587-2.434-12.93-3.46-6.947-1.431-14.034-2.919-21.162-2.521,5.85.174,11.624,1.564,17.37,2.941,5.8,1.4,11.547,2.993,17.273,4.665a25.307,25.307,0,0,1,1.061,6.4q-1.309-.5-2.619-1c-11.566-4.213-23.149-8.577-35.242-11.027-5.961-.978-12.056-1.976-18.089-1.073,6.086-.316,11.864,1.058,17.852,2.324,4.663,1.149,9.282,2.452,13.868,3.867a.479.479,0,0,0-.028.122,4.046,4.046,0,0,0,.34,1.37l-.047,0a14.6,14.6,0,0,0-1.8-.434l-1.214-.405a.5.5,0,0,0-.581.207c-.19-.009-.382-.015-.573-.017h0a.5.5,0,0,0-.224.948,19.352,19.352,0,0,0,5.745,1.824.5.5,0,0,0,.556-.356.475.475,0,0,0,.014-.063.5.5,0,0,0,.217-.217.5.5,0,0,0-.153-.634,2.91,2.91,0,0,1-.4-.342.857.857,0,0,0,.206-.326,1.145,1.145,0,0,0-.37-1.143q5.4,1.7,10.75,3.589c3.949,1.391,7.874,2.845,11.79,4.323a24.586,24.586,0,0,1-.674,5.179.5.5,0,0,0,.485.619.5.5,0,0,0,.349-.141,15.98,15.98,0,0,0,3.169-4.4q2.143.822,4.283,1.655c-3.828.969-7.5,2.927-11.091,4.853l-1.265.677c-1.269.675-2.628,1.353-4.04,1.965a186.1,186.1,0,0,0-16.752-8.217.925.925,0,0,0,.756-.66c.105-.507-.262-.936-.934-1.095l-3.109-.734a.5.5,0,0,0-.575.29.537.537,0,0,0-.037.14c-.1-.029-.2-.057-.307-.084a.5.5,0,0,0-.542.217,107.437,107.437,0,0,0-19.262-5.571,90.678,90.678,0,0,1,9.589,3.15L333,260.36a13.92,13.92,0,0,0-3.913-.429.5.5,0,0,0-.039,1l2.831.315a.506.506,0,0,0,.016.123,16.011,16.011,0,0,1-3.344-.271.5.5,0,1,0-.186.982,17.021,17.021,0,0,0,4.122.265l2.155.4a9.121,9.121,0,0,0,2.315.942.515.515,0,0,0,.122.015,8.652,8.652,0,0,1,.927-.664.5.5,0,0,0-.2-.633q-.513-.31-1.046-.579l.484.01a.624.624,0,0,0,.211-.04c3.453,1.422,6.857,2.937,10.356,4.42,4.756,2.135,10.214,4.793,15.577,7.629a27.1,27.1,0,0,1-3.383,1.01q-1.625-1.192-3.276-2.35c-4.612-3.108-9.237-6.4-14.476-8.363,4.014,1.86,7.58,4.581,11.135,7.187,1.71,1.287,3.367,2.559,5,3.825a14.011,14.011,0,0,1-7.482-.783.5.5,0,0,0-.645.673l1.081,2.31c-.3,0-.6-.036-.905-.069-8.574-6.431-17.682-12.156-27.778-15.771,8.369,3.9,16.062,9.124,23.534,14.572a.441.441,0,0,0-.091.07.5.5,0,0,0-.04.629l1.618,2.277-6.906.469a.507.507,0,0,0-.255.091c-.128.09-.263.169-.391.258a24.46,24.46,0,0,0-3.291-4.163,18.825,18.825,0,0,1,2.932,4.4,56.549,56.549,0,0,1-13.149,6.649,112.432,112.432,0,0,1-14.876,1.454l-3.707.193c-1.218.063-2.435.127-3.654.161a32.146,32.146,0,0,1-4.729-.143,21.993,21.993,0,0,1-3.024-.606l-13.672-7.59c4.883-1.828,9.148-4.987,13.007-8.293,2.455-1.168,4.994-2.373,7.666-2.489,2.861-.122,5.689,1.006,8.489,2.132,6.9,2.774,14.279,5.5,21.977,5.713h.013a.5.5,0,0,0,.132-.983,109.2,109.2,0,0,1-23.013-9.227,3.021,3.021,0,0,1-1.426-1.195,3.065,3.065,0,0,1-.1-1.464,8.036,8.036,0,0,0,.041-.9,2.549,2.549,0,0,0-.789-1.768l.477-.281a.5.5,0,0,0-.076-.9,4.966,4.966,0,0,1-2.976-2.639,3.11,3.11,0,0,1-.017-2.076,13.58,13.58,0,0,0,.959-1.241c.012-.007.021-.017.033-.024a.5.5,0,0,0,.254-.415,13.907,13.907,0,0,0,1.552-3.4,14.858,14.858,0,0,1,5.012-4.889,30.027,30.027,0,0,1,2.962-1.448c.911-.406,1.853-.825,2.749-1.322a8.7,8.7,0,0,0,4.431-4.861,7.472,7.472,0,0,0-1.293-6.286l-.418-3a4.242,4.242,0,0,0-1.42-3.106.5.5,0,0,0-.783.363,5.259,5.259,0,0,1-2.646,3.693,19.462,19.462,0,0,1-2.934,1.444c-.559.239-1.119.477-1.666.741-.839.406-1.654.876-2.443,1.33a23.925,23.925,0,0,1-3.733,1.869,11.807,11.807,0,0,1-8.633-.351c-.159-.165-.317-.332-.478-.5a10.76,10.76,0,0,0-2.868-2.406,11.448,11.448,0,0,0-1.423-.566,4.894,4.894,0,0,1-2.179-1.173,4.442,4.442,0,0,1-.81-2.574,26.409,26.409,0,0,1,.79-9.061.5.5,0,0,0-.125-.477.5.5,0,0,0-.473-.138c-2.305.541-2.6,3.418-2.7,4.364l-.039.382a9.266,9.266,0,0,1-.68,3.166l-1.622-6.745a.5.5,0,0,0-.947-.075c-1.429,3.421-1.614,7.606-.552,12.437.07.316.143.631.217.947a14.719,14.719,0,0,1,.579,4.624l-.042.392a3.877,3.877,0,0,0,.141,2.064,3.666,3.666,0,0,0,1.305,1.413,26.446,26.446,0,0,0,3.891,2.346l.535.259a8.237,8.237,0,0,1,2.983,1.988,8.583,8.583,0,0,1,1.219,2.563,10.25,10.25,0,0,0,1.125,2.477,14.284,14.284,0,0,0,2.493,4c.1.113.207.219.311.329a.423.423,0,0,0-.013.071.5.5,0,0,0,.4.494.239.239,0,0,1,.181.149,1.43,1.43,0,0,1-.056,1.091c-.054.118-.112.236-.172.357a2.148,2.148,0,0,0-.012,2.811,1.361,1.361,0,0,1,.259.441c.075.345-.346.747-.53.9l-.193.159a2.89,2.89,0,0,0-1.033,1.266,1.47,1.47,0,0,0,.332,1.419c.024.024.048.048.072.07-4.333,5.185-10.963,8.164-16.836,10.482-1.257.2-2.531.334-3.791.43-.422.032-.854.061-1.291.088,3.32-5.776,6.7-11.652,11.252-16.5a75.479,75.479,0,0,0-12.764,16.577c-1.493.056-3.046.057-4.621-.041,1.824-2.47,3.665-4.884,5.508-7.191.067,0,.135.012.2.012a4.5,4.5,0,0,0,1.439-.234.5.5,0,0,0,.337-.529.53.53,0,0,0-.034-.133l.046-.019a.5.5,0,0,0-.337-.94l-.207.062c.24-.293.481-.594.721-.882,3.556-4.052,7.028-8.851,11.981-11.22-3.926,1.387-9.043,6.08-14.693,12.7l-.35.1a.5.5,0,0,0-.357.491.471.471,0,0,0,.061.169c-1.93,2.294-3.918,4.8-5.94,7.473a24.334,24.334,0,0,1-8.162-2.23Q259.419,271.838,258.528,270.7Zm8.668,8.687q.956.258,1.926.444a22.879,22.879,0,0,1-3.859,2.267Q266.225,280.741,267.2,279.387Zm-23.224,35.461c.027.025.04.06.072.08a.5.5,0,0,0,.557-.028l2.145-1.6a14.837,14.837,0,0,1-7.8,10.039Q241.44,319.08,243.972,314.848Zm-5.393,9.121v.007a.506.506,0,0,0,.522.368,18.75,18.75,0,0,0,5.689-1.361,17.054,17.054,0,0,0-.4,8.041.5.5,0,0,0,.929.149l.3-.548a6.918,6.918,0,0,1-.006,1.151,24.147,24.147,0,0,0-5.124-1.526,33.93,33.93,0,0,0-5.24-.546Q236.905,326.832,238.579,323.969Z"/></svg>