<svg id="ec05ca91-644d-4d17-9099-e842ac294c63" data-name="Layer 1" xmlns="http://www.w3.org/2000/svg" viewBox="0 0 717.282 450.667" style="fill: #215342;" height="270" width="315"><path d="M366.23,149.177a22.561,22.561,0,0,1,6.41-1.8l-2.095,3.968a.5.5,0,0,0,.695.665l2.1-1.232a10.917,10.917,0,0,1-2.394,5.237.5.5,0,0,0,.3.815l12.769,2.05-5.456,2.53a.5.5,0,0,0,.173.952,105.875,105.875,0,0,1,19.787,3.4.529.529,0,0,0,.131.017.5.5,0,0,0,.433-.748,22.572,22.572,0,0,0-22.167-10.778,10.715,10.715,0,0,1,5.228-9.177.5.5,0,0,0,.029-.847,13.038,13.038,0,0,0-10.534-1.724c.195-.56.408-1.109.616-1.645a10.161,10.161,0,0,0,.965-3.5.5.5,0,0,0-.931-.232l-6.7,11.349a.5.5,0,0,0,.636.71Z"/><path d="M370.607,133.08A67.358,67.358,0,0,1,379,130.9a14.184,14.184,0,0,1-4.246,2.058.5.5,0,0,0,.127.98c.289.007.578.011.869.011,6.336,0,13.126-1.7,20.195-5.051,6.562-3.111,12.642-7.258,18.522-11.269a.5.5,0,0,0-.419-.893L392.879,122.8a30.087,30.087,0,0,1,8.158-4.49.5.5,0,0,0-.12-.968,51.775,51.775,0,0,0-11.344.116l.514-.52a.5.5,0,0,0-.487-.834,25.629,25.629,0,0,1-5.667.86,7.754,7.754,0,0,1,2.991-1.7.5.5,0,0,0-.06-.972,11.714,11.714,0,0,0-5.751.5l.124-.158c.841-1.065,1.711-2.167.777-2.93a.5.5,0,0,0-.573-.042,25.21,25.21,0,0,0-9.115,9.443.5.5,0,0,0,.592.717l4.119-1.332a.991.991,0,0,1,.523-.081c.037.016.054.023.058.091a1.184,1.184,0,0,1-.55.866l-.309.172c-.682.373-1.531.839-1.562,1.79a.5.5,0,0,0,.8.414,5.989,5.989,0,0,1,2.48-1.114,68.9,68.9,0,0,1-8.376,9.613.5.5,0,0,0,.5.837Z"/><path d="M314.844,122.144a.5.5,0,0,0,.316.112.508.508,0,0,0,.3-.1.5.5,0,0,0,.157-.6,36.882,36.882,0,0,1-2.361-7.739,12.725,12.725,0,0,0,7.554,2.436.5.5,0,0,0,.343-.86l-2.419-2.332a10.48,10.48,0,0,0,1.652.585,6.433,6.433,0,0,0,6.183-1.392.5.5,0,0,0,.069-.552.525.525,0,0,0-.506-.293c-2.58.108-5.787.246-7.043-.886a69.983,69.983,0,0,0-8.477-6.546.5.5,0,0,0-.771.483l.095.727a3.352,3.352,0,0,0-1.266-.82,2.433,2.433,0,0,0-2.217.387,1.863,1.863,0,0,0-.528.638A89.785,89.785,0,0,1,289.8,92.522a.5.5,0,0,0-.765.638,167.5,167.5,0,0,1,10.154,15.573,5.96,5.96,0,0,0,1.279,1.765,2.329,2.329,0,0,0,2.433.466,1.679,1.679,0,0,0,.794-.8l4.444,4.855a.513.513,0,0,0,.25.148A33.93,33.93,0,0,0,314.844,122.144Z"/><path d="M363.775,208.883a1.149,1.149,0,0,0,.552.127,1.93,1.93,0,0,0,.572-.093,18.8,18.8,0,0,0,9.3-7.225,34.276,34.276,0,0,0,4.774-10.762,2.254,2.254,0,0,0,0-1.6,2.159,2.159,0,0,0-.825-.828,28.766,28.766,0,0,0-12.382-4.275,55.593,55.593,0,0,0-8.476-.331c-.465-.007-.932-.017-1.4-.011-2.5.027-5.365.256-7.682,1.743a10.657,10.657,0,0,0-4.095,5.568.455.455,0,0,0-.093.137,25.544,25.544,0,0,0-1.164,5.46,8.059,8.059,0,0,0,3.71,7.888,14.242,14.242,0,0,0,6.479,2.432.559.559,0,0,0,.057,0,.5.5,0,0,0,.177-.968,10.317,10.317,0,0,1-6.183-12.813,5.464,5.464,0,0,0,.434-.622c.131-.219.25-.445.37-.67a8.655,8.655,0,0,1,.566-.969,7.872,7.872,0,0,1,3.8-2.467l.008,0a33.218,33.218,0,0,1,16.016-.176c3.05.733,4.928,1.984,5.582,3.716s-.017,3.772-.678,5.35a22.043,22.043,0,0,1-3.428,5.856,11.919,11.919,0,0,1-5.423,3.76c-.895.281-1.1.832-.987,1.254A.831.831,0,0,0,363.775,208.883Z"/><path d="M362.178,188.752a.5.5,0,0,0-.423-.743,5.9,5.9,0,0,0-2.566.807c-.3.146-.607.3-.936.443a.5.5,0,0,0-.3.467,21.634,21.634,0,0,1-.4,4.557,10,10,0,0,0,1.753,7.779.5.5,0,0,0,.4.2h0a.5.5,0,0,0,.4-.194,23.534,23.534,0,0,0,4.3-9.2.5.5,0,0,0-.368-.593.493.493,0,0,0-.6.354.771.771,0,0,1-.487.482,1.158,1.158,0,0,1-1.007-.078,2.013,2.013,0,0,1-.712-1.936A6.885,6.885,0,0,1,362.178,188.752Z"/><path d="M281.727,175.35a.5.5,0,0,0-.667.346,20.273,20.273,0,0,0-.686,4.88,10.273,10.273,0,0,0,1.161,4.877.5.5,0,0,0,.341.249.457.457,0,0,0,.1.01.5.5,0,0,0,.313-.109,13,13,0,0,0,3.986-4.542,14.3,14.3,0,0,0,.958-4.239,15.146,15.146,0,0,1,.719-3.573.5.5,0,0,0-.19-.592,3.284,3.284,0,0,0-3.065-.714.5.5,0,0,0-.313.673,2.067,2.067,0,0,1-2.654,2.734Z"/><path d="M298.66,193.442a.5.5,0,0,0-.739-.507A24.718,24.718,0,0,1,263.486,181.8a.5.5,0,0,0-.953.211c0,4.587,1.281,7.319,2.722,9.158a9.97,9.97,0,0,1-3.273-2.2.5.5,0,0,0-.777.621,28.041,28.041,0,0,0,22.611,12.5l-3.075,1.387a.5.5,0,0,0,.024.922,9.032,9.032,0,0,0,5.7.255,22.6,22.6,0,0,1-5.8,4.585.5.5,0,0,0,.242.938.493.493,0,0,0,.075-.006,21.7,21.7,0,0,0,11.909-5.993.5.5,0,0,0,.1-.579.506.506,0,0,0-.218-.221A15.363,15.363,0,0,0,298.66,193.442Z"/><path d="M278.009,210.277a7.391,7.391,0,0,0-6.224.28l-5.323,2.576a.5.5,0,0,0,0,.9,5.844,5.844,0,0,0,1.218.445,5.536,5.536,0,0,1-1.838.465.5.5,0,0,0-.112.976l.827.259a28.308,28.308,0,0,1-8.763,3.085.5.5,0,0,0-.1.958,10.294,10.294,0,0,0,5.081.629,43.356,43.356,0,0,1-8.584,6.072.5.5,0,0,0,.237.94l.048,0c4.655-.448,8.567-3.5,11.867-6.335l.578-.5c3.157-2.714,6.421-5.52,10.383-6.523a.5.5,0,0,0,.372-.556.494.494,0,0,0-.512-.428l-4.61.164,5.477-2.488a.5.5,0,0,0-.019-.919Z"/><path d="M276.744,236.783a.5.5,0,0,0-.227-.294c-.222-.133-.4-.083-.69.1a1.311,1.311,0,0,0-.987.616.5.5,0,0,0,.222.714,1.086,1.086,0,0,0,.423.706,1.065,1.065,0,0,0,.634.2,1.228,1.228,0,0,0,.385-.064,1.077,1.077,0,0,0,.5-1.737A1.215,1.215,0,0,0,276.744,236.783Z"/><path d="M285.177,240.727l-.081-.01a.5.5,0,0,0-.541-.388l-.342.036c-.032-.031-.066-.064-.1-.1a.5.5,0,0,0-.507-.122l-1.385.445a.5.5,0,0,0,.206.973l.308-.032a.5.5,0,0,0,.544.251,5.162,5.162,0,0,1,.958-.11,1.141,1.141,0,0,0,.586.191.928.928,0,0,0,.616-.262.5.5,0,0,0-.261-.872Z"/><path d="M282.605,253.1c-.223.132-.448.263-.672.391a.463.463,0,0,0-.037-.12.5.5,0,0,0-.493-.233,3.472,3.472,0,0,0-1.747.773.5.5,0,0,0,.294.882c.137.007.269.009.411.008a.482.482,0,0,0,.226.072c.045,0,.09,0,.136,0s.082-.015.124-.017a.492.492,0,0,0,.306.115.55.55,0,0,0,.113-.012,4.081,4.081,0,0,0,1.96-1.088.494.494,0,0,0,.035-.656A.507.507,0,0,0,282.605,253.1Z"/><path d="M274.916,230.112l-1.256.329a.5.5,0,0,0-.132.912,1.975,1.975,0,0,0,.99.339.978.978,0,0,0,.418-.091,1.125,1.125,0,0,0,.6-.929.5.5,0,0,0-.621-.56Z"/><path d="M336.991,246.073a9.011,9.011,0,0,0-1.087-.186.5.5,0,0,0-.179.981,8.416,8.416,0,0,0,1.323.28l2.072.791a.478.478,0,0,0,.177.033.5.5,0,0,0,.206-.956l-2.114-.952A.455.455,0,0,0,336.991,246.073Z"/><path d="M343.009,255.251l.158.1a.493.493,0,0,0,.279.086.5.5,0,0,0,.369-.163.516.516,0,0,0,.093-.146.51.51,0,0,0,.137-.174.5.5,0,0,0-.025-.475c-.016-.03-.436-.7-.939-.669a.534.534,0,0,0-.266.1l-.577-.389a.5.5,0,0,0-.639.068l-.246.252a.5.5,0,0,0,.035.732A2.98,2.98,0,0,0,343.009,255.251Z"/><path d="M331.3,249.716l-1.772-.189-1.394-.309a.494.494,0,0,0-.591.362.5.5,0,0,0,.339.6l.3.09a.494.494,0,0,0,.176.115,7.23,7.23,0,0,0,2.619.49h.092a.593.593,0,0,0,.228-1.163Z"/><path d="M332.124,257.928a3.1,3.1,0,0,0,.9.938,1.6,1.6,0,0,0,.238.341,2.988,2.988,0,0,0,1.176.716.5.5,0,0,0,.677-.533,2.5,2.5,0,0,0-.15-.642c.028-.026.055-.053.082-.082a.5.5,0,0,0,.127-.472.492.492,0,0,0-.2-.29.924.924,0,0,0-.149-.47,1.015,1.015,0,0,0-.863-.431,1.157,1.157,0,0,0-.773.32l-.5-.158a.5.5,0,0,0-.559.763Z"/><path d="M308.42,194.844a.5.5,0,0,0-.627.463c-.119,2.809-1.892,5.154-3.36,6.627a37.675,37.675,0,0,1-3.992,3.322c-.725.548-1.449,1.1-2.153,1.672a15.689,15.689,0,0,0-5.056,6.382.5.5,0,0,0,.85.5,13.822,13.822,0,0,1,2.976-2.6,14.145,14.145,0,0,0,.377,5.713.452.452,0,0,0,.5.366.5.5,0,0,0,.359-.169l.124,1.111a.5.5,0,0,0,.439.441l.058,0a.5.5,0,0,0,.47-.331c1.188-3.32,2.665-7.45,5.7-9.96a21.768,21.768,0,0,1,2.867-1.9c.553-.325,1.1-.651,1.641-1a13.522,13.522,0,0,0,1.854-1.433,12.01,12.01,0,0,1-1.565,2.482.5.5,0,0,0,.553.788,14.087,14.087,0,0,0,6.056-4.209,19.566,19.566,0,0,0,8.585,6.25.5.5,0,0,0,.617-.7l-1.051-2.067a23.8,23.8,0,0,1,4.52,3.186,22.382,22.382,0,0,0,1.918,1.929.5.5,0,0,0,.706-.705,24.227,24.227,0,0,0-1.915-1.931,23.917,23.917,0,0,1-5.679-18.838.5.5,0,0,0-.907-.355,26.441,26.441,0,0,0-3.516,7.329,18.93,18.93,0,0,1-.954-3.333.5.5,0,0,0-.989.052,8.453,8.453,0,0,1-.863,3.055,4.263,4.263,0,0,0-.547-1.155.507.507,0,0,0-.47-.217.5.5,0,0,0-.41.315,4.5,4.5,0,0,1-2.721,2.554,21.763,21.763,0,0,0,.538-4.376A8.685,8.685,0,0,0,311.868,189a.5.5,0,0,0-.9.28,16.634,16.634,0,0,1-1.508,6.474A1.6,1.6,0,0,0,308.42,194.844Z"/><path d="M329.116,268.376a61.348,61.348,0,0,0-6.1-3.257c-3.407-1.648-6.625-3.2-9.811-6.391a.5.5,0,0,0-.851.409,14.048,14.048,0,0,1-3.4-7.195,46.078,46.078,0,0,1,1.592-5.756,8.881,8.881,0,0,0,3.8-1.645c4.772-3.089,9.468-6.42,14.01-9.641a1.958,1.958,0,0,0,1-1.459,1.85,1.85,0,0,0-.612-1.258,20,20,0,0,0-6.333-4.6.5.5,0,0,0-.466.883,11.694,11.694,0,0,1,2.338,1.682,6.542,6.542,0,0,1,1.7,3.07.759.759,0,0,1-.311.668c-.479.332-1.451.244-2.673-.239l-.358-.146c-2.128-.873-3.595-1.362-4.342-1.093a2.475,2.475,0,0,0-1.278,1.493l-.107.234c-.393.821-.735,1.631-1.061,2.4-.922,2.18-1.718,4.063-3.119,4.84a3.354,3.354,0,0,1-3.116.235,3.506,3.506,0,0,1-2.22-2.437,11.97,11.97,0,0,1-.365-3.31l-.009-.472a9.11,9.11,0,0,0-.8-4.065c-1.4-2.67-4.676-3.522-7.314-3.191-.517.066-1.034.11-1.207-.131-.2-.28.2-.845.679-1.237a33.474,33.474,0,0,1,5.5-3.646.5.5,0,0,0,.25-.57.507.507,0,0,0-.5-.371,9.357,9.357,0,0,0-7.328,3.878,3.151,3.151,0,0,0-.81,2.675,3.638,3.638,0,0,0,1.829,1.986l.307.2a12.45,12.45,0,0,1,4.014,5c.429.847.824,1.735,1.2,2.594.517,1.165,1.052,2.369,1.689,3.51a9.729,9.729,0,0,0,2.653,3.171,34.035,34.035,0,0,1-1.1,8.1,14.64,14.64,0,0,1-12.965,6.526l.158-.136a.5.5,0,0,0-.532-.834,25.48,25.48,0,0,1-14.128,1.942.5.5,0,0,0-.462.811c1.315,1.6,3.558,1.781,5.556,1.824a73.055,73.055,0,0,0,12.444-.444,24.9,24.9,0,0,0,11.27-4.342,36.366,36.366,0,0,0,14.3,8.554.5.5,0,0,0,.537-.158.5.5,0,0,0,.106-.411,25.068,25.068,0,0,0,6.362,2.669.512.512,0,0,0,.128.017.5.5,0,0,0,.266-.924Z"/><path d="M398.259,200.413a.5.5,0,0,0,.087.6l4.759,4.627-2.043-.705a.5.5,0,0,0-.575.756,114.956,114.956,0,0,1,12.491,23.712.5.5,0,0,0,.963-.241A50.052,50.052,0,0,0,409.584,214l2.619,2.3a.5.5,0,0,0,.811-.512,26.381,26.381,0,0,0-4.339-8.717c.275.124.54.247.8.366,1.346.623,1.959.892,2.427.7a.686.686,0,0,0,.386-.39.5.5,0,0,0-.139-.558,33.184,33.184,0,0,0-13.323-7.02A.5.5,0,0,0,398.259,200.413Z"/><path d="M409.754,234.546a.5.5,0,0,0,.773-.574,54.6,54.6,0,0,0-6.428-12.061.5.5,0,0,0-.35-.208.742.742,0,0,0-.726.3c-.336.482-.1,1.278.719,2.974l-1.343-.8a.5.5,0,0,0-.695.669,17.414,17.414,0,0,1,2.133,8.293l-1.451-.65a.5.5,0,0,0-.646.69,10.447,10.447,0,0,1,1.318,3.391,3.2,3.2,0,0,1-1.015,2.986,5.041,5.041,0,0,1-2.874.651,6.388,6.388,0,0,0-3.26.711.5.5,0,0,0,.257.924l1.09.02a63.411,63.411,0,0,1-16.036,1.367.467.467,0,0,0-.509.392.5.5,0,0,0,.3.57,35.217,35.217,0,0,0,24.65.694.5.5,0,0,0,.018-.937l-3.277-1.289a14.264,14.264,0,0,1,6.365-.261.5.5,0,0,0,.551-.69l-1.3-3,2.037,1.64a.5.5,0,0,0,.8-.523,28.258,28.258,0,0,0-2.72-6.534Z"/><path d="M232.083,197.066a.5.5,0,0,0,.644-.173,14.349,14.349,0,0,1,2.47-2.859,30.773,30.773,0,0,0-2.628,9.421.5.5,0,0,0,.334.528.511.511,0,0,0,.163.027.5.5,0,0,0,.425-.237c2.809-4.533,5.716-9.221,9.773-12.8a.5.5,0,0,0-.225-.864,6.583,6.583,0,0,0-3.984.434,14.428,14.428,0,0,1,5.713-5.428.5.5,0,0,0-.282-.941,14.458,14.458,0,0,0-2.517.493,55.423,55.423,0,0,1,4.512-3.636l.508-.378a.5.5,0,0,0-.533-.842,31.527,31.527,0,0,0-14.617,16.63A.5.5,0,0,0,232.083,197.066Z"/><path d="M361.569,227.183a24.631,24.631,0,0,0,8.45,1.137.5.5,0,0,0,.131-.976c-4.068-1.294-7.666-3.962-10.889-6.561a27,27,0,0,0,5.754.147.5.5,0,0,0-.011-1,7.11,7.11,0,0,1-2.386-.575,7.2,7.2,0,0,0,4.474-.5.5.5,0,0,0-.176-.942,41.906,41.906,0,0,1-12.612-3.064,22.981,22.981,0,0,1-9.941-7.956.5.5,0,0,0-.915.264c-.038,1.264,1.088,3.008,2.04,4.25,1.356,1.769,2.851,3.45,4.36,5.087l-1.85-.713a.5.5,0,0,0-.507.846,25,25,0,0,1,4.549,5.93c.4.65.805,1.3,1.222,1.935,2.445,3.722,4.892,5.778,7.7,6.472a.562.562,0,0,0,.121.014.5.5,0,0,0,.423-.765l-.86-1.372a7.206,7.206,0,0,1,1.89,1.462.5.5,0,0,0,.808-.573A13.074,13.074,0,0,0,361.569,227.183Z"/><path d="M342.2,178.329a12.556,12.556,0,0,1,1.207-3.593.5.5,0,0,0-.672-.675,11.178,11.178,0,0,0-3.827,3.23,19.681,19.681,0,0,1,3.8-10.769.5.5,0,0,0-.736-.672c-3.191,2.921-5.339,7.444-6.046,12.736-.631,4.719-.157,9.5.3,14.121a.5.5,0,0,0,.479.45.493.493,0,0,0,.51-.413l.6-3.442,1.762,5.035a.5.5,0,0,0,.436.334h.035a.5.5,0,0,0,.445-.27c2.433-4.709,4.774-8.769,8.8-10.753,2.756-1.361,5.989-1.506,9.1-1.462a88.758,88.758,0,0,1,12.6,1.1c2.472,1.039,4.879,2.272,7.245,3.485a70.792,70.792,0,0,0,11.309,4.99,8.244,8.244,0,0,1-2.106-.37.5.5,0,0,0-.447.88A16.533,16.533,0,0,0,392.743,195a11.775,11.775,0,0,1-3.685.159.5.5,0,0,0-.247.959,31.823,31.823,0,0,0,9.075,1.776c.757.073,1.513.145,2.265.231,3.281.375,7.408,1.146,10.221,3.8a.5.5,0,0,0,.75-.655c-2.042-2.854-5.261-4.522-7.5-5.529-.97-.435-1.957-.834-2.944-1.233-.67-.272-1.349-.547-2.026-.835,4.258.785,8.271,1.393,10.756,1.146a.5.5,0,0,0,.052-.987c-3.908-.813-7.86-1.69-11.744-2.607a85.357,85.357,0,0,1-11.474-3.335c-2.167-.847-4.31-1.874-6.382-2.867-1.511-.724-3.073-1.473-4.642-2.151a41.158,41.158,0,0,0-5.845-2.064c-5.846-2.181-12.593-3.808-19.3-2.682a14.72,14.72,0,0,1,9.991-5.1.5.5,0,0,0,.089-.983A17.787,17.787,0,0,0,342.2,178.329Z"/><path d="M277.445,159.765l10.728,4.539a.5.5,0,0,0-.091.158.5.5,0,0,0,.256.621,26.727,26.727,0,0,1,14.77,20.445.5.5,0,0,0,.416.433.549.549,0,0,0,.08.006.5.5,0,0,0,.452-.286,18.269,18.269,0,0,0,1.679-9.235,7.237,7.237,0,0,1,.652,5.039.5.5,0,0,0,.918.349,25.2,25.2,0,0,0,1.34-23.227.5.5,0,0,0-.944.3,25.142,25.142,0,0,1-.3,10.5,10.308,10.308,0,0,0-1.572-2.539.5.5,0,0,0-.86.176,5.071,5.071,0,0,0-.159.679,21.86,21.86,0,0,0-13.311-9.939.5.5,0,0,0-.4.9,51.183,51.183,0,0,1,4.212,3.224,56.074,56.074,0,0,0-17.666-3.1.507.507,0,0,0-.5.4A.5.5,0,0,0,277.445,159.765Z"/><path d="M236.788,172.622A41.53,41.53,0,0,0,246,173.646a42.157,42.157,0,0,0,13.971-2.364c1.441-.509,2.876-1.105,4.264-1.682,1.6-.665,3.23-1.338,4.892-1.888l.208-.019a12.272,12.272,0,0,0-1.553,3.066,6.042,6.042,0,0,0-.7,2.211,18.364,18.364,0,0,0,17.454,20.441h.021a.5.5,0,0,0,.12-.985,25.168,25.168,0,0,1-9.552-4.391,15.5,15.5,0,0,1-5.157-7.01,17.9,17.9,0,0,1,1.352-8.569c.623-1.684,3.215-3.975,3.832-4.413,7.515.752,12.047,2.568,17.269,6.908,3.009,2.5,4.588,5.066,4.691,7.621a8.968,8.968,0,0,1-3.376,6.878,27.914,27.914,0,0,1-7.082,4.1.5.5,0,0,0,.107.946,9.048,9.048,0,0,0,1.787.178c3.048,0,6.181-1.537,9.162-4.516,2.236-2.236,6.642-8.374-.706-17.042a.507.507,0,0,0-.066-.065c-10.366-8.418-16.146-8.886-21.627-8.638a33.131,33.131,0,0,0-8.833,1.677l-1.066.183-1.679.288c-5.381.906-11.028,1.455-15.878-.64a.5.5,0,0,0-.51.85l2.695,2.148a8.511,8.511,0,0,1-5.185-.606.5.5,0,0,0-.549.821l1.745,1.609a54.341,54.341,0,0,1-9.147.888.477.477,0,0,0-.5.442A.5.5,0,0,0,236.788,172.622Z"/><path d="M391.588,240.114a.5.5,0,0,0,.118-.4,4.56,4.56,0,0,0-.714-1.874,3.922,3.922,0,0,1,.676.437.5.5,0,0,0,.77-.594l-.5-1.119.734.535a.82.82,0,0,0,1.322-.95c-1.194-3.738-2.546-7.974-5.313-11.218a.5.5,0,0,0-.854.484,34.611,34.611,0,0,0,1.337,3.361.5.5,0,0,0-.727.479,13.208,13.208,0,0,0,.75,3.558l-1.438-.7a.5.5,0,0,0-.7.58l.286,1.056a4.4,4.4,0,0,0-1.218-.039.5.5,0,0,0-.414.673,3.553,3.553,0,0,0,.765,1.214,24.281,24.281,0,0,1-9.072.628,71.414,71.414,0,0,1-10.021-1.994.5.5,0,0,0-.418.887,23.246,23.246,0,0,0,8.979,3.553,71.633,71.633,0,0,0,15.1,1.612A.7.7,0,0,0,391.588,240.114Z"/><path d="M228.807,217.546a.5.5,0,0,0-.117.489,12,12,0,0,0,3.6,5.569l-2.218.654a.5.5,0,0,0-.183.86,21.854,21.854,0,0,0,10.892,5.285,15.72,15.72,0,0,0,2.22.158,13.555,13.555,0,0,0,9.331-3.488.5.5,0,0,0-.493-.84,26.7,26.7,0,0,1-13.844.525l-2.152-3.6a6.093,6.093,0,0,0,3.044-.2.5.5,0,0,0,.077-.916,5.666,5.666,0,0,1-2.6-2.953,3.631,3.631,0,0,0,2.039-1.13.5.5,0,0,0-.142-.777,9.759,9.759,0,0,1-2.588-1.965c1.971-3.257,3.958-6.585,4.437-8.87a.5.5,0,0,0-.963-.263,12.726,12.726,0,0,1-6.721,7.379.5.5,0,0,0-.146.812l1.313,1.294-.879.437a.5.5,0,0,0-.186.734,2.55,2.55,0,0,0,.565.58,7.275,7.275,0,0,1-3.8.084A.508.508,0,0,0,228.807,217.546Z"/><path d="M345.545,230.475a19.176,19.176,0,0,1-9.347-4.968l2.162.094a.494.494,0,0,0,.513-.408.5.5,0,0,0-.332-.565,9.735,9.735,0,0,1-6.11-6.247.5.5,0,0,0-.885-.142,1.712,1.712,0,0,0-.2.895l-.719-.829a.5.5,0,0,0-.871.407l.655,4.091a20.374,20.374,0,0,0-3.4-1.757.5.5,0,0,0-.607.733l3,4.69-3.229-.751a.5.5,0,0,0-.345.929l9.794,5.148a.492.492,0,0,0,.232.058.5.5,0,0,0,.388-.816,10.35,10.35,0,0,1-1.11-1.67,18.654,18.654,0,0,0,10.359,2.095.5.5,0,0,0,.057-.987Z"/><path d="M326.305,139.429l-.833,4.764a1.846,1.846,0,0,0-.542.472l-1.083-2.428a.5.5,0,0,0-.948.111l-.112.6c-.292-.716-.552-1.425-.792-2.082a17.563,17.563,0,0,0-1.2-2.821.5.5,0,0,0-.923.314,89.244,89.244,0,0,0,2.97,15.164.481.481,0,0,0,.524.36.5.5,0,0,0,.454-.443l.371-3.38a56.894,56.894,0,0,1,2.662,13.3.5.5,0,0,0,.977.1l2.134-7.112A13.429,13.429,0,0,1,330.66,160a.5.5,0,0,0,.92.246,45.029,45.029,0,0,1,14.612-14.22.5.5,0,0,0,.221-.574.5.5,0,0,0-.5-.354,18.317,18.317,0,0,0-10.662,4.17c.805-2.258,1.5-4.568,2.083-6.893a.5.5,0,0,0-.8-.507,22.775,22.775,0,0,0-3.972,4.213.518.518,0,0,0-.5.287l-1.141,2.438a60.278,60.278,0,0,1-2.13-14.557.5.5,0,0,0-.993-.07l-.814,4.874a.515.515,0,0,0-.176-.035A.468.468,0,0,0,326.305,139.429Z"/><path d="M707.864,324.156H603.1c-1.292-1.384-2.588-2.726-3.881-4.008a23.257,23.257,0,0,1-1.684-1.862l-.263-.316c2.391.067,2.789.288,5.375,1.925a.5.5,0,0,0,.646-.75c-4.387-5.058-11.93-12.2-22.427-21.25l4.761.429a.5.5,0,0,0,.384-.864l-19.831-18.411,9.082,3.638a.5.5,0,0,0,.486-.865,219.7,219.7,0,0,0-30.924-19.2,120.057,120.057,0,0,0-49.15-16.7c-3.149-.451-6.279-.761-9.373-.9a.514.514,0,0,0-.448.247c-3.674-.1-7.481-.046-11.429.2l2.156-2.265a.5.5,0,0,0-.425-.84,46.029,46.029,0,0,1-21.223-2.4,69.419,69.419,0,0,0-7.119-13.842l1.929.689a.5.5,0,0,0,.644-.62,37.289,37.289,0,0,0-4.59-9.538l1.09.918a.5.5,0,0,0,.8-.542,28.484,28.484,0,0,0-5.825-9.9,89.1,89.1,0,0,0-11.846-13.336l-.154-.147a44.662,44.662,0,0,0-9.773-12.365l1.131-.46a.5.5,0,0,0,.3-.567,6.036,6.036,0,0,0-2.671-3.8,27.913,27.913,0,0,0,8.324-12.069c1.458-3.089,2.3-6.282,1.675-9.553a22.049,22.049,0,0,0-.579-2.194,15.189,15.189,0,0,1-.665-2.847c-.3-3.058,1.238-5.9,3.129-9.035l2.33-3.86a81.151,81.151,0,0,1,12.85-.982c.932.019,2.032.1,2.862.188-.824-.169-1.656-.3-2.491-.4a75.228,75.228,0,0,0-12.444-.089l2.5-4.15c4.656-.45,9.381-.935,13.859-1.321a114.687,114.687,0,0,0-13.227.275l.646-1.07c.942-1.559,1.88-3.244,2.787-4.873.247-.443.5-.889.745-1.334,4-1.285,7.987-2.6,11.931-4.04.614-.214,1.381-.469,1.894-.654q-.981.225-1.96.457c-3.675.895-7.367,1.807-11.039,2.8l4.548-6.24c1.422-.276,2.85-.53,4.253-.861,5.033-1.047,10.241-2.427,15.08-3.764-6.22,1-12.626,1.864-18.681,3.73L457.2,100.8c.224-.31.55-.684.9-1.094,1.4-1.621,3.15-3.639,2.033-5.01a1.968,1.968,0,0,0-.951-.611c-.063-.021-.125-.045-.191-.061-.023,0-.044-.01-.067-.01h-.007a6.807,6.807,0,0,0-3.124.277c-8.484,1.02-16.606,4.263-24.488,7.416-8.155,3.262-16.574,6.631-25.322,7.484a7.464,7.464,0,0,0,1.462-2.978.5.5,0,0,0-.707-.563c-5.481,2.676-11.913,2.094-18.133,1.531l-1.185-.107a37.67,37.67,0,0,0-9.183.244.5.5,0,0,0-.507.086,22.057,22.057,0,0,0-6.42,2.1c-5.913.318-10.456-.58-15.614-1.611a95.161,95.161,0,0,0-14.828-2.076c-5.681-.291-17.8-2.782-20.384-3.392a63.991,63.991,0,0,1-7.46-3.321l-.316-.28c-.423-.379-.845-.757-1.27-1.13-2.553-2.244-5.381-4.455-8.759-5.43a27.666,27.666,0,0,0-2.787-.6A13.023,13.023,0,0,1,295,90.11a13.025,13.025,0,0,1-3.309-3.611c-.486-.681-.989-1.385-1.544-2.034-2.307-2.7-5.476-4.415-8.541-6.075-.66-.357-1.318-.713-1.967-1.078a28.5,28.5,0,0,1-4.366-2.947L261.2,50.921c-2.155-3.59-4.9-7.273-8.918-7.364a8,8,0,0,0-6.414,3.491,17.29,17.29,0,0,0-2.6,5.839c-1.292-.571-2.6-1.1-3.9-1.58-.374-.128-.817-.274-1.149-.371q.781.367,1.551.762c1.127.579,2.232,1.2,3.329,1.831-.018.067-.037.136-.054.2q-.294,1.142-.545,2.289c-1.33-.918-2.677-1.808-4.053-2.642-.334-.191-.767-.421-1.039-.555.881.562,1.728,1.174,2.557,1.809.808.648,1.61,1.319,2.408,2a103.709,103.709,0,0,0-1.911,21.4l-.825-.261c-1.191-.359-2.511-.746-3.636-1.059,1.5.561,2.981,1.147,4.463,1.744.006,3.742.118,7.478.251,11.184-1.378-.143-2.765-.277-4.093-.383,1.373.254,2.742.528,4.109.812q.033.915.067,1.828.059,1.623.117,3.257a164.9,164.9,0,0,0,.03,18.209c-.127,2.431-.329,4.854-.63,7.26a11.215,11.215,0,0,1-5.473,3.226.5.5,0,0,0,.084.985l2.506.166L224.5,134.514a.5.5,0,0,0,.168.887,12.57,12.57,0,0,0,2.248.378c-7.946,6.028-12.271,14.773-14.521,21.2-.635,1.814-1.168,3.653-1.649,5.5-.142.113-.29.219-.428.337-3.659,3.115-5.206,6.515-6.571,9.514a.5.5,0,0,0,.771.595l4.01-3.277a69.054,69.054,0,0,0-8.741,19.541.5.5,0,0,0,.741.559l1.811-1.1a36.158,36.158,0,0,0-4.73,26.6.473.473,0,0,0,.514.393.5.5,0,0,0,.471-.443,8.242,8.242,0,0,1,2.489-4.977,59.058,59.058,0,0,0-.738,10.029,62.484,62.484,0,0,0,.1,8.075c.119,1.737.279,3.475.439,5.213a78.794,78.794,0,0,1,.443,14.482,45.31,45.31,0,0,1-3.269,12.794c-3.61,1.525-7.207,3.08-10.777,4.7-1.843.834-3.764,1.712-5.546,2.547q3.678-1.316,7.351-2.65,4.183-1.521,8.348-3.094a63.319,63.319,0,0,1-2.9,5.747,30.528,30.528,0,0,1-8.225,6.445.5.5,0,0,0,.208.939,17.061,17.061,0,0,0,4.369-.332,57.241,57.241,0,0,0-19.873,42.832q-2.365,2.232-4.719,4.471c-.573.561-1.164,1.144-1.762,1.736H-1.136a.5.5,0,0,0-.5.5v16.453a.5.5,0,0,0,.5.5H186.377c.116.126.221.264.345.381,2.5,2.391,5.563,3.384,8.5,4.1a99.046,99.046,0,0,0,11.754,2.114,4.843,4.843,0,0,0,.542.68,4.9,4.9,0,0,0,3.494,1.446,5.024,5.024,0,0,0,.827-.068,6.393,6.393,0,0,0,2.961-1.416c1.787.084,3.586.136,5.406.136q3.53,0,7.137-.211c4.336-.254,8.529-.706,12.148-3.426a13.5,13.5,0,0,0,3.247-3.737H367.974a13.53,13.53,0,0,0,3.26,3.738c3.633,2.719,7.842,3.171,12.195,3.425q3.621.21,7.166.211c1.827,0,3.635-.052,5.429-.136A6.423,6.423,0,0,0,399,350.263a5.048,5.048,0,0,0,.829.068,4.927,4.927,0,0,0,3.506-1.446,4.862,4.862,0,0,0,.545-.68,99.819,99.819,0,0,0,11.776-2.108,4.364,4.364,0,0,0,.512.483,3.385,3.385,0,0,0,2.087.767,2.684,2.684,0,0,0,.715-.094,4.292,4.292,0,0,0,2.088-1.515,6.909,6.909,0,0,0,1.3-2.289,13.187,13.187,0,0,0,1.853-1.458c.124-.118.23-.256.347-.382H707.864a.5.5,0,0,0,.5-.5V324.656A.5.5,0,0,0,707.864,324.156Zm-287.4,13.22a.5.5,0,0,0-.776.273,13.922,13.922,0,0,1-1.606,4.131l0,.007a1.385,1.385,0,0,1-.328-.381,5.344,5.344,0,0,1-.489-1.547,29.894,29.894,0,0,1-.464-5.739,24.423,24.423,0,0,0-1.163-8.41,1.043,1.043,0,0,0-1.23-.765,1.337,1.337,0,0,0-.855,1.566,35.366,35.366,0,0,1,.2,9.944c-.584,4.092-2.811,8.523-5.94,9.077a1.479,1.479,0,0,1-1.615-.545,6.035,6.035,0,0,1-.5-3.014,33.912,33.912,0,0,0-.286-3.691A1.8,1.8,0,0,0,403.8,336.5a1.731,1.731,0,0,0-1.618,1.628,12.435,12.435,0,0,1-1.777,4.966c-2.437,3.449-6.355,4.624-9.522,2.861a4.98,4.98,0,0,1-2.423-2.878c-.516-1.69-.131-3.642.241-5.529.061-.309.122-.616.178-.92a33,33,0,0,0-1.334-16.79.832.832,0,0,0-.956-.6,1.007,1.007,0,0,0-.717,1.117,49.5,49.5,0,0,1-1.592,16.759,11.04,11.04,0,0,1-1.51,3.567c-.518.684-1.412,1.34-2.225.928a4.609,4.609,0,0,1-1.309-1.346,4.491,4.491,0,0,0-1.894-1.724c-.894-.307-1.754.438-2.587,1.157-.519.448-1.107.956-1.467.964h-.006c-.529,0-2.7-1.622-4.43-3.166-.284-.539-.55-1.1-.8-1.681-.17-.877-.315-1.8-.45-2.736a56.518,56.518,0,0,1-.188-10.516.5.5,0,0,0-.952-.235,19.551,19.551,0,0,0-1.225,12.721c-2.923-2.319-4.683-6.7-4.367-11.164A18.016,18.016,0,0,1,367.1,311.8c2.851-2.448,6.578-5.059,10.092-3.512l.135.06c.752.333,1.781.788,2.634.142a2.933,2.933,0,0,0,.834-1.264l.117-.265a6.2,6.2,0,0,1,2.627-2.7,35.2,35.2,0,0,1,2.222,7.247.5.5,0,0,0,.466.407h.025a.5.5,0,0,0,.48-.357,22.782,22.782,0,0,0,.814-7.78c7.188,8.1,14.284,16.28,21.558,24.175,1.379,1.507,2.846,3.119,4.176,4.561q-1.888-2.5-3.807-4.979c-6.625-8.621-13.639-16.926-20.832-25.077,5.172-1.042,10.715-.264,15.177.612a43.736,43.736,0,0,1,7.156,2.089c.52.294,1.09.608,1.753.969a28.624,28.624,0,0,1,5.641,3.585,29.935,29.935,0,0,1,6.578,9.924c1.542,6.693.259,14.5-3.106,19.615A4.158,4.158,0,0,0,420.469,337.376ZM224.2,319.236a.833.833,0,0,0-.954.6,33.136,33.136,0,0,0-1.329,16.79c.056.305.117.613.177.923.371,1.886.754,3.836.241,5.527a4.977,4.977,0,0,1-2.414,2.878c-3.157,1.762-7.055.585-9.479-2.861a12.451,12.451,0,0,1-1.77-4.966c-.195-1.145-.969-1.654-1.613-1.629a1.8,1.8,0,0,0-1.614,1.784,33.893,33.893,0,0,0-.286,3.772,5.9,5.9,0,0,1-.5,2.933,1.47,1.47,0,0,1-1.606.544c-3.116-.554-5.335-4.985-5.916-9.076a35.522,35.522,0,0,1,.2-9.945,1.337,1.337,0,0,0-.854-1.567,1.038,1.038,0,0,0-1.226.767,24.534,24.534,0,0,0-1.159,8.41,29.883,29.883,0,0,1-.462,5.738,5.364,5.364,0,0,1-.486,1.547,1.192,1.192,0,0,1-1.477.56,4.452,4.452,0,0,1-1.7-1.466c-4.013-5.023-5.652-13.6-4-20.805.2-.554.451-1.12.718-1.69.043-.062.081-.127.124-.188a.486.486,0,0,0,.08-.236,31.888,31.888,0,0,1,5.648-7.87,28.461,28.461,0,0,1,5.616-3.584c.659-.361,1.226-.675,1.743-.968a43.48,43.48,0,0,1,7.131-2.09,42.145,42.145,0,0,1,13.765-.845c-.7.779-1.408,1.553-2.1,2.341-.908,1.025-1.839,2.089-2.714,3.105q1.864-1.829,3.739-3.648l1.754-1.692a20.477,20.477,0,0,1,3.661.963c1.566.579,3.756,1.589,4.705,3.668l.115.262a2.95,2.95,0,0,0,.832,1.268,1.6,1.6,0,0,0,.275.163c-.7.905-1.388,1.808-2.044,2.676l2.334-2.572a3.272,3.272,0,0,0,2.062-.41l.134-.059c3.5-1.549,7.21,1.064,10.049,3.512a18.039,18.039,0,0,1,6.209,12.081c.315,4.462-1.435,8.841-4.345,11.161a19.628,19.628,0,0,0-1.22-12.717.5.5,0,0,0-.952.234,57.039,57.039,0,0,1-.187,10.517c-.135.941-.28,1.86-.449,2.738q-.372.868-.8,1.679c-1.732,1.549-3.945,3.159-4.415,3.165-.358-.008-.969-.538-1.459-.963-.83-.721-1.687-1.469-2.581-1.157a4.48,4.48,0,0,0-1.887,1.724,4.609,4.609,0,0,1-1.3,1.346c-.807.41-1.7-.244-2.212-.928a11.045,11.045,0,0,1-1.5-3.568,49.74,49.74,0,0,1-1.586-16.759A1.009,1.009,0,0,0,224.2,319.236Zm-37.415-23.42a.5.5,0,0,0-.657-.7l-6.469,3.291c1.145-6.354,6.686-11.2,11.843-15.261,1.33-1.049,2.743-2.165,4.131-3.366a21.58,21.58,0,0,0,7.247-5.524,23.189,23.189,0,0,1-.448,7.819.5.5,0,0,0,.921.361l2.736-4.779a35.631,35.631,0,0,0-.235,9.8c-8.488,6.655-16.64,13.73-24.615,21A58.317,58.317,0,0,1,186.78,295.816Zm38.825-147.607a.5.5,0,0,0-.632-.064l-2.1,1.4A26.291,26.291,0,0,1,232.7,140.2l.028-.015a.5.5,0,0,0-.478-.878l-.023.012a1.283,1.283,0,0,1-1.048.037l5.15-2.768a.5.5,0,0,0,.04-.858l-.311-.205a7.093,7.093,0,0,1,3.862.723q.1,1.227.266,2.446a.5.5,0,0,0-.758.436l.032,2.229-.616-.753a.5.5,0,0,0-.812.579,3.006,3.006,0,0,1-.033,2.774,9.851,9.851,0,0,1-1.992,2.518L224.6,158.088a.5.5,0,0,0,.665.744,45.741,45.741,0,0,1,19.24-8.848.5.5,0,0,0,.369.353c.033.007.067.014.1.019l12.154,2.164a.5.5,0,0,0,.432-.854l-3.311-3.152,12.3,2.973a.5.5,0,0,0,.35-.929,27.691,27.691,0,0,1-9.474-8.3,24.239,24.239,0,0,0,10.445,2.405c.612,0,1.226-.024,1.837-.073a.5.5,0,0,0,.324-.841l-1.625-1.727c2.487.856,5.635.842,9.4-.045a10.18,10.18,0,0,0,4.7-2.119c1.755-1.619,2.287-3.952,2.455-6.4l.038.039a1.836,1.836,0,0,0,2.531.21,2.26,2.26,0,0,0,.562-1.587q.015-.369,0-.736l.808,1.554a.5.5,0,0,0,.935-.144A29.245,29.245,0,0,0,285.6,112c-.018-.029-.036-.057-.055-.084a2.726,2.726,0,0,0-.381-.58c-.472-.7-.564-.743-.842-.711a.5.5,0,0,0-.414.324c-.053.144-.133.36.452.989.085.125.188.281.316.476a5.261,5.261,0,0,1,.318.973,41.138,41.138,0,0,1,1.227,9.091,16.954,16.954,0,0,0-1.058-1.893.5.5,0,0,0-.907.154l-.879,3.613-1.354-3.3a.5.5,0,0,0-.957.266,26.844,26.844,0,0,1-.314,9.932c-.612,2.767-1.625,4.608-3.1,5.627-1.56,1.078-3.774,1.339-6.771.8A29.567,29.567,0,0,1,260.7,133.8a.5.5,0,0,0-.76.461,14.792,14.792,0,0,0,1.7,5.91L254.9,138.1a27.345,27.345,0,0,1-2.785-9.957.5.5,0,0,0-.463-.459.489.489,0,0,0-.524.39,38.093,38.093,0,0,0-.9,8.737l-1.572-3.46a.5.5,0,0,0-.949.13,23.84,23.84,0,0,0-.22,5.461,11.462,11.462,0,0,0-3.585-3.459.5.5,0,0,0-.758.471l.087.993c-.729-2.433-1.4-4.727-2-6.929a20.485,20.485,0,0,1,.489-2.358c.156-.574.325-1.15.5-1.728.72-2.45,1.45-4.978,1.147-7.533.015-.067.027-.135.041-.2a24.69,24.69,0,0,1,2.4-1.992c1.676-1.275,3.41-2.595,3.859-4.066.595-1.952-.589-3.792-1.635-5.416l-.058-.091a34.371,34.371,0,0,1-4.127-9.175q-.111-3.362-.1-6.734c5,1.106,9.959,2.359,14.843,3.882,4.1,1.354,7.993,2.792,11.351,5.63a19.389,19.389,0,0,1,2.609,8.554c-3.545-6.108-11.715-9.066-18.125-11.434q-.823-.28-1.652-.542l.113.057q4.413,2.195,8.637,4.739a61.97,61.97,0,0,1,8.033,5.621,6.987,6.987,0,0,0,.041,3.9l.119.594c.158.833.388,2.854-.861,3.629a3.916,3.916,0,0,1-2.837.071l-12.027-2.591a.5.5,0,0,0-.293.952,24.643,24.643,0,0,1,10.5,8.121.5.5,0,0,0,.892-.2l.286-1.469,4.11,3.393a.5.5,0,0,0,.817-.363l.119-2.634,3.974,4.483a.5.5,0,0,0,.874-.329l.047-10.09.788.464a.5.5,0,0,0,.753-.45,36.221,36.221,0,0,0-.6-5.352l1.254,1.23a.5.5,0,0,0,.837-.473A29.048,29.048,0,0,0,271.2,96.876a17.213,17.213,0,0,0-6.919-3.986.5.5,0,0,0-.411.9,18.207,18.207,0,0,1,2.789,2.231c-6.561-4.057-15.313-4.983-22.914-6.011.027-3.359.13-6.72.291-10.074C257.275,85.705,271.463,92.2,278.61,105.1c-2.639-7.077-8.2-12.85-14.356-17.056-6.156-4.093-13.157-6.607-20.18-8.861.2-3.91.464-7.8.755-11.674,4.164,3.9,8.3,7.823,12.542,11.638,2.953,2.776,6.165,5.371,8.7,8.536-5.467-8.242-13.5-14.39-21.223-20.445q.245-3.251.5-6.474c.036-.446.074-.905.117-1.368,3.984,3.662,7.831,7.634,11.485,11.554,2.859,3.177,4.826,6.745,8.189,9.724-2.892-3.25-4.672-7.458-7.447-10.9a74.975,74.975,0,0,0-12.1-11.515,18.734,18.734,0,0,1,.57-2.91c1.473.9,2.939,1.818,4.411,2.722a40.45,40.45,0,0,1,8.129,6.1,36.167,36.167,0,0,0-12.229-9.75,9.8,9.8,0,0,1,.472-1.069c1.019-1.948,3.261-3.9,5.766-3.6,2.3.282,4.034,2.293,5.566,4.423A132.351,132.351,0,0,1,275.935,88.3a5.594,5.594,0,0,0-5.442-.147.5.5,0,0,0-.095.81c6.467,5.841,13.8,12.782,18.978,21.263,5.472,8.965,7.657,18.581,6.152,27.077a.5.5,0,0,0,.833.454,17.235,17.235,0,0,0,3.86-5.354l-.708,7.759a.5.5,0,0,0,.278.494.489.489,0,0,0,.22.051.5.5,0,0,0,.34-.133,17.325,17.325,0,0,0,5.281-13.386,10.084,10.084,0,0,0,6,2.459h.028a.5.5,0,0,0,.3-.9,16.471,16.471,0,0,1-5-6.5.45.45,0,0,0-.041-.111c-.029-.051-.048-.106-.077-.157a16.5,16.5,0,0,1-1.155-8.3.5.5,0,0,0-.982-.184,5.862,5.862,0,0,1-1.437,2.261,7.541,7.541,0,0,0-1.569,2.367c-.021.06-.037.124-.055.187L279.279,81.037c.608.417,1.219.828,1.82,1.23a50.082,50.082,0,0,1,6.161,4.593c.775.713,1.527,1.5,2.253,2.256a23.348,23.348,0,0,0,5.45,4.629,23.306,23.306,0,0,0,5.375,1.882,21.29,21.29,0,0,1,11.234,6.276l.393.338c2.48,2.134,4.954,4.132,7.958,5.138a34.817,34.817,0,0,0,4.285,1.1l9.129,5.325a.5.5,0,0,0,.745-.523,13.508,13.508,0,0,0-1.557-4.237,7.732,7.732,0,0,1,4.838,3.74l.137.258a4.167,4.167,0,0,0,.827,1.206,1.69,1.69,0,0,0,2.093.261q.041-.03.078-.063l1.426,1.854a.5.5,0,0,0,.7.093,2.782,2.782,0,0,0,1.037-2.253c0-.1-.007-.2-.017-.3a25.85,25.85,0,0,1,4.854,4.707.5.5,0,0,0,.734.054A38.062,38.062,0,0,0,352.1,115.6a4.861,4.861,0,0,0,.234,1.534.5.5,0,0,0,.809.216,11.176,11.176,0,0,1,6.826-2.827A12.709,12.709,0,0,0,357.6,118.7a.5.5,0,0,0,.773.56,15.828,15.828,0,0,1,7.2-2.946,6.946,6.946,0,0,0-1.18,2.524.5.5,0,0,0,.486.615.494.494,0,0,0,.308-.106,107.545,107.545,0,0,1,13.487-8.939c6.948-1.362,14.33-.526,21.009.353l-3.439,2.288a.5.5,0,0,0-.2.561.52.52,0,0,0,.493.356c12.919,0,25.623-4.856,36.833-9.14l12.448-4.758c-4.942,3.418-9.753,7.034-14.448,10.571-4.65,3.5-9.457,7.123-14.318,10.488-14.543,10.067-26.934,15.719-39,17.787a.5.5,0,0,0,.084.993h.01c2.7-.052,6.522-.185,9.622-.3.836-.156,1.581-.3,2.291-.453a33.867,33.867,0,0,0-9.489,13.567.5.5,0,0,0,.881.457,25.483,25.483,0,0,1,7.486-7.151l-2.573,4.856a.5.5,0,0,0,.575.715,31.2,31.2,0,0,1,9.785-1.116,14.615,14.615,0,0,1-4.013,1.61.5.5,0,0,0-.049.958,42.705,42.705,0,0,0,14.173,2.415q.788,0,1.579-.029a.5.5,0,0,0-.019-1h-.007a10.057,10.057,0,0,1-7.338-3.12,7.053,7.053,0,0,1,4.7-1.58.51.51,0,0,0,.492-.328.5.5,0,0,0-.165-.568,24.316,24.316,0,0,0-11.395-4.744,64.638,64.638,0,0,1,10.787-8.7c.868-.6,1.741-1.212,2.611-1.831,6.935-3.858,13.387-8.741,19.652-13.484,1.593-1.206,3.2-2.419,4.821-3.623.317-.1.628-.211.947-.3a.48.48,0,0,0,.152-.043q.5-.14.994-.271a62.719,62.719,0,0,1-1.22,8.38,96.885,96.885,0,0,0-17.9,7.648c5.763-2.31,11.655-4.264,17.568-6.159q-.444,1.844-1,3.659-.589.87-1.151,1.746l-.065.009c-2.881.551-6.04.793-8.631,2.207,2.571-.957,5.342-1.046,8.116-1.29q-1.329,2.136-2.478,4.291a49.431,49.431,0,0,0-20.532,7.988c5.106-3.045,10.862-4.389,16.7-5.836,1.017-.2,2.02-.392,3.017-.578-4.634,9.315-3.7,14.134-2.867,18.383.471,2.408.885,4.533.127,7.232a21.008,21.008,0,0,1-11.939,7.912l4.485-5.4a.5.5,0,0,0-.754-.656,13.758,13.758,0,0,1-10.565,4.39,11.789,11.789,0,0,0,2.264-5.7.5.5,0,0,0-.768-.476l-14.006,9.03a.5.5,0,0,0,.172.911,12.7,12.7,0,0,0,5.067-.228l-5.181,3.756a.5.5,0,0,0,.506.857,14.516,14.516,0,0,1,9.2-1,15.9,15.9,0,0,0-5.749,3.035.5.5,0,0,0,.407.877,33.485,33.485,0,0,1,17.249,1.506c.332.17.667.333,1,.506a23.262,23.262,0,0,0-15.228,2.827.5.5,0,0,0-.22.595.493.493,0,0,0,.541.332,26.3,26.3,0,0,1,17.067,3.541l-5.306-1.163a.5.5,0,0,0-.57.3.5.5,0,0,0,.193.613c7.708,4.93,11.658,13.087,13.614,19.063,2.334,7.127,3.122,14.7,3.781,22.083a17.2,17.2,0,0,0-6.923-4.768.5.5,0,0,0-.617.7l4.893,9.365-2.581-1.371a.5.5,0,0,0-.679.671l3.485,6.744-12.526-6.483a.5.5,0,0,0-.521.85c4.4,3.16,6.979,7.9,9.094,13.487a13.135,13.135,0,0,0-5.692-3.983c-.914-1.406-1.863-2.789-2.887-4.118a.5.5,0,0,0-.884.418,7.715,7.715,0,0,0,.638,1.611,7.1,7.1,0,0,1,.914,3.235h0l.1,8.8-2.134-.946a.5.5,0,0,0-.638.7c.635,1.122,1.231,2.307.937,3.382a1.628,1.628,0,0,1-1.306,1.05.75.75,0,0,1-.8-.318.5.5,0,0,0-.917.134l-.629,2.58c-6.259-2.4-12.619-4.537-19.027-6.489-2.541-.816-5.1-1.563-7.673-2.259a20.392,20.392,0,0,0-3.966-6.413,48.853,48.853,0,0,0-9.153-7.448c-.209-.151-.421-.3-.638-.433a.5.5,0,0,0-.55.835l.616.418a13.463,13.463,0,0,1,4.363,5.365c-1.962-1.888-4.026-3.72-6.186-5.636-2.071-1.838-4.211-3.737-6.481-5.876a.5.5,0,0,0-.8.568,60.826,60.826,0,0,1,3.413,9.811l-2.353-1.763a.5.5,0,0,0-.738.639,11.852,11.852,0,0,1,1.341,4.088,3.944,3.944,0,0,1-.436-1,.5.5,0,0,0-.978.2l.056.444a132.586,132.586,0,0,0-23.5-8.162c2.952.977,5.873,2.058,8.78,3.183a.5.5,0,0,0-.2.935,17.767,17.767,0,0,0,1.748.728.517.517,0,0,0,.184.035.5.5,0,0,0,.464-.313.5.5,0,0,0-.217-.612q6.538,2.613,12.922,5.664l.019.153q-9.577-1.4-19.265-1.976c3.531.61,7.067,1.2,10.6,1.788a.744.744,0,0,0,0,.221c.09.6.831,1.1,2.333,1.565a1.115,1.115,0,0,1,.692.648.5.5,0,0,0,.467.32.484.484,0,0,0,.13-.017.5.5,0,0,0,.364-.561,3.438,3.438,0,0,0-.773-1.631q2.811.477,5.617.977l.538,4.288c-10.719-3.734-20.92-6.21-29.088-6.282,8.9.763,17.484,4.07,25.979,6.815.24.081.477.171.717.252,0,.031,0,.057.01.087a20.113,20.113,0,0,1-.349,6.2c-1.838-.958-3.695-1.885-5.575-2.755l.05,0a.5.5,0,0,0,.351-.835l-.472-.52.015-.013a.5.5,0,0,0,.092-.611,14.82,14.82,0,0,0-1.42-2.064c-.544-.662-1.047-.534-1.237-.446l-.03.015q-.169-.164-.345-.321a.5.5,0,0,0-.724.684l.663.831a1.722,1.722,0,0,0,.084.233,4.663,4.663,0,0,0,1.763,2.03,7.937,7.937,0,0,0,.765.816,66.276,66.276,0,0,0-19.26-5.873c8.754,2.024,16.541,6.1,24.529,10.261A25.02,25.02,0,0,1,354.8,265.6c-.649.327-1.326.629-2.021.916a102.878,102.878,0,0,0-13.8-9.069c2.447,1.734,4.827,3.554,7.177,5.41-.1-.036-.194-.073-.292-.106a1.943,1.943,0,0,0-1.458.028.979.979,0,0,0-.5.632,1.309,1.309,0,0,0,.618,1.362,7.033,7.033,0,0,0,4.4,1.559c.112,0,.222,0,.331-.008a.5.5,0,0,0,.437-.3.492.492,0,0,0,.024-.293c.538.447,1.068.9,1.6,1.355a46.386,46.386,0,0,1-8.023,2c-.518.086-1.028.162-1.534.233-.469-.669-.952-1.329-1.438-1.985a.491.491,0,0,0,.187-.31,3.82,3.82,0,0,1,1.721-.238.9.9,0,0,0,.507-.659,1.036,1.036,0,0,0-.845-1.13,1.2,1.2,0,0,0-.778.1.87.87,0,0,0-.21-.05.515.515,0,0,0-.458.208.506.506,0,0,0-.089.224c-.077.044-.159.09-.245.141-.067-.115-.128-.247-.192-.387a2.872,2.872,0,0,0-.7-1.076.5.5,0,0,0-.805.519c.006.018.011.037.016.056a.58.58,0,0,0-.059.079,56.336,56.336,0,0,0-4.582-5.055,72.3,72.3,0,0,1,6.748,9.72c-4.279.506-7.853.42-9.141-.278a.5.5,0,0,0-.7.639c.44,1.018,1.517,1.216,2.469,1.391a2.7,2.7,0,0,1,1.778.735,1.519,1.519,0,0,1-.388,1.794,5.714,5.714,0,0,1-1.857,1.054l-.331.139a19.556,19.556,0,0,0-3.123,1.7,67.792,67.792,0,0,0-12.442,1.489l.656-1.216a.5.5,0,0,0-.675-.678c-5.85,3.1-13.056,1.383-19.937-.648a.487.487,0,0,0-.3.006,5.625,5.625,0,0,1-6.727-2.949.5.5,0,0,0-.75-.2,3.994,3.994,0,0,1-5.73-1.631.5.5,0,0,0-.805-.173c-.891.839-2.527.419-3.613-.4a15.307,15.307,0,0,1-1.252-1.1,15.87,15.87,0,0,0-1.377-1.184c-1.258-1.156-2.511-2.316-3.744-3.5,3.341-2.993,6.784-5.874,10.1-8.4a56.4,56.4,0,0,1,7.331-4.922.509.509,0,0,0-.013.11.5.5,0,0,0,.444.465l1.226.137a.591.591,0,0,0,.08.039,2.377,2.377,0,0,0,1.394.1.5.5,0,0,0-.06-.984L292.9,251a.5.5,0,0,0-.543-.752l-.066.017a.491.491,0,0,0-.226-.079h-.013c.2-.083.4-.174.6-.251-.253.072-.5.166-.747.247a1.03,1.03,0,0,0-.825.272c-.246.09-.488.191-.731.288l-.014,0a.617.617,0,0,0-.083.037,57.094,57.094,0,0,0-10.5,6.173,93.661,93.661,0,0,0-8.234,6.516q-1.554-1.511-3.08-3.046a16.836,16.836,0,0,0,3.349.725l.054,0a.5.5,0,0,0,.179-.968,13.237,13.237,0,0,1-2.432-1.235,73.46,73.46,0,0,1,10.832-7.618,60.207,60.207,0,0,0-11.671,7.038,14.585,14.585,0,0,1-3.947-4.5c1.166-.53,2.336-1.047,3.507-1.563a.513.513,0,0,0,.075.013.5.5,0,0,0,.366-.16c.029-.03.062-.058.09-.088q3.482-1.529,6.989-2.989a.463.463,0,0,0,.469.072c.356-.137.716-.261,1.067-.381a6.6,6.6,0,0,0,2.086-.843.494.494,0,0,0,.227-.417q5.508-2.216,11.069-4.271c-4.488,1.224-8.915,2.634-13.291,4.177a.5.5,0,0,0-.329.045l-.443.226q-2.187.781-4.355,1.615a4.274,4.274,0,0,0,.238-.358.5.5,0,0,0-.709-.657c-.121.076-.241.154-.361.233a2.022,2.022,0,0,0-1.238-1,.5.5,0,0,0-.54.114,14.957,14.957,0,0,0-2.2,2.855.5.5,0,0,0,.11.641c.014.01.032.007.046.017-1.168.479-2.336.96-3.5,1.46a13.566,13.566,0,0,1-1.1-4.1.5.5,0,0,0-.427-.445l-.071-3.6a.508.508,0,0,0-.095-.262c7.554-2.677,15.2-5.1,23.147-6.231a86.46,86.46,0,0,0-19.868,3.76,14.233,14.233,0,0,1,.943-1.652.5.5,0,0,0,.928.2,10.219,10.219,0,0,1,2.861-3.127.5.5,0,0,0,.131-.677.607.607,0,0,0-.047-.063.5.5,0,0,0-.068-.258.481.481,0,0,0-.122-.139c.3-.082.594-.175.893-.255,4-.9,7.885-2.011,11.963-1.924-5.081-.48-10.226.587-15.173,1.675-1.582.366-3.15.777-4.713,1.206a23.865,23.865,0,0,1,4.963-7.292l.542-.541A45.061,45.061,0,0,1,274.359,224a.5.5,0,0,0-.4-.9,14.449,14.449,0,0,0-3.143,1.07,25.935,25.935,0,0,1,6.038-5.179.5.5,0,0,0,.217-.568.5.5,0,0,0-.492-.357c-4.336.112-7.639,3.492-9.221,5.5-1.047,1.327-1.967,2.766-2.857,4.158a44.012,44.012,0,0,1-3.207,4.58c-5.769,6.9-14.594,8.975-21.007,9.5a21.119,21.119,0,0,1-12.064-5.65,18.5,18.5,0,0,0,4.292-1.888.5.5,0,0,0-.054-.885l-7.926-3.547a5.3,5.3,0,0,1-2.119-1.384,1.471,1.471,0,0,1-.04-1.875.5.5,0,0,0-.074-.8l-3.368-2.034a9.9,9.9,0,0,0,2.424-10.207.5.5,0,0,0-.471-.331h0a.5.5,0,0,0-.469.333l-.441,1.25a30.927,30.927,0,0,1,1.372-16.761c1.32-3.5,6.266-5.942,9.1-7.083a.5.5,0,0,0-.359-.933,51.869,51.869,0,0,0-10.455,5.282,8.474,8.474,0,0,1,2.614-2.434.5.5,0,0,0,.223-.594.492.492,0,0,0-.54-.335,29.532,29.532,0,0,0-13.084,5.136,50.5,50.5,0,0,1,9.9-19.544.5.5,0,0,0-.565-.784,29.919,29.919,0,0,0-9.523,5.908V182.6a78.469,78.469,0,0,1,2.589-10.04c.185-.386.37-.76.553-1.109a64.921,64.921,0,0,1,8.885-12.128.5.5,0,0,0,.065-.561.489.489,0,0,0-.5-.263,18.357,18.357,0,0,0-2.772.545,80.324,80.324,0,0,0,8.19-10.2A.5.5,0,0,0,225.605,148.209Zm59.476-36.092c-.117-.178-.221-.334-.305-.458C284.86,111.783,284.964,111.939,285.081,112.117Zm18.1,5.34c-.051.072-.1.148-.142.222C303.089,117.605,303.133,117.529,303.184,117.457Zm247.04,155.188a.5.5,0,0,0-.326.93A70.117,70.117,0,0,1,567.357,287.2l-2.131.341a.5.5,0,0,0-.22.894l4.631,3.461a31.073,31.073,0,0,0-10.846-1.566.5.5,0,0,0-.229.935c3.7,2.087,7.268,3.781,10.718,5.42,6.5,3.086,12.665,6.014,18.529,11.051l-3.773-.975a.5.5,0,0,0-.471.845l4.245,4.068a37.49,37.49,0,0,0-10.1-2.829.5.5,0,0,0-.293.941,86.739,86.739,0,0,1,20.29,14.368H523.31q-1.231-2.431-2.688-4.713a15.342,15.342,0,0,1,8.7,3.654.5.5,0,0,0,.749-.648,53.435,53.435,0,0,0-9.151-10.775,10.1,10.1,0,0,1,4.743.254.5.5,0,0,0,.388-.916,37,37,0,0,1-8.59-6.581,29.033,29.033,0,0,1,14.4,1.65.5.5,0,0,0,.487-.861,66.928,66.928,0,0,0-23.261-11.647,13.51,13.51,0,0,1,6.8.534.5.5,0,0,0,.362-.932l-3.223-1.385.781.037a.489.489,0,0,0,.518-.425.5.5,0,0,0-.369-.559c-3.009-.776-6.3-1.8-8.01-4.132l21.418,3.622a.507.507,0,0,0,.551-.316.5.5,0,0,0-.2-.6,42.547,42.547,0,0,0-24.739-6.424L490.11,282.9h0a.5.5,0,0,0-.1.989,26.34,26.34,0,0,1,7.507,2.782l-5.52.537a.5.5,0,0,0-.082.981,37.816,37.816,0,0,1,13.567,6.815l-6.605-.282a.47.47,0,0,0-.5.364.5.5,0,0,0,.239.573,40.463,40.463,0,0,1,15.014,14.613L505.79,308.3a.5.5,0,0,0-.5.812A110.016,110.016,0,0,1,516.2,324.156H480.911c-2.911-10.052-5.934-19.945-9.34-29.669a.5.5,0,0,0-.962.262,150.484,150.484,0,0,1,2.515,16.789l-.9-1.88a.5.5,0,0,0-.95.248l.4,6.489-4.9-6.179a.5.5,0,0,0-.843.525,49.921,49.921,0,0,1,4.18,13.415H453.783c3.463-11.658,4.367-23.723,2.6-34.165a75.828,75.828,0,0,1,3.018,12.276.5.5,0,0,0,.477.422h.017a.5.5,0,0,0,.488-.39,54.462,54.462,0,0,0-.44-25.648,25.833,25.833,0,0,0,5.83,4.269.5.5,0,0,0,.638-.74,59.347,59.347,0,0,1-9.641-19.851,37.366,37.366,0,0,0,8.027,7.361.5.5,0,0,0,.28.085.5.5,0,0,0,.492-.591l-1.159-6.3,18.723,3.551a.5.5,0,0,0,.394-.89L478.7,259.9a45.448,45.448,0,0,0,19.791-2,.5.5,0,0,0,.035-.935l-3.97-1.663a132.731,132.731,0,0,1,29.685,2.07c.808.246,1.639.511,2.473.78a131.648,131.648,0,0,1,26.952,15.074Zm-108.567-54.71-3.417-3.092a.5.5,0,0,0-.781.6,217.363,217.363,0,0,1,12.161,28.81,61.854,61.854,0,0,0-7.559-7.38.5.5,0,0,0-.792.544,20.962,20.962,0,0,0,3.574,5.867c3.3,4.333,7.363,9.671,7.771,21.471l-.353-.646c-1.971-3.625-4.426-8.136-9.164-11.9a.5.5,0,0,0-.742.645,26.524,26.524,0,0,1,3.626,12.286,10.9,10.9,0,0,0-4.342-2.6.5.5,0,0,0-.524.808c.917,1.041,1.8,2.117,2.657,3.211a68.589,68.589,0,0,1,5.682,26.5c-2.634-4.393-5.468-8.715-8.226-12.92a.5.5,0,0,0-.839.544,57,57,0,0,1,7.395,43.133,17.083,17.083,0,0,0-3.733-5.669.5.5,0,0,0-.853.321,35.728,35.728,0,0,0,.064,5.266,26.853,26.853,0,0,0-9.469-10.813.5.5,0,0,0-.625.772,20.955,20.955,0,0,1,5.435,10.478H428.362c-.541-5.549-2.388-11.167-5.017-14.459a22.55,22.55,0,0,0-10.459-7.292,28.281,28.281,0,0,0-5.2-2.007q-1.013-1.262-2.056-2.5a133.563,133.563,0,0,0-25.709-23.135c.563.086,1.126.175,1.693.245a.5.5,0,0,0,.472-.782,116.129,116.129,0,0,1-7.669-12.614c.813.341,1.628.678,2.439,1.027a32.286,32.286,0,0,1,6.978,5.988,5.028,5.028,0,0,0,1.108,1.322.5.5,0,0,0,.713-.693q-.49-.624-1.012-1.222a6.336,6.336,0,0,1-.7-2.239c6.043,2.768,12.033,5.7,18.013,8.715a25.093,25.093,0,0,1-3.987,3.519.5.5,0,0,0,.468.875,25.715,25.715,0,0,0,5.86-3.215l.259.13c9.013,6.838,17.54,14.233,26.385,21.8,2.089,1.784,4.767,4.19,6.484,5.667q-2.626-2.871-5.361-5.642a228.876,228.876,0,0,0-20.2-18.1q2.752,1.408,5.513,2.818c1.922.98,4.461,2.343,6.009,3.13q-2.4-1.547-4.841-3.043c-3.329-2.029-7.191-4.27-11.422-6.6-.509-.388-1.033-.769-1.546-1.155a25.733,25.733,0,0,0,3.014-2.938,14.054,14.054,0,0,1,8.415,6.461.5.5,0,0,0,.905-.417,27.383,27.383,0,0,1-1.567-9.4,6.643,6.643,0,0,1,3.163,3.147.5.5,0,0,0,.953-.178c.071-1.039.1-2.077.107-3.113,2.808,1.124,5.6,2.264,8.358,3.432,1.893.8,4.288,1.9,5.867,2.61q-2.285-1.285-4.614-2.489-4.734-2.466-9.606-4.634a50.455,50.455,0,0,0-1.878-12.972l1.634,1a36,36,0,0,1,3.923,9.538.5.5,0,0,0,.433.376l.052,0a.5.5,0,0,0,.449-.28,20.068,20.068,0,0,0,1.646-10.849c-.09-.927-.225-1.847-.392-2.763a21.538,21.538,0,0,1,2.485,15.387.5.5,0,0,0,.358.593.489.489,0,0,0,.13.017.5.5,0,0,0,.477-.351,113.161,113.161,0,0,0,4.657-23.325,12.792,12.792,0,0,0,1.354,2.8.5.5,0,0,0,.92-.27,113.392,113.392,0,0,0-4.523-32.1l1.166.957a.5.5,0,0,0,.808-.479,30.067,30.067,0,0,0-3.459-9.366l.276.075a.5.5,0,0,0,.625-.557,18.487,18.487,0,0,0-1.153-4.189q3.114,2.929,5.946,6.132A110.15,110.15,0,0,1,441.657,217.935ZM323.739,317.272a.5.5,0,0,0-.962-.128,47.815,47.815,0,0,0-2.182,7.012H305.65c-.27-.517-.55-1.031-.8-1.551-1.538-3.205-4.662-11.3-.471-17.185a.5.5,0,0,0-.8-.6,40.024,40.024,0,0,0-7.889,16.633,14.582,14.582,0,0,1,.143-7.519.5.5,0,0,0-.891-.425L287.5,324.156h-1.195a40.528,40.528,0,0,0,.434-13.3.5.5,0,0,0-.469-.429.524.524,0,0,0-.512.378,41.923,41.923,0,0,1-6.023,13.347h-8.787a39.9,39.9,0,0,0,10.269-15.324.5.5,0,0,0-.923-.381c-2.687,5.852-6.689,9.956-11.268,11.56h0a31.058,31.058,0,0,1-8.423,1.253,33.113,33.113,0,0,0-7.94,1.107c0-.442-.015-.879-.045-1.309a22.278,22.278,0,0,1,5.835-4.581.5.5,0,0,0-.321-.934l-6,1.01a28.43,28.43,0,0,0,13.413-15.828.5.5,0,0,0-.9-.423c-2.265,3.636-5.877,6.743-11.367,9.78-1.215.671-2.435,1.3-3.892,2.03a.507.507,0,0,0-.1.084,17.478,17.478,0,0,0-2.334-2.456c-5.166-4.483-8.056-4.773-10.378-5.006-.5-.05-.955-.1-1.4-.183,10.342-11.33,20.153-23.181,31.009-34.019a9.223,9.223,0,0,1-1.079,1.648.5.5,0,0,0,.353.817,6.578,6.578,0,0,0,2.965-.627l-1.46,3.82a.5.5,0,0,0,.892.442,10.714,10.714,0,0,1,5.391-4.376,22.776,22.776,0,0,0-3.038,15.275.5.5,0,0,0,.88.24,30.233,30.233,0,0,1,10.183-8.019,24.289,24.289,0,0,0-3.279,10.187.5.5,0,0,0,.964.225,14.584,14.584,0,0,1,9.408-8.57c.983-.281,3.408-.778,4.692.672a5.53,5.53,0,0,1,.972,3.148,15.64,15.64,0,0,0,.239,1.627c.8,3.644,4.108,6.084,7.24,7.991l.318.193c2.936,1.785,5.972,3.631,7.244,6.654a.5.5,0,0,0,.947-.312,12.737,12.737,0,0,1,2.131-10.324,21.821,21.821,0,0,0-.661,8.967.5.5,0,0,0,.319.4.5.5,0,0,0,.5-.091c3.287-2.862,6.686-5.822,10.671-7.72a16.437,16.437,0,0,1,11.852-1.3,118.924,118.924,0,0,0-11.595,15.429,10.879,10.879,0,0,0-1.4,2.284.5.5,0,0,0,.224.648.491.491,0,0,0,.232.057.5.5,0,0,0,.428-.243q.655-1.089,1.333-2.164a19.792,19.792,0,0,1,6.652-4.9c.7-.351,1.413-.687,2.125-1.025A30.2,30.2,0,0,0,340.467,297c3.743-3.409,5.432-8.286,7.066-13,.175-.5.35-1.011.529-1.517q7.392,13.113,14.436,26.42c.224.418.466.879.7,1.336a16.357,16.357,0,0,0-5.127,13.923H325.014A51.645,51.645,0,0,1,323.739,317.272ZM268.453,236.65a.5.5,0,0,0-.247.272,3.126,3.126,0,0,1-1.441.232.507.507,0,0,0-.508.321l-1.627,4.3a.494.494,0,0,0-.007.3q-1.548.478-3.089.988a24.416,24.416,0,0,1,1.195-4.767q3.041-.961,6.107-1.834ZM409.524,264.4l-.158-.438.243.088Zm-6.246,8.584c-6.119-4.493-12.54-8.805-19.1-12.785.022-.351.044-.7.043-1.056a14.082,14.082,0,0,0-.464-3.426c8.168,2.245,16.285,4.874,24.271,7.763A25.758,25.758,0,0,1,403.278,272.981ZM204.994,227.43a22.484,22.484,0,0,1,2.084-6.213c.837-1.15,1.722-2.268,2.6-3.369.384-.483.768-.966,1.147-1.45q.528-.675,1.045-1.37l.678-.337-3.889,7.149a.5.5,0,0,0,.744.635,16.365,16.365,0,0,1,5.083-2.634,63.683,63.683,0,0,0-3.577,27.462.5.5,0,0,0,.868.291,20.823,20.823,0,0,1,9.258-5.852,37.112,37.112,0,0,0-4.117,10.089.5.5,0,0,0,.778.525,37.812,37.812,0,0,1,14.77-6.4,22.6,22.6,0,0,0-1.31,1.868c-9.365,3.5-18.706,7.06-27.951,10.854a31.647,31.647,0,0,0,2.487-11.58,63.785,63.785,0,0,0-.521-8.081C204.758,235.189,204.334,231.234,204.994,227.43Zm69.618,43.515-.082-.022Zm77.874,2.417.082-.053c1.555-.374,3.021-.827,4.372-1.3.476.431.958.855,1.43,1.291a16.889,16.889,0,0,0,1.546,2.958.5.5,0,0,0,.417.225.486.486,0,0,0,.092-.009.5.5,0,0,0,.4-.386l.084-.4q5,4.743,9.8,9.73l.588,1.281a1.035,1.035,0,0,1,.136.464c-.03.145-.3.28-.734.363a21.557,21.557,0,0,1-13.578-1.829,2.672,2.672,0,0,0-.794-.4.5.5,0,0,0-.383.918c.213.116.428.227.645.335.031.025.062.051.091.078-.331-.074-.658-.157-.945-.249q-.561-.392-1.113-.8a.5.5,0,0,0-.77.564,2.094,2.094,0,0,0,1.427,1.133,60.84,60.84,0,0,0,13.944,7.22.5.5,0,0,0,.636-.655,5.947,5.947,0,0,1-.422-2.134,50.983,50.983,0,0,1,9.843,9.5.5.5,0,0,0,.824-.563,16.78,16.78,0,0,1-2.008-5.364,35.685,35.685,0,0,1,4.038,6.01c-.332.193-.662.387-.994.585a35.647,35.647,0,0,1-4.34,2.3,8.418,8.418,0,0,1-2.643.55c-2.331.233-5.232.523-10.417,5-.133.115-.255.236-.383.354-.114-.274-.224-.549-.339-.823A244.534,244.534,0,0,0,348.825,280.4,28.41,28.41,0,0,1,352.486,273.362Zm4.241,12.688c-.182-.091-.371-.169-.551-.266C356.356,285.881,356.545,285.959,356.727,286.05ZM406.1,299.981c-5.314-1.168-11.479-2.317-17.418-1.177-.634.123-1.2.266-1.746.418q-.2-.93-.464-1.871A55.919,55.919,0,0,0,381.86,286.4a20.183,20.183,0,0,1,3.653,4.141.5.5,0,0,0,.892-.433,10.717,10.717,0,0,1-.478-4.52l2.662,3.216a.5.5,0,0,0,.884-.355c-.181-2.484-1.936-4.869-4.693-6.377a26.348,26.348,0,0,0-5.658-2.055c-.589-.164-1.178-.328-1.762-.5-2.1-.635-4.729-1.622-6.4-3.633a.5.5,0,0,0-.862.468l1.82,5.844a3.2,3.2,0,0,1-2.34-1.636.5.5,0,0,0-.663-.216.492.492,0,0,0-.266.372c-2.38-2.4-4.811-4.75-7.313-7.019l.928-4.353a62.568,62.568,0,0,0,14.083,4.781,174.879,174.879,0,0,1,28.975,24.151c.63.652,1.259,1.324,1.884,2C406.833,300.175,406.47,300.063,406.1,299.981Zm-22.066-38.068q6.546,4.008,12.882,8.336c.319.222.629.452.946.675-4.467-2.295-9.177-4.6-13.989-6.8C383.89,263.383,383.954,262.64,384.029,261.913ZM361.4,256.867c-.271.149-.692-.071-.887-.366a1.445,1.445,0,0,1-.123-.253c.4.138.8.28,1.2.421A.479.479,0,0,1,361.4,256.867ZM261.33,244.813c0-.07.018-.138.024-.208l.109-.039ZM202.9,260.241c9.06-3.462,18.089-7.009,27.158-10.45a21.763,21.763,0,0,0-1.418,3.6.5.5,0,0,0,.879.442,7.287,7.287,0,0,1,4.623-2.731l-2.449,3.4a204.4,204.4,0,0,0-27.1,13.573l2.483-6.632a.5.5,0,0,0-.868-.477,13.8,13.8,0,0,1-4.92,4.051A19.008,19.008,0,0,0,202.9,260.241Zm17.276,12.224a.5.5,0,0,0-.627-.774l-5.6,3.738a20.7,20.7,0,0,0,1.965-7.808.5.5,0,0,0-.678-.492,20.921,20.921,0,0,1-9.9,1.184c8.564-4.248,17.042-8.178,25.612-11.855a.479.479,0,0,0,.419.064l5.507-2a41.69,41.69,0,0,0-3.433,14.053c-7.126,4.31-14.073,8.914-20.829,13.733A44.7,44.7,0,0,1,220.178,272.465Zm46.933-8.031a9.407,9.407,0,0,1,.054,3.041c-3.768,3.629-7.354,7.457-10.889,11.307-7.577,8.27-14.915,16.759-21.847,25.579a5,5,0,0,1-.482-.174,35.228,35.228,0,0,1-4.322-2.3,23.016,23.016,0,0,0-5.122-2.479c12.144-11.719,24.318-23.424,37.383-34.123,1.493-1.184,2.925-2.372,4.337-3.548A11.458,11.458,0,0,1,267.111,264.434Zm-61.026,24.69a35.512,35.512,0,0,0,1.019,4.5.5.5,0,0,0,.48.357h.011a.5.5,0,0,0,.474-.38,44.254,44.254,0,0,1,3-8.307c.475-.358.945-.732,1.421-1.086,6.776-5,13.749-9.606,20.874-13.887a41.238,41.238,0,0,0,1.592,12.53.5.5,0,0,0,.447.36h.033a.5.5,0,0,0,.457-.3c2.271-5.139,4.572-10.113,7.768-14.466a28.319,28.319,0,0,1,11.2-9.451,13.492,13.492,0,0,0-1.315,3.972.5.5,0,0,0,.8.477l2.613-2-1.177,2.964a.5.5,0,0,0,.8.559l7.5-6.656c.092.061.182.126.276.186.463.7.912,1.41,1.312,2.14-5.542,4.135-10.809,8.621-15.986,13.2-9.056,8.056-17.843,16.427-26.084,25.317-.467-.125-.955-.243-1.488-.346-5.908-1.142-12.054.008-17.349,1.176A28.294,28.294,0,0,0,198,302.4a22.462,22.462,0,0,0-10.42,7.293,25.053,25.053,0,0,0-4.178,9.55l-.812.636,1.369-5.221a.5.5,0,0,0-.837-.481l-3.988,3.982a58.271,58.271,0,0,1,1.358-7.046C188.866,303.478,197.368,296,206.085,289.124Zm-32.107,32.432c.036.883.079,1.734.118,2.6h-.934ZM167.624,323q1.706-1.587,3.42-3.177.073,2.171.332,4.333H166.36C166.78,323.77,167.2,323.387,167.624,323Z"/></svg>