<?xml version="1.0" encoding="utf-8"?>
<!-- Generator: Adobe Illustrator 24.2.3, SVG Export Plug-In . SVG Version: 6.00 Build 0)  -->
<svg version="1.1" id="bf4fe2aa-3597-48fe-845e-d1231e1f79c3"
	 xmlns="http://www.w3.org/2000/svg" xmlns:xlink="http://www.w3.org/1999/xlink" x="0px" y="0px" viewBox="0 0 728 508.6"
	 style="enable-background:new 0 0 728 508.6; fill: #215342;" xml:space="preserve" height="255" width="275">
<path d="M301.1,232.7c-0.3,0-0.5,0.3-0.5,0.5c0,0.2,0.1,0.4,0.3,0.4l2.1,0.9c-4.1,0.6-8.1,2.1-11.7,4.2c-0.8,0.2-1.5,0.5-2.2,1
	c-0.7,0.5-1.3,1-1.9,1.5c-0.4,0.3-0.8,0.7-1.2,1c-2.9,2.3-6.5,3.3-10.2,2.9c-0.3,0-0.5,0.2-0.6,0.4c0,0.2,0,0.3,0.1,0.4l0.2,0.2
	c-5.6-1.5-11.5,0-15.7,4c-0.2,0.2-0.2,0.5,0,0.7c0.1,0.1,0.2,0.1,0.4,0.1c0.1,0,0.2,0,0.2-0.1c3.1-1.7,6.9-1.4,10.2-0.9
	c0.5,0.1,1,0.2,1.6,0.2c3,0.5,6.2,1,9.3,0.3c2.5-0.6,4.8-1.6,6.8-3c-0.3,0.9-0.5,1.9-0.6,2.9c-0.3,2.1-0.1,4.2,0.6,6.2
	c1.6,4.3,5.8,6.9,9.3,8.8c2,1.1,4.2,2,6.4,2.6c1.1,0.3,2.3,0.4,3.4,0.4c1.2,0,2.5-0.2,3.6-0.6c0.2-0.1,0.4-0.3,0.3-0.6
	c-0.1-0.2-0.3-0.4-0.5-0.4c-7.5,0.8-14.7-3.1-18.1-9.8c-0.9-1.6-1.3-3.4-1.4-5.2c-0.1-4.4,3.1-8,6.1-9.9c0.5-0.3,1.1-0.6,1.6-0.9
	c0.6-0.1,1.2-0.3,1.8-0.4c0.8-0.1,1.5-0.2,2.2-0.3c-2.4,2.4-3.6,5.7-3.4,9.1c0.3,3.8,2,7.3,4.8,10c0.6,0.8,1.5,1.2,2.5,1.3
	c0,0,0.1,0,0.1,0c0.9-0.1,1.8-0.6,2.3-1.4c2.3-2.5,3.9-5.7,4.5-9.1c0-0.3-0.1-0.5-0.4-0.6c0,0,0,0-0.1,0l-4.6-0.1
	c-0.2,0-0.4,0-0.6-0.1c-0.2-0.2-0.4-0.4-0.5-0.6c-0.7-1-1.1-2.1-1-3.3c0.2-0.9,0.7-1.6,1.3-2.3c0.4-0.7,1.2-1.2,2-1.4
	c0.8,0.1,1.5,0.5,2,1.2c0.6,0.7,1,1.6,1.2,2.5c0.1,0.3,0.3,0.4,0.6,0.4c0.1,0,0.2-0.1,0.3-0.2c0.8-1,1.2-2.2,1.2-3.5
	c0.6,0.3,1.1,0.7,1.6,1.2c2,1.8,3.4,4.2,4.1,6.7c-0.2,4.6-2.4,9-6.1,11.9c-0.2,0.2-0.3,0.5-0.1,0.7c0.1,0.1,0.2,0.2,0.4,0.2
	c0.1,0,0.2,0,0.3-0.1c1.3-0.9,2.5-2.1,3.4-3.4c1.2-1.6,2.2-3.2,3-5c0.1,0.7,0.1,1.5,0.2,2.2c0,0.3,0.2,0.5,0.5,0.5
	c0.2,0,0.4-0.1,0.5-0.3l0.7-1.9c0.4,5.3-1.3,10.5-4.7,14.5c-0.2,0.2-0.2,0.5,0.1,0.7c0.1,0.1,0.2,0.1,0.3,0.1c0.1,0,0.1,0,0.2,0
	c3.1-1.1,6-2.8,8.4-5c0.5,1.2,0.8,2.5,0.8,3.8c0,0.3,0.2,0.5,0.5,0.5c0.1,0,0.3-0.1,0.4-0.2c0.6-0.6,1.1-1.2,1.6-1.9
	c0.4,4.6-1.6,9.3-3.4,13.5c-2.2,5.1-4,10.1-2.9,15.1c0,0.2,0.2,0.3,0.4,0.4c0,0,0.1,0,0.1,0c0.1,0,0.3-0.1,0.4-0.2
	c0.8-1.1,1.4-2.3,1.8-3.6c0.3-1.1,0.8-2.2,1.5-3.1c1-1.2,2.6-1.7,4.1-1.4c0.3,0.1,0.5-0.1,0.6-0.4c0-0.1,0-0.2,0-0.2
	c-1.3-4.9,0.3-10,1.7-14c0.4-1,0.8-2.1,1.2-3.1c0.1-0.3,0.3-0.6,0.4-1c0.1-0.1,0.2-0.1,0.2-0.2l3.2-7.7l0.6,1.4
	c0.1,0.2,0.3,0.3,0.5,0.3l0,0c0.2,0,0.4-0.1,0.5-0.3c1.6-4,2.3-8.4,2-12.8c-0.3-4.3-1-8.5-2-12.7c-1.2-5.8-2.7-11.2-6.9-14.5
	c-0.2-0.2-0.5-0.1-0.7,0.1c-0.1,0.1-0.1,0.3-0.1,0.4l0.2,1c0.6,2.5,0.8,5,0.8,7.5c-1.8-1.7-4.3-2.5-6.8-2.2c-0.3,0-0.5,0.3-0.4,0.6
	c0,0.1,0.1,0.2,0.1,0.3c1.6,1.6,2.7,3.6,3.3,5.8c-2.7-2.4-6.1-3.7-9.7-3.9c-0.3,0-0.5,0.2-0.5,0.5c0,0.2,0.1,0.4,0.3,0.5
	c9.8,5.3,14,17.1,9.7,27.4c-2-2-3.2-4.7-4.4-7.5c-0.2-0.5-0.4-1-0.7-1.5c-3.1-6.8-7.6-12.9-13.3-17.9c-0.2-0.2-0.5-0.2-0.7,0
	c-0.1,0.1-0.1,0.2-0.1,0.4l0.1,0.9C309.1,233.4,305.1,232.5,301.1,232.7z"/>
<path d="M320.2,292.9c-5.5,5.1-14,6.4-20.3,3.2l3.2-1.2c0.3-0.1,0.4-0.4,0.3-0.6c0-0.1-0.2-0.2-0.3-0.3c-1.5-0.6-3-1-4.6-1.3
	c2.4-1,4.6-2.5,6.4-4.4c0.2-0.2,0.2-0.5,0-0.7c-0.1-0.1-0.2-0.1-0.4-0.1c-5.4,0.5-10.8,0.2-16.1-0.7c-0.2,0-0.5,0.1-0.6,0.3
	c-0.1,0.2,0,0.5,0.2,0.6l3.2,1.6c-5.5-0.1-10.9-2.2-15-5.8c-0.2-0.2-0.5-0.2-0.7,0c-0.2,0.2-0.2,0.4,0,0.6
	c5.1,6.5,11.4,11.9,18.7,15.9c-1.2,0.2-2.5,0.1-3.7-0.3c-0.3-0.1-0.5,0.1-0.6,0.3c-0.1,0.2,0.1,0.5,0.3,0.6l3,1.1
	c-3.1,0.1-6.1,0.1-9.2-0.2c-0.2,0-0.4,0.1-0.5,0.3c-0.1,0.2,0,0.5,0.2,0.6c3.5,2.4,7.7,3.7,12,3.7c1.8,0,3.5-0.2,5.2-0.7
	c0.2,0,0.3-0.2,0.4-0.4c3.9-0.2,7.7-1,11.4-2.4c4.5-2,7.7-5.5,8.4-9.5c0.1-0.3-0.1-0.5-0.4-0.6C320.4,292.7,320.3,292.8,320.2,292.9
	L320.2,292.9z"/>
<path d="M397.9,292.2c1.8,0.3,3.7,0.5,5.6,0.5c8.8,0,18.5-3.5,27.8-10.1c0.2-0.1,0.3-0.2,0.4-0.3c0.2-0.2,0.3-0.5,0.1-0.7
	c-0.1-0.2-0.4-0.3-0.7-0.2c-1.2,0.7-10.6,1.7-14.4,1.9c5.7-5.1,10.2-11.4,13.2-18.4c0.1-0.3,0-0.5-0.3-0.7c-0.2-0.1-0.5,0-0.6,0.2
	c-3.5,5.1-8.9,9.1-14,10.6c0.4-0.4,0.7-0.8,1.1-1.2c0.7-0.8,1.4-1.6,2.2-2.4c0.2-0.2,0.2-0.5,0.1-0.7c-0.1-0.2-0.4-0.2-0.6-0.1
	c-5,2.2-10.3,3.8-15.8,4.6c-0.3,0-0.5,0.3-0.4,0.6c0,0.1,0.1,0.3,0.2,0.3c0.7,0.5,1.4,1,2.1,1.5c0.9,0.8,2,1.4,3.1,1.9
	c-2.8,0.7-7.1,1.5-10.1,1.9c-0.3,0-0.5,0.3-0.4,0.6c0,0.2,0.1,0.3,0.3,0.4c3.9,1,7.8,1.7,11.8,1.9c-7.7,3.2-15,3.3-20.8,0.2
	c-0.2-0.1-0.5,0-0.7,0.2c-0.1,0.1-0.1,0.3,0,0.5C388.9,288.7,392.8,291.3,397.9,292.2z"/>
<path d="M277.2,299.1c3.1-0.1,6.3,0.3,9.2,1.2c0.3,0.1,0.5-0.1,0.6-0.3c0.1-0.2,0-0.4-0.2-0.5c-1.1-0.9-2.3-1.8-4.4-3.3l-1.6-1.1
	c-4.4-3.1-10-3.7-15-1.7c-0.3,0.1-0.4,0.4-0.3,0.7c0.1,0.2,0.2,0.3,0.4,0.3l0.4,0c-1.4,0.5-2.7,1.3-3.8,2.2
	c-0.2,0.2-0.2,0.5-0.1,0.7c0.1,0.1,0.2,0.2,0.4,0.2h0h0.1c-1.8,1.1-3.3,2.7-4.3,4.7c-0.1,0.2,0,0.5,0.2,0.7c0.1,0.1,0.3,0.1,0.4,0
	l1.7-0.7c-4.2,4.8-7.1,10.7-8.1,17.1c0,0.3,0.1,0.5,0.4,0.6c0,0,0.1,0,0.1,0c0.2,0,0.3-0.1,0.4-0.2c2.9-4.5,6.1-9.2,10.5-12.6
	c4.8-3.7,10.3-5.1,15.2-4c0.3,0.1,0.5-0.1,0.6-0.4c0-0.1,0-0.2-0.1-0.4C279.5,300.9,278.4,299.9,277.2,299.1z"/>
<path d="M270.9,230.2c0.4,0.2,0.8,0.3,1.2,0.5c3,1.2,6.1,2,9.4,2.1c1.2,0,2.4-0.1,3.5-0.5c2-0.7,3.9-1.6,5.6-2.8
	c0.7-0.4,1.4-0.8,2.1-1.2c3-1.7,5.6-2.2,7.7-1.4c0.3,0.1,0.5,0,0.6-0.3c0.1-0.2,0-0.5-0.2-0.6c-2.5-1.4-4.4-3.7-5.4-6.4
	c1.4,0.4,2.7,1.1,3.9,2c0.2,0.2,0.5,0.1,0.7-0.1c0.1-0.1,0.1-0.3,0.1-0.5l-3.6-8.4l2.7,0.8c0.3,0.1,0.5-0.1,0.6-0.3
	c0-0.1,0-0.3,0-0.4c-0.5-1-1.1-1.9-1.7-2.8c0,0,0.1,0,0.1,0c0.9,0,1.8-0.2,2.7-0.5c0.3-0.1,0.4-0.4,0.3-0.6c0-0.1-0.1-0.1-0.1-0.2
	l-1.2-1.1l2.6,0.2c0.2,0,0.4-0.1,0.5-0.3c0.1-0.2,0.1-0.4-0.1-0.6c-1.1-1.2-2-2.6-2.7-4.1l2,1c0.2,0.1,0.5,0,0.7-0.2
	c0.1-0.2,0.1-0.4-0.1-0.5c-1.6-2-2.6-4.3-3.1-6.8c0,0.1,0.1,0.1,0.1,0.2c0-0.1-0.1-0.1-0.1-0.2c-0.1-0.6-0.3-1.2-0.4-1.9
	c-0.2-1-0.3-2-0.4-3c-0.3-2.3-0.7-4.6-1.3-6.8c-1.6-5.1-4.9-9.4-9.4-12.2c-0.2-0.1-0.5-0.1-0.7,0.2c-0.1,0.1-0.1,0.3,0,0.5
	c0.6,1.2,1.4,2.3,2.3,3.3c1.5,1.8,3.1,3.9,3.8,6.4c-2.1-1.1-4.3-1.9-6.5-2.4c-0.3-0.1-0.5,0.1-0.6,0.4c0,0.2,0.1,0.4,0.3,0.6
	c0.1,0,7,3.8,9.3,10.3c-1.4-1.5-2.9-2.8-4.6-4c-6.1-8.2-16.1-12.6-25.3-16.7c-2.5-1.1-5.2-2.2-7.7-3.2c2.4,1.2,4.8,2.5,7.2,3.7
	c7,3.9,14.6,7.8,20.5,13.1c-0.4-0.2-0.9-0.4-1.3-0.6c-9.5-3.4-19.9-1.7-29.7-0.7c-2.1,0.3-4.6,0.6-6.5,1c2.7-0.2,5.4-0.4,8.1-0.5
	c9.5-0.3,18.7-0.9,27.5,1.7c1.7,0.6,3.3,1.3,4.9,2.1c1.6,1.8,3,3.8,4.2,5.9c1.5,2.7,2.7,5.6,3.7,8.5c-0.1,1-0.3,2-0.6,3
	c0,0.1-0.1,0.2-0.1,0.3c-0.5-0.2-0.9-0.4-1.3-0.7c-2.9-2.1-6.3-3.3-9.9-3.4c-0.3,0-0.5,0.2-0.5,0.4c0,0.2,0.1,0.5,0.3,0.6
	c1.2,0.5,2.2,1.1,3.1,2c-2.5-0.3-5-0.2-7.5,0.3c-0.3,0.1-0.4,0.3-0.4,0.6c0,0.2,0.2,0.4,0.5,0.4c2.7,0.2,5.3,1.2,7.5,2.7l-3,0.4
	c-0.3,0-0.5,0.3-0.4,0.6c0,0.2,0.1,0.3,0.3,0.4c3.4,1.5,5.9,4.5,6.9,8c-2.7,1.2-5,3.1-6.7,5.6c-0.2,0.2-0.1,0.5,0.1,0.7
	c0.1,0.1,0.3,0.1,0.5,0c1.2-0.5,2.5-1,3.8-1.3c-2.2,2.4-4.8,4.5-7.6,6.1c-2.9,1.7-6.3,2.1-9.5,1.3c-0.4-0.1-0.8-0.3-1.2-0.5
	c-0.3-0.1-0.5,0-0.6,0.3C270.6,229.8,270.7,230.1,270.9,230.2L270.9,230.2z M293.4,190.5c-0.2-0.3-0.4-0.6-0.5-0.9
	c1.2,0.9,2.3,1.8,3.4,2.8c0.1,0.3,0.2,0.7,0.3,1c0.4,2.3,0.7,4.6,0.6,6.9l0-0.1C296.3,196.9,295,193.6,293.4,190.5L293.4,190.5z"/>
<path d="M247.5,241.3c3.4-2.3,7.5-3.4,11.6-3.1l-4.5,4.4c-0.2,0.2-0.2,0.5,0,0.7c0.2,0.2,0.5,0.2,0.7,0c5.5-4.5,13.3-5.7,19.6-6.6
	c0.3,0,0.5-0.3,0.4-0.6c0-0.2-0.2-0.4-0.4-0.4l-6.5-1.4c-0.1-0.2-0.2-0.3-0.4-0.4c-4.9-0.7-9.4-3-12.8-6.5c-0.2-0.2-0.5-0.2-0.7,0
	c-0.6,0.4-0.4,1.2,0,2.2c-2.4-1.7-4.5-3.7-6.2-6c-0.2-0.2-0.5-0.3-0.7-0.1c-0.2,0.1-0.2,0.3-0.2,0.5c0.9,3.7,3.4,6.8,6.8,8.6
	c-3.5,1.4-6.5,3.9-8.5,7.2c-0.5,0.9-0.3,1.4-0.1,1.6S246.4,242.1,247.5,241.3z"/>
<path d="M259,271.4c-1,0.9-1.9,1.8-2.8,2.8c-0.2,0.2-0.1,0.5,0.1,0.7c0.2,0.1,0.4,0.2,0.6,0c1.9-1.1,4-1.7,6.2-1.6
	c2.2,0.1,4.5,0.5,6.6,1.1c0.2,0,0.4,0,0.5-0.2c0.1-0.2,0.1-0.4,0-0.6c-2.6-4-6.8-6.5-11.5-6.9c1-1.9,2.6-3.5,4.5-4.6
	c0.2-0.1,0.3-0.4,0.2-0.7c-0.1-0.1-0.2-0.2-0.3-0.2c-1.4-0.4-2.8-0.4-4.2-0.1c1.2-1.5,2.9-2.7,4.7-3.3c2.3-0.7,4.8-1.2,7.2-1.3
	c0.3,0,0.5-0.3,0.5-0.5c0-0.2-0.2-0.4-0.4-0.4l-0.8-0.1c-2.8-0.5-6-1-9.9,0.7c-4.1,1.9-7.4,5.2-9.1,9.3c-0.1,0.3,0,0.5,0.3,0.7
	c0.1,0.1,0.3,0.1,0.4,0l2.2-1.1l-2.1,3c-0.2,0.2-0.1,0.5,0.1,0.7c0.1,0.1,0.2,0.1,0.3,0.1h0.5c-0.9,1.4-1.7,2.9-2.4,4.5
	c-0.8,1.9-1.1,4-0.8,6.1c0,0.2,0.2,0.4,0.4,0.4h0c0.2,0,0.4-0.1,0.5-0.3C251.9,275.5,255.1,272.6,259,271.4z"/>
<path d="M422.5,238.8c1,0,2.1-0.1,3.1-0.2c0.4,0,0.8-0.1,1.2-0.1l-3,2.4c-0.2,0.2-0.2,0.5-0.1,0.7c0.2,0.2,0.4,0.2,0.6,0.1
	c4.2-2.5,9.5-2.1,13.2,1.1l-4.3,5.5c-0.2,0.2-0.1,0.5,0.1,0.7c0.1,0.1,0.3,0.1,0.5,0.1l2.6-0.8c-1.4,1.3-2.7,2.7-3.9,4.3
	c-0.2,0.2-0.1,0.5,0.1,0.7c0.2,0.1,0.4,0.1,0.6,0c5.2-3.9,11.3-6.3,17.7-6.9c0.3,0,0.5-0.3,0.4-0.5c0-0.2-0.1-0.3-0.3-0.4l-6.1-3.2
	l0.4,0.1c0.3,0,0.5-0.1,0.6-0.4c0-0.2,0-0.3-0.1-0.4c-2.5-2.6-5.6-4.5-9.1-5.5l0.6-0.7c0.2-0.2,0.2-0.5,0-0.7
	c-0.1-0.1-0.2-0.1-0.3-0.1c-5.2-0.6-10.5,0.6-14.9,3.4c-0.2,0.1-0.3,0.5-0.2,0.7C422.2,238.7,422.4,238.8,422.5,238.8L422.5,238.8z"
	/>
<path d="M432.9,272.2c-0.3,0-0.5,0.3-0.5,0.5c0,0.2,0.2,0.4,0.4,0.4l1.8,0.4c-4.6,0.7-8.2,2.7-9.5,5.5c-0.1,0.2,0,0.5,0.2,0.7
	c0.1,0.1,0.3,0.1,0.4,0c3.4-1.2,7.1-1.6,10.7-1.1l-1.4,0.8c-0.2,0.1-0.3,0.5-0.2,0.7c0.1,0.1,0.2,0.2,0.4,0.2
	c7.3,1.1,14.4,3.7,20.7,7.6c0.2,0.1,0.5,0.1,0.7-0.2c0.1-0.2,0.1-0.5-0.1-0.6l-2.1-2l5.9,3.3c0.2,0.1,0.5,0,0.7-0.2
	c0.1-0.1,0.1-0.3,0-0.5C455.5,277.5,444.5,271.4,432.9,272.2z"/>
<path d="M269.1,164.9L269.1,164.9c-4.6-0.1-9.3,0-13.9,0.4c-1,0.1-2.1,0.2-3,0.3c1.1,0,2.2,0.1,3.3,0.1c5.5,0.3,11.1,0.3,16.6,0.8
	c6,3.1,11.5,6.6,15.5,12.3c-2.7-4.8-6.6-8.8-11.2-11.8c3.7,0.6,7.3,1.8,10.6,3.5c-3.9-2.8-8.5-4.6-13.3-5.2
	c-7.8-4.6-17.1-7.3-25.1-9.2c-1-0.2-2.3-0.5-3.2-0.6c1.3,0.3,2.6,0.7,3.9,1.1C256.1,159,262.7,161.7,269.1,164.9z"/>
<path d="M456.8,385.7c-0.1,0-0.1,0-0.1,0c0.2,2.5,0.1,5.1-0.5,7.6c-2.8,5-1.7,8.1-2.2,9.1c-0.1,1-0.2,1.9-0.4,2.9
	c2.6-2.5,5-5.2,5.9-8.8C460.8,391.2,458.2,387.8,456.8,385.7z"/>
<path d="M301.3,381.1c0.1,0,0.1,0,0.1,0.1c-0.6,2.5-0.9,5-0.7,7.6c2,5.4,0.4,8.2,0.8,9.3c-0.1,1-0.1,1.9,0,2.9
	c-2.1-2.8-4.1-6-4.4-9.6C296.6,385.9,299.6,383,301.3,381.1z"/>
<path d="M471.1,387.8C471,387.8,471,387.8,471.1,387.8c0.2,2,0.3,4,0,6c-1.8,3.9-0.8,6.3-1.1,7.1c0,0.8,0,1.5-0.1,2.2
	c1.7-1.9,3.3-4.1,3.8-6.9C474.3,392.1,472.2,389.4,471.1,387.8z"/>
<path d="M585.9,387.6h-95.6c1.8-0.1,3.6-0.5,3.5-1.6c0,0,0,0,0,0c-0.1-0.7-0.2-1.3-0.3-2l3.1,2c0.1,0.1,0.2,0.1,0.3,0.1l1.8-0.3
	c0.2,0,0.4-0.2,0.4-0.4c1.2-6.9,0.2-14-2.6-20.5c-1.3-5.7-4-11-7.8-15.4c3.4,2,6.1,4.9,7.9,8.4c0.1,0.2,0.4,0.4,0.7,0.2
	c0.2-0.1,0.3-0.3,0.3-0.5c-0.6-2.7-1.3-5.4-2.2-8c1.2,0.5,2.4,0.9,3.5,1.4c-1.2-0.6-2.4-1.1-3.6-1.7c-1.9-5.5-4.4-10.7-7.6-15.5
	l3,2.3c0.2,0.2,0.5,0.1,0.7-0.1c0.1-0.2,0.1-0.4,0-0.6l-5.2-7.3l5.4,2.6c0.2,0.1,0.5,0,0.7-0.2c0.1-0.2,0.1-0.4-0.1-0.5
	c-2.4-3-5.1-5.6-8.2-7.8c4.5,1.1,9,2.2,13.4,3.3c1.7,0.9,3.4,1.8,5.1,2.9c0.2,0.2,0.5,0.1,0.7-0.1c0.1-0.1,0.1-0.3,0.1-0.4
	c-0.1-0.3-0.2-0.6-0.3-0.8c4.6,1.3,9.1,2.6,13.7,4c5.1,1.6,10.2,3.4,15.1,5.5c-4.8-2.5-9.7-4.7-14.8-6.5c-4.8-1.7-9.6-3.2-14.4-4.6
	c-1.3-3.9-3.2-7.6-5.5-11c0.5-0.7,0.5-0.7,1-1.4l2.9,0.9c0.2,0.1,0.4,0,0.6-0.2c0.1-0.1,0.1-0.2,0.1-0.3c5,0.6,10,1.1,15,1.8
	c-5.2-1.1-10.5-2-15.8-2.9c-1.2-1.5-2.1-3.3-2.6-5.1c1.6,1.4,3.4,2.4,5.4,3c0.3,0.1,0.5-0.1,0.6-0.3c0-0.1,0-0.2,0-0.3l-8.7-23.3
	l2.2,2.3c0.2,0.2,0.5,0.2,0.7,0c0.1-0.1,0.2-0.3,0.1-0.5c-1.3-5.2-3.6-10-6.7-14.4c-0.6-1.2-1.3-2.4-2.2-3.4c3.4,1.3,6.6,2.9,9.5,5
	c0.2,0.2,0.5,0.1,0.7-0.1c0.1-0.2,0.1-0.4,0-0.5c-1.7-3-3.5-5.8-5.6-8.5c2.8,1.1,5.7,1.7,8.7,1.8c0.3,0,0.7,0,1,0
	c0.3,0,0.5-0.2,0.5-0.5c0-0.2-0.1-0.3-0.2-0.4c-2.4-1.9-4.6-4-6.5-6.5l4.4,0.9c0.2,0,0.4,0,0.5-0.2c0.1-0.2,0.1-0.4,0-0.6
	c-5.9-8.7-10.7-18-14.3-27.9c2.4,2.1,5.2,3.9,8.1,5.2c0.3,0.1,0.5,0,0.7-0.3c0.1-0.1,0.1-0.3,0-0.4c-7.7-16.3-20.8-29.4-37.1-37.2
	c-1.5-2.5-2.2-5.4-2.1-8.3c0.1-1.4,0.4-2.8,0.8-4.2c0.6-2.3,1.2-4.6,0.7-7c-0.5-1.8-1.3-3.4-2.4-4.9c-0.7-1.1-1.4-2.2-1.9-3.4
	c-0.8-2.1-1-4.4-0.7-6.6c0,0,0.1-0.1,0.1-0.1c6.8-0.2,13.7,0.2,20.5,1.1c1.8,0.3,3.9,0.6,5.5,1c-1.5-0.4-2.9-0.8-4.4-1.2
	c-4.7-1.1-9.4-1.7-14.2-2.1c8.7-1.4,17.4-2.4,26.2-3c2.2-0.1,4.8-0.1,6.7-0.1c-1.7-0.2-3.4-0.3-5.1-0.4c-11.8-0.3-23.6,0.8-35.1,3.1
	c0.1-1,0.3-2,0.5-2.9c0.1-0.8,0.3-1.6,0.4-2.3c1.6-9.8,0.3-19.5-1.3-29.3c-0.3-1.7-0.6-3.5-0.9-5.3c4.6-0.4,9.1-0.7,13.7-0.9
	c1.6,0,3.7,0.1,5.1,0.2c-1.4-0.3-2.8-0.4-4.2-0.5c-4.9-0.3-9.9-0.3-14.9,0c-0.2-1.3-0.4-2.6-0.7-3.9c2.3-0.5,4.6-1,6.8-1.4
	c2.5-0.5,5.5-1,7.7-1.3c-2.1,0.1-4.3,0.3-6.4,0.6c-2.7,0.3-5.5,0.7-8.3,1.1c-0.1-0.5-0.2-1-0.3-1.5c-0.7-4.2-1.5-8.6-2.2-12.9
	c-0.3-2.4-0.9-4.7-1.8-7c4.2-2,8.6-3.8,13-5.3c6-2.2,12.2-4,18.5-5.3c-5.8,0.7-11.6,1.9-17.2,3.5c-5.1,1.5-10.1,3.4-15,5.7
	c-0.4-0.7-0.9-1.3-1.5-1.8l0,0c1.8-1.3,3.8-2.3,5.9-2.9c0.3-0.1,0.4-0.3,0.4-0.6c-0.1-0.2-0.3-0.4-0.6-0.4c-1.3,0.2-2.7,0.3-4,0.2
	c-2.7-0.2-5.3,0.2-7.9,1l3.2-3.8c0.2-0.2,0.1-0.5-0.1-0.7c-0.2-0.1-0.4-0.2-0.6-0.1c-16.5,8.4-28.6,23.1-40.4,37.3
	c-4.9,5.9-9.3,12.1-13.2,18.7c-1.5,2.5-2.7,4.3-3.3,4.5c-1,0.2-2.1-0.1-2.8-0.7c-0.5-0.4-0.7-0.9-0.8-1.5v-0.2
	c0-0.3-0.2-0.5-0.5-0.5c-0.3,0-0.5,0.2-0.5,0.5c0,0,0,0,0,0c0,0.1,0,0.2,0,0.3c0,1.8-0.3,3.5-0.8,5.2c-0.3-0.8-0.7-1.5-1.1-2.2
	c-0.2-0.2-0.5-0.3-0.7-0.1c-0.1,0.1-0.2,0.2-0.2,0.3c-0.5,1.7-1,3.5-1.4,5.3c-2.4,0-4.8,0.2-7.2,0.6c-0.8,0.1-1.6,0.2-2.2,0.3
	l0.6-3.6c0-0.3-0.1-0.5-0.4-0.6c-0.2,0-0.4,0.1-0.5,0.2c-1.6,2.5-4.2,4.3-7.1,4.9c-2.8,0.5-5.6,0.7-8.4,0.5l0.8-2
	c0.1-0.3,0-0.5-0.3-0.6c-0.1,0-0.2,0-0.3,0c-1.9,0.4-3.7,1.3-5.3,2.5c-0.1-2.1-0.9-4.1-2.2-5.7c-0.1-0.1-0.3-0.2-0.4-0.2
	c-0.2,0-0.3,0.1-0.4,0.3l-1.1,2.3c-2-0.3-3.9-0.9-5.6-2c-0.2-0.1-0.5-0.1-0.7,0.1c-0.5,0.7-0.9,1.5-1.2,2.3
	c-1.1,0.3-2.2,0.4-3.3,0.2c-0.3,0-0.5,0.1-0.6,0.4c0,0.1,0,0.3,0.1,0.4l0.9,1.4c-2.1-0.4-4.3,0.2-6.5,1c-2.4,0.9-4.9,1.8-7.2,1
	c-0.3-0.1-0.5,0.1-0.6,0.3c0,0.1,0,0.2,0,0.3c0.3,0.6,0.7,1.2,1.2,1.7c-3.2,0.3-6.4-0.6-9.1-2.4c-0.2-0.2-0.5-0.1-0.7,0.1
	c0,0.1-0.1,0.1-0.1,0.2c-0.5,2.4-2.1,4.4-4.4,5.4c0.5-1.3,0.7-2.7,0.4-4.1c0-0.3-0.3-0.5-0.6-0.4c-0.1,0-0.2,0.1-0.3,0.2l-0.7,0.8
	c-0.3-1-0.7-2-1.1-2.9c-0.1-0.2-0.2-0.3-0.4-0.3c-0.2,0-0.3,0-0.5,0.1c-0.8,0.8-1.4,1.7-1.8,2.6c-0.4-0.8-1-1.5-1.6-2.1
	c-0.2-0.2-0.5-0.2-0.7,0c-1,1-1.6,2.3-1.7,3.7c0,0.9,0.1,1.7,0.5,2.5c-5.7-2.4-10.8-6-15.1-10.4c-11-9.5-22.4-19.3-35.1-27
	c-8.4-5.1-17.4-9.2-26.2-13.2c-0.2-0.1-0.5,0-0.7,0.2c-0.1,0.2,0,0.5,0.2,0.6l3.3,2.4c-1-0.3-2-0.4-3-0.5c-0.3-0.1-0.6-0.1-0.8,0
	c-0.3,0-0.5,0.2-0.5,0.5c0,0.3,0.2,0.5,0.5,0.5c0.1,0,0.2,0,0.3,0c-2.8,0.3-5.5,1.3-7.8,3.1c-0.2,0.2-0.3,0.5-0.1,0.7
	c0.1,0.2,0.4,0.3,0.6,0.2c2.8-1.2,5.9-1.4,8.8-0.7c-1.9,0.6-3.5,1.6-4.9,3c-0.1,0.1-0.2,0.3-0.1,0.4c0,0.1-0.1,0.2-0.1,0.3l-3.4,3.2
	c-0.2,0.2-0.2,0.5,0,0.7c0.1,0.1,0.3,0.2,0.5,0.1l1.2-0.4c-0.3,1.5-0.5,3-0.4,4.5c-3.5,0.6-7,1.4-10.4,2.4c3.4-0.7,6.9-1.2,10.4-1.5
	c0,0.5,0,1,0.1,1.4c0,0.6,0.1,1.2,0.1,1.9c0,1.8,0.1,3.6,0.2,5.4c-2.2,0.5-4.4,1-6.6,1.5c-3.9,1-7.8,2.4-11.4,4.1
	c0.2-0.1,0.5-0.2,0.7-0.3c4.6-1.6,9.3-2.8,14.1-3.5c1.1-0.2,2.1-0.3,3.2-0.5c0.1,2.8,0.2,5.4,0.4,8.1c-1.5,0.4-3,0.9-4.5,1.4
	c-1.9,0.6-3.9,1.2-5.7,1.9c2.8-0.7,5.6-1.4,8.4-2l1.9-0.4c0.9,16.5,3.9,32.8,8.8,48.6c-2.1,0.4-4.1,0.8-6.1,1.1
	c-1.3,0.3-2.8,0.6-3.9,0.8c1.7-0.2,3.4-0.4,5.2-0.6c1.6-0.2,3.4-0.4,5.1-0.6c0.3,1.2,0.2,0.8,0.5,2c-11.4,4-22.6,8.8-33.5,14.3
	c-4.5,2.3-9.9,5.3-13.8,7.7c5.4-2.6,10.8-5.1,16.3-7.5c8.9-3.8,20-8.8,31.6-13c0.5,1.5,1,2.9,1.5,4.5c2.9,8.3,4.1,11.8,5.2,14.2
	c-2.4,0.5-4.7,1.5-6.7,3c-0.2,0.2-0.3,0.5-0.1,0.7c0.1,0.1,0.3,0.2,0.4,0.2l3.1-0.2l-2.5,1.4c-0.2,0.1-0.3,0.4-0.2,0.7
	c0.1,0.2,0.4,0.3,0.6,0.2c1.5-0.4,3.2-0.3,4.6,0.5c-8.8,3.7-16.3,11.8-20.6,22.6c-4.5,11.4-5.1,23.7-5.7,35.6c0,0.3,0.2,0.5,0.5,0.5
	c0.2,0,0.4-0.1,0.5-0.3c0.9-2.4,2.7-4.4,5.1-5.4c-2,4-3.1,8.4-3.3,12.8c0,0.3,0.2,0.5,0.4,0.5c0,0,0,0,0.1,0c0.2,0,0.4-0.2,0.5-0.4
	c1.4-5.5,4.8-10.8,9.9-15.7c-0.5,1.1-1,2.2-1.3,3.3c-1.1,3.4-1.9,6.9-2.4,10.5c-0.3,1.9-0.7,3.8-1.1,5.6c-1.5,6.6-3.7,11.1-6.9,14.3
	c-0.2,0.2-0.2,0.5,0,0.7c0.1,0.1,0.2,0.1,0.3,0.1c1,0.2,2-0.1,2.9-0.7c-0.3,3.5-0.2,7.1,0.5,10.6c-0.6,4.2-0.3,8.6,1,12.6
	c0.1,0.2,0.3,0.3,0.5,0.3c0.2,0,0.4-0.1,0.5-0.3l1-3c1,5.1,0.2,10.3-2.4,14.8c-0.1,0.2-0.1,0.5,0.2,0.7c0.1,0.1,0.2,0.1,0.4,0.1
	c1-0.2,1.9-0.7,2.8-1.3c-2,7.4-1.5,15.2,1.3,22.3c0.1,0.3,0.4,0.4,0.7,0.3c0.2-0.1,0.3-0.2,0.3-0.4l0.4-5.5
	c1.3,3.7,2.7,7.3,4.4,10.8c-0.2,1.6-0.2,3.1-0.2,4.7c0,0.5,0,1.1,0,1.6c-1.5,1.3-3,2.6-4.2,3.7c1.4-1.1,2.8-2.1,4.2-3.2
	c0.1,1.3,0.1,2.6,0.2,3.9c0.1,0.9,0.1,1.9,0.2,2.8h-82.4c-0.3,0-0.5,0.2-0.5,0.5v20.7c0,0.3,0.2,0.5,0.5,0.5h99.6
	c0.6,1,1.3,1.9,2.2,2.7c3.2,2.7,7.1,3.9,10.8,4.7c5,1.1,8.8,5,20.2,4.9c0.3,0,0.7,0,1-0.1c1.4-0.2,2.7-0.8,3.8-1.6
	c2.3,0.1,4.6,0.2,7,0.2c3,0,6-0.1,9.1-0.2c5.5-0.3,10.9-0.8,15.5-3.9c2-1.4,3.6-3.3,4.8-5.4c0.6-0.4,0.5-1.2,1.8-1.1l9.2,0h82.6
	c0.7,0.6,1.4,1.1,2.1,1.6c0.7,0.5,1.4,1.1,1.9,1.9c1.1,1.6,2.5,3.1,4.1,4.2c4.6,3.1,10,3.6,15.5,3.9c3.1,0.2,9.1,5.3,25.3,0.2
	c0.3-0.1,0.5-0.5,0.7-0.8c7.3,3.6,10.2-1.4,15.2-2.4l0.1,0c0.2,0.2,0.4,0.4,0.7,0.6c0.7,0.5,1.6,0.8,2.6,0.9c0.3,0,0.6,0,0.9-0.1
	c1-0.3,1.9-0.9,2.6-1.7c0.7-0.8,1.3-1.7,1.7-2.6c0.8-0.5,1.6-1.1,2.4-1.7c1.2-1,2.1-2.3,2.8-3.8h101.9c0.3,0,0.5-0.2,0.5-0.5v-20.7
	C586.4,387.8,586.2,387.6,585.9,387.6z M470.1,315.6c-0.7-0.2-1.5-0.3-2.2-0.5c-1.8-0.3-3.9-0.7-6.2-1l-3.9-4.8
	c9.7,0.5,19.5,1.3,29.2,2.3c2.3,1.6,4.2,3.9,5.4,6.4C485.3,315.3,477.6,314.4,470.1,315.6z M470.2,338.4c0.4,0.2,0.8,0.4,1.2,0.6
	c-2.9-1.1-5.8-2.2-8.7-3.2c-2.1-5-5.8-9.2-10.4-12.1c-0.2-0.1-0.5-0.1-0.7,0.1s-0.1,0.5,0.1,0.7c1.7,1.2,2.9,2.9,3.4,4.9
	c-6.2-2.6-13.1-3.5-19.7-2.6c-6.7-1.9-13.4-3.8-20.3-5.2c2.2-0.4,4.4-0.6,6.6-0.6c0.3,0,0.5-0.2,0.5-0.5c0-0.2-0.1-0.3-0.2-0.4
	c-1.6-1.1-3.3-1.9-5.2-2.4l4.6-1c0.3-0.1,0.4-0.3,0.4-0.6c0-0.2-0.2-0.3-0.3-0.4l-0.3-0.1l4.2-0.7c0.3,0,0.5-0.3,0.4-0.6
	c0-0.2-0.2-0.4-0.4-0.4l-2.6-0.6l5.7-0.6c0.3,0,0.5-0.3,0.4-0.5c0-0.2-0.1-0.4-0.3-0.4c-0.7-0.3-1.5-0.5-2.2-0.8
	c3.9,0.5,7.7,1.1,11.6,1.7l-10.1,2.2c-0.3,0.1-0.4,0.3-0.4,0.6c0,0.2,0.2,0.3,0.3,0.4l2.4,0.8l-5.8,1.4c-0.3,0.1-0.4,0.3-0.4,0.6
	c0,0.2,0.2,0.3,0.4,0.4c1.7,0.4,3.4,0.6,5.2,0.6c4.6,0,9.2-1.3,13.7-2.5c1.9-0.5,3.7-1,5.6-1.5c2-0.1,4,0,6,0.1
	c0.4,0.1,0.8,0.1,1.2,0.2c1.6,0.3,3.2,0.6,4.8,0.9c-2.6,0.3-5.1,0.8-7.5,1.7c-0.3,0.1-0.4,0.4-0.3,0.6c0.1,0.2,0.2,0.3,0.4,0.3
	c8.6,0.9,16.9,4,24,9c-1.7,0-3.3,0.3-4.9,0.9c-0.3,0.1-0.4,0.4-0.3,0.6c0,0.1,0.1,0.2,0.2,0.3l5.4,3.2l-3.4-0.3
	c-0.3,0-0.5,0.2-0.5,0.5c0,0.2,0.1,0.4,0.2,0.5c2.6,1.6,5,3.5,7.3,5.5c-3.6-1.3-7.3-2.1-11.1-2.3c-0.2,0-0.5,0.2-0.5,0.4
	C469.9,338.1,470,338.3,470.2,338.4z M426.8,338.4c-0.1-0.2-0.3-0.4-0.6-0.3c-3.2,0.6-6.5-0.6-8.6-3.2l5,0.6c0.2,0,0.4-0.1,0.5-0.3
	c0.1-0.2,0-0.4-0.1-0.6c-5.2-4.5-11.6-7.3-18.5-8.2c-0.5-0.2-1.1-0.4-1.6-0.5c0.5-0.5,1.1-0.9,1.6-1.4c2.2-0.7,4.4-1.4,6.7-2
	c7.1,1.3,14.1,3,21,4.9c0.2,0.1,0.4,0.1,0.7,0.2c0,0,0,0,0,0.1c0,0.2,0.2,0.4,0.4,0.5c2,0.3,3.9,1,5.7,2c-3.8-0.9-7.8-1-11.7-0.2
	c-0.3,0.1-0.4,0.3-0.4,0.6c0,0.1,0.1,0.3,0.3,0.3c0.4,0.2,0.7,0.5,1.1,0.8c1.3,1.2,2.9,2.1,4.6,2.6c5.6,1.9,9.8,6.4,11.3,12.1
	c0.1,0.2,0.3,0.4,0.5,0.4c0.2,0,0.4-0.2,0.5-0.4c0.3-1.5,0.2-3-0.1-4.5c1.7,1.3,3,3.1,3.8,5c0.1,0.3,0.4,0.4,0.6,0.3
	c0.2-0.1,0.3-0.3,0.3-0.5l-0.1-2.4c2.7,6.1,4,12.8,3.9,19.5c-2-0.3-4-0.6-6-0.8c-0.8-0.8-1.7-1.6-2.5-2.5
	c-7.2-6.9-14.6-13.5-22.4-19.7c1.3-0.6,2.6-1.2,3.9-1.9C426.8,338.9,426.9,338.6,426.8,338.4z M395.1,339.1c0,0.1,0.1,0.1,0.1,0.1
	l0,0l1.3,1.4c-1,0.1-1.9,0.3-2.8,0.7c-0.3,0.1-0.4,0.4-0.3,0.7c0,0,0,0,0,0.1l0.4,0.7c-6.4,0.1-11.3,1.8-15.7,5.6
	c-0.2,0.2-0.2,0.4-0.1,0.6c0.1,0.2,0.3,0.3,2.3,1.1l0.6,0.2c-3.1,0.5-6.2,0.7-9.3,0.6l-1.9,0c-0.3,0-0.5,0.2-0.5,0.5
	c0,0.5,0.5,0.9,1.5,1.5c0.4,0.3,0.8,0.5,1.2,0.8c-1.3-0.1-2.6-0.2-3.9-0.5c-1.4-0.2-2.8-0.4-4.3-0.5c-0.1,0-0.3,0-0.4,0.2
	c-2,1-4,1.8-6.1,2.6c-0.7,0.3-1.2,0.5-1.6,0.6c0.1-0.3,0.2-0.6,0.3-0.8c0.3-0.7,0.6-1.6,0-2.3c-0.1-0.1-0.3-0.2-0.4-0.1
	c-1.3,0.3-4.4,1-7.5,1.7c-2.6,0.6-5.1,1.2-6.7,1.5c0.3-1,0.6-2.3,1.4-2.3c0.3,0,0.5-0.2,0.5-0.5c0-0.2-0.2-0.4-0.4-0.5
	c-2.9-0.5-5.8-0.6-8.8-0.3c-1.9,0.1-3.8,0.1-5.7,0c0.4-0.4,0.8-0.9,1.3-1.5c0.6-0.8,1.2-1.5,2-2c0.2-0.1,0.4-0.4,0.2-0.7
	c-0.1-0.2-0.2-0.3-0.4-0.3c-1-0.1-1.9-0.2-2.8-0.3c1.2-3.1,2.4-6.3,3.7-9.3c0.6-0.2,1.3-0.4,1.9-0.7c6.9-3.1,14.9-4.9,26-5.8
	c0,0,0.1,0,0.1,0c6.1-1.6,12.4-2.3,18.7-2c0.7,0.1,1.5,0.1,2.2,0.2c2,0.3,4,0.4,6,0.3c1.5-0.1,2.9-0.4,4.3-1h0.1
	c1.3,0.8,2.6,1.6,3.9,2.4c0.1,0.2,0.2,0.3,0.4,0.3c0.1,0,0.1,0,0.2,0c1.6,1,3.2,2,4.7,3c0.5,0.3,1,0.7,1.4,1
	c-2.3,0.5-4.6,1.2-6.8,2.2C395.1,338.6,395,338.8,395.1,339.1z M243.9,362.7c6.1-4.7,12.3-9.4,18.6-14l-0.1,1.5
	c0,0.3,0.2,0.5,0.4,0.5c0.3,0,0.5-0.1,0.5-0.4c0.2-0.9,0.4-1.8,0.6-2.7c8.9-6.4,17.9-12.5,27-17.9c0,0.1,0,0.1,0.1,0.2
	c0.1,0.2,0.4,0.3,0.7,0.2l0.2-0.1c2.8-1.6,6.4-0.4,9,0.8c0.1,0,0.2,0.1,0.2,0.1c-7.9,4.6-15.4,9.8-22.5,15.7
	c-1.8,0.3-3.6,0.4-5.4,0.4c-0.2,0-0.5,0.2-0.5,0.4c-0.1,0.2,0.1,0.5,0.3,0.6c0.9,0.4,1.8,0.7,2.8,1c-5.7,4.9-11.2,10-16.4,15.4
	c-1.8,0.5-3.6,1.2-5.4,2c-2.5,0.8-4.9,1.9-7.1,3.2l0,0l-0.1-1.1c0-0.3-0.3-0.5-0.6-0.4c-0.2,0-0.3,0.1-0.4,0.2l-1.4,2.2
	c-0.5-2.1-0.7-4.2-0.6-6.3C243.9,363.7,243.9,363.2,243.9,362.7z M303.8,335.9c0.1,0.2,0.3,0.4,0.5,0.4h0l0.9,0l0,0
	c-1.5,0.9-2.9,1.9-4.3,2.9c-1.1,0.8-2.2,1.6-3.4,2.3c-3,1.8-6.1,3.2-9.4,4.3l1.1-0.8c0.2-0.2,0.3-0.5,0.1-0.7
	c-0.1-0.2-0.3-0.2-0.5-0.2c-2.1,0.6-4.2,1.3-6.3,1.8c6.5-5.2,13.3-9.9,20.5-14c1.7,0.9,3.4,1.7,5.3,2.2l-4.1,1.3
	C303.9,335.3,303.7,335.6,303.8,335.9z M278,349.5c4.2,0.8,8.4,0.9,12.6,0.3c-0.4,0.3-0.9,0.5-1.4,0.7c-0.3,0.1-0.4,0.4-0.3,0.6
	c0.1,0.2,0.3,0.4,0.5,0.3c4.3-0.6,8.3-2.3,11.7-5c0.3-0.2,0.5-0.4,0.8-0.7c0.1,0,0.2,0,0.3,0c2.1-0.9,4.3-1.7,6.6-2.2
	c-0.7,0.7-1.3,1.5-2,2.2c-0.6,0.4-1.3,0.8-1.9,1.3c-4.3,3.1-7.5,7.4-9.3,12.3c-0.2,0.3-0.5,0.6-0.7,0.9c-1,1.4-2.1,2.7-3.1,4.1
	c-2.2-1.1-4.6-1.8-7.1-2.2l0,0c-7.5-1.3-15.4,0-22.1,1.4c0,0,0,0-0.1,0C267.6,358.7,272.7,354,278,349.5z M295.1,362.6L295.1,362.6
	c0.1,0.2,0.4,0.3,0.7,0.2c0.1,0,0.1-0.1,0.1-0.1c2.3-2.8,5.9-4.9,10.8-6.3c-2.5,3.9-4.9,7.9-7.1,11.9c-1.8-0.7-3.5-1.6-5.2-2.5
	c-0.4-0.2-0.9-0.5-1.3-0.7C293.8,364.2,294.4,363.4,295.1,362.6z M308.8,355.8L308.8,355.8c1.5-0.3,3-0.6,4.7-0.8
	c-3.4,5-3.1,9.9-1.8,11.3c0.2,0.2,0.5,0.2,0.7,0c0,0,0.1-0.1,0.1-0.1c2.9-4,6.8-7.1,11.3-9.2c-2.3,7-4.1,13.7-5.5,19.1
	c-0.5-0.5-1-1-1.6-1.4c-6.6-5.2-10.2-5.5-13.2-5.7c-0.8-0.1-1.6-0.2-2.3-0.3C303.5,364.4,306,360.1,308.8,355.8z M310.5,343.8
	c0.2-0.2,0.4-0.4,0.6-0.7c0.5-0.1,0.9-0.2,1.4-0.3C311.8,343.2,311.2,343.5,310.5,343.8L310.5,343.8z M321.4,348L321.4,348
	c0.4-0.5,1-1,1.5-1.5c0.9-0.9,1.7-1.7,2.3-2.3c0.1-0.1,0.2-0.3,0.3-0.4c0.1-0.2,0-0.5-0.2-0.7c-0.2-0.1-0.5,0-0.6,0.1
	c-0.1,0.1-0.1,0.2-0.2,0.3c-1.3,0.5-2.7,0.9-4.1,1c-0.8,0.1-1.6,0.3-2.2,0.4c1.3-1.4,2.7-2.6,4.3-3.7c2.7-0.5,5.4-1.2,8.1-2.2
	c-1.2,2.8-2.3,5.6-3.4,8.5C325.1,347.6,323.3,347.7,321.4,348z M326.3,334c3.3-3.2,7.1-6.8,11.4-8.8c-1.9,2.9-3.6,6-5.1,9.1
	L326.3,334z M385.9,314.9L385.9,314.9c6.8-1.7,13.7-3,20.6-3.9c0.2,0,0.5-0.1,0.7-0.1c1.1,0,2.2,0.3,3.2,0.7c-2.5,0.8-4.6,2.6-5.7,5
	c-0.1,0.3,0,0.5,0.2,0.7c0.1,0,0.2,0.1,0.3,0c0.9-0.2,1.8-0.5,2.6-0.9c-0.8,1.3-1.7,2.5-2.8,3.6c-7.9-1.1-15.8-1.3-23.7-0.4
	c5.3-0.4,10.6,0.4,15.9,0.9c2.2,0.2,4.3,0.5,6.5,0.8c-0.2,0.1-0.3,0.3-0.5,0.4c-2,1.2-4,2.3-6.1,3.3c-4.8-1.7-9.7-2.4-14.4-1.5
	c-4.7-1.9-9.7-2.6-14.8-2c7.1-0.3,13.7,2.3,19.8,5.6c-1.1-0.1-2.2-0.3-3.3-0.5c-0.8-0.1-1.7-0.3-2.5-0.4c-2.5-0.3-5.1-0.1-7.6,0.4
	c-3,0.7-6.1,0.7-9.1,0.2c-1.6-0.3-2.9-0.6-4.9-5.3c-0.9-2.1-1.2-4.4-0.8-6.7c1.5-1.9,3-4.1,3.4-4.6c0.3-0.4,0.5-0.9,0.6-1.4l0.9-1.3
	c13.8-0.5,27.7-0.1,41.5,1.1c-0.5,0.2-0.9,0.5-1.2,0.8c-6.6,0.9-13.1,2.3-19.5,4.3c-4,1.3-8.1,2.7-11.3,5.5
	C377.3,317,381.7,315.9,385.9,314.9z M400.6,329.9L400.6,329.9l-3.9,1c-0.8-0.5-1.6-1-2.4-1.5C396.4,329.5,398.5,329.7,400.6,329.9z
	 M394.1,326.2L394.1,326.2c0,0-0.1,0-0.1,0.1c-1.1,0.4-2.3,0.7-3.5,1c-2.5-1.4-5.1-2.6-7.8-3.7c4.4-0.7,8.8,0.5,12.9,2.1
	c-0.4,0.2-0.9,0.3-1.3,0.5C394.2,326.1,394.1,326.1,394.1,326.2z M401.8,334.3L401.8,334.3l-0.9-0.6c1.2,0.6,2.3,1.3,3.4,2.1
	c-0.1,0-0.1,0-0.2,0C403.2,335.3,402.5,334.8,401.8,334.3z M425.4,309.3c3.9-0.2,7.7-0.3,11.6-0.3c0.6,0.7,1.1,1.4,1.4,2.3
	C434,310.5,429.7,309.9,425.4,309.3z M440.1,308.9L440.1,308.9l0.7,0c0,0.1,0,0.3,0,0.4C440.6,309.2,440.4,309.1,440.1,308.9z
	 M448.3,120.1L448.3,120.1c0.2,1.1,0.4,2.1,0.6,3.2c-1,0.1-2,0.2-3.1,0.3l-0.4-2.7C446.4,120.5,447.3,120.3,448.3,120.1z
	 M444.2,102.2c0.1,1.1,0.3,2.1,0.5,3.2c1.3,4.5,2.4,9,3.3,13.5c-1,0.2-1.9,0.4-2.9,0.6l-2.1-13.6c-0.4-2.9-1.3-4.4-2.3-5.3
	c1-0.5,1.9-1.1,2.9-1.6C443.9,100,444.1,101.1,444.2,102.2z M218.4,131.1c0.6,0,1.2-0.1,1.8-0.1c-0.6,1.3-1.1,2.6-1.3,4
	c-0.2,1.4-0.3,2.8-0.3,4.2l-0.4,0.1C218.2,136.6,218.3,133.9,218.4,131.1z M218.2,140.8L218.2,140.8l0.5-0.1
	c0.1,1.4,0.3,2.7,0.5,3.9c0.2,1.1,0.4,2.2,0.6,3.4c-0.4,0.1-0.9,0.2-1.3,0.3C218.3,145.8,218.2,143.3,218.2,140.8z M228.7,199.1
	L228.7,199.1c1.2-0.1,2.3-0.2,3.5-0.3c-1.1,0.3-2.2,0.7-3.2,1.1C228.9,199.6,228.8,199.3,228.7,199.1z M222.6,347.2
	c-3.7-6.7-5.3-14.4-4.7-22c0-0.2-0.1-0.4-0.2-0.5c-1.1-0.7-2.1,0.3-2.9,1.1c-0.6,0.6-1.1,1.1-1.6,1.1c0.3-3.9,1.1-7.7,2.4-11.4
	c1.2-1.9,2.6-3.7,4-5.4l0.1-0.1c4.1-5.1,8.3-10.4,9-17c0-0.3-0.2-0.5-0.4-0.5c-0.2,0-0.4,0.1-0.5,0.2c-2.5,3.9-5.7,7.2-9.4,9.9
	l1.4-3.2c0.1-0.3,0-0.5-0.3-0.7c-0.2-0.1-0.4,0-0.5,0.1l-4,3.8c0.8-3,1.4-6.1,1.7-9.3c0.1-0.9,0.2-1.8,0.4-2.8
	c0.1-0.4,0.1-0.7,0.2-1.1c0.4-1.7,1-3.4,1.7-5.1c4.1-8.8,12.6-14,22.6-19.4c0.2-0.1,0.3-0.4,0.2-0.7c-0.1-0.1-0.2-0.2-0.4-0.3
	c-3.6-0.4-6.9,0.6-10.3,2.2c-7.2,2-14.1,5.2-20.2,9.5c0.9-2.5,1.4-5.1,1.7-7.7c0-0.3-0.2-0.5-0.4-0.5c-0.2,0-0.3,0.1-0.4,0.2
	c-1.4,1.8-2.5,3.8-3.3,6c0-8.2,1.8-16.3,5.1-23.8c1.4-2.2,3.1-4.1,5.1-5.8c-0.5,0.9-0.9,1.9-1.3,3c-0.1,0.3,0.1,0.5,0.3,0.6
	c0.2,0.1,0.4,0,0.6-0.2c2.6-3.7,6.3-6.5,10.5-8c-0.5,0.8-0.9,1.6-1,2.5c0,0.3,0.1,0.5,0.4,0.6c0.1,0,0.2,0,0.3,0
	c7.2-3.3,13.8-6.3,20.1-9.1c0.9-0.4,1.4-1.1,1.1-1.8c-0.1-0.1-0.2-0.2-0.3-0.3c-3.9-1.4-6.9-4.7-9.5-7.7c-2.2-2.3-4.1-4.7-5.7-7.4
	c-1-2.9-2-5.8-3-8.7c-0.1-0.3-0.2-0.7-0.2-1c-0.4-1.8-0.8-3.5-1.4-5.3c1.1-0.4,2.2-0.7,3.3-1.1c0.5,1,1.2,1.8,1.9,2.6
	c0.3,0.3,0.7,0.7,1,1c2,1.7,3.4,3.9,4.1,6.4c0.3,0.8,0.5,1.5,0.9,2.3c0.6,1.3,2.2,4.3,5.2,4.7c0,0,0,0,0.1,0c0.1,0,0.1,0,0.2,0
	c5.3-2.6,11.5-2.9,17.1-0.9c0.3,0.1,0.5,0,0.6-0.3c0.1-0.2,0-0.4-0.1-0.5c-2.5-2.6-5.8-4.3-9.3-4.8c0.5,0,1.1,0,1.6,0.1
	c0.3,0,0.5-0.1,0.6-0.4c0-0.2-0.1-0.4-0.2-0.5c-0.6-0.4-1.3-0.7-2-0.9c3.2-0.5,6.4-0.3,9.5,0.6c0.3,0.1,0.5-0.1,0.6-0.3
	c0-0.1,0-0.3,0-0.4c-1.7-2.9-5.1-3.8-7-4.1c-1.4-0.2-2.8-0.3-4.3-0.3c-1.2,0-2.4-0.1-3.6-0.2c-2.1-0.3-4.9-1.1-6.5-3.3
	c-0.2-0.2-0.5-0.3-0.7-0.1c-0.2,0.1-0.3,0.3-0.2,0.5c0.4,1.5,1.1,2.8,2.1,4c-2.1-0.1-4.1-0.8-5.8-2c-1.1-0.8-2.1-1.8-3-2.8
	c-0.2-0.3-0.5-0.5-0.7-0.8c1.8-0.5,3.5-1,5.3-1.5c3.7-0.2,7.3-0.4,10.4-0.3c5.8,0.1,11.1,2,16.5,3.5c-4.5-1.6-8.9-3.7-13.7-4.5
	c-1.9-0.2-3.9-0.4-5.8-0.4c9.4-1.9,18.3-2.5,25.9-0.7c-11.1-3.9-22.9-2.2-34.1,0.9c-3.7,0.3-7.3,0.8-11,1.4
	c-0.1-0.3-0.3-0.6-0.4-0.9c0-0.1-0.1-0.1-0.1-0.2c-4.7-15.2-8.2-30.5-9.2-47.5c0.5-0.1,1-0.2,1.4-0.3c2.3,12.5,6.2,24.7,11.3,38.8
	c0.1,0.2,0.3,0.3,0.5,0.3c0,0,0,0,0.1,0c0.2,0,0.4-0.2,0.4-0.5c0.5-4.8,3.2-9.1,7.3-11.7c0.2-0.1,0.3-0.5,0.2-0.7
	c-0.1-0.2-0.4-0.3-0.6-0.2l-2,0.7c0.1-0.1,0.2-0.4,0.1-0.6c-0.1-0.2-0.3-0.3-0.5-0.3c-1.2,0.2-2.5,0.5-3.6,1.1
	c2.3-4.3,6-7.6,10.5-9.4c0.3-0.1,0.4-0.4,0.3-0.7c0-0.1-0.1-0.2-0.2-0.2c-3.6-1.9-7.8-2.5-11.8-1.5c0.5-1.4,1.5-2.6,2.7-3.4
	c0.2-0.2,0.3-0.5,0.1-0.7c-0.1-0.2-0.3-0.3-0.6-0.2l-4.7,1.4c1-4.1,3.8-7.6,7.7-9.4c0.3-0.1,0.4-0.4,0.2-0.7
	c-0.1-0.1-0.2-0.2-0.3-0.3c-3.2-0.9-6.5-0.9-9.7,0.1l2-2.9c0.1-0.2,0.1-0.4,0-0.6c-0.1-0.1-0.1-0.1-0.2-0.1c6.4-1,12.9-1,19.3,0.1
	c6.2,1.2,12.2,3,17.4,6.9c-6.3-5.6-14.8-8.4-23.1-9.1c-5.5-0.4-11.1,0-16.6,1.1c1.1-3.4,4.1-5.8,7.7-6.2c0.2,0,0.4-0.2,0.5-0.4
	c0-0.1,0-0.3-0.1-0.4c5.9-0.2,11.7,0.3,17.5,1.5c3.6,2.4,7.1,5,10.5,7.9c2.3,2.1,4.9,3.9,6.8,6.4c-2.1-3.2-5-5.7-7.7-8.4
	c-1.8-1.7-3.7-3.3-5.6-4.9c2.3,0.7,4.5,1.5,6.7,2.5c1.5,0.8,3.3,1.6,4,3.2c-0.5-1.2-1.4-2.2-2.6-2.8c-2.2-1.4-4.5-2.6-7-3.6
	c-1.2-0.5-2.5-0.9-3.7-1.2c-4.9-3.6-10.2-6.4-15.9-8.5c-3.6-1.3-7.4-2-11.3-2c2.9-1.7,6.1-2.1,6.9-1.7c0.2,0.1,0.5,0,0.7-0.2
	c0.1-0.2,0.1-0.5-0.1-0.6c-2.4-2.1-6.5-2.2-9.4-0.2c-1.1,0.8-2,1.7-2.8,2.8c-0.9,0.1-1.7,0.1-2.6,0.2c0.1-1.5,0.2-3.1,0.3-4.7l0-0.6
	c0-0.3,0-0.5,0.1-0.8c1.7-2.1,4-2.9,7.6-2.7c3.9,0.2,10.5,3.2,15,5.7c14.2,7.9,28.3,20.2,40.4,31.1c7.2,6.5,12.4,11.5,17.7,20.3
	l-0.8-0.2c-0.3-0.1-0.5,0.1-0.6,0.3c0,0.1,0,0.2,0,0.3l1,4c-0.2-0.1-0.5,0-0.7,0.2c-0.1,0.1-0.1,0.3,0,0.4l3.6,10.6
	c0.1,0.2,0.3,0.3,0.5,0.3c0.2,0,0.4-0.1,0.5-0.3c0.9-2.6,1.7-5.3,2.2-8.1c0.5,3.4,0.9,6.8,1.1,10.3c0,0.2,0.2,0.4,0.5,0.5
	c0.2,0,0.5-0.1,0.5-0.4l0.5-1.9c0.8,3,1.5,6.1,2,9.2c0.4,2.1,0.7,4.3,1.2,6.4c1.7,7.3,4.5,12.4,8.7,15.4c0.2,0.2,0.5,0.1,0.7-0.1
	c0.1-0.2,0.1-0.4,0-0.6c-2.6-3.4-4-7.5-4.2-11.8c0.4,0.7,0.8,1.5,1,2.4c0.1,0.3,0.3,0.4,0.6,0.4c0.3-0.1,0.4-0.3,0.4-0.6
	c-0.9-4.8-0.7-9.7,0.7-14.4l2.3,3.5c0.2,0.2,0.5,0.3,0.7,0.1c0.2-0.1,0.3-0.3,0.2-0.5l-0.5-2.5c4.2,6.6,6.5,14.2,6.8,22v0
	c0,0.3,0.2,0.5,0.5,0.5c0.3,0,0.5-0.2,0.5-0.5v0c-0.2-5.3,0.3-10.7,1.5-15.9l0.9,3.1c0.1,0.3,0.4,0.4,0.6,0.3
	c0.2-0.1,0.4-0.3,0.4-0.5c-0.2-9.2-1.1-19.7-6.4-28.1c-0.1-0.2-0.5-0.3-0.7-0.2c-0.2,0.1-0.3,0.4-0.2,0.6c0.8,2.6,1,5.3,0.7,8
	l-1.1-1.7c0.1-0.1,0.1-0.2,0.1-0.4c-0.7-3.7-1.8-7.3-3.3-10.8c0.5,0.3,1.1,0.4,1.7,0.4c0.2,0,0.4-0.1,0.5-0.3
	c0.1-0.2,0.1-0.4-0.1-0.5l-8.2-10.2c-0.6-0.7-1.1-1.5-1.6-2.3c0.1-0.3,0.1-0.6,0.2-0.9c5.1,1.9,10.7,1.7,15.7-0.6
	c0.2-0.1,0.4-0.4,0.2-0.7c0-0.1-0.1-0.2-0.2-0.2c-1.3-0.8-2.3-1.9-2.9-3.2c3.9,0.5,7.6,1.5,11.3,3c0.3,0.1,0.5,0,0.6-0.3
	c0-0.1,0-0.1,0-0.2c0-1.5-0.1-3-0.5-4.5c0.2-1.1,0.7-2.1,1.4-2.9c0.9,2.2,1.9,4.3,3.1,6.4c0.3,0.7,0.9,1.3,1.6,1.5
	c1.1,0.3,1.9-0.6,2.6-1.4c0.5-0.6,1-1.2,1.6-1.2h0c0.6,0,1,0.6,1.1,1.2c0.1,0.7-0.1,1.5-0.3,2.2c-0.1,0.3,0.1,0.5,0.3,0.6
	c0.2,0,0.3,0,0.5-0.1c4.2-3.2,9.3-4.8,14.6-4.6l-0.8,2.1c-2,2.4-3.4,5.1-4.3,8c-0.1-1.8,0.3-3.5,1.1-5.1c0.1-0.2,0-0.5-0.2-0.7
	c-0.2-0.1-0.4-0.1-0.6,0.1c-2.3,2.1-3.9,4.9-4.4,8c-0.5-0.7-1-1.5-1.3-2.4l-0.1-0.3c-0.1-0.3-0.4-0.4-0.7-0.2
	c-0.2,0.1-0.3,0.3-0.3,0.5c0.4,2.4,1.3,4.6,2.6,6.6c0.1,0.2,0.5,0.3,0.7,0.2c0.1-0.1,0.2-0.2,0.2-0.3l0.2-1.2c1,1.5,1.3,3.5,0.7,5.2
	c-0.1,0.3,0,0.5,0.3,0.6c0.2,0.1,0.3,0,0.5-0.1l3.1-2.3c0.6,2.5-0.3,5-1.2,7.8c-0.8,1.9-1.2,4-1.5,6c-0.6-1.5-1-3-1.2-4.5
	c0-0.3-0.3-0.5-0.5-0.4c0,0,0,0,0,0c-0.3,0-0.5,0.3-0.5,0.5c0.3,5.5,0.7,11.7-1.8,17.1c-0.1,0.2,0,0.5,0.2,0.7c0,0,0,0,0.1,0
	c0.6,0.2,1.1,0.1,1.7-0.2c0.3,2.1,1.4,4.1,3,5.5c0.2,0.2,0.5,0.1,0.7-0.1c0.1-0.1,0.1-0.3,0.1-0.5c-0.9-2.9-0.6-6.1,0.8-8.8l0.2,0.4
	c0.1,0.2,0.4,0.3,0.7,0.2c0.1-0.1,0.2-0.2,0.2-0.3c1.2-3.7,3.2-7.1,6.1-9.8c0,1.5-0.4,3-1.1,4.4c-0.1,0.2,0,0.5,0.2,0.7
	c0.1,0.1,0.3,0.1,0.5,0c0.8-0.4,1.4-0.9,2-1.6c-0.3,2.1-0.4,4.1-0.3,6.2c0.1,1.2,0.3,2.4,0.7,3.5c-0.3,2-0.4,4.1-0.3,6.1
	c0.2,2.6,0,5.2-0.8,7.6c-0.8,1.9-1.9,3.7-3.2,5.3c-0.3,0.4-0.7,0.9-1,1.3c-0.8,1.1-1.5,2.2-2.1,3.5l-0.3-9.7c0-0.3-0.2-0.5-0.5-0.5
	c-0.2,0-0.4,0.1-0.5,0.3c-1.6,4.1-2.8,8.4-3.8,12.7c-1.1-3.1-3.2-5.7-6-7.4c-0.2-0.1-0.5-0.1-0.7,0.2c-0.1,0.2-0.1,0.4,0,0.5
	c2.3,4.1,2.7,8.9,2.9,12.7c0.1,1.3,0.1,2.6,0.1,3.9c0,3.2,0.2,6.4,0.7,9.6c0.6,3.6,2.2,8.7,6.1,12c0.2,0.2,0.5,0.1,0.7-0.1
	c0.1-0.2,0.2-0.4,0.1-0.6l-1-1.8c0.9,0.8,1.9,1.6,2.8,2.3c0.2,0.2,0.4,0.5,0.6,0.7c0.6,0.8,1.3,1.6,1.8,2.4c1.7,2.4,2.7,5.2,3.1,8.2
	c0,0.3,0.1,0.6,0.1,0.9c0,1.4,0.4,2.7,1,3.9c1.2,2,3.5,2.8,5.8,3.4c2,0.6,4,1.2,5.1,2.7c0.2,0.2,0.5,0.3,0.7,0.1
	c0.2-0.2,0.3-0.5,0.1-0.7c-2.7-3.8-5.4-7.8-6.7-12.4c-0.2-0.6-0.3-1.3-0.5-1.9c-0.4-4-2.9-7.5-6.5-9.3c-0.4-0.2-0.7-0.5-1.1-0.7
	c-2-5.4-3-11.2-2.9-17c0.2-7.6,3-14.6,7.5-19.5l-0.6,3.1c0,0.2,0.1,0.4,0.3,0.5c0.2,0.1,0.5,0,0.6-0.1c1.2-1.4,2.9-2.5,4.7-2.9
	c-0.3,1.1-0.9,2-1.7,2.8c0,0-0.1,0.1-0.1,0.1c-0.2,0.2-0.2,0.5,0,0.7s0.5,0.2,0.7,0l0.1-0.1c0.6-0.6,1.3-1,2.1-1.4
	c-1.4,3-2.6,6-3.6,9.2c-0.9,2.2-1.5,4.4-2,6.7c-1.2,6.1-0.4,11.9,2.3,16.5c0.1,0.2,0.4,0.3,0.7,0.2c0.1,0,0.1-0.1,0.2-0.1
	c0.4-0.7,0.4-1.5,0-2.2c0-0.1-0.1-0.2-0.2-0.4c-0.2-0.4-0.3-0.7-0.3-1.1c0-0.2,0.1-0.4,0.3-0.5c0.1-0.1,0.2-0.1,0.2-0.1
	c0.2,0.1,0.3,0.2,0.4,0.4c2.4,2.7,5.9,4.3,9.6,4.2c1.9,0,3.8-0.4,5.5-1.3c0.2-0.1,0.3-0.4,0.2-0.7c-0.1-0.1-0.2-0.2-0.4-0.3
	c-2-0.2-4.1-0.6-6-1.3l1.3-0.3c0.3-0.1,0.4-0.3,0.4-0.6c0-0.2-0.2-0.3-0.4-0.4c-3.7-1.2-6.6-4-7.8-7.7c-0.6-1.7-0.9-3.5-0.9-5.3
	c0.8-2.5,2-4.7,3.7-6.7c0.8-0.9,1.7-1.7,2.8-2.3c-0.4,0.9-0.6,1.8-0.7,2.7c0,0.3,0.2,0.5,0.5,0.5c0.1,0,0.2,0,0.3-0.1
	c1.5-1.2,3.2-1.9,5.1-2.1c0.4-0.1,0.9,0,1.3,0.2c0.3,0.3,0.5,0.6,0.6,1l1,2.6c0.2,0.5,0.3,1,0.1,1.3c-0.1,0.2-0.3,0.3-0.5,0.4
	c-0.7,0.4-1.5,0.9-2.2,1.2c-0.7,0.4-1.5,0.7-2.3,0.8c-0.7,0.1-1.5-0.1-2-0.6c-0.2-0.2-0.5-0.2-0.7,0c-0.1,0.1-0.2,0.2-0.2,0.4
	c0,5.1,3.7,9.4,8.7,10.3c0,0,0.1,0,0.1,0c0.2,0,0.3-0.1,0.4-0.2c4-6.3,3.1-14.5-2.3-19.7c-0.3-0.3-0.7-0.6-1.1-0.9
	c1.6-0.3,3.3-0.5,5-0.6c1.6-0.2,3.3,0,4.8,0.6c1.1,0.6,2.1,1.6,2.8,2.7c2.4,4,2.9,8.8,1.4,13.2c-1.6,4.4-4.6,8.1-8.6,10.5
	c-0.2,0.1-0.3,0.5-0.2,0.7c0.1,0.1,0.3,0.2,0.4,0.2c0,0,0.1,0,0.1,0c5.3-1.5,9.5-5.5,11.3-10.7c1.7-5.2,0.7-10.9-2.5-15.4
	c-1.4-2.1-3.4-3.6-5.8-4.4c-0.2,0-0.3-0.1-0.5-0.1c0.8,0,1.7,0,2.5,0c1.4,0.7,2.8,1.5,4.1,2.3c2.9,1.8,5.9,3.6,9.3,3.6h0.2
	c3.1-0.1,5.7-1.6,8.3-3.1l0.4-0.2l-0.2,0.9c0,0.2,0,0.3,0.1,0.4c0.1,0.1,0.3,0.2,0.4,0.1c6.6-1.3,12.4-5,16.4-10.4
	c0.2-0.2,0.1-0.5-0.1-0.7c-0.1-0.1-0.3-0.1-0.5-0.1c-5.6,2.6-11.4,5.2-17.6,6.4c-3.8,0.8-7.7,0.8-11.5,0.2c-1.9-1.9-4.3-3.4-6.9-4.2
	c-2.6-0.9-5.3-1.4-8.1-1.7l8-2.5c0.3-0.1,0.4-0.4,0.3-0.6c0-0.2-0.2-0.3-0.3-0.3c-5.6-1.9-11.9-1.3-17,1.9c-1.9,1.2-3.1,1.4-3.7,0.7
	c-0.3-0.5-0.4-1.1-0.4-1.7c0.1-5.3,2.5-10.3,6.4-13.8c0.2-0.2,0.2-0.5,0-0.7c-0.1-0.2-0.4-0.2-0.6-0.1c-4.7,2.1-8.7,5.4-11.6,9.7
	c-0.7-2.6-1.8-5.1-3-7.5c-0.1-6.4,4.3-14.1,8.9-19.8c0.2-0.2,0.1-0.5-0.1-0.7c-0.1-0.1-0.1-0.1-0.2-0.1c-1.2-0.2-3.9,0.8-5.8,1.9
	c1-2.3,2.2-4.5,3.6-6.5c1.6-2.5,3.3-5.1,4-7.5c0.1-0.3-0.1-0.5-0.3-0.6c-0.2,0-0.4,0-0.5,0.1c-0.9,0.8-1.8,1.5-2.8,2.1
	c-0.6,0.4-1.2,0.8-1.7,1.3c3-13.1,7.1-22.9,13.3-31.7c10-14.6,21.7-28,34.8-40c2.9-2.7,8.7-7.2,11.9-8.3c0.8-0.3,1.6-0.5,2.4-0.7
	c0.6,0.3,1.2,0.8,1.7,1.3c0.3,0.4,0.5,0.9,0.7,1.4c-1.5,0.8-3,1.6-4.4,2.5c-1.7-0.1-3.1,1-4.4,2.1l-3.5,3.1
	c-4.7,3.4-9,7.2-12.9,11.4c-3,3.2-5.7,6.8-7.9,10.6c-1.1,2.1-2.4,4.2-2.6,6.6c0.5-2.5,2.1-4.6,3.5-6.7c2.9-4.1,6.2-7.9,9.9-11.3
	c3.2-3.1,6.6-6,10.2-8.7c0.3-0.1,0.5-0.2,0.8-0.3c-1.6,1.1-2.8,2.6-3.6,4.3c-0.1,0.2,0,0.5,0.2,0.7c0.1,0.1,0.2,0.1,0.4,0l5.4-1.6
	c-3.3,2.5-6.2,5.5-8.7,8.8c-0.2,0.2-0.1,0.5,0.1,0.7c0.1,0.1,0.3,0.1,0.5,0.1c4.4-1.9,9.4-1.4,13.3,1.4c-6.6,1.8-12.9,4.4-18.9,7.8
	c-6.3,2.1-11.9,4.9-15.7,8.4c3.2-2.7,7.5-4.5,11.7-5.8c-0.7,0.5-1.4,1-2.2,1.6c-2.5,1.9-4.8,4.2-6.7,6.6c-1,1.2-1.7,2.5-2.2,3.9
	c0.7-1.9,2.2-3.3,3.5-4.7c2.2-2.2,4.7-4.1,7.3-5.8c1.7-1.1,3.4-2.1,5.2-3.1c0.6-0.2,1.1-0.3,1.7-0.5c5.4-1.4,10.9-2.6,16.4-3.5
	c0.6,0.2,1.1,0.5,1.6,0.8c-5.8,0.5-11.1,3.7-14.2,8.6c-0.1,0.2-0.1,0.5,0.2,0.7c0.1,0.1,0.3,0.1,0.5,0c4.8-1.9,10.3-1.2,14.4,1.9
	l-5.5,1.4c-0.1,0-0.2,0.1-0.4,0.1c-0.3,0.1-0.4,0.3-0.4,0.6c0.1,0.3,0.3,0.4,0.6,0.4l0.3-0.1c1.9-0.4,3.9,0.1,5.5,1.3
	c-2.7-0.2-5.4,0-8,0.6c0.8-0.4,1.6-0.8,2.4-1.1c-3.7,1.3-7.2,2.8-10.7,4.6c-5,2.5-9.6,5.9-13.6,9.9c-4.6,1.8-8.8,4.3-12.6,7.4
	c-1.6,1.3-3,2.8-4.2,4.5c-0.3,0.3-0.4,0.7-0.5,1.1c0.3-0.6,0.7-1.2,1.2-1.7c0.8-0.9,1.7-1.7,2.7-2.4c3.3-2.5,7-4.6,10.9-6.2
	c-2.6,3-4.7,6.4-6.3,10c-3.1,2.6-5.9,5.6-8.3,8.9c-1.2,1.6-2.2,3.3-3.2,5c-2.5-11.6,2.1-23.6,11.7-30.7c0.2-0.1,0.3-0.4,0.2-0.6
	c-0.1-0.2-0.3-0.3-0.5-0.3c-3.5,0.6-6.8,2.4-9,5.2c-1.2,1.4-2.3,2.9-3.3,4.6l1.9-6.4c0.1-0.3-0.1-0.5-0.3-0.6c-0.1,0-0.2,0-0.3,0
	c-1.9,0.7-3.2,2.7-4.1,6.2c-1.5,5.5-2.2,11.3-2.2,17c0,0.2,0.2,0.4,0.4,0.5c0.2,0,0.5-0.1,0.6-0.3l0.3-0.8c-0.4,2.1-1.2,4.1-2.4,5.9
	c-0.1,0.2-0.1,0.4,0,0.5c0.1,0.2,0.3,0.3,0.5,0.2c0.9-0.1,1.9-0.4,2.7-0.9l-0.6,5.8c0,0.3,0.2,0.5,0.4,0.6c0.2,0,0.4-0.1,0.5-0.2
	l0.7-0.9c-0.2,1.3-0.6,2.6-1.2,3.9c-0.1,0.2-0.1,0.3,0,0.5c0.1,0.1,0.3,0.2,0.4,0.2l2.9-0.1l-1.5,2.4c-0.1,0.2-0.1,0.5,0.2,0.7
	c0.1,0.1,0.3,0.1,0.5,0l2.1-1l-2.5,5.2c-0.1,0.2,0,0.5,0.2,0.7c0.1,0,0.1,0,0.2,0c2,0.1,4.1-0.4,5.8-1.4l-0.2,0.9
	c-0.1,0.2,0.1,0.5,0.3,0.6l5.9,2.7l-2.6,2.3c-0.2,0.2-0.2,0.5,0,0.7c0,0,0,0,0.1,0.1c9,6.5,21.1,6.5,30.1,0c0.2-0.2,0.3-0.5,0.1-0.7
	c-0.1-0.1-0.2-0.2-0.4-0.2l-20.6-1c-0.5-3.7,1.2-7.4,4.3-9.4c0.2-0.1,0.3-0.5,0.2-0.7c-0.1-0.1-0.2-0.2-0.3-0.2
	c-2.9-1-6.1-0.5-8.6,1.3c0.4-3.8,1.6-7.4,3.5-10.6c0.1-0.2,0.1-0.5-0.2-0.7c-0.1-0.1-0.3-0.1-0.5,0c-3.3,1.5-6.1,3.9-8.2,6.9
	c-2.7-4.5-2.7-10.1-0.1-14.6c0-0.1,0.1-0.2,0.1-0.2c0.9-0.9,1.9-1.9,2.9-2.8c-0.9,3.3-1.8,6.9-0.7,10.3c-0.7-2.8,0.3-6,1.1-8.5
	c0.4-1.1,0.9-2.2,1.3-3.3c6.3-5.5,13.2-10.6,17.7-14c1.3-0.9,2.7-1.8,4.1-2.6c-1.2,0.5-2.4,1.2-3.6,1.8c-5.5,2.9-10.7,6.3-15.7,10
	c2.1-3.4,4.5-6.5,7.3-9.3c6-2.4,12.1-4.4,18.4-6.1c1.2-0.3,3.2-0.8,4.4-1.1c-1.2,0.2-2.5,0.4-3.7,0.6c-5.5,0.9-10.9,2.2-16.2,3.9
	c2.7-2.4,5.5-4.7,8.6-6.7c2.6-1.6,5.2-3.1,8-4.5c0,0,0,0,0,0.1c0,0.2,0.2,0.4,0.4,0.5c7.3,1.3,13.2,6.6,15.3,13.7
	c0.1,0.2,0.3,0.4,0.5,0.4h0c0.2,0,0.4-0.1,0.5-0.4c0.9-2.8,0.4-5.6-0.2-9.5c-0.1-0.6-0.2-1.2-0.3-1.8l-3.2-20.8
	c1-0.1,2.1-0.3,3.1-0.4c2.8,16.6,2.9,31.4,1.8,39.4c-1.3,0-2.6,0.1-3.9,0.1c0.1-0.7,0-1.3-0.2-1.9c-0.1-0.2-0.2-0.3-0.3-0.3
	c-0.2,0-0.3,0-0.5,0.1c-0.7,0.7-1.3,1.5-1.8,2.4c-8.8,0.8-17.2,3.6-24.7,8.2c7.4-3.6,15.4-5.8,23.6-6.6c-0.2,0.3-0.4,0.5-0.5,0.8
	c-5.1,1.6-10,3.7-14.6,6.3c-3.3,1.9-6.8,3.9-9,7.2c1.6-1.9,3.6-3.4,5.8-4.6c3.6-2,7.4-3.7,11.3-5.1c1.7-0.7,3.5-1.2,5.2-1.8
	c-0.9,1.2-1.8,2.3-2.8,3.4l0-0.8c0-0.3-0.2-0.5-0.5-0.5c-0.3,0-0.5,0.2-0.5,0.5c-0.8,6.5-6.2,11.6-12.8,12c-0.3,0-0.5,0.2-0.5,0.5
	c0,0.1,0,0.2,0.1,0.3c2.8,3.1,6.7,4.9,10.9,5l-2.6,2.8c-0.2,0.2-0.2,0.5,0,0.7c0.1,0.1,0.2,0.1,0.3,0.1c0,0,0.1,0,0.1,0
	c2.3-0.3,4.5-1,6.6-2c2.2-1.1,3.7-3.2,4.1-5.6c0.1-1.4-0.3-2.8-1.2-3.8c-0.5-0.6-1.1-1-1.7-1.3c0.7-0.9,1.1-2,1.1-3.1
	c0-0.5,0-1-0.1-1.5c-0.1-0.8-0.1-1.6,0-2.4c0.5-1.6,1.3-3,2.5-4.1c0.2-0.3,0.5-0.5,0.7-0.8c0.2-0.2,0.4-0.5,0.6-0.7
	c1.7-0.4,3.3-0.9,5-1.2c-0.2,0.9-0.4,1.9-0.8,2.8c-1.1,2.6-2.8,5.6-4.3,5.9c-0.3,0.1-0.4,0.3-0.4,0.6c0,0.1,0.1,0.2,0.2,0.3
	c6.8,5.4,8.4,10.1,5.3,15.4c-0.6,1-1.3,1.9-2,2.8c-1.9,2.5-3.8,5.2-3.5,8.3c0,0.3,0.3,0.5,0.6,0.4c0.1,0,0.2,0,0.2-0.1l3.3-2.5
	l-2.8,5.3c-0.1,0.2,0,0.5,0.2,0.7c0.1,0,0.1,0.1,0.2,0.1l2.1,0.1c0,0.3,0.3,0.4,0.5,0.4c12.7-0.6,24.7,5.7,31.6,16.3l-6.1-2.1
	c-0.3-0.1-0.5,0-0.6,0.3c-0.1,0.2,0,0.4,0.2,0.6c7.8,6.3,11.8,16.3,14.8,25c-1.4-1.2-2.9-2.3-4.5-3.2c-0.2-0.1-0.5,0-0.7,0.2
	c-0.1,0.2-0.1,0.4,0,0.5c2.1,3.1,3.3,6.8,3.4,10.6c-7.4-7.2-16.7-12.2-26.7-14.6c-0.3-0.1-0.5,0.1-0.6,0.4c-0.1,0.2,0.1,0.5,0.3,0.6
	c6.2,2.7,11.2,7.5,16.2,12c1.4,1.3,2.7,2.5,4.1,3.8c1.8,1.6,3.5,3,5.2,4.2c1.5,1.7,3,3.4,4.4,5.2c-2.7-1.1-5.6-1.8-8.5-2
	c-0.3,0-0.5,0.2-0.5,0.5c0,0.1,0,0.3,0.1,0.4l4.4,5c0.8,1.9,1.8,3.8,2.9,5.6c0.2,0.3,1,1.8,0.3,2.4c-0.4,0.3-1.1,0.1-2-0.3
	c-1-0.4-2.2-0.9-3,0c-0.2,0.2-0.2,0.5,0,0.7c6.6,6.4,10.4,15.1,10.9,24.2c0.2,1-0.1,2.1-0.7,2.9c-1,0.9-2.8,0.3-4.3-0.4
	c-2.4-1.1-4.3-1-5.3,0.2c-0.2,0.2-0.1,0.5,0.1,0.7c0,0,0,0,0,0c1.6,1.1,3.1,2.4,4.3,4c-1-0.3-2.1-0.5-3.2-0.5
	c-0.2,0-0.4,0.1-0.4,0.3c-9.6-1.1-19.3-1.9-28.9-2.3l-0.9-1.1c1.6-0.1,3.2,0.2,4.6,1c0.2,0.1,0.5,0,0.7-0.2c0.1-0.2,0.1-0.4,0-0.5
	c-3.4-4.8-8.1-8.5-13.6-10.6l5-0.6c0.3,0,0.5-0.3,0.4-0.6c0-0.1-0.1-0.3-0.2-0.3c-8.5-5.9-19-8.1-29.2-6.1c-0.3,0.1-0.4,0.3-0.4,0.6
	c0,0.2,0.2,0.4,0.5,0.4c6.1,0.4,12,2.8,16.6,6.8l-6.9-0.9c-0.3,0-0.5,0.2-0.6,0.4c0,0.2,0.1,0.4,0.2,0.5c2.2,1.8,4.7,3.4,7.3,4.7
	c1.7,0.8,3.6,1.2,5.4,1.3c-2.4,0.9-4.9,1.3-7.4,1.3h-0.1c-0.3,0-0.5,0.2-0.5,0.5c0,0.2,0.1,0.4,0.3,0.5c1.2,0.5,2.1,1.4,2.6,2.6
	c-7.8,0-15.6,0.2-23.4,0.8c-5.4-0.6-10.9-1.1-16.3-1.6c-12.1-0.9-24.4-1.2-36.4,0.8l4.7-6.7c1.4-1.7,2.4-3.7,3.2-5.8
	c0.5-1.6,0.6-3.7-0.2-4.6c-0.2-0.3-0.6-0.5-1-0.4c-0.3,0-0.5,0.3-0.4,0.6c0,0.1,0,0.1,0.1,0.2c1,1.7,0.2,3.8-0.9,5.1
	c-1.2,1.2-2.5,2.2-4,3c-0.3,0.2-0.6,0.3-0.9,0.5c-1.8,1-3.7,2.4-4.6,4.5c-0.7,1.7-0.5,3.7,0.7,5.1c-0.3,0.5-0.7,1-1.2,1.5
	c-0.6,0.5-1.2,0.3-2.1,0l-0.1,0c-0.1,0-0.2-0.1-0.3-0.1c-0.5-0.3-1.1-0.3-1.6-0.1c-0.4,0.3-0.7,0.6-1,1c-0.6,0.7-1.6,0.9-2.5,0.7
	c-0.6-0.2-0.9-0.9-1.3-1.6c-0.1-0.1-0.1-0.3-0.2-0.4c1.2-3.6-0.8-7.5-4.4-8.7c-1.1-0.4-2.2-0.4-3.3-0.2l-0.4,0.1
	c-0.5,0.2-1.1,0.2-1.6,0c-0.2-0.1-0.3-0.4-0.4-0.6c-0.1-0.4,0.1-0.9,0.4-1.2c0.7-0.6,1.5-1,2.4-1.1c0.3-0.1,0.4-0.3,0.4-0.6
	c-0.1-0.2-0.2-0.4-0.5-0.4c-1.9-0.1-3.7,0.3-5.4,1.3c-0.3,0.2-0.6,0.4-0.8,0.3c-0.1,0-0.2-0.2-0.3-0.6c-0.3-1.4-0.3-2.8-0.1-4.2
	c0-0.3-0.1-0.5-0.4-0.6c-0.2-0.1-0.5,0.1-0.6,0.3c-1.2,2.9-0.6,6.2,1.5,8.5c1.6,1.6,3.5,2.9,5.5,3.8l1,0.5c2.1,1.1,4.4,2.6,5.5,4.8
	c0,0,0,0,0,0.1c0.7,1.3,2.9,2.8,5.6,4.7l0.1,0c0.8,2.1,1.1,4.3,0.9,6.5c-0.1,1.7-0.3,3.6-1.4,5c-0.9,1-2,1.8-3.3,2.3
	c-1.6,0.9-3.4,1.4-5.3,1.6c-0.7,0-1.3,0-2,0c-0.5,0-1-0.1-1.5-0.1c-2.6,0-5.5,1.4-8.4,2.9c1.5-3.2,3.1-6.4,5-9.4
	c0.7-0.3,1.4-0.5,2.2-0.6c-0.7,0.1-1.4,0.2-2,0.4c1.6-2.8,3.7-5.3,6-7.5c-2.9,2.2-5.3,4.8-7.3,7.9c-4.7,1.5-9.5,5.1-13.7,9.1l-4-0.2
	c3.5-3.2,7.1-6.4,11.3-8.6c-4.8,1.9-8.8,5.2-12.7,8.5l-2.1-0.1l0.5-0.3c0.2-0.2,0.3-0.5,0.1-0.7c0-0.1-0.1-0.1-0.2-0.2
	c-2.8-1.5-5.8-2.7-8.9-3.5c0.4-0.2,0.8-0.4,1.2-0.6c6.6-3.5,13.6-6.5,20.7-9c3.6-1.1,7.3-2.4,11.4-2.4c-4.4-0.4-8.9,0.8-13.2,1.9
	c-7.9,2.3-15.4,5.5-22.5,9.6c-0.4-0.1-0.8-0.1-1.1-0.2l0.9-0.7c0.2-0.2,0.3-0.5,0.1-0.7c0-0.1-0.1-0.1-0.2-0.2l-2.5-1.2l2.1-2.3
	c0.2-0.2,0.2-0.5,0-0.7c-0.1-0.1-0.2-0.1-0.3-0.1l-0.1,0c9.4-4.5,19.2-8.3,29.1-11.4c-11.1,2.2-21.9,5.9-32,11.1l-2.2-0.2
	c1.9-1.8,4.1-3.4,6.4-4.7c0.2-0.1,0.3-0.4,0.2-0.7c-0.1-0.2-0.3-0.3-0.4-0.3c-3.2,0-6.3,0.2-9.5,0.7c-6.3,0.9-12.1,3.6-16.8,7.8
	c-0.2,0.2-0.2,0.5,0,0.7c0.1,0.1,0.3,0.2,0.5,0.2l7.3-1.6l-4.2,3.7c-0.2,0.2-0.2,0.5,0,0.7c0.1,0.2,0.4,0.2,0.6,0.1
	c3-1.2,6.3-1.8,9.6-1.7c-6.4,3.7-12.6,7.7-18.7,11.8c-3.4,2.3-6.7,4.7-10.1,7.1c0.8-2.6,1.8-5.2,3-7.6c0.1-0.2,0-0.5-0.2-0.7
	c-0.2-0.1-0.4-0.1-0.5,0c-2.1,1.5-4.5,2.6-7,3l2.8-4.2c0.2-0.2,0.1-0.5-0.1-0.7c-0.2-0.1-0.4-0.1-0.6,0c-2.7,2-6.2,2.1-9.8,2.2
	c-1.3,0-2.6,0.1-3.8,0.2c-1.1,0.1-2.1,0.3-3.1,0.6c-2,0.2-4,0.7-5.8,1.4c-4.4,1.8-8,4.9-11.5,7.9l0.6-7.2c0-0.3-0.2-0.5-0.5-0.5
	c-0.1,0-0.3,0-0.4,0.1C225.4,341.9,223.6,344.4,222.6,347.2L222.6,347.2z M223.8,138L223.8,138c1.2-2.1,3-3.9,5.2-4.9
	c0.2-0.1,0.4-0.4,0.2-0.7c-0.1-0.1-0.2-0.2-0.3-0.3c-1.9-0.6-3.9-0.7-5.9-0.5c0.2-0.2,0.4-0.4,0.7-0.6c6.6,0.1,13,1.7,18.9,4.6
	c2,1,3.9,2.1,5.8,3.2c-6.6-1.2-13.4-1.5-20.1-0.9C226.8,137.8,225.3,137.8,223.8,138z M228.4,147.7l-2.6,1c0-0.2,0-0.4,0.1-0.6
	C226.7,147.9,227.6,147.8,228.4,147.7z M433.6,125.3c-1.7,0.3-3.4,0.7-5,1.1c3-1.3,6.1-2.4,9.3-3.4l-4,1.8
	C433.6,124.9,433.5,125.1,433.6,125.3z M227.8,361.5L227.8,361.5c1.2-2.4,2.7-4.6,4.4-6.7l-0.8,5.4c0,0.3,0.1,0.5,0.4,0.6
	c0.2,0,0.5-0.1,0.5-0.3c2-5,5.7-8.9,10.3-12.2c3.7-2.1,7.6-3.6,11.8-4.4c-1.5,2.9-2.3,6.1-2.4,9.4c0,0.3,0.2,0.5,0.5,0.5
	c0.2,0,0.3-0.1,0.4-0.2c2.7-3.7,6.1-6.8,10-9.2l-0.1,2.7c-11.2,8.1-22.1,16.4-32.8,25.1c-0.3,0.2-0.6,0.5-0.9,0.7
	c0.4-0.9,0.8-1.8,1.3-2.7c0.1-0.2,0.1-0.5-0.2-0.7c-0.2-0.1-0.4-0.1-0.6,0c-1.4,1.1-2.6,2.5-3.6,4.1
	C225.9,369.4,226.5,365.4,227.8,361.5z M235.1,387.6L235.1,387.6l-8,0c-0.3-4.3,0.1-8.7,1.2-12.9c0.8-0.6,1.6-1.2,2.4-1.8
	c3.8-2.9,7.6-5.8,11.4-8.7c-1.5,3.7-2.2,7.6-1.9,11.5C237.6,379.3,235.9,383.3,235.1,387.6z M318.6,399.8c-0.1,0.3-0.5,0.7-0.5,0.8
	c-0.5,0.7-2.5,1.2-3,0.8c0.6-4.1-0.2-8.3-2.1-12.1c-0.1-0.2-0.3-0.3-0.4-0.3c-1,0.7-0.5,1.6-0.4,3.3c0.1,2.3-0.3,8.7-0.4,9.3
	c-0.2,1.1-0.4,2.2-0.6,3.2c-2.2,4.3-6,5.7-6.8,5.7h0c-0.7-0.2-1.4-0.6-2-1.1c-1-0.8-2.1-1.6-3.1-1.3c-1,0.4-1.8,1.1-2.3,2
	c-0.5,0.6-1,1.2-1.7,1.6c-1.1,0.5-2.3-0.3-3-1.1c-0.9-1.2-1.6-2.6-1.9-4.1c-1.3-4.2-2-8.6-2.2-13c0.1-0.2-0.1-2.1-0.2-2.9
	c-0.2-1.7-0.1-3.6-0.1-5.5c-0.3,0.2-1.3,1.1-1.4,1.5l0,0c-1.1,2.9-1.8,5.9-2.2,8.9c-0.7,4.4,0.3,9.6,0.5,10.5
	c0.1,0.4,0.1,0.7,0.2,1.1c0.5,2.2,1,4.4,0.3,6.4c-0.6,1.5-1.7,2.7-3.1,3.4c-4.1,2.1-9.2,0.7-12.3-3.3c-1.2-1.7-2-3.7-2.3-5.8
	c0-0.3-0.1-0.5-0.2-0.7c-3.6,1-4,5.1-4,5.3c0.1,1.2-0.1,2.4-0.6,3.4c-0.6,0.6-1.4,0.9-2.2,0.7c-4.1-0.6-6.9-5.8-7.7-10.6
	c-0.3-1.9,0.2-4.8,0.2-4.8c-0.2-1.2-0.4-3.6-2.4-3c-1,0.6-1.4,4.1-1.4,5.1l0,0c0,2.2-0.2,4.5-0.6,6.6c-0.1,0.6-0.3,1.2-0.6,1.8
	c-0.5,0.7-1.3,1-2.1,0.7c-0.9-0.4-1.7-1-2.2-1.7c-4.3-4.8-6.4-12.4-5.9-19.6c0.1-0.1,1.1-6.1,1.3-6.5c5-9.5,11.6-11.8,20.9-16
	c6-2,8.9-1.7,9-1.8c5-0.8,12.8-1.8,25.9,5.1c0,0,2.3,1.6,4.4,1.6l0.2-0.1c4.6-1.8,9.2,1.5,13,4.1c5.3,3.5,7.7,10.7,8,14
	C320.7,393.7,318.9,399.3,318.6,399.8z M323.8,387.6c-0.4-4.1-2.2-7.9-5.1-10.8c1.8-5.5,4.1-12.7,6.7-20.2c1-0.3,2-0.4,3.1-0.3
	c-1.9,3.9-2.3,8.3-1.1,12.5c0.1,0.2,0.3,0.4,0.5,0.4c0.2,0,0.4-0.2,0.5-0.4c0.5-3.9,4.2-5.9,7.5-6.5c-0.2,2.1,0.2,4.2,0.9,6.2
	c0.1,0.3,0.4,0.4,0.7,0.3c0.2-0.1,0.4-0.4,0.3-0.6c-0.2-0.7-0.1-1.4,0.4-2c0.3-0.5,0.9-0.9,1.5-1c4.9,7.7,13.3,12.4,23.6,13.4
	c0,0,0,0,0,0c0.3,0,0.5-0.2,0.5-0.5c0-0.1,0-0.2-0.1-0.2c-0.4-0.6-0.8-1.1-1.3-1.6c-1.5-1.7-4-4.3-4.9-7.6c1.1,0.8,2.8,2,4.4,3.2
	c2.5,1.9,4.9,3.6,5.5,3.9c0.2,0.1,0.5,0,0.7-0.2c0.1-0.1,0.1-0.3,0-0.4c-0.6-1.4-2.4-6.2-0.4-10.2c3.6,6.4,9.9,12.1,16,11.3
	c0.1,0,0.3-0.1,0.4-0.2c0.1-0.1,0.1-0.3,0.1-0.4c-1.6-5.3-0.8-11,2.1-15.7l0.8,5.4c0,0.3,0.3,0.5,0.6,0.4c0.1,0,0.3-0.1,0.4-0.2
	c3.9-6.6,9.3-12.2,15.8-16.2l0.9,1.4c0.1,0.1,0.3,0.2,0.4,0.2c0.2,0,0.3-0.1,0.4-0.2c1.1-1.8,1.2-4,0.3-5.9c2.4,0,4.8-0.3,7.1-0.7
	c4.9,3.5,9.7,7.1,14.5,10.7c1.9,1.4,4,3,5.8,4.4c-1.5-1.3-2.9-2.6-4.4-3.9c-4.6-4-9.4-7.8-14.3-11.5c2.3-0.5,4.5-1.2,6.7-2
	c7.9,6.2,15.4,12.8,23.1,19.2c0.9,0.7,1.8,1.5,2.7,2.3c-3.7-0.4-7.4-0.2-11.1,0.3c-3.4,0.6-6.6,1.8-9.6,3.5c-1.8,1-3.7,1.9-5.6,2.7
	c-1.1,0.4-2.3,0.6-3.4,0.6c-3,0.3-6.6,0.6-13.2,5.7c-3.8,2.8-6.3,7-7.1,11.7L323.8,387.6z M481.6,406.9c-0.1,0.5-0.3,1.3-0.7,1.7
	c-4.6,6.9-7.3,4.4-7.3,4.4c-0.2-0.1-0.4-0.3-0.6-0.6c-0.3-0.6-0.5-1.2-0.6-1.8c-0.1-0.4-0.2-0.9-0.2-1.3c0,0-0.3-1.8-0.6-2.5
	c-1.1-0.2-1.7-1.4-3.5,0.7c-0.2,0.6-0.5,1.2-0.7,1.8c0,0-1.6,4.3-3.1,5.9c-0.2,0.3-2.8,2-3.8,2.1h0c-0.8,0.2-1.7-0.1-2.2-0.7
	c-0.6-0.8-0.6-2.2-0.7-3.5c0-0.5,0-1-0.1-1.5c-1.8-2.1-3.6-0.8-5.4,1c-0.3,0.6-0.6,1.2-1,1.7c-3.2,4-8.3,5.4-12.4,3.3
	c-1.5-0.7-2.6-1.9-3.2-3.4c-0.4-1.4-0.4-2.8-0.2-4.3c0.1-0.5,0-1-0.2-1.5l0,0c-0.4-0.8-1.5-1-2.3-0.6c-0.5,0.3-1.1,0.6-1.6,0.9
	c-1,0.5-1.8,1.2-2.4,2.1c-0.1,0.2-0.2,0.3-0.4,0.5l0,0c-5.3,6.4-14.2,3-19.1-5.5c-0.5-0.4-1-0.8-1.5-1.3c-1.5-1.6-2.1-4-3.2-5.7
	c-5.1-7.7-3.4-11.5-3.4-11.5c1.4-3.7,3.8-6.9,7-9.4c3.7-2.9,8.5-5.9,13.1-4.1l0.2,0.1c1,0.4,2.2,0.9,3.2,0.2c0.5-0.4,0.8-0.9,1-1.4
	l0.1-0.3c1.2-2.4,4.1-3.6,6.1-4.3c7.7-2.5,16.5-1.5,23.4-0.3c3.1,0.6,6.2,1.4,9.2,2.4c0.7,0.3,1.4,0.7,2.3,1.1
	c2.8,1.4,5.9,2.9,7.3,4.2c3.6,3.2,8.5,11.5,8.5,20.1C482.6,399.6,482,403.3,481.6,406.9z M478.6,353.3c-0.2-0.1-0.5,0-0.7,0.2
	c-0.1,0.1-0.1,0.3,0,0.4l0,0c2.8,7.5,4.8,15.2,6.1,23l-3.4-1.3c-0.2-0.1-0.4,0-0.5,0.1c-3.6-3.9-8.2-6.8-13.2-8.3
	c-2.8-1.3-5.7-2.2-8.7-2.8c-0.7-0.1-1.4-0.3-2-0.4c3.8-7.9,3.9-17.2,0.2-25.2c1.5,1.7,2.8,3.7,3.8,5.7c0.1,0.2,0.4,0.4,0.7,0.2
	c0.2-0.1,0.3-0.3,0.3-0.5c0-1.4-0.3-2.8-0.7-4.1c1.5,1.6,2.8,3.5,3.6,5.5c0.1,0.3,0.4,0.4,0.7,0.3c0.2-0.1,0.3-0.3,0.3-0.5
	c0-2.8-0.5-5.7-1.5-8.3c4.6,1.6,9.2,3.3,13.8,5c3.1,2.4,5.9,5.2,8.4,8.3c2.2,2.8,4.2,5.8,6.1,8.9c0.8,2.2,1.3,4.4,1.5,6.7
	C489.1,361.5,484.9,356.6,478.6,353.3z"/>
<path d="M436.8,387.6c0.2-0.4,0.4-0.9,0.5-1.3c1.8-4.5,4-11.3,2.9-18.1c0-0.3-0.3-0.5-0.5-0.4c0,0,0,0,0,0c-0.3,0-0.5,0.2-0.5,0.5
	c-0.1,5.5-2.5,10.8-6.7,14.4c0.8-2.7,1.2-5.5,1.2-8.4c0-0.3-0.2-0.5-0.5-0.5c-0.1,0-0.3,0.1-0.4,0.2c-3.6,4-6.5,8.7-8.5,13.7
	c0,0-2.4,7.3-2.2,10.7c0.8,1.3,1.8,2.5,3.5,2.4c2.2,0,7.8-4.9,7.9-5.1C435.4,393.1,436.8,387.6,436.8,387.6z"/>
<path d="M260.4,385.9c0.1-0.4,0.2-0.8,0.3-1.2c1-4,2.7-9.9,6.7-14.2c0.1-0.2,0.4-0.2,0.6-0.1c0,0,0,0,0,0c0.2,0.1,0.2,0.4,0.1,0.6
	c-2.6,4-3.4,8.8-2.3,13.4c0.7-2.3,1.8-4.5,3.2-6.5c0.1-0.2,0.4-0.2,0.6-0.1c0.1,0.1,0.2,0.2,0.2,0.3c0.6,4.6,0.3,9.2-0.7,13.7
	c0,0-1.8,6.3-3.6,8.7c-1.2,0.6-2.4,0.9-3.6,0.1c-1.5-1.1-3-7.2-3-7.3C258.7,390.5,260.4,385.9,260.4,385.9z"/>
</svg>
