<svg id="f79aa8c2-73b0-4927-9c22-9af2faaa4285" data-name="Layer 2" xmlns="http://www.w3.org/2000/svg" viewBox="0 0 780 516.59" style="fill: #215342;" height="312" width="315" transform="translate(45, 1)"><path d="M463.421,175.6a21.018,21.018,0,0,0-2.509-13.247.5.5,0,0,0-.274-.229,23.191,23.191,0,0,0-19.53,2.147,22.682,22.682,0,0,0-6.438,5.4,17.485,17.485,0,0,0-1.682,1.953c-1.982,2.735-2.948,5.973-3.883,9.1a3.2,3.2,0,0,0-.163,1.743,2.381,2.381,0,0,0,1.493,1.527,6.458,6.458,0,0,0,1.5.343l.317.048a12.72,12.72,0,0,1,4.565,1.676l.035.022a.5.5,0,0,0,.521-.854l-.036-.022a8.982,8.982,0,0,1-4.1-8.663,13.933,13.933,0,0,1,3.167-6.634,21.123,21.123,0,0,1,3.951-3.28,9.747,9.747,0,0,0-1.419,2.463,13.511,13.511,0,0,0-.085,8.729,13.683,13.683,0,0,0,2.632,4.989,8.991,8.991,0,0,0,4.783,3.01.49.49,0,0,0,.108.012.521.521,0,0,0,.13-.017,9.789,9.789,0,0,0,5.61-4.437,17.038,17.038,0,0,0,2.187-6.76,9.742,9.742,0,0,0-.125-4,11.565,11.565,0,0,0-2.272-3.816,11.081,11.081,0,0,0-3.361-3.178,18.134,18.134,0,0,1,9.634,1.234,13.3,13.3,0,0,1-3.477,18.917,16.98,16.98,0,0,1-7.511,2.523,39.1,39.1,0,0,1-8.211-.143.489.489,0,0,0-.539.4.5.5,0,0,0,.336.578A23.579,23.579,0,0,0,446,188.3a19.785,19.785,0,0,0,7.7-1.508A16.517,16.517,0,0,0,463.421,175.6ZM448.732,169.6a.494.494,0,0,0,.1-.01,2.873,2.873,0,0,1,.578-.06,2.66,2.66,0,0,1,.736.1l1,.411c.085.055.709.5.747.524.053.061.587.7.608.729a3.083,3.083,0,0,1,0,3.323,3.561,3.561,0,0,1-1.308,1.207,2.94,2.94,0,0,1-1.379.394,2.883,2.883,0,0,1-1.414-.063,3.729,3.729,0,0,1-1.6-.863,3.2,3.2,0,0,1-.924-1.506,1.387,1.387,0,0,0-.028-.19,3.049,3.049,0,0,1,.029-1.711,2.232,2.232,0,0,1,.59-1.038.439.439,0,0,0,.066-.082,1.444,1.444,0,0,1,.538-.5.479.479,0,0,0,.1-.07,1.548,1.548,0,0,1,.672-.362.492.492,0,0,0,.112-.044A1.614,1.614,0,0,1,448.732,169.6Z"/><path d="M376.757,167.9a.5.5,0,0,0-.59.786,15.464,15.464,0,0,1,4,9.61,3.459,3.459,0,0,1-.361,2.022,1.286,1.286,0,0,1-.46.4,4.658,4.658,0,0,0-.329-1.185c-1.193-3.072-2.547-6.553-4.873-9.271a17.493,17.493,0,0,0-1.356-1.4v0a19.345,19.345,0,0,0-12.767-12.846.509.509,0,0,0-.459.092.5.5,0,0,0-.181.431l.039.452a32.5,32.5,0,0,0-19.282,2.755,14.727,14.727,0,0,1,3.706-4.13.5.5,0,0,0-.178-.883l-.39-.1,3.517-1.6a1,1,0,0,0,.671-.81.754.754,0,0,0-.246-.6,1.325,1.325,0,0,0-1.031-.254,21.733,21.733,0,0,0-7.744,2.618l1.612-2.1a.5.5,0,0,0-.558-.778,15.874,15.874,0,0,0-7.414,5.1h0a39.679,39.679,0,0,0-7.448,16.455.5.5,0,0,0,.962.262A7.389,7.389,0,0,1,327.521,170a24.815,24.815,0,0,0-1.957,7.567.5.5,0,0,0,.915.322,47.329,47.329,0,0,1,14.208-13.878,8.47,8.47,0,0,1-.891,2.216.5.5,0,0,0,.8.59,11.217,11.217,0,0,1,2.571-2.047,22.065,22.065,0,0,0-.743,12.3A17.45,17.45,0,0,0,353.614,188a20.473,20.473,0,0,0,6.424,1.007,23.554,23.554,0,0,0,5.617-.7,3.786,3.786,0,0,0,1.316.449l-.805.6a.5.5,0,0,0,.5.861,16.25,16.25,0,0,1,6.892-1.289,4.277,4.277,0,0,1,2.156.511c1.225.8,1.351,2.682.765,3.976a10.535,10.535,0,0,1-3.276,3.556.5.5,0,0,0,.5.853l2.823-1.17a13.469,13.469,0,0,1-5.421,7.676.5.5,0,0,0,.386.9,11.54,11.54,0,0,0,8.586-8.441c.1-.425.179-.859.255-1.293a6.163,6.163,0,0,1,1.932-4.191,9.692,9.692,0,0,0,1.183-1.478,8.9,8.9,0,0,0,.778-5.538,43.912,43.912,0,0,0-2.59-11.038A9.873,9.873,0,0,0,376.757,167.9Zm-6,17.082-.035.026a.489.489,0,0,0-.195.415,14.88,14.88,0,0,1-1.472.717,41.051,41.051,0,0,1-8.627.847,18,18,0,0,1-8.155-2.025,14.114,14.114,0,0,1-5.294-19.718,19.708,19.708,0,0,1,13.057-1.78,9.228,9.228,0,0,0-6.1,5.627,13.511,13.511,0,0,0-.085,8.729,13.683,13.683,0,0,0,2.632,4.989,8.991,8.991,0,0,0,4.783,3.01.49.49,0,0,0,.108.012.521.521,0,0,0,.13-.017,9.789,9.789,0,0,0,5.61-4.437,14.571,14.571,0,0,0,1.61-3.851.5.5,0,0,0-.289-.592,2.261,2.261,0,0,1-.3-.161.5.5,0,0,0-.457-.038,2.94,2.94,0,0,1-1.012.238,2.848,2.848,0,0,1-1.414-.063,3.709,3.709,0,0,1-1.6-.864,3.185,3.185,0,0,1-.924-1.5,1.373,1.373,0,0,0-.027-.19,3.057,3.057,0,0,1,.028-1.711,2.232,2.232,0,0,1,.59-1.038.513.513,0,0,0,.065-.081,1.438,1.438,0,0,1,.539-.5.533.533,0,0,0,.1-.071,1.545,1.545,0,0,1,.671-.362.485.485,0,0,0,.111-.044,1.621,1.621,0,0,1,.776-.194.478.478,0,0,0,.1-.01,2.743,2.743,0,0,1,1.315.043l1,.411c.041.027.2.142.371.262a.5.5,0,0,0,.768-.556,11.98,11.98,0,0,0-2.227-3.7c-.34-.43-.7-.88-1.084-1.314a22.4,22.4,0,0,1,4.608,3.216,14.782,14.782,0,0,1,3.921,6.749A9.538,9.538,0,0,1,370.756,184.984Z"/><path d="M461.007,127.17a.5.5,0,0,0-.175.584.492.492,0,0,0,.52.319l5.95-.642-2.38,1.842a.5.5,0,0,0,.5.858,39.637,39.637,0,0,1,12.431-2.894,20.17,20.17,0,0,0-7.066,4.586.5.5,0,0,0,.541.816l-.753.923a1.59,1.59,0,0,0-.463,1.355,1.011,1.011,0,0,0,.762.755,1.99,1.99,0,0,0,1.8-.64l.155-.177c.057-.065.113-.129.168-.19l-1.2,2.813a.5.5,0,0,0,.145.584.5.5,0,0,0,.6.02,17.133,17.133,0,0,1,11.31-2.993,24.41,24.41,0,0,0-4.076,2.253,10.67,10.67,0,0,0-4.061,5.072.5.5,0,0,0,.659.627,56.381,56.381,0,0,1,9.821-2.911,16.932,16.932,0,0,0-5.5,15.156.5.5,0,0,0,.442.415l.051,0a.5.5,0,0,0,.466-.319c1.557-4.015,5.534-6.393,9.82-8.672,3.585-1.906,8.494-4.518,10.37-9.1a10.351,10.351,0,0,0-.539-8.912A4.189,4.189,0,0,0,499.762,127a5,5,0,0,0-3.086-.264l-4.7.643c-1.123.156-2.247.207-2.853-.445-.732-.787-.308-2.209.489-3.207a9.4,9.4,0,0,1,1.468-1.442,40.091,40.091,0,0,1,5.546-1.335,3.577,3.577,0,0,0,3.553-3.387l.03-.109a26.906,26.906,0,0,1,3.9-8.406h0a11.1,11.1,0,0,0,1.744-5.367.5.5,0,0,0-.965-.215,29.653,29.653,0,0,1-10.165,13.143c-.8.577-1.651,1.131-2.475,1.666-.108.07-.216.143-.323.213a64.662,64.662,0,0,1-7.528,2.867A32.947,32.947,0,0,0,461.007,127.17Z"/><path d="M435.37,118.677a6.424,6.424,0,0,0,1.873-.064l.368-.048a4.957,4.957,0,0,1,1.436.118c.167.029.334.059.5.085,4.66.7,5.552,3.54,6.38,7.8a.5.5,0,0,0,.9.19,5.71,5.71,0,0,0,.884-1.895,6.211,6.211,0,0,0,2.768,3.352l.135.094a9.107,9.107,0,0,0,4.89,1.925,4.554,4.554,0,0,0,1.47-.238,8.066,8.066,0,0,0,3.238-2.541l.409-.449a21.877,21.877,0,0,1,12.662-6.74.5.5,0,0,0,0-.989,35.313,35.313,0,0,0-18.149,2.177l1.642-1.6a.5.5,0,0,0-.022-.737c-1.139-.982-2.586-.666-3.985-.362-1.162.253-2.261.493-3.085-.014a2.641,2.641,0,0,1-.925-2.668c.351-2.14,2.186-3.721,3.663-4.672,5.223-3.355,11.805-3.657,17.612-3.923a.5.5,0,0,0,.111-.981,34.546,34.546,0,0,0-20.758.761.7.7,0,0,1-.2-.308,1.229,1.229,0,0,1,.081-.958,3.667,3.667,0,0,1,1.644-1.262,51.861,51.861,0,0,1,11.533-4.117.5.5,0,0,0-.034-.981,19.886,19.886,0,0,0-8.614.251c-3.916,1.1-6.671,4.219-9.335,7.238-2.416,2.738-4.914,5.568-8.235,6.79a.5.5,0,0,0,.123.967l4.678.468A30.394,30.394,0,0,1,435.3,117.7a.5.5,0,0,0,.066.973Z"/><path d="M448.868,266.392a.5.5,0,0,0-.555-.8,21.3,21.3,0,0,1-18.479-1.583.5.5,0,0,0-.756.486,5.852,5.852,0,0,0,.825,2.361l-1-.409a.506.506,0,0,0-.564.134.5.5,0,0,0-.059.576l1.689,2.982c-2.609,1.181-5.849,1.4-9.881.674a9.915,9.915,0,0,0-5.43.983,9.656,9.656,0,0,1-4.715.983,18.039,18.039,0,0,0-4.656.092c-.845.1-1.719.195-2.742.228a11.866,11.866,0,0,1-3.052-.419,9.868,9.868,0,0,0-4.045-.334c-2.67.455-4.329-.417-6.427-1.523a19.467,19.467,0,0,0-9.237-2.686,6.03,6.03,0,0,0,.385-1.659,3.206,3.206,0,0,1,.664-1.923.5.5,0,0,0,.073-.6.5.5,0,0,0-.555-.234l-4.557,1.144.839-2.128a.5.5,0,0,0-.722-.613,17.426,17.426,0,0,1-13.172,1.853.5.5,0,0,0-.457.861,13.463,13.463,0,0,0,9.123,3.443,4.611,4.611,0,0,1-1.578,1.6.5.5,0,0,0,.131.912c4.594,1.2,9.3,2.217,14,3.01l-3.106,2.879a.5.5,0,0,0,.269.861,32.7,32.7,0,0,0,12.462-.618l-.585,2.157a.5.5,0,0,0,.335.608,9.646,9.646,0,0,0,10.18-3.181,27.131,27.131,0,0,0,7.2,3.751.507.507,0,0,0,.394-.031,35.848,35.848,0,0,1,8.983-3.721,11.715,11.715,0,0,1,9.111,1.394.5.5,0,0,0,.759-.572,6.735,6.735,0,0,1-.252-3.322A23.565,23.565,0,0,0,448.868,266.392Z"/><path d="M429.309,153.767a19.565,19.565,0,0,0,.325,3.853.5.5,0,0,0,.486.409.59.59,0,0,0,.122-.013,26.588,26.588,0,0,0,1.627,8.268.5.5,0,0,0,.463.312h.028a.5.5,0,0,0,.453-.364,24.811,24.811,0,0,1,8.762-12.908.5.5,0,0,0-.443-.878l-2.29.659,2.031-3.344a1.327,1.327,0,0,0,.243-.943.929.929,0,0,0-.5-.644,1.219,1.219,0,0,0-1.026-.035,2.256,2.256,0,0,0-.852.753l-.071.09c-.192.237-.351.363-.474.372-.157.016-.351-.2-.392-.436a2.466,2.466,0,0,1,.19-1.1l.755-2.313a1.476,1.476,0,0,0-.058-1.151.794.794,0,0,0-.565-.374,1.068,1.068,0,0,0-.794.259l-1.8,1.327.487-2.146a.5.5,0,0,0-.816-.487l-1.643,1.435a14.139,14.139,0,0,1,.068-2.219,16.971,16.971,0,0,0,.083-1.917.5.5,0,0,0-.875-.312,17.244,17.244,0,0,0-4.073,8.805l-.253,4.618a.5.5,0,0,0,.371.511A.494.494,0,0,0,429.309,153.767Z"/><path d="M371.39,140.52a.5.5,0,0,0-.234.359,10.036,10.036,0,0,0,1.914,7.285l-.941-.4a.5.5,0,0,0-.568.794,7.35,7.35,0,0,1,1.121,1.66,10.058,10.058,0,0,0-2.665-.255.5.5,0,0,0-.38.8l3.3,4.412a19.776,19.776,0,0,0-4.872.52.5.5,0,0,0-.15.911l6.317,3.962a16.566,16.566,0,0,0,3.918,2.936.5.5,0,0,0,.722-.565l-.178-.687a27.921,27.921,0,0,1,4.182,6.389.5.5,0,0,0,.452.286.578.578,0,0,0,.071,0,.5.5,0,0,0,.423-.417,12.51,12.51,0,0,0-.217-3.909.508.508,0,0,0,.134-.006.5.5,0,0,0,.407-.456,15,15,0,0,0-1.544-7.747.591.591,0,0,0,.067-.048.5.5,0,0,0,.173-.422,10.611,10.611,0,0,0-.908-3.492.5.5,0,0,0,.642-.614,17.4,17.4,0,0,0-10.756-11.332A.5.5,0,0,0,371.39,140.52Z"/><path d="M386.768,188.418a.5.5,0,0,0,.316-.112,23.337,23.337,0,0,0,8.194-14.037.5.5,0,0,0-.872-.411L393.42,175l.48-1.5a.5.5,0,0,0-.186-.559.5.5,0,0,0-.587,0l-.789.583.257-1.749a.5.5,0,0,0-.722-.518l-.534.274A9.014,9.014,0,0,0,389.6,163a.5.5,0,0,0-.855.471,10.509,10.509,0,0,1,0,5.325l-1.474,6.126a.5.5,0,0,0,.842.469,1.948,1.948,0,0,1,.84-.493,6.688,6.688,0,0,1-.866,2.544.5.5,0,0,0,.078.616.492.492,0,0,0,.61.064.272.272,0,0,1,.2.163,1.549,1.549,0,0,1-.042.837,57.71,57.71,0,0,1-2.629,8.614.5.5,0,0,0,.466.683Z"/><path d="M416.745,174.281a7.482,7.482,0,0,0,.74,1.737,30.137,30.137,0,0,0,6.313,7.71.5.5,0,0,0,.791-.566l-1.7-4.141a.5.5,0,0,0,.572-.567l-.266-1.782a.5.5,0,0,0,.745-.529,21.369,21.369,0,0,1,.751-11.263.5.5,0,0,0-.916-.394l-1.287,2.477a17.213,17.213,0,0,1,.413-3.521.5.5,0,0,0-.869-.433,14.137,14.137,0,0,0-3.292,9.612,10.789,10.789,0,0,1-.56-2.12.5.5,0,0,0-.988.151l.443,2.994-.136-.158a.5.5,0,0,0-.852.488C416.682,174.075,416.713,174.176,416.745,174.281Z"/><path d="M471.159,177.708a19.454,19.454,0,0,1-8.376,9.776.5.5,0,0,0,.163.926l.319.055a19.292,19.292,0,0,1-4.2,2.056.5.5,0,0,0,.164.972h.02a23.053,23.053,0,0,0,8.615-2.047,3.409,3.409,0,0,1-.66.5.5.5,0,0,0,.428.9,18.547,18.547,0,0,0,8.427-6.526.5.5,0,0,0-.638-.734,9.3,9.3,0,0,1-3.412,1,6.48,6.48,0,0,0,.833-.972.5.5,0,0,0-.592-.751l-2.153.842a11.566,11.566,0,0,0,2.026-5.772.5.5,0,0,0-.964-.229Z"/><path d="M353.5,191.006a38.747,38.747,0,0,1-6.417-1.314,12.906,12.906,0,0,1-5.449-3.224,7.653,7.653,0,0,1-2.245-5.629c.059-.984.051-1.791.044-2.5a8.792,8.792,0,0,1,.2-2.6.5.5,0,0,0-.9-.419,13.4,13.4,0,0,0-1.351,11.745,3.63,3.63,0,0,0-1.267-.253.468.468,0,0,0-.424.222.5.5,0,0,0-.042.477,5.674,5.674,0,0,1,.309.922,3.034,3.034,0,0,1-.534-.522.5.5,0,0,0-.888.369,4.828,4.828,0,0,0,2.9,3.621,13.949,13.949,0,0,0,3.952,1.024l.381.059c.431.069.862.142,1.3.215a33.209,33.209,0,0,0,5.5.618,13.638,13.638,0,0,0,2.414-.2.5.5,0,0,0,.087-.96l-.619-.232a21.018,21.018,0,0,0,3.082-.427.5.5,0,0,0-.034-.983Z"/><path d="M323.9,155.339a.5.5,0,0,0,.479.355.4.4,0,0,0,.049,0,.5.5,0,0,0,.449-.451,18.731,18.731,0,0,0-.37-5.786,2.353,2.353,0,0,0,.323.083,2.547,2.547,0,0,0,2.747-1.548,4.364,4.364,0,0,0,.229-1.234,3.34,3.34,0,0,1,.186-1,.82.82,0,0,1,.69-.4c.095.006.1.031.111.06a.5.5,0,0,0,.414.357.491.491,0,0,0,.493-.236c.88-1.445.628-3.2.405-4.755l-.045-.313c-.282-2.023-.008-3.357.841-4.08a4.938,4.938,0,0,1,2.1-.83l8.91-2.028a.5.5,0,0,0,.3-.779l-1.808-2.521,1.929.164a.5.5,0,0,0,.228-.962l-2.782-1.114a91.654,91.654,0,0,0,10.907-5.681.5.5,0,0,0-.418-.9c-6.9,2.285-14.719,4.874-22.438,4.082a.507.507,0,0,0-.5.281.5.5,0,0,0,.1.568l2.011,2.036a7.892,7.892,0,0,1-2.176-1.048.5.5,0,0,0-.6.8,6.215,6.215,0,0,1,1.711,2.188l-7.484-3.819a1.859,1.859,0,0,0-1.474-.249,1.47,1.47,0,0,0-.833,1.719,3.4,3.4,0,0,0,.784,1.371,37.635,37.635,0,0,1,5.974,10.49,3.877,3.877,0,0,1,.352,1.877c-.078.475-.461.974-.913.974h-.02a2.016,2.016,0,0,1-.811-.317,2.478,2.478,0,0,0-1.436-.427,1.9,1.9,0,0,0-1.577,1.7,3.552,3.552,0,0,0,.121,1.364l-4.543.04a.5.5,0,0,0-.4.792,17.688,17.688,0,0,0,5.537,4.988c.217.381.455.765.7,1.155A13.245,13.245,0,0,1,323.9,155.339Z"/><path d="M344.22,103.593c-.641-.224-1.284-.438-1.922-.635-10.511-2.908-21.6-2.943-32.369-1.709-1.248.148-2.532.319-3.752.511,1.966-.129,3.935-.207,5.906-.248,8.2-.106,31.071.373,39.067,6.136.078.108.166.208.237.321a15.777,15.777,0,0,0-14.318,4.78.5.5,0,0,0,.627.765,21.3,21.3,0,0,1,11.275-2.971l-4.353,2.307a.5.5,0,0,0,.332.932,16.382,16.382,0,0,1,6.222-.033,16.866,16.866,0,0,0-4.027,2.467c-.619.462-1.258.94-1.892,1.349-5.6,3.6-12.549,2.671-16.195,1.794a.5.5,0,0,0-.583.668,5.151,5.151,0,0,0,3.525,2.9,9.543,9.543,0,0,0,2.554.305c.628,0,1.253-.04,1.862-.086a82.005,82.005,0,0,0,8.151-1.037c2.084-.373,4.184-.942,5.426-2.562.112-.146.218-.3.323-.457a2.336,2.336,0,0,1,.9-.938,2.363,2.363,0,0,1,1.524.2c.169.057.337.114.5.162a6.8,6.8,0,0,0,5.082-.735,13.915,13.915,0,0,0,3.78-3.321,31.765,31.765,0,0,0,3.656-5.361.5.5,0,0,0-.489-.736,11.892,11.892,0,0,1-9.893-3.837,24.386,24.386,0,0,1-1.647-2.142,18.2,18.2,0,0,0-2.454-2.976,12.565,12.565,0,0,0-7.457-2.944c-.568-.046-1.135-.053-1.7-.052a29.92,29.92,0,0,0-11.688-3.023,57.562,57.562,0,0,0-15.59-3.459c-.77-.078-1.624-.157-2.348-.208q1.161.231,2.318.477c3.922.835,7.969,1.806,11.842,3.007a138.826,138.826,0,0,0-15.567.895q-2.243.258-4.475.575,3.042-.124,6.087-.191c4.824.075,11.752-.349,18.311.217,1.242.471,2.461.965,3.624,1.5.521.238,1.037.488,1.555.733l-.279.038a8.82,8.82,0,0,0-4.987,2.754.5.5,0,0,0,.529.818,25.172,25.172,0,0,1,7.639-1.038c.561-.018,1.126-.036,1.693-.042a.865.865,0,0,1,.237.36c.031-.133-.071-.253-.169-.36a16.035,16.035,0,0,1,4.569.481,7.042,7.042,0,0,1,1.422.617,10.866,10.866,0,0,1,1.008,1.314,13.275,13.275,0,0,0-.734-1.153,10.869,10.869,0,0,1,3.349,3.025C348.794,103.379,346.113,102.86,344.22,103.593Zm-7.034-6.784c-.222-.137-.445-.273-.664-.411-.772-.479-1.561-.92-2.361-1.335a33.348,33.348,0,0,1,6.108,1.423C339.233,96.559,338.205,96.673,337.186,96.809Z"/><path d="M480.546,96.679c.8.078,1.755.191,2.47.266q-1.017-.237-2.039-.451c-5.99-1.13-16.9-3.125-21.742,1.353,2.79-2.069,6.091-1.792,9.358-1.885C472.586,96.016,476.574,96.278,480.546,96.679Z"/><path d="M319.67,136.682a1.991,1.991,0,0,0,.53-1.206c.272-2.086-.827-3.942-2.077-5.818-1.61-2.415-3.614-5.42-6.7-6.791a17.193,17.193,0,0,0-3.3-.967c-.365-.081-.731-.162-1.094-.251a7.938,7.938,0,0,1-3.74-1.8,9.509,9.509,0,0,1-1.335-1.866c-.942-1.564-2.021-3.336-4.01-3a.5.5,0,0,0-.416.534,8.335,8.335,0,0,0,2.64,4.856c.244.254.493.506.743.757a13.185,13.185,0,0,1,2.564,3.168,6.358,6.358,0,0,1,.424,4.643,13.09,13.09,0,0,1-1.191,2.568c-.164.3-.327.593-.483.893a7.269,7.269,0,0,0-1.021,4.052,2.844,2.844,0,0,0,1.84,2.529,2.171,2.171,0,0,0,.6.083,4.73,4.73,0,0,0,2.689-1.291l.282-.216a9.44,9.44,0,0,1,6.969-1.787,19.06,19.06,0,0,1,3.651,1.057C317.693,136.991,318.9,137.425,319.67,136.682Z"/><path d="M380.434,289.788a12.363,12.363,0,0,0-3.579,1.937,27.612,27.612,0,0,0,1.581-4.7.5.5,0,0,0-.715-.561l-4.1,2.105a8.13,8.13,0,0,1,4.051-5.823.5.5,0,0,0-.388-.919,21.924,21.924,0,0,0-11.993,9.974.5.5,0,0,0,.715.66,14.554,14.554,0,0,1,4.976-2.115,35.008,35.008,0,0,1-3.01,6.376.506.506,0,0,0-.018.482.5.5,0,0,0,.4.273c1.348.135,2.2-1.1,2.885-2.06a2.584,2.584,0,0,1,1.45-1.088.638.638,0,0,1,.5.114c.387.288.389.981.359,1.668a23.019,23.019,0,0,0,2.56,11.579.5.5,0,0,0,.943-.256,31.608,31.608,0,0,1,3.983-16.924.5.5,0,0,0-.6-.718Z"/><path d="M409.622,284.166a15.1,15.1,0,0,0-6.152,5.7l.119-3.257a.5.5,0,0,0-.788-.427l-2.934,2.07.071-.98a.5.5,0,0,0-.895-.34l-2.529,3.288a22.835,22.835,0,0,1,.45-7.258.5.5,0,0,0-.931-.328,26.6,26.6,0,0,0-2.9,17.085.492.492,0,0,0,.514.417.5.5,0,0,0,.478-.459,11.976,11.976,0,0,1,1.907-5.539l.207,1.732a.5.5,0,0,0,.5.441h.007a.5.5,0,0,0,.491-.454,12.859,12.859,0,0,1,.731-3.248l.979,2.113a.5.5,0,0,0,.95-.148,7.355,7.355,0,0,1,.927-2.76,29.652,29.652,0,0,0,3.563,8.273.5.5,0,0,0,.424.235.519.519,0,0,0,.129-.017.5.5,0,0,0,.371-.464,28.635,28.635,0,0,1,4.95-14.944.5.5,0,0,0-.634-.73Z"/><path d="M363.857,117.242a1.236,1.236,0,0,0-.522.966,2.469,2.469,0,0,0,.513,1.488,51.341,51.341,0,0,1-11.553,1.319h-.031a.5.5,0,0,0-.5.47,5.061,5.061,0,0,0,2.282,4.445l-6.612,2.178a.5.5,0,0,0-.106.9l3.454,2.138a26.58,26.58,0,0,0-14.054,10.3.5.5,0,0,0,.748.653c2.557-2.3,5.887-4.008,10.481-5.367,2.006-.592,4.085-1.075,6.094-1.541,1.853-.43,3.768-.874,5.632-1.405a116.976,116.976,0,0,0,14.478-5.553.5.5,0,0,0-.361-.931c-3.737,1.276-7.883.505-11.671-.68a59.382,59.382,0,0,0,9.047-2.2.5.5,0,0,0-.055-.965l-4.313-.886,4.781-1.441a.5.5,0,0,0-.111-.978,12,12,0,0,1-7.007-2.879A.5.5,0,0,0,363.857,117.242Z"/><path d="M427.566,128.069a117.207,117.207,0,0,0,15.743,4.755l-2.808.819a.5.5,0,0,0-.048.943,41.054,41.054,0,0,0,27.451,1.179.5.5,0,0,0,.343-.579.491.491,0,0,0-.543-.4,48.558,48.558,0,0,1-16.4-1.1l3.872-1.567a.5.5,0,0,0-.053-.945A117.572,117.572,0,0,0,439.3,127.94c.61-.429,1.278-.945,1.932-1.45a22.952,22.952,0,0,1,2.568-1.83.5.5,0,0,0-.008-.892c-1.79-.884-10.578-1.718-12.628-1.351a.5.5,0,0,0-.152.932l2.575,1.4-6.025,2.389a.5.5,0,0,0,.007.932Z"/><path d="M356.019,232.818l-.611.6a6.746,6.746,0,0,0-1.09.109.5.5,0,0,0-.365.261,10.554,10.554,0,0,0-1.079,3.173.5.5,0,0,0,.878.4,11.555,11.555,0,0,0,1.439-2.2c.014-.007.028-.014.041-.022a3.972,3.972,0,0,0,1.591-1.758.5.5,0,0,0-.8-.566Z"/><path d="M366.867,230.015a13.589,13.589,0,0,0-1.4.365.5.5,0,0,0-.471.091l-.155.127a13.514,13.514,0,0,0-2.227,1.077.5.5,0,0,0,0,.859,1.052,1.052,0,0,0,1.034.063.5.5,0,0,0,.422.232.484.484,0,0,0,.14-.02,6.5,6.5,0,0,0,.694-.245,4.069,4.069,0,0,0,1.465-.839,6.683,6.683,0,0,0,.968-.887.5.5,0,0,0-.473-.823Z"/><path d="M369.3,239.227c-.17.129-.366.276-1.747.418a.5.5,0,0,0-.36.213l-1.27,1.839a.5.5,0,0,0,.766.636l.468-.472a.5.5,0,0,0,.328-.026,6.741,6.741,0,0,0,2.5-1.892.5.5,0,0,0-.689-.716Z"/><path d="M379.136,237.836a4.563,4.563,0,0,0-2.014.81.5.5,0,0,0,.18.894.853.853,0,0,0,.193.022,1.1,1.1,0,0,0,.482-.135l.1-.046,1.331-.592a.5.5,0,0,0,.277-.595A.49.49,0,0,0,379.136,237.836Z"/><path d="M374.839,228.7a.5.5,0,0,0-.631.134l-.574.74a.5.5,0,0,0,.754.654,2.771,2.771,0,0,0,.688-.927A.5.5,0,0,0,374.839,228.7Z"/><path d="M452.571,247.124l.007,0a1.834,1.834,0,0,0,.318.871,1.081,1.081,0,0,0,.864.509.883.883,0,0,0,.17-.017.816.816,0,0,0,.642-.646,1.029,1.029,0,0,0,.024-.229.5.5,0,0,0,.249-.444l-.028-1.326a2.514,2.514,0,0,0-.847-.858c-.432-.006-.853,0-.974.367a2.686,2.686,0,0,0-.417-.087.491.491,0,0,0-.384.112.872.872,0,0,0-.305.78A1.3,1.3,0,0,0,452.571,247.124Z"/><path d="M433.963,224.355a.5.5,0,0,0,.1-.01c.124-.026.249-.047.364-.067a1.464,1.464,0,0,0,.806-.288l.577-.177a.5.5,0,0,0,.345-.573.483.483,0,0,0-.534-.4l-1.167.1a.5.5,0,0,0-.443.379l-.2.06a.5.5,0,0,0,.147.978Z"/><path d="M724.6,311.149H540.539c-.245-7.183-2.648-14.949-6.284-19.258a27.49,27.49,0,0,0-12.732-8.392,35.943,35.943,0,0,0-8.268-2.794c-.976-.2-1.977-.4-3-.6-8-9.648-17.369-19.49-27.43-27.207a.5.5,0,0,0-.095-.172c-.008-.009-.019-.013-.028-.022.061-.369.11-.739.185-1.106l.022.073a.469.469,0,0,0,.5.359.5.5,0,0,0,.471-.391l.192-.859c14.8,9,28.562,20.1,41.544,31.39,4.912,4.223,9.792,8.484,14.581,12.846-4.285-4.569-8.748-8.969-13.344-13.225-12.364-11.093-26.832-22.937-42.466-32.421l4.157-18.63a.479.479,0,0,0,.125-.121,28.668,28.668,0,0,0,1.846-3.689c20.377,1.153,40.123,5.423,60.028,11.042,2.691.727,6.221,1.784,8.413,2.416q-3.414-1.337-6.874-2.551A221.731,221.731,0,0,0,491.028,225.6a48.108,48.108,0,0,0,2.028-7.532c14.627-2.859,29.179-6.126,43.525-10.168,2.018-.573,4.924-1.387,6.393-1.856q-3.309.7-6.619,1.383c-14.395,3.01-28.69,6.2-43,9.025.063-.364.128-.731.186-1.087a123.244,123.244,0,0,0,1.5-15.827c.8-4.407.364-9.193-.07-13.878l-.13-1.412c-1.349-15,.482-25.934,5.764-34.423.923-1.484,1.992-2.948,3.026-4.365.131-.179.261-.36.392-.54a2.988,2.988,0,0,0,.7-.236,6.075,6.075,0,0,0,2.365-2.518,23.049,23.049,0,0,0,2.7-7.036,45.865,45.865,0,0,0,.53-10.349c-.02-.824-.04-1.649-.05-2.471a135.828,135.828,0,0,1,1.824-22.134c.067-.445.142-.893.211-1.338q.785.64,1.539,1.333a45.445,45.445,0,0,1,3.517,3.47,42.321,42.321,0,0,0-3.126-3.6c-.591-.635-1.207-1.231-1.835-1.809.183-1.171.364-2.341.552-3.517.569-3.559,1.143-7.156,1.589-10.764a67.976,67.976,0,0,1,7.29,3.112c.312.137.719.39.876.449a62.785,62.785,0,0,0-8.082-4.261q.124-1.044.232-2.089l1.618,1.071c1.568,1.048,3.289,2.236,4.751,3.247q-1.59-1.344-3.21-2.651-1.531-1.2-3.087-2.414c.239-2.484.4-4.97.432-7.45.529.1,1.057.2,1.584.32a43.394,43.394,0,0,1,5.1,1.44,38.733,38.733,0,0,0-3.952-1.51c-.9-.288-1.81-.549-2.723-.791a54.972,54.972,0,0,0-1.345-12.943c-.116-.492-.248-.99-.393-1.484a6.35,6.35,0,0,0-.2-1.369,10.327,10.327,0,0,0-5.971-6.394c-4.254-1.834-9.589-1.515-14.641.875-4.659,2.2-8.518,5.779-11.769,8.958-5.189,5.075-10.2,10.534-15.038,15.813-10.132,11.047-20.611,22.47-33.234,30.861-.748.5-1.587,1.024-2.485,1.508a38.366,38.366,0,0,1-13.127.172c-.332-.054-.664-.113-1-.171a16.926,16.926,0,0,0-4.9-.381,17.4,17.4,0,0,0-2.553.556,9.8,9.8,0,0,1-3.72.53,10.237,10.237,0,0,1-2.482-.751,7.956,7.956,0,0,0-3.747-.81,8.075,8.075,0,0,0-2.906,1.091,6.7,6.7,0,0,1-2.685.986,6.773,6.773,0,0,1-3.323-1.073,8.394,8.394,0,0,0-3.5-1.2,7.64,7.64,0,0,0-4.305,1.55l-.329.211a18.855,18.855,0,0,1-1.708,1.015,9.369,9.369,0,0,1-4.6-2.093,8.874,8.874,0,0,1-3.344-6.43.5.5,0,0,0-.924-.249,4.988,4.988,0,0,0-.471,4.106c-9.9-6.234-17.676-15.48-25.21-24.437q-1.173-1.392-2.342-2.779c-8.357-9.871-18.369-20.826-31.486-25.872-4.621-1.775-8.314-2.021-11.3-.753-2.956,1.259-5.052,4-6.736,6.206a17.194,17.194,0,0,0-3.731,8.253c-.233.714-.433,1.4-.6,2.046-.133.522-.246,1.045-.356,1.569a56.363,56.363,0,0,0-6.253,3.523,72.077,72.077,0,0,0-9.74,7.678,77.935,77.935,0,0,1,15.611-9.664l.1-.046a67.257,67.257,0,0,0-.719,12.566c.012.681.035,1.361.055,2.042-.362.153-.734.3-1.087.459.36-.129.728-.234,1.09-.356.515,17.349,3.482,34.686,6.363,51.475a20.744,20.744,0,0,0,1.968,6.711,13.334,13.334,0,0,0,5.331,5.005c.117.175.241.344.346.528a15.26,15.26,0,0,1,1.519,7.088c.048,1.442.051,2.913.054,4.336,0,2.524.011,5.133.264,7.7a24.68,24.68,0,0,0,2.821,9.739c.084.336.172.67.26,1,.1.368.2.735.286,1.1a48.177,48.177,0,0,1,1.013,8.364c.071,1.138.142,2.277.244,3.41a28.4,28.4,0,0,0,1.758,8.1,48.368,48.368,0,0,0,2.92,10.036c.248.595.509,1.19.769,1.786.078.177.155.355.233.533.043.567.062,1.131.062,1.693-9.9-1.86-19.812-3.663-29.78-5.13-3.549-.532-7.227-1.064-10.714-1.541q2.073.454,4.146.9c12.046,2.65,24.177,4.868,36.3,7.127a16.422,16.422,0,0,1-2.118,7.108.5.5,0,0,0,.663.691,12.916,12.916,0,0,0,3.036-3.222,93.264,93.264,0,0,0-.962,16.035,17.186,17.186,0,0,0,.342,2.536c-6.315,3.195-11.894,6.249-15.74,8.417-1.358.778-3.123,1.79-4.223,2.459q2.573-1.231,5.15-2.454c4.992-2.34,10.039-4.757,15.081-7.14.089.405.182.817.28,1.248.7,3.069,1.526,6.726,1.161,10.065q-2.562,2.145-5.085,4.343-1.9.743-3.805,1.5c-1.381.544-3.134,1.211-4.294,1.677q2.232-.678,4.458-1.378c.824-.274,1.674-.553,2.536-.836-7.164,6.287-14.11,12.825-21,19.287-4.567,4.487-11.24,11.314-14.334,14.917,6.079-5.564,12.187-11.1,18.237-16.69,6.9-6.345,13.738-12.674,20.76-18.716l1.231-.406c-.832,1.23-1.756,2.454-2.723,3.732a52.577,52.577,0,0,0-6.132,9.571,47.9,47.9,0,0,0-4.367,11.311c-1.69.289-3.339.619-4.925.95a35.654,35.654,0,0,0-8.236,2.793,27.387,27.387,0,0,0-12.68,8.392c-3.621,4.31-6.015,12.075-6.258,19.258H36.6a.5.5,0,0,0-.5.5v20.762a.5.5,0,0,0,.5.5H282.383c1.108.354,2.224.648,3.328.9A126.771,126.771,0,0,0,300.1,336.26a5.545,5.545,0,0,0,.678.81,6.04,6.04,0,0,0,4.18,1.638,6.4,6.4,0,0,0,.984-.076,7.894,7.894,0,0,0,3.6-1.64c2.194.1,4.4.158,6.639.158q4.305,0,8.706-.243c5.274-.291,10.371-.811,14.765-3.933.027-.019.054-.043.081-.063H470.711c.027.02.054.044.082.064,4.41,3.121,9.527,3.641,14.822,3.932q4.416.245,8.742.243c2.244,0,4.463-.06,6.666-.158a7.938,7.938,0,0,0,3.616,1.64,6.469,6.469,0,0,0,.989.076,6.072,6.072,0,0,0,4.194-1.638,5.5,5.5,0,0,0,.681-.81,127.808,127.808,0,0,0,14.452-2.446l.05-.012a5.157,5.157,0,0,0,.655.6,4.154,4.154,0,0,0,2.469.861,3.352,3.352,0,0,0,.838-.1,5.152,5.152,0,0,0,2.493-1.718c.13-.147.278-.332.429-.529H724.6a.5.5,0,0,0,.5-.5V311.649A.5.5,0,0,0,724.6,311.149Zm-216.328-31.4a47.122,47.122,0,0,0-16.225-.4,23.982,23.982,0,0,0-5.564,1.678L482.742,270a34.915,34.915,0,0,1-2.119-8.572,15.067,15.067,0,0,1,0-2.279l.912,1.02a.5.5,0,0,0,.871-.375,29.041,29.041,0,0,1,.073-5.414A178.547,178.547,0,0,1,508.267,279.748ZM482.039,241.5l-.724-.869a.5.5,0,0,0-.883.345,20.293,20.293,0,0,1-.56,5.747c-2.808-1.6-5.647-3.11-8.518-4.52.867-1.006,1.711-2.031,2.507-3.093l-.062.813a.5.5,0,0,0,.3.5.5.5,0,0,0,.567-.12,21.623,21.623,0,0,0,3.926-6.043l.271.563a.485.485,0,0,0,.471.282.5.5,0,0,0,.446-.32,19.83,19.83,0,0,0,1.239-8.148c2.056.014,4.107.051,6.149.131A67.69,67.69,0,0,1,482.039,241.5ZM475.992,284a5.226,5.226,0,0,0-3.784-2.2.5.5,0,0,0-.494.7,35.8,35.8,0,0,1,1.416,3.819c-.25.03-.509.068-.774.11a148.444,148.444,0,0,0-5.437-13.97,11.759,11.759,0,0,0,1.691.492.507.507,0,0,0,.1.011.5.5,0,0,0,.5-.515,10.335,10.335,0,0,1,2.392-6.828l-.732,2.12a.5.5,0,0,0,.767.568,22.946,22.946,0,0,0,4.5-4.376c-.052.485-.091.964-.108,1.427-.177,4.684.937,9.2,2.1,13.576l-2.109-.7a.5.5,0,0,0-.653.533Zm-.146-29.111a13.724,13.724,0,0,0-5.246,1.068.5.5,0,0,0-.25.69A3.448,3.448,0,0,0,471.8,258.1l-9.409,4.327a.5.5,0,0,0-.289.4.509.509,0,0,0,.037.223,91.677,91.677,0,0,0-5.52-8.53,59.086,59.086,0,0,0,11.987-9.351,94.741,94.741,0,0,1,9.609,6.029A20.143,20.143,0,0,1,475.846,254.893Zm-11.36,9.975-1.088.462q-.593-1.1-1.208-2.185a.5.5,0,0,0,.114.141Zm-16.317-9.534a.5.5,0,0,0-.615-.193c-.318.133-.644.252-.975.364-4.479-7.763-9.908-14.254-16.395-15.958,7.025,2.677,11.447,9.567,15.078,16.348a21.5,21.5,0,0,1-7.688.375l-1.223-.137c-3.038-.329-6.178-.67-8.661-2.257a63,63,0,0,0-10.928-5.492,32.584,32.584,0,0,1-4.71-2.206.486.486,0,0,0-.227-.452,7.683,7.683,0,0,1-3.444-3.866,5.317,5.317,0,0,1,.552-4.9,9.463,9.463,0,0,1,1.135-1.206A12.443,12.443,0,0,0,411.1,234.7a6.53,6.53,0,0,0,1.006-1.718,13.174,13.174,0,0,0,1.823-3.041l.237-.523a10.862,10.862,0,0,1,2.73-4.218,11.352,11.352,0,0,1,3.392-1.593c1.726-.6,3.512-1.211,4.576-2.79s1.1-3.9.081-6.2a11.232,11.232,0,0,0-.813-1.516,10.714,10.714,0,0,0-.621-2.6l1.413.587c.268.278.54.553.819.827A13.449,13.449,0,0,0,435,215.742h0a.5.5,0,0,0,.241-.938,2.519,2.519,0,0,1-1.213-1.663l7.112,1.711a.5.5,0,0,0,.53-.206.5.5,0,0,0,0-.568l-1.1-1.567a27.6,27.6,0,0,1,13.5,7.305q.914,1.362,1.736,2.788-2.586.313-5.176.59a4.884,4.884,0,0,0-.709-.219.5.5,0,0,0-.58.326c0,.008,0,.017,0,.026-1.378.141-2.757.285-4.138.409a1.472,1.472,0,0,0-.087-.143.634.634,0,0,0-.017-.188.553.553,0,0,0-.5-.389l-.611-.042a.5.5,0,0,0-.531.456l0,.023a.494.494,0,0,0-.337.45c-6.1.506-12.227.851-18.393.955a131.6,131.6,0,0,0,18.582.282,1.067,1.067,0,0,0,.524.412,1.168,1.168,0,0,0,.382.063,1.117,1.117,0,0,0,.592-.165,1.153,1.153,0,0,0,.373-.406c1.945-.119,3.89-.277,5.833-.456l.085.04a.624.624,0,0,1,.157.26c.048.2-.14.407-.312.553l-.293.043a.5.5,0,0,0-.042.982l2.733.644a.516.516,0,0,0,.116.013.5.5,0,0,0,.345-.861c-.073-.07-.15-.138-.229-.2l.555-.082a.5.5,0,0,0,.141-.946l-1.326-.632q1.836-.186,3.668-.4c.446.814.877,1.635,1.3,2.456-.825.115-1.65.23-2.473.365-3.811.747-7.771,1.279-11.324,2.907,3.828-1.351,7.682-1.571,11.576-2.1.9-.089,1.8-.151,2.7-.227.284.56.57,1.122.849,1.679a.5.5,0,0,0,.447.275.484.484,0,0,0,.084-.007.5.5,0,0,0,.412-.429,14.224,14.224,0,0,0,.108-1.678c3.37-.252,6.747-.412,10.126-.506a16.506,16.506,0,0,1-5.856,10.861,8.84,8.84,0,0,0-2.029-5.757.5.5,0,0,0-.873.421,23.131,23.131,0,0,1,.41,5.791c-1.67-.671-3.35-1.3-5.035-1.887a.493.493,0,0,0,0-.253.5.5,0,0,0,.112-.981,7.123,7.123,0,0,1-1.029-.375,2.334,2.334,0,0,0-1.559-.893.5.5,0,0,0-.478.817,5.231,5.231,0,0,0-.84-.015.5.5,0,0,0-.426.305q-1.566-.479-3.138-.905a.5.5,0,0,0-.492-.125l-.058-.015a.5.5,0,0,0-.275-.317l-.294-.12c-.589-.233-.671-.313-.663-.485a.5.5,0,0,0-.965-.2l-.2.521a86.227,86.227,0,0,0-13.178-2.111,74.147,74.147,0,0,1,12.874,2.893l-.392,1a.5.5,0,0,0,.466.682.488.488,0,0,0,.146-.022l1.483-.455a2.866,2.866,0,0,0,1.122-.3c3.063,1.022,6.094,2.143,9.1,3.255,1.211.455,2.408.943,3.6,1.433-.053.478-.122.954-.2,1.428a44.759,44.759,0,0,0-11.633-2.549,57.278,57.278,0,0,1,11.463,3.453,24.374,24.374,0,0,1-5.878,11.457c-1.072-1.411-2.185-2.8-3.354-4.14-5.592-6.061-11.665-12.562-19.687-15.2l.993.079h.039a.5.5,0,0,0,.181-.966,4.14,4.14,0,0,0-2.033-.243.485.485,0,0,0-.158.048l-.111-.009a.515.515,0,0,0-.537.441.5.5,0,0,0,.421.552,3.9,3.9,0,0,0,1.137.092c4.937,2.073,8.9,5.625,12.618,9.463l-1.541-.491a.5.5,0,0,0-.57.2.629.629,0,0,0-.072.472.645.645,0,0,0,.278.366.5.5,0,0,0,.211.232,3.618,3.618,0,0,0,.929.366c.2.091.434.194.7.309a.5.5,0,0,0,.634-.212.307.307,0,0,0,.017-.031l.07-.01a.493.493,0,0,0,.313-.193c.936.986,1.861,1.984,2.785,2.973a81.918,81.918,0,0,1,5.753,6.905c-.173.165-.339.337-.517.5a.5.5,0,0,0,.334.872.509.509,0,0,0,.238-.06c.216-.117.423-.248.637-.367a96.121,96.121,0,0,1,6.685,10.661l-3.66,1.554-5.193,1.7a132.953,132.953,0,0,0-5.994-12.471c.283-.227.567-.451.841-.7A.5.5,0,0,0,448.169,255.334Zm11.324-33.184a1.13,1.13,0,0,1-.018-.17c.01-.154.095-.289.164-.306.039-.014.2.006.513.391C459.933,222.1,459.713,222.122,459.493,222.15Zm1.689,1.278,1.824,2.435c-.92.086-1.838.186-2.755.294a14.727,14.727,0,0,0-.4-2.555Q460.516,223.516,461.182,223.428Zm3.324,2.3a11.091,11.091,0,0,0,.4-2.818q2.7-.389,5.385-.811a15.773,15.773,0,0,1,.23,3.27Q467.51,225.487,464.506,225.729Zm4.97,18.561c.312-.329.614-.667.919-1q4.613,2.25,9.093,4.8c-.2.633-.425,1.258-.685,1.87A83.952,83.952,0,0,0,469.476,244.29Zm5.02-22.858.773-.125c.082.363.168.726.221,1.094C475.175,222.061,474.838,221.743,474.5,221.432Zm12.963,4c-1.922-.075-3.846-.134-5.77-.156-.263,0-.525-.006-.788-.01a20.8,20.8,0,0,0-1.133-4.713q3.987-.719,7.969-1.472c.085,1.308.146,2.619.171,3.931Q487.707,224.227,487.459,225.433Zm-1.01-7.656a12.589,12.589,0,0,0,1.067-1.545c.044.442.067.887.1,1.33C487.23,217.636,486.839,217.7,486.449,217.777Zm23.5-121.592q-1.274-.963-2.621-1.8a61.621,61.621,0,0,0,1.418-10.368l.085-1.921,1.907.542c.274.087.538.182.81.27A96.046,96.046,0,0,1,509.948,96.185Zm1.632-14.2q-1.341-.5-2.7-.991c.061-1.383.113-2.562.15-3.591q1.327.824,2.65,1.675C511.663,80.055,511.622,81.019,511.58,81.983Zm.1-4.032q-1.29-.945-2.611-1.841c.04-1.527.038-2.768-.022-4.055.849.084,1.694.185,2.537.3Q511.7,75.192,511.68,77.951ZM292.525,69.458c1.049-.362,2.117-.677,3.2-.954a12.63,12.63,0,0,0-.406,1.87c-.88.1-1.759.2-2.632.33l-.407.057C292.354,70.324,292.439,69.891,292.525,69.458Zm-.279,1.51c.8-.029,1.606-.07,2.41-.081l.588,0c-.42,2.993-.718,7.728-.936,12.476-.971.287-1.938.59-2.894.923-.051.018-.1.039-.154.057A80.431,80.431,0,0,1,292.246,70.968ZM314.735,195.95a.5.5,0,0,0-.971-.067,25.727,25.727,0,0,0-.776,3.244,19.888,19.888,0,0,1-1.008-7.441,57.044,57.044,0,0,1,1.411-9.388.5.5,0,0,0-.885-.406,14.091,14.091,0,0,0-2.089,3.909c-.041-.481-.089-.962-.157-1.441-.155-1.1-.391-2.194-.619-3.253-.241-1.12-.491-2.278-.639-3.423a15.551,15.551,0,0,1-.134-1.99,2.575,2.575,0,0,1,.144.305.5.5,0,0,0,.892.1,8.864,8.864,0,0,0,.667-8.036,16.338,16.338,0,0,0,4.374-.467.5.5,0,0,0,.176-.889l-1.535-1.12a19.429,19.429,0,0,0,6.822-6.077.5.5,0,0,0-.291-.77l-1.21-.3a8.1,8.1,0,0,0,2.852-3,.5.5,0,0,0-.438-.74h-.076a18.463,18.463,0,0,1-8.4-2.056,12.516,12.516,0,0,0,3.793-1.352.5.5,0,0,0-.309-.934c-1.986.272-4.165-.317-6.678-1.8-.852-.5-1.7-1.068-2.51-1.616a34.5,34.5,0,0,0-3.773-2.311c-.364-.182-.737-.353-1.11-.524a10.5,10.5,0,0,1-3.068-1.838,6.836,6.836,0,0,1-1.832-4.66,12.242,12.242,0,0,1,.034-1.445,23.591,23.591,0,0,1,1.1-2.524c.306-.629.613-1.259.879-1.9.628-1.52,1.455-4.4-.06-6.616a8.454,8.454,0,0,0-1.871-1.809c-.37-.29-.72-.564-1.04-.869-2.167-2.066-2.721-5.332-3.1-8.5-.884-7.34-1.5-14.8-1.847-22.186-.108-2.332-.182-4.683-.191-7.032.682-.187,1.361-.382,2.048-.548.325-.077.649-.145.974-.218-.09,2.023-.167,4.033-.233,5.89l-.043,1.167a44.129,44.129,0,0,0,3.1,18.03.5.5,0,0,0,.464.314.532.532,0,0,0,.124-.015.5.5,0,0,0,.372-.544,43.016,43.016,0,0,1,.5-15.5,23.891,23.891,0,0,1,5.759-10.891,61.255,61.255,0,0,1,20.357,1.638c.756.222,1.614.462,2.52.725a23.2,23.2,0,0,1,5.512,5.125,21.991,21.991,0,0,0-3.857-4.628c4.225,1.316,8.973,3.254,10.388,6.752-1.517-4.792-8.166-6.849-12.442-8.512l-.1-.031c-7.454-5.532-18.133-7.615-27.016-8.138a14.825,14.825,0,0,1,2.617-4.285c8.741.386,16.886,1.609,25.465,5.326-7.391-4.5-15.868-6.328-24.407-6.415a13.431,13.431,0,0,1,4.26-2.691s.007-.008.012-.01c1.3.056,2.6.168,3.91.351a28.59,28.59,0,0,1,13.88,5.48c-6.363-5.816-15.336-7.809-23.8-7.113a9.28,9.28,0,0,1,3.26-2.22,18.856,18.856,0,0,1,7.683-1.032.474.474,0,0,0,.5-.354.5.5,0,0,0-.214-.569c-3.33-2.079-7.73-1.837-12.727.7a8.725,8.725,0,0,0-3.651,4.287,35.064,35.064,0,0,0-3.623,1.082A44.911,44.911,0,0,1,294.76,61.6a15.234,15.234,0,0,1,3.5-3.228,15.786,15.786,0,0,1,12.614-1.532c3.695.984,7.367,3.009,11.554,6.372,6.314,5.073,11.685,11.367,16.878,17.454,3.547,4.157,7.215,8.456,11.169,12.354,4.36,4.3,9.171,8.215,13.825,12l8.893,7.238a8.275,8.275,0,0,1-3.086,2.806.5.5,0,0,0-.257.571.473.473,0,0,0,.5.374,15.706,15.706,0,0,0,6.708-1.763l-.737,1.52a.5.5,0,0,0,.719.64,36.227,36.227,0,0,1,11.071-4.7,19.837,19.837,0,0,0-2.4,10.366.5.5,0,0,0,.949.2l2.224-4.539a.5.5,0,0,0,.313-.212,8.139,8.139,0,0,1,5.4-3.455l-1.635,7.029a.5.5,0,0,0,.953.3,11.861,11.861,0,0,1,5.64-6.148,15.3,15.3,0,0,1,2.027,5.122,5.252,5.252,0,0,1-1.784,5.061.5.5,0,0,0,.212.9l1.753.271a7.95,7.95,0,0,0-.983,2.623.5.5,0,0,0,.553.585l1.092-.135,2.212,6.807a.5.5,0,0,0,.445.345.476.476,0,0,0,.483-.287,44.268,44.268,0,0,0,3.543-9.321,15.327,15.327,0,0,0-.882-9.986c-.076-.152-.156-.306-.237-.46a4.225,4.225,0,0,1-.7-2.167,1.88,1.88,0,0,1,.73-1.3,2.618,2.618,0,0,1,1.908-.568,4.147,4.147,0,0,1,2.956,2.357,13.3,13.3,0,0,1,1.072,4.1.5.5,0,0,0,.392.415.5.5,0,0,0,.527-.225,9.6,9.6,0,0,0,1.444-4.98,11.158,11.158,0,0,1,2.3,7.379,39.518,39.518,0,0,1-.561,5.486c-.2,1.309-.4,2.663-.5,4.012-.307,4.043.463,7.226,2.292,9.46a.5.5,0,0,0,.387.184.513.513,0,0,0,.155-.025.5.5,0,0,0,.344-.449l1.272-23.6a5.778,5.778,0,0,1,.476-2.408,3.823,3.823,0,0,1,2.662-1.7,14.552,14.552,0,0,0,5.176.974,13.281,13.281,0,0,0,1.411-.073,14.488,14.488,0,0,0,9.746-5.417.5.5,0,0,0-.526-.789l-2.162.591c9.541-6.7,17.3-15.894,24.817-24.806l1.277-1.511C473.819,71.15,482.8,61.136,494.3,54.841c2.531-1.385,6.288-3.107,9.7-2.049,3.107.966,5.087,3.931,6.48,6.931q.808,6.068,1.086,11.828-1.279-.253-2.567-.457c-.057-.843-.137-1.737-.248-2.775a10.977,10.977,0,0,0-3.465-7.228,7.452,7.452,0,0,0-5.567-1.567,21.344,21.344,0,0,0-5.47,1.448.5.5,0,0,0,.287.956,8.882,8.882,0,0,1,5.695.566,6.477,6.477,0,0,1-1.408-.031.5.5,0,0,0-.462.855c.5.45,1.047.9,1.605,1.355a32.406,32.406,0,0,1,2.493,2.19A6.722,6.722,0,0,0,499.8,66.3a.521.521,0,0,0-.493.3.5.5,0,0,0,.1.541,16.667,16.667,0,0,1,2.375,3.152c-1.52-.1-3.041-.165-4.561-.192-.724-.223-1.455-.431-2.2-.6-4.024-.931-8.628-1.7-12.655-.53,3.333-.676,6.513.091,9.722.766.439.1.871.222,1.3.341-8.3.266-16.7,3.073-22.437,9.246a30.53,30.53,0,0,1,11.713-6.311,38.447,38.447,0,0,1,10.447-1.4,28.913,28.913,0,0,0-6.3,2.057c-.31.124-.617.261-.918.409a.5.5,0,0,0,.428.9q.44-.2.885-.394a13.646,13.646,0,0,1,11.564.885,15.843,15.843,0,0,0-2.808-.326.511.511,0,0,0-.48.324.5.5,0,0,0,.147.561,11.57,11.57,0,0,1,1.655,1.743,34.968,34.968,0,0,0-8.334-.466,41.266,41.266,0,0,0-22.764,9.952A45.539,45.539,0,0,1,490.4,78.842a43.467,43.467,0,0,1,8.122.75,40.772,40.772,0,0,1,3.293,8.492c.419,1.374.86,2.769,1.339,4.1a43.535,43.535,0,0,0-19.39-3.515q-1.922.029-3.849.144c-1.935-.352-3.9-.586-5.845-.8-3.954-.294-8.081-.433-11.888.833a34.48,34.48,0,0,1,13,.386,53.157,53.157,0,0,0-17.238,4.9c7.25-2.836,14.541-3.7,22.152-3.914,7.605,1.489,14,6.055,19.645,10.822,1.334,1.121,2.8,2.457,3.981,3.558q-1.434-1.618-2.948-3.164c-4.436-4.435-9.283-8.78-15.183-11.125-.172-.064-.346-.117-.519-.177a45.82,45.82,0,0,1,21.02,4.65c-.114.667-.232,1.3-.354,1.854a.5.5,0,0,0,.368.594.553.553,0,0,0,.12.014.5.5,0,0,0,.482-.368c.092-.334.231-.869.394-1.551q1.375.76,2.682,1.643a77.336,77.336,0,0,1-6.018,18.216l-.29.6c-1.137,2.339-2.31,4.758-2.2,7.4a15.414,15.414,0,0,0,1.8,5.757,22.638,22.638,0,0,1,1.447,3.667,9.96,9.96,0,0,1,.229,1.234,22.946,22.946,0,0,1-13.66,17,.5.5,0,0,0-.308.554l1.146,6.307a6.232,6.232,0,0,0-3.009-.419.5.5,0,0,0-.43.623l1.635,6.288-1.735-.553a.5.5,0,0,0-.634.607,118.981,118.981,0,0,1,3.232,16.582,26.8,26.8,0,0,0-6.327-7.736l.438.183a.5.5,0,0,0,.661-.636,14.922,14.922,0,0,0-1.913-3.568l2.444-.307a.5.5,0,0,0,.355-.77c-1.826-2.785-4-4.8-5.967-5.532a.5.5,0,0,0-.647.628,5.29,5.29,0,0,0,2.113,2.717,8.106,8.106,0,0,1-2.681-.112.5.5,0,0,0-.413.882,6.2,6.2,0,0,1,1.873,2.493l-8.62-3.651a.5.5,0,0,0-.544.819,45.886,45.886,0,0,1,11.375,47.973.5.5,0,0,0,.847.5l1.473-1.664-1.028,5.1q-2.631.484-5.263.95a19.226,19.226,0,0,0-2.141-3.592c-1.923-2.53-4.243-3.2-6.291-3.781-.507-.145-1-.286-1.464-.452a.5.5,0,0,0-.431.9,14.589,14.589,0,0,1,6.012,7.67q-.964.162-1.93.319a16.379,16.379,0,0,0-2.759-1.579.5.5,0,0,0-.669.641,14.279,14.279,0,0,1,.468,1.4q-2.56.4-5.123.775a15.468,15.468,0,0,0-2.317-6.519c-2.085-3.345-5.148-5.973-8.107-8.379a.5.5,0,0,0-.683.728,7.088,7.088,0,0,1,1.51,2.569,42.5,42.5,0,0,0-12.764-1.329c-.351-.123-.7-.247-1.05-.365-2.983-1.021-5.8-1.985-7.5-4.333a.5.5,0,0,0-.9.318l.142,2.892a3.93,3.93,0,0,1-6.8-1.155.5.5,0,0,0-.959.278,10.01,10.01,0,0,0,1.529,3.418,7.842,7.842,0,0,1-1.442-.687,20.771,20.771,0,0,1-1.866-2.79,10.011,10.011,0,0,1-1.323-5.76.5.5,0,0,0-.879-.381,7.235,7.235,0,0,0-1.669,4.617,14.731,14.731,0,0,1-2.95-6.384.5.5,0,0,0-.487-.436h-.009a.5.5,0,0,0-.493.418,14.5,14.5,0,0,0,3.439,11.914,1.7,1.7,0,0,1-.031.348,2.763,2.763,0,0,1-1.243,1.644,8.236,8.236,0,0,1-2.158.917c-1.411.438-2.862.825-4.311,1.15a1.25,1.25,0,0,0-.93.617A1.016,1.016,0,0,0,411.1,216a1.933,1.933,0,0,0,1,.151l4.88-.2c1.135-.047,2.4-.033,3.068.727.645.729.521,1.891.235,3.019a5.646,5.646,0,0,1-1.75,1,18.152,18.152,0,0,1-1.816.532,7.321,7.321,0,0,0-4.107,2.049c-1.264,1.485-1.234,3.551-1.209,5.373l.006.477a9.512,9.512,0,0,1-.214,2.17,5.22,5.22,0,0,1-2.232,2.059c-.485.229-1.092.329-1.359.034a1.694,1.694,0,0,1-.2-1.042v-.1a1.883,1.883,0,0,0-.821-1.794.5.5,0,0,0-.617.113,3.782,3.782,0,0,0-.708,1.7l-.057.244a1.719,1.719,0,0,1-.7,1.214,1.184,1.184,0,0,1-1.058-.112l-.018-.011a11.218,11.218,0,0,0-.829-.763,8.584,8.584,0,0,1-.609-1.044,8.335,8.335,0,0,1-.8-3.662,5.376,5.376,0,0,0-2.78-6.712,8.849,8.849,0,0,0-2.387-.592c-.231-.036-.457-.07-.671-.108a3.562,3.562,0,0,1-1.5-.7,2.981,2.981,0,0,1-.774-2.4c.224-.761,1.088-1.38,2.567-1.839a10.63,10.63,0,0,1,3.621-.024,16.9,16.9,0,0,0,2.213.131.5.5,0,0,0,.051-1,28.093,28.093,0,0,0-6.267-.37l-.35.034a4.745,4.745,0,0,1-1.745-.027,2.085,2.085,0,0,1-1.253-1.036c.021-.191.037-.377.066-.578.253-1.721,1.559-3.475,2.969-5.04,3.1-1.737,4.853-9.336,4.15-13.791A41.758,41.758,0,0,0,397.9,189a.5.5,0,0,0-.979.165,22.013,22.013,0,0,1-2.5,11.436,7.772,7.772,0,0,0-.176-1.493.5.5,0,0,0-.988.081c-.093,1.809-1.512,3.248-2.687,4.136-.571.431-1.193.831-1.8,1.217a19.478,19.478,0,0,0-2.752,2,10.154,10.154,0,0,0-2.972,9.521.5.5,0,0,0,.984-.041,10.757,10.757,0,0,1,1.734-4.514,14.779,14.779,0,0,0,.477,4.467,1.208,1.208,0,0,0-.4.618,1.7,1.7,0,0,0,.468,1.44,21.5,21.5,0,0,0,7.35,6.711c.562.348,1.125.695,1.674,1.062a12.211,12.211,0,0,1,3.508,3.3c.016.163.022.326.044.49a7.959,7.959,0,0,0,1.825,4.286,11.862,11.862,0,0,0,1.474,1.313,7.383,7.383,0,0,1,1.753,1.727,4.8,4.8,0,0,1,.083,4.423,8.906,8.906,0,0,1-.8,1.424,16.073,16.073,0,0,1-4.671,3.031,48.808,48.808,0,0,1-5.178,1.825c-1.251.389-2.544.791-3.8,1.261-1.91.717-3.775,1.611-5.579,2.476a49.307,49.307,0,0,1-7.649,3.154c-4.038,1.151-9.5,1.166-12.85-2.171,3.781-7.014,8.366-12.822,14.143-15.983-3.773,1.439-6.809,4.295-9.53,7.2-6.437,7.161-10.008,16.246-13.158,25.21q-.635,1.833-1.242,3.674c-1.3-.086-2.593-.2-3.882-.364a131.933,131.933,0,0,1,6.765-17.88c.623.185,1.259.362,1.924.522a.518.518,0,0,0,.116.014.5.5,0,0,0,.23-.945c-.573-.3-1.1-.613-1.614-.939,2.371-4.8,4.861-9.928,8.608-13.7a19.994,19.994,0,0,0-3.284,3.358l0-.01a.715.715,0,0,0,.188-.573.5.5,0,0,0-.412-.464.5.5,0,0,0-.546.295l-.067.157a2.756,2.756,0,0,1-.273.179.493.493,0,0,0-.148.087c-.081.045-.175.1-.283.154a.5.5,0,0,0-.588.223l-.063.107c-.183.09-.389.189-.622.3a.5.5,0,0,0-.226.213,1.1,1.1,0,0,0,.245,1.339.541.541,0,0,0,.142.085c0,.025,0,.051,0,.077a.5.5,0,0,0,.375.474.528.528,0,0,0,.125.015.491.491,0,0,0,.28-.1c-.579.849-1.141,1.706-1.7,2.549-.96,1.5-1.852,3.033-2.7,4.592a17.978,17.978,0,0,1-3.85-3.765c6.383-8.215,14.568-17.878,23.12-20.216-9.21,1.91-17.247,10.432-23.956,19a19.406,19.406,0,0,1-2.463-6v0a53.28,53.28,0,0,0,11.955-9.13,50.974,50.974,0,0,1-12.164,8.1,20.729,20.729,0,0,1,.475-9.737q3.776-2.049,7.713-3.887c1.85-.893,3.869-1.757,5.965-2.58a.5.5,0,0,0-.021.546.5.5,0,0,0,.624.2,10.415,10.415,0,0,0,2.8-2.018c1.252-.448,2.514-.879,3.772-1.288,2.874-.791,5.855-1.923,8.853-1.46-2.6-.694-5.356,0-7.937.5-1.281.285-2.55.617-3.813.972-.008-.016-.01-.033-.019-.048a.5.5,0,0,0-.6-.213l-2.671.951a.5.5,0,0,0-.33.423q-1.845.612-3.662,1.3l.1-.082a.5.5,0,0,0-.184-.86,1.357,1.357,0,0,0-.216-.042.483.483,0,0,0-.137-.164.507.507,0,0,0-.47-.079,4.8,4.8,0,0,0-1.577.954,38.989,38.989,0,0,0-8.281,1.272,36.761,36.761,0,0,1,2.682-3.713c.654-.017,1.306-.051,1.958-.092l-.343,1.148a.5.5,0,0,0,.235.579.5.5,0,0,0,.616-.1c.57-.634,1.171-1.241,1.794-1.826a41.115,41.115,0,0,0,7.6-1.549,45.328,45.328,0,0,1-6.927.936,30.646,30.646,0,0,1,6.55-4.44l-.939,1.115a.5.5,0,0,0,.555.791l18.34-6.725a.5.5,0,0,0-.047-.954,30.845,30.845,0,0,0-14.695-.165,4.91,4.91,0,0,1,1.978-1.534.5.5,0,0,0-.326-.943l-1.379.376,1.978-1.343a.5.5,0,0,0,.189-.584.493.493,0,0,0-.519-.327,6.7,6.7,0,0,0-2.871,1.208c-.481.3-.979.6-1.56.889a27.211,27.211,0,0,0-8.817,6.987,59.43,59.43,0,0,0-9.773,5.253c-.088-.01-.176-.023-.264-.033a6.434,6.434,0,0,1,2.145-6.446,6.648,6.648,0,0,0,1.68-2.59,12.436,12.436,0,0,1,.845-1.651.5.5,0,0,0-.055-.616.5.5,0,0,0-.611-.092,22.6,22.6,0,0,0-5.81,4.723.5.5,0,0,0-.061.084,59.7,59.7,0,0,0-2.983,5.915c-2.993-.468-5.991-1.013-9.01-1.535q-5.532-1.026-11.061-2.079c0-.151.007-.3.009-.454,0-.12,0-.241,0-.362,0-.2,0-.408-.022-.583,0-.037-.014-.076-.019-.114a17.914,17.914,0,0,0-1.566-6.65l1.206.217a.5.5,0,0,0,.413-.113.5.5,0,0,0,.175-.392,105.416,105.416,0,0,1,2.288-24.628.5.5,0,0,0-.926-.349,35.409,35.409,0,0,0-4.436,18.788A8.269,8.269,0,0,1,314.735,195.95ZM305,76.766a.512.512,0,0,0-.1-.132c6.082,1.182,12.762,2.953,18.392,5.822a50.979,50.979,0,0,0-17.636-1.3c.287-.247.57-.5.869-.729a.5.5,0,0,0-.438-.88,15.577,15.577,0,0,0-4.52,2.144c-.078.013-.157.023-.235.036a12.128,12.128,0,0,1,3.529-4.33A.5.5,0,0,0,305,76.766Zm-6.3,3.8a13.868,13.868,0,0,1,.864-4.865l.1.014c1.493.233,3.076.509,4.694.816A11.829,11.829,0,0,0,298.7,80.57ZM506.265,93.755q-.9-.51-1.819-.967a35.809,35.809,0,0,0,1.869-9.193A32.261,32.261,0,0,1,506.265,93.755ZM502.8,72.386c-.535-.267-1.068-.538-1.614-.782.43.01.857.025,1.285.038C502.589,71.888,502.7,72.135,502.8,72.386ZM329.284,263.217a18.952,18.952,0,0,1,10.374.2q-1.1,1.561-2.2,3.13A53.973,53.973,0,0,1,329.284,263.217Zm3.768,15.256a14.915,14.915,0,0,0-3.4,5.539c-.657-.349-1.28-.695-1.885-1.037q1.683-2.441,3.362-4.884A9.656,9.656,0,0,1,333.052,278.473ZM320.9,235.98q-1.245.6-2.468,1.2a27.109,27.109,0,0,1-.64-5.852,61.364,61.364,0,0,1,1.313-7.963c.307-1.5.6-2.959.842-4.3a18.314,18.314,0,0,0,.383-2.207q3.094.583,6.189,1.181c4.436.819,8.949,1.7,13.48,2.32a29.23,29.23,0,0,0-1.426,4.814,22.7,22.7,0,0,0-.409,3.281q-.735.279-1.477.567a33.3,33.3,0,0,1-2.333-6.983.5.5,0,0,0-.709-.331c-1.21.6-1.2,2.133-1.1,3.233.069.689.081,1.887-.613,2.159-.641.251-1.426-.509-1.649-.748a19.259,19.259,0,0,1-2.3-3.356c-.624-1.043-1.4-2.34-2.446-3.885a.5.5,0,0,0-.914.263,34.089,34.089,0,0,0,2,13.923c-1.762.8-3.511,1.621-5.233,2.447a.461.461,0,0,0-.489.235Zm.006,1.552a39.375,39.375,0,0,1-1.016,5.273c-.421-1.272-.826-2.751-1.169-4.256Q319.814,238.038,320.9,237.532Zm17.328-6.081a11.469,11.469,0,0,1-.867-1.214c.259-.107.52-.22.779-.326Q338.159,230.691,338.233,231.451Zm-11.014,3.187a17.569,17.569,0,0,0,2.637,4.008.5.5,0,0,0,.855-.468c-.131-.463.436-1.478.893-2.293.216-.386.428-.764.6-1.13a33.508,33.508,0,0,0,1.741,3.548c-3.7,2.547-7.305,5.234-10.843,8.02,0-.105.008-.212.012-.317.12-3.125.221-6.093-.949-9.06Q324.7,235.775,327.219,234.638Zm7.463,4.933a48.655,48.655,0,0,0,3.882,5.567c-4.568,2-9.227,3.858-13.937,5.679l-1.493.339c-.083-.977-.1-1.946-.082-2.906Q328.731,243.719,334.682,239.571Zm-8.761,12.008c4.519-1.625,9.11-3.409,13.522-5.4a17.728,17.728,0,0,0,4.988,4.254.5.5,0,0,0,.559-.816,6.981,6.981,0,0,1-1.352-2l-.012-.024c1.776,1.193,3.469,2.291,5.208,3.274-2.085,2.781-4.024,5.466-5.81,7.818q-1.34,1.863-2.666,3.737a24.793,24.793,0,0,0-8.084-4.318l.008-.007a.5.5,0,0,0-.138-.823l-6.522-2.9A6.285,6.285,0,0,0,325.921,251.579Zm30.833-26.335q-3.454,1.571-6.8,3.33c-.012-.011-.018-.026-.031-.036a.5.5,0,0,0-.691.059c-.194.221-.363.427-.524.628-.735.4-1.462.806-2.189,1.215.007-.081.013-.161.021-.241a36.1,36.1,0,0,1,2.149-4.3,60.755,60.755,0,0,1,6.106-1.728c.912-.166,1.793-.35,2.684-.464a4.779,4.779,0,0,0-.783.946A.5.5,0,0,0,356.754,225.244Zm-9.49,6.41a11.962,11.962,0,0,0-.4,1.382c-.072.3-.146.6-.24.93-.072-.622-.125-1.244-.145-1.871C346.742,231.947,347,231.8,347.264,231.654Zm-1.893,36.768a4.46,4.46,0,0,0-.879-.147,53.719,53.719,0,0,1-5.668-1.316c2.757-3.946,5.545-7.87,8.408-11.74.885-1.122,1.837-2.366,2.846-3.683a36.23,36.23,0,0,0,5.371,2.3,108.18,108.18,0,0,0-7.046,18.039,63.124,63.124,0,0,1-7.018-1.446,4.088,4.088,0,0,1,3-1.154q.385.066.773.126a.508.508,0,0,0,.566-.389A.5.5,0,0,0,345.371,268.422Zm-4.559,15.939q2.25-.589,4.514-1.095-.654,2.68-1.268,5.37a16.9,16.9,0,0,0-7.5-2.4A25.845,25.845,0,0,1,340.812,284.361Zm6.018-1.409c1.287-.275,2.575-.539,3.865-.78q-1.344,4.629-2.528,9.3c-1.035-.821-1.994-1.514-2.884-2.09Q346.026,286.151,346.83,282.952Zm5.867-62.626q1.038-1.188,2.176-2.281l-.685,2.29C353.691,220.339,353.194,220.335,352.7,220.326Zm-36.391,33.482c-.023.071-.041.143-.066.213l-.014.021-.363.139C316.01,254.056,316.159,253.933,316.306,253.808Zm-1.9,15.634c.025-.015.055-.015.078-.035,3.136-2.738,4.5-2.588,6.74-1.078a14.858,14.858,0,0,0-5.806,7.633.5.5,0,0,0,.74.58,17.919,17.919,0,0,1,13.027-2.262l-3.815,3.91a.5.5,0,0,0,.575.8,9.63,9.63,0,0,1,3.756-.934q-1.434,2.2-2.84,4.407a24.718,24.718,0,0,0-8.368-3.115,33.726,33.726,0,0,0-4.88-.511A50.113,50.113,0,0,1,314.4,269.442Zm29.856,49.422c-.165,1.09-.343,2.154-.55,3.171-.306.676-.634,1.333-.985,1.962-2.116,1.793-4.786,3.695-5.482,3.695h-.008a4.405,4.405,0,0,1-1.861-1.141c-.988-.811-2.009-1.651-3.026-1.315a5.32,5.32,0,0,0-2.251,1.957,5.423,5.423,0,0,1-1.627,1.583c-1.058.5-2.2-.276-2.858-1.1a12.247,12.247,0,0,1-1.849-4.142,54.523,54.523,0,0,1-1.939-19.375,1.092,1.092,0,0,0-.773-1.208.907.907,0,0,0-1.048.633,36.25,36.25,0,0,0-1.62,19.365c.069.351.143.706.217,1.063.453,2.185.922,4.446.291,6.41a5.939,5.939,0,0,1-2.991,3.372c-3.912,2.066-8.74.7-11.737-3.333a13.973,13.973,0,0,1-2.174-5.761,1.955,1.955,0,0,0-1.827-1.813h-.034a2.041,2.041,0,0,0-1.858,1.989,36.867,36.867,0,0,0-.349,4.343,6.527,6.527,0,0,1-.622,3.427,2.016,2.016,0,0,1-2.083.671c-3.855-.648-6.595-5.8-7.309-10.55a38.83,38.83,0,0,1,.248-11.5,1.456,1.456,0,0,0-.939-1.723,1.164,1.164,0,0,0-1.385.823c-1.3,3.333-1.356,6.568-1.411,9.695a32.71,32.71,0,0,1-.566,6.638,5.911,5.911,0,0,1-.6,1.806,1.633,1.633,0,0,1-1.949.687,5.437,5.437,0,0,1-2.124-1.725c-4.912-5.816-6.92-15.746-4.9-24.085a34.482,34.482,0,0,1,8.04-11.558c1.312-1.277,4.272-2.808,6.884-4.158.8-.415,1.5-.779,2.13-1.12a55.6,55.6,0,0,1,8.742-2.425c6.513-1.212,14.922-2.276,22.183.265a16.47,16.47,0,0,1,2.66,1.178c-1.048,1.689-2.089,3.384-3.109,5.092-1.151,1.918-2.571,4.293-3.527,5.976q2.208-3.187,4.423-6.368,1.485-2.115,2.956-4.239a6.862,6.862,0,0,1,2.4,2.644l.14.3a3.329,3.329,0,0,0,.988,1.433c.983.705,2.143.216,3.076-.179l.164-.068c3.665-1.53,7.48.389,10.681,2.736-1.8,8.34-3.315,16.743-4.47,25.2l-.045.328.514,0c.057-.273.112-.546.169-.818,1.689-7.788,3.264-15.825,5.015-23.812.183.145.365.29.543.435A21.667,21.667,0,0,1,347,296.271q-.413,1.765-.8,3.537c-.449,2.027-.982,4.506-1.347,6.4a.5.5,0,0,0-.365.5A62.225,62.225,0,0,1,344.261,318.864Zm2.6,2.5a21.494,21.494,0,0,0-1.42-14.9.5.5,0,0,0-.519-.266q1.19-4.031,2.406-8.051c.121-.359.242-.733.363-1.1a19.959,19.959,0,0,1,4.761,11.189C352.842,313.525,350.582,318.722,346.857,321.366Zm20.617-10.217c-.714-.965-1.4-1.95-2.035-2.963a.5.5,0,0,0-.922.241l-.141,2.722h-1.151a8.63,8.63,0,0,1-.664-7.8.5.5,0,0,0-.311-.681c-2.317-.7-4.3,1.225-5.938,3.2-.191.231-.393.448-.6.657a18.124,18.124,0,0,0-6.541-14.22c.984-3.247,2-6.765,3.094-10.414,8.486-1.5,17.012-2.381,25.345-3.224a.5.5,0,0,0,0-1l-18.974-1.906,6.129-2.553a.5.5,0,0,0,.292-.585.506.506,0,0,0-.537-.373,63.193,63.193,0,0,1-9.329.273,131.988,131.988,0,0,1,7.647-18.947,9.181,9.181,0,0,0,6.428,4.96,16.041,16.041,0,0,0,8.968-.95,56.084,56.084,0,0,0,5.224-2.316c.953-.462,1.906-.925,2.872-1.356,10.4-4.634,21.731-5.108,31.088-1.3a63.338,63.338,0,0,1,6.357,3.117,54.034,54.034,0,0,0,7.59,3.578,16.918,16.918,0,0,0,5.745,1.029,15.879,15.879,0,0,0,9-2.839c.87,1.667,1.7,3.306,2.519,4.852,1.177,2.375,2.327,4.763,3.468,7.156l-10.76,3.526a.5.5,0,0,0-.077.917l1.334.707-1.915-.17a.5.5,0,0,0-.526.629,4.755,4.755,0,0,0,1.872,2.6,8.116,8.116,0,0,1,.414.926l-3.75-2.068a.5.5,0,0,0-.667.7l.41.663a9.21,9.21,0,0,0-1.766-.836.5.5,0,0,0-.592.732,28.4,28.4,0,0,1,3.661,19.353.5.5,0,0,0,.817.466,9.167,9.167,0,0,0,2.768-9.188l7.389,5.294a.5.5,0,0,0,.541.027.5.5,0,0,0,.248-.482,16.53,16.53,0,0,0-4.355-9.607,20.084,20.084,0,0,0,5.471.55.5.5,0,0,0,.133-.975,21.741,21.741,0,0,1-5.148-2.429,16.107,16.107,0,0,0,4.833-.538c.868.054,1.736.09,2.606.09.706,0,1.412-.022,2.118-.058.308.67.618,1.34.925,2.01.834,1.819,1.726,3.8,2.512,5.542q-.891-2.508-1.824-5c-.329-.809-.673-1.676-1.034-2.59a40.772,40.772,0,0,0,6.356-.91.5.5,0,0,0,.128-.927,38.948,38.948,0,0,0-8.037-3.267,20.368,20.368,0,0,0,7.147-3.1c.573-.009,1.147-.008,1.719-.025a.481.481,0,0,0,.129-.039,151.683,151.683,0,0,1,5.881,14.662c-2.333.571-5.272,1.87-9.422,5.263-5.8,4.745-8.038,11.375-6.5,19.193Zm92.909,11.467a19.683,19.683,0,0,1-3.938-6.873,24.338,24.338,0,0,0,4.04,6.978C460.452,322.684,460.416,322.653,460.383,322.616Zm72.108,3.585a4.8,4.8,0,0,0-1.73-2.323.5.5,0,0,0-.763.273,15.66,15.66,0,0,1-1.969,4.79c-.024.034-.052.063-.077.1a1.664,1.664,0,0,1-.532-.532,5.881,5.881,0,0,1-.6-1.805,32.639,32.639,0,0,1-.568-6.638c-.056-3.128-.115-6.363-1.417-9.695a1.169,1.169,0,0,0-1.39-.822,1.455,1.455,0,0,0-.939,1.722,38.693,38.693,0,0,1,.249,11.5c-.717,4.753-3.468,9.9-7.34,10.551a2.038,2.038,0,0,1-2.1-.671,6.7,6.7,0,0,1-.624-3.513,36.742,36.742,0,0,0-.35-4.257,2.043,2.043,0,0,0-1.863-1.989h-.034a1.96,1.96,0,0,0-1.833,1.812,13.929,13.929,0,0,1-2.182,5.761c-3.009,4.031-7.857,5.4-11.789,3.333a5.958,5.958,0,0,1-3-3.371c-.631-1.964-.161-4.223.294-6.407.075-.358.149-.714.217-1.065a36.122,36.122,0,0,0-1.625-19.367.912.912,0,0,0-1.053-.632,1.093,1.093,0,0,0-.772,1.208,54.34,54.34,0,0,1-1.947,19.374,12.41,12.41,0,0,1-1.856,4.142c-.659.825-1.808,1.607-2.874,1.1a5.475,5.475,0,0,1-1.634-1.583,5.308,5.308,0,0,0-2.259-1.957c-1.02-.333-2.042.5-3.034,1.314a4.416,4.416,0,0,1-1.871,1.142c-.681.024-3.381-1.895-5.515-3.7-.352-.63-.681-1.286-.989-1.963-.208-1.016-.386-2.08-.551-3.169a62.058,62.058,0,0,1-.231-12.156.5.5,0,0,0-.946-.246,21.411,21.411,0,0,0-1.426,14.907c-3.742-2.643-6.014-7.842-5.617-13.136a20.525,20.525,0,0,1,7.641-14,23.265,23.265,0,0,1,6.642-4.064c2.765,8.487,5.028,17.208,7.205,25.843a223.738,223.738,0,0,0-5.833-25.75c-.046-.146-.094-.291-.14-.437a7.5,7.5,0,0,1,4.586.335l.165.069c.934.393,2.1.881,3.086.178a3.354,3.354,0,0,0,.99-1.429l.142-.307c1.178-2.429,3.89-3.609,5.827-4.284,7.293-2.543,15.736-1.476,22.276-.265.539.1,1.084.225,1.627.344,3.722,4.622,7.138,9.177,10.19,13.446,4.734,6.557,9.418,13.207,13.892,19.922A25.273,25.273,0,0,1,532.491,326.2Zm3.771-8.454q-5.556-9.844-11.958-19.179c-2.939-4.19-6.345-8.828-10.127-13.617q2.544.661,5.129,1.595c.637.341,1.336.706,2.143,1.121,2.623,1.351,5.6,2.881,6.913,4.159a34.539,34.539,0,0,1,8.053,11.5A30.542,30.542,0,0,1,536.262,317.747Z"/></svg>