<svg id="a9f9f20b-4e49-405a-ba35-9a03f25d8e86" data-name="Layer 2" xmlns="http://www.w3.org/2000/svg" viewBox="0 0 730.353 512.42" style="fill: #215342;" height="212" width="315"><path d="M338.239,215.009a23.586,23.586,0,0,0-17.055,11.277c-3.123,5.423-3.81,11.931-4.417,17.673a.5.5,0,0,0,.794.455c1.411-1.04,3.353-.895,5.389-.636l10.846,1.377a26.158,26.158,0,0,0,3.31.27,8.462,8.462,0,0,0,4.376-1.03.5.5,0,0,0-.256-.93h-.007c-3.509.053-7.137.108-10.468-1.11-3.59-1.313-6.154-4.137-6.531-7.194a7.9,7.9,0,0,1,.087-2.24,9.391,9.391,0,0,0,.388,1.33,14.413,14.413,0,0,0,4.395,6.093.5.5,0,0,0,.813-.437,3.568,3.568,0,0,0-.931-1.83,6.2,6.2,0,0,1-.528-.737,2.586,2.586,0,0,1,.673-3.212,2.035,2.035,0,0,1,.28-.168,15.249,15.249,0,0,0,6.012,2.708,12.14,12.14,0,0,0,2.636.323,6.3,6.3,0,0,0,2.95-.653,8.645,8.645,0,0,0,2.815-2.647,31.93,31.93,0,0,0,2.914-4.68,6.531,6.531,0,0,0,.851-2.693,2.826,2.826,0,0,0-1.422-2.673,4.471,4.471,0,0,0-2.3-.254c-.95.064-1.55.07-1.893-.363-.388-.489-.16-1.155.262-2.193a5.172,5.172,0,0,0,.534-2.181,19.072,19.072,0,0,1,5.615.818c2.054.632,3.329,1.528,3.9,2.737a6.408,6.408,0,0,1,.1,3.971,29.253,29.253,0,0,1-6.31,12.857,16.07,16.07,0,0,1-3.125,2.863.5.5,0,0,0,.5.862,22.383,22.383,0,0,0,12.4-17.187l.046-.4a7.682,7.682,0,0,1,.385-1.961,2.15,2.15,0,0,1,1.388-1.376.5.5,0,0,0,.224-.869A25.47,25.47,0,0,0,338.239,215.009Zm-8.289,11.344a2.487,2.487,0,0,1-1.376-1.326c-.015-.032-.021-.065-.034-.1a19.5,19.5,0,0,1,5.153-4.038,3.857,3.857,0,0,0-.185.566,7.545,7.545,0,0,0-.16,1.678,5.52,5.52,0,0,1-.195,1.678,2.61,2.61,0,0,1-3.2,1.54Z"/><path d="M269.546,241.061a.5.5,0,0,0,.784-.476c-.825-5.98-1.761-12.758-5.115-18.314a23.823,23.823,0,0,0-17.651-11.18,25.181,25.181,0,0,0-19.631,6.94.5.5,0,0,0,.257.854,2.221,2.221,0,0,1,1.46,1.4,8.34,8.34,0,0,1,.464,2.038l.063.424a23.366,23.366,0,0,0,13.156,17.513.5.5,0,0,0,.482-.871,16.473,16.473,0,0,1-3.266-2.885,31.081,31.081,0,0,1-6.86-13.236,6.964,6.964,0,0,1-.046-4.181c.531-1.291,1.787-2.275,3.842-3.011a18.619,18.619,0,0,1,4.926-1.028,6.673,6.673,0,0,0,.522,1.58c.419.976.646,1.6.269,2.052-.348.416-.957.408-1.917.349a4.684,4.684,0,0,0-2.3.24,2.725,2.725,0,0,0-1.439,2.58,6.033,6.033,0,0,0,.861,2.59,30.31,30.31,0,0,0,2.936,4.473,8.529,8.529,0,0,0,2.832,2.528,6.606,6.606,0,0,0,2.959.622,12.833,12.833,0,0,0,2.648-.309,14.577,14.577,0,0,0,7.238-3.607,2.27,2.27,0,0,1,1.214,3.286,5.691,5.691,0,0,1-.534.7,3.353,3.353,0,0,0-.954,1.768.5.5,0,0,0,.5.552.5.5,0,0,0,.3-.1,13.845,13.845,0,0,0,4.476-5.828c.023-.056.046-.126.069-.187a9.164,9.164,0,0,1,.389,3.314c-.269,3.221-2.759,6.274-6.342,7.778-3.317,1.392-6.987,1.465-10.536,1.535a.5.5,0,0,0-.237.935,7.984,7.984,0,0,0,4,.931,23.019,23.019,0,0,0,3.806-.41l10.911-1.829C266.124,240.246,268.081,240.024,269.546,241.061ZM256.7,220.546a2.443,2.443,0,0,1-1.406,1.309,2.678,2.678,0,0,1-3.24-1.461,5.035,5.035,0,0,1-.193-1.588,6.951,6.951,0,0,0-.161-1.614,3.628,3.628,0,0,0-.2-.564,19.541,19.541,0,0,1,5.33,3.536A2.473,2.473,0,0,1,256.7,220.546Z"/><path d="M314.6,244.179a.5.5,0,0,0-.1-.437.511.511,0,0,0-.412-.177,4.339,4.339,0,0,0-3.11,1.64,3.8,3.8,0,0,0-.863,2.944,126.1,126.1,0,0,1,1.121,31.421.5.5,0,0,0,.4.535.563.563,0,0,0,.1.01.5.5,0,0,0,.476-.347c1.3-4.041,6.755-6.8,11.674-5.912a.5.5,0,0,0,.426-.862C315.9,265.33,312.185,254.289,314.6,244.179Z"/><path d="M256.665,181.185a.506.506,0,0,0,.27.079.5.5,0,0,0,.394-.191c3.16-4.028,7.323-7.254,11.35-10.373q.929-.718,1.852-1.44c4.388-3.438,9.316-7.569,12.272-13.107,3.181-5.958,3.239-12.845.146-17.543a.5.5,0,0,0-.911.193,50.693,50.693,0,0,0-.524,6.361,44.44,44.44,0,0,1-.412,5.3c-1.076,6.591-6.381,11.838-10.882,15.672q-1.043.886-2.1,1.767c-4.406,3.677-8.962,7.479-11.626,12.635A.5.5,0,0,0,256.665,181.185Z"/><path d="M333.174,206.325c-.3.182-.6.372-.9.563a9.927,9.927,0,0,1-4.522,1.948,14.246,14.246,0,0,0-1.527-11.544.5.5,0,0,0-.922.208,56.177,56.177,0,0,1-3.3,13.583c-.189.5-.385,1-.583,1.5-1.5,3.817-3.048,7.765-1.984,11.727a.5.5,0,0,0,.483.37h.031a.5.5,0,0,0,.464-.431,12.023,12.023,0,0,1,3.412-6.475,29.663,29.663,0,0,1,6.08-4.572,44.281,44.281,0,0,1,11.62-5.379,19.63,19.63,0,0,1,12.435.482c3.687,1.543,6.684,2.937,8.9,5.618a.5.5,0,0,0,.806-.589,22.411,22.411,0,0,0-30.494-7.009Z"/><path d="M354.435,156.6a15.505,15.505,0,0,0,2.333,2.06l3.768,2.9a28.636,28.636,0,0,0,5.079,3.358,10.958,10.958,0,0,0,4.6,1.124,7.948,7.948,0,0,0,1.534-.147.5.5,0,0,0,.14-.932c-1.256-.673-2.483-1.412-3.684-2.2a19.3,19.3,0,0,0,2.531-.5c3.069-.8,4.983-.6,6.036.638a5.875,5.875,0,0,1,.877,1.669,9.539,9.539,0,0,0,.67,1.431,6.433,6.433,0,0,0,4.331,2.741,10.53,10.53,0,0,0,1.326.164c.888.572,1.828,1.082,2.758,1.582,2.452,1.317,4.769,2.561,5.947,4.829a12.856,12.856,0,0,1,1,3.2,19.9,19.9,0,0,0,.656,2.437c.678,1.88,2.3,3.757,4.345,3.757a3.565,3.565,0,0,0,.51-.038c2.142-.323,3.348-2.573,3.433-4.629a14.824,14.824,0,0,0-.439-3.609c-.132-.647-.27-1.316-.351-1.97a16.289,16.289,0,0,1,1.959-9.262,49.754,49.754,0,0,1,5.553-8.062.5.5,0,0,0-.383-.81,8.537,8.537,0,0,0-6.546,3.388,20.567,20.567,0,0,0-3.245,6.557l-.358,1.081a31.3,31.3,0,0,1-2.206,5.512c-.369.661-.707.987-1.062,1.028-.443.05-.874-.38-1.082-.829a5.584,5.584,0,0,1-.327-1.05c-.075-.3-.15-.6-.254-.9a9.014,9.014,0,0,0-3.016-3.627c-.263-.222-.524-.443-.777-.669-.74-.659-2.346-2.334-2.028-4.061l.2-.054a19.646,19.646,0,0,0,11.9-9.512,38.13,38.13,0,0,0,2.812-7.826c.331-1.188.674-2.416,1.062-3.6a24.377,24.377,0,0,1,1.95-4.5,22.268,22.268,0,0,1,7.376-5.468c.859-.388,1.767-.731,2.644-1.063a25.744,25.744,0,0,0,4.817-2.217c2.118-1.351,4.442-4.032,4.023-7.138a.5.5,0,0,0-.933-.173,12.91,12.91,0,0,1-5.427,4.913c-1.114.609-2.3,1.149-3.44,1.671s-2.351,1.073-3.493,1.7A27.482,27.482,0,0,0,397.806,148c-1.808,3.357-3.912,6.483-7.031,8.484-.336.216-.484.231-.551.207-.131-.049-.193-.392-.14-.779a16.409,16.409,0,0,1,2.485-5.868,18.109,18.109,0,0,0,2.582-6.006c.587-3.534-.927-7.043-2.484-10.011a19.34,19.34,0,0,0-5.04-6.656,11.535,11.535,0,0,0-12.8-.529c-.175.111-.347.227-.519.344a6.334,6.334,0,0,1-1.544.856,1.627,1.627,0,0,1-1.755-.34c-.424-.554-.2-1.432.1-2.3l3.36-9.661a.5.5,0,0,0-.892-.437c-3.08,4.728-6.572,10.087-7.755,16.076a6.988,6.988,0,0,0,.011,3.518,3.2,3.2,0,0,0,2.848,2.324h.018a4.581,4.581,0,0,0,1.809-.489,3.406,3.406,0,0,1,1.516-.4c1.308.106,1.9,1.872,2.164,3.334a11.71,11.71,0,0,1,.224,4.539,3.633,3.633,0,0,1-2.654,2.9c-2.075.32-3.748-1.995-4.56-3.4-4.218-7.312-5.692-16.038-3.943-23.34a.5.5,0,0,0-.952-.3,30.234,30.234,0,0,0-.615,20.221c.263.815.562,1.631.862,2.449,1.027,2.8,2.089,5.7,1.581,8.556a16.365,16.365,0,0,1-.809,2.7,22.2,22.2,0,0,0-.72,2.241,8.286,8.286,0,0,0-.226,2.106,50.79,50.79,0,0,1-5.464-5.565,14.333,14.333,0,0,1-2.846-4.61c-.127-.39-.22-.794-.309-1.173-.238-1.007-.442-1.877-1.133-2.122a1.648,1.648,0,0,0-1.467.424.5.5,0,0,0-.194.411,22.286,22.286,0,0,0,1.5,7.405A11.555,11.555,0,0,0,354.435,156.6Z"/><path d="M363.01,112.216a17.131,17.131,0,0,0,.18,3.062,19.359,19.359,0,0,0,2.3,5.665.5.5,0,0,0,.44.264.493.493,0,0,0,.155-.025.5.5,0,0,0,.341-.542,16.4,16.4,0,0,1,2.585-11.171,3.321,3.321,0,0,1,1.788-1.426.842.842,0,0,1,.676.134,2.239,2.239,0,0,1,.351.338,2.457,2.457,0,0,0,.726.608,1.917,1.917,0,0,0,2.282-.694,4.932,4.932,0,0,0,.737-1.96A43.542,43.542,0,0,1,385.261,87.9a75.91,75.91,0,0,1,16.131-13.744.5.5,0,0,0-.436-.89,62.532,62.532,0,0,0-38.062,36.982.5.5,0,0,0,.025.4A6.444,6.444,0,0,1,363.01,112.216Z"/><path d="M402.525,130.768l.04,0a.5.5,0,0,0,.484-.371c1.013-3.8,3.526-6.828,6.186-10.029,2.345-2.822,4.77-5.739,6.042-9.225,1.933-5.294.958-10.757-.939-13.209a.5.5,0,0,0-.573-.162.5.5,0,0,0-.322.5c.376,5.731-3.025,11.25-5.759,15.685-3.29,5.338-6.2,10.606-5.616,16.36A.5.5,0,0,0,402.525,130.768Z"/><path d="M337.554,164.418c.563.323,1.124.646,1.678.98,2.106,1.27,4.677,3.067,5.884,5.722a.5.5,0,0,0,.455.293.507.507,0,0,0,.086-.007.5.5,0,0,0,.412-.452c.183-2.2-.938-4.569-3.155-6.667-.76-.718-1.586-1.372-2.385-2a25.628,25.628,0,0,1-3.025-2.663c-1.786-1.949-2.518-4.215-1.956-6.063.518-1.707,2.047-2.933,3.524-4.117.228-.183.453-.364.675-.546a29.007,29.007,0,0,0,9.832-15.96.5.5,0,0,0-.935-.337c-3.9,7.676-10.408,14.207-19.352,19.413a.506.506,0,0,0-.233.306c-.829,3.191.96,6.35,2.912,8.241A27.521,27.521,0,0,0,337.554,164.418Z"/><path d="M330.017,170.76c3.785,2.65,7.7,5.39,10.345,9.167a.5.5,0,0,0,.871-.479c-2.034-4.89-6.072-8.456-9.977-11.9a63.888,63.888,0,0,1-6.3-6.1,30.4,30.4,0,0,1-6.817-24.514.5.5,0,0,0-.711-.532c-1.73.839-2.853,2.941-3,5.624h0c-.453,8.011,1.629,15.289,5.861,20.493C322.988,165.837,326.561,168.34,330.017,170.76Z"/><path d="M308.233,146.069q-.012,1.011-.018,2.016c-.034,6.187.434,12.6,4.049,17.6,2.2,3.038,5.331,5.181,8.365,7.253,1.148.786,2.337,1.6,3.448,2.442A40.377,40.377,0,0,1,338,195.014a.5.5,0,0,0,.476.348.5.5,0,0,0,.136-.019.5.5,0,0,0,.351-.6,45.2,45.2,0,0,0-13.7-22.836c-.943-.842-1.94-1.659-2.9-2.449a33.69,33.69,0,0,1-6.853-6.81c-3.168-4.695-3.719-10.571-4.04-16.684l-.015-.285c-.31-5.89-.629-11.98-4.235-15.778a.5.5,0,0,0-.827.532C308.356,135.3,308.294,140.777,308.233,146.069Z"/><path d="M300.821,160.768c.406,1.089.826,2.215,1.158,3.339,1.8,6.085,1.2,12.647.619,18.994q-.1,1.163-.207,2.319c-.63,7.352-.723,15.035,2.831,21.416a.5.5,0,0,0,.437.256.493.493,0,0,0,.176-.032.5.5,0,0,0,.313-.573,60.136,60.136,0,0,1,1.06-29.364,89.77,89.77,0,0,0,10.114,5.166.505.505,0,0,0,.5-.06.5.5,0,0,0,.193-.466c-.27-2.023-1.782-3.792-4.622-5.408l-.789-.442c-1.716-.952-3.489-1.936-4.448-3.549a10.7,10.7,0,0,1-1.114-3.889c-.112-.7-.226-1.429-.4-2.134a23.182,23.182,0,0,0-2.111-4.964,32.946,32.946,0,0,1-1.565-3.3c-1.807-4.695-1.278-9.9-.522-14.379l.123-.717c.463-2.678.71-4.357-.015-5.082a1.14,1.14,0,0,0-1.059-.3.5.5,0,0,0-.4.363c-1.5,5.616-3.206,11.981-1.781,18.146A37.769,37.769,0,0,0,300.821,160.768Z"/><path d="M278.63,172.467c-3.939,3.375-8.01,6.865-10.115,11.636a.5.5,0,0,0,.7.641,12.269,12.269,0,0,0,2.944-2.757c1.526-1.737,3.245-3.693,5.728-4.671.409,1.6.18,4.918-.007,7.636a26.481,26.481,0,0,0-.088,5.4.5.5,0,0,0,.9.173c1.334-2,1.369-4.551,1.4-7.02.014-.942.028-1.917.118-2.82.274-2.78.863-6.293,2.989-8.806a2.452,2.452,0,0,1,1.247-.923.811.811,0,0,1,.948.409,1.622,1.622,0,0,1-.138.841c-.035.1-.069.2-.1.308a1.575,1.575,0,0,0,.568,1.892,1.1,1.1,0,0,0,.939.054,2.521,2.521,0,0,0,1.234-1.473l2.571-6.895c1.189-3.186,2.418-6.48,2.51-10a31.416,31.416,0,0,0-.448-5.226c-.138-.962-.279-1.957-.364-2.933a26.3,26.3,0,0,1,2.647-13.974.5.5,0,0,0-.806-.571,13.891,13.891,0,0,0-3.936,7.738,63.918,63.918,0,0,0-.08,6.987c.11,4.427.215,8.609-1.324,12.533C286.778,165.483,282.636,169.034,278.63,172.467Z"/><path d="M289.05,184.336a27.663,27.663,0,0,0,2.435,16.035,41,41,0,0,0,9.856,12.928.5.5,0,0,0,.761-.632,91.434,91.434,0,0,1-7.745-14.473c-2.223-5.723-2.924-11.079-2.083-15.921a45.683,45.683,0,0,1,2.469-8.061c.352-.938.7-1.877,1.033-2.821,1.119-3.2,2.307-7.411,1.548-11.551a.5.5,0,0,0-.45-.407.488.488,0,0,0-.512.327,17.985,17.985,0,0,0-.575,2.153c-.123.545-.27,1.19-.472,1.992a92.982,92.982,0,0,1-2.908,9.006A64.819,64.819,0,0,0,289.05,184.336Z"/><path d="M232.07,152.049A26.1,26.1,0,0,0,231,147.938a21.607,21.607,0,0,1-1.1-4.511,22.012,22.012,0,0,1,1.209-7.847c.238-.855.477-1.709.682-2.564,1.84-7.672.823-15.556-2.79-21.631a.5.5,0,0,0-.881.472,22.215,22.215,0,0,1,1.459,12.449,64.19,64.19,0,0,1-1.431,6.515c-.517,2.016-1.051,4.1-1.388,6.2l-.108.7c-.322,2.11-.655,4.292-2.117,5.641a4.3,4.3,0,0,1-3.616.964,5.439,5.439,0,0,1-3.856-2.553c-1.382-2.439-.824-5.963,1.325-8.379a5.907,5.907,0,0,1,3.134-1.969,3.168,3.168,0,0,1,3.142,1.107.5.5,0,0,0,.4.215.49.49,0,0,0,.408-.194c2.564-3.322,1.2-7.305-4.4-12.914a.5.5,0,0,0-.83.5c1.362,4.314,1.019,5.734-.093,6.845a5.047,5.047,0,0,1-2.032,1.109,10.51,10.51,0,0,0-3.279,1.751c-4.383,3.5-4.811,8.28-5.017,10.578a9.163,9.163,0,0,1-.107.924c-.111.483-.359,1.295-.787,1.3h0c-1.5,0-4.315-4.847-6.53-9.5-.039-.156-.081-.312-.118-.468-.127-.528-.25-1.058-.373-1.59-.811-3.5-1.651-7.12-3.606-10.212-2.222-3.511-5.67-6.012-9-8.431-3.755-2.723-7.3-5.3-9.29-9.193a8.269,8.269,0,0,1-.564-5.876.5.5,0,0,0-.948-.3c-1.524,3.371-.862,7.76,1.771,11.739a41.578,41.578,0,0,0,5.339,6.139c.884.891,1.8,1.813,2.651,2.751a42.424,42.424,0,0,1,7.8,12.289c.351.845.675,1.7,1,2.563.55,1.458,1.118,2.952,1.817,4.385.328.964.695,1.951,1.147,3,.414.953.851,1.9,1.29,2.849,1.581,3.423,3.215,6.964,3.6,10.7a1.267,1.267,0,0,1-.118.892c-.254.281-.9.063-1.4-.258a14.265,14.265,0,0,1-6.214-9.046.5.5,0,0,0-.989.1c.033,4.378.882,7.827,2.6,10.545a10.892,10.892,0,0,0,7.739,5.156,50.664,50.664,0,0,0-5.226,5.29c-.554.651-1.213,1.346-1.9,1.278-.661-.06-1.126-.8-1.243-1.508a7.242,7.242,0,0,1-.024-1.57c.021-.372.041-.745.029-1.117-.121-3.616-3.11-6.162-4.883-7.358-1.076-.727-2.229-1.352-3.344-1.956a30.6,30.6,0,0,1-4.086-2.5,27.78,27.78,0,0,1-4.585-5c-.407-.522-.8-1.027-1.182-1.494a.5.5,0,0,0-.868.451,21.62,21.62,0,0,0,7.919,11.52c.567.421,1.156.813,1.744,1.205a26.937,26.937,0,0,1,2.566,1.86,7.181,7.181,0,0,1,2.609,4.105,10.174,10.174,0,0,1-.91,4.811l-.152.424c-.646,1.825-1.207,3.948-.457,5.851a4.056,4.056,0,0,0,2.782,2.368,3.316,3.316,0,0,0,.766.092,2.622,2.622,0,0,0,1.783-.665,5.024,5.024,0,0,0,1.269-2.465l.071-.24a18.2,18.2,0,0,1,5.922-8.817,36.781,36.781,0,0,1,4.113-2.751c.915-.554,1.862-1.127,2.763-1.745a19.394,19.394,0,0,0,2.692-2.194,9.389,9.389,0,0,1,4.7-.9,13.1,13.1,0,0,1,3.333,1.077c1.738.736,3.539,1.5,5.432.989C231.319,159.088,232.536,155.239,232.07,152.049Z"/><path d="M222.275,118.98a.5.5,0,0,0,.48.359.491.491,0,0,0,.125-.015c1.93-.5,2.733-2.763,2.507-4.643a13.9,13.9,0,0,0-.7-2.729,15.434,15.434,0,0,1-.607-2.171,10.738,10.738,0,0,1,.991-5.566.5.5,0,0,0-.022-.42,53.018,53.018,0,0,0-26.584-23.909.5.5,0,0,0-.518.839A82.474,82.474,0,0,1,222.275,118.98Z"/><path d="M184.039,141.425c.489.787.958,1.587,1.427,2.387a44.675,44.675,0,0,0,3.714,5.655.5.5,0,0,0,.388.184.512.512,0,0,0,.23-.055.5.5,0,0,0,.252-.578,90.946,90.946,0,0,0-17.3-33.289.5.5,0,0,0-.842.524c.742,1.643,1.566,3.256,2.36,4.817a62.594,62.594,0,0,1,3.629,8.006c.324.94.317,1.574-.02,1.885a2.114,2.114,0,0,1-1.439.248l-.1,0a12.04,12.04,0,0,0-7.574,2.381.5.5,0,0,0,.569.822c2.313-1.481,5.648-1.364,8.493.3S182.636,139.168,184.039,141.425Z"/><path d="M244.625,208.145a25.861,25.861,0,0,1,7.928,1.676,38.133,38.133,0,0,1,10.161,5.081,17.629,17.629,0,0,1,6.431,8.121.5.5,0,0,0,.473.335h.045a.5.5,0,0,0,.449-.42c.45-2.842-.812-5.518-2.033-8.105-.162-.346-.325-.69-.483-1.033-1.7-3.7-1.884-6.386-.579-8.445l.127-.2a17.776,17.776,0,0,1,4.7-5.457.5.5,0,0,0-.383-.9,13.28,13.28,0,0,0-7.3,4.1,10.121,10.121,0,0,0-2.531,6.167,26.456,26.456,0,0,0-18.791-4.241c-6.965,1.057-13.375,5.038-16.729,10.391a.5.5,0,0,0,.721.668,56.063,56.063,0,0,1,8.195-5.321A20.738,20.738,0,0,1,244.625,208.145Z"/><path d="M250.7,180.983a.5.5,0,0,0,.141-.8c-2.872-2.946-7.611-2.061-11.079-.8a55.814,55.814,0,0,0-24.478,17.72,2.189,2.189,0,0,0-.61,1.819,1.378,1.378,0,0,0,.767.9,1.9,1.9,0,0,0,1.575.016,4.083,4.083,0,0,0,1.578-1.591A40.131,40.131,0,0,1,240,182.52c-3.776,4.116-7.64,8.352-11.346,12.637-3.351,3.871-6.913,8.447-6.782,13.769a.5.5,0,0,0,.5.488.494.494,0,0,0,.247-.066l.129-.072a4.9,4.9,0,0,0,2.292-2.591A55.251,55.251,0,0,1,250.7,180.983Z"/><path d="M261.315,303.844a.455.455,0,0,0,.116.014.5.5,0,0,0,.331-.125,1.938,1.938,0,0,1,1.165-.326l.2-.009a3.887,3.887,0,0,0,1.53-.279,1.61,1.61,0,0,0,.944-1.872,1.33,1.33,0,0,0-.71-.777,1.78,1.78,0,0,0-1.367-.05,3.322,3.322,0,0,0-1.352,1.114l-.146.021a1.409,1.409,0,0,0-1.135.557,1.682,1.682,0,0,0,.079,1.43A.5.5,0,0,0,261.315,303.844Z"/><path d="M262.857,298.337a.5.5,0,0,0,.332-.126,2.74,2.74,0,0,1,1.162-.472,7.334,7.334,0,0,0,.749-.215,3.359,3.359,0,0,0,1.927-2.255.5.5,0,0,0-.542-.626,5.233,5.233,0,0,0-4.084,2.988.5.5,0,0,0,.456.706Z"/><path d="M319.774,299.442a3.548,3.548,0,0,0-1.512-.434.493.493,0,0,0-.513.282,1.731,1.731,0,0,0-.079.218l-2.367,1.841a.5.5,0,0,0,.165.874,6.632,6.632,0,0,0,3.655.03,1.811,1.811,0,0,0,1.365-1.066A1.551,1.551,0,0,0,319.774,299.442Z"/><path d="M328.491,292.94a2.7,2.7,0,0,0,1.344.364.486.486,0,0,0,.478-.328.5.5,0,0,0-.146-.553,3.439,3.439,0,0,0-.6-.407,4.4,4.4,0,0,0,.258-.532.5.5,0,0,0-.476-.689l-1.623.043a.5.5,0,0,0-.456.67c.016.044.032.086.05.128l-.06.011a.5.5,0,0,0-.2.9A1.764,1.764,0,0,0,328.491,292.94Z"/><path d="M279.336,225.782a39.447,39.447,0,0,1-2.747-8.242,12.491,12.491,0,0,1,.816-4.611.5.5,0,0,0-.909-.409c-.147.265-3.566,6.552-.919,10.965a31.15,31.15,0,0,1,4.147,20.037.5.5,0,0,0,.325.535.486.486,0,0,0,.171.03.5.5,0,0,0,.421-.229c2.754-4.29,1.769-9.752.457-13.578C280.576,228.755,279.946,227.243,279.336,225.782Z"/><path d="M311.572,214.7a.5.5,0,0,0-.936.342,12.2,12.2,0,0,1,.455,4.65,38.8,38.8,0,0,1-3.47,7.971c-.741,1.4-1.507,2.856-2.164,4.33-1.65,3.7-3.1,9.057-.64,13.56a.5.5,0,0,0,.938-.267,30.5,30.5,0,0,1,5.858-19.587C314.673,221.526,311.7,214.979,311.572,214.7Z"/><path d="M721.153,428.687H608.046a199.275,199.275,0,0,0-22.528-26.871c-33.883-34.087-79.78-58.371-124.167-81.855-15.619-8.264-31.695-16.773-46.819-25.522-5.989-4.5-12.206-9-19.084-12.254-1.856-.878-3.784-1.675-5.648-2.445-2.056-.85-4.147-1.733-6.18-2.723l.329-.173c.731-.391,1.652-.9,2.244-1.24q-1.419.654-2.852,1.276c-1.123-.555-2.232-1.135-3.293-1.786-5.1-3.129-8.305-7.264-9.558-12.3a81.308,81.308,0,0,0,4.623-9.59c3.389-8.336,5.552-16.988,7.477-25.137l.072-.3a49.25,49.25,0,0,1,3.347-10.568,50.764,50.764,0,0,1,3.492-5.717c1.927-2.866,3.905-5.818,4.831-9.163a27.977,27.977,0,0,1,2.616-2.366c6.648-2.924,11.362-9.27,13.832-13.346,1.492-2.463,2.847-5.063,4.156-7.578,2.458-4.722,5-9.6,8.518-13.655.762-.878,1.6-1.769,2.415-2.63,3.431-3.635,6.977-7.394,6.985-12.349a18.708,18.708,0,0,0-1.74-6.824,24.205,24.205,0,0,1-1.566-5c-.58-3.681.65-7.414,1.839-11.023.243-.735.484-1.467.71-2.2,2.592-8.363,3.456-17.959,2.57-28.522q-.346-4.131-1.02-8.233L431.117,68.4c-.6-4.762-1.273-10.16-4.36-14.4-4.767-6.537-10.244-8.656-17.746-6.871-8.115,1.93-16.717,7.035-22.062,11.169-11.655,9.015-21.183,17.288-29.794,28.359C348,98.43,342.144,111.627,340.5,124.065a12.187,12.187,0,0,1-6.32.147,29.645,29.645,0,0,1-7.629-3.388c-.552-.311-1.105-.621-1.659-.922-2.94-1.6-6.437-3.19-10.149-2.865a21.108,21.108,0,0,0-2.239.357,9.182,9.182,0,0,1-8.45-1.709,16.2,16.2,0,0,0-4.614-2.078c-3.286-.715-6.434.629-9.48,1.929-2.627,1.121-5.342,2.282-8.079,2.063-.513-.041-1.049-.132-1.567-.22a6.3,6.3,0,0,0-6.774,1.916c-.383.341-.779.694-1.182.993-2.487,1.844-6.235,2.271-10.285,1.171-.235-.064-.47-.132-.7-.2a11.517,11.517,0,0,0-3.166-.6H258.2a4.957,4.957,0,0,0-1.182.141,8.46,8.46,0,0,0-3.843,1.006c-2.358-16-12.673-29.662-22.494-40.944-9.869-11.34-23.391-25.283-40.491-32.52-5.819-2.463-10.575-3.429-14.955-3.041-5.707.506-10.579,3.555-12.716,7.958-7.612,15.682-8.516,36.6-2.615,60.5.156.634.319,1.267.482,1.9a43.58,43.58,0,0,1,1.71,9.606,43.305,43.305,0,0,1-.654,7.27,53.072,53.072,0,0,0-.662,6.2c-.332,12.007,7.6,22.976,13.384,30.986,2.409,3.333,4.953,6.844,7.772,10.179v.01c.712,3.291,2.935,6.284,6.607,8.9,4.62,3.287,7.828,8.4,10.67,12.929,1.407,2.243,2.862,4.562,4.092,6.943a98.086,98.086,0,0,1,4.452,10.579l2.506,6.68a113.665,113.665,0,0,0,2.849,13.21,48.091,48.091,0,0,0,8.3,16.876c1.079,1.353,2.272,2.65,3.427,3.9.539.586,1.083,1.177,1.618,1.778.081.225.163.449.244.676a30.321,30.321,0,0,0,2.518,5.738,18.169,18.169,0,0,0,7.374,6.5c.411.553.8,1.122,1.166,1.7a28.564,28.564,0,0,1,1.435,7.344c-3.768-.488-7.591-.684-11.365-1.036-10.261-.953-20.465-2.411-30.68-3.755-1.742-.232-3.544-.472-5.252-.695q3.505.735,7.019,1.427a255.033,255.033,0,0,0,27.674,4.233c4.41.447,8.579.638,12.724,1.16l.034.391.088,1.03c.13,1.454.31,3.058.574,4.725-7.2.1-14.4.16-21.6.112a34.825,34.825,0,0,0-14.293,3.5c-2.965-.707-5.927-1.426-8.944-1.855a78.655,78.655,0,0,0-16.068-.06c-2.406.2-5.36.553-7.437.879q2.9-.2,5.806-.3a107.4,107.4,0,0,1,16.393.583,76.965,76.965,0,0,1,8.308,1.682c-6.7,3.4-12.931,8.23-18.4,12.543-2.6,2.13-8.34,7.112-9.108,8.083,3.754-3.038,7.416-5.839,11.354-8.678a152.19,152.19,0,0,1,15.653-10.066c.889-.473,1.794-.924,2.706-1.36.858.2,1.717.394,2.579.569,9.448,2.091,19.019,3.537,28.6,4.841.2.025.391.057.587.083a95.188,95.188,0,0,0-12.228,13.455c-.51.658-1.087,1.409-1.539,2.022q1.377-1.471,2.772-2.927c4.047-4.157,8.279-8.587,12.581-12.324,2.08.319,4.153.691,6.229,1.039.173.29.352.572.536.851-8.324,7.087-12.824,17.908-19.234,26.655-1.682,2.4-4.1,5.545-7.515,6.538-4.657,1.281-9.62.878-14.4,1.3-3.109.163-6.682.3-9.549.4,3.2.152,6.4.232,9.6.268,12.745-.154,17.135,1.79,24.586-10.209,5.592-8.235,10.039-17.527,17.123-24.074.147.2.291.4.443.6-.952,5.143-.771,10.458-.577,15.631a85.676,85.676,0,0,1-.179,13.113,84.345,84.345,0,0,1-2.594,11.9c-.515,1.917-1.05,3.9-1.506,5.867a85.793,85.793,0,0,0-2.187,19.741c-3.5,15.82-3.422,29.668.224,41.948a78.994,78.994,0,0,0,6.557,15.35c-.011.012-.028.018-.038.032a.5.5,0,0,0-.081.438,9.538,9.538,0,0,1,.229,1.042,28.561,28.561,0,0,0-4.576-6.792c-5.434-5.806-17.7-9.726-27.272-8.933-4.283-.584-11.33-1.284-14.756-1.32-6.779-.072-18.6,2.1-25.921,7.325a26.08,26.08,0,0,0-7.311,8.041H11.153a.5.5,0,0,0-.5.5v19.659a.5.5,0,0,0,.5.5H162.264a21.852,21.852,0,0,0,4.766,9.383c3.305,3.65,9,4.407,14.155,3.555a12.088,12.088,0,0,0,2.4,1.67,13.5,13.5,0,0,0,5.917,1.912,4.439,4.439,0,0,0,.892.006,7.677,7.677,0,0,0,4.4-1c.284-.173.568-.353.845-.542.931.327,1.893.643,2.872.882,4.857,1.945,8.2.492,12.306-2.3a19.551,19.551,0,0,0,3.016-2.5,20.767,20.767,0,0,0,6.816,1.605c1.613,1.676,3.257,2.007,4.231-.087a11.1,11.1,0,0,0,1.959-.554c.22-.072.621-.243.905-.368l-.141.064a9.963,9.963,0,0,0,5.037-3.624,22.115,22.115,0,0,0,3.43-8.108H352.232a24.02,24.02,0,0,0,2.287,4.92,9.37,9.37,0,0,0,4.74,3.687l-.133-.066c.269.128.65.305.86.379a10.212,10.212,0,0,0,1.87.577c.874,2.108,2.468,1.8,4.074.135a19.649,19.649,0,0,0,6.619-1.53,18.439,18.439,0,0,0,2.828,2.536c3.869,2.839,7.044,4.331,11.786,2.439.95-.229,1.887-.534,2.794-.851.261.192.53.376.8.552a7.081,7.081,0,0,0,4.2,1.052,4.193,4.193,0,0,0,.861,0,12.887,12.887,0,0,0,5.761-1.848,11.951,11.951,0,0,0,2.362-1.645c4.946.912,10.453.218,13.751-3.4a21.689,21.689,0,0,0,4.1-6.94H721.153a.5.5,0,0,0,.5-.5V429.187A.5.5,0,0,0,721.153,428.687Zm-302.37-33.632a212.863,212.863,0,0,1,4.552-23.124c1-3.645,2.187-7.191,3.441-10.945a181.8,181.8,0,0,0,5.4-18.425.5.5,0,0,0-.916-.366c-10.884,18.187-15.12,39.52-17.359,53.984-1.019,6.588-1.815,13-2.709,20.485a33.8,33.8,0,0,0-4.711-2.413c.491-2.307.851-4.418,1.083-6.407,1.4-11.93-.929-23.742-3.109-32.7-.3-1.23-.61-2.462-.921-3.7-2.045-8.11-4.16-16.5-3.121-24.78.718-5.724,2.942-11.278,5.094-16.649,2.7-6.734,5.485-13.7,5.325-21.052a.5.5,0,0,0-.876-.318c-4,4.563-6.081,9.758-5.6,13.932l-11.983,26.884c-8.723,19.569-6.609,41.663-3.776,60.987l-.085,0c-3.3,0-10.114.619-14.259,1.155-9.2-.9-21.141,2.885-26.559,8.638a27.343,27.343,0,0,0-5.317,8.445H311.945a31.059,31.059,0,0,1,1.915-5.323c.343-.726.716-1.44,1.088-2.153a27.953,27.953,0,0,0,2.156-4.862c.893-2.973.525-5.878-.985-7.77a.5.5,0,0,0-.859.137c-.421,1.129-.785,2.262-1.169,3.46a42.589,42.589,0,0,1-4.288,10.035,29.6,29.6,0,0,0-2.958,6.476H287.707a35.284,35.284,0,0,1-2.722-14.906c.506-8.045,4.485-14.965,8.695-22.291a98.471,98.471,0,0,0,6.5-12.69.5.5,0,0,0-.83-.525c-1.736,1.86-3.673,3.648-5.546,5.377-4.021,3.713-8.179,7.553-10.933,12.552-4.5,8.162-4.727,19-.633,29.721.35.917.74,1.837,1.151,2.762h-9.374c-1.526-4.1-2.821-8.116-3.908-12.108a.492.492,0,0,0-.524-.367.5.5,0,0,0-.456.45,35.4,35.4,0,0,0,1.009,12.025H255.648q-1.737-3.916-3.232-8.025a.5.5,0,0,0-.966.235,67.847,67.847,0,0,0,1.476,7.79h-2.869c-1-2.036-1.935-4.1-2.773-6.189a92.181,92.181,0,0,1-6.486-31.441,85.685,85.685,0,0,0,6.17,17.481.5.5,0,0,0,.45.283.508.508,0,0,0,.166-.028.5.5,0,0,0,.321-.585,118.647,118.647,0,0,1-2.7-36.65c.336-4.08.9-8.387,2.745-12.241,2.364-4.939,6.681-8.765,10.854-12.465,2.13-1.888,4.29-3.8,6.213-5.885a7.655,7.655,0,0,0,1.084-.918c.451-.46.862-.961,1.259-1.444a12.486,12.486,0,0,1,2.008-2.1c1.106-.841,2.843-1.254,3.887-.355,1.469,1.268.454,3.861-.377,5.193a23.437,23.437,0,0,1-11.335,9.378.5.5,0,0,0,.18.967h.03c11.576-.672,21.917-7.124,30.5-13.346,1.573-1.139,3.136-2.3,4.7-3.467,3.741-2.782,7.549-5.611,11.526-8.137a19.505,19.505,0,0,0,13.5-4.959A3.622,3.622,0,0,1,326,321a2.246,2.246,0,0,1,1.4,1.841c.193,1.679-1.218,3.955-2.636,5.1a7.269,7.269,0,0,0-1.6,1.688c-2.056,3.231-1.043,5.163-.257,6.027a5.565,5.565,0,0,0,6.315.909c2.534-1.3,3.98-3.951,5.143-6.085l6.419-11.783c2.062,3,4.129,6,6.152,9.025-1.239,2.7-2.5,5.466-3.71,8.209-5.922,13.444-11.857,29.4-10.961,45.81a.5.5,0,0,0,.421.467.522.522,0,0,0,.078.006.5.5,0,0,0,.466-.322l13.161-34.462c1.61-4.216,3.256-8.508,5.06-12.741.132.212.267.427.394.632-.118-.236-.244-.469-.363-.7,1.51-3.54,3.128-7.038,4.946-10.408,1.345-2.5,2.81-4.925,4.346-7.31,1.008,2.216,1.932,4.474,2.98,6.669,3.347,6.965,6.9,13.84,10.787,20.52-3.634-7.554-7-15.235-10.409-22.891-.76-1.739-1.552-3.694-2.469-5.66,1.132-1.71,2.307-3.392,3.508-5.056,3.761.341,7.481.74,11.186,1.234q-.426,1.1-.875,2.173l-.168.4c-2.7,6.462-5.765,13.786-3.807,20.759a.5.5,0,0,0,.943.056l9.374-22.59c3.587.564,7.182,1.22,10.812,1.979-2.657,2.069-4.106,4.866-3.733,7.275-7.405,13.395-15.046,27.247-19.053,42.361-4.5,16.963-3.374,33.236,3.158,45.82a.5.5,0,0,0,.942-.258c-.835-14.919-1.782-31.828,2.973-47.093a137.952,137.952,0,0,1,7.268-17.445c4.55-9.654,9.252-19.636,9.552-30.433.11.024.22.044.33.068,1,.226,2.049.487,3,.731q-1.493-.512-3-.974c-.127-.038-.256-.07-.384-.108a.49.49,0,0,0-.212-.238.5.5,0,0,0-.514.034q-5.323-1.548-10.756-2.643l1.406-3.388c2.665-6.423,6.1-13.326,13.145-13.937a4.2,4.2,0,0,1,3.941,1.851c1.135,1.841.221,3.786-.746,5.846-.249.53-.5,1.057-.707,1.578a6.181,6.181,0,0,0,.407,5.416,2.677,2.677,0,0,0,2.376,1.2.5.5,0,0,0,.439-.3,9.9,9.9,0,0,1,10.146-5.695,19.647,19.647,0,0,1,11.447,13.961,1.592,1.592,0,0,0,2.915.5,11.02,11.02,0,0,0,1.467-5.662c6.325,11.285,9.385,25.219,9.08,41.683a1.655,1.655,0,0,0,3.063.9c2.752-4.42,3.26-11.32,3.8-18.627.458-6.233.931-12.672,2.85-17.824a35.581,35.581,0,0,1,19.584,24,1.164,1.164,0,0,0,2.206.193c1.488-3.333,5.648-5.855,9.677-5.866h.039c5.535,0,10.728,3.263,14.9,5.885,10.6,6.66,18.6,12.035,26.34,17.234s15.756,10.581,26.368,17.249c14.438,9.074,39.63,33.789,48.417,50.894H538.2c.673-3.676,1.181-7.362,1.672-10.98a23.975,23.975,0,0,0-2.556-13.563c-2.7-5.057-6.582-9.338-10.34-13.478a.5.5,0,0,0-.842.5,77.983,77.983,0,0,1,3.005,37.523H518.328a26.549,26.549,0,0,0,2.206-5.968c2.212-9.314-.4-18.439-2.978-24.455-3.288-7.666-8.169-14.538-12.892-21.184a.5.5,0,0,0-.853.517c2.518,4.929,5.411,13.429,8.163,21.88,2.254,6.92,4.809,14.762,3.792,22.469a25.166,25.166,0,0,1-1.9,6.741H444.557a40.387,40.387,0,0,0,.993-4.224.5.5,0,0,0-.814-.469q-2.654,2.223-5.105,4.693h-12.3c.4-3.07.949-6.14,1.5-9.161a113.711,113.711,0,0,0,2.064-15.266c.072-1.685.066-3.4.06-5.055a53.964,53.964,0,0,1,.575-9.908,44.563,44.563,0,0,1,1.436-5.291c.814-2.558,1.121-3.616.534-4.1-.292-.242-.7-.227-1.2.044a.5.5,0,0,0-.226.248c-6.281,15.061-7.32,31.714-8.325,47.818-.014.222-.029.452-.043.675h-2.4a.457.457,0,0,0-.071.017,26,26,0,0,0-6.323-9.221Zm-19.855-12.487c5.369,9.724,4.14,21.545,2.592,29.929a51.869,51.869,0,0,0-10.825-1.965A59.864,59.864,0,0,1,398.928,382.568ZM244.9,293.412c-.106-.4-.211-.813-.315-1.23.762-.055,1.525-.105,2.287-.173,1.079-.073,2.159-.138,3.239-.2a.48.48,0,0,0-.055.071l-.82,1.685a.5.5,0,0,0,.128.6,18.508,18.508,0,0,0-3.855,1.453C245.293,294.858,245.091,294.12,244.9,293.412Zm11.766-2.61.181.1-.144,0Zm-.729-.294a1.489,1.489,0,0,0-.46.41,2.929,2.929,0,0,0-.841.014l-10.315.151a43.786,43.786,0,0,1-.944-5.433c1.345.262,2.693.562,4.055.955a48.012,48.012,0,0,1,8.616,3.869A.511.511,0,0,0,255.941,290.508Zm-6.405,3.767a2.269,2.269,0,0,0,1.238.373,2.232,2.232,0,0,0,1.054-.261.5.5,0,0,0,.258-.52,2.755,2.755,0,0,0-1.191-2.111c1.015-.064,2.029-.136,3.042-.225a.493.493,0,0,0,.137.3.775.775,0,0,0,.879.189c.061.036.133.076.215.119a1.5,1.5,0,0,0,.2.569,1.589,1.589,0,0,0,1.007.7,1.693,1.693,0,0,0,.373.042,1.539,1.539,0,0,0,.84-.241.5.5,0,0,0,.18-.631,2.878,2.878,0,0,0-.813-1.026l-.128-.339c.165-.023.329-.049.494-.074a10.447,10.447,0,0,0,3.424,1.359,5.151,5.151,0,0,0,2.97-.667c-2.067,1.018-3.88.286-5.626-.808.488-.071.976-.132,1.469-.157.28-.041.767.1.574.438.522-.657-1.195-.57-2.35-.479-.118-.077-.236-.15-.353-.229a52.147,52.147,0,0,0-8.89-4.792,36.205,36.205,0,0,0-5.27-1.482c-.028-.478-.048-.957-.051-1.437.009-.031.016-.063.025-.1a31.345,31.345,0,0,1,3.789-9.5,11.444,11.444,0,0,1,8.071-5.324.5.5,0,0,0,.454-.531.463.463,0,0,0-.52-.467,34.751,34.751,0,0,1-9.934-.528,11.3,11.3,0,0,1-7.6-5.521.5.5,0,0,0-.392-.275.481.481,0,0,0-.443.181,1.947,1.947,0,0,0-.258,1.674,6.722,6.722,0,0,0,3.366,4.181c.358.18.733.326,1.107.472a7.408,7.408,0,0,1,1.446.68,4.271,4.271,0,0,1,1.729,3.413,32.864,32.864,0,0,0-2.186,3.893,5.484,5.484,0,0,0-.935-1.534,13.223,13.223,0,0,0-3.276-2.455c-.389-.232-.777-.465-1.155-.709a17.5,17.5,0,0,1-1.575-1.165c-.476-.71-.919-1.42-1.335-2.11s-.819-1.379-1.223-2.072c-.3-.516-.606-1.037-.915-1.556a15.551,15.551,0,0,0-1.9-4.015c-.574-.882-1.215-1.722-1.869-2.538a4.241,4.241,0,0,0-.847-1.044l-.291-.354c-.714-.864-1.452-1.758-2.123-2.669-4.739-6.435-6.755-14.459-8.5-21.595a75.807,75.807,0,0,1-.07-12.452c.721-8.1,3.313-15.035,7.5-20.041a.5.5,0,0,0-.71-.7,35.719,35.719,0,0,0-11.792,21.24,33.677,33.677,0,0,1,2.565-33.709.5.5,0,0,0-.607-.75,14.07,14.07,0,0,0-7.066,7.877,38.3,38.3,0,0,0-2.153,9.573,8.089,8.089,0,0,1-3.178-5.325,13.584,13.584,0,0,1,.334-5.454,22.618,22.618,0,0,1,6.309-9.947,55.746,55.746,0,0,1,10.524-7.957c.814-.494,1.637-.978,2.462-1.464,3.789-2.228,7.707-4.532,10.683-7.87a.5.5,0,0,0-.649-.75,103.488,103.488,0,0,1-9.79,5.486c-2.2,1.132-4.481,2.3-6.667,3.562-6.811,3.927-11.21,7.993-13.842,12.8-.152.278-.3.561-.448.845a9.6,9.6,0,0,1-2.35,3.306c-.032.025-.072.04-.105.064a3.767,3.767,0,0,1-1.242.009l-16.837-19.777c-3.978-4.673-8.091-9.5-10.893-15.057-3.092-6.13-4.056-12.451-2.713-17.8.977-3.884,4.041-7.812,7.863-7.417a.5.5,0,0,0,.529-.353.5.5,0,0,0-.246-.587c-4.116-2.163-5.868-7.188-7.187-11.728-3.13-10.777-6.439-23.313-6.066-35.7.4-13.307,5.293-25.1,13.426-32.381,2.906-1.207,6.971-.566,12.425,1.956,25.248,11.682,46.166,32.645,57.389,57.515,2.709,6,5.68,13.934,4.607,22.055a.5.5,0,0,0,.984.172,6.1,6.1,0,0,1,2.876-4.1,4.466,4.466,0,0,1,2.994-.437,9.575,9.575,0,0,0,1.128,1.749c-.038.815-.112,1.642-.189,2.487-.114,1.236-.231,2.515-.247,3.877a19.52,19.52,0,0,1-1.7,7.689.5.5,0,0,0,.045.489.518.518,0,0,0,.442.215l7.057-.43a4.841,4.841,0,0,0-.009,2.981,15.086,15.086,0,0,0,.686,1.811,15.593,15.593,0,0,1,.592,1.517,7.737,7.737,0,0,1-.894,6.467,15.819,15.819,0,0,1-3.52,3.494c-.5.4-1,.806-1.477,1.227a23.047,23.047,0,0,0-7.723,16.966.5.5,0,0,0,.954.212c2.445-5.3,4.973-10.777,8.994-15.121a56.61,56.61,0,0,1,6.516-5.726,68.968,68.968,0,0,0,5.6-4.771c4.722-4.64,6.891-10.007,5.95-14.725a.5.5,0,0,0-.936-.128,43.548,43.548,0,0,1-6.2,9.13c-.9,1.024-1.66,1.445-2.3,1.285-.869-.215-1.227-1.414-1.363-2.11a13.681,13.681,0,0,1,.018-5.3l.057-.277a5.571,5.571,0,0,0,.178-1.708,2.138,2.138,0,0,0-1.324-1.882,2.876,2.876,0,0,0-2.157.381l-4.27,2.106a17.991,17.991,0,0,0,1.451-7.286c-.008-.222-.037-.437-.058-.655a8.071,8.071,0,0,1,1.695-2.136c1.175-1,3.15-1.552,4.5-.594a5.873,5.873,0,0,1,1.12,1.169,7.345,7.345,0,0,0,1.184,1.259,2.79,2.79,0,0,0,2.519.436,1.6,1.6,0,0,0,1.074-1.161,2.65,2.65,0,0,0-.018-1.032,3.242,3.242,0,0,1-.051-.458,1.338,1.338,0,0,1,.662-1.12,2.47,2.47,0,0,1,2.223-.233c1.262.541,2.039,1.807,2.854,3.284a.5.5,0,0,0,.658.208c1.4-.685,2.064-2.171,2.65-3.482l.158-.354c.529-1.164,1.426-2.566,2.705-2.64a2.552,2.552,0,0,1,2.185,1.4,6.437,6.437,0,0,1,.6,2.966.5.5,0,0,0,.715.444,12.348,12.348,0,0,0,3.916-3.474c.456-.538.927-1.094,1.415-1.592,1.564-1.59,4.047-2.777,5.818-1.615a6.037,6.037,0,0,1,1.817,2.5,15.236,15.236,0,0,0,.815,1.483,4.308,4.308,0,0,0,3.121,1.925,2.143,2.143,0,0,0,1.855-.786,3.879,3.879,0,0,0,.658-1.557,2.569,2.569,0,0,1,.538-1.236c.724-.689,2.094.011,2.79.532a15.79,15.79,0,0,1,4.315,4.965c.134.241.261.489.39.737a8.6,8.6,0,0,0,2.092,2.923,3.684,3.684,0,0,0,2.827.724,2.381,2.381,0,0,0,1.663-1.11c.721-1.218.157-2.651-.3-3.8l-.05-.126c-.395-1.006-.56-2.26.159-2.765.878-.621,2.169.434,2.773,1.245a12.966,12.966,0,0,1,2.3,10,.5.5,0,0,0,.163.47.5.5,0,0,0,.328.123.515.515,0,0,0,.16-.026,11.989,11.989,0,0,0,7.524-7.968l2.5,4.231a.493.493,0,0,0,.1.11c-.285.618-.539,1.209-.732,1.758-.809,2.3-2.682,4.969-5.512,5.556-.322.067-.661.113-1,.159-1.175.16-2.507.341-3.274,1.411-.981,1.368-.28,3.307.989,4.259a4.48,4.48,0,0,0,1.93.843.567.567,0,0,0,.263-.055.534.534,0,0,0,.28-.443c4.426-.9,9.274-6.311,11.279-10.26,1.537-3.029,2.933-9.7,4.054-15.051.393-1.88.733-3.5,1.017-4.664,5.086-20.746,18.5-37.7,44.833-56.691,5.737-4.135,12.023-8.1,19.124-9.108,4.605-.656,8.586.358,10.914,2.78,2.424,2.522,3,6.309,3.41,10.3l1.676,16.174a35.225,35.225,0,0,0,.94,5.841c.7,8.49,1.349,17.073,1.746,25.581.26,5.563.3,10.931-2.092,15.462-2.353,4.466-8.013,7.767-12.686,5.561a.5.5,0,0,0-.466.884,41.57,41.57,0,0,1,8.863,6.359,14.868,14.868,0,0,1,4.6,9.411c.176,3.419-1.2,7.057-4.094,10.811-1.3,1.684-2.784,3.271-4.222,4.806-1.288,1.374-2.619,2.795-3.824,4.294a76.12,76.12,0,0,0-7.183,11.513c-1.008,1.853-2.051,3.77-3.147,5.6a48.121,48.121,0,0,1-4.694,6.647,56.19,56.19,0,0,1-6.666,4.123A2.852,2.852,0,0,1,391.2,196.7c-.661-.906-.548-2.2-.439-3.452.02-.225.039-.449.055-.669a18.085,18.085,0,0,0-3.179-10.941,23.613,23.613,0,0,0-8.9-8.008.5.5,0,0,0-.6.784,30.081,30.081,0,0,1,8.092,19.114c.012.263.02.526.028.79a16.885,16.885,0,0,0,.275,3.029,6.156,6.156,0,0,0,1.226,2.634,7.4,7.4,0,0,1-2.1.089,4.46,4.46,0,0,1-3.923-3.031.492.492,0,0,0-.527-.386.5.5,0,0,0-.459.465,6.037,6.037,0,0,1-3.311,4.9c-1.432.689-2.535-.021-4.221-1.237-.222-.16-.447-.322-.677-.482a12.29,12.29,0,0,1-2.613-2.8c-.367-.484-.735-.969-1.128-1.426s-.757-.921-1.092-1.35c-1.245-1.591-2.321-2.966-4.673-3.584a.5.5,0,0,0-.542.762,12.434,12.434,0,0,0,.892,1.082c2.418,2.76,8.843,10.091,8.843,25.964,0,1.826.046,3.683.091,5.477.136,5.507.277,11.2-.909,16.645a.5.5,0,0,0,.94.319c4.555-9.664,4.193-20.658,3.843-31.29a7.043,7.043,0,0,1,.316-2.932,2.054,2.054,0,0,1,1.939-1.349c1.459.2,1.761,2.476,1.822,3.443a79.653,79.653,0,0,1-.726,16.9l-6.06,18.675a172.984,172.984,0,0,1-7.2,19.481c-5.357,6.519-10.614,13.187-15.7,19.921q-2.238.184-4.493.36c-.4.026-.809.048-1.214.069a40.8,40.8,0,0,1,2.272-4.278,70.985,70.985,0,0,1,6.216-8.173c1.156-1.376,2.351-2.8,3.47-4.245,4.1-5.306,6.194-9.9,6.577-14.45a.5.5,0,0,0-.937-.281c-3.4,6.226-6.911,12.665-11.882,17.88-1.579,1.657-4.014,3.876-6.912,4.026a5.018,5.018,0,0,1-3.984-1.792,3.264,3.264,0,0,1-.822-2.418,12.082,12.082,0,0,0,10.195-6.778.5.5,0,0,0-.561-.7,21.445,21.445,0,0,0-6.1,2.8l-.725.428c-1.943,1.139-4.222,2.36-6.666,2.435-2.082.08-4.707-1.062-5.377-3.276a.494.494,0,0,0-.522-.353.5.5,0,0,0-.452.439c-.3,2.509,2.027,4.272,4.087,5.527a14,14,0,0,1,3.5,2.778.5.5,0,0,0,.054.368,29.713,29.713,0,0,1,3.649,10.261c-4.767.18-9.527.467-14.08,2.037,4.649-1.2,9.423-1.146,14.215-1.08.06.473.11.946.148,1.422,0,.114,0,.228,0,.342-7.076-.708-13.8-.506-19.6,4.979,6.081-4.93,12.681-4.677,19.569-3.747a43.636,43.636,0,0,1-.887,7.206,24.151,24.151,0,0,0-7.854-.36,25.476,25.476,0,0,1,7.683,1.117c-.2.888-.427,1.77-.683,2.643-1.179-.189-2.367-.348-3.56-.488a2.177,2.177,0,0,0-.054-.5.5.5,0,0,0-.235-.319.493.493,0,0,0-.34-.06.5.5,0,0,0-.569-.165l-1.946.715-.952-.09-.273-.025c-1.546-.142-3.085-.274-4.607-.419a.487.487,0,0,0,.215-.252.5.5,0,0,0-.059-.441,5.879,5.879,0,0,0-.818-.961,1.7,1.7,0,0,0,.146-.324.5.5,0,0,0-.1-.5.511.511,0,0,0-.19-.131,1.236,1.236,0,0,0-.183-.233.5.5,0,0,0-.85.319,5.937,5.937,0,0,0-2.349-.744.488.488,0,0,0-.463.218.5.5,0,0,0-.027.511,4.878,4.878,0,0,0,1.091,1.538,2.338,2.338,0,0,0,.83.456,2.569,2.569,0,0,0,.386.3c-.466-.052-.929-.105-1.39-.162.569.119,1.148.229,1.728.339a2.706,2.706,0,0,0,1.125.257c.066,0,.132-.011.2-.016,1.615.287,3.26.555,4.917.822a2.392,2.392,0,0,0,.808,1.662,2.422,2.422,0,0,0,1.606.642,2.352,2.352,0,0,0,.237-.013,2.384,2.384,0,0,0,1.658-1.02,2.6,2.6,0,0,0,.275-.507c1.147.2,2.29.414,3.421.648q-.465,1.449-1.03,2.861c-.727,1.153-1.468,2.31-2.24,3.444-.287.3-.576.592-.881.875a24.97,24.97,0,0,0-6.88-5.185c.01-.027.032-.045.039-.075.1-.43-.285-.658-.515-.794l-.159-.1a.5.5,0,0,0-.513-.016l-.479.266c-.2-.078-.395-.165-.6-.237.183.087.355.183.534.274l-.482.268-.207.013a.5.5,0,0,0-.4.258l-.056.1-.388.216a.5.5,0,0,0-.2.664.536.536,0,0,0,.058.088l-.58,1.051a.5.5,0,0,0,.276.715,2.421,2.421,0,0,0,.786.129,2.467,2.467,0,0,0,2.5-2.462.742.742,0,0,0,.274-.163,26.1,26.1,0,0,1,6.069,5.3c-3.733-.092-7.465-.178-11.2-.211,3.617.322,7.235.67,10.854.994a25.958,25.958,0,0,1-7.531,4.165,34.568,34.568,0,0,1-13.8,1.762,88.091,88.091,0,0,1-12.23-1.917c-2.511-.515-4.7-1.071-6.129-2.656a3.888,3.888,0,0,1-1.047-2.493,7.938,7.938,0,0,1,1.451-1.277c.388-.266.792-.515,1.2-.763a11.279,11.279,0,0,0,3.068-2.425,2.422,2.422,0,0,0,.561-2.444,2.8,2.8,0,0,0-.606-.822,3.554,3.554,0,0,1-.3-.332,2.133,2.133,0,0,1,.21-2.483,4.74,4.74,0,0,1,2.566-1.487c.458-.127.922-.224,1.386-.321a17.882,17.882,0,0,0,1.876-.464,8.637,8.637,0,0,0,5.717-6.083.5.5,0,0,0-.968-.252,5.46,5.46,0,0,1-2.757,3.212,17.3,17.3,0,0,1-4.361,1.474l-3.989.964a4.294,4.294,0,0,0-2.386,1.181,2.992,2.992,0,0,0-.557,2.506,7.126,7.126,0,0,0,.927,2.2,4.646,4.646,0,0,1,.589,1.309,4.7,4.7,0,0,1-1.62,1.433,2.074,2.074,0,0,1-2.374-.285,3.339,3.339,0,0,1-.322-.473,4.1,4.1,0,0,0-.439-.626,1.444,1.444,0,0,0-1.831-.389,1.681,1.681,0,0,0-.632,1.247,3.1,3.1,0,0,1-.073.36,1.188,1.188,0,0,1-.6.7,2.045,2.045,0,0,1-1.075.227,6.033,6.033,0,0,1-1.625-1.119,2.9,2.9,0,0,1-.411-3.231,6.116,6.116,0,0,1,.585-.849,8.631,8.631,0,0,0,.569-.8,2.4,2.4,0,0,0,.2-2.446,2.97,2.97,0,0,0-1.379-1.068,19.093,19.093,0,0,0-4.636-1.736c-.413-.079-.833-.131-1.252-.182a12.99,12.99,0,0,1-1.621-.267c-.075-.084-.162-.159-.229-.249a2.7,2.7,0,0,1-.335-.618c1.067-1.576,3.412-2.283,5.423-2.122a22.2,22.2,0,0,1,3.928.806,25.127,25.127,0,0,0,3.763.806c4.48.49,8.929-1.459,12.508-3.026a.5.5,0,0,0-.019-.924c-2.3-.9-4.685-.219-6.992.433a13.994,13.994,0,0,1-5.28.807,13.041,13.041,0,0,1-3.349-1.032,11.4,11.4,0,0,0-7.011-1.035c-.578.052-1.167.093-1.752.111l-1.975-.278a4.614,4.614,0,0,1-1.111-.254c-.019-.008-.039-.015-.057-.024-.111-.052-.2-.124-.307-.183a3.125,3.125,0,0,1-.762-2.2q-.372-4.224-.7-8.454c0-.016-.015-.026-.018-.041a153.3,153.3,0,0,1,2.337-26.441h0a4.435,4.435,0,0,0-.837-3.328,3.68,3.68,0,0,0-2.476-1.541.511.511,0,0,0-.422.148.505.505,0,0,0-.135.427,34.06,34.06,0,0,1-9.6,29.213.5.5,0,0,0,.428.85,9.1,9.1,0,0,1,9.014,4.607c-.14,2.149-.1,4.717-.015,7.17a10.58,10.58,0,0,0,.656,3.921,7.384,7.384,0,0,0,3.46,3.436c.135.1.269.193.393.276a14.12,14.12,0,0,0,3.94,1.835l.3.085a3.627,3.627,0,0,1,2.191,1.159,3.422,3.422,0,0,1-.022,2.574,4.781,4.781,0,0,0-.059,3.132,4.7,4.7,0,0,0,2.458,2.064c.218.11.434.219.641.334a7.636,7.636,0,0,1,3.587,4.591,6.858,6.858,0,0,1-3.129,1.763,43.41,43.41,0,0,1-9.809,2.493,43.347,43.347,0,0,1-9.942-.625A49.154,49.154,0,0,1,255.3,310.18q-1.375-.806-2.687-1.72c-.382-.269-.78-.57-1.176-.887a23.056,23.056,0,0,1-2.69-3.891c.519.061,1.039.119,1.56.165,3.293.185,7,.113,9.349-2.56-2,1.885-4.677,2.265-7.31,2.011a32.629,32.629,0,0,1-4.088-.527c-.081-.159-.16-.317-.238-.477a29.917,29.917,0,0,1,3.112-2.036c.851-.494,1.712-.961,2.589-1.386a.484.484,0,0,0,.04.421,1.522,1.522,0,0,0,1.26.672,1.432,1.432,0,0,0,.235-.019,1.518,1.518,0,0,0,.913-.531l.31.183a.5.5,0,0,0,.62-.089.933.933,0,0,0,.21-.368,4.481,4.481,0,0,0,1.533.026.5.5,0,0,0,.106-.959,7.078,7.078,0,0,1-1.409-.758,13.736,13.736,0,0,1,3.15-.432,13.83,13.83,0,0,0-3.43.235,8.423,8.423,0,0,1-.82-.711.5.5,0,0,0-.666-.033,9.613,9.613,0,0,0-1.5,1.572,36.242,36.242,0,0,0-5.417,2.595c-.42.247-.827.507-1.226.774a43.245,43.245,0,0,1-1.963-5.348A17.737,17.737,0,0,1,249.536,294.275ZM386.11,211.118a42.786,42.786,0,0,1-2.177,4.048l-.1.173a25.707,25.707,0,0,1,2.14-9.385,3.513,3.513,0,0,1,1.364-1.685,1.366,1.366,0,0,1,1.035-.064.766.766,0,0,1,.457.4c.191.449-.1,1.013-.4,1.609-.083.164-.166.325-.238.484a2.381,2.381,0,0,0-.088.279C387.346,208.381,386.7,209.805,386.11,211.118Zm-25.422,78.91q-1.788-.264-3.581-.5a3.462,3.462,0,0,1,1.16-.676,2,2,0,0,1,1.805.225A1.6,1.6,0,0,1,360.688,290.028Zm-53.241,32.666a49.889,49.889,0,0,1-8.137,2.26,45.187,45.187,0,0,1-12.4-.155A44.29,44.29,0,0,1,274.8,322.03c-.367-.156-.731-.32-1.095-.495a5.265,5.265,0,0,0-2.261-1.5,6.64,6.64,0,0,0-.8-.221,37.975,37.975,0,0,1-5.87-4.753,37.663,37.663,0,0,0,5.053.461c6.888.144,13.819-1.375,19.8-2.831a87.68,87.68,0,0,0,20.02,4.214,65.423,65.423,0,0,0,6.691.395,34.022,34.022,0,0,0,6.885-.646c-1.94.791-3.965,1.431-5.957,2.058A45.048,45.048,0,0,0,307.447,322.694Zm35.235-27.73a50.784,50.784,0,0,0,.606-5.71q.9.134,1.805.263l1.408.156C345.268,291.345,343.979,293.121,342.682,294.964Zm5.155-7.095c-.13.174-.265.358-.4.535-.6-.062-1.2-.128-1.794-.188l-2.167-.269q.414-1.062.867-2.108c.3,0,.608,0,.912,0q2.132-.081,4.269-.2C348.966,286.378,348.393,287.121,347.837,287.869Zm-96.061,27.707a4.339,4.339,0,0,0,1.287-.223,9.428,9.428,0,0,0,2.4-1.445,10.791,10.791,0,0,1,1.577-1.039,30.208,30.208,0,0,0,3.237,1.163,3.677,3.677,0,0,1,.153,2.456,10.315,10.315,0,0,1-3.013,4.017l-.3.291a12.444,12.444,0,0,0-2.417,3,21.889,21.889,0,0,0-5.34,5.654A14.612,14.612,0,0,1,251.776,315.576Zm103.481-23.454c.241-.444.5-.907.785-1.346q2.327.286,4.639.6c-.036.226-.081.46-.139.712a109.727,109.727,0,0,1-3.579,12.017,65.793,65.793,0,0,0-6.218-3.7ZM267.05,320.791a10.4,10.4,0,0,1,3.22-.027,29.48,29.48,0,0,0,2.8,1.57,3.149,3.149,0,0,1,.533.99,41.522,41.522,0,0,0-9.008,10.3,49.818,49.818,0,0,0-17.485,14.958,50.738,50.738,0,0,1,13.99-26.115A23.266,23.266,0,0,1,267.05,320.791Zm83.25-19.57c2.175,1,4.533,2.15,6.536,3.24q-.441,1.228-.9,2.448a25.063,25.063,0,0,0-6.392-4.3Zm-1.427,2.621a22.984,22.984,0,0,1,6.51,4.5l-.027.068c-1.067-.05-2.135-.105-3.2-.138-1.893.008-3.786,0-5.679-.027Zm-3.119,5.724c3.026.054,6.053.073,9.077.183-2.3,5.751-4.879,11.385-7.419,16.925l-.114.25q-2.772-4.821-5.846-9.458Zm32.132-15.282.152.033c1.966,5.061.718,10.858-1.262,16.271q-5.306-.879-10.665-1.412C369.884,304.051,373.908,299.122,377.886,294.284ZM237.462,300.61c-9.153-1.5-18.381-2.564-27.452-4.552-1.207-.225-2.408-.486-3.6-.76a29.271,29.271,0,0,1,11.614-2.643c7.409.02,14.814.125,22.211-.213a38.746,38.746,0,0,0,1.335,5.282A41.321,41.321,0,0,0,237.462,300.61Zm2.268.376c-.248-.043-.5-.082-.745-.124.809-.673,1.62-1.326,2.432-1.937.158-.105.316-.213.474-.32a27.625,27.625,0,0,0,1.237,2.9c.034.068.075.129.11.2C242.072,301.443,240.9,301.192,239.73,300.986Zm-15.772,157a4.207,4.207,0,0,0-.349-1.113,3.113,3.113,0,0,0-1.675-1.932c-2.183-.66-2.292,1.862-2.37,3.234a15.1,15.1,0,0,1-3.74-.669c-1.33-.485-3.944-3.095-4.792-4.874a19.339,19.339,0,0,1-2.313-8.195c.008-1.536.256-3.919.025-3.654-.436.5-2.223,6.093-.752,12.25.063.265,1.651,5.992-2.118,8.021a16.785,16.785,0,0,1-1.509-.865,24.534,24.534,0,0,0-2.149-1.584c-.856-.588-2.256-.3-2.216.743a5.53,5.53,0,0,0,1.77,2.372c-1.6-.183-2.226-1.061-3-2.248l-.044-.067c-.232-.37-.22-.344-.76-1.3a27.513,27.513,0,0,1-2.512-5.8,50.765,50.765,0,0,1-1.961-13.3c0-.206-.346-.236-.4-.035A34.659,34.659,0,0,0,192,450.835a5.848,5.848,0,0,0,.246,1.746c.321,1.833,2.094,4.14,1.892,6.6a4.481,4.481,0,0,1-3.3,3.314c-.153-.13-.291-.256-.412-.372a10.791,10.791,0,0,0-2.879-2.29c-1.217-.477-2.281.606-1.619,1.556.055.092.119.191.186.292a10.791,10.791,0,0,1-5.457-5.238c-.19-.481-.375-.988-.558-1.528-.094-.276-.429-1.486-.455-1.576-.02-.074-.042-.153-.061-.225a41.88,41.88,0,0,1-1.205-7.558,20.185,20.185,0,0,1,0-3.808c.024-.169-.258-.226-.327-.066a20.354,20.354,0,0,0-1.216,5.06,23.291,23.291,0,0,0,.421,9.176,3.305,3.305,0,0,1-.153.337c-1.347,2.871-7.4,2.2-9.849-2.179a27.507,27.507,0,0,1-1.93-9.807c-.042-6.367,2.189-15.647,10.055-21.741a19.3,19.3,0,0,1,6.581-4.092,32.2,32.2,0,0,1,6.373-1.286c-4.208,2.41-5.444,8.228-5.444,8.228s3.688-4.186,5.568-5.377c3.708-2.347,6.749-4.255,14.632-4.127,2.244.171,5.931.658,5.482.826-4.016,1.351-5,2.278-6.36,3.43a7.513,7.513,0,0,0-2.663,3.8,26.629,26.629,0,0,1,8.467-4.564,34.561,34.561,0,0,1,14.163-1.517,39.12,39.12,0,0,1,12.442,3.922c.453.236,1.191.656,2.011,1.174,11.211,11.2,4.5,15.469,2.435,15.4-3.539.586-7.235-1.571-7.235-1.571s-1.968-1.033-1.711-.738c.268.422.525.851.79,1.332a17.3,17.3,0,0,1,1.966,7.812,27.5,27.5,0,0,1-.47,3.561.5.5,0,0,0,.1.417.421.421,0,0,0,.074.058A10.82,10.82,0,0,1,223.958,457.985Zm195.835-16.159a28.829,28.829,0,0,1-2.167,9.8c-2.493,4.357-8.35,4.961-9.558,2.071a3.367,3.367,0,0,1-.137-.339,24.329,24.329,0,0,0,.693-9.186,20.83,20.83,0,0,0-1.014-5.081c-.061-.161-.335-.107-.317.062a21.111,21.111,0,0,1-.122,3.814,44.011,44.011,0,0,1-1.4,7.556c-.021.071-.044.151-.066.224-.029.091-.389,1.3-.488,1.574-.193.539-.387,1.044-.585,1.523a10.881,10.881,0,0,1-5.422,5.185c.068-.1.132-.2.188-.29.667-.944-.324-2.041-1.511-1.577a10.81,10.81,0,0,0-2.846,2.26c-.12.115-.257.241-.409.369a4.305,4.305,0,0,1-3.08-3.357c-.117-2.468,1.663-4.759,2.03-6.59a6.139,6.139,0,0,0,.291-1.746,35.9,35.9,0,0,0-.684-11.893.2.2,0,0,0-.385.031,53.157,53.157,0,0,1-2.306,13.293,28.691,28.691,0,0,1-2.6,5.784c-.551.949-.539.923-.774,1.291l-.044.066c-.778,1.18-1.41,2.053-2.956,2.218a5.689,5.689,0,0,0,1.78-2.356c.071-1.048-1.27-1.348-2.113-.769a24.415,24.415,0,0,0-2.12,1.562,16.685,16.685,0,0,1-1.481.849c-3.568-2.075-1.859-7.793-1.79-8.057,1.61-6.15.063-11.771-.341-12.277-.215-.269-.051,2.121-.091,3.659a20.252,20.252,0,0,1-2.485,8.182c-.872,1.772-3.473,4.356-4.769,4.827a14.181,14.181,0,0,1-3.625.627c-.032-1.374-.059-3.9-2.183-3.265a3.172,3.172,0,0,0-1.675,1.916,4.413,4.413,0,0,0-.37,1.111c-3.063-.787-7.481-3.09-8.159-9.769a19.375,19.375,0,0,1,2.108-10.956c.269-.478.531-.905.8-1.324.257-.293-1.672.719-1.672.719s-3.629,2.119-7.021,1.492c-1.993.046-8.325-4.3,2.828-15.4.807-.51,1.531-.922,1.975-1.154a37.317,37.317,0,0,1,12.111-3.787,31.888,31.888,0,0,1,13.6,1.681,24.776,24.776,0,0,1,8.016,4.666A7.382,7.382,0,0,0,385,417.232c-1.279-1.169-2.194-2.109-6.021-3.507-.427-.173,3.14-.62,5.308-.765,7.6-.039,10.471,1.906,13.97,4.3,1.774,1.214,5.2,5.448,5.2,5.448s-1.009-5.841-4.988-8.3a29.7,29.7,0,0,1,6.1,1.361,18.04,18.04,0,0,1,6.213,4.172C418.172,426.13,420.033,435.449,419.793,441.826Z"/></svg>