<svg id="b1e0bc37-6bb4-4ded-a652-56c3ba5fb561" data-name="Layer 2" xmlns="http://www.w3.org/2000/svg" viewBox="0 0 606 402.614" style="fill: #215342;" height="243" width="315"><path d="M318.257,224.642a7.868,7.868,0,0,1-1.126-2.572,11.48,11.48,0,0,1-.152-5,3.56,3.56,0,0,0,.946-1.345,7.391,7.391,0,0,0,1.02-2.657,9.3,9.3,0,0,1,1.183-3.875,5.232,5.232,0,0,1,2.363-1.405,9.549,9.549,0,0,0,1.975-.947,4.829,4.829,0,0,0,2.239-5.344c-.235-.626-.6-.676-.8-.655a.5.5,0,0,0-.438.438,4.351,4.351,0,0,1-3.12,3.844,10.315,10.315,0,0,1-4.033.321c-.658-.044-2.2-.147-2.814.973a2.1,2.1,0,0,0,.076,1.961,6.2,6.2,0,0,0,.551.86c.114.157.228.315.331.479.6.958.618,2.562.074,4.625a3.414,3.414,0,0,1-1.235,1.025c-.234.112-.311.092-.318.088a.979.979,0,0,1-.2-.192,1.223,1.223,0,0,0-.84-.5,1.149,1.149,0,0,0-.979.539l-.117.17a1.036,1.036,0,0,1-.191.245c-.166.122-.536.016-.841-.088a6.649,6.649,0,0,1-.959-.4,4.782,4.782,0,0,1-1.229-3.313,8.646,8.646,0,0,1,.164-1.128,7.58,7.58,0,0,0,.184-1.633,2.44,2.44,0,0,0-1.94-2.507,2.983,2.983,0,0,0-2.119.9c-.476.372-.938.748-1.386.708a1.2,1.2,0,0,1-.985-.786,2.65,2.65,0,0,1-.05-1.576.5.5,0,0,0-.177-.5.494.494,0,0,0-.526-.06,2.327,2.327,0,0,0-1.394,2.82,2.861,2.861,0,0,0,2.082,2,5.34,5.34,0,0,0,.975.1,2.5,2.5,0,0,1,1.112.205,2.637,2.637,0,0,1,.894,1.57l.116.354a8.388,8.388,0,0,0,4,4.61,4.522,4.522,0,0,0,.593.436c.156.093.317.177.479.26a3.888,3.888,0,0,1,.746.452,3.294,3.294,0,0,1,.865,1.583,10.884,10.884,0,0,1-.729,8.3,30.2,30.2,0,0,1-5.1,6.357.5.5,0,0,0-.2.093c-.478.384-.97.757-1.468,1.125a.667.667,0,0,0-.233.5l-.006,0c-.01.012-.02.027-.031.042-.032.033-.054.074-.085.108a4.147,4.147,0,0,0-.348.444c-.073.108-.141.226-.208.346-.031.056-.066.1-.095.16a.354.354,0,0,0-.021.068c-.049.1-.111.194-.153.3a.5.5,0,0,0,.71.62c.179-.1.36-.2.621-.326a.513.513,0,0,0,.3-.037c.507-.236,1.023-.453,1.544-.651a.477.477,0,0,0,.09-.046,24.624,24.624,0,0,0,6.2-5.464,5.213,5.213,0,0,1,2.414-2.032c1.386-.532,2.664-.063,4.145.478a38.808,38.808,0,0,0,16.521,2.472l.061,0h.034c.016,0,.027-.011.042-.013h0a.515.515,0,0,0,.221-.072c.016-.01.025-.028.04-.04a.48.48,0,0,0,.122-.12.24.24,0,0,1,.056-.058c.014-.013.027-.034.041-.042l.008,0a.255.255,0,0,1,.086-.026l.216-.018h0l.194-.017a.471.471,0,0,0,.41-.492.546.546,0,0,0-.469-.513c-5.957-.881-11.584-1.714-17.833-4.833A5.533,5.533,0,0,1,318.257,224.642Z"/><path d="M309.488,201.015c-.962.138-1.907.275-2.827.366h0a3.3,3.3,0,0,0-2.583,1.754.5.5,0,0,0,.444.729h.033a45.265,45.265,0,0,0,5.945-.929c3.126-.633,6.08-1.231,9.086-.8a.5.5,0,0,0,.224-.971C316.315,200.03,312.843,200.529,309.488,201.015Z"/><path d="M347.277,162.078c-5.3.724-12.8,5.833-12.481,12.193.219,4.341,1.56,5.985,2.711,6.93a4.959,4.959,0,0,1-1.446-1.183,8.025,8.025,0,0,1-1.621-4.682,13.126,13.126,0,0,1,3.091-8.72,19.471,19.471,0,0,1,7.734-5.483.5.5,0,0,0-.3-.95A18.969,18.969,0,0,0,331.811,171.8q-.021-.067-.045-.135a.507.507,0,0,0-.492-.334.5.5,0,0,0-.463.374,32.048,32.048,0,0,0,.382,17.564.5.5,0,0,0,.477.352.466.466,0,0,0,.1-.01.5.5,0,0,0,.4-.537,18.164,18.164,0,0,1,.249-5.168l1.836,1.226a.505.505,0,0,0,.568-.009.5.5,0,0,0,.193-.534l-.308-1.175a8.449,8.449,0,0,0,6.061-.59,9.829,9.829,0,0,0,1.9.186h.171a17.631,17.631,0,0,0,7.706-1.962,9.39,9.39,0,0,0,1.967-1.15c.273-.18.54-.369.805-.565a.488.488,0,0,0,.191-.3,15.064,15.064,0,0,0,3.533-6.023,9.969,9.969,0,0,0,.565-5.329,7.306,7.306,0,0,0-4.092-4.812A11.124,11.124,0,0,0,347.277,162.078Zm-1.018,18.2c-2.426.4-4.754.663-6.533-.48a5.769,5.769,0,0,1-2.229-3.117,8.406,8.406,0,0,1,.947-7.052,12.386,12.386,0,0,1,4.4-3.807,12.982,12.982,0,0,1,6.292-1.933,8.029,8.029,0,0,1,.883.047c2.22.244,4.754,1.772,5.3,4.221a7.147,7.147,0,0,1-.182,3.323A13.46,13.46,0,0,1,352,177.448a10.786,10.786,0,0,1-3.231,2.379C347.936,180,347.092,180.143,346.259,180.28Z"/><path d="M268.6,180.975l.6-.032a.5.5,0,0,0,.219-.935,15.884,15.884,0,0,0-12.74-1.146h0c-3.419,1.175-6.112,3.514-8.477,7.362a.5.5,0,0,0,.72.665,26.978,26.978,0,0,1,4.535-2.879,10.717,10.717,0,0,1,2.036-.709,14.587,14.587,0,0,0-4.094,3.714,42.692,42.692,0,0,0-2.756,4.209c-.575.959-1.171,1.951-1.805,2.885-1.869,2.756-3.817,4.49-5.956,5.3a.5.5,0,0,0,.177.968l.039,0c3.253-.257,6.645-1.839,10.083-4.7,1.455-1.211,2.825-2.551,4.151-3.847,1.253-1.225,2.551-2.494,3.906-3.639a.5.5,0,0,0-.457-.863l-1.636.459a21.929,21.929,0,0,1,17.347-2.1.5.5,0,0,0,.465-.866A26.63,26.63,0,0,0,268.6,180.975Z"/><path d="M388.462,159.408a.5.5,0,0,0-.169-.9,26.369,26.369,0,0,0-17.361,2.146,48.026,48.026,0,0,1,5.629-6.116.5.5,0,0,0-.515-.836c-7.955,3.033-14.779,10.043-16.6,17.045a.5.5,0,0,0,.258.571.48.48,0,0,0,.226.055.5.5,0,0,0,.387-.183,19.373,19.373,0,0,1,13.146-6.928L371,165.964a.5.5,0,0,0,.485.869c4.011-1.749,8.757-.587,12.868.781l1.1.368c4,1.35,8.145,2.75,12.422,2.019a19.965,19.965,0,0,0,8.548-5.545.5.5,0,0,0-.644-.754c-2.726,1.791-6.359,1.161-9.847.363L385.18,161.6Z"/><path d="M341.942,195.169l-.083-.015c.864-.138,1.735-.238,2.608-.3a.5.5,0,0,0,.14-.967c-2.365-.877-5.29-1.523-10.642-.325a.513.513,0,0,0-.254.146l-3.321,3.527a.5.5,0,0,0,.564.8,14.747,14.747,0,0,1,2.335-.789l-2.593,2.2a.5.5,0,0,0,.324.881.486.486,0,0,0,.145-.022,45.853,45.853,0,0,1,14.272-1.955.51.51,0,0,0,.446-.253.5.5,0,0,0-.012-.513A5.8,5.8,0,0,0,341.942,195.169Z"/><path d="M301.03,206.17a.5.5,0,0,0-.151-.506,4.117,4.117,0,0,0-1.733-.908l1.358-1.319a.5.5,0,0,0,.108-.566.5.5,0,0,0-.5-.291,12.285,12.285,0,0,0-8.82,5.008.5.5,0,0,0,.631.739l.667-.335a14.571,14.571,0,0,0-1.72,3.142.5.5,0,0,0,.809.546c2.14-2.036,4.108-3.753,6.541-4.135a.508.508,0,0,0,.236-.1,4.318,4.318,0,0,1,2.184-.912A.5.5,0,0,0,301.03,206.17Z"/><path d="M301.745,191.951a6.223,6.223,0,0,0,.211-.895,5.846,5.846,0,0,1,.145,1.465.5.5,0,0,0,.443.51l.057,0a.5.5,0,0,0,.49-.4,22.681,22.681,0,0,0-7.289-21.3,9.536,9.536,0,0,0-4.865-2.025l-.249-.048a.5.5,0,0,0-.3.946,18.406,18.406,0,0,1,9.15,9.358,9.7,9.7,0,0,1,.874,5.725,5.027,5.027,0,0,1-3.236,3.887,3.227,3.227,0,0,0-.328.085.5.5,0,0,0,.255.965c.105-.022.209-.048.313-.079a3.128,3.128,0,0,1,3.39,1.83.525.525,0,0,0,.482.319A.5.5,0,0,0,301.745,191.951Z"/><path d="M297.615,188.226a8.738,8.738,0,0,0,1.7-2.129,3.273,3.273,0,0,0,.321-1.385c.013-.171.025-.342.052-.51.553-3.465-1.114-7.144-4.573-10.1a11.88,11.88,0,0,0-10.674-2.5,10.723,10.723,0,0,0-7.57,7.848.485.485,0,0,0,0,.221,28.437,28.437,0,0,0,2.5,7.379,9.971,9.971,0,0,0,6.032,5.044,8.507,8.507,0,0,0,2.049.237,15.3,15.3,0,0,0,4.023-.637C294.493,190.869,296.546,189.705,297.615,188.226ZM280.736,178.8a8.211,8.211,0,0,1,7.719-5.167,7.9,7.9,0,0,1,1.29.105,10.564,10.564,0,0,1,7.97,7.323,8.6,8.6,0,0,1-.622,5.494c-1.176,1.659-3.292,2.581-5.224,3.321a9.2,9.2,0,0,1-4.934.887,7.115,7.115,0,0,1-4.077-2.882C281.1,185.632,279.626,182.069,280.736,178.8Z"/><path d="M232.7,285.716l-.23,21.438a.5.5,0,0,0,.44.5.412.412,0,0,0,.06,0,.5.5,0,0,0,.487-.385c1.886-7.987,4.025-17.04,2.216-25.735-1-4.809-3.372-10.061-5.306-10.215a.48.48,0,0,0-.477.255.5.5,0,0,0,.034.54C232.583,275.731,232.752,280.414,232.7,285.716Z"/><path d="M260.589,142.78a12.046,12.046,0,0,1,7.247.474.5.5,0,0,0,.491-.859L266.5,140.96a70.3,70.3,0,0,1,12.96-1.442.5.5,0,0,0,.332-.867,27.081,27.081,0,0,1-2.873-3.132,6.277,6.277,0,0,1,1.549.8.5.5,0,0,0,.772-.541l-.711-2.57a1.527,1.527,0,0,1,.887-.1,1.453,1.453,0,0,1,1.006.624.5.5,0,0,0,.918-.334c-.677-4.966-4.21-9.052-7.048-12.335a.5.5,0,0,0-.78.624,21.12,21.12,0,0,1,3.384,7.072l-4.287.171a.5.5,0,0,0-.321.866l1.794,1.67a3.4,3.4,0,0,0-1.117.672,8.449,8.449,0,0,0-.955,1.042c-.16.2-.321.393-.493.58a6.6,6.6,0,0,1-6.471,1.864.5.5,0,0,0-.384.914,12.061,12.061,0,0,0,1.825.868A11.664,11.664,0,0,0,260.067,142a.5.5,0,0,0,.522.782Z"/><path d="M357.865,123.011a.5.5,0,0,0,.549-.247l1.116-2.033a10.175,10.175,0,0,1-1.1,3.686.5.5,0,0,0,.7.664,12.21,12.21,0,0,1,4.69-1.585l-1.6,1.834a.5.5,0,0,0,.37.829,16.143,16.143,0,0,0,6.582-1.329l-1.421,1.752a.5.5,0,0,0,.388.815.493.493,0,0,0,.266-.076l20.737-12.984a.5.5,0,0,0-.35-.917c-5.982,1.032-12.684,2.188-18.147,5.745a11.434,11.434,0,0,1,1.529-1.916.5.5,0,0,0-.517-.826,12.059,12.059,0,0,0-5.716,4.154,7.758,7.758,0,0,1-1.137-4.672.5.5,0,0,0-.941-.272l-1.619,3.1c-2.156-3.372-2.326-8.244-.387-12.666a.5.5,0,0,0-.906-.423,33.884,33.884,0,0,0-3.469,16.9A.5.5,0,0,0,357.865,123.011Z"/><path d="M368.234,269.1a.5.5,0,0,0-.983.134,30.454,30.454,0,0,1-3.977,15.547,10.1,10.1,0,0,0-.982,2.427,3.627,3.627,0,0,1-.482,1.186.5.5,0,0,0,.647.733,15.325,15.325,0,0,0,6.115-6.388,31.783,31.783,0,0,0,10.055,11.6.5.5,0,0,0,.649-.755C372.9,286.9,370.419,277.445,368.234,269.1Z"/><path d="M346.391,166.378a2.36,2.36,0,0,0-2.411.393,5.336,5.336,0,0,0-1.325,1.773.5.5,0,0,0,.016.5.558.558,0,0,0,.436.237c.8-.032.889.218.962.406a3.823,3.823,0,0,1,.188,1.085,3.281,3.281,0,0,1-.117,1.544c-.146.339-.522.65-.848.568a.5.5,0,0,0-.562.72,9.025,9.025,0,0,0,2.323,2.8,1.694,1.694,0,0,0,1.028.438,1.014,1.014,0,0,0,.44-.1,1.422,1.422,0,0,0,.634-.724,11.018,11.018,0,0,0,.655-7.613A2.9,2.9,0,0,0,346.391,166.378Z"/><path d="M287.721,178.907c.781-.033.888.217.961.405a3.9,3.9,0,0,1,.189,1.084,3.277,3.277,0,0,1-.119,1.546c-.146.339-.52.649-.847.568a.5.5,0,0,0-.562.719,9.021,9.021,0,0,0,2.324,2.8,1.692,1.692,0,0,0,1.027.438,1.018,1.018,0,0,0,.438-.1,1.428,1.428,0,0,0,.635-.723,11,11,0,0,0,.655-7.612,2.89,2.89,0,0,0-1.418-2.02,2.361,2.361,0,0,0-2.411.393,5.319,5.319,0,0,0-1.325,1.774.5.5,0,0,0,.018.495A.474.474,0,0,0,287.721,178.907Z"/><path d="M327.749,128.444a.5.5,0,0,0-.123-.458.51.51,0,0,0-.452-.148c-1.052.188-1.536,1.254-1.9,2.058-.263.577-.751,1.223-1.214,1.114-.554-.117-.638-1.093-.6-1.651.051-.761.163-1.534.27-2.281a14.87,14.87,0,0,0,.227-4,.5.5,0,0,0-.949-.148,35.627,35.627,0,0,0-3.194,11.121.5.5,0,0,0,.946.278l.549-1.121-.157,7.886a.5.5,0,0,0,.97.181,12.317,12.317,0,0,1,2.957-4.543l-.374,1.822a.5.5,0,0,0,.922.35c1.763-3.05,4.667-5.033,7.744-7.132a39.927,39.927,0,0,0,5.676-4.395.5.5,0,0,0,.094-.582.492.492,0,0,0-.525-.267,25.15,25.15,0,0,0-11.646,5.217Z"/><path d="M337.767,134.3a20.659,20.659,0,0,0,.5-2.653.5.5,0,0,0-.918-.321,27.332,27.332,0,0,0-4.307,13.688.5.5,0,0,0,.9.317,20.093,20.093,0,0,1,8.929-6.427,61.878,61.878,0,0,1,10.939-2.871.5.5,0,0,0,.01-.978,23,23,0,0,0-13.291,1.057,9.087,9.087,0,0,0,.788-1.467.5.5,0,0,0-.117-.558.5.5,0,0,0-.563-.086l-3.152,1.533C337.572,135.127,337.668,134.719,337.767,134.3Z"/><path d="M304.71,137.6a.5.5,0,0,0,.819-.521l-.191-.57a.494.494,0,0,0,.289-.018.5.5,0,0,0,.324-.415l.051-.469a25.3,25.3,0,0,1,2.94,10.874c0,.407.009.812.015,1.217a.5.5,0,0,0,.5.492h0a.5.5,0,0,0,.5-.493c0-.412,0-.824-.015-1.236-.037-4.289.086-8.607.368-12.879a7.975,7.975,0,0,0,.949,1.339.5.5,0,0,0,.45.164.5.5,0,0,0,.381-.288l3.355-7.395a.5.5,0,0,0-.709-.637,8.57,8.57,0,0,0-2.679,2.495,38.407,38.407,0,0,0-1.909-5.915.508.508,0,0,0-.506-.307.5.5,0,0,0-.444.391l-1.438,6.56a25.581,25.581,0,0,0-4.323-5.814.5.5,0,0,0-.8.591,17.777,17.777,0,0,1,2.073,6.78l-.676-.454a.5.5,0,0,0-.764.538l.385,1.528a2.69,2.69,0,0,0-2.116.809.5.5,0,0,0,.049.67Z"/><path d="M285.576,145.061a31.038,31.038,0,0,1,8.313-.961,10.125,10.125,0,0,1,7.2,3.256.5.5,0,0,0,.386.182.507.507,0,0,0,.176-.032.5.5,0,0,0,.324-.483,10.939,10.939,0,0,0-2.359-6.4,5.15,5.15,0,0,1,.47.323.5.5,0,0,0,.713-.684c-2.407-3.377-4.679-6.272-8.109-7.477a.5.5,0,0,0-.6.711c.245.449.5.9.762,1.363a30.617,30.617,0,0,1,2.4,4.893,9.368,9.368,0,0,0-7.838.649.5.5,0,0,0-.247.405.494.494,0,0,0,.2.428,10.5,10.5,0,0,0,1.869,1.108l-3.959,1.777a.5.5,0,0,0-.27.611A.494.494,0,0,0,285.576,145.061Z"/><path d="M256.292,173.584a.5.5,0,0,0,.181-.034,31.414,31.414,0,0,1,6.468-2,10.252,10.252,0,0,1,6.393.858.5.5,0,0,0,.622-.761L267.8,169.08l6.162.525a.515.515,0,0,0,.5-.292.5.5,0,0,0-.111-.567,12.7,12.7,0,0,0-13.718-2.332.5.5,0,0,0,.163.953,4.222,4.222,0,0,1,2.607,1.258,16.27,16.27,0,0,0-7.44,4.085.5.5,0,0,0,.332.874Z"/><path d="M376.935,142.831a.5.5,0,0,0-.457-.373,19.3,19.3,0,0,0-10.965,2.726h0a11.438,11.438,0,0,0-4.4,4.165.5.5,0,0,0,.739.639,7.572,7.572,0,0,1,3.955-1.48,8.155,8.155,0,0,0-2.082,3.439.5.5,0,0,0,.479.645.493.493,0,0,0,.3-.1,24.945,24.945,0,0,1,20.509-4.416.5.5,0,0,0,.4-.893,16.318,16.318,0,0,0-10.054-2.946l1.351-.854A.5.5,0,0,0,376.935,142.831Z"/><path d="M438.269,273.967a59.806,59.806,0,0,1,22.7,20.193.5.5,0,0,0,.416.224.511.511,0,0,0,.212-.047.5.5,0,0,0,.268-.6,36.169,36.169,0,0,0-9.638-15.723l5.914,2.6a.5.5,0,0,0,.575-.79l-2.63-2.965a54.316,54.316,0,0,1,9.2,6.029.5.5,0,0,0,.678-.732,45.562,45.562,0,0,0-22.437-13.052.5.5,0,0,0-.284.957,30.058,30.058,0,0,1,7.443,3.892,52.7,52.7,0,0,0-12.211-.938.5.5,0,0,0-.207.946Z"/><path d="M410.164,232.857a.5.5,0,0,0-.374-.195.468.468,0,0,0-.391.159,3.227,3.227,0,0,0-.544,3.14,7.4,7.4,0,0,0,1.61,2.85l-4.173-1.482a.5.5,0,0,0-.556.156.5.5,0,0,0-.037.577,26.56,26.56,0,0,0,18.707,12.223.547.547,0,0,0,.069,0,.5.5,0,0,0,.166-.972,16.34,16.34,0,0,1-7.679-5.723,27.946,27.946,0,0,0,16.519,2.09.5.5,0,0,0-.077-.993A30.817,30.817,0,0,1,410.164,232.857Z"/><path d="M292.35,231.879a1.467,1.467,0,0,0-1.148.544.5.5,0,0,0-.524.265l-.968,1.885a.5.5,0,0,0,.445.729.494.494,0,0,0,.312-.11l.213-.171.006.005a.5.5,0,0,0,.644.006,3.076,3.076,0,0,0,.958-1.4.508.508,0,0,0,.023-.2l.476-.8a.5.5,0,0,0,0-.506A.474.474,0,0,0,292.35,231.879Z"/><path d="M296.7,229.487a.5.5,0,0,0-.611-.63,2.4,2.4,0,0,0-1.625,1.61c-.03.02-.061.041-.092.06a.5.5,0,0,0,.519.855l.415-.243a.5.5,0,0,0,.621-.15,1.226,1.226,0,0,0,.1-.16,1.267,1.267,0,0,1,.227-.247l.42-.246a.5.5,0,0,0,.2-.651A.505.505,0,0,0,296.7,229.487Z"/><path d="M300.327,226.871a3.541,3.541,0,0,0-.559.338l-.812.452a.5.5,0,0,0,.244.937.486.486,0,0,0,.145-.022,4.027,4.027,0,0,0,1.559-.9.5.5,0,0,0-.577-.807Z"/><path d="M304.813,225.654l.176-.056a.454.454,0,0,0,.366.128.525.525,0,0,0,.385-.218.533.533,0,0,0,.105-.31.5.5,0,0,0,.055-.405.5.5,0,0,0-.609-.341l-.025.007a.542.542,0,0,0-.159.048l-.6.195a.5.5,0,0,0,.308.952Z"/><path d="M288.262,227.373a.5.5,0,0,0-.512-.016.5.5,0,0,0-.262.157.534.534,0,0,0-.137.007.5.5,0,0,0-.336.23l-.807,1.321a.5.5,0,0,0,.082.623.508.508,0,0,0,.473.121l.021.012a.5.5,0,0,0,.676-.177l.961-1.6A.5.5,0,0,0,288.262,227.373Z"/><path d="M286.965,222.771a.5.5,0,0,0-.858-.156l-.873,1.057a.5.5,0,0,0,.667.731,1.518,1.518,0,0,1,.841-.339.5.5,0,0,0,.385-.221.5.5,0,0,0,.056-.442Z"/><path d="M289.491,221.423c-.249-.363-.642-.15-.9,0a.471.471,0,0,0-.14.113l-.03.019a.505.505,0,0,0-.2.223l-.159.356a.5.5,0,0,0,.457.7.485.485,0,0,0,.156-.025,1.812,1.812,0,0,0,.948-.73.494.494,0,0,0-.019-.536A.414.414,0,0,0,289.491,221.423Z"/><path d="M340.939,215.283a.494.494,0,0,0-.07.381,1.029,1.029,0,0,0,.133.326.5.5,0,0,0,.378.453c.134.034.268.062.4.086l.06.011a6.563,6.563,0,0,0,2.953-.171.5.5,0,0,0,.052-.941,6.253,6.253,0,0,0-3.588-.362A.5.5,0,0,0,340.939,215.283Z"/><path d="M335.822,215.637l-1.413.107a.5.5,0,0,0-.048.99l.3.055.047.009h0a1.515,1.515,0,0,0,.25.021,3.272,3.272,0,0,0,.846-.152l.177-.047a.5.5,0,0,0,.368-.565A.491.491,0,0,0,335.822,215.637Z"/><path d="M337.279,222.512h.077a1.357,1.357,0,0,0,1.031-.367.665.665,0,0,0,.089-.535.5.5,0,0,0-.636-.313l-.7.24a.5.5,0,0,0,.142.974Z"/><path d="M328.892,222.182c1.612-.2,1.7-.226,1.826-.255a.5.5,0,0,0,.376-.578.512.512,0,0,0-.559-.4l-1.774.245a.5.5,0,0,0,.068,1A.444.444,0,0,0,328.892,222.182Z"/><path d="M375.524,92.3c.28-.444.589-.925.853-1.345q-.672.829-1.335,1.667a88.614,88.614,0,0,0-8.258,11.93c-1.224,2.472-2.718,5.1-2.654,7.933.5-3.326,2.733-6.14,4.377-9C370.866,99.77,373.165,96.017,375.524,92.3Z"/><path d="M369.046,105.752c-.952,1.624-2.313,3.4-2.085,5.372a4.8,4.8,0,0,1,.933-2.624,41.433,41.433,0,0,1,3.707-4.8,103.347,103.347,0,0,1,7.837-8.383c.394-.362.837-.75,1.219-1.077q-.678.449-1.335.93A43.946,43.946,0,0,0,369.046,105.752Z"/><path d="M369.465,111.4a8.193,8.193,0,0,1,3.339-3.213c3.79-2.121,7.921-2.514,12.394-2.62,1.538-.025,3.114.009,4.63.1-.652-.122-1.306-.235-1.962-.334-4.455-.626-9.32-1.143-13.436,1.061C372.366,107.466,370.2,109.1,369.465,111.4Z"/><path d="M261.174,120.661a80.92,80.92,0,0,0,9.471,4.007A38.826,38.826,0,0,0,261.174,120.661Z"/><path d="M255.348,124.859c2.949.111,6.344.587,8.4.855,2.151.386,4.459.292,6.827,1.4C266.356,124.4,259.4,124.536,255.348,124.859Z"/><path d="M265.382,114.857a40.364,40.364,0,0,0-14.663-2.07c-.4.01-.952.02-1.24.044.941.077,1.881.182,2.818.3,4.07.574,8.677,1.43,12.863,2.418,1.623.5,3.384.717,4.671,1.787C268.722,116.022,266.919,115.518,265.382,114.857Z"/><path d="M569.789,309.281H485.564c-.3-.687-.6-1.391-.933-2.127l-.619-1.371c-3.591-7.943-7.3-16.149-6.414-24.58l4.484,2.832a.5.5,0,0,0,.727-.619l-5.4-12.646,4.029,3.4a.5.5,0,0,0,.787-.566,45.193,45.193,0,0,0-13.63-18.456c-.636-.841-1.248-1.7-1.8-2.613a23.942,23.942,0,0,1-1.575-3.054,19.827,19.827,0,0,0,7.768,2.677.4.4,0,0,0,.059,0,.5.5,0,0,0,.255-.93,52.858,52.858,0,0,1-7.8-5.645,16.335,16.335,0,0,0,3.95,1,.493.493,0,0,0,.547-.38.5.5,0,0,0-.317-.587c-4.053-1.459-6.876-5.7-8.389-12.6-.179-.815-.346-1.641-.514-2.471a44.516,44.516,0,0,0-2.265-8.386l3.95,4.331a.5.5,0,0,0,.859-.434,34.28,34.28,0,0,0-8.613-16.651l-3.2-5.488a24.289,24.289,0,0,0,5.725,3.555.5.5,0,0,0,.467-.882c-5.059-3.165-7.21-9.324-8.981-15.361-1.124-3.835-2.44-8.316-4.886-11.964A17.656,17.656,0,0,1,446.6,180.9a.5.5,0,0,0,.791-.481,12.208,12.208,0,0,0-4.665-7.707c.02-.008.039-.02.059-.028a14.494,14.494,0,0,1,7.239,4.871.5.5,0,0,0,.656.118.5.5,0,0,0,.19-.64l-2.307-4.867a15.916,15.916,0,0,0,11.28.685.5.5,0,0,0,.341-.56.49.49,0,0,0-.5-.417,14.568,14.568,0,0,1-12.626-7.135l3.553,1.874a.5.5,0,0,0,.689-.65,31.34,31.34,0,0,0-9.411-11.836l2.3.168a.506.506,0,0,0,.493-.3.5.5,0,0,0-.11-.563,10.925,10.925,0,0,0-5.427-2.823l1.568-1.54a.5.5,0,0,0-.454-.845c-1,.209-2,.371-3.006.509a5.667,5.667,0,0,1-2.556-1.161,17.834,17.834,0,0,1-2.143-2.05c-.239-.254-.478-.509-.721-.759a24.835,24.835,0,0,0-4.1-3.4,79.6,79.6,0,0,1,9.7,1.548.506.506,0,0,0,.523-.208.5.5,0,0,0,0-.564,21.217,21.217,0,0,0-17.83-8.882,26.13,26.13,0,0,0,9.387-13.239.5.5,0,0,0-.954-.3c-.877,2.709-4.469,3.41-5.973,3.585-.549.064-1.108.111-1.669.157a21.55,21.55,0,0,0-3.991.583,16.889,16.889,0,0,1,5.91-3.619.5.5,0,0,0-.136-.971,19.661,19.661,0,0,0-5.512.465l.078-.058a.5.5,0,0,0-.442-.882l-6.1,1.9a10.784,10.784,0,0,1,2.062-2.517l5.753-3.391a.5.5,0,0,0,.225-.572.512.512,0,0,0-.5-.359,14.411,14.411,0,0,1-8.688-2.568,8.293,8.293,0,0,1,2.69-9.506.5.5,0,0,0-.257-.905,9.744,9.744,0,0,0-4.869,1.4c-.391.192-.78.384-1.17.558a5.658,5.658,0,0,1-4.465.371,9.874,9.874,0,0,0,5.719-5.238.5.5,0,0,0-.776-.587,2.633,2.633,0,0,1-2.716.136,8.165,8.165,0,0,1-2.447-2.087,113.218,113.218,0,0,1-12.246-16.461c.112-.063.223-.128.336-.19a32.659,32.659,0,0,1,3.853-1.679c-.739.178-1.47.391-2.192.629-.751.272-1.491.565-2.227.868-1.445-2.38-2.814-4.808-4.081-7.291a3.44,3.44,0,0,0-1.776-1.915,3.235,3.235,0,0,0-2.027.17c-8.732,2.885-14.859,9.314-18.461,14.2a73.486,73.486,0,0,0-8.162,14.791,9.73,9.73,0,0,0-.105-2.332.5.5,0,0,0-.9-.2,21.018,21.018,0,0,1-7.356,6.4,10.2,10.2,0,0,0-2.45-5.361.5.5,0,0,0-.469-.149.5.5,0,0,0-.37.323l-.284.811-.745-1.646a.5.5,0,0,0-.939.077,9.857,9.857,0,0,1-1.494,3.172,8.15,8.15,0,0,0-.433-2.029.5.5,0,0,0-.389-.327.49.49,0,0,0-.475.182l-4.43,5.6.359-2.453a.5.5,0,0,0-.9-.368,19.568,19.568,0,0,0-3.494,8.669A21.591,21.591,0,0,0,321.4,110.6a18.389,18.389,0,0,1,1.563-2.365.5.5,0,0,0-.535-.787,17.651,17.651,0,0,0-7.126,4.074l-5.506-2.029a.5.5,0,0,0-.606.218.5.5,0,0,0,.11.634,3.773,3.773,0,0,1,.793.923c-2.705-.73-5.418-1.54-8.081-2.411a.5.5,0,0,0-.617.667l.514,1.239a5.645,5.645,0,0,0-2.267.143,28.6,28.6,0,0,0-2.747-3.842.5.5,0,0,0-.8.591,7.144,7.144,0,0,1,.925,2.264c-.019.013-.039.025-.056.039a7.8,7.8,0,0,1-4.467-4.92.492.492,0,0,0-.514-.356.5.5,0,0,0-.46.423l-.157,1.037-.808-1.426a.5.5,0,0,0-.671-.195,11.5,11.5,0,0,0-5.412,6.244,32.925,32.925,0,0,0-2.628-6.039,1.281,1.281,0,0,0-.085-.148.5.5,0,0,0-.852.521c.027.048.056.1.083.146.639,1.324.987,7.14.814,9.439-3.731-1.743-11-5.5-16.895-8.556-4.053-2.1-7.254-3.754-8.189-4.177l-.431-.195c-8.04-3.646-13.929-5.976-17.5-6.924a3.423,3.423,0,0,0-2.823.216c-.807.518-1.311,1.512-1.586,3.127-1.092,6.4.355,12.419,2.031,19.388.049.2.1.422.148.627l-.5.11c-1.144.276-2.316.58-3.429.895,1.226-.23,2.763-.472,4.018-.652.217.907.436,1.812.653,2.757a61.383,61.383,0,0,0,6.561,15.971c-4.069,2.577-7.882,5.409-11.266,7.875-.913.693-1.973,1.5-2.782,2.154q2.755-1.644,5.534-3.252c2.75-1.469,5.936-3.381,9.333-5.324,1.214,2.122,2.475,4.21,3.726,6.278.179.3.365.589.556.879a2.489,2.489,0,0,1-.29.91,4.117,4.117,0,0,1-3.115,1.612c-.287.043-.578.079-.868.115a15.1,15.1,0,0,0-1.917.33,14.5,14.5,0,0,0-6.659,1.46.5.5,0,0,0,.409.911,7.223,7.223,0,0,1,7.405,1.424l-3.849.22a.506.506,0,0,0-.378.207.5.5,0,0,0-.076.423,42.436,42.436,0,0,0,4.09,9.89l-3.448.211a.5.5,0,0,0-.351.823,5.7,5.7,0,0,0,1.831,1.423A22.354,22.354,0,0,0,237.567,168a.5.5,0,0,0,.235.916q1.137.093,2.278.092a28.915,28.915,0,0,0,6.239-.695,20.21,20.21,0,0,1-6.647,4.056c-4.064,1.551-8.479,2.078-12.749,2.59a.5.5,0,0,0-.151.949,16.807,16.807,0,0,0,5.393,1.464l.077.019a16.654,16.654,0,0,0-4.461,2.12.5.5,0,0,0,.2.908l1.954.3a10.571,10.571,0,0,0-3.024,3.149c-.346.518-.671,1.052-1,1.586a19.215,19.215,0,0,1-2.2,3.145,5.289,5.289,0,0,1-4.665,1.972.5.5,0,0,0-.421.869,8.037,8.037,0,0,0,5.331,1.8,11.586,11.586,0,0,0,2.247-.226c.241-.048.475-.121.712-.181a14.146,14.146,0,0,0-2.391,5.351c-.183.879-.28,1.778-.375,2.646a22.532,22.532,0,0,1-.476,3.054c-.247.973-1.042,3.317-3.083,4.052a.5.5,0,0,0,.045.956,7.142,7.142,0,0,0,6.186-1.368,6.255,6.255,0,0,1-.388,4.043,17.954,17.954,0,0,1-10.557,5.172.5.5,0,0,0-.108.97l2.33.81a17.8,17.8,0,0,0-6.812,9.536.5.5,0,0,0,.761.551l3.152-2.148a18.265,18.265,0,0,1-7.131,10.727.5.5,0,0,0,.262.907,5.373,5.373,0,0,0,2.425-.44,28.546,28.546,0,0,0-3.2,12.748,19.971,19.971,0,0,1-6.922,8.022c-3.86,2.71-8.358,4.4-12.709,6.029a.5.5,0,0,0,.259.961l6.035-1.021c-10.671,7.039-22.053,14.7-31.944,23.951A157.107,157.107,0,0,0,143,303.776c-1.805,1.658-3.739,3.522-5.763,5.5h-97.4a.5.5,0,0,0-.5.5v18a.5.5,0,0,0,.5.5H256.78a6.933,6.933,0,0,0,.511.545,15.381,15.381,0,0,0,7.225,3.373,86.733,86.733,0,0,0,9.927,1.727,4.082,4.082,0,0,0,.45.539,4.3,4.3,0,0,0,3.008,1.205,4.575,4.575,0,0,0,.708-.056,5.571,5.571,0,0,0,2.516-1.157c1.508.068,3.026.11,4.562.11q2.99,0,6.044-.172c3.683-.209,7.242-.582,10.32-2.817a11.424,11.424,0,0,0,2.905-3.3h63.828c.116.075.222.163.34.235a11.865,11.865,0,0,0,3.231,3.838c3.093,2.237,6.666,2.608,10.361,2.816q3.066.173,6.068.173c1.542,0,3.068-.043,4.582-.111a5.583,5.583,0,0,0,2.525,1.158,4.612,4.612,0,0,0,.711.055,4.318,4.318,0,0,0,3.018-1.2,4.035,4.035,0,0,0,.451-.54,87.129,87.129,0,0,0,9.91-1.714,3.71,3.71,0,0,0,.414.375A3,3,0,0,0,412.2,334a2.4,2.4,0,0,0,.622-.079,3.707,3.707,0,0,0,1.806-1.264,6.223,6.223,0,0,0,1.112-1.877,11.217,11.217,0,0,0,1.55-1.18,7.251,7.251,0,0,0,1.111-1.329c.009,0,.016.006.025.006h151.36a.5.5,0,0,0,.5-.5v-18A.5.5,0,0,0,569.789,309.281Zm-168.379,17.2a1.578,1.578,0,0,0-1.443-1.536,1.529,1.529,0,0,0-1.448,1.406,9.874,9.874,0,0,1-1.487,4.021c-2.04,2.788-5.318,3.744-7.974,2.316a4.042,4.042,0,0,1-2.012-2.3,9.288,9.288,0,0,1,.207-4.469l.152-.757a26.251,26.251,0,0,0-1.134-13.793.783.783,0,0,0-.9-.541.915.915,0,0,0-.657,1.009,39.154,39.154,0,0,1-1.346,13.674A8.746,8.746,0,0,1,382.1,328.4c-.422.541-1.149,1.055-1.8.739a3.8,3.8,0,0,1-1.08-1.079,3.832,3.832,0,0,0-1.639-1.438c-.783-.264-1.534.358-2.255.96-.409.342-.917.767-1.2.773-.447-.011-2.256-1.323-3.7-2.563-.235-.432-.454-.882-.66-1.346-.143-.712-.265-1.457-.379-2.22a44.821,44.821,0,0,1-.158-8.582.5.5,0,0,0-.948-.243,15.612,15.612,0,0,0-1.1,10.241,10.666,10.666,0,0,1-3.489-8.914,14.488,14.488,0,0,1,5.246-9.818c2.4-1.99,5.529-4.111,8.476-2.862l.113.049a2.26,2.26,0,0,0,2.3.109,2.463,2.463,0,0,0,.734-1.07l.1-.216c.792-1.671,2.636-2.487,3.954-2.957,5.02-1.788,10.846-1.037,15.361-.182a38.058,38.058,0,0,1,6.046,1.706c.44.24.92.5,1.479.79a18.532,18.532,0,0,1,10.3,10.994,21.184,21.184,0,0,1-2.542,15.853,3.438,3.438,0,0,0-1.137-1.442.5.5,0,0,0-.455-.062.5.5,0,0,0-.314.335,11.412,11.412,0,0,1-1.3,3.277,1.031,1.031,0,0,1-.206-.23,4.213,4.213,0,0,1-.4-1.233,23.579,23.579,0,0,1-.391-4.676,19.43,19.43,0,0,0-.992-6.914.954.954,0,0,0-1.14-.675,1.173,1.173,0,0,0-.77,1.383,27.831,27.831,0,0,1,.172,8.1c-.488,3.316-2.351,6.9-4.964,7.35a1.205,1.205,0,0,1-1.3-.412,4.755,4.755,0,0,1-.406-2.41A27.205,27.205,0,0,0,401.41,326.483ZM277.475,329.6a9.886,9.886,0,0,1-1.482-4.023,1.512,1.512,0,0,0-1.417-1.406h-.026a1.577,1.577,0,0,0-1.44,1.538,26.759,26.759,0,0,0-.242,3.1,4.619,4.619,0,0,1-.406,2.338,1.192,1.192,0,0,1-1.29.412c-2.6-.446-4.455-4.035-4.942-7.349a27.981,27.981,0,0,1,.171-8.106,1.171,1.171,0,0,0-.77-1.383.955.955,0,0,0-1.136.676,19.518,19.518,0,0,0-.989,6.914,23.488,23.488,0,0,1-.388,4.675,4.14,4.14,0,0,1-.4,1.235.956.956,0,0,1-1.168.423,3.664,3.664,0,0,1-1.4-1.174,15.426,15.426,0,0,1-2.277-3.864.491.491,0,0,0,.014-.369l-.971-2.5a21.931,21.931,0,0,1-.141-10.185A18.491,18.491,0,0,1,267.05,299.5c.555-.293,1.032-.548,1.469-.788A37.731,37.731,0,0,1,274.544,297c4.5-.855,10.3-1.607,15.3.181,1.424.509,3.158,1.305,3.938,2.958l.1.213a2.49,2.49,0,0,0,.732,1.073,2.253,2.253,0,0,0,2.292-.111l.111-.047a4.849,4.849,0,0,1,2.9-.263,15.7,15.7,0,0,1,2.939,3.4.5.5,0,0,0,.916-.347c-.072-.461-.126-.909-.181-1.358.655.449,1.28.941,1.861,1.425a14.5,14.5,0,0,1,5.225,9.818,10.692,10.692,0,0,1-3.471,8.91,15.654,15.654,0,0,0-1.1-10.236.5.5,0,0,0-.948.241,44.934,44.934,0,0,1-.157,8.584c-.114.764-.236,1.509-.377,2.221-.206.463-.424.913-.659,1.345-1.434,1.239-3.236,2.55-3.679,2.562-.281-.006-.787-.43-1.194-.771-.717-.6-1.463-1.225-2.25-.96a3.8,3.8,0,0,0-1.633,1.437,3.778,3.778,0,0,1-1.076,1.078c-.648.316-1.369-.2-1.788-.737a8.673,8.673,0,0,1-1.257-2.886,39.288,39.288,0,0,1-1.339-13.674.915.915,0,0,0-.659-1.009.773.773,0,0,0-.9.542,26.335,26.335,0,0,0-1.13,13.792l.151.756a9.325,9.325,0,0,1,.207,4.469,4.028,4.028,0,0,1-2,2.3C282.766,333.341,279.5,332.387,277.475,329.6Zm81.944-22.338.342,2.019h-1.393Zm-203.04.217a.554.554,0,0,0,.362-.95,8.853,8.853,0,0,0-5.9-2.114h-.009c3.8-3.046,9.442-8.67,14.486-13.7,2.143-2.138,4.195-4.184,5.922-5.847,8.9-7.635,18.4-14.535,29-19.751a2.446,2.446,0,0,1-.759,2.018l-.135.112a.5.5,0,0,0,.631.776c.054-.042.105-.084.154-.128a9.759,9.759,0,0,1,7.76-1.956c-.014.392-.022.785-.048,1.175-.231,3.55-1.341,10.026-6.162,13.506a.5.5,0,0,0,.016.821,34.386,34.386,0,0,1,8.676,8.339,7.487,7.487,0,0,0-5.025,2.932.5.5,0,0,0,.15.728,37.9,37.9,0,0,1,5.145,3.653c.589,3.739,3.216,7.408,5.113,10.052a26.643,26.643,0,0,0,1.733,2.138h-7.124a21.316,21.316,0,0,0-17.873-.758l1.451-1.529a.5.5,0,0,0-.349-.844l-7.422-.207,9.08-7.777a.5.5,0,0,0-.478-.855l-6.714,2.158a117.014,117.014,0,0,1,15.366-11.233.5.5,0,0,0-.209-.924c-3.325-.348-7.442-.156-12.752,3.916a85.343,85.343,0,0,0-17.49,18.053h-21.1A11.021,11.021,0,0,1,156.379,307.479Zm23.98.27-1.234,1.532h-1.3ZM329.536,115.532a.5.5,0,0,0,.491.405h.039a.5.5,0,0,0,.461-.482,12.8,12.8,0,0,1,1.928-5.361l.106-.031a.5.5,0,0,0,.354-.55.573.573,0,0,0-.041-.123,17.158,17.158,0,0,1,3.457-3.929,6.384,6.384,0,0,0,.5,2.784.5.5,0,0,0,.949-.093,7.521,7.521,0,0,1,4.778-5.421,18.4,18.4,0,0,1,1.348,9.593.5.5,0,0,0,.4.557.493.493,0,0,0,.578-.372q.178-.724.353-1.459a.488.488,0,0,0,.125-.013.5.5,0,0,0,.333-.615,3.826,3.826,0,0,1-.134-.82c.134-.645.252-1.3.345-1.95a4.953,4.953,0,0,1,.363-.734,4.535,4.535,0,0,1,2.387-1.949l.745,4.447a.491.491,0,0,0,.51.417.5.5,0,0,0,.48-.45,9.044,9.044,0,0,1,.842-3,25.4,25.4,0,0,0,3.186,10.926.5.5,0,0,0,.911-.4c-1.314-3.9,0-8.278,1.34-12.076l.123-.346a54.154,54.154,0,0,0,1.716-5.521c1.024-1.816,1.971-3.668,2.9-5.491.767-1.506,1.562-3.064,2.383-4.565,2.488-4.551,6.065-10.174,11.683-13.284,2.238-1.239,4.214-1.628,5.863-1.157,1.862.528,3.253,2.113,4.48,3.746.353.47.68.958,1.017,1.438-7.844,3.6-14.633,9.042-18.943,16.694-1.515,3.13-3.4,6.709-2.566,10.266-.343-2.9,1.235-5.658,2.567-8.132,4.42-7.433,11.357-13.56,19.333-18.276,4.308,6.288,7.4,13.37,10.333,20.31l-2.961-1.3a.5.5,0,0,0-.593.77l3.573,4.486-2.037,1.04a.5.5,0,0,0,.036.907,10.082,10.082,0,0,1,3.835,2.81l-1.154.608a.5.5,0,0,0,.281.941c.31-.03.622-.039.934-.052.1,0,.2-.015.308-.017a17.9,17.9,0,0,1,3.253.22c.14.059.281.111.422.174a17.787,17.787,0,0,1,3.882,2.2,7.754,7.754,0,0,1,2.291,2.845,14.919,14.919,0,0,0-5.048,1.748h0a47.364,47.364,0,0,0-11.433,9.222.5.5,0,0,0,.622.768,15.344,15.344,0,0,1,5.108-1.859,15.267,15.267,0,0,1-5.408,4.791.5.5,0,0,0,.324.934l7.117-1.325a34.237,34.237,0,0,0-6.7,11.581.5.5,0,0,0,.761.568,21.843,21.843,0,0,1,9.741-3.77l-4.209,3.575a.5.5,0,0,0,.324.881.477.477,0,0,0,.118-.015,80.234,80.234,0,0,1,18.972-2.253,32.14,32.14,0,0,1,3.123,1.4,71.411,71.411,0,0,1,8.545,5.423,11.5,11.5,0,0,1-3.5,1.21A43.452,43.452,0,0,1,419.8,147.6a.5.5,0,0,0-.478.122c-.824.793-1.113,1.551-.859,2.256.461,1.285,2.783,2.093,6.9,2.4.439.033.884.062,1.33.093,3.014.2,6.116.409,8.657,1.751a7.794,7.794,0,0,0-3.557,1.844.5.5,0,0,0,.238.859,14.763,14.763,0,0,1,11.181,11.6,5.5,5.5,0,0,1-1.355.923,23.045,23.045,0,0,1-10.441,2.511h-.251a.552.552,0,0,0-.469.312.5.5,0,0,0,.118.55,19.1,19.1,0,0,0,6.084,3.633,26.911,26.911,0,0,1,6.307,8.56,65.386,65.386,0,0,1,3.978,11.394l-2.319-2.443a.5.5,0,0,0-.86.392,29.4,29.4,0,0,0,8.673,18.025l-1.314-.442a.5.5,0,0,0-.532.141.5.5,0,0,0-.08.544,6.82,6.82,0,0,0,1.446,2.026l-2.481-.273a.5.5,0,0,0-.407.851,27.836,27.836,0,0,1,7.831,15.474c.091.607.162,1.218.234,1.828a25.12,25.12,0,0,0,.752,4.267,10.086,10.086,0,0,0,1.182,2.6l-2.21-1.064a.5.5,0,0,0-.687.619,19.75,19.75,0,0,0,4.018,6.607,17.509,17.509,0,0,0,3.487,8.418,24.449,24.449,0,0,0,3.987,4.136,43.933,43.933,0,0,1,3.941,5.541,23.574,23.574,0,0,0-7.889-2.144.491.491,0,0,0-.517.331.5.5,0,0,0,.193.583,31.761,31.761,0,0,1,9.76,10.391,49.112,49.112,0,0,0-9.8-4.153.5.5,0,0,0-.446.877q.719.547,1.375,1.1l.014.011c.189.16.376.322.554.491,3.594,3.4,5.025,8.565,6.408,13.574.373,1.351.758,2.748,1.18,4.082a102.47,102.47,0,0,0,5.076,12.244c1.258,2.7,2.533,5.442,3.633,8.239H419.693a18.621,18.621,0,0,0-3.121-6.234,19.2,19.2,0,0,0-8.886-5.988,24.732,24.732,0,0,0-5.763-1.988c-4.506-.956-9.735-1.9-14.771-.962a18.009,18.009,0,0,0-6.4,2.53,30.67,30.67,0,0,1-3.669,1.878,7.321,7.321,0,0,1-2.219.445A12.552,12.552,0,0,0,368,301.547c-.215-1.359-.426-2.72-.648-4.074a.5.5,0,0,0-.461-.418.5.5,0,0,0-.511.356l-1.815,6.094-.231-8.127a.5.5,0,0,0-.582-.479,9.907,9.907,0,0,0-7.06,5.283c-1.706-3.757-1.791-8.271-1.867-12.29-.018-.934-.034-1.832-.071-2.678a.5.5,0,0,0-.459-.477.514.514,0,0,0-.531.395,64.8,64.8,0,0,0-.6,23.58.5.5,0,0,0,.966.087l1.424-4.065.552,4.547H312.843a13.153,13.153,0,0,0-4.463-6.982,19.73,19.73,0,0,0-5.042-3.252,23.252,23.252,0,0,1,1.256-8.1.5.5,0,0,0-.73-.593,11.742,11.742,0,0,0-5.021,6.634l-.533-4.343a.5.5,0,0,0-.42-.434.507.507,0,0,0-.531.287l-1.962,4.319c-.607-.32-1.159-.639-1.7-.952a17.943,17.943,0,0,0-6.384-2.53c-5.009-.935-10.223,0-14.714.962a24.532,24.532,0,0,0-5.741,1.989,19.112,19.112,0,0,0-8.848,5.987,19.474,19.474,0,0,0-3.351,7.041.46.46,0,0,0-.125-.032h-4.119l-.22-.552a.5.5,0,0,0-.426-.312.482.482,0,0,0-.47.243l-.367.621H247.16c-.077-.378-.151-.747-.217-1.088-.336-1.718-.528-2.636-.9-3.071a.5.5,0,0,0-.88.295c-.075,1.289-.1,2.578-.08,3.864h-6.863q1.726-3.44,3.475-6.87c11.055-21.5,22.054-44.122,38.025-61.688.8-.854,1.606-1.72,2.411-2.587a13.293,13.293,0,0,0,4.116,4.384.5.5,0,0,0,.747-.571l-.67-2.128a46.712,46.712,0,0,0,5.263,3.485c-5.852,11.747-9.559,26.174-12.624,36.967-.283,1.089-.658,2.5-.868,3.4q.95-2.644,1.907-5.286c3.355-9.2,6.643-18.427,10.089-27.595.892-2.247,1.783-4.533,2.75-6.814a33.44,33.44,0,0,0,4.533,1.887c1.02,1.9,1.961,3.846,2.792,5.828a.5.5,0,0,0,.957-.127,3.549,3.549,0,0,1,.417-1.251c.848,3.229,2.1,7.222,5.12,9.63a.5.5,0,0,0,.782-.559,6.93,6.93,0,0,1-.173-4.05,91.652,91.652,0,0,0,13.368,11.189.5.5,0,0,0,.625-.777,18.372,18.372,0,0,1-4.535-8.025,23.659,23.659,0,0,0,16.6,6.6.43.43,0,0,0,.469-.312.5.5,0,0,0-.121-.552l-3.094-2.917a14.647,14.647,0,0,1,10.774,6.11.5.5,0,0,0,.716.108,52.564,52.564,0,0,0,5.9,8.971.5.5,0,0,0,.388.183.459.459,0,0,0,.122-.016.5.5,0,0,0,.369-.389,28.35,28.35,0,0,0-2.315-17.665,21.089,21.089,0,0,0,19.166-8.919,11.838,11.838,0,0,0,3.114.4,15.472,15.472,0,0,0,3.183-.346,39.493,39.493,0,0,0,5.684-1.813c1.216-.457,2.474-.93,3.729-1.305a19.983,19.983,0,0,1,2.818-.635,258.9,258.9,0,0,1,18.3,19.2,126.54,126.54,0,0,1,8.173,10.526c.3.387.738,1.148.842,1.244a97.4,97.4,0,0,0-7.829-11.828,163.719,163.719,0,0,0-17.221-18.938l-.376-.356a9.477,9.477,0,0,1,4.551.96.5.5,0,0,0,.506-.86,17.856,17.856,0,0,0-7.983-2.824q-.985-.9-1.99-1.774a39.484,39.484,0,0,1,6.514-3.971c7.837,5.171,15.179,10.923,22.276,16.576,1.949,1.556,4.258,3.479,5.964,4.894q-2.284-2.249-4.638-4.424a202.59,202.59,0,0,0-22.072-17.75,39.352,39.352,0,0,1,12.143-3.1.5.5,0,0,0,.143-.961l-4.948-2.008a.5.5,0,0,0-.374-.526l-.221-.056a5.594,5.594,0,0,1-1.6-.738l4.223-.373a.5.5,0,0,0,.221-.922,38.3,38.3,0,0,0-8.836-4.075c.193-.268.4-.522.612-.778,12.018,5.057,23.653,11.035,35.6,16.984,2.236,1.124,4.561,2.3,6.736,3.42q-3.082-1.918-6.213-3.763a321.236,321.236,0,0,0-35.1-17.787,18.785,18.785,0,0,1,19.324-4.595.5.5,0,0,0,.387-.921c-.466-.222-.948-.409-1.428-.6.257-.013.493-.026.69-.039l-.844-.026a23.777,23.777,0,0,0-6.8-1.558l4.633-1.745a.5.5,0,0,0,.323-.441.489.489,0,0,0-.217-.419c1.526-.359,3.026-.81,4.5-1.257a.5.5,0,0,0-.16-.978,13,13,0,0,1-8.687-2.976l2.663-.713a.5.5,0,0,0,.211-.85,4.963,4.963,0,0,0-1.828-1.071c2.829-1.486,8.274-4.633,8.351-6.857A1.369,1.369,0,0,0,412,194.9a.5.5,0,0,0-.548.032A26.484,26.484,0,0,1,400,199.788a.5.5,0,0,0-.178.921,1.15,1.15,0,0,1,.519.94,2.149,2.149,0,0,1-.714,1.718,5.981,5.981,0,0,1-3.563.94.5.5,0,0,0-.352.824,6.939,6.939,0,0,0,1.931,1.563l-4.277.284a.5.5,0,0,0-.349.821,10.7,10.7,0,0,0,5.552,3.317,34.4,34.4,0,0,1-10.861,3.6.459.459,0,0,0-.158.082c-3.972.047-7.944.126-11.915.261q-3.7-1.246-7.331-2.278c-.018-.144-.02-.289-.043-.432.533-1.724-1.158-4.954-3.077-7.189a.5.5,0,0,0-.868.428c.436,2.107.874,4.256,1.122,6.418-7.91-2.049-15.4-3.156-21.8-2.764a.494.494,0,0,0,.121-.371.506.506,0,0,0-.542-.453l-1.3.118a.5.5,0,0,0,.044,1l.046,0,1.3-.118a.453.453,0,0,0,.1-.029,47.285,47.285,0,0,1,6.457.539.484.484,0,0,0-.2.3.5.5,0,0,0,.161.457,1.474,1.474,0,0,0,.978.357,1.49,1.49,0,0,0,1.1-.468.49.49,0,0,0,.117-.282q1.962.361,3.916.824a.5.5,0,0,0,.125.283,1.69,1.69,0,0,0,1.382.524,2.433,2.433,0,0,1,.461.372.5.5,0,0,0,.836-.483c2.284.594,4.565,1.238,6.847,1.872.036.6.06,1.2.054,1.795-4.386.2-8.767.523-13.123,1.048h-.006c-2.484.3-4.961.661-7.426,1.111-3.787.765-7.7,1.4-11.2,3.089a81.685,81.685,0,0,1,16.809-2.688c.27.03.539.069.805.122a.5.5,0,0,0,.145.226,3,3,0,0,0,2.137.722,1.413,1.413,0,0,0,.216.017.944.944,0,0,0,.6-.193.855.855,0,0,0,.318-.7,1.053,1.053,0,0,0-.079-.37.5.5,0,0,0,.126-.151c1.649-.123,3.3-.249,4.949-.4,1.888-.123,3.776-.224,5.665-.325a15.616,15.616,0,0,1-1.675,5.947,38.863,38.863,0,0,0-12.905-1.837,26.675,26.675,0,0,1,7.2,1.106c1.845.49,3.575,1.034,5.252,1.634a16.847,16.847,0,0,1-2.2,3.226c-.512-.236-1.025-.471-1.545-.693a78.209,78.209,0,0,0-7.835-2.818.478.478,0,0,0-.2-.239l-1.54-.883a.487.487,0,0,0-.241-.067c-.2-.135-.386-.28-.571-.432a.5.5,0,0,0-.553-.049.508.508,0,0,0-.261.5,1.109,1.109,0,0,0,.116.4,26.322,26.322,0,0,0-3.413-.416v-.006a.5.5,0,0,0-.255-.351,1.849,1.849,0,0,0-1.672-.147.649.649,0,0,0-.289.406l-.048.1a18.906,18.906,0,0,0-2.033.211,14.516,14.516,0,0,1,1.951-.044l-.085.171a.5.5,0,0,0,.332.708,1.992,1.992,0,0,0,.459.054,2.034,2.034,0,0,0,1.525-.687c.006-.007.007-.016.013-.023a32.181,32.181,0,0,1,4.8,1.178l.01.008a3.822,3.822,0,0,0,1.638.6.435.435,0,0,0,.061,0,.523.523,0,0,0,.069-.012c2.013.723,3.887,1.514,5.451,2.144,1.052.468,2.085.962,3.107,1.471a16.714,16.714,0,0,1-7.312,4.209c-.511.243-1.028.471-1.555.674a.5.5,0,0,0,.18.967l.053,0a19.152,19.152,0,0,0,10.672-4.782,96.055,96.055,0,0,1,14.943,9.952c-4.507,3.409-8.428,4.734-11.955,3.993a.5.5,0,0,0-.417.878,8.885,8.885,0,0,0,4.627,1.906,12.586,12.586,0,0,1-6.8.3.5.5,0,0,0-.56.256.5.5,0,0,0,.111.6,8.141,8.141,0,0,0,2.057,1.315,15.908,15.908,0,0,1-11.684,2.083,9.463,9.463,0,0,0,5.761-7.211.5.5,0,0,0-.8-.47,45.079,45.079,0,0,1-22.079,8.984.5.5,0,0,0-.085.974l1.843.556a22.653,22.653,0,0,1-17.033-.251.5.5,0,0,0-.6.758l2.022,2.708a24.961,24.961,0,0,1-6.025-2.962l-.08-.318a.5.5,0,0,0-.376-.369.49.49,0,0,0-.374.088c-.417-.305-.839-.6-1.235-.934a.5.5,0,0,0-.749.64c.338.565.7,1.1,1.07,1.631a7.265,7.265,0,0,0-.8,3.208,21.317,21.317,0,0,1-5.991-8.464.488.488,0,0,0-.527-.317.5.5,0,0,0-.436.435l-.216,1.728c-.28-.439-.615-.885-.969-1.356-1.413-1.877-3.171-4.213-2.887-8.18a.5.5,0,0,0-.221-.451,3.6,3.6,0,0,0-.449-.242.481.481,0,0,0-.178-.052l-.654-.066c-.305-.031-.607-.062-.9-.087-.024,0-.067,0-.1,0a.477.477,0,0,0-.065-.017c-.167-.015-.417-.023-.739-.032a31.379,31.379,0,0,1-4.117-.354,49.758,49.758,0,0,1,7.032-11.1,45.519,45.519,0,0,0-8.215,10.886c-.688-.141-1.406-.315-2.151-.541-.052-.013-4.115-1.467-5.55-4.987a51.716,51.716,0,0,1,11.485-9.42,56.562,56.562,0,0,0-11.85,8.256,7.017,7.017,0,0,1-.106-2.073.5.5,0,0,0-.951-.257,7.254,7.254,0,0,0-.646,2.445,27.155,27.155,0,0,1-1.341-3.64,42.922,42.922,0,0,1,9.167-4.563l-1.246,1.124a.5.5,0,0,0,.335.871.492.492,0,0,0,.317-.114l.266-.218a.5.5,0,0,0,.228-.074,2.622,2.622,0,0,0,1.172-1.09.5.5,0,0,0,.012-.632.52.52,0,0,0-.171-.158c.621-.182,1.253-.334,1.89-.468a.491.491,0,0,0,.438.292h.038l.445-.033a.5.5,0,0,0,.268.023c.412-.08.6-.282.555-.6,0-.027-.008-.053-.014-.077a.8.8,0,0,1,.179-.165.5.5,0,0,0-.549-.836l-1.192.765a.5.5,0,0,0-.206.563,36.656,36.656,0,0,0-12.23,4.295,27.136,27.136,0,0,1-.71-4.31c.342-.2.689-.41,1.025-.6,2.635-1.357,5.3-3.094,8.353-3.161a23.6,23.6,0,0,0-9.436,2.743c-.029-.661-.043-1.325-.024-1.99a.5.5,0,0,0-.434-.51.5.5,0,0,0-.552.38c-.238,1-.417,1.962-.553,2.905-7.413,3.9-15.387,10.213-20.952,14.75a14.052,14.052,0,0,0-4.9,2.836,22.11,22.11,0,0,1,3.818-8.224.5.5,0,0,0-.751-.652,34.95,34.95,0,0,0-9.678,15.793c-6.692,5.853-13.22,11.89-19.474,18.211-.831.835-1.793,1.8-2.661,2.692a40.3,40.3,0,0,1,6.3-26.058.5.5,0,0,0-.606-.74,17.062,17.062,0,0,0-9.726,11.151,19.211,19.211,0,0,1,9.712-18.025.5.5,0,0,0-.435-.9,25.368,25.368,0,0,0-14.531,16.726.5.5,0,0,0,.246.566.5.5,0,0,0,.608-.1l1.118-1.229a31.488,31.488,0,0,0-.333,15.147.538.538,0,0,0,.494.389.5.5,0,0,0,.484-.4l1.068-5.273a54.263,54.263,0,0,0,8.718,23.132.5.5,0,0,0,.86-.507,38.474,38.474,0,0,1-3.952-13.68q1.956-1.694,3.913-3.386c5.907-5.04,11.724-10.19,17.59-15.28-.228,1.076-.408,2.16-.528,3.251a.5.5,0,0,0,.926.312l4.73-7.9-.96,4.355c-.541.446-1.079.893-1.6,1.333l1.572-1.08a.5.5,0,0,0,.912.253l1.033-1.59.8-.549c.619-.425,1.237-.855,1.856-1.281a31.118,31.118,0,0,0,2.952,11.143.5.5,0,0,0,.451.285l.053,0a.5.5,0,0,0,.433-.38,36.043,36.043,0,0,1,7.992-15.369.5.5,0,0,0,.051-.594.508.508,0,0,0-.554-.221,17.584,17.584,0,0,0-5.371,2.46,10.224,10.224,0,0,0,.489-1.8q7.159-4.929,14.31-9.873c1.187-.782,2.374-1.581,3.568-2.37.1.6.215,1.2.365,1.8a19.1,19.1,0,0,0,1.361,3.729c-17.96,17.966-33.274,47.657-41.345,67.093-.716,1.757-1.421,3.566-2.093,5.345H226.959c-.337-2.057-.587-4.124-.722-6.2a.5.5,0,0,0-.945-.194,12.067,12.067,0,0,0-1.2,6.391h-1.781a65.133,65.133,0,0,1-3.329-6.321,60.939,60.939,0,0,0-3.731-6.946l-1.04-2.216,3.946,2.234a.5.5,0,0,0,.724-.579,25.891,25.891,0,0,0-11.42-14.656l3.629-3.384a.5.5,0,0,0-.517-.833l-1.826.69a48.27,48.27,0,0,0,2.544-27.707,35.724,35.724,0,0,1,11.057-16.753.5.5,0,0,0-.113-.839,6.178,6.178,0,0,0-5.134.091,29.122,29.122,0,0,1,5.282-6.989.5.5,0,0,0-.232-.844l-2.876-.688a30.625,30.625,0,0,1,10.122-9.793,25.95,25.95,0,0,1,18.6-1.2l-5.457.884a.5.5,0,0,0,.075.993,14.56,14.56,0,0,1,7.3,2.065c-1.042.586-2.472,1.481-2.55,1.53a.5.5,0,0,0,.221.921c.09.008,8.52.8,11.823,3.812.207.24.422.475.645.7a.5.5,0,0,0,.754-.653,5.79,5.79,0,0,0-.665-.728,30.257,30.257,0,0,1-3.421-5.385l-.331-.611a20.81,20.81,0,0,0-4.978-6.632,8.625,8.625,0,0,0-6.859-1.906,11.606,11.606,0,0,1,5.2-3.7.5.5,0,0,0-.056-.966c-.365-.073-8.831-1.634-18.635,6.14a11.207,11.207,0,0,1,3.912-8.092.5.5,0,0,0-.415-.874,9.861,9.861,0,0,0-5.28,2.918A19.293,19.293,0,0,1,231.827,191l.312-.14c.408-.184.816-.37,1.224-.55a15.924,15.924,0,0,1,7.047-1.736.489.489,0,0,0,.513-.388.5.5,0,0,0-.3-.573,17.646,17.646,0,0,0-10.54-.886,13.114,13.114,0,0,1,5.35-4.467,37.844,37.844,0,0,1,8.036-2.492.5.5,0,0,0-.108-.988,11.616,11.616,0,0,1-4.415-.915,38.168,38.168,0,0,0,13.456-6.885.5.5,0,0,0-.486-.863q-2.686,1.044-5.433,1.915a15.538,15.538,0,0,0,3.06-4.628,28.487,28.487,0,0,0,5.585-2.625.5.5,0,0,0-.108-.9,11.2,11.2,0,0,1-6.837-5.313,9.26,9.26,0,0,0,5.385,1.248.5.5,0,0,0,.368-.787l-3.824-5.4h.039a22.424,22.424,0,0,1,3.611,2.869.5.5,0,0,0,.351.144.5.5,0,0,0,.5-.486,20.261,20.261,0,0,0-1.068-7.192h.018a10.35,10.35,0,0,0,4.691-1.576.5.5,0,0,0-.167-.935l-2.9-.414,1.648-.8a.5.5,0,0,0-.318-.94c-1.519.312-3.168-.584-4.92-2.653a37.363,37.363,0,0,1-3.443-4.866c7.619-4.157,15.875-7.806,22.482-6.74-7.834-1.937-15.942.956-23.387,5.192a107.852,107.852,0,0,1-4.892-10.5,10,10,0,0,1-1.091-4.211,3.376,3.376,0,0,1,1.431-2.645,92.776,92.776,0,0,1,15.916-.15,28.476,28.476,0,0,1,14.941,6.2,26.321,26.321,0,0,0-12.556-7.322c-5.684-1.232-11.529-.8-17.269.166l-3.027-3.736,2.355-.641a.5.5,0,0,0,.15-.9,9.248,9.248,0,0,1-3.976-7.723,3.667,3.667,0,0,1,1.056-2.594c1.559-1.473,3.571-.644,5.5.33l28.254,14.282-2.558.762a.5.5,0,0,0-.058.937c5.045,2.207,8.545,6.9,11.633,11.036a.5.5,0,0,0,.89-.4l-1.535-7.31,2.837,2.51a.5.5,0,0,0,.524.088.5.5,0,0,0,.306-.433,33.272,33.272,0,0,0-.622-8.362,11.376,11.376,0,0,1,3.008-4.708l.719,2.271a.493.493,0,0,0,.526.346.5.5,0,0,0,.448-.443l.011-.105.819,1.7a.494.494,0,0,0,.549.273.5.5,0,0,0,.4-.465l.117-2.3a10.311,10.311,0,0,1,6.766,8,.508.508,0,0,0,.535.422.5.5,0,0,0,.459-.5,20.043,20.043,0,0,0-.339-3.441,16.794,16.794,0,0,1,3.089,6.32.5.5,0,0,0,.485.378.452.452,0,0,0,.1-.009.5.5,0,0,0,.4-.562,29.092,29.092,0,0,0-2.5-8.231,9.767,9.767,0,0,1,4.081,1.428.5.5,0,0,0,.768-.454l-.105-1.581,7.627,1.568a3.746,3.746,0,0,0,1.4.1,3.807,3.807,0,0,0,1.924-1.21l.212-.2a2.224,2.224,0,0,1,1.328-.71l.372,1.17a.5.5,0,0,0,.618.327l9.968-2.945A18.908,18.908,0,0,0,329.536,115.532Zm-74.294,130.4c0,.469.022.937.046,1.405q-1.028.817-1.981,1.571Zm6.463-5a.5.5,0,0,0-.514.049l-2.04,1.512.682-2.724c2.2-1.792,4.415-3.567,6.664-5.3,3.551-2.674,8.409-6.295,13.028-9.166a23.5,23.5,0,0,0,0,4.608,157.781,157.781,0,0,0-17.538,12.139c.006-.23.016-.459.007-.689A.5.5,0,0,0,261.705,240.932Zm119.2,1.319a17.738,17.738,0,0,0-1.928.135c.346-.3.7-.6,1.054-.885C380.325,241.75,380.617,242,380.907,242.251Zm-15.3,5.315c.064,0,.127,0,.19,0C365.73,247.569,365.667,247.566,365.6,247.566Zm22.876-31.541,2.877,1.143a34.946,34.946,0,0,1-5.179,1.787q-3.4-1.361-6.81-2.6Q383.923,216.186,388.479,216.025Zm-4.932,3.5c-.985.176-1.978.318-2.98.41a.5.5,0,0,0-.251.9,25.983,25.983,0,0,0,6.91,3.627l-5.26,1.025a.5.5,0,0,0-.195.9l2.452,1.756-.932.1a.5.5,0,0,0-.109.969l5.5,1.929a19.941,19.941,0,0,0-3.687,1.943,92.984,92.984,0,0,0-18.565-9.337,19.3,19.3,0,0,0,1.953-6.921q3.381-.165,6.763-.306C377.979,217.46,380.775,218.468,383.547,219.528Zm-15.1-4.182c0-.287.018-.573.008-.86.862.245,1.725.487,2.58.745C370.172,215.267,369.31,215.308,368.447,215.346Zm-4.337,11.982a18.355,18.355,0,0,0,1.761-2.568c2.219.9,4.385,1.905,6.631,3.056,3.847,1.881,7.557,3.971,11.161,6.2-1.259.92-2.469,1.918-3.661,2.908q-.781.651-1.568,1.286a82.832,82.832,0,0,0-15.04-10.1C363.635,227.847,363.884,227.6,364.11,227.328ZM259.8,222.439a5.239,5.239,0,0,1,.608.665A5.239,5.239,0,0,0,259.8,222.439Z"/></svg>