<svg id="abc1585a-4f97-4468-b730-6afb372489d1" data-name="Layer 2" xmlns="http://www.w3.org/2000/svg" viewBox="0 0 706 472.216" style="fill: #215342;" height="275" width="315"><path d="M371.269,175.943a20.472,20.472,0,0,0-8.58-3.81,28.883,28.883,0,0,0-4.225-.913,23.678,23.678,0,0,1,14.529-.731.5.5,0,0,0,.466-.853,20.391,20.391,0,0,0-21.166-3.407l1.074-1.1a.5.5,0,0,0-.414-.847,18,18,0,0,0-9.93,4.52l.634-1.445a.5.5,0,0,0-.738-.616,8.26,8.26,0,0,1-3.293,1.435.5.5,0,0,0-.229.12,21.713,21.713,0,0,0-6.725,13.235l-.2-.485a.491.491,0,0,0-.5-.311.5.5,0,0,0-.449.378,28.04,28.04,0,0,0,.836,16.014,1.659,1.659,0,0,0,.523.814,1.1,1.1,0,0,0,.664.218,1.308,1.308,0,0,0,.275-.03,1.529,1.529,0,0,0,.989-.754,3.041,3.041,0,0,0,.258-1.5v-.126a11.194,11.194,0,0,1,2.852-7.432c.205-.227.42-.447.636-.666a9.08,9.08,0,0,0,1.645-2.048,9.263,9.263,0,0,0,.44-1.012,8.171,8.171,0,0,1,.4-.925c1.04-1.923,3.486-2.561,5.952-2.839a23.828,23.828,0,0,0-2.927,6.858c-.42,1.165-.8,2.388-1.15,3.679a103.389,103.389,0,0,0-2.322,13.142,3.245,3.245,0,0,0,.4,2.232,1.353,1.353,0,0,0,.915.53c.871.116,1.416-.567,1.849-1.116a5.18,5.18,0,0,1,.449-.523,2.406,2.406,0,0,1,2.065-.477,8.65,8.65,0,0,1,2.012.7l.373.163a25.794,25.794,0,0,0,10.217,2.1,26.237,26.237,0,0,0,2.775-.148,16.474,16.474,0,0,0,6.818-1.693l.1-.04a.506.506,0,0,0,.123-.073,15.711,15.711,0,0,0,4.154-3.073,16.246,16.246,0,0,0,3.8-15.732l-.04-.132a3.126,3.126,0,0,1-.147-2.414,1.694,1.694,0,0,1,1.443-.665h.04a6.11,6.11,0,0,1,1.967.505.5.5,0,0,0,.541-.811A58.825,58.825,0,0,0,371.269,175.943ZM352.9,184.167a7.594,7.594,0,0,1,4.407-3.4,4.631,4.631,0,0,1,1.049-.119,4.046,4.046,0,0,1,3.625,1.983,7.219,7.219,0,0,1,.432,1.161,6.98,6.98,0,0,0,.611,1.523,11.471,11.471,0,0,1-1.44,3.745,7.05,7.05,0,0,1-4.752,3.368,4.758,4.758,0,0,1-4.892-2.355C351.16,188.459,351.519,186.25,352.9,184.167Zm19.082,16.575a11.587,11.587,0,0,1-6.387,4.72c-.521.172-1.052.315-1.584.435a33.226,33.226,0,0,1-9.74-.675,10.455,10.455,0,0,1-5.231-2.435c-1.651-1.669-2.175-4.1-2.647-6.879a4.908,4.908,0,0,1-.08-1.9,1.325,1.325,0,0,1,.962-1.056.844.844,0,0,1,.112-.008,1.566,1.566,0,0,1,1.113.659,6.3,6.3,0,0,1,.6,1c.113.218.228.436.354.646,1.764,2.947,5.5,3.969,8.153,4.482a10.046,10.046,0,0,0,5.272-.026c2-.707,3.669-2.589,4.706-5.3a11.4,11.4,0,0,0,.674-6.581,7.511,7.511,0,0,0-2.047-3.693l-.244-2.06a8.98,8.98,0,0,1,4.19,1.468,7.821,7.821,0,0,1,2.426,4.075,23.382,23.382,0,0,1,.869,4.622C373.779,195.749,373.284,198.613,371.984,200.742Z"/><path d="M332.735,153.569a.5.5,0,0,0,.554-.278,25.449,25.449,0,0,1,19.354-14.131.5.5,0,0,0,.253-.882,9.885,9.885,0,0,0-9.972-1.291l.537-1.119a.5.5,0,0,0-.594-.7,26.646,26.646,0,0,0-5.974,2.642,29.085,29.085,0,0,1,.365-3.353c.108-.717.209-1.4.258-2.01a.5.5,0,0,0-.341-.515.507.507,0,0,0-.581.209,30.257,30.257,0,0,0-4.478,13.241l.22,7.708A.5.5,0,0,0,332.735,153.569Z"/><path d="M316.516,131.128a.5.5,0,0,0-.337.505,11.869,11.869,0,0,1-.254,3.348,2.584,2.584,0,0,0-1.142-.455.52.52,0,0,0-.4.125.5.5,0,0,0-.164.389l.061,1.641a9.123,9.123,0,0,0-6.666-2.88.482.482,0,0,0-.49.344.5.5,0,0,0,.191.566,16.379,16.379,0,0,1,6.413,9.184.5.5,0,0,0,.981-.083l.049-.56a13.255,13.255,0,0,1,.768,2.668.5.5,0,0,0,.4.405.522.522,0,0,0,.088.007.5.5,0,0,0,.432-.248,11.219,11.219,0,0,0,1.379-7.134,6.253,6.253,0,0,1,.711,1.108.5.5,0,0,0,.946-.2,14.043,14.043,0,0,0-2.39-8.541A.5.5,0,0,0,316.516,131.128Z"/><path d="M342.16,211.81a.548.548,0,0,0-.471-.3,9.237,9.237,0,0,0-2.8.5,7.893,7.893,0,0,1-.522-4.22.47.47,0,0,0,.045-.044c.271-.292.117-.687,0-.976a.49.49,0,0,0-.486-.317.5.5,0,0,0-.459.356,29.054,29.054,0,0,0-.683,13.774.5.5,0,0,0,.492.405h0a.5.5,0,0,0,.49-.408,16.146,16.146,0,0,1,4.287-8.222A.5.5,0,0,0,342.16,211.81Z"/><path d="M387.029,195.146c-.3,1.639.472,2.043.816,2.14a1.109,1.109,0,0,0,.307.043,1.847,1.847,0,0,0,1.134-.514,9.125,9.125,0,0,0,3-5.17c.088-.445.187-.951.467-1.083.233-.109.579.093.739.343a3.007,3.007,0,0,1,.306,1.318.5.5,0,0,0,.855.31,10.076,10.076,0,0,0,2.366-9.863.491.491,0,0,0-.552-.343.5.5,0,0,0-.425.492,2.647,2.647,0,0,1-1.424,2.547,1.382,1.382,0,0,1-1.365-.429.8.8,0,0,1-.214-.859.5.5,0,0,0-.9-.424,7.965,7.965,0,0,1-.979,1.52,17.989,17.989,0,0,0-6.763-10.538.5.5,0,0,0-.771.566l1.077,3.081-5.553-3.251a.5.5,0,0,0-.622.768c.579.636,1.192,1.218,1.9,1.892.494.468,1.031.977,1.625,1.571h0A18.173,18.173,0,0,1,387.029,195.146Z"/><path d="M393.572,156.694a27.96,27.96,0,0,1,2.685,1.6A28.493,28.493,0,0,1,407.9,177.5a.5.5,0,0,0,.853.283,9.809,9.809,0,0,0,2.31-3.918,24.98,24.98,0,0,0,2.561,5.524.5.5,0,0,0,.425.235.488.488,0,0,0,.16-.026.5.5,0,0,0,.338-.522c-.59-6.075-1.323-13.636,1.96-19.678a.5.5,0,0,0-.014-.5.488.488,0,0,0-.442-.236,8.514,8.514,0,0,0-7.73,6.523,14.057,14.057,0,0,1-2.425-3.74,5.44,5.44,0,0,1,.294-5.024.5.5,0,0,0-.8-.6,4.418,4.418,0,0,1-5.343,1.044l1.35-1.158a.5.5,0,0,0,.136-.57.49.49,0,0,0-.5-.307,25.074,25.074,0,0,1-11.083-1.7.5.5,0,0,0-.522.834A20.635,20.635,0,0,0,393.572,156.694Z"/><path d="M326.9,272.746a25.6,25.6,0,0,1-10.035-3.389.5.5,0,0,0-.562.036.51.51,0,0,0-.146.184L312.7,267.6a.5.5,0,0,0-.659.151,5.424,5.424,0,0,1-4.011,2.265l1.116-1.573a.5.5,0,0,0-.5-.781l-8.46,1.558a.5.5,0,0,0-.353.26,1.349,1.349,0,0,0,.069,1.4c.724,1.125,2.943,1.689,4.906,1.712a2.006,2.006,0,0,0,.833,1.537,4.124,4.124,0,0,0,2.026.611,87.68,87.68,0,0,0,9.023.521.489.489,0,0,0,.4-.2.5.5,0,0,0,.084-.439l-.027-.1a11.659,11.659,0,0,0,9.962-.861.5.5,0,0,0-.2-.925Z"/><path d="M515.683,326.549a62.688,62.688,0,0,1-23.737-9.47.5.5,0,0,0-.771.353,4.849,4.849,0,0,0,.5,2.334l-4.811-3.136a.5.5,0,0,0-.748.577,36.085,36.085,0,0,0,5.389,10.305.5.5,0,0,0,.4.2h0c7.379-.061,14.966-.062,23.192,0a.58.58,0,0,0,.165-.027l.49-.167a.5.5,0,0,0-.075-.966Z"/><path d="M294.267,155.476a21.724,21.724,0,0,0-8.255-.873c-.487.012-.97.024-1.445.029a21.171,21.171,0,0,0-13.385,5.045.5.5,0,0,0,.441.865,34.451,34.451,0,0,1,12.794-.566l-4.646.762a.5.5,0,0,0,.035.992l.255.023a21.313,21.313,0,0,0-10.243,7.117.5.5,0,0,0,.632.748,20.244,20.244,0,0,1,5.774-2.041l-2.807,2.4a57.223,57.223,0,0,0-7.495,5.155.5.5,0,0,0,.438.872,6.143,6.143,0,0,1,1.956-.281,1.658,1.658,0,0,1,1.355.726c.3.584-.044,1.366-.38,2.123l-.052.12a14.194,14.194,0,0,0,2.124,14.722,14.962,14.962,0,0,0,3.712,3.178.5.5,0,0,0,.116.079l.1.049a16.608,16.608,0,0,0,6.409,2.155,26.639,26.639,0,0,0,12.742-.592l.374-.115a8.9,8.9,0,0,1,2.017-.456,2.418,2.418,0,0,1,1.948.618,4.7,4.7,0,0,1,.378.511c.36.533.807,1.194,1.637,1.194h.044a1.36,1.36,0,0,0,.969-.436,2.948,2.948,0,0,0,.586-2,89.069,89.069,0,0,0-.945-12.177,30.179,30.179,0,0,0-4.259-11.591c-.212-.327-.44-.627-.664-.934a8.865,8.865,0,0,0,.269-2.276l2.615.928a.5.5,0,0,0,.5-.093.5.5,0,0,0,.162-.477l-1.2-5.946a17.612,17.612,0,0,1,7.357,2.557.5.5,0,0,0,.664-.725C303.76,162.714,299.872,157.557,294.267,155.476ZM283.359,176.8a6.389,6.389,0,0,1,.527-1.009,4.26,4.26,0,0,1,4.7-1.263A7.171,7.171,0,0,1,292.5,178c1.12,2,1.249,4.018.347,5.4a4.783,4.783,0,0,1-4.96,1.69,6.7,6.7,0,0,1-4.246-3.482,9.918,9.918,0,0,1-1.01-3.489A6.34,6.34,0,0,0,283.359,176.8Zm13.714,9.719a1.184,1.184,0,0,1,.807,1.014,4.21,4.21,0,0,1-.262,1.7c-.728,2.476-1.473,4.635-3.224,6a10.592,10.592,0,0,1-5.3,1.739,34.256,34.256,0,0,1-9.483-.271c-.5-.157-1-.336-1.487-.539a10.965,10.965,0,0,1-5.69-4.86c-1.038-2.042-1.233-4.678-.578-7.833a20.443,20.443,0,0,1,1.293-4.114,7.2,7.2,0,0,1,2.734-3.471,9.138,9.138,0,0,1,4.168-.954l-.42,1.772a6.946,6.946,0,0,0-2.344,3.186,9.911,9.911,0,0,0,0,6.09,7.844,7.844,0,0,0,4.039,5.275,10.325,10.325,0,0,0,5.086.5c2.617-.226,6.325-.818,8.322-3.342.143-.18.276-.369.408-.558a5.831,5.831,0,0,1,.675-.849A1.5,1.5,0,0,1,297.073,186.514Z"/><path d="M305.047,193.523a2.2,2.2,0,0,1-.343-.375.5.5,0,0,0-.929.317c.273,1.966.584,4.193-.186,6.121-.694,1.735-2.7,3.2-4.458,2.526l-.116-.046a1.671,1.671,0,0,0-1-.163,1.119,1.119,0,0,0-.8.691,1.539,1.539,0,0,0,.123,1.386,3.1,3.1,0,0,0,1.337,1.011l.154.076a8.93,8.93,0,0,1,4.757,7.941.5.5,0,0,0,.449.509.449.449,0,0,0,.051,0,.5.5,0,0,0,.491-.408,103.864,103.864,0,0,0,1.731-16.65A3.52,3.52,0,0,0,305.047,193.523Z"/><path d="M268.6,141.971a.5.5,0,0,0-.058-.618,2.091,2.091,0,0,1-.508-1.864c3.9.465,6.767-.256,8.525-2.148a.5.5,0,0,0-.494-.824,21.055,21.055,0,0,1-13.153-.823.5.5,0,0,0-.428.027.5.5,0,0,0-.25.349,12.4,12.4,0,0,1-2.885,5.963,5.186,5.186,0,0,0-.758-2.357.5.5,0,0,0-.9.095,12.588,12.588,0,0,1-5.7,6.7,22.257,22.257,0,0,0-7.171-12.464.5.5,0,0,0-.812.5l.115.452a29.238,29.238,0,0,1,1.1,7.012h0a60.918,60.918,0,0,1-.87,12.584.5.5,0,0,0,.818.465l2.161-1.864-.806,4.571a.5.5,0,0,0,.263.531.5.5,0,0,0,.585-.094l5.174-5.273-.224,3.328a.5.5,0,0,0,.735.475A23.4,23.4,0,0,0,264.75,141l3.264,1.168A.5.5,0,0,0,268.6,141.971Z"/><path d="M252.405,133.774a.488.488,0,0,0,.172.031.5.5,0,0,0,.442-.733l-1.925-3.671a55.723,55.723,0,0,0,10.638.795.5.5,0,0,0-.005-1,4.882,4.882,0,0,1-3.345-1.435,14.477,14.477,0,0,0,5.176-13,.5.5,0,0,0-.938-.165,21.686,21.686,0,0,1-3.39,5.2,6.919,6.919,0,0,1-5.265,2.33c-1.766-.126-3.724-1.555-3.822-3.483a.5.5,0,0,0-.852-.33,4.358,4.358,0,0,0-.955,2.694c-.132,1.1-.254,1.792-.841,2.085a1.524,1.524,0,0,1-1.56-.34,8.171,8.171,0,0,1-1.256-1.68c-.255-.39-.564-.862-.957-1.444a.5.5,0,0,0-.914.276A15.035,15.035,0,0,0,252.405,133.774Z"/><path d="M400.749,144.483a16.086,16.086,0,0,0,10.469-1.117,8.918,8.918,0,0,1-.568,1.509.5.5,0,0,0,.654.674l4.54-2.03a.9.9,0,0,1,.355-.109c.048.01.128.16.1.308a1.859,1.859,0,0,1-.428.734.5.5,0,0,0,.739.671,10.068,10.068,0,0,0,2.035-11.388.5.5,0,0,0-.947.166,4.42,4.42,0,0,1-2.763,3.439,6.656,6.656,0,0,1-4.7-.028,13.208,13.208,0,0,1-4.214-2.608c-.241-.207-.485-.432-.751-.678-.577-.534-1.295-1.2-2.331-1.992a.508.508,0,0,0-.468-.076.5.5,0,0,0-.32.349,8.16,8.16,0,0,0,4.174,8.988,10.27,10.27,0,0,1-5.5,2.2.5.5,0,0,0-.072.985Z"/><path d="M278.852,243.128a1.337,1.337,0,0,0-.423-.016,5.191,5.191,0,0,1-.8,0,2.525,2.525,0,0,0-2.524,2.977.5.5,0,0,0,.718.331,5.594,5.594,0,0,0,1.45-1.084,2.159,2.159,0,0,0,1.95-1.613A.5.5,0,0,0,278.852,243.128Z"/><path d="M278,250.093a9.2,9.2,0,0,1-1.413-.214.5.5,0,0,0-.523.2,4.8,4.8,0,0,0-.74,3.954.5.5,0,0,0,.883.177.856.856,0,0,0,.484-.018.5.5,0,0,0,.677.169,4.375,4.375,0,0,0,2.135-3.443.5.5,0,0,0-.146-.387A2.017,2.017,0,0,0,278,250.093Z"/><path d="M292.512,252.086a.477.477,0,0,0-.006-.222.5.5,0,0,0-.439-.375l-.9-.081a6.1,6.1,0,0,1-.532-.5.5.5,0,0,0-.522-.127l-1.334.454a.5.5,0,0,0,.117.971l1.669.151-.068.044a.5.5,0,0,0,.208.911,2.785,2.785,0,0,0,1.81-.364.5.5,0,0,0-.006-.863Z"/><path d="M357.386,247.129l1.339.582a8.507,8.507,0,0,1,2.344,1.86.5.5,0,0,0,.375.169.483.483,0,0,0,.182-.035.5.5,0,0,0,.318-.477,4.717,4.717,0,0,0-.41-1.8l.071-.022a.9.9,0,0,0,.543-.73.5.5,0,0,0-.371-.6l-1.492-.352a4.726,4.726,0,0,0-1.553-.919.5.5,0,0,0-.606.233.471.471,0,0,0-.054.165l-.251-.06a.5.5,0,0,0-.334.936l.208.1a.5.5,0,0,0-.309.946Z"/><path d="M349.153,244.464a.5.5,0,0,0,.045.641,5.265,5.265,0,0,0,1.562,1.115,1.975,1.975,0,0,0,.375.279.756.756,0,0,0,.5.194.692.692,0,0,0,.111-.009.5.5,0,0,0,.2-.073c.122.025.246.045.37.061a.5.5,0,0,0,.526-.3.5.5,0,0,0-.155-.587l-.4-.309a.833.833,0,0,0-.354-.283l-.023-.01-.975-.756a.5.5,0,0,0-.713.1l-.443-.218A.5.5,0,0,0,349.153,244.464Z"/><path d="M344.738,244.15l-.259-.445a.5.5,0,0,0-.361-.243.489.489,0,0,0-.415.131,1.345,1.345,0,0,0-.117.126c-.05-.008-.1-.014-.152-.019l-.217-.162a.5.5,0,0,0-.633.029.493.493,0,0,0-.141.218l-.033.009a.5.5,0,0,0-.1.916l1.366.76a4.081,4.081,0,0,0,.717.4l.331.185a.5.5,0,0,0,.373.045c.069.016.14.03.209.042a.607.607,0,0,0,.084.007.5.5,0,0,0,.465-.685A2.778,2.778,0,0,0,344.738,244.15Z"/><path d="M356.23,255.065l.585.828a7.233,7.233,0,0,1,.821,1.949.5.5,0,0,0,.425.373.492.492,0,0,0,.5-.262c.017-.033.034-.066.052-.1.111.106.23.2.353.3a.5.5,0,0,0,.653-.03.52.52,0,0,0,.12-.176q.144.045.294.081a.5.5,0,0,0,.6-.353,3.706,3.706,0,0,0-.755-3.271,4.107,4.107,0,0,0-.956-.878c-.012-.038-.026-.076-.04-.114a.5.5,0,0,0-.519-.326.5.5,0,0,0-.191.059,3.4,3.4,0,0,0-1.311-.213.5.5,0,0,0-.469.409,3.674,3.674,0,0,0-.041,1.026l-.012.008A.5.5,0,0,0,356.23,255.065Z"/><path d="M340.511,251.378a.5.5,0,0,0-.059.372.505.505,0,0,0-.056.012.5.5,0,0,0-.314.245,1.714,1.714,0,0,0,.769,2.307,1.557,1.557,0,0,0,.658.141,1.761,1.761,0,0,0,1.343-.629,1.518,1.518,0,0,0,.567-.275.5.5,0,0,0,.113-.663,4.01,4.01,0,0,0-2.484-1.738A.5.5,0,0,0,340.511,251.378Z"/><path d="M337.894,258.41l-1.98-.77a.5.5,0,0,0-.667.582.492.492,0,0,0-.464.294.5.5,0,0,0,.162.61l2.042,1.481a.5.5,0,0,0,.692-.706,2,2,0,0,0,.518-.9A.5.5,0,0,0,337.894,258.41Z"/><path d="M253.03,175.757h0c-1.154-1-1.529-2.853-1.89-4.648-.079-.391-.158-.781-.244-1.158a.478.478,0,0,0-.5-.389.5.5,0,0,0-.478.422,26.63,26.63,0,0,0,1.23,12.945,7.3,7.3,0,0,0-3.935-.778.5.5,0,0,0-.4.73,27.694,27.694,0,0,1,3.151,13.026,6.236,6.236,0,0,0-5.815-2.016.5.5,0,0,0-.317.761l6.046,9.359c1.78,2.756,3.956,5.731,7.274,6.139a.585.585,0,0,0,.06,0,.5.5,0,0,0,.5-.52,66.908,66.908,0,0,1,.577-9.741c.273-2.529.556-5.143.6-7.736C259.018,184.961,256.937,179.137,253.03,175.757Z"/><path d="M403.593,212.778a.5.5,0,0,0-.3-.551,13.959,13.959,0,0,0-8.83-.659l3.942-4.951a2.273,2.273,0,0,0,.629-1.413,1.45,1.45,0,0,0-.469-1.028,1.922,1.922,0,0,0-1.387-.523,2.837,2.837,0,0,0-1.061.261,9.335,9.335,0,0,1,2.984-4.307c.526-.474,1.077-.924,1.628-1.374a21.558,21.558,0,0,0,3.369-3.187c1.354-1.71,2.409-4.381,1.311-6.754a.493.493,0,0,0-.516-.286.5.5,0,0,0-.429.405,4,4,0,0,1-2.231,3.3,24.445,24.445,0,0,0-11,9.622c-4.221,6.612-5.721,14.7-7.043,21.843a.5.5,0,0,0,.491.592h.01c3.833-.073,6.752-2.789,9.576-5.415,2.789-2.593,5.424-5.043,8.846-5.162A.5.5,0,0,0,403.593,212.778Z"/><path d="M669.748,327.83H595.205c-.882-1.558-1.765-3.09-2.639-4.546-12.017-20.02-27.014-36.466-43.37-47.562-12.02-8.153-24.571-13.218-37-15.01-6.647-2.127-13.291-3.934-19.825-5.624a38.158,38.158,0,0,0-14.345-5.146c-6.583-3.217-11.957-8.68-15.68-13.358A162.957,162.957,0,0,1,451.59,220.59c-2.04-3.309-4.15-6.73-6.359-9.985-1.21-1.782-2.411-3.436-3.609-4.989l-.018-.024c-4.467-5.786-8.891-10.018-13.51-12.918a32.9,32.9,0,0,1-3.022-5.14c-1.369-3.036-1.621-6.442-1.866-9.736-.5-6.766-1.017-13.763.3-20.516.377-1.939.914-3.894,1.434-5.784.209-.761.419-1.529.621-2.3a29.36,29.36,0,0,0,1.737-13.219c1.267-7.97,3.054-15.9,4.8-23.627.865-3.824,1.761-7.777,2.579-11.679,2.6-12.416,5.846-27.869,4.344-42.266a13.063,13.063,0,0,0-1.748-4.623c-.167-.317-.333-.631-.49-.941a12.827,12.827,0,0,0-1.788-2.7c-2.382-3.717-6.611-6.678-11.224-5.963a29.2,29.2,0,0,0-9.714,3.791c-7.966,5.651-11.682,10.066-18.427,18.081-1.093,1.3-2.265,2.692-3.548,4.2-6.657,7.826-12.913,16.15-16.049,20.416-4.736,6.439-8.683,9.546-11.8,11.386a23.227,23.227,0,0,0-4.106,1.78c-.809.442-1.614.915-2.42,1.389-2.843,1.672-5.785,3.4-9.018,3.728-3.485.35-6.757-.9-10.223-2.229a29.858,29.858,0,0,0-8.739-2.368,28.91,28.91,0,0,0-7.425.828c-.915.183-1.831.365-2.748.514-3.34.539-9.5.88-13.264-2.922a18.7,18.7,0,0,1-2.346-3.159c-.419-.654-.853-1.33-1.328-1.969a8.383,8.383,0,0,0-4.654-3.405,77.3,77.3,0,0,0-6.66-13.481c-1.18-2.036-2.4-4.143-3.5-6.253-1.771-3.4-3.338-7.01-4.855-10.5-3.27-7.534-6.651-15.325-12.278-21.476-3.848-4.206-8.58-7.468-13.155-10.624-3.127-2.157-6.473-4-9.739-2.928-2.645.871-6.408,4.262-7.743,6.977A94.365,94.365,0,0,0,230.9,70.251c-.327-.07-.647-.137-.938-.192.313.083.621.183.932.272A123.233,123.233,0,0,0,232.95,103.5a34.82,34.82,0,0,0-1.914,19.747,62.7,62.7,0,0,0,1.873,6.61c.583,1.806,1.185,3.672,1.629,5.537a25.836,25.836,0,0,1,.647,4.168c-.457,1.212-1.016,2.4-1.572,3.551s-1.121,2.329-1.585,3.541a75.126,75.126,0,0,0-3.188,12.508,120.4,120.4,0,0,0-1.178,25.2c.916,17.059,6.035,33.03,14.468,45.31a.5.5,0,0,0,.105.517c.456.479.883.984,1.318,1.481.036.05.071.1.108.152.719.965,1.476,1.925,2.237,2.889q.513.651,1.027,1.309c.486.708.959,1.425,1.408,2.158-10.739,2.362-21.452,4.853-32.045,7.806-1.5.418-3.275.911-4.612,1.3q2.354-.5,4.706-1.009C227.219,243.964,238,241.37,248.819,239q.815,1.392,1.541,2.834a333.328,333.328,0,0,0-34.4,9c-1.243.4-2.736.894-3.816,1.271q1.966-.5,3.934-.992c11.564-2.86,23.1-5.9,34.758-8.351.239.5.456,1.013.679,1.522.661,2.121,1.355,4.29,2.1,6.534q-.9.417-1.8.838c-11.259,5.366-22.4,11-33.134,17.366-1.111.657-2.447,1.446-3.414,2.04l2.7-1.344c12.02-5.913,23.823-12.275,35.991-17.881q.332.978.676,1.974a51.668,51.668,0,0,1,1.16,8.2c-15.1,12.259-31.122,27.782-43.844,41.128-5.317,1.123-10.931,3.08-15.1,6.03a27.754,27.754,0,0,0-11.129,18.657H50.748a.5.5,0,0,0-.5.5v16a.5.5,0,0,0,.5.5H189.074a19.507,19.507,0,0,0,1.784,2.4c3.289,3.664,8.976,4.445,14.139,3.615a12.073,12.073,0,0,0,2.391,1.679,13.507,13.507,0,0,0,5.909,1.938,4.605,4.605,0,0,0,.893.009,7.677,7.677,0,0,0,4.4-.981c.285-.172.57-.351.848-.539.929.331,1.89.651,2.868.894,4.849,1.965,8.2.527,12.316-2.244a19.554,19.554,0,0,0,3.026-2.485,20.791,20.791,0,0,0,6.81,1.633c1.606,1.683,3.248,2.021,4.231-.069a11.128,11.128,0,0,0,1.961-.545c.22-.071.622-.241.906-.365l-.141.063a9.964,9.964,0,0,0,5.053-3.6c.3-.44.592-.91.88-1.4H375.594c.135.235.271.466.408.687a9.758,9.758,0,0,0,4.9,3.768l-.138-.068c.278.133.673.315.889.392a10.918,10.918,0,0,0,1.935.6c.9,2.135,2.549,1.837,4.22.18a20.751,20.751,0,0,0,6.863-1.472,19.111,19.111,0,0,0,2.919,2.587c4,2.9,7.281,4.442,12.2,2.585.986-.221,1.958-.518,2.9-.828.27.2.547.384.824.565a7.527,7.527,0,0,0,4.351,1.105,4.488,4.488,0,0,0,.892.014,13.534,13.534,0,0,0,5.975-1.8,12.276,12.276,0,0,0,2.454-1.634c5.12.972,10.827.332,14.258-3.282a20.381,20.381,0,0,0,2.537-3.4H669.748a.5.5,0,0,0,.5-.5v-16A.5.5,0,0,0,669.748,327.83Zm-241.1-224.867c-.927-.2-1.857-.383-2.793-.531a95.2,95.2,0,0,0-23.871-.131c-1.319.128-2.629.32-3.928.557a208.128,208.128,0,0,1,31.177-8.138A80.41,80.41,0,0,1,428.648,102.963Zm.591-8.646a129.014,129.014,0,0,0-32.893,7.938l.314-.906a.5.5,0,0,0-.716-.6l-.989.55c1.238-1.755,2.491-3.462,3.783-5.083A178.115,178.115,0,0,1,417.889,90.4c.963-.218,2.066-.439,2.957-.609-.8.082-1.6.174-2.394.283a105.294,105.294,0,0,0-18.168,4.272c3.83-4.451,8.081-8.011,13.379-9.593a.486.486,0,0,0,.215-.13,1.8,1.8,0,0,0,.416-1.77,2.629,2.629,0,0,0-.554-1.017c4.781-1.552,9.655-2.789,14.648-3.884A129.55,129.55,0,0,1,429.239,94.317ZM410.75,80.983a49.251,49.251,0,0,1,11.768-8.6,22.585,22.585,0,0,1,5.181.027c.24,1.719.447,3.374.628,4.975a107.438,107.438,0,0,0-15.851,3.622A3.771,3.771,0,0,0,410.75,80.983Zm23.51,1.51c.1-2.114.167-4.024.213-5.632.307-.041.612-.069.918-.105C434.944,78.65,434.579,80.568,434.26,82.493ZM255.53,245.887a2.368,2.368,0,0,1,.411-1.818,2.41,2.41,0,0,1,1.9-.771,26.159,26.159,0,0,0,1.912,4.8q-1.447.607-2.881,1.245C256.437,248.188,255.994,247.034,255.53,245.887Zm4.4,12.836q-1.212-4.232-2.706-8.378l.078-.035q1.463-.66,2.927-1.317a23.813,23.813,0,0,0,4.79,5.878Q262.509,256.715,259.932,258.723Zm5.873-3.182a49.879,49.879,0,0,0,8.09,5.2c.823.454,1.613.891,2.361,1.327-1.573,2.879-3.05,5.811-4.466,8.77q-3.666,7.692-7.072,15.508a130.837,130.837,0,0,0-4.485-26.565Q263.05,257.575,265.805,255.541Zm-9.946,7.749a48.162,48.162,0,0,1-1.309,13.162.5.5,0,0,0,.455.619,3.389,3.389,0,0,0,2.7-1.182,12.153,12.153,0,0,1-2.616,11.2.5.5,0,0,0,.28.827,5.491,5.491,0,0,0,4.326-1.153,5.982,5.982,0,0,0,1.254-1.323,104.183,104.183,0,0,1-.6,11.395q-1.983,4.99-3.8,10.046a41.218,41.218,0,0,0-19.008-3.539c-4.28-.6-11.324-1.332-14.75-1.383a49.554,49.554,0,0,0-9.329.885A508.184,508.184,0,0,1,255.859,263.29Zm4.189,36.388c-.269,2.329-.569,4.647-.869,6.94-.064.488-.126.976-.19,1.464q-1.027-.559-2.131-1.065c.054-.125.109-.249.163-.374Q258.548,303.168,260.048,299.678Zm-60.692,11.389a19.3,19.3,0,0,1,6.6-4.064,26.291,26.291,0,0,1,3.083-.78c-7.319,7.794-13.331,14.648-17.109,19.372q-1.23,1.534-2.429,3.095A26.589,26.589,0,0,1,199.356,311.067Zm65.412,15.488a3.379,3.379,0,0,1-1.792.6c-3.541.571-7.228-1.6-7.228-1.6s-1.964-1.041-1.708-.745c.266.422.521.853.784,1.335a18.522,18.522,0,0,1,1.785,10.967,10.87,10.87,0,0,1-8.821,9.618,4.161,4.161,0,0,0-.344-1.115,3.111,3.111,0,0,0-1.667-1.939c-2.18-.67-2.3,1.852-2.383,3.224a15.084,15.084,0,0,1-3.738-.685c-1.327-.49-3.931-3.111-4.771-4.894a19.313,19.313,0,0,1-2.278-8.2c.014-1.536.272-3.918.04-3.653-.438.5-2.249,6.084-.8,12.246.062.265,1.626,6-2.151,8.012a16.877,16.877,0,0,1-1.506-.871,24.367,24.367,0,0,0-2.142-1.593c-.853-.591-2.255-.313-2.22.734a5.53,5.53,0,0,0,1.761,2.379c-1.6-.189-2.222-1.071-2.985-2.26l-.044-.068c-.231-.371-.219-.344-.755-1.3a27.413,27.413,0,0,1-2.487-5.814,50.764,50.764,0,0,1-1.906-13.3c0-.2-.345-.237-.4-.036a34.675,34.675,0,0,0-1.146,11.857,5.894,5.894,0,0,0,.239,1.747c.313,1.834,2.077,4.148,1.864,6.61a4.479,4.479,0,0,1-3.317,3.3c-.153-.13-.29-.257-.411-.374a10.8,10.8,0,0,0-2.869-2.3c-1.215-.483-2.283.6-1.626,1.548.055.093.118.192.185.293A10.789,10.789,0,0,1,204.494,345c-.188-.481-.37-.989-.551-1.53-.093-.277-.423-1.487-.449-1.578-.02-.074-.041-.153-.06-.225a41.99,41.99,0,0,1-1.173-7.563,20.24,20.24,0,0,1,.013-3.808c.024-.169-.257-.227-.327-.067a20.342,20.342,0,0,0-1.237,5.054,23.3,23.3,0,0,0,.382,9.178,3.189,3.189,0,0,1-.154.336c-1.359,2.866-7.412,2.168-9.839-2.22a27.5,27.5,0,0,1-1.89-9.815c0-.873.044-1.8.136-2.769q1.666-2.04,3.351-4.067c4.117-5.083,10.327-12.093,17.76-19.932.587-.079,1.183-.152,1.876-.255-4.218,2.393-5.479,8.206-5.479,8.206s3.706-4.171,5.591-5.353c3.718-2.332,6.767-4.227,14.65-4.066,2.243.18,5.927.683,5.478.849-4.022,1.334-5,2.257-6.375,3.4a7.517,7.517,0,0,0-2.679,3.791,26.632,26.632,0,0,1,8.487-4.528,34.542,34.542,0,0,1,14.169-1.458,41.144,41.144,0,0,1,9.553,2.637c-.236.671-.463,1.326-.651,1.886l.794-1.823c.87.372,1.764.784,2.729,1.274.452.239,1.188.661,2.007,1.183,3.273,3.3,5,5.991,5.766,8.152A34.116,34.116,0,0,0,264.768,326.555Zm4.16,1.275c.152-.181.305-.372.46-.582,3.846-4.933-3.412-13.6-4.6-14.862-.275-.3-.579-.583-.887-.869.115-.9.231-1.8.33-2.694a129.82,129.82,0,0,0,.622-20.255c3.484-8,7.069-15.949,11.081-23.7.4-.774.79-1.528,1.182-2.281a12.735,12.735,0,0,1,4,3.445,26.776,26.776,0,0,0,3.5,4.159,18.989,18.989,0,0,0,2.335,18.427.506.506,0,0,0,.449.193.5.5,0,0,0,.4-.282l1.77-3.721a36.569,36.569,0,0,1,.349,15.066.5.5,0,0,0,.869.42l2.712-3.125a19.465,19.465,0,0,0,5.069,13.671.5.5,0,0,0,.851-.211c1.312,3.364,3.878,6.166,6.376,8.892.662.722,1.321,1.441,1.953,2.167a22.119,22.119,0,0,1,3.874,6.142ZM313.8,280.012c-1.556-.3-3.322-.637-5.449-.989-4.751-.787-12.533-5.045-17.245-7.828a32.03,32.03,0,0,1-3.49-4.037.758.758,0,0,1,0-.873.805.805,0,0,1,.843-.346,63.523,63.523,0,0,0,6.557.974,41.238,41.238,0,0,0,8.053.425c1.052-.05,2.107-.178,3.129-.3a27.263,27.263,0,0,1,4.706-.294,26.767,26.767,0,0,1,7.511,1.913c1.451.519,2.951,1.057,4.471,1.44,1.129.285,2.926.668,5.046,1.022,6.032,1.924,10.551,2.656,16.783,1.665-.206.265-.436.5-.654.751-6.952,6.357-17.088,7.366-19.359,7.514C320.605,281.316,317.9,280.8,313.8,280.012Zm-1.686-36.544a4.393,4.393,0,0,0-3.468-1.907c-.527-.053-1.056-.059-1.566-.064a11.444,11.444,0,0,1-2.02-.137,2.413,2.413,0,0,1-1.171-.5.958.958,0,0,1-.347-.9c.179-.7,1.382-.781,2.062-.769l8.358.148.011,0,1.319.139a66.543,66.543,0,0,1,10.988,4.136c.343.165.913.493.876.833-.029.259-.421.466-.8.556a4.3,4.3,0,0,1-2.717-.239,10.853,10.853,0,0,1-1.159-.628,4.379,4.379,0,0,0-3.367-.916,2.882,2.882,0,0,0-1.944,3.137,4.144,4.144,0,0,0,2.111,2.964l.2.113c.379.214.736.415.807.692.076.3-.2.69-.454,1a24.305,24.305,0,0,1-4.544,4.283,2.38,2.38,0,0,1-1.457.62,2.25,2.25,0,0,1-1.158-.618,12.684,12.684,0,0,1-4.281-7.243.817.817,0,0,1-.024-.285c.023-.056.177-.072.349-.072s.337.014.435.021l.191.015a2.953,2.953,0,0,0,2.77-4.388Zm31.073,84.362a51.788,51.788,0,0,0,5.207-5.438l-.525,3.293a.5.5,0,0,0,.73.519,44.623,44.623,0,0,0,8.913-6.344q.335,3.984.582,7.97Zm13.9-57.147c1.651-.356,3.092-.73,4.132-1,.642-.167,1.274-.332,1.9-.5q.461.728.91,1.463A39.941,39.941,0,0,1,357.084,270.683Zm1.6,57.147c-.069-2.892-.227-5.781-.442-8.666a46.814,46.814,0,0,0,13.921-25.926l3.368,1.414a.484.484,0,0,0,.229.032c1.407,3.383,2.782,6.788,4.173,10.186a28.381,28.381,0,0,0-10.868,6.269c-1.237,1.24-8.832,9.8-5.193,14.882a9.24,9.24,0,0,0,1.554,1.809Zm28.433-67.249a71.537,71.537,0,0,1-17.584,8.938c-.246.084-.5.159-.761.235q-1.353-.738-2.684-1.431c4.817-1.516,9.671-3.826,16.481-9.761Q384.85,259.555,387.121,260.581Zm-3.817-2.664q1.775-1.581,3.736-3.5,2.575,1.086,5.142,2.193c-1.4,1.227-2.822,2.36-4.251,3.4Q385.627,258.94,383.3,257.917Zm-16.165,12.251c-.663.142-1.348.263-2.061.357-.322-.54-.644-1.08-.976-1.614l.38-.107Q365.814,269.479,367.139,270.168Zm76.531,63.5a28.3,28.3,0,0,1-2.284,9.858c-2.6,4.366-8.67,4.913-9.91,1.986a3.614,3.614,0,0,1-.14-.344,23.853,23.853,0,0,0,.754-9.254,20.569,20.569,0,0,0-1.03-5.134c-.063-.163-.346-.111-.328.06a20.758,20.758,0,0,1-.142,3.843,43.037,43.037,0,0,1-1.478,7.6c-.022.072-.046.152-.068.226-.03.091-.408,1.3-.513,1.581-.2.541-.4,1.049-.611,1.53a11.054,11.054,0,0,1-5.638,5.169c.071-.1.138-.2.2-.29.694-.945-.328-2.062-1.56-1.606a11.039,11.039,0,0,0-2.957,2.249c-.125.114-.267.239-.425.367a4.418,4.418,0,0,1-3.177-3.417c-.112-2.491,1.741-4.781,2.128-6.624a6.007,6.007,0,0,0,.309-1.757,35.276,35.276,0,0,0-.662-12c-.045-.205-.395-.181-.4.026a52.153,52.153,0,0,1-2.441,13.379,28.373,28.373,0,0,1-2.718,5.8c-.573.951-.561.925-.806,1.293l-.046.067c-.811,1.181-1.469,2.054-3.071,2.2a5.693,5.693,0,0,0,1.853-2.356c.078-1.056-1.31-1.373-2.185-.8a24.721,24.721,0,0,0-2.2,1.552,17.288,17.288,0,0,1-1.538.841c-3.689-2.131-1.895-7.878-1.823-8.144,1.693-6.182.111-11.867-.305-12.381-.221-.274-.061,2.138-.108,3.688a19.926,19.926,0,0,1-2.607,8.223c-.911,1.778-3.615,4.355-4.959,4.816a15.023,15.023,0,0,1-3.758.594c-.028-1.386-.046-3.935-2.248-3.316a3.2,3.2,0,0,0-1.743,1.914,4.34,4.34,0,0,0-.388,1.116,10.719,10.719,0,0,1-8.413-9.937,19.018,19.018,0,0,1,2.226-11.023c.281-.48.554-.908.836-1.327.268-.293-1.734.707-1.734.707s-3.768,2.1-7.279,1.43c-2.065.024-8.607-4.426,2.99-15.493.838-.5,1.59-.913,2.051-1.141a38.878,38.878,0,0,1,5.578-2.2c.892,2.251,1.818,4.635,2.6,6.678q-1.018-3.281-2.126-6.532c-.03-.089-.064-.176-.094-.265a49.689,49.689,0,0,1,6.6-1.368,33.973,33.973,0,0,1,14.081,1.84,26.018,26.018,0,0,1,8.286,4.79,7.46,7.46,0,0,0-2.52-3.9c-1.32-1.192-2.264-2.15-6.224-3.6-.441-.179,3.256-.591,5.5-.715,7.874.042,10.84,2.034,14.455,4.484,1.833,1.243,5.363,5.549,5.363,5.549s-1.022-5.9-5.135-8.425A31.621,31.621,0,0,1,428,307.232a18.886,18.886,0,0,1,6.42,4.273C442.053,317.828,443.943,327.244,443.67,333.671Zm3.551-5.841A27.442,27.442,0,0,0,437,309.658c-6.571-5.019-17.062-7.485-23.961-7.893,1.367-1.6,2.646-3.25,3.814-4.928l.091.787a.5.5,0,0,0,.923.2,41.566,41.566,0,0,0,5.51-14.284.5.5,0,0,0-.934-.323,11.519,11.519,0,0,0-.249-1.992.487.487,0,0,0-.509-.394.5.5,0,0,0-.476.435,12.984,12.984,0,0,1-2.654,6.325.5.5,0,0,0-.971-.086,13.037,13.037,0,0,1-2.344,4.288,2.759,2.759,0,0,0-.316-1.776,1.541,1.541,0,0,0-1.3-.695.5.5,0,0,0-.508.42,23.691,23.691,0,0,1-5.876,12.076c-3.47.187-7.687.552-10.618.89a40.249,40.249,0,0,0-16.194,2c-1.272-3.616-2.61-7.209-4.058-10.758l2.7-6.631a2.433,2.433,0,0,1,1.031,1.747.5.5,0,0,0,.852.309,33.95,33.95,0,0,0,5.7-7.648,169.49,169.49,0,0,1,18.286,13.5c1.114,1,2.231,2.057,3.244,3.119-.949-1.129-1.958-2.206-3-3.247-3.229-3.394-10.051-8.708-18.092-14.141a34.1,34.1,0,0,0,3.311-9.822l3.423.381a.5.5,0,0,0,.37-.107.5.5,0,0,0,.183-.339l.689-6.725c3.827,1.9,7.587,3.886,11.207,6,1.311.776,2.807,1.723,3.96,2.491q-1.044-.8-2.117-1.562a110.85,110.85,0,0,0-12.965-7.757l.469-4.576a5.027,5.027,0,0,1,.748-.521q8.167,3.584,16.267,7.321a17.91,17.91,0,0,0-.319,5.516.5.5,0,0,0-.126.316A32.535,32.535,0,0,1,408.6,285.4a.5.5,0,0,0,.149.633.5.5,0,0,0,.647-.048,27.149,27.149,0,0,0,6.547-10.532l.12,1.4a.5.5,0,0,0,.942.187,48.278,48.278,0,0,0,3.183-7.792l.531.248c-.172-.1-.347-.19-.52-.285a47.979,47.979,0,0,0,1.39-5.66l.665,1.827a.494.494,0,0,0,.514.327.5.5,0,0,0,.448-.412,31.234,31.234,0,0,0-.092-11.168l.864.766a.5.5,0,0,0,.823-.47l-.367-1.885.034.052a.5.5,0,0,0,.891-.433l-1.2-3.645a.5.5,0,0,0,.668-.6,16.437,16.437,0,0,0-6.337-9h0c-.4-.282-.9-.71-1.423-1.163-.369-.317-.756-.652-1.154-.974a.5.5,0,0,0-.776.581l3.141,7.516a9.972,9.972,0,0,0-.061,4.046l-1.234-1.084a.5.5,0,0,0-.827.429l1.3,12.169a16.108,16.108,0,0,0-2.113,6l-1.552-2.078a.492.492,0,0,0-.49-.193.5.5,0,0,0-.39.354c-.069.236-.112.477-.17.716-5.021-2.577-10.122-4.99-15.269-7.306a5.23,5.23,0,0,1,2.431-.167.5.5,0,0,0,.548-.3,18.813,18.813,0,0,0,1.341-10.448.5.5,0,0,0-.389-.4.507.507,0,0,0-.518.21,50.329,50.329,0,0,1-7.924,9.1q-2.588-1.132-5.184-2.239c1.252-1.248,2.564-2.6,3.947-4.08a64.238,64.238,0,0,0,6.5-8.763c.975-1.484,1.982-3.019,3.03-4.474a.5.5,0,0,0-.771-.634,8.933,8.933,0,0,1-5.669,2.724,28.027,28.027,0,0,0,6.327-8.114.5.5,0,0,0-.52-.723l-20.544,3.12a1.817,1.817,0,0,1-1.251-.085.362.362,0,0,1-.114-.241.4.4,0,0,1,.015-.164l.094-.036a.5.5,0,0,0,.3-.6.489.489,0,0,0-.569-.358.975.975,0,0,0-.3.1,17.427,17.427,0,0,1-7.878.967l.148-.72a.5.5,0,0,0-.181-.493.494.494,0,0,0-.52-.061,7.36,7.36,0,0,1-4.029.455.5.5,0,0,0-.311.066c-1.308.776-1.436,2.568-.892,3.861a9.455,9.455,0,0,0,1.262,2c.264.352.531.7.763,1.075,1.224,1.965,1.429,4.484,1.525,6.69.007.17.01.346.016.518a75.853,75.853,0,0,0-18.4-4.685,120.314,120.314,0,0,1,18.437,5.854,35.385,35.385,0,0,1-.224,4.881,90.136,90.136,0,0,0-18.111-4.351,132.962,132.962,0,0,1,17.984,5.248,16.672,16.672,0,0,1-2.211,6.291,14.105,14.105,0,0,1-1.883,2.367,34.5,34.5,0,0,1-3.465,1.976,64.668,64.668,0,0,0-5.961-7.026c-.789-.792-1.588-1.581-2.411-2.342a2.156,2.156,0,0,0-1.363-1.2,23.338,23.338,0,0,0-3.591-2.526,7.205,7.205,0,0,0-4.223-1.243,7.335,7.335,0,0,1,4.252,1.639,25.437,25.437,0,0,1,2.918,2.344.469.469,0,0,0-.051.106l-1.511-.611a.5.5,0,0,0-.58.773l2.586,3.285a.5.5,0,0,0,.63.131,2.158,2.158,0,0,0,1.082-1.549c.849.892,1.676,1.806,2.5,2.711,1.725,1.911,3.331,3.893,4.841,5.933q-.729.349-1.488.685c-1.3-.556-2.556-1.059-3.757-1.494L353.9,261.4a.5.5,0,0,0-.444-.412.489.489,0,0,0-.515.318.865.865,0,0,1-.4.438,4.768,4.768,0,0,0-.646-.6.5.5,0,0,0-.538-.045.443.443,0,0,0-.059.036.5.5,0,0,0-.573-.313.5.5,0,0,0-.386.584l.064.33a21.1,21.1,0,0,0-4.3-.738,5.914,5.914,0,0,0-.847-1.2c-.159-.466-1.256-.944-1.486-1.04a.5.5,0,0,0-.538.822l.616.591-.145-.039a.5.5,0,0,0-.442.874l2.635,2.1a.5.5,0,0,0,.8-.49,5.849,5.849,0,0,0-.536-1.516,18.726,18.726,0,0,1,4.334,1.124l.134.695a1.157,1.157,0,0,0-.1.667,1.1,1.1,0,0,0,.6.84.512.512,0,0,0,.359.028.5.5,0,0,0,.537.168,2.408,2.408,0,0,1,.9-.094l.033.018a.508.508,0,0,0,.37.049,2.279,2.279,0,0,1,.368.125.5.5,0,0,0,.2.042.5.5,0,0,0,.492-.586l-.056-.323c.761.345,1.52.689,2.277,1.006l.142.071a70.76,70.76,0,0,1-10.487,3.456c-.535-1.019-1.094-2.026-1.686-3.018-1.635-2.553-3.155-5.611-5.437-7.653a25.247,25.247,0,0,1,2.523,3.756q1.993,3.49,3.732,7.119a30.421,30.421,0,0,1-3.561.59,43.338,43.338,0,0,1-8.547-.408l-.67-.071c-3.627-.827-7.179-1.867-9.716-2.709a14.748,14.748,0,0,1-5.629-2.993,6.573,6.573,0,0,1-2-3.741,8.658,8.658,0,0,1,1.537-1.622c.448-.365.921-.7,1.394-1.045a13.2,13.2,0,0,0,3.16-2.846,13.363,13.363,0,0,0,.953-1.626,7.978,7.978,0,0,1,1.4-2.106,7.41,7.41,0,0,1,2.829-1.473l.332-.109a11,11,0,0,0,2.946-1.307,4.056,4.056,0,0,0,1.813-2.915,6.4,6.4,0,0,0,2.221-3.3,16.5,16.5,0,0,0,.427-5.242l-.39-14.061a.5.5,0,0,0-.483-.486h-.017a.5.5,0,0,0-.5.453A36.413,36.413,0,0,1,331.5,229.7a11.961,11.961,0,0,1-4.6,6.41,12.1,12.1,0,0,1-4.761,1.623c-.484-.094-.968-.18-1.451-.251a3.845,3.845,0,0,0-1.238-.539,39.047,39.047,0,0,0-14.04-.528,9.056,9.056,0,0,0-2.843.676,3.67,3.67,0,0,0-2.086,2.31,4.152,4.152,0,0,0,1.227,3.736,15.749,15.749,0,0,0,1.228,1.177,12.415,12.415,0,0,1,1.34,1.321,12.654,12.654,0,0,1,1.989,4.313,11.673,11.673,0,0,0,2.632,5.11c.251.242.524.462.8.682a6.246,6.246,0,0,1,1.131,1.073,3.693,3.693,0,0,1,.651,2.023,4.449,4.449,0,0,1-1.49,1.845,11.134,11.134,0,0,1-4.092,1.529,39.2,39.2,0,0,1-9.065,1.195c-.521-.007-1.115,0-1.758.006a49.592,49.592,0,0,1-5.738-.182c-.333-.076-.662-.142-1-.223a39.292,39.292,0,0,1-9.393-3.881c1.037-1.926,2.084-3.818,3.178-5.728.152-.23.3-.47.447-.714.008-.005.017-.008.025-.014a1.022,1.022,0,0,0,.393.235,1.109,1.109,0,0,0,1.056-.231,1.356,1.356,0,0,0,.533-2.546.487.487,0,0,0-.467.015,7.393,7.393,0,0,1,2.265-2.316,1.291,1.291,0,0,0-.707.35,15.4,15.4,0,0,0-2.077,2.223,1.291,1.291,0,0,1-.427,0,.505.505,0,0,0-.438.159l-1.492,1.645a.5.5,0,0,0,.437.832c.013,0,.025-.008.038-.01-1.244,1.852-2.418,3.747-3.544,5.67a56.8,56.8,0,0,1-6.251-4.184c-.681-.525-1.4-1.146-2.148-1.825a116.092,116.092,0,0,1,13.452-8.276,1.686,1.686,0,0,0-.018.2.5.5,0,0,0,.678.46.506.506,0,0,0,.293.216,1.148,1.148,0,0,0,.3.039,1.775,1.775,0,0,0,1.021-.406l.112-.087a1.137,1.137,0,0,1,.584-.293.621.621,0,0,0,.582-.385c.087-.335-.033-.466-.547-.744a.41.41,0,0,0-.167-.362,37.334,37.334,0,0,1,7.215-2.5A28.157,28.157,0,0,0,285,242.83a.494.494,0,0,0-.1-.021,1.785,1.785,0,0,0-1.217.591,96.729,96.729,0,0,0-14.658,8.609c-.4-.382-.808-.782-1.218-1.194a17.526,17.526,0,0,1-1.5-1.9,11.711,11.711,0,0,1-1.111-2.09q2.184-.924,4.4-1.773a11.3,11.3,0,0,0-.419,2.585.5.5,0,0,0,.4.512.5.5,0,0,0,.417-.1c.027.156.058.311.095.465a.5.5,0,0,0,.487.383h0a.5.5,0,0,0,.486-.387,14.712,14.712,0,0,1,.953-2.8,1.356,1.356,0,0,0,.658-.667,1.585,1.585,0,0,0,.062-.15,3.108,3.108,0,0,0,.516-1.17,5.676,5.676,0,0,1,2.179-.335,6.042,6.042,0,0,0-2.148.115c.008-.062.022-.123.026-.186a.5.5,0,0,0-.913-.314c-.081.12-.16.24-.238.362a1.369,1.369,0,0,0-.883-.1,1.334,1.334,0,0,0-.894.616.487.487,0,0,0-.5.324c-.033.091-.059.184-.09.276-.174.047-.349.1-.515.134-1.462.441-2.908.927-4.343,1.447a7.8,7.8,0,0,1-.363-2.32l.439-.045a.5.5,0,0,0,.382-.747,14.748,14.748,0,0,1-1.192-2.7c4.9-.8,9.793-1.669,14.738-2.144,1.932-.075,4.091-.559,5.889.322-2.814-1.442-6.281-.627-9.337-.661-3.883.317-7.74.852-11.583,1.482a15,15,0,0,1-.461-3.257q1.341-.252,2.681-.5a6.5,6.5,0,0,0-.427,2.012.5.5,0,0,0,.3.48.5.5,0,0,0,.554-.1,10.389,10.389,0,0,0,.739-.818.488.488,0,0,0,.233.159.5.5,0,0,0,.6-.25,11.7,11.7,0,0,1,1.369-2.095q2.2-.388,4.412-.716a2.9,2.9,0,0,0-.257.4.5.5,0,0,0,.088.57c.015.015.031.03.048.044a.937.937,0,0,0,.219.459,1.141,1.141,0,0,0,.841.381c.021,0,.041,0,.062,0a2.016,2.016,0,0,0,1.1-.515,1.161,1.161,0,0,1,.539-.293h0a.5.5,0,0,0,.458-.335,3.462,3.462,0,0,0,.908-.682.5.5,0,0,0,.105-.523c0-.011-.016-.017-.021-.028a22.026,22.026,0,0,1,5.128-.11l-1.75,1.041a.5.5,0,0,0,.419.9l.165-.057a.5.5,0,0,0,.446.274h.008a4.353,4.353,0,0,0,1.966-.5A1.255,1.255,0,0,0,284.7,235a.5.5,0,0,0,.106-.683.492.492,0,0,0-.069-.081.5.5,0,0,0-.029-.342.5.5,0,0,0-.616-.263l-.09.03a.5.5,0,0,0-.712-.225l-.025.015a21.65,21.65,0,0,0-6.655-.24.494.494,0,0,0-.088-.174.5.5,0,0,0-.681-.066l-.069.054a.505.505,0,0,0-.235,0,2.886,2.886,0,0,0-.753.334c-.621.053-1.238.1-1.847.137-.834.1-1.663.233-2.494.354.184-.178.365-.36.559-.524a.5.5,0,0,0-.6-.8l-1.248.817a2.2,2.2,0,0,0-1.137-.316.485.485,0,0,0-.4.142,6.448,6.448,0,0,0-1,1.283c-1.063.183-2.126.368-3.187.569.011-.3.023-.591.052-.885a.5.5,0,0,0-.178-.432.5.5,0,0,0-.456-.1l-.2.055a16.484,16.484,0,0,1,5.722-10.6.5.5,0,0,0,.075-.692,3.437,3.437,0,0,0-1.44-1.068,10.427,10.427,0,0,0,2.934-2.475.5.5,0,0,0-.039-.674,11.333,11.333,0,0,0-9.3-4.379c-.361-.022-.721-.044-1.079-.073a26.273,26.273,0,0,1-13.3-4.91.5.5,0,0,0-.793.407l.027,8.708a10.659,10.659,0,0,1-2.2-2.713.5.5,0,0,0-.936.249,22.694,22.694,0,0,0,.578,4.879c-3.769-5.111-6.1-11.652-7.5-17.049a11.394,11.394,0,0,1,6.187-.608.506.506,0,0,0,.542-.277.5.5,0,0,0-.127-.595,34.084,34.084,0,0,1-9.561-13.565c-.169-1.065-.307-2.088-.382-2.973-1.455-10.948,4.459-34.876,4.52-35.107a8,8,0,0,0,.181-.992,55.747,55.747,0,0,0,1.577-5.464,33.462,33.462,0,0,0,1.1-11.086,51.976,51.976,0,0,0-1.159-6.157,50.791,50.791,0,0,1-1.143-6.091,17.274,17.274,0,0,1,.422-6.088,8.8,8.8,0,0,0,.956-1.148c.874-1.228,3.7-1.038,5.852-.5a.52.52,0,0,0,.111.009c.018,0,.035,0,.052,0,.077-.007.154-.011.231-.016.233-.017.466-.034.7-.048a.5.5,0,0,0,.4-.747c-.217-.383-.435-.767-.644-1.141a59.5,59.5,0,0,1-3.342-7.138,56.347,56.347,0,0,1-3.587-27.9c.111-.842.254-1.7.412-2.561,7.873,3.147,22.28,9.411,32.728,15.694a.5.5,0,0,0-.225.49l.658,4.1c-6.148-5.425-13.932-8.784-21.535-11.752-1.218-.47-2.579-.977-3.734-1.386q2.853,1.239,5.665,2.572c6.843,3.193,14.266,7.383,19.879,12.278l.39,2.429-.924-1.611a.5.5,0,0,0-.934.227l-.3,7.017a10.311,10.311,0,0,0-3.707-2.818.5.5,0,0,0-.6.754,22.278,22.278,0,0,1,3.5,17.749,18.488,18.488,0,0,0-2.25-5.97.5.5,0,0,0-.925.326,16.164,16.164,0,0,1-4.939,14.028.5.5,0,0,0,.333.873.43.43,0,0,0,.088-.008c3.1-.551,6.621-1.176,9.537-3.141,2.525-1.7,4.839-4.918,4.687-8.493a10.069,10.069,0,0,1,3.383,2.617,2.844,2.844,0,0,0,1.093,1.463.5.5,0,0,0,.7-.678,11.73,11.73,0,0,0-.9-1.27,3.034,3.034,0,0,1-.076-.384,3.152,3.152,0,0,1,.686-2.412,4.169,4.169,0,0,1,4.112-.994,7.439,7.439,0,0,1,5.057,4.884.49.49,0,0,0,.552.337.5.5,0,0,0,.422-.491,14.473,14.473,0,0,0-1.321-6.138,9.1,9.1,0,0,1,6.127,4.592.5.5,0,0,0,.914-.085,14.63,14.63,0,0,0,.409-1.725,10.524,10.524,0,0,1,.744-2.594.5.5,0,0,0,.013-.4c-7.48-18.608-15.812-38.4-26.04-57.039A57.109,57.109,0,0,0,261.153,42.5c-4.027-3.569-8.611-4.783-11.969-3.172a12.252,12.252,0,0,0-5.287,5.75,86.432,86.432,0,0,0-7.989,19.9,112.7,112.7,0,0,1,8.256-28.257c.419-.932,3.575-3.332,5.07-3.471a21.29,21.29,0,0,1,5.9,1.637,51.4,51.4,0,0,1,11.355,9.82,55.773,55.773,0,0,1,6.923,10.653L288.177,82.4c4.991,9.138,10.649,19.494,11.347,30.615a.488.488,0,0,0,.516.468.5.5,0,0,0,.483-.5,63.218,63.218,0,0,0-1.959-16.8,20.48,20.48,0,0,1,3.014,4.369c1.615,2.79,3.445,5.952,6.475,7.65,3.073,1.722,6.807,1.544,9.35,1.26.818-.091,1.637-.206,2.456-.321a22.823,22.823,0,0,1,14.6,1.666,51.464,51.464,0,0,0,4.989,1.628,25.822,25.822,0,0,0,16.424-1.3,53.007,53.007,0,0,0,6.049-3.245q.8-.477,1.594-.937c.131.055.263.1.393.163,1.037.487,2.717,1.532,2.337,3.059-.148.595.127.807.305.881a.579.579,0,0,0,.229.059c.482,0,1.46-.92,6.107-7.75,2.791-4.1,6.015-9.072,7.839-12.088,6.99-11.553,25.133-31.832,25.263-31.984.078-.065,7.845-6.5,12.186-8.509,4.174-1.932,8.576-1.987,11.779-.147a12.92,12.92,0,0,1,5.41,7.1,22.907,22.907,0,0,1,.728,2.618,43.9,43.9,0,0,1-.58,15.859c-.035.144-.06.292-.1.437-.312.017-.625.025-.938.047.037-1.3.06-2.383.074-3.205h0c.031-.541.674-13.291-6.266-17.762-3.316-2.137-8.4-1.7-13.262,1.136a58.623,58.623,0,0,0-13.784,11.63c-13.562,16.23-25.361,33.816-36.109,50.508a8.885,8.885,0,0,0-3.354,1.614,17.883,17.883,0,0,1-.347-4.546c.008-.865.016-1.683-.052-2.433a.5.5,0,0,0-.875-.283,33.538,33.538,0,0,0-6.594,11.688.5.5,0,0,0,.7.6l1.23-.626a15.393,15.393,0,0,0,1.1,6.489.5.5,0,0,0,.464.313h.035a.5.5,0,0,0,.45-.379,9.06,9.06,0,0,1,4.618-5.789l.585,2.844a.5.5,0,0,0,.906.177,22.155,22.155,0,0,1,6.285-6.188,9.807,9.807,0,0,1,2.666-.436,13.609,13.609,0,0,0-2.4,5.846.5.5,0,0,0,.933.318,7.908,7.908,0,0,1,6.232-3.985,4.872,4.872,0,0,1,4.312,1.69,2.909,2.909,0,0,1,.361,2.43,2.58,2.58,0,0,1-.152.4,11.825,11.825,0,0,0-1.169,1.1.5.5,0,0,0,.558.8,2.886,2.886,0,0,0,1.4-1.258,10.963,10.963,0,0,1,4.137-2.044c-.747,3.519,1.221,7.095,3.66,9.2,2.806,2.421,6.47,3.623,9.7,4.683a.494.494,0,0,0,.156.025.5.5,0,0,0,.374-.832,15.343,15.343,0,0,1-3.054-14.653.5.5,0,0,0-.847-.488,17.766,17.766,0,0,0-3.441,5.71,20.931,20.931,0,0,1,6.57-17.111.5.5,0,0,0-.451-.856,11.213,11.213,0,0,0-4.507,2.235l.808-7.054a.5.5,0,0,0-.3-.515.5.5,0,0,0-.578.13l-1.395,1.6,1.608-4.648a89.447,89.447,0,0,1,13.51-1.852A117.473,117.473,0,0,1,422.8,102.5a57,57,0,0,1,5.839.538,54.937,54.937,0,0,1-4.537,16.3c-1.16,2.578-2.873,3.105-4.856,3.716-2.09.643-4.458,1.372-6.023,4.849a.5.5,0,0,0,.059.508.491.491,0,0,0,.476.19,6.177,6.177,0,0,1,6.357,2.53c2.34,3.163,3.061,8.759,2.61,14.329-.26.663-.51,1.3-.716,1.9-.427,1.24-.954,2.479-1.463,3.677a36.687,36.687,0,0,0-2.116,5.89c-.9,3.82-.561,7.793-.234,11.636l.1,1.17a96.51,96.51,0,0,1,.177,16.044c-1.071,12.886-5.9,24.275-13.6,32.068a.5.5,0,0,0,.356.851l.051,0a10.226,10.226,0,0,0,5.939-2.877,67.466,67.466,0,0,0-1.246,8.4c-.63,6.018-1.6,12.226-5.82,16.215a.5.5,0,0,0-.155.317l-1.213,12.9a.5.5,0,0,0,.311.511.509.509,0,0,0,.187.036.5.5,0,0,0,.391-.189,23.535,23.535,0,0,0,3.773-6.854l.208,1.581a.5.5,0,0,0,.943.158,49.333,49.333,0,0,0,5.039-18.272l1.448,1.092a.5.5,0,0,0,.765-.586,15.344,15.344,0,0,1-.946-7.771l3.292,1.906a.5.5,0,0,0,.656-.726c-2.353-3.248-3.192-7.752-2.367-12.682a39.745,39.745,0,0,1,2.941-9.164,16.883,16.883,0,0,1,4.3-4.934c7.515,1.437,13.7,8.463,17.713,14.524,2.456,3.706,4.7,7.7,6.865,11.562,1.215,2.164,2.446,4.356,3.728,6.522a40.022,40.022,0,0,0-11.311-6.457.5.5,0,0,0-.466.868,14.737,14.737,0,0,1,4.964,6.926,22.752,22.752,0,0,0-9.014-3.994.5.5,0,0,0-.47.825,48.652,48.652,0,0,1,10.239,17.609l-7.461-3.555a.5.5,0,0,0-.573.8,16.088,16.088,0,0,1,4.229,15.225.5.5,0,0,0,.029.339,29.525,29.525,0,0,1,1.05,22.313l-5.921-2.706a.5.5,0,0,0-.622.736,106.868,106.868,0,0,1,16.1,36.671.5.5,0,0,0,.824.258l.957-.872.13,12.473ZM251.56,55.787c.053.053,3.795,3.747,7.15,7.772a94.057,94.057,0,0,0-13.795-6.976l-.141-.054a15.584,15.584,0,0,1,12.475-5.646c.118.1.249.192.36.3-1.657.992-5.772,3.7-5.973,3.827a.5.5,0,0,0-.076.774Zm-5.788,1.571a130.912,130.912,0,0,1,12.735,7.319q1.122.693,2.209,1.406c.216.288.428.575.63.859a3.181,3.181,0,0,0-1.554-.194,2.5,2.5,0,0,0-1.849,1.458,2.11,2.11,0,0,0-.069.208c-3.82-.416-7.7-.521-11.421-.663-1.465-.019-3.108-.023-4.475,0q2.243.151,4.48.359c3.849.4,7.647.805,11.341,1.43a1.715,1.715,0,0,0,.221.54.49.49,0,0,0,.188.171,23.739,23.739,0,0,1,8.329,7.687c-2.966-2.136-6.02-4.145-9.08-6.071-.979-.58-2.142-1.22-3.066-1.682q1.465.867,2.876,1.822c2.036,1.4,6.262,4.587,10.9,8.434a75.435,75.435,0,0,1,3.794,7.254c-10.3-6.474-24.758-12.381-33.138-15.209.251-1.287.55-2.606.912-3.986a38.641,38.641,0,0,1,1.927-5.91,39.5,39.5,0,0,1,2.154-4.643,10.555,10.555,0,0,1,.744-1.145C244.966,56.99,245.373,57.165,245.772,57.358ZM474.9,327.83a.48.48,0,0,0,.109-.1.506.506,0,0,0,.061-.451,51.528,51.528,0,0,1-2.307-9.089.5.5,0,0,0-.966-.088,32.343,32.343,0,0,0-1.874,9.415.5.5,0,0,0,.105.31H460l3.04-4.655.388,3.914a.5.5,0,0,0,.966.127l10.481-27.777a44.122,44.122,0,0,0,3.778-24.481l3.12,2.81a.5.5,0,0,0,.828-.455c-.041-.242-.1-.483-.142-.726a43.524,43.524,0,0,0,14.368,3.193.508.508,0,0,0,.5-.348.5.5,0,0,0-.206-.573l-1.393-.893a130.8,130.8,0,0,1,16.354,2.9.5.5,0,0,0,.421.377l2.21.287a.5.5,0,0,0,.486-.225,112.992,112.992,0,0,1,26.054,3.968.5.5,0,0,0,.346-.934l-.8-.379,4.3.829a.494.494,0,0,0,.557-.3.5.5,0,0,0-.182-.605,97.3,97.3,0,0,0-15.9-8.715L533,274.94a.5.5,0,0,0,.129-.972l-22.29-7.618a.531.531,0,0,0,.023-.055.5.5,0,0,0-.251-.614l-3.653-1.8a146.805,146.805,0,0,1,32.711,12.207c.932.478,1.832.979,2.743,1.473,17.016,11.1,32.859,28.289,45.943,50.265Z"/></svg>