<svg id="e284cc0c-e480-47d2-bdee-bc0660574cf4" data-name="Layer 2" xmlns="http://www.w3.org/2000/svg" viewBox="0 0 712 535.499" style="fill: #215342;" height="275" width="315"><path d="M460.429,258.994a48.435,48.435,0,0,1-8.35,8.281.5.5,0,0,0,.306.9.51.51,0,0,0,.241-.061l13.68-7.5c1.844-1.011,3.751-2.057,5.54-3.256.884-.593,1.759-1.231,2.637-1.871,3.122-2.279,6.352-4.635,10.1-4.854,3.985-.233,7.772,2.035,11.107,4.035,6.716,4.028,13.616,7.935,20.511,11.612a.5.5,0,0,0,.644-.728c-2.387-3.405-5.094-7.265-9.064-9.452-.554-.305-1.138-.582-1.722-.86-1.729-.821-3.362-1.6-4.261-3.084a.5.5,0,0,0-.373-.238c-2.484-.275-4.746-1.736-6.741-3.024l-7.291-4.71c-.142-.092-.292-.191-.446-.3a10.428,10.428,0,0,1,.344-6.172,13.192,13.192,0,0,1,2.037-2.962,19.369,19.369,0,0,0,1.73-2.327,9.956,9.956,0,0,0,.388-9.249c-.119-.245-.253-.521-.2-.672.071-.194.527-.235,1.192-.108a10.923,10.923,0,0,0,9.52-2.84,3.512,3.512,0,0,0,1.334-2.834c-.155-1.425-1.475-2.249-2.746-2.866-3.049-1.482-6.04-2.745-9.059-1.962a.5.5,0,0,0,.114.984,8.742,8.742,0,0,1,4.634.967,3.157,3.157,0,0,1,1.318,2.132,1.851,1.851,0,0,1-.407,1.493,2.931,2.931,0,0,1-2.806.614,13.407,13.407,0,0,1-1.556-.45,13.085,13.085,0,0,0-1.85-.515,3.815,3.815,0,0,0-3.706,1.125,3.938,3.938,0,0,0-.068,4.02c.192.419.419.824.645,1.228a8.737,8.737,0,0,1,.921,2.009c.555,2.108-.589,4.332-1.808,6.429a3.338,3.338,0,0,1-.779,1.024.793.793,0,0,1-.831.13,2.146,2.146,0,0,1-.5-.595c-.313-.472-.736-1.116-1.541-.932-.667.158-.861.781-1,1.236a2.245,2.245,0,0,1-.218.542.921.921,0,0,1-1.029.207,3.425,3.425,0,0,1-1.217-.942,8.693,8.693,0,0,1-2.319-3.546,9.68,9.68,0,0,1,.089-3.959,10.884,10.884,0,0,0,.111-4.368,4.066,4.066,0,0,0-3.2-3.182,5.507,5.507,0,0,0-3.195.945,6.832,6.832,0,0,1-2.063.844,5.352,5.352,0,0,1-3.609-1.093,2.081,2.081,0,0,1-.9-.872c-.282-.756.653-1.568,1.374-1.88.241-.1.493-.2.746-.288a5.151,5.151,0,0,0,2.2-1.246,50.234,50.234,0,0,0,6.507-1.7.5.5,0,0,0-.187-.977,36.58,36.58,0,0,0-11.04,2.677c-1.336.556-2.936,1.394-3.467,2.963-.7,2.07.876,4.221,2.793,5.277a9.612,9.612,0,0,0,7.426.762l.277-.088a2.654,2.654,0,0,1,1.965-.168,1.574,1.574,0,0,1,.641,1.329,6.336,6.336,0,0,1-.157,1.35c-.037.2-.075.395-.1.593a9.227,9.227,0,0,0,1.84,6.979,17.709,17.709,0,0,0,1.8,1.872,13.7,13.7,0,0,1,1.977,2.147,8.684,8.684,0,0,1,1,6.757,46.176,46.176,0,0,1-5.5,6,.5.5,0,0,0-.842-.15,34.608,34.608,0,0,1-13.311,9.28A.5.5,0,0,0,460.429,258.994Z"/><path d="M528.266,198.934a.5.5,0,0,0,.129-.983,56.95,56.95,0,0,1-12.07-4.762l-.483-.252c-1.714-.89-3.847-2-3.476-4.043h0a51.812,51.812,0,0,1,2.029-8.466,16.786,16.786,0,0,1,4.592-7.1,15.15,15.15,0,0,1,8.113-3.4,19.4,19.4,0,0,1,10.961,1.889,18.734,18.734,0,0,1,7.931,7.538,19.425,19.425,0,0,1-8.181,15.364.5.5,0,0,0,.483.87,18.2,18.2,0,0,0,11-18.16.489.489,0,0,0-.152-.322,67.358,67.358,0,0,0-7.661-6.62,22.744,22.744,0,0,0-9.348-4.071,19.55,19.55,0,0,0-17.159,6.452,24.921,24.921,0,0,0-5.923,17.566,1.945,1.945,0,0,0,.281,1.07,1.992,1.992,0,0,0,.868.631l7.9,3.617c3.048,1.4,6.5,2.977,10.14,3.187Z"/><path d="M449.551,195.548a1.622,1.622,0,0,0,1.134-1.7,25.117,25.117,0,0,0-5.842-17.563c-4.319-4.9-10.967-7.43-16.934-6.455a22.319,22.319,0,0,0-9.227,4.073,66.653,66.653,0,0,0-7.556,6.62.5.5,0,0,0-.151.32,18.525,18.525,0,0,0,2.542,10.848A18.175,18.175,0,0,0,421.83,199a.5.5,0,0,0,.487-.867,19.5,19.5,0,0,1-8.069-15.369,18.6,18.6,0,0,1,7.822-7.538,18.879,18.879,0,0,1,10.805-1.887,14.825,14.825,0,0,1,8,3.4,16.785,16.785,0,0,1,4.529,7.1,52.276,52.276,0,0,1,2,8.467c.366,2.049-1.736,3.156-3.426,4.045l-.477.254a55.8,55.8,0,0,1-11.906,4.76.5.5,0,0,0,.131.983h.029c3.59-.21,7-1.792,10.006-3.188Z"/><path d="M530.647,176.537a.5.5,0,0,0,.234-.274,1.374,1.374,0,0,0-.121-1.144,1.647,1.647,0,0,0-1.08-.8,2.176,2.176,0,0,0-2.019.763,4.931,4.931,0,0,0-.9,1.7,15.372,15.372,0,0,0-1.054,6.571,8.24,8.24,0,0,0,3.088,5.957,1.655,1.655,0,0,0,.967.387c.024,0,.047,0,.07,0,.585-.035,1.033-.479,1.331-1.319a36.062,36.062,0,0,0,1.793-7.6.5.5,0,0,0-.684-.525,2.18,2.18,0,0,1-2.635-.951A2.031,2.031,0,0,1,530.647,176.537Z"/><path d="M433.306,178.747a.5.5,0,0,0-.127-.387l-1.4-1.541a.5.5,0,0,0-.668-.065,8.167,8.167,0,0,0-3,6.772,18.009,18.009,0,0,0,1.934,7.111c.3.664.757,1.037,1.236,1.037a.969.969,0,0,0,.307-.051,1.347,1.347,0,0,0,.674-.6,20.713,20.713,0,0,0,2.776-6.531,1.345,1.345,0,0,0-.038-.9,1.085,1.085,0,0,0-1.268-.522,1.607,1.607,0,0,0-.5.228,5.56,5.56,0,0,1-1.319-3.312c.363-.271.737-.551,1.185-.879A.492.492,0,0,0,433.306,178.747Z"/><path d="M497.55,311.3a.5.5,0,0,0-.215.425l.1,3.954a44.182,44.182,0,0,1-13.231-6.286.5.5,0,0,0-.71.145,8.587,8.587,0,0,1-3.379,3.079l-.383-2.553a.5.5,0,0,0-.317-.394.507.507,0,0,0-.5.085,17.386,17.386,0,0,1-11.285,4.029l2-2.7a.5.5,0,0,0-.611-.752,44.765,44.765,0,0,1-27.118,3.307.5.5,0,0,0-.4.884c2.472,1.94,7.226,3.3,12.533,3.681l-4.1.905a.5.5,0,0,0-.007.975,139.439,139.439,0,0,0,22.554,3.389,14.978,14.978,0,0,0-.989,7.11.5.5,0,0,0,.586.441c2.579-.467,4.6-2.229,6.559-3.934,2.042-1.779,3.972-3.46,6.433-3.715a12.431,12.431,0,0,1,5.2,1.007l20.082,6.964a.492.492,0,0,0,.164.028.5.5,0,0,0,.432-.753,17.531,17.531,0,0,1-2.064-5.387,40.08,40.08,0,0,0,30.987-5.211.5.5,0,0,0,.2-.594.5.5,0,0,0-.537-.321,23.726,23.726,0,0,1-18.169-5.224.5.5,0,0,0-.789.56,9.394,9.394,0,0,0,2.94,3.994,119.877,119.877,0,0,1-25.5-7.19A.5.5,0,0,0,497.55,311.3Z"/><path d="M369.594,137.273a1.372,1.372,0,0,1-.606.128l-7.658.557a.5.5,0,0,0-.173.953l10.361,4.772c2.191,1.008,4.4,2.161,5.2,4.176a.5.5,0,0,0,.465.315.607.607,0,0,0,.094-.008.5.5,0,0,0,.406-.491,22.863,22.863,0,0,0-3.082-11.049,49.785,49.785,0,0,0-6.823-9.172l-.855-.943a36.19,36.19,0,0,1-5.2-6.713c-2.224-4.076-2.7-8.811-2.871-12.48-.065-1.444-.088-2.89-.111-4.337a72.472,72.472,0,0,0-.5-8.834,62.342,62.342,0,0,0-1.607-7.6c-.389-1.491-.757-2.9-.981-4.3a.514.514,0,0,0-.544-.418.5.5,0,0,0-.45.518l1.007,24.02c.225,5.358.48,11.43,3.135,16.609,1.736,3.387,4.392,6.179,6.959,8.879,1.134,1.191,2.306,2.424,3.377,3.685a2.271,2.271,0,0,1,.629,1.462A.349.349,0,0,1,369.594,137.273Z"/><path d="M407.045,113.328a.5.5,0,0,0-.025.886l4.508,2.511c-2.961.354-5.695,2.038-8.087,3.651l-.23.155c-2.814,1.9-5.723,3.863-9,3.984a.5.5,0,0,0-.352.835l2.991,3.308-8.828.636a1.639,1.639,0,0,0-1.6,2.52l1.116,3.269a9.214,9.214,0,0,0-3.565-1.158.5.5,0,0,0-.5.72,19.74,19.74,0,0,1,1.92,10.849.5.5,0,0,0,.81.445c4.371-3.5,5.96-8.592,6.508-12.433l10.623,1.638a.5.5,0,0,0,.576-.488,14.887,14.887,0,0,0-.829-5.056,10.968,10.968,0,0,0,5.151.913.5.5,0,0,0,.24-.917,9.539,9.539,0,0,1-3.648-4.584c3.5-.224,6.666-1.881,9.736-3.486a36.41,36.41,0,0,1,6.606-2.918.5.5,0,0,0,.237-.811,14.807,14.807,0,0,0-2.809-2.466,11.442,11.442,0,0,1,7.172,1.341.5.5,0,0,0,.572-.814A18.155,18.155,0,0,0,407.045,113.328Z"/><path d="M463.159,241.771l-.412.186a.5.5,0,0,0,.2.956.515.515,0,0,0,.2-.044l.412-.186a.5.5,0,1,0-.41-.912Z"/><path d="M465.915,249.2c.013-.009.033-.021.062-.037l1.6-.472a.5.5,0,0,0-.261-.965l-.831.2a4.467,4.467,0,0,0-.883.3l-.139.041a.514.514,0,0,0-.356.425.56.56,0,0,0,.226.523.483.483,0,0,0,.26.07A.611.611,0,0,0,465.915,249.2Z"/><path d="M455.085,235.31a.482.482,0,0,0-.112-.047,4.055,4.055,0,0,0-2.078-.03c-.1-.025-.191-.055-.285-.088a.607.607,0,0,0-.08,1.168,6.127,6.127,0,0,0,3.347-.06.5.5,0,0,0,.35-.555.512.512,0,0,0-.5-.424C455.513,235.277,455.3,235.292,455.085,235.31Z"/><path d="M521.562,255.074l-.341-.15a.5.5,0,0,0-.51.851,5.078,5.078,0,0,0,2.2.981l1.1.483a.5.5,0,0,0,.644-.224.65.65,0,0,0,.033-.078c.366.188.725.395,1.074.617a.5.5,0,0,0,.656-.1.5.5,0,0,0-.026-.662l-.829-.87,0,0c-.061-.106-.127-.21-.195-.311.031-.381-.315-.61-.818-.943l-.022-.014a5.169,5.169,0,0,0-.863-.617.5.5,0,0,0-.565.821,9.393,9.393,0,0,0,.815.588l.088.083a14.613,14.613,0,0,0-1.913-.63A.5.5,0,0,0,521.562,255.074Zm1.852-.611a8.7,8.7,0,0,0,.735.533A8.7,8.7,0,0,1,523.414,254.463Z"/><path d="M515.5,252.388a4.173,4.173,0,0,1,.473-.384.5.5,0,0,0-.332-.908l-2.782.259c-.7-.152-.834-.061-.99.169a.506.506,0,0,0-.052.484.453.453,0,0,0-.049.13.5.5,0,0,0,.312.578l1.554.583a.5.5,0,0,0,.084.546,1.787,1.787,0,0,0,1.323.561,1.756,1.756,0,0,0,1.166-.426.5.5,0,0,0-.156-.842l-.721-.271a.506.506,0,0,0,.17-.288A.557.557,0,0,0,515.5,252.388Z"/><path d="M501.927,246.893a.5.5,0,0,0-.417.112.506.506,0,0,0-.175.394,2.537,2.537,0,0,0,1.174,2.052.5.5,0,0,0,.766-.425.65.65,0,0,0,.616-.069,3.264,3.264,0,0,1,.9.547,5.608,5.608,0,0,1,.741.922.5.5,0,0,0,.86-.509,4.149,4.149,0,0,0-.917-1.141A6.882,6.882,0,0,0,501.927,246.893Z"/><path d="M527.932,245.465a.5.5,0,0,0-.452-.51l-3.071-.294a.5.5,0,0,0-.529.359.5.5,0,0,0,.255.584l.339.171a.5.5,0,0,0,.176.349c.067.058.138.112.211.164a1.81,1.81,0,0,0,.391.721.5.5,0,0,0,.367.182l2.986.12h.021a.5.5,0,0,0,.14-.98l-1.3-.381A.5.5,0,0,0,527.932,245.465Z"/><path d="M517.783,243.459a.5.5,0,0,0-.448-.5l-1.781-.185a.717.717,0,0,0-.41,1.368l.429.061a2.8,2.8,0,0,0,.77.883.5.5,0,0,0,.829-.388l-.016-.728.173-.015A.5.5,0,0,0,517.783,243.459Z"/><path d="M506.668,241.941l.635.339a.5.5,0,0,0,.512-.858l-2.464-1.63a.5.5,0,0,0-.682.71c.073.1.128.184.17.253a.926.926,0,0,0-.076.173c-.126,0-.266,0-.372-.007a.477.477,0,0,0-.513.445.5.5,0,0,0,.4.547l.994.191a1.864,1.864,0,0,0,.884.167A.544.544,0,0,0,506.668,241.941Z"/><path d="M544.122,239.809a.5.5,0,0,0-.311-.445c-.1-.043-.21-.085-.315-.126a.5.5,0,0,0-.414-.72,12.654,12.654,0,0,1-4.353-1.1.5.5,0,0,0-.537.83l.441.392a5.986,5.986,0,0,1-1.594.186l-.284-.014a.486.486,0,0,0-.523.47.5.5,0,0,0,.463.528c.1.007.2.013.307.015l3.964.191a4.89,4.89,0,0,0,.613.53.483.483,0,0,0,0,.085.5.5,0,0,0,.348.438l.606.19a.482.482,0,0,0,.149.023.5.5,0,0,0,.471-.667l.691-.345A.5.5,0,0,0,544.122,239.809Z"/><path d="M531.621,235.512a.5.5,0,0,0-.444-.544l-3.97-.439c-.814-.2-1.581-.3-1.824-.091a.5.5,0,0,0-.153.531.47.47,0,0,0,.271.311.5.5,0,0,0-.263.869,4.683,4.683,0,0,0,3.081,1.137,4.48,4.48,0,0,0,1.592-.287.5.5,0,0,0,.2-.794,2.54,2.54,0,0,0-.368-.35l1.34.108A.506.506,0,0,0,531.621,235.512Z"/><path d="M518.655,234.04a.5.5,0,0,0-.456-.435,9.512,9.512,0,0,0-3.518.391.5.5,0,0,0-.314.288.486.486,0,0,0-.037.2l-.608.174a.5.5,0,0,0-.116.911,4.533,4.533,0,0,0,2.29.614,4.408,4.408,0,0,0,1.253-.179.5.5,0,0,0,.094-.92c-.1-.054-.2-.1-.3-.149a8.708,8.708,0,0,0,1.385-.361A.5.5,0,0,0,518.655,234.04Z"/><path d="M451.761,246.313c-.389.3-.758.629-1.139.941a.511.511,0,0,0-.452-.182l-.431.064.782-.459a.5.5,0,0,0-.071-.9,4.877,4.877,0,0,0-3.768.1.5.5,0,0,0-.276.582.486.486,0,0,0,.525.371c.117-.009.227-.018.327-.024a1.787,1.787,0,0,0-.439.519.5.5,0,0,0-.022.441l.012.025a.5.5,0,0,0,.453.712.44.44,0,0,0,.073-.006l1.715-.255c.139-.006.277-.025.415-.04-6.358,5.454-11.646,12.039-16.957,18.494-.069.085-.136.171-.2.256a64.371,64.371,0,0,1-10.858-1.03c3.938-3.916,8.035-7.649,12.255-11.106a.5.5,0,0,0,.227-.117c.343-.333.716-.637,1.078-.952.812-.649,1.631-1.278,2.452-1.9a26.4,26.4,0,0,1,4.6-2.52.5.5,0,0,0,.305-.492.485.485,0,0,0-.251-.377c4.511-2.964,8.989-6.373,14.21-7.914-5.271,1.065-9.954,4.085-14.542,6.8a2.3,2.3,0,0,1-.347-.1,3.912,3.912,0,0,0-3.971.676l-4.227,2.919a.5.5,0,0,0,.39.9l.974-.211-1.809,2a.453.453,0,0,0-.1.268,149.99,149.99,0,0,0-12.907,11.778c-1.154-.263-2.3-.566-3.429-.924a18.008,18.008,0,0,0,5.45-1.445.5.5,0,0,0,.039-.895,85.833,85.833,0,0,0-13.9-6.131l5.093-4.134a.5.5,0,0,0-.2-.875c-.145-.034-.29-.06-.435-.093a115.343,115.343,0,0,1,17.657-10.262l0,.017a.5.5,0,0,0,.538.307l.617-.092-1.008.81a.5.5,0,0,0,.486.859,16.836,16.836,0,0,0,5.251-3.112.5.5,0,0,0,.127-.584.627.627,0,0,0-.037-.068,5.73,5.73,0,0,0,.471-.582.389.389,0,0,0,.021-.051,44.361,44.361,0,0,1,4.809-1.265.491.491,0,0,0-.065.177l-.5.059a.5.5,0,0,0-.278.866,3.238,3.238,0,0,0,.458.349l-.106.024a.5.5,0,0,0,.114.987.531.531,0,0,0,.1-.009q.66-.13,1.307-.307l.946-.221a3.261,3.261,0,0,0,.413-.1.5.5,0,0,0,.269-.2,19.063,19.063,0,0,0,2.43-1.1.5.5,0,0,0-.1-.92q-.344-.1-.694-.165a.491.491,0,0,0,0-.308.5.5,0,0,0-.583-.334,4.391,4.391,0,0,0-1.393.5l-.064.019a27.351,27.351,0,0,0-7.293,1.251,2.457,2.457,0,0,0-1.152-.129,1.884,1.884,0,0,1-.647-.03.5.5,0,0,0-.453.065l-1.886,1.341c-7.84,2.729-14.935,7.02-21.676,11.834-7.778-1.291-15.664.162-20.6,3.922a.5.5,0,0,0,.45.875,27.356,27.356,0,0,1,12.4-.848,17.934,17.934,0,0,0-3.339,1.379.5.5,0,0,0,.09.918c.625.192,1.24.414,1.858.626q-.607.473-1.213.945-9.029,7.262-17.693,14.969a60.807,60.807,0,0,0-10.373,1.6l-9.036,1.976a.5.5,0,0,0-.089.949l5.445,2.317a25.06,25.06,0,0,0-11.839,17.956c0,.018.009.034.008.051-2.186,2.3-4.3,4.583-6.152,6.651q3.27-3.09,6.563-6.158c.027,0,.051.022.077.022a.506.506,0,0,0,.286-.089,57.56,57.56,0,0,1,28-10.049.5.5,0,0,0,.1-.977,35.1,35.1,0,0,0-15.279-1.138q1.281-1.188,2.63-2.437c1.8-1.228,3.653-2.38,5.561-3.426a2.664,2.664,0,0,0,.438-.24.5.5,0,0,0-.518-.854c-.118.063-.235.127-.352.191a1.888,1.888,0,0,1-.567.125l.386-.354a36.055,36.055,0,0,1,10.986-3.308c1.6-.213,2.132-.263,2.421-.29l.227-.023a.5.5,0,0,0,.144-.954A18.714,18.714,0,0,0,384.5,273.5c5.779-5.148,11.985-10.453,18.339-15.388a57.587,57.587,0,0,1,8.374,3.922l-1.645.407a.5.5,0,0,0-.155.9,59.129,59.129,0,0,0,8.131,4.535c-2.722,2.824-5.388,5.7-8.034,8.58-5.872,6.521-11.653,13.161-17.117,20.044-.732-.073-1.354-.112-1.831-.131a.3.3,0,0,1-.03,0,35.094,35.094,0,0,0-17.44,5.074.5.5,0,0,0,.24.927,106.587,106.587,0,0,1,13.487,1.416c-2.741,3.726-5.38,7.526-7.856,11.44a123.1,123.1,0,0,0-7.13,12.935c2.838-4.969,6.043-9.718,9.336-14.4q2.077-2.955,4.219-5.854a.487.487,0,0,1,.149-.2q1.362-1.849,2.752-3.675,2.472.453,4.918,1.024l-7.53,2.574a.534.534,0,0,0-.336.516.5.5,0,0,0,.419.451c6.86,1.1,14.635,2.354,22.466,2.354a49.615,49.615,0,0,0,19.217-3.421.5.5,0,0,0,.3-.564.5.5,0,0,0-.5-.4,97.284,97.284,0,0,1-28.873-3.812l6.74-1.2a.5.5,0,0,0,.174-.919,30.322,30.322,0,0,0-11.274-3.937c6.652-8.3,13.685-16.337,21.135-24.234q1.864-2.011,3.787-3.98a38.513,38.513,0,0,0,8.534,2.5c.489.08.975.123,1.462.18-6.433,8.031-12.666,16.223-18.483,24.714-1.11,1.609-2.27,3.309-3.322,4.885q2.154-2.636,4.3-5.278c6.538-7.952,12.8-16.123,19.228-24.165.6.035,1.2.074,1.788.074a25.521,25.521,0,0,0,14.142-4,.5.5,0,0,0,.2-.575.487.487,0,0,0-.5-.339c-3.884.24-7.963.489-12.087.5,1.078-1.324,2.142-2.66,3.235-3.972A149.314,149.314,0,0,1,452.3,247.011c.946-.8,1.876-1.591,2.819-2.356a.493.493,0,0,0-.075.229.511.511,0,0,0-.04.268.5.5,0,0,0,.356.415,3.363,3.363,0,0,0,.946.134,3.456,3.456,0,0,0,1.785-.492.5.5,0,0,0-.034-.873,2.112,2.112,0,0,0-.235-.1.5.5,0,0,0-.611-.771l-1.808.963a23.724,23.724,0,0,1,6.808-4.071C458.274,241.374,454.962,243.911,451.761,246.313Z"/><path d="M459.689,193.919a.5.5,0,0,0-.207-.619c-2-1.191-3.318-3.711-3.91-7.488a.5.5,0,0,0-.393-.413.5.5,0,0,0-.523.223c-.754,1.189-.318,2.565.067,3.779.112.356.225.709.307,1.055a7.37,7.37,0,0,1-1.976,6.419,19.535,19.535,0,0,1-5.928,4.132.5.5,0,0,0,.211.946c.113,0,.224,0,.336,0A13.363,13.363,0,0,0,459.689,193.919Z"/><path d="M513.755,198.708a.5.5,0,0,0-.273-.526,16.336,16.336,0,0,1-5.23-3.63,8.787,8.787,0,0,1-2.3-6.354c.029-.357.083-.724.137-1.093.187-1.3.381-2.635-.337-3.737a.5.5,0,0,0-.919.263c-.077,3.868-.87,6.521-2.362,7.887a.5.5,0,0,0-.118.574c1.933,4.275,5.949,7.112,9.865,7.112a7.923,7.923,0,0,0,1.119-.079A.5.5,0,0,0,513.755,198.708Z"/><path d="M360.624,167.892a.5.5,0,0,0,.479.359l.036,0a45.983,45.983,0,0,0,14.046-3.279.5.5,0,0,0,.059-.9,6.44,6.44,0,0,1-2.42-2.439l3.123-.967a.5.5,0,0,0,.141-.886,9.474,9.474,0,0,1-3.153-3.859l13.606-4.21c3.253-1.006,6.554-2.232,8.066-5.149a.5.5,0,0,0-.633-.693,62.609,62.609,0,0,1-11.936,3.941,20.519,20.519,0,0,1-12.157-1.034.5.5,0,0,0-.667.648l.974,2.348A7.711,7.711,0,0,1,365.7,153.5a.482.482,0,0,0-.328-.088.5.5,0,0,0-.409.28.569.569,0,0,0,.137.638,14.582,14.582,0,0,0,3.472,3.374l-2.051.461a.5.5,0,0,0-.246.84,11.147,11.147,0,0,1,2.525,3.967l-7.937,4.338A.5.5,0,0,0,360.624,167.892Zm4.789-13.98c-.01.022.009.038.042.053C365.422,153.95,365.4,153.934,365.413,153.912Z"/><path d="M358.915,238.2a.5.5,0,0,0,.569-.086l2.3-2.2-2.061,9.153a.5.5,0,0,0,.738.542c3.375-1.963,7.814-.618,10.862.565l.938.368c2.752,1.084,5.578,2.2,8.456,2.2a10.175,10.175,0,0,0,2.185-.23.5.5,0,0,0,0-.978,32.734,32.734,0,0,1-14.944-7.491c-1.268-1.12-2.675-2.795-2.181-4.413.033-.111.075-.223.117-.334a2.232,2.232,0,0,0,.176-1.488,2.185,2.185,0,0,0-.6-.866,3.534,3.534,0,0,1-.25-.271c-.632-.811-.088-2.161.732-3.139.125-.15.254-.3.385-.449a5.432,5.432,0,0,0,1.755-3.4.5.5,0,0,0-.616-.487l-1.377.327A65.772,65.772,0,0,1,378.1,209.149a16.458,16.458,0,0,0,1.942-2.52,11.971,11.971,0,0,1,2.936-3.364.5.5,0,0,0-.525-.85,47.24,47.24,0,0,0-23.811,35.274A.5.5,0,0,0,358.915,238.2Z"/><path d="M360.141,201.355a.5.5,0,0,0,.393.432,25.52,25.52,0,0,0,12.952-.6.5.5,0,0,0-.062-.97l-2.748-.493a9.41,9.41,0,0,0,4.313-3.617.5.5,0,0,0-.075-.626,7.164,7.164,0,0,0-2.93-1.712,49.2,49.2,0,0,0,11.268-11.325.5.5,0,0,0-.745-.658,83.6,83.6,0,0,1-17.4,12.273.5.5,0,0,0,.23.942l4.68.033a53.794,53.794,0,0,1-9.588,5.816A.5.5,0,0,0,360.141,201.355Z"/><path d="M362.21,314.615a.5.5,0,0,0-.349-.575,83.266,83.266,0,0,0-8.413-1.858c-3.1-.577-6.313-1.173-10-2.178a44.917,44.917,0,0,0-27.823,1.437.5.5,0,0,0,.18.966l13.745.035c-9.658,3.26-20.811,7.548-27.885,16.247a.5.5,0,0,0,.653.739,71.649,71.649,0,0,1,53.917-8.711.493.493,0,0,0,.524-.195.5.5,0,0,0,.016-.559,16.93,16.93,0,0,0-6.882-6.074l11.775,1.128A.5.5,0,0,0,362.21,314.615Z"/><path d="M582.65,238.445a.5.5,0,0,0-.146.948,21.656,21.656,0,0,1,9.735,9.137.5.5,0,0,0,.438.26.516.516,0,0,0,.067,0,.5.5,0,0,0,.42-.379,38.212,38.212,0,0,0,.415-15.764l3.491,3.655a.5.5,0,0,0,.85-.447l-1.019-4.9,3.768,4.25a.5.5,0,0,0,.6.113.5.5,0,0,0,.261-.553,40.487,40.487,0,0,0-11.98-20.865l3.137.886a.5.5,0,0,0,.557-.21.5.5,0,0,0-.039-.594,53.649,53.649,0,0,0-12.311-10.7.506.506,0,0,0-.375-.066.935.935,0,0,0-.758.652c-.26.907.869,2.284,3.528,4.945a9.521,9.521,0,0,0-4.21.153.5.5,0,0,0-.13.91,31.227,31.227,0,0,1,13.183,16.4l-7.99,1.577a.5.5,0,0,0-.351.269.494.494,0,0,0,0,.443l5.189,10.54A13.783,13.783,0,0,0,582.65,238.445Z"/><path d="M600.674,198.616a.5.5,0,0,0,.458-.7,60.57,60.57,0,0,0-9.761-15.377,26.019,26.019,0,0,1,7.973,4.695.5.5,0,0,0,.728-.678,43.587,43.587,0,0,0-19.772-14.69.5.5,0,0,0-.514.833,43.826,43.826,0,0,0,6.457,5.072l-4.231-.507a.487.487,0,0,0-.509.278.5.5,0,0,0,.1.572,88.5,88.5,0,0,1,8.789,10.261,28.409,28.409,0,0,0-13.574,2.313.5.5,0,0,0,.159.956,61.4,61.4,0,0,1,23.467,6.915A.487.487,0,0,0,600.674,198.616Z"/><path d="M391.628,166.05a20.148,20.148,0,0,0-6.284,12.265.5.5,0,0,0,.342.536.515.515,0,0,0,.154.024.5.5,0,0,0,.437-.256,60.467,60.467,0,0,1,16.445-18.8.5.5,0,0,0-.381-.894l-8.465,1.386.081-.045c3.393-1.877,4.49-2.548,4.483-3.32a.756.756,0,0,0-.435-.662.5.5,0,0,0-.418-.023,47.033,47.033,0,0,0-14.05,8.69.5.5,0,0,0,.449.858l7.052-1.679c.8-.19,1.282-.155,1.489.107C392.954,164.784,391.853,165.844,391.628,166.05Z"/><path d="M530.328,116.652a.5.5,0,0,0,.058.515.5.5,0,0,0,.483.187l7.324-1.3A37.858,37.858,0,0,1,540.78,128.5a.5.5,0,0,0,.8.381L547.8,124.2a32.307,32.307,0,0,1,9.943,23.334.5.5,0,0,0,.706.459l6.1-2.761a2.308,2.308,0,0,0,.721,1.973,3.674,3.674,0,0,0,3.925.214,11.933,11.933,0,0,0,1.81-1.148c.415-.3.808-.584,1.226-.827a3.274,3.274,0,0,1,2.931-.4,3.511,3.511,0,0,1,1.486,2.074,14.22,14.22,0,0,1-.23,10.331.5.5,0,0,0,.818.544c1.739-1.772,2.344-4.16,3.042-8.842a30.617,30.617,0,0,0-1.194-14.027.5.5,0,0,0-.474-.343h-.01a.5.5,0,0,0-.471.361l-1.479,5.136a34.251,34.251,0,0,1-.614-8.117.5.5,0,0,0-.93-.276,40.976,40.976,0,0,1-5.159,6.917,20.126,20.126,0,0,0,.177-6.078.5.5,0,0,0-.713-.389,32.067,32.067,0,0,0-7.694,5.187,28.928,28.928,0,0,0-3.176-5.6l-.468-.7a18.206,18.206,0,0,1-3.2-6.953c-.35-2.238.253-5.13,2.387-6.548a.5.5,0,0,0,.194-.587.507.507,0,0,0-.526-.326,17.346,17.346,0,0,0-6.483,2.074,15.874,15.874,0,0,0,1.313-4.759.5.5,0,0,0-.669-.525,12.944,12.944,0,0,0-4.013,2.375,19.636,19.636,0,0,1,.108-7.81.5.5,0,0,0-.424-.6A16.165,16.165,0,0,0,530.328,116.652Z"/><path d="M408.435,239.642a.5.5,0,0,0-.125-.48l-7.255-7.417a10.825,10.825,0,0,1,5.8-7.789.5.5,0,0,0-.026-.911,8.3,8.3,0,0,0-4.628-.494,51.818,51.818,0,0,1,4.842-5.25l.35-.349a.5.5,0,0,0-.554-.812,29.078,29.078,0,0,0-12.643,10.9.5.5,0,0,0,.6.736l3.392-1.266-4.958,5.932a.5.5,0,0,0,.085.722l6.847,5.106a3.278,3.278,0,0,0-1.963,1.934.5.5,0,0,0,.141.542,15.776,15.776,0,0,0,8.673,3.824l.054,0a.5.5,0,0,0,.369-.838l-2.6-2.839,3.256-.9A.5.5,0,0,0,408.435,239.642Z"/><path d="M564.967,239.086a.5.5,0,0,0,.4.2.509.509,0,0,0,.214-.048l12.39-5.854a.5.5,0,0,0-.125-.944,8.425,8.425,0,0,1-5.316-3.386,6.1,6.1,0,0,1,3.1.742.5.5,0,0,0,.678-.678,26.866,26.866,0,0,0-5.854-7.284l2.535.161a.516.516,0,0,0,.49-.3.5.5,0,0,0-.117-.563,27.952,27.952,0,0,0-9.37-5.784c-1.308-1.373-3.964-1.341-6.057-.684a.5.5,0,0,0,.07.97,17.742,17.742,0,0,1,7.708,3.248,6.033,6.033,0,0,0-1.942,1.227.5.5,0,0,0,.134.818,12.216,12.216,0,0,1,6.02,6.149l-4.439,3.145a.5.5,0,0,0,.026.833l3.886,2.4-4.4,5A.5.5,0,0,0,564.967,239.086Z"/><path d="M453.921,256.449h.013a.5.5,0,0,0,.5-.488l.014-.545c.174-.2.357-.4.525-.6a3.729,3.729,0,0,0-.976-1.294.55.55,0,0,0-.513.487l-.011.428-1.013.438a.385.385,0,0,0-.043-.031c-.382-.228-.868.024-1.293.3a6.62,6.62,0,0,0-2.069,2.178.5.5,0,0,0,.648.7l.034-.017-.687.985a.5.5,0,0,0,.41.786.517.517,0,0,0,.1-.011,6.434,6.434,0,0,0,2.964-1.507.5.5,0,0,0-.044-.78c.4-.368.775-.753,1.147-1.146A.488.488,0,0,0,453.921,256.449Z"/><path d="M404.51,175.166a.5.5,0,0,0,.932.324,32.624,32.624,0,0,1,37.2-15.946.5.5,0,0,0,.42-.89c-.175-.124-.352-.26-.536-.4-1.253-.967-2.969-2.292-7.409-2.535a45.147,45.147,0,0,0-28.2,8.034.5.5,0,0,0,.479.872,17.69,17.69,0,0,1,3.5-1.05A20.62,20.62,0,0,0,404.51,175.166Z"/><path d="M514.831,159.151a.5.5,0,0,0,.646.744c5.6-3.385,12.881-4.53,20.488-3.225,6.037,1.037,12.314,3.527,19.757,7.84a.505.505,0,0,0,.251.067.5.5,0,0,0,.368-.838,35.554,35.554,0,0,0-6.738-5.715l3.251.606a.5.5,0,0,0,.292-.949c-7.381-3.224-14.028-4.829-20.325-4.906C524.88,152.666,518.169,155.062,514.831,159.151Z"/><path d="M497.377,187.143a.5.5,0,0,0,.587-.288,56.965,56.965,0,0,0,4.439-18.921.5.5,0,0,0-.977-.178,24.327,24.327,0,0,1-2.288,5.162c-2.342-3.4-5.882-7.782-10.12-10.63a.5.5,0,0,0-.71.67,57.212,57.212,0,0,1,6.772,17.5.5.5,0,0,0,.972.025l.454-1.73a22.5,22.5,0,0,1,.5,7.845A.5.5,0,0,0,497.377,187.143Z"/><path d="M463.539,185.483h.026a.5.5,0,0,0,.5-.473A32.127,32.127,0,0,1,470,168.154a.5.5,0,0,0-.714-.687,35.226,35.226,0,0,0-5.157,4.939,3.335,3.335,0,0,0-1.095-.933,42.4,42.4,0,0,0-6.2-2.946.5.5,0,0,0-.537.808,23.108,23.108,0,0,1,4.5,7.2.5.5,0,0,0,.963-.129l.055-.51a24.567,24.567,0,0,1,1.249,9.058A.5.5,0,0,0,463.539,185.483Z"/><path d="M521.575,99.782a.5.5,0,0,0-.718-.468,17.7,17.7,0,0,0-9.245,11.133.5.5,0,0,0,.778.534l2.553-1.877a34.636,34.636,0,0,0-1.661,10.363.5.5,0,0,0,.366.486.52.52,0,0,0,.134.018.5.5,0,0,0,.43-.246,62.58,62.58,0,0,1,5.668-8.491,20.313,20.313,0,0,1,7.907-6.047.5.5,0,0,0-.185-.965h0a22.111,22.111,0,0,0-9.506,2.244,37.909,37.909,0,0,1,1.876-3.3C520.884,101.682,521.545,100.608,521.575,99.782Z"/><path d="M533.249,139.313a.5.5,0,0,0,.54.326,30.985,30.985,0,0,1,16.988,2.471.492.492,0,0,0,.208.046.5.5,0,0,0,.462-.691,16.828,16.828,0,0,0-5.681-7.187c.323-.008.638-.011.936-.015,1.664-.02,2.423-.03,2.7-.549a.694.694,0,0,0-.069-.732.5.5,0,0,0-.349-.216,38.776,38.776,0,0,0-15,.993.5.5,0,0,0-.363.568.485.485,0,0,0,.532.413A16.671,16.671,0,0,1,541.6,135.9a24.666,24.666,0,0,0-8.141,2.814A.5.5,0,0,0,533.249,139.313Z"/><path d="M441.877,94.122a.5.5,0,0,0,.363.492,43.368,43.368,0,0,1,15.717,8.274.5.5,0,0,0,.319.115.5.5,0,0,0,.46-.7,18.27,18.27,0,0,0-4.013-5.857l5.893,2.04a.5.5,0,0,0,.591-.732,19.071,19.071,0,0,0-10.66-8.261.5.5,0,0,0-.62.323c-.4,1.231.434,2.1,1.637,2.812a38.14,38.14,0,0,0-9.3,1.016A.5.5,0,0,0,441.877,94.122Z"/><path d="M431.633,118.583a.5.5,0,0,0,.478.353.473.473,0,0,0,.111-.013,50.637,50.637,0,0,1,19.725-.533.5.5,0,0,0,.347-.919l-.132-.081a30.546,30.546,0,0,0,5.076.779.48.48,0,0,0,.512-.35.5.5,0,0,0-.222-.579,45.544,45.544,0,0,0-21.165-6.328.5.5,0,0,0-.347.88,18.432,18.432,0,0,0,4.126,2.228c.563.252,1.137.509,1.71.78a82.444,82.444,0,0,0-9.923,3.17A.5.5,0,0,0,431.633,118.583Z"/><path d="M510.5,92.473a.5.5,0,0,0-.313-.476c-1.364-.552-2.828-.686-6.289.258a20.96,20.96,0,0,0-9.327,5.425.5.5,0,0,0,.482.836l3.1-.822a16.249,16.249,0,0,0-4.258,9.95.5.5,0,0,0,.888.343,29.742,29.742,0,0,1,16.39-10.219.5.5,0,0,0-.049-.984,43.721,43.721,0,0,0-8.264-.261,32.838,32.838,0,0,1,7.3-3.59A.5.5,0,0,0,510.5,92.473Z"/><path d="M470.884,82.749a.5.5,0,0,0,.21.563c.318.2.641.4.969.605a17.079,17.079,0,0,1,5.279,4.447h0l1.325,1.791a.5.5,0,0,0,.9-.265l.206-3.21,3.182,3.569a2.1,2.1,0,0,0,1.276.818,1.421,1.421,0,0,0,.144.008,2.243,2.243,0,0,0,1.147-.41l8.736-5.293a.5.5,0,0,0-.391-.91l-8.777,2.425a71.956,71.956,0,0,0-10.587-6.349.5.5,0,0,0-.656.692L475,83.293a8.05,8.05,0,0,0-3.631-.9A.484.484,0,0,0,470.884,82.749Z"/><path d="M493.484,138.037a.506.506,0,0,0-.6.284c-4.115,9.6-2.748,15.4-1.157,22.142a.53.53,0,0,0,.506.385.5.5,0,0,0,.475-.424,3.468,3.468,0,0,1,.654-1.145,7.108,7.108,0,0,0,.923-1.556c.483.945.836,1.783,1.2,2.652l.275.652a.5.5,0,0,0,.46.3.467.467,0,0,0,.111-.013.5.5,0,0,0,.388-.509c-.251-5.544-.184-10.114,3.087-14.25a.5.5,0,0,0-.545-.786c-2.71.865-4.173,1.938-4.888,3.757a24.846,24.846,0,0,1-.537-10.936A.5.5,0,0,0,493.484,138.037Z"/><path d="M460.1,142.23a.5.5,0,0,0-.195.616l2.686,6.429a18.886,18.886,0,0,0-12.1-2.327.5.5,0,0,0-.142.947,32.114,32.114,0,0,1,15.281,15.632.5.5,0,0,0,.456.3.57.57,0,0,0,.114-.013.5.5,0,0,0,.386-.5,23.949,23.949,0,0,0-1.635-7.891,15.72,15.72,0,0,1,3.056,5.24.473.473,0,0,0,.494.337.5.5,0,0,0,.464-.377c.342-1.361-.084-2.595-.623-4.158-.153-.443-.316-.915-.474-1.427a34.706,34.706,0,0,0-7.133-12.708A.5.5,0,0,0,460.1,142.23Z"/><path d="M430.276,128.735a.494.494,0,0,0-.551-.332,53.506,53.506,0,0,0-18.522,6.568.5.5,0,0,0,.4.91l6.018-1.859a24.475,24.475,0,0,0-6.974,7.722.5.5,0,0,0,.435.748.5.5,0,0,0,.345-.139,39.085,39.085,0,0,1,26.145-10.733.5.5,0,0,0,.32-.877c-1.762-1.535-5.058-1.7-8.288-1.165l.443-.243A.5.5,0,0,0,430.276,128.735Z"/><path d="M464.443,120.86a.5.5,0,0,0,.223.581,19.36,19.36,0,0,1,7.663,8.482.5.5,0,0,0,.95-.274l-.563-4.324,6.089,5.193a.5.5,0,0,0,.824-.393,8.746,8.746,0,0,1,1.051-4.344l.72,2.093a.5.5,0,0,0,.9.1,28.307,28.307,0,0,1,10.745-10.031.5.5,0,0,0-.328-.933,19.875,19.875,0,0,0-10.042,5.2l-1.854-3.7a.5.5,0,0,0-.942.3,8,8,0,0,1-.7,4.6,37.657,37.657,0,0,0-4.574-3.684.5.5,0,0,0-.688.7,9.3,9.3,0,0,1,1.269,2.515,27.356,27.356,0,0,0-10.224-2.423A.481.481,0,0,0,464.443,120.86Z"/><path d="M434.472,206.217a.5.5,0,0,0-.362-.527c-2.761-.776-5.57-.285-8.05.148l-1.016.175a54.651,54.651,0,0,0-18.065,6.37.5.5,0,0,0,.31.931l4.508-.573a8.382,8.382,0,0,0-1.548,2.092.5.5,0,0,0,.026.508.486.486,0,0,0,.457.222l.529-.042-2.04,5.5a.5.5,0,0,0,.865.479,32.754,32.754,0,0,1,6.782-6.576.5.5,0,0,0-.094-.863l-2.406-1.049a48.326,48.326,0,0,1,19.654-6.338A.5.5,0,0,0,434.472,206.217Z"/><path d="M560.336,212.113a.5.5,0,0,0-.205-.648c-4.6-2.616-10.32-5.872-19.449-6.2l-.019.5.018-.5a98.125,98.125,0,0,0-11.527.056.5.5,0,0,0-.075.985,95.7,95.7,0,0,1,18.041,6.161l-2.148-.293a.508.508,0,0,0-.558.4.5.5,0,0,0,.371.58,43.575,43.575,0,0,1,8.938,3.289.5.5,0,0,0,.223.052.493.493,0,0,0,.269-.079.5.5,0,0,0,.231-.436,6.634,6.634,0,0,0-2.829-4.926,11.993,11.993,0,0,0-1.966-1.2,42.6,42.6,0,0,1,10.054,2.514A.5.5,0,0,0,560.336,212.113Z"/><path d="M550.134,95.366c1.637-2.383,4.6-3.367,7.076-4.4A37.268,37.268,0,0,1,568.7,88.693c3.382,3.321,6.5,6.912,9.2,9.672.967,1.047,2.008,2.191,2.926,3.194q-1.3-1.754-2.629-3.483c-2.453-3.1-4.953-6.439-7.778-9.439.657-.011,1.327-.011,2.014,0a39.634,39.634,0,0,1,12.77,2.189,22.424,22.424,0,0,1,2.96,1.376,21.6,21.6,0,0,0-3-1.746A37.427,37.427,0,0,0,568.792,87a30.027,30.027,0,0,0-8.188-5.816c-2.143-.962-4.466-1.939-6.858-1.759,4.593.619,9.109,3.821,13.279,7.675a27.2,27.2,0,0,0-9.455,2.5C554.8,90.962,551.605,92.511,550.134,95.366Z"/><path d="M550.4,80.761c6.186-6.43,20.428-10.614,29.511-10.163a32.1,32.1,0,0,1,3.522.37c-.742-.2-1.493-.375-2.249-.521C570.354,68.482,557.441,71.393,550.4,80.761Z"/><path d="M571.681,65.825a20.427,20.427,0,0,0-8.793,2.009c-.559.362-1.287.687-1.557,1.327.7-.965,2.061-1.256,3.152-1.587a23.23,23.23,0,0,1,7.31-.608,32.432,32.432,0,0,1,19.386,7.328c.141,4.477-.138,9.093-.342,12.43-.058.959-.112,1.837-.15,2.606a52.825,52.825,0,0,1-5.224,20.075,44.376,44.376,0,0,1-3.434,5.9,30.556,30.556,0,0,0-5.011,10.936c-.037.156-.083.313-.129.47a3.075,3.075,0,0,0-.1,2.109,1.794,1.794,0,0,0,1.528,1.032,1.527,1.527,0,0,0,.373-.026,18.008,18.008,0,0,0,5.861,10.965.5.5,0,0,0,.769-.616,25.016,25.016,0,0,1-2.935-14.859c.493-4.27,1.889-5.636,3.656-7.366,3.028-2.965,6.8-6.654,8.916-25a89.408,89.408,0,0,0,.623-14.061c.112.153.232.3.339.458.154.222.308.464.447.676l-.034-.069c-.236-.479-.494-.946-.766-1.405-.5-10.235-3.226-14.838-4.689-16.59a4.53,4.53,0,0,0-2.772-1.85.5.5,0,0,0-.382.856c2.272,2.224,3.145,6.992,3.4,12.116A26.264,26.264,0,0,0,571.681,65.825Z"/><path d="M589.037,50.632c.562.072,1.735.285,2.327.4-.447-.153-.9-.3-1.349-.436-2.9-.89-6.3-1.471-8.934-.972a17.633,17.633,0,0,0-8.857,5.008,19.711,19.711,0,0,1,6.177-3.028A20.672,20.672,0,0,1,589.037,50.632Z"/><path d="M385.98,60.924c-.233-.283-.476-.559-.7-.835a21.05,21.05,0,0,0-5.065-4.241,14.109,14.109,0,0,0-9.585-1.473,29.762,29.762,0,0,0-9.081,2.7,17.8,17.8,0,0,0-1.908,1.108,19.655,19.655,0,0,1,4.408-1.6c5.863-1.191,12.149-1.814,17.492,1.257a20.442,20.442,0,0,1,3.987,2.964,22.029,22.029,0,0,0-3.748-.708c-5.039-.563-10.087.51-15,1.521-1.188.259-2.557.571-3.637.843q3.647-.483,7.321-.688c8.681-.321,20-.41,25.51,6.681A16.651,16.651,0,0,0,385.98,60.924Z"/><path d="M373.558,72.9c3.965-3.115,13.136-7.632,18.754-3.987-2.931-2.706-7.51-2.673-11.16-1.684-5.335,1.49-9.367,5.546-12.566,9.891-.493.653-1.121,1.516-1.5,2.079A50.853,50.853,0,0,1,373.558,72.9Z"/><path d="M407.7,83.441c-8.273-3.905-14.782-4.4-21.545-1.813a41.035,41.035,0,0,1-6.973-5.271,21.063,21.063,0,0,1-2.023-2.259,21.092,21.092,0,0,0,1.457,2.1,44.93,44.93,0,0,0,5.957,6.079,45.4,45.4,0,0,0-7.489,4.394c-.756.532-1.52,1.1-2.235,1.66q2.12-1.287,4.354-2.367a45.678,45.678,0,0,1,6.631-2.687,29.023,29.023,0,0,0,4.892,2.969c5.351,2.362,11.5,3.778,17.317,2.629-4.13.321-8.279-1.115-12.238-2.515a55.366,55.366,0,0,1-7.873-3.682A35.865,35.865,0,0,1,407.7,83.441Z"/><path d="M413.883,97.974c-1.619-1.876-4.526-2.466-6.829-3.13-6.307-1.319-12.779-.112-18.741,2.234a85.664,85.664,0,0,0-19.1-1.816c-1.535.028-3.069.089-4.6.2,2.222.021,4.442.151,6.655.354a117.78,117.78,0,0,1,14.346,2.405c-.869.4-1.727.819-2.566,1.257a21.96,21.96,0,0,0-2.059,1.293,24.552,24.552,0,0,1,2.625-1.243c.905-.344,1.942-.7,3.071-1.043,9.5,2.4,19.054,6.573,22.5,13.961-3.42-8.3-10.751-12.659-19.047-14.911C398.181,95.546,408.764,94.415,413.883,97.974Z"/><path d="M543.3,98.755a2.811,2.811,0,0,0-1.12.8,1.845,1.845,0,0,1,.652-.4,13.876,13.876,0,0,1,5.713-.637c7.71.593,12.744,5.209,17.291,10.985a64.745,64.745,0,0,1,3.775,5.555q-.78-1.728-1.646-3.414c-3.208-6.341-7.545-12.689-15.223-13.864A16.375,16.375,0,0,0,543.3,98.755Z"/><path d="M704.638,360.583H616.615a32.431,32.431,0,0,0-10.871-19.557c-7.652-6.319-20.205-9.32-27.444-9.529a154.5,154.5,0,0,0-15.794.883,35,35,0,0,0-7.98-.047q-.157-4.83-.6-9.645c-.372-3.684-.862-7.38-1.485-11.059.019-.006.04,0,.059-.012a53.02,53.02,0,0,1,26.58-4.6.5.5,0,0,0,.5-.294.484.484,0,0,0,.022-.2c.268.679.525,1.364.756,2.058.076.18.184.651.188.582a38.822,38.822,0,0,0-1.773-5.665,13.4,13.4,0,0,1,4.063,1.847.5.5,0,0,0,.663-.091.5.5,0,0,0-.021-.668,55.435,55.435,0,0,0-7.237-6.725c-4.672-9.345-10.863-17.82-17.189-26.1q-1.75-2.295-3.574-4.55c8,4.6,15.812,9.531,23.51,14.617,1.4.928,3.134,2.125,4.322,2.932q-1.888-1.533-3.817-3.015a248.071,248.071,0,0,0-26.537-17.563c-.5-.586-1.014-1.163-1.526-1.74a.5.5,0,0,0,.189-.486.5.5,0,0,0-.467-.4,3.14,3.14,0,0,1-.608-.1c-.272-.3-.549-.593-.823-.889a72.5,72.5,0,0,0,13.246-5.81c1.181-.627,2.379-1.261,3.632-1.89q3.973,1.552,7.946,3.109c1.087.421,2.4.946,3.351,1.311q-1.057-.526-2.117-1.049-4.047-1.979-8.127-3.891c1.693-.822,3.5-1.626,5.519-2.381a.5.5,0,0,0-.043-.951,9.606,9.606,0,0,1-3.652-1.871c-.192-.141-.394-.29-.611-.445a51.482,51.482,0,0,1,8.493.056c2.476.163,2.789.185,2.894-.376s-.491-.748-1.679-1.125a39.729,39.729,0,0,0-17.482-.969.5.5,0,0,0-.174.9l3.845,2.593-3.931,1.467c-4.255-1.872-8.553-3.643-12.92-5.24-5.929-2.027-11.946-4.331-18.254-4.7,6.561,1.179,12.671,4.085,18.874,6.432,3.5,1.407,7.017,2.787,10.531,4.166l-1.059.4a.5.5,0,0,0-.151.847l.952.821a30.069,30.069,0,0,1-11.247,6.331,81.417,81.417,0,0,0-8.709-7.728c.019-.009.041-.012.06-.021l1.118.1a.482.482,0,0,0,.278-.057q.672.317,1.323.676a.5.5,0,0,0,.575-.81l-1.964-1.768a.518.518,0,0,0-.252-.122c-1.731-.291-2.416-.4-2.724-.209-.295-.088-.592-.171-.889-.248a.4.4,0,0,0-.564.29c-.529-.357-1.053-.722-1.594-1.064-3.748-2.242-7.593-4.734-11.955-5.513,4,1.009,7.373,3.589,10.8,5.781.961.679,1.912,1.392,2.857,2.119a2.927,2.927,0,0,1-.537-.289.5.5,0,0,0-.582.813,4.493,4.493,0,0,0,2.792.9.471.471,0,0,0,.1-.029,104.951,104.951,0,0,1,8.4,7.6c-.765.194-1.54.35-2.318.484-9.775-4.97-19.277-8.632-25.912-8.719,8.32,1.081,15.343,5.165,22.884,8.79.17.086.337.177.506.262a29.38,29.38,0,0,1-6.245-.115.5.5,0,0,0-.526.3.5.5,0,0,0,.154.586l1.9,1.49a19.609,19.609,0,0,1-5.548,1.811c-.487-.519-.971-1.041-1.475-1.545-2.06-1.828-4.148-4.01-6.859-4.777,2.621,1.009,4.51,3.353,6.433,5.314.331.375.636.764.956,1.145a19.652,19.652,0,0,1-7.68-.556.5.5,0,0,0-.383.915,19.19,19.19,0,0,0,9.655,2.314c.172,0,.356-.02.53-.024,1.79,2.351,3.466,4.8,5.142,7.427,1.608,2.691,3.062,5.3,4.387,7.936a27.19,27.19,0,0,1-7.346-2.914.509.509,0,0,0-.414-.044.5.5,0,0,0-.3.285,3.408,3.408,0,0,0,.406,3.214l-5.418.422a.5.5,0,0,0-.241.912l2.978,2.018a123.321,123.321,0,0,1-16.982,4.986.5.5,0,0,0,.052.986,86.84,86.84,0,0,0,23.457-.694.5.5,0,0,0,.214-.9l-2.669-1.962a29.605,29.605,0,0,0,7.407.276.5.5,0,0,0,.071-.984,14.724,14.724,0,0,1-3.347-1.246,35,35,0,0,0,4.27.179c1.058,2.433,2.016,4.938,2.876,7.6,3.119,9.112,4.911,20.108,6,28.546.421,3.309.794,6.647,1.1,9.985-8.093.97-16.324,4.349-20.694,9.052-1.313,1.39-9.368,11-5.437,16.854a10.3,10.3,0,0,0,1.858,2.255H423.9a8.087,8.087,0,0,0,3.014-2.894c3.183-4.425-.664-11.474-3.1-15.064q1.183-4.052,2.36-8.105.632-2.2,1.262-4.408A32.583,32.583,0,0,0,433,335.556a25.548,25.548,0,0,0,15.1,5.535,25.6,25.6,0,0,1-6.657,3.747.5.5,0,0,0,.095.96,44.2,44.2,0,0,0,20.592-1.6l-1.195,2.059a.5.5,0,0,0,.4.75,11.4,11.4,0,0,0,7.783-2.461l9.724,4.9a.5.5,0,0,0,.715-.547l-.57-2.794c10.364,5.293,22.542,5.936,33.324,6.5h.026a.5.5,0,0,0,.178-.967l-15.042-5.731c-3.9-1.485-8.313-3.169-11.5-6.247a.5.5,0,0,0-.848.341l-.1,2.665a13.185,13.185,0,0,1-8.118-3.479.5.5,0,0,0-.67-.011,15.891,15.891,0,0,1-5.66,3.175l1.038-3.7a.5.5,0,0,0-.1-.462.494.494,0,0,0-.441-.169l-16.445,2.061,3.218-4.672a.5.5,0,0,0-.488-.778,45.266,45.266,0,0,1-29.539-5.575.429.429,0,0,0-.08-.029c2.564-8.972,5.157-18,8.069-26.88a56.537,56.537,0,0,0,11.993,3.11,23.238,23.238,0,0,0,12.874-1.846l-.91,1.788a.5.5,0,0,0,.445.727.525.525,0,0,0,.16-.026,62.954,62.954,0,0,0,16.172-8.17,43.924,43.924,0,0,0,44.688-17.427.5.5,0,0,0-.741-.661c-3.5,3.169-7.127,6.446-11.355,8.693a58.318,58.318,0,0,1-6.832,2.912,8.482,8.482,0,0,1-5.478.4.5.5,0,0,0-.565.225c-2.845,4.775-10.178.572-10.25.53a.5.5,0,0,0-.428-.037c-3,1.124-6.354,2.283-7.235,2.442a6.019,6.019,0,0,1,.79-1.641.5.5,0,0,0,0-.532.485.485,0,0,0-.478-.232,40.738,40.738,0,0,1-28.678-7.9.5.5,0,0,0-.7.7,33.277,33.277,0,0,0,15.161,10.55,28.091,28.091,0,0,1-15.6,3.263.492.492,0,0,0-.52.352.5.5,0,0,0,.235.583l1.416.787a30.864,30.864,0,0,1-13.259-1.339c5.364-15.927,11.868-31.336,21.249-45.1a13.545,13.545,0,0,0,3.791-2.21.5.5,0,0,0-.246-.88,9.662,9.662,0,0,0-1.143-.084l-.153,0h0a115.121,115.121,0,0,1,7.693-9.488,81.058,81.058,0,0,0-9.312,10.063l-1.273.653a.5.5,0,0,0,.01.9l.044.019c-.054.072-.106.145-.16.217l-.2.129a.5.5,0,0,0-.228.461c-9.518,12.938-16.2,28.768-21.5,44.824a30.166,30.166,0,0,1-8.079-4.595.5.5,0,0,0-.811.417,6.174,6.174,0,0,0,2.694,4.508,17.328,17.328,0,0,0,4.623,2.184l.677.24c-3.656,11.42-6.658,22.872-9.523,33.4-.5,2.033-1.065,4.406-1.617,6.792-.443-.615-.8-1.066-1-1.3-5.6-6.73-18.39-11.33-28.432-10.478a148.575,148.575,0,0,0-15.439-1.618c-7.1-.126-19.523,2.3-27.275,8.281-7.7,5.941-11.453,15.37-12.134,23.857h-26.96a51.353,51.353,0,0,1-11.772-10.031c-.819-.952-1.723-2.253-2.679-3.63-1.111-1.6-2.369-3.408-3.784-5.1a.5.5,0,0,0-.879.38c.721,6.129,4.19,12.373,9.767,17.582h0c.286.267.586.531.885.8H254.8L244.77,342.536l2.421.019h0a.5.5,0,0,0,.465-.684,22.828,22.828,0,0,0-6.7-9.184l2.5-1.263a.5.5,0,0,0,.158-.766,7.275,7.275,0,0,0-2.289-1.823,11.7,11.7,0,0,1,7.563-1.71.506.506,0,0,0,.546-.379.5.5,0,0,0-.313-.587,26.446,26.446,0,0,0-14.383-1.062.5.5,0,0,0-.224.868l2.261,1.949-6.48,1.872a.5.5,0,0,0-.028.952,22.58,22.58,0,0,1,8.809,5.712,4.879,4.879,0,0,1-2.894-.847.5.5,0,0,0-.717.662c4.831,8.339,9.8,16.907,16.195,24.318H210.546a49.57,49.57,0,0,0-17.863-9.7,31.051,31.051,0,0,0,8-2.224.5.5,0,0,0-.053-.939,51.108,51.108,0,0,0-17.177-2.077,38.589,38.589,0,0,0,10.483-6.226.5.5,0,0,0-.512-.845,15.486,15.486,0,0,1-7.543,1.07c6.2-2.175,11.622-6.177,16.882-10.06.974-.719,1.946-1.436,2.92-2.14,6.463-4.673,14.177-9.427,22.663-9.2a.5.5,0,0,0,.513-.482.5.5,0,0,0-.479-.518l-.371-.016,8.533-1.7a.5.5,0,0,0-.057-.989l-11.96-.994c3.434-2.167,6.844-4.406,10.234-6.678a73.916,73.916,0,0,1,27.453-9.054,20.366,20.366,0,0,0-8.162,10.466.5.5,0,0,0,.475.658.5.5,0,0,0,.324-.12,30.833,30.833,0,0,1,10.2-5.748.5.5,0,0,0,.4.024l1.82-.677a.5.5,0,0,0,.314-.359,67.012,67.012,0,0,1,19.016-5.613.5.5,0,0,0-.021-.993l-9.66-.921a62.918,62.918,0,0,1,34.076,4.763.505.505,0,0,0,.2.043.5.5,0,0,0,.31-.892,27.444,27.444,0,0,1-5.255-5.494,27.734,27.734,0,0,0,19.72-.289.5.5,0,0,0,.3-.574.494.494,0,0,0-.519-.388,37.813,37.813,0,0,1-17.153-2.695,23.384,23.384,0,0,0-13.565-.908.5.5,0,0,0-.006.972l3.021.749a135.829,135.829,0,0,0-22.113,3.841.5.5,0,0,0-.363.585.481.481,0,0,0,.07.166l-3.007-.287a79.639,79.639,0,0,0,12.527-8.068c5.8-2.362,12.4-2.788,18.4-2.824a.5.5,0,0,0,.281-.912l-.316-.217a14.845,14.845,0,0,1-3.335-2.784c6.164,1.481,19.44-1.529,20.051-1.669a.5.5,0,0,0,.387-.521,14.144,14.144,0,0,0-1-4.635,31.511,31.511,0,0,1,5.327,1.293,24.942,24.942,0,0,0,7.785,1.44h0a.5.5,0,0,0,.379-.826,14.763,14.763,0,0,1-2.09-4.437,37.237,37.237,0,0,0-1.42-3.579A99.66,99.66,0,0,0,358.2,280.8a.478.478,0,0,0,.149.023.5.5,0,0,0,.361-.846A70.354,70.354,0,0,0,342.007,267.1a31.58,31.58,0,0,0,16-12.056.5.5,0,0,0-.556-.76,32.765,32.765,0,0,1-10.83,1.34A44.971,44.971,0,0,0,356.835,229.4a.5.5,0,0,0-.969-.194,18.647,18.647,0,0,1-1.833,3.438,20.053,20.053,0,0,0-3.137,7.18,17.593,17.593,0,0,1-1.61,4.633c.175-1.7.23-3.417.279-5.1l.023-.8c.167-5.4.561-10.851,1.152-16.229.009-.031.023-.06.031-.091a.489.489,0,0,0,0-.2c.046-.412.084-.827.132-1.237a.5.5,0,0,0-.562-.554,33.166,33.166,0,0,1-7.358.133,20.859,20.859,0,0,0,3.6-5.952,3.889,3.889,0,0,0,.347-2.027,1.965,1.965,0,0,0-1.161-1.5c.3-5.817,3.172-11.3,5.711-16.153l2.686-5.132a.5.5,0,0,0-.425-.731,12.2,12.2,0,0,1-8.48-3.977l1.89-1.877a.5.5,0,0,0-.093-.782,11.828,11.828,0,0,0-3.864-1.494l5.455-9.527a34.213,34.213,0,0,1,2.7-4.2c4.319-1.11,8.777-2.269,11.852-5.515a.5.5,0,0,0-.488-.828,10.282,10.282,0,0,1-9.166-2.264l3.9-1.575a.5.5,0,0,0,.181-.8,29.294,29.294,0,0,1-7.593-18.358,7.943,7.943,0,0,1,2.988-5.146,5.409,5.409,0,0,1,1.447-.725,10.807,10.807,0,0,1,2.656,1.273c1.362.862,3.125,1.977,4.943,1.977a4.074,4.074,0,0,0,1.4-.24.5.5,0,0,0,.142-.86,34.659,34.659,0,0,1-10.3-13.911c-.044-.207-.094-.418-.136-.622a139.315,139.315,0,0,1-.44-53.1,49.087,49.087,0,0,1,2.816-8.76c.546-1.394,1.112-2.836,1.607-4.287,2.138-6.258,6.245-8.255,10.921-8.4a29.205,29.205,0,0,1,12.431,4.439c5.587,3.476,10.138,8.3,14.322,12.945a352.624,352.624,0,0,1,25.552,31.934,6.512,6.512,0,0,1-3.956-2.038.5.5,0,0,0-.849.477,14.171,14.171,0,0,0,4.839,7.119,16.742,16.742,0,0,0-8.1,2.494.5.5,0,0,0,.2.92,42.416,42.416,0,0,1,17.2,6.255.5.5,0,0,0,.269.079.5.5,0,0,0,.467-.679l-3.714-9.716,4.638,3.184a.52.52,0,0,0,.294.088l4.447-.1a.5.5,0,0,0,.258-.921,11.023,11.023,0,0,1-4.821-7.711,76.919,76.919,0,0,1,25.495-12.191,64.937,64.937,0,0,1,16.614-2.279h.019a113.543,113.543,0,0,1,12.829.982L502.441,82c3.891.447,8.3.953,11.684,3.377a24.424,24.424,0,0,1,3.427,3.2,32.751,32.751,0,0,0,2.716,2.666c2.181,1.829,5.533,3.285,8.408,1.879a.487.487,0,0,0,.167-.132l.323-.394a11.784,11.784,0,0,0,3.193-2.068,36.733,36.733,0,0,0-1.065,6.875.5.5,0,0,0,.908.315l2.854-4.063a15.377,15.377,0,0,1-.49,3.982c-.1.455-.19.91-.272,1.362-.391,2.162-.442,5.1,1.535,6.833a.5.5,0,0,0,.329.124.471.471,0,0,0,.148-.023.5.5,0,0,0,.336-.354,30.656,30.656,0,0,1,14.153-18.774.5.5,0,0,0-.193-.928,21.466,21.466,0,0,0-8.486.718,43.476,43.476,0,0,1,7.577-17.15,259.066,259.066,0,0,1,25.65-23.123c3.992-3.228,8.682-6.33,13.2-4.887a9.126,9.126,0,0,1,4.909,4.218,101.271,101.271,0,0,1,3.726,12.794c-9.357-6.983-23.406-2.215-31.783,5.011a42.888,42.888,0,0,1,18.028-6.758,24.915,24.915,0,0,1,9.042.455,18.155,18.155,0,0,1,4.982,2.495c3.18,14.575,4.824,33.613,1.245,49.217-.8,3.488-2.1,7.911-5.043,11.172a29.933,29.933,0,0,1-2.769,2.585,32.49,32.49,0,0,0-2.714,2.514c-2.138,2.3-3.1,4.931-2.626,7.208a.5.5,0,0,0,.878.213,17.923,17.923,0,0,1,4.739-4.592c1.556-.89,4.044-1.47,5.942-.18,1.827,1.243,2.323,3.761,2.176,5.7a23.349,23.349,0,0,1-2.468,7.673c-.368.812-.735,1.624-1.072,2.442a18.277,18.277,0,0,0-1.457,5.817,8.171,8.171,0,0,0,1.011,5.854.493.493,0,0,0,.518.229.5.5,0,0,0,.4-.4l.443-2.435a2.086,2.086,0,0,1,1.6-.708,3.24,3.24,0,0,1,2.563,1.159c.93,1.156,1.252,2.855.985,5.194a21.107,21.107,0,0,1-1.131,4.816,4.425,4.425,0,0,0-3.379-.05.5.5,0,0,0-.286.624,32.768,32.768,0,0,0,4.218,9,12.651,12.651,0,0,0,3.04,3.988l-4.512-.416a.488.488,0,0,0-.516.326.5.5,0,0,0,.185.582c2.845,1.979,5.632,4.112,8.284,6.339,2.256,1.9,4.713,4.168,5.305,7.166.494,2.5-.415,5.122-1.3,7.655-.8,2.321-1.633,4.7-1.431,7.073l-3.336-3.676a.5.5,0,0,0-.818.56c2.74,5.473,2.443,12.162,2.065,17.728l-10.269-8.1a.5.5,0,0,0-.727.667,60.458,60.458,0,0,0,6.663,8.895,23.626,23.626,0,0,0,5.179,4.128,41.729,41.729,0,0,1-2.282,24.855l-7.278-4.421a.5.5,0,0,0-.746.544,74.152,74.152,0,0,1,1.975,20.1,18.458,18.458,0,0,1-1.04,2.362,44.2,44.2,0,0,1-5.751,7.8q-.566.66-1.126,1.32a31.989,31.989,0,0,0-5.732,8.833l-.887-1.64a.5.5,0,0,0-.9.441c1.836,4.123,1.055,8.923-.062,13.5l-.3,1.205c-1.009,4.065-2.052,8.264-1.332,12.418a6.339,6.339,0,0,1-4.627-.759.5.5,0,0,0-.7.67,39.165,39.165,0,0,0,5.321,7.9,13.9,13.9,0,0,0,8.515,4.6l.05,0a.5.5,0,0,0,.41-.785,27.156,27.156,0,0,1-3.046-24.552,9.2,9.2,0,0,0,4.156,3.6.5.5,0,0,0,.61-.743,17.47,17.47,0,0,1-1.373-17.166,35.8,35.8,0,0,1,6.021-8.122c.245-.273.492-.551.738-.827a72.976,72.976,0,0,1-2.972,11.59.5.5,0,0,0,.217.593.493.493,0,0,0,.256.071.5.5,0,0,0,.369-.163,33.487,33.487,0,0,0,7.211-31.191l9.307,6.637a.5.5,0,0,0,.763-.57l-3.145-9.125,3.341,3.084a.5.5,0,0,0,.8-.553,48.95,48.95,0,0,1-3.461-17.9c2.054-2.136.869-7.564-1.382-12.623a16.318,16.318,0,0,0,2.364.813,4.283,4.283,0,0,0,1.062.146,1.823,1.823,0,0,0,1.779-.942,2.424,2.424,0,0,0,.01-1.669l-1.86-7.344a15.023,15.023,0,0,0,4.316,1.552.5.5,0,0,0,.5-.782c-2.7-3.766-2.765-8.8-2.43-13.686l.075-1.051c.285-3.993.58-8.1-.6-11.9a.5.5,0,0,0,.222-.5,23.152,23.152,0,0,0-7.151-13.154,5.8,5.8,0,0,0,2.747-1.369.5.5,0,0,0-.144-.834,20.293,20.293,0,0,1-8.146-6.221,3.367,3.367,0,0,1,1.438-1.94,1.922,1.922,0,0,1,1.728-.207.5.5,0,0,0,.681-.536,10.385,10.385,0,0,0-1.965-4.7l3.148.041h.006a.5.5,0,0,0,.46-.695l-3.6-8.5a5.853,5.853,0,0,0-2.478-3.178,9.822,9.822,0,0,1,4.776-1.251.311.311,0,0,0,.053,0,.5.5,0,0,0,.4-.794c-1.7-2.334-3.351-3.678-5.205-4.228a5.727,5.727,0,0,0-2.347-.167c2.179-3.755,4.262-7.648,3.607-11.968a20.006,20.006,0,0,0-1.623-4.885,21.3,21.3,0,0,1-1.488-4.259c-.6-3.068.236-6.257,1.043-9.342.126-.48.251-.959.371-1.437,3.7-14.771,2.257-30.065.859-44.856-.57-6.02-1.159-12.244-3.651-17.936-.127-.289-.263-.571-.4-.853a24.3,24.3,0,0,0-2.217-6.339c-2.237-4.186-6.057-6.957-9.968-7.231-4-.287-7.647,1.855-10.984,4.2-16.227,11.426-29.128,27.3-40.957,42.576a27.457,27.457,0,0,1-5.9,6.182,11.166,11.166,0,0,1-1.956,1.063,6.649,6.649,0,0,1-2.331-.259,5.406,5.406,0,0,1-3.209-2.9,3.815,3.815,0,0,1-.086-3.165.5.5,0,0,0-.83-.538l-2.881,3.271a3.557,3.557,0,0,1-1.82-1.952,3.472,3.472,0,0,1,.094-2.952.5.5,0,0,0-.842-.538c-1.146,1.573-3.711,1.1-5.816.515-7.472-2.079-15.289-2.87-22.848-3.636-9.318-.944-19.882-2.014-29.532,1-1.235.386-2.462.841-3.65,1.282-1.6.6-3.262,1.211-4.932,1.65a13.813,13.813,0,0,1-8.63-.08.5.5,0,0,0-.684.491,9.08,9.08,0,0,1-6.479,8.9l-1.668-1.282a.5.5,0,0,0-.647.031,16.826,16.826,0,0,0-3.011,3.7c-6.394-5.92-12.082-12.8-17.584-19.46-7.332-8.878-14.893-18.019-24.221-24.988l0-.011c-8.549-8.548-15.951-10.669-24.749-7.1-10.869,4.41-16.039,27.721-16.862,42.314-.752,13.307.915,27.616,5.4,46.375a20.781,20.781,0,0,0-2.016,9.9c-1.158,2.621-1.163,6.112.036,9.741l-.582-.513a.5.5,0,0,0-.829.421,13.12,13.12,0,0,0,2.819,6.947,26.485,26.485,0,0,0-7.871,4.223.5.5,0,0,0-.067.728,4.32,4.32,0,0,0,3.022,1.384,17.147,17.147,0,0,0-5.49,10.839.5.5,0,0,0,.319.517.481.481,0,0,0,.179.033.5.5,0,0,0,.4-.2c2.1-2.866,5.552-4.333,8.99-5.355a31.621,31.621,0,0,0-10.576,19.467.5.5,0,0,0,.4.565,12.562,12.562,0,0,1,8.936,6.757,31.657,31.657,0,0,0-5.945,15.289c-.058.537-.1,1.077-.148,1.618a18.616,18.616,0,0,1-.907,5.109c-.7,1.823-2.421,3.768-4.562,3.768h-.058a.529.529,0,0,0-.443.252.5.5,0,0,0,.009.509,18.305,18.305,0,0,0,5.379,5.606,17.273,17.273,0,0,1-5.6,2.343.5.5,0,0,0,.056.985,26.411,26.411,0,0,0,2.784.156,16.579,16.579,0,0,0,6.46-1.181,12.52,12.52,0,0,0,1.471-.747c.733,4.84.981,9.828-.441,14.563-1.857,6.186-6.883,10.86-12.22,11.365a.5.5,0,0,0-.351.8,7.2,7.2,0,0,0,5.693,2.627l.781.43a39.153,39.153,0,0,1-15.746,2.444c-.01,0-.018.007-.027.007a.652.652,0,0,0-.5.227c-.3.42-.006.915,1.073,2.756,1.1,1.874,2.858,4.876,3.013,6.726-.591-.19-1.181-.384-1.769-.577-4.382-1.444-8.919-2.936-13.681-2.466a.5.5,0,0,0-.409.3.5.5,0,0,0,.058.5l3.228,4.271c-8.162,3.435-17.507,2.655-25.773,1.966a.5.5,0,0,0-.472.752,9.413,9.413,0,0,0,4.02,3.676,28.457,28.457,0,0,0-6.111,2.992l-.509.112a170.328,170.328,0,0,1-24.757,4.06.5.5,0,0,0-.012,1,7.475,7.475,0,0,1,4.953,2.624,51.873,51.873,0,0,0-12.249,3.143c-10.071,1.971-19.5,7.968-28.34,14.449l-2.205,1.622c-10.631,7.835-21.624,15.937-34.552,17.268a.5.5,0,0,0-.229.913,16.113,16.113,0,0,0,5.944,2.446,60.139,60.139,0,0,1-23.219,7.173.5.5,0,0,0-.123.968l6.467,2.333c-7.627,2-13.414,8.065-19.023,13.949l-.6.626a71.625,71.625,0,0,1-6.678,6.27H16.638a.5.5,0,0,0-.5.5v18a.5.5,0,0,0,.5.5H343.667c.241.345.473.695.736,1.027,3.4,4.232,9.353,5.142,14.773,4.192a12.577,12.577,0,0,0,2.486,1.941,13.168,13.168,0,0,0,6.169,2.244,4.31,4.31,0,0,0,.935.012,7.487,7.487,0,0,0,4.622-1.125c.3-.2.6-.4.894-.619a29.856,29.856,0,0,0,2.994,1.035c5.059,2.274,8.585.621,12.931-2.568a21.279,21.279,0,0,0,3.2-2.861c1.486.926,4.528,1.608,7.117,1.894,1.664,1.944,3.38,2.336,4.435-.073a10.95,10.95,0,0,0,2.061-.626c.231-.081.654-.277.953-.419l-.148.073a10.678,10.678,0,0,0,5.321-4.127H540.154c.211.4.424.8.64,1.17a10.92,10.92,0,0,0,5.265,4.381l-.147-.08c.3.156.721.37.953.462a11.42,11.42,0,0,0,2.075.72c.975,2.448,2.739,2.139,4.514.282,2.649-.163,5.775-.7,7.327-1.551a21.71,21.71,0,0,0,3.142,3c4.3,3.38,7.82,5.192,13.066,3.166a30.422,30.422,0,0,0,3.092-.889c.291.228.588.447.886.658a7.805,7.805,0,0,0,4.662,1.338,4.5,4.5,0,0,0,.953.032,13.572,13.572,0,0,0,6.376-1.943,12.733,12.733,0,0,0,2.612-1.816c5.482,1.2,11.58.575,15.22-3.478a23.029,23.029,0,0,0,3.535-5.451h90.313a.5.5,0,0,0,.5-.5v-18A.5.5,0,0,0,704.638,360.583ZM579.452,306.145l-3.3-3.075a13.3,13.3,0,0,1,2.081.3Q578.881,304.742,579.452,306.145Zm-34.133-19.9a35.02,35.02,0,0,0,9.444-1.887.5.5,0,0,0-.133-.971,84.823,84.823,0,0,1-11.17-1.238,79.486,79.486,0,0,0-6.128-10.632,63.053,63.053,0,0,0-3.916-5.179c1.081-.067,2.186-.172,3.341-.359.987-.161,1.943-.294,2.886-.425a42.822,42.822,0,0,0,9.195-2.025c1.09.593,2.184,1.179,3.267,1.785a240.666,240.666,0,0,1,22.6,31.512,16.7,16.7,0,0,0-10.068-2.775.5.5,0,0,0-.2.934,22.066,22.066,0,0,1,6.455,5,30.255,30.255,0,0,0-18.649,10.469A113.738,113.738,0,0,0,545.319,286.242ZM159.245,360.583a78.775,78.775,0,0,1,12.708-7.662,44.355,44.355,0,0,1,6.59-1.484,31.045,31.045,0,0,0-5.847,4.055.5.5,0,0,0,.468.856,46.111,46.111,0,0,1,35.125,4.235ZM404.06,380.12a5.188,5.188,0,0,0-.347-1.286,3.472,3.472,0,0,0-1.725-2.239c-2.276-.776-2.431,2.132-2.534,3.714a14.448,14.448,0,0,1-3.909-.8c-1.385-.567-4.083-3.594-4.943-5.651a23.9,23.9,0,0,1-2.292-9.467c.033-1.771.33-4.519.084-4.214-.465.574-2.427,7.013-.983,14.123.062.306,1.634,6.921-2.347,9.237a17.335,17.335,0,0,1-1.568-1.007,25.84,25.84,0,0,0-2.225-1.841c-.888-.683-2.359-.364-2.335.843a6.3,6.3,0,0,0,1.817,2.747c-1.671-.221-2.315-1.238-3.1-2.612l-.045-.077c-.238-.429-.226-.4-.777-1.5a33.206,33.206,0,0,1-2.539-6.71,63.812,63.812,0,0,1-1.843-15.346.213.213,0,0,0-.417-.043,43.95,43.95,0,0,0-1.337,13.674,7.449,7.449,0,0,0,.23,2.015c.307,2.115,2.129,4.787,1.877,7.626a5.038,5.038,0,0,1-3.514,3.8c-.158-.151-.3-.3-.426-.432a11.413,11.413,0,0,0-2.98-2.659,1.281,1.281,0,0,0-1.721,1.784c.057.107.122.22.19.337a11.713,11.713,0,0,1-5.634-6.076c-.191-.555-.377-1.141-.56-1.765-.094-.32-.425-1.717-.452-1.821-.02-.085-.041-.177-.06-.259a52.784,52.784,0,0,1-1.142-8.726,25.626,25.626,0,0,1,.057-4.391.177.177,0,0,0-.341-.078,25.568,25.568,0,0,0-1.355,5.827,29.485,29.485,0,0,0,.3,10.586,4.041,4.041,0,0,1-.165.388c-1.457,3.3-7.792,2.487-10.285-2.577a34.386,34.386,0,0,1-1.866-11.323c.057-7.344,2.543-18.032,10.882-25.01a20.28,20.28,0,0,1,6.96-4.676,31.133,31.133,0,0,1,6.7-1.443c-4.447,2.753-5.835,9.455-5.835,9.455s3.931-4.8,5.92-6.165c3.922-2.683,7.139-4.864,15.4-4.666,2.348.211,6.2.8,5.73.988-4.229,1.532-5.27,2.595-6.719,3.915a8.9,8.9,0,0,0-2.85,4.367,27.648,27.648,0,0,1,8.944-5.208c4.214-1.405,9.956-2.467,14.863-1.659a38.049,38.049,0,0,1,12.974,4.6c.471.275,1.237.764,2.089,1.367a35.391,35.391,0,0,1,4.459,6.06c-.531,2.393-1,4.6-1.3,6.26q.816-2.821,1.642-5.639c4.187,8.018-.75,11.17-2.492,11.095-3.718.652-7.556-1.859-7.556-1.859s-2.046-1.2-1.781-.862c.274.488.537.984.806,1.541a23.2,23.2,0,0,1,1.745,12.651C412.344,376.716,407.428,379.276,404.06,380.12Zm206.639-.439c-2.747,4.925-9.233,5.438-10.582,2.081a3.935,3.935,0,0,1-.152-.393,28.717,28.717,0,0,0,.733-10.526,25.09,25.09,0,0,0-1.14-5.866c-.069-.187-.372-.133-.351.062a25.128,25.128,0,0,1-.122,4.375,51.276,51.276,0,0,1-1.521,8.633l-.072.255c-.031.1-.426,1.478-.535,1.792-.212.613-.425,1.187-.642,1.731a11.7,11.7,0,0,1-5.989,5.784c.075-.112.146-.223.208-.327a1.3,1.3,0,0,0-1.68-1.857,11.5,11.5,0,0,0-3.145,2.507c-.133.128-.284.268-.452.41a5.1,5.1,0,0,1-3.424-3.949c-.139-2.838,1.826-5.413,2.225-7.5a7.21,7.21,0,0,0,.317-2,42.927,42.927,0,0,0-.8-13.677c-.05-.234-.424-.214-.427.023a62.082,62.082,0,0,1-2.506,15.192,32.473,32.473,0,0,1-2.862,6.561c-.606,1.072-.593,1.042-.852,1.458l-.049.075c-.857,1.33-1.554,2.313-3.267,2.454a6.222,6.222,0,0,0,1.964-2.649c.075-1.2-1.411-1.588-2.343-.949a25.715,25.715,0,0,0-2.343,1.728,17.994,17.994,0,0,1-1.638.929c-3.961-2.494-2.088-9.006-2.012-9.308,1.762-7.01.026-13.514-.423-14.107-.239-.315-.048,2.434-.087,4.2a23.286,23.286,0,0,1-2.723,9.317c-.961,2.008-3.833,4.895-5.267,5.395a14.988,14.988,0,0,1-4.014.608c-.04-1.58-.079-4.483-2.429-3.817a3.448,3.448,0,0,0-1.849,2.148,5.042,5.042,0,0,0-.406,1.264c-3.4-1-8.3-3.78-9.074-11.471a22.578,22.578,0,0,1,2.295-12.514c.3-.541.585-1.023.884-1.5.284-.328-1.85.774-1.85.774s-4.012,2.32-7.772,1.5c-2.208-.009-9.239-5.2,3.077-17.589.892-.561,1.693-1.011,2.184-1.263a39.24,39.24,0,0,1,13.4-3.973c.29-.033.59-.039.885-.059.183,2.293.345,4.583.456,6.858.077-2.3.082-4.6.055-6.893a36.237,36.237,0,0,1,13.677,2.446,28.478,28.478,0,0,1,8.9,5.607,8.887,8.887,0,0,0-2.725-4.483c-1.421-1.382-2.438-2.49-6.683-4.214-.474-.212,3.477-.614,5.877-.713,8.421.191,11.608,2.514,15.493,5.37,1.97,1.448,5.778,6.417,5.778,6.417s-1.139-6.739-5.557-9.689a32.54,32.54,0,0,1,6.763,1.752,20.842,20.842,0,0,1,6.9,4.984c8.208,7.34,10.3,18.1,10.06,25.413A33.473,33.473,0,0,1,610.7,379.681Z"/></svg>