<svg id="f7221450-db91-4f48-bdc5-090832e64520" data-name="Layer 2" xmlns="http://www.w3.org/2000/svg" viewBox="0 0 618 443.976" style="fill: #215342;" height="220" width="335" transform="translate(10, 1.5)"><path d="M172.023,293.766a.5.5,0,0,0,.284.167,21.446,21.446,0,0,1,10.341,5.26.5.5,0,0,0,.742-.663l-.877-1.2a97.983,97.983,0,0,1,12.235,9.187.506.506,0,0,0,.466.106.5.5,0,0,0,.342-.333l1.294-4.164a8.613,8.613,0,0,1,.061,8.38.5.5,0,0,0,.434.748.459.459,0,0,0,.1-.01,90.1,90.1,0,0,0,23.149-8.011l-2.176,3.322a.5.5,0,0,0,.548.757,40.873,40.873,0,0,0,21.166-13.808l1.576,3.6a.5.5,0,0,0,.94-.071l1.461-5.427a19.267,19.267,0,0,0,14.422,3.034.5.5,0,0,0,.063-.965,15.939,15.939,0,0,1-10.046-10.264.5.5,0,0,0-.45-.352.463.463,0,0,0-.486.3,9.284,9.284,0,0,1-3.7,4.221l-1.253-3.07a.5.5,0,0,0-.388-.306.493.493,0,0,0-.461.177,39.672,39.672,0,0,1-4.977,5.046.466.466,0,0,0-.087-.028.475.475,0,0,0-.534.533,41.168,41.168,0,0,1-18.5,8.595l.788-4.219a.5.5,0,0,0-.854-.437,26.237,26.237,0,0,1-8.253,5.83l-1.911-8.014a.5.5,0,0,0-.533-.382.5.5,0,0,0-.452.474,10.808,10.808,0,0,1-1.778,5.425l-.789-3.414a.5.5,0,0,0-.487-.387h0a.5.5,0,0,0-.486.389l-.878,3.835a36.679,36.679,0,0,1-17.352-10.743.5.5,0,0,0-.87.294l-.275,3.432-2.2-2.93a.5.5,0,0,0-.9.229l-.31,2.135a38.389,38.389,0,0,1-15.08-6,.5.5,0,0,0-.664.736Z"/><path d="M251.113,303.137a.5.5,0,0,0-.367-.363.494.494,0,0,0-.492.155,101.508,101.508,0,0,1-25.68,20.917l-.166-6.324a.5.5,0,0,0-.841-.352,72.988,72.988,0,0,1-13.924,10.2l-1.207-4.819a.5.5,0,0,0-.929-.108,12.105,12.105,0,0,1-5.475,5.321l-6.3-8.223a.5.5,0,0,0-.863.485,24.949,24.949,0,0,1,.693,14.614.5.5,0,0,0,.7.574l7.449-3.561a9.941,9.941,0,0,1-2.606,4.993.5.5,0,0,0,.359.848.436.436,0,0,0,.072,0,57.405,57.405,0,0,0,20.752-7.294l-1.149,3.565a.5.5,0,0,0,.679.61c5.143-2.289,10.46-4.655,15.107-8.058,3.387-2.479,7.727-6.539,9.905-12.16l.91,2.671a.512.512,0,0,0,.488.338.5.5,0,0,0,.468-.367l1.07-3.884a16.484,16.484,0,0,0,12.516,2.167.5.5,0,0,0,0-.974A15.463,15.463,0,0,1,251.113,303.137Z"/><path d="M258.226,133.1a18.147,18.147,0,0,0,8.7-3.16l-1.168,2.354a.5.5,0,0,0,.526.716l4.838-.754-3.46,3.923a.5.5,0,0,0,.378.83,91.264,91.264,0,0,0,18.616-2.017l-3.943,3.829a.5.5,0,0,0,.239.846,18.058,18.058,0,0,0,3.942.436,16.066,16.066,0,0,0,7.7-1.879,13.157,13.157,0,0,0,6.764-9.5,10.91,10.91,0,0,0-4.75-10.518.5.5,0,0,0-.722.623,6.245,6.245,0,0,1-1.148,6.462l-.254-3.89a.5.5,0,0,0-.49-.467.513.513,0,0,0-.506.449,4.892,4.892,0,0,1-2.118,3.493,14.422,14.422,0,0,1,.975-9.385.5.5,0,0,0,0-.426.494.494,0,0,0-.326-.272,55.037,55.037,0,0,0-11.844-2.183,19.574,19.574,0,0,0-10.7,2.423l.415-2.473a.5.5,0,0,0-.735-.52,15.288,15.288,0,0,0-4.507,3.8c-.078-.559-.1-1.132-.129-1.692-.069-1.548-.135-3.01-1.336-3.771a.5.5,0,0,0-.714.2,24.594,24.594,0,0,0-2.5,13.267c.039.4.087.8.136,1.2a14.907,14.907,0,0,1,.149,3.585,4.254,4.254,0,0,1-2.264,3.511.5.5,0,0,0-.3.581A.494.494,0,0,0,258.226,133.1Z"/><path d="M141.038,123.29a26.23,26.23,0,0,0,8.931,9.732.5.5,0,0,0,.723-.634,14.255,14.255,0,0,1-1.218-8.174c.8,1.262,1.565,2.554,2.269,3.855a.5.5,0,0,0,.939-.26l-.1-2.332,4.682,5.088a2.567,2.567,0,0,0,1,.757,1.951,1.951,0,0,0,2.16-.843,4.932,4.932,0,0,0,.654-1.62l.067-.248a13.081,13.081,0,0,1,2.137-4.326c.233-.31.586-.723.957-.738a.5.5,0,0,1,.456.224,1.93,1.93,0,0,1,.265,1.544c-.069.275-.165.549-.26.823a4.086,4.086,0,0,0-.321,2.453.5.5,0,0,0,.688.327,38.424,38.424,0,0,0,12.065-8.583l-1.659,3.99a.5.5,0,0,0,.627.664c2.732-.954,4.355-3.617,5.783-6.263,1.345-2.494,2.872-5.322,3.029-8.424.179-3.493-1.432-6.8-2.855-9.293A55.012,55.012,0,0,0,169.563,86.06a.5.5,0,0,0-.686.725,21.94,21.94,0,0,1,5.714,12.142c.136,1.072.4,4.667-1.9,5.916a4.727,4.727,0,0,1-3.546.117,18.762,18.762,0,0,1-2.065-.807c-.549-.239-1.1-.478-1.662-.678a16.568,16.568,0,0,0-9.44-.223,38.017,38.017,0,0,0-8.673,3.588c-2.218,1.185-4.371,2.6-5.092,4.884a9.736,9.736,0,0,0,.148,4.893,12.724,12.724,0,0,1,.379,3.3,26.641,26.641,0,0,1-3.685-6.718.5.5,0,0,0-.968.2,25.25,25.25,0,0,0,2.946,9.891Z"/><path d="M172.689,279.219l-2.441,1.289a.5.5,0,0,0,.1.925,34.247,34.247,0,0,0,8.939,1.1,68.066,68.066,0,0,0,13.614-1.645.5.5,0,0,0-.062-.988l-12.342-.938,1.114-1.9a.5.5,0,0,0-.415-.753,66.815,66.815,0,0,1-12.887-1.691l.667-1.81a.5.5,0,0,0-.088-.5.5.5,0,0,0-.475-.168,19.858,19.858,0,0,1-17.76-5.71.5.5,0,0,0-.827.53,12.632,12.632,0,0,0,4.059,5.888,16.006,16.006,0,0,0,7.96,2.913,8.841,8.841,0,0,1-2.4,1.52.5.5,0,0,0,.065.943A43.66,43.66,0,0,0,172.689,279.219Z"/><path d="M255.062,174.53c1.341,2.15,4,3.327,8.121,3.6l.927.056c2.242.13,4.55.264,6.412,1.269l-1.513.574a.5.5,0,0,0-.033.922,13.372,13.372,0,0,0,5.679,1.15,25.779,25.779,0,0,0,6.818-1.045c1.147-.317,2.286-.676,3.423-1.035a38.769,38.769,0,0,1,8.492-2,.5.5,0,0,0,.022-.994L275.3,174.82a6.657,6.657,0,0,0,2.1-2.013.5.5,0,0,0-.567-.752,56.045,56.045,0,0,1-15.1,2.528,20.553,20.553,0,0,1-4.649-.532c-.506-.1-1.007-.2-1.508-.279a.5.5,0,0,0-.506.758Z"/><path d="M132.4,169.975a24.95,24.95,0,0,0,11.879,2.994,24.193,24.193,0,0,0,5.047-.527c1.412-.3,2.824-.732,4.19-1.149,3.03-.925,5.9-1.8,8.86-1.431l.028,0a17.542,17.542,0,0,1,6.945,1.646.5.5,0,0,0,.547-.828,21.118,21.118,0,0,0-14.516-5.046,42.786,42.786,0,0,0-5.662.748c-3.262.58-6.341,1.127-9.387.385a.5.5,0,0,0-.406.895,23.782,23.782,0,0,0,3.944,2.236,21.729,21.729,0,0,1-11.065-.837.5.5,0,0,0-.622.269A.5.5,0,0,0,132.4,169.975Z"/><path d="M291.949,142.184a.5.5,0,0,0-.535-.356,71.025,71.025,0,0,0-15.159,3.405,10.575,10.575,0,0,1,2.4-2.763.5.5,0,0,0-.428-.875,10.161,10.161,0,0,1-2.749.245l2.354-1.831a.5.5,0,0,0-.447-.875,21.883,21.883,0,0,1-14.045-.649.5.5,0,0,0-.525.83,20.417,20.417,0,0,0,9.751,5.24,4.316,4.316,0,0,1-3.118,1.9.5.5,0,0,0-.143.959c4.666,1.944,10.095.752,14.261-.294a14.736,14.736,0,0,0,2.912,11.543.5.5,0,0,0,.393.19.5.5,0,0,0,.483-.374,14.5,14.5,0,0,1,3.978-6.755.5.5,0,0,0-.428-.855l-4.02.681,2.068-5.237a.5.5,0,0,0-.615-.66l-1.5.47a20.845,20.845,0,0,1,4.85-3.35A.5.5,0,0,0,291.949,142.184Z"/><path d="M133.051,158.384a.559.559,0,0,0,.057,0c4.729-.55,10.109-4.977,12.973-10.617.214.166.419.356.632.554a8.1,8.1,0,0,0,.945.792,2.305,2.305,0,0,0,3.078-.148,2.658,2.658,0,0,0,.414-1.779,28.267,28.267,0,0,0-.493-4.47A43.859,43.859,0,0,0,161.6,141a.5.5,0,0,0,.213-.835,5.765,5.765,0,0,1-1.3-2,37.663,37.663,0,0,0,8.95-3.863.5.5,0,0,0-.4-.908,22.2,22.2,0,0,1-13.938-.378.5.5,0,0,0-.648.622,16.216,16.216,0,0,0,1.94,4.03,27.754,27.754,0,0,1-14.434.616.5.5,0,0,0-.422.878l4.995,4-8.208,1.177a.5.5,0,0,0-.316.811l3.6,4.418-8.913,7.942a.5.5,0,0,0,.334.873Z"/><path d="M449.183,347.3a43.726,43.726,0,0,0,23.092,6.6,43.222,43.222,0,0,0,5.18-.311.5.5,0,0,0,.139-.955l-4.145-1.8a23.2,23.2,0,0,0,9.116-1.23.5.5,0,0,0-.044-.957,86.081,86.081,0,0,1-19.076-7.264.5.5,0,0,0-.686.654l3.662,7.864c-5.656-.046-10.886-1.867-14.067-2.974-2.195-.764-2.857-.995-3.26-.58a.643.643,0,0,0-.112.712A.5.5,0,0,0,449.183,347.3Z"/><path d="M295.042,89.762q-1.054-.095-2.111-.156a38.606,38.606,0,0,0-10.912.592,23.375,23.375,0,0,0-11.657,7.039c6.228-4.846,13.673-6.478,21.518-7.248C292.911,89.891,294.082,89.819,295.042,89.762Z"/><path d="M282.4,100.848a23.685,23.685,0,0,0-11.446,5.231c4.609-2.823,9.3-3.315,14.846-3.873h.02a91.4,91.4,0,0,1,9.4,4.292c1.119.619,2.4,1.39,3.553,2.174q-.935-.824-1.915-1.592c-2.24-1.631-4.807-3.484-7.54-5.094a63.639,63.639,0,0,1,9.921.028,27.2,27.2,0,0,1,3.071.48c-.617-.224-1.244-.419-1.877-.591a47.61,47.61,0,0,0-14.077-1.516c-5.526-2.687-11.476-3.808-16.68.122C274.061,98.219,278.243,99.283,282.4,100.848Z"/><path d="M173.825,100.9c-1.035-3.777-4.6-6.312-7.78-8.285a14.258,14.258,0,0,0-1.6-.812c-5.577-6.066-13.049-8.177-21.313-8.183-.511-.01-1.143-.022-1.579-.012,1.411.208,2.816.458,4.214.737,5.784,1.147,12.177,3.171,17.509,7-5.978-2.041-12.866-.211-18.684,1.462-1.175.379-2.367.809-3.491,1.282a39.66,39.66,0,0,1,4.627-1.081c8.006-1.143,16.383-1.639,22.84,2.633C170.723,97.052,172.825,98.494,173.825,100.9Z"/><path d="M144.083,79.376q1.8.363,3.6.751c7.349,1.837,14.1,2.3,20.365,6.819-5.687-5.954-14.364-6.747-22.126-7.438C145.321,79.461,144.635,79.407,144.083,79.376Z"/><path d="M136.03,76.074c2.326-.62,4.675-1.155,7.037-1.622a41.661,41.661,0,0,1,10.03-1.039,46.021,46.021,0,0,1,6.057,3.8,45.888,45.888,0,0,0-4.116-3.627,17.716,17.716,0,0,1,4.247,1.083c2.635,1.048,4.89,1.979,6.645,4.355-1.778-3.289-5.459-5.171-8.866-6.381a15.092,15.092,0,0,0-4.617-.8c-4.623-2.642-8.943-2.515-16.463-1.341-.545.086-1.143.186-1.653.28.969-.035,1.8-.056,2.709-.065,3.967.008,8.448,0,12.009.99.251.085.49.179.734.268-3.864.443-7.706,1.892-11.316,3.146C137.661,75.423,136.78,75.765,136.03,76.074Z"/><path d="M156.558,95.94a26.243,26.243,0,0,0-14.375,5.288c7.98-3.978,16.273-4.288,25.31-2.657,1.086.187,2.309.436,3.31.648q-1.206-.457-2.425-.876C164.563,97.084,160.613,95.87,156.558,95.94Z"/><path d="M365.3,345.77a.5.5,0,0,0,.367.161.521.521,0,0,0,.2-.043.5.5,0,0,0,.3-.5l-1.256-13.815a7.719,7.719,0,0,1,2.068,3.4.5.5,0,0,0,.98-.128,81.886,81.886,0,0,0-3.518-25.911c-1.053-3.467-3.044-6.02-4.969-8.488-.6-.769-1.191-1.528-1.744-2.3a.5.5,0,0,0-.817.577,32.777,32.777,0,0,1,5.123,25.233,10.033,10.033,0,0,0-2.6-2.577.5.5,0,0,0-.781.433l.539,13.66-1.815-1.806a.5.5,0,0,0-.78.615A73.3,73.3,0,0,0,365.3,345.77Z"/><path d="M585.319,356.07H507.177l.407-.176a.5.5,0,0,0,.1-.859,23.976,23.976,0,0,0-6.7-3.516l1.893-1.267a.5.5,0,0,0-.111-.887c-6.337-2.259-11.2-7.37-15.9-12.312l-.306-.321a63.114,63.114,0,0,0-9.133-8.3l1.332.412a.5.5,0,0,0,.472-.857,75.6,75.6,0,0,0-38.018-17.223,5.75,5.75,0,0,1,2.533-.107.5.5,0,0,0,.2-.979l-16.942-3.9,1.552-.716a.5.5,0,0,0-.081-.938c-7.479-1.973-15.213-4.013-22.191-7.622a44.469,44.469,0,0,1-8.171-5.406,239.273,239.273,0,0,0-17.055-26.667,15.331,15.331,0,0,0,5.393.878.509.509,0,0,0,.505-.379.5.5,0,0,0-.25-.562c-5.757-3.064-8.768-8.657-11.955-14.578a66.45,66.45,0,0,0-7.325-11.571c-5.684-6.8-11.787-13.628-19.072-17.957l-2.493-2.671a81.029,81.029,0,0,1-7.049-8.268,55.515,55.515,0,0,1-5.041-9.031,33.557,33.557,0,0,0,3.934.242q.915,0,1.833-.05a.5.5,0,0,0,.191-.948,18.961,18.961,0,0,1-6.856-6.054,42.133,42.133,0,0,1-3.08-5.032l-2.866-10.387,2.612.988a.5.5,0,0,0,.657-.607,21.618,21.618,0,0,0-5.772-9.5l2.509-.712a.5.5,0,0,0,.155-.887,35.309,35.309,0,0,1-7.85-7.781c-.155-6.612-1.812-12.9-3.432-19.022-2.183-8.251-4.44-16.782-2.835-25.856a77,77,0,0,0,.875-9.051c.117-2.042.226-3.97.443-5.864.4-3.516.918-10.29,1.178-17.285a43.532,43.532,0,0,1,5.759,2.808c.194.106.374.225.545.322l-.1-.072a45.606,45.606,0,0,0-6.179-3.7c.277-7.936.206-16.027-.753-19.884.664-.083,1.317-.158,1.9-.222-.652-.006-1.3,0-1.956.008-.01-.037-.019-.081-.029-.117-1.274-4.548-4.652-10.017-10.316-11.724-4.045-1.22-8.755-.122-14,3.265-11.213,7.243-18.393,18.889-25.336,30.152-1.712,2.776-3.442,5.579-5.243,8.339a55.9,55.9,0,0,1-14.355,7.627l.516-1.521a.5.5,0,0,0-.652-.628c-13.034,4.944-28.809,4.863-44.417-.23a.5.5,0,0,0-.608.687l.635,1.354a35.9,35.9,0,0,1-10.554-3.752c-10.385-14.334-21.654-28.2-35.445-39.55-2.918-2.4-6.379-5.068-10.52-6.3-4.46-1.329-9.04-.55-11.943,2.034-3.121,2.774-4.053,7.058-4.8,11.576-.312,1.872-.628,3.784-.935,5.721-.781.649-1.553,1.311-2.3,2,.683-.49,1.471-1.014,2.226-1.5-1.75,11.159-3.084,23.238-.722,34.741.412,2,.94,4.036,1.452,6,1.472,5.662,3,11.517,1.838,17.2a38.724,38.724,0,0,1-1.583,5.193,33.851,33.851,0,0,0-1.777,6.206,33.967,33.967,0,0,0-.174,6.311c.048,1.346.1,2.738.035,4.091a14.879,14.879,0,0,1-1.3,5.609,86.162,86.162,0,0,1-12.663,9.831.5.5,0,0,0-.081.78l2.739,2.671a21.769,21.769,0,0,0-9.493,13.134.5.5,0,0,0,.728.555l2.046-1.135A30.136,30.136,0,0,0,105.093,198a29.828,29.828,0,0,0,1.722,6.209,41.975,41.975,0,0,1-1.051,14.089.5.5,0,0,0,.112.453.491.491,0,0,0,.436.165l1.721-.216a27.813,27.813,0,0,0,3.34,20.532.5.5,0,0,0,.36.236c.734.1,1.538.161,2.331.216.321,2.5.723,5.008,1.123,7.518a2.871,2.871,0,0,0,.689,1.679c.021.021.048.035.071.054a335.745,335.745,0,0,0-39.123,20.275c-1.526.924-3.292,2-4.656,2.871q2.614-1.377,5.23-2.75c13.165-6.867,26.081-14.324,39.857-19.924l1.212,4.875a.5.5,0,0,0,.41.373,13.18,13.18,0,0,1,2.811.77c-15.875,7.183-30.489,17.327-44.5,27.6-7.689,5.64-17.42,13.145-23.429,18.619,8.077-6.02,16.052-12.175,24.171-18.139,14.192-10.288,28.952-20.458,44.908-27.564.219.111.431.235.644.358a102.678,102.678,0,0,0-9.457,9.982c-8.42,10.5-15.12,22.262-21.569,34.045a291.522,291.522,0,0,0-12.85,26.435C84.246,317.821,88.8,308.836,93.62,300c8.2-14.742,17.377-30.545,29.74-42.192.341-.316.687-.622,1.03-.934a13.151,13.151,0,0,1,1.893,1.578l-.121,3.806a.5.5,0,0,0,.353.494,60.418,60.418,0,0,1,12.667,5.539c.819,1.043,1.581,2.131,2.3,3.245-.605.868-1.2,1.745-1.77,2.634-5.339,7.873-10.065,16.147-14.63,24.487a217.424,217.424,0,0,0-9.8,20.075c3.7-6.76,7.357-13.55,11.018-20.334a286.807,286.807,0,0,1,15.781-25.914,45.749,45.749,0,0,1,6.482,28.969.5.5,0,0,0,.12.388.5.5,0,0,0,.368.171l2.582.041-3.392,9.02a.5.5,0,0,0,.687.625l5.311-2.6a216.883,216.883,0,0,0-2.462,32.642c-.684-.576-1.412-1.174-2.2-1.816-1.017-.833-2.121-1.736-3.307-2.742-2.641-2.379-6.815-5.64-12.542-6.48-6.522-1.175-12.832.494-19.262,2.464-6.247,1.971-12.342,3.949-18.231,6.472-4.94,2.127-11.839,5.72-14.722,12.329l0,0a16.794,16.794,0,0,0-1.133,4.1H44.319a.5.5,0,0,0-.5.5v16.471a.5.5,0,0,0,.5.5h41.73c3.239,3.845,10.463,5.72,14.036,6.643.6.155,1.068.277,1.386.376a10.779,10.779,0,0,0,4.347.059c.327-.054,1.24-.11,2.207-.17a40.69,40.69,0,0,0,4.791-.457,7.969,7.969,0,0,0,4.882.864,8.449,8.449,0,0,0,2.223-.652,7.7,7.7,0,0,0,2.577-.071c.053-.014.173-.039.322-.07l.1-.02a5.808,5.808,0,0,0,2.26-.395,13.852,13.852,0,0,0,2.782,1.14,14.1,14.1,0,0,0,4.094.366,4.832,4.832,0,0,0,2.293,1.024c.076,0,.154.009.233.009a2.311,2.311,0,0,0,2.294-1.992,22.027,22.027,0,0,0,7.012-4.365,15.731,15.731,0,0,0,2-2.289h117.74a19.926,19.926,0,0,0,6.269,4.4c.355,1.7,1.33,2.112,2.2,2.112.07,0,.138,0,.205-.007a4.69,4.69,0,0,0,2.234-1.019,12.759,12.759,0,0,0,3.975-.315,13.477,13.477,0,0,0,2.726-1.128,5.122,5.122,0,0,0,2.183.449c.165.04.3.072.4.1a6.88,6.88,0,0,0,2.439.109,7.522,7.522,0,0,0,2.1.707,7.37,7.37,0,0,0,4.78-.809,36.093,36.093,0,0,0,4.584.55c.928.077,1.805.151,2.129.214a9.724,9.724,0,0,0,4.218,0c.3-.093.758-.212,1.341-.362,2.973-.765,8.533-2.2,12.162-5H585.319a.5.5,0,0,0,.5-.5V356.57A.5.5,0,0,0,585.319,356.07Zm-284.35,18.405c-.16-.3-.543-.591-1.483-.289-.042.015-.158.068-.327.15a16.48,16.48,0,0,1-1.6.7,10.472,10.472,0,0,0,1.255-1.754c3.191-6.257,2.838-13.224,1.984-17.957a31.7,31.7,0,0,0-1.316-4.88c-.311-.948-.633-1.928-.888-2.9a.5.5,0,0,0-.984.123c-.008,1.008.042,2.023.091,3a34.055,34.055,0,0,1,.026,4.452A60.869,60.869,0,0,1,295.8,366.58c-.2.71-.36,1.331-.5,1.884-.726,2.792-.971,3.737-3.309,5.992l-.008.008a9.437,9.437,0,0,1-2.668,1.832c-.172.053-.344.1-.516.134a2.556,2.556,0,0,0,.055-1.79,1.563,1.563,0,0,0-.933-.943,2.025,2.025,0,0,0-.9-.2,4.3,4.3,0,0,0-1.206.219,13.434,13.434,0,0,0,1.763-3.809l.216-.651c1.2-4.293.6-9.36-1.864-15.939-.567-1.564-1.1-2.909-1.641-4.114a.5.5,0,0,0-.951.278l.05.334c.01.093.021.185.033.278-.141-.355-.269-.7-.386-1.041-.148-.405-.269-.822-.389-1.239a12.255,12.255,0,0,0-.748-2.095.5.5,0,0,0-.94.3,8.624,8.624,0,0,1,.013,1.944c-.029.444-.057.887-.048,1.309a22.268,22.268,0,0,0,.568,5.22c.336,1.671.77,3.25,1.189,4.776a51.063,51.063,0,0,1,1.269,5.342c-.487,3.6-1.528,7.206-5.751,9.323a1.6,1.6,0,0,1-.345.127,4.822,4.822,0,0,0-.492-3.8,1.941,1.941,0,0,0-1.741-.882c-1.241.171-2.018,1.915-2.642,3.317-.125.28-.24.54-.35.763q-.107.22-.224.422c-1.983-.643-9.879-3.659-8.03-10.419.241-.883.5-1.825.776-2.794a104.545,104.545,0,0,0,2.675-10.876.5.5,0,0,0-.926-.326,50.261,50.261,0,0,0-3.755,7.876,19.6,19.6,0,0,1,2.694-10.257.5.5,0,0,0-.8-.593,21.226,21.226,0,0,0-5.258,11.806c-.065.432-.122.859-.17,1.278a9.822,9.822,0,0,0-.723-.688,10.58,10.58,0,0,0-4-1.661,6.358,6.358,0,0,1-1.77-.606c-.05-.073-.1-.148-.119-.19a9.329,9.329,0,0,1-.442-1.224c-.285-1.173.507-5.822,1.422-8.319a18.067,18.067,0,0,1,10.133-8.727,4.3,4.3,0,0,1,.4,2.007,9.834,9.834,0,0,1-.157,1.778.5.5,0,0,0,.881.4,5.591,5.591,0,0,0,.849-1.441c.239-.4.49-.8.74-1.195a28.289,28.289,0,0,0,1.515-2.6c.364-.671.925-1.83,1.336-2.676.225-.465.4-.82.423-.871a8.049,8.049,0,0,1,2.352-2.437c6.7-3.657,15.871-.249,22.554,2.231l1.036.427c18.034,7.428,26.265,10.818,26.039,22.613-.177,4.875-3.085,11.925-7.646,15.283l0,0a10.482,10.482,0,0,1-2.491,1.369c4.783-5.989,6.5-14.272,4.159-20.724a.494.494,0,0,0-.572-.319.5.5,0,0,0-.4.521,13.8,13.8,0,0,1,0,1.629,26.512,26.512,0,0,0-3.951-4.717q-.677-.662-1.382-1.294a.5.5,0,0,0-.772.614c.5.91,1.025,1.972,1.55,3.139.387.963.763,1.8,1.12,2.594a31.43,31.43,0,0,1,1.7,4.365,12,12,0,0,1,.271,1.691,37.5,37.5,0,0,1-4.636,8.262l-.23.341a24.264,24.264,0,0,1-4.109,4.772c-.261.226-.47.422-.657.6a4.293,4.293,0,0,1-2.2,1.266,4.648,4.648,0,0,1-1.183.125A1.438,1.438,0,0,0,300.969,374.475ZM128.89,376.3a2.166,2.166,0,0,1-.46-.172c-4.192-2.073-5.07-5.547-5.376-9a48.463,48.463,0,0,1,1.608-5.112c.52-1.465,1.057-2.98,1.495-4.573a20.393,20.393,0,0,0,.881-5.024c.034-.424.029-.854.023-1.284a7.787,7.787,0,0,1,.121-1.86.5.5,0,0,0-.915-.372,11.838,11.838,0,0,0-.891,2.01c-.149.4-.3.8-.475,1.193q-.229.533-.5,1.089l.056-.3.071-.332a.5.5,0,0,0-.314-.575.507.507,0,0,0-.614.23c-.63,1.164-1.244,2.416-1.926,3.933-2.929,6.31-3.825,11.19-2.811,15.39l.182.608a12.03,12.03,0,0,0,1.607,3.687,3.122,3.122,0,0,0-2.143-.087,1.678,1.678,0,0,0-1.084.976,2.392,2.392,0,0,0-.011,1.673c-.2-.041-.395-.091-.593-.152a9.268,9.268,0,0,1-2.646-1.8l-.016-.016c-2.283-2.193-2.483-3.1-3.079-5.8-.118-.535-.251-1.135-.414-1.81a53.868,53.868,0,0,1-1.362-11.086,30.655,30.655,0,0,1,.273-4.266c.105-.945.214-1.923.261-2.895a.5.5,0,0,0-.973-.186c-.317.933-.7,1.869-1.078,2.775a29.726,29.726,0,0,0-1.634,4.679c-1.154,4.564-1.906,11.283,1.073,17.4a9.372,9.372,0,0,0,1.181,1.676,16.862,16.862,0,0,1-1.67-.716c-.17-.082-.287-.135-.338-.153-.967-.308-1.357-.008-1.52.295a1.363,1.363,0,0,0,.27,1.363,4.975,4.975,0,0,1-1.223-.133,4.336,4.336,0,0,1-2.249-1.264c-.185-.173-.391-.366-.633-.574a22.506,22.506,0,0,1-4-4.668l-.232-.349a33.66,33.66,0,0,1-4.326-8,11.043,11.043,0,0,1,.367-1.6,30.227,30.227,0,0,1,2-4.184c.414-.761.849-1.558,1.294-2.461.61-1.121,1.212-2.136,1.788-3.015a.5.5,0,0,0-.725-.668c-.51.4-1.012.8-1.511,1.229a27.3,27.3,0,0,0-4.386,4.528,12.125,12.125,0,0,1,.1-1.57.5.5,0,0,0-.952-.269c-2.788,6.186-1.469,14.2,3.158,20.066a10.7,10.7,0,0,1-2.558-1.38l0,0c-4.528-3.3-7.146-10.123-7.06-14.8.419-11.366,9.141-14.5,28.255-21.361l1.081-.388c7.09-2.289,16.8-5.423,23.55-1.783a7.468,7.468,0,0,1,2.273,2.346c.046.083.2.43.413.883.377.818.893,1.94,1.223,2.57a25.319,25.319,0,0,0,1.438,2.558c.238.386.474.771.663,1.083a5.382,5.382,0,0,0,.84,1.485.5.5,0,0,0,.885-.383,8.654,8.654,0,0,1-.064-1.68,3.9,3.9,0,0,1,.539-1.962,17.064,17.064,0,0,1,10.049,8.592c.8,2.385,1.362,6.86.995,8.007a7.918,7.918,0,0,1-.5,1.106,1.383,1.383,0,0,1-.143.2,6.412,6.412,0,0,1-1.906.586,11.846,11.846,0,0,0-4.223,1.532,10.555,10.555,0,0,0-.814.678c-.026-.4-.06-.805-.1-1.216a19,19,0,0,0-4.809-11.5.5.5,0,0,0-.8.587,17.377,17.377,0,0,1,2.21,10.013,44.978,44.978,0,0,0-3.5-7.758.5.5,0,0,0-.931.3,92.168,92.168,0,0,0,2.173,10.539c.226.934.447,1.842.648,2.694,1.537,6.53-6.835,9.305-8.948,9.9-.073-.128-.143-.264-.208-.409-.1-.209-.2-.46-.316-.73-.561-1.343-1.259-3.013-2.5-3.245a2.121,2.121,0,0,0-1.909.846A4.526,4.526,0,0,0,128.89,376.3Zm152.451-49.862a24.188,24.188,0,0,0-3.67.02A25.8,25.8,0,0,0,282.413,322l-1.076,4.377C281.332,326.4,281.344,326.415,281.341,326.433Zm.492.55.065.006Zm105,24.346L389,356.07h-1.735C387.16,354.48,387.021,352.9,386.836,351.329Zm31.555-31.9a6.317,6.317,0,0,1,.327-5.185,45.567,45.567,0,0,0,16.861,8.675.5.5,0,0,0,.37-.922,10.79,10.79,0,0,1-5.148-6.42,177.2,177.2,0,0,1,47.071,19.274c1.05,1.03,2.07,2.091,3.014,3.212a3.453,3.453,0,0,0-2.177,1.062.5.5,0,0,0,.19.808,43.058,43.058,0,0,1,20.419,16.134H445.8a64.665,64.665,0,0,1-28.609-22.443.5.5,0,0,0-.906.324,11.9,11.9,0,0,0,1.673,5.267l-3.106-1.909a.5.5,0,0,0-.729.6c2.622,6.974,7.312,12.883,12.317,18.159H402.743c-.362-6.058-.4-12.175-.44-18.141q0-.648-.008-1.3a104.313,104.313,0,0,0,7.467,9.233.5.5,0,0,0,.371.163.5.5,0,0,0,.416-.777,17.674,17.674,0,0,1,.029-19.212l3.194,1.175a.5.5,0,0,0,.6-.729,18.782,18.782,0,0,1-2.678-9.426,20.5,20.5,0,0,0,6.084,3.032.5.5,0,0,0,.612-.658Zm11.686,35.047c.938.556,1.895,1.084,2.862,1.591h-2.071ZM130.114,259.95a5.74,5.74,0,0,1,2.353-1.514.5.5,0,0,0,.017-.941,47.1,47.1,0,0,1-5.932-2.551c.432-.377.862-.757,1.3-1.13a109.4,109.4,0,0,1,19.224-5.737l.82,1.349a.5.5,0,0,0,.427.24.494.494,0,0,0,.156-.025.5.5,0,0,0,.342-.52,11,11,0,0,0-.211-1.324c.494-.089.986-.185,1.482-.267.52-.066,1.036-.128,1.553-.19a30.249,30.249,0,0,0,5.91,7.5,66.235,66.235,0,0,0-13.409,13.089C139.981,264.258,135.442,261.043,130.114,259.95Zm-10.323-15.691a.5.5,0,0,0-.859-.43l-1.344,1.445a28.785,28.785,0,0,1-.075-7.921.5.5,0,0,0-.3-.525,9.587,9.587,0,0,0-4.451-.7,42.2,42.2,0,0,1-.75-20.07.5.5,0,0,0-.4-.594l-2.249-.4a12.37,12.37,0,0,0,1.326-3.864,29.67,29.67,0,0,0,3.5,3.946.5.5,0,0,0,.813-.533,91.391,91.391,0,0,1-4.423-17.726.5.5,0,0,0-.346-.4.494.494,0,0,0-.515.136l-1.332,1.424a20.6,20.6,0,0,1,2.166-8.644.5.5,0,0,0-.737-.632l-.663.472a35.812,35.812,0,0,1,6.673-13.25.5.5,0,0,0-.612-.761l-2.275,1.128a37.919,37.919,0,0,1,9.122-10.762.5.5,0,0,0-.217-.88l-1.9-.373a4.584,4.584,0,0,0,1.459-1.395,108.09,108.09,0,0,0,10-9.7c1.956-1.259,3.88-2.565,5.739-3.951a.5.5,0,0,0,.1-.7c-2.055-2.779-4.836-7.025-5.267-11.8-.37-4.095,1.4-8.795,5.486-9.911l1.7.149a.5.5,0,0,0,.4-.847c-3.846-3.954-5.175-9.686-6.037-15.292a147.086,147.086,0,0,1,.059-45.187c.017-.111.039-.224.057-.336,7.552-3.2,15.141-3.279,22.69,2.071-7.92-7.326-14.964-7.887-22.332-3.948.661-3.038,1.812-5.96,4.351-7.407a8.463,8.463,0,0,1,7.107-.19,22.655,22.655,0,0,1,6.323,4.18c10.437,8.949,19.18,19.854,27.634,30.4,2.984,3.722,6.07,7.571,8.05,11.984a20.908,20.908,0,0,1,1.634,13.354,6.218,6.218,0,0,1-3.247-3.3.5.5,0,0,0-.949.306,13.673,13.673,0,0,1-3.487,12.548.5.5,0,0,0,.5.829,20.766,20.766,0,0,0,11.733-9.255l2.948,4.352a.5.5,0,0,0,.909-.211,19.184,19.184,0,0,0-.09-5.956,23.146,23.146,0,0,0,11.3,2.336.5.5,0,0,0,.13-.975c-2.468-.814-4.817-1.737-6.423-4.062-2.707-3.92-5.435-7.865-8.212-11.8a2.975,2.975,0,0,1,.477.194l8.555,4.362a.5.5,0,0,0,.727-.453l-.04-2.387,7.155,2.013,11.05,1.021a.491.491,0,0,0,.5-.281.5.5,0,0,0-.088-.563l-.015-.015,10.272-1.15-1.069,1.644a.5.5,0,0,0,.589.742l9.98-3.6a1.162,1.162,0,0,1,.719-.111.249.249,0,0,1,.123.194.679.679,0,0,1-.152.549,2.384,2.384,0,0,1-1.345.523.5.5,0,0,0,.045.991,19.533,19.533,0,0,0,10.494-2.2,63.665,63.665,0,0,1-7.025,7.294c-1.74,1.524-3.61,2.959-5.418,4.348l-6.753,5.185a.5.5,0,0,0,.536.84c3.729-1.943,6.728-3.081,9.244-2.339a6.19,6.19,0,0,1,4.27,5.4c0,.1.006.2.01.3a.507.507,0,0,0,.512.477.5.5,0,0,0,.487-.5c0-.108,0-.216-.01-.323a12.772,12.772,0,0,1,3.464-8.925,19.851,19.851,0,0,1,5.729,6.836q.129.287.276.564a.5.5,0,0,0,.894-.447q-.13-.278-.27-.551a9.555,9.555,0,0,1,6.738-13.294.5.5,0,0,0,.065-.96l-4.235-1.508c2.636-3.056,6.64-9.624,11.233-17.154C279,75.754,287.011,62.623,291.669,59.82c3.111-1.871,7.8-3.137,11.629-1.081a12.113,12.113,0,0,1,3.869,3.352,33.571,33.571,0,0,0-9.758,2.147,33.974,33.974,0,0,0-12.765,9.9,38.674,38.674,0,0,1,8.093-5.624,49.068,49.068,0,0,1,15.1-5.438,11.955,11.955,0,0,1,1.646,4.213c.073.416.127.824.195,1.238-.069-.007-.137-.02-.206-.027-12.025-1.062-21.181,3.883-28.7,13.014,8.16-6.748,17.54-11.284,27.607-12.659.43-.047.887-.078,1.338-.1a99.564,99.564,0,0,1,1.154,11.238c-13.55-4.12-28.415,1.732-37.425,12.6a45.616,45.616,0,0,1,26.491-11.845,37.461,37.461,0,0,1,10.989.317,102,102,0,0,1-4,31.942c-.732,2.5-3.064,5.228-5.945,5.354a.5.5,0,0,0-.167.962c5.962,2.429,7.683,10.275,5.5,15.8-2.572,6.5-8.906,10.244-13.767,12.244a.5.5,0,0,0-.3.575.49.49,0,0,0,.518.387l9.362-.581-7.744,4.409a.5.5,0,0,0,.142.924,65.152,65.152,0,0,1,13.962,4.69l-5.8,2.876a.5.5,0,0,0,.361.928,15.738,15.738,0,0,1,8.86.092,12.774,12.774,0,0,0,4.076,3.047l-4.948,1.833a.5.5,0,0,0,.01.941c5.47,1.9,8.652,7.672,10.358,12.183.6,1.577,1.129,3.222,1.644,4.812A48.066,48.066,0,0,0,327.3,194.8l-3.5.427a.5.5,0,0,0-.3.845,19.368,19.368,0,0,1,4.581,7.63,9.08,9.08,0,0,0-4.675-.952.5.5,0,0,0-.26.9c3.127,2.259,4.11,6.016,4.418,8.055a35.943,35.943,0,0,1-.3,9.659c-.574,4.636-1.2,9.2-2.154,13.6a25.2,25.2,0,0,1-6.3,8.464q-9.108-2.079-18.275-3.871a176.9,176.9,0,0,0-29.225-3.473c-.015-.019-.019-.043-.037-.06l-2.3-2.061a27.724,27.724,0,0,0,9.981-3.136.5.5,0,0,0-.061-.908l-.526-.2a17.894,17.894,0,0,1,15.539-5.3.5.5,0,0,0,.453-.826l-2.245-2.529a7.811,7.811,0,0,1,3.546.753.5.5,0,0,0,.423,0,.5.5,0,0,0,.274-.322,10.14,10.14,0,0,0-.272-6.017,19.851,19.851,0,0,0-2.936-9.966,19.431,19.431,0,0,1,6.643,1.224.5.5,0,0,0,.569-.777,27.468,27.468,0,0,0-15.366-9.8.511.511,0,0,0-.481.147.5.5,0,0,0-.109.491l.813,2.584c-1.389-1.172-2.823-2.3-4.279-3.391a6.238,6.238,0,0,0,.821-.176.5.5,0,0,0,.115-.911,17.322,17.322,0,0,1-3.409-2.62,54.137,54.137,0,0,0,9.719-.209c1.225-.1,2.45-.2,3.672-.269,3.889-.211,9.556-.174,13.9,2.646a.5.5,0,0,0,.748-.574,12.616,12.616,0,0,0-4.289-6.054l3.639.284a.488.488,0,0,0,.506-.318.5.5,0,0,0-.16-.575,18.2,18.2,0,0,0-10.5-3.48,39.025,39.025,0,0,0-10.936,1.5.5.5,0,0,0-.146.9,8.592,8.592,0,0,0,2.059.975,35.663,35.663,0,0,1-20.159-3.23l-.088-.08a27.551,27.551,0,0,0-4.285-3.417.476.476,0,0,0-.106-.076l-.1-.045a15.8,15.8,0,0,0-2.663-1.207c-5.3-2.362-10.53-4.376-15.712-5.161,3.921-1.2,7.806-2.448,11.643-3.69a.5.5,0,0,0-.122-.975,93.98,93.98,0,0,0-15.419.287l.852-2a.5.5,0,0,0-.742-.609l-2.871,1.96a23.775,23.775,0,0,1,3.587-15.062.5.5,0,0,0,.006-.53.486.486,0,0,0-.473-.238,9.888,9.888,0,0,0-5.731,2.543,54.03,54.03,0,0,1,1.941-14.191.5.5,0,0,0-.547-.629,10.5,10.5,0,0,0-6.792,3.853,131.652,131.652,0,0,1-2.092-15.692.5.5,0,0,0-.881-.287L217.1,139.085a2.664,2.664,0,0,1-1.488,1.116,1.6,1.6,0,0,1-1.5-1.222,5.737,5.737,0,0,1,.033-2.537.5.5,0,0,0-.952-.28l-3.087,7.032a32.264,32.264,0,0,1-7.713-12.755.5.5,0,0,0-.956.01l-.824,2.761a16,16,0,0,1-2.3-6.545.5.5,0,0,0-.433-.437.505.505,0,0,0-.53.316,75.535,75.535,0,0,0-4.722,19.895l-2.8-3.551a.5.5,0,0,0-.888.242l-.393,2.892-5.351-5.668a.493.493,0,0,0-.466-.146.5.5,0,0,0-.368.321c-1.4,3.925-.326,8.088.715,12.114l.3,1.15c.884,3.5,1.75,8.5-.767,11.99l-5.7-1.918a.5.5,0,0,0-.609.693l2.348,4.827a16.746,16.746,0,0,0-8.313-1.661.5.5,0,0,0-.265.9l6.53,4.762a35.854,35.854,0,0,0-5.686-.694,27.083,27.083,0,0,0-22.175,6.775,15.065,15.065,0,0,1-2.09-.346c-1.25-.3-2.5-.728-3.715-1.14a29.022,29.022,0,0,0-5.747-1.525A18.923,18.923,0,0,0,128,177.828a46.159,46.159,0,0,0-8.109,4.386.5.5,0,0,0,.441.891l4.051-1.459a16.918,16.918,0,0,0-4.088,6.1.5.5,0,0,0,.776.573,22.142,22.142,0,0,1,5.8-3.672c.894-.284,1.8-.511,2.715-.71a26.594,26.594,0,0,0-7.235,8.92,1.853,1.853,0,0,0,.024,1.75.855.855,0,0,0,.855.339l2.608-.429a25.613,25.613,0,0,0-4.1,6.981.5.5,0,0,0,.807.547,2.036,2.036,0,0,1,1.11-.679.5.5,0,0,1,.387.221c.02.034.042.08.026.109a8.566,8.566,0,0,1-2.93,3.115.5.5,0,0,0,0,.849,23.391,23.391,0,0,0,5,2.316,16.656,16.656,0,0,0-2.472,8.42.5.5,0,0,0,.348.484.506.506,0,0,0,.565-.193,7.587,7.587,0,0,1,2.294-2.177,9.423,9.423,0,0,1-1.721,4.5.5.5,0,0,0,.694.7,12.28,12.28,0,0,1,5.878-2.182l-2.746,3.382a.5.5,0,0,0,.537.793,13.719,13.719,0,0,1,6.686-.341,9.653,9.653,0,0,0-4.192,4.312,17.725,17.725,0,0,0-5.632,5.606.5.5,0,0,0,.53.754l4.43-.959a21.8,21.8,0,0,0-2.615,3.05.5.5,0,0,0,.473.785l6.155-.8.229,3.409a.5.5,0,0,0,.817.352l1.381-1.141.112,4.848a184.387,184.387,0,0,0-17.987,5.784A7.368,7.368,0,0,1,119.791,244.259Zm42.259-68.473a30.966,30.966,0,0,1,10.6,1.47,4.2,4.2,0,0,0-1.056,3.178.5.5,0,0,0,.652.456,1.651,1.651,0,0,1,1.736.632,2.3,2.3,0,0,1,.271,2.027c-.089.28-.183.364-.231.389-.127.065-.337-.019-.67-.169a2.669,2.669,0,0,0-1.011-.3,1.791,1.791,0,0,0-1.624,1.13,3.848,3.848,0,0,0-.236,1.7,19.089,19.089,0,0,0,2.26,8.372c.367.681.788.847,1.111.847a.922.922,0,0,0,.121-.008,1.321,1.321,0,0,0,.91-.72l1.774-2.905a18.08,18.08,0,0,0,2.256-4.642,18.4,18.4,0,0,0,.172-6.523c-.02-.205-.042-.407-.067-.608a29.16,29.16,0,0,1,8.924,8.105c1.83,2.561,2.463,4.778,1.881,6.591-.834,2.593-3.8,3.782-6.888,4.681a.5.5,0,0,0-.035.948,10.755,10.755,0,0,0,1.2.36,31.868,31.868,0,0,1-10.779,1.512,28.471,28.471,0,0,1-13.948-3.913,20.971,20.971,0,0,1-9.09-11,2.4,2.4,0,0,1,0-1.768.439.439,0,0,1,.33-.228c.512-.086.951.742,1.125,1.243.058.168.127.363.208.564a15.8,15.8,0,0,0,12.088,11.4.5.5,0,0,0,.305-.945c-3.452-1.6-5.585-5.108-7.218-8.324a18.583,18.583,0,0,1-1.683-4.225,7.4,7.4,0,0,1,.182-4.309c.769-1.947,2.623-3.5,5.669-4.748C161.536,175.96,161.795,175.882,162.05,175.786Zm125.657,41.752a4.649,4.649,0,0,1-1.29.846.5.5,0,0,0-.273.168,32.98,32.98,0,0,1-26.92,11.609.266.266,0,0,0-.039,0l-.827-.2-1.894-1.937a33.46,33.46,0,0,0,15.316-2.784,72.045,72.045,0,0,0,13.829-8.129Zm-111.57,19.08c.033-.017.066-.031.1-.049l-.019.062Zm16.329,13.6a5.274,5.274,0,0,1,.988-1.44A4.048,4.048,0,0,0,194.7,246.4a2.853,2.853,0,0,0-1.518-2.4,4.384,4.384,0,0,0-2.411-.682,2.406,2.406,0,0,0-1.619.481,4.6,4.6,0,0,0-.4.452,1.523,1.523,0,0,1-.562.516c-.376.134-.879-.249-1.078-.418a5.885,5.885,0,0,1-1.759-6,67.626,67.626,0,0,0,26.016,2.743,1.452,1.452,0,0,1,1.228.818,2.589,2.589,0,0,1,.068,1.449c-.482,2-2.442,3.545-3.438,3.484-.161-.008-.587-.03-.7-.889a1.606,1.606,0,0,0-1.059-1.293,5.229,5.229,0,0,0-4.366.752,4.237,4.237,0,0,0-1.5,4.644,3.732,3.732,0,0,0,.46.792,1.638,1.638,0,0,1,.388.8c.025,2.53-2.449,3.482-4.437,4.247-.532.2-1.006.387-1.4.584C195.252,255.555,191.482,252.7,192.466,250.217Zm13.984,4.726a8.271,8.271,0,0,1-1.141,1.168,5.983,5.983,0,0,1-3.417,1.052,12.152,12.152,0,0,0,3.823-3.905,8.519,8.519,0,0,0,.634-1.458,5.734,5.734,0,0,1,.849-1.742,4.543,4.543,0,0,1,2.252-1.037c.3-.078.589-.156.874-.248a8.267,8.267,0,0,0,3.156-1.9,4.743,4.743,0,0,0,3.413-3.313,12.819,12.819,0,0,0,.232-5.024,11.255,11.255,0,0,1,.259-4.61,5.361,5.361,0,0,1,1.732-2.4l.234.316c.678.911,1.354,1.819,1.918,2.588a11.927,11.927,0,0,0,1.049,4.047A28.561,28.561,0,0,1,220.642,246a9.49,9.49,0,0,1-5.114,5.392,15.277,15.277,0,0,1-3.019.659,7.366,7.366,0,0,0-6.059,2.893Zm-49.571-18.758a5.05,5.05,0,0,0,.193,1.374c-.412.063-.822.131-1.233.2ZM215.986,225.3a12.291,12.291,0,0,1-1.315,3.2c-.637.719-1.321,1.452-2.049,2.185a4.5,4.5,0,0,1-3.313.691,7.866,7.866,0,0,1-2.217-1.023,7.88,7.88,0,0,0-7.276-.883l-.329.065a14.406,14.406,0,0,1-6,.219,5.614,5.614,0,0,1-4.21-3.507l-.088-.3c-.223-.789-.5-1.771-1.465-2.017a2.486,2.486,0,0,0-2.191.92c-.172.153-.32.276-.458.383a11.951,11.951,0,0,1-.906-2.8,19.614,19.614,0,0,1,2.425-6.121,36.147,36.147,0,0,1,2.6-3.774c12.287-4.98,22.4.386,27.395,4.436A21.9,21.9,0,0,1,215.986,225.3ZM156.374,246a15.249,15.249,0,0,1-.725-7.952l.039-.06,1.4-.347c.015.048.017.1.034.147a.5.5,0,0,0,.427.334.513.513,0,0,0,.48-.253,11.717,11.717,0,0,1,3.041-3.5,11.289,11.289,0,0,0-.831,6.19,27.019,27.019,0,0,0-1.4,3.943.5.5,0,0,0,.126.478.5.5,0,0,0,.476.136l2.658-.644a7.919,7.919,0,0,0-.834,1.378C159.636,245.83,158,245.884,156.374,246Zm22.554-7.011a2.04,2.04,0,0,1,1.884.923c.037.072.071.149.1.226a1.65,1.65,0,0,0,.777.952,1.094,1.094,0,0,0,.35.089,8.986,8.986,0,0,0,.875,2.07,11.254,11.254,0,0,0,2.978,3.2c1.479,1.19,2.646,2.13,2.621,4.646a5.721,5.721,0,0,0,1.536,3.638c-.172,0-.344-.013-.516-.016a12.711,12.711,0,0,1-1.937-.127,6.368,6.368,0,0,1-5.039-4.931c-.031-.165-.056-.333-.083-.5a4.512,4.512,0,0,0-.559-1.835,4.444,4.444,0,0,0-2.308-1.563,5.329,5.329,0,0,1-1.6-.855,3.229,3.229,0,0,1-.622-3.335A8.348,8.348,0,0,1,178.928,238.985Zm67.556-1.421.028-.128a15.773,15.773,0,0,1,1.459-4.428l3.235,2.637.621,1.337c-1.8.206-3.6.453-5.383.758C246.457,237.681,246.471,237.622,246.484,237.564Zm-89.794,9.252q2.145-.177,4.279-.236a8.553,8.553,0,0,0-.472,2.015,10.873,10.873,0,0,0,.159,3.164,2.554,2.554,0,0,1-.654.179c-.054.007-.112,0-.167,0A20.578,20.578,0,0,1,156.69,246.816Zm33,21.6a11.018,11.018,0,0,0,6.727-3.566,7.785,7.785,0,0,0,.686-.981c.123.1.247.192.372.28,2.274,1.6,5.1,2.148,7.594,2.629l8.467,1.634a12.228,12.228,0,0,0,2.187.246,24.248,24.248,0,0,1-29.64-.026A18.734,18.734,0,0,0,189.691,268.411Zm56.583-29.921q2.967-.393,5.933-.685a5.211,5.211,0,0,1,.509,1.574,1.687,1.687,0,0,1-.489,1.466.955.955,0,0,1-.709.18.629.629,0,0,1-.426-.243.5.5,0,0,0-.912.329c.024.23.047.465.07.7-1.322.094-2.644.229-3.963.427,1.337-.043,2.67-.046,4-.03.044.473.081.954.106,1.439-1.8-.524-3.617-.97-5.459-1.314A15.029,15.029,0,0,0,246.274,238.49Zm20.551-32.724c-4.324,3.808-8.846,5.366-13.8,4.766a.494.494,0,0,0-.506.27.5.5,0,0,0,.079.567c.149.16.291.334.435.507a8.974,8.974,0,0,0,.662.744,66.2,66.2,0,0,1-14.322-.43.5.5,0,0,0-.251.956,6.681,6.681,0,0,1,2.619,2.022c-4.7.133-7.784-1.243-11.962-3.912a.5.5,0,0,0-.706.665l.419.749c2.066,3.684,4.028,7.181,3.657,10.793a47.432,47.432,0,0,1-4.308-6.577,31.866,31.866,0,0,0-5.974-8.186,3.46,3.46,0,0,1,3.356-.055.5.5,0,0,0,.726-.585l-.878-2.752c7.04,4.119,14.92,5.906,21.827,4.916,7.1-1.021,14.216-5.208,20.027-11.791a24.261,24.261,0,0,0,3.857-5.736c.356.213.71.429,1.058.644.158.1.321.2.482.295A20.14,20.14,0,0,1,266.825,205.766Zm-7.78-21.514a9.107,9.107,0,0,1,2.044,8.958c-.853,2.987-2.59,4.663-5.5,6.712a28.9,28.9,0,0,1-7.66,3.331c-.632.207-1.258.412-1.868.622a.5.5,0,0,0,.024.953,5.924,5.924,0,0,0,1.629.2,18.121,18.121,0,0,0,4.889-.876,36.465,36.465,0,0,0,7.252-3.208,21.486,21.486,0,0,1-4.255,3.31,24.739,24.739,0,0,1-16.68,3.007,20.286,20.286,0,0,1-12.705-9.236,20.342,20.342,0,0,0,8.5,4.886.5.5,0,0,0,.485-.84,26.843,26.843,0,0,1-5.487-6.633,8.644,8.644,0,0,1-.371-7.989c1.373-2.53,4.281-3.825,6.66-4.67a45.515,45.515,0,0,1,6.491-1.77,3.953,3.953,0,0,0-.523,1.189.5.5,0,0,0,.589.608,4.183,4.183,0,0,1,2.311-.024,1.281,1.281,0,0,1-.159,2.546,5.555,5.555,0,0,1-2.368-.167.5.5,0,0,0-.388.077.493.493,0,0,0-.211.335,21.562,21.562,0,0,0,2.135,13.141.5.5,0,0,0,.405.269l.039,0a.5.5,0,0,0,.4-.2,28.978,28.978,0,0,0,5.216-12.28c.482-2.84.064-4.921-1.228-6.2,1.463.264,2.964.608,4.465,1.032A13.571,13.571,0,0,1,259.045,184.252Zm-114.787,7.993a47.676,47.676,0,0,1,6.56,2.809c.8.386,1.6.773,2.381,1.134a27.14,27.14,0,0,0-6.647,3.356.5.5,0,0,0,.361.906,19.94,19.94,0,0,1,5.547-.074c-.149.175-.288.36-.427.543a3.463,3.463,0,0,1-.994,1.025.5.5,0,0,0,.012.908c2.86,1.27,5.816,1.239,8.68,1.207a32.836,32.836,0,0,1,5.027.205,21.248,21.248,0,0,0-4.7,2.64.5.5,0,0,0,.3.9h.014c1-.027,21.525-.652,29.281-6.695a12.987,12.987,0,0,1-.756,6.879c-4.181,2.217-8.324,5.1-10.139,8.431a29.656,29.656,0,0,1-5.814,6.984,3.868,3.868,0,0,1,.433-1.188,39.947,39.947,0,0,0,2.353-5.627,26.922,26.922,0,0,1,3.6-7.508.5.5,0,0,0-.618-.755c-4.033,2-13.381,2.785-25.777,2.179l.36-.241c.67-.447,1.3-.87,1.6-1.1a.5.5,0,0,0,.165-.563.512.512,0,0,0-.485-.332c-4.391.1-11.87-3.822-14.986-5.777,1.083-1.788,3.921-5.144,7.544-5.769a.5.5,0,0,0,.085-.963c-4.307-1.555-8.032-2.782-12.081-3.979A23.391,23.391,0,0,1,144.258,192.245Zm91.7,60.1a2.636,2.636,0,0,0,.2-.849l.828.409c.586.275,1.142.575,1.7.871-.95-.1-1.9-.181-2.856-.241C235.873,252.464,235.925,252.41,235.957,252.34Zm1.642-1.294c-.448-.219-.944-.457-1.467-.7,0-.028,0-.057-.007-.085a5.443,5.443,0,0,1-.039-1.115,3.276,3.276,0,0,1,1.776-2.361,10.842,10.842,0,0,1,3.218-1,.5.5,0,0,0,.362-.3,6.38,6.38,0,0,0,3.121-2.514q2.972.739,5.86,1.7a11.55,11.55,0,0,1-.559,3.905,11.918,11.918,0,0,1-4.23,5.313c-1.386-.291-2.776-.556-4.174-.766A43.4,43.4,0,0,0,237.6,251.046ZM147.506,181.89c.039-.007.077-.016.116-.022C147.583,181.874,147.545,181.883,147.506,181.89Zm85.811,75.94c-.1-.171-.213-.336-.32-.5a2.717,2.717,0,0,1-.682-1.644c.08-.682.777-1.074,1.583-1.528a7.006,7.006,0,0,0,1.462-1.018c1.819.22,3.628.483,5.423.8.843.5,1.652,1.039,2.442,1.589-.351.217-.7.429-1.05.633a14.88,14.88,0,0,1-5.393,2.2A6.043,6.043,0,0,1,233.317,257.83Zm10.281-3.344c.31.064.616.143.925.21-.11.075-.222.144-.333.217C243.99,254.773,243.8,254.624,243.6,254.486Zm-64.675-78.819a15.006,15.006,0,0,0-1.49-.662A15.006,15.006,0,0,1,178.923,175.667ZM127.412,188.1l-1.286.789Zm17.6,51.732c-1.333-2.506-2.539-5.4-1.981-8.236a.5.5,0,0,0-.714-.544l-2.142,1.073a10.8,10.8,0,0,1,1.485-3.617.5.5,0,0,0-.285-.753,14.6,14.6,0,0,0-5.633-.432,11.051,11.051,0,0,1,5.157-2.585l-.319.355a.5.5,0,0,0,.236.816,25.829,25.829,0,0,0,4.684.847,7.924,7.924,0,0,0,2.647,1.848,30.355,30.355,0,0,0,.268,9.851c-.675.348-1.348.7-2.014,1.063C145.933,239.62,145.471,239.732,145.008,239.835Zm114.385,2.913c13.054,1.4,25.7,5.383,37.745,10.83.369.175.733.36,1.1.538a.476.476,0,0,0-.006.066.5.5,0,0,0,.41.453l1.03.183c.508.256,1.012.52,1.516.782a82.492,82.492,0,0,1-18.038,5.867q-4-2.922-8.117-5.662a108.967,108.967,0,0,0-16.409-9.15A18.525,18.525,0,0,0,259.393,242.748Zm56.636,2.911c-4.99,3.529-10.656,5.662-16.989,7.847a111.166,111.166,0,0,0-17.62-7.034,108.355,108.355,0,0,0-21.977-4.58,17.883,17.883,0,0,0-.147-3.2,5.507,5.507,0,0,0,2.948-.739.5.5,0,0,0,.165-.712l-.064-.095c.389-.014.778-.013,1.167-.024a25.668,25.668,0,0,0,3.116.2,22.615,22.615,0,0,0,3.2-.25c2.534.027,5.069.093,7.605.238,13.687,1.082,27.144,3.783,40.515,6.875C317.335,244.692,316.7,245.186,316.029,245.659Zm-174.54-6.048a.341.341,0,0,1,.331.01,1.341,1.341,0,0,1,.4.492l.192.314c-.6.143-1.191.3-1.786.445A2.077,2.077,0,0,1,141.489,239.611Zm5.074,7.631c-.257.045-.514.087-.771.133A110.014,110.014,0,0,0,130.015,252a114.5,114.5,0,0,1,13.562-9.659Zm-.786-6-.084-.153c.675-.386,1.353-.768,2.038-1.139l.929-.23a29.847,29.847,0,0,0,1.475,4.565q.476,1.14,1.043,2.236c-.93.124-1.858.257-2.783.406A27.908,27.908,0,0,0,145.777,241.246Zm109.776,11.311a17.929,17.929,0,0,0,2.729-4.843A128.936,128.936,0,0,1,281.915,261.7a82.089,82.089,0,0,1-10.807,1.281A93.6,93.6,0,0,0,262.32,259c-3.241-1.26-6.547-2.416-9.9-3.4A17.768,17.768,0,0,0,255.553,252.557ZM137.922,242.525l.011.479a.5.5,0,0,0,.456.487c.843.077,1.487-.475,1.926-1.617q1.281-.343,2.568-.676l.152.25a113.049,113.049,0,0,0-10.579,7.192q-2.8,2.193-5.495,4.52c-.664.267-1.321.551-1.98.828a15.736,15.736,0,0,1-1.492-1.112,11.509,11.509,0,0,1-3.3-4.632C126.057,246.005,131.958,244.171,137.922,242.525Zm112.754,14.256c.215-.129.438-.244.648-.382a117.721,117.721,0,0,1,17.558,6.669c-.246.006-.491.018-.736.021a.5.5,0,0,0-.257.925l3.528,2.193a24.843,24.843,0,0,1-11.334-1.351.5.5,0,0,0-.594.738,24.2,24.2,0,0,0,6.207,6.559l.066.756a11.332,11.332,0,0,0-5.877-.24,64.436,64.436,0,0,0-11.551-14.439A21.3,21.3,0,0,0,250.676,256.781ZM143.4,268.6l-.121-.1Zm10.283,11.446a12.116,12.116,0,0,0,8.814,3.829,10.785,10.785,0,0,0,1.952-.175.5.5,0,0,0,.04-.975c-6.53-1.763-11.686-6.666-16.67-11.407l-.439-.419c-.816-.775-1.644-1.547-2.485-2.307a64.958,64.958,0,0,1,13.368-13.12,29.645,29.645,0,0,0,4.454,3.209c.075.045.143.075.216.113,4.2,3.586,10.533,8.757,16.465,11.238a62.377,62.377,0,0,0,5.961,3.226c.58.28,1.165.551,1.749.825.448.3.9.609,1.346.909,2.765,1.855,5.624,3.775,8.952,4.66.2.052.4.091.6.136.045.03.093.056.138.086a.5.5,0,0,0,.28.085h.006c.128,0,.258,0,.387-.007a18.6,18.6,0,0,0,3.195.271,30.339,30.339,0,0,0,6.741-.858,21.159,21.159,0,0,0,2.108-.594,31.6,31.6,0,0,0,4.329-1.294c.406-.156.791-.341,1.184-.515a11.824,11.824,0,0,0,4.479-2.536,20.614,20.614,0,0,0,6.013-6.6,5.42,5.42,0,0,1,.856-.5c4.948-2.257,9.027-4.435,11.189-5.631l.065-.019c1.165-.336,2.33-.672,3.483-1.039a38.13,38.13,0,0,0,4.854-1.881,63.812,63.812,0,0,1,11.5,14.094l-.246.042-.4.069c-2.271.4-5.508.7-7.386-1.189a.5.5,0,0,0-.828.513l.535,1.576a77.322,77.322,0,0,1-24.581,2.251.5.5,0,0,0-.276.937,31.369,31.369,0,0,0,20.642,3.283.5.5,0,0,0,.2-.9l-1.527-1.081a32.517,32.517,0,0,1,17.155,3.376.5.5,0,0,0,.535-.052.5.5,0,0,0,.179-.507,9.589,9.589,0,0,0-1.216-2.918c.2.085.394.191.594.28,1.107,1.952,2.2,3.94,3.291,5.955,3.768,7.147,7.436,14.349,11.071,21.565a215.013,215.013,0,0,0-9.923-21.383c-.98-1.828-1.956-3.641-2.944-5.432a33.191,33.191,0,0,1,7.305,4.986.5.5,0,0,0,.836-.379,38.939,38.939,0,0,0-.813-8.721,24.939,24.939,0,0,0,9.461,1.9,23.454,23.454,0,0,0,2.824-.17.5.5,0,0,0,.214-.914,11.113,11.113,0,0,1-3.609-3.915c1.138-.168,2.274-.359,3.408-.563a232.918,232.918,0,0,1,20.708,15.93c4.129,3.5,8.87,7.6,12.567,10.922-4.039-4.161-8.232-8.178-12.617-11.974a242.361,242.361,0,0,0-19.29-15.135q3.7-.714,7.356-1.684c3.554,2.883,7.043,5.833,10.481,8.776,1.645,1.407,3.675,3.223,5.064,4.45q-2.256-2.382-4.612-4.668-4.758-4.608-9.859-8.847A112.026,112.026,0,0,0,312.294,262c5.4,3.406,10.646,7.106,15.816,10.942a34.536,34.536,0,0,0-8.534-1.129h0a.5.5,0,0,0-.44.737l2.185,4.051a6.9,6.9,0,0,0-6.8.81.5.5,0,0,0,.261.9,66.236,66.236,0,0,1,15.668,3.076.5.5,0,0,0,.591-.72,21.533,21.533,0,0,0-3.39-4.536,57.264,57.264,0,0,1,9.465,3.64c.184.142.368.282.551.424,5.373,4.246,10.755,8.48,16.087,12.777-3.014-2.919-8.433-7.627-13.05-11.351a168.411,168.411,0,0,1,16.912,11.095.5.5,0,0,0,.6-.017.5.5,0,0,0,.144-.589,64.677,64.677,0,0,0-17.71-23.654.5.5,0,0,0-.813.471l1.179,6.645a30.737,30.737,0,0,0-13.273-6.054.5.5,0,0,0-.491.794l1.678,2.2c-5.117-3.834-10.347-7.537-15.735-10.964,3.192-1.589,6.3-3.323,9.314-5.207a.5.5,0,0,0-.265-.924h0l-6.044.028a18.554,18.554,0,0,0,8.162-8.647c.16-.327.3-.666.448-1,5.223,1.249,10.436,2.525,15.649,3.757l.236.054a13.223,13.223,0,0,0,1.912,1.006,30.819,30.819,0,0,1,11.079,7.766.5.5,0,0,0,.852-.47l-1-3.575,9.691,6.613a.506.506,0,0,0,.282.087.5.5,0,0,0,.437-.743,59.21,59.21,0,0,0-16.093-18.429.5.5,0,0,0-.74.637,31.337,31.337,0,0,1,3,8.03,20.124,20.124,0,0,0-7.076-5.592,53.876,53.876,0,0,0-10.914-3.577.5.5,0,0,0-.451.862c.626.545,1.248,1.1,1.866,1.645,1.969,1.745,3.871,3.426,5.663,4.734q-6.976-1.972-14.027-3.679a28.465,28.465,0,0,0,1.384-4.736c.032-.137.074-.271.1-.407l1.26,1.026a.505.505,0,0,0,.558.049.5.5,0,0,0,.254-.5,42.64,42.64,0,0,1,.128-11.138.449.449,0,0,0,.041-.046,9.651,9.651,0,0,1,8.952-4.353l-.964,1a.5.5,0,0,0-.1.553.461.461,0,0,0,.479.294,18.663,18.663,0,0,1,11.433,3.321.5.5,0,0,0,.679-.719l-3.6-4.606a13.6,13.6,0,0,1,4.99,1.445c10.341,10,18.643,23.059,24.749,39l-3.678-1.835a.5.5,0,0,0-.577.8c6.025,6.007,12.8,12.758,16.859,20.535l-1.876-1.38a.5.5,0,0,0-.724.661,71.788,71.788,0,0,1,10.275,35.089l-1.234-2.06a.494.494,0,0,0-.539-.231.5.5,0,0,0-.388.44,74.6,74.6,0,0,0,5.177,35.217l-3.642-3.578a.5.5,0,0,0-.846.42c.29,2.283.669,4.583,1.125,6.882h-5.34c-.729-16.7-1.5-33.939-7.681-49.862l2.675,1.232a.5.5,0,0,0,.649-.691L371.418,280a40.567,40.567,0,0,0-6.706-8.416.5.5,0,0,0-.8.569l2.127,4.611-6.839-6.444a.5.5,0,0,0-.76.64,214.443,214.443,0,0,1,16.49,29.734l-3.378-1.4a.5.5,0,0,0-.634.7l6,11.371a7.143,7.143,0,0,0,.411,5.492l-1.806-.689a.5.5,0,0,0-.648.635,71.433,71.433,0,0,1,4.092,20.841,8.656,8.656,0,0,0-4.579-2.539.5.5,0,0,0-.574.636,185.029,185.029,0,0,1,4.93,20.336H336.513c3.6-5.119,6.432-10.582,6.261-16.368-.194-6.589-.513-7.71-1.211-10.165-.173-.611-.37-1.3-.6-2.194a.5.5,0,0,0-.98.188c1.236,9.395-1.867,18.116-4.825,23.957a15.767,15.767,0,0,0-7.485-3.609.5.5,0,0,0-.524.739,27.954,27.954,0,0,1,2.977,7.452h-4.345a18.716,18.716,0,0,0-.924-6.429l0,0c-2.413-6.905-8.874-10.749-13.525-13.04a173.469,173.469,0,0,0-17.227-7.017,52.926,52.926,0,0,0-11.635-3.043,21.52,21.52,0,0,0,5.271-9.229,33.613,33.613,0,0,0,14.971-3.612.5.5,0,0,0,.028-.877l-2.708-1.6a63.89,63.89,0,0,0,18.3-5.656.5.5,0,0,0,.264-.583.5.5,0,0,0-.524-.365,117.657,117.657,0,0,1-20.19-.026.5.5,0,0,0-.472.239,26.638,26.638,0,0,1-4.833,5.886l-1.313-2.4a.5.5,0,0,0-.817-.087,53.851,53.851,0,0,1-6.757,6.587,8.324,8.324,0,0,0,.572-4.533l-.491.087h0l.476-.175-.179-1.012a.5.5,0,0,0-.46-.412.525.525,0,0,0-.51.35A52.063,52.063,0,0,1,273,327.292a25.87,25.87,0,0,0-9.792,5.918c-1.212,1.033-2.326,1.952-3.352,2.8-5.418,4.47-8.4,6.933-10.267,13.318a16.2,16.2,0,0,0-.788,6.743H214.194a32.066,32.066,0,0,0,4.658-5.745l-.154,3.326a.5.5,0,0,0,.859.37,17.741,17.741,0,0,1,6.069-4.108l-1.915,4.588a.5.5,0,0,0,.687.639c11-5.566,24.7-12.492,31.964-24.578a.5.5,0,0,0-.67-.7l-25.83,14.2.266-2.969a.5.5,0,0,0-.828-.42l-3.8,3.336a3.565,3.565,0,0,0-.584-1.722.5.5,0,0,0-.687-.141l-13.3,8.613-2.191-8.8a.5.5,0,0,0-.985.122,17.231,17.231,0,0,1-1.568,7.231,6.255,6.255,0,0,0-1.159-2.88.5.5,0,0,0-.907.265,18.656,18.656,0,0,1-2.362,8.244.5.5,0,0,0,.545.733l3.046-.69c-.144.367-.318.725-.483,1.086h-44.78a21.4,21.4,0,0,0-.581-3.128,17.333,17.333,0,0,0-5.04-8.8c2.277-12.11,6.726-21.767,13.244-28.7a.5.5,0,0,0,.051-.62.494.494,0,0,0-.591-.19l-5.885,2.214,5.269-9.794,6.072,1.216a.5.5,0,0,0,.4-.892,82.565,82.565,0,0,1-15.941-15.551,26.868,26.868,0,0,1-5.8-8.134.493.493,0,0,0-.552-.281.5.5,0,0,0-.4.471l-.087,2.3a25.044,25.044,0,0,1-3.464-12.026,3.757,3.757,0,0,0-.1-.715A60.318,60.318,0,0,1,153.681,280.048Z"/></svg>