<svg id="e25509f5-d1ff-4404-a61c-d5eefcfc386f" data-name="Layer 2" xmlns="http://www.w3.org/2000/svg" viewBox="0 0 691.438 500.915" style="fill: #215342;" height="260" width="315"><path d="M378.563,176.254a4.789,4.789,0,0,1-3.814-3.568,5.077,5.077,0,0,1,2.274-5.144.5.5,0,0,0,.142-.664c-.971-1.634-3.071-4.4-6.231-4.59a6.612,6.612,0,0,0-6.407,5.024,10.731,10.731,0,0,0,1.419,8.177,11.315,11.315,0,0,0,3.631,3.976,7.549,7.549,0,0,0,4.017,1.218,6.188,6.188,0,0,0,1.322-.14,5.356,5.356,0,0,0,4.052-3.661.5.5,0,0,0-.062-.406A.5.5,0,0,0,378.563,176.254Z"/><path d="M293.563,193.658a4.786,4.786,0,0,1-3.814-3.567,5.077,5.077,0,0,1,2.274-5.144.5.5,0,0,0,.142-.664c-.971-1.634-3.071-4.4-6.231-4.59a6.606,6.606,0,0,0-6.407,5.024,10.731,10.731,0,0,0,1.419,8.177,11.315,11.315,0,0,0,3.631,3.976,7.549,7.549,0,0,0,4.017,1.218,6.125,6.125,0,0,0,1.322-.141,5.353,5.353,0,0,0,4.052-3.661.5.5,0,0,0-.405-.628Z"/><path d="M290.856,237.25a.5.5,0,0,0,.5-.449,26.448,26.448,0,0,1,8.8-17c1.305-1.14,1.253-3.1,1.211-4.672l-.012-.573a.5.5,0,0,0-.847-.353,8.694,8.694,0,0,1-1.911,1.389,6.66,6.66,0,0,0,.434-3.359.5.5,0,0,0-.9-.223,12.291,12.291,0,0,1-7.293,4.517,37.753,37.753,0,0,1-8.958.68.5.5,0,0,0-.319.886l6.042,4.958a21.268,21.268,0,0,1-14.856-1.747.5.5,0,0,0-.7.608,21.28,21.28,0,0,0,4.661,7.649c-.087-.06-.173-.123-.257-.189a.5.5,0,0,0-.73.661c1.356,2.144,3.69,3.807,6.939,4.941,1.409.492,2.869.858,4.281,1.211,1.245.312,2.533.635,3.764,1.04A.526.526,0,0,0,290.856,237.25Z"/><path d="M351.22,157.276a.5.5,0,0,0,.206.472.5.5,0,0,0,.513.04,7.908,7.908,0,0,0,3.233-11.151,15.136,15.136,0,0,0-1.388-1.855,14.484,14.484,0,0,1-1.293-1.721c-1.459-2.414-1.347-5.574-1.259-8.113a.5.5,0,0,0-.707-.473c-2.768,1.261-4.412,4.286-4.629,8.518a.5.5,0,0,0,.165.4A16.11,16.11,0,0,1,351.22,157.276Z"/><path d="M373.439,139.939a.5.5,0,0,0,.166-.572.491.491,0,0,0-.5-.324c-.135.008-.274,0-.43,0a10.218,10.218,0,0,0-3.964.7,11.918,11.918,0,0,0-4.805,3.023,2.049,2.049,0,0,0-.726,1.709,1.635,1.635,0,0,0,1.66,1.245h.027a2.352,2.352,0,0,0,.305-.026,12.139,12.139,0,0,0-1.179,3.535.5.5,0,0,0,.192.482.5.5,0,0,0,.3.1.5.5,0,0,0,.214-.048l5.046-2.386-.8,1.4a.5.5,0,0,0,.67.689,36.71,36.71,0,0,1,16.369-4.281.5.5,0,0,0,.211-.948,33.506,33.506,0,0,0-9.686-2.578l-4.4-.707Zm-4.57.272Z"/><path d="M276.377,160.553l.105,0a.455.455,0,0,1,.088.257.447.447,0,0,1-.107.366,2.321,2.321,0,0,1-1.454.279h-.289a7.894,7.894,0,0,0-5.826,2.708.5.5,0,0,0,.151.772,4.4,4.4,0,0,0,1.759.466,49.374,49.374,0,0,0-5.507,5.935.5.5,0,0,0,.609.76l1.891-.9-3.679,5.686a.5.5,0,0,0,.8.6c2.7-3.167,5.488-6.442,9-8.761,3.854-2.544,8.118-3.449,11.7-2.487a.5.5,0,0,0,.593-.293,1.14,1.14,0,0,0-.351-1.193,3.708,3.708,0,0,1-.3-.405h0a10.414,10.414,0,0,0-8.975-4.786.975.975,0,0,0-.354.025.5.5,0,0,0-.375.559A.48.48,0,0,0,276.377,160.553Zm.23-.5c-.086,0-.171-.009-.257,0C276.436,160.049,276.521,160.06,276.607,160.058Z"/><path d="M296.841,168.858a.5.5,0,0,0,.784-.591,14.784,14.784,0,0,1,1.419-15.089.5.5,0,0,0,.054-.511,8.435,8.435,0,0,0-4.886-4.548.5.5,0,0,0-.611.671c.55,1.305.406,2.922-.453,5.087-.14.352-.289.7-.438,1.056a13.364,13.364,0,0,0-1.293,4.437,9.075,9.075,0,0,0,1.669,5.408A22.909,22.909,0,0,0,296.841,168.858Z"/><path d="M351.308,111.18a19.617,19.617,0,0,0,3.42-.4,16.688,16.688,0,0,0,7.779-3.52,12.276,12.276,0,0,0,1.889,4.884.5.5,0,0,0,.515.214.5.5,0,0,0,.393-.4l.294-1.548,2.818,3.51a1.66,1.66,0,0,0,1.23.76,1.02,1.02,0,0,0,.311-.049c.646-.2.914-.93.7-1.9l-2.545-11.612c4.255-7.211,16.167-14.6,21.411-17.976,1.228-.767,2.583-1.576,3.772-2.273q-2.163,1.051-4.3,2.151c-7.229,3.744-14.693,7.839-19.569,14.564-.416.63-.848,1.3-1.253,1.995,4.986-10.9,17.2-19.926,26.116-26.169,1.64-1.117,3.514-2.32,5.1-3.291q-2.3,1.2-4.563,2.49c-9.923,5.637-22.841,14.674-27.214,26.2l-.475-2.169a.493.493,0,0,0-.337-.361c3.287-7.627,8.213-14.319,13.727-20.443a147.085,147.085,0,0,1,15.584-15.3c.845-.694,1.845-1.46,2.615-2.034-.956.6-1.893,1.227-2.815,1.877a100.829,100.829,0,0,0-16.264,14.845c-5.751,6.12-10.766,13.18-13.368,21.193l-.008.006-.692.8A55.512,55.512,0,0,1,372.1,76.594c3.618-6.914,8.273-13.359,12.775-19.591a.5.5,0,0,0-.74-.664A72.858,72.858,0,0,0,364.126,86.5c-.546,1.573-1.045,3.188-1.527,4.75a78.7,78.7,0,0,1-2.994,8.518c-2.175,4.938-5.049,8.462-8.543,10.475a.5.5,0,0,0,.246.933Z"/><path d="M306.075,248.062a.5.5,0,0,0,.484.372h.015a.5.5,0,0,0,.475-.4l.1-.517a.5.5,0,0,0,.214.058.478.478,0,0,0,.5-.364l.45-1.606a1.411,1.411,0,0,0,.219-.835.5.5,0,0,0-.981-.147l-.116.412-.015,0a.5.5,0,0,0-.358-.153h0a.5.5,0,0,0-.454.291.507.507,0,0,0-.143.152,3.542,3.542,0,0,0-.492,2.113c-.059.031-.119.059-.177.092.06-.03.119-.053.178-.082A3.529,3.529,0,0,0,306.075,248.062Z"/><path d="M314.342,240.659a.5.5,0,0,0-.61.1.493.493,0,0,0-.255.192l-.657.955a.5.5,0,0,0,.8.6l.4-.5c.308-.062.44-.43.55-.735A.5.5,0,0,0,314.342,240.659Z"/><path d="M313.256,255.457a.566.566,0,0,0,.044-.295.739.739,0,0,0-.279-.455.5.5,0,0,0-.779.423v.06a9.106,9.106,0,0,1-.681.71.462.462,0,0,0-.218.018.5.5,0,0,0-.353.486v.038c-.163.151-.344.319-.549.506a.5.5,0,0,0-.1.607l.756,1.4a.5.5,0,0,0,.939-.248l-.013-.638a.655.655,0,0,0,.524.215.745.745,0,0,0,.675-.573l.017-.007a.5.5,0,0,0,.311-.615A7.12,7.12,0,0,1,313.256,255.457Z"/><path d="M316.8,249.472l-.235,1.325a.5.5,0,0,0,.329.559.488.488,0,0,0,.164.028.5.5,0,0,0,.439-.262,2.554,2.554,0,0,0,.278-.835.836.836,0,0,0,.049-.346h.006l-.009-.07c0-.11-.018-.231-.032-.363a.5.5,0,0,0-.479-.447A.486.486,0,0,0,316.8,249.472Z"/><path d="M378.72,244.183a.5.5,0,0,0,.353.11l.172,1.313a.5.5,0,0,0,.487.435h.009a.5.5,0,0,0,.493-.417l.1-.586a.5.5,0,0,0,.968-.247l-.585-3.038a.5.5,0,0,0-.305-.369.5.5,0,0,0-.475.056,13.7,13.7,0,0,1-1.267.826.5.5,0,0,0-.409-.17.5.5,0,0,0-.465.455.8.8,0,0,0,.177.656A2.669,2.669,0,0,0,378.72,244.183Z"/><path d="M372.8,241.149a.5.5,0,0,0,.436.254.47.47,0,0,0,.122-.016.5.5,0,0,0,.378-.474v-.121a.726.726,0,0,0,.8-.213.5.5,0,0,0-.055-.7l-.206-.181-.008-.033c-.086-.328-.293-.5-2-1.3a.5.5,0,0,0-.65.7Z"/><path d="M383.986,232.625c-.425,0-.722,0-.929-.014a3.684,3.684,0,0,1-.509-.248.5.5,0,0,0-.517.152.588.588,0,0,0-.137.667.556.556,0,0,0,.081.133l.166,1.085a.5.5,0,0,0,.229.348l.116,1.242a.5.5,0,0,0,.489.454h.009a.5.5,0,0,0,.5-.435l.062-.475a6.377,6.377,0,0,0,.37.62.5.5,0,0,0,.91-.341l-.338-2.749a.49.49,0,0,0-.22-.347l-.227-.083a.421.421,0,0,0-.049-.009Z"/><path d="M367.752,229.133a.5.5,0,0,0,.07.558l1.54,1.752a.5.5,0,0,0,.375.17.482.482,0,0,0,.125-.016.5.5,0,0,0,.364-.377,2.9,2.9,0,0,0,.058-.4l.008,0a.5.5,0,0,0,.689-.535c-.08-.53-.3-.892-1.086-1.136-.021-.035-.041-.069-.064-.1a.5.5,0,0,0-.66-.166.488.488,0,0,0-.111.083c-.241-.038-.51-.071-.815-.1A.491.491,0,0,0,367.752,229.133Z"/><path d="M363.026,222.648l-.478-.245a.49.49,0,0,0-.4-.025.5.5,0,0,0-.494.074.5.5,0,0,0-.166.54l.309.985a1.973,1.973,0,0,0,.062.2.5.5,0,0,0,.947-.321l-.017-.052c.167.016.264-.068.379-.258a.535.535,0,0,0,.084-.244.612.612,0,0,0,.028-.079A.5.5,0,0,0,363.026,222.648Z"/><path d="M332.811,168.636a.5.5,0,0,0,.156.5.5.5,0,0,0,.521.083l1.093-.462.421,1.71a.5.5,0,0,0,.408.375.519.519,0,0,0,.077.006.5.5,0,0,0,.427-.24c3.366-5.5,4.107-12.865,2.03-20.193l-.12-.417a11.354,11.354,0,0,1-.493-2.268,11.226,11.226,0,0,1,.915-4.468,17.6,17.6,0,0,0,.933-3.422.5.5,0,0,0-.83-.438,18.236,18.236,0,0,0-4.979,7.425l-.345-3.546c-.08-.82-.508-1.028-.757-1.079s-.731-.031-1.115.683c-2.394,4.428-2.456,8.462-.19,12.335A17.829,17.829,0,0,1,332.811,168.636Z"/><path d="M309.168,159.686a.5.5,0,0,0,.446-.4l.105-.52a8.735,8.735,0,0,1,.723,7.006.5.5,0,0,0,.586.647c.772-.178,1.053-.926,1.28-1.527.186-.5.324-.821.528-.829h.007c.128,0,.287.155.349.342a2.361,2.361,0,0,1,.019.952l-.818,7.557a.5.5,0,0,0,.835.423,15.863,15.863,0,0,0,2.895-19.861c-.258-.431-.541-.861-.824-1.292-1.078-1.639-2.1-3.187-1.933-4.924.1-1.028-.443-1.243-.679-1.288s-.708-.02-1.063.695l-1.851,3.749c-.014-.069-.029-.137-.043-.2-.336-1.539-.633-2.991-1.9-2.778a.5.5,0,0,0-.408.411,21.734,21.734,0,0,0,1.237,11.526A.5.5,0,0,0,309.168,159.686Z"/><path d="M377.739,294.417a73,73,0,0,1-19.361,14.3,16.9,16.9,0,0,1-5.787,2.029,6.546,6.546,0,0,1-5.439-1.671.5.5,0,0,0-.554-.114.5.5,0,0,0-.306.478c.079,2.329,1.6,5.8,4.733,6.226a16.083,16.083,0,0,0,2.155.144c4.946,0,10.159-2.216,14.6-6.267,4.523-4.126,7.688-9.41,10.748-14.52a.5.5,0,0,0-.788-.6Z"/><path d="M325.7,239.729a7.248,7.248,0,0,1,1.234-.851A2.883,2.883,0,0,0,325.7,239.729Z"/><path d="M384.038,232.634l.227.083" fill="none" stroke="#000" stroke-linecap="round" stroke-linejoin="round" stroke-width="0"/><path d="M364.175,123.956a7.2,7.2,0,0,0,.451.943,2.655,2.655,0,0,0,2.988,1.275,1.928,1.928,0,0,0,1.176-1.285,10.409,10.409,0,0,0,4.383,2.565.492.492,0,0,0,.114.013.5.5,0,0,0,.357-.851,89.373,89.373,0,0,1-7.858-9.136.479.479,0,0,0-.406-.2.5.5,0,0,0-.4.21,7.465,7.465,0,0,1-3.253,2.569c-.081-.485-.151-.973-.22-1.464a27,27,0,0,0-.669-3.541.5.5,0,0,0-.44-.363.521.521,0,0,0-.5.287,14.256,14.256,0,0,1-6.37,6.618.5.5,0,0,0,.354.93l3.321-.857-2.172,2.606a.5.5,0,0,0,.557.789l6.056-2.232a2.292,2.292,0,0,1,1.6-.209C363.7,122.818,363.919,123.345,364.175,123.956Z"/><path d="M388.77,136.448a.5.5,0,0,0,.38.2.436.436,0,0,0,.394-.171,5.675,5.675,0,0,0,.834-1.268,8.074,8.074,0,0,0,1.764,2.405c.5.487,1.047.932,1.573,1.362a13.554,13.554,0,0,1,3.4,3.665c.359.514.729,1.046,1.137,1.547a6.1,6.1,0,0,0,3.89,2.474.412.412,0,0,0,.06,0,.5.5,0,0,0,.346-.862,27.343,27.343,0,0,1-8.032-15.122.5.5,0,0,0-.89-.221l-1.454,1.893a5.573,5.573,0,0,0-2.634-2.8.5.5,0,0,0-.717.38l-.2,1.438c-.547-.616-1.046-1.289-1.533-1.947a17.283,17.283,0,0,0-2.527-2.928.5.5,0,0,0-.8.541A32.789,32.789,0,0,0,388.77,136.448Z"/><path d="M247.137,179.849a.5.5,0,0,0,.842.466A6.762,6.762,0,0,0,249.8,174.8l1.07,1.056a.5.5,0,0,0,.833-.226l2.484-9.242a10.081,10.081,0,0,0,.464-3.944l2.2,1.7a.5.5,0,0,0,.74-.642,15.681,15.681,0,0,0-8.16-6.9.5.5,0,0,0-.669.424,12.125,12.125,0,0,0,.705,5.276l-.112-.051a.5.5,0,0,0-.7.551l.94,4.779a1.029,1.029,0,0,1,.022.5c-.021.039-.033.053-.093.055a1.373,1.373,0,0,1-.935-.644c-.44-.671-1.118-1.684-2.152-1.453a.5.5,0,0,0-.356.678A21.828,21.828,0,0,1,247.137,179.849Z"/><path d="M255.841,152.319a18.54,18.54,0,0,0,9.908-.119.5.5,0,0,0,.119-.908l-2.164-1.306a26.591,26.591,0,0,0,11.753-7.271.5.5,0,0,0-.476-.829,29.6,29.6,0,0,1-10.015.5.5.5,0,0,0-.378.882,8.071,8.071,0,0,0,2.184,1.285L257.8,149.6a.5.5,0,0,0,.13.923l.678.161a25.6,25.6,0,0,1-2.715.659l-.02,0a.5.5,0,0,0-.028.974Z"/><path d="M386.244,62.722c-4.18,4.4-8.083,9.305-10.218,15.041,2.452-4.916,5.968-8.69,9.74-12.7,6.871-7.5,14.426-13.093,22.617-18.9,1.226-.872,2.644-1.844,3.786-2.63q-1.611.89-3.2,1.809A92.172,92.172,0,0,0,386.244,62.722Z"/><path d="M399.214,45.377c.676-.664,1.544-1.465,2.134-2.019q-.988.736-1.952,1.5c-11.708,9.241-21.562,21.066-26.8,35.151C379.215,66.593,388.611,55.822,399.214,45.377Z"/><path d="M228.9,114.619c-1.619.037-3.554.115-5,.217,1.69.013,3.381.064,5.069.143,15.18.692,30.381,3.258,41.929,14.143C260.556,116.632,244.242,114.252,228.9,114.619Z"/><path d="M258.7,113.491a60.445,60.445,0,0,0-14.283-7.437c-11.116-3.723-23-4.28-34.637-4.375-1.244,0-2.657,0-3.8.021q2.442.169,4.881.374c9.145.865,17.391,1.342,25.871,3.149A82.649,82.649,0,0,1,258.7,113.491Z"/><path d="M241.156,104.186c-8.434-4.866-17.818-7.571-27.352-9.308-.323-.061-.718-.138-.975-.18q.7.2,1.407.409C223.285,97.9,232.241,101,241.156,104.186Z"/><path d="M199.006,89.87c-.875.082-1.957.184-2.711.27q1.437-.032,2.875-.043c5.992-.024,12,.093,17.967.624,3.657.45,7.591.726,11.054,2.656C219.746,87.883,208.6,89.165,199.006,89.87Z"/><path d="M659.812,353.135H488.037c-.708-8.231-3.986-17.04-10.659-22.948-6.1-5.4-15.48-8.377-22.525-9.321a53.276,53.276,0,0,0-1.04-5.6C451.286,305,445.5,295.745,439.9,286.8l-.627-1c1.825,1.464,3.682,2.973,5.448,4.434q-2.934-2.755-5.97-5.4c-.056-.048-.114-.094-.169-.142-6.138-9.856-12.135-20.087-13.29-31.582-.54-5.373-.775-9.92-1.019-14.709,3.172,1.4,6.32,2.876,9.452,4.489,1.2.634,2.437,1.323,3.575,2-1.121-.787-2.269-1.532-3.436-2.248a96.612,96.612,0,0,0-9.6-5.083c-.022-4.641,0-9.876.093-14.874,4.128.912,8.254,1.949,12.384,3,1.55.4,3.4.913,4.767,1.288q-2.255-.8-4.528-1.549c-4.145-1.352-8.353-2.572-12.608-3.584.127-6.657.362-12.8.734-16.427.222-2.159.484-4.321.747-6.485.39-3.223.777-6.492,1.037-9.777,2.431-7.656,2.413-16.583-.1-25.511-.546-1.937-1.2-3.87-1.838-5.738a81.639,81.639,0,0,1-2.395-7.922,40.536,40.536,0,0,1-.719-13.723,40.334,40.334,0,0,0,1.1-22.887c-.3-1.178-.654-2.371-1-3.523-.974-3.258-1.981-6.626-1.735-10.026a98.091,98.091,0,0,0,.258-57.125c-1.374-4.537-3.837-10.826-9.337-13.049a14.636,14.636,0,0,0-9.591-.009c-7.129,2.182-12.6,7.52-17.46,12.964a169.74,169.74,0,0,0-26.059,38.925c-.794,1.637-1.573,3.3-2.354,4.97-3.417,7.3-6.926,14.773-12.059,20.666l-14.457,3.184c-10.634,2.341-21.63,4.762-32.65,5.732l-.167.014a12.8,12.8,0,0,0-5.649,1.379,11.412,11.412,0,0,0-1.322.974c-5.088-1.928-12.648-5.073-16.055-7.9a244.848,244.848,0,0,0-50.586-32.871C218.7,75.756,214,73.659,209,72.975c-5.032-.685-8.794.246-12.574,3.117a12.514,12.514,0,0,0-4.937,11.764,19.02,19.02,0,0,0-.062,2.579c.243,4.743,2.062,9.3,3.749,13.19,1.96,4.528,4.135,9.057,6.237,13.436,4.391,9.146,8.932,18.6,11.726,28.493.541,1.915,1.035,3.9,1.512,5.824,1.713,6.889,3.485,14.013,7.838,19.715.716.939,1.5,1.839,2.267,2.709a28.451,28.451,0,0,1,3.7,4.887,30.219,30.219,0,0,1,2.619,8.633,38.469,38.469,0,0,0,1.842,6.92,5.9,5.9,0,0,0,1.139,2.376q.156.974.309,1.943c1.415,8.925,2.88,18.155,6.93,26.4a92.114,92.114,0,0,0,6.168,10.205c1.207,1.813,2.442,3.686,3.592,5.575,3.281,7.288,6.069,15.125,6.244,23.257a47.007,47.007,0,0,1-.843,9.5c-.106.14-.221.287-.323.423-1.048,1.374-2.159,2.887-3.1,4.236,1.072-1.3,2.165-2.576,3.266-3.849a136.086,136.086,0,0,1-3.828,14.067c-.318,1.022-.636,2.042-.947,3.061-1.871,6.122-3.729,12.957-3.837,19.911a64.653,64.653,0,0,0-1.79,14.969c-5.437,1.275-11.192,3.528-15.469,6.961-6.239,5.009-9.779,12.51-11.132,19.864H42.812a.5.5,0,0,0-.5.5v22.607a.5.5,0,0,0,.5.5h180.64c.216.318.421.642.654.949,3.326,4.3,9.109,5.252,14.368,4.316a15.105,15.105,0,0,0,8.425,4.28,4.012,4.012,0,0,0,.908.016,7,7,0,0,0,4.483-1.117c.291-.2.582-.406.866-.624a28.077,28.077,0,0,0,2.913,1.063c4.923,2.328,8.339.669,12.545-2.541a20.64,20.64,0,0,0,3.094-2.883c1.447.945,4.4,1.65,6.92,1.953,1.625,1.976,3.294,2.381,4.306-.054a10.19,10.19,0,0,0,2-.624c.225-.082.634-.277.924-.42l-.143.073a10.3,10.3,0,0,0,5.162-4.176c.04-.068.08-.142.121-.211H418.328c.171.088.34.177.514.258l-.143-.082c.289.16.7.379.922.473a10.347,10.347,0,0,0,2.008.73c.92,2.549,2.64,2.205,4.386.243,2.578-.2,5.623-.8,7.142-1.7a21.141,21.141,0,0,0,3.02,3.1c4.138,3.487,7.543,5.342,12.667,3.163a28.716,28.716,0,0,0,3.017-.966c.279.236.566.462.853.679a7.074,7.074,0,0,0,4.517,1.347,4.082,4.082,0,0,0,.927.022,15.4,15.4,0,0,0,8.781-4.034c5.062,1.137,10.682.527,14.3-3.229H659.812a.5.5,0,0,0,.5-.5V353.635A.5.5,0,0,0,659.812,353.135Zm-258.533-3.964c2.072,3.548,3.9,3.669,5.6,3.873l.723.091H304.959c1.789-5.848-4.334-14.325-5.423-15.665-5.472-6.844-17.914-11.564-27.663-10.748a138.787,138.787,0,0,0-15-1.711,36,36,0,0,0-4.068.163,163.137,163.137,0,0,1-.546-19.789,51.1,51.1,0,0,1,7.294-13.75,3.247,3.247,0,0,1,1.887-1.5,2.068,2.068,0,0,1,2,1.589,7.146,7.146,0,0,1-.051,3.206.5.5,0,0,0,.959.264l1.476-3.787a40.948,40.948,0,0,0,10.941,11c-.354,1.343-.7,2.743-.987,3.984.41-1.266.839-2.525,1.266-3.785a41.075,41.075,0,0,0,4.831,2.784.5.5,0,0,0,.594-.779c-1.517-1.72-2.935-3.515-4.273-5.365,1.336-3.822,2.705-7.6,4.149-11.326a28.715,28.715,0,0,0,5.347,2.057.491.491,0,0,0,.13.018.5.5,0,0,0,.325-.881c-1.579-1.347-3.12-2.732-4.638-4.139a167.727,167.727,0,0,1,11.61-23.832,32.823,32.823,0,0,0,7.278,4.749c-.632,2.153-1.22,4.321-1.785,6.494a24.065,24.065,0,0,0-4.217,2.681.5.5,0,0,0-.157.57.483.483,0,0,0,.5.321l3.01-.182q-.642,2.548-1.279,5.091c-3.073,12.829-6.123,25.68-8.4,38.679-.207,1.2-.475,2.712-.629,3.709q.461-1.86.918-3.722c3.64-14.519,6.541-29.3,10.316-43.813l1.992-.12-1.573,8.342c-.218,1.154.094,1.98.832,2.21a1.8,1.8,0,0,0,1.684-.623l4.211-3.945.173,3.065a.5.5,0,0,0,.743.408l4.383-2.448c-1.358,10.951-2.117,21.4-2.5,27.913a50.538,50.538,0,0,1-7.987-6.959.5.5,0,0,0-.742.67c.758.866,1.488,1.758,2.224,2.656a62.71,62.71,0,0,0,4.483,5.076c.6.6,1.222,1.174,1.848,1.743l0,.053c-.087,2.16-.174,4.763-.2,6.675.181-2.136.375-4.271.57-6.405a62.117,62.117,0,0,0,12.829,8.85.5.5,0,0,0,.653-.709l-.517-.828a44.224,44.224,0,0,0,23.969,7.026,42.033,42.033,0,0,0,11.349-1.536.5.5,0,0,0-.114-.981,73.163,73.163,0,0,1-41.761-15.375.5.5,0,0,0-.761.607,4.446,4.446,0,0,1,.239,3.1,50.624,50.624,0,0,1-5.586-3.319c.917-9.669,1.728-19.279,2.981-28.806l.19-.107c.472-.263,1.059-.542,1.426-.331.4.227.417.943.4,1.6a17.387,17.387,0,0,0,2.636,9.485.5.5,0,0,0,.911-.159l1.449-6.621c.1-.476.3-1.054.633-1.1.262-.039.584.263.861.563l4.816,5.211a.5.5,0,0,0,.865-.3l.312-3.97a50.46,50.46,0,0,0,16.321,4.553.5.5,0,0,0,.479-.236.5.5,0,0,0-.008-.534,12.971,12.971,0,0,1-2.05-5.964,1.864,1.864,0,0,1,.124-1.069c.338-.561,1.278-.54,2.219-.47a17.292,17.292,0,0,0,13.729-5.435.5.5,0,0,0-.569-.8,48.9,48.9,0,0,1-43.6-2.16c.062-.382.132-.763.2-1.145a33.185,33.185,0,0,0,4.3,1.716,12.106,12.106,0,0,0,3.607.665,5.512,5.512,0,0,0,2.718-.648.5.5,0,0,0,0-.871c-1.794-1.023-3.472-2.2-3.6-3.91-.094-1.226.663-2.39,1.516-3.572a88.9,88.9,0,0,1,10.161-12.4l.6-.57a36,36,0,0,0,2.8-2.888,10.617,10.617,0,0,1,4.907-1.768,15.369,15.369,0,0,1,6.759,1.147c1.324.5,2.639,1.1,3.909,1.689s2.6,1.2,3.945,1.705a29.473,29.473,0,0,0,10.347,1.867c.277,0,.554-.022.831-.03.3.032.593.053.891.073a2.381,2.381,0,0,1,1.467,1.059,2.955,2.955,0,0,1-.052,2.015,14.246,14.246,0,0,1-4.813,7.182.5.5,0,0,0,.4.885,19.421,19.421,0,0,0,15.5-14.333c.348-.226.687-.463,1.02-.709,2.027.765,4.032,1.578,6.018,2.4a24.325,24.325,0,0,1-5.059,8.766A71.291,71.291,0,0,1,375,270.519a.5.5,0,0,0,.319.884h.022c4.22-.179,7.98-2.583,10.442-4.375a72.88,72.88,0,0,0,10.684-9.8c.509.244,1.022.474,1.529.724,3.343,3.972,6.281,7.7,8.553,10.316,1.209,1.486,2.5,3.1,3.643,4.533q-1.648-2.486-3.378-4.916-3.26-4.593-6.839-8.945,2.716,1.4,5.389,2.917c-.258.3-.507.612-.771.91a.5.5,0,0,0,.47.823,11.725,11.725,0,0,0,2.16-.66c3.58,2.093,7.1,4.33,10.557,6.671l.246,1.024a52.956,52.956,0,0,1-1.4,7.5c-1.654,6.056-8.376,17.464-11.987,23.593-.656,1.113-1.22,2.071-1.651,2.819a.5.5,0,0,0,.117.636.5.5,0,0,0,.647-.011A83.466,83.466,0,0,0,417.972,289l-.372,7.822a.5.5,0,0,0,.9.328,60.649,60.649,0,0,0,7.517-12.832l2.711,4.6a.5.5,0,0,0,.914-.127,15.988,15.988,0,0,0,.2-7.2l4.077,4.521c.081.135.162.274.243.409,4.711,7.9,9.583,16.059,12.271,24.946a64.187,64.187,0,0,1,1.994,9.1c-3.851.132-9.359.62-12.981,1.075-9.9-1.267-22.792,3.044-28.681,9.846C405.467,332.949,397.524,343.1,401.279,349.171Zm-86.932-75.459c-1.176-.691-2.334-1.413-3.451-2.2a5.96,5.96,0,0,0-5.546-.9,24.142,24.142,0,0,0-3.655,1.27q.759-2.781,1.57-5.547c.6.3,1.2.588,1.78.869a11.232,11.232,0,0,0,3.382,1.254,31.473,31.473,0,0,0,6.095,4.154Q314.434,273.158,314.347,273.712Zm85.58-32.649a55.092,55.092,0,0,0-8.934-6.419,20.825,20.825,0,0,0-1.8-8.172q3.374.838,6.711,1.8c-.226.227-.45.456-.687.674a.5.5,0,0,0,.473.85l.655-.184-2.32,5.664a.5.5,0,0,0,.713.621,26.236,26.236,0,0,0,6.939-5.892c.338.106.68.208,1.018.315,2.119.676,4.206,1.378,6.278,2.1-.143.223-.281.451-.428.672a23.972,23.972,0,0,1-8.479,8.093Zm-134.21,3.062a.5.5,0,0,0-.937.219,12.927,12.927,0,0,0,1.368,6.223,22.247,22.247,0,0,0,5.017,6.45c-2.317,2.311-4.512,4.6-6.527,6.8q-1.822-2.48-3.54-5.04a67,67,0,0,0-4.791-13.534,65.456,65.456,0,0,0-5.405-11.8c-.77-1.366-1.571-2.723-2.371-4.081a26.545,26.545,0,0,0,13.355,6.377.525.525,0,0,0,.079.006.5.5,0,0,0,.263-.925c-5.147-3.179-10.469-6.466-14.913-10.7a36.865,36.865,0,0,1-4.69-5.406,47.506,47.506,0,0,1-3.378-8.9,76.37,76.37,0,0,1-1.614-9.886c-.53-4.456-1.091-9.027-2.69-13.241a15.611,15.611,0,0,1,.546-1.84l3.245,3.663a.5.5,0,0,0,.845-.161,17.1,17.1,0,0,0-.437-12.509,31.477,31.477,0,0,1,4.7,2.33.5.5,0,0,0,.69-.68,34.927,34.927,0,0,1-2.846-6.179,5.406,5.406,0,0,1,2.116.967.5.5,0,0,0,.67-.736,19.135,19.135,0,0,1-4.964-12.772l3.386,3.177a.507.507,0,0,0,.487.114.5.5,0,0,0,.342-.367,10.887,10.887,0,0,0-.634-6.718,10.764,10.764,0,0,1,2.947,1.507.5.5,0,0,0,.744-.623,12.115,12.115,0,0,0-3.327-4.125,15.451,15.451,0,0,1,5.468-.511.483.483,0,0,0,.479-.21.5.5,0,0,0,.031-.522l-2.013-3.74a11.289,11.289,0,0,1,9.306-1.167.5.5,0,0,0,.553-.777,17.589,17.589,0,0,1-2.7-5.249,7.765,7.765,0,0,0,5.177-4.339.5.5,0,0,0-.712-.633c-2.961,1.756-6.837.724-9.474-.829a36.7,36.7,0,0,1-4.752-3.548c-1.141-.953-2.322-1.937-3.573-2.8a25.448,25.448,0,0,0-15.487-4.459.5.5,0,0,0-.316.868c5.879,5.4,12.543,11.52,15.33,19.6a5.291,5.291,0,0,1,.227,3.8,3.043,3.043,0,0,1-1.8,1.546,11.824,11.824,0,0,0-3.674-2.2c-.243-.108-.483-.215-.72-.324a31.268,31.268,0,0,1-11.88-10.308,95.557,95.557,0,0,1-7.947-13.943.5.5,0,0,0-.944.16,11.5,11.5,0,0,0,.966,5.384c.237.668.46,1.3.623,1.928,1.656,6.365,6.269,11.333,10.73,16.137l1.119,1.207a45.85,45.85,0,0,1,7.318,9.832c-.187.4-.379.8-.573,1.185l-.3.6a22.192,22.192,0,0,0-2.482,8,11.015,11.015,0,0,0,1.221,6.068,9.569,9.569,0,0,1-2.688-2.967.5.5,0,0,0-.925.336q.448,2.589.9,5.219a16.948,16.948,0,0,1-6.764-14.305c.061-1,.217-2.019.367-3.01a17.677,17.677,0,0,0,.21-6.11c-.525-2.65-2.159-4.851-3.738-6.979l-.376-.507c-10.052-13.622-16.036-29.743-21.824-45.334a50.765,50.765,0,0,1-1.968-6.1c.395.017.791.03,1.186.048,14.678,1.022,30.492.044,42.97,8.549-.516-.466-1.053-.9-1.6-1.319,10.14,5.482,20.491,11.732,29.441,19.751a102.438,102.438,0,0,0-13.517-5.591,153.758,153.758,0,0,0-21.765-6.006c-1.055-.2-2.215-.411-3.215-.567q1.74.474,3.47.99c11.312,3.606,22.981,6.955,33.314,11.765,1.673.8,3.336,1.618,4.973,2.487.647.639,1.293,1.28,1.921,1.941l-2.427-1.2a.5.5,0,0,0-.636.729c2.515,3.711,2.257,6.554,1.9,10.49-.1,1.071-.2,2.179-.254,3.414a.5.5,0,0,0,.3.482.491.491,0,0,0,.2.041.5.5,0,0,0,.359-.152,9.592,9.592,0,0,0,2.272-3.848l.667,1.138a.525.525,0,0,0,.463.246.5.5,0,0,0,.429-.3c.129-.3.268-.61.41-.923a11.039,11.039,0,0,0,1.347-4.774,19.836,19.836,0,0,1,5.293,2.42l.77.44a.5.5,0,0,0,.7-.643c-2.5-5.445-5.3-7.666-9.542-11.025l-1.3-1.033c-6.063-4.846-12.527-9.336-18.778-13.678-7.94-5.515-16.94-11.766-27.308-13.213a.5.5,0,0,0-.3.94l1.892.979a52.385,52.385,0,0,0-13.015-2.554,148.7,148.7,0,0,0-20.453-.412l-.246.012a15.922,15.922,0,0,1-.283-5.959,10.751,10.751,0,0,1,.344-1.411c2.536-3.32,5.494-6.038,9.283-6.969,4.159-1.022,7.246.334,11.155,2.052l.964.422c20.527,8.923,38.819,22.428,56.508,35.488a60.662,60.662,0,0,1,9.248,7.835c1.964,2.18,3.964,7.3,4.819,9.492.475,1.219.579,1.483.872,1.483a.978.978,0,0,0,.172-.02.527.527,0,0,0,.413-.512,11.99,11.99,0,0,1,2.391-7.576,12.556,12.556,0,0,0,1.726,4.148c1.084,1.968,2.2,4,1.847,5.545a.5.5,0,0,0,.91.381l1.755-2.753a21,21,0,0,0,3.1,9.447.5.5,0,0,0,.912-.158,16.282,16.282,0,0,1,1.234-3.971,5.416,5.416,0,0,1,2.225-2.384,6.971,6.971,0,0,0,1.47,3.03.5.5,0,0,0,.581.138.5.5,0,0,0,.3-.517,2.718,2.718,0,0,1,2.155-2.7,4.2,4.2,0,0,1,2.669.347,39.583,39.583,0,0,1,.762,4.673,15.1,15.1,0,0,0,3.413,8.133c3.223,3.851,3.905,9.379,4.453,13.82a.5.5,0,0,0,.956.136l1.174-2.744,2.568,3.568a.5.5,0,0,0,.407.208.516.516,0,0,0,.163-.027.5.5,0,0,0,.337-.493l-.136-3.4,3.52,2.1a.5.5,0,0,0,.66-.723,24,24,0,0,1-4.146-12.462,73.631,73.631,0,0,1,.623-13.452.5.5,0,0,0-.678-.52,6.483,6.483,0,0,0-3.17,2.661,16.922,16.922,0,0,1-.119-4.635,4.7,4.7,0,0,1,4.191-1.493c1.851.345,3.389,1.83,4.625,3.023a.5.5,0,0,0,.79-.127,3.593,3.593,0,0,0,.058-2.509c-.035-.158-.07-.316-.1-.471-.113-.6-.017-1.563.546-1.7.359-.091.815.191,1.212.462l3.107,2.119a1.188,1.188,0,0,0,2.052-1.049l-.026-6.983,6.126,3.7a.5.5,0,0,0,.659-.727,24.064,24.064,0,0,1-3.031-4.8,8.1,8.1,0,0,1-.636-4.683,13.3,13.3,0,0,1,3.571,3.468.5.5,0,0,0,.888-.43,18.956,18.956,0,0,1,.41-11.79c5.041-5.754,8.12-13.254,11.116-20.57.627-1.532,1.251-3.055,1.889-4.554a144.259,144.259,0,0,1,29.778-44.58c3.386-3.456,8.519-7.941,14.069-6.971,4.2.734,7.739,4.427,10.521,10.975a74.73,74.73,0,0,1-3.631,64.625.5.5,0,0,0,.279.721c6.659,2.184,9.691,10.369,8.776,17.021-.717,5.215-3.219,9.985-6,14.347a17.117,17.117,0,0,0-3.628-8.381.5.5,0,0,0-.884.371,4.631,4.631,0,0,1-.514,2.641,14.176,14.176,0,0,0-1.852-3.487,11.158,11.158,0,0,1-.645-5.5,15.743,15.743,0,0,1,1.378-3.8,20.34,20.34,0,0,0,1.3-3.317,3.063,3.063,0,0,0-.026-2.036,3.364,3.364,0,0,0-2.08-1.551,7.571,7.571,0,0,1-.883-.39c-1.525-.847-1.939-2.857-1.677-4.365a13.386,13.386,0,0,1,2.324-4.829,74.588,74.588,0,0,0,5.973-10.21,25.258,25.258,0,0,0,2.5-11.621.5.5,0,0,0-.908-.262,54.276,54.276,0,0,0-4.447,8.144c-.583,1.229-1.185,2.5-1.816,3.721-2.536,4.9-5.2,8.013-8.377,9.783-.848.472-2.436,1.154-3.579.435-1.03-.649-1.189-2.234-.747-3.392a10,10,0,0,1,1.981-2.879c.168-.192.335-.385.5-.578a25.656,25.656,0,0,0,5.971-16.565.5.5,0,0,0-.847-.355c-4.463,4.3-8.932,8.715-13.282,13.128a52.724,52.724,0,0,0-7.5,8.9c-.307.5-.6,1-.888,1.505a21.021,21.021,0,0,1-2.293,3.453,21.4,21.4,0,0,1-3.353,2.846c-.664.5-1.381,1.032-2.147,1.643a.5.5,0,0,0,.556.827,18.4,18.4,0,0,1,8.29-2.3,19.624,19.624,0,0,0-2.788,2.158.5.5,0,0,0-.121.557.449.449,0,0,0,.48.309,7.458,7.458,0,0,0,7.169-8.068c1.919,2.445,2.849,4.82,2.769,7.077-.116,3.265-2.293,6.106-4.707,8.97a.5.5,0,0,0,.644.747,19.749,19.749,0,0,1,5.267-2.272,6.008,6.008,0,0,1-1.19,2.067.5.5,0,0,0,.493.816l7.612-1.835-1.017,7.683a.5.5,0,0,0,.8.466c1.678-1.255,4.089-.784,5.645.191a23.376,23.376,0,0,1,1.777,11.437.5.5,0,0,0,.7.5,9.884,9.884,0,0,0,3.483-2.62,11.375,11.375,0,0,1,.671,7.442.5.5,0,0,0,.087.426,18.323,18.323,0,0,0,5.293,4.223,25.128,25.128,0,0,1,3.9,2.74c2.357,2.162,4.01,5.42,5.049,9.96a49.442,49.442,0,0,1,1.157,9.2.5.5,0,0,0-.325.42,46.555,46.555,0,0,1-2.856,10.948l-1.239-1.131a.5.5,0,0,0-.826.473,25.954,25.954,0,0,1-4.516,20.653,10.084,10.084,0,0,0-1.634,3.111,2.231,2.231,0,0,1-.436.9.5.5,0,0,0,.391.858,6.4,6.4,0,0,0,4.982-3.559,82.1,82.1,0,0,1,.519,13.374q-1.293-.262-2.59-.495c0-.327,0-.655-.01-.981a.5.5,0,0,0-.912-.265c-.22.32-.425.651-.637.977-2.943-.485-5.9-.85-8.876-1.07.094-.4.183-.8.258-1.206a.5.5,0,0,0-.681-.554,13.28,13.28,0,0,0,1.374-6.479.5.5,0,0,0-.953-.18,42.247,42.247,0,0,1-5.017,8.19c-2.044-.035-4.093,0-6.144.118-7.12.371-14.422.792-21.235,3.024a33.361,33.361,0,0,1,3.921-.771.5.5,0,0,0-.172.476c.044.241.088.455.128.65.014.071.029.138.041.2a.5.5,0,0,0-.328.364.977.977,0,0,0,.03.491q-2.862-.344-5.746-.445a1.341,1.341,0,0,0-.861-.682l-.7-1.006a.5.5,0,0,0-.892.148,2.772,2.772,0,0,1-.123.361.577.577,0,0,0-.326.114.5.5,0,0,0-.175.473l.1.558c-.239,0-.477,0-.715.005.243.021.486.056.73.079l.05.286a.5.5,0,0,0,.766.331,3.1,3.1,0,0,1,.646-.353c.054.049.112.1.17.141l.208.241a.5.5,0,0,0,.477.163l.057.023a.485.485,0,0,0,.19.038.5.5,0,0,0,.5-.537v0c2.6.322,5.2.742,7.8,1.233a.492.492,0,0,0,.6.108c.1.02.2.036.3.055l.474,1.023a.5.5,0,0,0,.454.29.483.483,0,0,0,.162-.027.5.5,0,0,0,.325-.586c-.034-.147-.079-.29-.125-.434,1.054.217,2.108.435,3.158.674.079.172.166.345.268.522a14.469,14.469,0,0,1,1.849,6.9,30.71,30.71,0,0,0-9.65-2.776l-.008-.07a.5.5,0,0,0-.388-.43l-.116-.561a.489.489,0,0,0-.423-.375.536.536,0,0,0-.521.274c-.017.01-.193.108-1.063.064a.482.482,0,0,0-.455.245.5.5,0,0,0,0,.516l.118.192a23.972,23.972,0,0,0-4.492.441,33.6,33.6,0,0,1,4.856.152l1,1.626a.5.5,0,0,0,.656.181.573.573,0,0,0,.064-.039l.059.12a.5.5,0,0,0,.449.278.533.533,0,0,0,.141-.02.5.5,0,0,0,.356-.538l-.145-1.253a35.227,35.227,0,0,1,5.583,1.5l.227.083A39.551,39.551,0,0,1,388,234.3a18.353,18.353,0,0,1-2.884,9.007c-4.956-4.2-10.738-7.533-17.1-5.926,5.25-.987,11.015,2.055,16.581,6.693a17.5,17.5,0,0,1-1.572,1.908,20.411,20.411,0,0,1-3.943,3.182c-6.068-1.987-12.338-3.208-18.758-2.4a52.794,52.794,0,0,1,17.73,3,26.187,26.187,0,0,1-8.8,2.919,84.15,84.15,0,0,1-16.061-3.844,24.223,24.223,0,0,1-7.274-3.359,8.213,8.213,0,0,1-3.506-5.743A5.3,5.3,0,0,1,344,235.7a6.721,6.721,0,0,0,2.649-1.275,6.819,6.819,0,0,0,2.5-5.125c.007-.461-.03-.927-.067-1.377a4.826,4.826,0,0,1,.279-2.76c.562-1,1.861-1.434,3.007-1.822,1.444-.489,2.859-1.13,3.431-2.507a3.386,3.386,0,0,0,.187-1.816,2.347,2.347,0,0,0,1.053-.019,2.95,2.95,0,0,0,2.021-2.36,7.971,7.971,0,0,0-.06-2.7l-.023-.17a47.128,47.128,0,0,1-.394-8.064,1.712,1.712,0,0,1,1.394-.116,5.87,5.87,0,0,1,1.676,1l13.375,10.058a.5.5,0,0,0,.79-.5c-.929-4.311-4.331-7.588-7.065-10.22-2.64-2.541-5.924-5.7-6.8-9.7-.369-1.688-.226-4.088,1.391-5.294a5.224,5.224,0,0,1,3.344-.794,20.135,20.135,0,0,1,2.128.27c.556.089,1.111.179,1.67.235a14.362,14.362,0,0,0,7.153-1.119c3.932-.849,7.5-2.148,10.035-4.934a16.967,16.967,0,0,0,3.363-6.144,34,34,0,0,0,1.83-11.582l0-.235a6.045,6.045,0,0,1,.331-2.65,2.032,2.032,0,0,1,.632-.751c.7.306,1.408.587,2.1.85a21.792,21.792,0,0,1,3.858,1.748c1.826,1.133,3.5,3.251,3.129,5.427a.5.5,0,0,0,.964.254,13.1,13.1,0,0,0,.763-4.652,18.459,18.459,0,0,0,6.254.866.5.5,0,0,0,.29-.894l-3.8-2.95a11.065,11.065,0,0,0,4.339-8.651.5.5,0,0,0-.9-.3,9.456,9.456,0,0,1-7.671,3.744.56.56,0,0,0-.477.325.5.5,0,0,0,.147.558l.939.789a19.594,19.594,0,0,1-11.846-.895c-3.522-2.458-7.409-4.7-11.787-5.472-7.107-1.255-14.853,1.762-19.744,7.677a22.389,22.389,0,0,0-5.154,12.94,16.63,16.63,0,0,0,1.123,8.9,2.149,2.149,0,0,1,.242.841c-.006.18-.122.35-.208.357a.951.951,0,0,1-.275-.068,2.174,2.174,0,0,0-.458-.114,1.321,1.321,0,0,0-1.051.348,2.627,2.627,0,0,0-.734,1.859,11.683,11.683,0,0,0,1.337,4.725,10.494,10.494,0,0,1,1.247,4.4,5.044,5.044,0,0,1-2.9,4.389c-.227.1-.468.195-.709.288a5.667,5.667,0,0,0-1.789.968,6.65,6.65,0,0,1-2.087-1.64,12.064,12.064,0,0,0-1.519-1.379,9.164,9.164,0,0,0-4.27-1.425,21.985,21.985,0,0,0-16.159,4.606c-.838.668-1.633,1.4-2.4,2.115a26.616,26.616,0,0,1-3.8,3.107,4.078,4.078,0,0,1-2.131.759,1.472,1.472,0,0,1-1.443-1.012,2.943,2.943,0,0,1,0-.7,2.791,2.791,0,0,0-.09-1.192c.247-.463.508-.919.791-1.363a2.186,2.186,0,0,0,.478-1.676c-.195-.785-.986-1.222-2.227-1.231h-.823c-1.9,0-3.836.014-5.236-1.044a7.773,7.773,0,0,1-1.28-1.332c-.036-.046-.071-.094-.107-.139a.5.5,0,0,0-.056-.485,44.575,44.575,0,0,1-4.543-8.8c-1.828-4.288-3.718-8.723-7.3-11.841a18.66,18.66,0,0,0-9.868-4.257,23.142,23.142,0,0,0-19.116,6.518,44.936,44.936,0,0,0-3.393,4,34.243,34.243,0,0,1-4.368,4.892.507.507,0,0,0-.119.159,24.044,24.044,0,0,1-8.779,3.586,20.268,20.268,0,0,0,.216-6.367.5.5,0,0,0-.467-.437.5.5,0,0,0-.515.38,18.307,18.307,0,0,1-5.6,9.588.5.5,0,0,0,.15.849,8.065,8.065,0,0,0,5.37.077,12.069,12.069,0,0,0,8.769,7.581.459.459,0,0,0,.1.01.5.5,0,0,0,.424-.763L258.9,201.4a3.89,3.89,0,0,0,1.92.1.5.5,0,0,0,.265-.828,8.68,8.68,0,0,1-2.232-6.575,12.215,12.215,0,0,0,5.826-5.625,3.869,3.869,0,0,1,1.057,1.71,12.245,12.245,0,0,1,.4,2.122c.038.289.075.578.12.866a16.644,16.644,0,0,0,8.092,11.87,15.6,15.6,0,0,0,7.685,2.016c.022,0,.043,0,.065,0a17.954,17.954,0,0,0,5.568-.072,31.583,31.583,0,0,0,10.639-4.189,5.588,5.588,0,0,1,2.606-.984h.025a1.806,1.806,0,0,1,1.285.588.98.98,0,0,1,.264.76,2.4,2.4,0,0,1-.226.647c-.071.157-.142.316-.2.479a1.533,1.533,0,0,0,.381,1.767,1.585,1.585,0,0,0,1.909-.211c.112-.088.22-.185.328-.282a1.976,1.976,0,0,1,.65-.455,1.148,1.148,0,0,1,1.208.705,4.379,4.379,0,0,1,.244,1.962,33.1,33.1,0,0,1-.432,5.434l-.041.207a4.657,4.657,0,0,0-.082,2.147,2.151,2.151,0,0,0,1.015,1.3,1.525,1.525,0,0,0,1.21.131,2.471,2.471,0,0,0,1.316-1.44l.116-.229c.2-.384.583-.737.813-.63.163.076.221.336.3.755a2.536,2.536,0,0,0,.477,1.258,1.429,1.429,0,0,0,1.118.5c.039,0,.079,0,.12,0a2.077,2.077,0,0,0,1.492-.834,9.35,9.35,0,0,1,.19,2.7c-.021.218-.052.436-.083.654a5.535,5.535,0,0,0-.032,2.063,5.651,5.651,0,0,0,2.214,2.87,3.532,3.532,0,0,0,1.749.917,2.006,2.006,0,0,0,.243.015c.048,0,.092-.014.139-.017-.007.261-.016.522,0,.786.072,1.2.635,2.682,1.984,2.891a3.168,3.168,0,0,0,1.558-.263l.285-.1A4.631,4.631,0,0,1,327.185,230a8.607,8.607,0,0,1,1.015,1.494c.179.3.357.61.552.9a17.42,17.42,0,0,0,2.566,2.843,9.893,9.893,0,0,0,1.759,1.433,9.063,9.063,0,0,0,2.631.923c.311.07.638.128.97.172a10.093,10.093,0,0,1,2.064,3.127,6.711,6.711,0,0,1,.339,3.964.481.481,0,0,0-.115.151,13.7,13.7,0,0,1-2.66,3.673c-.161.138-.32.275-.485.413a20.248,20.248,0,0,0-1.887,1.731c-.656.535-1.335,1.062-2.024,1.6-1.249.968-2.541,1.969-3.708,3.051-1.095,1.016-2.109,2.134-3.091,3.216a37.748,37.748,0,0,1-4.16,4.132,12.933,12.933,0,0,1-4.006,2.222c.975-4.638,2.128-9.254,3.543-13.845a50.965,50.965,0,0,1,3.7-9.172,17.1,17.1,0,0,1,1.51-2.293c-4.4,3.694-7.6,13.837-9.9,25.617a7.36,7.36,0,0,1-3.981-.2.5.5,0,0,0-.611.7l.338.636a15.069,15.069,0,0,1-2.446-.746,14.491,14.491,0,0,0-4.681-3.209c1.562-5.006,3.283-9.962,5.252-14.84a81.237,81.237,0,0,0-6.11,14.417c-.481-.234-.962-.467-1.426-.712a23.481,23.481,0,0,1-5.007-3.561,57.715,57.715,0,0,1,3.809-5.559,5.162,5.162,0,0,0,.843,1.8.5.5,0,0,0,.4.2.488.488,0,0,0,.15-.023.5.5,0,0,0,.35-.462l.022-.781.088.141a.5.5,0,0,0,.923-.3l-.263-3.366a11.812,11.812,0,0,1,2.349-1.955,13.7,13.7,0,0,0-2.387,1.576.481.481,0,0,0-.5-.416.506.506,0,0,0-.174.037c-.015-.074-.032-.148-.05-.222a.5.5,0,0,0-.883-.185l-.135.167a3.5,3.5,0,0,0-.908,2.386h0a4.991,4.991,0,0,0,.043.713,47.888,47.888,0,0,0-4.346,5.589,25.154,25.154,0,0,1-5.093-7.359,68.619,68.619,0,0,1,6.271-4.958,55.1,55.1,0,0,1,13.178-6.029,30.294,30.294,0,0,1,6.551-1.643,28.8,28.8,0,0,0-6.85,1.222,43.7,43.7,0,0,0-14.773,6.527c-.4.3-.788.61-1.18.917a17.03,17.03,0,0,1,.74-3.382c.171-.512.367-1.015.564-1.519a21.445,21.445,0,0,0,.849-2.467.5.5,0,0,0-.841-.474l-.106.108a.513.513,0,0,0-.062-.246c.71-.463,1.42-.928,2.142-1.376q.755-.459,1.513-.916a11.546,11.546,0,0,0-.362,2.889.5.5,0,0,0,.4.488.569.569,0,0,0,.1.009.5.5,0,0,0,.46-.3l.394-.923a.5.5,0,0,0,.851-.084l1.415-2.976a.488.488,0,0,0-.564-.689c1.157-.664,2.324-1.308,3.516-1.906.277-.131.558-.262.841-.39a5.407,5.407,0,0,0-.3.777.861.861,0,0,0,.359,1.1.713.713,0,0,0,.318.074.988.988,0,0,0,.772-.446c.129-.166.251-.337.368-.511h0a.5.5,0,0,0,.309-.107,3.03,3.03,0,0,0,1.065-1.713c.123-.019.249-.046.37-.061-.122,0-.242.012-.362.021a3,3,0,0,0,.066-.324.5.5,0,0,0-.917-.322c-.044.068-.136.208-1.338.563a.493.493,0,0,0-.266.191,5.053,5.053,0,0,0-.338.572,35.61,35.61,0,0,0-6.038,2.469.509.509,0,0,0-.277-.062.5.5,0,0,0-.426.319c-.016.041-.026.084-.042.126a82.112,82.112,0,0,0-10.558,6.841.476.476,0,0,0-.306-.3.5.5,0,0,0-.546.194,4.457,4.457,0,0,0-.571,1.192c-4.123,3.182-8.258,6.771-12.172,10.45A19.732,19.732,0,0,1,265.717,244.125Zm78.746-132.112c.057-.045.107-.095.162-.141C344.57,111.918,344.52,111.968,344.463,112.013Zm.412-.364a11.679,11.679,0,0,0,1.038-1.023A11.679,11.679,0,0,1,344.875,111.649ZM293.606,246.194a.473.473,0,0,0,.254.2c-1,.8-1.965,1.62-2.919,2.461a23.818,23.818,0,0,1-1.618-6.529c1.215-.907,2.45-1.786,3.7-2.649A8,8,0,0,0,293.606,246.194Zm68.463-62.587c-2.743-2.242-5.41-6.067-4.669-10.08a5.6,5.6,0,0,0,.063-1.082,19.794,19.794,0,0,1,2.612-6.076,17.969,17.969,0,0,1,13.076-8.1,15.828,15.828,0,0,1,13.948,5.943,14.118,14.118,0,0,1,1.236,14.871,17.409,17.409,0,0,1-6.393,6.3,38.08,38.08,0,0,1-4.967,2.479A20.022,20.022,0,0,1,362.069,183.607Zm-78.718,21.075a15.046,15.046,0,0,1-11.025-22.554,14.035,14.035,0,0,1,8.609-6.553c6.171-1.476,12.257,1.945,15.895,5.639a18.881,18.881,0,0,1,5.219,9.032,13,13,0,0,1,.072,5.237,15.432,15.432,0,0,1-6.64,6.644A25.226,25.226,0,0,1,283.351,204.682Zm56.032,28.572a2.4,2.4,0,0,1-.308.964c-.027.009-.056,0-.081.017a5.189,5.189,0,0,1-7.81-3.962,3.5,3.5,0,0,0-2.622-6.48,6.438,6.438,0,0,0-1.959,1.2c-.133.1-.266.21-.4.311a2.924,2.924,0,0,1-2.056.811,2.216,2.216,0,0,1-1.695-2.092,6.094,6.094,0,0,1,.889-3.159c1.256-2.422,2.676-3.892,4.343-4.494a11.125,11.125,0,0,1,3.448-.453,9.247,9.247,0,0,0,4.563-.921,25.455,25.455,0,0,0,2.717-.483,19.041,19.041,0,0,1,2.538-.447,19.773,19.773,0,0,1,6.716.236c1.823.5,3.991,1.82,4.608,4.04a2.581,2.581,0,0,1-.046,1.742c-.557,1.179-2.264,1.326-2.972,1.335-.4,0-.813-.014-1.221-.032a9.457,9.457,0,0,0-3.119.21,3.881,3.881,0,0,0-2.278,1.81,2.466,2.466,0,0,0-.214,1.939,4.085,4.085,0,0,0,1.8,2,5.432,5.432,0,0,1,1.2,1.024c.869,1.12.459,2.892-.44,3.958a8.824,8.824,0,0,1-3.109,2.124,2.05,2.05,0,0,1-1.515-1.294.5.5,0,0,0-.979.1Zm46.649-11.783a.5.5,0,0,0-.872.411c.055.315.082.642.111.98a10.857,10.857,0,0,0,.245,1.717q-1.6-.33-3.214-.605a6.23,6.23,0,0,0-.435-.711l-.46-.994a.5.5,0,0,0-.426-.289.545.545,0,0,0-.268.06,6.023,6.023,0,0,0-1.5-.89c2.841-.369,5.716-.484,8.637-.729,4.488-.312,8.987-.526,13.486-.547a41.731,41.731,0,0,1-4.1,4.3.5.5,0,0,0,.513.838l1.138-.43a22.207,22.207,0,0,1-2.192,2.853c-2.674-.793-5.368-1.529-8.082-2.171A20.168,20.168,0,0,0,386.032,221.471Zm20.9-1.482c2.862.194,5.72.541,8.574.994-1.1,1.771-2.09,3.607-3.06,5.4-.94,1.738-1.908,3.52-2.962,5.233q-2.257-.8-4.52-1.579-1.31-.428-2.627-.849A26.7,26.7,0,0,0,406.933,219.989Zm10.658,1.329c.859.151,1.718.322,2.577.49-.061,1.832-.144,3.658-.229,5.468-.111,2.319-.216,4.688-.275,7.059-.091.355-.193.706-.29,1.058-1.6-.665-3.207-1.3-4.825-1.914A30.018,30.018,0,0,0,417.591,221.318Zm-151.5,57.966.048-1.807a6.655,6.655,0,0,0,.724.867q-.353.569-.7,1.143C266.137,279.419,266.113,279.352,266.09,279.284Zm-.95-14.765q3.3-3.519,6.7-6.913a22.335,22.335,0,0,0,2.309,1.662.5.5,0,0,0,.594-.048.537.537,0,0,0,.1-.125,34.34,34.34,0,0,0,4.286,2.175c-2.824,3.461-5.484,7.065-8.039,10.717C269.039,269.558,267.042,267.077,265.14,264.519Zm14.123-8.157,3.4-1.233a.5.5,0,0,0-.163-.97,19.13,19.13,0,0,1-5.973-1.064c3.527-3.286,7.172-6.423,10.962-9.359a12.552,12.552,0,0,0,.48,3.7c.27,1.061.575,2.163.931,3.274a102.429,102.429,0,0,0-7.151,7.461C280.9,257.605,280.065,257.007,279.263,256.362ZM390.7,238.418a19.878,19.878,0,0,0,.275-2.536,59.767,59.767,0,0,1,8.128,5.753,13.758,13.758,0,0,1-2.675.847.5.5,0,0,0,.069.989l2.383.143a19.115,19.115,0,0,1-6.35,6.847c-.281-.3-.552-.609-.835-.907-1.2-1.205-2.488-2.5-3.848-3.791A20.448,20.448,0,0,0,390.7,238.418Zm20.58,2.758a.5.5,0,0,0,.17-.565.493.493,0,0,0-.487-.333l-1,.03a29.292,29.292,0,0,0,4.187-6.031q2.514.942,4.994,1.946a68.73,68.73,0,0,1-7.263,16.635q-3.246-3.635-6.747-7.028ZM270.745,286.263a.5.5,0,0,0-.556-.289.5.5,0,0,0-.4.482l-.038,2.081c-1.21-2.66-2.294-5.384-3.273-8.142l1-1.491a6.273,6.273,0,0,0,.85.583l8.245,7.282a.5.5,0,0,0,.77-.615l-1.4-2.545a29.552,29.552,0,0,0,5.641,3.93c-1.6,4.227-2.905,8.084-3.809,11.141A70.622,70.622,0,0,1,270.745,286.263Zm.976-13.532c2.641-3.716,5.424-7.46,8.388-11.066.055.021.109.046.164.067a.5.5,0,0,0,.5-.084.508.508,0,0,0,.178-.361,14.609,14.609,0,0,0,6.566,1.566c.4,0,.8-.016,1.193-.05a.5.5,0,0,0,.135-.966,35.027,35.027,0,0,1-6.236-3.126c2.119-2.428,4.33-4.764,6.644-6.957a23.6,23.6,0,0,0,4.359,7.884c.242.275.5.528.762.787a165.565,165.565,0,0,0-11.541,23.908A150.017,150.017,0,0,1,271.721,272.731ZM387.352,246.5c1.5,1.4,2.984,2.888,4.426,4.417a15.679,15.679,0,0,1-2.456,1.16.5.5,0,0,0-.318.364c-.034.158-.083.316-.122.474-1.783-.749-3.588-1.488-5.413-2.187A20.758,20.758,0,0,0,387.352,246.5Zm16.519,2.084a.5.5,0,0,0-.262-.8l-.792-.2,1.565-1.184c2.416,2.34,4.743,4.8,7.006,7.262a68.391,68.391,0,0,1-5.507,7.591c-2.377-1.35-4.775-2.663-7.221-3.885-.37-.44-.754-.868-1.128-1.3C399.777,253.544,401.879,251,403.871,248.585Zm7.672,11.388,1.46-1.89.322,3.858a.5.5,0,0,0,.96.149l1.069-2.592,2.163,9q-4.618-3.126-9.415-5.965A12.522,12.522,0,0,0,411.543,259.973Zm-129.5,117.5a5.453,5.453,0,0,0-.343-1.3,3.548,3.548,0,0,0-1.686-2.276c-2.214-.8-2.351,2.148-2.444,3.75a13.609,13.609,0,0,1-3.8-.824c-1.348-.582-3.982-3.66-4.828-5.748a25.231,25.231,0,0,1-2.271-9.6c.024-1.794.3-4.575.061-4.267-.448.579-2.323,7.092-.887,14.3.062.31,1.62,7.018-2.235,9.345a17.042,17.042,0,0,1-1.527-1.027,25.285,25.285,0,0,0-2.171-1.875c-.865-.7-2.292-.381-2.263.843a6.51,6.51,0,0,0,1.778,2.791c-1.624-.232-2.254-1.266-3.025-2.661l-.044-.079c-.232-.434-.22-.4-.761-1.523a34.929,34.929,0,0,1-2.5-6.809,67.523,67.523,0,0,1-1.863-15.553.205.205,0,0,0-.405-.046,46.245,46.245,0,0,0-1.233,13.845,7.831,7.831,0,0,0,.233,2.042c.308,2.144,2.09,4.859,1.859,7.734a4.971,4.971,0,0,1-3.394,3.833c-.155-.153-.294-.3-.416-.44a11.447,11.447,0,0,0-2.907-2.707,1.264,1.264,0,0,0-1.663,1.8c.056.109.119.224.186.343a11.835,11.835,0,0,1-5.5-6.182c-.189-.563-.371-1.157-.552-1.79-.094-.324-.422-1.741-.448-1.847-.02-.086-.041-.179-.06-.263a55.888,55.888,0,0,1-1.151-8.843,27.2,27.2,0,0,1,.035-4.448.173.173,0,0,0-.332-.081,26.688,26.688,0,0,0-1.287,5.9,31.153,31.153,0,0,0,.336,10.725c-.05.14-.1.273-.158.392-1.4,3.338-7.556,2.483-10-2.659a36.366,36.366,0,0,1-1.866-11.478c.02-7.439,2.384-18.254,10.449-25.282a19.393,19.393,0,0,1,6.737-4.7,28.987,28.987,0,0,1,6.5-1.43c-4.306,2.767-5.621,9.549-5.621,9.549s3.794-4.848,5.72-6.217c3.8-2.7,6.909-4.893,14.93-4.653,2.281.224,6.028.836,5.57,1.027-4.1,1.532-5.106,2.6-6.507,3.934a9,9,0,0,0-2.747,4.411,26.337,26.337,0,0,1,8.661-5.234c4.086-1.4,9.657-2.452,14.427-1.611a36.332,36.332,0,0,1,12.621,4.724c.459.282,1.206.78,2.036,1.395,11.3,13.216,4.426,18.121,2.324,18.017-3.607.644-7.347-1.919-7.347-1.919s-1.992-1.229-1.733-.881c.268.5.526,1,.79,1.564a24.51,24.51,0,0,1,1.754,12.824C290.07,374.065,285.308,376.636,282.041,377.475Zm189.4-4.616c-.052-.124-.1-.263-.144-.41a32.382,32.382,0,0,0,.835-11.018,27.678,27.678,0,0,0-1.041-6.122.176.176,0,0,0-.342.069,28.3,28.3,0,0,1-.169,4.577A58.134,58.134,0,0,1,469,369l-.073.268c-.032.108-.431,1.551-.541,1.88-.213.644-.427,1.247-.645,1.818a12.161,12.161,0,0,1-5.889,6.118c.074-.118.145-.235.206-.344a1.294,1.294,0,0,0-1.612-1.923,11.726,11.726,0,0,0-3.086,2.658c-.131.135-.279.283-.444.434a5.1,5.1,0,0,1-3.283-4.092c-.1-2.968,1.837-5.683,2.249-7.875a8.147,8.147,0,0,0,.331-2.091,48.077,48.077,0,0,0-.621-14.3.21.21,0,0,0-.415.029,70.2,70.2,0,0,1-2.612,15.919,36.237,36.237,0,0,1-2.858,6.9c-.6,1.128-.589,1.1-.845,1.534l-.049.079c-.849,1.4-1.538,2.437-3.2,2.605a6.717,6.717,0,0,0,1.939-2.794c.087-1.257-1.353-1.645-2.267-.966a26.227,26.227,0,0,0-2.3,1.834,17.41,17.41,0,0,1-1.6.99c-3.822-2.563-1.926-9.4-1.848-9.712,1.793-7.353.181-14.135-.249-14.751-.228-.327-.075,2.546-.133,4.393a26.206,26.206,0,0,1-2.755,9.777c-.957,2.111-3.783,5.163-5.183,5.7a13.773,13.773,0,0,1-3.909.681c-.021-1.651-.025-4.687-2.318-3.965a3.66,3.66,0,0,0-1.822,2.268,5.606,5.606,0,0,0-.41,1.327c-3.29-1.006-8.025-3.859-8.69-11.895a25.469,25.469,0,0,1,2.376-13.116c.3-.569.581-1.076.877-1.574.28-.347-1.807.831-1.807.831s-3.928,2.472-7.574,1.651c-2.147.016-8.923-5.331,3.194-18.432.874-.6,1.658-1.077,2.138-1.346a36.905,36.905,0,0,1,13.078-4.308c4.9-.656,10.528.666,14.627,2.289a26.774,26.774,0,0,1,8.586,5.763,9.269,9.269,0,0,0-2.6-4.658c-1.366-1.429-2.342-2.576-6.45-4.331-.458-.216,3.388-.682,5.723-.813,8.184.1,11.256,2.5,15,5.441,1.9,1.492,5.544,6.646,5.544,6.646s-1.03-7.035-5.291-10.071a29.3,29.3,0,0,1,6.555,1.756,19.759,19.759,0,0,1,6.65,5.134c7.9,7.584,9.808,18.813,9.488,26.467a37.8,37.8,0,0,1-2.429,11.726C479.023,375.745,472.71,376.355,471.438,372.859Z"/></svg>