<svg id="e1f3600b-a7d5-431a-a35a-9b8882871645" data-name="Layer 2" xmlns="http://www.w3.org/2000/svg" viewBox="0 0 800 510.091" style="fill: #215342;" height="288" width="315"><path d="M330.6,173.718a3.263,3.263,0,0,0-1.839-1.832.509.509,0,0,0-.483.086.5.5,0,0,0-.177.459,7.8,7.8,0,0,1-.422,3.889c-.174.458-.355.716-.572.811a1.616,1.616,0,0,1-.878-.014l-4.507-.827a1.128,1.128,0,0,1-.555-.2c-.134-.155-.068-.558-.047-.691a22.73,22.73,0,0,1,1.548-4.715l.043-.106a.5.5,0,0,0-.105-.536.5.5,0,0,0-.533-.12,8.025,8.025,0,0,0-4.421,4.535,15.19,15.19,0,0,0-.988,6.188,9.052,9.052,0,0,0,1.45,5.431,6.045,6.045,0,0,0,4.811,2.24,6.658,6.658,0,0,0,1.989-.3,8.761,8.761,0,0,0,5.163-4.91,14.833,14.833,0,0,0,1.006-7.02A7.106,7.106,0,0,0,330.6,173.718Z"/><path d="M406.728,171.925a.5.5,0,0,0-.72.578l.035.12a24.721,24.721,0,0,1,1.084,4.841c.035.453-.027.619-.086.678a.924.924,0,0,1-.476.11l-4.2.288a1.342,1.342,0,0,1-.773-.082,1.552,1.552,0,0,1-.474-.884,8.428,8.428,0,0,1-.11-3.91.5.5,0,0,0-.606-.59,2.954,2.954,0,0,0-1.862,1.622,7.279,7.279,0,0,0-.612,2.282,15.991,15.991,0,0,0,.421,7.04,9.03,9.03,0,0,0,4.388,5.449,5.875,5.875,0,0,0,2.527.572,5.171,5.171,0,0,0,3.937-1.706,9.122,9.122,0,0,0,1.723-5.2,16.407,16.407,0,0,0-.463-6.216A8.328,8.328,0,0,0,406.728,171.925Z"/><path d="M367.312,320.636a27.826,27.826,0,0,0-7.351.824,6.64,6.64,0,0,0,.635-2.44.5.5,0,0,0-.62-.516,149.077,149.077,0,0,1-22.316,3.8,17.033,17.033,0,0,0,4.14-6.594.5.5,0,0,0-.848-.477,32.018,32.018,0,0,1-17.81,9.654.5.5,0,0,0-.1.957,16.45,16.45,0,0,0,11.222.251l-4.738,4.236a.5.5,0,0,0,.333.873l.045,0a66.849,66.849,0,0,0,23.268-6.6l-.848,1.552a.5.5,0,0,0,.034.534.51.51,0,0,0,.5.2,49.06,49.06,0,0,0,14.688-5.314.5.5,0,0,0-.23-.938Z"/><path d="M395.936,313a.5.5,0,0,0-.593.8l.781.74a28.731,28.731,0,0,0-4.839-1.017.5.5,0,0,0-.548.389,9.614,9.614,0,0,0-4.942-.677l-1.7-.686a.5.5,0,0,0-.688.452l-.028,1.249a11.988,11.988,0,0,1-8.6-4.773.5.5,0,0,0-.869.477,15.873,15.873,0,0,0,3.84,6.127h0a37.755,37.755,0,0,0,9.008,6.647.5.5,0,0,0,.706-.607l-1.539-4.412a13.2,13.2,0,0,0,6.1,2.456.513.513,0,0,0,.538-.336.5.5,0,0,0-.224-.594c-.024-.013-.088-.05-.076-.208a.686.686,0,0,1,.371-.552,2.74,2.74,0,0,1,1.722.216,25.647,25.647,0,0,0,11.475.994.5.5,0,0,0,.178-.929Z"/><path d="M345.518,253.111c-.251.167-.493.323-1.689.166a.512.512,0,0,0-.374.1l-1.349,1.059a.5.5,0,0,0,.506.852l.019-.008a.5.5,0,0,0,.155.147.5.5,0,0,0,.793.349l2.511-1.847a.5.5,0,0,0-.572-.82Z"/><path d="M329.206,251.328a.509.509,0,0,0,.194-.039l1.247-.523a.5.5,0,0,0,.586.016l1.054-.716a.5.5,0,0,0,.218-.438l.666-.606a.5.5,0,0,0-.591-.8l-1.633.957c-1.128.658-1.6.931-2.032,1.244a.5.5,0,0,0,.291.906Z"/><path d="M336.87,248.677c.414-.034.768-.077,1.071-.128a.48.48,0,0,0,.157.176.5.5,0,0,0,.657-.08l.438-.493a1.552,1.552,0,0,0,.643-.761l0-.01q.135-.1.264-.2a.5.5,0,0,0-.578-.813,4.182,4.182,0,0,0-.539.394,6.348,6.348,0,0,1-2.256.931.5.5,0,0,0-.4.56A.488.488,0,0,0,336.87,248.677Z"/><path d="M326.732,242.891a.5.5,0,0,0-.758-.178l-.7.543a.5.5,0,0,0-.018.775l-.055.05a.5.5,0,0,0,.337.869.505.505,0,0,0,.2-.043,1.569,1.569,0,0,0,.9-.782l.4-.364a.5.5,0,0,0-.313-.87Z"/><path d="M395.539,252.844a7.1,7.1,0,0,0,2.493,1.415.5.5,0,0,0,.652-.43.5.5,0,0,0-.018-.385,2.538,2.538,0,0,0-.218-.378,2.6,2.6,0,0,0-1.057-1.075.5.5,0,0,0-.443-.015,2.763,2.763,0,0,0-.6-.115.494.494,0,0,0-.343,0,.45.45,0,0,0-.051.008.5.5,0,0,0-.773.571A.761.761,0,0,0,395.539,252.844Z"/><path d="M406.1,253.13a.52.52,0,0,0,.1.009.5.5,0,0,0,.437-.257.512.512,0,0,0,.059-.171l.078-.018a.5.5,0,0,0,.064-.951,5.155,5.155,0,0,0-1.888-.407l-.11-.026a.49.49,0,0,0-.274.015c-.136,0-.279,0-.431,0a.5.5,0,0,0-.253.924A6.606,6.606,0,0,0,406.1,253.13Z"/><path d="M398.56,244.979l.309.161a.529.529,0,0,0,0,.126.5.5,0,0,0,.454.45,1.885,1.885,0,0,0,.63-.012l.02.01a.5.5,0,0,0,.648-.168.453.453,0,0,0,.036-.064A6.308,6.308,0,0,1,402,245.5a4.523,4.523,0,0,0,1.446.335h.032a.5.5,0,0,0,.167-.972,7.26,7.26,0,0,0-1.289-.323.493.493,0,0,0-.113-.072l-.506-.235a.5.5,0,0,0-.52.061l-1.53-.229a1.663,1.663,0,0,0-1.055-.008.5.5,0,0,0-.072.918Z"/><path d="M408.48,245.5l2.421,1.367a.5.5,0,0,0,.573-.056l.83.441a.5.5,0,0,0,.5-.866l-1.463-.919a.7.7,0,0,0,.033-.1c.131-.5-.244-.638-1.248-1a.5.5,0,0,0-.6.207.509.509,0,0,0-.074.279,3.634,3.634,0,0,1-.488-.222.5.5,0,0,0-.487.873Z"/><path d="M405.544,236.648a2.421,2.421,0,0,0,.352-.127.488.488,0,0,0,.018.169.5.5,0,0,0,.443.361c.1.008.206.012.308.012a4.175,4.175,0,0,0,2.225-.645.5.5,0,0,0,.182-.638.389.389,0,0,0-.04-.069.5.5,0,0,0-.622-.678c-.073.026-.144.051-.216.072a.5.5,0,0,0-.707-.431l-.554.252c-.051-.023-.1-.049-.158-.076a.5.5,0,0,0-.654.192,1.429,1.429,0,0,1-.409.439l-.507.23a.5.5,0,0,0,.339.937Z"/><path d="M398.31,237.562h.018a3.941,3.941,0,0,0,.942-.151.464.464,0,0,0,.231.024,3.05,3.05,0,0,0,.952-.286.576.576,0,0,0,.1.007c.22,0,.515-.114.667-.641a.5.5,0,0,0-.561-.633l-.007,0c-.018-.052-.037-.11-.056-.175a.5.5,0,0,0-.311-.326.507.507,0,0,0-.447.056l-1.807,1.216a.5.5,0,0,0,.28.915Z"/><path d="M390.9,238.707l1.566.2c.022,0,.042,0,.064,0a.5.5,0,0,0,.492-.418.419.419,0,0,0,.007-.078l.25-.037a.5.5,0,0,0,.425-.54.488.488,0,0,0-.515-.454l-2.4.081a.672.672,0,0,0,.108,1.244Z"/><path d="M332.644,237.727a.508.508,0,0,0-.48.175.5.5,0,0,0-.12.249,4.912,4.912,0,0,0-.985-.025.5.5,0,0,0-.13.97,3.228,3.228,0,0,0,1.183.213.5.5,0,0,0,.129.109,1.222,1.222,0,0,0,1.207,0,.619.619,0,0,0,.356-.9A2.052,2.052,0,0,0,332.644,237.727Z"/><path d="M411.017,240.559a1.571,1.571,0,0,0,.761.193,1.589,1.589,0,0,0,.985-.338.5.5,0,0,0,.183-.471.485.485,0,0,0-.124-.257.81.81,0,0,0,.023-.255.5.5,0,0,0-.757-.393l-.021.013a.5.5,0,0,0-.866,0,.865.865,0,0,0-.1.577l-.1.063a.5.5,0,0,0,.016.866Z"/><path d="M386.058,247a5.594,5.594,0,0,0,2.222.66l.04,0a.5.5,0,0,0,.328-.877.276.276,0,0,0,.006-.057.5.5,0,0,0-.461-.528l-.038,0a3.671,3.671,0,0,1-.984-.557.5.5,0,0,0-.774.427l-.063,0a.486.486,0,0,0-.516.357A.5.5,0,0,0,386.058,247Z"/><path d="M374.591,227.36a14.473,14.473,0,0,1,4.314.892,4.849,4.849,0,0,1,2.839,2.844.5.5,0,0,0,.478.351l.054,0a.5.5,0,0,0,.444-.453c.4-4.539-1.851-8.9-3.657-12.4a12.605,12.605,0,0,0-3.784-4.925.5.5,0,0,0-.785.509,17.016,17.016,0,0,0,1.425,3.691c.166.347.333.694.491,1.043a8.367,8.367,0,0,1,.957,4.557,3.3,3.3,0,0,1-2.751,2.9.5.5,0,0,0-.025,1Z"/><path d="M734.367,340.886H642.814c-14.448-15.493-29.725-26.951-45.572-34.216a137.721,137.721,0,0,0-61.079-23.664l3.482-.785a.5.5,0,0,0-.105-.988,45.3,45.3,0,0,1-18.378-4.2c-6.322-4.81-12.582-9.928-16.451-16.833-.929-1.656-1.724-3.43-2.493-5.146q-.341-.761-.69-1.529l1.453.4a.5.5,0,0,0,.5-.822l-5.576-6.018a18.613,18.613,0,0,0-2.637-2.845L483.839,231.9l3.654.211a.5.5,0,0,0,.469-.261.5.5,0,0,0-.037-.534c-2.214-3.009-4.724-6.419-8.178-8.545a12.624,12.624,0,0,0-1.191-.645,23.956,23.956,0,0,0-.607-12.812l2.664.988a.5.5,0,0,0,.619-.7,33.405,33.405,0,0,0-2.666-4.3,34.434,34.434,0,0,0-1.868-8.553l3.134,2.852a.5.5,0,0,0,.791-.579,34.137,34.137,0,0,1-2.593-12.019c.711.546,1.408,1.109,2.072,1.71a.5.5,0,0,0,.336.13.5.5,0,0,0,.5-.494,33.8,33.8,0,0,0-3.566-15.507l2.088-.4a.5.5,0,0,0,.358-.7c-2.653-5.628-5.026-11.41-7.121-17.288a8.259,8.259,0,0,1,3.3,4.957.5.5,0,0,0,.491.408h.012a.5.5,0,0,0,.483-.432c.728-5.352-1.359-11.049-5.739-15.733l1.951-.881a.5.5,0,0,0-.045-.93c-.555-.188-1.121-.391-1.677-.618a15.476,15.476,0,0,1-4.073-7.9c.154-.54.332-1.08.509-1.616l.256-.782a30.571,30.571,0,0,0,.9-15.045c-.314-1.63-.766-3.278-1.2-4.871-1.11-4.044-2.158-7.862-1.251-11.7a23.485,23.485,0,0,1,2.01-4.961c.518-1.045,1.053-2.126,1.482-3.24a19.618,19.618,0,0,0,1.139-9.214c.33-1.576.646-3.16.933-4.752.73-.014,1.449-.015,2.11.009-.693-.075-1.389-.114-2.085-.149a70.535,70.535,0,0,0,1.258-17.216c-.429-6.308-2.357-18.027-6.869-21.931a8.549,8.549,0,0,0-4.915-1.547,15.249,15.249,0,0,0-5.074.426c-.351.088-.7.172-1.054.284a34.828,34.828,0,0,0-9.618,5.4c-16.947,12.352-31.626,27.77-45.8,42.741L399.669,83a.5.5,0,0,0-.478-.4.516.516,0,0,0-.5.376,18.407,18.407,0,0,1-1.945,5.286,5.773,5.773,0,0,1-4.225,2.9,3.405,3.405,0,0,1-3.626-2.714.5.5,0,0,0-.494-.453.494.494,0,0,0-.5.443,6.7,6.7,0,0,1-1.142,3.02,10.269,10.269,0,0,0-1.821-3.095.5.5,0,0,0-.48-.163.5.5,0,0,0-.376.339,1.924,1.924,0,0,1-.4.676.484.484,0,0,0-.287-.008.5.5,0,0,0-.364.432c0,.035,0,.072,0,.108a4.237,4.237,0,0,1-2.734.38,13.7,13.7,0,0,1-2.456-.788,11.744,11.744,0,0,0-8.961-.313,11.292,11.292,0,0,1-7.535.113,10.471,10.471,0,0,0-2.806-.55,9.8,9.8,0,0,0-3.529.767,17.9,17.9,0,0,1-1.857.564c-1.63.365-3.6-.078-4.055-1.453a.5.5,0,0,0-.781-.236,8.037,8.037,0,0,0-2.8,4.214l-.3.488a6.709,6.709,0,0,1-2.176-3.663.5.5,0,0,0-.989.1c0,1.706-1.8,3.01-3.394,3.036a5.793,5.793,0,0,1-4.515-2.5,18.339,18.339,0,0,1-2.443-5.085.494.494,0,0,0-.527-.327.5.5,0,0,0-.439.438l-.261,2.2c-15.621-13.607-31.787-27.614-49.95-38.361a35.281,35.281,0,0,0-10.156-4.493c-.361-.078-.72-.13-1.079-.185a15.474,15.474,0,0,0-5.124.038,8.64,8.64,0,0,0-4.8,1.994c-4.167,4.314-5.019,16.154-4.866,22.47a54.5,54.5,0,0,0,.542,6.307c-2.029.147-4.183.331-5.885.514,1.981-.046,3.964-.057,5.946-.067a101.215,101.215,0,0,0,3.67,15.058,19.474,19.474,0,0,0,2,9.071c.533,1.07,1.17,2.1,1.787,3.089a23.341,23.341,0,0,1,2.477,4.757c1.266,3.732.567,7.631-.173,11.758-.292,1.627-.594,3.31-.758,4.961a30.358,30.358,0,0,0,2.3,14.9l.329.754c.871,1.981,1.772,4.03,1.207,5.958-.676,2.3-3.21,3.588-5.531,4.614a.5.5,0,0,0,.04.931l2.04.7a23.3,23.3,0,0,0-3.46,6.056c-.236.554-.453,1.122-.637,1.709-1.484,4.738-1.29,9.656-.909,15.131l.033.468c.334,4.781.68,9.726-.5,14.362a.5.5,0,0,0,.523.622l2.243-.173q-.062,2.007.075,4.015l-.938,18.946a.5.5,0,0,0,.739.463l1.828-.995.079.043c0,.888.013,1.825.075,2.789-.255,1.532-.469,3.071-.675,4.594-.681,5.054-1.387,10.28-3.791,14.752a.5.5,0,0,0,.412.735,15.264,15.264,0,0,0,5.64-.751,80.818,80.818,0,0,0,5.413,18.149A217.7,217.7,0,0,0,247.3,264.966c-1.48.917-3.046,1.932-4.418,2.884,1.506-.9,3.034-1.772,4.572-2.62q11.576-6.274,23.415-11.655c1.384,4.4,2.7,8.821,3.911,13.219a7.6,7.6,0,0,1,.1,1.216c-6.034,3.269-11.308,6.257-15.223,8.51-1.72,1.024-3.645,2.185-5.222,3.168q2.858-1.5,5.717-2.993c4.877-2.568,9.771-5.174,14.683-7.755a7.872,7.872,0,0,1-1.416,3.73.5.5,0,0,0,.566.767l1.7-.58A44.932,44.932,0,0,0,277.6,283.6c.252,3.471.417,6.991.424,10.516-1.567,1.22-3.121,2.456-4.651,3.723q-1.572,1.339-3.1,2.727c1.346-1.057,2.71-2.089,4.084-3.109,1.214-.9,2.444-1.782,3.67-2.667a92.892,92.892,0,0,1-.577,10.244,74.556,74.556,0,0,0-11.479,3.287,214.478,214.478,0,0,0-21.24,8.643c-6.921,3.406-13.88,8.161-16.94,15.988a24.6,24.6,0,0,0-1.539,7.93H67.367a.5.5,0,0,0-.5.5v18a.5.5,0,0,0,.5.5H232.352c3.887,6.251,15.673,8.722,18.115,9.568a10.7,10.7,0,0,0,4.816.024c1.122-.216,6.785-.428,8.316-.934a8.078,8.078,0,0,0,5.528,1.139,8.479,8.479,0,0,0,2.612-.915,7.06,7.06,0,0,0,2.937-.066c.087-.027.314-.081.584-.147a5.563,5.563,0,0,0,2.722-.608,14.644,14.644,0,0,0,3.348,1.565,14.326,14.326,0,0,0,4.824.411,4.793,4.793,0,0,0,2.509,1.337c1.5.121,2.139-1.076,2.424-2.468a24.983,24.983,0,0,0,8.293-5.777,20.117,20.117,0,0,0,2.417-3.13H435.4a20.977,20.977,0,0,0,1.351,1.814,24.782,24.782,0,0,0,7.892,6.224c.2,1.406.771,2.637,2.264,2.6a4.767,4.767,0,0,0,2.562-1.2,14.148,14.148,0,0,0,4.8-.144,14.479,14.479,0,0,0,3.406-1.378,5.48,5.48,0,0,0,2.663.757c.264.081.486.147.571.179a6.942,6.942,0,0,0,2.907.228,8.33,8.33,0,0,0,2.536,1.058,7.969,7.969,0,0,0,5.542-.832c1.489.59,7.089,1.114,8.189,1.392a10.552,10.552,0,0,0,4.774.242c2.48-.714,14.424-2.542,18.565-8.649a27.568,27.568,0,0,0,1.745-2.294h229.2a.5.5,0,0,0,.5-.5v-18A.5.5,0,0,0,734.367,340.886Zm-250.92-27.275-1.782-6.943,1.02.27a.5.5,0,0,0,.628-.5,9.784,9.784,0,0,0-1.013-4.058l1.026.33a.507.507,0,0,0,.515-.129.5.5,0,0,0,.107-.519l-1.781-4.836a.5.5,0,0,0,.378-.824l-3.52-4.15a6.652,6.652,0,0,0-3.206-1.41c-.322-.087-.648-.174-.968-.268a.5.5,0,0,0-.522.8,15.151,15.151,0,0,0,3.258,2.878l-6.471,1.163a.5.5,0,0,0,.012.987,11.2,11.2,0,0,1,6.244,3.246l-3.993,1.518a.5.5,0,0,0-.12.869l1.021.758a5.411,5.411,0,0,1-3.838,1,.492.492,0,0,0-.544.349.5.5,0,0,0,.255.594l3.419,1.706-3.924,1.15c-5.927-2.331-12.121-4.16-18.505-3.267-6.147.629-10.878,4.022-14.623,7.44-6,5.143-10,7.917-12.782,11.946l-12.174.635a.5.5,0,0,0-.159.964l2.674,1.064-1.34.131a.5.5,0,0,0-.112.971,10.129,10.129,0,0,1,3.782,2.338l-12.757.381a.5.5,0,0,0-.136.977l2.573.814-7.886.394a.5.5,0,0,0-.109.981c1.9.534,3.868,1.016,6.38,1.564a37.529,37.529,0,0,1,13.533,5.953H383.8a57.027,57.027,0,0,1-8.872-3.419.5.5,0,0,0-.7.57l.709,2.849h-1.406a7.215,7.215,0,0,0-2.429-.29.5.5,0,0,0-.423.29h-52.5a22.546,22.546,0,0,0-.6-7.441c-2.094-9.444-6.509-12.058-15.13-20.266-3.574-3.622-8.14-7.273-14.288-8.243a24.363,24.363,0,0,0-2.648-.363l.471-.773a.5.5,0,0,0-.567-.74l-1.026.3a65.616,65.616,0,0,0-.449-12.742q1.638-1.132,3.289-2.249a.449.449,0,0,0,.358-.022.489.489,0,0,0,.262-.391q4.043-2.714,8.161-5.311a29.615,29.615,0,0,0,13.667-3,.5.5,0,0,0-.085-.929c-1.556-.447-3.085-.966-4.589-1.541q5.547-3.254,11.217-6.293a62.074,62.074,0,0,0,6.524,1.195c-.34.617-.689,1.242-1.025,1.85-.388.745-.766,1.495-1.147,2.243a12.44,12.44,0,0,1-3.11,1.619.5.5,0,0,0-.331.4.5.5,0,0,0,.2.477,2.232,2.232,0,0,0,1.83.3c-.457.919-.914,1.838-1.362,2.762-.935.419-1.874.832-2.821,1.206a.5.5,0,0,0,.175.965c.537.009,1.072.011,1.607.014-3.481,7.339-6.665,14.821-9.5,22.431-.79,2.145-1.636,4.523-2.319,6.565.887-2.158,1.747-4.2,2.619-6.249,2.793-6.285,6.159-14.4,10.118-22.746a133.919,133.919,0,0,0,28.466-3.122,17.524,17.524,0,0,0,3.246.788l-1.019,2.956a.5.5,0,0,0,.893.434,3.974,3.974,0,0,1,3.949-1.423,12.622,12.622,0,0,1,4.381,1.943l2.44,1.474a.51.51,0,0,0,.259.071.5.5,0,0,0,.5-.454l.22-2.379a114.073,114.073,0,0,0,16.916,1.3h0a.5.5,0,0,0,.465-.685l-.445-1.116a77.3,77.3,0,0,0,18.185-2.215.5.5,0,0,0,.268-.8l-1.635-2a43.36,43.36,0,0,1,8.13-4.259c2.264,7.628,3.967,15.271,5.072,20.81.232,1.232.452,2.5.647,3.72q-.189-2.045-.454-4.081a132.5,132.5,0,0,0-4.427-20.751,43.787,43.787,0,0,1,14.244-2.8.5.5,0,0,0,.422-.253.459.459,0,0,0,.024-.09c8.28,7,16.449,14.139,24.186,21.738.689.63,1.543,1.486,2.432,2.414-.733.313-1.472.612-2.224.875a37.546,37.546,0,0,1-11.97,2.037.526.526,0,0,0-.508.423.5.5,0,0,0,.355.557l12.463,3.591a.512.512,0,0,0,.139.019.5.5,0,0,0,.4-.8l-.591-.778,4.05.161a.473.473,0,0,0,.47-.282.5.5,0,0,0-.07-.543l-.472-.552a15.394,15.394,0,0,0,2.431.235c.433.512.769.926.949,1.177-.263-.4-.557-.781-.834-1.171a15.355,15.355,0,0,0,7.5-1.849.5.5,0,0,0,.01-.872l-3.194-1.83a33.681,33.681,0,0,0,19.605-11.508.5.5,0,0,0-.32-.815l-4.842-.627a24.607,24.607,0,0,0,6.877-4.832.5.5,0,0,0-.515-.826l-19.487,6.654a.5.5,0,0,0-.013.942l3.272,1.211a16.545,16.545,0,0,0-5.616,2.748.5.5,0,0,0,.1.858l1.506.656a76.425,76.425,0,0,1-9.044,4.959q-1.338-1.483-2.709-2.932c-7.323-7.5-15.255-14.377-23.181-21.226-.559-.492-1.132-.98-1.7-1.47a6.305,6.305,0,0,1,4.823-8.094l.142.109c4.013,3.16,7.981,6.375,11.934,9.609l-1.378.614a.5.5,0,0,0,.149.954,25.9,25.9,0,0,0,2.852.157c.159,0,.317-.011.476-.014q7.01,5.76,13.977,11.572c.968.805,2.172,1.83,2.992,2.513q-1.435-1.38-2.891-2.737c-4.19-3.928-8.525-7.694-12.923-11.385,7.785-.467,15.164-4.165,22.338-7.763q.995-.5,2-1c5.246,3.384,10.42,6.879,15.475,10.548,1.41,1.043,2.851,2.156,4.154,3.258-1.352-1.307-2.776-2.538-4.229-3.73-4.663-3.76-9.559-7.2-14.559-10.493a75.04,75.04,0,0,1,12.094-4.99c1.737.817,3.554,1.751,4.8,2.46-1.411-.94-2.885-1.78-4.378-2.583,1.137-.317,2.28-.584,3.431-.786a21.343,21.343,0,0,1,9.286,7.255l-6.53-1.495a.5.5,0,0,0-.375.912,24.8,24.8,0,0,1,9.064,9.973l-1.1-.566a.5.5,0,0,0-.72.542l1.868,9.381a35.083,35.083,0,0,0-7.32-4.473.5.5,0,0,0-.629.725,40.9,40.9,0,0,1,4.453,8.32,13.368,13.368,0,0,1,.247,9.036.509.509,0,0,0-.029.229l1.985,19.143Q486.432,315.006,483.447,313.611ZM287.818,286.923l-.3-5.7a28.851,28.851,0,0,0,6.813,1.334Q291.038,284.691,287.818,286.923Zm126.005-33.368.381-.138c-.09.071-.183.138-.273.209Zm-73.178-66.516a13.6,13.6,0,0,1-1.187,2.483c-1.056,1.026-2.159,1.986-3.144,2.764-2.7,2.133-4.1,2.216-8.242,2.464l-.839.051a23.964,23.964,0,0,1-11.008-2.157c-.082-.037-8.208-3.725-8.208-12.241a35.23,35.23,0,0,1,.845-7.263,4.282,4.282,0,0,1,1.174-1.82l.293-.328a4.775,4.775,0,0,1,2.513-1.207,37.4,37.4,0,0,1,9.038-1.191,27.56,27.56,0,0,1,4.232.317A19.75,19.75,0,0,1,341.1,178.97,14.007,14.007,0,0,1,340.645,187.039Zm-24.759,16.8c.04.029.083.055.124.083C315.969,203.889,315.926,203.863,315.886,203.834Zm4-40.678a27.984,27.984,0,0,1,12.512,1.7,18.18,18.18,0,0,1,3.824,2.14,13.261,13.261,0,0,1,2.269,4.477l-.37-.06c-.3-.255-.6-.5-.919-.743a25.336,25.336,0,0,0-13.962-4.721,46.285,46.285,0,0,0-14.612,1.845.535.535,0,0,0-.111.044l-1.454.8a.5.5,0,0,0-.229.265v.005c-.152.037-.305.068-.457.106a12.8,12.8,0,0,1,5.408-4.185A23.94,23.94,0,0,1,319.883,163.156Zm6.478,41.244a.5.5,0,0,0-.309-.893l-.061,0a27.686,27.686,0,0,1-7.438-.1,4.45,4.45,0,0,0,.847-.6.5.5,0,0,0-.081-.8,60.15,60.15,0,0,1-7.433-5.2,41.081,41.081,0,0,0,8.577.346,2.916,2.916,0,0,1-1.545.946.5.5,0,0,0-.383.554.48.48,0,0,0,.515.433,36.913,36.913,0,0,0,10.529-1.988c.093,0,.179,0,.276,0,.281,0,.578-.007.882-.018a.481.481,0,0,0,.021.44.491.491,0,0,0,.511.227,17.285,17.285,0,0,0,12.169-9.1,10.8,10.8,0,0,1-1.117,8.8,15.5,15.5,0,0,1-8.07,6.3,27.473,27.473,0,0,1-8.973,1.506Zm-59.4,20.068a.482.482,0,0,1,.106.119A.482.482,0,0,0,266.956,224.468Zm21.591,42.962c.782.04,1.583.138,2.4.243a12.7,12.7,0,0,0,6.086-.206.5.5,0,0,0,0-.937,45.292,45.292,0,0,1-8.813-4.493c8.538-4.286,17.137-8.327,25.809-11.783-.955,1.184-1.887,2.374-2.8,3.549-4.884,6.4-9.5,13.008-13.729,19.858A56.709,56.709,0,0,1,288.547,267.43ZM278.34,245.918a21.617,21.617,0,0,0,9.784-1.079.5.5,0,0,0,.324-.562.483.483,0,0,0-.5-.409,20.394,20.394,0,0,1-12.656-3.97.5.5,0,0,0-.794.461l.191,1.628a13.172,13.172,0,0,1-3.058-4.827.5.5,0,0,0-.8-.21A5.421,5.421,0,0,0,269.6,238.5a20.248,20.248,0,0,1-1.308-11.732c.134-.21.268-.42.406-.626a22.133,22.133,0,0,0,14.755,5.172,24.562,24.562,0,0,1-7.591,3.9.5.5,0,0,0,.1.976q1.274.111,2.577.111c5.72,0,11.926-1.611,18.88-4.891.92-.433,1.834-.887,2.742-1.353a7.977,7.977,0,0,1,4.869,2.5,22.939,22.939,0,0,1,3.338,5.152c-7.007,2.316-13.911,4.96-20.71,7.76-3.493,1.451-6.985,2.918-10.461,4.426A17.2,17.2,0,0,1,278.34,245.918Zm35.573-8.262a.636.636,0,0,0-.185-.222A.636.636,0,0,1,313.913,237.656ZM260.386,85.365l-1.005-10c14.119.13,29.1-.244,41.4,5.24.56.236,1.087.5,1.618.768a59.113,59.113,0,0,1,5.636,7l-6.795-4.454a.5.5,0,0,0-.706.67l2.5,4.3a29.3,29.3,0,0,1-4.668-2.664.5.5,0,0,0-.638.059,34.91,34.91,0,0,0-9.412-4.687c-7.626-2.732-15.645-4.76-23.8-4.589a35.218,35.218,0,0,0-4.255.344,37.738,37.738,0,0,1,5.111.009c9.112.7,18.982,3.7,27,7.265a37.335,37.335,0,0,1,7.544,5.073q1.37,1.762,2.629,3.6c-3.2.495-6.372,1.2-9.517,1.938-3.169.756-6.327,1.615-9.418,2.659-4.791.053-8.994.261-11.736.4-1.461.09-3.207.2-4.5.311q2.592.022,5.182.073c2.779.076,5.571.126,8.356.185a59.312,59.312,0,0,0-6.652,2.99,33.226,33.226,0,0,0-3.634,2.235,36.282,36.282,0,0,1,4.6-2.31,78.187,78.187,0,0,1,8.267-2.853c8.118.2,16.121.564,23.48,2l.2.045c1.06,2.018,2.04,4.081,2.917,6.2a.5.5,0,0,0,.386.3.487.487,0,0,0,.076.006.5.5,0,0,0,.383-.179,13.116,13.116,0,0,0,2.563-4.9,10.046,10.046,0,0,1,5.37,3.5,10.981,10.981,0,0,0-5.2-4.192,13.7,13.7,0,0,0-.559-7.931c.372,0,.738.008,1.1.02a21.362,21.362,0,0,1,7.338,5.23.5.5,0,0,0,.484.141.513.513,0,0,0,.37-.354,18.7,18.7,0,0,0,.625-2.631c.079.068.167.131.24.2a3.305,3.305,0,0,0-.228-.308,5.36,5.36,0,0,0-1.195-4.553c-6.68-7.23-14.813-15.543-24.478-22.375-10-7.07-20.211-11.485-30.344-13.122a.491.491,0,0,0-.554.334.5.5,0,0,0,.238.6c7.936,4.226,16.138,8.595,23.571,13.908a93.856,93.856,0,0,0-16.385-4.8c-1.482-.293-3.133-.585-4.54-.789q2.139.516,4.257,1.114A163.249,163.249,0,0,1,294.2,73.85q2.982,2.382,5.573,4.874c-6.521-2.741-13.65-3.443-20.642-3.946a180.947,180.947,0,0,0-19.817-.116l-.652-6.48A27.742,27.742,0,0,1,259.72,56.8c1.153-3.238,4.432-8.257,9.429-6.529.218.075.486.16.8.26,3.228,1.016,11.8,3.714,29.031,16.642l1.9,1.424c13.833,10.366,25.779,19.32,27.488,26.982a4.62,4.62,0,0,1-.918,4c-1.027.922-4.067,1.66-5.65,1.555a12.41,12.41,0,0,1-4.592-1.6.5.5,0,0,0-.655.7l3.224,5.415a9.393,9.393,0,0,1-6.827,3.276.5.5,0,0,0-.173.963l2.913,1.183c-.4,3.08-3.221,5.977-6.985,7.13a.5.5,0,0,0-.353.5c0,.007.006.012.007.019a29.321,29.321,0,0,1-9.768,1.835.5.5,0,0,0-.489.57l.433,3.075-10.143,5.163a26.471,26.471,0,0,1-9.274-.979.494.494,0,0,0-.506.139.5.5,0,0,0-.1.513l.1.281a30.94,30.94,0,0,1-3.9-3.1.5.5,0,0,0-.82.22,7.326,7.326,0,0,0,.612,5.6,13.813,13.813,0,0,1-2.445-1.558c-2.316-3.684-2.259-9.584.193-17.221a6.518,6.518,0,0,1,1.211,2.351.5.5,0,0,0,.477.366.553.553,0,0,0,.483-.356c.726-2.421.034-5.341-1.9-8.014a32.176,32.176,0,0,0-3.419-3.811c-.7-.7-1.418-1.421-2.081-2.163a26.111,26.111,0,0,1-6.555-16.012A.494.494,0,0,0,260.386,85.365Zm46,14.129A105.971,105.971,0,0,0,287.2,97.889a140.226,140.226,0,0,1,16.188-3.353Q304.978,96.957,306.383,99.494ZM468.145,85.441c-1.163-.468-2.332-.923-3.51-1.351a100.117,100.117,0,0,0-12.765-3.583,117.934,117.934,0,0,1,17.16-3.2l.078,0A26.172,26.172,0,0,1,468.145,85.441Zm148.489,243.2a48.466,48.466,0,0,0,7.9,11.326l-.167-.084a.5.5,0,0,0-.614.76l.2.247H556.5a38,38,0,0,1-4.309-9.575c-.439-1.509-.838-3.425-.013-4.866a2.529,2.529,0,0,1,1.735-1.143,1.821,1.821,0,0,1,1.49.3.5.5,0,0,0,.707-.7l-1.4-1.706,4.55.265a.522.522,0,0,0,.491-.309.5.5,0,0,0-.131-.564l-.694-.613a15.733,15.733,0,0,0,8.474-2.9.5.5,0,0,0-.236-.9,25.606,25.606,0,0,1-14.826-6.978,34.811,34.811,0,0,0,11.018-.319c2.736.279,5.48.451,8.189.619,1.116.07,2.23.139,3.342.216,2.29.158,4.606.362,6.907.66a108.208,108.208,0,0,1,11.178,4.793l-3.83.208a.5.5,0,0,0-.076.989,49.258,49.258,0,0,1,19.795,9.119.5.5,0,0,0,.624-.781l-6.5-5.405a14.91,14.91,0,0,0,3.951.684.461.461,0,0,0,.484-.319.5.5,0,0,0-.143-.562l-5.593-4.733a80.369,80.369,0,0,1,16.491,9.838c1.867,1.666,3.66,3.411,5.36,5.236l-6.214-3.458a.5.5,0,0,0-.689.662Zm-99.229,6.523a17.3,17.3,0,0,0,11.491,4.1.5.5,0,0,0,.341-.856l-4.584-4.529a11.465,11.465,0,0,0,5.8-.266.5.5,0,0,0,.105-.906,26.337,26.337,0,0,1-7.991-7.347l2.174.268a.5.5,0,0,0,.524-.305.5.5,0,0,0-.155-.586l-1.046-.814,7.264,1.019a.5.5,0,0,0,.369-.9,22.908,22.908,0,0,1-7.334-9.353l2.576,1.24a.5.5,0,0,0,.535-.837l-.906-.747a35.364,35.364,0,0,1,8.855,2.874,15.355,15.355,0,0,1,5.956,5.277.5.5,0,0,0,.46.23l.945,1.3-3.11-1.337a.5.5,0,0,0-.639.695L546.3,337a24.447,24.447,0,0,0,2.441,3.887H520.566A49.7,49.7,0,0,1,517.405,335.16Zm-117.6-72.634,1.355,0a14.7,14.7,0,0,1-.789,1.45C400.189,263.493,400,263.009,399.806,262.526ZM351.823,235.4c.15.078.3.154.458.221C352.125,235.557,351.973,235.481,351.823,235.4Zm76.3-43.3a.5.5,0,0,0,.567.242,82.061,82.061,0,0,0,9.176-3.037,50.379,50.379,0,0,1-11.161,8.9.5.5,0,0,0,.358.92,1.661,1.661,0,0,1,1.324.326l-4.968,1.642a.5.5,0,0,0-.327.6.493.493,0,0,0,.575.368,6.277,6.277,0,0,1,2.225,0,52.653,52.653,0,0,1-14.862,1.884.5.5,0,0,0-.313.9l1.845,1.415A49.282,49.282,0,0,1,402.085,204c-.53-.491-1.045-1-1.533-1.527a18.114,18.114,0,0,1-2.809-3.96,24.407,24.407,0,0,0,8.42.266,45.125,45.125,0,0,0,26.427-12.921,22.122,22.122,0,0,1-4.373,5.639A.5.5,0,0,0,428.119,192.1Zm-33.6,2.937-.034-.01Zm25.361-4.774c-.349.255-.72.512-1.12.776a27.505,27.505,0,0,1-10.828,4.321,20.892,20.892,0,0,1-3.381.087l-.847-.051c-1.222-.073-2.2-.132-3.054-.233a16.9,16.9,0,0,1-3.5-1.255,14.75,14.75,0,0,1-6.37-9.109,14.457,14.457,0,0,1-.131-5.271,19.841,19.841,0,0,1,15.029-9.971,34.07,34.07,0,0,1,13.359.875,4.818,4.818,0,0,1,2.531,1.208l.291.324a4.3,4.3,0,0,1,1.185,1.822,34.925,34.925,0,0,1,.851,7.263A12.712,12.712,0,0,1,419.879,190.267Zm5.8-21.81a18.349,18.349,0,0,1-2.288.036.541.541,0,0,0-.109-.044,47,47,0,0,0-14.706-1.845,25.6,25.6,0,0,0-14.05,4.72,19.316,19.316,0,0,0-1.5,1.248.518.518,0,0,0-.074-.059,19.517,19.517,0,0,1,6.823-6.547,25.467,25.467,0,0,1,2.9-1.373c2.418-.718,5.607-1.066,10.628-1.067,7.875.546,12.921,2.882,13.419,4.887C426.416,168.423,426.077,168.438,425.676,168.457Zm29.353,57.986-3.182.008a.5.5,0,0,0-.247.934l.86.492a17.15,17.15,0,0,1-9.893,5.614,16.829,16.829,0,0,1-5.263.058,27.187,27.187,0,0,0,8.106-4.084.5.5,0,0,0,.2-.581.489.489,0,0,0-.516-.335,6.089,6.089,0,0,1-3.477-.754,29.315,29.315,0,0,0,5.8-2.453.5.5,0,0,0-.039-.893,14.513,14.513,0,0,0-3.06-.979,37.791,37.791,0,0,0,16.164-8.982c.887-.84,1.145-1.737.69-2.4a1.978,1.978,0,0,0-1.627-.664l-4.5-.181a27.829,27.829,0,0,0,15.711-11.364c.089.024.176.054.265.08a10.2,10.2,0,0,1,2.9,3.7,8.728,8.728,0,0,0-3.827,1.281.5.5,0,0,0-.227.329.5.5,0,0,0,.086.391,13.78,13.78,0,0,1,2.591,7.515c-1.157,1.209-2.235,2.489-3.286,3.74-1.169,1.391-2.378,2.829-3.671,4.133C463.181,223.463,459.4,226.366,455.029,226.443Zm-11.392,17.391a4.048,4.048,0,0,0-.757-.736,16.694,16.694,0,0,0,7.346-3.506.5.5,0,0,0-.228-.876l-5.927-1.1a21.8,21.8,0,0,0,8.5-4.711.494.494,0,0,0,.163-.4,39.521,39.521,0,0,0,5.2-2.13,11.554,11.554,0,0,1-1.716,2.731.5.5,0,0,0,.376.823h.089c3.6,0,6.645-2.154,9.588-4.238l.433-.308a17.37,17.37,0,0,1,6.914-3.3l4.76,2.526a7.068,7.068,0,0,0-3.961,2.435.5.5,0,0,0,.26.805l1.677.427a5.209,5.209,0,0,0-2.089,2.054,4.672,4.672,0,0,0-.208,4.681l-6.549,5.8a.5.5,0,0,0,.28.872l4.245.438a94.885,94.885,0,0,1-8.4,6.858c-6.289-2.359-12.758-4.255-19.256-5.976A3.65,3.65,0,0,0,443.637,243.834Zm-44.848,16.3a42.227,42.227,0,0,0-2.2-4.3,65.022,65.022,0,0,1,6.55,3.574C401.7,259.7,400.245,259.939,398.789,260.129Zm-69.666,2.962.1.033c-.055.026-.112.049-.168.075Zm1.73.576a35.155,35.155,0,0,0,9.884,1.711c6.649,0,16.027-2.435,24.523-6.361,8.695,3.523,13.457,4.55,27.648,4.55a36.436,36.436,0,0,0,5.95-.872c.3.736.595,1.48.881,2.239a16.117,16.117,0,0,1-12.853,6.724h-.028a.5.5,0,0,0-.491.6l.248,1.2a25.379,25.379,0,0,1-11.01,2.12.469.469,0,0,0-.51.408l-.131.71a31.208,31.208,0,0,0-14.512.247l-9.079-.615a14.59,14.59,0,0,0,1.869-1.747.5.5,0,0,0-.512-.813c-7.392,2.14-13.029,1.286-19.965-3.057a7.67,7.67,0,0,0,.615-1.963.5.5,0,0,0-.546-.575c-.052,0-3.994.411-7.157.46.728-1.239,1.465-2.467,2.222-3.663C328.878,264.529,329.864,264.1,330.853,263.667Zm-6.184,4.972c-.281,0-.555-.01-.808-.023a2.526,2.526,0,0,0,.633-2.031q.934-.463,1.877-.909C325.787,266.662,325.23,267.651,324.669,268.639ZM442.537,247.4c6.861,1.728,13.719,3.739,20.374,6.1q-3.682,2.622-7.6,4.894c-3.463-2.157-6.947-4.28-10.419-6.409q-3.848-2.313-7.737-4.579Zm-159.7,37.087,3.707,3.335q-1.359.956-2.7,1.934C283.578,287.98,283.23,286.224,282.832,284.482Zm15.279-10.488c5.153-7.389,11.084-16.609,17.743-24.42,4.9-1.839,9.891-3.426,14.915-4.9a.49.49,0,0,0,.671-.029,1.191,1.191,0,0,1,.124-.1,1.94,1.94,0,0,0,.174-.152l.451-.134c2.137-.484,4.291-1.33,6.481-1.631l-.052.348a.485.485,0,0,0-.022.239.5.5,0,0,0,.5.46.482.482,0,0,0,.171-.03,1.25,1.25,0,0,0,.186-.085,1.4,1.4,0,0,0,.968-1.024c.193,0,.392,0,.577.008-.19-.017-.38-.024-.57-.028,0-.018.015-.03.019-.049a.5.5,0,0,0-.572-.614l-.763.135a.561.561,0,0,0-.414.464l-.017.12a39.65,39.65,0,0,0-6.18.787.49.49,0,0,0-.061-.336.5.5,0,0,0-.564-.218l-.863.249a.5.5,0,0,0-.357.406.49.49,0,0,0,.061.3,109.815,109.815,0,0,0-13.436,4.184,65.375,65.375,0,0,1,8.941-8.487h.017a.487.487,0,0,0,.515-.407,32.68,32.68,0,0,1,7.873-4.423,26.84,26.84,0,0,0-8.5,3.82l-1.23-.078c.041-.045.082-.09.121-.136a.5.5,0,0,0-.476-.817,7.741,7.741,0,0,0-2.186.788.5.5,0,0,0-.2.678.329.329,0,0,1,.081.52.5.5,0,0,0,.451.417c.048,0,.095,0,.141,0a1.873,1.873,0,0,0,1.26-.5l.728.046a55.4,55.4,0,0,0-9.486,9.32c-9.063,3.515-18.861,8.134-27.966,12.767a47.314,47.314,0,0,1-10.357-9.7c.018-.317.051-.632.085-.947q15.56-6.765,31.751-12.242c.21.393.416.79.636,1.176,1.878,3.3,3.959,5.264,6.36,6.009a.509.509,0,0,0,.149.023.5.5,0,0,0,.42-.771l-3.156-4.9a2.626,2.626,0,0,1-.632-1.838.741.741,0,0,1,.6-.468.316.316,0,0,1,.173.015l.139.167a.5.5,0,0,0,.83-.547,1.167,1.167,0,0,0-.291-.368l-.087-.1c4.433-1.3,8.913-2.436,13.377-3.622,3.665-.858,7.231-2.225,10.929-2.888a165.185,165.185,0,0,0-24.989,5.691l-2.568-3.077.6-.636a.5.5,0,0,0,.06-.611l-1.232-1.947a42.937,42.937,0,0,1,8.1-9.512l.169-.082c1.6-.762,3.224-1.555,4.78-2.471a27.705,27.705,0,0,0,22.476-15.611l.006,1.21a.5.5,0,0,0,.775.414c5.889-3.893,7.288-11.648,7.6-15.924.17-2.355.154-4.754.138-7.073-.008-1.318-.017-2.653.009-3.99a20.744,20.744,0,0,0,.557-3.33,41.174,41.174,0,0,0-.2-6.927c-.11-1.27-.223-2.584-.263-3.869-.137-4.351.7-7.573,2.564-9.849a.5.5,0,0,0-.7-.7l-1.217.99a53.042,53.042,0,0,0,5.389-28.014c-.573-6.685-2.629-11.557-6.112-14.479a.5.5,0,0,0-.8.541,17.575,17.575,0,0,1,.914,5.5,50.842,50.842,0,0,0-12.876-2.408.5.5,0,0,0-.421.809,18.308,18.308,0,0,1,3.6,7.844L339.6,121.6a.5.5,0,0,0-.538.767,18.723,18.723,0,0,1,3.111,13.039c0,.025-.009.049-.012.073a30.6,30.6,0,0,0-3.03-3.927.5.5,0,0,0-.86.429l.892,4.837a.5.5,0,0,0-.407-.011.5.5,0,0,0-.286.614,26.445,26.445,0,0,1,1.256,8.238,22.3,22.3,0,0,0-12.417-8.083.5.5,0,0,0-.491.818l1.317,1.486a41.038,41.038,0,0,0-21.842,7.584.5.5,0,0,0,.2.9l4.845.9a36.026,36.026,0,0,0-13.126,12.513.5.5,0,0,0,.73.659,40.361,40.361,0,0,1,4.514-3.007,19.5,19.5,0,0,0-2.242,3.721.5.5,0,0,0,.738.621,60.754,60.754,0,0,1,16.239-7.9,63.087,63.087,0,0,0-11.389,7.854,20.037,20.037,0,0,0-2.193,1.2,13.247,13.247,0,0,0-5.331,6.19,23.4,23.4,0,0,1-19.146-2.051.5.5,0,0,0-.741.289,17.658,17.658,0,0,0,.274,10.6l-.668-.311a.5.5,0,0,0-.709.405c-.165,1.725.686,3.239,1.508,4.7.131.234.262.467.387.7.613,1.135,1.484,3.253.425,4.672a4.1,4.1,0,0,1-2.815,1.329,13.507,13.507,0,0,1-12.14-4.845,46.752,46.752,0,0,0-1.051-7.443.5.5,0,0,0-.843-.241l-1.095,1.1a38.731,38.731,0,0,0-.262-7.34c-.144-1.456-.294-2.961-.335-4.431a20.808,20.808,0,0,1,.185-3.358,10.519,10.519,0,0,1,3.806-3.586,28.137,28.137,0,0,1,8.523-2.656.5.5,0,0,0-.162-.987.551.551,0,0,1-.51-.27,1.185,1.185,0,0,1-.13-1.126,3.3,3.3,0,0,1,2.069-1.362,8.93,8.93,0,0,1,5.32-.4.5.5,0,0,0,.529-.795,23.551,23.551,0,0,1-5.141-12.582l4.019,1.906a.5.5,0,0,0,.643-.709,7.808,7.808,0,0,1-.87-3.861,23.71,23.71,0,0,0,4.118.6h.026a.5.5,0,0,0,.431-.754l-1.908-3.24a11.338,11.338,0,0,1,6.492.295.5.5,0,0,0,.609-.7l-1.072-2.05a112.665,112.665,0,0,1,16.59-5.631.5.5,0,0,0,.316-.724L305,124.515a28.455,28.455,0,0,0,7.98-4.708c1.026.093,2.054.151,3.085.151a34.411,34.411,0,0,0,3.641-.194.5.5,0,0,0,.228-.911,4.445,4.445,0,0,1-1.615-2.022,35.6,35.6,0,0,1,10.017-.429.524.524,0,0,0,.386-.128.5.5,0,0,0,.163-.373l-.016-2.686,2.918,2.013a.5.5,0,0,0,.618-.039,18.108,18.108,0,0,0,5.465-9.278c.848,1.94,2.1,2.931,3.565,2.842,1.511-.1,2.556-1.359,3.212-2.3a21.493,21.493,0,0,0,3.473-8.815,16.992,16.992,0,0,1,1.939-2.193,9.131,9.131,0,0,1,7.139-2.714,13.734,13.734,0,0,1,2.695.714,20.874,20.874,0,0,0,2.008.6c2.653.607,5.368.173,7.994-.248.968-.155,1.968-.316,2.943-.419a26.48,26.48,0,0,1,10.264.943,21.933,21.933,0,0,0,4.8,11.37,4.633,4.633,0,0,0,3.306,2h.081c1.476-.042,2.6-1.142,3.259-3.144a18.146,18.146,0,0,0,6.246,8.729.5.5,0,0,0,.622-.018L404.1,111l.231,2.672a.5.5,0,0,0,.2.356.494.494,0,0,0,.395.091,35.021,35.021,0,0,1,9.928-.485,4.436,4.436,0,0,1-1.411,2.163.5.5,0,0,0,.311.885c.171,0,.342,0,.513,0a33.711,33.711,0,0,0,10.26-1.6.5.5,0,0,0-.049-.966c-3.821-.8-6.868-3.434-7.552-6.465l2.769-1.442a.5.5,0,0,0-.263-.943,9.274,9.274,0,0,1-7.04-2.64l2.688-5.687a.5.5,0,0,0-.718-.637,12.252,12.252,0,0,1-4.386,2.013c-1.571.248-4.622-.21-5.719-1.033a4.66,4.66,0,0,1-1.274-3.9c.985-7.786,11.961-17.79,24.671-29.373l1.742-1.589c15.828-14.441,24.047-17.909,27.14-19.214.306-.129.562-.238.772-.333,4.771-2.174,8.469,2.525,9.9,5.644A27.936,27.936,0,0,1,469.3,59.753l-.128,17.188c-.039,0-.078,0-.117,0a79.675,79.675,0,0,0-18.472,2.721c-.464.116-.928.239-1.391.361-6.418-1.032-12.953-1.074-18.924.9.179-.331.353-.665.535-.994,9.927-3.472,20.682-5.169,31.518-6.729,1.063-.148,2.268-.3,3.268-.425q-2.033.109-4.063.256c-10.147.85-20.559,2.007-30.028,5.4a.474.474,0,0,0-.529-.443,15.475,15.475,0,0,0-4.743,1.18q1.507-1.8,3.05-3.608a90.145,90.145,0,0,1,11.542-4.988c5.211-1.872,10.408-3.834,15.782-5.193a31.254,31.254,0,0,1,4.059-.752,34.9,34.9,0,0,0-5.154.622,105.416,105.416,0,0,0-16.3,4.657,74.034,74.034,0,0,0-7.732,3.113,122.608,122.608,0,0,1,9.384-9.686c6.621-6.033,13.417-10.265,20.2-12.58a.5.5,0,0,0-.152-.973,24.485,24.485,0,0,0-13.955,4.106h0c-8.611,6.19-17.045,12.847-25.066,19.788-5.737,4.965-11.515,10.429-13.611,17.8a.5.5,0,0,0,.676.6,43.808,43.808,0,0,0,6.315-3.335L414,90.494a.5.5,0,0,0,.568.764l4.587-1.581a16.334,16.334,0,0,0,1.585,10.191.5.5,0,0,0,.444.268h.031a.5.5,0,0,0,.437-.324c.176-.473.376-.939.557-1.41-.04.212-.084.423-.109.638,1.479-4.855,6.147-8.823,12.134-11.99.842.127,1.681.258,2.521.383,5.6.975,11.425,2.122,16.567,4.349.772.337,1.625.759,2.309,1.134a28.265,28.265,0,0,0-2.675-1.579,56.876,56.876,0,0,0-16.807-5.25,84.734,84.734,0,0,1,13.124-4.868,128.617,128.617,0,0,1,15.1,3.227c1.223.337,2.517.723,3.744,1.108a26.073,26.073,0,0,1-4.013,8.268c-.585.8-1.231,1.584-1.855,2.342a32.159,32.159,0,0,0-3.028,4.109c-1.66,2.836-2.075,5.806-1.137,8.149a.5.5,0,0,0,.956-.1,6.52,6.52,0,0,1,.975-2.444c3.428,8.106,3.82,14.395,1.128,18.219a8.582,8.582,0,0,1-2.844,2.543,13.936,13.936,0,0,1-5.094.55,4.1,4.1,0,0,1-3.1-1.292,1.822,1.822,0,0,1-.184-1.67,1.217,1.217,0,0,1,.385-.53q.233-.088.461-.187a.5.5,0,0,0-.289-.951,1.87,1.87,0,0,0-.629.242,12.258,12.258,0,0,1-9.46-.464l1.669-3.365a.5.5,0,0,0-.636-.685c-3.708,1.5-8.465,2.862-12.736.3a7.832,7.832,0,0,0,1.978-4.115.5.5,0,0,0-.809-.443,14.993,14.993,0,0,1-7.959,3.2.5.5,0,0,0-.05.989,18.543,18.543,0,0,1,10.531,6.132.5.5,0,0,0,.53.153l2.9-.909a3.636,3.636,0,0,0-.285,1.143.5.5,0,0,0,.133.382.54.54,0,0,0,.373.158,20.775,20.775,0,0,1,10.513,2.7l-3.19,1.535a.5.5,0,0,0,.093.935,28.341,28.341,0,0,0,10.6.718,17.115,17.115,0,0,1-4.247,4.708.5.5,0,0,0,.372.894l3.776-.544,0,0a.5.5,0,0,0,.592.059l.332-.2,3.029-.437a7.351,7.351,0,0,1-3.52,4.315.5.5,0,0,0,.183.938,11.082,11.082,0,0,1,2.522.585,23.343,23.343,0,0,1-2.681,5.532.5.5,0,0,0,.6.741,8.588,8.588,0,0,1,5.041-.133q1.256,1.086,2.419,2.268c-.013.027-.02.058-.035.084a.592.592,0,0,1-.472.309.475.475,0,0,0-.517.464.5.5,0,0,0,.446.532c.7.075,1.4.15,2.1.237a42.627,42.627,0,0,1,9.839,19.9,7.071,7.071,0,0,1-4.593,3.338,9.2,9.2,0,0,1-6.926-1.821,21.752,21.752,0,0,1-5.062-5.6l-.25-.37c-1.252-1.849-2.647-3.91-4.667-5l1.332-.6a.5.5,0,0,0-.113-.948,20.963,20.963,0,0,1-3.742-1.065,7.017,7.017,0,0,0,3-3.749.506.506,0,0,0,.022-.1c.028-.244.064-.512.1-.8a17.519,17.519,0,0,0,.205-4.227.5.5,0,0,0-.951-.154,12.938,12.938,0,0,1-6.152,5.988,23.816,23.816,0,0,1-8.592,2.149.5.5,0,0,0-.147.961,13.756,13.756,0,0,1,2.18,1.12,23.916,23.916,0,0,1-9.336-3.711,4.805,4.805,0,0,1,2.163-.255.487.487,0,0,0,.541-.371.5.5,0,0,0-.294-.588,27.671,27.671,0,0,0-11.885-2.028c-.116-.213-.238-.422-.371-.627a41.178,41.178,0,0,1,14.255-4.062.5.5,0,0,0,.007-1,37.17,37.17,0,0,1-6.865-1.4l4.043-.4a.5.5,0,0,0,.255-.9,13.617,13.617,0,0,0-4.587-2.271l2.547-.313a.5.5,0,0,0,.1-.968,51.74,51.74,0,0,0-28.958-1.393l1.645-1.415a.5.5,0,0,0,.127-.589.494.494,0,0,0-.532-.284,23.468,23.468,0,0,0-9.585,3.858c.123-1.729.372-3.437,1.051-4.323a.5.5,0,0,0-.614-.755c-1.444.7-3.728,3.043-5.318,4.929a15.268,15.268,0,0,0-.223-3.42,8.776,8.776,0,0,1,.105-4.369.5.5,0,0,0-.838-.508,3.97,3.97,0,0,1-.631.562c.049-.329.108-.737.178-1.233a30.036,30.036,0,0,1,.814-4.433.5.5,0,0,0-.563-.814,17.574,17.574,0,0,0-2.253,1.57c-.57.436-1.155.883-1.616,1.187-.806-2.74.281-9.768,2.22-11.313a.5.5,0,0,0-.53-.84,16.581,16.581,0,0,1-3.123.747c-.911.169-1.79.331-2.479.517a19.292,19.292,0,0,1,1.149-3.04c.424-.958.906-2.043,1.42-3.518a.5.5,0,0,0-.6-.647,48.257,48.257,0,0,0-10.658,4.165,51.747,51.747,0,0,1,.477-5.21.5.5,0,0,0-.9-.361c-.156.217-3.831,5.329-4.415,7-2.842,8.131-2.311,23.832,1.094,32.309a.491.491,0,0,0,.523.31.5.5,0,0,0,.436-.423l.01-.068a17.1,17.1,0,0,1,1.8,9.185.5.5,0,0,0,.889.355,12.966,12.966,0,0,0,1.506-2.385l1.225,28.26a.5.5,0,0,0,.683.444l1.614-.632a21.95,21.95,0,0,0,5.143,16.263c2.709,4.024,7.053,6.6,10.889,8.875a.5.5,0,0,0,.753-.474l-.207-2.347a13.505,13.505,0,0,1,4.83,2.925.5.5,0,0,0,.829-.478l-.573-2.439a21.357,21.357,0,0,0,6.385,3.789,3.767,3.767,0,0,0-.736,1.451.5.5,0,0,0,.63.6,8.719,8.719,0,0,1,7.34,1.145l-2.124.418a.5.5,0,0,0-.018.977,76.376,76.376,0,0,1,9.658,2.988,8.941,8.941,0,0,0-2.864.79.5.5,0,0,0,.119.944,25.969,25.969,0,0,1,5.654,1.771l4.2,3.3-1.031,0a.5.5,0,0,0-.477.648l1.152,3.734-1.6-.412a.507.507,0,0,0-.535.2.5.5,0,0,0,0,.571,8.373,8.373,0,0,1,1.493,4.645l-.98-.293a.5.5,0,0,0-.61.3l-1.463,3.778a119.336,119.336,0,0,0-13.361-5.442,58.91,58.91,0,0,0-8.787-2.072c-1.637-.159-3.394-.479-4.98.069,2.151-.443,4.407.27,6.508.747a100.353,100.353,0,0,1,9.923,3.265c3.5,1.288,6.932,2.783,10.324,4.4l-.72,1.86-.119-.551a.491.491,0,0,0-.523-.394.5.5,0,0,0-.465.461c-.014.184-.05.366-.071.55-9.262-1.13-18.605-1.095-27.649,1.283l-.9-.176-.086-.05a.5.5,0,0,0-.647.126h-.007a.5.5,0,0,0-.493.426.484.484,0,0,0,.044.272c-.145.045-.291.081-.436.127.151-.032.3-.058.454-.089a.487.487,0,0,0,.334.254,2.39,2.39,0,0,0,.672.069l.153.016.759.442a.509.509,0,0,0,.252.067.5.5,0,0,0,.432-.247.487.487,0,0,0,.05-.118.5.5,0,0,0,.079-.99l-.022,0a93.937,93.937,0,0,1,26.874-.426,14.039,14.039,0,0,1-1.242,3.653l-4.636,6.57a45.679,45.679,0,0,0-11.1-5.281,59.053,59.053,0,0,1,11.629,6.557,42.683,42.683,0,0,1-8.433,4.888c-.141.034-.282.063-.423.095a68.293,68.293,0,0,0-8.764-4.777,24.9,24.9,0,0,0-4.914-5.49,26.808,26.808,0,0,1,3.806,5.017,51.319,51.319,0,0,0-5.944-2.088l-2.311-1.2a.5.5,0,0,0-.5.021.513.513,0,0,0-.214.289,5.394,5.394,0,0,0-1.017-.338l-.013,0-.475-.327-.221-.214a.514.514,0,0,0-.357-.14.493.493,0,0,0-.552.7c-1.07-.156-2.148-.28-3.241-.351a34.469,34.469,0,0,1,3.564.66l.105.072c.089.087.181.17.277.25l.655.633a4.16,4.16,0,0,0,1.495,1.422.493.493,0,0,0,.243.064,1.023,1.023,0,0,1,.924-.879.493.493,0,0,0,.122-.321l1.812.945a.5.5,0,0,0,.675-.213l0-.009c1.977.75,3.9,1.579,5.777,2.405.864,1.544,1.687,3.233,2.474,5.009a59.976,59.976,0,0,1-26.616-3.012,6.156,6.156,0,0,1-3.052-1.992,2.324,2.324,0,0,1,.023-2.971.5.5,0,0,0,.159-.462.5.5,0,0,0-.309-.376,3.032,3.032,0,0,1-1.866-2.785c0-.079.016-.156.024-.234.288-.268.586-.53.889-.783l.477-.4a19.878,19.878,0,0,0,6.195-9.9,8.429,8.429,0,0,0,6.378-2.87,2.925,2.925,0,0,0,.885-2.128,2.831,2.831,0,0,0-.944-1.764,6.759,6.759,0,0,0-5.041-1.932.5.5,0,0,0-.209.941,7.3,7.3,0,0,0,1.764.59,8.624,8.624,0,0,1,1.218.357c.762.309,1.457,1.06,1.25,1.734a2.3,2.3,0,0,1-.744.923,6.066,6.066,0,0,1-2.157,1.443,6,6,0,0,1-2.663-.068c-.255-.043-.51-.086-.763-.121-1.23-.172-2.9-.124-3.853,1.068-.821,1.027-.823,2.486.01,4.5a2.869,2.869,0,0,1,.351,1.587,2.768,2.768,0,0,1-.78,1.148,27.357,27.357,0,0,1-3.176,3.007c-.6.457-1.07.627-1.415.515a1.937,1.937,0,0,1-.634-.448l-3.2-2.919c-.719-.656-1.42-1.364-1.4-2.178a3.221,3.221,0,0,1,.5-1.366,6.162,6.162,0,0,0,.515-1.162,3.326,3.326,0,0,0-1.734-3.807,5.926,5.926,0,0,0-3.28-.229l-.515.058a3.455,3.455,0,0,1-2.683-.58,1.785,1.785,0,0,1,.072-.618,3.277,3.277,0,0,1,2.106-1.913,11.745,11.745,0,0,1,2.544-.52l.686-.093a7.454,7.454,0,0,0,3.408-1.184.5.5,0,0,0,.073-.741,4.5,4.5,0,0,0-4.281-1.322c-.193.045-.387.1-.58.163a2.465,2.465,0,0,1-1.271.174c-.99-.262-1.035-1.918-1.008-2.618A53.393,53.393,0,0,1,356.1,209.4h0a17.2,17.2,0,0,1,2.476-4.559.5.5,0,0,0-.632-.746c-1.927,1.029-3.211,2.969-4.243,4.529-1.992,3.011-4.251,6.425-4.672,10.352-.065.61-.085,1.225-.1,1.821a15.383,15.383,0,0,1-.217,2.537,15.169,15.169,0,0,1-.583,1.974,15.1,15.1,0,0,0-.655,2.308,8.073,8.073,0,0,0,2.74,7.271,4.12,4.12,0,0,0,.351.461,8.05,8.05,0,0,0,2.678,1.76c.187.089.373.178.557.27a4.134,4.134,0,0,1,2.334,2.159,5.027,5.027,0,0,1,.163,1.484,5.084,5.084,0,0,0,.309,2.02,5.263,5.263,0,0,0,2.41,2.213l.42.25a12.315,12.315,0,0,1,2.613,2.135,5.437,5.437,0,0,1-.3,2.475l-.18.511c-.469,1.3-1,2.783-.47,4.195.049.131.107.26.166.39a1.74,1.74,0,0,1,.221.725c-.015.312-.334.482-1.007.77a7.05,7.05,0,0,0-.731.347,37.134,37.134,0,0,1-15.9,5.06,49.31,49.31,0,0,1-8.8-.232c5.919-2.516,11.816-5.067,17.114-8.663l-.171.265a.5.5,0,0,0,.776.622,6.417,6.417,0,0,1,1.078-.88.5.5,0,0,0,.775.516,2.809,2.809,0,0,0,.945-1.15,5.752,5.752,0,0,0,2.258-1.9.5.5,0,0,0-.545-.777,5.283,5.283,0,0,0-2.58,1.757l-.059.023a.587.587,0,0,1-.2-.13c.326-.25.655-.5.975-.758-.35.223-.713.422-1.068.638a.88.88,0,0,1-.089-.116.5.5,0,0,0-.42-.255.459.459,0,0,0-.435.228l-.746,1.152c-6.328,3.6-13.16,6.22-19.86,9.1q-1.179-.206-2.3-.474a77.69,77.69,0,0,1,5.029-6.5.5.5,0,0,0,.044.547l.553.7a.5.5,0,0,0,.393.19.493.493,0,0,0,.287-.091l1.48-1.038,0,0a.5.5,0,0,0-.572-.819c-.315.218-.588.409-1.682.254a.491.491,0,0,0-.468.213,42.884,42.884,0,0,1,9.928-8.7.586.586,0,0,0,.351.167l.058,0c.35,0,.635-.306.872-.9.6-.319,1.195-.622,1.8-.888-.587.2-1.161.427-1.724.665a.5.5,0,0,0-.133-.487.5.5,0,0,0-.536-.1l-.7.3a.5.5,0,0,0-.3.54,1.581,1.581,0,0,0,.141.453c-6.682,3.3-11.691,8.946-15.887,15.222a23.48,23.48,0,0,1-7.991-3.69.5.5,0,0,0-.78.548c.518,1.649,3.609,3.565,7.518,5.075-.258.408-.516.816-.769,1.227-.724.344-1.445.692-2.161,1.052-.371.187-.74.379-1.111.567-.03-.055-.05-.107-.085-.164a.5.5,0,0,0-.328-.23.517.517,0,0,0-.391.085,17.948,17.948,0,0,1-11.758,3.281.493.493,0,0,0-.53.4.5.5,0,0,0,.335.573c1.105.361,2.222.686,3.346.985Q309.205,273.5,303.8,276.7A56.836,56.836,0,0,1,298.111,273.994ZM427.467,86.362a45.15,45.15,0,0,1,4.654.388c-3.164,1.968-6.483,4.67-8.413,7.865C424.868,91.825,426.137,89.078,427.467,86.362Zm4.087-.922a27.019,27.019,0,0,0-3.6-.076q.836-1.675,1.714-3.325a46,46,0,0,1,16.5-1.178,67.528,67.528,0,0,0-11.759,4.566c-.183.1-.371.2-.557.306C433.087,85.628,432.321,85.526,431.554,85.44Zm-107.4,186.819a12.465,12.465,0,0,1-1.846,2.409q.661-1.245,1.34-2.476C323.821,272.211,323.989,272.241,324.158,272.259Zm-3.744,6.314c.158-.058.314-.115.465-.167a1.943,1.943,0,0,1,1.65.192.379.379,0,0,1,.155.379c-.047.326-.471.591-.878.807-.92.486-1.862.94-2.806,1.385q.62-1.269,1.26-2.539Zm103.642-17.487a.554.554,0,0,0,.5-.437.5.5,0,0,0-.379-.549,2.537,2.537,0,0,1-1.572-2.855,6.68,6.68,0,0,1,2-3.4,23.547,23.547,0,0,1,10.872-6.275c1.239.71,2.478,1.422,3.715,2.147q7.682,4.493,15.272,9.149a95.3,95.3,0,0,1-16.321,7.33.5.5,0,0,0,.123.972l4.255.316-6.939,3.095q-4.6-3.808-9.24-7.559-1.212-.957-2.428-1.929C423.965,261.092,424.01,261.084,424.056,261.086ZM288.56,364.831a7.091,7.091,0,0,1-.5-1.014c-.829-2-2.028-6.84-4.487-3.964a6.034,6.034,0,0,0-.547,4.92,2.723,2.723,0,0,0,.158.342,5.119,5.119,0,0,1-1.687-.51c-4.968-2.738-6.165-7.27-6.531-12.414.9-4.278,2.573-8.3,3.716-12.9a29.39,29.39,0,0,0,1.038-6.47,31.828,31.828,0,0,1,.2-4.23,43.077,43.077,0,0,0-1.58,4.143c-.453,1.167-.967,2.3-1.516,3.422-.277.468-.538.922-.779,1.36q.31-2.068.665-4.124l.087-.442c-.815,1.682-1.554,3.406-2.257,5.147-2.852,6.862-4.633,13.642-3.352,19.772.572,2.118.943,4.37,3.047,6.966-.363-.118-.73-.229-1.108-.312-.9-.265-1.855-.737-2.77-.3-1.166.418-1.246,1.967-.774,3.007a2.158,2.158,0,0,0,.461.659,6.766,6.766,0,0,1-2-.361,10.933,10.933,0,0,1-3.343-2.524l.008.007.011.011-.013-.014,0,0c-3.313-3.583-3.034-4.816-4.181-10.3a79.433,79.433,0,0,1-1.524-14.67c-.069-3.178.52-6.307.673-9.465-1,3.275-2.494,6.377-3.2,9.766-1.672,7.3-1.908,15.392,1.08,22.371a11.677,11.677,0,0,0,2.688,3.577c.02.018.039.033.059.052a5.041,5.041,0,0,1-.731-.149,12.446,12.446,0,0,1-3.679-1.463c-1.832-.649-1.141,1.153.048,2.212a10.006,10.006,0,0,1-2.931-.183c-2.117-.693-2.223-1.227-3.578-2.537a29.573,29.573,0,0,1-4.973-6.65,46.617,46.617,0,0,1-5.111-10.788,17.39,17.39,0,0,1,.494-2.392c1.118-3.341,2.429-5.455,3.926-8.844.555-1.142,1.3-2.6,2.13-4.024q-.885.783-1.742,1.6c-2.215,2.21-4.7,4.7-6.014,7.676a21.135,21.135,0,0,1,.032-4.318c-3.632,8.991-1.247,20.1,4.764,27.355a13.318,13.318,0,0,1-5.075-2.548c-5.34-4.368-8.5-13.33-8.362-19.934.594-15.671,11.612-19.912,34.751-29.441,8.48-3.146,19.932-7.319,27.916-2.513a9.76,9.76,0,0,1,2.855,3.3c.08.122,1.281,3.211,1.912,4.584.685,1.676,1.627,3.217,2.442,4.814a6.514,6.514,0,0,0,.877,1.76,13.794,13.794,0,0,1-.066-2.353c.08-1,.227-2.492,1.063-3.28a21.218,21.218,0,0,1,12.367,11.732c.9,3.07,1.609,9.17,1.115,10.883a14.7,14.7,0,0,1-.652,1.632,3.334,3.334,0,0,1-.224.356l-.032.032c-.831.942-4.963,1.065-7.221,2.9a12.741,12.741,0,0,0-1.831,1.929c-.016-1.033-.073-2.066-.163-3.091a25.865,25.865,0,0,0-5.375-14.675,25.817,25.817,0,0,1,2.567,13.734c-.028,1.1-.111,2.185-.235,3.234,0-.024-.007-.049-.012-.073a62.97,62.97,0,0,0-4.847-13.262c.356,4.346,2.05,11.724,3.183,17.274C301.994,361.112,288.643,364.8,288.56,364.831ZM497.8,363.377a13.2,13.2,0,0,1-5.173,2.265c6.366-6.909,9.355-17.871,6.261-27.049a21.307,21.307,0,0,1-.211,4.313c-1.134-3.043-3.457-5.667-5.528-8q-.8-.865-1.636-1.7c.746,1.468,1.4,2.965,1.885,4.136,1.292,3.466,2.472,5.649,3.392,9.047a17.449,17.449,0,0,1,.355,2.414,46.815,46.815,0,0,1-5.672,10.49,29.576,29.576,0,0,1-5.3,6.364c-1.417,1.234-1.552,1.76-3.689,2.335a9.841,9.841,0,0,1-2.915.021c1.238-.991,2.024-2.752.172-2.206a12.3,12.3,0,0,1-3.728,1.258,4.861,4.861,0,0,1-.732.108c.02-.017.04-.031.06-.048a11.669,11.669,0,0,0,2.866-3.423c3.354-6.8,3.576-14.893,2.329-22.275-.509-3.423-1.81-6.6-2.621-9.928-.026,3.162.381,6.318.134,9.487a79.986,79.986,0,0,1-2.336,14.563c-1.445,5.41-1.238,6.656-4.723,10.051l0,0-.013.014.011-.011.009-.007a10.829,10.829,0,0,1-3.456,2.335,6.679,6.679,0,0,1-2,.251,2.174,2.174,0,0,0,.494-.632c.526-1.013.534-2.564-.6-3.046-.881-.489-1.855-.071-2.761.144-.38.062-.75.153-1.116.25,2.231-2.475,2.725-4.7,3.411-6.786,1.615-6.05.232-12.918-2.208-19.926-.6-1.776-1.234-3.539-1.947-5.264l.062.447c.154,1.381.3,2.766.426,4.154q-.321-.677-.7-1.4c-.48-1.146-.926-2.31-1.309-3.5a42.817,42.817,0,0,0-1.332-4.224,32.2,32.2,0,0,1-.035,4.235,29.524,29.524,0,0,0,.665,6.517c.873,4.653,2.308,8.76,2.955,13.08-.652,5.116-2.093,9.574-7.17,12.034a5.053,5.053,0,0,1-1.7.416,2.64,2.64,0,0,0,.176-.333,6.069,6.069,0,0,0-.265-4.942c-2.274-3.008-3.735,1.756-4.67,3.71a7,7,0,0,1-.549.985c-.081-.032-13.1-4.455-10.447-14.6,1.435-5.478,3.529-12.751,4.127-17.07a63.315,63.315,0,0,0-5.55,12.972c-.006.024-.01.049-.015.073-.064-1.054-.086-2.145-.051-3.242a25.992,25.992,0,0,1,3.316-13.57,25.987,25.987,0,0,0-6.152,14.354c-.142.987-.253,1.983-.327,2.981-.063-.041-.118-.086-.179-.128a12.6,12.6,0,0,0-1.536-1.8c-2.134-1.958-6.222-2.309-6.993-3.294l-.029-.034a3.364,3.364,0,0,1-.2-.368,14.615,14.615,0,0,1-.554-1.665c-.394-1.738.653-7.789,1.717-10.8a21.163,21.163,0,0,1,12.916-11.03c.784.833.846,2.328.869,3.333a13.929,13.929,0,0,1-.2,2.345,6.516,6.516,0,0,0,.968-1.709c.9-1.549,1.918-3.036,2.691-4.671.7-1.336,2.067-4.354,2.153-4.471a9.764,9.764,0,0,1,3.014-3.136c8.183-4.356,19.3.442,27.523,4.051,22.394,10.792,33.073,15.635,32.78,31.314C506.983,350.539,503.342,359.312,497.8,363.377Z"/></svg>