<svg id="a0eebcbf-c831-4e8a-b2c8-e51685bcbe97" data-name="Layer 2" xmlns="http://www.w3.org/2000/svg" viewBox="0 0 662 423.691" style="fill: #215342;" height="265" width="315"><path d="M371.676,151.553a15.719,15.719,0,0,0-6.617-4.7,29.55,29.55,0,0,0-21.741-.357.5.5,0,0,0-.14.854c2.263,1.855,1.953,5.857,1.949,5.969.024.39.563,8.808,3.942,11.779.026.035.052.07.08.1,2.141,2.731,6.431,5,8.838,5.2.723.062,1.446.088,2.17.088a58.22,58.22,0,0,0,7.61-.666,15.091,15.091,0,0,0,4.091-.937,5.448,5.448,0,0,0,3.093-3.073,7.814,7.814,0,0,0,.1-3.561C374.618,158.876,374.076,154.673,371.676,151.553Zm-19.862-2.909c2.282-1.042,4.967-.657,7.678.141a6.085,6.085,0,0,0-3.609,1.819.5.5,0,0,0,.647.755,1.934,1.934,0,0,1,2.105.051,2.461,2.461,0,0,1,1.011,2.021,3.352,3.352,0,0,1-.921,2.224,2.116,2.116,0,0,1-2.654.585,2.672,2.672,0,0,1-1.449-1.263,1.7,1.7,0,0,1-.151-.85,6.378,6.378,0,0,1,.395-.887.5.5,0,0,0-.808-.577,2.284,2.284,0,0,0-.565,1.235,7.671,7.671,0,0,0,6.276,10.124,7.387,7.387,0,0,0,.939.059,7.673,7.673,0,0,0,7.493-9.5.5.5,0,0,0-.482-.382h0a.5.5,0,0,0-.483.373,1.249,1.249,0,0,1-.733.821,1.686,1.686,0,0,1-1.689-.448,2.012,2.012,0,0,1-.634-1.474,1.55,1.55,0,0,1,.743-1.291,1.24,1.24,0,0,1,1.371.1.5.5,0,0,0,.6.021,13.513,13.513,0,0,1,3.258,3.774,8.027,8.027,0,0,1,.851,6.87,7.153,7.153,0,0,1-3.666,3.628,13.853,13.853,0,0,1-5.291,1.157,17.3,17.3,0,0,1-7.658-1.183,11.388,11.388,0,0,1-4.208-3.053,63.428,63.428,0,0,1-1.967-7.216C348.01,154.57,347.951,150.406,351.814,148.644Z"/><path d="M376.044,222.074a29.88,29.88,0,0,0,9.368-2.3l.289-.113a11.505,11.505,0,0,1,4.353-1.086,11.11,11.11,0,0,1,4.205,1.317c.345.159.69.318,1.035.468a23.921,23.921,0,0,0,18.387.218.5.5,0,0,0-.245-.96,37.866,37.866,0,0,1-18.145-2.36,7.648,7.648,0,0,1-2.865-1.7,5.011,5.011,0,0,1-1.2-2.748,10.064,10.064,0,0,1,1.831-2.651l.49-.535a10.939,10.939,0,0,0,2.818-4.225c.077-.269.135-.548.194-.828a2.518,2.518,0,0,1,2.12-2.5c.273-.1.545-.2.8-.32a5.239,5.239,0,0,0-2.524-9.984.5.5,0,0,0-.173.955,5.4,5.4,0,0,1,2.967,2.812,2.842,2.842,0,0,1-.169,2.149,1.924,1.924,0,0,1-1.133,1,4.207,4.207,0,0,1-1.761-.017c-.255-.037-.51-.073-.763-.094a2.707,2.707,0,0,0-2.853,1.295,3.046,3.046,0,0,0,.516,2.694,6.994,6.994,0,0,1,.451.934,2.605,2.605,0,0,1-.8,2.839c-.582.468-2.017,1.481-2.787.792a2.238,2.238,0,0,1-.151-.233c-.192-.315-.541-.91-1.116-.67a1.661,1.661,0,0,0-.8,1.013l-.056.135a.8.8,0,0,1-.882.306,3.316,3.316,0,0,1-1.246-.756,7.026,7.026,0,0,1-1.45-1.441,2,2,0,0,1-.337-1.662,3.62,3.62,0,0,1,.792-1.153,3.1,3.1,0,0,0,1.043-2.1,2.4,2.4,0,0,0-1.736-2.061,6.289,6.289,0,0,0-2.17-.206l-.239.006a3.747,3.747,0,0,1-1.942-.327,2.566,2.566,0,0,1-.762-3.183,4.792,4.792,0,0,1,1.586-1.838,9.838,9.838,0,0,1,7.191-.215.5.5,0,0,0,.624-.69c-.719-1.45-1.48-2.8-2.891-3.4a6.407,6.407,0,0,0-1.4-.363,8.209,8.209,0,0,1-.86-.184A4.588,4.588,0,0,1,380.7,185a6.944,6.944,0,0,1,.353-4.529A13.6,13.6,0,0,1,383.7,176.5a.5.5,0,0,0-.022-.7.494.494,0,0,0-.691,0,.859.859,0,0,1-.139.068,7.365,7.365,0,0,0-2.11,1.545,10.191,10.191,0,0,0-2.6,5.547c-.09.451-.171.906-.251,1.362a17.9,17.9,0,0,1-1.113,4.265,19.283,19.283,0,0,1-.938,1.746,8.825,8.825,0,0,0-1.569,4.232,1.819,1.819,0,0,0,.647,1.6,1.415,1.415,0,0,0,.826.252,1.841,1.841,0,0,0,.913-.254c.033-.019.057-.047.09-.068a4.934,4.934,0,0,0,.887,2.43,9.629,9.629,0,0,0,3.157,3.025l.254.146a2.991,2.991,0,0,1,1.1.865,2.907,2.907,0,0,1,.245,1.551,7.7,7.7,0,0,0,.037,1.024,5.847,5.847,0,0,0,2.08,3.465c.286.266.585.521.883.776a12.092,12.092,0,0,1,1.8,1.762,4.417,4.417,0,0,1,.624,1.127,4.476,4.476,0,0,1-.919,2.373,10.08,10.08,0,0,1-4.244,2.751c-6.041,2.472-11.207,2.829-15.351,1.063a.5.5,0,0,0-.514.845A13.542,13.542,0,0,0,376.044,222.074Z"/><path d="M408.078,169.115c.143.521.7.964,1.668,1.317a51.126,51.126,0,0,0,10.33,2.9,24.717,24.717,0,0,0,3.449.248,18.361,18.361,0,0,0,7.271-1.389,13.57,13.57,0,0,0,5.562-4.363,8.737,8.737,0,0,0,2.235-3.339,23.738,23.738,0,0,0,1.123-4.478c.112-.619.225-1.237.358-1.85a9.684,9.684,0,0,1,2.654-5.4.5.5,0,0,0,.12-.582,8.178,8.178,0,0,0-2.474-2.766,22.444,22.444,0,0,0-22.11-.135,21.074,21.074,0,0,0-10.081,19.075A1,1,0,0,0,408.078,169.115Zm20.067,1.527a14.092,14.092,0,0,1-10.874-.861,8.447,8.447,0,0,1-3.29-2.788,8.1,8.1,0,0,1-.741-6.3,13.124,13.124,0,0,1,4.028-6.517.493.493,0,0,0,.613-.09c.041-.046.083-.091.125-.136a1.538,1.538,0,0,1,1.78-.1,2.427,2.427,0,0,1,1.032,1.969,2.884,2.884,0,0,1-1.4,2.649,2.743,2.743,0,0,1-2.795-.227.494.494,0,0,0-.455-.1.5.5,0,0,0-.342.317,6.36,6.36,0,0,0,1.653,6.388,9.681,9.681,0,0,0,6.066,2.621c.328.029.641.045.941.045a6.3,6.3,0,0,0,2.395-.419,6.56,6.56,0,0,0,2.572-2.022,9.805,9.805,0,0,0,1.553-9.651.5.5,0,0,0-.955.285,2.278,2.278,0,1,1-.947-1.423.5.5,0,0,0,.7-.686,7.132,7.132,0,0,0-4.841-3.015,17.544,17.544,0,0,1,2.945-.258c.157,0,.315,0,.473.006a8.476,8.476,0,0,1,5.064,1.469c2.942,2.263,2.711,6.759,2.474,8.587a23.336,23.336,0,0,1-1.489,5.714A13.445,13.445,0,0,1,428.145,170.642Z"/><path d="M449.841,145.15a.5.5,0,0,0-.62.713c.887,1.545,1.74,3.148,2.537,4.762.221.45.331.985.134,1.1-.131.079-.4,0-.793-.234l-6.09-3.551a.5.5,0,0,0-.657.725l2.762,3.814a1.652,1.652,0,0,1,.41.845c0,.287-.389.613-1.129.683a.5.5,0,0,0-.185.94,16.049,16.049,0,0,1,7.757,9.181.482.482,0,0,0,.532.341.5.5,0,0,0,.442-.452l.163-1.882a4.073,4.073,0,0,1,.649,1.686c.063.437.168,1.167.823,1.4a.99.99,0,0,0,.343.061,1.559,1.559,0,0,0,1.144-.638,12.32,12.32,0,0,0,2.786-6.246,23.814,23.814,0,0,0-.029-6.767.5.5,0,0,0-.492-.439h0a.5.5,0,0,0-.5.428l-.121.841a11.157,11.157,0,0,0-3.416-4.01A28.29,28.29,0,0,0,449.841,145.15Z"/><path d="M340.737,149.574a8.062,8.062,0,0,0-6.07,1.086l-.175.115a2.5,2.5,0,0,1-.807.414c-.216.045-.468-.035-.513-.163-.035-.1.009-.315.419-.736.672-.687,1.37-1.361,2.075-2a.5.5,0,0,0-.3-.868,6.412,6.412,0,0,0-1.782.1,7.446,7.446,0,0,1,.762-.581l3.476-2.4a.5.5,0,0,0-.284-.912h0c-3.633.024-8.538,1.053-11.264,5.824a12.884,12.884,0,0,0-1.4,7.542,37.577,37.577,0,0,0,1.67,7.387.5.5,0,0,0,.9.13l.5-.765,1.18,1.607a.5.5,0,0,0,.4.2.559.559,0,0,0,.091-.008.5.5,0,0,0,.391-.361,22.882,22.882,0,0,1,4.285-8.155,45.032,45.032,0,0,1,6.649-6.587.5.5,0,0,0-.212-.873Z"/><path d="M357.691,232.434a11.045,11.045,0,0,0,4.854.74l-4.353,6.506a.5.5,0,0,0-.022.52.519.519,0,0,0,.452.258c6.335-.189,13.457-.4,19.842-2.82a9.892,9.892,0,0,1-2.03,2.116.5.5,0,0,0,.3.9,39.661,39.661,0,0,0,15.079-2.725,35.417,35.417,0,0,0,16.585,4.122,34.865,34.865,0,0,0,5.452-.428.5.5,0,0,0,.351-.751,4.348,4.348,0,0,0-1.8-1.472,7.807,7.807,0,0,1-.88-.537,1.765,1.765,0,0,1-.681-1.374.46.46,0,0,1,.254-.416,1.563,1.563,0,0,1,.742-.073l1.453.072a43.475,43.475,0,0,0,8.523-.123,14.064,14.064,0,0,0,8.946-4.542.5.5,0,0,0-.63-.755,20.339,20.339,0,0,1-5.33,2.054,5.445,5.445,0,0,0,.556-.743.5.5,0,0,0,.294-.158.507.507,0,0,0,.128-.383l-.033-.344a.5.5,0,0,0-.409-.445.506.506,0,0,0-.539.274c-.009.019-.017.037-.027.056a15.893,15.893,0,0,1-11.786-5.923.493.493,0,0,0-.471-.185.5.5,0,0,0-.392.322,6.414,6.414,0,0,1-3.362,3.6l-.51-2.119a.5.5,0,0,0-.39-.374.492.492,0,0,0-.5.2,23.228,23.228,0,0,1-5.8,5.657l-.464-3.657a.5.5,0,0,0-.706-.391,32.6,32.6,0,0,1-26.61.187.5.5,0,0,0-.441.016.5.5,0,0,0-.257.358l-.255,1.538a10.347,10.347,0,0,1-2.87-4.714.5.5,0,0,0-.806-.243,23.251,23.251,0,0,1-11.364,5.245.5.5,0,0,0-.093.957Zm63.714,2.256a4.5,4.5,0,0,0,.676-.057A4.5,4.5,0,0,1,421.405,234.69Z"/><path d="M412.113,125.427c.317.78.712,1.75,1.411,3.682h0a23.913,23.913,0,0,1-1.387,19.146.5.5,0,0,0,.44.736.493.493,0,0,0,.3-.1,21.546,21.546,0,0,0,8.6-18.439.5.5,0,0,0-.6-.456,3.051,3.051,0,0,0-1.264.587,13.805,13.805,0,0,0-2.507-4.683.5.5,0,0,0-.883.255l-.072.579a11.485,11.485,0,0,1-3.411-2.332.5.5,0,0,0-.817.541Z"/><path d="M371.22,147.448a.5.5,0,0,0,.845-.494,33.94,33.94,0,0,1-.352-20.248.5.5,0,0,0-.857-.47l-2.329,2.691-.109-.355a.5.5,0,0,0-.844-.195,10.7,10.7,0,0,0-2.258,3.732,1.019,1.019,0,0,0-.127-.067,1.139,1.139,0,0,0-.967.076.5.5,0,0,0-.279.4,13.878,13.878,0,0,0,2.074,8.274A40.653,40.653,0,0,0,371.22,147.448Z"/><path d="M385.277,144.3a20.736,20.736,0,0,1-.415-14.331l.525.777a.5.5,0,0,0,.912-.232c.076-.8.332-2.147,1.178-2.255a2.173,2.173,0,0,1,.312-.006,2.132,2.132,0,0,0,.707-.065,2.237,2.237,0,0,0,1.163-1.073l4.066-6.487a.5.5,0,0,0,.037-.461,3.455,3.455,0,0,0-2.893-1.838,11.133,11.133,0,0,0-1.918.025c-.4.029-.8.051-1.19.055a3.19,3.19,0,0,1-2.392-.866,1.47,1.47,0,0,1-.262-1.22,1.112,1.112,0,0,1,.111-.289c.15-.138.307-.271.467-.4a.5.5,0,0,0-.513-.849,1.727,1.727,0,0,0-.733.607,17.624,17.624,0,0,0-4.022,6.786,9.733,9.733,0,0,1,1.343-6.353.5.5,0,0,0-.142-.675,1.024,1.024,0,0,0-.865-.165c-.636.165-1.237.939-2.14,2.76-1.963,3.957-2.174,9.006-.593,14.216,1.4,4.614,3.925,8.768,6.366,12.785a.5.5,0,0,0,.891-.447Z"/><path d="M433.346,107.937a10.377,10.377,0,0,1,4.33-2.28l-1.75,2.619a.5.5,0,0,0,.466.775,15.3,15.3,0,0,1,9.257,2.084l-3.452,2.271a.5.5,0,0,0,.114.892,26.043,26.043,0,0,0,18.7-.865.5.5,0,0,0,.277-.594.493.493,0,0,0-.549-.358,27.994,27.994,0,0,1-10.36-.519,16.68,16.68,0,0,1,5.15-2.521.5.5,0,0,0,.11-.914,24.784,24.784,0,0,0-13.362-3.228,6.355,6.355,0,0,1,.785-4.514.5.5,0,0,0-.255-.73,3.859,3.859,0,0,0-2.142-.136c1.2-4.209,3.977-7.937,6.017-10.435a.5.5,0,0,0-.716-.693,50.814,50.814,0,0,0-13.415,18.578.5.5,0,0,0,.793.568Z"/><path d="M349.394,116.851a.5.5,0,0,0-.033-.686,9.451,9.451,0,0,0-4.649-2.419,16.4,16.4,0,0,1,10.247-1.563.492.492,0,0,0,.466-.166.5.5,0,0,0,.095-.485,5.665,5.665,0,0,0-.848-1.612c1.3.322,2.6.615,3.885.9a.5.5,0,0,0,.594-.612,65.48,65.48,0,0,0-3.065-9.823,22.031,22.031,0,0,0-6.012-8.438.5.5,0,0,0-.717.686,15.85,15.85,0,0,1,2.212,11.8,7.209,7.209,0,0,0-5.172.826.5.5,0,0,0,.025.873l2.071,1.079A15.882,15.882,0,0,0,337.58,114.1a.5.5,0,0,0,.117.674l4.613,3.485a25.4,25.4,0,0,1-9.823,2.245.5.5,0,0,0-.152.973,15.191,15.191,0,0,0,4.964.82A16.06,16.06,0,0,0,349.394,116.851Z"/><path d="M361.488,201.2a.5.5,0,0,0-.22-.072.5.5,0,0,0-.335-.146.481.481,0,0,0-.4.171c-.042-.029-.087-.062-.139-.1a.5.5,0,0,0-.789.483l.221,1.392a.5.5,0,0,0,.792.322c.016.009.033.017.049.024a.5.5,0,0,0,.558-.11,1.869,1.869,0,0,0,.487-1.633A.5.5,0,0,0,361.488,201.2Z"/><path d="M367.026,202.455c-.053-.108-.126-.262-.224-.481a.5.5,0,0,0-.456-.3h0a.5.5,0,0,0-.456.3c-.007.017-.015.033-.021.05a.5.5,0,0,0-.369.393,3.311,3.311,0,0,0,.031,1.359.821.821,0,0,0,.4.575.676.676,0,0,0,.311.075.707.707,0,0,0,.282-.059.853.853,0,0,0,.467-.537,1.229,1.229,0,0,0,.044-.337.575.575,0,0,0,.3-.569A.5.5,0,0,0,367.026,202.455Z"/><path d="M412.683,197.177a.5.5,0,0,0-.305.434l-.036.012a2.951,2.951,0,0,0-.245-.375.5.5,0,0,0-.9.353.5.5,0,0,0-.237.281.442.442,0,0,0-.063.014.5.5,0,0,0-.36.477,1.408,1.408,0,0,0,.521,1.095.5.5,0,0,0,.644-.015l.047.077a.5.5,0,0,0,.415.241h.013a.5.5,0,0,0,.414-.219c.034-.05.067-.1.1-.155a.5.5,0,0,0,.88-.135,2.183,2.183,0,0,0-.281-1.912A.5.5,0,0,0,412.683,197.177Z"/><path d="M410.134,204.09a.5.5,0,0,0-.127.068H410a.529.529,0,0,0-.164.064.784.784,0,0,1-.672-.166.5.5,0,0,0-.776.475.493.493,0,0,0-.022.149,1.923,1.923,0,0,0,.411,1.181.5.5,0,0,0,.616.137.529.529,0,0,0,.134-.1.5.5,0,0,0,.445.272h.037a.5.5,0,0,0,.313-.142.55.55,0,0,1,.8-.308.5.5,0,0,0,.109-.666l-.506-.771A.5.5,0,0,0,410.134,204.09Z"/><path d="M404.558,208.751a.434.434,0,0,0-.072.07.5.5,0,0,0-.714.264,1.478,1.478,0,0,0,.221,1.457,1.264,1.264,0,0,0,.785.437.5.5,0,0,0,.3.1.492.492,0,0,0,.172-.031.5.5,0,0,0,.229-.171c.028-.014.056-.03.082-.046a1.013,1.013,0,0,0,.212-.175,1.03,1.03,0,0,0,.626.114,1.5,1.5,0,0,0,.539-.2.748.748,0,0,1,.176-.082.528.528,0,0,0,.538-.41.56.56,0,0,0-.4-.584c-.466-.146-1.206-.419-2.2-.812A.5.5,0,0,0,404.558,208.751Z"/><path d="M414.483,210.893a2.764,2.764,0,0,1,.079.347,2.334,2.334,0,0,0,.039.635.5.5,0,0,0,.49.4l.039,0a.5.5,0,0,0,.461-.477l0-.13.241-.018a.5.5,0,0,0,.453-.608l0-.01a.689.689,0,0,0,.046-.069.5.5,0,0,0-.088-.629.528.528,0,0,0-.129-.086c-.012-.045-.027-.1-.041-.161l0-.015,0-.019c0-.019-.009-.037-.013-.057a.5.5,0,0,0-.852-.228l0,0a.468.468,0,0,0-.086.073c-.053-.091-.109-.18-.169-.265a.5.5,0,0,0-.889.144A1.067,1.067,0,0,0,414.483,210.893Zm.585.367a3.059,3.059,0,0,1,.024.515A3.059,3.059,0,0,0,415.068,211.26Z"/><path d="M405.482,170.652a.539.539,0,0,0,.08.006.5.5,0,0,0,.344-.863c-2.442-2.306-3.569-6.155-3.015-10.3.5-3.794,2.2-7.325,3.845-10.739a.5.5,0,0,0-.778-.595,8.26,8.26,0,0,1-1.093.744,5.877,5.877,0,0,0-2.539,2.429h0a35.954,35.954,0,0,0-2.774,6.89,12.365,12.365,0,0,0,.239,7.523A7.751,7.751,0,0,0,405.482,170.652Z"/><path d="M354.093,259.656c7.274,1.165,13.8,1.919,19.611-.542a12.953,12.953,0,0,1-2.97,4.925.5.5,0,0,0,.56.805,45.094,45.094,0,0,0,21.289-19.423.5.5,0,0,0-.757-.626c-.849.705-1.776,1.56-2.758,2.465a57.445,57.445,0,0,1-7.04,5.81l1.482-2.4A.5.5,0,0,0,382.8,250a30.308,30.308,0,0,1-13.591,5.073,19.723,19.723,0,0,0,2.009-6.357.5.5,0,0,0-.8-.46,38.409,38.409,0,0,1-14.406,7.031.5.5,0,0,0,.084.984l6.482.47a20.371,20.371,0,0,1-8.411,1.924.5.5,0,0,0-.073.994Z"/><path d="M409.31,254.129a.5.5,0,0,0-.944-.265,14.343,14.343,0,0,0-1.45,4.893c-2.473-.449-5.087-1.155-6.318-3.155a.5.5,0,0,0-.921.19l-.629,4.34A10.192,10.192,0,0,1,388.8,253.46a.5.5,0,0,0-.532-.34.5.5,0,0,0-.441.453,11.777,11.777,0,0,1-.586,3.033.489.489,0,0,0,0,.305,18.051,18.051,0,0,0,4.785,7.7.5.5,0,0,0,.842-.407l-.225-2.518c3.344,2.782,7.965,3.608,12.805,4.253a.489.489,0,0,0,.066,0,.5.5,0,0,0,.309-.894,5.429,5.429,0,0,1-1.994-3.663,34.176,34.176,0,0,0,5.69,3.29,1.613,1.613,0,0,0,1.649.017c.331-.254.776-.874.023-2.183A14.654,14.654,0,0,1,409.31,254.129Z"/><path d="M457.918,187.344a.5.5,0,0,0,.443.267h.01l.99-.021-3.581,6.673a.5.5,0,0,0,.787.6,36.413,36.413,0,0,0,6.988-9.3.5.5,0,0,0-.589-.711l-1.416.433a17.436,17.436,0,0,0,1.526-7.22.5.5,0,0,0-.984-.117,26.606,26.606,0,0,1-4.139,8.874A.5.5,0,0,0,457.918,187.344Z"/><path d="M331.7,105.229a.5.5,0,0,0-.521-.47,31.388,31.388,0,0,0-16.546,5.63,19.8,19.8,0,0,1,2.035-5.032.5.5,0,0,0-.573-.729l-1.239.359A25.981,25.981,0,0,1,330.6,94.724a.5.5,0,0,0-.02-.984,16.242,16.242,0,0,0-9.181,1.5,36,36,0,0,0-5.419,3.134l1.981-2.733a.5.5,0,0,0,.008-.576.508.508,0,0,0-.539-.2l-3.391.882a20.714,20.714,0,0,1,11.7-7.277.5.5,0,0,0,.1-.944c-2.862-1.283-6.1-.3-8.961.575l-.37.112c-2.8.849-8.823-.027-8.883-.036a.5.5,0,0,0-.569.564c.025.178,2.534,17.943,7.042,27.938a.5.5,0,0,0,.447.294h.009a.5.5,0,0,0,.448-.278,20.119,20.119,0,0,1,16.241-10.94A.5.5,0,0,0,331.7,105.229Z"/><path d="M328.15,81.864a.5.5,0,0,0,.56-.4.5.5,0,0,0-.377-.578,76.558,76.558,0,0,0-15.827-1.994,5.358,5.358,0,0,1,2.634-1.361.5.5,0,0,0-.076-.99l-7.613-.293a.41.41,0,0,0-.13.012l-1.154.264a4.039,4.039,0,0,1,1.039-2.7c2.742-3.473,7.175-5.09,11.482-6.45a.5.5,0,0,0,0-.953,18.853,18.853,0,0,0-11.059-.069,8.1,8.1,0,0,1,1.817-.98.5.5,0,0,0,.311-.564.509.509,0,0,0-.5-.4l-1.419.037a15.8,15.8,0,0,1,6.677-2.824.5.5,0,0,0,.209-.9,16.875,16.875,0,0,0-7.194-2.929l2.872-.881a.5.5,0,0,0,0-.956l-1.019-.315a15.054,15.054,0,0,1,4.77.111.5.5,0,0,0,.354-.917c-3.825-2.358-8.931-4.946-11.506-3.9a2.447,2.447,0,0,0-1.49,1.776.487.487,0,0,0-.016.132,126.636,126.636,0,0,0,4.621,32.372.5.5,0,0,0,.481.365.5.5,0,0,0,.23-.056A35.9,35.9,0,0,1,328.15,81.864Z"/><path d="M459.569,90.584a.494.494,0,0,0,.24-.062,51.979,51.979,0,0,1,9.5-4.034,21.432,21.432,0,0,1,3.708-.857,18.186,18.186,0,0,1,10.2,5.07.5.5,0,0,0,.355.147.516.516,0,0,0,.116-.013.5.5,0,0,0,.359-.331c.766-2.342,1.7-6.248,2.291-8.863a104.767,104.767,0,0,0,3.344-17.507,12.184,12.184,0,0,0,.073-3.593,4.762,4.762,0,0,0-1.935-3.226,5.669,5.669,0,0,0-4.02-.6,14.858,14.858,0,0,0-9,4.831c-.063.066-.126.132-.187.2a.5.5,0,0,0,.739.675c.053-.058.106-.116.16-.173a9.225,9.225,0,0,1,8.61-2.445l-1.193.286a.5.5,0,0,0,.022.977,5,5,0,0,1,3.316,2.342,31.33,31.33,0,0,0-7.562,3.47.5.5,0,0,0,.513.858,3.847,3.847,0,0,1,5.74,3.578A22.2,22.2,0,0,0,469,76.434a.5.5,0,0,0,.483.856A26.638,26.638,0,0,1,480.327,76a4.748,4.748,0,0,1,2.58.85,45.163,45.163,0,0,0-7.653,1.19.5.5,0,0,0,.218.975c.754-.153,2.9-.441,3.8.06a4.023,4.023,0,0,1,1.927,2.56,40.2,40.2,0,0,0-21.933,8.053.5.5,0,0,0,.3.9Zm15.418-28.5c.179-.194.36-.363.54-.544C475.347,61.718,475.166,61.887,474.987,62.081Z"/><path d="M457.625,107.539a16.449,16.449,0,0,1,14.01,8.432.5.5,0,0,0,.441.263.5.5,0,0,0,.191-.038,6.446,6.446,0,0,1,3.532-.737.494.494,0,0,0,.566-.3c.537-1.294,1.16-2.692,1.807-4.145,2.729-6.128,5.821-13.072,4.969-17.466-.327-1.686-3.426-3.76-3.778-3.991a.5.5,0,0,0-.74.6,17.7,17.7,0,0,1,1.2,4.987c-5.053-5.1-14.035-4.134-17.792-2.775a.5.5,0,0,0,0,.939,32.713,32.713,0,0,0,6.921,1.494c3.9.541,4.429.923,6.178,2.187l.107.078a6.11,6.11,0,0,1,2.73,5.376l-5.1-2.488a.5.5,0,0,0-.53.841,9.809,9.809,0,0,1,3.194,4.557,20.773,20.773,0,0,1-5.752-1.238.5.5,0,0,0-.4.917,11.608,11.608,0,0,1,3.131,2.287,22.847,22.847,0,0,0-15.027-.764.5.5,0,0,0,.138.98Z"/><path d="M650.282,306.444H531.452c-.011,0-.021,0-.032.006a17.51,17.51,0,0,0-.836-5.988c-2.029-5.944-7.245-9.756-12.493-12.562a170.554,170.554,0,0,0-16.189-7.266c-5.442-2.147-11.2-4.2-17.172-3.394-4.846.479-8.58,3.017-11.538,5.57-1.347,1.093-2.566,2.042-3.673,2.91a29.724,29.724,0,0,0-10.343-15.343,2.924,2.924,0,0,1,2.351.106.5.5,0,0,0,.692-.635c-1.378-3.34-4.268-5.64-7.063-7.864q-.569-.451-1.128-.9a20.818,20.818,0,0,1-4.7-5.022,31.054,31.054,0,0,0,6.546,2.827.478.478,0,0,0,.144.021.5.5,0,0,0,.417-.776l-4.807-7.246a5.615,5.615,0,0,1,1.585,1.625.5.5,0,0,0,.864-.5,16.115,16.115,0,0,1-.7-13.392l1.5,3.063a.5.5,0,0,0,.938-.329,25.421,25.421,0,0,1-.591-6.294c1.913,2.376,3.769,4.78,5.573,7.179,1.343,1.771,2.825,3.8,4.028,5.483q-1.511-2.451-3.116-4.843c-1.938-2.842-4.1-5.823-6.439-8.823.014-.2.037-.393.055-.589a19.545,19.545,0,0,0,5.057.967h.028a.5.5,0,0,0,.381-.822l-3.748-4.435,2.826-.389a.5.5,0,0,0,.287-.847,5.156,5.156,0,0,1-1.235-4.2,14.288,14.288,0,0,1,1.2-4.024c6,5.38,11.823,11.079,17.671,16.6,1.406,1.332,3.059,2.925,4.32,4.118q-1.911-2.138-3.868-4.232c-5.634-6.051-11.635-11.749-17.787-17.27q1.149-2.665,2.346-5.326c.67-1.088,1.3-2.2,1.911-3.325a147.233,147.233,0,0,1,14.772,6.762c1.344.74,2.713,1.557,3.971,2.38q-1.635-1.262-3.37-2.381a86.267,86.267,0,0,0-14.967-7.506,70.159,70.159,0,0,0,3.68-8.261,142.086,142.086,0,0,1,19.6,7.281,134.914,134.914,0,0,1,12.166,6.175,90.762,90.762,0,0,0-10.885-6.259,138.428,138.428,0,0,0-20.61-7.934,68.293,68.293,0,0,0,3.358-13.565,2.758,2.758,0,0,0,2.6-.144.5.5,0,0,0,.109-.747,20.442,20.442,0,0,1-4.212-8.091,7.027,7.027,0,0,0,3.41,2.215.5.5,0,0,0,.476-.844c-2.241-2.137-2.482-5.486-2.425-7.292a36.139,36.139,0,0,1,.6-4.869c.185-1.094.377-2.225.5-3.353a15.871,15.871,0,0,0-.254-5.412A30.92,30.92,0,0,0,472.2,150.7l2.586-1.936a.5.5,0,0,0-.041-.828c-2.582-1.561-3.3-4.97-2.874-7.657.447-2.8,1.922-5.375,3.348-7.866l.246-.429c.028-.048.055-.1.082-.146a19.021,19.021,0,0,0,3.786-7.179c.562-1.842.957-3.751,1.339-5.6.359-1.728.73-3.515,1.233-5.225a66.177,66.177,0,0,1,3.636-8.972c.655-1.413,1.331-2.873,1.949-4.334a102.472,102.472,0,0,0,5.7-19.435c.242-1.166.5-2.327.758-3.487,1.526-6.882,3.1-14,1.19-21.6a4.879,4.879,0,0,0-2.309-3.363c-4.118-2.155-9.809-2.078-14.851.2-5.336,2.412-9.667,6.762-13.488,10.6L435.241,92.823a.483.483,0,0,0-.389-.075c-5.01,1.438-10.686,3.068-16.17,2.245a22.625,22.625,0,0,1-4.29-1.211,30.322,30.322,0,0,0-3.527-1.089,17.008,17.008,0,0,0-5.416.129l-.229.031a5.179,5.179,0,0,1-2.485-.259l-.651-.243a15.422,15.422,0,0,0-8.323-1.311,16.966,16.966,0,0,0-2.81.79,10.721,10.721,0,0,1-4.025.857,19.246,19.246,0,0,1-2.693-.533c-.626-.156-1.25-.31-1.867-.42-2.121-.38-4.371.354-6.355,1l-.252.082a18.875,18.875,0,0,1-12.032-.306c-.995-.564-2.007-1.1-3.05-1.589-.28-.155-.554-.319-.83-.482a28.363,28.363,0,0,0-4.538-2.671l-2.341-3.045c-9.906-12.886-20.149-26.212-33.674-35.857-2.846-2.03-6.288-4.225-10.227-5.1-4.025-.9-8.217-.22-11.008,1.836-2.164,2.3-2.131,5.771-1.773,9.184,1.151,10.97,2.82,22.285,4.962,33.63,1.22,6.457,2.6,12.978,3.938,19.284,1.487,7.015,3.025,14.269,6.64,20.678.47.835.974,1.651,1.478,2.467.464.75.935,1.515,1.379,2.295a23.678,23.678,0,0,1-5.754,17.563.5.5,0,0,0,.434.829l2.609-.316c-1.714,4.1-.706,8.9.19,13.156l.047.222c.958,4.552,1.569,9.687-1.163,13.266a.5.5,0,0,0,.664.726,13.264,13.264,0,0,0,1.775-1.37c-.288.938-.606,1.872-.922,2.8-1.3,3.793-2.64,7.716-1.81,11.675a.5.5,0,0,0,.4.39.492.492,0,0,0,.511-.227l.566-.9a74.821,74.821,0,0,0,2.307,8.716c-11.578,3.054-23.1,6.375-34.377,10.408-2.066.747-4.332,1.592-6.26,2.348q3.632-1.077,7.264-2.148c10.682-3.089,22.062-6.741,33.648-9.794q1.105,3.249,2.5,6.391c-12.162,4.632-23.793,10.864-34.912,17.463a159.688,159.688,0,0,0-14.162,9.734c5.368-3.5,10.853-6.824,16.352-10.117a225.655,225.655,0,0,1,33.086-16.283c.673,1.468,1.386,2.916,2.15,4.338a9.717,9.717,0,0,1-2.239,5.834.5.5,0,0,0,.458.818l1.238-.191a25.824,25.824,0,0,1-3.616,10.228.487.487,0,0,0,.017.508q-3.519,2.975-6.958,6.041c-1.535,1.383-3.367,3.05-4.7,4.313q2.528-2.017,5.057-4.034c2.6-2.037,5.174-4.109,7.731-6.188a38.029,38.029,0,0,1-5.156,10.271c-11.037,10.839-27.928,19.522-38.286,23.314-15.72,2.536-36.143,8.856-47.585,13.481-19.561,6.076-38.564,17.771-39.148,18.632l-.006.009c-5.153,2.33-12.021,7.382-16.783,11.379-.009.008-.01.021-.019.029H28.282a.5.5,0,0,0-.5.5v18a.5.5,0,0,0,.5.5H301.13a.5.5,0,0,0,.442-.735c1.758.523,3.2.863,3.842,1.071a9.236,9.236,0,0,0,3.889.02c.906-.163,5.479-.32,6.715-.7a6.908,6.908,0,0,0,4.465.863,7.173,7.173,0,0,0,2.109-.69,6.067,6.067,0,0,0,2.371-.049c.071-.02.254-.06.472-.11a4.76,4.76,0,0,0,2.2-.458,12.176,12.176,0,0,0,2.7,1.182,12.373,12.373,0,0,0,3.9.313,3.983,3.983,0,0,0,2.027,1.01c1.153.087,1.673-.73,1.918-1.715H479.706a1.539,1.539,0,0,0,1.574,1.123,3.865,3.865,0,0,0,2.021-.9,9.958,9.958,0,0,0,6.473-1.149,4.515,4.515,0,0,0,2.1.56c.208.059.383.108.449.132a5.771,5.771,0,0,0,2.291.164,6.733,6.733,0,0,0,2,.784,6.611,6.611,0,0,0,4.37-.63c1.172.437,5.585.817,6.452,1.022a8.77,8.77,0,0,0,3.762.172c.814-.223,2.924-.6,5.34-1.282H650.282a.5.5,0,0,0,.5-.5v-18A.5.5,0,0,0,650.282,306.444ZM331.7,202.161a.51.51,0,0,0,.143.021.5.5,0,0,0,.244-.937,14.86,14.86,0,0,1-4.442-3.834l.542-.112.6.212a.5.5,0,0,0,.546-.147.486.486,0,0,0,.107-.326c4.833-.971,9.665-1.751,14.465-2.266a15.631,15.631,0,0,0-.813,3.8.5.5,0,0,0,.874.371,3.49,3.49,0,0,1,.994-.788,12.1,12.1,0,0,0-.061,1.621,116.514,116.514,0,0,0-25.475,6.3q-1.141-3.1-2.071-6.266,3.14-.8,6.292-1.527A28.3,28.3,0,0,0,331.7,202.161Zm25.233-.611a.6.6,0,0,1-.112.146A.6.6,0,0,0,356.934,201.55Zm-.722-1.156-.288.128c-.088.04-.178.078-.267.119-.069-.058-.136-.113-.215-.182a.5.5,0,0,0-.827.349l-.018.317c-1.571.758-3.108,1.591-4.626,2.464-.04-.271-.094-.539-.122-.812a.5.5,0,0,0-.613-.435,8.432,8.432,0,0,1,.478-2.218c.36-.027.717-.072,1.078-.095,2.353-.184,4.712-.321,7.072-.37C357.307,199.888,356.763,200.148,356.212,200.394Zm-9.868,5.386c-3.112,1.984-6.134,4.134-9.1,6.329a.459.459,0,0,0-.12-.1c-4.088-1.792-7.63-3.537-9.566-6.766a.5.5,0,0,0-.915.372,9.217,9.217,0,0,0,1.635,3.452c-.29-.085-.607-.194-.96-.317-.561-.193-1.2-.412-1.955-.611a.5.5,0,0,0-.524.787,11.681,11.681,0,0,0,9.183,4.445,11.2,11.2,0,0,0,1.731-.147c-.312.233-.626.465-.937.7q-3.519,2.685-7,5.419l-.225-1.922a.5.5,0,0,0-.92-.208l-1.305,2.076-.023-.038a.48.48,0,0,0-.053-.249,97.636,97.636,0,0,1-5.546-12.1,117.253,117.253,0,0,1,25.2-6.277A15.538,15.538,0,0,0,346.344,205.78ZM188.893,299.368c13.092-7.781,27.823-12.989,43.213-18.419q2.1-.741,4.233-1.5c5.042-.821,8.8-1.453,10.685-1.932-2.466,4.725-9.241,11.584-13.267,14.584a.5.5,0,0,0,.253.9l2.381.221-1.682,1.068a.5.5,0,0,0,.046.87,10.025,10.025,0,0,0,7.045.666c-1.5,3.377-3.8,5.717-7.15,8.476a.5.5,0,0,0,.17.863,12.754,12.754,0,0,0,5.173.49l-.5.787H182.266A43.258,43.258,0,0,1,188.893,299.368Zm58.6,3.251a.5.5,0,0,0-.411-.717c-.266-.021-1.244-.152-2.218-.282l-1.155-.152c1.31-1.19,2.577-2.25,3.808-3.282,4.262-3.57,7.942-6.653,10.224-12.618a.5.5,0,0,0-.373-.67c-.477-.094-2,.261-5.366,1.087-.758.185-1.628.4-2.426.586.573-.322,1.207-.67,1.874-1.038,3.974-2.186,8.479-4.664,9.591-6.3a.5.5,0,0,0-.252-.755,16.592,16.592,0,0,0-3.991.147,53.589,53.589,0,0,1,6.681-5.687,36.075,36.075,0,0,1,8.5.192,19.991,19.991,0,0,0-6.227,6.685.5.5,0,0,0,.392.746,11.93,11.93,0,0,0,5.345-.785l-1.9,3.182a.5.5,0,0,0,.389.756l1.354.108a27.88,27.88,0,0,0-2.767,13.1.5.5,0,0,0,.86.329l2.6-2.693a43.821,43.821,0,0,0-1.713,11.882H244.713A14.048,14.048,0,0,0,247.488,302.619Zm64.764-53.5,1.64-4.363c.842-1.379,1.733-2.865,2.613-4.334,1.921-3.2,3.735-6.232,4.4-7.042a14.611,14.611,0,0,1,5.175-4.27l.29,3.7a2.81,2.81,0,0,0,.386,1.353q-6.858,7.014-13.447,14.285A11.921,11.921,0,0,0,312.252,249.118ZM330.784,220.6a.5.5,0,0,0-.772-.064l-1.838,1.913-.249-2.13a208.533,208.533,0,0,1,18.859-13.672,18.963,18.963,0,0,0,1,1.7,26.391,26.391,0,0,0,3.262,3.886c-6.09,4.208-11.757,9.654-16.368,14.057Zm-43.7,77.63a18.063,18.063,0,0,0-1.195,8.214H272.433a76.71,76.71,0,0,1,10.3-20.35.5.5,0,0,0,.032-.528.488.488,0,0,0-.458-.262l-2.974.113a21.977,21.977,0,0,0,5.7-7.739.5.5,0,0,0-.876-.476c-.168.256-.441.313-.809.173a1.526,1.526,0,0,1-1.01-1.457c.189-1.239,1.48-2.067,2.674-2.746a118.7,118.7,0,0,1,10.848-5.68c.438-.076.882-.148,1.312-.231a23.784,23.784,0,0,0,4.047,2.146l-2.538,1.655a.5.5,0,0,0-.07.782l4.311,4.082-1.145.439a.5.5,0,0,0-.111.875,46.125,46.125,0,0,0,9.009,4.949c-3.349,1.215-6.67,2.5-9.91,3.985C295.172,288.74,289.554,292.326,287.086,298.23Zm33.163-19.32a49.581,49.581,0,0,1-3.9-18.983.5.5,0,0,0-.913-.279l-1.345,1.975a74.63,74.63,0,0,1,1.715-13.486.5.5,0,0,0-.661-.577c-.009,0-.018.008-.027.012,4.01-4.355,8.059-8.673,12.194-12.908a1.441,1.441,0,0,0,.909.124,2.858,2.858,0,0,0,1.841-1.468c.085-.16.166-.327.248-.5.326-.673.635-1.31,1.182-1.477.853-.26,1.686.766,2.385,1.8a18.258,18.258,0,0,0,7.914,6.5,221.358,221.358,0,0,0-18.223,25.827c-.821,1.416-1.643,2.89-2.39,4.314q1.371-2.255,2.822-4.46c5.833-8.863,12-17.228,18.569-25.372a18,18,0,0,0,7.312,1.174.5.5,0,0,0,.425-.716,13.51,13.51,0,0,0-3.378-4.012l-.081-.074q-.373-.337-.745-.685c1.857-2.231,3.737-4.454,5.662-6.664,4.417-5.115,8.952-10.127,13.809-14.829,2.861-2.468,5.47-5.159,8.963-6.625a20.537,20.537,0,0,0-4.3,2.091l.125-.19.027-.006c.323-.095.481-.39.858-1.355a.5.5,0,0,0-.834-.521.489.489,0,0,0-.09.034l-1.85.887a.5.5,0,0,0-.127.814,1.154,1.154,0,0,0,.743.305l-.008.052a.5.5,0,0,0,.315.538,59.3,59.3,0,0,0-5.755,4.652c-4.971,4.586-9.288,9.822-13.718,14.919q-2.218,2.644-4.413,5.318a10.064,10.064,0,0,1-1.825-2.318,4.343,4.343,0,0,1-.1-4.333.5.5,0,0,0,.02-.516.529.529,0,0,0-.447-.259,4.816,4.816,0,0,0-3.65,1.923,5.16,5.16,0,0,0-1.038,2.256l-3.359-4.9c.5-.477.984-.961,1.483-1.435a141.427,141.427,0,0,1,15.048-12.665c1.259,1.209,2.582,2.334,3.886,3.439a.5.5,0,0,0,.658-.753,18.794,18.794,0,0,1-3.1-3.666c1.245-.822,2.508-1.595,3.781-2.3a.682.682,0,0,0,.575.266.615.615,0,0,0,.2-.055.745.745,0,0,0,.187.07.643.643,0,0,0,.515-.1.689.689,0,0,0,.281-.616.734.734,0,0,0,.1-.193.5.5,0,0,0,.423.056.5.5,0,0,0,.324-.629c-.009-.028-.027-.068-.038-.1q.654-.3,1.309-.577a.5.5,0,0,0,.056.28.765.765,0,0,0,.6.376.888.888,0,0,0,.09,0,.933.933,0,0,0,.687-.305,1.128,1.128,0,0,0,.195-.313.636.636,0,0,0,.249-.425.545.545,0,0,0-.059-.316,20.447,20.447,0,0,1,8.108-1.248,20.006,20.006,0,0,0-8.59.867.383.383,0,0,0-.407.124q-1.295.422-2.583.977a.812.812,0,0,0-1.092,0,.8.8,0,0,0-.074.083.5.5,0,0,0-.426-.269.46.46,0,0,0-.444.239l-.016-.034a.5.5,0,0,0-.9.44l.377.767c-1.3.678-2.587,1.436-3.86,2.258a20.492,20.492,0,0,1-2.524-6.545c1.447-.851,2.921-1.667,4.413-2.46l-.042.747a.5.5,0,0,0,.138.373c0,.071.008.142.014.213a.5.5,0,0,0,.417.453.443.443,0,0,0,.081.007.5.5,0,0,0,.46-.3l.387-.906a.544.544,0,0,0,.122.076.5.5,0,0,0,.576-.126.5.5,0,0,0,.786-.2l.713-1.8a.5.5,0,0,0,.005-.353c.5-.233,1.011-.481,1.511-.7.727,0,1.455,0,2.182.03,1.652.147,3.512.091,4.929,1.055-1.727-1.275-4.054-1.3-6.145-1.509,1.186-.511,2.375-.994,3.6-1.436a12.394,12.394,0,0,1,3.61-.816c-3.009-.135-5.919,1.225-8.732,2.163a78.656,78.656,0,0,0-9.07.144,7.949,7.949,0,0,1,.589-1.008.5.5,0,0,0,0-.568.479.479,0,0,0-.419-.218,14.341,14.341,0,0,1,.8-3.262c.629-.029,1.257-.05,1.885-.069a6.883,6.883,0,0,0-.668,1.7.5.5,0,0,0,.487.612.489.489,0,0,0,.191-.038,3.206,3.206,0,0,0,1.244-1.1l.4-.513-.026.351a.5.5,0,0,0,.844.4,10.149,10.149,0,0,0,1.252-1.457c.779.006,1.555.024,2.33.048a3.729,3.729,0,0,0-.26.512.5.5,0,0,0,.659.649c.141-.06.278-.127.412-.2a.639.639,0,0,0,.3.614.609.609,0,0,0,.317.089.761.761,0,0,0,.606-.343l.286-.382a.5.5,0,0,0,.253-.2l.4-.6c.777.05,1.55.115,2.322.186l-.194,1.085a.5.5,0,0,0,.492.588.42.42,0,0,0,.07,0,.871.871,0,0,0,.616-.426.856.856,0,0,0,.32.22,1.009,1.009,0,0,0,.981-.131,1.665,1.665,0,0,0,.54-1.019c.175.023.351.039.526.062-.172-.039-.345-.066-.517-.1a.5.5,0,0,0-.952-.292.292.292,0,0,0-.027.093h0l-.307-.063a5.566,5.566,0,0,1-.806-.387.468.468,0,0,0-.608.105c-.728-.126-1.457-.222-2.187-.32l.149-.225a.74.74,0,0,0-1.3-.653,3.065,3.065,0,0,1-.356-.148.5.5,0,0,0-.475.025,3.767,3.767,0,0,0-.821.69c-.77-.069-1.541-.127-2.312-.169.1-.173.208-.346.3-.526a.5.5,0,0,0-.8-.579q-.09.093-.183.183a.9.9,0,0,0,.079-.27.5.5,0,0,0-.835-.443l-.037.036c-.057-.017-.129-.042-.221-.079a.5.5,0,0,0-.478.063,6.993,6.993,0,0,0-1.472,1.512c-.68,0-1.36-.006-2.041.01a13.49,13.49,0,0,1,4.963-5.886.5.5,0,0,0,.215-.549c-.007-.027-.033-.043-.044-.069l3.663-2.816c1.574-1.21,2.314-2.018,2.62-2.906a.48.48,0,0,0,.109.066,5.352,5.352,0,0,0,1.975.371,9.2,9.2,0,0,0,6.256-3.156,33.916,33.916,0,0,0,2.211-2.7,20.936,20.936,0,0,1,3.387-3.775,23.063,23.063,0,0,1,2.647-1.745c1.917-1.143,3.9-2.325,4.859-4.416a9.717,9.717,0,0,0,.475-5.236c-.634-5.206-2.331-9-5.342-11.946a.5.5,0,0,0-.809.554,26.625,26.625,0,0,1,1.956,13.5c-.151,1.305-.466,2.916-1.581,3.8a6.19,6.19,0,0,1-1.712.845,10.507,10.507,0,0,0-1.364.588c-1.925,1.054-2.894,3.033-3.831,4.948a25.466,25.466,0,0,1-1.2,2.263,11.324,11.324,0,0,1-7.817,5.141c-.047.007-.078.043-.119.062a.5.5,0,0,0-.158-.2.5.5,0,0,0-.521-.038,17.55,17.55,0,0,1-19.6-2.4.5.5,0,0,0-.8.54,11.615,11.615,0,0,0,1.133,2.376,39.993,39.993,0,0,1-13.874-13.776.5.5,0,0,0-.552-.227.5.5,0,0,0-.377.464c-.126,3.144,1.165,6.48,3.946,10.2a78.764,78.764,0,0,0,10.775,11.126,1.906,1.906,0,0,1-1.183-.511.5.5,0,0,0-.771.626,16.835,16.835,0,0,0,3.714,4.158,1.092,1.092,0,0,0,.056.244c-.154.306-.291.62-.425.937a145.3,145.3,0,0,0-15.184,2.468,32.263,32.263,0,0,1-3.565-14.3.5.5,0,0,0-.973-.153,23.716,23.716,0,0,0-1.062,10.36,2.577,2.577,0,0,0-.551-.2.5.5,0,0,0-.607.572l.441,2.554c-.388-.186-.757-.383-1.1-.567-.879-.471-1.409-.755-1.85-.615a.671.671,0,0,0-.4.347.5.5,0,0,0,.089.57,28.187,28.187,0,0,0,3.246,2.836q-2.847.662-5.66,1.339c-.139-.487-.284-.973-.415-1.463-1.122-4.2-1.981-9.011.152-12.911a.5.5,0,0,0-.6-.712l-1.5.523a49.543,49.543,0,0,0,3.126-10.846,23.132,23.132,0,0,0,.169-4.649c.044-.268.1-.533.129-.8a27.436,27.436,0,0,0-.444-6.772,37.018,37.018,0,0,1-.508-4.8,36.8,36.8,0,0,1,1.083-8.131l2-9.513c.294-.562.577-1.13.834-1.71a18.853,18.853,0,0,0,1.606-5.879l.342.755a.5.5,0,0,0,.864.082,8.876,8.876,0,0,0,.151-9.663,37.258,37.258,0,0,1,6.172,1.945.5.5,0,0,0,.618-.722,25.885,25.885,0,0,1-3.439-9.355,6.71,6.71,0,0,1,.827-3.949.5.5,0,0,0-.759-.62,8.9,8.9,0,0,0-3.021,8.366,8.569,8.569,0,0,1-2.628-.979,3.239,3.239,0,0,1-1.657-2.647.5.5,0,0,0-.835-.386,7.824,7.824,0,0,0-2.318,5.412,23.458,23.458,0,0,0,.412,5.051l.1.672a18.9,18.9,0,0,1,.268,4.43c-.547-.577-1.125-1.123-1.718-1.652-.3-.654-.6-1.3-.9-1.942-.278-.591-.557-1.182-.827-1.775-5.76-12.611-8.325-26.469-10.807-39.871a254.359,254.359,0,0,1-3.925-26.347c-.04-.52-.1-1.077-.163-1.654a17.345,17.345,0,0,1-.04-5.513l.083-.342c.488-2.042.885-3.654,4.72-3.472,8.126.389,12.139,4.1,15.679,7.381.8.742,1.557,1.443,2.347,2.1,6.293,5.218,10.582,10.425,15.122,15.938,2.195,2.664,4.463,5.419,6.966,8.156,14.6,15.965,16.971,28.253,16.993,28.375a.5.5,0,0,0,.857.253c.078-.082,1.888-2.066.765-5.7-.052-.171-.017-.193.007-.208.594-.376,3.089.306,3.919,1.074a.5.5,0,0,0,.737-.672L358.8,92.309q1.207.766,2.458,1.448c3.1,2.848,6.859,5.551,11.277,6.187.214.03.434.059.657.087,1.613.208,3.281.421,3.876,1.8a2.525,2.525,0,0,1-.037,1.942,6.982,6.982,0,0,1-3.246,3.058.5.5,0,0,0,.283.93,11.47,11.47,0,0,0,5.405-1.741l-3.2,11.6a.5.5,0,0,0,.272.586.49.49,0,0,0,.21.047.5.5,0,0,0,.413-.219l6.028-8.825a3.236,3.236,0,0,1,1.226-1.126c1.916-.94,3.375,1.027,4.266,2.837,1.02,2.075,2.252,4,4.34,4.023h.039c1.834,0,2.947-1.487,4.024-2.926,1.239-1.656,2.306-3.086,4.315-2.474a4.548,4.548,0,0,1,1.664,1,32.455,32.455,0,0,0,13.765,7.22.5.5,0,0,0,.518-.788c-2.5-3.3-4.581-6.309-4.69-9.793-.032-1.025.136-2.871,1.621-3.714a1.859,1.859,0,0,1,1.624-.132c.868.366,1.082,1.195,1.33,2.156.079.308.159.618.26.912a3.184,3.184,0,0,0,1.695,1.887,1.648,1.648,0,0,0,1.43-.078.5.5,0,0,0,.06-.837,3.278,3.278,0,0,1-1.24-2.435,5.474,5.474,0,0,1,1.484-4.068c1.757-1.8,4.361-2.534,6.879-3.24l.241-.067a24.76,24.76,0,0,0,3.8-1.342l-6.2,6.23a.5.5,0,0,0,.7.716,3.4,3.4,0,0,1,2.6-.451,9.934,9.934,0,0,0,.2,5.063.482.482,0,0,0,.52.35.5.5,0,0,0,.454-.434c.564-4.341,3.486-7.955,6.689-11.58,9.846-11.144,20.294-22,31.055-32.257,4.874-4.647,10.173-9.228,16.636-9.735a8.929,8.929,0,0,1,3.8.439c4.179,1.552,4.523,5.575,4.272,9.692a94.31,94.31,0,0,1-2.305,15.771,185.969,185.969,0,0,1-5.816,18.73l-10.126,28.966a41.193,41.193,0,0,1-3.036,3.313l-.067-.806c.157-.557.308-1.117.452-1.675,1.034-4,2.1-8.133,5.079-10.774a.5.5,0,0,0-.506-.843,27,27,0,0,0-7.471,4.249l1.477-3.011a.5.5,0,0,0-.324-.7c-4.977-1.283-9.746-.549-13.082,2.014a.5.5,0,0,0-.158.586.488.488,0,0,0,.523.307l4.293-.525-.793,3.969a.5.5,0,0,0,.732.536l1.551-.856a20.86,20.86,0,0,1,2.6,12.3,28.313,28.313,0,0,0-1.826,9.116c.021,4.437,1.75,8.606,3.422,12.638.426,1.029.854,2.068,1.258,3.117a46.83,46.83,0,0,0-.355,5.889A27.31,27.31,0,0,0,469,184.722a91.886,91.886,0,0,1-3.12,14.9c-1.176-.322-2.354-.634-3.537-.927a10.192,10.192,0,0,0,1.142-4.111.5.5,0,0,0-.931-.276,22.926,22.926,0,0,1-2.8,3.77c-4.9-1.125-9.856-2.015-14.835-2.675-2.769-.371-5.556-.671-8.349-.854a14.985,14.985,0,0,0-2.187-3.026,18.114,18.114,0,0,0,3.694-4.139.5.5,0,0,0-.765-.633,2.168,2.168,0,0,1-1.438.567,85.6,85.6,0,0,0,11.857-11.981c3.038-3.98,4.448-7.549,4.311-10.912a.5.5,0,0,0-.926-.24,43.388,43.388,0,0,1-15.351,14.866,12.326,12.326,0,0,0,1.322-2.674.5.5,0,0,0-.8-.546,19.574,19.574,0,0,1-21.505,2.579.5.5,0,0,0-.72.524c.188,1.2.947,2.131,3.007,3.681l7.574,5.7c-.081,0-.161,0-.241,0a.5.5,0,0,0-.229.929,13.737,13.737,0,0,1,4.939,5.144c-1.767.053-3.531.176-5.29.383a42.471,42.471,0,0,0-5.778,1.164.6.6,0,0,0-.165-.048.653.653,0,0,0-.424.1.331.331,0,0,0-.045,0,.444.444,0,0,0-.466.316,13.877,13.877,0,0,0-2.468,1.176,15.768,15.768,0,0,1,2.427-.974,5.408,5.408,0,0,0,.046,1.79l.006.292a.5.5,0,0,0,.492.487c.036,0,.075,0,.111-.01a.507.507,0,0,0,.222.052.377.377,0,0,0,.058,0,.5.5,0,0,0,.443-.513,1.653,1.653,0,0,1,.031-.39l.063.055.176.34a.5.5,0,0,0,.375.265.506.506,0,0,0,.58.139.5.5,0,0,0,.3-.545l-.236-1.369a.509.509,0,0,0-.519-.414.5.5,0,0,0-.3.124l-.218-.421a1.187,1.187,0,0,0-.186-.267,44.739,44.739,0,0,1,6.523-.836c1.545-.1,3.091-.15,4.637-.16a13.627,13.627,0,0,1,1.26,4.173.46.46,0,0,0-.315.095q-2.2-.777-4.477-1.375l-.34-.951a.5.5,0,0,0-.243-.277l-.129-.273a.5.5,0,0,0-.656-.243l-.031.015a.5.5,0,0,0-.65.106.5.5,0,0,0-.365-.336.49.49,0,0,0-.49.162l-1.073,1.248a.5.5,0,0,0,.214.8,1.906,1.906,0,0,1,.837.579.5.5,0,0,0,.446.178.489.489,0,0,0,.114-.029,1.136,1.136,0,0,0,.434.529.9.9,0,0,0,.151.053,44.97,44.97,0,0,0-7.138.508,68.334,68.334,0,0,1,13.732.733,7.93,7.93,0,0,1,1.071,3.358.5.5,0,0,0-.66.418,19.274,19.274,0,0,1-1.345,5.2,56.887,56.887,0,0,0-6.314-3.474.7.7,0,0,0,.186-.118,1.012,1.012,0,0,0,.265-.473.5.5,0,0,0,.181-.187l.1-.183a.639.639,0,0,1,.089.009.693.693,0,0,1,.1.027v.053a.5.5,0,0,0,.654.478,2.4,2.4,0,0,1,.236.416.5.5,0,0,0,.955-.24l-.18-2.691a.5.5,0,0,0-.488-.466.491.491,0,0,0-.508.445c-.009.093-.023.185-.039.277-.017-.04-.035-.079-.054-.119a.5.5,0,0,0-.435-.285.515.515,0,0,0-.381.157.5.5,0,0,0-.443-.424.5.5,0,0,0-.536.377.487.487,0,0,0-.122.25l-.267,1.511a1.284,1.284,0,0,0-.177.8,45,45,0,0,0-4.372-1.683l0-.013a.483.483,0,0,0-.485-.335.49.49,0,0,0-.282.111,38.237,38.237,0,0,0-4.465-1.084A31.753,31.753,0,0,1,416.751,204a.488.488,0,0,0-.261.346.5.5,0,0,0-.717.492,2.836,2.836,0,0,0,.4,1.227c.008.055.02.109.033.163a.5.5,0,0,0,.414.366.5.5,0,0,0,.737-.4l0-.027c.047-.049.093-.1.137-.151a7.766,7.766,0,0,0,1.3.4.494.494,0,0,0,.4-.085.5.5,0,0,0,.2-.353,1.565,1.565,0,0,0-.3-1.06,71.89,71.89,0,0,1,9.926,5.435c.146.091.287.19.432.283a19.6,19.6,0,0,1-3.591,5.276c-1.137-1.174-2.321-2.3-3.557-3.37l.9-1.6a4.336,4.336,0,0,1-.937-.881.5.5,0,0,0-.552.02l-1.291.92c-.674-.526-1.357-1.041-2.061-1.529-2.1-1.313-4.163-3.038-6.667-3.427a9.524,9.524,0,0,1,3.44,1.735c1.773,1.245,3.132,2.331,4.732,3.681a.945.945,0,0,0-.217.436.871.871,0,0,0,.357.87,1.154,1.154,0,0,0,.684.226,1.048,1.048,0,0,0,.483-.115,1.184,1.184,0,0,0,.161-.117q2.018,1.827,3.866,3.784c-.271.258-.535.523-.822.764a.5.5,0,0,0,.322.883.5.5,0,0,0,.31-.108l.929-.735c7.857,8.587,13.571,18.86,19.3,29.138a9.819,9.819,0,0,0,1.278,3.889c-.076-.028-.148-.063-.222-.093a42.365,42.365,0,0,1-8.952-9.648.5.5,0,0,0-.918.306c.331,4.918,3.082,9.3,5.809,12.769-.815-.4-1.653-.813-2.448-1.26-2.546-1.433-4.172-3.017-4.971-4.841a.5.5,0,0,0-.958.193,43.418,43.418,0,0,0,2,13.678l-5.437-2.246a.5.5,0,0,0-.682.56L430,261.06a19.1,19.1,0,0,0-5.442-1.678.5.5,0,0,0-.488.776c4.071,5.949,11.022,9.02,16.623,11.032,1.375.493,2.765.961,4.157,1.429a75.56,75.56,0,0,1,11.311,4.5,24.753,24.753,0,0,1,6.56,11.743l-12.173-.639a.5.5,0,0,0-.268.937l10.3,5.715-3.285.2a.5.5,0,0,0-.188.948c1,.491,2.114,1.142,3.185,1.8a16.1,16.1,0,0,0-.669,4.487,24.347,24.347,0,0,1-7.067-3.282c-1.489-.947-8.467-7.136-8.537-7.2a.5.5,0,0,0-.752.645c.065.1,4.71,7.274,10.206,13.962H423.055a39.553,39.553,0,0,0-3.671-5.771,14.625,14.625,0,0,0,5.866,1.3.5.5,0,0,0,.19-.964C419.3,298.569,414.6,293.5,411.6,289.907c-1.384-1.658-2.731-3.4-4.035-5.085a98.589,98.589,0,0,0-7.538-8.978c-5.092-5.167-10.429-8.151-15.863-8.867a.489.489,0,0,0-.545.357.5.5,0,0,0,.272.593,32.3,32.3,0,0,1,7.214,4.2,6.57,6.57,0,0,0-3.01.276.5.5,0,0,0-.039.931A26.175,26.175,0,0,1,403.177,293.1l-3.45-.892a.5.5,0,0,0-.365.922,7.656,7.656,0,0,1,3.395,3.861,46.664,46.664,0,0,0-12.445-3.518.493.493,0,0,0-.532.309.5.5,0,0,0,.17.591c5.078,3.684,10.3,7.48,14.7,12.069H375.9c-.24-.082-.482-.159-.721-.246l1.157-.666a.5.5,0,0,0-.139-.921l-13.216-2.963,10.584-10.58a.5.5,0,0,0-.628-.771,61.234,61.234,0,0,1-9.014,4.892,4.412,4.412,0,0,0,.822-1.937.5.5,0,0,0-.736-.522,54.9,54.9,0,0,1-5.475,2.64c-1.974-4.659-5.407-6.9-11.17-12.032-2.888-2.734-6.577-5.491-11.541-6.225C330.542,276.144,325.291,277.345,320.249,278.91Zm35.813-86.094.019-.026.017-.007Zm5.414.6.06-.218Zm3.045,1.811-.112-.031a.192.192,0,0,1,.1-.044Zm60.923,4.3.011.029c.007.017.024.024.032.039-.052,0-.1,0-.156,0A.545.545,0,0,0,425.444,199.528Zm.943-.334-.363-1.017c1.414.511,2.814,1.049,4.195,1.626a.505.505,0,0,0,.045.143q-1.965-.22-3.938-.313A.49.49,0,0,0,426.387,199.194Zm34.261,13.93-.193.239c-.533.657-1.066,1.314-1.579,1.981-.342.445-.656.88-.953,1.31l-.081-.073q-2.46-2.215-5.049-4.3a25.161,25.161,0,0,0,4.28-1.591.5.5,0,0,0,.266-.578.491.491,0,0,0-.517-.371l-4,.275a10.439,10.439,0,0,0,1.461-1.42.5.5,0,0,0-.167-.775l-1.583-.749c.438-.231.875-.47,1.311-.71,2.9.94,5.751,1.948,8.516,3Q461.547,211.267,460.648,213.124Zm-14.3-5.585a75.331,75.331,0,0,0-9.936-5.7l0-.067a147.794,147.794,0,0,1,14.348,3.62A34.582,34.582,0,0,1,446.349,207.539Zm-13.021,2.636a15.908,15.908,0,0,0,3.035-7.539,98.717,98.717,0,0,1,9.114,5.249c-.6.223-1.21.432-1.822.62a.5.5,0,0,0,0,.955,12.033,12.033,0,0,0,3.188.536,21.518,21.518,0,0,1-4.376,2,.5.5,0,0,0,.086.97,24.854,24.854,0,0,0,3.44.237,25.816,25.816,0,0,0,5.7-.64q2.921,2.329,5.766,4.8a14.2,14.2,0,0,0-2.551,6.889l-1.98-2.141a.5.5,0,0,0-.857.243,12.6,12.6,0,0,0,.225,5.829,20.594,20.594,0,0,1-2.949-1.242,99.033,99.033,0,0,0-17.014-15.492C432.677,211.034,433.012,210.613,433.328,210.175Zm32.1-3.439c-.2.429-.4.863-.6,1.293C465.029,207.6,465.222,207.165,465.426,206.736Zm-2.738,1.855c-2.619-.981-5.265-1.891-7.921-2.753a25.156,25.156,0,0,0,4.5-3.182,14.5,14.5,0,0,0,2.653-3.23q1.864.456,3.72.958Q464.36,204.571,462.688,208.591Zm-6.5-7.055h0a34.266,34.266,0,0,1-4.509,3.317c-.276-.086-.551-.176-.827-.262-4.713-1.378-9.543-2.727-14.428-3.683-.012-.323-.026-.646-.065-.962a3.756,3.756,0,0,1,1.145.828.5.5,0,0,0,.863-.387,14.865,14.865,0,0,0-1.384-5.019q2.021.139,4.037.342a167.226,167.226,0,0,1,18.1,3.051C458.11,199.81,457.1,200.742,456.184,201.536Zm-24.455,10.6a96.176,96.176,0,0,1,15.265,13.408,13.265,13.265,0,0,1-2.351-1.966.5.5,0,0,0-.813.575,20.6,20.6,0,0,0,9.425,8.5l.144.172a31.294,31.294,0,0,0-3.5,5.346,14.428,14.428,0,0,0-1.6,6.725l-1.905-2.24a.5.5,0,0,0-.862.189,9.387,9.387,0,0,0-.333,2.193,164.492,164.492,0,0,0-16.138-25.587q-1.151-1.377-2.374-2.692A42.869,42.869,0,0,0,431.729,212.135ZM358.567,91.914c-.032-.011-.064-.019-.1-.03l-.04-.052C358.477,91.859,358.522,91.888,358.567,91.914Zm-26.42,226.635a4.289,4.289,0,0,0-.439,3.712,1.871,1.871,0,0,0,.127.258,4.343,4.343,0,0,1-1.362-.385c-4.013-2.069-4.982-5.489-5.279-9.37.723-3.228,2.075-6.261,3-9.729a20.773,20.773,0,0,0,.836-4.882,22.464,22.464,0,0,1,.164-3.192,31.051,31.051,0,0,0-1.274,3.126c-.365.88-.781,1.738-1.223,2.581-.223.354-.434.7-.628,1.026q.249-1.56.535-3.112c.023-.111.046-.222.07-.333-.657,1.269-1.254,2.57-1.821,3.883-2.3,5.176-3.736,10.292-2.7,14.918a11.655,11.655,0,0,0,2.464,5.257c-.294-.089-.59-.172-.9-.236a3.278,3.278,0,0,0-2.236-.225c-.942.315-1.006,1.484-.624,2.269a1.625,1.625,0,0,0,.372.5,5.793,5.793,0,0,1-1.613-.273,8.8,8.8,0,0,1-2.7-1.906l.006.006.009.008-.01-.011,0,0c-2.678-2.705-2.453-3.635-3.381-7.772a56.125,56.125,0,0,1-1.236-11.071c-.057-2.4.417-4.758.54-7.141-.81,2.471-2.012,4.811-2.581,7.368-1.348,5.509-1.535,11.613.881,16.881a8.9,8.9,0,0,0,2.172,2.7c.016.014.032.025.048.039a4.334,4.334,0,0,1-.591-.113,10.478,10.478,0,0,1-2.971-1.1c-1.48-.491-.921.87.039,1.669a8.683,8.683,0,0,1-2.366-.139c-1.71-.524-1.8-.927-2.891-1.916a22.506,22.506,0,0,1-4.019-5.02,34.31,34.31,0,0,1-4.131-8.143,12.357,12.357,0,0,1,.4-1.8A69.933,69.933,0,0,1,300,300.2c.447-.861,1.046-1.961,1.719-3.035q-.715.589-1.407,1.208c-1.787,1.667-3.794,3.544-4.854,5.789a14.919,14.919,0,0,1,.025-3.258c-2.93,6.783-1,15.168,3.858,20.643a11.07,11.07,0,0,1-4.1-1.925c-4.315-3.3-6.874-10.061-6.762-15.044.475-11.825,9.37-15.021,28.052-22.2.976-.337,2-.69,3.063-1.038a.465.465,0,0,0,.11.021.5.5,0,0,0,.115-.013c.24-.057.478-.109.758-.169a.5.5,0,0,0,.336-.261c6.073-1.9,13.009-3.324,18.161-.424a7.551,7.551,0,0,1,2.307,2.49c.064.092,1.035,2.423,1.546,3.46.553,1.264,1.315,2.427,1.973,3.633a4.774,4.774,0,0,0,.71,1.328,9.666,9.666,0,0,1-.055-1.775,3.743,3.743,0,0,1,.857-2.474,16.576,16.576,0,0,1,9.992,8.857c.727,2.317,1.3,6.92.9,8.213a10.834,10.834,0,0,1-.525,1.231,2.567,2.567,0,0,1-.181.268l-.026.025c-.671.709-4.008.8-5.83,2.185a9.808,9.808,0,0,0-1.478,1.455c-.013-.78-.06-1.56-.133-2.333a18.774,18.774,0,0,0-4.346-11.076,18.389,18.389,0,0,1,2.078,10.365c-.022.827-.089,1.648-.189,2.44,0-.018,0-.037-.009-.056a45.586,45.586,0,0,0-3.92-10.008c.29,3.279,1.661,8.847,2.578,13.035,1.7,7.757-9.083,10.537-9.15,10.558a5.2,5.2,0,0,1-.4-.766C335.1,320.03,334.131,316.38,332.147,318.549Zm177.179,6.074a8.2,8.2,0,0,1-2.3.02c.978-.74,1.6-2.054.14-1.644a10.1,10.1,0,0,1-2.941.944,3.949,3.949,0,0,1-.577.082c.016-.013.032-.023.048-.036a8.873,8.873,0,0,0,2.264-2.556c2.655-5.074,2.844-11.1,1.873-16.6-.395-2.549-1.415-4.916-2.049-7.392-.026,2.356.29,4.707.09,7.069a56.742,56.742,0,0,1-1.866,10.855c-1.148,4.033-.987,4.962-3.739,7.5h0l-.011.01.009-.007.007,0a8.664,8.664,0,0,1-2.728,1.746,5.539,5.539,0,0,1-1.576.19,1.658,1.658,0,0,0,.39-.472c.416-.755.425-1.911-.466-2.268a3.125,3.125,0,0,0-2.177.112c-.3.047-.591.115-.88.189a11.761,11.761,0,0,0,2.7-5.063c1.283-4.511.2-9.626-1.707-14.843-.468-1.323-.966-2.635-1.525-3.919l.048.333c.119,1.028.231,2.06.329,3.094q-.254-.5-.546-1.042c-.377-.853-.727-1.72-1.026-2.606a30.641,30.641,0,0,0-1.043-3.145,22.793,22.793,0,0,1-.035,3.156,20.858,20.858,0,0,0,.513,4.854c.68,3.466,1.8,6.524,2.308,9.742-.523,3.812-1.666,7.137-5.672,8.979a4.177,4.177,0,0,1-1.341.313,1.936,1.936,0,0,0,.138-.248,4.3,4.3,0,0,0-.2-3.682c-1.787-2.237-2.947,1.315-3.687,2.773a5.223,5.223,0,0,1-.434.735c-.064-.024-10.32-3.3-8.209-10.861,1.14-4.084,2.8-9.507,3.281-12.726a46.064,46.064,0,0,0-4.4,9.676c-.005.018-.008.036-.012.054-.049-.786-.064-1.6-.035-2.415a18.589,18.589,0,0,1,2.637-10.118,18.947,18.947,0,0,0-4.874,10.707c-.117.759-.209,1.525-.269,2.294a9.529,9.529,0,0,0-1.341-1.508c-1.679-1.454-4.9-1.708-5.506-2.441l-.023-.026a2.257,2.257,0,0,1-.159-.273,10.538,10.538,0,0,1-.434-1.24c-.284-1.2.411-5.151,1.185-7.516q.354-.817.764-1.6a16.732,16.732,0,0,1,9.621-7.175,3.709,3.709,0,0,1,.679,2.482,9.713,9.713,0,0,1-.16,1.748,4.833,4.833,0,0,0,.766-1.275c.711-1.156,1.517-2.266,2.129-3.486.556-1,1.636-3.248,1.7-3.335a7.52,7.52,0,0,1,2.382-2.342c6.456-3.261,15.208.294,21.685,2.968,17.632,8,26.041,11.589,25.783,23.273-.192,4.919-3.077,11.462-7.449,14.5a10.75,10.75,0,0,1-4.08,1.7c5.029-5.159,7.4-13.333,4.98-20.166a14.994,14.994,0,0,1-.173,3.215,19.992,19.992,0,0,0-4.344-5.948q-.63-.645-1.286-1.261c.585,1.093,1.1,2.207,1.478,3.078a68.878,68.878,0,0,1,2.658,6.735,12.331,12.331,0,0,1,.276,1.8,34.609,34.609,0,0,1-4.488,7.826,22.542,22.542,0,0,1-4.19,4.752C511.118,323.8,511.011,324.19,509.326,324.623Z"/></svg>