<svg id="ac2e6725-0e09-4f74-8078-64d3f6d1603c" data-name="Layer 2" xmlns="http://www.w3.org/2000/svg" viewBox="0 0 680.239 486.18" style="fill: #215342;" height="230" width="315" transform="translate(0, -1)"><path d="M411.8,211.912a.5.5,0,0,0-.445.3c-1.19,2.8-2.708,3.79-4.912,3.223a4.463,4.463,0,0,1-3.25-4.448,4.072,4.072,0,0,1,1.185-2.592,4.733,4.733,0,0,1,2.883-1.044,4.871,4.871,0,0,1,3.815,1.822.512.512,0,0,0,.432.2.5.5,0,0,0,.406-.25,2.705,2.705,0,0,0-.614-3.016,5.622,5.622,0,0,0-2.486-1.856,6.608,6.608,0,0,0-4.049-.411,13.837,13.837,0,0,0-9,16.047,8.111,8.111,0,0,0,1.268,3.056,4.692,4.692,0,0,0,2.838,1.912,3.97,3.97,0,0,0,.752.07,5.317,5.317,0,0,0,2.274-.554l.236-.106a17.124,17.124,0,0,0,8.829-8.709,4.915,4.915,0,0,0,.3-3.376A.491.491,0,0,0,411.8,211.912Z"/><path d="M318.33,187.392a.5.5,0,0,0-.436-.255h0c-1.951.019-3.8-.053-5.04-1.163a3.38,3.38,0,0,1-1.063-2.464,3.882,3.882,0,0,1,1.057-2.816,4.611,4.611,0,0,1,5.568-.475.5.5,0,0,0,.7-.681,8.218,8.218,0,0,1-.44-.91c-.622-1.413-1.474-3.348-4.207-3.429a11.521,11.521,0,0,0-7.852,3.08,17.051,17.051,0,0,0-4.521,7.1,13.767,13.767,0,0,0-.889,6.277c.3,2.49,1.937,5.437,4.816,6.021a5.174,5.174,0,0,0,1.023.1,6.736,6.736,0,0,0,3.3-.933,14.119,14.119,0,0,0,3.26-2.764,41.226,41.226,0,0,0,4.722-6.184A.5.5,0,0,0,318.33,187.392Z"/><path d="M334.16,320.262a.5.5,0,0,0-.357.164l-6.085,6.7a22.812,22.812,0,0,1,1.724-6.77.5.5,0,0,0-.76-.6c-.551.414-1.055.87-1.542,1.313a8.441,8.441,0,0,1-2.17,1.62.507.507,0,0,0-.275.271,37.7,37.7,0,0,0-2.863,12.736.5.5,0,0,0,.968.2l.922-2.48,1.043,7.545a.5.5,0,0,0,.482.432.485.485,0,0,0,.5-.4l.318-1.655,2.311,6.471a.5.5,0,0,0,.47.332.522.522,0,0,0,.078-.006.5.5,0,0,0,.422-.477,64.06,64.06,0,0,1,3.116-17.663c.126-.387.332-.91.659-.974.286-.058.624.239.864.5A7.577,7.577,0,0,1,336,332.09a.5.5,0,0,0,.423.456.505.505,0,0,0,.54-.307,11.188,11.188,0,0,0-2.434-11.832A.488.488,0,0,0,334.16,320.262Z"/><path d="M463.107,159.879a.5.5,0,0,0-.031-.971,68.658,68.658,0,0,0-10.48-1.333,38.4,38.4,0,0,1,4.074-.553.5.5,0,0,0,.113-.974,50.909,50.909,0,0,0-6.879-1.709,26.409,26.409,0,0,1,7.226.115.5.5,0,0,0,.389-.885,29.859,29.859,0,0,0-10.989-5.541,19.82,19.82,0,0,0,3.875-1.189.5.5,0,0,0-.075-.946,38.928,38.928,0,0,0-11.464-1.052,15.9,15.9,0,0,1,2.491-3.265c2.065-.484,4.132-.96,6.185-1.483,7.009-1.693,13.981-3.555,21.046-5.006.534-.11,1.23-.234,1.661-.316-.661.073-1.322.158-1.981.248-6.389.914-12.726,2.168-19.024,3.571-2.131.457-4.259.958-6.37,1.516a54.256,54.256,0,0,1,10.171-7.074c.7-.35,1.4-.657,2.092-.929-.477.13-.949.272-1.417.431a32.993,32.993,0,0,0-12.541,8.035,68.128,68.128,0,0,0-11.192,4.145,99.388,99.388,0,0,1,10.113-2.84,11.339,11.339,0,0,0-1.636,2.981,38.85,38.85,0,0,0-7.086,1.133,3.066,3.066,0,0,0-1.384.644,1.439,1.439,0,0,0-.289,1.817.5.5,0,0,0,.549.194,14.03,14.03,0,0,1,6.081-.389l-4.35,2.036a.5.5,0,0,0-.269.588.492.492,0,0,0,.536.362,15.082,15.082,0,0,1,9.7,2.294l-5.991,3.155a.5.5,0,0,0,.093.923L452,162.25a21.924,21.924,0,0,0-2.975,6.356.5.5,0,0,0,.886.431A24.3,24.3,0,0,1,463.107,159.879Z"/><path d="M645.069,378.862H473.327a25.5,25.5,0,0,0-1.124-7.8c-2.682-8.259-9.539-13.569-16.436-17.482-1.979-1.116-3.987-2.168-6.012-3.182a97.249,97.249,0,0,0-2.966-15.364l1.99,2.72a.5.5,0,0,0,.9-.351l-1.288-11.389,4.209,2.155a.5.5,0,0,0,.61-.767,12.556,12.556,0,0,1-2.483-6.694q3.033,4.387,5.979,8.791c4.119,6.317,8.242,12.688,12.267,19.037-3.641-6.771-7.616-13.358-11.852-19.773q-3.24-4.832-6.571-9.682-.078-.893-.143-1.785c-.049-.66-.1-1.317-.155-1.963a44.349,44.349,0,0,0-3.244-13.068,35.077,35.077,0,0,0-2.382-4.719l-.013-5.842a2.425,2.425,0,0,1,.243-1.358.654.654,0,0,1,.469-.26.242.242,0,0,1,.2.064.5.5,0,0,0,.873-.388,26.209,26.209,0,0,1,.011-6.327l.3.168a.5.5,0,0,0,.747-.425c.109-5.61,5.559-18.22,8.487-25,.33-.763.624-1.443.884-2.053.748-.983,1.513-1.951,2.318-2.884l.41-.475c4.062-4.712,7.271-8.435,13.148-10.389a.5.5,0,0,0,.183-.841,11.414,11.414,0,0,1-1.078-1.178,4.133,4.133,0,0,0-2-1.569c1.824-1.591,2.937-2.354,3.3-2.254a.5.5,0,0,0,.446-.868c-2.513-2.1-4.1-3.807-4.74-5.1l2.934-.267a.5.5,0,0,0,.4-.72l-6.544-13.265,5.6-1.741a.5.5,0,0,0,.184-.851c-.75-.671-1.575-1.329-2.373-1.965-2.559-2.042-5.206-4.153-5.989-7.12-.11-.417-.234-.833-.36-1.256a13.865,13.865,0,0,1,.129-10.009,6.222,6.222,0,0,0,.176-2.158c-.041-1.315.013-1.879.459-1.967,5.6-1.1,10.173-10.785,12.662-19.121,4.542-5.3,7.575-11.841,10.3-17.738l16.487-35.649c2.5-5.406,4.773-11.128,2.794-16.445a13.853,13.853,0,0,0-8.1-7.725,26.623,26.623,0,0,0-11.139-1.487c-9.332.4-19.276,3.236-31.293,8.937a174.618,174.618,0,0,0-31.7,19.415,42.294,42.294,0,0,0-6.315.268l-5.074-2.591a.5.5,0,0,0-.686.647l.5,1.129-6.717-1.787c-1.9-.5-2.856-1.2-2.936-2.142a.5.5,0,0,0-.986-.064l-.295,1.353a3.822,3.822,0,0,1-3.159-.763,16.079,16.079,0,0,1-1.471-1.2,15.5,15.5,0,0,0-1.745-1.392c-2.768-1.808-6.154-1.719-9.7-1.311l.86-1.664a.5.5,0,0,0-.635-.692,14.219,14.219,0,0,1-6.422,1.018,15.167,15.167,0,0,1-9.406-5.064.5.5,0,0,0-.873.415l.174.948a58.17,58.17,0,0,0-10.72-5.731.5.5,0,0,0-.473.874,5.569,5.569,0,0,1,1.075.976,14.557,14.557,0,0,1-3.1-.945,18.55,18.55,0,0,1-6.13-6.685.5.5,0,0,0-.94.207l-.176,3.229c-1.673-3.008-3.47-5.969-5.369-8.847a116.992,116.992,0,0,0-19.849-45.409,45.882,45.882,0,0,0-9.841-10.507,21.054,21.054,0,0,0-13.667-4.376c-4.748.342-10.865,2.59-12.476,7.8q-3.825,12.363-6.8,25.025a81.092,81.092,0,0,0-2.622,7.682.5.5,0,0,0-.018.138c-.006.131-.06.888-.146,2.105-.074,1.052-.171,2.419-.281,3.993A18.373,18.373,0,0,0,276.6,78.5v0a83.008,83.008,0,0,0-2.216,12.839q-1.888,12.063-3.119,24.611c-.247.272-.5.54-.763.8a7.045,7.045,0,0,0-2.275,3.429,7.038,7.038,0,0,0,.805,4.081c.189.454.378.908.527,1.365.914,2.8.32,6.2-1.628,9.327a33.753,33.753,0,0,1-2.858,3.753c-.341.407-.67.806-.989,1.2a59.336,59.336,0,0,1-15.639,10.163.5.5,0,0,0-.16.8l2.06,2.182-6.128,3.547a.5.5,0,0,0-.234.305.5.5,0,0,0,.052.381A10.287,10.287,0,0,0,247,160.5a5.9,5.9,0,0,1-3.241,1.415.5.5,0,0,0-.443.58l.358,2.155a2.025,2.025,0,0,0-1.817.645,4.126,4.126,0,0,0-.729,2.738c-.224,12.012-.454,24.425.48,36.649l-.7-.331a.5.5,0,0,0-.685.617c.344,1,.692,2,1.059,3,1.6,8.137,2.952,16.408,4.018,24.615l-2.455-.1a.472.472,0,0,0-.476.292.5.5,0,0,0,.091.55c1.2,1.278.958,3.366.225,4.765a14.535,14.535,0,0,1-2.962,3.518c-.225.216-.449.432-.668.649a37.884,37.884,0,0,0-6.827,9.137c-3.785,4.634-7.087,11.225-9.756,18.069-4.59,2.889-10.019,6.577-12.992,8.862,4.153-2.582,8.336-5.115,12.512-7.66a74.068,74.068,0,0,1-5.6,6.86.5.5,0,0,0-.089.544.514.514,0,0,0,.465.3l2.616-.047c-.011.034-.021.068-.032.1l-3.735,4.362a.5.5,0,0,0,.677.727l1.981-1.461c-.429,1.52-.815,2.989-1.162,4.394a98.134,98.134,0,0,0-7.6,25.961.5.5,0,0,0,.925.327l2.149-3.627c-.011.065-.026.13-.037.195l-.106.493q-.353,1.646-.706,3.305a48.069,48.069,0,0,1-5.667,13.395.5.5,0,0,0,.546.748l1.706-.427a20.424,20.424,0,0,0-1.825,17.281.5.5,0,0,0,.193.245q-.164,2.247-.246,4.41c-2.65,1.106-5.276,2.274-7.863,3.539-7.161,3.523-14.36,8.443-17.526,16.541a26.019,26.019,0,0,0-1.6,10.036H21.069a.5.5,0,0,0-.5.5v21.506a.5.5,0,0,0,.5.5h169.8c5.16,3.122,11.844,4.594,13.64,5.216a11.056,11.056,0,0,0,4.982.025c1.161-.224,7.02-.443,8.6-.966a8.359,8.359,0,0,0,5.719,1.179,8.784,8.784,0,0,0,2.7-.948,7.272,7.272,0,0,0,3.038-.068c.09-.028.325-.083.6-.152a5.753,5.753,0,0,0,2.816-.628,15.177,15.177,0,0,0,3.465,1.618,14.815,14.815,0,0,0,4.99.426,4.972,4.972,0,0,0,2.6,1.383c1.551.125,2.213-1.113,2.508-2.554a24.449,24.449,0,0,0,7.057-4.531H400.47a22.345,22.345,0,0,0,4.752,3.09c.211,1.454.8,2.728,2.341,2.688a4.923,4.923,0,0,0,2.65-1.237,14.615,14.615,0,0,0,4.97-.15,15.037,15.037,0,0,0,3.524-1.424,5.689,5.689,0,0,0,2.755.783c.273.083.5.152.59.185a7.2,7.2,0,0,0,3.007.236,8.637,8.637,0,0,0,2.624,1.094,8.244,8.244,0,0,0,5.734-.861c1.541.611,7.334,1.153,8.472,1.44a10.906,10.906,0,0,0,4.939.251c2.129-.613,11-2.023,16.4-6.1H645.069a.5.5,0,0,0,.5-.5V379.362A.5.5,0,0,0,645.069,378.862Zm-261.655-2.484-.03-.035a3.331,3.331,0,0,1-.209-.38,15.169,15.169,0,0,1-.573-1.723c-.408-1.8.676-8.058,1.776-11.178a19.834,19.834,0,0,1,3.958-5.658c-.411,4.05-.91,8.064-1.463,12-.389,2.662-.8,5.346-1.219,8.025A5.353,5.353,0,0,1,383.414,376.378Zm-3.29-9.943c-1.137,4.065-1.77,8.567.153,11.97a5.289,5.289,0,0,0,.326.457h-9.509a43.4,43.4,0,0,1-9.748-5.741.5.5,0,0,0-.769.589l.157.379a10.205,10.205,0,0,0,3.707,4.773H274.183a15.711,15.711,0,0,0,.347-6.048,78.61,78.61,0,0,0,8.463-1.579.5.5,0,0,0,.376-.556.488.488,0,0,0-.516-.429l-8.655.357c-.08-.428-.166-.854-.26-1.275-1.711-7.718-4.932-11.035-10.6-16.27q1.16-3.276,2.315-6.551,1.824-5.069,3.681-10.089l2.149-.3a.5.5,0,0,0,.445.89,26.562,26.562,0,0,1,11.02-1.73l-2.7,2.4a.5.5,0,0,0,.524.836l19.815-8.272a.5.5,0,0,0-.306-.948,59.54,59.54,0,0,1-11,1.5,18.04,18.04,0,0,1,6.217-2.886.5.5,0,0,0-.2-.979l-23.842,3.809q1.8-4.772,3.663-9.5a.483.483,0,0,0,.236.02,95.783,95.783,0,0,1,21.5-1.635,1.709,1.709,0,0,1,.415,1.033,1.662,1.662,0,0,1-.379,1.209.5.5,0,0,0,.467.821,149.1,149.1,0,0,0,15.737-3.81l-3.02,4.1a.5.5,0,0,0,.6.756l4.9-2.1.007,6.959a.5.5,0,0,0,.383.485.468.468,0,0,0,.117.014.5.5,0,0,0,.444-.271L322.4,317.4a.5.5,0,0,0-.384-.726,168.288,168.288,0,0,0-28.077-1.044l2.924-4.644a.5.5,0,0,0-.614-.729l-5,2.079,1.384-3.786a.5.5,0,0,0-.868-.476,10.017,10.017,0,0,1-2.929,2.319,18.12,18.12,0,0,0-2,1.341,38.2,38.2,0,0,1-10.3,5.933c3.164-7.854,6.515-15.613,10.172-23.26a44,44,0,0,1,6.049,2.518c2.966,1.5,5.857,3.271,8.652,4.986,2.68,1.643,5.449,3.343,8.3,4.809,5.635,2.9,10.716,4.352,15.425,4.416a21.076,21.076,0,0,0,3.158.7,25.218,25.218,0,0,0,3.02.153,121.091,121.091,0,0,0,16.733-1.631c1.32,1.717,3.9,3.421,8.864,2.561a30.5,30.5,0,0,1,3.083-.356q-.75,5.886-1.574,11.769l-1.348-.511a.5.5,0,0,0-.433.9l1.592.949q-.882,6.3-1.788,12.613a8.26,8.26,0,0,1-1.536-2.845.487.487,0,0,0-.5-.358.5.5,0,0,0-.471.392l-.631,2.856-1.819-1.47a.5.5,0,0,0-.461-.09.5.5,0,0,0-.332.333l-.146.483a6.794,6.794,0,0,1-4.38-5.959.5.5,0,0,0-.868-.321c-1.1,1.2-1.419,2.8-1.064,5.34a.5.5,0,0,0,.2.334l9.278,6.79a.5.5,0,0,0,.756-.595l-.563-1.359c.616.374,1.247.723,1.883,1.062-.639,4.55-1.266,9.118-1.854,13.716-.2,1.637-.457,3.646-.614,5.057q.5-2.495.968-4.993,1.227-6.669,2.3-13.367c1.122.563,2.269,1.076,3.44,1.525a.5.5,0,0,0,.674-.395,14.844,14.844,0,0,1,6.572,5.478.5.5,0,0,0,.9-.4l-.749-2.867a10.274,10.274,0,0,1,4.108,1.945.5.5,0,0,0,.775-.573l-.668-1.728,9.363,4.235a.494.494,0,0,0,.206.045.5.5,0,0,0,.486-.615,32.541,32.541,0,0,1-.857-6.433,9.393,9.393,0,0,1,2.5,2.323.5.5,0,0,0,.893-.384,9.913,9.913,0,0,0-3.623-6.038.5.5,0,0,0-.808.413l.063,1.634-3.217-1.725a.5.5,0,0,0-.7.623,5.82,5.82,0,0,1,.31,3.128,37.989,37.989,0,0,1-13.6-4.6.5.5,0,0,0-.522.016.5.5,0,0,0-.223.472l.236,2.156a8.757,8.757,0,0,1-4.9-2.372q1.005-6.453,1.922-12.921l19.695,11.738a.5.5,0,0,0,.732-.274l.975-2.979,4.48,1.926a.5.5,0,0,0,.669-.294,2.555,2.555,0,0,0-.042-1.746l3.694.856a175.566,175.566,0,0,1-.642,17.729C384.518,356.894,381.891,360.125,380.124,366.435Zm97.56-204.05-.009-.011c.022-.029.041-.061.062-.091ZM499.927,97.86c.151.131.3.265.438.406C500.227,98.125,500.078,97.991,499.927,97.86ZM448.74,120.071a.5.5,0,0,0-.129-.967l-2.652-.246A28.062,28.062,0,0,1,448.8,117.2a58.359,58.359,0,0,1,11.8,2.048,41.254,41.254,0,0,0-12,3.678,40.646,40.646,0,0,0-7.378,1.153A32.16,32.16,0,0,1,448.74,120.071Zm-101.8,185.076a.5.5,0,0,0-.518-.076,36.393,36.393,0,0,1-18.681,2.674,13.449,13.449,0,0,1-5.708-1.956c-4.024-2.581-9.071-6.88-11.165-11.2a.5.5,0,0,0-.539-.274.5.5,0,0,0-.409.446l-.067.729a14.394,14.394,0,0,1-4.326-7.75.5.5,0,0,0-.812-.275l-.535.455c-.021-.157-.028-.316-.039-.474l1.78-1.612a4.939,4.939,0,0,0,3.017,1.179,6.593,6.593,0,0,0,1.381,5.1,18.028,18.028,0,0,0,4.4,3.8,2.215,2.215,0,0,0,1.474.512,1.166,1.166,0,0,0,.706-.372l5.143,5.277a.5.5,0,0,0,.47.138.5.5,0,0,0,.362-.328l.542-1.61a7.4,7.4,0,0,0,9.806,4.577l-.508.738a.5.5,0,0,0,.577.756c3.174-1.108,7.073-2.47,9.675-5.313.481,1,1.091,1.986,1.684,2.151a.761.761,0,0,0,.657-.114.5.5,0,0,0,.192-.281,11.619,11.619,0,0,0-3.354-11.759.5.5,0,0,0-.5-.08.523.523,0,0,0-.322.41,10.279,10.279,0,0,1-1.629,2.113c-.463.521-.852.965-1.155,1.349a25.1,25.1,0,0,0-3.146-6.444c-.319-.509-.6-.949-.7-1.18a.5.5,0,0,0-.39-.288c-.208-.029-.462.009-1.4.737a25.051,25.051,0,0,0-3.133,2.955c-.572-1.669-1.551-4.374-1.6-4.517a.5.5,0,0,0-.626-.3,39.359,39.359,0,0,0-6.5,2.825,6.917,6.917,0,0,1,1.276-2.535.5.5,0,0,0-.368-.818,26.157,26.157,0,0,0-4.1.483,22.733,22.733,0,0,1,7.564-3.374,29.285,29.285,0,0,1,12.892,2.309c4.24,1.986,7.7,5.4,11.041,8.708l.1.1a58.057,58.057,0,0,0,7.327,6.417,18.511,18.511,0,0,1-1.959,4.194.5.5,0,0,0-.861-.186,12.448,12.448,0,0,1-7.216,4.121l.381-1.635A.5.5,0,0,0,346.942,305.147Zm-60.261-23.554c-1.974-1.589-4.032-3.073-6.132-4.5q2.169-1.976,4.365-3.922c.318.254.636.513.953.767l-2.317,1.319a.5.5,0,0,0-.143.748c1.937,2.4,5,3.556,7.139,4.215.7.214,1.405.411,2.111.607l.064.019c-1.115,1.865-2.173,3.768-3.191,5.694l-4.287-3.625,1.293-.463a.5.5,0,0,0,.145-.861Zm72.163-88.363a60.56,60.56,0,0,0,.332-7.484c0-1.1,0-2.209.036-3.313a65.762,65.762,0,0,1,1.779-13.389,16.6,16.6,0,0,1,4.547-5.824,90.257,90.257,0,0,0,.359,14.123,63.031,63.031,0,0,1-6.162,22.37c-.428.867-.877,1.736-1.329,2.607-2.245,4.335-4.567,8.818-4.345,13.728a.5.5,0,0,0,.455.475.491.491,0,0,0,.533-.388,21.215,21.215,0,0,1,1.816-5.037l.119,5.358a.5.5,0,0,0,.967.169l1.089-2.819.216,3.187a.5.5,0,0,0,.983.089,26.876,26.876,0,0,1,6.658-11.957,23.4,23.4,0,0,0-.735,16.9l-1.269,4.042a21.042,21.042,0,0,0-1.2,11.834c.116.893.234,1.815.3,2.718.208,2.975-.327,5.273-1.593,6.83a5,5,0,0,1-3.39,1.766,4.417,4.417,0,0,1-.507.008c-.014-.018-.029-.039-.044-.057a14.673,14.673,0,0,0-6.416-4.3,56.659,56.659,0,0,0-8.419-2.29.507.507,0,0,0-.178,0c-7.291-2.195-12.154-2.763-13.673-2.6a10.068,10.068,0,0,0-1.706.343,17.838,17.838,0,0,0,.158-4.245,13.1,13.1,0,0,1,.409-5.008,13.3,13.3,0,0,1,3.383-4.543l.638-.649a37.451,37.451,0,0,0,6.253-8.613,20.275,20.275,0,0,0,9.378-7.438,48.971,48.971,0,0,0,5.295-10.151l.208,3.3a.5.5,0,0,0,.865.309C356.887,200.87,358.3,197.489,358.844,193.23Zm-97.968,74.694a20.14,20.14,0,0,0-3.915,1.741c-.494.043-.979.093-1.441.152-1.018.131-2.034.3-3.047.49q2.941-2.046,5.933-4.021A18.168,18.168,0,0,1,260.876,267.924Zm9.649,3.215a4.471,4.471,0,0,1,2.322.029.5.5,0,0,0,.468-.856,29.021,29.021,0,0,0-11.622-6.159q3.408-2.173,6.881-4.213,5.788,4.735,11.674,9.476-2.76,1.962-5.43,4.054Q272.7,272.249,270.525,271.139Zm10.48-28.1q2.373-.627,4.782-1.167c-.179.475-.353.95-.51,1.432a.5.5,0,0,0,.543.651,19.157,19.157,0,0,0-1.948,7.18q-1.668.739-3.314,1.522-.3-1.911-.524-3.836c.142-1.17.352-2.336.568-3.48C280.746,244.572,280.882,243.805,281.005,243.037ZM387.6,291.68c-.425-.6-.873-1.178-1.313-1.765a21.929,21.929,0,0,0,3.671-8.289c1.189,1.4,2.332,2.849,3.443,4.327q-.692,1.089-1.465,2.127A44.429,44.429,0,0,1,387.6,291.68Zm-5.23,3.279a43.312,43.312,0,0,1-13.654,4.607,25.078,25.078,0,0,1-5.763-2.136q.21-1.916.382-3.834a17.314,17.314,0,0,0,12.216-.023l-.822.931a.5.5,0,0,0,.375.831.474.474,0,0,0,.065,0,16.568,16.568,0,0,0,6.6-2.39C381.972,293.613,382.177,294.284,382.371,294.959ZM361.8,296.824c-.373-.2-.736-.405-1.078-.6a68.508,68.508,0,0,1-17.291-14.146c-.433-.492-.876-1.013-1.311-1.559.672.264,1.3.482,1.818.66.375.129.793.274.953.348l0,0a51.416,51.416,0,0,0,16.265,12.084.5.5,0,0,0,.665-.664c.1.052.215.088.321.137Q361.98,294.957,361.8,296.824Zm-3.822-38.58a1.639,1.639,0,0,0,.426.3c-3.61,4.639-8.44,7.609-13.426,8.121-.338.035-.683.056-1.028.079a20.378,20.378,0,0,0,2.982-2.245c.161-.148.32-.3.48-.454a5.846,5.846,0,0,1,2.629-1.771,5.724,5.724,0,0,1,1.108-.083c.288,0,.577-.008.864-.036,2.464-.251,4.276-2.2,5.783-4.154A1.715,1.715,0,0,0,357.976,258.244Zm-34.363-9.813c.415,3.357,2.373,6.521,3.263,7.2.18.139.37.265.561.39a4.9,4.9,0,0,1,.745.557,5,5,0,0,1,1.066,2.257l.138.462a20.456,20.456,0,0,0,2.308,4.837,20.46,20.46,0,0,1-9.452-13.925c-.2-1.2.416-2.729,1.095-4.245.1-.044.188-.092.281-.138A9.954,9.954,0,0,0,323.613,248.431Zm-13.22,25.246-3.21,2.117a.5.5,0,0,0,.213.914c4.314.542,13.208-.228,16.762-.65-.464.976-2.057,1.754-3.919,2.364-.438.029-.872.054-1.3.075-8.792.448-15.975-.258-21.993-2.2q1.142-1.639,2.362-3.217A41.283,41.283,0,0,0,310.393,273.677Zm-13.716-1.349c.482.176.972.325,1.463.464-.782,1.025-1.543,2.067-2.273,3.131a34.729,34.729,0,0,1-5.542-2.525c-.406-.272-.8-.554-1.186-.858a19.454,19.454,0,0,1-1.721-1.568c.241-.21.478-.423.719-.632l2.424-2.039A16.42,16.42,0,0,0,296.677,272.328Zm57.671-19.867c.568.369,1.161.824,1.255,1.4a1.5,1.5,0,0,1-1.215,1.49,3.876,3.876,0,0,1-2.457-.42c-.228-.1-.454-.207-.679-.315a9.685,9.685,0,0,0-2.063-.791,5.5,5.5,0,0,0-5.925,2.993,6.013,6.013,0,0,0,.69,5.984,13.244,13.244,0,0,0-1.934,1.065c-.258.162-.517.324-.78.477a4.357,4.357,0,0,1-3.194.777,5.55,5.55,0,0,1-2.395-1.758,10.183,10.183,0,0,1-2.407-3.376,5,5,0,0,0,3.508-3.594,5.97,5.97,0,0,0-1.449-5.326c-1.079-1.2-2.726-1.905-5.121-2.176a2.3,2.3,0,0,1-1.248-.364,1.271,1.271,0,0,1-.438-1.283c.183-.691.937-1.224,2.072-1.462,3.134-.656,8.488.076,11.935,1.635a.5.5,0,0,0,.165.042.481.481,0,0,0,.118.033C347.026,248.131,350.474,249.941,354.348,252.461ZM290.013,267.69q-1.576,1.35-3.132,2.708c-.8-.861-1.561-1.764-2.289-2.687q1.89-1.224,3.83-2.376A12.8,12.8,0,0,0,290.013,267.69Zm92.7,24.619c.4-.29.8-.591,1.173-.915a.5.5,0,0,0,.818.246c.324-.292.613-.6.9-.906.389.513.774,1.027,1.151,1.548q-1.66,1.149-3.419,2.146C383.129,293.719,382.917,293.015,382.709,292.309Zm8.406-10.927a30.56,30.56,0,0,0,2.442-5.955q1.736,1.437,3.447,2.966a34.72,34.72,0,0,1-3.043,6.669q-1.4-1.854-2.9-3.61A.529.529,0,0,0,391.115,281.382Zm7.321-8.877a34.451,34.451,0,0,1-1.138,4.975q-1.734-1.554-3.5-3a21.3,21.3,0,0,0,.5-3.179.521.521,0,0,0,.437.24.5.5,0,0,0,.449-.3,14.5,14.5,0,0,0,1.15-4.706c.791.416,1.572.852,2.355,1.285A23.748,23.748,0,0,1,398.436,272.505Zm-2.047-7.147a17.559,17.559,0,0,0-.953-5.782,11.224,11.224,0,0,1,1.366,1.7,12.539,12.539,0,0,1,1.779,5.251C397.857,266.129,397.125,265.74,396.389,265.358ZM287.651,241.451c-.106.022-.21.049-.316.071C287.441,241.5,287.545,241.473,287.651,241.451Zm-3.769,12.4a.5.5,0,0,0,.866.3l.333-.362a42.157,42.157,0,0,0,.278,10.924.5.5,0,0,0,.461.421.513.513,0,0,0,.513-.356,16.439,16.439,0,0,1,1.012-2.583,10.344,10.344,0,0,0,.627,2.166q-1.989,1.186-3.925,2.46a25.28,25.28,0,0,1-1.676-11.1.5.5,0,0,0-.775-.456c-.112.074-.359-.015-.489-.177a2.238,2.238,0,0,1-.331-.991c-.034-.2-.057-.4-.091-.6q1.569-.748,3.152-1.455A17.862,17.862,0,0,0,283.882,253.851Zm17.83-34.336a33.642,33.642,0,0,1,3.746.817,33.075,33.075,0,0,0,3.962.847,33.541,33.541,0,0,0-20.481,9.463.5.5,0,0,0,.6.791,4.9,4.9,0,0,1,2.938-.577,35.034,35.034,0,0,0-6.278,9.993l-.119.025c-1.646.357-3.277.757-4.9,1.178.086-.492.185-1,.3-1.548.113-.561.226-1.137.329-1.716,1.747-6.339,6.305-13.9,11.534-16.965C296.6,219.909,299.267,219.179,301.712,219.515Zm-43.359,31.51c3.021,3,6.269,5.682,9.306,8.17l.25.2q-3.671,2.164-7.25,4.488a28.012,28.012,0,0,0-5.322-.716.462.462,0,0,0-.351.127.662.662,0,0,0-.226.583c.066.523.671.834,1.993,1.517.277.143.579.3.89.466q-3.514,2.341-6.958,4.789c-.9.184-1.8.374-2.687.565a73.575,73.575,0,0,1-9.135,1.567c-.3.024-.649.035-.788-.109a.225.225,0,0,1-.069-.187,1.914,1.914,0,0,1,.7-1.069l5.377-4.764a.5.5,0,0,0-.45-.86l-12.876,3.129,3.43-5.536A246.918,246.918,0,0,1,258.353,251.025Zm22.71,19.046q1.61,1.3,3.217,2.591c-1.469,1.32-2.929,2.652-4.392,3.981q-2.07-1.378-4.208-2.646Q278.331,271.977,281.063,270.071Zm-41.1-20.813a.48.48,0,0,0,.23-.31q.489-.443.989-.871a44.293,44.293,0,0,1,8.693-.933.5.5,0,0,0,.439-.267.494.494,0,0,0,.01-.446l5.771,3.219c.46.257.934.52,1.414.785a245.776,245.776,0,0,0-22.412,11.486l.668-1.077a.5.5,0,0,0-.034-.574.5.5,0,0,0-.55-.163,16.347,16.347,0,0,0-6.424,4.045,50.348,50.348,0,0,1,10.96-14.767Zm60.491,47.8.166-.011a.5.5,0,0,0,.292-.881l-10.573-8.94q1.655-3.1,3.458-6.072a23.675,23.675,0,0,1,4.357,1.617c.078.04.148.087.224.129,2.5,7.916,8.959,16.112,19.253,24.414.23.185.463.358.7.529A45.536,45.536,0,0,1,300.449,297.054Zm59.643,8.55c.267-.151.54-.3.81-.453-.1.832-.2,1.662-.3,2.493-.592.171-1.178.352-1.754.532-1.16.363-2.359.738-3.553,1a13.752,13.752,0,0,1-3.405.322A44.025,44.025,0,0,0,360.092,305.6ZM372.967,307a36.566,36.566,0,0,0-9.939.05c-.427.08-.85.178-1.271.283q.073-.541.146-1.085.106-.884.216-1.766c1.089-.594,2.2-1.162,3.329-1.667.285.039.57.075.854.1a9.555,9.555,0,0,0,2.8.54c.179.008.358.012.535.012a24.761,24.761,0,0,0,5.7-.887l8.55-2.023q.972,3.76,1.837,7.547ZM416.5,232.612a12.4,12.4,0,0,1-3.778,1.569,20.909,20.909,0,0,1-7.154-.146c-3.4-.459-6.919-.935-10.015-2.483a31.687,31.687,0,0,1-7.035-5.374c-.765-.706-1.555-1.436-2.331-2.2a9.952,9.952,0,0,1-.878-4.139,24.384,24.384,0,0,1,1.677-7.773,21.78,21.78,0,0,1,1.462-3.517,59.645,59.645,0,0,1,7.132-4.858c3.082-1.817,7.338-2.091,12.648-.819a25.671,25.671,0,0,1,11.3,6.163,16.171,16.171,0,0,1,3.885,5.007,13.714,13.714,0,0,1-.228,11.123C422.038,227.735,418.988,230.57,416.5,232.612Zm-9.1-45.49c.2-.04.4-.073.6-.107C407.794,187.049,407.593,187.082,407.394,187.122ZM388.7,306.625a.5.5,0,0,0-.52.8l.8.954-2.174-.187q-.51-2.255-1.045-4.5c-.279-1.128-.569-2.255-.858-3.381l6.086-1.44c1.786,3.016,3.457,6.082,5.037,9.188A44.6,44.6,0,0,1,388.7,306.625ZM323,150.875q-.991-.292-1.974-.493Q322,150.581,323,150.875Zm74.2,157.309c-1.572-3.247-3.275-6.45-5.122-9.57l8.685-2.055q1.071,1.617,2.141,3.228,2.575,3.993,5.058,8.042A45.755,45.755,0,0,1,397.2,308.184ZM274.978,249.1v0l.1.068.354.251c.247.177.5.353.748.524l.06.042a.219.219,0,0,1,.081.168h0a6.525,6.525,0,0,1-5.829,1.034.5.5,0,0,0-.279.006c-.246.078-.518.145-.78.216l-2.178-1.191q-1.182-.928-2.311-1.918c1.982-.773,3.976-1.516,5.991-2.21C272.283,247.167,273.632,248.16,274.978,249.1ZM296.817,45.752a.513.513,0,0,0-.452-.218l-6.258.5a.96.96,0,0,1-.432-.031c-.018-.108.219-.478.59-.7a22.33,22.33,0,0,1,17.872-2.027,11.472,11.472,0,0,1-2.676.2.5.5,0,0,0-.2.968c.072.027,6.642,2.51,9.841,5.242l-.426.022C309.652,46.272,302.817,45.673,296.817,45.752ZM238.546,307.005a17.653,17.653,0,0,0-8.327-.127l.866-.6a.5.5,0,0,0-.228-.907,15.249,15.249,0,0,0-11.934,3.952l1.6-5.457a.5.5,0,0,0-.845-.482l-.35.375a30.754,30.754,0,0,0-2.986,3.553A96.994,96.994,0,0,1,221,290.664a39.063,39.063,0,0,1,5.526-5.512l-2.249,5.947a.5.5,0,0,0,.8.55,56.693,56.693,0,0,1,9.02-6.991,19.293,19.293,0,0,1,9.487-2.829,20.645,20.645,0,0,0-3.8,4.858.5.5,0,0,0,.624.709,40.29,40.29,0,0,1,20.723-2.588c.1.014.205.031.307.047-6.875,6.215-13.543,12.658-20.062,19.247C240.447,305.036,239.5,306.012,238.546,307.005Zm133.934,7.26a.506.506,0,0,0,.524-.118.5.5,0,0,0,.115-.523l-.923-2.553c4.844,1.069,9.79,2.13,14.794,2.812.159.753.321,1.5.476,2.258a107.094,107.094,0,0,1,1.752,14.939,11.44,11.44,0,0,1-5.6-2.179.5.5,0,0,0-.75.619l.749,1.524a26.988,26.988,0,0,1-6.969-2.1.493.493,0,0,0-.508.055.5.5,0,0,0-.195.471l.231,1.588-16.79-6.363q.86-6.1,1.678-12.2A30.705,30.705,0,0,1,372.48,314.265Zm25.631,15.01a.468.468,0,0,0-.469.259.5.5,0,0,0,.034.534,7.476,7.476,0,0,0,1.3,1.378l-5.221-.71a.5.5,0,0,0-.2.015,11.119,11.119,0,0,1-3.465.394c-.046-1.086-.083-2.172-.155-3.258a107.6,107.6,0,0,0-1.892-13.87c2.294.287,4.6.5,6.91.574.689.023,1.368.034,2.042.034.748,0,1.476-.029,2.206-.058,2.5,5.365,4.815,10.813,7.069,16.284A32.8,32.8,0,0,0,398.111,329.275Zm10.738-21.589q-2.295-3.736-4.621-7.454c-.851-1.278-1.7-2.579-2.552-3.889l.682-.161a.5.5,0,0,0,.092-.942l-2.121-.963q-.354-.541-.711-1.082l2.948-1.427a.5.5,0,0,0-.135-.943l-4.366-.732a16.519,16.519,0,0,1,3.856-7.077,256.6,256.6,0,0,1,18.72,20.941A45.294,45.294,0,0,1,408.849,307.686Zm9.327-34.118a.5.5,0,0,0-.1-.888c-.854-.312-3.464-1.378-4.665-1.987l.271-.125c.71-.331,1.589-.739,2.041-.919a53.224,53.224,0,0,0,5.073-2.8c.717-.509,1.438-1.072,2.143-1.672a.5.5,0,0,0,.131-.588.494.494,0,0,0-.53-.287,10.4,10.4,0,0,1-4-.139c1.177-.451,2.341-.929,3.549-1.435.963-.518,1.829-1.013,2.648-1.513a61.977,61.977,0,0,0,5.7-3.954l0,0,0,0a62.276,62.276,0,0,0,5.99-5.307,25.16,25.16,0,0,0,2.261-3.175.5.5,0,0,0-.325-.745l-.607-.13a20.7,20.7,0,0,1,6.942-4.6.5.5,0,0,0,.216-.761,21.359,21.359,0,0,0-3.318-3.559l2.241-1.887a.5.5,0,0,0-.477-.858,2.167,2.167,0,0,1-2.673-1.91,4.7,4.7,0,0,1,.137-1,4.747,4.747,0,0,0,.144-1.437,3.5,3.5,0,0,0-2.773-2.825,7.625,7.625,0,0,0-2.992.007l.678-2.374a.5.5,0,0,0-.461-.637,6.976,6.976,0,0,0-4.7,1.921,22.208,22.208,0,0,0-2.4,2.584c-.29.347-.58.694-.878,1.033a27.335,27.335,0,0,1-25.815,8.579,39.034,39.034,0,0,1-12.093-4.273c-.009-.02-.02-.041-.029-.062l1.561.493a.5.5,0,0,0,.565-.758c-2.163-3.183-5.317-5.481-8.416-7.675a27.243,27.243,0,0,1-2.568-6.884l.026.043a35.836,35.836,0,0,0,11.8,11.962,29.314,29.314,0,0,0,15,4.306c.408,0,.817-.01,1.223-.03a16.628,16.628,0,0,0,8.018-2.219,13.3,13.3,0,0,0,1.385-1c4.89-3.036,9.393-9.226,9.078-14.592l2.563-3.346c.1-.127.21-.285.318-.455a22.352,22.352,0,0,0,12.155,3.624,21.813,21.813,0,0,0,2.772-.176.5.5,0,0,0,.037-.986,30.5,30.5,0,0,1-6.957-2.106,13.327,13.327,0,0,1-4.754-3.608,12.07,12.07,0,0,0,3.953-.378.5.5,0,0,0-.011-.969c-4.558-1.108-8.5-3.966-12.308-6.73-3.328-2.413-6.77-4.909-10.682-6.325a22.39,22.39,0,0,0-14.314-.18,48.4,48.4,0,0,0-8.972,2.459,24.384,24.384,0,0,1,8.835-9.162,19.528,19.528,0,0,1,10.125-.887l-2.062,1.151a.5.5,0,0,0,.374.919c5.018-1.345,10.285.711,13.819,2.673,2.005,1.113,3.948,2.425,5.827,3.693a70.676,70.676,0,0,0,6.733,4.186c3.743,1.958,9.327,3.9,14.659,2.028a.5.5,0,0,0-.083-.965,35.072,35.072,0,0,1-17.862-8.718l2.264.433a.5.5,0,0,0,.412-.877L425,187.326l1.539-.152a.5.5,0,0,0,.241-.905,31.269,31.269,0,0,0-17.838-5.672l3.228-1.989a.5.5,0,0,0-.15-.912l-4.312-1.007,3.058-2.125a.5.5,0,0,0,.179-.595.493.493,0,0,0-.54-.309l-12.789,1.956c-.765.117-1.224.049-1.4-.211a.373.373,0,0,1-.049-.353,2.467,2.467,0,0,1,1.416-1.147,73.761,73.761,0,0,1,15.368-3.986.5.5,0,0,0,.061-.976,60.334,60.334,0,0,0-24.315-1.555l1.764-1.215a.5.5,0,0,0-.22-.907l-1.311-.171a26.521,26.521,0,0,1,10.927-3.932.5.5,0,0,0,.066-.98,27.746,27.746,0,0,0-14.723.2l1.351-1.327a.5.5,0,0,0-.322-.855,32.577,32.577,0,0,0-16.242,3.273,78.773,78.773,0,0,1,8.25-20.538.5.5,0,0,0-.011-.519.478.478,0,0,0-.466-.229,9.964,9.964,0,0,0-5.381,2.23l.671-2.321a.5.5,0,0,0-.829-.5l-1,.972,1.474-5.341a.5.5,0,0,0-.708-.579,16.567,16.567,0,0,0-5.332,4.315c-.038-.131-.067-.265-.107-.395a.5.5,0,0,0-.97.051l-.036.188a22.285,22.285,0,0,0-6.5-8.781.5.5,0,0,0-.774.588,30.574,30.574,0,0,1,1.566,19.736,16.771,16.771,0,0,0-3.608-7.864.5.5,0,0,0-.866.456,26.988,26.988,0,0,1-.546,16.405,24.277,24.277,0,0,0-17.994-17.48.5.5,0,0,0-.532.749l2.7,4.424a.505.505,0,0,0-.383.041.5.5,0,0,0-.255.507l.173,1.254-5.458-2.331a.5.5,0,0,0-.631.706l4.756,8.394a26.016,26.016,0,0,0-18.82-6.747c-.922-.153-1.843-.294-2.748-.43a43.81,43.81,0,0,1-10.789-2.561.5.5,0,0,0-.572.79l2.5,2.843a11.494,11.494,0,0,1-8.1,1.937.5.5,0,0,0-.4.872l1.7,1.481a29.4,29.4,0,0,1-18.684.759.5.5,0,0,0-.571.734c1.236,2.094,3.386,3.087,7.67,3.542a66.435,66.435,0,0,0,7.005.35,158.946,158.946,0,0,0,17.689-1.318.5.5,0,0,0,.158-.95l-2.777-1.314a38.121,38.121,0,0,1,15.11,3.453.5.5,0,0,0,.536-.832,8.737,8.737,0,0,1-2.295-3.151l8.8,3.036a29.464,29.464,0,0,1,7.612,13.381,12.171,12.171,0,0,0-4.765-3.146.5.5,0,0,0-.585.749l1.552,2.322-8.808-3.816a.5.5,0,0,0-.555.811,39.434,39.434,0,0,1,7.381,10.51,11.77,11.77,0,0,1,.263,2.327,76.142,76.142,0,0,0-9.781-9.4,29.193,29.193,0,0,0-11.182-5.491,35.31,35.31,0,0,0-10.279-1.564,97.757,97.757,0,0,0-12.7.93c-2.045.24-4.16.487-6.24.664a.5.5,0,0,0-.217.926,5.937,5.937,0,0,0,1.81.72A30.89,30.89,0,0,1,268.5,169a.5.5,0,0,0-.575.285.5.5,0,0,0,.179.617c3.289,2.205,8.287,3.72,13.637,4.17l-.055.027a.5.5,0,0,0,0,.9,8.939,8.939,0,0,0,3.939.848,13.77,13.77,0,0,0,4.329-.765c-.387.571-.743,1.132-1.058,1.668a21.573,21.573,0,0,0-3.042,8.281,18,18,0,0,0,2.426,11.113,23.86,23.86,0,0,0,8.016,8.082,25.877,25.877,0,0,0,13.636,4.028,22.12,22.12,0,0,0,4.228-.4.5.5,0,0,0-.033-.986,47.625,47.625,0,0,1-11.611-2.7,21.5,21.5,0,0,1-9.4-6.886,17.573,17.573,0,0,1-1.93-17.018,18.641,18.641,0,0,1,13.442-10.811,20.118,20.118,0,0,1,16.755,4.57,21.5,21.5,0,0,1,7.182,15.934,19.551,19.551,0,0,1-2.939,10.527,15.183,15.183,0,0,1-8.31,6.264.5.5,0,0,0,.037.967,21.989,21.989,0,0,0,8.844.087,9.016,9.016,0,0,0,1.837-.547,15.269,15.269,0,0,1-4.892,4.349,23.511,23.511,0,0,1-8.477.443,5.4,5.4,0,0,0,2.029-1.578.5.5,0,0,0-.541-.786,41.55,41.55,0,0,1-12.772,1.788,147.388,147.388,0,0,1-16.755-9.429.5.5,0,0,0-.546.011.5.5,0,0,0-.211.5L287,208.8a41.753,41.753,0,0,1-5.23-14.663.5.5,0,0,0-.452-.422.487.487,0,0,0-.516.34,9.357,9.357,0,0,0-.381,4.2,27.1,27.1,0,0,1-3.682-11.763.5.5,0,0,0-.406-.456.492.492,0,0,0-.544.277l-.194.4-.878-4.655a.5.5,0,0,0-.3-.367c-1.981-.849-3.986,1.009-5.009,3.1-.819,1.675-1.746,3.573-3.373,3.666a2.833,2.833,0,0,1-2.371-1.39,9.447,9.447,0,0,1-1.125-3,.5.5,0,0,0-.442-.376.485.485,0,0,0-.5.295l-1.407,3.162-.915-.484a.5.5,0,0,0-.5.016.5.5,0,0,0-.238.434,12.07,12.07,0,0,1-1.113,5.25,32.543,32.543,0,0,1-4.306-6.655.492.492,0,0,0-.523-.276.5.5,0,0,0-.421.413,59.424,59.424,0,0,0-.739,12.061,37.715,37.715,0,0,0,11.811,32.42l.627.556a17.009,17.009,0,0,1,2.377,2.387c.085.111.164.227.243.343a.457.457,0,0,0,.085.1l1.018.892c.9.784,1.79,1.568,2.692,2.346a5.815,5.815,0,0,1-2.889,1.062.5.5,0,0,0-.256.9,17.041,17.041,0,0,0,1.5,1.046,11.258,11.258,0,0,1-3.291.12.49.49,0,0,0-.509.288.5.5,0,0,0,.113.574c1.7,1.593,3.419,3.078,5.135,4.474-1.985.694-3.952,1.44-5.908,2.213a56.292,56.292,0,0,1-8.88-10.24l2.977,1.262a.5.5,0,0,0,.57-.791A59.826,59.826,0,0,1,248.5,222a47.114,47.114,0,0,1-1.918-5.4.484.484,0,0,0,.021-.236,170.356,170.356,0,0,1-2.072-44.942l2.1,3.16a.5.5,0,0,0,.533.209.5.5,0,0,0,.38-.429l1.346-11.813a3.557,3.557,0,0,1,.786-2.266,1.128,1.128,0,0,1,1.058-.189.48.48,0,0,1,.362.365.5.5,0,0,0,.391.408.494.494,0,0,0,.522-.218,4.551,4.551,0,0,0,.09-4.659,8.249,8.249,0,0,1,3.471-.363.5.5,0,0,0,.555-.491,1.833,1.833,0,0,0-.447-1.2l3.257-1.178a.5.5,0,0,0,.215-.789L257.6,150.1A23.64,23.64,0,0,0,269.8,139.864a9.192,9.192,0,0,1,3.181.358,2.544,2.544,0,0,0,2.108.015,1.526,1.526,0,0,0,.712-1.09,2.121,2.121,0,0,0-.463-1.676,2.606,2.606,0,0,0-.375-.361,10.994,10.994,0,0,1,3.429.622.5.5,0,0,0,.6-.718,20.164,20.164,0,0,0-4.029-5,12.571,12.571,0,0,0,3.444-.346.5.5,0,0,0,.358-.336.5.5,0,0,0-.1-.481l-2.275-2.56a50.382,50.382,0,0,1,13.792-3.276.5.5,0,0,0,.3-.864,9.781,9.781,0,0,0-1.863-1.361,58.836,58.836,0,0,1,7.42,1.135.5.5,0,0,0,.4-.893,40.338,40.338,0,0,0-13.254-6.325l-.388-.1a10.76,10.76,0,0,1-4.475-1.929,7.731,7.731,0,0,1,3.338-1.734,14.49,14.49,0,0,1,1.6-.232,11.4,11.4,0,0,0,2.363-.429c1.443-.474,2.824-1.784,2.671-3.369-.146-1.506-1.468-2.357-2.634-3.108-.235-.151-.469-.3-.687-.454a8.035,8.035,0,0,1-1.03-11.715,16.736,16.736,0,0,1,3.581-2.47c1.83-1.044,3.723-2.123,4.824-4.005,1.627-2.781.86-6.17-.071-8.523-.374-.947-.815-1.876-1.243-2.776a24.417,24.417,0,0,1-1.909-4.89,12.4,12.4,0,0,1,8.6-14.145.5.5,0,0,0,.371-.563.516.516,0,0,0-.527-.421l-2.385.153a32.2,32.2,0,0,1,9.317-3.025.5.5,0,0,0,.045-.977,24.9,24.9,0,0,0-4.648-.743.5.5,0,0,0-.245-.933,23.724,23.724,0,0,0-8.612,1.526,11.852,11.852,0,0,1,5.573-5.35A.5.5,0,0,0,296.9,46c.114.007.228.007.342.014a52.255,52.255,0,0,1,13.628,2.946,18.519,18.519,0,0,1,2.115.834l-3.737.189a.5.5,0,0,0-.136.973c2.3.78,7.687,3.1,9.652,5.8-.365-.1-.727-.186-1.075-.258-5.431-.85-10.677.581-15.7,2.7-.641.276-1.313.584-1.919.881q1.253-.478,2.528-.889c3.47-1.112,11.425-3.025,16.522-1.882a3.472,3.472,0,0,1,.248.568l-3.424-.053a.5.5,0,0,0-.491.372.5.5,0,0,0,.243.567,21.424,21.424,0,0,1,4.524,3.339,32.6,32.6,0,0,0-12.9-3.148c-.636-.041-1.542-.09-2.026-.093.69.086,1.384.186,2.076.3a43.965,43.965,0,0,1,14.685,4.937q.549.678,1.044,1.4a22.976,22.976,0,0,0-13.542.181.5.5,0,0,0,.049.964,48.415,48.415,0,0,1,9.959,3.338l3.466,2.87a42.123,42.123,0,0,0-9.017-1.8c-.3-.036-.6-.053-.895-.086a47.249,47.249,0,0,0-13.075-6.082,85.8,85.8,0,0,1,11.223,5.9,126.492,126.492,0,0,0-14.174-.376c-1.189.031-2.593.075-3.66.133q2.075.106,4.148.241c5.288.5,10.522.664,15.652,1.268a84.553,84.553,0,0,1,9.442,7.21c.443.4,1.1,1.059,1.382,1.334q-.478-.567-.979-1.116a54.89,54.89,0,0,0-8.059-7.2,48.989,48.989,0,0,1,10.374,2.52l1.024.847-4.376-1.228a.5.5,0,0,0-.294.956,15.587,15.587,0,0,1,7.413,5.879,26.835,26.835,0,0,1,1.854,3.03,35.327,35.327,0,0,0-13.149-2.815h-.009a.5.5,0,0,0-.105.989,32.12,32.12,0,0,1,10.111,4.107l-5.22-.509a.485.485,0,0,0-.52.329.5.5,0,0,0,.193.584,53.6,53.6,0,0,1,12.586,11.794c-4.9-3.561-12.054-5.712-18-7.082a87.788,87.788,0,0,0-10.769-9.827c-.606-.462-1.338-1-1.9-1.38q.936.75,1.841,1.539a112.311,112.311,0,0,1,9.335,9.333c-.924-.2-1.819-.387-2.649-.552-.751-.138-1.625-.289-2.311-.393q1.164.292,2.321.608c1.058.288,2.11.6,3.16.915q1.377,1.545,2.717,3.12c-.9-.3-1.81-.576-2.711-.842a155.059,155.059,0,0,0-18.4-3.7c-.672-.1-1.456-.217-2.06-.3q1.156.267,2.312.539c5.935,1.4,11.848,2.884,17.759,4.377,1.378.372,2.753.736,4.11,1.133.53.629,1.062,1.256,1.586,1.889a70.143,70.143,0,0,1,5.919,7.85,40.572,40.572,0,0,0-21.7-2.719.5.5,0,0,0-.145.943,66.077,66.077,0,0,0,8.3,3.409,30.986,30.986,0,0,1-14.182,2.269.5.5,0,0,0-.134.99,28.916,28.916,0,0,1,5.46,1.637,60.583,60.583,0,0,0-9.811.731,5.709,5.709,0,0,0-4.247,2.406.5.5,0,0,0,.78.614,5.741,5.741,0,0,1,3.343-1.468,8.782,8.782,0,0,1,1.395-.063.5.5,0,0,0,.372.31,49.078,49.078,0,0,1,16.057,6.121.5.5,0,0,0,.523-.852,7.174,7.174,0,0,1-2.506-2.723c3.648,1.781,7.386,3.473,11.127,5.038a.5.5,0,0,0,.193.039.5.5,0,0,0,.432-.753,46.189,46.189,0,0,1-4.034-8.959,47.982,47.982,0,0,1,13.665,8.046.5.5,0,0,0,.767-.609,12.7,12.7,0,0,1-.69-1.646.5.5,0,0,0,.258-.314l.062-.224,1.085,1.986a.5.5,0,0,0,.939-.241A47.663,47.663,0,0,0,330.1,100.2a.5.5,0,0,0-.954.237l.271,5.038a1.4,1.4,0,0,1-.147.936c-.216.23-.7.178-1.456-.156l-.025-.01a46.807,46.807,0,0,0-6.387-9.449,27.015,27.015,0,0,1,6.7,3.093,24.687,24.687,0,0,0-7.636-4.21c-.934-1.092-1.88-2.173-2.853-3.23q5.271,1.663,10.4,3.745a46.22,46.22,0,0,1,7.907,3.905,53.074,53.074,0,0,1,2.914,4.5c.944,2.927,1.848,5.865,2.666,8.815a.5.5,0,0,0,.58.356.5.5,0,0,0,.4-.554,180.016,180.016,0,0,0-19.323-60.541c-3.747-7.178-8.616-14.995-16.31-18.554-.5-.233-1-.429-1.488-.6a12.627,12.627,0,0,1,3.037.782c3.706,1.471,6.616,4.36,8.975,6.992,8.322,9.289,14.932,21.314,19.645,35.743,1.084,3.32,2.041,6.663,2.909,10.07a.481.481,0,0,0,.039.235c.018.039.032.079.05.117a299.383,299.383,0,0,1,5.595,29.823.5.5,0,0,0,.384.415.5.5,0,0,0,.526-.208l.883-1.308a2.446,2.446,0,0,1,.328,1.412.5.5,0,0,0,.229.463.5.5,0,0,0,.517.013,23.918,23.918,0,0,1,4.644-2.027.5.5,0,0,0,.308.355,9.7,9.7,0,0,0,8.611-.889.5.5,0,0,0-.048-.867,13.109,13.109,0,0,0-9.029-.97l1.061-2.9a.5.5,0,0,0-.774-.569l-1.958,1.5-1-5.316a.5.5,0,0,0-.884-.218l-.918,1.161a19.593,19.593,0,0,1,.735-5.568c.52.2,1.051.361,1.578.517.239.071.477.142.714.215a44.19,44.19,0,0,1,9.353,4.671.494.494,0,0,0,.5.011.5.5,0,0,0,.261-.423l.038-1.206,7.9,5a.5.5,0,0,0,.736-.249l.278-.752a19.628,19.628,0,0,0,4.655,2.694,11.9,11.9,0,0,0,4.489,1c.193,0,.385-.007.576-.02l.052-.005a.433.433,0,0,0,.059.062c2.082,1.311,4.581,1.264,7,1.22l.872-.013a10.971,10.971,0,0,1,6.5,1.81h0a15.017,15.017,0,0,0,7.555,3.08c.324.036.65.062.976.088a11.119,11.119,0,0,1,2.267.334,2.964,2.964,0,0,1,2.112,1.771.5.5,0,0,0,.882.146,2.813,2.813,0,0,1,5.038,1.113.5.5,0,0,0,.467.4.487.487,0,0,0,.5-.356,2.179,2.179,0,0,1,.494-.85l.307,1.448a.5.5,0,0,0,.8.289,5.63,5.63,0,0,1,2.777-1.16,5.159,5.159,0,0,1-.238.607q-5.135,4.244-9.96,8.882l-1.1-4.639a.5.5,0,0,0-.591-.374.5.5,0,0,0-.387.582,2.213,2.213,0,0,1-1.88,2.487,2.057,2.057,0,0,1-1.58-.592,2.088,2.088,0,0,1-.7-1.532.5.5,0,0,0-.971-.173l-1.129,3.208c-.513-.234-1.167-.4-1.528,0-.472.528.128,1.3.384,1.628l1.737,2.228a.5.5,0,0,0,.463.188,3.122,3.122,0,0,0,1.264-.479l-.2,2.874a.5.5,0,0,0,.9.337l1.925-2.536-.081,2.447a.5.5,0,0,0,.891.329c3.922-4.905,9.161-8.582,14.228-12.137,14.158-9.934,28.8-20.206,44.989-27.109,4.069-1.735,8.918-3.566,14.026-4,.983-.082,1.968-.1,2.954-.095a69.556,69.556,0,0,0-16.252,5.975,320.877,320.877,0,0,0-49.382,29.965,19.863,19.863,0,0,0-4.716,4.346,7.165,7.165,0,0,0-1.193,6.391.5.5,0,0,0,.837.174,8.181,8.181,0,0,0,2-3.879l1.564,4.365a.5.5,0,0,0,.428.329.48.48,0,0,0,.478-.251,12.524,12.524,0,0,1,4.894-4.781l-2.691,3.291a.5.5,0,0,0,.645.744l4.55-2.757-1.7,3.333a.5.5,0,0,0,.72.645l2.886-1.9-1.3,5.773a.5.5,0,0,0,.869.433,32.3,32.3,0,0,1,14.792-9.8.5.5,0,0,0,.019-.948l-2.095-.753c4.136-1.441,8.315-2.814,12.427-4.274a71.567,71.567,0,0,0-13.51,3.885l-3.2-1.15,6.4-2.556a.5.5,0,0,0-.126-.961l-.555-.066,3.462-1.445a.5.5,0,0,0,.018-.915,8.184,8.184,0,0,0-5.393-.487c.753-.751,1.545-1.459,2.368-2.131a53.668,53.668,0,0,1,6.645-1.115,31.985,31.985,0,0,0-3.039,2.028,39.02,39.02,0,0,1,4.1-2.13,56.84,56.84,0,0,1,19.472,1.813c.857.235,1.894.572,2.623.825q-1.354-.582-2.748-1.07a44.272,44.272,0,0,0-16.319-2.812A57.684,57.684,0,0,1,463,119.927a53.5,53.5,0,0,1,8.483,3.242c.738.371,1.544.818,2.207,1.215-.681-.489-1.384-.948-2.1-1.385a46.661,46.661,0,0,0-6.711-3.282,108.31,108.31,0,0,1,14.008-.378c.93.048,1.9.115,2.8.2-1.131-.179-2.266-.328-3.4-.457a70.589,70.589,0,0,0-15.5-.127,44.5,44.5,0,0,0-11.674-2.341l-1.148-.007a29.074,29.074,0,0,1,13.275-2.671.475.475,0,0,0,.51-.39.5.5,0,0,0-.294-.57,18.388,18.388,0,0,0-7.049-1.435c.027-.019.056-.034.083-.053,7.358-1.389,14.513.173,22.014,2.37,1.025.334,2.093.72,3.064,1.112-.776-.381-1.563-.741-2.355-1.086-7.347-3.183-14.181-4.86-21.263-3.318a20.145,20.145,0,0,1,13.731-2.344.5.5,0,0,0,.344-.924,17,17,0,0,0-4.752-1.864,40.122,40.122,0,0,1,21.859,1.063,12.264,12.264,0,0,0,.659,1.223,12.326,12.326,0,0,0-9.556-.224.5.5,0,0,0,.042.94,19.628,19.628,0,0,1,6.927,3.817l-1.815-.665a.5.5,0,0,0-.5.845,8.213,8.213,0,0,1-2.633,13.877c-.582.212-1.23.377-1.855.536-1.755.447-3.569.91-4.606,2.471a7.121,7.121,0,0,0-.808,4.154,7.344,7.344,0,0,1-.471,3.353,7.922,7.922,0,0,1-2.665,2.565c-1.435,1.017-2.918,2.068-3.161,3.89-.305,2.311,1.735,4.147,3.576,5.017.578.273,1.181.506,1.765.73a10.673,10.673,0,0,1,3.442,1.818c2.194,1.982,2.166,5.452,1.211,7.838a11.986,11.986,0,0,1-.912,1.8,58.678,58.678,0,0,1-4.435,5.19.5.5,0,0,0,.714.7c.439-.439.889-.894,1.34-1.36-4.275,7.093-8.622,13.075-15.151,16.12a6.064,6.064,0,0,1-.166-4.843,5.959,5.959,0,0,1,3.7-3.709.5.5,0,0,0-.146-.978h0a9.563,9.563,0,0,0-5.282,1.659,17.883,17.883,0,0,1,6.344-5.823.5.5,0,0,0-.147-.931,10.056,10.056,0,0,0-9.774,3.972,9.23,9.23,0,0,0-1.639,6.605,3.362,3.362,0,0,0,1.024,1.953c-.01.1-.019.2-.029.3l-.033.339a.5.5,0,0,0,.041.259l.123.278c.064.146.129.293.2.437a62.539,62.539,0,0,0,3.59,6.614,12.467,12.467,0,0,1-3.362-1.775.5.5,0,0,0-.794.427l.012.192a.506.506,0,0,0,.047.191c1.384,2.929,2.568,5.354,3.726,7.523-.588-.366-1.169-.742-1.751-1.118l-.348-.225a.5.5,0,0,0-.759.526,42.255,42.255,0,0,0,8.875,18.256l-2.194-.726a.5.5,0,0,0-.6.7,49.916,49.916,0,0,1,4.706,13.475,3.81,3.81,0,0,1-2.237-1,.5.5,0,0,0-.794.579l5,10.45-2.907,1.469a.5.5,0,0,0,.019.9l.947.43-2.731,2.526a.5.5,0,0,0,.219.852l1.838.458A44.988,44.988,0,0,0,447.693,267.4c-2.9,4.116-6.057,7.769-9.821,10.078a.5.5,0,0,0,.11.9l1.183.376a38.933,38.933,0,0,1-12.063,6.886.5.5,0,0,0-.315.337.5.5,0,0,0,.1.452l.92,1.121c-.594.164-1.18.354-1.768.537a131.267,131.267,0,0,0-12.7-11.658C415.037,275.517,416.664,274.557,418.176,273.568Zm13.287,19.85a26.146,26.146,0,0,1,5.715,1.8,40.371,40.371,0,0,1,9.634,18.524,248.027,248.027,0,0,0-15.987-20.43C431.037,293.348,431.251,293.376,431.463,293.418ZM220.739,340.076a.5.5,0,0,0-.573-.649,10.334,10.334,0,0,0-6.971,5.381l-.036-5.938a.5.5,0,0,0-.892-.309l-2.036,2.561,3.632-20.309a.4.4,0,0,0,.066.039.5.5,0,0,0,.589-.184,25.315,25.315,0,0,1,10.824-8.473,69.5,69.5,0,0,1,11.846-3.762c-2.812,2.976-5.6,6.053-7.963,8.767q4.527-4.539,9.09-9.043l.483-.118a.5.5,0,0,0,.382-.477.507.507,0,0,0-.051-.215q2.222-2.2,4.439-4.416c6.23-6,12.435-12.081,18.858-17.865a2.9,2.9,0,0,1,1.734,1.112c.93,1.456-.435,3.463-1.063,4.258l-.282.352c-.954,1.191-2.014,2.527-2.093,4.1-1.17,1.181-2.354,2.348-3.5,3.547-1.008,1.054-2.248,2.352-3.1,3.276q1.762-1.615,3.522-3.234,1.572-1.449,3.133-2.908a.49.49,0,0,0,.239.273.5.5,0,0,0,.5-.044,71.222,71.222,0,0,1,7.509-4.55,2.685,2.685,0,0,0,2.108,2.068,6.769,6.769,0,0,0,2.727-.117l.36-.065a25.169,25.169,0,0,1,11.539.961q-1.17,2.451-2.3,4.9c-2.807,6.315-5.46,12.7-8.008,19.119a.491.491,0,0,0-.169.43q-2.433,6.147-4.739,12.345l-.552.088.152-1.7a.5.5,0,0,0-.489-.545l-11.384-.227,1.569-2.1a.5.5,0,0,0,.043-.53.461.461,0,0,0-.46-.268,42.921,42.921,0,0,0-15.634,3.487,18.375,18.375,0,0,0-7.859,6.486.5.5,0,0,0,.689.7,26.377,26.377,0,0,1,14.523-4.643l-1.546,1.5a.5.5,0,0,0-.113.55.521.521,0,0,0,.468.309l11.761-.165-1.3.895a.5.5,0,0,0,.457.881,6.106,6.106,0,0,1,3.645-.165l-.174,1a.5.5,0,0,0,.133.432.49.49,0,0,0,.428.148l3.56-.489q-1.7,4.665-3.352,9.347-1.18,3.322-2.308,6.663c-1.362-1.254-2.858-2.622-4.5-4.189-3.7-3.747-8.421-7.525-14.781-8.528-7.823-1.531-15.593.91-22.956,3.506l-1.021.372Zm55.279-21.12,1.654-.317-2.049,1.306Q275.82,319.45,276.018,318.956ZM390.2,335.639l1.479.343a.513.513,0,0,0,.44-.108.5.5,0,0,0,.172-.418l-.051-.671a33.069,33.069,0,0,1,9.252,2.9.5.5,0,0,0,.718-.46,2.883,2.883,0,0,1,2.625-2.545,6.489,6.489,0,0,1,3.237.58q.772,1.89,1.543,3.78c-5.245,1.158-9.413,4.23-12.8,7.322-2.833,2.429-5.232,4.343-7.282,6.106C390.009,346.87,390.259,341.254,390.2,335.639Zm18.966.119a34.61,34.61,0,0,1,4.659,2.73c-.626.039-1.253.093-1.883.181-.531.055-1.049.136-1.56.228Q409.783,337.325,409.168,335.758Zm6.915.2a32.933,32.933,0,0,0-8.736-4.745q-3.427-8.409-7.2-16.673a45.583,45.583,0,0,0,10.775-1.846c4.9,8.112,9.646,16.317,14.5,24.459.689,1.143,1.444,2.4,2.166,3.6a42.138,42.138,0,0,0-9.151-2.151A9.626,9.626,0,0,0,416.083,335.954Zm11.741,4.88c-.693-1.34-1.382-2.683-2.089-4.016-4.435-8.261-9.144-16.374-14-24.4a35.365,35.365,0,0,0,6.516-2.865.5.5,0,0,0-.161-.926l-.879-.156a14.952,14.952,0,0,0,4.66-3c.842,1.045,1.636,2.035,2.375,2.959,3.718,4.756,7.117,9.1,10.734,13.9-1.739-2.847-6.721-9.874-9.9-13.937-.824-1.036-1.736-2.183-2.712-3.4a14.147,14.147,0,0,0,1.261-1.5.5.5,0,0,0-.646-.732c-.559.308-1.127.6-1.7.88a259.833,259.833,0,0,0-18.778-21.237,17.772,17.772,0,0,1,8.353-4.713.508.508,0,0,0,.1-.038c.331-.164.657-.338.986-.506a.5.5,0,0,0,.068-.024c.111-.056.217-.115.327-.172a133.812,133.812,0,0,1,12.615,11.464,56.388,56.388,0,0,0-8.186,3.462.5.5,0,0,0-.253.571.492.492,0,0,0,.5.372,74.983,74.983,0,0,1,12.323.255,248.882,248.882,0,0,1,17.841,22.582c.2,1.179.357,2.367.447,3.563l-2.194-3.138a.5.5,0,0,0-.889.43,27.377,27.377,0,0,1,1.128,8.923l-1.709-1.215a.5.5,0,0,0-.79.385,67.665,67.665,0,0,0,2.376,21,3.029,3.029,0,0,1-1.915-1.821.5.5,0,0,0-.967.223,22.436,22.436,0,0,1,.1,3.062c-2.747-1.247-5.514-2.448-8.281-3.638C432.309,342.52,430.083,341.617,427.824,340.834ZM243.92,401.8a7.262,7.262,0,0,1-.514-1.049c-.858-2.072-2.1-7.077-4.642-4.1a6.237,6.237,0,0,0-.565,5.09,2.645,2.645,0,0,0,.162.354,5.278,5.278,0,0,1-1.745-.527c-5.14-2.833-6.378-7.522-6.756-12.843.928-4.426,2.662-8.585,3.843-13.342a30.33,30.33,0,0,0,1.075-6.693,32.834,32.834,0,0,1,.212-4.376,44.064,44.064,0,0,0-1.634,4.286c-.469,1.207-1,2.384-1.569,3.54-.286.485-.556.954-.806,1.407q.321-2.141.688-4.267l.09-.457c-.843,1.741-1.608,3.524-2.335,5.325-2.95,7.1-4.793,14.113-3.467,20.455.591,2.191.975,4.522,3.152,7.207-.376-.122-.756-.237-1.147-.323-.931-.274-1.919-.762-2.865-.307-1.206.432-1.289,2.035-.8,3.111a2.241,2.241,0,0,0,.476.682,7.013,7.013,0,0,1-2.066-.374,11.278,11.278,0,0,1-3.459-2.611l.008.008.011.011-.013-.015,0,0c-3.428-3.707-3.14-4.982-4.326-10.654a82.191,82.191,0,0,1-1.577-15.177c-.071-3.288.538-6.524.7-9.792-1.04,3.388-2.58,6.6-3.311,10.1-1.731,7.554-1.974,15.924,1.117,23.144a12.068,12.068,0,0,0,2.781,3.7c.02.019.041.035.061.054a5.123,5.123,0,0,1-.756-.155c-1.339-.072-3.585-1.43-3.806-1.513-1.9-.671-1.181,1.194.049,2.289a10.324,10.324,0,0,1-3.032-.19c-2.19-.717-2.3-1.269-3.7-2.624a30.6,30.6,0,0,1-5.145-6.88,48.3,48.3,0,0,1-5.287-11.161,18.014,18.014,0,0,1,.511-2.474c1.157-3.457,2.513-5.643,4.062-9.15.573-1.181,1.341-2.69,2.2-4.163q-.915.81-1.8,1.657c-2.291,2.287-4.863,4.863-6.222,7.942a21.887,21.887,0,0,1,.033-4.468c-3.758,9.3-1.29,20.8,4.929,28.3a13.778,13.778,0,0,1-5.25-2.637c-5.525-4.518-8.8-13.79-8.652-20.622.615-16.213,12.014-20.6,35.952-30.459,8.773-3.255,20.621-7.571,28.881-2.6a10.093,10.093,0,0,1,2.954,3.413c.082.125,1.325,3.321,1.978,4.742.708,1.733,1.683,3.328,2.526,4.98a6.748,6.748,0,0,0,.908,1.821,14.223,14.223,0,0,1-.069-2.434c.083-1.037.235-2.578,1.1-3.393a20.308,20.308,0,0,1,4.628,2.283c-1.479,4.489-2.887,9-4.18,13.548q2.373-6.58,4.708-13.174a22.017,22.017,0,0,1,7.639,9.48c.93,3.176,1.664,9.487,1.153,11.259a15.4,15.4,0,0,1-.674,1.688,3.588,3.588,0,0,1-.233.369l-.032.033c-.86.974-5.135,1.1-7.471,3a13.091,13.091,0,0,0-1.894,2c-.017-1.069-.076-2.138-.169-3.2a26.751,26.751,0,0,0-5.56-15.181,26.7,26.7,0,0,1,2.654,14.209c-.028,1.134-.114,2.259-.243,3.345,0-.025-.006-.051-.011-.076a65.183,65.183,0,0,0-5.015-13.719c.369,4.5,2.121,12.128,3.293,17.87C257.818,397.954,244.006,401.774,243.92,401.8Zm216.3-2.048a13.678,13.678,0,0,1-5.351,2.342c6.585-7.148,9.677-18.488,6.477-27.983a22.048,22.048,0,0,1-.218,4.462c-1.174-3.149-3.578-5.863-5.719-8.272q-.829-.9-1.693-1.755c.771,1.519,1.447,3.068,1.949,4.279,1.337,3.586,2.559,5.844,3.51,9.359a18.052,18.052,0,0,1,.368,2.5,48.507,48.507,0,0,1-5.868,10.852,30.626,30.626,0,0,1-5.486,6.585c-1.466,1.275-1.605,1.82-3.816,2.415a10.169,10.169,0,0,1-3.016.022c1.281-1.026,2.094-2.848.178-2.282-.224.07-2.526,1.3-3.857,1.3a5.193,5.193,0,0,1-.758.112c.021-.018.043-.032.064-.05a12.086,12.086,0,0,0,2.964-3.541c3.47-7.038,3.7-15.408,2.41-23.045-.527-3.542-1.873-6.83-2.712-10.271-.027,3.271.394,6.536.139,9.815a82.823,82.823,0,0,1-2.417,15.066c-1.5,5.6-1.281,6.886-4.887,10.4l0,0-.014.013.012-.01.008-.007a11.207,11.207,0,0,1-3.575,2.415,6.9,6.9,0,0,1-2.068.26,2.247,2.247,0,0,0,.51-.654c.545-1.048.553-2.653-.618-3.151-.912-.506-1.919-.074-2.857.148-.393.065-.776.158-1.155.259,2.309-2.56,2.82-4.866,3.53-7.021,1.67-6.258.239-13.363-2.285-20.614-.619-1.838-1.276-3.661-2.014-5.445.021.154.042.307.064.461q.24,2.143.441,4.3-.333-.7-.72-1.449c-.5-1.186-.958-2.39-1.355-3.621a44.267,44.267,0,0,0-1.377-4.37,33.383,33.383,0,0,1-.037,4.381,30.577,30.577,0,0,0,.688,6.742c.9,4.814,2.387,9.063,3.058,13.533-.675,5.292-2.166,9.9-7.418,12.449a5.216,5.216,0,0,1-1.76.43,2.747,2.747,0,0,0,.182-.344,6.281,6.281,0,0,0-.274-5.113c-2.353-3.111-3.865,1.817-4.831,3.838a7.3,7.3,0,0,1-.569,1.02c-.083-.033-13.556-4.609-10.807-15.106,1.484-5.668,3.651-13.191,4.269-17.66a65.523,65.523,0,0,0-5.742,13.421c-.006.024-.01.05-.016.075-.066-1.091-.088-2.22-.052-3.354a26.886,26.886,0,0,1,3.431-14.039,26.888,26.888,0,0,0-6.365,14.85c-.152,1.054-.271,2.118-.348,3.184a13.086,13.086,0,0,0-1.764-2.1,12.318,12.318,0,0,0-4.5-2.2c.593-3.061,1.12-6.134,1.56-9.22q.824-5.858,1.436-11.758a20.756,20.756,0,0,1,8.6-4.96c.812.862.875,2.409.9,3.448a14.261,14.261,0,0,1-.2,2.427,6.76,6.76,0,0,0,1-1.768c.929-1.6,1.984-3.141,2.784-4.832.727-1.383,2.138-4.5,2.227-4.626a10.084,10.084,0,0,1,3.119-3.244,14.6,14.6,0,0,1,3.19-1.231q.777,1.893,1.563,3.782c1.081,2.628,2.184,5.316,3.246,7.915q-1.218-3.746-2.526-7.461-.784-2.2-1.6-4.384a20.2,20.2,0,0,1,6-.306c.643.588,1.271,1.195,1.871,1.834a.5.5,0,0,0,.365.158.5.5,0,0,0,.481-.635c-.1-.339-.205-.7-.325-1.058,5.634.964,11.4,3.466,16.212,5.576,23.167,11.165,34.215,16.175,33.912,32.4C469.714,386.472,465.947,395.548,460.218,399.754Z"/></svg>