<?xml version="1.0" encoding="utf-8"?>
<!-- Generator: Adobe Illustrator 24.2.3, SVG Export Plug-In . SVG Version: 6.00 Build 0)  -->
<svg version="1.1" id="ac5aeb74-f869-4868-987a-a2d46a3eabab"
	 xmlns="http://www.w3.org/2000/svg" xmlns:xlink="http://www.w3.org/1999/xlink" x="0px" y="0px" viewBox="0 0 854.6 511.2"
	 style="enable-background:new 0 0 854.6 511.2; fill: #215342" xml:space="preserve" height="335" width="375" transform="translate(-10, -29)">
<g>
	<path d="M552.3,205.8c0.6,1,1.4,1.9,2.4,2.6c4.7,3.5,10.4,5.5,16.3,5.5h0.2c3.7,0.1,7.4-0.9,10.6-2.9c2.8-2,4.9-4.7,6.2-7.9
		c1.2-3.1,1.9-6.4,1.9-9.8c0.1-1.3,0-2.5-0.4-3.8c0.1,0.1,0.3,0.2,0.5,0.3c0.7,0.3,1.5,0.3,2.3,0c0.2-0.1,0.3-0.3,0.3-0.5
		c0-2-1.4-3.7-4.3-5.2c-3.2-1.8-6.7-3.1-10.3-3.7c-3.7-0.6-7.5-0.1-10.8,1.4c-3.5,1.7-6.5,4.6-9.2,9.1c-1.2,2-2.2,4-3.2,6.1
		c-0.2,0.5-0.5,1-0.8,1.5c-0.8,0.7-1.4,1.7-1.7,2.7c-0.1,0.3-0.2,0.7-0.3,1c0,0,0,0.1-0.1,0.1c-0.1,0.1-0.1,0.3,0,0.4
		C551.7,203.7,551.8,204.8,552.3,205.8z M561.8,189.5L561.8,189.5c4.2-5,10.5-7.6,15.9-6.6c3.7,0.7,7,2.9,9,6.1c0.3,1,0.4,2,0.4,3
		c0.1,3.3-0.5,6.7-1.7,9.8c-1.2,3.1-3.4,5.7-6.2,7.5c-3.2,1.8-6.9,2.6-10.6,2.3c-3.1-0.1-7.4-0.9-10.4-3.7c-1.6-1.5-2.6-3.4-2.9-5.6
		C556.6,197.6,558.8,193.3,561.8,189.5z"/>
	<path d="M571.1,206.1c0.2,0,0.4,0,0.5-0.1c1-0.4,1.6-1.3,1.8-2.3c1.2-3.9,1.4-8,0.7-12c-0.1-0.7-0.3-1.5-0.7-2.1
		c-0.6-0.9-1.5-1.3-3-1c-0.1,0-0.2,0.1-0.3,0.2c-3.4,4.3-4.1,10.3-1.7,15.3C568.9,205.1,569.9,205.9,571.1,206.1z"/>
	<path d="M573.7,184.9c2.5,0.6,5,1.7,7.2,3c2.2,1.4,3.8,3.4,4.6,5.9c0.1,0.2,0.3,0.4,0.5,0.4h0c0.2,0,0.4-0.2,0.5-0.4
		c0.2-1.7-0.3-3.4-1.3-4.7c-0.9-1.3-2-2.5-3.2-3.5c-0.5-0.5-1.2-0.9-2-1.1l-0.2-0.1c-2-0.6-4.1-0.7-6.1-0.4c-0.3,0-0.5,0.3-0.4,0.6
		C573.3,184.7,573.5,184.9,573.7,184.9z"/>
	<polygon points="573.7,184.9 573.7,184.9 573.7,184.9 	"/>
	<path d="M543.7,206.7c-1,2.3-1,4.8,0.1,7.1l0.1,0.4c1.8,5.9,2.6,12.2,2.2,18.4c0,0.3,0.2,0.5,0.4,0.5c0,0,0.1,0,0.1,0
		c0.2,0,0.4-0.1,0.5-0.3l3.5-11.1c0.1-0.6,0.4-1.1,0.8-1.5c0.7-0.6,1.6-0.4,2.7-0.1c1.1,0.4,2.3,0.3,3.4-0.2
		c0.2-0.1,0.3-0.5,0.2-0.7c0,0,0,0,0,0c-0.4-0.6-0.7-1.3-0.8-2c1.8,0.1,3.7-0.1,5.5-0.6c0.3-0.1,0.4-0.4,0.3-0.6
		c0-0.1-0.1-0.2-0.2-0.3c-1.5-1.1-3.2-2-4.9-2.8c-0.8-0.4-1.7-0.8-2.5-1.2c-2.9-1.6-4.7-3.5-5.3-5.6c-0.4-1.8-0.4-3.7,0.1-5.5
		l0.2-0.9c0.7-3.7,1.4-7.6-0.2-11.1c-0.1-0.3-0.4-0.4-0.7-0.3c-0.2,0.1-0.3,0.3-0.3,0.5c0.1,2.5-0.4,4.9-1.4,7.2L543.7,206.7z"/>
	<path d="M556.8,164.5c-1.7,3.2-2.6,6.7-2.7,10.3c-0.3,1-0.3,2.1-0.2,3.1c0.1,0.8,0.3,1.5,0.6,2.3c0.1,0.3,0.2,0.5,0.2,0.8
		c0.7,2.5,0.9,5.2,0.5,7.8c0,0.3,0.1,0.5,0.4,0.6c0,0,0.1,0,0.1,0c0.2,0,0.4-0.2,0.5-0.4c0.1-0.6,0.3-1.1,0.4-1.7
		c0.1,0,0.2-0.2,0.3-0.3c1.1-2.9,3-5.5,5.6-7.3c2.6-1.8,5.4-3.4,8.3-4.6c0.2-0.1,0.4-0.4,0.2-0.7c-0.1-0.1-0.2-0.2-0.3-0.3
		c-1.8-0.4-3.7-0.3-5.4,0.3c-0.5,0.1-1,0.2-1.5,0.3c-2,0.4-4.6,0.2-5.6-1.6c-0.5-1.3-0.5-2.7,0-4c1-3.5,2.6-6.7,4.9-9.5
		c0.2-0.2,0.2-0.5-0.1-0.7c-0.1-0.1-0.3-0.1-0.5-0.1C560.3,159.7,558.4,161.5,556.8,164.5z"/>
	<path d="M494.9,159c0.4,0.3,0.9,0.6,1.4,0.9l-5.7,0.7c-0.3,0-0.5,0.3-0.4,0.6c0,0.2,0.2,0.4,0.4,0.4c1.1,0.1,2.2,0.5,3.1,1
		c-6-0.6-12,0.4-17.3,3.1c-0.2,0.1-0.3,0.4-0.2,0.7c0.1,0.2,0.3,0.3,0.5,0.3c8.6-1.7,17.5,0.1,24.8,5l0.3,0.2c1.2,0.9,2.5,1.6,3.9,2
		l5.1,5.4c0.2,0.2,0.5,0.2,0.7,0c0.2-0.1,0.2-0.4,0.1-0.6c-0.7-2.1-0.7-4.4,0.1-6.5c0.4-1.2,0.9-2.3,1.4-3.4c0.4-1,0.9-2,1.3-3
		c1.4-3.8,1.7-7.8,0.9-11.7c0-0.1-0.1-0.2-0.1-0.3c0-1.6-0.1-3.3-0.3-4.9c0-0.2-0.2-0.4-0.5-0.4c-0.2,0-0.5,0.2-0.5,0.4
		c-0.5,2.3-1.5,4.5-2.9,6.4l-1.4,0.6c1.1-2.6,1.3-5.4,0.6-8.1c-0.1-0.3-0.3-0.4-0.6-0.4c-0.1,0-0.2,0.1-0.2,0.1l-0.7,0.8
		c1.3-7.9-0.9-15.9-6-22.1c-0.2-0.2-0.5-0.2-0.7-0.1c-0.2,0.1-0.2,0.3-0.2,0.5c0.1,0.5,0.3,1,0.3,1.5c0.2,1.3,0.5,2.6,1,3.9
		c2.1,5.8,1.3,12.2-2.1,17.3c-0.5,0.5-0.7,1.3-0.6,2c0.1,0.4,0.5,0.8,1,0.9c-1.1,2.9-3.5,5-6.4,5.8c-0.3,0.1-0.4,0.3-0.4,0.6
		C494.8,158.8,494.8,158.9,494.9,159z"/>
	<path d="M490.5,181c-0.6-0.9-1.7-1.1-2.6-0.6c-1.9,1.2-3.3,3.1-3.9,5.2c-0.6,2.1-0.7,4.3-0.6,6.4c0,1,0.2,2,0.7,2.9
		c0.5,0.9,1.4,1.4,2.4,1.5c0.2,0,0.3,0,0.5,0c0.9-0.3,1.7-1,2.1-1.8c2.1-3.5,2.9-7.6,2.2-11.6C491.2,182.3,490.9,181.6,490.5,181z"
		/>
	<path d="M495.1,179.8c-1.4-0.9-3-1.4-4.6-1.7c-0.3,0-0.5,0.2-0.6,0.4c0,0.2,0.1,0.4,0.2,0.5c0.3,0.2,0.5,0.4,0.8,0.6
		c0.5,0.5,1,0.9,1.7,1.3c5.2,2.7,7.5,8.9,5.3,14.4c-0.1,0.3,0,0.5,0.3,0.7c0.2,0.1,0.5,0,0.6-0.2
		C502.2,190.3,500.5,183.2,495.1,179.8z"/>
	<path d="M477.7,157.5c0.2,0,0.4-0.1,0.5-0.3c0.1-0.2,0-0.5-0.2-0.6c-2.9-1.8-6-3.1-9.3-4.1l2.1-0.8c0.3-0.1,0.4-0.4,0.3-0.6
		c-0.1-0.1-0.2-0.2-0.3-0.3c-4.4-1.6-9.3-3.6-10.9-7.8c-0.1-0.3-0.4-0.4-0.6-0.3c-0.2,0.1-0.3,0.3-0.3,0.5l0.2,2.6
		c-0.3,0.3-0.6,0.6-0.7,1l-0.9-1.1c-0.2-0.2-0.5-0.2-0.7-0.1c-0.2,0.1-0.2,0.4-0.1,0.6c0.9,1.9,0.7,4.1-0.5,5.9
		c-0.1-1-0.1-2.2-0.3-4.1c0-0.3-0.3-0.5-0.5-0.5c-0.1,0-0.2,0-0.3,0.1c-4.7,3.8-7,9.8-6.1,15.7l-1-0.4c-0.2-0.1-0.4,0-0.5,0.1
		c-0.1,0.1-0.2,0.3-0.2,0.5l1.2,8.5c-0.5-0.2-1-0.2-1.5-0.1c-0.3,0-0.5,0.3-0.4,0.6c0,0,0,0.1,0,0.1c0.9,3,2.8,5.6,5.3,7.5
		c0.2,0.2,0.5,0.1,0.7-0.1c0.1-0.1,0.1-0.3,0.1-0.4c-1.3-6,1.4-12.8,6.8-17C464.1,158.8,470.6,157,477.7,157.5z"/>
	<path d="M483.4,252.6L483.4,252.6c-0.2,0.1-0.4,0.2-0.6,0.3l-0.8,0.5c0-0.1,0-0.1-0.1-0.2c-0.1-0.1-0.2-0.2-0.4-0.2
		c-1,0-1.8,0.6-2.1,1.5l-0.5,2.5c-0.1,0.3,0.1,0.5,0.4,0.6c0.2,0,0.4,0,0.5-0.2l0.3-0.4v0.2c0,0.3,0.2,0.5,0.5,0.5h0
		c0.3,0,0.5-0.2,0.5-0.4c0.2-1.5,1.1-2.8,2.3-3.6l0.5-0.3c0.2-0.1,0.3-0.4,0.2-0.7C483.9,252.5,483.6,252.4,483.4,252.6z"/>
	<path d="M490.3,253.3L490.3,253.3c0-0.1,0-0.1,0-0.2c0.1-0.3-0.1-0.5-0.4-0.6c-0.1,0-0.2,0-0.2,0c-0.1,0-0.2,0.1-0.2,0.1
		c-0.5,0.2-1.1,0.4-1.7,0.4c-0.2,0-0.3,0.1-0.4,0.3l-0.6,1.6c-0.1,0.2,0,0.5,0.2,0.6c0.1,0,0.1,0.1,0.2,0.1c0.2,0,0.3-0.1,0.4-0.2
		c0,0,0.1-0.1,0.1-0.1c0.1,0.1,0.3,0.1,0.4,0l0.7-0.3c0.1,0.1,0.3,0,0.4,0l1.4-0.8c0.2-0.1,0.3-0.4,0.2-0.7
		C490.7,253.3,490.5,253.2,490.3,253.3z"/>
	<path d="M484.2,243.8c-0.2,0-0.4,0.1-0.7,0.1c-0.2,0.1-0.4,0.1-0.7,0.1c0-0.3-0.3-0.6-0.7-0.5c-0.2,0-0.3,0.1-0.4,0.2l-1.4,2.3
		c-0.1,0.2-0.1,0.5,0.1,0.7c0.1,0.1,0.2,0.1,0.3,0.1c0.1,0,0.3-0.1,0.4-0.2c0.2-0.2,0.4-0.5,0.6-0.7c0,0,0.1,0,0.1,0.1
		c0.1,0.1,0.3,0.1,0.5,0l2.2-1.3c0.2-0.1,0.3-0.4,0.2-0.6C484.7,243.9,484.5,243.8,484.2,243.8z"/>
	<path d="M490.3,247L490.3,247c0.1,0,0.2,0,0.3-0.1c0.3-0.2,0.5-0.4,0.7-0.6l0.8-0.8c0.2-0.2,0.2-0.5,0-0.7
		c-0.1-0.2-0.4-0.2-0.6-0.1c-0.1,0-0.2,0-0.2-0.1c-0.2-0.2-0.5-0.2-0.7,0c-0.2,0.2-0.2,0.4-0.1,0.6c0.1,0.1,0.1,0.2,0,0.3l-0.7,0.6
		c-0.2,0.2-0.2,0.5,0,0.7C490,246.9,490.1,247,490.3,247z"/>
	<path d="M506.2,260.7c-0.2,0-0.4,0.1-0.5,0.3l-1.2,2.4c-0.1,0.2,0,0.5,0.2,0.7c0.2,0.1,0.5,0,0.6-0.2l0.6-0.9
		c0.1,0.1,0.2,0.1,0.4,0.1c0.7-0.1,1.3-0.7,1.5-1.4c0-0.2,0-0.3-0.1-0.4c-0.1-0.1-0.3-0.2-0.4-0.1c-0.1,0-0.2,0-0.3,0.1
		C506.8,261,506.5,260.9,506.2,260.7L506.2,260.7z"/>
	<path d="M577.8,255.6c0.2,0.2,0.4,0.4,0.6,0.5c0.2,0.2,0.5,0.1,0.7-0.1c0-0.1,0.1-0.1,0.1-0.2l0.1,0c0.3,0.1,0.5-0.1,0.6-0.4
		c0-0.1,0-0.3-0.1-0.4l-1.2-1.5c-0.1-0.1-0.1-0.1-0.2-0.2c-0.2-0.1-0.4,0-0.6,0.1c-0.1,0.1-0.1,0.1-0.1,0.2
		c-0.1-0.1-0.1-0.2-0.2-0.3c-0.2-0.2-0.4-0.3-0.7-0.1c-0.1,0-0.1,0.1-0.1,0.1c-0.3,0-0.5,0.3-0.5,0.5c0,0.1,0.1,0.2,0.2,0.3
		L577.8,255.6z"/>
	<path d="M568.9,252.3c-0.2,0.1-0.4,0.4-0.2,0.7c0,0,0.1,0.1,0.1,0.1c0.8,0.8,1.7,1.4,2.7,1.8c0.3,0.1,0.5,0,0.6-0.3
		c0.1-0.2,0-0.3-0.1-0.5c-0.1-0.2-0.2-0.3-0.4-0.4c0.3-0.1,0.4-0.4,0.2-0.7c0-0.1-0.1-0.2-0.2-0.2l-1.5-1c-0.1-0.1-0.2-0.1-0.3-0.1
		l-0.6-0.4c-0.2-0.1-0.5-0.1-0.7,0.2c-0.1,0.2-0.1,0.4,0,0.5C568.7,252.1,568.8,252.2,568.9,252.3z"/>
	<path d="M428.7,131.3c-0.1,3.3,0.5,6.6,1.6,9.8c0.6,2.2,1.9,4.2,3.5,5.7c1.2,1,2.8,1.6,4.4,1.6c0.8,0,1.5-0.2,2.2-0.5
		c1.8-0.8,2.8-2.5,3.7-4.1c0.5-0.9,1.1-1.8,1.8-2.6c2.8-3.1,7.5-3.4,12.2-3.1c0.2,0,0.3-0.1,0.4-0.2c1.4-2.1,1.9-4.7,1.4-7.2l2,2.3
		c0.2,0.2,0.5,0.2,0.7,0c0.1-0.1,0.2-0.3,0.2-0.4l-0.2-1.8c2.2,1.1,4,3,5,5.3c0.1,0.3,0.4,0.4,0.7,0.3c0,0,0,0,0.1,0
		c3.4-2.2,4.8-7.2,3.1-11.5c-1.3-3.5-4.4-6.6-8.7-8.7c-3-1.3-6.1-2.4-9.3-3.2c-0.8-0.2-1.6-0.4-2.4-0.7c-1.3-0.3-2.6-0.9-3.7-1.7
		c-1.3-1.3-2.1-3.1-2-5c0.1-1.9,0.4-3.8,1-5.7c0.1-0.3-0.1-0.5-0.3-0.6c-0.2-0.1-0.5,0.1-0.6,0.3c-1.7,4.2-2.2,8.7-1.4,13.2
		c0.8,4.3,2,8.6,3.7,12.7c0.2,0.6,0.4,1.4-0.1,1.6c-0.2,0.1-0.6-0.1-1.1-0.5l-8.6-8c-0.2-0.2-0.5-0.2-0.7,0
		c-0.1,0.1-0.2,0.3-0.1,0.5c1.2,5.1,0.4,10.4-2.2,14.9c-0.2,0.3-0.4,0.7-0.7,0.7c-0.6,0.1-1-0.8-1.2-1.4c-1.9-5.7-2.7-11.7-2.4-17.6
		c0-0.3-0.2-0.5-0.5-0.5c-0.2,0-0.4,0.1-0.5,0.3c-1.2,3.3-1.2,6.8-1.1,10.9C428.7,127.9,428.8,129.5,428.7,131.3z"/>
	<path d="M589.6,143.1c0.1,0,0.2,0,0.4,0l0,0l5.5-2.1c-0.5,1-0.6,2.2-0.5,3.3c0,0.3,0.3,0.5,0.6,0.4c0.1,0,0.3-0.1,0.3-0.2
		c1-1.3,2.5-2.2,4.1-2.5c-0.5,0.8-0.8,1.8-0.7,2.7c0,0.3,0.2,0.5,0.5,0.5h0l0.7,0c-0.2,0.4-0.3,0.8-0.3,1.3c0.2,1.1,0.9,2.1,2,2.5
		c0.9,0.4,1.9,0.5,2.9,0.5c2.1,0.2,4.2,0.1,6.3-0.3c1.6-0.4,3.1-1.3,4.1-2.7l0.7,5.5c0,0.3,0.2,0.4,0.5,0.4c0,0,0,0,0,0
		c2.6-0.4,5-1.9,6.3-4.2c1.3-2.2,2.1-4.6,2.5-7.1c0.5-1.9,0.5-3.9,0-5.8c-0.5-2.1-2.2-3.6-4.3-3.9c-1.4,0-2.8,0.4-4,1.2
		c-1,0.6-2.1,1-3.3,1.1h0c-1,0-2.2-0.7-2.2-1.7c0.1-0.6,0.3-1.2,0.7-1.7c1.2-1.9,2.4-3.8,3.8-5.6c0.4-0.6,0.9-1.2,1.3-1.8
		c1.3-1.6,2.5-3.3,3.6-5.1c1.8-2.9,3-6.1,3.7-9.5c0.1-0.3-0.1-0.5-0.4-0.6c-0.2,0-0.3,0-0.4,0.1c-1.9,1.9-3.6,4-5.1,6.2
		c-2.2,3.1-4.2,5.9-7.3,7.8c-1.1,0.6-2.3,1.2-3.5,1.6c-2.2,0.9-4.5,1.8-6.1,3.8c-0.1,0.1-0.2,0.3-0.3,0.4c-0.6,0.7-1.2,1.5-1.9,1.5
		h0c-0.8,0-1.4-1-1.7-1.8c-0.2-0.4-0.3-0.8-0.4-1.2c0.3-0.8,0.6-1.5,1-2.3c4.2-9,11.8-15.7,19.7-21.5c1.3-0.9,2.8-1.9,4.1-2.7
		c-1.2,0.6-2.4,1.3-3.6,2c-8.8,5.3-17.3,12.3-21.2,22.1c-0.1,0.4-0.3,0.9-0.4,1.3c-0.6-2.5-0.7-5.1-0.2-7.6c0.1-0.3-0.1-0.5-0.4-0.6
		c-0.1,0-0.3,0-0.4,0.1c-2.3,1.9-3.6,4.7-3.5,7.7c0,6-1.2,12-3.4,17.6C589.2,142.7,589.4,143,589.6,143.1z M602.4,144.7L602.4,144.7
		c-0.1,0-0.3,0-0.4,0C602.2,144.7,602.3,144.7,602.4,144.7z"/>
	<path d="M603,166.6c-0.4,0.2-0.6,0.6-0.6,1.1l-0.7-0.3c-0.3-0.1-0.5,0-0.6,0.3c-0.1,0.1,0,0.3,0,0.4l1.5,2.8l-4.7-0.8
		c-0.3,0-0.5,0.1-0.6,0.4c0,0.2,0.1,0.5,0.3,0.5c0.6,0.2,1.1,0.7,1.4,1.2l-2.7-0.2c-0.3,0-0.5,0.2-0.5,0.4c0,0.3,0.1,0.5,0.4,0.6
		c0.6,0.1,1.1,0.4,1.6,0.7c-3.8-0.9-7.7-1.2-11.6-1c-0.3,0-0.5,0.3-0.5,0.5c0,0.2,0.2,0.4,0.4,0.5c9.8,2.3,18.7,7.3,25.8,14.5
		c0.1,0.1,0.2,0.1,0.4,0.1c0.1,0,0.2,0,0.2-0.1c0.2-0.1,0.3-0.3,0.3-0.5c-0.6-4.1-2.7-8-4.6-11.4c0.8,0.2,1.5,0.6,2.1,1.2
		c0.2,0.2,0.5,0.2,0.7,0c0.1-0.1,0.2-0.3,0.1-0.5c-1.1-4.3-3.7-8-7.4-10.5C603.4,166.5,603.1,166.5,603,166.6z"/>
	<path d="M514.2,194.4c-0.2-0.1-0.4,0-0.5,0.2l-2.5,3.5c-0.1-5.7-1.7-11.3-4.9-16c-0.2-0.2-0.5-0.3-0.7-0.1
		c-0.2,0.1-0.3,0.4-0.2,0.6c0.8,1.6,1,3.4,0.4,5c0,0,0,0,0,0c-0.7-1.9-1.7-3.7-2.8-5.4c-1.5-2.3-3.3-4.4-5.5-6.2
		c-5.2-3.9-11.8-5.3-18.1-3.9c-5.8,1.2-11.4,4.6-16.2,9.8c-0.2,0.2-0.2,0.5,0,0.7c0.1,0.1,0.2,0.1,0.3,0.1c1.1,0.1,2.3,0.4,3.3,0.8
		c-0.1,0.6-0.2,1.2-0.2,1.8c0,2,0.2,4.1,0.8,6c1.3,4.9,3.1,8.3,5.7,10.6c2.4,2,5.2,3.4,8.3,4.2c2.8,0.9,5.7,1.3,8.6,1.4
		c1,0,2-0.1,3-0.2c1.3-0.2,2.7-0.5,3.9-1c0.9-0.2,1.7-0.4,2.5-0.7c0,0.1,0.1,0.1,0.1,0.2c0.1,0.2,0,0.4-0.1,0.6
		c-0.2,0.2-0.2,0.5-0.1,0.7c0.1,0.2,0.4,0.2,0.6,0.2l2.4-0.8c-0.6,3-2.6,5.5-5.4,6.8c-1.5,0.7-1.5,1.5-1.4,1.9
		c0.2,0.6,0.8,0.9,1.5,0.8c0.2,0,0.3,0,0.5,0c4.1-0.6,7.9-2.3,11.1-5l0,2.3c0,0.3,0.2,0.5,0.5,0.5c0.2,0,0.3-0.1,0.4-0.2
		c4-5.4,5.8-12.1,5.1-18.7C514.5,194.6,514.4,194.4,514.2,194.4z M503.8,193.2c-0.3,3.1-0.8,6.2-2.3,8.4c-4.2,2.7-9.2,4-14.2,3.5
		c-5.4-0.6-10.4-3.3-13.7-7.6c-2-2.6-3.3-5.8-3.8-9.1c0.2-1.4,0.5-2.9,0.9-4.3c1.1-3.4,2.6-5.5,4.5-6.4c7.8-3.6,14.6-3.4,20.1,0.5
		C501.3,182.6,504,190.4,503.8,193.2z"/>
	<path d="M465.1,185.5c0-0.2-0.2-0.5-0.4-0.5l-5.8-1c-0.3,0-0.5,0.1-0.6,0.4c0,0.1,0,0.2,0.1,0.3c0.2,0.3,0.3,0.6,0.4,0.9
		c0.3,1,0.9,1.9,1.7,2.6c0.9,0.9,1.5,2.1,1.8,3.4l0.1,0.5c1.3,4.2,3.7,7.9,6.9,10.9c0.2,0.2,0.5,0.2,0.7,0c0.2-0.2,0.2-0.4,0-0.6
		C466.7,197.3,465,191.5,465.1,185.5z"/>
	<path d="M469.6,138.2c-0.3-0.1-0.5,0-0.7,0.2c-0.1,0.2,0,0.4,0.1,0.6c2.4,2.1,5.1,3.8,8.1,5.1c0.1,0,0.1,0,0.2,0
		c0.3,0,0.5-0.2,0.5-0.5c0-0.1-0.1-0.3-0.1-0.4c-0.6-0.7-1.2-1.4-1.5-2.3l4,2.6c0.2,0.2,0.5,0.1,0.7-0.1c0.1-0.1,0.1-0.2,0.1-0.3
		c-0.3-3.3,0.1-6.6,1.3-9.7l1.7,4.4c0.1,0.2,0.3,0.3,0.5,0.3c0.2,0,0.4-0.2,0.5-0.4l0.6-2.7c0.5,1.2,0.7,2.4,0.7,3.7
		c0,0.3,0.2,0.5,0.5,0.5c0.1,0,0.3-0.1,0.4-0.2c3.7-4.2,5.7-9.6,5.4-15.2c0-0.3-0.2-0.5-0.5-0.5c-0.1,0-0.2,0.1-0.3,0.1
		c-1.7,1.6-3.3,3.4-4.6,5.4l-3-5.9c-0.2-0.4-0.4-0.7-0.8-0.9c-0.8-0.4-1.7,0-2.5,1.1c-2.7,4-4.6,8.5-5.5,13.2l-0.3-0.6
		c0-0.1-0.1-0.2-0.2-0.3c-0.1-0.2-0.4-0.3-0.7-0.2c-0.2,0.1-0.3,0.4-0.2,0.7l0.1,0.3c0.3,0.8,0.1,1.7-0.5,2.3
		C472.8,139.2,471.5,139.1,469.6,138.2z"/>
	<path d="M568.8,139.7c0.2,0.1,0.3,0,0.5-0.1c0.8-0.6,1.6-1.1,2.5-1.5l-2.1,3.7c-0.1,0.2-0.1,0.5,0.2,0.7c0.2,0.1,0.3,0.1,0.5,0
		c2.7-1.6,5.7-2.4,8.9-2.5l-2.7,3.1c-0.2,0.2-0.2,0.5,0.1,0.7c0.1,0.1,0.2,0.1,0.3,0.1l3.1,0.1c-0.4,0.9-0.5,1.9-0.3,2.8
		c0.1,0.3,0.4,0.4,0.6,0.3c3.7-1,7.6-0.2,10.6,2.3c0.2,0.2,0.5,0.2,0.7-0.1c0.1-0.2,0.2-0.4,0.1-0.6c-1.9-3.2-5-5.6-8.7-6.5l1.4-2.4
		c0.1-0.2,0.1-0.5-0.2-0.7c-0.2-0.1-0.5-0.1-0.7,0.1c-0.5,0.6-1.2,1-1.9,1.1c0.4-2,0.9-3.9,1.7-5.8c0.1-0.3,0-0.5-0.3-0.7
		c-0.1,0-0.2-0.1-0.4,0l-5.8,2l0.5-1.7c0.1-0.2,0-0.4-0.1-0.5c-0.1-0.1-0.3-0.2-0.5-0.1l-4.6,1.1c0-0.3,0.1-0.7,0.1-1
		c0.2-1.4,0.4-2.7-0.1-3.5c-0.1-0.2-0.3-0.2-0.5-0.2c-0.2,0-0.3,0.2-0.4,0.3l-3,8.6C568.4,139.3,568.5,139.6,568.8,139.7z"/>
	<path d="M553.8,145.8c0.1,0,0.1,0,0.2,0c0.1,0,0.1,0,0.2,0c2.5-1,4.5-3,5.5-5.5c1-2.4,1.7-4.9,2.1-7.4c0.1-0.3-0.1-0.5-0.4-0.6
		c-0.2,0-0.4,0.1-0.5,0.2c-0.7,1.2-1.5,2.2-2.4,3.2l-0.4-2.7c0-0.3-0.3-0.5-0.6-0.4c-0.1,0-0.2,0.1-0.3,0.2
		c-0.3-1.5-0.7-2.4-1.3-2.6c-0.4-0.1-0.8,0.1-1.1,0.4c-0.1,0.1-0.1,0.2-0.1,0.3l-0.5,9.2c0,0.3,0.2,0.5,0.5,0.5
		c0.1,0,0.3-0.1,0.4-0.2c-0.3,1.5-0.8,3.1-1.4,4.5C553.4,145.4,553.5,145.7,553.8,145.8z"/>
	<polygon points="554,145.9 554,145.9 554,145.9 	"/>
	<path d="M530.9,141.7c0.2,0,0.4-0.1,0.5-0.3l0.5-1.4c1.9,8.1,2.5,16.5,1.6,24.8c0,0.3,0.2,0.5,0.4,0.5c0,0,0,0,0.1,0
		c0.2,0,0.4-0.2,0.5-0.4l4-21.5c0-0.3-0.1-0.5-0.4-0.6c-0.2,0-0.3,0-0.4,0.1h0c-0.4,0.4-0.9,0.8-1.3,1.3l-0.1-3.5
		c0-0.3-0.2-0.5-0.5-0.5c-0.2,0-0.3,0.1-0.4,0.2l-0.2,0.3l-0.7-5.6c0-0.3-0.3-0.5-0.6-0.4c-0.1,0-0.1,0-0.2,0.1l-1.9,1
		c-0.4-3.6-0.4-7.3,0.2-11c0-0.3-0.1-0.5-0.4-0.6c-0.2,0-0.5,0.1-0.6,0.3c-0.1,0.5-0.3,0.9-0.4,1.4c-0.4,1.1-0.7,2.3-1,3.5
		c-0.7,4-0.4,8.1,0.8,11.9C530.5,141.6,530.7,141.7,530.9,141.7z"/>
	<path d="M539.5,123.9c0.2,0.2,0.5,0.2,0.7,0.1c0.1-0.1,0.2-0.2,0.2-0.3l0.1-0.7c0.5,0.7,1.1,1.4,1.8,1.8c0.2,0.1,0.5,0.1,0.7-0.2
		c0-0.1,0.1-0.1,0.1-0.2l0-0.2c0.4,0.4,0.8,0.8,1.3,1c1.3,4.4,2,9,1.9,13.7c0,0.2,0.2,0.5,0.4,0.5c0,0,0.1,0,0.1,0
		c0.2,0,0.4-0.1,0.5-0.3c1.4-4.3,1.4-8.9-0.2-13.2c-1-3.2-2.7-6.2-4.8-8.8c-0.2-0.2-0.5-0.2-0.7-0.1c-0.1,0.1-0.2,0.2-0.2,0.4v2.1
		l-0.6-0.6c-0.2-0.2-0.5-0.2-0.7,0c-0.1,0.1-0.2,0.2-0.2,0.3l0,0.4l-5.9-4.2c-0.2-0.2-0.5-0.1-0.7,0.1c-0.1,0.2-0.1,0.4,0,0.6
		L539.5,123.9z"/>
	<path d="M514.2,130.1c0.1,0.3,0.3,0.4,0.6,0.4c0.2,0,0.4-0.2,0.4-0.4l0-0.2l1.4,2.7c0.1,0.2,0.4,0.3,0.7,0.2
		c0.2-0.1,0.3-0.3,0.3-0.4l0-1.4c0.7,1.5,1.4,3,2.4,4.3c0.1,0.1,0.2,0.2,0.4,0.2c0,0,0.1,0,0.1,0c0.2,0,0.4-0.2,0.4-0.4
		c0.5-3.7-0.2-7.5-1.8-10.8c-0.6-1.3-1.4-2.5-2.4-3.6c-0.2-0.2-0.5-0.2-0.7,0c-0.1,0.1-0.2,0.3-0.1,0.5l0.7,1.9
		c-2.5-2.8-5.8-4.8-8.8-6.6c-0.2-0.1-0.5-0.1-0.7,0.2c-0.1,0.2-0.1,0.5,0.1,0.6C510.7,120.7,513.2,125.2,514.2,130.1z"/>
	<path d="M474.7,91.7l-1.4-1.6c-0.2-0.2-0.5-0.2-0.7,0c-0.2,0.1-0.2,0.3-0.1,0.5l1.3,4c-1.6-1.7-3.5-3-5.7-3.8
		c-0.3-0.1-0.5,0-0.6,0.3c-0.1,0.2,0,0.3,0.1,0.5c3.5,4.9,5.2,10.8,4.9,16.8c-0.7-1.4-1.8-2.6-3-3.6c-0.2-0.2-0.5-0.1-0.7,0.1
		c-0.1,0.2-0.1,0.4,0,0.6c2.1,3.6,3.3,7.6,3.4,11.7c0,0.2,0.2,0.4,0.4,0.5c0,0,0,0,0.1,0c0.2,0,0.4-0.1,0.5-0.4
		c1.7-5.4,2.5-11,2.3-16.7c0.4,0.8,0.8,1.6,1.1,2.5c0.1,0.2,0.3,0.4,0.5,0.3c0.2,0,0.4-0.2,0.5-0.4c0.6-2.6,0.8-5.4,0.6-8.1
		c0,0,0.1,0,0.1,0c0.4-0.1,0.4-0.5,0.3-1.1c-1.2-7.9-6.7-14.5-11.1-19.9c-0.2-0.2-0.5-0.3-0.7-0.1c-0.2,0.2-0.3,0.5-0.1,0.7
		c3,4.4,5.5,9.1,7.4,14.1c-6-10.2-22.6-17.8-32-21.6c-1.6-0.6-3.3-1.3-4.9-1.9c1.5,0.7,3.1,1.4,4.6,2.2
		C451.3,72.3,469.4,80.7,474.7,91.7z"/>
	<path d="M452.4,95c3.2,3.1,6.4,6.2,9.2,9.6c2.1,4.1,3.6,8.5,4.5,13c-0.3-3.5-1.1-6.9-2.3-10.3c3.3,4.1,5.8,8.7,7.5,13.7
		c-1.2-6.7-4.7-12.4-9.1-17.5c-1.8-3.8-4-7.3-6.6-10.5c-4.4-5.6-9.3-10.8-14.8-15.3c-1-0.8-2-1.5-3.1-2.2c1.1,0.8,2.2,1.7,3.1,2.6
		c4.2,4.1,8.1,8.5,11.7,13c2.4,2.8,4.5,5.8,6.4,8.9c-1.7-1.8-3.4-3.5-5.2-5.1c-5.4-5.1-10.9-10.1-17.2-14.1c-1-0.7-2.1-1.2-3.1-1.8
		c1.3,0.8,2.5,1.6,3.7,2.5C442.5,85.5,447.6,90.3,452.4,95z"/>
	<path d="M442.4,77c-0.9-0.5-1.8-1.2-2.7-1.6c1,0.7,2,1.5,3.1,2.3c7.2,5.8,26,17.9,28.2,26.5C469.2,93.8,450.9,82.7,442.4,77z"/>
	<path d="M650.8,334.2c-1.1-6.2-4.4-11.8-9.2-16c-7-5.9-18.9-8.9-25.8-9.3c-3.5-0.2-10.7,0-15.1,0.4c-0.7-0.1-1.5-0.2-2.2-0.2
		c-5.3-9.9-11.1-19.7-17.1-29.2c-0.5-0.8-1.1-1.6-1.6-2.4c-0.3-2.2-0.9-4.5-1.6-6.6c0.2-0.1,0.4-0.2,0.6-0.3c1-0.5,1.9-1.1,2.8-1.8
		c1.2-1.1,2.3-2.3,3.4-3.5c9.6,6.2,18.2,13.7,26.7,21.5c1.6,1.5,3.4,3.2,4.9,4.6c-1.5-1.7-3-3.3-4.6-5c-8-8.2-16.8-15.5-26.3-21.9
		c1.4-1.6,2.8-3.3,3.8-4.5c2.3-1.9,4.5-4,6.6-6.2c13.1,4.4,25.6,10.3,38.1,16.3c1.8,0.9,3.7,1.8,5.5,2.7c-1.9-1.1-3.7-2.1-5.6-3.2
		c-12-6.5-24.4-12-37.3-16.6l0,0c18.8,3.2,37.5,9.7,55.6,15.9c2.2,0.7,4.5,1.5,6.6,2.2c-2.4-1-4.8-2-7.2-2.9
		c-17.7-6.5-35.7-12.6-54.3-15.9c2.4-2.7,4.7-5.6,6.7-8.6c12.1,1.6,24,4.2,35.6,7.9c3.6,1.1,7.1,2.6,10.5,4.2
		c0.2,0.1,0.6,0.3,0.5,0.3c-3.2-2-6.7-3.6-10.2-4.9c-11-4.1-22.5-6.3-34.1-8.1c-0.6-0.1-1.1-0.2-1.7-0.3c3.8-5.7,6.7-11.9,8.5-18.5
		c0.3-1.1,0.6-2.2,0.8-3.3c0.6-2.9,1.5-5.8,2.6-8.6c0.9-1.9,1.9-3.8,3-5.5c1.1-1.7,2-3.5,2.9-5.3c3.9-8.6,3.1-18.5,1.9-27
		c0.1-3.9,0.8-7.7,2-11.3c0.9-2.4,2-4.7,3.2-6.9c1-1.9,2-3.9,2.9-5.9c3-7.4,3.4-15.6,1-23.3c-0.2-0.6-0.4-1.2-0.6-1.8
		c-1-2.9-1.9-5.8-1.4-8.5c1.2-2.2,2-4.6,2.6-7c2.1-8.1,4.3-16.3,6.1-24.6c1.1,0.1,2.2,0.2,3.3,0.3c1,0.1,2.4,0.4,3.2,0.6
		c-0.7-0.2-1.3-0.4-2-0.6c-1.4-0.4-2.9-0.7-4.4-0.8c0.4-2,0.8-4,1.2-6.1c1.4-0.2,2.9-0.4,4.3-0.4c-1.4,0-2.9,0.1-4.3,0.2
		c0.4-2.4,0.9-4.9,1.2-7.3c0-0.3,0.1-0.7,0.1-1.1c0.4-0.2,0.8-0.4,1.2-0.5c1.2-0.5,2.5-1,3.8-1.4l-0.3,0.1c-0.9,0.2-1.7,0.5-2.5,0.7
		c-0.7,0.2-1.4,0.5-2.1,0.8c0.8-5,0.9-10.1,0.3-15.2c-0.3-1.9-1.2-5.3-4-5.8c-1.5-0.2-3.1,0.4-4.2,1.4c-0.2,0.2-0.4,0.4-0.6,0.5
		c-4.7,2.6-8.5,6.7-12.1,10.8l-0.8,0.9c-10.4,11.5-22.1,21.8-34.7,30.8c-4.4,3.1-9.1,6.2-14.2,6.7c-0.1,0-0.3,0.1-0.3,0.2
		c-1.5,1.5-3.5,2.5-5.6,2.6c-1.3,0.1-2.6,0.1-3.9,0.1c-0.9,0-1.9,0-2.8,0c-2.4,0-4.7,0.7-6.6,2.1c-2.8-0.1-5.6-0.4-8.3-0.9
		c-0.8-0.1-1.5-0.2-2.3-0.3c-5.7-0.8-11.4-1.2-17-1.6l-10.2-0.7c-3-0.3-6-0.3-9,0l-0.5,0.1c-1.2,0.3-2.5,0.2-3.7-0.2
		c-0.6-0.4-1.2-1-1.6-1.6c-0.2-0.3-0.4-0.5-0.6-0.8l-0.1-0.2c0-0.1-0.1-0.2-0.2-0.2c-5.4-4.5-8.8-10.9-12-17.2
		c-0.5-0.9-1-1.9-1.5-2.8c-5.6-10.7-11.8-21.1-18.5-31.1c-3.3-4.9-7.4-9.2-12.3-12.5c-2.1-1.5-4.6-2.3-7.1-2.3
		c-2.8,0.2-5.4,1.5-7.4,3.5c-2.1,1.8-3.8,4-4.9,6.5c-4.3,10.5-8.9,27.8-8.9,44.7c0,4.5-0.3,9-1.1,13.5c-0.7,3.3-1.6,6.7-2.5,10
		c-0.4,1.5-0.8,2.9-1.2,4.3c-1.1,4.5-0.4,9,0.4,13.4c0.4,2.6,0.8,4.6,1.2,6.6c0.4,2,0.8,4,1.2,6.6c0.3,2.1,0.8,4.2,1.4,6.3
		c-0.1,2.5-0.4,5.2-0.7,7.9l-0.2,2.1c-0.5,4.7-0.9,10,0.3,14.9c-0.1,0.5-0.2,1.1-0.3,1.6c-0.8,4-1.7,8.2-1.2,12.3
		c0.3,2,0.7,4,1.4,5.9c0.1,1.2,0.3,2.3,0.4,3.5c-0.1,3.3-0.9,6.6-2.3,9.6c-0.5,1-1,2-1.6,3c-1.1,1.8-2,3.8-2.7,5.8
		c-0.1,0.3-0.2,0.6-0.3,1c-0.2,1-0.6,2-1.1,2.8c-0.9,1.2-2.5,1.9-4.8,2.1c-0.3,0-0.7,0-1,0c-0.7,0-1.5,0-2.2,0.1
		c-0.9,0-1.8,0.2-2.7,0.5c0,0,0,0,0,0c-3,0.9-5.9,2.1-8.6,3.5c-0.7,0.3-1.3,0.7-2,1c-2.9,1.4-7.9,4.5-12.3,7.2
		c-3.9,2.4-7.6,4.7-9.1,5.3c-0.3,0.1-0.4,0.4-0.3,0.7c0,0.1,0.1,0.2,0.2,0.3l1.2,0.6c-10,3-33.7,21.7-48,34.3
		c-16.1,7.1-33.1,12.3-49.7,17.3l-14.8,6.1c-0.1,0.1-0.2,0.2-0.3,0.3c-1,0.5-2.1,0.9-3.1,1.5c-17.5,9-33.3,20.9-46.7,35.3H35.7v18
		h359.6c3.2,1.3,6.6,1.7,10,1.3c0.7,0.7,1.5,1.3,2.3,1.8c1.7,1.2,3.7,1.9,5.8,2.2c0.3,0,0.6,0.1,0.9,0c1.5,0.2,3.1-0.1,4.4-0.8
		c0.3-0.2,0.6-0.3,0.9-0.5c0.9,0.4,1.9,0.7,2.8,1c4.8,2.2,8.2,0.9,12.4-1.7c1.1-0.7,2.2-1.5,3.1-2.3c2.1,1,4.4,1.7,6.7,1.9
		c1.5,1.8,3.2,2.2,4.2,0.1c0.7-0.1,1.3-0.2,2-0.5c0.2-0.1,0.6-0.2,0.9-0.3l-0.1,0.1c1.6-0.5,3-1.2,4.3-2.3h121.9
		c0-0.1-0.1-0.2-0.1-0.2l0,0c1.1,1.8,2.8,3.3,4.8,4.1l-0.1-0.1c0.3,0.1,0.7,0.4,0.9,0.4c0.6,0.3,1.3,0.5,1.9,0.7
		c0.8,2.2,2.5,2,4.3,0.4c2.4,0,4.8-0.4,7.1-1.2c0.9,1,1.8,1.9,2.9,2.8c3.9,3.1,7.2,4.9,12.3,3.2c1-0.2,2-0.4,3-0.7
		c0.3,0.2,0.5,0.4,0.8,0.6c1.3,0.9,2.8,1.3,4.4,1.3c0.3,0,0.6,0.1,0.9,0.1c2.2,0,4.3-0.6,6.2-1.6c0.9-0.4,1.8-0.9,2.6-1.6
		c5.2,1.2,11,0.8,14.7-2.7c1.6-1.6,3-3.5,4-5.5h131.3v-18L650.8,334.2z M579.9,293c0.5-4.6,0.5-9.3,0.1-14c7,10.8,13.9,23.1,17.9,30
		c-6-0.3-12,0.7-17.7,2.9c-0.4-2.1-0.8-4.1-1.1-6.2c-0.1-0.5-0.2-1.1-0.4-1.7C579.2,300.4,579.6,296.7,579.9,293L579.9,293z
		 M578.4,306.8c0.4,1.8,0.7,3.7,1,5.5c-0.7,0.3-1.4,0.6-2,1C577.7,311.1,578,309,578.4,306.8z M578.9,294.6L578.9,294.6
		c-0.2,2.3-0.5,4.6-0.8,6.8c-1.4-6.5-2.9-14-5-21.2c0.6-0.8,1-1.8,1.3-2.8c0.1-0.5,0.2-1,0.2-1.6c0-0.7,0.2-1.4,0.4-2
		c0.2-0.4,0.4-0.8,0.7-1.1c1.1,1.5,2.2,3.1,3.3,4.7C579.5,283.1,579.5,288.9,578.9,294.6z M570.1,276.5c-0.7,1.1-1.8,2.9-3,4.9
		c-0.3,0.5-0.6,1-0.8,1.3c-0.3-1.5-0.5-3.1-0.9-4.6c-0.1-0.5-0.3-1-0.4-1.6c0.1,0,0.3-0.1,0.4-0.1v0
		C567,276.5,568.5,276.5,570.1,276.5z M570,271.5c-1.9-4.6-4.6-8.9-8-12.6c1.2,0.5,2.3,1.1,3.3,2v0v0c-0.1,0.1-0.1,0.3,0,0.5
		c0.4,0.8,1.1,1.5,1.9,1.9c0.2,0.1,0.5,0.1,0.6-0.1c2.1,2.1,4,4.3,5.7,6.7C572.4,270.4,571.2,271,570,271.5z M578.7,275.7
		L578.7,275.7c-0.8-1.2-1.6-2.4-2.4-3.6c0.4-0.3,0.8-0.6,1.3-0.9C578,272.7,578.4,274.2,578.7,275.7z M589.6,252.7
		c0-0.2,0-0.4-0.1-0.6c0.2,0,0.5,0.1,0.7,0.1C590.1,252.3,589.9,252.5,589.6,252.7z M591.3,251.4c-0.6-0.2-1.2-0.4-1.9-0.6
		c-0.1-0.8-0.2-1.6-0.3-2.4c0.1-1.6,0-3.2-0.4-4.7c0.7,0.4,1.6,0.5,2.4,0.5c0.3,0,0.5-0.2,0.5-0.5c0,0,0,0,0-0.1
		c-0.1-0.4-0.2-0.8-0.4-1.2c2.7,0.2,5.4,0.4,8.1,0.8C597,246.3,594.3,249,591.3,251.4z M639.3,78.7c-7.2,0.8-14.1,3-20.5,6.3
		c-3.8,1.8-7.3,4.2-10.4,7c2.3-2.4,4.7-4.7,7.4-6.7c7.1-5.4,16-10.2,24.6-14.2C640.1,73.7,639.7,76.2,639.3,78.7z M526.6,103.8
		c0.6,0,1.1,0.1,1.7,0.1C527.7,103.9,527.2,103.9,526.6,103.8L526.6,103.8z M425.5,121.3c0.1-4.9,1.6-9.3,4.2-12.2
		c1.9-1.9,4.3-3.1,6.9-3.7c0.3-0.1,0.4-0.3,0.4-0.6c0-0.1-0.1-0.2-0.1-0.3c-2.9-3.1-4.7-7-5.3-11.2c-0.6-4.2-0.8-8.5-0.4-12.7
		c0.5-10.9,1.5-23.5,7-34.5c0.4-0.8,0.8-1.5,1.2-2.2c1.3,1,2.6,1.9,3.9,2.9c3.9,3,8.3,6.3,12.3,9.9c-4.6-2.7-9.4-5.1-14.3-7.3
		c-1.1-0.5-2.5-1.1-3.5-1.5c1.4,0.7,2.8,1.5,4.2,2.2c5.6,3.2,11.6,6.2,16.9,9.9c1.5,1.6,2.8,3.2,4,5c1,1.5,1.9,3.1,2.6,4.8
		c-4.7-2.3-11.1-2.6-15.8-2.8c-0.4,0-0.9,0-1.3,0c0.8,0.1,1.6,0.2,2.4,0.3c3.4,0.4,7.1,1.3,10.5,2c1.5,0.3,3,0.7,4.4,1.2
		c0.1,0.3,0.1,0.6,0,0.9c0.1-0.3,0.1-0.6,0.1-0.9c1.3,0.5,2.6,1.2,3.6,2.1c-1.1-1.2-2.3-2.1-3.8-2.8c-0.4-1.6-1.1-3.2-1.9-4.7
		c-0.6-1-1.2-2-1.8-2.9c4.3,3.2,7.8,7.5,10.1,12.4c-2.1-6.5-6.9-11.8-12.5-15.4c-5-5.6-11.6-9.8-17.8-14c-0.7-0.5-1.5-1-2.3-1.4
		c1.8-2.9,3.6-4.7,5.9-5.5c0,0,0.1,0,0.1,0c1.9-1.2,4.9-1.4,7.9-0.5c8.4,6,18.3,23.7,23.9,38.8c2.7,7.3,5.3,14.9,5.4,20.8
		c0.1,3.9-0.6,7.8-2,11.4c-0.6,1.1-1.3,2.2-1.9,3.3c-0.5,0.9-1,1.7-1.5,2.6c-0.1,0.1-0.1,0.2-0.1,0.3c0,0,0,0.1-0.1,0.1
		c0,0.1-0.1,0.1-0.1,0.2c-3.5,6.3-4.5,11.5-3,15.9c0.1,0.2,0.3,0.3,0.5,0.3h0c0.2,0,0.4-0.2,0.4-0.4c0.5-3.3,1.1-7,2.9-10.1
		c1.4-2.5,3.8-4.3,6.6-4.9c1.5,1,2.4,2.6,2.7,4.4c0,0.3,0.3,0.4,0.5,0.4c0.3,0,0.5-0.2,0.5-0.5l0-2.1c2.1,1.8,4.4,3.3,6.9,4.4
		c0.1,0,0.1,0,0.2,0c0.3,0,0.5-0.2,0.5-0.5c0-0.1-0.1-0.3-0.1-0.4l-2.7-2.7l2.7,0.5c0.3,0.1,0.5-0.1,0.6-0.4c0-0.2-0.1-0.5-0.3-0.6
		c-1.7-0.8-3.3-1.8-4.7-3c-0.4-0.3-0.8-0.6-1.1-0.9c-1.6-1.2-2.6-3.4-2.8-6.1c-0.1-1.5,0-2.9,0.1-4.3c0.1-1,0.2-2,0.2-3
		c0.1-6.3-2.3-12.4-4.5-17.8c-3.5-8.9-7.1-17.9-11.6-26.5c4.3,6.8,8.2,13.9,11.9,20.9c6.4,11.9,13,24.2,20,35.6
		c0.1,0.2,0.5,0.3,0.7,0.2c0.2-0.1,0.3-0.3,0.2-0.6l-2.5-8.8c0.2,0,0.4,0,0.6,0.1c2.1,0.4,4.1,1.4,5.8,2.7c2.3,2,4.3,4.2,6,6.7
		c0.2,0.2,0.5,0.3,0.7,0.1c0.2-0.1,0.2-0.4,0.2-0.6l-2.5-6.2c0.1-0.8,0.4-1.5,1-2c1.5,0.3,2.9,1.1,4,2.1c1.7,1.8,3.1,3.9,4,6.2
		c0.1,0.2,0.4,0.3,0.7,0.2c0.2-0.1,0.3-0.3,0.3-0.6l-0.1-0.4l0.9,1.1c0.8,1.3,1.9,2.4,3.2,3.1c0.2,0.1,0.5,0,0.7-0.2
		c0.1-0.2,0.1-0.4,0-0.5c-2.4-3.1-3.4-7-2.9-10.9c5,0.3,9.4,3.5,11.2,8.2c0.1,0.3,0.4,0.4,0.6,0.3c0.1,0,0.2-0.2,0.3-0.3l0.4,1.3
		c0.1,0.2,0.2,0.3,0.5,0.4c0.2,0,0.4-0.1,0.5-0.3c0.9-2.3,1.1-4.9,0.5-7.3c2.5,1.1,5,2.4,7.3,4c0.2,0.2,0.5,0.1,0.7-0.1
		c0.1-0.2,0.1-0.4,0-0.6l-0.5-0.8c0.3,0.1,0.5-0.1,0.6-0.4c0-0.2,0-0.3-0.1-0.4l-1.2-1.5c2.9,1.2,5.4,3.1,7.5,5.4
		c2.5,2.8,4.7,5.8,6.6,9c0.2,0.2,0.5,0.3,0.7,0.1c0.2-0.1,0.3-0.4,0.2-0.6c-1-2.8-2.2-5.6-3.5-8.3c0.3,0.1,0.5-0.1,0.6-0.4
		c0-0.1,0-0.2,0-0.2c-0.3-1.3-0.9-2.5-1.7-3.5c0.5,0.2,1.1,0.3,1.6,0.5c4.2,2.7,7.6,6.4,9.9,10.9c0.1,0.2,0.3,0.3,0.4,0.3
		c0,0,0.1,0,0.1,0c0.2,0,0.4-0.2,0.4-0.4c0.2-2.3-0.4-4.7-1.8-6.5c-0.4-0.4-0.7-0.8-1.1-1.2c-0.4-0.4-0.8-0.8-1.1-1.3
		c-0.7-0.7-0.9-1.7-0.7-2.7c0.5-0.9,1.3-1.6,2.3-1.9c1.8-0.9,3.7-1.5,5.7-2.1c1.3-0.2,2.7-0.5,4-0.9c0.1,0,0.2,0,0.4-0.1
		c0.1,0,0.1,0,0.2-0.1c5.9-1.6,11.3-4.5,16-8.4c-2.1,2.4-4.5,4.7-7.1,6.7c-1.1,0.8-2.2,1.6-3.3,2.4c-3.2,2.3-6.6,4.7-8.9,8.1
		c-3.1,4.6-3.9,10.2-4.3,15.6c0,0.3,0.2,0.5,0.4,0.5c0,0,0.1,0,0.1,0c0.2,0,0.4-0.2,0.5-0.4c1.5-5.6,4.7-11.4,9.7-17
		c3.6-4,7.4-7.7,11.4-11.2c1-0.9,1.9-1.7,2.9-2.6c10.3-9.5,19.9-19.7,28.9-30.5c3.4-6.1,8.3-11.3,14.1-15.1c0.8,0,1.5,0.1,2.2,0.4
		c1.8,1,3.1,2.9,3.5,5c0.4,2.2,0.4,4.4,0,6.5c-0.3,2.3-0.6,4.6-0.9,6.9c-9.9,3.8-20.9,9.4-28.5,17c5.1-6.2,9.7-12.3,10.4-15.5
		c0.1-0.3-0.1-0.5-0.4-0.6c-0.2,0-0.4,0-0.5,0.2c-2,2.8-5.4,6.8-9.3,11.5c-8.6,10.2-19.4,23-22.2,31.2l-0.3,0.8
		c-0.7,2.1-1.4,4.3-3.1,5.6c-1.4,1.1-3.4,1.4-5.2,1.6c-0.4,0.1-0.8,0.1-1.1,0.2c-3.2,0.5-5.3,1.8-6.1,3.7c-0.1,0.3,0,0.5,0.3,0.7
		c0.1,0.1,0.2,0.1,0.4,0l2.2-0.8c-0.5,0.6-0.7,1.4-0.7,2.1c0,0.5,0.2,0.9,0.6,1.3c0.1,0.1,0.3,0.1,0.4,0.1c0.1,0,0.3-0.1,0.3-0.2
		c1.8-2.5,5.4-3.1,7.9-1.2c0,0,0.1,0.1,0.1,0.1c2.4,2.1,2.6,5.7,2.6,9c0,0.2,0.1,0.4,0.4,0.5c0,0,0.1,0,0.1,0c0.2,0,0.3-0.1,0.4-0.2
		c2.4-3.6,2.4-8.1,2.4-12.4c0-1.1,0-2.3,0.1-3.5c1.3-3,3.1-5.9,5.1-8.5c3.1-3.7,6.7-6,10.7-8.7c1-0.6,2.1-1.3,3-1.8
		c-1.3,0.6-2.6,1.2-3.8,1.8c-2.9,1.3-5.6,3-8.1,4.9c2.6-2.9,5.9-5,9.5-6.3c0.3-0.1,0.4-0.4,0.3-0.6s-0.4-0.4-0.6-0.3l-6.8,2
		c0.3-0.2,0.6-0.4,0.9-0.6c1.5-1,3.1-1.9,4.6-2.8c0.1-0.1,0.3-0.1,0.4-0.2c1.3-0.5,2.6-1.1,3.9-1.6c3-1.2,6-2.4,8.9-3.5
		c0.9-0.3,1.9-0.7,2.8-0.9c-0.8,0.2-1.6,0.3-2.4,0.5l1.2-0.5c-0.9,0.3-1.8,0.5-2.6,0.8c-0.4,0.1-0.8,0.2-1.2,0.4
		c-3.7,0.9-7.2,2.1-10.7,3.6c-1,0.4-1.9,0.8-2.8,1.2l6.7-5.2c0.2-0.2,0.3-0.5,0.1-0.7c-0.1-0.2-0.3-0.2-0.5-0.2
		c-2.2,0.7-4.3,1.7-6.3,3.1l1.2-1.5c0,0,0,0,0,0c8.8-9,21.7-14.8,34-17c-0.3,1.8-0.7,3.6-1.1,5.5c-4.8-0.2-9.5,0.4-14,2
		c-4,1.2-7.8,3-11.2,5.3c3.7-2.3,7.9-3.5,12.1-4.6c4.2-1.2,8.6-1.9,13-2c-1.4,6.7-3.1,13.4-5.1,20.1c-1.6,5.4-4.2,12.9-7.9,15.4
		c-0.2,0.2-0.3,0.5-0.1,0.7c0.1,0.1,0.2,0.2,0.4,0.2c0,0,0.1,0,0.1,0c1.4-0.3,2.7-0.9,3.7-1.8c-0.1,0.4-0.1,0.9-0.1,1.3
		c0.1,1.9,0.3,3.7,0.8,5.5l0.2,0.9c1.1,4.6,1.4,9.3,0.9,14c-0.5,4.7-2.4,9.1-5.4,12.7c-1.4,1.7-3.2,2.9-5.3,3.6
		c-2,0.6-4.2,0-5.7-1.5c-0.7-0.8-1.1-1.9-1-3c0-0.9,0.4-1.7,1.1-2.3c0.2-0.2,0.2-0.5,0.1-0.7c-0.1-0.2-0.4-0.2-0.6-0.1
		c-2.9,1.5-6.1,2-9.3,1.5c-0.2,0-0.4,0.1-0.5,0.3c-0.1,0.2-0.1,0.4,0.1,0.6c1.3,1.4,3,2.4,6.3,3.5c-0.3,1.5,0,3.1,0.8,4.4
		c0.8,1.5,2.3,2.6,4,2.9c0.3,0.1,0.7,0.1,1,0.1c0.3,0,0.6,0.1,0.8,0.1c0.8,0.9,1.3,2,1.6,3.1c0.4,1.9,0.4,3.9,0.2,5.9
		c0,0.7-0.1,1.4-0.1,2.2c0,3.3,0.4,6.6,1,9.9c0.3,2.1,0.7,4.3,0.8,6.4c0.2,1.8,0.1,3.6,0,5.4c0,0.1-0.1,0.2-0.1,0.4
		c-0.1,0-0.2,0.1-0.2,0.2c-3.7,7.3-9.4,13.3-16.5,17.5c-0.2,0.1-0.3,0.4-0.2,0.7c0.1,0.1,0.2,0.2,0.4,0.2l2.7,0.2l-0.7,0.3
		c-0.3,0.1-0.4,0.4-0.3,0.7c0.1,0.2,0.2,0.3,0.4,0.3l1.4,0.2l-1.1,0.7c-0.1,0.1-0.2,0.3-0.2,0.4c0,0.2,0.1,0.3,0.3,0.4
		c0.7,0.4,1.3,0.9,1.7,1.5c-0.2-0.1-0.5,0-0.7,0.2c0,0.1-0.1,0.2-0.1,0.2l0.1,4.6c-1.5,6.1-4.2,11.8-7.9,16.9
		c-2.2-0.3-4.4-0.5-6.6-0.7l2.1-0.3c0.3,0,0.5-0.3,0.4-0.6c0-0.2-0.2-0.4-0.4-0.4l-4-1c0.2-0.2,0.2-0.5,0-0.7
		c-0.1-0.1-0.2-0.1-0.3-0.2c-2.1-0.3-4.1-0.9-6-1.9c0.2-0.2,0.2-0.5,0.1-0.7c0,0-0.1-0.1-0.1-0.1c-2.2-1.4-4.7-2.1-7.2-2
		c-0.3,0-0.5,0.2-0.5,0.5c0,0.1,0.1,0.3,0.2,0.4c1.1,0.9,2.2,2,3.1,3c0,0.1,0,0.1,0.1,0.2l2.3,3.3c-0.1,0-0.2,0-0.4,0l-1-0.3
		c-0.2-0.1-0.5,0-0.6,0.3c0,0,0,0,0,0c-8,0.1-16,1.3-23.7,3.8c8-1.8,16.1-2.8,24.2-2.8c1.2,1.4,2,3.1,2.2,4.9l-0.6-0.3
		c-0.2-0.1-0.5,0-0.7,0.2c-0.1,0.2-0.1,0.4,0.1,0.5c0.5,0.6,0.9,1.1,1.2,1.8c-1.5-0.4-2.9-0.8-4.4-1.1c0-0.1,0-0.2-0.1-0.3l-0.2-0.2
		l0.5,0.3c0.2,0.1,0.5,0,0.7-0.2c0.1-0.2,0.1-0.4,0-0.6c-0.7-0.9-1.7-1.7-2.7-2.2c-0.3-0.1-0.5,0-0.7,0.2c-0.1,0.1-0.1,0.3,0,0.4
		c0,0.1,0,0.1,0.1,0.2c-0.1,0.2-0.1,0.4,0,0.6l0,0c-0.2,0.2-0.2,0.5,0,0.7l0.6,0.7c-2.6-0.6-5.2-1.2-7.8-1.6c0.1,0,0.3-0.1,0.3-0.2
		c-0.2-0.3-0.1-0.7,0.2-1c0-0.2-0.1-0.4-0.3-0.5c-0.6-0.2-1.2-0.4-1.8-0.4c0-0.1,0-0.3-0.1-0.4c-0.1-0.1-0.3-0.2-0.5-0.1l-1.5,0.4
		c-0.3,0.1-0.4,0.4-0.3,0.6c0,0.1,0.1,0.2,0.2,0.3c0.6,0.4,1.3,0.7,2.1,0.8l1.3,0.4c-3.3-0.6-6.6-0.8-9.9-0.8
		c-0.1-0.1-0.3-0.1-0.5,0l-0.1,0.1c-1.5,0.1-3,0.2-4.5,0.5c1.2-0.1,2.5-0.1,3.7-0.1l-0.2,0.1c-0.2,0.1-0.3,0.4-0.2,0.7
		c0.1,0.2,0.3,0.3,0.4,0.3c0,0,0.1,0,0.1,0l0.8-0.2c0.4,0,0.7-0.1,1-0.3c0.2-0.1,0.3-0.3,0.3-0.4c5.8,0.4,11.3,1.7,17.3,2.9
		c2.4,0.5,4.8,1.1,7.1,1.7c0,0,0,0.1,0.1,0.1c-4-0.4-7.9-0.6-11.9-0.4c-2.5,0.2-5.3,0.3-7.5,1.7c2.3-1.2,5-1.1,7.6-1.2
		c4.1,0.1,8.2,0.3,12.2,0.8c0.2,0.4,0.3,0.9,0.4,1.3c0,0.1,0,0.2,0,0.2c-0.1,0.9-0.2,1.9-0.4,2.8l-1-1.2l-0.1-0.1
		c-0.2-0.2-0.5-0.2-0.7-0.1c-0.2,0.2-0.2,0.5-0.1,0.7l0.1,0.1c0.7,0.9,1.1,1.9,1.2,3c-0.4,1.4-0.9,2.7-1.5,4
		c-0.1,0.1-0.2,0.3-0.4,0.4c-11-6.9-22.7-11.7-31.8-9.9c2.7-0.2,5.4,0,8,0.6l-0.7,0.3c-0.3,0.1-0.4,0.4-0.3,0.6
		c0.1,0.2,0.3,0.3,0.5,0.3c0,0,0.1,0,0.1,0c0.4-0.1,0.7-0.2,1.1-0.4c0.2-0.2,0.2-0.4,0.1-0.6c4.2,1.1,8.3,2.7,12.2,4.6
		c3.5,1.6,6.8,3.4,10.1,5.4c-1.6,1.6-3.3,3.1-5.2,4.3c-0.5-1-1.1-1.9-1.7-2.8c0,0,0-0.1,0.1-0.1c0.3,0.1,0.5-0.1,0.6-0.4
		c0-0.2,0-0.3-0.1-0.4l-0.7-0.8c0.3-0.4,0-0.8-0.3-1.2c-0.2-0.2-0.4-0.3-0.6-0.1c0,0-0.1,0-0.1,0l-0.2-0.2c-0.2-0.2-0.5-0.1-0.7,0.1
		c0,0-0.1,0.1-0.1,0.1c-0.1,0-0.2,0-0.3,0.1c-0.2-0.2-0.4-0.3-0.5-0.5c0.2,0.2,0.3,0.4,0.5,0.6c0,0,0,0-0.1,0
		c-0.1,0.2-0.1,0.4,0,0.6l0.2,0.2c0,0.2,0,0.4,0.1,0.5l1.6,1.5c0.1,0.1,0.2,0.1,0.3,0.1c0.6,0.9,1.1,1.9,1.6,2.9
		c-0.7,0.4-1.3,0.8-2,1.2c-1.7-2.3-3.5-4.4-5.6-6.4c0,0,0.1,0,0.1-0.1c0.2-0.2,0.2-0.4,0-0.6c-0.5-0.6-1.1-1.1-1.8-1.4l-1.1-1.1
		c-0.2-0.2-0.5-0.2-0.7,0c-0.1,0.1-0.2,0.3-0.1,0.5c-0.2-0.1-0.3-0.2-0.5-0.3c-0.9-0.6-2-1-3-1.3c-0.8-0.8-1.6-1.5-2.5-2.1
		c0.7,0.7,1.3,1.3,2,2.1c-0.5-0.1-1,0-1.5,0.2c0.6-0.1,1.1-0.1,1.7,0c3.3,3.9,5.9,8.4,7.8,13.1c-1.6,0.7-3.3,1.2-5,1.7
		c-1.2-3.9-2.7-7.7-4.2-11.5c0-0.1,0-0.1-0.1-0.2l0-0.1c0.3-0.1,0.4-0.4,0.3-0.6c0-0.1-0.1-0.2-0.2-0.2c0,0,0,0,0-0.1
		c-0.1-0.2-0.3-0.3-0.6-0.3l0,0c-0.3-0.8-0.7-1.6-1-2.4c0.2,0.8,0.5,1.6,0.7,2.4l-2.1,0.4c-0.2,0-0.3,0.2-0.4,0.4
		c-0.1,0.1-0.2,0.2-0.2,0.4c0,0.2,0.1,0.4,0.3,0.5c0.6,0.3,1.3,0.5,2,0.5c0.3,0,0.7,0,1-0.1c0,0,0.1,0,0.1,0
		c1.2,3.7,2.4,7.5,3.5,11.2c-3.6,1-7.3,1.6-11.1,2c-0.4,0-0.7,0.1-0.8,0.1c-0.9,0.2-1.8,0.2-2.8,0.1c-0.9-0.1-1.9-0.1-2.8-0.1
		c-1.3-0.3-2.6-0.8-3.9-1.4c-2.8-1.3-5.3-3-7.6-5.2c0-0.1-0.1-0.2-0.1-0.3c-0.7-0.8-1.4-1.5-2.1-2.2c-0.1-0.1-0.2-0.2-0.3-0.4
		c-0.9-0.9-1.4-2.2-1.4-3.5c0.1-0.3,0.3-0.6,0.5-0.9c0.5-0.4,1-0.7,1.6-0.9c0.2-0.1,0.5-0.2,0.7-0.3c1.7-0.7,3.1-2.1,3.9-3.8
		c0.3-0.8,0.6-1.7,0.8-2.6c0.1-0.4,0.2-0.8,0.3-1.2c0.3-1.1,1.3-2.6,2.3-2.7c1.6,0.1,3.1-0.5,4.3-1.5c1.1-0.8,1.2-3.3,1.2-3.5
		c0-0.1,0.4-3.3-1.4-4.7c-0.7-0.7-1.7-1-2.7-1.1c-0.3,0-0.5,0.2-0.5,0.5c0,0.2,0.1,0.4,0.3,0.4c1.3,0.5,2.1,1.8,2.1,3.1
		c0.1,1.4-1.2,3.6-2.6,3.8c-0.7,0-1.4-0.1-2.1-0.3c-0.4-0.1-0.7-0.2-1-0.2c-1-0.2-2.1,0-2.9,0.7c-0.9,1-1,2.5-0.3,3.6
		c0.8,1.5,0.8,3.3-0.2,4.8c-0.6,1.4-1.9,2.4-3.3,2.8l-0.4,0.1c-0.1,0-0.4-0.1-1.1-1.2l-0.1-0.1c-0.2-0.3-0.3-0.6-0.3-0.9l-0.9-4.5
		c0-0.2-0.3-0.4-0.5-0.4c-0.2,0-0.4,0.2-0.5,0.4l-0.9,5.9c0,0.3-0.1,0.6-0.3,0.8c-0.3,0.1-0.6,0.1-0.9,0c-1.3-0.4-2.4-1.2-3.1-2.4
		c0,0,0,0,0,0c-1.6-2.2-2.4-4.4-0.9-6.3c0.7-0.9,0.4-2.4-0.2-3.4c-0.8-1.4-2.4-1.6-3.9-1.7c-1.2-0.1-2.4-0.2-3.1-0.9
		c-1-1-0.6-2.8,0.4-3.8c0.6-0.6,1.3-1,2.1-1.3c2-0.6,4.1-0.8,6.2-0.6c7.2,0.8,11.9,1.2,16.8-0.9c0.3-0.1,0.4-0.4,0.3-0.7
		c0-0.1-0.1-0.2-0.2-0.2c-0.7-0.4-1.4-0.8-2.1-1.1c-3.4-1.9-6.9-3.8-11-3.8c-1.9,0.1-3.8,0.6-5.6,1.5c-2.8,1.4-5.9,2.1-9,1.9
		c-0.4,0-0.9,0-1.4,0c-0.5,0-0.9,0-1.3,0c-0.8-1.3-1.1-2.9-0.9-4.4c0.4-2,1-4,2-5.8c0.3-0.7,0.6-1.4,0.9-2.1
		c1.5-3.5,1.6-6.4,0.4-8.7c-0.1-0.2-0.4-0.3-0.7-0.2c-0.1,0.1-0.2,0.2-0.3,0.3c-0.3,2.1-1,4.2-2,6c-1.1,1.8-3,2.8-3.8,2.7
		c-5.6-0.6-11.2,0.6-16.1,3.4c-0.2,0.1-0.3,0.4-0.2,0.7c0.1,0.2,0.3,0.3,0.5,0.2c2.3-0.3,4.7-0.2,7,0.3c2.2,0.5,4,2.2,4.6,4.4
		c0.1,0.3,0.1,0.7,0.1,1c0,0.5,0.1,0.9,0.2,1.4c0.2,1,0.9,1.8,1.9,2.1c0.2,0,0.4,0.1,0.6,0c0.2,0,0.5,0,0.7,0.1
		c0.2,0.2,0.1,0.6-0.1,1.1c-0.1,0.2-0.1,0.3-0.1,0.5c-0.3,1.2,0.1,2.5,0.9,3.4c0.7,0.8,1.6,1.5,2.6,2.1l7.3,4.8
		c2.1,1.1,3.6,3.2,3.9,5.6c0.2,0.5,0.3,1.1,0.5,1.6c0.5,1.3,1.2,2.5,2.3,3.4c0.1,0.2,0.3,0.4,0.4,0.6c0.5,0.4,1.1,0.7,1.7,0.9
		c0.4,0.1,0.9,0.3,1.2,0.6c0.6,0.6,0.7,1.6,0.3,2.3c0,0,0,0,0,0.1c-0.7,0.8-1.5,1.6-2.4,2.2l-0.3,0.2c-0.6,0.4-1.3,0.8-1.8,1.3
		c-3.1,1.8-6.4,3.2-9.9,4.2c-4.2,1.2-8.5,1.8-12.8,1.8c0.6-1.6,1.2-3.2,1.9-4.8c1.7-3.9,3.3-8.1,6.2-11.3c-3.8,3.6-5.9,8.7-8,13.4
		c-0.3,0.8-0.6,1.7-1,2.5c-1.9-0.3-3.8-0.6-5.7-1.1l-0.5-0.2c4.1-6.1,8.2-11.1,12.3-14.5c-1.5,0.9-2.8,2-4.1,3.2
		c0-0.2-0.1-0.3-0.2-0.5c-0.1-0.1-0.2-0.2-0.4-0.3c-0.2,0-0.3,0-0.4,0.1c-0.7,0.7-1.3,1.5-1.6,2.4c-0.1,0.2,0,0.5,0.2,0.6
		c-2.4,2.7-4.7,5.5-6.7,8.5c-1.2-0.5-2.4-1.1-3.6-1.6c1.2-1.5,2.4-3,3.7-4.5c0.1,0,0.1,0,0.2-0.1c0.1,0.1,0.2,0.2,0.4,0.2
		c0,0,0,0,0,0c0.1,0,0.3-0.1,0.4-0.2c0.1-0.1,0.2-0.2,0.3-0.4c0.1,0,0.3-0.1,0.3-0.2c0.5-0.5,0.7-1.2,0.5-1.9
		c1.9-2.2,3.8-4.5,6.4-5.7c-2.6,0.9-4.7,3-6.6,5.2c0,0-0.1-0.1-0.1-0.1c-0.2-0.2-0.5-0.4-0.8-0.4c0.1-0.2,0.1-0.3,0.1-0.5
		c0-0.3-0.2-0.5-0.5-0.5c-0.2,0-0.4,0.1-0.5,0.3l-0.3,0.6c-0.3,0.4-0.7,0.8-1,1.1c-0.2,0.2-0.2,0.4-0.1,0.6l0.8,1.6
		c-1.3,1.5-2.6,3-3.8,4.5c-2.2-1-4.5-2.1-6.7-3.1c5.8-5.5,11.2-10,15.6-12.2c0,0.1,0,0.2,0.1,0.2c0.1,0.2,0.3,0.2,0.5,0.2
		c0.1,0,0.2,0.1,0.3,0.1c0.1,0,0.1,0,0.2,0l2.9-1c0.2-0.1,0.4-0.3,0.3-0.6c0-0.2-0.2-0.3-0.4-0.4c0.3-0.1,0.5-0.1,0.8-0.1
		c-0.5,0-0.9,0.1-1.4,0.1c-0.4,0-0.8,0-1.2-0.1c-0.1-0.1-0.2-0.2-0.4-0.3c-0.2,0-0.3,0-0.5,0.2l-0.9,1c-5.2,2-11.3,7-17,12.5
		c-2.1-1-4.3-2-6.4-3c-1.2-0.9-2.4-1.8-3.5-2.8l1.6-0.3c0.3-0.1,0.4-0.3,0.4-0.6c0-0.1-0.1-0.3-0.3-0.3c-3.3-1.7-6.6-3.6-9.7-5.7
		c10-1.9,28.2-6,36.1-1.4c-6.2-4.3-17.5-2.9-27.1-1.2l0,0c-0.9-1.1-1.6-2.3-2-3.7c0.1-0.1,0.2-0.3,0.1-0.4c-0.2-0.9-0.3-1.8-0.3-2.8
		c1.9-0.2,3.9-0.1,5.7,0.4c-0.1,0.9-0.1,1.8,0,2.6c0,0.2,0.2,0.4,0.4,0.4c0.1,0,0.1,0,0.2,0c0,0.2,0.2,0.3,0.4,0.4c0,0,0.1,0,0.1,0
		c0.2,0,0.3-0.1,0.4-0.2l0.4-0.5c0,0,0,0,0.1,0c0.2,0.1,0.5,0,0.6-0.3l0.9-1.8c0.1-0.2,0.1-0.4-0.1-0.5l0.2-0.7
		c0.1-0.3,0-0.5-0.3-0.6c-0.2-0.1-0.4,0-0.5,0.1l-0.2,0.2c-0.2-0.4-0.6-0.7-1.1-0.6c-0.2,0-0.5,0.1-0.7,0.3
		c-0.1,0.1-0.2,0.1-0.3,0.1c-0.3,0-0.5,0.1-0.5,0.4c-0.1,0.2-0.1,0.4-0.1,0.7c-1.8-0.7-3.8-1-5.7-0.9c0-0.7,0.1-1.4,0.3-2
		c5.3,0,10.6,0.3,15.8,1.1c-5.1-1.2-10.4-1.8-15.6-1.9c0.2-0.7,0.5-1.3,0.8-1.9c0.1-0.2,0-0.5-0.2-0.7c-0.1-0.1-0.3-0.1-0.5,0
		l1.5-3.5c4.7,0.2,9.4,0.7,14.1,1.3c-4.6-1-9.3-1.7-14-2.1c-0.1-0.3-0.4-0.4-0.6-0.3c-0.1,0-0.2,0.1-0.2,0.1l-0.1,0.1l-0.3,0
		c0.7-1.6,1.5-3.1,2.4-4.5c2.2-2.3,4.8-4.2,7.7-5.4c0.3-0.1,0.4-0.4,0.3-0.7c-0.1-0.2-0.3-0.3-0.6-0.3c-4.8,1.1-9.1,3.6-12.3,7.2
		c-1.7,0.8-3.5,1.4-5.4,1.7c-1.9,0.3-3.8,0.2-5.6-0.4l-0.9-1.6l0.9,0.3c0.3,0.1,0.5,0,0.6-0.3c0.1-0.2,0-0.4-0.1-0.5l-1.2-1.2l1.1,0
		c0.2,0,0.4-0.1,0.5-0.3c0.1-0.2,0-0.4-0.1-0.6c-3.3-3.2-5.6-7.2-6.8-11.7l2.1,0.9c0.3,0.1,0.5,0,0.7-0.3c0.1-0.2,0-0.4-0.1-0.5
		c-1.3-1.7-2.3-3.6-3.2-5.5l0.9,0.4c0.3,0.1,0.5,0,0.7-0.2c0.1-0.2,0.1-0.3,0-0.5l-1.7-2.5l4.3,0.4c0.3,0,0.5-0.2,0.5-0.5
		c0-0.2-0.1-0.4-0.3-0.5c-2.5-1-4.8-2.4-6.8-4.2l0.4,0c0.3,0,0.5-0.2,0.5-0.5c0-0.2-0.1-0.4-0.2-0.5c-4-2.5-7.6-5.6-10.9-9
		c-2.2-3.1-4-6.5-5.3-10l2.4,1c0.3,0.1,0.5,0,0.7-0.3c0.1-0.2,0-0.3-0.1-0.5c-2.3-3.4-3.9-7.3-4.7-11.3l0.5-4.5
		c0.5,0.7,1,1.3,1.6,1.9c0.2,0.2,0.5,0.2,0.7,0c0.1-0.1,0.2-0.3,0.1-0.5c-0.4-1.2-0.6-2.5-0.7-3.8c0.1-0.3,0.2-0.7,0.3-1l0.9,1.7
		c0.1,0.2,0.4,0.3,0.7,0.2c0.2-0.1,0.3-0.4,0.2-0.7c-0.3-0.6-0.4-1.3-0.2-2c0.2-0.1,0.3-0.3,0.2-0.5c0-0.1,0-0.2,0-0.2
		c0.2-0.4,0.4-0.8,0.7-1.1c1.4,2.7,3.3,5.1,5.4,7.2c0.2,0.2,0.5,0.2,0.7,0c0.1-0.1,0.2-0.3,0.1-0.4l-0.2-1.2c1.1,1.3,2.6,2.4,4.2,3
		c0.3,0.1,0.5,0,0.6-0.3c0-0.1,0-0.3,0-0.4l-1.9-4c-0.9-7.3,1-14.6,5.4-20.5c0.2-0.2,0.1-0.5-0.1-0.7c-0.2-0.1-0.4-0.1-0.6,0l-10,8
		c-0.4,0.3-1.8,1.3-2.5,0.7c-0.2-0.2-0.3-0.4-0.5-0.6c-0.3-0.5-0.7-1.1-1.4-1.2c-0.4,0-0.8,0.2-1.1,0.4c-0.1,0.1-0.2,0.2-0.4,0.2
		c-0.1,0-0.1,0-0.2,0c-1.8-5.6-3.2-11.4-4.3-17.2C426.4,130.2,425.4,125.8,425.5,121.3z M602.7,102.6c-0.1,0.1-0.2,0.2-0.3,0.2
		c0,0,0-0.1,0-0.1C602.5,102.7,602.6,102.6,602.7,102.6z M527.6,283.9c-0.1-0.2-0.4-0.2-0.6-0.1c-1.9,0.9-3.9,1.5-5.9,1.8l0.9-1.2
		c0.2-0.2,0.1-0.5-0.1-0.7c-0.2-0.1-0.4-0.1-0.5,0c-2.9,1.5-6.4,1.8-9.5,0.8c0-0.2-0.1-0.4-0.3-0.4c-0.5-0.2-1.1-0.4-1.6-0.6
		c-0.9-0.7-1.4-1.7-1.5-2.8c-0.1-1.7,0.8-2.8,2.1-4.1c1.6-1.4,3.4-2.4,5.4-3c1.1-0.3,2.1-0.7,3-1c2.6-1,5.3-1.6,8-1.8
		c2.6-0.1,5,1.5,7.4,3c0.5,0.3,1,0.6,1.5,0.9c2.9,1.8,5.9,3.6,9.2,4.1c0.9,0.1,1.8,0.2,2.7,0.3c-1.1,1.5-2.5,2.9-4.1,3.9h0
		c-5.3,2.7-11.4,3.7-17.3,2.9l1.3-1.2C527.7,284.4,527.8,284.1,527.6,283.9z M478.6,295.5c3.4-6.8,6.9-13.4,10.6-19.2
		c2.2,0.9,4.4,2,6.5,3.1c-1.5,4.2-2.9,8.5-4.2,12.8c-0.2,0.7-0.4,1.3-0.6,2v0C487,295.7,482.7,296.1,478.6,295.5z M476.7,293.6
		c-0.1-0.2-0.2-0.3-0.3-0.3c-1.7-0.5-3.4-1-5.1-1.5c3.3-4.7,6.7-9.4,10.2-14.1c0.7-0.9,1.4-1.9,2.2-2.9c0.7,0,1.4,0.1,2.1,0.1
		c0.8,0.3,1.7,0.6,2.5,0.9c-4,6.3-7.5,13.3-10.5,19.4c-0.9-0.2-1.7-0.4-2.6-0.7v0l1.2-0.4C476.6,294.2,476.8,293.9,476.7,293.6z
		 M442.3,276c-3.4-1.4-6.9-2.3-10.6-2.7l1.5-0.7c0.3-0.1,0.4-0.4,0.2-0.7c-0.1-0.1-0.2-0.2-0.3-0.3l-2.7-1c3.1-1.1,6.4-1.5,9.6-1.3
		l-2.2,1.2c-0.2,0.1-0.3,0.4-0.2,0.7c0.1,0.2,0.3,0.3,0.5,0.2c9-1.9,18.3-1.5,27.1,1.1l-3.3,2.2c-0.2,0.2-0.3,0.5-0.1,0.7
		c0.1,0.2,0.3,0.2,0.5,0.2c2.7-0.4,5.5-0.7,8.3-0.8c-3.3,3.6-6.2,6.9-8.3,9.1c-1.1,1.2-2.1,2.4-3.2,3.6c-2.4-0.9-4.7-1.8-7.1-2.7
		l7.1-0.7c0.3,0,0.5-0.3,0.4-0.5c0-0.2-0.2-0.4-0.4-0.4l-18.3-5.4l1.4-1c0.1-0.1,0.2-0.3,0.2-0.5C442.6,276.2,442.5,276,442.3,276z
		 M436.3,230.7c-0.8-0.7-1.5-1.6-2-2.6l0.6,0.4c0.2,0.1,0.5,0.1,0.7-0.2c0.1-0.1,0.1-0.3,0-0.5c-2.8-5.6-4.5-11.7-5.1-18
		c0-2.1,0-4.2-0.2-6.4l0.1-0.2c0-0.1,0.1-0.2,0.1-0.4c0.2-0.4,0.4-0.8,0.7-1.2c0.6-0.5,1.4-0.7,2.2-0.6c0.9,0.2,1.7,0.5,2.5,0.9
		c0.3,0.1,0.5,0,0.7-0.2c0-0.1,0.1-0.2,0-0.3c-0.2-0.9-0.6-1.7-1.1-2.5c0.6,0.2,1.3,0.5,1.8,0.8c4,5,6.6,10.9,7.6,17.2
		c0.1,0.4,0.1,0.9,0.2,1.3c0.1,0.9,0.3,1.7,0.4,2.6c-0.1,0.1-0.1,0.3-0.1,0.4c0.9,3.8,2.1,7.5,3.7,11c0.3,0.6,0.6,1.1,0.9,1.7
		c-4.5,0.2-8.9,0.5-13.4,0.9c-1.1-1.1-2-2.5-2.6-4h0h0l1.5,0.6c0.3,0.1,0.5,0,0.7-0.3C436.5,231,436.5,230.8,436.3,230.7z
		 M450.8,234.9c1.6,2.5,3.7,4.6,6.2,6.1c0.2,0.1,0.5,0.2,0.7,0.4c-3.6,0.3-7.2,0.7-10.7,1.2c-1.1-0.9-2.3-1.7-3.4-2.5h0
		c-2.1-1.3-4-2.8-5.8-4.4C442,235.4,446.4,235.1,450.8,234.9z M450.2,245.7c-0.7-0.9-1.5-1.7-2.3-2.4c3.8-0.5,7.6-0.9,11.4-1.2
		c0.7,0.3,1.3,0.7,1.9,1.1c0.3,0.2,0.6,0.5,0.9,0.8C458.1,244.4,454.1,245,450.2,245.7z M462.7,244.8c0.3,0.4,0.6,0.7,0.9,1.1
		l4.8,5.6c-3.3,0.6-6.4,1.3-8.9,1.7c-2.8-1.9-5.6-4-8.5-6.3l0,0c-0.1-0.1-0.2-0.2-0.2-0.4C454.8,245.8,458.7,245.3,462.7,244.8z
		 M442.4,244.7l2.6,2h0c-0.2,0-0.4,0.1-0.6,0.1c-1.4-0.3-2.9-0.6-4.3-0.8c-0.3-0.1-0.5,0.1-0.6,0.4c0,0.1,0,0.3,0.1,0.4
		c0.2,0.3,0.5,0.6,0.7,0.9c-1.5,0.3-3.1,0.6-4.6,0.9l-0.7-0.3c-0.1,0-0.2,0-0.3,0c-1.5-0.5-2.9-1.2-4.3-1.9c3.6-0.7,7.2-1.4,10.9-2
		C441.6,244.5,442,244.6,442.4,244.7z M444.2,252.2l-0.7-0.3c-2-1.1-4.2-2.1-6.4-2.8l-0.1,0c1.2-0.3,2.5-0.5,3.7-0.8
		C441.9,249.7,443,251,444.2,252.2z M458.9,308.4L458.9,308.4c-0.6,0.9-1.2,1.8-1.8,2.7c-4.4-1.9-9-3.1-13.7-3.5
		c0.7-0.9,1.5-1.8,2.3-2.8C450,306.4,454.4,307.6,458.9,308.4z M459.7,308.6c0.5,0.1,0.9,0.2,1.4,0.2l-1.8,1.6
		c-0.2,0.2-0.2,0.5,0,0.7c0.1,0.1,0.2,0.2,0.3,0.2c1.8,0.2,3.7,0.3,5.5,0.3c1.7,0,3.4-0.1,5.1-0.3c-1,2.3-2.1,4.5-3.1,6.8
		c-0.1-0.1-0.2-0.3-0.3-0.3c-2.5-2.7-5.6-4.9-9-6.4L459.7,308.6z M460,287.9c3.9-4.4,7.9-8.9,11.9-13.1c3.6-0.2,7.2-0.2,10.8,0
		c-1.4,1.9-2.9,3.8-4.3,5.7c-2.7,3.7-5.3,7.3-7.9,11C467,290.4,463.5,289.2,460,287.9z M429.9,242.8c0.3,0.1,0.5-0.1,0.6-0.3
		c0-0.1,0-0.3,0-0.4c-0.6-1.3-1.2-2.5-1.8-3.7c1.4,1.6,2.9,2.9,4.6,4.2v0c0.2,0.2,0.5,0.1,0.7-0.1c0.1-0.2,0.1-0.5-0.1-0.6
		c-1-1-1.9-2.1-2.6-3.3c2.1,1.7,4.3,3.2,6.6,4.4c0.6,0.3,1.1,0.5,1.7,0.8c-3.5,0.6-7,1.3-10.5,1.9l-0.1,0c-2.1-1.1-3.8-2.7-5.1-4.7
		L429.9,242.8z M387.4,255.1c2.4-1.9,5.1-3.4,8-4.5c1.1-0.2,2.2-0.4,3.3-0.6c-1.7,1-3.3,2.1-4.7,3.5
		C391.8,254,389.6,254.5,387.4,255.1L387.4,255.1z M385.8,256.4c2.7-0.7,5.3-1.3,8-1.9c0.1,0.1,0.3,0.1,0.4,0.1
		c0.8-0.3,1.7-0.5,2.6-0.8c1.1-0.3,2.2-0.5,3.3-0.8c1.8-0.3,3.5-0.6,5.3-0.8l-3.7,2.5c-0.2,0.2-0.3,0.5-0.1,0.7
		c0.1,0.2,0.3,0.3,0.5,0.2c1.7-0.4,3.5-0.6,5.2-0.7c-1.9,0.5-3.7,1-5.6,1.5c-1.4,0.4-3,0.8-4.2,1.2c1.5-0.3,3-0.6,4.4-0.9
		c2.6-0.5,5.2-1.1,7.7-1.6c1.8,0.2,3.6,0.5,5.3,1.1l-16.4,6.9c-0.2,0.1-0.3,0.2-0.3,0.4c0,0.2,0,0.3,0.1,0.5l1.3,1.3l-8,6.6
		c0,0,0,0,0,0c-1.3,0.5-2.7,0.9-4,1.4c-5.3,1.8-10.6,3.9-15.8,6.1c0.9-2.9,2-5.8,3.3-8.6C377.8,265.1,381.4,260.3,385.8,256.4z
		 M235.1,334.2h-2.2l3.3-2.6L235.1,334.2z M231.6,334.2C231.5,334.2,231.6,334.2,231.6,334.2l-7.7,0.1c0.6-0.6,1.1-1.2,1.7-1.7
		c4.9-4.8,10.1-9.3,15.6-13.3c0.1,0,0.2-0.1,0.3-0.1C236.8,323.1,233.4,328.3,231.6,334.2z M276.1,334.2h-34.7
		c2.4-7.9,6.1-13.1,11.1-15.5h0l1-0.4c0.3-0.1,0.4-0.4,0.3-0.7c-0.1-0.3-0.4-0.4-0.7-0.3c-0.3,0.1-0.7,0.3-1,0.5l-3.7,1.7
		c6.7-7.1,14.9-12.7,24-16.2c0.2-0.1,0.3-0.3,0.3-0.5c3.5-1.1,6.5-2.1,8.5-2.9c-0.9,1.2-2.1,3-3.9,5.8c-0.7,1.1-1.3,2.1-1.5,2.3
		c-0.2,0.2-0.2,0.5,0,0.7c0.1,0.1,0.2,0.1,0.4,0.1c0.5-0.1,1.2-0.1,1.8-0.2c0.3,0,0.6,0,0.9-0.1l-1.3,2.4c-0.1,0.2-0.1,0.4,0,0.5
		c0.1,0.2,0.3,0.2,0.5,0.2l4.1-0.7c-1,4.5-2.8,8.8-5.2,12.7c-0.1,0.2-0.1,0.5,0.2,0.7c0.1,0.1,0.3,0.1,0.4,0l4.8-1.7
		C279.9,326.3,277.7,330.1,276.1,334.2z M377.7,334.2c-1.2-6.2-2.1-13.8-3-23.9c0-0.3-0.3-0.5-0.5-0.5c-0.2,0-0.4,0.2-0.4,0.4
		c-2.3,7.8-3.4,15.9-3.5,24h-84.1l13.5-20.2c0-0.1,0.1-0.1,0.1-0.2c0.1-0.2,0-0.5-0.2-0.7c-0.2-0.1-0.5,0-0.7,0.2l0,0
		c-0.1,0-0.1,0-0.2-0.1c-0.1,0-0.1-0.1-0.2-0.2c-0.1-0.4,0.2-0.8,0.5-1.2c7.2-9.5,15.1-18.4,23.6-26.8c-1.3,2.9-2.1,6-2.5,9.2
		c0,0.3,0.2,0.5,0.4,0.5c0.2,0,0.4-0.1,0.5-0.2l1.8-3c-1.3,5.5-1.6,11.1-0.7,16.7c0,0.2,0.2,0.4,0.5,0.4h0c0.2,0,0.4-0.2,0.5-0.4
		c4.3-16.5,13.4-31.4,26.2-42.7c0.2-0.2,0.3-0.5,0.1-0.7c-0.2-0.2-0.5-0.3-0.7-0.1l-0.5,0.3c1.1-1.4,2.3-2.8,3.5-4.1
		c13-8.9,25.3-16.3,31-15c-5.2,2.2-9.7,5.8-12.9,10.5c-1.3,1.2-2.5,2.6-3.5,4.1c-1.2,0.4-2.3,0.7-3.4,1.1c1.1-0.2,2.1-0.5,3.2-0.7
		c0,0,0,0.1-0.1,0.1c-0.2,0.2-0.1,0.5,0.1,0.7c0.1,0.1,0.3,0.1,0.4,0.1l3.5-1.2c-4.1,3-7.7,6.6-10.6,10.7c-0.2,0.2-0.1,0.5,0.1,0.7
		c0.1,0.1,0.3,0.1,0.5,0l6.8-3.2l-3.2,2.8c-0.2,0.2-0.2,0.5,0,0.7c0.1,0.1,0.2,0.2,0.3,0.2c1.1,0.1,2.2,0,3.2-0.3
		c-4.1,3.2-7.6,7-10.4,11.4c-0.1,0.2-0.1,0.4,0,0.5c0.1,0.2,0.3,0.3,0.5,0.2l3.5-0.4c-1.7,1.8-2.9,4-3.5,6.4
		c-0.1,0.3,0.1,0.5,0.4,0.6c0,0,0.1,0,0.1,0l2.9,0c-2.1,5.9-2.8,12.2-2.1,18.4l1.4,20.5c0,0.2,0.2,0.4,0.4,0.5c0,0,0,0,0.1,0
		c0.2,0,0.4-0.1,0.5-0.3c3.4-8.9,4.8-18.4,6.1-27.7l0.3-2.4c0.9-7,2.3-14,4.3-20.8c5.2-1.8,10.3-3.5,15.5-5.2c1.5-0.5,2.9-1,4.4-1.5
		c0.1,0.1,0.3,0.1,0.5,0.1c6.5-2.6,13.7-2.7,20.2-0.3c-0.8,1.2-2,2.2-3.4,2.6c-0.3,0.1-0.4,0.4-0.3,0.6c0,0.1,0.1,0.2,0.2,0.3
		l8.5,4.5c-0.2,0.2-0.4,0.3-0.6,0.2c-0.3,0-0.5,0.2-0.5,0.5c0,0.3,0.2,0.5,0.4,0.5c6.2,0.8,10.6,5.5,15.3,10.5
		c3.6,3.9,7.4,7.9,12.1,9.9l-2.6,0c-0.3,0-0.5,0.2-0.5,0.5c0,0.2,0.1,0.4,0.3,0.4c1.2,0.5,2.4,1.1,3.6,1.5c-0.8,1-1.7,2-2.5,3.1
		c-0.8,0-1.6,0-2.3,0c-4.3-0.8-11.3-1.8-14.7-2c-6.8-0.4-18.7,1.2-26.2,6.1c-8.4,5.4-12.2,14.8-12.5,22.7L377.7,334.2z M456.2,331.1
		c1.3,2.8,1.8,6,1.5,9.1c-0.1,0.3-0.3,0.7-0.4,1h0.3c0,0.3-0.1,0.6-0.1,1c-0.7,4.8-4.5,8.5-9.2,9.2l0,0c0-0.4-0.1-0.8-0.3-1.1
		c-0.2-0.9-0.8-1.6-1.6-2c-2.1-0.8-2.4,1.7-2.5,3.1c-1.3-0.1-2.5-0.4-3.7-0.8c-1.3-0.5-3.8-3.3-4.5-5.1c-1.2-2.6-1.9-5.4-1.9-8.3
		c0.1-1.5,0.4-3.9,0.2-3.6c-0.5,0.5-2.5,6-1.3,12.2c0,0.3,1.4,6.1-2.5,7.9c-0.5-0.3-1-0.6-1.5-0.9c-0.7-0.6-1.3-1.2-2.1-1.7
		c-0.8-0.6-2.2-0.4-2.3,0.6c0.3,1,0.9,1.8,1.7,2.5c-1.6-0.3-2.2-1.2-2.9-2.4l0-0.1c-0.2-0.4-0.2-0.4-0.7-1.3c-1-1.9-1.7-3.9-2.2-5.9
		c-1-4.4-1.5-8.9-1.3-13.4c0-0.2-0.3-0.3-0.4-0.1c-1.2,3.8-1.8,7.8-1.7,11.8c0,0.6,0,1.2,0.2,1.8c0.2,1.8,1.9,4.2,1.6,6.7
		c-0.5,1.6-1.8,2.8-3.5,3.1c-0.1-0.1-0.3-0.3-0.4-0.4c-0.8-1-1.7-1.8-2.8-2.4c-1.2-0.5-2.3,0.5-1.7,1.5c0.1,0.1,0.1,0.2,0.2,0.3
		c-2.3-1.1-4.2-3.1-5.2-5.5c-0.2-0.5-0.3-1-0.5-1.6c-0.1-0.3-0.4-1.5-0.4-1.6c0-0.1,0-0.2,0-0.2c-0.5-2.5-0.8-5.1-0.8-7.6
		c-0.1-1.3,0-2.5,0.2-3.8c0-0.2-0.2-0.2-0.3-0.1c-0.7,1.6-1.2,3.3-1.5,5c-0.6,3-0.6,6.2,0,9.2c-0.1,0.1-0.1,0.2-0.2,0.3
		c-1.5,2.8-7.5,1.8-9.7-2.7c-1.1-3.2-1.6-6.5-1.5-9.9c0.3-6.4,2.9-15.5,11.1-21.2c2-1.7,4.3-3,6.8-3.8c2.1-0.5,4.3-0.9,6.4-1
		c-4.3,2.2-5.8,8-5.8,8s3.9-4,5.8-5.1c3.8-2.2,6.9-3.9,14.8-3.4c2.2,0.3,5.9,0.9,5.4,1.1c-4.1,1.2-5.1,2-6.5,3.1
		c-1.3,0.9-2.3,2.2-2.8,3.7c2.6-1.9,5.6-3.3,8.7-4.1c1.8-0.4,3.5-0.8,5.3-1c-1.4,1.7-2.7,3.4-4,5.1c-1.3,1.7-2.9,3.8-4,5.4
		c1.5-1.7,3-3.4,4.4-5.1c1.3-1.4,2.9-3.3,4.7-5.5c2.6-0.3,5.2-0.2,7.8,0.3c2.5,0.5,4.9,1.2,7.3,2.1c-1.7,2.6-3.4,5.3-5,7.9
		c-0.9,1.5-2,3.3-2.7,4.5c1-1.5,2-2.9,3-4.4c1.8-2.6,3.6-5.2,5.3-7.8c1.5,0.6,2.9,1.3,4.3,2.1c0.4,0.3,1.2,0.7,2,1.3
		c1.2,1.3,2.2,2.6,3.2,4c-1.6,3.7-3.3,7.5-4.8,11.2c-1.3-0.4-2.6-0.9-3.8-1.6c0,0-1.9-1.1-1.7-0.8
		C455.7,330.1,455.9,330.6,456.2,331.1z M464.3,332.4c-0.8,0.1-1.6,0.1-2.4-0.1c1.4-3.3,2.9-6.8,4.5-10.5
		C471.2,329.8,466,332.6,464.3,332.4z M469.3,334.2c0.5-0.4,1-0.9,1.4-1.5c3.4-4-0.9-10.9-3-13.9h0c1.1-2.5,2.3-5.1,3.5-7.8
		c5.7-0.8,11.2-2.5,16.2-5.2c-2.8,9.4-5.5,18.8-7.9,28.3H469.3z M558.8,329.4l-0.8-2.1c-0.1-0.2-0.3-0.3-0.5-0.3
		c-0.2,0-0.4,0.2-0.5,0.4l-1,4.3l-1.6-3.3c-0.1-0.2-0.3-0.3-0.5-0.3c-0.2,0-0.4,0.2-0.4,0.4c-0.3,2-1,3.9-2,5.6h-0.6
		c-0.1-2.2-0.4-4.3-0.9-6.5c-0.1-0.2-0.2-0.3-0.4-0.4c-0.2,0-0.4,0.1-0.5,0.2c-1.5,2.4-3.2,4.6-5.3,6.6h-63.5
		c2.7-9.6,5.4-19.3,8.2-28.8c3.3-1.8,6.3-4.1,9-6.6c0.2-0.2,0.2-0.5,0-0.7c-0.1-0.1-0.2-0.2-0.4-0.2l-5.2-0.1
		c2.1-1.4,3.8-3.4,4.9-5.7c0.1-0.3,0-0.5-0.2-0.7c-0.2-0.1-0.4-0.1-0.5,0c-1.3,0.9-2.7,1.7-4.2,2.3c0.4-1.3,0.8-2.7,1.3-4
		c1.1-3.4,2.2-6.7,3.3-10.1c0.9,0.4,1.7,0.9,2.5,1.3c2.9,1.5,6,3.1,9,4.5c6,2.8,12.6,4.3,19.2,4.5c0.7,0,1.5,0,2.2-0.1
		c3-0.2,5.9-0.8,8.7-1.8c0,0,0.1,0,0.1,0c0.2,0,0.4,0,0.6-0.1c4-0.9,7.7-2.4,11.1-4.7c0.6-0.4,1.2-0.9,1.9-1.3
		c1.2-0.9,2.4-1.6,3.6-2.3c1.8-1,3.8-1.8,5.8-2.2c1-0.2,2-0.4,2.9-0.6c0.5,1.8,0.9,3.5,1.3,5.3c0.1,0.6,0.2,1.2,0.3,1.7
		c-0.2,0.3-0.4,0.6-0.6,0.8c-2.4,1.3-5.3,1.6-7.9,0.8c-0.2-0.1-0.3,0-0.5,0.1c-0.1,0.1-0.2,0.2-0.2,0.4c0,0.9,0.4,1.7,1.1,2.3
		l-5.5,0.5c-0.3,0-0.5,0.3-0.5,0.5c0,0.1,0,0.2,0.1,0.2l1.1,1.9l-5.6-1.2c-1.6-0.3-2.5-0.4-3.2-0.5c-0.4,0-0.7-0.1-1.1-0.2
		c-0.3-0.1-0.5,0.1-0.6,0.4c-0.1,0.2,0,0.4,0.2,0.5c0.8,0.6,1.7,1.1,2.5,1.7c0.3,1.1,0.7,2.1,1.4,2.9c-2.4,1.6-5.4,1.7-8,0.4
		c-0.2-0.1-0.5,0-0.7,0.2c-0.1,0.1-0.1,0.2,0,0.4l0.5,1.8c-1.5-0.5-2.8-1.4-3.9-2.5c-0.2-0.2-0.5-0.2-0.7,0
		c-0.2,0.2-0.2,0.4-0.1,0.6c4,6,9.9,10.4,16.8,12.6c0,0,0.1,0,0.1,0c0.3,0,0.5-0.2,0.5-0.5c0-0.1-0.1-0.3-0.2-0.4l-3.3-3.2
		c4,1.3,8.1,2.2,12.2,2.7c0.7,1.4,1.2,2.9,1.6,4.5c0,1,0,2,0.1,3C561.2,319.7,560.3,324.7,558.8,329.4z M566.3,331.6
		c0.6,1,1.4,1.9,2.4,2.6l-3.6,0c0.2-8.4-0.2-16.7-1.3-25c0,0,0-0.1,0-0.1c-0.6-6.3,0.4-12.6,2.7-18.5c1.1,9.7,1.6,19.8,2.3,29.6
		c0,0.1,0,0.2,0,0.3C566.5,323.8,564.1,328.3,566.3,331.6z M567.2,288.9c1-2.1,2.2-4.1,3.6-5.9c0.2-0.2,0.4-0.5,0.6-0.7
		c0.3-0.4,0.6-0.8,0.9-1.2c2.3,7.8,3.9,15.9,5.4,22.9c-0.4,3.3-0.9,6.5-1.5,9.8c-1.5,0.8-2.9,1.8-4.1,2.9l0,0
		c-1.1,1.1-2.1,2.2-3.1,3.4C569.1,309.7,568.5,299.3,567.2,288.9z M572.8,332c-2.1-0.1-8.3-4.7,3-15c-0.4,2.3-0.8,4.6-1.2,7
		c-0.5,2.7-1,5.4-1.5,8C573,332,572.9,332,572.8,332z M647.4,343.1c-0.3,3.4-1.3,6.8-2.8,9.9c-2.8,4.3-9.1,4.6-10.2,1.6v0
		c0-0.1-0.1-0.2-0.1-0.4c1-3,1.4-6.2,1.2-9.4c0-1.8-0.3-3.6-0.8-5.3c-0.1-0.2-0.3-0.1-0.3,0c0,1.3-0.1,2.6-0.3,3.9
		c-0.4,2.6-1,5.2-1.8,7.7l-0.1,0.2c0,0.1-0.5,1.3-0.6,1.6c-0.2,0.5-0.5,1-0.7,1.5c-1.3,2.3-3.5,4.1-6,5c0.1-0.1,0.1-0.2,0.2-0.3
		c0.8-0.9-0.2-2.1-1.5-1.7c-1.2,0.5-2.2,1.3-3.1,2.2c-0.1,0.1-0.3,0.2-0.5,0.4c-1.6-0.5-2.8-1.9-3.1-3.6c0-2.5,2-4.8,2.5-6.6
		c0.2-0.6,0.4-1.2,0.4-1.8c0.7-4.1,0.6-8.2-0.1-12.3c0-0.2-0.4-0.2-0.4,0c-0.4,4.6-1.5,9.2-3.1,13.5c-0.8,2-1.8,4-3,5.8
		c-0.6,0.9-0.6,0.9-0.9,1.3l0,0.1c-0.9,1.2-1.6,2-3.2,2.1c0.9-0.6,1.6-1.4,2-2.3c0.1-1.1-1.3-1.5-2.2-0.9c-0.8,0.5-1.6,0.9-2.3,1.5
		c-0.6,0.3-1.1,0.6-1.6,0.8c-3.7-2.3-1.6-8.1-1.5-8.4c2-6.2,0.6-12.1,0.2-12.6c-0.2-0.3-0.2,2.2-0.3,3.8c-0.4,2.9-1.4,5.8-3,8.3
		c-1,1.8-3.9,4.3-5.3,4.7c-1.3,0.3-2.6,0.5-3.9,0.4c0-1.4,0.1-4-2.1-3.5c-0.9,0.3-1.5,1-1.9,1.9c-0.2,0.4-0.3,0.7-0.4,1.1
		c-4.8-1.3-8.1-5.6-8.1-10.5c-0.2-3.9,0.7-7.8,2.8-11.1c0.3-0.5,0.6-0.9,0.9-1.3c0.3-0.3-1.8,0.6-1.8,0.6c-2,1-4.3,1.4-6.5,1.3
		c0.8-3.5,1.5-7,2.1-10.6c0.3-1.8,0.6-3.6,0.9-5.4c0.7-0.4,1.4-0.7,1.8-0.9c0.4-0.2,0.8-0.3,1.2-0.5c1.6,8.7,3,17.4,4.3,26.1h0.8
		c-1.3-8.8-2.8-17.6-4.3-26.4c3.5-1.3,7.2-2.1,11-2.4c2.8-0.2,5.7,0.1,8.4,0.8l0,0c1,1.7,2.1,3.7,3,5.2c-0.8-1.7-1.7-3.4-2.6-5.1
		c1.8,0.4,3.7,1,5.4,1.7c3,1.2,5.8,3,8.2,5.3c-0.3-1.6-1.2-3-2.4-4.1c-1.3-1.3-2.2-2.3-6.2-4c-0.4-0.2,3.3-0.5,5.6-0.5
		c8,0.4,11,2.6,14.5,5.2c1.8,1.3,5.2,5.9,5.2,5.9s-0.8-6.1-4.9-8.8c2.2,0.4,4.3,1,6.4,1.8c2.4,1.1,4.6,2.7,6.4,4.6
		C646.4,326.9,647.9,336.5,647.4,343.1z"/>
</g>
</svg>
