<svg id="bd458053-4f3c-477a-8921-ac8113c90290" data-name="Layer 2" xmlns="http://www.w3.org/2000/svg" viewBox="0 0 752.871 478.768" style="fill: #215342;" height="262" width="315" transform="translate(10, -1)"><path d="M431.031,176.588a.492.492,0,0,0-.111.416,38.425,38.425,0,0,1-4.067,25.468c-.5.917-.514,1.62-.039,2.091.453.448,1.128.451,2,.013l6.625-3.318-1.432,4.5a.485.485,0,0,0,.051.376,4.014,4.014,0,0,0-.217,1.006c-.1,1.462.624,2.99,2.155,4.544a17.79,17.79,0,0,0,5.708,3.869l.574.236a5.891,5.891,0,0,1,2.91,1.873,5.643,5.643,0,0,1,.575,1.426,10.716,10.716,0,0,0,.365,1.057,10.031,10.031,0,0,0,3.035,3.528,10.111,10.111,0,0,1,2.755,3.024c.023.049.041.1.063.152a7.2,7.2,0,0,1-1.564,4.545,15.888,15.888,0,0,1-5.257,4.051c-6.884,3.692-16.283,8.756-25.309,8.144a.491.491,0,0,0-.493.3.5.5,0,0,0,.123.566,6.475,6.475,0,0,0,4.358,1.171c.755,0,1.512-.045,2.214-.087.33-.02.644-.038.933-.051,5.861-.243,10.936-2.412,16.309-4.709,1.647-.7,3.35-1.432,5.063-2.092l.691-.269a18.329,18.329,0,0,1,5.515-1.524c2.767-.157,5.483,1.015,8.1,2.146.438.19.877.379,1.313.562l1.417.6c4.29,1.821,8.727,3.705,14.518,4.041a53.925,53.925,0,0,0,8.237-.047.567.567,0,0,0,.42-.523c0-.477-.006-.765-7.113-2.3-13.39-2.889-21.108-7.457-23.318-9.468a7.546,7.546,0,0,1-2.571-5.711,5.619,5.619,0,0,1,1.006-2.222,10.693,10.693,0,0,1,1.473-1.456,6.408,6.408,0,0,0,2.32-3.032,7,7,0,0,0,.171-1.128,2.99,2.99,0,0,1,.385-1.491,3.235,3.235,0,0,1,2-.877l.181-.037a16.3,16.3,0,0,0,9.884-6.536,4.118,4.118,0,0,0,.922-2.53,2.63,2.63,0,0,0-.18-.782.5.5,0,0,0,.093-.43,3.309,3.309,0,0,1,.621-3.143,2,2,0,0,1,1.573-.516,1.386,1.386,0,0,1,1.031.585.5.5,0,0,0,.921-.254c.078-2.862-1.139-5.5-2.316-8.054-.169-.366-.337-.731-.5-1.095-1.112-2.473-2.25-5.655-1.294-8.493a5.978,5.978,0,0,1,4.439.565.5.5,0,0,0,.669-.7,62.069,62.069,0,0,0-7.475-9.62.5.5,0,0,0-.839.194l-1.3,4.122a14.711,14.711,0,0,1-4.751-16.646.5.5,0,0,0-.825-.53,25.114,25.114,0,0,0-5.6,9.159l-.519-.614a.5.5,0,0,0-.882.34,4.393,4.393,0,0,1-1.131,3.075.483.483,0,0,0-.1.175l-.914,2.673a6.538,6.538,0,0,1-4.683-3.224,19.659,19.659,0,0,1-2.12-6.2.5.5,0,0,0-.462-.391.494.494,0,0,0-.5.34l-.364,1.08-.451-1.32a.517.517,0,0,0-.056-.113l-1.468-2.225a.5.5,0,0,0-.917.277,25.522,25.522,0,0,1-3.231,12.519,6.063,6.063,0,0,1-1.631,2.055,2.161,2.161,0,0,1-2.175.287,3.605,3.605,0,0,1-1.175-1.36c-.106-.172-.214-.343-.325-.508a4.144,4.144,0,0,0-3.642-1.7A.541.541,0,0,0,431.031,176.588Zm32.632,26.27a1.75,1.75,0,0,1,.846.68,1.184,1.184,0,0,1,.042.993,2.118,2.118,0,0,1-1.177,1.2c-.313.121-1.045.4-.959,1,.083.573.791.746,1.906.839,1.195.1,2.858.8,2.814,2.029-.034.988-1.2,1.655-2.266,1.706a9.39,9.39,0,0,1-2.123-.239,14.144,14.144,0,0,0-1.637-.245c-1.352-.1-3.145.324-3.77,1.828a4.413,4.413,0,0,0,.257,3.168,3.965,3.965,0,0,1,.323,2.412,1.6,1.6,0,0,1-3.057-.076l-.039-.149a1.489,1.489,0,0,0-.513-.928,1.039,1.039,0,0,0-.8-.177,1.432,1.432,0,0,0-.914.6,3.033,3.033,0,0,0-.368.841c-.036.116-.072.231-.117.344a2.015,2.015,0,0,1-3.87-.988,4.525,4.525,0,0,1,.414-1.255,7.52,7.52,0,0,0,.4-1.071,4,4,0,0,0-4.37-4.991,7.406,7.406,0,0,0-1.993.641c-.3.128-.6.257-.9.363-.364.126-1.6.487-2.312-.16a1.75,1.75,0,0,1-.1-2.167,3.863,3.863,0,0,1,2.244-1.427c4.816-1.4,6.125-1.231,6.168-1.228a.5.5,0,0,0,.261-.961,27.505,27.505,0,0,0-7.9-1.04,11.593,11.593,0,0,1,4.334-2.029c.448-.046.9-.081,1.349-.095a38.11,38.11,0,0,1,5.587.391c1.4.167,2.854.34,4.3.391,1.478.053,2.963-.022,4.4-.095C461.294,202.908,462.482,202.85,463.663,202.858Z"/><path d="M424.765,209.648a3.408,3.408,0,0,1-.176-.6.5.5,0,0,0-.68-.356l-3.038,1.269a.5.5,0,0,0-.295.573.5.5,0,0,0,.514.388l.032,0a.5.5,0,0,0,.382.813l1.283.019a.5.5,0,0,0,.085.637.494.494,0,0,0,.337.131.5.5,0,0,0,.36-.154,1.142,1.142,0,0,0,.08-.09l1.584-1.82a.482.482,0,0,0,0-.6A.527.527,0,0,0,424.765,209.648Z"/><path d="M473.2,222.569a.5.5,0,0,0,.207.582.507.507,0,0,0,.267.077.5.5,0,0,0,.347-.141,15.134,15.134,0,0,1,1.7-1.423l.036-.008a4.569,4.569,0,0,1,1.206-.066.5.5,0,0,0,.454.219l.91-.069a.5.5,0,0,0,.462-.481c0-.015,0-.029,0-.044a16.185,16.185,0,0,1,4.708-1.143.5.5,0,0,0,.442-.377,8.173,8.173,0,0,1,3.084.314.5.5,0,0,0,.606-.67.312.312,0,0,0-.018-.042h0a.5.5,0,0,0,.384-.821,10.314,10.314,0,0,0-2.884-2.381c-.148-.3-.525-.276-.661-.268a.5.5,0,0,0-.365.188l-.015.005c-.305.093-.719.22-1.123.375a.5.5,0,0,0-.311.368,14.928,14.928,0,0,0-2.416.858.5.5,0,0,0-.147.807,16.629,16.629,0,0,0-4.781,2.311A3,3,0,0,0,473.2,222.569Z"/><path d="M480.853,211.442a3.8,3.8,0,0,0,1.373.482,3.152,3.152,0,0,0,.38.31.5.5,0,0,0,.274.919.507.507,0,0,0,.066,0,4.76,4.76,0,0,0,2.983-1.643.5.5,0,0,0-.288-.812L485,210.57l.682-.235a.5.5,0,0,0-.035-.956,5.3,5.3,0,0,0-4.909,1.258.5.5,0,0,0,.112.805Z"/><path d="M474.737,173.794a30.863,30.863,0,0,0,12.707,6.393,20.577,20.577,0,0,0,4.175.434,17.967,17.967,0,0,0,6.546-1.193,23.933,23.933,0,0,0,5.883-3.165,17.543,17.543,0,0,0,5.82-5.873c1.2-2.284,1.615-5.108,1.31-8.888l-.047-.554a11.474,11.474,0,0,1,.075-3.731,3.36,3.36,0,0,1,2.508-2.634.5.5,0,0,0,.181-.933l-4.966-2.747a58.4,58.4,0,0,0-9.531-4.541,19.667,19.667,0,0,0-10.586-.862c-5.246,1.175-10.007,5.443-12.423,11.136-1.982,4.672-2.584,10.174-1.839,16.822A.5.5,0,0,0,474.737,173.794Zm2.394-6.114A17.046,17.046,0,0,1,484.4,152.6c.225-.152.458-.291.691-.43a7.973,7.973,0,0,1,1-.381.5.5,0,0,0,.333-.051,4.03,4.03,0,0,1,2.006-.678,1.3,1.3,0,0,1,.892.438.679.679,0,0,1,.179.51c-.061.5-.706.834-1.331,1.153l-.255.131a8,8,0,0,0-3.838,4.93,12.144,12.144,0,0,0,.019,6.209,12.85,12.85,0,0,0,6.4,8.547,6.9,6.9,0,0,0,3.026.77,4.378,4.378,0,0,0,2.123-.514l.229-.122c1.553-.814,4.447-2.329,5.9-12.719a5.118,5.118,0,0,0-1.253-4.159,4.982,4.982,0,0,0-2.165-2.523,15.936,15.936,0,0,0-1.7-.853,10.154,10.154,0,0,1-2.185-1.2c-.292-.23-.465-.5-.411-.638.043-.112.244-.213.595-.3a17.411,17.411,0,0,1,2.777-.458,15.658,15.658,0,0,1,3.681,1.292,13.121,13.121,0,0,1,6.6,7.084,12.615,12.615,0,0,1,.6,5.263,15.6,15.6,0,0,1-18.386,14.041.5.5,0,0,0-.558.312.492.492,0,0,0-.028.113,14.652,14.652,0,0,1-6.976-2.6C480.9,174.7,477.462,171.767,477.131,167.68Zm20.878-6.3a7.629,7.629,0,0,1-5.231,1.953,6.531,6.531,0,0,1-3.553-.8,3.549,3.549,0,0,1-1.785-2.808,3.856,3.856,0,0,1,2.032-3.182,10.992,10.992,0,0,1,4.084-1.2,14.946,14.946,0,0,1,2.141-.195,5.694,5.694,0,0,1,1.7.232,3.222,3.222,0,0,1,2.087,1.85A4.893,4.893,0,0,1,498.009,161.381Z"/><path d="M404.912,146.931a62.379,62.379,0,0,0-10.009,4.584l-5.216,2.775a.5.5,0,0,0,.177.938,3.47,3.47,0,0,1,2.655,2.669,11.113,11.113,0,0,1,.078,3.756l-.049.569c-.2,2.405-.279,5.953,1.376,8.984,1.406,2.574,3.877,4.442,6.111,5.929a25.477,25.477,0,0,0,6.175,3.2,19.473,19.473,0,0,0,6.86,1.2,22.44,22.44,0,0,0,4.377-.437,32.9,32.9,0,0,0,13.336-6.452.5.5,0,0,0,.193-.34c.783-6.717.152-12.278-1.932-17-2.537-5.748-7.531-10.056-13.035-11.242A21.385,21.385,0,0,0,404.912,146.931Zm5.759,7.985a12.372,12.372,0,0,1,4.382,1.2,3.834,3.834,0,0,1,2.174,3.174,3.526,3.526,0,0,1-1.911,2.8,7.371,7.371,0,0,1-3.824.81,8.526,8.526,0,0,1-5.621-1.965,4.7,4.7,0,0,1-1.576-4.132,3.4,3.4,0,0,1,2.245-1.854A10.074,10.074,0,0,1,410.671,154.916Zm-15.157,9.722a12.276,12.276,0,0,1,.634-5.312,13.48,13.48,0,0,1,6.938-7.162,17.726,17.726,0,0,1,6.939-1.7.333.333,0,0,1,.144.132c.051.125-.143.4-.442.617a11.112,11.112,0,0,1-2.342,1.209,17.314,17.314,0,0,0-1.814.851,5.074,5.074,0,0,0-2.306,2.517,4.929,4.929,0,0,0-1.341,4.176c1.553,10.395,4.638,11.908,6.3,12.721l.245.122a4.866,4.866,0,0,0,2.239.508,7.709,7.709,0,0,0,3.2-.765,12.974,12.974,0,0,0,6.821-8.545,11.415,11.415,0,0,0,.021-6.224,8.1,8.1,0,0,0-4.092-4.928l-.271-.131c-.671-.32-1.365-.651-1.427-1.151a.6.6,0,0,1,.164-.468,1.107,1.107,0,0,1,.158-.146,17.266,17.266,0,0,1,5.4,2.269,16.766,16.766,0,0,1,7.638,15.233c-.347,4.127-3.957,7.086-5.493,8.167a15.82,15.82,0,0,1-7.375,2.632.5.5,0,0,0-.5-.441.524.524,0,0,0-.088.008,17.2,17.2,0,0,1-12.961-2.977A15.858,15.858,0,0,1,395.514,164.638Z"/><path d="M489.42,124.323a5.707,5.707,0,0,0,2.355-2.377l2.543-.16-1.494,5.549a.5.5,0,0,0,.686.586l2.379-1.066-2.211,10.489a.5.5,0,0,0,.131.452.492.492,0,0,0,.448.143l5.756-1.05a.5.5,0,0,0,.441.721,36.184,36.184,0,0,1,12.646,2.507l-1.827,1.312a.5.5,0,0,0,.118.875l10.561,3.918a10.015,10.015,0,0,0-2.838,5.846.5.5,0,0,0,.746.491,23,23,0,0,1,10.31-3.046.5.5,0,0,0,.431-.7,5.758,5.758,0,0,0-2.883-2.876l1.242-.822a.5.5,0,0,0-.2-.911,44.244,44.244,0,0,1-10.952-3.1l2.742-1.157a.5.5,0,0,0,.294-.563.475.475,0,0,0-.5-.4l-4.088.066,2.17-1.783a.5.5,0,0,0-.243-.881L503.709,134.2a7.256,7.256,0,0,1,2.718-2.709.5.5,0,0,0-.194-.933l-2.71-.281a13.367,13.367,0,0,0,3.538-4.89.5.5,0,0,0-.388-.689l-7.418-1.1.788-3.2a.5.5,0,0,0-.117-.457.51.51,0,0,0-.444-.157l-2.73.417a8.763,8.763,0,0,1-1.679-5.5.5.5,0,0,0-.4-.511.5.5,0,0,0-.567.311l-1.07,2.806-2.106-3.8a.5.5,0,0,0-.933.306,19.473,19.473,0,0,1-1.325,9.913.5.5,0,0,0,.748.6Z"/><path d="M402.506,119.9a.5.5,0,0,0-.12.456l.788,3.281-7.385,1.121a.5.5,0,0,0-.388.684,13.616,13.616,0,0,0,3.54,5l-2.714.288a.5.5,0,0,0-.2.93,7.333,7.333,0,0,1,2.717,2.782l-14.411,2.231a.5.5,0,0,0-.247.876l2.185,1.841-4.087-.069h-.008a.5.5,0,0,0-.2.959l2.752,1.19a43.206,43.206,0,0,1-10.92,3.173.5.5,0,0,0-.2.908l1.255.851a5.8,5.8,0,0,0-2.886,2.939.5.5,0,0,0,.434.7,22.448,22.448,0,0,1,10.252,3.1.5.5,0,0,0,.526-.011.5.5,0,0,0,.226-.476,10.309,10.309,0,0,0-2.837-5.968l10.522-4a.5.5,0,0,0,.119-.87l-1.837-1.353a35.246,35.246,0,0,1,12.6-2.563.5.5,0,0,0,.459-.32.5.5,0,0,0-.026-.416l5.73,1.071a.512.512,0,0,0,.448-.141.5.5,0,0,0,.133-.451l-2.2-10.708,2.361,1.084a.5.5,0,0,0,.693-.582l-1.475-5.607-.016-.066,2.526.164a5.74,5.74,0,0,0,2.344,2.422.5.5,0,0,0,.754-.594,20.288,20.288,0,0,1-1.321-10.119.5.5,0,0,0-.935-.3l-2.092,3.869-1.061-2.853a.5.5,0,0,0-.968.2,9.121,9.121,0,0,1-1.672,5.618l-2.71-.425A.5.5,0,0,0,402.506,119.9Z"/><path d="M501.056,115.183a.5.5,0,0,0,.448-.46l.074-.965.485,1.63a.5.5,0,0,0,.479.358h0a.5.5,0,0,0,.478-.356l.187-.617,1.972,4.187a.5.5,0,0,0,.412.285.492.492,0,0,0,.454-.216l.281-.412,1.137,2.9a.5.5,0,0,0,.392.312,51.877,51.877,0,0,0,6.754.553l-1.91,1.1a.5.5,0,0,0,.163.926l3.856.677-2.371,1.394a.5.5,0,0,0,.249.931,91.093,91.093,0,0,1,13.235,1.1.512.512,0,0,0,.078.006.5.5,0,0,0,.414-.78,17.763,17.763,0,0,0-7.192-6.095,5.927,5.927,0,0,1,2.293-1.7.5.5,0,0,0-.075-.948,25.186,25.186,0,0,0-5.42-.491c-.716-.013-1.434-.026-2.148-.064-3.078-.163-5.2-.855-6.693-2.177-2.428-2.157-2.891-5.831-3.03-9.481a.5.5,0,0,0-.936-.224,4.434,4.434,0,0,1-1.734,1.7,21.95,21.95,0,0,1-.591-9.121.5.5,0,0,0-.319-.54A75.816,75.816,0,0,1,509.2,79.548a.5.5,0,0,0-.772-.607c-3.539,3.038-7.131,6.7-8.778,14.968a44.537,44.537,0,0,0,.874,20.914A.5.5,0,0,0,501.056,115.183Z"/><path d="M475.216,141.177a.37.37,0,0,0,.046,0,.5.5,0,0,0,.486-.378A14.016,14.016,0,0,1,480,134.13a42.918,42.918,0,0,1,6.669-4.77.5.5,0,0,0-.183-.917,10.282,10.282,0,0,0-4.25.183l1.263-2.19a.5.5,0,0,0-.032-.547.5.5,0,0,0-.513-.19l-1.521.348.695-1.945a.5.5,0,0,0-.93-.367.425.425,0,0,1-.436.231h0a1.045,1.045,0,0,1-.915-.534,3.174,3.174,0,0,1,.338-2.388,33.337,33.337,0,0,1,2.877-5.274.5.5,0,0,0-.786-.614c-.476.524-.975,1.03-1.469,1.529a30.89,30.89,0,0,0-2.173,2.354,17.837,17.837,0,0,0-3.673,8.2.5.5,0,0,0,.059.332,2.682,2.682,0,0,1,.062,2.488.5.5,0,0,0,.21.667.49.49,0,0,0,.149.052,38.9,38.9,0,0,0-.671,9.933A.5.5,0,0,0,475.216,141.177Z"/><path d="M416.925,124.246a5.146,5.146,0,0,1,3.121,2.137,26.289,26.289,0,0,1,3.966,6.927A2.891,2.891,0,0,0,423,133.1a.48.48,0,0,0-.481.335.5.5,0,0,0,.167.562,18.98,18.98,0,0,1,6.15,8.238.5.5,0,0,0,.466.32.52.52,0,0,0,.1-.009.5.5,0,0,0,.4-.5,24.1,24.1,0,0,0-.407-3.991,4.479,4.479,0,0,0,.578.362.5.5,0,0,0,.729-.509,1.973,1.973,0,0,1,.429-1.718.74.74,0,0,1,.743-.03.384.384,0,0,1,.19.179l.018.167a.513.513,0,0,0,.509.45.5.5,0,0,0,.487-.475,1.181,1.181,0,0,0-.03-.338,30.621,30.621,0,0,0-4.21-12.416.5.5,0,0,0-.918.353l.124.648-4.824-2.3a.5.5,0,0,0-.572.8l1.072,1.1-6.622-1.072a.5.5,0,0,0-.174.985Z"/><path d="M441.074,129.243a.5.5,0,0,0,.68.2,26.093,26.093,0,0,1,.38,17.483.5.5,0,0,0,.862.475,23.62,23.62,0,0,0,5.021-17.518.5.5,0,0,0-.979-.067,2.633,2.633,0,0,1-.5.969,7.351,7.351,0,0,0-1.31-3.7l-1.71-3.9a.493.493,0,0,0-.511-.3.5.5,0,0,0-.177.053l-.7-1.643a.5.5,0,0,0-.4-.3.481.481,0,0,0-.462.2l-.018.026a13.876,13.876,0,0,1-.467-4.087.5.5,0,0,0-.473-.517.475.475,0,0,0-.526.463,3.84,3.84,0,0,1-1.131,2.433.5.5,0,0,0-.1.24,12.2,12.2,0,0,0,1.149,6.969Z"/><path d="M367.531,141.016c.021,0,.043,0,.063,0a.5.5,0,0,0,.392-.811l-1.419-1.784,3.87,1.1a.5.5,0,0,0,.62-.609l-.3-1.125,2.079.812a.49.49,0,0,0,.421-.028.5.5,0,0,0,.25-.341,18.717,18.717,0,0,1,3.673-7.959,8.6,8.6,0,0,0,1.221,2.632.5.5,0,0,0,.395.215.469.469,0,0,0,.407-.188l3.563-4.471a3.984,3.984,0,0,0,.878,1.519.5.5,0,0,0,.847-.48,15.559,15.559,0,0,1,1.5-11.96.5.5,0,0,0-.831-.553,40.732,40.732,0,0,0-5.94,11.169,8.17,8.17,0,0,1-.446-7.423.5.5,0,0,0-.778-.589,18.645,18.645,0,0,0-4.216,6.169,18.566,18.566,0,0,1-3.914,5.9c-1.579,1.394-4.109,2.333-6.21,1.284a.505.505,0,0,0-.532.054.5.5,0,0,0-.179.505,2.1,2.1,0,0,1-1.541,2.4c-.884.178-1.953-.38-3.9-1.4-.469-.244-.986-.514-1.559-.8a.5.5,0,0,0-.578.8A21.122,21.122,0,0,0,367.531,141.016Z"/><path d="M541.63,128.492a.5.5,0,0,0-.808.32,4.293,4.293,0,0,1-.859,2.024,9.834,9.834,0,0,1-2.7-10.027.5.5,0,0,0-.842-.491l-1.712,1.841c-1.594-2.531-3.32-5.085-6.306-6.849a.5.5,0,0,0-.725.6,39.418,39.418,0,0,1,2.213,10.179.5.5,0,0,0,.9.256l.9-1.209.133,7.16a.5.5,0,0,0,.942.224l.615-1.163.038,3.669a.5.5,0,0,0,.439.491l7.185.873-.781,1.637a.5.5,0,0,0,.451.716.429.429,0,0,0,.079-.007,89.951,89.951,0,0,0,14.416-3.563.5.5,0,0,0-.132-.973l-11.122-.628A6.335,6.335,0,0,0,541.63,128.492Z"/><path d="M345.338,84.944c.024-1.119.108-2.259.19-3.362.056-.756.111-1.512.149-2.269.11-2.14.079-4.312.051-6.412-.028-2.046-.056-4.163.043-6.233a93.379,93.379,0,0,1,1.673-12.329,50.5,50.5,0,0,0,.862-5.673.5.5,0,0,0-.421-.518.491.491,0,0,0-.56.362c-2.681,9.851-5.453,20.037-5.448,30.487,0,11.784,3.777,21.938,10.619,28.594a.5.5,0,0,0,.727-.686A32.9,32.9,0,0,1,345.338,84.944Z"/><path d="M545.207,111.856a.5.5,0,0,0,.486.615.494.494,0,0,0,.287-.091c6.1-4.287,9.646-8.485,11.149-13.212A33.116,33.116,0,0,0,558.3,91.4a40.9,40.9,0,0,1,.726-6.075,40.585,40.585,0,0,1,1.55-4.92,41.623,41.623,0,0,0,1.587-5.049c1.2-5.386.208-11.074-.667-16.092-1.088-6.242-2.443-14.011-7.032-19.633a.5.5,0,0,0-.833.545c5.419,10.558,7.391,21.084,5.866,31.284a93.023,93.023,0,0,1-3.173,12.753,111.708,111.708,0,0,0-2.847,10.806c-.087.451-.169.906-.251,1.362a20.3,20.3,0,0,1-2.2,7.122,21.087,21.087,0,0,1-2.375,2.96C547.2,108.055,545.716,109.7,545.207,111.856Z"/><path d="M538.486,64.007c1.234-.66,2.676-1.344,3.858-1.865-1.5.527-2.987,1.12-4.447,1.761-15.105,6.57-27.855,19.262-32.626,35.229C512.264,83.494,523.767,72.106,538.486,64.007Z"/><path d="M509.587,83.019c2.583-4.094,6.163-7.577,9.665-11.041A102.311,102.311,0,0,1,528.59,63.6c5.521-2.591,11.259-4.62,17.35-6.854.608-.217,1.336-.463,1.869-.651q-1.273.319-2.545.656a133.38,133.38,0,0,0-13.1,4.086c4.586-3.429,9.37-6.62,14.291-9.911,1.185-.783,2.571-1.67,3.658-2.367q-1.506.809-3,1.64a161.463,161.463,0,0,0-19.7,12.73c-.2.1-.41.194-.613.3a54.576,54.576,0,0,0-10.5,7.611,66.9,66.9,0,0,1,7-4.525A61.006,61.006,0,0,0,509.587,83.019Z"/><path d="M543.421,73.24a43.912,43.912,0,0,1,4.623-1.578,39.826,39.826,0,0,0-3.908.972c-7.516,2.265-14.395,6.207-20.775,10.719-4.556,3.09-8.8,6.772-11.659,11.538-1.216,2.164-2.6,4.486-2.69,7.023C511.178,90.615,533.288,77.539,543.421,73.24Z"/><path d="M520.571,96.633c5.551-3.254,11.077-6.562,16.8-9.5.631-.327,1.376-.7,1.946-.983q-.736.27-1.47.553a96.967,96.967,0,0,0-18.675,9.526c-3.3,2.263-6.717,4.635-9.109,7.892C512.95,100.924,516.849,98.89,520.571,96.633Z"/><path d="M355.248,65.24c1.568.645,3.092,1.389,4.6,2.173a196.266,196.266,0,0,1,24.006,15.774c1.169,1.647,2.317,3.319,3.426,5.047a71.619,71.619,0,0,1,5.8,10.832c.87,2.4,1.991,4.932,1.8,7.533.483-2.785-.519-5.617-1.256-8.279a54.555,54.555,0,0,0-6.527-12.641c3.262,2.567,8.767,6.588,11.607,10.792a30.5,30.5,0,0,1,.759,8.163,11.057,11.057,0,0,1-3.017,7.066L395.8,109.4a.5.5,0,0,0-.451-.364.474.474,0,0,0-.492.308,21.863,21.863,0,0,1-4.84,7.179l-1-1.408a.511.511,0,0,0-.448-.21.5.5,0,0,0-.409.279,16.577,16.577,0,0,0,1.977,17.239.5.5,0,0,0,.388.184.5.5,0,0,0,.2-.043.5.5,0,0,0,.293-.53c-.612-4.151-1-8.133.985-11.223a15.76,15.76,0,0,1,4.89-4.3,25.174,25.174,0,0,0,3.813-2.9,16.087,16.087,0,0,0,4.344-11.381,33.936,33.936,0,0,0-2.565-11.961,77.461,77.461,0,0,0-13.034-22.386,8.465,8.465,0,0,1-1.534-4.148,18.941,18.941,0,0,0-.4-1.867.5.5,0,0,0-.93-.083c-2.193,4.491.254,9.507,1.41,11.456a48.15,48.15,0,0,0,3.183,4.538,43.133,43.133,0,0,1,3.383,4.9c2.1,3.743,3.015,8.016,3.828,12.2-3.352-4.946-9.755-9.454-13.325-12.175l-.059-.043q-.795-1.105-1.606-2.2a97.178,97.178,0,0,0-8.412-10.017c1.947.872,3.886,1.817,5.872,2.853,4.091,2.169,8.04,4.44,11.059,7.875-4.467-6.349-11.378-10.058-18.668-12.511a94.664,94.664,0,0,0-12.3-10.284c-1.309-.92-2.668-1.831-4-2.673,1.594,1.171,3.128,2.378,4.667,3.643,3.37,2.787,6.5,5.65,9.438,8.611-2.114-.636-4.242-1.185-6.336-1.668-.938-.213-1.934-.423-2.848-.6q1.355.384,2.7.8c2.749.863,5.326,1.8,7.853,2.846a119.414,119.414,0,0,1,9.342,10.957c-7.111-5.123-14.449-10-22.493-13.521C357.968,66.22,356.533,65.658,355.248,65.24Z"/><path d="M363.507,52.8c-.611-.36-1.488-.881-1.941-1.131q1.4.971,2.8,1.954c6.272,4.631,12.031,8.18,17.156,13.859,1.719,2.028,3.558,3.818,4.54,6.354C382.187,63.818,372.274,58.1,363.507,52.8Z"/><path d="M375.676,56.907c2.662,1.9,5.574,3.283,7.564,5.858-1.448-2.5-4.022-4.156-6.212-5.969a58.721,58.721,0,0,0-16.311-8.536c-.535-.188-1.28-.445-1.691-.57q.891.383,1.775.784A115.961,115.961,0,0,1,375.676,56.907Z"/><path d="M385,93.723A70.189,70.189,0,0,0,371.928,82.3c-.858-.6-1.884-1.305-2.672-1.815q1.1.887,2.186,1.8c9.058,7.7,17.115,16.133,21.8,27.018A43.172,43.172,0,0,0,385,93.723Z"/><path d="M735.7,351.738H595.316a22.219,22.219,0,0,0-.781-3.539l0,0c-2.655-8.213-9.793-13.055-14.932-15.982a195.468,195.468,0,0,0-19.08-9.134c-6.745-2.84-13.387-5.308-20.417-4.319a20.393,20.393,0,0,0-8.471,2.954,22.228,22.228,0,0,1-3.509-18.229l2.732,2.5a.5.5,0,0,0,.836-.417,60.076,60.076,0,0,0-8.663-25.677,17.9,17.9,0,0,1-2.4-5.8,11.1,11.1,0,0,1,2.556,2.159.5.5,0,0,0,.877-.229c.714-3.926-1.5-8.854-3.886-13.262a6.189,6.189,0,0,0,1.021-.526c.395-.235.942-.559,1.158-.491a.5.5,0,0,0,.637-.583c-.885-4.13-3.064-6.733-5.619-9.62.117-.086.232-.176.349-.263,3.667,3.538,7.209,7.207,10.671,10.939,4.444,4.842,8.868,9.7,13.165,14.677-1.97-2.82-6.965-8.98-10.285-12.711-4.156-4.554-8.4-9.1-12.836-13.442,1.57-1.182,3.114-2.4,4.6-3.671a.5.5,0,0,0-.416-.872l-1.7.314,2.912-2.23a161.138,161.138,0,0,1,13.643,15.656c5.027,6.3,9.846,12.667,14.531,19.475a119.875,119.875,0,0,1,8.342,13.457,93.043,93.043,0,0,0-7.734-13.823,315.653,315.653,0,0,0-25.075-32.393c-.949-1.013-1.931-2-2.93-2.967l5.46-4.181a.5.5,0,0,0-.349-.895,12.043,12.043,0,0,1-4.542-.466,27.919,27.919,0,0,0,12.684-16.109c7.9,1.958,15.754,4.138,23.583,6.367,1.572.418,4.66,1.378,5.366,1.53q-2.247-.843-4.513-1.635c-7.944-2.763-16.035-5.082-24.2-7.1.012-.045.025-.089.037-.133a261.232,261.232,0,0,1,45.369,7.692c2.287.611,4.678,1.3,6.868,2.009-2.048-.8-4.125-1.535-6.219-2.208-14.849-4.662-30.342-6.906-45.809-8.369q.189-.843.32-1.7a30.421,30.421,0,0,0,5.433-6.79,263.245,263.245,0,0,1,40.646,11.184c2.357.867,4.831,1.841,7.068,2.791-2.246-1.127-4.534-2.166-6.849-3.141a219.866,219.866,0,0,0-40.406-11.629,30.79,30.79,0,0,0,3.52-10.374l.453,1.248a.5.5,0,0,0,.968-.133l.312-4.061a42.89,42.89,0,0,0,2.677-18.176c-.048-.669-.111-1.338-.176-2.006a38,38,0,0,1-.246-4.349,9.624,9.624,0,0,1,1.918-6.015.5.5,0,0,0,.075-.477,20.413,20.413,0,0,1,.307-14.522.485.485,0,0,0-.013-.363c.778-1.738,1.468-3.511,2.145-5.262l3.936-10.2c1.773-4.591,3.606-9.338,3.751-14.408a22.28,22.28,0,0,0-.548-5.595l-.1-.436a8.28,8.28,0,0,1-.312-2.152c.425-1.064.807-2.144,1.167-3.231a7.329,7.329,0,0,0,.714-2.279,126.028,126.028,0,0,0,3.2-15.16c2.348-14.429,4.41-31.09-.873-46.231a30.088,30.088,0,0,0-5.445-9.992,17.837,17.837,0,0,0-6.76-4.922c-1.723-1.3-3.778-2.445-6.055-2.244a22.088,22.088,0,0,0-8.873,2.635c-6.478,3.761-12.531,11.477-17.395,17.677-.56.714-1.105,1.409-1.633,2.076-5.311,6.7-10.288,13.049-15.264,19.393s-9.969,12.709-15.289,19.423a16.392,16.392,0,0,1-4.074,3.182,14.11,14.11,0,0,1-2.481.405c-1.441.1-2.91-.012-4.387.121a27.394,27.394,0,0,0-2.889.471c-.9.181-1.78.349-2.645.435a24.241,24.241,0,0,1-4.668-1.232l-.141-.049c-2.519-.881-5.109-1.77-7.714-1.6a28.072,28.072,0,0,0-7.765-.942,43.618,43.618,0,0,0-7.924,1.27l-.854.189a50.555,50.555,0,0,0-13.84,1.328c-.024-.011-.047-.024-.072-.034a.5.5,0,0,0-.6.173l-.005.01-.152.033-.725.165a22.864,22.864,0,0,1-7.119.864,12.3,12.3,0,0,1-4.171-1.2c-4.445-3.786-7.7-8.993-10.866-14.062-1.022-1.635-2.077-3.327-3.138-4.905-9.262-13.776-16.251-22.866-23.01-31.657l-2.449-3.188c-4.179-5.45-8.5-10.53-15.4-12.8-4.42-1.449-9.649-.169-15.542,3.807a.5.5,0,0,0-.195.575.494.494,0,0,0,.063.115c-3.184,2.908-5.865,7.093-8.246,12.83a83.2,83.2,0,0,0-1.441,59.344l.346.952c.955,2.611,1.941,5.312,1.807,8.042a20.423,20.423,0,0,1-.887,4.418,27.372,27.372,0,0,0-.829,3.635c-.676,5.027,1.417,9.8,3.44,14.41.548,1.249,1.114,2.541,1.61,3.806,3.273,8.355,4.087,17.638,4.872,26.616.821,9.381,1.677,19.028,5.354,27.656.141.683.3,1.361.477,2.037l.443,5.647a.5.5,0,0,0,.967.135l.262-.707a.486.486,0,0,0,.36.25,30.8,30.8,0,0,0,5.957,13.354c.037.1.07.2.108.3A308.421,308.421,0,0,0,328.8,225.319a143.739,143.739,0,0,0-14.552,6.47c4.754-2.06,9.607-3.882,14.477-5.649a350.624,350.624,0,0,1,34.122-10.38,37.591,37.591,0,0,0,3.225,6.3c-16.663,8.425-32.613,18.361-42.562,24.192-5.778,3.5-11.917,7.5-17.235,11.165,5.534-3.277,11.087-6.522,16.587-9.857,12.088-7.3,24.3-14.412,36.775-21.02q3.51-1.858,6.992-3.62a35.884,35.884,0,0,0,2.716,3.515,7.832,7.832,0,0,0-2.428,1.736.5.5,0,0,0,.49.826,3.408,3.408,0,0,1,1.39-.052c-16.453,7.041-32.215,15.914-47.766,24.626-6.939,3.934-13.894,8.192-20.428,12.611q10.611-5.908,21.133-11.976c15.884-8.844,31.8-17.756,48.433-24.772a3.9,3.9,0,0,1,.519.364,26.917,26.917,0,0,0-3.259,5.187.5.5,0,0,0,.29.687l3.973,1.365-1.131,1.2c-2.99,2.719-6.2,5.209-9.354,7.64-3.081,2.378-6.267,4.836-9.205,7.484-1.112,1-2.374,2.224-3.67,3.63a.5.5,0,0,0-.572.015c-8.561,6.558-15.964,14.649-23.123,22.474-2.623,2.866-5.335,5.83-8.061,8.673a138.27,138.27,0,0,1-13.47,12.509A116.425,116.425,0,0,0,282.3,307.12a.5.5,0,0,0,.194.961h.008l.925-.014a111.136,111.136,0,0,0-26.686,19.546c-3.87,1.171-6.1,1.813-8.355,2.462a.5.5,0,0,0,.073.976l4.238.572a214.7,214.7,0,0,0-26.07,20.115H6.569a.5.5,0,0,0-.5.5v22.518a.5.5,0,0,0,.5.5h335c3.752,2.4,8.5,3.758,11.237,4.541.642.183,1.151.328,1.494.447a10.305,10.305,0,0,0,4.7.034c.352-.067,1.338-.144,2.381-.224a39.623,39.623,0,0,0,5.165-.6,7.692,7.692,0,0,0,5.266,1.012,8.448,8.448,0,0,0,2.4-.813,7.382,7.382,0,0,0,2.787-.112c.058-.018.19-.05.356-.09l.087-.022a5.582,5.582,0,0,0,2.438-.5,13.874,13.874,0,0,0,2.988,1.366,13.446,13.446,0,0,0,4.416.412,4.869,4.869,0,0,0,2.47,1.231c.075,0,.151.009.229.009.919,0,2-.467,2.484-2.439a22.849,22.849,0,0,0,6.433-4.257H528.774a21.567,21.567,0,0,0,4.916,3.426c.4,2.166,1.645,2.617,2.6,2.574a4.879,4.879,0,0,0,2.473-1.088,13.319,13.319,0,0,0,4.408-.169,13.755,13.755,0,0,0,3.027-1.2,5.53,5.53,0,0,0,2.386.632l.092.029c.159.048.285.086.392.124a7.2,7.2,0,0,0,2.705.25,8.311,8.311,0,0,0,2.32.941,7.585,7.585,0,0,0,5.29-.714,38.332,38.332,0,0,0,5.083.881c1.03.139,2,.27,2.364.361a14.139,14.139,0,0,0,3.014.409,6.813,6.813,0,0,0,1.65-.192c.329-.1.841-.212,1.487-.359,3.508-.8,10.262-2.346,14.224-5.909H735.7a.5.5,0,0,0,.5-.5V352.238A.5.5,0,0,0,735.7,351.738ZM583.04,373.717l0,0a10.957,10.957,0,0,1-3.045,1.589c5.449-6.805,7.44-16.592,4.826-24.377a.494.494,0,0,0-.569-.332.5.5,0,0,0-.4.521,17.225,17.225,0,0,1,0,2.094,32,32,0,0,0-4.439-5.885q-.748-.811-1.529-1.59a.5.5,0,0,0-.8.58c.561,1.108,1.142,2.389,1.722,3.79.426,1.15.84,2.149,1.235,3.1a39.963,39.963,0,0,1,1.889,5.255,15.612,15.612,0,0,1,.3,2.053,42.613,42.613,0,0,1-5.157,9.537l-.259.393a26.467,26.467,0,0,1-4.56,5.42c-.289.252-.522.474-.73.671a4.494,4.494,0,0,1-2.447,1.384,5.058,5.058,0,0,1-1.494.077,1.764,1.764,0,0,0,.465-1.749c-.168-.319-.573-.638-1.568-.344-.046.015-.175.072-.363.161a14.909,14.909,0,0,1-2.077.835,11.416,11.416,0,0,0,1.62-2.255c3.529-7.186,3.144-15.387,2.2-20.991a40.232,40.232,0,0,0-1.45-5.8c-.345-1.133-.7-2.3-.983-3.468a.493.493,0,0,0-.544-.379.5.5,0,0,0-.443.493c-.009,1.183.046,2.378.1,3.533a42.951,42.951,0,0,1,.026,5.263,74.3,74.3,0,0,1-2.146,13.426c-.219.824-.4,1.546-.557,2.189-.806,3.257-1.081,4.367-3.671,6.913h0l0,0a8.847,8.847,0,0,1-2.986,2.048,5.82,5.82,0,0,1-.718.155,3.1,3.1,0,0,0,.133-2.207,1.815,1.815,0,0,0-.983-1.088,2.2,2.2,0,0,0-1.1-.276,5.333,5.333,0,0,0-1.394.249l-.044.012a15.112,15.112,0,0,0,2.1-4.6l.24-.756c1.322-4.974.669-10.95-2.054-18.8-.639-1.909-1.215-3.473-1.813-4.922a.5.5,0,0,0-.957.26l.056.4c.027.242.053.483.08.725-.212-.564-.4-1.105-.571-1.634-.165-.487-.3-.987-.432-1.487a15.572,15.572,0,0,0-.819-2.485.5.5,0,0,0-.949.283,10.863,10.863,0,0,1,.016,2.319c-.032.518-.065,1.036-.055,1.534a28.133,28.133,0,0,0,.624,6.153c.37,1.983.85,3.864,1.315,5.683.556,2.183,1.083,4.246,1.407,6.386-.545,4.24-1.7,8.465-6.406,10.757a2.073,2.073,0,0,1-.509.163,6.077,6.077,0,0,0-.473-4.561,2.142,2.142,0,0,0-1.906-1.09c-1.348.163-2.2,2.151-2.88,3.749-.139.324-.267.624-.389.88q-.125.27-.263.513c-2.181-.848-11.061-4.832-8.975-12.829.27-1.031.563-2.129.865-3.26a125.5,125.5,0,0,0,2.965-12.659.5.5,0,0,0-.93-.316,57.657,57.657,0,0,0-4.263,9.38v-.026a23.745,23.745,0,0,1,3-12.36.5.5,0,0,0-.805-.583,24.473,24.473,0,0,0-5.818,13.6c-.078.537-.144,1.07-.2,1.595a11.745,11.745,0,0,0-.856-.916,11.923,11.923,0,0,0-4.4-2.143,6.407,6.407,0,0,1-2.011-.848c-.058-.091-.11-.185-.143-.251a10.834,10.834,0,0,1-.493-1.481c-.318-1.414.564-6.889,1.582-9.792a19.332,19.332,0,0,1,11.287-9.81,5.375,5.375,0,0,1,.49,2.51,12.5,12.5,0,0,1-.176,2.1.5.5,0,0,0,.884.4,6.264,6.264,0,0,0,.937-1.649c.267-.461.544-.916.822-1.371A31.622,31.622,0,0,0,531.9,330.5c.4-.772,1.027-2.109,1.483-3.086.252-.54.442-.949.474-1.011a8.68,8.68,0,0,1,2.617-2.762c7.433-3.972,17.6.508,25.017,3.773l1.148.555c20.026,9.685,29.165,14.105,28.9,28.073C591.344,361.8,588.109,369.981,583.04,373.717ZM384.668,370.57a6.032,6.032,0,0,0-.7,4.48,2.2,2.2,0,0,1-.565-.227c-4.547-2.517-5.474-6.8-5.782-11.064a64.648,64.648,0,0,1,1.776-6.294c.569-1.791,1.159-3.643,1.641-5.591a27.989,27.989,0,0,0,.977-6.1c.039-.513.036-1.033.032-1.552a10.857,10.857,0,0,1,.148-2.313.5.5,0,0,0-.931-.339A15.708,15.708,0,0,0,380.3,344c-.163.491-.326.984-.522,1.468q-.3.786-.675,1.621.062-.368.123-.732l.081-.412a.5.5,0,0,0-.94-.315c-.685,1.421-1.354,2.95-2.1,4.809-3.183,7.694-4.179,13.625-3.122,18.693l.192.741a15.037,15.037,0,0,0,1.856,4.714l-.05-.017a3.169,3.169,0,0,0-2.454-.131,1.858,1.858,0,0,0-1.1,1.057,3.078,3.078,0,0,0,.012,2.206,6.151,6.151,0,0,1-.736-.2,9.956,9.956,0,0,1-2.855-2.189l-.026-.028c-2.456-2.67-2.669-3.789-3.3-7.1-.124-.652-.263-1.383-.435-2.21a73.775,73.775,0,0,1-1.4-13.55,42.375,42.375,0,0,1,.323-5.233c.12-1.152.243-2.344.3-3.527a.5.5,0,0,0-.413-.516.492.492,0,0,0-.564.346c-.351,1.148-.775,2.3-1.186,3.41a39.98,39.98,0,0,0-1.784,5.7c-1.268,5.552-2.119,13.718,1.035,21.115a11.226,11.226,0,0,0,1.5,2.323,14.865,14.865,0,0,1-2.054-.955c-.184-.1-.312-.163-.365-.183-.975-.345-1.4-.049-1.585.262a1.761,1.761,0,0,0,.371,1.77,4.886,4.886,0,0,1-1.465-.151,4.58,4.58,0,0,1-2.425-1.531c-.2-.208-.419-.441-.68-.694a26.583,26.583,0,0,1-4.3-5.681l-.245-.42a42.469,42.469,0,0,1-4.642-9.8,15.448,15.448,0,0,1,.42-2.026,40,40,0,0,1,2.2-5.147c.451-.929.923-1.9,1.411-3.011.663-1.372,1.32-2.619,1.952-3.705a.5.5,0,0,0-.764-.626c-.551.489-1.093.99-1.634,1.51a31.979,31.979,0,0,0-4.8,5.633,17.412,17.412,0,0,1,.114-2.1.5.5,0,0,0-.96-.246c-3.069,7.629-1.619,17.514,3.478,24.614a11.131,11.131,0,0,1-2.981-1.761l0,0c-4.888-4.013-7.681-12.366-7.557-18.116.529-13.969,9.972-17.872,30.665-26.423l1.17-.483c7.658-2.853,18.146-6.761,25.4-2.376a8.617,8.617,0,0,1,2.462,2.874c.045.093.213.512.435,1.065.4,1,.955,2.372,1.31,3.146a31.524,31.524,0,0,0,1.524,3.088c.255.473.51.945.723,1.35a6.592,6.592,0,0,0,.881,1.771.5.5,0,0,0,.9-.349,12.218,12.218,0,0,1-.059-2.087,5.377,5.377,0,0,1,.637-2.5,19.363,19.363,0,0,1,10.813,10.457c.854,2.926,1.431,8.44,1.025,9.857a14.642,14.642,0,0,1-.556,1.393,2.111,2.111,0,0,1-.173.269,6.288,6.288,0,0,1-2.076.744,8.583,8.583,0,0,0-5.467,2.766c-.027-.529-.064-1.064-.111-1.6a24.377,24.377,0,0,0-5.086-13.918.5.5,0,0,0-.834.54,23.6,23.6,0,0,1,2.323,12.525v.013a57.842,57.842,0,0,0-3.767-9.609.5.5,0,0,0-.945.264,125.017,125.017,0,0,0,2.27,12.819c.24,1.141.472,2.25.683,3.29,1.644,8.089-7.466,11.568-9.759,12.309q-.127-.253-.24-.535c-.106-.256-.217-.563-.338-.9-.6-1.631-1.338-3.662-2.68-3.9A2.2,2.2,0,0,0,384.668,370.57ZM372.654,218.026a.5.5,0,0,0-.141-.243,40.887,40.887,0,0,1-3.263-3.519q3.715-.819,7.454-1.527a24.224,24.224,0,0,0,1.532,3.547q-2.683,1.184-5.38,2.458C372.788,218.5,372.713,218.267,372.654,218.026ZM342.4,121.411a6.046,6.046,0,0,1,1.79-1.977,6.992,6.992,0,0,1,9.746,2.439.5.5,0,0,0,.945-.214c.143-4.857-3.58-8.676-7.624-12.081-2.982-2.512-5.741-5.04-6.989-8.033-.234-.814-.452-1.63-.64-2.449-.024-.213-.047-.427-.055-.645a.5.5,0,0,0-.154-.342A75.252,75.252,0,0,1,338.1,88.056c-1.646-23.225,2.252-40.448,11.918-52.654a22.446,22.446,0,0,1,3.231-3.4c.58-.076,1.143-.153,1.679-.227,5.862-.814,9.094-1.264,14.738,3.85,7.186,6.511,19.306,24.407,25.131,33.007l1.037,1.531c6.809,10.032,11.411,19.8,16.282,30.134,2.49,5.284,5.065,10.748,8,16.35a.5.5,0,0,0,.443.268.486.486,0,0,0,.159-.026.5.5,0,0,0,.335-.554,56.623,56.623,0,0,0-4.638-14.97.522.522,0,0,0,.18-.078.5.5,0,0,0,.208-.489,5.884,5.884,0,0,0-.342-1.235l5.589,3.171a.466.466,0,0,0,.272.056l2.955,6.437a.5.5,0,0,0,.454.292h0a.5.5,0,0,0,.454-.3,25.4,25.4,0,0,0,2.094-11.509l5.032.554c.477.639.941,1.288,1.377,1.954l-1.395-.314a.5.5,0,0,0-.411.887,3.807,3.807,0,0,1,1.456,2.7,36.934,36.934,0,0,1-.237,8.113l-.194-.595a.511.511,0,0,0-.482-.344.5.5,0,0,0-.472.356,15.07,15.07,0,0,1-4.381,6.884.5.5,0,0,0,.293.872,7.267,7.267,0,0,0,4.391-1.1l-.207,1.747a.5.5,0,0,0,.287.514.512.512,0,0,0,.209.046.5.5,0,0,0,.367-.162,17.271,17.271,0,0,0,4.462-12.278l.013.024a.5.5,0,0,0,.936-.211A13.623,13.623,0,0,0,434.7,96.491a28.9,28.9,0,0,1,6.526.62c.083.055.169.1.25.161a.5.5,0,0,0-.172.409,26.64,26.64,0,0,0,1.335,8.056,9.38,9.38,0,0,0,5.765,5.845.5.5,0,0,0,.63-.384,24.313,24.313,0,0,0,3.755,4.038.5.5,0,0,0,.815-.282l1.013-5.064a63.829,63.829,0,0,1,.138,13.312,2.788,2.788,0,0,1-.157-.973c-.035-.69-.08-1.549-.879-1.925a.5.5,0,0,0-.676.266l-.205.511a12.658,12.658,0,0,1-2.776-6.134.5.5,0,0,0-.993.052,9.559,9.559,0,0,1-.15,1.118,7.783,7.783,0,0,0-.075,3.095,24.309,24.309,0,0,0,4.472,9.85,66.745,66.745,0,0,0,2.03,9.972.5.5,0,0,0,.481.363l.055,0a.5.5,0,0,0,.444-.467,36.9,36.9,0,0,1,7.612-20.237.5.5,0,0,0-.529-.788,10.148,10.148,0,0,0-4.516,2.7.491.491,0,0,0-.365-.071,3.141,3.141,0,0,0-1.922,1.748c-.077.125-.153.249-.23.368a2.2,2.2,0,0,1-.338.39,24.037,24.037,0,0,1,5.138-9.695.5.5,0,0,0-.014-.676l-.021-.021a35.058,35.058,0,0,0,2.551-10.239.5.5,0,0,0-.213-.458.506.506,0,0,0-.5-.038l-.4.194,1.8-2.845a.5.5,0,0,0,.039-.458.482.482,0,0,0-.065-.112l2.017-.856a.472.472,0,0,0,.075.014l2.09-.15-.392,1.905a.5.5,0,0,0,.44.6l.665.069-1.775,2.145a.494.494,0,0,0-.095.185,35.768,35.768,0,0,1-2.174,5.782.5.5,0,0,0,.641.679l3.3-1.358c.164-.068.5-.207.659-.131.117.059.155.319.073.507a2.282,2.282,0,0,1-.729.759.5.5,0,0,0,.077.839,8.891,8.891,0,0,0-1.687,2.751.5.5,0,0,0,.569.667l1.113-.233a34.546,34.546,0,0,0-4.761,14.984.5.5,0,0,0,.4.53.528.528,0,0,0,.1.009.5.5,0,0,0,.476-.349c.97-3.059,3.282-5.308,5.729-7.69a41.64,41.64,0,0,0,3.663-3.882c2.874-3.624,4.426-8.208,5.8-12.253a.5.5,0,0,0-.532-.657,6.153,6.153,0,0,0-2.828,1.1l.119-1.443a.5.5,0,0,0-.807-.436l-.366.288a6,6,0,0,0,.122-.767.5.5,0,0,0-.158-.411L479.127,99a49.941,49.941,0,0,0,6.58-.989c.314-.069.646-.151.982-.242l-.977,12.518a.5.5,0,0,0,.389.528.568.568,0,0,0,.109.011.5.5,0,0,0,.467-.323,107.8,107.8,0,0,1,6.2-14.308l.425,2.165a.5.5,0,0,0,.988-.04,29.546,29.546,0,0,1,2.564-8.77c1.49-1.94,3-4.3,4.454-6.59s2.965-4.65,4.44-6.565a428.866,428.866,0,0,1,29.971-35.517,33.834,33.834,0,0,1,7.6-5.98,14.056,14.056,0,0,1,7.594-1.007,13.43,13.43,0,0,1,8.262,5.2c2.847,3.744,3.861,8.653,4.755,12.984,1.089,5.274,2.215,10.729,2.287,16.187a86.473,86.473,0,0,1-1.793,15.936,93.605,93.605,0,0,0-1.811,15.052c-.008.737,0,1.477.01,2.216.011.9.018,1.811,0,2.722-1.289,3.4-4.085,5.907-7.056,8.539-3.078,2.727-6.261,5.548-7.555,9.473a.5.5,0,0,0,.652.625,11.141,11.141,0,0,0,2.955-1.9,18.661,18.661,0,0,1,1.524-1.146c1.317-.853,3.224-1.287,4.3-.228a4.1,4.1,0,0,1,.922,2.066,22.541,22.541,0,0,1-6.432,20.9,10.972,10.972,0,0,0,.367-3.144.5.5,0,0,0-.391-.472.506.506,0,0,0-.555.26,7.342,7.342,0,0,1-3.113,3.147l1.153-2.766a.5.5,0,0,0-.851-.507,6.083,6.083,0,0,1-7.322,1.546.5.5,0,0,0-.635.731,9.831,9.831,0,0,0,7.267,4.166l-.066,2.077a.5.5,0,0,0,.408.508,6.775,6.775,0,0,0,3.729-.378,23.483,23.483,0,0,0-2.043,5.431l0,0a9.085,9.085,0,0,0-3.978.594,5.063,5.063,0,0,1,.937-1.845.5.5,0,0,0-.663-.731,4.88,4.88,0,0,1-5.124.044.5.5,0,0,0-.669.72,10.222,10.222,0,0,0,5.428,3.727l.469,3.187a.5.5,0,0,0,.95.135l.539-1.178a28.23,28.23,0,0,1,1.573,9.356,16.4,16.4,0,0,0-2.19-2.943.5.5,0,0,0-.783.067l-.178.271a22.436,22.436,0,0,1-2.51-5.831.5.5,0,0,0-.894-.153l-.392.567a23.547,23.547,0,0,1-3.438-5.4.509.509,0,0,0-.476-.291.5.5,0,0,0-.449.331l-.527,1.477a22.13,22.13,0,0,0-3.144-5.3.5.5,0,0,0-.865.467l2.129,6.69a2.421,2.421,0,0,0,1.137,1.625,1.259,1.259,0,0,0,1.123-.063l1.564,3.862a.5.5,0,0,0,.524.308,1.874,1.874,0,0,0,.918-.386l3.784,10.187a.5.5,0,0,0,.746.242,4.461,4.461,0,0,0,1.232-1.236,9.983,9.983,0,0,1,1.141,4.324.5.5,0,0,0,.451.481.494.494,0,0,0,.536-.385l.176-.762a22.683,22.683,0,0,1-1.145,16.09,65.178,65.178,0,0,1-3.49-12.053.5.5,0,0,0-.982,0,9.25,9.25,0,0,1-1.987,4.194,37.35,37.35,0,0,1-3.584-9.816c-.177-.677-.355-1.354-.54-2.026-1.144-4.166-2.8-8.834-6.392-11.867a.5.5,0,0,0-.8.521l.165.568a15.209,15.209,0,0,0-6.684-4.082.5.5,0,0,0-.552.765,28.036,28.036,0,0,0-5.921.03.5.5,0,0,0-.157.95,11.508,11.508,0,0,1,6.353,8.608.5.5,0,0,0,.886.242,8.644,8.644,0,0,0,1.024-1.624l.24,1.465a.5.5,0,0,0,.436.416.49.49,0,0,0,.52-.307l.229-.561a3.972,3.972,0,0,1,.022.961,20.729,20.729,0,0,1-9.877,14.393.5.5,0,0,0,.407.907l3.057-.99-6.838,9.22c-.877.563-1.712,1.059-2.516,1.506a.488.488,0,0,0-.518-.035,10.363,10.363,0,0,1-4.595,1.348,10.835,10.835,0,0,0,3.661-6.887.5.5,0,0,0-.794-.46,19.681,19.681,0,0,1-6.82,3.216,20.56,20.56,0,0,1,2.619-3.448.5.5,0,0,0-.555-.805,60.479,60.479,0,0,1-9.614,3.343,19.674,19.674,0,0,1-9.914-.034.5.5,0,0,0-.551.193,2.313,2.313,0,0,0-.216,2.385l-2.453-.79a.5.5,0,0,0-.568.755,20.566,20.566,0,0,0,11.448,8.274,2.337,2.337,0,0,1-1.746.4.508.508,0,0,0-.569.342.5.5,0,0,0,.273.606,16.105,16.105,0,0,0,6.591,1.4c.086,0,.173-.01.259-.012l-2.344.8a.5.5,0,0,0-.324.588.484.484,0,0,0,.553.381,7.85,7.85,0,0,1,3.416.3l-.3.111a.5.5,0,0,0-.048.917c.373.184.749.36,1.172.558.524.245,1.148.539,1.912.916q-1.85.066-3.671.18a.485.485,0,0,0-.338-.112,4.576,4.576,0,0,1-1.9-.351l-.462-.221a.5.5,0,0,0-.531.062,7,7,0,0,0-4.388.79.5.5,0,0,0-.256.471c0,.032.024.056.031.086a99.243,99.243,0,0,0-9.817,1.711q5.283-.753,10.577-1.179l.575.225a3.057,3.057,0,0,1-1.144.023.494.494,0,0,0-.556.327.5.5,0,0,0,.228.6l2.022,1.122a3.523,3.523,0,0,0,.818.449.5.5,0,0,0,.633-.256.49.49,0,0,0,.026-.352,18.714,18.714,0,0,0,2.07.413l.017,0,.028,0a.5.5,0,0,0,.533-.434.563.563,0,0,0,0-.1,16.648,16.648,0,0,1,3.225.982.513.513,0,0,0,.194.039.5.5,0,0,0,.24-.938.844.844,0,0,1-.242-.2l.093-.021a.5.5,0,0,0,.147-.915l-2.152-1.3.181-.068a.459.459,0,0,0,.061-.035q2.7-.117,5.406-.159a12.545,12.545,0,0,1,5.719,7.272,76.234,76.234,0,0,0-14.651-.859,4.355,4.355,0,0,0-.9-.086.5.5,0,0,0-.274.09c-.079,0-.162.012-.245.023a2.262,2.262,0,0,0-.4.1,42.256,42.256,0,0,0-6.4,1.064,48.418,48.418,0,0,1,5.573-.574,1.671,1.671,0,0,0-.365.5,2.006,2.006,0,0,0,.98,2.442,3.577,3.577,0,0,0,1.348.413.493.493,0,0,0-.1.222.5.5,0,0,0,.384.567.878.878,0,0,0,.2.023c.192.015.384.023.576.023a7.358,7.358,0,0,0,2.347-.384.5.5,0,0,0,.238-.172l.354.038a.5.5,0,0,0,.543-.6,4.839,4.839,0,0,0-2.338-3.114,114.168,114.168,0,0,1,13.42,1.272c.112.446.213.9.285,1.358.088.572.138,1.159.171,1.753a57.4,57.4,0,0,0-18.093,4.155c4.593-1.753,9.18-2.277,13.946-2.806,1.394-.158,2.789-.275,4.185-.374a25.62,25.62,0,0,1-1.112,7.158,28.016,28.016,0,0,1-1.813,2.643,68.743,68.743,0,0,0-7.31-3.282.5.5,0,0,0,.08-.521l-1.149-2.622a.5.5,0,0,0-.052-.2,1.386,1.386,0,0,0-2.382.313,1.519,1.519,0,0,0-.113.41l-3.958-.164a.493.493,0,0,0-.481.305v0c-.147-.034-.292-.076-.439-.11.145.049.288.108.434.158a.5.5,0,0,0,.111.5,33.263,33.263,0,0,0-9.289,1.914c-1.1-.228-2.2-.427-3.316-.573a17.193,17.193,0,0,0-7.373.1,18.118,18.118,0,0,1,7.314.453c.726.147,1.448.31,2.168.481q-.72.291-1.422.617c-2.155,1-2.52,2.173-2.447,2.984a.5.5,0,0,0,.5.455.507.507,0,0,0,.233-.057,30.571,30.571,0,0,1,4.486-1.9c2.54.972,7.1,5.954,8.175,7.208,1.465,1.862,2.831,3.773,4.13,5.718-2.239,1.145-3.884,1.807-3.926,1.823a.5.5,0,0,0-.132.852,2.36,2.36,0,0,1,.519,3.176c-4.482,3.189-9.55,4.465-14.452,5.7-2.5.629-5.084,1.28-7.577,2.176a.5.5,0,0,0-.194.814l.394.419a42.549,42.549,0,0,1-12.48-.436.49.49,0,0,0-.393.082,16.132,16.132,0,0,1-12.076,2.482l2.47-1.294a.5.5,0,0,0-.35-.929,18.851,18.851,0,0,1-11.838-1.066.809.809,0,0,0,.031-.478.514.514,0,0,0-.517-.385,25.87,25.87,0,0,1-12.087-2.186l2.022-1.247a.5.5,0,0,0-.085-.893,20.775,20.775,0,0,0-2.249-.65c-1.426-.355-2.9-.722-3.424-1.42-.417-.556-.222-2.76.048-3.566a.5.5,0,0,0-.075-.458.483.483,0,0,0-.418-.2,59.834,59.834,0,0,1-7.137-.006c.679-1.018,1.365-2.018,2.059-2.987,4.324-2.456,8.735-4.757,13.254-6.837,4.04-1.758,7.837-3.744,12.293-4.554-6.567.783-12.722,3.741-18.639,6.557-1.849.919-3.666,1.893-5.471,2.89a55.823,55.823,0,0,1,11.8-12.011,19.435,19.435,0,0,0,4.023.54.5.5,0,0,0,.287-.918,10.065,10.065,0,0,0-2.109-1.036c.479-.279.957-.563,1.439-.8-.572.2-1.143.448-1.712.713a24.956,24.956,0,0,0-5.546-.993l-4.625-.456a10.5,10.5,0,0,0-5.09.372,2.341,2.341,0,0,0-1.625-1.292,2.292,2.292,0,0,0-1.437.2,2.043,2.043,0,0,0-.319-.925,77,77,0,0,1,8.093-3.231.5.5,0,0,0,.591-.078c.065-.065.143-.114.21-.175q.831-.264,1.654-.5c.006.009,0,.02.01.029a.5.5,0,0,0,.457.212l2.56-.24a.5.5,0,0,0,.472.646,10.38,10.38,0,0,1,4.159.939.5.5,0,0,0,.209.045h.037l3.805-.28a.5.5,0,0,0,.161-.958c-1.532-.663-3.1-1.337-4.714-1.872,1.082-.132,2.151-.226,3.2-.259a28.1,28.1,0,0,0-4.02,0c-.408-.121-.82-.232-1.236-.33-.028-.01-.063-.021-.09-.032-.753-.2-1.51-.355-2.27-.478a1.342,1.342,0,0,1-.524-.318,3.433,3.433,0,0,1-.225-.282,6.3,6.3,0,0,0-2.518-2.026.515.515,0,0,0-.269-.052,3.594,3.594,0,0,0-2.969,2.37q-.864.04-1.727.113a1.762,1.762,0,0,1-.038-.225,2.208,2.208,0,0,1,.847-1.493c.023-.015.045-.032.068-.05a.589.589,0,0,0,.209-.415.5.5,0,0,0-.711-.471c-.225-.026-.821-.132-2.374-.484a.492.492,0,0,0-.382.069,9.759,9.759,0,0,0-3.357,3.776c-1.046.157-2.086.32-3.119.477-2.851.554-5.667,1.218-8.466,1.934a17.467,17.467,0,0,1,.178-1.838,14.115,14.115,0,0,1,3.319-7.147,146.688,146.688,0,0,1,23.445,2.889,85.236,85.236,0,0,0-22.274-3.821,54.42,54.42,0,0,1,13.53-2.159,9.9,9.9,0,0,0-2.649,1.88.5.5,0,0,0,.232.839,6.159,6.159,0,0,0,1.679.174.5.5,0,0,0,.369.544,3.21,3.21,0,0,0,.822.1,4.365,4.365,0,0,0,2.453-.825,10.98,10.98,0,0,0,2.215-2.257.5.5,0,0,0,.033-.581.5.5,0,0,0-.539-.219c-.4.095-.891.213-1.074.1a.42.42,0,0,1-.142-.272.5.5,0,0,0-.564-.383,9.9,9.9,0,0,0-2.2.609,43.715,43.715,0,0,0-12.142.857l0,0c1.618-.822,2.687-1.312,3.546-1.706.431-.2.815-.373,1.195-.557a.5.5,0,0,0-.048-.92l-.3-.11a8.284,8.284,0,0,1,3.494-.3.5.5,0,0,0,.553-.383.435.435,0,0,0,0-.088,18.547,18.547,0,0,0,10.7-5.638.5.5,0,0,0,.087-.548.487.487,0,0,0-.472-.291l-1.213.042a14.566,14.566,0,0,0,5.812-7.1.5.5,0,0,0-.727-.606,8.008,8.008,0,0,1-3.563,1.127l2.052-2.828a.5.5,0,0,0-.654-.728,18.491,18.491,0,0,1-18.4-.254.579.579,0,0,0-.275-.074c-2.2.067-3.749-.653-4.637-2.132a.5.5,0,0,0-.9.424,21.645,21.645,0,0,0,3.464,6.227,34.278,34.278,0,0,1-7.157-1.659.5.5,0,0,0-.577.756l3.124,4.532q-3.3-1.93-6.469-4.048l-6.832-9.023,3.139,1a.5.5,0,0,0,.4-.91,20.729,20.729,0,0,1-10.083-14.392,4.052,4.052,0,0,1,.026-1l.253.6a.493.493,0,0,0,.518.3.5.5,0,0,0,.436-.415l.249-1.5a8.61,8.61,0,0,0,1.061,1.659.5.5,0,0,0,.522.166.5.5,0,0,0,.361-.41,11.536,11.536,0,0,1,6.488-8.609.5.5,0,0,0-.154-.951,29.286,29.286,0,0,0-6.052-.029.5.5,0,0,0-.548-.767,15.571,15.571,0,0,0-6.846,4.108l.174-.591a.5.5,0,0,0-.8-.527c-3.668,3.034-5.357,7.7-6.525,11.869-.189.675-.372,1.354-.554,2.035-.9,3.37-1.839,6.849-3.665,9.821a9.174,9.174,0,0,1-2.04-4.208.5.5,0,0,0-.982,0,64.064,64.064,0,0,1-3.466,11.8,21.921,21.921,0,0,1,.154-12.708l.2.829a.5.5,0,0,0,.986-.1,9.7,9.7,0,0,1,1.2-4.349,4.535,4.535,0,0,0,1.3,1.267.505.505,0,0,0,.426.054.5.5,0,0,0,.312-.3l3.926-10.209a1.97,1.97,0,0,0,.966.4.5.5,0,0,0,.521-.3l1.627-3.877a1.309,1.309,0,0,0,1.161.075,2.425,2.425,0,0,0,1.173-1.622l2.2-6.692a.5.5,0,0,0-.858-.478,22.056,22.056,0,0,0-3.277,5.351l-.564-1.522a.5.5,0,0,0-.92-.042,23.449,23.449,0,0,1-3.583,5.422l-.422-.591a.5.5,0,0,0-.889.155,22.008,22.008,0,0,1-2.619,5.859l-.2-.3a.5.5,0,0,0-.371-.217.492.492,0,0,0-.4.15,16.31,16.31,0,0,0-2.3,3,27.3,27.3,0,0,1,1.644-9.452l.579,1.224a.5.5,0,0,0,.946-.139l.487-3.185a10.586,10.586,0,0,0,5.622-3.725.5.5,0,0,0-.657-.731,5.229,5.229,0,0,1-5.339-.044.5.5,0,0,0-.652.743,4.979,4.979,0,0,1,.97,1.847,9.742,9.742,0,0,0-2.564-.575.466.466,0,0,0,0-.118.5.5,0,0,0-.409-.35l-3.019-.424-.9-2.289a4.563,4.563,0,0,1-.007-.692,3.553,3.553,0,0,1,1.417-2.535,2.194,2.194,0,0,1,1.833-.417.5.5,0,0,0,.422-.886l-.313-.232h.063c2.735,0,5.453-1.5,7.86-2.978a.5.5,0,0,0-.262-.926h-.007a9.924,9.924,0,0,1-6.458-2.323.5.5,0,0,0-.781.584l.808,1.816a15.375,15.375,0,0,1-5.425-2.43.5.5,0,0,0-.729.647l.953,1.748a11.356,11.356,0,0,1-4.213-3.688l-4.544-11.562c-.383-.973-.733-1.915-1.027-2.836C342.559,124.584,342.448,122.907,342.4,121.411Zm198.2,88.773c-.229-.039-.457-.083-.686-.122-.067-.184-.127-.368-.208-.551a.5.5,0,0,0-.437-.3.518.518,0,0,0-.459.259c-.071.13-.142.249-.213.376-4.554-.748-9.14-1.363-13.711-1.824.048-.252.1-.506.144-.76.171-.913.347-1.858.518-2.5a.5.5,0,0,0-.121-.472.5.5,0,0,0-.466-.144c-.322.068-.847.2-1.373.339l-.378.1c.065-.141.133-.287.2-.431.257-.55.5-1.068.617-1.414a.5.5,0,0,0-.227-.6,15.165,15.165,0,0,0-4.758-.8l-.6-.05c.07-.09.141-.18.211-.271a4.123,4.123,0,0,1,.775-.854.5.5,0,0,0,.211-.574.506.506,0,0,0-.5-.349,48.858,48.858,0,0,0-4.914.523c1.5-1,2.521-1.671,2.55-1.69a.5.5,0,0,0-.163-.9c-.05-.012-.633-.144-1.359-.266,8.638-4.075,16.22-18.86,16.565-19.54a.5.5,0,0,0,.033-.111c.156-.191.32-.374.475-.567-.085.686-.156,1.439-.227,2.181-.1,1.1-.2,2.15-.331,2.733a.5.5,0,0,0,.847.455l1.174-1.208c.429,4.413.572,11.676.573,11.755a.5.5,0,0,0,.915.27l.755-1.123a22.436,22.436,0,0,1-1.25,5.374c-.336,1.055-.653,2.051-.87,3.015a.5.5,0,0,0,.793.506,30.651,30.651,0,0,0,6.043-6.92l-.006,1.588-.524,5.416a.5.5,0,0,0,.923.312c.007-.01.341-.548.7-1.125.123,3.1.233,6.3-.828,9.137C540.864,209.45,540.726,209.826,540.6,210.184Zm-.358,1.01c-.013-.064-.033-.128-.048-.193l.108.019Zm-19.344,29.087c-.11-.1-.222-.19-.333-.284l.416.224Zm-5.784,5.049.965.523q-.7.66-1.417,1.288c-1.862-1.725-3.757-3.411-5.7-5.037l7.618-4.024q1.785,1.355,3.487,2.8l-5.007,3.606a.5.5,0,0,0,.054.845Zm7.978,68.247c.383,1.938,1.242,5.016,2.071,7.993.427,1.532.833,3,1.15,4.212l-.011.01-.238.2c-.658-.52-1.425-1.1-2.221-1.7a40.9,40.9,0,0,1-3.682-2.963.5.5,0,0,0-.864.313,47.96,47.96,0,0,1-2.36,12.267,21.53,21.53,0,0,0-5.722,10.153,20.192,20.192,0,0,0-.9,7.677H429.631a139,139,0,0,1-14.763-15.07.5.5,0,0,0-.882.294l-3.31-5.23a.5.5,0,0,0-.918.34l.257,1.738c-1.061-1.052-2.239-2.144-3.559-3.363-1.092-1.007-2.277-2.1-3.552-3.321a36.618,36.618,0,0,0-3.9-3.488l-3.657-5.508a.5.5,0,0,0-.873.07l-1.016,2.248c-.535-.213-1.084-.407-1.652-.576l-5.423-11.563a.5.5,0,0,0-.928.057l-1.12,3.436c-.709-1.5-1.647-3.265-2.745-5.237.366-1.035.718-2.075,1.089-3.108.81-2.253,1.727-4.769,2.737-7.469q.579,1.19,1.194,2.363l.57,1.073c1.769,3.313,3.6,6.74,3.413,10.378a.5.5,0,0,0,.805.422,8.65,8.65,0,0,0,2.258-2.635l1.223,3.4a.5.5,0,0,0,.947-.016l.518-1.619A6.316,6.316,0,0,1,397.571,314a.5.5,0,0,0,.892.375l2.625-3.416a15.757,15.757,0,0,0,5.453,7.59.5.5,0,0,0,.8-.417l-.031-.835a37.159,37.159,0,0,1,7.975,9.2.5.5,0,0,0,.722.14,1.727,1.727,0,0,0,.656-1.072,80.036,80.036,0,0,1,12.727,11.29.5.5,0,0,0,.869-.359c-.165-3.6-2.275-6.757-4.531-9.628-1.307-1.663-2.688-3.31-4.023-4.9-2.246-2.68-4.569-5.452-6.591-8.361a35.139,35.139,0,0,1-5.847-12.536,9.258,9.258,0,0,0,3.29,2.687.5.5,0,0,0,.7-.565q-.761-3.2-1.689-6.366a29.8,29.8,0,0,0,3,1.839.493.493,0,0,0,.311.052,3.461,3.461,0,0,1,3.628,2.125.5.5,0,0,0,.951-.307l-.42-1.518L442.7,311.38a.5.5,0,0,0,.693-.635L442,307.387a30.423,30.423,0,0,0,15.525,4,.5.5,0,0,0,.322-.875l-1.437-1.27a70.86,70.86,0,0,0,33.763-4.25.5.5,0,0,0,.151-.841l-1.527-1.347a28.59,28.59,0,0,0,8.439.484,37.5,37.5,0,0,1-14.228,10.774.5.5,0,0,0-.157.811l2.769,2.794-3.271.973a.5.5,0,0,0,.247.968.523.523,0,0,1,.494.215,1.131,1.131,0,0,1,.2,1.074,3.35,3.35,0,0,1-1.908,1.491,37.721,37.721,0,0,1-17.716,3.059.483.483,0,0,0-.446.213.5.5,0,0,0-.045.492l.346.764a28.62,28.62,0,0,1-10.937-2.107.5.5,0,0,0-.657.643l1.47,3.805a21.333,21.333,0,0,1-9.757-5.51.5.5,0,0,0-.812.55c2.279,5.385,7.223,9.817,13.923,12.481,5.925,2.356,12.313,3.091,18.49,3.8a.559.559,0,0,0,.057,0,.5.5,0,0,0,.4-.807l-1.213-1.558a9.955,9.955,0,0,0,7.085-1.79.5.5,0,0,0-.165-.885l-1.463-.4a43.876,43.876,0,0,0,19.446-8.558.5.5,0,0,0-.164-.875,4.9,4.9,0,0,1-2.507-1.745,44.388,44.388,0,0,0,13.751-16.266.5.5,0,0,0-.029-.493.488.488,0,0,0-.438-.228,4.538,4.538,0,0,1-3.3-1.3,25.009,25.009,0,0,0,7.912-5.458,13.965,13.965,0,0,0,2.27-1.814c.039.136.081.276.119.41-.03-.145-.064-.289-.094-.434a12.377,12.377,0,0,0,2.688-3.722c3.033,3.419,3,6.977,2.969,11.061A37.462,37.462,0,0,0,523.088,313.577ZM407.422,219.34a.5.5,0,0,0,.59-.037l1.707-1.421-.341,1.123a.5.5,0,0,0,.215.57.491.491,0,0,0,.263.075.5.5,0,0,0,.345-.138l1.1-1.044-.108.526a.5.5,0,0,0,.78.508,3.678,3.678,0,0,0,1.725-2.294c.488-.053.977-.1,1.47-.147l0,.011a.5.5,0,0,0,.23.454.471.471,0,0,0,.058.032,6.868,6.868,0,0,0-.724,1.453.5.5,0,0,0,.034.413.485.485,0,0,0,.115.128,70.841,70.841,0,0,0-7.291,2.89,1.94,1.94,0,0,0-1.706.7c-.043.052-.077.108-.116.162-2.707,1.315-5.47,2.819-8.271,4.486a25.485,25.485,0,0,1-1.216-7.323c2.879-.747,5.779-1.438,8.72-2.017.56-.085,1.413-.225,2.449-.388-.087.24-.169.482-.236.728A.5.5,0,0,0,407.422,219.34ZM494.2,266.86a.5.5,0,0,0,.317.886.515.515,0,0,0,.122-.015,50.94,50.94,0,0,0,10.478-3.926q1.365,3.318,2.611,6.693l-1.971.965a.5.5,0,0,0-.267.567.481.481,0,0,0,.5.382l.218,0a11.48,11.48,0,0,1,2.3.243c1.382,3.84,2.684,7.717,3.953,11.608a31.865,31.865,0,0,1-11.6-1.107l5.671-2.879a.5.5,0,0,0,.146-.78,12.753,12.753,0,0,0,2.2-1.618.5.5,0,0,0-.315-.869l-3.86-.182,1.622-2.376a.5.5,0,0,0-.554-.761,10.5,10.5,0,0,1-3,.549.5.5,0,0,0-.417.239,10.43,10.43,0,0,1-7.128,4.781.5.5,0,0,0-.222.892l.407.309a17.049,17.049,0,0,1-5.579.518.529.529,0,0,0-.469.246.5.5,0,0,0,.016.529l5.437,8.175-4.2-1.049a.5.5,0,0,0-.53.773,21.189,21.189,0,0,0,3.447,3.8,17.118,17.118,0,0,1-8.2-4.311.5.5,0,0,0-.835.468,17.329,17.329,0,0,1,.367,3.557,29.886,29.886,0,0,1-8.2,7.516L476.077,298a.5.5,0,0,0-.82-.268,11.609,11.609,0,0,1-12.19,1.791.5.5,0,0,0-.659.671l.779,1.622a41.088,41.088,0,0,1-18.038-5.346.5.5,0,0,0-.7.646l1.078,2.313a68.208,68.208,0,0,1-22.382-10.794.5.5,0,0,0-.728.654l1.514,2.6a32.681,32.681,0,0,1-17.009-14.746.5.5,0,0,0-.776-.129,3.586,3.586,0,0,0-1.22,1.814,8.539,8.539,0,0,1-3.127-4.458.49.49,0,0,0-.519-.359.5.5,0,0,0-.457.435l-.108.836-2.2-5.093a.5.5,0,0,0-.959.2,30.925,30.925,0,0,0,1.716,10.076,51.176,51.176,0,0,1-4.823-6.69,230.027,230.027,0,0,1,10.99-21.813l4.938,1.24c1.753.609,3.537,1.217,5.384,1.816l-1.535,6.848a.5.5,0,0,0,.775.519l2.2-1.54.293,4.273a.5.5,0,0,0,.966.145l.747-1.943a29.626,29.626,0,0,0,12.275,11.441.5.5,0,0,0,.571-.805,7.077,7.077,0,0,1-1.556-2.292,16.128,16.128,0,0,0,9.785,4.027h.024a.5.5,0,0,0,.223-.948,28.273,28.273,0,0,1-12.25-11.869.5.5,0,0,0-.526-.256.5.5,0,0,0-.409.419l-.151,1a7.838,7.838,0,0,0-2.336-2.933.5.5,0,0,0-.777.235l-.483,1.41a6.012,6.012,0,0,1-.074-5.421c3.057.823,6.347,1.6,9.989,2.3a24.487,24.487,0,0,0,11.6,2.971h.078a43.383,43.383,0,0,0,5.363-.443,18.269,18.269,0,0,1-8.2,7.408.5.5,0,0,0,.206.956h0a21.656,21.656,0,0,0,10.367-2.687l-.97,3.515a.5.5,0,0,0,.822.5l3.438-3.184-.032,1.282a.5.5,0,0,0,.965.2l1.235-3.11a32.775,32.775,0,0,0,18.983,2.487.5.5,0,0,0,.169-.924l-6.812-4a11.894,11.894,0,0,0,2.964-.062.5.5,0,0,0,.425-.528,4.764,4.764,0,0,0-2.458-3.648,43.955,43.955,0,0,0,9.88-2.445c2.515-.91,5.014-1.978,7.431-3.01a102.468,102.468,0,0,1,10.145-3.909q2.356,4.4,4.37,8.968C500.275,262.11,497.164,264.418,494.2,266.86Zm20.936,25.68c.18.587.358,1.183.537,1.777a13.969,13.969,0,0,1-4.776,3.383,9.347,9.347,0,0,1-4.831-2.618l2.7-.07c.115,0,.233,0,.349-.009a.5.5,0,0,0,.47-.521.54.54,0,0,0-.513-.478l-.316.008a5.274,5.274,0,0,1-4.936-4.215,16.2,16.2,0,0,0,9.085-4.184Q514.023,289.077,515.133,292.54Zm-154.471,8.749c-3.359-4.175-6.746-8.74-8.781-13.823-.342-.852-.621-1.7-.871-2.556q2.95-2.2,5.9-4.39c.567-.426,1.134-.855,1.7-1.282a42.94,42.94,0,0,0,3.662,5.809q.448,1.239.9,2.481c2.125,5.83,4.13,11.336,4.038,14.081a.5.5,0,0,0,.858.365,8.572,8.572,0,0,0,1.188-1.543,85.732,85.732,0,0,0,8.57,19.281,78.515,78.515,0,0,0-9.206,2.785q-1.473.535-2.934,1.076l-.92-.84,1.536-.541a.5.5,0,0,0,.019-.937,33.712,33.712,0,0,1-15.714-12.925l2.88,2.974a.5.5,0,0,0,.77-.631,59.822,59.822,0,0,1-8.138-17.184,30.061,30.061,0,0,0,14.02,8.6.5.5,0,0,0,.522-.8ZM350.481,273.6a.5.5,0,0,0,.381-.169l1.056-1.195.07,3.2a.5.5,0,0,0,.966.17l.574-1.47,1.848,4.136a.5.5,0,0,0,.3.271.5.5,0,0,0,.4-.038,4.11,4.11,0,0,0,1.476-1.414q.384.844.806,1.675c-.6.485-1.2.956-1.8,1.444-1.856,1.539-3.764,3.148-5.555,4.691A22.127,22.127,0,0,1,350.481,273.6Zm155.388-68.182a25.4,25.4,0,0,1,5.74-1.375,3.722,3.722,0,0,0-.615,1.454.5.5,0,0,0,.1.431.485.485,0,0,0,.407.178,13.256,13.256,0,0,1,5.766,1.069c.253.092.522.185.787.277-3.433-.229-6.84-.365-10.2-.4a10.307,10.307,0,0,0-2.616-1.2Zm11.942,2.956-.567.623a.5.5,0,0,0,.317.834l.243.025c.775.076,1.653.163,1.881.678.683,1.545.625,3.982.262,6.659-.179-.035-.358-.074-.537-.108-2.178-.365-4.375-.749-6.583-1.112a11.89,11.89,0,0,0-1.1-4.607A10.426,10.426,0,0,0,509.149,208Q513.484,208.092,517.811,208.373Zm-3.705,8.688c1.91.309,3.814.648,5.714,1-.053.34-.11.683-.171,1.027-2.242-.047-4.484-.044-6.717.033a7.791,7.791,0,0,0-.027-1.729.482.482,0,0,0-.077-.147c0-.125,0-.247,0-.372Zm-1.278,3.062q3.322-.121,6.647-.08c-.288,1.516-.622,3.036-.936,4.457-.337,1.522-.653,2.959-.882,4.232a61.731,61.731,0,0,1-4.865,5.389q-1.121-.743-2.266-1.447l.479-.624a.5.5,0,0,0,.043-.541.491.491,0,0,0-.476-.262l-1.664.119C510.663,228.887,512.346,223.713,512.828,220.123Zm-.87,14.674a12.5,12.5,0,0,1-3.111,1.169c-.357.1-.72.2-1.087.314l2.134-2.782C510.586,233.926,511.279,234.35,511.958,234.8ZM383.885,212.511l1.614.093a.5.5,0,0,0,.454-.762l-.374-.605c.86-.129,1.719-.26,2.58-.379,1.695-.192,3.416-.314,5.153-.387-3.022.966-6.124,2.1-9.269,3.362Zm1.133-2.186-.539-.875.805.064a.489.489,0,0,0,.449-.212.5.5,0,0,0,.046-.494l-1.063-2.322a8.662,8.662,0,0,1,5.812-2.655.5.5,0,0,0,.169-.962,4.082,4.082,0,0,1-1.658-1.277,15.531,15.531,0,0,1,5.405-.151c1.822,1.542,3.7,3.018,5.642,4.409a10.767,10.767,0,0,0-5.478,3.682Q389.831,209.693,385.018,210.325Zm2.28,45.021,1.4-3.576a.5.5,0,0,0-.245-.631,10.938,10.938,0,0,0-7.568-.711,8.767,8.767,0,0,1,2.309-2.965.5.5,0,0,0-.045-.805,11.26,11.26,0,0,0-8.291-1.516q3.106-2.517,6.227-4.89c.4-.207.809-.4,1.219-.588a21.083,21.083,0,0,1,7.076,2.777,2.131,2.131,0,0,0-.852,1.182.5.5,0,0,0,.316.6,45.585,45.585,0,0,1,9.2,4.447,2.044,2.044,0,0,0-.486.735.5.5,0,0,0-.025.166q-3.57,2.416-7.083,4.914A12.83,12.83,0,0,0,387.3,255.346Zm-3.124-40.415c2.992-1.179,6.034-2.27,9.148-3.254a13.593,13.593,0,0,0-.532,8.693c-2.583.724-5.141,1.519-7.683,2.362ZM337.8,325.811a91.433,91.433,0,0,1,.922-16.6c.33.337.662.671,1.011.987a.5.5,0,0,0,.654.015l10.59,11.124L349,321.262a.5.5,0,0,0-.312.9q3.59,2.607,7.153,5.249c-2.336.981-4.647,2.014-6.928,3.134a42.745,42.745,0,0,0-9.384,6.055A49.819,49.819,0,0,1,337.8,325.811Zm28.888-53.67a.492.492,0,0,0-.231-.279.5.5,0,0,0-.455,0,3.2,3.2,0,0,0-1.09.934,33.939,33.939,0,0,1,1.37-16.69,17.26,17.26,0,0,1,1.411-1.4,37.3,37.3,0,0,1,7.335-2.23,18.676,18.676,0,0,0-.893,9.845.5.5,0,0,0,.42.4.492.492,0,0,0,.519-.268l.412-.812a10.369,10.369,0,0,0,.564,3.368Q371.338,268.535,366.69,272.141Zm26.76-.085a.508.508,0,0,0-.487-.256.5.5,0,0,0-.427.348l-.8,2.537a33.544,33.544,0,0,1-2.373-8.637,44.414,44.414,0,0,1,4.017-10.952.5.5,0,0,0-.413-.732c-.253-.015-.508,0-.762,0q3.039-2.124,6.118-4.191l6.112,1.535a219.278,219.278,0,0,0-10.564,21.08C393.732,272.544,393.586,272.3,393.45,272.056ZM525.1,222.914a2.45,2.45,0,0,0-.443-1.651.5.5,0,0,0-.357-.164.549.549,0,0,0-.365.143c-.637.627-1.2,1.228-1.726,1.816.477-.966.921-1.936,1.307-2.921,1.613.056,3.225.125,4.837.216C527.308,221.134,526.232,221.957,525.1,222.914Zm-1.257-3.681c.041-.115.08-.232.121-.348.778.159,1.559.3,2.336.469Q525.075,219.287,523.845,219.233ZM390.161,229.276a.5.5,0,0,0-.933.087l-.837,3.114-2.319-1.663-.846-7.077c2.583-.86,5.184-1.671,7.811-2.411a34.657,34.657,0,0,0,3.272,7.169c-1.621.987-3.254,2.031-4.9,3.118C390.967,230.85,390.544,230.073,390.161,229.276Zm-11.984,71.331a226.775,226.775,0,0,1-8-23.148.5.5,0,0,0-.756-.279.306.306,0,0,1-.372-.069.5.5,0,0,0-.873.11,12.325,12.325,0,0,0-.421,1.287l-.9-5.494q4.852-3.669,9.726-7.31a.5.5,0,0,0,.363-.083l.383-.286a82.569,82.569,0,0,0,7.694,29.806c-1.065,3-1.988,5.743-2.746,8.1-.3.975-.594,1.972-.886,2.966C380.423,304.477,379.345,302.607,378.177,300.607Zm151.649-81.345q-2.784-.618-5.575-1.2a45.516,45.516,0,0,0,1.808-8.286.5.5,0,0,0-.725-.509c-.08.041-.191.021-.424-.039-.079-.021-.165-.043-.258-.061.016-.075.032-.162.049-.24q6.73.656,13.418,1.732A27.916,27.916,0,0,1,529.826,219.262ZM503.38,233.091a.5.5,0,0,0-.145.453.5.5,0,0,0,.3.369l1.113.457a18.642,18.642,0,0,1-2.4,2.5,99.166,99.166,0,0,0-8.362-5.469,44.785,44.785,0,0,0-7.384-3.22,30.411,30.411,0,0,1,3.65-.37.5.5,0,0,0,.224.031l.6-.054a.5.5,0,0,0,.3-.136,10.669,10.669,0,0,1,4.446.167.5.5,0,0,0,.56-.241.394.394,0,0,1,.349-.161h0a.393.393,0,0,1,.349.16.5.5,0,0,0,.675.195.492.492,0,0,0,.244-.535q3.827,1.659,7.5,3.661A27.588,27.588,0,0,1,503.38,233.091ZM484.7,228.528c1.015.328,2.023.675,3.017,1.064a60.215,60.215,0,0,1,13.82,7.883,42.351,42.351,0,0,1-6.677,4.341,41.135,41.135,0,0,0-9.278-10.128,15.705,15.705,0,0,0-3.829-2.356C482.72,229.013,483.705,228.749,484.7,228.528Zm-77.177,15.741q1.283-.773,2.575-1.53-.6.865-1.195,1.756C408.447,244.434,407.989,244.36,407.522,244.269Zm-1.341-.3a39.831,39.831,0,0,1-4.44-1.448,33.673,33.673,0,0,1-9.779-10.008q2.445-1.615,4.87-3.1l.364.631a.5.5,0,0,0,.9-.42c-.1-.275-.18-.54-.271-.81q3.359-2.01,6.655-3.724a7.534,7.534,0,0,0,.477,2.545.5.5,0,0,0,.445.322.492.492,0,0,0,.472-.28l.242-.5.484.718a.5.5,0,0,0,.378.218.49.49,0,0,0,.406-.162l.033-.035a3.2,3.2,0,0,0,2.576-.151.5.5,0,0,0,.176-.153,1.266,1.266,0,0,1,.363-.34l.01.012a.545.545,0,0,0,.387.179,53.459,53.459,0,0,1,11.327,1.095.492.492,0,0,0,.39-.081.5.5,0,0,0,.206-.341,1.325,1.325,0,0,1,.687-.961c.387.133.78.245,1.174.353-4.578,2.846-9.03,7.529-13.239,13.28Q408.8,242.337,406.181,243.965Zm-27.052-26.129-1.175-.3c.266-.118.533-.233.8-.349C378.881,217.4,379,217.624,379.129,217.836Zm1.19,12.259a23.7,23.7,0,0,1-3.343-3.412q.767-.294,1.535-.581A27.939,27.939,0,0,0,380.319,230.1ZM285.653,350.266a.482.482,0,0,0,.031-.135,28.419,28.419,0,0,1,7.133-16.393.5.5,0,0,0,.688-.029l5.117-5.28c-1.35,2.331-2.526,4.542-3.406,6.475,1.564-2.713,3.206-5.381,4.9-8.016l2.563-2.645-2.479,7.2a.5.5,0,0,0,.861.477l.522-.645-2.474,14.58-.45,5.882H285.087Zm23.976-13.421c1.137-6.255,2.5-12.184,6.541-16l.156.514a202.3,202.3,0,0,0-2.729,27.627.5.5,0,0,0,.935.261l2.593-4.576c-.229,2.334-.385,4.7-.48,7.069h-9.728Zm206.3-42.806c-.149-.63-.293-1.26-.449-1.887-.561-2.162-1.22-4.561-1.972-7.122a.5.5,0,0,0,.079-.545.477.477,0,0,0-.313-.239c-1.053-3.541-2.277-7.369-3.664-11.311,5.211,1.578,9.5,6.556,9.738,12.021A13.093,13.093,0,0,1,515.927,294.039Zm-7.345-23.961c-.818-2.23-1.687-4.48-2.6-6.719q2.164-1.141,4.206-2.485a9.263,9.263,0,0,1,6.049,5.458ZM502.9,254.649a.5.5,0,0,0-.207.744,6.809,6.809,0,0,0,3.753,2.638c-.716.45-1.422.92-2.13,1.386-1.31-2.993-2.7-5.928-4.174-8.729.417-.118.834-.235,1.254-.34a.5.5,0,0,0,.022-.964l-1.6-.474,9.243-4.3a.5.5,0,0,0-.029-.919l-1.774-.69.794-.419q3.014,2.5,5.9,5.152A46.542,46.542,0,0,1,502.9,254.649ZM362.882,203.63c-.094-1.277-.152-2.549-.151-3.809l.125.174a.5.5,0,0,0,.894-.4,8.874,8.874,0,0,1,.058-4.112.482.482,0,0,0,.016-.125l-.007-1.709a31.146,31.146,0,0,0,6.188,6.194.5.5,0,0,0,.788-.511l-1.531-6.689.161.233a.5.5,0,0,0,.912-.291,90.651,90.651,0,0,1,.578-11.763l1.225,1.237a.5.5,0,0,0,.844-.461l-.591-2.64.314.339a.5.5,0,0,0,.836-.513l-.385-1.045a36.27,36.27,0,0,0,6.953,9.139.5.5,0,0,0,.093.574l2.949,2.984a.5.5,0,0,0,.107.263,25.293,25.293,0,0,0,3.853,3.846,5.619,5.619,0,0,1-3.385.771.516.516,0,0,0-.455.206.5.5,0,0,0-.05.5l1.028,2.292-2.2.1a.5.5,0,0,0-.457.644l.47,1.56-2.945.087a.5.5,0,0,0-.464.355,17.622,17.622,0,0,0,.034,10.274l-.179.032a5.682,5.682,0,0,1-1.55-1.1.5.5,0,0,0-.843.469c.085.349.2.694.3,1.04-1.689.346-3.386.717-5.1,1.132-.893.2-1.785.414-2.678.621A40.663,40.663,0,0,1,362.882,203.63Zm14.028,14.359a27.4,27.4,0,0,0,1.287,7.173q-.926.348-1.848.7a22.68,22.68,0,0,1-3.193-6.144C374.4,219.133,375.654,218.552,376.91,217.989ZM259.574,350.535a.485.485,0,0,0,.012-.142,9.2,9.2,0,0,1,2.469-6.725.5.5,0,0,0-.7-.709l-1.017.943c4.455-12.149,14.05-20.6,21.5-25.635a93.2,93.2,0,0,1,9.171-5.393A137.2,137.2,0,0,0,272.471,345a.5.5,0,0,0,.765.587l1.971-1.493a51.559,51.559,0,0,0-3.253,7.645H259.268C259.369,351.337,259.482,350.938,259.574,350.535Zm-10.956-8.2-2.89,4.522a.5.5,0,0,0,.72.67l5.607-4.173-4.081,8.382H237.528A65.088,65.088,0,0,1,248.618,342.337ZM467.407,95.324l-.078-.028Zm1.565-.651c.116.079.226.164.346.236-.12-.072-.23-.157-.346-.236-.154-.106-.309-.215-.463-.323C468.663,94.458,468.818,94.567,468.972,94.673Z"/></svg>