<?xml version="1.0" encoding="utf-8"?>
<!-- Generator: Adobe Illustrator 24.2.3, SVG Export Plug-In . SVG Version: 6.00 Build 0)  -->
<svg version="1.1" id="f18756e3-0f45-4711-94cd-98fbe66e5057"
	 xmlns="http://www.w3.org/2000/svg" xmlns:xlink="http://www.w3.org/1999/xlink" x="0px" y="0px" viewBox="0 0 713.7 486.2"
	 style="enable-background:new 0 0 713.7 486.2; fill: #215342;" xml:space="preserve" height="282" width="315" transform="translate(10, 1)">
<g>
	<path d="M319.4,218.5L319.4,218.5L319.4,218.5c-0.9-0.1-1.7-0.5-2.3-1.1c-0.4-0.4-0.7-0.8-1-1.2c-0.3-0.4-0.6-0.7-0.9-1.1
		c-2-2.1-5-3.1-7.9-2.6c0,0,0,0,0,0c0,0,0,0,0,0c-0.1,0-0.2,0.1-0.2,0.1c0,0,0,0-0.1,0c0,0-0.1,0.1-0.1,0.2c0,0,0,0,0,0.1
		c0,0,0,0,0,0c0,0.1,0,0.1,0,0.2c0,0,0,0,0,0c0,0,0,0,0,0c0,0.1,0.1,0.2,0.1,0.2c0,0,0,0,0,0c0.1,0.1,0.1,0.1,0.2,0.1
		c2.3,0.7,4.3,2.2,5.7,4.2c0.6,0.7,0.8,1.7,0.6,2.7c-0.5,0.7-1.2,1.2-2.1,1.4c-0.2,0.1-0.4,0.2-0.6,0.3c0,0-0.1,0-0.1,0
		c-0.1,0-0.2,0-0.2,0.1c-0.1,0-0.1,0-0.2,0c-0.1,0-0.1,0-0.2,0c-0.1,0-0.2,0-0.2,0c0,0-0.1,0-0.1,0c-0.1,0-0.2,0-0.3-0.1
		c0,0-0.1,0-0.1,0c-0.1,0-0.2-0.1-0.3-0.1c0,0-0.1,0-0.1-0.1c-0.1-0.1-0.2-0.1-0.3-0.2c0,0,0,0-0.1-0.1c-0.1-0.1-0.2-0.2-0.2-0.2
		c0,0,0,0,0,0c0,0,0,0,0,0c-0.1-0.2-0.2-0.4-0.3-0.6c-0.3-0.7-0.9-1.2-1.5-1.5c-0.5-0.2-1-0.2-1.5-0.1c-0.8,0.2-1.5,0.7-1.9,1.4
		c-0.5,1.1-0.7,2.3-0.7,3.5c0.1,1-0.1,1.9-0.4,2.9c-0.8,1.2-2,2.1-3.4,2.5c0,0,0,0,0,0c-0.1-0.3-0.2-0.5-0.2-0.8l0-0.3
		c-0.1-0.6-0.4-1.1-1-1.4c-0.2-0.1-0.3-0.1-0.5-0.1c-0.2,0-0.3,0.1-0.5,0.2c-0.2,0.2-0.4,0.5-0.4,0.8c0,0.1,0,0.2-0.1,0.2
		c-0.1,0.2-0.2,0.3-0.4,0.3c-0.2,0-0.4,0-0.6,0c-0.5-0.3-0.9-0.7-1.2-1.1c-0.8-1-1.6-2.1-1.4-3.2c0.1-0.4,0.3-0.8,0.5-1.2
		c0.2-0.3,0.3-0.6,0.5-0.9c0-0.1,0-0.1,0.1-0.2c0.1-0.2,0.1-0.3,0.1-0.5c0-0.1,0-0.2,0.1-0.4c0-0.1,0-0.2,0-0.4c0-0.1,0-0.2,0-0.4
		c0-0.1,0-0.2,0-0.4c0-0.2-0.1-0.4-0.1-0.6c0-0.1-0.1-0.3-0.1-0.4c0-0.1-0.1-0.2-0.2-0.3c-0.1-0.1-0.1-0.2-0.2-0.3
		c-0.1-0.1-0.1-0.2-0.2-0.3c-0.1-0.1-0.2-0.2-0.2-0.3c-0.1-0.1-0.2-0.2-0.2-0.3c0,0-0.1-0.1-0.1-0.1c-0.2-0.1-0.3-0.3-0.5-0.4
		c-0.1-0.1-0.2-0.1-0.3-0.2c-0.1-0.1-0.2-0.1-0.4-0.2c0,0-0.1,0-0.1,0c0,0-0.1,0-0.1,0c-0.2-0.1-0.4-0.1-0.6-0.1c-0.1,0-0.1,0-0.2,0
		c-0.2,0-0.4,0-0.6,0c-0.1,0-0.1,0-0.2,0c-0.2,0-0.5,0-0.7,0.1c0,0-0.1,0-0.1,0c-0.2,0-0.4,0.1-0.6,0.2c-0.1,0-0.2,0.1-0.3,0.1
		c-0.1,0.1-0.3,0.1-0.4,0.2c-0.1,0.1-0.2,0.1-0.2,0.2c-0.2,0.1-0.3,0.3-0.5,0.4c0,0-0.1,0.1-0.1,0.1c0,0,0,0,0,0
		c-1.2-0.5-1.9-1.7-1.8-2.9c0.2-1.4,1-2.7,2.3-3.5c1.3-0.8,2.7-1.4,4.2-1.8c0.3-0.1,0.5-0.2,0.8-0.2c0.3-0.1,0.6-0.2,0.9-0.3
		c0.1,0,0.1-0.1,0.2-0.2c0,0,0,0,0,0c0-0.1,0.1-0.1,0.1-0.2c0,0,0,0,0,0c0-0.1,0-0.1,0-0.2c0,0,0,0,0,0c0,0,0,0,0-0.1c0,0,0,0,0-0.1
		c0,0,0-0.1-0.1-0.1c0,0,0,0-0.1-0.1c0,0-0.1-0.1-0.2-0.1c0,0,0,0,0,0c-1.7-0.2-3.4-0.1-5.1,0.2c-2.7,0.6-5.3,2-7.4,4c0,0,0,0,0,0
		c0,0.1-0.1,0.1-0.1,0.2c0,0,0,0.1,0,0.1c0,0,0,0,0,0c0,0.1,0,0.1,0,0.2c0,0,0,0,0,0c0,0,0.1,0.1,0.1,0.1c0,0,0,0,0,0c0,0,0,0,0,0
		c0.1,0.1,0.2,0.1,0.3,0.1c1.1,0.2,1.6,1.6,1.8,2.1c0.1,0.3,0.2,0.6,0.2,0.9c0.2,1.8,1.3,3.5,3,4.3c0.5,0.3,1,0.7,1.4,1.1
		c0.8,0.9,1.3,2,1.6,3.1c0.2,0.4,0.3,0.9,0.5,1.3c0.7,1.5,1.6,3,2.6,4.3c0.6,0.8,1.2,1.7,1.7,2.6c0.7,1.2,1.2,2.5,1.4,3.8
		c-1.3,3.4-3.8,6.3-7.1,8c-2.3,1.2-4.9,2-7.5,2.4c-2.6,0.5-5.2,0.7-7.7,0.9c0,0,0,0,0,0c0,0,0,0,0,0c-0.1,0-0.1,0-0.2,0.1
		c0,0-0.1,0-0.1,0.1c0,0-0.1,0-0.1,0.1c0,0,0,0.1-0.1,0.1c0,0,0,0,0,0c0,0.1,0,0.1,0,0.2c0,0,0,0,0,0c0,0,0,0,0,0
		c0,0.2,0.1,0.3,0.2,0.4c3.9,2.3,8.5,1.7,13,1.1c3.3-0.5,6.7-0.9,9.8-0.2c3.7,0.8,6.2,2.6,8.9,4.5c3.6,2.5,7.3,5.1,13.8,5.9
		c0,0,0,0,0.1,0c0,0,0,0,0,0c0,0,0,0,0,0c0.1,0,0.1,0,0.2,0c0.1,0,0.1-0.1,0.2-0.1c0,0,0,0,0,0c0.1-0.1,0.2-0.2,0.2-0.4
		c0-0.1,0-0.3-0.1-0.3c-1.6-1.7-3.4-3-5.6-3.9c-0.9-0.4-1.9-0.9-3.1-1.7c-3.9-2.5-7.1-5.9-9.5-9.9c-1.7-2.8-2-6.2-0.9-9.3
		c0.5-0.5,1.1-1.1,1.6-1.6c1.1-1,2.1-2.1,3-3.2c0.2-0.3,0.4-0.6,0.6-0.9c0.6-1.4,1.9-2.5,3.4-2.8c0.2,0,0.4-0.1,0.7-0.1c0,0,0,0,0,0
		l0.4-0.1c4.2-1,8-3.2,10.8-6.4c0.2-0.2,0.2-0.5,0-0.7C319.7,218.6,319.6,218.5,319.4,218.5z"/>
	<path d="M402.5,202l2.9,1.4c0.1,0.1,0.3,0.1,0.4,0c0,0,0,0,0.1,0c0,0,0.1,0,0.1-0.1c0,0,0.1-0.1,0.1-0.1c0,0,0,0,0,0c0,0,0,0,0,0
		c0.1-0.1,0.1-0.3,0-0.4c-3.2-7.7-9.8-13.5-17.8-15.7c0,0,0,0,0,0c-0.1,0-0.1,0-0.2,0c0,0,0,0-0.1,0c-0.1,0-0.1,0.1-0.2,0.1
		c0,0,0,0,0,0c0,0,0,0.1-0.1,0.1c0,0,0,0,0,0.1c0,0,0,0,0,0c0,0,0,0,0,0c0,0.1,0,0.1,0,0.2c0,0,0,0.1,0,0.1c0,0.1,0.1,0.1,0.1,0.2
		c0,0,0,0,0,0c2.6,2.2,5.1,4.6,7.3,7.2c0,0,0,0,0,0l-3.9-1.3c0,0,0,0-0.1,0c-0.1,0-0.1,0-0.2,0c0,0-0.1,0-0.1,0
		c-0.1,0-0.1,0-0.1,0.1c0,0,0,0-0.1,0c0,0,0,0.1-0.1,0.1c0,0,0,0.1,0,0.1c0,0,0,0,0,0c0,0,0,0,0,0.1c0,0.1,0,0.1,0,0.2
		c0,0,0,0.1,0,0.1c0,0.1,0,0.1,0.1,0.1c0,0,0,0,0,0.1c3.6,3.8,6,8.5,6.9,13.6c0,0,0,0,0,0c-2-1.8-4.2-3.3-6.5-4.6c0,0,0,0-0.1,0
		c-0.1,0-0.1,0-0.2,0c0,0-0.1,0-0.1,0c-0.1,0-0.1,0-0.2,0.1c0,0,0,0,0,0c0,0,0,0-0.1,0.1c0,0,0,0.1-0.1,0.1c0,0,0,0,0,0c0,0,0,0,0,0
		c0,0.1,0,0.1,0,0.2c0,0,0,0.1,0,0.1c0,0.1,0,0.1,0.1,0.2c0,0,0,0,0,0c3.2,4.3,4.8,9.6,4.4,15c0,0,0,0,0,0l-4.8-1
		c-0.2,0-0.4,0-0.5,0.2c0,0.1-0.1,0.1-0.1,0.2c-0.1,0.3,0.1,0.5,0.4,0.6c3.8,1,7.2,3,9.8,5.9c0.1,0.1,0.1,0.1,0.2,0.1c0,0,0,0,0,0
		c0,0,0.1,0,0.1,0c0,0,0,0,0.1,0c0,0,0.1,0,0.1,0c0,0,0,0,0.1,0c0,0,0,0,0.1,0c0,0,0,0,0,0c0.1-0.1,0.1-0.1,0.1-0.2
		c0.7-2.6,0.9-5.2,0.5-7.9l0,0l6.9,9.2c0.1,0.1,0.1,0.1,0.2,0.2c0,0,0,0,0,0c0.1,0,0.1,0,0.2,0c0,0,0,0,0,0c0,0,0.1,0,0.1,0
		c0,0,0.1,0,0.1,0c0,0,0.1,0,0.1-0.1c0,0,0,0,0.1-0.1c0,0,0-0.1,0.1-0.1c0,0,0,0,0-0.1c0,0,0-0.1,0-0.1c0,0,0,0,0,0c0,0,0,0,0,0
		c0,0,0,0,0,0C408.1,217.7,405.9,209.6,402.5,202L402.5,202z"/>
	<path d="M379.6,197.6c-0.1-0.1-0.3-0.1-0.5,0c-9.6,5.1-20.4,7.2-31.2,6c-2.1-0.2-4.1-0.7-6-1.6c-0.5-0.2-0.9-0.4-1.4-0.6
		c0,0,0,0,0,0c-0.1,0-0.1,0-0.2,0c0,0,0,0-0.1,0c-0.1,0-0.1,0.1-0.2,0.1c0,0,0,0,0,0c0,0,0,0,0,0.1c0,0,0,0.1-0.1,0.1c0,0,0,0,0,0
		c0,0,0,0,0,0c0,0.1,0,0.1,0,0.2c0,0,0,0,0,0.1c0,0.1,0.1,0.1,0.1,0.2c0,0,0,0,0,0c4.1,3.7,9.5,5.8,15.1,5.9c0,0,0,0,0,0
		c-1.3,0.8-2.9,1.3-4.5,1.3h0c-0.3,0-0.5,0.2-0.5,0.5c0,0.2,0.1,0.4,0.3,0.5c0.1,0,0.1,0,0.2,0.1c1.3,0.1,2.7,0.2,4,0.2
		c5.9,0,11.7-1.3,17-3.9c0.2-0.1,0.3-0.4,0.2-0.7c-0.1-0.1-0.2-0.2-0.3-0.3l0,0l-2-0.6c0,0,0,0,0,0c4.1-0.9,7.8-3.4,10.2-6.9
		c0.1-0.2,0.1-0.4,0-0.6C379.7,197.7,379.7,197.7,379.6,197.6z"/>
	<path d="M272.4,187.8c-0.1-0.1-0.1-0.1-0.2-0.1c0,0,0,0,0,0l0,0c-5-1.3-9.6-3.6-13.6-6.7c-3.1-2.4-5.9-5.3-8.2-8.6
		c-0.6-0.8-1-1.6-1.4-2.6l-0.1-0.2c0,0,0,0,0,0c0-0.1-0.1-0.1-0.1-0.2c0,0,0,0-0.1,0c0,0-0.1-0.1-0.2-0.1c0,0,0,0-0.1,0
		c0,0-0.1,0-0.1,0c0,0,0,0-0.1,0c0,0,0,0-0.1,0c0,0,0,0,0,0c0,0-0.1,0-0.1,0.1c0,0-0.1,0-0.1,0.1c0,0,0,0.1,0,0.1c0,0,0,0.1,0,0.1
		c-0.3,2-0.1,4.1,0.7,6l-0.8-0.6c-0.1,0-0.1-0.1-0.2-0.1c0,0,0,0,0,0c-0.1,0-0.1,0-0.2,0c0,0,0,0,0,0c-0.1,0-0.1,0-0.1,0.1
		c0,0,0,0,0,0c0,0-0.1,0-0.1,0.1c0,0,0,0,0,0c0,0,0,0,0,0.1c0,0,0,0.1,0,0.1c0,0,0,0,0,0c0,0.1,0,0.1,0,0.2c0.7,2.5,2.2,4.8,4.3,6.4
		c0.3,0.2,0.6,0.4,0.9,0.6c0,0,0,0,0,0c-0.5-0.1-0.9-0.3-1.3-0.6c0,0,0,0-0.1,0c0,0-0.1,0-0.1,0c0,0-0.1,0-0.1,0c0,0,0,0-0.1,0
		c0,0-0.1,0-0.1,0c0,0,0,0,0,0c0,0-0.1,0.1-0.1,0.1c0,0,0,0,0,0c0,0,0,0,0,0c0,0,0,0.1,0,0.1c0,0,0,0,0,0c0,0.1,0,0.1,0,0.2
		c0,0,0,0,0,0c0,0.1,0,0.1,0,0.2c0,0,0,0,0,0c0,0.1,0.1,0.1,0.1,0.2c0,0,0,0,0,0c4.1,3.3,8.9,5.5,14.1,6.5c0,0,0.1,0,0.1,0
		c0.3,0,0.5-0.2,0.5-0.5c0-0.1,0-0.1,0-0.2c0,0,0,0,0,0c0,0,0-0.1-0.1-0.1l-0.6-0.7c2.5,0.7,5.1,1,7.7,0.8c0,0,0,0,0.1,0
		c0.1,0,0.1,0,0.2-0.1c0,0,0.1,0,0.1-0.1c0,0,0.1-0.1,0.1-0.2c0-0.1,0-0.1,0-0.2C272.5,188,272.5,187.9,272.4,187.8
		C272.4,187.8,272.4,187.8,272.4,187.8z"/>
	<path d="M340.8,181.4c-2.1,1.7-4.1,3.5-5.9,5.2c-3,2.7-5.9,5.6-8.6,8.7c-0.1,0.1-0.1,0.1-0.1,0.2c-0.1,0.7-0.2,1.4-0.2,2.2
		c0,2.2,0.7,4.3,1.8,6.2c0.1,0.1,0.3,0.2,0.4,0.2c0.1,0,0.1,0,0.2,0c0.2-0.1,0.4-0.3,0.3-0.5c-0.1-1.6,0.1-3.3,0.5-4.8c0,0,0,0,0,0
		c0,0,0,0.1,0,0.1c0,0.1,0,0.1,0,0.2c0,0.1,0,0.2-0.1,0.3c0,0.1,0,0.1,0,0.2c0,0.2,0.1,0.4,0.3,0.4c0.3,0.1,0.5,0,0.6-0.3l1.4-3.6
		c0.8-0.1,1.5-0.5,2.1-1.1c0.4,0.2,0.9,0.4,1.3,0.7l0.1,0.1c4.2,2.5,9.4,3.8,16,3.8c0.7,0,1.3,0,2,0c2.6,0,5.2-0.4,7.6-1.2
		c0.5-0.2,1-0.4,1.5-0.6c1.7-0.7,3.2-1.7,4.4-3c0.8-0.8,1.6-1.6,2.3-2.5c0.9-1.1,1.9-2.1,3-3c1.5-1.3,3.9-2.9,6.6-2.7
		c0.2,0,0.4-0.1,0.5-0.3c0,0,0,0,0,0c0.1-0.2,0.1-0.4,0-0.5c-5.2-6.8-13.4-10.7-21.9-10.5C351,175.3,345.3,177.5,340.8,181.4z
		 M370.3,185.6L370.3,185.6L370.3,185.6c0.1,0.9-0.2,1.8-0.7,2.5c-0.9,1.6-2,3.1-3.3,4.5c-0.1,0-0.2,0-0.3,0.1
		c-3.3,2.7-7.3,4.5-11.6,5.3c-4.2,0.7-8.6,0-12.4-2c-1.3-0.6-2.4-1.6-3.1-2.9c0,0,0,0,0,0c-0.8-1.7-0.9-3.7-0.2-5.5
		c0.3-0.8,0.7-1.6,1.2-2.4c0.5-0.6,1.1-1.1,1.7-1.7c0.2-0.2,0.4-0.3,0.6-0.5c1.2-0.9,2.5-1.8,3.8-2.5c2.9-1.8,6.2-2.8,9.6-2.8
		c4.2,0,8.5,1.9,12.9,5.4C369.3,183.7,370,184.6,370.3,185.6z"/>
	<path d="M353,179.3c-0.6,0.5-0.9,1.2-0.9,2c0,0,0,0,0,0c0,0.1,0,0.2,0.1,0.2c0,0,0,0,0,0c0,0.1,0.1,0.1,0.2,0.2c0,0,0,0,0,0
		c0.1,0,0.1,0,0.2,0c0,0,0,0,0,0c0,0,0,0,0,0c0,0,0,0,0.1,0c0,0,0.1,0,0.1,0c0,0,0.1,0,0.1,0c0,0,0.1-0.1,0.1-0.1c0,0,0,0,0,0
		c0.5-0.7,1.4-1,2.2-0.7c0.9,0.4,1.5,1.2,1.7,2.1c0,0.2,0.1,0.5,0.1,0.7c0,0.7-0.1,1.4-0.3,2.1c-1.2,0.9-3.1,0.9-4.9-0.1
		c-0.1-0.1-0.2-0.1-0.4,0c0,0,0,0,0,0c0,0-0.1,0-0.1,0.1c0,0,0,0,0,0c0,0-0.1,0.1-0.1,0.1c0,0,0,0,0,0c0,0,0,0,0,0.1
		c0,0,0,0.1,0,0.1c0,0.1,0,0.1,0,0.2c0,0,0,0,0,0c0,0,0,0,0,0c0.3,2.2,0.8,4.3,1.5,6.4c0.2,0.8,0.7,1.5,1.3,2
		c0.3,0.1,0.6,0.2,0.9,0.2c0.5,0,1-0.2,1.4-0.4c0.6-0.4,1-1,1.4-1.6c1.3-2.2,2-4.7,2.2-7.2c0-0.4,0.1-0.7,0.1-1.1
		c0-1.1-0.2-2.2-0.7-3.2c-0.6-1.5-2-2.5-3.6-2.7C354.6,178.4,353.7,178.7,353,179.3z"/>
	<path d="M273,179c0.1,0,0.1,0,0.2,0c0.3,0,0.6-0.2,0.8-0.4c0.1-0.1,0.2-0.1,0.2-0.2c2.2-2.4,4-5,5.5-7.9c0.1-0.2,0.1-0.4,0-0.5
		c-0.1-0.2-0.3-0.2-0.5-0.2c-1.2,0.1-2.3-0.3-3.1-1.2c-0.7-0.9-0.8-2.1-0.2-3.1c0.1-0.1,0.2-0.2,0.3-0.3c0.7-0.6,1.7-0.8,2.6-0.3
		c0,0,0,0,0,0c0.1,0,0.1,0.1,0.2,0.1c0,0,0.1,0,0.1,0c0.1,0,0.2,0,0.2-0.1c0,0,0,0,0,0c0,0,0,0,0,0c0,0,0.1-0.1,0.1-0.1c0,0,0,0,0,0
		c0,0,0,0,0,0c0-0.1,0.1-0.1,0.1-0.2c0,0,0-0.1,0-0.1c0-0.1,0-0.1-0.1-0.2c0,0,0,0,0,0l-0.1-0.2c-0.4-0.8-1.1-1.3-1.9-1.5
		c-1-0.2-2,0-2.7,0.7c-0.2,0.1-0.3,0.3-0.5,0.5c-0.5,0.5-0.8,1-1.1,1.6c-2.1,3.9-2.5,8.5-1.1,12.7C272.1,178.3,272.3,178.9,273,179z
		"/>
	<path d="M288.1,186.3L288.1,186.3c0.2,0,0.4-0.2,0.5-0.4c0-0.1,0.6-3,0.8-5c0.5-5.9-1-11.8-4.3-16.7c-2.7-4.2-6.6-7.5-11.1-9.7
		c-0.5-0.3-1.1-0.5-1.6-0.7c-0.3-0.1-0.5-0.2-0.8-0.3c-0.1,0-0.1,0-0.2,0c-1.7-0.6-3.5-0.9-5.3-0.9c-3-0.1-5.9,0.5-8.6,1.8
		c0,0-0.1,0-0.1,0.1c0,0,0,0-0.1,0c0,0.1-0.1,0.1-0.1,0.2c0,0,0,0,0,0c0,0,0,0.1,0,0.1c0,0,0,0.1,0,0.1c0,0,0,0.1,0,0.1c0,0,0,0,0,0
		c0,0,0,0.1,0.1,0.1c0,0,0,0,0.1,0.1c0,0,0,0,0.1,0c0,0,0.1,0,0.1,0.1c0.5,0.1,1,0.1,1.4,0.1c1.2,0.1,3.2,0.2,4.8,0.5
		c-1.8,1.2-3.3,2.7-4.5,4.4c-1.4,2-2.1,4.4-2.2,6.8c-0.1,3.5,1.8,6.2,3.7,9c0.5,0.6,0.9,1.3,1.3,2c1.4,2.2,3.8,3.7,6.7,4.9
		c0.5,0.2,1,0.4,1.4,0.6c0.3,0.1,0.5,0.2,0.8,0.3c0.1,0,0.2,0.1,0.2,0.1c0.1,0,0.3,0.1,0.4,0.1c0.4,0.1,0.8,0.2,1.3,0.4
		c0.4,0.1,0.8,0.2,1.2,0.3c0.1,0,0.2,0.1,0.3,0.1c0.2,0,0.4,0.1,0.6,0.1c0.2,0,0.3,0.1,0.5,0.1c0.1,0,0.2,0,0.3,0.1
		C282,186.2,287.7,186.3,288.1,186.3L288.1,186.3z M266.4,157.5c0.3-0.1,0.6-0.3,1-0.4c0.7,0,1.3,0,2,0.1c0.6,0.1,1.2,0.2,1.9,0.3
		c1.1,0.2,2.2,0.6,3.2,1c0.5,0.2,1,0.5,1.5,0.7c0.5,0.3,1,0.6,1.5,0.9c0.1,0,0.1,0.1,0.2,0.2c3.4,2.5,6,6.1,7.3,10.1
		c1.3,4,1.9,8.2,1.8,12.4c-4.1,0.3-8.2,0.1-12.3-0.7c-3.2-0.7-7.7-2.3-10.8-5.9c-2.6-3-4.7-8.1-3.2-12.1c0.4-1,0.8-1.9,1.4-2.7
		c0.2-0.3,0.4-0.5,0.6-0.8c0.4-0.5,0.9-1,1.4-1.4c0.5-0.4,1.1-0.8,1.6-1.2C265.8,157.8,266.1,157.6,266.4,157.5z"/>
	<path d="M332,177.6l-0.8,3c0,0.2,0,0.3,0.1,0.4c0,0,0,0,0,0c0,0,0.1,0.1,0.1,0.1c0,0,0,0,0.1,0c0,0,0,0,0,0c0,0,0,0,0,0
		c0.1,0,0.1,0,0.2,0c0,0,0,0,0,0c0.1,0,0.1,0,0.2-0.1c6.7-5.2,14.5-8.9,22.8-10.9c0.3-0.1,0.4-0.3,0.4-0.6c0-0.1-0.1-0.2-0.2-0.3
		c-0.7-0.5-1.5-0.9-2.3-1.2c-2.4-0.8-5.2-0.6-7.5-0.2c-4.9,0.7-9.7,2.1-14.3,4c0,0,0,0,0,0l1.7-4.9c0.1-0.2,0-0.4-0.1-0.5
		c0,0,0,0,0,0c0,0-0.1-0.1-0.1-0.1c0,0,0,0,0,0c0,0,0,0,0,0c0,0-0.1,0-0.1,0c-0.1,0-0.2,0-0.3,0l-4,2.1c-0.1,0.1-0.3,0.2-0.5,0.2
		c0,0-0.1,0-0.1,0c0,0-0.1-0.1-0.1-0.1c-0.1-0.2-0.2-0.4-0.1-0.7c0.1-0.4,0.4-0.7,0.6-1.1c0.1-0.1,0.2-0.3,0.3-0.4
		c0.6-0.6,0.7-1.5,0.4-2.3c-0.1-0.2-0.2-0.3-0.4-0.3c0,0,0,0,0,0c-0.2,0-0.3,0.1-0.4,0.2c-0.7,1.1-1.6,2-2.7,2.7c0,0,0,0,0,0
		c0.2-1.6,0.5-3.2,0.9-4.7c0.3-1.3,0.6-2.5,0.8-3.7c0,0,0-0.1,0-0.1c0,0,0-0.1,0-0.1c0,0,0-0.1,0-0.1c0,0-0.1-0.1-0.1-0.1
		c0,0,0,0-0.1-0.1c0,0-0.1,0-0.1,0c0,0-0.1,0-0.1,0c0,0,0,0,0,0c0,0,0,0-0.1,0c-0.1,0-0.1,0-0.2,0c0,0-0.1,0-0.1,0
		c0,0-0.1,0-0.1,0.1c0,0-0.1,0-0.1,0.1c-4.4,6-7.1,13-8,20.3c0,0.1,0,0.2,0.1,0.3c0,0,0,0,0,0c0,0.1,0.1,0.1,0.2,0.2c0,0,0,0,0,0
		c0,0,0.1,0,0.1,0c0,0,0.1,0,0.1,0c0,0,0,0,0,0c0,0,0,0,0,0c0.1,0,0.2,0,0.3,0c0,0,0,0,0,0c0.1,0,0.2-0.1,0.2-0.2l1.6-2.6l0,0
		l-0.7,7.1c0,0.1,0,0.2,0.1,0.3c0,0,0,0,0,0c0.1,0.1,0.1,0.1,0.2,0.2c0,0,0.1,0,0.1,0c0,0,0,0,0.1,0c0,0,0,0,0,0
		c0.1,0,0.2,0,0.3-0.1c0,0,0,0,0,0c0.1-0.1,0.2-0.1,0.2-0.2l0.5-1.1l0,0l-0.4,12.7c0,0.3,0.2,0.5,0.4,0.5c0,0,0,0,0,0c0,0,0,0,0.1,0
		c0.2,0,0.4-0.2,0.5-0.4C323.3,188.5,326.9,182.4,332,177.6L332,177.6z"/>
	<path d="M281.7,153.7C281.8,153.7,281.8,153.7,281.7,153.7c0.1,0.1,0.1,0.2,0.1,0.3c0,0,0,0,0,0c0,0,0,0,0,0
		c0.1,0.1,0.3,0.3,0.4,0.4c5.7,5.1,10.1,11.6,12.7,18.8c0.1,0.2,0.2,0.3,0.4,0.3c0.1,0,0.1,0,0.2,0c0.2,0,0.4-0.2,0.4-0.5l0.1-1.8
		c0,0,0,0,0,0c1,3.9,1.2,7.9,0.6,11.8c-0.2,2-0.9,4-2.1,5.6c-0.7,0.8-1.2,1.7-1.3,2.8c0,0.2-0.1,0.3-0.1,0.5c-0.1,0.2,0,0.5,0.2,0.6
		c0.1,0,0.2,0.1,0.3,0.1c0,0,0,0,0,0c0.1,0,0.3-0.1,0.4-0.2c4.2-4.6,6.8-10.4,7.5-16.5l0,0l0.6,2c0.1,0.2,0.3,0.4,0.5,0.4
		c0,0,0,0,0,0c0.2,0,0.4-0.2,0.5-0.4c1.1-3.6,1.8-7.3,2.1-11.1c0.3-3.9-0.7-7.7-2.7-11c0,0,0,0-0.1-0.1c0,0-0.1-0.1-0.1-0.1
		c0,0,0,0-0.1,0c-0.1,0-0.1,0-0.2,0c0,0,0,0-0.1,0c0,0-0.1,0-0.1,0c0,0,0,0,0,0c0,0,0,0-0.1,0c0,0,0,0,0,0.1c0,0,0,0-0.1,0.1
		c0,0-0.1,0.1-0.1,0.1c0,0,0,0,0,0c0,0.1,0,0.1,0,0.2c0.1,2.7,0.3,5.7-0.7,8.3c0,0,0,0,0,0c-1.3-3.5-3.4-6.7-6-9.4c0,0,0,0,0,0
		c-0.1,0-0.1-0.1-0.2-0.1c0,0,0,0-0.1,0c-0.1,0-0.1,0-0.2,0c0,0,0,0,0,0c-0.1,0-0.1,0-0.2,0.1c0,0,0,0,0,0c0,0,0,0,0,0
		c0,0,0,0.1,0,0.1c0,0,0,0.1-0.1,0.1c0,0,0,0.1,0,0.1c0,0,0,0.1,0,0.1c0,0,0,0.1,0,0.1c0.5,1.6,0.8,3.2,0.9,4.8c0,0,0,0,0,0
		c-3.4-3.6-7.7-6.1-12.5-7.3c0,0,0,0,0,0c0,0,0,0,0,0c0,0-0.1,0-0.1,0c0,0-0.1,0-0.1,0c0,0,0,0,0,0c0,0-0.1,0-0.1,0.1c0,0,0,0,0,0
		c0,0-0.1,0.1-0.1,0.1c0,0,0,0,0,0c0,0,0,0.1,0,0.1c0,0,0,0,0,0C281.7,153.6,281.7,153.6,281.7,153.7z"/>
	<path d="M342.6,302.5C342.7,302.5,342.7,302.4,342.6,302.5c0.1-0.1,0.1-0.2,0.1-0.3c0-0.1,0-0.1,0-0.2c0,0,0-0.1,0-0.1c0,0,0,0,0,0
		c0,0,0,0,0,0c0,0-0.1-0.1-0.1-0.1c0,0-0.1,0-0.1,0c0,0-0.1,0-0.1,0c0,0-0.1,0-0.1,0c0,0,0,0,0,0c-0.1,0-0.1,0-0.2,0.1l-7.5,4.7l0,0
		l1.5-3c0.1-0.2,0-0.5-0.2-0.7c-0.1,0-0.1,0-0.2-0.1c-0.1,0-0.1,0-0.2,0l-17,6.6l0,0c1.6-3.8,3.6-7.4,6-10.8
		c0.1-0.1,0.1-0.2,0.1-0.4c0,0,0,0,0,0c0-0.1-0.1-0.2-0.2-0.3c0,0,0,0,0,0c0,0,0,0,0,0c-0.1,0-0.1-0.1-0.2-0.1c0,0,0,0-0.1,0
		c-0.1,0-0.1,0-0.1,0c0,0-0.1,0-0.1,0l-2.2,1.1l0,0c1-2,2.4-3.8,4.1-5.3c0,0,0.1-0.1,0.1-0.1c0,0,0-0.1,0.1-0.1c0,0,0-0.1,0-0.1
		c0,0,0-0.1,0-0.1c0-0.1,0-0.2-0.1-0.2c-0.1-0.1-0.2-0.1-0.3-0.1c0,0,0,0,0,0c-0.1,0-0.2,0-0.2,0c0,0,0,0,0,0
		c-5,2.3-9.2,6.2-11.8,11.1c-0.1,0.2-0.1,0.5,0.1,0.6c0,0,0,0,0,0c0,0,0,0,0.1,0.1c0,0,0,0,0.1,0c0,0,0.1,0,0.1,0c0,0,0,0,0.1,0
		c0.1,0,0.1,0,0.2,0l1.8-0.9c0,0,0,0,0,0c-2.5,3.6-4.5,7.6-5.9,11.8c-0.1,0.3,0.1,0.5,0.3,0.6c0,0,0,0,0,0c0,0,0,0,0,0c0,0,0,0,0,0
		c0.1,0,0.1,0,0.2,0c0,0,0,0,0,0c0.1,0,0.2-0.1,0.2-0.1l2.7-2.8c0,0,0,0,0,0c-0.7,1.5-1.3,3.1-1.8,4.8c-0.1,0.2,0.1,0.5,0.3,0.6
		c0,0,0,0,0,0c0,0,0,0,0,0c0,0,0.1,0,0.1,0c0,0,0,0,0,0c0.1,0,0.2,0,0.3-0.1l13.1-8.8l0,0l-2.4,4.5c-0.1,0.2,0,0.5,0.2,0.7
		c0,0,0,0,0,0c0,0,0,0,0,0c0.1,0,0.1,0,0.2,0c0.1,0,0.1,0,0.2,0c7.3-2.6,13.9-6.9,19.1-12.5C342.6,302.6,342.6,302.5,342.6,302.5z"
		/>
	<path d="M342.1,159.6C342.1,159.6,342.1,159.6,342.1,159.6C342.1,159.6,342.2,159.6,342.1,159.6c0.1,0,0.2,0,0.2,0c0,0,0,0,0,0
		c0.2,0,0.3-0.1,0.4-0.2c1.5-2,3.4-3.7,5.5-5l0,0l-0.8,3.4c0,0.2,0,0.3,0.1,0.4c0,0,0,0,0,0c0,0,0.1,0.1,0.1,0.1c0,0,0,0,0.1,0
		c0,0,0.1,0,0.1,0c0,0,0,0,0,0c0,0,0.1,0,0.1,0c0,0,0,0,0.1,0c0.1,0,0.1,0,0.2-0.1c5-3.9,10.5-7.2,16.2-9.8c0,0,0,0,0,0
		c0.1,0,0.1-0.1,0.1-0.1c0,0,0-0.1,0.1-0.1c0,0,0-0.1,0-0.2c0-0.1,0-0.2,0-0.3c0-0.1-0.1-0.2-0.2-0.2c0,0,0,0,0,0
		c-0.1,0-0.2-0.1-0.3-0.1c0,0,0,0,0,0c-3.3,0.1-6.6,0.7-9.8,1.6c0,0,0,0,0,0c1-1,1.9-2.1,2.6-3.4c0,0,0,0,0-0.1c0-0.1,0-0.1,0-0.2
		c0,0,0-0.1,0-0.1c0,0,0,0,0,0c0-0.1,0-0.1-0.1-0.2c0,0,0,0,0,0c0,0-0.1-0.1-0.1-0.1c0,0,0,0,0,0c0,0,0,0,0,0
		c-0.1,0-0.2-0.1-0.3-0.1c0,0,0,0,0,0c-2.1,0.3-4.2,0.9-6.1,1.9c0,0,0,0,0,0c0.3-0.7,0.6-1.3,0.8-1.9c0.9-1.9,1.5-3.3,1.1-4.2
		c-0.2-0.4-0.6-0.7-1-0.7c0,0,0,0,0,0c-0.2,0-0.4,0-0.5,0.2c-4.5,5.4-7.6,11.7-9,18.6C341.8,159.2,341.9,159.5,342.1,159.6z"/>
	<path d="M284.3,124.1c4.5,6.9,6.9,14.9,6.8,23.2c0,0.5,0.1,1.1,0.2,1.6c0.1,0.3,0.1,0.7,0.2,1c0,0,0,0,0,0.1c0,0,0,0.1,0,0.1
		c0,0,0,0,0.1,0.1c0,0,0.1,0.1,0.1,0.1c0,0,0.1,0,0.1,0c0,0,0.1,0,0.1,0c0,0,0.1,0,0.1,0c0,0,0,0,0.1,0c0,0,0,0,0,0c0,0,0.1,0,0.1,0
		c0,0,0,0,0.1,0c0,0,0.1-0.1,0.1-0.1c0,0,0,0,0,0c2-3.2,3.6-6.6,4.8-10.2c0,0,0,0,0,0l0.4,1.5c0,0.1,0,0.1,0.1,0.2c0,0,0,0,0,0
		c0,0.1,0.1,0.1,0.1,0.1c0,0,0.1,0,0.1,0c0.1,0,0.2,0.1,0.3,0c0,0,0,0,0,0c0,0,0.1,0,0.1-0.1c0,0,0,0,0,0c0.1,0,0.1-0.1,0.1-0.1
		c2.3-3.7,3.2-8,2.6-12.3c0-0.2-0.2-0.4-0.5-0.4c0,0,0,0,0,0c-0.2,0-0.5,0.1-0.5,0.4c-0.5,1.5-1.6,2.6-3,3.1c0,0,0,0,0,0
		c-1-3.1-2.6-6-4.7-8.4c-0.1-0.1-0.1-0.1-0.2-0.1c0,0,0,0-0.1,0c-0.1,0-0.1,0-0.2,0c0,0-0.1,0-0.1,0c0,0-0.1,0-0.1,0
		c0,0-0.1,0-0.1,0.1c0,0,0,0,0,0c0,0,0,0,0,0c0,0-0.1,0.1-0.1,0.1c0,0,0,0,0,0c0,0.1,0,0.1,0,0.2c0.3,2.1,0.2,4.2-0.2,6.3l0,0
		l-6.2-7c-0.2-0.2-0.5-0.2-0.7-0.1c0,0,0,0,0,0c0,0,0,0,0,0c0,0-0.1,0.1-0.1,0.1c0,0,0,0,0,0c0,0,0,0.1,0,0.1c0,0,0,0,0,0
		c0,0,0,0.1,0,0.1C284.2,123.9,284.2,124,284.3,124.1z"/>
	<path d="M245.9,132C245.9,132,246,132,245.9,132c0.1,0,0.2,0,0.3-0.1c5.5-3.2,11.7-4.9,18.1-4.9c1.5,0,2.9,0.1,4.4,0.3c0,0,0,0,0,0
		c0.2,0,0.4-0.1,0.5-0.3c0.1-0.2,0-0.4-0.2-0.6l-4.3-3.3l6.3,0.4c0.2,0,0.4-0.1,0.5-0.3c0.1-0.2,0-0.5-0.2-0.6l-2.7-1.8
		c2.6-0.3,5.3-0.1,7.9,0.6c0,0,0,0,0,0l0.3,0.1l0,0c0.1,0,0.2,0,0.3,0c0,0,0,0,0,0c0.1,0,0.2-0.1,0.2-0.2c0,0,0,0,0,0c0,0,0,0,0,0
		c0-0.1,0.1-0.1,0.1-0.2c0,0,0-0.1,0-0.1c0,0,0-0.1,0-0.1c0,0,0-0.1,0-0.1c0,0-0.1-0.1-0.1-0.1c0,0,0,0,0-0.1
		c-3.5-2.5-7.5-4.3-11.7-5.2c-0.6-0.1-1.2-0.3-1.8-0.4c0,0,0,0-0.1,0c-0.1,0-0.1,0-0.2,0c0,0-0.1,0-0.1,0.1c0,0,0,0-0.1,0
		c-0.1,0.1-0.2,0.2-0.2,0.3c0,0.2,0,0.4,0.2,0.5l2.2,1.8l-4.8,0.3c0,0-0.1,0-0.1,0c0,0-0.1,0-0.1,0c0,0-0.1,0.1-0.1,0.1c0,0,0,0,0,0
		c-0.1,0.1-0.1,0.2-0.1,0.3c0,0.2,0.1,0.3,0.3,0.4c-4.6,0.8-9,2.6-12.9,5.3c0,0-0.1,0.1-0.1,0.1c0,0,0,0-0.1,0.1c0,0,0,0.1-0.1,0.1
		c0,0,0,0.1,0,0.1c0,0.1,0,0.2,0.1,0.3c0.1,0.1,0.1,0.1,0.2,0.2c0,0,0,0,0,0c0.1,0,0.2,0,0.2,0c0,0,0,0,0,0c2.2-0.4,4.4-0.7,6.7-0.8
		c0,0,0,0,0,0c-3.5,1.6-6.6,3.9-9,6.9c-0.2,0.2-0.1,0.5,0.1,0.7c0,0,0.1,0.1,0.1,0.1C245.8,132,245.9,132,245.9,132
		C245.9,132,245.9,132,245.9,132z"/>
	<path d="M268.7,140.2c0.1,0,0.3,0,0.4-0.1s0.2-0.2,0.2-0.3c0-0.2-0.1-0.4-0.2-0.5c-0.1,0-0.1-0.1-0.2-0.1c-0.3-0.1-0.6-0.2-0.8-0.4
		c0.6,0,1.3,0.1,1.9,0.2c0.6,0.1,1.3,0.2,1.9,0.4c0.8,0.2,1.7,0.3,2.5,0.4c0.2,0,0.5-0.1,0.5-0.3c0.1-0.2,0-0.5-0.2-0.6
		c-0.4-0.3-0.8-0.5-1.1-0.7c-1.2-0.7-2.4-1.3-3.6-1.8c-0.4-0.2-0.8-0.3-1.3-0.5c-1.3-0.4-2.6-0.7-3.9-1c-0.1,0-0.2,0-0.3,0
		c0,0,0,0-0.1,0c-0.1,0-0.1,0.1-0.2,0.2c0,0,0,0,0,0c0,0,0,0.1,0,0.1c0,0,0,0.1,0,0.1c0,0,0,0,0,0c0,0,0,0,0,0c0,0.1,0,0.2,0,0.2
		c0,0,0,0,0,0.1c0,0.1,0.1,0.1,0.2,0.2l0.4,0.2l-6.6,0.1c-0.1,0-0.1,0-0.2,0c0,0,0,0-0.1,0c0,0-0.1,0-0.1,0.1c0,0,0,0,0,0.1
		c0,0,0,0.1-0.1,0.1c0,0,0,0,0,0.1c0,0,0,0.1,0,0.1c0,0,0,0,0,0c0,0,0,0,0,0.1c0,0,0,0.1,0,0.1c0,0,0,0.1,0,0.1c0,0,0,0,0,0.1
		c0,0,0.1,0.1,0.1,0.1c0,0,0,0,0,0c0.1,0,0.1,0.1,0.2,0.1l2,0.4c0,0,0,0,0,0c-2.4,0.5-4.8,1.2-7.1,2c-2.3,0.8-4.6,1.8-6.8,3
		c-0.1,0-0.1,0.1-0.2,0.2c0,0,0,0,0,0.1c0,0.1,0,0.1-0.1,0.2c0,0,0,0,0,0.1c0,0,0,0.1,0,0.1c0,0,0,0.1,0,0.1c0,0,0,0,0,0
		c0,0,0,0,0,0c0,0.1,0.1,0.1,0.1,0.1c0,0,0,0,0.1,0c0.1,0,0.1,0.1,0.2,0.1c0,0,0.1,0,0.1,0C253.4,141.3,261.1,138.9,268.7,140.2z"/>
	<path d="M375.6,163.9C375.6,163.9,375.6,164,375.6,163.9c0,0.1,0.1,0.1,0.1,0.1c0,0,0,0,0.1,0.1c0,0,0.1,0,0.1,0.1c0,0,0.1,0,0.1,0
		c0,0,0.1,0,0.1,0l0,0l10.3-1.1c-0.6,0.9-1.5,1.7-2.5,2.3c-0.2,0.1-0.3,0.4-0.2,0.7c0.1,0.1,0.2,0.2,0.3,0.2
		c3.9,0.8,7.8,1.9,11.6,3.2h0l-1.6,0.6l0,0c-0.1,0-0.2,0.1-0.2,0.2c0,0,0,0,0,0c0,0.1-0.1,0.1-0.1,0.2c0,0,0,0,0,0
		c0,0.1,0,0.1,0,0.2c0,0,0,0,0,0c0,0,0,0,0,0.1c0,0,0,0,0,0c0,0.1,0.1,0.1,0.1,0.1c0,0,0,0,0,0l8.8,5.7c0.1,0.1,0.2,0.1,0.3,0.1
		c0,0,0,0,0,0c0.1,0,0.2,0,0.2-0.1c0,0,0,0,0,0c0,0,0.1-0.1,0.1-0.1c0,0,0,0,0-0.1c0,0,0-0.1,0-0.1c0-0.1,0-0.1,0-0.2c0,0,0,0,0,0
		c-0.4-2-1.3-3.9-2.5-5.6l0,0l2.8,1.2c0.1,0,0.2,0,0.3,0c0,0,0,0,0,0c0.1,0,0.2-0.1,0.2-0.1c0,0,0-0.1,0.1-0.1c0,0,0,0,0,0
		c0,0,0,0,0,0c0-0.1,0-0.2,0-0.3c0,0,0,0,0,0c0-0.1-0.1-0.2-0.1-0.2c-4.1-3.6-8.9-6.3-14.1-8.1l0,0l1.4-0.4c0.1,0,0.1-0.1,0.2-0.1
		c0,0,0-0.1,0.1-0.1c0,0,0,0,0.1-0.1c0,0,0-0.1,0.1-0.2c0,0,0,0,0,0c0-0.1,0-0.1,0-0.2c0-0.1-0.1-0.2-0.3-0.3
		c-1.2-0.6-2.5-1.1-3.9-1.3c0.1-0.1,0.2-0.3,0.3-0.4c0.1-0.5-0.1-1-0.4-1.3c-0.1-0.1-0.3-0.2-0.5-0.2c-4.1,0.9-8,2.6-11.5,5
		c0,0,0,0,0,0c-0.1,0.1-0.1,0.1-0.2,0.2c0,0,0,0,0,0C375.5,163.6,375.5,163.7,375.6,163.9C375.6,163.9,375.6,163.9,375.6,163.9z"/>
	<path d="M385.7,148.7C385.7,148.7,385.7,148.7,385.7,148.7c0,0.1,0.1,0.1,0.1,0.1c0,0,0,0,0.1,0.1c0,0,0,0.1,0.1,0.1c0,0,0,0,0.1,0
		c0,0,0.1,0,0.1,0c0,0,0.1,0,0.1,0c0,0,0,0,0.1,0h0c4-0.6,8.1,0,11.7,1.9c0,0,0,0,0,0c-2.5,0.2-5,0.8-7.4,1.7c0,0,0,0,0,0
		c0,0,0,0,0,0c-0.1,0-0.1,0.1-0.2,0.1c0,0,0,0,0,0.1c0,0-0.1,0.1-0.1,0.2c0,0,0,0,0,0.1c0,0,0,0,0,0.1c0,0,0,0.1,0,0.1c0,0,0,0,0,0
		c0,0,0,0,0,0c0,0.1,0.1,0.1,0.1,0.2c0,0,0,0,0,0c0.1,0,0.1,0.1,0.2,0.1c4.3,0.5,8.4,2.1,12,4.6l0,0l-4.1,1.3c0,0,0,0,0,0
		c0,0,0,0,0,0c-0.1,0-0.1,0.1-0.2,0.1c0,0,0,0,0,0.1c0,0.1-0.1,0.1-0.1,0.2c0,0,0,0,0,0.1c0,0,0,0,0,0.1c0,0,0,0.1,0,0.1
		c0,0,0,0,0,0c0,0,0,0,0,0c0,0.1,0.1,0.1,0.1,0.2c0,0,0,0,0,0c0.1,0.1,0.1,0.1,0.2,0.1c6.5,1,12.5,3.9,17.5,8.1c0,0,0,0,0.1,0
		c0,0,0.1,0,0.1,0.1c0,0,0.1,0,0.1,0c0,0,0.1,0,0.1,0c0,0,0.1,0,0.1,0c0,0,0.1,0,0.1,0c0,0,0.1,0,0.1-0.1c0,0,0,0,0.1,0c0,0,0,0,0,0
		c0,0,0-0.1,0.1-0.1c0,0,0,0,0-0.1c0,0,0-0.1,0-0.1c0,0,0-0.1,0-0.1c-0.8-4.2-2.9-8-6-11c0,0,0,0,0,0l3.6,1.1c0.1,0,0.2,0,0.3,0
		c0.1,0,0.2-0.1,0.2-0.2c0.1-0.2,0.1-0.4,0-0.6c-1-1.6-2.1-3.1-3.4-4.5c-1.5-1.5-3.2-2.9-5-4l0,0l3.7,0.4c0.1,0,0.2,0,0.2,0
		c0,0,0,0,0.1,0c0,0,0.1-0.1,0.1-0.1c0,0,0,0,0.1-0.1c0,0,0,0,0-0.1c0,0,0-0.1,0-0.1c0,0,0,0,0,0c0,0,0,0,0,0c0-0.1,0-0.1,0-0.2
		c0,0,0,0,0,0c0-0.1-0.1-0.1-0.2-0.2c-6.5-4.5-14.6-5.9-22.3-4c0,0,0,0,0,0c-0.1,0-0.1,0.1-0.2,0.1c0,0,0,0,0,0c0,0-0.1,0.1-0.1,0.1
		c0,0,0,0,0,0.1c0,0,0,0.1,0,0.1c0,0,0,0,0,0.1c0,0,0,0.1,0,0.1c0,0,0,0,0,0c0,0,0,0.1,0,0.1c0,0,0,0.1,0.1,0.1c0,0,0.1,0,0.1,0.1
		c0,0,0.1,0,0.1,0.1c0.8,0.4,1.7,0.7,2.5,0.9c0,0,0,0,0,0l-5.1,1.5l0,0c0,0,0,0,0,0c-0.1,0-0.1,0.1-0.2,0.1c0,0,0,0,0,0
		c0,0-0.1,0.1-0.1,0.1c0,0,0,0,0,0c0,0,0,0.1,0,0.1c0,0,0,0,0,0.1C385.7,148.6,385.7,148.6,385.7,148.7
		C385.7,148.7,385.7,148.7,385.7,148.7z"/>
	<path d="M265.5,226.4C265.5,226.3,265.5,226.3,265.5,226.4C265.5,226.3,265.5,226.3,265.5,226.4c-0.1-0.1-0.1-0.1-0.1-0.1
		c0,0,0,0-0.1,0c0,0-0.1,0-0.1-0.1c0,0,0,0-0.1,0c0,0-0.1,0-0.1,0c0,0-0.1,0-0.1,0c0,0,0,0-0.1,0l0,0c-0.3,0.1-0.5,0.2-0.8,0.3
		c-0.1-0.2-0.2-0.3-0.4-0.5c-0.2-0.2-0.4-0.2-0.6-0.1c-0.5,0.3-1,0.6-1.4,1c-0.4,0.4-0.8,0.8-1.1,1.3c-0.1,0.1-0.1,0.3-0.1,0.4
		c0.1,0.2,0.2,0.3,0.3,0.3c0.1,0,0.3,0.1,0.4,0.1c0.2,0.2,0.4,0.2,0.6,0.1l0.4-0.3l0,0h0c0.8,0,1.4-0.2,1.7-0.6
		c0.1-0.1,0.2-0.2,0.2-0.3c0-0.1,0.1-0.2,0.1-0.3l0,0l0.9-0.5c0,0,0,0,0,0c0.1,0,0.1-0.1,0.1-0.1c0,0,0,0,0,0c0,0,0-0.1,0.1-0.1
		c0,0,0,0,0,0c0,0,0-0.1,0-0.1c0,0,0,0,0-0.1C265.6,226.4,265.5,226.4,265.5,226.4z"/>
	<path d="M272.7,226.1c-0.4-0.2-0.9-0.2-1.3,0c-0.2,0.1-0.4,0.1-0.6,0.1h0c-0.1,0-0.1,0-0.2,0l-2.1,0.6c0,0,0,0,0,0
		c-0.1,0-0.1,0.1-0.2,0.1c0,0,0,0,0,0.1c0,0.1-0.1,0.1-0.1,0.2c0,0,0,0,0,0c0,0.1,0,0.1,0,0.2c0,0,0,0,0,0c0,0,0,0,0,0
		c0,0.1,0.1,0.2,0.1,0.2c0,0,0,0,0.1,0c0.1,0,0.1,0.1,0.2,0.1c0,0,0,0,0,0c0.2,0,0.3,0,0.5,0c0,0,0,0,0,0c0,0,0,0.1,0,0.1
		c0,0,0,0.1,0,0.1c0,0,0,0.1,0,0.1c0,0,0,0.1,0,0.1c0,0,0,0,0,0.1c0,0,0,0.1,0.1,0.1c0,0,0,0,0.1,0.1c0,0,0,0,0.1,0.1c0,0,0,0,0,0
		c0.6,0.2,1.2,0.3,1.8,0.2c0.1,0,0.1,0.1,0.2,0.1c0.1,0,0.1,0,0.2,0c0.6,0,1.2-0.3,1.5-0.8c0.1-0.2,0.2-0.3,0.2-0.5
		c0-0.2,0-0.4,0-0.5c0-0.1,0-0.2,0-0.2c0-0.1-0.1-0.2-0.2-0.3C273,226.3,272.9,226.2,272.7,226.1z"/>
	<path d="M272.4,236.9c0,0,0.1,0,0.1,0c0.1,0,0.2,0,0.4,0c0,0,0,0,0,0c1.1,0,2.1-0.4,2.8-1.2c0,0,0.1-0.1,0.1-0.1c0,0,0,0,0-0.1
		c0,0,0-0.1,0-0.1c0,0,0,0,0-0.1c0,0,0-0.1,0-0.1c0,0,0,0,0-0.1c0,0,0-0.1-0.1-0.1c0,0,0,0,0,0c0,0,0,0-0.1-0.1c0,0,0,0,0,0
		c-0.2-0.1-0.3-0.2-0.5-0.2c-0.1-0.1-0.3-0.2-0.4-0.1c0,0,0,0,0,0c-0.1,0-0.1,0-0.2,0c-0.2,0-0.5,0-0.7,0.2
		c-0.1,0.1-0.1,0.2-0.2,0.3l-1.4,0.8c-0.1,0-0.1,0.1-0.2,0.2c0,0,0,0,0,0c0,0.1-0.1,0.2,0,0.3c0,0,0,0,0,0c0,0,0,0.1,0,0.1
		c0,0,0,0.1,0.1,0.1c0,0,0,0,0,0.1C272.2,236.8,272.3,236.9,272.4,236.9C272.4,236.9,272.4,236.9,272.4,236.9z"/>
	<path d="M268.6,213.4C268.5,213.4,268.5,213.3,268.6,213.4c0-0.1-0.1-0.1-0.1-0.1c0,0,0,0,0,0c0,0-0.1-0.1-0.1-0.1c0,0,0,0,0,0
		c0,0-0.1,0-0.1,0c0,0,0,0-0.1,0c0,0-0.1,0-0.1,0c0,0-0.1,0-0.1,0h0l-2.4,1.1c-0.2,0.1-0.3,0.3-0.3,0.6c0,0.2,0.2,0.3,0.3,0.4
		c0.1,0,0.1,0,0.2,0l0.5,0l0,0c0,0.1,0.1,0.1,0.2,0.1c0.1,0,0.1,0,0.2,0c0.2,0,0.5-0.1,0.7-0.1c0.1,0,0.3-0.1,0.4-0.1
		c0.3-0.1,0.4-0.3,0.4-0.6c0-0.1,0-0.2-0.1-0.2l0.4-0.2c0.1-0.1,0.2-0.2,0.2-0.3c0,0,0,0,0,0c0,0,0-0.1,0-0.1c0,0,0,0,0,0
		C268.6,213.5,268.6,213.5,268.6,213.4C268.6,213.4,268.6,213.4,268.6,213.4z"/>
	<path d="M325.8,237.7C325.8,237.7,325.8,237.7,325.8,237.7c0,0.1,0.1,0.2,0.2,0.3l1.6,1.3l0.4,0.3c0.1,0.1,0.2,0.2,0.3,0.2
		c-0.1,0-0.2,0.1-0.2,0.2c0,0,0,0,0,0c0,0.1-0.1,0.1-0.1,0.2c0,0,0,0,0,0c0,0,0,0,0,0.1c0,0,0,0.1,0,0.1c0,0,0,0,0,0
		c0,0.1,0.1,0.1,0.1,0.2c0,0,0,0,0.1,0c0.1,0,0.1,0.1,0.2,0.1h0.1c0.1,0,0.1,0,0.2,0c0.6-0.1,1.2-0.3,1.6-0.8
		c0.5-0.6,0.6-1.5,0.1-2.1c-0.1-0.2-0.3-0.3-0.5-0.4c-0.2-0.1-0.4-0.1-0.7-0.1c0,0,0,0-0.1,0h0c-0.2-0.1-0.4-0.2-0.7-0.2
		c-0.7-0.2-1.4-0.2-2.1,0c-0.1,0-0.2,0.1-0.3,0.2c0,0,0,0,0,0c0,0-0.1,0.1-0.1,0.1c0,0,0,0,0,0c0,0,0,0.1,0,0.1
		C325.8,237.6,325.8,237.7,325.8,237.7C325.8,237.7,325.8,237.7,325.8,237.7z"/>
	<path d="M640.8,325.5H440.8c-0.2-0.5-0.4-0.9-0.7-1.3c-0.4-3.7-1.2-7.3-2.5-10.7c1.1,0.4,2.2,0.9,3.1,1.7c0.2,0.2,0.5,0.1,0.7-0.1
		c0.1-0.1,0.1-0.3,0.1-0.4c-1-4.2-2.1-8.9-5.2-12.4c-0.4-0.5-0.9-0.9-1.3-1.3c0.9,0,1.8,0.2,2.8,0.3c2.4,2.1,4.9,4,8,4.8
		c0,0,0.1,0,0.1,0c0.3,0,0.5-0.2,0.5-0.5c0-0.1,0-0.1,0-0.2c-2.1-5.6-5.3-10.7-9.4-15.1c0.8,0.4,1.5,0.8,2.1,1.3
		c0.2,0.2,0.5,0.1,0.7-0.1c0.1-0.1,0.1-0.3,0.1-0.4c-1.4-7-3.9-13.7-7.4-19.9c1.7,1.5,3.2,3.3,4.5,5.3c0.1,0.1,0.3,0.2,0.4,0.2
		c0,0,0.1,0,0.1,0c0.2,0,0.4-0.2,0.4-0.4c0.9-5.6-1.4-11.2-3.5-15.9c2,1.2,3.7,2.8,4.9,4.8c0.1,0.2,0.5,0.3,0.7,0.2
		c0.2-0.1,0.3-0.3,0.2-0.5c-1.3-5.5-3.8-10.7-7.4-15.1c-0.3-1.7-0.9-3.4-1.6-5l3.2,1.4c0.3,0.1,0.5,0,0.7-0.3c0.1-0.2,0-0.4-0.2-0.6
		c-2.6-2-3.2-5.7-3.7-9c-0.4-2.8-0.8-6.1-2.6-8.6l3.9,0.9c0.2,0.1,0.4,0,0.5-0.2c0.1-0.2,0.1-0.4,0-0.6c-0.7-0.9-1.5-1.8-2.5-2.5
		c2.5,0.5,4.7,1.7,6.4,3.5c0.2,0.2,0.5,0.2,0.7,0c0.2-0.2,0.2-0.4,0.1-0.6c-2.1-3.2-4.6-6.1-7.4-8.7c-0.3-0.9-0.6-1.7-0.8-2.6
		c-0.7-3.5-1.1-7.1-1.2-10.7c-0.1-1.8-0.2-3.7-0.4-5.5c-0.6-6.2-2.2-11-4.9-14.4c1.3,0.3,2.6,0.8,3.8,1.5c0.2,0.1,0.5,0.1,0.7-0.2
		c0.1-0.1,0.1-0.3,0-0.4c-1.1-2.8-2.9-5.2-5.2-7.1l3.7-4.3c0.1-0.1,0.2-0.4,0.1-0.5c-0.1-0.2-0.3-0.3-0.5-0.3l-2.5,0
		c0.3-0.3,0.5-0.7,0.6-1.1c1.2-1.1,2.2-2.4,3.1-3.9c2.4-4,3.2-8.7,3.7-12.8c0.1-1.1,0.2-2.2,0.4-3.2c0.3-3.3,0.8-6.5,1.5-9.7
		c1.1-3.7,2.6-7.4,4.4-10.8c0.8-1.7,1.7-3.5,2.4-5.3c0.9-2.1,1.7-4.3,2.3-6.4c1.2,0.7,2.3,1.3,3.2,1.9c-1-0.7-2.1-1.4-3.2-2.1
		c0.7-2.3,1.3-4.6,1.8-7l0,0l0,0c0.8-3.6,1.4-7.2,1.9-10.8c0.7,0.2,1.4,0.3,2,0.5c-0.6-0.2-1.3-0.4-1.9-0.6c0.3-2.2,0.6-4.4,0.8-6.5
		c0.5-4.8,0.9-9.5-0.8-13.8c-0.9-2.5-2.6-4.5-4.8-5.9c-1-0.6-2-1.2-3.1-1.5c-3.5-1.1-7.6-1-12.5,0.4c-12,3.5-22.1,11.9-30.9,19.4
		l-31.8,26.8c-2.5,1-5.2,1.4-7.8,1.2l0-0.4c0-0.2-0.2-0.4-0.4-0.4c-2-0.6-4,0.1-6,0.7c-1.9,0.6-3.7,1.2-5.4,0.7c-1-0.4-2-1-2.8-1.8
		c-0.3-0.2-0.5-0.4-0.8-0.7c-4.2-3.2-9.6-4.2-14.6-2.8c-3.1-4-7.4-6.8-12.2-8c-0.3-0.1-0.5,0.1-0.6,0.3l-0.3,1
		c-3.8-2.6-7.4-5.5-10.6-8.8c-0.8-2.1-1.7-4.1-2.6-6.1l-0.3-0.5c-3.6-7.9-7.4-16-11.2-24c-6.8-14.5-13.9-28.1-26.2-35.9
		c-2-1.4-4.2-2.3-6.5-2.7c-2.5-0.4-5,0.3-6.9,2c-1.2,1.4-2.1,3.1-2.5,4.9c-2.9,9-3.9,18.5-4.2,27.9c-1.5-0.5-2.9-0.9-4.3-1.3
		c1.4,0.5,2.8,1.1,4.3,1.6c-0.2,6.6,0,13.2,0.2,19.7c0.1,2.6,0.1,5.3,0.2,7.9c0.2,4.5-0.1,8.9-0.9,13.3c-0.5,2.1-1.1,4.1-1.8,6.1
		c-1.1,2.8-1.8,5.7-2.3,8.6c-0.3,2.2-0.3,4.4,0,6.6c-0.2,2.7-0.1,5.4,0.4,8c-4.6,2-8.2,5.7-10.1,10.3c-0.1,0.3,0,0.5,0.3,0.7
		c0.2,0.1,0.3,0,0.5-0.1c1-0.7,2.2-1.2,3.4-1.5c-3.4,4.6-7.2,8.8-11.4,12.6c-0.2,0.1-0.2,0.4-0.1,0.6c0.1,0.2,0.3,0.3,0.5,0.3
		c0.8,0,1.6-0.1,2.3-0.2c-1.4,2.3-2.3,4.8-2.9,7.4c-0.1,0.4-0.2,0.8-0.3,1.2c-0.1,0.3-0.1,0.7-0.2,1l-0.1,0.3
		c-1,5.1-2,10.4-5.9,13.5c-0.2,0.2-0.3,0.5-0.1,0.7c0.1,0.2,0.3,0.2,0.5,0.2l1.6-0.5l-1.6,2.2c-0.2,0.2-0.1,0.5,0.1,0.7
		c0.1,0.1,0.3,0.1,0.5,0l2-0.9c-1.8,3.2-2.8,6.7-3,10.3c-1.2,2.9-2,5.9-2.3,9c-0.3,2.6-0.3,5.3-0.2,7.9c-12,0-24,0-36,0.7
		c-1.5,0.1-3,0.2-4.4,0.3c1.9,0,3.7,0,5.6,0.1c11.6,0,23.3-0.2,34.9-0.2c0.1,1.4,0.1,2.8,0.2,4.1c-14.1,2.3-28.1,4.9-42.1,7.9
		c-1.9,0.4-4.9,1.1-6.1,1.5c2.5-0.4,4.9-0.8,7.4-1.2c13.6-2.4,27.2-5,40.8-7.4c0.1,2.3,0.3,4.7,0.3,7c0,0.3,0.2,0.5,0.5,0.5
		c0.1,0,0.3-0.1,0.4-0.2l3.2-3.5c0.5-0.5,0.7-0.6,0.9-0.5c0.3,0.1,0.3,0.7,0.1,1.3l-2.7,8.5c-11.2,4.7-22.2,9.6-33.1,15
		c-2.1,1.1-4.6,2.4-6.5,3.4c2.6-1.2,5.3-2.3,7.9-3.5c10.5-4.6,20.8-9.5,31.3-13.9l-0.9,2.7c-0.1,0.3,0.1,0.5,0.3,0.6
		c0.1,0,0.3,0,0.4,0c1.9-1,4-1.7,6.1-2.1c-6.5,7-11,15.6-12.9,25c-5.5,4.7-11,9.5-16.4,14.4c-4.7,4.2-12.2,11.4-15,14.5
		c6.3-5.6,12.5-11.2,18.8-16.9c4.1-3.6,8.3-7.2,12.4-10.7c-0.7,3.7-0.9,7.5-0.6,11.3c0,0.2,0.2,0.4,0.4,0.5c0,0,0,0,0.1,0
		c0.2,0,0.4-0.1,0.5-0.3c0.6-1.7,1.4-3.3,2.5-4.8l1.1-1.3c0.4-0.4,0.8-0.8,1.2-1.1l-1.2,5.6c-0.1,0.3,0.1,0.5,0.4,0.6
		c0.1,0,0.2,0,0.3,0c2.6-1.4,5.3-2.6,8-3.6c-5.7,6.2-11.6,13.6-13.2,22.5c0,0.3,0.1,0.5,0.4,0.6c0.1,0,0.3,0,0.4-0.1l0.3-0.2
		c-2.1,2.9-4.1,5.8-5.9,8.5c2.6-3.3,5.2-6.5,7.8-9.8l3.2-2.2c-3.4,5.1-5.1,11.2-5.1,17.3c-3.6,1.4-7.2,2.8-10.6,4.5
		c-6.5,3.1-12.9,7.4-15.8,14.5c0,0.1-0.1,0.2-0.1,0.3H65.8c-0.3,0-0.5,0.2-0.5,0.5v18.4c0,0.3,0.2,0.5,0.5,0.5h114.7
		c0.8,1.6,1.7,3.1,2.8,4.5c3.6,5.7,14.7,8,17,8.7c1.5,0.3,3,0.3,4.5,0c1-0.2,6.3-0.4,7.8-0.8c1.5,0.9,3.4,1.3,5.2,1
		c0.9-0.1,1.7-0.4,2.4-0.8c0.9,0.2,1.8,0.1,2.7-0.1c0.1,0,0.3-0.1,0.5-0.1c0.9,0,1.7-0.2,2.5-0.5c2.3,1.5,5,2.1,7.6,1.8
		c0.6,0.6,1.5,1,2.3,1.2c1.4,0.1,2-1,2.3-2.2c2.9-1.2,5.5-3,7.7-5.2c1.9-1.9,3.3-4.2,4-6.7c0,0.2-0.1,0.3-0.1,0.5
		c0.2-0.4,0.3-0.8,0.4-1.3h120.4c0.7,2.3,1.8,4.4,3.4,6.2c2,2.4,4.5,4.3,7.4,5.6c0.2,1.3,0.7,2.4,2.1,2.3c0.9-0.1,1.7-0.5,2.4-1.1
		c1.5,0.2,3,0.2,4.5-0.1c1.1-0.3,2.2-0.7,3.2-1.2c0.8,0.4,1.6,0.7,2.5,0.7c0.2,0.1,0.5,0.1,0.5,0.2c0.9,0.3,1.8,0.3,2.7,0.2
		c0.7,0.4,1.5,0.8,2.4,1c1.8,0.4,3.6,0.1,5.2-0.8c1.4,0.5,6.6,1,7.6,1.3c1.4,0.4,3,0.5,4.5,0.2c2.3-0.6,13.4-2.3,17.3-7.8
		c1.7-2,3.2-4.2,4.3-6.7h200.4c0.3,0,0.5-0.2,0.5-0.5V326C641.3,325.7,641.1,325.5,640.8,325.5z M433.9,286.2
		c-3.4-1-6.9-1.2-10.4-0.6c0,0,0,0,0,0c-0.1,0-0.1,0.1-0.2,0.1c0,0,0,0,0,0c-0.1,0.1-0.1,0.1-0.1,0.2c0,0,0,0,0,0c0,0,0,0,0,0
		c0,0.1,0,0.1,0,0.2c0,0,0,0,0,0.1c0,0.1,0,0.1,0.1,0.1c0,0,0,0.1,0.1,0.1c0,0,0.1,0.1,0.1,0.1c0,0,0,0,0.1,0l5.7,1.5l0.4,0.3l0,0
		c-5-0.4-10,0.4-14.7,2.1c0,0,0,0,0,0c-0.1,0-0.1,0.1-0.2,0.1c0,0,0,0,0,0.1c0,0,0,0.1-0.1,0.1c0,0,0,0,0,0.1c0,0,0,0.1,0,0.1
		c0,0,0,0,0,0c0,0,0,0.1,0,0.1c0,0,0,0,0,0c0,0,0,0.1,0.1,0.1c0,0,0,0.1,0.1,0.1l5.7,4.5l0,0c-6.4,1.8-13.2,1.8-19.6-0.2
		c-0.2,0-0.3,0-0.5,0.1c0,0-0.1,0.1-0.1,0.1c-0.1,0.2-0.1,0.4,0.1,0.6c2.1,2.3,4.7,4,7.5,5.2c0,0,0,0,0,0c-0.7,0.3-1.5,0.6-2.2,0.9
		c-5.8-2.3-11.9-4.2-18.2-3.3c-4,0.5-7.8,2-11,4.5c-4.9-10.4-10.5-20.4-16.2-30.4c-0.3-0.4-0.5-0.9-0.8-1.3c0,0,0,0,0,0
		c0.8-0.4,1.7-0.7,2.5-1c6.3,6.3,12.1,13,17.9,19.5c1.4,1.6,3,3.5,4.2,4.9c0,0,0-0.1-0.1-0.1c-1.2-1.7-2.4-3.3-3.7-4.9
		c-5.1-6.3-10.9-13.2-17.4-19.7c0,0,0,0,0,0c5.9-2,12.1-2.9,18-3.6c2.5,2.5,5,5.1,7.5,7.6c4.7,5,9.9,10.4,14.3,15.2
		c0,0,0-0.1-0.1-0.1c-4.6-5.6-9.3-11-14.3-16.2c-2.1-2.2-4.3-4.4-6.4-6.6c0.2-0.1,0.3-0.3,0.3-0.5c0-0.3-0.2-0.5-0.5-0.5
		c-0.3,0-0.6,0-0.9-0.1c-0.6-0.6-1.2-1.2-1.8-1.8c0,0,0,0,0,0c3.3-1,6.8-1.5,10.3-1.6c3,1.6,6,3.2,9,4.8c0,0,0,0,0,0
		c-0.2,0.1-0.4,0.1-0.7,0.2c-0.1,0-0.1,0.1-0.2,0.1c0,0,0,0,0,0.1c0,0,0,0-0.1,0.1c0,0,0,0.1,0,0.1c0,0,0,0,0,0.1c0,0,0,0.1,0,0.1
		c0,0,0,0,0,0c0,0,0,0.1,0,0.1c0,0,0,0,0,0.1c0,0,0,0,0,0c0.1,0.2,0.3,0.3,0.5,0.3c0.7-0.1,1.5-0.1,2.3-0.2c2.8,1.6,5.6,3.2,8.4,4.8
		c2,1.1,4,2.3,5.9,3.4c0,0-0.1,0-0.1-0.1c-1.9-1.2-3.7-2.5-5.6-3.6c-2.4-1.5-4.9-3-7.5-4.5c0,0,0,0,0,0c3.9-0.4,7.7-0.4,11.6-0.1
		c2.5,0.2,5.1,0.8,7.5,1.6c0.1,0.1,0.3,0.2,0.4,0.2c2.6,1.6,6.1,4.4,7.8,8.6c0.1,0.2,0.3,0.3,0.5,0.3c0,0,0.1,0,0.1,0
		c0.1,0,0.1,0,0.2-0.1c0.1-0.1,0.2-0.3,0.2-0.4c-0.1-2-0.6-3.9-1.4-5.7c0,0,0,0,0,0c0.8,1,1.6,2,2.2,3.1
		C431.9,279.2,433.1,282.6,433.9,286.2C433.9,286.2,433.9,286.2,433.9,286.2z M416,307l6.1-0.2c0,0,0,0,0,0c0,0,0.1,0,0.1,0
		c0,0,0.1,0,0.1-0.1c0,0,0,0,0,0c0,0,0.1-0.1,0.1-0.1c0,0,0,0,0,0c0-0.1,0.1-0.1,0.1-0.2c0,0,0,0,0,0c0,0,0-0.1,0-0.1
		c0,0,0-0.1,0-0.1c-0.2-0.8-0.7-1.6-1.4-2v0v0c-0.1-0.1-0.2-0.1-0.3-0.1c0,0,0,0,0,0c1.6-0.6,3.2-1.2,4.8-1.7c0,0,0,0,0,0
		c3.6,3.6,6,8.3,6.8,13.4c-1.8-1.3-3.6-2.4-5.5-3.5C423.3,310.4,419.7,308.6,416,307L416,307z M357.9,269.5
		C357.9,269.5,357.9,269.5,357.9,269.5c-0.3-0.5-0.6-1.1-0.9-1.6l1.5-0.2c0,0,0,0,0,0c0.2,0.2,0.3,0.3,0.5,0.5c0,0,0,0,0,0h0
		c0,0.1-0.1,0.1-0.1,0.2L357.9,269.5z M355.7,264C355.7,264,355.7,264,355.7,264c-0.9-0.8-1.8-1.6-2.7-2.3c-0.7-1.1-1.5-2.2-2.2-3.3
		c3.5-2.3,6.6-5,9.4-8.1c0.1-0.1,0.1-0.1,0.1-0.2c0,0,0,0,0,0c0-0.1,0-0.1,0-0.2c0,0,0,0,0,0c0,0,0-0.1-0.1-0.1c0,0,0,0,0-0.1
		c0,0,0,0,0-0.1c0,0,0,0,0,0c0,0-0.1,0-0.1-0.1c0,0,0,0-0.1,0c-0.1,0-0.1,0-0.2,0l-4.4,1c0,0,0,0,0,0c0.4-0.8,0.9-1.6,1.2-2.4
		c0,0,0,0,0,0c1.8,0.6,3.5,1.2,5.3,1.9c2.4,1.9,4.8,4,7.2,6.1c-1.2,0.2-2.3,0.5-3.4,0.8c0,0,0,0,0,0c-0.1,0-0.2,0.1-0.2,0.2
		c0,0,0,0-0.1,0.1c0,0,0,0,0,0.1c0,0,0,0.1,0,0.1c0,0,0,0,0,0c0,0,0,0.1,0,0.1c0,0,0,0,0,0c0,0,0,0,0,0c0,0.1,0.1,0.2,0.2,0.2
		l2.1,1.5C363.3,260,359.3,261.6,355.7,264z M354.7,264.2c0.1,0.1,0.2,0.2,0.3,0.3h0c0,0,0,0-0.1,0c0,0,0,0,0,0c0,0,0,0,0,0
		C354.8,264.5,354.8,264.4,354.7,264.2C354.7,264.2,354.7,264.2,354.7,264.2z M359.8,237.2c0-0.3,0.1-0.7,0.1-1
		c0.1-1.3,0.2-2.6,0.2-3.9l0,0l3,1.2c0.2,0.1,0.4,0,0.6-0.1c0,0,0,0,0,0c0.1-0.2,0.1-0.4,0-0.6l-0.2-0.3c0,0,0,0,0,0
		c3.7,1.1,7.3,2.4,10.9,3.7c1,0.6,1.9,1.3,2.8,2c0,0,0,0,0,0l-3.7,0.1c-0.1,0-0.1,0-0.2,0c0,0,0,0,0,0c0,0-0.1,0.1-0.1,0.1
		c0,0,0,0,0,0c0,0,0,0.1-0.1,0.1c0,0,0,0.1,0,0.1c0,0,0,0,0,0.1c0,0,0,0.1,0,0.1c0,0,0,0.1,0,0.1c0,0,0,0,0,0c0,0.2,0.2,0.4,0.4,0.4
		c3.6,0.7,6.5,3.3,9.3,5.8c0.4,0.4,0.8,0.7,1.2,1.1c3.8,3.3,7.2,4.9,10.3,4.9c0.6,0,1.2-0.1,1.8-0.2c0.1,0,0.3-0.1,0.3-0.2
		c0,0,0-0.1,0.1-0.1c0,0,0,0,0,0c0-0.1,0-0.1,0-0.2c0-0.1-0.1-0.3-0.2-0.3l-1.8-1.1c0,0,0,0,0,0c0.8,0,1.6,0,2.5-0.2
		c0.1,0,0.2-0.1,0.2-0.1c0,0,0,0,0,0c0.1-0.1,0.1-0.1,0.1-0.2c0-0.1,0-0.1,0-0.2c0-0.1-0.1-0.2-0.1-0.3c0,0,0,0,0,0
		c-0.1-0.1-0.2-0.1-0.2-0.1c-3.6-0.9-6.9-3-9.1-6c0,0,0,0,0,0c5.4,2.3,10.8,4.8,16.2,7.3l3,4l0,0l-8.8,1.8c-0.2,0-0.3,0.2-0.4,0.3
		c0,0,0,0.1,0,0.1C385.9,247.8,373.1,241.8,359.8,237.2C359.8,237.2,359.8,237.2,359.8,237.2z M371.5,234.2
		C371.4,234.1,371.4,234.1,371.5,234.2c-2.9-1-5.7-1.9-8.5-2.8c0,0-0.1,0-0.1,0l-2.4-3.3c0.4,0.1,0.8,0.2,1.3,0.3
		c0,0.2,0.1,0.4,0.3,0.4c0.8,0.4,1.6,0.8,2.4,1.2c1.6,0.9,3.2,1.7,4.7,2.7C369.9,233.2,370.7,233.7,371.5,234.2
		C371.5,234.2,371.5,234.2,371.5,234.2z M357,247.3c0.1-0.3,0.2-0.5,0.3-0.8c0.6,0.4,1.2,0.9,1.8,1.3c0.2,0.1,0.3,0.3,0.5,0.4
		c0,0,0,0,0,0C358.7,247.9,357.8,247.6,357,247.3C356.9,247.3,356.9,247.3,357,247.3z M378.1,264.6c0.5,0.5,1,1,1.5,1.4c0,0,0,0,0,0
		c-2-0.1-3.9,0-5.9,0.2c0,0,0,0,0,0c1.3-0.6,2.7-1.1,4-1.5C377.9,264.6,378,264.6,378.1,264.6L378.1,264.6L378.1,264.6z
		 M370.2,255.9L370.2,255.9c-1.8-1.6-3.6-3.2-5.4-4.8c0,0,0,0,0,0c3.5,1.4,6.9,2.9,10.4,4.5c0,0,0,0,0,0
		C373.5,255.6,371.9,255.7,370.2,255.9z M437.8,119.2L437.8,119.2c-1.4-0.8-2.9-1.6-4.4-2.4c-0.1,0-0.1-0.1-0.2-0.1
		c-0.2-0.1-0.4-0.2-0.7-0.3c-0.3-0.1-0.6-0.3-0.9-0.4c-0.2-0.1-0.3-0.1-0.5-0.2c-0.4-0.2-0.7-0.3-1.1-0.5
		c-5.9-2.5-12.1-4.2-18.5-4.6c-2.4-0.2-4.9-0.2-7.3-0.1c0,0,0,0,0,0c2.5-0.8,5-1.3,7.5-1.7c8-1.2,17,1.2,25.3,3.7
		c0.8,0.3,1.7,0.5,2.6,0.8c0,0,0,0,0,0C439,115.3,438.4,117.3,437.8,119.2z M246.8,48.5c0.2,0.1,0.4,0.2,0.6,0.3
		c7.1,3.1,13.8,6.8,20.2,11.1c3.4,2.2,6.5,4.8,9.3,7.7c2.4,4.8,4.4,9.9,5.9,15.1c0,0,0,0,0,0c-0.2-0.3-0.4-0.6-0.6-0.9
		c-2.7-3.6-5.9-6.8-9.4-9.5c-1.4-1.7-2.8-3.3-4.3-4.9c-4.9-5.2-10.2-10-15.9-14.2c-0.7-0.5-1.5-1-2-1.4c0,0,0,0,0,0
		c0.9,0.7,1.7,1.4,2.5,2.1c5.9,5,11.5,10.4,16.7,16.1c0,0,0,0,0,0c-5.6-4.2-11.5-8.1-17.7-11.5c-1.4-0.8-2.9-1.6-4.3-2.4
		c0,0,0,0,0.1,0c1.6,1,3.2,2.1,4.8,3.1c6.7,4.6,13.9,9,20.1,14.3c2.7,3,4.8,6.4,6.3,10.1c0,0,0,0,0,0c-0.9-2.9-2.2-5.6-3.9-8
		c0,0,0,0,0,0c3.2,2.9,5.9,6.2,8.3,9.8c1.1,4,1.9,8.1,2.4,12.2c0,0,0,0,0,0c-3.6-5.9-9.4-10.8-15.9-14.9c-4.6-4.6-9.6-8.9-14.8-12.8
		c-0.8-0.6-1.8-1.3-2.5-1.8c0,0,0,0,0,0c1,0.8,1.9,1.6,2.9,2.4c3.7,3.3,7.4,6.6,10.9,10.1c0,0,0,0,0,0c-7.1-3.8-14.4-7.1-22-9.7
		c0.3-5.1,0.8-10.2,1.3-15.3C246.1,53.2,246.4,50.8,246.8,48.5C246.8,48.5,246.8,48.5,246.8,48.5z M272,97.1
		c0.8,0.7,1.6,1.4,2.3,2.1c0,0.1,0,0.2,0.1,0.3c1.7,2,2.4,4.6,1.9,7.1c-2-4.6-4.8-8.9-8-12.7C269.6,95,270.8,96,272,97.1z
		 M286.2,99.2L286.2,99.2c0.2,1.5,0.3,3,0.4,4.6c0,0,0,0,0,0c-0.7-1.1-1.6-2.1-2.5-3c-3-5.4-6.7-10.5-10.9-15
		C278.4,89.3,282.8,93.9,286.2,99.2z M242.8,216.7C242.9,216.7,242.9,216.7,242.8,216.7c1.5-0.1,2.9-0.3,4.4-0.4c0,0,0,0,0,0
		c-0.1,0.3-0.1,0.5-0.2,0.8C245.7,216.9,244.3,216.8,242.8,216.7z M235.3,229.6c-0.2,0-0.4,0.1-0.5,0.3c0,0,0,0,0,0
		c0,0.1,0,0.1,0,0.2c0,0,0,0.1,0,0.1c0,0.1,0.1,0.2,0.2,0.3c0.9,0.8,1.7,1.8,2.2,3c0,0,0,0,0,0c-3.3-1.7-6.9-2.9-10.5-3.7
		c0,0,0,0,0,0c4-1.4,8-2.8,12-4c0,0.1,0,0.1,0,0.2c0.9,1.5,1.6,3.1,2,4.9c0,0,0,0,0,0C239,230.1,237.1,229.7,235.3,229.6z
		 M233.6,216.9c-0.7,0.1-1.4,0.2-2,0.3c0.2-0.1,0.3-0.2,0.5-0.4L233.6,216.9L233.6,216.9z M238.2,217.2L238.2,217.2
		c2.9,0.2,5.8,0.4,8.7,0.6c-0.1,0.2-0.2,0.4-0.3,0.7c-0.5,1.4-1.2,2.7-2,4c-0.2,0.3-0.5,0.7-0.8,1c0,0,0,0,0,0
		c-6.3,1.6-12.6,3.6-18.7,6c-1.4-0.3-2.9-0.4-4.3-0.5l2.6-7.8c0,0,0-0.1,0-0.1c0,0,0-0.1,0-0.1c0,0,0-0.1,0-0.1c0,0,0-0.1,0-0.1
		c0,0-0.1-0.1-0.1-0.1c0,0,0,0,0,0c0,0-0.1-0.1-0.2-0.1c0,0,0,0,0,0c0,0,0,0,0,0c-0.1,0-0.1,0-0.2,0c0,0,0,0,0,0
		c-0.1,0-0.2,0-0.2,0.1c0,0,0,0,0,0c-1.1,0.9-1.9,1.9-2.6,3.1c0,0,0,0,0,0c-0.1-1.3-0.2-2.6-0.2-3.9c2.8-0.4,5.6-0.9,8.4-1.3
		c0,0,0,0,0,0c0,0.1-0.1,0.3-0.1,0.4c0,0,0,0,0,0c0,0,0,0,0,0.1c0,0.1,0,0.1,0,0.1c0,0,0,0,0,0c0,0,0,0.1,0.1,0.1c0,0,0,0,0,0
		c0,0,0.1,0,0.1,0.1c0,0,0.1,0,0.1,0c0,0,0,0,0.1,0c0,0,0,0,0,0c0.1,0,0.1,0,0.2,0c0,0,0,0,0.1,0c0.1,0,0.1-0.1,0.2-0.1
		c0.4-0.4,0.8-0.8,1.2-1.1c0,0,0,0,0,0C232.8,217.8,235.5,217.5,238.2,217.2z M219.7,216.4c2.8,0,5.6,0.1,8.3,0.2c0.2,0,0.4,0,0.6,0
		c-0.1,0.2-0.1,0.4-0.2,0.6c0,0.1-0.1,0.2-0.1,0.3h0c-2.9,0.4-5.8,0.9-8.6,1.3C219.8,218.1,219.7,217.3,219.7,216.4
		C219.7,216.4,219.7,216.4,219.7,216.4z M212.9,255.2c0.1-0.2,0.1-0.4,0.2-0.5c1.7-3.3,3.8-6.4,6.3-9.2c3.2-3.5,7.4-6,12-7.1
		c0.7,0.5,1.4,1,2,1.5c0,0,0,0,0,0c-2.4,1.6-4.7,3.2-7,4.8C221.9,248.1,217.3,251.6,212.9,255.2
		C212.9,255.2,212.9,255.2,212.9,255.2z M216.3,264.8l4.1-4.7c0,0,0-0.1,0-0.1c0,0,0-0.1,0.1-0.1c0,0,0-0.1,0-0.1c0,0,0-0.1,0-0.1
		c0,0,0-0.1,0-0.1c0,0,0,0,0,0c0,0-0.1-0.1-0.1-0.1c0,0,0,0,0,0c0,0,0,0,0,0c-0.1,0-0.1-0.1-0.2-0.1c0,0,0,0,0,0c-0.1,0-0.1,0-0.2,0
		c0,0,0,0,0,0l-4.9,1.5l0,0c0.3-1.8,0.6-3.5,1.1-5.2c0,0,0-0.1,0-0.1c0,0,0-0.1,0-0.1c0,0,0-0.1,0-0.1c0,0,0-0.1,0-0.1
		c0,0,0-0.1-0.1-0.1c0,0,0,0-0.1,0c0,0-0.1,0-0.1-0.1c0,0,0,0,0,0c0,0,0,0,0,0c-0.1,0-0.1,0-0.2,0c0,0,0,0-0.1,0
		c-0.1,0-0.1,0-0.1,0.1c0,0,0,0-0.1,0l-3.5,3.1l0,0c0.2-0.5,0.4-1,0.6-1.6c7-5.8,14.3-11.2,21.9-16.2c0,0,0,0,0,0
		c2.2,1.7,4.3,3.6,6.4,5.5c0.1,0.1,0.1,0.1,0.2,0.1c0,0,0,0,0.1,0c0.1,0,0.1,0,0.2,0c0,0,0.1,0,0.1,0c0,0,0,0,0.1,0
		c0,0,0.1,0,0.1-0.1c0,0,0,0,0,0c0,0,0,0,0,0c0-0.1,0.1-0.1,0.1-0.2c0,0,0,0,0,0c0-0.1,0-0.2,0-0.2c-0.3-1.4-0.8-2.8-1.4-4.2
		c0,0,0,0,0,0c2.1,1.1,4.1,2.3,6,3.8c-2.4,2.2-4.7,4.5-6.9,6.8c-3.6,3.8-7.1,7.7-10.6,11.6c0,0,0,0,0,0c-0.6-0.1-1.2-0.1-1.8-0.2
		c-0.3,0-0.6,0-0.9,0c-0.3,0-0.6,0-0.9,0c0,0,0,0,0,0C222.1,263.6,219.2,264.1,216.3,264.8C216.3,264.8,216.3,264.8,216.3,264.8
		L216.3,264.8z M219.1,274.2L219.1,274.2c0.5-0.4,1-0.7,1.5-1c0,0,0,0,0,0c-1.7,2.1-3.4,4.2-5.1,6.3c0,0,0,0,0,0
		C216.4,277.5,217.6,275.7,219.1,274.2z M222.1,290L222.1,290c0.1,0,0.1-0.1,0.1-0.1c0-0.1,0.1-0.1,0.1-0.2c0,0,0,0,0-0.1
		c0,0,0-0.1,0-0.1c0-0.1,0-0.1,0-0.2c0,0,0,0,0-0.1c-0.1-0.1-0.2-0.2-0.3-0.2c-2.5-0.5-5-0.1-7.3,1c0,0,0,0,0,0
		c1.4-2.8,3.4-5.3,5.8-7.3c0.1-0.1,0.1-0.2,0.2-0.3c0-0.1,0-0.2,0-0.3c-0.1-0.2-0.3-0.3-0.5-0.3l-5.4,0.6c0-0.3,0.1-0.6,0.1-0.8
		c0,0,0,0,0,0c0.1-0.1,0.1-0.2,0.2-0.2c2.5-3.2,5.1-6.3,7.7-9.5c0.1-0.1,0.1-0.2,0.2-0.3c3.8-2.1,7.9-3.7,12.2-4.8
		c0.1,0,0.2-0.1,0.3-0.2c0,0,0-0.1,0.1-0.1c0,0,0,0,0,0c0-0.1,0-0.1,0-0.2c0,0,0,0,0-0.1c0,0,0,0,0,0c0-0.1-0.1-0.2-0.2-0.2
		c-1.7-1.1-3.6-1.9-5.6-2.3c0,0,0,0,0,0c0.7-0.8,1.3-1.5,2-2.3c1-1.1,2-2.3,3-3.4c0.7-0.8,1.4-1.6,2.2-2.4c3.2-3.4,6.5-6.8,9.9-10
		c1.8,1.4,3.4,2.9,4.9,4.6c0.2,0.5,0.4,1,0.6,1.5c0,0,0,0,0,0c-0.5,0.7-1,1.5-1.5,2.2c0-0.1-0.1-0.2-0.2-0.3c-0.2-0.1-0.3-0.1-0.5,0
		c-1.7,1.1-3.1,2.7-4.2,4.7c-1.1,2-1.8,4.4-2.2,7c0,0,0,0,0,0c-3,5-5.9,10.1-8.5,15.3c-2.6,5.2-5.1,10.5-7.3,15.9
		c0,0.1-0.1,0.2-0.1,0.3c-0.3,0.7-0.6,1.4-0.8,2.2c0,0.1-0.1,0.2-0.1,0.4c0,0,0,0,0,0c-4.1,0.7-8.2,1.7-12.1,3.2
		c-1.8,0.6-3.6,1.3-5.4,1.9c0.7-1.5,1.5-3,2.4-4.3C214.4,296.3,218,292.8,222.1,290z M260.2,332.3c-0.2,0.5-0.4,1-0.6,1.5
		c-0.1,0.1-0.1,0.2-0.2,0.3l0,0c-0.8,0.9-4.6,1-6.7,2.6c-0.4,0.3-0.8,0.7-1.1,1.1c-0.2,0-0.4,0.1-0.6,0.1c0-0.7-0.1-1.5-0.1-2.2
		c-0.2-4.8-2-9.5-5-13.2c0,0,0,0,0,0c1.7,3.3,2.6,7.1,2.5,10.8c0,0.5,0,1.1-0.1,1.6c0,1-0.1,2-0.2,2.9c0,0,0,0,0-0.1
		c-1-4.2-2.6-8.2-4.5-12c0,0,0,0,0,0c0.3,3.9,1.9,10.6,3,15.6c0.1,0.6,0.2,1.1,0.2,1.7c0.2,8-10.7,11-10.8,11
		c-0.2-0.3-0.3-0.6-0.5-0.9c-0.8-1.8-1.9-6.2-4.2-3.6c-0.5,0.8-0.8,1.8-0.8,2.7c0,0.6,0.1,1.2,0.3,1.7c0,0.1,0.1,0.2,0.1,0.3
		c0,0,0,0,0,0c-0.5-0.1-1.1-0.2-1.6-0.5c-4.6-2.5-5.7-6.6-6.1-11.2c0,0,0,0,0,0c0.8-3.9,2.4-7.5,3.5-11.7c0.5-1.9,0.9-3.9,1-5.8
		c0-1.3,0-2.6,0.2-3.8c0,0,0,0,0,0c-0.6,1.2-1,2.5-1.5,3.7c-0.4,1.1-0.9,2.1-1.4,3.1c-0.3,0.4-0.5,0.8-0.7,1.2c0,0,0,0,0,0
		c0.2-1.2,0.4-2.5,0.6-3.7l0.1-0.4c0,0,0,0,0,0c-0.8,1.5-1.4,3.1-2.1,4.6c-2,4.6-3.4,9.3-3.5,13.6c0,1.5,0.1,2.9,0.4,4.3
		c0.4,2.3,1.4,4.5,2.8,6.3c0,0,0,0,0,0c-0.3-0.1-0.7-0.2-1-0.3c-0.8-0.4-1.7-0.5-2.6-0.3c-0.7,0.2-1,0.9-1,1.5
		c0,0.4,0.1,0.8,0.3,1.2c0.1,0.2,0.2,0.4,0.4,0.6c0,0,0,0,0,0c-0.6,0-1.3-0.1-1.9-0.3c-1.2-0.6-2.2-1.3-3.1-2.3l0,0l0,0l0,0
		c-3.1-3.2-2.8-4.4-3.9-9.3c-0.9-4.4-1.4-8.8-1.4-13.3c0-0.4,0-0.7,0-1.1c0.1-2.5,0.5-5,0.6-7.5c0,0,0,0,0,0c-0.9,3-2.3,5.8-3,8.8
		c-0.7,2.9-1.1,5.9-1.1,8.9c0,3.9,0.6,7.7,2.1,11.3c0.6,1.2,1.5,2.3,2.5,3.2c0,0,0,0,0,0c0,0,0,0,0,0c-0.2,0-0.5-0.1-0.7-0.1
		c-1.2-0.3-2.4-0.7-3.4-1.3c-0.6-0.2-0.9-0.1-1,0.1c-0.1,0.4,0.4,1.3,1.1,1.9c0,0,0,0,0,0c-0.9,0.1-1.8,0-2.7-0.2
		c-2-0.6-2.1-1.1-3.3-2.3c-1.8-1.8-3.4-3.8-4.6-6c-2-3-3.6-6.3-4.8-9.8c0.1-0.7,0.3-1.5,0.5-2.2c1.1-2.7,2.3-5.4,3.7-8
		c0.5-1,1.2-2.4,2-3.6c-0.6,0.5-1.1,1-1.6,1.4c-1.5,1.5-3.2,3.1-4.5,5c-0.4,0.6-0.8,1.3-1.1,1.9c0,0,0,0,0,0c-0.1-1.3-0.1-2.6,0-3.9
		c0,0,0,0,0,0c-3.4,8.1-1.2,18.2,4.4,24.7c0,0,0,0,0,0c-1.7-0.4-3.3-1.2-4.7-2.3c-5-3.9-7.9-12-7.8-18c0.2-4.9,1.5-8.5,4.1-11.6
		c4.9-5.8,14.2-9.4,28.3-15c4.1-1.6,8.4-2.9,12.8-3.8c-0.8,2.4-1.5,4.7-1.8,6c0,0,0,0,0,0c0.7-2.1,1.5-4.1,2.3-6.1c0,0,0,0,0,0
		c4.6-0.8,9.1-0.6,12.8,1.6c1.1,0.8,2,1.8,2.7,3c0.1,0.1,1.2,2.9,1.8,4.1c0.6,1.5,1.5,2.9,2.3,4.4c0.2,0.6,0.5,1.1,0.8,1.6
		c0,0,0,0,0,0c-0.1-0.7-0.1-1.4-0.1-2.1c0-1.1,0.3-2.1,1-3l0,0c5.2,1.8,9.3,5.6,11.5,10.6c0.5,1.7,0.9,4.3,1.1,6.5
		C260.4,330.5,260.4,331.7,260.2,332.3z M272.8,325.5h-5.4c0,0,0,0,0,0c1.3-0.6,2.6-1.2,3.9-2c1.9-1.1,3.7-2.2,5.3-3.6c0,0,0,0,0,0
		C275.5,321.9,274.2,323.7,272.8,325.5C272.8,325.5,272.8,325.5,272.8,325.5z M358.7,323.6L358.7,323.6L358.7,323.6
		c-0.2,0.6-0.3,1.3-0.5,1.9c0,0,0,0,0,0h-64.8c0,0,0,0,0,0c2-2.8,3.8-5.7,5.4-8.7l0.2-0.4c3.1-5.8,6.3-11.8,11.7-15.3
		c0.1-0.1,0.2-0.2,0.2-0.3c0,0,0,0,0,0c0,0,0-0.1,0-0.1c0,0,0,0,0-0.1c0,0,0-0.1,0-0.1c0,0,0-0.1,0-0.1c0,0,0,0,0,0c0,0,0,0,0,0
		c0,0,0-0.1-0.1-0.1c0,0,0,0,0,0c-0.1-0.1-0.3-0.1-0.5-0.1c-2.7,0.9-5.2,2.2-7.4,3.9c0,0,0,0,0,0c2.7-3.3,6-6,9.7-8
		c0.1-0.1,0.2-0.1,0.2-0.2c0,0,0,0,0,0c0,0,0-0.1,0-0.1c0,0,0,0,0-0.1c0,0,0-0.1,0-0.1c0,0,0-0.1,0-0.1c0,0,0,0,0-0.1c0,0,0,0,0,0
		c0,0,0-0.1-0.1-0.1c0,0,0,0,0,0c0,0-0.1-0.1-0.1-0.1c0,0,0,0,0,0c-0.1,0-0.2-0.1-0.3,0c-3.6,0.9-6.3,1.8-7.8,2.9
		c-5.5,4.1-9.8,9.7-12.5,16c0,0,0,0,0,0c0,0.1,0,0.1,0,0.2c0,0,0,0,0,0.1c0,0.1,0,0.1,0.1,0.2c0,0,0,0,0,0c0,0,0.1,0.1,0.1,0.1
		c0,0,0,0,0,0c0,0,0,0,0,0c0,0,0,0,0.1,0c0,0,0.1,0,0.1,0c0,0,0.1,0,0.1,0c0,0,0.1,0,0.1,0c0,0,0.1,0,0.1,0l2.4-1.8l0,0
		c-1.3,4.5-3.2,8.8-5.6,12.7h-14.1c0,0,0,0,0,0c4.8-4.9,8.9-10.5,12.2-16.5c0.1-0.2,0-0.5-0.2-0.6c0,0,0,0,0,0c0,0,0,0,0,0
		c0,0,0,0-0.1,0c-0.1,0-0.1,0-0.2,0c0,0,0,0,0,0c-0.1,0-0.2,0-0.2,0.1l-4.4,2.6c0,0,0,0,0,0c2.1-2.9,2.6-5.6,1.3-7.4
		c0-0.1-0.1-0.1-0.2-0.2c0,0,0,0,0,0c0,0-0.1,0-0.1,0c-0.1,0-0.2,0-0.4,0.1c-0.1,0-0.1,0.1-0.2,0.2c-4.6,8-11.7,14.3-20.2,18
		c-0.3,0.1-0.4,0.4-0.3,0.7c0.1,0.2,0.2,0.3,0.4,0.3c0,0,0,0,0,0l2.9,0.3l0,0c-1,0.6-2,1.1-3.2,1.7c0,0,0,0,0,0
		c-2.1-7.6-6.2-10.1-13.8-17.1c-2.7-2.7-6-5.3-10.3-6.7c-1-0.3-2-0.6-3.1-0.7c-2.6-0.5-5.3-0.5-8-0.2c0,0,0,0,0,0
		c0.6-1.5,1.2-2.9,1.9-4.4c4.2-9.5,9-18.8,14.3-27.8c0,0,0,0,0,0c0,0.8-0.1,1.6,0,2.4c0,0.1,0.1,0.2,0.1,0.3c0,0,0.1,0,0.1,0.1
		c0,0,0.1,0,0.1,0.1c0.1,0,0.1,0,0.2,0c0,0,0.1,0,0.1,0c0,0,0,0,0,0c0.1,0,0.2-0.1,0.3-0.3c1-2.3,2.4-4.4,4.2-6.1c0,0,0,0,0,0
		c-0.2,1.9-0.1,3.8,0.3,5.6c0.4,2.1,1.6,4,3.3,5.2c-3.8,2.3-6.7,5.8-8.3,9.9c-0.1,0.3,0,0.5,0.3,0.6c0,0,0,0,0,0c0.1,0,0.3,0,0.4,0
		c6.5-2.8,13.8-3.5,20.7-1.9c0,0,0,0,0,0c-1.2,1.5-1.8,3.5-1.6,5.4c0,0.2,0.2,0.3,0.3,0.4c0.1,0,0.1,0,0.2,0c0.1,0,0.1,0,0.2-0.1
		c3.4-1.8,7.1-3,10.9-3.8c0.9-0.2,1.5-0.2,1.9,0c0.1,0.1,0.3,0.2,0.4,0.3c0.6,0.7,0,2-0.8,2.8c-0.8,0.9-2.1,2.4-1.4,4
		c0.1,0.1,0.2,0.2,0.3,0.3c0,0,0,0,0,0c0.1,0,0.3,0,0.4-0.1c2.8-2,6.4-2.7,9.7-1.9c0,0,0,0,0,0c-2.3,2.3-4.2,5-5.6,7.9
		c-0.1,0.2,0,0.5,0.1,0.6c0,0,0,0,0,0h0c0.1,0.1,0.2,0.1,0.3,0.1c0,0,0.1,0,0.1,0c0,0,0.1,0,0.1,0c0,0,0.1,0,0.1,0
		c6.5-5.2,15.8-5.5,23.9-5.8c8.4-0.3,17.9-1.1,24.2-7c0.2-0.2,0.2-0.5,0-0.7c-0.1-0.1-0.1-0.1-0.2-0.1c-0.1,0-0.1,0-0.2,0l-8.6,0
		l0,0l7.9-6.3c0.2-0.2,0.3-0.5,0.1-0.7c0,0,0,0-0.1,0c-0.1-0.1-0.1-0.1-0.2-0.1c0,0,0,0,0,0c-0.1,0-0.2,0-0.3,0
		c-0.9,0.4-1.9,0.8-2.8,1.2c-4.7,2.2-9.6,4-14.7,5.4l0,0l1.8-2.3c0.2-0.2,0.1-0.5-0.1-0.7c0,0,0,0,0,0c-0.1,0-0.1-0.1-0.2-0.1
		c0,0,0,0,0,0c-0.1,0-0.2,0-0.3,0.1c-5.1,2.8-19.2,1.6-27.5-1.2c-1-0.3-2-0.6-2.9-0.9c-0.8-0.2-1.7-0.5-2.5-0.7
		c-0.2-0.1-0.4-0.2-0.7-0.2c-0.1,0-0.1,0-0.2-0.1c-3.4-1.3-7.2-3.5-13-10c-0.1-0.1-0.2-0.1-0.2-0.1c0,0,0,0-0.1,0
		c-0.1,0-0.1,0-0.2,0c-0.1,0-0.2,0-0.2,0.1c-0.2,0.1-0.2,0.4-0.1,0.6l1.1,2.8c0,0,0,0,0,0c-3.2-1.6-5.8-4.1-7.5-7.3
		c-0.1-0.1-0.1-0.2-0.2-0.2c-0.1,0-0.2-0.1-0.3,0c-0.2,0-0.4,0.2-0.4,0.4l-0.4,2.8c0,0,0,0,0,0c-2.6-3.8-4.3-8.1-5.1-12.6
		c0.1-0.2,0.2-0.4,0.4-0.6c0.4-0.6,0.9-1.3,1.3-1.9c0,0,0,0,0,0c1.2,2.7,2.3,5.5,3.5,8.2c0,0.1,0.1,0.2,0.2,0.2c0,0,0.1,0,0.1,0.1
		c0,0,0,0,0,0c0.1,0,0.2,0,0.3,0c0.2-0.1,0.3-0.2,0.3-0.4c0.5-3.4,2.8-6.2,6-7.5c0.3-0.1,0.4-0.4,0.3-0.6c-0.1-0.2-0.2-0.3-0.3-0.3
		c-0.1,0-0.1,0-0.2,0l-2.4,0.5c0,0,0,0,0,0c1.8-1.3,3.7-2.5,5.7-3.4c0.3-0.1,0.4-0.4,0.3-0.7c0-0.1-0.1-0.2-0.2-0.2
		c0,0-0.1,0-0.1-0.1c0,0,0,0,0,0c0,0,0,0,0,0c-0.7-0.1-1.3-0.3-2-0.5c-2-0.6-3.8-1.6-5.5-2.8c2-2.4,4.2-4.7,6.4-6.9
		c3.5-3.3,6.8-6.9,11.2-8.9c-0.1,0-0.1,0.1-0.2,0.1c-2.3,0.9-4.5,2.1-6.5,3.7c0,0,0,0,0,0c0,0,0,0,0,0c0-0.1-0.1-0.1-0.2-0.1
		c-0.2-0.1-0.4-0.1-0.5,0.1l-0.2,0.1c-0.1,0-0.2,0-0.3,0.1l-2.5,1.2c-0.2,0.1-0.3,0.4-0.2,0.7c0,0.1,0.1,0.2,0.2,0.2c0,0,0,0,0,0
		c0.1,0,0.1,0,0.2,0c0,0,0,0,0.1,0c0.2,0,0.4-0.1,0.7-0.1c0,0,0,0,0,0c0,0,0.1,0,0.1,0.1c-0.8,0.7-1.7,1.5-2.5,2.2
		c-1.8,1.7-3.5,3.5-5.2,5.4c0,0,0,0,0,0c0-0.1-0.1-0.2-0.2-0.3c-1.2-0.5-2.3-1.1-3.4-1.8c-0.6-0.4-1.2-0.8-1.8-1.2c0,0,0,0,0,0
		c1.7-1.3,3.4-2.6,5.2-3.7c0,0,0,0,0,0l-0.7,0.9c0,0,0,0,0,0c0,0.1-0.1,0.1-0.1,0.2c0,0,0,0.1,0,0.1c0,0,0,0,0,0.1c0,0,0,0.1,0,0.1
		c0,0,0,0,0,0.1c0,0,0,0.1,0.1,0.1c0,0,0,0,0,0c0,0,0,0,0,0c0.1,0,0.2,0.1,0.2,0.1c0,0,0,0,0,0c0,0,0.1,0,0.1,0
		c0.2-0.1,0.4-0.1,0.6-0.2c0,0,0.1,0.1,0.1,0.1c0.2,0.1,0.4,0.2,0.6,0c1.2-0.8,2.3-1.9,3.1-3.2c0.1-0.1,0.1-0.3,0.1-0.4c0,0,0,0,0,0
		c0-0.1,0-0.1-0.1-0.1c0,0-0.1-0.1-0.1-0.1c-0.1,0-0.1-0.1-0.2-0.1c0,0,0,0,0,0c3.7-2.1,7.6-3.9,11.7-5.1c0,0,0,0-0.1,0
		c-8.1,1.6-15.2,5.6-21.6,10.6c-1.5-1.1-2.9-2.4-4.1-3.7c0,0,0,0,0,0c0-0.1,0-0.3-0.1-0.4c-0.3-0.6-0.6-1.2-0.9-1.8
		c6-2.4,12.4-4,16.8-2.5c0,0,0,0,0,0c-2.8-1.5-6.2-0.9-9.3-0.5c-0.6,0.1-1.2,0.2-1.9,0.4c0,0,0,0,0,0c0.2-0.2,0.5-0.3,0.7-0.5
		c0.2,0.1,0.4,0.2,0.6,0.1c0.7-0.4,1.3-1,1.6-1.8c0.1-0.3,0.2-0.6,0.2-0.9c0-0.2-0.1-0.4-0.2-0.5c-0.1-0.1-0.3-0.3-0.4-0.3
		c-0.1-0.1-0.3-0.1-0.5-0.1c0,0,0,0,0,0c0-0.1-0.1-0.2-0.1-0.3c0,0,0,0,0,0c0,0,0,0-0.1,0c0,0-0.1,0-0.1-0.1c0,0,0,0,0,0
		c-0.1,0-0.1,0-0.2,0c0,0,0,0,0,0c0,0,0,0,0,0c-0.1,0-0.2,0.1-0.3,0.1l-2.9,2.8c-0.4,0.3-0.6,0.8-0.7,1.3c0,0.3,0.1,0.5,0.3,0.7
		c0,0,0,0,0,0c0,0,0.1,0,0.1,0.1c0,0,0,0,0,0c-1.3,0.4-2.6,0.8-3.9,1.3c0,0,0,0,0,0c-0.3-0.9-0.6-1.8-0.7-2.8l0.2,0.3l0.1,0.1l0,0
		c0,0,0,0,0.1,0.1c0,0,0,0,0.1,0.1c0.1,0,0.1,0,0.2,0.1c0,0,0,0,0,0c0.1,0,0.3,0,0.4-0.1c0.1-0.1,0.2-0.2,0.2-0.3
		c0.3-2.1,0.7-4.3,1.1-6.4c0-0.1,0-0.1,0.1-0.2c2.6-0.5,5.1-0.9,7.6-1.3c0.1,0.1,0.3,0.1,0.4,0.1c0,0,0,0,0,0
		c-0.1,0.2-0.2,0.3-0.3,0.5c0,0,0,0.1,0,0.1c0,0,0,0.1,0,0.1c0,0,0,0.1,0,0.1c0,0,0,0,0,0.1c0,0,0,0.1,0,0.1c0,0,0,0.1,0,0.1
		c0,0,0,0,0.1,0.1c0,0,0,0,0.1,0c0,0,0,0,0,0c0.1,0,0.1,0,0.2,0c0,0,0,0,0.1,0c0.1,0,0.1,0,0.2,0c1-0.4,1.9-1,2.6-1.8
		c1.2-0.1,2.4-0.3,3.7-0.4c0.6,0,1.2-0.1,1.8-0.1c0,0,0,0,0,0c0,0.1,0,0.2,0,0.3c0.1,0.1,0.2,0.3,0.4,0.3c0.8,0.1,1.6,0,2.3-0.4
		c0.1-0.1,0.2-0.2,0.2-0.4c1.7-0.1,3.5,0,5.2,0.4c0,0-0.1,0-0.1,0c-1.7-0.4-3.5-0.7-5.3-0.8c-0.1-0.1-0.1-0.1-0.2-0.1
		c-0.4-0.1-0.8-0.1-1.2-0.1c-0.1-0.1-0.2-0.1-0.2-0.2c-0.1-0.1-0.3-0.1-0.4-0.1c-0.1,0-0.3,0.1-0.3,0.2l-0.1,0.2
		c-1.7,0-3.5,0.2-5.2,0.3c0,0,0,0,0,0c0-0.1,0.1-0.1,0.2-0.2c0.1-0.1,0.1-0.2,0.1-0.3c0,0,0,0,0,0c0,0,0-0.1,0-0.1c0,0,0-0.1,0-0.1
		c0,0,0,0,0-0.1c0,0-0.1-0.1-0.1-0.1c0,0,0,0,0,0c0,0,0,0-0.1,0c0,0-0.1,0-0.1,0c0,0,0,0,0,0c-0.2,0-0.3,0-0.5,0.2
		c-0.1,0.1-0.1,0.2-0.2,0.3v0v0c0-0.1,0-0.2-0.1-0.2c0-0.1-0.1-0.1-0.2-0.2c-0.1-0.1-0.3-0.1-0.5,0l-2.4,1.3c0,0,0,0-0.1,0.1
		c-2.4,0.3-4.8,0.7-7.2,1.2c0,0,0,0,0,0c0.5-1.3,1.1-2.7,1.7-3.9c3.3,0.3,6.6,0.6,9.8,0.9c0,0,0,0-0.1,0c-3.1-0.6-6.3-1.1-9.5-1.5
		c0,0,0,0,0,0c0.3-0.6,0.6-1.1,1-1.7c2.3-0.1,4.6-0.2,6.9-0.2c3.9,0.1,7.9,0,11.6,0.9c0,0,0,0,0,0c0.5,0.1,1.1,0.3,1.6,0.4
		c0,0,0,0-0.1,0c-5.1-2-10.7-2-16.1-2.1c-1.1,0-2.2,0.1-3.4,0.1c0,0,0,0,0,0c0.9-1.4,2-2.8,3.1-4c0,0,0,0,0,0c0.1,0,0.2-0.1,0.3-0.1
		c5.8-6,14.2-8.8,22.5-7.5c0.3,0.3,1.2,0.4,3.7,0.6c0.1,0,0.1,0,0.2,0c0,0,0,0,0,0c0,0,0.1,0,0.1-0.1c0,0,0.1-0.1,0.1-0.1
		c0,0,0,0,0-0.1c0,0,0-0.1,0-0.1c0,0,0,0,0-0.1c0,0,0,0,0,0c0-0.1,0-0.2-0.1-0.3c-1-1.3-2.4-2.2-3.9-2.8c0,0,0,0,0,0l0.5-0.1
		c0,0,0,0,0.1,0c0,0,0.1,0,0.1-0.1c0,0,0,0,0,0c0,0,0.1-0.1,0.1-0.1c0,0,0,0,0-0.1c0,0,0-0.1,0-0.1c0,0,0,0,0-0.1c0,0,0-0.1,0-0.1
		c0,0,0,0,0,0c0,0,0-0.1,0-0.1c0,0,0-0.1-0.1-0.1c0,0,0,0,0,0c0,0-0.1-0.1-0.1-0.1c-2.3-1.3-5-1.9-7.7-1.8c0,0,0,0,0,0l1-0.5
		c0,0,0,0,0,0c0.1,0,0.1-0.1,0.1-0.1c0,0,0,0,0,0c0,0,0.1-0.1,0.1-0.2c0,0,0,0,0,0c0-0.1,0-0.1,0-0.2c0,0,0,0,0,0c0,0,0-0.1,0-0.1
		c0,0,0,0,0,0c0,0,0,0,0,0c-0.1-0.1-0.2-0.2-0.3-0.2c-3.5-0.9-7.2-0.1-10.7,0.6c-1,0.2-1.9,0.4-2.9,0.6c-3.2,0.6-9,1-12.1-2.8
		c0,0-0.1-0.1-0.1-0.1c0,0,0,0,0,0c0,0-0.1,0-0.1,0c0,0,0,0-0.1,0c0,0-0.1,0-0.1,0c0,0-0.1,0-0.1,0c0,0-0.1,0-0.1,0c0,0-0.1,0-0.1,0
		c0,0,0,0-0.1,0c0,0,0,0,0,0c0,0,0,0-0.1,0.1c0,0,0,0.1,0,0.1c0,0,0,0.1,0,0.1c0,0,0,0.1,0,0.1c0,0,0,0.1,0,0.1c0,0,0,0,0,0
		c0,0,0,0.1,0,0.1l1.4,2.9c0,0,0,0,0,0c-4-1.6-7.6-3.9-10.6-6.9c-0.1-0.1-0.1-0.1-0.2-0.1c0,0,0,0,0,0c-0.1,0-0.1,0-0.2,0
		c0,0,0,0-0.1,0c0,0-0.1,0-0.1,0c0,0-0.1,0-0.1,0.1c0,0,0,0-0.1,0c0,0,0,0,0,0c0,0-0.1,0.1-0.1,0.1c0,0,0,0,0,0c0,0.1,0,0.1,0,0.2
		c0.8,5.3,3.8,9.9,8.2,12.8c2.2,1.4,4.8,2.4,7.4,2.7c0,0,0,0,0,0c-0.4,0.3-0.8,0.6-1.1,0.9c-1,1-1.8,2.2-2.4,3.5
		c-0.5,1.2-0.9,2.5-1.2,3.8c0,0,0,0,0,0c-3.1,0.2-6.2,0.6-9.2,1c-1.6-0.1-3.3-0.2-4.9-0.3c0,0,0,0,0,0c3.2-1.9,6.8-2.9,10.5-2.9
		c0,0,0.1,0,0.1,0c0,0,0.1,0,0.1,0c0,0,0.1,0,0.1,0c0,0,0,0,0.1,0c0,0,0.1-0.1,0.1-0.1c0,0,0,0,0-0.1c0,0,0-0.1,0.1-0.1
		c0,0,0,0,0-0.1c0,0,0-0.1,0-0.1c0,0,0,0,0,0c0,0,0-0.1,0-0.1c0,0,0-0.1,0-0.1c0,0,0,0,0,0c0,0-0.1-0.1-0.1-0.1
		c-1.4-1.1-2.9-1.8-4.6-2.2c0,0,0,0,0,0c1.2-0.3,2.4-0.8,3.6-1.3c0,0,0,0,0,0c0.1,0,0.1-0.1,0.2-0.2c0,0,0,0,0-0.1c0,0,0-0.1,0-0.1
		c0,0,0,0,0-0.1c0,0,0-0.1,0-0.1c0,0,0,0,0-0.1c0,0,0,0,0-0.1c0,0,0,0,0,0c0-0.1-0.1-0.1-0.1-0.1c0,0,0,0,0,0
		c-2.5-1.6-5.4-2.7-8.3-3.2c0.3-0.7,0.7-1.3,1.1-1.9c0.5-0.5,1.1-1,1.8-1.3c0.1,0,0.1-0.1,0.2-0.1c0-0.1,0.1-0.1,0.1-0.2
		c0-0.1,0-0.3-0.1-0.4c-0.6-0.9-1.8-0.8-2.9-0.7c-0.1,0-0.2,0-0.3,0.1c-0.9,0.7-1.8,1.4-2.5,2.2c-2.3,2.3-4.1,5.2-5.1,8.4
		c0,0,0,0,0,0.1c0,0.1,0,0.1,0,0.2c0,0,0,0.1,0,0.1c0,0,0,0.1,0,0.1c0,0,0,0.1,0.1,0.1c0,0,0,0,0,0c0,0,0.1,0,0.1,0.1c0,0,0,0,0,0
		c0,0,0,0,0,0c0.1,0,0.1,0,0.2,0c0,0,0,0,0,0c0.1,0,0.1,0,0.2-0.1c1.1-1,2.4-1.7,3.8-2.2c-1.3,2.1-2.3,4.4-3,6.7c0,0,0,0,0,0
		c-3.1-0.1-6.1-0.2-9.2-0.2c0-2.6,0.1-5.1,0.3-7.7c0-0.1,0-0.2-0.1-0.2c0,0,0,0,0,0c0-0.1-0.1-0.1-0.2-0.2c0,0,0,0,0,0
		c0,0-0.1,0-0.1-0.1c0,0,0,0,0,0c0,0,0,0,0,0c0,0,0,0-0.1,0c-0.1,0-0.1,0-0.2,0c0,0,0,0-0.1,0c-0.1,0-0.1,0.1-0.2,0.2
		c-1.2,1.8-2.1,3.8-2.7,5.9c0,0,0,0,0,0c-1.2-7-0.3-14.1,2.7-20.5c0,0,0,0,0,0c1.2-1.2,2.5-2.3,4-3.1c0.1,0,0.1-0.1,0.1-0.1
		c0,0,0-0.1,0.1-0.1c0,0,0,0,0-0.1c0-0.1,0-0.1,0-0.2c0,0,0,0,0,0c0-0.1,0-0.1-0.1-0.2c0,0,0,0,0,0c0,0,0,0,0,0
		c-0.1-0.1-0.2-0.2-0.3-0.2c-1.3-0.4-2.7-0.5-4-0.1c1-1.5,2.1-2.8,3.3-4.1c0.4-0.4,0.8-0.8,1.3-1.2c1.3-0.4,2.6-0.7,3.9-0.7l0,0
		l-1,0.5c-0.1,0-0.1,0.1-0.2,0.2c0,0,0,0,0,0.1c0,0,0,0.1,0,0.1c0,0,0,0.1,0,0.1c0,0,0,0,0,0.1c0,0,0,0.1,0,0.1c0,0,0,0,0,0
		c0,0,0,0,0,0c0,0.1,0.1,0.1,0.1,0.2c0,0,0,0,0,0c0.1,0,0.2,0.1,0.2,0.1c3.5,0.1,7,1,10.1,2.7c0.1,0,0.1,0.1,0.2,0.1c0,0,0,0,0,0
		c0,0,0.1,0,0.1,0c0,0,0.1,0,0.1,0c0,0,0.1,0,0.1,0c0,0,0.1,0,0.1-0.1c0,0,0,0,0.1-0.1c0,0,0,0,0-0.1c0,0,0,0,0,0c0,0,0-0.1,0-0.1
		c0,0,0-0.1,0-0.1c0,0,0,0,0,0c0-0.1,0-0.1,0-0.2c-1.2-3.1-3.1-5.9-5.5-8.3c0.8-1.3,1.7-2.5,2.8-3.5c1.8-1.7,4-2.9,6.5-3.6
		c0,0,0,0,0,0c0.1,0,0.1,0,0.2-0.1c0,0,0,0,0,0c0,0,0.1-0.1,0.1-0.1c0,0,0,0,0-0.1c0,0,0-0.1,0-0.1c0,0,0,0,0-0.1c0,0,0-0.1,0-0.1
		c0,0,0,0,0,0c0,0,0-0.1,0-0.1c0,0,0-0.1-0.1-0.1c0,0,0,0-0.1,0c0,0-0.1-0.1-0.1-0.1c-1.6-0.6-3.3-1-5-1c0,0,0,0,0,0
		c4.3-2.9,9.2-5,14.3-6.2c0,0,0,0,0,0c0.1,0,0.2-0.1,0.2-0.1c0,0,0,0,0,0c0.1-0.1,0.1-0.1,0.1-0.2c0,0,0,0,0,0c0,0,0,0,0-0.1
		c0,0,0-0.1,0-0.1c0,0,0,0,0,0c0-0.1-0.1-0.1-0.1-0.2c0,0,0,0-0.1-0.1c-0.1,0-0.1-0.1-0.2-0.1c0,0,0,0,0,0
		c-4.4-0.8-8.7,0.4-12.3,1.7c-1.7,0.6-3.1,1.5-4.4,2.7c-2.4,2.1-4.4,4.9-6,7.6l-0.8,1.3c-1.2,2.1-2.5,4-3.9,5.9l0,0l-2.9-1
		c1.6-8.9,5.8-17.1,11.9-23.8c0,0,0,0,0,0c2.6-2.2,5.5-4,8.5-5.4c0,0,0,0,0,0c0.1,0,0.1-0.1,0.2-0.2c0,0,0,0,0-0.1c0,0,0-0.1,0-0.1
		c0,0,0,0,0-0.1c0,0,0-0.1,0-0.1c0,0,0,0,0-0.1c0,0,0,0,0-0.1c0,0,0,0,0,0c0-0.1-0.1-0.1-0.1-0.1c0,0,0,0,0,0l-6.1-3.8
		c0.3-0.5,0.7-1,1.1-1.4c1.3-1.2,3.2-1.7,5-1.2c0.1,0,0.1,0,0.2,0c0,0,0,0,0,0c0.1,0,0.1,0,0.1,0c0,0,0.1,0,0.1-0.1
		c0,0,0.1,0,0.1-0.1c0,0,0-0.1,0.1-0.1c0,0,0,0,0-0.1c0,0,0,0,0,0c0,0,0-0.1,0-0.1c0,0,0,0,0,0c0-0.1,0-0.1,0-0.2
		c-1-2.4-1.8-5-2.2-7.5c-0.3-7.3,1.6-14.6,5.3-20.9c0.2-0.3,0.4-0.7,0.6-1c1.1-1.6,2-3.4,2.5-5.3c0.6-2.7-0.1-5.4-0.8-8l-0.2-0.9
		c-2.3-9.2-2.5-18.6-2-27.9c0,0,0,0,0,0c7.7,3.2,16.7,6.9,24.7,11.9c5,4.9,9.4,10.4,13.2,16.2c0,0,0,0,0,0c-1.4-1-3-1.8-4.6-2.4
		c-0.1,0-0.1,0-0.2,0c0,0,0,0,0,0c0,0-0.1,0-0.1,0c0,0,0,0-0.1,0c0,0-0.1,0-0.1,0.1c0,0,0,0-0.1,0c0,0,0,0,0,0.1c0,0,0,0.1-0.1,0.1
		c0,0,0,0,0,0c0,0,0,0,0,0.1c0,0,0,0.1,0,0.1c0,0,0,0,0,0c0,0.1,0,0.1,0,0.2l0.4,0.9l0,0l-2.7,0.1c-1-1.1-2.1-2.1-3.2-3.1
		c-2-1.8-4.1-3.4-6.4-4.9c-4.6-4.6-9.5-8.8-14.8-12.6c-0.7-0.5-1.5-1.1-2.2-1.6c0,0,0,0,0,0c1,0.8,2,1.7,3,2.5
		c3.6,3.1,7.1,6.2,10.4,9.5c0,0,0,0,0,0c-3.2-1.8-6.6-3.4-10.1-4.6c-1.1-0.4-2.1-0.8-3.2-1.2c0,0,0,0,0.1,0c1,0.4,2.1,0.9,3.1,1.4
		c4.4,2,8.6,4.3,12.5,6.9c1.8,1.8,3.5,3.8,5,5.8c2.4,3.1,4.6,6.4,6.5,9.9c0,0,0,0,0,0c-1.4-0.6-2.8-0.9-4.3-1.1
		c-2.4-0.3-4.9-0.1-7.3,0.6c0,0,0,0,0,0c-0.1,0-0.1,0.1-0.2,0.1c0,0,0,0-0.1,0.1c0,0,0,0,0,0.1c0,0.1,0,0.1,0,0.2c0,0,0,0,0,0
		c0,0,0,0.1,0,0.1c0,0,0,0,0,0c0,0,0,0,0,0c0,0,0.1,0.1,0.1,0.1c0,0,0,0,0,0c0,0,0.1,0.1,0.1,0.1c4.5,1.8,8.7,4.4,12.4,7.5
		c0.1,0.1,0.1,0.1,0.2,0.1c0,0,0,0,0.1,0c0,0,0.1,0,0.2,0c0,0,0.1,0,0.1,0c0,0,0,0,0,0c0,0,0.1-0.1,0.1-0.1c0,0,0,0,0,0c0,0,0,0,0,0
		c0.1-0.1,0.1-0.3,0.1-0.5l-1.1-3.6c0,0,0,0,0,0c2.3,1.6,4,3.9,4.7,6.6c0.1,0.2,0.3,0.4,0.5,0.4h0h0c0.2,0,0.4-0.2,0.5-0.4
		c0.6-3.9,0.1-7.9-1.5-11.5l0,0l2,1.6c0.1,0.1,0.1,0.1,0.2,0.1c0,0,0,0,0.1,0c0,0,0.1,0,0.1,0c0,0,0.1,0,0.1,0c0,0,0,0,0,0
		c0,0,0.1-0.1,0.1-0.1c0,0,0,0,0,0c0,0,0,0,0,0c0.1-0.1,0.1-0.3,0.1-0.5l-1.2-3.5c0,0,0,0,0,0c3.4,3.6,5.4,6.1,6.8,11.3
		c0.1,0.2,0.3,0.4,0.5,0.4c0,0,0,0,0,0c0.2,0,0.4-0.2,0.5-0.4c2.7-10.8,0.5-19.1-2.4-29.5l-0.2-0.7c-2.9-10.9-8.5-20.9-16.4-28.9
		c0,0-0.1-0.1-0.2-0.1c0,0,0,0,0,0c0,0-0.1,0-0.1,0c0,0-0.1,0-0.1,0c0,0,0,0-0.1,0c0,0-0.1,0-0.1,0.1c0,0,0,0,0,0c0,0,0,0-0.1,0
		c-0.2,0.2-0.2,0.5-0.1,0.7c2,2.7,3.8,5.6,5.4,8.6c0,0,0,0,0,0c-2.4-2.2-4.9-4.1-7.6-5.8c-6.5-4.4-13.6-7.9-21-10.5
		c0.3-1.9,0.8-3.9,1.3-5.7c0.4-1.3,1.1-3,2.4-3.7c1.3-0.7,3.1-0.4,4.3,0c0.1,0,0.2,0.1,0.3,0.1c9.2,3,15.6,10.2,19.3,15.6
		c4.8,7,8.1,15.1,11.3,22.8l8.9,21.8c2.6,6.5,5.3,13.1,5.7,20.2c0,0.2,0.2,0.4,0.4,0.5c0,0,0,0,0,0c0.2,0,0.5-0.1,0.5-0.3
		c0.5-1,0.8-2,1-3.1c0,0,0,0,0,0c0,0,0,0,0.1,0c0,0,0,0,0,0c0.3,0,0.5-0.2,0.5-0.4l0.4-3.3c0,0,0,0,0,0c1.2,3.5,1.6,7.3,1.4,11
		c0,0.1,0,0.2,0.1,0.2c0,0,0,0,0,0c0,0.1,0.1,0.1,0.1,0.2c0,0,0,0,0,0c0,0,0.1,0,0.1,0c0,0,0.1,0,0.1,0c0,0,0,0,0,0c0,0,0,0,0,0
		c0.1,0,0.1,0,0.2,0c0,0,0,0,0,0c0.1,0,0.1-0.1,0.2-0.2l3.3-4.8l0,0l-0.3,1.7c0,0.1,0,0.2,0,0.3c0,0,0,0,0,0c0,0.1,0.1,0.1,0.1,0.2
		c0,0,0,0,0,0c0,0,0.1,0,0.1,0.1c0,0,0,0,0.1,0c0,0,0,0,0,0c0,0,0,0,0,0c0.1,0,0.2,0,0.2,0c0,0,0,0,0,0c0.1,0,0.2-0.1,0.2-0.1
		l1.9-2.4c0,0,0,0,0,0c-1.7,6.6-2.8,13.4-3.2,20.2c0,0.1,0,0.2,0.1,0.2c0,0,0,0,0,0c0,0.1,0.1,0.1,0.1,0.2c0,0,0,0,0,0
		c0,0,0.1,0,0.1,0c0,0,0.1,0,0.1,0c0,0,0,0,0,0c0,0,0,0,0,0c0.1,0,0.1,0,0.2,0c0,0,0,0,0,0c0.1,0,0.1-0.1,0.2-0.2
		c2.3-3.3,4.3-6.8,6-10.5c0,0,0,0,0,0c0,0.1,0.1,0.1,0.1,0.2c0,0,0,0,0,0c0,0,0.1,0,0.1,0.1c0,0,0.1,0,0.1,0c0,0,0.1,0,0.1,0
		c0,0,0.1,0,0.1,0c0,0,0,0,0,0c0,0,0,0,0,0c0.1,0,0.1-0.1,0.2-0.1l1.9-2.3l0,0l-0.4,1.8c0,0.1,0,0.2,0,0.2c0,0,0,0,0,0
		c0,0.1,0.1,0.1,0.1,0.2c0,0,0,0,0,0c0,0,0.1,0.1,0.1,0.1c0,0,0.1,0,0.1,0c0,0,0,0,0,0c0,0,0,0,0,0c0.1,0,0.1,0,0.2,0c0,0,0,0,0,0
		c0.1,0,0.1-0.1,0.2-0.1l5.7-5.3c0,0,0,0,0,0c0.8,1.9,0.8,4,0.1,6c-0.1,0.2,0,0.3,0.1,0.5c0.1,0.1,0.1,0.1,0.2,0.2
		c0.1,0,0.1,0.1,0.2,0.1c0.9,0,1.7-0.3,2.5-0.8c0,0,0,0,0,0c-0.2,0.7-0.6,1.4-1.1,2c-0.1,0.1-0.1,0.2-0.1,0.2c0,0,0,0,0,0
		c0,0.1,0,0.2,0,0.2c0,0,0,0,0,0c0,0,0,0.1,0.1,0.1c0,0,0,0,0,0c0,0,0,0,0,0c0,0,0,0,0,0c0,0,0.1,0.1,0.1,0.1c0,0,0,0,0.1,0
		c0.1,0,0.2,0,0.2,0c0.7-0.2,1.3-0.6,1.8-1c0,0,0,0,0,0c-1,3.7-2.2,7.4-3.8,10.9c0,0.1,0,0.2,0,0.3c0,0,0,0,0,0
		c0,0.1,0.1,0.2,0.1,0.3c0,0,0,0,0,0c0,0,0.1,0.1,0.1,0.1c0,0,0,0,0,0c0.1,0,0.2,0,0.3,0c0,0,0,0,0,0c0.1,0,0.2-0.1,0.2-0.1l7.7-7.7
		c0,0,0,0,0,0c0,0.1,0,0.2,0,0.2c0,0,0,0,0,0c0,0.1,0,0.1,0.1,0.2c0,0,0,0,0,0c0,0,0.1,0.1,0.1,0.1c0,0,0,0,0.1,0c0,0,0,0,0,0
		c0,0,0,0,0,0c0.1,0,0.1,0,0.2,0c0,0,0,0,0,0c0.1,0,0.1,0,0.2-0.1l5.1-4c0,0,0,0,0,0c-3.5,7.7-6.3,15.7-8.3,23.8c0,0.1,0,0.2,0,0.3
		c0,0,0,0,0,0c0,0,0,0.1,0.1,0.1c0,0,0,0,0,0c0,0,0.1,0,0.1,0.1c0,0,0.1,0,0.1,0c0,0,0,0,0,0c0,0,0,0,0.1,0c0,0,0.1,0,0.1,0
		c0,0,0,0,0.1,0c0,0,0.1,0,0.1,0c0,0,0,0,0,0c0.1,0,0.2-0.1,0.2-0.2c4.3-9.1,8.6-18.5,15.2-26.2l0,0l-1.4,3.2c0,0.1,0,0.2,0,0.2
		c0,0,0,0,0,0c0,0.1,0,0.1,0.1,0.2c0,0,0,0,0,0c0,0,0.1,0.1,0.1,0.1c0,0,0,0,0.1,0c0,0,0,0,0,0c0,0,0,0,0,0c0.1,0,0.1,0,0.2,0
		c0,0,0,0,0,0c0.1,0,0.2,0,0.2-0.1c3.4-2.1,6.9-4.1,10.5-5.8l0,0l-0.9,2.7c0,0.2,0,0.3,0.1,0.4c0,0,0,0,0,0c0,0,0.1,0.1,0.1,0.1
		c0,0,0,0,0.1,0c0,0,0,0,0.1,0c0,0,0,0,0,0c0.1,0,0.1,0,0.2,0c0,0,0,0,0,0c0.1,0,0.1,0,0.2-0.1l4.1-3l-1.3,2.6c0,0,0,0,0,0
		c0,0.1,0,0.1,0,0.2c0,0,0,0,0,0.1c0,0,0,0.1,0,0.1c0,0,0,0,0,0.1c0,0,0,0.1,0.1,0.1c0,0,0,0,0,0c0,0,0.1,0.1,0.1,0.1c0,0,0,0,0,0
		c0,0,0,0,0.1,0c0,0,0.1,0,0.1,0c0,0,0.1,0,0.1,0c0,0,0.1,0,0.1,0c0,0,0.1,0,0.1,0c0,0,0.1,0,0.1,0c0,0,0.1,0,0.1-0.1c0,0,0,0,0,0
		l3.6-4.8c7.6-5.6,14.4-11.9,20.9-18.1c3.2-3,6.5-6.1,9.8-9c9.1-8.1,21.5-17.7,36.4-20.6c0.1,0,0.1,0,0.2-0.1
		c0.8-0.6,2.1-0.4,3.2-0.1c1.1,0.3,2.2,0.7,3.3,1.1c0,0,0,0,0,0c1.6,1.1,2.8,2.7,3.6,4.5c0.7,1.7,1.1,3.4,1.3,5.2
		c-1.5,0-3,0.2-4.6,0.3c-14.3,1.7-29.3,5.9-41.2,14.3c0,0,0,0,0,0c6.1-6.4,13-12.2,20.4-17c0.1,0,0.1-0.1,0.1-0.1c0,0,0,0,0,0
		c0,0,0.1-0.1,0.1-0.2c0,0,0,0,0,0c0,0,0-0.1,0-0.1c0,0,0,0,0,0c0,0,0-0.1,0-0.1c0,0,0,0,0,0c0,0,0,0,0,0c0,0,0,0-0.1-0.1
		c0,0-0.1,0-0.1-0.1c0,0,0,0-0.1,0c0,0-0.1,0-0.1,0c0,0,0,0,0,0c-0.1,0-0.1,0-0.2,0c-6.8,2.6-21.5,13.1-28,20.8
		c-0.7,0.8-1.3,1.6-2,2.4c-5.8,6.8-11.2,13.2-11.6,22.5c0,0.1,0,0.1,0,0.2c0,0,0,0,0,0c0,0,0,0.1,0.1,0.1c0,0,0,0,0.1,0.1
		c0,0,0.1,0,0.1,0.1c0,0,0.1,0,0.1,0c0,0,0,0,0,0c0,0,0,0,0,0c0.1,0,0.1,0,0.2,0c0.3-0.1,1.1,0.2,1.8,0.4c0.5,0.2,1.1,0.4,1.7,0.5
		l0,0l-0.6,2c0,0.1,0,0.2,0,0.2c0,0,0,0,0,0c0,0.1,0.1,0.1,0.1,0.2c0,0,0,0,0,0c0,0,0.1,0,0.1,0.1c0,0,0.1,0,0.1,0c0,0,0,0,0,0
		c0,0,0,0,0,0c0.1,0,0.1,0,0.2,0c0,0,0,0,0,0c0.1,0,0.2-0.1,0.2-0.1c2.7-2.6,6.1-4.4,9.8-5l0,0l-4.2,5.3c-0.1,0.1-0.1,0.1-0.1,0.2
		c0,0,0,0,0,0c0,0.1,0,0.1,0,0.2c0,0,0,0,0,0.1c0,0,0,0.1,0.1,0.1c0,0,0,0,0.1,0.1c0,0,0,0,0,0c0,0,0,0,0,0c0,0,0.1,0.1,0.1,0.1
		c0,0,0,0,0.1,0c0.1,0,0.1,0,0.2,0c4.1-1.2,8.4-1.5,12.5-0.6l0,0l-5.1,2.4c-0.1,0-0.2,0.1-0.2,0.2c0,0,0,0,0,0c0,0,0,0.1,0,0.1
		c0,0,0,0,0,0.1c0,0,0,0.1,0,0.1c0,0,0,0,0,0.1c0,0,0,0,0,0c0,0,0,0.1,0.1,0.1c0,0,0,0,0,0.1c0,0,0.1,0,0.1,0.1c0,0,0,0,0.1,0
		c0,0,0.1,0,0.1,0c0,0,0.1,0,0.1,0c0,0,0,0,0,0c0.1,0,0.1,0,0.2,0c4.1-1.3,8.5-1.7,12.8-1.1c0,0,0,0,0,0c0.1,0,0.1,0,0.2,0
		c0,0,0.1,0,0.1,0c0,0,0.1-0.1,0.1-0.1c0,0,0,0,0.1-0.1c0,0,0,0,0-0.1c0,0,0-0.1,0-0.1c0,0,0,0,0,0c0,0,0,0,0,0c0-0.1,0-0.1,0-0.2
		c0,0,0,0,0,0c0-0.1-0.1-0.1-0.1-0.2c-0.5-0.4-1-0.8-1.6-1.1c-3.8-2.6-8-4.3-12.5-5.1c0,0,0,0,0,0l3-3.3c0,0,0.1-0.1,0.1-0.2
		c0,0,0,0,0,0c0-0.1,0-0.1,0-0.2c0,0,0,0,0,0c0-0.1,0-0.1,0-0.2c0,0,0,0,0,0c0,0,0-0.1-0.1-0.1c0,0,0,0,0,0c0,0-0.1-0.1-0.1-0.1
		c0,0,0,0,0,0c0,0,0,0,0,0c-3.2-1.3-6.7-1.3-9.9,0c0,0,0,0,0,0l1.5-3.2c0,0,0,0,0-0.1c0-0.1,0-0.1,0-0.2c0,0,0-0.1,0-0.1
		c0-0.1,0-0.1-0.1-0.1c0,0,0,0,0-0.1c0,0,0,0-0.1-0.1c0,0-0.1,0-0.1-0.1c0,0,0,0,0,0c0,0,0,0,0,0c-0.1,0-0.1,0-0.2,0
		c0,0-0.1,0-0.1,0c-0.1,0-0.1,0-0.2,0.1c0,0,0,0,0,0l-2.6,1.9l0,0l0.8-2c0,0,0,0,0-0.1c0,0,0-0.1,0-0.1c0,0,0-0.1,0-0.1
		c0,0,0-0.1,0-0.1c0,0,0-0.1-0.1-0.1c0,0,0,0-0.1-0.1c0,0-0.1,0-0.1-0.1c0,0,0,0,0,0c0,0,0,0,0,0c0,0-0.1,0-0.1,0c0,0-0.1,0-0.1,0
		c-0.1,0-0.1,0-0.1,0c0,0,0,0-0.1,0c-0.4,0.3-1.2,0.9-2.1,1.5l-0.4,0.3l0,0c3.2-5.7,7-11,11.4-15.9c4.5-3.6,9.4-6.6,14.5-9.1
		c8.9-4.2,20-7.2,30.4-9.1c1.6-0.3,3.3-0.5,4.8-0.7c0,0,0,0,0,0c0.1,0.9,0.2,1.7,0.2,2.5c0.1,3.7-0.1,7.4-0.6,11.1
		c-12.4-3.3-25.3-3.4-37.4,1.1c-1.4,0.5-2.8,1-4.1,1.6c-2.9,1.3-5.6,2.9-8.2,4.9c-1.3,1.1-3,2.2-3.7,3.9c0,0,0,0,0,0.1
		c0.1-0.2,0.2-0.3,0.3-0.4c0-0.1,0.1-0.1,0.1-0.2c0.1-0.2,0.2-0.3,0.4-0.5c0,0,0-0.1,0.1-0.1c0.9-1,2.2-1.8,3.3-2.6
		c3.4-2.2,7-4,10.7-5.3c5.5-2.1,11.3-3.4,17.1-3.9c6.9-0.3,13.9,0.3,20.7,1.6c0.3,0,0.5,0.1,0.8,0.1c0,0,0,0,0,0
		c-0.5,3.3-1.2,6.6-2.1,9.8c0,0,0,0,0,0c-0.4-0.2-0.9-0.4-1.3-0.5c-3.1-1.2-6.4-2.4-9.7-3.2c-5.5-1.5-11.1-2.2-16.8-1.5
		c-4.1,0.6-8.1,1.8-12,3.3c-2.5,0.4-4.9,1.1-7.1,2.2c0,0,0,0,0,0c1.7-0.7,3.5-1.1,5.3-1.4c0,0,0,0,0,0c-3.5,1.6-6.8,3.7-9.6,6.3
		c-0.1,0-0.1,0.1-0.2,0.1c0.1-0.1,0.3-0.2,0.4-0.3c0.2-0.2,0.5-0.4,0.8-0.6c0.1-0.1,0.2-0.1,0.3-0.2c0.3-0.2,0.5-0.4,0.8-0.6
		c0.1-0.1,0.2-0.1,0.3-0.2c0.3-0.2,0.5-0.3,0.8-0.5c0.2-0.1,0.4-0.2,0.5-0.3c0.2-0.1,0.4-0.2,0.6-0.4c1.6-0.9,3.3-1.6,4.9-2.3
		c1.1-0.5,2.3-0.9,3.5-1.4c2.6-0.2,5.2-0.1,7.8,0c3.8,0.1,7.5,0.6,11.2,1.5c6,1.4,11.8,3.8,17.4,6.7c-1.9,5.5-4.1,10.8-6.2,15.9
		c-0.3,0.6-0.5,1.3-0.8,1.9c0,0,0,0,0,0c-0.8-0.6-1.7-1.2-2.5-1.9c-7.1-4.8-18.2-12.8-28.4-15c2.7-0.3,5.3-0.4,8-0.3
		c4.1,0.2,8.3,1,12.6,2.1c2.6,0.7,5.1,1.4,7.7,2.2c1.4,0.4,2.7,0.9,4.1,1.3c0,0,0,0,0,0c-1.2-0.5-2.3-1-3.5-1.4
		c-1.3-0.5-2.6-1-3.9-1.5c-9.1-3.2-18.1-4.6-27.3-2.9c-2.4-0.3-4.8-0.2-7.1,0.4c0,0,0,0,0,0c0.4-0.1,0.8-0.1,1.2-0.2
		c0,0,0.1,0,0.1,0c1.3-0.1,2.6-0.1,3.9,0.2c0,0,0,0,0,0c-2.6,0.6-5.1,1.5-7.6,2.6c0,0,0,0,0,0c3.1-1,6.2-1.8,9.4-2.3
		c0.7,0.1,1.4,0.3,2.1,0.5c10.2,2.6,19.1,8.8,28.3,14.3c0.9,0.6,2,1.3,3,1.9c-1.6,3.6-3.3,6.6-6.2,8.5c-0.2,0.1-0.3,0.3-0.2,0.6
		c2.5,9.5,0.5,19.6-5.5,27.3l-10.5,4.1c-0.3,0.1-0.4,0.4-0.3,0.6c0,0.1,0.1,0.2,0.3,0.3l4.7,2l-3.6,1.3c0,0-0.1,0-0.1,0.1
		c0,0,0,0-0.1,0c0,0-0.1,0.1-0.1,0.1c0,0,0,0,0,0.1c0,0,0,0.1,0,0.1c0,0,0,0,0,0.1c0,0,0,0.1,0,0.2c0,0,0,0,0,0c0,0,0,0,0,0
		c0,0.1,0.1,0.1,0.1,0.2c0,0,0,0,0,0c0.1,0,0.1,0.1,0.2,0.1c5.2,1.8,9.5,5.7,11.9,10.7l-3.1-0.7c0,0,0,0,0,0c-0.1,0-0.2,0-0.2,0
		c0,0-0.1,0-0.1,0c-0.1,0-0.1,0.1-0.1,0.1c0,0,0,0-0.1,0.1c0,0,0,0,0,0c0,0-0.1,0.1-0.1,0.2c0,0,0,0,0,0c0,0,0,0,0,0
		c0,0.1,0,0.2,0,0.2c0,0,0,0,0,0c0,0.1,0.1,0.2,0.1,0.2c4.8,3.9,7.4,9.8,7.3,15.9l-1.6-1.2c-0.2-0.2-0.5-0.1-0.7,0.1
		c-0.1,0.1-0.1,0.3-0.1,0.4c0,0,0,0,0,0c0.6,2.6,1.7,5.1,3.1,7.5c0,0,0,0,0,0c-1.8,0-3.6,0.5-5.2,1.5c-0.2,0.1-0.3,0.3-0.3,0.5
		c0,0.1,0,0.1,0.1,0.2c0,0,0,0,0,0c0,0,0,0,0,0c0,0.1,0.1,0.1,0.1,0.1l3,2.5l0,0l-5-0.6c-0.2,0-0.4,0.1-0.5,0.3c0,0.1,0,0.2,0,0.3
		c0,0.1,0.1,0.2,0.2,0.3c4.6,3.4,7.6,8.4,8.5,14c0.2,1.3,0.3,2.6,0.3,3.9c-2.6-0.9-5.3-1.6-8.1-2c-0.1,0-0.1,0-0.2,0c0,0,0,0,0,0
		c-0.1,0-0.1,0-0.1,0.1c0,0,0,0-0.1,0c-0.1,0.1-0.1,0.2-0.2,0.3c0,0,0,0,0,0c0,0,0,0,0,0c0,0.1,0,0.1,0,0.2c0,0,0,0.1,0,0.1
		c0,0,0.1,0.1,0.1,0.1c0,0,0,0.1,0.1,0.1c3.8,2.6,7.1,5.7,9.9,9.3c0.7,2,1.5,3.9,2.5,5.8c0,0,0,0,0,0c-4-1.3-8.4-1.5-12.5-0.4
		c-0.1,0-0.2,0.1-0.3,0.2c0,0,0,0,0,0c0,0,0,0.1,0,0.1c0,0,0,0,0,0.1c0,0,0,0.1,0,0.1c0,0,0,0,0,0.1c0,0,0,0,0,0c0,0,0,0.1,0,0.1
		c0.1,0.1,0.1,0.2,0.2,0.2c3.5,1.3,6.6,3.5,9,6.4c0,0,0,0,0,0c-4.3-1.1-8.9-1.2-13.3-0.2c-0.1,0-0.2,0.1-0.3,0.2c0,0,0,0,0,0.1
		c0,0,0,0.1,0,0.1c0,0,0,0,0,0.1c0,0,0,0.1,0,0.1c0,0,0,0,0,0c0,0,0,0,0,0c0,0,0,0.1,0.1,0.1c0,0,0,0.1,0.1,0.1c0,0,0,0,0,0
		c0,0,0.1,0.1,0.2,0.1l3.8,1.2l0,0c-6.3,0.9-12.6,2.4-18.7,4.4c-2.7-1.5-5.4-3.1-8.2-4.6c0,0,0,0,0,0c0.9,0,1.7,0,2.6,0.1
		c0.2,0,0.4-0.2,0.5-0.4c0,0,0,0,0,0c0,0,0,0,0,0c0,0,0,0,0,0c0-0.1,0-0.2-0.1-0.3c-1.3-1.9-2.9-3.6-4.7-5c0,0,0,0,0,0
		c1.3,0,2.7,0.3,3.9,0.7c0.2,0.1,0.5-0.1,0.6-0.3c0,0,0,0,0,0c0,0,0,0,0,0c0,0,0,0,0-0.1c0-0.1,0-0.1,0-0.2c0,0,0,0,0-0.1
		c0-0.1-0.1-0.1-0.1-0.2c-3.6-3.9-8.1-6.8-13.1-8.4c0,0-0.1,0-0.1,0c0,0-0.1,0-0.1,0c-0.1,0-0.1,0-0.1,0c0,0-0.1,0-0.1,0.1
		c-0.1,0.1-0.2,0.1-0.2,0.2c0,0.1,0,0.2,0,0.3c0,0,0,0,0,0.1c0,0.1,0.1,0.1,0.1,0.2c0,0,0,0,0,0.1c0.4,0.3,0.7,0.7,1,1.2
		c0,0,0,0,0,0l-5.8,0.1c0,0-0.1,0-0.1,0c0,0-0.1,0-0.1,0c0,0-0.1,0-0.1,0.1c-0.1,0.1-0.1,0.1-0.1,0.2c0,0,0,0.1,0,0.1c0,0,0,0,0,0
		c0,0,0,0,0,0c0,0.1,0,0.2,0.1,0.2c0,0,0,0.1,0.1,0.1c0,0,0.1,0.1,0.1,0.1c0,0,0,0,0.1,0.1c2.3,0.7,4.2,2.4,5,4.6c0,0,0,0,0,0
		c-0.9-0.2-1.8-0.3-2.7-0.3c-4.9-2.3-9.9-4.5-14.9-6.4c-0.2-0.2-0.4-0.3-0.6-0.5c-1.4-1.1-2.9-2.3-4.3-3.3c0,0,0,0,0,0
		c0.9-2.4,1.6-4.9,2-7.5c13.7,4.6,26.5,11.1,39.2,18.3c0.7,0.7,1.6,1.3,2.5,1.8c0,0,0,0,0,0l-6,3.3c-0.1,0-0.1,0.1-0.1,0.1
		c0,0,0,0,0,0c0,0,0,0.1-0.1,0.1c0,0,0,0.1,0,0.1c0,0,0,0.1,0,0.1c0,0,0,0.1,0,0.1c0,0,0,0,0,0.1c0,0,0,0,0,0c0,0,0,0,0.1,0.1
		c0,0,0,0,0.1,0.1c0,0,0.1,0.1,0.1,0.1c0,0,0,0,0,0c0.1,0,0.1,0.1,0.2,0.1c0,0,0.1,0,0.1,0c3.3-0.6,6.6-1.3,9.8-2.3
		c0.6,0.4,1.2,0.7,1.7,1c0,0-0.1-0.1-0.1-0.1c-0.5-0.3-0.9-0.6-1.4-1c0,0,0,0,0,0c2.2-0.7,4.4-1.4,6.6-2.2c0.2-0.1,0.3-0.2,0.3-0.4
		c0,0,0,0,0,0c0,0,0-0.1,0-0.1c0,0,0-0.1,0-0.1c0,0,0,0,0,0c0,0,0,0,0,0c-0.1-0.2-0.2-0.3-0.4-0.3l-2.2-0.3l0.1,0l6.9-0.5
		c0.3,0,0.5-0.3,0.5-0.5c0,0,0,0,0,0c0-0.1-0.1-0.3-0.2-0.3l-0.8-0.6l0,0l0.6,0.3c2.6,1.2,5.3,2.4,7.7,3.6c-0.1,0-0.1-0.1-0.2-0.1
		c-2.4-1.3-4.9-2.6-7.3-3.9l-2.4-1.2l-2.4-2l0,0l0.8-0.2c0.1,0,0.2-0.1,0.3-0.2c0,0,0,0,0,0c0-0.1,0.1-0.1,0.1-0.2c0,0,0,0,0,0
		c0,0,0-0.1,0-0.1c0,0,0-0.1,0-0.1c0,0,0,0,0,0c0,0,0,0,0,0c0-0.1-0.1-0.2-0.2-0.3c-2.9-2.2-5.4-4.9-7.4-8c0,0,0,0,0,0
		c1.5,0.8,3,1.4,4.7,1.8c0.2,0.1,0.5-0.1,0.6-0.3c0,0,0,0,0,0c0,0,0,0,0-0.1c0-0.1,0-0.1,0-0.2c0-0.1,0-0.1-0.1-0.2
		c-3.9-6.6-9.9-11.7-17-14.6c0,0-0.1,0-0.1,0c0,0,0,0-0.1,0c-0.1,0-0.1,0-0.2,0c0,0,0,0-0.1,0c-0.1,0.1-0.2,0.1-0.2,0.2
		c0,0.1,0,0.2,0,0.3c0,0,0,0,0,0.1c0,0.1,0.1,0.1,0.1,0.2c0,0,0,0,0,0.1c2.7,2.7,5.1,5.8,7.1,9.2c0,0,0,0,0,0l-4-1
		c-0.3-0.1-0.5,0.1-0.6,0.4c0,0,0,0,0,0c0,0,0,0,0,0c0,0.1,0,0.1,0,0.2c0,0,0,0,0,0c0,0,0,0,0,0c0,0.1,0,0.1,0.1,0.2l6.8,9l0,0
		c-5.3-2.5-10.7-5-16.2-7.4c-0.3-0.5-0.6-1.1-0.9-1.6l0,0l1.5,0.9c0.2,0.1,0.5,0,0.7-0.2c0,0,0,0,0-0.1c0-0.1,0-0.1,0-0.2
		c0,0,0,0,0-0.1c0-0.1,0-0.2-0.1-0.2c-3-3.8-7.1-6.6-11.8-7.9l0,0l2.4-1.8c0.1-0.1,0.1-0.1,0.2-0.2c0,0,0,0,0,0c0-0.1,0-0.2,0-0.3
		c0-0.1,0-0.1-0.1-0.2c-0.1-0.2-0.3-0.2-0.5-0.2c-2.7,0.5-5.4,0.2-7.9-0.9l-3.1-2c-0.9-0.7-1.6-1.2-2.1-1.6c-0.4-0.3-0.7-0.5-1-0.8
		c-0.2-0.1-0.4-0.1-0.6-0.1c0,0,0,0,0,0l-15.1-9.8c-0.2-0.1-0.5-0.1-0.7,0.1c0,0.1-0.1,0.1-0.1,0.2c0,0,0,0,0,0c0,0.1,0,0.1,0,0.2
		c0,0,0,0,0,0l0.4,1l0,0c-3.8-2.4-8.1-3.9-12.6-4.3c-0.2,0-0.4,0.1-0.5,0.3c0,0.1,0,0.1,0,0.2c0,0.2,0.1,0.3,0.2,0.4l0.4,0.3l0,0
		l-5,0.9c0,0-0.1,0-0.1,0c0,0-0.1,0-0.1,0.1c0,0-0.1,0.1-0.1,0.1c0,0.1-0.1,0.1-0.1,0.2c0,0,0,0.1,0,0.1c0,0,0,0,0,0.1c0,0,0,0,0,0
		c0,0.1,0.1,0.2,0.1,0.2c0,0,0.1,0,0.1,0.1c0,0,0.1,0,0.1,0.1c0,0,0.1,0,0.1,0l2.1,0.2l0,0c-1.4,0.5-2.8,1.1-4.1,1.9
		c-0.1,0.1-0.2,0.2-0.2,0.3c0,0,0,0.1,0,0.1c0,0,0,0.1,0,0.1c0,0,0,0.1,0,0.1c0,0,0,0,0,0.1c0,0,0,0,0,0.1c0,0,0,0,0,0
		c0,0,0,0,0.1,0.1c0.1,0.1,0.2,0.1,0.3,0.1c0.8,0,1.6,0,2.4-0.1c0.8-0.1,1.7-0.1,2.5,0c5.5,1.6,10.3,5,13.6,9.6
		c0.5,0.7,0.9,1.3,1.3,2.1c-8.3-1.6-16.8-2.3-25.3-2c0,0-0.1,0-0.1,0c4.8,0.2,9.5,0.6,14.1,1.1c0,0,0,0,0,0c0,0,0,0,0,0
		c-0.3,0.1-0.6,0.3-0.8,0.6c-0.2,0.3-0.2,0.6-0.1,0.9c0.1,0.1,0.1,0.2,0.2,0.3c0.2,0.3,0.6,0.4,1,0.4c0.2,0,0.4,0,0.6-0.1
		c0.1,0,0.2-0.1,0.3-0.1c0.2-0.1,0.4-0.2,0.7-0.2c0.3,0.1,0.5-0.1,0.6-0.4c0,0,0,0,0,0c0,0,0,0,0,0c0-0.1,0-0.1,0-0.2
		c-0.1-0.2-0.2-0.4-0.4-0.6c-0.2-0.2-0.3-0.3-0.6-0.4l-0.2-0.1c0,0,0,0,0,0c3.5,0.4,7,1,10.5,1.7c0,0,0,0,0,0
		c0.9,1.8,1.7,3.7,2.1,5.7c-5.5-1.6-11.2-2.7-16.9-3.2c0,0,0,0,0,0c0.1-0.1,0.2-0.2,0.2-0.3c0-0.1,0-0.3-0.1-0.4
		c-0.1-0.1-0.2-0.2-0.3-0.2l-2.4-0.5c-0.1,0-0.1,0-0.2,0c0,0,0,0-0.1,0c-0.1,0-0.1,0-0.1,0.1c0,0,0,0,0,0c-0.1,0.1-0.2,0.2-0.2,0.3
		c0,0.1,0,0.2,0,0.2c0,0,0,0,0,0c0,0.1,0.1,0.2,0.1,0.2c0,0,0,0,0,0l0.3,0.3l0,0c-0.1,0-0.2,0.1-0.3,0.1c-1.5-0.1-3,0-4.4,0
		c0,0-0.1,0-0.1,0c1.2,0,2.5,0.2,3.8,0.3c0,0,0,0,0,0c-0.1,0.1-0.2,0.3-0.2,0.4c0,0.1,0.1,0.2,0.1,0.3c0.1,0.1,0.2,0.1,0.3,0.2
		c0.9,0.2,1.9,0.3,2.9,0.2c0.1,0.1,0.3,0.1,0.4,0.1c0.1,0,0.1,0,0.2,0c0.2-0.1,0.4-0.3,0.5-0.5c0,0,0-0.1,0-0.1
		c4.3,0.6,8.7,1.5,13,2.5c1.2,0.3,2.5,0.6,3.7,1c0,0,0,0,0,0c0,1.9-0.1,3.9-0.3,5.8c-2.5-1.5-5.1-2.9-7.7-4.1c0,0,0,0,0,0
		c0-0.1,0-0.1,0-0.2l0.4,0.1l0,0c0,0,0.1,0,0.1,0c0.1,0,0.1,0,0.2,0l0.3,0.1c0.3,0.1,0.5-0.1,0.6-0.4c0,0,0-0.1,0-0.1
		c0,0,0-0.1,0-0.1c0,0,0-0.1,0-0.1c0-0.1-0.1-0.1-0.1-0.2c0,0,0,0,0,0c0,0,0,0,0,0c-0.2-0.2-0.5-0.3-0.6-0.6
		c-0.2-0.2-0.3-0.5-0.4-0.8c0-0.1-0.1-0.2-0.2-0.3c-0.1-0.1-0.2-0.1-0.3-0.1c-0.2,0-0.4,0.1-0.5,0.4c0,0.1-0.1,0.3-0.1,0.4
		c-0.4-0.3-0.8-0.6-1.2-0.9c0,0-0.1,0-0.1-0.1c0,0,0,0-0.1,0c-0.1,0-0.1,0-0.2,0c0,0,0,0,0,0c-0.1,0-0.2,0.1-0.3,0.2
		c-0.1,0.1-0.2,0.3-0.1,0.4c0,0.1,0,0.2,0.1,0.3c0,0-0.1,0-0.1,0c0,0-0.1,0-0.1,0c-0.2,0-0.3,0.2-0.3,0.4c0,0.1,0,0.2,0,0.3
		c-5.3-2.1-10.9-2.9-16.6-2.5c-0.1,0-0.2,0-0.2,0c0.3,0,0.7,0,1,0c0.2,0,0.3,0,0.5,0c0.3,0,0.7,0,1,0.1c0.1,0,0.3,0,0.4,0
		c0.4,0,0.8,0.1,1.2,0.2c0,0,0.1,0,0.1,0c2.3,0.3,4.6,1,6.9,1.5c5.7,1.6,11.2,4,16.3,7.2c0,0,0,0,0,0c-0.1,1-0.3,1.9-0.5,2.9
		c-1.4-0.4-2.9-0.8-4.3-1.1c0,0,0,0,0,0c-0.1-0.2-0.2-0.3-0.3-0.5c-0.1-0.1-0.2-0.3-0.4-0.4c-0.3-0.3-0.8-0.3-1.2-0.3
		c-0.3,0.1-0.5,0.3-0.7,0.5c-1.6-0.4-3.2-0.7-4.8-1c0,0,0,0,0,0c0,0,0,0,0,0c0-0.1,0.1-0.1,0.1-0.2c0.2-0.2,0.3-0.4,0.3-0.7
		c0.1-0.5-0.1-1.1-0.4-1.5c-0.1-0.1-0.2-0.2-0.4-0.3c-0.5-0.3-1.2-0.5-1.8-0.4c-0.1,0-0.1,0-0.2,0.1l-0.4-0.2
		c-0.2-0.1-0.5-0.1-0.7,0.2c0,0.1-0.1,0.1-0.1,0.2c0,0.6,0.2,1.2,0.6,1.7c0.1,0.2,0.3,0.3,0.5,0.4c0.2,0.2,0.5,0.4,0.8,0.5
		c0,0,0,0,0,0c-2.9-0.5-5.8-0.8-8.8-0.9c0,0-0.1,0-0.1,0c5.1,0.6,10.2,1.6,15.2,2.9c0,0,0,0,0,0c0.1,0.3,0.2,0.6,0.4,0.8
		c0,0,0,0,0,0c0.6,0.7,1.4,1.2,2.3,1.4c0,0,0.1,0,0.1,0c0.3,0,0.5-0.2,0.5-0.5c0.2,0,0.4-0.1,0.5-0.3c0-0.1,0-0.3,0-0.4
		c1,0.3,2,0.6,3,0.9c0,0,0,0,0,0c-0.2,1.1-0.5,2.2-0.8,3.2c-1,1.4-2,2.7-3.2,3.9c0,0-0.1-0.1-0.1-0.1c-0.2-0.3-0.5-0.5-0.7-0.8
		c-4-4.3-8.4-7.4-13.5-7.8c0,0-0.1,0-0.1,0c4.9,0.7,9.4,4.3,13.5,9c0.1,0.1,0.2,0.2,0.3,0.3c-0.5,0.5-1,0.9-1.5,1.4
		c-1.6-1.1-3.2-2.1-4.8-3c0,0,0,0,0,0c0.1,0,0.1,0,0.2-0.1c0.2-0.1,0.3-0.4,0.2-0.6c0-0.1-0.1-0.2-0.2-0.4c0-0.1,0-0.2,0-0.3
		c0-0.1,0-0.2,0-0.3c0-0.3,0.1-0.5,0-0.8c0-0.3-0.1-0.5-0.3-0.8c-0.1-0.1-0.1-0.1-0.2-0.2c-0.1,0-0.2-0.1-0.3-0.1
		c-0.2-0.1-0.4-0.1-0.6-0.2c-0.1-0.1-0.3-0.2-0.4-0.2c-0.6-0.3-1.3-0.2-1.8,0.3c-0.2,0.3-0.2,0.6-0.2,0.9c0.1,0.3,0.2,0.6,0.5,0.9
		c0.1,0.1,0.2,0.2,0.3,0.2c0.3,0.2,0.7,0.4,1,0.5c0.1,0,0.3,0.1,0.4,0.1c0.2,0.1,0.5,0.2,0.6,0.4c0,0,0,0,0,0c0,0.1,0.1,0.2,0.1,0.2
		c-3.3-1.9-6.8-3.5-10.4-4.7c0,0,0,0,0,0c0.2-0.3,0.2-0.6,0.1-1c-0.1-0.2-0.2-0.4-0.3-0.5c-0.1-0.2-0.3-0.3-0.5-0.4
		c-0.4-0.3-0.8-0.4-1.3-0.4c-0.3,0.1-0.5,0.2-0.7,0.5c-0.1,0.1-0.1,0.3,0,0.4c0.1,0.2,0.2,0.4,0.3,0.6c-1-0.3-2-0.5-3-0.7
		c0,0,0,0-0.1,0c1.1,0.3,2.1,0.7,3.2,1.1c0,0,0,0,0,0c0.2,0.4,0.5,0.8,0.8,1.2c0,0,0,0,0,0c0.1,0.1,0.2,0.2,0.3,0.2h0
		c0.1,0,0.2,0,0.3-0.1c0.2-0.2,0.4-0.3,0.5-0.5c5.4,2.2,10.5,4.9,15.3,8.2c0,0,0,0,0,0c-0.5,0.4-0.9,0.8-1.4,1.1
		c-0.2,0.1-0.2,0.4-0.2,0.6c0,0.1,0.1,0.2,0.2,0.2c0.1,0.1,0.2,0.1,0.3,0.1c1.1,0,2.2-0.2,3.3-0.5c0,0,0,0,0,0
		c0.4,0.3,0.8,0.6,1.2,0.9l-1.2,1.5c0,0-0.1,0.1-0.1,0.1c0,0,0,0,0,0.1c0,0.2,0,0.4,0.2,0.5c0,0,0,0,0,0c0,0,0,0,0,0
		c0.1,0,0.1,0.1,0.2,0.1c0,0,0,0,0.1,0c0.1,0,0.2,0,0.2-0.1c0.7-0.4,1.4-0.8,2-1.2c0,0,0,0,0,0c1.1,0.9,2.3,1.8,3.4,2.7
		c0.6,0.9,1.2,1.9,1.8,2.8c-0.3,0.2-0.6,0.5-0.9,0.7c-2.4,0.9-4.9,1.4-7.4,1.3c-2.2-0.2-4.5-0.7-6.6-1.5c0,0,0,0,0,0
		c-1.7-5.6-3.9-10.3-6.7-13.1c0,0,0,0,0,0c2.3,2.8,4.2,7.4,5.8,12.7l-10.8-3.5c-0.2-0.1-0.5,0-0.6,0.3c-0.1,0.2,0,0.5,0.2,0.6
		c0,0,0,0,0,0c1.9,1,3.8,2.1,5.6,3.3c0.6,0.4,1.2,0.8,1.8,1.3c0.9,2.5,1.2,5.1,1,7.7l0,0l-1.5-2.8c0-0.1-0.1-0.1-0.2-0.2
		c0,0,0,0-0.1,0c0,0-0.1,0-0.1,0c-0.1,0-0.2,0-0.3,0.1c-0.2,0.1-0.3,0.3-0.3,0.5c0.1,4.6-2.7,8.8-7,10.5c-0.1,0-0.1,0.1-0.2,0.1
		c0,0,0,0,0,0c-0.1,0.1-0.2,0.3-0.1,0.5c0,0.1,0.1,0.2,0.2,0.2c0,0,0,0,0,0c0.1,0,0.1,0,0.2,0.1c0,0,0,0,0.1,0h0
		c5.7-0.3,11.1-2.8,14.9-7c0,0,0,0,0,0c1.4,7.1,2.3,14.1,2.9,18.8c0.2,1.4,0.3,3,0.5,4.3c0,0.1,0,0.2,0,0.2c0-1.2-0.1-2.3-0.1-3.5
		c-0.3-6.2-1-12.4-2.1-18.6c0.2,0.1,0.4,0.1,0.6-0.1c2.6-2.7,5-5.5,7.3-8.5c0,0,0,0,0,0c-0.2,1.5-0.8,2.8-1.8,3.9
		c-0.2,0.2-0.2,0.5,0,0.7c0,0,0,0,0,0c0,0,0,0,0,0c0,0,0,0,0.1,0c0.2,0.1,0.4,0.1,0.5,0c2.2-1.7,4.2-3.7,5.9-5.9l1.1-0.2l0,0
		c0.4,0.7,0.9,1.4,1.3,2.1l-2.7,3.4c0,0-0.1,0.1-0.1,0.1c0,0,0,0,0,0.1c0,0.2,0,0.4,0.2,0.5c0,0,0,0,0,0c0,0,0,0,0,0
		c0.1,0,0.1,0.1,0.2,0.1c0,0,0,0,0.1,0c0.1,0,0.2,0,0.3-0.1c1.1-0.7,2.2-1.3,3.4-1.9c0,0,0,0,0,0c0.4,0.6,0.7,1.2,1,1.7
		c5.7,9.8,11.1,19.8,16.3,29.9c-0.8,0.6-1.6,1.3-2.3,1.9c-5.4,4.5-9,7-11.6,10.4c0,0,0-0.1,0.1-0.1c0.8-1.6,1.8-3.2,2.9-4.7
		c0.1-0.2,0.1-0.4,0-0.6c0,0,0,0,0,0c0,0,0,0,0,0c0,0,0,0,0,0c-0.1-0.1-0.3-0.1-0.4-0.1l-5.3,1.8c0,0,0,0,0,0c0.7-2.2,1.2-4.4,0-6.7
		c0-0.1-0.1-0.1-0.2-0.2c-0.1,0-0.2-0.1-0.2-0.1c-0.2,0-0.4,0.1-0.4,0.3c-3.7,7-9.9,12.5-17.4,15.3c-0.3,0.1-0.4,0.4-0.3,0.6
		c0,0.1,0.1,0.2,0.2,0.2c0,0,0.1,0,0.1,0.1c0,0,0,0,0,0c0.1,0,0.1,0,0.2,0c5.7-0.5,11.2-2.1,16.4-4.5c0,0,0,0,0,0
		c-0.4,2.1-1.5,4-3.2,5.3c-0.3,0.2-0.5,0.4-0.8,0.5c-0.2,0.2-0.3,0.5-0.1,0.7c0,0,0.1,0.1,0.1,0.1c0.2,0.1,0.4,0.1,0.5,0
		c0.3-0.2,0.6-0.4,0.8-0.6c1.4-0.9,2.9-1.8,4.4-2.5c0,0,0,0,0,0C359.2,322,358.9,322.7,358.7,323.6z M258.8,243.8
		c-0.3,0.3-0.5,0.6-0.8,0.9c-0.2-0.1-0.3-0.3-0.5-0.4L258.8,243.8C258.8,243.8,258.8,243.8,258.8,243.8z M261.7,234.4
		c0.2-0.1,0.4-0.2,0.6-0.3c-0.2,0.2-0.3,0.3-0.5,0.5C261.7,234.5,261.7,234.5,261.7,234.4z M349.8,259.1c0.1-0.1,0.2-0.1,0.3-0.2
		c0.2,0.3,0.4,0.6,0.6,0.9C350.4,259.5,350.1,259.3,349.8,259.1L349.8,259.1z M348.7,257l-0.6,0.8c-0.2-0.2-0.5-0.4-0.7-0.5
		c0.4-0.1,0.8-0.3,1.1-0.5c0,0,0,0,0,0C348.6,256.9,348.6,257,348.7,257z M342.1,277.3c-0.1-0.4-0.2-0.8-0.2-1.3
		c0.3-0.4,0.6-0.7,0.9-1.1C342.6,275.8,342.4,276.6,342.1,277.3z M431.9,330.3C431.9,330.3,431.9,330.3,431.9,330.3
		c0.1,1.3,0,2.6-0.2,3.9c0,0,0,0,0,0c-1.1-2.8-3.2-5.1-5.2-7.2c-0.5-0.5-1-1-1.5-1.5c0,0,0,0,0,0c0.7,1.3,1.3,2.7,1.8,3.7
		c1.2,2.7,2.2,5.4,3.2,8.2c0.2,0.7,0.3,1.4,0.3,2.2c-1.3,3.4-3.1,6.6-5.3,9.5c-1.4,2.1-3,4.1-4.9,5.8c-0.5,0.4-0.8,0.7-1.1,1
		c0,0,0,0,0,0c-0.5,0.4-1,0.7-2.3,1.1c-0.9,0.1-1.8,0.1-2.7,0c0,0,0,0,0,0c0.7-0.6,1.3-1.4,1.2-1.8c0,0,0,0,0,0c0,0,0,0,0-0.1
		c-0.1-0.2-0.4-0.2-1-0.1c-1.1,0.6-2.3,0.9-3.5,1.1c-0.2,0.1-0.5,0.1-0.7,0.1c0,0,0,0,0,0c0,0,0,0,0.1,0c1.1-0.8,2-1.9,2.7-3.1
		c3.1-6.1,3.3-13.5,2.2-20.1c-0.5-3.1-1.7-6-2.4-9c0,0,0,0,0,0c0,2.9,0.4,5.7,0.1,8.6c-0.3,4.4-1,8.9-2.2,13.2
		c-1.3,4.9-1.2,6-4.4,9.1l0,0l0,0l0,0l0,0c0,0,0,0,0,0c-0.9,0.9-2,1.6-3.2,2.1c-0.6,0.2-1.2,0.2-1.9,0.2c0,0,0,0,0,0
		c0.2-0.2,0.3-0.4,0.5-0.6c0.3-0.6,0.4-1.3,0.2-1.9c-0.1-0.4-0.4-0.7-0.8-0.9c-0.8-0.3-1.8-0.2-2.6,0.1c-0.4,0.1-0.7,0.1-1,0.2
		c0,0,0,0,0,0c1.5-1.8,2.6-3.9,3.2-6.1c1.5-5.5,0.2-11.7-2.1-18c-0.6-1.6-1.2-3.2-1.8-4.8c0,0,0,0,0,0l0.1,0.4
		c0.1,1.2,0.3,2.5,0.4,3.8c0,0,0,0,0,0c-0.2-0.4-0.4-0.8-0.6-1.3c-0.4-1-0.9-2.1-1.2-3.2c-0.3-1.3-0.8-2.6-1.2-3.8c0,0,0,0,0,0
		c0.1,1.3,0.1,2.6,0,3.8c0,2,0.2,4,0.6,5.9c0.8,4.2,2.2,7.9,2.8,11.8c-0.6,4.6-2,8.7-6.7,10.9c-0.5,0.2-1,0.3-1.6,0.4c0,0,0,0,0,0
		c0.1-0.1,0.1-0.2,0.2-0.3c0.6-1.5,0.5-3.1-0.2-4.5c-0.1-0.2-0.3-0.3-0.4-0.4c-1.9-1.8-3.1,2.1-4,3.8c-0.1,0.3-0.3,0.6-0.5,0.9
		c0,0,0,0-0.1,0c-1.2-0.4-12-4.5-9.6-13.2c1.3-5,3.3-11.5,3.8-15.4c0,0,0,0,0,0c-2.2,3.7-3.9,7.6-5.2,11.7c0,0,0,0,0,0.1
		c0,0,0,0,0,0c-0.1-1-0.1-1.9,0-2.9c-0.1-4.3,0.9-8.5,3.1-12.3c0,0,0,0,0,0c-3.2,3.6-5.2,8.2-5.7,13c-0.1,0.9-0.2,1.9-0.3,2.8
		c0,0,0,0,0,0c-0.5-0.7-1-1.3-1.6-1.8c0,0,0,0,0,0c-1.9-1.7-5.4-2.1-6.4-2.9c0,0-0.1-0.1-0.1-0.1l0,0c-0.1-0.1-0.1-0.2-0.2-0.3
		c-0.2-0.5-0.4-1-0.5-1.5c-0.4-1.6,0.6-7,1.6-9.8c2.4-4.9,6.8-8.5,12-10c0,0,0,0,0,0c0.6,0.9,0.9,1.9,0.8,3c0,0.7-0.1,1.4-0.2,2.1
		c0,0,0,0,0,0c0.4-0.5,0.7-1,0.9-1.5c0.8-1.4,1.8-2.7,2.5-4.2c0.1-0.1,0.2-0.3,0.2-0.5c0,0,0,0,0,0c0.3,0.5,0.5,1.1,0.8,1.6
		c0,0,0,0,0,0c-0.2-0.6-0.5-1.1-0.7-1.7c0.7-1.3,1.6-3.4,1.7-3.5c0.7-1.1,1.7-2.1,2.8-2.8c2.9-1.5,6.1-1.8,9.5-1.4
		c4.1,0.4,8.4,1.9,12.3,3.5c1.4,0.5,2.7,1.1,3.9,1.6c14.4,6.7,23.5,10.9,27.8,17.4c1.9,3,2.8,6.4,2.8,10.9c-0.2,6-3.6,13.9-8.8,17.6
		c-1.4,1-3.1,1.7-4.8,2c0,0,0,0,0,0C432,348.5,434.8,338.6,431.9,330.3z"/>
</g>
</svg>
