<!-- SVG credit to RostoumArt on Etsy, https://www.etsy.com/shop/RostoumArt -->

<svg xmlns="http://www.w3.org/2000/svg" viewBox="0 0 626.13 327.74" style="fill: #215342;"><title>Asset 109</title><g id="Layer_2" data-name="Layer 2"><g id="Layer_1-2" data-name="Layer 1"><path d="M609.11,214.73c-4.25-5.23-5.38-13.13-7.55-19.92-11.63-36.36-24.6-72.38-34.21-109.28-7.4-28.41-23.68-46.75-50.68-55.06-128.83-39.65-258.46-40-388.09-4.55C95.29,35,74.28,57.72,65.08,92.4S43.64,160.68,32.21,194.59c-2.54,7.54-5.73,18.82-11.27,20.74-37.37,13-15.89,34.12-3,44.36,20,15.86,44.27,30.51,68.84,35.7,67.49,14.26,136.08,23.34,191.26,32.35,64-4.12,114.7-3.35,163.85-11.66,52.43-8.85,104.88-22.41,154.53-41.25C633.64,260.71,633.55,244.78,609.11,214.73Zm-174.4,44.82c-8.3,12.49-26.58,15.15-38,5.55-5.33-4.48-9.17-10.16-13.06-15.81s-3.95-5.79-10.9-5.79c-40.51,0-81,.05-121.54-.07a9,9,0,0,0-8.13,4.26,168.24,168.24,0,0,1-10.67,14c-5,5.78-11.3,9.56-19.36,9.37-9.93-.23-20.61-7.27-23.89-15.81-2.3-6-1.87-12.06-.45-18.14a68.37,68.37,0,0,1,7-17.49,2.84,2.84,0,0,0,0-3.16c-3.72-6.84-6.73-13.95-7.79-21.74-.88-6.43-.2-12.58,3.5-18.16,8.31-12.53,26.48-15.1,37.76-5.29.92.8,1.82,1.61,2.73,2.42l.23-.16q5.44,7.32,10.87,14.65c.39.53.85,1,1.2,1.58,1.34,2.15,3.28,2.88,5.77,2.87,14.94-.05,29.89,0,44.83,0q40.51,0,81,0a6.44,6.44,0,0,0,5.74-2.9c3.48-4.86,6.88-9.8,10.78-14.3a36.34,36.34,0,0,1,8.71-7.3c8.29-5,16.65-3.7,24.75.78,9.91,5.47,14.08,14.15,12.45,25.57-1.14,7.95-4.12,15.24-7.95,22.21a2.59,2.59,0,0,0,0,2.86c3.75,6.89,6.8,14.05,7.87,21.89C439.08,247.82,438.41,254,434.71,259.55ZM498,99.89c-60.32,12.71-121.38,21.92-181.25,32.22-61.65-10.44-120.5-18.89-178.48-31.36-13.49-2.9-24-19.47-35.95-29.76,11.67-9.27,22-23.32,35.21-27.08,119.72-34,240.06-34.43,359.67.53,13,3.8,22.92,18.09,34.27,27.52C520.41,81.6,510.59,97.24,498,99.89Z"/></g></g></svg>