<!-- SVG credit to RostoumArt on Etsy, https://www.etsy.com/shop/RostoumArt -->

<svg xmlns="http://www.w3.org/2000/svg" viewBox="0 0 626.13 327.74" style="fill: #215342;"><title>Asset 118</title><g id="Layer_2" data-name="Layer 2"><g id="Layer_1-2" data-name="Layer 1"><path d="M609.11,214.73c-4.25-5.23-5.38-13.13-7.55-19.92-11.63-36.36-24.6-72.38-34.21-109.28-7.4-28.41-23.68-46.75-50.68-55.06-128.83-39.65-258.46-40-388.09-4.55C95.29,35,74.28,57.72,65.08,92.4S43.64,160.68,32.21,194.59c-2.54,7.54-5.73,18.82-11.27,20.74-37.37,13-15.89,34.12-3,44.36,20,15.86,44.27,30.51,68.84,35.7,67.49,14.26,136.08,23.34,191.26,32.35,64-4.12,114.7-3.35,163.85-11.66,52.43-8.85,104.88-22.41,154.53-41.25C633.64,260.71,633.55,244.78,609.11,214.73ZM246.85,244c-9.3-4.71-13.94-12.85-15.82-22.81-.12-.64-.3-1.26-.45-1.89v-5.89c.39-1.5.74-3,1.18-4.5,3.39-11.48,14.33-16.06,24.87-10.43,11.95,6.39,18.46,22.94,14.05,35.68C267,244.72,256.86,249,246.85,244Zm24.44-80.82c3.09-6,7.64-10.14,14.63-10.77,5.87-.53,10.75,1.85,14.86,5.83,7.27,7.05,10.18,15.92,10.42,25.83a31.51,31.51,0,0,1-3.36,14.78c-6,11.84-18.88,14.26-28.83,5.46C268.2,194.7,264.65,175.94,271.29,163.13Zm98.38,132.32a28.73,28.73,0,0,1-18.23,11,7.24,7.24,0,0,0-1.07.39h-8.25a11.7,11.7,0,0,0-1.26-.43,29.68,29.68,0,0,1-20.7-15c-.18-.32-.4-.62-.69-1.07l-1.19,2a29.53,29.53,0,0,1-17.94,13.6c-1.25.35-2.52.64-3.78.95h-7.85c-.88-.23-1.74-.5-2.62-.7a29.91,29.91,0,0,1-22.75-34.24c1.57-9.17,6-16.78,12.14-23.55,8-8.9,17.59-16,27.51-22.62,5-3.35,10.08-6.58,15.18-9.78a2.54,2.54,0,0,1,2.19-.23c12.76,8.09,25.65,16,36.84,26.29,6.3,5.81,12,12.1,15.45,20.07C377.65,273.68,377.6,285,369.67,295.45ZM326.31,176.29a47.05,47.05,0,0,1,4.35-10.87A26.19,26.19,0,0,1,348.4,151.7h5.11a45.77,45.77,0,0,1,4.88,1.92,19.72,19.72,0,0,1,10,12.59c4.07,14.25,1,26.94-9.23,37.7a19.62,19.62,0,0,1-14.26,6.55c-7.72.07-12.95-4.07-16.34-10.64C324.66,192.32,324.31,184.31,326.31,176.29Zm64.27,67.86c-11.27,5.32-22.05-.39-24.68-12.58-2.84-13.12,5.6-28.93,18.1-33.9,11.39-4.54,22.15,1.65,24.05,13.85.22,1.42.29,2.86.47,4.7C407.59,228.5,402.37,238.58,390.58,244.15ZM498,99.89c-60.32,12.71-121.38,21.92-181.25,32.22-61.65-10.44-120.5-18.89-178.48-31.36-13.49-2.9-24-19.47-35.95-29.76,11.67-9.27,22-23.32,35.21-27.08,119.72-34,240.06-34.43,359.67.53,13,3.8,22.92,18.09,34.27,27.52C520.41,81.6,510.59,97.24,498,99.89Z"/></g></g></svg>