<!DOCTYPE svg PUBLIC "-//W3C//DTD SVG 1.1//EN" "http://www.w3.org/Graphics/SVG/1.1/DTD/svg11.dtd">
<!-- Uploaded to: SVG Repo, www.svgrepo.com, Transformed by: SVG Repo Mixer Tools -->
<svg version="1.1" id="Capa_1" xmlns="http://www.w3.org/2000/svg" xmlns:xlink="http://www.w3.org/1999/xlink" viewBox="0 0 17.212 17.212" xml:space="preserve" width="800px" height="800px" fill="#000000">
<g id="SVGRepo_bgCarrier" stroke-width="0"/>
<g id="SVGRepo_tracerCarrier" stroke-linecap="round" stroke-linejoin="round"/>
<g id="SVGRepo_iconCarrier"> <g> <g> <rect x="5.456" y="4.407" style="fill:#B08968;" width="1.714" height="6.454"/> <rect x="10.028" y="4.407" style="fill:#B08968;" width="1.713" height="6.454"/> <path style="fill:#B08968;" d="M14.935,2.281l-0.128-0.176H2.232L2.104,2.276c-4.711,6.257-0.048,12.596,0,12.659l0.128,0.172 h12.567l0.166-0.215C16.091,13.49,19.418,8.435,14.935,2.281z M14.382,14.249H2.668C1.983,13.243-1.098,8.157,2.663,2.962h11.706 C18.117,8.273,15.71,12.545,14.382,14.249z"/> <path style="fill:#B08968;" d="M8.671,12.012H8.457c-0.683,0-1.237,0.555-1.237,1.237v0.54h2.688v-0.54 C9.907,12.567,9.354,12.012,8.671,12.012z"/> </g> </g> </g>
</svg>