<?xml version="1.0" encoding="utf-8"?>
<!-- Generator: Adobe Illustrator 24.2.3, SVG Export Plug-In . SVG Version: 6.00 Build 0)  -->
<svg version="1.1" id="Layer_1" xmlns="http://www.w3.org/2000/svg" xmlns:xlink="http://www.w3.org/1999/xlink" x="0px" y="0px"
	 viewBox="0 0 595.3 841.9" style="enable-background:new 0 0 595.3 841.9; fill: #215342" xml:space="preserve" 
	 height="330" width="450" transform="translate(-50, -60)">
<g>
	<path d="M439.2,475.9c0.7,9.6-0.4,15.5-3.4,18.1c0.7-4,1-7.9,0.9-11.8c-0.1-6-2-11.3-5.9-15.8c-1.8-2.1-3.9-3.8-6.1-5.4
		c-4.2-3.1-8.8-5.5-13.5-7.8c-0.6-0.3-1.4-0.5-1.9-1.4c7.3,1.4,14,4,20.6,7.1c-1.1-2.8-2.8-5.1-4.8-7.2c-3-3.1-6.4-5.5-10.1-7.6
		c-3.5-2-7-3.9-10.4-5.9c-0.5-0.3-0.9-0.9-1.7-0.6c1,1.1,2.2,1.9,3.4,2.7c3.2,2,6.4,4,9.6,6c3.1,2,6.1,4.1,8.6,6.9
		c0.3,0.4,0.9,0.7,0.7,1.5c-9-3.2-18.3-4.1-27.6-6.3c0.8,1,1.8,1.1,2.5,1.4c4.3,1.6,8.7,3.3,12.8,5.3c6,3,11.5,6.7,15.8,11.9
		c0.5,0.6,1.1,1.1,1.4,2.1c-1.1-0.3-1.7-0.9-2.4-1.4c-2.3-1.9-4.6-3.8-6.9-5.6c-2.7-2.2-5.5-4.1-8.8-5.2c-0.6-0.2-1.3-0.6-2.1-0.2
		c0.1,1.6,1.1,2.8,1.5,4.3c0.5,1.6,0.6,3.1-0.2,4.6c-0.6,1.2-0.9,1.2-2,0.4c-2.5-2.1-5-4.2-7.9-5.8c-0.7-0.4-1.4-1-2.7-0.9
		c1,0.7,1.7,1.2,2.4,1.7c4,2.7,7.7,5.7,11.1,9.1c2.8,2.8,4.7,6,6,9.7c0.2,0.5,0.4,0.9,0.1,1.5c-3.8-6.1-4.2-6.5-6-7
		c4.8,6.5,6.8,11.9,5.7,15.3c-0.9-1.3-1.7-2.6-2.5-3.9c-1.7-2.5-3.6-4.9-6.1-6.7c-0.1,0-0.3,0.1-0.3,0.1c-0.2,0.4,0.5,0.7-0.1,1.1
		c-2.1-1.8-4.1-3.9-6.7-5.3c0.6,0.9,1.4,1.7,2.1,2.4c4.3,4.5,7.8,9.5,10.4,15.2c1.3,2.9,2.3,6,2.5,9.2c0.3,3.4-0.3,6.7-1.8,10
		c-0.5-0.6-0.3-1.1-0.3-1.6c0.1-6.1-1.1-11.9-3.9-17.4c-3.4-6.5-8.4-11.6-14.1-16.1c-0.6-0.5-1.3-0.9-2.1-1
		c-1.8-0.4-2.7,0.1-2.6,1.9c0.1,1.7-1.1-0.1-1.3,0.7c0.9,1.9,1.8,3.9,2.7,6c3.1,7.3,4.6,15,4.1,22.9c-0.1,2.3-0.7,4.4-1.8,6.4
		c-0.2,0.4-0.3,1.1-1,1.1c3.7-17.1-3.7-32.4-9.6-38.3c-0.8,3.3-3,5-6.3,5.6c2.4,1.1,4.7,2.2,7.3,3.3c-1.3,1.3-2.3,2.5-3.8,3.2
		c-5.6-7.7-10.7-15.6-17.2-22.8c0,1.3,0.4,2.1,0.9,2.8c1,1.4,2.1,2.7,3.1,4c0.8,0.9,1.6,1.9,1.9,3c0.4,1.4-1,0-1.1,0.7
		c1.4,1.8,2.8,3.6,4.2,5.5c1.8,2.4,3.2,5,3.9,7.9c0.2,0.9,0.3,1.7,0.3,2.6c0,0.6-0.2,1.1-0.8,1.3c-0.6,0.2-0.9-0.2-1.2-0.6
		c-0.3-0.4-0.4-1.1-1.1-1.2c-0.9,2.7-1.1,3-2.8,4.2c-1.6-4.6-2.9-9.3-6-13.3c-0.1,1.3,0.3,2.4,0.8,3.4c0.8,1.7,1.6,3.3,2.4,5
		c0.8,1.7,1.2,3.5,0.9,5.4c-0.3,1.9-1,3.6-2.7,4.9c-1.7-6.5-3.7-12.7-7.4-18.6c0,1.5,0.5,2.4,0.8,3.3c0.8,2.1,1.7,4.1,2.5,6.2
		c0.9,2.5,1.6,5,1.6,7.7c-0.1,1.5-0.1,3.1-1,4.5c-1.2-0.6-1.3-2.1-2.6-2.4c-0.4,0.9,0.2,1.6,0.1,2.4c-0.1,0.4-0.3,0.7-0.7,0.8
		c-0.4,0.1-0.5-0.3-0.7-0.5c-0.4-0.6-0.4-1.5-1.1-1.9c-0.9,1.1-0.2,2.7-1.4,3.9c-0.7-5.4-0.5-10.9-4.7-14.9
		c-0.5,0.8,0.1,1.6-0.5,2.4c-1.8-4.1-3.4-8.3-6.8-11.6c-0.6,1.4,0.1,2.3,0.6,3.2c1.1,1.9,2.1,3.8,2.9,5.8c1.8,4.9,2.3,9.9,2.9,15
		c0.1,0.9-0.2,1.7-1,2.3c-1.1,0.7-1.7,0.6-2.1-0.7c-0.7-2-1.3-4-1.9-5.9c-0.1-0.4-0.1-1-1-1.1c-0.2,2.6,0.9,5.1,0.9,8.2
		c-2.9-4.4-2.7-9.3-4.7-13.5c0.7,4.6,1.3,9.3,2,14c-3.1,0.1-2.8-3.1-4.4-4.2c-1.2,1.2,0.1,2.6-0.8,3.9c-2.3-4.5-3.6-9-4.8-13.6
		c0.1,1.8,0.2,3.5,0.4,5.3c0.1,1.8,0.4,3.5-0.3,5.6c-0.6-1.4-0.6-1.3-1.3-1.7c-0.9-0.4-0.7-1.4-0.9-2.1c-0.2-0.8-0.4-1.6-0.5-2.3
		c-0.2-0.9-0.4-1.7-0.6-2.6c-0.2-0.7,0-1.6-1.1-2.2c0,3.5,1.4,6.6,1.4,10.3c-1.5-1.7-1.6-3.5-1.8-5.2c-0.2-1.4-0.3-2.7-0.6-4
		c-0.3-1.1-0.7-2.2-1.9-3c-0.5,2.7,0.4,5,0.5,7.5c-2.3-3.8-4.2-14-3.5-18.3c1.2,3,1.4,6,2.9,8.7c-0.3-4.4-1.6-8.7-1.8-13.1
		c1.8,1.3,2,3.5,3.8,5.4c-0.6-3.2-1.8-5.7-2.1-8.4c2.3,2,3.1,4.8,4.9,7c-0.7-3.1-2.2-5.9-3.2-9.4c3.2,2,4.2,5,6,7.4
		c0-1.6-0.8-2.9-1.5-4.3c-1.1-2.4-1.2-2.5-0.8-4.2c3.1,3.4,5.1,7.3,7.1,11.2c-0.8-5-3.9-8.9-6.3-13.5c2.5,0.4,3.1,2.6,4.9,3.7
		c-0.3-1.7-1.7-2.6-1.6-4.5c1.3,1.9,2.3,3.4,3.3,4.8c0.6-0.1,0.2-1.6,1.1-0.7c1.6,1.6,2.6,3.6,3.6,5.6c0.4,0.8,0.7,1.7,1.5,2.4
		c0.8-1.3,0.2-2.1-0.4-3c-2-2.9-3.8-5.9-5.5-9c-0.4-0.7-1-1.3-0.9-2.4c1.3,1.3,2.3,2.6,3.8,3.9c-0.1-1.5-0.8-2-1.4-2.6
		c-0.5-0.6-1.1-1.2-1.5-1.8c-0.7-1.1-0.6-2.3,0.1-3.4c0.9-1.3,1.6,0.4,2.5,0.1c-0.8-1.4-0.8-1.4,0.1-2.7c0.3-0.5-0.1-1.1,0.6-1.5
		c1.4,1.2,2.8,2.3,4.1,3.6c1.3,1.2,2.5,2.4,3.8,3.6c-0.5-1.8-1.7-2.9-2.9-4.1c-0.9-0.9-1.9-1.8-2.7-2.7c-0.9-1-0.8-1.4,0.6-1.6
		c0.7-0.1,1-0.4,1.2-0.9c0.6-1.2,1.6-1.2,2.7-0.8c0.8,0.3,1.4,0.9,2.4,0.6c-0.8-1.1-2.2-1.2-2.8-2.3c0.3-0.4,0.6-0.7,0.8-1
		c3.6-3.8,4.7-8.3,3.7-13.3c-0.3-1.6,0-2.7,0.9-4c2.3-3.2,4.2-6.6,5.2-10.5c1.4-5.3,0.5-10.1-2.8-14.5c-1.9-2.6-4.4-4.7-7-6.5
		c-0.8-0.6-1.7-1.1-2.6-1.7c0.4-0.2,0.6-0.4,0.9-0.5c-8.2-4.2-20.8-11.3-23.7-11.1c-0.3,0.8,0.7,1.4,0.4,2.3
		c-3.1-2.3-3.6-3.5-3.9-8.5c-0.9,0-1,1.4-2.1,1.3c0-1.3,0.5-2.3,1.2-3.3c0.8-1,1.9-1.7,3-2.4c1.1-0.8,2.3-1.4,3.1-3
		c-2.6,0.9-4.5,2.1-6.4,3.4c-0.5-0.8-0.3-1.4-0.2-2.1c0.4-2.7,2.5-4.5,3.8-6.8c-0.9-0.1-1.2,1-2.2,0.8c1-2,2.9-3,4.2-4.6
		c-0.6-0.4-1,0.1-1.4,0.2c-0.3,0-0.8,0.2-0.8-0.2c0-2.2-0.9-0.5-1.2-0.2c-1.6,1.4-2.9,3-3.6,5c-0.8,2.2-2,4.3-1.4,7
		c0.4,1.9-0.8,4.1-1.2,6.2c-0.2,0-0.3-0.1-0.5-0.1c-0.4-6.3,1.1-12.2,4.3-17.6c-0.5-0.3-0.7,0.1-1,0c-1.4-0.5-1.4-0.5-2.1,0.2
		c-0.3,0.3-0.6,0.8-1.3,0.6c0.9-4.1,5-5.8,7.3-9.4c-3,1-4.5,3.2-6.9,5c0.4-3.1,2.8-5,3.2-8.1c-1.8,1.7-2.6,3.7-4.1,5
		c-0.3-0.9,0.1-1.5,0.3-2.2c0.7-2.5,2.2-4.5,4-6.9c-3.2,1.9-3.8,3-8.7,16.2c1.2-7,4.2-13.3,8.4-19.4c-1.8,0.6-2.4,1.7-3.1,2.8
		c-0.7,1-1.1,2.2-2.6,2.7c-1.3-3.5,2.1-5.6,2.5-8.9c-5.6,5.1-6.9,11.3-6.6,18.1c-1.8-0.8-1.9-0.8-3.3-2.8c-1.7-2.5-4-4.2-6.8-5.1
		c-0.5-0.2-1.1-0.4-1.8,0c7.7,6,7.7,6,8.2,8.4c-2.6-2.7-5.4-4.8-9.2-5.1c4.5,2.4,8.5,5.3,10.2,10.4c-2.5-2-4.4-4.7-7.5-5.9
		c1.6,1.8,3.4,3.3,4.9,5.2c2.1,2.6,3,4.5,3.1,6.4c-1.6-1.4-2.5-3.5-4.5-4.5c0.6,1.5,1.5,2.8,2.2,4.2c0.7,1.3,1.9,2.4,2,4.5
		c-2.1-2.3-4-4.2-5.8-6.1c0,1.1,0.6,1.8,1.2,2.6c1,1.4,2.1,2.8,3.1,4.3c1.4,2.3,2.1,4.9,1.3,7.6c-0.4,1.4-0.6,2.7,0.6,3.8
		c-0.4,0.3-0.8,0.3-1.1,0.2c-1.3-0.4-2.5-0.7-3.6,0.4c-0.1,0.1-0.4,0.2-0.7,0.2c-4,0.3-7.8,1.6-11.8,2.1c-1,0.1-2,0-2.8,0.3
		c-2.7,1.2-5.6,1.8-8.4,2.8c-0.4,0.1-1,0.1-1,0.7c0.3,0.5,0.9,0,1.2,0.6c-1.4,0.8-2.8,1.5-4.2,2.3c-5.2,3.1-9.5,7.3-13.8,11.5
		c-0.9,0.8-1.2,1.9-1.2,3c-0.1,5.8,0.1,11.5,2,17c0.2,0.4,0.5,0.9,0.4,1.4c-0.2,1.3,0.5,1.9,1.3,2.6c2.3,1.8,3.4,4.1,3.5,7.1
		c0.1,3,1.1,5.6,3.1,7.9c0.4,0.4,0.8,0.8,1,1.3c0.5,1.1,1,1.9,2.4,1.7c1-0.1,1.8,0.7,2.5,1.3c1.7,1.3,3.2,2.8,5.4,3.8
		c-1,0.9-1.7,1.5-2.4,2.1c-0.6,0.6-1.4,1.1-2.1,2.2c1.2-0.3,1.7-0.8,2.3-1.3c0.6-0.4,1.2-0.8,1.7-1.3c0.7-0.7,1.4-0.6,2.1,0
		c2.2,1.7,2.5,3.8,0.8,6.3c-0.7,0.9-1.8,1.6-2.1,3.1c0.5-0.4,0.8-0.5,1-0.7c1.2-1.1,2.5-2.3,3.7-3.4c0.3-0.3,0.6-0.5,1-0.2
		c0.4,0.3,0.3,0.7,0.1,1.1c-0.3,0.5-0.7,1-1.1,1.5c-3.9,4.9-7.8,9.7-11.7,14.6c-1.3,1.6-2.4,3.2-3.2,5c-0.7,1.7-1.4,3.4-1.2,5.4
		c0.7-0.6,0.8-1.4,1.1-2c1.1-2.8,2.3-5.5,4.2-7.8c3.5-4.4,7.2-8.8,10.8-13.2c0.9-1.1,2-2.1,3.4-3c0.2,1.2-1.3,1.9-0.6,2.5
		c0.8,0.8,0.2,1.2-0.1,1.8c-0.2,0.4-0.7,0.7-0.3,1.4c1.1-0.3,1.7-1.6,3-2.1c-0.3,2.9-2.7,4.7-3.3,7.2c2.9-2.4,4.2-6.2,7.8-7.8
		c-0.8,1.6-1.5,3.2-2.3,4.8c1.6-0.9,2.1-2.5,3.6-3.4c-1.1,3.5-2.7,6.9-3.9,10.4c0.2,0.1,0.3,0.1,0.5,0.2c1.2-2.2,2.4-4.4,3.6-6.6
		c-0.6,3.4-2.1,6.5-2.8,9.9c1.9-2.9,2.7-6.6,5.9-8.7c-1.4,4.4-2.8,8.8-4.1,13.1c1.9-2.3,2.5-5.3,4-7.9c0.7,0.9,0.7,1.7,0.6,2.6
		c-0.1,0.8-0.3,1.6-0.5,2.4c-0.2,0.8-0.5,1.5-0.2,2.6c1.5-1.9,1.7-4.1,3.2-5.6c0.2,0.1,0.3,0.1,0.5,0.2c-0.5,1.9-1.1,3.9-1.7,6.2
		c1.9-1.5,1.8-4.1,4.1-4.9c0,0.7,0.1,1.1,0,1.6c-0.5,3.7-2.7,6.6-4.6,9.7c-0.1,0.2-0.3,0.4-0.5,0.2c-1.3-1.4-1.3,0.1-1.6,0.7
		c-0.2,0.4-0.4,0.7-0.9,0.5c-0.4-0.1-0.7-0.5-0.7-0.9c0-0.5,0.2-1.1,0.3-1.6c0.2-0.6,0.5-1.2,0.1-2c-0.6,1.6-1.2,3-1.9,4.5
		c-0.9-1-0.5-2.2-1.1-3.4c-1.3,2.5-3.2,4.3-5.6,5.5c-0.8,0.4-1.6,0.8-2.3,1.4c-0.7,0.5-1.2,0.6-1.7-0.2c-0.7-0.9-1.5-0.6-2.3-0.1
		c-0.8,0.5-1.5,1.3-2.8,1.8c1.7-5.1,3.4-9.8,5-14.5c-3.6,4.8-4.3,10.9-7.4,16.1c-0.5-1.2,0.5-2.1-0.1-3c-0.5,0.3-0.7,0.9-0.9,1.4
		c-0.3,0.6-0.5,1.2-0.9,1.7c-0.7,1-1.8,1.3-2.7,0.8c-1.1-0.5-0.6-1.4-0.4-2.1c0.7-3.3,2.1-6.4,3.6-9.4c0.6-1.2,1.3-2.5,1.9-3.7
		c-4,4.1-5.1,9.7-7.8,14.6c0-5.3,2.2-9.9,4.2-15.2c-1.5,1.2-2.1,2.4-2.8,3.6c-1.4,2.4-2,5-2.5,7.7c-0.6,3.9-3.2,5-6.5,4.9
		c-1,0-1.4-0.5-1.4-1.5c0-1.6,0-3.2,0-4.8c0-1,0.2-2.1-0.3-3.4c-2.7,3.3-2.7,7.3-3.4,11.1c-1.3-0.9-1.5-1.9-1.6-2.9
		c-0.2-1.5,0.1-3,0.5-4.5c1.8-6,5.3-10.9,9.9-15c0.3-0.3,0.6-0.7,1.1-0.6c0.4,0.3-0.1,1,0.6,1.2c1.7-2.7,5.2-3.9,6.3-7.6
		c-2.5,0.4-4.2,1.5-5.8,2.8c-1.8,1.6-3.3,3.5-4.8,5.3c-0.8,1-1.5,2-3,3c1-4.4,3.8-7.2,6.7-10.1c-0.4,0-0.6,0-0.7,0
		c-0.3,0.1-0.6,0.3-0.8,0.5c-2.4,1.5-3.9,3.7-5.1,6.2c-0.9,2-1.7,3.9-2.7,5.9c-0.6,1.1-1.2,2.2-2.4,2.8c-0.5-0.9,0.2-1.9-0.7-3
		c-1.2,4.4-1.5,8.6-2.6,12.7c-3.4-1.6-4.3-3.8-2.8-6.8c0.5-1.1,1.2-2.1,1.9-3.1c4.9-7,10.8-13.3,17.2-19c0.3-0.3,0.9-0.5,1-1.4
		c-4.3,2.8-7.7,6.7-12.9,7.8c0.5-1,1.2-1.3,1.7-1.8c0.4-0.4,1.2-0.7,1.4-1.6c-3.3,1.2-7.3,5.1-8.3,7.9c4.5-3.3,4.7-3.4,6.8-3.4
		c0,0-12.6,16.7-12.7,16.8c-0.6-2.2,0.4-4.2,0.6-6.3c-0.9,1.1-1.6,2.2-2.4,3.3c-0.4,0.5-0.6,1.2-1.5,0.9c0.3,1.1-0.3,1.8-0.8,2.6
		c-2.2,3.4-4.2,7-5.8,10.7c-1.3,2.9-2.2,6-2.9,9.2c-0.8-0.7-0.5-1.4-0.5-2.1c0.3-7.4,3.6-13.3,8.6-18.5c0.6-0.6,1.5-1,1.5-2
		c-1.8-1.8-1.8-1.8-0.5-4.1c2.4-4.5,5.5-8.4,8.8-12.3c0.5-0.6,0.9-1.1,1.3-1.7c-5.8,3.9-9.5,9.5-12.8,15.6c-1.7-1.8-3.5-2.8-5.2-4
		c-3.9-2.6-4.2-3.9-1.5-7.7c3.4-5,7.6-9.3,12.3-13.1c0.4-0.4,1.1-0.6,1.3-1.4c-1,0.2-1.7,0.6-2.5,1.1c-1.4,0.8-2.7,1.8-3.9,2.8
		c-3.6,3.1-6.4,6.9-9,10.9c-5.5,8.7-9.1,18.1-11.6,28c-1,4.1-1.6,8.2-2.1,12.9c-0.2-0.9-0.3-1.2-0.4-1.5c-0.1-0.5-0.2-0.9-0.2-1.4
		c-0.7-8.7,0.4-17.1,4-25.1c3.6-8,8.4-15,14.5-21.3c2.6-2.6,5.4-5,8.2-7.4c1.8-1.6,1.8-2.2,0-4.1c-0.9,0.8-2.2,1.8-2.1,2.7
		c0.1,1.4-0.7,1.7-1.4,2.3c-3.8,3.3-7.3,6.9-10.6,10.8c-11.2,13.6-16.3,29.1-14.7,46.8c0,0.5,0.3,1-0.1,1.5
		c-0.5-0.3-0.6-0.8-0.7-1.2c-1.4-4.4-2.3-9-2.4-13.6c-0.2-8.5,1.9-16.5,5.1-24.2c2.7-6.7,6.2-13,9.6-19.3c0.4-0.7,0.9-1.4,0.9-2.4
		c-1.2,0.8-1.8,1.8-2.5,2.8c-1.6,2.2-2.8,4.6-4,7.1c-4,8.3-7,17-9.6,25.8c-0.3,1.2-0.5,2.4-1.3,3.8c-0.6-2.5-0.6-4.7-0.4-6.9
		c0.4-3.6,1.5-7,2.9-10.4c2.2-5.5,4.7-10.8,7.3-16.2c0.3-0.7,0.9-1.4,0.9-2.7c-1.7,2-3.2,3.8-4.7,5.5c-0.8-0.6-0.4-1.5-1.1-2
		c-1,1.1-1.7,2.4-2.4,3.6c-1.3,2.2-2.3,4.6-3.1,7c-2.6,7.4-3.7,15-4.3,22.8c-0.1,1.6-0.2,3.3-0.7,4.9c-1.9-5.8-2.3-11.7-1.5-17.7
		c1.1-7.4,4.4-13.8,8.7-19.8c3.4-4.6,7.2-8.7,11.2-12.8c0.6-0.6,1.1-1.2,1.6-1.8c-0.1-0.1-0.3-0.2-0.4-0.3
		c-9.5,5.8-14.4,15.6-20.4,24.5c1.5-6.8,4.6-12.8,9-18.1c4.4-5.3,9.9-9.3,15.8-12.9c-9.5,4.1-17,10.5-22.6,19.2
		c-7.3,11.3-9.3,23.6-6.1,36.6c-0.5,0.5-0.9-0.4-1.4,0.1c0.9,4,2.7,7.7,4,11.5c-3.5-4.2-5.9-8.9-6.4-14.4c0-0.2,0.1-0.3,0.3-0.3
		c0.7,0.2,0.7,1.2,1.5,1.3c0.1-0.9-0.1-1.6-0.3-2.4c-1.2-6.5-1.8-13-0.3-19.5c1.1-4.9,3.1-9.4,5.6-13.7c3.3-5.8,7.3-11.3,11.3-16.7
		c0.5-0.6,1.1-1.2,1.3-2.3c-2.1,1.5-3.6,3-5,4.6c-1.3,1.6-2.6,3.2-3.9,4.9c-1.3,1.6-2.3,3.5-4,5c-0.6-3.1,0-6.1,1.4-8.7
		c0.8-1.3,1.7-2.6,2.8-3.6c1.2-1,1-3.1,2.9-3.6c0.2-0.1,0.4-0.4,0.2-0.6c-0.2-0.2-0.4-0.5-0.7-0.6c-0.4-0.1-0.7,0.2-1.1,0.4
		c-5.2,3.9-10.2,8-13.9,13.4c-4.4,6.5-9.4,12.6-12.8,19.7c-0.1,0.2-0.2,0.4-0.6,0.4c-0.3-2.3,0.6-4.4,1.4-6.4
		c3.6-9.8,9.1-18.3,17.8-24.4c3.4-2.4,5.7-5.3,7.1-9.1c1-2.6,2.4-5.1,3.9-7.4c2.7-4.3,5.4-8.5,7.7-13c3.8-7.2,6.8-14.7,7.1-22.9
		c0-0.2,0-0.5,0.1-0.7c0.1-0.7,0.5-0.9,1.2-0.9c0.8,0,0.9,0.5,0.8,1.1c-0.1,0.5-0.3,1,0.1,1.5c0.9-0.5,1-1.9,2.5-1.7
		c-1.1,2.3-2.2,4.5-3.2,6.7c0.1,0.1,0.2,0.2,0.4,0.3c1.5-1.2,3-2.5,4.5-3.7c-0.3-0.7-1-0.2-1.3-0.8c1.9-3.1,3.9-6.2,5.9-9.3
		c-0.1-0.2-0.2-0.4-0.3-0.6c-0.9,2.1-2.4,0.9-3.8,1.6c0.2-1.1,0.8-1.5,1.3-2c2-2.2,3.8-4.6,5.4-7.1c4.5-6.9,7.7-14.5,11.1-22
		c0.5-1.2-0.3-1.3-1-1.6c0.4-0.9,1.4-1.1,1.7-2c-0.4-0.8-1.7-0.6-2-1.6c0.2-0.3,0.3-0.5,0.5-0.8c0.7-0.9,1.7-1.7,0.1-2.9
		c-0.9-0.6-0.7-3.7-0.1-4.3c1-1,2.3-1.5,3.7-1.6c0.8-0.1,1.2,0.4,1.1,1.2c-0.1,0.5-0.4,1.1-0.5,1.6c-0.2,0.8-0.5,1.7,0.7,2.5
		c2-3.3,3.9-6.5,6.6-9.3c-1-0.5-1.5,0.8-2.4,0.2c1.4-3.2,2.4-6.5,3.9-9.7c-1.1,1-2.6,1.4-3,2.9c-1.6,5.4-5.5,8.6-10.3,11.1
		c-1,0.5-2,0.9-3.5,0.6c1.2-1.5,2.2-2.8,3.3-4.1c-3.4,2.2-7.2,3.8-9.8,7.1c0.8,0.7,1.6,0.1,2.5,0.7c-3.3,2.1-6.2,4.5-8.4,7.7
		c-0.1-0.1-0.3-0.2-0.4-0.3c1.7-6.8,3.4-13.7,5.1-20.5c0.7,2-0.5,3.9-0.1,5.9c0.9-0.1,1-0.8,1.2-1.4c0.4-1,0.5-2.2,0.7-3.3
		c0.4-3.1,1-6.2,0.5-9.4c-0.2-1.1,0.2-2.4,0.3-3.5c-3.8,14.8-8.3,29.4-13.1,44c0.7-6.5,2.3-12.9,3.2-19.4c-1,3-1.9,6-2.9,9
		c-0.4-4.5,0.8-8.8,0.8-13.2c-1.6,4.3-3.2,8.6-5,13.3c-1-2.7-0.6-5.1-0.5-7.5c0-0.6,0.3-1.4,0.1-1.6c-1.6-1.2-0.6-2.6-0.4-3.9
		c0.3-2.3,0.9-4.5,1.4-6.8c0.2-1,0.4-2,0.5-3c-0.1,0-0.2,0-0.3,0c-0.7,2.2-1.4,4.5-2.1,6.7l-0.3-0.1c0.3-2,0.5-4.1,0.8-6.3
		c-1.3,0.8-0.7,2.4-1.8,3.1c0.9-6.9,1.8-13.8,2.7-20.7c-1.1,1-1.3,2.3-1.8,3.5c-0.2,0.5-0.3,1.1-1.1,0.8c-0.7-0.3-0.5,0.9-1.3,0.8
		c-0.3-2.7,1.2-5.2,1.3-8.1c-0.9,0.9-0.8,2.2-2,3.1c-0.5-4.4,1.7-8.1,2.4-12.5c-1.6,2.6-2,5.1-3.8,7.1c1.4-4,2.7-7.9,4.1-12
		c-0.9,0.1-0.9,0.9-1.6,1c0.3-2,1.6-3.7,1.2-5.8c-1.2,2.7-2.5,5.4-3.8,8.4c-0.9-1.5-0.8-2.7-0.5-3.9c0.4-1.6,1.1-3,1.7-4.5
		c0.7-1.9,0.7-1.9,0.6-3.4c-0.8,0.6-0.6,1.8-1.7,2.5c0.4-5.4-0.8-10.5-1.4-15.6c-0.5-4.4-0.2-8.6,1.9-12.6c0.1-0.2,0-0.4-0.3-0.6
		c-2,0.1-2.4,2.5-4.3,3.1c-0.2-3.5,2.6-5.5,4-8.5c-1.6,1-2.2,2.5-3.6,3.2c-0.3-3.8,0.5-6.2,2.6-8c0.2,0.3,0,0.6-0.1,0.9
		c-0.1,0.2-0.3,0.6,0.3,0.7c0.5-0.8,1.1-1.6,1.6-2.3c0.8-1.1,1.5-2.3,2.6-3.1c1.3-1.1,2.7-1.7,4.4-1.4c0.1,0.8-0.8,1-0.5,1.7
		c1.2,0.3,2.2-1.3,3.7-0.4c-0.6,0.5-1.1,1-1.6,1.4c0.8,0.6,1.5,1.3,2.3,1.7c1.2,0.5,1.7,1.2,1.1,2.5c1.8,0,3.3-0.8,5.3-0.8
		c-2.6,3.1-6.1,4.5-9.1,6.7c4.9,0.3,8-3,11.8-5.7c-0.2,1.4-1,2.1-1,3.2c2.3-0.4,3.6-2.3,5.4-3.1c-0.8,1.1-1.8,2.1-2.7,3.2
		c-1.3,1.5-2,3.3-1.8,5.3c0.2,1.9,1.5,3.2,3.1,4c1.6,0.7,2.8-0.2,3.8-1.3c1-1,1.9-2,2.8-2.9c0.4-0.4,0.8-1,1.6-0.6
		c0.2,1.1-0.6,1.8-1.1,2.5c-0.7,1.1-0.9,2.1,0.3,3.3c1.4-2.6,1.9-5.3,3.6-8c0,1.8,0,3.2,0,4.5c0,0.7-0.1,1.5,0.1,2.1
		c0.3,1,1,1.6,2.1,1.6c1.2,0,1.4-0.9,1.5-1.8c0.1-1,0.1-1.9,0.1-2.9c0-3.8,0-7.6,0.7-11.7c1.1,2.7,0.5,5.6,1.9,8.5
		c0.7-3.4-0.6-6.1,0.1-8.9c0.2,1.9,0.3,3.8,1.1,6c0.2-3.2-0.2-6.1-0.2-8.9c1.2,2.3,1,5.1,2.9,7.2c0.5-0.7,0.1-1.3-0.1-1.9
		c-0.3-1.2-0.7-2.5-0.9-3.7c-0.3-1.8,0.2-3.4,1.6-4.8c1.4,0.9,2.1,2.4,3.6,3.3c-0.2-0.8-0.4-1.4-0.6-1.9c0.4,0,0.9,0.4,1-0.4
		c0-0.6-0.7-1.1-0.3-1.9c0.8,0.4,1.2,0.1,1.9-0.6c0.5-0.4,1.5,1,2.5,0.9c-0.2-1.1-1.5-1.5-1.5-2.6c0.2-0.1,0.3-0.3,0.4-0.3
		c1.8-0.1,2.7-0.4,4.2-1.6c0.2-0.1,0.4-0.3,0.6-0.4c1.6-1.3,3.2-2.7,4.4-4.4c0.9-1.3,1.5-2.7,1.1-4.3c-0.9-3.8,0.1-7.3,1.6-10.7
		c1.1-2.4,2.3-4.8,2.9-7.3c0.1-0.6,0.4-1.4,1.2-1.6c0.7,1.2-0.2,2.7,0.9,4.2c0-2.2,0-4,0-5.7c0-0.4,0-1.1,0.1-1.1
		c1.8-0.3,1.1-1.8,1.2-2.7c0.4-2.7,0.6-5.4,0.9-8.1c0.9-8.3,1.8-16.7,2.1-25.1c0.3-6.4-2.1-10.1-8-12.8c-3.9-1.8-7.6-3.9-11.4-5.8
		c0-0.1,0.1-0.2,0.1-0.2c1,0.1,2.1,0.1,3.1,0.2c-4.3-1.5-8.4-0.7-12.9,1c2.7,0.4,4.9,0.7,7.1,1.2c5.7,1.2,10.8,3.7,14,8.8
		c2.6,4.1,3.7,8.6,4.3,13.3c0,0.1-0.1,0.2-0.3,0.4c-0.5-1.4-0.9-2.7-1.3-4c-0.5-1.3-0.9-2.6-1.4-3.8c-0.5-1.3-1.3-2.4-2.2-3.4
		c-0.9-0.9-1.7-1.9-3.4-2.6c0.9,1.7,1.6,2.9,2.3,4.1c-2.5-2.1-5.3-3.4-8-5c-3-1.8-6.1-2.8-9.6-2.7c-6.2,0-12.1,1.4-17.4,4.7
		c-2.9,1.8-5.8,3.8-8.7,5.6c-0.6,0.4-1.1,1.1-1.9,0.4c-0.7-0.7-1.1-0.3-1.5,0.2c-4.3,4.8-7.7,10.2-9.1,16.6
		c-0.3,1.4-0.7,2.8-0.4,4.2c3.9-1.7,4.4-1.8,8.5-0.6c1.2,0.4,2.4,0.7,3.7,1c0.6,0.2,1.3,0.6,2.2,0.1c-2.9-1.8-6.1-2.5-9.4-3.2
		c1.8-3.1,3.7-5.9,6.1-8.2c1.4-1.4,2.9-2.5,4.7-3.3c2.4-1.1,4.8-1.6,7.4-1.6c0.5,0,1.3,0.4,1.4-0.5c0-1.5,0.8-1,1.6-0.7
		c1,0.3,1.8,1.1,2.6,1.7c0.1,0.1,0.3,0.1,0.4,0.1c0.5-0.5-0.5-1-0.1-1.6c0.7-0.2,1.2,0.6,1.9,0.4c0-0.1,0.2-0.3,0.1-0.4
		c-0.1-0.5-0.4-1.2,0.3-1.5c0.6-0.3,1.1,0,1.5,0.4c0.5,0.4,0.9,0.9,1.3,1.4c0.6,0.7,0.7,1.6,1.5,2.2c0.5-0.5-0.1-1.3,0.5-1.7
		c0.8-0.2,1.7,0.4,2.7,0c-1.3-3.3-3.6-5.3-6.8-6.2c-3.8-1-7.6-0.9-11.3,0.8c-2.1,1-4.1,2.1-6.2,3.1c-0.6,0.3-1.1,0.9-2,0.6
		c2.5-2.2,5.6-3.4,8.7-5.5c-2.2,0.2-3.6,1.4-5.3,1.4c0.1-0.6,0.4-0.8,0.7-1c3.9-3.1,8.3-5.3,13.2-6.6c6-1.5,11.9-1.4,17.7,0.8
		c1,0.4,2.3,0.8,2.5,1.7c0.3,1.7,1.5,2.5,2.5,3.6c3,3.7,5.1,7.9,6.1,12.6c1.5,7,0.6,13.8-0.7,20.7c-0.1,0.3-0.2,0.8-0.4,0.8
		c-1.7,0.3-1.7,1.9-2.2,2.9c-1.6,3.3-2.8,6.8-4,10.3c-1.4,4.2-2.9,8.3-4.8,12.3c-0.3,0.6-0.5,1.4-1.6,2c1.5-5,3.2-9.5,3.5-14.3
		c-0.6,0.6-1.1,1.2-1.5,1.8c-2.2,3.1-4.3,6.2-6.5,9.2c-0.4,0.6-0.9,1.4-1.7,0.9c-0.9-0.5-0.2-1.3,0-1.9c0.9-2.7,2-5.4,2.3-8.3
		c0.2-2.5-0.3-4.9-1.9-6.8c-1.1,0.1-0.7,1.5-1.7,1.4c0.1-1.7,1.3-3.2,0.9-5.1c-1.5,3.5-2.9,7-4.5,11c-2-4.6-1.1-8.9-0.9-13.2
		c-1.3,3.4-1.2,6.9-1.5,10.4c-0.3-0.6-0.5-1.2-0.7-1.8c-1.2-5.7-4.9-8.7-10.4-9.9c-1.2-0.3-2.2-0.2-3.2,0.6
		c-0.1,0.1-0.1,0.3-0.1,0.3c0,0.8,1.3,0.7,1.1,1.8c-1.7,0.3-3.4,0.6-5.2,0.8c-0.9,0.1-0.7,0.5-0.9,1.1c-0.2,0.6,0.7,0.8,0.2,1.5
		h-4.5c0.2,0.3,0.3,0.4,0.4,0.5c1.3,0.9,1.3,1.1,0,1.8c-0.6,0.4-1.6,0.2-2,1.1c1,0.4,2.1-0.5,3.2,0c-0.7,0.8-1.7,1.1-2.5,1.6
		c-3.7,2.3-7.1,4.9-9.8,8.4c-0.3,0.4-1,1.3-0.8,1.4c1.5,0.7,0.2,1.3-0.1,1.8c-3.9,6-6.7,12.4-8.4,19.2c-0.1,0.4,0,1.1-0.9,0.9
		c-0.3-1.3-0.2-2.6,0.2-4c0.4-1.3,0.7-2.6,1-4c0.1-0.7,0.3-1.5-0.3-2c-0.7-0.6-1.1,0.3-1.6,0.6c-0.4,0.2-0.7,0.3-1.1,0.1
		c-0.4-0.3-0.6-0.7-0.5-1.2c0.2-0.6,0.6-1.1,1-1.6c1.2-1.6,2.5-3.2,4-5.2c-2.8,1.1-3.7,3.5-5.5,5c-1.4-1.9-1.6-3.8-1-5.8
		c0.3-1.1,0.9-2,1.4-3c0.1-0.2,0-0.3-0.2-0.4c-0.5,0-0.9,0.7-1.5,0.5c-0.5-0.5,0-1.3-0.7-1.9c-2.1,7.6-2.5,15,0.7,22.2
		c2,4.4,2.6,10.5,1.1,15.7v-4.1c-0.9,1.5-1.4,3.1-2,4.6c-0.5,1.5-1,3-1.6,4.5c-0.6,1.5-0.7,3.2-2.2,4.8c0.1-1.7,0.2-2.9,0.3-4.1
		c0.1-1.9,0.3-3.8,0.4-5.7c0-0.4,0.1-0.9-0.4-1c-0.5-0.1-0.6,0.3-0.8,0.7c-0.5,1.6-1,3.2-1.5,4.8c-0.3,0.8-0.3,1.8-1.2,2.5
		c-0.3-2.9,0.8-5.4,1-8.6c-2,3-3,5.7-3.9,8.5c-2.7,8.4-3.9,17.1-4.3,25.9c-0.1,3.2-0.2,6.4,0.2,9.6c0.7,5.6,2.5,10.9,4.7,16.1
		c1.9,4.5,3.9,8.9,5.9,13.4c1.2,2.9,1.8,5.9,1.9,9c-1.1-3.8-2.5-7.4-4.4-10.8c-1.3-2.2-2.5-4.5-3.8-6.7c-2.3-4-4.3-8.2-5.3-12.8
		c-0.1,2.2,0.4,4.4,1.1,6.5c1.1,3.6,2.9,6.9,4.8,10.2c2.9,4.9,5.1,10.1,6.1,15.8c0.8,4.4,1.2,8.9,0,13.3c-0.1-0.8-0.1-1.6-0.1-2.4
		c0.2-4-0.2-8-1.4-11.8c-1.4-4.9-3.7-9.3-6.5-13.6c-5.7-8.9-8.9-18.5-9.2-29.1c-0.3-10.1,1.7-19.9,4.7-29.4
		c2.8-8.9,6.5-17.5,10.1-26.2c0.4-0.9,0.7-1.8,1-2.7c-10.8,18-17.8,37.2-17.7,58.5c-0.6-4.9-0.3-9.8,0.3-14.6
		c2-14.8,5.6-29.2,11.2-43c3.4-8.3,6.9-16.5,9.9-24.9c0.3-0.8,0.7-1.6,0.8-3c-0.4,0.6-0.5,0.8-0.6,1c-4.1,8-8.9,15.5-12.8,23.6
		c-2.3,4.8-4.3,9.8-5.5,15.1c-0.1,0.6-0.5,1.4-0.2,1.9c0.7,1.1,0.1,2-0.2,2.9c-1.6,4.3-3.3,8.7-4.9,13c-1.4,3.8-2.1,7.7-2.1,11.7
		c0,0.5-0.2,1.1,0.6,1.5c1.6-6.9,1.6-14.1,5.8-20c0,0.7-0.2,1.3-0.3,1.9c-2.1,6.9-3.1,13.9-3.3,21c-0.1,5.7,0.1,11.4,0.6,17
		c0.4,4.5,1.1,8.9,2.4,13.2c0.7,2.4,1.7,4.6,3.3,6.6c2.4,2.9,4.6,5.9,6.5,9.2c2.9,4.8,5,10,5.8,15.6c0.8,5.9-0.6,11.6-1.5,17.3
		c-0.1,0.9-0.6,1.8-1,2.7c-0.2,0.5-0.3,1.1-1.2,1.1c0.2-1.6,0.3-3.2,0.5-4.7c0.2-1.7,0.3-3.3,0.4-5c0.1-1.6,0.1-3.2,0.1-4.8
		c0-1.6,0-3.2-0.9-5.1c-0.2,8.8,0.1,17.3-2.9,25.4c0.6,0,0.9-0.4,1.3-0.7c3.9-2.9,6.5-6.8,8.2-11.3c2.4-6.4,3.7-13.1,3.4-20
		c0-0.8-0.2-1.6,0.2-2.8c1.9,7.5-0.6,14.2-1.3,21c2.5-4.8,3.7-10,3.9-15.4c0.2-5.4-1-10.6-2.6-15.7c2.1,3.2,2.2,7.1,3.5,11.1
		c0.5-3.6-0.8-6.5-1.1-9.7c0.8,1.1,1,2.1,1.3,3.1c1.4,5.6,1.4,11.3,0.4,16.9c-2,11.3-6.8,20.9-16.8,27.4c-3.6,2.3-5.7,5.8-6.6,9.9
		c-1.3,5.8-1.1,11.6,0.3,17.4c0.1-0.8,0.1-1.6,0.1-2.4c0-3,0-6.1,0.5-9.1c0.8-4.2,2-8.2,4.5-11.8c0.7-1.1,1.5-2.1,2.9-2.7
		c-7.5,12.7-6.9,26.1-3.3,40.2c-1.1-1.1-1.3-2-1.6-2.8c-0.8-1.9-1.4-3.9-1.9-5.9c-0.1-0.5-0.1-1-0.8-1c0.4,2,0.7,4,0.3,6.1
		c-1.1-5.4-2.3-10.8-3.4-16.1c0.8-0.2,0.8,0.8,1.4,0.5c-0.4-1.9-0.8-3.9-1.2-5.8c-0.9-4.5-0.7-8.9,1.4-13.1c1.4-2.7,2.1-5.7,2.7-8.7
		c1.3-6.3,1.1-12.7,0.4-19.1c-0.8-7.3-2.2-14.5-6-21.1c-2.1-3.6-3.4-7.6-4.4-11.6c-1.3-5-1.8-10.1-1.7-15.5c-0.4,0.8-0.7,1.4-0.7,2
		c-0.2,3.4-0.3,6.9,0.1,10.3c0.6,4.9,2,9.5,4.4,13.9c2.6,4.7,3.4,9.8,3.2,15.1c-0.1,3.7-0.6,7.3-1.3,10.9c-1.6,7.7-4,15.1-5.7,22.8
		c0,0.1-0.2,0.2-0.3,0.3c-0.6-0.1-0.6-0.7-0.8-1.1c-0.9-2.3-0.9-4.7-0.3-7.1c1.2-4.7,1.2-9.5,0.9-14.5c-1.8,3.2-1.1,6.8-2.3,10.5
		c-0.7-2.7-1.3-4.9-1.8-7.1c-0.5,2.9,0.6,5.7,0.5,8.7c-0.2-0.2-0.4-0.3-0.4-0.5c-0.1-0.3-0.3-0.6-0.4-0.9
		c-2.9-7.5-3.6-15.6-6.8-23.1c-0.9-2.1-0.9-4.6-1.3-6.9c-0.5,1.2-0.5,2.5-0.4,3.7c0.5,13.9,2.5,27.5,8.3,40.4
		c3.2,7.1,4.6,14.6,4.9,22.3c0.5,9.4-0.3,18.7-1.6,28c-1.4,10.8-3.6,21.4-4.9,32.2c-1.1,8.9-1.3,17.9,0.1,26.8
		c1,6.8,2,13.6,3.1,20.4c1.3,7.9,2.2,15.8,3.8,23.7c0.5,2.3,1.2,4.6,1.3,7c-0.4-0.7-0.6-1.4-0.8-2.1c-2.4-8.9-3.4-18-4.8-27.1
		c-0.4-2.4-0.8-4.7-1.1-7.1c-0.2-1.4-1.4-2.3-1.6-3.7c-2.4-13.4-3.5-26.9-2.8-40.6c0.1-1.6,0-3.2,0-4.8c-0.3,2.1-0.6,4.3-0.7,6.4
		c-0.7,12.8,0.4,25.6,2.1,38.3c1,7.4,2,14.9,3,22.3c0.1,0.6,0.2,1.2-0.1,1.9c-0.7-0.8-0.7-1.6-0.9-2.3c-1.1-4.2-1.5-8.5-2.3-12.7
		c-0.5-3-0.9-6-2.2-8.8c0.4,3.9,1.4,7.7,1.6,11.7c-0.4-0.6-0.6-1.1-0.8-1.7c-4.2-14-4.8-28.3-3.1-42.7c1-8.3,2.8-16.4,4.3-24.5
		c1.8-9.8,3.3-19.6,3.5-29.5c0.2-7.3-0.4-14.5-1-21.8c-0.2-2.6-0.5-5.2-1.6-8.1c-0.4,1.6-0.1,2.7,0,3.7c0.7,6.4,1.2,12.7,1.3,19.1
		c0.3,12-0.7,23.8-3.2,35.5c-2.2,10.1-4.1,20.2-5.1,30.5c-1.2,11.9-0.7,23.6,1.4,35.3c2.1,11.8,5.7,23.1,10,34.2
		c4,10.3,6.4,20.9,6.8,32c0.4,10.9-1.5,21.5-5.4,31.7c-1.1,2.8-1.9,5.8-2,8.9c1.8-3.8,3.6-7.5,5.5-11.4c0.5,0.5,0.3,0.8,0.3,1.1
		c-0.3,3.9-1.1,7.8-1.8,11.6c-1.4,7-3.1,13.9-3.8,21c-0.3,2.9-0.2,5.9-0.3,8.9c-0.6-0.2-0.5-0.7-0.6-1c-1.2-4.7-2.1-9.5-1.8-14.5
		c0.1-2.7,0.1-2.7-2.5-2.8c-1.8-0.1-1.9-0.1-1.5-2c1.6-7.9,2.8-15.9,3.3-24c1.3-19.2-1.4-37.6-9.9-55c-2.5-5.3-4.9-10.6-6.8-16.1
		c-2.2-6.5-3.6-13.1-3.5-20c0.1-9,1.4-17.8,3-26.7c2.8-15.7,5.3-31.5,6.1-47.5c0.8-14.9,0.6-29.7-0.8-44.6c-0.3-2.8-0.7-5.6-1-8.3
		c-0.2,1.7-0.3,3.4-0.1,5c0.6,7.7,0.9,15.3,0.8,23c-0.4,17.1-2.7,34.1-5.5,51c-1.6,10.1-3.7,20.1-4.3,30.4
		c-0.6,10.1-0.2,20.1,1.9,30.1c1.7,8.2,4.8,15.9,8.1,23.5c4.9,11.2,9.2,22.6,10.7,34.9c0.7,6.3,1,12.6-0.3,18.9
		c-0.4,1.8-0.7,3.6-1.5,5.2c-0.7-0.3-0.4-1.3-1.2-1.5c-2.8,11.6-8.7,21.9-12.8,33c1.7-10.5,3.5-21,4.3-31.7
		c-2.7,12.6-3.9,25.5-7.5,37.9c-0.9-5.1-0.9-10.1-0.6-15.2c0.6-9.5,2.5-18.8,4.3-28.2c0.6-3,1.2-6.1,1.7-9.1
		c-2.4,3.8-3,8.2-4.8,12.2c0.2-1.6,0.5-3.2,0.8-5c-0.6,0.9-0.8,1.7-1.1,2.6c-2.9,9.8-4.8,19.7-5.6,29.9c-0.1,1.2-0.1,2.4-0.7,4
		c-0.4-3.1-0.6-5.8-1.6-8.3c0.3,3.9,0.5,7.8,0.8,11.8c-0.2-0.2-0.3-0.3-0.4-0.4c-0.1-0.3-0.3-0.6-0.4-0.9
		c-2.5-9.4-2.7-18.5,1.1-27.7c6.7-16.5,7.9-33.6,5.3-51.1c-1.1-7-2.9-13.8-4.3-20.7c-1.9-9.6-3.3-19.2-3.4-29
		c0-6.4,0.9-12.7,1.5-19.1c0.1-0.7,0.2-1.4,0.2-2.2c0-0.6,0.2-1.2-0.2-2.1c-1.1,7.3-1.9,14.3-2.3,21.3c-0.6,10.6,0.1,21.1,2.9,31.4
		c3,11.1,5.2,22.2,5.7,33.7c0.6,14.3-1.9,28-8.3,40.9c-1.3,2.7-2.4,5.4-3.4,8.2c-2.9,8.4-4.1,17.1-4.8,25.9
		c-0.2,1.9-0.3,3.8-0.5,5.7c-1.8-6-2.9-12-2.2-18.2c0.6-4.9,1.9-9.6,3.4-14.2c2.4-7.5,4.4-15,5.4-22.8c1.7-12.2,1.5-24.4,0.4-36.6
		c-1.3-14.7-4.1-29.3-6.6-43.8c-0.1-0.4-0.2-0.7-0.6-0.9c1.7,14.1,3.3,28.2,5,42.3c-2.1-5.2-2.9-10.8-4.2-16.2
		c-0.1,0.8-0.1,1.6,0,2.4c0.7,3.9,1.4,7.7,2,11.6c1.7,9.9,3.1,19.9,2.9,30c-0.1,3.9,0,7.8-1.2,11.6c-1.5,1.3-1.7,3.5-3.2,4.8
		c-3.1-5.9-3.5-11-1.2-17.2v5.1c0.8-2.4,1-4.8,1.2-7.3c1-12.5-0.8-24.4-7.1-35.4c-2.4-4.2-4.6-8.6-6.3-13.2
		c-1.3-3.3-2.6-6.7-3.2-10.3c-0.7-4.3-0.4-8.6-0.1-12.9c0.1-1.3,0.1-2.5,0.2-4.2c-0.7,0.9-0.8,1.4-0.9,2c-1,6.2-0.8,12.4,0.7,18.6
		c1.6,6.5,4.5,12.5,7.6,18.3c1.8,3.3,3.5,6.7,4.8,10.2c2.1,5.4,3.4,10.9,2.9,16.6c-0.3,3.8-0.8,7.6-1.4,11.4
		c-0.4,2.7-1.1,5.5-2.5,8.1c-1.7-1.9-2.2-4.4-4.3-6.5c0.5,3.8,1.8,6.7,3.8,9.4c0,0,0,0,0,0c-0.9,0.6-1.4,1.7-2.5,2.2
		c-1.7-2.9-2.7-6-3.5-9.2c-1.5-6.1-1.6-12.3-1.5-18.6c0.1-3.6,0.2-7.3,0.4-11.4c-1,4.7-1.3,9-1.6,13.3c-0.5,6.6-0.4,13.2,1.8,19.4
		c3.2,9,0.9,17.3-2.7,25.5c-0.1,0.2-0.2,0.4-0.3,0.6c0.6-3.3,1.4-6.5,1.8-9.7c0.3-3.3,0.4-6.5,0.1-9.8c-0.2-3.2-0.4-6.3-1.2-9.5
		c0,1.4,0,2.7,0.1,4.1c0.4,5.7,0.2,11.3-0.7,17c-1,5.7-3.1,10.8-7.3,15.1c-2.6,2.6-5.1,5.2-7.9,7.7c-0.4,0.4-1.1,0.7-1.3,1.7
		c2.9-1.6,5.7-2.3,8.8-2.6c4.9-0.5,9.7,0.4,14.6,0.3c1.2,0,1.2,0.8,1.2,1.6c0,3.9,0,7.8,0.6,11.7c1,6.9,2.5,13.7,5.6,20
		c1.2,2.5,2.6,4.8,4.5,6.7c0.9,0.9,1.9,1.9,3.7,2.4c-3.7-6.9-6.2-13.6-6.6-21c-0.4-7.4,1.1-14.3,4.5-21c0.6,0.7,0.7,1.2,0.9,1.7
		c1.5,4.5,2.7,9.2,3.7,13.9c2,9,6,17.2,11.1,24.8c1.6,2.4,3.6,4.5,5.7,6.4c0.4,0.3,0.7,0.7,1.3,0.9c0.1-1-0.5-1.5-0.8-2.2
		c-1.8-3.7-3.7-7.4-5.1-11.4c-1.1-3.2-1.6-6.3-0.8-9.7c1-4.1,2.9-7.7,5.2-11.4c1.4,7.5,3.8,14.6,7,21.4c-0.8-11.8-1.2-23.7,0-35.4
		c2.5,0.1,3.1,1.4,3.3,3.3c1.1,8.1,2.3,16.3,3.6,24.4c1,6.7,2.6,13.2,5.6,19.2c0.4,0.7,0.6,1.6,1.6,2.3c-0.5-2.2-0.9-4.2-1.4-6.2
		c0.8,0.2,0.8,1.1,1.6,1.2c-0.5-1.8-1-3.5-1.5-5.2c-2.5-9.1-4.2-18.4-4.1-27.9c0-3,0.4-6.1,0.8-9.1c0.1-0.7,0.3-1.5,1.2-1.5
		c1.3-0.1,2.6-0.1,3.8,0c0.9,0,1.5,0.5,1.8,1.4c0.2,0.7,0.4,1.4,0.5,2.1c0.8,5.1,1.9,10.2,3,15.3c1,4.3,2.3,8.5,4.6,12.3
		c1.6,2.6,3.5,5,6.2,6.6c0.4,0.3,0.9,0.8,1.5,0.3c0-0.1,0-0.2,0-0.3c-3.5-8.1-6.5-16.3-8.1-25c-0.1-0.4-0.4-0.4-0.7-0.5
		c0.5,0.8,0.3,1.6,0.1,2.5c-1.2-2.8-1.6-5.8-2-8.8c-0.4-3-1-6-0.2-9.5c-1.1,1.8-1,3.5-1.2,5.1c-0.2,1.6,0.2,3.2,0.2,4.8
		c0,1.5,0.7,2.9,0.4,5c-1-1.9-1.3-3.5-1.7-5c-1.1-4.6-1.3-9.2,0.6-13.7c2.1-4.8,3.6-9.7,5.2-14.7c4.4-13.5,8.5-27,10.5-41
		c1.7-11.9,1.8-23.7-0.4-35.6c-0.3-1.8-0.6-3.6-1.4-5.3c-0.8-1.8-2.1-3.3-4.1-3.8c-0.4,1.2,0.4,1.7,0.8,2.4c2.2,3.4,3.7,7.1,4.6,11
		c1,4.2,1.2,8.5,1,12.9c-0.4,9.6-1.7,19.1-3.5,28.5c-2.5,12.5-6.2,24.6-11.3,36.3c-0.3,0.7-0.4,1.5-1.4,1.9c-0.5-2.6,0-5.1-0.5-7.5
		c-0.5,2.8-0.9,5.5-1.2,8.3c-0.3,2.9-0.4,5.7-0.9,8.6c-0.5,2.8-3,4-5.7,2.9c-0.6-0.2-0.8-0.6-0.6-1.1c0.7-2.5,1.4-5,2.1-7.4
		c0.9-0.2,0.6,0.8,1.2,0.7c0-5.3,1.1-10.5,2.5-15.6c2-7,4.8-13.7,7.3-20.5c4.7-12.6,6.6-25.5,5.5-38.8c-0.1-0.8,0.1-1.7-0.7-2.5
		c-0.5,4.4,0.3,8.7-0.4,13c-0.7-1.4-0.4-3.1-1.7-4.8c-0.2,4.6,0.1,9-1.6,13c-0.5-3.4-0.9-6.9-1.3-10.3c-1.5-12.3-4.5-24.2-9.9-35.4
		c-6.4-13.5-8.9-27.8-8.7-42.6c0.1-10.3,1.5-20.5,3.4-30.7c1.5-8,2.9-16,3.3-24.2c0-0.6,0-1.2,0.2-1.7c2.1-4.3,2.4-8.9,2.7-13.5
		c0.1-0.9,0-1.9,0.6-3.1c0.7,11.1,1,21.9,0.5,32.6c2.2-10.3,0.7-20.9,1.4-31.3c3.1,9.7,3.3,19.8,4.1,29.9v-6.8
		c1.6,9.4,0.9,18.5-4.4,26.8c1.1-4.4,3.1-8.7,3.5-13.5c-0.7,0.2-0.7,0.6-0.8,0.9c-1.7,5.1-3.4,10.1-5.1,15.2
		c-0.2,0.6-0.6,1.2-0.1,1.8c0.4,0.6,0,1.1-0.2,1.6c-2.8,7.8-3.8,15.8-3.7,24c0,0.5,0,1,0.1,1.5c1-1.3,0.6-2.9,1.6-4.3
		c0.2,0.6,0.4,0.9,0.5,1.3c1.2,4.1,2.3,8.1,3.4,12.2c2,7.5,5.3,14.4,9.6,20.8c0.4,0.6,0.7,1.3,1.8,1.4c-0.9-1.5-1.6-2.9-2.3-4.2
		c-5.3-9.7-8.4-20.2-11.3-30.7c-0.2-0.8-0.4-1.7-0.4-2.6c0-2.3,0.3-4.4,2.2-6.6c0.1,1,0.1,1.4,0.1,1.9c0.4,6.8,1.6,13.5,4.1,19.9
		c3.1,8.2,7.9,15.3,13.8,21.8c4.5,4.9,8,10.4,10.9,16.3c0.4,0.8,0.8,1.6-0.1,2.8c-1.9-4.4-3.7-8.6-6.9-11.9c1.3,3.2,2.9,6.2,4.2,9.4
		c4.3,10.4,6.3,21.1,5.4,32.3c-0.8,10.4-3.9,20.2-8.6,29.5c-3.6,7.2-7,14.5-10.4,21.8c-1,2.3-1.9,4.6-2.5,7
		c-0.1,0.4-0.5,0.8,0.2,1.2c1.1-1.2,1.4-2.8,2.7-4.1c0.2,1,0.4,1.7,0.6,2.5c0.8,4,0.8,4.2-3.3,5.1c-0.7,0.2-1.2,0.5-1.1,1.3
		c0,0.8,0.6,1.1,1.3,1.1c0.4,0,0.8,0,1.2,0c3.4,0,6.9,0,10.3,0c3,0,3.6,0.4,4.6,3.2c1.1,3.1,2.3,6.1,4.1,8.9
		c0.1,0.2,0.2,0.4,0.4,0.6c0.2,0.2,0.2,0.6,0.8,0.3c-1.5-4.1-3.6-7.9-4.1-12.2c0.6-0.4,1.1-0.3,1.6-0.3c3.6-0.1,7.1-0.1,10.7-0.2
		c-0.8-0.8-1.5-1.7-2.1-2.6c-0.8,0-1.6,0-2.4,0c-1.8,0-3.5,0.1-5.3-0.3c-1.5-0.3-2.5-0.9-3-1.7c-0.8-1.2-0.4-2.7-0.2-3.3
		c1.2-4.8,10-14.7,10.9-15.9c-0.6-12.4,4.3-23.6,11.2-26.9c2.1-1,2.8-0.7,5.7-1.1c5.9-0.7,8,0.8,12.7,0.5c5.4-0.3,6.5-2.4,13.9-5.3
		c3.1-1.2,10.6-4.1,20-4.3c4.9-0.1,14.2-0.2,21.2,6.1c1.7,1.5,2.8,3,3.6,4.1c0.7-2.5,2.3-6.6,5.9-10.2c5.8-5.7,13.5-6.3,19.4-6.7
		c1.8-0.1,8.1-0.6,16.2,1.3c8.8,2.1,13.6,5.8,24,6.9c3,0.3,5.4,0.3,6.9,0.2c-0.2-9.5-0.3-19-0.5-28.4c-1.4,6.4-0.8,12.9-0.4,19.4
		c-0.8-1.5-1.1-2.8-1.3-5.5c-0.4-6.1,0.3-12.1,1.4-18.1c2.3-12.1,5.9-23.7,10.8-35c0.2-0.6,0.4-1.2,1.2-1.9c0.4,2.5-0.3,4.6-0.5,7.1
		c0.7-0.4,0.8-0.9,1-1.3c1.6-4.2,2.8-8.5,3.9-12.8c0.3-1,0.3-2.2,1.8-2.5c0.1,0.6,0,1.4-0.2,2.1c-0.8,4.3-2.1,8.3-3.9,12.3
		c-4.5,10.4-7.5,21.2-8.8,32.5c-1.1,10.1-0.8,20.2,0.8,30.2c0.5,0.3,0.9,0.5,1.4,0.8c-0.5-3-1-6.1-1.2-9.2
		c-0.4-4.8-0.3-9.7,0.1-14.5c0.3,1.2,0.5,2.3,0.6,3.5c0.5,7.4,1.6,14.7,3.2,22c0.6,0.4,1.1,0.8,1.6,1.3c-1.7-7.8-2.9-15.7-3.6-23.7
		c-0.9-10.5-0.4-20.8,3.4-30.7c0.3-0.8,0.5-1.7,0.8-2.5c2.2-6.6,4.4-13.2,7.2-19.6c0.4-0.9,0.6-1.9,1.7-2.6c0.9,3.3-0.9,6.3-0.7,9.5
		c5.6-3.4,8.3-7.9,9.8-15.8c0.7,1.7,0.8,3.2,0.5,5.6c-0.6,4.6-2.5,8.5-5.1,12.3c-0.5,0.7-1.1,1.3-1.4,2.4c1.7-1,3.2-1.8,4.7-2.6
		c-1.2,3.3-2.6,6.3-3.7,9.5c-5.1,14.1-6.7,28.7-6.1,43.7c0.1,2.4,0.3,4.8,0.9,7.1c0.1,0.5,0.2,1,0.9,1.3c0-1.3,0-2.4,0-3.5
		c0-4.6,0.4-9.3,1.1-13.9c2.2-14.3,6.1-28.1,11.7-41.4c3.3-7.7,6.6-15.4,9.9-23.1c0.3-0.7,1.1-1.6,0.6-2.2c-0.7-1-0.2-1.7,0.1-2.5
		c2.2-5.9,4.5-11.8,6.7-17.7c0.2-0.5,0.2-1.3,0.9-1.5c0.4,0,0.4,0.3,0.5,0.5c0.2,0.6,0.3,1.2,0.5,1.9c1.1,4.6,0.4,9-1.2,13.4
		c-1.2,3.3-2.9,6.4-4.7,9.4c-0.3,0.6-1,1.1-0.7,1.9c1.1-0.2,1.5-1.4,2.6-1.5c0.2,0.5,0,1-0.1,1.4c-1.9,7.9-5,15.3-8.2,22.7
		c-5.2,11.9-9.3,24.1-11.9,36.9c-2.9,14.4-2.7,28.7,2.1,42.8c3.5,10.2,6.3,20.7,5.9,31.9c0.8-0.9,0.8-1.8,0.9-2.6
		c0.8-5.6,0.2-11.2-1.2-16.6c-4-15.4-5.2-31-3.5-46.9c1.5-13.6,5.2-26.6,10.6-39.2c0.7-1.5,1.3-3.1,1.9-4.7c0.2-0.5,0.4-0.9-0.5-1.2
		c-11.4,21.2-16.6,43.7-14.7,67.8c-1.2-4-1.6-8.1-1.8-12.3c-0.2-7.2,0.8-14.2,2.1-21.2c2-10.9,5.7-21.3,10-31.4
		c2.8-6.5,5.6-13.1,7.4-20c1.3-5.1,3.3-9.8,6.1-14.2c2.2-3.4,3.5-7.2,3.8-11.3C440.9,481.7,440.6,478.9,439.2,475.9z M266.9,412.8
		c-0.1-0.1-0.2-0.2-0.3-0.4c2.1-2.9,4.5-5.5,8.5-5.9C272.3,408.7,269.6,410.7,266.9,412.8z M267.2,254.9c-0.6-0.2-0.9-0.7-0.9-1.6
		C266.9,253.9,267.3,254.3,267.2,254.9z M243.6,231.3c2.1,0.2,4.1,0.7,6.1,1.1c1,0.2,1.6,0.8,1.6,1.7c0,1.1-0.6,1.8-1.6,2.1
		c-0.8,0.2-1.7,0.2-2.8,0.3c-0.8-0.1-1.8-0.1-2.8-0.3c-1.4-0.3-2.2-1.2-2.5-2.6C241.2,232,242,231.2,243.6,231.3z M234.5,244.2
		c2.6,3.2,5,6.2,9,7.1c3.9,0.9,7.3-0.6,11.1-2.1c-1.1,2.7-2.6,4.4-4.9,5.4c-5.4,2.5-12.6,0.1-15.4-5.1
		C233.3,247.6,233.3,246.3,234.5,244.2z M199.6,244.3c-1.6,3.5-3.3,7-4.9,10.6C194.7,252.3,196.9,247.3,199.6,244.3z M196.5,294.8
		c-0.9,14.7,4.4,27.7,11.7,40C199.3,324.8,192.6,305.2,196.5,294.8z M208,357.6c-0.2-3-0.1-6.1-0.6-9.1c-0.5-3-1.5-5.8-2.6-8.9
		C207.9,343,209.1,349.8,208,357.6z M211.7,338.1c-1.5-2.7-3-5.4-4.6-8.1c-5.9-10.1-9-21.1-9.2-32.8c0-0.2,0.1-0.4,0.1-0.7
		c0.7,3.9,1.3,7.6,2.1,11.4c1,4.7,2.4,9.3,3.9,13.8c1.2,3.4,3,6.3,6.1,8.3c1.6,1,2.7,2.5,3.5,4.2c3.8,7.2,5.2,14.9,4.2,23
		c0,0.4,0,0.8-0.5,1.1c-0.2-2.3-0.4-4.5-0.8-6.7C215.8,346.7,214,342.3,211.7,338.1z M195,424.4c-0.7-8.7,0.1-17.2,3.2-25.5
		c1.1-2.9,2.5-5.7,4.4-8.2c0.6-0.8,1.3-1.6,2-2.4c0.2,0.1,0.4,0.2,0.6,0.3c-10,20-10.5,40.2-1.7,60.6c-1.5-1.5-2.4-3.2-3.2-5
		C197.1,438,195.6,431.3,195,424.4z M160.9,451.8c0.4,1.1,0.1,2.2,0.1,3.2c0,0,0,0,0,0C160.7,453.9,160.8,452.9,160.9,451.8z
		 M152.2,516c0.1-2.3,0.2-4.6,0.5-6.8c0.9-9.5,2.4-19,3.9-28.5c1.3-8.1,2.7-16.2,3.7-24.4c0.1-0.6,0-1.1,0.7-1.4
		c-0.4,4.3-0.7,8.6-1.1,12.9c-1,9.9-2.5,19.8-4.1,29.6c-0.8,5.2-1.7,10.4-2.6,15.6C152.9,514,152.7,515.1,152.2,516z M136.1,620.8
		c1.1-2.8,2.5-5.4,3.2-8.4c0.8,1.8,0,3.6-0.1,5.4c-0.4,4.6-1.4,9.1-3.4,13.4c-0.4,0.9-0.7,1.8-1.6,2.6c-0.5-1.2-0.5-2.4-0.4-3.5
		C133.8,626.9,134.9,623.9,136.1,620.8z M130.4,609.8c0.3,1.4,1.2,2.5,1.8,3.8c1.2,2.6,2,5.2,1.7,8.1c0,0.3-0.1,0.6-0.2,0.9
		c0,0-0.1,0.1-0.5,0.2c-1.2-2.3-2.8-4.3-3.6-6.8C128.9,613.8,129.3,611.7,130.4,609.8z M130.9,659c-1.3-3.6-1.2-7.9,0-11.7V659z
		 M131.8,631.2c-0.4,3.5-1.4,6.9-2.3,10.3c-0.3,1.2-1,1.7-2.2,1.7c-4.6,0-9.2,0-14.5,0c2.9-2.5,5.4-4.8,7.2-7.7
		c1.8-2.9,3.1-5.9,4-9.2c0.9-3.3,1.2-6.7,1.9-10.4c2.1,1.8,3.6,3.7,4.6,6C131.9,624.8,132.2,628,131.8,631.2z M151.3,656.3
		c1.1,7.2,2.1,14.5,3.2,21.8C151.4,675.3,150.5,666.6,151.3,656.3z M156.7,667.6c-0.6-3.5,1.9-14.9,4.4-19.5
		C160.2,654.5,159.2,661.1,156.7,667.6z M167.4,663.9c-1.9-6-1.5-12,0-18.1V663.9z M184.1,573.2c-1.2-2.1-8.4-24.8-8.6-26.7
		c0.5-0.2,0.7,0,0.8,0.3C179,555.5,181.6,564.3,184.1,573.2z M181.9,426.4v-16.3C183.2,415.6,182.7,421,181.9,426.4z M175.8,390.9
		c2.4,3.6,4.9,7.1,7.1,11.3C180.7,400.4,177.4,395.1,175.8,390.9z M186.9,494c0.7,5.3,2.4,10.3,4.3,15.7
		C188.7,507.1,186.6,499.2,186.9,494z M211.7,528.9c-2.7-2.8-5.2-5.8-6.7-9.5c0.1-0.1,0.3-0.2,0.4-0.3c2.2,3.1,4.5,6.3,6.7,9.4
		C211.9,528.6,211.8,528.8,211.7,528.9z M219.3,547.4c2.2,4.3,3.3,9,4.2,13.7c0.8,4.2,1.1,8.5,1.3,12.8c0.1,2.8-0.4,5.5-1.1,8.3
		c-1.3,4.6-1.8,9.5-2.7,14.3c-0.3-2.9,0.5-5.8,0.9-8.6c0.7-4.7,1.4-9.3,1.7-14c0.4-9.2-1.3-17.9-5.1-26.3c-0.4-0.9-0.7-1.7-1.3-3
		C218.5,545.4,218.8,546.5,219.3,547.4z M221.3,547.9c3.5,6,4.9,12.5,5,19.4C225.4,560.6,223.5,554.2,221.3,547.9z M217.1,599.3
		c0.8,5.6-4,18.2-8.5,22.3C211.5,613.9,214.2,606.8,217.1,599.3z M202.4,642.8c1.5-5.2,2.9-10.3,4.6-15.1c0.6,5,0.6,10.1,2.1,15
		C206.8,643.1,204.7,643,202.4,642.8z M223.4,607.1c-2.2,4-4.2,7.6-7,12.8c-2.5,4.5-4.6,9.1-5.5,14.2c-0.3,1.8-0.5,3.6-0.7,5.4
		c-1.7-5.4-1.3-10.6,1.9-15.5c4-6.2,8.2-12.2,11.7-18.7C224.3,606.2,223.7,606.6,223.4,607.1z M223.7,594.5
		c0.9-3.8,1.8-7.6,2.7-11.5C226.5,587.1,225.8,591,223.7,594.5z M224.8,550.2c2.1,4.7,3.1,9.7,3,14.8
		C227.4,560,225.5,555.2,224.8,550.2z M224.7,541.9c2.7,2.5,4.8,7.7,4.9,11.8C228,549.9,226.6,545.9,224.7,541.9z M230.8,594
		c0.7-3.9,1.4-7.7,2.1-11.6c0-0.2,0.3-0.3,0.5-0.4C233.1,586.2,232.6,590.2,230.8,594z M341.2,520.3c0.3-0.8,0.8-1.3,1.8-1
		c3.2,0.9,5.6,2.7,6.8,5.9c-2.4-1.5-4.9-2.8-7.6-3.4C341.4,521.6,340.9,521.1,341.2,520.3z M303.2,395.1c-3.6,0.6-7.3,1.3-10.9,1.9
		C295.6,394.8,299.4,394.5,303.2,395.1z M304.6,418.7c-1.5,0.1-3.1-0.2-4.4,0.7c-0.3,0.2-0.6,0.1-0.8-0.2c-0.2-0.2-0.3-0.5-0.7-0.4
		c-1.2,0.2-1.6,0.1-2.4-0.5c-0.4,0.6-0.8,1.2-1.2,1.7c-0.9,0-0.8-1-1.6-1.2c-0.3,0.7-0.6,1.3-0.9,2c-0.9-0.2-1.1-1.3-1.9-1.5
		c-0.7,0.3-0.6,1.3-1.3,1.6c-2-1.5-2-1.5-4.1,0.1c-0.3,0.2-0.7,0.4-0.9,0.7c-1.6,2-3.9,1.7-6,2.2c-0.6,0.1-0.8-0.3-0.9-0.8
		c-0.4-1.9,0.6-4.1,2.6-4.2c3.6-0.1,4.8-2.7,6.4-5.1c0.7-1.1,1.3-2.2,2.2-3.2c-0.5,1.4-1,2.9-1.5,4.3c0.2,0.1,0.3,0.2,0.5,0.3
		c1.7-1.8,2.4-4.3,4.1-6.5c-0.5,2.5-2,4.4-1.7,6.8c2-3,3.2-6.5,6-9c-1.1,2.8-2.2,5.6-3.3,8.3c0.1,0.1,0.2,0.2,0.4,0.3
		c1.8-2.4,3.6-4.9,5.3-7.3c0.8,0.7-0.2,1.5,0.4,2.2c1.3-1.9,1.3-4.4,2.8-6.3c0,1.8-0.9,3.3-1.2,5.1c0.9,0.3,0.9-1,1.6-0.9
		c0.1,0.3,0.3,0.5,0.4,0.8c0.2,0.1,0.3,0,0.4-0.2c0.5-0.9,0.8-1.8,2-2.2c1.6-0.6,2.1-2.1,2.6-3.5c0.5-1.4,0.9-2.9,2.5-4.2
		c-0.4,3.5-2.8,6.1-1.8,10c1.1-2.8,2-5,3-7.7c0.5,1.9-0.6,3.1-0.1,4.4c0.7,0.1,0.6-0.9,1.3-0.9c0.8,0.7,0.3,2,1.3,2.7
		c0.3-0.6,0.1-1.2,0.1-1.8c0-0.5,0.1-0.5,1-1.6c0.6-0.7,0.1-1.7,0.6-2.6c0.7,1.3,0.1,2.8,1,4.2c0.5-1.5,0.2-3,1.1-4.6
		c0.3,1.7,0.2,3.3,1.3,4.6v-5.8c0.2,0,0.3,0,0.5-0.1c0.5,1.1,0.6,2.3,0.9,3.5c0.3,1.1,0.1,2.4,1.2,3.5c0.1-2.4-0.6-4.6,0-6.8
		c0.9,2.3,1.7,4.6,2.7,7.1c0.8-1.1,0.7-2.1,0.7-3.1c0-1-0.5-2-0.2-3.3c1.2,2.1,1.4,4.3,2.4,6.3c0.7-0.7,0.6-1.6,1-2.5
		c1.5,2.1,2.1,4.6,3.6,6.9c0.9-2.7-0.2-4.9,0-7.6c1.6,2.5,1.7,5.3,3.5,7.4c0-2.8-1.3-5.3-1.5-8.2c3.1,2.6,5.7,10.9,5,16.6
		c-1.1-1.6-2.6-1.5-4.1-1.6c-0.6,0-1.2-0.3-1.9-0.5c-2.3-0.7-2.3-0.7-3.5,1.3c-0.7-0.9-1-2.2-2.2-2.9c-1.1,1-0.8,2.6-2,4v-4.1
		c-1.2,0.1-2.3,1.7-3.1-0.2c-1,1.1-0.7,2.6-1.5,3.6c-0.4-0.6-0.1-1.3-0.3-1.9c-0.1-0.5-0.2-1-0.7-1.2c-0.6-0.2-0.8,0.4-1.1,0.7
		c-0.2,0.2-0.3,0.4-0.3,0.4c-1,0.2-0.6-1.1-1.4-0.9c-0.7,1.1-0.5,2.7-1.4,3.9c-0.1-0.1-0.2-0.2-0.2-0.3c0.4-3,0.4-3-2.6-3.2
		c-1.8-0.1-3.8-0.4-4.8,1.8C306.5,417.8,305.6,418.6,304.6,418.7z M319.4,497.3c-0.9-3.9-1.8-7.4-2.5-11.4c1.5,1,1.3,2.5,2.5,3.4
		c0.1-1.9,0.2-3.6,0.3-5.4c2.1,1.8,3.9,9.6,3.2,14c-2.1-2-0.8-5.4-3.2-7.4C319.4,492.8,321.2,494.9,319.4,497.3z M317,496.1
		c-1.4-3.7-2.4-7.4-2.3-11.4C316,488.4,317.2,492.2,317,496.1z M290.7,561.6c0.5,6.2,0,12.3,3,18.1
		C288.7,578.5,286.6,567.2,290.7,561.6z M327.2,575.4c2.7-3.2,5.5-6.3,8.2-9.5c0.1,0.1,0.3,0.2,0.4,0.3
		C334,570.2,331.5,573.6,327.2,575.4z M349.4,535.4c-1.3-1-2-2.1-2.8-3c-0.5-0.6-1-1.3-1.5-1.9c-0.7-0.7-1.3-2.4-2.1-1.8
		c-1,0.8,0.7,1.6,1.1,2.4c0.3,0.7,0.9,1.2,1.6,2.3c-1.6-0.5-2.1-1.6-3.4-2.2c1.7,5.3,5.6,9.6,4.8,15.5c-0.4-1.2-0.8-2.5-1.2-3.7
		c-0.4-1-0.8-2.1-1.3-3.1c-0.4-0.8-1.1-1.4-2.1-1.1c-1.1,0.4-1.4,1.3-1.2,2.3c0.1,0.5,0.3,1.1,0.5,1.6c1.4,3.6,1.9,7.4,2.3,11.2
		c0.2,2-0.1,3.3-1.1,5.5c-0.5-0.7-0.3-1.3-0.3-1.8c0.1-3.4,0.1-6.9-0.9-10.2c-0.8-2.8-2.2-5.3-4.5-7.7c-0.1,1.3,0.2,2.2,0.4,3
		c0.9,2.8,1.9,5.6,2.8,8.4c1,3.3,1.3,6.6,0.2,9.9c-0.2,0.6-0.3,1.2-1.1,1.9c-1.3-5.8-1.5-11.7-4.5-17.4c-0.4,2.6,0.3,4.6,0.6,6.6
		c0.3,2.2,0.5,4.5,0.3,6.7c-0.3,3.2-1.8,5.9-4.7,8c0.1-2.8,1-5.2,1.3-8.1c-2.3,3.4-1.4,7.8-4.8,10.1c-0.8-0.4-0.4-1.1-0.4-1.6
		c0.1-3.4,0-6.7-0.5-10c-0.1-0.5-0.1-1-0.6-1.2l0,0c0.3,3.4,0.8,6.8,0.2,10.3c-0.6,4-2.4,7.2-5.7,9.8c-1-1.2-0.7-2.7-1.5-4
		c-0.5,2.6,0.2,5.2-2,7.4c0-3.5,0.3-6.6-0.2-9.8c-0.5-3.1-1.2-6.2-2.4-9.2c-0.1,2.6,0.6,5,1,7.5c0.6,3.9,0.8,7.8-0.7,11.6
		c-0.2,0.6-0.5,1.2-0.8,1.7c-0.1,0.2-0.3,0.4-0.7,0.3c0.9-4.8,0.8-9.6-0.2-14.7c-0.7,1-0.5,1.9-0.5,2.7c0,2.5,0.2,5-0.1,7.4
		c-0.3,2.3-1.1,4.3-3.5,6c3.1-7.2,3.9-14.1,0.7-21c0.1,3,1,5.9,0.7,9c-0.3,2.9,0.1,6.1-2.7,8.3c0.5-6.4,1.6-12.8,0.6-19.8
		c-0.8,1.3-0.6,2.2-0.6,3c-0.1,3.4,0,6.9-0.5,10.3c-0.4,2.6-1,5-2.3,7.3c-0.2,0.4-0.4,0.8-1.1,1.2c-0.3-4.8-1.7-9.2-2.4-13.9
		c-2.3,3.4-4.5,9.3-5,13c-0.8,0.2-0.9-0.5-1.1-0.9c-2.3-4.1-2.5-8.5-1.9-13.1c0.3-2.5,1-4.9,1.7-7.2c0.3-1,1-2-0.4-2.8
		c-0.2-0.1,0.2-0.6-0.3-0.9c-4.8,2.5-7.3,6.4-7.5,11.8c-0.1,3,0.6,5.9,1.1,8.8c0.2,1.1,0.4,2.2,0.6,3.2c-2.7,0.5-3.4,0.1-3.9-2.2
		c-0.4-2-0.2-4-0.1-6c0.2-2.6,0.4-5.2,0.5-7.8c-2.6,5-2.3,10.2-1.5,15.6c-3.5-1-5.9-4.8-5.2-8.1c0.4-1.7,1.1-3.3,1.9-4.9
		c0.6-1.2,1.3-2.3,1.6-4.2c-2.8,3.4-4.6,6.6-4.9,10.4c-0.2,2.2,0.9,3.9,2.2,5.4c1,1.1,2,2.2,3.1,3.2c-0.4,0.3-0.6,0.3-0.8,0.2
		c-2.9-1.1-6.4-7-5.4-10.4c0.7-2.3,1.6-4.5,2.3-6.8c0.3-1,0.6-2,0.8-3c0.2-1-0.1-1.7-1.2-2c-0.5,0.3-0.3,0.7-0.1,1
		c0.4,0.8,0,1.1-0.8,1.2c-2,0.1-2,0.2-2.5,2c-0.5,1.7-0.4,3.5-0.4,5.2c0,0.9,0,1.9,0,3.3c-1.6-1.3-2.1-2.7-2.4-4.1
		c-0.4-2.1,0-4.1,0.2-6.2c0-0.7,0.4-1.3,0-2.2c-1.6,2.5-1.4,5.6-3.7,7.8c-1.1-1.9-1-3.7-0.4-5.6c0.4-1.4,1.2-2.6,1.9-3.9
		c0.4-0.8,1-1.6,1.3-3c-1.1,1.3-1.9,2.3-2.9,3.5c-0.7-1.2-0.2-1.6,0.1-2.1c0.3-0.5,1-0.9,0.7-1.8c-1.1,0.3-1.8,1.1-2.5,2
		c-0.7,0.8-1.3,1.8-2.5,2.5c-0.6-4.3,2-7.1,4-10.6c-2.4,0.7-3.2,2.2-4,3.9c-0.7,1.7-1.3,3.4-2.2,5.6c-0.8-1.9-0.5-3.3,0-4.7
		c0.7-1.8,1.8-3.4,2.8-5c1.5-2.2,2.9-4.5,4.2-6.8c-3.2,2.1-4.8,5.6-7.2,8.4c0.3-3.9,2.7-6.9,4.4-10.4c-1.2-0.1-1.6,1.2-2.7,1.1
		c0.1-2.6,2.7-4,3.3-6.8c-2.9,2.1-3.9,5-5.5,7.4c0.1-6.2,4.6-9.4,8.7-13.1c-2.7,0.6-5,2.4-7.1,5.4c-1.7,2.4-2.7,5.2-3.7,8
		c-0.8-1.3-0.6-2.7-0.2-4c0.5-1.6,1.4-3.1,2.4-4.4c1.9-2.6,3.9-5.3,6.1-8.4c-3.1,1.3-4.1,4-6,5.8c-0.4-2.1,0.3-3.8,2.4-5.5
		c1.6-1.3,3.3-2.5,4.8-3.9c-3.6,0.8-6.3,3-8.2,6.4c-1.2-5.1,4.8-12.2,9.9-12.1c0,0.7-0.9,0.9-1,1.5c1,0.8,2.4,1.4,2,3.1
		c-0.1,0.3,0.4,0.4,0.7,0.5c2.2,0.2,4.5,0.4,6.7,0.7c0.9,0.1,1.3-0.4,1.7-1c1.1-1.8,2.2-3.5,3.5-5.2c0.4,1.9-1.1,3.2-1.7,4.8
		c1.1-0.3,1.1-0.3,3.2-3.4c0.6,0.4,0.1,1.1,0.5,1.6c1-0.6,1.4-1.9,2.5-2.4c0.8,0.1,0.5,1.2,1.3,1.3c0.4-0.1,0.5-0.5,0.7-0.8
		c0.6-1.3,1.3-1.1,2.3-0.5c2.2,1.4,3.1,3.3,3,5.9c0,0.4-0.1,0.8,0.2,1.1c0-1,1-0.1,1.4-0.8c1.7-3.1,4.9-3,7.7-3.4
		c0.9-0.1,1.9,0,2.8,0.2c1.4,0.3,2.2-0.1,2.4-1.6c1.3,0.4,2.3,1.3,3.6,1.6c1.3,0.4,2.5-0.2,4-0.1c-0.9,1.9-1.8,3.5-2.7,5.3
		c-0.6-0.6-0.3-1.6-1.1-2.3c-0.4,6.3,1.9,11.3,5.2,16.5c0.5-1.2-0.2-2.2,0.2-3.1c0.9,0.3,1,1.4,2.1,2c0-2.2-0.7-4.1-1-6
		c-0.3-2-0.8-3.9-0.8-5.9c0-2-0.2-4.1,0.6-6.1c0.7,2.9-0.2,5.9,1.1,8.7c0.2-2.5,0.1-5.1,0.9-7.5c0.1-0.3,0.2-0.5,0.7-0.8v7.4
		c1.5-1.6,0.6-3.8,1.8-5.7c0,5.2-0.1,10.1,2.2,14.7c0.3-2.3-0.9-4.6-0.6-7.4c1.2,2.1,1.2,4.2,2.1,6.1c0.6-0.6,0.1-1.3,0.4-1.8
		c0.6,0.6,0.5,1.6,1.4,2.3c0.6-1.2,0.1-2.5,0.4-3.7c0.6,0,0.8,0.6,1.2,0.9c0.6,0.5,1.2,0.9,2,0.5c0.8-0.4,0.9-1,0.8-1.8
		c0-0.3,0-0.6-0.1-1.3c0.5,1.8,0.8,3.3,2.3,4.3c0.4-1.4-0.4-2.6-0.4-4c1.3,1,2,2.5,3.6,2.7c0.3-0.6,0-1-0.1-1.4
		c-0.3-1.3-0.4-2.7-0.2-4c0.4-3.3,1.5-3.9,4.5-2.8c3.7,1.4,6.3,3.6,7,8.1c-1.7-1.6-2.5-3.4-3.9-4.7c-1.5-1.3-3.1-2.4-5.1-2.8
		C345.8,527.1,349,530.1,349.4,535.4z M388.7,513.5c-1-5-2.1-9.9-3.3-14.9C387.9,503.3,389.1,508.2,388.7,513.5z M408.3,510.8
		c-0.2,0.3-0.4,0.7-0.7,1c-0.1,0.1-0.2,0.2-0.8,0.6c0.1-2.1,0.2-3.9,0.3-5.6c0.3-3,0.2-5.9-0.7-8.8c-1.1-3.8-3.2-6.7-6.7-8.6
		c-2.6-1.4-4.8-3.2-5.6-6.2c0-0.1,0-0.3,0-0.5c0.6-0.5,1,0.2,1.5,0.3c0.8,0.3,1.7,0.4,2.3-0.3c1.1-1.2,1.8-0.6,2.7,0.3
		c3.9,3.8,7,8,8.8,13.2C411.2,501.3,411.1,506.1,408.3,510.8z M421.4,508.8c-4.1,9.1-8,18.3-11.1,27.8c-4,12.2-6.6,24.6-7.6,37.4
		c-0.4-24.4,5.7-47,19.2-67.8C422.4,507.5,421.8,508.1,421.4,508.8z"/>
	<path d="M400.4,535.9c0.1-0.6,0.4-1.2,0-1.9c-1.2,2.7-1.9,5.4-2.6,8.1c-3.1,12.5-2.6,25-0.3,37.6c1.1,5.9,2.7,11.7,4.4,17.5
		c1.8,2.6,3.5,5.3,4.9,8.1c1,0.7,1.8,1.4,2.6,2.3c-1.4-3.7-2.9-7.3-4.6-10.8c-5.7-12-8.8-24.5-7.9-37.8
		C397.4,551.2,398.8,543.5,400.4,535.9z"/>
	<path d="M393.5,571c-0.4,4,0.4,7.8,1.2,11.6c0.5,2.8,1.2,5.5,2,8.2c0.9,0.9,1.8,1.8,2.6,2.9c-2.8-7.8-4.8-15.7-5.1-24.3
		C393.4,570.1,393.5,570.6,393.5,571z"/>
	<path d="M587.6,643.3c-2.1,0.2-4.2,0-6.2,0c-21.4,0-42.9,0-64.3-0.1c-0.6,0-1.1,0-1.7,0c-0.6,0-1.2,0.1-1.8-0.2
		c0.1-0.8,0.7-1.2,1-1.7c2.3-3.1,3.7-6.5,4.6-10.2c0.8-3.4,1.1-7,1.3-10.5c0.2-3.6-0.1-4.9,5.1-4.9c19.6,0.1,39.2,0.1,58.8,0.1
		c1.2,0,2.4,0.2,3.6,0.2c1,0,1.5-0.5,1.4-1.5c0-0.9-0.6-1.3-1.4-1.2c-1.3,0.1-2.6,0.2-3.8,0.2c-9.3,0-18.5,0-27.8-0.1
		c-0.8,0-1.6,0.2-2.4-0.4c0-0.4,0.1-0.8,0.1-1.1c1.3-9.3,0.6-18.5-2.1-27.5c-2.7-9-6.9-17.2-12-25c-2.4-3.6-4.5-7.4-6.4-11.3
		c-0.2-0.4-0.8-0.9-0.2-1.4c0.1,0.1,0.3,0.2,0.4,0.3c5,7,10.3,13.7,14.8,20.9c3.8,6,7,12.4,8.8,19.3c0.3,1.2,0.6,2.4,0.9,3.6
		c0.2-0.7,0.3-1.3,0.2-1.9c-0.6-6.1-2.2-11.9-5.5-17.2c-3.9-6.2-8-12.3-12.6-18.1c-8.3-10.4-13.4-22.1-13.1-35.7
		c0-0.3,0-0.9-0.1-0.9c-1.5-0.2-0.9-1.3-0.8-2c0.9-5.8,1.7-11.7,2.1-17.6c0.5-7,0.5-14.1-0.5-21.1c-1.3-9.1-3.7-17.8-6.7-26.4
		c-6.8-19.7-14-39.3-22.5-58.4c-0.4-0.9-1-1.8-1.1-3.1c1.3,1.2,1.7,2.9,3.2,4c-0.3-2.6-1.7-4.5-2.8-6.6c-0.4-0.7-1.1-1.3-1-2.1
		c0.3-1.4-0.4-2.5-1-3.6c-1.3-2.5-2.9-4.8-4.8-6.9c-4.2-4.9-9.2-8.9-14.4-12.6c-0.3-0.2-0.6-0.3-0.9,0.1c2.4,3.8,6.4,6.2,9.5,9.4
		c-0.4,0.5-1.6-0.2-1,0.9c0.5,1,1.2,1.9,1.8,2.8c5.8,8.7,11.4,17.6,15.2,27.4c5.8,14.8,11.3,29.7,15.9,44.9
		c3.4,11.4,6.8,22.8,8,34.7c1.1,11,0.1,21.9-3.3,32.4c-1.9,5.7-4.5,11.1-7.5,16.3c-3.9,6.6-7.6,13.3-10.2,20.6
		c-2.7,7.6-3.8,15.3-2.6,23.3c0.2,1.3,0.7,2.7,0.6,4.5c-1.4-1.7-2.2-3.3-2.7-5c-1.1-3.8-1.7-7.6-1.8-11.6c-0.1-6,0.8-11.9,2.2-17.8
		c1.4-6.1,2.9-12.1,2.6-18.5c-0.2-4.6-0.6-9.2-1.5-13.8c-1.3-6.6-3.2-13-6.2-19.1c-1-2.1-2.2-4-3.9-6c0,1.2,0.5,2,0.8,2.7
		c2,4.8,4,9.6,5.7,14.5c2.2,6.5,3.6,13.1,3.3,20c0,0.5-0.2,1,0.5,1.9V519c0.8,7.7,0.1,13.7-2.1,19.6c-0.6,1.6-1.3,3.1-2.6,4.2
		c-1.3,1.1-2.1,2.6-3,4c-0.3,0.6-0.6,1.2-1.6,1.8c6.3-16.7,2.8-31.9-5.7-46.5c-0.5,1.2-0.7,2.3-0.9,3.5c-0.7,4.8-0.7,9.6-1,14.4
		c-0.2,3.2-0.5,6.3-1.7,9.3c-0.2-0.8-0.2-1.5-0.2-2.3c0-2.4,0-4.8-0.3-7.2c-0.7-6.2-2.3-12.2-3.8-18.3c-2.6-10.1-5.3-20.1-6.7-30.4
		c-0.3-2.3-0.2-4.6-1-7.1c-0.3,3.9-0.2,7.4,0.6,11c2.6,12.8,5.6,25.4,8.6,38.1c2.7,11.2,0.6,21.4-6.4,30.6
		c-3.7,4.9-7.5,9.8-11.8,14.2c-0.3,0.3-0.8,0.6-0.7,1.3c4-2.3,7.3-5.6,11-9c-0.1,0.8-0.1,1-0.2,1.2c-0.5,0.9-1,1.8-1.5,2.8
		c-0.4,0.9-0.7,1.8-1.1,2.6c-0.6,1.1,0.6,1.5,0.8,2.3c0.1,0.5-0.6,1-0.1,1.7c1.5-2.4,3-4.8,4.5-7.1c1.5-2.3,3-4.6,4.9-6.6
		c0,4.3-0.3,8.5-0.6,12.7c-0.9,14.8-2.7,29.4-5.4,44c-0.6,3.3-1,6.6-2.2,9.8c0,0,0,0,0,0c0.9,0.8,0.8,1.8,0.6,2.9
		c-0.8,4.7-1.8,9.4-3,14c-2.6,10.1-6,20-9,30c-1.3,4.4-2.5,8.8-3.8,13.2c-0.3-0.6-0.3-1.2-0.1-1.8c0.5-2.8,0.7-5.5,0.8-8.3
		c0.1-5.3-0.2-10.6,1-15.8c0.1-0.3,0-0.9-0.1-0.9c-1.4-0.2-0.9-1.4-1.1-2.1c-0.8-3.6-1.8-7.1-2.9-10.6c-1.3-4.1-2.7-8.2-3.3-12.5
		c-0.4-2.8-0.8-5.6-0.1-8.4c0.6,3.6,0.8,7.2,2.1,10.7c-1.1-9.3-0.9-18.6-1.1-28c-1.6,12.5-4.6,24.8-7.9,37c-0.5-2.7-1.1-5.5-1.6-8.2
		c0.1,3,0.5,6,0.9,9c1.1,7.9,1.7,15.7,1.2,23.7c-0.2,3.3-0.5,6.6-1.6,9.8c-0.1-0.3-0.2-0.6-0.2-0.9c0.5-8.4-0.8-16.6-2.9-24.7
		c-2-7.8-4.7-15.4-7-23.2c-0.2-0.8-0.4-1.6-0.6-2.4c0.7-0.1,1,0.5,1.6,0.3c0-0.7-0.4-1.2-0.6-1.8c-5.4-13.3-7.9-27-6.4-41.3
		c0.7-6.5,2.1-12.8,4.8-18.7c0.3-0.7,0.5-1.6,1.7-2.4c-2.8,9.3-5.5,18.2-5.5,27.7c0.6-0.6,0.6-1.3,0.7-1.9c0.5-3.2,1.1-6.5,1.6-9.7
		c0.8-5.9,2.2-11.6,5.2-16.8c0.2-0.4,0.4-0.9,0.9-1.2c0.1,0.2,0.1,0.3,0.1,0.3c-0.1,0.4-0.2,0.8-0.3,1.2c-3.2,10.8-5.2,21.7-5.7,33
		c-0.4,8.5,0,16.9,3.6,24.9c1.4,3.2,2.4,6.6,2.7,10.1c0.1,1.2,0.1,2.4,0.2,3.8c0.9-0.6,0.9-1.4,1.2-2c1.5-3.6,2.9-7.3,4.3-10.9
		c3.9-9.9,6.2-20.2,6-30.9c0-2.6,0.2-5.3,0.4-7.9c0.7-6.9,3.3-12.8,8.7-17.3c2.8-2.3,5.1-5.1,7.1-8.1c3.9-5.9,6.8-12.3,8.9-19.1
		c0.8-2.4,1-4.9,1.1-7.4c-0.9,0.2-0.4,1.2-1.2,1.5c-0.7-4.8-1.3-9.6-2-14.3c-0.6-4.7-1.3-9.3-1.8-14c-0.6-4.7-0.6-9.4-0.8-14.1
		c-0.5,5.6-0.5,11.2,0.1,16.8c0.5,5.5,1.1,11,2.3,16.4c0.6,2.6,0.1,5.1-1.6,7.2c-0.3,0.4-0.6,1-1.4,0.7c0-0.4-0.1-0.9-0.1-1.4
		c-0.4-6.7-0.7-13.4-1.1-20.1c-0.9-14.2-0.4-28.3,0.8-42.4c0.8-9.1,1-18.2-0.1-27.3c-1.7-13.4-6.2-25.7-13.9-36.9
		c-1-1.4-2-2.9-2.9-4.4c-4-6.6-7.9-13.3-11.6-20.2c-0.3-0.6-0.6-1.4-1.6-2.1c4.1,10.4,8.7,19.9,14.3,29c-2.4-2-4.2-4.4-5.9-6.9
		c-1.7-2.4-3.3-4.9-4.9-7.4c-1.6-2.5-3.2-4.9-4.8-7.4c-0.1,0.1-0.2,0.1-0.4,0.2c0.4,1.2,0.8,2.3,1.3,3.8c-0.5-0.4-0.7-0.5-0.8-0.7
		c-6.5-9.1-10.4-19-10.1-30.4c0.1-5.7,1.3-11.3,2.2-16.9c0.9-5.7,1.4-11.4,0.3-17.2c-0.7-3.7-2-7.2-4.4-10.4c-0.3,0.8,0,1.3,0.2,1.8
		c1.5,5.2,2.2,10.5,2.3,15.8c0.1,5.5-0.6,11-1.2,16.5c-0.2,2.5-0.6,4.9-0.8,7.4c-0.2,2.5-0.3,4.9-0.4,7.4c0,2.6,0.4,5.1,0.5,7.6
		c0.1,2.2,2,4.4,0.4,6.7c1.3,2.3,1,5,2.1,7.5c6.1,14,10.7,28.4,11.9,43.7c0.8,9.8-0.2,19.3-3.4,28.6c-0.2,0.7-0.3,1.4-1.2,2
		c0.4-3.1,0.8-6,1.2-8.8c0.9-6.1,1.7-12.2,2-18.3c0.4-8.4-2.2-16.2-5.2-23.9c-0.1-0.2-0.2-0.2-0.4,0.2c0.8,3,1.6,6.2,2.4,9.4
		c-2.1-3.6-3.5-7.4-5-11.2c-5.5-13.7-8.4-27.8-7.5-42.6c0.4-5.9,0.5-11.8,0.8-17.7c0-0.6,0-1.1,0-1.7c-0.7,0.2-1,0-1-0.8
		c0-0.6-0.1-1.3-0.1-1.9c-0.2-10.3-1.7-20.4-4.4-30.3c-0.1-0.5-0.7-1-0.1-1.7c2.9,6.1,4.8,12.5,6.1,19.2c0-5.1-1.2-9.9-2.8-14.7
		c-1.9-5.4-3.9-10.8-5.8-16.3c-0.3-0.9-0.8-1.7-0.6-2.8c0.8,0.5,0.9,1.3,1.2,2c1.2,2.6,2.3,5.3,3.4,7.9c1,2.3,2.3,3.9,5,4.3
		c2.6,0.4,4.2,2.1,4.9,4.7c0.5,1.9,0.9,3.9,1.3,5.9c1.4,9,0.7,17.8-0.7,26.7c-0.9,5.8-1.7,11.6-0.7,17.4c0.2,1.3,0.3,2.6,1.5,4.1
		c-0.8-4.7-1.1-9-0.8-13.3c0.4-6.1,1.3-12.1,2-18.1c0.8-7.3,1-14.7-0.9-21.9c-0.1-0.5-0.5-1-0.1-1.6c1.1,0.1,2.2,0.2,3.3,0.2
		c1.3,0,2.1,0.6,2.3,1.9c0.5,2.7,1.8,5.1,3,7.5c0.9,1.8,1.9,3.5,2.6,5.4c2.3,5.9,5.6,11.1,9.9,15.7c5.8,6.2,12.4,11.5,19.5,16.2
		c4.3,2.8,8.7,5.4,11.6,10c0.4-0.7,0.1-1.1,0-1.5c-1.5-3.7-3.9-6.8-7.1-9.2c-1.6-1.2-3.3-2.3-4.9-3.4c-4.4-3-8.8-5.8-13-9.1
		c-4.2-3.3-7.8-7.1-10.5-11.7c-3.7-6.4-6.2-13.5-10.1-19.8c1.3-0.8,2.7-0.5,4.1-1.3c-1.2-1-2.2-1.7-3.2-2.5
		c-0.4-0.3-0.9-0.6-0.5-1.1c0.6-0.9,0.1-1.7-0.3-2.5c-2.3-5.9-4.7-11.7-7.4-17.4c-2.3-4.8-4.9-9.3-8.3-13.5c-0.5-0.6-0.9-1.4-2-1.5
		c3.5,5.4,6.8,10.7,9.7,16.4c2.8,5.7,5.4,11.5,7.1,18.3c-1.6-1-2.7-1.8-3.9-2.4c-6.5-3.7-10.6-9.3-13-16.3c-1.8-5.1-2.9-10.3-4-15.5
		c-0.2-1.1-0.6-2.3-0.4-3.6c0.9,0.4,1,1.3,1.4,2c2.1,4,3.6,8.2,5.2,12.4c1.4,3.7,2.8,7.5,4.3,11.2c0.9,2.1,2,4.1,3.8,5.8
		c0.3-0.8-0.1-1.3-0.3-1.8c-1.6-4-3.3-8-4.9-12c-3.9-9.6-7.9-19.2-12.5-28.5c-0.3-0.6-0.6-1.3-1.1-1.9c-0.2-0.3-0.4,1-0.9,0.2
		c-0.3-0.5-0.5-1-0.8-1.5c-1.7-2.8-3.3-5.6-5.1-8.4c-4.7-7.3-8.2-15.2-12.1-22.9c-0.1-0.2-0.2-0.4-0.3-0.7c-0.1-0.5-0.7-0.9,0-1.6
		c5.3,6.4,10.7,12.7,14.2,20.5c0.4-0.5,0.2-0.9,0-1.3c-0.9-2.7-2.3-5.1-3.8-7.5c-2.2-3.5-4.8-6.8-7.4-10c-2.7-3.5-5.4-7-7.5-10.9
		c-0.3-0.5-0.9-1-0.4-1.9c2.4,2.9,4.7,5.7,7,8.5c0.1-1.3-0.5-2.4-1.1-3.3c-2.4-3.9-5.5-7-9.3-9.6c-0.6-0.4-1.6-0.5-1.4-1.5
		c0.7,0.4,1.5,0.8,2.5,0.5c-2.1-2.7-4.6-5-6.8-8c2-0.1,3.1,0.7,4.1,1.6c1.1,1,1.9,2.2,2.7,3.3c1.1,1.5,2.2,2.9,3.8,3.9
		c0.7,0.4,1.4,1,2.5,0.6c-1.3-1.2-2.5-2.2-3.6-3.2c0.2-0.6,0.9-0.6,1-1.2c-1.2-1.1-2.9-2-3.6-3.9c1.4,0,2.4,1,4,0.9
		c-2.4-2-4.6-3.7-6.8-5.5c0.1-0.2,0.2-0.3,0.4-0.5c6.2,2.6,12,5.9,16.7,11.1c-1.4-5.3-1.8-11-6.9-14.6c3.5,0.4,6.2,2.5,9.5,4.4
		c-0.4-1-0.9-1.4-1.3-1.8c-2-1.8-4.2-3.1-6.6-4.3c-3.3-1.6-6.7-2.6-10.1-3.7c-0.6-0.2-1.3-0.3-2-1c3.1,0.4,6,1.2,8.9,1.9
		c-0.3-0.9-1.2-1-1.5-1.6c0.3-0.7,1.4-0.2,1.6-1.2c-2.4-1.7-4.8-3.2-7.6-4c-4.1-1.1-8.4-1.3-12.6-1.5c-0.5,0-1,0.1-1.4,0.3
		c-1.5,0.6-2.8,0.2-4-0.8c0,0,0,0,0,0c-1.6-2.4-4.2-3.6-6.7-5c2.9,0.4,5.3,2.5,8.3,2.5c0.2-0.3,0.1-0.6-0.1-0.7
		c-0.3-0.3-0.7-0.7-1-1c-5.6-4.2-11.7-6.8-18.7-7.2c-6.6-0.4-12.9,1-18.9,3.7c-2.2,1-4.1,1.1-6.4,0c-7.1-3.4-14.2-3.4-21,0.8
		c-0.8,0.5-1.4,0.5-2.1-0.1c-1.8-1.4-3.7-2.6-5.6-3.7c-9.3-5.3-19.2-6.9-29.6-4c-9.8,2.7-17.7,8.3-24.3,15.9
		c-4.1,4.7-7.4,9.8-10.5,15.2c-4.4,7.6-9.6,14.5-16.4,20.1c-0.2,0.2-0.7,0.4-0.5,0.9c0.8-0.4,1.6-0.7,2.4-1.1
		c-1.5,2-3.5,3.2-5.6,4.1c-2.2,1-4.3,2-6.5,2.9c5.5-0.5,9.9-3.4,14.3-6.4c-0.1,0.8-0.3,1.4-0.6,2.1c-1.2,3-2.5,6-3.7,9.1
		c-0.9,2.4-1.5,4.9-2.1,7.4c-0.3,1.2,0.5,1.1,1.3,1.1c-0.4,2.4-0.8,4.8-1.2,7.2c1.3-1.2,2.3-2.5,3.9-3.5c-2-2-1.4-4-0.3-6
		c0.4-0.8,0.7-1.8,1.1-2.7c3.2-7.9,6.1-16,9.6-23.8c4.2-9.4,9.4-18.2,16.4-25.8c4.4-4.8,9.2-9.1,14.8-12.4
		c7.6-4.4,15.7-5.8,24.2-3.3c6.9,2,12.7,5.9,17.7,11c3,3,4.7,6.7,5,10.9c0.5,6.3-0.2,12.6-0.5,19c-0.8-0.6-0.7-1.3-0.8-1.8
		c-0.2-1.6-0.4-3.2-0.6-4.8c-0.8-5.2-1.9-10.4-4.3-15.2c-2.4-4.8-6-8.2-10.9-10.3c-0.4-0.2-0.8-0.6-1.5-0.2c2,1.8,3.9,3.6,5.8,5.3
		c3.6,3.2,5.3,7.3,5.5,12.1c0.1,1.3,0.1,2.6,0.2,3.8c0.1,0.6-0.1,1.3,0.4,1.8c0.7-0.8,0-2,1.1-3.1c-0.3,5.3-0.6,10.2-0.9,15.2
		c0.2,0,0.3,0,0.5,0.1c0.3-1.4,0.6-2.8,0.9-4.4c0.6,0.5,0.6,1,0.7,1.4c0.6,3.1,0.4,6.2,0.4,9.3c0,3.2,0.2,6.4,1,9.5
		c0.3,1.2,0.6,2.4,1.6,3.6c-0.3-5-2.7-9.7-1-14.6c1.4,5.5,1.8,11.1,3.3,17c0.5-1.1,0.3-1.6,0.3-2.2c0-0.5-0.1-1,0-1.4
		c0.3-1.2,0.6,1.3,0.9,0c0.1-0.4,0-1-0.1-1.4c-0.6-4.6-0.6-9.3,0.2-13.9c0.4-2.5,0.9-4.9,2.2-7.1c0.4,8.3,0.3,16.6,1.7,24.9
		c0.6-0.6,0-1.5,0.7-1.9c0.5,0.1,0.5,0.9,1,1.1c0.2-1.3-0.6-2.4-0.1-3.9c2.2,4.7,4.2,9.2,7.3,13c3.1,4,7.1,6.8,12.1,8.5
		c-1.2,0.7-2.3,0-3,1.1c0.1,0.9,1.5,0.6,1.6,1.6c-1.6,0.1-3.1-0.7-5-0.2c4,2.1,8.1,1.9,12,2.4c-0.3,1.8-0.3,3.4-1.2,5
		c1.6-0.1,2.5-0.8,3.6-1.3c1.2-0.5,1.5-0.3,1.7,1.1c0.2,2.1,0.2,2.1,2,2.5c0,0.6-0.9,0.8-0.9,1.6c0.8-0.2,1.5-0.4,2.3-0.6
		c0,0,0.1,0.1,0.2,0.1c0.2,0.6-0.7,1.1-0.1,1.7c0.6,0,1-0.6,1.7-0.4c-0.4,2.5-1.5,4.9-1.8,7.7c1-0.7,1.2-1.7,1.6-2.5
		c0.4-0.7,0.6-1.7,1.6-1.6c0.8,0.1,0.8,1.1,0.9,1.8c0.4,1.7,0.6,3.5,0.6,5.2c0,0.2,0,0.5,0.3,0.5c0.7-0.2,0.5-1.4,1.4-1.4
		c1.3,2.3,1.4,5.2,3.7,7.1c0.5-0.6,0.3-1.5,1.1-1.8c1.2,4,2.4,7.8,3.7,11.8c0.9-1.1,0.7-2.1,0.6-3c-0.2-1.5-0.6-3-1.1-4.4
		c-0.6-1.6-1.2-3.3-1.4-5.1c0-0.5-0.3-1.1,0.5-1.4c2.3,6,3.5,12.7,8.2,17.9c0.5-1.6-0.4-2.8-0.1-4.4c2.5,3.9,3.2,8.1,3.9,12.3
		c0.6-3.4,0.3-5.7-1-8.9c-1.1-2.7-2.7-5.1-4.2-7.5c-1.3-2-2.5-4.1-3.4-6.3c-0.2-0.6-0.6-1.1-0.1-1.8c1.1,0.4,1.1,1.9,2.3,2.1
		c-0.1-0.7-0.8-1.4-0.3-2.3c2.3,1.7,4,4.2,6.8,5.2c0.1-0.2,0.3-0.3,0.4-0.5c-1.4-1.4-2.9-2.8-4.3-4.1c2.8,1,5.4,2.7,8.3,3.5
		c-3.2-2.7-7.4-3.9-9.4-8c1.4,0.5,2.6,1.3,3.8,2c1.2,0.7,2.3,1.6,3.7,1.8c-2.1-2-4.7-3.3-6.5-5.7c1.8,0.7,3.5,1.6,5.2,2.4
		c1.7,0.7,3.2,1.9,5.2,2.1c-0.3-1-1-1-1.6-1.3c-1.1-0.6-2.1-1.1-3.2-1.6c-0.6-0.3-0.7-0.8-0.4-1.4c0.3-0.6,0.8-0.3,1.2-0.2
		c1.2,0.4,2.4,0.9,3.6,1.3c1.1,0.4,2.3,0.5,4,0.1c-2.2-0.7-4.1-0.9-5.9-2.2c4.2-0.1,8.1-1.5,11.8,0.8c0.2,0.1,0.5,0.1,0.6-0.1
		c0.1-0.2,0.2-0.5,0.1-0.6c-0.3-0.7-0.6-1.3-1.2-2.2c3.8,1.2,6.3,3.2,8.2,6.7c-1.1-0.4-1.7-0.6-2.4-0.8c-0.5-0.1-1,0-1.2,0.5
		c-0.2,0.5,0.4,0.7,0.7,0.8c2.6,1.7,3.7,4.3,4.2,7.2c0.2,0.8,0.2,1.6-0.9,1.9c-0.8,0.2-1,0.6-0.8,1.4c1.9,6.5,1.2,13-0.1,19.5
		c-1,5.2-2.3,10.3-2.7,15.6c0,0.4-0.1,0.8-0.6,0.9c-0.5-0.5-0.1-1.3-0.5-1.8c0.1,12.1-1.1,24-2.9,35.8c-0.4,2.7-1.9,5-1.6,7.9
		c0.3,2.8,0.1,5.6,0.1,8.4c-0.1,8.2-0.8,16.5-0.8,24.7c0,15.9,5.4,29.7,16.4,41.2c3.8,3.9,7.9,7.5,12.3,10.6c3.8,2.7,7.3,5.7,10.6,9
		c5.2,5.1,9.8,10.8,14.4,16.4c1.6,2,3.6,3.8,3.5,6.8c3.2-0.8,4.9-3.6,8-5c-0.7,2.1-1.7,3.3-3,4.3c-1.3,1-2.9,1.3-4.8,2
		c0.9,0,1.3,0,1.8,0c3.1,0.1,4.5,1.4,4.9,4.5c0.1,1,0.2,2.1,0.2,3.1c-0.1,8.3-0.8,16.6-2.4,24.8c-1.7,9.2-4.3,18.2-6.7,27.2
		c-0.5,2-1.3,4-1.5,6c-0.2,1.6-0.6,2.9-1.3,4.3c-9.2,18.8-12.1,38.6-9,59.3c0.4,2.4,1,4.8,0.9,7.3c-1.5-4-2.3-8.1-3.2-12.2
		c-0.9-4.1-1-8.4-1.7-12.5c-0.1,5.6,0.4,11.2,1.5,16.7c1.2,6.1,3.1,12.1,5.3,17.9c0.8,2,1,3,0.8,4.6c-3.4-7.7-5.9-15.4-7.3-23.4
		c-0.1-0.7-0.1-1.5-0.6-2c-0.7-0.8-0.8-1.7-0.9-2.7c-1.5-10.5-0.7-20.9,1.2-31.3c0.7-4.1,1.7-8.1,2.6-12.6c-0.4,0.6-0.6,0.8-0.7,1.1
		c-0.4,1.2-0.8,2.4-1.1,3.7c-2.2,8.8-3.3,17.7-3.8,26.8c-0.4,7.8,0.7,15.5,2.2,23.1c1.9,10.2,2.6,20.5,2,30.8
		c-0.1,2.7-1,5.8-1.3,8.5c-0.1,0.9-22.2-0.2-22.2-0.1c0.1,1.4-2.2,2.1-2.1,3.4c0.2-0.2,23.3,0.7,23.8,0.7c4.7,0,9.4,0,14.2,0
		c1.6,0,2,0.4,2.4,2.1c0.4,1.6,0.7,3.3,1,4.9c0.9,4.8,1.7,9.7,1,14.5c-0.8,5.5-1.4,10.9-2.1,16.4c-0.1,0.9-0.3,1.8,0,2.8
		c0.8-0.6,1-1.3,1.3-1.9c2.4-4.6,4.1-9.5,5.3-14.6c1.5-6.7,2-13.6,2.4-20.5c0-0.7-0.2-1.5,0.5-2.4c1.7,3.7,0.8,7.5,1.6,11.1
		c0.7-0.7,0.7-1.4,0.8-2.1c0.9-4.7,0.3-9.4-0.3-14.1c-0.8-5.6-1.6-11.2-1.2-16.9c0.1-1.2,0.1-2.3,0.7-3.5c0.5,0.7,0.6,1.4,0.7,2.1
		c1.1,4.4,1.9,8.9,3.2,13.3c1.1,3.7,0.9,7.4,0,11.2c-0.1,0.4-0.1,1-0.8,1c0-1.7,0-3.4,0-5.1c0-1.7,0-3.3,0-5c-0.8,6-1.9,11.9-0.8,18
		c1.1-3.5,2.1-7,3.2-10.5c0.7,13.8,0.1,27.4-0.7,41.1c4-5.6,6.9-11.7,9.2-18.1c2.3-6.4,3.8-13,5.4-20c0.6,1.7,0.7,3.1,0.9,4.4
		c0.3,2.4,0.4,4.9,1.8,6.9c1.1,1.5,1.3,3.2,1.5,4.9c0.3,4.1,0.7,8.3,1.1,12.4c0.3-7.9,0-15.9,0.7-23.8c-1.1,2-1,4.3-2.2,6.7
		c-0.4-7.8-0.1-15.1,0.6-22.3c0.8-7.4,1.6-14.8,2.4-22.2c0.2-1.6-0.3-3.1,0.1-4.8c1.2-5.8,2.2-11.6,3.3-17.4
		c0.8-4.3,1.2-8.7,1.8-13.1c0.4,0.2,0.4,0.5,0.5,0.8c0.1,0.6,0.3,1.2,0.4,1.9c0.9,5.8,0.7,11.7-0.2,17.4c-1,6.9-2.3,13.7-3.3,20.6
		c-0.6,3.9-1,7.9-0.6,12c0.5-0.5,0.3-1,0.4-1.5c0.4-3.7,0.8-7.5,1.3-11.2c1.1-8.2,3-16.4,3.8-24.6c0.6-5.9,0.8-11.8-0.1-17.7
		c-1.4-9.5-2.3-19-1.1-28.7c0.7-5.3,1.6-10.4,4.8-14.9c0.7-1,1.1-2.1,1.7-3.2c0.2-0.4,0.1-1,1-0.9c0.3,3.1,0.2,6.2,0.1,9.3
		c-0.1,6.2-0.8,12.4-1.7,18.6c-0.1,0.8-0.6,1.8,0.1,2.2c0.8,0.5,0.7,1.2,0.8,1.8c0.8,6.3,3,12,6.9,17.2c2.8,3.7,4.7,7.8,6.1,12.2
		c2.4,7.4,3,15,2.5,22.7c0,0.7-0.4,1.4,0.2,2.3c2-6.5,0.6-12.8,0.1-19.1c0.5,0.1,0.4,0.4,0.5,0.6c0.1,0.4,0.3,0.7,0.4,1.1
		c2.2,8.7,1.6,17.3-1.8,25.6c-1.6,3.8-3.8,7.2-6.7,10.1c-0.7,0.7-0.8,0.7-2,1.1c8-12.7,8-12.7,7.8-15.3c-3.7,6.3-6.6,12.7-11.1,18.3
		c7.7-4.2,14.9-9,20.4-16.1c-1.2,6.2-4,11.4-7.8,16.3c3.4-1.2,4.8-4.6,7.4-7.2c-0.4,2.8-1.1,5.1-1.6,7.5c-0.5,2.2-0.5,2.3-2.9,2.3
		c-4.7,0-9.4,0-14.2,0c-1.7,0-3.4,0-5,0c-1.1,0-1.4-0.4-1.3-1.4c0.1-0.4,0.1-0.8,0.1-1.2c1.2-7.1,4.2-13.6,7.3-20
		c0.7-1.4,1.9-2.4,3.4-2.8c1.4-0.4,1.7-0.2,2.3,1.2c0.4,0.9,0.5,2,1.3,2.8c1.2-0.6,1.3-1.6,1.4-2.6c0.9-9-0.6-17.7-4.2-26
		c-0.3-0.6-0.3-1.4-1.2-1.6c-1.6,2.3-2.4,4.8-2.9,7.6c-0.6,3.6-1.6,7.2-3.1,10.6c-1.7,4-3.4,7.9-5.2,11.9c-2.1,4.9-4.1,9.9-4.8,15.3
		c-0.4,2.9-0.4,5.9-2.1,8.5c-0.2,0.2-0.1,0.6-0.1,0.9c-0.8,3.6-0.6,7.3-0.2,11c0.6,4.9,1.2,9.8,0.2,14.8c-0.9,4.4-1.7,8.8-2.6,13.2
		c-0.1,0.8-0.4,1.5-0.1,2.5c0.9-1.1,1.2-2.2,1.5-3.3c3.1-12,5.8-24.1,7.7-36.3c0.4-2.4,0.4-2.4,2.9-2.4c6.2,0,12.3,0,18.5,0
		c0.6,0,1.3-0.2,2.1,0.4c-0.8,2-1.6,4.1-2.4,6.2c1.5-1.1,2.3-2.7,3.3-4.1c1.1-1.7,2.5-2.6,4.7-2.5c23.3,0.1,46.7,0.1,70,0.1
		c1.5,0,3-0.2,4.5,0.1c1,0.2,1.8,0.1,1.9-1.1C589.4,643.7,588.9,643.2,587.6,643.3z M390.1,185.1c-3.7-2-7.3-2.4-10.8-3.2
		c-2.4-0.6-4.7-1.3-6.6-3.1C376.3,177.3,386.4,180.8,390.1,185.1z M366.4,179c3.6,0.6,6.4,2.7,8.6,5.7c-3-1.7-5.9-3.4-8.9-5.2
		C366.2,179.4,366.3,179.2,366.4,179z M364.1,167c-2.2,0.4-4.4-0.1-6.6-0.6c-4.2-1.1-8.5-1.2-12.8-1c-8.9,0.5-17.3,2.9-25.1,7.1
		c-0.5,0.3-1,0.8-1.9,0.7c0.6-0.9,1.5-1.3,2.2-1.8c6.5-4.2,13.7-6.5,21.2-7.6c0.6-0.1,1.3,0.2,1.5-0.7c-2.1,0.2-4.2,0.4-6.2,0.6
		c1.4-1.1,2.9-1.2,4.5-1.4c5.1-0.4,10,0.5,14.8,1.7C358.7,164.8,361.5,165.7,364.1,167z M324.3,173.1c3.4-3.2,9.4-4.9,14-4.1
		C333.6,170.4,328.9,171.7,324.3,173.1z M325.2,181.8c-0.3,3.5-0.5,7.1-0.7,10.9C323,189.8,323.3,185.8,325.2,181.8z M336.2,179.4
		c-0.2-3.3,2.1-6.2,5-6.3c-0.6,1-1.7,1.5-2.4,2.3C337.7,176.6,336.3,177.7,336.2,179.4z M346.2,158.7c-2.9,0.6-5.9,0.8-8.8,1.5
		c-2.9,0.8-5.7,2-8.4,3.4c-2.7,1.4-5.2,3.3-7.8,4.7C327.9,160.9,336.5,158.5,346.2,158.7z M306.9,182.2c-0.4-0.9-0.2-1.3-0.1-1.8
		c0.7-2.2,1.9-4.2,3.3-6.1c2.4-3.1,5.1-5.9,8-8.6c0.6-0.5,1.2-1,1.8-1.5l-0.4-0.5c-5.3,1.8-9.2,5.3-12.7,10.1
		c0.1-1.2,0.5-1.7,0.9-2.3c2.3-3.3,5.3-6,8.9-7.9c1.5-0.8,3-1.4,4.8-1.4c1,0,1.8-0.4,2.7-0.8c0.9-0.3,1.6-0.9,3.1-1.1
		C319.6,167.2,311.8,173.2,306.9,182.2z M315.3,179c-2.5,3.5-4.2,7.4-5.6,11.4C309.9,185.8,311.8,182,315.3,179z M341.4,219.8
		c-0.4-1-0.7-2.1,0-3.2V219.8z M357.6,248.8c-1.9-0.8-2.9-1.7-3.8-3.3c0.9-0.3,1.6,0.3,2.3,0.5c2.3,0.7,4.7,1.1,7.1,0.8
		c4.6-0.4,7.9-2.8,9.8-6.9c0.8-1.7,1.3-3.6,1.5-5.6c2.5,2.8,2.9,5.6,1.2,8.5C372.2,249,364,251.7,357.6,248.8z M360.2,226.8
		c1.1,0.4,2.2,0.1,3.3,0.1c1.3,0,2,0.8,2.1,2.1c0,1.2-0.8,2.1-2.2,2.1c-0.3-0.1-0.9-0.2-1.4-0.3c-0.9-0.3-1.6-0.3-2.4,0.3
		c-0.9,0.7-2.1,0.1-2.4-0.9C356.6,228.5,358.6,226.3,360.2,226.8z M376.1,251c1.5-1.6,2.3-3.3,4.2-3c2.3,0.3,3.3,2.1,4.3,4.6
		C381.7,251.5,379.4,250.3,376.1,251z M379.3,237.1c3.7,1.2,6.6,4.7,7.2,8.8C382.7,243.6,380.1,240.4,379.3,237.1z M397.8,235.6
		c-0.2,3.3-0.5,6.5-1.9,9.6c-0.2,0.5-0.4,1-1.1,1.5c-0.8-2.6-1.6-5.2-2.4-7.9c0.6,0.3,0.9,0.5,1.5,0.8c-0.1-2.7-2.7-3.9-3.5-6.2
		c2-0.4,2.7,1.7,4.5,2c-0.5-1.1-1.3-1.8-2-2.4c-1-0.8-2.1-1.4-3.1-2.2c-0.5-0.4-2.1-0.5-0.8-1.8c0.2-0.3-0.4-0.8-0.8-1.1
		c-2.4-2.5-5.1-4.6-8.1-6.4c-0.7-0.4-1.3-0.8-2.4-1.5c2.2,0.1,3.7,1.2,5.8,1.4c-2.1-2.1-4.6-2.5-6.7-3.9h3c-1.3-1-2.8-0.9-4-1.8
		c1.4-1,3.1-0.7,4.4-1.7c-4.1,0-8.2,1-12.3,1c2.8-1.6,6-1.9,9.4-3.1c-4.9-0.8-8.6,1.3-12.6,2.1c2.7-2.8,6.6-2.8,10.3-4.3
		c-2.3-0.5-4-0.1-5.6,0.1c-1.7,0.2-3.3,1-5.5,1.6c1.2-1.8,2.8-2.6,3.9-4.2c-1.4,0.1-2.5,0.2-3.7,0.2c-0.1-0.7,0.7-0.6,0.9-1.4
		c-2.4-0.2-4.7-0.5-7,0.3c-2.3,0.9-3.1,3.3-5.3,4.9c0.9-3.2,3.2-4.7,5.7-6.8c-2.6,0.3-3.6-0.7-3.8-3c-4.1,1.7-7,4.2-8.7,8.2
		c-1,2.3-1.3,4.8-1.4,7.3c-0.1,3,0,5.9,0.2,8.9c-1.4-5.3-1.6-10.9-3.1-16.3c-1,1.1-0.3,2.4-0.7,3.8c-0.8-1.7-1.8-2.9-3.5-3.2
		c-1.2-0.2-1.6,0-1.7,1.3c-0.2,1.2,0.3,2.4,0.8,3.4c0.5,0.9,1.2,1.7,1.3,3.4c-2.5-2.6-4.1-5.4-7.6-6.8c1,2,2.6,3.2,3.4,4.7
		c-0.5,0.6-1.6-0.1-1.9,1c1.2,1.6,3.1,2.6,4.5,4.1c-0.4,0.8-1.2-0.3-1.7,0.4c0.9,1.5,2.9,2.3,3.1,4.7c-4-1-7.9-2-11.8-3
		c-0.1,0.2-0.1,0.3-0.2,0.5c1.2,0.7,2.6,1,3.9,1.4c1.3,0.5,2.7,0.9,4.1,1.4c1.4,0.5,2.8,1,4.2,1.6c-3.2,0-6.3-1.1-10-1.4
		c1.2,1.1,2.2,1.3,3.2,1.5c2,0.4,3.9,0.7,5.9,1c1.4,0.2,2.8,0.6,3.9,1.6c-0.3,0.7-0.8,0.4-1.2,0.4c-4.7-0.6-9.3-1.4-13.7-3.2
		c-8.9-3.6-13.7-10.4-15.5-19.6c-0.6-3-0.7-6,0.4-9c0.6-1.7,0.2-3.6,0.5-5.5c0.9-6.4,4-11.6,9-15.6c0.2-0.1,0.4-0.3,0.6-0.4
		c0.1,0,0.2,0,0.4,0.1c-0.4,2.5-0.4,5.1-0.4,7.7c0.1,5,1,9.8,3.1,14.4c1,2.1,2.2,4.1,3.9,5.7c1,0.9,2,1.8,3.4,2.1
		c0.5-0.8,0.3-1.5-0.1-2.1c-0.9-1.3-1.3-2.9-2.7-3.9c-0.4-0.3-0.6-0.8-0.8-1.2c-2.6-7.4-2.9-14.9,0.1-22.3c0.1-0.3,0.3-0.5,0.5-0.8
		c0.4,0.9-0.6,1.8,0.1,2.7c1.4-1.9,1.6-4.6,4.2-5.9c-1.4,4.9-3.5,9.6-0.4,14.4c0.8-2.5,1.6-5.1,2.5-7.6c0.3-0.8,0.2-1.8,1.3-2
		c-0.5,0.8-0.3,1.6-0.4,2.9c1.7-1.8,2-3.9,3.3-5.7c0.8,1.1,1.4,1.3,2.5,0.1c1.7-1.7,3.6-1.6,6.3-0.1c-0.5,1-1.7,1.4-2.1,2.7
		c0.9-0.1,1.7-0.2,2.5-0.2c1.7,0,2,0.3,2.3,2.2c1.4-0.4,2.4-2,4.4-1.7c-1.6,2.2-4.1,3.4-4.8,6.1c1.4-1,2.7-2.2,4.2-3
		c2.4-1.4,4.9-1.7,7.6-0.6c1.2,0.5,0.4,0.9-0.1,1.4c2.2,0.8,4.6,1,6.4,2.5c-0.2,0.5-0.8,0.4-0.8,0.9c0.8,0.7,2,0.1,2.8,0.7
		c0.1,0.8-0.6,1.3-0.6,2.1c1.2,0.7,2.6,0.1,3.9,0.7c0.1,0.5-0.4,0.7-0.5,1.1c2.1,0.5,4,1.6,5.8,2.7c0.7,0.4,1.5,0.9,2.3,1.1
		c-0.5,0.3-1,0.2-1.5,0c-0.7-0.3-1.5-0.6-2.3-0.3c0,0.8,0.7,1,1.1,1.4c1.6,1.4,3.3,2.8,4.7,4.4c2.3,2.6,3.7,5.5,4.1,9
		c0.4,4.1,2,7.9,4,11.5c1.8,3.1,3.6,6.2,5.4,9.3C397.6,232.2,398,233.8,397.8,235.6z M398.4,234c0.9,0.3,1.2,1,1.6,1.5
		c6.5,8.2,11.3,17.3,13.3,27.8c1.3,6.7,3.2,13.3,5.7,19.7c0.1,0.3,0.3,0.6,0,1c-0.9-0.7-1.2-1.8-1.7-2.7c-2.3-4.7-4-9.6-5.3-14.6
		c-2.4-9.2-6.2-17.7-11.1-25.8C399.8,238.8,398.8,236.6,398.4,234z M415.4,424c-0.8-0.3-0.9-0.8-0.7-1.5c0.3-1.2,0.5-2.3,0.7-3.5
		c0.3-2.2,0.4-4.4-0.1-6.7c-0.4-1.7-0.3-3.5-0.5-5.2c-0.5-4.6-1.9-9.1-3.4-13.4c-1.9-5.3-4-10.6-5.2-16.2c-0.4-1.8-0.7-3.6-0.4-5.5
		c0.6,2.5,1.2,5.1,1.9,7.6c1.7,5.9,4.3,11.5,6.7,17.2c1.8,4.1,3.8,8.1,4.7,12.6c1,5,0.2,9.7-2.5,14.1
		C416.3,423.9,416.1,424.3,415.4,424z M410.8,316.1c1.5,5.8,1.5,11.7-0.4,17.4C410.2,327.6,410.9,321.9,410.8,316.1z M412.9,329.4
		c0.4-2,0.2-4.1,0.5-6.6c0.8,3.7,0.5,6.8-0.2,10c-1.4,6.2-4,12-6,18c0.3-3.4,1.4-6.7,2.5-9.9C410.9,337.1,412.2,333.3,412.9,329.4z
		 M410.8,346.1c1.8-6.6,4.1-13.2,4.5-20.5C416.1,329.6,413.5,341.3,410.8,346.1z M415.2,321.5V320
		C415.4,320.6,415.5,321,415.2,321.5z M419.7,431.7c-0.5-0.6-0.1-1.1,0.1-1.6c3-10,2.1-19.7-2.1-29.2c-1.9-4.3-3.9-8.6-5.7-12.9
		c-3.1-7.3-4.7-14.9-4.1-22.9c0.6-7.7,2.7-15.1,5.6-22.2c0.1-0.2,0.3-0.3,0.6-0.8c-1,4.7-1.9,9.2-2.8,13.6c-2.1,10-1,19.7,2.1,29.3
		c1.5,4.6,3.3,9,5.2,13.4c3,6.8,4.7,13.9,4.2,21.4C422.4,424,421.5,427.9,419.7,431.7z M426.9,440c-0.3-0.8,0.2-1.4,0.5-2
		c4.8-9.5,4.2-19.3,1.9-29.3c-1.8-7.9-4.5-15.5-7.2-23.1c-0.8-2.2-1.5-4.3-2.5-7c-0.2,1.6,0.3,2.6,0.6,3.5
		c2.2,7.1,4.5,14.2,6.6,21.3c1.9,6.2,3,12.6,2.7,19.1c-0.1,2.9-0.5,5.7-1.3,8.5c-0.1,0.5,0,1.5-1.1,0.6c-0.3-0.3-0.7,0.3-0.9,0.6
		c-0.7,1.2-1.3,2.4-2,3.5c-0.6,1.1-1.3,2.2-2.5,2.9c-0.2-1,0.1-1.7,0.3-2.5c0.6-2.6,1.2-5.1,1.8-7.7c2.7-10.1,1.3-19.8-3.1-29.1
		c-2.2-4.5-4.1-9.2-5.6-14c-4.1-14.1-3.9-28.1,0.5-42c3.5-11,2.8-21.7-1.3-32.4c-2-5.2-4.5-10.1-7.2-14.9c-1-1.8-1.9-3.6-2.4-5.9
		c1.1,0.4,1.6,1.1,2.2,1.7c6.2,6.4,9.9,14.1,11.6,22.7c1.1,5.8,1.4,11.7,1.1,17.7c-0.9,20.9,1.1,41.5,8,61.4c1.2,3.5,2.5,6.9,4,10.3
		c4.9,11.4,3.5,22.5-1.9,33.3C428.9,438.5,428.7,438.7,426.9,440z M433.1,600.5c-2.6-9.9-1.6-19.7,0.9-29.5
		C433.3,580.8,432,590.6,433.1,600.5z M442.3,602.8c-1.6-15.4-0.9-30.6,3.1-45.9c0.9,0.9,0.6,2,1.7,2.6c1.3-0.9,1.9-2.6,3.5-4
		C446.7,571.3,445,587.1,442.3,602.8z M470.6,520c0.2-0.3,0.3-0.7,1-1c-0.1,5.6-1.4,10.7-3.6,15.6c-1.7,3.7-3.8,7.2-6.2,10.5
		c-2.7,3.8-5.4,7.5-8.1,11.3c-0.2,0.3-0.4,0.5-0.6,0.8c-0.3,0.4-0.7,0.3-1.1,0.1c-0.3-0.2-0.4-0.5-0.2-0.8c0.2-0.4,0.3-0.7,0.5-1.1
		C458.4,543.5,464.5,531.8,470.6,520z M463,419.8c0.8,0.2,0.7,0.8,0.9,1.3c2.8,8.5,3.7,17.2,2.7,26c-2.2,19.3-3,38.7-2,58.2
		c0.2,4.5,0.6,8.9,1,13.4c0.4,3.9-0.3,7.7-2.2,11.1c-2.2,3.9-4.9,7.5-7,11.4c-0.2,0-0.4-0.1-0.5-0.1c-0.2-3.1-0.3-6.2-0.5-9.2
		c-0.3-5.7-0.6-11.5-0.8-17.2c-0.4-9.4,0.3-18.7,2.7-27.8c2.8-10.7,4.1-21.6,4.8-32.7C462.8,442.7,463.1,431.2,463,419.8z
		 M458.8,418.5c0.3,0.6,0.3,1.3,0.2,2C458.6,419.8,458.7,419.2,458.8,418.5z M455.6,407.2c1.8,3.7,2.9,7.3,3.2,11.2
		c-0.2-0.1-0.4-0.3-0.4-0.4c-0.7-3.4-1.8-6.7-2.9-10C455.4,407.8,455.5,407.6,455.6,407.2z M446.6,395c0.7-0.3,0.7,0.5,0.9,0.8
		c2.2,4.2,4.4,8.3,6.5,12.5c2.4,4.9,3.4,10.3,4,15.7c1,8.3,0.8,16.6-0.8,24.8c-0.6,2.9-1.4,5.7-2.8,8.4c-0.3,0.6-0.6,1.3-1.5,1.7
		c-0.1-2.1,0.4-4,0.7-5.8c1-6.5,2.3-13,2.9-19.7c0.8-9.7-0.2-19-4.9-27.6c-1.6-3-3-6.1-4.6-9.2C446.9,396.1,446.4,395.7,446.6,395z
		 M452.7,444.4c-0.3,2.2-0.8,4.4-1.3,6.6c-0.6,2.7-2,5-4.2,6.7c1-3.9,2.1-7.8,3.1-11.8c1.5-6.2,2.5-12.5,2.5-19
		c0-8.2-1.7-16-5.4-23.4c-0.2-0.4-0.4-0.8-0.6-1.3c0.9-0.1,1,0.6,1.3,1.1c2.6,4,4,8.5,4.8,13.2c1.2,6.3,1.6,12.7,1.4,19.1
		C454.2,438.7,453.1,441.5,452.7,444.4z M439.3,388.9c-2.3-1.9-4.9-5.7-6-9.1C436,382.2,438.3,385.9,439.3,388.9z M433.5,385.7
		c7.7,9.6,8.9,20.7,6.8,32.4C439.6,407,436.6,396.4,433.5,385.7z M440.6,444c0.2-1.3,0.5-2.6,0.8-4c-1,0-0.9,1.3-1.9,1.3
		c1.7-9,3.1-18.1,4.3-27.2c1.1,11.5,1,22.8-3.6,33.7C439.9,446.4,440.5,445.2,440.6,444z M446.6,454.7c-0.1,0.4-0.3,0.8-0.4,1.1
		c-0.1,0.1-0.2,0.1-0.5,0.3c-0.5-1.8-0.8-3.6-0.7-5.4c0-0.6,0.2-1.2,0-1.9c-1.2-4-0.7-7.9,0.1-11.8c0.5-2.1,1-4.2,0.9-6.4
		c0-0.8,0-1.7,0.5-2.3c1.1-1.2,1-2.6,1-4.1c0-4.6,0-9.1,0-13.7c0-0.8-0.1-1.5,0.3-2.5c1,1,1.4,2.2,1.7,3.3c1.2,3.5,1.7,7.2,1.8,10.8
		C451.8,433.3,450.1,444.1,446.6,454.7z M452.5,475.9c-0.5,2.5-0.9,5.1-1.4,7.6c1.7-2.9,2.6-6.1,3.5-9.2c0.9-3.1,1.6-6.2,1.9-9.4
		c0.1-0.8,0.5-1.7-0.4-2.2c-0.7-0.4-1.3,0.4-1.8,0.8c-0.2,0.2-0.5,0.4-0.7,0.6c2.1-4.1,3.9-8.3,5.4-12.7c0.9,0.3,0.7,0.9,0.7,1.4
		c0.2,2.9-0.5,5.7-0.8,8.6c-0.1,0.5-0.4,0.9-0.7,1.2c-0.4,0.3-0.6,0.8-0.6,1.3c-0.1,5.2-2,10-3.5,14.9c-1.6,5.3-3.6,10.4-4.9,15.8
		c-1.3,5.2-1.6,10.6-2.3,15.9c-0.4,2.5-0.7,5-1.1,7.8C443.7,511.7,447.7,486,452.5,475.9z M445.5,536.7c1.5-14.2,4.6-28,7.7-41.9
		c2-9.2,3.8-18.4,5.4-27.7c-3.7,26.8-7.7,53.5-13.6,79.8C444.8,543.5,445.2,540.1,445.5,536.7z M438.9,561.3c0.4,0.2,0.6,0.6,0.5,1
		c-0.1,0.8-0.3,1.6-0.5,2.3c-2.8,11.6-3.2,23.4-1.3,35.2c0.1,0.7,0.2,1.4,1.3,2.2c-1.7-9.6-1.9-18.8-0.7-28.1
		c0.7-5.2,1.8-10.4,3.7-15.3c0.5-1.3,0.8-2.6,1.9-4.1c-0.6,2.9-1,5.4-1.5,7.8c-1.8,9.4-1.9,18.9-1.6,28.4c0.1,3.8,0,7.7,0,11.5
		c0,0.9-0.2,1.8,0,2.6c0.2,0.7,0.2,1.2-0.6,1.6c-0.6,0.3-0.4,1-0.4,1.5c-0.2,2.3-0.8,4.5-1.9,6.8c-1-1.8-1.2-3.7-1.6-5.4
		c-3.4-15.4-3-30.8,1.3-46c0.2-0.5,0.3-1.1,0.5-1.6C438.2,561.5,438.4,561.1,438.9,561.3z M437.9,557.5c-0.3,3.6-1.7,6.8-3,10.1
		C435.6,564.1,436.5,560.8,437.9,557.5z M422.4,643.1c2-7,1.4-14.1,1.2-21.1c0-1.9-0.3-3.8-0.5-5.7c0-0.5-0.2-1.1,0.2-1.9
		c3.1,5.1,2.6,10.5,2.7,16.4c1.1-2.8,1.1-5.2,1.9-7.9c3.7,6.6,6.3,13.1,7.9,20.2H422.4z M447.1,641.9c0.1,0.6,0.1,1.4-0.7,1.5
		c-0.7,0.1-1.1-0.4-1.4-1.1c-0.7-1.9-0.4-7.2,0.9-9.4c0.2,1.5,0.5,3.1,0.7,4.6C446.8,639.1,447,640.5,447.1,641.9z M455.7,654.9
		c0.4,4.8-0.3,9.6-0.6,14.5C454,664.6,453.6,659.7,455.7,654.9z M455.5,678.7c-0.2-2.1,0.8-3.4,0.6-5c2-2.4,2.9-5.4,4-8.3
		c1.1-3.2,1.8-6.5,2.4-9.8c0.7-3.3,1.6-6.6,3.2-9.7C463.4,657,460.8,668,455.5,678.7z M489,557.8c0.5,3.7,0.7,7.4,1.1,11.2
		C488.2,565.4,487.9,561.6,489,557.8z M501.5,584c-0.5,0.3-0.9-0.2-1.2-0.4c-1.7-1.2-3.1-2.8-4.1-4.6c-3.7-6.2-5.7-13-5.3-20.3
		c0.1-1.5,0.3-2.9,0.9-4.2c1.7-3.4,3.5-6.8,5.2-10.3c0.1-0.2,0.3-0.4,0.6-0.4c-0.1,2.1-0.8,4.2-1.2,6.3c-0.8,4.2-1.6,8.3-1.9,12.5
		c-0.4,4.2,0.1,8.3,1.6,12.2c0.4,1,0.9,2,1.8,2.9c-3.3-8.5-3.2-17-0.2-25.5c-0.1,1.4-0.2,2.8-0.3,4.2c-0.6,8.7,0.1,17.2,4.1,25.2
		c0.1,0.2,0.2,0.4,0.3,0.7C501.9,583,502,583.6,501.5,584z M495.4,593.6c2.8,5.6,4,11.5,4,17.7C497.8,605.4,495.2,599.8,495.4,593.6
		z M518.7,625c-0.2,3.4-0.8,6.7-1.9,9.8c-0.3,0.7-0.5,1.5-1.3,2.5c0.4-2.6,0.8-4.8,1.1-7c0.9-6.3,1-12.6-0.2-18.8
		c-0.8-4.1-2.2-8-3.9-11.8c-1.4-3.2-3-6.4-4.4-9.6c-0.3-0.7-0.6-1.4-0.9-2.2c3.6,4.3,6,9.1,7.9,14.3
		C517.7,609.5,519.1,617.1,518.7,625z M539.3,613.5c-0.7-0.2-0.9-0.5-0.8-1.2c0.8-5.2,1-10.4,0.7-15.7c0.8,0.2,0.7,0.8,0.8,1.2
		c1,3.8,1.9,7.7,2.9,11.6c0.1,0.3,0.1,0.6,0.2,0.9C543.4,613,541.9,614.3,539.3,613.5z M523.7,535.8c2.3,12.1,4.3,24,10.5,34.7
		c0.5-0.7,0-1.2-0.2-1.7c-0.9-2.4-1.7-4.8-2.7-7.2c-3.4-7.6-4.7-15.7-6.1-23.8c-0.5-2.8-0.3-5.5,0.4-8.3c0.6,0.4,0.6,0.9,0.6,1.3
		c1,7.4,3.8,14.1,7.6,20.5c4.8,8.2,9.2,16.6,12.4,25.6c2.2,6.3,3.8,12.7,4.9,19.2c0.2-4.1-0.6-8-1.3-12.6c1.2,2,1.5,3.8,1.9,5.6
		c1.6,7.1,2,14.2,1,21.4c-0.3,2.1-0.6,2.6-2,2.8c-1.9,0.4-2.5,0-2.3-2c1-9.7-1-18.9-4.5-27.9c-3-7.6-6.8-14.8-10.5-22.1
		c-0.6,0.6-0.1,1,0.1,1.4c1.3,3.5,3.1,6.8,4.7,10.2c3.5,7.6,6.5,15.4,8,23.8c0.9,4.9,0.8,9.9,0.7,14.8c0,0.9-0.2,1.6-1.3,1.7
		c-1.2,0.1-1.3-0.8-1.4-1.7c-2.3-13.7-5.6-27.1-12-39.5c-0.5-1-0.9-2-1.9-3c-0.1,1.2,0.5,2,0.7,3.1
		C525.4,565.9,521.4,544.9,523.7,535.8z M521.8,553.5v3.2c0.2,0.1,0.5,0.3,0.5,0.4c1.3,5.2,4,9.7,6.5,14.3
		c2.9,5.3,5.2,10.7,6.8,16.6c1.3,4.8,2,9.7,1.9,14.7c-1.6-10.1-5.8-19.2-10-28.3c-2.6-5.7-4.7-11.5-5.8-17.7
		c-0.1-1.1-0.1-2.1-0.2-3.2C521.7,553.5,521.8,553.5,521.8,553.5z M519.4,544.9c0.3,2.6,0.2,5.2,0.5,7.8c0.9,7,3.1,13.7,5.8,20.2
		c1.8,4.5,3.8,9,5.7,13.5c3.4,8,4.9,16.3,5.3,24.9c0.1,1.9-0.3,2.3-2.2,2.3c-1.1,0-1.6-0.4-1.4-1.6c1.2-9.1-0.8-17.8-3.8-26.3
		c-2.3-6.5-5.1-12.7-7.6-19.1C519,559.5,518.1,552.3,519.4,544.9z M510,556.7c0.1-0.3,0-0.7,0.4-0.8c0.8,0.4,0.5,1.6,1.4,2.2
		c0.6-2.3,1-4.7,1.9-6.8c1-2.2,1.9-4.4,2.9-6.5c0.5,0,0.6,0.2,0.6,0.4c0.2,8.5,1.9,16.8,3.6,25.1c1.6,7.9,3.2,15.8,3.9,23.8
		c0.6-5.2-0.5-10.4-0.8-15.6c1,0.1,1.1,0.8,1.4,1.3c3.3,5.2,4.9,10.9,5.7,16.9c0.7,4.6,0.7,9.2,0.9,13.9c0.1,2.2-0.6,2.8-2.6,2.8
		c-1.6,0-2-0.4-1.8-2c0.3-2.2,0.3-4.5,0.3-6.7c0-1.6,0-3.2-0.1-4.8c-0.1-1.5-0.3-3-0.5-5c-0.5,1.2-0.4,2.1-0.4,2.9
		c0,3.8,0,7.7,0,11.5c-0.1,4-0.9,4.6-4.8,4.1c-0.9-0.1-1.3-0.4-1.3-1.3c0-1.4-0.2-2.7-0.1-4.1c0.7-7.2-0.3-14.2-1.7-21.2
		c-0.3-1.6-2.1-2.4-2.2-4.2c0.7,6,2.4,11.8,2,17.9c-0.5,0.1-0.7-0.1-0.8-0.4c-3.2-8.1-6.5-16.2-8-24.8
		C508.7,569.2,508.7,562.9,510,556.7z M504.8,570c0.1-1.7,0.4-3.4,1.5-4.9c1.3,9.3,3,18.4,6.2,27.1c-0.4,0.3-0.6,0.1-0.7-0.1
		C507,585.5,504.4,578.2,504.8,570z M502.5,630.6c-0.3-1,0.3-1.6,0.6-2.2c0.6-1.6,1.4-3.2,2-4.9c0.8-2.5,1.2-5.1,0.8-7.8
		c-0.4-2.2,0.3-2.7,2.3-2.2c2.9,0.7,3.5,1.6,2.9,4.6C509.8,623.4,506.6,627.2,502.5,630.6z M510.6,643.7c0.8-4.6,1.5-9.1,2.4-13.7
		c1.8-9.1,0.6-17.8-2.7-26.3c-1.3-3.3-2.9-6.6-4.6-9.7c-0.5-0.8-1-1.7-1-2.7c0-0.4,0-0.8,0.4-1c0.4-0.1,0.8,0,1.1,0.3
		c0.3,0.4,0.6,0.8,0.8,1.2c0.5,1.9,1.5,3.5,2.4,5.2c6.2,12.6,8,25.8,5.1,39.6C513.8,639.4,512.6,641.8,510.6,643.7z"/>
	<path d="M127.9,473.6c0.6-6.7,0.3-13.4-0.5-20.1c-0.9-7.2-2-14.4-2.5-21.7c-0.2-3.3-0.2-6.6,0.1-9.8c0.1-1.1,0.2-2.2,0.3-3.2
		c-0.4-0.2-0.6,0-0.8,0.2c-3.6,4.5-7.3,8.9-10.9,13.4c-3.4,4.3-6.3,8.8-8.7,13.7c-6,12.4-11.3,25-14.5,38.5
		c-1.8,7.4-2.9,14.9-3.2,22.5c0,0.8-0.1,1.6,0.3,2.4c2.2-8.1,4.3-16.3,6.9-24.4c2.6-8.1,5.2-16.3,7.8-24.6c0.6,0.9,0.2,1.4,0,2
		c-1.3,5.3-3.3,10.5-4.5,15.9c-1.7,7.9-2.9,15.9-3.7,23.9c-1.8,17.4-6.6,34-13.4,50c-4.2,9.7-8.9,19.1-13.9,28.4
		c-4,7.5-8.1,14.9-10.9,22.9c-0.7,2.1-1.3,4.3-2,6.4c-0.2,0.8-0.5,1.5,0,2.8c1-1.9,1.2-3.7,1.8-5.3c0.7-1.7,1.3-3.5,2-5.1
		c0.7-1.8,1.6-3.5,2.4-5.2c0.8-1.7,1.6-3.3,2.5-4.9c0.9-1.6,1.7-3.2,2.6-4.9c0.9-1.6,1.7-3.1,2.8-4.6c-3.9,9.5-9.5,18.3-11,29.2
		c1-1,1.2-1.9,1.5-2.7c1.3-3.3,2.3-6.6,3.9-9.8c0.4-0.7,0.6-1.6,1.5-2c0.7-0.3,0.8-1.3,1.1-2c4.8-12,10.6-23.5,15.7-35.2
		c0.1-0.3,0.3-0.5,0.6-1c0.1,1-0.3,1.7-0.6,2.4c-3.5,9.9-7.7,19.6-12,29.3c-2.9,6.5-4.4,13.3-5.5,20.3c-0.2,1.2,0,2,1.4,2.2
		c0.5,0,0.9,0.3,1.4,0.3c2.5,0.4,3.7-0.4,4.5-2.8c0.6-1.8,0.7-3.8,1-5.6c1.1-6.1,2.8-12,5.2-17.7c0.2-0.5,0.5-1,0.5-1.9
		c-4.5,7.6-7,15.6-8.9,23.9c-0.5-2-0.1-3.9,0.3-5.8c2.6-10.9,7.3-20.8,14.1-29.6c1.3-1.7,2.7-3.3,4.8-4.2c-0.4,0.8-0.7,1.5-1.2,2.2
		c-4.1,7.4-8.2,14.8-11,22.9c-1.8,5.2-3,10.6-3.5,16.1c-0.1,0.8-0.6,1.8,0.7,2.2c1,0.3,1.9-0.2,2.5-1.4c0.2-0.4,0.3-0.7,0.4-1.1
		c1.7-6.1,4.4-11.8,7.7-17.3c2.6-4.5,5.4-8.9,8.2-13.3c0.2-0.3,0.4-0.7,1-1c-0.5,1-0.8,1.9-1.3,2.7c-2.5,4.5-5.1,9.1-7.6,13.6
		c-2.7,4.7-5.1,9.6-6.8,14.8c-0.3,0.8-0.8,1.6-0.4,2.7c1.7-0.3,2.8-1.4,3.9-2.5c1.8-1.9,3.3-4.1,4.6-6.4c4.9-8.3,8.5-17.2,11.9-26.1
		c0.5-1.4,1-2.8,1.6-4.4c0.5,0.9,0.2,1.6,0.1,2.2c-1.9,8.8-5.5,17-10.2,24.7c-2.3,3.8-4.8,7.5-7.5,11.2c-0.5,0.6-0.9,1.3-1.7,2.4
		c3.6-1.1,6.8-0.8,9.9-0.8c0.9,0,1.8-0.1,2.6-0.4c1.5-0.4,2.5-1.3,2.8-3.1c1.2-6.1,2.2-12.3,3.2-18.4c0.1-0.6,0.1-1.1,0.6-1.5l0,0
		c-0.5,5.2-1,10.5-2.1,15.7c-0.1,0.7-0.6,1.3-0.3,2.3c0.9-1.7,1.1-3.3,1.4-4.9c0.4-1.6,0.6-3.3,0.9-5c0.3-1.7,0.5-3.5,0.8-5.2
		c0.2-1.6,0.5-3.3,0.8-4.9c0.4,2.6-0.2,5.1-0.3,7.6c-0.2,3.7-0.7,7.3-1.6,10.9c-1.5,6.7-3.7,10.7-9,16.7c0.4,0.6,0.8-0.2,1.2,0
		c0.7,0.3-0.2,0.8,0.3,1.3c6.4-4.1,9.1-11,13.1-17c-0.1,2.5-1,4.7-2.1,6.8c-1.2,2.1-2.6,4-4.3,5.8c-1.7,1.8-3.5,3.4-5.5,5.4
		c1,0.3,1.4-0.1,1.8-0.3c5.1-2.7,8.6-6.8,10.9-12c2.4-5.4,3.7-11,4.8-16.8c1.2-6.8,1.9-13.6,2.9-20.4c0.4-2.5,1-4.8,1.7-7.2
		c0.1-0.3,0.2-0.6,0.6-0.7c0.3,9-1.5,17.8-2.6,26.7c0.3-0.5,0.6-1,1.1-1.9c0.1,1.9,0.1,3.4,0.2,4.9c0,0.6,0.1,1.3,0.2,1.9
		c0.1,0.6,0.2,1.1,0.2,1.7c0,1.3,0.8-0.4,1,0.3c0.5,2,0.7,4.1,0.9,6.2c0.4,4.4,0.5,8.8,0.5,13.2c0,0.8,0,1.5,0.2,2.3
		c2.2-4,1.7-8.5,2.3-13.2c1,2.9,0.9,5.4,0.7,7.9c-0.5,5.8-2.2,11.3-5.2,16.3c-1.8,3-4.2,5.6-7.1,7.7c-3.1,2.1-6.1,4.4-8.9,6.8
		c-2,1.7-3.8,3.6-5.7,6c1.8-0.1,2.8-1.2,4-1.7c-0.9,1.5-3,3.3-5.5,4.5c-0.7-1.4-0.1-2.6,0.7-3.7c1.7-2.3,3.7-4.2,5.5-6.3
		c0.6-0.6,1.3-1.1,1.7-2.2c-1-0.3-1.9-0.2-2.8-0.2c-27.3,0-54.7,0-82,0c-0.6,0-1.3,0-1.9,0c-0.9,0.1-1.3-0.3-1.3-1.2
		c0-1,0.6-1.2,1.4-1.1c0.6,0,1.3,0,1.9,0c19.2,0,38.4,0,57.6,0c0.9,0,1.7,0,2.9,0c-0.5-1.1-1.9-1.3-2-2.7c0.7,0.4,1.4,0.7,2.1,1
		c2.3,1.1,4.6,1.2,6.8-0.3c4.4-2.8,8.8-5.5,12.8-8.8c3.8-3.2,7.1-6.9,9.4-11.4c0.3-0.6,0.7-1.1,0.7-1.7c-0.1-0.2-0.2-0.2-0.4,0
		c-3.9,5.1-9.3,7.6-15.5,8.8c-2.8,0.6-5.6,1-8.7,1.4c0.2-1.3,1.1-1.7,2-1.9c1.1-0.3,2-0.9,2.6-1.9c0.8-1.2,1.9-1.9,3.1-2.6
		c2.6-1.6,4-4.3,5.8-6.6c-0.7-0.7-1.4-0.4-1.9-0.4c-19.2,0-38.4,0-57.6,0.1c-7.1,0-14.2,0.1-21.3,0.2c-1,0-1.8,0-1.7-1.4
		c0-0.6,0.2-1.1,1-1.1c0.2,0,0.5,0,0.7,0c2.7-0.2,3-0.5,3.5-3.2c0.6-3.4,1.1-6.8,1.8-10.1c2.5-12.1,6.9-23.5,14.6-33.3
		c2-2.5,4.2-5,6.8-7c-5.4,7.6-11.5,14.8-14.6,23.8c0.2-0.1,0.3-0.3,0.5-0.4c4.1-6.6,9.2-12.5,14.3-18.3c5.1-6,10.1-12,13.5-19.1
		c0.2-0.4,0.4-0.7,0.6-1c0.1-0.1,0.3-0.2,0.5-0.4c0,1.5-1,2.7-1.3,4.7c2-2.2,3.8-4,5.5-5.8c0.1,1.1-0.5,1.7-1,2.3
		c-3.6,5-7.7,9.6-11.7,14.3c-3.8,4.3-7.7,8.6-11.2,13.1c-7.7,10-13.3,21-16.6,33.2c-0.3,1.2-0.5,2.5-0.7,3.8
		c-0.1,0.8-0.2,1.6,0.4,2.7c1.5-3.7,2.6-7.1,4.6-10.2c-0.8,3.5-2.4,6.9-2.9,10.5c0.2,0.1,0.3,0.3,0.4,0.3c2.7,0.2,2.7,0.2,3.3-2.4
		c0.5-2.3,0.9-4.7,1.6-7c0.4-1.2,0.8-2.4,2-3.8c-0.5,3.8-2.3,6.8-2.3,10.1c1.4-4.5,3.1-9,5.3-13.2c2.2-4.2,4.7-8.3,7.6-12.4
		c0.1,1.2-0.5,1.8-0.9,2.5c-1.4,2.6-2.8,5.2-4.3,7.8c-2.9,5.1-4.4,10.8-6.3,16.3c-0.3,1-0.2,1.8,0.8,2.1c1,0.4,1.9-0.1,2.1-1.3
		c1.6-9.2,6.2-17.2,10.5-25.3c4.1-7.7,9-14.9,13.8-22.2c5-7.5,9.4-15.3,12.5-23.7c2.9-7.9,4.6-16,4.8-24.3c0-0.6,0.2-1.3-0.3-1.9
		c-0.8,0.7-0.5,1.8-1.1,2.5c-1-3.6,1.2-19.2,3.5-24.4c-1.3,6.3-0.8,12.6,1.1,18.7c1.9,6.1,5,11.6,8.7,17.1c0.3-1-0.2-1.6-0.5-2.1
		c-2.7-6.3-4.9-12.8-6-19.6c-1.4-8.9-0.6-17.5,2.7-25.9c0.2-0.5,0.4-1,0.6-1.6c0-0.1,0-0.1-0.1-0.5c-1.7,1.9-2.5,4.2-4,6
		c3.6-9.8,9.2-18.3,16.8-25.5c-0.7,1-1.4,1.9-2.2,2.9c-5.8,7.6-9.9,16.1-11.6,25.5c-1.6,9.2-1.7,18.3,1.8,27.2
		c0.7,1.8,1.4,3.6,2.3,5.3c2.1,4.4,2.8,9,2,13.8c-0.1,0.6-0.1,1.3-0.2,1.9c-0.6,0-0.6-0.5-0.7-0.8c-0.8-3.6-2.6-6.9-4.5-10
		c-2.3-3.7-4.8-7.4-6.4-11.8c-0.6,0.7-0.5,1.3-0.6,1.9c-0.7,14.4-4.3,28.2-9.2,41.7c-1.6,4.4-3.7,8.5-6.4,12.3
		c-2.5,3.5-5.2,6.9-7.8,10.4c-6.3,8.5-11.5,17.7-14.4,28c-0.4,1.5-0.8,2.9-1.1,4.4c-0.3,1.2,0.1,1.6,1.4,1.5c0.9,0,1.6-0.3,2-1.1
		c0.4-0.6,0.6-1.3,0.9-2c4.3-13.6,10.5-26.3,18.5-38c7.6-11.2,12.5-23.5,15.5-36.6c1-4.2,1.8-8.4,2.5-12.7c0.1-0.8,0.3-1.6,0.6-2.6
		c1.1,1.6,1.2,3.3,1.3,4.9c0.2,4.1-0.7,8.1-1.6,12.1c-1.1,4.4-2.2,8.8-3.5,13.2c-0.7,2.6-1.4,5.1-0.9,8.1c1.1-1.9,2.1-3.6,3.1-5.4
		c0.6,0.4,0.6,0.7,0.4,1c-1.7,3.5-3.1,7.2-5.2,10.5c-5.1,8.1-10.4,16.1-15,24.5c-2.9,5.3-5.6,10.8-6.9,16.8
		c-0.1,0.3-0.1,0.6-0.1,1.1c0.8-0.8,0.9-1.8,1.2-2.6c1.3-3.5,3-6.9,4.8-10.2c0.4-0.7,0.8-1.4,1.1-2.1c0.4-0.8,0.8-0.7,1.3-0.2
		c0.3-0.6,0.7-1.3,1-1.9c2.3-4.7,4.4-9.4,7.2-13.8c0.7-1.1,1.3-2.2,2.4-3.3c-0.1,1.2-0.6,1.9-1,2.7c-2.9,5.9-5.9,11.7-8.8,17.6
		c-2.8,5.8-4.8,11.9-6.3,18.1c-0.2,0.7-0.8,1.6,0.4,2c1.1,0.4,2.2,0,2.7-0.9c0.2-0.3,0.3-0.7,0.4-1.1c1.3-7.3,4.7-13.7,8.1-20.2
		c7-13.6,13.4-27.4,19.9-41.2c5.5-11.7,8.6-23.8,10.6-36.4c0.5-3.5,1.5-6.9,1.3-10.4c0-0.4,0.2-0.9-0.5-1.5c-2,6.6-3.8,13-4.6,20.3
		c-0.7-0.9-0.6-1.5-0.6-2.1c-0.8-10.3,0.4-20.4,2.4-30.5c2.5-12.3,5.9-24.4,11.3-35.8c6.1-12.8,14.1-24.3,23.4-34.9
		c1.1-1.2,2.3-2.1,4-3c-0.3,2.2-0.6,4.2-0.9,6.1c-0.8,6.4-0.3,12.8,0.3,19.1c0.8,7.9,2.1,15.9,2.1,23.9c0,2.6-0.3,5.1-0.5,7.7
		C128.5,472.9,128.5,473.4,127.9,473.6L127.9,473.6z M85,643.2c5.9,0,11.4,0,16.9,0c1.5,0,2.9-0.8,4.2-1.7c4.1-2.9,6.8-6.7,8.1-11.5
		c1-3.7,1.2-7.4,1-11.2c-0.1-2.2-1.9-3.3-3.8-2.5c-0.9,0.4-1.2,1.2-1.6,2c-1.7,3.3-3.7,6.4-6,9.2c-4.6,5.6-10.1,9.9-16.2,13.8
		C86.7,641.8,85.9,642.1,85,643.2z M66.5,559.8c-10,13.8-19.4,27.8-24.1,44.5c4.1-7.4,5.9-15.9,11.6-22.6c-1.1,3.8-3.8,6.8-4.8,10.6
		c2.9-3.4,13.6-21,14.2-23.3c-2.1,2.7-3.9,5.2-5.8,7.6C60.3,570.9,64.3,565.9,66.5,559.8z M63.7,548.8c-1.1,1.5-18.6,32-18.8,33
		c4.7-6.4,9.6-12.4,13.5-19.1c2.1-3.7,3.9-7.5,5-11.6C63.7,550.4,64.1,549.7,63.7,548.8z"/>
	<path d="M363,316.2c1,0.9,1.2,2.3,2.3,3.3c0.2-1.1-0.3-1.9,0-2.9c2.4,0.9,2.8,3.5,4.3,4.9c0.8,0,0.2-0.8,0.8-1
		c1.5,2.5,3.1,5.1,5,7.3c-0.9,1-1.5-0.1-2.4,0.1c3.5,7.8,4.9,16,6,24.4c-1,0-0.8-1.2-1.8-1.2c0.6,3.6,1.3,7.2,1.9,10.8
		c-1.6-2.1-1.9-4.6-3.4-6.7c0.6,2.7,1.1,5.5,1.9,8.1c0.8,2.8,0.8,5.4-0.6,7.9c-0.8,1.6-1.1,3.1,0.2,4.6c0.4,0.4,0.5,1.2,0.7,1.8
		c0.1,0.3,0.1,0.8-0.1,0.9c-2.1,0.6-1,2.1-0.8,3.2c0.6,3.6,1.9,6.9,3.2,10.3c1.1,3.1,2.4,6.1,3.2,9.4c-0.7,0.1-0.9-0.4-1.1-0.7
		c-7.6-9.8-14.1-20.2-18.1-32c-0.4-1.1-1-2-1.6-3c-0.7-1.2-1.2-2.5-0.3-3.8c0.6-0.9,0.1-1.5-0.4-2.1c-1.3-1.6-2.6-3.3-3-5.4
		c-0.2-1.1-1.5-2.6,0.6-3.3c0.3-0.1,0.1-0.6-0.1-0.8c-0.6-1.1-1.3-2.2-2-3.5c1.3-0.2,1.8,1.2,3,1.1c-0.1-1.1-0.9-1.8-1.3-2.7
		c-0.4-0.9-0.9-1.7-0.7-2.7c0.9-0.3,0.8,1.1,1.7,1c-0.8-3.2-1.6-6.3-2.4-9.5c0.4-0.1,0.7-0.2,1-0.3c1.1,0,1.3-0.6,1-1.6
		c-0.3-1.1-0.7-2.1-0.6-3.3c0.2-1.7,0.8-2,2.4-1.2c0.1,0.1,0.3,0.1,0.4,0.2c0,0,0.1,0,0.3-0.1c-0.3-2-2.3-3.5-1.7-5.7
		c0.5-0.3,0.8,0.1,1.1,0.3c0.6,0.5,1,0.4,1.2-0.4c0.4-1.2,0.5-2.5,0.4-3.8C363,317.5,362.6,316.9,363,316.2z"/>
	<path d="M466.4,361.7c1.2,0.7,1.6,1.9,2.1,3c5.3,11.3,8.9,23.3,11.3,35.5c2.3,12,3.4,24,3.9,36.2c0.6,13,2,26,6.1,38.5
		c2,6.2,4.6,12.1,7.9,17.7c0.4,0.7,0.7,1.6,1.6,2.1c0.2-1-0.4-1.6-0.7-2.3c-1.8-4.2-3.8-8.3-5.5-12.5c-5.3-12.5-6.9-25.5-4.9-39
		c1.2-8.2,0.9-16.4,0.4-24.7c-0.3-5.3-0.8-10.5-2.2-15.6c-0.5-2-1.2-3.9-1.6-5.9c3.5,5.8,4.5,12.3,4.9,19.1c1.1-1.1,1.1-1.1,0.9-2.5
		c-1.2-7.6-3.3-15-6.6-21.9c-0.4-0.8-0.8-1.7-1.4-2.8c0.9,0.4,1.1,1,1.4,1.4c4.1,6.1,6.3,12.8,7.7,20c1.6,8.4,2.1,17,2.5,25.5
		c0,0.9,0,1.9,0.2,2.8c0.2-5.9,0.1-11.8,0.6-17.7c0.1,1.8,0.4,3.6,0.4,5.4c-0.2,15.6,3.3,30.6,8,45.3c3.4,10.7,5.8,21.6,7.3,32.7
		c0.9,6.4,1.3,12.9,1,19.4c0,0.9,0,1.9-0.6,3.2c-0.4-2.6-0.8-4.9-1.1-7.2c-0.3-2.4-0.6-4.8-0.6-7.2c-0.1-13.8-2.7-27.2-7.9-40
		c-4.1-10.2-6.4-20.7-7.9-31.5c-0.9-6.8-1.5-13.6-2.4-20.5c0,0.9-0.1,1.9-0.1,2.8c0,6-0.2,12-0.9,18c-0.3,2.5-0.5,5.1-1.1,7.6
		c-1.9,8.6-0.8,17,2,25.2c1.7,4.9,3.8,9.6,6,14.4c4.4,9.4,8,19.2,10,29.4c0.9,4.5,1.6,8.9,1.7,14c-1.1-1.7-1.2-3.2-1.4-4.6
		c-1.3-10.9-5-21-10.5-30.4c-8.4-14.4-12.6-29.9-14.2-46.4c-0.8-8.2-1.2-16.4-2.3-24.6c-3.1-23.4-9.5-45.8-21.2-66.5
		c-0.3-0.5-0.5-1-0.8-1.5c-0.1-0.1,0-0.3,0-0.8c1.1,0.9,1.7,2,2.3,3c1.1,2,2.1,3.9,3.8,5.5c0.6,0.5,0.8,1.3,1.2,2.1
		c2.9,6.2,5.1,12.6,7.5,18.9c0.4,0.9,0.7,1.9,1.3,2.8C472.8,378.5,469.4,370.2,466.4,361.7z M495,439.1c0,0-0.1,0-0.1,0
		c0,0.1-0.1,0.3-0.1,0.4c0,0.2-0.2,0.5,0.2,0.6C495,439.8,495,439.5,495,439.1z"/>
	<path d="M404.4,222c1.9,0.4,3.6,1.2,5.3,2c7.4,3.4,13,8.9,17.4,15.7c4.5,7,7.7,14.7,10.5,22.5c1.8,5,3.5,10.1,5.3,15.2
		c0.4,1,0.7,2.1,1.6,3.3c0-2.2-0.4-4-0.7-5.8c-1.1-8.1-2.4-16.1-4.1-24.1c-2.3-11.1-8-20.1-16-27.8c-1.2-1.2-2.5-2.4-3.6-3.7
		c3.4,1.4,5.5,4.4,8.4,6.8c0.3-0.8-0.1-1.3-0.3-1.8c-3.7-10.2-11-16.6-21.4-19.6c-2.2-0.6-4.5-1.1-6.7-1.7c5-0.6,13.9,2.3,19.2,6.2
		c5.9,4.3,9,10.4,11.2,17.2c0.3-1.7,0-3.3-0.4-4.9c-2.8-11.5-10.3-18-21.6-20.7c-4.9-1.1-10-1.1-15-1.5c-1-0.1-2-0.1-3-0.3
		c2.2-0.7,4.5-0.6,6.8-0.6c6,0.1,11.8,0.9,17.3,3.2c9.3,3.8,14.9,10.7,16.7,20.6c0.9,5,2.5,9.8,5.1,14.1c4,6.7,5.9,13.9,6.9,21.5
		c1.3,10.1,2.3,20.2,4.3,30.1c0.7,3.7,1.8,7.3,3.2,10.8c0.4,1,0.8,2.1,2,3.4c-1.6-5.5-2.6-10.5-2.8-15.9c0.7,0.7,0.8,1.4,0.9,2
		c0.5,2.2,1.1,4.3,1.6,6.5c1.1,5.2,3.5,9.7,6.6,14c1.4,1.9,3,3.3,5.4,3.7c0.7,0.1,0.9,0.3,0.6,1c-0.2,0.5,0.5,0.7,0.9,1
		c0.8,0.7,1.9,1.2,2.8,2.3c-3.4-0.6-5.7-3.6-9.1-3.4c-0.4,0.8,0.3,1.1,0.6,1.5c1.8,1.9,4.1,3.4,6.3,4.8c2.2,1.4,4.4,2.7,6.5,4.1
		c1.8,1.2,3.4,2.7,4.5,4.6c-4.1-2.4-8.9-2.9-13.3-4.3c-1.4-0.4-2.9-0.9-4-2.2c3.3,0.7,6.6,1.5,9.9,2.2c0.1-0.1,0.1-0.3,0.2-0.4
		c-6.9-4.7-13.7-9.4-20.6-14c1.3,0.1,2.4,0.9,4.2,0.9c-7.2-7-11-15.3-12.5-24.9c0.9,0.8,1,1.7,1.3,2.6c1.5,4,2.9,8,4.9,11.7
		c2.2,4.2,5,7.8,9,10.4c0.7,0.5,1.4,1,2.5,1.2c-0.4-1.1-1.1-1.7-1.7-2.4c-1.1-1.2-2.2-2.4-3-3.7c-0.3-0.5-0.6-1.1-1.4-1.1
		c-0.7,0-0.8-0.7-1.1-1.1c-3.5-5.3-6.3-10.9-8.1-17c-1.8-6.2-4.6-11.9-7.4-17.7c-3-6.1-5.9-12.2-8.9-18.3
		c-4.7-9.6-11.2-17.6-20.3-23.5c-0.7-0.5-1.4-1-2.1-1.5c-0.7-0.5-1.7-1-0.7-2.2C404.8,222.9,404.1,222.5,404.4,222z"/>
	<path d="M144.1,375.6c-1.9,13.4-3.2,26.8-4.6,40.2c-0.5,5.4-1.2,10.8-1.9,16.2c0,0.2,0,0.5-0.5,0.7c0-2.3,0-4.6,0-7.2
		c-0.9,0.7-0.8,1.4-0.9,2.1c-0.6,4.8-0.9,9.7-0.9,14.6c-0.1,7.4-0.6,14.7-1.4,22c-0.8,7.5-1.3,15-2,22.4c-0.9,9.3-1.8,18.6-2.7,27.9
		c-0.6,6.2-1.4,12.4-1.6,18.6c-0.2,11.1,1.4,21.8,5,32.3c0.4,1.2,1,2.3,1,3.7c-0.5-0.3-0.6-0.7-0.8-1.1c-4.5-11-7.5-22.4-8-34.4
		c-0.3-6.5,0.6-12.9,1.5-19.3c2-13,4.2-25.9,5.9-38.9c1.3-10.4,1.9-20.8,2-31.3c0.1-11.4,1.5-22.6,3.2-33.9
		c1.7-11.2,3.8-22.4,6-33.5C143.6,376.4,143.6,375.9,144.1,375.6L144.1,375.6z"/>
	<path d="M117.8,406.3c4.3-2.5,7.4-6.1,9.9-10.3c2.7-4.5,4.5-9.3,6.2-14.2c1.3-3.7,2.5-7.4,3.8-11.1c0.3-0.9,0.7-1.8,1.2-3
		c0.1,0.6,0.2,0.9,0.1,1c-2.2,6.8-3.8,13.7-6.3,20.4c-2.1,5.6-4.9,10.8-9,15.2c-4.1,4.3-8.7,7.7-14.6,9.2c-3.6,0.9-7.3,0.9-10.9,0.1
		c-2-0.4-3.8-1.3-5-3.1c0.8-0.4,1.3,0,1.9,0.2c7.4,2.2,14.1,0.7,19.9-4.2c3.2-2.7,5.7-6,7.9-9.6c3.7-6.2,6.4-12.9,8.5-19.8
		c5.3-17.5,13.5-33.6,22.5-49.4c0.2-0.3,0.4-0.7,0.7-1.1c0.3,0.8-0.2,1.3-0.4,1.8c-2,4.7-4.5,9.2-6.9,13.7
		c-6.8,13.3-12.1,27.1-16.7,41.3c-2.7,8.3-6.6,15.9-12.6,22.4C117.9,405.9,117.9,406.2,117.8,406.3z"/>
	<path d="M39.9,554.3c-0.5-0.9,0.3-1.4,0.6-1.9c2.5-3.6,5.1-7.2,7.7-10.7c4.7-6.2,8.6-12.9,10.9-20.4c1.4-4.6,2.3-9.3,2.1-14.2
		c-0.3-6.7,1.6-12.8,5-18.4c1.7-2.8,3.6-5.5,5.4-8.2c3.9-5.8,7-12,8.8-18.8c0.8-3.1,2.3-5.9,4.3-8.5c3-3.9,6.7-6.9,11-9.3
		c-7.9,6.9-14,14.9-16.9,25.5c1-0.3,1.3-0.9,1.7-1.4c3.3-4.3,6.6-8.6,9.9-12.9c2.1-2.7,4.4-5.2,7.2-7.9c-0.2,1.3-0.8,1.8-1.3,2.4
		c-6.9,8.3-13.4,16.9-19.8,25.6c-4.1,5.4-7.8,11.1-10.7,17.3c-1.6,3.2-2.9,6.6-3.4,10.2c-0.2,1.4-0.3,2.7-0.1,4.1
		c1,8-0.7,15.4-4.2,22.5c-2,4-4.5,7.7-7.3,11.3c-3.2,4.1-6.3,8.3-9.5,12.4C41.2,553.3,40.9,554.2,39.9,554.3z"/>
	<path d="M514.5,522.8c-0.7-7-1.2-13.9-1.2-20.8c0.1-5.8,0.1-11.5,0.2-17.3c0.2-10.9-2.1-21.4-5.7-31.7c-2.5-7.2-5.1-14.5-7.6-21.7
		c-1-2.9-1.7-5.8-2-8.8c4.1,11.9,8,23.9,13,35.4c-0.1-4.3-0.8-8.4-1.9-12.5c-1.1-4.1-2.4-8-3.5-12.1c1.2,1.4,1.7,3.1,2.3,4.7
		c2,5.9,3.2,12,4.2,18.2c2.8,17.7,3.9,35.6,3.4,53.5C515.6,514.1,515.3,518.5,514.5,522.8z"/>
	<path d="M118.8,451.2c0.3,2.4,0.2,4.7,0,7c-0.8,11.8-4.2,22.9-8.2,33.9c-2.6,7.1-5.3,14.2-8,21.3c-0.1,0.4-0.3,0.7-0.5,1.1
		c-0.6-0.7,0.3-1.4,0-2c-0.3-0.3-0.4,0-0.5,0.1c-2.4,3.4-4.4,7-6.1,10.8c-2.6,5.7-5.1,11.4-5.9,17.7c-0.5,3.8-0.6,7.6-0.7,11.5
		c0,0.8-0.1,1.6-0.2,2.4c-0.7-6-0.3-11.9,0.9-17.8c1.9-9.4,5.8-18.1,10-26.6c3-6.2,6.2-12.3,9.1-18.5c4.9-10.6,7.7-21.8,9-33.4
		C117.8,456.2,118,453.7,118.8,451.2z"/>
	<path d="M115.9,397.2c0-3.6,0.7-7,1.8-10.4c2.7-8.7,6-17.2,10.4-25.2c1.8-3.3,2.7-6.6,2.5-10.3c-0.3-5.6,1.1-10.8,3.4-15.8
		c3.7-7.9,9.6-13.8,17.1-18.2c-7.5,6.4-13.9,13.6-17.1,23.2c-1.4,4.1-2.2,8.3-2.4,12.7c0.9,0,1-0.7,1.3-1.2
		c2.9-4.9,5.7-9.8,8.6-14.7c1.6-2.8,3.4-5.4,5.4-8c0.4-0.5,0.7-1,1.4-1.2c-6.9,10.8-12.7,22.1-18.5,33.4
		C123.9,373,119,384.7,115.9,397.2z"/>
	<path d="M118.7,430.8c-7.4,14.9-14.1,29.9-13.7,47c2.1-5.3,3.6-10.9,5.3-16.3c1.7-5.4,3.3-10.9,5.1-16.7c0.5,1.2,0,1.9-0.2,2.6
		c-2.3,10-4.4,20.1-7.7,29.9c-2.1,6.4-4.7,12.6-8.2,18.3c-0.5,0.7-0.9,1.5-1.4,2.2c-0.5,0-0.4-0.3-0.3-0.5c3.2-8.7,4.8-17.9,6.5-27
		c1.6-8.2,3.2-16.5,6.2-24.3c1.9-5,4.3-9.8,7.4-14.2C118.1,431.5,118.4,431.2,118.7,430.8z"/>
	<path d="M460.4,639.9c-0.4-3.5,0-6.8,0.5-10.1c0.7-5.5,2.3-10.8,3.7-16.1c0.2-0.7,0.9-1.5-0.5-1.9c-0.5-0.1-0.1-0.7,0-1.1
		c4.2-10.2,3.2-20.7,1.1-31.1c-0.6-2.9-1.2-5.8-1.8-8.7c-0.2-1-0.5-2-1.1-3c-0.8-1.4-0.4-3.2-0.1-4.9c2.2,5.1,3.4,10.5,4.4,16
		c1,5.4,1.3,10.9,1.7,17c1-2.2,1.1-4.2,1.7-6.1C470.7,595.6,462.9,636,460.4,639.9z"/>
	<path d="M457.8,631.8c-0.2-5.2,0.5-10.4,0.7-15.5c0.3-8.9,0.7-17.9-0.7-26.8c0,8,0,16,0,24c-0.2,0-0.3,0-0.5,0
		c-0.2-2.6-0.5-5.2-0.5-7.8c-0.1-9.1-0.1-18.2-0.1-27.3c0-4.2-0.5-8.4-0.8-12.6c1.1,2.9,1.6,5.9,2.1,8.9c1.9,9.6,3.1,19.2,3.2,29
		c0.1,9.1-0.8,18.2-3.1,27C458.1,631.1,458.1,631.5,457.8,631.8L457.8,631.8z M459.8,594.8c0,6,0,12.1,0,18.1
		C460.9,606.9,460.8,600.8,459.8,594.8z"/>
	<path d="M148,309.2c-0.9,1.3-1.9,2.5-2.8,3.8c-2.5,3.2-5.1,6.4-7.5,9.6c-2.6,3.5-4.7,7.2-6,11.4c-0.1,0.3-0.1,0.6-0.3,1.1
		c1-0.5,1.1-1.4,1.5-2.1c4.4-8.5,10.7-15.1,19.4-19.2c1.1-0.5,2.2-1.2,3.6-0.8c-0.1,0.8-0.7,0.9-1.2,1.1
		c-11.5,4.2-18.4,12.9-22.8,23.8c-2.1,5.3-3,10.9-3.8,16.5c-0.4,2.9-0.9,5.8-2.1,8.5c-0.1-19.9,4.5-38.1,19.7-52.3
		c0.5-0.5,1.1-1,1.6-1.4c0.1-0.1,0.3-0.2,0.4-0.2C147.8,309,147.9,309.1,148,309.2z"/>
	<path d="M103.9,425.7c-7,4.8-14,9.6-18.9,16.8c8.5-8.6,18.2-15.6,29.1-21.1c0,1-0.7,1.1-1.2,1.4c-3.4,2.1-6.8,4.2-10.2,6.3
		c-5,3.1-9.6,6.9-13.8,11.1c-1.6,1.6-2.9,3.3-3.9,5.3c5.7-5,11.7-9.5,18.2-13.3c-0.2,0.7-0.7,0.9-1.2,1.2
		c-4.5,3.2-8.8,6.6-12.7,10.6c-4,4.1-7.3,8.7-9.7,13.9c-0.2,0.4-0.4,0.8-0.7,1.4C79.6,444.9,90.3,430.6,103.9,425.7z"/>
	<path d="M497.7,403.8c0.9,0.7,1.3,1.6,1.8,2.4c7.3,11.4,12.3,23.8,15.8,36.9c4.3,16,6.4,32.3,5.8,48.8c-0.2,6.5-0.9,12.9-2.3,19.2
		c-0.1,0.3,0,0.6-0.4,0.8c-0.3-1,0-1.9,0.1-2.9c1.3-11.5,2.2-23.1,1.6-34.7c-0.6-12.6-3.6-24.8-7.8-36.7
		c-3.8-10.8-8.6-21.2-13.7-31.4C498.2,405.6,497.6,404.9,497.7,403.8z"/>
	<path d="M111.5,570c-0.2-0.4-0.1-0.8,0.1-1.2c2.3-6.9,3.2-14,3.2-21.2c0-2,0.1-4-0.1-6c-0.6-10.5,1.3-20.7,4.6-30.6
		c2.9-8.7,5.9-17.4,8.8-26.1c0.2-0.5,0.3-1.1,0.8-1.6c0.3,1.4-0.3,2.6-0.5,3.8c-0.7,3.4-1.7,6.7-3,9.8c-7.3,17.6-10.1,35.9-9.2,54.8
		c0.3,5.7-1,11.1-3.4,16.2C112.4,568.8,112.2,569.6,111.5,570z"/>
	<path d="M99.1,563.3c-1.5-6.4-0.7-12.4,0.5-18.3c1.6-8.1,4.6-15.8,7.7-23.4c2.4-5.8,4.9-11.6,7.3-17.5c4.6-11,7.8-22.3,9.2-34.1
		c0.3-2.1,0.7-4.1,1-6.1c0-0.1,0.2-0.2,0.4-0.5c0,4-0.6,7.8-1.2,11.6c-1.9,12.9-6.3,25.1-11.5,37c-3.5,7.9-6.9,15.8-9.5,24.1
		c-2.4,7.7-3.8,15.5-4.1,23.5C98.9,560.7,99.1,561.8,99.1,563.3z"/>
	<path d="M91.3,415.1c1.7,1,3.2,2.2,5,3c4.2,2,8.5,1.9,12.8,0.3c4.8-1.8,8.9-4.6,12.6-8.1c0.8-0.8,1.7-1.6,2.7-2.2
		c-5.4,8.4-12.5,14.3-23.1,14.6c-2.5,0.1-4.7-0.8-6.5-2.5C93.3,418.7,92.1,417.1,91.3,415.1z"/>
	<path d="M206,548.7c2.2,3.1,3,6.4,3.6,9.7c1.6,8.5,1.8,17.1,1.3,25.8c-0.4,7.3-1.2,14.6-3.2,21.8c-0.7,2.6-1.5,5.2-3.1,8.1
		c-0.3-1.2,0-1.9,0.1-2.6c0.1-0.8,0.2-1.6,0.3-2.4c1.3-7.1,2.6-14.3,3.9-21.4c1.2-7.1,1.7-14.3,1.2-21.5c-0.4-5.1-1.6-10.1-3.5-14.9
		C206.4,550.5,205.9,549.9,206,548.7z"/>
	<path d="M461.9,353.7c-0.8-0.3-1.1-1-1.6-1.6c-3.9-4.7-7.7-9.4-11.6-14c-6.8-8.1-11.5-17.4-13.7-27.9c-0.1-0.5-0.3-0.9,0-1.4
		c0.8,0.7,0.9,1.6,1.1,2.5c2.4,9.6,7.3,17.8,13.5,25.3c1.7,2.1,3.5,4.2,5.4,6.1c2.9,3,5,6.4,6.9,10
		C462,353.1,462.2,353.4,461.9,353.7z"/>
	<path d="M353.8,328.4c-1.3-0.8-2-1.8-2.7-2.6c-1.3-1.3-2.5-2.7-3.7-4.1c-2-2.5-4.6-4.1-8.1-5.1c1.4-0.6,2.5-0.6,3.5-0.6
		c1,0,2,0.2,3.1,0.3c-0.1-1-1.1-1.2-1.6-1.8c-0.2-0.3-0.5-0.7-0.3-1.1c0.2-0.4,0.7-0.2,1.1-0.1c2,0.7,3.7,1.9,5,3.6
		C352.4,320.2,353,324.2,353.8,328.4z"/>
	<path d="M119.4,473.9c-0.9,6.2-2.5,12-4.5,17.8c-2.2,6.5-4.9,12.8-7.4,19.2c-2.6,6.7-5,13.4-6.5,20.6c-0.9-0.5-0.6-1.2-0.6-1.8
		c0.2-2.8,1-5.5,2-8.1c3.7-9.8,7.6-19.7,11-29.6c1.8-5.2,3.4-10.5,5-15.8C118.6,475.4,118.7,474.6,119.4,473.9z"/>
	<path d="M165.1,288.2c-0.2,0.9-1.4,1-1.5,2.1c0.9,0.3,1.3-0.7,2-0.6c-1.8,2.8-21.3,18-25.5,19.8c-0.1-0.3,0.1-0.4,0.2-0.6
		c7.5-6.8,14.8-13.7,22.9-19.7c0.6-0.4,1-1,1.8-1.1L165.1,288.2z"/>
	<path d="M361.5,304.8c-1.5-1-3.2-0.2-4.6-1.4c-1.2-1.1-2.9-1.7-4.2-2.7c-2.7-1.9-5.7-2.8-9-2.7c-0.9,0-1.8,0.2-2.6-0.2
		c1.4-0.7,3.5-1,6.6-0.5c2.2,0.3,4.4,0.9,6.6,1.3c-1.7-2.3-3.5-2.8-11.3-3.5C347.6,291.9,357.8,297.1,361.5,304.8z"/>
	<path d="M48.1,563.7c-6.6,10.1-13.1,20.2-20.9,29.1C27.8,589.1,42.8,567.9,48.1,563.7z"/>
	<path d="M484.2,549.3c0,1.5,0,3,0,4.5c-0.1,5.4-0.2,10.9,0.8,16.3c0.4,2.1,1,4.2,1.7,6.2c2.3,6.7,3.6,13.7,3.4,20.8
		c-0.8-2.5-0.8-5.2-1.4-7.7c-1.5-6.3-3-12.6-4.4-18.9C482.9,563.5,482.2,556.4,484.2,549.3z"/>
	<path d="M104.5,568.3c-2-6.1-0.3-12.2,0.1-18.4c0.6,0,0.3,0.8,1,0.7c1-3,0.9-6.3,2-9.6C108.1,543,105.6,565,104.5,568.3z"/>
	<path d="M355,345.9c-3.6-4.1-5.8-9.1-11.4-10.1c0.2-0.7,0.6-0.6,0.9-0.6c0.2,0,0.5-0.1,0.8-0.1c-0.3-0.9-0.6-1.6-0.9-2.4
		C349.6,332.8,355.1,339.3,355,345.9z"/>
	<path d="M359.6,296.1c-0.9,1.2-1.7,1.4-2.7,0.8c-0.5-0.3-0.9-0.7-1.3-1c-3.6-3-7.7-5.1-12.4-5.7c-0.4,0-0.8-0.2-1.2-0.2
		c0,0-0.1-0.1-0.1-0.2c0.3-0.4,0.7-0.2,1.2-0.4c-1.5-0.5-2.9,0.1-4.5-0.3c0.7-0.9,1.6-1,2.4-1c4.3,0,8.4,0.9,11.9,3.4
		C355.1,293,357.1,294.8,359.6,296.1z"/>
	<path d="M465.7,406.8c-1-0.3-0.7-1.2-0.7-1.8c-1.3-10.2-3.3-20.2-6.8-29.8c-1-2.7-2.1-5.3-3.3-8.2c0.9,0.5,1.1,1.2,1.4,1.8
		c3.9,7.4,6.3,15.3,7.7,23.6C464.8,397.1,465.3,401.9,465.7,406.8L465.7,406.8z"/>
	<path d="M334.8,284.5c4.7-3,12.4-1.1,14.1,3.8c-4-0.9-7.9-1.4-11.8-1.5c0.9-0.3,1.9-0.6,2.8-0.9
		C338.6,284.5,338.6,284.5,334.8,284.5z"/>
	<path d="M507.4,495.5c-0.5-0.1-0.6-0.3-0.8-0.8c-2.2-8.7-5.9-16.8-9.4-25.1c-2-4.9-3.9-9.8-5.3-14.9c-0.1-0.3-0.1-0.6,0.1-1
		c0.4,1.2,0.9,2.4,1.3,3.6c2,5.5,4.4,10.9,6.8,16.4C503.2,480.9,505.9,488,507.4,495.5L507.4,495.5z"/>
	<path d="M144.1,616.8c3.2-13.3,3.6-26.8,3.9-40.3C149.1,590.2,148.4,603.7,144.1,616.8z"/>
	<path d="M239.8,293.3c1.2-5.2,3.6-9.5,6.8-13.6c-1.1,4.9-2.2,9.7-3.4,15c-1.3-1.4-0.5-2.8-1-3.8c-0.9-0.1-1,0.6-1.2,1.2
		C240.8,292.5,240.8,293.1,239.8,293.3z"/>
	<path d="M360.9,265.9c2.3,2,4.6,4,6.8,6c2.2,1.9,3.9,4.1,4.9,6.9c-1.6-1.8-2.8-3.9-5.3-5.7c1.4,2.9,2.6,5.3,2.4,8.1
		c-2.1-4.8-5.4-8.8-8.1-13.2C361.3,267.4,360.6,266.8,360.9,265.9C360.9,265.9,360.9,265.9,360.9,265.9z"/>
	<path d="M164.8,588.3c3,11.3,2.8,22.6-1,33.8C166.3,610.9,166.1,599.6,164.8,588.3z"/>
	<path d="M132.7,361.7c-4.7,9.2-9.2,18.4-12,28.3C122.2,379.5,126.4,370.1,132.7,361.7z"/>
	<path d="M407.6,586.8c-1-2-1.1-4.1-1.2-6.3c-0.2-6.2,0.6-12.3,1.6-18.3c0.4-2.2,0.8-4.4,1.7-6.5c-0.1,0.9-0.1,1.8-0.2,2.8
		c-0.9,6.2-1.7,12.5-2,18.8C407.4,580.4,407.7,583.6,407.6,586.8z"/>
	<path d="M357.4,309.3c-1.2,1.1-1.2,1.1-0.9,3.5c-4.1-4.7-8.3-8.6-14.7-9.5C346.2,302.6,353.1,305.3,357.4,309.3z"/>
	<path d="M475.5,458.9c2.1,7.1,4,24.7,3,29.3C477.5,478.5,476.5,468.7,475.5,458.9z"/>
	<path d="M261.6,174.7c7.2,0.3,12.7,8.5,11.7,14.9C272.3,181.9,266.8,178.5,261.6,174.7z"/>
	<path d="M192.6,658c0-2.5-0.5-4.9-0.9-7.3c-0.6-3.6-0.6-7.3,0-10.9c0.7-3.9,1.7-7.8,3.1-11.5c0.3-0.7,0.2-1.7,1.3-1.7l-0.1,0
		c-3.3,8.5-4.1,17.3-3.5,26.2C192.6,654.5,193.2,656.3,192.6,658C192.6,658,192.6,658,192.6,658z"/>
	<path d="M82.9,513.9c-3.1-10-3.3-19.8,0.9-29.6C81,494.1,80.7,503.9,82.9,513.9z"/>
	<path d="M55.1,538.5c0.1-0.7,0.6-1.1,1-1.6c4.9-7,9.1-14.3,10.7-22.8c0.1-0.4,0.3-0.5,0.6-0.6l0,0c-1.1,9.5-5.5,17.4-11.4,24.7
		c-0.2,0.2-0.5,0.4-0.7,0.6C55.2,538.6,55.2,538.6,55.1,538.5z"/>
	<path d="M90,559.7c-1.1-8.9,1.5-21.7,5.7-29.7c-1.5,4.7-2.9,9.4-3.9,14.2C90.9,549.2,90.4,554.2,90,559.7z"/>
	<path d="M477.9,343.7c-4.7-5-10.5-7.9-15-12.7C467.5,332.4,476.5,339.8,477.9,343.7z"/>
	<path d="M380.4,315.4c-1.6-3.8-3.2-7.5-4.8-11.5C379.2,305.2,381.7,310.9,380.4,315.4z"/>
	<path d="M392.3,424.3c5.2,3.9,10.5,7.6,15.8,11.4C401.8,433.3,396.6,429.5,392.3,424.3z"/>
	<path d="M183.6,270.1c-3.8,5.7-9.4,9.1-15.3,12C173.5,278.1,178.7,274.4,183.6,270.1z"/>
	<path d="M207,591.6c-1,6.7-2.2,13.4-4.5,19.8c-0.5,1.3-0.9,2.7-1.7,4c-0.4-0.6,0.1-1.1,0.2-1.6c2.1-6.9,3.7-13.9,5.2-20.9
		C206.4,592.4,206.3,591.8,207,591.6L207,591.6z"/>
	<path d="M347.2,391.8c0.7,1.2,1.7,1.4,2.6,1.8c0.9,0.4,1.8,0.6,2.8,1.8c-4.1-1-7.3-2.4-9.5-5.7c3.1,0.7,6.3,1.3,8.9,3.5
		C350.3,393.1,349,392,347.2,391.8z"/>
	<path d="M251.1,164.6c4-3.8,9-5.4,14.2-6.4C260.5,160.1,256,162.8,251.1,164.6z"/>
	<path d="M206,472.6c3-5.9,7.4-10.8,12.2-15.3C214.3,462.5,210.1,467.5,206,472.6z"/>
	<path d="M79.9,506.7c-2.4-6.9-0.7-13.7,1.5-20.4C80.3,493,78.8,499.7,79.9,506.7z"/>
	<path d="M405.3,219.7c5.5,3.5,12.3,4.8,16.4,10.4C417,225.5,410.2,224.1,405.3,219.7z"/>
	<path d="M113,541.4c-0.7-6.3-1.4-12.6,0.5-18.9C112.8,528.8,113.4,535.1,113,541.4z"/>
	<path d="M471.5,414.7c0.4,6.5,0.8,13,1.2,19.4C471,427.8,470.9,421.3,471.5,414.7z"/>
	<path d="M134.8,319.2c2.4-5.2,6.4-8.9,11.1-12c0.1,0.1,0.3,0.2,0.4,0.4c-1,0.9-2,1.7-3,2.6c-1,0.9-2,1.8-3,2.8c-1,1-2,2.1-2.9,3.1
		C136.5,317.1,135.7,318.2,134.8,319.2z"/>
	<path d="M273.5,459.4c-2.3,3.9-7.3,8.1-10.6,8.8C266.3,465.3,269.8,462.5,273.5,459.4z"/>
	<path d="M457.8,631.8c-0.2,1.9-0.7,3.7-1.8,5.4c0-3.6,0-7.2,0-10.9C457.1,628,456.5,630.3,457.8,631.8
		C457.8,631.8,457.8,631.8,457.8,631.8z"/>
	<path d="M349.3,314c-4-1.5-8.2-2.2-12.3-3c0.2-0.9,0.8-0.8,1.2-0.8C342.3,310.3,346.2,311.1,349.3,314L349.3,314z"/>
	<path d="M66.2,574.6c2.1-5.4,4.8-10.6,8.2-15.5c-2.6,5.2-5.1,10.5-7.7,15.7C66.5,574.8,66.3,574.7,66.2,574.6z"/>
	<path d="M374,287.5c2.6,4,5,8.1,5.8,12.9C377.6,296.2,375.7,291.9,374,287.5z"/>
	<path d="M108.1,558.9c-0.4,4.5-0.9,9-1.3,13.5c-0.2,0-0.3,0-0.5,0c-0.3-1-0.2-2.1-0.1-3.1c0.2-3.2,0.7-6.3,1.3-9.5
		C107.6,559.4,107.7,559.1,108.1,558.9L108.1,558.9z"/>
	<path d="M471.6,331.5c-4.4-0.4-8-2.3-10.7-5.9c1.7,1.1,3.4,2.2,5.2,3.2C467.9,329.8,469.8,330.6,471.6,331.5z"/>
	<path d="M308.8,343.3c0-4.1-0.3-8.3-1-12.3C309.7,335,309.9,339.1,308.8,343.3z"/>
	<path d="M471.5,616.7c-1.1,2.9-1.4,6-2.3,8.9c-0.6,2-1.1,4.1-2.3,5.9c1.2-4.7,2.5-9.5,3.7-14.2
		C470.8,616.8,471.2,616.8,471.5,616.7L471.5,616.7z"/>
	<path d="M470.9,580.4c0.2-3.5,0.5-7,0.7-10.5c0-0.7,0.1-1.4,0.2-2.1c0.3,2.1,0.2,4.1,0.1,6.2c-0.1,1.6-0.3,3.2-0.4,4.8
		C471.6,579.4,471.6,580.1,470.9,580.4L470.9,580.4z"/>
	<path d="M465.7,406.8c0,1.2,0,2.4,0,3.7C465.5,409.2,465.3,408,465.7,406.8C465.7,406.8,465.7,406.8,465.7,406.8z"/>
	<path d="M470.9,580.4c0.3,1.2,0.1,2.5,0,3.7C470.6,582.9,470.9,581.7,470.9,580.4C470.9,580.4,470.9,580.4,470.9,580.4z"/>
	<path d="M470.5,588.4c-0.3-0.7-0.2-1.3,0-2C470.7,587.1,470.6,587.7,470.5,588.4z"/>
	<path d="M67.4,513.5c-0.3-0.8-0.1-1.7,0-2.6C67.6,511.7,67.5,512.6,67.4,513.5C67.4,513.4,67.4,513.5,67.4,513.5z"/>
	<path d="M165,288c0.2-0.6,0.9-0.8,1.7-1.3c-0.4,0.9-0.9,1.3-1.5,1.4C165.1,288.2,165,288,165,288z"/>
	<path d="M191.2,423.3c0-0.8-0.1-1.6-0.2-2.8C191.5,421.8,191.4,422.5,191.2,423.3C191.2,423.3,191.2,423.3,191.2,423.3z"/>
	<path d="M127.9,473.6c0.4,0.7,0.2,1.5,0.1,2.5C127.5,475.1,127.7,474.4,127.9,473.6C127.9,473.6,127.9,473.6,127.9,473.6z"/>
	<path d="M55.3,538.7c-0.1,0.7-0.7,1.1-1.5,1.9c0.2-1.2,0.7-1.7,1.3-2.1C55.2,538.6,55.2,538.6,55.3,538.7z"/>
	<path d="M349.3,314c0.7,0,1.1,0.5,1.4,1.1C350.1,314.9,349.5,314.7,349.3,314C349.3,314,349.3,314,349.3,314z"/>
	<path d="M507.4,495.5c-0.1,0.6,0.3,1.2,0,1.8C507.1,496.7,507.2,496.1,507.4,495.5C507.4,495.5,507.4,495.5,507.4,495.5z"/>
	<path d="M108.2,559c-0.2-0.5-0.1-1.1-0.1-1.8C108.5,557.9,108.3,558.4,108.2,559C108.1,558.9,108.2,559,108.2,559z"/>
	<path d="M98.5,590.3c0-0.5,0-1.1,0-1.6c0,0,0.1,0,0.1,0C98.6,589.2,98.6,589.8,98.5,590.3C98.6,590.3,98.5,590.3,98.5,590.3z"/>
	<path d="M134.7,530.6c-0.1-0.5-0.3-1.1,0-2.1C134.8,529.5,134.8,530.1,134.7,530.6C134.6,530.7,134.7,530.6,134.7,530.6z"/>
	<path d="M471.5,616.7c-0.7-1-0.1-2.1-0.2-3.2c0,0,0,0,0,0C471.9,614.5,471.6,615.6,471.5,616.7
		C471.5,616.7,471.5,616.7,471.5,616.7z"/>
	<path d="M144.2,375.7c-0.2-0.6-0.2-1.2,0.1-2.1C144.4,374.5,144.3,375,144.2,375.7C144.1,375.6,144.2,375.7,144.2,375.7z"/>
	<path d="M135.1,553.8c0,0.3,0,0.6,0,0.9c0,0-0.1,0-0.1,0C135,554.4,135,554.1,135.1,553.8C135.1,553.8,135.1,553.8,135.1,553.8z"/>
	<path d="M281.4,542.6c-1.4-3.6-1-6.9,0.9-10c0.9,0.2-0.7,2.6,1.9,1.3C283.2,537,282.3,539.8,281.4,542.6z"/>
	<path d="M283.2,555.2c-1.7-4,0.1-7.4,2.1-10.8C285.3,548.2,283.6,551.6,283.2,555.2z"/>
	<path d="M326.1,556.2c0-0.5-0.1-1.1-0.1-1.6c0,0,0.1,0,0.1,0C326.1,555.2,326.1,555.7,326.1,556.2
		C326.1,556.2,326.1,556.2,326.1,556.2z"/>
	<path d="M515.7,551.5c0.4,3.9-0.1,7.8,1,11.6c1,3.7,2.3,7.4,3.3,11.1C516.4,568.3,513.8,558.2,515.7,551.5z"/>
	<path d="M342.8,163.1c1.3,0,2.7,0,4,0C345.4,163.1,344.1,163.5,342.8,163.1C342.7,163.1,342.8,163.1,342.8,163.1z"/>
</g>
<g>
	<path d="M405.9,615.9c-0.3-0.5-0.7-0.9-0.7-1.6c-0.1-1.4-0.2-2.8-0.3-4.2c-0.5-5.4-1.3-10.8-3.5-15.8c-2.1-4.7-5.5-8-10.6-9.2
		c-2.8-0.7-5.6-0.2-8.5,0c-4.4,0.3-8.6,0-12.7-1.8c-2.5-1.1-5.1-1.9-7.8-2.8c-8.6-2.8-17.3-4.8-26.4-4.2
		c-11.2,0.8-19.6,5.7-24.4,16.1c-0.1,0.3-0.3,0.6-0.5,0.8c1.1,0.6,2,1.4,2.6,2.5c6.3-2.2,12.8-4,19.4-5.2c-7.1,0-14,1.4-21.1,3.1
		c0.4-0.7,0.7-1.3,1-1.8c3.6-6.5,9.5-9.9,16.6-11.4c8.4-1.8,16.7-1,24.9,1.3c5.6,1.5,11.1,3.3,16.4,5.6c3.2,1.4,6.5,1.3,9.9,1.2
		c2-0.1,4.1-0.2,6.1-0.4c3.6-0.4,6.5,1.1,8.8,3.6c1.5,1.6,2.7,3.4,3.6,5.5c2.2,5,4.3,10.1,5.1,15.9c-1.8-2.1-3.4-4-5-6
		c-1.6-1.9-3-4-4.2-6.2c0.6,2.3,1.5,4.5,2.7,6.5c2,3.4,4.3,6.6,6.1,10.2c2.3,4.6,3,9.3,1.4,14.2c-0.9,2.5-2.5,4.5-4.6,6.4
		c-0.2-1-0.2-2-0.4-2.9c-0.4-2-1.4-2.8-3.4-2.8c-1,0-2.1-0.1-3.1,0.2c-0.8,0.3-1.4,0.8-1.4,1.7c0,0.7-0.3,1.4-0.6,2.1
		c-0.6,1.5-1,3.1-0.8,4.8c0.1,0.7-0.2,0.8-0.8,0.8c-2.3,0.2-4-0.8-5.4-2.4c-3.7-4.3-6.3-9.1-7.4-14.6c-0.4-1.8-0.9-3.5-1.4-5.5
		c-0.2,3.6,0.1,6.9,0.5,10.2c1,8.2,1.2,16.4,0.7,24.6c-0.1,2.6-1.7,4-3.8,5.5c0.2-0.9,0.3-1.5,0.4-2.1c0.3-1.3,0-2.4-0.9-3.3
		c-1.4-1.3-2.7-2.8-4.3-3.8c-2.1-1.3-3.3-0.9-4.2,1.3c-0.3,0.7-0.6,1.3-0.9,2c-1.3,3-1.4,3-0.5,6.2c-2.3-1-4.3-2.3-5.6-4.4
		c-1.8-3.2-2-6.8-2.2-10.3c-0.4-5.3-0.5-10.6-1.4-15.8c-0.5-2.7-1.6-5-3.3-7.2c2,4.6,0.7,9-0.6,13.4c-1.1,3.8-2.5,7.6-3.8,11.3
		c-0.9,2.8-2.9,4.7-5.3,6.5c-0.5-2-0.9-3.9-1.6-5.6c-0.4-1-0.9-2-1.6-2.9c-0.1,1.1-0.5,2.2-1,3.1c0.6,2,1,4,1.3,6
		c0.1,0.7-0.2,1.2-0.7,1.6c-1.7,1.8-3.4,3.6-5.1,5.4c-0.4,0.5-0.6,0.1-0.8-0.2c-0.5-1-1-2-1.4-3c-0.4,0.4-0.8,0.7-1.2,1
		c0.4,1,0.9,2,1.5,3c1.2,1.9,1.8,2,3.5,0.5c1.7-1.5,3.2-3.3,5.1-4.5c2.6-1.6,5.3-2.9,8.3-3.8c1.4-0.4,2.6-0.2,3.8,0.6
		c0.5,0.3,1,0.7,1.4,1.2c3.4,3.5,7.2,6.5,12.1,7.9c0.5,0.1,0.6,0.5,0.8,0.8c0.9,1.5,1.8,2.9,3.1,4.1c0.9,0.8,1.4,0.7,2-0.3
		c0.4-0.7,0.8-1.4,0.9-2.2c0.3-1.7,1.2-2.5,2.8-3.2c4.2-1.9,6.9-5.2,7.1-10.1c0.1-1.8,0.2-3.5,0.7-5.2c1-3.5,3-5.3,6.8-4.7
		c2.5,0.4,3.3,1.4,3.5,3.6c0.2,1.9,1.3,2.2,2.8,1.1c1.4-1.1,2.3-2.5,3.1-4c0.5-1,1.2-1.7,2.2-2.2c2.2-1.1,4.2-2.6,5.7-4.7
		C410.3,630.8,410.4,622.7,405.9,615.9z M371.6,658c-0.5,3.4-1.3,6.6-2.3,9.9c-0.1,0.3-0.2,0.5-0.4,0.7c-0.5-0.3-0.7-0.8-1-1.2
		c-1.4-2.4-2.8-4.8-4-7.4c-1.2-2.7-0.6-6.2,1.5-8.3c0.4-0.4,0.8-0.4,1.2-0.1c1.8,1.4,3.4,3,4.9,4.8
		C371.8,656.9,371.6,657.5,371.6,658z M393.6,646.5c-0.2-2-0.7-3.7-1.4-5.3c-0.4-1-0.4-2-0.1-3c0.4-1,0.7-2.1,0.9-3.2
		c0.1-0.7,0.5-0.9,1.2-0.9c3.3,0.1,3.3,0.1,3.7,3.2C398.5,641.2,396.5,643.9,393.6,646.5z"/>
</g>
<g>
	<path d="M309.3,660.6c-2.4-0.4-4.9-0.3-6.9,1.8c-0.8,0.9-1.7,1.6-2.8,2c-0.6,0.2-0.7,0.6-0.8,1.1c-0.5,1.4-1.1,2.7-1.9,4
		c-1.2,1.9-1.8,2-3.5,0.5c-1.7-1.5-3.2-3.3-5.1-4.5c-2.6-1.6-5.3-2.9-8.3-3.8c-1.4-0.4-2.6-0.2-3.8,0.6c-0.5,0.3-1,0.7-1.4,1.2
		c-3.4,3.5-7.2,6.5-12.1,7.9c-0.5,0.1-0.6,0.5-0.8,0.8c-0.9,1.5-1.8,2.9-3.1,4.1c-0.9,0.8-1.4,0.7-2-0.3c-0.4-0.7-0.8-1.4-0.9-2.2
		c-0.3-1.7-1.2-2.5-2.8-3.2c-4.2-1.9-6.9-5.2-7.1-10.1c-0.1-1.8-0.2-3.5-0.7-5.2c-1-3.5-3-5.3-6.8-4.7c-2.5,0.4-3.3,1.4-3.5,3.6
		c-0.2,1.9-1.3,2.2-2.8,1.1c-1.4-1.1-2.3-2.5-3.1-4c-0.5-1-1.2-1.7-2.2-2.2c-2.2-1.1-4.2-2.6-5.7-4.7c-4.7-6.2-4.8-14.3-0.3-21.1
		c0.3-0.5,0.7-0.9,0.7-1.6c0.1-1.4,0.2-2.8,0.3-4.2c0.5-5.4,1.3-10.8,3.5-15.8c2.1-4.7,5.5-8,10.6-9.2c2.8-0.7,5.6-0.2,8.5,0
		c4.4,0.3,8.6,0,12.7-1.8c2.5-1.1,5.1-1.9,7.8-2.8c8.6-2.8,17.3-4.8,26.4-4.2c11.2,0.8,19.6,5.7,24.4,16.1c0.6,1.3,1.3,1.9,2.6,2.3
		c3.9,1.2,7.6,2.9,10.4,6c8.6,9.4,11.4,20.6,10.2,33c-0.5,4.7-2.3,9-4.5,13.1c-1.7,3.2-4.3,5.9-7.9,7.2c-1.5,0.6-2.8,1.3-4.2,2
		c-3,1.7-6.1,3.3-9.5,4.2c-0.4,0.1-0.9,0.4-1.3,0c-0.4-0.4-0.1-0.9,0.1-1.3c0.6-1.9,1.6-3.5,2.6-5.5
		C312.5,661.5,310.9,660.9,309.3,660.6z M315.2,601.2c-0.4-0.7-0.7-1.3-1-1.8c-3.6-6.5-9.5-9.9-16.6-11.4c-8.4-1.8-16.7-1-24.9,1.3
		c-5.6,1.5-11.1,3.3-16.4,5.6c-3.2,1.4-6.5,1.3-9.9,1.2c-2-0.1-4.1-0.2-6.1-0.4c-3.6-0.4-6.5,1.1-8.8,3.6c-1.5,1.6-2.7,3.4-3.6,5.5
		c-2.2,5-4.3,10.1-5.1,15.9c1.8-2.1,3.4-4,5-6c1.6-1.9,3-4,4.2-6.2c-0.6,2.3-1.5,4.5-2.7,6.5c-2,3.4-4.3,6.6-6.1,10.2
		c-2.3,4.6-3,9.3-1.4,14.2c0.9,2.5,2.5,4.5,4.6,6.4c0.2-1,0.2-2,0.4-2.9c0.4-2,1.4-2.8,3.4-2.8c1,0,2.1-0.1,3.1,0.2
		c0.8,0.3,1.4,0.8,1.4,1.7c0,0.7,0.3,1.4,0.6,2.1c0.6,1.5,1,3.1,0.8,4.8c-0.1,0.7,0.2,0.8,0.8,0.8c2.3,0.2,4-0.8,5.4-2.4
		c3.7-4.3,6.3-9.1,7.4-14.6c0.4-1.8,0.9-3.5,1.4-5.5c0.2,3.6-0.1,6.9-0.5,10.2c-1,8.2-1.2,16.4-0.7,24.6c0.1,2.6,1.7,4,3.8,5.5
		c-0.2-0.9-0.3-1.5-0.4-2.1c-0.3-1.3,0-2.4,0.9-3.3c1.4-1.3,2.7-2.8,4.3-3.8c2.1-1.3,3.3-0.9,4.2,1.3c0.3,0.7,0.6,1.3,0.9,2
		c1.3,3,1.4,3,0.5,6.2c2.3-1,4.3-2.3,5.6-4.4c1.8-3.2,2-6.8,2.2-10.3c0.4-5.3,0.5-10.6,1.4-15.8c0.5-2.7,1.6-5,3.3-7.2
		c-2,4.6-0.7,9,0.6,13.4c1.1,3.8,2.5,7.6,3.8,11.3c0.9,2.8,2.9,4.7,5.3,6.5c0.5-2,0.9-3.9,1.6-5.6c0.4-1.1,0.9-2.1,1.7-3
		c1.5-1.7,3.2-1.8,4.7-0.1c1.5,1.7,2.8,3.4,4.2,5.2c0.7,0.9,1,1.9,0.9,3c0.5,0.1,0.6-0.2,0.8-0.4c1.7-1.7,2.7-3.8,3.2-6.1
		c1.1-4.9,2.4-9.8,3-14.8c0.3-2.5,0.5-4.9,0.5-7.4c0-1.4-0.5-2.6-1-3.8c-1.3-3-2.9-5.8-4.6-8.5c-0.6-1-1.3-1.8-2.4-2.3
		c-0.6-0.3-1.2-0.7-1.8-1.2c2,0.5,3.9,1.3,5.3,2.9c3.4,3.9,6.6,7.9,7.9,13.1c1.1,4.4,0.7,8.9,0,13.3c-0.5,3.1-0.9,6.2-1.3,9.4
		c-0.1,0.6-0.1,1.2,0,1.8c0.1,2.3,1.9,3.6,4.3,3.2c2.2-0.4,3.8-1.8,5.2-3.4c1.9-2.1,3.7-4.3,5.5-6.5c0.7-0.8,1.5-1.5,2.6-1.9
		c1-0.4,1.7-0.2,2.1,0.9c0.5,1.2,0.9,2.5,1.4,3.7c0.2,0.6,0.5,1.3,1.2,1.3c0.8,0,1.1-0.7,1.4-1.3c1.6-3.3,2.9-6.8,3.1-10.6
		c0.3-7.9-0.5-15.7-3.8-23.1c-1.8-4-4.2-7.6-7.6-10.5c-1.8-1.5-3.8-2.5-5.9-3.3c-8-3.1-16.2-5.6-24.7-7.1
		C301.3,598,308.1,599.5,315.2,601.2z M294.7,654.5c-0.3-0.3-0.6-0.6-1-0.9c-1.3-1.2-1.9-1.1-2.6,0.6c-1,2.4-1.4,5-1.9,7.5
		c-0.1,0.7,0.2,1.2,0.7,1.6c1.7,1.8,3.4,3.6,5.1,5.4c0.4,0.5,0.6,0.1,0.8-0.2c1.2-2.3,2.2-4.7,2.3-7.3
		C298.1,658.4,296.4,656.5,294.7,654.5z M258.9,674.8c1.4-2.4,2.8-4.8,4-7.4c1.2-2.7,0.6-6.2-1.5-8.3c-0.4-0.4-0.8-0.4-1.2-0.1
		c-1.8,1.4-3.4,3-4.9,4.8c-0.4,0.5-0.3,1.1-0.2,1.6c0.5,3.4,1.3,6.6,2.3,9.9c0.1,0.3,0.2,0.5,0.4,0.7
		C258.4,675.8,258.6,675.3,258.9,674.8z M317.5,665c3.8-2.2,7.2-4.8,10.2-8.1c1.6-1.8,1.5-3.6,0.9-5.7c-0.2-0.7-0.2-1.8-0.9-2
		c-0.8-0.2-1.3,0.8-1.8,1.4c-1.8,2.2-3.3,4.7-5.5,6.6c-1.6,1.4-2.8,3-3.8,4.8c-0.8,1.4-1.8,2.7-2.8,4.2
		C315.2,666.1,316.4,665.6,317.5,665z M234.5,648.6c0.4-1,0.4-2,0.1-3c-0.4-1-0.7-2.1-0.9-3.2c-0.1-0.7-0.5-0.9-1.2-0.9
		c-3.3,0.1-3.3,0.1-3.7,3.2c-0.5,3.9,1.4,6.6,4.3,9.2C233.3,651.9,233.8,650.3,234.5,648.6z"/>
</g>
</svg>
