<svg id="eb8f0f43-1201-4143-a214-5caee2d26c4b" data-name="Layer 1" xmlns="http://www.w3.org/2000/svg" viewBox="0 0 595.276 841.89" style="fill: #215342;" height="400" width="550" transform="translate(-95, -60)"><path d="M486.007,169.327l27.385-3.807c0-.011,0,0,0-.009a1.942,1.942,0,0,1,.779-3.791,33.461,33.461,0,0,1,5.619,1.125c9.112,2.647,17.637,1.17,25.925-2.933a15.774,15.774,0,0,1,3.078-1.246c-6.069,6.138-13.843,8.589-22.126,9.938L527,169.9l16.682-3.672.162.427-9.389,5.221.377.956,15.32-3.812c-.329.58-.669,1.178-1.008,1.777a4.89,4.89,0,0,0,1.732.25q11.483-2.769,22.939-5.647a25.768,25.768,0,0,1,4.589-1.035c-2.417,1.822-5.332,3.25-7.151,5.545a61.2,61.2,0,0,1-15.41,14.08c-.376.237-.084,1.41-.277,2.1a4.291,4.291,0,0,1-.932,1.844,83.119,83.119,0,0,1-7.639,7.318,96.141,96.141,0,0,1-8.923,5.562c5.121,1.456,16.209-2.6,27.535-9.238-3.059,2.4-6,4.962-9.207,7.147-3.31,2.258-6.875,4.145-10.327,6.2l.519,1.027,12.365-5.211.489.734c-3.535,2.194-6.967,4.581-10.633,6.528-3.822,2.03-7.936,3.5-11.8,5.453a40.3,40.3,0,0,0-19.637,21.109c-1.42,3.414-3.2,6.763-4.016,10.324a43.77,43.77,0,0,1-6.832,16.117c-.665.929-.763,2.264-1.123,3.411l1.285.689q8.681-12.782,17.362-25.561l.66.407-10.782,19.424.747.473,14.587-20.307c-3.916,15.827-15.669,27.638-16.722,43.862l21.3-14.354.624.776c-7.219,6.826-13.978,14.023-19.631,22.864,5.218-.958,9.614-2.086,14.077-2.5s8.741.749,13.429,4.091c-12.837-2.88-20.737,3.8-28.034,11.346-3.314,3.426-1.969,9.6,2.019,12.065a23.106,23.106,0,0,1,9.471,10.494L514.514,320.9l-1.072,1.089c7.853,4.59,13.635,10.413,12.626,20.3a19.519,19.519,0,0,0-9.06-12.784,15.476,15.476,0,0,0-3.129-1.074c-.165,1.057-.39,2.109-.485,3.173-.4,4.394-1.065,8.793-1.039,13.187.031,4.912.842,9.814,1.057,14.731.168,3.862-.06,7.741-.1,11.613-.053,4.914-.875,10,.151,14.68.607,2.768,4.14,4.9,6.692,7.676.295-.6.226-.153-.029.013-5.3,3.454-6.26,7.491-3.232,13.122a2.792,2.792,0,0,1-.041,2.506c-2.447,2.823-1.9,5.706-.258,8.486,1.13,1.91,1.266,3.117-.942,4.256-2.393,1.236-2.657,3.025-1.166,5.386,1.451,2.3,2.5,4.852,3.77,7.395-5.921,5.134-6.575,9.246-3.587,17.412a30.8,30.8,0,0,1,.661,19.08c-.993,3.67-.626,7.79-.318,11.662.06.757,2.644,1.786,4.114,1.877,6.826.423,13.732.076,20.491.931,7.179.908,19.6,7.567,23.058,10.877-8.584-2.486-18.349-5.134-28-8.159-10.209-3.2-20.036,1.643-30.212.8l4.115-2.217-19.634,1.747,4.309-3.007-.724-1.094-12.015,8.108,5.291,2.884-.2.774c-2,0-4.006.017-6.009,0-4.554-.047-9.107-.124-13.661-.163-2.279-.019-2.883,1-2.095,3.164a43.463,43.463,0,0,1,2.688,10.614l-5.234-7.9-1.019.405q.726,4.2,1.454,8.391l-.647.29c-.543-1.281-1.124-2.547-1.622-3.845-2.447-6.375-4.932-12.738-7.236-19.165-.314-.878.544-2.115.445-3.147a6.381,6.381,0,0,0-1.148-2.885,58.248,58.248,0,0,0-20.966-18.062,117.446,117.446,0,0,0-34.869-12.279c-3.725-.649-7.625-.3-11.445-.391a11.212,11.212,0,0,1-3.639-.442c11.791-3.119,24.235-2.531,35.868-6.338-11.545-4.013-22.484.234-33.569,2.317l-.363-1.239c3.689-1.377,7.277-3.328,11.09-4,6-1.056,12.156-1.15,18.217-1.889,1.361-.165,2.6-1.311,3.9-2.006-1.321-.69-2.593-1.853-3.969-1.992-8.739-.879-17.656-.765-26.206-2.5-6.95-1.41-13.479-4.6-20.414.6l-.531-1.892,11.008-5.862-.32-.9-11.207,2.173,11.471-6.42-.328-.823-7.3,1.857,1.126-1.6h-4.69l1.436-1.737c-.107-.192-.215-.383-.322-.574l-14.1,6.648c4.182-6.337,13.048-11.578,17.134-10.924a74.47,74.47,0,0,1-1.689-7.845,70.367,70.367,0,0,1-.064-7.9l-1.042-.151a83.708,83.708,0,0,0-.508,9.984c.133,2.238.107,2.885-2.512,3.024-2.54.134-5.018,1.629-7.5,2.586a10,10,0,0,1-4.442,1.065l3.126-4.619-3.653,1.807c0-1.314-.461-2.846.1-3.726,1-1.566,2.971-2.541,3.857-4.139.661-1.193.253-2.978.321-4.5-1.212.554-2.45,1.058-3.622,1.686a8.885,8.885,0,0,0-1.494,1.334c-.1-6.725,7.63-22.62,15.05-30.46l-4.088,8.46.619.457L373.079,369.6l-1.429,5.188a34.294,34.294,0,0,0,3.938-1.738c2.95-1.751,5.787-3.692,8.743-5.433a6.333,6.333,0,0,1,2.863-.76c3.531-.143,7.067-.154,10.428-.212-.13.818-.418,2.623-.7,4.416l11.728-3.291.3.658-8.09,5.414.5.978c.8-.1,1.612-.145,2.4-.3,1.579-.309,3.346-1.232,3.826,1.427.035.2.319.428.538.509,5.228,1.942,5.951,7.07,8.2,11.2.825,1.517,2.869,2.569,4.575,3.363,2.636,1.226,5.46,2.049,8.2,3.043l-.583,1.5c-1.516-.618-3-1.342-4.561-1.811a9.951,9.951,0,0,0-2.691-.068,8.188,8.188,0,0,0,1.42,1.935c4.566,3.392,9.4,5.957,15.421,5.435,1.01-.088,2.113,1.2,3.212,1.773.954.5,1.964.889,2.949,1.327-.182-1.162-.011-2.563-.607-3.445-2.778-4.108-5.762-8.079-8.691-12.084a3.618,3.618,0,0,1-1.026-2.089c10.3,7.681,17.615,18.078,25.159,28.234,1.691-5.64-10.708-28.018-20.6-37.538,7.573,2.7,11.377,9.691,16.67,15.066-1.88-8-8.632-12.481-12.661-19.252l8.293,5.555.7-.627a28.219,28.219,0,0,0-3.351-4.165,76.177,76.177,0,0,0-6.783-4.965,178.149,178.149,0,0,1-17.086-12.667c9.032-.423,16.891,2.449,24.113,7.439-9.222-12.333-23.951-11.237-36.842-14.784,6.29-1.018,12.437-1.949,18.551-3.061,1.054-.192,1.968-1.154,2.946-1.76a11.929,11.929,0,0,0-2.921-1.4c-11.648-2.036-23.312-3.987-35.188-6.463a79.511,79.511,0,0,1,8.552-1.283,59.919,59.919,0,0,1,8.765.474c3.007.3,5.994.8,8.99,1.218l.191-.916c-4.285-1.245-8.568-2.5-12.86-3.722-.854-.244-1.782-.259-2.609-.561a5.27,5.27,0,0,1-1.343-1.093c.481-.336.953-.945,1.446-.962,3.183-.113,6.37-.077,9.556-.135a2.723,2.723,0,0,0,2.055-.885c-17.718-3.884-34.926-2.564-51.726,5.24,3.986-4.486,7.81-9.115,13.586-11.03,4.55-1.509,9.415-2.043,14.045-3.348,11.95-3.371,23.139,1.133,34.5,3.322,3.214.62,6.057,3.091,9.112,4.631,3.949,1.992,7.939,3.9,12.05,5.589-11.594-9.9-24.441-17.81-39.122-21.98-14.981-4.255-29.78-1.282-44.642,3.9,1.843-3.552,7.168-5.931,15.172-7.365,5.6-1,11.179-2.08,16.7-3.436-16.428.168-32.7,1.23-46.524,11.475-4.549,3.371-8.54,7.5-12.958,11.154,4.2-5.3,5.883-12.843,13.79-14.942a4.753,4.753,0,0,0,1.61-1.01c10.448-8.449,22.663-11.235,35.767-11.2,1.275,0,2.551-.047,3.826-.091.375-.013.748-.09,1.184-.146-4.787-2.107-19.821-2.722-27.927-1.223a37.953,37.953,0,0,0-15.658,6.735c-4.685,3.4-10.111,5.814-14.6,9.421-4.874,3.916-9.045,8.709-13.522,13.12l1.366,1.706,11.5-7.329c-1.161,2.145-2.411,4.267-3.484,6.475-2.226,4.582-4.342,9.218-6.537,13.816-1.167,2.441-1.592,5.377-4.858,6.411-.488.154-.523,2.489-.357,3.761.186,1.422,1.328,2.828,1.208,4.164-.693,7.66,2.319,14.653,3.765,21.913.349,1.754.451,4.8,4,3.529.237-.084,1.17,1.191,1.462,1.955,1.4,3.662,2.691,7.366,4.272,11.752.524-2.039.878-3.42,1.438-5.6l2.39,6.036,2.41-3.771c1.362,2.633.266,6.666,4.575,7.42.421.073.871,3.095.43,4.467-2.171,6.764-6.893,11.71-12.648,16.986,1.49-4.926,2.727-9.013,4.243-14.022l-10.886,6.833-.8-.738q1.625-3.147,3.248-6.293l-.91-.537-12.792,19.8c-.081-11.849,1.607-23.222,8.928-33.233l-1.339-.714c-2.159,3.4-4.554,6.678-6.409,10.236s-3.159,7.38-5.361,10.994a51.291,51.291,0,0,0-.065-5.9,10.213,10.213,0,0,0-1.4-2.963c-.419.966-1.156,1.917-1.2,2.9-.149,3.4-.059,6.8-.058,10.2l-.954.293c-1.673-2.472-3.478-4.866-4.984-7.435-1.666-2.843-3.05-2.921-4.34.131-.838,1.983-1.466,4.054-2.176,6.05l-3.952-6.442-.906.434q2.166,4.535,4.333,9.071l-.758.624c-1.2-.913-2.356-1.9-3.626-2.7a10.411,10.411,0,0,0-2.384-.808c.079.942-.192,2.169.3,2.773,1.763,2.164,3.806,4.1,5.7,6.155a18.818,18.818,0,0,1,2.637,3.556c-9.481-5.6-17.024-14.214-28.252-16.846l.329-.878,10.4,2.59.488-1.115-8.59-5.642c1.155-1.288,5.235,3.524,4.2-2.49,1.414,2.133,2.6,3.924,3.787,5.716l1.019-.449c-2.09-8.272,1.126-15.975,1.911-23.932.682-6.916.142-13.953.142-20.868l2.887,1.325c.185-1.115.726-2.308.5-3.33-1.408-6.3-2.888-12.591-4.56-18.827-.743-2.774-1.988-5.412-2.454-8.411,5.16,2.563,4.747,8.922,8.293,12.515l1.024-.571q-2.376-8.589-4.751-17.179l.475-.236,2.862,3.736c4.813-12.577-29.37-47.525-45.523-45.713l6.919,3.889c-26.627-6.037-50.759,1.408-74.283,12.436l.167-.105c-10.8,5.7-21.945,7.4-33.485,2.532a17.859,17.859,0,0,1-6.415-5.227c15.907,6.081,30.628,2.97,44.823-4.943-5.779,1.173-11.529,2.529-17.346,3.466-5.766.929-11.606,1.749-17.367.444l.033-1.051,22.324-3.049.147-1.519c-11.439,3.063-20.731-1.454-29.557-7.818a42.074,42.074,0,0,0,4.686.725,7.478,7.478,0,0,0,2.419-.742,18.649,18.649,0,0,0-.846-2.321c-.837-1.624-1.763-3.2-2.652-4.8a48.273,48.273,0,0,1,5.5.673c4.707,1.107,9.359,2.451,14.07,3.541a7.368,7.368,0,0,0,4.284-.549l-5.608-1.8.145-.925h21.84l.081-1.29c-12.918-1.62-25.943-2.757-38.079-7.978q11.451,1.863,22.9,3.72a7.723,7.723,0,0,0,2.648.258,24.142,24.142,0,0,0,3.6-1.319c-.791-.895-1.419-2.082-2.4-2.634a104.439,104.439,0,0,1-11.789-7.05l5.429,1.015.311-.937c-1.778-.859-3.527-1.786-5.343-2.552-2.384-1.006-2.408-.949.029-3.114L146.1,257.468l.05-1,8.99-.468c-.389-.706-.509-1.217-.832-1.469-16.765-13.139-34.989-23.382-56.162-27.4-11.119-2.112-22.032-.671-32.852,2.6-4.126,1.246-8.653,1.158-13,1.7a12.977,12.977,0,0,0-2.981.551c-.618.234-1.065.921-1.588,1.405.5.52.9,1.258,1.511,1.517,1.5.638,3.1,1.057,5.043,1.687l-2.639,1.635a19.762,19.762,0,0,1,2.164,1.872c1.859,2.124,3.573,4.378,5.486,6.451a19.049,19.049,0,0,0,3.293,2.573c3.781,2.6,7.5,5.242,8.84,10.248l-4.561-1.5-.519.73c2.594,3.387,5.235,6.739,7.755,10.18.992,1.353,2.761,2.408,1.6,4.768-.336.683.908,2.261,1.6,3.313,4.263,6.449,8.579,12.862,12.866,19.295a1.725,1.725,0,0,1,.144,1.656l-4.407-3.891-.607.452c1.835,3.9,3.417,7.944,5.591,11.642s4.953,7.037,7.913,11.155l-4.576-2.034-.506.629,18.1,24.521-9.007-4.172-.668.888a133.883,133.883,0,0,0,22.779,19.815l-5.5-1.342-.4.938c2.844,1.826,5.681,3.66,8.534,5.471.86.546,1.978.841,2.6,1.573a22.473,22.473,0,0,1,2.116,3.6c-1.272.143-2.542.322-3.817.413a16.526,16.526,0,0,1-2.5-.367v0c2.268,1.965-1.182,6.017-4.01,1.724l-2.492.234-.472,1.11q3.3,1.694,6.607,3.389c-6.856,1.161-13.323,2.687-19.155,7.272.718.144.856.22.955.185,7.934-2.773,15.725-6.225,24.5-5.026.055.008.124-.084.2-.238a3.19,3.19,0,0,1,2.759-1.769c1.581-.055,2.609-1.1,3.57-3.146,2.968-6.333,5.719-13.03,10.035-18.39,3.8-4.716,9.373-8.164,14.565-11.556a60.935,60.935,0,0,1,31.436-9.736l-10,5.262c13.076-3.384,26.134-5.008,39.508-2.918-13.8,1.732-27.692,2.957-39.714,10.917a49.8,49.8,0,0,0-8.675,7.5c14.219-10.147,29.559-14.1,46.729-9.486-25.221,2.351-47.5,9.9-60.743,33.749,11.655-13.474,25.42-22.575,44.088-21.6a67.665,67.665,0,0,0-30.638,16.384c-1.893,1.719-2.77,4.507-4.363,6.614-6.835,9.036-12.115,18.828-14.906,29.868a3.4,3.4,0,0,0,.216,2.055c7.418-16.569,20.243-27.931,35.042-37.458a104.625,104.625,0,0,0-29.687,43.16L179.473,395.6l.371.267c-3.946,7.087-8.365,13.957-11.73,21.31s-5.663,15.22-5.189,23.687c3.822-11.837,8.836-22.946,18.585-31.414-.808,1.548-1.7,3.061-2.413,4.651-5.066,11.236-10.194,22.447-15.087,33.758a60.2,60.2,0,0,0-3.5,12.167,31.79,31.79,0,0,0,2.509-2.4c7.676-9.046,17.033-15.948,26.924-22.432,7.172-4.7,13.482-10.753,19.927-16.484.933-.83,3.5-2.808.846-4.952a19.571,19.571,0,0,1,1.175-1.63c.578-.742,1.184-1.461,1.778-2.19-1.02-.142-2.3-.749-3.018-.348-3.829,2.139-7.517,4.53-10.794,6.551,1.51-3.079,4.648-5.317,8.491-6.85,3.76-1.5,6.959-2.978,8.587-7.7,1.189-3.445-.026-2.91-1.987-3.191a7.434,7.434,0,0,1-1.217-.422l8.309-3.664-6.826-1.386.088-.873c2.523,0,5.052.094,7.568-.036a36.287,36.287,0,0,0,4.535-.788l-3.381-2.357c3.565-1.621,10.911-1.855,20.609,2.776,6.225,2.973,11.312,8.954,15.981,14.385s6.752,12.492,8.273,19.937c-4.677-1.561-8.049.685-9.667,5.235a13.033,13.033,0,0,1,1.482,1.756c-1.087,1.211-2.3,3.028-3.625,3.162-3.174.32-6.431-.175-9.654-.341l-.128,1.058,11.251,2.209c-2.143,1.388-3.263,2.63-4.57,2.873-6.57,1.223-13.037,3.782-19.9,2.125a18.275,18.275,0,0,1-14.243-17.33c-.213-5.269.516-10.576.845-16.264a25.927,25.927,0,0,0-1.9,22.361c5.7,15.932,18.744,14.46,32.094,12.312-2.737,3.465-6.241,4.749-9.852,5.53-11.2,2.42-20.838-2.575-25.964-13.337-1.2-2.529-2.118-5.2-3.177-7.794-.7-1.708-1.761-2.5-3.547-1.348-.321.207-.622.445-.93.672-7.018,5.188-14.037,10.377-20.957,15.979l5.465-1.817.328.592c-2.564,2.1-5.173,4.138-7.677,6.3-2.894,2.5-5.742,5.064-8.475,7.737-.338.331-4.167,1.616,0,2.3-.149.575-.122,1.306-.472,1.7-6.3,7.115-6.992,16.685-10.914,24.836a23.162,23.162,0,0,0-1.105,3.836l.941.458c1.812-2.7,3.378-5.609,5.508-8.025a28.8,28.8,0,0,1,7.362-5.6c-8.622,9.1-14.45,19.76-18.513,32.175-3.446-5.241,1.048-9.118.728-13.324a50.557,50.557,0,0,1-7.7.572c-.54-.031-.95-2.294-1.64-4.108l-10.247,5.219-.328-.385,4.586-3.906-12.116-2.58,5.78-2.7a26.3,26.3,0,0,0-3.709-1.367c-4.448-.809-9.411-3.129-13.277-1.94-9.762,3-18.691-2.895-28.659-1.115l17.022,3.516-.15,1.5c-2.266,0-4.533-.025-6.8,0-8.633.112-17.325-.307-25.875.6-4.221.447-8.253,3.2-12.247,5.167-10.642,5.229-19.613,12.357-25.27,23.065a8.349,8.349,0,0,0-1.077,4.394l5.591-7.431,1.07.68L34,535.166l-1.015-.255c0-9.106,1.9-18.04,8.079-24.785,5.9-6.446,13.295-11.529,18.676-16.066l-10.936,5.6c9.177-8.773,19.888-13.918,32.738-14.078,5.126-.064,5.618-.446,4.739-5.512a38.1,38.1,0,0,1,.142-13.555c.614-3.429-.337-7.3-1.271-10.8-.963-3.6-1.4-6.412,2.072-9.127,3.635-2.842,3.148-8-.668-10.693-1.607-1.135-1.955-1.775-.614-3.5,2.158-2.786,3.179-5.385-.569-8.447-1.61-1.315-1.553-5.08-1.62-7.748-.055-2.233,1.035-4.47,1.224-6.738.4-4.822-1.619-7.024-6.373-7.747-1.2-.182-2.29-1.082-3.43-1.652.873-.9,1.592-2.081,2.644-2.643,6.344-3.39,7.107-9.63,7.79-15.669.3-2.648-.864-5.452-1.3-8.195-.5-3.11-.923-6.231-1.373-9.349-.1-.7-.178-1.4-.265-2.106a8.436,8.436,0,0,0-2.028.749c-1.261.878-2.411,1.915-3.61,2.879l-.854-.815c2.134-2.941,4.468-5.764,6.322-8.872,1.005-1.685,1.245-3.846,1.646-5.829a3.163,3.163,0,0,0-2.092-.842,46.975,46.975,0,0,0-5.174,2.143l-.616-1.083c2.2-1.607,4.431-3.165,6.569-4.847a31.166,31.166,0,0,0,2.788-2.795,13.708,13.708,0,0,0-2.973-2.206c-7.9-3.031-15.785-3.724-24.462,1.188,3.7-5.774,8.157-8.911,13.7-9.591,5.345-.656,10.834-.142,16.447-.142-2.889-4.139-8.43-5.1-29.33-5.221,5.251-3.89,10.93-4.387,16.539-5.029,1.377-.158,2.8.134,4.2.069a22.682,22.682,0,0,0,3-.527,17.855,17.855,0,0,0-1.761-3.585c-5.666-7.033-11.432-13.984-17.138-20.985a4.84,4.84,0,0,1-1.008-2.446l15.406,14.85,1.068-.957c-7.413-9.543-16.107-18.276-19.849-29.855C65.4,285.8,71.507,293.44,77.616,301.084l1.484-1L63.051,271.731l1-.647L76.08,287.521c-5.717-17.56-14.618-31.941-34.684-35.4a50.53,50.53,0,0,1-12.312-3.762l5.29.7.154-.555L23.9,243.882l.262-.984c6.072,2.29,12.163,4.433,18.858,2.979-8.945-2.641-18.853-3.042-25.085-10.626,4.3,1.488,8.893,3.189,13.567,4.611,1.207.367,2.68-.141,4.03-.247-.671-.8.331-2.366-.455-3.112a3.99,3.99,0,0,1-1.1-2.239c-.531-2.966-4.648-2.017-6.279-3.812-2.68-2.951-5.82-5.514-8.29-8.619a28.615,28.615,0,0,0-10.834-8.825,7.314,7.314,0,0,1-1.638-1.439l.366-1.093c5.671,1.563,11.259,3.743,17.035,4.516,5.847.782,11.879.172,17.8.172l-1.983-1.7,7.172,1.275L32.689,203.25l.653-1.115c6.779,4.137,14.056,6.434,21.927,5.424,4.517-.58,8.9-2.155,13.406-2.89,5.741-.935,11.547-1.473,18.067-2.274l-36.149,8.193-.012,1.236c3.278,0,6.674.559,9.811-.105,9.1-1.925,18.06-4.5,27.15-6.473,2.958-.642,6.409-1.03,9.173-.124,5.371,1.761,10.415,4.52,15.343,6.752-5-11.453-32.98-17.3-55.423-12.041l18.145-4.7-.061-.624-7.534-.441c15.808-3.866,31.015-1.566,45.809,5.009l.357-.911a12.1,12.1,0,0,0-.8-1.394c-.242-.319-.615-.539-.671-1.083,17.039,10.3,29.152,25.736,41.961,40.495-6.012-16-17.787-27.007-31.677-36.694,7.772,2.041,13.519,6.453,18.254,12.231,4.669,5.7,9.121,11.573,13.946,17.2-1.986-6.876-7.27-11.725-11.525-17.206l.764-.729a99.151,99.151,0,0,1,7.726,6.512c3.728,3.814,6.989,8.094,10.783,11.835a23.255,23.255,0,0,0,7.637,4.513c-4.578-12.466-13.081-21.613-23.336-29.4,13.376,5.686,21.968,17.487,33.172,25.9l.809-.849-5.974-7.132c.27-.273,10.749,9.969,15.952,15.126,1.462,1.449,3.761,2.871,5.695,2.9,15.915.207,31.834.039,47.752.1,2.4.009,3.138-1.09,3.3-3.156a19.3,19.3,0,0,1,1.1-5.622,42.577,42.577,0,0,1,.832,6.152c-.015,3.74,1.885,3.7,4.74,3.074a47.58,47.58,0,0,1,8.264-.9c3.111-.126,4.122.965,3.044,4.4-1.708,5.435-3.316,11.051-3.764,16.686-.366,4.612,1.022,9.364,2.3,14-1.362-13.134,2.633-24.939,8.23-36.452-1.831,7.673-2.812,15.347-.58,23.25-.042-17.483,6.911-32.184,17.625-45.41-2.531,6.284-5.269,12.5-7.522,18.877-1.512,4.281-.84,4.646,3.637,5.015a13.806,13.806,0,0,0,11.582-4.295c7.05-6.832,15.782-10.926,25.1-13.773-29.629,13.2-36.4,30.048-36.413,43.934,5.331-14.715,10.547-28.549,25.889-34.723l-4.5,6.358c3.214.722,6.026,1.552,8.927,1.9a19.945,19.945,0,0,0,5.658-.159c6.024-1.013,11.87-1.522,17.835.911a19.059,19.059,0,0,0,13.1.166,33,33,0,0,1,10.465-.953c3.842.1,8.659-2.532,10.277-6.3a24.836,24.836,0,0,1,2.817-5.315,24.8,24.8,0,0,0-.285,3.722c.041.654.738,1.241.972,1.916.5,1.445.894,2.927,1.049,3.446,5.123-11.658,10.057-24.3,16.155-36.36,6.244-12.345,15.8-22.058,27.729-29.409-7.15,9.357-13.935,18.874-17.519,30.925l18.5-18.25,1.012.825c-7.922,9.429-13.43,19.948-14.952,32.3,6.238-18.376,17.585-32.977,32.885-44.7a123.15,123.15,0,0,0-19.349,28.316c1.5,1.978,2.8-3.19,4.07.363a19,19,0,0,0,1.486-1.967c3.29-5.737,6.226-11.707,9.878-17.2,9.016-13.562,22.85-20.333,37.584-25.583a166.369,166.369,0,0,1,18.268-5.252c-6.838,2.556-13.724,4.992-20.5,7.692-16.48,6.563-30.03,16.669-38.607,32.6-1.024,1.9-1.772,3.954-2.6,5.956a2.491,2.491,0,0,0,.068,1.779c11.577-16.406,24.217-31.569,43.56-39.253-10.541,5.879-20.492,12.387-25.987,23.724,18.6-18.091,38.8-31.849,67.448-26.483-18.674.752-37.521,7.243-43.4,14.437m3.873,111.991a10.24,10.24,0,0,1-5.393,7.8c-9.209,5.027-18.872,8.363-29.576,7.69-1.358-.085-2.725-.012-4.088-.012.42,1.321.863,1.8,1.41,2.016,15.711,6.071,31.212,6.334,46.253-1.271-5.534,9.091-13.518,15.368-24.021,16.581.844,2.08,1.605,4.054,2.443,6a48.246,48.246,0,0,0,2.864,6.065,2.747,2.747,0,0,0,2.583.718c6.277-4.441,12.442-9.04,18.635-13.6l-.3-.532-3.194.554q-.369-.532-.739-1.066l13.655-12.735-.36-.443-2.694.817,9.345-13.57-.959-.769-10.43,9.426a14.351,14.351,0,0,1,.732-2.522c1.864-3.192,3.811-6.335,5.645-9.545.269-.471.074-1.207.094-1.82-3.75.316-1.23-1.767-.93-2.724a26.9,26.9,0,0,1,1.734-3.4c.122-.251-.035-.636-.07-1.037l-3.239,1.282c1.929-4.629,3.731-8.834,5.415-13.086.353-.894.555-2.755.348-2.829-3.507-1.251-.808-2.964-.311-4.318,1.544-4.21,3.252-8.36,4.9-12.533l-.964-.522-2.874,1.841-.712-.425,7.561-21.52-3.7,3.514-1.046-.722,7.435-11.8-2.867.485c1.428-1.548,2.342-2.515,3.23-3.506,1.269-1.416,2.5-2.864,3.782-4.272a68.921,68.921,0,0,1,5.5-5.859c1.357-1.18,3.186-1.817,5.179-2.9l-3.2-.98,10.757-4.541a6.4,6.4,0,0,0-3.45-2c-9-1.8-17.943-4.13-27.032-5.209-25.085-2.978-47.291,3.258-65.159,21.985a75.916,75.916,0,0,0-13.26,19.564l12.663-4.245.233.9-8.728,4.978.5.809,4.165-.975-17.969,18.489.959.977A82.17,82.17,0,0,0,455.51,218.12a31.923,31.923,0,0,1-3,7.4c-7.085,12.2-17.875,19.951-30.543,25.578-7.129,3.166-14.026,6.856-21.027,10.309q.264.827.526,1.651c3.486-.768,7.241-.959,10.4-2.429,5.8-2.7,11.269-6.118,16.84-9.3,8.821-5.035,17.064-10.738,22.4-19.74.275-.464.895-.723,2.278-1.791-1.542,11.857-8.229,19.529-14.884,27.47l5.885-4.31c-3.872,8.5-12.24,11.457-19.058,16.362,12.591-1.173,20.531-9.795,28.507-18.409-4.673,12.4-15.516,18.257-26.591,24.914,16.828,1.757,32.545,6.675,48.724,1.909l.63,1.268L460.751,289.13C467.243,289.545,472.348,287.384,477.091,283.685Zm-195.08,6.849-.445.3,5.958,11.913-.828.453c-4.587-6.518-7.641-14.278-15.225-19.488a12.868,12.868,0,0,0,.546,2.2c1.14,2.13,2.371,4.213,3.488,6.356.807,1.546,1.486,3.16,2.222,4.744l-2.885.761c3.556,7.238,7.037,14.321,10.624,21.621,2.181-4.809,3.437-1.3,4.089.733,2.093,6.539,3.836,13.189,5.71,19.8.3,1.073.589,2.151,1.045,3.821,1.775-4.836,3.162-8.857,4.726-12.809,1.605-4.058,3.382-8.049,5.084-12.07l1.112.33c-.489,5.372-1.114,10.738-1.374,16.122-.07,1.441.927,2.959,1.577,4.376.074.162,1.566-.089,1.568-.167.031-1.442-.145-2.889-.108-4.331.027-1.094-.091-2.519.519-3.213,2.2-2.5,5.166-4.429,6.961-7.155,6.957-10.569,18.234-15.531,28.112-22.317a7.078,7.078,0,0,1,1.457-.442c8.554-3.281,17.1-6.571,25.3-9.724h-4.415l4.428-1.865-.154-.685-5.141-.868c14.68-2.8,29.252-2.116,43.9-.812a12.192,12.192,0,0,0-3.264-1.708c-4.382-1.36-8.831-2.518-13.178-3.978-2.835-.952-5.444-2.9-8.319-3.354a83.524,83.524,0,0,0-32.633,1.508c-1.358.326-2.757.478-4.137.71,11.912-7.567,25.153-8.766,38.674-8.8-4.874-.531-9.659-.413-14.436-.567-4.047-.131-8.092-.5-12.119-.942-.843-.092-1.6-.951-2.4-1.456.954-.474,1.877-1.271,2.869-1.367,4.694-.456,9.416-.636,14.111-1.094a56.255,56.255,0,0,0,6.137-1.266l-.267-1.323c-20.545-3.147-40.082.042-58.383,10.665.907-8.48,7.726-11.135,13.113-15.127-10.4,4.319-19.9,9.925-27.982,18.591l5.288-10.9-1.2-.727-10.87,15.565-.836-.435,7.433-14.492a10.468,10.468,0,0,0-4.02,2.6c-1.068.924-2.206,1.769-3.313,2.649.208-1.311.411-2.623.626-3.933.164-1,.343-2,.5-2.917-2.634-.119-1.149,5.816-5.167,2.742-.245.411-.653.8-.711,1.236-.87,6.539-1.8,13.073-2.479,19.634-.3,2.892-.051,5.841-.051,8.994-4.032-7.717-7.92-15.156-11.807-22.6l-.813.377,5.631,17.294-.781.348Zm112.868,140.68.16.732a26.7,26.7,0,0,0,2.972.131,140.714,140.714,0,0,1,31.866,1.628,3.076,3.076,0,0,1,2.142,1.648c.882,3.265,4.7,8.653,7.48,10.1,5.243,2.726,9.9,6.072,11.913,10.613l-23.228-8.513-.618,1.457a87.328,87.328,0,0,1,8.746,4.211,97.3,97.3,0,0,1,8.034,6.109c-4.431-1.194-8.392-3.189-12.555-4.581a113.608,113.608,0,0,0-12.971-3.264c-4.182-.868-8.43-1.424-12.649-2.117,18.606,5.9,35.87,13.6,47.881,30.194l.674-1.019-3.256-4.9,1.111-.922,13.029,12.667c-.721-2.265-1.618-5.08-2.515-7.895L464.1,477c1.3,2.1,3.1,4.045,3.784,6.327,1,3.306,3.571,4.112,6.18,5.041.346.124,1.647-.984,1.607-1.442-.389-4.38-.905-8.751-1.513-13.107-.991-7.093-4.423-12.942-9.321-18.05a10.968,10.968,0,0,1-1.429-2.773c3.148-.01.713-1.564.4-1.988-2.263-3.052-4.666-6-7.5-9.582,14.038,10.726,22.763,25.011,32.224,38.665l1.253-.813q-6.7-11.079-13.4-22.159l.467-.318,12.124,15.921A90.193,90.193,0,0,0,451,427.523l6.116,2.273.507-.84c-7.862-7.154-17.412-11.339-27.438-14.686l.334-1.318,16.659,2.857c-1.482-1.44-3.052-2.769-4.809-3.1-5.2-.966-12.168-2.632-13.234-3.485a17.128,17.128,0,0,0-2.846-2.048c-2.113-1.075-4.034-2.053-5.937-3.064-2.92-1.552-5.629-.147-5.941,3.145-1.108,11.686-6.491,19.951-18.262,23.239A6.152,6.152,0,0,0,394.879,431.214ZM131.03,216.806c-4.568-11.737-33.161-25.843-47.066-21.084A87.336,87.336,0,0,1,131.03,216.806ZM378.316,390.742a5.815,5.815,0,0,0,.018,7.8c.463.521.929,1.011,1.424,1.468,5.1,4.709,6.25,4.591,7.958-1.811.564-2.113-.525-5.353-2.009-7.1-1.107-1.3-4.317-1.812-6.125-1.23A3.06,3.06,0,0,0,378.316,390.742ZM228.57,412.725c-.053,2.172,5.8,9.094,6.935,8.163a13.691,13.691,0,0,0,4.434-6.769c.825-3.293-2.416-6.683-5.614-6.9C231.579,407.04,228.64,409.85,228.57,412.725ZM506.445,307.107,529.167,292.7l-.583-.849C518.515,293.36,511.042,298.675,506.445,307.107ZM371.686,398.134a5.08,5.08,0,0,0-.295,7.224,11.656,11.656,0,0,0,2.6,2.281c.922.554,3.406-.381,4.463-1.393,2.341-2.24-.022-4.046-1.192-5.874-.2-.319-.335-.765-.626-.933-1.308-.753-2.97-2.276-3.927-1.93A3.314,3.314,0,0,0,371.686,398.134ZM227.892,424.355c.522-.617,2.192-1.741,2.52-3.172.526-2.3-3.215-7.353-4.946-7.317-2.714.055-4.3,1.516-4.443,4.238C220.856,421.2,223.67,424.269,227.892,424.355Zm178.514-29.107c0,4.887.929,10.352-.262,15.308s-4.5,9.376-6.679,13.645C408.486,420.672,412.486,404.332,406.406,395.248ZM73.489,334.555l13.405,3.783c1.341.379,2.669.82,4.031,1.095.394.08,1.269-.334,1.262-.492-.024-.541-.2-1.387-.569-1.556C85.854,334.764,79.9,333.194,73.489,334.555Zm57.6,44.55c-4.792-1.993-17.615,2.08-21,6.582ZM327.149,258.738c-4.894.641-8.86,3.756-9.666,7.335Z"/><path d="M418.238,519.035l.777,3.265-.579.351c-.98-1.624-2.047-3.2-2.895-4.893a6.965,6.965,0,0,1-.257-2.392c.853.132,2.039-.047,2.5.45a56.527,56.527,0,0,1,6.878,8.065c2.968,4.686,5.419,9.7,8.088,14.575l.964-.266c-1.257-3.833-1.937-8-3.916-11.415-2.482-4.284-2.577-8.5-1.736-12.982.089-.478,1.6-1.185,2.139-.976a4.545,4.545,0,0,1,2.5,2.124c3.414,8.759,6.775,17.543,9.9,26.408a10.817,10.817,0,0,1-.339,6.634l-2.86-8.052-.623.168c.391,5.808.236,11.719,1.315,17.4,1.28,6.734,5.745,11.6,11.889,14.624,2.958,1.459,6.21,2.311,9.266,3.589,2.579,1.078,3.567.248,3.4-2.4q-.636-9.923-1.265-19.846c-.1-1.613-.249-3.224-.375-4.836l1.057-.1c.876,8.039,1.753,16.079,2.7,24.8v-17l1.079-.03v17.535l1.051.028q1.16-14.079,2.318-28.158l.876-.014c.41,3.288.82,6.576,1.372,11,.264-3.582.445-6.046.626-8.509l.54-.146a16.021,16.021,0,0,1,.478,3.625c-.643,6.835-1.446,13.656-2.1,20.49a18.235,18.235,0,0,0,.339,3.541,13.621,13.621,0,0,0,3.028-2.059,39.621,39.621,0,0,0,8.939-21.593,28.076,28.076,0,0,1,1.389-6.628c3.548,8.287,1.34,16.72.469,25.147l-.477-5.4-.561-.19c-.565,1.308-1.176,2.6-1.688,3.926-2.946,7.651-9.821,11.079-16.194,15.028-.256.159-.96-.281-1.391-.547-2.122-1.308-4.071-3.061-6.359-3.9-6.529-2.41-12.663-5.272-17.645-10.365-1.023-1.046-3.23-1.332-4.879-1.3-17.073.287-34.144.715-51.216,1.092-4.717.1-9.38-.093-14.5-3.226l28.9-2.125-.021-1.177-8.08-.812-.006-1.187,13.691-3.624c-.047-.275-.094-.549-.142-.824l-6.159.281c-.043-.461-.157-.734-.07-.9.95-1.87,1.932-3.724,2.906-5.582-1.945-.1-3.9-.34-5.834-.254a78.912,78.912,0,0,0-9.5.831,13.856,13.856,0,0,0-4.716,2.054c-4.748,2.915-9.241,6.3-14.167,8.858-5,2.6-9.3,5.7-12.362,10.486-1.921,3.007-4.064,5.872-6.038,8.846-5.443,8.2-13.361,11.93-22.9,12.593a83.439,83.439,0,0,1-9.181-.006c-8.26-.339-15.125-3.677-20.027-10.339-4.687-6.369-10.32-10.781-18.491-11.5a12.077,12.077,0,0,1-5.284-2.078c-3.587-2.365-7.682-1.912-11.488-2.791-9.2-2.125-16.21,5.5-24.927,4.2-1.965-.293-4.055.32-6.091.422-5.957.3-7.509-1.759-6.306-7.8.347-1.745-.045-3.637-.1-5.462a16.068,16.068,0,0,1-.058-3.341c3-16.03,11.444-28.681,24.142-38.662a13.268,13.268,0,0,1,2.133-.821c-9.46,9.428-17.63,18.469-20.718,30.99,5.445-15.893,16.708-25.39,32.782-29.559-1.366.884-2.748,1.745-4.094,2.659a37.787,37.787,0,0,0-4.02,2.915c-.613.547-3.125.833-.822,2.558a8.838,8.838,0,0,1-1.594,2.753c-3.671,4.068-7.5,8-11.1,12.126-.75.858-1.278,3.274-1.065,3.387,1.5.8,3.017,2.265,4.907.1a97.9,97.9,0,0,1,10.255-10.518c2.745-2.327,6.2-3.817,9.336-5.68l.593.817L255.02,537.506l.216.986c5.013,0,10.09-.512,15.024.11,9.1,1.148,18.076,3.305,27.183,4.367,5.378.627,10.913.09,16.365-.177,3.171-.156,4.589-2.167,4.727-5.375.323-7.524-2.029-10.6-9.726-10.927-11.689-.5-20.172-6.877-27.317-15.024-8.034-9.159-3.458-25.863,7.775-30.423a21.119,21.119,0,0,1,3.1-.76l.567.934c-2.7,2.408-5.3,4.947-8.13,7.191-3.341,2.648-5.2,7.593-4.007,11.561.86,2.867,2.423,3.356,4.228,1,4.727-6.177,11.714-7.518,18.615-9.126,2.11-.491,4.227-.957,6.354-1.372,5.2-1.014,10.415-1.942,15.6-3.025a15.559,15.559,0,0,0,3.216-1.477c-.907-.736-1.706-1.828-2.742-2.148a22.321,22.321,0,0,0-14.637.366c-4.458,1.632-12.234.967-17.151-1.319a8.427,8.427,0,0,1,1.686-1.97c6.077-3.634,12.34-6.144,19.7-4.1,1.9.526,4.143-.2,6.229-.352l.035-1.1-4.036-.437c6.451-1.7,12.879-.212,19.174,2.105,10,3.682,14.691,12.119,12.107,22.477-2.509,10.05-7.315,18.461-17.8,22.353a41.185,41.185,0,0,0-7.018,3.863c-2.28,1.4-3.08,3.417-2.662,6.2,1.187,7.906,2.882,9.315,10.962,9.378a48.657,48.657,0,0,0,24.787-6.9c9.779-5.6,19.228-11.754,31.335-10.849l.438-1.394c-4.79-3.369-9.29-7.3-14.452-9.947-5.142-2.632-10.949-3.966-16.4-5.846,4.451-2.342,27.743,3.239,36.194,7.928,11.448,6.352,17.5,17.566,25.452,27.112-4.243-12.028-12.2-21.111-21.836-28.965-9.837-8.016-21.294-11.68-33.727-13.02,9.868-.946,19.313.519,27.76,5.62,5.734,3.462,10.994,7.74,16.3,11.873,2.6,2.03,4.551,4.984,7.3,6.715,1.871,1.178,4.62.96,6.976,1.366q-1.6-3.338-3.206-6.676ZM312.786,548.913a16.6,16.6,0,0,0-3.246-.439c-4.639.628-8.968,1.882-12.065,5.809-2.066,2.619-4.076,4-7.571,1.3-2.809-2.167-6.55-3.124-9.877-4.619q-.43.73-.859,1.461c3.023,2.817,5.708,6.187,9.164,8.292,3.35,2.041,4.519,3.924,3.164,7.626-.326.89.711,2.281,1.122,3.441.526-.85,1.055-1.7,1.579-2.551.369-.6.73-1.2,1.094-1.8a12.789,12.789,0,0,1,1.282,1.688,46.468,46.468,0,0,0,2.211,4.413c7.377,10.8,18.414,14.339,33.181,10.731,10.882-2.659,19.276-12.345,20.72-23.91.873-6.989-4.215-12.344-11.211-11.442-3.63.468-7.168,1.634-10.76,2.424-.807.178-2,.483-2.453.087-2.954-2.588-3.2.053-3.483,1.852-.408,2.559-.442,5.179-.636,7.773-2.725-8.172-10.509-7.617-17.483-10.051Zm47.278,5.17c1.78-1.594,3.317-2.4,3.8-3.616.306-.769-.7-2.721-1.587-3.138a4.839,4.839,0,0,0-4.057.127,17.143,17.143,0,0,0-3.915,4.281c-2.1,2.823.057,4.7,1.77,6.52.523.555,1.962,1.129,2.255.871,1.643-1.451,3.019-3.164,1.656-5.584C359.931,553.442,359.947,553.3,360.064,554.083Zm-64.006-34.967c2.314,1.893,4.425,1.176,6.3-.7,1.99-1.993,3.865-4.12,2.888-7.227Zm131.974,20.59c.824-4.891-.866-8.822-4.181-10.645Z"/><path d="M174.358,304.669l-.167.105a43.688,43.688,0,0,0,6.048-1.147c4.82-1.615,9.454-3.884,14.356-5.132,11.719-2.983,23.5-6.662,35.756-5.054,9.09,1.191,16.179,6.477,21.776,13.921l-20.705-4.227-.238,1.115,4.12,1.523v1.047H218l-.041,1.308,11.525.544.075,1.312-12.293,1.7c12.187,2.217,25.424.586,34.8,13.225-18.4-12.127-36.591-12.428-56.266-3.256,1.626,0,2.246.049,2.855-.014.632-.064,1.25-.247,1.877-.362,5.01-.914,10.014-1.866,15.036-2.706a5.975,5.975,0,0,1,3.391.118c8.253,4.161,19.581,1.729,24.7,11.312l-25.448-2.478-.069-.679h17.271l-.051-1.523c-17.064-4.415-34.151-3.721-50.519,2.846-16.1,6.462-31.262,14.882-42.337,29.076l-.85-.672c1.049-1.917,2.136-3.815,3.128-5.762a16,16,0,0,0,.79-2.386,9.643,9.643,0,0,0-2.5-.274c-6.791,1.041-13.484,1.2-19.821-2.023a38.541,38.541,0,0,1-3.327-2.042c3.714-.986,7.521-1.907,11.269-3.027,1.94-.579,1.99-1.685.39-2.953-1.542-1.223-3-2.55-5.147-4.388,6.608-.725,12.751,3.852,18.13-1.726l-3.408-1.029c1.307-.563,2.134-1.276,2.707-1.111,4.514,1.3,7.905-1.1,11.344-3.281,2.905-1.844,5.746-3.8,8.565-5.77a11.257,11.257,0,0,0,1.683-1.837c-.889-.608-1.743-1.648-2.676-1.724-1.467-.119-2.98.554-4.487.64-5.283.3-10.575.709-15.856.617-1.838-.032-3.652-1.4-5.371-2.716a41.554,41.554,0,0,0,21.511-.24l-3.168-2.016C162.569,311.649,169.542,310.311,174.358,304.669Z"/><path d="M128.274,532.415l-2.668,6.059c-1.7-7.3,2.134-13.191,3.877-19.983l-1.185,2.923-1.218-1.138c2.833-8.324,7.911-14.8,16.271-18.665-5.555,9.915-12.586,19.215-11.658,31.6l2.563-5.754,1.016.15v27.5l1.475.01V540.382l.977-.118q2.828,11.643,5.657,23.286l.745-.178,1.482-16,1.147.03c1.264,6.469,2.756,12.9,3.707,19.42.574,3.923,2.377,4.892,5.933,4.088a46.807,46.807,0,0,0,21.046-10.879c5.447-4.766,7.357-10.736,9.488-16.914,3.554-10.307,9.844-18.854,17.4-26.649l-14.806,23.4,1.216.911,3.1-3.651.638.376q-4.873,8.632-9.746,17.267l.629.44,5.18-6.459c-.649,6.023-1.1,11.386-1.931,16.69-.131.837-2.034,2.078-3.015,1.99-7.067-.634-13.733.336-19.665,4.41-2.232,1.532-6.333-.289-7.111,3.978a10.415,10.415,0,0,1-3.25-.03c-5.155-.654-5.152-.678-4.783,4.247l-9.067-12.773-1.1.517q.132,2.314.263,4.631l-.557.161-4.015-9.623c-4.259,6.457-10.26,10.142-16.463,13.7-1.334.765-1.514,3.54-2.176,5.259-.557-2.9-3.146-2.965-5.9-3.711-6.941-1.882-12.518-6.151-16.883-11.916-.533-.7-1.042-1.426-1.58-2.126-.052-.068-.229-.039-.581-.088v13.618c-4.992-7.527-5.116-36.448.3-46.845-.191,1.075-.332,2.162-.58,3.223a57.14,57.14,0,0,0-.011,24.305c.4,2.019,1.876,3.825,2.858,5.728l1.021-.361c.223-1.436.445-2.872.754-4.86,1.262,2.94,2.27,5.4,3.385,7.82a6.615,6.615,0,0,0,1.687,2.523c1.768,1.34,3.718,2.439,5.595,3.636-.058-1.813-.159-3.627-.167-5.441-.023-4.993-.008-9.987-.008-14.981l1.358-.138q1.54,10.386,3.08,20.773l1.466-.213c-1.065-10.551-4.894-20.937-2.557-32.725.723,5.168,1.306,9.331,1.889,13.494l.955,0q.264-4.857.529-9.714l.648.044q1.38,11.868,2.766,23.736c.458,3.868,1.218,4.278,4.54,2.175a118.988,118.988,0,0,0,10.068-6.915,4.749,4.749,0,0,0,1.424-3.839c-1.432-7.866-3.143-15.682-4.765-23.514C128.806,534.868,128.646,534.145,128.274,532.415Z"/><path d="M512.2,582.814c.416-4.929-2.633-5.61-6.585-6.546-3.986-.943-7.68-3.223-11.389-5.136-.611-.315-.813-1.739-.912-2.681-.915-8.75-1.4-17.563-2.749-26.243-1.124-7.259-3.228-14.366-4.908-21.585.766,1.059,1.773,2.33,2.645,3.687.957,1.49,1.79,3.059,2.828,4.853-.392-7.072-8.607-22.4-15.432-29.114,11.188.332,17.065,7.945,22.7,16.293-.245-.8-.456-1.619-.744-2.406-.3-.831-.68-1.635-1.118-2.67,4.1,3.642,7.577,15.962,6.51,23.47l-6.782-14.213-.9.34,4.474,15.6-1.2.435q-1.586-3.121-3.172-6.241l-.809.112c.257,2.517.329,5.069.805,7.544a60.322,60.322,0,0,1-.148,24.751c-.873,3.962,7.638,10.63,11.54,9.322.854-.286,1.7-1.863,1.79-2.913.249-2.766.085-5.57.947-8.388v10.069l1.423-.047-.912-17.422.7-.13q1.143,4.287,2.287,8.576l1-.008V543.991l1.507-.176a46.88,46.88,0,0,1,1.753,6.362c.819,6.063,1.584,12.145,2,18.245.217,3.145,1.015,3.342,3.629,1.983a11.806,11.806,0,0,0,6.394-8.131c.925-3.925,1.6-7.911,2.672-11.91,1.389,3.8,3.226,7.561,1.351,11.775-2.81,6.315-6.279,11.966-13.569,14.092-1.094.32-2.035,1.941-2.575,3.168-.529,1.2-.455,2.672-1.3,3.986a8.822,8.822,0,0,0-.04-2.424,36.587,36.587,0,0,0-1.547-3.756c-.6,1.135-1.265,2.239-1.759,3.416A9.931,9.931,0,0,0,512.2,582.814Z"/><path d="M370.924,472.69c21.7-3.951,41.446-.189,58.3,14.893a78.188,78.188,0,0,1,19.454,26.168c4.219,9.43,6.169,19.874,9.117,29.872l-1.12.357c-1.787-4.442-3.482-8.924-5.4-13.31a56.439,56.439,0,0,0-3.682-6.691c-.271-.443-1-3.03-1.753-.118a4.336,4.336,0,0,1-1.091-.428c-.746-.565-1.437-1.2-2.15-1.812a14.931,14.931,0,0,0-.166,3.533c.647,3.409,1.5,6.78,2.267,10.166l-1.7.421q-3.048-11.793-6.1-23.586a19.3,19.3,0,0,0-.6-2.192c-4.875-12.467-13.539-21.479-25.037-28.15a65.77,65.77,0,0,0-35.8-9.129C373.959,472.731,372.441,472.69,370.924,472.69Z"/><path d="M66.658,536c-1.395,10.064-2.706,19.533-4.018,29l1.416.243L67.8,544.929l1.485.154c0,5.136.158,10.279-.056,15.407-.141,3.387.65,4.733,4.058,2.973,2.371-1.224,4.839-2.268,7.156-3.582,2.627-1.491,3.395-3.563,2.553-6.731-2.891-10.884,2.144-20.223,6.215-29.765-4.544,16.009-.761,32.118-1.092,48.66-.387-1.511-.675-2.591-.937-3.679-.269-1.114-.559-2.227-.755-3.355-.34-1.963-1-2.6-3.045-1.449-4.217,2.363-8.689,4.28-12.837,6.749-1.413.84-2.169,2.783-2.693,3.5-2.905-2.321-5.962-5.042-9.29-7.375-14.126-9.9-16.413-27.351-8.953-40.316a21.1,21.1,0,0,1,1.763-2.1c-1.2,4.43-2.342,7.906-3.056,11.468-1.869,9.327.887,17.379,7.279,24.245a12.158,12.158,0,0,0,3.081,1.773c.364-1.027.8-2.036,1.08-3.086,1.767-6.611,3.475-13.238,5.276-19.84A12.258,12.258,0,0,1,66.658,536Z"/><path d="M547.205,547.845q1.529,12.1,3.059,24.208l-1.06.205c-.559-2.7-1.1-5.411-1.683-8.109-.494-2.288-4.887-5.139-6.963-4.3-.62.249-1,1.566-1.142,2.45-.531,3.361-.917,6.745-1.357,10.121l-1.218-.057c0-6.879.5-13.8-.139-20.624-.646-6.908-2.416-13.711-3.73-20.759l3.379,4.689.333-.216c-1.662-4.252-3.469-8.454-4.943-12.77-1.3-3.8-1.846-7.9-3.43-11.559-1.487-3.439-3.812-6.536-5.943-9.665-.819-1.2-2.12-2.077-2.922-3.425a36.238,36.238,0,0,1,24.79,18.009l-13.5-12.805-.687.68c1.387,2.076,3.248,3.985,4.053,6.267a106.943,106.943,0,0,1,2.853,11.567,18.681,18.681,0,0,0,.523,2.923c3.221,7.773,6.511,15.516,9.78,23.268Z"/><path d="M551.93,575.506c-.446-8.749-.378-17.562-1.484-26.226-1.1-8.64-3.384-17.13-4.652-26.009,2.269,4.977,4.922,9.823,6.7,14.972a104.531,104.531,0,0,1,3.428,14.857c.538,2.878,1.708,3.383,4.137,1.993,4.27-2.443,7.4-5.774,8.75-10.621a32.817,32.817,0,0,0-4.36-27.795c-.9-1.39-1.8-2.777-2.674-4.185-.115-.187-.042-.491-.08-1.143a6.967,6.967,0,0,1,1.912.8c9.719,8.706,13.125,24.112,7.865,36.052-2.269,5.149-6.351,8.512-11.517,10.61-4.249,1.725-6.668,4.677-6.642,9.467.013,2.393-.319,4.788-.5,7.182Z"/><path d="M221.421,477.536a66.536,66.536,0,0,0-25.557,18c-2.075,2.38-5.182,3.86-7.976,5.867l3.276-.47c-5.992,12.023-11.965,24.008-18.326,36.769,2.484-11.3,5.6-21.485,11.845-30.538l-.88-.526-5.871,8.217C179.837,504.524,203.324,478,221.421,477.536Z"/><path d="M563.847,506.817l1.591.186.646-.723-11.221-10c12.762,2.166,25.407,18.9,27.03,38.5Z"/><path d="M372.812,573.784c2.243,0,4.49.079,6.729-.02,2.884-.127,5.877,1.141,8.491-1.858.805-.925,4.015.246,6.124.457-.356.813-.486,1.918-1.1,2.392-5.574,4.29-12.084,6.408-18.891,7.651a104.314,104.314,0,0,1-10.52,1.29,6.454,6.454,0,0,1-3.26-.913c-.674-.354-1.079-1.223-1.6-1.862.625-.375,1.225-1.022,1.877-1.078,3.286-.281,6.6-.29,9.877-.619a53.8,53.8,0,0,0,12.216-2.425l-10.291-1.274Z"/><path d="M460.844,521.174l-24.257-36.361C445.55,485.613,462.278,510.315,460.844,521.174Z"/><path d="M59.911,508.948c-8.185,10.253-16.979,20.043-21.4,32.761,2.1-12.086,3.84-24.256,13.4-33.6-2.774,5.505-5.429,10.773-8.083,16.041l1.192.768A48.594,48.594,0,0,1,59.911,508.948Z"/><path d="M158.717,526.606c2.743-13.437,11.134-23.722,18.459-34.6l1.162.649c-1.677,2.558-3.353,5.116-5.574,8.506l5.2-2.418.877.881A75.377,75.377,0,0,0,158.717,526.606Z"/><path d="M353.337,603.809l-10.062-2.565.185-.737c4.612,0,9.3.531,13.812-.151,4.421-.669,8.656-2.571,12.788-3.874-.448.346-1.215,1-2.046,1.565a24.086,24.086,0,0,1-2.942,1.785c-6.418,3.115-12.83,6.247-19.307,9.238a12.623,12.623,0,0,1-5.131,1.284c-.773,0-1.542-1.576-2.313-2.437a8.873,8.873,0,0,1,2.29-1.1c4.313-.69,8.644-1.263,12.969-1.877Z"/><path d="M87.559,514.143c3.7-3.271,7.339-6.617,11.139-9.767a7.638,7.638,0,0,1,4.408-1.406L82.829,524.683l-.6-.28q.774-2.387,1.547-4.773Z"/><path d="M277.827,349.542l-7.145-13.7.924-.61,2.728,2.532c-1.32-4.462-2.482-8.392-3.645-12.322,4.977,7.081,8.831,14.518,8.594,23.358Z"/><path d="M220.732,549.592c0,4.545.036,9.091-.055,13.634-.009.447-.716,1.08-1.233,1.282-2.074.811-4.2,1.486-6.99,2.446l7.316-17.746Z"/><path d="M92.468,500.356l-22.1,21.293C75.011,511.558,82.323,505.126,92.468,500.356Z"/><path d="M529.622,498.139c9.291,2.609,16.277,8.356,22.272,15.448l-.723.971Z"/><path d="M87.559,514.143l-3.78,5.487-4.568,5.705c-.211-5.892,6.6-16.171,11.609-17.105C89.652,510.349,88.606,512.246,87.559,514.143Z"/><path d="M276.841,324.95l-22.078-23.284C263.567,308.01,272.172,314.529,276.841,324.95Z"/><path d="M356.068,585.037h22.078C373.142,589.257,361.939,589.025,356.068,585.037Z"/><path d="M260.083,574.011l-15.043,4.913-.557-1.057c.883-1.241,1.577-3.324,2.682-3.572,4.126-.927,8.388-1.252,12.6-1.8Q259.924,573.251,260.083,574.011Z"/><path d="M348.464,596.156H365.71C358.882,600.362,352.614,600.274,348.464,596.156Z"/><path d="M198.928,557.313a48.427,48.427,0,0,1-.861,7.461c-.234.9-1.938,1.416-2.971,2.107-.153-1.049-.7-2.237-.384-3.122.825-2.335,2.022-4.538,3.07-6.794Z"/><path d="M547.255,547.939,544.9,535.357l1.249-.277,3.885,16.854-.94.371a17.989,17.989,0,0,1-1.071-1.924c-.339-.817-.553-1.685-.82-2.534Z"/><path d="M213.85,572.467l-2.238-1.3a18.054,18.054,0,0,1,2.983-.915,60.957,60.957,0,0,1,6.429-.516c.594-.015,1.2.563,1.807.869a5.7,5.7,0,0,1-1.744,1.022C218.965,571.966,216.817,572.139,213.85,572.467Z"/><path d="M322.923,301.265c2.565-5.431,23.008-15.848,30.242-15.29Z"/><path d="M326.666,278.919c2.722-1.45,5.356-3.111,8.19-4.295a86.491,86.491,0,0,1,10.122-3.365c.664-.185,1.621.682,2.443,1.064-.4.57-.685,1.472-1.22,1.66-6.082,2.133-12.2,4.16-18.317,6.191-.182.061-.454-.147-.684-.23Z"/><path d="M333.157,283.523c-6.274,5.283-12.177,10.253-18.076,15.225C314.919,294.786,327.3,284.2,333.157,283.523Z"/></svg>