<?xml version="1.0" encoding="utf-8"?>
<!-- Generator: Adobe Illustrator 24.2.3, SVG Export Plug-In . SVG Version: 6.00 Build 0)  -->
<svg version="1.1" id="Layer_1" xmlns="http://www.w3.org/2000/svg" xmlns:xlink="http://www.w3.org/1999/xlink" x="0px" y="0px"
	 viewBox="0 0 595.3 841.9" style="enable-background:new 0 0 595.3 841.9; fill: #215342;" xml:space="preserve" 
	 height="400" width="550" transform="translate(-113, -60)">
<g>
	<path d="M476.1,457.9c-4.7-3.4-9.7-6.6-14.1-10.3c-5-4.1-9.5-8.8-14.3-13.2c0.3-0.4,0.6-0.7,0.9-1.1c2.4,1.6,4.7,3.2,7.1,4.8
		c0.4-0.4,0.7-0.8,1.1-1.3c-4.3-3.5-8.7-6.9-13-10.4c0.5-0.6,1-1.2,1.5-1.8c2.7,1.6,5.4,3.2,8.1,4.9c0.2-0.3,0.4-0.6,0.6-0.9
		c-4.8-3.9-9.7-7.8-15.3-12.3c4,1.6,7.1,2.9,10.2,4.2c0.2-0.3,0.4-0.5,0.5-0.8c-5.2-3.9-10.3-7.7-16-11.9c3.4,0.6,6.6,1.1,10.7,1.7
		c-4.9-3.5-9.8-3.8-14.5-4.7c-5.1-1-10.4-1.4-15.5-2.5c-2.7-0.6-5.3-2.2-7.7-3.7c6,1.1,12.1,2.1,18.1,3.2c0.1-0.3,0.1-0.7,0.2-1
		c-5.2-1.7-10.4-3.4-15.7-5.1c0.1-0.3,0.2-0.5,0.2-0.8c5.6,1.2,11.1,2.3,16.7,3.5c0.1-0.2,0.2-0.5,0.3-0.7c-2.9-2.1-5.8-4.2-8.7-6.3
		c0.1-0.3,0.3-0.5,0.4-0.8c4,1.4,8.1,2.9,11.7,4.2c-3.7-4.2-7.5-8.5-11.3-12.8c0.3-0.4,0.5-0.7,0.8-1.1c2.1,1,4.3,2.1,6.4,3.1
		c-8.6-7-17.3-13.7-23.1-24.4c4.4,3.5,7.9,6.5,11.7,9.3c3.8,2.8,7.7,5.2,12.3,8.3c-8-8.4-15.4-16.2-22.8-24c0.2-0.2,0.4-0.3,0.5-0.5
		c3.7,2.3,7.3,4.6,11.8,7.4c-5.4-5.5-10-10.1-14.6-14.8c0.2-0.2,0.3-0.4,0.5-0.6c3.5,2.2,6.9,4.3,10.4,6.5c0.1-0.2,0.2-0.3,0.4-0.5
		c-4.7-5-9.4-9.9-14-14.9c0.3-0.3,0.5-0.6,0.8-0.8c2.3,1.6,4.6,3.1,6.7,4.6c-3.4-4.2-6.9-8.5-9.8-12.1c2.5,1.2,6,2.8,9.5,4.5
		c-5.8-5.6-12.4-9.8-20.3-12.1c0.1-0.4,0.2-0.9,0.2-1.3c4,0.4,8,0.8,11.8,1.2c-4.3-2.9-7.6-3.5-24.5-3.8c7.1-4.9,14.2-6.1,22-4.8
		c-1.1-0.5-2.3-0.9-4.5-1.9c3,0.3,4.8,0.5,7.4,0.8c-7.7-5.1-15.4-5.6-24.1-3.8c1.1-1.3,1.8-2.2,2.7-3.4c-2.5,0-4.6,0-7.4,0
		c1.5-1.1,2.5-1.8,4.4-3.1c-4.2,0-7.4,0-10.7,0c-0.1-0.2-0.2-0.4-0.3-0.7c2.7-1,5.3-2.1,8.6-3.4c-3.6-1.5-6.7-2.8-10.3-4.3
		c2.7-0.8,5.2-1.6,8.8-2.7c-4.3-0.9-7.4-1.6-10.9-2.3c0.3-0.7,0.6-1.5,1.2-2.8c-3.6-0.4-7-0.8-11.2-1.3c1.3-1.1,2.2-1.8,3.9-3.2
		c-2.3,0.3-3.7,0.4-5.2,0.6c0.1-0.6,0.3-1.2,0.8-3.2c-2.9,1.7-5,2.9-7.1,4.2c-0.2-0.1-0.5-0.2-0.7-0.3c2.2-3.2,4.3-6.4,6.3-9.3
		c-4.4,0.9-7.3,4.5-10,8.5c-0.3-0.2-0.6-0.4-0.9-0.6c2.3-3.4,4.5-6.8,6.8-10.1c-0.1-0.3-0.2-0.6-0.4-0.9c-5.2,2.8-10.4,5.5-15.9,8.5
		c1.5-6.2,6.5-10,10.3-14.7c-9.4,3.1-17.7,7.8-22.9,16.7c-0.4-0.3-0.7-0.5-1.1-0.8c2.6-3.8,5.1-7.6,7.5-11.2
		c-8.6,2.2-16.9,15.1-18.9,29.9c-0.3,0-0.6,0-1-0.1c0.3-3.6,0.6-7.2,0.9-10.8c-0.3-0.1-0.6-0.2-0.8-0.3c-1.8,5.4-3.7,10.7-5.5,16
		c-0.1-1.6-0.3-3.6-0.4-5.5c-0.4-0.1-0.7-0.1-1.1-0.2c-1.2,5.5-2.7,11-3.5,16.6c-0.8,5.6-0.8,11.2-1.2,17.5
		c-1.9-7.3-3.6-14.2-5.4-21.1c-0.2,0-0.3,0.1-0.5,0.1c-0.2,3.1-0.3,6.2-0.5,9.4c-1.5-11-4.7-20.9-13.1-29.9c0.8,4,1.4,7,2,10
		c-0.2,0-0.3,0.1-0.5,0.1c-0.3-0.5-0.5-1.1-0.8-1.6c-3.8-6.5-7.7-13-12.3-19.2c0,2.4,0,4.7,0,7.1c-2-5.4-5.2-9.5-11-11.8
		c1.2,1.8,2.2,3.4,3.3,5c-0.2,0.2-0.4,0.4-0.6,0.7c-3-2.5-5.9-5.1-8.9-7.6c-0.2,0.2-0.4,0.3-0.6,0.5c1.2,1.8,2.4,3.6,3.6,5.4
		c-0.1,0.1-0.2,0.2-0.3,0.4c-3.2-2.2-6.3-4.4-9.5-6.6c-0.2,0.3-0.4,0.6-0.6,0.9c1.6,1.6,3.1,3.3,4.9,5.2c-4-1.1-7.6-2.2-11.2-3.2
		c-0.1,0.2-0.2,0.5-0.2,0.7c3.6,2.2,7.2,4.3,10.8,6.5c-0.1,0.2-0.3,0.4-0.4,0.6c-4.1-1.7-8.3-3.5-12.4-5.2c-0.2,0.4-0.4,0.7-0.6,1.1
		c1.6,1.1,3.2,2.2,5.3,3.7c-5.1-0.9-9.5-1.7-13.9-2.5c-0.1,0.4-0.3,0.8-0.4,1.2c2.3,1.4,4.7,2.9,7,4.3c-0.1,0.3-0.1,0.6-0.2,0.9
		c-6,0-12,0-18,0c0,0.3,0,0.5,0,0.8c2.8,1.2,5.6,2.4,8.4,3.7c-0.1,0.2-0.1,0.4-0.2,0.7c-3,0.5-6.1,0.9-9.9,1.5
		c6.1,2.6,11.1,4.8,16.2,6.9c-0.1,0.3-0.3,0.5-0.4,0.8c-5.1-0.8-10.1-1.6-15.2-2.4c-0.1,0.4-0.2,0.7-0.3,1.1
		c2.2,1.1,4.3,2.3,6.5,3.4c-0.1,0.2-0.1,0.4-0.2,0.6c-3-0.3-6.1-0.6-10.2-1c2.1,2,3.4,3.2,5.3,5c-1.9-0.7-3.1-1.1-5.2-1.8
		c1.5,1.3,2.3,2,3.4,3c-7-2-13.6-3.8-20.2-5.7c0,0.2-0.1,0.4-0.1,0.6c6.6,4.5,13.1,8.9,19.7,13.4c-9,0.9-17.6-0.2-25.7,3.9
		c4.4,0.3,8.8,0.7,13.3,1c0,0.3,0,0.6,0.1,0.9c-3.1,0.5-6.1,0.9-9.2,1.4c0,0.3,0,0.5,0,0.8c3.5,1.1,6.9,2.1,11.4,3.5
		c-5.5,0.6-10,1-14.5,1.5c0,0.3,0.1,0.6,0.1,0.9c4.2,0.8,8.3,1.7,12.5,2.5c-8.2,1.4-16.2,2.7-22.7,9.3c5.8-0.6,11.1-1.1,16.5-1.6
		c0.1,0.4,0.2,0.7,0.3,1.1c-8.8,2.1-17.2,5-24.5,11.3c6.3-1.6,12.1-3,17.9-4.4c0.2,0.5,0.4,0.9,0.6,1.4c-12.2,2.5-20.2,11.1-28.7,19
		c6.4-3.4,12.8-6.8,19.2-10.2c0.1,0.3,0.3,0.6,0.4,0.8c-4.9,3.7-9.9,7.4-14.8,11.1c0.3,0.4,0.5,0.8,0.8,1.2
		c3.5-2.3,7.1-4.5,10.6-6.8c0.3,0.3,0.5,0.6,0.8,0.8c-8.5,9.1-16.9,18.1-25,26.7c4.6-2.2,9.9-4.7,15.5-7.3c-2.2,5.4-7,8.5-20.6,13.7
		c6,1.1,10.6-0.5,33.1-11.5c-6.5,7-13.7,11.5-21.5,15.8c5-1.6,10.1-3.2,15.1-4.8c-13.9,10.3-31.3,12.3-46.2,20.2
		c0.1,0.4,0.2,0.8,0.3,1.3c2.7-0.4,5.4-0.8,8.3-1.2c-0.9,1.3-1.7,2.5-2.6,3.8c1.4,0.7,2.5,1.3,3.6,1.8c1-0.9,2.3-2,3.7-3.2
		c0.4,0.4,0.8,0.8,1.2,1.2c-2,2.1-3.9,4.3-6.1,6.2c-8.4,7.5-16.9,14.8-25.4,22.3c-0.5,0.5-0.9,1.1-1.1,1.9
		c9.2-5.8,17.4-13.4,28.3-15c-5.3,5.5-10.8,11-16.8,17.1c3.4-1.3,6.2-2.3,8.9-3.3c-5.4,5.8-9.5,13.1-18.4,14.2
		c14.3,0.4,24.8,10.2,37.7,13.8c-9.4,1.1-18.1-1.6-26.8-4.4c-0.1,0.4-0.2,0.7-0.3,1.1c9,3.6,18.1,7.1,27.7,10.9
		c-25.1-4.3-44.1,6.4-60.9,23.6c-23.6-36.7-30.8-77.2-28.1-119.8c2.6-41.1,17.1-77.7,42.9-110c2.2,4.6,4.5,8.6,6.1,12.9
		c0.8,2.2,0.1,5,0.7,7.3c2.3,8.2,6.4,15.4,13,21.7c-3.5-7.3-6.7-14.1-9.9-20.8c0.4-0.2,0.7-0.4,1.1-0.6c1.3,0.9,2.5,1.8,3.8,2.7
		c0.3-0.2,0.5-0.3,0.8-0.5c-7.7-8.4-12.1-18.3-15.3-29.1c2.7,0.2,2.7,0.2,3.4-10c0.9,2.5,1.9,5.1,2.8,7.6c-2.2,9,3.2,22,11,27.1
		c-2.3-4.9-5.1-10.1-7.4-15.6c-1.6-3.7-2.5-7.7-3.7-11.6c2.2,2.9,4.5,5.8,6.7,8.7c0.3-0.1,0.6-0.2,0.9-0.4
		c-8.3-11.2-13.2-23.5-13.5-37.4c0.4-0.1,0.7-0.2,1.1-0.3c0.4,1.6,0.9,3.2,1.2,4.8c1.6,8.9,3.1,17.9,8.8,25.4c0.5,0.6,1,1.1,1,1.2
		c-2.6-8.4-5.4-17.4-8.4-27.2c1.4,1.2,2.1,1.9,2.5,2.2c-1.9-5.7-4.5-11.7-5.9-17.9c-3.3-14.2-1.7-28.3,1.8-42.2
		c2-8,4.8-15.9,7.3-23.8c0.6-1.8,1.5-3.5,2.4-5.2c4.7-8.5,10.4-10.8,19.1-6.4c7.7,3.9,15.1,8.6,22.2,13.5
		c13.1,9.1,25.9,18.7,38.7,28.1c13.2,9.7,23.3,22.2,31.9,36c0.7,1.1,1.3,2.1,2.3,3c-2.6-9.5-8.9-16.8-14.7-24.4
		c0.3-0.3,0.7-0.5,1-0.8c5.6,6.6,11.1,13.3,16.9,20.3c0.4-1.6,0.8-3.3,1.2-4.9c0.2-0.1,0.5-0.2,0.7-0.3c1.7,6.9,3.3,13.8,5,20.8
		c1.7-6.8,0.8-13.5-2.3-19.5c-2.9-5.7-7-10.8-10-16.7c2.3,2.6,5,5,6.9,7.9c6.1,9,11.5,18.4,12.8,29.5c0.4,3.5,0.1,7.1,0.1,10.3
		c2.9-3.4,2.9-10.1-0.4-20.5c31.9-7.9,63.9-8.9,96.7-2.9c-4.1,8.8-2.2,16.5,3.6,24.2c-1.2-4.5-2.8-8.4-3.2-12.4
		c-0.4-4,0.4-8.1,0.7-12.7c1.5,0.9,2.2,1.3,2.8,1.6c3.7-5.8,7.3-11.4,10.9-17.1c0.3,0.2,0.6,0.3,0.9,0.5
		c-5.5,8.7-10.7,17.5-9.1,28.6c1.7-16.1,10.3-28.2,22-38.4c-6.8,7-12.6,14.5-12.5,25c4.6-13.3,13.6-23,24.4-31.6
		c-3.4,7.2-6.8,14.3-6.9,22.5c5.1-13.2,11.6-25.3,23.2-34.1c11.1-8.5,22.7-16,36.2-20c0.2,0.3,0.4,0.6,0.5,0.9
		c-4.2,2.5-8.3,5.1-12.5,7.5c-12.8,7.2-25.1,15-33.9,27.2c-1,1.4-1.8,3.1-2.7,4.6c-0.3,0.5-0.4,1.1-0.3,1.8
		c7.8-10.4,17.3-19.1,28.4-25.3c10.6-5.9,19.8-13.6,30.5-19.2c6.6-3.5,13.8-4.8,21.2-3.2c9.2,2,14.5,8.7,18.1,16.9
		c4.9,11,6.3,22.7,5.5,34.6c-0.7,10-2.7,20-4.2,29.9c-0.1,1-0.3,1.9,0.2,3c1.5-5,3-10.1,4.4-15.1c1.4,24.3-6.3,45.8-19.5,66
		c3.1-3.7,6.3-7.4,9.4-11c0.2,0.1,0.4,0.1,0.6,0.2c-2.5,7-5,13.9-7.6,20.9c0.1,0.1,0.3,0.2,0.4,0.3c1.9-2.9,3.7-5.8,5.6-8.6
		c0.3,0.2,0.6,0.3,0.9,0.5c-4.8,9.5-9.6,19-14.1,28c8.9-3.1,18.1-28.1,18.5-38.1c-0.4-0.9-1.3-1.8-1.1-2.6c0.3-1.7,1-3.4,1.6-5.1
		c0.7-2,0.1-2,0-5.8c-0.1-2.4,1.7-4.9,3.3-7.3c0,4-0.2,7.9,0.1,11.9c0.1,2,0.5,4.4,1.6,6c18.8,25.7,31.4,53.9,36.6,85.4
		c3.7,22.2,3.6,44.4,0.5,66.7c-4.4,32.2-16.8,61.1-36.6,86.8c-1.3,1.7-2.8,3.3-4.5,5.3c-8-12.4-18.2-21.8-31.3-27.9
		c1.2,0.2,2.3,0.5,3.5,0.7c0.1-0.2,0.1-0.4,0.2-0.6c-1.9-1.1-3.8-2.2-5.9-3.4c7.9-4.7,15.6-9.2,23.2-13.7c-0.1-0.2-0.1-0.5-0.2-0.7
		c-3.5,0.2-7.1,0.3-10.6,0.5c-0.1-0.2-0.2-0.4-0.2-0.6c3.3-1.9,6.6-3.9,9.9-5.8c-0.1-0.2-0.2-0.4-0.3-0.6c-6.5,2.9-13,5.8-19.5,8.7
		c-0.3-0.4-0.5-0.9-0.8-1.3c5.5-4.2,10.6-9.4,16.7-12.2c6.2-2.8,13.5-2.2,20.3,0.6c0.1-0.4,0.2-0.8,0.3-1.2
		c-3.2-1.7-6.3-3.4-9.5-5.1l0,0c-4.6-3.8-9.3-7.5-13.7-11.6c-2.8-2.6-5-5.8-7.5-8.8c-2.2-2.6-4.5-5.2-6.4-8.3
		c12,8.4,24.1,16.8,36.1,25.1c0.2-0.2,0.4-0.4,0.7-0.6c-1.3-1.4-2.5-2.8-3.8-4.2c-0.4-1.2-0.6-2.4-1.2-3.5
		c-2.3-4.4-4.7-8.8-7.3-13.7c4,1.2,7.2,2.2,10.5,3.2c0.2-0.5,0.4-1.1,0.6-1.6c-5.6-2.3-11.1-4.5-17.5-7.1
		C467.9,444.5,472,451.2,476.1,457.9z M103.1,420.4c-1.9,2-3.9,4.1-5.8,6.1c0.3,0.3,0.6,0.7,0.9,1c4.6-3.7,9.2-7.5,13.8-11.2
		c-0.2-0.3-0.4-0.6-0.5-0.8c-1.2,0.3-2.4,0.5-3.5,0.8c0.3-0.3,0.7-0.6,1.1-1c-4.9,0.1-10.2,4.3-12.6,9.8
		C98.7,423.5,100.9,422,103.1,420.4z M104.5,434.6c-1,2.5-2,5.1-3.1,7.6c-0.6,1.5-1.4,3-2.1,4.5c0.4,0.2,0.9,0.4,1.3,0.7
		c3.3-5.9,6.7-11.8,10-17.7c-0.4-0.3-0.7-0.6-1.1-1c-1.7,2-3.4,4-5.1,6c3-4.1,6.1-8.1,9.4-12.6c-5.4-0.4-9.9,2.5-12,7.2
		c0.7-0.3,1.3-0.6,2.2-1c-2.8,3.3-5.2,6.3-7.7,9.2c0.2,0.2,0.3,0.4,0.5,0.6C99.4,437,101.9,435.8,104.5,434.6z M253.1,263.3
		c3.6,4,8,0.7,12,1.3c-0.4-1.1-0.8-2.2-0.8-2.2c3.7,0.3,7.6,0.5,11.4,0.8c0-0.3,0-0.6,0-0.9c-2.2-1.3-4.5-2.6-6.9-4
		c0,0.8,0,1.6,0,2.3c-0.3,0.2-0.6,0.4-0.9,0.7c-1.3-1.6-2.6-3.2-4.3-5.3c0,1.7,0,2.9,0,4.3c-1.4-0.5-2.5-0.8-3.9-1.3
		c0.2,1.1,0.3,1.9,0.5,3.4c-2-1.5-3.5-2.5-5.3-3.9c0.1,1.3,0.1,2.1,0.2,3.1c-1-0.5-1.7-0.9-2.8-1.4c0.4,1.4,0.7,2.4,0.9,3.3
		c-1.4-1.3-2.8-2.6-4.3-4c-0.3,0.8-0.4,1.4-0.8,2.4c-1.9-2.1-3.7-3.9-5.6-6c1,4.8,3.2,8.3,7.7,9.9c0.9,0.3,2,0.4,3,0.6
		C253.2,265.4,253.1,264.3,253.1,263.3z M458.4,363.9c1.9,0,3.8,0,5.7,0c0-0.3,0-0.6,0-0.9c-3.3-1.3-6.6-2.5-11-4.2
		c5.5,0.7,9.8,1.2,14.1,1.8c0-0.3,0.1-0.6,0.1-1c-3.3-0.8-6.5-1.7-10.3-2.7c5.9-3.1,10.1-7.1,13.2-12.7
		c-8.6,4.8-13.9,15.4-26.1,11.1c0,0.5-0.1,0.9-0.1,1.4c4.2,2.2,8.4,4.4,12.5,6.6c-0.5,0-1,0.1-1.6,0.1c1.6,2.1,3,4.1,4.7,6.3
		c-1.2,0.6-2.1,1.1-3.1,1.6c2.6,2.1,5,4.1,7.5,6.1c-0.2,0.2-0.3,0.4-0.5,0.7c-3.7-1.8-7.4-3.6-11.1-5.4c-0.1,0.3-0.3,0.6-0.4,0.8
		c5.9,5.5,11.8,10.9,17.7,16.4c-0.2,0.2-0.3,0.4-0.5,0.6c-1.4-0.6-2.7-1.3-4.1-1.9c6.3,8.6,12.1,17.3,16.2,28
		c-13.3-11.9-23.2-16.7-27.7-13.9c13.5,4.8,25,12.6,34.1,24.1c-1.9-6.1-4-12-6.7-17.6c-2.7-5.5-6.1-10.7-9.4-16.3
		c2.1,1.1,4.1,2.1,6,3.2c0.2-0.2,0.4-0.4,0.6-0.6c-4.3-4.5-8.6-9-12.9-13.5c0.1-0.2,0.3-0.4,0.4-0.6c3.2,2.3,6.4,4.5,9.6,6.8
		c0.1-0.1,0.2-0.3,0.3-0.4c-4.3-5-8.5-10-13-15.2c2.5,0,4.6,0,5.8,0C465.1,370,461.8,366.9,458.4,363.9z M186,255.6
		c-6.7-9.4-12.7-17.9-18.7-26.4c0.2-0.2,0.4-0.4,0.6-0.6c2.9,2.1,5.8,4.1,8.7,6.2c0.1-0.1,0.2-0.3,0.3-0.4
		c-6.3-7.9-12.5-15.7-19.2-24.2c2.4,1.5,4.1,2.7,5.8,3.8c0.1-0.2,0.2-0.3,0.3-0.5c-8.7-8.3-17.4-16.6-26.1-24.9
		c-0.2,0.1-0.3,0.3-0.5,0.4c2,3,4,5.9,6,8.9c-0.1,0-0.2,0.1-0.3,0.1c-7.3-6.6-14.7-13.3-22-19.9c-0.3,0.2-0.7,0.4-1,0.5
		c0.5,6.1,0.9,12.2,1.4,18.3c-0.2,0.1-0.4,0.1-0.6,0.2c-1-1.8-2.1-3.6-3.1-5.4c-0.3,0.1-0.6,0.2-0.9,0.3c1.5,7.6,2.9,15.1,4.4,22.7
		c-0.2,0.1-0.5,0.1-0.7,0.2c-1.2-2-2.5-4-3.7-6.1c-0.3,0.1-0.6,0.2-1,0.4c2.3,7.1,4.7,14.1,7,21.2c-0.2,0.1-0.4,0.2-0.7,0.3
		c-2.3-3.9-4.6-7.9-7-11.8c-0.3,0.1-0.7,0.3-1,0.4c3.1,8.9,6.2,17.9,9.1,26.5c-1-1.5-2.3-3.4-3.5-5.3c-0.3,0.2-0.6,0.3-0.9,0.5
		c1.9,4.6,3.9,9.2,5.8,13.8c-0.1,0.1-0.3,0.2-0.4,0.2c-2-2.5-4-4.9-6-7.4c-0.3,0.2-0.7,0.4-1,0.6c2.8,6.2,5.7,12.3,8.5,18.5
		c-0.2,0.1-0.3,0.3-0.5,0.4c-1.8-2-3.7-4.1-5.5-6.1c-0.3,0.2-0.5,0.4-0.8,0.6c2,4,4.1,8,6.1,11.9c-0.1,0.1-0.3,0.2-0.4,0.3
		c-1.6-1.7-3.3-3.4-4.9-5c-0.4,0.3-0.8,0.5-1.2,0.8c3.7,6.9,7.3,13.8,11,20.8c-2.1-0.5-3.6-1.5-5-2.7c-1.4-1.3-2.6-2.8-3.9-4.2
		c-0.3,0.2-0.7,0.5-1,0.7c3.6,6,7.2,12.1,11,18.6c-2-1.2-3.8-2.2-5.6-3.2c-0.3,0.2-0.6,0.4-0.9,0.6c3.1,4.4,6.3,8.9,9.4,13.3
		c-0.1,0.1-0.2,0.3-0.3,0.4c-2.4-1.4-4.9-2.8-8.2-4.6c4.8,9,10.9,15.3,20,19.4c-0.5-1.1-0.7-1.7-1.1-2.6c3.7,0.2,7.3,0.4,11,0.6
		c-0.6-1-0.9-1.7-1.3-2.4c1.9,0.1,3.5,0.2,5.6,0.4c-1.4-1.3-2.4-2.2-3.3-3c0.2-0.2,0.3-0.4,0.5-0.5c0.9,0.3,1.8,0.6,3.2,1.1
		c-0.8-1.2-1.3-2-1.8-2.9c1.5-0.3,2.8-0.5,4.4-0.9c-0.8-1.2-1.3-1.9-1.7-2.5c0.8-0.6,1.4-1.1,2-1.6c-0.9-1.2-1.8-2.3-2.5-3.1
		c1.3-0.3,3-0.7,5.8-1.3c-2.6-1.3-4.1-2.1-6.2-3.2c4.7-1,8.5-1.9,11.9-2.6c-1.5-2.1-3.2-4.3-4.8-6.6c0.2-0.2,0.4-0.4,0.7-0.5
		c0.6,0.3,1.1,0.6,2,1.1c-0.5-1.6-0.9-2.9-1.4-4.8c1.1,0.7,1.6,1.1,2.8,1.8c-0.4-2.7-0.8-4.8-1.1-7.1c0.7,0.4,1.3,0.7,2.7,1.6
		c-1.1-6.5-2.1-12.1-3-17.9c1.1,2.1,2.1,4.1,3.1,6c0.3-0.1,0.5-0.3,0.8-0.4c-1.7-4.7-3.4-9.5-5.1-14.2c0.1-0.1,0.2-0.1,0.3-0.2
		c1.6,2.6,3.3,5.1,4.9,7.7c0.4-0.2,0.8-0.4,1.2-0.6c-6-14.5-11.9-29.1-17.9-43.6c0.7,0.8,1.2,1.6,1.7,2.5
		c11.3,20.2,19.8,41.5,25.3,63.9c1.2,4.8,3.3,6.1,8.6,6.1c1.2-5.6-2.7-9.5-5.1-13.6c4,2.9,8,5.9,12.1,8.8c0.2-0.3,0.5-0.6,0.7-0.9
		c-8.1-6.3-11-15.7-15.3-24.4c1.9,2.1,3.8,4.2,5.7,6.4c0.2-0.2,0.4-0.3,0.6-0.5c-2.9-4.4-5.9-8.9-8.8-13.3c0.2-0.2,0.5-0.3,0.7-0.5
		c3,3.4,5.9,6.9,8.9,10.3c0.2-0.1,0.3-0.2,0.5-0.3c-3.1-5.5-6.1-11-9.5-17.2C184.1,254.7,184.6,254.9,186,255.6z M454,261.9
		c-0.3-0.3-0.5-0.5-0.8-0.8c3.1-6.5,7.9-12.3,8.9-19.8c-1.2,1.1-2.1,2.3-3.1,3.4c-0.9,1-2,1.9-3.4,3.2c2.7-8.2,5.1-15.7,7.5-23.1
		c-0.3-0.1-0.6-0.3-0.9-0.4c-0.7,0.6-1.3,1.3-2.4,2.2c0.8-4.8,1.5-9,2.1-13.3c-0.3,0-0.5,0-0.8-0.1c-0.6,1-1.2,2-1.9,3
		c-0.2-0.1-0.4-0.1-0.5-0.2c0.3-3,0.5-6,0.9-10c-1.3,1.9-1.9,2.9-2.5,3.8c0.2-7.6-1.5-14.4-4.8-21c-1.2-2.3-2.4-2.8-4.4-1.4
		c-2.8,2-6,3.7-8.3,6.2c-13.3,14.6-23.7,31.1-31.7,49.2c-0.1,0.3,0,0.8,0.1,1.8c1.6-2.8,2.9-5,4.2-7.1c1.3-2,2.7-4,4-6
		c0.3,0.2,0.5,0.3,0.8,0.5c-7.7,14.2-14.1,28.7-14.8,45.3c1.3-2.4,2.6-4.7,3.9-7.1c-1.6,9.2-2.3,18.4-1.2,27.6
		c0.1,0.8,1.4,1.5,1.8,2c0.3,3.4,0.6,6.6,0.9,10c2.2-0.3,4.2-0.5,6.6-0.8c-1.1,1.4-2,2.6-3,3.9c1.1,0.5,2.1,1,3.1,1.5
		c-0.7,1.4-1.2,2.6-2,4.3c2.3-0.5,4-0.9,6.9-1.6c-2.2,2-3.6,3.3-5.1,4.6c7.8,1.7,13.2-2.3,18.9-6.5c-2.1,3.5-4.2,7-6.8,11.5
		c8.5-4.3,12.3-12.3,18.8-17.3c-1.7,0.4-3.5,0.9-5.2,1.3c-0.3-0.3-0.6-0.6-0.8-0.9c0.8-1.4,1.5-2.9,2.4-4.2
		c3.5-4.8,7.2-9.6,10.8-14.4c0.6-0.9,0.8-2.1,1.4-4c-7.6,6-7.6,6-10.6,4.5c6.3-7.7,13.2-15,17.1-24.7c-3.6,1.1-5.5,5.4-10.1,3.7
		c3.7-4.5,7.2-8.7,10.7-12.9c-0.3-0.2-0.6-0.5-0.9-0.7C457.9,258.8,456,260.4,454,261.9z M402.8,216.8c0.2,0.2,0.4,0.4,0.6,0.7
		c2.2-1.1,4.5-2.3,6.7-3.4c-0.6,1.3-1.5,2-2.3,2.9c-4.6,5.5-10,10.5-13.2,16.7c-2,3.9-4,7.8-6.4,11.6c-2.2,3.5-4.3,7.1-6.5,10.6
		c0.2,0.1,0.4,0.3,0.7,0.4c3.2-3.5,6.5-7,9.7-10.5c0.2,0.2,0.3,0.3,0.5,0.5c-3.1,5.2-6.2,10.4-9.2,15.6c0.3,0.2,0.6,0.4,1,0.6
		c1.4-1.8,2.8-3.6,4.2-5.5c0.1,0.1,0.2,0.2,0.2,0.2c-2.9,6.4-5.8,12.8-8.7,19.3c0.2,0.1,0.4,0.2,0.6,0.3c1-1,1.9-2.1,2.9-3.1
		c0.1,0.1,0.3,0.2,0.4,0.3c-2.1,5.2-4.3,10.5-6.4,15.7c0.2,0.1,0.4,0.2,0.6,0.3c1.5-1.9,2.9-3.8,4.9-6.4c-0.9,4.7-2.3,8.5-2.2,12.2
		c0.1,4.4,3.4,6.3,8.9,6c1.6-6.9,3.5-14,4.8-21.2c1.1-6,0.8-12.3,2.2-18.2c5.4-22.7,16.8-42.4,32.1-59.9c4.2-4.8,7.7-10.2,11.5-15.4
		c-0.3-0.3-0.6-0.5-0.9-0.8c-9.9,7.2-19.8,14.4-29.7,21.6c0.2,0.3,0.4,0.6,0.6,0.9c1.9-1,3.9-1.9,5.8-2.9c0.1,0.1,0.1,0.3,0.2,0.4
		C411.9,209.6,407.4,213.2,402.8,216.8z M113,378.8c-12,14.6-20,31-25.2,46.1c4.4-4.4,10.3-10.3,16.3-16.3c0.2,0.1,0.3,0.3,0.5,0.4
		c-3.4,2.8-6.8,5.5-10.2,8.3c-0.2-0.3-0.5-0.6-0.7-0.8c4.9-4.6,9.7-9.2,14.6-13.9c-0.1-0.1-0.1-0.2-0.2-0.4
		c-3.4,2.1-6.8,4.2-10.2,6.2c8.2-13.9,13.5-29.8,29.1-37.9c-0.2-0.3-0.5-0.7-0.7-1c-5,2.4-10,4.8-15,7.2c-0.2-0.2-0.4-0.5-0.6-0.7
		c8.2-10,16.5-20,24.9-30.3c-3.9,1.9-6.8,7-11.7,3.7c-3.6-2.4-6.8-5.4-10.2-8.1c0.2-0.4,0.5-0.7,0.7-1.1c4.5,1.3,9,2.8,13.5,0.1
		c-8.8,0.9-15.6-3.3-22.3-8.3c5.6,8.1,8.9,18.4,20.5,20.2c-4.7,5.4-9.7,10.5-13.9,16.2c-4.1,5.7-7.3,12.1-10.9,18.1
		c0.3,0.2,0.5,0.4,0.8,0.6C105.8,384.4,109.4,381.6,113,378.8z M103.2,244.1c-5.6-28-5-55.3,7.4-82
		C97.3,177.7,91.3,217.8,103.2,244.1z M450.8,349.8c5.5-0.6,11.3-0.9,14.6-5.6c4.4-6.2,8.3-12.9,12-19.6c1.4-2.5,2-5.6,2.9-8.4
		c-0.3-0.1-0.6-0.2-0.9-0.4c-5.9,11.6-16.1,18.7-26.6,25.5c0.2,0.4,0.5,0.8,0.7,1.2c5.4-2.8,10.8-5.6,16.4-8.6
		C465.2,341.4,458.5,346.2,450.8,349.8z M154,176c8.6,8,17.2,16.1,26.3,24.7c-1-2.1-1.6-3.4-2.3-4.7c0.4-0.3,0.7-0.6,1.1-0.9
		c8.9,8.8,17.8,17.6,25.3,25C192.6,201.8,173.4,188.7,154,176z M467.4,181.3c0.5-5.4-3.5-11.3-8.9-14.2c-4.5-2.5-17.3-0.4-20.4,3.8
		C450.5,166.8,459.6,171.7,467.4,181.3z M459,418.9c6.3,6.6,14.3,9.3,22.6,11.9c-6.1-3.4-8.6-11.5-16.9-13.1c0.6,1.4,1,2.2,1.4,3.1
		C463.6,420.1,461.3,419.5,459,418.9z M271.9,248.2c-0.5,7.5,4.1,11.6,13.7,12.2c-0.8-1.1-1.5-2.1-2.3-3.1c2.8,0.2,5.4,0.5,8.1,0.7
		c0.1-0.3,0.1-0.7,0.2-1c-2.4-1.3-4.7-2.7-7.1-4C280.8,256.7,278.5,255.8,271.9,248.2z M462.9,427.1c0.4,9,7.3,10,12.4,12.8
		c-1.6-2.1-3.3-4.1-5.2-6.6c2.3-0.4,4.3-0.7,6.2-1c0.1-0.3,0.2-0.6,0.2-1C472.2,430,467.8,428.7,462.9,427.1z M450.4,336.6
		c8.6-1.8,24.4-11.9,24.6-18.7C466.9,324,458.2,330.6,450.4,336.6z M117,336.1c-3.9-11.5-6.7-15.9-14.3-22
		C107.3,321.9,110.2,329.8,117,336.1z M301.4,253.7c0-0.4-0.1-0.8-0.1-1.2c-2-0.1-4.1,0-6.1-0.4c-1.9-0.4-3.8-1.3-5.5-2
		c-0.2,1.2-0.4,2.6-0.8,5.1C293.1,254.7,297.2,254.2,301.4,253.7z"/>
	<path d="M389.2,629.7c-5.5,0.7-10.8,2-16,2c-8.4,0-12.3-4.4-13-13c-0.1-1.8-0.4-3.5-0.6-5.6c-7.1,0.5-14.6,1.4-18.7-5.7
		c-3.3-5.7-5.5-12.1-8.4-18.9c-20.1,4.5-41.7,6.7-63.5,6.1c-21.8-0.6-43.3-3.6-64.6-10c-0.9,3.2-1.5,6.3-2.8,9.2
		c-2.1,4.6-4.1,9.4-7.1,13.5c-4.3,5.9-10.3,8.7-17.8,6.8c-1.1-0.3-2.2-0.4-3.5-0.6c-0.3,0.7-0.7,1.4-0.9,2.1
		c-3.3,8.4-7.9,11.2-16.7,9.7c-5.3-0.9-10.6-2.6-15.7-3.9c-1.3,1.6-2.6,5.1-4.7,5.8c-4.1,1.3-8.8,1.6-13.1,1.1
		c-9.3-1.1-16.7-6-22.9-12.9c-0.8-0.9-1.9-2-2.9-2.1c-11.5-0.7-19-7.5-25.2-16.3c-13.8-19.6-16.3-40.4-6.1-62.3
		c7.1-15.4,17.1-28.5,31.4-38c21.6-14.4,44.7-13.9,65.1,2.2c18.4,14.5,31.2,33.5,39.9,55.1c2.5,6.2,2.6,13.5,3.3,20.3
		c0.3,2.5,1,3.6,3.3,4.3c24.6,6.8,49.7,9.7,75.2,9.1c15.8-0.4,31.4-2.4,46.8-5.8c3-0.7,4.9-1.5,5.2-5.2c0.7-7,3.7-13.3,7.9-18.9
		c14.2-18.6,29.8-35.9,50.4-47.8c16-9.2,32.8-12.7,50.3-5.2c22,9.5,34.8,26.9,40.2,50c6.5,27.6-9.5,52.2-27.7,64.2
		c-5.9,3.9-12.3,6.1-19.5,6.2c-1.4,0-3.2,0.9-4.2,1.9c-9,8.6-19.9,11.8-32.1,10.7C394,637.4,392.3,635.9,389.2,629.7z M126.8,564.6
		c0.1-0.1,0.3-0.1,0.4-0.2c1.7,3.3,3.5,6.5,5,9.8c4.8,10.4,6.4,21.5,7.3,32.8c0.7,9.1,2.2,10.7,11,13.3c1.8,0.5,3.7,0.8,5.6,1.1
		c7.3,1.2,9.8-0.4,11.6-7.5c2.6-10.6,2.2-21.2-0.4-31.6c-2.6-10-6.2-19.8-9.3-29.4c2.6,4.4,5.7,9.2,8.2,14.2
		c5.9,12.2,8.6,25.2,7.6,38.7c-0.2,2.8,0.9,3.8,3.3,4.5c6.9,2,11.3,0.3,15.2-6.8c8.2-14.9,10.6-31,4.8-46.7
		c-8.9-24.3-23.9-44.6-46-58.8c-12.6-8.1-26.5-8.8-40.4-3C94.2,502,82.3,514,73.3,529.1c-11.7,19.4-12.4,39.1-1.3,59
		c5,9,12.1,15.9,22.5,20.2c-4.4-12.5-5.8-24.6-4-36.9c1.2,7,1.9,14.1,3.6,21.1c4.4,18.6,16.1,29.7,33.6,32.4c4.7,0.7,6.5-0.3,7.2-5
		c1.8-11.1-0.1-22-2.1-32.8C131.3,579.5,128.9,572.1,126.8,564.6z M437.9,620.5c13.4-2.9,22.5-10.7,30.2-20.5c6.7-8.5,11.4-18,12-29
		c1-20.6-6.8-37.8-21.9-51.5c-11.1-10-24.1-15.8-39.3-13c-7.3,1.3-14.7,3.8-21.2,7.3C376.7,525,360,541.3,346,560.2
		c-9.6,13-10,27.9-4.2,42.8c2.9,7.5,6.6,8.9,14.2,6.7c2.3-0.7,3.5-1.8,3.6-4.5c0.6-14.9,6-28.1,14.8-40c1.2-1.6,2.5-3,3.8-4.5
		c0.3,0.8,0.2,1.3-0.1,1.7c-6.9,10.8-11.9,22.5-13,35.3c-0.7,8.4,0.4,17,1,25.5c0.2,3,2.5,4.5,5.4,4.3c4.5-0.4,9-1.2,13.6-1.9
		c3.4-0.5,4.6-2.8,5-6.1c1.2-11.7,4.8-22.7,10.1-33.2c2.5-4.9,5.8-9.4,8.7-14.1c0.3,0.2,0.5,0.3,0.8,0.5c-1.3,2.5-2.6,4.9-3.8,7.4
		c-6.7,14.1-11.2,28.8-11.6,44.6c-0.2,7.6,1.2,9,8.5,8.8c11-0.2,20.4-4.3,27.7-12.7c7.7-8.9,11.9-19.6,15.7-30.5
		c0.8-2.3,1.5-4.6,2.2-6.9C448.1,596.5,444.9,608.7,437.9,620.5z"/>
	<path d="M285.5,488.5c6.2,14.5,24.2,17.7,35.2,14.5c12.7-3.6,21.7-12.1,30-21.7c3.6-4.2,7.2-8.4,11.2-12.1
		c4.5-4.1,8.8-2.4,10.4,3.6c1.7,6.5-1.2,11.8-6.1,15c-19.3,12.6-33,30.4-46.4,48.6c-4.6,6.3-9.6,12.5-15.6,17.4
		c-14.1,11.6-39.1,8.4-49.9-6.4c-8.1-11.2-15.2-23-22.8-34.6c-8-12.2-18-22.6-30-31c-4.7-3.3-6.7-8-6.9-13.4c-0.1-5,4.9-8.2,9.4-5.9
		c2.4,1.3,4.5,3.3,6.5,5.3c8.7,8.5,16.8,17.6,26.1,25.4c9.5,7.9,21.1,9.9,33.3,7.3C277.1,499.1,282.5,495.4,285.5,488.5z
		 M320.5,517.5c-1.5-0.8-4-2.4-4.2-2.2c-3.4,3.9-6.4,8.1-9.5,12.2c0.3,0.3,0.7,0.6,1,0.9c4.4-3.2,8.7-6.3,13.1-9.5
		c4.4-4.1,8.2-8.6,9.4-14.6c-0.5-0.3-1-0.6-1.6-1c-1.3,2-2.5,3.9-3.5,5.4c-1.2-0.6-2.9-1.4-5.3-2.6
		C320.2,510.9,320.4,514.2,320.5,517.5z M283.4,530.5c-0.3,0-0.7,0-1-0.1c-0.4-1.2-0.7-2.5-1.4-3.5c-2.4-3.5-4.5-7.5-7.7-10.3
		c-4.1-3.6-10.2-1.4-11.6,3.3c-1.7,5.7,2.4,18.1,7.3,21.7c8,5.9,17,5.9,25.5,1.9c8.2-3.8,9.6-12.3,9.9-20.3c0.1-2.3-2.2-5.8-4.3-6.9
		c-2.1-1.1-5.8-0.8-8.2,0.4c-3.9,1.9-6.3,5.5-7.4,9.8C284.2,527.9,283.8,529.2,283.4,530.5z M246.5,516.9c0-3,0.1-5.1,0-7.1
		c-0.1-1.8-0.5-3.6-0.7-5.4c-1.3,1.2-2.5,2.3-3.8,3.5c-0.7-2.7,1.2-6.9-4.7-8.4c0.6,3.3,0.3,6.5,1.6,8.7c3,5.1,6.1,10.3,12,12.9
		c2,0.9,3.6,2.8,5.4,4.2c1.1,0.8,2.3,1.6,3.4,2.4c0.3-0.3,0.6-0.6,0.9-0.8c-2.3-3.6-4.6-7.2-7.1-10.7
		C250.7,512.4,250.1,512.4,246.5,516.9z M301.6,543.3c-13.5,8.5-26.1,8.9-38.4-2c1.5,7.4,6.9,11.4,17.3,12.8
		C287.7,555,297.9,552,301.6,543.3z"/>
	<path d="M287.4,431.1c8.7,0,17.4,0.4,25.3,4.6c12.4,6.5,14.5,22,3.5,30.7c-4,3.2-7.3,6.8-10.8,10.4c-13.3,13.4-34.7,9.8-42.9-7.2
		c-0.3-0.7-1-1.3-1.7-1.7c-11.5-5.7-12.9-22.4-2.6-30c6.1-4.5,13.2-5.9,20.5-6.7C281.5,430.9,284.5,431.1,287.4,431.1z M261.2,442.2
		c14.1-0.9,28.8-1.9,44-2.9C293.9,432.6,269.7,434.7,261.2,442.2z M296.6,465.4c0.6,4.2,4.1,6.4,7.8,4.8
		C301.7,468.6,299.1,467,296.6,465.4z M269.9,470.6c0.1,0.3,0.2,0.7,0.3,1c2-0.7,4.2-1.1,6-2.2c0.8-0.5,0.9-2.2,1.3-3.4
		C274.6,467.8,272.2,469.2,269.9,470.6z"/>
	<path d="M236.3,380.3c-1.1-9.1-2.4-17.4-11.9-21.2c0.2-0.4,0.5-0.7,0.7-1.1c2.5,1.4,5.4,2.5,7.5,4.4c5.5,5,7.2,11.9,8.2,19
		c1,7.2,1.5,14.5,2.4,21.7c0.2,2,1.1,3.9,1.6,5.7c-4.3,2.1-8.4,4-12.5,6.1c-13.1,6.6-26.9,3-35-9.1c-6.5-9.7-7.9-10.3-19.7-8
		c-1.5,0.3-3,0.5-4.5,0.8c-0.1-0.4-0.2-0.7-0.3-1.1c6.5-1.7,12.9-3.2,19.3-5c1.5-0.4,3.5-1.2,4.2-2.4
		C205.5,373.6,219.9,369.8,236.3,380.3z M206.1,385.8c-1,3-1.8,6.1-3.1,8.9c-1.6,3.3-0.4,5.9,1.4,8.4c5.5,7.5,13.2,10.6,22.2,9
		c11.8-2.2,15.3-7.7,9.2-18.5c-0.2-0.3-0.5-0.5-1-1c-5.1,9.1-11,17-22.9,11.7C205.5,401.5,204.3,395.6,206.1,385.8z M227.5,383.5
		c-1.5,0.8-2.2,2.5-1.8,4.1c0.8,3.8,3.2,6.8,5.3,6.4c1.4-0.3,3.2-2.2,3.6-3.7c0.6-2.9-3.3-7.3-6.1-7.1
		C228.1,383.2,227.8,383.3,227.5,383.5z"/>
	<path d="M395.1,403.4c-3.3-0.4-5.9-0.7-8.5-1.1c-4.9-0.7-8.5,0.9-10.8,5.3c-1,1.9-2.3,3.7-3.6,5.5c-7.7,10.6-20.7,13.2-31.9,6.2
		c-1.5-0.9-2.9-2.3-4.6-2.8c-5.6-1.7-6.3-5.6-5.7-10.7c1-8.5,1-17.2,2.6-25.5c0.9-4.5,3.8-8.8,6.5-12.8c1.9-2.8,5.1-4.5,10-4.1
		c-10.6,3.6-12.7,11.8-14,21c0.8-0.3,1.2-0.3,1.5-0.6c8.9-7.3,23.2-6.1,30.8,2.4c7.3,8.2,15.2,14.1,26,15.9
		C394,402.3,394.2,402.7,395.1,403.4z M335,395.3c-3.6,10.4-0.8,16.9,8.6,20.6c2.1,0.8,4.4,1.5,6.6,1.8c10.1,1.6,20.8-7.6,19.7-15.6
		c-2.5-0.9-4.5-1.6-6.5-2.3c-3.4,8.5-8.3,12.5-15.6,11.8C338.2,410.8,336.2,403.5,335,395.3z M365.1,390.4c-2.3-3.9-8.5-0.8-6.8,3.5
		c0.5,1.2,1.2,2,2.5,2.8c1.1,0.7,3.3,1.2,4,0.6c1-0.8,1.5-2.9,1.3-4.2C365.9,392,365.5,391.1,365.1,390.4z"/>
	<path d="M208.9,524.1c9.9,8.5,19.7,17,29.6,25.5c0.2-0.2,0.5-0.4,0.7-0.6c-3-5.1-6-10.2-8.9-15.3c0.2-0.2,0.5-0.3,0.7-0.5
		c4.3,5.9,8.6,11.9,13,17.7c5.3,7,10.5,14.1,18.7,17.8c16.9,7.8,38.2,7,52.6-12.7c3.9-5.3,7.8-10.5,11.8-15.7c0.9-1.2,1.9-2.3,3.6-3
		c-2.4,4.5-4.8,9.1-7.2,13.6c0.2,0.2,0.3,0.3,0.5,0.5c8.4-6.9,16.8-13.9,25.2-20.8c0.1,0.1,0.3,0.2,0.4,0.2
		c-2.6,3.1-4.9,6.5-7.8,9.3c-6.9,6.5-14.1,12.6-21.2,18.9c-1.8,1.6-3.6,3.3-5.3,5c-17.3,18.1-44.7,19.6-63.5,3
		c-10.3-9.1-20.2-18.5-30-28c-4.7-4.6-8.9-9.7-13.3-14.6C208.6,524.4,208.7,524.2,208.9,524.1z"/>
	<path d="M431.5,494.9c8.9-2.6,18-5.3,27-8C449.3,494.7,436.8,499.5,431.5,494.9z"/>
	<path d="M472.7,468.2c-3.4-0.5-6.9-0.9-10.3-1.7c-2.2-0.5-2.1-0.7-5.4-8.7C462.5,461.5,467.6,464.9,472.7,468.2
		C472.8,468.2,472.7,468.2,472.7,468.2z"/>
	<path d="M464.7,469.3c-2.1,3.3-10.9,2.9-18.7,0C452.7,469.3,458.7,469.3,464.7,469.3z"/>
	<path d="M127.3,470.7c-5.9-2.1-11.9-4.2-18.3-6.4c7.4-1.3,13.1,1.6,18.6,5C127.5,469.7,127.4,470.2,127.3,470.7z"/>
	<path d="M162.2,620c0,0-4.4-3.3-5.6-5.5c-1.8-3.4-3-7.3-3.8-11.1c-0.7-3,0.1-6.2,3.5-7.2c3.3-1,5,1.8,5.8,4.3
		c0.5,1.6,1,3.2,1.4,4.8C164.7,610.2,164.2,615.4,162.2,620z"/>
	<path d="M131.4,621.6L131.4,621.6c-1.6-0.9-3.6-1.5-4.6-2.9c-2.4-3.4-4.6-7.1-6.3-10.9c-1-2.2-0.9-5.2,1.7-6.4
		c2.8-1.3,5.5-0.1,6.7,2.7c0.9,2,1.6,4.1,2.3,6.1C132.4,614,132.5,617.9,131.4,621.6z"/>
	<path d="M184.6,608.3c-4.5-2-9.8-10.7-8.8-15.3c0.3-1.6,1.8-3.6,3.2-4.2c1-0.4,3.3,0.8,4.3,2C186.7,595,187.3,604.7,184.6,608.3z"
		/>
	<path d="M370.7,621.1c-2.7-6.2,0.8-19.3,5.9-22.9c2.4-1.7,5.9-0.8,7.1,1.9c0.3,0.7,0.4,1.5,0.5,2.2
		C384.6,608.2,376.9,619.1,370.7,621.1z"/>
	<path d="M398.9,628.6c-1.2-3.7-1.1-7.7,0.3-11.4c1.1-2.6,2.1-5.2,3.5-7.7c1.5-2.8,4.4-4,7.5-2.4c3.4,1.8,2.6,4.9,1.1,7.3
		c-2.4,4-5.2,7.8-8.1,11.4C402.2,627.2,400.3,627.8,398.9,628.6C398.9,628.7,398.9,628.6,398.9,628.6z"/>
	<path d="M350.5,608c-3.2-4.9-2.4-15.5,1.2-19.3c2.4-2.5,5.5-1.8,6.5,1.6C359.7,595,355.2,605.5,350.5,608z"/>
</g>
</svg>
