<?xml version="1.0" encoding="utf-8"?>
<!-- Generator: Adobe Illustrator 24.2.3, SVG Export Plug-In . SVG Version: 6.00 Build 0)  -->
<svg version="1.1" id="Layer_1" xmlns="http://www.w3.org/2000/svg" xmlns:xlink="http://www.w3.org/1999/xlink" x="0px" y="0px"
	 viewBox="0 0 595.3 841.9" style="enable-background:new 0 0 595.3 841.9; fill: #215342;" xml:space="preserve" 
	 height="325" width="375" transform="translate(-30, -25)">
<g>
	<path d="M300.3,660.4c8.4,12.1,14.5,24.1,15.2,38.3c0.8,18.5-5.1,23.7-20.3,33.5c-28.9,18.7-50.9,3.1-74.1-10.8
		c-1.4-0.9-3.1-2.2-4.5-2.1c-10.9,0.9-20.1-2.4-27.9-9.9c-1.2-1.1-2.2-0.9-3.5-0.5c-19.7,6.6-34.9,1.1-42.4-18
		c-5-12.7-13.3-22-22.3-31.2C85.7,624,50.9,588.3,16.2,552.6c-0.7-0.7-1.3-1.4-3.9-4.2c18.4,13.4,32.7,27.3,46.1,42
		c6.2,6.8,10.8,8.5,16.6-0.3c-8.8-14.6-15.4-30.8-18.5-48.3c-3.1-17.3-3.2-34.6,1.7-54c-8,12.8-12.3,24.8-17.2,38.3
		c-5.5-30.4-1.5-58.8,3.4-87.2c-1.1,2.3-2.2,4.6-4.3,9c2.1-15.8,6.4-28.7,10.8-41.5c4.8-14.2,10.7-28,17.7-41.2
		c3-5.6,3-10.9,0.5-16.7c-15.3-35.4-20-72.7-17.3-110.7c1.9-26.8,1.6-53.5,0.1-80.3c-0.5-9.1-0.4-18.4,3.6-27
		c4-8.5,9.8-9.5,16.7-3.4c6.5,5.8,11.8,12.5,17.2,19.2c18.9,23.1,44.7,35.9,71.4,47.1c12.5,5.3,25,10.3,36.7,17.3
		c1.1,0.7,2.9,1.2,4,0.8c14.8-5.5,31.7-7.2,40.8-22.8c1-1.8,2.3-3.4,4.4-6.4c2,6.2,3.3,10.2,4.7,14.3c31.8-24.5,37.6-27.4,46.2-22.7
		c-7.3,4.9-12.5,11.4-17,18.1c16,1,31.3-2.1,46.8-6.7c-4.3,4.7-8.6,9.4-13.2,14.5c7.5,2.8,14.3,6.7,20.8-0.9c1.3-1.5,3.2-2.7,5-3.5
		c37.9-15.7,65.2-45.9,96.5-70.7c4.2-3.3,8.4-6.8,13.5-8.7c8.6-3.2,17.9,0.7,17.5,9.1c-1.3,27.1,11.9,50.5,17.5,75.8
		c8.2,37.1,4.8,73.2-14.2,106.9c-4,7.1-2.9,9.3,8.6,18.1c-2.2,1.9-4.3,3.7-6.2,5.4c24.9,27.3,36.3,61,47.2,94.7
		c5,15.4,7.6,31.5,11.5,47.9c-9.8-2.9-18.5-5.5-28.5-8.5c10.6,18.7,17.1,37,20.2,56.6c0.2,1.3,0.5,2.6,0.6,3.9
		c1,12.1,2,21.5,17.7,26.6c23.3,7.7,36.7,45.8,27.8,68.8c-0.2,0.5-0.6,1.1-0.7,1.6c-2.6,14.7-20.4,11.8-26.9,24
		c-6.6,12.3-21.4,11.3-34.3,9.5c-2.5-0.4-3,1.3-4,2.5c-12.8,16.1-32.7,18.2-48.2,4.8c-1.5-1.3-2.7-1.2-4.3-0.8
		c-14.4,3.4-28.7-3.5-35-17.1c-1-2.2-1.8-3.6-4.6-3.4C374.4,645.7,337.8,652.9,300.3,660.4z M458.6,121.2l0.1,0.1
		c-4.5-2.1-8.1,0.6-11.2,2.9c-13.2,10-23.3,23.2-34.4,35.3c-15.9,17.3-30,36.4-55.4,41.3c-7.3,1.4-13.5,7.1-18.8,13.1
		c8.1,6.8,16,13.4,21.2,22.6c-25.7-22.9-55.4-33.3-89.9-29.6c0.4-1.2,0.8-2.6,1.2-4.1c-0.8-0.7-1.7-1.5-2.5-2.2
		c-4.3,5.3-8.6,10.6-14.6,18c1.7-7.2,2.8-11.6,4.5-18.7c-4.9,7-8.3,11.8-12.1,17.2c-1.2-6.4-2.2-12-3.5-19
		c-4.5,7.8-9,13.3-16.8,15.5c-7.1,2-14.2,4.4-21.1,7c-6.1,2.3-11.9,5.1-17.9,7.6c-0.2-0.3-0.3-0.6-0.5-1c1.9-1.4,3.9-2.8,6.1-4.4
		c-10-9.8-21.2-16.7-34.1-21.3c-31.9-11.3-58.3-30-77.9-57.9c-2.9-4.1-6.6-7.7-10.1-11.4c-1.5-1.6-3.7-2.7-6-1.6
		c-2.1,1-1.5,3.3-1.7,5.1c-1.2,12.4,4.5,22.4,10.6,32.5c12.4,20.5,27.3,39.2,45.3,54.7c7.5,6.5,15.6,13.7,25.7,17.2
		c4.7,1.6,8.3,5.5,14.2,1c4.7-3.6,11.4-4.6,17.2-6.7c-6.8,5.2-13.8,9.9-20,16.9c5.9-1.3,10.4-4.6,17.4-4
		c-29.6,16-53.8,35.5-70.5,64.8c3-0.4,4.7-0.7,7.4-1c-16.7,16-21.1,36.8-27,56.8c4.8-12.5,7.7-25.8,15.8-36.9
		c0.2-0.2,0.3-0.4,0.3-0.7c4.5-3.7,9-7.4,15.7-13c-2.4,4.2-3.4,5.8-5.1,8.8c3.1-2.7,5-4.4,6.8-6.1c0.2,0.2,0.4,0.5,0.6,0.7
		c-2.2,3.4-4.4,6.9-7,10.8c4.9-2.4,6.4-8.6,12.2-9l-0.1-0.1c0.9-0.3,2.2-0.4,2.5-0.9c2.7-5.5,8.7-8.2,9.8-15.9
		c0.8-5.7,8.7-11.2,17.9-10.4c-2.8,1.5-1.1,3.4-1.1,5.3c17.4-6.3,19.4-6.7,23.7-5c-18.8,5.6-33.1,17.3-43.3,31.5
		c1.4,7.2-7.9,10-4.5,16.5c-4.9,6.5-5,14.3-3.4,23c2.1,11.3-8.2,18.1-11.5,28.2c-1.9-2.4-1.4-5.5-4.3-5.8c-1.4,4.6-2.7,9.1-4.4,14.7
		c-1-2.1-1.5-3-2-4.1c-3.7,4.8-7,9.3-7.6,12.3c-11.2,4.7-14,15.5-22,20.8c-0.5-2.7,2.9-4.8,0.3-7.4c-2,2.5-4,4.8-6,7.2
		c1.2-2.8,2.4-5.6,3.6-8.4c0.6-1.5,1.1-3.4-0.7-4.1c-0.8-0.3-2.9,0.9-3.4,1.9c-2.5,5-4.6,10.1-7.6,17c3.9-3.1,6.1-4.8,8.3-6.6
		c-1.2,8.2-8.5,13.8-9.7,22.8c2.4-2.3,4.3-4.1,7.6-7.2c-3.5,7.2-7.8,12-9.7,20.2c8.2-11.1,16.3-19.5,28.7-26.4
		c-5.1,9.2-10,16.2-13.1,25.9c3.6-4.6,6.2-7.9,8.7-11.3c-8.4,18.5-14.6,37.4-14.7,57.9c0,20.2,4.5,39.4,11.9,58.1
		c1.1-17.2,4.8-33.4,14.5-49.3c-1,10.2-1.8,19-2.7,27.8c0.4,0,0.8,0.1,1.2,0.1c0.6-2,1.3-4,2.5-8c-0.2,12.4,1.2,22.4,4.6,32.2
		c0.4,1.3,1.5,2.3,2.2,3.5c5.4-4,16.3,1.1,17.1-10.9c2.4,6.2,2.4,6.2,9,5.9c20.9-1.1,40.8,2.9,60.1,10.8
		c12.5,5.1,24.2,11.5,36.6,18.6c-1.9-7.7-3.7-14.5-5.4-21.3c3.6,4.1,6.3,8.5,8.3,13.2c6.4,15.4,18.8,25.5,32.9,32.4
		c11.7,5.8,23.2,11.4,32.5,20.7c2.6,2.6,4.6,2.3,7-0.1c3.5-3.4,7.2-6.7,12.5-11.6c-1.9,4.5-2.9,6.7-4.7,10.9
		c17.7-18.2,25.9-39.6,37.4-58.9c-6.7,19.6-12.6,39.2-13.3,60.5c11.1-2.9,18.1-10,24.7-18.1c-0.6,2-1.3,4.1-2.3,7.2
		c14.1-11.3,21.7-26,29.6-40.6c-3.1,14.9-6.6,29.7-12.7,44.9c16.1-8.6,22.4-24,32.1-38.6c-0.2,3.3-0.3,4.8-0.5,6.3
		c5.2-11.2,9.3-22.7,15.2-33.6c6-11,14-20,25.6-27.7c-4.8,8.3-10.4,14.6-13.7,24.6c11.9-11.9,17.1-25.5,25.2-38.6
		c-0.7,6.7-1.4,12.1-2,17.6c0.5,0.1,0.9,0.2,1.4,0.3c1.4-2.8,2.8-5.7,4.5-9.2c0.3,2.3,0.5,3.8,0.7,5.6c9.6-6.2,19.9-8.3,31.1-7.8
		c-2.8-10.4-7.6-19.4-12.4-28.4c2.3-1.4,4,3.6,6.1-0.2c1.6,1.4,3.4,2.9,6.6,5.6c-5.8-10.4-13.6-17.1-21.6-27.3
		c16.6,10.3,27.6,22,36.1,38.1c-0.1-15.8-0.9-29.5-10.6-40.9c2.7,3.1,5.4,6.3,9.6,11c-7.3-31.5-23.3-54.8-46.5-73.8
		c15.6,7.7,30.7,16,46.5,26.7c-4.5-11.4-11.6-18.9-19.6-29c4.8,2.3,7,3.4,10.2,5c-7.3-10.2-19.2-12.2-26.7-20.4
		c0.4,1.1,0.7,2.2,1.1,3.5c-2.9,0.3-6.1-1-7.6-1.7c-6-2.8-12.5-7.4-15.9-11.8c-11.4-15.2-27.1-24.4-41.8-35.3
		c-3.9-2.9-10.9-5.5-6-12.3c3.4-4.8,1.4-8.4-0.9-12.2c-1.7-2.8-3.9-5.3-7.2-9.8c4.1,3.2,6.4,4.9,8.6,6.6c0.3-0.3,0.6-0.5,0.9-0.8
		c-4.2-5.6-8.4-11.2-13.6-18.2c3.2,2.1,4.9,3.2,7.7,5c-11.9-18.8-27-32-46-41.1c2.8-0.2,5.2,0,7.7,0.6c3.3,0.7,5.5,0.8,2.7-3.7
		c5.2,0.4,10,1.1,15.1,4.3c-1.9,0.4-2.7,0.6-5.4,1.2c11.6,3.7,18.2,10.5,23.3,19.4c5.1,8.8,13.7,15.4,15.3,26.5
		c1,7.1,6.2,10.7,13.3,12.3c0.1-1.7,0.3-3.1,0.4-5.3c6.1,2.7,11.7,5.3,17.4,7.7c1.7,0.7,2.9,4.1,4.9,2.4c2.7-2.4-2.4-3-1.6-6.5
		c9.8,7.8,22.8,3.2,33.2,9.7c-17.6-12.6-29.5-30.9-48.2-46.5c5.6,2.5,8.4,3.8,11.9,5.3c-7.9-11.8-14.2-23.9-23.2-33.7
		c-9.3-10.1-12.5-19.8-6.8-32.3c0.1-0.1-0.3-0.4-0.6-0.9c-3,1.2-6,2.5-9.4,3.9c4.1-11.1,12.9-18.4,19.5-29.1
		c-2.6,1.5-3.7,2.1-6.2,3.5c4.5-5.8,7.9-10.2,12-15.4c-2,0.7-3.2,1-4.1-0.6c12.2-17.1,22.5-35.7,38.3-53.5c-3.5,1.3-4.3,1.6-5,1.8
		c3.7-6.6,7.6-12.9,10.8-19.5C462.6,127.9,464,123.5,458.6,121.2z M136.4,658.9c2.7,7.6,5.3,15.4,8.3,23.1
		c3.6,9.1,8.3,17.5,18.1,21.3c6.9,2.7,13.9,2.9,19.9-1.9c5.6-4.6,5.7-11,4.4-17.7c-2.1-10.5-8.1-19-14.9-28
		c16.2,8,25.1,28.3,20.1,44.5c-0.6,2.1-0.2,3.3,1.3,4.5c6.4,5.5,13.5,9.3,22,6.3c8.4-3,7.6-11,8.4-18.4c2.2,6-0.1,11.7,0.2,17.3
		c8.5-17.9,2.2-34.9-3.7-52.7c10,13.1,19.6,40.2,9.1,56.7c-1.1,1.8-0.2,2.6,1.1,3.5c12.5,9.3,26.4,14.9,42,15.1
		c9.3,0.1,17.1-2.7,19.5-13.1c2.2-9.4,0.7-18.5-2.4-27.4c-4.6-13.5-12.8-24.8-22.1-35.4c20.9,17.4,36.1,37.6,30.7,68.2
		c9.3-8,11.5-17.5,9.7-27.2c-5.9-32.1-25.2-53.5-54.7-66.2c-2.8-1.2-5.8-1.5-8.3-3.6c-20.6-17.6-43.9-30.6-69.6-39.2
		c-32.7-10.9-64.6-10.9-94.7,8.6c-6.2,4-9.6,7.1-1.7,14c13.7,11.9,26.3,25.3,39.4,38c-3-6.3-5.5-12.9-6.7-22.2
		c5.9,14.7,14.4,25.1,23.2,35.9C135.7,661.1,136.1,659.8,136.4,658.9z M534.4,606.1c6.5,3.2,6,9.8,8,14.9c4.5,11.8,8.1,12.7,17.7,4
		c3.1-2.8,4.6-6.3,5.4-10.2c4-19.4-8.5-47-26.2-56.1c-13.4-6.9-28.9-6.1-43.3-9.8c-14.9-3.8-29.1,0.2-41.3,10.1
		c-8,6.5-13.4,15.8-24,19.5c-4.3,1.5-6.8,6.6-8.7,11.1c-7.2,17.5-6.4,34.9,0.5,52.2c3.5,8.9,10.4,13.5,19.6,14.6
		c5.7,0.7,10.6,0.7,7.7-8.2c-3.1-9.7-2.8-19.8,0.5-32.3c1.3,11.2,1.7,19.9,3.4,28.4c2.8,14.5,12.1,21.8,25.6,21.1
		c15.8-0.9,22.5-10.9,17.1-25.2c-3.6-9.5-5.2-19.4-4.7-32.7c3.6,11.8,5.2,20.9,8.9,29.5c6.1,14.1,7.5,15,22.6,12.7
		c1.3-0.2,2.5-0.6,3.8-0.8c9.1-1.5,13.9-7.4,12.5-16.6C538.3,623.6,536.2,615.2,534.4,606.1z M59.9,164c2.3,23.5,3,44.4,1.5,65.3
		c-1.5,20.9-2.7,41.8,3.7,63.1c2.2-3.2,3.8-5.5,6-8.8c1.1,4.7,1.9,8.3,3,13c0.7-2.3,1-3.4,1.8-5.9c0.8,4,1.3,6.5,2,10.2
		c0.5-3.1,0.9-4.9,1.4-7.9c2,5.2,3.6,9.3,6,15.4c0-5.2,0-8.3,0-14.1c2.8,7.6,4.6,12.8,6.7,18.5c1.6-4.1-0.1-7.7-0.2-12.9
		c2.2,6.1,3.8,10.7,6,17.2c7-20.4,21.9-32.9,33.7-48.5c-2.2,0.4-3.5,0.6-6.9,1.1c4.8-3.7,8-6.2,12.4-9.5
		c-16.3-4.3-28.3-14.6-41.7-22.8c3.6-4,9-4.3,14-6.5c-7.3-4.7-14.3-9.1-21.6-13.8c1.4-0.6,2.1-0.9,3.1-1.3c-3.9-3.2-7.8-6-10.4-11
		c3,0.7,5.5,1.3,8.5,2c-10.8-9.5-18.8-20.4-28.1-33.6c3.8,2.1,5.3,2.9,8.3,4.5C66,173,63.8,169.7,59.9,164z M466.5,264.6
		c0.5,0,1.1,0,1.6,0c0-12.5,0-24.9,0-37.4c0.4,0,0.8,0,1.2,0c0.5,8.8,1,17.7,1.5,26.5c-0.7-23.6,5.7-47.5-3.1-70.8
		c2.4,8.4,4.9,16.8,7.3,25.1c0.4-11.8-3-22.5-7.5-34c-2,5.9-6,9.3-8.6,13.5c-3.6,5.6-9.4,8.1-14.2,11.8
		c-12.8,10-16.9,24.8-22.4,38.6c1.3,1.3,2.9,2.8,4.2,4c2.1-1.3,3.9-2.4,5.4-3.3c1.5,7.3,4.9,14.4,4.7,22.2c0.6-4.1,1.1-8.1,1.7-12.2
		c0.3,0,0.6,0,1,0c0.4,5.7,0.9,11.3,1.3,17c0.3,0,0.6,0,1,0c0.7-6.4,1.3-12.8,2-19.2c0.2,0,0.5,0,0.7,0c0,8.8,0,17.5,0,26.3
		c2.1-11.2,6.6-21.9,6.9-33.5c0.6,6.8,1.3,13.6,1.9,20.4c0.3,0,0.6,0,0.9,0c0.3-2.6,0.6-5.2,0.9-7.7c0.2,0,0.4,0,0.7,0
		c0,4.7,0,9.4,0,14.1c0.3,0,0.7,0,1,0.1c0.7-7.2,1.4-14.3,2-21.5c0.4,0,0.8,0.1,1.2,0.1c0,8.9,0,17.8,0,26.6c0.2,0,0.5,0,0.7,0
		c0.6-6.6,1.2-13.2,1.8-19.8c0.6,0,1.1,0.1,1.7,0.1c0,4.5,0,9,0,13.5c0.5,0,0.9,0,1.4,0c0-9.9,0-19.7,0-29.6c0.4,0,0.8,0,1.2,0
		C466.5,245.4,466.5,255,466.5,264.6z M116.5,240.8c11.6,6.9,21.7,10.4,35.5,10.1c-10.2-2.8-18-4.9-28-7.6c6.3-1,10.2-1.6,15.7-2.5
		C131.5,240.8,125.1,240.8,116.5,240.8z M464.1,396.9c4.1,9.1,9,13.5,14.5,17.3c1.3,0.9,2.8,1.5,3.5-0.5c0.6-1.7-0.4-2.8-2.2-2.9
		c-2.9-0.2-4.4-2.1-6.1-4.2C471.7,403.7,468.8,401.4,464.1,396.9z"/>
	<path d="M553,548.2c18,12.7,30.4,41.3,27.8,61.6C568.5,565.6,568.5,565.6,553,548.2z"/>
	<path d="M167.2,502c-23.7-3.6-37.8-28.2-28.4-46.1c2.4-4.5,6.1-7.2,11.1-7.1c4.7,0.1,6.8,3.7,8.9,8.1c-1.5-0.8-2.3-1.2-3.3-1.7
		c10.5,29.2,42.5,52.6,70.5,52c17.3-0.4,30.6-11.2,31.2-25c0.2-3.5-0.6-4.9-4.5-4.9c-12.8,0.2-21.9-7.8-30.9-15.4
		c-2.2-1.9-4.1-3.8-6.9-4.9c-13.6-5.5-17.1-29.2-6.7-43.2c7.8-10.6,19.6-13.1,31.3-15.3c17.4-3.2,35-4.8,52.3,0.4
		c18.8,5.6,28.4,27.8,18.3,43.5c-5.5,8.4-13.5,15.4-21.1,22.2c-7.7,6.9-16.2,13-27.4,12.6c0.4,9.9,12.5,18.9,26.2,19.5
		c34.9,1.5,61.1-13.5,80.2-42.2c4.6-6.8,9.1-13.7,14-21.1c-2.3,0.4-3.9,0.7-7.5,1.3c3.9-2,6.1-3,8.8-4.4c-1.8-0.3-3-0.5-6.3-1
		c10.7-1.9,18.3-0.7,23.6,7.1c6.3,9.3,4.9,27.5-3.4,37.9c2-5.7,4-10.3,4.1-15.4c0.1-5,0.7-10.2-2.6-15c-4.3,2.7-7.6,6.3-9.7,10.5
		c-21.7,43.7-49.8,83.9-71.3,127.7c-4.9,10-7.7,21-15.9,29.3c-16.1,16.1-40.6,16.5-58,1.9c-15.5-13.1-21.1-32.2-31.2-48.5
		c-17.5-28.4-34.1-57.3-51.1-86c-2.5-4.2-5.5-7.9-9.5-10.8c-2.3-1.6-5-3.7-7.5-2.6c-2.9,1.2-2.9,4.8-3,7.7
		c-0.7,12.8,4.4,19.7,18.9,26C161.9,499.9,163.6,500.5,167.2,502z M231.5,578.5c5.4-4.6,9-1.6,11.9,3.1c3.1,4.9,5.8,10.1,8.9,15
		c9.4,14.5,29.2,13.4,36.9-2c2.2-4.4,3.5-9.2,5.7-13.7c3.1-6.6,6.7-12.7,14.5-3.8c2.2-4.1,3-8.3,1.4-12.1c-5.6-13-6.1-26.8-7.8-40.6
		c-1.7-14.2-10.4-18.5-23.3-12.3c-10.4,5-10.4,13.8-9.6,23.4c1,12.6,2.2,25.3,0.3,40.8c-0.6-6.8-1-10.7-1.4-14.6
		c-1.4-13.2-1.7-26.6-8.8-38.4c-3.6-6-9.1-10.1-16.4-8.2c-6.7,1.8-5.2,8.1-5.7,13.2c-1.6,14.8,2.1,30.4-7,44.1
		C230,574.1,229.8,576.4,231.5,578.5z M298.9,413.3c-3.9-9-11.5-10.7-18.9-11.1c-18.3-1.2-36.3,0.9-53.9,6.4
		c-5.8,1.8-10.3,5.4-13.5,10.5c-1.5,2.5-1.1,3.8,2,5.8c8.1,5.2,14.4,0.2,21.6-1.7c8.7-2.3,18.5-9,26.3,2.5c0.5,0.7,3.5,0.8,3.9,0.2
		c6.4-9,15.1-4.9,23.1-4.1c2.5,0.3,3.8-0.1,3.9-3c0.1-2.3,0.9-4.6,1.5-7.1C296.2,412.2,297.1,412.6,298.9,413.3z M348.9,482.9
		c-3.4,2.3-6.4,4.4-9.6,6.5c-6.5,4.2-7.2,11.7-1.6,17.2c1.3,1.2,2.7,2.4,4.6,1.3C346.3,505.6,351.3,487.7,348.9,482.9z M305.3,589.1
		c0-4,0.1-5.5,0-6.9c-0.2-2.5,0.3-6.1-2.7-6.7c-3.1-0.6-4.6,2.8-5.5,5.3c-1.8,4.7-3.2,9.6-4.6,14.5c-0.7,2.4-0.3,4.6,2.3,5.9
		c2.7,1.3,5,0.8,7-1.5C305.3,595.9,305.3,591.2,305.3,589.1z M295,605c-2.1-1.8-3.8-2.4-6.1-1c-11.7,7.4-23.5,8.6-35.3,0.3
		c-1.3-0.9-2.5-0.8-3.5,0.3c-1.4,1.5,0.1,2.3,0.9,3.2C262,618.9,284.6,617.6,295,605z M233.6,583.8c1,5.9,3.7,12,8.3,17
		c1.9,2,3.9,1.3,6,0.3c1.4-0.7,1.7-1.9,1-3.3c-2.9-5.7-5.7-11.4-8.7-17.1c-0.8-1.5-2.4-2.7-4.4-2.1
		C233.8,579.3,233.6,581.1,233.6,583.8z M286.4,427.6c-6.1,1-13.1,0.4-15,8.3c-1.9,8.1-0.8,15.8,6.4,21.2c3.3,2.5,7.1,2.7,11.2-0.5
		c-8.8-1.5-14.2-5.8-14.7-14.6C273.9,433.6,278.8,429.4,286.4,427.6z M208.2,509.7c-0.9,6.4-0.3,12.2,1.3,17.9
		c0.5,1.7,1.9,3.3,3.5,1.6c4.2-4.6,5.8-10.9,5.1-16.5C217.5,508.9,211.8,511,208.2,509.7z M316.6,557.6c4.2-2.8,5.5-7.2,7.7-11.1
		c0.8-1.4,2-3.1,0.4-4.8c-1.6-1.7-3.7-2.5-5.9-1.6c-2.8,1.1-6.4,1.8-6.9,5.3C311.1,550.1,313.7,554,316.6,557.6z M237.2,436.2
		c5,12.1,0.4,19.2-9.4,24.4c5.1,3.2,9.5,3.3,13.3-1C245.2,454.8,243.6,441.7,237.2,436.2z M328.4,516.8c-0.4,4.5,2.4,5.6,5,5.2
		c5.1-0.8,5-6,6.1-9.5c0.4-1.2-3.9-5.5-5.3-5.1C329.5,508.7,329.4,513.6,328.4,516.8z M322.4,531.9c0.1,3.4,1,7.8,3.6,6.8
		c4.9-1.8,6.1-7.7,7.3-12.3c0.7-2.6-3.2-2.5-5-2.5C322.6,524,323.2,528.8,322.4,531.9z M219.7,552.7c2.4,4.4,4.7,8.6,7.9,14.3
		c0.9-5.4,4.7-8.7,0.4-12.4C225.8,552.5,223.8,549.1,219.7,552.7z M213.4,535.9c2.1,4.5,2,9.8,6.5,11.9c1.5,0.7,3.5-2.9,2.6-5
		C221,539.3,219.3,535.4,213.4,535.9z M358.8,473.4c-3.6,3.2-11.6,4.6-5.2,12.5C356.5,482.1,358.2,478,358.8,473.4z"/>
	<path d="M150.6,378.9c9.3,4.6,15.6,14.6,28.1,12c-10.9-7.6-13.9-15.5-9.3-24.5c3.9-7.5,10.6-9.8,18.4-7.9
		c8.3,2,12.7,10.2,11.3,20.3c5.5-6.1,15.3-11.4,14.8-11.9c-10.7,17-29.9,34.2-45.9,52.3c-0.8-0.7,6.1-13.1,10.4-18.8
		c-4.1-2.2-7.8,0.1-11.5-0.4c-7-0.8-12.4-4.1-17.7-8.4c-7.2-5.7-19.6-4.2-27.9,2.8c-1.7,1.5-3.4,3.1-5.4,5
		c-0.9-4.5,1.1-7.6,3.5-10.1c4-4.2,8.2-8.4,12.9-11.8c11-7.8,19-18.2,26.8-29c7.3-10,21.3-13.1,30.9-8c9.2,4.9,17.6,22.8,14.6,32.1
		c-6.7-12.7-11.7-28-30.1-24C159.1,352.1,158.5,368.4,150.6,378.9z M195.3,377.5c-7,8.7-14.4,10.6-24.5,0.2
		c3.2,7.6,6.8,10.7,12.5,10.6C190.3,388.3,193.3,383.5,195.3,377.5z"/>
	<path d="M401.9,373.7c-5.7-4.4-10.6-6.7-15.8-8.6c-6.3-2.3-10.6,0.2-15.2,4c-7.2,5.9-16.1,8.6-24.9,11c-1.9,0.5-3.9,0.9-6.3,1.4
		c1.7,5.9,7.4,8.5,10,14.3c-20.5-13.6-36.9-31.9-60.9-38.5c9.2-1,17.4,1.3,25.6,6c0.2-8.2,2-15.3,5-22.2c6.3-14.6,27.6-19,36.4-6.1
		c9.8,14.5,24.8,20.3,38.3,29.1C396.9,366.1,399.9,368.4,401.9,373.7z M319.9,355.4c7.3-8.6,14.5-12,23.2-7
		c7.9,4.5,8.8,13.7,2.8,26.8c6.9-4.3,13.1-8,17.7-13.7c1.1-1.4,0.9-2.5-0.2-3.8c-2.8-3.5-5.6-7.1-8.1-10.8c-5-7.5-12-10.8-20.6-8.7
		C326.8,340,323.2,346.5,319.9,355.4z M324.1,370.9c6.8,5.2,12.1,5.5,17.2,2.5c4.9-2.8,6.2-7.5,5.3-16.1
		C343.5,371,336.3,373.9,324.1,370.9z"/>
	<path d="M175.1,277.3c-2.4-2.8-6.8-3.2-8.1-7c10.6-5.6,36.9,1.2,48.8,12.6c13.6,13,17.9,35.4,9.4,53.6c0.9-14.8,0.2-28-8-39.4
		c-8.3-11.5-20.4-16.2-34.8-18.7c1,1.1,1.3,1.5,1.6,1.9c0.4,0.4,0.9,0.7,2.4,1.9c-7.7-0.8-14.3-1.5-21.9,1.2
		c5.2,1.9,9.3,3.3,13.4,4.8c-0.1,0.4-0.1,0.8-0.2,1.2c-9.4-0.9-18.7-1.7-28.2-2.6C150.9,280.2,161.8,276.4,175.1,277.3z"/>
	<path d="M342.2,251.8c-4.3,5.8-9.7,8.9-15.2,11.8c-16.2,8.5-32.1,17.4-36.8,37.1c-3,12.5-1.9,25.1,1.4,38
		c-7.9-6.6-11.6-36.2-6.6-49.5C292.6,269.1,319.3,251.3,342.2,251.8z"/>
	<path d="M180.7,420.5c16.2-33.5,72-53.9,104.1-39.7C244.2,376.6,208.8,385.5,180.7,420.5z"/>
	<path d="M322.4,269.7c6.7-8.9,30.8-8.5,41.1,0.4c-6.1,3-12.7,2.9-19,4.1c-6.3,1.1-12.5,2.5-19.3,3.8c4.3-4.3,9.9-5.2,15-8.2
		C334,267,328.3,268.2,322.4,269.7z"/>
	<path d="M277,634c23.4-5.6,39.1-19.1,46.5-42.3C325.7,614.3,296,641.5,277,634z"/>
	<path d="M252.3,278.7c-2.5-13.6-2.8-26.2,0-39.4C256.2,252.5,255.2,265.1,252.3,278.7z"/>
	<path d="M381.1,422.9c11.7-3.5,21.6,3.2,24,16.2C400.3,428.5,392.5,423.8,381.1,422.9z"/>
</g>
</svg>
