<?xml version="1.0" encoding="utf-8"?>
<!-- Generator: Adobe Illustrator 24.2.3, SVG Export Plug-In . SVG Version: 6.00 Build 0)  -->
<svg version="1.1" id="Layer_1" xmlns="http://www.w3.org/2000/svg" xmlns:xlink="http://www.w3.org/1999/xlink" x="0px" y="0px"
	 viewBox="0 0 595.3 841.9" style="enable-background:new 0 0 595.3 841.9; fill: #215342;" xml:space="preserve"
	  height="450" width="500" transform="translate(-63, -126)">
<g>
	<path d="M110.9,591.7c-0.5-1.1-3.4,0-2.5-2.5c0-0.1-0.8-0.9-1.6-0.4c-3.7,2.6-5.6,2.9-4.9-2.9c0.3-2.4-2.9-4.7-5.2-5
		c-3.1-0.4-4.3-4.9-8.1-3.1c3.4,3,6.7,6,10,8.9c-1.1,4.2-3.6,0.8-5.4,1c-0.6-0.5-1.1-1.1-2-0.7l0.1,0.1c-0.3-1.7-2.2-1.6-3.1-2.6
		c0.4-2.4-3-3.6-2.4-6.5c-2.9-1.1-6.2,0.1-9.5-0.1c-1.2-0.1-1.3,2-1.7,3.2c-0.4,1.3-0.8,2.6-1.2,4c-2.8-1-3.6-3.3-4-5.5
		c-0.5-2.5-1.8-2.8-3.9-2.8c-15.1,0.1-30.2,0-45.3,0c0-0.4,0-0.7,0-1.1c13-0.6,26-1.1,38.9-1.7c-0.9-2.6,1.8-1.6,1.9-3.1
		c-0.8-1.3-1.6-3.1,0.6-4.2c1.5-0.8,1-1.7,0.8-2.6c-4.2-21.2,3.7-34.1,21.1-44.8c3.9-2.4,7-5,8.2-9.8c0.5-1.9,1.1-4.7,4.4-4.6
		c0.9,0,1.6-0.8,1.8-1.9c0.3-1.6,1.3-2.8,3.5-3.7c-0.5,1.4-0.9,2.3-1.5,3.7c1.1-0.6,1.8-1,2.8-1.6c0,2.4,0,4.5,0,6.5
		c1.1-2.4,0-5.1,1.5-7.6c1.3,2.5-0.6,5.1,0.7,7.4c0.3-3,0.5-6,1.7-9.7c0,3.3,0,5.7,0,8.1c0.1,0,0.3,0,0.4,0c0.3-3.5,0.6-7,0.9-10.4
		c0.2,0,0.4,0,0.6,0c0,3.2,0,6.4,0,9.6c0.2,0,0.4,0,0.7,0c0-3.9,0-7.8,0-11.7c0.2,0,0.4,0,0.5,0c0,2.4,0,4.8,0,7.3
		c2-4.3,0-8.8,1.2-13.6c0.2,4.4,0.1,8.3,1.3,13.1c0.2-3.3,0.3-5.6,0.5-8.6c0.2,2.7,0.3,4.6,0.4,6.6c3-21.1,1.7-42.3,1.5-63.5
		c1,20.3,2,40.6,2.9,60.9c0.2,0,0.4,0,0.7,0c0-63.1,0-126.2,0-189.7c-1.5,1.7-2.9,3.3-4.2,4.9c-2.3,2.8-4.9,5.3-7.8,7.4
		c-9.7,7.2-18.3,6.1-25.8-3.3c-2.4-3-4.8-5.6-8.6-7.2c-4.4-1.9-6.2-6.3-7.1-10.8c-0.6-3-1.9-3.3-4.6-2.6c-4.3,1.1-8.7,1.7-13.1,2.6
		c-1.8,0.4-2.2-0.1-1.9-2c2.1-11,11.8-19.8,22.8-21.2c31.9-3.8,62.2-13,90.6-28c9.3-4.9,17.3-4.7,25.7,1.5
		c7.6,5.6,16.1,8.9,25.8,8.5c7.2-0.3,14.4-0.1,21.6,0.5c-10.1,0-20.2,0-30.3,0c0,0.2,0,0.4,0,0.5c5.2,0.6,10.4,1.2,15.6,1.8
		c0,0.1,0,0.3,0,0.4c-2.8,0-5.6,0-8.3,0c5.1,1.7,10.3,1,16.3,1.6c-5.5,0.2-10.2,0.5-14.9,0.2c3.4,1.3,6.9,1.3,10.5,1.8
		c-2.1,0.1-4.1,0.2-6.2,0.3c0,0.2,0,0.3,0,0.5c3.3,0,6.6,0,9.9,0c0,0.2,0,0.3,0,0.5c-2.9,0.3-5.8,0.7-8.7,1c3,2.9,7.2,1.2,10.8,2.8
		c-1.9,0.1-3.7,0.2-5.4,0.3c0,0.2,0,0.5,0,0.7c25.2,0.5,50.5,1,75.7,1.6c-24-0.3-47.9,0.7-71.8,2.1c4.2,2.2,140.1,1.9,144.8-1.1
		c-9.9,0-19.7,0-29.6,0c0-0.4,0-0.8,0-1.2c11.7-0.4,23.5,0.5,35-2.6c-2.4,0-4.9,0-7.3,0c3-0.7,6.1-0.5,9.9-1.8
		c-28.7-3.1-56.5,0.2-84.3-1.2c28.5-0.3,57-1.5,85.6-1.5c-5.5,0-11,0-16.5,0c0-0.2,0-0.3,0-0.5c6.7-0.3,13.3-0.6,20-0.9
		c-4.2-1.1-8.7-0.1-13.6-1.8c5.7,0,10.7,0,15.7,0c-11.3-1.6-22.7,0.3-35-0.4c13.5-0.6,25.9-1.2,38.4-1.7c0-0.2,0-0.3,0-0.5
		c-5.5,0-10.9,0-16.4,0c6.8-1,13.8-0.6,20.5-2.4c0.6-0.2,1.2-0.4,1.7-0.7c11.2-8.2,24.2-13.7,35-22.7c5.5-4.6,6.3-4.3,11.2,1
		c6.8,7.4,15.9,10.8,24.8,14.5c20.1,8.2,40.9,13.9,62.6,16.2c3.3,0.4,6.1,1.6,8.5,3.8c5.6,5,10,10.6,11.3,18.6
		c-6.6,0.9-12.9,0-19.2-1.3c-1.9-0.4-3.3-0.4-4.8,1.2c-1.1,1.2-2.7,2.5-4.2,2.6c-5,0.5-7.6,3.6-10.5,7.2c-5.4,6.5-17,7-24.8,1.4
		c-1.1-0.8-2.1-1.7-3.4-2.7c0,67.7,0,135.2,0,202.7c0.3,0,0.5,0,0.8,0c0.7-21.4,1.4-42.9,2.1-64.3c0.7,24.5-0.7,49,1.3,74.2
		c0.9-4.5-0.2-8.5,1.7-12.2c0,4.7,0,9.4,0,14.1c1.6-11.2,1.6-22.4,1.5-33.7c0,10.7,0,21.4,0,32.1c0.2,0,0.5,0,0.7,0
		c0-6.1,0-12.1,0-18.2c1,7.8,0.6,15.7,2,23.5c0-6.7-0.9-13.4,0-20.6c0.4,8.1,0.7,15.8,1,23.6c1.5-0.2,0.8-1.2,1.5-1.6
		c0.2,0.5,0.3,1.1,0.8,2.8c0-3.4,0-5.6,0-7.7c0.2,0,0.5,0,0.7,0c0,2.5,0,5,0,7.5c0.2,0,0.4,0,0.7,0c0-2.1,0-4.1,0-6.2
		c0.1,0,0.2,0,0.3,0c0.1,1.3,0.2,2.7,0.4,4c0.2,0,0.3,0,0.5,0c0-2,0-3.9,0-6.3c0.4,0.5,0.5,0.6,0.5,0.7c-1.1,6.1,0.9,9.8,6.3,13.8
		c13.9,10.3,18.9,24.8,15.6,41.9c-0.3,1.3-0.1,2.2,1.2,2.9c2,1,0.5,5,4,5.1c-1.3,0-2.7,0-4,0c19.6,3.4,39.4,1.8,59,4.5
		c-19.5,0-39.1,0.1-58.6-0.1c-3.9,0-7.1,0.1-8.2,4.6c-0.2,0.7-1,1.3-1.6,2.1c-2.3-1.9-1.4-4.7-2.1-6c-6.3,0-12.1,0-18,0
		c-2.5,0-3.6,2-5.2,3.3c-3,2.5-6.5,4.4-6.3,9.4c0.1,2.7-2.6,1.9-3.6,0.5c-2-2.8-4.2-2.8-7.1-1.8c-3.5,1.2-7.1,1.4-10.1-1.7
		c-1-1.1-2.7-0.6-3.3-0.1c-3.5,2.8-7.8,3.2-11.7,4.7c0,0.9,0.9,0.3,1.4,0.8c-0.9,0.4-1.7,0.8-3.7,1.8c2.5-0.3,3.8-0.4,5.8-0.7
		c-3.6,2-6.9,2.2-9.9,1.6c-7.1-1.3-14.2-2.8-20.1-7.6c-1.2-1-2.6-1.3-4.1-1.3c-12.4-0.5-24.8-1-35.5-1.5c11.8-1.9,25.5,0.2,39-2.5
		c-16.5-1.7-33.1-1.6-49.6-1.1c3.7,0,7.5,0,11.2,0c0,0.2,0,0.3,0,0.5c-5,0.3-9.9,0.7-14.9,1c0,0.1,0,0.2,0,0.3c5.6,0,11.2,0,16.7,0
		c-7.6,0.7-15.2,0.7-22.8,1.9c3.7,0,7.4,0,11.2,0c0,0.1,0,0.3,0,0.4c-3.9,0.3-7.9,0.6-13,1.1c1.9,0.4,2.5,0.6,4.1,1
		c-2.8,0.2-4.5,0.3-6.9,0.4c1.1,0.4,1.7,0.6,2.4,0.8c-1,0.2-1.8,0.3-2.6,0.4c0,0.2,0,0.5,0,0.7c10.7,0,21.5,0,32.2,0
		c-11.1,1.5-22.2,0.1-33.2,1c3,0,6,0,9.1,0c0,0.2,0,0.3,0,0.5c-3.1,0.3-6.2,0.6-9.4,0.9c0,0.1,0,0.3,0,0.4c2.9,0.1,5.9,0.3,8.8,0.4
		c0,0.1,0,0.2,0,0.3c-3.3,0-6.6,0-9.9,0c0,0.2,0,0.5,0,0.7c5.4,0,10.8,0,16.2,0c0,0.3,0,0.6,0,0.9c-5.6,0-11.1,0-16.7,0
		c0,0.2,0,0.4,0,0.5c3.9,0,7.7,0,11.6,0c0,0,0,0.1,0,0.1c-4.1,0.4-8.2,0.8-12.3,1.1c0,0.1,0,0.2,0,0.2c3.7,0,7.5,0,11.2,0
		c0,0.2,0,0.3,0,0.5c-4.6,0.4-9.1,0.8-13.7,1.1c0,0.1,0,0.1,0,0.2c5,0,10,0,15.3,0c-3.2,0.4-6.2,0.8-9.5,1.2c4,1,7.6-0.8,11-0.1
		c-5.1,2.4-10.9,1.8-16.5,2.1c1.8,0.1,3.6,0.2,6.2,0.3c-1.1,0.3-1.4,0.4-1.6,0.4c-5.7-0.3-9.8,1.5-14,6
		c-8.8,9.6-20.4,13.6-33.4,13.8c-6.9,0.1-13.7,1.5-20.6,0.1c8.2,3.6,16.5,0.8,24.8,0.8c-6.9,2.2-14.3,1-21.2,3c2,0,4,0,6,0
		c-7.2,1-14.2,0.5-22.2-1.7c4,0.1,6.8,1.4,10.3,0.8c-3.8-0.9-7.1-1.7-10.7-2.5c1.8-0.9,3.3,0.9,5-0.1c-1.8-0.6-3.6-1.2-5.3-1.8
		c0-0.1,0-0.2,0.1-0.3c3.5,0.6,7.1,1.3,10.6,1.9c-5.8-2.2-12-3-17.4-6.5c1.5,0.3,3,0.7,4.5,1c-5.3-4.1-9.7-9.3-14.9-13.3
		c-2.9-2.3-7.6-1.1-11.5-1.6c1.7-0.1,3.3-0.2,5-0.4c0-0.1,0-0.2,0-0.4c-12.7,0-25.3,0-38,0c0-0.3,0-0.6,0-1c10.7,0,21.4,0,32.1,0
		c0-0.3,0-0.6,0-0.9c-3.3,0-6.6,0-9.9,0c0-0.1,0-0.2,0-0.4c5.3-0.4,10.6-0.8,15.8-1.1c0-0.1,0-0.3,0-0.4c-4.2,0-8.4,0-12.6,0
		c0-0.2,0-0.4,0-0.7c3.9,0,7.8,0,11.7,0c0-0.2,0-0.3,0-0.5c-2.4-0.3-4.8-0.5-7.2-0.8c0-0.2,0-0.4,0-0.5c1.8-0.1,3.5-0.2,5.3-0.4
		c0-0.1,0-0.3,0-0.4c-13,0-26,0-39,0c12.7-1.1,25.5,0.3,39.3-1.6c-3.9-1.6-6.8-1.4-9.6-2.2c2.2,0,4.4,0,6.6,0
		c-21.9,0.3-43.8-0.5-65.7-1.1c21.7,0,43.4,0,65.2,0c0-0.4,0.1-0.8,0.1-1.2c-2.2-0.4-4.5-0.7-7.5-1.3c2-0.2,3.3-0.3,4.6-0.5
		c-6.5-1.3-47.7-1.9-54.8-0.6c2.5,0.1,4.4,0.2,6.3,0.3c0,0.2,0,0.3,0,0.5c-4.6,0.3-9.2,0.5-13.8,0.8c0,0.1,0,0.2,0,0.4
		c5.6,0,11.2,0,16.8,0c-5.3,0.9-10.7,0.4-16.1,1.2c-2,0.3-3.7,0.2-5.3,2c-2,2.3-5,1-7.5,1.5c-4.2,0.9-8.4,0.5-12.7,0.4
		c1.6-0.8,3.6-0.3,5.3-2c-3.8,0.5-7.3-0.1-10.8,3.2c4.8,0,8.9,0,12.9,0c0,0.2,0,0.3,0,0.5c-4.4,0-8.8-0.2-13.1,0.1
		c-2.7,0.2-2.7-2.5-4.4-3.1c-5.6-1.7-10.5-6-17.1-3.5c-2.8,1.1-6.1,0.6-9.7-0.6c2.1,2.5,4.8,2.7,6.8,4.4c-2.9,0.8-5.7,0.4-8.3-0.6
		L110.9,591.7z M90.1,546.2c0.2-0.2,0.4-0.5,0.7-0.7c3.3-0.7,1.4,2.9,3.3,3.8c1.3-9,1.2-18.2,6-26.1c-9.2-3.9-16.9-1-26.4,9.4
		c-7.2,7.9-10,24.8-5.4,33.3c0.7-2,1.3-4,2.1-6c0.8-2,1.8-4.1,4.3-4.1c2.8,0,3.5,2.5,4.2,4.5c0.7,2.3,1,4.8,1.5,7.7
		c1.6-1.6,2.6-3,3.4-4.7c1.4-2.9,0-6.1,1.8-8.8c0.1,0.1,0.2,0.2,0.2,0.2c0.1,0,0.2,0,0.2-0.1C87.4,551.9,88.7,549.1,90.1,546.2z
		 M134.3,334.2c0.8-1,0.3-2,0-3c-1.5-5.3-2.2-10.6-0.4-16c0.2-0.5,0.5-1.2-0.5-1.7C130.6,320.6,130.8,327.5,134.3,334.2
		c1.5,1.1,0.5,2.5,0.5,3.8c0.1,4.5-0.1,9.3,4.5,11.8c4.9,2.7,10.3,2.8,15.6,1.6c-5.8,0-11.5,0-14.6-6.3c1.6,1.1,3.2,2.5,5.2,0.9
		c-0.3-1.5-2.3-1.3-2.4-3c5.8,2.8,11.2-0.6,16.9-0.2c-1.6-1.5-3.3-0.7-4.9-1c-3.2-0.7-6.5,1.6-9.6,0c-4.1-2.2-4.6-6.4-5.6-10.3
		c-2.6,1.9-2.6,1.9-2.4,10C135.9,339.3,137.5,335.7,134.3,334.2z M100.5,317.5c2.9-1.6,5.6-3.5,7.9-5.9c11.5-12.2,20.3-26.4,29.9-40
		c0-1.4,0.7-2.5,1.7-3.3c4.9-4.1,9.9-7.9,14.7-12.1c9.8-8.5,20.3-4.4,30.2-1.2c3.7,1.2,6.4,5.6,9.5,8.5c-3.2-6-7.6-10.9-13-14.9
		c-4.2-3.1-8.9-4.7-14.1-3.5c-12.8,3.1-22.4,10.7-29.3,21.8c-0.8,1.4-1.4,3.2,0.3,4.6c-1-0.2-1.7,0.1-2.4,1
		c-6.9,9.3-13.4,18.8-20.8,27.6c-4.5,5.4-8.4,11.3-13.9,15.9C100.8,316.4,100.8,317.1,100.5,317.5c-4.4,0-9,1.3-13-1.7
		c-1.7-1.3-3.4-2.8-5.7-4.8C86.8,319.2,92.8,321.1,100.5,317.5z M391.6,343.7L391.6,343.7c-2.4-2.1-4.8-4.3-7.3-6.3
		c-5.8-4.8-12.5-6.7-21-6.1c3.1,1.3,5.3,2.2,7.9,3.3c-2.1,0.6-3.7-0.7-5.6,0.3c2.7,1,5,1.9,7.4,2.8c1.3,0.5,2.6,1.3,1.2,2.8
		c-3.4,3.6-1.3,5.2,2.1,6.5c1.9,0.7,3.6,1.8,5.6,2.4c8.7,2.5,13.3,8.9,16.6,16.8c1.2,2.9,1.6,6.3,5,8c-3.8,0.1-5.6-2-6.5-5.3
		c-2.6-9.3-7.8-16.1-17.7-18.3c-11.2-2.5-20.1,0.8-26,9.5c-1.3,1.9-2.8,3.7-3.2,7.4c1.9-2.4,3.1-3.8,4.3-5.2
		c8-9.5,21.5-10.4,30.8-2.1c3.3,2.9,5.9,6.4,8.1,10.2c2.8,4.8,6.8,8.2,12.2,10.2c-2.9,1.5-5.8,1.2-8.5,0.6c-3.4-0.8-5.5,0.4-7.7,2.9
		c-8.4,9.6-18.5,11.2-29.7,5.1c-3.4-1.9-6.9-3.2-10.7-3.8c-1.1-0.2-2.3-0.5-3.1,1.3c4.6,0.5,8.9,1.5,12.4,4.2
		c9.8,7.6,20.2,9.5,32.2,2.4c-4.5,5.3-10.1,6.5-15.3,8.6c1.2,2,2.9,2.1,4.6,2.3c7.5,0.6,13-2.9,16-10.1c1.2-2.9,2.2-5.9,3.3-8.9
		c-0.4,16.3-11,21.6-26.1,22.8c10.9,4.1,18.2,2.1,24.7-6.6c0.9-1.2,1.9-1.2,3-1.3c0.3,0.9-0.9,1.6-0.3,2.4c0.6,0.2,1-1.1,1.8,0
		c-0.3,1.2-0.4,2.6-0.9,3.8c-1,2.5-2.3,4.8-3.3,7.2c-0.5,1.1-0.9,2.6,0.5,3.5c1.1,0.7,2.3,0.1,3.2-0.6c1.2-0.9,2.5-1.7,3.5-2.8
		c1.2-1.4,3.3-0.4,3.3-0.3c2.7,5.2,7.3,4.4,11.8,4c1-0.1,2.1,0.4,3.1,0.7c1.6,0.4,3.2,0.8,4.7,0c1.8-1,0.5-2.9,0.6-4.7
		c4,8.3,4.5,14.3,2.2,23.5c-0.5,2-1.6,4,0.6,6.2c3.3-9,4.8-17.8,1.1-26.8c-1.6-4-3.5-7.9-5.3-11.9c-1.4-3-2-6.1-2.2-9.5
		c-0.5-9-1.1-18-4.1-26.6l0,0c3.5-1.2,4.3-4.6,4.8-7.3c1.8-9.4,6.9-12.7,16.4-11.8c6.5,0.6,11.4-3,13.6-9.4
		c2.4-7.3,4.8-14.7,6.7-22.2c1.6-6.2,2.7-12.5,8.6-17.2c-2.2,0.1-3.1,1-4,1.9c-3.5,3.7-5.1,8.3-5.8,13.2c-1.1,7.6-3.9,14.5-6.8,21.5
		c-0.3,0.7-0.8,1.7-1.5,1.9c-4.5,1.4-9.1,2.8-13.8,2.2c-3.9-0.5-7.8-0.8-11.7-0.9c-7.1-0.2-12.8-2.3-17.6-8.9
		c-11.6-15.8-24.8-30.2-43.1-38.7c-2.4-1.1-4.6-2.5-7.1-3.9c6.2-5.8,12.2-11.4,18.2-17c-1.8,0-3,0.6-4.2,1.4
		c-8.1,5.7-17,9.6-26.5,12.1c-3.7,1-7.4,1.6-11.3,0.4c-10.4-3.1-20.5-2.1-30.5,1.7c-6.5,2.5-13,2.1-19.5-0.8
		c-8.8-3.9-17.8-4.4-27-1.4c-5,1.6-10.1,2.9-15.2,4.4c-0.1-0.2-0.1-0.4-0.2-0.6c2-0.8,3.9-1.5,5.9-2.3c-21.1-8.5-40.2-20.3-60-33.5
		c2.6,3,4.4,5,6.1,7c7.9,9.5,15.5,19.2,18.9,31.4c1.5,5.3,3.5,6.2,8.6,4.1c4.2-1.8,8.5-3.2,12.8-4.7c-1.9,1.6-4,2.5-6.1,3.5
		c-2.1,1-4.2,2-6.2,3.2c-1.9,1.1-4,2-6,4.6c1.7-0.9,2.5-1.3,3.4-1.7c11.8-5.7,24.3-9.4,37.3-11.3c3.7-0.6,7.6-0.3,10.7,3.1
		c-2,1-3.3-1-4.7,0.1c5.8,8.1,6,10.6,1,17.7c-3.2,4.6-7.5,8-13.5,10.4c1.2,0.6,1.9,1,2.7,1.4c-8.1-1.6-17.7-1.3-21.3,1.1
		c9,0.2,17.8,0.9,23.9,9.4c-1.5,0.4-2.1-1.3-3.4-0.6c0.7,3.1,1.1,6.2-1,9c-2.9,3.7-1.3,7.3,0.8,10.5c1.3,2,3.3,3.6,5,5.4
		c6.5,7,10.4,14.9,7.8,25.2c2.6-0.5,5.1-0.9,7.7-1.4c-1.2,0.9-2.5,1.3-3.8,1.7c-12.3,3.8-22.3,10.7-29.2,21.7
		c-3.4,5.4-6.9,10.7-10.5,15.9c-5.9,8.3-13.6,13.5-24.1,13c-5.5-0.3-10.8,0.5-16.2,1c-8.5,0.9-15.1,7.8-15.5,16.7
		c5.2-4.2,10.8-7.1,17.5-7.3c-5.9,1.9-11.2,4.9-15.8,9.2c-12.3,11.2-10.9,30.2,2.9,37.1c2.3,1.2,4.9,1.9,8.2,3.2
		c-2.9-0.1-4.9-0.2-7.4-0.4c4.8,6.5,7,13.9,12.1,19.8c6.7,7.8,12.5,16.2,16.3,26c5.3,13.8,15.7,23.4,28.3,32.2c-1.1-3-1.9-5.3-3-8.5
		c3,3.7,4.4,7.2,5.1,10.8c1.7,9.3,6.4,16.9,12.6,23.9c8.4,9.4,17.1,18.5,30.3,21c9.5,1.9,19,0.7,28.5-0.3
		c18.8-2.1,35-16.3,39.1-34.9c1.5-6.8,3.4-13.4,7.5-19.1c-0.4,2.1-1.6,3.9-1.4,6.4c5.2-5.1,10.7-9.2,16.4-13.1
		c5.2-3.6,9-8.4,11.3-14.3c3.6-9.2,8.6-17.5,14.5-25.4c3.1-4.1,6-8.4,9.1-12.8c-1.3,0-2.4,0-3.8,0c10.2-4.6,14.5-9.1,18.5-19.5
		c3.1-8.1,5.3-16.4,9.6-24.1c4.2-7.5,1.2-14.6-3.6-21c-5.2-6.9-12.2-9.6-20.7-8.3c-9.3,1.4-18.1,6.8-27.9,3.2
		c-0.1,0-0.3,0.3-0.4,0.5c0.8,1.4,2.3,1.7,3.7,2.2c4.7,1.7,9.4,1.1,14.1-0.2c8-2.2,15.5,0,23,2.6c1.5,0.5,2.4,1.7,3.3,3.2
		c2.3,3.9,2,8.2,2.4,12.8c1.3-2.7,1.3-5.2,1-7.6c-0.3-2.4-1-4.8-1.6-7.5c3.7,4.7,5.1,10.4,2.9,16.4c-4.4,12.3-8.1,25-14,36.7
		c-2.8,5.5-7.4,9-13.5,10.2c-0.4,0.1-0.8-0.1-1.3-0.2c0.4-0.6,0.6-1.1,1-1.6c-2.8-0.6-4.8-1.8-4.4-5.7c-1.6,2-2.7,3.2-3.6,4.6
		c-7,9.8-11.9,20.8-18.5,30.8c-11.6,17.9-24.5,34.9-33.9,54.2c-5.3,10.9-15.1,17.3-27.4,19.2c-7.2,1.1-14.4,1.4-21.6,0.7
		c-11.6-1.1-21.7-5.4-29.8-14.2c-5-5.4-8.2-11.9-11.9-18.1c-9.5-15.9-21.3-30.5-29.1-47.5c-5.4-11.7-12.2-22.6-19.7-33
		c-5.5-7.7-11.4-15.1-18-23.7c0.5,4.6,0.8,7.8,1.1,10.9c-2.6-3,0.5-8.2-3.9-10.7c-2.1,2.8-2.1,2.8-3.2,9.5
		c-1.3-9.7,2.4-14.9,12.1-17.2c8.1-1.9,16.5-1.2,24.6-3.4c-8.2,4.3-17.9,3.2-26.9,6.9c6,3.5,10.8,7.5,15.4,11.7
		c7.9,7.2,14.4,15.6,22,23.1c6.1,6,13.1,10.5,21.8,11.8c13.1,2,25.5-1.3,37.9-5c3.8-1.1,7.8-2.2,10.9-5c2.4-2.1,4.4-9.3,2.7-10.4
		c-5.4-3.7-11-7.1-15-12.5c-0.3-0.4-1.2-0.5-1.7-0.8c-6.8-4.7-13.5-9.5-17.2-17c-2.6-5.2-4.5-10.8-6.3-16.3
		c-4.3-13.1-1-21.2,11.2-27.8c15.4-8.2,31.8-8.6,48.4-5.2c19.3,4,26.5,11.2,29.8,29.4c1.9,10.3,4,20.5-1.1,30.8
		c-2,4-5.2,8.3-2.4,13.4c0.1,0.3-0.3,1-0.6,1.4c-3.8,5.5-3.8,8,0,13.4c1.2,1.7,2.2,3.6,3,5.6c2.7,7.7,2.7,7.7,10.8,5.5
		c0.9-0.2,1.8-0.6,2.7-0.9c15.1-5.7,23.7-18.5,31.8-31c4.8-7.4,8.9-15.4,14.1-22.6c-3.5-1.9,1-4.4-0.9-6.5c-3.2-0.4-6.2,1.1-9.3,1.8
		c-12.2,2.7-17.7-0.1-22.6-11.5c-4.2-9.7-8.1-19.6-12.8-29.1c-6.5-13.1-16-23.2-30.6-27.4c-2.8-0.8-5.7-1.6-8.5-2.4
		c6.2,0.2,11.9,2.2,18.2,4.1c-0.5-0.7-0.6-0.9-0.9-1.1c-16.3-11-19.6-27.6-19.1-45.5c0.2-6.6,4.1-11.9,7.3-17.4
		c2.1-3.6,1.5-4.9-2.1-5.2c-0.2-2.2,2.1-3.3,2.6-5.2c-5.5,0-6.2-0.8-6.4-6.7c-0.1-2.2,0.4-4.5,0.1-6.7c-0.8-4.9,2-10.5,6.6-12.3
		c2-0.8,4.3-1.2,3.6,2.4c-0.2,1.3,0,2.1,1.4,2.3c4.7,0.6,4.4,3.7,3.7,7.1c-0.3,1.6-1.7,3-1.2,5.5c15.3-2.7,29.5-0.3,41.5,10.3
		c-9-3.9-17.9-8.5-28.2-6.5c2.5,0.8,5.1,0.9,7.6,1.6c18.5,5.1,29.7,18.9,39.7,34C392.3,342.4,393.2,343.4,391.6,343.7z M450.1,551
		c1.2-11.8,0.8-13.2-9.9-30.1c2.5,1,3.6,3.3,5.9,4.8c-2.6-2.8,2-4.4,0.9-7c0.2,0.4,0.4,0.9,0.6,1.2c1.5-1.2,0.7-3.1,1.7-5.4
		c0.8,5.3,0.7,9.9,2.6,14.1c0-2.6,0-5.3,0-7.9c0.1,0,0.2,0,0.3,0c0.1,2.7,0.2,5.4,0.4,8.9c0.7-1.8,1-2.8,1.5-4.3
		c0.3,7.4-0.9,14.3,0.5,21.6c0.8-2.4,1.4-4.2,2.3-7.3c0.3,2.6,0.5,3.9,0.5,5.3c0.3,8.9,0.2,17.8,1.4,26.7c0.8,6.4,5.3,11,11,11.6
		c-3.2-5.1-4-10.5-2.5-16c0.9-3.1,1.1-7.5,5.4-7.7c4-0.1,4.6,4,5.9,7c1.7,3.8,1.1,8.1,1.7,12.2c7-4,9.7-10.1,8.2-17.9
		c-1.3-7.1-2.6-14.1-3.3-21.3c-1.2-12.8-6.5-23.9-17-31.9c-7-5.3-13.6-4.9-20.3,0.9c-0.7,0.6-1.4,1.2-2.2,1.9
		c-2.4-2.9-5-5.6-8.7-5.6c-7.1,0-13.6,2.1-18.2,7.6c-3.9,4.6-2.3,10.1-0.1,15.1c2.6,5.9,3,11.8,1.2,18c-0.9,3.3-1.8,6.6-2.5,9.9
		c-2.9,12.8-0.5,18.9,9.5,24.7c0-0.9,0-1.7,0-3.2c1.7,5.5,1.9,5.7,4.8,6.5c-0.1-4.3,0-8.5,1.5-12.6c1-2.8,2-6.3,5.6-6.1
		c3.8,0.1,4.4,3.9,5.1,6.8c1.2,4.8,0.8,9.7,0.1,14.6c4.4-1.3,6.8-4.7,7-9.9c0.2-4.9-0.2-9.8-1.6-14.5c-2.4-8-0.8-16.3-1.8-24.4
		C449.8,541.8,449.7,546.4,450.1,551z M152.5,585.5c5.8-3.2,10.9-5.7,14.2-11.1c4.1-6.9,3.5-14.1,1.5-20.9c-3-10.2-4.1-19.9,0.5-30
		c1.9-4.2,0.7-8.8-3-11.9c-4.3-3.8-9.6-6-15.4-6.2c-8.2-0.3-13.8,8.5-12,18.3c0.4-0.9,0.8-1.7,1.3-2.7c0.3,1.3,0.9,2.1,2,2.7
		c0.7-0.9,1.5-1.8,2.2-2.7c-1.7,5.1-5.1,9.3-6.8,14.3c-1.7,5.1-3.1,10.2-2.1,15.6c0.9-4.9,2.5-9.6,4.9-15.1
		c-3.7,14.9-2.7,29.5-6.4,43.4c0.9-3.7,1.5-7.5,3.1-11.5c0,6.8-5,14.1,3.3,19.6c0.1-1.3,0.2-2.1,0.2-3c0.5-6.1,1.8-12,5.3-17.1
		c2.1-3.2,4.6-3.2,6.8-0.1c0.8,1.2,1.4,2.6,1.8,4C155.2,575.8,154.4,580.3,152.5,585.5z M99,575.3c0.2,0,0.3,0,0.5-0.1
		c0.1-1.1,0.3-2.3,0.4-3.4c0.1,0,0.2,0,0.3,0c0.1,1.1,0.1,2.3,0.2,3.4c0.1,0,0.3,0,0.4,0.1c0.4-1.7,0.8-3.4,1.4-6c0,2.3,0,3.7,0,5
		c1.6-4.8,2.9-9.7,6.2-13.7c2.4-2.9,4.5-2.8,6.5,0.4c2.2,3.5,3,7.5,2.2,11.6c-0.6,2.9-1.6,5.7-2.4,8.6c9.9-7.4,10.2-17.9,9.5-28.5
		c1.3,1.2,0.6,3,1.4,5.3c0.2-1.9,0.3-3.2,0.5-4.5c0.4,2,0.8,3.9,1.2,5.9c0.8-7.4-0.8-14.9,2.7-22.1c0.2,1,0.3,1.7,0.5,2.4
		c1-5,0.9-10.1,3.6-14.6c0.1,0.8,0.2,1.6,0.4,2.3c1-5.7,2.4-11.2,4.1-16.6c0.3-1-0.2-1.8-1-2.5c-4.9-4.7-12.5-6.2-18.3-2.6
		c-11.5,6.9-18.4,17.5-20,30.6c-1.1,8.7-1.6,17.5-4.3,25.9c-1.1,3.6-1.3,7.3,0.4,10.9c0.5,1.1,1.2,2.2,2.6,2.5
		c0.9-0.5,0.6-1.4,0.7-2.2C98.8,574.1,98.9,574.7,99,575.3z M293.5,587.5c3.1,0,5.8,0.8,5.9-4.6c0.2-14.5-4.5-28.2-5-42.5
		c-0.1-1.9-1.1-2.6-2.7-3.3c-8-3.7-16.1-2.2-24.3-1.3c-5.6,0.6-9.3,3.5-11.5,8.5c-1.3,3-2.8,7.3-0.5,8.9c5.5,3.7,6.5,9.2,8.2,14.6
		c2.1,7,6,12.3,12.6,15.6C281.6,586.1,287.4,587.5,293.5,587.5z M340.8,554.9c-0.6-3.2-1.4-5.7-3.5-7.1c-3.4-2.3-4.2-5.4-4.7-9.1
		c-0.7-6.1-3.1-8.2-9-8c-5.9,0.1-11.4,1.8-16.1,5.9c-7.3,6.4-8.6,14.7-7.9,23.8c0.5,5.6,1.1,11.2,0.6,16.8c-1,10.5-0.9,10.5,9.5,9.1
		c13-1.7,20.4-8.4,23.5-21.1c0.7-3,1.8-5.9,2.8-8.8C336.7,554.2,337.9,553,340.8,554.9z M394.9,257c3.1,0.8,5.5-4.8,8.5-0.4
		c2.8-2.3,5.5-4.4,8.1-6.6c2.7-2.2,5.3-4.6,8.1-6.7c7.8-5.8,15.4-6.5,22.1-1.9c3.7,2.6,7.3,5.4,10.5,8.8
		c10.9,11.7,20.4,24.4,27.7,38.7c4.7,9.3,19.4,11.7,26.8,4.3c3.3-3.4,6-7,11.4-7.4c2.8-0.2,4.9-2.9,6.2-5.5c0.7-1.4,1.4-2.9,2.1-4.3
		c2.6-4.5,6.2-5.3,10.2-2.1c3,2.4,5.1,5.4,6.9,8.7c0.6,1.1,1,2.4,3.1,2.9c-2.5-6.5-6.5-11.1-11.1-15.5c-2.7-2.6-5.7-4-9.6-4.3
		c-19.3-1.4-37.8-6.2-55.7-13.2c-5.1-2-10-4.5-15-6.7c-0.3,0.3-0.5,0.6-0.8,0.9c1.5,1.4,3,2.9,4.5,4.3c-5.1-5.8-11.9-9.5-17.7-14.5
		c-1.4-1.3-3-2.4-4-4.1c-1.8-3.2-4-3.3-6.7-1c-8.6,7-17.8,13.1-27.2,18.8C400.3,252,397.4,254.2,394.9,257z M515,560.2
		c1.6-14.4-3.4-25.4-13.8-34.3c-5.4-4.6-11.4-5.5-18.2-3.5c1.9,4,4,8,4.3,12.3c0.6,9.2,2.4,18.3,3.9,27.3c0.8,4.8,3.4,6.8,7.8,8
		c0.1-4.9-2.1-9.6,0.6-15.4c0,2.7,0,4.2,0,6.2c0.5-0.9,0.6-1.3,1-2c0.2,2,0.3,3.7,0.5,5.7c0.5-1.5-0.2-2.9,1.2-4
		c1.7,1.9,1.1,4.7,2.9,7.3c0-2.4-0.1-4,0-5.6c0.3-3,0-6.9,3.5-7.8C512.3,553.4,512.8,557.6,515,560.2z M171.2,543.5
		c0.3,8.7,4.8,17,2.3,26c1.5-0.1,1-2.1,2.4-2c0.4,0.8-0.5,1.7,0.4,2.5c0.5-1,0.4-2.5,1.9-3c1.5,0.6,1.3,2.3,2.2,3.3
		c0.5,0.6,0.7,1.7,1.7,1.6c1.2,0,1.4-1.1,1.7-2c0.7-1.8,1.4-3.6,2.2-5.3c0.5-1.1,1.3-2.1,2.7-1.7c1.2,0.4,2,1.3,2.1,2.6
		c0.1,1.9,0,3.8,0,5.6c3.3,0.1,3.4,0.1,3.4-3.1c-0.2-16.1-5.3-31-11.2-45.7c-0.8-2.1-2.7-3.3-4.7-4c-2.1-0.7-4.4-0.8-6.2,0
		c-1.6,0.7-0.2,2.7-0.5,4.1c-0.5,2.2-0.8,4.4-1.6,6.5c-1.5,4-1.8,8.1-1,13c0.2-2.6,0.3-4.5,0.4-6.3c0.4,3.1,0.3,6.3,1.5,9.7
		C171,544.5,171.1,544,171.2,543.5z M415.5,537.6c2-5.2-1.7-10.1-1.4-15.4c0.3-4.1-2.2-4.7-5.2-4.4c-4.5,0.5-7.3,3.6-9.4,7.4
		c-5.2,9.4-9.5,19.2-11.4,29.9c-0.9,5.3-2.5,10.7-0.6,17c1.1-3.6,1.8-6.4,2.8-9.1c0.6-1.5,1.7-2.8,3.6-2.6c1.8,0.1,2.3,1.6,2.9,3
		c1.2,2.7,0.9,5.6,1.4,8.3c4,0,4,0,5.4-12.8c0.1,0.5,0.3,0.9,0.6,1.8c0.8-6.4,1-12.5,2.7-19c0.1,1.5,0.2,2.5,0.3,4.5
		c0.6-1.8,0.9-2.6,1.3-3.9c0.4,0.9,0.6,1.5,1,2.3c0.7-2.3,1.2-4.1,1.8-6.2c0.2,1,0.3,1.7,0.6,3c0.3-1.4,0.5-2.1,0.9-3.9
		c0.1,2.2,0.2,3.4,0.3,4.5c0.1,0,0.3,0,0.4,0.1c0.5-1.9,0.9-3.7,1.5-6C415.3,537,415.4,537.4,415.5,537.6z M304.2,413.4
		c0.9,0.1,1.9,0.1,2.8,0.3c0.9,0.2,1.7,0.5,3,0.9c-15.1-0.3-28.6,3.3-41,11.1c3.9-0.4,7.8-0.9,11.5-2c1.9-0.6,4.1,0.1,4.4,0.8
		c1.5,3.4,3.9,1.4,5.9,1.4c7.5-0.1,14.8,0.8,22.9,2.4c-1.7,1-2.5,1.5-3.4,2c3.5-0.6,7-0.9,10.4-0.7c3.2,0.2,6.2,0.9,8.5,3
		c-3.1,1-1.5,2.3-0.1,3.5c0,1.5-2.1,0.3-2.1,1.8c1.3,0.9,2.6-0.5,4.3,0c-1.3,0.6-2.2,1-3.9,1.8c1.7,0.1,2.5,0.2,3.7,0.3
		c-1.5,0.5-2.7,0.8-3.9,1.2c0.6,1.1,1.6,0.5,2.4,0.9c-2-0.1-3.4,0.6-4.2,2.6c3.8,0.9,6.8,0.3,8.8-3.4c4.1-7.2,2.7-15.3-4.2-20.4
		C322.4,415.3,313.5,413.3,304.2,413.4z M449.5,312.6c-1.5-0.7-0.5-1.6,0-2.5c2.5-4.4,5.8-8.1,9.6-11.3c1.8-1.5,2.5-3.4,2.8-5.5
		c0.2-1.3-0.2-2.6-1.4-3.3c-1.1-0.7-2.1-0.1-2.9,0.6c-2.5,2.1-5.5,2.6-8.5,3.1c-6.1,0.9-11.9,2.8-17.5,6.4c2.9,1.5,1.3,2.6,0,3.6
		c-5.8,4.8-12.6,9.1-10.1,18.5c0.8,0.1,1.1-1.9,2.5-1.4c1.3,1.4-0.8,2.3-0.7,3.8C431.2,318.3,441,317.2,449.5,312.6z M89.4,276.9
		c10.3-2.1,20-6.1,29.9-9.5c-0.9-0.2-1.7-0.1-2.4,0.2c-15.1,5.6-30.9,8-46.7,8.9c-9.5,0.5-14.9,4.6-19.6,11.5
		c-1.5,2.3-3.1,4.6-4.5,6.9c-0.3,0.5-1.1,1.1,0,2.1c0.7-1.2,1.4-2.4,2.1-3.5c2.8-4.2,5.4-8.5,9.7-11.2c4-2.5,5.4-1.8,6.3,2.7
		c0.2,1,0.5,1.9,0.7,2.9c0.2,0,0.3,0,0.5,0c0-2.2,0-4.4,0-6.7c1.2,4.9,0.1,10,1.8,14.8c1.7,4.7,3.4,9.3,9.4,10.6
		c-4.7-7.5-6-15.6-7.2-23.7c-0.1-0.8,0.2-1.5,1.1-1.7c1.1-0.3,1.6,0.5,1.9,1.3c1.2,3.1,3,5.9,5.1,8.4c1.3,1.5,2.9,4.4,4.3,3.8
		c4.8-1.8,9.6-0.5,14.4-1c1-0.1,2-0.4,2.1-1.6c0.2-1.3-0.7-1.9-1.8-2.3c-2.1-0.7-4.2-1.4-6.3-2.1c0.6-1.5,0.7-1.8-0.3-2
		c-3.2-1-5.9-2.2-2.9-6.6c2.9,0,6.4,0,11.1,0C94.6,277.2,92,277.1,89.4,276.9z M212,303.3c-3.4,0.8-5.6,3.3-8,5.5
		c-7.6,7-13,15.9-20.1,23.3c-5.1,5.4-7.9,12-8.8,19.4c-0.4,2.9-0.5,6-1.3,8.8c-2.7,9.8-5.3,19.6-5.7,29.9c-0.3,6.4,0.1,13.1-3.2,19
		c-4.8,8.7-5.2,17.6-2.2,27c2.1,6.6,3.6,13.5,5.5,20.8c1.1-1.8,0.6-2.9,0.3-4c-1.3-6.8-2.7-13.5-4.5-20.1c-1.3-4.7-2.4-9.8,0.2-14.2
		c5.1-8.8,7.3-18.4,6.7-28.3c-0.4-7.7,0.2-15,2.6-22.2c1-3,2-6,2.3-9.2c0.9-9.3,3.4-17.6,9.4-25.4c7.7-10,15.9-19.3,25.6-27.2
		C211.9,305.6,212.3,304.7,212,303.3z M327.1,335.4c1.2,0.1,1.1-1.8,2.4-1.3c2,0.9,3.8,0.9,5.8-0.6c1.9-1.5,4.1-2.8,6.4-3.5
		c6.5-2,12.5-3.9,20-2.3c9.2,2,18.2,3,25.6,10.1c-2.8-7.2-8.9-10.9-21.4-13.3c2-3.1,4.8-1.7,7.5-1.3c-2.6-1.6-5.3-2.6-8.3-2.9
		c-9.2-0.9-17.9,2-26.7,3.6C332.1,325.1,329.1,329.7,327.1,335.4z M332.6,578.9c-8.9,10.7-20.9,12.7-33.4,13.4
		c-12.7,0.6-24.3-1.9-33.8-12.4c3.8,10,11.2,13.6,20,14.8c9.3,1.3,18.7,1.3,28.5-0.5c-3.8,2.3-7.7,1.9-11.8,3.2
		c10,1.8,33.3-10.4,35.9-18.7C336.1,580.7,334.3,581.1,332.6,578.9z M344.3,560.4c9.2-8.4,17.7-17.2,23.9-28
		c6.8-11.9,12-24.6,19.8-36c1-1.4,2-2.8,2.9-4.2c0.9-1.4,1.9-2.7,2.8-4.1c-7.4,6.1-12.4,13.9-16.8,22.2
		c-8.4,15.8-18.4,30.5-30.6,43.7C344.7,555.9,341.8,557.1,344.3,560.4z M421.6,454.8c1.8-6.8-1.7-11.9-7.7-12.5
		c-6.6-0.7-12.9,0.7-19.2,2.2c-4.6,1.1-9.1,1.3-14.1-0.6c3.7-0.7,7,0.1,11.2-2.2c-9.1,1.6-16-0.2-22.3-7c4.8,9.7,16,18,26.9,14
		c5.8-2.1,12.1-2.2,18.2-2.4c3.6-0.1,5.3,1.6,6,4.8C420.8,452,421.1,453,421.6,454.8z M395.7,429c13.2-2,24.8-1.9,32.8,10
		c1.2-10.6-5.6-19.1-16.8-17C406.4,422.9,401.6,425.5,395.7,429z M348.2,537.4c3.1-6,6.9-11.4,7.3-18.3c0.1-2.2-0.9-3.6-2.8-3.9
		c-4-0.6-9.5,4.9-9.4,9.2c2-0.3,4.3-1.4,5.4,1.8c-4.4,1.1-8.1,2.9-9.1,8.2C343.1,533.3,345.6,535.1,348.2,537.4z M389.4,575.3
		c-7.2,1.2-14.7,0.4-22.1,2.3c4.4,0,8.9,0,13.3,0c-4.5,0.7-9.2,0.1-14.4,1.6c8.2,0.8,15.6,0.9,23,0.9c7.3-0.1,14.7,0,22,0
		c-10-0.3-19.9-2.2-29.9-0.8c9.7-1.3,19.6-0.9,29.2-3.1c-5.5,0-10.9,0-16.4,0c0-0.1,0-0.3,0-0.4c2.7-0.3,5.4-0.6,8.1-0.9
		c0-0.1,0-0.2,0-0.3c-11.2,0-22.5,0-33.7,0c0,0.2,0,0.5,0,0.7C375.5,575.3,382.4,575.3,389.4,575.3z M366.1,424.3
		c0.4,2.4,2,3.1,3.7,3.1c8.2,0.3,13.6-3.7,16.9-11.4c-2.7-0.6-5.6-1.1-8.4-1.7c-2.1-0.5-3,0.1-3.5,2.3c-1,3.7-2.4,7.3-7.3,7.2
		C367,423.8,366.6,424.1,366.1,424.3z M254.7,557.2c-1.7,0.2-2.1,1.5-2,3c0.3,5.7,1.8,11.1,4.5,16.1c0.7,1.3,1.8,2.4,3.2,3
		c2.1,0.8,3.8,0.1,3.1-2.2c-1.7-5.8-3-11.7-5.7-17.1C257.1,558.7,256.2,557.7,254.7,557.2z M231.4,583.3
		c-15.2-2.6-41.4-2.8-48.9-0.6c17.4,2.4,34.1,3,50.8,1.5c-8.3,0-16.6,0-24.9,0c0-0.3,0-0.6,0-0.9
		C216.1,583.3,223.8,583.3,231.4,583.3z M239.2,360.7c-3.1-7.6-11.7-11.2-20.3-9.2c-7.1,1.7-17.8,11.4-17.4,15.9
		c2.2,0.3,3.1-1.6,4.3-2.9c3.2-3.6,5.8-7.6,11-9c3.4-0.9,7-0.7,10.1-2.4c0.6-0.3,1.8,0.4,2.7,0.8C233.2,355.1,236,357.5,239.2,360.7
		z M318.1,467.8c7.3-2.6,10.7-8.8,14.5-16.3c-7,5.4-13.7,8-20.5,3.2c-7.8-5.5-9.6-13.1-5-22.5c-5.4,5-5.5,13.2-0.9,20.9
		c3.3,5.7,12,7.2,21.9,3.6C325.2,461.1,321.9,464.7,318.1,467.8z M223.5,579.1c-6.6-1.5-13.4-0.9-20.1-1.7c6.6,0,13.1,0,19.7,0
		c-15.4-1.6-30.8-1.4-46.2-0.5c3.2,0,6.5,0,9.7,0c-0.5,0.5-1.1,0.5-1.6,0.6c-0.6,0.1-1.3-0.1-1.5,0.8c1.4,0.9,18.4,2.1,18.7,1.3
		c-0.4-0.2-0.8-0.3-1.2-0.5C208.6,579.1,216.1,579.1,223.5,579.1z M195.9,380.1c-0.7,5.3,5.8,11.7,12.4,14.3c8,3,23.9,0.6,27.5-4.7
		C220.6,395.4,206.3,397.8,195.9,380.1z M334.8,578c5.3-4.5,8-18.6,4-21.1C335.1,562,332.6,575.1,334.8,578z M250.6,525.9
		c-0.7-4.2-3.3-6.4-6.2-8.2c-1.9-1.1-4.1-2.6-6.1-0.7c-1.9,1.8-0.3,4,0.5,5.8c0.6,1.2,0.7,3.8,3.4,2.5
		C245,523.9,247.7,524,250.6,525.9z M244.9,538.3c2.4-2.6,4.8-4.4,8.8-2.3c-1.9-3.5-3.2-6.1-5.4-8.2c-2.1-2-4-1.1-6,0.1
		c-2,1.2-0.8,2.8-0.3,4.2C242.8,534,243.8,535.9,244.9,538.3z M197.6,407.8c0.7,4,1,8.5,5.8,9.1c4.1,0.6,8.4,0.1,12.5,0.1
		c0-0.3,0-0.6,0-0.9c-1.8-0.3-3.6-0.7-5.8-1.1c1.3-0.2,2.2-0.3,4.3-0.5C207.9,412.5,201.9,412.2,197.6,407.8z M361.2,379.5
		c-0.3,0.4-0.5,0.8-0.2,1.4c2,3.5,6.8,5.4,11.1,4.3c4.6-1.2,8.6-5.6,8.5-9.5c0-1.6-0.5-3.2-2.6-3.4
		C377.2,383.4,373.3,385.1,361.2,379.5z M261.5,452.2c5.9,6.3,15.9,7.6,22,3.5c5.6-3.8,8.2-13.1,5.3-19
		C287.3,456,277.6,461.9,261.5,452.2z M111.9,563.2c-4.9,6.5-4.5,14.7-6.5,22.1C109.9,578.6,111.9,571.2,111.9,563.2z M181.7,574.5
		c14.9,0.5,29.9,1.9,44.4,0C211.6,573.9,196.6,573.6,181.7,574.5z M342.8,545.8c0.9-3,6-4.4,3.1-8c-2.1-2.6-5.2-1.4-6.9,0.8
		C335.3,543.2,343.3,542.2,342.8,545.8z M472.4,563.5c-0.8,3.8,3.1,20,5.3,22.6C477.2,574.6,475.5,566.8,472.4,563.5z M251.2,547.1
		c0.6-3.7,6.3-5.7,0.9-9.1c-2.1-1.3-4.2-0.9-5,0.8C245.4,542.5,249.1,544,251.2,547.1z M215.5,383c3,3.8,6.8,4.1,10.7,3
		c4.2-1.2,6.5-4.5,7.8-8.5c0.3-0.8,0-1.7-1.1-1.9c-1.3-0.2-1.3,0.8-1.5,1.6c-1.1,6.2-6.6,9.1-12.4,6.5
		C218,383.3,217.1,382.4,215.5,383z M456.1,318.7c-3.2,1.8-2.1,5.2-2.8,7.9c-1.8,6.5-1.9,6.5-0.5,9.7
		C454.5,330.3,457.7,324.8,456.1,318.7z M147.9,568.2c-2.5,6.5-1.5,13.4-2.7,20.1C148.4,581.9,149.3,575.2,147.9,568.2z
		 M438.5,567.5c0.2,6.3-1,12.7,1.3,18.8C441.2,579.9,441.1,573.6,438.5,567.5z M210,385.5c-0.8-2-1.8-3.9-2.4-5.8
		c-0.6-2.1-0.8-4.3-1.1-6.5C201,378.1,202.3,382.7,210,385.5z M71.9,578.6c1.7-6.5,4-13,3.2-20C72.5,565,71.7,571.7,71.9,578.6z
		 M508.8,556.6c2.3,6.8,1.9,13.9,3,20.8C512.8,570.2,513.3,563,508.8,556.6z M198.4,380.9c5,6.3,10.9,11.1,20.5,11.7
		c-4.7-1.7-8.4-2.6-11.5-4.9C204.4,385.5,201.4,383.2,198.4,380.9z M386.6,372.8c-0.3,4.7-1.4,9.1-4.5,13.9
		C390.5,380.5,391.6,376.8,386.6,372.8z M448.5,319.4c0.1,1.2,0.3,2.9,1.4,2.6c2.2-0.7,3.5-2.7,3.8-5c0.2-1.2-0.3-2.7-1.7-2.5
		C449.4,315,448.9,317.4,448.5,319.4z M352.3,373.3c-3.4,7-1.9,11.4,3.2,11.2C353.7,381.3,352.9,377.7,352.3,373.3z M236.3,386
		c5.4-1,7.2-6.6,3.7-12.2C239.7,378.3,238.8,382.3,236.3,386z M206,580.1c8.3,1.7,16.7,1.3,25.1,0
		C222.7,580.1,214.3,580.1,206,580.1z M370.3,372.8c1.3-0.3,2.5-1.1,2.5-3.1c0-1.7-1-2.6-2.6-2.6c-2,0-3.2,1.3-3.2,3.2
		C367.1,372,368.2,372.8,370.3,372.8z M159.3,350.6c1.2,6.2,3.8,11.5,9,15.3C164.7,361.2,162.2,355.8,159.3,350.6z M216.1,515.2
		c-3-7-6.5-13.6-11.9-19.2C208.5,502.2,211.9,509,216.1,515.2z M224.5,270.2c0,0.1-0.1,0.2-0.1,0.3c11.1,0,22.1,0,33.2,0
		c0-0.1,0-0.2,0-0.3C246.5,270.2,235.5,270.2,224.5,270.2z M225.8,373.7c1.7-0.2,3.2-0.7,3.2-2.8c0-1.5-0.9-2.3-2.4-2.2
		c-1.9,0.1-2.9,1.1-2.9,3C223.6,373.1,224.3,373.9,225.8,373.7z"/>
	<path d="M92,588.3c-0.5,0-1,0.1-1.5,0.1c-0.1-0.4-0.2-0.5-0.2,0c-3.2,0-3.1-3.3-5.9-5.3c1.5,0.6,1.9,0.7,2.3,0.9
		c0.3,0.2,0.6,0.4,0.9,0.7c0,0-0.1,0-0.1,0c1.1,1.1,2,2.6,4,2.5l-0.1-0.1C91.5,587.5,91.8,587.9,92,588.3L92,588.3z"/>
	<path d="M93.9,589.1c0.1,0.3,0.2,0.6,0.3,0.9c-1.2,0-1.8-0.6-2.1-1.7c0,0-0.1,0.1-0.1,0.1c0.4,0,0.8,0.1,1.1,0.1
		c0,0,0.1-0.2,0.1-0.2C93.4,588.6,93.6,588.8,93.9,589.1z"/>
	<path d="M309.4,388.5c-22.4-1.2-44.5-1.1-63.6,14.2c2.2-4.4,9.6-9.5,17.2-12c6.2-2.1,12.5-3.1,19-3.2
		C291.2,387.3,300.3,387.1,309.4,388.5z"/>
	<path d="M407.3,407.2c1.5-2.7,2.7-5,3.9-7.2c0.3-0.6,0.5-1.5,1.5-1.4c1,0.1,1.2,1,1.5,1.8c0.6,1.6,0.5,3.3,1.8,4.6
		c0.9,0.9,2.2-3.5,2.5,1c1-1.5,1.7-2.4,2.3-3.4c2.6,1.1,3.2,3.3,3.3,5.4c0.1,1.9-1.2,3.1-3.1,1.9
		C416.9,407.5,412.6,406.3,407.3,407.2z"/>
	<path d="M349.3,410.1c9.8,11.7,17.7,24.3,21.1,39.4C364.2,435.9,357.2,422.7,349.3,410.1z"/>
	<path d="M420.7,368.1c-0.5-1.5-1.1-3-1.8-5.1c-0.3,1.3-0.5,2-0.9,3.6c-0.9-6.4-2.3-11.8-1.9-18.5c1.6,4.2,2,7.5,2.3,10.9
		c0.7-4,1.4-8,2-12C421.5,354.1,419.7,361.1,420.7,368.1C420.7,368.1,420.7,368.1,420.7,368.1z"/>
	<path d="M238.9,429.8c5.7-10.8,15.3-16.9,26.1-21.6c-4.7,3.1-9.7,5.9-14,9.6C246.6,421.5,242.8,425.7,238.9,429.8z"/>
	<path d="M391.6,343.7c6.6,6.7,10.7,14.7,12,24.1c0.1,0.6,0.2,1.2,0.3,2.1c-1.4-1-1.2-2.4-1.5-3.6c-1.9-7.4-5.1-14.1-10.3-19.7
		C391.4,346,389.7,345.1,391.6,343.7C391.6,343.8,391.6,343.7,391.6,343.7z"/>
	<path d="M425.2,352.6c1.6-5.3,7.2-9.1,12.9-9.1c0.1,1.3-2.1,1.3-1.5,3c1.8,0.1,3.7,0.2,6.8,0.3C428.5,347.9,431.1,347,425.2,352.6z
		"/>
	<path d="M218.8,452.2c-2.1,5.1-3.2,10.3-2.3,16.6C213.4,463.1,214.4,456.3,218.8,452.2z"/>
	<path d="M462.8,256.4c8.3,3.8,16.4,5.4,24.4,7.3c6.4,1.5,13,2,19.1,4.5c4.2,1.7,3.9,2.8,1.7,6.8c-1.8,3.3-4.6,4.7-7.5,6.9
		c3.3,2.5,5.9,1.4,8.7,0c2.9-1.4,3.2-4.8,5.5-6.5c-2.5,7.9-7.7,13.5-15.6,16.1c-6.1,2-11.4-0.6-15.1-5.6c-5.9-8-11.5-16.3-17.3-24.4
		C465.7,259.9,464.4,258.4,462.8,256.4z"/>
	<path d="M88.8,546.8c-0.2,0.5-0.5,0.9-0.7,1.4C88.4,547.7,88.6,547.3,88.8,546.8z"/>
	<path d="M88.2,548.1c-0.2,0.5-0.5,0.9-0.7,1.4C87.7,549,88,548.5,88.2,548.1z"/>
	<path d="M87.6,549.4c-0.2,0.5-0.5,0.9-0.7,1.4C87.1,550.3,87.3,549.8,87.6,549.4z"/>
	<path d="M86.9,550.6c-0.2,0.5-0.5,0.9-0.7,1.4C86.5,551.6,86.7,551.1,86.9,550.6z"/>
	<path d="M86.3,551.9c-0.2,0.4-0.4,0.9-0.7,1.3C85.8,552.8,86.1,552.3,86.3,551.9z"/>
	<path d="M90.1,544.9c0,0.4,0,0.9,0,1.3c-0.2,0-0.5,0-0.7,0C89.6,545.8,89.9,545.4,90.1,544.9z"/>
	<path d="M89.5,546.2c-0.2,0.2-0.5,0.5-0.7,0.7C89,546.7,89.2,546.4,89.5,546.2z"/>
</g>
</svg>
