<?xml version="1.0" encoding="utf-8"?>
<!-- Generator: Adobe Illustrator 24.2.3, SVG Export Plug-In . SVG Version: 6.00 Build 0)  -->
<svg version="1.1" id="Layer_1" xmlns="http://www.w3.org/2000/svg" xmlns:xlink="http://www.w3.org/1999/xlink" x="0px" y="0px"
	 viewBox="0 0 595.3 841.9" style="enable-background:new 0 0 595.3 841.9; fill: #215342;" xml:space="preserve"
	 height="340" width="450" transform="translate(-50, -30)">
<g>
	<path d="M111.4,380.8c-16.2-26.6-20.8-55.6-22.5-85.3c-1.3-22.6,0.6-45,3-67.5c0.6-5.5,0.3-11.1-0.3-16.6
		c-1.2-10.4,3.6-15.6,13.8-13.6c16.2,3.1,29.9,11.7,43.3,20.9c32,21.9,57.5,49.9,76.9,83.4c0.1,0.1,0.3,0.2,0.8,0.5
		c0.4-2.1,0.7-4,1.2-6.2c4.6,1.5,5.9,5.2,7.1,8.8c2.2-0.2,2.5-4.8,4-2.9c2.5,3.3-1.4,6.3-2.7,9.6c2.8,0.3,5.3-6,8.7-0.2
		c13-5,26.9-5.3,40.8-4.1c4.1,0.4,8.1,2.3,12.1-0.8c1.7-1.3,2.1,0.7,2.3,2.5c5.8-3.9,12.3-4.4,18.6-5.6c2.8-0.5,4.3-0.2,2.8,3.5
		c6.8-2.1,13.3-1.9,20.3-0.3c0-2.9,0-5.4,0-8.1c3.5,0.1,3.3,3.4,5.2,4.8c1.3-2.4-0.9-6.1,2.5-7.2c2-0.7,1.8,2.3,3.4,3.2
		c1.3-4.6,1.4-9.8,5.9-13.3c0.9,4.4,1.7,8.5,2.7,13.7c1.1-3.4,1.4-6.2,2.8-8.4c23.7-37.7,43.3-78.3,76-109.6
		c9.3-8.9,20.7-15.6,33.5-18.7c10.2-2.4,17.3,2,19.6,12.2c13.2,58.6,13,116.7-6.1,174.2c-0.4,1.2-0.7,2.4-1.1,3.7c5.5,0,5.5,0,4,6.1
		c2.7-0.3,4.4-3.5,7.8-2.7c-1.8,5-6.3,7.4-10.5,11.1c2.8-0.4,4.9-0.8,7.6-1.2c-2.1,5.3-6.4,7.7-9.2,11.3c-2.8,3.7-5.5,7.5-8.8,12
		c2.1-0.3,3.2-0.5,5.7-0.9c-5.9,6.9-12.2,12.1-15.5,19.9c7.9,1.8,3.3,5.4,0.9,8.2c-4.9,5.9-11.6,8.8-21.1,10.5
		c6.4,1.4,10.8,2.4,15.4,3.5c-9.7,5.3-23.2-2.8-27.5-16.5c0.7,0.1,1.2,0.2,2.3,0.5c-1.7-2-3.7-3.3-3.7-5.8c2.5,1.3,4.9,2.6,8,4.2
		c-2.5-6.5-7.2-10.2-10.9-15.2c1.4-0.1,2.4-0.1,3.9-0.2c-1.3-1-2.3-1.7-3.7-2.6c3.8-1,7.7,0.6,11-1.8c-3.8-1-7.4-1.7-10.8-2.9
		c-3.3-1.2-4.8-5.8-9.6-4.7c1.6,2.5,5,3.6,5.5,7.1c-1.2-0.4-2.3-0.8-5.9-2.1c11.3,11.6,9.7,25.4,14,37.9c-1.5-0.9-2.5-1.5-3.6-2.2
		c-0.2,7.1,10.3,26.2,15.4,28.3c0.1-0.2,0.3-0.4,0.3-0.5c-2.3-3.5-6.5-6.9-6.5-10.3c-0.1-4.5-2.8-6.8-4.6-10.9
		c2.8,0.7,4.9,1.3,7.4,1.9c-1.7-2-3.1-3.7-4.5-5.4c5.4,3.1,11.3,4.2,17.6,5.5c-3.1,4.6-7.1,4.9-11.4,4.4c0.1,2.5,6.3,3.9,0.7,6.8
		c2.1,3,4.3,5.9,6.3,8.9c1,1.5,3.2,3.1,2.1,5c-1.3,2.3-3.4-0.1-5.4,0c0.7,3.8,6.6,5.7,4.4,9.9c-1.1,2.1-3.7-1.2-6.2-1.4
		c1.5,4.9,5.7,9.3,3,14.6c-0.7,1.4-2.7-0.8-4-1.4c-1.6,4,7.7,8.7-0.8,13.2c0.1,1.3,3.5,2.8,1.7,5.1c-1.6,2.1-4.1,0.5-6.3,0.2
		c-1.5,3.3,10,12.7-4.7,9.6c0.7,2.7,7.5,6.1-1,8.2c0.2,1.3,0.4,3,0.6,5c4.6-3.1,8-6.4,10.4-11.5c8.4-18.1,17.3-36,39.6-41
		c14.6-3.3,28.7-2.8,42.6,3.4c3.9,1.7,8.8,1.1,13.1,2c16.3,3.7,25.4,13.6,27.4,30.2c1,8.5,7.8,14.6,8.9,23.2
		c1.5,12.5-7.4,29-19,33.6c-5.2,2.1-9.8,2-13.1-3.4c-17,20.5-26.6,23.3-37.2,10.5c-4.5,5.4-9,10.7-16.6,11.3
		c-7.6,0.6-13.5-2.3-17.9-8.6c-1.7,3.2-3.1,6.3-4.9,9c-4,6.2-7.9,6.4-12.7,0.9c-0.5-0.6-1.1-1.1-1.4-1.8c-3.3-8.9-10.2-9.8-18.6-9.3
		c-10.9,0.7-21.9,1.3-32.7-0.1c-12.9-1.6-18.9,5.7-23.9,15.2c-10.9,20.6-22.5,40.7-35.5,60.1c-20.2,30.2-60.9,28.8-81,1.7
		c-7.9-10.7-15.6-21.5-22.3-32.9c-8.7-14.9-18.7-28.8-30.9-41.1c-1.3-1.3-2.5-1.7-4.2-1.7c-21.1,0-42.1,0-63.2-0.2
		c-2.4,0-3.9,0.7-5.3,2.6c-2.5,3.2-5.2,6.3-8.1,9.1c-6.3,5.9-10.7,4.9-14-3.2c-0.8-1.9-1.3-4-1.9-6c-19.8,9.5-21.7,9.2-34.6-4.4
		c-18.1,12-19.6,11.7-37.4-7.5c-5,4.7-10,3.5-15.1,0c-15.8-11-19-32.3-7.1-47.3c2.4-3.1,4.2-6.3,5.4-10.1
		c5.2-16.7,16.3-26.3,33.9-28.2c9.9-1.1,18.9-6.4,29.1-6.7c15.3-0.5,29.3,2.5,41.2,12.6c2.2,1.8,4.7,4,5.6,6.5
		c4.6,13.2,16,22.8,19.5,36.5c1.8,7.2,8.4,7.6,14.5,11.8c-1.1-6.2-1.9-11-2.8-16c-2.3,1-2.4,5.5-4.8,4.2c-2.2-1.3-0.7-4.9-0.6-7.5
		c0.1-2,0.5-4,0.8-6.1c-4.8,1.8-4.8,1.8-3.7-9c-2.2,0.2-3.6,4.1-5.6,2.3c-1.9-1.7-0.4-4.8,0.5-6.9c2.7-6,2.3-12.3,2.6-18.8
		c-3.1,1.5-5.5,4.8-10.1,4.5c2.7-4.7,5.1-8.8,8-13.7c-3.4,1.5-5.5,4-9,3.2c2.2-6.5,9.3-7.9,13.5-14c-3.3,1.5-5.5,2.6-7.7,3.5
		c-1.2,0.5-3.1,1.1-3.8,0.6c-1.4-1.1-0.1-2.8,0.5-4c1.2-2.3,2.6-4.5,4.1-7.1c-5.2,0.8-9.7,0-14-3.2c4-1.9,7.5-3.7,12.1-5.9
		c-7.1-1.8-12.6-4.5-17.3-8.6c-1.6-1.3-4.2-2.7-3.5-4.9c0.7-2.1,3.4-0.6,5.2-1.1c-2.7-5.1-9-7.6-10.1-14.3c-2.9-0.8-7-0.5-9.8-3.7
		c1.3-2.5,4.2-1.4,6-2.9c-2.7-1.7-6.4-0.9-8.4-4.6c3.4-0.9,6.5-1.7,10.4-2.7c-9.3-2.5-17.2-5.8-21.3-15.2c3.2,0.4,5.7,0.7,9.3,1.2
		c-3.4-2.8-7.1-3.6-8.9-7.2C104.2,380.8,107.7,380.8,111.4,380.8z M29.9,525.4c-0.2,6-0.6,12.1-0.5,18.1c0,1.9-0.7,5.6,2.1,5.4
		c3.2-0.2,1.3-3.6,1.4-5.6c0.1-3.1,0-6.2,0-9.2C32.8,530.9,32.5,527.8,29.9,525.4c-2.1-0.7-2.7,1-3.5,2.2
		c-5.7,8.5-5.6,23.2,0.1,31.6c1.5,2.2,3.3,4.1,6.4,3.9c0.1-0.4,0.2-0.6,0.1-0.8c-0.4-0.7-0.9-1.4-1.3-2.2
		C25.7,548.9,24.3,537.3,29.9,525.4z M224.2,307.6c-1.6,4.5,4.5,5.2,4.5,9.1c1.9-4.6,4.4-9,0.9-14.8
		C228.7,305.3,227.1,307.3,224.2,307.6c-1.2-2.4-1.9-5.2-3.4-7.5c-15.1-24.2-33.3-45.7-55-64.3c-1.8-1.5-3.6-3-5.4-4.4
		c19.3,18.7,37.4,38.1,49.3,64.3c-0.5-3.3-0.7-5.1-1.2-8.8c5.4,8.6,9.8,15.6,14.3,22.8C223.3,308.9,223.7,308.3,224.2,307.6z
		 M90.1,537.8c1.7,1.7,1.4,3.9,1.5,6c0.2,5.2,0.3,10.4,0.4,15.7c0.1,3.1,1.5,4.2,4.5,3.7c3.9-0.7,9.6-0.4,10.7-3.7
		c2.1-6.1,1.3-13.1,2.4-19.7c-1.1,2.4-2.3,4.9-3.7,7.9c-2.5-6-6.3-10.2-11.5-13c-2.2-1.2-5.1-3.7-6.9-1.9
		C85.3,534.9,90.1,535.6,90.1,537.8c-1.5-0.2-1.9,1.1-2.3,2.2c-4.4,12.4-3.1,24.4,2.9,35.9c1,1.9,2.5,3.4,5.8,3
		C88.1,566,89.2,551.9,90.1,537.8z M501.6,521.1c-0.5-1-1-2-1.6-3c0,3.7-1.6,4.7-3.7,5.7c-4.4,2.1-7.6,5.7-9.8,9.9
		c-3.3,6.4-5.2,13.3-3.3,20.4c1.8,6.4,7.5,8.5,13.1,8c4.3-0.4,3.3-5.7,3.6-8.8c0.8-7.6,0.9-15.2-1.9-22.9c7.5,3.9,7.7,22.4,4.1,41.8
		c7.9-7.3,14.9-30.6,0.3-49.2c2.9-8.8,1-17.1-2.9-25c-2.4-4.9-4.7-6.3-7.9-6.5C500.2,499.8,501.7,510.2,501.6,521.1z M292.6,444.8
		c-0.5,0-1-0.1-1.5-0.1c0,4.1,0.1,8.2,0,12.2c-0.1,3.7,0.8,8-1.8,10.9c-11.2,12.6-26.3,19.7-40.6,28c-1.8,1.1-2.2-0.4-2.3-1.9
		c-1.3,0.8-2.4,1.5-5.3,3.3c5.9-12.1,8.8-23.6,16.1-33c-0.2-0.1-0.8-0.3-1.8-0.6c2.7-1.7,4.9-3,8-4.9c-5.5-0.4-8.6,1.5-11.4,4.9
		c-9,11-10.9,25.2-17.7,37.2c-6.8,12.1-10.8,13.9-24.2,10.2c-5.6-1.5-11.1-2.4-17.2-0.2c1.5,0.9,2.6,1.6,3.9,2.4
		c-11.2,7.1-11.2,7.1-11.7,28.2c-4.2-4.5-5.3-12.8-3-24.8c-1.5,0.9-2.6,1.7-4,2.6c-1-4.8,1.7-7.4,5.1-9.9c-1.6-0.6-2.9-1-4.4-1.6
		c2.6-3.1,6.4-2.6,10.5-4.7c-4.7-1.2-8.2-2.1-11.8-3c0.9-0.8,1.6-1.4,1.8-1.6c-5.6-4.6,2-5.4,2.2-8c-1.5-0.3-2.9-0.6-4.8-1.1
		c1.2-1.1,2-1.8,3.2-2.9c-3.4,0.7-6,1.2-8.8,1.8c-0.2-3.9,3.2-4.5,5.6-7.2c-4.4,1.6-6.7-2-9.5-2.1c-4.8-0.2-0.2,5.5-3.3,7.1
		c0.7-0.1,1.5-0.1,1.8-0.2c1.6,4.1-6.5,6.4-1.7,10.7c3,2.6-0.6,9.4,7.1,8.7c-3.3,3.4,1.1,8.3-3.8,10.7c1.1-0.5,2.1-1,3.6-1.7
		c-1.5,5.7-1.7,10.9,0.2,16.4c1.3-1.5,2.4-2.8,4.9-5.7c-1.5,5.6,2.9,7.7,3,11c3.2,6.6,6.4,13.1,12.1,18.9c-0.4-2.1-0.7-3.4-1.3-6.2
		c3.8,5,6.5,8.6,10.5,13.8c-1.2-3.4-1.7-4.7-2.2-6.1c17.9,21.1,36.1,41.6,57.8,58.8c-23.9-22.8-44.1-48.3-58.4-78.2
		c-2.6,1.8-1.1,5-2.6,7.5c-2.5-3.4-2.8-6.7-0.9-10.1c1.3-2.4,3.6-3.4,6.3-2.8c4.4,0.9,7.5,3.5,10.1,8.4c-2.6-0.8-4.2-1.2-6.5-1.9
		c10.6,17.8,22.8,33.2,40.5,43.3c13.2,7.5,27.2,11.7,42.4,7c5.2-1.6,9.9-4.3,11-10.5c0.4-2.1-0.2-3.1-2.6-3.1
		c-7.4,0.1-14.4-2-20.9-5.4c-2.3-1.2-5.1-2.4-5.1-5.6c0-3.1,3.4-2.1,5.2-3.3c-17.3-2.3-24.7-8.8-27.6-23.9
		c-2.4-12.7,3-23.4,16.8-30.4c22.5-11.3,45.5-12.4,68.5-1.2c7.6,3.7,13.2,9.5,14.5,18.4c2.3,15.7-8,29.2-25.9,34.4
		c2,1.2,5.6-1.6,6.3,1.9c0.6,3.2-2.4,5-4.8,6.7c-4.9,3.4-10.5,5.2-16,7.3c-1.8,0.7-5.1-0.6-5.4,2.7c-0.4,3.8,1.6,6.5,4.9,8.3
		c7,3.8,14.5,4.3,22.1,3.6c31.9-2.9,53-30,66.3-61.9c-1.8,0.4-3.5,0.7-5.7,1.2c4.1-6.1,12.8-8.6,17.6-5.3c3.8,2.6,4.9,6.1,2.9,10.2
		c-1.7-1.9-3.2-3.9-5-5.4c-1.7-1.5-3-1.2-3.9,1.3c-11.4,29.8-26.9,57.2-48.6,80.8c-1,1.1-1.8,2.3-2.6,3.5c9.3-7,16.9-15.5,24.5-24
		c7.6-8.5,13.2-18.6,20.6-27.5c-0.5,1.8-1.1,3.7-1.6,5.5c0.5,0.4,0.9,0.9,1.4,1.3c4-4.9,8.1-9.7,12.1-14.6c0.4,0.4,0.8,0.8,1.3,1.2
		c-0.8,1.5-1.5,3.1-2.9,5.8c9.2-7.7,16.6-15.1,20.9-25.4c-1.1-0.3-1.8-0.5-3.9-1.1c3.1-2.8,5.5-5,8-7.2c-0.3-1.3-3.4-0.7-2.7-3.1
		c0.8-2.8,3.3-1.9,4.6-2.1c2.4-2.8-5.9-6.7,1.8-8.4c-1.1-1.9-4.2-3.6-2.8-5.6c2-2.9,5.5,0.3,8.6-0.5c-1.4-3.4-2.8-6.7-4.4-10.7
		c2.9,0.2,4.9,0.4,7.3,0.6c-2.8-3.5-4.1-7.1-5-11.4c1.4,0.5,2.2,0.9,3.5,1.4c-1-2.9-2.9-5-2.4-9.7c1.2,2.5,1.8,3.7,3.1,6.4
		c0.2-4.9-1.8-7.8,0.6-11c1.4,2.1,2.7,4,4.8,6.9c-1.1-7.7-4.3-13.2-7.6-19.9c3.4,1.9,5.6,3.3,7.9,4.6c-3.7-4-2.9-11-9.5-14
		c1,2.3,1.6,3.6,1.5,3.4c-4,7.2,2,12.2,1.6,18.7c-3.3-5.5-6-10-8-13.4c-4.6-0.1-6.3-4.7-10.2-4.3c2.2,2.6,4.1,4.8,6,7.1
		c-0.2,0.1-0.3,0.3-0.5,0.4c-1.4-1.3-2.8-2.6-4.3-4c-0.2,0.1-0.3,0.3-0.5,0.4c0.9,1.2,1.8,2.4,2.8,3.7c-1.4,0.1-2.5,0.1-4,0.2
		c2.6,4.3,5.7,7.9,6.8,13.1c-3.9-2.8-7.4-5.1-12.3-3.2c2.4,2.5,5.6,3.8,6.1,7.5c-3.3-0.4-6.3-2.3-9.7-0.8c2.2,1.5,4.2,2.8,7.4,5
		c-4.8-0.7-7.9-2.2-11.4-0.4c2.6,2,6.3,1.6,8.3,4.8c-3,1.3-5.8,2.5-9.4,4.1c4.8,1.4,9.2,1.9,12.5,5.9c-2-0.3-3.3-0.4-4.9-0.6
		c7.8,12.3,8.3,30,1.3,37.7c2.5-23.2,2.5-23.2-17.5-29.1c0.6-0.3,1.3-0.7,2.8-1.5c-4.5-0.4-8.1-0.7-13.2-1.2c4.2-1.5,7-2.5,10-3.6
		c-3.8-2.1-7.9-1.4-13.8,1.9c-10.8,6-21.8,1.3-24.2-10.8c-2.7-13.4-9.4-23.4-22.2-28.8c-1.5-0.6-2.3-1.5-2.2-3.6
		c0.1-4.5-3.3-7.2-6.6-9.5c-1.8-1.3-3.9-2.1-7.2-1.2c4,2.3,7.6,3.4,10.1,7.1c-2.5-0.6-4.1-0.9-6.7-1.5c1.9,1.5,2.9,2.3,4.1,3.2
		c-1,0.4-1.7,0.7-3.1,1.2c7.4,2.8,12.6,7.1,16.7,13.4c-2.5-1-4.6-1.9-7.5-3.1c3.4,5.3,9.3,5.5,12.6,8.8c-1.8,2.9-5.4-4.6-6,1.4
		c-0.2,1.9,2.9,4.3,5.2,7.4c-6.6-2.5-11.1-7.2-17.7-6.4c8,1.8,11.9,8.1,17.2,14.3c-3.2-0.7-5.3-1.2-8.3-1.9c2.7,4.1,6,6.7,6.7,10.7
		c-8-3.3-18.6,0.4-23.6-9.6c1.4-0.1,3.3-0.2,6.1-0.3c-2.7-1.6-4.6-2.7-6.6-3.9c1.2-1.6,2.2-2.8,3.1-4c-8.3-7.2-18.2-4.6-22.9,5.8
		c1.8,0.4,3.6,0.7,6.1,1.2c-2.6,1.7-4.4,2.9-6.2,4.1c-2.9-6.7-6.1-12.9-6-20.6c0-5.7,2.4-11.2,0.6-16.9c-0.4-1.3,0-3.1-2.3-1.2
		C293.2,452.6,292.9,448.7,292.6,444.8z M462.7,207.7c-2.9,5.3-4.3,11.3-9.1,17.3c1.5-7,2.8-12.5,4-18c-3.6,5.4-4.7,11.8-9.7,17.9
		c1.1-5.1,2-8.9,3.2-14.2c-2.2,4-3.7,6.7-5.8,10.4c0.2-2.4,0.4-3.6,0.6-6.4c-6.6,12.5-16.2,21.4-18.3,36.5
		c-2.1-7.6-0.8-13.1-0.3-18.8c-3.1,7.4-8.7,13-13.8,19.2c1.9-6.6,3.8-13.3,6-20.7c-0.8,1.2-1.3,1.6-1.6,2.2
		c-1.2,2.4-2.5,4.7-3.4,7.2c-7.1,19.9-12.9,40.4-23.8,58.8c-1.6,2.6-3.4,8.2,2.3,10.5c1.9,0.8,0.9,1.9,0.7,2.8
		c-1.6,6.8-4.3,13.5-3.8,20.9c2.3-0.2,4.5-0.3,6.6-0.5c0.2,1.3,6.7,6.1,8.4,6.2c1,3.4-2.1,5.9-2.6,9.7c1.5-1.7,2.4-2.7,3.6-4.1
		c0.4,1.4,0.8,2.2,0.8,3c0.2,5.3,1.6,7.6,7,3.9c2.9-2,2.2,1.6,3.5,3.2c3.8-7.3,3.5-13.9-1-20.3c-1,0.7-2,1.3-3.7,2.4
		c2.2-6.9,2.3-13-0.8-18.9c-0.5,1.1-1,2.2-2.3,5.1c-0.3-4.4-0.5-6.9-0.7-10.1c-0.9,3.9-1.7,7-2.4,10.2c-0.3-0.1-0.7-0.1-1-0.2
		c-0.4-3.1-0.8-6.2-1.3-9.9c-1.2,1.4-2,2.3-3.5,4.1c0.3-8.2,3-14.1,6.4-20.3c6.5-11.6,19.2-18.6,22.8-32c0.3-1,1.3-1.7,2.3-3.1
		c0.4,2.7,0.6,4.6,0.8,6.5c3.1,0,4-3.9,7.5-2.7c-0.7,2.7-1.3,5.3-2.3,9.2c5.9-6.5,9.4-12.9,12.1-19.7c0.8-2.1,1.1-6.3,3.7-5.4
		c3.6,1.2,2.8,5,1.2,8c-2.7,5.2-5.4,10.5-8.6,16.7c2.2-1.2,3.4-1.8,4.7-2.6c1.7,5.7,2,11,1.7,17.2c3-2.2,5.5-4,8.7-6.4
		c-3.4,11.4-6.5,21.7-9.5,32c0.4,0.2,0.8,0.4,1.1,0.6c3.4-4.3,6.8-8.6,10.8-13.5c-1.1,11.6-15.3,15.1-14.1,26.9
		c1.3,0.1,1.8-2.2,3.4-1c1.4,1,0.9,2.4,0.9,3.8c0.1,10-6.1,19-4.8,29.3c1.1,0.1,2.2,0.2,3.8,0.3c-1.8,3.5-3.5,6.8-5.6,10.8
		c2.1-0.7,3.2-1,4.5-1.4c-0.1,1.1-0.1,1.9-0.2,2.8c6.2-0.2,1.4,4.5,3.6,7.3c2.8-8,5.4-15.5,8.6-24.5c-3.4,4.1-5.7,6.9-8,9.7
		c2.4-9.9,8.5-17.6,12.4-26.6c-3.2,4.1-6.5,8.2-10.1,12.8c2.6-12.3,13.4-19.4,16.2-31.1c-3.6,3.7-7.1,7.5-11.2,11.7
		c0.8-9.5,8.4-14.7,12.5-23.6c-3.7,3.9-6.3,6.6-8.8,9.2c5-13.3,16.4-23.5,16.6-39.1c-2.6,4.8-5,9.3-7.5,13.8
		c2.1-11.2,6.7-21.5,7.8-35.2c-3.1,8.3-4.7,14.7-10.3,21.4c3-10.9,7-19.6,6.5-29.4c-1.6,9.7-7.4,17-14.4,26.1
		c1.4-5.4,2.3-8.7,3.3-12.9c-1.7,1.7-2.7,2.9-4.9,5.1c3-8.4,6.6-15,6.6-22.5c0-7.2,0-14.5,0-24.2c-2.6,5.4-4.1,8.4-6.5,13.3
		c1.9-10.9,4.9-19.5,3.8-30.4c-3.3,9.1-5.1,17-10.8,25.7C459.7,221,461.2,214.3,462.7,207.7z M181.8,347c-3.9-3.2-4.8-6.9-7.1-9.9
		c1.3,6,3.8,11.8,3.5,18c-0.4,8,5.3,7.6,11.5,7.1c-2-1.2-4.1-2.5-7.4-4.5c4.7-0.4,7.3-0.6,10.4-0.8c-1.9-2.3-3.3-4-5-6.1
		c2.5-0.1,4.5-0.2,6.9-0.3c-4.2-5.4,0.5-11.5-3.8-16.6c2.8,0.3,4.5,0.5,5.8,0.7c2.3-4.3-1.7-9.1,2.4-13.4c-0.9-2-2-4.8-3.8-8.8
		c2.4,1.7,3.7,2.7,5.1,3.7c-1.2-10-2.3-19.8-10.2-27.1c1.2,0.7,2.4,1.3,3.6,2c-10.7-15.5-21-31-34.4-44.1
		c4.4,6.3,9.1,12.5,12.6,20.7c-7.2-7.7-12.9-15.3-20.6-21.3c-0.1,1.7-0.2,2.9-0.3,4.7c-4-3.3-7.6-6.2-12.4-10.2
		c1.5,3.5,2.4,5.6,4.3,9.9c-6.3-6.4-12.3-8.7-20.1-13.4c7.7,10.3,2.8,20.7,7.8,28.5c-5.4,0.5-7.8-4.3-12.1-6.8
		c0.4,6.1,0.8,11.7,1.2,18.6c-1.4-2.3-2.1-3.3-3.2-5c0.3,3.7,0.5,6.6,0.9,11.6c-2.9-4.4-4.7-7-6.7-10.1c1.9,16.3,3.7,32,5.7,48.5
		c-2.6-4.2-4.8-7.8-6.9-11.4c-0.2,0.1-0.4,0.2-0.6,0.3c4.9,11.7,9.9,23.5,15.7,37.3c-7.1-6.3-10.5-12.4-14.6-18.2
		c3.3,14.3,13.2,24.1,20.9,35.7c-3.9-3.1-7.8-6.1-12.1-9.5c2.2,3.6,36.2,38.7,37.1,38.2c-2.2-2.4-5.2-4.1-6.3-7.7
		c2.1-0.2,4-0.3,6.4-0.5c-3-5.1-5.7-9.7-8.7-14c-3.8-5.5-5.2-12.8-12.4-16.1c-3.1-1.4-5.5-4.7-7.6-7.7c-3.2-4.6-5.2-9.8-5.3-16.8
		c3.5,4.3,6.2,7.7,8.9,11c-2.2-5.2-6.1-9.4-7.5-16.7c2.8,4.4,4.8,7.4,6.7,10.4c-3-7.6-4.4-15.3-5.6-24.3c2.8,4.1,4.9,7.2,7,10.3
		c-1.9-6.3-5.5-11.8-5.7-20.1c2.8,5.2,4.8,9,6.8,12.7c0.5-1.9,0.1-3.5-0.5-5c-4.1-10.2-7.2-20.6-5.2-31.8c1.1-6.1,4.3-7.1,9.3-3.7
		c4,2.7,6.8,6.6,10.3,10c-1.6-4.3-3.8-8.2-5.9-12.2c-0.5-0.9-0.5-2-0.7-3c1.1-0.2,2.2-0.7,3.2-0.5c5.5,0.8,9.6,4,13.3,8.9
		c0.2-4.3-2.5-6.6-3.7-11.1c8.2,7,14.7,13.5,19.1,23.4c0.1-5.5-3.4-8.9-2.3-13.7c10.6,7.1,18,15.8,20.5,28.4
		c-4.3-6.6-8.4-12.9-12.5-19.3c5,11.1,12.7,21,13.2,34.2c-1.7-3.4-3.3-6.4-5.7-11c0.7,7.6,1.3,13.4,1.9,20.2c-1.7-1.8-2.7-2.8-3.8-4
		c-1.5,4.7,0.8,9,0.6,14.7c-2.3-3.1-3.7-5.1-5.9-8C179.2,337.4,180.4,341.7,181.8,347z M342.5,594c-6.7-5.3-13.8,0.4-20.5-0.3
		c-8.6-0.9-13.8,3-18.7,10.9c2.2-7.1,2-8.1-1.7-10.2c-1.1,9.5,5.6,19.4-1.5,28.5c2.2-5.8,0.5-11.2-1.5-17.1
		c-0.7,6.8-4.2,2.2-6.7,2.2c1.3,2,2.6,3.9,3.8,5.8c-2.4-0.8-3.9-2.2-5.6-3.5c-8.2-6.6-17.5-7.6-25.7-3.4c-4.8,2.5-5.5,5.8-1.9,9.3
		c8.9,8.6,18.6,16.2,31.5,17.8c15.4,1.9,25-2.5,30.9-14.1c2.1-4.1,3.5-8.5,5.6-12.6c1.1-2.2,2.5-3.9,5.2-1c1.4,1.5,3.9,1.3,5.2-0.8
		c0.8-1.2,0.9-3.5,2.8-2.6c2,1,1.7,3.4,0.9,5.2c-1.5,3.6-2,8-7.8,9.7c3.5,0.4,4.9-0.7,6.1-2c4.2-4.4,4.1-9.7,1.7-14.6
		c-2.4-4.8-7.5-5.1-12-4.7c-11.4,0.9-17.7,8.8-23.1,18.2C309.7,601.3,326.6,591.3,342.5,594z M345.2,409.6
		c8.4,2.2,14.6-2.6,21.5-5.2c3.6-1.4,7.1-1.3,10.8,0.5c9.3,4.6,16,11.6,20.4,20.9c1.9,3.9,3.5,7.9,5.3,11.9c0.7-1.4,0.7-2.5,0.4-3.6
		c-3.9-14.2-11.6-25.7-25.1-31.9c-10.9-5-17.1-15.3-26.4-22c-1.5-1.1-5.8-1.2-4.6-6.1c-4.5,4.2-8.5-0.4-12.8,1.2
		C324.5,379,319,387,318,397.9c-0.9,8.8,1.9,15.4,7.8,21.3c0.5,0.5,1.1,1.3,1,1.8c-0.6,2.7,5.3,11,8.3,11.3
		c-3.9-8.2,1.5-21.5,10.7-25.8C345.5,407.8,345.3,408.9,345.2,409.6z M477.1,373.2c-0.2-0.2-0.4-0.5-0.6-0.7c3.4-3,6.9-5.9,10.2-8.8
		c-5.1-2.5,1.7-4.7,0.2-7.1c-3.2,0.2-4.5,5.1-8.6,3.8c0.9-1.7,1.8-3.3,2.5-4.8c0.8-1.6,1.6-3.2,2.2-4.9
		c15.7-44.1,18.6-89.4,13.7-135.6c-1.4-13.4-3.7-26.6-6.9-39.7c-2-7.9-10.9-12.1-16.4-7.9c9.3,0.7,12.9,4.2,15.6,17.3
		c9.1,43.5,6.8,86.9-2,130.2c-2.9,14.1-8.2,27.5-14.2,40.8c1.8,0.1,3.2-2.6,4.6-0.1c-2.2,3.4-4.5,6.7-6.9,10.3
		c1.9,0.3,3.1-1.4,4.3,0.4c1.3,1.9-0.5,2.5-1.2,3.4c-5.7,7-10.3,14.5-13.8,23.2c1.1-0.4,1.8-0.6,2.5-0.8c-4.2,3.2-1.1,8-3,11.7
		c0.9-0.2,1.5-0.3,3.1-0.5c-3.4,3.8-6.1,6.7-8.5,9.3c1.5,2.8-1,4.2-2.2,5.7c-1.6,1.8-3.6,3.3-5.7,5.1c8,0.6,19.9-6.3,21.8-12.5
		c-3.7,2.1-6,6.3-11.2,6.7c3.4-5.1,6.5-9.7,9.6-14.4c0.9-1.4,2.2-2.9-1.3-2.9c1.7-2.2,3.1-4,4.8-6.2c-1.8,0.3-2.9,0.4-5,0.8
		c4-5,6.5-9.9,12.6-14c-3.6,1-5.4,1.5-8.4,2.4c6-4.7,11-8.6,16-12.5c-0.2-0.3-0.4-0.6-0.6-0.9C481.9,370.8,479.5,372,477.1,373.2z
		 M341.7,628.9c0.2,0.2,0.5,0.3,0.7,0.5c-3,5.2-5.5,10.6-8.9,15.4c-13.6,18.9-59.4,17.7-67.8-9.8c-3.7-12.2-15-21.1-27.4-30.1
		c13.8,19,22.3,39.5,40.2,52.8c13.5,10.1,37.6,10.4,49.9,0.4c20.2-16.4,29.7-40.4,42.6-62c-10.1,12.1-24.3,20.3-32.4,36.1
		C340.3,630.5,341,629.7,341.7,628.9z M223.6,413.2c8.8,2.6,15.6,6.3,19.4,14.3c2.8,5.9,7.9,5.9,11.6,0.4c4.3-6.5,5.2-13.7,3.6-21.2
		c-1.9-9.1-5.4-18.2-14.9-20.8c-7.2-1.9-15.1,1-22.4,4.8c1.1,0.8,1.7,1.2,2.5,1.8c-1.3,0.2-2.2,0.3-4.3,0.6
		c4.9,2.2,10.3,2.1,11.1,8.1C231,406.4,229,410,223.6,413.2z M565.6,553.3c10.1-10.8,11.6-21.4,5.1-33.1c-2.4-4.4-4-8.9-4.9-13.8
		c-3-16-11.4-24.6-27.4-27.6c-5.8-1.1-11.5-1.8-17.1-3.8c-13.1-4.7-26.1-3.6-38.9,2.1c20-10.1,38,3.1,57.6,4.3
		c-3.3,1.1-6,1.9-8.7,2.8c5.8,0.2,11.4-0.7,16.7,2c10,5.1,13,14.1,13.1,24.6c0,1.7-0.2,2.3-1.9,2.9c-3.9,1.3-8.2,2.2-9.7,7.9
		c2.3-1.5,2.9-4,5.8-3.9c-0.8,1.5-1.5,2.8-2.2,4.1c-4.9,8.2-3.8,19.4,2.7,26.4c1.1,1.2,2.3,1.7,3.7,1.5c1.6-0.2,1.6-1.8,1.9-3
		c1.6-7.9,1.3-15.7-1-23.4c-0.6-2-3.6-5-0.1-6.3c3.9-1.4,4.5,2.7,5.3,5.3C568.3,532.1,568.3,542.2,565.6,553.3z M531.7,571.8
		c0.8-0.6,1.6-1.2,2.3-1.9c12.2-11.8,14.7-29.9,6.3-45.3c-0.8-1.5-1.9-2.7-1.6-4.7c0.9-7.6-0.5-14.9-4-21.7
		c-1.4-2.8-3.3-5.3-7.8-6.6c5.4,6.8,8.1,13.4,8.6,21c0.2,2.9-0.4,4.4-3.4,5.3c-5.3,1.5-9.2,4.9-9.3,10.8c-0.3,9.4-0.8,18.8-2.2,28.1
		c-0.7,4.5,3.9,4.1,6.3,5.3c2.5,1.3,2.7-1.3,3.1-2.8c2.6-8.4,2.5-17,1.8-25.7c-0.2-2.5-1.7-6.8,0.9-7.1c3.1-0.4,3.2,4.1,3.8,6.7
		c2.2,8.3,2.5,16.8,0.9,26.1c1.3-1,1.8-1.4,2.7-2.1C538.4,563,534.5,567,531.7,571.8z M118.2,547.3c2.2-2.5,4.5-5.1,7-7.6
		c0.8-0.8,1.8-1.4,3.1-0.5c1.4,1.1,0.5,2.1,0,3.1c-2.9,5.3-4.5,11-4.9,17.1c0,0.4,0.2,0.7,0.4,1.3c0.7-0.8,1.1-1.3,1.9-2.1
		c0.2,1.3,0.5,2.2,0.5,3.1c0.2,3.1,1,5.8,4.7,6.1c3.8,0.3,7.5,1.5,10-3.5c5.2-10.3,5.6-19.9-1.9-29.2c-4.2-5.3-8.9-5.2-14-1.6
		C120.3,537,119.4,542.3,118.2,547.3z M229.7,451.6c-1.8,7.2-10.3,10.5-14.6,5c-3.2-4.1-7.2-3.6-11-5.4c-0.3,3.4,0.8,6.2,2.4,8.7
		c5.3,8.3,16.5,10.7,24.7,5.2c7.5-5,8.6-12.2,3.3-20.1c-1.9-2.8-4.4-3.7-7.4-3c-2.1,0.4-3.5,2-3.5,4.1
		C223.6,450,227,450.5,229.7,451.6z M54.2,528.2c2.6,1.3,2.7,3.4,2.3,5.4c-1,6.2-0.7,12.4,0.9,18.4c0.6,2.2-0.5,6.2,3.2,5.9
		c4.1-0.4,8.5-2.3,9.6-6.9c2.4-9.6-3.1-20.1-12.2-24c-2-0.9-3.7-1.1-5.3,1c-5.5,7-4.9,14.9-4.2,22.9C49.2,543.2,49,535.1,54.2,528.2
		z M177.5,559.8c-3.7-10.1-8.5-19.3-19.8-22.8c-1.3-0.4-3.1-1-3.4-2c-4.6-11.9-12.8-22.1-17.6-33.5c-6-14.2-15.8-20.8-29.1-24.7
		c-21-6.1-40.2,2.8-60,7.4c-0.3,0.1-0.6,0.5-2,1.6c4.8-1.3,8.3-2.2,12.6-3.3c-2,2.4-4.9,2.6-5.7,5.5c9.1-3.2,17.3-7.8,26.5-9.5
		c19.4-3.6,38.1-2.3,50.3,15.1c8.5,12.2,17.3,24.7,21.8,39.4c0.8,2.6,1.7,6.1,5,6.8c4.5,1,8.1,3.3,11.4,6.1
		C171.8,549.8,174,555.3,177.5,559.8z M384.1,439c-6.9-1.1-6.6,4.5-8.3,8.3c-1.7,3.7-4.7,5.4-8.7,5.6c-4.3,0.2-7.4-2-9.2-5.8
		c-1-2.1-2.2-2.3-4-1.2c-1.7,1.1-4.1,1.5-2.7,4.7c3.7,8.3,13.4,12.6,22.3,9.5C381.7,457.2,386.5,447.5,384.1,439z M340.4,532
		c-2.8,5.8-7.1,8.3-12.5,9.5c-2.1,0.5-4.8,1-4.4,3.7c0.5,2.6,3.3,1.8,5.2,1.6c6.7-0.7,10.1-5.4,12.4-11.1c3.1-7.7,3.3-15-2.8-21.5
		c-7.1-7.6-16.5-10.5-26.2-12.2c-10.6-1.9-21.3-1.8-31.6,2c0.7,0.3,1.4,0.2,2.1,0.1c15.8-2.4,31.1-0.8,45.6,6.2
		c6.3,3,11.6,7.4,10.5,15.5c-0.4,2.7-1.9,5.2-3.2,8.6C337.5,533.5,338.7,532.9,340.4,532z M263.2,531.8c0.2,0.4,0.3,0.8,0.5,1.2
		c3.2-0.9,6.3-1.9,9.5-2.8c16.4-4.5,33.2-5.7,50.1-4.1c2,0.2,4.2,0.4,4.7-2.1c0.6-2.7-1.9-3-3.6-3.6c-1.2-0.4-2.5-0.6-3.8-0.7
		c-17.9-1.5-35,2.1-51.5,8.9C267.1,529.4,265.2,530.7,263.2,531.8z M311.6,361.9c10.3-11.7,22.2-6.4,35.5-5c-3.6-2-5.1-2.9-6.7-3.8
		c1.2-1,2.1-1.7,3-2.4c-5.6,3.2-10.9-3.3-16.3-0.2c-1.7,0.9-3.7,1.2-5.9,1.8c0.8-1.1,1.3-1.9,2.4-3.7c-6.4,3-11.7,5.5-17,7.9
		c-0.2-0.4-0.3-0.9-0.5-1.3c-1.5,1.1-3,2.1-5.8,4.1c2.2-4.3,3.6-7.1,5.5-10.8c-6.2,3-8.8,7.6-12.9,14c2.9-2.6,4.1-3.7,5.8-5.3
		c-0.6,3.6-1,6.4-1.8,11.4c4.7-6.9,10.3-9.1,15.7-12.1C312.4,358.2,312.2,359.3,311.6,361.9z M413.1,401.2c1.4,2,2.1,3,3.3,4.7
		c0.1-5.4-1.9-9.1-3.2-13.4c1.3,0.4,2,0.7,4,1.3c-3.7-4.4-6.3-8.1-9.5-11.2c-3.2-3.2-2.8-8.4-6.7-11.2c1.2,0.8,2.5,1.6,4.4,2.8
		c-4-7.5-21.2-18.8-30.5-18.9c18.1,5.6,24.2,20.4,33.4,31.3c-1.4-0.6-3.4-1.5-6.9-3.1c4.2,4.7,8.5,7.1,9.7,12.4
		c-1.2-0.5-2-0.9-3.9-1.8c4.1,6,3.9,12.4,7.1,17.7C414,408.8,413.6,405.6,413.1,401.2z M318.5,312.3c12.4-1.2,23.4,2.4,33.7,8.8
		c1.4,0.9,3.3,1.7,3.8,3c0.6,1.7-2.2,1-3.2,2.7c6.9-2.6,12.3,5.2,20.6,0.6c-10.8-1-17.1-8.5-27.8-10.2c3.5-1.1,5.4-1.7,7.3-2.2
		c0-0.4-0.1-0.8-0.1-1.2c-3.9,0-7.9,0-13.6,0c2.6-1.6,3.5-2.1,4.8-2.9C335.1,308.3,326.7,308.1,318.5,312.3z M55.7,530.3
		c-1.4,1.4-1.9,1.6-2,1.9c-4.9,13.9-4.9,27.6,3,40.6c1.4,2.2,3.6,3.2,7,2.7C53.9,562,52.4,547.2,55.7,530.3z M192.3,456.7
		c2.1,7.8,6.5,13.8,13.9,17.3c8.3,3.9,16.8,5.5,25.5,0.9c-7.7,1-15.2,0.6-22.2-3.3C202.7,467.9,197.8,462.1,192.3,456.7z
		 M397.2,444.8c-9.8,17.8-19.4,33-42.8,22.1c6.2,6.5,15.8,7.6,24.5,4.1C388.5,467,397.3,455.6,397.2,444.8z M468.4,562
		c1.1-2.7,1.5-5.9,1.6-7.8c0.2-7.1,0.5-14.9-5.6-20.6c-2.8-2.6-6.1-3.2-8.5-0.6c-2.2,2.5,0.2,5.1,1.8,7.7c1.1-2.4-1.2-4.6,0.7-7.1
		C466.4,541.6,467.1,551.8,468.4,562z M122.3,585.9c-1.9-7.9-3.2-15.6-2.1-23.5c1.1-7.8,3.4-15,8-22.8
		C116,548.5,112.1,581.4,122.3,585.9z M280.9,371.1c-3.2-3.4-6.1-6.5-8.9-9.5c-0.3,0.2-0.6,0.4-0.9,0.6c1.1,2.2,2.1,4.3,3.8,7.7
		c-5.6-4.5-10.6-7.2-17.2-7.4c1.2,3,2.1,5.6,3.2,8.3c-2.3-0.4-4.1-0.7-8.5-1.5c5.7,3.1,9.1,4.9,12.8,6.9c-1-3.8-3.5-6.6-2.8-10.4
		c6.7,0.5,10.5,7.1,17.7,8.7c-1-2.3-1.4-3.3-1.9-4.4C279,370.4,279.7,370.7,280.9,371.1z M240.1,439.6c-4.7-10.3-14-16.2-22.8-15.1
		c-8.5,1.1-20.8,10.6-21.7,16.7C216,423.5,224.4,423.1,240.1,439.6z M432.7,383.3c-2.9-0.7-5.5-1.4-8.8-2.2c2-1.8,3.4-3,5-4.4
		c-2.9-1.2-6.2-0.3-8.1-3.2c2-1.1,4.6-0.5,5.8-2.7c-5.2-1.9-10.3-3.7-15.4-5.5c5.8,2.6,6.4,9.9,12.9,12.9c-2.9,0.4-4.6,0.6-6.3,0.9
		C419.9,384.9,427.3,386.9,432.7,383.3z M356.8,420.9c8.2-0.5,15.5-1.3,22.5,1.9c7.1,3.2,11.4,9.2,16.4,15.8
		C392.2,422.3,368.4,411.3,356.8,420.9z M294.8,315.2c0.9,1.5,1.4,2.4,2.3,3.9c3.4-6.5,11.6-5.1,16.1-10.9
		c-4.9,0.9-9.1,1.9-12.6,4.5c-3.3,2.4-6.9,0.9-9.5-0.3c-6.9-3.1-13.8-1.1-20.8-0.5C278.5,313,286.7,314.1,294.8,315.2z M458.8,537.9
		c5.5,15,5.7,28.9,2.6,43c-0.2,1.1-1.6,2.7,0.4,3.2c1.9,0.5,2.1-1.6,2.4-2.8c2.8-10.2,2.6-20.4,0.3-30.7
		C463.6,546.5,463,542.2,458.8,537.9z M531.6,526.2c4.2,17.7,2.8,33.3-6.5,48.7C535.6,569.3,540.2,535.9,531.6,526.2z M107.6,525.7
		c2.1-8.8,6.1-16.1,11.6-23.7c-4.1,1.7-5.1,5-7.6,7.7c1.2-4.9,4.1-8.3,7-12.6C110,500.3,104.6,515.2,107.6,525.7z M559.4,516.2
		c5.4,15.5,6.5,29.8-1.5,44C567.3,555.2,568.9,523.3,559.4,516.2z M248.4,592.4c2.8,3,5.3,5.7,7.8,8.2c0.4,0.4,1.8,0.6,2.1,0.3
		c0.6-0.6,1.1-1.6,1.1-2.5c0-0.4-1.2-1-1.9-1.2c-0.9-0.3-1.8-0.3-2.7-0.5c1.7-4.2,7.2,2.6,8-3.4c-5.6-2-11.1-4-16.9-6.2
		c0.6,3.1,3,3.1,5.2,4C250.2,591.6,249.5,591.9,248.4,592.4z M301.9,638.6c0.9,1.4,1.1,2,1.5,2.3c2.7,1.9,5.3,0.3,7.8-0.4
		c2-0.6,0.7-2.2,0.3-3.2c-1.1-3.1-3.4-1.1-5.1-1.1c-2.6,0.1-5.3,0.4-7.9,0.7c-1.6,0.1-3.6-0.6-3.6,2.2c-0.1,3.4,2.5,2.7,4.4,3.2
		C301.5,642.7,302.4,641.8,301.9,638.6z M360.3,580.3c-5.1,2.9-10,5.7-15.5,8.8c1.3,1,2.2,1.8,2.8,2.2c-2.1,1.7-0.6,3,0.3,4.6
		c2.4-1.8,6-2,6.3-5.5c0.2-2.1-2.8-0.8-3.9-2.4c2.8,0.3,5.6,1.4,7.7-1.2C354.8,583,361.4,583.6,360.3,580.3z M334.6,361.6
		c9.3,1.2,13.4,10.6,22.8,12.2c-2.6-3.8-5.6-5.7-8.7-7.2c-3.4-1.7-5.8-3.2-0.7-6.4C343.2,358.7,339,357.4,334.6,361.6z M72.9,523.3
		c2.4-11.9,6.8-22.4,15.5-31.3C79.4,493.1,69.3,514,72.9,523.3z M372.8,352.9c6.3,1.5,11.5,2.7,18.3,4.3
		c-9.5-6.6-17.4-12.7-30.1-13.1c6.7,2.8,11.5,4.8,17,7C376,351.8,374.9,352.2,372.8,352.9z M372.5,443.1c2.5-0.5,5.2-1.3,5.1-4.5
		c-0.1-3.3-2.8-4.7-5.8-4.8c-2.8-0.1-5.2,1.5-5.2,4.5C366.8,441.7,369.4,442.8,372.5,443.1z M458.8,544.1c-3.5,2.4-4.4-1.5-8.5-4.3
		c5.8,8.7,8.9,15.9,8.9,25.8C461.4,557.1,461.2,550.6,458.8,544.1z M456.5,575.6c-4.6-9.7-8.2-19.7-9.6-30.4
		C445.5,556.8,450.3,566.5,456.5,575.6z M56.1,516.1c-5.4,1.9-14.1,16.3-12.6,20.7C47.6,530,51.9,523.1,56.1,516.1z M549.1,518.1
		c1.1-11-1.4-18.2-7.5-24.1c-1-1-2.1-0.6-2.8,0.8C544.6,500.6,547.9,507.5,549.1,518.1z M19.8,549c-0.9-3-1.4-4.7-2-6.4
		c-2.3-7.1-1.6-13.9,3.3-19.6c4.5-5.2,5-5.1,5.6-10.8C19.8,522.3,10.5,533.1,19.8,549z M89.5,524.6c-8.4,5.3-13.2,17.2-10.4,24.1
		C80.4,540,83.1,532.5,89.5,524.6z M233.8,466.9c11.7-4.9,13.6-9,7.7-14.8C240.9,457.5,238.9,462.2,233.8,466.9z M388.1,438.1
		c-0.3,3.3-0.2,6.3-0.8,9.2c-0.6,2.8-2,5.5-3.1,8.4C391.6,450.3,393.3,443.3,388.1,438.1z M314.5,639.5c3.1-1.3,6.4-2.2,8.3-5
		c0.3-0.4-1.3-2.9-1.5-2.8c-2.6,0.8-5.3,1.6-7.5,3.1C312,636,313.8,637.7,314.5,639.5z M203.8,462.4c-2.6-4.6-3.6-9.7-3.9-15
		C191.8,455.2,200.5,458.1,203.8,462.4z M117.7,527.4c3.1-7.9,5.4-13.7,8.4-21.2C120.2,512.6,117.7,518.3,117.7,527.4z M284.5,634.2
		c-1.6,6.5,3.3,5.7,6.1,6.9c1.1,0.5,2.5,0.5,2.4-1.4C292.7,633.7,287.2,636.8,284.5,634.2z M354.3,335.4c6.7,0.9,12,5.7,20.7,7.7
		C367.6,337.2,361.5,334.9,354.3,335.4z M325,633.5c2.9-2.1,5.1-4.4,6.5-7.6c-1.8-0.5-3.3-3-5.1-0.1
		C324.8,628.1,321.1,630,325,633.5z M353.6,458.9c-3.9-3.8-5.9-8-7-12.6C342.1,453.8,345.9,457,353.6,458.9z M175.1,362.3
		c0.9-0.2,1.8-0.4,2.7-0.6c-1.9-2.2-3.7-4.2-6.1-6.9c1.3,6.8,3.3,12.2,8.2,16C178.9,367.7,175.9,365.8,175.1,362.3z M50.7,494.8
		c-4.2,4-8.4,8-9,14.3C44.7,504.4,47.1,499.2,50.7,494.8z M318,651.6c10-2,14.5-7,17.5-13.7C331.7,643.6,326.5,647.8,318,651.6z
		 M274.7,629.3c0.3,5.1,3.6,6.3,7.1,8.1C282.2,631.7,278.1,631.3,274.7,629.3z M320.4,471c-3.2-6-9.4-7.4-13.4-3.6
		C311.8,466.7,315.8,468.1,320.4,471z"/>
	<path d="M318.4,626.4c-5.7,5.8-12.7,5.9-19.9,5.6C305.5,631.5,311.9,628.6,318.4,626.4z"/>
</g>
</svg>
