<?xml version="1.0" encoding="utf-8"?>
<!-- Generator: Adobe Illustrator 24.2.3, SVG Export Plug-In . SVG Version: 6.00 Build 0)  -->
<svg version="1.1" id="Layer_1" xmlns="http://www.w3.org/2000/svg" xmlns:xlink="http://www.w3.org/1999/xlink" x="0px" y="0px"
	 viewBox="0 0 595.3 841.9" style="enable-background:new 0 0 595.3 841.9; fill: #215342;" xml:space="preserve"
	 height="375" width="450" transform="translate(-65, -70)">
<g>
	<path d="M292.8,356.6c0.9-1.1,1.9-2.2,3.3-3.8c-3.4,15.8-8.4,30.7-7.8,48.4c-0.5-2.8-0.7-3.9-0.9-4.9c-0.2,0-0.3,0-0.5,0.1
		c0,7,0,14,0,21.7c-1.1-1.2-1.8-2-2.5-2.7c-1.5,1.3-0.1,2.8-1,4.3c-3.1,0.8-6-0.4-9.1-1.8c1.5-4.2-3.4-3.6-4.8-6.4
		c2.2,0.5,4,1,6.4,1.5c-2.5-3.5-6.1-4.3-8.7-6.5c3.3,1.5,6.7,2.9,10.1,4.4c-2.4-7.1-17.7-12.1-22.9-7.4c4.4,0.7,8.9,1,12.8,3.1
		c-6.5-1.2-13-1.8-20.6,1c4.9,0.5,8.6,0.9,12.3,1.3c-8.4,0-15.5,2.8-21.3,8.8c9.1-0.5,18.2-0.8,27.2,1.3c-4.2,0.7-8.7-0.3-13.6,2.5
		c2.6,0.2,4.4,0.3,7.4,0.5c-8.7,2.7-15.3,6.2-20.8,12c2.9-1.3,5.8-2.5,8.7-3.8c-9.3,5.8-12.5,15.6-17.1,24.5
		c-2.2,4.2-5.3,6.8-11.1,6.4c1.4-0.8,2.3-1.3,3.5-2c-2.2-1.8-4.7-0.8-7-1.5c1.3-2.7-0.5-3.1-2.5-3.4c-1.8-0.3-3.8-0.2-5.5-0.8
		c-7.3-3-1.4-5.6,1.1-8.9c-2.9,0.6-5,1.1-7.2,1.5c-0.2-0.3-0.3-0.5-0.5-0.8c1.1-0.6,2.1-1.2,3.2-1.9c-0.2-0.3-0.4-0.6-0.6-0.9
		c-1.4,0.6-2.7,1.2-4.3,1.8c-0.7-2.9,2.8-3.4,2.7-5.9c-1.8,0.4-3.6,0.7-5.5,1.2c0.4-3.2,5.8-2.3,4.8-6.4c-3.2,0.3-6.4,0.5-10.5,0.9
		c1.8-1.3,2.7-2,3.8-2.8c-1.9-1.8-4-0.3-4.4-0.4c-3.6-6.5-11.3-6-14.7-12c-0.6,1.9-0.6,3.6-2.5,3.1c0.3,2.7,2.9,3,4.3,4.9
		c-2.3,0.3-4.4,0.6-7.4,1.1c2.1,1.3,3.5,2.2,5.2,3.2c-0.8,0.7-1.3,1.2-2.5,2.2c3.4,0.4,6.1,0.8,9.3,1.2c-2.7,2.1-5.9,1.9-9.3,3.1
		c4.6,1.8,8.4,0.7,13.8,0.2c-6.5,2.3-12.3,1.9-18.3,5.6c7.2-1.4,13-2.6,19.3-3.8c-1.9,2.8-4.6,3.5-7.4,5.2c1.5,0.1,2.5,0.1,4.4,0.2
		c-2.2,1.4-3.6,2.3-5.5,3.5c4.3,0.8,7.7-1.1,12.3-1.5c-4.9,4.4-10.8,6.1-15,11c4.6-2.5,8.6-4.7,12.8-7c-0.4,5-4.4,7.6-7.5,12.6
		c3.4-2.1,5.4-3.4,7.5-4.7c-4.7,5.4-9.8,10.5-12.2,19.1c2.4-2.5,3.9-4.1,5.3-5.6c-3.8,7.5-5.2,15.4-4.7,23.6c0.1,1.5,0.2,3,1.7,3.9
		c10,6,19.7,12.3,26.5,24.1c-1.1-9.9-5.4-16.7-9.6-23.8c5.7,2.9,10.2,12.3,10.9,22.3c1.8,23.6,25,45.9,48.8,46.9
		c9.2,0.4,18.3-0.3,27.1-3.7c5.4-2.1,5.7-6.2,5.6-10.7c-0.1-4.2-3.2-5.5-6.6-6.5c-25-7.3-37.8-25.8-35.6-51.9
		c0.6-6.7,2.7-13,10.3-15.3c3.5-1.1,7-2.9,10.6-3.3c14.4-1.8,29-2.6,43.4-1.6c19.3,1.3,29.6,17.9,25.3,38.5
		c-4.4,20.8-15.7,31.4-37.1,34.1c-6.8,0.9-9.7,3.8-9.3,10.7c0.2,3.2,1.6,4.8,4.3,6c34.9,15.9,75.1-9.5,75.5-47.8
		c0-1.9,0.5-2.9,2.4-3.5c4.8-1.6,9.6-3.1,15.9-3.3c-14.9,12.2-21,29.2-30.9,44.4c3.2,0.1,3.9-3.7,6.5-2.8c1.1,1.1-0.8,1.8-0.3,2.8
		c0.5-0.1,1-0.2,2.2-0.5c-4.2,3.7-6.1,8.2-9.2,12.5c1.9-0.7,3.4-1.3,5.5-2.1c-22.7,19-25.8,35.3-13.1,67.6
		c-4.2-2.8-2.2-11.6-10.5-10c-5.2,1-11-1.4-15.6,3.2c0.5-0.9,1-1.9,1.8-3.3c-4.3-0.4-7.1,2.4-11.1,3.8c1.1-1.4,1.7-2.2,2.5-3.3
		c-7.3,0-14.4,0-21.4,0c-24.4-0.1-48.8-0.2-73.3-0.4c-2.8,0-4.4,0.8-5.8,3.2c-1.6,2.8-3.8,5.3-5.9,7.7c-2.1,2.3-4.4,4.5-3.9,9.2
		c-0.8-1.6-1-2.1-1.3-2.6c0,0-0.1,0.1-0.1,0.1c2.4-8.1,1.5-16.3,0.4-24.5c-0.2-1.7-0.5-3.3,0-5.2c1.1,3.2,2.3,6.4,3.9,11
		c0-3.7,0-5.8,0-9.8c1,2.9,1.3,3.9,1.7,5c6-5.4,9.5-23.3,9-37.9c-0.5-14.5-10.1-24.3-16.2-35.9c6.4,6,11.6,12.9,15.6,21
		c-0.7-4.4-0.9-8.9-2.2-13.1c-7.3-23.6-19.8-43.3-43.4-53.8c-17-7.5-32.7-3.3-46.2,7.7c-15.6,12.7-25.9,29.6-32.9,48.3
		c-1.3,3.5-0.5,7.2-2.5,10.9c-3.9,6.9-10.4,8.5-17,10.5c2.9-1.9,5.9-3.8,8.8-5.7c-6.5,0.2-12.4,3.7-20.1,0.9c9.9-0.7,16-5.6,21.3-13
		c-4.1,0-7.5,0.8-11.7-0.5c10.4-2,16.7-8.5,22.6-15.7c-7.7,3.4-15.1,7.6-24.2,4.7c14.5,0.8,20-10.8,28.8-20.4
		c-10.8,3.6-20.5,5.3-30.4,4.2c-0.8-0.1-1.5-0.4-2.4-0.8c13.1,1.3,21.6-6,29.3-15.6c-6.2,0.8-12,1.2-18.9-1.3
		c10.7,0.1,19.5-2.1,27.9-9.6c-11.1,0.3-20.9,0.3-30-4.2c10.7,2.6,20.5,0.5,30.8-5.4c-11.8-4.6-24.5-3.1-35.8-10.3
		c8.7,2.5,16,1.4,23.8-2.7c-8.6-1.6-16.5-3.1-23.7-7.2c7.7,2.6,14.5,0.6,21.7-4.6c-7.2,0.5-13.3,0.1-19.5-4.2c4.8-0.9,9,0,13.3-2.5
		c-4.2-0.6-7.6-1-11-1.5c14.2,0.8,27.1-2.3,39.7-12.6c-22.8,8.9-27.2,9.4-37.9,3.8c6.1,0.5,10.5-0.6,14-4.6
		c6.4-7.5,4.5-15.4,1.4-23.3c-3.2-8-10-13.4-15.5-19.8c-1.1-1.3-2.2-2.5-2.8-4.5c2.9,1.8,5.8,3.6,10.4,6.5
		c-12.4-14.6-31.1-21.8-33.1-42.1c-1.3,5.7,3.1,15.9,10.7,25.8c-6.9-3.8-16.1-18.4-18.3-30.7c-2.2-12.3,0.4-24.2,4-36.2
		c-0.8,1.2-1.6,2.5-2.3,3.7c-0.7,1.3-1.3,2.7-2,4.1c-8.9,18.1-9.9,35.3,4.7,51.4c5.5,6.1,12.1,10.6,18.7,15.5
		c10.9,8.1,20.4,17.8,20.9,32.8c0.1,5-2.3,9.1-7.3,13.3c2.4-5.3,3.6-9.5,3.2-14c-1.1-11.6-8.4-19.3-16.5-26.5
		c-9.5-8.4-20-15.7-26.9-26.6c-7.5-11.8-8.7-24.4-3.9-37.4c2.8-7.6,6.2-15,8.5-22.9c-6.3,18.7-18.2,34-28.9,48.9
		c-0.9-2.9,1.6-9.3,8.5-18.9c4.4-6.2,9.1-12.3,11.8-21.3c-6.8,8.4-13.5,14.5-23.1,18.6c4.3-3.5,7.9-6.2,11.3-9.2
		c6.5-5.9,9-13.3,8.1-21.9c-0.3-3,1.9-4.8,3.5-6.9c1.2-1.6,2.6-3.1,4.8-5.7c-2.3,0.9-3.3,1.4-4.9,2c1.5-6.3,3.6-11.4,8.9-15
		c5.2-3.5,10.9-5.2,17-5.7c5.8-0.4,11.7-0.1,17.6-0.9c-8.4-3-16.9-4.9-25.9-4c2.5-1,5-2.1,7.5-3.1c0-0.2-0.1-0.4-0.1-0.6
		c-2.6,0.6-5.1,1.2-9.7,2.2c4.2-1.7,6.6-2.7,8.9-3.6c0-0.2-0.1-0.5-0.1-0.7c-1.5,0.1-3,0.2-5.4,0.3c8.6-5,17-7.3,25.8-7.7
		c6.4-0.2,12.9-1.9,19.4,0.1c0.6,0.2,1.4-0.1,2-0.3c6.3-1.7,12.9-2.9,18.9-5.3c12.3-5,24.9-3.5,37.5-2.7c2.2,0.1,4.4,0.2,6.7,0.3
		c0-2.5-1.7-2.5-3.1-2.8c-14.4-2.9-28.4-2.8-42.4,3.1c-7.2,3-15.5,1.7-23.4,2.1c11.3-2.1,22.4-5.1,32.1-12.2c-3.5,1-7,1.9-10.5,2.9
		c-3.5,1-7.1,2-12.1,3.3c19.3-10.4,38.4-14,58.7-11.7c-9.5-2.8-19.2-2.9-30.3-2.4c5.2-2.5,9.9-2.1,14.1-5.1
		c-5.6-3.5-11.2-1.5-16.3-2.2c6.3-3,17-1.6,45.8,6c-4.1-6.5-17-12.1-30.2-12.8c-11.5-0.5-21.9,4.1-32.7,6.9
		c27.5-12.6,53.9-9.9,80,7.3c-1.6-6.9-6-10.3-10.5-14.9c7.6,1.7,12.8,5.6,18.8,9c-4.7-9.5-18.6-19.5-39.3-28.6
		c15.9,1,29,8.8,41.4,18.4c-0.9-6.2-5.1-9.1-9-13.2c9,3.6,13.9,9.9,16.5,18.4c0.4-9.9-3.6-17.7-10.5-24.4
		c7.9,1.8,16.8,10.7,23.4,23.7c1.5-5.3,0.1-9.7-2.3-14.5c3.1,1.7,3.9,4.5,6.1,6.8c0-4.5-2.3-7.6-5.2-11.2c6.3,1.5,10.8,4.9,12.6,9.9
		c4.1,11.6,13.5,14.3,24.7,15.9c-1.7,0.6-2.7,0.9-4.4,1.5c9.1,2.2,17.8,0.4,26.2,1.7c4.9,0.8,9.9,1.2,14.8,2.2
		c10,2,68.8,10.5,68.5,21.2c-0.9,0.1-60.2-7.7-61.2-7.7c0,5.5,0,10.9,0,17.6c-1.9-6.6-3.2-12.2-8.7-17.8c1.7,4.5,2.7,7.2,3.9,10.4
		c-1.1-0.5-1.7-0.7-2.5-1.1c1.6,5.8,4.7,11.2,4.4,18.1c-3.7-5.4-3.8-13.1-12.4-14.7c3.5,5.8,6.1,11.2,6.7,17.3
		c-1.5-4.6-3.5-9-6-13.4c-1.4,1.4,0,2.8-0.5,4.4c-2.2-2.5-4.4-5-7.4-8.4c0.4,3.2,0.7,5,1.1,8.3c-4.4-4.2-8.7-5.9-13.3-7.8
		c0,0.6,0,1.3,0,2.1c-2.4-0.6-3.4-3.3-6.4-3.2c2.6,3.2,4.9,6.2,7.9,10c-2.5-1-4-1.6-5.5-2.2c4.9,6.4,9.9,12.3,14.3,19
		c-0.5-2.4-1-4.9-1.5-7.3c0.2-0.1,0.4-0.2,0.7-0.4c1.5,3,3,6,4.9,9.8c1.3-4.7-1-8.3,0.1-12c12.9,22.9,17.2,46.8,6.7,72.4
		c3.7-1.8,4-5,6.5-7.9c-1.4,4.7-2.6,8.4-3.7,12.2c-3.2,0.2-3.3,3.8-5.5,5.1c-0.2-0.6-0.5-1.1-0.7-1.8c-7.4,11.8-21.3,21.3-10.6,38.6
		c-3.8-1.9-6.3-3.2-8.9-4.5c-0.1,0.2-0.1,0.3-0.2,0.5c4.3,3.3,8.7,6.5,13.5,10.1c0-1.7,0-2.7,0-3.9c0.8,0.2,1.5,0.4,2.1,0.6
		c0.5-5.3,0.9-10.4,1.3-15.5c0.1,0,0.3,0,0.4,0c0,3.4,0,6.9,0,10.3C285.9,382.7,286.7,369.1,292.8,356.6z M262.4,489.1
		c5.7-4.1,12.3-1.7,18.7-2.4c-3.8-4.4-17.9-3.6-22.3,0.9C259.6,489.2,261.4,488.3,262.4,489.1c-0.6,4.3,1,6,5.6,5
		c3.7-0.8,7.6-1.2,11.3-1.9c1.4-0.3,3.1-0.3,3.5-2.7C276,486.7,269.2,486.9,262.4,489.1z M275.6,601.3c9.6,1.9,19,1.7,28.4-1.1
		c2.6-0.8,3.1-2,1.5-4.1c-4.1,0-7.4,1.4-9.4,5.8c-0.7-1.7-1.1-2.6-1.6-3.6c-2.5,1-5.6-0.4-7.3,2.8c-0.4,0.8-2,0.4-2.7-0.6
		C281.1,596.3,278.3,597.5,275.6,601.3c-0.1-3.4-1.8-5.9-4.4-7.8c-5.1-3.7-7.3-9.1-9.2-14.8c-1.1-3.4-3.5-5.1-7.6-5.9
		c1.4,3.8,3,7.1,3.7,10.5c1.8,8.3,6.4,13.9,14.4,16.6C273.6,600.3,274.6,600.9,275.6,601.3z M143.6,311.3
		c7.4-10,17.6-16.9,27.5-24.1c-17.5,7.6-32.5,18.4-43.8,34c4.5-9,9.9-17.3,16.6-24.8c-9.5,6.2-16.6,14.8-23.4,24.5
		c1.9-19.6,14.1-30,30.1-37.5c-7.6,0.6-14.4,3.5-23.2,6.4c6.2-4.7,12.1-5.6,18.1-8.7c-5.6-0.8-9.6,1.7-15.4,2.5
		c12.7-5.5,24.9-6.7,36.2-11.2c-17.6,0.6-35.2,1.2-49.7,13.4c12.1-12.9,24.2-25.7,44.6-23.6c-10.8-2.4-21.2-1-31.6-0.8
		c6.5-4.5,14.5-4.7,21.8-6.3c-17.5-5-30.4,8.3-46,11.8c1.3,0,2.6,0,4.9,0c-6.3,4.3-12.9,5.1-20.1,7.8c5.7,0.4,10.1-0.5,14.5-1.4
		c4.4-0.9,8.7-2.3,13.1-3.4C98.5,276,83.6,291.8,62.8,295c11.3,1.1,21.5-3.2,33.7-7.2c-14,9.1-27.6,14-41.7,17.8
		c9.9-1.1,19.4-4.1,28.9-6.7c9.4-2.6,18.8-5.1,29.9-8.2c-6.3,3.5-10.9,6.1-17,9.5c7-0.7,11.8-2.6,17.6-5.2
		c-5.4,7.5-12.6,11.1-18.5,16c8.8-3.7,16.4-9.7,26.2-13.1c-6.2,6.6-13.5,11.1-16.4,19.6c2-1.5,4-2.9,6-4.4c0.1,0.2,0.3,0.4,0.4,0.6
		c-1.7,2.2-3.4,4.4-5.1,6.7c0.2,0.2,0.4,0.4,0.6,0.6c1.2-0.8,2.3-1.7,3.5-2.5c0.4,0.4,0.9,0.9,1.3,1.3c-5.3,4.4-10.7,8.9-16,13.3
		c0.4,0.4,0.8,0.9,1.3,1.3c4-3.3,7.9-6.7,13-11c-4.2,8.1-9.2,13.7-14.2,19.4c-5,5.7-10,11.4-15.1,17c7.4-5.7,12.7-13.5,20.3-19.3
		c-0.7,4.3,1.6-0.1,2.1,1c-2.1,3.5-4.3,6.9-6.2,10.4c-2.5,4.6-3.5,8.2-3.3,11.2c9.3-15.7,14.8-22.6,20.7-25
		c-5.6,6.1-10.3,11.9-13.4,18.9c-3.5,8.1-5,16.3-3.3,22.3c0.8-18.2,10.1-30.9,24-43c-4.4,8.3-8,15.2-11.6,22.2
		c0.2,0.1,0.5,0.3,0.7,0.4c4.9-7.5,9.9-15.1,15.9-24.3c-3.1,8.2-5.8,14.4-7.9,20.8c-2.8,8.6-3.6,15.9-2.9,20
		c0.2-0.5,0.5-0.9,0.6-1.4c4-23.2,16.7-41.7,31.6-59.2c3.9-4.6,6.6-10.2,10.5-16.2C152.3,302.3,148.3,307.2,143.6,311.3z
		 M324.7,589.8c-3.5,11.1-10.3,17-19.9,20c-21.2,6.5-54.5,2.3-57.2-28.6c-0.1-1-0.5-2-1-2.9c-1.5-2.9-2.6-6.1-6.7-8
		c-0.4,11.9,1.2,22.7,6.7,32.8c3,5.6,7,12,12.4,13.7c11.3,3.7,23.2,6.4,35.5,4.4c11.9-2,23.5-4.1,29.1-16.9
		C325.4,600.1,327.9,596,324.7,589.8z M198.8,419.5c-0.3,3,2,1.7,3.1,1.6c12.9-0.6,20.7-3.4,20.6-7.5c-0.9,0.1-1.8,0.2-3.4,0.3
		c3.6-1.9,6.4-3.3,9.4-4.9c-6-0.1-11.9,1.1-17.4-1.7c-6.9-3.6-13.7-7.5-20.7-11.2c-2.9-1.5-4.6-0.8-3.8,2.9
		c-1.4-0.3-2.6-0.6-3.4-0.8c1.2,8.6,7,14.6,11.5,21.6C195.7,419.7,197.1,419.6,198.8,419.5z M311.4,583.2c-6,2.6-12.2,4.1-18.6,5
		c-6.1,0.9-15-2.8-16.3-6.9c-0.9-2.8-5.9-4.4-9.7-2.9c-3.9,1.6-1.6,4.4-0.8,6.4c3.4,7.9,14.2,12.8,24.6,11.6
		C299.7,595.4,306.6,591.1,311.4,583.2z M237.2,378.4c-1.4-8-9.9-13-19.7-11.4c-6.9,1.1-19.8,12.3-19,16.5c2.8,15,14,24.4,26.7,22.3
		c11.8-1.9,15.5-7.8,13.4-21.5c-2.4,13.3-6.4,17.8-15.8,18.2c-8.4,0.3-15.2-4.4-17.1-11.9c-2.1-8.2,1.3-16.5,8.2-20
		C222.3,366.3,229.2,368.6,237.2,378.4z M180.6,370.3c10.5-0.2,11.6-12.1,20.5-13.1c-1.2-0.9-1.8-1.3-2.7-1.9
		c2.5-1.1,4.6-2.1,6.7-3.1c-0.4-0.6-0.8-1.1-1-1.5c2.7-2.3,5.9-2.3,9.3-2.2c-0.9-0.9-1.6-1.5-2.6-2.5c1.5,0,2.3,0,3.4,0
		c-6.1-4-15-2.1-21,2.2c-5.5,3.9-5.1,10.2-8.5,14.7C183.3,364.9,182.3,367.3,180.6,370.3z M233.4,382.8c-0.7,1.9-1.4,3.5-2,5.2
		c-2,5.5-8.5,8.5-13.9,6.1c-3.1-1.3-4.2-4-4.8-7.2c-0.5-3.1,1.2-3.9,3.6-4.8c1.6-0.6,2.5-2.4,1.5-4.1c-1-1.7-2.7-1.6-4.3-0.7
		c-3.4,2.1-5.8,10.5-4.2,14.1c3.6,7.8,15,10.5,21.7,5C235.6,393,236.9,386.6,233.4,382.8z M141.3,331.5c-11,11.1-15.9,57.3-7.3,71.9
		C132.2,378.4,130.1,354.9,141.3,331.5z M62.3,336.3c-11.7,12.4-7,37.7,7.4,42.2c-4.9-6.1-9.1-12.2-10.5-19.7
		C57.7,351.3,60.8,344.4,62.3,336.3z M88.3,391.5c-13.9-5-15.5-15-15.3-26.1c-3.2,6.8-3.1,13.1,0.7,19.4
		C76.6,389.6,81,391.1,88.3,391.5z M53.8,353.1c-1.6-7.2-1.3-12.8,0.3-18.1c1.5-5.2,4-10.2,6.2-15.5
		C51.6,325.6,47.2,344.6,53.8,353.1z M321.2,583.4c-1.5,0.4-2.4,0.4-2.8,0.8c-3.7,3.8-7.4,7.7-11,11.7c-0.3,0.4-0.1,1.7,0.3,2.2
		c0.7,0.9,1.7,0.3,2.5-0.1C316,595.1,318.6,589.8,321.2,583.4z M252.8,582.5c-1.2,10.8,11.1,23.3,22.9,22.2
		C263,601.4,255.7,594.2,252.8,582.5z M254,501.8c1.9-1.9,4.5-8.9,4-11c-0.5-1.9-1.8-1.8-3.3-1.1C250.5,491.9,250.1,498,254,501.8z
		 M242.1,281.9c6.5,3.1,13.2,5.2,22.1,5.7C256.5,282.4,248.9,283.7,242.1,281.9z M287.2,347.1c5.5-5.4,8.5-16.9,5.7-21.9
		C291.9,332.8,289.6,339.6,287.2,347.1z M249.9,515.1c1.5,7.4,3.6,12.8,7.8,17.1C255.7,526.9,254.8,521,249.9,515.1z M300.8,515.9
		c-1.8,10,1.3,15.9,8.9,17.2C303.4,529.3,300.9,524,300.8,515.9z M228.3,376.9c-2.1,0.2-2.5,2-2.5,3.5c0,2,1.6,2.7,3.4,2.7
		c1.7-0.1,2.9-1.3,2.7-2.9C231.7,378.2,230.4,377.1,228.3,376.9z"/>
	<path d="M473.9,246.1c-11.8-1.9-23.3-1.7-34.4,3.6c8.9-0.5,17.9-2,26.6,1.6c-8.1-0.3-16.1,0.1-23.5,4.3c15.1-3.6,29.4,0.9,43.5,4.7
		c-4.7,2.9-10.7,2-16.8,2.4c5.1,3.5,12.9,4,22.1,1.5c-3.4,3.1-7.5,3.3-12.7,4.8c13.3,1.2,25.5,0.2,37.5,5.5
		c-4.6-0.3-8.4-0.5-12.2-0.8c14.3,4,27.3,10.4,39.5,21.2c-2.5-0.6-3.6-0.9-6.1-1.5c2,1.7,3,2.5,5.5,4.6c-3-1.5-4.3-2.1-6.4-3.1
		c9,11.1,22.6,15.2,31.9,26c-6.7-1.2-12.8-2.3-20.6-3.6c12,7.5,19.3,18.7,32.4,21.5c-10.4,1.3-19.3-3-29.9-8.3
		c9,8.4,15.2,16.9,26.5,22.6c-9.1-1.5-15.1-5.1-22.3-9.5c6.6,10.9,14,18.8,24.3,23.7c-12-2.6-21.4-9.2-29.2-19.4
		c0.2,6.5-0.2,12.5-1.4,18.5c-2.7,13.1-9.8,24-17,34.8c-4.9,7.3-10.4,14.2-11.4,25.2c-1.3-10.3,2.1-17.9,4.1-25.8
		c-7.2,12.3-20,21.4-21,37.3c-2.1-6.4-0.8-12.6,0.9-18.8c-5.4,5.6-8.9,12-8.1,19.9c1,10.9,8.5,18.7,22.5,23.4
		c-5,2.3-10,2.5-16.2,1.9c4.8,3.7,9.5,3.6,14.3,4.3c-4.2,1.7-8.2,0.9-13.1,0.5c1.7,1.2,2.6,1.9,3.5,2.5c-5.8,0.8-16.5-3.8-30.4-13.4
		c3.9,5.2,8.1,8.4,13.6,12c-7.6,0.5-11.6-4.3-17.9-8.4c4.4,7.9,9.9,12.5,15,18.5c-5.4-2.1-8.7-5.7-12.6-8.6
		c1.8,7,5.5,12.9,10.1,20.1c-4.7-2.7-7.9-4.6-12.3-7.1c4,7.7,7.3,14.2,10.9,21.1c-1.2-0.4-2.2-0.8-3.4-1.2c2,6.7,6.6,11.4,10.9,16.3
		c-4.2-2.2-7.8-5-10.1-9.1c-2.2-3.9-3.9-8.1-6.4-11.8c2.8,7.9,4.9,16.1,10.1,23c3.3,4.4,6.6,8.7,9.8,13.1
		c5.1,7.2,12.3,9.9,20.8,10.2c-9.5,2.2-17.7-0.8-26-7.2c4,10.7,11.1,15.7,22,17.8c-5.1,1.1-8.9,0.4-13-0.8c0.9,3.3,4.1,4.4,5.8,7.8
		c-4-1.5-7.3-1.9-10.8-1.4c-1.9,10.2,11.7,27,24,28.9c-5.5,2.1-12.8-1.1-20.1-9.2c0,1.6-0.1,2.8,0,3.9c1.4,14.2-3.5,27.1-9.4,39.5
		c-3.4,7.1-9.3,12.1-17.2,15c-1.3-6.9-0.7-13.9-2.8-20.9c3.7,3.1,2.7,9,7.8,10.6c9.5-12.4,16-26,15.2-42.2
		c-0.9-16.6-10.4-28-22.7-37.9c5.6,2.7,9.9,6.8,14.1,11.2c-2.7-6-6.7-10.9-11.3-15.4c8.8,5.6,14.3,13.8,18.1,23.5
		c0.5-7.7-0.8-15.2-3.7-22.2c-8-19.1-17.1-37.4-37-47c-18.4-8.9-36.1-7.5-52.5,4.8c-4.7,3.5-9.2,6.1-15.3,6.4
		c-4.1,0.2-8,1.8-12.4,2.8c-0.9-8.3-4.3-15.3-8.5-20.4c1.1-11.6-0.3-21.7-2.2-31.8c-1.9-10.5-5.5-20.3-10.4-29.8
		c2.1,3.4,4.1,6.8,6.2,10.1c-1.4-7.9-5.1-14.8-9-21.6c-3.2-5.6-7.5-10.3-12-14.9c-7.2-7.4-10.5-16.1-9.1-26.3
		c1.4-10-2.1-19.9,0-29.8c2.5-11.6,7.8-22,15.6-30.7c2-2.3,5.3-5.4,9.4-6.4c-1.6,3.1-4.4,5.4-5.2,11.3c8.4-14,21.5-8.6,32.8-11.8
		c-2.2-1.4-3.8-2.4-6.4-4.1c5.6,2.3,10-2.4,15-0.5c-1.9-1-3.7-1.9-5.6-2.9c0.1-0.2,0.1-0.4,0.2-0.6c2,0.6,4,1.1,6.6,1.8
		c-1.8-3.9-5.4-4.6-8.6-6.2c3.1-2,6.1-1.5,9.4-0.4c-1-1.9-1.9-3.6-2.9-5.4c2.3-1.6,4.9,1.1,8-0.1c-4.9-5.1-11-6.6-18.6-7.6
		c4.6-2.2,8,0,12.2,0c-4.3-3.4-8.8-4.4-13.5-6.1c4.2-1.9,7.4,1.1,11.2,1.1c0-6.4-6.7-7.3-9-12.1c2.4,0.6,4.9,1.1,7.3,1.7
		c-2.5-4-6.2-5.9-10.1-7.3c-3.6-1.4-4.5-3.2-3.3-6.8c1.2-3.6,2.1-7.3,3.8-10.9c-0.3,2.2-0.6,4.5-0.9,6.7c2.3-4.8,4.7-9.4,8.6-13
		c1.6,1.4,0.1,3.3,1.3,5.5c5.1-16.4,16.3-25.8,31.6-30.9c-5.5,4.6-11.2,8.9-16.4,16.7c7.6-4.7,14-7.5,20.9-8.9
		c-7.6,3.9-14.1,9.2-20.6,16.1c8.6-3.9,16.3-7.4,24-10.8c0.3,0.4,0.6,0.9,0.9,1.3c-1.3,0.7-2.6,1.5-3.9,2.2c0.2,0.3,0.4,0.6,0.6,0.9
		c0.9-0.1,1.8-0.1,3.2-0.3c-4.8,4.3-10.4,7-14.6,14.2c11.4-7.5,22-11.9,33.6-13.4c11.6-1.5,23.1-2.2,34,3.4
		c-9-2.5-17.8-2.5-26.7,0.5c-8.8,3-17,6.7-23.9,13.9C439.8,242.7,456.4,237.7,473.9,246.1z M456.2,422.2
		c-0.6-15.5-5.7-29.7-5.3-44.7c2.1,7.5,2.9,15.2,6.8,22.3c1.4-20.4-1.4-40.4-5.4-60.9c3.5,2.6,4.1,7.3,9.2,9.3
		c-4.5-13.8-11.5-24.7-19.8-35c4.4,1.8,7.6,5,10.9,8c3.3,3.1,6.5,6.2,9.7,9.3c-11.6-14.9-25.6-27.2-41.4-37.4
		c8.1,10.2,15.1,20.9,19.2,33.4c-4.7-5.2-8-11.6-14-15.6c4.9,12.9,9.8,25.6,12.3,39.1c-0.5-4.4-1-8.7-1.6-13.1
		c1.7,2.9,2.4,6.1,3.3,9.1c4.4,16.2,3.4,33,6.3,49.3C448.1,404.7,451.2,413.6,456.2,422.2z M368.9,372.9c13.6,6,17.5,11.4,15.1,21.2
		c-1.9,7.9-9.6,13.1-18.2,12.3c-8.4-0.8-13.5-6.9-14.3-17.1c-4.1,7.9-1.7,15.2,6.1,18.6c6.8,3,13.8,3,20.6,0.2
		c6-2.4,14.5-12.7,13.8-17C390.3,381.2,378.4,370.7,368.9,372.9z M402.5,368.6c0.6-0.7,1.1-1.3,1.7-2c-3.2-2.6-7.4-4.5-9.5-7.8
		c-4.3-6.8-7.7-8.8-15.5-6.7c-0.9,0.2-2.1,0.2-1.9,1.5c0.1,0.6,0.8,1.4,1.5,1.6c3.7,1.1,5.4,4.6,8.3,6.6
		C391.8,365,396.2,369.1,402.5,368.6z M357.3,389.3c-2.4,0.5-3.4,1.7-3,4c1.2,5.9,5.2,9.3,10.6,10.1c5.9,0.9,11.4-0.8,14.9-6.6
		c2-3.3,0.8-5.6-1.8-8.3c-2.3,5.6-4.4,10.8-11.8,10.4C359.9,398.6,358.6,394.1,357.3,389.3z M399.8,399c-6.6,1.1-8.5,6-12.1,9.2
		c0.7,0.6,1.4,1.1,2.5,1.9c-1.8,0.8-3.1,1.4-5.2,2.4c10.5,0.9,14-9.3,21.7-12.2c-3.7,0.9-7.4,1.9-11.9,3
		C396.6,401.7,397.8,400.6,399.8,399z M370.2,383.9c-0.1,2.6,1,4.2,3.3,4.4c2,0.2,3.4-1.3,3.4-3.2c-0.1-2.4-1.8-3.6-4.2-3.8
		C370.6,381.1,370.2,382.4,370.2,383.9z M362.7,384.8c0-1.5-0.6-2.4-2.3-2.3c-2.4,0.2-3.2,1.7-3.4,3.7c-0.2,1.8,1.6,1.9,2.7,2
		C361.9,388.3,362.6,386.8,362.7,384.8z"/>
	<path d="M456.3,570.2c-0.3,16-2.9,30.6,0.4,46.3c0.8-1.9,1.1-2.6,1.8-4.3c-0.2,8.4,0.8,15.6,4,22.5c-0.8-6-2.1-12.1,0.3-18.2
		c1.6,10.5,4.6,20.7,6.8,31.4c-2.2-11.8-16.2-5.1-19.8-14.7c-6.6,10.5-12.3,20.2-25.6,21.6c0.6-6.4,1.1-12.5,1.8-19.6
		c1.3,4.4,1.2,7.7,0.9,12.6c3.5-4.1,6.1-7.2,8.6-10.3c9.5-11.5,17.7-23.6,17.4-39.5c-0.1-7.9,0.5-15.8,2.3-23.5
		C455.4,573.4,455.7,572.4,456.3,570.2z"/>
	<path d="M184.8,636.9c-5.3,8.1-10.4,15.9-20.7,17.1c0-7.3,0-14.6,0-23.8c4,7.7,2,14,2,20.1c12.4-3.9,29-41,18.7-80.6
		c3,4.9,3.4,9.7,5.4,15c1.2-6.7-1.3-11.9-1.8-18.4c1.3,2.5,2.1,4.1,2.9,5.7c2.1-1,0.6-2.9,2.1-4.8c0.4,2.4,0.7,4.2,0.9,6
		c1.3,14.6-1.9,28.9-2.6,43.4c-0.5,10,0.4,15.7,6.1,23.6C192.9,641.6,188.6,640.8,184.8,636.9z"/>
	<path d="M162.3,664.7c-3.9-4.8-1.3-11.5-6.6-14.2c-5.1-2.7-9.6,2.4-15.2,1.9c1.2-7.6,0.3-15.4,0.1-23.3c1-0.1,1.9-0.5,2.4,0.9
		c0.5,1.5,1.2,3,3.1,2.7c1.8-0.3,2-2.2,2.5-3.5c6.3-18,7-36.6,5.2-55.4c-0.1-1.2-0.3-2.4,0-3.6c4,9.4,3.4,19.4,3.2,29.3
		c-0.2,10.2-3.1,19.9-4.8,29.9c-1.1,6.4,0,12.6,4,19.6c0.8-7,0-13.1,5-18.8C158.3,642.1,159.5,652.9,162.3,664.7z"/>
	<path d="M133.7,652.5c-5.9-2.7-9.8-6.4-12.7-11.1c-2.8-4.7-3.3-10.3-5.1-15.8c-3,2.7-5.7,5.2-11.5,6.7c7.4-24.4,14.7-47.6,19-73.1
		c1.2,10.9-3.4,19.5-4.4,28.7c-1.8,16.1-1.6,32,3.3,47.5c1.3,4.3,3.5,8.2,7.8,11.1c0.6-3.6,0.5-6.9,2.3-10.2
		C132.9,641.7,133.3,646.6,133.7,652.5z"/>
	<path d="M376.3,636.3c-1.6-1.3-2.5-2.1-3.6-3.1c-4.9,6.3-10.9,9.4-19.3,6.8c2.4-7.9,4.8-15.6,6.2-25.1c2.5,8.9-0.5,15.7-2.4,22.8
		c4.3-2.8,5.9-7.1,8.5-23.3c0.6,5.5,1,9.6,1.5,14.6c1.8-3.4,1.9-6.4,2-9.4c0.7-15.1,2.1-30.1,7.5-44.5c0.9-2.4,2.4-3.8,4.8-4.8
		C371.7,591.5,370.9,613.3,376.3,636.3z"/>
	<path d="M416.3,650.4c-3.2-1.9-16.9,0.9-20.8,4.5c1.6-8.8,2-17.4,2.1-26.9c2.9,3.9,2.6,7.7,3.1,11.3c0.1-1.5,0.3-2.9,0.5-4.8
		c2.7,3.2,3.1,6.9,4.9,10.4c2.9-3.2,0.2-7.2,1.8-10.2c2.1,0,1.5,2.6,3.6,3c0-2.1,0-4.2,0-7.4C416.1,637.3,411.4,644.9,416.3,650.4z"
		/>
	<path d="M394.8,629c-1.8,13.4-2.6,25.3-2.4,39c-3.4-6.9,0-13.5-4.7-18.3c0.5,0.2,1,0.4,1.8,0.7C389.3,643.3,389.9,636.5,394.8,629z
		"/>
	<path d="M93.9,630.9c-0.2-1.4-12.6-41.1-13.4-43.1c-4.8,2.4-9.8,4.4-16.4,3.3c9.6-1.4,15.3-6.8,19.5-14.4
		C81.7,581.7,97,626.5,93.9,630.9z"/>
	<path d="M423.2,664.9c-4.4-7.3-4.6-29.2,0.1-34.5C420.4,642.3,422,653.2,423.2,664.9z"/>
	<path d="M349.7,648.3c-0.7-10.2-0.1-20.3,5.1-29.4C351.8,628.5,351.9,638.6,349.7,648.3z"/>
	<path d="M202.7,641c-3.1-0.4-3.1-3-3.5-5.2c-1.1-5.2-2.4-10.5,0.7-17.1C200.9,627,201.7,634.1,202.7,641
		C202.6,641.1,202.7,641,202.7,641z"/>
	<path d="M99.5,632.4c3.3-5.7,3.7-11.6,4.3-19c1.4,9.9-0.5,17.5-5.8,25.5c0.3-5.3-1.5-15.6,0.4-20C99,621.3,97.9,629.8,99.5,632.4z"
		/>
	<path d="M136.1,631.4c-0.5,9.8,1.3,19.3,2.5,28.9C134.9,651,133.8,641.3,136.1,631.4z"/>
</g>
</svg>
