<?xml version="1.0" encoding="utf-8"?>
<!-- Generator: Adobe Illustrator 24.2.3, SVG Export Plug-In . SVG Version: 6.00 Build 0)  -->
<svg version="1.1" id="Layer_1" xmlns="http://www.w3.org/2000/svg" xmlns:xlink="http://www.w3.org/1999/xlink" x="0px" y="0px"
	 viewBox="0 0 595.3 841.9" style="enable-background:new 0 0 595.3 841.9; fill: #215342;" xml:space="preserve"
	 height="375" width="450" transform="translate(-115, -75)">
<g>
	<path d="M466.3,668.2c-4,1.5-4.8-2.2-6.5-4.1c-2.8-3.1-5.1-6.5-8.2-10.4c-2.8,5.7-4.8,11.2-10.9,13.3c-0.3,0.1,0.2,3.1,0.5,4.8
		c0.8,4.3,2.5,8.5,0,15.4c-2.4-3.4-4.5-5.4-5.6-7.9C431.9,671,425,666.9,417,665c-4.4-1.1-5.7,3.6-6.8,6.9c-0.6,1.7-0.1,3.7-0.1,7.2
		c-7.8-5.8-14.8-10.7-21.4-16c-1.7-1.4-2.7-1.9-4.8-0.9c-6.4,3-13,5.8-19.6,8.3c-4.6,1.8-8.6,3.7-11.4,8.5
		c-4.6,7.8-12.8,10.7-21.1,8.5c-8.2-2.2-16.1-1.7-24.2-1.4c-12,0.5-22.8-2.8-31.7-12.4c-3.6,8-13.3,10.2-15.6,19
		c-0.5,2-2,4.9-4.4,4.6c-2.7-0.4-2.6-3.6-3.3-5.9c-0.3-1.1-0.5-2.2-0.8-3.6c-4.8,2.1-9,5.5-14.6,5.1c-0.5,0-1.5,5.3-2.1,8.2
		c-0.6,2.8-0.1,5.9-2.8,8c3.1-10.6,2.7-21.6,2.9-32.4c0-0.8-0.8-1.6-1.2-2.5c-0.9,0.6-2.2,1.1-2.5,1.9c-3.5,11.1-5,22.1,0.8,33
		c-2.5-0.1-3.3-2.3-3.4-3.9c-0.7-9-5.5-16.1-10.9-22.8c-4,5-4.9,11.5-5.3,18.1c-0.1,1.8-0.1,4.2-2.4,4.7c-2.2,0.5-3.6-1.6-3.7-3.1
		c-1-13.2-10.7-22.7-14.9-34.5c-0.1-0.3-0.3-0.6-0.4-0.9c-1.1,3.5-2.1,7-3.2,10.7c-3.1-1.7-4-4.4-3.8-6.5
		c1.3-13.9-10.5-24.7-8.7-38.7c0.1-0.8-1.4-2-2.2-2.8C115,573.4,90.8,504.4,95.4,424.6c0.6-10.6,2.5-21.1,3.7-31.7
		c0.1-1,0-2.5-0.6-3.1c-12.7-13-18.2-29.3-21.5-46.6c-3-16-10.4-29.8-20.8-42.2C29.7,269.4,16,234.6,31.4,193.2
		c-9.5-2.5-16.2-7.3-19.9-14.9c26.5-5.6,53-11.6,79.9-2.1c13,4.6,25.2,10.4,37.1,17.4c19.9,11.6,40.1,22.9,60,34.5
		c11.2,6.5,20.5,15.3,27.6,26.2c1.3,2,2.3,2.3,4.5,1.3c54.4-25.7,108.6-24.8,162.7,1c1.1,0.5,2.1,1.6,3.2-0.1
		c14.1-21.7,36.9-29.3,59.9-36c31-9,61.4-18.9,87.4-39.3c8.2-6.4,18.2-9,29.1-7.5c8.3,1.1,10,6.7,10.8,13.3
		c6.4,52.2-8.9,96.7-46.9,133.4c-8.4,8.1-18.4,15-23.4,26.2c-1.7,3.7-3,7.6-1.7,14c1-10,4-16.8,11-21.3c-5.1,4.7-7,11.1-9.2,18
		c2.8-2.2,3.1-6,7.6-6.7c-9.4,8.7-1.2,16.8-0.2,24.9c0.8,7,3,13.7,4.1,20.7c-2.7-9.8-5.4-19.6-8-29c-11.3,14-12.5,29.1-9.7,46.9
		c6.8,43.9-0.2,86.6-19,127.1c-1,2.2-0.9,3.2,0.8,5.1c4.4,5,8.4,10.4,12.7,15.9c8.6-17.7,15.1-36.3,20-55.5
		c-3.5,18.1-8.7,35.6-16.9,52.1c-3.7,7.4,0.9,12.9,1.4,19.3c1,12.3-0.3,24-5.3,35.3c-1.8,4,1.3,7.7,1.6,11.7
		c0.1,1.7,1.3,3.8-0.5,4.9c-2,1.2-3.7-0.4-5-1.7c-3.5-3.5-6.8-7.1-10.7-11.1c-0.8,7.6,0.7,16.4-4.8,21.3c-9,8-7,16.3-4.2,25.6
		c0.4,1.4,1.5,3.6-1.2,4.4c0.7-6.8-8.6-33-12.3-35C451,644,457.8,663,466.3,668.2z M143.5,385.4c4.5,1.1,7.8,4.2,11.6,7.2
		c-1.4,0.6-2.2,1-3.1,1.3c2.8,2.4,5.8,4.3,7.8,6.9c2,2.6,3.1,5.8,5.4,10.4c0.9-7.6-0.4-13.1-4.3-17.4
		C156.4,388.6,150.8,385,143.5,385.4c-0.4-3,1.1-2.9,3.4-2.3c3,0.7,5.6,3.6,11.5,0.8c-17.7-4.5-28.6-18.8-45.8-20.3
		c1.9,1,3.8,2.1,6,3.3c-1.4,0.6-2.3,1-3.7,1.6c4.1,2.1,8.2,3.3,10.4,7.8c-2.6,0.2-4.7,0.3-8.7,0.6c3.7,1.4,5.6,2.2,7.5,2.8
		C130.5,381.8,137.7,381.3,143.5,385.4z M403.8,577.6c0,0.9,0.3,2-0.1,2.7c-10.5,18.6-8.8,37.9-2.6,57.1
		c4.2,13.1,12.7,22.6,26.3,27.6c0-1.1,0-1.4,0-1.8c-0.4-4.7-4.1-11.9,0.6-13.4c5.7-1.9,6.6,6.2,8.8,10.4c2.2,4.1,4.6,2.9,6.5,0.8
		c3.8-4.4,6.4-9,2.7-15.3c-8.2-14.2-14.9-29.1-19.6-47.6c8.9,19.1,13.1,37.6,26.4,52.2c-0.3-4.6-0.8-8.5-0.8-12.3
		c0-2.2-1.4-5.5,1.9-6.2c3.2-0.6,3.6,2.9,4.8,5c1.3,2.2,1.1,6.3,3.8,6.5c3.3,0.1,5-3.5,6.4-6.3c0.9-1.7,1.6-3.5,2.2-5.2
		c4.7-13.9-0.7-25.7-7.7-37.3c-8.1-13.4-12.2-24.4-12.1-30.7c6.7,15.8,13.5,30.8,24.1,45.1c-0.5-3.2-1-5.1-1-6.9
		c0-2.4-1.4-5.7,1.9-6.6c3-0.8,4.1,2.3,5.5,4.4c2.1,3.4,4.1,6.9,6.7,11.2c5.3-18.8,7.1-36.2-3.7-52.9c-7.4-11.4-18.5-19.5-26.9-29.9
		c-7.2-8.9-10.7-3.4-15.6,0.9c-0.4,0.3-0.6,0.7-3,3.4c2.6-3.9,3.4-5.2,4.6-7.1c-5.8,1-9,4.4-12,8.3c-6.2,7.9-8.9,17.6-13.7,26.2
		C414.5,566.5,411.3,573.9,403.8,577.6c0.6-1.1,1.2-2.3,1.9-3.5c3.5-5.9,8.1-11.3,9.2-18.4c2.1-14.4,2-29.2,11.4-42
		c7.3-9.8,7-21.7,4.3-33.3c-0.4-1.6-1.2-4-2.4-4.4c-2-0.7-2.7,1.8-3.6,3.2c-12.5,18-27.6,30.1-51.5,24c-3.7-1-12.4-5.7-6.6,7
		c-2.5-1.5-3.7-2.3-5-3c-12.3-7.4-11.5-19.6-12.3-31.8c-1.6-25.1-0.5-48.6,24.8-62.8c-1.1,1.8-2.2,3.7-3.8,6.5
		c3.4-2,5.7-3.3,9.1-5.2c-1.4,2.1-2,3-3.2,4.9c9.3-0.6,16.4,3.4,24.7,8c-4.6-9.8-12.1-14.3-22.2-19.1c7.6-0.4,13-0.7,19.6-1.1
		c-2.9-0.4-4.5-0.6-6.2-0.8c0-0.2,0-0.4,0-0.6c2-0.1,4-0.2,6.7-0.3c-3.2-3.6-6.8-4.5-11.5-5.1c1.2,1.1,1.8,1.7,4.3,4
		c-21.5-7-39.7-9-47.8,15.4c-2.9-1.7-3.1-3.8-2.6-5.5c4.1-13.9,14.6-19.9,28-23c-3.1-0.4-6.2-0.7-11.3-1.4c3.9-1.1,5.7-1.5,9-2.4
		c-3.6-1.2-5.6-1.9-9.6-3.3c6.1-0.6,10.3-1,14.6-1.4c-2.9-3-10.8-3.1-9.3-6.5c2.4-5.7,9.6-2.5,15.7-3c-13.8-7.4-28.1-10-43.5-11.5
		c4.2-3.3,8.2-4.2,12.2-4.4c8.1-0.4,15.4-5.7,23.9-3.3c0.5,0.2,1.5-0.7,2-1.3c0.2-0.3-0.4-1.5-0.9-1.7c-7.6-3-14.7-7.5-22.2-9.9
		c-11.4-3.6-12.2-3.3-4.4-12.8c1.9-2.3,2.4-3.6-1.3-3.9c-6.7-0.7-13.3-1.9-20-2.2c-8.7-0.4-17.5-0.1-28-0.1c2.7-1.1,3.8-1.8,5-1.9
		c13.5-1.7,26.9-2.8,40.5-0.7c7.9,1.2,18.9,7,16.8-10.6c2.6,3.3,2.8,7.5,6.6,7.2c1.6-0.1,4.6-2.9,4.4-3.8c-1.9-7.1,2-13.4,2.3-21.4
		c-4.5,8.1-4.8,16.1-6.5,24.1c-4.5-3-4.4-7.6-5.4-11.9c-2.3,3.2-3.3,6-3.5,11.2c-0.1,4.6-1.5,6.1-6.4,5.1c-33-7.4-65.6-7-97.5,5.5
		c-0.8,0.3-1.8,0-2.8,0c1.1-2.5,4.2-3.5,3.9-6.5c-3,0.7-5,4.7-8.7,2.1c3.1-4.3,4.4-8.8,2.9-14.9c-2.4,7.3-5.2,13.1-11.9,15.9
		c-3.5,1.4-4.8,0.3-4-3.4c0.7-3.9,1.4-7.8-0.6-12.3c-0.6,4.7-0.7,8.7-3.7,11.9c-0.7-6-1.6-11.6-1.9-17.3
		c-2.2-33.5-17.9-57.8-48.1-73c-13.9-7-27.3-14.7-41-22.1c1.3-0.4,2.1,0,3,0.4c0.8,0.3,1.5,0.5,3.2,1.1
		c-40-26.7-81.5-41.7-128.4-26.4c5.3,5.5,12.4,9.5,21.6,8.7c-6.7-1.1-13.1-2.7-18.3-8c43.1-5.6,69.6-3.1,86.8,8.3
		c-0.7,0-1.4,0-2.7,0c1.1,0.8,1.6,1.3,2.3,1.6c18.2,9.6,36.3,19.2,54.6,28.7c18.5,9.6,38.4,17.6,49.4,36.6
		c13.4,23.1,21.9,47.5,10.4,74.4c-4.2,9.8-11.6,16.4-20.5,21.9c1.9-0.7,3.8-1.3,7.1-2.5c-6.3,6.5-13.4,10.5-16.9,19.5
		c2.8-2.2,4.4-3.5,6-4.7c-4.6,5.3-8.3,11-11.4,18.2c2.1-1.7,3.4-2.7,4.6-3.8c-6.8,8.9-9.5,19.2-11.5,29.8c0.8-0.3,1.4-0.5,2.2-0.8
		c-4.3,12.2-4.9,24.5-3.1,36.7c2.3,15.8,3.4,31.4,1.2,47.3c-1.9,13.4,1.1,27.1,9.2,37.4c11.2,14.1,20.7,28.2,23.4,46.4
		c1.8,12.3,4.7,24.5,12.6,34.7c-6.2-13.2-9-27.2-11.2-43.9c1.5,4.4,2.2,6.4,3,8.6c-0.1-14.2-10.2-25.7-10.4-40.9
		c2.4,1.5,3.5,2.2,4.8,3c-0.5-4.3-2.6-7.4-5.3-9.6c-14.2-11.7-14.7-27.1-12.3-43.4c1-6.7-0.5-10.8-8.8-8.6c0.8-2.3,1.5-4.4,2.3-6.5
		c-0.4-0.3-0.8-0.6-1.2-0.8c-0.6,1.2-1.2,2.4-1.9,3.8c-1.2-10.9-2.3-20.9-3.4-31c-0.8-7.8-1-15.4,7.1-20.1c2.1-1.2,4.7-3.6,6.9-2
		c2.4,1.8,0.1,4.6-0.6,6.9c-0.4,1.5-0.9,2.9-1.5,5.1c4.1-2.8,7.5-5.1,11.9-8.1c-4.2,7.9-9.8,13.5-12.2,21.5c1.3-0.5,2.1-0.8,3.2-1.3
		c-1.3,4.4-2.6,8.2-3.6,12.1c-1,3.8-1.8,7.7-2.9,12.5c13.3-12.4,25.7-23.8,41.2-30.7c1.1-5.5,7.2-4.9,10.6-7.8
		c-1.6-3.1-5.2-2.2-9.7-4.6c6.5,0.8,11-1.8,15,3c-0.7-4.3-3.7-6-7-8.4c4.6,0.8,6.9,3.6,9.6,6.3c0.2-1,0.3-1.7,0.4-2.6
		c3.3,3.1,6.3,5.9,11.6,10.9c-4.3-10.1-10.7-13.4-17-16.9c2.4,0.6,4.8,1.3,7.5,2c-1.6-4.4-6.2-3.7-9.4-6.4
		c12.1-0.3,18.2,8.9,27,14.1c1.1-5.1-2.5-8.1-4.8-11.5c-11.4-16.5-26.2-8.9-40.5-5.3c2.2-1.8,4.5-3.1,6.8-4.2
		c12-5.4,25.9-4.9,37.3-11.6c9.2-5.4,23.5-5.2,23.2-24.4c2.3,6.2,3.3,8.8,4.5,11.8c3.7-4.6,2.8-9.8,3.6-15.5
		c6.9,16.6,2.4,33.2,3.6,49.3c0.2,2.9-1.3,6.1,1,8.8c3.6,4,4.3,8.8,3.5,13.9c-1.3,8.9-3.7,17.7-4,26.5c-0.3,8.6-2.9,14.9-10.2,19.5
		c-6,3.8-11.8,7.8-16.7,14.3c2.1-1,3.5-1.6,5.3-2.4c-2,10.1-9.7,16.2-14.6,24.7c2.9-0.5,5.5-2.5,6.8,0.5c1.3,2.7,0,5.2-2.3,7
		c-2.8,2.2-5.7,4.2-8.5,6.4c-6,4.8-11.4,10.1-14.1,17.9c2.2-0.2,3.8-0.4,5.4-0.5c2.4-0.1,5.3-0.4,6,2.6c0.9,3.5-2.8,1.8-4.1,2.9
		c-1.6,1.4-3.6,2.3-5.2,3.7c-16.3,14.2-17,33-15,52.5c3.6,35,49.7,57.8,80,39.6c2-1.2,2.4-2.6,2.2-4.7c-0.2-1.8-1.1-2.7-2.9-3
		c-24-4.1-37.5-20.5-47-40.9c-8.3-17.8-1.6-32.1,17.4-36.7c19.8-4.9,40.1-4.7,60.1-1.5c18.3,2.9,26.9,16.1,20.3,33.3
		c-7.9,20.6-20.8,38-43.5,45c-2.4,0.7-3.6,1.8-3.7,4.5c-0.1,2.3,0.8,3.4,2.8,4.2c25.1,10.1,69-1.8,73.9-40
		C393,600.7,393.5,587.3,403.8,577.6z M162.7,304.4c1.8-8.8-1.2-14.9-7.8-19.6c-10.5-7.5-22.9-10-35.1-13.1
		c-21.1-5.5-40-14.2-50.4-35.1c-0.2-0.3-0.7-0.5-0.7-0.5c-7.5,32.1,8,56,27.6,78.8c-1.7-1-3.4-2.1-6.3-3.8
		c3.1,7.1,6.8,12.8,7.8,20.7c-2.9-2.3-5-3.9-8.8-7c6,10.9,14.2,15.5,24.6,19.2c-4.4,0.7-7.3,1.1-10.8,1.7c4.1,5,9.6,6.1,16.3,9.2
		c-4.5,0-7,0-10.9,0c9.3,8.4,15.2-4.2,22.7-1c-12.4-10-20-22.5-26.5-39.2c10,14.1,18.3,26.4,32,32.9c4.3,2,7.8,4.9,15.1,1.5
		c9-4.1,5.9-9,4.9-13.1c-2.9-12.6,3.6-25.3-2.8-39.9C157.9,300,160.1,302,162.7,304.4z M101.4,392.5
		c-18.2,87.2,12.4,182.8,74.7,236.6c1.9-7.5,5.7-13.7,12-18.7c-21.2-19.2-37.8-41.5-49.9-67c-20.8-43.8-26.9-89.6-19.2-137.4
		c0.2-1.3,1.1-3.2-1.1-3.8C111.6,400.4,106.5,396.5,101.4,392.5z M214,683c4-8.8,5-18,6.7-27c1.6-8.9,2.9-17.9,4.3-26.9
		c0.8,13.2-1,26.1-3.5,38.9c-1.4,7.3-2,14.5,4.7,20.3c0.9-3.7,1.6-6.9,2.6-10c0.8-2.5,1.8-5.7,5-5.3c3.5,0.5,2.5,4.1,3.1,6.6
		c0.7,3.2-2.1,8.1,0.8,9.4c3.8,1.7,7.7-2.2,11.4-4c3.8-2,3.2-5.8,3.7-9c1-6.2,1-12.5,4-18.3c0.5-1.1,0.8-2.2-0.7-2.8
		c-20.2-8.4-25.5-29.7-38.2-44.6c-4.9-5.7-7.5-7-14.1-5c-21.9,6.9-31.7,30.7-19.1,48.3c1-5.8,3.6-3.8,6.2-0.9
		c2.6-11.2,3.8-22.4,12.6-30.9c-12,37.2-12.3,52.4-1.3,58.4c2.2-3.9,1.1-11.9,6-11.2C213.6,669.8,211.7,678,214,683z M509.2,291.7
		c4-7.8,7.9-15.2,12.2-23.6c-5.6,3.2-10,5.7-15.7,9c3.3-5.8,5.8-10.1,8.2-14.4c-3.6,1.9-6.5,4.4-9.2,7c-12.4,11.8-29,16.6-43,25.7
		c-4.6,3-8.6,6.8-11.2,13.2c2.8-1.8,4.5-2.9,8.1-5.1c-5.7,7.5-9.8,13.5-10.5,21.5c1.2-0.7,1.8-1,2.7-1.5c-1.3,6-2.3,11.6-1,18.2
		c2.9-2.3,5.1-4.2,7.8-6.3c-5.6,15.4,8,4.6,10.5,8.9c-4.6,4.8-11,7.3-17.7,10.9c8,1.4,15.1,1.6,25-0.6c-6.9,4-11.3,6.6-16.2,9.5
		c8.1,1.3,14.3-1,20-5.7c2.3-1.9,6-3.2,5.7-6.6c-0.3-3.5-4.5-0.7-6.4-2.7c5-3.1,6.6-9.1,11.3-12.6c-2.3,1-4.5,1.9-7,3
		c10.8-20.1,37.2-26.2,43.4-50.4c-3.1,0.7-5.8,1.5-8.5,2C514.9,291.3,512.1,291.4,509.2,291.7z M226.2,276.9
		c50.1-25.3,100-24.6,149.9,0.3c2.8-6.2,5.5-12.3,8.3-18.4c-1.2-0.6-2.4-1.2-3.5-1.7c-52.8-24.5-105.6-25.3-158.4-0.4
		c-1.2,0.6-4.1,0.4-3,3.3C221.7,265.6,223.9,271.3,226.2,276.9z M269.7,659.9c7.3,9.5,14.9,18.7,27.6,21.3
		c11.4,2.4,23.3,0.1,34.8,3.7c9.8,3,17.3-1.9,21.7-10.9c3-6.1,4.1-13.1,8.6-19.4c-9.5,3-18.2,4.4-26.2,9.7
		c-16.3,10.8-33.6,9.9-50.5,0.2c18.1,7,35.7,8.1,52.4-4.8C315.2,670.7,292.7,660.6,269.7,659.9z M371.9,306.1
		c4.6-2.3,5.5-6.2,6.3-10c2-10,3-20.4,9.1-29.1c15.3-22.1,38-32.5,62.7-39.7c29.3-8.6,57.4-19.5,82.3-37.7
		c9.4-6.9,19.9-10.3,31.4-11c3.7-0.2,6.2,1.3,6.2,5.4c0,9.1,0.1,18.3-0.4,27.4c-0.7,15.6-3.3,31-7.8,48.3
		c5.3-10.4,9.7-38.3,9.9-57.6c0.3-27.9-5.3-32.8-30-19.1c-37.5,20.9-76.8,36.2-117.6,48.4c-17.5,5.2-29.2,17.7-38.5,33.2
		C377.8,277.4,378.9,292.6,371.9,306.1z M328.1,570.3c-4.5,0.4-8,0.6-11.5,0.9c-2.1,0.2-3.9,0.5-4.1,3.3c-1,12.3,4.4,17,16.4,14.3
		c6.8-1.6,13-4.3,18-9.2c1.4-1.3,2.3-3.2,3.4-4.8c-1.8-0.8-3.5-2.1-5.4-2.4C339,571.5,333.1,570.9,328.1,570.3z M73.6,317.4
		c-1.1-2.5-2.1-5.1-3.5-7.5c-10.4-17.3-25-31.8-31.9-51.5C31,237.8,28.3,218,40,198.4c1.7-2.8,2.5-5.4,0.6-8c-0.5-0.7-2.6-0.5-4-0.4
		c-3.4,0.4-4.7,2.8-5.5,5.8c-5.6,21.9-4.9,43.2,3.9,64.4C44.1,281.8,61.4,297.9,73.6,317.4z M310.4,579.9c-0.4-2.8,0.5-7.4-3-7.7
		c-10.3-0.7-20.8-3.7-30.8,1.7c-1.9,1-2.3,1.7-0.9,4c5.7,9.2,15.3,10.2,24.5,11.6C307.1,590.6,310.6,587.2,310.4,579.9z
		 M392.9,615.2c-1.3,11-5,19.8-11.7,27.3c-0.5,0.5-0.9,1.7-0.6,2.2c4.3,8,9.7,15.2,17.1,21.5c-1.3-20.7-1.3-20.7,4.1-18.4
		C397.2,637.7,394.6,627.1,392.9,615.2z M264.4,681.8c7.2-4.8,10.8-9.9,3.8-17.6c-2.7-2.9-4.4-8.8-8.4-7.3
		c-3.7,1.4-3.6,7.3-4.2,11.8c1.7-0.8,3-1.5,6.5-3.1c-8.5,6.9-11,25.2-5.8,31.1c3.5-3.4,4.3-7.9,5.2-12.4c1-4.7-0.4-9.2-1.5-13.9
		C264.7,673,264.4,677.3,264.4,681.8z M251.1,478.4c-2.8,11.8-11.6,18.2-22.9,16.6c-7.7-1.1-12.7-6-15.8-12.8
		c-3.1-6.9-1.8-13.9,0.6-21.5c-10.9,9-11.7,16.5-3.5,26.5c8.9,10.9,23.4,14.1,36.8,8.2C255.5,491.3,256.7,487.5,251.1,478.4z
		 M401.1,456.3c4.7,18.2,0.7,29.6-11.5,33.6c-12,3.9-21.2-1.2-26.6-14.9c-4.9,7.2-4.7,12.9,4.6,16.2c5.2,1.9,10.5,2.9,16,2.6
		c11.1-0.6,22.1-9.6,25.7-20.8C411.9,465,405.5,461.5,401.1,456.3z M377.2,647c-9.7,4.6-15.8,12.2-19.2,23.3
		c9.3-4,17.8-7.7,26.3-11.3C381.8,654.7,379.6,651,377.2,647z M405.2,320.7c-0.5-3.6-0.9-6.7-1.4-10.6c0.7,1.1,0.9,1.5,1.1,1.9
		c2.4-7.6,4.7-15.1,7.1-22.7c-0.3-0.1-0.7-0.2-1-0.3c-0.9,2.2-1.7,4.3-3.4,8.4c2.8-15.2,4.3-28.6,12.8-41.5
		C407.1,268.6,398.6,306.5,405.2,320.7z M451.4,375.5c6.9-0.1,13.5,0.6,20.1,1.6c-0.8-5.8,4.6-3.8,6.8-5.7c1.4-1.2,3.5-1.7,3.7-3.9
		c0-0.4-1-1.4-1.5-1.4c-9-0.2-17.5,2.2-28.2,5.4c3.7,0.2,5.1,0.3,8.3,0.5C456.2,373.7,453.8,374.6,451.4,375.5z M209.5,704.2
		c4.1-6.5,2.8-30.1-1.7-33.8C203.1,676.8,204,697.2,209.5,704.2z M442.6,685.2c-2.7-13.5-6.1-24.2-12.3-33.9
		c-0.3-0.5-1.4-0.9-1.9-0.7c-0.5,0.2-1,1.2-0.9,1.8C428.8,664.2,432.5,674.8,442.6,685.2z M492.5,629c-2.9-11.3-7-21.4-13.4-30.7
		c-0.3-0.5-1.4-1-1.9-0.8c-0.5,0.2-0.8,1.1-0.9,1.8C475.1,606.7,485.1,625.4,492.5,629z M432.6,462.1c8.6,27.5,8.2,53.8-11,77.3
		C440.6,518.1,445.6,483,432.6,462.1z M242.6,484.5c-5.8,0.8-11,1.5-17.6,2.3c7.4,4.1,12.7,2.3,17.8-1.3c2.6-1.9,5.3-3.4,4.7-7.4
		c-0.6-3.6-3.4-3.1-5.7-3.6c-1.8-0.4-3.2,0-4,1.8C235.7,480.9,240.5,481.3,242.6,484.5z M407.5,676c1.6-4.5-5.4-24.6-9.7-26.8
		C398.9,659.2,400.5,668.3,407.5,676z M303,660.5c7.3,1.9,14.6,2.2,21.3-1.2C317,653.5,309.9,656,303,660.5z M187.8,649.7
		c-3.2,9.7-3.6,17.3,0.4,28.1C188.3,667,191.8,659.4,187.8,649.7z M289.9,628.5c4.3,0.9,8.6,0.9,10.5-3.4c3.3-7.3,3.1-14.7-2.6-20.9
		c-3.1-3.5-7.2-4.2-13.3-1.5c12.1-1.2,15,5.9,16.2,14.1C302.1,624.8,296.6,627.3,289.9,628.5z M230.2,465.3c-0.4-3.3-3.1-4.8-6-5.4
		c-2.1-0.4-4.6,1.2-4.1,3.3c0.8,2.8,2.3,6.1,5.8,6.6C228.7,470.3,229.8,468.1,230.2,465.3z M376.6,466.6c2.5-0.6,4.8-1.7,4.4-4.4
		c-0.4-3-2.8-4.9-5.8-5c-2.5-0.1-4.1,1.9-3.9,4.2C371.7,464.3,374,465.9,376.6,466.6z M445.2,408c10.9-9.3,25.1-10.3,37.9-15.1
		C469.5,395.7,455.2,396.5,445.2,408z M383.7,485.3c3.5-0.2,6.7-0.9,8.6-4c0.6-0.9-0.6-1.8-1.5-1.3c-3.9,1.9-9.5-1.1-12.1,3.1
		C377.7,484.7,381.9,484.7,383.7,485.3z M409.6,667.9c7.3-8.1-2.6-10.2-5-14.8C406.2,657.9,407.8,662.7,409.6,667.9z M317.3,621.2
		c-0.3,0-0.5,0.1-0.8,0.1c0.2,3.9,0.7,7.7,0.5,11.6c-0.4,8.1,3.6,7,8.6,4.4c-5.2,1.7-6.1-1.3-6.5-5.4
		C318.7,628.2,317.9,624.7,317.3,621.2z M388.8,339.3c3.1,3.3,7.9,8.6,12.8,13.8c0.3-0.3,0.7-0.6,1-1
		C397.4,347.3,392.2,342.4,388.8,339.3z"/>
	<path d="M393.4,572.1c0.9,0.7,2,1.4,3.2,2.3c-5.6,2.4-15.8-7.7-16.7-16.7c3.6,2.5,6.9,4.9,10.3,7.3c0.4-0.3,0.7-0.7,1.1-1
		c-2-3.1-4-6.2-6.5-9.9c1.4,0.9,2.1,1.4,3,1.9c1.1-5.9,0-11.5-0.8-17.2c3.4,10,6.5,20,11,29.6C399.8,572.1,393.9,569.2,393.4,572.1z
		"/>
</g>
</svg>
