<?xml version="1.0" encoding="utf-8"?>
<!-- Generator: Adobe Illustrator 24.2.3, SVG Export Plug-In . SVG Version: 6.00 Build 0)  -->
<svg version="1.1" id="Layer_1" xmlns="http://www.w3.org/2000/svg" xmlns:xlink="http://www.w3.org/1999/xlink" x="0px" y="0px"
	 viewBox="0 0 595.3 841.9" style="enable-background:new 0 0 595.3 841.9; fill: #215342;" xml:space="preserve"
	 height="350" width="450" transform="translate(-45, -75)">
<g>
	<path d="M561.1,641c1,4.1,1.8,7.2,2.5,10.3c0.7,3.3-0.7,4.5-3.7,3.1c-4.1-2-8.1-4.4-12.6-6.9c0.4,2,0.7,3.7,1,5.2
		c-0.4,0.3-0.6,0.6-0.7,0.5c-9.2-4.5-18.7-0.5-28-0.8c-0.6,0-1.6,0.1-1.7,0.4c-2.1,6-9.2,8.9-9.8,15.9c-0.3,3.6-2.3,3.9-5.2,2.6
		c-5-2.3-9.7-5.1-14.3-10c0.4,4.6,0.6,8.1,1,12.3c-8.9-3.2-17.4-5.7-23.2-12.6c-3.4-4-6.6-5.2-11.1-2.8c-0.7-1.3-1.2-2.3-1.8-3.3
		c-3,1-5.9,1.6-8.7,3.3c-5,3-3.3-4.1-6.1-5c-3.3,2.6-3.3,9.6-8.6,8.8c-4.2-0.7-5.4-6.4-8.4-10.2c-0.4,2.6-0.6,4.5-0.9,6.1
		c-21.1-7.7-20.6-24.9-19.3-42.7c-2.3,6.2-4.7,12.4-7.2,19.1c-7.3-4.5-10.4-11.1-11.3-18.9c-0.3-2.3-1.1-2.9-3.3-2.9
		c-53.8,0-107.6,0-161.5,0c-1.6,0-2.9,0-3,2.2c-0.4,7.2-3.9,12.8-8.6,18c-2.7,3-6.6,5.3-5.3,11.9c-2.1-2.3-3-3.4-4.3-4.7
		c-3.6,3.7-6.8,7.7-10.8,10.8c-8.5,6.7-10.6,6-15-3.8c-0.6-1.3-1.1-2.6-2.1-4.8c-2.1,6.2-4.2,11.2-8.3,15.1
		c-5.8,5.5-6.5,5.2-10.3-3.7c-4.2,0.5-8.6,1-12.9,0.1c-1.5-0.3-1.8,1.1-2.4,2c-4.4,6.6-10.5,11-16.9,14.7c-5-2.2-4.6-7.8-8.6-10.7
		c-1.9,4.5-3.9,9-7.4,12.6c-2.8,2.9-5.5,2.7-6.8-0.9c-3.5-9.5-10.6-13.6-20-15c-3.9-0.6-5-4.3-6.4-7.7c-5.2,2.7-8.9,8.4-16.6,7.1
		c-5.1,4.2-5.8,1.1-5.3-4.5c0.3-2.8,0.8-5.8-0.9-8.7c-2.4,2.7-4.5,5.5-6.9,7.8c-6.3,6.2-9.8,5.6-14.3-2.3c-4.2-7.1-4.8-15-5.2-22.9
		c-0.1-1.3-0.1-2.6-0.3-5.3c-1.6,2.7-2.5,4.2-3.8,6.5c-4.8-7.4-4.7-14.8-3.2-22.1c2.8-13.6,8.5-25.1,21.3-32.7
		c6.4-3.8,11.6-9.6,14.1-17.6c12.4-39.4,31.4-76.1,48.3-113.6c10.3-23,17.2-46.9,20.6-71.9c3.8-28.2,17.2-50.7,41.8-65.7
		c6.5-4,11.5-8.9,15.1-15.7c8.2-15.7,18.6-30.2,26-46.3c0.8-1.7,1.4-3.4,2.5-6.2c-3,1.2-5,1.9-7.6,3c3.9-3.2,20.7-24.3,29.8-35.4
		c10.4-12.7,24.8-17,41.7-14.5c6.9,1,14.3-2.2,21.5-2.9c7.4-0.7,14.7-0.4,21.8,2.7c3.6,1.6,4.8-3.6,8.2-4.4c0.8,0.4,0.6,2.5,2.8,1.8
		c33.8-10,61.3,0.9,84.7,24.4c6.4,6.5,21.9,41.2,22.4,45c3.2,22,14.4,38.8,30.1,54.4c19.1,19,31.1,42.6,36,69.5
		c8.1,44.2,25.1,85.3,42.7,126.2c1.5,3.4,2.9,6.9,4,10.5c3.9,13.1,8,25.7,21.3,32.9c3.9,2.1,6.4,6.7,8,11.9
		c-1.7-0.8-2.9-1.4-4.8-2.3c2.4,5.5,4.6,10.2,6.7,15c4.3,10,8.9,19.9,12.5,30.2c2.1,6-0.2,12.1-3.2,17.7c-0.9,1.6-1.8,3.8-4.1,1.3
		c-0.5,6.5-0.9,12.6-1.3,18.7c-0.4,6.9-2.2,7.9-8.4,4.6C565,643.7,563.4,642.5,561.1,641z M465.6,625.3L465.6,625.3
		c-7.6,18.1-1.4,37.8,13.4,41.8c-0.5-1.3-1-2.4-1.7-4c3.6,2,5.4,5.3,9.5,6.3c-2.1-7.9-2.2-15.6-0.4-23.1c0.8-3.4,2.4-6.7,6.2-7.7
		c3.8-1,6.5,1.4,8.9,4c4.4,4.8,6,10.8,7.4,17.7c5.8-6.8,9.5-13.6,10-22c1.1-18.1-1.8-35.7-4.7-53.5c-2-12.5-3.7-25.1-0.8-37.8
		c-0.7,14.2,5.4,27.2,7.4,41.3c2.4-3.3,5.8,1.2,8.8-2.2c9.6-11,19.9-10.7,29.6,0.4c2.4,2.7,4.5,5.7,7,9c-0.3-5.1-3.9-8.6-5.4-14.8
		c2.6,3.6,4.1,5.6,5.8,7.8c1.1-13.4,1.2-26-10.2-38.3c4.4,2.3,6.5,3.3,9,4.6c-6.8-12.3-33.1-24.5-47.2-22c-4.6,0.8-8.3,0.1-11.4-3.7
		c-3.2-3.9-7.6-5.8-12.4-6.7c-22.4-4.4-41.6,4.8-60.6,14.7c-1,0.5-2.2,1.3-1.8,3.2c5.2-2.7,10.3-5.2,17.5-4.4
		c-2.1,0.7-3.1,1.1-4,1.4c-9.5,2.5-16.5,8-20.8,17c-3,6.4-6.9,12.3-11.8,17.6c-4.9,5.4-9.1,11.2-10.9,18.4c-1.1,4.2-2,8.4-0.3,13.2
		c5.8-21.9,9.2-28.4,15.8-30c-9.6,10.6-15.3,22.6-13.1,37.5c0.5-1.1,1.1-2.2,2.7-5.5c-1.1,10.2-2,17.9-2.8,25.7
		c-0.8,8.2,3.4,16.5,10.1,19.9c-0.3-2.4-0.7-4.6-1.2-8.1c1.4,2.6,2.1,3.9,3.4,6.2c0.2-7.3,1.5-13.1,4.8-18.3
		c4.4-6.8,12.1-6.8,16.4,0.1c1.8,2.9,2.3,6.2,2.8,9.5c0.7,4.8,1.6,9.5,2.9,16.6c1.2-4.9,1.8-7.4,2.5-10.2c1.7,1.5,3.1,2.7,4.6,4
		c0.8-2.2,1.7-4.4,3.1-7.9c0.9,4.1,1.6,6.7,2.3,9.8c1.2-1.1,2-1.8,2.8-2.5c0.8,1.2-0.8,3.2,2.7,3.8c-3.6-15.4-11.3-28.9-15.9-45.7
		c2.8,3.6,4.2,5.5,5.6,7.4c-2.5-6.6,1.2-11.9,3.2-17.5c1.9-5.2,3-10.6,4.7-15.9c1.8-5.2,3.9-10.2,5.9-15.4
		c-5.2,19-10.4,37.9-3.4,57.9c1.1-1.9,2-3.5,3.1-5.4C465.6,621.5,463.9,623.6,465.6,625.3z M276.4,479.2c-2.8,0-4.8,0.1-6.8,0
		c-18.1-0.7-27.1-7.9-29.2-23.4c-2-14.8,10.3-34,24.7-37.6c24.9-6.2,50.3-4.9,75.6-3.5c11.7,0.6,18.5,7,21.9,17.7
		c1.1,3.6,2.4,7.1,3.1,10.8c0.9,4,2.6,8.7,0.2,12.2c-5.2,7.4-6.1,18.4-17,21.2c-0.4,0.1-0.8,0.7-0.9,1.2c-4.9,17-18.5,24-33.7,29
		c-4.6,1.5-7.6,4.8-7.8,9.2c-0.7,20.4,4.1,39.1,20.6,52.8c17.4,14.3,56.6,16.7,76.2,5.2c13.6-8,28.2-34.4,25.8-47
		c0.8,0.3,1.5,0.6,2.9,1.2c-1.3-1.8-2.3-3.1-0.3-4.5c-13.8-9.9-27.9-7.3-42.3-3c6-4.5,13.1-4.5,20-4.6c7.1-0.1,13.8,2,21.3,4.1
		c-1.9-15-5.8-28.6-14.7-40.3c-1.8-2.4-6.3-4.8-4.7-7.3c1.9-3.1,6.5-1.3,9.9-1c0.1,0,0.3-0.1-0.2,0.1c-17.1-6.7-24.3-23.2-34.7-37.7
		c-0.2,3.8-0.3,6.9-0.5,10.1c-0.2,3.2-0.6,6.3-0.9,9.5c-2.4-36.7-6.3-72.8-28.9-103.9c2.8,3.1,5.6,6.1,10.1,11
		c-2.6-7.3-4.6-12.5-5-18.1c-0.8-12-7.6-22.7-8-34.9c-0.2-4.8-0.7-9.7,3-13.3c3-2.8,4.2-6.1,4.6-9.9c0.9-7,4-12.9,8.6-18
		c2.7-3,5.5-7.4,10.4-2c-0.3-1.6-0.9-2.7-0.7-3.7c0.9-4.3,0.8-8.2-2.5-11.5c-0.6-0.6-1.6-1.6-1.4-2.3c0.9-5.2-2.3-5.6-6-5.2
		c-4.2,0.5-6.6,3.1-8,7.7c2.4-0.8,4-1.4,6.9-2.4c-2.6,4.2-4.5,7.2-7.1,11.5c0-2.8,0-4,0-5.4c-0.9,0.4-1.7,0.8-2.3,1.1
		c-1.4-7.9,1.5-12.9,9.4-14.6c7.1-1.5,12.2,1.4,15,7.6c2,4.4,4.7,8.1,8.1,11.3c1,0.9,1.5,2.2,3,4.4c-3.9-2.1-6.7-3.5-10.4-5.5
		c1,2.5,2.3,4.1,2,5.2c-2.7,9,3.2,4.5,6,3.7c5.9-1.6,10.9-0.3,15.1,3.9c5.8,5.9,8.7,13.1,8.4,22.9c-2.5-4.8-4.1-8.5-6.3-11.8
		c-2.7-4.1-6.8-5.4-10.6-3.7c11.3,4.8,14.3,14.6,15.1,25.2c0.7,9-0.3,18.2,0.7,27.1c2.1,17.9,2.1,35.5-3.5,52.9
		c-4.2,13.3-6.7,26.9-6,40.9c0.1,2-0.1,4.1,2,6.3c2.1-5.9,3.7-11.5,6-16.8c7.5-17.9,12.6-36.2,9.3-55.7c-2.5-14.7-2.1-29.2,0.6-43.8
		c2.3-12.6,5.1-25.9-1.7-37.3c-6.7-11.3-12-23.1-17-35.1c-1-2.4-5.2-1.4-4-4.8c-2.3-1.3-4.7,1.8-7.1-1c1.9-0.9,3.6-1.7,4.9-2.2
		c-4.1-7.8-10.9-11.6-18.6-14.7c-7.8-3.1-15.7-2.9-23.8-1.5c7.3-4.9,15.1-2.6,23.4-2.1c-11.5-7.1-23.1-6.9-35.1-3.1
		c0.2-2.7,1.4-3.5,2.8-4c5.4-1.7,10.8-2.8,16.6-2.4c12.2,0.8,19.8,9.9,28.5,16.3c6.7,4.9,11.7,2.8,17.7,0.6
		c-8.4-28.3-64.5-47.6-93.3-32.1c-0.3-1.3-0.5-2.5-0.7-3.7c-3,0.3-3.7,4.7-6.5,3.6c-12.9-5.2-25.7-1.7-38.6,0.1c0,1,0,1.8,0,2.7
		c-23.7-10.8-48,10.8-54.3,24.5c8.1,1.7,15.5-0.8,22.8-4.1c8.2-3.6,17-8.4,25.6-6.6c11.2,2.4,20,9.5,23.9,21.5
		c3.1,9.6,3,19,0.8,28.6c-0.8,3.5-2.2,6.8-3.4,10.2c-1-2-1.2-3.7-0.8-5.2c2.3-8.7,1-17.2-0.8-25.7c-5.2-24.4-22.1-25.8-41.3-13.2
		c-7.1,4.7-14.3,9-21.9,12.7c-2.9,1.5-6,2.8-7.7,5.7c-8.1,13.4-16.1,26.9-18.3,42.8c-2.7,19.1,0.4,38.3-1,57.5
		c-1.2,16-2.4,32.1,0.6,48c2.4,12.9,7.5,24.9,12.5,37c0-8.4,0-16.7,0-25.4c-0.5,1.3-1,2.4-2.3,5.5c-1.1-16-1.3-29.8-4.8-43.5
		c-4-15.6-3-31.9-0.9-47.9c0.4-2.9,0.5-5.9,0.8-9.3c-1.1,0.7-1.6,1-2.7,1.7c2.5-6.5,5.2-12.3,6.9-18.4c2.8-9.6,5.5-19,17.8-20.4
		c-7.9-0.4-14.2,2.2-18.7,9.1c3.5-7.5,8.1-15,14.9-18.9c8.6-5,15.9-10.5,21.1-18.9c3.2-5.2,13.2-8.5,18.1-5.2
		c-0.5,0.2-0.9,0.4-1.3,0.5c-8.2,2.3-10.6,9.9-14.7,16c-1.5,2.2-0.5,4.2,1.5,5.4c4,2.5,7.6,5.3,8.4,10.3c0,0.1,0.3,0.2,0.6,0.4
		c0.6-0.3,1.3-0.7,2.1-1.1c5,6.5-3.1,15.2,2.6,19.8c-0.5,10.9,7.2,18.7,6.1,28.2c-1.1,9.2-2.1,18.5-3.3,28.9c3.5-2.3,5.7-3.8,8-5.3
		c-18.4,21.2-29.7,45.4-36.3,72.4c-6.5,26.5-9.6,53.4-12.3,80.5c0-8.1,0-16.3,0-23.7c-6.1,5.8-12.1,11.6-18,17.2
		c1.2-0.2,2.9-0.5,5.3-0.9c-2.6,2.8-6.6,3.2-6.8,6.4c-0.2,3.3-1.7,3.2-4,3c-7.9-0.8-15.9-1.8-25.3-1.1c32.5,1.9,53.2,7,58.1,14.4
		c-5.3-2.5-9.9-5.5-14.9-7.1c-17.1-5.3-15.4-6.3-24,9.8c-1,1.9-1.8,3.5-4.3,3.7c11.7-1.1,22.6,1.9,33.7,5.7c0.4-1.8,0.7-3.2,1-4.5
		c-0.6,3,0.2,5.7,3,7.7c-2,0.9-3.6,1.7-2.2,4.1c4.8-0.3,9.8-0.5,14.7-0.8c-4.6,1.2-9.5,0.9-13.7,2.5c-5,2-1.8,8.6-4.9,12.3
		c0.2-2.1,0-4.2,0.5-6c1.6-5.8-0.8-6.9-6-5.6c-6.2,1.5-12.6,2.6-19.1,3.9c7.2-3,14.6-4.4,22-5.3c1.8-0.2,4,0.1,4.4-2.9
		c0.3-2.8-0.9-3.9-3.2-4.8c-7.9-3.2-16.2-4.8-24.6-5.3c-1.9-0.1-3.3,0.7-3.7,2.7c-2.9,14.7-8.9,28.4-1.5,44.6
		c10,22,30.1,34.6,53.7,29.2c16-3.7,29.7-11.6,41.9-22.7c14.5-13.1,22.1-29.3,22.2-48.9c0-4.7-1.8-8.8-6.7-10.2
		c-14.2-4.1-25.4-12.8-35.8-22.7c-1.9-1.8-3.1-4.1-3.5-7.5C264.1,484.2,270.8,484.6,276.4,479.2z M33.8,593.4
		c6.3-6.6,17.3-8.5,24.3-4.4c8.1,4.6,11.1,12.9,14.9,22.1c0.3-4.1,0.5-6.7,0.8-11.2c1.2,2.8,1.7,3.8,2.4,5.4
		c1.4-10.1,5.9-19.1,4.6-29.5c0.8,0.5,1.3,0.8,2.1,1.3c0.3-5.2,0.5-10.1,0.8-15.6c0.6,2,1,3.5,1.9,6.2c0.9-5.4,1.6-9.3,2.3-13.3
		c1.6,11.2,2.4,22.6-2.7,32.9c-10.1,20.4-10.2,41-3.3,62.1c1.1,3.4,4,6.1,7,10.6c0.3-10.2,2.2-19.3,11.4-20.6
		c12.8-1.8,9.3,10.3,11.7,17.3c0.5-0.4,1-0.8,1.9-1.6c0.5,2.2,1,4.1,1.5,6.1c0.8-0.7,1.4-1.2,2.3-2.1c-0.3,2.4-0.5,4.3-0.7,6.2
		c2-3.7,5.6-5.4,8.5-8c0.4,1.1,0.7,1.9,1.4,3.6c0.8-3.1,1.3-5.3,2.1-8.4c0.6,2,0.9,3.1,1.5,4.9c1.3-1.9,2.3-3.1,3.1-4.5
		c6.4-11.4-1.7-21.7-2.9-33.9c1.6,2.2,2.3,3.3,3.2,4.5c0.4-0.9,0.7-1.6,1.4-3.2c1.1,3.9,2,6.9,2.8,9.9c-4-16.6,0.1-34.5-7.4-50.8
		c0.9,1.1,1.9,2.2,3.2,3.7c0-4.5,0-8.5,0-12.7c2.8,3,2.7,6.8,4.5,11.7c0.2-4.4,0.3-7,0.4-9.7c0.5,12.1,3.4,23.7,5.6,36.9
		c1-3.3,1.5-5.2,2.7-9.2c0.2,4.4,0.3,6.7,0.5,9.5c14.8-20.1,18.4-20.3,40.5-2.7c0.5-0.5,1.1-0.9,1.6-1.3c2.7,2.3,2.7,5.8,4.7,8.8
		c0.2-1.1,0.5-1.8,0.5-2.4c0.8-35.4-17.8-58.8-47.7-73.1c-6.5-3.1-20.3,0.9-22.7,6c-17.4-11.4-26.2-11.7-37.3,0
		c-4.2,4.5-7.9,7.7-14.5,5.5c-2-0.7-4.8,0.1-7,1c-15.9,6.2-28.3,17.6-37.8,30.9c-10.5,14.9-6.3,33.2-6,50.3
		c0.1,5.3,3.4,9.2,6.1,14.3c0.3-2.7,0.6-4.4,0.7-6.1c0.5-6.3,2.1-12.2,6.7-16.7c4.1-4.1,9.6-2.7,11.1,2.9c0.7,2.7,1,5.5,1.7,9.2
		c0.8-2.3,1.2-3.6,2.1-6.1c0.7,5.1,1.7,9,1.5,12.8c-0.3,3.8-1.8,7.4-3.5,13.4c4.1-4.6,6.6-7.4,9.3-10.3c0.1,1.5,0.2,2.6,0.3,4.5
		c1.5-2.2,2.6-3.6,3.7-5.1c0.2,0.1,0.4,0.3,0.6,0.4c-0.6,1.7-1.2,3.5-1.8,5.4c11.3-7.6,17.8-21.4,9.2-43
		C63.1,590.6,51.9,586.1,33.8,593.4z M436,289.1c1.7,8.5,0.4,15.7,5.9,21.2c1.4,1.4,4.1,2,4.6,3.5c1.9,5.2,3.1,10.5,5.8,15.5
		c3.6,6.7,4.9,14.6,8.4,21.3c10.5,20.2,12.6,42.1,13.7,64.3c0.1,2,0.9,4.5-1.3,5.7c-2.4,1.3-4.6-0.1-6.6-1.5
		c-5.3-3.5-9.4-2.3-9.5,3.9c-0.2,8.8,0,18,2.7,26.2c2.2,6.6,4.3,13.1,6.2,19.8c1.5,5,0,9.9,1.5,14.8c4,13.3,12.7,21.5,25.8,25.8
		c8,2.6,17,5.2,20.9,13.2c4.4,9.1,12.2,7.6,20,9c-0.3-1.9-0.5-3.3-0.9-4.6c-3.2-14.3-12.9-24.8-20.5-36.6
		c-7.2-11.2-12.8-22.7-8-36.7c0.9-2.5,0.5-6-0.5-8.6c-7.9-22.6-9.8-46.4-14.2-69.7C483.4,340.3,462,314.5,436,289.1z M170.4,300.6
		c-1.9,0.6-2.6,0.7-3.2,1.1c-19.5,10.9-33,26.6-39.9,48.1c-4.5,14.1-4.9,29-8.3,43.3c-6.3,26.5-19.2,50.4-30.3,75
		c-1.1,2.5-1.5,4.8,0,7.6c0.8-0.9,1.4-1.5,1.8-2.1c5.9-9.3,11.8-18.7,17.8-28c0.9-1.3,2.6-4.1,3.6-1.4c1.9,5.4,6.6,11,1.4,17.2
		c-0.8,0.9-0.8,2.4-1.2,3.7c0.3,0.1,0.5,0.3,0.8,0.4c1.6-2.2,3.2-4.4,6.1-8.2c-0.5,3.2-0.6,4.4-0.9,5.5c-5,16.5-16.2,29.1-26.5,42.3
		c-2,2.6-5.8,5.4-4,8.8c1.7,3.2,5.2-0.7,8.5-0.2c-5.5,6.8-10.9,13.3-16.2,19.8c8.3-8.3,20.2-11.6,27.7-20.6c2.1-2.5,4.7-4.5,5.6-7.8
		c0.4-1.8-2.6-2.9-0.5-5.2c14.2-16.1,20.4-35.8,25.3-56.1c0.4-1.6,1.2-3.5-0.5-4.6c-1.8-1.2-2.9,0.8-4.3,1.7c-1.6,1-2.7,3.5-4.9,2.5
		c-2-1-1.5-3.5-1.6-5.4c-1.6-18.9,5.4-36.5,8.5-54.7c1.9-11.1,4.3-22.2,11.2-31.5c9.2-12.6,16.8-26.1,21.8-41
		C168.8,307.5,169.4,304.5,170.4,300.6z M328.8,577.2c-6.8-6-12.1-13.1-17.3-20c-1.4,0.6-0.3,3.7-2.7,2c-1.1,1.7,0.9,2.5,0.9,3.9
		c-2-1.2-2.2-3.3-3.2-5.4c-0.3,1-0.5,1.7-0.8,2.9c-0.7-1.1-1-1.7-1.8-3c0.4,2.5,0.6,4.3,0.8,6c-2.6,0.7-3-1.5-4.4-2.5
		c-0.3,3.6-1.9,0.5-2.6,1.2c-8.7,1.3-12.4,9.4-19.1,13.5c-6.9,4.3-13.4,9.1-21.3,12.6c1.1,0.4,1.6,0.5,2,0.8
		c0.2,0.1,0.5,0.4,0.6,0.7c1.2,8.9,6.4,12.9,15.2,15.2c6.2,1.6,12.8,2.6,18.8,5.5c0.4,0.2,0.9,0,1.7,0c-0.5-1-0.9-1.7-1-1.9
		c11.2,3.4,22.4,1.9,33.2-1.8c10.6-3.7,23.8-3.9,27.8-18.2c-1.8-1.9-3.9-4-7.6-3c0.5,1,0.8,1.7,1.4,2.8c-6.7-1.7-13.5-1.4-20.8-5
		c6,0.2,10.4,2.6,15.5,1.3c-5.3-3.7-11.6-3-18.3-5.3c3.1-0.4,4.7,1.3,6.6-0.3C330.9,578.4,329.9,577.8,328.8,577.2z M308,420.2
		c0-0.3,0-0.7,0-1c-0.8-0.2-1.7-0.5-2.5-0.4c-10.5,1.3-21.1,2.5-31.6,4c-3.1,0.4-6,1.7-8.5,3.7c-2.6,2.1-2.6,3.8,0.5,5.3
		c4.1,1.9,8.4,3,12.8,3.8c7.7,1.5,15.8,1.7,25.4,5.4c-4,0.2-5.7,0.3-7.4,0.3c-9.2,0-17.8,2.6-26.3,5.6c-1.1,0.4-2.7,1-2.3,2.5
		c0.2,0.8,1.5,1.7,2.5,2c7.6,2.6,15.4,3.5,23.4,3.8c1.9,0.1,4.1-0.5,4.8-2.7c1.9-5.5,5.4-4.2,8.3-1.5c2.2,2,4.2,2.8,7,2.5
		c11.2-1.2,22.4-1.3,33.7,0.4c6.4,1,10.4-2.7,11.6-8.8c3.4-17.1-12.7-31.1-31.1-26.7c2.6,3.3,6.5,3.2,9.8,4.2
		c3.6,1.1,4.8,3.6,4.8,7.1c0.1,3.2-2.3,4.5-4.6,4.5c-18,0.4-36.3,2.5-53.2-6.6c-0.9-0.5-1.8-1.3-3.9-2.9c5.7-0.7,9.9-1,14.1-1.7
		C299.4,422.2,303.7,421.1,308,420.2z M565.9,607.8c-1.6-3.5-2.8-5.8-3.7-8.2c-1.4-3.5-2.9-6.9-5.3-9.9
		c-8.1-10.1-17.5-10.6-26.6-1.5c-9.9,10-13.4,32.2-6.3,41.1c0.5-0.7,1-1.4,2-2.7c3.6,10.3,8.5,19,19.5,24.7
		c-3.1-5.8-4-10.7-4.6-15.7c-0.5-4.5-2.7-10.3,2.6-12.7c5.7-2.5,8.9,2.7,11.8,6.8c0.1,0.1,0.4,0.1,0.8,0.2c-0.3-2.3-0.9-4.6-0.8-6.8
		c0.1-4.5-1.9-10.9,3.8-12.2c5.8-1.3,8.2,4.9,10.3,9.5c1.4,3.2,2.4,6.7,3.6,10c0.7-0.1,1.4-0.2,2.2-0.3c-6.5-17.1,5.6-34.8-3.5-52.8
		c-0.5,8.2-1,15.4-1.5,22.6c-0.1,1.9-0.1,4.2-3.3,2.6C566.6,604.2,566.4,605.3,565.9,607.8z M391.4,342.6
		c-6.9-3.5-12.8-8.1-20.4-4.3c0.6,1.6,0.9,2.6,1.5,4.1c-1.5-0.6-2.5-0.9-4.2-1.6c1.7,8.7,3.2,16.8,4.8,25.2c-1.1-1.1-1.8-2-2.6-2.9
		c-0.7,0.3-1.4,0.6-2.2,0.9c5.8,11.4,11.2,22.9,13.7,35.4c0.9-5.9,1.2-11.7,1.5-17.5c0.3-5.8-1.1-11.8,2.2-18c1.4,3.2,4.5,5.1,3,9
		c-0.3,0.8-0.2,2.3,0.4,2.9c3.4,3.2,2.7,7.2,2.8,11.3c0.5,18-3,36.5,7.5,53.1c1.2,1.9,2,4.1,3,6.2c0.6-1.5,0.4-2.7,0-3.8
		c-8.1-25.7,0.4-50.7,3.8-75.7c0.4,0.3,1.2,0.9,2,1.5c4.5-5.2,4.6-31.2-0.5-34c2.4,14.1-2,25.3-14.5,33.6c2,0,2.9,0,4.4,0
		c-1.7,2-3.3,2.8-5.3,2.4c-1.1-0.2-1.8-1.5-1.2-2.1c3.6-3.7,2.7-9.5,5.7-13c3.5-4.1,5.4-8.7,3.7-13c-1.4-3.5-7.7,0.2-10.6-3.5
		C390.3,339.9,390.7,340.8,391.4,342.6z M178.6,651.7c0.4,0.1,0.7,0.2,1.1,0.3c1.2-3.5,2.4-6.9,4.2-12c0.1,3.3,0.2,4.9,0.3,7.2
		c1.9-2.7,3.4-4.8,5.4-7.7c0,1.9,0,2.6,0,3.5c7.3-9,8.3-23.7,1.7-28c0,2.9,0,5.7,0,8.4c-2.2-10-7-17.7-16.4-22.3
		c-9.8-4.8-12.9-3.6-23.1,9.6c-0.3-0.9-0.5-1.7-0.8-2.6c-7.5,10.4-8.2,30.1-1.3,35.4c2.1-6.8,2-16.6,10.5-17.3
		c9.4-0.8,8.7,10,12,16.1c0.5-0.4,0.9-0.8,1.6-1.5c0.8,2.6,1.4,4.8,2.2,7.3c0.6-1.5,1-2.7,2.1-5.4
		C178.4,646.9,178.5,649.3,178.6,651.7z M225.5,405.7c0.6-1.1,0.9-1.4,1-1.8c4.5-14.3,8.8-28.7,17.3-41.4c0.6-0.8,0.4-2.2,0.4-3.3
		c-0.2-7.1-2.1-14.2,0.1-21.4c0.8-2.6-0.2-4-3.4-2.9c-3.2,1.1-6.6,2-10,2.5c-8.2,1.3-13.3,8.1-11.8,16.3c1.1,6.2,3.2,12,2.7,18.7
		C220.9,383.3,222.3,394.3,225.5,405.7z M249.8,294.2c-0.9,11.7-2.9,23.7-17.3,23.8c-15.5,0.1-17.1-13.3-19.6-24.9
		c-6.2,7.4-3.2,24.4,5.6,32.5c8.1,7.4,21.3,7.2,29.3-0.5C255.2,318.1,256.3,301.6,249.8,294.2z M371.3,291.8
		c-8.1,4.8-9.8,21-3.5,30.9c6.4,10.1,20.1,14.2,28.7,8.5c7.4-4.9,13-20.2,9.3-25.6c-6.9,13.3-12.6,17.9-21.1,15
		C370.7,316,370.7,304,371.3,291.8z M407.8,239.8c0.6,1.4,1.3,2.7,1.8,4.1c3.3,8.3,5.1,17.6,10,24.8c9.7,14.2,11.3,28.9,7.3,44.9
		c-1.2,4.8-1.7,9.7-2.5,14.5c3.2-8.7,5.9-17.5,7.2-26.5c2.6-18-4.1-34.7-8.3-51.8C421.2,241,415.5,239.6,407.8,239.8z M214.8,227.2
		c-6.7,2-9.7,7.1-11.6,13.3c-2.2,6.9-6.1,13-10,19.1c-7.3,11.4-11.2,36.8-7.4,48.8c0.9-11.1,0.9-22.3,3.9-33
		c4.3-15.9,15-28.2,24-41.4c1.8-2.6,4.4-5.5,8.2-6.4c10.9-2.7,21.2-6.8,31.7-12.6c-10,0.7-19.1,2.6-27.1,7.9
		c-2.1,1.4-3.9,2.7-6.7,2.6c-3.5-0.2-7.2-1-11.1,2.4C211.2,227.5,213,227.3,214.8,227.2z M209,464.1c3.6-9.5,6.8-19.2,8.1-29.3
		c2.4-19.7-0.7-39.3-2.1-58.9c-0.3-5.1,1.1-11.4-1.4-14.9c-5.8-8.2-6.4-17.1-7.2-26.4c-3.3,10.9-0.5,21.3,2.4,31.5
		c5.7,20.6,7.6,41.5,5.5,62.8C213.1,440.8,210.7,452.4,209,464.1z M505.7,665.6c1.4-5.7-2.6-18.8-7.4-22.9c-2.8-2.4-5.8-2.1-7.2,1.3
		c-2.1,5.1-2.4,10.4,2.5,14.5C497.3,661.5,499.8,666.4,505.7,665.6z M572.7,643.9c0-9.8-2.7-18.4-7.4-26.3c-0.9-1.5-2.4-1-3.6-0.4
		c-1.4,0.6-1.4,1.9-1.1,3.2c1.1,5.2,1.9,10.4,3.3,15.5C564.9,640,567.6,642.9,572.7,643.9z M194.2,582.8c6,14.9,7.7,29.9,9.7,45.8
		c2.3-7.8,1.1-14.8,0-22.4c1.4,1,2.2,1.5,3.1,2.2C205.7,598.5,203.1,589.6,194.2,582.8z M429.4,659.1c2.9-8.9,2.5-17.4,2.2-25.8
		c-0.1-1.7-0.4-3.5-2.6-3.7c-1.7-0.2-2.8,0.9-3.2,2.4C423.1,641.4,424.4,650.2,429.4,659.1z M557.6,647.3c0.6-8.6-2.3-15.4-8.5-20.9
		c-1.2-1.1-2.7-1.9-4.2-0.9c-1.4,0.9-1,2.6-0.4,3.7c2.1,4.6,4.1,9.3,6.6,13.7C552.3,645.1,554.1,647.4,557.6,647.3z M219.8,289.5
		c-2.5,6.4-0.7,11.3,2.8,15.8c3.1,3.9,7,5,11.7,3.2c3.9-1.4,6.5-4,7.8-8.5C229.2,305.6,229.1,305.6,219.8,289.5z M160.2,648.5
		c2.3-5.4,2.8-10.6,2.4-16c-0.1-1.4-0.5-2.8-2.1-3.2c-1.7-0.4-2.4,0.9-3.1,2.1c-2.1,3.7-3,7.8-3.7,11.9c-0.7,4.2-1.3,8.4,0.7,13.8
		c1.1-4,1.9-6.7,2.7-9.5C158.5,648,159.2,648.2,160.2,648.5z M378.8,291c-4.2,3.6-3.8,8-2.9,12.4c1.5,6.6,6,9.7,12.7,9.7
		c4,0,6.3-2.6,9-5.8C383.8,309.6,382.5,308.4,378.8,291z M98.1,670.5c2.8-3.1,5-21.7,3.2-24.9c-1.2-2-2.3-1.3-3.4,0
		C93.9,650.2,93.9,665.3,98.1,670.5z M32.7,652.3c2.7-8.8,5.3-17,7.8-25.3c0.1-0.4-0.5-1.5-0.7-1.5c-1.1,0.2-2.3,0.3-3.1,0.9
		C31.4,630.3,28.8,645.8,32.7,652.3z M28.2,577.9c-10.7,5.7-19.2,34.6-12.6,42.8C14.5,604.7,20.1,591.3,28.2,577.9z M415.4,232.5
		c-2.5-7.7-5.1-9-10.8-5.9c-1.7,0.9-1.9,2.4-1.7,4c0.1,1.2,1,1.8,2.1,1.9C408.4,232.5,411.8,232.5,415.4,232.5z M372,278.9
		c3.8-2.9,6.7-5.1,9.5-7.5c1.3-1.1,4.1-2.3,1.5-4.5c-2.1-1.8-4.5-1.7-6.6,0.6C373.7,270.5,373.5,274.3,372,278.9z M230.5,260.3
		c2.4,2.6,4.7,5.1,7,7.5c0.8,0.8,2.6,1.9,2.7,0.7c0.4-2.6,0.2-5.6-0.6-8.1c-0.6-1.8-2.9-2-4.9-1.3
		C233.3,259.5,231.9,259.9,230.5,260.3z M290.9,459.3c4,5.2,6.5,10.4,8.7,15.8c1.1-4.4,1.2-8.6-1.4-12.4
		C296.7,460.7,295,458.7,290.9,459.3z M347.2,476.8c-7.9,1.7-13.9,1.4-19.9,1.1c0.2,3.1,1.9,3.9,3.9,4.1
		C336.3,482.3,341.3,481.7,347.2,476.8z M223.3,287.6c0.4,1.2-0.7,4.4,1.9,4.2c3.5-0.3,4.3-3.7,4.6-6.8c0.2-2-0.7-3.3-2.8-3.1
		C223.7,282.1,222.9,284.2,223.3,287.6z M383.3,287.3c-2.4,3.5,3.1,7.2,5.5,3.7c0.5-0.8,1-1.6,1.3-2.5c0.5-1.2-0.4-2.2-1.6-2.6
		c-1.8-0.6-3.7-0.5-4.9,1C383.5,287,383.4,287.1,383.3,287.3z M323.6,490.8c-5.6-2.7-7.5-7.1-8.9-12.1c-1,0.9-1.7,1.5-2.1,1.9
		c1.1,2.7,2.1,5.1,3.1,7.5C316.9,491.3,319.3,491.8,323.6,490.8z M580.3,612.5c3.5-5,2.2-14.8-2.4-18.4
		C579.5,600.3,580.2,606,580.3,612.5z M431.8,496.5c9.2,1.5,18.2,3.7,27.1,6.5C450.3,498.9,441.5,495.9,431.8,496.5z M406.3,236.5
		c3.9,0.9,7.8,1.8,13.4,3.1C415.2,233.3,410.6,235.6,406.3,236.5z M226.5,220.6c-6.3-0.4-10.6-1.6-15.8,2.9
		C216.5,222.6,220.7,223.2,226.5,220.6z"/>
	<path d="M287.6,385.7c11.9-5.2,24.1-4.1,38-1.5C311.9,388.1,299.7,383.8,287.6,385.7z"/>
	<path d="M286.3,203.2c9,3.1,19.8,24.5,16.2,30.1C297,223.7,294.2,212.7,286.3,203.2z"/>
	<path d="M330.9,392.1c18.9-1.9,37.1,6.7,39.7,19.5c-4.8-7.1-9.9-12.5-17.4-14.5C345.9,395.2,338.6,393.8,330.9,392.1z"/>
	<path d="M422.4,503.2c-12.9-2.4-25.7-2.6-38.5,0.5C396.7,498.9,409.6,499.5,422.4,503.2z"/>
	<path d="M266.5,519.7c-9.2,12.3-24.8,10.1-36.4,17C241.2,528.6,256.8,530.7,266.5,519.7z"/>
	<path d="M412.1,490.9c-10.1-1-20.1-0.4-30.1,1.5C391.9,488.5,402,489.3,412.1,490.9z"/>
	<path d="M402.6,469c-7.3,0.5-14.2,2.6-20.9,5.1C387.9,469.3,395.3,469.2,402.6,469z"/>
	<path d="M273.6,199.2c5.4,2.6,11.5,4.2,16,11.1C283.4,206,278.5,202.6,273.6,199.2z"/>
	<path d="M406.5,622.7c3.9-16.5,14-26.1,25.3-25.4c7.1,0.5,11.7,5.3,12.9,14.6c-5.3-9-11.4-13.7-21.4-9.4
		C414.7,606.2,411.3,613.9,406.5,622.7z"/>
	<path d="M465.6,625.3c2.8-9.9,8.6-17.5,17.7-22.3c7.8-4.1,19-0.8,24.6,7.2c-0.8-0.3-1.4-0.3-1.8-0.6c-15.9-8.1-28.4-4.4-37.4,11
		C467.7,622.2,466.6,623.7,465.6,625.3C465.6,625.2,465.6,625.3,465.6,625.3z"/>
	<path d="M85.3,616.6c0.2-5.2,9.5-12.8,17-13.8c10.2-1.4,23.7,8.9,27.6,20.9C117.3,607.3,104.6,598.2,85.3,616.6z"/>
	<path d="M80.3,638c-0.1-9-3.8-18.5,3.5-26.6C79.7,619.9,81.4,629.1,80.3,638z"/>
	<path d="M538.4,637c-4-5.1-6.3-8.7-8.1-15.4C534.4,627,536.8,630.7,538.4,637z"/>
</g>
</svg>
