<?xml version="1.0" encoding="utf-8"?>
<!-- Generator: Adobe Illustrator 24.2.3, SVG Export Plug-In . SVG Version: 6.00 Build 0)  -->
<svg version="1.1" id="Layer_1" xmlns="http://www.w3.org/2000/svg" xmlns:xlink="http://www.w3.org/1999/xlink" x="0px" y="0px"
	 viewBox="0 0 595.3 841.9" style="enable-background:new 0 0 595.3 841.9; fill: #215342;" xml:space="preserve"
	 height="380" width="500" transform="translate(-102, -68)">
<g>
	<path d="M375.7,510.4c3.3,3.6,6.7,7.2,10.2,11.1c-6.1,4.2-8.3,11-12,16.7c-2.4,3.7-2.2,8.3-2.1,12.7c0,1,0.6,1.5,1.7,1.6
		c1.3,0.1,2-0.4,2.4-1.6c1.3-4.8,2.6-9.7,4.2-16c0,4.8,0,8.1,0,11.4c0,3.2,0.1,6.3,4.9,5.4c-0.9-3-1.7-6.2,0-9.5
		c-1,3.9,1.8,6.7,2.7,10.9c1.9-3-0.4-5.2,0.6-7.7c0.9,2.3,1.6,4.4,3,8.2c0.2-6.2,2.3-10.2,3.6-14.7c0.3,0.9,0.5,1.7,0.9,3.4
		c1.6-5.1,5.6-7.5,6.8-12.2c1.1-4.6,5.9-6.7,10.9-9.7c-9.8,16.8-21.1,32-13.1,52.2c0.8-1.3,1.4-2.3,2.2-3.7c0.6,3.3-2.4,6.3,0.2,9.7
		c0.1-1.7,0.2-2.8,0.3-4.6c1.9,3.7-0.5,7.9,2.8,10.3c2.3-3.9,4.7-8,7.1-12c0.3,0.1,0.6,0.2,0.8,0.3c-0.7,2.4-1.4,4.8-2.5,8.4
		c2.9-3.8,3.4-8,7.1-9.9c4.4,4.2,2.8,9.9,3.5,16.1c9.3-13.6,10.3-29.8,17.4-44.7c1.7,6.9,1.5,12.4-1,17.5
		c-4.6,9.5-6.8,19.5-6.5,29.9c0.2,6.9,3.4,13.4,7.5,20.2c1.7-7.5,4-13.9,9.1-19.6c0,2.2,0,3.8,0,5.6c1.8-0.6,2.5-2.5,4.7-2.4
		c1.8,5,0.4,10,0,15.1c8.5-6.7,17.3-33.4,21.2-64.9c2.2,6.3,1.3,12,0.4,17.7c-1.2,8-2.4,16.1-4.7,23.9c-2.1,7.2-0.3,11.9,4.9,14.7
		c1.2-6.4,1.4-13.2,7.1-18.9c-2.2,7,3,13.4-1.8,19.2c-0.3-0.2,0.4-1.8-1-1.6c-0.4,0.1-0.9,0.4-1,0.8c-1.8,6.6-1.7,13.2-0.9,20
		c6.2-12.4,9.8-25.2,8-39.3c3.6,5.4,1,11.2,1.1,16.9c6.4-5.5,15.1-19.9,9.3-51.1c2.9,1.9,3,2.7,4,27.5c1.4-6.1,0.7-11.9,6.2-15.4
		c3.4,4.8,4.4,11,5.5,17.5c3.1-6.5,3-13.4,2.3-20.3c-1.6-16.1-10-26.4-25.9-30.4c-3.5-0.9-7-1.9-9.9-4.1c-11.1-8.3-25.1-9-37.6-13.3
		c-9.2-3.2-18.5,0.4-25.2,9.9c0.8-1.7,1.2-2.6,1.6-3.4c-0.3-0.2-0.5-0.4-0.6-0.3c-5,3.1-8.9,1.7-13.1-2.1
		c-6.4-5.8-14.1-9.9-22.2-12.9c-2.5-0.9-2.8-2.2-2.9-4.7c-0.4-7.1,2.7-8.9,9.1-7.3c1.2,0.3,2.6,0,4-0.7c-3.3-0.3-6.6-0.8-9.9-1
		c-1.9-0.1-2.5-1-2.6-2.7c-0.6-7.4-0.2-8.1,7.2-8.9c7.4-0.8,14.8-2.1,22.3-1.2c0.7,0.1,1.5-0.3,2.3-0.8c-7.8-0.5-15.5-0.6-23.1,0.7
		c-5.3,0.9-7.4,0.1-7.1-6.2c0.3-6.3,1-12.2,3.5-17.9c0.3-0.7,1-1.3,1.7-1.9c0.1-0.1,0.8,0.2,0.9,0.5c0.6,1.2-0.6,1.3-1.1,1.9
		c-0.6,0.8-1.1,1.8-0.6,2.8c6.3-1.4,9.5-6.7,14-10.5c5.2-4.5,8.7-9.6,10-16.8c2-11.3,4.6-22.4,4.2-34.1c-0.3-7.8-1.8-15.1-4-22.4
		c-0.6-1.9,1-1.6,1.6-2.4c-0.9-2.1-1.9-4.2-1.5-7.8c0.8,1.7,1.2,2.7,1.7,3.7c0.5-0.2,0.9-0.5,1.4-0.7c-0.5-5.2-1.1-10.4-1.7-15.8
		c0.9,0.7,1.8,1.3,4.1,3c-4.5-9.5-3.2-18.7-7.5-28.1c2.3,2.1,3.6,3.2,4.9,4.4c1.2-2,0.4-3.7-0.5-5.5c2.2-0.2,4,1.3,5.7,0.4
		c0.3,4.3,5.2,4,6.6,7.7c-2.9-1.3-5.3-2.4-9-4c3.4,4.5,6.4,7.1,10.3,8.7c3.8,1.5,7.1,3.8,9.4,8.7c-2.8-2.1-4.8-3.5-7.1-5.2
		c1.2,3.5,4.6,4.6,6.6,8.8c-2.9-2.6-4.7-4.2-6.5-5.8c5.1,9.9,11.8,18.8,14.8,29.6c-1,0-1.4-2.6-2.9-1.4c-1.2,0.9,0.1,2.4-0.2,3.6
		c-1.6,6.9,2.7,11.9,5.4,17.4c0.5,1.1,0.6,2.4,1.3,4.9c-2-3.6-3.4-6-5.1-9.1c-0.2,3.6,3.6,7.2-1,8.9c-5.3,8.9,1,16.8,1.5,25.5
		c-0.7-2.1-1.5-4.3-2.1-6.4c-0.7-2.3-1.1-4.7-1.7-7c-2.1-0.1-2.5,1.1-2.5,2.8c0,8.2-0.6,16.3-2.8,24.3c-0.5,1.7-4.5,1.8-1.7,4.5
		c-1.1,1.2-3.9,0.8-2.9,3.3c2.6,6.4-1.9,10.6-4.9,15c-2.1,3.1-3.4,6.4-5.9,11.2c4.4-3.5,7.5-6.1,10.6-8.5c3.2-2.5,6.4-4.9,9-8.2
		c2.2-2.8,2-7.6,7.2-8.8c1.4-4.1,0.6-9.1,0.6-14.2c4.8,6.9,3.3,21.3-3.3,25.8c-7.4,4.9-12.2,12.4-19.3,17.4
		c-1.3,0.9-2.2,2.4-5.4,2.5c3.6-3,6.4-5.3,9.2-7.6c-11.9,3.9-19.8,26.3-14,35.7c0.2-2.6,0.4-4.6,0.6-6.8c1.4,2,0.6,4.8,3.4,6.4
		c1-8.7-5.6-18,3-25.6c0.2,0.4,0.5,0.8,0.4,0.9c-5.3,7.7-3,16-1.7,24.2c0.5,3.2,2,4,4.4,1.9c1.7-1.4,3.5,0.8,5-0.5
		c-0.4-3.2-0.8-6.4-1.1-9.6c0.2,0,0.4-0.1,0.6-0.1c0.5,2.3,1,4.7,1.6,7c0.5,2.2,1.7,4.5,4,4.4c1.9-0.1,1.4-2.8,2.1-4.3
		c0.3-0.6,0.3-1.3,0.6-2.5c0.5,1,0.9,1.5,1.1,2c2.2,5.1,5.1,8.5,11.1,10.1c7.8,2,14.8,6.5,23.2,7.2c2.2,0.2,4.4,1.9,6.3,3.4
		c5.6,4.4,12.4,5.9,19,7.7c2.5,0.7,4.7-0.4,5.4-3.7c1.5-6.8-2.4-12.1-4.6-19.2c4.3,4.8,5,9.8,6.5,14.7c2.7-2.6,2.6-3.3-2.7-20.5
		c1.1,0.6,2.1,1.2,3.7,2c-0.3-3-0.5-5.5-0.7-7.5c7.3-2.6,1.4-6.2,0.4-9.9c2.3,2.5,4.5,3.5,7.2,3.8c0.7-4.3-2.7-7.6-3.5-12
		c1.6,2.1,2.9,3.8,4.2,5.4c0.9-0.3,0.6-2.2,2.1-1.3l-0.1-0.1c0.5,5.3,4.1,9.2,6.4,13.7c-1.8-2.3-4.2-3.5-7.4-4.6
		c1.9,4.4,3.7,8.4,5.7,12.9c-1.6-0.3-2.5-0.5-3.8-0.8c0.5,3.4,1.4,6.6,1.2,9.6c-0.2,3.2,1,6.1,1.5,9.2c0.7-4.6,1.4-9.3,2.1-14.2
		c1.9,1.3,1.9,3.2,1.7,4.9c-0.8,6.6-1.7,13.3-4.7,19.4c-1,2.1-3.4,3.5-5.3,5.1c-1.4,1.3-1.7,2.5-0.5,4.2c3,4.1,4.9,8.8,5.9,13.8
		c0.5,2.6,1.7,3.4,4.3,3.3c18.3-0.1,36.6-0.1,55,0c1.5,0,3.9-1,3.9,1.9c0,3-2.4,2-3.9,2c-18.4,0.1-36.8,0-55.2,0.1
		c-1.1,0-2.9-0.7-3,1.7c-0.1,2.2,1.6,1.7,2.8,1.9c-0.8,0.7-2.7,0.2-2.5,1.8c0.2,1.7,2,1.3,3.1,1.3c4.1,0.1,8.1,0,12.2,0.9
		c-4.3,0-8.7,0-13,0c-1.1,0-2.6-0.3-2.6,1.5c0,1.6,1.5,1.2,2.5,1.3c3.8,0.3,7.5,0.4,11.3,0.8c-0.9,0-1.9,0-2.8,0
		c-12.3,0-12.2,0.4-15.7,12.4c-1.2,4.2-1.6,8.6-3.5,12.6c-0.6,1.2-1,2.9-2.5,2.9c-1.7,0.1-1.8-1.7-2.3-3c-1-2.6-1.7-5.3-2.9-7.9
		c-1-2.1-2.5-2.1-3.5,0.1c-2.6,5.8-5.5,11.2-10.2,15.7c-2.2,2.2-1.8,5.6-2.9,8.4c-1.3,3.2-2.4,6.5-3.8,9.7c-0.6,1.4-1.5,3-3.4,2.6
		c-1.9-0.4-2-2.3-2-3.8c0-3.6-0.1-7.2,0.6-10.7c0.8-4.3-1.2-5.4-5-5.5c-0.1,1-0.2,1.9-0.2,2.8c-0.8,0.2-1.5,0.4-2.3,0.6
		c-0.9-2.1-1.8-4.1-2.8-6.5c-3.2,5-6,9.5-8.9,14.1c-0.2-0.1-0.4-0.2-0.6-0.3c0.8-1.5,1.6-3,3.2-6c-4.9,4.5-7.2,8.6-8.7,13.2
		c-1.2,3.7-2.8,7.3-5.4,10.2c-2.2,2.5-3.8,1.7-4.7-1.2c-0.2-0.7-0.5-1.6-0.4-2.3c1.6-8.1-1.4-14.6-6.6-20.5c-3-3.4-1.9-8.2-3.8-12.6
		c-1.2,3.6-0.4,6.6,0.5,10.9c-1.8-2.9-2.4-4.8-2.6-6.9c-0.1-0.6,0.7-1.7-0.9-1.9c-1.6-0.2-1.3,0.9-1.8,1.6c-0.8,1.1,0.7,3.3-1.9,3.7
		c-1.9-3.2,3.4-5.3,0.9-8.7c-0.5,0.9-0.9,1.7-1.3,2.4c-0.5-2.4-1.5-1.6-2.2-0.2c-2,4-3.7,8.1-5.8,12c-1.5,2.8-2.9,7.3-6.3,6.5
		c-3.8-0.9-2.5-5.6-1.9-8.4c1.8-8.5,1.9-15.9-5.6-22.4c-3.6-3.1-4.5-8.9-5.8-13.8c-2,0-2,0-1.5,7.8c-3.9-16.7-16.6-8.8-26-11.8
		c6.8,0,12.9,0,19,0c1.4,0,3.7-0.7,3.2-1.9c-0.7-1.7,1.7-5.1-3-5c-16.9,0.3-33.9,0.1-50.8,0.1c-0.9,0-1.8,0-2.6,0.4
		c-14.5,7.3-29.9,4.2-45.1,3.9c-10.7-0.2-21.5-0.4-32.2-0.6c-0.5,0-1.1-0.2-1.6-1c4.5,0,9.1,0,13.6,0c0.1-2.5-1.4-2.3-2.6-2.3
		c-16.7-0.1-33.3-0.1-50-0.2c-3.9,0-2.4,3.1-2.8,4.8c-0.5,1.9,1.7,1.3,2.8,1.3c20.2,0.1,40.5-0.4,60.7,0.6
		c12.6,0.6,25.2,0.9,37.6,2.1c6.1,0.6,12.4,0.3,18.4,2.2c-25.8-2.1-51.7-1.5-77.5-3.4c-13.5-1-27.1-0.1-40.7-0.1
		c-0.9,0-2.1-0.2-2.1,1.3c0,1.2,1.2,1,2,1.2c0.5,0.1,1,0.1,1.4,0.1c22.2-0.5,44.2,3.1,66.4,3.1c6.5,0,13.1,1.4,19.6,2.3
		c-21.2-1.8-42.4-2.5-63.6-3.5c-8-0.4-16.1-0.5-24.1-0.8c-1.8-0.1-2.6,0.7-3,2.3c-2.1,7-5.7,13.1-11.6,17.5
		c-1.1,0.8-0.7,1.9-0.7,2.9c0,4.6,0.1,9.3-0.1,13.9c0,1.2,0,2.8-1.5,3.2c-1.5,0.4-2.5-0.8-3.4-1.8c-3.5-3.8-5-8.5-6.2-13.3
		c-0.5-2.3-1.4-3-3.6-2c-0.5,0.2-1.1,0.5-1.7,0.5c-7.2-1.1-9.7,3.8-12.5,9.1c-2.2,4.2-4.9,8.3-9.9,8.3c0,6.2,0,12,0,17.7
		c0,1.3-0.1,2.7-1.6,3.1c-1.4,0.4-2.8,0.1-3.7-1.1c-1.5-2.1-3.7-4.2-4.1-6.6c-2.1-11.3-11.3-19.2-13.9-30.1
		c-3.7,1.6-2.9,6.3-5.3,8.1c-6,4.3-6,10.1-5.5,16.3c0.1,1,0.2,2.6-1.2,3.1c-1.5,0.6-2.5-0.6-3.5-1.6c-2.8-2.6-4.6-5.9-5.3-9.5
		c-0.7-4-3.1-6.3-6-8.7c-6.9-5.9-11.7-13.4-14.6-22c1.6,3.1,3.3,6.1,4.9,9.2c0.3-0.1,0.5-0.3,0.8-0.4c-1.4-5-2.7-9.9-4.1-15.1
		c-0.9,0.2-1.9,0.3-3.2,0.6c1.1-0.9,2.5-1.3,2.4-3c-2.8-1.5-6.1-0.3-9.1-1.3c0.9-1.5,2.6,0,4.4-1.9c-11.5-1.9-22.5-0.3-33.3-2.1
		c10.1,0,20.1,0,30.2,0c0.7,0,1.6,0.5,2.1-0.5c0.5-1.1-0.4-1.6-1.8-3.1c3.1,0.5,2.1,2.7,3.2,3.7c0.8-0.1,1.9-0.1,3-0.2
		c0.3-2.2-1.9-1.1-2.3-2.4c0.4-0.8,1.6-1.6,0.8-2.8c-0.8-1-2-0.9-3.2-0.9c-22.9-1.2-45.9,0.1-68.8-0.4c-1.2,0-2.9,0.4-3-1.8
		c-0.1-2.3,1.6-2.1,3-2.1c22.5,0,45,0,67.5,0.1c2.9,0,4.2-0.6,4-3.8c-0.9-13.5,6-22.1,17.6-27.6c4.8-2.3,6.6-4.7,3-9.6
		c-1.9-2.5-2.1-7.1-4.4-8.3c-5.2-2.7-6.4-8.5-11.2-11.4c0,3.6,0,7.1,0,10.5c-3.3-8.7-5.4-17.7-7.5-26.7c0,1.8,0,3.6,0,5.4
		c-2.3-7-1.9-14.3-2.4-21.9c-0.8,0.7-1.3,1.1-2.2,1.9c0.2-2.5,0.3-4.4,0.5-6.3c-0.2,0-0.4-0.1-0.6-0.1c-0.4,1.4-0.9,2.9-1.7,5.4
		c0.2-9.2,3-16.6,5.1-24.2c-3.7,4.7-5,10.2-6,15.9c0.1-8.4,3.1-15.9,7.4-24.3c-2.3,2.1-3.7,3.5-6.4,6c4.2-5.9,7.3-10.4,11.3-16
		c-2.2,1.1-3,1.4-5.2,2.5c2.9-2.4,4.7-3.9,6.4-5.3c-0.3-0.3-0.6-0.7-0.8-1c-1,0.5-2,1.1-3,1.6c21.4-15.4,29.4-40.6,44.7-60.9
		c-3.6,1.8-6.9,3.5-10.2,5.2c-0.1-0.1-0.1-0.2-0.2-0.3c5.6-4.4,11.2-8.9,16.8-13.3c-0.2-0.3-0.4-0.6-0.6-0.8
		c-2.3,1.3-4.6,2.7-7.6,4.5c5.8-6.5,13.1-10.1,18.5-17.7c-2.9,2-4.7,3.3-6.5,4.5c11.5-9.2,17-23.2,26.9-33.7c1.5-1.1,3-2.3,5.2-3.9
		c-1.6,0.1-2.2,0.2-4.1,0.3c4.2-2.9,7.6-5.3,12.4-8.6c-3.1,0.8-4.6,1.2-6.2,1.6c5.2-4.4,10.4-8.6,18.1-10.4c-2.8-1.6-4.9-2.7-8-4.4
		c3.2,0.4,5.4,0.6,8.1,0.9c-1.8-1.6-3.8-1.4-6.5-2.2c4.3-0.5,7.5,0.3,10.3,1.9c2.8,1.7,5,1,7.5-0.5c11.7-7,22.7-15.1,34.9-21.4
		c14.3-7.4,62.8-9.3,71.8-9.7c37.1-1.7,64.9,15.5,87.3,43.2c3.2,4,5.4,5.4,9.5,1.3c2.4-2.3,5.4-4,9.4-5.4c-2.2,2-3.9,3.5-5.6,5.1
		c3.7-1.5,6.9-3.8,11.2-4.5c-2.2,2.4-5.7,2.5-7.1,5.4c-0.5,1.1-3.1,1.4-2,2.9c1.2,1.6,2.8,3.3,5.3,3.2c0.6,0,1.1-0.2,1.2-0.2
		c1.5,6.4,6.4,2.9,10.3,3.6c-2.3,0.4-1.1,3.6-3.9,3c3.8,8.2,11.3,12.7,17,19.7c-7.1-3.7-13-7.5-17.1-14.2c-2.2-3.6-5.8-7-10.7-8.5
		c-4.7-1.4-4.6-1.8-6.5,2.1c1.1,1.8,3.8,0.4,5,2.6c-2.9,1.6-5.6,0.8-8.3-0.3c-2-0.8-0.9-2.4-0.8-3.2c-7-4,0.8-4.6,1.1-6.8
		c-0.1-0.1-0.3-0.3-0.3-0.3c-4.4,4.3-7,1.9-9.6-2.3c-4.2-6.8-11.1-10.9-17.5-15.6c1.4,0.6,2.7,1.2,4.4,1.9c-0.2-2.1-1.6-2.9-2.7-3.8
		c-18.7-16.5-39.8-26.8-65.5-26.3c-10.4,0.2-19.1,5.1-29.6,4.2c-30.5,2.5-28.5-3.2-40.7,3.3c-3.8,2.1-7.7,4.1-13,7
		c4.3-0.4,6.9-0.7,11.1-1.1c-2.7,1.2-3.9,1.8-5.6,2.6c1.1,0.5,1.9,0.8,3.3,1.5c-5.1,2.9-10.8,2.7-15.3,5.9c1.3,0.9,2.7-0.5,3.9,1.2
		c-4.1,2.1-8.1,4.1-12.9,6.6c2.7,0,4.3,0,6.2,0c-0.7,0.8-1.3,1.4-2.2,2.5c2-0.2,3.5-0.3,5.5-0.4c-0.8,4-4.6,2.9-6.8,4.8
		c3.1,0.6,0.1,1.7,0.4,2.7c1.4,1.4,2.8-0.8,4.7,0.1c-2.4,1.4-4.6,2.6-7.3,4.1c1.2,0.1,1.9,0.2,2.7,0.3c-0.4,2-1.9,2.9-2.9,4.1
		c-0.3,1.3,1.4,0.4,1.5,1.7c-5,1.3-2.6,8.9-8.7,9.6c1.2,1.3,2,2.2,3.1,3.4c-3.6,2.5-9.8,2.9-7.6,9.6c2.1-0.4,4.1-0.7,6.8-1.2
		c-2.4,2.7-5.4,2.9-8.2,4.5c2.9,0.8,1.9,2.9,1.1,3.5c-3.1,2.2-3.2,6-5.5,8.9c-5.7,7-8.2,15.8-9.3,24.8c-0.6,5.2-0.3,10.6,0,15.9
		c0.7,11,7,19.7,9.4,29.8c0.4,1.5,1.3,3.4,4.1,1.9c-0.5,1.2-0.9,1.9-1.3,2.9c1.8-0.2,2.5-2.2,4.4-1.8c-0.9,1-1.8,1.8-3.2,3.4
		c1.5-0.7,2.2-0.9,3.2-1.4c-0.3,0.8-0.5,1.3-0.7,1.9c6.3,0.8,12.6,3.1,19.2,1.7c-1.4,2.4-0.8,4.8,2.4,6.7c1.2,0.7-0.3,2.4-1,3.6
		c-1,1.8-2.9,3.1-2.2,7.1c7.5-9.6,10.6-21.2,20.8-27.5c0,0.6-0.1,1.1-0.1,1.7c1.2,0.2,1.9-1.9,3.8,0.4c-15.7,10.4-18,26.8-19.2,43.8
		c-0.6,0.9-1.2,1.7-1.8,2.6c-0.5,0.8-0.8,1.7-1.4,2.8c0.9-0.1,1.5-0.2,2.2-0.3c-0.7,1.4-1.3,2.7-2.4,4.7c1.3-0.9,1.8-1.3,2.6-1.7
		c-0.4,3.8-2.9,6.3-5.4,9.7c1.7-0.6,2.6-0.9,4.3-1.5c-3,3.3-3.2,7.3-5.4,10c-2.6,3.3-6.4,0.7-9.7,0.5c-7.1-0.4-14.2-0.4-21.3,0.5
		c8.5,0.6,17,1.2,25.5,1.6c3.3,0.2,5,1.1,4.6,4.8c-0.8,6.2,3,12.1,1.3,18.4c-0.9,3.3-2.2,5.3-6,3.7c-7-2.9-13.5-6.5-19.8-11.1
		c-8.3-6.2-18.2-9.1-29-8.9c2.9-1.2,5.7-1.3,8.5-0.9c2.7,0.4,5.4,1.2,8.3,1.8c-3.9-4.7-15.4-5.8-21.9-1.9c-5.1,3-9.6,6.9-14.7,9.9
		c-16.3,9.8-32.7,19.3-49,29c-7.4,4.4-11.4,12.3-10,20.3c0.7,3.7,1.9,7.3,2.8,10.9c5.9-5.5,2.6-16.2,12-22c-2.3,6.2-4,11-5.9,16.1
		c0.9-0.2,1.6-0.4,2.8-0.7c-3.8,7.6-4.3,15.3-4,24.2c1-1.9,1.4-2.8,2.2-4.1c-0.9,10,3.2,18.1,6.5,26.5c0.3-6,0.9-11.7,2.2-17.3
		c0.1-0.6,0.4-1.6,0.8-1.7c1-0.3,1.8-0.3,2.9,0.8c5.1,5.4,7.5,11.6,6.9,19c-0.1,1-0.1,2.2,0.9,2.9c4.8-1.8,7.7-19.4,4.8-27.3
		c-0.7-1.8-1.4-0.7-2.6-0.2c0.2-2.2,0.3-4.2,0.6-7.2c-1,1.8-1.4,2.7-1.9,3.6c2-13.2-1.3-27.5,8.6-40c0.6,3.6-0.5,5.9-1.3,8.2
		c-2.1,6.4-1.8,13-1.1,19.6c0.1,1.3,0.2,2.9,1.9,1.6c0.6,15.1,4.5,29.4,10.7,43.3c0-6.3,1.7-12.3,2.5-19.7c0.6,3.7,1.6,6,1.1,8.9
		c-1.8,11.1-0.9,22,5,32c0.8,1.4,1.5,3.2,3.6,3.4c2.2-5.9,0-20.5-5.1-38.1c3.4,5.6,6.7,11.1,10.4,17.2c7-7.4,10.4-16.1,8.8-27.2
		c0.5,0.8,0.7,1.1,0.8,1.4c0.2,0.3,0.3,0.6,0.7,1.6c2.3-7.7,2.8-14.8,1.8-22.2c-1-7.1-5-13.7-2.7-21.4c1.8,7.9,3.4,15.8,5.6,23.6
		c2.2,8.1-2.8,16.1-0.3,24.9c0.5-1.1,0.7-1.5,0.8-1.8c1,0.7,0.4,3.2,2.3,2.5c1.9-0.7,0.1-2.2,0.1-3.3c0-1.3-1.4-2.4-0.3-4.1
		c0.9,2.1,1.7,4,2.5,5.9c0.3,0.7,0.7,1.4,1.7,1.2c1.2-0.2,0.8-1.1,0.7-1.8c-0.3-2.4-0.5-4.8-0.8-7.6c0.5,0.6,0.8,1,1.1,1.4
		c1.2-4.3,2.4-8.5,3.5-12.7c8.2,3.9,8.8,11.4,10,19.5c4.6-4.9,7.1-10,8.8-15.4c3.6-10.9,4.6-22-0.2-32.9c-2.6-5.9-1.6-12.4-2.9-18.6
		c-0.7-3.6-1.5-7-4.2-9.6c4.4,2.9,6.9,7.1,6.9,12.2c0,8.7,0.7,17.1,5.9,24.8c2-2.6,2.1-5.9,2.4-9.5c3.1,4.8,1.8,9.5,0.8,14.1
		c8.6,1.2,11.4,0.6,12.1-3c0.5,1,0.9,1.9,1.6,3.3c0.4-1.3,0.6-2.1,0.9-3.3c0.6,1.1,1,1.9,1.6,3.1c0.4-1.4,0.7-2.4,1.2-3.9
		c0.7,2.3,0.8,4.6,3.9,4c1.9-0.4,1.6-1.7,1.6-2.8c0.1-2.1,0-4.2,0.5-6.5c0.5,2.1,1,4.2,1.5,6.3c2.2-6.7,0.5-13.1-1.6-19.2
		c-2.2-6.4-5.8-12.1-10.5-16.9c-2.3-2.4-1.7-3.6,1.1-5c3.7,4.6,6.1,10,8.6,15.3c3,6.4,10.2,5.1,14.6,8.8c-1.9-2.1-3.8-4.1-5.7-6.2
		c16.4,10.6,31.5,3.2,46.7-2.8c1.6-0.6,1.5-1.8,1.4-3.1c-0.4-4.9-1-9.8-1.4-14.7c-0.1-1.6-0.9-2.4-2.4-2.8c-4.9-1.4-9-4.2-12.9-7.6
		c-2.6-2.2-6.9-1.5-9.4-4.8c-3.2-4.2-8-7.6-10.2-12.2c-4.7-10-13.8-18.4-10.5-31.4c3.6-14.1,18.1-26.1,30.3-23.8
		c-18.5,6.8-20.7,8.1-24.4,14.7c3.5,0.9,5.1-7.7,10.5-1.9c0.8-0.1,2-2.1,4.3-0.9c-2,3.2-6,3-8.9,5.2c3.3,1,6.1-0.8,9.3-0.6
		c-0.2,1.1-0.2,2-0.4,2.9c-1.2,4.1,0.9,5.6,4.5,5.9c1.6,0.1,3.3-0.2,4.9,0.1c2.4,0.4,6.7-1.1,4.5,5.1c3.7-7.6,6.9,3.4,10.3-0.8
		c-0.6,1.9-1.1,3.9-1.8,6.2c2.5-0.9,1.6-4.3,4.1-4c0.5,0,1.2,1.1,1.2,1.7c0.2,2.1,0.1,4.2,0.1,6.9c2.1-2.3,0.8-6.4,3-6.3
		c2.2,0.1,4.8-1.1,7,0.6l0.1-0.1c-3.2,5.4-3,11.7-5,17.5c-1.1,3.2,1.2,6.2,4.7,7.8c10,4.6,19.1,2.8,27.6-4
		c-6.1,5.1-10.9,11.4-17,16.3c-5,4.1-10.3,7.8-16.4,10.3c-2.5,1.1-1.6,19,1,19.9c10.3,3.5,20.4,8.1,31.5,8.8
		c0.9,0.1,1.8,0.2,2.7,0.8c-3.9,1.9-8.2,2-12.1,1.7c-6.9-0.5-13.7-2.2-20.1-5c-1.1-0.5-3.5-1.8-3.6,1.6c-0.4-0.3-1-0.7-1.7-1.2
		c-1.2,2.9-3,1.5-4.8,0.5c-0.4,2.2-2.3,2.5-3.7,2c-2.9-1-6.2,3.2-8.9-0.6c-0.2-0.3-1.5,0.1-2.2,0.3c-4.8,1-9.6,1.2-14.4,1.1
		c-1.9-0.1-4.2-1.7-5.7,1c-1.6,2.8,1.1,4.5,2.3,5.6c4.4,4,8.9,8.4,14.3,10.8c7.9,3.5,16.2,5.7,25.3,5.6c8.1-0.1,16.3,0.4,23.8-2.1
		c6.9-2.2,13.5-6.3,19-11.6c3-2.9,5.7-6,8.7-8.9c1.3-1.2,1.6-2.5,1.2-4.5c-4.5,1-8.5,3.6-14.9,3.5c10-4.2,18.3-8.4,26.2-16.2
		c-1.4,2.7-2,3.9-2.6,5c0.2,0.1,0.3,0.2,0.5,0.3c1.7-1.8,3.3-3.6,5.3-5.8c2.1,2.5,4,4.8,5.9,7c0.2-0.1,0.4-0.2,0.6-0.3
		c-0.7-1-1.1-2.3-2-3.1c-3.6-3.6-2.9-7-0.1-10.7C373.4,509.3,374.4,509.1,375.7,510.4C375.8,510.5,375.7,510.4,375.7,510.4z
		 M153.6,440.4c3.5-8.2,4.2-16.5,0-24.5c0.1-0.1-0.4,0.2-1,0.7c-0.1-1.4-0.2-2.5-0.3-3.7c-2.4,1.1-2.4,3.8-4.3,5.3
		c-0.4-1.1-0.6-2.1-1-3.1c-2.2,0.9-1.5,4-4.4,4.5c0.4-2,0.7-3.9,1.3-7.3c-1.5,3.8-3.1,5.5-5.7,6.9c0.5-4.1,1.1-7.9,1.7-12.7
		c-1.2,1.7-1.9,2.6-3.5,4.8c0.9-4.3,1.5-7,2.3-10.8c-2.2,2.7-3.8,4.6-5.5,6.6c-0.1-6.8,2.7-12.6,3.8-18.9c-6,5-9.8,11.5-15.4,18.2
		c3.4-9,11-13.7,13.8-21.6c-2.9-0.1-2.9-0.3-2-2.8c1-2.8,4.2-5,2.8-8.6c-0.5,0.1-1,0.2-1.8,0.3c2.1-2.9,4.5-5.3,5.2-9.8
		c-7.2,4.9-11,11.2-15.7,17.6c1.8,0,2.8,0,3.7,0c-5.3,11.1-12.9,21-16.7,34.3c1.7-2,2.5-2.8,3.8-4.4c-1.2,3.7-2.1,6.6-3.2,9.9
		c3-2.5,2.4-6.6,6.4-8.7c-2.3,5.8-4.3,11-6.5,16.8c2.9-1.4,2.5-4.6,5.6-5.3c-0.6,4.8-1.1,9.2-1.7,13.7c1.5,0.2,1.9-2.1,3.2-0.9
		c1,0.9,0.4,2.2,0,3.3c-4.1,10.3-0.4,20.9-0.8,31.3c0,0,0.1,0.1,0.6,0.4c0.5-3,1-5.8,1.5-8.6c0.5,4.2-0.1,8.4,0.7,12.5
		c0.4,2.1,2.1,2.6,3.4,2.5c1.7-0.1,1.6-1.8,1.4-3.2c-0.2-1.8-0.3-3.5-0.5-5.3c1.8,2.7,1,6,3.5,9.9c0-4.4,0-7.5,0-10.6
		c0.9,3.1,3.3,5.5,2.9,8.8c0.3-0.7,0.5-1.4,1-2.8c0.7,3.5,1.2,6.3,1.9,9.6c4.9-2.3,2.4-6.5,3.4-9.6c0.2,0.4,0.4,0.7,0.5,1
		c3.4-5.2,1.7-10.9,1-17.8c2.9,6,1.7,11.5,3.4,17.7c1.6-7.8-0.2-13.9-1.3-20.1c0.7,1.6,1.4,3.2,2,4.8c0-5.4-2.1-10.5-0.4-16.4
		c0.3,3.4,0.5,6.3,0.8,9.1c0.7-4.5,0-9.2,2-13.5c0,4.7-0.6,9.3,0.1,14c2-3.3-0.9-9.4,5.8-9.9C152.5,443.3,151.2,440.3,153.6,440.4z
		 M175.6,326.3c-4.6,8.3-3.8,18.4-9.9,26.7c2.3-1.3,2.9-3.3,5.1-3.3c-0.7,2.2-3.1,3.2-3.3,5.6c0.6-0.2,1-0.3,1.7-0.5
		c-0.8,1.6-1.5,2.9-2,4.2c-0.5,1.4-0.9,2.9-1.3,4.3c0.5-0.1,1-0.1,1.5-0.2c-1.7,15.7,0.6,31,8.3,44.2c13.5,23.2,25.5,36.8,29.8,36.7
		c-2.5-4.7-7-7.7-10-11.9c2.4,2.1,4.8,4.2,7.1,6.4c-0.4-2.7,0-4.7,2.1-6.6c-4.5-1.5-0.2-4.7-1.9-6.8c-6.9-8.6-6.5-20.8-14.2-28.9
		c-0.2,0.3-0.5,0.8-1.1,1.9c-0.1-14.4-8.6-25.9-9.3-39.4c-0.2-1.5,0.6-3.1,0.7-4.8c1.4-14.3,5.4-27.6,14.7-39.1
		c3-3.7,8.2-6,8.4-12.1c0.1-3.1,2.8-5.9,4-9c2.1-5.4,0.6-9.8-3.9-10.3c3.5,1.9,0.3,4.6,1.4,6.4c0.6,1,1.2,1.8,0.6,2.7
		c-0.8,1.2-2.1,1.2-3.4,0.8c-3.7-0.9-6.6,0.7-8.3,3.7c-2.8,4.7-5.3,9.4-9.4,13.4c-2.3,2.2-5.7,3-6.3,7.5c-0.5,3.6-1.5,8.1-4.6,11.1
		C173.3,328.2,174.5,327.3,175.6,326.3z M408.1,610.9c6.5-3.7,14.3-30.7,10.6-37C411.3,580.3,404.3,604.7,408.1,610.9z M195.5,606.3
		c1.7-12.6-0.7-24.1-6.8-35.9c-2,11.4-2.2,21.6,3.2,31.7c0.4-0.8,0.6-1.2,0.9-1.6C193.4,602.5,193.1,604.7,195.5,606.3z
		 M117.2,603.2c-0.7,0.4-1.8-0.3-1.8,1.2c0,3.1,5.1,12.2,8,13.1c-1-12-3.8-23.4-6.6-35.7C114.2,586.6,114.4,593.2,117.2,603.2z
		 M450.8,597.5c-2.9,2.3-9.6,29-8.1,31.9C448.6,623.6,453.8,603.1,450.8,597.5z M363,539.5c0.4,2.5,0.7,4.7,1.1,7
		c-0.3,0.1-0.5,0.1-0.8,0.2c-1.9-3.4-3.8-6.8-5.8-10.3c-0.3,4.7,1.6,9.1,2.5,14.4c-1.1-1.9-1.8-3-2.7-4.5c-0.6,2.4-1.3,5,0.8,5.7
		c3,0.9,7.6,2.1,9.3-0.5c2-3.1,1.9-7.7,2.7-11.6C367.1,546.2,365.4,539.4,363,539.5z M504.8,563.8c-2.1,2.9-0.8,26.3,1.5,29.5
		C509.3,583.2,509.6,573.6,504.8,563.8z M284.5,482.1c2.2-1.3,3.1-3.2,3.7-5.1c0.3-0.8,0.1-1.6-0.7-2c-0.4-0.2-1.3-0.2-1.6,0.1
		c-2.9,2.9-6.8,3.3-10.4,4.3c-1.9,0.6-4,1.5-5-1.3c-0.1-0.3-1.2-0.6-1.5-0.4c-0.5,0.3-1,1-1,1.5c0.3,4.1,4.6,3.1,6.6,5.1
		c0.7,0.7,1.4,0.5,2.1,0c2.3-1.7,4.5-3.4,6.9-5.3C283.9,480.1,284.1,480.9,284.5,482.1z M251.4,542.7c-2.2,2.1,0,7.6,3.3,9.5
		C254.5,548.7,252.6,546.1,251.4,542.7z"/>
	<path d="M251.2,394.9c-1.8-3.2-1.5-6.1-0.2-9.6c1.3-3.5,0.1-5.9-4.5-4.4c-4.5,1.4-9.2,2.3-13.8,3.3c-1.4,0.3-1.7,1.3-2.3,2.3
		c-2.2,3.6-4,7.5-9.6,4.5c-2.5-1.3-5.7-1.5-7.9-3.8c-2.7-2.8-4,0.2-5.7,1.8c-0.5-1.6,0.2-2.3,0.9-2.9c2.3-1.8,1.4-3.2-0.4-4.6
		c-5.1-4-5.6-8-1.5-13c-3.2-3.9-5.8,1.1-9.2,0.5c1.2-1.6,2-3.3,3.3-4.4c3.5-2.8,4.3-7.3,5.8-11c1.4-3.5-2.5-1.7-4.4-1.8
		c0.8-1.8,1.9-3.2,2.2-4.8c1.8-8.2,8.2-10.7,15.2-12.7c1.4-0.4,2.6-1.6,3.9-2.4c6.4-4.1,13.2-5,20.6-1.5c-2.2-4.5-9.6-5.1-15.4-2.9
		c-5.4,2-10.1,5.3-15.5,7.6c1.5-3.1,4-4.7,7.6-6.2c-3-0.7-4.2,0.8-6.8,1.8c4.4-4.2,8.9-4.9,13.3-6.2c-4.1,0.7-8.2,1.3-12.3,2
		c0-0.1,0-0.2-0.1-0.3c3.7-1.4,7.4-2.7,11.1-4.1c-0.8-0.2-1.6-0.5-2.9-0.8c3.1-1.8,6-0.8,8.8-1.6c-1.9-0.4-3.7-0.8-5.8-1.2
		c4.6-2.9,9.1-5.6,13.5-8.4c4.5-2.9,7.2,1.5,10.9,2.6c-0.2-3.3-3-4.6-5-6.8c1.3-0.1,2.9,1.6,3.3-0.7c6.8,4.6,8.8,13.1,14.4,18.9
		c-2.6,4,5,6.4,2.2,11.2c-0.3-1.3-0.5-2.3-0.7-3.3c-0.1,0-0.3,0-0.4,0c0,1.9,0,3.7,0,5.4c-1.6,0.8-1.4-1.1-2.5-1
		c-0.4,0.9-0.8,1.9-1.4,3.5c-2.9-6.1-8.5-6.6-14.6-9.2c5,6.7,9.1,12.3,13.3,17.8c0.2-0.1,0.4-0.2,0.5-0.2c-1.3-3.2-2.6-6.4-4.5-11
		c6.1,6.6,7,13.8,8,21.1c2.2-1.3,1.8-2.7,1.4-3.9c-1.3-3.3,0.2-6.5,0.2-9.7c0-1.2,1.2-2,2.3-1.3c1.7,1.1,3.3,2.3,2.7,4.9
		c-2,8.6-4.1,17.2-5.9,25.9c-0.8,3.7-3.9,7.7-6.3,11.4C255.1,388.5,254.9,392.9,251.2,394.9C251.1,394.9,251.2,394.9,251.2,394.9z
		 M232.9,365.8c-6.2-1.9-10.7-5.8-13.7-12.1c-0.7,7.7,3.7,14,11.2,17.2c6.1,2.5,14.7,0.9,18.5-3.8c1.3-1.6,3.6-3.7,2-5.7
		c-2-2.5-4.3-0.5-6.6,0.8c-2,1.2-1.3,3.2-2.4,5c-0.6-0.9-1-1.5-1.5-2.4C238,366.5,235.2,365.7,232.9,365.8z M217.4,372.5
		c3.2,7.6,13.6,11.1,22.3,7.6c3.9-1.6,7.7-3.7,12.2-2.3c0.9,0.3,1.7-0.1,2-1.1c0.2-1-0.5-1.3-1.3-1.7c-3-1.5-5.9-0.5-8.6,0.8
		c-8.3,3.9-15.9,2.6-23.3-2.3C219.8,372.9,219.1,371.8,217.4,372.5z M251.9,349.4c-0.2-3.4-2.2-6-6-6c-3.5-0.1-6.3,2-6.2,5.9
		c0.1,4,3,5.6,6.7,5.6C249.8,354.9,251.7,353.3,251.9,349.4z M236.6,375.5c-14-2.2-20.7-10.6-21-25.2c-2.7,6.8-2.4,12.5,2.1,17.3
		C222.7,373,228.6,376.7,236.6,375.5z M247,371.9c6.1,1.2,8.5-2.6,7.8-11.4C252.9,364.9,251.9,369.4,247,371.9z"/>
	<path d="M350.4,342.6c-1.1,3.8-1.8,6.2-2.5,8.5c7.6-15.1,18.5-22.4,35.5-15.2c-0.2,0.1-0.6,0.3-0.8,0.4c1.4,2.8,4.3,2.6,7.9,3.2
		c-2,0.6-3,0.9-5.1,1.5c4.4,1.1,5.7,5,8,5.8c1.2,5.8,1.7,11.3,3.5,16.2c2.1,5.6,7.7,8.9,10.6,14.4c-1.9-1.2-3.8-2.4-5.7-3.6
		c-1-0.6-2.1-2-3.3-0.9c-1.2,1.2,0,2.5,0.6,3.6c0.4,0.7,0.8,1.5,0.8,2.5c-1.1-1.3-2.2-2.7-3.4-4c-0.2,0.1-0.4,0.2-0.6,0.4
		c1.2,1.8,2.4,3.6,3.6,5.4c-0.1,0.1-0.3,0.3-0.4,0.4c-1.4-1.6-2.7-3.1-4.3-4.9c-0.8,2,1.2,2.5,1.1,4c-1-0.7-1.8-1.4-2.6-2
		c-1.5,0.8-0.5,1.8-0.3,2.6c-3.6-1-4.8,2.4-6.7,3.9c-6.4,5.1-14.7,6.2-22,2.4c-7.9-4.1-8.9-4.4-14.2-3c0.2,0.9,0.5,1.7,0.7,2.7
		c-1.4,0.2-1.8-2.8-3.5-1.4c-1.1,0.9,0.2,1.9,0.5,2.8c-3.3-1.6-6.1-3.3-5.5-7.7c0.3-1.7-1.9-1.1-3.4-1.7c0.4-9.1-1.7-18.5,2.9-27.7
		c0.9,5.6-2.3,10.5-0.6,17.3C344.3,359.6,343.7,350.7,350.4,342.6z M377.8,381.4c-7.2,1.3-14.2,0.6-20.8-2.8c-2.8-1.4-5.9-2-8.7,0.5
		c1,1.6,2.2,1.6,3.3,1.6c3.5,0.1,6.9,0.9,10,2.7c4.2,2.4,8.7,2.8,13.5,2.2C377.6,385.2,379.1,384.2,377.8,381.4
		c0.5,0.6,1.1,1.2,1.7,1.9c11.7-6.8,16.6-14.9,11.8-20.7c1.3,5.3-0.9,8.9-4,12.2C384.5,377.6,381.2,379.5,377.8,381.4z M368.3,371
		c0.5-1.1,0.4-2.3-2.3-2.1c-3.5,0.3-7,0.2-9.1-3.5c-0.8-1.4-2-3.2-3.8-1.7c-1.6,1.3-0.5,3,0.3,4.4c5.3,9.2,18.5,11.2,26.2,3.8
		c3.6-3.4,6.3-7.4,5.3-13.6C379.1,363.1,374.4,368.3,368.3,371z M378.3,360.3c2.9-0.2,5-2.5,5-6c0-3.5-1.5-6.8-5.8-7
		c-4-0.2-7,1.9-7,6.1C370.5,357.5,373,360.1,378.3,360.3z M364.1,378.7c7.7,3.4,17.1,0.3,22.7-7.1c4-5.2,4.6-10.7,1.5-14.4
		C383.7,374.2,381.1,376.5,364.1,378.7z M348.7,367.1c-0.4,3.4-1.7,6.1,0.3,8.2c1.4,1.5,3.5,0.3,5.3-0.2
		C352.5,372.5,350.8,370.2,348.7,367.1z"/>
	<path d="M306.9,457.8c5.8-3.6,11.7-6.5,18.2-1.6c0.9,0.7,1.8,1.4,2.1,2.7c1.2,5.4,5.7,6,9.8,5.6c3.6-0.4,6.6-2.6,7.1-7.1
		c1.5-12.7-5.4-24.3-17.4-28.7c-1.8-0.7-3.6-1.3-5.8-2.1c7.3-1.2,18.5,5.7,22.8,13.7c5.4,10.1,4.8,20.8-3,28
		c-10.6,9.7-15.5,12.7-27.6,7.5c0,0.7,0,1.3,0,1.9c-0.7-3.2-5.7-2.3-5.7-6.3C307.5,466.8,307.1,462.3,306.9,457.8
		C307,457.8,306.9,457.8,306.9,457.8z"/>
	<path d="M454.8,369.6c-2.5-11.2-4.6-22.5-9.3-33.1c-2.7-6.1-6.1-11.5-11-16.6c2.3-0.6,3.6,0.5,4.7,1.6c3.1,2.9,5.8,6.2,7.6,10.1
		c3.6,7.9,8.7,14.9,13.3,22.4c-2.1-1.9-4.3-3.7-7.2-6.3c3.7,13.1,13.3,20.8,21.7,31c-2-1.7-3-2.4-3.9-3.2c-1-0.9-2-1.8-3.2-2.5
		c7.7,13.4,19.3,23.4,29.9,34.4c-3.6-3.1-7.2-6.2-10.8-9.3c9.9,14.4,23.5,26.2,30.1,43.2c-17.8-28.9-45-50.1-61.1-81.3
		c-0.5,4.7,1.2,8.1-0.5,11.2C455,370.7,454.9,370.2,454.8,369.6z"/>
	<path d="M321.7,330.8c-0.1-1.1-0.2-2.2-0.5-4.8c-0.7,3.5-1,5.5-1.4,7.5c-0.2,0-0.4,0-0.6-0.1c0.1-2.1,0.2-4.3,0.4-7.8
		c-1.1,2.7-1.8,4.2-3,7.3c0-7.8,2.9-13.8,1.4-20.6c-0.8,2.2-1.5,3.9-2.2,5.6c1.2-7.6,3.9-14.6,8.8-20.7c-0.3,1.2-0.7,2.3-1.4,5
		c4.1-4.8,6-9.5,10.4-12.1c-1.5,2-3,4-5,6.6c6.1-4.1,12.9-5.7,17.5-11c-1.6,2.6-4,4.4-5,7.9c3.8-2.3,6.5-5.7,12.3-7.1
		c-8.1,4.9-13,10.8-18.3,16.8c-0.1-0.9-0.1-1.4-0.2-1.8C328.2,310.1,322.8,319.4,321.7,330.8z"/>
	<path d="M375.7,510.4C375.7,510.4,375.8,510.5,375.7,510.4c-2.6-3.6,0.3-6.7,1.2-9.9c0.5-1.6,2-0.6,3-0.2c4.5,2.1,9.1,4,13.3,6.5
		c4.7,2.8,9.1,6.1,14.8,9.9c-3.3,0.6-5.5,1.3-7.7,1.3c-3.6-0.1-7,0.4-10.2,1.8c-2.7,1.1-4.2,0.4-5.9-1.6
		C381.7,515.2,379.3,512.1,375.7,510.4z"/>
	<path d="M357.6,317.9c9,0,12.5,6.8,18.6,12.3c-10.1-1.3-18.3,4.6-27.4,2c-1.7-0.5-1.8-2-2.2-3.4c-1.9-6,2.7-8.9,6.2-11.7
		c2.3-1.9,4.4-4.3,8.4-6.3c-3.3,3.8-5.7,6.6-8.2,9.4c0.2,0.3,0.5,0.5,0.7,0.8C355.2,319.8,356.7,318.6,357.6,317.9z"/>
	<path d="M452.1,415.3c0.3,5.8,1.5,10.6,0.5,16.7c-0.9-2.9-1.4-4.6-2.2-7.5c-0.2,5.5,1,10-1.4,15c-2.4-11.3-0.5-21.6-0.3-33.5
		c0.8,2.2,1,2.9,1.7,4.7c0-8.1,0-15.1,0-22.5c0.7,1.2,1.2,2.1,2.5,4.3c-0.6-5.3-1.1-9.3-1.6-13.2c4.7,9.4,2.8,20.5,9.3,30.3
		c-1.8-0.7-2.4-1-3.6-1.4c1.1,6.5,7.3,10.2,7.5,17.6c-2.6-5.3-4.4-9.9-7.9-13.7c-2.6,1.9-1,5-2.5,7.7
		C453.4,418.4,452.9,417.4,452.1,415.3z"/>
	<path d="M521.6,470.5c3.3,4,4.4,8,5.2,12.2c-0.8-1.3-1.5-2.6-2.5-4.4c-1.2,12.3-0.5,24.2-3.8,35.6
		C520.5,499.8,523.4,485.7,521.6,470.5z"/>
	<path d="M526.5,475.6c-4.7-11.3-10.6-21.9-16.5-32.6C517.9,452.7,524.1,463.2,526.5,475.6z"/>
	<path d="M235.2,415.6c-0.9,0.9-1.9,1.8-2.8,2.6c2.6-7.2,6.1-13.8,12-19.4c0.5,2.4-0.9,3.6-1.3,5
		C240.5,407.7,237.9,411.7,235.2,415.6z"/>
	<path d="M454.8,369.6c0.1,0.5,0.3,1,0.4,1.6c0.5,5.9,0.9,11.8,1.4,17.8c-0.3,0-0.6,0.1-0.9,0.1c-1.4-8.5-2.9-17-4.5-26.5
		C452.6,365.5,453.7,367.6,454.8,369.6z"/>
	<path d="M235.2,415.6c2.6-3.9,5.3-7.8,7.9-11.8c2.7-3,4.7-6.5,8-8.9c0,0-0.1-0.1-0.1-0.1c0.1,3-2.5,4.4-3.9,6.5
		c-3.4,4.8-6.9,9.5-10.5,14.2C236.4,415.9,235.8,417.7,235.2,415.6z"/>
	<path d="M369.1,270.6c-1.3,2.6-3.9,2.9-6.2,3.5c-1.7,0.4-1-1.5-1.9-2.2c-1.7,0.6-3.4,1.3-5.2,1.9
		C358,270.3,365.5,268.5,369.1,270.6z"/>
	<path d="M475.2,462.8c0,8.5,0,17,0,25.5C473.8,479.9,473.8,471.3,475.2,462.8z"/>
	<path d="M105.6,605.5c-6.6-5.2-5.5-12.1-8.8-17.1C103.2,592,100.9,599.5,105.6,605.5z"/>
	<path d="M387,444.8c1-5.7,4-9.9,8.1-13.3C391.6,435.4,390.3,440.8,387,444.8z"/>
	<path d="M409.8,312.2c4.4,2,8.4,3.7,12.7,5.6C417.1,319,411.7,316.7,409.8,312.2z"/>
	<path d="M515.7,447.2c-2.8-5.4-5.6-10.8-8.4-16.3C511.8,435.5,514.1,441.2,515.7,447.2z"/>
	<path d="M512.3,476.3c-1-1.8-2.1-3.6-3.1-5.3c0.3-0.2,0.6-0.4,0.9-0.6c3.1,3.9,6.3,7.8,9.4,11.7c-0.2,0.1-0.3,0.3-0.5,0.4
		C516.7,480.4,514.5,478.3,512.3,476.3C512.3,476.2,512.3,476.3,512.3,476.3z"/>
	<path d="M412.3,307.5c3.1,1.2,6.1,2.3,9.7,3.6C417.5,312.7,412.7,310.7,412.3,307.5z"/>
	<path d="M406.8,337.3c-2.5-2.6-5.5-4.8-6.7-9.5C404.2,330.4,405,334.1,406.8,337.3z"/>
	<path d="M438.8,427c-2.8-3.5-2.5-7.2-3.2-10.7C437.8,419.3,438.9,422.7,438.8,427z"/>
	<path d="M460.8,400.4c3.4,3.2,5.4,7.1,6.2,11.7C464.9,408.2,462.8,404.3,460.8,400.4z"/>
	<path d="M135.7,470.8c-1.1-3.1-2.1-5.8-0.9-9.3C136.3,464.7,138,467.3,135.7,470.8z"/>
</g>
</svg>
