<?xml version="1.0" encoding="utf-8"?>
<!-- Generator: Adobe Illustrator 24.2.3, SVG Export Plug-In . SVG Version: 6.00 Build 0)  -->
<svg version="1.1" id="Layer_1" xmlns="http://www.w3.org/2000/svg" xmlns:xlink="http://www.w3.org/1999/xlink" x="0px" y="0px"
	 viewBox="0 0 595.3 841.9" style="enable-background:new 0 0 595.3 841.9; fill: #215342;" xml:space="preserve"
	 height="250" width="375" transform="translate(-55, -20)">
<g>
	<path d="M555.3,558.8c-0.6-24.6-34.7-51.1-59.5-38.3c-1.3,0.7-2.4,1.8-4.1,1.1c-14.3-5.6-28.2-5.7-41.9,4c0.6-4.2,1.1-7.7,1.7-11.2
		c2.7,1.1,4.9,2.1,7.2,2.9c1.5,0.5,3.2,0.2,4.1-1.1c0.8-1.3-0.8-2.1-1.4-3.1c-1.2-2-3.3-3.6-3.1-6.4c1.6-0.5,2.9,2.1,4.7,0.1
		c-1.1-1.9-2.3-3.8-3.3-5.9c-2.6-5.1-4.3-10.4-2.7-16.1c2.5-8.4,2.6-16.8,0.4-25.3c-2.9-11.5,0.3-21.1,8.9-29.1
		c1.4-1.3,3.4-2.2,3.4-4.6c-2.3-0.8-4.3,1.4-6.5,0.2c1.2-11.1,15-11.7,17.7-21.5c-2.3-1.1-4.3,1.4-6.9,0.6c2.4-5,5.4-9.3,10.4-11.6
		c4.8-2.3,9.9-3.9,15.1-5.9c-3.1-3.8-7.8-3.5-11.1-6.2c6.8-3.3,13.1-7.6,22.7-3.8c-3.7-4.3-7.5-3.6-10.7-5.2c1.8-2.5,4.6-4.7,4.9-7
		c1.1-11.9,1.3-23.8-2.4-35.4c-0.5-1.7,0.5-2.5,1.3-3.6c6.4-9.7,12-19.8,15.7-30.8c9.4-27.8,10.8-56.5,10.5-85.5
		c-0.3-36.7-3.8-73.1-7.4-109.6c-0.9-9.6-6.4-13-15.3-9.2c-3,1.3-5.6,3.3-8,5.5c-38.3,35.5-73,74.2-104.6,115.8
		c-5.7,7.5-11.4,14.9-17.4,22.7c-0.7-2.7-1.2-4.9-1.9-7.8c-2.2,4.1-3.7,7.7-6,10.8c-5.7,7.9-9.2,16.6-10.9,26.1
		c-1.7,9.7-6,18.3-11.6,26.3c-1.3,1.8-2.5,4-5.7,4.5c2.1-2.7,4-4.9,5.6-7.2c2.4-3.6,2.5-4.3,2.5-7.5c-8.6,11.4-8.6,11.5-23.8,13.5
		c-11.4,1.5-22.3,6.6-34.3,2.6c-5.1-1.7-9.9-2.1-12.7-7.6c-1.7-3.4-5.2-5.5-8.6-7.4c-3.1-1.7-4.4-0.3-4.5,2.6
		c-0.1,2.8,0.4,5.5,0.7,8.8c-5-2.1-6.4-6.9-9.7-10.3c-2.2,4.5,0.2,8.3,0.6,12.9c-6.2-1.4-12.1-0.7-17.9,0.1c-5,0.7-9.8,1.6-14.9,1.2
		c-10.2-0.8-18.5-5.5-26-12c-0.9,1.5,1.6,2.4-0.6,4.6c-12.8-18.5-12.5-42.2-25.8-60c-1.5,1.9,0.4,5-1.9,7.1c-0.4-0.5-0.9-1-1.2-1.5
		c-27.7-44.9-59.4-86.8-95.6-125.1c-6.2-6.6-11.8-14.1-20.1-18.4c-7.8-4-12.8-1.8-15.3,6.3c-3.8,12.6-7.4,25.3-11.1,37.9
		c0,0.1,0.2,0.3,0.2,0.5c0.5-0.4,1-0.8,2.1-1.6c-1.7,5.9-3.1,11-4.6,16.1c-6.3,21.4-12.3,42.9-13.3,65.3
		c-1.7,40,6.8,78.1,23.6,114.4c1.1,2.4,1.1,4.4,0.3,6.9c-3.9,12.3-9.7,24.6-0.8,37c-1.4,1.2-3.7,0.8-4.5,3.6
		c8.1-3.4,12.5,2.6,19.2,6.2c-4.7,0.7-8.1,1.2-12.7,1.8c10.1,8.7,23.5,11,31.7,21.8c-4-1.3-7.2-2.3-11.4-3.6
		c1.2,2.3,1.8,3.8,2.7,5.2c3.9,5.9,10.1,8.1,16.3,10.1c3.7,1.2,6,3.3,6.8,7.6c-2.5-0.8-4.5-1.4-6.4-2c3.6,4,7.3,7.8,10.7,12
		c1.8,2.2,5,3.8,4.6,7.3c-1,8.2-0.4,16.6-2.2,24.8c-1.1,5.3-4.1,10-5.4,15.3c4,1.7,6.5-2,10.2-2.2c-1,2.3-1.8,4.2-2.5,6.1
		c-2,5.5-4.4,11.1-1.4,16.9c5.1,10.1,5.6,19.3-4.6,27.3c5,2.3,9.6,2.3,14.7,2.6c-2.5,3.5-6.1,3.2-10.2,4.1c5.3,2.6,9.3,1.3,13.8-0.6
		c-0.8,6.9-6.7,2.4-9.6,5.5c5.9,10.9,15.6,18.5,25.1,26.8c-4.6,3.5-9.3,2-14.4,1.6c3.1,7.6,10,12.1,14.2,19.4
		c-3-0.6-5.2-1.1-8.1-1.7c3.6,5.8,7.7,9.6,13.4,10.9c0.8,1.4-1.8,1.7-0.2,3.2c1.9,0.1,4.1,0.2,6.6,0.3c-3.5,4.5-8,4.3-13.9,3.5
		c5.6,6,10.5,10.2,17.2,13.1c-2.3,0.9-3.9,1.6-5.8,2.4c3.8,2.3,7.6,0.9,11,1.3c0.9,7.5,7.8,8.1,12.6,11.3c-3.5,2.1-7.2,1.4-10.8,1.5
		c-13.3,0-23.7,5.2-31.1,16.4c-1.1,1.7-2.5,2.7-4.3,3.5c-11.3,5.1-20.8,12-23.9,25c-0.5,2.1-2.1,2.3-3.5,3c-9,4.4-16.7,10-19.5,20.2
		c-4.9,17.5,12,41.7,30.3,43.5c2,0.2,3.5,0.8,5.1,2c4.4,3.4,8.4,3.6,11.7-2c1.9,1,3.4,1.9,4.9,2.8c5.5,3.2,12.2,3.4,17.4,8
		c3.7,3.3,10.6-0.5,10.2-5.1c-0.4-4.6,1-7.2,5-9c0.8-0.4,1.5-1.2,2.1-1.9c4.7-5.5,10.3-6.4,16.6-2.6c6,3.6,11.5,1.2,12.4-5.6
		c0.1-1,0.3-1.8,1.2-2.4c9.2-6.3,12.5-15.5,13.3-26.3c0.4-5,3-9.2,9-10.6c8.9-2,17.6-4.5,26.4-6.9c2.4-0.7,3.6-0.1,4.9,2.1
		c3.7,6.5,8.3,12.5,14.2,17.3c39.1,32.1,100,9.5,108.7-40.5c0.6-3.4,1.8-5.2,5.5-6.2c26.8-6.9,53.7-13.8,80.3-21.3
		c8.2-2.3,18.3,0.3,24.1-8.9c9.1,6.7,19,8.1,29.4,5.8c2.5-0.6,4.2-0.4,6.2,1.4c2.5,2.3,5.6,2.7,8.7,0.9c3.1-1.8,4.1-4.6,3.6-8
		c-0.2-1.3-0.6-2.7-0.9-4c-1.3-4.7,1.3-8.4,6-8.3c6.1,0.1,11.9-1.2,17-4.7c1.4-1,2.5-0.9,4.1-0.3c6.2,2.7,11.8-0.9,10.4-7.4
		c-1.3-6.1,0-11.7,0.2-17.6c0.1-3.4,0.3-6,3.9-8.1c3.6-2,5.2-5.9,5.2-10.1C555.6,567.4,555.4,563.1,555.3,558.8z M371.1,244.7
		c-1.2,5.2-2,10.3-2.2,15.6c-0.3-0.9-0.6-1.7-1.2-3.8c-1.9,7-3.5,12.9-5.1,18.8C363.4,264.5,365,254,371.1,244.7z M78.3,413.7
		c-0.3,1.6-1.4,1.8-2.8,1.3c-2.8-1-5.5-1.9-8.3-2.8c0.1-0.3,0.1-0.7,0.2-1c2.8,0,5.7,0,8.5,0C77.6,411.2,78.7,411.8,78.3,413.7z
		 M81,247.3c-3.7-4.5-2.1-19.6,2.9-28.3C83.1,228.9,83.5,238,81,247.3z M129.3,552.4c-1.1-3.6-1.3-7.5-3.3-10.8
		c2.3-3.5,0.7-7.4,1-11.1c0.2-2.3-0.1-4.6,1.4-6.9c7.2,12.3,1.9,26.1,4.5,38.9C131.7,559.1,130.4,555.8,129.3,552.4z M126.7,516.5
		c-1.4-4.3-0.3-9,3.2-14.7c3-4.8,7.5-7.8,11.8-11.1c4.2-3.2,8.6-6.1,12.2-10.4c-0.7-0.1-1.2-0.4-1.4-0.3c-4.9,4.1-11.6,4.2-16.4,9.2
		c-14.8,15.5-16.1,33.1-10.1,52.4c0,0,0,0,0-0.1c1.1,2.9-0.3,4.7-2.9,5.5c-2.5,0.8-3.2-1.6-4.1-3c-2.9-4.4-5.6-9-8.4-13.5
		c-1.2-1.9-2-4.5-5.2-2.4c-1.1-3.6,0.6-7.8-3.7-10.1c1.4-5.1,1.3-11,0.2-17.2c-1.1,2.4-2.1,4.7-3.1,7c-0.4-0.1-0.7-0.2-1.1-0.3
		c0.7-4.7,1.4-9.3,2.3-15.6c-2,3.4-3.2,5.4-4.4,7.5c1.2-9.2,4.8-17.7,6.2-26.8c-0.8,5.5,0.6,10.6,1.1,16.2c3.1-1.5,1.7-4.2,2.4-6
		c0.6,1.7,1.2,3.5,1.8,5.2c0.3,0,0.6-0.1,0.9-0.1v-9.4c1.1,2.9,1.3,6,3.6,8.7c-3.7-21,3.1-40.9,6.3-62.7c-1.9,3-2.9,4.7-3.9,6.4
		c2.4-5.4,3.3-11.3,5.2-16.9c-6.9,11.9-15.2,23.1-17.6,37.2c-0.2,9.5,0.3,19.2-9.8,27.3c6.6-11.9,4.7-23.5,6.7-34.5
		c1-5.5,3.6-10.5,7.3-14.8c2.5-4.7,4.9-9.4,7.4-14.2c-0.2-0.1-0.5-0.3-0.7-0.4c-1,1.3-2.1,2.6-3.7,4.7c0.8-5.7,4.9-8.9,6.2-13.6
		c-7.7,6.2-14.3,13.4-23.5,17.2c8.7-10.4,20.9-17.3,28.5-28.8c-1.9-0.1-2.6,2.7-6.4,1.9c5-4.5,9.2-8.3,13.5-12.1
		c-5.6,2.1-9.8,6.3-16.7,8.1c3.7-3,6.6-5.2,10.9-8.7c-5.3,1.7-8.7,2.8-12.1,4c-0.1-0.2-0.2-0.4-0.2-0.5c2.8-1.7,5.7-3.4,8.5-5.1
		c-0.6-1.8-1.8,0.2-2.7-0.7c3.1-2.9,6.9-5,9.5-9.5c-2.1,1-3.5,1.6-6.2,2.8c2.5-2.7,4.1-4.3,6.3-6.7c-2,0.6-3.1,1-4.5,1.4
		c1.1-2.8,4.2-3.8,4.7-6.8c-1.5,1-2.8,1.9-4.1,2.7c15.2-17.4,30.5-34.5,36.4-58.6c1.2,5.6-0.8,10.1,0.4,14.6
		c7.5-25.3,11.5-50.4-2.4-75.3c0.9,1.3,1.8,2.6,2.7,3.9c0.8,1.2,1.6,2.3,3.1,3c-0.2-0.6-0.3-1.3-0.6-1.8
		c-23.1-40.5-45.6-81.3-76.3-116.8c-8.2-9.5-16.3-19.1-26.5-26.6c-7.9-5.8-11.1-5-13.7,4.3c-10,35.9-20.9,71.7-24.1,109
		c-2.5,29,2.7,57.3,15.2,83.8c6.5,13.7,13.1,27.2,15.2,42.5c1.3,9.4,6.1,17.4,13.2,23.9c1.2,1.1,2.5,2.5,2.8,3.9
		c0.9,4.9,2.8,7.3,8.4,6.2c2.7-0.6,4.3,2.4,4.6,5.4c-2.3,1.3-4.5,2-6.6,1.1c0.3-6.6-4.5-2.8-6.6-4.2c-0.4,2.4,2.1,1.2,2.3,2.6
		c-0.1,0.1-0.3,0.4-0.4,0.4c-12.9-1.5-22.4-8.7-30.1-18.4c-3.5-4.5-2.9-10.3-0.9-14.9c7-15.7,3.1-29.6-3.3-44.7
		C14.1,262.8,14,216,26.3,168.6c5.9-22.5,10.9-45.2,16.3-67.8c1.8-7.3,5.2-8.6,10.8-2.9c10.3,10.3,20.1,21.1,29.9,32
		c32.3,36,60.6,75.1,86.4,115.9c3,4.8,5.1,10.1,8.2,17v-8.1c1.2,4,4.4,7.9,1.2,12.9c-2-2.5-3.6-4.5-5.5-6.8
		c-4.2,13,2.9,30,14.4,34.3c-1.8,1.1-3.3,2.1-5.7,3.7c6.2-0.8,11-4.3,18-2.8c-4.3,2.2-7.5,3.9-10.8,5.5c1.8,2.8,3.9,2.6,6.4,2.1
		c11.8-2.4,23.5-3.2,35.7-1.5c8.3,1.2,17.1-1.3,25.6,0.5c0.7,0.1,1.3,0.3,2,0.3c2.3,0.3,5.1,2.2,6.9,0.3c1.8-1.9-1.1-4.1-1.5-6.9
		c9.7,4.8-1.3,13.1,4.1,18.2c-4.1-2.2-7.2-5.6-13-5.9c3.5,3.2,7.1,4.8,9.1,9c-1.6-0.6-2.6-1-3.9-1.5c0.1,0.5,0,0.9,0.2,1.1
		c2.6,3.9,4.5,8.4,7.9,11.3c4,3.4,7.2,8,12.4,10c2.4,0.9,3.4-0.3,4.4-2.2c3.2-6.6,6.3-13.3,11.8-18.6c-1.6-1.3-2.3,1.2-3.6,0.6
		c-0.3-3.5,2.7-5,4.6-7.6c-3.9,0.3-6,3-8.8,5.2c-1.1-3.1,3.2-5.8,0-8.6c-2.9,1.4-3.6,4.9-6.3,7c-1.4-4.5-0.8-9.4-3.6-13.2v3.7
		c-1.1-1.7-1.7-2.7-2.5-4.1c-1.6,2.2-0.1,4.6-1.2,7.3c-0.4-7.5-4.5-13.4-5.1-20.6c4.6,3.9,6.3,9.1,8.8,13.8c2-3,5-1.4,7-0.9
		c12.4,3.4,24.5,2.7,36.8-1.2c7.3-2.3,14.8-1.1,22,1.7c11.8,4.5,19.8,1.7,26.2-9.1c1.5-2.5,3-5.1,3.8-8.2c-1.9,2.6-3.9,5.2-5.8,7.8
		c-0.2-0.1-0.4-0.2-0.6-0.3c1-2.3,2-4.5,2.9-6.8c0.8-1.9,2.3-4.1-0.5-6.5c1.3-3.8,3.5-8.3,4.2-14.6c-2.6,3.9-4.6,6.9-7.3,10.8
		c0.1-5.2,1.2-9.3,0.3-13.4c0.5-0.6,1.3-1.1,1.6-1.8c11.1-26.7,31.2-47.1,48.7-69.3c25.5-32.3,54.7-61.2,84.3-89.5
		c2.7-2.6,5.6-4.8,9.4-5.5c2.7-0.5,4.2,0.3,4.3,3.3c1.8,47.6,8.1,95.1,5.6,142.9c-1.4,26.8-5.2,53.3-21.2,76.1
		c-7.1,10.1-15.2,19.5-22.7,29.4c-2.9,3.9-5.5,8.2-6.2,13.2c-0.8,5.7,3.2,9,8.5,6.8c7.7-3.1,12.6-8.9,15.3-16.6
		c1-2.7,1.8-5.4,2.8-8.8c0.7,6.3,0.4,11.9-0.3,17.4c-0.7,6.1-3.1,11.3-8,15.1c-4.5,3.5-9.2,6.8-14.6,10.7c3.6,0.8,6.5,1.4,10.7,2.2
		c-10.5,4.2-16.4,11.2-20.1,21.8c-1.6-6.8,2.8-11.7,0.9-17c-0.6,2.2-1.5,4.2-4.1,5.1c-1.9-4.2,0.1-9.1-1.4-13.4
		c0.1-3.2,2.7-6.1,3.1-10.5c-2.5,2.4-3.8,5.5-7.9,4.9c2.6-6.2,6.5-11.1,11.3-16.9c-4.6,1.4-6.7,4.2-9.6,6
		c0.3-8.8,5.3-14.8,10.6-21.1c-1.5,1-3.1,2-4.6,3c4.5-6.2,8.9-12.3,14.7-17.3c-7.5,3.3-13.1,9.1-19.2,14.2
		c4.5-5.9,10.1-10.6,16.2-14.8c9.4-6.3,18.9-12.5,25.4-22.2c3.9-5.8,6.5-11.9,7.2-20.1c-1.2,2.3-1.8,3.6-2.8,5.5
		c1.6-12.3,4.7-23.6,7.3-35c4.4-18.6,3.1-37.7,2.2-56.6c-1.2-26.1-3-52.2-4.5-78.3c-0.1-1.1-0.1-2.2-0.2-3.3
		c-0.5-4.3-1-8.7-5.6-10.6c-4.3-1.8-7.3,1.4-10.1,3.8c-46.3,40.9-84.1,87.7-101.4,148.4c-4.1,14.3-5.8,28.8-4.5,43.7
		c0.2,2.2-0.9,3.5-2,5.2c4.9,4.4,10.9,3.4,17.4,3.3c-4.2,2.9-8.2,2.5-13.4,2.9c6.1,3.5,11.5,2.6,18.3,2c-5.1,2.8-9.5,2.2-13.7,3.2
		c7,2.1,13.2,5.8,19.6,9.1c-3.5-0.5-7.1-1-12.5-1.7c8.2,5,15.4,6.8,24.2,7.5c-5.3,2.2-9.8,1.2-15.1,1.9c4.8,2.7,9.4,2.3,14.1,3
		c-3.1,2-6.4,1.4-9.8,1.9c4.4,4.5,10.1,4.6,16.6,6.4c-8,1.7-13.7-0.8-19.4-2.7c-0.4,0.2-0.9,0.5-1.3,0.7c8.1,12.2,18.4,22.4,30.3,31
		c1,0.7,2,1.3,2.9,2.2c-8.4-2.3-14.9-7.8-21.7-12.9c4.1,7.7,10,14,16.4,21.3c-5.8-1.7-9.1-5.5-13-8.5c2.3,12.1,23.7,28.8,36.5,28.8
		c-5.8,3.2-14.2,0.4-27.1-9.2c3.6,7,9.4,12,10.7,20c-0.9-0.9-1.6-1.5-2.3-2.1c-0.2,0.2-0.4,0.4-0.6,0.5c2.3,3.6,4.7,7.1,7.3,11.2
		c-7.7-6.2-12.7-13.8-18.2-21.2c2.8,9.6,1.9,20.1,6.8,29.2c1.7,3.2-0.5,3.7-2.3,5.8c6.3,13.5,9,28.9,9,45.1c0,8,4.5,15.4,9.2,23.5
		c-6.5-3.9-6.9-10-9.4-15.8c-0.6,8.9-1.2,17.1-3.3,25.1c-0.4,1.5-0.1,3.7-2.5,3.4c-2.2-0.3-4.8-0.4-5.6-3.2
		c-0.4-1.6-0.9-3.3-0.7-4.8c1.5-10.3-5.2-17.9-8.8-28.3c-0.1,2.5-0.2,3.5-0.3,5.6c-3.4-4.5-5-10-11-10.2c0.8,1.8,0.8,3.8-1.8,4.5
		c7.5,10.9,17.8,20.2,17.6,36.4c-1.6-3.7-2.6-6.2-3.8-8.5c-6.1-12.2-16-15.5-28-8.5c-4.4,2.5-6,1.3-8-2.5
		c-3.4-6.4-6.5-12.9-9.1-19.7c-1.8-4.9,1.5-11-3.1-15.6c1.5,1.2,3,2.4,3.8,3c9.3-4.5,17.8-9.2,28.1-10.2c-2-4.1,5.2-3.1,4.1-8.8
		c6.4,8.6,8.2,17,11.4,24.9c0.9-9.9-3.6-17.7-9.3-25.6c2.1-1.2,2.5-5.2,6.4-3.1c1.1-2.6,0.5-4.7-1.4-6.3c-6.1-5.2-6.1-5.2-0.7-10.7
		c-1.2-1.6-3-0.8-6.5-1.2c5.7-0.6,2.9-4.4,5-6c-14.6-2.4-16.3-16.7-23.1-26.2c1.4,2.1,3,4.1,4.3,6.3c1.3,2.2,2.5,4.5,3.9,7
		c3.2-13.2-15.2-28.1-33.6-27.1c3.1-3.5,7.6-4.6,9.2-8.8c-1.2-1.4-7.8,2.2-5.2-4.5c-1.1,0.6-2.3,1.3-3.7,2.1c-0.9-1.6,1-2.6,0.9-4.1
		c-1.7-0.1-2.2,2.4-4,1.7c-1.5-1.3,0.5-2.4,0.2-3.9c-0.7,0-1.6-0.1-2.4-0.2c1.8-6,5.5-7.7,11.3-6.5c11.1,2.3,17,12,25.7,17.6
		c2.1,1.4,3.8,3.4,6,4.9c-3.5-6.4-8.9-11.3-14-16.7c1.9,0.9,3.9,1.8,6,2.8c0.2-1.8-1.2-2.2-1.9-3.1c-3.9-5.6-7.5-11.5-12-16.7
		c-3.1-3.7-7-7.1-11.3-9.2c-4.6-2.3-7.3-8-13.5-7.6c1.3-0.5,2.7-0.9,4.7-1.6c-2.9-2.9-6.3-3.1-9.9-3.7c0.8-0.6,1.2-0.9,1.8-1.3
		c-10.4-4.3-22.2,5-24.7,19.1c-0.1-2-0.2-3.9-0.4-7.2c-5.4,13,2.7,22.2,6.3,32.5c-2.6,0-3.1-2.5-4.9-3.1
		c-6.5,13.9-12.3,27.8-4.7,43.1c1.7,3.4,1.9,6.4-1.6,9.1c-1.1-0.8-2.2-1.7-4.8-3.7c6.4,8.3,11.7,15.2,17,22
		c5.4,6.9,10.7,13.8,13.7,22.5c-15.3-18.9-36.2-25.9-61-28.3c7.6-2.2,13.7-2,21.8-2c-6.4-3.5-11.5-3.3-17-3.3c1.2-2.2,2.9-4,1.8-6.7
		c-3.2,0.6-4.2,4.9-7.9,4.5c-1.1-2.7,1.3-5.6-0.7-8.5c-2.7,2.5-3.6,6.5-7.3,8.6c-1.3-5.1,0.6-9.5,1.8-14.7
		c-4.8,2.7-5.2,7.2-7.2,11.2c-1-1.2-1.8-2.2-3-3.7c-1.5,9.8-11.8,7.9-16.8,13.6c3.3,1.8,7-0.2,10.9,1.6c-5.9,3.7-11.5,7-17.7,9
		c-8.4,2.7-16.9,5.3-24.7,9.8c-7.6,4.3-14,9.8-18.6,17.4c-1,1.7-1.9,3.6-4.3,4.5c7.7-22.2,27.5-35.8,37.4-56.2
		c-1.8,2.2-3.7,4.5-5.5,6.7c-0.2-0.1-0.4-0.2-0.6-0.2c0.9-2.2,1.9-4.4,3.3-7.7c-2.2,1.6-3.4,2.4-4.6,3.3
		c10.2-16.6,6.1-33.1-0.2-49.8c-0.5,0-1,0.2-1.5,0.1c-1.7-0.2-3.8,1.2-4.9-0.3c-1.4-1.9,0.8-3.5,1.6-5.1c3.1-5.8,7.6-11.2,6.9-18.4
		c-0.2-1.7-0.6-3.3-1.2-6.6c-0.7,3.5-1,5.5-1.5,8.3c-1-3.1-0.2-5.7-2.7-8c-0.2,2.4-0.4,4.3-0.5,6.2c0.3-10.3-5.6-15.5-14.9-17.6
		c-8.9-2.1-15.2,4.1-22.9,6.8c1.7,1.8,3.8,0.6,6.5,1.7c-8.4,2.7-14.7,7.7-21.3,12.4c1.3,1.7,2.9,0.1,4.6,0.8
		c-7.6,2.3-13.8,6.2-20.2,11.9c3-0.5,5.1-0.9,7.1-1.2c-0.5,3.1-6,3.1-4.2,7.9c-3.3,3.4-7.2,7.2-9.2,12.6c4.3-4.2,8.7-8.2,13.8-11.5
		c4.9-3.2,10.1-5.8,15.8-7.6c6.3-2,10.6-0.7,12.7,5.9c0.5,1.6,1.3,3.2,1.3,5.3c-1-1.4-1.9-2.8-3.4-5c-0.1,7.7-5.9,6.9-9.2,7.4
		c-16.6,2.1-26.7,12.2-34.2,26.1c-1.9,3.6-1.4,7.3-1.8,11.2c3.1-0.3,2.9-4.1,5.5-4.6c0,5.6-12.6,16.6-20.9,18.3
		c-0.5,1.6,1.2,1.9,1.9,3.2c-3.6-0.7-2.4,5.4-6.5,4.2c1,0.3,2,0.7,3,1c-0.2,1.2-0.4,2.5-0.6,4.1c7.7-1,11,5.9,16.7,9.2
		c-1.5,1.3-3.5,0.2-4.4,1.8c11.1,9.9,10.9,12.9,32.2,12.6c-1.6,1.2-2.9,2.3-4.6,3.6c3.2,0.8,5.4-1.2,9.1-2c-3.1,2.5-5,4-7.4,5.9
		c3.7,0.1,5.7-3.7,9.3-2.6c-0.1,2.7-2.9,3.1-4.1,5.1c1,0.1,1.9,0.1,3.9,0.3c-8.6,10.8-12.5,23.2-18.8,34.4c-1.3,2.3-2.8,1.8-4.6,0.4
		c-4.6-3.5-9-7.3-15.7-6.7C136.6,503.5,135.3,504.2,126.7,516.5z M57.2,170.3c-1.7,1.9-1.1,4.7-4.2,6.6c0.1-6.2-0.4-11.7,1.3-17.2
		c0.4-1.2,1.1-2.3,2.7-2c1.7,0.3,2.2,1.9,1.8,3.2c-0.9,3.3,0.2,6.1,1.6,8.9c2.9-3.4,4.2-1.6,5.1,1.5c0.7,2.2,0,4.3-0.8,6.4
		c-2.6,6.9-5.3,13.8-8.4,22.1c-2.5-10.6-1.2-19.1,2.9-27.4C58.5,171.6,57.9,171,57.2,170.3z M64.2,217.5c-5.6-4.7-2.4-25.4,5.2-34.4
		C66.8,194.3,68,206.1,64.2,217.5z M65.6,258.7c-0.9,5.7-1.8,11.4-2.7,17.1c-3.3-5.9-2.2-11.7-1.2-17.6c0.2-1.1,1.1-1.9,2.4-1.6
		C65.3,256.7,65.7,257.6,65.6,258.7z M68.1,263.3c0.3-1.2,1.3-1.8,2.5-1.4c1.4,0.5,1.6,1.7,1.3,3c-0.9,5.4-4,10.2-4.3,15.8
		C66.5,274.8,66.7,269,68.1,263.3z M76.4,205.4c-0.1,9.7,0,18.6-2.8,28.1C69.3,227.1,71,210.7,76.4,205.4z M76.6,270.5
		c0.3,5.1-0.1,8.8-2,12.7C71.8,279.9,72.4,275.5,76.6,270.5z M414.2,531.9c-11.7-9.5-16.3,0.6-22.9,6.6c1.7-6.2,8.6-12.4,13.8-12.7
		C408.8,525.5,411.6,527.2,414.2,531.9z M396.7,420.4c6.1,7.5,6,8.2-2,14.2C396.8,429.7,397,425.4,396.7,420.4z M406.2,438.8
		c0.6-1.7,1.6-4.1,3.7-3.9c2.3,0.2,4.2,1.9,5.2,4.2c0.3,0.8,0.7,1.6,0.1,2.2c-8,8.5-13.9,19.6-27,21.8c-1.2,0.2-2.4,0.5-3.5,0.7
		c-1.3-0.1-2.5,0-2.8-1.4c-0.2-1.1,0.7-1.6,1.7-1.9C394.9,457.2,402.2,449.7,406.2,438.8z M379.2,416.7c-0.6,1.4-1.5,2.3-3.5,2.1
		c-4-0.4-3.9-3.6-4.1-6.4c-0.2-2.3,0.8-4.7,3.6-4.4c2.6,0.3,3.5,2.1,4.2,4.1C379.8,413.7,379.8,415.3,379.2,416.7z M237.2,523
		c-0.8-1.3-1.6-2.5-2.5-3.7c0.4,4.8,3,8.6,5.9,13.6c-8.6-4.4-15.4-19.9-13.7-29.1c2.1-11.3,12.8-21.5,24.4-22.7
		c-10.2,5.6-19.9,10.9-20.4,25.2c10.1-19.7,25.4-26.3,45.4-23.4c2.2,0.3,4.6-0.2,6.9-0.8c16.2-4.3,30.1,1.3,42.9,10.2
		c10.2,7.1,12.8,22.9,5.8,31.9C310.2,498.4,261.3,497.5,237.2,523z M320.9,538c-6.4,3.4-10.7,1.8-14.6-1.3c-2.2-1.7-3.1-4-0.8-7.3
		C308.9,534.5,313.6,537.2,320.9,538z M242.4,642c-2.9-5.9-5.5-11.6-12.6-14.5c-5-2.1-2.2-7.4,0.5-10.4c3.7-3.9,7-7.5,5.9-13.4
		c-0.3-1.5,0.8-3,2.6-3.1c15.9-1.3,30.7-5.5,44.5-16.6c-3.9,26.9,0.7,51.9,3.6,77C272.3,662.6,250.6,658.7,242.4,642z M290.6,667
		c1.8,0,3.6-0.1,3.5,2.7c-0.2,2.7-2.1,1.9-3.6,2c-1.2,0.1-2.5,0-3.7,0c-1.2,0-2.5,0-3.7,0c-1.6-0.1-3.4,0.4-3.5-2.2
		c-0.1-2.9,1.9-2.5,3.6-2.6C285.7,666.8,288.2,666.9,290.6,667z M274.4,671.6c-2.6-0.5-6.2,0.2-6.5-3.8c-0.1-1.5,0.7-3.7,2.9-2.9
		c2.4,1,7-0.9,6.7,4.4C277.8,671.8,276.1,672,274.4,671.6z M266.2,663.5c-1.3,4-4.1,5.6-7.4,4.8c-5.3-1.3-5.7-6.5-8.2-11.4
		C256.4,659.4,261.1,661.4,266.2,663.5z M249.8,662.9c-2.1,1.4-4,1.2-5.8-0.1c-5.9-4.3-11.7-21.9-9.2-31.2
		C239.5,643.3,248.4,651.2,249.8,662.9z M167.5,432.7c-2.3-2.4-4.7-4.8-7.4-7.6c-0.1,0.1,1-1.1,1.8-2.4c0.8-1.2,1.5-2.5,3-5.1
		C164.7,423.9,164.8,428.8,167.5,432.7z M160.9,445.6c1.8,6.1,7.6,9.3,13,12.2c1.3,0.7,2.6,1.3,4,1.9c-0.9,2.4-2.4,1.7-3.8,1.4
		c-10.3-1.8-16.5-9.3-23-16.4c-4.4-4.8-8.9-9.1-16-8.3c4-1.6,8.5-1.3,12.2-3.7c1.2-0.7,3-0.7,3.8,0.5
		C153.8,437.8,159.2,439.8,160.9,445.6z M168.3,413.7c3.6-7.6,9.8-12.4,19-14c-4.2,6-14.9,8.5-8.2,18.8c-0.2-3.3-1.1-6.6,3.1-9.1
		c-2.1,7.1,0.5,12.5,3.8,17.9c2-1.3-0.6-2.2,0.3-3.4c3.8,2.6,7.3,3.2,10.5,2.1c3.5-1.2,6-4.5,6.5-8.2c0.4-3.3,1.7-8,2.6-8.7
		c4.9,7.2,2.4,20.5-5,24.6c-5.4,3-10.7,2.5-16.5-0.4c-6.3-3.2-6.7-8.9-8.5-14.4c-2.5,2-2.7,5.2-0.6,9.8c3,7,11.5,11.8,19,10.8
		c11.1-1.4,14.9-6.8,17.2-24.8c0.4,0.4,0.6,0.4,0.6,0.5c1,5.2,5.4,11,2.1,15.5c-4.8,6.4-12.1,10.6-20.4,11.7
		c-4.1,0.5-8.5,0.5-12.6-0.1C169.2,440.6,162.6,425.7,168.3,413.7z M193.8,413.8c0-0.5,0.1-1,0.2-1.5c0-0.1,0-0.1,0-0.2
		c0,0,0,0,0-0.1c-0.1-1.7,0.9-3.2,2.6-3.7c1.8-0.6,3.9,0.7,4.3,2.5c0.2,0.9,0.4,1.9,0.5,2.8c0,1.2-0.3,2.3-0.8,3.4
		c-1,2.3-5.1,2.3-6.1,0C194.1,415.9,193.7,415,193.8,413.8z M183.5,597c10.5-2.1,8,6,9.1,11.4c3.3-1.3,6.9-3,9.9-0.3
		c2.2,2,1.4,5.4,0.7,8.1c-0.7,2.6-2.3,3.5-4.2,1c-2.2-2.8-5.5-4.9-6.8-8.4c-4.1-3-7.1-6.8-8.9-11.6c-3-2.2-4.2-5.4-5.6-9.2
		c3.1,0.3,6.7-2,7.9,1.1C186.4,591.1,184.3,594.3,183.5,597z M214,619.1c3.2,2.7,1.2,7.3-0.2,11c6,0.4,9.2,4.8,10.3,14.2
		c-7.5-8-14.6-15.4-22.1-23.3C206.5,619.8,210.6,616.3,214,619.1z M141.5,536.4c1.7-13.8,6.5-17.9,16-12.5
		C147,522.3,144.1,529.1,141.5,536.4z M63.9,721.5c-4.8-15.3,4.4-24.9,16.5-33.1C76.9,704.9,85.2,718,92,731
		c-9.5,0.6-10.5-7.4-13.6-14.9c-0.9,4,1.1,6.2,1.2,9.4c-1.1-1.2-1.8-2.1-2.6-3c1.5,7.6,6.6,13.2,10.5,21.2
		C76.5,738.2,67.3,732.3,63.9,721.5z M97.9,748.9c-3.9-4.8-7.9-9.7-11.8-14.5c-0.6-0.7-0.7-1.6,0.2-2.1c1.4-0.8,2.3,0.4,3,1.3
		c3.2,4.8,6.4,9.7,9.5,14.5C98.5,748.4,98.2,748.7,97.9,748.9z M118.1,733.9c-0.6-0.8-1.5-1.8-0.5-2.9c1-1.2,2.2-0.5,2.8,0.2
		c5.9,6.7,9.4,14.7,11.8,23.3C127.5,747.6,122.8,740.8,118.1,733.9z M167.6,738.8c-5.5-8.6-10.3-16.2-15.2-23.9
		C158.2,716.1,168.1,732.5,167.6,738.8z M177.8,659.2c1.3,5.9,6.3,10,7.3,16.2c-3.1-4.1-5-8.8-10-11.8c2.2,4.4,4.1,8.1,5.9,11.9
		c0.6,1.3,0.9,2.7-0.2,3.8c-1.3,1.3-2.4-0.3-3.6-0.4c-3-0.3-6.2-6.2-9.3,0.5c-3.8-8.2-10-13.8-16.8-18.9c1.3,1.6,2.6,3.1,4.9,6.1
		c-2.6-2.1-3.8-3-5.8-4.6c0.8,2.6,3.4,4.6-1,6.4c13,4.9,17.6,16.7,24.6,26c5,6.6,5,14.5,0.6,22c-1.3,2.1-3.1,3.4-5.7,3.3
		c-2.4-0.1-2.9-2.2-3.8-3.8c-0.4-0.8-0.8-1.8-1.3-2.6c-2.2-3.7-4.7-7.8-9.8-5.9c-4.6,1.6-6.5,5.6-5.4,10.6c0.1,0.3-0.2,0.7-0.5,1.8
		c-4.4-3.1-5.1-7.8-6.9-12c-1.6,10.3,3,18,11.1,24.2c-8.2,0-17.1-10.7-20.1-23.4c-2.5-10.9-1-22-2-33c-2.7,5.1-2.5,10.7-2.2,17.8
		c-1.5-3.3-2.4-5.2-3.4-7.2c-1.8,1.7,0.5,3.6-1,5.3c-8.7-9-8.2-20.8-9.6-32.3c-2.7,3.9-2.7,12.7-1.6,22c2.2,17.7,8,33.8,18,48.5
		c1.8,2.6,3.9,5.6,1.7,9.6c-3.1-1.8-4.6-4.6-6.4-7.1c-2.6-3.5-4.8-8.8-10.1-7.2c-5.2,1.5-5.1,6.6-4,11.7c-3.3-2.1-4.2-5.5-7.3-8.8
		c2.2,7.2,5.8,12.1,10.6,18.3c-5.1-2.9-7.8-5.8-10-9.1c-8.7-12.7-15.5-26.3-18.7-41.4c-2.4-11.2,3-20.1,10.7-26.7
		c7.8-6.8,15.7-13.4,23.6-20c6-4.9,12.9-7.4,20.8-7.1c8.3,0.3,16.5-3,25,0.2c13,4.9,20.1,14.6,24.5,27.1
		C187.9,663.9,181.9,662.9,177.8,659.2z M236.8,672.7c-13.2-21.7-31.1-39.4-47.5-58.4c-0.7-0.8-1.2-1.7-1.8-2.6
		c24.7,20.4,41.7,47.7,61.3,70.5C244.9,680.8,239.8,677.5,236.8,672.7z M286,683.7c-15.9-0.3-31.5-2.4-42.7-17.5
		c3.5,0.3,5.9,0.2,8.1-1.7c3,5.7,6.7,9,12.8,4.8c5.7,7.8,38,8.2,44.3,0.3c8.5,8.8,9.9-4.8,15.9-5.3C319.8,676.5,305.4,684,286,683.7
		z M296.8,668.7c-0.2-5,3.9-3.6,6.3-4.4c2.8-0.9,2.7,1.9,2.7,3.3c-0.1,3.8-3.4,3.5-5.9,4C297.4,672.1,296.9,670.9,296.8,668.7z
		 M312.4,660.9c2.3-1.4,4.8-2.5,8.3-4.2c-1.3,3.7-2.1,6.4-3.2,9c-1,2.2-2.7,4-5.4,3.6c-2.7-0.4-2.8-3.1-3.3-5.1
		C308,661,311,661.7,312.4,660.9z M295.9,698.7c11.6-2.4,21.1-6.4,29.9-14C322.1,692,304.1,700.3,295.9,698.7z M313,680.9
		c9-5.3,13.3-12.7,18.9-19.2C331.4,668.3,321.5,679.1,313,680.9z M337.7,629.9c-3.5,1.6-5,4.9-6,14.1c1.4-2.3,2.7-4.3,4.1-6.5
		c1.6,6.9-3.8,21.3-8.9,24.6c-1.5,1-3.2,0.9-4.6,0.2c-1.4-0.8-0.4-2.2-0.3-3.3c0.2-3.3,2.5-5.6,4.1-8.3c1.6-2.7,3-5.5,4-8.8
		c-9.6,14.8-24.1,18.8-40.4,19.6c1.3-25.1-5.4-49.7-0.6-75.4c10.7,10,23.2,12.6,36.4,13.3c3.3,0.2,4.9,1.5,5.8,4.5
		c1.6,5.4,4,10.1,8.6,13.9C345.1,622,343.9,627.1,337.7,629.9z M343.5,659.3c0.8-16.9,10.2-29.8,20.6-42.1
		C356.3,630.8,347.6,643.9,343.5,659.3z M367.3,442.2c-5.7-1.9-10.3-5.4-14.8-9.2c-5.1-4.4-3-9.3-1.1-14.3
		c0.8,9.7,5.5,16.1,14.9,18.7c6.5,1.8,11.9-0.6,16.1-5.4c3.2-3.6,4.3-8,2.1-12.9c-1.2,4.9-2.3,9.7-6.8,12.8c-4.4,3-9.2,3.5-14,1.6
		c-7.5-2.9-11.6-12.5-8.9-21.5c0.8,4.3,1.2,8.3,4.7,10.7c3.2,2.2,6.6,3.7,10.7,3.3c4.3-0.5,7.6-2.8,9-6.7c1-2.7,2.1-3.5,4.6-2.4
		c1.6-2.8-0.2-4.9-1-7c-0.8-2.1-2-4.1-3.1-6.2c5.8,0.3,13.5,10,14.2,17.7C395.5,439.2,384.3,448,367.3,442.2z M387.2,617.7
		c-0.5-1-0.6-1.7,0.6-2.3c1.3-0.6,1.7,0.4,2.2,1.1c3,3.7,3,9,6.8,12.3C392.3,626.2,389.5,622.2,387.2,617.7z M429.1,592
		c-0.4-3.5,3.8-4.9,7.9-3.6c-4.7-0.3-3.9,2.1-3.1,4.8c1.9,6.6,3.8,13.3,5.1,20.1C434.9,606.6,430,600,429.1,592z M458.8,597
		c5.1,4.3,7.1,8.2,7.6,15.9C462.5,607.5,458.9,603.1,458.8,597z M481.9,598.7c-3.3,5.8-7.6,6.3-12.2,1c-2.2-2.5-4.6-4.4-7.7-5.7
		c-3.6-1.5-4.8-4.9-5.1-8.6c-0.5-6.2-1.2-12.3-2-19.7c-1.5,2.1-2.1,3.4-3.8,2.2c0.4,2.8,0.8,5.3,1.2,7.8c-4.1-4.6-5.5-10.8-10-15
		c-0.8,1.8,1.9,3.3,0.2,5.1c-2.3,0.1-2.9-1.9-3.7-3.2c-5.2-8.3-13.2-13.7-21-18.9c-3.4-2.2-7.9-1-11.1,3.4
		c10.5,4.6,17.9,12.4,24.3,21.3c6.4,8.8,12,18,13.3,29.4c-1.6-2.8-3.3-5.6-4.9-8.4c-1.9-3.3-4.2-5.5-8.3-3.5
		c-3.9,1.9-4.8,5.1-3.6,8.9c1.2,3.8,2.7,7.6,4.3,11.9c-10.5-2.8-16.8-9.8-20.3-18.3c-3.5-8.4-13.4-11.7-15-21.2
		c-0.3,5.8,1.6,11.2,2.3,16.8c-2.6-7.1-3.8-14.7-9.4-19.8c-7.9,11.6-8.5,9.7-6.2,29.7c-1.1-2.4-1.8-3.9-3-6.2v4.9
		c-0.6-1.1-0.9-1.5-1.1-2c-4.1-14,2.6-25.9,11.2-34.6c11.4-11.4,25.1-20.9,42.2-23.3c20-2.8,44.4,8.7,52.7,25.6
		c-3.4-2.1-6.2-3.8-9.1-5.5c5.5,8.2,14.5,13.3,19.1,22.3c4.4,8.5,8.3,17.1,8.5,26.9c-3-5.3-5.1-11.2-13.4-12.6
		c2.3,2.1,3.8,3.5,6.5,5.9C489.6,591.5,485.1,593.1,481.9,598.7z M504.1,634.2c-2.5-1.5-3.1-4-4.3-6c-3.9-6.6-6.5-14.1-12.3-19.5
		c-1.2-1.1-1-2.2,0.3-3c2.3-1.4,3.9-0.4,5.1,1.6c4,7,7.1,14.3,10,21.8C503.5,630.5,504.6,632,504.1,634.2z M539.9,610.6
		c-3.6-4-4.7-8.7-6.9-12.8c-1.8-3.3-3.4-6.7-5-10.2c-0.3-0.7-0.1-1.8,0.2-2.6c0.1-0.2,1.3-0.3,1.8-0.1
		C533.4,586.1,541.6,605.9,539.9,610.6z M539.6,592.3c-3.3-4.4-5.1-9.2-9.3-12.4c-2-1.6-4-3.1-6.6-1.4c-2.6,1.7-3.3,4-2.7,7.1
		c0.7,3.9,3.6,7.6,1.6,12.1c-3.5-1.1-4-4.4-6.5-6.4c0.3,1.9,0.6,3.5,0.9,5.1c-10.9-12.7-10.1-29.9-17.7-44.3
		c-3.1,2.4-4.8,0.8-6.4-2.1c-9.5-16.3-19.6-21.9-39.6-21.4c9.9-5.3,19.3-8.4,29.3-5.9c25.1,6.2,56.1,36.1,58,63.7
		C540.7,588.3,541,590.2,539.6,592.3z M543.4,571.2c-3.9-9.7-7.4-18.4-13.6-26.4C536,545,545.4,563.1,543.4,571.2z M551.3,566.5
		c-1.3-2.1-0.2-5.1-2.7-6.3c-1.7,0.3-0.4,2.3-1.7,2.9c-7.9-21.8-26.4-30.6-46.2-38.4C517.3,514.9,554.9,541.1,551.3,566.5z"/>
	<path d="M584,594.3c-9,4.7-19,5.9-28.4,9.2C564.4,598.2,574,595.6,584,594.3z"/>
	<path d="M413.3,348.3c-6.9-6-13.7-12-20.6-18.1c10,2.5,15.8,10.2,21.9,17.4C414.2,347.8,413.8,348.1,413.3,348.3z"/>
	<path d="M123.8,501.3c-10-10.4-12-45.6-2.2-56.5C116,464.8,116.6,483.2,123.8,501.3z"/>
	<path d="M242.1,324.8c11.2,1.4,19.1,22.1,13.2,36.4c-0.9-7.4-0.5-13.7-2.4-19.7C250.9,335.3,247.1,330.3,242.1,324.8z"/>
	<path d="M316,361.1c-5.6-14.2,2.6-36.1,14-37.5C319,333.8,316.1,346,316,361.1z"/>
	<path d="M297.5,326.8c3.4-7.4,11-12,17.9-10.4c-3.8,2.2-6.9,4.9-9.2,8.2C303.7,328.4,300.9,328.1,297.5,326.8z"/>
	<path d="M171.7,324.1c-9,5.3-17.6,11.2-25.6,18.3C145.8,336.6,162.5,324.6,171.7,324.1z"/>
	<path d="M468.2,390.7c-1,0.3-1.7,1.5-2.9,0.7c0.6-6.5,9.4-20,14-21.1C476.7,378,469.7,383,468.2,390.7
		C468.1,390.8,468.2,390.7,468.2,390.7z"/>
	<path d="M247.2,433.4c5.2-8.3,12.7-14.5,20-20.8C262.5,421.4,254.6,427.2,247.2,433.4z"/>
	<path d="M132,415.5c-4.6-5.7-0.8-21.8,5.4-26.7C134.6,397.1,131.6,405.3,132,415.5z"/>
	<path d="M422,415.3c-2.4-10.1-4.7-18.4-8.7-27C419,392.4,424.1,407.6,422,415.3z"/>
	<path d="M231.3,330.9c-8.2-1.1-15.2-2-22.8-3C212.6,324.4,224.2,325.9,231.3,330.9z"/>
	<path d="M101.6,451.4c-1.1,5.1-2.1,10.2-3.2,15.3c1.5-12.7,1-25.8,7.2-37.5c2.2,1.6,0.2,3.1-0.2,4.6
		C103.8,439.7,100.3,445,101.6,451.4z"/>
	<path d="M335.2,331.1c5.7-5.9,14.6-8.4,20-5.8C348.7,327.2,342.4,329,335.2,331.1z"/>
	<path d="M246.6,423.4c3.9-6.2,8.7-11.6,12.7-17.7C257.1,412.9,252.7,418.7,246.6,423.4z"/>
	<path d="M231.9,327.1c-4.5-0.9-9-1.8-13.5-2.8C223.4,322.8,228.2,322,231.9,327.1z"/>
	<path d="M344.9,321.4c-3.2,2.8-6.7,4.8-11.9,6.3C336,321.9,340.4,321.5,344.9,321.4z"/>
	<path d="M315.8,499.6c-3.9-1.1-10.5-1.5-11.1-3.5c-1.6-5.6-5.8-2.4-8.3-4.5c-0.8-3.7,2.9-1.8,5-3.1c-2-0.1-3.4-0.2-5.6-0.4
		c1.4-0.5,2.1-0.7,3.2-1.1c-5.4-1-10.6,0.3-16.1-1.4c6.2-3.2,12.8-5,18-1.8c4.6,2.8,9.9,4.8,14,8.4C317,494,312.4,497.3,315.8,499.6
		z"/>
</g>
</svg>
