<?xml version="1.0" encoding="utf-8"?>
<!-- Generator: Adobe Illustrator 24.2.3, SVG Export Plug-In . SVG Version: 6.00 Build 0)  -->
<svg version="1.1" id="Layer_1" xmlns="http://www.w3.org/2000/svg" xmlns:xlink="http://www.w3.org/1999/xlink" x="0px" y="0px"
	 viewBox="0 0 595.3 841.9" style="enable-background:new 0 0 595.3 841.9; fill: #215342;" xml:space="preserve"
	 height="375" width="450" transform="translate(-40, -75)">
<g>
	<path d="M30.7,525.1c5.9-4.3,11.6-9,19.7-10.4c-10.3,6.9-20,13.8-25,24.9c4.6-4.2,9.4-8.6,14.2-13c0.3,0.3,0.7,0.7,1,1
		c-2.3,2.7-4.7,5.3-7,8c-5.3,6.3-9.1,13.3-9.6,21.8c-0.3,5,0.7,9.6,3.7,13.5c0.7,1,2.8,1.7,3.9,1.4c1-0.3,2.1-2,2.4-3.3
		c1.1-5.4,4-16.4,4.6-16.4c-3.3,14.5-1.8,27.9,9.5,38.4c11.5,10.6,25,11,39.3,7.3c-0.2-6.7,0.3-12.9-1.8-19.3
		c-3.3-10-2.8-20.5,0.9-30.6c0.8-2.1,2.2-3.9,3.6-5.7c-1.1,5.4-2.2,10.8-3.3,16.2c0.3,0.1,0.6,0.2,0.9,0.3c2.3-2.6,4.6-5.3,6.9-7.9
		c-3.3,8.1-8,15.6-5.8,25.7c1.1-2,1.9-3.5,2.7-4.9c0.3,0,0.5,0.1,0.8,0.1c0,5.9,0,11.8,0,17.7c0.1,6,1.6,11.4,6,15.7
		c0.9,0.9,2,1.6,4,3.1c-2.9-9.5-2.9-17.8,1.6-25.8c0,1.2,0,2.3,0,3.5c0.1,2.9-0.1,5.9,0.6,8.7c2.1,8.7,6.8,11.3,15.5,9.2
		c12.3-3.1,21.9-9.5,26.6-21.9c1.1-2.9,2.5-5.8,3.7-8.7c0.3,0.1,0.6,0.1,0.9,0.2c-1,4.8-2,9.6-3,14.4c0.2,0.1,0.4,0.3,0.6,0.4
		c1.5-2.5,3-5.1,4.8-8.1c-0.1,2.3-0.2,4.1-0.3,7c1.6-2,3-3.1,3.6-4.5c2.7-7.2,5.9-14.3,7.4-21.7c1-5.1-0.4-10.7-0.7-15.8
		c-0.9,3.6-2,7.6-3.2,12.2c-3.6-10.9,4.8-30.5,17.9-42.1c-2.9,5.3-5.7,9.9-7.8,14.8c-2.1,4.9-3.4,10.1-4.7,15.3
		c2.8-5.9,5.6-11.8,8.4-17.7c0.3,0.1,0.6,0.3,0.9,0.4c-3.1,9.6-6.1,19.2-9.2,28.9c0.4,0.2,0.7,0.4,1.1,0.6
		c3.6-4.4,7.3-8.8,10.9-13.1c-1.2,9.5-4.1,18.9-1.4,28.6c3.1-9.2,7.7-17.4,13.6-25.1c-2.9,10.7-3.1,20.8,5,30
		c-0.6-4.2-1.5-7.9-1.6-11.7c-0.1-3.8,0.6-7.6,1.5-11.4c-0.6,11,6.1,16.7,14.8,20.6c13.1,5.8,26.9,5.7,40.8,4.3
		c5.9-0.6,11.9-1.9,17.6-3.4c8.8-2.4,16-7.4,20.8-15.3c1.9-3,2.8-6.6,4-9.6c-0.8-0.8-0.9-1.1-1.1-1.1c-8.4,0.5-14.9-3.5-21.2-8.6
		c-3.8-3-8.6-4.8-13.9-7.6c5-1.6,9.5-2.9,13.7-4.2c-4.2-1.3-8.7-2.6-13.1-4c-15.9-5.1-17.6-26.7-7.3-36.3c5.3-5,11.5-8,18.5-9
		c17.2-2.4,34.5-3.1,51.5,0.6c5.3,1.2,10.6,3.9,15,7.2c11.7,8.7,11.2,27.6-0.8,35.4c-3.8,2.5-8.6,3.5-12.9,5
		c-1.5,0.5-3.1,0.7-5.3,1.2c4.3,1.4,8,2.7,11.6,3.9c-0.1,0.7-0.1,1.1-0.2,1.1c-6.3,3.9-12.5,8-19.1,11.4c-4.2,2.2-9,3.3-14.4,5.3
		c1.2,2.7,2.2,6.3,4.2,9.3c5.4,8.2,13,13.4,22.6,15.8c15.6,3.8,31.4,5.1,47.3,1.9c3.3-0.7,6.6-1.8,9.7-3.3c8.6-4.3,12-9,13.9-18.4
		c2.8,3.1,2.8,8.3-0.4,21.2c7.2-8.6,8.5-17.6,6.1-27.6c5.7,6.5,9.5,13.9,12.6,21.9c2.5-9.3,0-18.3-1.8-27.3c0.3-0.2,0.6-0.4,0.8-0.5
		c3.5,4,7.1,8.1,10.6,12.1c0.3-0.1,0.6-0.2,0.9-0.3c-3.2-9.2-6.3-18.4-9.5-27.5c0.1-0.1,0.3-0.2,0.4-0.4c1.5,2.3,3.1,4.5,4.4,6.8
		c1.3,2.4,2.4,5,3.5,7.6c0.3-0.1,0.7-0.3,1-0.4c-1.6-4.4-3-9-5-13.3c-2-4.3-4.6-8.3-7-12.5c8.7,2.6,20.2,27.3,18.5,40.7
		c-1.3-4.5-2.4-8.1-3.4-11.8c-0.2,0.1-0.5,0.1-0.7,0.2c0.6,3.3,1.2,6.6,1.7,9.8c-0.3,0.1-0.6,0.2-0.9,0.3c-0.4-1-0.8-2-1.1-2.8
		c-0.7,10.5,4.6,27,11.1,33.5c-0.2-2.3-0.4-4.2-0.6-6.9c2.1,3.3,3.8,6,5.5,8.7c0.2-0.2,0.5-0.3,0.7-0.5c-1.4-4.8-2.8-9.6-4.3-14.4
		c0.2-0.1,0.4-0.1,0.6-0.2c2.8,5.4,5.3,11,8.6,16c6.1,9.2,15.4,13.4,25.9,14.9c5.6,0.8,8.3-0.8,10.3-6.1c1.3-3.3,1.4-7.1,1.9-10.7
		c0.2-1.7-0.1-3.5-0.2-5.9c3.8,5.5,4.2,10.2,2.4,26.1c4.9-3.4,8-7.4,8.8-12.8c0.9-6.4,1.1-12.9,1.6-19.3c0.1-1.1,0-2.1,0.6-3.3
		c0.7,1.2,1.3,2.3,2.2,3.9c2.5-9.9-3-17.2-7-24.9c0.3-0.2,0.5-0.4,0.8-0.6c2.2,2.5,4.5,5,6.7,7.5c0.4-0.1,0.7-0.2,1.1-0.4
		c-1.6-5.8-3.1-11.5-4.7-17.3c0.2-0.1,0.4-0.3,0.6-0.4c1.6,2.9,3.8,5.6,4.7,8.7c3.6,11.6,3.9,23.1-0.7,34.8c-1.5,3.8-0.4,8.7-0.1,13
		c0,0.6,1.9,1.3,3,1.7c27.4,8.1,51.1-12.6,47-41c-0.2-1.4-0.4-2.9-0.3-4.4c3.7,5.5,4.4,11.9,4.3,18.3c3.3,1.3,5.2,0.5,6.7-2.6
		c4.4-8.8,3.2-17.3-1.6-25.2c-3.1-5.1-7.4-9.4-11.2-14c-0.8-1-2.1-1.6-2.7-2.9c6.5,1.4,10.5,6.1,14.6,10.6
		c-5-10.8-14.6-17-23.9-23.5c7.4,1.6,13.9,4.8,19.2,10.1c10.3,10.3,16.3,22.7,15,37.6c-0.4,4.9-3,9.7-5.1,14.3
		c-1.6,3.5-4.8,4.9-8.8,4.9c-1,0-2.6,0.9-3,1.7c-9.7,21-28.4,30.1-50.4,24c-3.5-1-5.6-1.1-7.7,2.6c-2.3,4.1-6.4,6-11.2,5.8
		c-0.7,0-1.7,0-2.1-0.4c-3.2-3.6-7.3-1.7-11.1-2.1c-11.5-1.3-21.3-6-28.8-15.1c-0.8-0.9-2.1-1.9-3.1-1.9c-5.5-0.1-9.3-2.9-11.8-7.4
		c-1.1-1.9-2.3-2.5-4.4-2.4c-4.1,0-8.3-0.1-12.4-0.4c-16.2-0.9-32.2,1.8-48.3,2.7c-8.2,0.4-13.9,2.5-19.3,8.9
		c-8.8,10.6-19.9,18.5-33.8,21.4c-20,4.1-38.2,0.5-53.9-13.1c-5.3-4.6-10.2-9.9-15.4-14.7c-1-0.9-2.4-1.7-3.7-1.8
		c-8.9-1-17.7-2.1-26.6-2.7c-7.3-0.5-14.7-0.3-22-0.3c-7.3,0-14.7,0.1-22,0.3c-1.1,0-2.6,0.9-3,1.8c-2.7,5.3-6.8,8.1-12.8,8.3
		c-0.9,0-1.9,0.8-2.6,1.6c-9.3,10.4-20.6,15.9-34.7,14.8c-0.9-0.1-2,0-2.7,0.5c-5.9,3.8-12.9,2.3-16.7-3.6c-0.7-1.1-1.4-2.3-2-3.3
		c-32,4.9-45.9-1.3-56.6-24.9c-6.6,1.1-10.1-2.8-12.9-8.2c-5.6-10.5-4-20.9-0.1-31.2c1.7-4.4,4.5-8.4,6.8-12.5
		C28,527.8,29.3,526.4,30.7,525.1z M340.3,587.5c-7.4-1.3-14.3-2.6-21.3-3.7c-0.8-0.1-1.9,0.3-2.7,0.7c-14.8,8.1-29.6,8.1-44.5,0.1
		c-0.9-0.5-2.1-1-3.1-0.9c-7.4,1.3-14.8,2.7-22.7,4.1c7.9,8.4,15.7,16.4,26.3,20.8C274.2,609.5,309.3,625.9,340.3,587.5z
		 M313.5,487.5c0.1-0.4,0.3-0.8,0.4-1.1c-1.1-0.6-2.1-1.6-3.2-1.6c-11.3-0.1-22.6-0.2-33.9-0.1c-1.8,0-3.5,1.3-5.2,2
		C285.8,491.3,299.6,490.9,313.5,487.5z"/>
	<path d="M30.7,525.1c-1.3,1.4-2.7,2.7-4,4.1c-2.3,0.2-2.5-0.8-1.7-2.6c3.8-8.3,8.4-16,16.1-21.3c1.1-0.7,2.1-1.5,3.5-2.6
		c-2.6-0.3-4.6-0.5-6.5-0.7c-0.2-0.4-0.4-0.8-0.5-1.2c4.3-3.4,8.6-6.8,13.3-10.4c-7.1-8.6-11.4-18.7-12.8-29.9
		c-6.1-0.3-6.8-0.9-7.3-7.8c-1.3-15.9,1.8-30.9,8.5-45.3c2.1-4.5,4.5-8.9,7-13.3c1.5-2.8,1.5-5.3-0.8-7.6c-1.2-1.2-2-2.4-0.4-4
		c9.1-9,17.2-19.2,28.8-25.3c4.2-2.2,8.4-4.1,13-5.6c-12.4,8.7-23.3,18.7-32.5,30.8c5.1-2.7,10.1-5.4,15.2-8
		c0.1,0.2,0.2,0.3,0.3,0.5c-4.9,4.3-9.8,8.5-14.7,12.8c0.2,0.2,0.3,0.5,0.5,0.7c1.4-0.2,2.8-0.4,3.4-0.5
		c-9.6,10.9-15.3,24.3-19.1,38.5c-2,7.5-2.6,15.3-3.8,23c0.4,0.1,0.8,0.2,1.2,0.3c3-5.5,5.9-11,8.9-16.5c-4,17.4-2.2,33.6,7.8,48.7
		c-0.4-7.5-0.8-14.7-1.1-21.9c0.3,0,0.7,0,1,0c1.3,5,2.5,10,3.9,14.9c0.7,2.3,2,4.5,3.1,6.6c0.8,1.5,1.2,3.8,3.8,2.9
		c2.4-0.9,4.2-2.3,4.3-5.2c0.1-3.1,0.3-6.3,0.6-10.5c2,1.9,3.3,3,4.6,4.2c0.9-1.6,1.7-3.1,2.9-5.1c0.8,3.3,1.4,6.1,2,8.9
		c0.5,2.3,2.1,3,4.3,3c4.1,0,7.8-1,11.6-2.8c5-2.4,10.5-3.7,16-5.1c2.3-0.6,3.2-1.4,3.4-3.8c0.2-4,0.8-7.9,1.2-12.5
		c1.4,1.1,2.1,1.6,3,2.4c0.5-1.1,0.8-2.1,1.6-4c-0.4,5.1-0.8,9.2-1.1,13.2c0.3,0,10.1-33,11-38.6c1.8-10.6,3.5-21.2,5.3-32.7
		c-4.6,3.7-8.7,6.6-14.3,6.6c3.2-6.6,6.2-13,9.7-20.1c-2.4,2.6-4,4.4-5.6,6.1c-0.3-0.3-0.6-0.6-0.9-0.9c2.4-6.3,4.7-12.7,7.1-19
		c-0.2-0.1-0.4-0.2-0.6-0.3c-0.9,0.6-1.7,1.3-2.6,1.9c1.9-8.2,6.9-14,13-19.5c-3.3,8.6-6.5,16.7-9.6,24.9c0.4,0.2,0.8,0.4,1.2,0.6
		c1.3-1.7,2.6-3.4,3.8-5.1c0.2,0.1,0.4,0.1,0.7,0.2c-0.7,2.7-1.3,5.3-2.1,8c-0.9,2.9-1.9,5.8-3,8.7c-1,2.7-2.2,5.4-3.4,8.1
		c0.2,0.2,0.5,0.5,0.7,0.7c2.8-3,5.5-6.1,9-9.9c1,15.9-1.7,30.4-3.3,45.3c2.3-3.5,4.5-6.9,6.8-10.4c0.9,3.4-0.7,7.7-6.2,16.4
		c3.4-1.6,6-2.9,9-4.4c-2.5,7.4-10.6,6.7-15.9,11.3c8.1-0.2,14.2-3,20.1-7.3c-2.4,11.9-7.9,23.1-6.9,36.4c1.5-4,2.6-7.3,3.8-10.5
		c0.3,0.1,0.5,0.1,0.8,0.2c0,5,0,10,0,15.2c3.1-2.5,6.1-5,9.8-7.9c0.2,5-6.2,6.8-4.1,12c2.8-1.8,5.1-3.3,7.4-4.8
		c0.2,0.2,0.4,0.4,0.7,0.6c-1.7,3-3.3,6-5.2,9.3c0.9,0.4,1.7,0.7,2.7,1.2c-1.9,4.5-5.6,5.6-9.6,6.7c4.1,0,8.2,0,12.5,0
		c-5.2,5-10,6-17.9,3.8c0.9-0.5,1.5-0.9,2.4-1.4c-1.6-0.8-3-1.6-4.9-2.7c2.8-1,5.2-1.9,7.6-2.7c-2.4-2-4.5-3.7-6.6-5.5
		c1.7-1.2,3.2-2.3,4.7-3.4c0-0.5-0.1-1-0.1-1.5c-8.1-2.5-16.1-4.9-24.2-7.4c-0.2,0.4-0.4,0.8-0.5,1.2c1,0.7,2,1.5,3,2.2
		c-7.9,0-15.7,0-23.5,0c0,0.2-0.1,0.3-0.1,0.5c2.7,0.7,5.4,1.4,8.1,2.1c0,0.3,0,0.5-0.1,0.8c-9.7,0.5-19.5,1.1-29.2,1.6
		c0,0.3,0,0.6,0,0.9c3.5,0.5,6.9,1,10.4,1.5c0,0.4,0,0.7,0.1,1.1c-15.4,0.3-30.1,3.2-43.5,12.3c9.9-0.5,17.6-7.8,27.6-5.8
		c-16.2,2.2-27.4,12.3-38.2,23.2c3.1-1.7,6.2-3.4,9.3-5.1c0.1,0.1,0.1,0.3,0.2,0.4C40.5,516.1,35.6,520.6,30.7,525.1z"/>
	<path d="M542.7,385.2c-1.8,1-3.2,1.8-5.1,2.9c4.7,11.3,9.9,22.6,14,34.3c3.6,10,4.3,20.6,3.3,31.2c-0.6,5.9-1.6,6.8-7.2,6.2
		c-1.8,11.2-5.3,21.8-12.9,30.5c4.4,3.5,8.6,6.8,12.9,10.2c-0.1,0.3-0.2,0.7-0.3,1c-1.9,0.2-3.9,0.5-7.1,0.9
		c11.3,6.2,16.3,16.2,21.2,26.6c-7.2-5.7-14.4-11.3-21.6-17c0.1-0.2,0.2-0.4,0.2-0.6c3.9,2,7.8,4,12.2,6.3
		c-11.8-12.1-24.4-21.6-41.1-24.7c10.2-1.8,18.3,5.4,28.4,5.9c-13.7-9.5-28.9-11.9-44.7-12.3c0-0.4,0-0.8,0-1.2
		c3.8-0.5,7.5-0.9,11.3-1.4c0-0.3,0-0.6,0.1-0.9c-9.8-0.5-19.6-1-29.4-1.5c0-0.2-0.1-0.5-0.1-0.7c2.5-0.7,5-1.4,7.5-2.1
		c0-0.2,0-0.4-0.1-0.7c-6.9,0-13.9,0-21,0c0.4-0.7,0.8-1.3,1.2-2.1c-0.4-0.1-0.8-0.2-1-0.2c-6.7,1.7-13.5,3.3-20.2,5.2
		c-1.4,0.4-2.5,1.7-3.8,2.5c1,1.1,2,2.2,3.2,3.6c-0.4,2.8-0.4,2.8-5.9,3.4c1.8,4.1,6.1,2.8,9.6,4.5c-2.2,0.9-3.9,1.5-5.8,2.3
		c0.8,0.5,1.5,1,2.2,1.5c-5.6,3.1-13,1.9-16.9-3.2c2.7,0,5.1,0,8.1,0c-3.5-2.3-6.5-4.2-9.5-6.2c0.2-0.4,0.4-0.7,0.6-1.1
		c1.5,0.5,3.1,1.1,4.8,1.7c-1.2-4.1-2.3-8.2-3.5-12.5c2.6,1.6,5.2,3.2,7.9,4.9c0.3-0.2,0.6-0.5,0.9-0.7c-2.2-3.6-4.4-7.2-6.7-10.9
		c3.7,0.2,5.1,5.2,9.5,4.3c0.2,0.3,0.6,1.3,1,2.2c0.2,0,0.3-0.1,0.5-0.1c-0.5-6-0.9-12.1-1.4-18.1c0.2-0.1,0.5-0.1,0.7-0.2
		c1.6,5.1,3.3,10.3,4.9,15.4c1.5-12.9-4-24.5-6.8-37c4,2.1,7.4,4.3,11,5.6c3.5,1.3,7.4,1.8,11.3,2.2c-4.6-5-13.3-3.7-16.6-10.9
		c2.2,0.9,4.1,1.7,6.1,2.6c0.2-0.3,0.4-0.5,0.6-0.8c-4.7-6.5-7.4-13.7-8.1-21.8c2.8,5.6,5.6,11,8.4,16.4c0.4-0.2,0.8-0.3,1.2-0.5
		c-2.1-14.6-4.3-29.1-3.4-44.6c3.3,3.7,6,6.8,8.7,10c0.2-0.1,0.3-0.3,0.5-0.4c-2.6-7.3-5.1-14.5-7.7-21.8c0.4-0.2,0.7-0.3,1.1-0.5
		c5,9.6,10,19.2,15.2,29.4c-5.4-0.4-9.5-3.2-13.5-6.4c-0.3,0.1-0.7,0.3-1,0.4c2.1,12.1,3.8,24.3,6.4,36.4c0.7,3.4,4.1,6.1,6,9.3
		c0.6,1,0.5,2.5,0.7,3.8c0.7,4.1,1.4,8.2,2.2,12.6c1.7-1.1,2.8-1.8,4.3-2.9c0.4,4,0.7,7.4,1,10.8c0.2,2.8,0.9,4.4,4.2,5.3
		c5.8,1.5,11.2,4.1,16.9,5.9c2.3,0.7,4.9,0.9,7.4,0.9c2.5,0,4.9-0.5,7.7-0.8c0.4-3.3,0.9-7.3,1.4-11.8c1,3.3,1.9,6.1,2.9,9.2
		c1.3-1.1,2.4-2,3.5-3c0.4,0.1,0.8,0.2,1.2,0.3c0,2.2,0.1,4.4,0,6.6c-0.1,2.5,0.7,4.1,3.4,4.7c2.6,0.5,4.2-0.1,5.2-2.7
		c2.2-6.1,4.5-12.3,7.4-18.5c-0.3,6.5-0.7,13.1-1,19.2c2.4-1.7,5.1-6.3,7-14c1.4-5.5,2.7-11.3,2.8-16.9c0.1-5.5-1.3-11-2.2-17.5
		c3.2,5.7,6.1,10.7,9,15.8c0.3,0,0.6,0,0.9-0.1c-0.6-5.7-0.9-11.5-2-17.1c-2.2-11.7-6.7-22.5-12.8-32.6c-2.7-4.5-5.7-8.8-9.4-12.9
		c1.3,0.4,2.6,0.8,3.8,1.2c0.2-0.2,0.3-0.5,0.5-0.7c-4.6-4-9.3-8-13.9-12c0.1-0.2,0.2-0.4,0.3-0.6c5.1,2.7,10.3,5.3,16,8.3
		c-9.2-12-20.1-21.3-31.6-29.9C518.5,357.4,530.1,371.5,542.7,385.2z"/>
	<path d="M410.6,435.7c-1.9-5.2-3.5-9.5-5.4-14.6c-4.4,15-14.3,23.5-29.1,26.7c5.3,2.3,10.3,4.2,15,6.7c4.6,2.5,8.9,5.6,13.3,8.5
		c-0.2,0.5-0.4,1-0.6,1.5c-3.9-0.2-7.7-0.3-11.6-0.5c8.9,6.2,16.5,13.4,21.7,23c1.4,2.5,2.8,5,3.8,7.9c-10-11.8-24.1-17.1-37.1-23.9
		c0.2-0.4,0.3-0.7,0.5-1.1c7.8,3.4,15.5,6.7,23.3,10.1c-7.5-8.5-17.2-14.2-27.3-19.8c5.9,0.8,11.9,1.5,18.2,2.3
		c-5.2-5.4-29.1-11.4-51.9-13.2c2.8-2.9,10-5.3,19.1-6.7c-6.6-1.7-13.1-0.4-19.9,1.4c1.1-15.4,2.2-30.5,10.9-43.8
		c14-21.3,35.7-15.7,47.1-2.6c9,10.4,10.8,23,11.3,36C411.8,434,411.5,434.3,410.6,435.7z M372,403.5c0-3.6-2.2-6.1-5.5-6.1
		c-3.3,0-6.1,2.8-6.1,6.1c0,3.3,2.8,6.2,6,6.1C369.6,409.5,371.9,406.9,372,403.5z M386.9,428.1c-1.4,2-0.9,4.8,0.9,6.5
		c0.9,0.8,3.5,0.1,4.1-0.6c1.9-2.2,1.4-5.6-1.2-6.9c-0.3-0.1-0.6-0.2-0.8-0.3C388.6,426.6,387.6,427.1,386.9,428.1z"/>
	<path d="M179.9,422.4c-1.6,4.2-3.2,8.4-4.8,12.6c-0.4-0.1-0.8-0.2-1.3-0.3c0.6-4.4,1.1-8.7,1.7-13.1c1.6-11.3,5.8-21.2,14.9-28.5
		c14.5-11.6,32-8.6,42,7c5.9,9.2,8.3,19.5,9.4,30.2c0.4,4.5,0.8,8.9,1.1,12.9c-6.3-0.5-12.7-1-19.2-1.5c0,0.2,0,0.5,0,0.7
		c6.2,2,12.4,3.9,18.5,5.9c-0.1,0.4-0.1,0.9-0.2,1.3c-18,0.9-35.3,4.3-51.4,13.3c5.7-0.9,11.4-1.8,16.9-2.6
		c-9.1,6.4-18.2,12.8-27.3,19.1c0.2,0.3,0.4,0.6,0.6,0.9c7.6-3.4,15.3-6.8,22.9-10.1c0.2,0.3,0.3,0.7,0.5,1
		c-12.6,6.5-25.5,12.2-35.6,22.7c4.8-13.1,13.8-22.5,25.4-30c-3.9,0.3-7.7,0.7-11.9,1c3.4-6,11.3-10.6,29-17.1
		C196.1,444.3,184.8,437.3,179.9,422.4z M222.4,403.3c0-3.6-2.8-6.4-6.5-6.5c-4,0-6.6,2.6-6.6,6.6c0,3.7,2.8,6.6,6.4,6.6
		C219.2,410.2,222.3,407,222.4,403.3z M192.4,432.3c1.7,2.2,5.1,2,6.4-0.4c0.1-0.2,0.2-0.4,0.2-0.7c0.4-2.5-1.1-5-3.7-4.9
		c-0.8,0-1.6,0.5-2.4,1.1C191.5,428.7,191.2,430.8,192.4,432.3C192.4,432.3,192.4,432.3,192.4,432.3z"/>
	<path d="M551.3,374.3c-14.4-6.8-27.8-13.2-41.2-19.5c0.2-0.4,0.3-0.7,0.5-1.1c11.5,1.1,22,4.9,31.8,11.7
		c-3.3-6.6-13.9-15.6-22.5-19.2c-0.7-0.3-1.4-0.6-2.1-0.8c-5.2-1.6-10.2-3.2-12.3-9.3c-0.6-1.9-3.8-3.4-6-4.3
		c-5.1-2-10.4-3.6-15.6-5.3c-1.1-0.4-2.2-0.7-4.1-1.3c3.8-1.1,6.8-1.9,9.7-2.8c0-0.2,0-0.5,0-0.7c-2.8-0.8-5.7-1.4-8.5-2.4
		c-7.1-2.3-14.1-4.7-21.2-7.2c-8.2-2.8-16.6-2.8-25-2.2c-1,0.1-1.9,0-2.9-0.8c4.5-0.9,9.1-1.8,13.6-2.7c-8.8-5.2-17.3-10.2-24-18.5
		c4.2,0.9,7.9,1.6,11.6,2.4c0-0.2,0.1-0.5,0.1-0.7c-4.9-2.9-9.7-5.7-14.6-8.6c0.1-0.3,0.3-0.6,0.4-0.8c5,2.2,9.9,4.4,14.9,6.6
		c0.2-0.3,0.3-0.6,0.5-0.9c-7.5-4.7-15-9.5-22.5-14.2c0.1-0.2,0.1-0.4,0.2-0.7c5,1.9,10,3.7,14.7,5.4c-2.8-5.1-13.8-12.5-25.6-15.2
		c-9.9-2.3-20.1-3.4-30.4-5.8c10.8-1.3,21.5-2.6,33-4c-14.3-5.9-28.8-7.5-43.3-8.5c-0.1-0.3-0.1-0.7-0.2-1c5.2-1.5,10.9-4.9,15.6-4
		c10.6,2.1,21.6,3.9,30.9,10.3c1.8,1.3,3.4,2.9,5.1,4.3c-0.1,0.4-0.3,0.8-0.4,1.1c-3.5,0.4-7,0.9-9.9,1.2c6.4,2.9,13.4,5.6,19.9,9.2
		c6.6,3.6,11.2,9.2,15.1,15.7c1.6,2.6,4.7,4.5,7.3,6.5c3.2,2.5,3.3,3.8-0.3,5.7c-1.8,0.9-3.8,1.4-6.5,2.4c2.6,1.1,4.6,1.8,6.4,2.9
		c3,1.8,5.7,4,8.6,5.9c1.3,0.8,2.7,1.4,4.1,2c4.1,1.5,8.2,2.9,12.4,4.2c6.5,2,13.1,3.8,19.7,5.6c2.7,0.7,5.5,1.2,8.2,1.9
		c3.9,1,4.2,2.1,1.6,5.2c-0.5,0.6-1.1,1.2-1.7,2c2.8,1,5.5,1.4,7.7,2.8c2.9,1.9,6.2,4,7.9,6.8c1.9,3.1,4,4.6,7.3,5.8
		c13.5,4.8,23,14.1,29.3,26.8C549.6,368.4,550.2,371,551.3,374.3z"/>
	<path d="M165.2,282.5c-4.4,2.4-8.9,4.8-13.3,7.2c0.1,0.3,0.1,0.5,0.2,0.8c3.7-0.6,7.4-1.2,11.1-1.9c0.2,0.2,0.3,0.4,0.5,0.7
		c-3.6,3-7.1,6.3-10.9,9c-3.8,2.7-8.1,4.8-12.1,7.5c5.6,0.5,10.9,4,16.6,1.2c-1.7,3.9-1.7,4-5.9,3.3c-10.3-1.7-20-0.3-29.6,4.1
		c-6.6,3-14,4.2-21.1,6.2c-1.1,0.3-2.3,0.6-3.5,1.6c3.4,0.8,6.8,1.6,11,2.6c-1.5,0.6-2.3,0.9-3.2,1.2c-5.7,1.8-11.4,3.6-17.1,5.4
		c-4.5,1.4-7.5,4.2-9.4,8.5c-0.7,1.5-2.6,3-4.2,3.4c-13.2,2.9-22.7,11-30.6,21.5c9.4-6.2,19.8-9.6,30.7-11.1
		c0.2,0.4,0.4,0.8,0.6,1.3c-13.2,6.4-26.4,12.8-40,19.4c0.4-1.7,0.5-3.5,1.2-5.1c6.6-15.3,17.3-26.1,33.6-31c1.2-0.4,2.8-1.1,3.2-2
		c3-6.9,8.6-10,15.4-11.8c0.6-0.1,1.1-0.3,1.9-0.6c-1.4-1.8-2.6-3.4-4.2-5.5c1.8-0.7,2.8-1.2,4-1.5c8.1-2,16.2-3.8,24.2-6
		c2.9-0.8,5.5-2.4,8.3-3.6c1.7-0.7,3.4-1.4,5.2-1.8c3.5-0.6,6.7-1.4,8.6-5.1c0.8-1.5,3.3-2.2,5.2-3.1c2.5-1.2,5-2.2,7.7-3.3
		c-3.6-1.8-6.8-3.3-10.3-5c1-1.2,1.2-1.9,1.7-2.1c5.5-2.9,8.8-7.8,12.5-12.5c7.5-9.6,18.2-15.7,32.1-19.1c-3.4-0.6-6.9-1.2-11.6-2
		c2-1.8,3.2-3.2,4.7-4.2c8.2-5.2,17.6-7,26.7-9.7c7.6-2.3,13.9,0.4,20.5,2.4c0.3,0.1,0.6,0.4,0.9,0.6c0.1,0,0.1,0.2,0.2,0.7
		c-14.8,1-29.4,2.9-44.3,8.6c11.6,1.8,22.4,1.3,32.8,4.8c-20.3,1.9-40.6,3.4-55.5,20c4.9-1.8,9.9-3.5,14.8-5.3
		c0.1,0.3,0.2,0.5,0.3,0.8c-8.2,5-16.3,9.9-24.5,14.9c0.1,0.2,0.2,0.5,0.4,0.7c4.7-2,9.3-3.9,14-5.9
		C164.9,281.9,165.1,282.2,165.2,282.5z"/>
	<path d="M275.6,233.1c-11.7-7.6-23.4-12.2-36.6-12.9c3.7,4.5,7.3,8.9,10.9,13.3c-0.3,0.4-0.6,0.8-0.9,1.2
		c-16.2-4.5-32.4-4.5-48.7-0.2c4.6-5,10.4-7,16.6-7.9c6.1-0.8,12.3-0.9,18.9-1.4c-3.7-2.4-7.2-4.6-10.9-7
		C238,213.7,264.9,216,275.6,233.1z"/>
	<path d="M361.9,218.2c-4.2,2.6-8,4.9-11.7,7.3c13.1-0.4,25.7-0.1,36.6,8.6c-16.4-4-32.7-3.7-48.9,0.7c-0.3-0.3-0.5-0.7-0.8-1
		c3.5-4.5,7.1-9,10.9-13.8c-13.1,0.4-24.9,4.8-36.2,13C320.1,217.3,347.5,213.1,361.9,218.2z"/>
	<path d="M326,217.3c-11.8,7.6-24.5,14.1-31.6,27.6c-8-13.3-21.2-19.5-33.7-27.2c6.7-1.6,23.3,4.6,32.8,15.3c4.9-3.7,9.5-8,14.9-11
		c5.2-2.9,11.2-4.4,16.8-6.5C325.4,216.1,325.7,216.7,326,217.3z"/>
	<path d="M410.2,503.7c4.6,3.5,9.3,7.1,13.9,10.6c0.2-0.2,0.4-0.3,0.6-0.5c-3.4-4-6.6-8.2-10.2-12c-3.7-3.9-7.7-7.5-11.7-11.1
		c-4-3.5-8.1-6.8-12.8-10.7c17.9,4,39.5,29.1,41.2,43.7c-3-2.5-5.6-4.5-8.1-6.6c4.4,9.9,6.9,20.2,6.5,31.1
		c-4.9-15.5-8.4-31.5-20.5-43.7C409.5,504.3,409.9,504,410.2,503.7z"/>
	<path d="M161.6,514.7c4.5-3.6,9.1-7.2,13.6-10.9c0.3,0.2,0.6,0.4,0.9,0.6c-11.1,12.1-15,27.2-18.5,42.8c-1.9-2.9-1.8-6.8,0.4-15.9
		c1.2-5,3-9.9,4.6-14.9c-0.3-0.3-0.6-0.7-1-1c-2.1,2.8-4.2,5.6-6.8,9.2c-0.8-13.3,21-40.7,39-44.5c-6,5.4-12.1,10.5-17.7,16.1
		c-5.5,5.5-10.4,11.6-15.5,17.5C161,514.1,161.3,514.4,161.6,514.7z"/>
	<path d="M149.8,323.8c4.6-3.4,9.2-6.8,13.8-10.2c0.2,0.2,0.4,0.3,0.6,0.5c-3.8,4.2-7.5,8.5-11.6,12.4c-4.2,4-8.9,7.6-13.6,11.5
		c6.9-1.9,11.5-7.1,17.1-11.8c-6.8,13.1-17.6,17.6-27.9,12.2c8.5-3.1,15.1-8.5,21.5-14.4C149.7,324,149.8,323.8,149.8,323.8z"/>
	<path d="M457.7,338c-9.8,6-24-0.1-29.3-12.7c6.7,7.1,12.9,13,22.5,13.5c-13.9-4.5-22-15.1-31.1-26.3c1.3,0.2,1.7,0.2,1.9,0.3
		c6.6,5.9,13,12.1,20,17.7c3.3,2.7,7.6,4.3,11.4,6.2C454.3,337.3,455.6,337.5,457.7,338z"/>
	<path d="M444.4,351.8c6.7,4.4,11.5,10.2,13.5,18.2c-0.7-0.6-1.5-1.2-2.2-1.9c-0.3,0.1-0.6,0.2-0.9,0.3c2,5.8,3.9,11.5,6.3,18.3
		c-1.5-1-2.8-1.5-3.3-2.5c-1.5-2.8-3-5.6-3.9-8.6C451.4,367.4,450,358.8,444.4,351.8z"/>
	<path d="M340.8,411.4c0.7-15.9,12-28.7,28.7-28.5C354.7,387.2,345.8,397.2,340.8,411.4z"/>
	<path d="M245.2,411.8c-4.6-13.7-12.7-23.3-26.6-28.2C231.6,381.7,247.1,398.2,245.2,411.8z"/>
	<path d="M149.8,323.8c0,0-0.1,0.2-0.1,0.2c-3,1.6-6,3.3-9,4.7c-1.1,0.5-2.4,0.6-3.8,0.4c9.9-5.4,16.5-14.1,23.3-22.5
		c0.4,0.2,0.7,0.5,1.1,0.7c-1,2-1.7,4.2-3,6C155.6,316.9,152.6,320.3,149.8,323.8z"/>
	<path d="M448,329.3c-8.2-0.1-20.2-11.9-22.6-22.3C432.8,315.1,437.7,324.9,448,329.3z"/>
	<path d="M543,559.2c3.9,7,3.5,14.1,1,21.2c-0.3,0-0.7,0-1,0C543,573.5,543,566.5,543,559.2z"/>
	<path d="M143.2,344.2c-4.5,5.1-8.9,10.3-13.4,15.4C132.8,353.3,136.5,347.5,143.2,344.2z"/>
</g>
</svg>
