<?xml version="1.0" encoding="utf-8"?>
<!-- Generator: Adobe Illustrator 24.2.3, SVG Export Plug-In . SVG Version: 6.00 Build 0)  -->
<svg version="1.1" id="Layer_1" xmlns="http://www.w3.org/2000/svg" xmlns:xlink="http://www.w3.org/1999/xlink" x="0px" y="0px"
	 viewBox="0 0 595.3 841.9" style="enable-background:new 0 0 595.3 841.9; fill: #215342;" xml:space="preserve"
	 height="375" width="450" transform="translate(-30, -70)">
<g>
	<path d="M266.2,552c-0.4-2.1-0.6-4.7-3.2-4.9c-1.4-0.1-4.4-1.7-4.2,2.9c-4.2-5-2.2-9.6-1.5-14.1c0.1-0.6,0-1.5-0.4-1.7
		c-0.4-0.2-1.6,0-1.7,0.3c-2.8,5.6-3.1,1-4-1.6c-2.5,1.8-3.6,4.9-7.1,5.2c1.2,1.1,3.4,0.2,3.1,2.2c-0.1,0.6-1.1,1.6-1.4,1.5
		c-1.1-0.4-2.4-0.9-3.1-1.7c-1.9-2.3-2.6-4.9,0.4-7.1c-2.9-1.8-4.4-3.7-1.5-6.7c0.2-0.2-1.9-2.5-3.4-4.4c0.6-1.2,5.3,0.5,4.8-3.6
		c-0.2,0-0.5-0.1-0.6,0c-2.2,1.4-5.1,3.9-6.9,1c-1.6-2.6,2.8-3.4,4-5.6c0.7-1.3,4.6-0.9,2.3-3.7c-1.6-1.9-3.6-5-6.8-0.9
		c-0.5-1.4-0.9-2.3-1.2-3.3c-1,0.1-2,0.3-3.4,0.5c2-4.6,3.8-8.7,9-9.8c-4.4-5-7.1,4.8-11.2,0.1c-0.2-3,3.1-3.9,4.5-6.1
		c6.4-9.9,12.5-20,19.1-29.8c1.7-2.6,4.5-4.6,6.9-6.7c0.7-0.6,1.8-0.9,1-1.9c-0.4-0.5-1.7-0.8-2.2-0.5c-6.6,4.1-11.4,9.9-15,16.5
		c-1.9-3.6-0.3-7.5,6.5-15.5c4.1-4.8,10.2-6.6,15.3-10.4c-3-3-5.6,1.6-9.2-0.8c6.2-2.4,11.8-4.5,17.3-6.5
		c-2.1-7.6,11.1-2.4,8.8-10.1c2.2-1.2,6.1,1.8,6.4-1c5.8-6,12.6,2.6,18.4-3.5c1.3,0.5,3.1,1.1,5.2,1.9c0.2-1.1,0.4-2.2,0.7-3.8
		c2.6,1.7,4.8,5.6,8.1,1.2c3,5.8,7.2,0.4,10.8,1.9c-0.1,0.7-0.2,1.6-0.3,2.8c1-0.6,1.8-1,2.8-1.5c0.9,1.5,2.4,2.2,3.4,3.5
		c4.2,2.1,8.3,4.3,12.8,6.6c-1.4,0.7-2.6,1.3-5.2,2.6c4.9,0.6,8.4,1,13,1.6c-1.7,0.7-2.5,1-3.5,1.5c1.6,0.5,2.8,0.8,5.2,1.6
		c-2.7,1.1-4.3,1.8-6.3,2.7c1.2,0.5,2.1,0.9,3.4,1.4c-0.9,0.5-1.5,0.9-2.5,1.5c3.2,1.4,6.2-2.8,8.9,0.8c-3.2,2.5,0.4,3.7,2.1,5.8
		c-3.5-0.7-6-1.8-9.6,0.5c7.7,1.4,12.6,6.1,18.3,9.4c-0.6-0.2-1.2-0.5-3.3-1.3c5.3,5.5,8.5,10.5,8,17.4c-4.2-4-8.3-7.8-12.4-11.7
		c8.2,16.2,4.3,31.7-2,46.4c-6.2,14.3-12.2,29.1-25.2,40.1c2.9,6,11.9,5.7,16.4,11.5c-1.6-5.8-3.1-11.7-4.8-17.5
		c-0.7-2.4-0.1-3.7,1.8-5.1c2.7-2.1,5.4-4.4,4-8.9c2.8,0.9,5.1,1.6,7.3,2.3l-0.1-0.1c4.4,8.8,9.1,9.9,17.3,4.4
		c3.6-2.4,8.1-2.2,11.9-5.1c7.7-6,7.9-13.9,7.1-22c-0.3-2.9-3.4-5.4-5.4-8.4c-1.6,2,1.1,6.5-2.6,5.2c-3.7-1.3-7.9-4-8.2-9.1
		c-0.1-2.8,2.5-2.7,4.3-3c3.4-0.6,4.3,2.8,5.9,4.6c4.9,5.4,12,9.3,12.4,17.7c0.3,5.3-3.4,9-6.7,11.9c-4.9,4.3-6,6.8,1.1,9.1
		c0.4,0.1,0.8,0.5,1.2,0.8c0.2,0.2,0.2,0.5,0.7,1.5c-2.5-0.6-4.6-0.7-6.4-1.6c-5.2-2.7-8.4,1-12,3.4c-0.5,0.3-0.8,2.1-0.5,2.2
		c2.6,1.6,5.1,4.4,8.4,3.5c6.7-1.8,12.9-4.6,16.1-11.7c0.5,0.7,1.1,1.4,2.5,3.4c0.2-14.1,4.4-27.4-7-38.2
		c-14.2-13.4-21-31.1-25.6-49.2c-2.3-9.1-8.7-15.8-10.7-26.7c4.2,6.1,7.3,10.7,10.5,15.3c-15.2-29-29.2-58.4-40.7-89.7
		c1.1,0.4,1.6,0.6,2.3,0.8c-4.6-10.9-10.8-20.9-12.2-32.8c-1-8.7,0.3-16.8,6-23.5c3.2-3.8,7.2-7,11.2-10.2c6.9-5.5,13,0.2,19,2.2
		c2.5,0.8,5,0,7.4,1.7c-0.7,0.4-1.4,0.7-2,1.1c4.2,3.7,10,5.3,14,11c-4.2-2.1-7.2-4.4-12.2-3.7c4.1,3.1,7.4,5.6,11.3,8.6
		c-1.8,0.5-2.9,0.8-4.4,1.2c3.4,1.9,6.6,3.7,11.6,6.6c-3.5-0.4-4.8-0.5-6.2-0.7c12,4.7,17.1,16,23.3,25.7
		c6.8,10.7,2.5,22.7,1.5,34.3c-0.3-1.9-0.5-3.7-0.8-5.6c-0.2,0-0.4,0-0.5,0.1c0.8,8.2,1.6,16.5,2.4,24.7c-1-20.2,10.7-39.7,3.3-60.1
		c4.8,7.8,6.8,16.2,6,25.1c-0.8,8.7-2.1,17.4-2.7,26.2c3.2-13.9,10.4-27.1,6.5-42c-3.5-13.4-6.7-26.9-14.4-38.9
		c2.4,3.2,4.8,6.4,7.5,10.1c-1.6-13-24.6-38.3-41.8-45.9c-20-8.8-41.2-5.5-63.6-5.4c2.6-0.8,3.8-1.5,5.1-1.6c19.5-1.4,39-2.5,58,3.1
		c13.4,4,21.6,16,32.9,23.2c7.3,4.7,18,6.1,20.6,15.3c2.7,9.6,7.2,18,12,26.4c9.5,16.8,19.2,33.6,36.9,43.6
		c-1.6-0.7-3.2-1.4-6.2-2.7c5.3,4.7,9.6,8.3,13.8,12c-0.2,0.3-0.4,0.6-0.6,0.8c-5.3-2.6-10.5-5.2-16.5-8.1
		c8.1,6.4,16.1,11.8,21.2,22.2c-3.1-2.7-5-4.4-6.5-5.6c13.4,24.1,23.4,50.4,34.5,76.2c1.3,3,1.8,6.3,3.3,9.1
		c1.9,3.6,4.6,6.4,9.5,5.5c11.6-2.1,21.7,0.2,28.8,10.5c2,2.9,5.1,4.3,8.7,6.6c-2.1,0-3.4,0-4.9,0c1.7,4.5,7.6,5.3,8.1,10.3
		c-0.4,0.1-1,0.1-1.9,0.3c7.1,10,15.7,18.8,18.8,31.2c-1.3-1.8-2.6-3.6-4-5.4c4.3,13.6,4.8,26.9,0.9,40.1c0.1,0.1-0.9-0.5-2.2-1.2
		c0.3,1,0.5,1.7,0.9,3.4c-2.6-2.8-4.9-4.8-6.1-9.8c2,2.6,2.9,3.7,4,5.1c0.6-2.2-2.6-3.6-0.8-5.8c0.7,0.8,1.3,1.5,1.8,2
		c4.1-12.6,1-24.7-3.8-37c1.4,0,2.3,0,3.5,0c-4.3-8.5-9.7-15.9-17.5-23.1c1.1,3.7,2,6.2,2.7,8.7c1.3,4.4,5.2,7.8,3.3,13.6
		c-2,6.1,6.6,9,6.4,15.3c-0.1,2,0.9,4,1.5,6.3c-0.9-0.5-1.6-0.9-3.5-2.1c4.1,10.6-4.8,16.8-5.6,25.4c0.3-1.1,0.7-2.2,1-3.3
		c1.4,0.1,1.6,3.1,3.1,1.7c0.9-0.7,0.6-2.8,0.9-4.4c4.4,1.8,4.6,5.5,4.7,10.7c-1.6-2.2-2.5-3.4-3.6-5c-0.3,1-0.5,1.7-0.4,1.3
		c-6,1.5-11.9-1.4-17.4,2.3c0.3,0.3,0.7,0.6,1.3,1.1c-31.8,0-63.3,0-95.5,0c-1,1-2.5,2.7-5.7,1.8c2.4-2,4.4-3.8,6.7-5.7
		c0.6,0.7,1.1,1.3,1.7,2.1c6.1-5.6,7.6-13.9,12.1-20.3c2.6,1.2,2.7,1.8,1.3,5.1c-5,11.2-1.8,16.1,10.4,15.6
		c16.6-0.6,29.2-10.5,28.8-23.3c-0.2-6.1-3.1-11.5-7.1-16.8c-1.1,3.3,0.5,8.1-5.4,7.6c0-2.2,0-4.3,0-6.8c1,0.6,1.6,1,3.9,2.4
		c-5.4-8.5-7.7-15.9-3.5-24.5c1.2,1.9,2,3.2,3.3,5.3c2.9-4.9,8.6-7.8,6.4-14.8c3.2,0.8,4.2,5.1,8.2,4.5c-2.3-3.6-5.4-6.8-5.4-13.8
		c11.4,11.7,16.6,23.6,15.6,39c1.1-2.3,1.8-3.8,3.1-6.6c0,3.6,0,5.6,0,8c3.4-5.4-0.8-21.8-6.8-28.3c-0.7-0.8-1.8-2.2-1.5-2.7
		c1-1.8,2,0.7,3.2,0.4c-0.5-5.7-4.1-9.6-8.6-13.6c2.3,0.5,3.9,0.8,6.7,1.4c-3-1.6-5-2.7-7-3.8c0.1-0.3,0.3-0.6,0.4-0.9
		c2,0.5,4,1.1,8.5,2.3c-6.2-4.2-8.9-8.3-12.1-11.7c-8.5-9.1-19.8-7-30.3-4.7c-3.2,0.7-5.5,4.7-8.4,7c-6.4,5.1-12.3,6.5-19.1-0.4
		c-8.4-8.6-21.3-9.1-27.3-1.7c1.2,0.1,2.3,0.2,4.5,0.4c-4,1.6-6.9,2.9-9.9,4.1c0.1,0.3,0.2,0.5,0.2,0.8c1.9-0.3,3.8-0.6,6.7-1.1
		c-1.4,1.2-2.1,1.8-3.1,2.6c4.1-0.8,7.7-1.8,11.4-2.3c3.7-0.5,7.6-1.2,11.6,2.6c-5.3,1.4-10.1,2.7-15.1,4c1.1,2.3-0.3,2.9-2.1,3.7
		c-7.4,3.3-14.6,6.9-20.1,13c-1,1.1-1.4,2.5-1.2,4.5c1.1-1.1,2.3-2.2,3.7-3.5c2.5,4.1-1.3,7.5-0.6,11.4c0.8,0.2,1.7,0.3,3.4,0.7
		c-9,7.7,0.7,15.5-1.6,23.4c3.3-0.7,1-5,4.3-4.8c-3.7,8.5-7,17.2-11.1,25.4c-1.9,3.8-0.2,5.7,2.3,6.7c9.9,4,26.7-3.7,30.5-13.7
		c4.9-12.9,1-24.4-5.2-35.7c-1-1.8-2.1-3.9-4.7-3.1c-2.5,0.8-3.7,2.7-3.7,5.4c0,5.9,2.5,11,5.4,16c0.8,1.4,1,3.5,3.3,3.5
		c2.5,0,1.9-2.4,3.2-4.1c1.2,7.6,3.1,14.8-2.3,21.5c1.2-12.8-9.5-20.7-11.9-32.2c-2.7,3.4-2,8.2-5.9,10.3c0.3-4.4,0.3-8.8,1-13.1
		c1.3-8.5,6-13.4,15.3-12.7c-1.8-2.7-5.9-3.7-16.7-4.1c1.1-1.9,4.5-2.5,2.9-5.8c7.1-0.8,12.2,3,17.8,6.6c0.4-1.7,0.7-2.9,1.1-4.3
		c3.4-0.3,4.8,3.3,7.8,4.2c-0.5-4.2-4.4-5.7-6.5-8.6c4-3.3,6.8-0.1,11.4,2.7c-2.6-3.5-3.9-5.4-5.9-8.1c2.6,1.5,4.4,2.5,6.2,3.4
		c2.8-2.7,0.5-6.3,1.3-9.6c-1.1-0.5-2.8-1.3-4.5-2.2c3.4,0,7.4-1.6,8.4,3.9c0.4,2.1,2.5,0.6,3.7,0c1.7-0.9,3.7-1.8,4.7,0
		c1.1,2-0.3,3.8-2.4,5.2c0-1.2,0-2,0-4.9c-1.9,5.3-3.1,8.7-5.3,15c8.1-9.9,15.6-14.6,26.2-11.9c-11.8,8.2-17.7,20-21.3,33.3
		c1.4,1,3.7-2.9,4.4-0.4c0.5,1.9-1,4.7-2.3,6.6c-2.1,3.3-4.7,6.2-7.2,9.3c2.4,1.1,5.6-3.4,5.8-0.1c0.4,6.8-3.7,12.4-8.7,16.9
		c-0.4,0.3-2-0.7-3.4-1.3c-4.5,5.7-6.7,13.8-15.8,18.4c1.6-2.1,2-2.8,2.9-4.1c-4.7,0.8-9,1.5-13.2,2.4c-7.7,1.7-14.3-1.4-21.5-3.3
		c-9.7-2.5-19.1,2.8-28.7,4.8c-5,1.1-9.7,2.9-14.2,5.4c-5.5,3-11.6,4-17.7,2c-10.9-3.7-22,0.7-32.3-1.3c6.5-0.4,13.6-0.8,20.7-1.2
		c0-0.3,0-0.7,0-1c-13.6,0-27.2,0-40.7,0c0,0.4,0,0.9,0,1.3c4.4,0,8.8,0,13.1,0c-9.2,0.5-18.3,1-27.5,1.6c0,0.2,0,0.5,0,0.7
		c3,0.2,6,0.3,8.9,0.5c-17.2,2.8-34.4,3-53.7,2.6c6.3-0.9,10.7-1.5,17.4-2.4c-36.2-7.8-70.6-8.3-104.7-7c1.1,0.6,2.7,1.5,5.3,2.9
		c-5.2,0.2-9.4,0.9-13.4-1.2c-6.9-3.7-12.7,1.9-19.2,2.3c-7.5,0.4-14.7,0.9-22.1-1.2c-3-0.8-6.9,1.7-10.4,1.9
		c-16,0.7-32,1.2-48.1,1.6c-9.9,0.2-19.8,0-29.6-1.3c12.5,0,25.1,0,39.9,0c-7-3-11.5-5.4-16.4-6.8c-2.1-0.6-5,4.8-7-1.4
		c-0.7,2.5-2.3,2.4-3.7,3c-1.8-2.3-3.5-4.5-5.6-7.2c-0.6,1.1-1.3,2.2-2,3.5c-1.2-2.4-2.3,0.2-3.1,0.3c0.7-19.9-1.7-40.7,16.2-57.4
		c-5.7,1.9-8,5.2-11.1,7.6c-1.7-14.6,28-36.1,45.3-32.7c-0.6-0.8-1.1-1.5-1.5-2.1c6.5,8.1,10.2,0.2,15.4-2.2
		c22.4-9.8,23.5-31.9,30.2-50.7c2.7-7.6,4.9-15.3,7.4-22.9c2.6-7.6,6.1-14.8,11.5-21c-5.3,2.6-8.9,7.1-13.7,12.5
		c3.4-9.6,9.3-15.7,15.9-22.9c-6.3,2.6-11.5,4.8-16.6,6.9c-0.2-0.3-0.3-0.5-0.5-0.8c9.1-6.4,18.3-12.8,27.4-19.2
		c-0.1-0.2-0.3-0.5-0.4-0.7c-2.5,0.9-4.9,1.8-10.1,3.7c6.4-3.7,10.3-5.9,14.2-8.1c-0.1-0.2-0.2-0.5-0.3-0.7
		c-3.9,1.3-7.9,2.6-11.8,3.9c-0.1-0.3-0.2-0.6-0.4-0.8c3.9-1.9,7.9-3.8,11.8-5.7c14-6.9,23.3-18.6,31.6-31.2
		c6.5-9.7,11.2-20.5,21.7-27.3c3.6-2.3,5-8.2,7.4-12.4c17.7-30.2,47.9-43.3,87.5-37.7c6,0.8,11.9,2.2,17.7,4.8
		c-6.2-0.4-12.4-0.8-18.6-1.3c-23.4-1.8-46.1-0.4-65.8,14.8c-11.2,8.6-20.4,19.3-25.1,32c-5.8,15.7-10.3,32.4-6.5,49.6
		c1.8,8,0.8,15.8,1.3,24.4c0.6-1.2,1.1-2.1,1.5-3c0.1,6.2,3,11.8,0.3,17.5c3.3,0,2.1,1.9,1.7,3.3c-2.3,7.8-5.4,15.4-5.7,23.7
		c0,1.1,0.2,2.3,0.3,4.2c0.8-1.3,1.2-1.9,2-3.2c0,3.9,0,7,0,10.1c0.5-0.3,0.9-0.5,1.4-0.8c1.1,2.9,2.2,5.7,3.3,8.6
		c-0.4-6.4-4.3-12.1-3.1-19.7c2.8,6.9,5.3,13,7.6,18.6c11.8-27.7,3.5-58.5,12.8-86.9c-2.6-0.2-2.7-2.2-2.2-4.1
		c4.3-16.1,9.6-31.5,26-39.7c1.4-0.7,4-1.7,3.2-3.6c-1.1-2.8-4.4-1-7.7-2.4c5.3-0.5,6.5-5.4,12.6-6.5c-2.2-0.2-2.9-0.3-3.6-0.3
		c0.2-0.4,0.5-0.7,0.7-1.1c2.1-0.4,4.1-0.9,6.7-1.4c-1.1-0.7-1.9-1.2-2.8-1.8c2-1.5,4-2.9,6.1-4.5c-0.5-0.3-1.1-0.6-2.1-1.1
		c1.4-0.5,2.5-1,3.9-1.5c-0.7-0.6-1.2-1-2.3-1.9c10.5-1,20.2-5.2,30.1-0.5c11.2,5.2,10.7,15.7,11.2,26.3c0.9-1,1.3-1.5,1.9-2.1
		c0.2,0.4,0.4,0.7,0.3,0.9c-0.6,8.7-4.6,17-5,25.2c-1,21.5-20.6,28.5-30.8,42.6c-3,4.1-7,7.6-9.8,12.1c2-1.7,4.1-3.4,6.1-5
		c0.2,0.2,0.5,0.4,0.7,0.6c-3.1,4.5-6.3,9-9.4,13.6c0.2,0.2,0.5,0.4,0.7,0.5c2.7-2.2,5.3-4.4,10-8.3c-12.8,21.7-20.3,43.2-30.7,63.3
		c2.2-13.2,5.4-26,6-39.6c0.7-15.2-8.1-24.4-16-35.7c-3.7,8.6-4.7,17.4-3.9,27.3c2.7-4,4.9-7.2,7.9-11.5c0.2,8-10,11.6-5.9,21.5
		c0,0-0.2,2-0.4,4.1c0.2,0.1,0.3,0.3,0.5,0.4c0.1-0.5,0.3-1,0.4-1.5c0.3,0.2,0.5,0.3,0.8,0.5c-0.2,1.6-0.5,3.1-0.8,5
		c0.9-1.2,1.7-2.3,2.4-3.2c-1.7,20.6-1.1,41.4-5.6,64.1c7.5-8.1,7.6-16.9,13.3-25.4c-1.2,4.4-1.8,6.9-3,11.1
		c4.6-7.5,6.7-14.4,13.9-20.4c-6.4,12.2-10.4,23.3-18.1,32.3c-5.7,6.7-11.4,13.7-16.1,20.8c-6.3,9.6-3.8,21.1,0.7,31.5
		c1.4,3.2,3.6,5.9,5.9,9.6c-5.4-2.7-8.4-6.7-11-11.5c-5.2,4.9-4.1,10.4-2.6,16.3c-1.3-1.7-2.6-3.4-4.3-5.5c-4.5,7.2-1.6,13.8,1,20.2
		c5,12.2,19.6,20.6,34.5,19.9c-2.4-0.5-4.4-0.9-5.8-1.2c-4.8-11.9,8.6-6,10.7-11.4c8,4.4,11.1-4,16.5-5.6c-1.4-7.1-7.5-5.7-12.7-7.1
		c4.4-3.4,7.6-2.9,10.7,0.2c1.2,1.2,3.5,2.4,4,1.4c0.9-1.9,3.7-3.1,2.9-5.7c-0.6-1.8-0.4-3.4,1.2-4.4c0.9-0.6,2.4-1.3,3-0.9
		c1.5,0.8,2.1,2.5,1.6,4.8C265,553.3,265.6,552.6,266.2,552c1.4,2.8-0.6,5.6-0.6,8.8c1.6-0.7,2.6-1.1,3.5-1.5
		c1.8,1.3,0.3,4.2,2.8,4.8c1.2-1.8,1.1-4.9,3.7-5.2c3.1-0.4,2.9,2.9,4,5.4c0.9-2.8,1.4-4.7-0.1-6.9c-0.8-1.2-4-0.3-2.8-2.8
		c1.2-2.5,2.7,1.3,4.2,0.3c-0.3-4-10.1-10.6-13.9-9C269.3,548.4,268,550.3,266.2,552z M123.4,428.9L123.4,428.9
		c-0.9,2.6-1.8,5.3-2.9,8.5c3.1-3.7,5.8-6.9,9.7-11.4c-0.4,5.9-0.2,10.3-1,14.5c-0.8,4.3-2.3,8.5-3.8,12.6c-1.5,4-4.6,7.3-4.4,11.2
		c19.3-20.8,21.7-48.1,26.8-74.6c14.8-6.9,8.9-25.3,18.7-35.3c-5,6.4-12.8,9.2-19.6,15.2c2.1-0.6,2.9-0.8,5.4-1.4
		c-5.2,4.4-9,7.7-13.3,11.3c1.6-0.1,2.4-0.1,4.4-0.3c-4.6,5.1-10.2,8-12.8,13.6c1.3-0.5,2.5-1,5.2-2.1c-15,20.8-19.7,43.8-25.6,66.3
		c2.4-5.2,4.1-10.7,6.2-16C118.3,436.8,118.5,431.5,123.4,428.9z M106.1,535c0.6-2.3-0.8-5.2,1.9-7.8c2.1,4.3,4.2,8.2,5.8,12.3
		c0.8,1.9,3.2,4.6,0.7,6.3c-3.1,2-4.8-0.9-6.7-3.2c-1.4-1.7-3.8-4-6.2-2.1c-2.6,2.1-0.4,4.2,0.9,6.4c1.3,2.3,4.7,0.9,5.1,2
		c2.6,6.6,8.4,10.6,13.1,16.5c-1.4-0.2-2.1-0.2-2.9-0.3c0.2,0.7,0.4,1.2,0.8,2.5c-7.4-7.3-11.4-16.7-20.5-21.8
		c-2.3,9.6-8.4,19.2-0.8,28.7c10.5,13.1,24.7,8.5,38,7.4c-2-5.1-8-8.7-4-16c2.2,7.2,3.6,14.2,10.6,18.1c0-1,0-1.7,0-2.5
		c1.6,0.8,3,1.5,4.8,2.4c-0.5-2.1-2.2-3.3-1.1-5.2c1.3,0.6,2.6,1.2,4.3,2.1c-8.2-10.9-15.1-21.9-16.8-35.6
		c-3.4-5.9-6.8-11.8-10.3-17.6c-2.9-8-9.8-12.1-16.3-16.4c10.7-4.9,18.1,0.5,24.7,8.3c-1-2.8-2.8-5.2-3.5-7.8
		c-0.7-2.7-4.9-5.6-2.1-7.7c2.9-2.2,7.4,2.5,11.2-0.1c0.1,0.5,0.5,1.3,0.3,1.6c-1.8,2.4-0.2,4.6,0.3,7.1c2.3-0.1,4.4-0.3,6.9-0.4
		c-1.1,2.5-4,3.6-3.5,6.7c2.5-2,4.9-3.8,8.1-1.4c-1.5,1.6-2.8,3.1-5.2,5.7c7.4-3.1,12.4-4.3,3.6,7c6.9-6,10.8-10.2,17.2-9.8
		c-0.2,1.1-0.4,1.9-0.6,2.8c1.7,0.4,3.2,0.7,5.6,1.3c-5.2,2.2-10.5,1.6-14.2,6.1c6.4-1.5,12.4-2,15.1,4.7c2.9,7.2,1.9,16,8.9,21.7
		c-6.6-3.9-10.2-9.4-10.5-17c-0.1-3-1.1-6.1-4.8-6.4c-3.6-0.3-5.6,2.2-7.1,5.2c-3.3,6.6-4.5,13.8-5.3,20.9
		c-0.7,6.1,3.1,11.1,7.3,15.5c-3.1-4.3-2.4-8.6,0.6-13.3c-2.5,0.5-5.1,1.1-5.1-0.5c-0.2-5.9,1-11.6,3.9-18.3
		c0.3,4.5-2.1,9.8,2.1,10.1c5.2,0.4,5-6.5,8-10c4.1,9-8.5,13.9-4.7,22.5c0.2-1.8,0.3-3.4,0.7-6.8c0.7,2.8,1,3.9,1.4,5.6
		c1-2.9,1.9-5.2,3.4-9.5c-0.1,3.2-0.2,4.2-0.3,6.3c0.7-1.7,1-2.4,1.7-4c0.6,4.8,0.9,8.8,1.8,12.7c0.9,4,3.8,6.3,7.9,6.7
		c2.5,0.2,5.1,0.3,6.3-2.5c1.6-3.6,1.3-6.8-1.8-9.8c-2.1-2-4.1-4.6-3.4-9.2c2.3,4.1,3.7,7.6,7.6,9c0.1-0.8,0.2-1.4,0.4-2.4
		c1.3,1.5,2.4,2.7,3.5,3.9c-4.7-8.2-2.2-17.8-5.4-25.8c-2.2-5.4-0.1-12.5-6-16.3c-8.8-5.7-16.6-13.3-27.9-14.3
		c-1.9-0.2-3.8-0.9-1.4-3.2c-1.5-0.7-2.8-1.3-4.6-2.1c5.9-3.6,11.4-1.6,18.1-1.2c-1.9-1-2.8-1.5-3.6-2c0.2-0.3,0.4-0.6,0.6-0.8
		c2.1,0.6,4.2,1.3,8.2,2.4c-5.9-4.1-10.6-5.9-15.9-6.2c3,0,6,0,9.1,0c-5.7-5.5-21.2-4.1-27.9,2.7c-2,2.1-4,2.1-6.4,1.5
		c-5.3-1.4-10.2-3.8-14-7.7c-3.3-3.5-7.2-4.3-11.6-4.3c-8.8,0.1-17.2,1.4-24.3,8.7c2-0.4,3.2-0.5,3.8,1.2c-2.7,2-5.4,3.9-8,5.9
		c5.2,7.3-4.7,5.3-5.3,9.1c1.3-0.1,2.7-0.2,4.4-0.3c-1.2,1.7-2.1,3.2-3.4,5.1c1.6-0.5,2.4-0.7,2.9-0.9c-2.7,4.9-5.3,9.7-9.4,17.1
		c6.1-5.7,7-11.9,11.8-14.8c-0.2,4.2-2.7,7.3-5.8,11.3c7.8-6,11-4.1,15.1,7.9c1.8-3.6,4-6,8.7-3.5c-2.2-4.6-4.2-8.7-6.1-12.9
		c-0.3-0.8-0.1-1.8-0.1-2.7c0.9,0.2,1.7,0.4,2.6,0.6C99.2,522.1,100.2,531,106.1,535z M353.1,478.7c-2.2-9.1-7.3-13.4-14.9-13.9
		c-15.6-1.1-31.3-1.5-46.9-2.6c-25.4-1.8-32.3,15.1-29.4,35.7c0.4,3,1.8,5.9,5.3,7.8c1.6-6.8,5-5.9,8.9-2.3c1.2,1.1,2.6,1.1,4.1,0.3
		c3.9-2.2,8.4-3.9,12.1-0.6c4.4,4,7.4,9.2,6,15.7c-2,9.1-9.9,8.6-16.7,9.8c3.9,4.6,14.4,2.1,18.2-4.3c4.3-7.2,0.7-13.8-2.6-19.9
		c-3-5.4-8.3-6.6-14.3-5.7c-3.1,0.5-6.2,0.5-9.3,0.7c-4.1,0.3-6.4-1.9-7.9-5.3c-1.6-3.7,0.9-6.6,1.8-10.5c1.6,2.8,2.7,4.9,4.2,7.5
		c0.2-1.8,0.4-2.9,0.6-4.6c5.1,7.9,7.8,9.1,16.8,5.7c11.4-4.3,22.8-4.5,34.4-1.8c6.6,1.5,13.2,1.8,19.9,1.5c2.7-0.1,5.8-0.7,6.2-3.7
		c0.6-4.4,3.8-8.8,0.5-13.5C350.7,475.6,351.4,476.5,353.1,478.7z M166.9,379.3c1.7-19.2,11.6-34.1,17.1-50.5
		c-6.8,8.6-8.9,19.6-14.4,28.9c-6,10.2-8.4,21.6-7.4,33.6c0.9,12.3,1.3,24.6,1.6,37c0.5,21.4,3.1,42.4,13.6,61.4
		c5,9,8.7,18.9,15.7,26.9c-0.8,0.5-1.6,0.9-2.7,1.5c2.5,5.4,4.9,10.6,7.6,16.4c1.4-2.3,3.7-4.3,3.4-5.8c-1.2-6.3-2.6-12.7-4.8-18.6
		c-6.6-17.5-20.1-32.1-21.4-52c-0.7-11-2.8-22,1.5-32.8c1,22.2,6.2,43.4,13.8,64.1c-8.4-37.8-14.6-76-22.2-112.6
		C168.6,376.3,168.1,377.2,166.9,379.3z M26.8,578.9c2.7-9.6-0.6-18.3,2.8-26.9c3.2-8.1,3.4-17.5,12.5-22.4
		c-1.3,0.1-2.7,0.1-4.9,0.3c9.5-7.6,18.4-14.7,23.8-25.3c-2.5-0.7-4.1-3.1-7-3.1c1.8-0.6,3.5-1.2,5.6-1.8
		c-8.1-2.7-28.8,11.1-30.5,20c3.1-2.3,6.7-3.7,9.2-6.8c2.4-2.9,5.7-4.7,10.5-4c-21.8,11.1-27.2,31.1-31.9,52.9
		c1.8-1,2.5-1.4,3.8-2.1c-0.7,4.8-1.3,9-2.1,14.4c1.8-2.3,2.7-3.5,3.9-5.2c0.1,3.1,0.3,5.5,0.5,10.3c0.9-3.1,1.1-3.9,1.4-4.9
		C25.1,575.5,25.7,576.7,26.8,578.9z M538.9,580.3c6.4-0.8,14.1,0.9,18.7-7c7.2-12.2,8.7-24.7,4-38c-1.3-3.7-2.2-9.4-6.5-8.9
		c-4.5,0.5-6.2,6.4-5.7,10.5c1.8,14.4-10.3,21-16.4,30.9c-2.3,3.7-4.8,7.6-3.9,11.5c0.5,2.4,5.1,0.5,7.8,1
		C537.4,580.4,537.9,580.3,538.9,580.3z M451.7,368.2c1.8-4.4,2.7-8.5-1.1-13.2c-11.2-13.9-19.3-29.7-26.8-45.8
		c-3.7-8-10-12.4-18.3-15.3c2.5,4.9,4,9.9,7.8,13.7c10.5,10.4,17.5,23,23,36.4c4.3,10.6,6.9,21.8,10.4,32.7c0.5,1.7,0.9,4.5,2.5,3
		c6.4,1.4,12.4,0.9,17.6,3.4c-2.5-1.5-5.1-3-8.2-4.9c1.6-0.4,2.4-0.5,3.8-0.9c-3.7-1.7-5.6-4.4-7.1-7.6c1.1-0.2,2.2-0.5,3.6-0.7
		C456.6,366.9,454.3,369.3,451.7,368.2z M265.6,296.2c2.2,15.3,3.6,28.4,11.3,40.1c0.1-4.4,3-7.4,5-10.9c4.6-8.3,6.9-17.9,7-27.6
		c0-8.4-8.1-15.1-16.6-13.5c0.8,3.9,6.4,4.3,6.4,9.6c-2.3-3.4-5.4-1.6-8.5-3c3,2.9,5.5,5.3,6.2,9.9c-1.5-2-2.6-3.3-4.6-6
		c1.3,3.1,2,4.6,3.7,8.5c-3.6-4-5.4-6.2-7.3-8.3c-0.2,0.2-0.4,0.3-0.6,0.5c1.3,2.2,2.7,4.3,4,6.5c-0.4,0.3-0.7,0.6-1.1,0.9
		C269,301.1,267.8,299.4,265.6,296.2z M431.1,480.2c4.3-0.8,6.3-2.5,5.8-7.5c-1.5-14.7-1.1-29.4,0.9-44c3.1-22.3-2-44-4.5-66.4
		c0.2,33.2-5.6,65.8-3.6,98.6c-0.5-6.9-0.9-13.9-1.5-21.8C427.8,453.5,428.1,466.9,431.1,480.2z M361.7,461.4c1-2.6-1.2-3.3-2.6-3.5
		c-4.5-0.5-7.9-2.9-11.4-5.6c-3.2-2.5-6.6-5.1-10.3-6.5c-21-7.6-42.1-8.1-63.1,0.7c-7.2,3-9.4,4.4-9.3,10.3
		C298.5,436.8,330.2,446.2,361.7,461.4z M74.3,545.8c1.3,4.7-2,11,1.9,11.2c3.6,0.1,3.3-6.5,3-10.6c0-0.5-0.1-1,0-1.5
		c0.5-2.4,0.3-5.5,1.8-7.1c1.5-1.7,0.6-2.7,0.2-3.8c-0.7-2.2-2.2-3.8-4.7-3.8c-1.7,0-2.1,1.4-2.6,2.7c-3.1,8.4-3.5,17.2-3.9,26
		c-0.4,9.6,3.5,18.5,9.5,21.9c-5.9-6.2-7.7-12.2-1.5-18.9c0.6,0.9,1,1.6,1.6,2.6c0-1.7,0-3,0-5.9c2,6.3,3.3,11.2,5.1,15.8
		c3.2,8.1,4.2,8.8,9.7,7.2c-8.8-10-8-22.2-8.4-34.2c-0.1-2.8-0.2-3.2-4-6.3c6.3,10.5-0.7,15.5-6.4,21c-0.5,0.5-1.8,1-2.3,0.7
		c-0.7-0.4-1.5-1.6-1.4-2.3C72.6,555.9,73.4,551.4,74.3,545.8z M72.9,581.5c-5-3.4-9.1-7.1-16.1-8.6c-1.4-2.5-3-6.9-6-10.1
		c-3.7-3.8-0.8-9-3.7-12.8c-5.7,7.6-2.5,13.3,3.4,18.4c1.9,1.7,2.8,3.9,1.7,6.3c-0.7,1.6-1.9,0.4-3,0.3
		c-10.9-1.7-10.9-12.9-9.6-26.7c6.7,0.8,3.9-5.1,5.5-7.8c0.5,0.1,1,0.3,2.8,0.8c-4.2-3.4-7.1-5.7-9.8-0.5c-3.9,7.6-5.3,15.8-4,24.2
		c0.7,4.6,2.9,8.6,7.3,11.6c-0.7-2-1.3-3.6-2.1-6.2C46.5,578,66.2,584.5,72.9,581.5z M519.9,566.4c-0.7-3.2-1.2-5-1.4-6.9
		c-1-7.8-1.8-15.6-5.4-22.7c-0.4-0.9-1.2-1.7-2-2.1c-0.3-0.2-1.4,0.8-1.9,1.5c-0.8,1.1-0.4,2.1,0.5,3.1c8.2,10.2,10.5,21.3,5.3,33.7
		c3.6-1.6,6.8-4.1,8.4-7.8c6-14.2,3.3-28.4-1.2-42.3c-0.8-2.4-3.3-2.5-4.8-0.7c-3.1,3.8-6.1,7.7-2.6,13.1c3,4.5,5.3,9.3,5.3,15
		c0,2,0.7,4,1.1,5.9c0.5,0,0.9,0,1.4,0c0.4-3.2,0.9-6.4,1.5-11.4C525.5,553.2,525.1,559.5,519.9,566.4z M391.6,351.3
		c-2.9,12.5-11.4,17.6-22.2,14.5c-9.2-2.7-13.8-12.5-10.2-21.8c1.4-3.7,4.1-6.6,7.9-7.9c8.5-3.1,15.9-1.3,22,5.7
		c-2.2-5.6-5.4-9.6-11.9-10.1c-11.2-0.9-16.9,2.4-20.2,14.2c-2.2,7.9-2.8,17,3.9,22.8c7,6.2,21.1,5.2,26.4-0.7
		C391.1,363.8,394,358.8,391.6,351.3z M212.5,492.3c3.6-15.2,2.2-30.9,5.2-46.2c-1,2.8-1.9,5.6-2.9,8.5c0.9-9.1-2.7-18.2,0-27.1
		C206.3,448.7,210.5,470.5,212.5,492.3z M282.9,580.3c-4.1,1.7-8.5-0.1-11.9,0.3c-9.9,1.4-18.8-1.2-27.9-3.3c-2.8-0.6-4.5,0-6.1,2.2
		C249.3,590.5,268.5,591,282.9,580.3z M349.8,304.8c-0.6-2.9-4.7-4.8-0.5-7.5c0.2-0.1-0.2-1.8-0.6-1.9c-0.6-0.2-1.7,0-2.2,0.4
		c-5.5,5.1-5.1,25.9-0.3,30.4c7.3-5.2,10.2-13.2,13.9-21.8c-4.5,4.6-6,1.3-7.4-2.3C351.8,303.1,351,303.7,349.8,304.8z M399.2,399.7
		c-7.9-2.3-0.2,5.2-4.3,5.3c2.4,9.6,4.8,19.2,7.6,30.3c8.8-19.5-3.3-34.6-5.2-51.1C396.9,389.2,396.9,394.2,399.2,399.7z
		 M399.7,470.4c-0.6-15.8,2.7-31.1-7.4-44.1c-0.8-1-0.8-3.1-2.7-2.4c-1.8,0.6-1,2.4-0.8,3.6C390.7,441.8,393.2,456,399.7,470.4z
		 M266,344.6c-5.8,19.2-20,21.5-34.5,7.5c-1.9,4.4-0.5,8,2.7,10.9c4.8,4.3,10.3,6.1,16.7,3.2c5.3-2.4,9.4-7.2,16-7.4
		C266.6,354.7,266.4,350.6,266,344.6z M332.7,577.5c-0.7,1.2,0.5,1.5,1.2,2c15.3,10.2,30.7,9.4,44.3-2.4c0.4-0.4,0.7-1,1-1.6
		c-0.6-0.3-1.4-0.9-1.9-0.8c-5.5,1-10.4,3.6-14.9,6.9c-2.2,1.7-4.7,2.6-6.7,1.3C348.6,578.4,340.9,577.4,332.7,577.5z M403.1,565.1
		c-6,4.9-12,9.3-19.5,13.3c24.2-2.6,41.1-24,31.4-37.8c-4.2,4.7,0.5,11.1-2.3,15.8c-6.9,11.5-7.5,11.6-10.7,11.3
		C402.3,566.8,402.7,565.9,403.1,565.1z M225.9,356.8c0.6,1.6,0.7,3.6,1.8,4.7c5.5,5.5,10.7,11.1,13.7,18.4c1,2.4,2.5,0.9,3.5-0.4
		c3.3-4.5,7-8.3,12.5-10.2c3-1.1,6.1-2.6,8.6-8.3c-8.2,5.3-14.6,9.7-22.5,9.3C234.6,369.9,230.7,363,225.9,356.8z M345.6,501.9
		c0.4-1.3,0.4-2.6-1.3-3c-8.2-2-15.5-0.3-21.1,6.1c-4.9,5.6-6.1,12.3-1.8,18.6c1.5,2.2,3.1,6.2,7,5.7c2.6-0.3,5-1.9,7.5-2.9
		c-5.6,1.7-11.5,0-13.2-4.2c-2.6-6.2-1.7-13.7,4.2-18.5C332.4,499.1,339.1,500.1,345.6,501.9z M228.4,353.2
		c10.4-26.4,10.4-26.4,31.5-19.3c-3.6-7.5-10.2-10-17.4-6.8C232.6,331.7,225,345.4,228.4,353.2z M474.2,409.3
		c4.9,5.7,5.5,13.4,10.5,20.3c-2-1-3-1.6-4.3-2.2c2.9,6.5,5,13.2,11,19.4c-0.8-4.2-1.6-6.8-4.1-8.3C489.8,434.9,480,412,474.2,409.3
		z M395,480.7c-2.9-12.9-5.3-24.6-10.8-35.9C381.7,448,389.8,474.8,395,480.7z M395.1,557.6c-7.6,3.8-14.7,6.7-24.2,5.7
		c2.1-1.4,2.8-1.9,3.8-2.6c-4.4,0.2-4.5,2.1-2.3,5c-1.5,0.5-2.6,0.9-4.3,1.5C377,570,393.3,564.5,395.1,557.6z M346.9,574.4
		c-1.5-6.6-8-8.5-12.4-12.3c-0.9-0.8-2.9-0.3-4.4-0.2c-0.1,0-0.5,1.3-0.3,1.5C335,567.8,338.4,575.2,346.9,574.4z M88.8,560.3
		c2.8-6.6,6.4-12.9,4.9-20.1c-0.3-1.4-0.7-3.2-2.5-3.1c-0.8,0-2.3,1.1-2.3,1.8C88.7,546,88.8,553.2,88.8,560.3z M244.6,574.6
		c10.4,0.6,19.8,1.1,29.2,1.7c-2.7-1.1-5.6-1.2-8.4-2c-1.6-0.4-7.7,2.6-3.5-3.8c0.9-1.4-1.3-1.8-2.3-1.4c-1.5,0.5-2.8,1.5-4.4,2.5
		c0.1-1.4,0.2-2.7,0.2-3.8C251.9,570,248.7,572,244.6,574.6z M364.8,572.3c-3.8,0.8-6.2,0.1-8.5-2.3c-2-2-5.1-2.8-7.8-4
		c-0.7-0.3-1.7-0.3-2.5-0.2c-0.2,0-0.4,1-0.3,1.5C347.2,574,358.6,577.4,364.8,572.3z M536.2,497.5c6.6,6.6,16.7,2.8,23.9,9.7
		C554.5,496,545,498,536.2,497.5z M508.7,578.4c10.1,2.4,24-8.6,21.9-17.9C526.2,570.7,519.3,576.8,508.7,578.4z M331.4,583.8
		c0-0.3,0-0.5,0-0.8c-14.2,0-28.4,0-42.6,0c0,0.3,0,0.5,0,0.8C303,583.8,317.2,583.8,331.4,583.8z M523.8,487.7
		c10.8-2.2,19.5,4,28.9,7.1C547.3,487,535.6,484,523.8,487.7z M377.4,375c4.5,2.6,7.7,2.6,10.9,0.3c3.2-2.3,5-5.4,4.8-9.6
		C390.2,372,384.7,374,377.4,375z M331.2,556.8c-3.4,2.3-9.2-0.8-10.9,4.7c-0.4,1.4,1.6,2.4,2.9,2.1
		C326.9,562.7,329.9,560.8,331.2,556.8z M370.8,554.5c5.5-1.6,10.9-3,17.7-2.2C381.8,548.3,378.8,548.7,370.8,554.5z M549.3,515.5
		c1.4,8.2,11.5,6.5,12.7,10.3C560.1,522.7,556.2,517.6,549.3,515.5z M363.2,343.8c-2.1,8-1.6,13,3.6,16.5c0.6,0.4,2,0.5,2.6,0.1
		c1.1-0.9,0-1.6-0.6-2.4C366,354.6,363.4,351,363.2,343.8z M237.8,340.6c-1.9,6.1-0.7,10.4,3.6,13.6c0.5,0.3,1.7,0.1,2.2-0.3
		c0.4-0.3,0.6-1.7,0.3-2C240.7,349.3,239.7,345.3,237.8,340.6z M374.7,561.8c5.5-1.7,9.1-2.8,12.6-4c1-0.3,1.3-1.9,0.2-1.9
		C383.3,555.9,379.1,556.4,374.7,561.8z M60.3,558.6c-2.6-0.7-3.6,0.8-3.8,2.4c-0.4,3.3,2,5.7,3.8,9.6
		C60.3,565.7,60.3,562.2,60.3,558.6z M295.7,563.8c-1.9-1.8-3.9-4.6-5.8-3c-2,1.7,2.3,3.4,1.7,6.2
		C293.2,565.7,294.3,564.9,295.7,563.8z M67.6,574.3c-0.5-3.8-3.1-5.5-5.3-8.2C61.7,570.7,63.4,573,67.6,574.3z M45.5,534.4
		c1.8,2.6,3.3,4.8,6.1,8.9c-2.4-5-3.6-7.9-1.4-11.4C48.7,532.7,47.2,533.5,45.5,534.4z M323.4,538.8c1.6,0.1,2.3-0.8,2.3-2.3
		c0-1.3-0.8-1.8-2.1-1.8c-1.6,0.1-3,0.8-3.1,2.4C320.4,538.9,322.2,538.6,323.4,538.8z"/>
	<path d="M302.1,349.8c-2.4,0.9-3.6,1.4-6,2.3c3.3-5,5-10.3,9.5-12.4c4.7-2.2,4.6-4.9,3.7-8.9c-0.4-1.7-1.6-3.8,1.1-5.7
		c-0.2,4.5,3.2,6.5,5.3,9.3c-5.9,3.1-1.2,6.4,0.2,8.9c2.1,3.6,1.7,7.3,1.6,13.4c2.4-5.2,4.1-8.3,1.4-11.8c-0.8-1.1-1.3-2.1-0.3-3.1
		c1.7-1.7,3.3,0,4.9,0.4c1.1,0.3,1.7,1.2,1,2.3c-1.6,2.4-1.2,4.9,0.2,6.9c2.4,3.4-0.8,7.2,1.1,10.5c-1.2,1-2.4,2-4.4,3.6
		c2.7-0.3,4.4-0.5,6.6-0.8c-1.6,2.7-0.6,4.5,1.4,6.4c2.9,2.7,0.9,4.9-1.8,5.6c-5.4,1.3-9.6,9.6-16.4,2.6c-1.5-1.6-2.8-2.4-1.4-5.1
		c1.7-3.1-3.3-3.3-3.5-5.9c-4.7,0.6-6.8-3.6-10.3-5.7c0.4-0.5,0.8-0.9,1.3-1.7c-1-0.4-1.8-0.7-2.7-1c1-2.6,2.8-2.5,7.2,0
		C296.8,355.2,300.3,353.2,302.1,349.8z"/>
	<path d="M264.6,407.2c4.3-1.3,8.9-4.1,13-3.6c13.8,1.8,23-6.2,32.9-13.2c6.8-4.8,17.9,0,21.1,7.5c1.8,4.1,6.8,6.8,10.2,10.2
		c4.2,4.2,8.7,7.9,14.3,10.4C326.2,409.1,296.2,402.4,264.6,407.2z"/>
	<path d="M314.6,331.7c-2.3-3.5-2.2-7.3-2.9-11.4c-0.9,1.4-1.5,2.5-3.5,5.8c0.7-4.2,1-6,1.3-8.2c-0.9,1.2-1.6,2-2.2,2.8
		c-0.5-10.8,2-21.2,3.1-31.8c0.6-6,2.2-12.4-7.6-11.5c-0.3,0-0.7-0.3-1-0.5c-0.3-0.2-0.6-0.5-1.1-0.9c0.8-0.7,1.5-1.2,2.6-2.1
		c-3.9-1.4-7.4-2.7-13.3-4.8c5.6,0.4,8.7,0.7,11.8,0.9c-0.8-0.7-1.7-1.5-3.1-2.7c4-0.5,6.5,1.4,10,3.4c-1.2-1.5-1.7-2.1-2.6-3.2
		c4.1,0.6,6.2,3.2,8.9,5.7c0.3-1.3,0.5-2.3,0.9-4c0.8,1.3,1.2,2.1,1.8,3.1c0.6-0.8,1.1-1.5,2-2.6c0.3,1.5,0.6,2.4,0.8,3.4
		c5.9-6.3,13.9-4.3,21.2-5.1c-2.3,0.7-4.5,1.5-7.5,2.4c1.9,0.3,3,0.5,4.2,0.7c-26.4,11.9-24.9,33.3-19.5,55.9
		c-2.3,0.2-3-0.9-3.5-2.5c0,2.3,0,4.4,0,6.5C315.4,331.1,315.1,331.2,314.6,331.7z"/>
	<path d="M207.5,379.7c2.5,16.8-3.5,32-4.9,48.3c-2.8-2.6-2.8-90.7-0.3-95c-0.6,8.5-2.4,16.6-1.2,24.6c1.3,7.9,2.9,15.8,4.4,23.9
		C206.2,380.9,206.7,380.4,207.5,379.7z"/>
	<path d="M204.9,325.2c-0.1-18.7,30.5-50.9,50.9-53.2c-8.8,5.5-17.5,10.1-23.9,17.5c-6.4,7.3-12.4,14.8-18.6,22.2c0-0.4,0-1.1,0-3.2
		C210.2,314.7,207.6,319.8,204.9,325.2z"/>
	<path d="M362.9,535.7c-2.7-3.8-4.4-7,0.4-11.1c3.9-3.4,6.5-8.3,9.7-12.6c0.8-1.1,1.2-3,3-2.7c1,0.2,2.6,1.5,2.5,2.1
		c-0.5,2.7,4.3,4.8,1.3,7.4c-3.1,2.7-7.7,4.2-4,9.6c0.2,0.3-0.6,1.3-0.9,1.9C368.7,527.1,370.1,541.2,362.9,535.7
		C362.8,535.7,362.9,535.7,362.9,535.7z"/>
	<path d="M251.1,564.4c-7.2,2.5-12.6,4.1-18.5,2.7c-10-2.4-19.9-5-27.6-12.6c-3.1-3.1-3.8-6.1,0.6-9.4c-2.8,7.7,2.8,9.9,7.6,12.3
		c10.2,5.3,20.8,9.3,32.7,6.2C246.8,563.4,247.9,563.9,251.1,564.4z"/>
	<path d="M485.4,573.9c-0.8-2-1.3-3-1.7-4.2c-0.4-1.2-0.7-2.4-1.2-4.1c-0.6,2.4-1,4.2-2.1,8.6c0-7.3,0-12,0-17
		c3.7,1.6,2.3,5,4.7,8.3c-1.8-9.3,7.3-13.5,7.3-21.4c0.2,1.8,0.4,3.6,0.7,6.4c1.4-2.1,2.3-3.4,3.7-5.5c0,1.7,0,2.7,0,3.5
		c3.6,0,2.3,2.6,2.7,4.1c-6.8-4.4-9.1,0.8-10.7,5.4C487.3,562.8,486.7,567.9,485.4,573.9z"/>
	<path d="M252.5,283.1c-12,8.9-22.2,19.7-32.3,33.6C225.5,298,239.4,290.9,252.5,283.1z"/>
	<path d="M216.8,323.2c-7.6,15.4-9.4,30.5-7.2,46.6C201.7,363.8,206.6,331.3,216.8,323.2z"/>
	<path d="M373.1,287.9c12.8,7.6,19.6,19.3,26,31.3C390.6,309,382.1,298.8,373.1,287.9z"/>
	<path d="M502.7,494.9c-5.6-2.1-10.6-3.9-15.4-6c-0.6-0.3-1.2-2.4-0.9-2.7c1-0.9,2.5-1.8,3.7-1.8
		C496.5,484.4,500.5,487.9,502.7,494.9z"/>
	<path d="M217.6,574.2c-6.5-2.4-12.8-5.2-16.9-10.8c-1.9-2.6-3.7-6.2,0.8-10C202.6,564,210.3,568.9,217.6,574.2z"/>
	<path d="M370.2,290c-9.9-9.3-19.1-12.8-30.4-9.3c2-2.9,7.4-4.4,12.7-3.8C359.7,277.6,365.5,280.6,370.2,290z"/>
	<path d="M281.7,378.9c4.3-4.9,5.7-14.2,16.8-10.4C293.6,373.7,286.2,374.1,281.7,378.9z"/>
	<path d="M384.3,532.3c-0.9-0.6-2-1.1-2-1.4c0.1-1.3,0.1-3.1,0.9-3.8c3-2.5,6-5,8.2-8.5c0.6-1,2-0.7,2.8,0.2c0.9,1,1.1,2.9,0.1,3
		c-4.5,0.6-3.8,4.7-5.5,7.2C387.8,530.5,385.9,531.2,384.3,532.3z"/>
	<path d="M514,483.1c-7.4,0-13.8,0-20.2,0C500.1,478.8,506.5,479,514,483.1z"/>
	<path d="M376.2,494.7c4.8,3,5.4,6.8,6.6,10.1c0.4,1.2-1,1.7-2.2,1.7c-1.8,0-3.6-1-3.3-2.6C377.7,501.2,377.5,498.6,376.2,494.7z"/>
	<path d="M445.5,583.6c5.1-4.2,8-6.6,11.3-9.4c-0.3,5.3-1.6,9.1-7.5,10.6c1.8-1.9,3.1-3.2,5.2-5.4
		C451.6,580.7,449.8,581.6,445.5,583.6z"/>
	<path d="M225.7,521.2c-1.7,0.1-2.8-0.3-2.7-1.9c0.2-2.4,1.9-3.4,4-3.5c1.6-0.1,2.7,1.4,2.5,2.6
		C229.3,520.7,227.3,521.1,225.7,521.2z"/>
	<path d="M490.7,536.6c1.2-5.6,2.3-8.5,5.1-11.3C497.3,530.1,494.5,532.2,490.7,536.6z"/>
	<path d="M216.6,544.4c3.9,1.5,7.8,3,12.8,5C223.1,550.6,219.6,548,216.6,544.4z"/>
	<path d="M438.4,484.7c6-0.9,9.6-1,13.3,0.4C447.7,488.2,444.3,485.2,438.4,484.7z"/>
	<path d="M231.8,531.3c-1.4,0-2.2-0.7-2.1-2c0.1-2.1,1.7-2.7,3.4-2.9c1.2-0.2,2.2,0.5,2,1.9C234.8,530,233.4,530.9,231.8,531.3z"/>
	<path d="M220.3,502.3c2.6,1.8,4.6,2.8,3.7,5.3c-0.2,0.6-2,1.3-2.6,1.1C218.2,507.3,221.3,505,220.3,502.3z"/>
	<path d="M223.1,532.8c-1.2-0.1-2.2-0.4-2.1-1.9c0.2-1.8,1.7-2.4,3.1-2.5c0.5-0.1,1.6,1.2,1.6,1.8
		C225.8,531.7,224.7,532.6,223.1,532.8z"/>
	<path d="M245.4,548.1c2.5-1.4-0.8-2.5,0.1-4c1.4-0.9,2.3,0,3,1.1c0.4,0.6,0.6,1.8,0.3,2.3C248.3,548.5,247.2,549.1,245.4,548.1z"/>
	<path d="M106.3,494.9c-6.5-0.1-11.3,1.2-16.8-0.4c7.9-3.6,15-3.9,21.7,1.1c3,2.3,6,4.7,8.9,7.1c0.7,0.6,1.7,1.6,0.6,2.4
		c-0.5,0.4-2.1,0.2-2.6-0.3c-3.5-3.9-7.6-4-12.4-2.8c-3.1,0.8-8.2,2.1-8.9-1.1C96.2,497.9,101.1,496.2,106.3,494.9z"/>
	<path d="M108.4,559.5c4,4.5,6.9,10.1,12.1,13.6C114,570.7,110.6,565.6,108.4,559.5z"/>
	<path d="M130.3,573c-6.3-4-8.4-7.8-9.2-12.6C123.7,563.9,126.2,567.4,130.3,573z"/>
	<path d="M125.2,551.1c-4.2-1.1-5-3.8-6.1-7.6C122.5,545.5,124.4,547.4,125.2,551.1z"/>
	<path d="M123.4,428.9c2.6-9.4,7.5-17.8,12-26.4C133.3,412.2,130.5,421.5,123.4,428.9C123.3,428.9,123.4,428.9,123.4,428.9z"/>
	<path d="M551.2,543.6c5.6,7.2,3.5,13.7,3,21.8c6-7.8,3.4-15.6,5.5-25.9c1,2.9,1.2,3.9,1.6,4.9c3.3,6.9,0.3,19-5.9,23.6
		c-1.2,0.9-2.7,2.1-3.9,0.9c-0.8-0.7-1-2.6-0.7-3.7C552.8,558.6,552.4,552,551.2,543.6z"/>
	<path d="M416.8,308.4c-4.3-3.6-5.8-6.6-6-10.9C414.5,299.9,415.1,303.4,416.8,308.4z"/>
</g>
</svg>
