<?xml version="1.0" encoding="utf-8"?>
<!-- Generator: Adobe Illustrator 24.2.3, SVG Export Plug-In . SVG Version: 6.00 Build 0)  -->
<svg version="1.1" id="Layer_1" xmlns="http://www.w3.org/2000/svg" xmlns:xlink="http://www.w3.org/1999/xlink" x="0px" y="0px"
	 viewBox="0 0 595.3 841.9" style="enable-background:new 0 0 595.3 841.9; fill: #215342;" xml:space="preserve"
	 height="350" width="450" transform="translate(-115, -19)">
<g>
	<path d="M357,463c2.9,0.6,5.6,1.8,8.3,3.1c4.7,2.3,9.3,4.7,13.9,7c0.8,0.4,1.5,0.9,2.6,1c-0.2-0.4-0.3-0.6-0.4-0.7
		c-4.6-4.2-8.4-9-12.4-13.7c-2.4-2.9-4.9-5.7-7.7-8.3c-2.9-2.7-6-5-9.5-6.8c-0.7-0.4-2-0.3-1.8-1.8c0-0.4-0.8-0.4-1.2-0.6
		c-2.6-0.9-5.3-1.8-7.8-3c2.5-0.3,4.9,0.4,7.3,0.9c2.5,0.6,4.9,1.3,7.3,2.3c2.4,0.9,4.7,1.9,7.3,3c-0.3-0.9-0.8-1.2-1.3-1.5
		c-2.9-2.1-6.1-3.8-9.4-5.3c-3-1.4-6.1-2.9-9.1-4.3c-0.7-0.3-1.5-0.6-2-1.4c1-0.3,1.8,0,2.7,0.2c15.7,3.1,28.6,11.2,39.2,23
		c4.1,4.6,7.8,9.5,11.2,14.7c0.5,0.7,1,1.5,1.7,2.6c-0.2-2.2-1.5-3.5-1.8-5.5c1.3,1.2,1.5,2.7,2.6,3.7c0.5-0.8-0.5-1.6,0.1-2.5
		c3,4.2,6.1,8.2,8.6,12.7c-0.5-3.9-2.7-7.3-3.6-11.4c1.8,1.4,2.6,3.1,4.4,4.7c-0.8-4.2-3.3-7.3-4-11c1.3,1.8,2.7,3.5,4,5.3
		c0.1-0.1,0.3-0.2,0.4-0.2c-1.6-3.1-3.2-6.2-4.8-9.4c2.4,1.3,3.6,3.7,5.8,5.6c0.3-3.6-1.3-6.6-2-10.1c2,2.1,3,4.3,4.9,6
		c-1.6-3.2-3.2-6.4-4.8-9.6c1.8,0.3,2.2,1.7,3,2.7c0.9,1.1,1.7,2.3,2.9,3.2c-0.7-3.4-1.5-6.7-2.3-10.5c1.8,1.1,2.6,2.9,4.3,3.7
		c-1.2-2-2.4-4.1-3.5-6.2c-0.4-0.8-1.6-1.8-0.9-2.4c0.9-0.7,1.5,0.8,2.2,1.3c0.9,0.6,1.5,1.6,2.9,2.2c-1.3-3.7-2.6-7-6.2-9.1
		c1.3-0.6,2.2,0,3.1,0.3c0.9,0.3,1.7,0.8,3.2,1c-1.7-1.4-3.1-2.6-4.8-4c2-0.1,3,1,4.2,1.4c1.2,0.5,2.2,1.5,4.2,1.5
		c-1.9-2.2-4.1-3.4-6.2-5.5c3.2,0.4,5.4,1.9,7.8,3.1c-2.2-3.1-5.6-5-8.8-7.8c3.9-0.1,6.5,1.8,9.7,3.5c-1.8-3.6-5.4-5-7.2-8.1
		c1.4,0,2.2,1.2,3.6,1.4c0.3-1.5-0.5-2.5-1.2-3.6c-0.6-1.1-1.6-2-2.2-3.2c1.3-0.7,2.1,0.5,3.1,0.6c-1.4-4.1-7.3-5.2-11.5-2
		c1.7,0.6,3.4,1.2,5.3,1.8c-1.4,0.9-2.6,0.6-3.8,0.8c-1.2,0.2-2.3,0.3-3.9,0.6c2.3,1.1,4.5,1.1,6.7,2c-1.4,1.1-3,0.9-4.5,1.3
		c-1.4,0.4-3,0.5-4.2,1.6c1.6,1,3.7,0.7,5.4,2.4c-2.5,0-4.5,0-7.1,0c1.2,1.8,3,2.1,4.1,3.5c-1.6,0.7-3.2-0.5-4.7,0.2
		c0,0.9,1.1,0.8,1.4,1.6c-0.8,0.6-1.6-0.4-2.5-0.1c0.7,1.3,2.3,1.9,3.1,3.3c-1.1,0.4-2.4-0.4-3.1,0.9c0,0-0.6-0.2-0.8-0.4
		c-0.6-0.3-1.3-0.7-1.9-1c-0.5,0.4-0.2,0.7,0,1.1c0.3,0.6,0.7,1.1,0.1,1.7c-0.6,0.6-1.1,0.4-1.7,0.1c-0.2-0.1-0.5-0.2-0.7,0.2
		c1.8,2.4,3.4,5,4.4,8c0.3,0.8,0.5,1.6,0.6,2.6c-2.5-3.3-5.3-6.3-8.9-8.5c-0.7-0.4-1.3-1-2.5-0.9c2.5,4.1,4.9,8.1,6.1,12.6
		c-2.8-3.6-5.6-7.1-8.4-10.7c-0.2,0.1-0.3,0.1-0.5,0.2c1.2,3.4,2.4,6.7,3.7,10.1c-2.9-3.5-5.3-7.4-8.5-10.6c0.3,1.9,1.6,3.5,1.6,5.7
		c-2.1-2.4-4.1-4.7-6.5-7.4c0,2,1,3.3,1.1,5.1c-1.3-0.6-1.6-2.1-2.6-2.7c-0.7,0.3,0,1.1-0.5,1.5c-1.3-0.8-1.9-2.5-3.1-3.4
		c-0.6,0.3-0.2,0.9-0.6,1.4c-1.2-1-1.6-2.6-2.9-3.8c-0.5,1.3,0.2,2.5-0.3,3.8c-1.7-1.2-3.5-2.3-5.2-3.3c-4.3-2.5-9-4.1-13.8-5.4
		c-3.1-0.8-6.2-1.7-9.2-2.8c-0.5-0.2-1-0.4-1.8-0.8c1.4-0.4,2.4,0.2,3.3,0.4c1.9,0.4,3.7,0.9,5.6,1.1c1.7,0.2,1.7,0.2,1.9-1.9
		c-1.5-0.3-3,0.4-4.5,0.1c-0.2-1.2,1.1-1.1,1.5-1.7c0.1-0.3,0.1-0.4-0.1-0.5c-2.7-0.8-4.7-2.5-6.8-4.2c-3.9-3.2-8.7-4.7-13.5-5.9
		c-2.5-0.6-5-1.1-7.4-1.8c9.7,0.3,18.5,3.4,26.7,8.2c0.6-0.6-0.4-0.9,0-1.6c2.8,1.5,4.7,4.5,8.5,4.8c-0.4-0.7-0.9-0.8-1.3-1.1
		c-1.7-1.1-3.2-2.4-4.6-3.8c-2.3-2.4-4.6-4.9-7.6-6.9c2.2-1.1,4.5-1.1,6.9-2.1c-3.5-1.7-6.8-3.2-9.9-5.1c-3.1-1.9-6.1-3.8-9.2-5.7
		c-3.1-1.9-6.2-3.8-9.9-4.9c1.4,1.6,2.9,3.2,4.3,4.8c-0.1,0.1-0.2,0.3-0.4,0.4c-5.3-2.8-9.5-7-13.7-12c1.9,0.5,2.8,1.8,4.3,2.2
		c0.1-0.9-0.7-1.3-0.8-2.2c2,0.5,3.4,1.9,5.1,2.8c1.7,1,3.4,2.1,5.2,3.1c1.7,1,3.4,2,5.3,2.6c0.1-0.1,0.2-0.3,0.3-0.4
		c-1.2-1.1-2.4-2.2-3.9-3.5c3.3,0.1,7.5,2.5,11.9,6.6c-2-0.1-3.5-1.2-5.3-1.3c2.6,4.3,10.2,5.7,15.9,3.1c-1.8-1.2-3.6-2.4-5.3-3.6
		c-1.7-1.3-3.2-2.9-4.6-4.5c-1.3-1.6-2.5-3.3-3.5-5.1c-1-1.9-1.9-3.9-2.7-5.9c-0.8-2-1.6-4-2.4-6.1c1-0.4,1.4,0.8,2.5,0.5
		c-6-11.4-7.8-23.5-7.2-36.6c0.6,1.9,0.7,3.3,0.9,4.8c0.2,1.6,0.5,3.1,0.8,4.7c1.6,8.4,4.4,16.3,9.1,23.6c0.3,0.5,0.7,1.1,1.1,1.6
		c0.1,0.2,0.3,0.4,0.6,0.6c0.4-1.3,0-2.3-0.5-3.4c-3.7-7.8-5.5-16.2-6.3-24.7c0-0.5-0.1-0.9,0.2-1.5c0.7,3.7,1.4,7.3,2.2,10.9
		c1.2,5.4,3.3,10.4,6.8,14.6c0.6,0.7,1.1,1.6,2.2,1.9c-0.5-1.8-0.9-3.5-1.3-5.1c2.3-1.4,2.2-1.3,1.4-4c-3.8-12.3-3.7-24.3,3.4-35.5
		c0.5-0.7,0.8-1.6,1.8-2.2c-0.2,2.2-1.4,3.9-1.7,6.3c1.7-1.5,2.3-3.3,3.6-4.6c1,0.1,0.9,1.3,1.9,1.6c4.6-5.7,9.8-11,17.3-13.1
		c-4.4,2.7-8.6,5.6-11.6,10.2c1.2,0.4,1.9-1.1,3.2-0.4c-5.1,4.6-6.3,11.3-9.5,16.9c-0.3-1.9,0.6-3.6,0.5-5.5
		c-2.4,3.3-3.3,13.7-1.5,18c0.1-14.7,5.1-19.7,14.1-26c5.9-4.2,14.8-5.5,20.3-3.6c-0.4,0.7-1.1,0.6-1.7,0.7
		c-5.7,1.1-11.2,2.8-16.2,5.7c-7.3,4.3-12,10.6-13.8,19c0.7,0,0.7-0.5,0.9-0.8c0.2-0.3,0.4-0.7,0.6-1c5-8.7,12.3-14.3,22-17
		c5.9-1.6,11.5-0.8,17.1,1.7c-0.5,0-1,0.1-1.4,0.1c-0.6,0-1.1,0-1.7-0.1c-4.6-0.5-9.1-0.4-13.4,1.8c-0.5,0.3-1.1,0.3-1.6,0.1
		c-1-0.4-1.9-0.1-2.7,0.4c-4.9,3.1-10,6.1-13.9,10.6c-1.1,1.2-2.2,2.4-2.9,3.9c2.9-2.1,4.9-5.1,8.2-6.7c-1.2,1.2-2.4,2.5-3.5,3.7
		c-1.1,1.2-2.1,2.6-3.1,4.4c0.9-0.2,1.3-0.7,1.7-1c2.9-2.6,5.9-5.1,9.2-7.3c4.6-3.1,9.4-5.4,15-6.1c3.1-0.4,6,0.3,9,0.9
		c7.2,1.4,13.6,4.6,19.8,8.3c1.6,0.9,3.2,1.9,5,2.7c-4.2-5-9.1-9.1-15.5-10.9c4.8-0.6,8.7,2,13.2,3.1c-0.1-0.8-0.6-1.1-1-1.4
		c-2.9-2.3-6.2-3.9-9.6-5.5c-3.3-1.5-6.7-3-9.8-5c-1.4-0.9-2.7-1.9-4.1-3.3c1.6-0.5,2.8-0.3,4,0c2.1,0.6,4,1.5,5.9,2.5
		c2.8,1.5,5.7,2.9,8.6,4.3c0.5,0.2,0.9,0.7,1.6,0.3c-1.7-2.8-4.5-4.4-6.9-6.9c1.7-0.5,3.1,0,4.5,0.4c1.4,0.4,2.7,0.9,4.1,1.2
		c-6.4-5.2-13.4-8.9-21.9-9.7c1.2-0.2,2.4-0.5,3.6-0.7c-0.2-0.9-1.3-0.6-1.6-1.2c0-0.3,0.3-0.4,0.5-0.4c3.5,0.1,6.8,0.9,10.1,1.9
		c0.9,0.3,1.8,0.8,2.9,0.7c-0.1-0.7-0.7-0.8-1.1-1.1c-4.3-2.5-9-3.6-13.9-4.1c-3.2-0.3-6.4-0.6-9.5-0.9c-0.4,0-0.8,0.1-1.2-0.5
		c4.3-1.7,8.7-2,13.4-2.1c-0.9-0.8-1.8-0.7-2.6-0.8c-9.9-1.1-19.8-0.9-29.7-0.2c-0.3,0-0.6,0-1-0.2c2.3-1.6,5-2.3,7.7-2.6
		c4.6-0.4,9.1,0.2,13.6,0.7c3.1,0.4,6.2,0.5,9.3,0.2c0.8-0.1,1.6-0.1,2.5-0.8c-3.1,0-5.9,0-8.7,0c0-0.2-0.1-0.4-0.1-0.5
		c2.2-1.3,4.8-1.3,7.3-1.8c-4.9-1.1-10,0.6-14.9-0.3c3.1-1.5,6.5-1.6,9.7-2.6c-5.7-0.3-11.5-0.3-17.2,0c6.9-1.9,13.8-4.1,20.9-5.8
		c-3.2-1-6.5-1-10-0.9c1.8-1.7,4.3-1.6,6.3-3.4c-5.9,0-11.3,0-17.1,0c2.5,1.5,5.2,1.8,7.6,3c-0.5,0.5-1,0.3-1.4,0.2
		c-1.1-0.1-1.6,0.2-1.3,1.5c0.2,1.4,0,1.5-1.5,1c-2.6-0.9-5.2-1.7-7.9-2.1c-10.2-1.7-19.7,0.3-28.7,5.1c-0.7,0.4-1.4,1-2.8,1.2
		c1.3-1.6,2.7-2.5,4.1-3.3c3.9-2.3,8.2-3.5,12.6-4.4c3.4-0.7,6.8-1.2,10.2-1.5c0-1.7,0-1.8-1.6-2c-3.2-0.5-6.3-1-9.4-1.9
		c-1.8-0.5-3.7-0.2-5.5,0.1c-0.9,0.1-1.9,0.2-3.1,0.3c0.9-1.1,2.2-1.1,3-2c-5.4-2.1-14.1,2-17.4,8.5c2.2-0.6,4.2-1.3,6.2-1.7
		c2-0.4,4-0.6,6.3,0.2c-0.8,0.7-1.5,0.5-2.2,0.7c-11.8,2.9-20.3,10.1-26.1,20.6c-2.3,4.2-3.8,8.8-5.4,13.3c-0.3,0.7-0.4,1.5-1.1,2.2
		c-0.3-12.6,6.2-29.8,13.3-34.7c-3,6.8-7.5,12.8-9.3,20.2c1-0.6,1.2-1.4,1.7-2.2c3.5-5.9,7.2-11.7,11.6-17.1
		c2.8-3.4,5.8-6.6,9.6-8.9c2.3-1.4,4.9-2.3,7.5-3.1c-5.4-3.9-15.8-1.9-19.8,3.8c0.9,0,1.6-0.5,2.3-0.8c2.3-1.1,4.6-2.2,7-3.2
		c1.8-0.8,3.6-1.1,5.6,0.1c-0.8,0.7-1.7,0.8-2.5,1c-2.7,0.8-5.4,1.6-8,2.4c-1.7,0.5-3.3,1.3-4.8,2.2c-1.1,0.7-1.1,0.6-2.7,0.3
		c-0.3-0.1-0.6,0.3-1-0.1c0.8-2.3,2.4-3.9,4.1-5.6c1.7-1.7,3.6-3.1,4.9-5.2c-8.3,2.5-15.2,7.2-20.9,14.5c0.5-3.3,2.1-5.6,2.5-8.3
		c-1,0-1.4,0.9-2.3,1c-0.9-1.5-0.6-3.4-1.5-5.4c-0.7,2.5-0.4,4.9-1.1,7.1c-0.7-0.9-0.6-1.9-1-2.8c-1.5,1.9-2.8,7.2-1.9,9.4
		c1.8,4.6,1.2,9.3,0.4,13.9c-0.4,2.2-0.5,4.4,0.3,6.7c1.8-9.5,6.1-17.6,13-24.5c0.4,0.7-0.1,1.1-0.3,1.5c-2,4.1-3.9,8.2-5.9,12.3
		c-3.3,6.6-4.6,13.6-4.9,20.8c-0.1,1.4,0,2.8,0,4.4c-1.1-0.3-1.2-1-1.4-1.5c-2.2-4.8-3.6-9.9-5-15c-1.4-5.2-2.9-10.3-5.3-15.1
		c-0.1-0.2-0.3-0.4,0.1-0.7c3.7,2.6,5.6,6.5,7.7,10.4c0.7-0.5,0.5-1.1,0.5-1.6c-0.2-4.4-0.5-8.8-1.8-13c-0.8-2.7-2-5.2-4-7.3
		c-0.7-0.7-1.5-1.4-2.8-1.6c1.3,2.6,2.6,5.1,3.9,7.7c-0.1,0.1-0.2,0.2-0.3,0.3c-5-4.7-10.3-9-16.6-11.8c5.9,4.3,11,9.3,14.7,15.6
		c-1.3-0.8-2.3-1.8-3.2-3c-3.8-5.1-8.9-7.5-15.3-7.7c-3.1-0.1-6.2-0.4-9.3-0.7c-0.7-0.1-1.4-0.2-2.4,0.1
		c11.2,1.4,18.9,7.5,24.7,16.6c-6.8-5-13.4-10.4-22.1-12.6c1.1,1.3,2.6,1.6,3.9,3c-4.8-1.2-9.2-1.6-13.9-1.4
		c0.6,0.7,1.3,0.7,1.9,0.8c4.8,0.9,9.5,2.4,13.7,4.8c2.2,1.3,4.3,2.7,5.9,5c-0.6,0.4-1.1,0-1.6-0.1c-3.4-1.2-6.6-2.8-9.9-4.2
		c-3.9-1.7-7.8-3.3-12.1-3.8c3.9,2,8.1,3.7,11.7,6.3c-7.4-0.1-14.4-2.8-21.8-3.5c-0.1,2.3,2.4,3.6,2,5.9c-0.8,0.4-1.4-0.2-2-0.4
		c-3.2-1.4-6.5-2.8-9.9-3.6c-5.4-1.3-10.9-1.4-16.4-0.6c-0.6,0.1-1.1,0.2-1.2,0.9c-0.1,0.6,0.2,1.1,0.7,1.4c1.7,0.8,3.5,1.6,5.2,2.5
		c2,1,4,2,6,3.2c-6.3,0.3-12.6-0.4-18.7,1.5c1.2,0.4,2.5,0.3,3.8,0.3c5.2-0.2,10.4,0.5,15.4,1.9c3.4,1,6.8,1.8,10.3,2.4
		c2,0.4,3.8,1.3,5.2,2.8c1.4,1.3,2.6,2.8,3.7,4.4c-0.4,0.5-0.7,0.1-1-0.1c-7.9-5.6-16.7-6.9-26-6c-6.1,0.6-11.9,2.2-18,3.9
		c2.1,2.3,5.1,1.9,7.7,3.2c-5.2,3.1-11.1,4.7-15.5,9.5c1.4-0.2,2-0.8,2.7-1.2c5.3-3,10.7-5.7,16.5-7.5c16.6-5,35.8,3.9,41.3,22.5
		c1.3,4.3,2.1,8.7,2.5,13.2c0.1,0.8-0.1,1.6,0.3,2.4c0.9-1.5,0.9-4.4,0.3-9.9c-0.4-3.4-1.3-6.7-1.9-10.1c1.7,2.2,1.8,4.9,3.3,7.2
		c-0.5-3.2-0.9-6.4-1.4-9.7c1,0.5,1,1.3,1.3,2c2,4.9,3,10.1,3.4,15.4c0.4,5.5,0.4,11,0.5,16.5c0,2.4,0.1,4.9,0.6,7.3
		c0.9,0.1,0.8-1.1,1.8-1c1.6,7.4-0.8,14.5-2.4,22.2c9.4-7,19.1-12.8,26.7-21.2c-3.8,8.4-11.2,13.4-18.7,18.9c2-0.2,3-1.5,4.5-1.4
		c-3.1,1.8-6.2,3.7-9.4,5.5c7.6-1.2,14.4-4.9,21.6-7.2c0.1,0.7-0.5,0.7-0.8,0.9c-0.3,0.2-0.7,0.4-1.1,0.5c-2.8,1.4-5.8,2.3-8.7,3.4
		c-2.9,1.1-5.8,2.2-8.1,4.7c4.7-1.4,9.4-2.9,14.1-4.3c-4.3,3.7-9.6,5.4-14.6,7.9c5.5-1.1,10.8-2.8,16.5-1.4
		c-7.5,0.5-14.6,2.6-21.2,6.3c8.4-1.2,16.7-4.2,25.4-2.6c-0.2,0.8-0.8,0.8-1.3,0.9c-4,1.2-8.1,1.7-12.2,2.3
		c-4.4,0.6-8.7,1.4-12.7,3.3c-1,0.5-2.1,0.8-3,2c3.8-0.6,7.3-2.1,11-1.3c-5.9,1.9-11.9,3.2-17,7c3.7-0.2,7.3-1.9,11.5-0.8
		c-4.2,1.5-8.4,1.1-12,3.6c1,1,2.2,1.1,3.3,1.3c3.4,0.7,6.9,0.6,10.2,1.5c0.8,0.2,0.6-0.8,0.8-0.8c2.4,0.1,4.8,0.5,6.8,1.9
		c1.8,1.2,2.4,3.1,2.2,5.4c-5.5-1.1-10.9-1.5-16.4-1.6c1.1,1.2,2.9,0.5,4.1,1.7c-3.5,0-6.7-0.7-10-1c-2.7-0.3-5.3,0-7.8,0.8
		c-0.4,0.1-0.8,0.2-1,0.8c2.3,0.2,4.6-0.1,6.8,0.3c2.3,0.4,4.5,0.7,6.6,2c-8.1-1.1-16-1-23,4.8c1.7,0,2.8-0.6,4-1
		c2.1-0.7,4.2-1.6,6.4-2c4.8-1,9,0.1,12.5,3.7c0.3,0.3,0.6,0.5,0.5,1.2c-4.9,0.3-9.8-2.2-15-0.7c1.1,1.1,2.7,0.7,4,1.8
		c-8,0-14.5,3.3-20.4,8c4.2-1,8.4-2.5,13.2-0.6c-4.5,2.4-9.2,3.7-12.8,7.5c2.1,0,3.5-1.3,5.2-1.6c0.5,0.4-0.2,0.9,0.2,1.4
		c1.9-0.7,3.3-2.7,5.8-2.6c-0.4,1.5-1.7,2.2-2.2,3.5c0.5,0.5,1,0,1.5-0.2c2.1-0.7,4.2-1.5,6.4-2.2c3.7-1.2,7.3-0.5,10.9,1
		c-4.2-0.2-8.3,0.4-12.2,1.8c-3.1,1.1-6.1,2.5-9,3.9c-1.2,0.6-2.4,1.1-3.9,1.8c-0.1-1.9,0.7-3.4,0.8-5c-2.5,1-8.1,7.5-9.5,11.1
		c2.1-1.5,4-2.8,5.9-4.1c0.1,0.1,0.2,0.2,0.3,0.3c-3.7,4.1-7.4,8.1-11,12.2c0.3,0.8,0.9-0.1,1.4,0.4c-0.6,1.2-2.1,1.7-2.9,3.3
		c3.8-1.4,7.3-2.8,10.7-4.1c-1.4,2.1-3.5,3.1-5.7,3.8c-2.2,0.7-4.4,1.3-6.7,2c-1,0.3-2,0.5-3,1.4c1.8,0.1,3.1-0.8,4.7-0.9
		c0,0.8-0.6,0.8-1,1c-3.6,1.7-7.2,3.5-10.8,5.2c-4.7,2.3-9.2,4.9-12.9,8.6c6.9-2.5,13.6-5.6,20.4-8.3c0.1,0.2,0.2,0.4,0.3,0.6
		c-4.2,2.9-8.3,5.7-12.5,8.6c4.4-1.1,8.3-3.6,12.9-4.3c-0.2,1.1-0.9,1.6-1.4,2.3c-3.4,4-7.1,7.6-10.9,11.2
		c-3.6,3.4-7.2,6.8-10.7,10.3c-3.9,3.8-7.3,8-10.6,13c0-2.3,0.7-4,1.2-5.6c0.6-1.7,1.3-3.5,2.1-5.1c0.8-1.6,1.7-3.2,2.7-4.8
		c1-1.5,2.1-3,3.1-4.5c-2.5,1.5-4.6,3.5-6.5,5.7c-1.9,2.2-3.4,4.6-5.1,7c2-7.2,6.1-13.1,10.8-18.9c-1.7,0.4-2.8,1.3-5.1,4
		c-1.4,1.7-2.7,3.5-4.4,5.7c0.6-7.3,3.1-13.5,5.9-20c-1.3,0-2.3,0-3.2,0c-33.6,0-67.2,0-100.8,0c-15.3,0-30.5,0-45.8,0
		c-1.4,0-2.7,0.1-4.1,0.1c-1.6,0-1.9-0.4-1.9-2c0-0.5,0-1,0.1-1.4c0.2-3.3,1.1-4,4.4-3.8c2,0.1,3.9-0.3,5.4-1.5
		c4.6-3.4,9.4-6.6,14.2-9.9c0.2-0.1,0.3-0.3,0.6-0.7c-2.9-1.3-5.7,0.1-8.6,0c6-3.5,17.2-5.4,22.5-3.8c-1.6,1.1-3.1,1.5-4.8,1.4
		c-1.1-0.1-2.1-0.3-1.9,1.4c0.1,0.7-0.8,1.1-1.4,1.5c-1.8,1.3-3.9,2.2-5.9,3.3c-2,1-3.9,2.1-6,3.8c2.3-0.1,3.9-1.3,5.8-1.6
		c0.8,2.2-1.9,3.7-1.1,5.9c0.9-0.4,1.1-1.3,1.6-2c1.5-2.3,3.1-4.7,5.1-6.6c2.9-2.8,6.5-4,10.5-3.9c0.4,0,0.8,0,1.2,0.5
		c-3.4,3-6.6,6.2-8.7,10.4c0.5,0.6,1.1,0.4,1.5,0.1c0.6-0.4,1.2-0.8,1.8-1.2c1.7-1.3,1.7-1.3,2.2,0.9c0.1,0.5,0.2,1,0.8,1
		c0.5,0,0.9-0.3,1.1-0.8c0.2-0.5,0.2-1.1,0.3-1.6c1-4.8,3.9-8,8.2-9.9c0.1,0,0.3,0.1,0.6,0.1c-0.4,2.2-3.3,3.8-1.7,6.9
		c1.3-1.6,2.5-3,3.6-4.4c0.7,0.5,0.3,0.9,0.2,1.3c-0.8,2-1.7,3.9-2.6,5.9c-0.4,1-0.9,2,0,2.9c0.8,0.8,1.9,0.6,3,0.5
		c1-0.1,1.3-0.6,1.2-1.6c-0.2-1.5,0-3,0.1-4.5c0.3-5,2.9-8.3,7.6-10c0.6-0.2,1.2-0.4,1.8-0.6c0.2-0.1,0.4-0.1,0.7-0.1
		c-0.2,0.4-0.3,0.8-0.5,1.3c1.6-0.2,3-1.4,4.8-0.8c-0.9,1.6-2.6,2.3-3.7,3.5c-1.2,1.2-2.3,2.4-3.1,4.4c1.9-0.8,3-2.1,5-3.1
		c-1.2,3.4-3,6.1-2.9,9.5c1.8-3,3-6.4,5.5-9.2c0.2,1.3-0.4,2.1-0.6,3c-0.7,2.1-1.2,4.3-1.3,6.6c0,0.6,0.1,1.1,0.8,1.3
		c0.7,0.2,1.4,0.3,1.7-0.4c1.2-3,3.5-5.3,5.7-7.6c-0.9-0.6-1.5,0.4-2.4-0.2c3.3-4.3,7-7.9,12.6-8.6c3.2-0.4,6.1,0.6,8.8,2.7
		c-1.5,0.9-2.7,0.4-3.9,0.1c-0.6-0.1-1.2-0.3-0.7,0.8c0.3,0.6-0.3,0.6-0.6,0.6c-1.5,0.2-3,0.4-4.7,0.7c1.1,1,2.4,0.3,3.6,0.9
		c-2.9,1.8-6.3,2.5-8.6,5.3c0.9,0.6,1.8,0.2,2.6,0.1c0.8-0.1,1.6-0.3,2.5,0.5c-1,1.7-2,3.4-3,5.1c0.7,0.6,1.4,0.4,2,0.4
		c2.8,0,5.6-0.1,8.4,0c1.6,0,2.7-0.4,3.5-1.9c1.2-2,2.8-3.7,4.7-5.1c5.2-3.7,11.3-3.5,16.1,0.7c1.5,1.3,2.8,2.9,3.8,4.6
		c0.6,1,1.3,1.6,2.5,1.6c6.1,0,12.3,0,18.5-0.3c-2-1.5-4-2.8-6.6-2.3c-0.5-0.6-0.1-1,0-1.4c0.2-0.8-0.3-1-0.9-1
		c-1,0-1.9,0.1-2.9,0.1c-1,0-2.1,0.3-3-0.6c0.1-1,1.3-1.1,1.8-2.1c-2.4-1-5.3-0.8-7.4-2.6c0.6-1.3,1.9-0.7,2.8-1.3
		c-0.7-0.8-1.6-0.7-2.4-0.7c-1.1,0-2.2,0-3.4,0c-1.1,0-2.3-0.1-2.8-1c-0.8-1.4-1.8-1.1-2.9-0.9c-6.4,1.1-12.6-0.2-18.5-2.6
		c-2.7-1.1-5.3-2.3-7.8-3.7c-0.7-0.4-1.3-0.9-2.2-1c-0.5,0.6,0.5,1.2,0.1,1.9c-2.1,0.3-3.2-1.7-4.8-2.5c-0.9,0.5,0.1,1.7-1,2
		c-0.9,0.2-1.7,0-2.6-0.3c-1.2-0.5-2.1-1.5-2.9-2.4c-0.7-0.8-1.3-1.8-2.2-2.4c-0.5,0.7,0.3,1.1,0,1.7c-0.1,0.2-0.2,0.1-0.3-0.1
		c-2.5-3.8-5.5-7.3-8.9-10.3c5.2,1.5,9.1,5.1,13.8,8.3c-0.8-4-2.2-7.3-3.6-10.7c1.4,1.4,2.9,2.8,4.3,4.1c1.6,1.4,3.2,2.9,4.9,4.2
		c1.6,1.3,3.3,2.5,5,3.7c1.7,1.2,3.4,2.4,5.5,3.1c0.2-1.8-1-3.3-1-5c1,0.6,1,1.9,2,2.4c0.8-0.8,1.1-1.9,1.5-2.9
		c1.9-4.8,2.7-9.9,3.2-15c0.4-3.8,0.8-7.7,0.1-11.5c-0.3-2,0.4-4.4-1.9-5.9c-0.5-0.3-0.4-1.6-0.5-2.5c-0.5-3.2-1.1-6.5-2.4-9.5
		c-0.3-0.7-0.4-1.5-1.4-2c1,5.5,2.2,10.9,1.7,16.5c0,0.5,0,1-0.6,1.3c-1.2-8.7-3.6-16.9-8.3-24.5c0.7,2.4,1.4,4.8,2,7.2
		c-0.2,0.1-0.4,0.1-0.5,0.2c-1.9-3.2-3.3-6.6-5-9.9c-1.7-3.3-3.4-6.7-5.3-9.9c-0.5,5,0.6,9.9,0.9,14.8c-3.8-5.9-6.3-12.5-8.7-19.6
		c-0.4,1.8,0.1,3.1,0.2,4.3c0.1,1.3,0.3,2.6,0.3,4c-3-5.8-5.4-11.8-7.1-18.4c-0.2,0.8-0.3,1.1-0.4,1.5c-0.2,0.1-0.3,0.1-0.4-0.1
		c-2.2-6.3-2.7-12.8-2.2-19.4c0.1-1.3,0.3-2.6,0.1-4.5c-1.2,2.1-1.6,3.8-1.9,5.6c-0.6,4-0.2,8,0.3,12c0.2,2,0.5,3.9,0.6,5.9
		c-5.3-7.9-7.1-16.4-4.3-25.7c-3.2,6.2-4.2,12.8-4,19.9c-0.9-0.6-0.9-1.3-1.1-1.9c-1.8-7-1.3-13.9,0.6-20.8c0.9-3.4,2.1-6.7,3.4-10
		c0.3-0.7,0.7-1.4,0.7-2.5c-2.6,1-4,3-5.4,5c-1.4,2-2.8,4.1-4.4,6.5c-0.4-1.7,0.1-2.9,0.6-4.1c0.8-2,2.1-3.8,3.4-5.5
		c1.9-2.5,3.8-4.9,5.5-7.6c-3.2,0.7-5.3,3.3-8,5.1c-0.1-0.8,0.4-1.1,0.7-1.5c2.8-3.3,6.3-5.6,10.2-7.4c3.8-1.7,7.8-2.9,11.7-4.2
		c3-1,5.9-2,8.7-3.5c1.1-0.5,2.1-1.1,3.2-2.1c-1.6-0.7-3.2-0.1-4.6-0.9c5.8-1.8,12-2.2,17.3-5.6c-3.3,0.4-6.6,0.9-9.9,1.3
		c4.8-2.6,10.1-4.3,15.4-6.6c-1.2-0.9-2.5,0-3.8-0.8c0.9-0.3,1.6-0.6,2.2-0.8c2.7-0.8,5.4-1.5,8.1-2.3c0.7-0.2,1.6-0.1,1.9-1.2
		c0.2-0.7,1-0.4,1.5-0.4c2,0,4.1,0,6.1-0.2c-2.9-1.2-6-1.4-9.5-2.5c4.8-1.3,9.2-1.7,13.7-2.8c-1.4-1.1-3.3-0.5-4.7-1.4
		c0.5-0.8,1.4-1,2.1-1.3c2.6-1.2,5.4-1.9,8.2-2.7c1.6-0.5,3.2-1,4.8-1.6c0.4-0.1,1-0.4,0.8-0.7c-0.9-1.3,0.3-1.4,1-1.7
		c3.2-1.7,6.3-3.4,9.5-5.1c0.6-0.3,1.2-0.7,1.8-1.3c-3.7,0.1-7.2,1.1-10.8,1.5c0-0.8,0.7-1,1.2-1.3c2.8-1.8,5.9-2.9,9-3.8
		c3.1-0.9,6.2-1.5,9.2-2.6c1-0.4,2-0.6,3-1.5c-3.7-2.1-7.9-1.7-11.7-2.9c5.8-1,11.7-1.3,17.6-0.8c-2.6-2.2-5.9-2.1-9-2.8
		c1.4-1.5,1.6-1.5,7.4-1.8c-0.1-0.6-0.5-0.4-0.8-0.4c-0.4-0.1-0.8-0.1-1.1-0.2c4.2-1,8.4-0.9,12.6-0.5c4.2,0.4,8.2,1.9,12,4.3
		c-0.2-1.4-1.1-1.9-1.4-2.8c4.4,1.3,11.3,7.4,12.7,11.4c-2-0.8-3.8-1.4-6.1-2.3c1.2,2.1,2.7,3.2,3.4,5c-2.4-1.3-4.7-2.5-7.2-3.9
		c-0.2,0.9,0.7,1.1,0.6,1.8c-0.2,0.2-0.4,0.1-0.7,0c-4.4-1.5-8.7-3.1-13.1-4.6c-0.5-0.2-0.5-0.2-2.1,0.3c-0.2,0.1-0.5,0-0.7,0
		c-4.6,0-8.6,2.3-12.8,3.8c2.3,0.4,4.6,0.7,6.9,1.2c2.4,0.5,4.5,1.5,6.5,3.6c-3.3,0.6-6.4-0.2-9.7,1c2.8,1,5.7,1.3,7.9,3.8
		c-5.2,0.4-10,1.1-14.3,3.6c2.2,0.6,4.6,0.3,6.9,1.8c-5.6,1-10.9,1.4-15.4,4.7c4.5-0.5,8.9-2,13.8-0.8c-1.4,1.1-2.8,1.6-4,2.2
		c-2.5,1.2-5,2.5-7.3,4.1c-3,2.2-4.7,4.4-5.8,7.7c0.4,0.8,1.2-0.3,1.8,0.4c-3.1,4.8-4.6,10.3-7.3,15.8c1.5-0.5,2.1-1.6,3.7-2.2
		c-1.9,5.6-4.3,10.7-6.3,16.4c1.4-1,1.9-2.4,3.3-3.3c-0.4,2.6-1.5,4.6-2.2,6.7c-0.7,2.2-1.6,4.3-2.4,6.5c1,0.2,1.1-0.8,1.9-0.7
		c-1.4,4.9-3.4,9.6-4.1,15c1.6-1.3,2-3.3,3.7-4.7c-0.9,4-1.7,7.6-2.6,11.2c-0.9,3.9-1.8,7.8-2.7,11.7c-0.2,0.8-1.1,1.8,0.3,2.4
		c0.1,0.1-0.1,0.9-0.2,1.4c-0.8,3.6-2.1,7-3.4,10.5c-1.8,4.9-3.8,9.7-4.7,14.8c-0.2,1.3-0.4,2.5-0.3,3.8c0.4,0.2,0.5,0,0.5-0.2
		c1.7-6,3.9-11.8,6.2-17.6c2.2-5.8,4.2-11.7,5.6-17.8c-0.3,7-1.5,13.8-3,20.6c6.5-15.9,7.8-32.8,9.4-49.6c0,2.7,0,5.4,0,8.1
		c1.6-6.4,1.2-12.9,1.7-19.4c0.3,3,0.6,6.1,0.8,9.1c0.7-10.7,2.8-21.1,7.2-30.9c2.5-5.5,5.5-10.7,9.2-15.5c0.4,0.9-0.2,1.5-0.5,2
		c-2.4,4.8-5.1,9.4-7.1,14.4c-0.3,0.8-0.9,1.5-0.5,2.8c6.5-12.7,15.9-22.7,27.4-31.4c-3.1,0.4-5.5,1.7-8.1,0.9c0-0.8,0.7-0.8,1.1-1
		c3.3-1.5,6.7-3,10.1-4.5c0.2-0.1,0.5-0.2,0.7-0.3c2.6-1.9,5.6-2.4,8.8-2.5c3.9-0.1,7.7,0.1,11.4,1.1c0.7,0.2,1.5,0.7,2.6,0.5
		c-2.5-2-4.7-3.9-7-5.9c0.1-0.1,0.1-0.2,0.2-0.3c1.4,0.7,2.8,1.4,4.5,2.2c0-0.8-0.5-1.1-0.8-1.4c-2.6-2.5-5.3-4.9-7.6-7.6
		c-2.1-2.4-4-5-5.3-8c0.4,0.1-0.1,0,0.2-0.2c0.1,0,0.2-0.1,0.2,0c5.7,4.2,11.4,8.5,17.4,12.9c-0.6-2.2-1.8-3.6-2.5-5.3
		c-0.7-1.7-1.6-3.2-1.6-5.7c5.2,6.9,10.7,12.7,19,14.7c0.2-0.5-0.1-0.7-0.2-0.9c-0.1-0.2-0.2-0.4-0.4-0.8c10.3-2,20.6-2.9,31-1
		c-8.2-5.7-17.4-9-27.2-10.8c3.7-1.6,7.6-2,11.5-2c6.2,0,12,1.6,17.7,3.8c2.9,1.1,5.7,2.3,9.1,3.7c-1.9-3.1-4.2-5.2-6.1-8.2
		c2.5,0.9,4.2,2.3,6,3.6c1.9,1.3,3.7,2.8,5.5,4.3c1.7,1.5,3.4,3.1,5.4,5c-0.7-4.5-1.3-8.5-1.9-12.6c0.1-0.1,0.3-0.1,0.4-0.2
		c0.8,1.1,1.6,2.3,2.5,3.7c0.7-2.3,0.2-4.5,0.7-7c1.5,3.7,2.1,7.2,3.4,10.9c1.3-3.8,1.7-7.4,3.2-10.8c0.9,4.5,1.7,9,2.6,13.9
		c3.5-3.2,6.9-5.8,11.2-7.5c-0.3,1.4-1.6,1.9-2,3.2c1.6-0.3,2.8-1.4,4.6-1.5c-1.7,1.9-3.3,3.8-5,5.7c0.1,0.1,0.2,0.3,0.3,0.4
		c9.9-6.9,20.5-12.4,32.7-13.8c-4.6,3.6-9.6,6.6-14.3,10.2c6.9-0.4,13.7,0.1,20.6,1.2c-2.4,0.8-4.7,1.7-7.1,2.5
		c3,1.4,5.5,3.4,8.5,4.5c1.7,0.6,3.3,0.5,4.9-0.3c3-1.4,5.5-3.5,7.7-6c2.8-3.2,5.1-6.7,7.1-10.5c0.5-0.9,0.8-1.9,1.8-2.9
		c0.2,4.6-1,8.6-2.6,13.1c6.1-3.7,11-8.1,16.4-12.8c-0.5,2.1-1.6,3.4-2.2,5.3c2.6-1.3,4.3-3.4,7-4.9c-0.8,2.2-2.3,3.3-3.3,4.9
		c5.8-3.4,12-5.7,18.8-6c-5.7,1.4-11.5,2.7-15.7,7.3c4.6-2,9.2-3.8,14.3-4.2c5-0.4,9.9,0.1,14.7,2.1c-9.3,0.1-18.2,1.4-26.2,6.5
		c2-0.7,4-1.5,6-2.1c4.8-1.6,9.6-3.1,14.7-3.2c3.7-0.1,7,0.5,9.6,2c-3.9,0.9-7.8,0.5-11.3,2.2c0.2,0.9,0.9,0.9,1.5,1.1
		c3.2,1.2,6.6,1.7,10.1,2.1c3.3,0.3,6.5,0.6,9.7,1.5c1,0.3,2.1,0.5,3.4,1.4c-4.8,0.6-9.3,0.6-13.9,2.2c8.2,4.5,16.8,5.4,25.7,5.8
		c-1.9,0.6-3.7,1.2-5.6,1.8c0,0.8,0.6,0.7,1,0.7c0.7,0.1,1.2,0.3,1.6,0.9c1,1.6,2.6,2.3,4.3,2.8c1.3,0.3,2.7,0.5,3.9,1.4
		c-0.6,1.1-2,0.8-2.8,1.8c4.7,2.9,9.7,4.4,15.2,4.6c-0.8,1.3-2.2,1.5-2.9,2.7c1.2,0.9,2.4,0.9,3.7,1c1.2,0,2.4-0.1,3.6-0.2
		c0.3,0,0.7,0,0.9,0.1c1.5,1.1,1.5,1.1,2.7,1.1c0.2,0,0.3,0.1,0.5,0.1c-0.2,0.7-0.6,1.3,0.5,1.8c3.7,1.6,7.3,3.3,10.9,5.1
		c0.7,0.3,1.5,0.5,2.2,1.4c-0.9,0-1.8,0-2.8,0c0.4,0.8,1.1,1,1.6,1.2c4.1,1.6,8.2,3.1,12.3,4.7c3.5,1.3,7,2.8,10.2,4.8
		c4.8,3,8.5,7,10.9,12.2c0.3,0.6,0.6,1.1,0.6,1.9c-1.2-0.4-1.4-1.8-2.6-2.4c-0.3,0.8,0.3,1.5,0.5,2.1c1.7,4.2,3.2,8.4,3.9,12.8
		c0.3,2.1,0.4,4.3,0.1,6.5c-1.5-4.5-2.3-9.2-4.9-13.3c0.7,4.6,2.9,9,2.7,13.8c-1.1-1.7-1.3-3.7-2.3-5.4c0,4.3-0.1,8.6-0.7,12.9
		c-1-0.3-0.4-1.5-1.1-2c-0.8,2.3-0.7,4.6-1.4,6.9c-0.8-7.3-1.1-14.8-3.9-21.7c-0.2,0-0.3,0-0.5,0c0.1,1.2,0.1,2.4,0.2,3.6
		c0.4,5.8,0.9,11.6,0.7,17.5c-0.2,8-2,15.5-6.7,22.1c-0.3,0.4-0.5,0.9-1.2,1.2c2.1-5.6,5.6-10.6,5.3-16.7
		c-3.3,10.8-8.5,20.6-16.4,28.9c1.6-4.5,4.2-8.7,5.4-13.5c-3.7,6.3-8.1,12.1-12.7,18.3c0.1-2.3,1.3-3.7,1.6-5.5
		c-0.7,0.1-0.9,0.6-1.2,1c-2.3,3-4,6.4-5.4,9.9c-1,2.4-1.8,4.8-2.8,7.2c-0.3,0.8-0.5,1.7-1.3,2.5c0.5-2.7,0.9-5.2,1.4-7.9
		c-1.2,0.5-1.5,1.4-1.9,2.2c-1.8,3.5-2.9,7.3-3.5,11.2c-1.4,8-1.4,15.9,0.4,23.8c0.1,0.2,0,0.5,0,1.3c-5.9-7.9-11.1-15.7-16.1-23.6
		c-5.1-8-9.8-16.1-14.1-24.5c-4.3-8.4-8-17-11.3-25.8c-1.3,5.3,1.8,9.6,3.3,14.4c-2.6-2.4-5.3-4.9-8.3-7.7c0.6,6.9,4.7,12,6.4,18.2
		c-1.4-0.8-2-2.2-3.4-3c0.5,2.9,1.9,5.1,3.1,7.4c1.2,2.2,2.5,4.4,3.7,6.5c-0.1,0.1-0.3,0.2-0.4,0.3c-1.9-1.3-3.7-2.6-5.6-4
		c-0.6,0.6,0,1.1,0.2,1.5c1.2,2.4,2.9,4.4,4.3,6.6c1.5,2.3,2.8,4.7,3.1,7.5c0.1,0.6,0.2,1.3-0.1,2.1c-1.4-0.7-2.1-2.1-3.3-3
		c-1.3-0.9-2.6-1.9-3.9-2.8c-1.3-0.8-2.6-1.6-4.1-2.3c4.3,6.8,6.8,14.3,9,22.4c-1.3-1.2-1.5-2.5-2.9-3.6c1.9,6.6,3.5,12.7,4.1,19.1
		c-0.2,0.1-0.3,0.1-0.5,0.2c-0.6-1.3-1.3-2.5-1.9-3.8c-1.3-2.9-2.6-5.9-3.9-8.7c-1.4-2.9-3-5.6-5.2-8c-0.5-0.6-1-1.2-2.1-1.7
		c0.2,3.3,1.2,6.2,1.7,9.1c0.5,3,1.2,5.9,1.8,8.8c-0.1,0.1-0.3,0.2-0.4,0.2c-1.7-2.1-3.4-4.1-5-6.2c-0.2,0.1-0.3,0.1-0.5,0.2
		c1.8,7.9,3.7,15.7,5.5,23.6c-0.2,0.1-0.3,0.1-0.5,0.2c-2-3-4-6.1-6.2-9.5c-0.7,3.6,1,6.8,0,9.9c-0.8,0.1-0.8-0.9-1.4-1
		c-0.1,0.1-0.2,0.3-0.2,0.4c0.3,2.6,1.2,5,2.9,7c1,1.2,1.5,1.3,2.9,0.4c2.1-1.4,4.2-2.9,6.3-4.4c0.8-0.5,1.5-1.1,2.6-1.4
		c-0.5,0.9-1,1.8-1.5,2.7c0.1,0.1,0.1,0.2,0.2,0.3c2.5-1.3,5-2.6,7.4-3.9c0.1,0.1,0.2,0.3,0.3,0.4c-1.6,1.8-3.2,3.6-5.2,5.8
		c4.4-0.5,8-2.4,12.1-1.7c-0.5,1-1.8,0.9-2.4,1.8c2.2,1.4,4.9,1.9,7.3,3.2c-1.4,0.8-2.9,0.3-4.4,0.9c2.2,1.5,4.4,2.6,7,2.6
		c19.8,0,39.6,0.8,59.5,0.1c14.5-0.5,29.1,0.3,43.6,0.5c4.1,0.1,8.2,0.1,12.2,0.2c2.2,0,2.2,0,2.2,2.3c0,1,0,1.9,0,2.9
		c0,1.8,14.2,1.4,12.3,1.4c-6.5,0-27.2,0.4-33.7,0.4c-36.6,0-73.3,0-109.9,0c-6.8,0-13.6,0-20.4,0c-0.7,0-1.4,0-2.5,0
		c2.6,7.2,6.1,13.6,10.6,19.6c-5.7-2.1-11.4-4.3-17.1-6.4c-0.1,0.1-0.2,0.2-0.3,0.4c0.8,1.2,1.8,2.2,2.7,3.3
		c0.9,1.2,1.9,2.3,2.9,3.5c0.9,1.2,1.9,2.4,2.8,3.6c0.8,1.2,1.7,2.3,2.5,3.5c0.8,1.3,1.6,2.6,2.4,3.9c0.7,1.3,1.4,2.6,2.1,3.9
		c-0.1,0.1-0.3,0.2-0.4,0.3c-2.2-1.7-4.3-3.4-6.5-5c0.9,3.1,2.2,5.8,3,8.8c0.8,2.9,1.4,5.8,1.2,9c-2.8-5.5-5.7-11-10.3-15.4
		c0.6,1.3,1.2,2.7,1.9,4c1.9,4.1,3.7,8.2,4.4,12.6c0.6,4.1,0.1,8-1.7,11.7c-0.1,0.2-0.2,0.4-0.4,0.6c-0.1,0.1-0.2,0.2-0.6,0.4
		c0.2-4.4-0.2-8.5-1.5-12.6c-1.2-4-2.9-7.7-5.6-11.1c3,12.7,0.8,24.1-8.1,33.9c0.8-4.3,2.3-8.6-0.9-13.1c-0.1,2.3,0.6,4.2-0.6,6.4
		c-1.3-4.1-2.4-7.8-4.8-11.4c-0.5,1-0.2,1.9-0.1,2.6c0.8,4.8,1,9.7,0.8,14.6c-0.1,1.2-0.1,2.3-0.6,3.5c-0.6-0.4-0.7-1-0.8-1.5
		c-0.5-1.4-1.1-2.7-1.8-3.9c-2.6-4.4-6.5-6.5-11.5-6.6c-2.7,0-5.4,0.6-8,1.3c-1,0.3-1.2,0.7-1,1.7c0.8,3.9,1.1,7.9,0.7,11.9
		c-0.6,6.5-3.4,11.9-8.9,15.8c-0.4,0.3-0.8,0.8-1.7,0.6c2.1-7.3,4.2-14.6,1.6-22.5c-1.2,1.7-0.3,3.7-1.3,5.8c-0.4-2.1-0.7-3.7-1-5.3
		c-0.1,0-0.1,0-0.2,0c-0.3,2.8-0.6,5.5-1.1,8.3c-1.1,6.8-3.7,12.9-8.4,18c-0.4,0.4-0.7,0.9-1.6,1.2c3.2-6.5,3.7-13,0.8-19.6
		c-0.5,8.2-4.3,14.7-9.9,20.3c2.4-5.1,4.4-10.4,5-16.1c-4.1,10.7-10.9,19.4-19.9,26.5c2.1-4.9,5.7-9,7.6-14.6
		c-3,2.2-5.1,4.9-9.2,5.4c3.8-5,5.3-10.5,6.4-16.1c1.4,3.3,0.1,6.3-0.1,9.6c1.5-2,3-4,4.5-6.1c1.2,1.1,0.1,2.3,0.4,3.6
		c1.2-1.3,1.4-2.8,1.8-4.2c0.6-2,1.1-4,1.7-5.9c1-3.3,0.9-6.7-0.5-10.5c-0.5,2.1-0.8,3.7-1.3,5.6c-1-1.3-0.8-2.8-1.8-4
		c-0.4,2.5,1.1,4.9-0.4,7.2c-1.4-2.4-1.7-5.1-3.1-7.5c0,2,0,4,0.2,6c-2.4-3-4-6.5-6.5-9.5c0.5,2,0.9,4,1.4,6.3
		c-2.3-1.3-4.6-2-6.6-3.7c0.1,2.6,0.6,5-0.4,7.5c-1.7-1.9-2.5-4.3-4.2-6.6c-0.5,2.9,0,5.5-0.5,8.2c-2.1-4.5-5.1-8.4-8.9-11.9
		c0,1.2,0,2.5,0,3.7c0,2.6,0,5.3,0,7.9c0,0.4,0,0.9-0.5,1c-0.4,0.1-0.7-0.2-0.9-0.6c-0.5-1-1-2-1.6-2.9c-1.2-1.7-1.8-1.6-2.8,0.3
		c-0.1,0.1-0.2,0.2-0.5,0.5c-0.6-1.7-1.2-3.2-1.9-5.1c-0.6,2-0.6,3.8-1,5.5c-1.2-0.2-0.4-1.5-1.3-1.8c-0.9,0.3-0.7,1.6-1.6,1.9
		c-0.4-0.6-0.4-1.3-0.6-2c-0.2-0.5-0.1-1.1-1-0.7c-0.6,0.3-0.5-0.4-0.5-0.7c0-0.8,0-1.7-0.5-2.7c-1.3,2.3-2.6,4.7-3.9,7
		c-0.1,0.1-0.1,0.3-0.1,0.5c0.9,2.4-0.1,4.7-0.3,7.1c0,0.1,0.1,0.2,0.2,0.5c1-1.6,0.9-3.6,1.9-5.2c0.6,0.9,0.1,1.8,0.4,2.7
		c0.9,0,0.7-1.1,1.6-1.3c0.5,3.3-0.4,6.6,0.6,9.8c0.7-2.8,0.4-5.8,1.1-8.8c0.6,0.4,0.7,1,0.8,1.6c0.2,0.7,0.3,1.4,0.6,2.1
		c0.7,1.4,1.5,1.5,2.4,0.2c0.7-0.9,1.3-1.8,2-2.7c0.7-0.9,1.5-1,1.7,0c0.3,1.2,1.4,0.9,1.9,1.6c0.6,0.8,0.8,1.9,1.6,2.8
		c1.3-1.5,0.5-3.4,1.2-5.1c1.8,1.1,1.4,3.2,2.5,4.8c1.6-1.4,2.2-3.5,3.7-5c2.3,3.1,1.6,6.4,0.8,9.7c3.4-3.7,5.7-8,7.2-13.1
		c0.9,1.7,0.9,3.4,1.6,5.1c2.3-2.1,2.2-4.8,2.7-7.5c1,1.6,0.5,3.5,1.4,5.1c1-0.9,0.8-2.3,1.9-3.1c1.3,1.6,1.1,3.3,0.6,5
		c-0.8,2.9-2.2,5.7-3.9,8.2c-1.8,2.7-3.9,5.1-6.2,7.3c-3.3,3.2-6.9,6.2-10.8,9.4c-1.2-4.9,0.7-9.1,1.2-13.5
		c-1.9,0.9-3.1,2.3-5.4,6.5c-1.5-2.3-2-5-3.3-7.3c-3.5,1.9-3.8,3.1-2.2,8.7c-0.9-0.1-0.9-1.3-1.8-1.4c-0.6,2.6,1.2,4.6,1.5,7.2
		c-2.4-2.5-4.8-5-7.6-7.9c0.3,3.3,2.3,5.3,3.4,7.8c-1.2,0.1-2-0.5-2.7-1c-3.7-2.3-6.8-5.4-9.3-8.9c-2.3-3.3-4.5-6.8-6.8-10.2
		c-0.4-0.6-0.7-1.4-1.6-2c0.3,2.1,1.2,3.7,2,5.3c0.8,1.6,1.7,3.3,2.7,5.1c-1.7-0.2-2.8-1.3-4.1-1.9c-1.3-0.7-2.6-1.6-4.4-2.8
		c2.3,5.2,4.8,9.8,6.9,14.6c-2.2-1-7.1-6-10.5-10.6c-2.9-4-5.1-8.4-6.9-13.1c-2.5,10-2.4,19.6,3.8,28.6c-3.6-1.4-9.4-9.1-11.7-15.1
		c-2.3-6.2-2.4-12.6-1.6-19.2c-3.5,4.3-5.4,9.2-7.4,14.6c-2.8-4-3.9-8.1-3.9-12.5c0-4.4,1.4-8.5,3.3-12.4c-0.7-0.6-1.1,0-1.6,0.2
		c-5.2,2.6-9.2,6.5-12.5,11.3c-1,1.4-0.9,2.9-0.2,4.3c0.8,1.7,1.6,3.4,2.3,5.2c-5.3-4.5-9.1-10-12-16.8c-0.7,2.4,0.2,4.5-0.3,6.6
		c-1.9-0.7-3.2-2-4.2-3.5c-2.2-3.2-3.1-6.8-3.4-10.6c-0.2-3.2-0.2-6.4,0.3-9.6c0.1-0.4,0.2-0.9-0.2-1.5c-1.9,2.7-3.1,5.6-4.2,8.6
		c-1.1,2.9-2.2,5.8-3.3,8.7c-2.2-1.1-2.5-1.8-4-9.8c-1.3,1.3-1.5,3.2-3,4.7c0.6-3.3,0.5-6.3,0-9.2c-0.1-0.8-0.3-1.6-0.6-2.3
		c-1,0.3-1.1,1.3-1.4,2.1c-0.4,0.9-0.7,1.8-1.6,2.3c-0.4,0.3-0.9,0.5-1.3,0.3c-0.6-0.3-0.3-0.8-0.3-1.3c0.2-3.9,0.5-7.8,0.8-11.7
		c0.3-4.1,1-8.2,2-12.5c-2.3,1.2-3.6,2.9-4.7,4.7c-2.1,3.7-3.1,7.7-3.4,11.9c-0.1,2.3,0,4.6,0,7c-0.8,0.3-0.9-0.5-1.2-0.8
		c-1.6-2.2-2.4-4.7-2.6-7.4c-0.3-3.5,0-6.9,1.2-10.2c0.7-2,1.4-4.1,1.6-6.5c-2.1,1.4-3,3.6-5.2,5.2c5.5-17.3,16.3-29.2,33.1-35.5
		c-4.1,3.3-8.1,6.6-12.4,10.1c1.4,0.2,2.3-0.6,3.7-0.4c-1.2,1.7-2.2,3.2-3.6,5.2c2.5-0.8,3.9-2.3,5.7-3.2c1.9-1.1,3.7-2.2,5.6-3.3
		c1.8-1,3.6-2,5.5-3c1.8-1,3.7-1.8,5.7-2.9c-0.1,1-0.6,1.3-1,1.8c-3,3.6-6.6,6.5-10.2,9.4c-3,2.4-6,4.8-9,7.2
		c-0.8,0.7-1.6,1.3-2.2,2.2c0.4,0.5,0.7,0.1,1-0.1c0.4-0.2,0.7-0.4,1.1-0.4c0.7,1.6-0.8,2.6-0.9,4.1c4.3-4.3,8.7-8.5,14.2-11.3
		c-3.2,5-7.5,9-11,13.7c4.2-3.5,8.4-7,12.8-10.7c0.2,0.8-0.1,1.2-0.4,1.6c-1.5,2.5-3,5.1-4.6,7.6c-1.6,2.7-3.2,5.4-4.3,8.3
		c-0.3,0.7-0.7,1.4-0.7,2.4c0.7-0.2,1-0.8,1.3-1.3c2.9-3.8,5.8-7.6,8.7-11.5c2.8-3.8,5.8-7.5,9.1-10.8c3.5-3.4,7.3-6.2,11.8-8.1
		c0.7-0.3,1.4-0.8,2.3-0.6c0,0.9-0.6,1.5-1.1,2.1c-2.5,3.3-5.4,6.1-9.1,8c-3.7,1.9-6.8,4.5-9.3,7.7c-1.3,1.7-2.6,3.4-3.8,5.2
		c-2.4,3.4-4.7,6.8-7.7,10.1c1.3,0.4,2.3-0.5,3.4-0.4c0.3,1.2-0.6,1.8-1.1,2.5c-0.5,0.6-1.1,1.3-0.4,2.1c0.7,0.7,1.5,0.4,2.2,0
		c1.3-0.8,2.3-1.9,3.2-3.2c4.4-5.9,8.7-11.9,13.1-17.8c0.5-0.6,0.8-1.4,1.9-2c-1.2,4.8-3.5,8.8-5.2,13.2c6-7.3,11.7-14.8,20.2-19.5
		c-0.5,0.7-1,1.4-1.5,2c-8.2,10.6-16.4,21.3-24.7,31.9c-1.6,2-2.2,4-1.2,6.4c0.4,0.1,0.5-0.3,0.6-0.6c2.8-6.8,6.9-12.8,11.6-18.4
		c4.6-5.5,9.6-10.5,14.3-15.9c0.1-0.2,0.4-0.3,0.6-0.4c0.2,0.9-0.4,1.6-0.7,2.3c-3.1,6.7-7.1,12.9-11.9,18.5
		c-0.7,0.9-1.3,1.8-1.4,2.9c-0.3,2.3-1.3,4.4-2.4,6.5c-0.9,1.8-2,3.4-2.6,5.4c5.9-5.9,11.6-11.9,17.1-18.2
		c5.5-6.3,10.8-12.8,15.7-19.6c-0.4,2.5-1.4,4.8-2.4,7c-2.5,5.2-5.8,9.7-9.5,14.1c-2.6,3.1-5.2,6.1-7.8,9.1
		c-0.9,1.1-2.2,2.1-1.6,3.9c0.1,0.3-0.2,0.7-0.5,1.6c3.6-2.8,6.9-5.2,11-7.2c-1.3,3.6-3.3,6.4-4.9,9.4c6.3-4,11.8-8.8,15.6-15.6
		c-2.1,1.2-4.2,2.4-6.3,3.6c-0.1-0.1-0.2-0.2-0.3-0.3c6.4-6.2,11.9-13.1,17.1-20.8c0.2,1.4-0.3,2.2-0.7,3c-1.7,4.3-3.9,8.2-6.3,12.1
		c-2.6,4.3-5.2,8.6-7.2,13.3c-0.3,0.8-0.8,1.5-0.7,2.8c4.4-2.9,8.4-5.8,11.1-10.1c3.3-5.2,6.9-10.2,10.3-15.4
		c1.8-2.8,2.7-5.8,2.6-9.1c-0.1-4.4-1.9-7.8-5.5-10.4c-1.6-1.1-3.3-1.9-5.2-2.3c-2.9-0.6-5.1-2.2-7-4.3c-4.2-4.7-6.8-10-6.7-16.5
		c0-1.4,0-2.9,0-4.3c0-1.8,0-1.7-1.8-2c-0.4-0.1-0.8,0.1-1-0.6c0.6-0.6,1.5-0.3,2.2-0.6c0.6-0.2,1.2-0.4,1.5-1.1
		c0.4-0.9,0-1.5-1-1.6c-0.5-0.1-0.9,0.1-1.5-0.2c0.6-1.1,1.9-0.7,2.7-1.3c1-0.7,0.9-1.2-0.5-2.1c3-1.5,4.5-4.2,6-6.9
		c2.2-4,5.3-7.2,9.2-9.6c1.5-1,3.1-1.9,4.6-2.9c-0.1-0.8-0.9-0.9-1.1-1.4c0-0.2,0.1-0.3,0.3-0.3c1.3,0.2,2.6,0.4,4,0.7
		c-0.1-0.3,0-0.5-0.1-0.6c-0.3-0.6-1.7-0.6-1.3-1.4c0.5-0.9,1.4,0,2.1,0.1c1.8,0.5,3.6,1.1,5.6,1.4c-0.9-1.1-1.8-2.1-3-3.5
		c1.8,0.2,2.8,1.2,3.9,1.9c1.3,0.9,2.5,1.7,4.2,1.6c1.3-0.1,1.5-0.4,0.8-1.6c-1.1-1.9-2.2-3.7-3.3-5.6c-0.3-0.5-0.7-1-0.8-2
		c3.1,1.9,4.5,4.9,6.5,7.8c0.3-2.3-0.6-4.1-0.2-6.1c1.6,1.2,1.8,3.1,2.9,4.4c0.6-0.2,0.2-0.9,0.6-1.2c0.7,0.2,0.5,1.1,1.1,1.5
		c0.9-0.9,0.4-2.3,1.4-3.2c1,0.6,1.1,1.9,2.4,2.6c0.5-1.5,0.3-3.2,1-4.7c0.9,0.8,1.1,1.6,1.2,2.6c0,0.7,0,1.4,0.1,2.2
		c0,0.8,0.2,1.7,1.2,1.9c1.1,0.2,1.8-0.3,2.2-1.4c0.4-1.3,0.9-2.6,1.5-3.8c0.2-0.6,0.4-1.2,1.3-1.7c0.1,1.7-0.7,3.1-0.6,5
		c1.7-2.5,1.9-5.3,3.9-7.6c-0.4,2.6-1.4,4.7-1.9,6.9c-0.2,0.7-1,1.6-0.1,2.1c0.8,0.4,1.7-0.2,2.3-0.8c0.5-0.5,0.8-1.2,1.3-1.7
		c0.6-0.7,0.8-2.2,2.4-1.4c0.5,0.2,0.7-1,1.5-1c0.4,1.4-1.1,2.4-1.2,4.1c3.6-4,7-7.5,11.8-9.3c1.8-0.7,3.6-1.2,5.6-1
		c-5.8,1.9-11,4.6-14.6,10.2c1.1-0.1,1.6-0.6,2.1-1c3.2-2.1,6.5-4.1,10.1-5.4c5.2-1.8,10.2-1.5,15.5,1.2c-1.7,0.6-3,0.3-4.3,0.3
		c-1.7,0.1-3.3-0.1-4.9,1.2c-1.2,1-3,1.1-4.5,1.5c-2,0.5-4,1.2-5.5,2.8c-1.1,1.2-0.9,1.6,0.4,2.2c1.1,0.5,2.5-0.5,3.1,0.4
		c0.7,1.1,1.6,1.2,2.5,1.6c1.9,0.9,3.9,1.3,6,1.4c1,0.1,1.9,0.2,2.9,0.1c6.6-0.2,12.3,2.3,17.5,6.1c1.9,1.4,3.9,2.7,6,4.6
		c-1.8,0.3-3.2-0.2-4.5-0.6c-3.4-0.8-6.4-2.4-9.5-3.9c-3-1.5-6-3-9.2-4c-2-0.6-2-0.6-4.1,0.8c1.5,1.2,2.9,2.4,4.3,3.5
		c2.2,1.7,4.6,2.4,7.4,1.7c2-0.5,3.8,0.1,5.5,1c1.2,0.6,2.4,1.2,3.3,2.5c-4.4-0.8-8.8-1.6-13.3-2.5c0.1,1.1,0.7,1.7,1.1,2.3
		c1.8,2.7,3.5,5.5,4.5,8.7c0.5,1.6,1.6,2.3,3.2,2.4c3.2,0.2,6.1,1.1,8.8,2.8c0.5,0.3,1,0.5,1.3,1.4c-3.9-0.5-7.3-2.8-11.2-3
		c-0.4,2.1-0.1,4-0.1,5.9c0,2.7-0.2,5.4-0.9,8.1c-2.1,7.1-6.8,11.3-14,12.4c-2.3,0.4-3.7,1.2-4.7,3.4c-3.1,6.7-8,11.7-14.4,15.3
		c-0.8,0.5-1.7,0.9-2.5,1.5c-1.5,1.1-1.4,2.9,0.1,4c0.3,0.2,0.4,0.1,1-1.2c1.2,1.9,1.6,4.1,3.1,6.3c-0.4-2.8-0.7-5.1-1.1-7.5
		c1.9,2.8,2.7,6.1,4.6,9c0.2-1.9-0.4-3.8-0.2-5.7c0.9-0.3,0.9,1.1,2,0.6c-0.1-1.4-0.2-2.8-0.3-4.4c0.8,0,0.9,0.7,1.1,1.1
		c1.6,3,3.2,6.1,4.8,9.1c1.5,2.8,3.2,5.5,5.4,7.9c0.5,0.6,1,1.1,1.7,1.6c-5.3-7.2-9-15.1-10.2-24c4,8.9,9.5,16.8,16,24.1
		c-0.1-1.3-0.9-2.4-1.3-3.5c-0.5-1.2-1-2.4-1.3-3.6c-0.4-1.3-0.8-2.6-0.3-4.2c2.1,3.7,4.3,7.3,6.5,11.2c0.7-0.9,0-1.8,0.6-2.7
		c2,1.8,3.9,3.5,6.5,4.4c0.7,0.2,1.3,0.6,2.2,0.5c-0.3-0.9-1.1-1.3-1.7-1.9c-4.2-3.8-8.2-7.9-11.5-12.5c-3.7-5.1-6.6-10.6-8.4-16.6
		c-0.1-0.3-0.3-0.6-0.1-1c0.7,0.5,1,1.3,1.4,2c3.4,5.7,6.9,11.3,11.1,16.5c2.9,3.6,6.2,6.9,9.9,9.8c0.4,0.3,0.8,0.6,1.2,0.8
		c0.1,0.1,0.3,0,0.7-0.1c-4.8-4-8.6-8.5-10.4-14.6c5.8,8.4,13.7,14.3,22.7,18.8c-9.3-7.6-17.9-15.9-24.8-25.7
		c3.4,3,5.9,6.9,10.1,9.3c-1.3-2.5-2.6-4.9-3.9-7.4c1.1,0.2,1.6,1,2.1,1.6c4.3,4.8,8.6,9.7,12.9,14.5c4.9,5.4,10.6,9.9,16.6,14
		c0.3,0.2,0.5,0.4,0.9,0.3c0.3-0.8-0.2-1.4-0.4-2c-0.2-0.5-0.5-0.9,0.1-1.2c1.1-0.6,0.7-1.4,0.4-2.2c-0.9-2.1-1.8-4.2-2.5-6.4
		c2.2,1.9,3.3,4.5,4.9,6.8c-0.3-3.8-2.9-6.7-5-10.1c2.5,0.6,3.8,2.3,5.5,4c-0.2-2.1-0.9-3.6-1.7-5.1c-0.7-1.5-1.6-3.1-2.2-4.7
		c6.1,4.9,11.6,10.3,16.8,16.2c0.1-6.2-1-12.2-3.1-17.9c-0.7,0-0.7,0.5-0.9,0.8c-0.1,0.3-0.1,0.6-0.7,0.8
		c-2.8-7.2-7.1-13.7-10.8-20.9c1.1,0.3,1.6,0.8,2.1,1.2c1.1,0.9,2.2,1.8,3.4,2.7c0.4,0.3,0.9,0.9,1.4,0.2c0.5-0.7-0.3-1-0.7-1.3
		c-1.7-1.2-3.4-2.4-5.2-3.5c-3.9-2.5-7.9-4.9-11.8-7.4c-4.5-3-8.5-6.5-11.7-10.9c-0.6-0.9-1.3-1.8-1.6-3
		c9.8,5.4,18.2,12.9,27.3,19.5c0.4-0.9-0.1-1.3-0.4-1.7c-2-2.9-4.4-5.2-7.2-7.3c-2.9-2.2-5.9-4.4-8.9-6.6c-2.4-1.8-4.7-3.8-6.8-6.1
		c-0.9-1-1.7-2-2.7-3.7c5.7,1.9,10.6,4.3,14.9,7.6c-0.1,1-1.2,0.5-1.5,1.4c3.8,1.9,7.6,3.8,11.4,5.7c0.1-0.1,0.2-0.3,0.3-0.4
		c-2.9-3.4-6.2-6.4-9.3-10.1c2.5,0.1,4.5,0.8,6.5,1.2c2,0.3,4.1,0.9,6.6-0.1c-7.4-3.2-14.5-5.9-21.5-9.1c2.2,0.2,4.3,1,6.3,1.8
		c3.1,1.3,6.2,2.7,9.2,4c2.7,1.1,5.5,2.1,8.6,2.1c-3.2-2.3-6.4-4.6-9.6-6.8c6.2,1.1,12.3,2.1,18.9,1.4c-0.9-1.7-2.2-2.5-3.5-3.3
		c-2.6-1.5-5.6-1.8-8.5-2.3c-7.7-1.3-14.4-4.6-20.5-9.4c-0.5-0.4-0.9-0.9-1.4-1.3c-0.2-0.2-0.2-0.4-0.5-1c6.8,2,12.9,5.4,19.9,6.9
		c-0.6-0.7-1.2-0.9-1.7-1.1c-9.5-4-18.5-9-27.6-13.9C357.6,463.7,356.9,463.7,357,463L357,463z M159.2,377.2
		c-1.5,1.3-2.6,2.3-3.8,3.3c-1.3,1.1-2.1,2.5-2.5,4.3c-2.6,12.2-6.7,23.8-11.8,35.2c-7.5,16.7-17.2,32.1-27.9,46.9
		c-2.1,3-2.1,3.1,0.4,5.6c0.8,0.8,1.5,0.9,2.3,0.2c0.5-0.5,1.1-1,1.6-1.5c2.3-2.4,4-5.2,5.7-8c0.3-0.6,0.4-1.4,1.4-1.5
		c-0.4,4.3-0.9,8.5-1.3,13c5-2.2,9.7-3.8,14.8-3.9c0,0.8-1,0.7-0.9,1.6c2.1,0,4.2,0,6.4,0c2.1,0.1,4.3-0.2,6.7,0.2
		c-2.1,1.5-4.5,2-6.7,3.8c2.5,0.2,4.4,0.4,6.4,0.5c2.9,0,5.8-0.2,8.5-1.3c4.5-1.8,7.4-6,7.2-10.9c-2.3,1.2-4.3,2.7-7.4,3.1
		c2.6-2.5,4.7-4.8,5.7-7.8c-1.9,1.3-3.6,2.7-5.5,3.9c-1.9,1.2-3.9,2.3-6.2,3c2.1-2.6,4.3-5,6.2-7.6c3-4.1,4.3-6.6,4.5-8.6
		c-3.5,2.9-6.9,5.7-10.2,8.6c-0.1-0.1-0.2-0.2-0.4-0.3c2.3-5.2,4.5-10.5,6.8-15.7c-1.8,0.8-2.6,2.5-4.9,3.1c2.5-4.6,4.8-8.8,7.1-13
		c-3,1.2-5.2,3.4-8,4.6c2.7-3.8,6.1-7,7.2-11.8c-1.7,1.4-2.6,3.3-4.3,4.6c1.1-4.8,5-7.9,6.9-12.3c-2.1,1.3-3.7,3.3-6.7,4.2
		c3.1-3.8,4.2-7.6,3.5-12.2c-1.7,1.7-2.5,3.7-4.3,4.9c2.4-7.7,5.5-15.1,7.9-22.8c-1.8,0.8-3.4,1.7-4.9,2.7c-1.5,1-3,2-4.6,3
		C156.9,391.6,159.4,385.1,159.2,377.2z M203.7,342.8c0.9-0.7,1.4-0.6,1.9-0.6c6-0.3,11.4,1.3,16.3,4.7c3.5,2.4,6.5,5.4,9.4,8.5
		c0.5,0.6,0.9,1.3,2,1.7c-1.7-5.4-4.5-9.8-8-13.8c7.6,2.9,11.9,9,15.8,15.6c-2.2-7.3-4.6-14.4-8.6-20.8c-3.1-4.9-7.1-8.9-12-11.8
		c-0.4-0.2-1-0.4-1.2-1.1c1.4,0.3,2.6,0.7,3.7,1.3c4.8,2.2,8.7,5.7,11.9,9.8c2.3,3,4.2,6.2,5.9,9.6c0.3,0.6,0.5,1.4,1.4,1.9
		c-0.2-2.6-0.8-4.8-1.6-6.9c-3.3-9.3-9.5-15.7-19.3-18c-7.9-1.9-15.6-0.7-23,2.1c-0.2,0.1-0.4,0.2-0.1,0.6c1.8-0.2,3.7-0.6,5.6-0.5
		c2,0,4,0,6,0.4c1.8,0.4,3.5,0.8,5,1.9c-1.6,0-3-0.3-4.5-0.6c-3.8-0.8-7.6-0.9-11.2,1c-3.9,2.1-7.7,4.3-11.3,6.8
		c-0.4,0.3-0.9,0.5-1.2,1.4c5.8-2.3,11.4-4.1,17.7-4.4c-1.6,1.1-3.3,1.2-4.8,1.8c-1.6,0.6-3.3,1.2-4.9,1.9c-1.6,0.6-3.1,1.3-4.6,2.1
		c-1.5,0.7-3,1.3-4.3,2.5c4.8-0.8,9.5-1.8,14.6-1.1c-0.8,0.6-1.5,0.7-2.2,0.9c-2.4,0.6-4.8,1.3-7.2,1.9c-0.2,0.1-0.2,0.2-0.1,0.4
		c0.3,0.4,1,0,1.3,0.5c0,0.4-0.4,0.5-0.7,0.6c-4.4,2.1-8.4,4.9-12.1,8.1c-2.8,2.3-5.4,4.8-7.5,7.7c-0.3,0.4-0.9,0.8-0.3,1.5
		c3.1-3.1,6-6.5,10.2-8.4c-4.1,6-9.7,10.7-14.6,16c2-1.1,3.9-2.3,5.8-3.6c1.9-1.3,3.9-2.6,5.8-3.8c1.9-1.2,3.7-2.6,5.9-3.3
		c-2.2,2-4.4,4-6.6,5.9c0.1,0.1,0.1,0.2,0.2,0.3c0.9-0.5,1.9-0.9,2.8-1.4c0.1,0.1,0.1,0.2,0.2,0.3c-0.9,0.9-1.9,1.9-2.8,2.8
		c3.5-1.6,6.6-3.9,10.3-5c-0.1,0.4-0.4,0.6-0.6,0.8c-5.9,4.9-11.5,10.2-16.8,15.7c-4.1,4.2-7.6,8.9-11.5,13.2
		c-0.3,0.3-0.6,0.6-0.2,1c0.4,0.3,0.7,0.2,1-0.2c0.2-0.3,0.4-0.5,0.6-0.7c5.7-6.6,12-12.7,18.6-18.4c0.6-0.5,1.3-1,2-1.5
		c-3.5,6.3-8.9,10.8-13.9,15.7c0.1,0.1,0.2,0.3,0.4,0.4c3.4-2.4,6.7-4.8,10.1-7.3c0.1,0.1,0.2,0.2,0.3,0.4c-2.8,3.8-6.4,7-8.2,11.4
		c1.4-0.9,2.6-2,3.9-3c1.3-1,2.4-2.2,4.3-2.4c-1,1.7-2,3.2-2.6,4.9c-2.1,5.9-4.8,11.7-6.5,17.8c-0.1,0.5-0.5,0.9-0.2,1.5
		c1.2-0.6,1.3-2.5,3.2-2.6c-0.5,2.6-1.7,5-2.1,7.7c4.3-3.5,17.6-18.4,18.6-20.9c-1.5,1.2-2.9,2.2-4.2,3.2c-1.4,1.1-2.8,2.2-4.2,3.2
		c-1.3,0.9-2.3,2.3-4.3,2.3c2.4-3.2,4.7-6.4,7.1-9.5c-1.7,0.4-2.7,1.7-4.4,2.3c1-2.1,2.6-3.5,3.4-5.4c-0.7,0.1-1,0.7-1.7,0.5
		c1-1.2,1.9-2.2,3-3c1.1-0.9,2.4-1.6,3.5-2.5c1-0.7,2.4-1,3.2-2.4c-3.8-0.3-7,1.5-10.4,2.1c2.3-2,5-3,7.8-4
		c3.6-1.2,7.4-2.1,11.1-2.9c0.6-0.1,1.1-0.2,1.7-0.8c-5.7,0-10.9,1.9-16.3,2.5c5.8-4.4,12.9-5,19.7-6.7c-3.4-0.5-6.8,0-10.2-0.6
		c4.1-2.4,8.7-2,13.2-2.5c-2.5-1.3-5-1.6-7.7-1.3c-2.7,0.4-5.3,1.1-7.9,2c-0.8,0.3-1.6,0.7-3,0.6c3.8-2.3,7.7-3,11.3-4.6
		c-2.3-0.3-4.5-0.3-7.1-0.8c2-1.7,3.9-2.5,5.9-3.2c3.2-1.1,6.5-1.5,9.9-1.9c0.8-0.1,1.6,0,2.4-0.7c-1.5-0.7-3.1-0.5-4.7-1.6
		c6.9,0.1,13.2,2,19.4,4c-3.3-4.2-8-6.2-12.9-8.3c1.7-0.5,2.9,0.2,4.2,0.1c-0.1-0.2-0.2-0.4-0.3-0.5c-0.2-0.2-0.4-0.3-0.6-0.4
		c-4.9-2.6-10.2-3.8-15.7-3.5c-5.7,0.3-10.9,2.2-16,4.7c-0.8,0.4-1.5,0.8-2.3,1.2c0-0.3,0-0.4,0-0.4c6.2-5.8,13.4-8.8,22-7.9
		c4.3,0.4,8.2,1.9,12,3.8c0.5,0.3,1,0.8,1.7,0.5c0.1-1.1-0.9-1.8-0.6-3.1c4.9,3.4,9.6,6.8,14.1,11.3c-1-3-2.8-5.5-5.6-8
		C219.5,345.9,212.2,343.5,203.7,342.8z M443.9,367.3c-0.2,0.1-0.3,0.3-0.5,0.4c3.1,7.2,7,14.1,10.6,21.1
		c-0.5-5.6-1.9-10.9-4.5-15.9c4.5,2.7,6.4,7.4,8.8,11.6c0-5.5-1.6-10.6-3.6-15.8c1.2,0.3,1.3,1.5,2.5,1.6c-0.9-5.1-2.4-10-3.7-14.9
		c2.7,3.6,3.8,8,5.5,12c-0.5-8.2-2.7-16-5.5-23.6c5,5.7,6.1,13.1,8.7,20.2c0.4-1.2,0.2-2,0.2-2.7c-0.7-8.2-3.8-15.4-9-21.8
		c-2.7-3.3-5.8-6.4-8.7-9.6c-0.4-0.4-0.7-0.9-1.3-1.6c0.7,0.2,0.9,0.3,1.1,0.4c0.6,0.3,1.1,0.6,1.7,0.9c9.2,5,16.2,12.1,21.3,21.2
		c3.6,6.4,6.1,13.4,8,20.5c0.2,0.7,0.2,1.5,1,2.2c0.1-1.1,0.1-1.9,0.1-2.7c0.2-5.7-1.6-10.9-4.2-15.8c-2.1-4-4.4-8-6.7-11.9
		c-4-6.8-8.7-13-14.2-18.7c-0.5-0.5-1.1-0.8-1.3-1.6c0.8-0.4,1.6,0.8,2.5,0c-3-4.1-5.9-8.3-8.8-12.4c2.2,1,3.9,2.5,5.6,4.1
		c3.7,3.5,7,7.4,10.5,11.2c0.5,0.5,0.9,1.2,1.9,1.5c-0.9-2.3-2.1-4.1-3.4-5.8c-7.2-8.9-15.6-16.4-25.4-22.5
		c-1.1-0.7-2.4-1.3-3.6-1.9c-0.4-0.2-0.9-0.6-1.7-0.1c1.4,1.4,2.7,2.7,4.1,4c-0.5,0.7-1.5,0.1-2,0.8c0.4,1.2,1.7,1.8,2.2,3.2
		c-2,0-3.4-1.9-5.8-1.6c3.7,3.3,7.7,6,8.9,10.8c-0.5,0.4-0.9-0.2-1.2,0.2c1.3,1.9,2.5,3.8,3.8,5.8c1.2,1.9,2.5,3.9,3.7,5.9
		c-2.9-1.7-4.7-4.3-6.9-6.7c-0.1,0.1-0.3,0.2-0.4,0.3c2.4,3.8,4.7,7.6,7.1,11.5c-1.2,0.4-1.8-1-3-0.5c2.8,4,5.7,7.8,8.2,11.9
		c-3.6-2.5-6.2-6-9.2-9c3,7.3,8.4,13.4,10.1,21.2c-2.4-3.5-5.2-6.7-8.3-9.7c2.8,7.6,7.7,14.2,9.8,22.2c-1.9-2.5-3.9-5-5.8-7.5
		c1.2,4.1,3.4,7.6,4.9,11.5c-0.2,0.2-0.4,0.3-0.6,0.5C446.3,370.1,445.1,368.7,443.9,367.3z M175.3,436.7c-1,2.6-2.7,4.5-3.4,7.1
		c1.6-0.4,2.6-1.6,4.4-1.7c-1.2,1.2-2.1,2.2-3,3.2c-0.8,1-1.8,1.9-2.2,3.5c1.7-0.9,2.7-2.2,4.5-3.1c-1.3,3.8-3.7,6.9-3.9,10.7
		c1,0.3,1.8-1,2.1-0.3c0.6,1.3,1.2,0.4,1.6,0.2c1-0.5,1.8-1.2,2.8-1.9c0.4-0.3,0.9-0.8,1.5-0.2c-0.4,2.2-1.6,3.8-3,5.4
		c-1.1,1.3-2.3,2.7-3.3,4.1c-0.3,0.4-0.7,0.8-0.4,1.6c1.6-1.7,3-3.2,4.9-5.2c-0.3,2.5-1.4,4.2-1.6,6.5c1.9-1.9,3.5-3.6,5.5-5.5
		c-0.5,2.5-1.9,4.1-2.2,6.4c1.5-1.1,1.9-2.8,3.5-3.5c-1.2,3.1-2.4,6.2-3.5,9.3c0.1,0.1,0.3,0.2,0.4,0.2c1.2-1.7,2.5-3.3,3.8-5.2
		c2.3,3.2-0.1,5.6-1,8c0.9,0.6,1.6-0.3,2.3,0.3c-0.6,1.7-1.3,3.5-2.1,5.8c1-0.9,1.3-1.7,1.7-2.3c1.5-2.7,3-5.4,4.6-8.2
		c0.3-0.5,0.6-1.4,0.9-1.3c1.4,0.4,1-1.1,1.7-1.6c0.7,1.6,1.4,3.1,2.2,5c5.6-7.2,11.2-14.1,15.5-22c-3.4,2.2-5.8,5.3-8.5,8.7
		c-0.2-2.1,0.3-3.7,0.7-5.2c0.4-1.6,1.1-3,1.6-4.5c0.5-1.4,1.6-2.5,1.8-4.5c-4.5,4.1-8,8.6-11.5,13.2c1.1-4.6,3.2-8.8,5-13.1
		c-2.8,2.9-4.1,6.7-6.3,9.9c0.8-5,3.3-9.4,5.2-14c-3.1,3-6.2,5.9-9.4,8.9c1.7-5.7,5-10.3,8.4-14.9c-3.7,1.5-6.7,4.3-9.9,6.5
		c-0.1-0.1-0.2-0.3-0.3-0.4c1.4-1.8,2.8-3.7,4.2-5.5c-0.1-0.1-0.2-0.2-0.4-0.3c-1.7,1.4-3.4,2.8-5.2,4.1c1-4.5,1.7-9.1,3.7-13.3
		c-2.9,1.8-5.8,3.5-8.7,5.3c1-3.9,3.8-6.5,6.2-10c-3.8,0.8-6.5,2.7-9.4,4.8c0-1,0.5-1.3,0.8-1.7c1-1.1-0.3-1-0.8-1.4
		c0.5-1.1,1.7-1.8,2.2-3.3c-1.7,0.6-2.7,2-4.2,2.6c-0.5-2.5,1.8-3.2,2.8-5c-2.4,0.1-4.3,1.4-6.5,1.5c0.2-1.1,1.4-1.6,1.6-2.7
		c-3.6,1.4-6.2,5.2-6.2,9c1.3-0.6,2-2,3.8-2.7c-1.8,3.5-3.7,6.4-5.1,9.5c2.2-1.7,4-4,7.6-4.4c-3.2,3.9-6.8,7.1-7,12.1
		c1.6-1.8,2.9-3.8,4.6-5.4c2.2-2.2,4.1-3.3,6-3.4c-1.5,2-3,3.9-4.7,6.1C173.5,438.2,174,437.2,175.3,436.7z M395.9,373.1
		c3.9,1.7,7.5,3,10.8,5c3.3,1.9,6.1,4.4,8.8,7.2c0-0.8-0.1-1.5-0.3-2.2c-0.7-2.9-1.4-5.8-2-8.6c-0.1-0.6-0.6-1.6-0.2-1.8
		c1.6-0.8,0.4-1.3,0-1.8c-1.1-1.3-2.2-2.5-3.4-3.9c1.2-0.5,1.9,0.7,2.8,0c-1.1-2.7-2.5-5.2-4-7.7c-1.5-2.4-3.4-4.5-5.2-6.7
		c2.9,1.4,5.1,3.8,8,5.8c-0.4-1.3-1-1.9-1.5-2.5c-2-2.4-4.3-4.5-6.8-6.4c-2.4-1.8-5-3.5-7.6-5.1c-0.4-0.2-1.2-0.6-1-0.9
		c1-1.7-0.7-1.4-1.3-1.6c-3.6-1.3-7.2-2.1-11-2.4c-4.8-0.4-9.6-0.1-14.1,1.8c-3.8,1.6-6.8,4.2-8.6,8c-0.2,0.5-0.8,1.1-0.3,1.9
		c4.4-4,9.2-7,15.6-5.9c-5.1,2.9-9.8,6.1-13.7,10.5c5.4-2.7,10.4-6.2,16.6-7.1c-1.6,1.6-3.2,3.1-4.6,5c9.9-2.6,19.4-2.8,27.8,4.1
		c-9.1-1.7-18.1-2.9-26.1,3.5c3.5-0.8,7-2.1,10.6-2.6c4.2-0.5,8.7,0.4,10.3,2.2c-3.8-0.1-7.5,0.3-11.1,2.6c3,0.9,5.8,0.8,8.3,2.1
		c-3.2,0.2-6.4,0.4-9.6,0.6c6.4,1.9,12.6,0.6,18.9-0.3c-4.7,2.3-9.7,3.1-15.3,3.9c2.8,1.1,5.1,0.8,7.3,0.5c3-0.4,5.9-1.3,9-1.4
		c2.4-0.1,4.7,0,6.7,1.5c-3.2,0.2-6.4-0.1-9.8,0.9c1.5,0.7,3,0,4.7,0.9C401.5,372.4,399,372.5,395.9,373.1z M448.9,416
		c-4.8-11.9-9.5-23.5-14.3-35.2c1.1,0.5,1.1,1.6,2.2,2c-0.3-1-0.5-1.7-0.7-2.5c-1.6-5-3.1-10.1-4.7-15.1c-0.1-0.2,0-0.3,0.3-0.3
		c0.3,0.1,0.7,0.3,1.3,0.5c-1.6-5-3.1-9.9-4.7-14.7c0.6-0.4,0.9,0.5,1.4,0.2c0.1-0.6-0.2-1.1-0.4-1.6c-1.2-3.4-2.4-6.8-3.6-10.2
		c-0.2-0.5-0.7-1.3-0.3-1.5c1.5-0.7,0.5-1.6,0.2-2.3c-0.8-2.1-1.7-4.1-2.5-6.2c-0.4-0.9-0.9-1.8-1-2.9c1.2,0.2,1.4,1.6,2.7,1.5
		c-1.9-4.2-3.8-8.4-5.7-12.6c0.8,0.3,1.2,0.8,1.7,1.2c0.5,0.4,0.6,1.3,1.6,1.1c-1.8-4.3-4.6-8-7.4-11.6c1.7,0.9,3.4,1.8,5.2,2.7
		c0.1-0.1,0.2-0.3,0.3-0.4c-1.8-1.7-3.7-3.4-5.8-5.3c1.4,0,2.2,0.9,3.4,0.7c-2.2-2.1-5.3-2.5-7.9-4.6c2.1,0.1,3.6,1,5.7,0.8
		c-5.3-4.3-11.2-6.6-16.8-10c3.1-0.3,6.2-0.7,9.3-1c-3.9-1.8-8.2-2.3-12.5-3.9c2.8-1,5.2-1.5,7.7-1.9c2.4-0.5,4.8,0,7.6-0.4
		c-3.5-2.2-6.9-3.3-10.5-3.7c-5.3-0.6-10.3,0.3-15.4,1.8c-0.9,0.2-1.8,0.7-3.1,0.6c1.3-1.1,2.8-1.3,3.5-2.7
		c-3.4-0.2-8.4,2.2-10.5,5.1c7.2,1.5,14.8,0.7,21.8,3.6c-2.3,0.3-4.7,0.6-7,0.9c5.1,2.3,9.7,5.2,13,9.8c-1,0.4-1.5-0.8-2.5-0.4
		c0.6,0.6,1.1,1.2,1.6,1.7c4.9,4.9,8.6,10.7,11.3,17.1c2.1,5.1,3.1,10.6,4.2,16c2.3,11.5,4.5,23,7.2,34.5c0.7,2.9,1.4,5.9,2.7,8.6
		c-3-14.4-5.6-28.9-7.9-43.5c2.2,6,3.2,12.3,4.9,18.6c0.4-0.7,0-1.4,0.5-1.8c2.4,8.1,4,16.3,5.5,24.5c1.2,6.9,2.6,13.8,6.1,19.8
		c3.3,5.6,6,11.4,8.4,17.5c0.6,1.6,1.4,3,2.2,4.5C447.7,415.3,447.7,415.8,448.9,416z M132.4,318.5c0.1,0.1,0.3,0.2,0.4,0.2
		c-7.6,12.1-15.6,24.1-19.3,38.7c1-0.9,1.2-1.8,1.6-2.5c1.8-3.8,3.5-7.5,5.9-11c3-4.4,6.9-7.8,11.9-9.6c0.6-0.2,1.1-0.6,2-0.1
		c-1.1,1.8-2.2,3.5-3.6,5.2c-0.5-0.7,0.5-1.4-0.3-2c-1.8,1.1-3.2,2.6-4.4,4.3c-2.3,3-4,6.4-5.4,9.9c-2.5,6.3-4.2,12.7-4.1,19.6
		c0,1-0.2,2.1,0.7,3.1c2.2-7.2,2.4-14.8,6.4-21.2c-0.7,4.6-3,8.7-3.4,13.4c0.2,0.1,0.3,0.1,0.5,0.2c2.3-4,4.6-7.9,6.9-11.9
		c-1.7,5.9-4.2,11.6-4.8,17.9c1.3-1.6,1.7-3.5,3.1-5.5c-1,4.8-2.2,9.1-2.3,14.1c1.1-1.3,1.3-2.4,1.8-3.3c0.5-0.9,0.6-2.2,2-3
		c-1,6-1.9,11.6-2.9,17.5c2.7-3.8,8.2-24.4,7.8-29c-1.6,1.8-2.5,4.1-4.1,5.7c-0.2-0.1-0.3-0.2-0.5-0.3c2-5,4-10,6-15.1
		c-1.1,0.2-1,1.4-2,1.6c-0.1-4.3,2.2-7.8,3.2-11.7c-1.2,0.8-2.3,1.6-3.4,2.4c-0.3,0.2-0.6,0.3-0.9,0c-0.2-0.2-0.2-0.4-0.1-0.7
		c0.2-0.6,0.5-1.2,0.7-1.8c2.7-6.1,5.4-12.1,8.1-18.2c0.3-0.7,0.9-1.3,0.7-2.2c-1.1,0.6-1.4,2-2.5,2.5c-0.5-1,0.7-2.1,0.2-2.8
		c-1-1.2-0.3-2.3-0.1-3.3c0.7-2.9,2-5.6,3.5-8.1c0.2-0.4,0.9-0.8,0.5-1.3c-0.5-0.5-1,0.5-1.3-0.3c1.7-2,3.5-4,5.6-6.4
		c-8.4,4.1-23.7,19.7-25.2,25.4C125.2,325.3,128.8,321.9,132.4,318.5z M99.2,370.4c2.1-2.2,2.6-5.3,4.9-7.9c-0.6,4.6-2,8.6-1.8,12.8
		c0.4-1.2,0.6-2.5,0.8-3.7c0.3-1.3,0.6-2.6,0.9-4c0.3-1.2,0.7-2.5,1.1-3.7c0.4-1.2,0.9-2.4,1.3-3.6c0.5-1.3,1.1-2.5,1.6-3.8
		c0.4-1.1,1.2-2.1,1.1-3.3c-0.7,0.5-1.1,1-1.6,1.6c-0.4,0.5-0.6,1.2-1.5,1.3c0.6-5.6,3.5-9.9,6.7-14.6c-3.1,0.7-5.4,2-8.2,2.5
		c-0.1-1.9,0.7-3.2,1.6-4.6c0.9-1.3,2.1-2.4,2.9-4.2c-2.5,0.4-4.4,1.8-6.7,2c1.1-2.3,3.2-3,4.7-4.5c-0.8-1-2-0.3-2.8-1.1
		c0.6-1.4,2-2.3,2.6-3.9c-4.4,2.1-9.5,7.4-10.1,10.5c1-0.2,1.8-1.2,3.2-1.3c-0.7,1.5-1.3,2.8-1.9,3.9c0.5,0.5,1-0.3,1.5,0.3
		c-0.8,2.1-2.4,3.9-3.3,6.4c1.8-1,2.7-2.5,4.7-3.4c-1.6,3.7-3,7-4.3,10.3c-1.9,4.8-2.4,8.2-1.9,10.4c1-2.3,1.3-5,3.4-7.2
		c-0.2,3.7-1.7,6.9-1,10.4c0.6-1.1,1-2.3,1.6-3.4c0.5-1,0.5-2.4,1.9-3.4C100.1,364.5,99.6,367.5,99.2,370.4z M307.9,476.6
		c2.1,0.8,3.9,0.8,5.8,0.6c2.4-0.3,4.7-0.9,7-1.4c2.3-0.6,4.7-0.9,7.1-0.8c1.1,0.1,2.2,0.6,3.3,0.6c1.1-0.1,1.9,0.1,2.8,1.3
		c-0.1-3.8-1.3-6.3-4.7-7.4c-0.9-0.3-1.8-0.7-2.7-1.1c-2.1-0.8-4.1-0.8-5.8,0.7c-1.3,1.1-2.8,1.2-4.5,0.7c-2.4-0.7-4.9-1.1-7.3-0.8
		c-4.6,0.4-9.2,1-13.9,0.8c-0.1,0-0.2,0.1-0.4,0.3c1.7,0.5,3.3,0.7,5,0.7c1.8,0,3.5-0.1,5.3-0.2c1.6-0.1,3.1-0.2,4.7-0.2
		c-2.4,1.1-5,1-7.9,2.1c2.1,0.3,3.7-0.6,5.8,0.4c-5,1.4-9.6,2.6-14.1,3.8c0,0.1,0.1,0.2,0.1,0.3c1.3,0,2.5,0,3.8,0
		c0.9,0,1.8,0.1,2.5,0.7c3.2,2.6,7,3.5,10.8,4.2c0.7,0.1,1.4,0.1,1.9,0.8c-0.6,0.6-1.1,1.1-1.6,1.6c-3.5,3.8-5.4,8.2-5.6,13.4
		c-0.1,3.9,0.8,7.5,3.9,10.2c2.9,2.6,7.2,3.1,10.3,1.3c0.6-0.3,1.1-0.8,0.8-1.5c-0.2-0.7-0.9-0.9-1.6-0.8c-0.9,0.2-1.7,0.5-2.5,0.7
		c-3.9,0.9-6.5-0.3-8.3-3.9c-0.2-0.4-0.4-0.9-0.5-1.3c-3.6-9.9,3.6-20.8,14.2-21.4c0.6,0,1.3,0.2,1.9-0.4c-2.4-0.3-4.7-0.6-7-0.6
		c-2.4,0-4.8-0.1-7.2-0.5c-2.6-0.4-5.2-1-7.5-2.7c4.4-2.6,13.6-4,17.1-2.6C315.2,474.5,311.6,475.2,307.9,476.6z M485.4,338.5
		c-0.6-3.7-3.4-6-5.5-9.3c2.1,0.7,3.6,2,5.5,2.4c0.1-1.6-0.8-2.5-1.5-3.4c-0.9-1.1-1.8-2.3-1.8-3.8c0-0.8-0.5-1.1-1.1-1.3
		c-0.9-0.3-1.8-0.7-2.8-0.6c-0.2,0-0.3,0.1-0.3,0.1c0.4,0.9,1.5,0.7,1.6,1.5c-2.2,1.5-2.2,1.5-0.9,4.1c-0.2,0.9-1.5,0.6-1.7,1.5
		c1.1,1.7,3.2,2.6,3.5,4.9c-1.7,0.2-3.3-0.6-4.9-0.2c0.1,1.2,0.8,1.9,1.4,2.8c0.6,0.8,1.2,1.5,1.6,2.4c0.2,0.4,0.4,0.9,0.1,1.3
		c-0.3,0.4-0.9,0.4-1.3,0.3c-1-0.3-1.9-0.7-3-1.1c-0.4,1.3-0.6,2.5-0.4,3.8c0.4,3.4,2,6.4,3.4,9.4c0.4,0.9,1.1,1.8,0.4,2.9
		c-2-0.1-2.6-2.2-4.3-2.8c3.1,5.3,5.8,10.8,8.5,16.3c0.1-0.1,0.3-0.1,0.4-0.2c-1.1-4.2-2.3-8.5-3.4-12.7c2.9,2.6,4.1,6.1,6.1,9.2
		c-0.6-5.6-2.4-10.9-4.8-16.4c1.4,0.8,1.7,2.1,3,2.7c-0.4-2.7-2.2-4.9-2.7-8c2.2,2.3,4,4.2,5.8,6.2c-0.1-4.5-2.2-8.2-3.9-12.1
		C483.3,338.1,484.2,339.1,485.4,338.5z M375.4,374.3c0.6,0.8,1.3,1.1,2,1.5c3.1,2,6,4.2,8.6,6.9c2.8,2.9,5.1,6.2,6,10.2
		c2.3,10.6-0.8,19.6-9.1,26.6c-7.2,6.1-21.9,8.4-31.2-2.9c-0.9-1.1-1.8-2.3-2.6-3.4c-0.3-0.4-0.5-1-1.2-1.3c0,1.7,0.9,3.1,1.7,4.4
		c5,8.3,14.9,12.4,24.6,10.3c19.8-4.3,28.9-27.7,15.4-43.7c-2.8-3.3-5.9-6.1-9.9-7.8C378.3,374.6,377,374,375.4,374.3z M217,375.8
		c-2.6-0.2-4.8,0.7-6.7,1.9c-7.1,4.2-11.9,10.3-14.4,18.1c-0.4,1.2-0.6,2.5-0.7,3.8c-1.2,13.1,7.6,24.3,19.1,27.7
		c2.9,0.9,5.9,1.5,9,1c5.2-0.8,9.7-3,13.7-6.4c2.1-1.8,3.9-4,5-6.7c0.2-0.5,0.5-0.9,0.2-1.5c-0.8,0.5-1.2,1.2-1.7,1.8
		c-2.1,2.6-4.5,5-7.3,6.9c-4.4,3-9.2,4-14.4,2.9c-21.3-4.5-24.6-27-15.5-39.5c2.9-4.1,6.9-6.8,11.4-8.9
		C215.3,376.7,216.2,376.6,217,375.8z M354.5,396.9c-1.6,1.2-1.7,2.7-1.6,4.2c0,1.4,0.1,2.7,0.3,4.1c0.7,5.1,3.3,8.9,7.9,11.3
		c3.3,1.7,6.8,2.3,10.4,1.9c7.2-0.8,13.4-7.6,13.2-14.7c-0.1-2.9-1-5.6-2-8.3c-0.3-0.8-0.9-1.6-2-1.2c-1,0.4-0.8,1.2-0.6,2
		c0.7,2,0.7,4.1,0.3,6.2c-1,5.1-3.6,9.1-8.8,10.7c-8.2,2.4-16.7-3.9-17.1-12.4C354.4,399.4,354.5,398.2,354.5,396.9z M237.4,399.8
		c-0.5,0.8-0.4,1.6-0.5,2.3c-0.3,2.7-1.1,5.3-2.5,7.7c-1.6,2.6-3.9,4.3-7,5c-5.9,1.2-11-0.9-14.1-6.1c-1.2-1.9-1.9-4-2.5-6.2
		c-0.2-0.7-0.3-1.5-1.2-1.6c-0.9-0.1-1.5,0.5-1.9,1.2c-0.8,1.5-1,3-0.7,4.6c0.5,3.1,1.8,6,3.7,8.5c2,2.7,4.7,4,8,4.3
		c5.9,0.4,11.2-1.4,16.1-4.5c1.3-0.8,2.2-2.1,2.7-3.5c1.3-3.2,1.6-6.5,0.9-9.9C238.2,400.9,238.1,400.3,237.4,399.8z M204.9,394.7
		c0.1,1.1,0.3,2.2,1,3.3c1.7,2.7,5,2.6,6.6-0.1c0.2-0.4,0.4-0.8,0.7-1.3c1.6-3.2,3.9-5.8,7.1-7.5c0.6-0.3,1.1-0.7,1.6-1.1
		c1.4-1.3,1.7-3,1.1-4.8c-0.6-1.8-2-2.4-3.7-2.5c-1.7-0.1-3.3,0.3-4.8,1.1c-3.9,2-6.7,5.1-8.4,9.1C205.3,392,205,393.2,204.9,394.7z
		 M370.6,379.3c-2,0.2-3.9,0.7-5.7,1.6c-2.5,1.4-2.7,4.3-0.2,5.7c2.8,1.6,5.8,3,8.9,4.2c2.7,1.1,5.4-0.8,5.9-3.6
		c0.4-2.5-0.5-4.5-2.6-6C375,379.8,372.9,379.4,370.6,379.3z M227.3,401.8c4,0,6.7-2.7,6.7-6.8c0-3.6-2.6-6.1-6.2-6.1
		c-3.7,0-6.7,2.9-6.7,6.6C221,399.3,223.5,401.8,227.3,401.8z M367.4,400.3c1.4,0,2.7-0.3,3.9-0.9c1.9-0.9,2.7-2.6,2.7-4.7
		c0-1.9-1.2-3.2-3.3-3.9c-3-0.9-5.6,0-7.7,2c-2.5,2.4-1.4,6.1,2,7C365.8,400.1,366.6,400.1,367.4,400.3z M405.1,390.8
		c3.4,5.9,7.6,11.3,10,17.9c-2.5,0.2-4.8,0.3-6.7,1.9c1,0.5,1.9,0.4,2.7,0.5c3.3,0.4,5.7,2.1,6.6,5.4c0.2,0.5,0.2,1.1,0.7,1.5
		c1.3,1.1,2.6,2.2,4.1,3.4c0.1-0.4,0.2-0.6,0.1-0.7c-2.3-3.8-3.7-8-4.9-12.2C415.4,401.2,410.5,395.9,405.1,390.8z M269.4,567.2
		c-1.3,0.2-2,0.8-2.7,1.5c-1.8,1.8-2.9,4-3.7,6.4c-0.5,1.6-0.8,3.3-0.6,5c0.1,0.4,0.1,1.2,0.7,1c1.5-0.5,1.1,0.7,1.2,1.3
		c0.2,1-0.3,2.2,0.7,3.4C266.5,579.4,267.9,573.4,269.4,567.2z M274.9,546.6c4.7-4.5,7.9-9.6,9.6-15.6c0.2-0.8,1-1.8-0.1-2.3
		c-1.3-0.6-1.5,0.9-1.9,1.6c-2.5,5-4.9,10-7.4,15C275,545.6,274.7,545.9,274.9,546.6z M341.9,574.2c-0.8-3-0.9-6-2.4-8.6
		c-0.5-0.9-0.8-1.8,0.2-2.6c0.9-0.8,1.8-0.3,2.6,0.3c0.7,0.5,1.3,1.3,2.4,1.6c-2.7-5.2-6.2-6-9.7-2.2c1.7,1.5,2.6,3.6,3.3,5.7
		c0.4,1.2,0.9,2.4,1.4,3.5C340.1,572.8,340.6,573.7,341.9,574.2z M227.5,566.3c-1.3,0-2.1-0.1-2.9,0c-3.1,0.3-4.8,2-4.8,5.2
		c0,2.2,0.5,4.3,1.7,6.8C222.6,573.6,225,570.2,227.5,566.3z M416.7,401c0.2-7.1-5.6-14.5-12.7-16C409.5,389.6,413.2,395,416.7,401z
		 M226,413c0.5-0.1,1.2-0.2,1.9-0.3c0.9-0.2,1.5-0.7,1.3-1.7c-0.2-1-1-1.1-1.8-0.8c-2,0.6-3.9,0.1-5.7-0.8c-0.7-0.4-1.4-0.7-2.2-1
		c-0.4-0.2-0.7-0.4-1.1,0c-0.4,0.4-0.3,0.9,0,1.3c0.7,1.2,1.7,2.1,3,2.6C222.8,412.8,224.3,412.7,226,413z M339.3,342.4
		c-1.4,5.3-2.6,10.2-2.9,15.8c1.2-2.4,1.2-4.6,2.1-6.6c1,1.1,0.3,2.7,1.3,3.6c1.4-3.5,1.4-3.6,0.3-7c-0.3-1-0.4-2-0.4-3.1
		C339.9,344.3,340,343.4,339.3,342.4z M171,472.7c-1.4,1.3-2.6,2.4-3.8,3.6c-1.2,1.1-2.4,2.1-3.6,3.6c2.7,0.7,4.9,0.6,6.6-1.1
		C171.7,477.1,171.9,475,171,472.7z M415.7,390.6c-1.6-6.5-9.4-13-15.6-12.7C406.9,380.6,411.8,385.1,415.7,390.6z M272.4,538.8
		c-4.6,4.8-4.8,11.3-7.3,17.3c2.9-1.6,4.1-3.2,4.8-5.8c-0.9,0.1-0.9,1.5-2,1.6C268.4,547,271.2,543.2,272.4,538.8z M373.1,357.8
		c2.7,0.2,5.1-0.9,7.6-1.7c2.4-0.8,4.9-1.4,7.4-2.1C382.6,353.3,377.5,354,373.1,357.8z M232.1,292c3.4-0.9,6.3-1.8,9.2-2.6
		c-0.1-0.2-0.1-0.4-0.2-0.6c-4.6,1-9.2,2-13.8,3c0,0.1,0,0.3,0,0.4c4.2,1,8.5,1.9,12.7,2.9C238,293.2,235.1,293.1,232.1,292z
		 M280.9,585.7c3-3.3,3.3-6.9,3-11.3C280.8,578,280.2,581.5,280.9,585.7z M379.3,279.1c-2.2-1.5-3.5-1.7-5.4-0.3
		c-1.5,1.1-2.8,2.3-4.6,3.9C373.3,282.3,376.2,280.5,379.3,279.1z M237.1,594c0.9-5,1.9-10,3.3-14.9
		C237.3,583.7,235.7,588.5,237.1,594z M226,548.3c-4.9,1.4-7.6,4.9-7.3,9.4C221.3,554.4,223.6,551.3,226,548.3z M337,583
		c0.2,0,0.3,0,0.5-0.1c1.3-4.4,0.6-8.6-1.6-12.6C336.3,574.6,336.6,578.8,337,583z M444.2,376.1c1.2,4.5,3.2,8,5.3,11.8
		C449.2,384,447,379.1,444.2,376.1z M269.4,580.6c0.7-2.6,1.3-5.1,2.1-8.1C268,575.1,267.4,577.3,269.4,580.6z M196.8,480.1
		c3-0.8,10.2-5.5,11.9-7.9C204.8,474.9,200.8,477.4,196.8,480.1z M271.9,467.2c1.6,0.1,6.9-0.9,8.1-1.4
		C277,464.4,274.5,465.3,271.9,467.2z M129.1,393.8c1.1-3.5,2.1-7,2.1-10.6C130.2,386.6,129.3,390.1,129.1,393.8z"/>
	<path d="M87.1,470.1c-2.3,0.8-3-1.3-4.3-1.9c-0.3,3.8-1.2,4.8-5,5.8c-8.4,2.2-16.7,2-25.1-0.1c-2.1-0.5-4.1-0.9-6.2-1.6
		c3.1-0.3,6.1-0.5,9.5-0.8c-0.9-1.4-2.5-1.4-3.5-2.8c5,0.8,9.3,3.4,14.7,3.9c-3.7-3.6-7.3-6.6-11.1-9.3c1.7,0.1,3.2,0.8,4.7,1.4
		c2.3,1,4.5,2.1,6.8,3c3.2,1.3,5.5,1.5,8.6,0.8c-1.3-2.9-4-4.4-6.3-6.9c3.8,0,6.4,2.4,10,3.6c-1-2.1-2.7-3.1-3.7-5.2
		C81.5,461.9,84.7,465.3,87.1,470.1z"/>
	<path d="M266.7,351.7c1.3,7.7,0.6,15.2-1.8,22.6c1.2-1.2,1.4-2.7,1.8-4.2c0.4-1.6,0.7-3.3,1-4.9c0.4-1.5,0.2-3.1,1-4.9
		c1.5,3,1.7,5.8,1.5,8.6c-0.4,8.4-3.8,15.4-9.4,21.5c-1.6,1.8-3.3,3.4-5.5,4.7c-0.4-0.9,0.2-1.6,0.5-2.3c2.3-6.5,4.6-12.9,7.1-19.3
		c2.5-6.4,3.7-13,3.7-19.9C266.7,352.9,266.7,352.3,266.7,351.7z"/>
	<path d="M397.5,552.1c-0.2-0.1-0.4-0.2-0.6-0.4c-3.6-4.6-8-8.5-12.3-12.3c-4.2-3.8-8.5-7.5-11.8-12.1c-0.8-1.1-1.6-2.1-2.2-3.4
		c0.7-0.4,1.1,0.1,1.6,0.4c4.6,2.5,9.2,5.2,13.2,8.6c5.7,4.7,9.8,10.5,11.9,17.5C397.5,550.9,397.9,551.4,397.5,552.1z"/>
	<path d="M357.1,462.9c-0.7,0.3-1.3-0.1-1.8-0.4c-5.1-3-10.8-4.2-16.6-5.2c-0.9-0.2-1.9-0.4-2.8-0.7c2.9-1.4,6.1-1,9.3-1.5
		c-5.3-1.7-10.6-1.8-16-0.3c0.3-0.8,0.9-1,1.4-1.2c7.9-4.2,17.5-2.7,23.8,3.7c1.3,1.3,2.4,2.8,2.3,4.8
		C356.6,462.4,356.9,462.7,357.1,462.9C357,463,357.1,462.9,357.1,462.9z"/>
	<path d="M351.4,520.4c11.5,5.5,21.2,13.2,29.9,22.4C369.1,538.2,359.5,530.3,351.4,520.4z"/>
	<path d="M331.8,362.8c-1.1-0.7-1.4-1.8-1.7-2.8c-1.6-4.8-2.2-9.8-2.4-14.8c0-0.9,0.1-1.1,1-0.7c0.2,0.1,0.2-0.7,0.3-1
		c0.5-3.2,1.2-6.3,2.8-9.1c1.1-2,2.4-3.9,4.9-5.3C333,340.2,331.2,351.3,331.8,362.8z"/>
	<path d="M238.3,551.6c0.1-0.2,0.2-0.5,0.4-0.6c4.7-4.3,8.6-9.4,12.5-14.4c3.2-4.1,6.5-8.1,10.3-11.6c0.8-0.7,1.6-1.4,2.6-2
		c-3,3.8-5,8.2-7.3,12.3c-2.8,4.8-6.3,9-10.6,12.5C243.4,549.9,240.9,551.1,238.3,551.6z"/>
	<path d="M229.6,309.2c2.4-1,4.7-0.9,7.1-0.5c2.1,0.3,4,1,5.9,1.9c7.7,3.7,13.8,9.2,18.2,16.5c0.4,0.6,0.8,1.2,1,2.5
		c-4.5-5.2-9.3-9.2-14.8-12.5C241.5,313.9,235.6,311.6,229.6,309.2z"/>
	<path d="M309.8,360.3c1.6,3.4,3,6.5,4.5,9.7c-0.2-3.2-1.3-6.2-1.8-9.4c3.4,8.2,7.6,16.1,10.2,24.6c-0.7,0.5-1.1,0-1.6-0.3
		c-1.4-0.9-2.6-2.1-3.7-3.4c-4.5-5.7-7.2-12.2-7.9-19.5c0-0.3,0-0.6,0-1C309.5,360.9,309.6,360.8,309.8,360.3z"/>
	<path d="M265,326c-9.3-10.7-20.6-17.5-34.7-20.1c1-1,2-1.1,3-1.2c2.3-0.2,4.4,0.1,6.6,0.8c3.5,1.1,6.8,2.8,10.1,4.3
		c0.2,0.1,0.5,0.2,0.6,0.3c1.5,2.2,4,3,6,4.6c3.3,2.6,6,5.7,8,9.4C264.9,324.6,265.4,325,265,326z"/>
	<path d="M371.2,466.7c-2.2-0.3-4-1.3-5.7-2.4c-3.1-2-5.8-4.4-8.4-7.1c-2.6-2.7-5.2-5.4-8-7.9c-0.2-0.2-0.5-0.4-0.5-1
		C358.9,451.1,365.5,458.4,371.2,466.7z"/>
	<path d="M242.2,302c10.9-1.8,28.8,9.3,31.7,19.5c-0.6-0.5-1-0.8-1.3-1.1c-1.3-1.4-2.6-2.8-4-4.1c-3-3-6.5-5.4-10.4-7.1
		C253,306.8,247.8,304.5,242.2,302z"/>
	<path d="M357.3,530.6c7.8,8.2,15.2,16.1,22.8,24.2C370.9,552,356.7,537.2,357.3,530.6z"/>
	<path d="M209.8,494.5c8.8-4.7,18.1-7.7,27.9-9.2C229.5,491.9,220,494.5,209.8,494.5z"/>
	<path d="M233.7,500.3c-6.7,7.7-14.3,13.7-23.8,17.5C213.7,511.9,228,501.4,233.7,500.3z"/>
	<path d="M281,425.6c2.8,0,4.3,1.8,6.3,2.8c-0.1-1.7-1.3-3-1.4-4.9c2.6,1.9,3.4,4.8,5,7c1-0.7,0.4-2.1,1.3-2.7
		c0.6,2.3,0,12.8-1.1,15C288.8,436.5,286.2,430.5,281,425.6z"/>
	<path d="M210.4,507.1c5-4.8,20.5-13.3,25.7-14.1C232.6,498.2,216.7,507,210.4,507.1z"/>
	<path d="M289.4,331.4c-3-9.6-7.3-18.4-15.6-25.1C282.8,307.5,290.7,319.5,289.4,331.4z"/>
	<path d="M252.5,310.8c2.7,0.6,4.8,2.2,6.7,4c4.9,4.6,9.1,9.9,12.3,15.8c2.6,4.8,5,9.8,7.2,14.9c-0.8,0.2-1-0.4-1.3-0.8
		c-1.4-1.8-2.5-3.7-3.5-5.7c-1.9-3.5-3.8-7-5.7-10.6C264.4,321.4,259.8,314.9,252.5,310.8z"/>
	<path d="M328.4,407c-2.7-2.2-5.3-4.1-6.3-7.3c5.1,3.7,10.1,7.6,15.9,10.3c-6.5,0.3-12.7-0.8-18.8-4.5
		C322.5,405.5,325.1,406.9,328.4,407z"/>
	<path d="M328.8,306.7c-6.9,7.4-14.7,13.4-20.2,22.1C309.5,321.9,322.3,307.9,328.8,306.7z"/>
	<path d="M317.1,434c-0.5-2.3,0.3-3.8,2-5c3.8-2.5,9.8-2.3,14.1,0.9C327.1,429.3,322.1,431.6,317.1,434z"/>
	<path d="M311.3,407.1c9.3,1.4,20.4,5,23.6,7.6C330,415.3,316.1,410.8,311.3,407.1z"/>
	<path d="M279.4,321.2c-4.2-7.1-10.1-12.1-16-17.5C270.1,304.3,279,314,279.4,321.2z"/>
	<path d="M273.5,445.2c-2.5-1.6-5.1-2.7-8-3.3c-2.7-0.6-5.5-1.1-8.5-1.7c1.8-2,3.9-2.3,6.1-2.3C267.3,438.1,271.4,440.9,273.5,445.2
		z"/>
	<path d="M347.4,513.5c7.3,2.2,13.5,6.2,18.6,11.9C359.3,522.3,352.9,518.7,347.4,513.5z"/>
	<path d="M248.1,521.6c-3.4,7.8-8.3,14.5-14.8,19.9C237.4,534.3,242.6,527.9,248.1,521.6z"/>
	<path d="M263.6,359.2c0.9,5.6-1.5,16.3-4.4,19.4C258.4,371.4,261.4,365.4,263.6,359.2z"/>
	<path d="M307.4,420.9c-4.9,3.3-6.8,8.1-8.5,12.9c-0.5,1.4-0.9,2.9-2,4.4c-0.6-1.4-0.9-2.5-0.7-3.7c0.9-6.3,4.3-10.9,10-13.6
		C306.3,420.8,306.5,420.9,307.4,420.9z"/>
	<path d="M321.6,425.3c0,0.1,0,0.3-0.1,0.4c-4.4,3.2-8,7.3-11.9,11.4C309.5,430.5,317.3,423.5,321.6,425.3z"/>
	<path d="M208.4,298.9c5.3-1,15.8,1.2,19.9,4C225.1,303.7,214.4,301.6,208.4,298.9z"/>
	<path d="M270.8,528.2c-3.3,7.9-7.5,15.2-14,20.9c3-3.2,3.4-7.8,6.4-10.9C266.1,535.1,268.1,531.4,270.8,528.2z"/>
	<path d="M273.9,325.9c-5.5-5.2-10.9-10.4-16.4-15.6c0.1-0.1,0.3-0.3,0.4-0.4C264.8,313.6,270.5,318.6,273.9,325.9z"/>
	<path d="M312.1,379.7c-4.6-6.6-7.9-13.6-7.8-21.9C306.6,365.2,310,372.2,312.1,379.7z"/>
	<path d="M349,472.7c7.5-1.2,12.5,3.3,17.6,7.6C360.7,477.8,354.9,475.2,349,472.7z"/>
	<path d="M237.6,504c-3.4,4.5-11.8,10.1-16.1,10.8C226.3,510,231.6,506.5,237.6,504z"/>
	<path d="M262.7,352.4c-0.1,7-1.8,13.5-6.3,19.1C257.2,364.8,261,358.9,262.7,352.4z"/>
	<path d="M377.7,322.1c7-1.5,13.2-0.2,19.6,2.2C395,325.2,386.1,324.2,377.7,322.1z"/>
	<path d="M321.6,402.7c-6.1,1.1-11.3-0.6-16-4.5C311.1,399.4,316.4,400.8,321.6,402.7z"/>
	<path d="M288.2,353c1.5,6.7,2.9,13.3,4.4,20C288.2,367,287.7,360.1,288.2,353z"/>
	<path d="M253.2,453.3c-5.7,1-11.4,1.9-17.2,1.1C241.7,452.4,247.4,451.5,253.2,453.3z"/>
	<path d="M346,309.8c-7.3,0.4-13.9,3.1-20.9,6.2C328.6,311.3,339,308.3,346,309.8z"/>
	<path d="M285.2,386c-4.2,4.2-9.2,6.9-15,8.3C274.5,390.2,279.6,387.7,285.2,386z"/>
	<path d="M281.2,302.1c-1.7-1.2-3-2.5-4.3-4c-1.7-1.9-3.3-3.9-5-5.8c-1.4-1.6-3.1-2.9-5.1-4.2C271.5,288.8,279.5,296.6,281.2,302.1z
		"/>
	<path d="M370.3,520.8c-6.5-3.2-12.2-6.4-16.8-11.6C356.1,509.8,367.6,517.7,370.3,520.8z"/>
	<path d="M323.7,418.1c6.2,0.7,11.1,4.7,17,7.2C336.6,425.4,329.9,422.6,323.7,418.1z"/>
	<path d="M329.5,423.6c-2.1,0.8-3.8,0.7-5.5,0.4c-1.7-0.3-3.4-0.8-5.1-1.2c-1.8-0.4-3.6-0.7-5.6-0.6
		C316.2,420,320.6,420.4,329.5,423.6z"/>
	<path d="M274.2,425.5c6.1,0.3,10.3,4.7,11.6,11.7c-0.7,0.2-0.8-0.5-1.1-0.8c-0.9-1.3-1.8-2.6-2.7-4
		C280,429.4,277.7,426.9,274.2,425.5z"/>
	<path d="M331.4,301.1c7.1-3.4,14.4-5.3,22.3-4C346,297.3,338.7,299.4,331.4,301.1z"/>
	<path d="M315.5,304.7c-3.8,5.2-6.7,10.9-10.1,16.3C306.7,314.3,310.4,309.1,315.5,304.7z"/>
	<path d="M213.6,480.6c4.4-2.1,9-1.8,13.8-1.7C224.4,481.1,216.9,482,213.6,480.6z"/>
	<path d="M178.6,282.2c5.4-0.2,10.1,1.7,14.3,5.2c-4.8-1.5-9.6-3.1-14.4-4.6C178.6,282.6,178.6,282.4,178.6,282.2z"/>
	<path d="M320.6,388.1c5.4,0.6,8.7,4.4,11.6,8.6c-4-2.7-8-5.4-11.9-8.1C320.4,388.4,320.5,388.3,320.6,388.1z"/>
	<path d="M238,449.7c-4.3,0.8-8.4,1.1-12.5,1.7C228.6,448.1,234,447.3,238,449.7z"/>
	<path d="M364.6,482.8c-5.2-2-10.5-3.9-15.7-5.9c6.1-0.4,11,2.6,16,5.5C364.8,482.5,364.7,482.7,364.6,482.8z"/>
	<path d="M298.8,337.7c-0.8,5-1.1,10.1-5.6,13.7c1.7-4.6,3.4-9.3,5.2-13.9C298.5,337.5,298.7,337.6,298.8,337.7z"/>
	<path d="M266,454.7c-5.7-1.9-11.4-3.7-17.5-5.7C252.3,448.4,260.7,451,266,454.7z"/>
	<path d="M272.2,427.2c4.8,0.5,8.1,4.1,8.3,8.9C277.7,433,275.1,430.2,272.2,427.2z"/>
	<path d="M200.8,316.5c7.5-2,14.9-2.7,22.3,0.5C215.7,315.1,208.2,315.7,200.8,316.5z"/>
	<path d="M317.2,309.7c-1.4,4-4.3,6.6-8.1,8.2C311,314.4,313.8,311.8,317.2,309.7z"/>
	<path d="M332.9,320.5c3.8-1.8,7.8-2.6,12-2.6C341.3,320.3,337.2,320.8,332.9,320.5z"/>
	<path d="M227.2,522.3c2.2-2.2,7.5-5.4,14.4-8.7C240.4,515.8,231.8,521,227.2,522.3z"/>
	<path d="M225,474.9c3.6-2.6,7.7-3.5,12.1-3C233.1,473.2,229.3,474.8,225,474.9z"/>
	<path d="M299.8,307.9c0.7-4.4,3.2-7.6,6.3-10.5c0.2,0.1,0.4,0.2,0.6,0.4c-2.1,3.4-4.3,6.9-6.4,10.3
		C300.1,308.1,300,308,299.8,307.9z"/>
	<path d="M371.6,479c4.3,1.8,8.4,2.7,12.3,4.8C380.6,484.2,375.1,482.1,371.6,479z"/>
	<path d="M283.8,411c-3.3,1.7-6.8,1.2-10.2,1C276.8,410.4,280.3,410.4,283.8,411z"/>
	<path d="M294.5,399.1c-3.8-0.5-6.6,1.7-9.6,3.9C286.9,398.6,291.7,396.8,294.5,399.1z"/>
	<path d="M278.1,414.8c-3.3,0.9-6.6,1.8-9.9,2.7c2.8-2.6,6.1-3.4,9.7-3.2C278,414.4,278.1,414.6,278.1,414.8z"/>
	<path d="M258.6,445.2c3.7,0.3,6.9,1.6,9.5,4.2c-0.1,0.2-0.1,0.3-0.2,0.5C264.8,448.3,261.7,446.8,258.6,445.2z"/>
	<path d="M346,299.7c-3.2,1.5-6.3,3-9.7,3.8C339.1,301.1,342.4,300.2,346,299.7z"/>
	<path d="M312.5,330.8c1.7-3.1,4.1-5.4,7.2-7.1C317.6,326.3,315.1,328.6,312.5,330.8z"/>
	<path d="M401.8,280.6c-4.6,0.9-8.9,1.7-13.2,2.6C390.5,279.9,397.4,278.4,401.8,280.6z"/>
</g>
<g>
	<path d="M431.2,488.8c1.4-2.2,2.9-4.4,4.4-6.6c0.2-0.3,0.8-1.1,1.3-1.8c0,0,0,0,0,0c2.3-2.8,5.8-4.2,9.4-4c0.7,0,1.5,0,2.2,0
		c2,0,3.9-0.3,6.4-0.5c-2.2-1.8-4.6-2.3-6.7-3.8c2.4-0.5,4.6-0.2,6.7-0.2c2.1-0.1,4.3,0,6.4,0c0.1-0.9-0.8-0.7-0.9-1.6
		c5.1,0.2,9.8,1.8,14.8,3.9c-0.5-4.5-0.9-8.7-1.3-13c1,0.1,1,1,1.4,1.5c1.6,2.8,3.3,5.6,5.7,8c0.5,0.5,1,1,1.6,1.5
		c0.8,0.7,1.5,0.6,2.3-0.2c2.5-2.5,4-5.8,5-6.4c0,1.7-1.1,3.2-1,5c2.1-0.8,3.8-2,5.5-3.1c1.7-1.2,3.4-2.4,5-3.7
		c1.7-1.3,3.3-2.8,4.9-4.2c1.5-1.3,2.9-2.7,4.3-4.1c-1.4,3.5-2.8,6.7-3.6,10.7c4.7-3.2,8.6-6.8,13.8-8.3c-3.5,3.1-6.4,6.5-8.9,10.3
		c-0.1,0.2-0.2,0.2-0.3,0.1c-0.2-0.6,0.6-1,0-1.7c-0.9,0.6-1.5,1.6-2.2,2.4c-0.9,0.9-1.7,1.9-2.9,2.4c-0.8,0.4-1.7,0.5-2.6,0.3
		c-1.1-0.2-0.1-1.5-1-2c-1.6,0.9-2.6,2.8-4.8,2.5c-0.4-0.7,0.6-1.3,0.1-1.9c-0.8,0.1-1.5,0.6-2.2,1c-2.5,1.3-5.1,2.6-7.8,3.7
		c-6,2.4-12.1,3.6-18.5,2.6c-1.1-0.2-2.1-0.4-2.9,0.9c-0.5,0.9-1.8,1-2.8,1c-1.1,0-2.2-0.1-3.4,0c-0.8,0-1.7-0.1-2.4,0.7
		c0.9,0.5,2.2-0.1,2.8,1.3c-2.1,1.7-5,1.6-7.4,2.6c0.5,1,1.6,1.1,1.8,2.1c-0.9,0.9-2,0.6-3,0.6c-1,0-1.9-0.1-2.9-0.1
		c-0.6,0-1.1,0.3-0.9,1c0.1,0.4,0.5,0.8,0,1.4c-2.5-0.5-4.6,0.8-6.6,2.3c6.2,0.3,12.3,0.3,18.5,0.3c1.2,0,1.9-0.6,2.5-1.6
		c1.1-1.8,2.4-3.3,3.9-4.6c4.7-4,11.4-4.1,16.3-0.4c1.8,1.3,3.3,2.9,4.4,4.8c0.8,1.5,1.9,1.9,3.5,1.9c2.8-0.1,5.6,0,8.4,0
		c0.6,0,1.3,0.2,2-0.4c-1-1.7-2-3.4-3-5.1c0.9-0.7,1.7-0.6,2.5-0.5c0.8,0.1,1.6,0.5,2.6-0.1c-2.3-2.9-5.7-3.5-8.6-5.3
		c1.2-0.6,2.4,0,3.6-0.9c-1.8-0.3-3.3-0.5-4.7-0.7c-0.4-0.1-1,0-0.6-0.6c0.5-1-0.1-0.9-0.7-0.8c-1.2,0.2-2.4,0.8-3.9-0.1
		c2.8-2.1,5.6-3.1,8.8-2.7c5.6,0.8,9.4,4.3,12.6,8.6c-0.9,0.6-1.6-0.3-2.4,0.2c2.2,2.3,4.5,4.6,5.7,7.6c0.3,0.7,1.1,0.6,1.7,0.4
		c0.7-0.2,0.8-0.7,0.8-1.3c-0.1-2.3-0.6-4.4-1.3-6.6c-0.3-0.9-0.9-1.7-0.6-3c2.5,2.8,3.7,6.2,5.5,9.2c0.1-3.4-1.7-6.1-2.9-9.5
		c2,1,3.1,2.3,5,3.1c-0.7-2-1.9-3.2-3.1-4.4c-1.2-1.2-2.8-1.9-3.7-3.5c1.8-0.6,3.2,0.6,4.8,0.8c-0.2-0.5-0.3-0.9-0.5-1.3
		c0.3,0,0.5,0.1,0.7,0.1c0.6,0.2,1.2,0.4,1.8,0.6c4.7,1.7,7.3,5,7.6,10c0.1,1.5,0.2,3,0.1,4.5c-0.1,1,0.3,1.5,1.2,1.6
		c1,0.1,2.1,0.3,3-0.5c0.9-0.9,0.4-2,0-2.9c-0.8-2-1.7-4-2.6-5.9c-0.2-0.4-0.6-0.8,0.2-1.3c1.1,1.4,2.3,2.8,3.6,4.4
		c1.6-3.1-1.3-4.7-1.7-6.9c0.3-0.1,0.5-0.2,0.6-0.1c4.4,1.9,7.2,5.1,8.2,9.9c0.1,0.5,0.2,1.1,0.3,1.6c0.2,0.5,0.6,0.8,1.1,0.8
		c0.6,0,0.7-0.5,0.8-1c0.5-2.2,0.5-2.2,2.2-0.9c0.6,0.4,1.2,0.9,1.8,1.2c0.5,0.3,1,0.5,1.5-0.1c-2-4.2-5.2-7.4-8.7-10.4
		c0.4-0.5,0.8-0.5,1.2-0.5c4-0.2,7.6,1,10.5,3.9c2,2,3.6,4.3,5.1,6.6c0.4,0.7,0.7,1.6,1.6,2c0.8-2.2-2-3.7-1.1-5.9
		c1.9,0.3,3.5,1.5,5.8,1.6c-2.1-1.7-4-2.8-6-3.8c-2-1-4-2-5.9-3.3c-0.6-0.4-1.5-0.8-1.4-1.5c0.1-1.7-0.9-1.5-1.9-1.4
		c-1.7,0.1-3.2-0.2-4.8-1.4c5.2-1.7,16.4,0.3,22.5,3.8c-2.9,0.1-5.7-1.3-8.6,0c0.5,0.6,0.5,0.8,1.2,0.8c4.4-0.2,8.6,2,10.6,5.9
		c2,4.1,5,5.5,8.4,5.3c3.3-0.2,4.1,0.6,4.4,3.8c0,0.5,0.1,1,0.1,1.4c0,1.6-0.4,2-1.9,2c-1.4,0-2.7-0.1-4.1-0.1
		c-15.3,0-30.5,0-45.8,0c-33.6,0-67.2,0-100.8,0h-2.5C427,495.7,429,492.2,431.2,488.8z"/>
	<path d="M511.4,469.8c2.3,0.8,3-1.3,4.3-1.9c0.3,3.8,1.2,4.8,5,5.8c8.4,2.2,16.7,2,25.1-0.1c2.1-0.5,4.1-0.9,6.2-1.6
		c-3.1-0.3-6.1-0.5-9.5-0.8c0.9-1.4,2.5-1.4,3.5-2.8c-5,0.8-9.3,3.4-14.7,3.9c3.7-3.6,7.3-6.6,11.1-9.3c-1.7,0.1-3.2,0.8-4.7,1.4
		c-2.3,1-4.5,2.1-6.8,3c-3.2,1.3-5.5,1.5-8.6,0.8c1.3-2.9,4-4.4,6.3-6.9c-3.8,0-6.4,2.4-10,3.6c1-2.1,2.7-3.1,3.7-5.2
		C517,461.6,513.8,465,511.4,469.8z"/>
</g>
</svg>
