<?xml version="1.0" encoding="utf-8"?>
<!-- Generator: Adobe Illustrator 24.2.3, SVG Export Plug-In . SVG Version: 6.00 Build 0)  -->
<svg version="1.1" id="Layer_1" xmlns="http://www.w3.org/2000/svg" xmlns:xlink="http://www.w3.org/1999/xlink" x="0px" y="0px"
	 viewBox="0 0 595.3 841.9" style="enable-background:new 0 0 595.3 841.9; fill: #215342;" xml:space="preserve"
	 height="350" width="500" transform="translate(-80, -75)">
<g>
	<path d="M541.7,263.1c10.2,4.8,14,10.9,11.4,24.1c-4.6,22.8-9,45.8-20,66.8c-3.1,5.9-6,12-9.4,17.7c-6.1,10.1-5.8,20.7-4.5,31.9
		c1,8.7,3.7,16.9,4.8,25.5c0.3,2.4,0.7,5.3-2,6.7c-2.9,1.5-5.3-0.3-7.5-1.9c-10.2-7.3-16.6-17.7-22.3-28.5
		c-12.3-23.4-20.4-46.2-26.5-73.6c-4.3,3.4-7.7,7.3-10.7,11.5c-8.7,12-9,25.5-7.4,39.4c0.9,8.4,2.4,16.4,7.3,23.9
		c4.7,7,3.3,15-1.5,21.9c-4.8,6.8-3.2,15.3-6.6,22.4c-0.2,0.4,0.4,1.3,0.8,1.8c14.8,18.4,24.8,39.5,32.9,61.5c0.3,0.8,0.6,1.5,1,2.5
		c9.1-7.3,17.7-4.4,26.1,1.2c2.4,1.6,4.4,1.8,7.1,0.5c7.3-3.5,13.6-2.1,20,5.3c4,4.6,7.8,7.4,14.2,7.6c8.4,0.3,14.2,5,17.5,13
		c3.3,8,8.5,15.2,9.7,24c2.2,15.8,0.7,30.7-10.3,43.4c-0.7,0.9-1.7,2-2.5,1.5c-2.7-1.8-4.4,0.1-6.3,1.3c-1.3,0.9-2.1,1-3.4-0.6
		c-2.3-2.8-13.5-1.1-15.6,1.9c-5,7-9.9,14.1-16.4,19.8c-5.3,4.7-7.7,3.8-9.4-2.9c-0.6-2.2-1.5-4.3-2.1-6.5c-0.5-2.2-0.8-4.4-1.2-6.9
		c-3.9,3.5-5,7.9-5.5,12.7c-0.6,5.9-2.4,11.5-6.2,16.1c-3,3.7-6.3,3.5-7-1.1c-1.4-8.5-7-14.5-11.2-21.4c-1.5-2.4-2.4-5.1-3.8-8.1
		c-3.1,4.6-7.3,7.8-11.5,11c-2.3,1.8-3.2,5.5-5,8.1c-2.8,4.2-4.9,4-7.1-0.5c-1.5-2.9-2.4-6.2-2.2-9.3c0.5-6.6-5.1-9.3-7.9-13.8
		c-0.4-0.6-2-0.6-3-0.6c-8.4,0-16.8,0-25.3,0c-12.8,0-25.6,0-38.4,0c-2.5,0-4.1,0.4-2.4-3.4c1.5-3.3,4.3-6.5,4.6-9.8
		c0.3-4.1,2.1-8.4,0.7-12.5c-1.1-3.2,1.7-4.8,1.7-7.5c0-1.6,0.7-3.3-1-4.5c-2.2,0.6-2.6,2.6-3.1,4.4c-1.9,7.1-4.9,13.7-8.8,19.9
		c-2.1,3.2-4.1,6.4-7.5,8.5c-1.4,0.9-3.9,2.6-0.6,4.9c-1.3,0.1-2.8,0.3-4,1.6c-2.5-21.4-8.3-42.8-27.3-51.6
		c-3.7-1.7-7.7-2.5-11.7-3.2c-3.6-0.6-7.2,4-7.3,9.4c-0.3,9.2,1.1,18.3,2.6,27.4c2.1,12.4,2.7,24.9,1.5,37.5
		c-0.5,5.2,1.5,6.6,6.4,4.5c7.8-3.3,14.3-8.6,19.5-15.3c2.9-3.7,5.7-7.4,8.7-10.9c1-1.1,2.4-3,4.1-1c1.5,1.8-0.4,2.7-1.6,3.6
		c-7.5,5.5-12.9,13-20.1,18.9c-12,9.8-30.2,9.9-42.2,0.2c-7.1-5.7-13.9-11.7-20.7-17.7c-2.5-2.3-5.1-3.5-8.6-3.5
		c-36.6,0.1-73.2-0.3-109.7,0.2c-8.8,0.1-17.7-0.9-26.6,0.3c-5.7,0.8-8.7,3.4-9.4,9.1c-0.5,4-1.4,8-2.3,11.9
		c-0.4,1.8-0.9,3.7-3.4,5.3c1.4-2.9,0.3-4.9-0.6-6.9c-4.1-9.5-4.6-19.5-4.3-29.5c0.1-2.8,1.5-4.7,5.1-5.4c-3.4-3-5.2-1.4-6.5,1.3
		c-3.6,7.2-2.9,14.9-2.1,22.5c0.7,6.1,2.8,11.7,5.9,17.1c-5.5-5.2-7.4-12-7.9-19.1c-0.4-4.6-2-6.4-6.5-6.3
		c-5.4,0.1-10.7-0.2-16.1-0.3c-3.2-0.1-6,0.4-6.7,4.3c0,0.1-0.1,0.2-0.2,0.3c-1.6,2.3-1.9,6.6-5.4,6.4c-3.4-0.2-5.1-3.9-6-6.9
		c-1.1-3.6-2.9-4.5-6.4-4.3c-5.2,0.3-11.1,1.5-16.2,0.2c4.8,0.7,5.6-2.1,5.4-6c-0.3-5.2,0.1-10.5,0.1-15.8c0-1.4-0.3-2.9-0.9-4.1
		c-1.2-2.4-2.8-4.9-5.8-4.8c-2.7,0.1-3.8,2.6-4.9,4.8c-3.9,8.5,2.6,16.9,6.3,25.5c-14.8,0-9.6-10-12.5-14.4
		c-7.5-11.2-6.6-23.5-2.9-35.8c1.6-5.5,3.7-10.8,5.1-16.3c3.4-12.9,14.3-21.5,27.7-21.9c3.9-0.1,6.3-0.9,8.4-4.8
		c4.1-7.6,12-8.1,19.6-8.8c1.2-0.1,2.4-0.1,3.6,0c3.4,0.3,5.9-0.4,8.7-3.2c5.6-5.7,13.3-4.4,20.4-3.8c7,0.5,13.9,2,19.8,6.2
		c0.8,0.6,1.5,0.3,2.3,0.1c6.9-2,13.7-1.6,20.2,1.3c2.1,0.9,2.8,0.3,3.7-1.5c7.1-13.5,14.2-27,22.9-39.6c0.9-1.3,0.9-2.6,0.6-4.1
		c-2.7-11.8-6.4-23.4-8.2-35.4c-0.4-2.7-2.2-4.7-3.5-7c-2.9-5.3-3.6-10.9-0.3-16c4.1-6.3,3.8-13.1,3.9-20c0.1-4.1-0.3-8.1-0.2-12.2
		c0.6-14.1-7.5-23.6-16.8-32.5c-2.3-2.2-3.9-2.5-6.6-2.6c0,7.1-0.2,14.2,0,21.3c0.9,25.4-7.5,48-20.9,69.1c-2.3,3.6-5,6.7-8.3,9.3
		c-6,4.8-12.1,2.9-14.2-4.6c-1.9-6.7-1-13.4,1.3-19.7c2.5-7,1.8-12.4-3.2-18.3c-7.1-8.4-11.9-18.5-15-29.1
		c-6.1-20.7-14.2-40.6-22.9-60.3c-6.8-15.2-4.3-30,2.9-44.4c0.8-1.7,2-3,3.8-3.6c-3.3,3.9-3.5,9-5.2,13.5
		c-4.6,12.1-3.5,23.8,1.7,35.5c6.6,14.9,13.9,29.6,18.1,45.5c3.3,12.2,8,23.7,13.5,35c2.4,4.9,5,9.8,9.4,15
		c-0.7-5.1-3.3-8.2-4.6-12.2c3.2,0.5,2.8-1.7,2.9-3.6c0.4-8.6,0.7-17.2,1.2-25.8c0.7-11.7,1.4-23.4,0.6-35.1
		c-1.2-17.3-0.3-34.6,0.6-51.9c0-0.8,0.3-1.8,0.9-2.3c3.3-3,2.1-6.4,1.3-9.9c-2.5,1-2.8,0.9-3.5,2.5c-3.4,7.6-7.8,14.9-7.5,23.7
		c0.2,6.9,0.5,13.8,1.2,20.7c1.3,11.8,1.3,23.6,0.2,35.4c-0.3,3-1.7,5.3-4.7,6.1c-2.9,0.9-4.9-0.7-6.3-3c-4.1-7-9.3-13.5-11.7-21.6
		c-1.5-5.1-3.1-10.1-4.8-15.1c-4.2-12-7.7-23.9-4.1-37c2.3-8.5,7-13.3,15.4-14.8c6.4-1.1,12.7-2.2,18.7-4.8c2.7-1.2,5.4-2.1,8.1-3.1
		c-3.8,4.1,0.4,6.4,1.9,8.6c1.7,2.5,3.5-0.2,5-1.3c2.4-1.7,4.9-2.1,7.8-1.8c3.3,0.4,6.8,1.3,9.9-0.4c5.4-2.8,10.8-5.7,15.8-9.1
		c6.7-4.4,13-9.4,19.5-14.1c2.3-1.6,4.6-3.2,7.5-3.6c-4.5,3.7-9.2,7.2-13.8,10.6c-12.4,9.1-24,19-30,33.9
		c-5.7,14.3-9.2,29.1-9.9,44.5c-0.5,11.8-0.5,23.6-1.9,35.4c-1.7,14.7-7,28.4-11.4,42.4c-3.2,10.2-6.7,20.4-6.8,31.3
		c0,3.2,0.3,6.5,3.8,9c0.1-1.2,0.2-1.9,0.1-2.5c-1.5-10.4,1.6-19.9,7.2-28.2c10.9-16.1,13.6-34.3,14.4-52.8
		c0.7-17.7-0.6-35.5,3-53.2c2.4-11.9,4.8-23.9,12-33.8c13.6-18.7,31.2-32.4,53.2-40.1c2.3-0.8,5-1.9,7.3-0.4
		c6,3.9,9.1,10.3,12.6,16.2c2.2,3.7-1.1,6.7-1.4,10c-3.6,0.6-3.2-3.6-6.4-4.7c1.7,10.6-5.2,17.4-9.2,25.4c-0.1-0.9,0.3-1.7,0.4-2.5
		c0.1-0.7,1-1.4-0.2-2.4c-6.9,8.9-13,18.3-14.2,29.7c-0.8,7.1-2.9,13.3-6.3,19.5c-4.3,7.6-6.9,16-7.9,24.7
		c-2,15.7-0.7,31.5-0.8,47.3c0,6.5-0.6,12.8-3.8,18.7c-2.3,4.3-2,8.7,0.2,13c1.5,3.1,3,6.1,3.7,9.6c2.8,14,5.9,27.9,9,42.1
		c1.7-3.4,0.8-6.8,1.4-10.9c1.8,3.7,2,6.7,1.4,10c-2.3,11.2-2.2,22,5.6,31c10.1-14.5,3.6-29.9,0.8-45.4c2.9,1.7,2.8,6.1,7,6.1
		c1.7,3.7-0.6,8.8,2.8,13.4c3.8-7.5,8.1-13.7,13.4-19.2c2.3-2.3,5.3-4.6-0.6-6.2c-0.7-0.2-1.5-1-1.7-1.7c-1.2-4.7-4.8-4.3-8.3-4
		c-2.4,0.2-5,0.7-6.9-1c-5.1-4.5-9-10.1-9.9-16.9c-0.5-3.6-0.7-6.2-4.7-7.3c-1.1-0.3-2.3-1.9-2.7-3.1c-2.5-6.7-4.5-13.6-4-20.9
		c0.4-6,1.1-11.9,0.6-17.9c-0.6-8.1,3-13.9,9.3-18.6c3.2-2.4,6.8-4.8,9.1-8c5.5-7.6,11.6-14.2,19.5-19.4c4.8-3.2,9.6-7.4,12.4-12.4
		c2.1-3.7,4.2-4.9,7.7-5.1c0.2-0.8-1.8-0.6-0.7-1.5c3.6-2.8,12-1.6,14.8,2.1c1.7,2.3,3.2,4.7,4.8,7.1c1,1.5,2.2,1.9,3.9,1.6
		c5.4-0.9,7.9-5,6-10.4c-3.9-11.1-12.7-17-24.7-16.7c-2.1,0-4.3,0.8-6.5-0.7c1.3-0.7,2.2-1.2,3.3-1.7c-4.8-3.1-9.2,0.7-13.7,0.2
		c4.6-7.4,9.2-13.2,19.4-10.9c20.2,4.6,30.4,19.2,37.5,36.7c1.8,4.5,3.9,7.1,8.8,8.9c-1.1-5.9,2.6-12.8-5.9-15.6
		c-0.3-0.1-0.5-0.8-0.6-1.2c-2.1-6.9-6.4-12.5-10.7-18.1c-4.4-5.9-4.5-7.8-0.9-14.3c1-1.9,3-3.4,2.9-6.2c-6,0.9-10.7,4.9-16.8,6.3
		c0.8-3.4,2.8-5.1,4.8-6.7c5.3-4,11.3-6.7,17.3-9.4c2.2-1,5.3-2.1,3.9-5.3c-1.3-3.1-4-1.2-5.9-0.5c-5.6,2-11.1,4.3-16.6,6.4
		c6.6-3.5,9.3-11.9,17.4-13.6c2.4-0.5,5.2-1.6,6.4-4c0.7-1.4,1.6-1.7,2.8-1.7c1.5,0,1.9,1.1,2.1,2.3c-0.5,0.8-1.4-0.9-1.6,0.1
		c1.9,4.7,0.3,9.2,0.9,13.6c0,0.3-0.3,0.6-0.5,0.9c-2.9,2.9-4,6.6-4,10.5c0,9,1.8,18,1.2,27.1c-0.2,2.1,1.3,2.9,2.4,3.8
		c1,0.8,0.3-1,1.1-1c0.2,2-0.8,4.8,1.9,5.5c2.8,0.8,2.4,2.5,2.1,4.4c-1.1,6.3-2.1,12.6-2,19.1c0.1,3.1,2.2,5.3,2.3,8.3
		c0.6,8.9,1.2,17.8-4.6,25.3c-0.1-0.2-0.2-0.8-0.3-1.1c-3,2-2.3,6.7-6.9,8.5c-2.3,0.9-3.8,5.2-5.6,7.9c-6.5,10-8.3,22.9-18.8,30.5
		c-5.5,4-8.2,10.7-13.6,15c-0.6,0.4-1,1-1.5,1.5c-3,4.2-5.4,8.8-9.8,12c-1.9,1.4-3.5,2.7-3.8,5.9c-0.6,6.7-5.7,11.8-8.4,17.8
		c-0.8,1.8-1.2,4-3.2,5.4c-11.2,8.4-17.5,20-21.4,33.2c-1.7,5.8-3.6,11.7-2,18.3c3.7-2.2,7.2-4.3,10.6-6.3c-2.6,2.3-5.4,4.2-8.3,6.1
		c-1.2,0.8-2.3,1.7-2.1,3.4c0.9,7.5,4.3,13.6,9.5,19.2c1.5-2.4,2.7-4.4,4-6.4c0.1,0.9-0.1,1.6-0.5,2.1c-3.3,3.7-2.3,6.4,1.3,9.5
		c7.9,6.9,16.9,11.7,27,14.3c5.6,1.5,11.3,1.4,17.8,0c-4.1-1.1-7.7,1.3-11.1-1.3c3.4-3.1,7.7-2.7,11.5-4.7c-1.9-2.3-2.7-6-6.5-2.6
		c-2.3,2.1-4.7,1-7,0.1c-0.9-0.3-1.5-1-1.1-1.9c0.9-2.1,2.8-3.4,4.9-3.8c2.5-0.5,5.2-0.3,7.8-0.4c0.9-0.1,2-0.4,2-1.6
		c0-1.4-1.1-1.3-2.1-1.3c-3.9,0.1-4.5-4.1-7.1-5.7c-0.8-0.5,0-2,0.9-2.3c4.9-1.5,4.3-6.5,3.5-8.7c-1.9-5.4,1.2-6,4.6-7
		c2.6-0.8,3.7-2,2.3-4.7c-1.1-2.1-0.3-3.6,1.6-4.8c1.3-0.8,2.9-1.1,3.6-2.6c-0.5-1.3-2.3-1.6-2.2-3.2c1.5-1.1,3-2.2,4.5-3.3
		c0.9-0.7,1.6-1.6,0.8-2.8c-2.9-3.7-5-7.5-5.6-12.5c-0.5-3.7-3.1-7.3-4.3-11.4c-5.5-18.9,3.6-34.8,23.1-38.5
		c17.4-3.3,35-2.6,52.5-1.1c14.8,1.3,24.9,8.6,27.9,23.7c1.2,6.2,1.8,12.5,2,18.8c0.2,7.6-6.2,14.3-14.9,15.9
		c-3.6,0.7-5.5,2-6.5,5.8c-1.7,6.4-6,10.7-12.3,13c-7.4,2.7-10.8,8.9-12.2,15.9c-1,4.9,1.2,8.7,5.7,12c12.9,9.4,25.9,18.2,41.4,23.2
		c4.8,1.5,8.5-1.7,13.2-0.7c2.3,0.5,5.8-4.3,8.7-6.8c0.7-0.6,1.3-1.4-0.4-1.5c1.6-2.7-0.7-6.6,3-8.6c8.4-4.5,9-8.2,2.5-14.4
		c-0.2-0.2-0.1-0.6-0.1-0.7c2.7-1.8,4.2,6.5,7.2,0.5c2.9-5.8,2.8-6-3.9-10.4c1.3-0.6,2.3,0.4,3.4,0.7c1.5,0.5,2.7,0.4,3-1.3
		c1.1-5.1,3.1-10.1,2.1-15.5c-0.5-2.7-1.3-5.6-0.8-8.2c1.2-5.4-1.3-10.3-3.9-13.5c-5.9-7.1-8.8-14.9-10-24c0.7,0.6,1.3,1.1,2,1.7
		c-4-8.8-2.5-19.7-10.5-27c1,0.7,2,1.3,4.1,2.7c-3.4-4.6-6.5-7.5-9.7-10.4c0.8-0.8,1.7,0.5,2.1-0.8c-3.3-2.2-6.6-4.3-10.9-7.2
		c2.1,0.2,2.8,0.2,3.3,0.3c-2.8-3.4-8.3-1.9-10.8-6.9c-1.3-2.5-6.4-3-8.8-3.1c-7.2-0.3-14-2.6-21-2.7c-2.8-0.1-5.7,1.8-8.5,0.1
		c2.8-4.2,8.9-4,11.6-9.3c-3.9,1-6.6-2.7-10-0.6c0.5-0.5,1-1,1.9-2c-3.1,0.7-5.5,1.2-8,1.8c-0.4-1.7,1.7-2,1.1-3.7
		c-1.9-5.3-2.1-11.1-4.3-16.4c-0.6-1.5-1.3-3.3-1-4.8c0.7-3.8,1.8-7.5,0.5-11.4c-1.3-4.2-2.3-8.5-3.3-12.8
		c-2.1-9.7-4.1-19.3-3.2-29.3c1,0.6,0.3,2.6,2.2,2.7c-0.7-2.7-1.3-5.3-1.9-7.6c0.4-1.5,2.4,1.2,1.8-0.8c-1.3-4.3,1.9-8.6-0.2-12.7
		c-1.2-2.4,0.1-4.8,0.8-6.5c2-4.9,1.8-9.9,2.3-14.9c0.7-6.5-2.4-12.5-3.3-18.8c-0.3-2.5,0.1-5.1-2.1-8.2c0,3.4,0,5.9,0,8.5
		c-0.2,0-0.4,0-0.6,0c-1.6-5.1-3.2-10.1-4.9-15.6c6.3,3.5,13,0.7,19.2,2.9c-2.5,2.1-0.9,2.4,0.9,2.7c6.2,1,12.3,2.2,17.8,5.3
		c3.8,2.1,3.7,4.6,0,6.7c-1.8,1-3.7,1.8-5.2,3.1c-1.9,1.6-5.7,3.1-4.2,5.7c1.4,2.5,4.8,0.5,7.1-0.6c8.3-3.7,16.8-5.9,25.8-3.2
		c8.8,2.7,17.1,6.7,25,11.5c4.1,2.5,8.4,4.7,12.7,7c-4.8-14.6-14.3-25.3-24.9-34.7c8.4-3.3,14.4,3,21.3,6.2
		c-2.4-2.4-5.5-3.8-7.4-6.8c2-0.6,3,2,5.1,0.8c-4.9-5.8-14.8-4.6-17.8-12.9c5.3-1.2,10.3,0.3,15.4,0.6c5.1,0.3,7.7-1.9,9.9-6.4
		c2.7-5.6,6-11.2,13.5-11.7c4.9-0.3,9.1,1.4,13.2,3.8c2,1.1,3.5,3.2,6.3,3.3c-0.2-0.6-0.3-1.1-0.5-1.2c-4.7-3.3-9.2-6.8-14-9.9
		c-8.1-5.3-10.3-5.1-17.9,0.7c-4.9,3.8-9.6,7.9-14.5,11.8c-5.1,4.1-10.7,5.4-17.1,3.9c-8.7-2.1-17.6-3.5-26.2-5.8
		c-24.6-6.4-48.8-6.2-72.5,4.1c-12.2,5.3-25,8.5-38.7,6c4.5,4.4,11,4.2,16.7,6.8c-9.4,8-15,18.7-24.5,26.5c-0.4-2.5,0.6-3.8,1.2-5.2
		c2.4-5.6,4.6-11.3,5.2-17.5c0.5-4.6,0.9-9.3-2.4-13.2c-3.3-3.9-6.6-7.9-10-11.7c-2.7-3.1-6.2-4.2-10.2-4.5c-11.8-1-22.6,2-32.5,8.1
		c-20.5,12.6-42.6,20.4-66.4,23.6c7.8-3.8,16.3-5.2,24.6-7.2c16.5-4,30.7-12.9,45.5-20.4c9.5-4.8,19.5-6.9,30.1-5.9
		c3.4,0.3,6.5,1.4,9,3.9c0.7,0.7,1.4,1.3,2,2.1c12.6,16.9,22,15.8,43.2,9.9c10.4-2.9,20.2-7.8,30.8-10.2c14.4-3.2,28.5-1.4,42.4,2.5
		c12,3.3,24.3,4.7,36.3,7.4c5.7,1.3,10.2-2.6,14.4-5.8c5.4-4.2,10.7-8.5,16-12.7c2.6-2,5.7-3,8.7-2c4.7,1.6,9.4,1.1,14.1,1.2
		c1.6,0,3.1,0.2,4.7,0c13.9-1.5,26.4,1.5,37.3,10.9c4.3,3.7,9.8,5.7,15.4,7.2c6,1.6,11.7,4,17.2,7c13.1,7.2,26.1,14.9,39.9,20.9
		c-7.5-1.9-14.3-5.4-21.1-8.7c-10.9-5.4-20.7-13-32.6-16.3c-9.5-2.6-18-6.9-25.9-12.7c-3.7-2.7-7.5-5.7-12.1-6
		c-9.5-0.5-19-0.2-28.6-0.2c4,2.5,7.8,5,13.2,4.7c10.6-0.4,21.3-0.1,30.2,7.2c2.5,2,5.3,3.7,8.4,4.7c24.1,8,45.2,22.7,69.1,31.4
		c7.9,2.9,12.3,8.9,13,17.7c0.4,5.1,0.5,10.2,0.1,15.3C551.4,284.9,554.3,272.6,541.7,263.1z M508.2,521c4.1,3,5.1,7.4,6.1,12.1
		c0.9,4.2-2.3,7.4-2,11.1c1.1,11.6-0.3,22.9-1,34.4c-0.8,12.2,0.2,24.6-1,36.8c-0.4,4.7,0.3,9.2,2.5,13.8c1.2-4.1,2.2-7.8,3.4-11.4
		c1.3-3.7,2.9-7.3,5.5-10.4c3.5-4.2,7-3.6,9.2,1.4c1.5,3.2,0.6,6.7,1.3,10.8c3.8-5.2,6.1-10.3,7.6-15.8c2.6-9.6,2.2-19.4,2-29.2
		c-0.1-2.5,0.2-4.8-2.2-7c-2.5-2.4-2-6.6-4.2-9.6c-1.1-1.5-3.2-1-3.9-3.4c-0.9-3.4,0.3-6.9-1.2-10.2c-1.9-4.4-2.6-9.2-3-14
		c-0.1-2-1.3-4.7,0.9-5.9c2.2-1.3,3.3,1.6,5.1,2.5c0.1,0.1,0.3-0.1,0.5-0.2c-6-8.2-11.4-10-20.6-6.5C511.7,521,509.9,521,508.2,521
		c-3-2.7-6.7-4.2-10.3-5.6c-5.6-2.1-11-1.2-15.3,2.9c-4.3,4.1-6,9.2-4.9,15.3c1.3,6.9,2.5,14,1.6,20.9c-2.5,19.6-4.6,39.1-2.7,58.9
		c0.8,8.1,4.4,14.8,9.9,21.5c0.2-1.5,0.3-2.2,0.3-2.9c0.8-6.4,1.4-12.9,5.2-18.4c2.8-4.1,5.6-4,8.4-0.1c1.9,2.6,2.4,5.7,3.8,8.9
		c2.1-3.2,3.6-6.1,4.1-9.5c1.8-12.6,1-25.3,1.1-37.9c0-1.4-0.9-2.5-1.5-3.8c-2.9-6.3-6.3-12.7-7.9-19.4c-2.3-9.6-1.6-19.7-3.5-29.4
		c-0.5-2.5,1.1-4.7,4.4-3.7C503.4,519.6,505.8,520.3,508.2,521z M138.6,603.1c-0.6-3.2-1-5.1-1.4-7.1c-1.5-7.8-1.6-15.5,2.7-22.5
		c1.7-2.7,4.3-4.6,7-1.6c2.9,3.2,5.3,7,6.4,11.4c1.8,6.9,1.9,13.8-0.4,20.5c8.7-0.1,13.5-4.6,15.9-12.2c1.4-4.3,3.6-8.5,4-12.9
		c0.7-7.5,4.3-16.2-5-21.2c-5.2-2.8-6.9-8.7-11.9-11.5c-0.6-0.3-1.6,0.2-2.2-1.2c-1.8-4.6-3.4-4.7-6.9-0.5c-5-5.4-7-12.6-9.3-19
		c-3.1-8.5,3.1-13.9,11.7-11.5c1.3,0.4,2.6,0.7,3.9,1.1c-6.8-3.7-14-5.2-21.6-2.9c-0.7,0.2-1.2,1.2-2.2,0.3
		c-7.2-6.2-16.1-6.6-24.8-7c-12.4-0.5-17.5,4.4-19.8,16.8c-1.2,6.8,0.5,13.5-0.8,20.3c-2.3,12.1-4.8,24.1-4.1,36.6
		c0.6,10.2,1.8,20.3,8.4,28.7c1.6,2,3.1,4,5.9,4.8c0.8-4.6,1.2-9,3-13.1c1.1-2.6,2.4-5.5,5.8-5.7c3.6-0.2,5.3,2.5,6.4,5.3
		c0.9,2.2,1.6,4.5,2,6.8c0.6,2.8,0.8,5.7,1.2,9c5.2-4.4,9-9.1,11.6-14.6c2.7-5.6,3-11.8,4.1-17.9C128,590.6,131.1,597.2,138.6,603.1
		z M256.7,591.1c1,7.2,0.4,14.8,5.9,20.1c8.6,8.1,17,16.4,27.1,22.8c5.1,3.2,10.5,5.7,16.7,6c2.1,0.1,3.9-0.2,3.9-2.9
		c0.2-17.8,3-35.8-6.6-52.4c-1.6-2.7-1.5-6.2-2.4-9.3c-2.8-9.4-7.9-13.7-16.1-12.5c-8.5,1.2-16,4.7-20.1,13.1
		c-2.2,4.6-3.1,9.5-5,14.1C259.6,591,259.3,594.1,256.7,591.1z M454.5,639.3c2.5-2.8,3.1-5.1,1.9-7.9c-1.3-2.8-1.7-5.8-1-8.8
		c1.3-6.3-0.1-13.8,7.4-17.5c1.7,6.8,2.1,14,0.7,21.8c7.5-5.4,12-11.4,11.3-20.3c-0.6-8.1-0.9-16.2-0.5-24.3
		c0.3-5.1,1.3-10-1.5-15.3c-4.1-7.8-5.9-16.8-8.3-25.4c-1.6-5.7-2.7-11,3.7-14.8c-10.6-3-22,5.3-23.6,17.1c-1.2,9-4,17.7-6.6,26.3
		c-0.5,1.7-1.9,3.7-2.3,5.7c-3,16.7,1.8,31.2,13.2,44.6c0.4-2,0.6-3.3,0.8-4.7c0.7-4.8,1.9-9.4,4.5-13.4c1.3-2,3-4.2,6.3-1.8
		c-4.5-0.1-5.8,3-6.6,5.9C450.5,617.2,448.7,628,454.5,639.3z M82.6,532c0.3-3.3,0.3-6.7,0.9-10c1.8-10.3,1.9-10.3-9-9.1
		c-0.4,0-0.7,0.1-1.1,0.1c-11.3,0.9-17,7.1-17,18.5c0,3.7-0.3,7.2-2.1,10.4c-4.3,7.8-6.2,16.2-7,24.9c-1.1,11.6,1.5,22.6,4.5,34.8
		c1.4-5.4,2.3-9.8,4.4-13.7c1.8-3.3,3.1-7.8,7.8-7.2c4.9,0.5,6.1,5.1,7.3,9.2c0.1,0.3,0.1,0.7,0.2,1.1c1.3,5.1,0.6,10.2,0.1,15.7
		c5.1-4.5,7.7-9.9,7.1-16.6c-1-12.1-0.6-24.1,1.2-36.1c0-0.2-0.1-0.4-0.2-0.7c-0.4,0.6-0.8,1.2-1.2,1.8c-1.1-3.7-2-7.4-3.2-10.9
		c-0.9-2.6-2.5-3.1-4.5-0.8c-0.1-0.6,0-1.5-0.3-1.7c-3.8-1.8-4.2-4.7-4.4-8.7c-0.3-5,1.2-8.6,3.7-12.8c2.1-3.4,3.5-2.7,5.8-1.4
		C81,521.6,83,526.2,82.6,532z M358,284.8c-12.6,0.7-21.6,2.9-26.6,13.7c-2.5,5.3-6.5,9.8-0.1,14.8c0.3,0.3,0.4,0.9,0.6,1.3
		c1.5,4.2,4.9,3.6,8.1,2.9c3-0.6,4.1-2.7,3.7-5.9c-0.5-3.7,0.9-6.4,4.5-8.7c3.3-2,7-2,10-3.8c4.5-2.8,8.6-2,12.9,0.1
		c3.6,1.8,6.8,4,9.7,6.7c9.8,8.9,20.3,16.6,32.3,22.2c1.2,0.5,2.3,1.6,3.6,0.6c1.5-1.1,1.3-2.8,0.9-4.3c-0.4-1.2-1-2.5-1.9-3.4
		c-8-8-15.9-16.3-25.1-22.9C380.2,290.9,368.3,287.2,358,284.8z M53.9,534.2c0.5-8.5,0.1-9.1-6.8-8.1c-9.7,1.4-17.8,6.1-21.5,15.2
		c-4.5,11.1-9.5,22.2-10,34.5c-0.3,8,1.1,15.5,6.3,22.7c0.6-3.5,0.9-6.3,1.7-9c1.2-4,2.7-8.7,7.7-8.7c4.9,0,6.5,4.5,7.9,8.5
		c2.1,6.1,2.9,12.4,3.1,19.3c4.6-4.1,7.1-8,5.8-13.9c-1.9-8.2-3.4-16.6-3.1-25.1c0.2-5-0.3-9.9-3.9-13.7c-1.5-1.5-0.5-3.7-2.6-5.1
		c-5.4-3.6-5-10.9-0.3-15.3c4.1-3.8,10.3-2.2,13.9-6.3c0.4,0.4,0.7,0.5,0.7,0.7C53.2,531.1,53.4,532.2,53.9,534.2z M330.5,439.5
		c-19.9-2.4-39.8-3.1-59.3,2.3c-15.4,4.3-22.2,20.8-15.5,34.7c3,6.1,9.7,9.9,15.3,8.4c-3.5-2.1-7.4-3.1-10.4-5.9
		c-3.2-2.9-3.3-6.8-3.7-11c1.3,0.8,2.2,1.4,3.1,1.9c5.1,2.5,9.9,2.1,12.2-1.7c4.6-7.8,11.9-9.2,19.8-8.6c6,0.5,10.5-0.9,13.5-6
		c-5.6-3.9-11.3-7.8-17.6-12.1C302.7,438.5,316.6,439.6,330.5,439.5z M563.2,611c10.4-11.2,13-24.4,9.9-39.1
		c-0.4,0.7-0.7,1.3-1.3,2.3c-0.5-1.8-0.7-3.2-1.3-4.5c-0.6-1.3,0.2-3.3-2.3-3.7c-2.8-0.4-0.1,2.9-2.6,2.8c-0.4-4.2-3.9-5.9-7-8.2
		c-3.3-2.5-4.8-2.3-6.5,1.6c-1.1,2.4-1.3,5.9-3.9,7.2c-2.7,1.3-3.9,3-4,5.8c-0.2,9.4,0.1,18.9-1.5,28.2c-0.2,0.9-0.6,1.9,0.7,2.4
		c3.2,1.2,6.3,2.4,9.7,3.7c0.7-4.9,1.2-9.5,3.6-13.6c1.1-1.9,2.8-3.3,5.2-3.3c2.3,0.1,3.1,1.9,4,3.6
		C569.3,601.9,566.2,606.4,563.2,611z M435.9,603.6c-1.6-5.7-3.2-11.3-2.5-16.8c1.1-8.4-1.7-16.1-4-23.6c-1.9-6-3.1-10.9,2.5-15.2
		c0.1-0.1-0.1-0.4-0.2-0.6c-5-0.3-8.9,2-11.5,7.7c-4.8,10.2-7.5,21-9,32.2c-1,7.1-1.2,14,0.9,20.8c0.7,2.3,1.9,4,4.8,3.8
		c-4.9-11.2-5.5-14.4-3.2-18.4c-0.7,7.9,0.7,12.7,4.6,15.8c-2-5.7,0.2-10.4,3.1-14.9c1.4,0.4,1.4,1.6,1.9,2.6c1.4,2.5,0.3,6.8,3,7.7
		C429,605.6,432.4,604.2,435.9,603.6z M165.7,505.7c-0.3-0.2-0.6-0.3-1-0.5c5.3-10.8,10.6-21.6,15.9-32.3
		c-8.7,12.2-15.7,25.4-22.4,38.6c-0.4,0.8-1.2,1.9-0.3,2.6c3.4,2.3,4.9,6.3,7.9,9.6c2.7-6.5,6.7-11.7,10.1-17.3c0.6-1,1-2.9,2.7-2.2
		c1.3,0.6,1.2,2.4,0.9,3.6c-1.1,3.9-2.3,7.8-3.8,11.6c-1.4,3.6-1.5,7.4-1.7,11.3c2.9-9.3,6.9-18.1,10.6-27c0.2-0.6,0.1-1.5-0.1-2.1
		c-2.6-5.5-4.8-11-3.9-17.7c-4.1,3.1-6.6,6.7-8.7,10.4C169.7,498,167.7,501.8,165.7,505.7z M409.8,371.7c1.3,6.5,1.7,13-0.8,19.3
		c-2.7,6.8-7.8,10.7-15,11.6c-6.2,0.9-11.5-1.2-16.1-5.4c-4.4-4.1-6.8-9.3-7.8-16.2c-1.9,6.4-3.6,11.8-6.3,17.2
		c5.1,0,8.7,1.9,12.2,4.3c2.6,1.7,5.2,3.3,8.2,4.2c9.9,3.1,21.8-0.8,27.4-9C417.5,389.1,417,379.9,409.8,371.7z M228.4,564.7
		c1.2,1.9,2.1,3.5,3.2,5.2c-0.8-0.1-1.4-0.2-2.2-0.3c0.2,2.5,3.6,4.9,2.4,6c-2.4,2.3-0.3,3.6,0.1,5.2c0.4,1.7,1.6,3,1.9,4.9
		c0.9,7.7,1.6,15.4,5.2,22.4c0.9,1.8,2,3.6,4,3.7c5.9,0.3,11.7,0.1,18,0.1c-1.8-2.9-3.5-4.9-6.4-6.1c-5.9-2.4-10.1-6.5-12.6-12.4
		c-3-7.1-4.8-14.4-5.9-22C235.3,567.4,233.4,564.8,228.4,564.7z M244.3,386.7c-6.1,15.1-13.8,21.2-23.8,19.3
		c-11.6-2.2-17.6-11.5-17.8-28.2c-1.6,2.2-2.5,4.3-2.6,6.7c-0.6,10.6,4,18.8,12.5,24.6c8.2,5.6,16.4,3,24.1-1.7
		c3.8-2.3,7.1-5.7,12.4-5.8C247.4,396.6,246,391.9,244.3,386.7z M184,402.5c3.4,9.1,4.2,19,11.3,26.6c4.5,4.8,8.8,6.6,15.1,4.1
		c-0.3-0.6-1.1-1.4-0.9-1.8c1.5-4-1.2-5.4-3.9-7c-0.4-0.2-0.8-0.6-0.9-1.1c-3.6-7.9-11-12.6-16.2-19.1
		C187.5,403.1,186.3,402,184,402.5z M142.5,612.6c3.4-0.9,3.5-3.3,3.4-5.5c-0.3-8.2-0.5-16.4-1.2-24.6c-0.2-2.7,0.4-7.6-1.9-7.5
		c-3.6,0.1-4.1,4.8-4.4,8C137.4,593,140.2,602.5,142.5,612.6z M60.1,622c1.2-2.3,1.1-4.3,0.5-6.5c-1.4-5.5-2-11.1-1.6-16.7
		c0.4-5.8,0.3-12,6.5-15.6c-3.3-2.4-4.9,0.2-6,2.2c-5.6,9.9-7.3,20.3-3.5,31.3C56.8,618.8,57.7,620.8,60.1,622z M492.1,648.9
		c1.3-1.2,1.1-2.5,1.2-3.6c0.3-5.4,0.3-10.7,0.8-16c0.5-5,0.3-10.3,4.1-14.4c0.7-0.8,0.3-1.6-0.4-2.1c-1-0.7-2-0.8-3-0.1
		c-1.7,1.2-2.6,3.1-3.3,5c-2.6,7.7-3.3,15.6-2.2,23.6C489.6,643.9,489.8,646.7,492.1,648.9z M515.2,635.8c2.5-1.1,3-3.2,3.7-5
		c2.1-5.3,3.9-10.7,5.8-16.1c0.4-1.2,0.7-2.6,2-3.2c1.3-0.6,2.8-1.1,2.4-3c-0.2-1.1-0.8-2.1-1.9-2.4c-1.8-0.5-2.9,0.8-3.9,2
		c-4,5.3-5.9,11.4-7.2,17.7C515.4,628.9,513.9,632.1,515.2,635.8z M388.1,371.6c-0.3-2.5-1.8-5-5.7-5c-3.5,0.1-5.2,2.2-5.1,5.6
		c0.1,3.4,2,5.9,5.5,5.8C385.8,377.9,388.4,376.3,388.1,371.6z M208.4,376.4c0.2,1.8,1.3,4.3,5,4.3c3.2-0.1,4.9-2,4.9-5
		c0-3.2-1.7-5.7-5.1-5.8C210.1,369.7,208.2,371.7,208.4,376.4z M282.5,498.3c1.7-4.8,6.9-6.5,8.7-11.2c2.2-5.7,2.1-9.7-1.1-13.1
		c-0.1,0.1-0.2,0.2-0.2,0.3c-0.1,0.3-0.2,0.7-0.1,1.1c1.1,7.1-0.6,12.8-7.3,16.7C280.3,493.3,279.3,496,282.5,498.3z M555.3,611
		c4.7-2.8,7.1-11,5.2-17.1C555.5,598.6,556.2,604.7,555.3,611z M377.8,407.2c5.6,6.8,24,6.2,29.3-0.7
		C397.4,411,387.9,411,377.8,407.2z M237.1,383.5c-2.7,7.1-8,11.2-16.3,13.1C229.1,398.9,237.2,391.8,237.1,383.5z M239.1,409.9
		c-7.1,3.6-14.5,5.4-22.5,4.6C223.6,418,235.5,415.6,239.1,409.9z M455.3,468.6c5,9.6,10.3,19.1,14.9,28.9
		C467,487,461.4,477.7,455.3,468.6z M250,580.3c0.2,5,0.5,8.9,4.1,12.5C254.9,587.9,254.2,584.1,250,580.3z M388.1,393.9
		c5.5,2.2,11.7,0,14-5.2C397.6,392.3,393.1,393.8,388.1,393.9z"/>
	<path d="M97.2,253.5c-2.6,1.9-5.8,2.2-8.8,2.6c-5.8,0.8-11.4,2-17,3.8c6-4.6,13.3-4.1,20.2-5.5C93.5,254.1,95.4,253.8,97.2,253.5z"
		/>
	<path d="M178.7,353.9c4.2-18.1,17.1-30,30.6-41.6C196.6,324.4,187.3,338.9,178.7,353.9z"/>
	<path d="M248.2,515.9c-2,1.6-3.8,3.3-6,1c-1.1-1.1-1.1-2.7,0.4-3.7C245.9,511.1,246.4,514.5,248.2,515.9z"/>
	<path d="M126.3,521.3c-1.6,7.4-1.6,15.4,0.9,23.4c2,6.4,3.4,12.9,1.1,20.3c-0.1-1.8-0.2-3-0.2-4.1c-0.1,0-0.3,0-0.4-0.1
		c-0.1,0.8-0.3,1.7-0.6,3.5c-0.3-2.3-0.5-3.6-0.7-5.6c-0.6,1.4-0.9,2.3-1.1,2.9c-2.4-4.1-4.3-8.5-6.7-12.8
		c-2.7-4.7-7.5-8.6-7.7-14.8c0-0.9-0.3-2-0.1-2.8c1.8-5.4-1.5-6.8-5.7-7.5c-2.4-0.4-4.4-1-4-3.9c0.5-3.4-1.4-8.1,4.2-9.3
		c2.9-0.6,5.6-1.5,8,1.6C116.5,516.6,121.8,518,126.3,521.3z"/>
</g>
</svg>
