<?xml version="1.0" encoding="utf-8"?>
<!-- Generator: Adobe Illustrator 24.2.3, SVG Export Plug-In . SVG Version: 6.00 Build 0)  -->
<svg version="1.1" id="Layer_1" xmlns="http://www.w3.org/2000/svg" xmlns:xlink="http://www.w3.org/1999/xlink" x="0px" y="0px"
	 viewBox="0 0 595.3 841.9" style="enable-background:new 0 0 595.3 841.9; fill: #215342;" xml:space="preserve"
	 height="400" width="500" transform="translate(-90, -60)">
<g>
	<path d="M520.6,337c10.7,2.2,19.7,7.6,27.7,14.9c4.7,4.3,8.6,9.2,12.7,14.1c4.4,5.2,9,10.2,14.2,14.6c0.6,0.5,1.3,1,2,1.5
		c-1.8-2.4-3.7-4.4-5.7-6.6c-7.7-8.5-14.8-17.5-21.8-26.5c-4.8-6.2-10.3-11.6-17.3-15.3c-0.3-0.1-0.5-0.4-0.8-0.6
		c0.3-0.1,0.4-0.2,0.6-0.1c0.4,0.1,0.8,0.2,1.1,0.4c5.8,2.1,10.9,5.2,15.6,9.2c5,4.4,9.2,9.6,12.8,15.1c0.4,0.6,0.7,1.3,1.8,2.1
		c-3.5-9.3-8.5-16.8-16.2-22.4c-11.5-8.4-24.3-12-38.6-9.5c2.4-1.4,5.1-1.9,7.8-2.2c6.2-0.7,12.1,0.3,17.9,2.2
		c0.7,0.2,1.5,0.7,2.3,0.4c-5.1-3.1-11-4.1-16.4-6.2c5.2-0.8,10.1,0.3,15.4,1.7c-1.3-1.9-2.7-3-4.4-3.7c-1.7-0.7-3.5-0.7-5.3-1
		c3-0.6,5.9-0.2,8.7,1c7,2.9,14.1,5.8,20.3,10.1c0.7,0.5,1.6,0.9,2.6,1.5c-0.3-1-0.9-1.5-1.4-2c-3-3.3-6.5-6-10.6-7.7
		c-3.8-1.5-6.7-4-9.2-7.1c-0.9-1.1-1.9-2.2-2.9-3.2c-1.5-1.6-3.1-3-5.1-4c-4.9-2.6-10.1-4-15.7-3.7c-0.7,0-1.5,0.2-2.5-0.1
		c1.8-1.1,3.9-0.6,5.6-1.5c-1.5-0.8-2.9-0.7-4.4-0.7c-1.4,0-2.7,0.7-4.6,0.4c4.3-2.2,8.7-2.4,13.4-2.5c-3-3.3-6.5-3-10.1-2.9
		c2.4-0.7,4.8-0.9,7.3-0.6c4.1,0.5,7.8,2.1,11.3,4.4c3.5,2.4,6.5,5.4,9.4,8.6c0.5,0.6,0.8,1.3,1.9,1.7c-0.6-1.7-1.2-3.3-1.7-4.9
		c2.8,2.5,5.2,5.2,7.6,7.8c2.3,2.6,4.7,5.2,7.4,8.2c-0.1-0.8-0.1-0.9-0.2-1.1c-5-11.5-12.5-20.8-23.3-27.2c-8.4-5-17.5-7.7-27-9.3
		c-1.4-0.2-2.8-0.5-4.3-0.7c0.1-0.7,0.9-0.4,0.8-1.1c-1.5-0.6-3.1-0.5-4.7-1c1.3-0.6,2.6-0.4,4-0.3c1.4,0.1,2.7,0.2,4.1,0.3
		c1.4,0.2,2.8,0.5,4.3,0.7c1.2,0.1,2.4,0.8,4.2,0.6c-3.6-2.7-7.4-3.3-11.3-4.5c1-0.3,1.8-0.1,2.6,0.1c4.9,0.9,9.5,2.6,14,4.8
		c5,2.4,9.6,5.4,14.3,8.3c0.6,0.4,1.2,1,2.3,0.8c-6.2-5.1-12.3-10-19.4-13.2c-13.8-6.3-28.1-7.8-42.7-2.7c-0.3,0.1-0.7,0.4-1.1-0.2
		c4.1-2.2,8.4-3.6,12.8-4.5c4.4-0.9,8.9-0.9,13.3-1.5c-5.2-0.9-10.3-0.9-15.5-0.3c-9.4,1.2-16.9,6.1-24.7,11.8
		c0.2-0.7,0.3-0.8,0.3-0.9c6.3-5.8,12.9-11.2,20.6-15.1c5.5-2.8,11.3-4.4,17.5-4.4c6.7,0,12.9,1.9,18.8,5c0.7,0.4,1.4,0.9,2.3,0.7
		c-0.3-0.5-0.7-0.7-1-1c-3.5-3.1-7.6-5.3-11.9-7.1c-5.3-2.1-10.9-3.8-16.3-5.5c-1.4-0.4-2.8-0.7-4.2-0.8c-7.3-0.8-14.1,1-20.6,4.2
		c-2.4,1.1-4.7,2.3-7.1,3.4c-7,3.1-14.3,4.5-22,4c-2.2-0.1-4.3-0.4-6.3-1.4c2-0.7,4.2-0.4,6.1-1.7c-6.2,0.2-12.1-0.5-17.4-4.9
		c1.6-0.1,2.7-0.2,3.8-0.3c-2.7-0.5-5.5-0.4-8.3-2.1c3.6-0.1,6.8,0.3,9.7-1.3c-6.5-0.8-13-1.4-19.5-3.9c2.1-1.2,4.3-0.5,6.4-1.9
		c-2.4-0.3-4.6,0.1-6.9-1.3c2.7-0.3,4.8-0.5,6.9-0.8c3.5-0.5,6.9-1.2,10.1-2.8c1.2-0.6,2.4-1.3,3-2.6c-0.8,0.2-1.6,0.5-2.3,0.8
		c-6,2.6-12.3,4.1-18.9,3.6c-1.3-0.1-2.6-0.3-3.7-1.1c4.8-0.2,9.5-0.7,14.3-2.6c-1.4-0.9-2.6-0.7-3.8-0.7c-1.2,0-2.5,0.1-3.7,0.2
		c0-0.2,0-0.3-0.1-0.5c2.5-0.4,5.2,0,8-1.6c-1.3,0.1-2.1,0.2-2.9,0.2c-3,0.2-6.1,0.3-9.1-0.3c-0.3-0.1-1.1,0-0.8-0.5
		c0.5-0.8,0.3-0.8-0.4-1.1c-3.9-1.3-7.4-3.3-10.9-5.5c-4.5-2.9-8.9-5.9-13.7-8.3c-0.2-0.1-0.2-0.2-0.1-0.3c1-0.5,1-0.5,0.6-0.9
		c-1-0.9-2.4-1.1-3.8-2.2c3.9,0,7,1.7,10.4,2.5c-0.2-0.4-0.2-0.6-0.3-0.7c-0.3-0.4-0.7-0.7-1-1c-3-2.8-6.7-4.7-10.6-6
		c-3.5-1.2-7-2.2-10.5-3.3c-0.5-0.2-1.1-0.1-1.3-0.9c5.3-0.6,10.3,0.5,15.4,2.4c-0.3-0.9-0.9-1.1-1.3-1.4c-2.5-1.5-5.1-2.5-8-3.1
		c-5.1-1-10.2-1-15.3-0.7c-1,0.1-2,0.1-3.1,0.1c0.2-0.4,0.2-0.6,0.3-0.6c0.4-0.2,0.9-0.4,1.3-0.6c6.9-3,13.9-2.4,20.8,0.1
		c1,0.4,2,0.8,3.2,1.2c-0.5-0.9-1.1-1.2-1.6-1.5c-4.3-2.7-9-4-14.1-4.2c-5.3-0.2-10.5,0.9-15.6,2.1c-0.5,0.1-0.9,0.3-1.8,0
		c2.4-1.1,4.4-2.1,6.4-3.1c-0.1-0.2-0.1-0.4-0.2-0.6c-6.4,1.7-12.8,3.3-19.8,5.1c2.8-2.9,6-4,8.9-5.6c-4.6,0.5-8.4,3.2-13,4.4
		c0.4-1.9,2-2.7,3-4.3c-2.6,0.9-4.4,2.4-6.2,3.8c-1.5,1.3-3.1,2.6-4.7,3.8c-1.2,0.9-2.5,1.7-4.4,2c1.7-2.5,3.2-4.6,4.6-6.7
		c-0.1-0.1-0.3-0.2-0.4-0.3c-4.3,3.4-6.4,8.7-10.2,13.2c-0.7-6,0.1-11.1,3.5-15.7c-3.9,2.9-5,7.4-6.1,11.8c-1.7-1.3-1-3.4-2.1-4.9
		c-1.4,2.2-0.1,4.6-0.5,7c-1.7-1.2-3.1-2.2-4.6-3.1c-5.4-2.9-11.1-3.2-17-1.5c-0.4,0.1-1.3,0.1-1,0.7c0.7,1.3-0.2,1-0.8,1.1
		c-3.6,0.2-6.9-1-10.1-2.6c-0.7-0.3-1.2-0.9-2.2-0.9c0.7,1.5,1.9,2.4,2.5,4c-5-1.3-9.8-2.6-15.1-4c1.5,1.5,3.4,1.5,4.3,3.3
		c-3.7-0.7-6.8-2.4-10.3-4.1c0.9,1.6,2.3,2.3,2.8,3.7c-1,0.2-1.8,0-2.5-0.2c-2.6-0.6-5.1-1.4-7.7-1.9c-2.8-0.5-5.5-0.4-8,1.2
		c3.5-0.1,7-1,10.3,1.3c-0.7,0.7-1.5,0.5-2.2,0.6c-1.4,0.2-2.9,0.3-4.3,0.5c-0.3,0-0.9,0-0.7,0.3c1.2,1.8-0.8,1.3-1.2,1.4
		c-5.1,1.9-10.2,3.7-15.3,5.5c-0.7,0.3-1.5,0.3-2.2,1.2c1.6,0,2.9-0.4,4.2-0.6c1.3-0.2,2.6-0.7,4-0.4c-6.4,4.6-14,5.7-21.4,7.2
		c3.3,1.1,6.8,1.1,10.2,1.5c-8.6,2.7-17.3,3.8-26.6,2.1c1.2,1.4,2.8,1.6,3.9,2.9c-7.3-0.1-12.4-3.8-17.2-8.7
		c0.4,2.1,0.9,3.2,2.4,4.8c2.7,3.1,6.2,4.8,10,5.8c6.3,1.7,12.8,1.7,19.3,1.2c0.8-0.1,1.6-0.1,2.4-0.1c-1.8,1.4-3.7,2.1-5.7,2.7
		c-1.9,0.6-3.9,1.1-5.8,1.4c-2,0.4-4.1,0.6-6.2,0.7c-2,0.1-4-0.2-6.5,0.4c3.9,1.6,7.4,1.8,11,1.5c3.6-0.3,7.1-1.4,11-2
		c-0.9,1-1.7,1.4-2.4,1.8c-2.8,1.6-5.8,2.6-8.9,3.5c-0.2,0.1-0.2,0.2-0.2,0.3c0.5,0.6,1.4,0.1,1.9,0.9c-5.9,2.4-11.8,0.5-18.2,0
		c2.6,2.1,5.3,2.4,7.7,3.3c-2.5,0.4-5,0.2-7.4-0.1c-6.4-0.9-12.3-3.2-17.8-6.8c-3.6-2.3-7.3-4.3-11.5-5.2c-2.1-0.4-4.2-0.6-6.3,0
		c3.7,1,7.4,1.8,10.5,4.2c-0.4,0.3-0.7,0-1-0.1c-7.1-3.6-14.5-4.1-22.2-2.8c-3.7,0.6-7.3,1.8-10.4,4.1c-1,0.8-2,1.6-2.8,3.3
		c2.9-1.3,5.1-2.9,7.8-3.2c0,0.5-0.4,0.6-0.6,0.7c-5.9,2.9-10.1,7.5-13.5,13c-3,4.9-5.4,10.2-8.3,15.2c-0.1,0.1,0,0.3,0,0.6
		c1.9,0,3-1.3,3.7-2.5c1.4-2.5,3.7-2.9,6.1-3.4c-0.4,0.9-1.8,0.7-2.2,2.1c4.8-1.7,9.5-3,14.3-3.6c6-0.7,12.2-0.8,14.6,0.1
		c-0.8,0.2-1.5,0.4-2.2,0.6c-7,1.9-13.7,4.5-19.8,8.3c-5.8,3.5-10.9,7.9-14.9,13.4c-0.3,0.5-0.9,0.9-0.8,1.9
		c1.5-1.4,2.9-2.6,4.3-3.7c9-7.7,19-13.8,30.6-16.7c4.7-1.2,9.5-2,14.5-1.7c-0.4,0.5-0.8,0.4-1.2,0.4c-4.9,0.3-9.7,1.3-14.3,2.7
		c-14,4.3-25.9,12.1-36,22.5c-5.3,5.5-10.3,11.4-16.1,16.4c-0.1,0.1-0.1,0.3-0.1,0.6c1.8-1,3.2-2.2,4.6-3.5c3-2.8,6.1-5.6,9.3-8.3
		c7.3-6,15.1-11.3,24-14.9c8.1-3.3,16.5-5.5,25.4-5c3,0.2,6.1,0.6,9.5,1.8c-4,0.9-7.4,1.6-10.7,2.9c-4.4,1.8-7.6,3.5-9.2,5.4
		c3.7-1.8,7.1-3.4,10.7-4.7c5.7-2,8.3-2.4,11.3-1.7c-3.5,0.5-6.8,1.1-9.9,2.2c-6.4,2.3-12,5.9-17,10.6c-8.1,7.6-17.3,13.4-28,16.7
		c-0.5,0.2-1,0.4-1.6,0.6c0.6,0.3,1.1,0.2,1.5,0c4.8-1.2,9.5-2.9,13.9-5.2c6.2-3.3,11.8-7.4,17.1-11.9c3.2-2.7,6.8-4.8,10.9-5.9
		c0.8-0.2,1.5-0.5,2.7-0.1c-8.1,4.1-15.3,9.2-21.6,15.4c8.8-5,17.1-11,27.6-13.2c-0.8,1-1.5,1.3-2.2,1.7c-5.6,3.5-11.3,7-16.8,10.6
		c-5.7,3.7-11.8,6.8-18.1,9.3c-9.1,3.7-18.4,6.3-27.8,9c-4,1.1-7.9,2.6-11.4,5c-1.2,0.8-2.5,1.7-3.3,3.1c4.7-1.9,9.4-3.5,14.3-4.5
		c4.9-1,9.8-1.6,15-1.9c-1.7,0.7-3.2,0.9-4.8,1.3c-8.4,1.8-16.6,4-24.4,7.6c-4.2,2-8.2,4.4-11.5,7.7c-4.5,4.4-7.2,9.7-8.1,15.9
		c1.5-2,2.8-4,4.1-6.1c5-7.6,11.9-12.6,20.4-15.5c0.8-0.3,1.6-0.7,2.8-0.4c-15,8.1-25.1,20.4-32.7,35.1c0.8-0.3,1.2-1.1,1.7-1.8
		c3-4.1,6.1-8.2,9.3-12.2c6.7-8.3,15.2-14,25.3-17.5c7.7-2.7,15.7-4.2,23.8-5.6c2-0.4,4-1,6.3-0.9c-1.1,0.9-2.2,1.1-3.3,1.4
		c-4.8,1.4-9.6,2.3-14.5,3.4c-6.7,1.5-13.3,3.4-19.4,6.7c-13,6.9-21.7,17.7-27.7,30.8c0,0.1,0.1,0.2,0.2,0.3
		c7-9.7,15.3-18,19.3-19.3c-0.9,1.2-1.7,2.3-2.4,3.4c-0.7,1-1.4,2.1-2.3,3.3c1.8-0.1,2.9-1.2,4.5-1.1c-21.3,20.9-25.4,45.9-23.3,57
		c0.7-0.2,0.5-0.7,0.6-1.2c0.7-3.8,1.4-7.5,2.4-11.2c2.5-9.2,6.3-17.8,12.4-25.2c6.4-7.7,14.5-12.9,23.8-16.4
		c9.7-3.6,19.2-7.5,28-12.9c0.2-0.2,0.5-0.4,0.8,0.1c-2,2-4.4,3.4-6.9,4.8c-7.7,4.2-15.4,8.4-23.2,12.6c-4.6,2.5-8.5,6-11.8,10.1
		c-3.7,4.6-6.4,9.7-8.7,15.1c-0.1,0.3-0.3,0.6,0.2,0.8c1.2-1.7,2.5-3.5,3.9-5.5c0.1,1.3-0.4,2-0.7,2.8c-0.9,2.5-1.9,4.9-2.4,7.5
		c-0.5,2.3-0.3,3.9,0.6,5.9c4.5-17.2,15.1-28,32.5-31.8c-2.4,1.2-4.9,2.1-7.4,3.1c-2.9,1.2-5.6,2.7-7.8,5c-0.7,0.7-1.4,1.4-1.9,3
		c5.3-4.3,11.1-6.2,17.1-8.4c-0.4,0.5-0.4,0.6-0.6,0.7c-0.4,0.3-0.8,0.6-1.2,0.9c-3.6,2.4-6,5.9-8,9.7c-1.4,2.7-1.7,5.5-0.1,8.4
		c1.9-1.6,2.6-4.2,5.2-5.2c0.2,1.8,0,3.3-0.4,4.8c-0.6,2.1-1.2,4.1-1.8,6.2c-0.6,2.3-1.1,4.7-0.5,7.1c0.3,1.1-0.3,1.6-1.1,2.1
		c-5.7,3.4-11.3,7-17.6,9.3c-0.3,0.1-0.8,0.1-0.8,0.8c7.4,0,13.4-4.2,20-6.6c-1.8,1.9-3.6,3.6-5.5,5.4c-2.3,2.1-4.7,4.1-7.5,5.6
		c-3.8,2.1-7.8,3.1-12.2,2.6c-0.5-0.1-0.9-0.4-1.4,0.1c1.9,0.7,5.2,0.9,7.8,0.3c5.2-1,9.4-3.9,13.3-7.3c6.1-5.4,12.3-10.7,18.5-16.1
		c0.4-0.3,0.6-1,1.4-0.7c-1.3,2.8-3.1,5.2-4.7,7.8c-2.8,4.4-3.5,6-3.4,8.2c2-2.5,3.9-4.9,5.8-7.2c4.7-5.9,9.3-11.8,13.4-18.1
		c5.2-8.1,9.1-16.7,11-26.1c0.1-0.6,0.4-1.3,0-2.3c-3.2,5.4-5.6,11-9.4,15.6c1.5-4.1,12.3-24.4,13.3-25.4
		c-0.4,5.5-2.1,14.7-3.9,20.4c-1.4,4.6-3.4,9-5.8,13.1c-9,15.3-16.9,31.2-25.1,46.9c-2.8,5.4-6.2,10.4-10.3,15
		c-6.1,6.9-13.2,12.6-20.8,17.6c-0.8,0.5-1.7,0.9-2.2,1.8c7-3.4,13-8.1,18.8-13.3c5.8-5.3,11.2-11,16.2-17c4.9-5.8,9.4-12,13.9-18.8
		c0.1,1.2-0.3,1.6-0.5,2.1c-1.9,3.7-4,7.3-6.4,10.7c-7.6,11-16.6,20.7-26.7,29.4c-5.5,4.8-11.1,9.5-16.6,14.2
		c-0.4,0.4-0.9,0.7-1.3,1.7c18.4-11.8,34.7-25.2,47-43c0.1,0.4,0.2,0.6,0.1,0.7c-0.3,0.6-0.7,1.3-1.1,1.9
		c-6.5,10.8-14.6,20.2-24.3,28.3c-11.9,10-25.2,17.4-39.5,23.4c-0.8,0.4-1.8,0.5-2.6,1.4c9.6-2.3,24.6-11.7,36.7-19.5
		c-1,1-2,2.1-3,3.2c-4.4,5.4-7.5,11.3-7.1,18.5c0.4,6.7,2.7,12.6,7.7,17.2c1.5,1.4,3,2.8,4.2,4.5c2,2.6,4.6,4.3,8.1,3.9
		c0.5-0.1,0.7,0.3,0.9,0.6c3.2,5.1,8,8.3,13.3,10.7c1.4,0.6,2.9,0.9,4.4,0.9c1.5,0,1.6-0.3,1-1.6c-0.9-1.7-1.9-3.4-2.7-5.4
		c2.4,1.7,4.9,2.4,7.6,2.5c0.7,0,0.7,0.5,1,0.9c1.7,3.4,4.2,6.1,7.3,8.3c0.5,0.4,0.9,0.8,1.1,1.3c1.5,3.1,3.8,5.7,6.2,8.2
		c1.4,1.5,2.6,1.6,4.4,0.6c1.1-0.7,2.2-1.4,3-2.6c1.2-1.9,2.5-3.7,3.7-5.6c0.3-0.4,0.6-0.8,1-1.1c2.4-1.4,4.7-3.2,7-4.9
		c0.7-0.5,1.4-1.1,1.8-1.9c0.3-0.7,0.6-0.8,1.2-0.2c1.9,1.8,4.3,2.9,6.9,2.8c1.9-0.1,3,0.5,4.2,2c1.7,2.4,3.8,2.2,5.5-0.3
		c1.3-1.9,2.3-4,3.1-6.2c0.2-0.7,0.6-1.3,1.1-1.8c2.9-3,5-6.5,5.5-10.7c0.2-2.2,0.9-3.5,2.8-4.6c1.5-0.8,1.5-1,2.8,0.3
		c1.3,1.2,2.2,1,3-0.6c0,0,0,0,0,0c3.7,1.3,7.3,2.5,11,3.8c2,0.6,4,1.1,5.9,1.7c0.2,1-0.3,1.7-0.6,2.4c-2.9,7-5.4,14.2-6.4,21.8
		c-0.2,1.8-1.3,2.3-2.8,2.8c-22.5,6.1-37.9,20.5-47.8,41.1c-0.2,0.5-0.7,1-0.3,1.9c5.7-10,12.2-19,20.8-26.4
		c8.6-7.4,18.3-12.6,29.4-15.8c0.2,2.8-0.6,5.2-0.5,7.6c0.1,2.6-1.1,3.9-3.5,4.7c-5.8,2.1-11.3,4.9-16.4,8.4
		c-18.6,12.9-28.7,31.3-33.8,52.9c-0.2,0.8-0.3,1.6,0.1,2.7c0.2-0.5,0.3-0.7,0.3-1c3-13.8,8.9-26.3,17.7-37.4
		c8.3-10.4,18.3-18.8,30.7-23.9c5.2-2.1,4.6-3,5,3.5c0.1,1.5-0.5,2.6-1.8,3.4c-0.8,0.5-1.6,0.8-2.1,1.8c0.8,0.1,1.2-0.4,1.6-0.6
		c0.6-0.3,1.1-0.7,1.7-1c0.4-0.2,0.8-0.1,1.1,0.2c0.2,0.3,0,0.6-0.2,0.8c-0.8,0.9-1.5,1.8-2.3,2.8c-9,11.3-15.1,23.9-16.6,38.4
		c-0.5,4.6-0.5,9.1,0.7,13.6c0.3,1.1,0.6,2.3,1.6,3.4c-0.2-2.4-0.6-4.3-0.6-6.3c-0.2-13.8,3.3-26.7,9.8-38.8c1.3-2.5,3-4.8,4.9-6.8
		c0.8-0.9,1.6-1.8,2.7-2.3c1.8,3.5,2.8,8.7,2.4,13c1,0,0.8-1.6,1.9-1.5c3.6,7.3,3.6,7.3,9.4,13.5c1.4,1.5,2.4,3.1,2.2,5.4
		c0.9-1.3,1.6-1.3,2.4-0.2c0.3,0.5,0.7,0.8,1.1,1.3c2.7,3.3,4.8,7,6.9,10.7c2,3.6,4.3,6.9,7,10c5.5,6.3,12.2,10.9,20.3,12.9
		c5.7,1.4,11.6,2.3,17.5,2.4c7.6,0.1,13.9-2.5,18.4-8.9c0.2-0.3,0.4-0.7,0.9-0.6c2.4,5.5,5,7.7,10.8,9.2c2.6,0.7,5.1,1.2,7.8,1.4
		c13.3,1.2,25.6-1.5,36.8-8.9c4.6-3,9.2-6.1,13.8-9.2c9.7-6.5,17.2-15,22.2-25.6c0.5-1,0.9-2,1.9-2.9c12.8,13.3,22.1,28.2,24.3,46.9
		c0.3-1.5,0.3-2.9,0.1-4.3c-0.5-3.2-1.1-6.4-2.1-9.6c-3.5-12.2-10.2-22.5-18.9-31.6c-3.5-2.1-3.3-4.9-1.8-8.2c1-2.3,1.4-4.9,2.6-7.3
		c1.7,1,3,2.1,4.3,3.3c4.7,4.3,8.4,9.4,11.7,14.8c4.3,7.1,7.6,14.6,10.6,22.3c0.2,0.6,0.3,1.3,0.9,1.8c0.3-0.4,0.2-0.7,0.1-1
		c-0.4-1.4-0.7-2.8-1.2-4.1c-4.7-14.1-12-26.6-23.5-36.4c-0.5-0.4-0.9-0.9-1.3-1.4c-0.8-0.9-1.1-1.9-0.9-3.1
		c0.2-1.1,0.5-2.3,1.3-3.5c6.2,6.1,11.3,12.8,15.7,20.1c4.4,7.3,7.6,15,10.4,23.3c0.6-0.9,0.3-1.5,0.1-2.1
		c-1.9-8.3-5.1-16.1-9.4-23.5c-4.1-6.9-9.3-13-15.1-18.5c-2.1-2-2.1-2.7-0.2-5c5.4,3.5,10.4,7.6,15.1,12.1
		c4.6,4.5,8.7,9.3,12.4,14.6c3.7,5.4,6.7,11.1,9.2,17.1c2.5,5.9,4.1,12,5.8,18.2c0.2-0.3,0.2-0.5,0.2-0.8c-2.8-14.6-8.1-28-17.1-40
		c-6.4-8.4-14.1-15.5-23-21.2c-2.3-1.5-3.1-3.2-2.7-6c1.3-8.5,1.3-17-0.1-25.5c-0.9-5.2-2.4-10.3-3.7-15.4c-0.4-1.5-1-3-1-4.7
		c4,0.1,7.9,0.5,11.8,1.1c-0.8,0.5-1.6,0.8-2.4,1.1c-1.5,0.6-3,1.1-4.4,1.8c-1.7,0.8-2.2,2.2-1.8,4c0.3,1.4,0.9,1.8,3.2,1.8
		c5.8,0,11.7,0,17.5,0c0.4,0,0.9,0.2,1.4-0.5c-1.6-0.9-3.4-1.4-5.1-1.9c-1.7-0.5-3.6-0.6-5.1-1.8h14.2c-1.5-1.6-3-2.4-4.5-2.9
		c-1.7-0.6-3.5-1-5.3-1.6c-0.9-0.3-1.7-0.6-1.5-1.8c0.1-1.1,0.8-1.8,1.9-1.9c0.8-0.1,1.6,0,2.4,0.2c2.9,0.5,5.7,1.2,8.5,1.9
		c0.6,0.9,1.1,1,2,0.5c2,0.5,4,1,6,1.5c0,0.1,0,0.2,0.1,0.4c0.2,5.1,2.5,9.2,5.9,12.8c0.4,0.5,0.7,1,0.9,1.5c0.9,2.5,1.9,4.9,3.6,7
		c1.4,1.6,2.7,1.7,4.4,0.3c0.7-0.6,1.3-1.4,1.8-2.2c0.2-0.3,0.3-0.6,0.8-0.5c3.6,0.4,6.7-0.5,9.4-3c0.3-0.2,0.4-0.3,0.6,0.1
		c0.8,1.6,2.2,2.5,3.6,3.4c4.1,2.5,7.5,5.6,9.8,9.9c0.7,1.4,1.9,2.3,3.3,3.1c1.8,1,3.1,0.9,4.5-0.6c2.4-2.5,4.7-5,6.2-8.2
		c0.2-0.5,0.5-0.9,1-1.2c3.2-2.2,5.7-5.1,7.5-8.6c0.3-0.5,0.6-0.7,1.2-0.8c2.5-0.2,4.9-0.8,7.3-2.2c-0.9,1.8-1.8,3.6-2.7,5.4
		c-0.5,1-0.3,1.3,0.8,1.4c1.6,0.1,3.2-0.2,4.7-0.8c5.4-2.4,10.2-5.5,13.3-10.7c0.3-0.5,0.6-0.7,1.2-0.7c2,0.2,3.9-0.4,5.5-1.6
		c1.5-1.1,2.7-2.5,3.6-4.1c0.3-0.4,0.6-0.8,1-1.1c2.8-2,5-4.6,6.6-7.6c5.2,0.3,17.7,0.3,20.2,0.8c-0.3-1.1-1.7-0.8-2.1-1.9
		c12.8-0.7,25.5-1.4,38.7-2.1c-1.3-0.9-2.3-1-3.2-1.3c-14.5-4.7-27.4-11.9-38-23c-6.4-6.7-11.6-14.3-14.4-23.2
		c-0.2-0.7-0.6-1.4-0.4-2.6c0.6,0.9,1.1,1.6,1.6,2.3c5,7.8,10.3,15.2,16.7,21.9c8.6,9,18.6,15.8,30.6,19.4c0.5,0.1,0.9,0.5,1.4,0
		c-0.5-0.2-1-0.4-1.6-0.6c-6.6-2.5-12.9-5.6-18.6-9.7c-13.9-10-22.3-23.7-26.9-40c-0.1-0.2-0.2-0.5-0.2-0.7c-0.1-1,0.4-1.5,1.3-1.8
		c0.8-0.2,1.2,0.4,1.4,1c0.4,1,1,1.8,1.6,2.7c5.7,7.9,13.7,12.2,23,14.4c0.2,0,0.5,0.1,0.5-0.4c-1.2-0.9-2.5-1.8-3.7-2.8
		c-1.2-0.9-2.4-1.9-3.5-2.9c-1.1-1-2.3-2-3-3.3c4.3,2.8,8,6.5,12.9,8.3c-0.5-0.7-1.1-1.2-1.7-1.7c-12.8-10.9-24.5-22.9-34.6-36.5
		c-1-1.3-2-2.5-3.2-3.6c-2.6-2.3-5.5-3.7-9-4.3c-0.9-0.1-1.3,0.2-1.6,1c-1.2-1.8-2.9-2.8-4.7-3.8c-1.3-0.8-2.6-1.5-3.9-2.4
		c-0.7-0.5-1.5-1.1-2.1-2.5c4.7,3.1,9.3,5.3,14.2,6.8c4.8,1.5,9.7,2.7,15.2,3.1c-1-1.7-1.8-3.1-2.8-4.9c1.9,0.7,3.1,1.5,4.2,2.6
		c1.1,1.2,1.5,2.5,1,4.1c1,0.1,1.7,0.2,2.3-0.2c-0.9-1.8-0.5-2.6,1.3-2.8c0.6,0,1.3,0.1,1.9,0.1c0.4,0,1,0.2,1.1-0.5
		c-0.1-0.1-0.1-0.2-0.1-0.2c-0.5-0.4-1-0.3-1.6-0.4c-1.6-0.4-1.7-0.4-1.5-2.1c0.2-2,0.1-4,0-6c-0.1-0.8-0.3-1.7,0-2.5
		c1-0.2,1.9,0.8,3.2,0.5c-4.5-3.6-5.9-8.9-8.5-13.4c9.3,7.1,15.7,16.3,19.6,27.3c3.1,8.9,5.5,22.5,4.4,26.2
		c-1.3-0.6-2.2-1.6-3.2-2.5c-1.1-1-2.2-2.2-3.6-2.8c-1.5-0.8-2.7-1.9-3.9-3.2c-2.9-3.2-5.4-6.7-7.9-10.2c-1.3-1.9-2.7-3.8-4.2-5.6
		c-2.4-2.8-5.5-3.5-9.4-2.6c14.5,17.8,29.3,34.8,48.8,46.9c-0.7-1.6-1.9-2.7-3.1-3.8c-4.5-4.2-9.1-8.3-13.6-12.5
		c-1.1-1.1-2.4-2.1-3.1-3.6c-0.7-0.2-0.9-0.7-1.3-1.4c0.9,0.2,1.2,0.7,1.4,1.4c2.1,1.4,3.8,3.3,5.8,4.9c4.4,3.5,8.7,7,13.1,10.5
		c0.5,0.4,0.9,0.7,1.4,1.1c-0.3-0.9-0.8-1.5-1.3-2c-3.1-3.3-6.5-6.4-10-9.3c-2.3-1.9-3.8-4.2-4.3-7.2c-0.4-2.9-0.8-5.7-0.8-8.6
		c-0.2-8.6-2-16.8-5.5-24.6c-0.3-0.6-0.9-1.2-0.5-2.2c2.7,4.7,4.2,9.8,5.8,14.8c0.3-3.3-0.2-6.4-0.8-9.6c-0.5-3-1.6-6-2.2-9
		c4.1,7.2,6.1,14.9,6.1,23.2c0.6-0.6,0.7-1.3,0.8-1.9c0.7-4.4,0.7-8.8-0.2-13.1c-1.2-6.1-3.6-11.7-6.5-17.2c-0.3-0.6-1-1.2-0.7-2.1
		c0.7,0.4,1,1,1.3,1.5c5.9,8.6,9.6,18,11.5,28.2c0.7,3.7,0.7,7.6,1.6,11.2c0-10.3-1.7-20.5-4.9-30.3c-3.2-9.9-8-19.1-13.4-28
		c5.9,1.8,9.8,6.1,13.5,10.6c0.5-0.6,0.1-1.3,0.7-1.7c2.5,3,4.8,6,6.9,9c2.2,3.2,4.2,6.4,6,9.8c1.8,3.3,3.5,6.7,4.9,10.1
		c1.4,3.4,2.8,6.9,4.2,10.4c0.4-0.9,0.1-1.7-0.1-2.4c-1.1-4.3-2.4-8.4-3.9-12.6c-5.1-14.1-12.4-27-20.4-39.6
		c-3.1-4.9-6.7-9.3-10.8-13.4c-1.1-1.1-2.3-2.3-3.4-3.4c-0.4-0.4-0.9-0.7-1.1-1.6c5.8,4.1,11,8.5,15.9,13.2
		c4.9,4.8,9.3,10,13.5,15.5c0.4-0.5,0.1-0.8-0.1-1c-4.8-7.7-9.9-15.1-16-21.8c-11.9-12.9-26.4-19.7-44-19.3c-0.4,0-0.9,0.2-1.3-0.2
		c0.4-0.5,1-0.5,1.5-0.5C509,335.9,514.9,335.8,520.6,337z M533.7,314c-0.4,0.6-0.8,0.1-1.2-0.1c-3.6-1.7-7.4-2.9-11.5-3.2
		c-2-0.1-3.8-1-5.7-1.4c0-1.1,1.3-0.5,1.7-1.2c-3-0.5-6-0.6-9.5-0.1C514,304.8,526.9,306.3,533.7,314z M104.8,266.7
		c0.7-0.6,1.4-1,2.3-0.9C106.5,266.4,105.7,266.8,104.8,266.7z M119.9,262.6c-4.2,1-8.5,2.1-12.7,3.1c0-0.2,0.2-0.4,0.4-0.5
		c7.4-3,14.7-6.2,22.5-7.9c0.9-0.2,1.8-0.3,2.7-0.4C128.8,259.5,124.6,261.5,119.9,262.6z M133.1,257c1.8-0.7,3.7-0.3,5.5-0.1
		C136.7,257.2,134.9,257.3,133.1,257z M144.2,253.7c-6.4-1.2-12.6-0.5-18.6,1.8c-2.2,0.9-4.4,1.8-6.5,3.1c-3.1,1.9-6.4,3.3-9.8,4.5
		c-3.7,1.3-7.3,2.7-10.8,5.4c2.1-9,14.7-21.6,24.7-23c-1.1,0.7-2.3,1.4-3.4,2.1c-1.2,0.8-2.4,1.6-3.6,2.4c-1.1,0.9-2.2,1.8-3.6,3
		c1.4,0,2.1-0.5,2.8-0.8c2.5-1.3,4.9-2.7,7.4-4c6-2.9,12.3-3.8,18.8-2.1c0.9,0.2,1.8,0.7,2.7,1c0.3,0.1,0.6,0.3,0.7,0.8
		c-7.4-1.2-14.6-1-21,3.7c3.6-1,7.3-2,11.1-1.5c3.8,0.5,7.4,1.5,10.9,3.4C145.3,254,144.7,253.8,144.2,253.7z M89.4,403.8
		c-2.5-6.3,5.4-19.5,11.7-22C98.9,390.1,95.4,397.5,89.4,403.8z M460.3,338.6c2.3,1.8,4.7,3.6,7.2,5.2c0.8,0.5,1.4,1.7,2.7,0.9
		c0.3-0.2,0.5,0.2,0.7,0.5c0.8,1.5,2.3,2.2,3.7,2.9c6.4,3.3,13.1,5.8,20,7.9c0.6,0.2,1.2,0.4,1.8,0.6c0.1,0,0.2,0.2,0.4,0.5
		c-4.4-0.5-8.4-1.7-12.4-2.9c-4-1.3-7.7-2.9-11.9-5c0.8,3.6,2.3,6.4,3.9,9.2c1.7,2.9,3.7,5.6,6,8.1c2.3,2.4,4.8,4.5,7.3,6.6
		c-4.9-2.1-8.8-5.4-11.9-9.6c-2.3-3-4-6.3-5.3-9.9c-1.4-4-3.7-7.2-7.4-9.4c-2.8-1.6-5-4.1-6.7-6.9C459,337.6,459.7,338,460.3,338.6z
		 M443.4,270.5c9.6-8.1,20.4-13.6,32.9-15.5c4-0.6,8-0.6,11.9,0.2c0.4,0.1,0.8,0.2,1.1,0.4c0.1,0,0.2,0.2,0.8,0.6
		c-9.7-0.2-18.3,2.6-26.7,6.2c-0.8,0.3-1.6,1.2-2.6,0.2c-0.2-0.2-1.2,0.3-1.7,0.6c-4.9,2.1-9.5,4.8-14.1,7.5
		c-0.8,0.5-1.6,0.9-2.7,1.1C442.6,271.3,443,270.9,443.4,270.5z M439.6,352.2c-6,0.1-17-4.8-22.2-10.1
		C424.8,345.5,431.9,349.5,439.6,352.2z M330.2,219.5c-3.5,1.4-6.7,3.5-10.6,3.9c-1.1,0.1-2.1,0.6-3.1,1c-0.7,0.3-1.3,0.9-2.2,0.9
		C316.2,222.5,324.8,219.6,330.2,219.5z M298.2,239.7c-2.9,7.2-3.5,14.8-4.6,22.6C292.3,257.8,295.2,243.2,298.2,239.7z
		 M129.5,324.4c-3,4.1-8.7,9.5-12,11.4C118.3,334.2,127.7,325.3,129.5,324.4z M90.7,353.8c-0.3,0.1-0.6,0.2-0.9,0.2
		c-0.1,0-0.3-0.1-0.5-0.1c0.6-0.7,1.5-0.9,2.3-1.2c7.8-3.2,15.4-6.6,22.7-10.7c4-2.2,7.8-4.7,11.5-7.4c0.6-0.5,1.1-1.1,2-1.2
		c0.3-0.9,1.1-1.1,1.8-1.5c-0.4,0.7-0.9,1.4-1.8,1.6c-0.1,0.6-0.6,0.9-1,1.2C116.2,343.8,104.3,350.3,90.7,353.8z M77.5,517.3
		c-0.4-0.1-0.8-0.4-1.1-0.6c-1.4-1-2.4-2.3-3.4-3.7c-0.8-1.1-0.6-1.9,0.6-2.5c0.1,0,0.1-0.1,0.2-0.1c2-1,2.3-0.9,2.9,1.2
		c0.5,1.5,0.9,3,1.4,4.4c0.1,0.3,0.2,0.5,0.2,0.8C78.2,517.3,77.9,517.5,77.5,517.3z M87.7,524.4c-0.4-0.6-0.7-1.2-0.8-2
		c-0.3-1.6,0.2-2.9,1.4-3.3c1.3-0.5,3,0.1,3.7,1.4c0.8,1.4,1.6,2.9,2.2,4.5c0.7,1.7,1.4,3.3,2.3,5.2C93,528.8,89.9,527.3,87.7,524.4
		z M127.4,541.1c-0.9,1.6-2.2,3-3.5,4.2c-0.4,0.4-0.9,0.6-1.5,0.4c-2-0.7-5.4-5.6-5.4-8.2c0.1-1.3,1.2-2.5,2.4-3.7
		c0.4-0.3,0.8-0.6,1.3-0.9c2.5-1.4,3.3-1.2,5.1,0.9c0.4,0.4,0.8,0.9,1.2,1.4C128.8,537.4,128.9,538.5,127.4,541.1z M157.5,533.5
		c-0.3,0.5-0.7,1-1.2,1.3c-0.7,0.6-1.5,0.5-2-0.4c-1-1.7-1.7-3.5-2.4-5.3c-0.2-0.6-0.1-0.9,0.5-1.1c1.7-0.5,3-1.6,4.2-2.8
		c0,0,0.1-0.1,0.1-0.1c0.7-0.6,1.5-1.5,2.3-1.3c0.8,0.3,0.3,1.6,0.5,2.5C159.3,528.8,158.9,531.3,157.5,533.5z M168.9,501.5
		c-1.9-1.5-3.2-3.5-4.5-5.5c-2.1-3.3-3.6-6.9-4.8-10.7c-0.1-0.2-0.2-0.4-0.3-0.7c-0.1,0-0.1,0-0.2,0c0.7,3.8,1.4,7.6,2,11.4
		c0.7,4.8,1.4,9.6,0.8,14.4c-0.8,6.6-4.9,10.8-11,12.6c-2.8,0.8-5.3-0.3-6.9-2.9c-1.4-2.2-1.8-4.7-2.2-7.1c-1-6.2-2.2-12.3-4.5-18.2
		c-0.2-0.6-0.5-1.2-0.8-1.7c-0.1-0.1-0.2-0.3-0.4-0.5c-0.1,0.9,0.3,1.5,0.4,2.2c0.7,2.8,0.9,5.8,1.1,8.7c0.3,4.2,0.8,8.3,0.6,12.5
		c-0.1,2.9-0.4,5.7-1.7,8.2c-0.7,1.5-1.8,2.6-3.3,3.3c-5.7,2.5-11.5,3.2-17.3,0.6c-4.1-1.8-6.8-5.2-8.7-9.2
		c-3.1-6.5-3.3-13.3-2.4-20.3c0-0.3,0.1-0.6,0-1c-1.2,2.6-1.8,5.4-2.3,8.2c-0.3,2-0.5,4.1-0.5,6.2c-0.1,2.3-1.7,4.1-4,4.5
		c-1.7,0.3-3.4,0.1-5-0.6c-2.9-1.2-5.4-2.9-7.5-5.2c-2.2-2.3-2.9-5.4-3.8-8.4c-1.7-5.7-0.3-11.1,1.6-16.5c0.7-1.9,1.4-3.9,2.1-5.9
		c-0.4,0.1-0.5,0.4-0.7,0.7c-1.8,2.5-3.4,5-5,7.6c-1.8,2.8-2.5,5.8-2.9,9c-0.3,2.8,0.1,5.6,0.4,8.3c0.1,1.2-0.4,1.5-1.3,1.7
		c-4.3,0.8-8.5-1.2-10.5-5.1c-2.3-4.4-2.1-9-0.9-13.6c1.7-6.2,5.4-11.1,10-15.3c1.6-1.5,3.3-2.9,5.2-4c4.8-2.6,9.3-5.6,14.5-7.3
		c5.7-1.8,11.6-2.1,17.5-2.4c10.2-0.5,20.4,0,30.5,1c5.4,0.5,10.8,1.8,15.8,4c4.4,2,7.7,5.3,10.5,9.1c4.8,6.5,8,13.7,8.9,21.8
		c0.3,2.6-1.4,5.7-3.8,6.8C171.8,503.1,170.3,502.6,168.9,501.5z M173.9,510.1c-1-1-1.7-2.3-2.3-3.6c-0.2-0.5-0.1-0.7,0.4-0.8
		c1.1-0.2,2-0.8,2.9-1.4c0.4-0.3,0.7-0.8,1.2-0.6c0.6,0.3,0.2,0.9,0.3,1.5c-0.1,1.5-0.3,3-0.7,4.5
		C175.3,510.8,174.8,511,173.9,510.1z M235.8,568.4c5-2.8,10.5-3.2,16.1-2.9C246.6,566.4,241.2,567.3,235.8,568.4z M256,548.9
		c-0.1,0.6-0.9,0.5-0.8,1.3c2.8,0.5,5.8-0.6,8.7-0.2c-7.3,1.7-14.6,3.5-21.6,6.4c0.8-1.4,2.5-1.8,3.6-3.3c-2.8,0.5-4.9,1.9-7.5,2.2
		C243.7,551.6,249.6,549.7,256,548.9z M246.1,549.7c6.6-4.3,14-5.1,21.7-5c-3.6,0.8-7.3,1.3-10.9,2.2
		C253.2,547.7,249.7,549,246.1,549.7z M248.9,557c6.5-3.2,20.4-5.1,29.2-3.9C268.3,553.6,258.5,554.2,248.9,557z M280.6,630.9
		c0.4-0.8,1-0.5,1.5-0.5c2.2,0,4.3-0.3,6.4-0.8c2.6-0.5,2.9-0.4,4,2c0.3,0.6,0.5,1.1,0.9,1.9C288.8,633.5,284.5,633.4,280.6,630.9z
		 M285.4,564.6c3.1-0.7,10.9-0.6,16-0.1c5.2,0.5,10.4,1.6,15.6,2.5c-1.5-1.3-3.6-1.6-5.6-2.7c2,0,3.5,0.7,5.1,1.1
		c1.1,0.2,2.2,0.6,3.2,0.9c0.3,0.1,0.8,0.2,0.7-0.2c0-1.5,1-0.9,1.6-0.7c1.1,0.3,2.1,0.8,2.9,1.6c2.1,1.8,3.5,4.1,5.1,6.3
		c-4,1.9-13,0.2-17.4-3.2c1.5-0.3,2.7,0.2,4.3-0.2C306.6,566.4,296.3,564.9,285.4,564.6z M296.4,628.2c2-0.1,3.4,0.9,4.8,2.1
		c1.4,1.2,2.8,2.3,4.3,3.3C301.3,634,299,630.9,296.4,628.2z M299.9,627.1c2.3,0,2.3,0,8.9,6C305.7,633,302.6,630.9,299.9,627.1z
		 M316.1,632.8c-1.7,0.8-3.4,0.6-5-0.4c-2.5-1.6-4.2-4-6.4-6.3c1.5-0.3,2.4,0.3,3.3,0.7c1.6,0.8,3,2,4.6,3c1.3,0.8,2.5,1.9,4.2,1.9
		C316.8,632.3,316.5,632.6,316.1,632.8z M316.8,631.8c-0.8-1.5-2.4-2.2-3.6-3.3c-1.1-1-2.3-1.9-3.6-3c2.4,0.2,5.7,2.1,10.5,6.1
		C318.9,632.4,317.8,632.1,316.8,631.8z M396,447.8c-0.8,0.4-1.3-0.5-2.1-0.3c0.2,2.2,2,3.5,3,5.4c-2.1,0.1-3.9-0.7-5.7-1
		c-0.7-0.1-1.4-0.4-1.6,0.7c-0.1,0.7-0.7,0.7-1.3,0.3c-0.3-0.2-0.6-0.5-1.1-0.3c-0.4,0.6,0.1,1.4-0.5,2.1c-2-0.6-3.7-1.9-6.2-2.8
		c2.1,3.2,5.1,4.5,8.1,6c-2.1,1.1-4,0.6-5.9-0.1c-1.9-0.7-3.4-2-5.5-3.2c0.8,2.9,3,4.2,5,6.3c-2.5-0.6-3.9-2.3-5.8-3.2
		c1.1,3.1,3.7,4.8,6.2,7.2c-2,0-3.3-0.8-4.6-1.5c-1.3-0.7-2.5-1.5-4-2.5c0.4,1.8,1.6,2.7,2.1,4.2c-1.1,0.1-1.8-1.1-3-1
		c0.5,3.2,1.2,6.1,4.5,7.6c1,0.5,1.2,1,0.8,2.1c-1.3,3.4-2.2,6.9-4.3,9.9c-0.5,0.7-0.6,1.6-0.8,2.5c-0.7,3-1.5,6-2.3,9.1
		c-0.7,2.9-1.4,5.9-2.3,8.8c-0.5-3.4-1-6.7-1.5-10.1c0.7-0.5,0.7,0.6,1.5,0.3c0-1.5,0.2-3.2-0.1-4.8c-0.3-1.7,1.2-2.7,1.2-4.1
		c0.8-0.1,0.5,1.1,1.2,1.1c0.3-0.1,0.4-0.2,0.4-0.5c-0.6-4.2-1.1-8.4-1.8-12.6c-1-5.5-3.3-10.4-7.1-14.5c-2-2.2-3.1-4.6-3.5-7.5
		c-0.1-0.8-0.4-1.7-0.7-2.5c-0.2,1.9,0.4,3.8,0.1,5.9c-1.7-0.1-2-2.1-3.7-2.9c1,2.3,1.9,4.2,2.8,6.2c-0.8,0.4-1-0.9-1.7-0.6
		c-0.3,1.1,0.5,1.8,1.1,2.5c0.7,0.9,1.2,1.8,0.6,2.9c-0.6,1.1-0.2,1.8,0.4,2.6c0.7,0.8,1.4,1.7,2,2.7c-4.1-1.1-7.4-3.8-11.1-5.5
		c3.2,3.7,7.2,6.3,11.2,9.1c-0.8,0.7-1.5-0.3-2.3,0.1c1,1.2,2.6,1.6,3.9,3c-5.5-1.5-9.7-4.5-14-7.4c2.1,3.4,5.4,5.3,8.5,7.6
		c-4.4-1.1-7.8-4-11.2-6.9c0.7,2.9,5,7.8,10.4,12.2c-2.1-0.5-3.9-1.6-5.7-2.8c-1.8-1.2-3.4-2.4-5.3-3.5c3.9,5.8,9,10.8,10.8,17.7
		c-0.6,0.4-1.1-0.2-1.8,0.2c2.7,3,3.6,6.8,5.1,10.4c-0.6,0.3-1.7,0.1-0.9,1.4c1.3,2.1,2.4,4.3,3.6,6.5c0.3,0.5,0.5,1.1,0.4,1.9
		c-1.7-2-3.4-4-5.1-6.1c-0.6,0.8,0,1.3,0.2,1.8c1.6,3.8,3.8,7.2,6.2,10.5c3.4,4.7,6.5,9.5,8.3,15c2.7,8.2,3.8,16.5,2.6,25
		c-0.1,0.6-0.4,1.3-0.3,1.9c0,1.4-0.9,1.2-1.9,1c1.9,2.9,1.7,5.8,1.1,8.7c-0.2,0.9-0.4,1.9-0.7,2.8c-0.6,2.2-0.6,2.2-2.9,1.9
		c2.9,5.1,1,9.6-1.5,14.1c-2.6-1.2-4.4-3.4-7.2-4.2c1.3,1.2,2.7,2.3,4,3.5c1.4,1.3,1.5,1,0.4,2.9c-5.9,10.1-13.3,19-22.1,26.6
		c-3.8,3.3-7.8,6.4-12,9.2c-5.6,3.6-8.4,3.5-13.7-0.5c-1.1-0.8-2.1-1.7-3.1-2.6c-0.2-0.1-0.2-0.4-0.5-0.8c3.1-1.3,4.4,1.9,6.9,2.5
		c-1.1-1.8-2.7-2.8-4.1-4.3c3.4-0.7,5,2.3,7.8,2.7c-1.3-1.4-2.6-2.9-4-4.5c1.9-0.3,2.8,1.2,4.3,1.7c0.2-0.7-0.3-1.1-0.6-1.5
		c-1-1.6-1.2-3.2-0.7-5c0.5-1.7,0.4-1.9-1.3-2.8c-1.1-0.5-2.2-0.9-3.3-1.4c-0.6-0.3-1.4-0.2-2-1.1c4.2-1.2,8.1-3.1,12.2-4.3
		c3.6-1,6.4-3.2,8.8-5.9c5.8-6.4,8.9-14,9.6-22.5c0.7-8.7-0.2-17.2-3.6-25.4c-0.8-2-1.8-3.9-3-5.7c-1.6-2.6-3.6-4.8-6.4-6.3
		c-4.4-2.4-8.3-5.4-12.4-8.2c-3.5-2.4-7.1-4.7-10.9-6.4c-1.1-0.5-2.2-1.1-4-0.7c5.4,2.6,10.2,5.4,13.9,9.5c-2.3-0.6-4.3-1.7-6.3-2.7
		c-2.7-1.4-5.4-2.9-8.2-3.9c-3.7-1.3-6.8-1.5-9.9-0.7c3.2,1.1,6.5,1.8,9.6,3c3.1,1.3,6.1,2.7,8.8,4.7c-2.2,0-4.2-0.7-6.3-1.1
		c-2.3-0.4-4.5-1-6.8-1.2c-2.2-0.3-4.4-0.7-6.8-0.5c0.8,1.2,2.2,0.6,3.4,1.3c-7.4,0-14.3,1.5-21.2,2.7c-2.1,0.4-3.3-0.3-4.3-2
		c-2.1-3.6-4.9-6.3-9-7.4c-1.3-0.4-2.6-0.6-4-0.7c5.1,1.8,9.5,4.5,12,9.6c-5-4-10.6-6.5-17.2-6c5.3,0.7,10,2.6,13.7,6.7
		c-1.7-0.3-3.2-1.2-4.8-1.9c-2.5-1.2-5-2.4-7.8-3c-2-0.4-3.9-0.3-6-0.2c0.2,0.9,1.2,0.5,1.6,1.2c-4.5,0.9-8.8,1.7-13.2,2.5
		c-5.1,1-9.2,3.5-12.3,7.6c-4.6,6.2-8.6,12.7-10.8,20.2c-1.6,5.3-1.6,10.7-1.4,16.2c0.1,3,1.2,5.5,2.7,8c3.8,6.6,8.6,12.3,13.9,17.7
		c0.6,0.6,1.1,1.2,1.7,1.7c1.2,1,1.5,2.3,1.5,3.8c0.1,4,0.9,7.7,3.5,10.9c1.2,1.5,1.2,1.5,0.1,3c-1,1.3-2.2,2.5-3.8,3.6
		c-0.2-2.6,2.4-3.5,2.5-5.7c-1.7,1.5-3.3,3.1-5.3,4.9c0.2-3.3,3.2-4.5,4.2-7.1c-1.5,0-2.2,0.9-2.9,1.7c-0.9,1-1.8,2-2.9,2.9
		c-0.5,0.4-1,0.6-1.5,0c-0.4-0.5,0.1-0.9,0.4-1.2c1.4-1.8,2.9-3.6,4.3-5.5c0.3-0.4,0.6-0.8,0.9-1.1c0.2-0.2,0.1-0.5-0.1-0.7
		c-0.2-0.2-0.4-0.3-0.6-0.1c-0.4,0.3-0.8,0.6-1.1,0.9c-1.8,1.8-3.9,3.1-5.4,5.1c-0.5,0.6-1.1,1-1.9,0.4c-0.8-0.6-0.5-1.3-0.1-1.9
		c1-1.6,2.1-3.2,3.1-4.8c0.4-0.6,0.8-1.3,1-2.1c-3,1.3-4.5,4.3-6.6,6.7c-1.1-1.4-1-2.7-0.4-3.9c0.5-1.2,1.3-2.2,1.9-3.3
		c0.6-1,1.2-2,0.9-3.8c-1.9,2.1-3.5,4-5.4,6.1c-0.5-1.5-0.3-2.5,0.2-3.6c0.5-1.2,1.4-2.2,2.1-3.2c0.8-1.1,1.7-2.1,2.1-3.9
		c-1.6,0.8-2.4,1.9-3.3,3c-0.9,1.1-1.7,2.3-2.7,3.8c-1.3-2.3-3.4-3.8-3.1-6.5c0.1-0.7-0.2-0.6-0.8-0.6c-1.3-0.1-1.6-1-1-2.2
		c0.4-0.8,1.2-1.3,1.2-2.3c-0.7-0.2-1,0.4-1.4,0.7c-0.6,0.4-1.1,1.3-2,0.3c-1.1-1.3-1.2-1.6-0.3-2.8c0.6-0.8,1.3-1.6,1.8-2.5
		c-1.2,0.3-1.9,1.4-2.8,1.9c-0.9,0,0.3-2-1.5-1.2c-1,0.5-1.9-1.1-1.3-2.2c0.5-0.8,1.1-1.5,1.7-2.3c0.5-0.6,1-1.3,1.5-1.9
		c0.1-0.1,0-0.3,0.1-0.7c-2,1.1-3.2,2.9-5.1,4.2c-0.8-0.8-1.6-1.7-2.4-2.5c-1.3-1.4-1.3-2.2-0.1-3.8c0.7-0.9,1.5-1.7,2.2-2.5
		c0.7-0.8,1.5-1.4,2.1-2.8c-2.7,1.6-4.6,3.8-7.2,5.3c0.1-4,3.7-5.4,5.4-8.2c-1.1,0.4-1.9,1.2-2.8,1.8c-1.2,0.9-2.3,1.8-3.4,2.6
		c-0.3,0.2-0.6,0.3-0.8,0c-0.3-0.3-0.1-0.6,0.2-0.8c0.5-0.4,1-0.9,1.4-1.3c2.3-2,4.6-4,6.8-6.1c-3.9,0.7-5.9,4.5-9.5,5.9
		c0.8-2.6,3.2-3.7,4.5-5.9c-2,1.1-4,2.3-6.4,3.6c0.8-3.8,4.5-4.8,6.2-7.6c-2.8,0.3-4.3,2.5-6.5,3.5c-0.7-1.4,0-2.3,1-2.9
		c1.4-1,2.8-1.8,4.2-2.7c1-0.6,2-1.1,3.2-2.5c-3.5,1.4-6.3,3-9.4,4c2.9-4.4,7.8-6.2,12-8.8c-2.1-0.1-4,0.7-5.9,1.4
		c-1.9,0.8-3.7,1.7-5.8,2.7c0.4-1.4,1.6-2,2-3.2c-1.1,0.1-1.1,0.1-3,1c1.1-2,3.3-3.1,4.6-5.1c-1.7,1-3.3,1.9-5.2,3
		c-0.3-1.8,0.6-2.7,1.5-3.5c2.1-1.7,4.3-3.3,6.5-5c0.7-0.5,1.4-1.1,2-1.7c-3.6,1-6.6,3.3-10,4.9c1.4-3.2,4.7-4.3,7.3-6.5
		c-1.7-0.2-1.7-0.2-6.5,2.7c-0.3-1.4,0.4-2.3,1.1-3.2c1-1.3,2.4-2.3,3.8-3.2c0.8-0.5,1.6-1,2.5-1.5c0.8-0.5,1.6-1,2.5-1.5
		c-1.8-0.4-2.1-0.3-4.8,1.2c-1.5,0.8-2.9,1.6-4.6,2.6c-0.1-1.8,0.8-2.6,1.8-3.3c2.2-1.6,4.7-2.8,7.1-4.1c0.7-0.4,1.5-0.8,2.1-1.5
		c-4.1-0.1-7,2.7-10.7,4.3c0.2-2.1,1.5-3.2,2.8-4.2c1.3-0.9,2.7-1.7,3.6-3.3c-2-0.6-3,1.1-4.7,1.5c1.6-8,6.6-14.1,10.7-21.1
		c-1.4,0.4-1.8,1.5-3.2,1.9c3-5.1,7.1-8.9,11.2-13.3c-2.4,0.4-3.6,1.9-5,2.9c-1.4,1.1-2.7,2.4-4.5,3.4c0.1-1.5,0.6-2.4,1.1-3.4
		c2-4.4,4.7-8.4,7.8-12c2.8-3.3,5.7-6.5,8.6-9.7c3.1-3.5,6-7.1,8-11.4c-1.3,1.2-2.5,2.4-3.8,3.6c-1.4,1.3-2.9,2.6-4.3,3.8
		c-1.3,1.2-2.7,2.4-4.2,3.4c4.4-7.4,10.9-13.3,15.4-20.7c-4.4,4.2-8.9,8.4-13.3,12.6c1.9-4.2,4.9-7.6,7.5-11.3
		c-3.3,2.1-4.9,5.8-8,8.9c0.7-6,4.7-10.2,6-15.8c-2.7,1.6-3.4,4.3-5.3,6.1c2.2-6.4,6.4-11.5,10.9-16.6c-5.9,2.7-13.2,14.2-14,21.8
		c0.8,0.3,0.6-1,1.5-0.9c-2.8,10.1-7.1,19.5-13,28.1c-0.8-0.1-0.4-0.8-0.8-1.1c-0.1,0-0.2,0-0.2,0.1c-0.6,0.3-0.4,1.2-1.1,1.5
		c-0.3,0-0.3-0.3-0.3-0.5c-0.2-3.6,0.5-7.2,1.2-10.7c0.1-0.7,0.4-1.4,0.1-2.4c-1.7,2.4-2,5.2-3.1,8.1c-0.5-2.8,0.5-5.3,0.3-7.9
		c-1,0.7-0.8,1.9-1.7,2.7c-0.9-3.8,0.3-7.2,0.7-10.8c-2.4,5.6-2,11.8-3.3,17.7c-0.6-3.3-0.4-6.6-1.1-10.4c-0.9,2.7-1.6,4.8-2.6,7.5
		c-1.1-4.3,0-8.1-0.3-11.9c-1.8,6.3-1.3,12.7-0.7,19.2c-0.9,0-0.9-0.6-1.1-1.1c-1.3-2.9-1.7-6-1.8-9.1c-0.2-5.9,0.7-11.6,1.6-17.4
		c0.1-0.7,0.4-1.4,0.1-2.3c-1.2,1.6-1.4,3.4-1.8,5.2c-1.2,6.6-1.5,13.2-0.6,19.8c0.1,0.6,0.2,1.3-0.1,2.1c-1.2-2.6-1.4-5.3-1.7-7.9
		c-0.9-7.9-0.4-15.8,1.8-23.5c1.3-4.5,2.2-9,2.4-13.7c0-0.1,0.2-0.2,0.4-0.5c1.1,2.1,2.2,4,3.3,6c0.4-4.9-1.5-8.9-4.2-12.7
		c0.9-0.3,1.2,0.6,1.9,0.4c0.3-0.7-0.2-1.2-0.5-1.7c-1.5-2.8-3.6-5.1-5.7-7.4c-2.1-2.2-4.3-4.3-6.2-6.7c-0.5-0.6-1-1.2-1.3-2.3
		c5.1,2.1,8.4,6.4,13.2,8.6c-1.6-6.4-6.5-10.8-9.7-16.9c-0.5,1.7-0.1,2.8,0.1,4c0.3,1.2,0.6,2.3,1,3.8c-2.2-1-3.6-2.6-5.3-3.7
		c0.4-0.9,0.9-0.2,1.5-0.6c-0.6-1.4-1.8-2.4-2.8-3.6c-0.9-1.2-2-2.3-2.9-3.5c-1-1.2-2-2.4-2.9-3.7c1.7,0.2,3,1.4,4.7,1.7
		c-3.4-3.4-7-6.6-9.6-10.9c3.2,3.1,6.8,5.7,11,7.6c-0.6-0.6-1.2-1.1-1.9-1.7c-3.9-3.4-7.4-7.1-10.2-11.4c-6.3-9.4-7.6-19.5-3.7-30.2
		c0.9-2.5,2.1-4.8,3.1-7.2c-0.7-0.3-0.9,0.3-1.2,0.6c-0.5,0.4-0.8,0.4-1.2-0.1c-0.5-0.5-0.1-0.9,0.3-1.2c1.6-1.3,3.2-2.7,4.8-4
		c0.5-0.4,1-0.7,1.5-1.6c-4,1.6-6.4,4.6-9.2,7.2c2.2-4.6,6.4-7.8,8.7-12.3c-0.5-0.6-0.8,0.3-1.5-0.1c2.1-3.2,4.3-6.5,6.4-9.7
		c-0.1,2.6-0.8,5-1.5,7.3c-0.8,0.1-0.9-0.8-1.6-0.7c0,0.1-0.1,0.3-0.1,0.4c0.3,1.2,0.6,2.5,0.9,3.7c0.2,0.8,0.4,1.6,0,2.4
		c-0.7,1.3-0.3,2.6,0,3.9c1.2,4.5,2.6,8.9,4.7,13c1.7,3.4,4.3,5.5,7.9,6.5c1.5,0.4,3,1.1,4.6,1.1c0.2-1.1-1.2-1.4-0.9-2.5
		c5.8,1.3,11.6,2.5,17.7,1.4c-2,1.8-4.4,2.1-6.8,2.4c-1.3,0.1-2.7,0.1-4.1,0.1c-1.1,0-2.2,0-3.3,0.5c-1.3,0.6-2.7,0.2-4-0.2
		c-1.7-0.6-3.4-1.2-5.6-1.9c2.6,3.2,6.2,3.1,9.2,4.5c-2.9,0.5-5.8-0.7-9.2-0.3c3,1.9,6,2.3,9.2,3.3c-2.5,0.5-5-0.4-6.9,1.3
		c11.4,0.8,21.9-2.1,32.4-7.3c-1.2,3.8-2.3,7.1-1.7,11.1c1.1-1.7,1.9-3,3-4.6c0.7,3.3-0.5,6-1,9c1.2-0.7,1.4-2,2.6-2.9
		c-0.6,1.6-1,2.8-1.5,4c0.1,0.1,0.3,0.2,0.4,0.2c1.5-2.3,3-4.7,4.5-7c0.4,2.3-0.9,4.3-1.1,6.6c2.1-1.1,2.5-3,3.3-4.7
		c1.8-3.9,2.2-8.2,3.8-12.1c0.3-0.6,0.3-1.4,1.1-2.1c0.2,2.6-0.2,4.9-0.4,7.5c1.5-2.9,2.1-6.4,3.1-17c1.3,3.2,0.7,6.7,1.9,9.9
		c0.2-2.2,0.5-4.5,0.7-6.7c0.4-0.4,0.5,0.1,0.7,0.2c1.2,0.8,2.1,0.5,2.1-0.8c0-2.5,0.1-5-1.1-7.3c-0.2-0.3-0.5-0.7-0.2-1.1
		c0.9-0.2,1.8,0.4,2.9,0.5c-0.7-1.1-1.9-1.4-2.6-2.4c0.4-0.6,1.1-1,1.7-1.5c0.7-0.7,1.4-1.3,1.8-2.2c1.2-2.3,0.6-3.6-2-4
		c-1-0.1-1-0.6-1-1.2c0-1.7,0.2-3.3-0.4-5c-1.1,0-0.8,1.4-1.9,1.5v-5.3c-1.4,1-1.6,2.4-2.9,3.2c1.1-5.5,1.2-10.9,1.2-16.7
		c-1.3,1.4-1.1,3-2.1,4.5c-1.4-6.3-4.7-11.7-5.9-18c-0.6,1.8-0.6,3.7-1.2,5.5c-1-0.8-0.9-1.9-1.2-2.9c-0.2-1-0.3-2-0.5-3.1
		c-0.1-0.5-0.1-1.2-1-0.6c-0.5,0.3-0.4-0.5-0.5-0.7c-0.5-1.9-1-3.7-1.8-5.5c-1.4-3.2-3.5-5.9-6.5-7.8c-0.3-0.2-0.5-0.3-0.8-0.5
		c-0.1-0.1-0.3,0-0.8,0c4.5,4,7.4,8.6,8.7,14.8c-5.1-3.1-8.4-8.1-14-9.5c2.2,1.9,5.1,3.1,6.6,6.5c-3.2-1.9-5.6-4.1-9.1-4.6
		c0.6,1.2,1.8,1.4,2.4,2.6c-2.4-0.6-4.3-2.2-6.8-3c0.7,1.5,2.2,1.7,3,3c-2.5-0.7-4.4-2.5-7.2-2.6c1.1,1.6,2.9,2,4.2,3.5
		c-3.1,0.6-6.2-0.9-9.3,0.3c1.8,0.7,3.7,0.6,5.5,2.1c-2.2-0.1-4-0.2-5.8-0.3c-0.2,0.8,0.8,0.7,0.9,1.4c-1.4,0.7-3.2,0.4-4.6,1.1
		c-0.1,0.6,0.8,0.6,0.6,1.4c-3.5,0.3-7,1.2-10.4,2.3c0-0.3-0.1-0.5,0-0.6c3.5-4.9,5.4-10.5,7.1-16.2c0.1-0.3,0.2-0.6,0.3-0.9
		c2.4-9.3,8-16.2,16-21.4c4.2-2.7,8.5-5.1,13.1-7.1c0.8-0.3,1.7-0.5,2.3-1.1c-0.4-0.6-1.3,0-1.8-0.9c2.2-1.1,3.8-3.1,6.2-3.8
		c0.1-1.1-0.9-1.7-1.1-2.6c1.7-2,4.4-2.2,7.1-3.6c-4.4-0.8-8.2,0.3-12.1,1c0.9-1,1.9-1.1,2.8-1.4c0.7-0.3,1.9,0,1.5-1.5
		c-0.1-0.4,0.4-0.4,0.7-0.5c0.9-0.4,1.8-0.7,2.7-1c0.2-0.7-0.6-0.6-0.9-1.1c2.7-1.3,5.5-1.8,8.3-2.3c-3.5-0.7-6.8,0-10.2,0.7
		c2-1.9,4.7-2.2,7.3-3c-0.5-0.2-0.9-0.4-1.4-0.6c2.2-1,4.4-1,6.5-1.4c-3.7-1.4-7.3,0.1-11,0.8c2.3-2.5,6.4-3.7,13.8-3.9
		c-1.9-1.3-3.9-1.2-6.2-1.4c1.9-1.5,3.9-2,5.9-2.4c2-0.4,4.1,0,6.6,0.2c-3.1-3-6.4-2.9-9.8-2.7c3-2.2,7.8-1.6,14.2,1.9
		c-0.1-2.9-2.4-3.8-4.3-5.1c2.5-1.2,2.5-1.2,10.9,1.3c-1-1.1-1.3-1.4-2.8-2.1c-1.1-0.5-2.3-1-3.8-1.6c1.4-0.6,2.4-0.4,3.4-0.3
		c3.1,0.4,5.8,1.7,8.4,3.4c3.8,2.4,7,5.5,10.1,8.8c2.7,2.9,5.2,6.1,7.6,9.3c0.5,0.6,0.8,1.4,1.8,2c-1.3-4.2-3.6-7.4-5.8-11
		c1.3,0.7,1.3,0.7,2,1.5c2.9,3.8,4.6,8.2,5.8,12.8c1.1,4,1.7,8.1,2.3,12.2c0.2-2.3,0.2-4.6-0.1-6.9c-0.3-2.5-0.8-4.9-1.4-7.3
		c-0.6-2.3-1.4-4.6-2.4-6.8c-1-2.1-2.1-4.2-3-6.4c1.8,1.4,2.8,3.4,3.7,5.4c1.8,4.2,2.6,8.7,3.3,13.2c0.6,4,1,8.1,1.5,12.1
		c0.2,1.3,1.2,2.5,1.3,4c0.3,4.5,0.7,8.9,1.1,13.4c0,0.6,0.1,1.1,0.4,1.7c1.3-4.4,1.7-8.9,2.8-13.3c0.3,1.7,0.1,3.4,0,5.1
		c-0.6,5.8-1.8,11.5-1.7,17.4c0,0.8,0.1,1.7,0.2,2.6c1.3-0.4,0.9-1.8,2-2.2c0,1.5-0.5,2.9,0,4.4c0.8-3.2,1.6-6.5,2.4-9.7
		c1.6-6.4,2.9-12.8,4.9-19c0.3-1.1,0.4-2.2,0.3-3.3c-0.1-0.9-0.1-1.7-0.2-2.6c0.7,0.1,0.4,0.7,0.7,1c0.6-0.2,0.6-0.8,0.7-1.3
		c1.8-6.7,3.5-13.4,5.3-20.2c0.2-0.7,0.3-1.4,0.6-2.1c0.4-1,0.8-1.9,2.2-1.7c1.2,0.2,1.7-0.7,2.1-1.6c0.9-1.9,1.8-3.8,2.7-5.6
		c0.9-1.7,2-3.4,3.9-5.1c-0.4,1.7-1.5,2.5-2,4.2c10.9-8.6,22.5-13.6,36.1-13.2c-1.1,0.2-2.3,0.4-3.4,0.6c-1.1,0.2-2.4,0-3.8,0.8
		c4.2,0.5,8.1-0.3,11.9,1c-3.6,0.4-7.4,0.3-10.9,1.3c3.2,0.4,6.5,0.3,9.8,0.7c3.3,0.4,6.6,0.9,9.7,2.3c-3.7-0.2-7.4-0.4-11.5-0.1
		c3.2,0.4,6.1,0.8,9,1.3c4.9,0.8,9.4,2.6,13.2,5.8c0.3,0.2,0.7,0.4,0.8,1.2c-5.8-3.3-11.7-5.4-18.4-5.1c4.9,1.1,9.9,2,14.2,5.2
		c-6.5-0.5-13-0.7-19,2.4c7-0.7,13.9-1.4,20.5,2.2h-7.2c2.9,1,6,1.4,8.9,2.4c3,1.1,5.9,2.3,8.7,4.5c-1.2,0.5-2,0.1-2.9-0.1
		c-0.9-0.2-1.7-0.8-3.2-0.5c6.7,3.7,13.2,7.2,17.8,13.1c-5.1-3.1-10.6-4.8-16.6-5.7c1.1,0.7,2.3,1.4,3.4,2.1
		c1.3,0.8,2.5,1.7,3.7,2.6c1.1,0.9,2.2,1.9,3.1,3c1,1,1.8,2.2,2.4,3.6c-1.6,0.3-2.4-1.6-4-1c0.1,0.9,0.7,1.6,1.2,2.3
		c1.6,2.3,3.6,4.3,5.6,6.2c1.9,1.8,3.8,3.6,5.7,5.5c0.5,0.5,1.3,1,1.4,2c-2.5-0.1-4.7-1.7-7.3-1c5.5,1.3,10.3,3.9,14.2,8.2
		c-1.1,0.4-1.5-0.8-2.3-0.6c-0.5,0.7,0.2,0.9,0.5,1.2c1.6,1.4,3.3,2.8,4.9,4.2c0.3,0.3,0.7,0.5,0.4,1c-0.3,0.4-0.7,0.3-1.1,0.2
		c-2-0.7-4.1-1.4-6.1-2.1c-0.8-0.3-1.6-0.6-2.7-0.5l6.7,6.3c-0.1,0.1-0.2,0.3-0.3,0.4c-1.1-0.6-2.3-1.2-3.4-1.7
		c-0.1,0.1-0.2,0.2-0.2,0.3c3,2.6,6,5.3,9.1,8c-1,0.3-1.3-0.4-1.9-0.6c-0.6-0.2-1-0.8-2-0.3c2.8,3,5.9,5.6,7.9,9.2
		c-2.7-1.1-4.6-3.7-7.9-4.2c0.5,1.3,1.6,2,2.2,3c-0.3,0.8-1-0.1-1.6,0.5c0.8,0.9,1.7,1.8,2.6,2.7c2.4,2.4,4.8,4.7,6.9,7.4
		c1.8,2.2,3.3,4.6,4.2,7.2c0.2,0.5,1,1.2-0.1,1.8c-0.5,0.3,0.2,0.8,0.5,1.1c2.6,2.9,5.3,5.8,7.9,8.7c0.5,0.6,1.1,1.2,1.7,1.9
		c-1.6-0.2-15.9-9.5-19.5-12.7c3.2,1.1,5.6,3,8.8,4.1c-0.8-1.6-1.8-2.3-2.7-3.1c-1.3-1.1-2.7-2.3-3.5-3.9c-0.4-0.8-1.3-1.2-2-1.7
		c-1.1-0.8-2.2-1.5-3.2-2.4c2.2,0.1,4,1.3,6.2,1.5c-3.7-3.3-8.1-5.3-12.9-7.7c1.4-0.3,2.2,0.1,3,0.2c0.9,0.1,1.7,0.2,3,0.4
		c-1.9-1.7-4-2.2-6-2.9c-1.9-0.7-3.9-1-6.1-2.5c3.3-0.4,6.1-0.7,9.4-1.1c-3.1-2.2-6.3-2.6-9.3-3.5c0.3-0.7,1.4-0.2,1.5-1.3
		c-3.3-0.4-6.7-0.1-10.1-0.2c2.7-1.3,5.6-1.6,8.2-3.2c-2.2,0.3-4.4,0.6-6.7,0.9c1.9-1.2,4-1.4,6-2.4c-3.1-0.8-6.1,0.4-9.3,0.7
		c0.5-1,1.8-0.9,2.4-2.1c-5.5,1.1-10.7,2-15.4,4.9c1.2-2.3,3.4-3.8,5-5.8c-6.3,1.1-10.3,5.5-14.6,10.2c-0.2-2.5,0.4-4.4-0.4-6.8
		c-1.7,3.2-2.2,6.5-3.9,9.3c0.2-3.4,1.4-6.5,1.8-9.9c-2.2,1.9-3,4.2-4.5,13c-0.8,0.4-0.7-0.7-1.5-0.7c-0.7,4.9-1.3,9.9-2,14.9
		c-1.4-4.3-0.8-8.6,0.1-12.8c0.9-4,2.2-7.8,2.9-11.9c0-0.1,0-0.3-0.1-1c-2.2,3.9-3.4,7.7-4.4,11.6c-1,3.9-1.2,7.9-1.4,12.1
		c-1.4-0.9-1.4-2.6-2.7-3.5c-0.7,1.9-0.5,3.5,0.2,5.2c0.5,1.3,1.1,2.6,1.7,4c0.4,0.8,0.6,1.6,0.8,2.7c-2.5-0.9-3.1-3.5-5-5.1
		c-0.2,2.9,1.8,4.7,2.3,7.1c-1.6-0.6-1.9-0.8-3-2.4c-0.7-1-1.4-2.1-2.2-3.1c-0.3,2.7,1.6,4.8,2.5,7.3c-1,0-1.1-1.1-2-1.2
		c-0.5,1,0.1,1.9,0.5,2.8c0.4,0.8,1.2,1.5,1.4,2.7c-2.9-0.4-4.5-2.6-6.3-4.8c-1.1,4.5,2.2,6.2,4.9,8.7c-3.3-0.4-5.4-2.3-8-3.7
		c0.6,3.5,3.4,4.6,5.6,6.3c-3.3-0.1-10.8-2.8-14.6-5.3c1.1,2.6,3.3,3.9,5.7,5.1c0.7,0.3,1.5,0.4,2.2,1.1c-1.4,0.8-2.5,0-3.7-0.2
		c-1.2-0.2-2.5-0.6-4.1-1c1.9,2.4,4.5,2.7,6.3,4.1c0.1,0.8-1,0.8-1,1.6c1.2,0.4,2.3,0.9,3.2,2c-0.7,0.9-1.9,0.7-2.8,1.5
		c1.3,1,2.9,0.7,4.1,1.6c0.1,0.7-0.8,1-0.8,1.7c0.4,0.9,1.5,0.2,2.2,1.1c-1.2,2.5-2.2,5.3-2.6,8.2c-0.1,0.5-0.1,1.1-0.1,2.2
		c1.7-2.9,1.9-6,4.2-8.4c0.3,2.3-0.7,4.1-0.3,6.2c1.2-0.9,2.5-1.4,3.8-2c1.1-0.5,1.7-0.3,2.2,0.8c1.9,4.1,3.9,8.1,5.9,12.1
		c0.3,0.7,0.5,1.5,1.4,2.1c-0.1-2-1-3.8-1.1-5.7c1.6,2.1,2.7,4.5,3.8,6.9c1.1,2.5,2.1,5,3.3,7.4c0.6-3.4-1.2-6.3-1.8-9.4
		c2.7,3.6,3.9,8,6.2,12.5c0.1-2.3-0.4-3.9-0.5-5.6c1.7,0.6,2.4,1.3,5.2,4.7c1.5,1.9,3,3.7,4.6,5.8c0.5-1.4-0.4-2.5,0-3.9
		c2.2,2.4,4.2,4.6,6.2,6.9c-1.1-3.7-3.8-6.5-5.1-10.6c3.2,2,4.9,5,7.8,6.6c-1.9-2.6-3.8-5.2-5.7-7.8c2.3,0.6,3.8,2.5,6.1,3.6
		c-0.1-1.2-1.2-1.6-1.5-2.6c1.9,0.2,3.4,1.3,5.6,1.6c-1.2-1.2-2.1-2.1-3.3-3.4c3.7-0.2,7,0.2,10.7,0.5c-2.1-2.3-4.8-3.1-6.8-5.2
		c3.2,0.3,5.5,2.1,8.4,3c-0.5-1.4-1.8-1.6-2.4-2.8c4.6,0.3,9,0.7,13.4-1c-3.8-1-7.6-2-11.3-2.9c4-1.4,8.4-1.3,12.3-3.1
		c-1.5-0.6-3.1-0.3-4.8-1c2.8-1.4,5.9-1.9,9-3.4c-1.9-0.8-3.5-0.4-5.3-1c2.7-1.4,5.5-1.9,8.2-3.4c-1.5-0.3-2.7-0.5-4.1-0.8
		c1.3-1.1,3-0.9,4.2-1.8c-0.9-0.7-1.8,0-2.8-0.4c2-1.4,4.5-1.8,6.3-3.4c-2-0.7-3.9,0.1-6.3-0.3c3.8-3.5,7.9-5.7,12.3-8.1
		c-2.8-1.4-5.3-0.5-7.8-0.3c0-0.2-0.1-0.4,0-0.5c2.2-2.7,2.1-5.5,0.9-8.6c-0.9-2.2-2-4.3-1.9-7c1.3,0.3,1.9,1.3,2.6,2.1
		c1.5,1.9,2.4,4.1,3.3,6.4c0.7,1.8,1.3,3.6,2.3,5.3c0.7,1.3,1.5,2.6,3,3.6c0-1.6-1.3-2.6-1.5-4.5c2.7,3.3,5.4,6,7,9.5
		c1.3,2.9,0.6,5.1-2.3,6.6c-1.1,0.6-2.3,1.2-3.1,2.1c0.6,0.8,1.4-0.1,2.2,0.3c-2.1,2.2-5.1,2.5-7.8,4.4c4.5-0.7,7.9-2.6,11.5-4.2
		c-1.8,2.4-4.6,3.6-7.6,5.3c2.8,0.1,4.8-1,6.9-1.4c-3.2,2.9-7.4,3.8-11.1,5.6c4.8-0.2,8.9-2.5,13.6-4.4c-1.2,2.2-2.7,3.3-4.4,4.2
		c-3.3,1.9-6.8,3.2-10.3,4.5c-1.3,0.5-2.6,0.8-3.7,1.7c5.5,0.1,10.3-2.2,15.3-4c-4.5,3.5-10,4.6-15.1,6.9c1.5,1.6,1.5,1.6,7.3,1.3
		c-2.6,1.8-5.4,2.7-8.1,4.4c1.2,0.6,2.1,0.2,3,0.1c1-0.2,1.3,0.2,1,1.2c-0.4,1.1-1.2,1.9-2.1,2.5c-1.7,1.2-3.6,2.1-5.4,3
		c-1.8,0.9-3.5,1.8-5.3,2.9c4.6-0.3,8.7-2.3,13-3.5c-2.5,3.1-6.1,4.1-9.4,5.7c4.4,0.2,8.2-1.5,12.1-3.3c-0.8,2-2.2,3.4-3.7,4.8
		c-1.6,1.5-3.4,2.7-5.1,3.9c-1.7,1.2-3.4,2.3-5.3,4c4.2-0.4,7.3-2.6,11-3.1c-1.8,1.3-3.6,2.5-5.3,3.8c2.4-0.1,4.2-1.5,6.3-2.2
		c-3.4,3.7-7.7,6.1-11.7,9.1c4.4-0.9,8.3-3.1,12.4-5.2c-0.5,1.8-1.4,2.9-5,5.5c-2,1.5-4.2,2.9-6.3,4.4c1.4,2.2,4.1,2.3,6.2,4.2
		c-3.7-0.2-6.2-2.2-9.3-3.2c1.3,1.5,2.7,3.1,4.2,4.8c-1,0.2-1.4-0.7-2.2-0.5c-0.2,0.2-0.2,0.4-0.1,0.6c0.7,1.1,1.7,1.9,2.7,2.7
		c0.6,0.4,1.3,0.6,1.8,1.5c-3.6-0.8-6.1-2.8-8.4-5.3c0.4,3.9,2.7,7.5,8.5,13.2c-2.9-0.2-4.9-2.4-7.5-2.9c-0.2,1,0.8,1.5,0.7,2.5
		c-2.5-0.7-3.7-2.9-5.6-4.5C394.5,445.6,395.5,446.5,396,447.8z M182.9,336.3c2.8-7.2,8.5-11.2,16-12.5c2.7-0.5,5.4-0.4,8.1,0.2
		c5.2,1.2,9.1,4.2,11.6,8.9c2.4,4.4,3.2,9.1,3.4,14.8c0.4,8.5-5.6,14-12.3,15.7c-9.3,2.3-17.3,0.1-23.6-7.2
		C181.2,350.3,180.1,343.5,182.9,336.3z M402.1,338.6c-0.1,0-0.2,0-0.2-0.1c-2-4.1-5-7.6-7.3-11.6c3.8,3.1,6.9,6.5,7.8,11.7
		C402,338.3,402.4,338.6,402.1,338.6z M372.3,368.1c-12.5,0.1-21.4-10.2-19.8-23.2c1.3-10.4,9.1-18,19.5-18.9
		c7.8-0.7,13.9,2.8,18.7,8.8c3.7,4.7,4.7,10,3.4,15.8C391.8,360.7,382.7,368.1,372.3,368.1z M374.2,375c-3.7,0-7-1-10-3.1
		C367.5,373.1,370.8,374.1,374.2,375z M364.8,314.9c3.7-5.2,15.3-5.1,18.2-0.1C376.9,312.8,371,312.7,364.8,314.9z M390.1,319.6
		c4,1.9,7.2,4.6,9.1,8.9C396.9,327.7,392.3,323.3,390.1,319.6z M400.3,361.7c-2.1,5.4-10.2,11.3-19.5,10.6
		C387.8,370,394.2,366.6,400.3,361.7z M340.2,360.7c-2.8-1.1-3.7-3.8-5.6-5.6c0.1-0.2,0.2-0.3,0.3-0.5c1.7-0.1,3.5-0.2,5.2-0.4
		c0.7-0.1,1.3,0.1,1.3,0.9C341.4,357.1,341.3,359,340.2,360.7z M427.5,530.9c-0.7,1.9-1.4,3.7-2.4,5.4c-0.5,0.9-1.3,1-2.1,0.3
		c-0.8-0.7-1.4-1.6-1.8-2.6c-0.7-1.9-1.2-3.9-1.2-5.9c0-0.1,0-0.2,0-0.2c0.1-0.7-0.3-1.8,0.4-2.1c0.7-0.3,1.4,0.5,2,1
		c1.4,1.3,2.8,2.7,4.8,3.3C427.6,530,427.7,530.4,427.5,530.9z M461.9,541.9c-1,1.9-2.4,3.6-4,5c-1.1,0.9-1.6,0.9-2.7-0.1
		c-1.5-1.4-2.8-3-3.7-4.8c-0.8-1.6-0.7-3.1,0.5-4.4c0.9-1.1,1.8-2.1,2.8-3.1c0.5-0.5,1.1-0.7,1.7-0.6c2.7,0.6,4.6,2.2,5.8,4.8
		c0.2,0.4,0.2,0.8,0.2,1.2C462.5,540.5,462.3,541.2,461.9,541.9z M492.3,525.2c-0.3,0.7-0.7,1.3-1.3,1.9c-2.2,2.3-5,3.7-8.2,4.9
		c1.7-3.3,2.8-6.5,4.5-9.5c1.1-1.9,3.5-2.4,4.8-1C493,522.7,492.7,523.9,492.3,525.2z M506.8,514.4c-1.2,1.7-2.5,3.3-4.2,4.5
		c-0.2,0.1-0.5,0.2-0.7,0.3c-0.7-0.1-0.8-0.3-0.7-0.9c0.7-2.1,1.3-4.2,2-6.2c0.1-0.2,0.1-0.4,0.4-0.5c0.7-0.1,2.8,0.9,3.2,1.5
		C507.1,513.5,507,513.9,506.8,514.4z M503.9,509.1c-1.5-0.2-1.7-0.3-1.5-1.9c0.4-3.8,0.7-7.5-0.2-11.3c-0.3-1.4-0.7-2.7-1.4-3.9
		c-1.9-3.4-4.1-6.6-6.3-9.7c-0.1-0.2-0.3-0.3-0.6-0.7c0.7,2,1.3,3.7,1.9,5.3c0.9,2.6,1.6,5.2,2.3,7.8c0.8,3.3,0.1,6.6-0.5,9.8
		c-0.2,0.9-0.5,1.7-0.7,2.5c-1.6,5.8-6.1,8.9-11.3,11c-1.3,0.5-2.8,0.6-4.3,0.4c-2.3-0.3-3.9-2.2-4-4.5c-0.1-4.5-0.8-8.8-2.2-13
		c-0.1-0.4-0.3-0.7-0.4-1.1c0-0.1-0.1-0.2-0.2-0.4c0.2,1.9,0.4,3.8,0.5,5.7c0.2,5.8-0.4,11.5-3.3,16.6c-3.4,6-8.2,10-15.7,9.7
		c-2.9-0.1-5.7-0.5-8.4-1.5c-3.1-1.1-4.9-3.3-5.7-6.4c-0.7-2.5-0.8-5-0.8-7.6c0.2-6.5,0.5-12.9,1.7-19.3c0.1-0.7,0.4-1.4,0.3-2.2
		c-0.3,0.7-0.7,1.3-1,2c-1.8,4.6-3,9.4-3.9,14.3c-0.5,2.5-0.9,5.1-1.5,7.6c-0.3,1.3-0.9,2.6-1.6,3.7c-1.7,2.6-4.2,3.5-7.2,2.6
		c-6.9-2.1-11-8.2-10.8-15.5c0.2-7.1,1.3-14,2.7-21c0.1-0.6,0.2-1.3,0.3-2.1c-0.6,0.8-0.7,1.6-0.9,2.3c-1.6,4.4-3.5,8.6-6.4,12.4
		c-0.8,1-1.7,1.9-2.7,2.7c-1.9,1.3-3.7,1.2-5.5-0.3c-2.3-2-2.9-4.5-2.4-7.5c1.9-10.7,6.6-19.8,15.1-26.8c3.5-2.9,7.8-4.1,12.1-5.2
		c6-1.5,12.1-1.8,18.2-2.2c8.4-0.5,16.7-0.5,25.1,0c7.5,0.5,14.6,2.2,21,6.1c1.6,0.9,3.2,1.7,4.8,2.7c7.2,4.2,12.7,9.9,15.7,17.8
		c1.7,4.4,2.4,9,0.8,13.7C513.4,507,509,509.8,503.9,509.1z M482.3,399.3c-4.7-3.9-8.1-8.8-10.7-14.2c-3.7-7.8-5.5-16-6.3-24.8
		c0.9,1,1,2.2,1.3,3.3c2,7,4.1,13.9,7.2,20.5c1.6,3.4,3.5,6.6,5.8,9.6c4.9,6.4,11.5,9.9,19.3,11.6c1.7,0.4,3.4,0.7,5.1,1.1
		C495.9,406.9,488.6,404.5,482.3,399.3z M510.4,396.5c0.9,0.2,1.7,0.3,2.8,0.1c-2.8-1.6-4.2-4.2-5.4-7c-0.6-1.3-0.3-2.3,0.6-3.3
		c0.5-0.6,1-0.7,1.6-0.2c5.3,4.4,9.7,9.5,12.6,15.7c0,0.1,0,0.3-0.1,0.7c-5.3-1.9-10.6-3.9-16.2-5.9c0.6,1.1,1.4,1.5,2,2
		c2.5,1.8,5.4,2.8,8.3,3.7c1.6,0.5,3.2,1,4.6,1.9c1.8,1.1,2.9,2.7,3,4.9c0.1,1.8,0.1,3.6-0.4,5.4c-0.8,0-0.9-0.6-1-0.9
		c-2-4.2-5.1-7.3-8.8-9.9c-2.6-1.8-5.5-3.3-8.3-4.7c-6.1-3-11.3-7.1-15.4-12.6c-0.7-0.9-1.3-1.8-2-2.9c0.9-0.1,1.3,0.5,1.7,0.8
		c3,2.8,6.1,5.4,9.6,7.6C502.8,394.2,506.4,395.7,510.4,396.5z"/>
	<path d="M540.1,469.8c-3.7-4-7.2-8.4-10.8-12.5c4.7,9.6,14,20.2,23.3,23.6C548,477.6,543.9,473.9,540.1,469.8z"/>
	<path d="M255.5,640.7c-7.4-1.3-14.4-3.2-21.5-4.8C239.1,639.7,251.9,642.5,255.5,640.7z"/>
	<path d="M75.5,451.7c4.3-3.5,7.4-10,11.3-20C82.3,437.9,79.9,445.4,75.5,451.7z"/>
	<path d="M545.1,479.7c-0.1,0.1-0.2,0.3-0.3,0.4c3.9,3,8.2,5.2,13,6.5C553.6,484.3,549.3,482,545.1,479.7z"/>
	<path d="M159.3,551.1c-4.2,3.3-8,6.6-10.9,10.7c-1,0.5-1.4,1.5-1.9,2.4c0.8-0.6,1.7-1.2,2.1-2.2
		C151.1,559.9,158.5,552.5,159.3,551.1z"/>
	<path d="M281.3,512.3c-0.4-1.3-0.7-2.6-2.4-3.2c0.3,1.9,0.5,3.6,0.8,5.4c-0.9-0.5-1.1-1.3-1.4-2c-0.8-1.4-1.4-2.9-2.4-4.1
		c-1-1.2-2.1-1.9-4-1.1c0.7,1,1.2,1.7,1.8,2.5c1.2,1.6,2.4,3.2,3.3,5c0.7,1.3,1.1,2.7,0.5,4.4c-2.7-5.9-4.9-7.7-8.5-7
		c4.6,2.5,6.6,6.6,7.4,11.5c0.3,2,0.2,4.1,1,6.5c0.2-0.4,0.3-0.6,0.4-0.8c1.6-3.5,2.9-7.1,3.6-10.9
		C281.7,516.4,281.9,514.3,281.3,512.3z"/>
	<path d="M238.2,302.8c3.4-13.2-1.9-24.7-8.4-28c2.7,3.3,5,6.8,6.5,10.9c-0.8,0.1-1.6-1-1.8-0.1c-0.4,1.5-1.2,0.8-2.2,0.7
		c0.8,2.9,1.7,5.5,1.4,8.3c-0.9-1.8-1.6-3.8-2.4-5.6c-0.8-1.8-1.9-3.5-4-4.7c0.1,0.4,0.1,0.6,0.2,0.7c4.2,5,5.7,11,6.4,17.3
		c0.1,0.9,0.1,1.9,0.7,2.9c1.2-4.8,0.3-9.5,1.3-14.5c0.7,1.1,0.5,2,1.2,2.7c0.1-0.3,0.1-0.6,0.3-0.8c0.3-0.4,0.6,0,0.7,0.2
		c0.5,1.5,0.6,3,0.5,4.5C238.4,299,238.3,300.9,238.2,302.8z"/>
	<path d="M221.5,402.5c0.6,0.3,0.8-0.6,1.4-0.1c-0.2,1.6-1,3.4,0.5,5.4c2.2-5.9,5.4-11,8.7-16.4c-2.1,0.2-2.9,1.8-4.4,2.5
		c2.3-4.5,6-8,7.5-12.9C229.4,387.5,222.8,393.3,221.5,402.5z"/>
	<path d="M349.4,283.8c-0.2,0.3-0.6,0.8-0.1,1c1.2,0.4,0.5,1.1,0.3,1.7c-1.1,2.8-2,5.7-2.8,8.6c-0.8,3.3-1.6,6.7-1.8,10.2
		c1.5-1.7,2.1-4.1,3.9-5.6c-0.5,4.2-2.5,8.1-2.1,12.4c1.4-4.4,4-8.3,5.7-12.6c-1-0.1-1.1,1.2-2,0.9c-0.4-1.2,0.1-2.4,0.5-3.5
		c0.4-1.1,0.9-2.1,1.2-3.1c0.3-1,0.6-2.1,0-3.2c-1.5,1.2-2,3-3.8,4.1c1.1-5.7,2.8-10.7,6-15.1C352.3,280.5,350.6,281.8,349.4,283.8z
		"/>
	<path d="M303.5,478.4c-4.4,0.1-6.9,2.8-10.2,5.1c1.6-3.6,4.3-5.5,6.2-8.2c-0.3,0-0.4-0.1-0.6-0.1c-3.9,1.9-6.9,4.9-9.1,8.6
		c-0.5,0.8-1,1.8-0.7,2.7c0.5,1.7,0.9,3.3,0.4,5.1c-0.1,0.4,0,0.8,0.4,1c0.5,0.2,0.7-0.1,1-0.4c2.9-2.7,6.3-4.6,9.7-6.6
		c0.4-0.2,0.9-0.3,1-1c-3.6-0.1-6.1,2.2-9.1,3.4C295,483.7,299.3,481.5,303.5,478.4z"/>
	<path d="M254,324.4c4-4.8,7.2-9.4,6.6-15.9C258.5,310.6,255,319.1,254,324.4z"/>
	<path d="M345.4,417.7c5.1,6.1,10.1,12.3,15.2,18.4c0.1-0.1,0.3-0.2,0.4-0.3C357.8,428.1,351.6,422.9,345.4,417.7z"/>
	<path d="M396.8,421.8c-5.2,1.4-10.1,3.6-15.4,4.8c2.2,0.8,4.6,0.8,6.7,0.6C391.6,426.9,394.5,424.7,396.8,421.8z"/>
	<path d="M285.5,508.8c-2.8,6.3-3.6,12.9-5.5,19.3C283.7,523.3,286.7,512.7,285.5,508.8z"/>
	<path d="M332.6,303c1.3-5.4,4.5-9.8,7.4-14.3c-7.8,8.5-10.9,18.6-10.5,30C330.4,313.4,331.3,308.1,332.6,303z"/>
	<path d="M241.5,294.7c1.9,9.2-1.6,17.5-3.2,26.1c1.2-1.7,1.7-3.7,2.2-5.6c0.8-3,1-6.2,2.2-9.1c1.2-3.1,0.8-6.1,0.1-9.1
		C242.7,296.3,242.5,295.4,241.5,294.7z"/>
	<path d="M362.5,267.1c-5.6,0.3-10.6,2.2-15.1,5.5c-1.6,1.2-3.1,2.6-4.1,4.3c-0.2,0.4-0.8,0.8-0.2,1.5
		C348.3,272.4,355,269,362.5,267.1z"/>
	<path d="M176.4,392.2c-3.2-4.6-7.4-8-8.4-13.4C167.6,385,171,390.5,176.4,392.2z"/>
	<path d="M284.7,527.8c0.1,0.1,0.3,0.2,0.4,0.3c3.8-4.3,7.5-8.5,11.3-12.8C290.9,518.1,287.6,522.7,284.7,527.8z"/>
	<path d="M356.9,402.9c-3.3-5-7.8-8.3-11.4-12.6C346.6,394.3,352.7,401,356.9,402.9z"/>
	<path d="M327.3,308.3c-2.2,6.7-2.4,15.1-0.1,18.6C326.4,320.7,327.3,314.5,327.3,308.3z"/>
	<path d="M379,422.7c-0.6,0.1-1.3,0.1-1.9,0.2c-0.1,0-0.2,0.1-0.2,0.1c0,0.1-0.1,0.1-0.1,0.2c0,0.1,0.1,0.2,0.1,0.1c0,0,0,0-0.1,0
		c1.8,0.7,3.6-0.5,5.6-0.1c-1.3,0.7-2.6,0.6-3.9,1.1c3,0.9,8.6-0.4,11.5-2.7C386.2,422.1,382.6,422.4,379,422.7z"/>
	<path d="M236.8,268.1c1.8,2.5,3.7,5,5.3,7.7c1.6,2.7,2.9,5.5,4.4,8.2C245,277.6,242.5,271.8,236.8,268.1z"/>
	<path d="M219.9,428c2.7-3.6,5.3-7.2,8-10.8C223.8,419.7,220.8,423.1,219.9,428z"/>
	<path d="M250.4,292.2c0.6-5.5-0.2-10.8-3.1-15.6C248.5,281.7,249.7,286.9,250.4,292.2z"/>
	<path d="M232.6,313c0.6-5.5,0.5-10.8-2.8-15.6C231.9,302.4,231.9,307.7,232.6,313z"/>
	<path d="M184.6,386.4c3.5-1.2,6.7-2.9,10.2-4C190.7,382,187.4,383.5,184.6,386.4z"/>
	<path d="M330.4,292c1.4-4.3,3.1-8.5,4.7-12.7C332.4,283.2,330.4,287.3,330.4,292z"/>
	<path d="M289.2,332.7c-1,3.6-1.7,7.1-2,10.8C289.4,340.2,290,336.6,289.2,332.7z"/>
	<path d="M189.3,395.2c2.9-2.1,5.9-3.9,8.7-6C194.4,390,191.2,391.5,189.3,395.2z"/>
	<path d="M352.2,406.3c-1.7-3.5-4.5-6-7.4-8.5c-0.1,0.1-0.2,0.3-0.4,0.4c2.5,2.8,4.9,5.6,7.4,8.4C351.9,406.5,352,406.4,352.2,406.3
		z"/>
	<path d="M322,346.3c-1-3-1.5-6.1-2.9-8.9C319.6,340.5,320,343.7,322,346.3z"/>
	<path d="M211.5,584.6c0.7-0.3,1-0.7,1.1-1.4C211.9,583.5,211.6,583.9,211.5,584.6z"/>
	<path d="M369.7,332.3c-9.4,0.6-15.3,11.3-10.8,19.5c0.7,1.3,1.8,2.4,3.3,2.5c2,0.1,3.4,1,4.9,2.2c2.1,1.6,3.8,1.2,5.1-1.1
		c0.4-0.7,0.6-1.5,0.9-2.2c0.6-1.3,1.4-1.4,2.3-0.2c0.5,0.7,0.7,1.4,0.9,2.2c0.2,0.9,0.7,1,1.4,0.6c0.8-0.4,1.4-1.1,1.9-1.8
		c1.8-2.3,2.6-4.9,2.6-6.6c0-5.4-1.4-9-4.3-12C375.7,333.2,372.9,332.1,369.7,332.3z M368.3,338.7c-0.3,1.8-1.5,2.7-3.1,3.2
		c-3,0.9-3.2,1.2-3.2,4.3c0,1.4,0.4,2.8,0.6,4.8c-3.2-4.4-2.2-10,0-12.9c1-1.4,2.4-2,4.2-1.8C368,336.5,368.5,337.3,368.3,338.7z"/>
	<path d="M200.5,352.6c1.2,0,2.4-0.2,3.5-0.5c1.2-0.3,2.3-0.3,3.5,0.2c2.4,1.1,4.5,0.4,6.4-1.2c6-5.3,5.5-14.6-1.1-19.3
		c-4.2-3-9.5-2.9-13.6,0.3c-3.6,2.8-5.3,6.7-5.4,11.3c0,1.8,0.2,3.5,0.8,5.2C195.7,351.4,197.5,352.6,200.5,352.6z M207.4,334.8
		c0.3-1.1,1.1-1.5,2.2-1.4c2,0.2,3.6,1,4.5,2.8c1.7,3.7,1.8,7.5-0.8,11.5c0-1.8,0-3,0-4.3c-0.1-2.8-1.3-4.9-3.9-6.1
		c-0.3-0.1-0.6-0.3-0.9-0.4C207.5,336.5,207.1,335.7,207.4,334.8z"/>
</g>
</svg>
