<?xml version="1.0" encoding="utf-8"?>
<!-- Generator: Adobe Illustrator 24.2.3, SVG Export Plug-In . SVG Version: 6.00 Build 0)  -->
<svg version="1.1" id="Layer_1" xmlns="http://www.w3.org/2000/svg" xmlns:xlink="http://www.w3.org/1999/xlink" x="0px" y="0px"
	 viewBox="0 0 595.3 841.9" style="enable-background:new 0 0 595.3 841.9; fill: #215342;" xml:space="preserve"
	 height="400" width="500" transform="translate(-85, -52)">
<g>
	<path d="M259.5,570.1c-2.9-4.5-3.9-9.7-5.9-14.7c0.2,3.7,0.3,7.4,0.8,11.1c0.4,3.6,1.3,7.2,2,11.2c-6.1-10.6-3.8-22-3.4-34.1
		c-9.5,11.6-5.7,22.3-0.6,33.3c-3.8-3.4-5.6-7.2-8.6-18.3c0.2,3.3,0.3,5.2,0.4,7.2c-4.3-6.4-4.4-13.5-5.3-20.5
		c-2.4,9.9,1.4,18.5,6.3,26.9c-5.9-4-10.6-17.1-9.4-27.4c-1.3,2.6-2.1,4.2-3.2,6.5c0.6-6.6,3.7-11.5,6.8-17.3
		c-4.6,2.9-6.8,6.5-8.8,10.3c1-7.3,8.9-15.7,13.6-14.5c-0.2,1.6-2.9,1.7-2.2,3.8c1-0.8,1.9-1.7,2.8-2.5c1,1.1,0.6,2.9,2.4,2.9
		c-2.4,5.4-5.4,10.4-4.9,16.9c2.8-5.8,8.4-9,10.6-14.8c5.4,0.2,4.6-4,5.6-8c-1.8,2.1-3.1,3.5-4.3,4.9c1.1-2.7,2.3-5.5,3.5-8.4
		c-2.5-0.1-4.5-0.2-6.6-0.3c-0.7-5.1-4.8-0.7-7.1-2.5c1.6-2,3.2-3.9,4.7-5.8c-2.1,2.1-5.2,0.3-8.8,3.9c1.8-2.5,2.2-3.1,3-4.1
		c-7.3,5.3-15,19-14.7,25.6c-0.3-1.6-0.5-3.2-0.8-5.1c-0.6,1.8-1,3.4-1.6,5.4c-1.7-2.7-0.7-5.1-0.6-8.4c-2.1,6.2-0.3,11.6-0.9,18.3
		c-3.6-13.6-1.8-25,5-36.6c-13.7,5.2-30-3.5-41.3,11.1c1.6-5.3,3.9-9.3,7.6-12.1c3.7-2.7,7.7-5.9,12.5-4.9c4.8,1,9.3-1,13.9-0.8
		c-2.4-0.4-4.8-0.9-7.2-1.3c0-0.2,0-0.5,0-0.7c1.9-0.1,3.8-0.3,7.5-0.6c-10.3-1.1-18.2-0.3-26.3,7c5.6-11.6,15.1-12.8,26.4-15.2
		c-9.1-0.3-15.6-4.7-22.4-0.2c-0.5-1.7,0.4-2.8,1.4-4.1c-12.4,0-24.5,0-36.9,0c0.2,6.6-3.8,9.8-9.4,11.2c-4.4,1.1-5.6,5.1-8.2,7.9
		c-2.3,2.4-4.3,4.9-8.2,6c0-4.3,0-8.1,0-14.4c-3.9,10.5-10,17-14.3,24.6c-0.5,1-1,2.3-2.5,2.2c-1.6-0.2-1.8-1.7-2.1-2.8
		c-0.9-3.6-1.7-7.2-2.6-11c-2.7,2.8-1.9,6.5-3.5,9.6c-5.5-1.1-9.5-4.8-13.6-8.2c-1.9,1.6-2.5,3.7-3,5.8c-0.9,4.1-3,4-5.8,1.7
		c-3.9-3.3-6.2-7.8-8.8-12c-1.4-2.2-3-3.6-5.9-2.7c-0.7,5.1,1.7,9.5,3.8,14.7c-6.4-2.8-11.7-5.6-13.8-12.1c-0.5-1.6-1.4-2.6-2.8-3.5
		c-5.5-3.5-8.5-8.5-9-15c-0.2-2.3-0.8-2.6-3.5-2.5c-14.1,0.4-28.3,0.2-42.4,0.2c0-1,0-2-0.1-2.9c8.4,0,16.9,0,25.2,0
		c4.4-20.6,5.7-21.8,30.3-45c-4.9,1.7-9.2,3.2-13.4,4.7c-0.1-0.2-0.2-0.4-0.3-0.6c4.4-2.2,8.8-4.4,13.3-6.6
		c-2.7-1.2-5.4-2.4-8.1-3.6c14.6,2.5,28.3-1.3,41.9-5.7c-2.8,0.3-5.6,0.7-9.8,1.2c9.1-3.4,17.2-4.9,25.8-5.5
		c-6.2-1-11.8,0.1-17.7,0.8c9.2,0.1,12.7-9.7,20.9-11.5c-2.9,1.5-5,3.6-6,6.6c8.9,0.4,17.6,0.9,26.7,3.1c-1-6.9-3.5-13.5-1.8-20.3
		c-1.3-0.7-1,2.7-2.5-0.2c-0.1,1.8-0.1,3-0.2,4.2c-0.1,0-0.3,0-0.4,0c0-1.7,0-3.3,0-5c-0.2,0-0.3,0-0.5,0c0,2.5,0,5,0,7.5
		c-1-7.9-2.2-15.8-5.4-24.3c0.2,2.4,0.4,3.9,0.6,7c-2.7-7.6-3.1-14-3.8-20.4c-0.3,2-0.5,4.1-0.8,6.3c-0.3-9.5,1.6-18.3,5-27
		c-4.1,4.7-6.4,10.4-9.1,15.8c6.7-23.4,23.8-40.1,38.8-60.8c-3.1,2.8-4.8,4.2-6.4,5.8c-1.6,1.6-3.1,3.2-4.8,4.7
		c5.2-8.7,11.5-16.5,17.9-24.3c-5.5,3-10,7.1-14.5,11.4c2.7-3.7,5.5-7.4,8.2-11.1c-0.2-0.2-0.4-0.3-0.6-0.5
		c-3.5,4.2-7,8.5-11.3,13.5c7.1-14.7,18.9-22.8,31.9-29.7c-7.9,2.1-14.8,6-21.6,10.2c6.2-7,13.5-12.5,21.8-16.9c-4.4,1-8.8,2-15,3.4
		c7.6-5.2,14.5-7.5,22.2-9.6c-3.4-1.5-6.2-2.8-10-4.6c7,0,12.9,0.5,18.7-0.1c6-0.6,10.2-5.5,15.2-8.7c-4,1.8-8.1,3.5-12.6,5.5
		c4.6-4.2,9.5-6.8,15.5-9.3c-2.3-0.2-3.7-0.3-7.6-0.6c11.9-1.6,21-5.2,30.9-4.3c-4.3,1.2-8.6,2.4-12.9,3.5c0,0.2,0.1,0.3,0.1,0.5
		c4.1-0.4,8.1-0.8,12.2-1.2c0,0.2,0.1,0.4,0.1,0.7c-4.5,0.9-9.1,1.8-13.6,2.7c0,0.1,0,0.2,0,0.4c2.3-0.2,4.7-0.3,7.3-0.5
		c-5.3,2.3-11.3,1.8-16.3,5.6c1.7,0.2,2.8,0.3,4.3,0.5c-2.1,0.9-3.9,1.7-6.8,2.9c4.8-0.1,8-2.5,13.3-1.4c-10.2,2.2-18,6.1-25.3,12.6
		c12.6-5.4,24.8-6.6,37.6-5.3c12.9,1.4,22.3,9.2,32.3,16.3c-6-14.7-19.6-17.8-34.1-23.1c3.4,0.4,4.8,0.5,8.1,0.9
		c-2.5-0.8-3.2-1-6.1-2c4.9,0.4,7.5,0.6,10.1,0.8c0-0.2,0-0.4,0.1-0.7c-4.5-0.5-8.9-1-14.2-1.5c2.9-0.5,5.2-0.9,8.5-1.6
		c-4.8-1.3-8.5-0.6-13.4-0.2c11.6-3.4,21.2,1,32.4,3.8c-3.1-2.4-4.9-3.9-7-5.5c9.2-1.7,16.4,1.3,22.7,7.1c0,0.1,0,0.3,0,0.4
		c-2.7,1-4-2.3-7.4-2c16.9,9.6,25.6,23.4,24.7,43.4c2.6-4.5,1.8-11.2-0.8-20.1c-5.7-19.8-19.3-30.2-38.9-33.7
		c-6.6-1.2-12.4-4.9-19.1-5.6c-4.5-0.5-8.9,0.1-13.8,1.1c15.2-12,57.8-0.2,70.2,24.7c-0.2-12.8-11.5-25.6-24.9-29.3
		c-12.9-3.5-25.6-5.2-38.7-1.4c12.9-5,26.3-5.1,39.1-1.1c12.9,4,24.2,11.1,25.3,28.5c2-6.1,1-10.4-0.2-15.1c0.4,0.9,0.8,1.8,1.7,4.1
		c1-11.8-6.5-19.7-19.7-22.9c-10.6-2.6-21.2-3.4-32-1.7c12.1-4.3,24.1-1.7,36.2,0.8c-2-0.9-4.1-1.9-7.5-3.5c2.8,0.2,4.1,0.3,6.7,0.4
		c-5.8-2.5-10.3-4.3-15.9-4.5c15-4.7,33.5,12.8,35.8,33.1c1.3-2.7,3.4-16.3,2.7-18.6c-1.9-6.2-6.7-10.5-10.6-15.4
		c7,2.8,11.2,8,12.6,15.5c3.5-7.3-3.4-15.4-17.2-20.2c5,0.6,8.9,2,13,3.5c-2.3-1.7-4.7-3.3-7.3-5.2c12.2,2.9,16.2,10.7,14,22.6
		c6.3-5.2,5.1-13-2.9-22.7c7.4,3.8,10.4,14.3,5.5,22c-3.1,4.8-2.8,10-4.4,16.4c4.1-4.9,6.1-9.3,7.4-14.1c-0.3,2.1-0.6,4.2-1,6.2
		c0,0.5,0,0.9,0,1.4c-2.7,5.8-7.1,10.8-8.6,16.9c16.2-12.6,28.3-32.8,53.6-28.8c-1.2-0.2-2.5-0.4-3.7-0.5c-1.2-0.1-2.3,0-5.4,0
		c3.6,0.6,5.3,1,7.6,1.4c-10.1,0.8-18.3,4.9-26.7,9.5c-12.1,6.5-20.9,15.1-24.6,28.3c-2.2,7.7-0.4,15.2,3.9,23.4
		c0.4-10.5,0.1-19.9,4.1-28.5c3.9-8.6,10.9-14.3,18.9-19.1c-19.6,14.2-25.7,32.6-18.1,55.5c-0.4-8.7-3.1-17.5,2.4-27.5
		c-1.9,8.2-2.1,14.8,0.3,22.2c0.7-13.8,0.6-27.5,12-36.3c5.1-3.9,8.8-10.1,15.9-11.6c0.8,2.5-0.5,3.8-2,5.2
		c-5.9,5.2-12.3,9.7-16.9,16.2c-5.2,7.3-4.3,15.6-3.7,23.8c0.2-1.3,0.5-2.7,0.7-4c0.2-1.4,0.5-2.9,1.1-4.4c0,2.7,0,5.4,0,8.2
		c3.5-6.8,5.5-14.1,11.1-19.6c-2.1,4.8-4.1,9.7-6.2,14.5c0.3,0.1,0.5,0.2,0.8,0.3c0.7-1.3,1.3-2.7,2.5-5.1c-1,3.9-1.7,6.5-2.3,9.2
		c3.8-7.5,11.6-10.8,16.9-16.6c12.2-13.7,27.5-17.5,45.1-13.5c1.1,0.2,2.3-0.1,3.4-0.2c5,3.9,10,7.7,15.1,11.6
		c-3.4-4.3-7-8.2-11.7-11c2.8,0.4,5.2,1.5,7.4,3.2c-5.7-7.2-14.4-9.1-23-13c2,0.2,3,0.3,5.9,0.6c-11.5-4.6-21.7-2.7-33-2.1
		c19.4-5,35.9-1.8,50.5,11.1c-2-5.3-5.2-8.8-9.6-11.5c3.4,1.2,6.9,2.4,12.1,4.3c-7.9-6.5-15.1-9.9-23.4-12.1
		c8.9-2,39.6,10.1,46.6,18.6c-7.3-3.4-12.9-8-20.2-9.4c5.4,3.5,10.8,6.5,15.7,10.1c5,3.7,9.2,8.5,12.4,14.1
		c-7.7-9.1-16-17.2-28.3-19.8c15,5.8,22.8,19.4,33.2,30.1c7.8,8,17.3,13.4,27.5,17.7c2.3,0.9,4.5,2.1,6.5,3.5
		c-4.2-1.6-8.4-3.3-12.6-4.9c14.3,7.2,26.2,17.1,34.2,31.3c-3.7-4-7.3-8-11-12c4.4,5.6,5.5,12.5,7.8,19.4c-4.5-3.7-8.2-8-13.8-10
		c20.1,14.4,21.4,33.7,15.1,55.1c0.6-4,0.3-8-0.7-12.7c-1.5,8.3-3,15.9-6.3,23c0.7-4.6,1.3-9.2,0.4-15.9c-1.2,9.7-2.4,17.4-6.9,26
		c1.2-4,2-6.3,2.7-8.6c-3.6,6.4-6.6,13-11.1,19.4c10.6,3.3,20.2,8.8,31.5,8.8c-2.2,0.3-4.4,0.6-8.5,1.1c7.4,0.8,12.9,1.3,19.2,2
		c-1,0.8-1.5,1.1-2.2,1.6c2.2,0.8,4.2,1.6,6.7,2.6c-0.9,0.3-1.4,0.5-2.3,0.8c3,3.1,7.7,3.9,9.5,8.4c-1.1-0.8-2-1.5-2.9-2.2
		c7.6,7.1,9.4,17.1,12.8,26.5c-0.7-0.3-1.4-0.7-2.3-1.1c0.1,5.7,2.9,11.2,0.4,17.1c16,0.2,31.8-0.3,47.6,2.1
		c-7,0.4-14.1,0.8-21.1,1.1c-11.1,0.5-22.2,0.9-33.2,1.2c-1.9,0.1-2.9,0.7-3.8,2.4c-2.6,4.8-5.9,9-10.2,12.4
		c-1.1,0.9-2.3,1.9-4.3,1.2c1.4-6.8,1.2-13.6-1.5-20.9c-0.4,3.4-0.1,6.3-1,8.7c-3.5,8.8-7.4,17.5-11.4,26.2
		c-0.8,1.6-2.3,3.2-4.6,3.7c0.6-3.9-0.8-7.1-3-10.4c-3.7,2.7-2.7,7-4.3,10.5c-5.8-1-10.9-3.3-15.5-8.3c-0.3,2.9-0.3,5.2-0.7,7.5
		c-0.2,1-1,2-1.5,3c-0.8-0.6-1.8-1.1-2.4-1.8c-6.2-6.9-9.8-15.5-15.5-24.5c0,6.1,0,10.7,0,15.8c-4.1-0.7-6-3.1-8.1-5.6
		c-3.4-4.1-7.7-7.7-11.1-11.6c-10.1-11.4-22.6-6.7-34.3-7.5c-8.2-0.5-16.4-0.1-25.4-0.1c4.8,2.7,8.9,5,13,7.3
		c-5.1-1.1-9.7-4.1-16.5-4.2c2.6,2.7,3.8,4,5.4,5.7c-1,0-1.5,0-2.2,0c0.9,1.1,1.7,2,2.5,3c-0.1,0.2-0.3,0.3-0.4,0.5
		c-1.7-1.2-3.3-2.5-5-3.7c6.6,8.5,12.2,17.2,13.9,29.1c-5.5-12.8-17.1-16.4-27.6-21.3c5.3,3.2,10.5,6.4,15.8,9.7
		c-0.1,0.2-0.2,0.4-0.3,0.6c-4.5-2.1-8.9-4.2-13.8-6.6c1.3,3.4,2.5,6.3,3.6,9.2c-2.6-3.2-4.2-6.9-8.2-10.3c6,11.4,11.2,22,7.9,34.4
		c0.3-6.4-0.9-12.4-5-18.2c-1.1,9.7,1.3,19.2-3.3,30c1.9-10.5,0.2-18.5-2.8-26.7c-5.8,11.3,0.1,22.9-2.2,34
		c0.4-4.8-0.4-9.2-2.9-14.1c-2.3,6.5-1.8,13.1-6.1,20.8c2.6-7.9,2.8-13.7,1.9-19.5c-1.2,6-1,12.3-2.9,18.2
		c-2,5.9-4.6,11.4-10.1,17.5c4.3-8,8-14.2,9.1-21.5c-4.3,9.9-8,20.1-16.9,28.9c7.7-11.7,15.1-21.9,15.7-35.2
		c-3.9,14.2-14.3,23.8-24.5,33.2c-0.8-1.8-2,0.8-3.2,0.8c5.1-8,5.4-17.1,7.6-28.1c-6.7,9.5-13.6,15.5-22.2,20.9
		c2.3-4.7,4.2-8.9,6.8-14.2c-12.5,8.8-17,20-16.3,34.9c-2-4.4-2.2-7.6-1.9-10.8c0.2-3.2,1-6.3,1.7-10.5c-3.6,6.7-4.5,12.9-5,19.4
		c-0.4-2.5-0.8-5-1.6-9.5c-0.7,4.2-1.1,6.6-1.5,8.9c-0.9-7.3,1.5-14.2,3.8-22.4c-3.6,5-4.9,9.6-6.8,15c-0.2-6.8,2.9-11.7,5-17.6
		c-2.6,1.3-4.6,2.3-7.2,3.7c5.1-10,8.9-19.6,5.7-30.5c2.4-0.6,0.3,1.9,1.4,2.1c1.3-3.4-1.4-6.9,0.3-10.2c0.3,0.5,0.8,1,1,1.5
		c4.3,11.9,1.9,23-4.5,33.7c2.7-0.3,4.1-1.7,5-3.6c0.7-0.5,1.3-1.1,2-1.6c3.5-2.7,3.7-7.5,7.2-11.1c-0.7,2.4-1.1,4.1-2.2,8.1
		c1.8-3.7,2.5-5.2,3.2-6.7c0.1,0.1,0.3,0.1,0.4,0.2c-0.5,1.6-1,3.1-1.9,6c5.7-6.1,5.8-13.4,10.1-21.2c-0.8,5.6-1.2,8.9-1.7,12.3
		c3.3-7.8,3.9-15.9,5.2-25.5c-5.8,8.7-5.3-1.9-8.3-0.6c-2.4,3.5-0.5,8.7-4.4,13.4c0.3-3.5,0.4-5.8,0.7-9.6c-1.1,2.8-1.8,4.4-2.7,6.8
		c-0.2-4.8-0.4-8.6-0.6-12.5c-0.4,1-0.7,2-1.1,3.2c-0.2-0.6-0.3-1-0.5-1.7c-1,1.8-0.6,4.2-3.1,5c-0.4-2.5-0.7-4.9-1.1-7.7
		c-0.8,3.1-1.6,5.7-2.3,8.4c-0.6-0.7-1.2-1.3-2.1-2.2c-0.8,1.6-1.4,2.8-2.5,5.1c0.5-3.3,0.8-5.3,1-7.3c-1.3,7.8-4.6,15.2-5.7,23
		c0.7-1.1,0.9-2.3,1.4-3.3c1.2-2.5,0.8-5.9,4-7.4c-5,8.6-6.5,18-6,28.3C260.2,575.7,259.5,573,259.5,570.1c1-7.3-1.3-14.9,2.7-22.1
		c-0.4,5.5-1.5,10.8-0.6,16.3c2.5-9.8,4.1-19.5,3.9-29.9c-1.2,2.2-2.2,4-3.2,5.8c0.8-3.9-0.7-7.3-1.5-11.5
		C254.5,542.8,255.8,556.4,259.5,570.1z M449,426.7c0.6-0.8,1.2-1.6,2.1-3c-6.3,1.9-11.2,4.8-15.1,9.3c-0.6,0.7-1.4,1.7,0.2,2.2
		c-0.8,0.8-2.2,1.3-1.6,3.6c5.1-4.8,10.6-8.4,17.4-12.2C450.2,426.7,449.6,426.7,449,426.7z M299.2,424.8c1.4,1.1,2.8,2.3,4.4,3.5
		c0.2-1,0.3-1.6,0.4-2.5c0.8,0.6,1.4,1.1,2.3,1.8c-0.2-1.1-0.3-1.9-0.4-2.7c1.3-1.1,2.5-1.7,4.1-0.6c-3.7-2.7-6.9-5.9-11.6-7.1
		C298.7,419.8,299,422.3,299.2,424.8c-2.3-2.9-4.7-5.8-7.1-8.8c2.1,5.2,0.1,13.6,10.1,13.1C301,427.4,300.1,426.1,299.2,424.8z
		 M146.7,482.2c-1.9-2.8-2.4-6.6-6.5-8.2c2,8.5,3.4,16.8,2.8,26.1c2.8-3.4,1.5-6.7,2.4-10c0.4,0.9,0.6,1.5,1.1,2.6
		C146.6,488.7,146.6,485.4,146.7,482.2c0.5,1.1,1.1,2.3,1.7,3.7c1-7.3-2.5-17.5-6.3-18.5C143.7,472.4,145.2,477.3,146.7,482.2z
		 M187.3,379.5c1.3-2.9,2.7-5.8,4.2-9.1c-4.6,1.5-9.3,10.4-8.5,15.1c0.8-0.8,1.5-1.6,2.2-2.4c-0.9,3.2-1.8,6.4-3,10.7
		c10.4-10.9,14.7-18.6,12.6-22.3C192.3,374.2,189.8,376.8,187.3,379.5z M103.4,433.3c-11.2,2.3-21.1,7-29.6,15.1
		c2,1.2,3.5,1,5.3-0.2c6.1-4,12.4-7.8,18.5-11.7C99.5,435.3,102.1,435.5,103.4,433.3c6.3-0.4,12.5-0.8,19.2-1.2
		C115.8,430.5,109.6,431.3,103.4,433.3z M234.6,426.4c0.5-1.6,3.1-1.5,2.8-3.9c-6.1,2.8-11.4,6.3-15.4,12.5c2.6-1.8,4.7-3.2,6.7-4.5
		c-0.7,3.5-5.3,5.5-3.7,10.1c3.3-2.9,5.2-7.1,10.5-8c-1.5,3.9-3.9,6.8-3.6,10.8c6.9-4.3,2.9-15.2,11.6-18.4
		C240.5,425.5,237.5,426,234.6,426.4z M140.5,371.9c0,5.6,0,11.2,0,17.8c0.2-2.3,0.3-3.5,0.6-6.4c1.7,8,4.3,14,4.6,20.6
		c0.7-7,1.2-13.9-2-22.4c0.3,2.9,0.4,4,0.6,5.8C141.7,382.1,143.4,376.5,140.5,371.9c0.5-3.4,1-6.8,1.6-11.4
		c-1.2,2.3-1.9,3.6-3.1,6.1c-0.5-6.6,0.5-11.5,2.1-16.3c1.7-4.9,4.5-9.1,9.2-13.2c-8.7,2.9-17.7,20.4-16.8,31.6
		c1.3-5.7,2.4-10.6,3.5-15.6c-0.4,8.1-2.9,16.1,0,25.1c0.4-1.4,0.5-1.8,0.5-1.8c0.3,1.9,0.7,4.1,1.1,6.3c0.2,0,0.5,0,0.7,0
		C139.6,379.2,140.1,375.6,140.5,371.9z M475.7,474.2c-1.4,8.5-2.9,17-4.3,25.7c4.7-7.4,3.7-15.7,4.9-21.6c0,4.6-0.1,11,0,17.5
		c0.1,11.3,0.8,15.2,3.4,19.4c-5.9-23,2.2-45.2,0-67.1c-1.1,1.1,0.1,4-2.4,5c0.8-3.6,1.6-7.1,2.3-10.7c-0.4-0.1-0.7-0.2-1.1-0.2
		c-2.3,10.5-4.6,21.1-7.1,32.3c0.9-1,1.3-1.5,2.5-2.8c-2,4.9-1.1,8.7-0.8,12.4C474,480.9,474.9,477.6,475.7,474.2z M443.5,494.4
		c0.2,3.3,0.4,6.6,0.7,9.9c0.2,0,0.3,0,0.5,0c0.3-5.7,0.6-11.4,1-17.2c-0.2,0-0.5,0-0.7,0C444.4,489.6,443.9,492.1,443.5,494.4
		c0-5.4,0-11,0-16.5c-0.5,0-0.9,0-1.4,0c-0.2,0.5-0.4,0.9-0.4,0.9c-1.7-11.4,6.1-21.1,7.7-32.3c-1.1,0.2-1.9,0.4-2.8,0.5
		c1.9-1.6,3.7-3.2,5.4-4.7c-1.7-2.5-3.4-1-5-1.4c0.8-2.6,2.9-4,4.4-6.5c5.5-6,12.9-4,20.9-3.7c-4.1-4.2-8.2-4.9-12.7-4.3
		c-8.3,1-13.5,7.1-18.8,12.4c-2.3,2.3-5.4,5.2-3.5,9.5l0-0.1c0,1.8-0.8,3.7,0.6,5.3c-3.1-0.5-3,2.5-4,3.9c-3.6,5-7.2,10-7.8,16.5
		c1.3-3.1,3.6-4.9,6.9-5.7c0.5,3.3-3.6,6.6,0.1,10.4c2.4-8.5,4.6-16.4,6.8-24.3c1.5-1.7,3-3.5,4.5-5.2c-2.4,11.8-8.8,22.7-7.4,35.4
		c0.2-2.4,0.5-4.7,0.7-7.1c0.2,0,0.5,0,0.7,0c0.2,3.7,0.4,7.4,0.6,12.5c0.8-2.7,1.2-3.9,1.7-5.6c0.5,3.5,0.8,6.4,1.2,9.4
		C442.3,494.5,442.3,495.7,443.5,494.4z M460,459.2c4.6,1.7-0.7,5.3,1.7,7.6c1.6-5.2,3.2-10.3,4.9-15.9c-3,1.2-4.1,3.5-5.7,5.5
		c-0.8,0.5-1.6,0.9-2.3,1.4c2.3-9.5,10-14.9,16.9-21.8c-1.9-0.1-2.7-0.2-3.6-0.3c0-0.9,1.6-1.7,0.1-2.6c-1-0.5-1.8-0.6-3-0.3
		c-9,2.6-9.6,12.2-14.3,18.1c-3.2,4-4.2,11.3-3.2,17.7C454.3,465.6,457.2,462.4,460,459.2z M384.4,279.3c-2.1,0.2-4.6-1.3-6.6,1.3
		c1.8,0.4,3.2,0.7,6.1,1.3c-3.2,0-4.8,0-7.6,0c1.5,0.6,2,0.9,2.6,1.1c-5.7,1.4-11.6,1.6-16.9,4.5c4.7,0,9.1,0,13.6,0
		c-8.5-0.3-15.5,2-20.4,10.3c7.6-2.4,14.7-5.2,23.8-4.1c-4.2,0.9-7.1,1.6-10,2.2c0,0.2,0,0.3,0.1,0.5c4.1,0,8.1,0,12.6,0
		c-4.1,0.8-7.7,1.5-11.3,2.2c5.2,0.3,10.2,0.6,15,2.5c-5.8,0-11.7,0-17.5,0c15.8-1.2,28.1,6.3,40.3,16.4
		c-4.2-8.7-11.6-12.8-18.5-18.5c15.6,5.7,22.2,18,26.5,32c-3.2-18.6-8-36.2-29.7-41.9c3.4,0.2,6.3,1,9.1,1.8
		c2.8,0.9,5.6,1.9,9.1,3.1c-2.4-2.7-4.4-4.8-6.4-7c7.2,5,13.6,10.7,17.5,18.6c-7.2-20.3-23.2-31-41.6-38c0.6,0,1.9,0,4.6,0
		c-11.8-3.7-19.8,2-28.1,6.8c1.5-0.4,3-0.8,4.5-1.2c-7.4,3.6-14.4,7.7-19.2,14.8c9.3-8.7,20.7-11.2,33.9-11.4
		c-17.8,2.7-27,7.4-30,14.3c2.7-1.8,5.6-4,8.7-5.7C359.7,278.9,371.4,275.1,384.4,279.3z M287.8,355c-3.9-5.9-5.4-6.6-8.1-3.9
		c0.4,1.9,2.4,3.3,1.6,5.6c-12.9-12.3-22.3-14.1-39.5-7.9c-7.4,2.7-13.7,0.3-17.5-6.6c-3.5-6.3-1.8-15.1,4.1-19.7
		c5.1-4,10.7-5.2,17.1-1.5c-3.9,3.6-5,7.4-0.7,10.9c3.7,3,5.7-0.8,8.1-3c0.2,2.5,1.5,2.6,3.4,1.6c-0.4-3.8-1.7-7-4.5-9.6
		c-6.7-6.4-16.1-8.2-23.6-4.7c-8.1,3.9-13.4,13.1-12.6,22.1c0.7,8,4.5,13.7,11.8,17.4c5.3,2.6,9.2,0,13.9-2.9
		c-1.8,0.3-3,0.5-4.6,0.7c11.6-6.8,27.6-7.8,32.6-2.2c-7.7-1.9-15.1-0.1-22.5,2c2.3,0,4.5,0,8.5,0c-5.4,1.6-9.6,1.5-13.2,4.7
		c4.6-1.1,8.8-2,13.1-0.9c-13.6,0.6-23.5,10-36.2,14.5c1.4,0.5,1.9,0.7,2.9,1.1c-1.5,0.9-2.6,1.5-3.7,2.1c0.1,0.4,0.1,0.8,0.2,1.2
		c11.8-1.1,23.6-2.2,37.7-3.6c-5.2-1.3-8.1-2-11.7-2.9c3.9-1.7,8.6,2,10.7-3.8c1.8-0.5,4.5,1.4,7.2-0.3c-1.5-1-2.9-1.9-4.3-2.8
		c0.1-0.3,0.2-0.5,0.3-0.8c3.2,0.8,6.3,1.6,9.5,2.4c0.2-0.2,0.3-0.4,0.5-0.6c-1.1-0.7-2.2-1.3-3.4-2c0.2-0.2,0.4-0.5,0.6-0.7
		c2,0.6,4.1,1.2,6.3,1.8c-0.5-1-0.9-1.7-1.7-3.2c2.5,0.8,4.4,1.4,6.7,2.2c-0.6-1.3-1.9-2.2-0.4-2.8c1-0.5,2.2-1.3,3.3,0.2
		c0.4,0.5,1.5,0.7,2.2,0.7c0.2,0,0.7-1.1,0.7-1.7c-0.5-5.2,2.3-3.5,4.9-2.4c0.6,1.3,0.4,3.1,2.3,3.6c0.5-1.5,1-2.8,1.6-4.6
		c0.5,0.7,0.8,1.1,1.2,1.5c0.7-0.9,1.3-1.7,2.3-3.1c0,1.7,0,2.9,0,4c1.1-7.4,7.2-12.6,8.9-20.7c-4.5,3.5-5.6,8.2-8.4,11.8
		c-0.3-1.2-0.5-2.1-0.7-3.2c-2.5,1.3-4.3,3-5.3,5.8c-0.2-1-0.3-1.7-0.6-3C288.4,350.9,286.8,352.7,287.8,355z M215.9,420.9
		L215.9,420.9c2.1,1,0.6,4,2.9,4.8c-2.4,3.9-2.4,3.9-2.4,6.2c6.1-9.2,15.1-13.4,25-16c6.8-1.8,12.4-5.4,15.7-12.1
		c-0.6-0.1-1.1-0.2-1.6-0.3c1-1.2,2-2.3,3.4-4c-5.5,2.1-8.3,7.2-14.4,7.8c3.6-3.7,9-4.3,11.1-9.1c-0.8-0.2-2.1,1.4-2.4,0.1
		c-0.6-2.2,2.2-2.6,2.8-4.4c-0.7-0.2-2.4,0.5-1.3-1.4c-1.1,0.1-2,0.3-3,0.4c-0.3-1.1-0.5-2.1-0.8-3c-1.8,0.1-3.9,0.2-6.3,0.3
		c1.6-2,4.3-1.6,5-4.1c-9.1-1-17.8,0.6-26.6,1.8c7.5-3.5,15.6-3.7,24.1-4.3c-0.8-0.4-1.2-0.6-1.7-0.9c1.8-0.6,3.5-1.2,5.2-1.7
		c-7.1-2.3-14.3-0.4-23.1,0.3c8.7-3.1,16.1-2,23.3-3c-1.7-0.3-3.5-0.7-6-1.2c2.5-0.6,4.1-1,5.8-1.3c0-0.2,0-0.4-0.1-0.6
		c-9,0.7-18,1.5-28.2,2.3c3.6,0.4,6.2,0.7,8.7,1c0,0.3,0,0.6,0,0.9c-4.5,0-9,0-13.5,0c0,0.2,0,0.5,0,0.7c1.7,0.2,3.4,0.4,5.1,0.6
		c0,0.1,0,0.3,0,0.4c-3.8,0-7.5,0-12.4,0c1.6-0.4,2.1-0.5,4.4-1.1c-7.5,0.3-12.8,1.8-17.5,5.1c4.3-1.1,8.5-3.2,14-1
		c-2.9,1-5,1.7-9,3.1c4.3-0.2,6.4-0.3,10.2-0.6c-8.2,2.8-15.5,3.3-22.1,8.1c7.4-1.3,13.9-2.6,20.7-1.4c-9.6,2.2-19.5,2.9-28.8,6.4
		c-9.7,3.7-21.6,12.6-23.2,17.8c4.8-3.9,9.8-6.7,15.1-9.1c5.4-2.5,10.8-3.8,17-3.6c-14.8,6.4-27.4,14.6-29.6,34.1
		c2.9-7.9,4.1-14.9,11.4-19.4c-1.8,2.5-2.9,4.2-5.4,7.7c2.7-2.5,3.8-3.5,6-5.5c-0.9,2.1-1.3,2.8-1.8,4.1c1.5-1.1,2.5-1.7,4.4-3.1
		c-1.8,2.6-2.8,4.1-3.9,5.6c5-4.4,11.1-6.5,16.9-9.1c-5.7,4.2-11.1,8.7-15.4,14.4c-4.2,5.6-7.3,11.8-8.2,18.9
		c2.8-7,6.7-13.1,13.1-17.5c-3.1,1.6-2.2,5.3-3.9,7.8c1.6-1.4,3.1-2.8,4.7-4.2c-4.7,8.5-8.7,16.9-5.8,27.4
		c1.8-13.2,5.6-24.7,15.3-33.5c-6.1,7.8-10.3,16.6-12.1,26.4c-1.7,9.2,5.3,23.1,12.5,24.9c-7-18.2-7-18.2-2.5-38.7
		c-2.4,2.8-2.9,6.7-6.6,8.3c3.7-5.1,3.2-12.1,8.2-17c0.2,0.8,0.3,1.3,0.6,2.4c8.5-15.1,23.2-20.8,36.9-27.8c-1.4,1.7-3.3,2.7-5.1,4
		C218.4,416.5,214.7,416.8,215.9,420.9z M346.9,394.6c2.1,2.7,4.8,4.6,8,5.7c4.3,3.3,8.5,6.6,12.8,9.9c-0.8,0.6-1.5,1.1-2.3,1.7
		c1.1,5.7,8.4,7.6,10.6,12.9c-5.8-8.6-15.6-8.9-25.8-12.4c4,2.9,6.6,4.7,9.1,6.6c10.2,16.1,29.2,27.2,27.7,52
		c0.5-2.8,0.6-3.2,0.9-4.7c0.5,9.3-0.5,17.2-7.3,24.4c4.9-1,5.3-4.6,7.2-6.9c0.3-0.3,0.6-0.6,1-0.8c6.5-9.9,6.5-21,5.4-34.6
		c1.9,4,3.4,6.5,4.8,5.9c2.2-1-0.1-3.1-0.5-4.6c-1.7-5.3-4.9-9.8-7.9-14.4c-0.8-1.2-2.5-2-1.5-4.7c9,7.8,13.2,18,17.7,29.6
		c-0.3-2.5-0.4-3.5-0.5-4.5c3.5,10-1.4,18.7-4.9,27.8c12-10.5,9-48.6-4.4-53.8c2.7,4.4,6.2,8.1,5.8,14.2
		c-4.8-6.7-9.2-12.9-14.7-20.6c2.7,2.2,4,3.3,6.7,5.6c-2.2-3.5-3.3-5.3-4.8-7.7c13,6.2,23.1,14.5,29.4,27c3.1-2.5,3.6-4.9,1.6-8.3
		c-6.3-10.7-16-16.3-27.5-19.7c-4.6-1.4-4.6-1.5-5.4-3.9c12.6,3.8,24.7,7.8,33.2,18.6c-7.7-19.4-23.4-30.4-42.4-39.5
		c5.9-0.8,9.6,1.8,13.7,2.4c4.1,0.5,8.3,0.1,12.4,0.1c-13-3.4-26.6-5.3-36.7-17.2c7.1,5.6,14,9.2,21,9.5c-1.6-2.1-3.6-4.8-5.6-7.6
		c-0.2,0.2-0.4,0.3-0.6,0.5c0.5,1.5,1.1,2.9,1.6,4.4c-10.5-11.2-24.5-13.7-38.5-16.3c2.4-0.3,4.6-0.3,6.8,0c2.2,0.2,4.4,0.7,6.7,1.1
		c-9.2-9.1-21.3-9-32.9-10.8c6.4-8.1,13.7-2.4,21.8-2.4c-12-4.9-22.9-5.9-34.1-2.6c6.6-3.6,14.1-2.9,21.2-4.6c-3.4,0-6.7,0-10.1,0
		c0-0.3,0-0.6,0-0.9c3.2-0.3,6.5-0.7,11.6-1.2c-7.5-0.7-12.9-2.9-19.3-1.7c2.2-1.1,3.6-1.9,5.1-2.6c5.3-2.5,16.2-1.3,18.1,1.9
		c6.3,11,18.7,14.1,29,7.3c8.2-5.4,11.5-16.1,7.7-24.9c-4.4-10-16-16.1-26-13.7c-14.5,3.5-21.6,18.7-12,28.9
		c-5.3-3.1-9.7-3.1-14.2-2.4c1.5-0.3,3.1-0.7,4.6-1c-10.8-1.4-21-0.3-28.8,8.3c-3,3.3-5,7-2.8,12c0.8-1.2,1.5-2.1,1.8-2.6
		c2.6,2.4,5.8,1.1,8.5,2.2c-0.1,0.3-0.4,1-0.6,1.6c0.7,0.6,2.8-2.3,2,1c1.9-0.2,3.6-0.4,5.4-0.5c-0.3,0.7-0.7,1.4-1.1,2.3
		c4.5-0.6,8.6-1.1,13.4-1.7c-1.2,1-1.8,1.5-3,2.5c1.6,0.1,2.6,0.1,3.5,0.2c-0.4,0.3-0.9,0.7-1.5,1.2c1.7-0.1,2.9-0.2,4.9-0.3
		c-2.4,1.5-4.1,2.5-7.8,4.7c5.8-1.8,10-2.6,13-0.9c2.9,1.6,5.7,3.1,8.9,4.1c-4.6,2.1-9.2-0.9-14.5-0.1c3.7,0.8,7.1,0.5,10.9,3.5
		c-4.7,0-8.1,0-12.2,0c7.1,4.7,13.5,8.9,19.9,13.2c-0.2,0.3-0.3,0.5-0.5,0.8c-3.2-1.2-6.4-2.4-9.7-3.6c-0.1,0.2-0.2,0.4-0.3,0.6
		C341.9,391.5,344.4,393,346.9,394.6z M305.4,434.6c0.4,3.1,0.6,4.7,1.1,8.2c-1.6-3.5-2.4-5.2-3.1-7c-0.2,0.1-0.4,0.2-0.7,0.2
		c0.3,1.7,0.7,3.3,1.2,6.1c-2.1-3.6-3.1-6.9-6.9-7.6c0.6,1.8,1.1,3.6,1.7,5.4c-0.3,0.1-0.5,0.2-0.8,0.3c-1.3-2.6-2.6-5.1-4.1-8.1
		c-1.6,4.9,0.5,8.7,2.2,14.8c-2.3-3-3.2-4.2-4.9-6.4c1.8,4.9,3.1,8.6,4.4,12.2c-0.2,0.1-0.4,0.1-0.6,0.2c-1.7-3.1-3.4-6.1-6.2-11
		c1.5,12.1,2,22.4,4.3,32.2c2.4,10.2,2.9,19.9-1.1,29.8c5.9-22.7-6.2-44-4.4-66.8c-1.1,0.7-1.5,0.9-2,1.2c0.6-1.9,1.1-3.6-0.4-5.5
		c-2.7,2.4-2.3,6.2-4.5,9.3c0.7-2.6,1.2-4.5,1.9-6.8c-5.5,2.5-4.7,8.7-8.5,12.2c1.4-3.3,2.6-6.3,3.8-9.1c-5.1-0.1-6.9,3.5-8.9,7.1
		c0.3-1.9,0.6-3.9,1-6.3c-3.7,1.8-3.6,5-4,7.7c-0.4,2.6-1.1,5.7,1.7,8.3c1.3-2.6,2.4-4.8,3.6-7c0.1,0.1,0.3,0.1,0.4,0.2
		c-1.2,2.8-2.4,5.7-3.5,8.5c-1.9-0.9-1.9-0.9-4,0.6c-7.2,5-10.8,12.8-15.6,19.7c-1.5,2.2-1.9,4.5-1.6,7.2
		c1.1,11.3,8.3,20.2,12.2,30.3c2.7,7.1,8.4,10.5,15.5,11.5c17.5,2.3,32.5-4.9,47.1-13.3c2-1.1,3.5-3.4,4.7-5.5
		c9.4-17.8,5.6-37.7-9.6-50.8c-0.8-0.7-1.6-2.1-3.5,0.4c0.7-8.2,1.6-15.5-3.6-21.6c0.9,1.8-1.2,2.7-1.1,4.2
		C307.4,438.2,306.8,437.1,305.4,434.6z M391.1,341.6c6.2,12.1,16.4,19.1,24.4,29.3c-0.3-15.1-4.9-27.9-13-39.5
		c7.6,7.5,12,16.9,16.6,28.3c-2.1-21.3-13.4-34-29.8-43.3c8.4,3,15.2,8,22,14.9C406,318.1,397,311,385,307.1
		c2.1,0.5,4.3,1.1,8.4,2.1c-6.1-3.4-10.1-6.5-16.2-5.6c1.9,0.8,4.5,0.4,4,2.4c-0.8,3.2-4.1,0.5-6.1,1.9c1.8,0.8,3.5,1.5,6.1,2.7
		c-3.2,0-5.5,0-8.5,0c4.4,3,8.1,5.6,11.8,8.2c-0.1,0.2-0.2,0.4-0.4,0.6c-1.6-0.8-3.3-1.6-4.7-2.4c7.1,12.6,20,21.2,23.4,36
		C399.9,349.1,396.5,345.2,391.1,341.6z M181.4,304.3c5.9-6.2,18.4-14,27.2-15.2c-16.9,6.6-27.8,16.2-31.5,32c0.4-0.4,1-0.9,1.5-1.6
		c6-9.7,17.1-13.5,24.7-21.4c4.7-4.9,11,0.1,16.6-1.8c4.2-1.4,9.2-0.3,13.9-0.3c0-0.4,0-0.8,0-1.2c-3.3-1.4-6.5-2.8-10-4.4
		c4.2-0.5,8.2-1,13.3-1.6c-2.1-1-3.2-1.5-5.2-2.4c2.1,0,3.1,0,4.2,0c-0.4-2.2-3.4-1-3.5-3.2c1.3-0.2,2.6-0.5,4.8-0.9
		c-4.3-3.8-8.6-3.5-12.8-3C206.6,281.3,191.9,289.3,181.4,304.3z M304.2,414c-0.4,0.6-0.7,1.2-1.1,1.9c8.8,6,19.6,9,27.9,19
		c-1.5-4-2.2-5.9-3-7.8c5,8.2,15,13.5,14.2,24.9c0.5-3.1,1-6.2,0.3-9c-0.7-2.7-2.7-5.1-4.2-7.7c-1.5-2.5-2.9-5-4.4-7.5
		c1.5,1.4,2.5,3,3.7,4.6c1.1,1.6,2.4,3.1,3.7,4.8c-1.5-16.1-12.2-22.4-26.1-25.2c11.3-2.6,19.2,5.1,28.7,9.2
		c0.1-1.7,0.1-2.5,0.2-3.8c2.6,0.9,5,1.7,7.3,2.6c0-3.6-2.1-5.6-4.5-7.4c0.8-0.7,1.5-1.1,2.3-1.8c-2.9-2-5.4-3.9-8-5.7
		c0.1-0.2,0.2-0.5,0.4-0.7c3.5,1.4,7,2.7,10.4,4.1c-2.3-2.1-4.8-3.6-7.4-4.9c-2.7-1.4-5.5-2.5-9.4-2.6c3.3,1.3,4.7,3.4,5.6,6.1
		c-3.2-0.2-6.1-0.2-9.4-1.9c0.5,1.1,0.7,1.7,1,2.4c-1.4-0.4-2.4-0.6-3.5-0.9c-0.1,0.2-0.1,0.3-0.2,0.5c2.4,1.1,4.8,2.2,8.6,4
		c-6.8-1.8-12.1-3.1-17.3-4.7c-2.8-0.8-4.6-0.6-4.5,2.7c-1.8,0.6-3.5-1-5,0.5c2.5,4.1-2.2,2.4-3.1,3.8c2.5,1.2,5,2.4,7.5,3.7
		c-0.1,0.1-0.1,0.2-0.2,0.4C311.2,416.3,307.7,415.1,304.2,414z M267.2,396.7c3.2,2.4,6.4,1.6,9.1,1.2c3.9-0.5,10.4-11.2,9.7-15.5
		c-0.7-3.9-2.3-6.4,4.4-7c7-0.7,13.8-2.2,22-1.2c-6.4-5.7-13.6-5.9-20.2-7.5c2.9-1.6,6.4,0.1,11.1-0.9c-2.8-1-4.1-1.6-5.5-1.8
		c-9.3-1.5-18.4-0.3-27.2,2.4c-9.9,3.1-13.8,10.5-10.3,18.8c0.6,1.4,1.4,1.8,2.7,1.5c0.9-0.2,2-0.9,1.4-1.8c-2.8-3.9,1-5.3,2.8-6.9
		c2.9-2.3,6.5-3.6,10.2-2.1c3.7,1.5,3.8,5.2,3.9,8.6C281.8,392.8,279.3,394.9,267.2,396.7z M247.4,438.5c8.4-5.3,14.5-13,25.3-9.4
		c2.3-1.6,5-3.5,8.2-5.7c-1.2,1.6-2,2.8-2.9,4c3.3-2,5.6-4.6,5.9-8.4c-1.7,0.3-3.3,0.5-5,0.8c0.1-1,0.2-1.8,0.2-1.6
		c-6.5,0.8-10.9,6.1-18.7,10.1c4.5-4.2,7.3-6.7,11-10.1c-1.7,0.8-2.3,1.1-4.2,1.9c2.6-2.4-0.5-4.5,2.1-6.1
		c-7.9,2.4-13.2,8.2-20,11.6c-2.5,1.3-3.7,2.6-1.7,5.1c-0.8,0.9-1.4,1.6-2.2,2.5c1.7-0.2,3.2-0.5,5.1-0.7
		C249.4,434.5,248.7,435.9,247.4,438.5z M253.6,284.5c-1-6.2-5.3-9.7-14-12.7c-12.3-4.3-31.7-2.2-38.7,4.4c1.7-0.3,3.1-0.5,4.4-0.7
		c1,4.2-4.9,3.4-5,7.3c12-4.2,23.9-7.7,37.5-4.8c-2.1-2.4-3.6-4-5.2-5.9C241.1,273.3,247.1,278.3,253.6,284.5z M105.3,483.8
		c-0.7,9.1-1.6,18.2,0,29.1c1-9.7,1.7-17.7,2.5-25.7c0.8-7.9,2.2-15.7,5.7-23c-0.5,1.8-1.1,3.5-1.6,5.3c0.2,0.1,0.4,0.1,0.6,0.2
		c3.6-8.7,7.3-17.4,10.9-26c-9.3,10.2-17.8,20.7-20.5,34.6c0.9-2.2,1.9-4.4,3.7-8.8c-0.2,7.4-2.9,12.2-2.1,18.2
		C104.9,485.7,105.1,484.7,105.3,483.8z M90.5,445c10.7-6.9,21-7.1,32.4-7.9c-2.3,1.4-3.5,2.1-4.7,2.8c5.7-2.7,11.5-2.2,16.7,0.1
		c4.8,2.2,11,2.9,13.1,9.9c1.1-1.4,1.6-2.1,2.1-2.7C139.9,426.1,102.8,432.6,90.5,445z M196,322.7c-14.4,6.6-28,27.7-25.2,39.1
		c2.2-5,5.2-9.2,8.4-13.3c3.2-4.1,6.2-8.5,10.7-11.5c-1.2,0.5-2.3,0.9-3.9,1.6c0.8-1.4,1.3-2.2,2.7-4.6c-3.8,2.6-6.3,4.3-8.8,6
		c-0.2-0.2-0.4-0.4-0.5-0.5C184.7,334,190.2,328.5,196,322.7z M283.3,284.8c-2.6-10.9-8-19.1-19.8-24.1c3.5,4,6,6.9,9.1,10.3
		c-1.1-0.6-1.6-0.9-2.7-1.5c3.7,6.3,7.1,12.1,11.1,19c0.2-2.6,0.3-4,0.4-5.8C282.2,283.6,282.7,284.1,283.3,284.8z M492.2,460.4
		c6.1,15.9,6.5,31.9,5.1,42.2C496.8,492.5,509.1,475.2,492.2,460.4z M299.6,537.1c-4.1,7.4-4.3,16.5-5,26.7c3.3-7.4,9.4-12.5,8-20.6
		c0.2-1.6,0.4-3.2,0.5-4.9c-0.2,0-0.4,0-0.6-0.1c-0.6,2.6-1.2,5.1-2.2,9.8C299.9,542.6,299.7,539.3,299.6,537.1z M197.7,478.6
		c-12.2-17.5-9.2-32.8,7.5-46.5c-5.6,0.4-15.3,13.3-16.6,21.1C186.7,464.4,190.6,475.4,197.7,478.6z M92.4,524.6
		c-3.1-8.9,1.9-17.5-1.2-26.2C85.1,503.2,85.8,519.7,92.4,524.6z M126.6,522.2c5.5-13.1,11-24.5,7-37.7
		C133.8,497,128,508.4,126.6,522.2z M462.2,520.8c-0.7-6.6,3.9-11.2,1.4-16.6c-0.5-1.2-0.8-2.9-2.6-2.8c-1.7,0.1-2.4,1.4-2.9,2.9
		C456.6,509.8,457.8,514.8,462.2,520.8z M307.8,589.2c11.7-9.8,19.9-25.4,16.4-31C321.6,569.7,313.3,577.9,307.8,589.2z M492.7,366
		c0.3-10.7-10.9-28-21.2-32.3C482.2,342.7,487.1,354.2,492.7,366z M72.2,518.9c-2.3-7.6-0.4-13-0.7-18.5c-0.1-1.2-0.1-2.5-1.6-2.8
		c-1.7-0.4-2.3,1.1-2.6,2.2C65.3,506.1,66.7,511.8,72.2,518.9z M292.5,323.5c0.2-5.1,2.5-9.1,3-14.6c-6.1,8.2-8.3,16.8-9.9,26.9
		C288.2,331,290.4,327.3,292.5,323.5z M414.5,454.4c4.5-5.5-2.7-19.1-10.7-21.2C409.1,439.4,413,446.1,414.5,454.4z M172.1,365.6
		c3.6-14.1,17.5-17.4,26.6-25.7C187.8,346.3,175.3,351,172.1,365.6z M232,509.5c-3.3,1.2-6.6,2.4-10.2,2.4c-3.6,0-7.2-0.2-10.9-0.2
		c-10.2,0-14.7,1.6-18.7,7.9C204.6,508.2,220.3,518,232,509.5z M374.6,442.4c1.3,7.1,6.4,12.2,8.7,19.4
		C384.8,456.6,379.2,444.8,374.6,442.4z M349.2,428.6c5.3,1.9,8,6.7,14,5.6c0.8,0.7,2.1,1.9,3.9,3.5
		C365.4,431.5,357.2,427.2,349.2,428.6z M517,446.3c-1.4-6.5-13.1-11.8-21.6-9.9C503.6,437.3,509.8,442.5,517,446.3z M280.4,295.1
		c0.3-8.1-11.6-26.2-17.9-27.2C270.4,275.8,276.8,283.9,280.4,295.1z M237,321c-9.7,1.4-14.7,12.5-9.5,19.9c0.4,0.5,1.2,0.8,1.8,1.1
		c0.2-0.5,0.6-1.1,0.4-1.5C226.4,331.4,227.9,327,237,321z M37.4,482c4.3-5.9,8.5-11.5,13.3-18C43.4,466.6,36.9,476,37.4,482z
		 M326.7,434.4c-3.6-6.8-11.1-8.1-17.5-13C314.1,428.2,319.2,432.9,326.7,434.4z M308.7,557.3c-6.6,8.7-12.5,16.7-17.8,26.6
		C296.5,578.9,306.7,563.7,308.7,557.3z M514.6,464.6c2,2.7,1.8,5.7,1.5,9c-0.8-1.4-1.4-2.5-3-5.4c1.9,6.1,3.2,10.2,4.7,15.3
		C520,475.8,518.9,469.9,514.6,464.6z M457.4,467c-4.6,8.1-6.5,16.5-4.2,24.6c0.4-3.3,0.8-7.6,1.5-11.8
		C455.4,475.5,456.5,471.2,457.4,467z M89.4,446.8c-0.4-0.5-0.9-1-1.3-1.5c-3.2,2.3-7.9,2.3-10,6.5c-0.5,0.9-1.2,1.8-0.1,2.9
		c1,1,1.8,0.3,2.5-0.3C83.5,451.9,86.5,449.3,89.4,446.8z M396.4,459c-0.4,10.3-0.8,19.7-8.1,29.5C396.2,481.8,400,466.4,396.4,459z
		 M152.6,321.1c0.5-0.2,1-0.4,1.6-0.6c-0.2,0.9-0.5,1.8-1,4.1c4.8-5.3,6.5-11.1,11-14.9C157.4,310.4,157.1,317.9,152.6,321.1z
		 M153,441.6c-4.9-6.2-10.4-10.3-17.5-12.2c2.7,2.3,5.5,4.4,8.5,6.1C147,437.2,148,441.6,153,441.6z M517.3,452.3
		c1.6,5.3,5.6,8.5,8.3,13.1C525.3,458.6,522,453.4,517.3,452.3z M362.9,447.5c-2.6-6.5-5.8-10.5-11.6-13.9
		C354.9,438.9,357.8,443.1,362.9,447.5z M225.1,500c-4.3-0.2-8.4-0.2-12.8,1.6C219.7,504.7,223.8,504.2,225.1,500z M115.5,444.8
		c-4.9,4.8-9.6,8.4-12.3,16.6c3.1-4.3,4.8-6.7,6.6-9.2c0.6,1,1,1.5,1.5,2.3C112.6,451.3,115.9,449.7,115.5,444.8z M397.8,353.6
		c4.1,7.8,11.5,12.7,17.1,19.3C410.7,365.2,403.3,360.3,397.8,353.6z M121.3,522.4c0.3-4.5,2.3-9.1-0.1-15
		C118.4,513.5,119.4,517.9,121.3,522.4z M469,459.2c3-5.9,5.6-11.7,6.5-19.2c-2.1,2.6-3.5,4.3-4.9,6c0.4,0.1,0.8,0.1,1.3,0.2
		C471,450.6,470,454.9,469,459.2z M267.1,250.3c-4-4.1-9.4-4.9-16-7.2C256.7,247.5,262,248.6,267.1,250.3z M133.3,352.8
		c3.2-8.2,7.9-15.6,12.1-23.2C139.4,336.3,135.1,343.9,133.3,352.8z M216.7,437.4c4.5-4,7.5-7.8,10.1-14.7
		C221.8,427.9,219,431.7,216.7,437.4z M244.1,510.4c-4.8,4.8-12.1,7.5-14.3,16.3C235.2,520.6,239.6,515.5,244.1,510.4z M490.3,516.8
		c0.9-6.3,2.3-10.3,0.7-15.4C488.1,506.2,488.3,510.4,490.3,516.8z M301.3,397.4c1.8,2.2,4.1,2.2,6.2,2.4c2.2,0.2,2.6-1.8,3.6-3.6
		C307.7,396.6,304.8,397,301.3,397.4z M235.1,346.7c4,0.5,7.8-0.1,11.9-3.2C241.7,341.4,239.2,347.4,235.1,346.7z M342.3,399.5
		c3.5,2.3,6.5,5.5,11.5,5.6C350.3,402,346.5,400.3,342.3,399.5z M388.8,333.2c1,5.6,5,7.9,9.2,11.3
		C395.8,339.5,392.6,336.6,388.8,333.2z M243.4,417.6c6-0.7,10.7-3.5,16.3-9.1C253.1,412.2,248.2,414.9,243.4,417.6z M524.8,475.8
		c-1.2,6.1-2.1,10.8-3.4,17C524.2,486.9,525.7,482.4,524.8,475.8z M355.7,360c7.8,2.9,16.3,0.7,18.8-4.5
		C369,359.4,363.2,361,355.7,360z M110.4,516.6c-0.6-6.5-1-11.6-1.7-19.1C108,505.1,107.5,510.3,110.4,516.6z M195.5,339.4
		c3.2-2.6,5.9-4.1,6.7-7.9C198.7,333,196.9,335.2,195.5,339.4z"/>
	<path d="M330.3,223.9c-2.3,3.9-6.3,5.3-7,9.4c7.3-4.9,15-8.1,23.4-9.7c-4.4,1.4-8.9,2.6-13,6.1c5,0.5,9.5,1,14.1,1.4
		c0,0.2,0,0.4,0,0.6c-2.3,0-4.7,0-7,0c5.6,1.2,11.4-0.1,17.9,2.6c-12.6-1.3-24.1-3.1-34.6,4.1c3.2-3.6,8.1-4,13.1-7
		c-9.6,0.7-15,6.7-22.2,11.5C319.8,236,321.2,227.7,330.3,223.9z"/>
	<path d="M369,238.2c15.8,5.1,31.7-3.4,47.4,0.4c-10.7-1-20.7,1.1-31.4,5.8c1.2-1.1,1.6-1.5,2.6-2.4c-7.9,1.8-15,1-22-0.6
		c7.6,0.2,15.2,2.2,25-1.5c-8.9,1.3-15.4,1.4-21.6-1.3C369,238.5,369,238.3,369,238.2z"/>
	<path d="M433.4,255.1c-12.4-14.3-27-15.9-44.3-8.5C398.6,235.1,427.6,241.2,433.4,255.1z"/>
	<path d="M272.8,234.8c0.5,1.1,0.6,1.4,1,2.3c-5.1-1.9-9.8-3.7-14.7-5.5c6.2-2.2,21.1,2.5,24.6,8.2
		C279.8,238,276.6,236.6,272.8,234.8z"/>
	<path d="M403.1,249.5c11.5,0.8,21.1,5.6,29,13.8C423.2,256.9,413.4,252.7,403.1,249.5z"/>
	<path d="M372.8,261.2c-14.2,1.5-26.4,7.4-37.4,16.3C345.6,266.9,357.9,261.1,372.8,261.2z"/>
	<path d="M274.6,221.2c9.5,0.8,19.4,7.6,20.1,14.1C288.8,229.1,282.9,224.1,274.6,221.2z"/>
	<path d="M307.5,247.5c0-0.5,0-0.9,0-1.4c8.3-16.8,8.6-17.2,14.1-20.5C313.8,231,312.8,240.6,307.5,247.5z"/>
	<path d="M287.2,248.9c-3.9-5.3-9.4-7-14-10.4C279,238.3,286.7,243.7,287.2,248.9z"/>
	<path d="M228,541.3c1.2-3.1,2.4-6.2,3.7-9.3c0.5,4.6-2.7,8.4-1.8,12.9c-0.1,1.1-0.2,2.1-0.5,5.5C228.6,545.8,228.3,543.6,228,541.3
		z"/>
	<path d="M340.2,268.4c5.4-5.1,11.6-8.6,19-10C352.5,260.8,346,263.8,340.2,268.4z"/>
	<path d="M351.5,245.6c-4.7,1.9-9.5,3.8-15.9,6.4C341.2,247.5,346.4,246.7,351.5,245.6z"/>
	<path d="M274.9,260.9c0-0.1,0-0.3,0-0.4C274.9,260.6,274.9,260.8,274.9,260.9z"/>
	<path d="M346.9,394.6c4,0.7,7.2,2.8,10.4,5c-0.8,1.5-1.6,0.8-2.4,0.6C351.6,399.2,349,397.3,346.9,394.6z"/>
	<path d="M273.7,577.2c2.4-5.4,4.5-10.8,3.6-19c1.6,7.5,0.8,12.5-1.7,17.4C275,576.1,274.3,576.7,273.7,577.2z"/>
	<path d="M387.7,483.6c1-4.9,2-9.8,3.1-15.4c0.9,5.6-1.1,10-2.1,14.6C388.3,483.1,388,483.3,387.7,483.6z"/>
	<path d="M437.5,448.4c0,0,0-0.1,0-0.1C437.5,448.3,437.5,448.4,437.5,448.4z"/>
	<path d="M215.9,420.9C215.9,420.9,215.9,421,215.9,420.9C215.9,421,215.9,420.9,215.9,420.9z"/>
	<path d="M286.1,487.7c2.7-8.6,3.9-17.1,1.9-26C291.2,470.7,289.2,479.3,286.1,487.7z"/>
	<path d="M281.2,458.4c1.5-5.2,3.1-10.4,5.2-17.8C285.4,448.4,284.8,453.8,281.2,458.4z"/>
	<path d="M365.3,322.5c-3.1,1.2-5.9,2.4-5.6,6.2c0.2,2.3,1.4,3.8,3.6,4.5c3.5,1.2,5.2-1.3,7-3.5c3.5,4.1,1.9,13-3.2,17.7
		c-5.7,5.3-14.6,5.2-20.5-0.2c-6-5.5-6.7-15.3-1.5-21.6C350.4,319.4,359.1,318,365.3,322.5z M367,344c-6.9,2.5-13,5.9-20.2,0.1
		C351.6,351.2,362.3,351,367,344z"/>
	<path d="M379.3,399.9c-9.2-6.2-19-11.2-28.8-16.4C362.3,385,370.1,393.5,379.3,399.9z"/>
	<path d="M349,389.9c8.9,2.5,16.9,3.4,21.5,11.2C364.9,395.3,356,396.5,349,389.9z"/>
	<path d="M374.8,412.9c-4.2-4-8.5-8.1-12.6-11.9C367.7,402.2,376.3,410.8,374.8,412.9z"/>
	<path d="M375.1,425.6c6.6,5,9.9,12.2,12.6,19.8C384.1,438.4,379.4,432.1,375.1,425.6z"/>
	<path d="M222.8,408.5c0.9-0.7,1.8-1.3,2.3-1.7c-0.8-0.7-1.5-1.4-2.7-2.5c5.4-4.3,11.4-5.1,16.9-7.7
		C238.4,403,228.6,410,222.8,408.5z"/>
	<path d="M209.2,401.9c1.4-3.6,5-4.2,7.9-5.4c4.4-1.7,8.9-3.1,13.8-3.4c-7.3,3-14.5,6-21.8,9.1C209.1,402.1,209.2,402,209.2,401.9z"
		/>
	<path d="M209.2,401.9c0,0.1,0,0.2-0.1,0.4c-6.2,3.3-12.5,6.6-18.7,9.9C194.7,404.9,203,405.4,209.2,401.9z"/>
	<path d="M199.9,412c-4,1.7-8.1,3.4-12.1,5C191.1,413.7,195,411.7,199.9,412z"/>
	<path d="M270.8,354.2c-4.7-0.5-8.2-0.9-12.9-1.5C262.7,351.4,266.3,351.1,270.8,354.2z"/>
	<path d="M326.2,425.2c0.1,0.1,0.1,0.1,0.2,0.2c-0.1,0-0.2,0.1-0.3,0.1c0-0.1-0.1-0.2-0.1-0.2C326,425.2,326.1,425.2,326.2,425.2z"
		/>
	<path d="M125.2,436.6c0.7-0.3,1.3-0.6,2.3-1.1c-1.1-0.5-1.7-0.7-3.1-1.4c4.4,0,7.7,0.4,11,3.9C131.4,437.4,128.4,437,125.2,436.6z"
		/>
</g>
</svg>
