<?xml version="1.0" encoding="utf-8"?>
<!-- Generator: Adobe Illustrator 24.2.3, SVG Export Plug-In . SVG Version: 6.00 Build 0)  -->
<svg version="1.1" id="Layer_1" xmlns="http://www.w3.org/2000/svg" xmlns:xlink="http://www.w3.org/1999/xlink" x="0px" y="0px"
	 viewBox="0 0 595.3 841.9" style="enable-background:new 0 0 595.3 841.9; fill: #215342;" xml:space="preserve"
	 height="350" width="500" transform="translate(-95, -58)">
<g>
	<path d="M171.4,456.7c-5.7,2.7-6.2,6.1-1.4,11.2c5.6-6.6,11.7-12.5,19-17.4c-7.4,8.2-14.3,16.5-14.7,28.5c-2-2.1-3.5-0.9-5.4,0.7
		c2.6,2,5.1,3.9,7.8,5.9c-0.3-12,5.6-20.7,13.3-28.7c0.7,1.1,0.1,1.6-0.3,2.1c-7.3,7.6-8.1,17.5-9.8,27.2c-0.2,1.3,0.4,2.4,1.3,3.3
		c4.7,4.2,8.2,9.4,12,14.3c3.4,4.4,14.4,6.1,19.2,3.2c0.8-0.5,1.7-1,1.8-2c0.6-6.8,7.2-9.7,9.6-15.9c1.6,2.5,0.2,4.9,1.4,7
		c1.7-0.8,2.1-2.8,3.5-4.5c1.6,6.5,3.4,12.6,1.6,19.1c3.1-4.8,2.5-10.4,3.7-16.5c3.6,3.9,6.5,7.5,8,12c0.7-1.1-0.4-2.8,1.1-4.1
		c3.9,4.6,8.5,8.6,5.9,15.6c-0.9-0.6-0.5-2.3-2.1-2.7c1.6,4.6,0.9,9-1,13.3c-0.8,1.8-0.1,3.6,0.1,5.4c0.3,3-0.3,5.8-1.1,8.8
		c2,0.2,3.5-3.6,5.1-1.3c1.9,2.6-1.1,5-1.8,7.8c2.5-0.1,2.9,1.3,1.9,3.3c1.9,1.4,2.8-0.2,4.4-1.2c-0.8,2.3-1.5,4.2-2.3,6.5
		c3.9,0.6,5-2.5,7.1-4.9c0.6,2.7,2,3.6,4.6,2.5c-4.6,1.9-4.2,4.2-1.4,7c1.1,1.1,1.4,2.4-0.8,3c18.1,0,36.2,0,54.3,0
		c16.5,0,33,0,49.4,0.1c2.7,0,4.2-0.8,4.7-3.4c0-0.3,0.2-0.6,0.3-0.9c0.9-2,0.5-5.1,3.1-5.4c2.6-0.3,3.3,2.5,4.4,4.4
		c0.4,0.6,0.8,1.2,1.6,1.2c1,0,1.2-0.9,1.5-1.6c1.1-2.6,1.5-5.6,3.4-8.2c2.4,2.3,2.1,4.9,2.2,7.3c0.3,5.5,3,7.6,8.3,6.4
		c1.7-0.4,1.8-1.8,2.2-2.9c3.3-9.7,4.4-19.7,2.9-29.9c-0.1-0.9-0.5-2,0.4-3.2c2,4.7,3,9.4,3.3,14.2c0.5,9.7-1.1,19.3-2.1,29
		c-1,9.3-2,18.7,0.3,28c0.6,2.5,1.2,6.1,3.5,6.6c2.3,0.5,2.9-3.3,4.4-5.1c1.4-1.6,2.3-3.6,4.1-4.9c2.5-1.8,4-1.2,4.8,1.8
		c0.7,2.8,0.4,5.6,0.1,9.1c4.9-7.4,6.1-15.3,8-23c1.4,6,1.7,11.7,0.5,17.9c-2.5,13.6-2.4,27,8,38.1c0.1,0.1,0.1,0.1,0.2,0.2
		c1.9,1.7,3.9,4.1,6.4,3.4c2.1-0.6,1.5-3.6,2-5.6c0.8-3.1,1.5-6.2,2.6-9.3c-0.4,9.8,0,19.5-2.6,29.2c5.2-2.2,8.1-17.5,6.5-33.3
		c2.7,2.7,2.5,5.9,2.5,8.9c0,3.1-0.4,6.2-0.6,9.6c2.5-0.7,3.7-2.6,4.9-4.4c2.4-3.5,3.6-7.6,3.6-11.7c0-15.7-0.2-31.3-0.5-47
		c0-2.2-0.6-4.3-1.1-7c2,1,1.6,2.5,1.8,3.6c2,8.1,2.3,16.3,2.3,24.6c0,12.1,5.1,21.4,16,27.2c2.3,1.2,3.5,1.2,3.8-2
		c0.5-5.3,0.7-10.6,2.9-16.8c1.1,11.2,1.5,21.3,0.5,31.4c3.1-10.6,8-21,0.5-32.8c3.1,1.8,3.5,4.2,4.6,6.3
		c0.6-7.5-2.1-34.6-15.8-54.5c5.3,3,7.5,8.6,9.9,13.8c3.4,7.3,7.2,14.5,9.7,22.2c1,3,3.9,3.7,7.1,4.4c-0.1-5.3-2.6-10.1-1-15.4
		c4.5,8.5,6.2,17.7,8,26.9c2.2-10.4,0.5-20-5.8-29c0.2-0.4,0.6-0.2,1.1-0.1c0.3,0.1,0.6,0.3,1.2,0.5c-3.5-15.4-10-28.4-23.7-36.9
		c-9.1-5.6-16-13.4-20.6-23c-6.2-13-16.8-20.9-29.6-26.5c-3.4-1.5-6.8-0.7-10.1,0.4c-13,4-23.8,11.8-33.9,20.7
		c-8.4,7.3-15.7,15.8-24.9,22.1c-1.7,1.2-3.5,2.2-5.5,3c16.3-11.2,26.3-29.3,43.2-39.2c0.7-1.7-3.7-3.3,0.2-4.4
		c1.1-0.3,1.9,2,4.1,1.4c-2.9-1.9-3.2-5.3-5.6-7.2c-0.8-0.6-0.9-1.4-0.3-2.1c0.8-0.9,1.7-0.5,2.3,0.3c1.4,1.7,2.6,3.5,4.3,5.1
		c-0.2-6.6-3.6-11.8-7.6-16.8c7.3,4.3,7.8,12.3,10.6,19.3c4.1-1.7,8-3.7,12.3-4.2c14.7-1.6,26,5,35.6,15.2c4,4.2,6.7,9.3,9.7,14.3
		c5.6,9.5,13,17.4,22.1,23.4c6.4,4.3,11.3,9.4,13.9,16.6c0.8,2,2,2.6,4.1,2.6c20.3-0.1,40.6,0,61,0c0,0.5,0,0.9,0,1.4
		c-10.3,0-20.6,0-31,0c0,0.5,0,0.9-0.1,1.4c6.1,0.7,12.2,1.4,18.3,2.1c-15.6,2.6-31.3,3.1-47.4,3.3c1.9,5.3,3.8,10.3,4.6,15.6
		c1.1,6.9,0.5,13.7-1,20.5c-0.3,1.2-0.8,2.4-2.2,2.6c-1.6,0.3-2-1.1-2.6-2.1c-0.5-1-1.3-2-1.4-3c-0.5-5.2-3.5-7.4-8.7-7.1
		c1.2,8-0.1,16-2,23.9c-1.6,6.6-4,12.9-7.3,18.8c-0.6,1.1-1.5,2.5-3,2.2c-1.5-0.3-1.5-1.9-1.8-3.2c-0.8-3.1,0.5-6.7-0.7-9.2
		c-1.3-2.8-5.6-1.3-8.4-3c-3.2-2-6.2-4-8.9-7.2c-0.6,4.9-1.4,9.3-3.2,13.5c-1.9,4.3-4.6,7.9-8.9,9.9c-1.7,0.8-2.2,2.2-2.6,3.8
		c-0.8,2.6-1.6,5.2-3.6,7.3c-0.8,0.9-1.8,1.4-3,1.2c-1.3-0.2-1.2-1.4-1.4-2.4c-1.5-7.5-1.6-7.4-8.2-11.1
		c-9.1-5.1-13.2-13.6-15.2-23.3c-0.1-0.6-0.1-1.2-0.3-1.8c-0.2-1-0.4-2-0.6-2.9c-3.4-0.9-5.9,0-8.2,2.7c-1.9,2.2-4.6,3.6-7.5,4.5
		c-2,0.6-3.2-0.1-3-2.4c0-0.5-0.1-1.1,0.2-1.5c3.2-5.1,1.3-9.2-1.9-13.4c-2.1-2.8-3.2-6.3-3.6-9.9c-0.3-3-1.7-3.7-4.5-3.6
		c-5.8,0.2-11.7,0.1-17.6-0.9c6.4-0.4,12.8-0.8,19.2-1.3c0.8-0.1,2,0.3,2.1-1.1c0.1-1.5-1-1.5-2.1-1.5c-3.2-0.2-6.5-0.3-9.7-0.6
		c-16.3-1.9-32.7-1-49.1-1.3c-1.8,0-3.6,0-5.4-0.6c5.1-0.5,10.2-1.1,15.2-1.6c16.1-1.5,32.2-3,48.3-4.3c3.7-0.3,3.8-2.4,3.7-5.2
		c-1.3-0.8-2.9-0.4-4.3-0.4c-64.5-0.3-129.1-0.5-193.6-0.8c-4.6,0-9.1-0.1-13.6-0.4c-1.9-0.1-2.4,0.5-2.4,2.4
		c0.1,10.5-1.5,20.6-8.7,28.9c-0.8,0.9-0.5,1.9-0.5,2.9c0.1,2.3,0.2,4.6,0.1,7c-0.1,1.3,0.6,3.1-1.3,3.7c-1.9,0.6-3-0.8-4.1-2
		c-0.5-0.6-1.1-1.2-1.4-2c-1.8-4-4.7-6-9.5-5.1c-1.3,5.3-2.7,10.9-5,16.2c-3.7,8.7-9.1,15.5-19.3,16.8c-1.5,0.2-1.4,1.1-1.4,2.2
		c-0.1,2.1-0.1,4.3-0.5,6.3c-0.6,3.3-2.4,3.8-4.8,1.4c-2.8-2.8-4.1-6.4-5.5-10c-0.3-0.8-0.5-2-1.2-2.4c-6.2-3.3-9.1-8.9-10.6-15.7
		c-3.6,2.2-7.4,3.2-11.4,3.1c-1.4,0-1.9,0.5-2,2c-0.1,2.6-0.6,5.2-1.6,7.7c-0.4,1-0.6,2.2-2,2.4c-1.3,0.1-1.9-0.8-2.7-1.6
		c-10.1-9.1-12.5-21-12.8-33.8c0-0.3-0.1-0.6-0.3-1.5c-1,2.2-1.7,4.1-2.6,5.8c-0.7,1.4-1.4,3.1-3.4,3.1c-2.1,0-2.4-2-2.9-3.4
		c-3.5-9.8-3.3-19.8-1.6-29.9c0.2-1.1,0.4-2.2,0.6-3.5c-14,0-27.8,0-41.6,0c0-0.2,0-0.3,0-0.5c12.8-0.7,25.6-1.3,38.4-2
		c1.7-0.1,4,0.7,4.7-2.5c-12.3-0.8-24.5-1.6-36.6-2.4c11.7-1,23.4-1.1,35.1-1c2.3,0,3.4-0.7,4.2-2.8c4.1-10.7,10.8-19.3,21.1-24.9
		c4.1-2.2,7.1-5.4,9.3-9.6c3.6-7.1,8.8-13.1,14.3-18.8c6.8-7,13.1-14.3,18.7-22.3c5.3-7.6,12.2-12.8,22.5-13.8
		c-3.4-3-5.1-6.3-7.1-9.4c-5.4-10.1-7-20.6-4.4-31.8c0.1-0.6,0.4-1.4-0.7-1.8c-2.4,3.8-3.9,8-4.6,12.3c-1,5.9-0.9,11.9,2.2,17.3
		c1.6,2.9,3.8,5,7.6,3.9c-2.7,2.4-5,1.3-7.2-0.7c-6.1-5.6-7.7-16.1-4-25.4c1.5-3.7,3.3-7.4,3.9-11.4c0.2-1.1,0.4-2.1-0.5-3.8
		c-0.6,3-1.1,5.4-1.8,8.3c-0.4-0.9-0.5-1.3-0.9-2c-3.2,5.7-7.1,10.7-9.6,16.5c-2.4,5.5-1.4,9.9,3.1,13.7c-3.9-0.5-6.5-5.1-6-10.5
		c0.4-5.3,3-9.8,5.1-14.4c5-10.9,2.8-20.9-6.6-29c11.4,11.7,8.9,23.4,0.6,35c1.4-6.5,6.5-12.5,4.7-19.9c-1.7-7.2-6.8-12.2-12.3-16.8
		c1.8,2.4,4.2,4.3,5.7,6.9c2,3.4,1.5,5.8-1.8,7.6c0.6-4.5-2.2-7.3-5.3-9.5c-8.8-6.1-16.3-13.2-21-23.4c-0.5,5,3.2,11.6,8.5,15.6
		c-4.4,0.5-6.3-1.7-14.9-16.5c0.4,1.8,0.7,3.5,1.1,5.2c0.5,1.8,1.1,3.7,1.9,5.4c0.7,1.7,1.7,3.3,2.7,5.2
		c-7.2-1.8-12.2-11.1-15.3-28.5c-0.6,4.4-0.5,8.1,0,11.8c-3.1-6.6-2.3-13.4-0.7-21c-2.5,3.1-3.1,6.1-3.6,9c-0.6,3.2-0.5,6.5,0.8,9.5
		c1.2,2.8,2.7,5.5,4.2,8.6c-4.5-1.7-10.1-9.3-8.9-19.1c-2.1,2.1-2.9,6-2.3,11.6c-3.7-7.1-0.6-16.8,10.2-31.5
		c-7.7,3.2-14.6,17.2-13.2,27.3c-3-2.1-3.3-4.7-2.8-7.6c1-5.4,3.5-10.3,5.9-15.2c0.5-1,1.4-2,1.1-3.2c-1.1-0.8-1.6,0.5-2.8,0.3
		c2-2.6,4-5.1,5.9-7.6c-9,5.2-17.7,10.7-24.5,18.2c-1-7.3,1.8-13.2,7.6-17.6c4.3-3.3,9-6,13.6-9c0.6-0.4,1.2-0.6,2.6-1.4
		c-6.5,1.1-12.1,2.4-18,1.4c8.9-3.7,18.2-6.7,27.1-12.3c-7.9,0.9-15,0-22,1.5c10.1-3.6,21.2-4.1,30.6-10.9c-3.7,0-7.3,1.2-10.2-2.8
		c12.4,0.3,20.5-6.5,28.2-14c8.6-8.4,13.9-19.3,22.7-28.5c-3.5,0.7-5.4,2.3-7.9,3.2c7-4.8,12-11.7,18.6-16.9
		c-4.7,2.4-9.2,5.3-14.1,7.1c12.4-13,20.2-17.7,34.3-20.3c-7.2-2.4-14.3-4.2-19.6-9.6c2.9,1.1,5.8,2.3,8.8,3.4
		c-3.7-4-7-7.9-6.4-13.8c4.9,11.4,15.4,13.1,26.8,15.9c-3.3-3.4-7-4.5-9.3-8.2c1.5,0.7,2.4,1.2,3.3,1.6c-5.4-5.5-4-11.6-2-17.8
		c-0.3,4.4,0.3,8.5,3.3,12c2.8,3.3,6.2,5.6,11.6,7.1c-3.3-4.4-5.3-8.3-5.3-12.8c0-4.5,1.3-8.4,4.1-13.1c-0.2,4.9-1.5,8.9,0.4,13.2
		c1-6.5,3.6-11.7,7.8-16.4c-5.4,10.5-6.3,20.2,4.9,27.9c0.5-2.7-2.2-4.6-1-7.3c1.6,2.2,2.7,4.9,6.2,5.6c-1.8-2.1-3.8-3.5-4.5-6.2
		c7.3,9,18,10.6,28.2,4.5c12.8-7.7,26.3-13.7,41-16.8c26.5-5.5,52.4-4,77.2,7.7c5.8,2.8,11.8,5.2,18.1,6.8c1,0.2,1.9,0.4,3.4,0.6
		c-0.5-4.1-1.5-7.9-0.4-12.3c1.7,3.9,1.8,7.9,5,12.1c1.1-9.4,0.3-18,4.7-26.2c-0.5,4.2-0.9,7.9-1.3,11.6c2.6-3.1,3.9-6.9,7-10.1
		c-1.1,5.2-4.6,9.3-4.2,15c5.2-4.9,8.2-11,13.5-15.2c-6.8,9.1-10.1,19.8-14.4,30.1c3.3-6.5,5.2-13.8,10.6-19.2
		c5.4-5.3,11.7-9.3,18.3-12.8c-6.3,6-13.2,11.5-17,19.7c6.6-4.2,12.7-9.3,21.1-12.1c-5,3.1-9.3,5.8-13.5,8.4
		c3.6-0.7,6.7-2.4,10.4-2.8c-6.5,3.8-13,7.6-17.7,13.9c11.4-4.6,23.1-5.3,36-4.2c-6.9,1.7-13.3,2.1-20.1,5.3
		c6.8-0.3,12.5-0.8,18.1,1.1c-6,0.1-12.1,0-18.5,2.9c9.9,1.7,16.6,8.9,25.7,10.8c-4.1,0.6-7.6-0.6-11.2-2.2
		c-10.8-4.8-21.9-4.4-33.2-1.5c0.7,2,2.7,0.6,3.4,2.2c-0.7,2.1-3.3,2-5.6,4.1c8.5-0.4,15.7,1,21.9,5.7c-0.5-2.3-2.5-2.7-4.1-3.5
		c-1.6-0.8-3.3-1.5-5.3-2.5c1.2-0.6,2.1-1.1,2.9-1.6c-0.2-1.3-1.6-1.1-2.1-2.1c0.8-1.5,2.3-1.7,3.8-1.8c8-0.6,15.7,0.3,22.9,4.2
		c5,2.7,10.3,4.8,15.7,6.7c-3.2,0.7-6.3,0.1-9.6,0c6.5,3.7,12.9,7.5,19.7,10.7c-2-0.5-3.9-1.1-5.9-1.6c-0.1,0.3-0.2,0.7-0.3,1
		c17.6,6.7,33.1,19.9,54.1,16.3c-1.5,2-3.5,2.1-5.3,2.6c-1.8,0.5-3.8-0.2-6.1,1.4c5.8,2.5,11.7,2.4,18,4.1c-7.8,1.8-15,1-22.3,1.2
		c9.2,3.7,19,4,28.7,6.1c-2.1,0.2-4.2,0.4-6.3,0.5c-2.1,0.1-4.2,0-7.1,0c4.9,5.1,11.1,7.4,15.6,12c4.9,5,5.1,11.4,6.1,18.6
		c-4.2-9-10-15.2-19.4-18.3c3.6,4.4,7.1,8.2,10.1,12.2c6.1,8,8.8,16.7,5.2,26.7c-0.7,2.1-1.6,4.1-3.8,6.2c1.3-6,1.5-11.3-0.9-17.7
		c1.1,9.6,0,17.6-5.5,24.4c4-8.7,5.7-17.5,1-26.6c1.2,10-0.6,19.4-6,28c3.1-9.9,2.2-19.5-1.8-28.9c1.1,6.1,1.1,12.1-0.6,18
		c-1.7,5.9-4.9,11-9,15c2.2-9.3,7.3-18.4,4.7-28.9c-0.2,0.2-0.4,0.3-0.4,0.4c-0.2,2.8-0.6,5.4-1.7,8.2c-2.3,5.8-3.5,11.9-7.3,17
		c-2,2.7-2.7,6.1-3.2,9.4c-0.8,5.9,1.1,8.7,8.1,12c-6.2,2.8-12-3.8-12.6-14.5c-2.4,3.7-2.3,11.5,0.2,15.1c2.5,3.8,6,4.9,11.4,3.7
		c-3.7,5-11.6,2.5-16.8-5.5c0.1,3.6,1.9,5.9,4,8.1c2.4,2.6,5.4,5,5.8,8.7c0.3,2.7,0.3,5.1,2.9,6.8c-4.4-1.8-7.8-4.6-11.3-8.5
		c1.3,6.1,5.2,9.3,9.7,12c5.1,3,10.9,4.9,15.5,8.9c4.4,3.7,7.1,8.1,6.1,15c-1.4-8.2-8.1-14.8-16.5-16.1c8.6,5.9,15.2,12.4,13.9,23.3
		c-0.4,3.4-1.2,6.9-4.4,9.2c2.5-4.6,2.7-9.4,1.6-15.6c-1.6,7.5-1.2,14.5-6.1,19.7c0.4-1.4,1.6-2.4,1.6-4.1c-0.5,0.2-0.9,0.3-1.5,0.5
		c1-4.9,2.4-9.8-0.4-14.3c-2.4-3.8-6.3-5.5-11-7c2.2,2.6,4.5,4.4,5.6,7.1c1.1,2.6,1.7,5.3,0.7,9.1c-1.7-11.4-10.4-13.9-18.4-17.1
		c3.8,3.4,7.5,6.7,9.5,11.6c-2.4-0.4-1.1,1.6-1.7,3c-1.7-7-7.4-9.4-12.6-12.3c-5.1-2.9-10.2-5.9-15.5-8.8c1.2,1.4,2.3,2.7,3.5,4.1
		c-10.8-5.2-16.1-17.2-27.4-21.8c5.7,5.9,11.3,11.9,17,19.4c-9.1-6.2-15-15-25.4-17.2c1.7,1.2,3.4,2.3,5.1,3.5
		c-0.2,0.2-0.3,0.4-0.4,0.3c-1.9-0.2-4.2-2-5.6,0c-1.5,2.1,1.1,3.5,2,5.2c1.1,2.2,2.7,4.2,2.5,7.7c-2.6-3.7-4.7-7.2-9-8.7
		c1.2,6.4,6.2,11.2,6,18.2c-1.6-2.7-2.1-5.9-5.3-7.4c1.7,5.4,1.7,11,5,16.1c-4.3,0-6.2-3.6-9.7-4.8c5,9.2,3.7,20.5,9.9,29.2
		c-1.8,0.1-3.3-1.2-6.3-5.5c-1.7-2.4-2.8-5.3-5.3-7.2c1.7,7.1,4.4,13.6,11.7,18.2c-5,0-7.4-2.8-9.6-5.5c-2.3-2.8-4.4-5.8-6.4-8.8
		c-2-3-2.6-6.7-4.1-10.2c-2.6,1.6-2.2,3.7-1.7,5.6c1,3.9,0.8,7.3-2.2,10.4c-1.2,1.2-0.9,2.8-0.8,4.3c0.1,1.8,0,3.5-1.9,4.4
		c-2.1,1-1.8-1.8-3.5-2.1c-1.5,3.8-1.4,7.9-2,12.4c-4.6-2.5-1.4-6.6-2.3-9.6c-3.3,2.4-4.9,9.3-4.2,18.8c0.5,6.8,3.3,13.1,5.9,19.6
		c-3-1.6-6.4-7.7-7.1-13.8c-0.6-5.2-0.4-10.6-0.3-15.9c-3.3,4-4.1,8.7-4.1,13.6c0,1.8,0.1,3.8,0.8,5.4c2.8,6.2,2,12.9,3.5,20.1
		c-7.3-7.3-11.4-15.3-12.1-25.1c-3.7,4.7-2.3,11.1,5.4,25.3c-3.2-0.8-6.5-0.2-9.5-1.5c-2.9-1.3-5.9-2.5-9.2-3.9c0,2.4,2.2,3,3.4,5.3
		c-13.3-5.8-18.3-18.7-28.5-27.5c-0.2,0-1,1-2,1.7c-18.9,12.5-46.4,9.9-61.2-5.7c-6.3-6.6-9-15-11.3-23.5c-0.9-3.3-2.3-5.4-5.4-7.3
		c-5.1-3.2-10.8-6-13.9-11.8c-0.4-0.7-1.1-1.5-1.9-1.2c-4.8,1.5-8.6-3.1-13.3-1.8c-0.6-2.8,1.8-3.1,2.8-4.5
		c-1.3-1.5-3.2,0.2-4.7-0.9c-0.3-1.6,2.4-3.6-0.2-4.9c-2.3-1.2-4.4-1-7.1,0.1c-7.1,2.8-9.6,9.2-13.3,14.8
		C180.9,450.8,177.7,455.7,171.4,456.7c7.1-5,10-13.1,14.6-20.2c-5.3,6.6-10.9,12.8-18.6,16.8c-1,0.5-1.2,1.6-1,2.7
		c0.3,1.2,1.4,0.9,2.3,1C169.6,457,170.5,456.8,171.4,456.7z M466.2,349.5c2.7-3.1,4.9-9.6,4.5-13.8c-2.7,5.3-5.2,10.3-8.2,16.4
		c1.8-1.1,2.5-1.5,3.2-2c-1.9,2.5-3.9,4.9-5.7,7.4c-0.7,1-1.4,2.1,0.7,2.3c-0.9,2.4-3.5,3.6-4,6.6c6.3-4.1,7.4-10.8,10.2-16.4
		C466.8,349.9,466.4,349.6,466.2,349.5z M148.4,277.4c5.6-7,13.9-10.2,22-15.4c-5.4,0.1-8.8,2.8-12.2,5.1
		c-5.5,3.6-10.5,7.7-13.7,13.6c-1,1.4-2,2.8-3,4.2c8.5-6,17.2-11.4,25.5-18.7C159.4,269,153.7,272.9,148.4,277.4z M202.8,324.5
		c0.7-0.7,1.5-1.4,2.1-2.2c0.8-1.1,0.4-2.3-0.9-2c-2,0.4-4.2,0-6.1,1.5C199.5,323,200.7,324.8,202.8,324.5c-0.5,0.6-1.1,1.2-2,2.2
		c3.2,0.3,1.5,1.9,1.1,3c2.3,1,4,2.1,3.7,4.8c1,0.3,2.1,0.7,2.9,1.8c0.7,1,1.7,1.7,2.7,2.3c1.2,0.7,2.6,1.1,3.6,0
		c1.3-1.3-0.1-2.1-0.9-3c-1.7-2-3.4-3.9-5-6c-1.2-1.5-3.3-2.7-2.2-5.4C205.2,324.4,204,324.5,202.8,324.5z M147.2,339.2
		c3,12.7,14.1,38.2,17.2,38.8c-0.2-0.8-0.3-1.6-0.6-2.4c-3.9-11.8-8.9-23.4-9.9-36c-0.1-1.7-1.3-1.2-2.4-1c0.4-3.8,0.8-7.5,1.1-10.8
		c-1.6-0.7-1.1,1.4-2.2,1c-0.7-3.4,1.2-6.6,0.2-10C147.1,325.3,147,332.3,147.2,339.2c-2.5-13.2,1.2-25.5,6.5-37.5
		c-1.4-0.3-1.8,0.4-2.3,0.9c-6.1,6.1-9.2,29.7-4.9,37.1C147,340.5,147.2,339.8,147.2,339.2z M240,300c-0.6-1-1.3-1.9-2.4-2.5
		c-2.5-4.7-9-6.4-14.6-3.8c-7.7,3.6-10.8,10.6-13,18.1c-0.4,1.2,0.2,2.4,0.9,3.4c7,10,21.9,11.9,31,3.8c0.6-0.5,1.2-1.3,1.3-1.9
		C244.1,311,243.6,305.2,240,300z M269.1,248.9c-0.5-0.4-1.1-0.7-1.4-1.2c-3.2-5.5-8.3-8.3-14-10.5c-2-0.7-1.9-0.9-4.8-0.4
		c13.9,3.2,18.6,13.3,22.2,24.7c1-4.4-2.1-7.7-1.4-11.6c0.8,1.3,1.8,2.5,2.3,3.9c5.1,13.5,7.9,27.3,4.9,41.8
		c-0.1,0.5-0.3,1.2-0.6,1.3c-2.6,0.5-1.9,2.6-2.3,4.3c-0.3,1.4,0.2,3.1-1.3,4.3c-1.7-2.4-4.9-1.5-7-3.7c-0.3,2.4,1.3,4,1.7,6
		c-1.5-0.6-2.1-2.3-3.8-2.2c-0.4,1.7,1.7,2.5,1.4,4.3c-0.8,0.1-1.7,0.1-2.4,0.2c-0.8,1.3,1,2.2,0.2,3.3c-0.8,0.3-1.8-0.9-2.5,0.5
		c0.7,3.2,4.7,3.3,6.4,6.2c-1.8,0.5-3.3,0.8-4.7,1.2c-1,0.3-2.5,0.6-2.4,1.9c0.2,1.7-0.9,1.8-1.8,2.5c-2,1.5-5.4,2.6-5,5.3
		c0.3,2.1-0.5,2.7-1.5,4c-4.1,5.2-9.4,9.6-12.6,15.5c-5.3,9.8-14.6,15-25.8,13.9c0.3-0.6,0.6-1.1,0.9-1.8
		c-8.5,0.9-19.6,6.6-20.5,10.7c1.2-0.6,2.2-1.1,2.9-1.4c-2.2,4.1-1.8,8.6-1.4,12.9c0.7,8.8,5.3,16,10.6,22.7c0.3,0.4,0.7,1.1,1,1.1
		c4.1-0.9,3.2,3.1,4.5,4.7c0.6,0.7,0.5,2,1,2.8c7.6,11.1,14.6,22.7,24.5,31.9c4.9,4.5,7.8,9.8,9.1,16.3c1.7,9.1,5.4,17.3,12.8,23.2
		c9.6,7.7,21,9.5,32.9,8.8c20-1.2,31-10.7,35.2-30.1c0.5-2.2,1.1-4.4,0.4-7.3c-4.7,6-5.6,13.2-9.1,19c-1.7,0-1.7-1.8-3-2.2
		c-2.9,2.6-5.6,5.3-9,7.2c-14.9,8.8-34.2,6.2-48.8-6.7c-5.2-4.5-8.4-10.1-9-17c-0.4-4.6-2-8.3-4.9-12c-7.7-9.7-16.1-19.1-20.8-30.8
		c-3.6-8.8-8.5-16.7-14.9-23.7c-1.1-1.2-2.1-2.4-3.2-3.6c4.9-3.4,8.9-2.7,11.6,2c2.1,3.8,3.7,7.9,5.6,11.8
		c10.9,22.4,35.2,33,56.3,24.1c5.9-2.5,11.2-2.7,16.9,0.1c1.8,0.9,3.7,1.6,5.6,2.2c17,6.2,40.3-4.2,47.3-20.9
		c3.3-7.8,3.8-16.5,7.4-24.3c-2.8-0.7-6.3,0.5-7-3.3c-1-5.1,1.8-8.1,6.6-9.5c-1.1-1.4-2.6-1.8-2.8-3.4c1.3,0.2,2.6,0.4,3.8,0.6
		c-2.2-1.2-4.6-1.8-6.9-2.5c-3.4-0.9-6.5-2.4-8.9-5c-6.7-7.4-13-15-17.2-24.1c-4.2-8.8-9.3-17-16.4-23.8c-0.9-0.9-1-2.1-1.4-3.2
		c-2.1-5.9-1.6-12.5-4.1-18.3c-0.3-0.7-1.1-1.1-0.8-2.1c1.1-4.2,2.7-8,1.3-13.1c-1.2-4.6,0.5-10.2,3.1-14.8c0.4-0.8,0.7-1.6,1.2-2.8
		c-1.8,0.9-1.8,2.6-3.8,3.1c2.1-6.3,6.9-10.4,10.3-15.7c-2.9-0.6-1.9-1.9-0.6-3.2c1.9-1.8,3.9-3.6,5.8-5.4c1-1,2.2-2.1-0.5-2.6
		c1.4-1.4,3.6-1.3,4.4-3.3c-1.6-0.7-2.7,0.4-4,0.3c1.1-2.7,3.2-4.7,5.5-6.7c-1-0.6-2.2,0.6-2.5,0.1c2.2-5.1-1.9-5.2-4.3-6.5
		c0.7-0.4,1.3-0.8,2.1-1.2c-9.7-4.3-33.4-7.4-40.7-5.1c4.5,1.7,2.8,4.8,2.4,7.3c-5.9,1.2-11.1-2.6-17.1-1.5
		c-5.8,1-11.4,2.4-17.1,3.8c-6.1,1.5-14,5-15.4,6.8c11.6,0.8,23.5-1.8,35,3.2c0.2-1.8-0.5-3.5,1.6-4.3c1.9-0.8,2.4,1,3.5,1.6
		c1.3,0.8,2.4,1.8,4,1.4c0.6-0.6-0.8-1.3,0.3-2c0.6,0.4,1.2,0.7,1.7,1.1c3,2.4,1.3,6.6,3.6,9.3c0.2,0.3,0.3,0.8,0.3,1.2
		c0.9,5-1.7,7.7-6.6,6.7C271.5,246.9,270,247.1,269.1,248.9z M173.5,580.4c0.6-1.5,0.1-2.5-0.2-3.4c-1.6-4.6-1.9-9.3-0.9-14
		c0.5-2.6,2-4.9,1.8-7.6c-0.5-10.4-0.3-20.6,4.3-30.3c0.5-1-0.2-3,1.6-2.8c1.8,0.2,3,1.4,3.2,3.5c0.5,4.7,1.1,9.4,1.7,14.1
		c0.8,5.6-0.4,11.3,0.9,16.9c0.3,1.4,0,3.6,1.6,4c1.8,0.5,2-1.8,3-2.8c0.3-0.3,0.7-0.6,1.7-1.5c-0.2,5.4,3.1,5.9,6.8,6.3
		c1.7,0.2,2.8-0.2,3.2-1.9c0.5-2.5,1.2-5,0.5-7.5c-0.7-2.3-0.2-4.3,0.6-6.5c1.4-3.9,4.3-6.1,8.1-7.5c-4-5.8-7.8-11.2-11.4-16.6
		c-3.7-5.6-6.9-11.4-10.7-16.9c-5.6-8-11.7-15.8-20-21.3c-12.6-8.5-23.9-6.7-33.1,5.3c-1.4,1.8-2.7,3.6-3.9,5.4
		c-8.4,12.2-19.6,22.1-28.4,33.9c-6.1,8.1-12.3,16-21.1,21.4c-2.6,1.5-4,3.9-5.4,6.4c-5.1,9-7.6,18.9-8.6,29.2
		c0.9-0.9,1.5-1.9,2.1-2.9c1.7-2.4,3.4-4.8,5.2-7c0.9-1.1,2.4-1.8,3.8-1.2c1.4,0.6,1,2.1,1.1,3.2c0.1,3.8-0.7,7.4-1.8,11
		c-0.4,1.2-1.4,2.4-0.9,4c3.6-1.5,4.6-5.9,9.2-6.9c-7.3,13.2-7.7,26.6-5.5,40.3c1.4-8.3,2.5-16.7,8.3-23.4
		c-4.2,12.1-6.7,24.2-1.1,36.6c-1.1-12.1,0.5-23.8,4.1-35.4c3.5,6.4,0,13.1,0.4,20c1.3-0.6,2.4-1.1,3.5-1.6
		c10.4-4.9,12.1-15.1,14.7-24.6c0.9-3.3,2.2-6.4,4.3-9.3c-0.6,5.2-1.7,10.2-2.8,15.3c-1.6,7.6-3.7,15.1-2.3,23
		c0.7,3.8,1.7,7.2,5,9.5c0.9-1,0.4-1.9,0.4-2.7c-0.1-6.9,0.5-13.7,3.2-20.2c0.7-1.6,1.3-3.9,3.4-3.8c2,0.1,2.2,2.4,2.7,4
		c2.2,6.3,3,12.8,3,19.4c0,1.3-0.4,2.8,1.1,4.2c5.6-2.5,10.8-5.7,13.3-11.5c2.1-4.7,2.9-9.9,3.5-15c1.1-8.8-0.3-17.6,0.1-26.4
		c0.5-10.3,1.7-20.5,6.6-31.2c-0.2,2.4-0.2,3.6-0.3,4.7c-1.5,10.8-1.7,21.6-0.4,32.4c0.6,4.6,1.1,9.3,4.7,13.2
		c0.5-2.1-0.8-3.4-0.9-5c3.2-0.6,1.1-3.9,2.7-5.3c0.6,10.7,4.8,22,9.9,26c0.1-1.4-0.2-2.5-0.8-3.5c-1.9-3.3-3.3-6.7-4.2-10.4
		c-1.5-6.1,1-13-3.7-18.6c4.3,2,4.9,6.5,7.3,10.1c0.6-3.1-1.4-6.5,2.1-9.1c0.8,2.1,1.5,4.1,2.2,6.1c0.3-0.1,0.7-0.2,1-0.3
		c-0.7-5.3-1.4-10.7-2.1-16c0.2,0,0.5-0.1,0.7-0.1C172.1,578.5,172.7,579.3,173.5,580.4z M252.2,436.6c-0.2,2.2-0.5,3.9-0.4,5.5
		c0.4,6.5-1.2,13.3,2.2,19.3c4.7,8.2,11.6,14.2,19.9,18.6c4.6,2.4,9.6,3.1,14.8,2.6c17-1.6,28.7-12.8,32.3-30.8
		c0.8-4.2,0.1-5.3-4.2-4.8c-10.2,1.1-19.4,4.5-26.9,11.8c-2.1,2-4.8,2.5-7.4,3.2c-2,0.5-1.7-1.8-2.7-2.7c-0.4-0.3-1-0.3-1.4-0.5
		c-2.5-1.2-4.2-2.6-2.4-5.8c1.1-1.8,1.1-3.9-0.6-5.6c-1.6-1.7-3.6-1.9-5.8-1.3c-4.8,1.3-7.8,4.9-11.1,8.1c-1,1-1.8,2.5-4,2.1
		c2.6-6.4,8.2-9.5,13.7-13.5C262.2,441.1,257,440,252.2,436.6z M244.6,236.5c-5.9-4.2-11.3-0.3-15.7,2.3c-2.6,1.5-4.4,5-8.6,5
		c1.1,1,2.5,0.3,3.1,2.4c-7.4,0.2-14.4,1.5-16.7,10c1.7,1,3.1-1.7,4.9,0.1c-4.9,2.6-5.2,8-8.3,12.1c3.8,0.9,6.4-3.6,10.3-1.1
		c-1,0.7-1.4,1.1-2,1.3c-2.5,1-5.1,1.8-7.7,2.8c-1.2,0.5-2.2,1.3-1.6,2.8c0.6,1.5,1.8,0.8,2.9,0.4c0.9-0.3,1.6-1.2,2.9-0.4
		c-2.3,2.7-5.6,4.4-6.7,7.9c3.4-1.8,6.6-3.7,9.4-6c1.3-1,3.1-0.6,4-2.2c3.1-5.2,7.7-8.7,13.6-10.1c2.3-0.5,3.4-2.2,5-3.3
		c1.4,0.2,2.4,1.7,4,1.2c0.6-1.6-0.6-3.6,1.2-5.2c1,0.7,2,1.5,3.1,2.3c1.3-2.5-4.5-4.9,0.2-6.9c-0.3-1.4-1.8-2.4-0.3-4
		c4.6,1.6,8.9,5.2,14.4,3.5c-2.7-4.3-6.3-8.5-9.9-12.6c-1.6-1.8-2.8-1-3,1.4c-1.5-0.6-2.5-1.4-3-2.7
		C241.7,237.2,243.2,236.8,244.6,236.5z M118,318.9c-0.8,0.8-1.9,1.8-2.8,2.9c-4.5,5.4-8.1,11.3-11,17.7c-0.4,0.8-0.5,1.8-1.6,2.1
		c-2.5,0.7-3.4,2.9-4.6,4.9c-7.7,13.8-3.5,31.9,8.4,41.6c6.2,5.1,12.9,9.7,18.8,15.2c-0.9-1.3-1.9-2.5-3-3.7
		c-5.9-5.9-11.9-11.9-17.8-17.8c-3.7-3.7-5.4-8.2-5.9-13.3c-0.4-3.8,0.1-7.5-0.3-11.4c-0.5,1.3-1.1,2.7-2,4.8
		c0.5-5.9,3.7-13.9,6.9-17.9c-2.4,12.5-2.4,13.7,0,19.8c0.8-0.9,0-2.5,1.9-3.3c0,2.1-0.1,3.9,0,5.6c0.2,1.7,0.4,3.4,1,5
		c0.5,1.6,0.3,3.5,1,4.4C108.4,356.5,111.2,337.2,118,318.9z M183.2,570.2c0,0.5,0.1,1,0.1,1.6c4.1,0,8.3-0.1,12.4,0
		c65.5,1.1,131,1,196.5,1c1.2,0,3.3,0.8,3.2-1.5c-0.1-2.2-2.2-1.2-3.3-1.2c-34,0-67.9,0.1-101.9,0.1
		C254.5,570.2,218.8,570.2,183.2,570.2z M417.9,357.2c0.2,0,0.3,0,0.5,0c0-9.4,0.4-18.8-0.1-28.1c-0.6-9.5-3.2-18.7-7.3-27.4
		c-5.3-11.2-12.8-20.8-17.4-21.9c2.6,2.9,2.6,6.4,4.5,9.2c9.4,13.7,14.9,29,17.8,45.3c0.6,3-1.7,5.1-0.9,8.1
		C416.2,347.2,416.9,352.2,417.9,357.2z M191.8,416.8c-5.2,0.7-8.5,3-11.1,6.3c-5,6.5-9.2,13.5-11.9,21.3c-0.7,2.1-1.7,4.2-1.3,6.6
		c10.1-5.8,22.8-21.5,23-28.4c-6.7,4.9-12.5,10.5-16.9,17.3C177.2,430.7,182.4,422.7,191.8,416.8z M337.4,267.9
		c5.9,1.3,11,2.8,14.9,6.9c1.1,1.1,2.5,2.9,4,1.1c1.4-1.7-0.3-3-1.6-4.3c-1.4-1.4-4.3-1.6-4.6-3.7c-0.4-2.8-2.3-3.4-4.2-4.1
		c-3-1.1-6.1-1.5-9.2-1.5c-1.2,0-2.4,0.1-2.8-1.6c-0.7-3.3-2.7-2.7-4.6-1.2c-2.1,1.6-4.8,4-6.8,3.5c-3.2-0.7-3.3,1.4-4.2,2.7
		c-0.7,1.1-1.1,2.4-1.7,3.9c4.8-2.4,9-4.7,14.1-4.8c5.3-0.1,10.2,0.9,15.1,2.7C343.2,268.2,340.6,266.7,337.4,267.9z M88.8,337.1
		c3.2,1.6,5.4,2,8-0.8c5.7-6.3,11.3-12.6,16.9-19c1.6-1.8,2.4-3.5,1.3-5.8c-6.6,2.5-8.5,3.6-12.3,8.8
		C98.4,326.1,95.4,332.9,88.8,337.1z M123.1,611.1c-6.3,6.9-3.4,39.1,3.5,42.8c-0.1-2.6-0.3-5-0.4-7.4c-0.3-6.8-4-13.1-3.2-20.2
		C123.6,621.6,123.1,616.6,123.1,611.1z M131.1,277.3c-8,6.5-13.4,14.1-19.8,22.2c1.6-0.6,2.3-0.8,3.4-1.2
		c-5.2,5.4-10.5,10.2-10.6,18.2c3.7-4.2,7.2-8,9.9-13.1C118.6,294.5,125.9,287.1,131.1,277.3z M348.5,315.4c8-2.9,10-8.1,5.9-14.7
		c-2.2-3.6-4.9-6.7-8.5-8.9c-6.2-3.8-13.1-2.4-17.3,3.6c-3.5,5-4.5,10.7-4.3,16.7c0.1,4.2,1.9,5.7,6.3,5.5
		c-6.3-7.1-6.5-16.1-0.6-22.2c4.5-4.7,11.7-5,17.1-0.7C353.6,299.7,354.1,306.8,348.5,315.4z M158.4,453.4c-1.7,5.4-2,10.5-0.1,15.6
		c1.4,3.8,5.1,6.1,8.4,5.5c6-1.1,7.5-2.5,7.8-7.9c-1,0.9-1.8,1.6-2.5,2.3c-3.7,3.3-4.5,3.2-6.9-1.1c-2.5-4.4-6.4-8.2-6-13.8
		C159,453.9,158.7,453.8,158.4,453.4z M163.7,254.9c-4.4,2.1-9.1,2.6-11.9,6.6c8-2.8,16-5.5,24-8.3c0-0.4,0-0.8-0.1-1.2
		c-5.6-2.1-11.3-1.6-18.1-0.7c2.3,0.2,3.5,0.4,5.7,0.6c-3.3,0.4-5.9,0.2-8.1,2.3C157.9,255.1,160.7,253.2,163.7,254.9z M68.3,611.8
		c2.6-12.2,5.6-24.3,11.5-36.2C73.1,578,64.6,605.4,68.3,611.8z M404.3,622.4c9.6-4.9,16.4-18.6,12-25.5
		C411.8,605.6,410.2,615.1,404.3,622.4z M439.1,283.8c-1.4-6-11.1-13-19-13.6C426.8,274.3,430.1,282.6,439.1,283.8z M377.6,257.3
		c4.8,5,8.7,10.8,15.4,14.6c-0.4-3.9-4.8-4.2-5.4-7.4c2-0.2,3.5,1.9,5.8,0.9C388.6,261.4,383.5,258.7,377.6,257.3z M166.3,421.3
		c-7.8,12-13,25.9-11.6,31.3C159.2,442,163.3,431.9,166.3,421.3z M350.6,330.1c-6.7,0.2-13.3-0.6-19.8-3.3
		C333.7,334.3,343.1,335.8,350.6,330.1z M452.7,292.7c-0.4-1.8-0.9-3.7-2.2-4.9c-1.4-1.3-3.3-2.1-3.5-4.5c-0.1-0.8-1.6-1.1-2.6-0.8
		c-1.1,0.3-1.3,1.2-1.1,2.2c0.7,4.2,3.5,7.2,6.7,9.7C451.3,295.5,452.5,294.5,452.7,292.7z M47.8,362c6.5-8.2,14.8-12.8,24-18.2
		C59.4,346.2,47.6,355,47.8,362z M416.4,369.8c-1.2,5.4,7.7,25,12.2,27.5C423.7,388.3,420.5,379.4,416.4,369.8z M496,318.6
		c2.2,7.7,6.7,14.7,7.7,22.9C505.1,332.6,502.4,325,496,318.6z M314.4,301.5c-2.2-5.8-3-11.1-5.9-16.5
		C306.4,290.9,308.6,297.2,314.4,301.5z M159.2,280.4c-8.6,4.2-13.8,8.2-14.7,12C149.1,287.3,156.4,286.9,159.2,280.4z M333.9,313.8
		c2.9,2.7,5.9,3.4,9.4,2c3.6-1.5,5.1-4.4,5.1-8.4C345.4,314,340.2,315,333.9,313.8z M434.5,271.3c-4.4-4.8-10.3-5.9-16-8.6
		C419.9,265.7,431.6,272,434.5,271.3z M217,346.5c-4.9,2.7-9.6,3.2-14.7,4.6C210.2,353.8,214.4,352.6,217,346.5z M181.4,248.2
		c-7-0.7-13.9-3-20.9-0.6C167.4,248.6,174.4,249.8,181.4,248.2z M158.6,287.1c-5.4-0.1-12,6.6-14.4,13.5
		C149.1,296.4,152.3,290.9,158.6,287.1z M142.3,273.9c4.9-2.8,9-6,13.2-9.5C150.9,264.2,144.4,268.9,142.3,273.9z M392.2,254.9
		c-4.8-6-8.3-7-12.8-3.9C384.1,251.8,388,253.8,392.2,254.9z M180,238.5c5.1,4.4,10.9,3.4,17.4,2.4C191.1,240,185.6,239.3,180,238.5
		z M419.5,373.4c-1.4-7.8-1.5-14.8-4.1-21.7C414.5,355.6,416.5,366.2,419.5,373.4z M366.7,242.4c4.7-2.5,9.6-4.5,13.5-8.2
		C375,235.8,370.1,237.8,366.7,242.4z M334.7,301.4c0-1.5-1.2-1.8-2.3-1.8c-1.8,0.1-3.4,0.9-3.7,2.9c-0.2,1.5,0.8,2.5,2.3,2.7
		C333.6,305.4,333.8,303.1,334.7,301.4z M240.7,427.4c0.7,3.3,0.6,6.5,2.8,9.1C246.1,431,245.5,428.7,240.7,427.4z M266.8,259.7
		c-0.3-3.9-1-6.8-2.3-9.5c-0.3-0.6-0.7-1-1.4-0.7c-0.7,0.3-0.6,0.9-0.5,1.5C263.3,253.8,263.9,256.6,266.8,259.7z M199.4,290.9
		c2.1-4.1,5.4-5.9,7.8-8.9C202.4,282.3,199.9,285,199.4,290.9z"/>
	<path d="M411.2,522.2c-0.4-5.5,6.1-6.9,6.7-10.8c1.1-6.9,6.2-4.9,9.8-5.8c3.6-0.8,5.7,1.5,6.1,5.1c0.2,1.7,1.3,2.9,2.3,4.2
		c1.2,1.5,1.4,2.4-1,3.1c-2.4,0.7-4.7,1.7-7,3.2c-2.1,1.4-5.2,1.9-7.8,2C417.2,523.3,414,522.6,411.2,522.2z"/>
	<path d="M312,555.7c-1.8,4.5-5.3,6.6-8.7,7.3c-5.1,1-10.3,2-15.6,1.7c-0.9-0.1-2-0.1-2-1.3c0-1,0.9-1.2,1.8-1.3
		c7.8-0.7,15.3-2.3,22.3-6.1C310.1,555.7,310.6,555.8,312,555.7z"/>
	<path d="M409,472.9c-3.5,3.5-11.7,3.4-15.1,0.4c-1.7-1.5-3.2-3.3-4.8-5c-0.5-0.5-1-1.1-0.5-1.9c0.5-0.7,1.3-0.8,1.8-0.3
		c2.4,2.4,5.5,3.6,8.6,4.9C402,472.4,405.2,472.9,409,472.9z"/>
	<path d="M442.1,540.8c5.7-1.8,10-0.1,14.1,5.7c-1.9-0.2-3.5-0.4-5.2-0.6c-1.7-0.1-3.4-0.2-5.5-0.3c0.8-1.2,3.4-0.6,2.4-2.5
		C446.7,541,444.2,541.2,442.1,540.8z"/>
	<path d="M371.7,485.4c2.9,2.2,4.1,6.2,4,12.5C373.5,496.9,373.5,496.9,371.7,485.4z"/>
	<path d="M237.7,297.5c1.1,0.6,1.8,1.5,2.4,2.5c0.3,0.9,0.7,1.9,1,2.8c1.8,5.6,1.1,10.8-3,15.2c-3.5,3.7-7.9,4.9-12.7,3.5
		c-5.7-1.6-8.5-5.8-9.4-11.4c-0.8-5.2,2.2-11.7,6.8-14.2C228.1,292.8,233,293.9,237.7,297.5z M227.1,315.8c3.1,2.4,7.9,2.1,10.1-0.6
		c1.1-1.4,2.3-3.2,0.4-5.4C234.6,313,232.6,317.4,227.1,315.8z M225.4,305.6c-0.2-2.1-0.1-4-2.2-4c-2.2,0-4.4,1-4.9,3.6
		c-0.2,1-0.1,2.1,1,2.6c1.3,0.6,1.7-0.5,2.3-1.3c0.4-0.6,0.7-1.2,1.1-1.8C223.4,304.9,224.2,305.2,225.4,305.6z"/>
	<path d="M285.8,422.5c-0.1-0.3-0.3-0.6-0.3-0.8c0.9-7.3-3.1-10-9.6-11.9c-8.4-2.4-15.4-7.2-17.6-16.6c-0.2-0.7-0.6-1.2-1.3-1.6
		c-10-5.9-10.6-21.7-1.1-28.4c4.6-3.3,9.8-5.3,15.5-5.6c10.9-0.5,21.8-1.6,32.6,0.3c13.3,2.2,21.5,14.1,18.5,26.1
		c-0.7,2.7-2,5.1-4.6,6c-2.2,0.7-3,2-3.5,3.9c-2.3,7.8-8.5,11.4-15.5,14.1c-1.8,0.7-3.6,1.3-5.5,1.6c-4.7,0.8-6.8,3.4-6.5,8.2
		c0.1,1.6-0.3,3.1-0.4,4.7C286.2,422.5,286,422.5,285.8,422.5z M282.7,366.4c-4.9-1.6-9.6-1.4-14.3-1.5c-4.8-0.2-7.8,2.7-10.4,6.2
		c-0.5,0.7-1,1.7-0.1,2.5c0.8,0.7,1.5,0,2.2-0.4c5.4-3.5,11.3-5.2,17.7-5.3C279.4,367.7,281,367.7,282.7,366.4z"/>
	<path d="M268.5,349.8c3.3-2,4.2-7.6,9.4-5c0.1-2.2-1.9-1.3-2.6-3c3.8,0.5,6.9-2.4,10.6-0.7c1.1,0.5,2.1,0.5,3.2,0.2
		c3.2-0.7,8.2,2.5,9.1,5.6c0.8,3-1.5,5.5-4.4,4.5c-4.5-1.4-8.6-0.4-13,0.3C276.9,352.5,272.6,350.6,268.5,349.8z"/>
	<path d="M143.7,564.6c-2.4,2.3-3.8,4.4-1.3,7c0.6,0.6,0.7,1.6,0,1.8c-3.5,1-1.4,3.6-1.6,5.5c-6.5,3.4-13.9,3.7-20.1,7.2
		c-2.7-2.2,2.4-4.9-1.3-6.7c2.6-1.6,2.6-4.5,2.6-6.7c0.1-2.9,2.3-5,2.2-8c-0.1-1.4,2.4-2.5,4.1-3.1c2.3-0.8,4.6-1.4,7-1.9
		c2.5-0.6,4.4,0.3,5.3,2.8C141.1,563.7,141.8,564.7,143.7,564.6z"/>
	<path d="M155.9,507.8c-1.9,1.5-2.6,2.8-1.8,4.5c0.2,0.4,0,1.3-0.1,1.3c-3,0.2-4.2,3.3-6.3,4.7c-5.2,3.6-8.9-1.1-13.4-0.7
		c0.8-0.1,1.6-0.3,2.4-0.4c0.5-1.5-0.7-1.9-2.1-2.7c4,0,1-2.8,2.1-4.1c0.6-0.8,1.2-1.8,2-2.6c1.7-1.5,3.9-2.1,4.8-4.8
		c0.8-2.4,6-2.4,7.6-0.2c0.7,0.9,1.1,1.9,1.9,2.7C153.8,506.4,154.8,507,155.9,507.8z"/>
	<path d="M156.5,524c-1.1-2.6,0.6-4.4,3.1-5c2.9-0.7,3.8,2.3,5.8,3.6c-1.3,1.9-3.6,1.4-4.9,3c0.7,0.2,1.2,0.4,1.7,0.6
		c-0.2,0.9-3.5,1.3-4,0.6C157.6,525.9,157,524.9,156.5,524z"/>
	<path d="M120.2,569.7c-1.1,4.6-0.7,9.5-3.5,13.7C117.6,578.8,117.7,574,120.2,569.7z"/>
	<path d="M122.5,529.6c1.4-0.9,2.5-1.7,3.6-2.3c0.9-0.5,2.1-1.4,2.9-0.1c0.8,1.2-0.4,1.8-1.2,2.6
		C126.1,531.6,124.5,530.8,122.5,529.6z"/>
	<path d="M223.6,262.6c-2.8-1.5-8.1,1.4-6.1-5c0.4-1.1-1.2-1.1-1.6-1.9c0.2-1.1,1.1-1.3,1.8-1.3c2.5,0,4.5-0.8,6.1-3.1
		c1.5-2,4-2.2,5.9-0.6c2,1.7,0,3.1-1,4.6c-0.8,1.1-1.7,2-2.9,2.6C224.2,258.8,221.8,259.1,223.6,262.6z"/>
</g>
</svg>
