<?xml version="1.0" encoding="utf-8"?>
<!-- Generator: Adobe Illustrator 24.2.3, SVG Export Plug-In . SVG Version: 6.00 Build 0)  -->
<svg version="1.1" id="Layer_1" xmlns="http://www.w3.org/2000/svg" xmlns:xlink="http://www.w3.org/1999/xlink" x="0px" y="0px"
	 viewBox="0 0 595.3 841.9" style="enable-background:new 0 0 595.3 841.9; fill: #215342;" xml:space="preserve"
	 height="275" width="500" transform="translate(-105, -30)">
<g>
	<path d="M562.2,646.9c2.9,10.7,7.7,20.9,8.5,32.2c0.3,4,0.2,8-1.3,11.9c-0.6,1.5-0.3,2.7,0.1,4.1c1.8,6.5,2.7,13.2,3.2,19.9
		c0.2,2.9,0.3,6.4-3.1,7.6c-3.7,1.3-6.1-1.2-8-4c-1.1-1.6-2.4-3.2-2.9-5c-1.7-6-5.4-7.6-11.2-5.6c-0.4,5.4-1,10.9,0.6,16.5
		c1.9,6.8,2.5,13.7,3.1,20.7c0.2,3,0.1,6.3-3.3,7.6c-3.2,1.3-5.6-1-7.8-3.2c-0.5-0.5-1.1-1.2-1.5-1.8c-3.6-5.4-6.5-11.3-14.8-11.4
		c-4.1,0-6.7-4.5-10.3-7.3c-1.4,3.4-0.9,6.6-1.1,9.7c-0.1,1.6,0,3.1-0.2,4.7c-0.5,3-1.3,5.9-4.8,6.9c-3.2,0.9-5.5-0.8-7.5-2.9
		c-3.1-3.4-5-7.5-6.7-11.7c-0.6-1.6-1.4-2.8-3.4-3.3c-13.9-3.6-23-12.3-27.6-25.8c-0.2-0.5-0.4-0.9-0.6-1.6
		c-2.1,0.8-4.1,1.6-6.2,2.2c-1.4,0.4-1.5,1.2-1.5,2.3c0,1.8,0.1,3.6,0.1,5.4c-0.1,2.4-0.3,4.8-3.1,5.5c-2.8,0.7-5.1-0.1-6.8-2.6
		c-3-4.5-4.3-9.6-5.2-14.9c-0.4-2.5-1.3-4.1-3.9-5.1c-5.9-2.2-9.2-6.9-10.9-12.8c-1.9-7-3.8-14-5.4-21c-0.7-2.8-2-3.6-4.8-3.6
		c-24.5,0.1-49,0.2-73.4-0.1c-4.8,0-6.3,1.8-6.9,6.1c-1.9,13.3-3.3,26.7-3.2,40.2c0,0.9,0,1.8-0.8,2.7c-0.6-5.9-1.2-11.8-1.7-17.7
		c-0.6-7.1-0.9-14.2-1.6-21.3c-0.8-8.2-2.9-10.2-10.9-10.2c-26,0-52.1,0.2-78.1,0.3c-1.8,0-5.7,0-7.7,0c-19.4,0.1-38.9,0.1-58.3,0.1
		c-1.7,0-3,0.3-3.5,2.2c-1.4,4.8-2.8,9.6-4.6,15.8c17.6-2.6,34.6-2.4,50.5-0.2c-3.6,1.2-8.3,0.4-12.9-0.1
		c-12.3-1.3-24.5-0.6-36.7,1.5c-2.3,0.4-2.5,1.8-2.6,4c3.3,0.5,6.6,0.9,9.8,1.4c0,0.1,0,0.2,0,0.4c-1.1,0-2.3,0.3-3.3,0
		c-6.4-2.4-9,1.2-10.8,6.5c-0.6,1.8-1.7,3.4-2.7,5.6c5.4,1.2,10.4,0.1,16.6,0.7c-5.2,1-9.2,2.1-13.1,1.3c-3.4-0.7-5.1,0.4-6.9,3.1
		c-4.8,7.3-11.5,11.9-20.5,12.3c-1.9,0.1-2.7,1-3.4,2.6c-1.5,3.7-3,7.5-5.4,10.7c-1.9,2.7-4.4,4.7-7.9,3.6c-3.3-1.1-3.7-4.1-3.8-7
		c-0.1-2.7,0.3-5.4,0.5-8.2c-1.9,0.1-2.1,1.8-2.9,2.8c-5.2,6.5-11.6,10.4-20.2,8.8c-2.3-0.4-3.6,0.2-4.6,2.3
		c-1.9,3.9-3.7,8-6.8,11.2c-2.7,2.8-5.6,5.2-9.9,3.4c-4.1-1.7-3.8-5.4-3.7-8.9c0.3-6.4,2.4-12.4,3.7-18.6c0.3-1.2,0.8-2.4-0.2-4.1
		c-5.1,5.4-11.2,7.1-18.3,5.4c-1.4-0.3-1.8,1.1-2.5,2c-2.1,2.8-4.2,5.6-6.5,8.3c-1.7,2.1-4,3.6-6.8,2.5c-2.7-1.1-3-3.8-3-6.2
		c0-5.6,1.3-11.1,3.5-16.2c3.1-6.9,1.6-14.3,3-21.4c0.4-1.7,1.4-3.4,0.8-5.4c-3.8-1-6.7-0.8-7.8,3.9c-0.5,1.9-1.9,3.7-3.1,5.3
		c-1.3,1.8-3,3.6-5.5,2.6c-2.7-1.1-3.1-3.7-2.8-6.2c0.6-4.7,2.1-9.1,4.1-13.3c1.5-3.2,2.2-5.9,0.8-9.7c-2.3-6.2-0.7-12.7,2.4-18.4
		c7.3-13.4,14.8-26.7,24-39c5.7-7.6,13.7-12.1,22-16.2c6.9-3.4,12.3-9.5,19.1-12.4c7.1-3.1,7.9-7.3,7.3-14
		c-0.8-8.2-0.2-16.5,0.6-24.8c1.1,11.4-1.2,22.9,1.1,34.2c3.8,0.8,8.4-0.7,11.1-0.6c3.3,0.1,2.1-2.7,2.1-4.3
		c0.1-8.4-0.1-16.8,0.1-25.3c0.1-4.2-2-6.4-5.5-7.4c-8.4-2.3-17.2-2.8-25.7-2.8c-3.2,0-6.1-1.9-9.3-1.3c4.6-0.4,9.3-1,13.9-1.1
		c6.7-0.1,13.4-1.1,20.1-1.7c4.4-0.4,6.6-2.4,6.6-7.2c-0.1-44-0.1-88.1-0.1-132.1c0-3.9-2.6-6.6-6.5-7c-2.1-0.2-2.6,1.3-2.3,2.7
		c1.8,11.7-0.2,23.5,1.1,35.3c0.6,5.4-0.4,11.1-0.2,16.6c-1.9-31.4-1.6-62.9-3.2-94.3c0.6,7,1.9,14,1.5,21
		c-0.3,4.4-0.3,8.8,0.5,13.2c0.6,3.5,4.6,5.7,8,4.2c1.3-0.6,1.1-1.7,1.1-2.6c0-17,0-33.9,0-50.9c0-1.2-0.2-2.3-1.3-3.1
		c-2.6-2.1-14.3-14.3-18-20.7C81.7,287.5,76,268,72.6,247.7c-3.1-18.3-4-36.8-2.4-55.3c0.7-7.6-0.4-15-2.3-22.3
		c-1.9-7.2-2.2-14.5,0.2-21.4c2.9-8.5,2.8-17.3,3.8-26c0.4-3.9,1.7-7.6,3.9-10.8c2.5-3.6,5.4-4.1,8.9-1.3c4.4,3.6,7.2,8.4,10.2,13.1
		c8,13,14.4,27,23.9,39c18.8,23.4,41,43.2,66.3,59.3c17.3,11.1,30.9,25.4,41.2,43.1c4,6.9,8.5,13.3,15.1,18c2.6,1.8,4.9,2.3,7.9,1.1
		c8.4-3.3,17.1-4.9,26.2-3.6c5.3,0.8,10,2.6,14,6.1c15.2-11.5,32.4-9.7,49.5-7.9c3.4,0.4,5.9,0,8.3-2.5c3.3-3.4,6-7.2,7.9-11.4
		c4.8-10.6,11.1-20.1,18.4-29.1c4.7-5.8,8.1-12.3,8.9-19.9c1-8.2,5.7-14.2,12.9-17.3c10.3-4.4,16.5-12.5,22.9-21.1
		c11.2-15.2,21.2-30.9,28.2-48.5c2.7-6.7,6.9-12.4,13-16.6c9.5-6.4,19.3-3.8,23.9,6.7c4.1,9.4,5.7,19.5,7.9,29.5
		c7.8,36,8.2,72.4,6.1,108.9c-1.8,30.6-0.4,61.1-0.8,91.7c0,3.2,1.6,5,4.5,5.2c3,0.2,2.9-2.6,3-4.5c1.1-11.9,1.2-23.8,0.8-35.7
		c-0.1-2.2-0.4-4.6,2.3-7.8c-1.7,9-0.6,16.8-1.5,24.6c-0.7,6.6,0,13.2,0.4,19.8c0.2,2.8,1.5,4.5,4.9,4.8c9.6,1,19.1,2.5,28.6,3.8
		c0,0.6,0,1.2,0,1.8c-9,0-18,0-27,0c-3.5,0-6.9,0.4-10.3,1.4c-4,1.2-5.8,3.3-5.8,7.8c0.1,27.6,0,55.2-0.1,82.8
		c0,13.7-0.1,27.5,0.1,41.2c0,2-1.4,5.5,2.9,5.4c4.2-0.2,6.2-2.9,5.8-6.7c-0.6-6.3,0.4-12.6,0.2-18.9c-0.3-8.6,0.9-17.3-0.5-25.9
		c-0.8-5.3,0.1-10.6,0-16.8c2.6,23.1,0.9,45.3,1.1,67.5c0,1.6-0.1,3.1,0.1,4.7c1.2,9.3,8.9,12.7,16.8,7.4c3-2,6.2-3.9,9.7-0.2
		c-8.1,2-15.6,5.4-23.9,4.6c-2-0.2-2.3,1.4-2.3,2.8c0,2.6,0.4,5.2,0.5,7.7c0.5,15.1,0.7,30.3,1.4,45.4c0.3,6.2,1.2,10.6,6.5,14
		c8.1,5.3,13,13.8,19.6,21.1c1.5-2.1,0.4-4.3,1.6-7.5c-2.8,13.3,9.4,15.9,14,25c1.3-7.2,0.8-13.4,4.8-19.6c-0.7,5.5-1.4,9.7-1.9,14
		c-0.7,5.1,0.1,9.9,2.7,14.6C558,637.5,560,642.3,562.2,646.9C562.2,647,562.2,646.9,562.2,646.9z M185.9,518.5
		c1.2,0.2,2.3,0.5,1.7-1.6c-0.7-2.3-1.4-4.8-1.3-7.2c0.1-4.2-2.1-6.7-5.3-8.7c-2.8-1.7-5.6-3.4-8.4-5c4.9,0.6,8.8,3.5,13.3,6.1
		c0.8-6.2,1.4-12.1,2.3-18c0.6-4.4,0-8.4-2.5-12.2c-3.3-5-4.3-10.5-3.1-16.4c1.2-6.2,0.2-11.7-3.7-16.9c-5.7-7.4-7.3-16.1-5.8-25.1
		c1.6-9.7-2.2-16-10.8-19.4c-10.6-4.2-15.2-12.6-17.6-22.9c-0.7-3-1.5-5.9-2.2-8.9c-0.2,0-0.4,0.1-0.6,0.1c0,70.5,0,141,0,211.6
		c5.3-18.8,16.5-33.7,30.5-47.2c-1.6-0.7-2.6-1.1-3.7-1.6c4.8,1.4,7.5-2.6,11-4.1c-2.9,2.7-4.5,6.2-7.5,9.1
		c-13.1,12.5-21.9,27.6-26.2,45.4c-1.1,4.7-1.7,8,3.5,10.8c3.3,1.8,5.8,5.1,8.4,8c3.7,4.1,7.9,7.5,12.6,10.3
		c16.9,10.2,25.4,25.7,27.1,45c0.3,3.6,1.4,4.5,4.8,4.4c22.5-0.1,45.1-0.1,67.6-0.1c1.2,0,2.5,0.5,4-1.2c-5.7-0.7-8-8.2-14.8-5.7
		c0.4-1.3,2.3-1,2.3-2.7c-1.9-2.3-4.4,0.5-6.5-0.4c1.3-1,3.5-0.4,4.2-2.3c-1-1.8-3.3-0.6-4.5-2.2c1.6-1.1,2.5-2.3,2.1-4.5
		c-1.4-7.6-3.9-14.7-7.8-21.4c-4.6-7.8-9.3-15.5-12.2-24.2c-0.3-1-1.2-2-2-2.7c-8.1-6.6-13.9-15-18-24.4c-2.4-5.5-5.3-8.5-11.4-7.4
		c-0.1,0-0.2-0.2-0.4-0.3c2.5-0.3,4.9-0.6,7.5-0.9c-0.8-3.4-3-5.4-5.2-7.4c-4.4-3.9-8.7-7.6-11.8-12.7
		C192,528.6,190.8,522.4,185.9,518.5z M403.7,509.1c-3.3,3.1-4,7.6-6.1,11.1c0.4,1.3,2-0.6,2.1,1.4c-3.4,3-2.9,7.9-5,11.7
		c-3.5,6.5-7.2,12.8-10.8,19.2c-0.6,1.1-1.7,2.3,0.1,3.3c1.5,0.8,2-0.5,2.7-1.4c9.5-12.8,14.8-27.5,18-42.9
		C405,510.5,405.7,509.1,403.7,509.1c0.8-1.1,2.2-1.9,2.4-3.7c0.8-5.5,1.3-11.1,0.2-16.6c-1.6-8-3.3-16-5.2-23.9
		c-0.6-2.6-0.4-4.5,1.4-6.6c2.6-3,3.7-6.9,3.2-10.9c-0.9-7.6,0.8-14.9,2.6-22.2c5.2-21.3,6.1-42.7,1.7-64.3
		c-0.2-1.1-0.9-2.4,0.4-3.2c1.2-0.7,2.2,0.2,3.1,0.9c4,3.1,6.7,7.2,8.9,11.6c2.1,4.1,5.2,5.8,9.5,4.1c5.7-2.3,10.9-5.4,15.2-9.9
		c2.8-3,3.7-6.3,2.8-10.4c-1.6-6.9-0.7-13.6,2.5-20c4.5-9,10.8-16.7,18.1-23.7c9-8.6,15.1-19,18.8-30.8c3.2-10.2,4.5-20.7,5.2-31.3
		c2.1-29.4,1-58.8-4-87.9c-2.2-12.9-3.7-26-8.5-38.2c-4.5-11.5-13.2-13.6-23.1-6.3c-5.4,4-8.7,9.4-11.6,15.3
		c-6.1,12.7-10.9,26-20,37.2c-5,6.2-9.6,12.9-13.9,19.7c-4,6.3-8.8,11.3-15.6,14.7c-6.5,3.2-10.8,8.4-12.4,15.6
		c-1.2,5.4-3.6,10.2-6.8,14.7c-3.5,5.1-7,10.3-10.6,15.3c-5.9,8.3-8.8,17.7-11,27.5c-0.2,0.8-0.1,1.7,0.6,2.1c3.8,1.9,2,5.2,1.3,7.5
		c-0.8,2.4-3.6,1.1-5.5,0.9c-13.4-1.7-26.7-3.9-40.2-2.8c-7.8,0.6-15.1,2.4-20.6,8.5c-2.1,2.3-4,2.3-5.5-0.4
		c-2.6-4.6-7-6.4-11.8-7.2c-9.8-1.5-19.5-0.4-28.4,4c-6.3,3.1-12.3,3-18.7,0.7c-3.4-1.2-4.8-3-4-7c0.7-3.5,2.2-7.6,0.4-10.7
		c-7.6-13.4-15.8-26.5-27.2-37.2c-1.6-1.5-3.4-2.8-5.4-4.3c-0.3,2.6,2.2,4.8-0.4,6.3c-2.6,1.5-4.4-0.7-6-2.3
		c-2.5-2.5-5.3-5.2-5.7-8.6c-0.5-4.1-3.1-6-5.9-8c-34.2-25.1-63.5-54.4-82.5-92.9c-2-4-4.8-7.7-7.5-11.3c-3-3.9-5.1-3.5-6.8,1
		c-0.8,2.2-1.4,4.4-1.9,6.7c-1.4,6.5-0.5,13.2-2.1,19.7c-2.3,9.4-3.8,18.3-1.1,28.4c3.1,11.5,0.9,24,0.9,36
		c-0.1,26.7,4.8,52.4,14,77.5c9.1,24.5,24.5,42.8,48.9,52.6c5.7,2.3,8.5,5.9,9.5,11.5c1.3,7.5,1.8,15.3,4,22.5
		c2.7,8.9,5.7,17.9,15.6,22.2c2.9,1.3,5.7-2.1,8.1,1.1c2.1-3.6,4-6.8,6.4-11c0.2,9.8-1.1,18.2-2,26.7c-1.1,10.7-1,21.2,5.6,30.6
		c3.1,4.4,4,9.5,3.4,14.8c-0.8,6.5,0.6,12.5,4,18.2c2.3,3.9,3.7,7.9,2,13.1c-4.1,12.3-2.9,24.7,2.2,36.7c1,2.4,2.1,4.4,4.3,5.7
		c-0.3,0.4-0.8,0.9-0.7,1.1c3,5.6,6.9,10.2,11.9,13.7c2.9-6.1-1.8-8.3-4.9-11.4c1.7,0.8,3.4,1.6,5.5,2.7c1-8.2,3.5-15.9,5.1-23.7
		c1.1-5.4-1.2-10.7-1.7-16c2.7,6.3,4.4,12.8,3.3,21c5-5.7,9.1-10.4,14.1-16.1c-0.9,6.6-3.4,10.8-6.7,14.7c-6.2,7.2-10.5,15-10,24.9
		c0.1,3,0.6,5.2,3.7,6.3c-1.1,0.7-3-1.1-2.8,1.2c0.2,2.4,0.5,5,1.5,7.2c1.2,2.7,4.6,1.1,6.8,2.5c-2,0.6-4-0.7-6.1,1
		c3.4,4.8,2.3,12.9,10.6,13.7c-0.7,0.2-2,0-2.5,1.4c8.4,13.2,19.2,22.4,34.3,24.8c11,1.8,21.9,1.9,32.9,1.1
		c9.1-0.7,10.7-2.9,10.9-12.5c0.1-2.7-0.7-3.5-3.4-3.7c-20-1.4-41.8-15.9-48.4-37.9c-3.1-10.3-1.5-19.1,6.5-26.5
		c4.9-4.6,10.6-7.9,16.9-9.9c15.3-4.7,31-5.4,46.8-3.7c4.6,0.5,9.2,1.3,13.6,2.8c11.2,3.8,17.7,13.8,16.4,25.5
		c-2.7,24-17,41.5-40,48c-5.2,1.5-6.4,3.8-5.8,8.7c0.8,5.7,2.2,7.2,7.9,7.2c4.8,0,9.5-0.9,14.3-1.6c18.3-2.6,33.4-10.6,43.9-26.3
		c1-1.4,0.8-3.9,0.9-3.9c3.6-0.7,2.9-4.3,4.3-6.4c1.4-2.1,1.8-4.2-2.2-4.4c5.2-0.7,8.3-5.9,7.6-11.8c-2,0.2-4,0.4-6,0.7
		c0.7-0.8,1.5-1.3,2.3-1.3c6.2,0.1,6.3-4.6,6.4-8.7c0.3-8.4-1-16.5-4.9-24.1c-2.1-4.1-3.6-8.5-5.1-13.2c4.8-0.1,2.6-4.2,4.2-6.1
		c2.7,0.9,3.4,3.4,4.7,5.4c1.6-1.6-0.1-4.5,1.1-4.7c3.7-0.8,2.2-3.2,1.8-4.7c-2.9-10.6-6.1-21.1-7.7-32c-0.2-1.2-1.1-1.9-2.1-2.7
		c-5.2-3.9-11-7.4-11-15.2c3.7-0.6,5.8,2,7,4.5c2.5,5.4,7.5,8.1,11.7,11.7c1.6,1.4,3.7,3.1,6.5-0.9c-1.4,4.3-1.8,7.4-1.1,10.4
		c1.8,8.2,0.1,17,4.2,24.9c0.8,1.6,0.9,3.7-1.5,4.9c-2.1-2.2-1.2-5.2-2.8-7.4c2.8,11.4-2.2,22.4-0.9,33.9c3.2-7.5,10.8-12.3,11-21.3
		c0.6,4.3-0.1,8.4-0.5,12.5C400.8,509.5,401.8,509.7,403.7,509.1z M528.3,730.9c-2.4-5.2-5.4-9.8-6.1-15.2
		c-0.8-6.2,2.6-11.3,8.6-12.8c4.8-1.2,8.7,0.4,11.9,4.3c-4.9-25-4.6-51-18.2-73.8c4.7,7.2,9.8,13.9,12.6,21.9
		c4.5,13.2,6.2,26.9,9.4,40.4c0.7,3.1,1.7,5.1,5.6,3.5c-1.6-5.3-2.9-10.6,2.3-14.6c4-3,8.3-4.3,12.5,0c1.3-2.6,1-4.7,0.4-6.8
		c-4-15.6-10.1-30.4-16.6-45c-2.9-6.5-7-12.2-12.7-16.4c-5.6-4.2-9.6-9.6-13.7-15.2c-11.3-15.3-25.5-26.3-45-29
		c-5.8-0.8-11.6-0.2-17.4,0.4c-14.3,1.7-27.9,5.5-39.6,14.5c-6.4,5-11.8,10.7-15.1,18.1c-0.2,0.4-0.5,1.3-0.4,1.3
		c3.2,1.5,0.7,3.3,0,4.5c-6.1,9.8-11.3,20.1-14.7,31.1c-1.1,3.7-2.4,7.3-2.6,11.4c5.7,0,11.2,0,16.8,0c-3.4-12.6,1.4-26,9.9-27.7
		c-2.3,8.1-9.2,15.7-2.8,25.3c0.7-4.4,2.3-2.8,3.7-1.1c2,2.4,3.3,5.2,4.2,8.2c2.3,7.5,4.4,15.1,6.9,22.6c1.4,4.3,3.7,8.2,8.3,10.2
		c0.9-1.5,0.2-2.6,0-3.7c-0.6-5.8,1.9-9.6,6.9-10.3c5.6-0.8,7.7,1.2,9.2,7.8c1.1,5-0.1,10.3,1.2,15.3c6.2-1,9.5-6.2,8.7-13.1
		c-0.6-5.1-2.8-9.7-3.7-14.6c-2-10-7.3-19.8-2.5-31.2c0.8,2.9,1.4,5.1,2.2,8.1c0.5-2.5,0.8-4.1,1.2-5.8c0.3-1.3,0.8-2.7,2.3-2.9
		c1.6-0.2,3.3,0.7,3.9,2.1c1.9,4.7,2.1,9.5,0.1,14.4c-2-0.6-2-3-4.4-3.5c1.3,5.1,2.6,10,3.8,14.8c1.9,7.8,4.8,15.7,3.1,23.7
		c-2.2,10.6,2.5,18.6,8.4,26.3c2.6,3.4,6.2,5.7,11.3,5.8c-3.3-7.8-8.2-15.4,1.4-21.8c2.4-1.6,5.1-2.3,8.1-2.2c3.3,0,5,2.4,6.7,4.2
		c-2.9-22.3-7.4-44.3-13.2-66c2.1,4.3,2.3,9.2,4.8,13.3c1.1-0.4,0.3-2.1,1.6-2.3c1.6,1.9,0.7,4.4,1.5,6.8c0.2-0.8,0.4-1.4,0.7-2.7
		c2.7,5.5,4.9,10.4,5,15.9c0.3,17.7,6.3,34,12.3,50.2c1.1,3.1,2.8,5.9,5.1,8.2C523.5,729.8,525.2,731.2,528.3,730.9z M76.5,652.2
		c3.2,2.2,3.8-0.4,4.5-2.2c3.4-7.7,7.7-14.7,12.9-21.4c-9.1,24.8-22.1,48.2-23.9,75.2c2.2-3.1,3.7-6.7,8-7.3c5.4-0.8,9.6,1.3,13,5.3
		c3.3,3.9,2.3,7.9,0.4,11.9c-1.3,2.8-3.3,5.4-3.8,8.8c8.3,1,13.6-3.1,17.4-9.5c1.5-2.6,3.9-5,3.1-8.5c-1.4-6-0.6-11.8,1.3-17.6
		c1.8-5.4,3.3-10.9,4.6-16.4c2-8.6,4.3-17.1,9-24.7c1.5-2.5,3.3-4.6,7.2-4.2c-1.2,4.1-1.7,8.1-3.5,11.6c-3.3,6.7-0.8,14.6-4.9,21.1
		c-3.5,5.5-5.7,11.6-7.2,17.9c-0.6,2.6-1.4,5.4,0.3,8.2c5.4-8.3,6.8-9.2,13.2-6.7c7.7,3,2.3,9,2.6,13.6c7.3,0.9,17.2-10.3,20.6-22.2
		c-1.6-0.1-3.1,2.7-4.4,0.9c-1.2-1.7-1.6-4-0.8-6.2c0.9-2.6,2.1-5,2.7-7.7c0.9-3.6,3.3-4.8,6.5-4.4c2.4,0.4,3.1-0.6,3.8-2.6
		c1.1-3,2.3-6.1,3.7-8.9c2.8-5.5,5.9-10.9,4.5-17.8c1.9,1.3,0.8,3.6,2.9,4.5c-0.1-1.4-0.2-2.6-0.2-3.7c0-1.2-0.6-2.4,0.5-4.1
		c0.7,1.9,1.2,3.2,1.7,4.5c0.2,0,0.3-0.1,0.5-0.1c0-1.1-0.1-2.2-0.2-4c2.3,5.7,2.3,5.7,0.3,18c4.6,0,9.1,0,13.6,0
		c5.3,0,6-0.6,4.9-5.8c-2.9-14-9-26.5-20.5-35.2c-9.7-7.3-19.1-15-27.8-23.5c-6.4-6.2-13.9-10.3-23.4-9c-1.6,0.2-3.4-0.1-5-0.5
		c-11.4-2.7-21.5-0.5-30.4,7.3c-3.7,3.2-7.6,6.4-12.3,8c-12.2,4.3-21.5,12.2-28.2,23.2c-7.2,11.9-15,23.6-19.2,37.1
		c-0.9,2.9-1.3,6,0.1,8.8c1.3,0.1,1.5-0.8,1.9-1.4c2-3,4.2-6.2,8.4-4c4.2,2.2,3.8,5.9,2.6,9.8c-0.7,2.1-2.2,4-1.3,6.5
		c8.6-19.6,12.8-41.5,30.1-56.4C59,630.1,51.6,641.2,48,654.3c-3.5,12.7-8.4,25.1-10.6,38.3c1.8-1.9,2.6-4.5,5.4-5.3
		c4.9-1.4,9,0.2,12.5,3.3c3.2,2.8,2.4,6.5,1.5,10.1c-1.1,4.4-4,8-5.7,12.1c6.2,1.8,12-2.4,12.7-8.9c0.8-6.8,0.8-13.8,3.5-20.2
		C71.8,673.7,74.9,663.4,76.5,652.2z M467.1,319.4c-4.7,4.9-8.3,10-11.2,15.6c-2.7,5.4-4,11-2.5,16.9c2,7.7-0.8,13.3-6.5,18.2
		c-5.7,4.9-12,9-18.1,13.4c-7.8,5.6-12.5,12.8-12.8,22.7c-0.3,9.2-2.5,18.2-5.1,27c-1.2,4.2-3,8.4-3.2,12.7
		c-0.3,5.7-0.1,11.2-4.3,15.6c-0.3,0.3-0.6,1.1-0.4,1.4c3,7.1,1.8,16,8.8,21.4c3.7,2.8,6.9,6.7,9.2,10.1c3.1,4.6,6.2,9.5,9.1,14.3
		c10.4,17.4,19.1,35.6,27,54.2c1.8,4.3,4.7,3,7.7,2.8c3.1-0.2,2.6-2.7,2.7-4.6c0.1-1.3,0-2.6,0-3.9c0.1-77.6,0.3-155.2,0.4-232.8
		C467.9,323.1,468.2,321.5,467.1,319.4z M329.6,653.2c1,0.5,1.3,0.7,1.7,0.7c15.8,0,31.6,0,47.4,0c2.2,0,2.8-1.2,3.4-3
		c3.6-11.9,8.6-23.3,14.9-34.1c0.8-1.3,1.7-2.9,1.1-4.4c-1.3-3.2,0.1-5.8,1.8-7.9c13-16.2,26.7-31.5,48.4-36
		c2.7-0.6,3.1-1.5,2.1-3.9c-8.3-19.4-16.3-38.9-26.7-57.3c-3.6-6.3-7-12.8-12-18.5c-1.3,3.5,1.1,7.2,0.3,9.2
		c-1.5,3.9-1.5,7.8-2.3,11.7c-5.4,25.7-15.4,48.5-37.7,64.3c-3.3,2.3-5.3,5.5-6.3,9.5c-0.9,3.9-2,7.8-3.2,11.6
		c-3,9.6-6.2,19.2-4.8,29.6c0.1,1,0.1,2.2-0.3,3.1c-1.7,3.3-1.3,5.6,2.8,6.9c-2.5,0-5.9-1.7-6.2,1.9c-0.2,2.9,3.4,2,5.5,3.1
		c-1.3,0-2.2,0.2-3.1,0c-3.2-1-5.9-1.1-7.2,2.8c-0.1,0.4-1.1,0.5-1.6,0.9C342.2,647.2,336.5,650.6,329.6,653.2z M490,568
		c0-87.7,0.4-174.7-0.4-262c-3.3,1.1-3.5,1-4.3,2.3c-4,6.1-7.9,12.3-8.6,19.7c-1.5,15.6-2.1,31.3-2.3,46.8
		c-0.7,44.5-0.2,89.1-0.2,133.6c0,17.9,0.1,35.7,0,53.6c0,2.9,0.6,4.2,3.9,4C481.8,566,485.6,566.5,490,568z M134.8,576.4
		c0-2.4,0-4.3,0-6.3c0-50.5,0-101-0.1-151.4c0-8.6,0-8.6-8.6-9.6c-0.3,0-0.5-0.1-0.8-0.1c-4.9-0.3-7.1,1.8-7.2,6.6
		c-0.1,34.4-0.2,68.9-0.3,103.3c0,17.5,0,34.9-0.1,52.4c0,3.4,1.1,4.9,4.5,4C126.3,574.2,130.1,575.2,134.8,576.4z M301.6,616.2
		c-6.1-10.2-15.6-13.6-26.1-14.5c-7.5-0.7-10.6,2.7-9.5,10.3c1.4,9.6,5.9,17.3,15.1,21.6c10.6,4.9,21.6,4.7,32.7,2.9
		c10.4-1.7,19.7-5.7,25.2-15.4c3-5.2,3.7-11.8,0.2-15.8c-3.2-3.8-9-6.6-15.2-5.6C313.9,601.1,306.9,607.1,301.6,616.2z M302.9,507.2
		c-11.4,0-22.3,2.8-33,6.4c-8.2,2.8-12.4,11.1-9.7,19.4c1.2,3.7,3.6,5.2,7.5,4.1c1.9-0.5,3.6-1.3,5.6-1.2
		c12.7,0.5,25.4-0.6,37.6-4.4c4.2-1.3,8.9-2.9,11.7-6.4c1.9-2.4,3.6-4.5,6.3-5.9c3.2-1.7,3.6-3.9,1.3-6.9c-2.5-3.3-5.9-4.5-9.5-4.3
		C314.7,508.2,308.8,507.3,302.9,507.2z M239.4,590.8c0.8,1.9,1.2,3.2,1.8,4.4c2.9,5.9,6.7,11.4,10.4,16.8c3.6,5.3,7,10.7,7.2,17.3
		c0.2,6.5,3.1,11.7,7.9,15.8c6.4,5.6,14.1,8.1,22.4,8.6c8.9,0.5,17.7-0.4,26.6-1c12.3-0.8,22.1-5.6,31.1-13.2
		c3.7-3.1,6.1-7,7.4-11.6c1.2-4.2,1.5-8.4-1-12.6c-1,13.1-6.5,22.8-19.1,27.4c1.1-2.6,3.4-4,5.3-5.8c3.1-2.9,6.4-5.8,7.4-10.2
		c1.1-4.8,2.2-9.5,2.7-14.4c0.5-4.8,2.7-9.3,5.7-13.4c3.1-4.2,5.3-9.1,6.4-14.8c-3.6,1-5.4,2.7-6.2,5.6c-1,4-3,7.7-4.9,11.4
		c-2.3,4.5-5.6,8.5-6.2,13.7c-1.6,13.5-8.6,22-22,25.3c-7.7,1.9-15.4,3.5-23.4,2.9c-16.2-1.2-28.3-8.5-34.9-24.1
		c-3.4-8.1-9-14.9-15.6-22.5c0.5,2.1,0.7,2.9,0.9,3.6C246.8,596.6,244.3,593.1,239.4,590.8z M134.4,407c0.1-1,0.3-1.9,0.3-2.8
		c-0.2-13.6-0.5-27.2-0.5-40.7c0-6-4.4-8-8.2-11.4c-0.9,2.8,0.7,4.9-0.7,7.7c-3.4-7.2-1.1-15.7-7.1-22.4c0,8.8,0,16.6,0,24.5
		c0,14-0.1,27.9-0.1,41.9c0,1.4-0.4,4.3,1.3,3.8c3.3-0.8,7.7,1.6,9.9-2.8C131.1,405.1,132,407.1,134.4,407z M496.8,501.9
		c-0.2,1-0.4,1.6-0.4,2.2c0,21.5,0.1,43,0.1,64.5c0,1.1,0.3,2,1.3,2.6c2.7,1.7,5.4,3.4,8.7,5.5c-1.5-25.1-0.5-49.6-2.9-74.2
		C501.9,502.9,499.4,503,496.8,501.9z M64.4,736.3c0,3.3,0,6,3,7.2c2.3,0.9,4.1-0.5,5.3-2.3c6.7-10,12.3-20.7,15.8-32.3
		c1.6-5.3-2.4-6.7-6-8.3c-3.8-1.7-7-1.1-8.7,2.9C69.1,714.2,65.9,725.4,64.4,736.3z M509.5,739.6c-0.1-2.3-0.1-3.2-0.2-4.1
		c-0.7-9.6-2.5-19-6.7-27.7c-2-4.1-5.6-5.2-10.1-3.5c-4.2,1.6-5,4.4-3.7,8.3c3.2,9.4,5.8,19,9.9,28.1c1.1,2.4,2.2,4.7,4.2,6.5
		c2.7,2.5,5.6,1.6,6.2-2C509.5,742.8,509.5,740.5,509.5,739.6z M30.9,723.6c0.4,2.5-0.6,5.6,2.3,6.3c2.8,0.7,3.7-2.4,4.6-4.4
		c2.8-6.4,5.8-12.7,9.4-18.7c1.9-3.2,3.7-6.5,5.3-9.9c1.4-2.8,0.1-4.8-2.5-6c-2.6-1.2-5.6-2.9-7.6,0.4
		C36.4,701.3,32.2,712.1,30.9,723.6z M528.5,708.4c-1.7,3.5-1.9,4-0.9,6.7c4,11.1,8.3,22,14.1,32.4c1.2,2.1,2.6,4.8,5.5,3.8
		c2.8-0.9,2.3-3.8,2.1-6.1c-1.3-12.5-5.1-24.3-9.7-35.9c-0.6-1.6-1.6-3-3.4-3.4c-1.2-0.3-2.4-0.5-3.2,0.7c-0.8,1.2,0.2,1.9,1,2.6
		c1.7,1.7,3.1,3.6,3.9,5.7c3.9,9.9,7,20,9,30.5c0.2,1.2,0.8,2.6-1.2,3.9C538.5,736.5,536.5,721.5,528.5,708.4z M449.2,695.7
		c0.5-3.7,0-6.5-0.3-9.3c-0.4-3.2-1.4-6-5.5-5.5c-3.9,0.4-4.1,3.4-4,6.3c0.2,6.2,0.5,12.4,2.2,18.4c1.1,3.9,2,7.9,5.5,11.7
		c1.4-11.7-3.5-22.3-2.7-34.3C448.2,687.1,447.4,691.5,449.2,695.7z M559.2,686c4.3,4.7,5.8,9.7,8.4,14.1c-1-4.3-2.6-8.5-5-12.1
		c-1.9-2.9-4.7-2.3-7.1-0.7c-2.3,1.5-2.8,3.3-1,5.8c5.1,6.9,8.7,14.6,11.8,22.6c0.4,1.1,0.8,2.2,1.4,3.2c0.5,0.8,1.3,1.4,2.3,0.8
		c1.1-0.6,1.4-1.8,1.3-3c0-0.9-0.6-2.5-1-2.1c-2.4,2-2.1-0.7-2.4-1.4c-2.5-5.5-4.8-11.1-7.2-16.7C559.6,693.4,558.6,690.5,559.2,686
		z M116.8,726.2c2.6-0.2,2.8-2,3.4-3.3c2.5-5.8,5-11.6,7.3-17.5c0.8-2,1.1-4.2,1.5-6.4c0.2-1.2,0.3-2.8-1.4-3.2
		c-1.5-0.3-1.9,1.2-2.3,2.2c-2.1,5.7-4.1,11.4-6.1,17.1C117.9,718.6,117.1,722.1,116.8,726.2z M281.6,569.9c2.7,0.3,3.9-2.2,5.9-3.2
		c2.4-1.1,3.8-2.9,2.1-5.5c-1.6-2.5-3.6-4-6.8-2.1c-1.9,1.1-4,1.7-6,2.6c-1.5,0.7-3.3,1.7-1.8,3.8
		C276.6,567.8,278.6,569.6,281.6,569.9z M344.8,549.5c-2.8,3.1-6.1,4.7-10.2,5.1c-1.1,0.1-2.3,0.7-3,1.5c-1.1,1.1-3,2.3-1,4.1
		c1.6,1.4,2.9,3.9,5.6,1.1C339.6,557.7,342.7,554,344.8,549.5z M19.8,689.1c3.4-9.3,9.3-17.5,12.9-26.7
		C24.2,669.3,21.6,679,19.8,689.1z"/>
	<path d="M562.2,647c-0.6-7.8-1.3-15.7-0.7-23.5c0.2-2.8-3-3.4-2.9-5.9C562.8,618.8,565,637.7,562.2,647
		C562.2,646.9,562.2,647,562.2,647z"/>
	<path d="M391.1,325c0.6,5.1,4,9.4,4.4,15.6c-7.9-7.8-10-17.3-11.7-27.1c-0.6-0.1-1.1-0.2-1.7-0.3c-0.3,1-0.6,2.1-0.9,3.2
		c-0.9-1-1.2-1.2-1.2-1.4c-2.7-9.1-2.7-18.5-1.6-27.7c0.3-3,0.8-7.1,3.8-10.2c2.7-2.8,3.3-7.3,3.9-11.1c0.7-4.6,3.3-8.5,4-13
		c0.1-0.5,0.7-1,1.4-1.8c1.5,5,3.8,3.6,5.4,0.8c5-9.2,10-18.4,14.3-28c1.3-2.8,0.3-6.7,0.7-10c0.4-3.2,0.8-6.9,5.8-5.2
		c1,0.3,2.4,0,2.5-1.2c0.3-2.7-2.7-1.2-3.7-2.6c2.1-9.7,8.3-17.4,13.4-25.6c4.9-7.8,11.6-14.4,15.7-22.8c2.4-4.8,4-10,6.3-14.8
		c3.1-6.6,6-13.6,13-17.3c4.5-2.3,8.8-0.7,10.1,4.1c1.8,6.9,5.4,13.4,4.9,20.9c-0.5,6.3-0.7,12.6-1.8,19c-1.6-7.2,0-14.9-2.9-22
		c-2.7,1-1.2,3.5-2.8,5.2c-0.5-3-0.9-5.7-1.3-8.3c-1,0.2-1,0.7-1,1.2c0,8.5-0.1,17.1,0.2,25.6c0.2,4.7-0.8,9-2.9,13.1
		c-2.5,4.7-4,9.6-4.2,14.9c0,0.4-0.2,0.9-0.4,1c-4.7,1.7-4.2,4.8-2.6,8.5c0.2,0.6,0,1.7-0.5,2.1c-4.4,3.7-5.9,9.9-11.8,12.6
		c-2.8,1.2-4.1,5.5-2,8.9c1.4,2.3,1.3,4.1,0,6.1c-2,3.1-2.4,6.2-2.1,9.9c0.4,4.1-1.1,7.8-5.1,10.1c-3.8,2.2-4.9,7-8.1,9.8
		c3.4,6.7-6.2,7.8-5.4,13.4c0.6-0.8,1.2-1.7,1.8-2.4c4.1,6.2,3.7,12.3,0,18.4c-0.1,0.1-0.2,0.3-0.2,0.3c4.8,5.3-2.4,14.6,6.2,18.6
		c1,0.5,1.6,2,2.9,0.8c1-0.9,1.5-2.3,0.5-3.5c-1.6-1.9-2.1-3.4,0.7-4.4c2.2-0.8,3.7-1.2,4.9,2c1.3,3.7,4.5,2,6.7,0.4
		c3.4-2.5,6.4-5.7,10.8-7c-10.7,12.8-19.5,26.5-24.1,43c5-0.3,5.1,3.6,5.9,6.6c0.7,3-1.5,4.6-3.4,6.7c-2.7,2.9-6.3,2.5-9.3,4.2
		c-1.8,1-3.8-0.1-4.8-1.6c-7.6-11.8-19.9-19.3-27.5-31C394.4,329.6,392.7,327.4,391.1,325c-0.5-1.6-0.9-3.2-1.4-4.8
		c-5.5-16.4-5-32.5,1.8-48.4c3.6-8.6,8.2-16.7,12.6-24.9c1.7-3.1,3.1-6.4,4.7-9.6c-0.3-0.2-0.7-0.3-1-0.5
		c-4.4,7.6-8.9,15.1-13.2,22.8c-7.9,14.1-11.6,29.3-10.5,45.4C384.5,312.2,386,319.3,391.1,325z M432.3,185.3
		c-5.9,4.4-6.4,11.5-10.3,16.7c0.5,0.2,0.9,0.5,1.4,0.7C426.3,196.9,429.3,191.1,432.3,185.3z M421,281.4c5.4-5.4-2-8.8,0.8-13.9
		c-3.5,1.9-4.4,4-2.6,5.7C421.3,275.5,421.8,277.7,421,281.4z"/>
	<path d="M159.5,261.4c-0.2-2.6-0.3-5.1,0.2-7.7c0.6-3.4-2.6-4.9-5-6.1c-6.3-3.4-8.8-9.8-12.6-15.2c-0.5-0.7-0.1-1.5,0.5-2.1
		c3-2.8,1.5-4.7-1.3-6.3c-2.7-1.5-5.2-3.3-8.4-3.8c-1.9-0.3-3.5-1.7-4.2-3.7c-1.5-4.1-4.6-6.8-8.3-8.7c-2.8-1.4-2.6-5-5.4-6.8
		c0,1.5,0,2.7,0,4c-4.8-0.5-11.4-8.7-11.2-13.7c0.2-5.3-3-10.2-7.9-11.8c-1.6-0.5-2.2-1.9-2.3-3.3c-0.5-3.8-3.5-6.9-3.7-10.4
		c-0.3-5.7-4-10.5-3.8-16.1c1.2-1.1,1.5,0.7,2.6,0.3c-1.8-6.4-4.9-12.5-5.6-19.4c1.7,0.3,1.8,1.6,2.2,2.6
		c4.3,8.6,8.6,17.1,12.8,25.7c1.1,2.3,2.6,4,4.8,5.3c4.2,2.6,7.9,5.7,11.4,9.3c12.8,13.4,25.4,26.9,34.9,43
		c3.7,6.3,9.6,10.8,14.1,16.4c2.3,3,4.4,5.7,8.4,6.6c0.7,0.1,1.4,1.2,1.7,2c0.9,2.6,2.8,4,5.2,5.3c2.8,1.5,5.5,3.7,4.2,7.9
		c-1,3.1,3.4,2.6,4.2,6.3c-6.1-3.1-9-8.2-13.5-12.3c-0.1,1.9,1,2.7,1.7,3.6c0.8,1.1,1.5,2.1,2.4,3.1c5.9,7,11.8,14.1,17,21.7
		c10.2,15,11.8,31.4,8.6,48.7c-0.6,3.3-2.5,6-4.4,8.6c-8.7,11.8-16.3,24.2-20.6,38.5c-1.7,5.6-5.7,6.6-9.4,2
		c-5.6-6.9-10.7-14.1-10.4-23.8c0.1-4.3-1.7-8.1-6.8-10.1c2.5-0.8,3.9,1,5.8,0.8c-3.2-3.8-8.8-4.5-11.2-9.4c2-0.6,3.7,0.4,5.5,0.8
		c2.3,0.5,3.4-0.5,3.5-2.7c0-0.4-0.8-1-0.1-1.3c5-1.9,1.2-4.4-0.1-5.6c-3.3-2.8-3.3-5.6-1.9-9.3c0.8-2.2,1.9-2.8,4-2.5
		c3.4,0.5,6.7,0.5,9.3-2.3c2.5,1.4,2.3,5.4,5.9,5.3c1.6-1,0.9-2.5,0.6-3.8c-0.9-3.1-1.9-6.2-2.9-9.3c-1.2-3.8-2.4-7.5-1.5-11.7
		c0.8-3.9-0.5-7.3-4-10.2c-3.1-2.5-4.5-6.4-2.8-10.5c0.9-2.2,0.9-4-1.3-5.4c0,0,0,0.1,0,0.1c-0.3-0.9-0.5-1.9-0.8-2.8L159.5,261.4z
		 M182.1,307.9c-1.9-7.2-5.3-13.1-5.8-21.1C173.4,291.2,177.7,305.2,182.1,307.9z"/>
	<path d="M389.6,388.5c-10.6,8.3-20.8,16-35.1,10c6.3,6.1,15.9,5,29.1-2.8c-1,2.9-3.4,5.7-7.4,7c-7.6,2.5-15.2,4.4-22.5-1
		c-1.9-1.4-1.9-1.4-3-3.8c-0.9,2.4-0.9,2.4,1.1,7.3c1,2.5,2,5,2.6,7.7c-3.5-4.8-6.9-9.6-8.6-15.4c-1.4-5-1.2-10.5-2.9-15.2
		c-1.8-5,0.1-8.3,1.9-12.2c0.6-1.3,1.3-2.4,3.2-1.9c1.3,0.3,2.4-0.7,3.5-1.4c14.7-10.6,30.1-1.5,34,15.1
		C386.2,384.6,386.2,387.4,389.6,388.5z M382.9,381.2c-3.1-10.3-12.7-17.6-20.7-16.4c-6.8,1-14.5,8.9-14.6,15.2
		C356.1,365.6,370.2,362.4,382.9,381.2z M374.8,389c-5.2,2.2-9.9,2.3-14.7,2.4c-1.4,0-2.3,1.3-1.1,2.4c2.6,2.5,6,3.1,9.4,2.4
		C371.5,395.5,374.2,393.9,374.8,389z M361.7,379.1c-0.2-2.6-1.9-4.3-4.4-4.3c-2.7,0-4.6,1.6-4.6,4.6c0,2.9,1.7,4.7,4.5,4.6
		C359.9,383.9,361.6,382.2,361.7,379.1z"/>
	<path d="M232.6,414.6c0.9-3.4,3.3-5.7,3-9.2c-6.7,1.2-13,5-19.9,2.4c-6.4-2.4-10.9-7.7-17.5-10.6c2.4-2.6,2.1-5.5,2.6-8.1
		c2.1-12.3,15-21.8,26.3-18.8c7.2,2,13.1,6.4,14.4,14.2C244.4,400.3,242.7,407,232.6,414.6z M240.8,391.3c0.6-7-4.3-14.6-11.1-18.1
		c-6.6-3.4-12.8-2-18.4,2.4c-6.6,5.1-10.7,13-9.4,17.8c3.7-8.6,8.4-16.5,18.6-17.4C230.9,375,236.2,382.6,240.8,391.3z M220.5,398.7
		c-1,0-2.1,0-3.1,0c-0.9,0.1-1.9,0.1-2.1,1.3c-0.1,0.9,0.5,1.4,1.1,1.9c2.8,2.4,10,2.6,12.8,0.3c1.1-0.9,2.2-2,1.4-3.6
		c-0.8-1.7-2.2-1.5-3.6-1C224.9,398.4,222.8,398.9,220.5,398.7z M222.8,385.3c-0.3-2.5-1.8-4.3-4.4-4.2c-2.8,0.1-4.9,1.6-4.7,4.9
		c0.2,2.6,1.5,4.5,4.3,4.4C220.9,390.3,222.6,388.5,222.8,385.3z"/>
	<path d="M363.2,334.4c-6.2-2.4-12-5.2-18,0.1c-0.6-2.8-3.7-1-5-3.6c-1-2-3.9,1.3-6.1,2c-0.6-3.6,2.7-7.8,7-9.4
		c4.2-1.5,7.4,0.1,11.4,1.6C357.6,327.1,359.2,331.7,363.2,334.4z"/>
	<path d="M339.8,455.7c-3.7-3.8-6.8-6.9-9.7-10.1c-1.5-1.7-1.7-4.1-0.2-5.7c1.7-1.7,4-1.6,5.9,0.3
		C339.8,444.2,341.4,448.9,339.8,455.7z"/>
	<path d="M394.1,458c-0.9-1.9-2-3.2-1.4-4.9c2.7-7.6,8-14,10.5-21.8C402,440.7,401.7,450.4,394.1,458z"/>
	<path d="M242,305.6c1.7-7,7.5-9.9,16.3-8c-0.6,4.3-4.9,7.3-9,6.4C246.7,303.5,244.7,306.1,242,305.6z"/>
	<path d="M379.1,334c0.3-1.3-0.5-3.8,2.1-4.3c2.2-0.4,3,1.7,3.7,3.3c1,2.5,2.6,4.8,2.3,7.6c-0.1,1.4-0.3,3-1.8,3.6
		c-1.6,0.7-2.6-0.7-3.6-1.7C379.7,340.3,379,337.5,379.1,334z"/>
	<path d="M323.2,422.3c-3-2.6-4.5-5.7-5.6-8.9c-0.7-2-0.8-4.8,1.7-5.6c2.8-0.9,4.3,1.1,5,3.6C325.4,414.9,324.7,418.5,323.2,422.3z"
		/>
	<path d="M252.4,516.9c-1.2-3.3,0.8-10.1,3.3-11.7c1.9-1.2,2.5,0.2,2.9,1.7C259.5,509.8,256.7,514.3,252.4,516.9z"/>
	<path d="M196.9,458c-3.5-0.3-6.2-1.3-6.3-5.4c0-1.8,0.9-2.7,2.5-2.7c2.4,0,6.4,3.9,6.3,6.1C199.4,457.6,198.5,458.2,196.9,458z"/>
	<path d="M286,491.5c2.3,0.1,4.3,0.7,4,3c-0.6,4-4.8,3.2-7.3,4.6c-1.5,0.9-1.8-1-1.7-2.1C281.3,493.8,283.1,491.9,286,491.5z"/>
	<path d="M470.6,304.1c5.9-8,10.9-16.5,14.3-25.9C483.1,288.5,478.5,297.2,470.6,304.1z"/>
	<path d="M404.7,420c-0.5-6.2-0.5-12.4,2-18.3C408.3,408,406.6,414,404.7,420z"/>
	<path d="M396.5,241.6c0.2-1.5,0.1-1.9,0.3-2.2c2.4-4.4,4.7-8.7,7.4-13C402.8,231.7,402,237.2,396.5,241.6z"/>
	<path d="M155.5,262.7c-3.2,0.2-4.2-2.4-5.7-4.4c0.3,0.2,0.7,0.4,1,0.6c0,0-0.1,0.1-0.1,0.1c-0.3-0.2-0.6-0.4-1-0.6
		c1.5-0.6,2.9,0.4,4.3,0.5c0,0,0.2,0.2,0.2,0.2l0.2-0.3c0.5-0.1,1-0.1,1.5-0.2c-0.2,0.9-0.3,1.8-0.5,2.7l0.1-0.1
		c-0.5,0.1-1.1,0.1-1.6,0.2c-0.2-0.3-0.5-0.7-0.7-1c0,0,0.1-0.1,0.1-0.1c0.2,0.3,0.5,0.7,0.7,1c0.5,0.5,1,1,1.5,1.5L155.5,262.7z"/>
	<path d="M159.5,261.4c0,0,0,0.2,0,0.2c-0.2,0.1-0.5,0.2-0.7,0.3c0,0,0.1,0,0.1,0c0.5,0.8,1,1.7,1.4,2.5c0,0,0-0.1,0-0.1
		c-0.8,0.9-1.8,0.1-2.7,0.3c0,0,0-0.3,0-0.3l0.1,0.3c-0.7-0.6-1.4-1.3-2-1.9c0,0,0.1,0.1,0.1,0.1c0-0.6,0-1.1,0-1.7l-0.1,0.1
		c0,0,0.4,0,0.4,0s0.4,0,0.4,0c0,0-0.1,0.1-0.1,0.1c-0.1-0.9-0.2-1.9-0.3-2.8C157.4,259.2,158.5,260.2,159.5,261.4z"/>
	<path d="M487.7,643.7c-2.3,0.1-3.5-1.6-4.8-2.9c-1.2-1.3-3.5-2.7-1.1-4.7c2.2-1.7,4.3-0.3,5.6,1.4
		C488.6,639.4,489.2,641.6,487.7,643.7z"/>
	<path d="M485,687.1c-2.7-2-4.2-4-3-7.1c0.4-1,1.6-1.7,2.6-0.8C486.9,681.4,486.6,684,485,687.1z"/>
	<path d="M90.2,681c-0.4,3.4-1.7,6.5-5.2,6.9c-2.2,0.3-3-2.1-3-4.2c0-3.4,2.9-6.5,5.9-6.4C90.4,677.5,89.8,679.6,90.2,681z"/>
	<path d="M191.9,559.9c-1.3,3.4,0.3,8.1-4.2,10.7c-2.6,1.5-4.3,1.3-5.2-1.8c-1.3-4.6-1.1-8.9,2.8-12.2c1.3-1.1,2.9-1.8,4.6-0.9
		C191.5,556.4,191.9,557.9,191.9,559.9z"/>
	<path d="M264.4,634c8,7.8,17,11.4,26.6,14.8C281.8,650.4,267.4,642.8,264.4,634z"/>
	<path d="M69.4,738.5c0.3-6.4,2.1-12.5,4.4-18.5c1.9-5,3.9-10.1,5.9-15.1c0.5-1.2,0.8-2.8,2.4-2.6c1.8,0.3,1.7,2,1.8,3.4
		c0.1,1,0.1,2.2-0.2,3.1c-3.9,9.5-6.2,19.7-11.9,28.5c-0.4,0.6-0.9,1.2-1.3,1.8C70.2,738.9,69.8,738.7,69.4,738.5z"/>
	<path d="M507.1,740.6c-0.6,1.6,1.5,4.6-1.3,5c-2.3,0.4-2.8-2.7-3.3-4.6c-2.2-8.7-4.3-17.5-6.2-26.3c-0.4-1.6-0.8-3.2-1.4-4.8
		c-0.6-1.6-2.8-3.4,0-4.9c2.8-1.4,3.3,1.2,4,2.8C503.7,718.2,506.5,729,507.1,740.6z"/>
	<path d="M35.5,723.6c-1.7-9.7,2.3-21.1,8.3-23.6C40.9,708.2,38.2,715.9,35.5,723.6z"/>
</g>
</svg>
