<?xml version="1.0" encoding="utf-8"?>
<!-- Generator: Adobe Illustrator 24.2.3, SVG Export Plug-In . SVG Version: 6.00 Build 0)  -->
<svg version="1.1" id="Layer_1" xmlns="http://www.w3.org/2000/svg" xmlns:xlink="http://www.w3.org/1999/xlink" x="0px" y="0px"
	 viewBox="0 0 595.3 841.9" style="enable-background:new 0 0 595.3 841.9; fill: #215342;" xml:space="preserve"
	 height="300" width="500" transform="translate(-125, -50)">
<g>
	<path d="M390.1,429.6c-15.4,11.3-26.1,25.9-29,45.1c-1,6.3-0.2,12.9-0.2,21.3c1.9-19.2,7.3-34.1,27.2-37.6
		c12.4-2.2,23.1,3.7,30.3,16.5c5.4-4.3,9.3-0.8,13.2,2.7c3.2-1.1,3-3.7,2.5-7.3c1.8,1.7,2.9,2.7,5.9,5.5
		c-5.9-15.7-5.2-30.2-7.1-44.4c-1.8-14-11.4-26.8-5.8-42.8c2.1,3.8,4,7.1,5.9,10.4c-5.1-10.1-3.7-22.1-8.7-31.9
		c-5.1-10.1-12.7-18.2-21-26.2c-11-10.5-15.7-25.5-21.9-39.3c-3.7-8.3,5.6-11.5,3.5-19.8c1.5,2.7,2.2,3.8,3,5.3
		c1.1-3.6,1.8-6.7,3.1-9.5c2.1-4.5,3.8-9.1,11.1-7.4c8.2,1.9,20.5-7.6,23.2-16.3c0.5-1.6,0-4.6,2.9-3.7c2.5,0.7,1.4,3.2,0.9,5
		c-3.8,14.9-4.5,30.2-5,46.3c-3-6-3.3-11.9-3.2-19.6c-1.1,11.2-0.4,20.3,4.1,32.1c10.2-41,42.8-57.8,71.5-78.4
		c-22.3,17.7-43.7,36.2-56.8,65.2c13.8-16.1,29.4-23.9,48-26.1c-19.2,8.8-41.5,15.4-35.8,43.6c1,4.9-4.1,13.4,5.1,16.6
		c-0.3,0.9-1,2.5-1.9,4.9c2.4-1.3,4.2-2.2,6.3-3.4c-6,10.1-1.7,24.4,8.3,28.4c-0.9,1.6-1.8,3.2-2.9,5.3c6.5,2.5,11.3-3.8,17.2-1.8
		c-2,2.5-4.1,5.2-7.2,9.2c15.2-2.8,21.9-13.6,30.1-24.3c-6.3,1.5-11.7,2.7-17,3.9c-0.2-0.3-0.3-0.6-0.5-0.9c5-2.6,9.9-5.3,15.4-8.2
		c-4.2-4.3-8.8-0.6-13.7-1.5c5.3-2.7,11.6-3.8,12.2-10.9c-2.3,0-5.3,0-9.8,0c5.2-1.5,9-2.7,12.8-3.7c7.7-2,11-8.7,15.4-14.3
		c0.4-0.5,1-0.8,1.6-1c13.6-6.1,17-20.2,24.4-31.2c1.3-1.9-0.1-2.7-1.6-4c1.5-1.2,2.8-2.3,6.1-4.9c-6.3,0.9-10.2,1.4-16.3,2.3
		c4.8-2.4,7.8-3.9,12.5-6.3c-12.8,0-22.3,4.3-34,10c11-10.4,26.8-12.1,30.4-29.1c-11,6.2-22.4,3.7-35.2,9.1
		c11.1-14.2,16.5-28,18-43.5c-1,0.9-1.9,1.7-4.9,4.5c5.2-11.4,2.6-20.7,3.3-29.9c0.5-6.2,3.1-11.4,9-12.7c8.1-1.8,17-2.3,21.7,6.8
		c2.6,5,6,8.3,11.3,10.4c0.5-2.2,0.9-4.2,1.4-6.3c0.3,0,0.5,0.1,0.8,0.1c-1.9,12.5-3.7,25-5.7,37.9c1.7,0.7,3.9,1.6,6.3,2.6
		c-3.5,21.8-9.2,43.9-17.3,65.4c-2,5.4-5.4,10.2-3.1,17.6c1.6,5.1-4.5,11.2-9.8,17.8c10.6-6.9,14.6-16.7,20.6-25
		c-1.8,1.4-3.7,2.8-5.6,4.2c-1.1-0.5-2.3-1.1-4.1-2c14.2-36.5,25.3-73.8,26.7-113.3l-0.1,0.1c5,8.7,1.9,18,0.9,26.8
		c-2.9,24.7-11,48.3-17.7,72.1c-0.8,3-1,6.1-1.7,10.4c2.8-2.5,4.7-4.2,7.1-6.3c0.3,1.1,0.7,1.9,0.5,2.5c-9.4,29.9-4.7,60.7-5.2,91
		c-0.9,61.8-0.3,123.6-3.1,185.4c0-83,0-166.1,0-251.6c-5.1,6.2-7.9,10-7.9,15.8c0.1,92.5,0.1,185.1-1.4,277.6c0-91.3,0-182.6,0-274
		c0-2.3,0.8-4.8-1.2-6.8c3.1-6.1,8.4-11,10.3-18.2c-12,11.8-28.9,38.4-27,45.4c1.4-2.8,2.3-4.5,3.2-6.2c-2.5,18-9.9,33.2-23.2,46.8
		c2.6-0.4,3.4-0.6,4.3-0.7c-3.5,11.7-17.4,11.4-24.1,20.4c9.6,1,18.5-0.5,29.4-1.7c-7.2,6.7-13.3,11.9-18.7,17.7
		c-5.6,6.1-13,9.4-21.9,14.1c19.7-2.9,48.8-25,51.4-38.2c-9.9,1.6-19.4,4.9-31.3,4.8c12.6-7.3,24.4-12.8,31.9-25.2
		c-6.3,3.1-11.6,5.7-16.8,8.2c7.1-8.5,14.9-16.6,19.6-29.3c0,9.3,0,16.3,0,23.4c-0.1,98.2-0.3,196.5-0.4,294.7
		c0,1.7-1.2,4.7,2.3,4.6c3.3-0.1,2.3-3,2.3-4.7c0-107-0.3-213.9,0.1-320.9c0-11.5-1.9-24.4,7.8-34c-2.2,6.7-2.1,13.7-2.1,20.7
		c-0.3,108.4-0.5,216.8-0.9,325.3c0,8.4-1.8,17.7,12,15.1c-2.5,0-5.1,0.2-7.6,0c-3.3-0.3-4.4,1-4.4,4.3c0,3.4,1.5,3.9,4.3,3.8
		c8.7-0.1,17.4,0,26.1,2.3c-13,0-26.1,0-39.1,0c0,0.7,0,1.4,0,2.2c8,0,15.9,0,23.9,0c0,1,0,2,0,3c-16.1,0-32.1,0-48.2,0
		c0,0.9,0,1.7,0.1,2.6c4.7,0,9.4,0,14.1,0c0,0.2,0,0.3,0,0.5c-4.7,0.5-9.5,1-14.5,1.6c1.4,3.5,4.2,1.4,5.8,2.4
		c-2.6,1-6.5-1.6-8.1,3.2c2.9,0.5,5.7,1,8.4,1.4c-6.7-1-11.2,1.4-14.3,7.6c-1.3,2.6-4.3,5.6-6.9,6.1c-12.5,2.1-25,3.6-37.6,4.7
		c-2.9,0.2-5.5,0-8.4,1.2c-12.5,4.8-25,5.2-36.5-3.1c-1.7-1.2-2.7-1.3-4.5-0.5c-15.4,6.4-25.3,3.3-33.7-11.1
		c-2.4-4.2-5.1-5.3-9.8-5.3c-36.1,0.3-72.3,0.4-108.4,0.3c-3.1,0-3.7,2-4.8,3.7c-10,16.4-17.9,19.2-35.5,12.4
		c-1.3-0.5-2.4-1.3-3.9-0.1c-12.3,9.4-25.2,9.2-38.7,2.9c-2.2-1-5.6,0.9-8.2,0.2c-13.8-3.6-28.8-0.7-42-8.4
		c-6.7-3.9-14.9-0.7-22.4-2c-1.3-0.2-2.7-0.3-6.7-0.6c10.2-0.6,17.7-1,26.7-1.6c-7.1-7.1-15-2-21.3-4.4c5.2-0.7,10.7-1.4,16.2-2.1
		c0-0.5,0-1.1,0-1.6c-6.7,0-13.5,0-20.2,0c0-0.3,0-0.7,0-1c6.2-0.5,12.5-1,18.6-1.5c0-6.4-2.2-9.2-8.9-8.6c-8.5,0.7-17,0.2-26,0.2
		c1.5-1.7,6.4-2.3,1.5-4.7c-1.9-0.9-4.5-0.5-7.2-0.8c2.7-2.6,8.3,2.1,8.6-4.5c0.1-3-1.2-3.8-0.4-3.9c-0.2,0,0.4-1.9,0.4-4.7
		c-0.3-91.9-0.6-183.9-0.9-275.8c0-2.7-0.2-5.1-5.1-5.2c0,83.1,0,165.9,0,248.7c-1,0-2,0-3,0c0-78.9,0.1-157.8-0.2-236.7
		c0-6.1,2.5-13-3.2-18.3c6.2,3.8,15.8,1,19.8,9.9c2-0.5,4.7,1.2,7.4-1.5c-5.1-3.9-8.7-9.7-16.1-9.7c1.6,0,3.1,0,4.7,0
		c0.1-0.5,0.1-0.9,0.2-1.4c-7.7-2.6-15.4-5.3-24.9-8.6c10.7-0.1,19-1.2,26-7.1c-9.8,4.4-20.2,6.1-31.8,5.7c8.3,7,18,7.2,26,11.4
		c-3.7,0.4-7.5,0.8-11.2,1.2c-4.1-1-2.2,2.2-2.2,3.4c-0.1,22-0.1,43.9-1.6,65.9c0-21.5-0.1-43.1,0.1-64.6c0-4.2-1-6.7-5-8.9
		c-7.5-4-14-9.4-19.3-16.5c6,1.1,11.5,2.4,17.1,3.1c1.9,0.2,5.2,2,5.9-1.6c0.6-3,0.4-6-3-8.2c-12.2-8-22.3-18-29.9-32.1
		c6.9,2.2,12.6,4.1,20,6.5c-12.5-18.2-21.7-36-26.7-57c2.7,1.4,4.3,2.2,7.2,3.7c-5.8-13.8-11.2-26.6-17-40.4
		c2.2,1.1,3.8,1.9,5.7,2.8c-7-23-5.3-46.1-1.7-69.2c-0.2,27.2-1.1,54.5,10.9,80.1c-5.4-18.8-7.6-37.9-5.8-57.1
		c0.2,4.7,0.5,9.8,0.8,16.3c4.3-36.3,3.6-72.5,26.7-103.1c2.8,22.7,22.9,28.7,38.1,39.7c0,0-0.2-0.3-0.2-0.3
		c1.5,1.4,2.9,2.8,4.4,4.1c0,0-0.2-0.2-0.2-0.2c0.4,0.6,0.8,1.2,1.2,1.8c0,0-0.1-0.3-0.1-0.3c0.5,0.5,1.1,1,1.6,1.6
		c0,0-0.3-0.2-0.3-0.2c5.7-0.4,9.1,4,12.7,6c-7.1,13.5-14.6,2.7-23,0.1c10.8,8.5,4.5,24.2,15.7,32.2c-13.5-4.3-25.4-10.6-35.4-20.3
		c-1.7,2.4,4,5.4-0.3,7.9c0.8,2.6,1.7,5.7,3.1,10.6c-3.2-3.4-5.3-5.5-7.3-7.7c-0.4,0.2-0.7,0.5-1.1,0.7c2.8,4.8,5.6,9.5,8.3,14.3
		c-0.3,0.3-0.6,0.6-1,0.9c-2.5-3.1-5-6.2-7.5-9.3c-0.6,0.4-1.2,0.8-1.8,1.3c3.5,5.5,6.9,11.1,10.6,16.9c-1.1,0.1-1.9,0.1-3.1,0.2
		c2.7,5.3,5.3,10.5,9.4,18.8c-6.3-4.2-9.9-6.6-15.5-10.3c5.3,8.1,10.4,13.6,13.2,22.5c-4.5-3.4-7.8-5.9-12.4-9.4
		c4.2,9.2,7.7,16.8,12.6,27.4c-6.3-6-10.2-9.6-14-13.2c6.5,10.2,11.9,20.6,12.3,34.1c-1.9-2.6-3.2-4.5-6.4-8.8
		c2.8,8.6,4.7,14.4,7.7,23.4c-3.9-6.4-6-9.8-8.1-13.2c-0.3,0.1-0.6,0.3-1,0.4c1.9,4.9,3.8,9.7,5.8,14.6c-0.3,0.1-0.6,0.3-1,0.4
		c-2.2-3.6-4.3-7.1-6.5-10.7c-0.3,0.2-0.7,0.3-1,0.5c2.1,4.5,4.3,9,6.4,13.6c-0.2,0.1-0.5,0.3-0.7,0.4c-2.1-2.8-4.2-5.6-6.4-8.4
		c-0.3,0.2-0.6,0.4-0.9,0.6c1.9,3.1,3.9,6.2,5.8,9.4c-0.2,0.2-0.4,0.3-0.7,0.5c-2.4-2.7-4.8-5.4-7.3-8.1c-0.3,0.2-0.6,0.5-0.9,0.7
		c2.2,3.3,4.4,6.6,8.6,12.8c-4.6-4.3-6.7-6.3-9.5-9c2.3,8.6,7.9,13.5,12.9,19.1c-2.6-1.9-5.2-3.8-10.2-7.4
		c13,16,31.6,18.5,44.6,30.6c-2.4-0.6-4.3-1.1-9.5-2.3c9.8,5.7,14.8,11.9,20.4,17.4c1.9,1.9,4.6,4.2,2.7,7.4c-1.8,2.9-4.8,1.5-7.4,1
		c-3.5-0.6-7-1.3-12.1-2.3c5.3,4.1,11.4,3.4,15.6,9.2c-4.7-0.5-7.9-0.8-14.6-1.5c10.5,3.8,17.6,6.4,27.4,9.9
		c-2.6-3.6-3.4-4.7-5.3-7.4c5.4,3.4,9.2,5.8,13.3,8.5c1-5.2-2.5-8.3-4.9-12.2c3.7-1.2,7.2-2.3,13.1-4.2c-0.6,0.2-3.6-5.9,2.3-2
		c-0.6-4.1-1.1-7.4-1.7-12.3c6.3,5.6,13.1,3.3,20,4c-1.8-1.5-3.2-2.8-5.7-4.9c3.2-0.2,5.4-0.4,7.7-0.5c-2.8-9.4-9-17.3-9.4-27.9
		c1.4,1.1,2.5,2,3.7,2.9c0.3-1.2,0.6-2.3,1.3-5.2c1.3,2.6,2,4.1,2.7,5.5c0.7-0.3,1.4-0.7,2.2-1c-1.4-6.5-3-13-4-19.5
		c-2.9-18.6-18.9-25.5-32.7-36.1c15.9,4.7,27,14.9,40.6,24.6c-2.2-4.1-3.3-6.2-4.9-9.2c6.2,0.1,7.8,5.3,11.9,8.1
		c-4.4-10.7-12.7-17.3-20.3-24.7c5.3,1.1,15.3,8,20.8,13.9c5.9,6.3,7.8,14.9,12.8,24.1c6.4-31.6-16-46.2-32.1-64
		c10.9,1.8,33.3,26,43.2,46.8c1.6-9.7-1.8-18.7-2.1-27.6c2.8,3.8,5.7,7.7,8.6,11.5c6.6,2,14,2.7,17.8,10c3.5-11.3,8.2,5.9,12.1-0.2
		c-0.8,3.4-1.6,6.8-2.8,12.2c6.4-6.9,7.5-13.1,6.9-21.6c-1.5,3.6-2.3,5.6-3.1,7.6c-2.5-8.6-2.3-16.9,3.1-26
		c-0.4,10.4,6.1,18.2,5,27.9c3.3-1.3,5.9-4.4,10.3-3.5c-21.4,9.4-28.2,30.3-39.2,47.7c-0.6,0.9-0.8,2.1-0.9,3.2
		c-1.3,12.6-7.5,17.6-19.8,15.7c0.8,4.4-0.3,8.1-3.7,11c0,0,0-0.1,0-0.1c0.6,0.6,1.1,1.2,1.7,1.8c-4.2,4.4-6.9,9.6-10.1,16.9
		c2.6-2.1,3.6-2.9,5.9-4.8c-0.7,4.6-1.2,8-1.8,11.9c1.5-0.5,2.5-0.9,4.6-1.7c-4.8,7,1.5,12.7-0.9,19.8c-4.8,14-7,28.9-10,42.3
		c10.6,3.5,2.8,12.2,6.9,17.5c1.2,0.2,3.9,0,4.3,2.2c9.2-0.7,12.7-9.1,19.3-13.3c12.2-7.8,26.6-4.7,35,7.4c5,7.3,7.1,15.8,8.5,24.9
		c8-19-6.5-48.3-32.9-64.6c10.4,3.1,16.3,8.4,22.2,13.6c6.3,5.5,11.2,12.2,13.3,20.4c1.9,7.7,3.2,15.6,4.9,24.3
		c1.8-2.1,3-3.3,4.7-5.2c-0.9,4.4-1.7,8.2-2.6,12.4c1.7-1.2,3.2-2.2,5.4-3.7c-1.3,5.4-5.7,7.5-9.6,13.3c4.8-3.7,7.5-5.8,10.3-7.8
		c0.6,0.6,1.2,1.2,1.8,1.8c-5.4,3.8-10.7,7.7-16.1,11.5c0.6,0.7,1.3,1.5,1.9,2.2c0.6-0.2,1.3-0.3,2.7-0.7
		c-11.9,12.2-13.1,28.5-18.2,40.5c-12.4,3.6-17-5.6-23.4-12.3c1.9-0.6,3.8-1.1,6.8-2.1c-15.2-4.1-27.4-15.5-45.5-9
		c2.6-3.4,3.9-5.2,6.3-8.5c-7.5,3.4-13.8,4.8-20.2,1.8c0.3-0.4,1-1.7,2.1-3.4c-3.2,0.2-5.7,0.4-8.8,0.6c0.1-1.9,0.2-3.3,0.4-5.9
		c-5.9,7.6-11.4,14.5-20.6,17.3c4.8,2.5,5.8,2.4,18.1-1.9c-2,3.7-5.3,5.4-8.5,6.5c-3.2,1.1-6.6,1.5-13.2,2.9
		c6.2,0.5,9.3,0.8,13.3,1.1c-5.6,7.6-11.1,14-20.9,20.5c8.9-1.7,14.9-2.9,23.9-4.7c-4.2-0.3-5.3-0.4-7-0.5c5-6.3,11.9-8.8,17.9-12.4
		c1.6-1,3.9-0.4,4.9,1.7c1.4,2.7,0.6,5.3-0.8,7.6c-0.9,1.5-2.2,3.3-4.1,1.9c-2.4-1.7-3.5,0.2-4.8,1.3c-7.9,6.4-14.8,14.2-27.2,18.1
		c8.5,1,14.2-0.6,21.4-2.1c-8.5,9.6-19.3,12.8-29.7,17.7c5.9,2.7,10.2,5.8,15.6-1c4.7-5.8,13.6-5.1,20.5-6.9
		c4.1-1.1,0.5,3.6,0.9,6.4c8.5-5.2,9.4,11.1,18.5,5.9c0.7,1.1,1.5,2.3,2.4,3.6c1.7-0.8,3.3-1.7,5.4-2.8
		c0.8,12.9-11.3,17.6-15.2,26.9c4.6-0.3,9.8-1.3,15.1,1c-4,4.3,2.1,5.1,2.5,7.7c0.5,3.9-2.7,5.6-7.1,8c11.4,0.2,21.4-0.1,31,3
		c24.1,7.9,42.6,22.7,53.2,45.9c8.6,19,24.5,28.4,48.7,27c23-1.3,36.6-11.3,42.2-31.5c1.9-6.7,7.3-10.2,11.8-14.4
		c27.7-26.1,27.7-26.1,65.1-30.8c-2-1.1-3.7-2-6.3-3.4c3.4-1.5,5.7-2.5,9.1-4c-3-0.8-4.9-1.3-7.7-2c2.9-1.8,5.2-3.2,8-4.9
		c-0.6-1.3-1.2-2.6-1.8-4.1c7.5-5.9,17.1-2.3,25.3-6.2c-4.1-3.2-10.1-2.7-14.4-7.9c12.5-2.5,24.5-3.8,35.6-10.7
		c-4.5-0.6-8.3-1.1-12.1-1.5c-0.1-0.4-0.1-0.8-0.2-1.2c8.1-1.5,16.3-3,24.4-4.5c-12.8-2-20.5-11.9-30.2-18.6l0.1,0.1
		c4.5-3.6,8.9,0.6,13.4,0.3c3.3-0.2,6.5,0,11.6,0c-13.5-6.5-19.9-18-28.9-27.7c5.4-0.5,11.4,1.4,16.2-4.2c-3.4-0.6-6.1-1.1-8.5-1.5
		c-1.4-11.9-0.2-24.5-9.8-34.3c2.1,8.7,4.3,17.4,6.8,27.9c-10.5-10.2-20.1-18.6-31.5-24.6c-1.3-0.7-2.1-2.8-2.4-4.4
		c-0.4-2.7-0.3-5-4-6c-3.8-1-6.2,0.2-8.2,2.9c-8.1,10.4-17.5,18.1-32.2,15.7c6,1.8,12.9,1.7,15.1,9.5c10-4.6,15.7-12.8,21.5-20.9
		c2.9,7.7,7.9,15.5-1,22.6c-1.6,0.4-3.1,0.7-5.9,1.4c3.5,1.6,5.9,2.8,8.3,3.9c-1.7,4-5.2,1.5-7.3,3c-0.8,4.2,3.4,2.9,5.5,4.8
		c-4.4,0-8.4,0-12.3,0c0.8,4.8-2.6,3.4-4.7,3.2c-12-1.3-21.7-7.5-28-17.1c-11.6-17.6-26.2-30.8-46.4-37.8c-2.2-0.8-5.1-6-0.4-9.8
		c5.2-4.2,13.4-0.9,17.6-7.8c0.7-1.1,6.2-0.7,6.8,4.4c1.4-14.8,5.7-27.8,15.1-38.6c4.9-5.7,10-11.6,18.4-12.4L390.1,429.6z
		 M97.8,431.4c6.2,2.3,10.3,7.2,15.3,11.6c-1.3,0.6-2,1-3.4,1.7c4.1,1.2,7.5,2.2,12.6,3.7c-4.2-4.6-7.2-7.7-10.5-11.3
		c1.9,0,3.1,0,4.7,0c-12.2-11.4-18-14.8-25.1-14.6c3,1.5,5.8,2.6,8.4,4.1c2.6,1.5,5.1,3.3,8,5.2c-3.9,1.5-6.7-3.1-9.9-0.1
		c-3.7-2.9-7.4-5.8-11-8.7c1.3,3.8,3,6.7,1.6,10.8c5.5-1.3,7.5,4.5,12.7,4.9C99.9,435.8,98.8,433.6,97.8,431.4z M164.4,744.8
		c0-8.5,0-16.8,0-27.8c4.5,8.1,2.9,15.4,7.2,21.6c3.5-12.2,3.1-23.9,3.6-35.6c0.6-14.5,4-28.6,8-33.6c-8.6,44.3-8.6,68.7,0.2,76.5
		c4.7-4.8,4.1-11.9,7.3-18.3c1.9,6.8-0.4,12.4-1.3,18c14.1,2.2,24.8-6,26.6-20.2c1.6-12.7,1.1-25.4,0.7-38.2
		c0.5,1.7,0.9,3.3,1.5,5.5c0.7-2.1,1.2-3.6,2.1-6.6c-1,17.3-2.1,32.9,3,51.5c1.3-9.2,2.2-15.1,3.4-23.7c4.6,8.9,2.7,15.7,3.2,22.1
		c0.2,2.4-2.1,5.6,0.7,7c3.1,1.5,6.6,0.2,9.2-2.2c12.2-11.4,19.5-24.9,16.5-42.2c-5.1-28.9-34.9-48.1-68-45.5
		c-14,1.1-26.7,10.3-41.5,6.3c-1.7-0.5-4.4,1.6-6.2,3c-6.5,4.9-11.9,10.9-16.2,17.8c-1,1.7-2.9,3.6-1.4,5.6c1.8,2.3,3.3-1.3,5.3-0.8
		c-17.4,26-9.1,46.6,6.5,56.2c-0.1-6.4-3.7-14.2,1.8-18.5c5.8-4.6,5-9.8,5.2-15.3c0.4-11.5,2.7-22.2,13.2-30
		C137.9,708.3,142.3,742.5,164.4,744.8z M404.1,734.5c4.1-17.1,2.6-33.2,2.1-50.3c0.9,2.5,1.5,4.1,2.2,6.1c0.8-2.4,1.4-4.2,2-6
		c-1.7,14.9-1.3,29.6,0.3,44.2c1.3,12,13.9,19.9,25.7,16c-2-5.9-3.7-11.8-2-19c2.5,6.8,3,13.5,8,20.1c9.7-24.4,6.1-47.7,1.5-71.8
		c10.9,20.8,3.1,44.4,12.3,66.4c1.6-6.6,2.8-11.7,4-16.7c0.6,0,1.2,0.1,1.8,0.1c0,7,0,13.9,0,20.9c20.4-1.3,25.8-34.4,10.3-67.7
		c4.9,6.8,10.6,11.2,10.3,14.9c-1.7,17.3,8.8,32.1,9.2,49.4c8.2-7.3,14.6-15.5,14.5-27.3c-0.1-10.8-3.1-20.8-10.5-30.2
		c3.1,1.2,3.9,4.1,6.4,3.1c0.7-0.3,1.3-1.8,1.2-2.8c-0.5-9.2-20.6-25.9-29.6-24.2c-5,0.9-9.2,0.1-13.8-1.5
		c-30.2-11.2-59.9-5-78.1,16c-18.4,21.3-16.9,47.5,3.7,65.5c2.6,2.2,5.6,4.6,8.9,3.2c2.7-1.1,1-4.6,1.2-6.9
		c0.6-6.8-0.7-13.9,2.6-21.2C403.2,720.7,399.4,728,404.1,734.5z M85.5,436c2.4,4.8,2.2,9.6,2.2,14.5c-0.1,81.6-0.1,163.2,0,244.8
		c0,2-1.5,5.9,1.6,5.9c3.8,0,2-4,2-6.1c0.1-80.7,0.2-161.3,0.2-242c0-1.8,0-3.6,0-6.7c11.8,11.8,23.8,21,38.8,25.5
		C113.8,461.9,97.5,451.8,85.5,436z M192.3,510.7c12.6,26.3,39.5,32.2,58.9,13.7c1.7-1.6,5.2-3.3,2.9-6c-2.3-2.8-4.8,0-7,1.5
		c-15.7,11.1-30.6,10.4-42.5-2.9C201.3,513.2,197.3,512.5,192.3,510.7z M411,478.9c1.3,16-1.5,28.8-15.2,38.3
		c10.5-1.6,17.7-6.7,21.3-14.8C420.6,494.6,417.3,487.1,411,478.9z M397,483c-0.5,12.5-4.7,20-18.4,20.1c7.7,3.4,12.7-0.1,17.9-2.2
		c1.9,0.4,1.7,4.1,4.4,2.7c1.9-1,2.6-2.6,1.7-4.9c1.3,0.4,2.4,0.8,3.8,1.2C407.7,492.1,401.7,488.9,397,483z M475.1,467.2
		c0.8,15.6,5.4,29.3,15.1,41.1c-3.5-10-7.1-20-10.7-30.4c4.4,0.9,8.7,1.8,15,3.1C486.9,475.6,481.1,471.5,475.1,467.2z M141,483.8
		c-6.4,2.6-14.9,25.2-13.7,32c3.6-3.3,7.2-6.6,11.3-10.3c-2.3,0.4-4.1,0.7-6.2,1.1C135.2,499.2,137.9,492.1,141,483.8z M59.1,353
		c-12.6-12.1-11.7-32.6-29.1-45.2C41.7,323.9,46.1,341.1,59.1,353z M219.8,508.4c10.1,3.7,17.6-0.8,26,1.7c-2.4-5.6-4.2-9.4-8.2-12
		C235,506.1,231.9,508.1,219.8,508.4z M238,491.7c-0.4-2.8-0.8-6.9-5.6-7.1c-3.5-0.1-5.3,2.9-5.2,6.2c0.1,3.7,2.1,6.3,6.2,6.4
		C236.5,497.3,238.1,495.8,238,491.7z M387.4,487.7c3.5-0.1,5.4-1.8,5.4-5c-0.1-3.5-1.2-6.8-5.4-7c-3.3-0.2-5.1,1.9-5.1,5
		C382.3,484.1,383.4,487.2,387.4,487.7z M138.3,510.1c18.9-2.6,10.1,12.6,14.8,22.8c-0.7-10,3.6-17.4-1.1-23.6
		C148.9,505.2,143.3,507.2,138.3,510.1z M502.5,455c-9.6,3.4-19.1,6.8-28.7,10.3C484.7,465.7,494.5,463.1,502.5,455z M218.9,522.1
		c-9.2-7.8-11.8-16-12.7-25.5C200.9,507.9,204.4,516,218.9,522.1z M86.4,388.8c-11.1-6.6-22.2-13.3-34-20.3
		C57,374.9,77,387.5,86.4,388.8z M142.4,720.8c-4.9,2.3-7,4.9-5.4,9.4c0.9,2.3,3.5,4.4,5,3.1C146.1,729.8,142,725.5,142.4,720.8z
		 M483.8,720.9c-0.4,4.9-4.1,8.9-1.4,13.2c1.1,1.7,3.8-0.3,4.7-2.2C489.2,727.8,488.5,724.2,483.8,720.9z M142.7,480.5
		c-9,0-16.5,0-23.9,0C126.4,484.5,134,485.6,142.7,480.5z M147.3,618.4c0,0.7,0.1,1.3,0.1,2c3.9,0,7.7,0.1,11.6-0.1
		c0.9-0.1,2.2-1.4,2.4-2.4c0.2-1.8-1.5-1.9-2.7-1.7C154.8,616.9,151,617.7,147.3,618.4z"/>
	<path d="M411.7,586.8c-5.5-0.7-7.9,2.9-12.4,5.2c4.7-7.5,10-11.7,17.9-10.3c5.4,1,10.3,3.3,12.2,10.4c-3.7-2.4-6.6-4.2-10.4-6.6
		c0.6,4.5,1,7.8,1.4,11.1c-0.2,0-0.4,0.1-0.6,0.1c-0.2-1-0.4-2-0.7-3.3c-12.5,25.8-28.4,49.1-46.2,71.1c-2.6,3.2-5.3,6.3-8.4,9.1
		c-8.8,7.9-18.2,14.9-26.4,24c-14.5,16.2-46.2,10.1-57.8-8.4c-5.7-9.1-16.4-13.9-23.3-22.5c-19.5-24.5-37.1-50-50.5-78.5
		c-3.7,0-4.2,4.1-7.4,5.6c0.5-5.4,3-9,7.4-10.8c5.2-2.1,8.2,1.5,11.7,6.2c-2.2-1.2-3.4-1.9-6.8-3.7c5.2,9.1,9,16.6,13.6,23.5
		c13.4,20.4,29.3,37.3,56.3,37.4c8.4,0,16.2-2.6,23.9-5.7c5.3-2.2,2.3-6.8,2.9-10.4c0.5-2.9-1.6-3.4-3.9-4.2
		c-10.8-4.1-20.3-9.7-23.8-21.9c-0.3-1-1.6-1.8-2.7-2.4c-9.9-5.5-13.7-14.1-13-25c0.8-11.6,8.6-16.8,18.7-19.2
		c16.7-4,33.6-5,50.3-0.4c18.2,5,23.3,23.5,10.9,37.6c-2.4,2.8-4.5,5.6-5.9,9c-3.9,9.3-10.6,16.3-19.8,20.2
		c-5.6,2.4-6.7,5.7-6.3,11.2c0.4,5.3,4.4,5.8,7.7,7c28.4,11,55.2,0.9,76.5-28.7C402.7,605.4,408.1,597,411.7,586.8z M312.9,677.2
		c-4-16.5-5.2-17.3-21.8-15.5c-2.7,0.3-5.3,0.6-8,0.8c-3.2,0.3-4.3,1.6-3.8,5c1.3,8.7,4.9,16.3,10.2,23.2
		c7.2,9.3,20.5,13.2,34.1,8.1c10-3.8,15.3-12.7,17.1-23.3c1.3-7.6-1.1-11.8-9.7-12.6C315.2,661.5,315.2,661.1,312.9,677.2z
		 M342.1,570c0-3.9-2.1-6.3-5.7-7.2c-12.4-3.4-25.1-2.2-37.7-1.2c-3.7,0.3-8.5,0-8.2,5.5c0.3,5.1,4.9,5,8.7,5.3
		c12.8,0.9,25.6-1.4,38.3,1.6C340,574.6,342.3,573.2,342.1,570z M266.3,652.9c2.9,8.5,3.8,15.6,9.9,22.6
		C274.5,666.6,273.2,659.8,266.3,652.9z M281.8,603.6c5.7,5.9,9.7,3.5,13.4,0.5c3.6-2.9,5.3-6.7,2.4-13.5
		C296.3,600.7,292.8,606.5,281.8,603.6z M361.1,655.2c-5.6,4.2-9.5,9.2-8.9,19.4C356,666.3,358.6,660.7,361.1,655.2z"/>
	<path d="M390.2,429.7c-4.5-7.1-9.2-12.9-19.3-11.6c-8.5,1.1-11.8,10-20.7,11.4c0.9-4.7,1.8-9.2,2.9-14.4c-1.9,0.5-3.1,0.8-4.4,1.2
		c-0.2-3-0.4-6.1-0.6-9.1c-0.4,0-0.8-0.1-1.3-0.1c-0.4,1.4-0.8,2.8-0.9,3.4c-2-9.2-4.2-19.1-6.3-29.1c-0.3-1.2-0.9-2.7-0.4-3.7
		c2.3-4.6,7.5-8,0.8-14.3c-3.6-3.4-3.7-10.5-5.4-15.9c-3.3-0.5-5.7,4.3-9.2,0.4c-7.7-8.3-19.4-14.9-13.1-29c2.7-6.1,8-3.4,11.5-0.5
		c2.9,2.5,4.8,6.2,7.2,9.6c4.2-2.9,6.6-5.9,1.2-10.1c-1.3-1-2.5-2.6-1.2-4.1c0.9-1,2.7-1.9,4-1.8c3.7,0.3,7.4,1.1,10.1,1.6
		c4.2,16,14.4,1.7,21.4,5.2c-8.8,5.7-4.5,10.5,0.1,15.7c2.8,3.2-2.5,4.8-3,8.3c9.9,0.3,14.1,6.7,17.5,14.8
		c3.3,7.7-0.5,15.3-8.9,15.5c-5.8,0.1-11.3,2.5-12.2,7.7c-0.8,4.9,4.7,7.7,9,9.7c5.9,2.7,9.1,16.2,5.1,23.7
		c7.8,1,15.3,2.5,18.6,10.6c0.9,2.1-1.3,3.4-2.6,4.7C390.1,429.6,390.2,429.7,390.2,429.7z"/>
	<path d="M138.6,173c5.7,10.6,12.3,19.4,20.9,27.5c0.2-2.6,0.4-4.7,0.5-6c28.4,21.8,59.1,42.3,58.8,84.4
		c-8.3-34.1-28.9-59.4-56.6-80.2c0.7,2.1,1.3,4,2.6,7.8c-5.5-4.2-9.8-7.4-14-10.6c-4.3-3.3-7.4-7.7-11.4-11.6
		c1.6,4.2,3.1,8.3,4.9,13.2c-21.4-9.2-41.9-18.8-58.7-38.4c2,4.3,3,6.5,4.5,9.7c-9-4.7-13.5-12.1-18.5-19.5
		c-1.2,3.9,1.7,6.1,2.2,10.3C61.4,151.9,57,140,51.4,127.5c-14.4,25.7-30.7,49.8-24.3,82c-12.2-19.6,0.5-62.5,24.7-86
		c5,8.4,9.9,16.8,15.5,26.2c0.8-3.7,1.3-6.2,1.9-9.3c4.3,6.2,8.2,11.8,12.8,18.4c0-5.4,0-9.5,0-15.9c6.1,13,13.7,22,23.8,28.7
		c9.9,6.7,20.1,13,31.2,20.2C136.2,184.9,135.2,179.3,138.6,173z"/>
	<path d="M578.5,197c-2.2,4.7-4.5,9.5-7.5,15.7c2.1-13.5,3.9-25.3,5.9-38c-1.6,1-2.2,1.4-3.3,2c0.6-2.7,0.9-5.1,1.8-7.4
		c6.3-17.4-5.8-27.9-14.7-39.7c-7.2-9.6-13.9-12.1-24.6-3.8c-11,8.5-22.9,15.8-34.4,28.8c2.9-8.1,4.8-13.4,7.6-21
		c-23.2,27.4-44.7,52.9-66.3,78.4c21.2-34.3,48.9-62.9,77.8-91c-1.1,2.4-2.1,4.8-3.2,7.2c-1.2,2.5-2.6,5-4.9,9.3
		c11.4-9.2,22-16.1,33.4-21.8c3.6-1.8,6.4-1.6,9.4,1.1c11.5,10.1,23.6,21.2,24.5,36.6c0.7,12.6,0.9,25.8-1.3,38.7
		c-0.3,1.7-0.2,3.4-0.2,5.1C578.4,197.1,578.5,197,578.5,197z"/>
	<path d="M371.6,282.3c-0.6,6.2,5.2,10.2,5.4,17.4c-4-5.9-8-10.5-9.5-19.5c-1.6,11.7,3.1,20,3.5,30.2c-3.8-2.8-6.6-4.8-10.4-7.6
		c2.4,6.1,5.5,10.1,9,13.7c-40.3-12.1-80.9-13.2-122.1-3.1c-3,2.9-6.1,5.8-10.9,10.5c4.3-10.8,11.2-15.3,20.1-20.1
		c-1.2,3.5-2,5.5-2.9,8c34.4-12.8,69-13.4,105.3-3.9c-4.3-5.6-7.9-10.3-12-15.6c7.2,0.7,12,4.3,17.5,8.8c-0.6-10.8-1.7-21,2.8-32.1
		c1.7,5.4,2.9,9.5,4.2,13.5L371.6,282.3z"/>
	<path d="M371.6,282.4c0.1-7.8,1.5-15.3,6.9-22.5c0.6,5.8,1.2,10.8,1.9,16.8c2.5-9.1,4.6-17.1,6.8-25.1c0.4,0,0.9,0.1,1.3,0.1
		c0.3,4.2,0.5,8.3,0.8,14.1c13.4-29.2,34.6-49.6,58.4-70.4c-5,9.9-9.9,17.4-19.1,25.9c3.8-6.2,5.9-9.5,7.9-12.9
		c-19.6,18-34.4,39.5-46.8,62.2c-7.7-0.7-5.3,7.1-9.3,9.7c-1.8-0.7-2.9-2.6-4.1-7.6c-1,6.3-1.6,9.9-2.3,14.5
		c-1.1-2.2-1.8-3.6-2.5-4.9C371.6,282.3,371.6,282.4,371.6,282.4z"/>
	<path d="M465.2,577.3c0.8,5.7,5.4,9.3,8.5,14.6c-2.5-0.4-4.1-0.7-6.2-1.1c0.7,2,2.5,4.2,0.2,5.1c-6,2.5-11.6-0.3-17.3-2.6
		c4.5,0.5,8.9,1.1,13.4,1.6c-7.5-2.2-15.6-3.1-20.5-11.7c6.8-0.3,12.2,1.7,20.3,4.3c-8.4-6.5-16-7.7-23.1-10.4
		c2.8-1.1,5.6-2.2,9.1-3.6c-3.8-1.8-7.1-3.4-10.4-4.9c0.1-0.4,0.3-0.8,0.4-1.2c3.8,1.3,7.7,2.7,11.5,4c6.8-3,9.9,2.5,13.9,6
		C465.3,577.4,465.2,577.3,465.2,577.3z"/>
	<path d="M233.1,297.3c-1.3-10.6-0.3-21.3-6.8-31.1c0.6,5.4,1.2,10,1.8,15.1c-4.9-9.5-5.6-19.4-7.6-29.7
		C232.9,259.2,239.6,284.2,233.1,297.3z"/>
	<path d="M219.6,431.8c4.7,0.8,9.6,1,15.1,5.1c-5.8-1.2-10.1-2-14.3-2.9c-0.1,0.3-0.1,0.6-0.2,0.9c4.3,1.1,8.5,2.2,13.7,3.5
		c-8.1,3.3-18.2-8.5-23.6,4.5c-2.3-2.1-1.1-7.9,3.7-13.4c8.2-9.6,11.2-10.3,18.5-4.6c-3.5,0.5-6.7,1-11.2,1.7
		c2.3,0.8,3.5,1.3,5.2,1.9C224.4,430.2,220.3,427.5,219.6,431.8z"/>
	<path d="M315.7,518.8c0.7,1.1,1.3,2.3,2.7,4.6c-0.4-3.2-0.6-5-1-7.6c1,1.2,1.6,1.8,2.4,2.6c0.4-1.5,1.1-3.4,2.6-2.1
		c5.3,4.6,5.6,11.2,5.9,17.6c0.1,1.4-0.4,3.6-2.1,2.6C319.1,533,317.5,525.8,315.7,518.8z"/>
	<path d="M204.9,625.9c-6.5,1.4-10.6-0.7-13.7-5c-3.2-4.5-1.3-9.2,0.4-14.2C193.1,615,201.5,618.2,204.9,625.9z"/>
	<path d="M454.4,206.1c0.8,6.2,5,12.4-2.3,17.1c-2.1,1.3-3.5,5.2-6.3,3.7c-2.6-1.5-1.4-5.2-0.2-7.4
		C448.2,214.8,451.4,210.6,454.4,206.1z"/>
	<path d="M245,398.4c-1.4-2.7-2.4-5.4-1.2-8.9c1,1.1,1.8,2,3.3,3.6c-0.6-2.6-1-4.4-1.6-7.4c3.8,7,7.1,12.9,10.3,18.8l-0.1-0.1
		c0,2.3,0,4.7,0,7.9c-3.2-3.6-5.9-6.7-8.6-9.8C246.4,401.1,245.7,399.7,245,398.4z"/>
	<path d="M255.7,404.4c-2.5-6.3-5.1-12.6-7.8-19.3c8.1,1,13.1,12.2,10.5,22.4c-1-1.2-1.9-2.2-2.8-3.2
		C255.6,404.3,255.7,404.4,255.7,404.4z"/>
	<path d="M331.5,534.5c0-6.4,0-12,0-20.4c1.3,4.8,1.9,7,2.7,10c0.4-2.1,0.6-3.4,1.2-6.4C337.7,525,338.9,530.3,331.5,534.5z"/>
	<path d="M390.8,555.2c11.8-3.1,22.2,0.4,32.7,1.1C412.9,556.2,402.3,557.5,390.8,555.2z"/>
	<path d="M245,398.4c0.7,1.4,1.4,2.7,2,4.1c1.6,3.1,3.3,6.1,4.9,9.2c-5.4-3.9-10.5-8-12.1-17.9C243.1,396.6,244,397.5,245,398.4z"/>
	<path d="M90.6,173.3c0,0,0.2,0.3,0.2,0.3C90.8,173.6,90.6,173.3,90.6,173.3z"/>
	<path d="M97.3,180.2c0,0,0.3,0.2,0.3,0.2C97.6,180.3,97.3,180.2,97.3,180.2z"/>
	<path d="M95.9,178.8c0,0,0.1,0.3,0.1,0.3C96.1,179.1,95.9,178.8,95.9,178.8z"/>
	<path d="M94.9,177.2c0,0,0.2,0.2,0.2,0.2C95.1,177.4,94.9,177.2,94.9,177.2z"/>
	<path d="M194.9,380.5c-0.5-0.5-1-1.1-1.4-1.6c0,0,0,0.1,0,0.1C193.9,379.5,194.4,380,194.9,380.5z"/>
</g>
</svg>
