<?xml version="1.0" encoding="utf-8"?>
<!-- Generator: Adobe Illustrator 24.2.3, SVG Export Plug-In . SVG Version: 6.00 Build 0)  -->
<svg version="1.1" id="Layer_1" xmlns="http://www.w3.org/2000/svg" xmlns:xlink="http://www.w3.org/1999/xlink" x="0px" y="0px"
	 viewBox="0 0 595.3 841.9" style="enable-background:new 0 0 595.3 841.9; fill: #215342;" xml:space="preserve"
	 height="400" width="500" transform="translate(-150, -91)">
<g>
	<path d="M284.1,430.9c-1-5.1-2-10.3-3.1-15.8c6.5,6.3,4.5,16.3,11.7,21.9c-1.4-3.5-2.8-7-4.2-10.5c0.1-0.1,0.2-0.1,0.3-0.2
		c1.5,2.3,2.9,4.7,5.1,8.1c0.3-14.2-7.3-24.9-9.8-38.1c1.8,2.7,3,4.4,4.2,6.2c0.3-4.3-3-6.4-5.7-10.9c0.3,4,0.4,6.3,0.7,10.2
		c-4-12.8-10.5-22-19.4-29.6c12.8,7.2,20.7,19.6,32.2,30.2c-1.7-5-3-8.9-4.3-12.8c0.2-0.1,0.5-0.2,0.7-0.3c1.1,2.7,2.2,5.4,3.3,8.2
		c0.2-0.1,0.4-0.1,0.5-0.2c-0.9-2.6-1.7-5.3-2.6-7.9c-0.1-1.4,0.1-3-0.3-4.3c-2.8-8.7-7.2-16.3-15.1-22c1.4,0,2.3,0,3.5,0
		c-3.3-5.7-10.4-3.3-14.8-7.7c5.8-1.1,10.2,1.1,14.8,2.9c-0.1-0.6-0.1-1-0.1-1.7c4.9,1.9,7.3,6,11.2,10.1
		c-2.8-8.6-7.4-13.8-15.5-15.7c-8.4-1.9-15.3,0.7-22,6.1c3.6,1.2,6.8,2,9.9,3.2c13.7,5.6,25.2,13.4,28.7,29.1
		c-6.5-12.2-15.5-21.5-28.7-26.4c-8.1-3-16.3-5.9-25.2-6.2c5,2.3,10,4.6,14.9,6.9c-13.3-3.5-25.5-12.1-40.3-7.3
		c-1.7,0.6-3.3,1.4-4.9,2.5c8-1.4,15.8-1.4,24.4,1.8c-8.1,1.1-15.4,0-23.2,2.3c13.3,1.5,24.9,4.9,34.8,13.6c-4.1,2.1-7,0.3-10.2-0.8
		c-8.4-2.8-17.1-2.9-25.5-0.6c-8.8,2.4-16.6,7-24.1,12.3c2.4-0.4,4.7-0.8,7.1-1.2c-7.3,4.3-15.5,6.8-21.4,14c6.5-3.5,13-6,20.2-6.1
		c-15.7,4.7-28.9,13.2-39.2,26.2c-0.6-5.5,2.4-9,4.6-12.9c2.3-3.9,5.6-7,9.3-10.8c-6.1-1.8-9-6.9-13.6-10.6c1.7-0.2,3.2-0.3,5.4-0.6
		c-6.6-6.1-14.1-7.7-22.1-8.8c1.8-0.1,3.6-0.3,5.4-0.4c1.9-0.1,3.7,0,6.6,0c-3.9-2.3-7-4.2-10.7-6.4c5.4,0.1,9.4,2.8,14.9,5
		c-6.1-6-11.9-10.5-16.4-17.6c3.9,1.6,6.8,2.8,10.4,4.3c-0.6-1.7-1-2.8-1.8-4.8c2.5,2.3,4.3,4,7.1,6.7c-4.3-9.1-8.7-16.5-14.6-23.5
		c3.2,0.4,5.1,4,8.4,2c-0.3-0.8-0.6-1.6-1.1-3.1c1.6,1.7,2.7,2.9,3.8,4c0.2-0.1,0.3-0.3,0.5-0.4c-1.4-2-2.8-4-4.2-5.9
		c0.2-0.2,0.4-0.4,0.7-0.6c2.4,2.6,4.7,5.2,7.1,7.9c0.2-0.1,0.4-0.3,0.6-0.4c-2.5-6.8-4.9-13.5-7.4-20.3c0.2-0.1,0.4-0.3,0.6-0.4
		c1.9,2.6,3.8,5.3,6.2,8.6c0-6-2.3-10.3-3.8-15c2.6,5,5.1,9.9,8.2,15.9c-0.5-3.2-0.7-5.3-1.1-7.7c0.6,0.9,1.1,1.5,2,2.8
		c0-8-1.1-15-2.8-22.4c2.5,2,2.9,4.8,4.4,7.3c0.5-5.9-2.1-10.6-4.5-16.7c4.3,5.8,6.2,11.5,8.9,18.2c-0.7-9.2-2.6-16.7-4.6-24.3
		c2.7,4.6,4.7,9.3,5.7,15.4c1.5-10-0.7-18.6-5.1-27.9c3,2.8,3.8,5.4,5.4,8.6c-0.3-5.7-2.1-9.9-3.6-14.3c1.3,1.7,2.7,3.5,4.4,5.9
		c-0.4-5-3.8-7.4-6.2-11.1c3.1,1.4,4.4,3.8,6.5,6.5c-0.4-6.4-4.8-10.4-5.3-15.9c0.5,0.2,1.1,0.5,2.4,1.1c-1.5-5.9-5-10-8.2-14.9
		c6.4,3.8,10.1,9.8,15.7,13.8c-2.5-3.3-5-6.6-7.4-9.9c0.3-0.3,0.6-0.6,1-0.9c6.3,6.8,12.6,13.5,18.9,20.3c0.3-0.3,0.6-0.6,1-0.9
		c-1.6-2-3.1-4-4.7-6c0.2-0.1,0.3-0.3,0.5-0.4c6.6,7.1,13.2,14.3,20.6,22.3c-1.6-3.9-2.8-6.7-4.2-10.1c3,3.6,4,7.6,6.5,12.4
		c-1.4-7.3-3.8-12.7-6.2-18.1c6.1,8,8,18.3,14.1,27.4c-0.1-4.2-1.3-7.2-2-10.3c0.6,1.2,1.2,2.3,2,4c0.3-4.8-0.9-8.9-2.4-13.3
		c0.7,0.4,1.1,0.6,1.7,1c-0.1-0.7-0.2-1.3-0.4-3.1c5.7,10.8,6.8,22.3,13.6,32.4c-1.8-7.6-3.5-14.3-5.8-20.8c4.1,5.5,5.9,12,8.8,18.1
		c-0.5-2.1-0.9-4.2-1.7-7.5c1.9,3.7,3.2,6.4,4.6,9.1c0.3-0.1,0.5-0.1,0.8-0.2c-0.7-3.5-1.4-7-2.2-10.8c2.1,1.3,2.6,3.2,3.2,4.9
		c0.6,1.7,1.1,3.5,2.3,5.1c-0.4-2.3-0.7-4.6-1.1-6.9c3.9,11.8,3.2,24.5,7.8,37.4c-0.3-6.7,0.8-12,2.7-17.3c0,2.5,0,5.1,0,8.8
		c0.7-1.6,0.9-2,1.4-3.3c0.1,1.8-0.1,2.9,0.2,3.8c3.2,9.8,1.3,20.1,2.6,30.2c5.1-11.4,9.1-22.9,8.2-35.6c3.2,12.8-0.4,24.9-3.3,37.3
		c6.9-5.5,11.4-25.4,7.7-37.2c6.4,10.8,6.7,20.6,3.1,31.2c10-2.4,19.7-4.2,27.6,4.5c-3.5-5.9-9.7-7-16.1-9.7
		c6,0.3,10.3,2.3,14.5,5.2c-1.1-1.3-2.1-2.7-3.2-4c0.1-0.1,0.2-0.2,0.3-0.4c1.5,1.4,3,2.8,4.5,4.3c-0.8-13.7-2.1-27.1-8.2-39.7
		c4,2.2,6.2,6.6,9.5,18.5c2.6-6.9,5.5-12.9,11.3-18.3c-3.1,7-3.4,13.7-5.1,21.7c1.8-3.2,2.8-5,3.8-6.8c0.2,0.1,0.4,0.2,0.5,0.3
		c-1.5,5.9-3.1,11.8-4.4,17.1c2.7,1.8,0.5,4.4,2,6.1c2.6-3.9,5.7-7.5,10.4-10.6c-2.2,3.3-4.7,5.5-4.9,9.6c3.5-3.2,6.7-5.9,10.5-7.8
		c3.9-2,7.9-3,11.5-2.4c-9.5,3.5-18.1,9.4-25.5,18.8c0.5-3,0.8-4.9,1.4-8.5c-1.6,2.7-2.3,3.8-3.1,5.3c-0.8-1.9-1.5-3.6-2.5-5.8
		c-0.4,2.1-0.6,3.6-0.9,5c-2.8-10.2-1.3-20.1,1.3-29.9c-4.4,8.8-6.4,18-4,27.8c1.8,7.3,6.5,13.8,6.1,21.7c-0.1,1.6,0,3.4-2.8,2.1
		c0.2,3.7,0.4,7.1,0.6,11.3c5.6-16.5,19.2-23.1,32.4-30c-10,5.7-16.9,14-21.6,24.5c11.4-16.4,27.1-21.5,46.6-18.8
		c-1.3,2.2-2.9,2-4.2,2.3c-7.8,1.6-15,4.6-21.3,9.6c-2.1,1.7-5.3,1.7-6.7,3.1c-8.2,7.8-10.5,18.6-13.8,28.9c4.3-3.1,5-8.9,10.1-12.4
		c-2,5.2-5.1,9.1-5.6,14.1c3.2-5.6,5.3-12,11.8-16.1c-1.7,3.1-3.2,5.6-4.6,8.1c5.4-7.4,12.4-12.5,20.7-16.2
		c-10.7,7.8-19.1,17-20.7,31.2c0.4-0.5,0.7-0.6,0.8-0.8c1.2-8.5,8.5-10.8,14.7-14.2c1.5-0.8,2.9-1.8,4.7-2.4
		c-12.6,9.7-19.2,23.3-25.8,37.6c5.4-2.1,8.9-4.2,9.5-10.3c0.8-7.4,5.4-13.4,10.9-18.4c0.8-0.8,1.7-1.7,3.5-1.5
		c-1.9,5.7-8.4,9.1-7.7,15.9c8.8-7.8,15.5-19.5,30.2-16c-10.1,1.2-18.3,5.3-22.6,15.5c8.4-6.5,17.6-10.5,28.4-8.9
		c-6.4,0.7-12.9,1.1-18.1,5.6c9-3.1,17.9-6.3,28.3-0.8c-21.1-1.6-35.5,4.5-41.6,17.4c1.2-1.3,2-2.2,2.9-3.1c2.1-2,3.8-3.9,7.4-3.6
		c4.6,0.4,8-4.5,13.4-3.9c-1.4,0.7-2.5,1.3-5.3,2.7c5.2,0,8.6,0,13.8,0c-3.7,1.9-6.9,0.7-8.8,3.5c3.8,0.8,5.4,5.2,10,4.6
		c-2.4,0.6-4.8,0.7-3,4c0.4,0.8-1.1,1.1-1.9,1.3c-2.7,0.7-5.4,1.3-8.1,2.3c4.1,0,8-2.3,12-1.3c3.8,1,7.4,3.1,12.6,5.5
		c-4.5-0.6-7.2-2.1-10.6-0.8c1.9,1.2,3.5,2.1,6,3.6c-2.2-0.2-3.4-0.3-5.7-0.4c18.5,8.9,27.9,24,35.1,41.2
		c-0.7-9.9-3.7-19.6-1.8-30.3c3,11.2,4.4,22.5,10.3,32.3c-1.8-11.7-3.9-23.4-8.5-34.9c3.1,1.7,4.3,4.3,5.1,7.2
		c0.7,2.3,1.5,4.6,2.9,6.5c0.2,5.4,4.7,8,7.8,11.4c1-10-5-18.3-7.7-27.5c6.3,4.7,9.2,11.2,10.9,18.3c-1.7-5.3-5-9.7-8.6-13.8
		c3.2,5.8,6.6,11.6,7.8,18.1c1.7,9.7,6.7,18,9.3,27.1c1.3-4,0.2-14.5-3.3-20.4c-3.8-6.5-4-13.9-6.5-20.7c-2.5-7-7.7-11.8-13.7-17.1
		c4.4-0.6,6.2,1.9,8.7,3c-10-6.8-16.1-18-26.6-23.7c1-0.5,4.5,1.5,4.2-1.9c25.3,3.6,39,21.7,50.1,41.6c-1.8,0.2-5.4-2.8-9.4-9.1
		c-2.6-4.1-5.2-8.3-9-11.6c7,10.3,12.3,21.2,15.2,34.2c-5.9-10.8-9.9-21.8-17.3-30.9c-0.3-0.4-0.6-0.9-0.9-1.3
		c-4.4-6.3-9.4-12-17.3-14.3c3,3,6.2,5.7,8.9,9c5.5,6.7,6.5,15.8,11.9,22.8c4.6,6,8.8,12.3,14.8,17.1c0.5,0.4,0.8,1,1.9,2.5
		c-7.1-1.9-11.2-6.1-15.4-10.5c4.3,14.9,8.4,29.7,3.5,45.2c-1.6-1-0.9-2.7-1-4.1c-0.4-6.1-4-16.6-7-19.1c3.1,8.8,5.7,17.2,4.2,27.8
		c2-2.4,2.9-3.5,3.8-4.7c5-2.1,10-1.3,15.2-0.4c8.2,1.4,14.8-2.6,20.6-8c0.7-0.7,1.1-1.9,2.2-2.2c0.3,5-3.7,6.9-6.5,9.7
		c3.3,1.4,6.1,2,9.3,0.2c1.8-1,4.1-1.4,6.2-1.5c7.2-0.2,14.1,2.2,21.3,3c2.6,0.3,4.9,1.9,6.3,4.7c-2.6-0.2-5-0.4-7.5-0.6
		c0.2,1.8,1.5,1.9,2.3,2.2c5.3,2,8.7,5.3,11.9,10.4c3,4.8,6.1,9.2,6.8,14.8c0.2,1.7,0.3,3.5,0.1,5.3c-0.2,1.6-0.6,3.5-2.5,3.9
		c-2,0.5-2.6-1.4-3.6-2.6c-1.6,1.4-3.1,2.8-5.4,4.8c1.8,0,2.9,0,4,0c20.9,0,41.7,0,62.6,0c1.5,0,3.3-0.5,3.4,2
		c0.1,2.7-2,1.9-3.4,1.9c-53.2,0.1-106.5,0.1-159.7,0.2c-1,0-1.9,0.1-3.3,0.2c0.9,9.4-2.2,17.4-8,24.6c-2.5,3-5.2,5.6-8.9,7
		c-1.6,0.6-3.2,0.9-3.1-1.7c1.1-0.4,2.2-0.8,3.2-1.4c8.5-5.3,12.6-13.2,13.2-23c0.3-5.8,0.4-11.5-2.2-16.9
		c-0.5-4.5-0.9-9.1-1.5-14.3c1.1,1.3,1.8,2,2.6,3c0-2.7,0-5.1,0-8.1c0.6,1.8,1,3,1.6,4.7c0.3-7.1-4.3-11.8-6.6-17.4
		c4,5.4,12.8,6.6,13.1,15.1c0.6-5.5-2-10.3-3.2-16.8c1.6,3.3,2.6,5.2,3.6,7.1c0.2-0.1,0.4-0.2,0.5-0.2c-1.1-2.6-2.1-5.2-3.2-7.8
		c0.2-0.1,0.3-0.2,0.5-0.3c0.7,1,1.4,2,2.1,2.9c-4.2-6.4-4.4-14.9-10.4-20.3c-0.4-0.4-0.6-1-0.7-1.5c-1.9-5.4-3.7-10.9-5.7-16.3
		c-0.8-2-2-3.9-5.4-4.2c2.9,4.3,4,8.6,5.3,13c-1.3-2.1-2.7-4.3-4-6.4c2,6.1,3.1,12.2,2.8,19.3c-4.4-4.5-8-9.2-14.2-11
		c1.4,4.8,5.3,7.2,7.7,10.6c4.1,6,5.5,8.6,5.6,11.5c-7.4-11.2-8.9-12.6-15.5-13.9c1.1,1,1.8,1.7,2.5,2.2c7.3,5.7,11.8,13.1,14,21.9
		c0.9,3.6,1.8,7.3,0.1,10.9c-0.1-8.7-4.6-15.5-9.8-22c3.3,7.3,6.5,14.6,9.8,21.9c0.2,1,0.3,2.1,0.5,3.1c-0.3-0.4-0.7-0.7-0.9-1.2
		c-7.2-19.3-22.3-29.2-41.4-34.2c-0.9-0.2-2.2-0.2-2.7-1.9c4.5-0.1,8.6,1.6,12.9,1.8c-3-0.9-6.1-1.9-10.7-3.3
		c9.4,0.7,16.2,4.2,23,7.4c-12.1-9.8-25.7-14.7-41.5-13.2c7.3-2,14.7-1,22-0.1c-10.3-5.8-21.4-5-32.6-4.4c6.4-3.2,13.2-3.3,20-3.3
		c6.9,0,13.5,2.3,20.8,3.8c-4.5-4.5-9.6-5.6-15.1-5.5c-5.2,0.1-10.4,0-15.5,0c6.8-1.9,13.6-1.3,21.7-1.1c-19.6-8.7-42.4-9-57,16.1
		c2.8-0.2,3.5,1.2,2.7,3.7c0.8-0.2,1.2-0.3,1.7-0.4c0.2,0.3,0.4,0.6,0.6,0.8c-1.1,1.1-2.2,2.1-3.1,2.9c2.1-1,4.4-2.9,7.7-2.1
		c-1,0.9-1.9,1.6-3.7,3.2c3.1-1.1,4.9-1.7,6.6-2.4c0.1,0.2,0.2,0.5,0.3,0.7c-1.4,1.1-2.9,2.1-5,3.7c2.2-0.3,3.6-0.4,5.5-0.7
		c-1.4,1.2-2.2,1.9-3.7,3.2c4.6-1.5,8.1-3.2,12-3.2c4.4,0,8.8,0.8,13.2-0.3l-0.1-0.1c0.2,2.9-2,1.4-3,1.4c-3,0-6-0.6-7.6,3l0,0
		c-5.4,0.4-8.8,4.3-12.9,7c1.7,1.9,3.2,1.6,5.2,0.8c3-1.2,6.4-2.6,9.5-2.3c8.4,0.9,16.7,2.1,24.4,6c8.6,4.4,15.3,10.5,20.6,20.4
		c-2.7-2.2-4.2-3.5-5.7-4.7c2.5,4.7,5.6,8.9,7.2,13.9c-5.5-7.9-11-15.6-18.9-21.7c-8.2-6.3-22.8-11.5-26-8.5
		c36.8,15.5,49,44.4,46.1,82.2c3.1-7.6,1.1-17.5,7.5-26.1c-0.3,4-0.5,6.6-0.8,9.6c3.7-7.7-2-16.2,3.7-23.8c0.7,2.2,1.2,3.9,1.9,5.8
		c0.5-6.3-2.8-11.8-2.3-17.8c-0.2-2.6-1.9-5-1-8.1c0.7,0.6,1.4,1.2,2.5,0.1c-2.8-5.2-5.6-10.5-8.5-16c9.5,7.6,14.9,17.5,17.8,28.9
		c0-0.7-0.1-1.4-0.1-3.1c1,2.3,1.5,3.6,2.1,4.9c1.8-4.9-0.4-9.3-1-13.9c1,2.6,1.9,5.2,3.5,9.4c-0.8-6.6-1.4-11.3-1.9-16.1
		c2.4,1.6,2.6,4.4,4,6.6c1.2,2,1,4.8,3.7,5.8c-0.1,5.5,1.1,10.8,2.1,16.2c-1.6-0.4-1.9,0.5-2.2,1.9c-0.9,4.5-2.5,8.7-5.5,13.6
		c0-2.6,0-4,0-6.1c-2.7,5.7-4.8,10.9-8.7,15c-2-1.8-0.9-4.1-0.8-6.1c0.2-5.3,0.5-10.5-0.9-15.8c0.3,16.8-6.2,30.4-18.6,41.3
		c-1.1,1-2.4,2.1-4.5,1.6c9-8.6,4.5-18.9,4.6-24.1c1.5,8.5-6,17.5-14,26.3c-3.6,3.9-9,4.9-12.9,8.5c-0.6,0.5-1.7,0.9-2.4,0
		c-0.8-0.9,0.1-1.6,0.5-2.3c1.5-3,2.9-6,4.3-9c2.4-4.9-0.4-8.2-4.6-7.6c-4.5,0.6-8.4-1.4-14.1-0.6c2.1,1.1,3.3,1.7,5.7,2.9
		c-7,0.8-11.6-1.3-16.7-1.8c0.5,0.6,0.9,1.1,1.2,1.5c-0.7,0.9-1.4,0.4-2.1,0.2c-1.8-0.5-3.9-2.5-5.4-0.7c-1.5,1.6,0.1,3.9,0.7,5.8
		c0.6,1.9,1.6,3.7,2.8,6.2c-3.6-2.3-6.2-1.5-9.4-0.2c-3.3,1.3-6.6-1.1-8.3-4.5c-0.6-1.1-1.2-2.2-2.2-3.9c0.1,2,0.2,3.3,0.3,4.7
		c-0.2,0.1-0.4,0.1-0.6,0.2c-0.7-2.1-1.3-4.2-2.4-7.5c-0.6,4.5-1,7.8-1.5,11.1c-0.2,0-0.5,0-0.7,0c0-2.2,0-4.5,0-7.6
		c-2,2.8-3.5,4.8-5,6.8c-0.2-0.1-0.4-0.3-0.6-0.4c1.1-1.8,2.2-3.6,3.3-5.4c-5,3.8-11.2,5.9-14.5,11.7c-0.9-2.5,1.3-4.2,1.7-6.8
		c-2.1,1.3-3.9,2.4-5.9,3.7c-0.1-4.3,1.6-7.2,6.2-10.2c-6.1,2.2-12.1,1.2-13.6,7.8c-2-0.7,1.2-3.8-2.1-3.3c2.6-3.1,5-6.1,8.6-10.5
		c-3.7,1.7-5.8,2.7-8,3.6c-1,0.4-2.3,1.6-3.1,0c-0.6-1.2,0.9-1.8,1.7-2.4c0.9-0.7,1.9-1.3,2.8-2.1c-4.2,1.7-8.2-2.1-12.7,0.7
		c0.6-2.9,2.6-3.2,3.8-4.7c-2.6,0-4.2,2.9-7.1,1.7c1.1-1,2-1.8,3.1-2.9c-6.3-0.7-12.5-3.5-18.4,3.8c0.4-2.7,0.5-3.5,0.7-4.9
		c-1.8,1.5-3.4,2.1-5.4,1.8c-0.7-4,1.2-7.7,1.7-12.1c-7.3,9.3-7.7,18.5-1.7,28.3c-4-2-5.7-5.4-6.6-9.2c-0.9-3.8-1.6-7.7-2-11.6
		c-0.4-4,2.2-7.5,2.8-11.4c-6.4,5.1-7.4,16.6-2.5,28.4c-4.2,0.7-7.2-3.3-9.7-12.6c-0.6,0.8-1,1.4-1.5,2c-3.3-2.9-3.1-7.3,1.4-23.7
		c-1.5,1.1-2.9,4.3-4.5,10.9c-1,4-1.9,8-2.8,12c-9.7-0.7-17.4-9.8-18.8-22.1c-1.2-11,3.1-20.3,8.9-29.3
		c-11.4,7.2-15.3,19.4-20.8,32.2c0.3-6.1,1.6-10.4,3.4-14.6c1.8-4.1,4-8,6.5-12.8c-5.4,5.6-8.1,11.9-12,17.6
		c2.9-7.8,4.4-16,5.7-24.1c-7,8.9-8.1,19.3-6.8,30.3c-2.7-2-3.8-5-3.8-11.2c0-2.9-1-3.6-3.8-3.6c-47.3,0-94.6-0.1-142-0.2
		c-1.5,0-3.6,0.4-3.7-1.8c-0.1-2.5,2.2-2,3.8-2c14.5,0,28.9-0.1,43.4,0c2.4,0,3.3-0.5,3.2-3.1c-0.1-6.5,2.5-11.8,8.1-15.1
		c1.7-1,0.2-4.2,3.3-3.8c0.1,0.8,0.2,1.7,0.4,2.8c1.4-0.1,1.9-2.1,3.7-1.2c0,3.3-1.5,6-3.8,8.4c-4.6,5-4.4,6,1.9,7.8
		c0.5,0.1,0.8,0.7,1.4,1.2c1.2-3.5,2.9-6.2,6.9-7.8c3.5-1.3,2.8-6.2,4.8-9c0.8-1.2,1.5-2.5,2.2-3.7l0-0.1c-0.7,2.2,1.3,4.3,0.1,6.6
		c2.1-2.1,2.7-5.5,6.9-5.9c-2.5,3.1-2.4,6.3-2,9.6c0.8-0.7,1.7-1.5,3.3-2.9c-0.4,1.6-0.6,2.2-1.1,3.8c2.8-3.1,6.5-3.6,8.4-6.7
		c2-3.3,4.9-4.3,8.2-1.7c3,2.4,2.1,8.1-1.7,12.1c-1.5,1.5-3.1,2.9-2.9,5.2c4.1-0.5,4.8-6,9.4-5.9c-0.2,1.1-1,2.7,0.6,2.7
		c3.2-0.1,2.4-3.4,4.7-6.1c-1.7,1-2.2,1.3-3.1,1.8c-0.2-5.4,2.1-9.5,4.7-13.9c-1.1,0.9-2.3,1.7-3.7,2.9c1.9-4.5,7.5-7,12.4-5.7
		c-1.6,3.7-6.2,4.3-8.4,8.2c3.1-1.9,5.2-4.5,8.5-4.4c-2.7,5.6-0.7,11.1,0.3,16.5c0.3,1.8,3.8,1.2,5-0.5c3.4,0.2,5.2-1,5.9-4.7
		c0.4,1.4,0.6,2,1,3.1c0.5-3.4,0.9-6.3,1.6-10.7c0.6,2.4,0.8,3.3,1.3,5.3c0.9-7.6,7.3-9.7,10-14.6c0.3-0.1,0.5-0.2,0.8-0.4
		c2-1.5,4-3,6-4.5c-3.6,7.6-10.6,13.2-11.6,23.1c3.8-7.4,6.6-14.4,13.8-18.1c-2.7,4.2-6.4,7.7-8.1,13.3c5.4-2.2,6.7-7.9,11.6-10.3
		c-0.2,6.8-8.6,9.8-7.6,18c4-5.4,8.5-8.6,11-13.9c10.3-21.4,26.8-36.2,50-42c13-3.3,26.2-2,38.2,5c0.7,0.4,1.5,0.8,3,1.6
		c-1.8-2.9-4.8-3.5-5.5-6.1c4.6,1.8,7.2,6.2,11.7,9.2c-0.7-1.6-1.1-2.5-1.5-3.6c3.8,1,6.9,2.7,9.2,5.6c1-1.9-3.1-3.1,0.1-4.9
		c-1.8-3.5-3.7-7-5.5-10.5c0.1-0.1,0.3-0.2,0.4-0.3c3.8,4.1,7.5,8.3,12.2,13.4c-1.2-5.6-0.5-10.1-0.9-14.1
		c-0.7-6.6-3.8-13.3-8.5-18.5c-6.5-7.2-13.9-12.3-24.4-9.1c-3.2,1-3.2,5.7-7.3,5.5c7.1,1.9,14.3,2.8,20.7,6.5
		c6.7,3.8,13.1,11.4,13.3,16.1c-4.8-6-9.4-11.7-16.3-15c-6.3-3.1-14.8-4.8-21.3-4.3c0.7,1,2.6,0.4,3.1,2.2c-1.6,0.2-3.2,0.3-5.5,0.5
		c2.9,0.7,4.9,1.2,7,1.8c-4.6,0.4-9.2-0.1-13.7,0.7c-4.4,0.8-8.9,1.4-13.3,2.5c-4.5,1.1-8.9,2.5-13.2,4.2c-4.2,1.6-8.1,3.8-12.2,5.7
		c9.5-2.6,18.9-4.3,28.6-5.4c10.7-1.3,20.1,3.1,30.1,4.9l-0.1-0.1c2.7,1.8,5.5,3.7,8.2,5.5c-0.6,0.4-1.1,0.8-1.6,1.2
		c-2.3-3.9-6.5-4.9-10.3-6.3c-13.5-5-26.9-2.3-40.3,0.8c-10.3,2.4-21.2,2.9-29.6,10.5c-3.1,2.8-6.1,5.8-9.7,9.3
		c4-8.9,10.9-14,17.7-19.3c6.8-5.2,14.9-8.4,23.6-13.1c-8.6,1.4-15,4.9-21.9,8.4c3.4-5.1,8.2-8.3,11.5-12.9
		c-6.3,1.4-10.5,6.1-16.5,10.4c5.3-9,14.2-11.1,21.3-16.2c-3.4-0.8-5.6,1.7-9,2.2c1.4-1.1,2.2-1.7,3.4-2.5
		c-7.4-1.7-11.7,3.1-16.6,6.7c1-4.9,5.1-8.2,18.6-15.4c-5-2.6-7.2-1.7-10.3,3.9c-1.4,0-1.1-1.7-2.4-2.5c-2.3,1.9-4.6,3.8-7,5.8
		c3.8-4.8,9.4-8.7,7.3-16.6c-3.2,4.9-6.3,9.7-9.4,14.5c-0.5,0.7-0.8,1.7-1.9,1.5c-1-0.2-1.2-1.2-1.3-2.1
		c-1.2-10.2,8.9-27.1,19.1-31.3c-2.5,3.4-4.8,6.4-7,9.4c0.2,0.1,0.3,0.3,0.5,0.4c0.7-0.6,1.4-1.1,2.4-1.9c0.1,0.8,0.2,1.4,0.3,2.3
		c4.4-4.6,8.6-8.9,15.3-11.4c-3.7,4.2-8.7,5.5-11,9.8c-2.2,4.2-3.9,8.5-4.8,14.8c1.1-2.3,1.5-3.1,1.5-3c5.3-0.5,5.4-5.9,8.5-7.9
		c-1.4,0.5-2.8,0.9-5.3,1.7c4.9-6.7,11.4-9,19-12.6c-2.6,0.5-3.5,0.7-5,1c1.5-0.9,2.5-1.5,3.4-2c-0.1-0.2-0.1-0.4-0.2-0.5
		c-1.5,0.3-2.9,0.7-4.8,1.1c3.4-2.5,8.7-3.2,22.8-3.1c-1.6-1.8-3.5-2.2-5.5-2.4c-2.1-0.3-4.3-0.3-6.5-0.2c-2,0-4,0.2-7.1,0.3
		c4.4-3,8.2-3.2,12.8-2.9c-4.5-2.8-8.5-1.1-13.7-0.4c1.9-1.2,2.7-1.7,3.9-2.4c-0.9-0.1-1.6-0.3-3.6-0.6c7.6-1.7,13.7-1.5,19.7,1.6
		c-4.1-6.7-11.6-7.6-17.9-10.5c5.9-0.3,10.8,2.2,15.5,5.5c4.7,3.2,8.6,7.2,12.7,11.3c-0.6-1.9-1.2-3.8-2.1-6.6
		c2.4,1.4,4.1,2.4,6.1,3.6c-0.3-4.8-4.2-7.5-6.3-11.4c2.7,0.3,3.5,2.9,6.4,4.1c-2.6-7.6-8.3-11.8-14.3-17.6
		c9.4,2.8,14.3,11.1,23.7,12.5c1.7,4.3,1.4,9.9,2.5,15.9c2.2-20.2-4.2-39-27.7-37.8c-4.2,0.2-8.4,0-12.7-0.1c-1.1,0-2.4,0-3.2-2.3
		c11.9-0.7,23.6-2.8,34,3.8c11,6.9,12.7,18.6,12.8,30.6c2-3.4,0.8-6.8,0.6-11.2c1.3,2.6,1.8,4.4,3.7,4.9c3.5-7.3-2.6-20.2-14.2-29.8
		c6.6-0.2,13.7,7.2,15.4,16.1c2.1,10.9,0.9,21.8-0.3,32.9c1.7-2.1,2.3-4.5,2.9-6.8c0.4-1.7,1.5-2.3,3.3-2.1c2.2,0.2,1.4,1.7,1.4,2.8
		c0,5.9-4,9.6-7.5,13.5c-0.9,0.9-1.8,1.8-3.8,3.6c2.8-1.4,4.4-2.2,6.2-3.1c0.1,2.1-1.5,2.4-2.2,3.7c1,0,1.8,0,3.1,0
		c-2.3,4.1-6.4,5.1-9.7,7.1c-1.2,0.7-3.3,0.9-2.9,2.8c0.3,1.7,2.3,1.2,3.6,1.3c14.7,2,27.3,16.2,28.1,32.2c0.3,6.2,0,12.5,3.6,19.2
		c6.4-20.7,17.5-35.9,42.3-35.1c-3.8-3.6-6.7-6.1-11.1-3.8c-2.7,1.4-4.1-1-5.3-2.4c-0.7-0.8-0.4-3.3,1.5-4.3
		c0.8-0.4,1.5-1.2,1.1-2.2c-0.3-0.9-1.2-0.9-2-0.7c-1.1,0.2-2.3,0.6-2.7-0.9c-0.4-1.5,0.5-2.6,1.8-3c3.2-1,3.3-2.9,2-5.4
		c-2.9-5.6-1.9-11.9-2.8-18.7c-3.8,3.7-6.3,7.3-7.9,11.5c0,0,0,0,0,0c-0.6,0.6-1.3,1.1-2.2,2c0.2-1.4,0.3-2.5,0.4-3.5
		c-0.2-0.2-0.5-0.4-0.7-0.5c-0.8,1.4-1.5,2.9-3,5.6c-0.6-2.8-0.8-3.4-0.9-4.1c-0.8,1-1.5,1.8-3,3.6c-1.4-11.2,5-17.7,10.7-25.7
		c-5.3,4-7.9,8.7-11,13.3c-0.7-0.8-1.1-1.4-1.8-2.3c-0.1,1.5-0.1,2.6-0.2,3.6c-0.2,0-0.4,0.1-0.6,0.1c-1.2-4.5-2.4-8.9-3.5-13.2
		c-1.8,12,2.7,23.8,2.5,37.3c-1.1-2-1.5-2.7-2.3-4.1c-0.3,1.9-0.4,3.1-0.6,4.5C294.3,451.1,293,439.4,284.1,430.9L284.1,430.9z
		 M464.7,554.7c1,0,2-0.3,2.9-0.1c4.6,1,5.2-1.5,5-5.3c-0.5-6.6,0.1-13.5-6.2-18.1c-0.1-0.1,0-0.4,0-0.6c1.4-0.1,2,1.9,3.9,1.2
		c-1.3-2.1-2.5-4.1-3.7-6.1c2.6,2.9,6.3,5,8,8.1c2.4,4.5,3.5,9.8,4.5,14.9c0.7,3.7,2.1,4.2,5.6,3c-3.2-5.4-3.4-11-1.4-16.8
		c0.2-0.4-0.2-1.1-0.5-1.6c-2.8-4.7-5.9-9.2-10.6-12.1c-4.2-2.6-8.7-5-13.9-2.9c-4.1,1.6-7.8,1.6-12-0.1
		c-8.9-3.6-16.3,0.9-17.6,10.3c-0.2,1.2-0.5,2.4-1.1,4.7c-0.9-2.6-1.4-4-1.9-5.4c-0.3,9.2-6.5,18.4,0.4,26.9c3.6,0.5,1.8-2,2-3.4
		c0.8,0.6,1.4,1,2,1.5c0.7-3.8-3.1-6.8-1.2-11.3c1.3,4.9,2.5,9,7.7,9.9c-2.8-6.9,3.8-10.9,4.7-17.6c1.4,1.7,2.1,2.5,3,3.7
		c-0.1-2.6,1.1-2.2,2.6-1.6c2.7,1.2,3.7,3.7,4.5,6.3c1.4,4.4,2.7,8.8,4.4,14.5c0.2-2.1,0.2-2.9,0.4-5.2
		C458.5,557.6,461.8,555.2,464.7,554.7L464.7,554.7z M174.7,558.4c7.6-8.3,14.8-16.3,23.8-22.4c10-6.8,25.6-11.2,31.2-8.2
		c-10.8,1.7-20.6,4.2-29.4,12c3.4-1.5,5.8-2.5,7.9-3.5c-1,4.7-4.8,6.6-8.2,9.1c-10,7.3-14.2,18-10.9,26.9c0.8-0.4,0.5-2,2.1-1.9
		c-0.8,3.3,1.5,6,1.5,9.3c1-4.2,1.1-8.5,4.2-13.2c-1,7.2-3.2,13.2-1.8,19.5c0.4-8,2.6-15.5,6.9-23.9c-0.4,3.7-2.4,5.7-1.3,8.7
		c3.3-8.6,6.8-16,15.9-19.8c8.1-3.4,15.8-8.2,22.2-14.7c0.5-0.5,1.1-0.9,2.9-2.3c-13.9,3.8-24.8,10.1-35.4,17.8
		c9.7-12.7,23.3-18.3,39.6-21.6c-4.5-1.9-7,1.2-10.3-0.2c3.6-3.2,8.1-3.2,12.5-5.5c-4.8,0-8.3,1.5-12,2.1c4.3-1.9,8.5-3.7,12.8-5.6
		c-1.5-0.9-2.7-0.7-3.9-0.9c-5.8-1-11,3.2-16.4,2.4c-5-0.8-9.1,0.7-13.5,2c-1.9,0.6-1.5-0.8-2.4-1.6c8-3.1,15.5-6.1,23.8-6.7
		c-2.5,0-5.1,0-7.6,0c0-0.2,0-0.4-0.1-0.6c1.9-0.5,3.7-1,5.8-1.5c-2.2-2.6-0.2-2.9,1.5-3.4c9.4-2.4,18.3,0,27.4,3.6
		c-3.8-4.1-8.4-6-14.6-7.4c3.8-1,6,0,8.2,0.6c2.1,0.7,4.2,1.6,7,2.7c-2.4-2.8-4.9-3.8-7-5.7c3.4,0.8,6.8,1.7,10,2.5
		c-5.3-7.3-7-9-15.3-10.6c-6.4-1.2-13.2-0.6-19.6,0.7c-29.4,6.2-47,25.4-56.7,52.8C174.7,552.4,174,555.1,174.7,558.4z M201.8,322.3
		c-4.9-7.7-11.8-14.4-7.3-24.6c2.9,0.9,3.9,4.3,8.8,4.8c-8.6-13-19.3-22.6-28.2-35.1c0,1.9,0,2.4,0,2.9c1.6,21.5,2.3,43-3.7,64.1
		c-3,10.5-3.3,21.2-0.9,31.8c1.3,5.6,2,12.1,9.9,14.1c-2.1-3.7-6-5.7-7.2-9.8c3.6,2.7,6.9,5.3,10.2,7.9c2.9,2.2,5.4,2.8,6-2
		c1.5,0.3,2.8,0.5,4.4,0.8c-0.4-1.8-0.6-3.2-1-5c-2.5,1.5-3.1,0-3.1-1.8c0-2.7-5-5.6,0.5-8.3c1-0.5,1.5-2.5,2.9-1
		c4.3,4.8,6.6,0.1,10.3-1.8c-7.2-2.9-12-7.6-15.7-13.5c-2-3.2-3.3-6.9-4-10.6c-0.5-2.6-1.7-5.6-0.9-8.6c4.8,2.7,3.9,9.9,10.1,11.9
		c-1.3-4-4.6-8.1,1.1-11.7c2.1,7.8,5.5,14.8,13.2,18.7c-0.5-2.2-0.9-4-1.4-6.4c3.7,0.3,6.9,0.6,10.1,0.8
		c-5.8-3.2-12.9-3.7-16.3-10.8c4.2,1.7,8.5,3.4,13.7,5.5c-5-5.2-12.1-6.2-16-12.9C199.7,321.9,200.5,322,201.8,322.3z M337.5,558.8
		c7.4,14,20.7,24,18.2,41c3.8-9.6,3.5-18.9-0.3-28.2c3.8,5.5,8.6,10.3,8.4,17.4c0.8-14.9-5.1-26.8-16.2-36.5
		c-3.8-3.3-7.7-6.5-14.1-7c1.8,2.2,2.7,3.4,4.2,5.2c-1.7-0.3-2.6-0.5-3.5-0.7c6.1,4.7,11.8,9.5,14.8,17
		C344.5,565.5,342.5,561.4,337.5,558.8z M270.2,532.8c3.6-2.3,6.6-1.9,9-0.4c5.2,3.3,10.7,2.5,16.3,2.4c4.6,0,9.3-0.1,13.9,0.1
		c1.5,0.1,3.8-0.5,4.5,1.7c0.6,2,1.8,2.1,3.4,2.3c-1.3-8.5-5.2-11.5-12.9-10.3c-2.2,0.3-4.5,0.4-6.7,0.6c-6.8,0.6-13.4-1.6-20.1-1.6
		C274.3,527.6,271.9,528.7,270.2,532.8z M345.4,541.1c-11.5-1.5-11.5-1.5-12.1,0.3c8.1,0.7,14.8,4.7,21.6,8.8
		c0.8,0.5,1.7,1.5,2.6,0.6c0.9-0.9,0.5-2.2-0.1-3c-8-11.2-19-17.4-33.8-19.8C330.7,533.4,337.5,536.9,345.4,541.1z M484.6,527.3
		c2.5,0.1,3.7,1.8,4.8,3.8c3.2,5.9,3.7,12.3,4.5,18.8c0.3,2.2,1.1,3,3.2,1.2c3.9-3.4,0.7-7.1-0.9-8.6c-4.7-4.1-3.8-9.7-5.1-14.7
		c1.2,2,2.4,4.1,3.6,6.2c1.4-1.7-1.2-4.5,2.4-5.1c-4.8-4.2-9.2-8.4-15.6-9.5c0.9,2.4-0.2,3.3-2.7,3.6c3.1,2.6,2,7.2,5.3,9.4
		C486,530.7,483.4,529.1,484.6,527.3z M484.3,516.4c5.2,1.6,9.2,5.1,12.2,9.3c2.5,3.4,6.1,6.5,6.3,10.9c0.2,2.8,1,4.4,4,5.4
		c-0.5-1.9,0.6-2.7,2.1-3.2c-0.6-2.7-4.3-6.5,2.8-6.5C502.5,527.3,495.3,518.8,484.3,516.4z M421.1,516.9
		c1.3-11.3-6.7-18.6-11.3-27.8c-0.7,1-1,1.5-1.3,2c-0.7-1.6,0.6-3.4-0.7-4.9c-2,3.8-1.6,12.6,0.9,14
		C415.3,504,418.3,510.3,421.1,516.9z M374.3,484.9c8.3,3.4,15,7.9,21.8,12.4c-1.6-11.5-6.8-17.7-15.5-18.8c4.8,3.6,8,8.3,10.9,14.7
		C385.9,489.2,382.1,484.3,374.3,484.9z M210.8,574.2c0.5,0.5,1,1.1,1.6,1.6c0.5-0.9,0.7-1.9,1.4-2.6c6.6-6.9,14.6-11.6,23.4-15
		c1.1-0.4,2.7-1.3,2.3,1.6c2.1-1.9,3.5-3.9,4.4-6.7c-6.5,0.7-12.2,2.5-18.1,7.1c1.8-0.5,2.4-0.6,3.8-1
		C222.8,564.6,216.2,568.8,210.8,574.2z M354.7,475.9c2.1,0.2,3.5-0.9,4.7-2.7c2.6-4.2,2.4-8.6,1.2-13.1c-0.8-2.9-2.1-5.2-5.5-5.2
		c-2.1,0-3.9,1.2-4,3.6c0,3.5,2.8,5.5,5.4,5.7c7.4,0.5,3.2,4.4,2.1,7C357.9,473,356.1,474.3,354.7,475.9z M240.4,447.3
		c-2.2,1.8-4.1,3.7-2.5,6.6c1.2,2.1,3.2,2,5.2,1.3c2.4-0.9,3.1-2.9,2.6-5.3c-1.1-5.2-5.4-7.5-10.4-5.5c-0.7,0.3-1.7,0.3-1.4,1.5
		c0.3,1.2,1.2,0.6,1.9,0.4C237.6,445.7,239.1,445.4,240.4,447.3z M210.4,372c10.1-1.8,18.8-0.3,28.2,2.7
		C233.8,367.5,218.6,366,210.4,372z M312.8,386.4c-8.5,6.5-9.3,17-10.8,27.1C304.4,403.7,311,395.5,312.8,386.4z M191.2,593.1
		c-4.6-9.7-3.9-18.9-4.8-28.5C182.2,572.6,184.4,586,191.2,593.1z M365.2,471.9c2.5-2.4,6.8-3.5,5.7-8.3c-1.1-4.6-5-9.5-8.2-10
		C366.5,459.3,368.9,465.1,365.2,471.9z M222.8,461.4c-0.1-5.9-0.8-11.7,3.9-16.7C217.8,447.5,216.3,454.7,222.8,461.4z M111,545.8
		c-4.2,4.1-6.6,8.1-6.8,13.2c0,1.1,0.5,2.1,1.9,2.3c1.3,0.1,1.8-0.8,2-1.8C109.1,555.2,109.9,551,111,545.8z M311.9,419.1
		c5-3.3,6.7-7.9,6.9-13.2C314.9,406.7,312.3,411.6,311.9,419.1z M484.6,542.2c2.8,5.6,3.1,10.7,3.4,15.7c0,0.7,0.2,1.6,1.1,1.4
		c0.5-0.1,1.2-0.7,1.4-1.2C492.4,554.1,489.7,545.4,484.6,542.2z M517.8,556c3.2-4.7,0.6-16.4-4.7-19.6
		C516.5,542.9,516.5,549.4,517.8,556z M270.4,418.7c-5,5.8-3.3,11.5-4.1,16.6C269.5,430.7,269,425.2,270.4,418.7z M211.2,587.9
		c5.3-7.9,9.9-14.2,16.6-19.9C221.4,570.9,214,579.6,211.2,587.9z M74.1,543.9c-6.1,3.7-9,11.7-6.4,16.4
		C69.8,555,69.7,549.3,74.1,543.9z M243.4,565.4c-6.3,1.8-10,6.6-13.3,11.8C234,572.8,239.1,569.6,243.4,565.4z M134.4,548.4
		c-4.6,1.8-7.1,8.7-4.5,13C131.5,557,132.8,553,134.4,548.4z M338.3,566.5c-2.1-3.1-4-5.7-6.1-8.9
		C331.4,562.8,332,566.3,338.3,566.5z M303,392.7c-2.5,2.4-5.3,16.1-3.9,18.6C300,404.7,301.6,398.7,303,392.7z M369.2,582.8
		c0.3-6.8-1.6-11-5.6-15.9C365.6,572.5,367.1,576.9,369.2,582.8z M336.8,577.7c-1.6-3.6-2.4-7.8-6.7-11.1
		C330.5,572.1,334.6,574.3,336.8,577.7z M211.7,450.8c-3.7-3.4-9.7-1.4-11,2.9C204.3,452.9,207.2,450.1,211.7,450.8z M198.7,311.4
		c3,5.4,6.3,8.8,11.3,12.4C206.5,318.9,203.3,315.4,198.7,311.4z M474.9,547.2c0,4.2,0,8.4,0,14.1
		C478.9,555.6,476.4,551.4,474.9,547.2z M236.4,583.2c3.2-2.7,7-4.7,9.6-9.4C241.1,576.1,238.7,579.6,236.4,583.2z M200.6,593.7
		c0.2-6.6,1.9-12.9,3.3-19.3C200.7,580.5,200.3,587,200.6,593.7z M267.2,612c4.3-1,7-2.6,7.9-7.5C271.8,606.8,269.4,608.7,267.2,612
		z M227.1,459.9c-0.4,5.4,3,8.2,8.4,6.7C231.5,465.4,229.1,463.2,227.1,459.9z"/>
	<path d="M369.8,362.9c5.1-2.3,9.7-2.4,14.2-3.6c-3.7,0-7.4-0.4-11.1,0.1c-3.7,0.5-7.3,1.7-10.8,2.8c-3.6,1.2-7,2.8-12,4.8
		c4.1-3.7,7.7-4.7,11.7-6.5c-9.4-5-18.1-9.6-29-8.7c-11,0.9-18.4,8.2-27.4,13.5c2.9-5.9,21.9-16.3,32.2-17.5c-2.9,0.8-5.1,1.4-7.2,2
		c6.3-0.7,12.4,0.3,18.9,1c-0.7-1.4-1.2-2.5-1.8-3.6c0.2-0.1,0.4-0.3,0.5-0.4c1.1,1.4,2.1,2.7,4,5.1c0-4.2,0-7.4,0-10.6
		c0.3,0,0.5,0,0.8-0.1c0.4,1,0.8,2.1,1.4,3.5c1.6-4.2-0.1-8-0.3-12.5c2.5,4.7,2.2,9.5,3.8,15.2c1.2-5.3,2-9.3,2.9-13.2
		c0.1,0,0.3,0,0.4,0c-0.2,2.1-0.5,4.3-0.7,6.4c0.2,0,0.4,0.1,0.6,0.1c0.3-1.1,0.6-2.2,1-3.6c0.4,1.8,0.7,3.2,1.1,5.2
		c1.6-5.3,1.2-10.3,1.6-15.5c2.1,1.5,1.5,3.8,2.6,5.5c0.3-0.8,0.5-1.3,1-2.8c0,3,0,5.1,0,7.7c2-4.5,2.9-8.7,3.4-13.9
		c1.8,3.3,1.3,5.9,0.2,9.1c0.9-0.7,1.2-1,2-1.6c-0.4,2.1-0.8,3.7-1.4,6.7c7.5-11.3,9.6-22.3,7.2-35.3c5.2,5.2,5.9,10.7,6.2,17.8
		c3.6-6.7,3.6-12.9,6.2-19.2c-0.2,1.9-0.3,2.9-0.4,4c0.2,0.1,0.3,0.1,0.5,0.2c1.2-3.2,2.3-6.5,3.5-9.7c0.2,0.1,0.4,0.1,0.6,0.2
		c-0.1,1.3-0.3,2.7-0.4,4c0.2,0.1,0.4,0.1,0.6,0.2c1.1-3.6,2.2-7.2,3.3-10.9c0.3,3.9-0.2,7.7-0.9,11.5c3.5-6.6,3.2-14.1,5.6-22.4
		c0,4.2,0,7,0,9.8c2.5-5.8,3.8-11.8,3.6-18.1c4.5,14.3-0.8,27.2-5.3,40.3c9.3-17.4,12.2-35.6,7.7-55.6c1.9,3.1,3.6,5.6,4.9,8.3
		c1.4,2.8,2.4,5.8,3.8,9.2c0.4-2.9,0.7-5.1,1.2-8.1c0.8,1.6,1.3,2.6,1.8,3.6c1.4-0.4,0.3-1.8,1.3-2.7c0.2,4.8-0.7,9.5,1.7,13.7
		c0.2-0.6,0.6-1.4,1.3-3.3c-0.3,2.7-0.5,4.3-0.7,5.9c0.2,0,0.5,0.1,0.7,0.1c1-4.5,2-9.1,2.9-13.2c0,8.7,0,17.8,0,26.8
		c0.4-1.3,0.8-2.7,1.7-5.5c0,7.1,0,12.8,0,18.4c0.3,0,0.5,0,0.8,0c0.3-6.7,0.7-13.4,1-20.1c0.2,0,0.4,0,0.7,0c0,3.6,0,7.1,0,10.7
		c0.2,0,0.4,0.1,0.5,0.1c0.6-2.3,1.3-4.5,2.1-7.7c1.4,10.1,1.4,19.3,0.2,29.8c1.9-4.1,1.8-7.3,2.5-10.3c1.9,6.2-1.3,12.1-1.1,18.2
		c1.7,0,0.9-1.7,2-2.2c-0.1,1-0.2,1.9-0.3,3.7c1.2-2.3,2.1-3.9,3.6-6.8c-1.1,5.7-1.9,9.9-2.8,14.2c4.1-9.4,6-19.2,6-29.4
		c1.3,6.6,1.1,13.2-0.5,19.9c0.7-0.4,1.1-0.6,2-1.1c-3.8,6.9-4.7,14-5.7,21.2c1-2.2,2.1-4.3,3.4-7c2.6,6.4-2.5,10.7-3,17.5
		c5.1-11.4,8-21.9,9.7-32.7c1.5,14.1-5.2,26.5-7.6,40c3-4.7,5.9-9.4,8.9-14.2c-2.4,8.7-7.2,16.3-10.9,24.3
		c6.8-7.7,11.5-16.5,14.5-26.2c-1.2,11.9-6.7,22.1-13.2,33.4c2-2.3,3.2-3.7,4.3-5c0.1,0.1,0.2,0.2,0.4,0.3c-0.4,0.8-0.8,1.7-1.7,3.4
		c7.1-4.7,11.9-10.2,16.2-16.3c-1,3.7-2.4,7.3-4.8,10.3c-2.5,3.1-5.2,6.2-8.1,9c-2.8,2.7-5.9,5-10.2,8.5
		c9.7-4.5,15.2-11.5,22.3-19.3c-3.5,8-8.5,12.8-14.2,19.2c3-1.2,4.4-1.8,5.8-2.4c0.1,0.2,0.2,0.4,0.4,0.6c-3.7,2.1-7.3,4.2-11,6.3
		c10.5-3.2,19.4-8.8,25.4-18.2c0.3,4.6-5.5,12.7-12.7,17.5c-6.3,4.2-14,4.9-20.8,8.1c7.7-1.7,15.3-4.5,23.5-2.8
		c-6.2,0.3-10.4,4.5-15.3,7.3c6.5-1.4,12.8-3.9,19.7-2.8c-9.9,2.5-18.7,7.3-28.3,11.7c8.9,4,14,10.7,16.9,19.4
		c-5.3-6.7-9.9-14.3-20.4-15.7c6.9,7.4,14.3,13.1,18.9,21.5c-7.2-6.6-13.7-14-22.6-18.7c6.3,8,10.9,16.9,14.9,26.5
		c-10.5-23.7-27.8-39.1-53.3-45c6.3-1.5,11.7,1,18.5,2.7c-4.2-3.4-8.4-2.8-13.2-5c7.7,0,14.1,0.8,20.3-1.5
		c-5.7-3.8-13.4-1.1-19.4-6.6c2.9-0.2,5-0.3,8.3-0.4c-2.7-0.9-4-1.3-5.3-1.9c-1.2-0.5-3.1-0.5-3.1-2.3c0-1.9,1.9-2.3,3.4-2.8
		c2.2-0.7,4.4-1.2,6.8-1.9c-3.4-4.9-8.9-7-23.2-9.4c0.7-2,3.1-1.3,4.2-2.7c-3.3-0.7-6.5,0.2-9.6,0.4c8.7-3.8,17.8-3.6,27-2
		c-9.4-2.8-18.7-6.4-28.8-0.7c2.1-3.8,11.1-6.4,19.4-6.2c-2-1.5-5.2-2.2-11.5-3C378.7,362.1,374.7,362.4,369.8,362.9z M410.4,319
		c-3.7,8.3-10.6,11.4-15.1,16.9c4.3-2.4,8.6-4.7,13.7-7.4c-1.5,4.6-6,5.5-8.2,9c3.2,0.7,4.7-2.4,7.6-2.4c-0.6,1.6-1.2,3.1-2,5.3
		c2.4-1.4,4.2-2.3,6.6-3.7c-2.5,4.7-6.5,6.4-9.9,9.1c1.1,0.3,1.8,0.4,2.9,0.7c-5.2,5.7-11.9,8.7-17.6,13c10.2-4.7,18.7-12,27.3-19
		c-5,9.2-12.4,15.8-21.1,21c3.1,3.5,6.8,1.8,10.7,1.8c-1.2,1.9-3,3.2-1.6,4.8c2.3,2.6,5,2.6,7.4-0.5c0.8,2.1-1.2,2.6-1.1,4
		c1.4,1.6,4.1,2.8,2.5,5.5c-1.6,2.9-3.6,0.4-5.4,0c-1.3-0.3-2.3-0.5-2.8,0.7c3.9,6.1,8.5,2.7,13.2,0.4c-0.1,5.1-3.4,8-5.5,12
		c4.5-1.9,6-6,9.8-8.9c-1.4,5-2.6,9.2-3.8,13.5c1,1,1.9-0.9,3.4-0.4c-1.8,2.9-4.1,4.9-7.8,5.2c2.6,1.5,2.6,1.5,11.3-3.1
		c-1.8,6-6.5,7.9-11.7,9.5c8.1,2.8,8.1,2.8,11.4-4.6c12.1-26.6,5.7-53.3,0.4-80.4c-0.7,1.6-0.1,3.1-1.5,4.2
		c-0.5-9.8-1.9-19.3-4.3-29.8c-3.2,11.3-8.9,20.1-14.6,29C406.1,323,407.6,321.6,410.4,319z"/>
	<path d="M93.6,536.6c0.4-3.5,0.9-7,2.5-10.3c-8.4-2.6-15.8-0.5-23,4.5c1-5.6,10.7-9.8,19.3-8.9c-1.5-1.9-5.6-3.4-13.8-5
		c6.5-1.4,12.2-2.9,19.1,1.3c-4-1.1-6.5-1.8-9-2.6c3.5,2.2,8,2.9,9.4,8c2-1.6,3.6-2.9,5.4-4.4c-1.1-0.3-2-0.5-3.4-0.9
		c1.6-0.8,2.7-1.4,4.2-2.1c-3.6-2.3-6.9-4.1-11.3-3.3c3.5-3.7,8.3-3.7,28.3-0.1c-4.4-4.6-9.1-8.4-15.4-10.1c6.3-1,15.9,3.2,22.5,9.8
		c2.3,2.3,4.5,4.6,7.8,5.7c4.8,1.5,9,1.5,12.5-2.8c1.9-2.3,4.4-4,7.9-5.3c-1.6,4.5-4.8,7.4-5.7,12c3.2-2.2,4.8-5.3,6.9-7.9l-0.1-0.1
		c2.2,2.3,2.9-0.6,3.5-1.4c6.3-7.6,13.3-14.7,15.5-24.9c0.4-1.6,1.3-3.1,2.2-4.6c-2.8,22.7-16.3,39.7-30.6,57.4
		c0.1-4.4,0.9-8.8-5-8.8c2.3-5.6-5.3-3.2-5.7-6.8c10.2-1,10.2-1,10.9-4.8c-6.9,2.6-13.3,0.1-19.9-1.6c0.1,2,2.4,2.2,3.2,4.2
		c-6.9-2.7-11.7-8.6-19.8-9.5c2.2,2.3,3.9,4.1,6.1,6.4C105.3,519.2,98.4,526.4,93.6,536.6C93.5,536.6,93.6,536.6,93.6,536.6z"/>
	<path d="M147.5,455.6c3.3-10.7,8.3-20.5,17.6-27.9c-6.5,0.7-6.5,0.7-15.6,11.4c-1.3-5.7,4.7-20.3,23.9-32.5
		c-1.9,0.4-3.3,0.7-5.9,1.2c7.9-6.6,16.4-7.7,24.9-8.6c-3.9,1.4-7.8,2.8-11.7,4.2c0,0.1,0.1,0.2,0.1,0.4c4.1-0.6,8.2-1.3,12.4-1.9
		c-13.6,6.7-28.8,10.7-38.3,23.9c7.6-8,17-13,28.9-17c-4.8,2.8-8.6,4.3-11.9,7.9c5.6-2,10.3-4.4,17.1-4.7
		c-6.8,3.9-13.4,4.8-18.6,8.8c6.4-2.6,13-3.5,20.9-3.4c-9.7,4.8-20.3,4.7-27.5,13.1C157.2,438.3,152.3,446.9,147.5,455.6z"/>
	<path d="M161.4,456.1c1.7-1.5,3.4-2.9,6.2-5.3c-4,9.6-6.9,18.1-12.8,26.9c6.4-3.5,9.9-8,14.8-10.9c-7.7,6.8-7.1,17.8-13.5,25.3
		c7.3-3.8,10.6-11.4,15.9-17.6c0.6,4.4-4,5.8-4.1,9.5c2.4,0.3,3.4-2.3,6.7-2.5c-10.8,10.5-25.3,16.3-29.5,30.5
		c3.5-1.7,6.8-5,9.4-9.5c3.7-1.3,5.3-3.6,7.1-5.5c2.1-2.1,4.1-4.4,7.1-7.8c-3.9,12.2-24.9,29.3-32.5,26.8c6.9-3.1,9.5-9.1,12.3-15
		c-1.3-1-2.7,0.7-4.1-1.2c8-3.6,11.7-10.8,15.5-19c-4.9,3.7-8.9,7.8-15.7,5.6c4.5-4.8,8.8-9,11.6-14.3c2.7-5.2,5.2-10.5,8.1-16.4
		C162.5,455.8,161.9,456,161.4,456.1L161.4,456.1z M147,486.3c6.3-1.8,10.4-3.9,12.9-9.4C154.9,479.1,151.2,481.8,147,486.3z"/>
	<path d="M161.3,456.1c-1.8,1.7-3.8,2.4-7.2,1.3c4.1-3.3,7.6-6.2,11.1-9c-7.9,3.3-14.4,8.4-20.7,16.3c0.8-2.2,0.9-3,1.3-3.6
		c6.6-9.7,12.4-20,20.1-28.8c6-6.9,15.8-8.9,24.4-12.3c-11.1,5.5-18.2,15.8-28.1,22.7c13-5.4,20.5-18.5,34-23.3
		c-14,10.9-23.5,26.4-38.4,37.5C159.4,456.5,160.4,456.3,161.3,456.1C161.4,456.1,161.3,456.1,161.3,456.1z"/>
	<path d="M184.1,438.7c-7.6,11.1-6.5,23.5-5,36c-3-5.3-4.2-10.6-3.9-17.2c-4,5.5-10.2,7.5-13.9,12.7c2.4-5.7,4.8-11.3,7.2-17
		c0.3,0.1,0.7,0.2,1,0.3c-0.5,2.2-1,4.5-1.5,6.9C177.9,456.3,176.5,444.3,184.1,438.7z"/>
	<path d="M76.6,532.8c-1.8,4.7-5.1,5-7.2,6.8c-4,3.5-6.2,8-7.1,13.2c-0.3,1.5-0.7,3.6-2.7,3.3c-1.7-0.2-1.5-2.3-1.5-3.7
		c-0.5-9.9,3.9-16,13.5-19.1C73.5,532.7,74.2,535.8,76.6,532.8z"/>
	<path d="M237.2,491.1c-21.7-0.3-41.7,4.8-58.8,19.7C183.1,498.3,216.5,487.1,237.2,491.1z"/>
	<path d="M291.7,474c-0.6-2.9-1.2-5.7-1.8-8.6c2.8,5.2,2.1,10.7,2.1,16.3c-4.5-14.1-13.9-22.1-30.1-24c7.5-0.8,13.2,0.3,18.5,3.3
		C285.7,464,289.5,468.3,291.7,474z"/>
	<path d="M234,404.2c-20.1-2.1-20.1-2.1-34.4,5c1.2-4.9,5.1-6.5,8.7-7.7C217,398.5,225.6,397.8,234,404.2z"/>
	<path d="M284.1,430.8c1.5,10.4,7.2,19.7,8.5,30.2c-3-8.6-7.1-16.6-12.6-24.4c3.9,1,3.5-0.6,2.5-2.8c-0.5-1.1-1.2-2.4-0.1-3.5
		C282.6,430.1,283.5,430.6,284.1,430.8C284.1,430.9,284.1,430.8,284.1,430.8z"/>
	<path d="M297.8,496c-3.1-6,1.4-16.9,9.1-22.1C303.5,481,300.1,488,297.8,496z"/>
	<path d="M163.6,530.1c-0.3,0.1-0.5,0.2-0.8,0.4c4.2-9.5,12.4-14.7,21.1-19.2C177.1,517.5,170.4,523.8,163.6,530.1z"/>
	<path d="M335,345.6c-7.9,2.8-14.6,5.2-21.3,7.5C319.1,346.8,326.1,345.2,335,345.6z"/>
	<path d="M365.9,428.5c5.3-1.5,9.6,0.5,13.1,3.8c3,2.7,6.1,5.7,6.1,10.5C381.3,434.5,374.8,430,365.9,428.5z"/>
	<path d="M400.5,473.4c-3.7-11-11.8-17.9-21.3-23.6C391.2,453.3,397.3,462.1,400.5,473.4z"/>
	<path d="M298.2,467.2c0.8,6.5,0.4,12.6-1.8,18.7C293.9,481.9,294.6,474.3,298.2,467.2z"/>
	<path d="M424.7,444.6c0.3,0.4,0.6,0.9,0.9,1.3c2.3,6.2,5.3,12.1,9.6,19.1c-4.1-2.7-5.5-5.7-6.7-8.4
		C426.8,452.7,423.3,449.4,424.7,444.6z"/>
	<path d="M313.6,445.8C313.6,445.8,313.6,445.8,313.6,445.8c1.8-0.8,3-4.6,5-2.5c2.1,2.2-1.5,3.3-2.7,4.8c-0.9,1.1-2.2,2-3.6,3.3
		C311.6,448.9,313.4,447.5,313.6,445.8z"/>
	<path d="M297.1,501.5c1.6-4.5,3.3-9.1,4.9-13.6C301.9,492.9,301.1,497.8,297.1,501.5z"/>
	<path d="M243.2,418.8c-4.5-2.3-8.4-5.8-13.1-7.7C235.1,412.5,239.8,414.5,243.2,418.8z"/>
	<path d="M85.8,542.8c0.5-4.6,3.3-7.4,7.1-9.5C90.5,536.5,88.1,539.6,85.8,542.8z"/>
	<path d="M157.8,514.1c2-4.8,4-9.6,6-14.4C163,505,162.1,510.3,157.8,514.1C157.7,514,157.8,514.1,157.8,514.1z"/>
	<path d="M380.7,424.2c-5.7-2-11.6-3.2-17.6-3.3C369.5,419.5,375.2,421.3,380.7,424.2z"/>
	<path d="M257.2,489.2c-2-0.8-3.9-1.5-6.6-2.5c1.7,0.2,2.8,0.3,5.6,0.5c-4.1-1.7-6.5-2.8-9-3.8c7.1-0.8,23.3,7.1,27.7,13.4
		C268.5,494.8,264,489.2,257.2,489.2C257.1,489.2,257.2,489.2,257.2,489.2z"/>
	<path d="M337.5,509.8c-4-1.9-8.3-1.9-13.6-1.3c12.2-5.1,36.3,3.6,40,14.3c-7.3-4-12.5-10.3-20.6-12.9c1,0.8,1.6,1.4,2.7,2.3
		C342.7,511.6,340.3,509.6,337.5,509.8C337.4,509.8,337.5,509.8,337.5,509.8z"/>
	<path d="M321.1,503.9c5.7-5.9,22.7-9.1,26.7-4.9C338.5,499.5,329.7,500.8,321.1,503.9z"/>
	<path d="M326.8,514.2c12.9-1.7,23.2,3.6,32.4,11.8C349.3,519.7,338.3,516.3,326.8,514.2C326.8,514.2,326.8,514.2,326.8,514.2z"/>
	<path d="M311.3,504c4.4-6.7,14.3-12,19.5-10.4C323.7,496.2,318.8,501.5,311.3,504z"/>
	<path d="M353.8,506.5c-11.8-1.6-23.5-2-35,1.5C330.3,502.7,342,503.1,353.8,506.5z"/>
	<path d="M312.5,494.1c6.3-6.5,13.8-10.2,22.8-11.2C327.3,486,319.4,489.1,312.5,494.1z"/>
	<path d="M387.7,525.4c5.4,3.5,5.6,8.8,7,13.4C391.6,535.1,388.6,531.4,387.7,525.4z"/>
	<path d="M232.1,504.9c-5.6,1.2-10.1,2.1-15.2,3.2C220.7,505,224.7,504.1,232.1,504.9z"/>
	<path d="M464.8,554.6c-1.7,0.2-2.7-0.7-3.5-2.1c-1.5-2.9-3.1-5.7-4.6-8.5c-0.3-0.5-0.7-1.4-0.5-1.6c3.3-3.3,0.3-6.3-0.5-9.4
		c4.3-1.5,6.3,1.3,12.6,17.8c-0.7,0.2-1.3,0.3-1.9,0.4c-0.3-2.5-0.3-2.5-2-3.3C464.5,550.3,464.6,552.5,464.8,554.6
		C464.7,554.7,464.8,554.6,464.8,554.6z"/>
	<path d="M459.9,529.6c4.4,0.9,9.9,10,9.7,15.8C466.9,539.4,463.6,534.7,459.9,529.6z"/>
</g>
</svg>
