<?xml version="1.0" encoding="utf-8"?>
<!-- Generator: Adobe Illustrator 24.2.3, SVG Export Plug-In . SVG Version: 6.00 Build 0)  -->
<svg version="1.1" id="Layer_1" xmlns="http://www.w3.org/2000/svg" xmlns:xlink="http://www.w3.org/1999/xlink" x="0px" y="0px"
	 viewBox="0 0 595.3 841.9" style="enable-background:new 0 0 595.3 841.9; fill: #215342;" xml:space="preserve"
	 height="400" width="500" transform="translate(-100, -91)">
<g>
	<path d="M57.5,578.8c-4.7-3.2-6.3-8.1-7-13.2c-0.4-2.9-1.4-3.7-4.3-3.7c-9.8,0.1-19.5-0.2-29.3-0.3c-0.9,0-2,0.4-2.1-1.2
		c0-1.6,1.1-1.3,2-1.3c2,0,4,0,6,0c7.5,0,10.3-3.9,6.9-11c-4.8-10-4.3-20.1-2.7-30.6c0.6-4.1,0-8.4,0.7-12.6
		c2.5-15.9,13-25.5,29-26.8c1-0.1,2.4-0.1,3-0.8c8-8.3,18.1-7.7,28.2-6.9c4.6,0.4,8.6,0.2,12.9-2.8c7.5-5.2,16.1-2.6,24.2-1.2
		c6.8,1.2,13.5,2.7,20.1,4.4c6.5,1.7,13,3.8,19.8,5.8c1.5-14,5.7-27.5,10.8-40.7c0.3-0.7,0.2-1.8-0.2-2.4
		c-7.7-13.2-6.3-27.5-4.7-41.7c1.1-9.9-6-22.2-15.6-25.8c-2,11.2-3.9,22.3-6.1,33.4c-2.6,12.9-5.1,25.9-11.5,37.6
		c-1.8,3.4-4,6.6-6.9,9.1c-1.1,1-2.4,1.8-3.9,1.2c-1.6-0.6-1.8-2.2-1.7-3.7c0.2-3.1,0.1-6.4,0.9-9.4c2-8-0.4-14.9-5.2-21.2
		c-7.2-9.6-12.4-20-15.3-31.8c-4.3-17.3,0.2-31.5,13.3-43.5c10.4-9.4,21.3-18.4,29.5-30.1c3.9-5.5,5.4-12.2,8.5-18.1
		c4.4-8.4,9-16.7,16.4-23c6.6-5.7,12-6.4,19.7-2.5c7.3,3.7,14.8,6,23.1,5.6c3.4-0.1,6.3-1.4,9.2-2.9c15.3-7.7,31.1-13.5,48.5-12.8
		c6,0.2,11.9,1.3,17.9,2.2c8.6,1.3,16.6-2,24.8-3.5c16.4-2.9,32.3-0.8,47.6,5c13.7,5.2,26.9,3.3,40-1.2c11-3.8,16.5-3,24.7,5.5
		c7.1,7.3,12.8,15.8,17.5,24.8c3.3,6.3,8,10.9,13.7,14.7c5,3.4,9.9,7,15.1,9.9c12.6,7,17.2,18.4,19,31.9c2.1,15.8-0.1,31.2-3.6,46.6
		c-2.1,9.4,1.7,18.1,4.8,26.7c0.7,1.9,2.6,4.1,0.5,5.7c-1.9,1.5-4-0.4-5.7-1.5c-10.3-7.3-15.4-18.3-20-29.5
		c-5.4-13.1-9.1-26.7-13-40.3c-0.7-2.2-1.4-2.6-3.6-2c-10.8,3.2-16.8,14-14.5,26.5c1.6,8.7,3.3,17.5,3.5,26.4c0.1,2.3,0.7,4.3,2,6.1
		c9.2,13,15,27.5,18.7,43c1.4,6.1,5.4,11.6,8.1,17.4c0.9,2,2.1,2.5,4.3,2c6.2-1.5,12-0.7,18.2,1.3c5.5,1.8,11.9,0.7,17.9,1.3
		c7.5,0.7,14.6,2.4,21,6.8c3.2,2.2,7.3,0.9,10.9,1.6c3.8,0.8,7.3,1.9,9.9,4.8c8.1,9.2,15.8,18.6,13.7,32.3c-0.9,5.5-0.4,11,0.4,16.6
		c0.9,6.6-0.1,13.2-1.9,19.6c-0.9,3.2-0.1,4.1,3.1,3.9c3.6-0.2,7.3-0.1,10.9,0c1.1,0,3-0.8,2.9,1.6c-0.1,2.1-1.8,1.4-2.8,1.4
		c-8.5,0.2-17,0.3-25.6,0.3c-1.7,0-2.5,0.4-2.7,2.3c-0.4,4.2-1.4,8.3-3.9,11.8c-0.5,0.7-1.1,1.6-1.7,1.7c-1.1,0.1-1-1.2-1.1-2
		c-0.4-1.6-0.7-3.2-1-4.8c-0.9-4-5.2-6.5-9-5c-5.1,2-10.3,3.5-15.9,3.4c-1.6,0-1.9,1-2.3,2c-1.8,3.8-3.9,7.5-7.3,10.2
		c-0.9,0.7-2.2,1.6-3,1.3c-1.3-0.4-0.7-2-0.5-3.1c0.6-4.7,0-8.7-5.4-10.4c-0.9-0.3-1.7-0.7-2.7-0.3c-7.3,2.7-14,1.4-20-3.3
		c-3.6-2.8-6.3-3.8-8.4,1.7c-0.9,2.3-2.5,5.8-5.3,5.2c-2.5-0.6-1.4-4.2-1.5-6.4c-0.1-3.2-1-4.3-4.5-4.3c-33,0.1-66.1,0-99.1-0.1
		c-2.6,0-4.5,0.6-6.3,2.6c-11.7,13.9-46.4,23.7-66.3,9.1c-0.6-0.4-1.4-0.7-2-1.2c-10.6-9.7-23.3-11.1-37.1-10.8
		c-35,0.6-70.1,0.3-105.1,0.3c-2.1,0-3,0.7-3.7,2.6c-1.6,4.5-3.6,8.9-3.6,13.8c0,0.6-0.5,1.2-0.7,1.8c-0.7-0.3-1.7-0.5-2.2-1
		c-3-3.2-5-7.1-6-11.3c-0.7-2.9-2.1-3.1-4.5-2.6c-5.3,1.2-10.2,4-15.8,4.1c-3.6,0.1-7.1,0-10.8,0.7c-4.4,0.9-6.4,2.7-6.3,7.1
		c0,0.8,0.3,2.2-0.9,2.4c-0.7,0.1-1.9-0.5-2.2-1.1c-2.7-7.4-8.9-9.2-15.8-10.1c-0.6-0.1-1.2-0.6-1.8-0.9c-5.8-3-8.8-1.2-9.3,5.3
		C58.3,574.8,58.9,576.8,57.5,578.8z M208.8,397.9c1.5,0.9,2.3,1.3,3,1.7c7.8,4.8,18.3,2.6,23.6-4.8c0.9-1.3,1.7-2.8,0.8-4.3
		c-1.1-1.7-2.6-0.4-3.8,0.1c-4.1,1.5-8.1,2.9-12.6,2.5c-4.3-0.4-8.4-2.7-9.5-6c5.8,3.9,11.5,5.7,17.8,2.7c5.6-2.7,11.9-3.9,17.8-9
		c-5.3,1.9-9.4,3.6-13.6,4.9c-10,3.2-17.8,1-23.8-6.3c-1.9-2.3-3-4.9-6.8-5.7c-5.8-1.2-11.2-4.4-17.6-3.2c1.2-1.7,2.9-2.4,4.5-2.1
		c7.3,1.5,11.4-3.1,15.3-7.9c3.9-4.7,7.5-9.8,12.4-13.5c8.5-6.4,14.9-6.7,22.2-1.2c1.2,0.9,2.3,2,3.9,3.4
		c-1.3-5.2-10.4-11.8-14.8-10.9c-9.8,1.9-18.8,5.7-26.1,13c-1,1-2.3,3.1-4,2c-1.7-1.1-0.4-3,0.1-4.4c3.1-9.8,9.1-17.9,14.8-26.1
		c6.5-9.4,14.8-17.1,25.9-21c2.9-1,5.8-1.4,7.6,2.1c1.9,3.6,4,7,6.1,10.5c1.9,3.1,4.1,6.9,8,5.6c4.5-1.4,7.7-5,6.8-10.5
		c-0.4-2.8,0.9-3,3-2.1c1.6,0.7,3,2.1,5.3,1.5c-1.9-5.8-5.8-9.7-10.8-12.6c-12.3-7.2-23.7-3.7-34.5,3.4
		c-14.6,9.6-25.7,22.5-34.6,37.4c-0.5,0.9-0.6,2.2-2,2.5c-0.5-13.1,4.5-24.8,9.2-36.5c1.2-3,2.3-5.9,4.5-8.3c0.8-0.9,1.6-1.6,2.7-1
		c1.2,0.7,0.3,1.7-0.1,2.5c-0.9,2-1.9,4-2.9,6.2c3.6-0.6,2.8,1,1.7,2.9c-2.3,4-4.6,7.9-6.7,12c-0.6,1.2-1.9,3.2-0.2,4.1
		c1.4,0.8,2.3-1.3,3.2-2.3c10.8-12.3,23.3-22.3,38.2-29.4c6.2-2.9,12.6-3.7,19.3-2.7c8.2,1.3,15.6,4.6,23.2,8.6
		c-4.8-2.3-1.5-7.6-4.7-10.6c-6.9-6.4-14.6-11.1-24.3-11.8c-0.8-0.1-1.9,0-2.2-1c-0.2-0.9,0.5-1.4,1.3-1.7c4.6-1.7,9.5-3,14.1-1.4
		c11.2,3.9,19.7,11.6,26.1,21.5c0.8,1.2,1.2,2.7,3.1,2.5c1.8-0.2,1.1-1.9,1.7-2.9c4.3-7.7,8.6-15.5,17.1-19.5
		c3.9-1.8,8.1-1.5,12.2-0.5c-3.9,1.8-7.9,3-11.7,4.6c-4.4,1.9-7.7,5.3-8.5,8.4c7.4-4,14.6-4.1,18.7,0c-2.5,1.6-4.8,3.6-7.4,4.8
		c-9.6,4.3-13.5,12.5-15.6,22c-0.3,1.2-1.3,3.4,0.5,3.7c1.1,0.2,3.1,0,4.1-2.4c4.1-9.7,8.9-19.5,19.5-23c22-7.1,42.9-4.7,61.3,10.4
		c6.2,5.1,11.1,11.3,16,19.6c-1.3-8.2-5.1-13.6-7.6-19.5c12.6,15.7,17.8,34.2,19.8,53.8c-1-1.8-1.4-3.9-2.2-5.8
		c-11.8-25.1-30-44-55.1-55.8c-11.7-5.5-22.9-3.4-32.8,5.4c-6.4,5.7-11.9,17.3-10.7,23c0.3-0.5,0.7-1,1.2-1.8
		c-2.3,18.2,11,41.4,24.8,43.7c0.2-3-1.6-4.8-3.5-6.5c-4.1-3.8-8.3-7.3-12.2-11.3c-4.7-4.8-6.8-11-6.3-17.6c0.2-3.6,0.8-7.5,6.6-5
		c4.7,2,9.2,0.3,13.1-2.9c5.1-4.2,7.6-10,9.4-16.1c0.8-2.9,2.4-4.5,5.5-5.1c5.7-1.1,10.7,0.9,15.2,3.9
		c16.2,10.8,29.5,24.3,38.7,41.6c2,3.7,3,7.7,2.1,11.9c-0.4,2.1,0.1,3.2,2.4,3.9c5.8,1.8,8.3,4.5,7.8,7.8c-5.7-4.4-15-4.9-19.6-0.4
		c-4.4,4.3-7.9,9.4-13.5,12.5c1.4-0.1,2.8-0.3,3.8-1c2.8-2,5.6-4,8.2-6.2c10.3-8.8,18.9-6.7,23.9,5.7c3.7,9.3,5.1,19,6,29.8
		c0.4-1.8,0.6-2.6,1.2-5.2c0.2,4.2,0.1,6.6,0.5,9c0.8,4,2.1,1.6,3-0.3c0.6,1.4,1,2.6,1.7,4.1c0.6-4.8,0.8-9,0.5-13.4
		c-0.7-12.3-3.3-24.2-4.9-36.4c-3-22.9-8.8-45-23.7-63.2c-10.7-13-23.1-24.7-38.5-34.4c5.9,1.6,10.8,2.9,15.6,4.2
		c-3.5-2.2-7.2-3.7-10.9-5.4c-19.4-8.6-39.6-13.8-60.8-9.2c-12.6,2.8-24.8,3.5-37.4,1.2c-6.7-1.3-13.7-0.6-20.6,0.6
		c-15.4,2.7-29.2,9.6-43.1,16c-2.2,1-4.4,2-6.7,3.1c0.1,0.2,0.2,0.3,0.2,0.5c1.6-0.2,3.3-0.5,6.7-1c-4.5,2.5-7.5,4.2-11.5,6.5
		c2.4-0.3,3.7-0.4,4.9-0.6c-5.6,4.8-6.6,13.3-14.2,16.3c1.3,1,1.8,1.9,0.7,3.4c2.1-0.7,3.7-1.2,5.3-1.7c0.1,0.2,0.3,0.4,0.4,0.7
		c-2.9,2.3-5.8,4.6-8.9,7.1c1.3-0.4,2.4-0.7,4.3-1.2c-6,8.1-9.4,16.5-12.2,25.3c-7.5,23.8-8.8,48.7-11.6,73.3
		c-1.1,9.9,2.1,19,7.9,28.7c-2.3-15.2-3.3-29.1-0.7-43c2.2,14.7,7.3,28,17.6,39c-5.4-8.4-8.5-17.5-8.9-27.5
		c3.4,5.6,6.6,11.4,12.9,14.2c5.4,2.4,15.1-0.1,17.8-5.2c-8.6,2.6-15.5,0.9-20.4-6.4c-4.7-7-6-14.4-3.9-21.3
		c4.5,10.5,10.3,16.3,16.4,16.3C210.4,400.2,209.9,399.5,208.8,397.9z M214.7,483.8c2.4-0.5,2.9,1.2,3.4,2.7c2.1,6.1,4.6,12,9,16.8
		c2.6,2.8,4.8,7,9.3,2.4c0.4-0.4,1.5-0.1,2.2-0.2c1.6-0.3,3.8-0.1,4.2-2.2c0.3-2-1.9-1.7-3.1-2.3c-1.6-0.8-3.2-2-2.5-4
		c0.6-1.6,2.9-1.9,3.8-1.1c3.6,3.2,7.3,1.7,10.8,0.6c9.3-2.8,17.3-7.6,23.6-15.1c3.1-3.6,4.2-12.1,1.2-14.4
		c-10.1-7.4-12.6-17.8-11.7-29.5c0.1-1.8-0.4-2.9-1.9-3.8c-3.9-2.3-5.5-6.1-7-10.1c-4.2-11.3,12.4-29.2,23.2-29
		c11.1,0.2,22.4-0.7,33.7-1.4c9.2-0.6,18.1-0.9,26.7,4c13.4,7.7,18.4,23.8,11,37.3c-0.9,1.6-0.8,2.4,1,3c13.2,4.5,21,17.9,35.2,21.4
		c-0.3-3.6-1.9-6.8-3.4-10.4c2.1,1.2,3.8,2.2,5.9,3.4c-0.7-3.5-1.4-6.3-4-8.4c-3.9-3.3-7.5-6.9-11.3-10.2c-4-3.6-8.5-6.8-10.3-12.1
		c-3.4-9.6-6.2-19.4-14.3-26.5c4.9,3.5,9.2,7.8,11.2,13.3c5.4,14.2,15.8,24.4,26.4,34.6c3.8,3.6,8,6.3,13.2,7.1
		c8.6,1.3,12.7,6.8,14.3,14.7c2.4,11.7-1.9,21.6-8.1,31.1c-3.5,5.3-6.8,10.6-10.3,15.9c12.1-11.3,21.7-24.1,23.9-41
		c2.3-17.2-3.7-23.3-17.4-26.5c-17.1-4-29-14.8-32.9-32.7c-2.3-10.5-7.8-18.9-16.2-25.3c-7.7-5.9-16.7-9.1-26.1-10.9
		c11.6,0.7,22.6,2.9,31.6,11.3c-0.8-2-1.6-3.8-3-5c-12.9-11.9-28.4-15.5-45.4-14.1c-4,0.3-7.8,2.1-11.9,1.4
		c-16.6-3.1-30.7,2.5-43.4,12.7c-13.3,10.7-19.8,25.4-23.8,41.5c-4.2,17.1-12.6,30.9-30,37.7c-5.5,2.2-9.4,11.6-7.5,18
		c3.6,12.5,12.2,22.1,19.7,32.4c0,0,0.3-0.1,1.2-0.3c-3.5-5.6-6.8-11.2-10.3-16.6c-3.6-5.6-7-11.2-6.8-18.2c0.1-2.7,2.1-2.7,3.7-3.2
		c1.6-0.5,1.8,0.7,2.6,1.8c3.1,4.5,6.6,8.7,10.3,13.5C214.7,486,214.7,484.9,214.7,483.8z M308.8,534.7c-0.6-6.4-1.2-12.7-1.7-19.1
		c-0.2-2.2-0.8-3.5-3.3-3.9c-10.8-1.5-20.4,1.6-28.4,8.7c-3.4,3.1-8.9,6.9-5.2,12.8c7.5,11.8,17.6,21,29.6,28.2
		c1.8,1.1,3.9,1.7,5.6-0.6c0.4,0.9-0.4,2.3,1.2,2.3c1.3,0,2-0.8,2.3-1.8c1-3.4,1.9-6.9,2.7-9.7c0,1.6,0.4,3.9-0.1,5.9
		c-1.5,6.6,1.7,5.9,5.9,4.1c11.5-5,19.8-13.8,27.4-23.5c3-3.8,1.8-7.1-0.7-9.7c-2.5-2.6-1.3-4.2,0.6-5.6c1.8-1.3,1.5-2,0.1-3.2
		c-7.5-6.2-15.9-9.6-25.7-10.1c-6.3-0.3-8.5,2.5-9.2,8.4C309.1,523.7,310.6,529.3,308.8,534.7z M484.8,554.8c2.2,0.2,4-3.4,5.3,0.6
		c0.8,2.3,4.3-0.2,5.8,1.9c1.3,1.8,2.6,1.2,4.1-2.9c5.6-15.3,8-30.9,3.4-47c-1.7-5.8-3.3-11.6-3.4-18.9c1.2,2.9,1.9,4.7,2.6,6.5
		c-0.3-3.5-1-6.8-2.3-10c-4.2-10.3-11.5-14.2-22.4-12.2c-8.2,1.5-16.3,3.5-24.6,4.4c-14,1.5-22.6,9.3-28,21.6
		c-3.3,7.4-6.7,14.8-10,22.2c-0.4,0.8-1.1,1.6-0.2,3.1c4.2-2.7,8.4-5.3,12.7-8c0.7,1.2-0.1,3.3,1.5,3.7c1.6,0.3,1.5-1.9,2.6-2.7
		c4-2.8,5.3-7.8,9.3-11.3c0.1,3.9,1.6,1.1,2.6,1.1c0.8,0.5,0.1,2.3,1.2,1.9c3.9-1.5,3.2,1.8,3.4,3.4c0.6,4.8,0.6,9.7,0,14.6
		c-0.1,1-0.7,2.6,1.5,2c4.6-1.3,7.1-5.3,8.1-9c4.3-17.2-5.1-28.6-22.1-27.6c-0.2,0-0.3-0.2-0.8-0.4c4.9-4.7,10.8-4.8,16.9-4.2
		c6,0.5,11.4,3,17.7,5.5c-1.1-2.1-1.8-3.3-2.8-5c5.7,1.6,8.5,5,9.8,10.1c2.1,8.1,5.9,15.6,9.4,24.2c0.3-2.1,0.5-3.3,0.9-5.9
		C491,530.2,494,542.6,484.8,554.8z M100.5,546c1.4-2.8-0.5-6.9,3.5-7.4c1.9-0.2,2-0.7,2.2-2.1c0.5-4.1,0.8-8.9,3.5-11.6
		c2.7-2.8,2.4-6.1,3.6-9.1c1.1-2.8,2.9-5.1,0-9.4c-3.7-5.5-3.8-13.3,0.4-19.6c2.6-4,6-6.8,11.6-4.4c3.1,1.3,7.2,2.8,10.1,1.8
		c9.5-3.3,19-5.4,29.9-3.2c-1.5-0.8-2.1-1.3-2.9-1.5c-14.5-5.5-29.4-9.6-44.8-11.8c-14.9-2.1-23.5,5.4-22.9,20.5
		c0.2,4.9-0.4,9.4-2.1,14c-1.5,4.1-3.1,8.3-3.6,12.7c-1.3,11.8-6.1,24.2,4.4,34.6c1.1,1.1,0.4,3.2,2.3,4.4c2-3.5,1.2-7.9,3.7-11.4
		C99.8,543.8,100.1,544.8,100.5,546z M127.4,444.1c3.9-3.3,5.9-7.2,7.4-11.4c4.6-13.2,7.2-27,9.7-40.7c4.7-26.7,8.2-53.6,17.4-79.2
		c3.9-10.9,7.8-21.8,14.4-31.5c2.7-3.9,6-6.1,10.9-3.8c2,1,4.3,1.3,6.6,0c-0.8-1.2-3.2-1.2-2.5-2.8c0.3-0.8,2.3-1.1,3.6-1.3
		c2.9-0.5,5.8-0.8,9.5-1.3c-3.6-1.4-6.5-2.3-9.2-3.6c-11-5.4-15.8-4.6-24.1,4.7c-9.6,10.7-14.8,23.7-19,37
		C138.5,353.6,134.5,398.8,127.4,444.1z M49.5,533.6c0.9-0.1,1.2-1.7,2.4-0.7c1.8,1.5,1,6.6,6.3,3.7c1.4-0.8,6.5-0.4,9.5,2
		c1.1,0.9,2.9,0.1,2.7-2c-0.9-9.5,2.7-18,5.8-26.6c2.3-6.3,7.2-11.4,8.4-18.1c1.2-7.1,1.3-14.7,10.1-17.8
		c-6.3-0.8-12.3-1.6-18.2-1.3c-13.3,0.7-21.9,10.7-21,23.7c0.2,2.7,0,5.2-1,7.8C50.6,513.6,48.2,523.3,49.5,533.6z M497.3,475.2
		c2.1,2,4.3,3.6,5.9,5.6c9.6,12.9,14.9,27.1,11.1,43.3c-1.6,6.8,0.2,11.5,5.6,15.3c0.5,0.4,1.1,0.7,1.6,1c0.3-0.6,0.9-1.2,1-1.9
		c0.5-4.1,1-8.3,1.5-12.6c4.9,1.3,7.1-1.1,7.1-5.8c0-2.5,0.1-4.8,2.3-6.7c0.3,1.2,0.5,2.4,1,4.7c0.4-2.6,0.6-4.1,0.9-6.4
		c1.2,1.8,2,3.9,2.6,3.8c5.5-0.6,5.2,4.3,6.3,7.1c1.6,4.1,2.2,8.5,3.2,12.8c0.8-1.3,1.1-2.5,1-3.8c-0.7-11-2.9-21.8-6.6-32.2
		C534.9,480.8,517.9,471.3,497.3,475.2z M152.5,486.1c-3.1,1.7-6.6,2.4-8.2,5.6c-4.8,9.4-7.6,19.4-7.3,30c0.2,6.5-1,14.1,8.4,16.2
		c2.8,0.6,5.1-0.7,7.7-0.6c-0.1-1.9,3.6-0.7,2.5-2.5c-2.8-4.3-0.8-9.8-4-14c-1.1-1.5-0.8-3.5-1.2-5.2c-1.2-4.3,3.3-5.5,4.2-8.5
		c1.9-6.4,7.7-10,14.4-8.8c1.2,0.2,2.7,1.7,3.6,0.1c0.9-1.5,0.6-3.3-0.1-5c-3.1-7.7-12.9-12.9-21-11c-1.5,0.4-3.3,0.5-4.1,2.4
		C149,485.7,150.8,484.2,152.5,486.1z M284.2,407.7c2.1-0.8,2.9-1.4,3.8-1.5c7.4-1.2,14.8-1.7,22.2-1.3c4.4,0.3,8.8,1.2,13-0.8
		c1.4-0.7,4.3-0.4,3.9-2.4c-0.4-2.2-2.3-4-5-4.5c-10.3-2.1-20.6-1.2-30.9-0.8c-6.9,0.3-13.7,1.3-20.1,4.3
		c-8.1,3.8-12.4,11.7-10.4,19.3c1.2,4.6,5.1,5.4,8.9,5.6c4.6,0.2,3.4-3.5,3.5-6.2c0.2-4.1,2.4-6.4,6.4-7.6c3.3-1,7.1-1.1,10.6-3.5
		C288.3,408,287,407.9,284.2,407.7z M34.4,538.4c1.7,3.3,4.2,2.5,7,3.2c6.6,1.7,3.4-2.1,2.9-3.9c-2-6.9-2.3-13.9-1.7-21
		c0.3-3.8,1.5-7.6,0.3-11.8c-2.3,2-4.4,2-4.8-0.9c-0.3-2.5,0.2-5.2,2.5-6.9c3-2.2,4.6-5.6,9.2-6.8c3.1-0.8,5-6.3,7.5-9.7
		c-8.6-0.9-14.7,2-20.3,9.3c-8.1,10.6-11.6,39.9-6.4,52.9c0.8,1.9,1.7,3.5,3.8,3.9C34.4,543.9,34.4,541.2,34.4,538.4z M484.3,399.5
		c1.3-1.2,0.7-2,0.5-2.8c-8.4-25.2-15.3-50.9-25.4-75.6c-7.6-18.7-15.9-37-28.4-52.9c-8.8-11.2-16.9-14.5-28.8-8.4
		c-0.8,0.4-1.8,0.5-2.8,0.8c-7.1,2.1-14.5,2.2-22.9,2.5c3.6,1.7,6.1,2.9,8.6,4.1c8.2,4.1,16.5,5.2,25.1,1.1c3.3-1.6,6.8-1,10.4,0
		c5.8,1.5,8.8,6.2,12.2,10.3c15.3,17.7,24.1,39,31.9,60.7c5.5,15.1,9.7,30.6,14.5,46C480.8,389.8,482.6,394.5,484.3,399.5z
		 M192.9,454.7c-5.7,9.1-6.8,18.7-2,23c-0.4-8.7,3.2-15.8,8.9-21.5c5-4.9,12.2-7.6,15.1-14.7c0.4-1,1.4-1.7,2.2-2.6
		c-1.5-0.8-2.8,1.2-4.1-0.4c3.1-3.3,6.3-6.4,9.1-9.9c2.8-3.5,4.8-7.5,5.9-12.9c-1.2,0.9-1.9,1.2-2.2,1.7c-5,6.8-11.9,10.8-19.7,13.7
		c-9.5,3.5-18.2,17.1-18.2,27.7C189.7,457.5,191.3,456.1,192.9,454.7z M412.2,401.4c2.1-4.1,2.1-7.3-3.1-6.8
		c-1.8,0.2-3.8,0.7-5.6,1.3c-6.2,2.2-12.3,1.6-18.3,0c-3.8-1-7.4-2.5-11.3-3.9c4.2,6.3,12.7,12.4,24.7,17.9c7.1,3.3,13.9,0.2,16-7.2
		c0.2-0.6,0-1.3,0-1.9C414,400.9,413.4,401.1,412.2,401.4z M563.6,523.5c2.3-9.4,1.6-18-4.6-26.3c-8-10.8-14.2-15.2-23.3-13.6
		c10.9,9.6,18.7,20.7,21,35.5c0.8-1.3,1.2-1.8,1.9-3C558.9,520.2,563.1,520.5,563.6,523.5z M145.2,316c-6.7,8-14.5,14.8-21.8,22.1
		c-6,6-12,12.1-14.7,20.6c-3.1,9.8-1.4,23.3,4,28.4c0-1.2,0.1-2.1,0-3.1c-1.4-19.6,4.1-36.3,19-49.8
		C137.4,329.2,141.9,322.9,145.2,316z M293.6,420.1c0,2.5,0.2,4.9,0,7.4c-0.7,8.4-7.1,12.5-15.1,9.7c-1.4-0.5-2.8-1.3-4.2-1.9
		c-1.1-0.5-2.4-1.3-3.5-0.3c-1,1-0.4,2.4,0.1,3.6c1.5,3.6,4.3,6,7.2,8.4c2.9,2.4,5.6,3.2,9,0.9c1.4-0.9,3.2-1.8,4.8-1.6
		c4.9,0.5,7.8-2,6.4-6.6C296.2,433.2,293.9,427,293.6,420.1z M425.5,463.1c4.6-11.6-0.3-25.5-10.2-32.2c-9.5-6.4-21.3-7.3-31.5-14.6
		c4.6,8.4,11.8,11.4,18.8,14.7c10.6,5,19.3,11.8,21.7,24.2C424.7,457.5,425,459.9,425.5,463.1z M138.4,552.8c0.3-1,0.6-1.7,0.7-2.4
		c0.3-4.4-1.4-8-5.7-9c-3.9-0.9-4.6,3-5.4,5.7c-0.6,2-0.8,4.1-1,6.2c-0.4,8.1,0.6,15.9,5.4,23.2c1.6-8.8,5.7-16.6,5.1-25.5
		C137.7,551.5,138,552,138.4,552.8z M451.5,468.5c0.7-0.3,1.2-0.6,2.2-1.1c-0.4,1.8-0.6,3.1-1.2,6c1.3-2,1.8-2.9,2.4-3.8
		c1,1.4-0.4,2.8,1,3.5c8-14.6,1.9-38.4-12.6-59.7C451.3,430.9,456,448.9,451.5,468.5z M177.4,487.4c-3.6-15.9-0.6-31.7,0.8-47.5
		c-5.1,12.1-8.4,24.6-9.7,37.4c-0.1,0.7,0.2,1.7,0.6,2C172.1,481.6,174.5,484.4,177.4,487.4z M466.4,310.3
		c8.8,7.7,15.7,16.6,18.5,28.1c2.7,11.2,4.5,22.5,3.9,35.3C498.3,353.4,485.6,318.4,466.4,310.3z M464.6,570.6
		c5.2-7.8,7.7-15.3,6.8-23.6c-0.4-3.5,0-8.8-5.5-8.3c-5.2,0.5-4.2,5.4-4.6,9.1c0,0.5,0,1,0.1,1.4
		C463.5,555.8,464.4,562.6,464.6,570.6z M420.2,372.2c1.7,14.7,2.9,29.2-3.7,43.2c4.2-0.1,7.2-3,8.6-9.7
		C427.6,394,426.8,382.6,420.2,372.2z M507.5,580.6c7.5-8.4,9.4-17,8.2-26.5c-0.3-2.1,0-5.1-3.3-5.2c-3.1-0.1-3.3,2.7-3.9,4.9
		C505.8,562.2,509,570.8,507.5,580.6z M85.4,547.5c-5.4,5.1-5.1,22.8,0.6,28C88,566.1,92.8,556.6,85.4,547.5z M377.5,372.9
		c8.2-0.1,14.3-5.6,14.4-13c0-1.6,0.1-3.7-2-3.8c-1.9-0.1-1.9,1.8-2.1,3.2c-1.3,6.4-6,10.2-12,10.1c-1.7,0-4.6-2-4.9,0.5
		c-0.2,2.4,3.2,2.3,5.2,2.9C376.7,372.9,377.3,372.8,377.5,372.9z M457.3,336.7c5,17.9,8.1,36.4,16.5,54.4
		C468.7,372,464.7,353.8,457.3,336.7z M376.4,376.8c7.9,2.1,16.8-1.5,20.4-8.3c3.1-5.8,1.6-12.4-3.9-17.1
		C396.9,366.7,390.8,376,376.4,376.8z M226.2,379.3c2.2,1.6,7.1,1.8,11,0.5c4.7-1.5,8.8-8.5,7.5-12.8c-0.3-0.9-0.9-2.4-1.5-2.5
		c-1.5-0.1-1.5,1.5-1.7,2.5c-1.5,6.2-5.2,10.1-11.8,10.7C228.4,377.9,226.9,377.9,226.2,379.3z M226,385c-11.9-5.6-13.8-8.9-12.8-23
		c-3.3,3.5-6.8,6.4-4.8,11.8C211,380.7,218.6,385.6,226,385z M547.2,551.3c-3.1,4.1-4.8,7.8-2.8,12.5c1.1,2.6,2.4,5.3,1.7,8.4
		c-0.2,0.6,0,1.4,0.1,3.3C549.9,566.9,550.3,559.5,547.2,551.3z M400.4,344.1c-9.5-14-23.2-17.6-31.3-7.4c5.4-3.6,10.6-4.6,16.3-2.6
		C390.7,336,394.7,340,400.4,344.1z M52.8,554.5c-1.9,4.4,0,15.7,4,20.3C54.8,567.5,59.8,560,52.8,554.5z M221,363.5
		c2.3-0.2,4.7-1,5.2-3.5c0.4-2-1.4-3.5-3.4-3.8c-2.5-0.4-4,0.9-4.2,3.4C218.3,361.5,218.6,363.1,221,363.5z M307.2,445
		c0-7.4,0-14.9,0-22.3C304.9,430.2,305.6,437.7,307.2,445z M461.4,455.7c0,6.8,2.2,11.2,5.1,15.3c0.3,0.4,1.3,0.6,1.8,0.4
		c0.8-0.4,0.4-1.1,0.1-1.7C466.3,465.5,464.2,461.3,461.4,455.7z M366.5,352.6c0.1,1.5,0.9,2.8,2.7,2.7c2-0.1,3.9-0.9,4-3.2
		c0.1-1.9-1.4-3.1-3.3-3.2C367.7,348.8,366.8,350.3,366.5,352.6z M294.8,449.4c1.6,0.8,3,2.2,4.4,0.4c1.5-2,2.4-4.2,0.9-6.8
		C298.3,445.1,296.6,447.1,294.8,449.4z"/>
	<path d="M260.2,392.7c13.7-17.8,60.4-21.9,84.8-1.8C316.2,376.4,287.6,374.3,260.2,392.7z"/>
	<path d="M309,383.7c-13.7,3.5-27.3-0.5-38.8,7.1C275,385.4,291.1,382.4,309,383.7z"/>
	<path d="M293.9,371.7c5.8,1.4,11.4,0.6,17-1.2C303.6,375,300.7,375.2,293.9,371.7z"/>
	<path d="M492.1,488.3c1.9,4.6,2.6,8.2,2.2,12.3c-0.6-0.4-1-0.7-1.4-1c-0.9,3-5.1,2.8-5.6,2.4c-3.2-2.2-1.2-5.8-1.4-8.8
		c-0.1-0.7,1-0.9,1.6-0.4C492.3,496.3,492.2,492.9,492.1,488.3z"/>
</g>
</svg>
