<?xml version="1.0" encoding="utf-8"?>
<!-- Generator: Adobe Illustrator 24.2.3, SVG Export Plug-In . SVG Version: 6.00 Build 0)  -->
<svg version="1.1" id="Layer_1" xmlns="http://www.w3.org/2000/svg" xmlns:xlink="http://www.w3.org/1999/xlink" x="0px" y="0px"
	 viewBox="0 0 595.3 841.9" style="enable-background:new 0 0 595.3 841.9; fill: #215342;" xml:space="preserve"
	 height="350" width="500" transform="translate(-90, -79)">
<g>
	<path d="M323.7,505.4c1.1,2.7,4.3,3,7.2,5.9c-9.8-4.8-18-9.7-27.3-12c-0.6,2.6-0.6,2.5,5.3,5c2.6,1.1,5.1,2.3,7.3,4.2
		c-4.5-1.8-9-3.7-13.5-5.5c-0.3,0.6-0.7,1.1-1,1.7c6.6,3.6,13.2,7.2,19.7,10.7c-0.1,0.3-0.3,0.6-0.4,0.8c-5.1-2.6-10.3-5.2-15.4-7.8
		c-0.2,0.4-0.5,0.9-0.7,1.3c3.4,2.2,6.8,4.4,10.2,6.6c-0.1,0.2-0.2,0.3-0.3,0.5c-4.4-2.4-8.7-4.8-13.2-7.3
		c0.9,10,36.7,24.3,56.7,23.1c20.7-1.3,50.1-29.1,49.5-47.3c9.9,5,16.7,13.8,26.8,20c-2.3-0.4-3.4-0.7-4.8-0.9
		c0.4,0.7,0.7,1.1,1.1,1.9c-7.6-3.4-12.9,0-19.3,4.8c-1.4-0.5-1.3,1.1-0.2,3.3c-1.1-0.2-2.5-1.8-2.5-0.6c0,2.5-5,3-2.2,6.3
		c-2.6-1.5-5.7,2.1-5.1,5.5c0.2,1,0.4,2.1,0.2,3.3c-0.5-1.2-1-2.4-1.6-3.9c-3.1,4-6.1,7.9-9,11.7c1.6,2.1,27.2-4.5,28.4-7.2
		c5.3,1.5,16.4-1.3,21.8-5.2c7,1.8,13.5-2.3,18.1,0.1c5.1,1.7,8.8,2.7,13.1,1.9c-0.4,1-0.7,1.7-1.2,2.7c3.9,0.3,7.6,0.5,13.2,0.9
		c-2.7,0.6-3.5,0.8-5.9,1.3c7.2,0.1,12,3.4,17.7,4.7c-0.6-2.2-1.2-3.9-2-6.8c2.1,2,3.5,3.3,5,4.7c0.4-1.5-1.3-2.7,0.3-4.4
		c1.9,2.3,3.8,4.6,5.7,6.9c0.3-0.2,0.5-0.3,0.8-0.5c-1.4-2.3-2.8-4.6-4.3-7.1c5.7,2.8,6.6,10.3,13.7,13.5
		c-4.7-12-13.5-19.4-20.7-29.4c5.7,3.3,9.4,7,13.7,10.4c-3.1-4.3-6.2-8.7-10-14.1c1.8,1.4,2.6,2.1,3.4,2.7
		c-4.5-6.8-8.4-13.8-11.6-21.3c0.2,0,0.8,0.1,1.6,0.1c0-2.1-0.6-4-1.6-6c2.5,2.4,5,4.8,7.5,7.2c6.5,8.9,14.4,16.8,19.9,26.5
		c-4.2-10.7-10.5-19.8-19.6-26.8c-3.7-5.6-10.3-9-12.3-16.7c1.5,1.1,2.5,1.9,3.5,2.6c4.1,4.2,8.1,8.5,12.2,12.7
		c5.5,7.7,12.7,14.1,17.9,23c-0.4-8.1-4.5-14.2-6.6-21c3.3,4.8,6.5,9.6,10.4,15.3c-1.4-9.6-6.3-16.3-9.8-23.9
		c3.1,3.9,6.2,7.7,10.3,13c-2.8-7.1-5-12.6-7.1-18.1c0.3-0.1,0.5-0.3,0.8-0.4c1.5,2.2,3,4.4,4.6,6.6c-4.2-10.6-6.7-21.7-10.9-32.9
		c7.7,6.3,11.1,14.6,15.3,24.9c-1-13.8-7.3-23.1-14.1-33.5c5.2,1.9,7.2,5.8,12.2,8.9c-3.7-6-6.9-10.3-9.1-15
		c-2.9-6.1-7.1-11.5-8.5-18.4c-0.5-2.4-2.9-4.5-5.3-7.8c6.1,3.1,9,7.4,14.4,11.9c-5.5-9.3-11.7-15.7-19-23.7
		c12.2,4.3,18.8,12.5,26,20.2c-2.9-6.9-8.1-12.2-11.8-18.8c3.1,3.6,6.2,7.1,9.2,10.7c-6.9-13.5-17.4-23.5-29.3-32.6
		c0.9-0.1,1.4-0.2,3.2-0.5c-1.6-0.7-2.5-1-3.3-1.4c12.3,4.7,22.2,12.3,31,21.5c-7.4-15.4-21.5-24.2-34.6-34.5c1-0.4,1.7-0.6,2.5-0.9
		c-2-1.2-3.7-2.3-7.2-4.4c11.5,2.8,19.9,7.3,28,14c-1.7-4.3-5.9-8.3-13.7-13.1c-5.2-3.2-10.4-6.2-17.5-10.4
		c5.2,1.1,8.3,1.7,11.4,2.4c0.1-0.2,0.2-0.4,0.3-0.7c-5.8-3.1-11.5-6.1-19.3-10.3c5.1,1.4,8,2.2,12.2,3.4c-2.4-1.8-3.8-2.8-6.3-4.6
		c3.1,1,4.9,1.6,8.7,2.9c-5.4-3.6-9-6-13.7-9.1c2,0.3,2.7,0.4,4.3,0.7c-5.3-4.6-11.1-7.4-14.9-12.9c1.3,0.1,2.5,0.2,4.6,0.4
		c-2.5-2-4.5-3.5-7.1-5.5c5.7,0.8,9.2,4.2,15.4,7.4c-8-9.9-16.3-15.5-25.4-19.8c0.6,0,1.6-0.1,3.3-0.3c-1.3-0.8-2.1-1.2-4.5-2.6
		c3.6,0.8,5.3,1.2,7.3,1.7c-2.7-2.9-6-3.9-9.7-4.9c0.8-0.4,1.3-0.6,2.2-0.9c-1.9-0.9-3.6-1.8-6.3-3.1c11.7,0.5,20.8,4.2,29.6,13.7
		c-4.4-2-6.9-3.1-10-4.5c11.8,10,14.9,27.7,31.7,32.4c0.4-2.9-2.9-3.5-3-6.2c1.1,0.3,2.2,0.6,3.9,1.1c-2.7-2.9,0.8-6.4-2.1-9
		c0.8-0.4,1.5-0.6,2.3-1c-0.9-1.2-1.6-2.3-2.4-3.3c3.4-3.5,0.9-19.6-3.6-24.5c1.1-0.1,1.9-0.1,3.2-0.2c-1.1-1.3-2-2.3-3.2-3.5
		c1-0.5,1.8-0.8,2.6-1.2c-0.4-0.4-0.9-0.7-1.7-1.4c1.7,0,2.7,0,4,0c-1.2-0.9-2.1-1.7-3.1-2.4c1.2-2.7,5.6,1.2,5.8-3.2
		c-3.3-1.6-6.8-3.2-11.3-5.4c4.7,0.5,8.2,0.8,12,1.2c-0.5-0.6-0.8-0.9-1.4-1.6c2,0.2,3.7,0.4,7.2,0.9c-6.6-3-11.5-5.2-16.9-7.6
		c3.6-1.6,6.7,0.3,10.3,0c-3.7-1.9-6.9-3.5-10.6-5.4c1.5-0.2,2.6-0.3,4.5-0.6c-3.4-1.2-6.2-2.1-10.3-3.5c3.2-0.2,4.9-0.3,9-0.5
		c-5.7-1.1-9.1-1.7-14.2-2.6c3-0.8,4.4-1.2,7.1-1.9c-3.8-0.7-6.5-1.2-10.9-2c3.7-0.7,5.7-1.1,9.5-1.8c-5.8-0.5-9.7-0.9-14.6-1.4
		c2.4-0.8,4-1.3,6.9-2.3c-6.6,0-11.8,0-18.6,0c4.8-1.4,8.2-2.4,13.3-3.8c-19.1-0.5-33.9,10.1-51.7,11.3c13.3-4.9,25.7-9.7,38.6-13.3
		c-12.5,3.3-25.9,1.7-38.3,7.2c2.2-2.8,4.5-5.5,7.7-9.6c-2.5,1.3-3.6,1.9-5.1,2.7c1.5-2.3,2.7-4.3,4.6-7.2
		c-5.2,3.7-9.5,6.6-14.3,9.9c0.6-4.4,3.8-7.2,3.5-11.1c-3.2,0.4-6.6-0.2-8.9,3.1c1.4-4.7,4.6-8.3,5.3-13.8c-2.9,2.7-5.2,4.9-7.6,7.2
		c3.6-5.5,3.6-13.7,11.7-16.2c0,1.9,0,3.7,0,5.2c25.2,3.8,48.9-2.7,72.7-9.2c-4.2,1.7-8.4,3.4-12.6,5c-4.2,1.5-8.5,2.9-14.7,4.9
		c15.4,0.2,27.6-5.1,40.5-7.8c-5.8,2.4-11.7,4.8-19.6,8.1c35.6,0,69,0,103.7,0c-11.3,3.4-17.4,11.3-24.1,18.4
		c2.8-1.9,5.5-3.8,8.3-5.7c0.1,0.1,0.2,0.2,0.3,0.4c-3.7,3.5-7.5,7-11.2,10.5c0.3,0.4,0.6,0.7,0.9,1.1c1.9-1.2,3.7-2.3,7.3-4.5
		c-7.4,8.6-15.6,14-20.8,22.2c5.8-4.3,11.1-9.2,18.8-13.4c-4.7,4.7-8.3,8.5-12.2,12c-4.7,4.2-6.9,9-6.9,15.7
		c0.1,27.3-0.5,54.5-0.9,81.8c-0.3,19.6-0.8,39.2-1.1,58.7c-0.9,64.7-1.8,129.3-2.8,194c0,2,0,4.1,0,6.4c11.6,0.6,23-0.2,34.3,2
		c-11.9,0-23.8,0.1-35.8,0c-3.1,0-6.3-0.5-8.1,2.9c-0.7,1.3-1.3,0.1-2,0c-0.2-0.4-0.4-0.9-0.7-1.3c-1.3-5.7-2.6-11.4-4.2-18.5
		c2,3.1,3.2,4.9,5.5,8.4c-2.7-9.4-5.4-16.7-11-24.2c5.1,3.1,7.1,7.2,11.1,11.4c-3.4-8.8-9.2-13.9-15.6-20.1
		c5.6,1.6,8.9,4.5,12.9,6.3c-4.1-3.6-8.2-7.3-12.6-11.1c1.1,0.2,1.9,0.4,4.6,0.9c-3.8-2-6.1-3.3-9-4.8c4.5-1.1,7.7,1.1,12.7,1.7
		c-4.9-2.7-8.6-4.7-13.8-7.5c4.1,0.8,6.3,1.2,10.1,1.9c-7.7-4.9-14.4-8.2-23.5-8.5c5.5-0.3,9.8-0.6,15.3,0.7
		c-3.3-2.4-6.6-2.5-8.2-5.1c0.3-0.1,0.7-0.2,1.7-0.6c-5.9-1.6-10.2-5.5-15.8-6.1c0.1-0.4,0.1-0.5,0.1-0.5c0.4-0.2,0.7-0.3,1.1-0.9
		c-6.7,0.6-11.4-5.9-18.2-4.9c-0.5-0.7,1.9-1.2,0.5-1.8c-2.7-1.3-5.5-3-9.5-1.2c1.1-1.3,1.7-2,2.2-2.4c-4.8-1-9.5-0.8-14.7-1
		c0.9-0.5,1.8-1.1,2.7-1.6c-8.7,1.8-17.4,2.2-25.7,5.1c-6.1,2.1-12.4,3.7-18.3,6.5c-18.7,9-28.2,25-32.2,44.3
		c-1.6,8-1.5,16.5-3.5,24.6c0.8-1.5,1.6-3,3-5.8c-0.1,5.4-1.4,9.5-0.5,13.2c5.4,1.2,2.7,5.9,4.2,9c0.5-1.1,1-2,1.6-3.3
		c1.6,5,5.7,8.4,5.5,15.3c0.9-2.2,1.1-2.8,1.4-3.6c1.1,3.1,2.1,6,3,8.8c2.1-0.1,1.2-1.6,1.9-2.2c0.8,3.3,1.7,6.6,3,12
		c0.8-4.5,1.3-7,1.9-10.2c0.8,3.6,1.5,6.4,2.4,10.6c1.8-9.2,3.2-17.1,6.1-24.5c1.1-2.8,1.3-7.4,4.7-7.4c3.3,0.1,3,4.8,4.2,7.5
		c0.3,0.7,0.4,1.6,1.2,4.2c1.3-10.7,2.3-19.5,3.4-28.3c-1.1,12.8,1,25.4,3.1,37.7c0.4-0.8,1.1-2.1,2.7-4.9c-1.2,7.3-2,12.9-2.9,18.5
		c-0.9,2.2-1.8,4.3-2.7,6.5c-0.5,0.5-0.9,1-1.7,1.9c0.3-3.7-3.5-5.9-2.6-9.7c-3.1,4.1-6.2,8.2-9.3,12.3c-1.1,1.4-2.4,3.1-4.4,2.7
		c-2.2-0.4-2.9-2.6-2.9-4.5c0-7-5.1-8.9-10.2-11.4c-2.5-1.2-4.2-3.8-6.3-5.8c0,0.3-0.1,0.8-0.2,1.6c-3.6-3.2-4.7-7.8-7.7-11.9
		c-0.3,1.8-0.5,3.2-0.8,5.2c-3.7-5.5-6.4-10.8-7.8-16.8c-1.7,0.5-3.4,0.9-5.1,1.4c-0.4-1-0.7-2-1.1-3.1c-2.9,2.7-5.8-1.5-8.9,0.5
		c1.1,0.5,1.9,0.8,3.8,1.6c-5,0.7-8.7,2.2-10.9,6.9c-0.1-0.2,0.3,0.7,0.9,2c-1.2-0.2-2.2-0.3-3-0.5c-1.9,4.5-7.1,6.8-7.4,12.3
		c-0.9-1.2-1.5-2.1-2-2.7c-3.3,4.1-8.6,3.2-12.6,5.3c-1.8,0.9-1.4-1.5-2.3-2.1c-0.4,1.2-0.2,3.9-2.4,0.9c-0.5,1.1-1,2.1-1.4,3.1
		c-6,6.6-12.5-2-19-0.1c-1-2.4-2.9-1.3-5.1,0.3c-0.8-5.1-4.9-3-6.4-2.1c-3.1,1.8-6,1.4-9.3,1c-0.1-0.8-0.3-1.8-0.4-2.7
		c-5.5,1.3-15.1-2.7-17.1-7c-1.5-0.6-1.4,1.5-1.9,1.5c-5.7-3.1-7.9-8-9.3-14c-5.5,3.2-3.6,9.8-6.6,14c-0.4-0.5-0.7-1-1.1-1.5
		c0,0,0.1,0.1,0.1,0.1c-0.9-10.7-1.8-21.5-2.9-34.1c2,4.3,3.3,7,5.3,11.3c-2.3-15.6-9.5-27.4-15-40.3c0.9,0.3,1.4,0.5,2.6,0.9
		c-4.9-8.8-10-16.9-17.1-23.7c0.8,0,1.3,0,2.3,0c-7-6.6-14.3-11.8-21.7-17.1c-5.7-5.4-13.4-5.6-20.9-8.1c0.6-0.3,1.2-0.6,2.1-1
		c-3.6-1.3-6.7,0.3-10.5,0.1c1.5-1.4,2.5-2.4,4.6-4.4c-6,1.5-11.1,0.4-16.5,3.7c1.1-1.9,1.7-2.8,3-4.9c-8.3,4.6-16.5,5.8-24.2,8.4
		c-9,3.1-18.5,1.2-27.7,2.1c-15.2,1.5-26.3,10.8-37.4,20.8c1.2,0.1,2,0.2,3.5,0.3c-6.3,5.2-7.1,13.4-13.3,18.9c1.3,0,1.8,0,3.4,0
		c-5.7,6.3-5.5,14-7.7,22.2c1.3-1.4,1.7-2,2.5-2.9c-1,3.8-1.8,7-1.2,11.2c1.3-2.7,2.3-4.8,3.4-6.8c-0.7,5.8-2.6,11.3-2.7,18.1
		c1.1-1.7,1.7-2.6,2.8-4.3c-1.9,8.1-3.9,15.2-3.6,23.5c-2.2-4.4-1.9-8.4-2.1-13.3c-0.8,1.3-1.2,2-1.9,3.1c0-2,0-3.3,0-5
		c-0.5,0.3-1,0.7-1.1,0.6c-7.3-7.3-16.3-1.9-24.4-3.3c-4.2-0.7-8.6-0.1-12.9-0.6c10.1-2,20.2-1.3,30.3-1.5c1.6,0,4.2,0.8,4.4-1.1
		c0.3-2.3,1-4.4,0.3-7.3c-1.2-5-2.6-10.8-0.4-15.9c4.7-11.2,10-22.1,15.1-33.2c-0.5,0.1-1.2,0.2-2.6,0.5c2.2-1.8,4-3.3,7.2-5.9
		c-2.6,0.3-3.2,0.4-4.1,0.5c1.8-3.8,5.9-4.7,8.5-7.5c-0.7-0.2-1.4-0.4-2.2-0.6c0.1-0.2,0.1-0.5,0.3-0.6c10-6.4,19.5-14.1,32.4-14
		c7.2,0.1,14.6,1.7,21.7-0.3c11.9-3.3,23.6-7,34.7-12.7c2.2-1.1,5.2,0.6,7.6-1.4c-0.7,0.9-1.4,1.9-2.4,3.1
		c5.2-1.1,10.1-1.1,15.4-0.6c-0.8,0.5-1.2,0.9-2.5,1.7c6.2,0.3,11.2,2.4,17.6,4.1c-2.5,0.4-3.8,0.6-6.1,1c5.4,2.5,10.5,4,14.5,7.6
		c-5.6-10.2-11.2-20.4-17.2-31.5c1-3.1-3.6-4.5-4.8-7.9c-1.4,1.3-2.4,2.3-3.4,3.3c-0.1-0.1-0.3-0.2-0.4-0.3c0.8-1.2,1.7-2.4,2.5-3.7
		c-1.7-1-1.9,0.5-2.8,0.7c0.5-3.1,0.5-3.1-11.6-1.3c8.4-11.4,18.9-19.2,34.4-23.9c-7.5,6.3-6.6,12.4-3.5,18.1
		c11.4,21.6,26.1,39.4,52.7,41.7c11.8,1,22.4-4.1,33-8.3c6.6-2.6,13.2-5.4,21-8.6c-6.3-0.4-10.8,1.9-16.8,2.8
		c2.5-1.2,3.9-1.8,5.3-2.4c-0.1-0.2-0.1-0.3-0.2-0.5c-2.6,0.7-5.2,1.5-7.7,2.2c5.2-3.9,11.9-2.6,17.4-5.7
		c-7.6,1.3-15.1,2.5-22.7,3.8c-0.1-0.2-0.1-0.5-0.2-0.7c7.7-1.7,15.5-3.3,23.2-5c-0.1-0.4-0.1-0.7-0.2-1.1c-8.7,1.8-17.3,3.5-26,5.3
		c8-5.5,17.4-5.4,26.1-8.6c-9.9,1.9-19.8,3.9-29.6,5.8c-0.1-0.2-0.1-0.4-0.2-0.6c2.9-0.9,5.8-1.7,10.9-3.3
		c-4.8,0.6-7.3,0.9-11.3,1.4c7-4,12.9-5.8,19.5-5.2c-7.6-1-15,0.1-22.4,1.4c10.7-3.1,21.6-4.1,32.7-5.4c-9.5,0.4-18.9,0.8-28.4,1.3
		c7.5-2.9,15.2-3.6,23.2-3.9c-1.3-0.5-2.5-0.9-3.8-1.4c0-0.1,0-0.3,0-0.4c-5.9-3.4-12.3-0.8-18.5-2.4c4-0.3,7.9-0.7,12.9-1.1
		c-4.7-2.3-8.7-1.3-12.8-1.8c2-1.2,4.4,0.3,6.2-1.9c-2.3-0.4-4.2-0.7-6.7-1.1c1.1-0.3,1.8-0.5,3-0.9c-7.5-6.9-11.4-15.6-13.8-25
		c-4.8-19.5,2.8-30.9,22.5-33.8c17-2.5,33.7-0.6,49.8,5.3c10.5,3.8,17.9,10.4,20.2,22c2.9,14.2-4.1,23.2-14.7,30.7
		c-0.9,0.7-1.8,1.4-3.2,2.5c1.2,0.2,1.7,0.3,2.5,0.5c-1.4,0.7-3.2-0.5-4.2,1.4c1.3,0.5,2.5,1,4.3,1.7c-3.2,0.1-5.7-1.7-8.3,0.8
		c2.7,0.9,5.2,1.7,9,2.9c-5.3-0.2-9.4-2.7-13.8,0.1c3.9,1.3,7.5,2.6,11,3.8c-0.1,0.2-0.2,0.4-0.2,0.7c-4.3-1.1-8.7-2.2-13-3.4
		c-0.1,0.4-0.3,0.8-0.4,1.2c3.6,1.3,7.2,2.7,11.1,4.1c-5.2,0.8-9.4-4.2-16.2-2.4c10.7,3.6,20,6.7,28.5,11.7
		c-8.5-3.1-16.9-6.3-25.4-9.4c-2.3-0.8-4.8-1.9-7.4-0.9c-0.7,0.3-1.7,0.8-1.8,1.3c-0.4,1.4,1.2,1.1,1.9,1.6
		C313.1,500,318.6,502.1,323.7,505.4z M293.7,622.1c-0.5-0.9-0.3-2.4-1.7-2.3c-2.3,1.4-2.1,4.2-3.8,6c0.5-1.8,1.1-3.6,1.7-5.4
		c-3.4,1.3-8.5-2.6-10,3.6c0.3-1.2,0.5-2.4,0.9-4.1c-2.7,0.7-2.6,3-3.9,4.3c-0.6-1.6,1.7-3-0.1-4.5c-0.8,0.8-1.6,1.5-2.7,2.6
		c0.4-1.5,0.6-2.3,0.8-3.2c-9.5-3.2-21.3-13.4-28.2-24.3c-4.3-6.7-8.7-13.3-15.6-17.8c0.9,7.6,7.8,12.3,8.3,20
		c0.6-0.3,1.1-0.5,1.7-0.9c-0.2,1.7-0.4,3.1-0.6,4.5c0.3,0.2,0.6,0.5,0.9,0.7c0.2-0.7,0.4-1.4,0.7-2.1c-1.5,6.9,5,11.4,4.6,17.4
		c0.6-0.1,1.1-0.2,2-0.3c-0.6,1.5-1.1,2.6-1,2.5c1.4,3.2,2.2,5.7,3.6,7.8c1.5,2.3,3,5.3,6.5,4.4c2.8,6.5,10.8,4,14.9,8.1
		c0.6-0.7,1.2-1.4,1.8-2.2c1.9,4.7,6.3,1.8,9,3.9c0.6-1,1-1.8,0.8-1.4c5.8,1.2,11.1,2.2,16.6,3.3c0.2-0.3,0.6-1.3,1-2.2
		c0.5,0.9,1,1.6,1.6,2.6c0.6-1.2,1.1-2,1.5-2.8c0.6,0.8,1,1.4,1.6,2.2c0.6-1,1.1-1.7,1.7-2.6c0.7,0.8,1.2,1.4,1.6,2
		c1.8-2.8,5.7-1.5,7.1-4c4,3.2,4-1,5.3-2.5c3.1,1.5,5.4-1.1,8-1.3c-0.3-1.3,3-2.4-1.4-4.4c4.2,0.7,6.3,0.7,5.1-2.7
		c1.1-0.2,2.1-0.3,3.4-0.6c-0.6-1-1-1.6-1.5-2.4c1.4-0.1,2.6-0.2,4.3-0.3c-2.2-2.8,0.9-2.4,2.1-3.4c-0.9-0.6-1.5-1-2.1-1.3
		c1.7-0.4,3.4-0.8,5.7-1.3c-1.4-0.6-2.3-1-3.5-1.6c2-0.8,3.8-1.5,6.4-2.6c-2.5-0.5-4.2-0.8-7-1.4c3.3-0.6,5.4-1,8.1-1.5
		c-2-0.8-3.3-1.3-4.7-1.9c1.5-1.1,3.5-0.1,4.4-2.1c-1.4-0.5-2.7-1-4.2-1.6c1.9-0.9,4-0.1,5.3-2.1c-1.4-0.4-2.6-0.8-4.1-1.3
		c1.3-0.7,2.4-1.3,3.6-1.9c-0.8-0.6-1.3-1-1.8-1.4c3.8-3.7,8.8-5,13.1-7.9c0.3,1.7,0.5,3.1,1,5.7c5.5-13.6,9-26.8,16.2-38.2
		c-2.2-0.5-63.2,58-63.2,61.4c-0.4-3.9-2.4-1-2.6-0.9c-2.9,1.3,0.7,3.7-0.9,5.4c-0.4-1.7-0.8-3.4-1.2-4.9c-1.7-0.4-2.6,1.3-4,0.3
		c-0.1,1.5-0.2,2.8-0.4,4.8c-0.5-1.9-0.8-3.2-1.1-4.3c-1.9-0.3-3.5-0.3-4.2,1.8c-0.3-0.9-0.5-1.5-0.8-2.5c-0.6,1.2-0.9,1.9-1.3,2.7
		c-0.4-0.6-0.8-1.3-1.5-2.3c-0.6,2.5-1.1,4.5-2.1,8.2c0.2-3.8,0.3-5.7,0.4-9C294.6,620.7,294.2,621.3,293.7,622.1z M287.5,542.3
		c-7.4,0.5-12.9-3.7-20-3.9c0.4-0.6-0.1,0.1-0.6,0.9c-0.6-0.8-1.2-1.5-1.7-2.2c-0.7,0.8-1.3,1.4-1.8,2c-1-0.9,0.1-2.5-1.6-2.8
		c-0.6,0.9-1.2,1.8-2.4,3.6c0.2-2.4,0.3-3.7,0.4-4.8c-2.6-0.1-1.8,2.7-3.5,3.6c-0.4-0.9-0.7-1.7-1.3-3.1c-0.7,1.6-1.2,2.6-1.7,3.7
		c-2.2-2.7-4.2,0.9-6.3-0.3c-6.1,37.2,21.3,75,47.5,66.1c-3.1-17.2-5.1-34.5-4.5-52C290,548.6,290.1,544.7,287.5,542.3z
		 M309.8,546.4c-0.2-4.6-5,1.1-4.7-4.5c-0.5,2.2-0.6,2.9-0.8,3.8c-1.4-0.5-0.8-2.6-2.7-2.5c-0.3,0.7-0.7,1.5-1.3,2.7
		c-0.5-1.5-0.9-2.6-1.6-4.6c-0.3,1.5-0.4,2.1-0.5,2.7c-0.1,0.7-0.1,1.4-0.2,2.1c-3.8-0.7-5.7,0.1-5.8,2.6
		c-0.9,18.9,0.8,37.6,4.8,56.2c28.1-2.1,43.4-30.4,36-61c-0.2,1-0.4,1.7-0.7,3.2c-2.3-2.8-4.1-5-6.3-7.6c0.2,2.7,2.4,4.4,1.6,7.3
		c-2-2.9-3.8-5.3-6.2-8.8c1.1,3.3,1.8,5.3,2.4,7.3c-0.3,0.1-0.5,0.2-0.8,0.3c-1.2-1.8-2.4-3.6-3.8-5.8c0,1.9,0,3.5,0,5.3
		c-1.9-0.9-2.6-3.5-5.1-2.5c0.1,1,0.2,2,0.4,3.6C312.8,544.5,311.3,541.8,309.8,546.4z M331,444c-0.7-6.9-7.7-12.7-14.6-12.1
		c-7.6,0.6-15.1,0-22.6-1.3c-6-1-12.1-0.4-17.4,3c-1.3,0.9-3.1,2.2-2,4.1c0.9,1.6,2.5,2.9,5,1.7c-0.8-1.1-1.4-2.2-2.1-3.1
		c4.5-4.6,10.2-4.5,14.7-0.3c0.8,0.8,2.7,1.6,3.1,1.3c4.2-3.9,9.2-0.6,13.6-1.9c6.4-1.8,8.8,1.6,9.7,7.7c3.5-1.6,7-2.6,3.9-7.5
		C326.1,437.1,326.7,442,331,444z M408.6,629.6c-2.5,11-5,22-7.5,32.9C406.4,652.2,410,641.5,408.6,629.6z M368.9,537.5
		c-8.9,13.6-19.5,25.7-33.5,37.6C345.2,571,365.6,547.4,368.9,537.5z M267.9,468.6c8.4,7.6,22.9,6.8,24.8-1.3
		C284.9,474.6,276.8,468.1,267.9,468.6z M326.3,594c-7.3,8-15.5,14.5-26.7,15.6C309.6,611,322.7,603.5,326.3,594z M287.3,610
		c-8.6-0.3-16.1-3.4-23.8-8.2c3.3,6.9,10.6,6.5,17,10.1C281.4,611.6,284.4,610.8,287.3,610z M308.9,466.7c1.2,6.5,4.5,8.4,8.5,9.3
		c4.8,1.1,9.3-0.7,12.4-5.4C321.9,475.5,315.3,475.2,308.9,466.7z M202.8,519.7c0.8,6.6,3.1,12.5,8.3,16.9
		C208.3,531,205.6,525.3,202.8,519.7z M370.8,550.8c0.3,0.2,0.7,0.4,1,0.7c4.9-7.3,9.8-14.6,14.8-21.9c-0.5-0.3-0.9-0.6-1.4-1
		C380.4,535.9,375.6,543.3,370.8,550.8z M349.7,550.9c2.4-0.1,4-1.4,4.2-3.3c0.3-2-1.5-3-3.3-3.6
		C348.2,545.8,348.9,548.1,349.7,550.9z"/>
	<path d="M166.7,215c0.1,0.7,0.3,1.4,0.5,2.1c-4.7,1-9.8-2.2-14.6,1.4c6.2,0.8,12.1,1.6,18.3,4c-4.9,1.6-9.1,3-14.6,4.7
		c4.5,0.7,7.9-0.2,11.4,1.9c-8,2.1-15.1,4.9-23.2,9.9c6.3-1.5,10.7-4.8,16.3-2.8c-1.3,1.1-2.1,1.8-3.3,2.8c3.5-0.3,6.4-0.6,9.3-0.9
		c0,0.2,0.1,0.4,0.1,0.6c-4.6,0.8-9.1,1.5-13.7,2.3c0,0.2,0.1,0.5,0.1,0.7c3.1-0.2,6.1-0.4,10.5-0.7c-12.7,7.1-24.2,13.5-37.5,20.9
		c5-7.4,11.3-10.9,13.9-17.6c-2,0.5-4.3,1.1-6.8,1.7c0.3-0.9,0.4-1.5,0.6-2.2c-1.7,0.6-3.1,1.1-4.7,1.7c0.4,0.6,0.9,1.2,1.6,2.1
		c-1.9-0.5-3.4-1.6-5.3-0.1c0.8,1.5,1.6,3,2.4,4.7c-1.5-0.3-2.9-0.6-4.9-1c0.8,0.9,1.3,1.4,1.9,2.1c-2,0-3.8,0-6.6,0
		c1.8,0.9,2.7,1.3,3.7,1.8c-0.4,2.9-3,1.7-5,2.3c1.1,0.5,1.8,0.8,3.4,1.6c-2,0-3,0-5.9,0c2.5,0.8,3.4,1.1,4.6,1.5
		c-2.7,0.7-5,1.4-7.6,2.1c0.8,0.3,1.4,0.6,2.5,1c-2.1,0.7-3.8,1.2-6.8,2.3c3.1,0,4.7,0,8,0c-3.6,2-5.7,3.1-8.7,4.8
		c2.3,0.2,3.7,0.3,6.1,0.5c-3.1,1.7-5.4,2.9-8.1,4.4c2.1,0,3.8,0,6.6,0c-2.3,1.5-3.7,2.5-5.8,3.8c1.9,0,3.1,0,5.5,0
		c-3.2,2.1-5.5,3.6-9.1,6c3.5-0.2,5.4-0.3,9.2-0.6c-3.3,2-5.1,3-7.3,4.4c1.5,0.4,2.6,0.6,4.1,1c-2.2,1.4-4.1,2.6-6.7,4.2
		c2.4,0,4.1,0,7.3,0c-3,1.7-4.7,2.8-6.5,3.9c0.9,1.8,2.4,0.7,3.8,1.5c-2.5,1.4-4.9,2.6-8,4.3c2.6-0.2,4.3-0.3,6.6-0.5
		c-3.2,3.1-7.2,4-9.3,7.5c0.7,0.3,1.3,0.5,2.5,1.1c-6.4,3-8.8,9.7-15,12.9c2.5,1.5,3.4-0.8,5.5-0.5c-2.2,1.6-4.1,3-6.2,4.6
		c0.8,0,1.3,0,1.9,0c0.1,2.6-3.6,3.5-2.6,6.5c0.8,0,1.7,0,2.5,0c0.7,2.7-3.5,3.5-2,6.4c3.5-1.8,7-3.7,10.4-5.5
		c-0.1-0.2-0.1-0.4-0.2-0.5c-1.4,0.4-2.7,0.8-5.5,1.5c8.7-6.6,17.6-7.9,28.2-8.8c-2.5,0.9-3.7,1.3-4.8,1.7c0,0.2,0.1,0.3,0.1,0.5
		c5.8-0.7,11.5-1.5,17.3-2.2c0,0.2,0.1,0.3,0.1,0.5c-2.8,0.5-5.7,1-8.5,1.5c4.4,1.4,9,0.2,14.6,2.9c-13.9,0.2-25.3,4.3-36.2,10.4
		c3.6-1.1,7.2-2.2,10.8-3.3c0.1,0.2,0.1,0.4,0.2,0.5c-4.2,1.6-8.4,3.2-12.6,4.8c0.1,0.3,0.2,0.5,0.3,0.8c3.5-0.6,7-1.2,10.5-1.8
		c-9.8,3.4-18.6,8.7-26.9,14.9c8-4.4,15.9-7.4,25.7-2.2c-8.8,3.8-17,6.9-25,13.9c5.1-2,8.6-3.4,12.2-4.8c0.1,0.2,0.2,0.4,0.3,0.6
		c-1.1,0.6-2.2,1.3-4.1,2.4c4.6-0.7,7.6-3.7,11.7-3.5c-1.8,8-8.4,11.1-14,15.1c-3.8,2.7-9,4.8-6.6,11.4c5-2.4,9.9-5.8,16.7-6
		c-1.2,1.5-2,2.4-3,3.7c1.1-0.1,2-0.2,3.1-0.3c-2,8.7-9.8,12.4-15.8,18.7c2.4-0.6,4-1,6.7-1.7c-3.1,4.7-5.7,8.6-8.6,13.1
		c3.4-0.7,2,1.1,2,2.4c1.4-0.5,2.6-0.9,4.2-1.4c-0.1,1-0.1,1.9-0.3,3.5c11.4-4.8,21.9-11,36.1-12.4c-14.1,6.3-27.9,8.6-38.9,17.2
		c7.6-3.1,15-6.8,24.4-7.6c-6.3,2.4-11.6,4.4-16.9,6.4c0.1,0.2,0.1,0.4,0.2,0.6c3.8-0.7,7.6-1.3,11.5-2c-6.2,2.6-12.5,5-19.4,9.4
		c5-1.2,8.7-2.1,12.3-3c0.1,0.2,0.1,0.4,0.2,0.6c-4,2-8.1,4-12.1,6.1c0.1,0.2,0.1,0.5,0.2,0.7c2.1-0.5,4.3-0.9,7.3-1.6
		c-4.1,3.1-8.5,4-11.7,8c3.5-1,6.5-1.8,11.4-3.2c-4.4,2.5-7.1,4-11.3,6.3c2.9-0.5,4.1-0.6,6-1c-2.7,1.8-4.7,3.2-6.7,4.5
		c0.1,0.2,0.2,0.5,0.4,0.7c2-0.8,4-1.6,8-3.2c-4.2,3.5-6.7,5.6-10.9,9c3.2-1.1,4.4-1.5,6.4-2.2c-2.5,2.1-4.3,3.6-6.1,5.1
		c0.1,0.2,0.2,0.4,0.4,0.6c1.7-0.8,3.4-1.7,5.1-2.5c-7,5.7-12.9,12.5-19.8,20.9c1.7-10.2,3.1-18.3,7.9-25.6c-1.5,1.3-2.9,2.7-4.4,4
		c-0.2-0.1-0.3-0.3-0.5-0.4c2.4-3.4,4.7-6.9,7.4-10.1c2.2-2.6,3.7-5.5,3.8-8.6c0.2-19.9,0.1-39.7,0.1-60.1c-2.7,1.2-5,2.2-8.5,3.8
		c4-3.9,10-4.8,8.1-11.2c-2.4,1.1-4.9,2.2-7.9,3.6c1.9-4.5,8.1-5,8-10.9c-2.7,1.1-5.1,2-8,3.2c1.8-4.2,6.6-4.3,9.2-9
		c-4,2.2-6.6,3.6-10.7,5.9c2.2-3,3.4-4.8,4.9-6.9c-1,0.1-1.7,0.1-2.9,0.2c2.5-2.8,4.7-5.2,7.1-7.9c-1.4-0.5-2.3-0.8-3.5-1.1
		c1.4-0.9,2.6-1.7,3.8-2.5c0.3-1.6-1.4-0.4-1.5-1.1c1.9-4.3,2.1-8.8,2.2-13.2c0.3-34.6,0.3-69.3,0.5-103.9c0-2.8-1.2-4.3-3.4-5.7
		c-4.9-3.2-10.5-4.6-16.5-7.5c12.6-1.2,24.4-0.7,36.2-0.7c-10.5-3.9-20.9-7.7-29.6-12.9c29.1,4,58.7,12.3,91.3,12.8
		c-2.7-1.5-3.7-2.1-4.8-2.7c1.6-2,4.1-0.7,6.3-1.6c-2.9-0.3-5.4-0.5-7.8-2.2c4.6,0.6,9,0.7,12.9,3
		C162.2,213.5,164.4,214.3,166.7,215z"/>
	<path d="M337.3,380.1c2.8,0.5,5.6,0.9,8.9,1.5c0.3-6.8-0.1-13.3,1.7-19.6c3.2-11,7.8-21.2,20.2-24.2c12.3-2.9,22.8,0.8,31.3,10.1
		c0.9,1,1.7,2.2,2.3,3.5c-10.9-8.9-22-17.1-36.6-8.7c-7.7,4.4-13.3,18.4-11.9,28c8.1-10.2,16.6-18.7,30.5-11.5
		c-7.1-2.2-13.7-1.3-21.5,4.6c17-6.1,25.8,2.5,34.5,13c11.8,14.2,28,18.5,45.9,17.9c1.8-0.1,3.6-0.3,5.4-0.3c1.3,0,2.5,0.3,5.2,0.7
		c-6.5,0.4-11.6,0.8-16.7,1.1c0,0.2,0,0.4,0,0.7c4.3,0,8.7,0,13,0c0,0.3,0.1,0.6,0.1,0.9c-1.5,0.3-2.9,0.6-6.1,1.2
		c5.1,0.3,8.5,0.5,11.9,0.8c0,0.3,0,0.5,0,0.8c-2.3,0.3-4.7,0.6-8.1,1.1c4.3,1.6,7.7,2.9,12.4,4.6c-2.3,0-3.3,0-5.2,0
		c17.5,11.9,32.9,24.7,42.4,43.2c-5.6-6.1-11.2-12.2-16.8-18.2c-15.7-16.7-35.2-27.2-56.5-35.2c-13.2-5-25.7-7.7-38.7,0.2
		c-3.6,2.2-8.1,1.8-12.3,0.7c-2.3-0.6-4.5-1.4-7.8-2.5c6.5,7.3,10.3,15.2,14.3,23.2C365.6,404.7,358.2,384.8,337.3,380.1z
		 M360.1,371.6c9.2-5.9,17.5-4.7,26.5,0C379.3,361.3,366.5,361.3,360.1,371.6z M373.9,379.3c1.8-0.2,2.9-1.8,2.9-4.1
		c0-2-1.6-2.9-3.5-2.8c-2.2,0.1-3.7,1.5-3.6,3.7C369.8,377.9,370.9,379.5,373.9,379.3z M389.4,382.7c-4.5,4-8.2,8.5-16.7,8.7
		C382.8,393,389.3,389.2,389.4,382.7z"/>
	<path d="M238.4,384.3c-11.6,0.4-20.6-3.7-27.3-12.4c-0.5-0.6-1.8-0.9-2.6-0.8c-12,2-24.4,2.6-35.8,6.4
		c-19.4,6.6-39.7,10.9-58.5,20.8c3.3-4.4,9.3-8.7,14.3-10.4c5.4-1.9,10.8-3.7,17.5-6c-3.8,0-6.3,0-10.6,0c8.9-1.3,15.9-2.3,22.9-3.3
		c-5-0.4-9.9,0.4-14.7-1.4c5,0.8,10,0.3,16.1-0.6c-4.5-0.7-8.1-0.3-12-2.5c7.1,1.5,13.4,1.3,21.9,0.4c-5.3-1.5-8.7-2.4-12.1-3.3
		c12.3,3.3,24.4,0.7,36.5-1.3c7.4-1.2,14.1-4,19.3-9.2c10-10.1,20.7-12.8,33.4-3.6c-4.7-10.2-12.7-13.2-31.1-1.7
		c8.1-14.2,25.9-13.5,38.6,2.1c0.1-7.7,0.7-14.9-1.5-21.8c-2.8-8.8-13.5-13-23.8-9.9c-6,1.8-11.9,3.8-17.9,5.2
		c11.8-5.2,23.8-13.4,36.8-5.2c15.2,9.7,12.2,26.3,13.2,41.3c4.6,2,10.2,1,15.2,3.2c2.5,0,5,0,7.5,0c-7.8,1.6-15.6,2.7-23.2,4.9
		c-10.5,3.1-18,9.9-24.4,18.4c-3.4,4.4-7.8,7.9-13.3,10.1C227.7,397.4,232.8,391.2,238.4,384.3z M220.7,366
		c-1.6,0.9-3.1,1.7-4.8,2.6c2.9,3.8,6.1,6.9,11.6,8.5C224.1,373.4,221.9,370,220.7,366z M241.8,359.2c-1.8-0.1-2.9,0.9-3,3.1
		c-0.1,2.3,1,3.6,3.3,3.8c2.3,0.1,3.7-1.1,3.7-3.3C245.9,360.6,244.6,359.2,241.8,359.2z"/>
	<path d="M422.3,660.2c1.6-2.9,3.2-5.8,5.5-10.1c-0.2,3.6-0.3,5.9-0.5,8.9c1.3-1.6,2.2-2.6,3.6-4.2c-0.8,3.3-1.4,5.9-2.3,9.5
		c2.8-3.7,5.1-6.6,7.3-9.5c0.2,0.1,0.5,0.3,0.7,0.4c-0.9,2.4-1.8,4.8-2.7,7.2c0.3,0.2,0.5,0.5,0.8,0.7c1.4-2,2.8-4,4.2-6
		c0.4,0.3,0.8,0.7,1.2,1c-1.3,2.4-2.7,4.8-4,7.2c0.2,0.2,0.5,0.3,0.7,0.5c3.2-4.9,6.4-9.7,10.6-16.1c-1.6,4.6-2.6,7.6-3.5,10.5
		c0.2,0.1,0.4,0.3,0.7,0.4c2.4-3.2,4.9-6.5,8.6-11.5c-1.7,4.8-2.7,7.7-3.7,10.5c9-13,14.1-27.7,18.1-43.8c0.1,6.6-1,12.1-2.5,17.4
		c-1.5,5.4-3.6,10.7-5.2,16.1c2.9-6.1,10.2-9.4,10.3-18.3c7.8,9.1,7.8,19.6,10.9,29c3.2-2,4.5-5.9,7.7-9.9c-0.6,3.1-1,5.1-1.5,7.5
		c0.9-0.3,1.7-0.6,2.8-1c-0.4,1.1-0.7,2-1.9,4.9c3.8-5.1,6.3-8.4,9.2-12.2c-0.2,1.4-0.3,2.2-0.5,3.3c0.7-0.4,1.1-0.7,1.9-1.2
		c-0.1,1.3-0.1,2.5-0.2,3.8c2.2-1.1,2.4-4.4,5.4-4.6c-1.8,9-4.6,17.2-15.1,19.6c0.1-0.4,0.3-1.1,0.7-2.3c-1.4,1.1-2.5,1.9-4.3,3.3
		c1.3-2.2,2.2-3.6,3.8-6.4c-3,2.6-4.7,4.1-7.1,6.2c0.3-1.4,0.5-2.1,0.5-2.2c-8.4-3.5-10.1,3.7-13.4,8.5c-2.2,3.2-4.5,6.4-7.8,8.4
		c-4.1,2.5-7.5,0.7-7.7-4.1c-0.4-7.5,0.1-14.9,2.2-23.2c-6.6,6.5-11.5,14.2-21.6,14.2c-0.1-0.2-0.2-1-0.3-1.4
		c-3.6-0.2-6.9,4.7-11,0.4c-0.3,0.3-1.1,1.2-2.1,2.4c-1.2-4.6,0.8-8.4,1.2-12.4C422,661.2,422.2,660.7,422.3,660.2z M469.5,644
		c-3.5,11.5-7,23-10.5,34.5C466.1,668.1,468.8,656.4,469.5,644z"/>
	<path d="M180.7,660.8c1.1,8.8,1.8,15.7,2.8,22.6c0.3,2,0.8,4.2-1,5.3c-1.7,1.1-3.7,0.1-5.4-0.9c-6.6-4.2-11.6-11-20.1-12.7
		c0,0.5-0.1,1.3-0.2,3.1c-7-5.7-9-13.3-12-20.5c2,2.7,4,5.5,6.7,9.1c-0.3-2.1-0.4-3.1-0.6-4.4c4.2,3.7,8.3,7.1,13.4,11.6
		c-6.8-16.9-8.9-33.3-11-49.8c-1-7.6-6-14.6-9.2-21.9c-0.7-1.5-1.2-3.1-1.5-4.8c12.6,19.7,23.7,40.5,40.8,57c0-0.3,0.1-0.7,0.2-1.6
		c4.8,6.4,8.8,12.7,12.5,20.4C189.4,671.3,185.3,667.2,180.7,660.8z M179.7,683.9c-7.1-14.9-14.3-29.7-21.4-44.6
		C161.7,655.9,169.9,670.3,179.7,683.9z"/>
	<path d="M235.4,640.7c-0.1,1.5-0.2,3.1-0.3,4.8c-1.4-0.5-1.4-2.4-3-2c-3.9,6.7-1.8,14.7-3.6,22c-0.6,2.3-0.7,5.2-3.5,5.8
		c-2.7,0.6-4.5-1.4-6-3.3c-6-7.1-11.5-14.6-14.6-23.5c-0.3-0.7-0.7-1.4-1.3-2.5c0,9.3,0,18.1,0,26.8c-5.8-7.6-6.6-16.4-6.9-25.5
		c0.8,1.7,1.5,3.4,3.2,7.1c-0.8-5.6-1.3-9.2-2-14.3c1.4,2.5,2.1,3.6,2.8,4.9c1.1-13.7-0.9-26.8-4.9-39.6c2.9,5.1,4.7,10.6,6.2,17.2
		c0.7-3.9,0.7-7.2,3.5-9.6c10.6,9.6,18.5,21,23.1,35.5c0-7.4,0-13.9,0-20.5c4.7,4.6,5.2,11,7.2,16.8
		C235.5,640.8,235.4,640.7,235.4,640.7z M206,616.9c2.5,17.6,12.7,32.5,17,49.5C222.7,648,211.5,633.5,206,616.9z"/>
	<path d="M88,660.9c-1.3-2.9-2.6-5.9-3.9-8.8c2.6,3.5,6.7,5.3,9.7,8.6c1.4-1.6-0.2-3.2,0.3-5.3c1.6,3.1,3,5.8,4.5,8.7
		c1.1-10.5,2.1-20.4,3.3-31.7c9.8,7.2,13.7,17.1,19.3,25.9c-3.7-10-7.4-20-11.7-31.5c10.8,15.3,17.5,31,23.6,47.2
		c-2.4-3.5-4.8-7-7.8-11.3c0,7,0.2,12.9,0,18.9c-0.2,5.2-2.8,6.3-7.1,3.5c-4.3-2.8-7.4-6.7-10.7-10.6c-4.4-5.1-8.7-10.9-16.8-10
		C89.7,663.3,88.8,662.1,88,660.9z M114.8,673.9c-3.7-11.3-8.4-22.3-11.6-33.8C103.2,652.8,108.4,663.6,114.8,673.9z"/>
	<path d="M159.7,251.9c-6.1,3.2-11.8,5.1-16.5,9.5c2,0.3,4.5-1.8,4.6,1.9c3.7-2.3,7.5-2,11.8-1.5c-6.1,1.6-10.7,5.3-15.6,8.4
		c3.8-0.9,7.6-1.7,11.3-2.6c0.1,0.2,0.1,0.3,0.2,0.5c-3.5,1.4-7,2.9-10.4,4.3c0.1,0.2,0.1,0.4,0.2,0.6c2.7-0.5,5.4-1,8.5-1.6
		c-3.3,1.7-6.2,3.2-10.6,5.5c2.6-0.4,3.6-0.5,5.1-0.8c-4.3,2-8.2,3.8-12,5.6c0.1,0.2,0.2,0.4,0.3,0.6c3.5-0.7,6.9-1.5,10.4-2.2
		c-12.2,5.3-21.7,13.9-30.7,23.3c-0.4-3.6-0.4-3.6,3.8-11.2c-1.2,0.9-1.8,1.4-2.4,1.8c-0.5,0.4-1.1,0.7-2,0.8
		c4.8-6,4.6-14.1,9.4-20.2c-0.7,0.5-1.5,1-2.9,2c4.1-7.4,10.2-11.9,16.5-17.8c-6.7,2.1-10.6,6.4-15.6,9.9
		C127.5,260.5,148.2,250.7,159.7,251.9z"/>
	<path d="M159.4,306.2c-7.9,2.8-15.9,1.6-24.2,3.9c4.3,0.4,7.7,0.8,12,1.3c-2.5,0.1-4.3,0.2-7.7,0.4c3.1,0.9,4.6,1.3,7.3,2
		c-6,0.8-10.6,1.4-17.5,2.4c7,0.7,11.9,1.2,16.8,1.7c0,0.2,0,0.4-0.1,0.6c-4.3,0-8.6,0-14.6,0c4.8,0.7,7.8,1.1,10.9,1.6
		c0,0.1,0,0.2,0,0.3c-3.8-0.2-7.6-0.5-13.6-0.9c5.9,1.9,9.7,3.1,13.5,4.3c-17.9-0.3-35.1,3-52.4,7.5c3.3-1.5,6.5-3.1,10.3-4.9
		c-1.5,0-2.5,0-3.4,0c5.7-7.8,14.3-8.5,23-10c-2.3-0.4-4.2-0.9-6.1-1c-2-0.2-4.1,0-6.2-1c4.9-1,9.8-1.9,15.1-3
		c-1.1-0.2-1.7-0.4-2.7-0.6c8.6-5.6,17.4-10.1,29.7-10.6c-4,1.4-6.3,2.2-8.9,3.2C146.9,304.2,152.8,305.1,159.4,306.2z"/>
	<path d="M466.8,287.3c-3.5-1.1-7-2.2-11.9-3.8c3.1,2.5,5,3.9,7.3,5.7c-1,0.4-1.8,0.6-3.4,1.2c3.1,2.4,6,4.6,8.8,6.7
		c-10.7-3.8-20.7-8-32.7-10.6c3.2-0.5,5.1-0.7,7.2-1.1c-3.3-5.2-8.9-4.5-13.8-6c0.5-0.3,0.8-0.5,1.7-1c-2.5-0.4-4.5-0.7-6.9-1.1
		c3.6-0.7,6.8-1.3,11.6-2.2c-4.4-0.5-7.3-0.8-11.6-1.3c2.9-1,4.5-1.5,7-2.4c-3.3-0.6-5.6-1-9.5-1.7c4.2-0.7,6.9-1.2,10.5-1.9
		c-2-0.3-3.1-0.4-4.8-0.7c8-1.6,14.6,2.2,22.6,3c-5.4,2.8-10.3,2.1-15.1,2.8C446.9,272.3,457.3,278.6,466.8,287.3z"/>
	<path d="M303.9,309.7c0.6-10.4,1.6-20.8,5.3-30.8c-1,13-1.6,26.1-3,39c-1.4,12.8,0.3,25.9-4.4,39.1c-0.5-2.6-0.9-4.5-1.4-7
		c-0.7,1.8-1.1,3.1-2,5.4c0-5.4,0-9.7,0-14c0.2,0,0.4,0,0.6,0c0.1,1.4,0.2,2.8,0.4,4.2c0.2,0,0.4,0,0.7,0
		c0.8-24.7,1.6-49.3,2.4-75.1C304.2,284.3,303.1,297,303.9,309.7z"/>
	<path d="M134.8,394.3c-2.8,1-5.6,1.9-8.4,2.9c0.1,0.3,0.1,0.6,0.2,0.9c3.5-0.7,6.9-1.5,11.2-2.3c-11.4,7.3-23.4,11.7-35.9,18.3
		C110.8,401.7,120.9,394.6,134.8,394.3z"/>
	<path d="M126,649.6c0.5,1,1.2,2,1.6,3.1c2.6,7.5,9,11.3,14.7,15.9c2.4,1.9,4.2,4.6,6.1,6.6c-2.9,2,0.1,3.6-0.1,5.4
		C135.2,674.2,129.9,662.4,126,649.6z"/>
	<path d="M176,206.6c-0.9-1.4-1.9-2.7-2.8-4.1c6-3.2,22,3.9,26.1,11.7c-6.2-1.2-11.3-5.4-17.6-5.5C179.8,208,177.9,207.3,176,206.6z
		"/>
	<path d="M155.9,290.9c-11.9,3.9-21.7,9-31.2,15.7C128.1,295.7,140.6,290,155.9,290.9z"/>
	<path d="M193.4,655.8c-0.6-3.4-1.1-5.6-1.5-7.7c3.2,7.8,7.5,15.3,7.5,24.9c-6.7-7.9-9.9-16.5-11.6-25.9
		C189.4,649.6,191.1,652.2,193.4,655.8z"/>
	<path d="M502,489.7c-4.1-4.2-8.1-8.5-12.2-12.7c-1.7-2.9-3.3-5.9-5-8.8c0.2-0.2,0.4-0.4,0.6-0.5c2.2,2,4.5,4.1,6.7,6.1
		c2.2,2.2,4.5,4.4,6.7,6.6c2.7,3.8,5.5,7.7,9,12.6C505.2,491.5,503.6,490.6,502,489.7z"/>
	<path d="M61.7,509.8c2.7-6.3,5.3-9.7,7.8-13.4c-1.5,1.4-3,2.8-4.8,4.5c1.7-8.6,9.6-10.5,15.8-16c-2.3,3.5-3.9,5.8-5.9,8.9
		c1.6-0.8,2.5-1.3,4.2-2.3C73.3,497.4,68.2,502.8,61.7,509.8z"/>
	<path d="M315.1,269.8c-0.5,2.2-0.9,4.4-1.4,6.5c2.7-5.4,3.3-11.6,7.3-16.5c-2.6,9.5-5.2,19-7.8,28.9c-0.7-0.8-1-1.1-1.4-1.5
		c-0.5,3.1-1,5.9-1.5,8.7C310.8,287,311.1,278,315.1,269.8z"/>
	<path d="M526,618.1c0.2,0.4,0.4,0.9,0.7,1.3c0.8,5.4,1.6,10.7,2.7,17.6c-7.3-8.9-6.5-18.8-9.1-27.8
		C522.1,612.2,524.1,615.1,526,618.1z"/>
	<path d="M62.2,495.8c1.2-2.9,2.2-5.3,3.6-8.7c-1.5,1.2-2.2,1.8-3.1,2.5c0.9-3.7,3.7-6,5.2-9c2.3-4.2,5.1,0.3,7.3-1
		C72.4,486.1,68.2,491.3,62.2,495.8z"/>
	<path d="M498.9,480.3c-2.2-2.2-4.5-4.4-6.7-6.6c-3.2-5-6.5-10-9.7-15c8.3,6.9,15,15,21.8,25.4C501.5,482.1,500.2,481.2,498.9,480.3
		z"/>
	<path d="M176,206.6c1.9,0.7,3.8,1.4,5.7,2.1c0.1,2.7,2.9,2.5,4.3,3.8c1.3,1.3,2.9,2.2,2,4.5c-9.2-5-18.4-9.9-27.6-14.9
		c0.1-0.2,0.2-0.5,0.3-0.7C165.8,203.2,170.9,204.9,176,206.6z"/>
	<path d="M514.7,656.5c0.8-12.1,1.5-22.7,2.3-34.4C519.1,633.9,521.6,644.7,514.7,656.5z"/>
	<path d="M56.4,620.1c-0.3,4.2-0.5,6.9-0.7,9.6c0.2,0,0.4,0.1,0.6,0.1c0.4-1.6,0.8-3.3,1.6-6.7c0,9.2,0,16.5,0,23.8
		c-0.2,0.1-0.5,0.1-0.7,0.2c-0.8-3.2-1.6-6.3-2.5-9.9c-0.2,1.1-0.4,1.7-0.7,3.1C51.9,633.2,53.1,627.3,56.4,620.1z"/>
	<path d="M509.2,652.6c1.6-6.5,3.2-13,4.8-19.4c-0.6,9.7,2,20.1-6,29.7c0.3-3.4,0.5-5.4,0.7-7.4C508.8,654.6,509,653.6,509.2,652.6z
		"/>
	<path d="M348.2,240.2c-7.1,11.2-13.2,20.7-19.4,30.5C330,263.1,340.3,246.3,348.2,240.2z"/>
	<path d="M322.2,277.7c1.2-11.6,5.4-19.9,12.5-29.3C331.5,259.5,326.8,267.6,322.2,277.7z"/>
	<path d="M448.1,251.7c-5.1,2.1-10.1,4.4-15.3,6.2c-5.2,1.8-10.6,3-16,4C426.6,256.6,437.1,253.6,448.1,251.7z"/>
	<path d="M166.7,215c-2.2-0.7-4.5-1.5-6.7-2.2c-4-2.7-8-5.4-12.1-8.1c7.3,2.2,14.4,4.6,20.8,8.5C168.6,214.8,167.5,214.8,166.7,215z
		"/>
	<path d="M358.2,202.4c-0.6-7.8-1.2-15-1.8-22.5C361.5,187.2,362.2,195.3,358.2,202.4z"/>
	<path d="M388.3,446.3c-3.9-5.9-7.7-11.7-11.4-17.3c2.3-1.9-1.9-3-0.2-4.9C383.8,429.7,384.2,439,388.3,446.3z"/>
	<path d="M228.4,407.1c-5.2,5.9-5.9,13.7-11.8,17.9C219,414.6,222.1,409.4,228.4,407.1z"/>
	<path d="M178,313.8c-1.7,0.8-2.4,1.1-3.8,1.8c2.5-5.2,6.1-8.3,11.2-11c-1.1,1.8-1.9,3.1-2.6,4.3c-3.2,3.5-4.6,9-8.8,12.7
		C174.2,318.7,176.1,316.8,178,313.8z"/>
	<path d="M422.3,660.2c-0.1,0.5-0.3,1-0.4,1.4c-1.2,2.9-2.4,5.8-3.5,8.7c-0.3,0-0.6-0.1-0.8-0.1c0.2-2.7,0.4-5.5,0.6-8.2
		c0.9-2.2,1.8-4.3,2.7-6.5c1.3-2.6,2.5-5.3,3.8-7.9c0.2,0.1,0.5,0.1,0.7,0.2C424.3,651.9,423.3,656.1,422.3,660.2z"/>
	<path d="M78,659.7c-6-4.4-11-9.5-10.5-18.6C71.3,647.9,74.6,653.8,78,659.7z"/>
	<path d="M509.2,652.6c-0.2,1-0.4,1.9-0.5,2.9c-2.2,3.6-4,7.5-8.9,11.7c3.8-8.2,6.7-14.6,10-21.9
		C509.5,648.5,509.4,650.5,509.2,652.6z"/>
	<path d="M384.6,213.8c2.1-7.7,4.1-14.8,6.2-22.5C392.2,199.9,390.2,207,384.6,213.8z"/>
	<path d="M60.6,626.5c-1.3,8.6,3.9,16.2,3.9,25.4C59.4,643.4,57.9,635.3,60.6,626.5z"/>
	<path d="M323.7,505.4c-5.1-3.2-10.6-5.4-16.3-7.1c0.5-0.3,1.2-1,1.6-0.9c8.5,2.1,16.7,4.9,24.8,11.3
		C329.5,507.5,326.9,505.2,323.7,505.4z"/>
	<path d="M522.3,641.8c-1.5-9.1-2.7-16.4-3.9-23.6C523,625,523.8,632.3,522.3,641.8z"/>
	<path d="M391,218.6c2.2-7.9,4.2-15,6.3-22.7C398.6,204.6,396.8,211.8,391,218.6z"/>
	<path d="M396,225.8c3.5-7.7,6.2-13.8,9.5-21.2C405.8,213.6,402.5,219.4,396,225.8z"/>
	<path d="M280.4,248.9c5.7,4.7,8.7,10.8,9.3,18.1C286.5,261,283.5,255,280.4,248.9z"/>
	<path d="M350.1,177.5c2.3,7.9,2.8,14.1,0.6,21.5C348.7,191.7,349.3,185.5,350.1,177.5z"/>
	<path d="M88,660.9c0.9,1.2,1.7,2.4,2.6,3.6c-5.8,0.6-7.3-4.4-9.8-7.7c-1.2-1.6-1.7-3.6-3.1-6.8C82.1,654,83.9,658.6,88,660.9z"/>
	<path d="M271.1,243.1c7.3,5.3,11.3,11.6,14.6,20.8C280.3,256.2,276,250.1,271.1,243.1z"/>
	<path d="M353.3,180.7c3.1,6.7,3.4,13.6,0.7,20.5C354.3,194.3,353.6,187.5,353.3,180.7z"/>
	<path d="M51.4,639.2c-2.6-9-1.4-16.2,2.2-25.5C53,623.2,50.6,630.3,51.4,639.2z"/>
	<path d="M68.8,507.1c3.3-2,5-6.1,9.7-7.2c-2.5,6-8.3,8.4-12.2,12.6c0.9-1.8,1.7-3.7,2.6-5.5C68.9,507,68.8,507.1,68.8,507.1z"/>
	<path d="M307.9,201.7c-0.6-7.2-4.5-13.6-5.6-21.5C306.6,187.2,308.9,194,307.9,201.7z"/>
	<path d="M296.4,418.9c8.4-0.2,16.8,0.2,25.6,4.2C312.8,421.8,304.8,419.3,296.4,418.9z"/>
	<path d="M368.9,186.1c1.9,5.3,1.9,10.3-2.7,15.8C367.3,195.8,368.1,191,368.9,186.1z"/>
	<path d="M73.9,525c0.2-5.5,5.4-9.9,9.4-8.2C80.2,519.5,77.2,522.1,73.9,525z"/>
	<path d="M289,253.2c3.5,5.7,5.8,11.9,7.5,18.6C292.4,266,290.1,259.8,289,253.2z"/>
	<path d="M293.1,203.4c-3.6-6.2-6.2-10.7-9.4-16.4C290.1,190.8,291.5,196.1,293.1,203.4z"/>
	<path d="M383.2,205.5c1.1-5,2-9.2,3-13.6C389.2,196.2,388.6,199.3,383.2,205.5z"/>
	<path d="M68.9,507c-1.4,1.7-2.9,3.4-5.7,6.8c3.4-8,7.6-12.7,13.1-16.4c-2.5,3.2-5,6.5-7.5,9.7C68.8,507.1,68.9,507,68.9,507z"/>
	<path d="M203.7,208.7c-5.5-2.1-10.9-4.2-16.7-6.4C193.7,202.2,199.2,204.3,203.7,208.7z"/>
	<path d="M297.6,202.3c-2.2-5.7-4-10.4-6-15.9C295.5,189,297.5,194.4,297.6,202.3z"/>
	<path d="M259,243.2c5.4,2.1,9.4,5.7,12.5,11.8C266.7,250.5,262.9,246.8,259,243.2z"/>
	<path d="M277,257.1c-3.6-4.2-7.2-8.4-10.8-12.6C271.4,247.3,275.2,251.4,277,257.1z"/>
	<path d="M77,530.2c1-1.2,2.1-2.5,3.1-3.7c-0.1-0.2-0.2-0.3-0.3-0.5c-1,0.8-2,1.5-4.3,3.2c2.4-4.4,4.7-6.6,9-7.4
		C83.1,526,80.3,528.3,77,530.2z"/>
	<path d="M168.4,364.6c2.9-3.2,6.5-3.2,11.8-3.7C175.6,363.5,173.2,366.8,168.4,364.6z"/>
	<path d="M284.7,489.9c0,0.1,0,0.3,0,0.4c-5.9,2.1-12,1-18,1.2C272.6,489.7,278.7,489.7,284.7,489.9z"/>
	<path d="M311.1,181.2c3.9,4.7,5.3,11.4,4.4,18C315.5,193.4,313,188.2,311.1,181.2z"/>
</g>
</svg>
