<?xml version="1.0" encoding="utf-8"?>
<!-- Generator: Adobe Illustrator 24.2.3, SVG Export Plug-In . SVG Version: 6.00 Build 0)  -->
<svg version="1.1" id="Layer_1" xmlns="http://www.w3.org/2000/svg" xmlns:xlink="http://www.w3.org/1999/xlink" x="0px" y="0px"
	 viewBox="0 0 595.3 841.9" style="enable-background:new 0 0 595.3 841.9; fill: #215342;" xml:space="preserve"
	 height="400" width="500" transform="translate(-70, -90)">
<g>
	<path d="M123.3,593.2c-2,1.2-2.9-0.7-4.4-0.8c-0.8,1.1,1,1.6,0.6,2.7c-1.1,0.2-0.9-1.7-2.3-1.3c0.2,0.6,0.5,1.2,0.7,1.8
		c-1.1,0.4-1.3-1.7-2.7-0.6c0.4,0.5,0.7,1,1.1,1.6c-1.8-1.3-3.4-0.5-5.1,0c-2.5,0.6-4.6,2.4-7.4,2c-1.4-0.2-1.7,1.1-2.1,2.3
		c-0.6,2.3,0.2,5.9-2.9,6.3c-3.3,0.4-4.2-3.1-5.4-5.6c-1.8-3.8-12.6-8-17-4.7c-1.9,1.5-2.8,2.9-2.9,5.4c-0.1,2.4,0.2,6-2.7,6.7
		c-3.3,0.7-4.3-2.8-5.1-5.2c-0.9-2.9-2.5-4-5.3-5c-10.1-3.4-14.2-11.5-15.5-21.5c-0.1-0.9-0.2-1.7-0.4-2.6c-4.5,0.8-6.7,3.2-7,7.6
		c-0.1,1.6-0.7,3.2-2.7,3.5c-2,0.3-3.7-1-4-2.5c-1.9-8.9-8.8-15.6-10.2-24.9c-2.5-16.3,1.4-30.5,12.7-42.5
		c9.9-10.5,21.4-19,32.8-27.6c2.5-1.9,4.3-4.4,6.4-6.6c8.2-8.2,18.2-12,29.7-11.8c1.9,0,3.3-0.3,4.8-1.6c3.4-2.9,7.6-4.3,12.1-4.8
		c1.6-0.2,2.7-0.7,3.3-2.4c1.3-3.6,4-6.5,7.5-7.7c3.6-1.2,4.3-3.7,4.9-6.9c2.2-11.6,6.1-22.2,16.3-29.5c3-2.2,2.9-7,3-10.6
		c0-5.3,0.3-10.6,1.1-15.8c1.5-9.9-2.1-19-4-29.4c-2.2,4.6-3.9,8.3-5.7,11.9c-3,5.7-6.2,11.3-11.9,14.7c-2.3,1.4-5,3.3-7.7,1.4
		c-2.7-1.9-2.1-5-1.3-7.7c1.5-5.2,0.2-9.8-2.2-14.4c-4-7.6-8.8-14.8-10.5-23.4c-2.5-12.6,0.8-22.9,16.1-27.5
		c12.2-3.6,23.9-9.8,33.7-18.7c4.4-3.9,8.7-8,14.3-10.3c6.1-2.5,12-2.1,17.4,1.4c3.5,2.3,6.9,3.8,11.2,4.2
		c5.9,0.5,11.5-0.4,17.1-1.3c0.7-0.1,1.3-0.9,2-1.3c1.4-0.9,2.7-2.5,4.3-2.7c11.4-1.4,21-8.7,32.5-10c0.4,0,0.8-0.2,1.2-0.2
		c11.9,0.6,22.8-4.8,34.7-5.3c10.6-0.4,18.8-7.2,24.8-16.1c4.9-7.3,10.2-13.9,19.5-15.7c5.5-1,10.5,0.2,15.4,2.5
		c10.5,4.9,21,9.8,32.2,13c1.6,0.5,3.1,1.2,4.5,2.2c5.3,3.7,10.7,6.3,17.4,7.1c5.8,0.7,8.2,6.7,7.8,15.5c-0.4,9.4-2.9,18.5-4.2,27.8
		c-0.8,5.8-0.9,11.5,1.9,17c1.3,2.6,2.3,5.6-0.1,8.1c-2.3,2.5-5.4,1.8-8.2,0.9c-8.2-2.5-13.2-9-18.5-15.2c-0.6-0.7-1.3-1.5-2.8-3.3
		c1.7,6.7,2.9,12.2,5.7,17.1c6,10.5,13.9,19.8,19,30.8c0.5,1,1.4,1.1,2.2,1.4c9.7,4.3,16.8,11,19.8,21.4c0.8,2.7,2.5,4.7,4.9,6.2
		c18.3,10.7,30.4,26.7,38.9,45.8c0.9,1.9,2.1,3.2,3.8,4.3c5.4,3.5,11,6.2,17.3,8.1c9.4,2.7,17,9.3,20.2,18.4
		c5,14.4,15.5,23.2,27.2,31.4c13.5,9.6,24.7,21.2,29.4,37.8c2.2,7.9,3.6,15.9,1,23.9c-1.7,5.2-4.2,10.1-4.4,15.7
		c0,1.1-0.8,2.4-2.2,2.6c-1.3,0.2-1.9-0.9-2.6-1.8c-0.4-0.5-0.8-1-0.9-1.5c-0.9-5.3-4.4-5.7-9-4.7c0,4.2,0.8,8.9-1.4,12.8
		c-3,5.4-3.6,11.2-4.2,17.1c-0.2,1.4-0.7,3-2.1,3.3c-1.5,0.4-2.7-1-3.1-2.3c-1.3-4.7-3.9-5.4-8.3-3.6c-2.9,1.2-6.5,1.4-9.7,1.1
		c-6.8-0.6-10.4,3.3-13.3,8.4c-1.1,2-2.2,1.7-3.4,0.3c-0.1-0.1-0.1-0.2-0.2-0.2c-1.4-7-7.1-6.5-12.2-7c-4-0.4-7.8-1.9-10.4-4.7
		c-3.3-3.5-7.2-3.9-11.2-3.1c-5.1,1-7.1-1.3-7.3-5.7c-0.2-2.4-1.5-2.9-3.4-3.2c-4.7-0.5-9.2-1.6-13.3-4.1c-2.6-1.6-5.7-0.7-8.5-0.8
		c-4.3-0.1-8.6,0-12.9-0.6c5.9,0,11.9,0,18,0c-1.8-3.2-4.3-2.9-6.8-2.9c-7.2,0-14.4,0-21.6-0.5c8,0,16,0,24.8,0
		c-2.5-2.2-2.8-5.8-6.9-5c0.8-0.6,1.9,0.1,2.2-1.3c-1.1-0.2-2.2-0.4-3.2-0.7c0.7-0.4,2.1,0.2,2.2-1c0.1-1.4-1.3-1.3-2.2-1.4
		c-2.1-0.4-4.3-0.6-6.5-1.3c1.2,0,2.5,0.2,3.6-0.1c1.2-0.3,3.5,1.8,3.4-0.9c0-1.7-0.6-3.8-3.8-4c-31.8-2-63.6-0.3-95.4-0.9
		c-14.7-0.3-29.4-0.1-38.2-0.8c41.4,0,88.6,0,135.8,0c0.5-3.8-0.8-5.5-5.4-5.5c-80.6,0.1-161.1,0-241.7-0.1
		c-6.1,0-12.2,0.4-18.3-0.1c-4.3-0.4-8.1,2-12.3,1.5c-0.2,0-0.7,0.2-0.7,0.4c-0.3,4.5-4.5,7.7-4.4,12.4c0,0.7-1.5,0.2-2.4,1.2
		c-2.2,2.4-5.9,2-8.5,4.4c-0.6,2.4-0.2,6.5-3.4,7.8c-3.8,1.5-4.2-3.5-6.6-5.4l-0.5,2.8c-1.2-1.5-2.1-2.8-3.5-4.5
		c-0.3,3.6-2.7,8.3-4,10.4c-0.8,1.4-1.5,2.9-2,4.5C122.9,590.6,122.7,592.3,123.3,593.2z M259.3,453.2c-0.7,0.1-0.9,1.2-2.1,0.7
		c0.9-1.9,1.8-3.9,2.8-6.2c-2.3,0.7-1.3,4.3-4.3,3.2c0.2-1.8,2.1-2.7,2.7-4.6c-2.2,0.3-1.9,2.9-3.8,3.2c-0.9-2,1.9-2.7,2-4.5
		c-1.7,0.3-1.7,2.4-3.4,2.4c0-1.8,4.4-2.9,0.3-5.4c-1.5-0.9-2.5-4.7-1.8-6.5c1.3-3.7,1.8-7.6,3.9-11c3.8-6.2,9.5-10.2,15.9-12.9
		c5.7-2.4,12-3.2,17.9-5c11-3.2,21.5-2.5,31.2,3.9c7.5,4.9,10.7,14.3,6.5,20.1c-3,4.1-4.6,8.6-6.5,13c-2.4,5.4-5,10.7-10.9,13.3
		c-5.8,2.6-6.2,4.2-4.5,10.6c0.3,1.2,0.9,2.2,1.2,3.5c0.9,4.8,2.3,9.5,7.6,11.4c1.8,0.7,3.4,1.6,5.3,2.1c8.9,2.4,17.9,3.2,27,1.7
		c7.9-1.3,15.2-3.7,20.4-10.6c6.1-8,7.8-17.5,9.9-26.9c0.4-1.8-1.3-2.5-2.3-3.5c-1.5-1.4-3.7-1.9-4.7-4.2c3.7-0.1,5.6,2.6,8.1,4.6
		c0.5-1.5,0.9-2.8,1.3-4.1c2.1-6.8,2.1-6.8-4.8-7c0.6-1.9,2.6-2.6,3.8-2.4c5.8,0.9,6.3-3.3,7.5-7c0.4-1.2,0.6-2.5,1-3.7
		c0.5-1.5,0.1-2-1.5-2.3c-3.2-0.7-6.5,0.5-10.7-0.4c4.2-1.5,7.6-1.9,11.1-1.7c0.9,0.1,2.1,0.8,2.3-0.8c0.3-1.9-1.2-1.5-2.2-1.6
		c-3.4-0.2-6.7-0.4-10.1-0.4c-0.7,0-1.5,0.2-1.8-0.6c-0.4-0.9,0.6-1.2,1-1.6c2.7-2.3,6-3.2,9.3-4c5.6-1.3,11.1-1.6,14.6,4.2
		c2,3.4,1.2,7.5,2,11.2c0.3,1.2-0.2,2.4-0.6,3.6c-0.7,2.2-4.3,1.5-3.8,4c0.4,2.2-0.5,2.9-2.5,3.3c0.7,0.7,1.3,1.4,1.9,2.1
		c-0.6-0.1-1.2-0.2-1.7-0.2c-2.9,7.3-3.3,15.4-4.5,23.2c0,0.1,0.1,0.3,0.1,0.5c0.6-0.5,1.1-0.9,1.7-1.5c0.7,3.4-1.5,5.8-3.3,9
		c1.9-0.7,3.1-1.2,4.7-1.8c-1.2,1.9-3.6,4.3-3.2,5.1c1.3,2.5,0.7,4.7,0.1,6.8c-3.1,10.5-8.7,19.9-12.4,30.2
		c-2,5.7-5.5,10.8-8.4,16.2c1.6-1,2.9-2.1,3.9-3.5c13.1-18.8,21.5-39.8,26.2-62.1c2.1-10.2,2.8-20.6,6-30.6c3-9.4,1.5-18.9-2.5-28
		c-3.9-8.8-8.8-17-14.3-24.8c-1.9-2.7-3.9-5.4-5.8-8.1c3.7,2.9,8.1,4.5,11.1,8.4c11,14.3,17.8,29.7,15.9,48.2
		c-1.1,10.3-7,19.4-6.6,30.2c0.2,4.6-1.5,9.2-2.4,13.8c9-25.8,18.3-51.5,12.3-79.7c-5.9-27.7-21-49.8-38.9-70.5
		c2.3-0.7,3.9,1.9,6.2,3.1c0.6,0.3,1,1.9,2.2,0.8c1.2-1.1-0.1-1.8-0.5-2.4c-3.2-5.3-8.2-8.5-13.7-11.2c-5.7-2.7-11.8-4.4-17-8
		c-5.3-3.6-10.6-7.3-15.8-11c-6.7-4.7-12.3-10.8-17.9-16.7c6.3,3.4,12.1,7.6,19.3,11.1c-1.1-2.2,1.3-3,0.2-4.9
		c-2.1-3.7-3.5-7.7-4.4-11.9c-0.7-3.3-0.8-6.5,0.6-9.6c1.4-3.1,5.1-5.5,7.1-5.9c5.6-1,11.8-0.9,16.6,3.5
		c9.2,8.4,15.5,18.7,20.8,29.8c5.5,11.5,10.9,23.1,18,33.8c3.5,5.2,7.6,9.8,13.3,12.7c1.7,0.8,3.7,1.6,5.3,0
		c1.6-1.6,0.2-3.2-0.4-4.7c-3.6-7.8-3.9-15.7-2-24c1.9-8.6,3.6-17.2,3.2-26.1c-0.3-6.5-2.4-9.4-8.7-9.9c-3.7-0.3-6.6-1.6-9.6-3.5
		c-6.7-4.2-14.6-5-22.7-7.6c2.6,5.5,6.1,9.4,8.3,14.1c2.2,4.7,4,9.5,5.7,14.4c1.6,4.7,4.2,9.1,4.3,14.3c-3.6-6.6-6.7-13.4-9.8-20.2
		c-4.5-9.9-9.6-19.4-18.4-26.3c-6.9-5.4-14.5-9.4-23.7-7c-7.1,1.8-10.8,7.5-14.2,13.4c-2.3,4-4.9,8-8.7,10.5
		c-6.9,4.5-14.7,7-22.9,8.1c-5.4,0.8-11.2-1-16.1,1.9c-3.9,2.3-8.1,2.4-12.4,2.6c-2.5,0.1-4.9,0.7-7.4,1c-8.2,0.8-14.5,7.8-23.2,7.4
		c-1.8-0.1-4,0.8-5.6,1.9c-7.2,5.2-15.2,6.1-23.7,5.1c-1.3-0.2-2.1,0.1-2.6,1.3c-2.3,5.1-5.7,9.6-9,14.1
		c-5.3,7.4-10.2,15.1-14.4,23.2c-1.1,2.2-3.2,3.7-3.8,5.8c-1.2,4.5-4.4,8-5.4,12.5c1.3-0.4,2.8-0.9,4.4-1.3
		c-1.9,1.3-3.8,2.2-5.1,4.3c-0.9,1.4,0.2,1.8,0.6,2.3c0.8,0.9,1.7,0.3,2.1-0.5c0.8-1.5,1.9-2.7,3.5-3.7c-4.1,14.9-14.7,27-17.2,42.3
		c0.8-1,2.3,0,2.9-1.3c-3.2,13.4-3.5,26.9-3,40.4c0.5,12.6,2.4,25,7.8,36.6c5.2,11.1,12.8,20.2,22,28.4c0.2-0.6,0.3-0.8,0.3-1
		c-4.6-7.7-9.8-15.1-13.7-23.1c-3.2-6.5-5.9-13.6-7-20.7c-1.8-11.5-1.6-23.2,2-34.6c1.2-3.6,2.7-9.8,4-9.8c-1,5-2.2,10-3,15
		c-1.4,9-0.8,17.9,1.1,26.8c0.1,0.6,0,1.3,1,1c0.4-0.1,0.7,0,0.7-0.7c0-0.9,0-1.8,0.1-2.7c0.9-6.9,1.4-13.9,3.5-20.5
		c0.2-0.6,14.8-8.4,17.2-7.5c-2.9,3.5-5.7,6.8-8.5,10.2c-8.3,10.1-12.8,21.2-8.2,34.3c3.7,10.7,12.8,17.3,19.6,26
		c0.8-2.5,1.5-4.5,2.1-6.5c0.9-2.8-1.1-5.7-2.8-5.7c-2.2-0.1-3.5-0.2-4.2-2.2c-0.6-1.7-1.5-3.4-1.6-5.1c-0.4-5.8,3.1-9.4,7.7-12
		c5.5-3.1,13.1-3,16.5-0.2c-5.4,1-10.1,3.7-14.8,6.4c1.3,2,2.5,3.9,4.4,5.2c3.5-4.1,7.1-7.6,13.3-9c-3.7,3.4-6.8,6.2-9.8,9.1
		c-1.1,1-2.5,2.6-0.6,3.7c3.2,1.9,3.4,7.8,8.8,6.6c1-0.2,2-1,3-1.4c1.5-0.6,3-1.5,5.3-0.6c-2.5,1.4-4.6,2.5-6.7,3.8
		c-0.9,0.5-2.1,1.1-0.8,2.5c4,4.7,7.9,9.5,12.9,13.6c1.2-3.4,1.7-7.1,5.1-9.9c-0.9,3.3-1.7,5.9-2.3,8.6c-0.3,1.4-0.7,2.9,1,4
		c5.6,3.6,11.5,6.3,18.2,7c18,1.7,31.7-5.9,42.6-19.6c3.2-4,6.6-7.9,4.8-13.9c-1.2-4-0.2-8.4-2.1-12.3c-1.6-3.4-4.2-4.1-6.7-2
		c0,0-13.7,7.4-15.6,7.1c0.5-1.7,1.5-3.3,0.8-5C275.3,465.3,258.4,457.5,259.3,453.2z M297.6,507.6c0.7,0.3,0.2,0.4-0.1,0.6
		c-1.2,1.3-2.4,2.9-4.4,2.2c-1.1-0.4-3.1-0.1-4.3,1.1c-1.3,1.4,0.1,2.1,0.8,2.6c5.6,4.8,12,5.5,18.8,3.2c4.1-1.4,8.9-2,9-8.6
		c1.4,2.9,3,4.6,5.8,4.3c4.9-0.6,9.6-1.7,14.1-3.7c4.7-2.1,7.6-7.2,6.8-11.1c-5.6,2.3-9.9,7.7-17.2,6.4c-0.1-0.1-0.5-0.9-1.3-2.2
		c-0.3,1.5-0.5,2.4-0.7,3.3c-1.3-0.2-3,0.4-3.8-1.4c0.1,0.6,0.2,1.2,0.4,2.6c-1-1.3-1.5-2-2.1-2.8c0.4,2.3,0.4,2.5-0.2,2.6
		c-2.5,0.4-4.9,0.7-6.6-2.3c-1.1,3.6-3.1,2.7-5.4,1.8c-1.8,2.7-6.6,1.1-8.5,4.6c0.6-0.9,1.1-1.9,1.8-3c-1,0.1-1.7,0.2-2.3,0.3
		C298,507.9,297.8,507.7,297.6,507.6z M438.3,470.4c1-1.9,3.5-2.6,4-4.9c1.2-1.1,2.4-2.2,3.8-3.5c-2.3-0.4-3.6,1.1-5,1.9
		c-7.3,4.1-14.9,7.8-20,14.9c-1.3,2-2.6,4-3.9,6c-0.8,0.9-1.9,1.7-0.9,3.2c6-6,11-13,19.2-16.4c-1,1.9-2.9,2.6-4.6,3.7
		c-5.6,3.7-9.3,9.1-13.5,14c5.7-5.1,10.3-11.4,17.3-14.9C436.2,473.6,438,472.6,438.3,470.4z M339.7,513.8
		c-13.4,2.9-26.1,8.2-39.5,11.1c13.8-1.4,26.7-5.8,39.4-11.2c7.5-2.9,10.5-6.7,10.5-13.4c-1.5,2.7-2.8,5.2-4.2,7.6
		C344.5,510.5,341.5,511.5,339.7,513.8z M269.1,522.6c1.3,0.9,2.7,1.7,4,2.7c4,3.1,7.8,6.7,12.1,9.4c9.4,5.8,19.4,8.5,30.5,5.4
		c6.5-1.8,13.1-3.4,19.7-5c16.9-4.2,22.8-17.3,26.4-32.3c0.6-2.6,0.5-5.7,3.4-7.2c-1.3,1.3,1.5,2.7-1.4,4.4c1.7-0.6,2.1-0.7,2.8-0.9
		c-0.9,1.5-0.4,2.8,0.6,3.6c1.3,1.1,1.8-0.5,2.5-1.1c4.6-3.8,5-9.7,7.1-14.8c1-2.4,2.1-4.9,1.6-8.3c-4.5,5.1-8.7,9.8-12.8,14.5
		c-1.3-2.8,1-4.9,1.6-7.9c-1.1,1.6-1.8,2.7-3.3,4.9c0.5-1.9,0.7-2.5,0.9-3.1c-3,3.8-7.2,6.9-7,12.6c0.1,3.1-0.9,6.3-2.6,8.7
		c-5.2,7.8-13.3,11.7-21.9,14.6c-5.6,1.9-11.2,3.5-16.8,5.3c-0.8,0.3-2.1,0.2-1.8,1.5c0.3,1.4,1.4,0.9,2.4,0.7
		c3.6-0.9,7.2-1.7,10.8-2.7c6.7-1.8,12.7-5.4,18.9-8.3c2,2.5,0.2,3.7-1.5,4.7c-10.5,6-22.3,8.3-33.9,10.9c-8.9,2-17.4,1.9-25.1-4
		c-3.8-2.9-7.8-5.6-11.2-9.1c-0.1,0.3-0.4,0.8-0.5,0.9c-1.9,0.1,0.8-1.6-1.6-1.9c-1.9-0.3-3.6,0-5.3,0c-4.6-1.2-9-0.4-13.3,0.9
		c0.2-0.7,0.4-1.6,0.7-2.6c-3.5,2.6-2.5,4.4,0.3,6.6c6.3,4.8,13.5,7.9,21.5,10.6c-2.8-4.4-8.4-5.7-9-11.8
		C267.9,524,269.9,524.2,269.1,522.6z M111.4,585.2c-0.8,2.6-1.5,5.2-2.3,7.9c2.3-2.7,3.2-5.7,3-9.1c3.4-2.8,2.4-6,0.9-9.4
		c0.9,1.1,1.8,2.1,2.7,3.2c0.1-0.1,0.2-0.2,0.4-0.3c-1.1-1.8-2.3-3.6-3.4-5.5c0.2-0.1,0.4-0.3,0.7-0.4c1.5,2.2,3,4.3,4.5,6.5
		c0.2-0.1,0.3-0.2,0.5-0.3c-1.8-3.4-3.7-6.7-5.5-10.1c3.8,4,6.5,8.5,7.2,14c1.4-6.9-4.6-11-5.8-17c2.4,4.2,4.9,8.4,7.3,12.6
		c-0.1-6.6-2.6-12.4-5.6-18.2c2.8,3.6,4.6,7.6,6.2,11.8c-1.7-7.9-2.3-16.2-8.1-22.7c2.6,1.4,3.6,4.1,5.9,5.7
		c-1.1-1.9-2.3-3.9-3.8-6.5c1.2,1,1.7,1.5,2.8,2.4c-1.7-3.9-3-7.1-5.2-9.9c0.8,0.6,1.5,1.2,2.4,1.8c0.2-2.3-1.7-3.2-2.7-4.6
		c0.9-1,1.5,0.5,2.3,0c-3.5-6.5-9.9-9.6-15.5-13.7c2,0.8,4.1,1.5,6.5,2.4c-0.8-0.9-1.2-1.3-1.9-2c7.9,0.4,13.3,4.9,19,9.3
		c1.2-5.6,1.5-11.1,4-16.9c1.5,16.8-0.2,33,3.8,48.8c0.2-4.6-0.2-9.4,1.8-13.8c1.4-3.1,4.9-3.5,6.8-0.6c0.8,1.2,1.3,2.7,1.7,4.1
		c1.1,3.6,0.4,7.4,0.7,11c0.1,1.4,0.3,3.3,2.2,2.7c4.6-1.3,9.2-8,7.9-13.1c-1.4-5.4-2.3-10.8-4.2-16.1c3.2,5.3,4,11.3,5,18.2
		c5.8-14.7-0.4-27.2-5.1-40c3.9,2.8,5.4,6.8,7.8,11.1c0-1.4,0-1.9,0-2.5c-0.1-0.7-0.2-1.4-0.3-2c-5.4-19.5-16.6-34.8-34.3-44.5
		c-14.8-8.2-29.7-7-43.1,3.6c-12.6,10-25,20.3-37.2,30.7c-10.7,9.1-17.5,20.4-17.9,34.9c-0.2,7.1,1.1,13.9,4.6,20.8
		c0.7-4,1.1-7.3,1.9-10.6c0.4-1.6,1.2-3.2,3.3-3.4c2.2-0.2,3.6,1,4.5,2.8c0.8,1.6,1.5,3.3,2.2,5c0.1-0.1,0.2-0.1,0.3-0.2
		c-1-4-2-8-2.9-12.1c0.1,0,0.3-0.1,0.4-0.1c0.4,1,0.8,2,1.2,3c0.1,0,0.3-0.1,0.4-0.1c-0.7-3.2-1.3-6.3-2.2-10.7
		c2.4,4.4,2.3,8.2,4,11.4c-0.8-4.8-1.7-9.6-2.5-14.4c0.1,0,0.3-0.1,0.4-0.1c0.7,2.7,1.4,5.4,2.1,8.1c0.1,0,0.3-0.1,0.4-0.1
		c-0.6-4-1.2-7.9-1.8-11.9c0.2,0,0.4-0.1,0.6-0.1c0.5,1.8,1.1,3.6,1.7,5.6c0.7-4.6-1.9-8.6-2-13.2c2.3,2.2,2.4,5.2,4.1,7.5
		c-0.7-3-1.4-6-2.1-9.1c0.1,0,0.3-0.1,0.4-0.1c0.6,1.2,1.2,2.4,2,3.8c0.3-4.6,2.7-8.4,2.7-12.4c2.1,1.7,4.5,3.5,4.1,7.2
		c0.3-0.6,0.6-1.1,0.8-1.4c1,0.1-0.2,1.2,1,1.2c1.2-1.4,2.3-2.9,3.8-4.8c-0.2,1-0.3,1.5-0.5,1.9c-9,18.2-9.3,37.5-7.6,57.1
		c0.8,8.8,6.8,16,14.2,17c-1.8-4.3-1.6-8.5-0.7-12.7c0.5-2.4,0.7-5.2,3.8-5.9c2.9-0.7,4.6,1.2,5.9,3.7c2.8-4.4-1.1-7.7-1.3-11.7
		c0.6,0.7,1,1.3,2.1,2.6c-0.7-2.5-1.1-4-1.5-5.4c0.1,0,0.2-0.1,0.3-0.1c0.5,0.8,0.9,1.7,1.4,2.5c0.1,0,0.2-0.1,0.4-0.1
		c-1.3-4.3-2.6-8.5-3.9-12.8c0.1,0,0.2-0.1,0.4-0.1c0.7,1.6,1.4,3.2,2.1,4.9c-1.1-4.3,0.5-8.6,0-13.1c0.6,0.7,1.1,1.2,2.1,2.2
		c-0.6-3-1.1-5.1-1.7-7.8c0.7,1.2,1.1,1.8,2.2,3.6c-0.7-3.2-1-5.1-1.5-7.2c1.3,0.8,0.8,2.4,2.4,2.9c-0.4-1.8-0.8-3.5-1.3-5.3
		c0.7,0.6,1.1,1,1.9,1.7c-0.3-1.8-0.5-3.1-0.7-4.4c0.6,0.9,0.7,1.9,1.8,2.7c-0.2-1.7-0.4-3.2-0.6-5.2c0.7,1.2,1.1,1.8,1.3,2.1
		c2.4-1.7,1.4-4.2,2-7.6c0.2,1.9,0.3,2.6,0.4,3.4c1.5-1.1,0.7-3.2,2-4.6c0.4,1.6,0.8,2.9,1.1,4.4c0.9-1.2,0-2.6,1.2-3.5
		c0.7,0.9,2.2,1.4,1.2,3.2c0.7-1.8,1.8-0.4,2.7-0.6c0.9-0.2,1,2.1,2.6,0.2c-0.9,3.2-1.5,5.7-2.4,8.1c-6.3,16.5-6.6,33.5-3.8,50.7
		c0.5,3.3,2,5.4,5.3,6.5c0-1.4,0-2.6,0-3.8c0-4.9,0.5-9.8,2.7-14.3c0.8-1.6,1.8-3.2,3.9-3.3c2.4-0.1,3.3,1.6,4.2,3.3
		c1.1,2,1.4,4.2,1.5,6.4c0.1,4.5,0,9,0,13.5c1.5-0.5,1.2-2,1.4-3.5c0.1,1.5,0,3.3,2.1,2.5c1.3-0.5,2.8-1.4,3.1-3.4
		C109.4,589,109.2,586.6,111.4,585.2z M571.7,565.7c0.5-1.3,0.8-1.9,1-2.5c2.7-10.1,0.1-19.5-3.8-28.8
		c-5.7-13.3-16.3-22.4-27.5-30.6c-12.2-8.9-23.5-18.5-29.2-33.2c-1-2.6-2.9-4.8-5-6.7c-11.4-10.1-24.8-11.4-38.8-7.5
		c-14,3.8-23.8,12.3-26.4,27.4c-1.1,6.8-1.8,13.6-2.6,20.5c-0.5,3.9-0.9,7.7-0.5,12.3c4-8.2,8-15.6,15.3-21.4
		c-2.7,4.5-5.2,8.3-7.3,12.3c-3.5,6.7-7,13.7-6.7,21.5c0.3,9.7,1.5,19.4,2.3,29.1c0,0.1,0.2,0.1,0.6,0.4c0-1.9,0-3.6,0-5.3
		c0.5,3.6,0.3,7.2,1.4,11c0.3-0.7,0.4-1,0.6-1.5c0.1,8.2,5.6,12.4,11.6,16.3c0.1-1.1,0.2-2.2,0.4-4.3c0.7,2.9-0.9,5.8,2.9,5.7
		c-0.2-1-0.4-2.2-0.6-3.5c1.8,1.6,0.3,6,4.7,4.9c-0.7-2.8-2.2-5.4-2.1-8.4c1.4,3.1,1.6,6.7,4.1,9.3c-1.4-4.3-3.7-8.3-2.9-13.1
		c0.1,2.1,2.7,1.9,3,4.7c0.3-3.2,0.1-5.4,1-7.5c0.8-1.7,1.5-3.8,3.6-4c2.1-0.2,3.3,1.6,4.2,3.3c0.9,1.7,1.6,3.4,2.7,5.7
		c-0.1-16.1-9.7-28.2-14.5-42.1c0.9,4.7,6.7,3.4,8.2,7.3c2.2-1,0.9,3.2,3.3,2.1c0.1-0.5,0.3-1.2,0.6-2.7c0.1,2.1,0.2,3.4,0.3,5.5
		c0.5-1.4,0.7-1.9,0.8-2.4c-0.9,2.2,1.9,2.8,1.8,5.3c0.7-2.2,1.2-3.7,2.1-6.6c-0.4,3.5-0.7,5.6-1.1,8.7c1.6-2,0.8-3.9,2.4-5.1
		c-0.4,2.4-1.3,4.4-0.5,6.8c0.7-1.6,0.1-3.3,1.9-4.9c-1.1,2.8-1.2,5.1-0.9,7.7c1.1-1.1,0.7-2.7,2.2-3.3c0,2-1.9,3.6-0.7,6
		c0.4-1.2,0.8-2.3,1.5-4.5c0.1,4-1.7,6.7-1,9.9c0.5-1.4,0.9-2.4,1.3-3.5c-1.7,11.3-3.7,22.5,1.5,34c1-2.5,0.3-5.1,2.6-7.3
		c-1,3.4-1.9,6.3-1.2,9.3c0.7-2.5,0.6-5.1,2.1-7.4c-0.4,3.1-0.7,6.1-1.1,9.1c1.6-3.6,1.5-7.5,3.6-11.6c-0.4,4.7-2.1,8.5-1.6,13.9
		c0.7-3.6,1.2-6.1,1.7-8.6c0.2,0,0.3,0.1,0.5,0.1c-0.4,2.7-0.8,5.5-1.2,8.2c1.7-2.9,1.1-6.4,3.5-10c-0.9,4.2-1.9,7.6-1.5,11
		c1.1-3.1,1-6.5,2.6-9.9c0.5,3.9-1.5,7.1-0.7,11.3c0.7-4,1.3-7.3,1.9-10.6c1.2,0.5,1.7,1.6,3,1.7c1.4,0.1,1.8,1.4,1.4,3.2
		c0.5-0.9,0.7-1.2,1-1.7c0.2,0.9,0.3,1.7,0.7,3.5c0.2-1.6,0.2-2.3,0.3-2.8c0.9-2.9,0.2-7.7,4-7.8c4-0.2,5.2,4.3,6.3,7.7
		c1,2.8,0.9,5.8,1.2,8.8c4.4-24.8-5.7-47.1-12-70.1c4.2,0.2,5.2,4.5,8,6.4c0.1-0.6,0.2-1.2,0.4-1.9c-0.5,2.2,1.7,3.4,1.4,6.5
		c0.8-2.3,1.2-3.4,1.7-5c0.4,2.1-1,3.7,0,5.2c0.3-1,0.7-1.9,1.1-2.9c0.1,0,0.3,0.1,0.4,0.1c-0.1,1.8-0.3,3.5-0.4,5.5
		c1-1.4,1.8-2.6,3.1-4.4c-0.7,2.6-2.1,4.2-1.7,6.6c1.5-1.9,1.3-4.6,3.6-6c-1.2,2.4-2.3,4.5-2.5,7.2c0.6-0.7,1-1.1,1.6-1.8
		c-0.1,1.2-0.3,2.1-0.4,2.9c1.1-2.2,2.3-4.2,4.1-5.8c-2.3,2.1-1.2,5-2.1,8.1c1.2-1.8,2.1-2.9,2.9-4.1c-0.7,2.3-2.3,4.3-2.6,6.8
		c0.6-0.4,1-0.7,1.8-1.4c-2.4,6-2.8,11.5-1.8,17.5c0.7,4.3,2.2,9.1,0.4,13.8c-0.1,0.2,0.1,0.5,0.1,1.1c0.5-1.1,0.9-1.9,1.5-3.2
		c-0.2,6.1-3.2,11.5-1.2,17.7c2.3-2.1,0.3-5.1,2.5-6.9c-0.4,2.3-1.2,4.5-0.1,6.8c1.4-1.3,0.1-3,1.2-4.4c0.1,1.5,0.2,2.8,0.3,4.1
		c1.2,0,2.2,0,3.4,0c0.1-1.3,0.1-2.5,0.2-3.7c1.5,0.9-1.2,3.7,2,3.7c2,0,2.6-0.8,2.4-2.8c0.2,2.4,1.3,2.8,3.2,1.9
		c-0.3-2.8-1.8-5.4-0.9-8.5c0.5,1.3,0.9,2.3,1.6,4.2c-0.7-4.8,1-8.3,1.8-12c0.3-1.5,1.1-2.6,2.7-2.9c1.8-0.4,2.9,0.6,3.7,1.9
		c1.3,2.3,2.5,4.6,4.3,7.9c5-26.1-5.6-46.8-19.8-66.7c3.1,0.2,3.5,4.3,6.6,2.8c0.2,0.4,0.6,1.1,1.1,2.1c0.3-0.9,0.5-1.4,0.7-1.9
		c0.6,2.3,2.8,3.5,3,5.8c1.7-1.4,0.6-3.3,1.3-5.4c0.4,2.8-0.6,5.2,0.7,8.7c0.1-2.6,0.1-4,0.3-5.4c0.1-1.2,0.4-2.5,0.7-3.7
		c-2.4,5.9,1.1,10.6,3.2,15.4c0.1-0.2,0.3-0.5,0.6-1.1c0.1,1.5,0.2,2.5,0.3,3.9c1.9-2.6,0.3-5.7,2.2-8.5c-0.4,3.1-0.8,5.6-1.1,8.2
		c-0.1,1.1,0,1,0.6,1.4c1.7,1.4,0.5-1.5,1.8-0.9c0,1.2,0,2.6,0,5.2c0.6-2.9,1-4.5,1.3-6c-2.5,6.5,5.1,10.9,3.5,17.2
		c0.5-0.8,0.8-1.5,1-2.3c0.5-1.9,0.7-4.3,3-4.7c2.4-0.5,3.9,1.4,5.3,3.2C570,557.9,571,561.3,571.7,565.7z M426.5,440.6
		c1.5,0.3,3.7-0.1,2.2,2.7c3.4-1.3,6.6-2.4,9.8-3.6c-2.5,1.7-5.3,2.9-7.9,4.4c-2.5,1.4-4.8,3.4-7.5,4.4c-2.8,1-5.5,1.8-7.1,4.2
		c12.5-4.8,23-14.7,37.5-14.4c-4.3-0.2-5.8,3.7-8.7,5.7c2.4-0.5,4.8-1.1,7.2-1.6c-5.7,1.6-10.8,3.9-14.5,8.6
		c3.4-1.2,6.9-2.7,10.5-3.8c7.6-2.3,8-2.3,10.6-1.6c-7.8,7.1-18.9,9.8-25.6,18.7c0.7,0.3,1.2-0.9,1.9-0.2
		c-3.9,3.3-8.5,5.7-12.2,10.6c33.4-20.6,33.4-20.6,57.2-26.5c-6.2-5-13.8-6.5-21.3-9.7c4-0.9,7.3-0.5,10.7-0.3
		c-3.4-11.3-19.2-31.5-31.6-39.1c-5.3-3.2-8.6-6.9-10.5-12.8c-1.7-5.5-5.5-9.9-11.6-12.7c1.3,2.4-0.2,5,3,6.4
		c-1.3-0.1-1.8-0.2-2.3-0.2c-0.6,1,1.5,0.8,0.6,1.6c-1.9,1.7-1.4,4-1.2,5.7c1.2,8.2,2.3,16.4,2.9,24.6c0.1,1.2-0.7,4.3,2.8,3.5
		c-0.9,0.9-2.8,0.5-2.2,2.5c1.1-0.3,2.2-0.6,3.3-0.8c-5.7,1.8-0.2,4.3-0.6,6.5c3.3-0.8,6.5-1.6,9.7-2.4c0,0.1,0,0.2,0.1,0.3
		c-3.1,1-6.1,2-9.2,3c0.1,0.3,0.2,0.6,0.3,0.9c2.9-0.8,5.7-1.6,8.6-2.4c0,0.1,0.1,0.3,0.1,0.4c-2.7,1-5.5,2.1-8.2,3.1
		c3.7,0.3,6.8-1.7,11.1-1.5c-3.9,1.3-7.4,1.8-10.2,4.1c4.6-1.1,9.2-2.2,13.8-3.2c-4.4,1.9-9.3,2.5-13.4,5.4
		c4.9-1.3,9.8-2.6,14.7-3.9c-4.7,2.3-9.9,2.8-14.3,5.9c2.9-0.8,5.8-1.6,8.7-2.4c0,0.2,0.1,0.3,0.1,0.5c-3,1.1-5.9,2.1-8.9,3.2
		c0.1,0.2,0.2,0.5,0.3,0.7c5.1-1.3,10.3-2.7,15.4-4c0,0.2,0.1,0.3,0.1,0.5c-5.1,1.6-10.3,3.2-15.4,4.8c0.1,0.3,0.2,0.5,0.2,0.8
		c5.3-1.2,10.7-2.5,16-3.7c-5.2,2.2-10.9,2.7-15.7,5.7c5.8-1.4,11.4-3.2,17.4-3.3C437.5,436.9,432,438.5,426.5,440.6z M141.5,329.8
		c-1.5,1.1-2.5,1.9-3.5,2.6c-0.1-0.2-0.2-0.4-0.3-0.5c2.3-2.4,4.5-4.8,6.8-7.1c-0.1-0.1-0.3-0.3-0.4-0.4c-2,1.7-3.9,3.5-6.8,6
		c6-9.8,13-17.3,20.2-24.6c-1.1-0.1-1.7,0.2-2.2,0.6c-9.5,5.6-19.2,10.6-29.8,13.9c-8.4,2.6-13,13.1-9.5,21.2
		c0.7,1.6,1.4,0.6,2.2,0.2c-0.1,1.3-1.5,1.9-1,3.1c2.3-0.3,3-2.5,5-3.9c-0.5,3.3-3.6,5-3.6,8.9c3.2-5.3,5.9-10.1,10.1-13.7
		c-3,4.6-6.7,8.7-8.5,14.1c2.1-3.2,4.2-6.4,6.3-9.6c-1.6,5-5.2,9.2-4.8,15.4c1.2-2.6,2.1-4.8,3.7-8.1c-0.6,4.4-2.6,7-2.5,11.4
		c1.4-3.4,2.3-5.6,3.2-7.7c-0.2,2.5-1,4.7-1.8,6.9c-0.9,2.5,2.3,3.5,2.2,5.9c0.4-0.8,0.7-1.6,1.1-2.3c-0.4,2.4,0.3,4.4,1.4,6.4
		c2,3.6,1.6,7.2-0.2,10.8c-0.5,1-0.7,2.1-1,3.1c-0.2,0.8-1,1.7,0,2.4c0.8,0.6,1.8,0.1,2.5-0.4c3.5-2.2,5.8-5.4,7.8-8.9
		c4.9-8.6,8.4-17.8,12-27c5.7-14.5,10.5-29.3,19.2-42.3c2.3-3.5,4.9-6.9,8.7-8.9c6.5-3.6,12.5-0.2,12.7,7.3c0.1,1.9,0,3.8,0,5.8
		c4.4-4.3,8.1-9.2,12-14.3c-1.9-0.7-3.8-1-5.5-2.1c-11-7.5-21.1-6-29.4,4.4c-5.5,6.9-9.7,14.6-13.1,22.8
		c-4.5,11.1-8.7,22.3-13.2,33.3c-1.2,3-2.3,6.2-5.7,8c0.9-4,1.8-7.7,2.5-11.4c0.7-3.5,1.2-6.9,1.7-10.3c-0.3,0.1-0.8,0.3-1.6,0.6
		c0.7-1.4,1.2-2.4,2.2-4.2c-1.3,0.9-1.8,1.3-3.2,2.3c1.4-2.3,2.3-3.7,3.2-5.1c-0.3-0.2-0.6-0.5-0.8-0.7c-0.4,0.8-0.7,1.6-1.1,2.4
		C138.4,333.2,140.6,332.1,141.5,329.8z M316.1,440c-4.7,0.6-8.8,1.1-12.2-2.1c-2.7-2.5-3-7.1-0.6-9.5c2.9-2.8,5.5-1.9,7.9,0.8
		c0.5,0.6,1.1,1.5,2,1c1.1-0.7,1.2-2,1.3-3.2c1.1-11.2-10.2-21-21.5-17.4c-7.6,2.4-15.4,4.2-22.9,6.8c-8,2.8-14.1,10.9-13.9,17.5
		c0.2,4.2,5.3,9,10.1,9c4.8,0.1,2.4-4.3,3.5-6.5c0.8-1.7,0.8-3.9,3.3-4.1c4.3-0.4,7.9,0,10,4.9c2.4,5.8-0.4,11.4-6.8,12
		c-1.8,0.2-3.7,0.4-5.8,0.7c3.2,3.5,8.9,4.5,12.3,2.4c6.4-3.9,9.3-9.3,7.6-13.9c-0.8-2.2-1.7-4.5-2.4-6.8c-0.5-1.6,0.2-3,1.6-3.9
		c1.4-0.9,2.5,0.2,3.4,1c2.2,1.9,4,4.1,5.2,6.9c1.6,3.9,3.8,7.4,6.2,10.8c2.7,3.7,5.2,3.7,7.6-0.1
		C313.4,444.7,314.6,442.6,316.1,440z M246.7,536.7c-4.7-2.8-9-5.8-12.9-9.4c-7.1-6.5-9.8-9.8-9.3-11.5c1.7,0.3,2.2,2.3,3.8,2.7
		c-10.3-10.3-19.5-21.4-25.7-35.1c-4.7,5.6-5,9.4-1.7,14.6c1.1,1.8,2.3,3.5,3.5,5.2c10,14.4,21.6,27.1,38.9,32.9
		C244.3,536.5,244.7,538.9,246.7,536.7z M146.3,464.4c3.9,5.1,8.9,8.9,13,12.3c-0.8-10.2-7.3-18.4-12.3-27.4c2.8,4,5.2,8.3,8.9,11.7
		c-3-3.3-3-8-6.5-11.4c-3.7-3.5-4.4-8.9-5-14.6c-0.6,1-1,1.4-1.2,2c-2.2,5.1-3.1,10.4-2.4,16c0.3,2.1,0.7,5.8-0.8,6.1
		c-2,0.4-1.5-3-2.2-4.6c0-0.1-0.3-0.1-0.4-0.1c-0.3,1.1,0.6,2.3-0.2,3.3c-1.4,0.4-1.4-1.4-2.4-1.6c-0.6,4.7,4.3,10.2,9.7,10.9
		c0.6,0.1,1.5,1.1,2.3-0.1C147.5,465.8,145.5,465.6,146.3,464.4z M150.5,487.9c-5.7-6.2-12.6-10.5-20.2-14c3.7,1,7.5,1.9,11.8,3.1
		c-5.6-4.1-13.1-4.4-15.3-11.3c-1.8,0-0.6,1.7-1.4,1.9c-5.1-1.9-9.1,0.4-13.9,2.8c7.9,1.3,14.2,4.4,20.7,7.2
		C138.7,480.3,144.6,484.2,150.5,487.9z M137.2,551.9c-4,5.2-2.9,23.8,1.9,27.6C137.9,570.1,140.4,561.1,137.2,551.9z M34,558.7
		c-3.8,7.6-3.1,22.2,0.9,24.7c1.2-2.6-0.6-5.3,0-8.4c0.3,0.9,0.4,1.2,0.6,1.6c0.1-0.1,0.1-0.1,0.7-0.6
		C33.5,570.9,38.2,564.6,34,558.7z M434.4,475.9c-7.8,3.7-12.4,10.9-17.8,17.4c5.1-3.6,8.1-9.4,14.1-13.9c-5.1,6-9.3,11-13.6,15.9
		C424.6,490.3,431.4,484.7,434.4,475.9z M97.3,579.3c-4,7.8-3.3,20.8,1.2,24.8C98.2,595.9,96.6,588,97.3,579.3z M478.7,582.4
		c-1.1,3.9-2.1,7.5-3.1,11.1c2.6,0,5.2,0,8.1,0C481.3,590.1,479.8,586.5,478.7,582.4z M68.9,584.7c-1.8,7,0.6,13.8,1.2,20.6
		C71.6,598.4,70.6,591.5,68.9,584.7z M568.8,576.3c0.9-12-2.5-22.2-7.4-22.9C566.5,559.9,566.9,567.8,568.8,576.3z M471.2,565.9
		c1.7,8,2.6,16,2.6,24.2C476.3,581.7,474.8,573.7,471.2,565.9z M298.1,530.7c6.1,2,11.3,3.8,15.3-1.6
		C308.6,529.9,303.8,530.6,298.1,530.7z M548,600.6c1.3-6.1,0.4-12-2.8-17.6c0.2,2.5,1,4.8,1.3,7.2c0.3,2.4,0.3,4.9,0.4,8.3
		c0.4-1.4,0.5-1.8,1-3.5C548,597.9,548,599.3,548,600.6z M113.9,584.4c-1.8,2.8-2.7,5-2.4,8.2C113.1,590,113.7,587.7,113.9,584.4z"
		/>
	<path d="M441.5,466.1c-6.4,4.6-13.9,7.7-19.2,14c-1.5,1.8-2.8,3.9-5.1,4.8c1.3-2,2.6-4,3.9-6c5.5-4.3,11.1-8.5,17.5-11.6
		C439.4,466.8,440.2,465.9,441.5,466.1z"/>
	<path d="M297.6,508.2c0-0.2,0-0.4,0-0.6c0.2,0.1,0.4,0.3,0.6,0.4C298,508.1,297.8,508.1,297.6,508.2z"/>
	<path d="M350.8,382.6c0.2-0.5,0.3-1,0.6-1.6c0.2,0.8,0.3,1.5,0.5,2.6c0.3-0.8,0.4-1.2,0.6-1.8c0.4,0.9,0.5,2.5,1.9,0.9
		c0.1-0.1,2,0.8,2.7,1.5c3.8,4.2,8.9,5.6,14.2,6.3c2.7,0.4,4.9,0.8,7.5,2.2c2.2,1.2,5.8,4.7,9.7,2.2c-6.3,6.1-13.5,0.9-20.2,1.7
		c-2,0.2-4.1-0.5-7-0.9c3.4,3.7,6.3,6.9,9.2,10.1c-5-2.3-9.1-5.8-12.8-9.6c-19.3-20.1-42.8-23.7-68.6-17.1
		c-12.1,3.1-24.5,5.5-35.6,11.7c-18.1,10.1-29.9,25.2-33.7,45.6c-1.4,7.4-7,10.3-11.8,15.9c1.1-4.4-0.1-5.3-3.3-4.4
		c-9,2.5-16.4,6.7-19.8,17c-0.7-8.5,3.6-13.5,8.7-18.2c3.9-3.6,9-4.8,13.2-7.8c4.7-3.3,7.3-7.6,8.8-13.1c1.6-5.9,5.8-10.6,8.8-15.8
		c4.8-8.1,12.2-13.6,18.8-19.8c4.4-4.1,11-5.4,17.2-6.4c8.4-1.4,17.1-2,25.1-5.2c6.6-2.7,13.1-5.2,20.3-5.9
		c10.5-0.9,20.9-0.6,30.9,3.1C341.6,377.9,346.8,379,350.8,382.6z"/>
	<path d="M242,305.1c0.3,0.3,1,0.9,2,1.8c-0.1-0.9-0.1-1.4-0.2-2.2c0.8,0.7,1.5,1.3,2.5,2.3c-0.2-1-0.3-1.6-0.4-2
		c9,2.7,14.2,9.2,17.2,18.1c-0.2-9.6,2.1-18.3,8.8-24.8c6.1-5.9,13.3-10.3,22.4-5.8c-0.5,0.9-1.8,0.7-2.8,1.1
		c-1.1,0.4-2.3,0.6-3.5,0.9c-11.7,3.1-19,12.7-20,24.7c-1.3,15.8,3.3,29.1,15.4,39.6c2.4,2.1,4.7,4.3,7.9,7.3
		c-5.2-0.4-6.5-4.7-10-5.4c-4.3,5.4,1.9,9.1,2.8,13.7c-4.4-0.3-4.4-0.3-13.9-17.7c-0.7,4.1,1.3,7.9-0.3,11.9
		c-1.5-4.2-5.4-6.7-6.4-11.1c2.2-1-0.8-2.5-0.6-3.9c0.5-2.9-0.2-5.7-0.2-8.5c0-4.1-0.4-8.2-0.8-12.2c-0.6-6.6-3.5-12.7-9.8-16.4
		c-6-3.6-12.4-3.5-18.8-1.8c-4.1,1.1-8,2.7-13,4.5c3.6-4.3,7.3-6.9,11-9.2C234.5,307.8,238.2,306.7,242,305.1z"/>
	<path d="M359.3,348.5c-6.9-4.1-13.6-8.4-20.7-11.9c-9.6-4.8-16.8-2.5-19.3,8.8c-1,4.7-1.6,9.4-2.7,14.1c-1.1,4.8,1.9,8.1,7.3,7.3
		c-0.6-1-1.1-1.9-2-3.4c2.7,0,4.8,0.1,7,0c10.2-0.4,19.5-2.5,24.1-13.2c0.8-1.8,1.8-0.9,2.9-0.6c2.2,0.8,3.7,2.9,6.5,2.9
		C362,350.5,360.7,349.3,359.3,348.5z M336.3,341c4.3,0,4.3,6.7,0,6.7C332,347.7,332,341,336.3,341z M340.5,354.3
		c-3.4,3.5-8.6,3.9-13.2,1.3c-3.3-1.9-4.4-3.8-3.6-7.2c1.4,2.6,2.9,5,5.5,5.6c2.4,0.6,5.3,0.8,7.6,0c4.2-1.5,5.5-5.4,6.2-10.3
		C344.3,348.3,343.2,351.6,340.5,354.3z"/>
	<path d="M233.4,382.2c-2.3-5.3-5.1-10.4-8.4-15.1c-1.1-1.6-2.3-3.3-4.8-3.5c-7.6-0.9-12.7,2.9-16.1,8.9c-3.6,6.5-7.4,12.7-13,17.7
		c-2.3,2.1-4.4,4.8-3.9,9.1c3.6-3.3,6.8-6,9.8-8.9c1.5-1.4,2.6-2,4.6-0.6c2.6,1.9,5.8,2.4,9.1,2.6c6.2,0.2,11.7-2.1,17.3-4.2
		c1.1-0.4,2.3-1.2,3,0.5c0.3,0.8,0.3,2.1,1.5,1.7c0.6-0.2,1.2-1.4,1.3-2.2C234.2,386.1,234.2,384.1,233.4,382.2z M218.9,370.5
		c4.3,0,4.3,6.7,0,6.7C214.6,377.2,214.6,370.5,218.9,370.5z M220.6,384.6c-3.5,1.9-7.1,1.8-10.4-0.7c-2.2-1.7-3.9-3.8-3.5-7.8
		c6.7,9.6,12.7,9.2,18.8-1C225.4,379.3,224.2,382.6,220.6,384.6z"/>
	<path d="M280.3,308.4c0.1,0.1,0.4,0.5,0.7,0.8c1.6-4.5,5.8-7.2,9.3-8.3c7-2.2,14.6-3.3,22.2,1.3c-3.2,1.6-6.3,1.2-9.1,1.6
		c-9.5,1.4-17.2,5.1-20.9,14.6c-3.3,8.6-0.6,18.9,5.9,25.4c1.4,1.4,3.7,2.5,4.2,5c0.3,1.5-1,0.3-0.9,1.2c1,0.4,2.1,0.9,3.6,1.6
		c-6.7,0.4-12-2.8-14.8-7.4c-3.1-5.1-5.1-11-4.8-17.7c0.2-4.3,0.4-8.4,1.7-12.4C278,312.1,279.3,310.4,280.3,308.4z"/>
	<path d="M193.2,378c-2.3-4.8-2.3-4.8-4.6-2.9c1.1-2,0.2-4.4,1.1-6.6c-1.1,1-2.2,2-3.2,2.9c3.8-2.4,2.2-6.8,3.7-10.4
		c-0.7,0.5-1.2,0.8-1.4,0.9c0.8-6.2,4-11.9,6.8-17.6c1.2-2.4,2.9-4.9,4.3-7.4c0.7-1.1,1.1,0.8,1.6-0.1c-0.1-1.4-0.3-2.8-0.5-4.6
		c0.8,0.6,1.3,1,2.4,1.8c-1.4-2.5,1.9-2.7,0.4-5.1c1,0.6,1.4,0.9,1.8,1.1c-0.1-2,1.9-3.9,0.7-6.1c0.4,0.8,0.8,1.5,1.5,2.8
		c0.8-4,3.7-6.3,4.2-10.3c0.2-1.9,3.9-4.8,5.7-7.4c2.1-3,5.2-4.3,8.4-5.8c-1.2,1.8-2.4,3.5-3.6,5.4c-1.8,3-4.1,5.8-5.3,9
		c-4.9,12.3-10.9,23.8-19.9,33.7c-4,4.4-5,10.1-5,15.8c0,2.9,1,5.8,1.7,8.6C194.1,376.6,194.2,377.3,193.2,378z"/>
	<path d="M251.6,412.5c12.6-15,30-20,48.6-20.8c13.3-0.6,27-0.3,37.6,10.1C307.1,391,278.3,392.7,251.6,412.5z"/>
	<path d="M230.7,323.4c2.8,0.8,4.8-1.5,7.2-1.8c5.7-0.7,9.8,1.7,12.3,6.8c4.1,8.4,3.2,17.4,2.5,26.2c-0.1,1.4,0.4,3-1.1,4.4
		c-0.6-5.6,0.3-11.2-1.4-16.6c-2.2-7.3-6.6-12.1-14.4-13.4C233.2,328.5,231.1,326.9,230.7,323.4z"/>
	<path d="M231.9,345.8c0.5,0.3,1.2,0.6,1.8,1c-3.4,1.6-0.4,3.4-0.9,5c-1,3.2,0.8,7.2-2.4,9.8c0.5-2.2,1-4.4,1.5-6.6
		c-1.3,1.7-3.2,2.5-4.6,4.3c0.1-1.3,0.2-2.4,0.4-4.8c-1,2.3-1.4,3.3-2.1,5c-0.1-1.5-0.1-2.5-0.2-3.5c-0.9,0.1-1.1,1.8-1.5,1.2
		c-1.3-2.1-4-2.5-5-4.9c-1.1-2.5,0.5-4.2,1.5-5.7c1.6-2.6,3.8-5,6.5-6.6c2.4-1.4,4.9-1.7,6.9,0.7
		C236.2,343.6,232.4,343.9,231.9,345.8z"/>
	<path d="M350.1,314.1c-2.1-0.6-1.8,1-1.2,3.5c-12.1-11.9-23.9-22.3-35.6-33c5.2,1.7,10.3,3,14.6,6.7c2.9,2.4,5.3,5.2,8,7.7
		c3.7,3.3,6.6,7.2,10,10.7C347.3,311.1,348.7,312.6,350.1,314.1z"/>
	<path d="M188,346c2.2-16.6,10.7-30,21.7-42C204.5,319,193.5,331.1,188,346z"/>
	<path d="M314.9,312.1c-17.6,2.4-26.7,7-27.8,23.2C281.3,321.9,292.7,305,314.9,312.1z"/>
	<path d="M192.5,429.7c2.7-3.5,6-5,8.9-7.1c5.3-3.8,7.8-10.1,11.6-15.3c2-2.8,4-5.6,8.4-7.5c-4.8,6.1-6.5,12.5-9.9,18.2
		C207.2,424.9,200.3,427.4,192.5,429.7z"/>
	<path d="M313.2,386.7c-19.4-0.9-38.2,1-55.5,11.1C263.8,389.8,294.1,380.9,313.2,386.7z"/>
	<path d="M324,318.9c15.1-2,29.4,9.5,28.7,19.7c-4.1-4.3-6.8-9.5-11.8-12.5C335.8,323.2,329.9,322.1,324,318.9z"/>
	<path d="M313.4,333.4c-3.2-0.5-6.6,1.6-9.6-1.7c-1.2-1.4-1.4-2.3-1.1-3.6c0.5-1.8,2-2.8,3.8-3.2c4-0.9,6.3,2.4,9.4,3.9
		c0.8,0.4,2.2,1.4,1.5,2.8C316.6,333.2,315.3,334,313.4,333.4z"/>
	<path d="M235.4,426.5c1.8-8.7,10.8-18.3,19.8-19.3C247.2,413.1,241.7,420.1,235.4,426.5z"/>
	<path d="M302.5,289.7c9.6-0.9,14.5,5.2,20.4,9.2C316.3,296.5,309.5,294.5,302.5,289.7z"/>
	<path d="M201,362.4c3.1-8.6,6.3-15.8,12.4-21.4C209,347.5,208.2,356.1,201,362.4z"/>
	<path d="M338.7,312.4c-7.6-3.4-15-2.5-22.3-5.3C324.8,304.8,331.9,306.4,338.7,312.4z"/>
	<path d="M397.3,280c-1.2-0.3-1.6-0.4-2.5-0.7c0.9,1.1,1.6,2,2.4,3c-4.8-1.9-8.8-4.3-10.8-9C390.3,274.3,393.8,276.4,397.3,280z"/>
	<path d="M280.2,470.9c0-0.1,0-0.1,0-0.2C280.2,470.8,280.2,470.9,280.2,470.9L280.2,470.9z"/>
</g>
</svg>
