<?xml version="1.0" encoding="utf-8"?>
<!-- Generator: Adobe Illustrator 24.2.3, SVG Export Plug-In . SVG Version: 6.00 Build 0)  -->
<svg version="1.1" id="Layer_1" xmlns="http://www.w3.org/2000/svg" xmlns:xlink="http://www.w3.org/1999/xlink" x="0px" y="0px"
	 viewBox="0 0 595.3 841.9" style="enable-background:new 0 0 595.3 841.9; fill: #215342;" xml:space="preserve"
	 height="350" width="500" transform="translate(-150, -69)">
<g>
	<path d="M252.7,388.8c3.9,2.2,4.9,6.5,7.7,9.8c0.2-0.5,0.5-1.1,1-2.3c1.4,2.9,2.6,5.4,3.8,8c0.5-2.8-2-5.7,1-8.8
		c1,2.7,1.9,4.8,3,7.7c0-2.4,0-4.1,0-7.8c1,4.5,1.5,7,2.4,11.3c0.4-4.9,0.7-8,1.1-12c0.8,2.2,1.3,3.7,2.3,6.3
		c-0.3-3.5-0.4-5.6-0.6-8.9c1,2.4,1.6,3.7,2.2,5.1c1.4-3.9-1.3-12.9-5.6-20.7c-3.9-7-10.4-10.7-16.9-14.5
		c-6.4-3.8-13.2-6.2-21.3-8.6c7.9,0.3,14.3,2.7,21.5,5.3c-5.1-4.3-10.2-6.4-16.5-9.6c7.8,1.1,13.3,3.9,19.9,7
		c-5.7-5.5-11.4-8.7-18.7-11.9c6.8,0.9,11.7,3.4,17.3,6.2c-4.3-5.6-10.1-7.7-16-11c7.5,1.3,13.5,4.1,20.2,9
		c-4.9-6.5-10.2-9.8-16.6-13.9c6.3,1.1,10,4.4,14.7,7.6c-3.3-5.5-7.9-8.3-11.7-12.1c2.8,1.5,5.5,2.9,9.5,5c-3.2-3.4-5.5-5.8-8.9-9.4
		c3.1,1.7,4.9,2.7,7.2,4c-2.4-6.2-3.6-12.2-3-20.3c1.3,7.4,2.3,13,6.2,18.7c-1.7-6.4-2.6-12-1.8-18.9c0.7,5.8,1.6,10.3,4.9,15.1
		c-1.3-7-1.9-13.1-0.3-19.9c0.7,7.7,2,14.5,6.6,21.4c-1.9-6.6-3.3-12.3-2-19c1.3,4.3,2.4,7.9,4.1,13.4c0.8-7.1-0.7-12.5,2.2-17.7
		c0.1,6.3,0.3,12,5.1,16.2l-0.1-0.1c3.3,5.4,6.6,10.8,9.9,16.2c-0.2,0.1-0.4,0.3-0.6,0.4c-2.7-3.1-5.4-6.2-8-9.2
		c6.2,10.7,14,20.4,17.8,32.4c-4.3-7.4-8.7-14.8-15.2-23c3.7,7.6,6.6,13.5,9.5,19.4c-5.9-7.1-10.7-15.1-21.2-20.3
		c12.2,12.8,19.5,26.1,24.1,43.4c-3.1-6.1-4.9-10.2-7.2-14.1c-2.3-3.9-5-7.6-8.1-11.1c2.6,5.1,5.1,10.2,7.7,15.3
		c-0.2,0.1-0.4,0.3-0.6,0.4c-2-2.9-4-5.9-6-8.8c-0.2,0.1-0.5,0.2-0.7,0.3c2.6,5.8,5.2,11.6,8.6,19.3c-3.3-4.1-5.3-6.7-7.3-9.3
		c5.8,11.1,10.4,22.9,17.9,33.6c-0.4-2.2-0.8-4.1-1.2-6c3.8,7.4,5.1,15.4,5.2,24.8c2.5-8.2,2.1-15.3,0.8-22.5
		c4.5,6.6,4.1,23.7-0.9,32.2c-6.2,10.6-17.5,13.4-28.7,17.5c1.9,0.3,3.1,0.5,4.2,0.7c-3.2,8.9-11.8,11.7-18.3,17
		c-4,3.3-7.8,6.7-11.8,10.1c-1.1,0.5-2.3,0.9-3.4,1.4c-5.3,1.7-10.7,2.3-17.7,2.3c3.1-0.7,4.9-1.1,8.8-2.1c-5.9,0-9.5,0-13.2,0
		c0-0.2,0-0.3,0-0.5c2.9-0.4,5.9-0.7,9.8-1.2c-7.9-1.1-14.8-1.7-21.8-4.2c2.4,0.2,4.4,0.3,8.1,0.6c-6.2-1.4-10.9-2.5-16-3.6
		c1.2-0.2,1.9-0.3,3-0.5c-1.3-0.4-2.3-0.8-4.1-1.4c2.1-0.2,3.3-0.3,5.1-0.5c-3.6-1.1-6.7-2.1-11.2-3.5c3,0,4.5,0,7.1,0
		c-6.6-3-12.4-3.8-18.9-1.1c3.3,0.6,6,1,8.7,1.5c0,0.2,0,0.4-0.1,0.7c-1.2,0.1-2.3,0.1-3.8,0.2c1.3,0.6,2.3,1.1,4,1.9
		c-3.1,0.9-5.3,1.5-8.3,2.4c3.7,0.2,6.7,0.3,9.3,2.2c-2.5,1.5-5.7-0.9-7.9,2c0.9,0.4,1.8,0.7,3.1,1.2c-1.9,0.8-3.4,1.4-5,2.1
		c3.3,1.1,6.4,2.7,9.9,2.6c-3.3,0.5-6.5,1-10.6,1.6c6.4,3.6,10.1,9.8,18.7,9.7c-6.5,2.5-11.5,0.3-16.7-1c5.4,3.2,8.4,9.8,16.8,10.7
		c-6.3,1-10.4-1.4-14.9-2.5c5.7,3.7,10.4,9.3,18.7,8.8c-2.7,2-5.4,1.5-8.4,2.1c5.4,3.5,11.2,4.4,17.6,5.9
		c-5.8,4.3-10.9,0.2-17.1,0.3c7.9,4.4,15.5,7.3,21.9,13.1c-1.7,0.5-2.9,0.8-3.3,0.9c8.1,7.3,17.9,12.7,28.8,15.5
		c-0.1-0.3-0.2-1.3-0.5-2.8c4.8,2.8,6.3,7.5,9.1,12.6c-0.3-2.7-0.4-4.5-0.6-6.7c4.1,3.1,6.1,7.1,7.4,11.6c0.9,0.1,0.8-1.5,2.3-0.8
		c9.3,4.5,17.9,9.5,24.3,18c4.2,5.6,11.2,6.3,17.5,6c12.8-0.6,27,1.9,35.4-12.3c0.4-0.6,1.8-1.9,3-3.2c0.1,0.9,0.2,1.5,0.4,3.7
		c0.4-2.9,0.6-4.3,0.9-5.9c-13.4,9-28.2,10.2-43.2,7.8c-6.2-1-12.4-3.7-17.1-8.6c-10.4-10.7-20.1-22-32.3-30.8
		c-2.9-2.1-6.1-4.4-7.2-8.8c-0.3,1.1-0.5,1.7-0.5,1.8c-2.5-2.8-5.2-5.8-8-8.9c0,1,0,1.9,0,3.4c-0.9-1.4-1.4-2.4-2.3-3.9
		c0.1,1.3,0.1,2.1,0.2,4c-1.2-2.5-2-4.1-2.7-5.6c-1.6,0.7-3.2,1.3-5.3,2.2c1.2-2,2.2-3.6,3.3-5.3c-0.7,0.3-1.4,0.6-3.2,1.3
		c3.7-4.2,7.3-6,12-5.6c2.6,0.2,3,2.2,3.8,4.2c4.3,9.6,11.1,17.3,19.4,23.6c0.1-0.2,0.3-0.7,0.6-1.7c2.2,5.7,8.9,1.5,11.7,5.8
		c-0.4-0.8-0.8-1.7-1.2-2.5c1.2,1.5,3.9,0,4.7,3.3c0.2-1.5,0.2-2.1,0.4-3.3c0.9,1.3,1.6,2.3,2.8,4c0.2-1.8,0.3-2.5,0.4-3.5
		c0.9,0.8,1.5,1.4,2.4,2.3c0.3-0.9,0.5-1.6,0.5-1.7c4.1,1.4,7.5-0.2,10.9-1.8c0.1,0.6,0.1,1.2,0.2,1.9c1-1.1,1.9-2.1,3.2-3.6
		c-0.2,1.4-0.3,2.2-0.6,3.7c1.6-1.9,2.7-3.4,4.3-5.3c-0.3,1.6-0.5,2.4-1,4.7c1.7-2.4,2.6-3.7,4.3-6.1c-0.7,2.2-1,3.2-1.9,6.2
		c2.1-3.1,3-4.4,4.2-6.1c-0.1,1.2-0.2,2-0.3,2.9c5.2-4.3,10.4-8.3,8.6-16.8c-0.7,1.2-1,1.8-1.5,2.7c-0.2-1.1-0.3-2-0.6-3.5
		c-0.8,2.5-1.4,4.5-2,6.5c-0.2,0-0.4-0.1-0.6-0.1c0.1-2,0.3-4,0.4-6c-0.2,0-0.3-0.1-0.5-0.1c-0.4,1.5-0.8,3-1.3,4.4
		c-0.2,0-0.4-0.1-0.6-0.1c0.1-1.7,0.3-3.3,0.4-5.6c-0.9,2.2-1.5,3.9-2.4,6.2c0-2.8,0-4.9,0-9.5c-1,4.5-1.4,6.6-2.2,10.2
		c0-3.8,0-6.1,0-9.2c-0.5,2.7-0.9,4.5-1.3,6.2c-0.2,0-0.4-0.1-0.5-0.1c0-1.9,0-3.8,0-6.4c-0.7,3.2-1.3,5.8-1.9,8.4
		c-0.1,0-0.3-0.1-0.4-0.1c0.3-3.3,0.5-6.6,0.8-9.9c-0.2,0-0.3,0-0.5-0.1c-0.6,2.3-1.1,4.5-1.8,7.3c-0.3-4.2-0.5-7.7-0.8-11.2
		c-0.2,0-0.4,0-0.7,0.1c-0.1,1.7-0.2,3.4-0.4,5.1c-0.4-4.2-0.9-8.2-7.5-10.2c7.7,0.1,12.9,3.9,19,3c-4.2-5.7,7.3-8.2,1.9-13.6
		c0.8,8.7-6.1,8.4-11.7,9c-8,0.9-15.2-3.5-17.7-10.5c-2.5-7-1.3-13.6,5.1-17.5c17.6-10.7,36.5-12.8,55.9-5.6
		c9.1,3.4,11.5,14.4,7,26.3c-1.4,3.8-4.3,7.3-2.6,11.9c-0.6-0.9-1.2-1.8-2.3-3.5c0.3,2.7,0.5,4.5,0.8,6.9c-0.9-1.1-1.5-1.8-3.2-3.8
		c1.5,3.3,2.3,5.1,3.1,6.9c-0.1,0.1-0.3,0.2-0.4,0.3c-1.1-1.5-2.1-3.1-3.2-4.6c-0.1,0.1-0.3,0.1-0.4,0.2c1.5,3.1,3.1,6.2,4.6,9.3
		c-0.1,0.1-0.3,0.2-0.4,0.4c-1.8-2.4-3.6-4.8-5.3-7.2c-0.2,0.1-0.3,0.2-0.5,0.3c2.2,3.7,4.4,7.5,6.7,11.4c-3.6-2.1-5.6-5.6-9.3-10.2
		c2.6,5.7,4.9,9.4,7.6,13c-2.9-2.9-5.8-5.7-9.5-9.4c2.7,3.7,4.8,6.5,7,9.5c-4.5-0.2-5.5-4.5-9.5-7.2c2.3,3.3,4,5.7,6.5,9.4
		c-2.1-1.7-3.1-2.4-4.3-3.4c0.4,4.5,3.6,6.1,7.1,8.2c-0.3-0.9-0.4-1.4-0.6-1.9c1.8,1,3.6,2,6.4,3.5c-1.7-1.9-2.6-2.8-4.7-5.1
		c3,1.7,4.5,2.6,6.4,3.6c-0.6-0.9-0.9-1.6-1.8-3c2.3,1.2,3.7,1.9,5.6,2.9c-0.5-1.1-0.9-1.9-1.6-3.3c2.1,1.2,3.5,2.1,5.8,3.4
		c-1.1-1.8-1.7-2.7-2.7-4.3c2.3,1.4,3.8,2.3,6.2,3.7c-0.9-1.5-1.4-2.3-2.3-3.9c2,1.1,3.4,1.9,5.3,2.9c-0.5-1.1-0.9-1.8-1.5-3.3
		c1.5,1,2.4,1.6,3.6,2.4c-0.2-1.2-0.3-2-0.4-2.8c1.4,0.1,2.1,2.4,3.9,0.8c-0.4-0.6-0.9-1.2-1.4-1.8c2.2,2.4,4,0.8,5.9-0.3
		c8.6-5,12.4-9.7,19.7-24.1c-0.8,0.3-1.4,0.5-2.8,0.9c2.7-4,5.9-6.1,10-5.4c5.2,0.9,6.7,4.6,5.7,9.8c-0.7-0.2-1.4-0.4-2.6-0.8
		c2,2.7-0.2,3.7-1.4,5.3c-1.5,2-1.3-1.6-2.7,0c0,0.3-0.1,1.3-0.3,2.6c-0.7-0.6-1.2-1.2-1.9-1.7c-0.3,1.5-0.5,2.9-0.8,4.5
		c-0.8-0.5-1.3-0.9-2.1-1.3c0.2,1.4,0.3,2.6,0.6,4.9c-1.2-1.7-1.7-2.5-2.4-3.5c-0.4,2.1-0.8,4-1.3,6.1c-0.2-1.3-0.4-2.5-0.6-3.6
		c-0.2,0-0.5,0-0.7,0.1c0.1,1.8,0.2,3.5,0.3,6.2c-0.9-2.1-1.4-3.2-2.3-5.4c0,3,0,5,0,9.1c-0.8-3.5-1.1-5-1.8-8
		c-0.5,3.5-0.7,5.4-1,7.7c-0.6-1.3-1-2.3-2.1-4.9c0.5,3.8,0.7,6,1,8.2c-0.2,0.1-0.4,0.1-0.6,0.2c-0.6-2-1.1-4-1.7-6
		c-0.3,0-0.6,0.1-0.9,0.1c0.2,2.4,0.4,4.8,0.9,9.2c-1.1-3.6-1.6-5.3-2-6.9c-0.2,0-0.4,0.1-0.6,0.1c0.1,1.6,0.2,3.3,0.5,7.2
		c-0.9-3.5-1.3-4.8-1.6-6.2c-0.2,0-0.4,0-0.6,0c0.1,1.3,0.2,2.7,0.3,5c-0.6-2-0.9-3.1-1.3-4.3c-0.3,0-0.5,0.1-0.8,0.1
		c0.2,3.6,0.3,7.1,0.5,11.6c7.9-6.8,15-14,23.1-19.8c10-7.1,15-16.4,15.5-28.7c2,1.7,1.8,3.7,2,6c2.1-11.9-7.9-15.9-29.3-12.3
		c4,4.2-3,25-10.9,31.8c1.2-3.5,2.3-6.7,3.4-9.9c0.1,0.2,0.3,0.6,0.5,0.9c2.4-4.7,0.7-10,2.1-16.5c0.4,4.2,0.7,6.8,0.8,7.4
		c-1.2-2.7,5.7-11.1-5.8-11.8c1.6-0.4,3.3-0.7,5-1.1c-2.3-4.1-5.6-7-9.6-9.4c1.5,0.6,3,1.1,4.7,1.7c-0.9-2.8-1.8-5.5-2.6-8.2
		c-2.6-7.9-8-13.2-15.4-16.4c-3.2-1.4-2.3-5.4-5.1-6.8c4,0.5,7,2.8,10,5.3c7.5,6.1,16,9.4,25.8,9c11.7-0.5,23.3-7.8,25-15.7
		c-18.8,18.3-31,18.9-52.6,2.8c-2.3-1.7-5.2-2.2-8.1-1.3c-2.7-1.8-5.5-3.6-8.4-5.4c3.4-3.8-1.3-4.1-1.8-6.2
		c-0.3-5.1-6.7-8.2-5.6-14.4c-1.1-0.9-2.6-2.2-4.5-3.8c0.5,1.8,0.9,3.1,1.6,5.4c-1.7-1.1-2.6-1.8-4.6-3.1c1.5,2.6,2.5,4.3,3.8,6.5
		c-5.4-1.7-8.1-5.6-11.7-11.3c1.2,3.9,1.9,6.1,3.2,10c-6.3-9.5-7.6-18.4-7.8-27.7c1.1,3.5,2.2,6.9,3.3,10.4
		c-1.6-9.1-2.3-18.2-0.3-28c0.5,6.5,1,12.3,1.5,18.1c-0.2-12.9,1.3-25.3,6.3-37.3c4.9-11.9,11.2-22.7,19.9-32.3
		c-2.2,1.5-4.3,3-7,4.8c5-7.3,13.3-9.9,19.2-16.9c-10.8,1.5-18,7.6-25.8,12.8c1.9-2,3.7-4,5.6-5.9c2-2,4.2-3.9,6.4-5.9
		c-9.7,2.5-18.7,12.4-27.4,29.1c1.8-7.5,3.6-15,5.5-23c-4.1,5.9-6.5,12-8.1,18.5c0.1-9.6,3-18.4,7.5-27.7c-5.9,5-8.6,10.8-11.3,16.9
		c0.7-4.5,1.4-9,2.2-14.1c-3.3,5.1-4.2,10.6-6.1,16.7c-0.4-12.7,3.9-23.2,7.7-34.8c-7.5,5.6-10,13.1-12.2,21.9
		c-0.7-9,1.5-16.2,4.5-24c-3.2,3.1-4.6,6.4-6.7,10.9c0.7-8.3,3.6-14.3,8.9-21.2c-6.3,4.4-9.9,8.9-12.8,15.8
		c0.9-6.9,3.2-11.4,6.7-16.2c-4.3,1.9-6.6,4.9-9.2,9c0.8-4.7,2.8-7.7,5.4-11c-4.4,2.2-6.9,5.4-9.4,10.2c0.4-2.1,0.5-2.9,0.7-3.9
		c-2.7,2.1-2.9,5.1-4.2,8.3c-1.5-5.2,0.5-9.6,1.7-16.2c-3.1,5.3-5.2,8.8-8.3,14.2c1.6-5.6,2.6-9.2,3.7-13.1c-3.8,4-6.9,8.3-9.3,15.1
		c0.7-7.2,1.9-12.4,4.4-18.8c-4.8,5.7-6.6,11.3-8.8,16.9c0.3-3.1,0.6-6.3,1.1-10.4c-1.2,3.5-2.2,6.2-3.6,10.1
		c0.1-5.2-0.8-8.8-2.2-12.6c0.2,3.1,0.3,6,0.5,10.2c-2.4-4.1-3.3-7.7-6.5-10.2c0.8,3.5,2.3,6.5,1.6,10.4c-2.3-5.8-7-8.9-10.5-12.2
		c3.8-5,8.8-4.9,15.3-1.5c-2.7-4.8-5.7-7.3-9.3-10.4c9.4-0.1,17.1,3,25.2,6.5c-0.3-1.8-0.6-3.4-1-5.8c1.8,1.6,3.1,2.7,4.6,4.1
		c0.1-1,0.2-2,0.3-3.1c3.4-0.1,5.3,2.3,7.8,4.5c-0.6-1.7-1-3-1.6-4.7c4,1.1,7.7,1.4,9.7,6.3c0.2-1.9,0.4-2.7,0.5-4
		c3.2,3.6,7.3,3.1,11.3,3.1c18.6,0.3,36.8,3.1,54.5,8.5c1.1,0.3,2.2,0.8,3.2,1.3c0.4,0.2,0.7,0.5,1.5,1.1c-2.2,0.1-3.9,0.2-6.1,0.4
		c2.6,0.9,4.8,1.6,8.1,2.7c-9-0.1-16.7-2.3-24.3,2c10.4,0.6,20.3,1.4,30.4,1.7c6.6,0.1,10.9-5.5,10.5-13.4
		c-5.9,7.2-12.7,7.8-20.6,2.8c6.8-4.2,10.9-12.1,19.9-12.5c2.3-0.1,2.7-1.8,3.3-3.3c5.6-12.5,14.2-22.5,26.4-30
		c-3.5,5.5-6.6,10.5-9.7,15.4c4.6-3.1,8.2-7.4,13.6-10.3c-3.2,5.1-6.2,9.8-9.9,15.6c15.9-13.8,28.9-28.8,46.2-40.5
		c-2,3-3.4,5.1-5.6,8.4c3.5-2.1,5.8-3.5,8.1-4.8c21.1-12.2,44.5-18.1,67.8-24.3c11.8-3.1,24-6,33.8-14.1c3.1-2.5,5.4-5.9,7.9-8.7
		c5.2,14.3,2.4,28.8-1.6,45.3c1.8-3.2,2.6-4.4,3.3-5.7c0.7-1.3,1.3-2.6,2.6-5.1c-0.4,13-6.1,22.9-10.2,33.5c1.6-2.3,3.2-4.6,4.7-7
		c1.5-2.4,2.8-4.9,4.6-7.2c-4.1,16.9-3,35.1-12.6,50.7c5.8-5.6,10.3-12.1,15-20.5c-3.4,13.6-9.7,23.9-16.4,34.2
		c1.6-1.7,3.3-3.3,4.8-5c1.6-1.8,3.1-3.7,4.6-5.6c0,7.8-11.6,26.2-27.8,45.4c4.1-3.6,8.1-7.1,12.4-11c-5.1,10.6-12.8,18.3-22.3,24.5
		c-9.3,6.1-19.6,10-30.2,13.2c16.1,0.6,30-5.4,43.3-14.2c-2.7,2.8-5.2,5.9-8.2,8.5c-3.1,2.7-6.5,5.2-10,7.4c-3.4,2.1-7,3.7-10.4,5.9
		c4.3-1.4,8.5-2.9,14.9-5.1c-13.7,8.5-25.2,16.2-38,21.8c5.8-2.3,11.6-4.7,18.1-7.3c-12.5,10.3-26.3,15.5-42.9,16.8
		c9.3,2,16.9,0.5,26.3-3.3c-9.9,6.5-18.9,9.1-30.1,11.2c10.9,1.1,19.2-1.1,27.7-5.1c-5.8,6.7-17,10.7-31,10.7
		c5.5,1.8,9.6,3,13.7,4.5c4,1.5,7.8,3.2,11.6,5.2c-7.5-2.2-15.2-2.9-23.3-3.3c0.7,0.6,1.1,1,2.2,2c-7.8-1.9-15-3.6-22.1-8.3
		c2.8,11.3,10.3,16.1,21.9,18.7c-6.5,0.3-11.1,0.6-16-1.4c2.5,4.8,6.3,6.6,11.1,7.6c-8.8,2-14-0.5-21.6-10.4c1,8.7,2,17.1,7.5,26.2
		c-5.3-5.2-7.2-10-9.4-16c-1,7.4-0.2,13.8,3.6,18.6c3.8,4.7,9.8,3.3,15.4,2.2c-1,0.5-2,1.1-3,1.5c-1.2,0.5-2.4,0.9-4.3,1.6
		c5.9,0.8,10.9-0.5,17.2-1.8c-3.5,2.1-5.8,3.5-8.5,5.2c4.5,1,7.9-1.4,12.7-2.6c-6.8,4.7-13.3,7.2-22.2,10.2
		c10.2-0.1,17.1-2.9,23.8-6.9c-1.8,4.7-7.8,9.9-14.6,12.1c1.8,0,2.9,0,3.9,0c-9.8,3.5-18.2,9.9-28.3,12.3c-2,0.5-2.3,0.9-2,2.7
		c1.3,7.1,4.7,11.7,13.7,11.1c-5.8,3.5-10.8,4.1-16.2,2.7c-0.7,11,10.1,12.9,16.3,20.6c-5.2-3-9-5.1-13.8-4.1
		c14.7,5.8,28.3,17.2,23,26.5c-3.5-2.6-7.1-4.7-12.4-2.3c10.8,1.6,30.7,17.5,35.3,20.6c12.6,8.5,19.4,20.4,20.5,36.5
		c13.5,0,26.8,0,40.2,0c0,0.8,0,1.7,0,2.5c-12.3,0-24.6,0-36.9,0c-6.4,0-12.8-0.1-19.1,0.3c-3.4,0.2-4.3-0.7-4.3-4.1
		c0-5.8-1.3-11.3-4.5-16.3c3.9,9.4,4.3,19.1,2.1,29c-0.7,3-1.5,6.3-4.2,7.6c-6.7,3.2-7.8,9.2-9.4,15.4c-0.8,3-1.3,8.3-5.3,7.3
		c-3.7-0.9-0.9-5.6-0.8-8.5c0-2.3,0.8-4.5,1.2-7c-3.9,0.5-6,3.3-8.7,5.1c-3.1,2.2-6,4.8-10.4,3.4c-1.7-0.5-1.9,1.4-2.5,2.4
		c-2.5,4.8-4.4,9.9-8.5,13.7c-0.9,0.8-1.9,2-3.3,1c-1.1-0.9-0.7-2.2-0.3-3.2c1.6-3.9,3.2-7.9,4.9-11.7c1-2.3,0.6-2.9-2-2.8
		c-4.5,0.3-8.7,2.8-13.4,0.7c-1.6-0.7-1.9,1.7-2.3,2.8c-1.4,4-2.9,8-5.7,11.3c-1,1.2-2.3,2.2-3.9,1.3c-1.6-0.9-0.8-2.4-0.5-3.7
		c0.2-0.9,0.5-1.8,0.9-2.7c2.4-5.7,4.7-11.1-5.1-11.7c-2.9-0.2-5.2-3-6.6-5.7c-1.4-2.7-3.8-3.7-6.3-3.3c-2,0.3-1.4,3-1.9,4.6
		c-1.1,3.4-2.1,6.9-3.2,10.3c-0.4,1.1-1.3,2.2-2.6,1.9c-1.5-0.3-1.9-1.6-1.8-3c0.4-4.1,0.4-8.3,1.4-12.3c1.1-4.2-0.3-6.3-3.7-8.2
		c-4.4-2.4-8.6-5.3-8.4-11.5c-33.2,0-66.2-0.2-99.1,0.3c-4,0.1-5.7,5-5.4,9.2c0.3,4.9,1.1,9.7,1.5,14.5c0.2,1.6-0.1,3.5-1.9,4
		c-2,0.5-2.6-1.6-3-3c-0.8-2.5-1.2-5.1-2-7.7c-0.5-1.9,0.4-5.1-1.9-5.3c-2.8-0.3-5.9,1.2-7.5,4c-1.7,3-3.7,5.7-7,7.1
		c-1.8,0.8-0.9,2.2-0.5,3.3c1.2,3.9,2.8,7.8,2.9,12c0,1.4-0.3,2.7-1.7,3.1c-1.4,0.4-2.3-0.7-3.1-1.8c-0.4-0.5-0.8-1.1-0.9-1.7
		c-1.7-10.4-8-13.9-18.1-13.2c-4.6,0.3-10.3,5.7-9.5,10.1c0.2,1,0.6,2.1,0.7,3.1c0.2,2.6,2.6,6.2-0.5,7.4c-3.4,1.3-4.1-3-5.5-5.3
		c-0.8-1.3-1.5-2.9-1.8-4.4c-1-4.1-2.8-6.8-7.7-6.5c-5.7,0.4-8.4-4.8-12.6-7.4c-2.4-1.5-4.9-3-8.4-3c1,4.1,2,7.9,2.8,11.8
		c0.4,1.8,1.1,4.1-1.3,5c-2,0.7-3.4-0.8-4.4-2.4c-4.3-7.5-5.8-16.7-14.8-21.2c-1.7-0.9-3-3.8-3.4-6c-1.2-7.1-5.5-7.9-11.8-7.9
		c-26,0-51.9-0.7-77.9-1.2c-2.3,0-4.6-0.4-6.8-2.3c15.8,0,31.7-0.1,47.5,0.1c3.8,0.1,5.4-1.1,6.1-4.7c0.6-3.3,2.1-6.4,3.3-10
		c-1.3,0.4-2.2,0.7-3.1,0.9c10.2-9.6,11.8-23.2,17.4-36.7c-6.1,6.1-9.5,11.9-9.8,19.3c-1-14.1,7.4-24.2,14.7-34.7
		c2.4-3.5,4.8-7,7.1-10.6c0.8-1.2,1.8-2.7,0.8-4.1c-1.1-1.5-3-0.9-4.5-0.6c-5.1,1.2-9.5,3.9-14,6.9c-0.4-11.9,14.3-22.8,31.8-23.8
		c-4.8-5.5-9.4-10.9-11.4-18.7c3.8,4.4,7.1,8.1,13.5,11.4c-11.3-10.9-17-22.2-15.6-37.5c4,12.9,12.5,18.1,24.5,18.1
		c5.4,0,8.2-3.6,10.8-9c-7.7,5.1-14.8,4.4-23.2,0.7c10.3,0.4,17-3.7,23.1-12.3c-9,6.6-17.4,7.4-27.4,4.2
		c15.8-0.3,26.3-6.9,28.3-17.6c-5.1,4.5-10.4,8.2-18.1,9.2c7.5-4.8,11.7-11,15.4-19.1c-11.4,11-24.1,14.2-40,11.6
		c12.7-2,23-5.4,30.4-15.2c-14.3,0.7-26.2-3.8-37-13.7c5.3,1.3,9.8,3,16.6,1.9c-10.1-1.3-17.7-3.5-23.8-10.5
		c5.8,1.8,10.7,4.4,17.7,4.7c-9.1-3.8-15.9-8.8-23.8-15.6c10.6,4.8,19.7,8.2,29.6,8.3c-15-3.1-28.1-9.8-38.9-20.7
		c8.6,5,17.3,10.1,29.8,11.5c-14.1-4.2-24.1-11-33.5-18.8c-1.9-1.6-3.7-3.4-5.4-5.5c5.9,3.2,11.5,6.7,20.3,8.5
		c-18.3-7.8-30.8-18.9-38.9-36.7c5.6,5.4,10.6,8.9,16.8,12.4c-6.7-9.5-13.3-18-22.9-25.6c6.5,2.2,10.8,5.3,14.5,9.3
		c-5.9-9.5-11.6-19.1-21.1-27.5c8.5,3.5,14.3,8.1,20,15.3c-4.1-10.8-9.1-19.4-16.2-27.8c5.1,2.4,8.4,5.7,12.6,10.1
		c-7.3-16.3-17-28.3-32.4-35.8c6.1-0.5,15.8,4.7,29.3,15.5c-2.2-6.5-5.8-11.5-11-17c11.7,6.7,18.4,15.9,23.3,27.3
		c0-4.5-5.3-14.9-11.8-23.9c-11-15.4-26-26.9-38.4-41c-11.1-12.6-19.2-26.5-18.4-44.1c0.1-2.1,0.1-4.5,2.3-5.6
		c2.1-1.1,3.7,0.5,5,1.9c20.2,21.5,46.3,30.8,74.3,36.2c3,0.6,5.9,1.2,9.4,1.9c-2.5-1.9-4.5-3.6-6.2-4.9c16.6,7,34.3,12.3,50.7,20.5
		c18.7,9.3,33.9,22.5,44.4,40.9c-2.8-9.4-8.9-16.8-15.8-24.6c13.1,8.8,25.3,17.3,28.5,33.3c-0.7-13.7-7.2-24.5-16.2-34.3
		c6.5,1.7,10.9,5.8,26.1,24.6c-1-2.8-1.5-4.3-2.1-6.3c5,4.3,9.4,8.5,14.2,12.2c2.7,2.2,5.6,3,9.7,3c7.1-0.1,11.1,5.5,13.7,13.2
		c-2.5-3.1-4.3-5.4-6.9-8.6c1.2,3.2,1.9,5.1,3,7.9c-2.5-2.9-4.4-5.1-7.7-9c3.2,6.3,6,10.4,5.6,15.9c-2.5-4.5-5.7-7.7-11.3-7
		c2.3,1.6,4.4,3.2,7.9,5.6c-5.7-0.6-9.7-1.9-14.8-0.8c4.8,1.1,9,1.7,12.3,5.3c-4-0.6-7.6-1.5-11.6,0.2c1.1,0.3,1.8,0.4,4,0.9
		c-7.6,0.1-13.6,0.8-20.3,3.8c4.8-0.4,8.4-0.7,14.4-1.1c-7.7,2.3-13.2,3.6-19.5,7.3c8.6-2.4,15.7-5,23.3-2.6
		c-11.1,0.5-20.9,4.7-31.7,10.8c2.9-0.7,4.3-1,7.6-1.8c-14.3,8.9-20.2,24.7-35.6,30c5.5,1.6,15.6-4.1,24.1-13.6
		c-2,1.2-2.9,1.8-3.7,2.4c4.2-11.9,25.2-25.7,35.7-22.9c-3.7,1-6.9,1.8-11.5,3c4.3,0.6,7.3,1.1,10.3,1.5c-4.7,0.7-9.2,1.4-14,3.7
		c4.2,0.3,7.8,0.6,11.5,0.9c-5.5,0.8-11,1.2-15.9,6c4.7-1.3,8.9-2,13.5,0.2c-5.6,0.2-10.2,1.3-14.2,5.6c4.4-1.2,8.2-1.4,12.3-0.7
		c-4.1,1.5-8.5,1.9-11.6,5.2c3.3-0.2,6.4-0.3,10.4-0.6c-4.2,2.4-8.2,3.4-10.6,7c3.7-0.6,7.2-1.3,11.9-2.1c-3.9,2.7-7.8,3.3-10.4,6.8
		c3.8-0.8,7.2-1.4,12.7-2.6c-6.3,3-10.7,5-14.3,9.6c3.6-2,6.5-3.3,10.4-3.3c-2.7,1.6-4.9,2.9-8.3,5c4.1-0.7,6.9-1.3,11.2-2
		c-5.3,2.7-9.6,4.5-12.4,8.3c3.1-1.1,6.1-2.2,11.1-4c-4.3,3-6.8,4.7-11.3,7.8c4.4-1.6,6.6-2.4,8.8-3.1c-2.7,2.8-6.8,3.2-9.3,6.4
		c2.9-0.7,5.6-1.3,8.4-1.9c-5.8,3.7-9.9,8.9-14.2,13.8c10-8.6,20.7-15.8,36.8-15.6c-4.1-1-6.2-1.6-10.2-2.6c4.7,0,7.4,0,11,0
		c-2.2-0.9-3.8-1.4-5.5-2.1c12-5.8,29.9,6.9,29,21.7c-0.4-2.3-0.5-3.2-0.7-4.5c-0.3,0.9-0.4,1.6-0.6,2.1c-1.5-2.5-2.7-6.4-4.7-6.9
		c-2.7-0.7-5-1.3-7.3-4.1c0.5,1.9,0.9,3.1,1.5,5.3c-1.7-2-2.6-3.1-4.4-5.1c0.8,2.1,1.1,3,1.7,4.7c-1.9-2-3.3-3.5-5.6-5.9
		c1.7,3.5,2.8,5.8,3.9,8c-3-2.5-5.5-5.3-9.3-6.7c2.5,2.7,4.8,5.3,7.2,7.8c-1.8-1.1-3.7-2.2-5.8-3.4c3.9,3.8,7.4,7.3,10.6,10.5
		C254,391.2,253.4,390,252.7,388.8z M220.7,382.7c-0.8,2,0.8,1.3,1.6,1.4c3.4,0.7,6.6-2.7,10-0.7c1.7,1,2.5,0.3,3.3-1.2
		c-2.3-0.3-4.6-0.6-7.2-1c0.9-0.8,1.6-1.4,3.4-2.9c-2.9,1.6-4.6-0.7-6.3,0.8c0.6-0.8,1.2-1.6,3-4c-12.6,7.6-23.1,14.3-31.6,26.8
		c5.8-4.4,10-7.6,14.9-9.5c-1,0.2-2,0.4-3.4,0.7c3.3-3.4,7.3-3.4,12.4-3.2c-2.3-0.7-3.5-1.1-6.2-1.9c3.8,0,5.9,0,8.4,0
		c-4.1-1.9-7.4-0.6-11,0C215,386.1,217.9,384.4,220.7,382.7z M184.3,368.7c5.1-8,8.2-17.2,14.5-24.5c-8.6,7.5-14.1,17-17.6,27.7
		c-0.2,0.5-1.4,2.5,0.8,0.9c-3.5,9.6-11.3,14.7-20.2,19.2c7.5-0.1,12.3-4,17.1-9.7c-2.1,6.8-5.1,12-9.5,16.4c1.5-0.8,2.7-1.9,3.9-3
		c1.1-1.1,2.1-2.3,3.6-4.1c-2.4,6.9-6.8,10.5-13.1,11.8c8.2-0.6,15-5.7,16.1-14.5c0.9-7.6,4.7-13.9,5.9-20.9
		C185.4,368,184.9,368.4,184.3,368.7z M117,305.8c1.5,4.2,3,8.5,4.9,13.8c-10.3-9.2-17.4-19.2-24.1-29.6
		c10.7,18.9,17.1,40.7,37.2,53.9c-4.7-1.5-8.2-4.1-11.5-7c-3.4-3-6.2-6.5-8.3-10.4c-2-3.8-3.9-7.7-5.8-11.5
		c4.9,17,11.4,33.1,23.6,46.4c-7.5-5.5-12.5-13-16.5-21c-4-7.9-7.5-16.1-11.7-25.2c3.4,14.1,8.5,26.3,15.2,38
		c-1.4-1.8-2.8-3.6-4.2-5.4c-0.2,0.1-0.4,0.3-0.6,0.4c2.9,4.4,5.9,8.8,9.1,13.6c-1.5-0.6-2.5-1-5.5-2.4
		c14.1,9.8,28.1,13.8,44.3,18.2c-6.2-3.3-10.3-5.5-16.6-8.9c7,2.1,11.6,3.6,18.3,5.6c-5.1-3.2-8.3-5.2-12.3-7.7
		c6.3,1.5,11.6,2.8,16.9,4.1c-12.1-5.9-21.6-14.5-28.3-26.1c5.3,7.1,11.1,13.7,21.1,19.2c-12.5-10-20.1-20.9-25.6-33.4
		c5.7,10,12.8,18.9,21.6,26.4c-8.6-7.8-13.5-17.9-17.7-28.5c-4.2-10.7-6.6-21.5-0.5-32.5c-5.2,6-5.6,13.1-5,21.3
		c-2.9-12.1,1.4-24.6,9.6-27.8c-2-1.7-3.7-3.3-6.3-5.5c3.3,1.1,5.8,1.9,8.2,2.7c0.1-0.2,0.2-0.4,0.3-0.6c-3.5-1.7-6.9-3.5-11.9-6
		c6.1,1.8,10.3,3.6,14,6.4c-4.1-5.3-9.6-8.4-15.9-10.2c7.5,0.7,13.8,4.3,19.8,8.5c-4.6-5.7-10.6-9-17.4-11c8.1,0.9,14.5,5.1,22,11.4
		c-6.2-10.8-15.3-12.9-25.4-15.5c1.9,0,2.7,0,3.4,0c0.8,0.1,1.7,0.2,2.5,0.3c17,2.5,25.7,14.4,32.5,28.5c-3.6-3.5-4.9-9-10.2-11.9
		c2.1,5.3,4,10.2,5.9,15.1c-0.5-0.2-1-0.3-2.4-0.7c1.9,3.2,3.4,5.8,4.5,7.6c-3,5.3,2.3,8,2.9,11.7c-8.5-2.3-14.7-1.5-17.3,2.2
		c6.3-0.8,12.6-0.9,20.4,2.5c-7.5,0.3-13.6-3.1-19.3,1.6c5.4-0.8,10.2-1.2,15.1,0.4c-5,0.3-9.9,0.5-15,3.1
		c9.9,1.4,19.1,2.7,28.6,4.1c-2.8-8.8-5.2-16.2-7.6-23.6c1,1.9,1.8,1.6,2.6-0.2c1.2-2.5-0.5-4.9-0.1-7.9c1.5,3.1,2.7,5.7,4,8.4
		c-2.8-9.8-2-21.2-12.5-29.4c1.1,4.4,1.8,7.4,3,12.4c-6.6-7.9-3.8-16.7-8-23.3c-4.4-7.1-10.3-12.1-17.3-16
		c-6.8-3.8-13.9-7.1-22.9-9.6c5.1,2.8,8.9,4.7,12.5,6.9c3.6,2.2,7,4.6,10.5,6.9c-14.8-8.1-29.6-15.7-46.4-18.4
		c9.7,3.5,19.3,7.3,28,12.8c-11.7-4.3-23.1-9.7-35.6-11.5c7.9,3.4,16.1,6.3,25.3,11.8c-12-4.3-21.7-8.8-33.6-11
		c9.9,4,18.7,7.6,27.5,11.1c-11.8-2.7-22.8-7.8-34.8-9.3c9.2,3.6,18.6,6.5,27,12.1c-7.9-2.9-15.9-5.7-23.8-8.6
		c-0.1,0.2-0.2,0.4-0.2,0.6c6.6,3.7,13.3,7.4,19.9,11.1c-0.1,0.2-0.2,0.4-0.3,0.7c-7-2-14.1-4-21.1-6c8.7,5.7,18.1,9.5,29.8,12.8
		c-4.3,0-6.7,0-9.7,0c2.6,1.9,4.5,3.2,7.7,5.5c-3.5-1.2-5.5-1.8-9.2-3.1c6,4.8,9.5,9.1,13.2,15.1c-4-3.4-7-6.1-10.1-8.7
		C107,285.7,114.7,294.3,117,305.8c-4.2-6.2-8.4-12.4-12.5-18.6c2.8,6.2,6.5,11.9,10.2,17.6C115.1,305.6,115.6,306.9,117,305.8z
		 M434.7,307.3c12.4-2.5,23.1-0.5,30,12.5c-0.2-4.7-3.1-7.1-5.2-9.9c5.8,2.9,6.2,8,6.2,13.7c0.7-1.9,1.4-3.7,2.4-6.7
		c0.1,8.9-6.2,14.3-7.1,22.4c3.6-6.2,6.7-11.7,11-19.1c-4.1,11.7-9.5,20.4-14.4,29.4c2.8,0.5,5.9-1.6,9.4,0
		c-3.4,4.8-7.2,8.2-13.4,8.9c5.4,1,10.8,2,16.8,3.1c-4.7,5.5-11.1,2.8-16.4,4.8c1.5,1.2,2.6,2.1,5.5,4.3c-7.5-2.7-12.9-4.6-20.3-7.3
		c6.8,5.1,12.4,7.8,19.9,9.3c-3,0.8-4.7,1.2-7.2,1.9c16.9,6.9,24.3-11.3,37.6-12.3c-9.8-0.6-15.5,8-24.7,11
		c13.5-10,24.4-22.7,41.5-25.2c-6.3-0.5-11.8,2.1-17.7,3.3c3.1-1.6,6.3-3.1,10.4-5.1c-2.6,0.4-4.1,0.6-7.6,1.2
		c6-4.4,10.5-7.7,15.1-11c-3.6-1.3-7-1.5-10.6-1.2c6.9-3.5,16.6,2.3,21.5-6.3c-2.7,0.9-5.9,1.9-9,2.8c8.9-4.5,15.4-11.3,22.2-21.3
		c-6.1,5.2-10.7,8.2-16.6,10c3.7-2.7,7-5,10.2-7.5c3.1-2.5,6.1-5.1,9.2-7.7c-7.6,4-10.1,5.5-13.4,5.8c10.1-6.2,15.9-15.4,21.6-27.6
		c-7.2,8-13.6,13.6-21.3,17.8c8.2-10.8,16.3-21.5,24.5-32.3c-6.9,6.7-13.9,13.3-21.9,20c9.9-13.2,19.2-25.6,28.5-38
		c-4.4,3.5-7.5,8-13.4,12.2c6.4-8.6,12.7-15.3,16.1-25c-3.8,3.4-6.9,6-9.9,8.6c1.9-3.4,4.3-6.2,6.5-9.3c2.2-3,4.1-6.2,6.2-9.3
		c-0.2-0.1-0.3-0.2-0.5-0.3c-3,2.9-5.9,5.9-8.9,8.8c3.7-6.3,8.7-11.7,11.3-20.1c-3.3,3.1-5.5,5.2-7.7,7.4c-0.2-0.2-0.4-0.3-0.5-0.5
		c3-4.1,5.9-8.3,9.9-13.8c-4.9,3.5-8.4,6-12,8.5c4-4.8,8.7-8.7,12.3-14.7c-5.1,3.9-9.5,7.4-14,10.8c-0.5-0.6-1-1.1-1.6-1.7
		c4.4-3.7,8.7-7.5,13.1-11.2c-0.2-0.2-0.4-0.3-0.5-0.5c-7.1,5.3-14.1,10.6-21.2,15.9c4.8-5.6,10.7-10,15.8-18.4
		c-8.4,7.9-15.5,13.4-23.3,18.1c2.6-2.7,5.5-5,8.1-7.6c2.6-2.6,4.9-5.4,7.4-8.1c-9.9,7.5-19.7,14.8-30.6,20.6
		c6.1-4.9,12.2-9.9,18.4-14.8c-0.1-0.2-0.3-0.4-0.4-0.6c-11.3,7.2-22.5,14.4-33.8,21.6c-0.2-0.2-0.3-0.5-0.5-0.7
		c9.4-6.9,18.8-13.8,28.2-20.7c-0.1-0.1-0.2-0.3-0.2-0.4c-11.6,7-23.1,14.1-36.6,22.3c8.1-7.5,15.7-11.8,22.7-16.9
		c-38.1,20.6-67.6,49.3-85.1,89.3c16.9-21.6,28.5-33.4,33.4-34.5c-2.8,3.1-6.6,7.1-10.3,11.3c-3.6,4.1-7,8.2-10.6,12.3
		c26.7-23.8,44.8-33,61.6-30.1c-19.5,1.3-34.8,9.8-49.2,22.6c6.6-3.9,12.2-7.4,18-10.5c5.9-3.2,12.3-5,18.9-6.6
		c6.4-1.5,12.9-1.9,19.5-1.9c-16.8,1.6-32.2,7-45.7,17.3c11.9-6.4,24.5-10.8,38.1-11.7c-14.2,3.2-27.8,8-39.5,16.9
		c7.7-3.7,15.4-7.4,24-8.5c-10.1,3.6-20,7.5-28.4,17.3c5.6-3.9,9.3-7.4,14.4-8.4c-4.7,2.6-9.3,5.2-12.3,9.8
		c2.9-1.7,5.2-4.1,10.1-5.2c-4.7,2.6-7.7,5-10.5,9c2.1-1.5,3.5-2.5,4.8-3.5c-1.4,5.7-5,6-10.3,5.6c-14.9-0.9-22.7-1.5-32.4,17.2
		C425.9,314.1,430.3,310.7,434.7,307.3z M260.3,592c-3.1-5.4-0.6-10.2-1.9-15.3c-3.2-13-14.1-21.4-27.2-18.5
		c-3.2,0.7-6.5,1.4-9.8,0.2c-7.1-2.7-13.9-1.5-20.8,0.9c-3.4,1.2-7,1.7-10.6,2.1c-1.7,0.1-4.4-2-5.2-1.3c-3.5,3-6.1,7.1-9.8,9.8
		c-2.9,2.1-4.4,6-8.6,6.6c-1.6,0.3-3-2.7-4.6-0.1c-1.3-0.6-1-4.2-4-2.2c-10.2,7-8.8,32.6,2.1,38.6c-0.8-1.4-1.6-2.9-2.5-4.5
		c0.2-0.1,0.3-0.2,0.5-0.3c0.7,1,1.5,2,2.5,3.4c-1.4-6.9-1.5-12.6,6.7-14.5c0.6-0.1,1.1-1.5,1.2-2.3c0.7-5.7,1.3-11.4,2.2-18.6
		c0.5,2.9,0.6,4.4,1,5.8c4,14.5,3.3,30.7,15.7,43.4c-0.2-1.8-0.3-2.5-0.4-3.6c0.9,1.2,1.6,2,2.7,3.4c-0.6-2-1-3.1-1.8-5.7
		c2.6,4.2,4.3,7.3,8.3,8.5c-1.6-2.3-4.1-3.4-4.5-6.2c1,0.8,1.9,1.4,3,2.2c-0.4-1.7-0.8-3.1-1.2-4.8c1.2,0.9,2,1.5,2.9,2.2
		c0.5-2.9,1.2-5.4,4-6.3c4.4-1.3,5.4,2.7,7.6,5.3c-1-8.7-4.8-11.5-10.9-8c1.7-2.4,2.2-4.7,2.1-7.7c0.6,1.5,0.9,2.3,2.2,5.4
		c-0.8-5.8-1.3-9.2-1.7-12.5c0.2,0,0.3-0.1,0.5-0.1c0.8,3.1,1.5,6.2,2.3,9.3c0.2,0,0.3-0.1,0.5-0.1c-0.8-4.8-1.7-9.7-2.5-14.5
		c4.5,10.4,10.1,20.5,10.2,32.3c0.5-19.2-7.5-36.5-12.3-55.1c16.4,13.7,9.9,34.8,17.9,52.3c-0.2-1.8-0.2-2.4-0.3-2.8
		c1.1,0.3,1.2,1.6,3.1,0.7c2-0.9-0.2-1.9,0.8-2.4c0.8,0.9,1.5,1.9,2.9,3.7c-1-3.6-1.8-6.2-2.7-9.2c1.9,2.1,2.7,4.7,5.5,5.2
		c1-10.9,3-12.6,9.9-8.1c1.6-4.8-0.3-9.6-0.3-15.1c3.5,8.5,5.3,16.6,6.5,24.9c1.2-19.1-5.8-36.1-13.3-53.1
		c8.7,8.1,15.4,17.3,15.4,29.8c0,4.8,1.2,8.6,6.7,12.3c-3.3-4.8-5.9-8.5-2.6-12.3c3.4-3.9,6.8-0.8,10.3,1.6c-0.6-2.8-1-5-1.6-7.7
		C257.7,590,258.5,590.7,260.3,592z M381.2,598.4c8.4-5.9,12.1-15.3,18.7-22.6c-0.4,15.3-5.9,30-4.3,45.3c2.1-8.3,4.9-16.1,8.4-23.7
		c-1.6,7.3-4.8,14.2-5.8,23.3c1.9-5.8,3.3-10.1,4.7-14.4c0.2,0.1,0.3,0.1,0.5,0.2c-0.9,3.8-1.8,7.6-2.6,11.3c0.2,0,0.4,0.1,0.6,0.1
		c1-2.4,1.9-4.9,3.6-9.2c-1,5-1.6,8-2.2,10.9c0.1,0,0.3,0.1,0.4,0.1c0.6-1.7,1.2-3.5,2.5-7.5c-0.7,4.5-1.1,6.6-1.7,10.6
		c1-3.1,1.4-4.2,1.9-5.7c0.2,1.1,0.3,1.8,0.5,2.9c1.2-4,2-8.2,6.1-9.6c3.3-1.2,6.1,0.7,8,3.5c1.1-1.2,2-2.3,3.6-4.2
		c-1.7,0.8-2.4,1.1-3.9,1.9c2.2-2.4,3.6-4,6.6-7.2c-2.6,1.8-3.3,2.3-5.4,3.6c3.3-3.8,5.5-6.3,8.7-9.9c-1.3,10.1-4.5,17.9-8.5,25.5
		c13.2-14.7,15-32.2,12.2-52.7c4.4,9.2,5.5,17.1,5.5,25.2c0,8.1-2.8,15.6-5.1,23.6c3.5-5.7,6.8-8.3,10.3,1.4c0.6-5.3,1-8.7,1.3-12.1
		c0.2,0,0.3,0,0.5,0c0,3.9,0,7.8,0,11.8c0.3,0,0.6,0,1,0.1c0.5-4.4,1-8.8,1.5-13.2c0.2,0,0.4,0,0.6,0c0.2,2.7,0.3,5.3,0.5,8
		c0.2,0,0.5,0,0.7,0c0.2-4.2,0.4-8.4,0.8-14.3c0.5,4,0.8,6.2,1.1,8.7c1.6-4.2,0.5-8.3,0.9-14c0.8,3.4,1.2,5.1,1.6,6.8
		c0.2,0,0.5-0.1,0.7-0.1c-0.5-4.1-1-8.1-1.7-14.1c1.1,4.1,1.7,6.3,2.3,8.4c0.2,0,0.4-0.1,0.6-0.1c-0.5-3.4-0.9-6.9-1.6-11.8
		c1.1,3.3,1.7,5.2,2.3,7.1c0.1,0,0.3-0.1,0.4-0.1c-0.6-4-1.3-8-2.2-14.1c1.6,3.8,2.4,5.5,4.1,9.5c-1.2-5.3-1.9-8.2-2.6-11.1
		c0.2-0.2,0.4-0.3,0.7-0.5c0.2,0.7,0.5,1.3,0.7,2c0.2-0.2,0.4-0.3,0.6-0.5c-1.1-2.4-2.3-4.9-3.4-7.3c3.1-0.1,3.6,2.7,5.2,4.8
		c-1.5-6.3-13.5-13.3-19.7-10.8c-10.7,4.3-21.6-4.2-32.2,1.1c-0.7,0.3-2.2-0.7-3.1-1.4c-7.9-5.7-15.3-5.7-24-0.6
		c-11.3,6.8-18.8,29.5-12.2,40.6c1.7,2.8,4.2,4.6,7.3,4.8c2.1,0.1,0.8-2.9,2.5-3.9c-0.1,1.1-0.2,2.1-0.4,4.1
		c3.8-10.3,7.1-11.3,14.3-5.2c1.5-2.2,1.2-4.1-0.7-5.9C388.7,594.1,385.1,595.7,381.2,598.4z M261.7,437.7
		c0.2-18.8-10.9-31.9-27.1-32c-15.7-0.1-27.8,12-28,28.1c-0.2,16.8,10.5,28.6,26,28.8C248.7,462.7,261.6,451.7,261.7,437.7z
		 M339.3,538c-0.3,0-0.5,0-0.8,0c-0.2,1.4-0.4,2.8-0.8,5.2c-0.7-2.6-1.1-4.1-2.1-7.8c0,4.1,0,5.9,0,8.6c-1.1-3-1.9-5.1-3-8.2
		c0.2,3.4,0.4,5.7,0.6,9c-1.2-2.9-2-4.9-3.5-8.4c0.5,3.1,0.7,4.6,1.1,6.7c-0.8-0.9-1.1-1.4-1.7-2.2c0,1.4,0,2.4,0,4
		c-0.9-2.8-1.6-4.8-2.6-8.1c-0.2,3.1-0.2,4.8-0.4,7.7c-1-3.1-1.5-5-2.4-7.9c0.3,3.4,0.5,5.7,0.9,10.4c-1.3-4-1.9-5.8-3.1-9.4
		c0.4,3.5,0.6,5,1,8.6c-1.2-3.6-1.8-5.2-2.8-8.3c0.2,2.4,0.6,3.4,0.4,4.2c-0.2,0.7-0.9,1.3-1.4,1.9c-0.2-0.3-0.4-0.6-0.7-0.9
		c-0.3,0.7-0.5,1.4-1.1,3c-0.2-2-0.3-3.1-0.5-4.9c-0.6,2.6-1.1,4.4-1.8,7.2c-0.5-3.2-0.9-5.5-1.3-7.7c-0.2,0-0.4,0-0.6,0.1
		c0,1.8,0,3.5,0,5.9c-0.5-1-0.7-1.5-1-2.2c0.3,2.7-2.2,0.5-2.5,1.9c-0.4-1-0.7-2-1.3-3.4c-0.1,1.6-0.2,2.7-0.3,4.6
		c-1-1.8-1.5-2.9-3.2-5.9c1.2,3.7,1.9,5.4,1,7.3c-0.9-1.1-1.7-2.1-2.8-3.4c0.2,1.8,0.4,3.1,0.7,5.4c-1.4-2-2.2-3.2-3.5-5.1
		c0.3,2.2,0.5,3.6,0.8,5.2c-1.5-1.7-2.8-3.1-4.1-4.6c-0.4,1.5-0.7,2.7-1.2,4.2c-1.1-1.8-1.8-3.1-3.3-5.5c0.6,2.8,1,4.4,1.5,6.6
		c-1.5-2.3-2.7-4-4.6-6.9c0.8,2.7,1.3,4.1,1.7,5.4c-0.9-3-4.3-1.6-5.8-3.2c-0.1,0.5-0.1,1-0.3,2.4c-1.6-2-2.7-3.4-5.1-6.3
		c8.4,16.2,29.2,22.4,46.8,15.3c10.4-4.2,17.3-13.6,15-21c-0.4,1.9-0.8,3.6-1.3,6.2C339.6,541.1,339.4,539.6,339.3,538z
		 M412.5,388.1c-7.1-0.8-12.1-4.1-16.2-8.7c-3.5-3.9-6.4-8.5-9.5-12.7c-7.3-9.7-22.6-9.1-27.8,1.5c-5.3,10.7-7.3,22.5-8.4,34.4
		c1.7-4.7,3.4-9.3,5-14c0.3,0.1,0.6,0.2,0.9,0.3c-0.9,4-1.7,8-3.1,14.4c2.6-5.8,4.2-9.4,6.6-14.6c-0.8,3.6-1.3,5.5-2.3,9.9
		c3.8-8.4,8.1-13.4,12.6-18.3c-1.3,1.2-2.6,2.3-5,4.4c1.3-4,2.2-6.7,3.5-10.7c-2.4,2.6-3.9,4.1-6.1,6.5c1.6-3.4,2.6-5.8,3.7-8.1
		c-0.2-0.1-0.4-0.2-0.6-0.3c-1.8,3.1-3.7,6.2-6.1,10.3c0.5-3.6,0.9-6.2,1.4-9.6c-1.1,1.6-1.9,2.5-3.8,5.3
		c2.8-7.7,5.2-12.9,11.9-13.7c5.9-0.7,11.2,0.8,15.4,5.4c-2.6-1.7-4.7-0.4-7.2,0.8c2.7,0.1,5.1,0.3,5.1,3.7c2.4,0.8,5,1.7,7.6,2.6
		c-0.1,0.2-0.2,0.5-0.2,0.7c-1.4-0.2-2.9-0.3-4.3-0.5c0,0.2-0.1,0.3-0.1,0.5c2.2,0.7,4.4,1.4,7,2.2c-1.2,0.8-1.7,1.2-2.4,1.6
		c1.3,0.6,2.4,1.1,3.9,1.8c-1.8,0.2-2.9,0.3-4.2,0.4c3.3,0.6,6.5,1.1,10.1,1.7c-1.1,0.6-1.7,0.9-2.9,1.6c3,0.2,5.3,0.4,9.6,0.7
		c-3.1,0.8-4,1-5.5,1.3C405.1,389.4,408.5,390.4,412.5,388.1z M263.4,541.9c5.4,5.1,9.8,9.2,14,13.5c17.5,18.1,42.1,19.8,62.1,4.4
		c3.8-2.9,6.7-7.4,12.1-7.8c2.1-0.2,3-1.3,2.6-5.8c0.6,3.4,0.8,4.3,0.9,5.2c0.5-1.6,1.1-2.4,3.1-0.5c-0.3-3.6-0.5-6.6-0.9-11.2
		c-0.7,2.9-1,4.3-1.5,6.4c-0.3-1.9-0.5-2.9-0.8-4.8c-3.8,3.2-7.2,5.8-10.3,8.8c-21.5,20.8-49.5,20.3-70-1.5
		C272,545.9,269.4,542.7,263.4,541.9z M367.9,413.1c2-0.9,3.1-1.4,4.1-1.9c8.2-3.6,16.9-1.8,22.7,5.3c5.1,6.2,6,13.1,2,20.1
		c-4.1,7.1-10.7,9.2-20.5,6.7c-1.2-0.3-1.9-0.5-2.3,1.1c-0.4,1.7-1.5,3.2,1,4.5c8.8,4.8,20.2,1.9,26.1-6.9c6.4-9.5,4.3-21.9-5-29.3
		C387,405.5,375.2,405.3,367.9,413.1z M415.1,483.3c4.4,2.3,3.5,6.6,4.3,10.5c0-3.5,0-7,0-11.6c0.8,2.3,1.1,3.4,1.8,5.4
		c1.1-4,2-7.2,2.8-10.4c0.2,0,0.4,0.1,0.5,0.1c-0.7,5.3-1.4,10.6-2.4,18.2c3.6-10.3,4.4-18.7,4.3-27.4c1.4,0.2,2.6,0.4,3.9,0.6
		c-1.3-1.2-2.7-1.7-4.2-2.3c-7.1-2.9-9.9,4-14.7,6.4c-9.4,4.7-17.6,12.4-29.3,11.6c6.7,1.5,12.7-2.3,19.1-2
		c6.9,0.3,13.1,1.8,15.6,9.6C416.3,489,415.7,486,415.1,483.3z M200.5,551.8c1.8-3.4,5-3.3,8.9-2.5c7.4,1.6,14.9,3,22.3,3.9
		c12.1,1.6,22,6,27.5,17.7c2.4,5.2,4.5,10.5,5.5,16.1c5-4.4,9.5-1,14.2,0.4c-1.7-1.5-3.5-3.7-5.4-3.8c-6.3-0.1-7.7-4.8-9.9-9.1
		c-3.7-7.2-7.8-14.7-15.7-17.3c-17-5.8-33.7-12.5-53-7.7c-7.3,1.8-16,3.7-24.3,1.9c-5.3-1.1-10.2,0.3-14,4.3c-1.2,1.2-2.3,1.8-4,2
		c-8.6,1.1-16.7,12.7-14.1,21.1c6-11.6,15.2-21.2,26.1-24.7C175.3,550.7,188.1,550,200.5,551.8z M359.9,423.1
		c-5,8.8-2.5,21.4,5.3,28.3c10.4,9.3,26.8,10.6,37.4,2.9c9.7-7.1,12.7-20.9,7.1-33.4c-5.1-11.3-17.3-18.4-28-16.2
		c17.4,1.5,28.8,14.9,26.7,31.5c-1.7,13.4-13.4,22.4-26.7,20.3C365.3,454.1,356.6,441.1,359.9,423.1z M466.9,606.4
		c-0.1-1.6-0.2-3-0.3-5.8c1,3.1,1.6,4.9,2.6,8c0-4.4,0-7.5,0-12.2c0.7,3.4,1.1,5.2,2,9.4c0-5.6,0-8.7,0-12.7
		c0.7,1.8,1.1,2.9,1.7,4.4c-0.4-9.6,2.5-19.6-7.5-26.9c0.2,1.4,0.2,1.9,0.3,2.6c-1.8-1.3-3.2-2.3-5.6-4c4.6,15.1,3.6,28.9-3.2,44.4
		C461.1,609.5,462.7,605.9,466.9,606.4z M438.2,545.6c4.5,1.6,7.6,4.5,10.8,7.7c0.3-1,0.5-1.6,0.8-2.7c3.1,3.3,6,6.2,9.4,9.8
		c-5.2-11-22.8-21.2-33.8-20.5c-3.2,0.2-5.3,3.7-7.8,3.3c-6-1.1-9.9,3.8-15.4,4.7c-4.5,0.7-8.8,5.2-14,6.6c-2.1,0.6-4,2.2-6,3.4
		c7.7-2.9,15.6-4.4,22.8-8.2c4.1-4.9,11-3.9,16.4-6.4c6.7-3.2,12.2-0.9,16.4,5.3C437.9,547.5,438,546.7,438.2,545.6z M399.4,271
		c-4.8,7.3,2.8,17.8-5.1,23.5c-6.9,4.9-16.1,4-24.6,4.6c2.3,0.4,4.6,0.9,8.6,1.6c-3.2,0.2-4.5,0.2-5.9,0.3c0,0.2,0,0.4,0,0.5
		c8.6,1.3,17.2,2.6,26.4,4c-1.2,0.6-2,1.1-3.7,2c3.2-0.3,5.4-0.3,6.7-2.9c-6-1.2-11.7-2.4-18.3-3.8C398.6,296.4,405,283.5,399.4,271
		z M469,224.7c-18.9,10.9-33.2,23.5-40,44.4C440,252,453.3,238.5,469,224.7z M420.9,304.3c9.7-23,22.7-44,38.5-63.3
		c-3.8,3.2-7.2,6.7-10.5,10.3C435.4,266.6,427.9,285.3,420.9,304.3z M301.7,472c2.6,0.8,3.9,1.1,5.6,1.7c-3.2,0.4-5.8,0.5-8.3,1
		c-1.3,0.3-2.8,1.5-1.1,3c4.2,3.5,22.4,0.9,25.8-3.6c-2.5,0.3-4.9,0.5-8.7,0.9c2.3-1.2,3.2-1.7,5.5-2.9
		C313.8,472,308.5,472,301.7,472z M268.4,437.9c-1.8-15.9-1.8-31.3-20.1-37.7C261.2,409.5,263.8,423.6,268.4,437.9z M148.7,517.3
		c12.5-0.5,23.9,3.2,35.4,7.1C174.4,515.1,158.3,511.8,148.7,517.3z M384.4,420.6c0-3.8-1.9-5.8-5.2-5.8c-3.3,0-5.7,1.7-5.7,5.3
		c0,3.3,1.7,5.5,5.2,5.5C382,425.6,384,423.7,384.4,420.6z M378.7,561.4c-5.5,4.7-9.5,10-12,16.3c-0.7,1.8-1.6,2.5-3.7,2.4
		c-7.4-0.1-15.4,6.5-15.8,12.9c3.5-3.7,6.3-9.9,10.8-9.4c10,1,9.9-7,13.2-12.1C373.4,568,376,564.9,378.7,561.4z M201.9,450.2
		c6.7,17.4,32.7,25.2,43.7,13.9C223.5,470.1,215,467.5,201.9,450.2z M492.2,216.2c-12.2,3.3-22.3,10-31.2,18.8
		C471.1,228.3,481.4,221.8,492.2,216.2z M452.7,346.4c-8.5-2.9-16.7-5.6-25.3-8.5C436.3,345.2,446.8,348.8,452.7,346.4z
		 M410.7,301.8c2.4-5.8,4-10.7,4.1-17c-5.7,4.8-5.6,11.5-8.6,16.6c1.1-1.4,2.3-2.8,3.5-4.4C409.9,298.5,410.2,299.6,410.7,301.8z
		 M201.4,455.1c4.1,12.1,22.3,20.5,35,16.2C221.6,472,209.9,467.9,201.4,455.1z M162.3,611.5c0.9-8.8,2.9-9.7,10.3-5.3
		c0.4-3.1-1.3-4.7-3.8-5.8c-2.4-1.1-4.4-0.4-6,1.4C160.4,604.5,160.3,607.6,162.3,611.5z M173,513.9c6.1,3.4,11.8,6.5,17.4,11.4
		c-0.8-1.7-1.1-2.4-1.7-3.5c1.5,0.8,2.4,1.4,5.2,3C186.9,518.5,181.3,514.3,173,513.9z M415.7,317.3c-8.8-3.1-17.7-5.5-29.1-6.2
		C397.3,314.4,406.4,316.1,415.7,317.3z M445.2,526.3c-8.7-6.4-19.8-7.7-26.7-3C428.1,521,436.8,522.4,445.2,526.3z M366.2,548.1
		c6-4.4,5.7-9.4,5.5-15.7C367,537.2,369.3,542.9,366.2,548.1z M437.8,356.2c4.3,3.8,9.3,5.5,16.3,6.2
		C448.4,358.4,443.3,356.8,437.8,356.2z M450.8,356.1c-6.7-3.2-11.8-5.6-16.8-8C438.1,352.5,442.7,355.7,450.8,356.1z M442.9,335.1
		c-4.8-1.7-9.7-3.4-14.5-5.2C432.5,333.5,437,336.2,442.9,335.1z M157.6,379.1c-6.8-1.9-13.6-3.7-20.4-5.6
		C143.7,376.6,150.3,379.1,157.6,379.1z M152.9,519.4c7.7,1,14.9,3.3,22.1,6.1C168.3,521.1,161,518.8,152.9,519.4z M431.8,253.3
		c-5.5,4.5-11.1,9-14,16.7C422.8,264,427.3,258.7,431.8,253.3z M353.2,362.9c-5.2,4.3-7.4,10.2-8.5,18.4
		C347.7,374,349.7,368.1,353.2,362.9z M250.5,596.2c-0.7,5.7,2.5,8.1,5.5,12C255.7,603,253.1,600.4,250.5,596.2z M364.6,546.8
		c2.3-4.4,3.3-7.7,2.7-13.4c-0.6,2.9-0.9,4-1.2,5.5c-0.4-1.5-0.6-2.6-0.9-3.7c-0.2,0-0.4,0.1-0.6,0.1
		C364.6,538.7,364.6,542.1,364.6,546.8z M353.8,560c3.2-2,6.6-3.8,7.2-8.4C357.8,554,353.6,554.9,353.8,560z M196,458.5
		c-4.7-5.3-8.8-4.6-14.5-0.7C187,456.1,191,456.9,196,458.5z M233.6,621.2c-0.1-4.6-1.6-7.8-4.4-11.6
		C228.9,614.6,230.7,617.7,233.6,621.2z M286.2,495.3c-0.8-4.9,0.9-8.2,4.8-11c-3.5,0.4-5.7,1.7-6.7,4.4
		C283.4,490.9,284.2,492.9,286.2,495.3z M200.5,617.9c-1.7,5.9-0.2,9.1,3.6,13.7C202.7,626.4,201.8,622.9,200.5,617.9z M356,365
		c-4.2,6.6-5.6,12.4-6.3,20.1C352,378,353.7,372.4,356,365z"/>
	<path d="M255.9,521.5c-6.5-5.3-6.6-15.5-15.3-17.9c-7.9-2.2-14.9,1.1-19.7,8.5c-0.8-6.4,5.7-13.8,15.5-16c-2.6,1.5-3.6,2.2-4.7,2.8
		c0.2,0.3,0.4,0.5,0.6,0.8c3.9-1.6,7.7-3.1,12.6-5.1c-1.4,1.2-1.9,1.7-3.6,3.1c2.5-0.9,3.6-1.3,5.3-2c-1.2,1.5-2,2.4-3.2,4
		c4.9-2.4,7.8-7.4,13.7-7.1C241.6,501.6,252.3,511.5,255.9,521.5z"/>
	<path d="M276.9,318.7c-1.8-3.8-2.8-7.7-0.5-12.3c3,5.8,2.3,12.4,5.9,17.5c-1.9-1.8-3.7-3.5-5.6-5.3
		C276.8,318.6,276.9,318.7,276.9,318.7z"/>
	<path d="M330.4,447.5c-10,0-19.9,0-30.4,0C310.4,445.4,320.4,445.3,330.4,447.5z"/>
	<path d="M307.5,423.6c-0.4,8.6-3.3,14.4-11.9,18.8C301.8,436.5,304.5,430.5,307.5,423.6z"/>
	<path d="M300.2,461.6c7.6-3.5,14.4-3.9,22.7-2C314.9,460.3,308.1,460.9,300.2,461.6z"/>
	<path d="M371.5,520.2c-0.3,1.4-0.5,3.8-2.2,3.4c-1.4-0.3-4.4-0.1-4.1-2.9c0.2-2.2,2.1-2.6,4.1-2.6
		C370.6,518.1,371.9,518.1,371.5,520.2z"/>
	<path d="M308.9,450.5c6.2-2.1,12.4-2.3,18.8-0.9C321.4,449.9,315.1,450.2,308.9,450.5z"/>
	<path d="M243.1,478.5c1.1-0.5,2.3-0.9,3.4-1.4c1.8,1.1,0.2,1.7-0.5,2.1c-3.8,2.4-8,3.6-13.2,3.8
		C236.7,481.3,239.9,479.9,243.1,478.5z"/>
	<path d="M261.8,521.1c0.4,5.5,7.4,2.8,5.5,8c-0.1,0.3-2.2,0.3-3.2-0.1C261.4,528,261.4,525.7,261.8,521.1z"/>
	<path d="M472,357.4c6.6-7.5,12.7-15.6,22-20.1C486.2,343.5,479.6,351,472,357.4z"/>
	<path d="M501.3,328.6c-3.6,4-8.4,6.6-13.5,7.3C491.9,332.3,496,330.3,501.3,328.6z"/>
	<path d="M459.7,309.9c-7.2-4.2-14.8-6.3-23.1-3.5C440.9,302.5,455.1,304.6,459.7,309.9z"/>
	<path d="M125.9,345.2c5.7,4.5,11.7,8.4,20.7,11.6C136.1,356.2,130.8,350.9,125.9,345.2z"/>
	<path d="M250.6,417.1c-7.2,0.1-10.1,5.3-6.5,11.3c1,1.7,0.8,2.8-0.1,4.3c-5.6,9.4-14,11.1-24.1,4.6c-2.2,1.7-1.9,3.3-0.2,5.2
		c8.3,9.5,24.3,6.4,28.9-5.8c1.2-3.2,2.8-5.7,5.4-7.7c3.5,6.4-1.6,17.7-10,22.2c-11.6,6.3-25.6,2.5-31.9-8.6
		c-6.4-11.4-2.2-26.2,9.3-32.6C231.6,404.3,245.1,407.4,250.6,417.1z M232.2,425.3c3.1-0.5,5.2-2.2,5.2-5.6c0-3.7-2.2-5.6-5.6-5.4
		c-3.1,0.1-5.4,1.9-5.3,5.4C226.6,423.2,228.7,424.9,232.2,425.3z"/>
</g>
</svg>
