<?xml version="1.0" encoding="utf-8"?>
<!-- Generator: Adobe Illustrator 24.2.3, SVG Export Plug-In . SVG Version: 6.00 Build 0)  -->
<svg version="1.1" id="Layer_1" xmlns="http://www.w3.org/2000/svg" xmlns:xlink="http://www.w3.org/1999/xlink" x="0px" y="0px"
	 viewBox="0 0 595.3 841.9" style="enable-background:new 0 0 595.3 841.9; fill: #215342;" xml:space="preserve"
	 height="400" width="500" transform="translate(-90, -100)">
<g>
	<path d="M521.4,394.6c0.8,2.9,1.7,5.8,2.5,8.7c0.3,1.2,1.2,2.5-1.4,2.9c1.2,1.9,2.2,3.6,3.8,6.1c-2.6-0.3-4.4-0.6-6.6-0.8
		c0.1,1,0.3,2.1,0.4,2.8c-1,1.2-1.8,2-2.5,3c-0.7,1.2-0.4,3.2-2.7,3.3c-0.3,0-0.6,1.3-1,1.9c-1.8,2.4-3.6,4.8-5.5,7.1
		c-2.7,3.1-5.5,6-8.2,9c-0.6,0.7-1,1.5-1.7,2.5c-0.5-1-0.9-1.6-1.3-2.4c-0.4,0.3-0.8,0.4-1,0.7c-2.8,3.6-7,4.9-10.9,6.7
		c-2.8,1.3-5.3,3.3-8,4.8c-2,1.1-4.4,1.4-6.2,2.7c-2.5,1.8-4.5,4.2-6.7,6.4c-0.7,0.8-1.1,1.8-1.8,3c-0.6-1.2-1-2-1.6-3.1
		c-1.1,1.6-2.1,2.9-3.3,4.5c-0.5-0.9-0.8-1.5-1.2-2.3c-0.1,0.2-0.2,0.4-0.2,0.7c-0.8,7-0.9,14,1.1,21c1.8,6.2-1.5,9.3-7.8,8
		c-10.1-2.1-17.3-9.7-19.2-20.7c-0.7-4.3-1.2-8.7-1.1-13c0.3-12.4-0.6-24.7-3.2-36.8c-0.5-2.5-0.7-5.1-1.4-7.7
		c-0.5,6.8-4.9,12.5-3.3,20.1c2.8,13.2-1.4,25.1-10,35.5c-6,7.3-6.4,13.1-1.7,21.2c4.3,7.4,8.5,15,12.9,22.8c0.3-0.1,1.1-0.6,2-0.9
		c3.1-1.2,6.2-2.7,9.4-3.3c7.7-1.4,13.4,1.8,17.1,8.6c0.8,1.4,1.4,2.1,3.2,1.2c11.7-6,22.3-3.8,31.8,4.8c3.5,3.2,6.7,6.7,9.9,10.2
		c2.9,3.2,6.2,5.8,10.6,6.9c7.5,1.9,13.2,8.9,13.8,16.7c0.3,4.4-0.3,8.5-2.1,12.5c-0.6,1.2-0.9,2.5-1.5,4.2
		c4.8,0.2,9.3,0.5,13.7,0.5c15.2,0.1,30.5,0,45.7,0.1c0.7,0,1.6-0.2,2.2,0.1c0.8,0.3,1.4,1.1,2.1,1.6c-0.7,0.6-1.4,1.4-2.3,1.8
		c-0.7,0.3-1.6,0.1-2.5,0.1c-18,0-36.1,0-54.1,0c-1.3,0-2.6,0-4.6,0c0.7,2.4,1.1,4.3,1.9,6.1c5.1,12.1,4,23.8-2.1,35.1
		c-1.8,3.3-4.6,6-6.9,9c-0.7,0.9-1.4,2-1.7,3.1c-1.4,4.6-3.9,8.5-7.6,11.4c-1.2,0.9-2.9,1-4.4,1.5c-0.4-1.3-1.1-2.7-1.1-4.1
		c-0.1-1.8,0.4-3.6,0.6-5.5c-4.1,2.3-7.9,4.4-11.7,6.8c-1,0.6-1.6,2-2.4,3c-2.4,3.3-4.7,6.6-7.4,9.7c-0.8,0.9-2.9,1.7-3.9,1.3
		c-0.9-0.4-1.5-2.4-1.5-3.7c0.2-3.2,0.8-6.4,1.2-10c-4.7,0.2-8.9-1.4-12.7-4c-0.2-0.1-0.6-0.3-0.8-0.2c-3.4,1.9-7.4,3-9.6,6.6
		c-2,3.2-3.7,6.6-5.9,9.7c-0.7,1-2.6,1.6-3.8,1.4c-0.7-0.1-1.6-2.2-1.6-3.4c0-3,0.3-5.9,0.6-8.9c0.2-1.6,0-2.6-1.5-3.7
		c-5.7-4.2-8.8-10.2-11.3-16.6c-0.4-1-0.7-1.9-1-2.9c-0.1-0.2-0.3-0.4-0.6-0.8c-4,3.2-9,5.4-10.1,11.2c-0.2,1-0.7,2-1.4,2.7
		c-1.1,1-2.5,2.6-3.6,2.4c-1.1-0.1-2.4-2-2.7-3.3c-0.7-3.3-0.7-6.6-1.2-9.9c-0.4-2.1-0.9-4.4-2-6.1c-4.1-5.9-6.1-12.3-6.4-19.3
		c-0.3-5.9-0.1-11.8-0.1-18.1c-0.4,0-1.4-0.2-2.4-0.2c-20.6,0-41.3-0.1-61.9,0c-1.4,0-2.9,0.5-4.2,1.1c-19.1,10.2-38.2,9.9-57.4-0.1
		c-1.1-0.6-2.4-1-3.7-1c-17.9,0-35.9,0-53.8,0c-0.7,0-1.4,0.2-2.3,0.3c0.7,4.4,1.5,8.6,2,12.8c1,9.2-0.8,17.7-6.3,25.4
		c-0.7,0.9-0.8,2.4-0.7,3.6c0.3,3.2,1,6.4,1.1,9.7c0,1.3-0.8,3.2-1.8,3.7c-1,0.5-3-0.2-3.9-1c-2-1.8-3.7-4.1-5.5-6.2
		c-0.7-0.8-1.3-1.7-2-2.6c-2.4,3.1-4.3,6.4-7.1,8.8c-4,3.4-8.5,6.3-13,8.9c-2.1,1.2-2.7,2.3-2.2,4.6c0.5,2.6,0.9,5.3,0.9,8
		c0,1.1-0.7,2.7-1.6,3.2c-0.6,0.4-2.4-0.4-3.1-1.2c-1.9-2.2-3.5-4.6-5-7c-0.9-1.4-1.6-2.9-2.4-4.5c-5.5,2-10.9,1.9-16.8-0.1
		c0.2,1.4,0.2,2.5,0.4,3.5c0.6,3.6,1.4,7.1,1.7,10.7c0.1,1-0.6,2.6-1.4,2.9c-0.8,0.4-2.5,0-3.2-0.7c-1.9-1.8-3.6-4-5.3-6.1
		c-2.9-3.6-5.6-7.3-8.6-10.8c-1.9-2.3-4-4.3-6.5-7c0.1,2.1,0.2,3.6,0.2,5.2c0.1,2.2,0.3,4.4,0.3,6.7c0,2.6-1.4,3.5-3.2,1.7
		c-2.8-2.6-5.6-5.5-7.3-8.9c-1.6-3.1-3.4-5.3-6.4-7c-9.3-5.2-12.6-14.2-14-24.1c-1.3-8.8-0.7-17.4,2.3-25.8c0.7-1.8,1-3.7,1.5-5.9
		c-2-0.1-3.5-0.3-5.1-0.3c-25.4,0-50.8,0-76.1,0c-0.5,0-0.9,0.1-1.4,0.1c0-1.7,0-3.3,0-5c7.2,0.1,14.5,0.4,21.7,0.4
		c17.8,0.1,35.5,0.1,53.3,0.1c2.5,0,4.9-0.3,7.8-0.5c-0.5-2.1-0.9-3.8-1.3-5.5c-2.8-11.9,4.1-21.8,12.4-24.5
		c4.1-1.3,7.2-4.1,10.1-7.2c3.8-4,8-7.7,12.1-11.5c1.2-1.1,2.6-2.1,3.9-3.2c7.8-7,18.2-7.8,27.1-2.1c0.3,0.2,0.6,0.4,1.3,0.7
		c0.6-0.8,1.1-1.7,1.8-2.3c2.4-2.2,4.8-4.3,7.2-6.4c1-0.9,2.1-1.9,2.7-3.1c2.6-5,5.1-10.1,7.7-15.1c1.7-3.3,3.5-6.6,5-10
		c2.1-4.7,1.8-9.4-1.9-13.3c-7.8-8.2-10.1-18-9.9-28.9c0.1-6.4-0.9-12.7-3.5-18.7c-1.2-2.7-2-5.5-3.6-8.3c-0.1,1.3-0.4,2.6-0.4,3.9
		c-0.2,13-0.4,26-0.6,39c-0.1,7.4-1.5,14.6-5.2,21.2c-3.8,6.7-8.9,11.9-16.9,13.4c-4.6,0.8-7.5-2-6.3-6.4c1.4-5.6,3.1-11.1,2.5-17
		c-0.2-1.7-0.4-3.5-0.6-5.2c-3.7,0.9-3-3.3-5.6-4.2c-0.2,1.3-0.4,2.5-0.6,3.9c-2-2.7-3.7-5.3-5.7-7.6c-0.8-0.9-2.4-1.2-3.7-1.7
		c-0.9-0.3-1.9-0.3-2.6-0.7c-3.7-2.1-7.3-4.4-11.1-6.5c-2.2-1.2-4.7-2-7-3.1c-0.7-0.3-1.3-1-1.8-1.6c-0.9-0.9-1.7-1.8-2.7-3
		c-0.5,1.1-0.9,1.8-1.4,2.9c-0.7-1-1.1-1.8-1.7-2.4c-3-3.4-6-6.8-9-10.1c-0.9-1-2-1.7-2.6-2.8c-2.1-3.7-4-7.5-6.1-11.4
		c-0.4,0.2-1,0.4-1.6,0.7c-0.1-1.3-0.2-2.5-0.3-3.8c-1.7,0.3-3.2,0.5-4.7,0.7c-0.1-0.2-0.3-0.4-0.4-0.6c1.2-1.8,2.4-3.6,3.8-5.7
		c-1.1,0.1-1.7,0.2-2.7,0.3c1.2-3.5,2.4-6.9,3.7-10.6c-1,0.1-1.5,0.2-2.2,0.3c0.9-1.3,1.8-2.5,2.8-4c-2.4,0.6-4.4,1.1-6.5,1.5
		c-0.1-0.2-0.1-0.4-0.2-0.6c0.8-0.6,1.5-1.2,2.3-1.8c-0.3-0.1-0.6-0.3-0.8-0.4c0.3-1.2,0.3-2.7,1.1-3.6c5.5-6.1,11.3-12,16.8-18.2
		c16-18.1,34.8-33.2,53.1-48.9c3.1-2.6,6.2-5.3,9.5-8.1c-1.7-0.5-3.2-0.9-4.6-1.3c0-0.4-0.1-0.8-0.1-1.1c3.4-1,6.8-2,10.2-3
		c0.1,0.3,0.2,0.5,0.4,0.8c-1,0.6-2,1.1-3.5,2c1.2,0.1,1.9,0.1,3.2,0.2c-4.6,4.6-8.6,9.3-13.2,13.3c-8.7,7.4-17.8,14.3-26.5,21.7
		c-11.8,10.1-23.2,20.6-33,32.7c-2.2,2.8-4.8,5.3-6.8,8.4c1.1-0.5,2.3-0.9,3.4-1.4c0.1,0.2,0.2,0.3,0.3,0.5
		c-1.6,1.4-3.3,2.7-4.9,4.1c0.1,0.2,0.2,0.3,0.2,0.5c1.3-0.5,2.6-1.1,4.3-1.8c-2,5.7-3.9,10.9-5.8,16.2c0.1,0.1,0.3,0.2,0.4,0.2
		c0.6-0.7,1.2-1.5,1.8-2.2c0.2,0.1,0.5,0.1,0.7,0.2c-0.8,2.6-1.5,5.3-2.3,7.9c0.1,0.1,0.2,0.1,0.3,0.2c0.6-0.7,1.1-1.3,2.1-2.5
		c2.6,10.9,8.9,19.2,16.7,27.3c-0.4-1.6-0.6-2.5-0.8-3.4c0.3-0.2,0.5-0.5,0.8-0.7c1.5,2.1,3.1,4.1,4.6,6.2c0.3-0.2,0.6-0.5,0.9-0.7
		c0.1-0.7,0.3-1.3,0.4-2c0.2,0,0.5,0,0.6,0.1c3.4,3.7,7.7,5.4,12.5,6.2c0.9,0.1,1.9-0.8,3.1-1.3c0.9,0.5,2,1.1,3.2,1.7
		c2.7,1.3,3.8,1,5.1-1.6c0.5-0.9,0.9-1.9,1-2.9c0.4-9.3,5.1-17.2,8.3-25.6c2.5-6.5,5.3-13,3.7-20.2c-0.7-3-1.6-5.9-2.5-8.7
		c-0.1-0.4-1.1-0.5-1.4-0.9c-0.4-0.9-1-1.9-0.8-2.8c1.1-5.6,2.4-11.1,3.6-16.6c0.3-1.2,0.6-2.4,0.5-3.8c-4.3,2.1-6.7,6.1-9.9,9.4
		c0.3-6.2,3.2-11.3,6.9-16.1c-0.8,0.4-1.5,0.9-2.3,1.3c-0.2-0.1-0.4-0.3-0.6-0.4c1.1-4.2,4-7.3,6.5-10.8c-0.2-0.2-0.3-0.4-0.5-0.6
		c-1.7,1.2-3.5,2.3-5.2,3.5c-0.2-0.2-0.4-0.3-0.6-0.5c1.5-2.3,3.1-4.6,4.5-7c5.7-9.6,14.5-16.3,22.3-23.9c1.2-1.2,2.7-2.1,4.4-3.4
		c-1.4-0.6-2.4-1-3.7-1.5c2.6-4,7.4-2.8,10.8-5.8c0,4.9-3.8,7.2-4.5,11c2.4-2.3,4.7-4.6,7.1-6.9c0.1,0.1,0.3,0.3,0.4,0.4
		c-3,4.8-6.4,9.4-8.9,14.4c-2.4,5-3.8,10.5-5.9,16.5c1.2-0.6,1.6-0.8,2.3-1.2c-1.6,5.4-3.1,10.7-4.6,15.9c0.2,0.1,0.5,0.3,0.7,0.4
		c0.7-1.1,1.6-2.2,2.1-3.4c2.3-5.9,4.6-11.8,6.6-17.7c2.8-8.7,8-15.7,14.5-21.8c5.5-5.2,11.5-9.9,17.4-14.7c0.9-0.7,2.4-0.6,3.6-0.8
		c0.7-0.1,1.4-0.2,2.1-0.3c2.1-0.3,4.1-0.5,6.2-0.7c0.6-0.1,1.3-0.2,1.9-0.4c4-1.4,7.9-2.9,12.1-3.8c-4,2.5-8.1,5-12.1,7.5
		c0.1,0.2,0.2,0.4,0.3,0.5c4.6-1.8,9.2-3.5,13.7-5.3c0.1,0.3,0.3,0.6,0.4,0.9c-2.2,1.1-4.4,2.3-7.4,3.8c1.8,0.1,2.7,0.1,3.6,0.2
		c0.1,0.2,0.2,0.4,0.4,0.6c-1.4,1-2.9,2-4.2,3.2c-1.4,1.2-3.9,1.8-2.7,4.6c0.2,0.4-0.9,1.5-1.5,2.1c-1.3,1.3-2.7,2.5-4,3.7
		c0.1,0.2,0.3,0.4,0.4,0.6c1.8-1,3.5-2.1,5.1-3c-1,1.2-2.2,2.4-3.2,3.8c-0.7,1-2.8,1.7-1,3.7c0.4,0.5-1,2.8-1.9,4
		c-1.4,1.7-3.2,3.1-4.8,4.6c-0.7,0.7-1.2,1.5-1.3,2.8c2.1-1.2,4.2-2.5,6.3-3.7c0.1,0.1,0.3,0.2,0.4,0.3c-1.1,1.4-2.1,2.8-3.2,4.2
		c2.1,2.1-0.5,2.7-1.2,3.9c-0.9,1.4-2.1,2.5-3,4.1c1.5-0.9,3-1.7,4.5-2.6c0.2,0.2,0.4,0.4,0.6,0.6c-0.7,3.5-4.8,4.5-6.1,7.9
		c0.8,0.1,1.5,0.1,1.5,0.1c-2.7,4.5-5.8,9.1-8.3,14c-1.2,2.5-1.2,5.5-1.9,8.3c-0.5,2.2-1.2,4.3-1.7,6.4c-0.4,1.7-1,3.4-1.1,5.1
		c-0.1,1,0.4,2.4,1.1,2.8c0.7,0.5,2.2,0.2,3.1-0.2c2-1,3.8-2.4,5.7-3.5c0.7-0.4,1.6-0.6,2.5-0.9c0.2,0.2,0.3,0.4,0.5,0.7
		c-0.7,0.8-1.4,1.5-2.2,2.4c3.5-0.3,6.5-1.1,9-3.4c3-2.8,6-5.6,9.1-8.2c8.7-7.4,17.7-6.9,25.3,1.5c1.9,2,3.5,4.3,5.5,6.4
		c-0.4-1.3-0.8-2.7-1.3-4c-0.5-1.7-1.2-3.3-1.6-5c-0.2-0.6,0-1.6,0.4-2c0.3-0.3,1.4,0,1.9,0.2c2.9,1.5,3.9,1.3,5.6-1.3
		c1.2-1.8,2.2-3.7,3.5-5.3c2-2.4,1.2-4.8,0.3-7.3c-0.2,0.8-0.4,1.7-0.5,2.5c-0.4,0-0.6,0.2-0.7,0.1c-2.8-2.5-4-2.9-7.3-0.6
		c-2.2,1.6-3.8,1.4-5.6,0c-0.2-0.2-0.7-0.1-1.2-0.2c0,1,0,1.9,0,2.8c-2.3,0-4.7,0.3-6.9-0.1c-5.1-1-9.5,0.2-13.6,3.2
		c-4.9,3.7-9.8,7.4-14.8,11c-1.4,1-3,1.8-4.5,2.7c-0.3-0.3-0.5-0.5-0.8-0.8c0.8-2.1,1.6-4.1,2.4-6.2c-0.1-0.1-0.3-0.3-0.4-0.4
		c-1.5,1-3,2.1-4.4,3.1c-0.2-0.2-0.4-0.4-0.6-0.6c1.7-3.2,3.4-6.3,5.5-10.3c0.6,1.9,1.1,3.4,1.9,5.7c1.9-2.9,4-4.9,4.7-7.4
		c0.8-2.8,2.4-4.5,4.3-6.2c6.4-5.8,13.4-10.7,22.5-11.2c2-0.1,4,0,6.3-0.6c-1-1-2.1-1.9-3.1-2.9c0.2-0.3,0.3-0.7,0.5-1
		c2.1,0.7,4.3,1.5,6.2,2.2c0.2-0.9,0.4-2.1,0.6-3.2c0.6,0.5,1.1,1,1.7,1.5c-0.3-0.9-0.6-1.7-1.1-3.1c4,1.2,6.5,3.6,8.3,6.5
		c2,3.2,3.6,6.6,2.5,10.8c-0.8,3,2.6,8.3,5.5,9.6c1.4,0.7,2.7,0.4,3-1.3c0.3-2,0.3-4,0.3-6c0-1.2-0.3-2.4-0.4-3.6
		c0.3-0.1,0.6-0.1,0.9-0.2c0.2,0.9,0.7,1.8,0.7,2.7c0.1,2.2,0.4,4.5,0,6.7c-1.4,8.3-2.7,16.7-6.8,24.3c-1.5,2.8-3.3,5.7-2.5,9.2
		c0.1,0.3,0,0.5-0.1,0.8c-0.8,3.4-0.8,3.4,2.5,3.4c-0.1,0.3-0.2,0.6-0.4,0.7c-9,6.3-14.2,16.1-21.4,24c-2.1,2.3-3.5,5.2-5.9,7
		c-3.3,2.5-7.1,5.5-11,6.1c-5.8,0.9-11.9,0.2-17.9-0.2c-2.8-0.2-5.2-1.7-6.5-4.6c-0.9-2-3.2-3.7-3.4-5.6c-0.3-3.8-3.5-6.1-4.1-9.4
		c-0.9-4.9-0.9-9.9-1.2-14.9c0-0.2,0.1-0.4,0.1-0.5c-0.3-1.2-0.6-2.4-1-3.5c0-0.1-0.9-0.2-1-0.1c-0.4,1.2-1,2.4-0.9,3.6
		c0.6,6.2,1.4,12.4,1.9,18.6c0.2,2.7-0.2,5.4-0.5,8c-0.2,1.6,0,2.6,1.8,3.2c0.7,0.2,1.5,1.5,1.5,2.2c-0.1,1.9,0.8,2.1,2.3,2.2
		c1.1,0.1,2.3,0.7,3.2,1.3c2.3,1.5,4.5,3.1,7.1,5c-4.9,1.8-10.2,3.2-11.7,9.4c0.4,0.2,1,0.5,2.1,1c-0.7,1.5-1.5,3.1-2.1,4.7
		c-0.2,0.5-0.1,1-0.3,1.5c-0.3,1-0.4,2.2-1,3c-1.5,1.9-1.8,5.9,0,7.9c1.3-2.6,2.7-5.2,3.9-7.8c2.2-4.9,6.1-8.4,11.2-8.4
		c2.9,0,7.2,0.4,9.4,4.3c1.2,2.3,3.5,4.1,5.2,6.1c0.4,0.4,0.6,1.1,1.1,2c-1.3,0-2.2,0.2-3,0c-5.9-1.5-11.8-1.7-17.6,0
		c-3.7,1-6.6,3.2-8.7,6.5c-0.5,0.8-0.8,2-0.7,2.9c0,0.7,0.8,1.3,1.3,2c0.5-0.4,1.2-0.7,1.6-1.2c1-1.3,1.8-2.8,2.9-4.1
		c1.8-2.1,4.2-2.6,7-2.3c-0.4,0.6-0.7,1-1.1,1.6c1.7,0.5,3.2,0.9,5.1,1.4c-0.8,0.4-1.4,0.7-1.4,0.7c1,2.1,1.9,4.2,3,6.1
		c1.6,2.8,3.4,5.5,5.3,8.2c2.7,3.9,5.4,7.8,8.2,11.6c1.8,2.4,8,2.6,10,0.3c0.3-0.4,0.2-1.4-0.1-1.9c-2.2-4.4-4.4-8.8-6.6-13.2
		c-0.8-1.6-2-3-0.1-4.9c0.6-0.6-0.5-3-0.7-4.1c1.7-2,3.3-3.7,5.3-6.1c0.4,2,0.8,3.3,1,4.7c1,6.8,1.9,13.6,2.9,20.4
		c0.6,3.7,1,3.9,6.9,4.4c-5.2,1.3-10.1,2.5-14.9,3.7c-0.2,0.3-0.3,0.6-0.5,0.9c3.2,3.2,6.2,6.6,9.7,9.6c1,0.8,3.1,0.7,3.8-1.7
		c0.4-1.6,1.6-3.1,2.4-4.6c2.6,1,3.1,0.7,2.9-2.3c-0.1-0.9,0-1.8,0.7-2.3c0.7-0.6,1.3-1.3,2-1.8c0.6-0.5,1.3-1,2-1.2
		c0.4-0.1,1,0.6,1.5,0.9c-0.3,0.4-0.5,1-0.9,1.2c-0.5,0.3-1.1,0.4-1.6,0.6c0.1,0.3,0.1,0.5,0.2,0.5c4.6-0.2,6.8,2.9,8.9,6.3
		c0.3,0.5,0.7,1,1.2,1.2c0.5,0.2,1.1,0.2,1.7,0.2c0-0.5,0.3-1.3,0.1-1.5c-1.8-1.4-1.4-4.4-4.4-5.2c-2.4-0.6-3.9-6.8-2.5-9.1
		c1.2,1.8,2.3,3.5,3.4,5.2c0.3-0.2,0.6-0.4,1-0.5c-0.4-2.7-0.7-5.4-1.1-8.2c0-0.4-0.3-0.9-0.1-1.1c2.9-3.8,0.5-8.1,1.4-12.2
		c1.8-7.2,6.9-11.3,12.9-14.1c16.1-7.5,32.7-7.9,49.3-1.9c7.4,2.7,13.5,7.1,14.8,15.6c1.8,12.1-2.7,26.4-14.7,33.1
		c-0.9,0.5-1.6,1.2-2.4,1.9c0.2,0.3,0.4,0.6,0.5,0.8c1.7-0.9,3.4-1.8,5.1-2.7c0.5-0.3,1.1-0.6,1.7-0.7c0.2,0,0.7,0.6,0.7,0.7
		c-0.3,0.6-0.6,1.4-1.2,1.7c-1.5,0.9-3.1,1.5-4.7,2.3c-4.7,2.2-9.4,4.3-14.1,6.7c-0.9,0.5-1.7,2-1.6,3c0.1,1,1.1,2.7,2,2.9
		c5,1.4,10.1,2.5,15.2,3.7c0.3,0.1,0.7-0.1,1.3-0.2c-0.4-0.6-0.8-1.1-0.9-1.4c3.7-1.1,7.3-2.1,11-3.2c0.4-0.1,0.8-0.3,1.1-0.2
		c5.8,1.3,9.5-2.6,13.7-5.5c12.7-8.8,20.1-21.9,27.9-34.7c1.7-2.9,3.5-5.7,5.2-8.5c0.8-1.3,1.6-2.5,2.5-4c-0.1-0.1-0.6-0.4-1-0.7
		c4-2.6,8-2.3,10.4,0.9c1.9,2.4,1.7,4.7-0.3,7.1c-0.8,0.9-1.3,2-1.8,3.1c-0.7,1.9-1.1,3.9-2,5.8c-3.4,7.7-7,15.3-10.5,23
		c-0.5,1-1.2,1.8-1.8,2.7c-0.2-0.1-0.5-0.2-0.7-0.3c1.2-2.7,2.4-5.4,3.6-8.1c0.3-0.7,1.1-1.5,1.1-2.2c0-0.8-0.8-1.5-1.2-2.2
		c-0.5,0.5-1.1,0.9-1.5,1.5c-0.9,1.3-1.7,2.7-2.6,4.1c-0.5,0.7-1.2,1.2-1.5,1.9c-4.3,7.6-8.5,15.2-12.8,22.9c-0.3,0.5-0.4,1-0.3,1.7
		c2.2-1.2,5.3-0.9,6.2-4.1c0.1-0.2,0.4-0.4,0.6-0.5c4-0.7,5.4-4.3,7.7-6.9c7-7.9,12.5-16.9,17.5-26.1c1.2-2.2,2-4.6,3.2-6.8
		c0.9-1.8,2.1-3.4,3.2-5.1c1.1-1.7,2.5-3.4,3.1-5.2c1.3-3.5,5.2-5.4,5.2-9.6c0-0.2,0.2-0.5,0.2-0.5c3.3,0,2.8-2.8,3.8-4.8
		c0.2,1.2,0.4,2.3,0.8,4c5.1-11.4,8.8-22.4,4.7-34.6c-2-5.8-3.9-11.8-4.5-17.8c-0.4-4,0.5-8-0.8-12.1c-0.8-2.7-0.5-5.7-0.8-8.8
		c2,0,1.9-1.4,1.2-3c-1.8-4-3.6-7.9-5.3-11.9c-0.7-1.7-1.2-3.5-1.3-5.7c1.2,0.7,2.4,1.4,3.7,2.2c0.6-1.9-1-4.9,2.8-4.7
		c-0.3-1-0.4-1.8-0.7-2.6c-1.9-4.4-3.9-8.8-5.8-13.2c-0.2-0.5-0.5-1.3-0.2-1.5c3.2-3,1-6,0.3-9.1c0.4,0,0.8,0,1.2-0.1
		c-0.3-3-4.9-4.4-3.1-8.7c-0.9-1.2-2.2-2.8-3.5-4.5c0.1-0.1,0.3-0.3,0.4-0.4c0.7,0.3,1.4,0.7,2.7,1.4c-0.9-1-1.3-1.7-1.8-2
		c-2.6-1.8-3-4.9-4.5-7.3c-1.4-2.3-3.8-3.9-5.7-5.9c-2.5-2.6-1.7-5.6,1.8-6.6c0-0.2,0.1-0.5,0.1-0.5c-2.4-2.1-3.9-4.6-4.3-8
		c-0.2-1.3-2.4-2.4-3.8-3.8c0.6,0,1-0.1,1.7-0.1c-0.6-0.6-1-1.1-1.9-2c1.2,0.2,1.9,0.3,2.7,0.4c0.1-0.2,0.2-0.4,0.3-0.5
		c-0.9-0.6-1.9-1.2-2.8-1.8c4.5,0.5,15.4,7,26,15.6c-2.2,2-0.6,3.3,0.8,4.9c3,3.4,5.9,6.9,8.4,10.6c1.1,1.6,1.1,3.8,1.7,5.7
		c0.4,1.2,1.2,2.2,1.6,3.4c2.6,9,4.4,18.3,3,27.5c-0.9,6.2,0,12.3-0.8,18.4c-0.8,6.1,0,12.4,0.3,18.6c0.9,17.1,4.7,33.8,7.2,50.7
		c1.1,7.7,0.7,15.6,1.6,23.3c1,9.5,5.2,17.2,14.6,21.1c0.9,0.4,1.7,0.7,2.6,0.8c3.1,0.5,4.7-0.9,4.1-4c-1.9-9.2-1.8-18.3,2.1-27.3
		c0.6,0.2,1.2,0.4,1.1,0.4c2.4-1.9,4.4-3.4,6.4-5c0.3,0.4,0.6,0.8,1.1,1.6c1.3-2.5,2.4-4.7,3.7-7.4c0.1,1.2,0.2,2,0.4,3.6
		c1.5-1.7,2.6-3,4.1-4.8c-0.3,1.7-0.5,2.6-0.7,3.6c0.3,0.2,0.5,0.3,0.8,0.5c2.3-3,4.6-6.1,6.9-9.1c0.1,0.1,0.3,0.2,0.4,0.3
		c-0.5,1.1-1,2.2-1.6,3.3c0.2,0.2,0.4,0.3,0.6,0.5c0.7-0.8,1.4-1.6,2.1-2.5c0.2,0.6,0.5,1.1,0.9,2c1.3-1.4,2.4-2.6,3.8-4.2
		c-0.1,1.1-0.2,1.8-0.3,2.8c3.3-2.9,6.3-5.5,9.3-8.2c0,0.2,0.2,0.8,0.4,1.9c1-1.1,1.7-2.1,2.6-2.8c1.1-0.8,1.7-2.9,3.8-1.8
		c0.3,0.1,1.3-0.7,1.7-1.3c2.3-3.1,4.5-6.3,6.7-9.5c1.6-2.3,2.8-4.9,4-7.5c0.7-1.6,1.4-3.2,1.9-4.9c0.1-0.3,1.2-0.7,1.7-0.5
		c1,0.4,1.9,1.1,3.5,2.1c-1.4-3.2-2.5-5.6-3.6-8.1c0.2-0.1,0.5-0.3,0.7-0.4c0.6,0.5,1.2,1,2.1,1.7c-0.9-3.5-1.7-6.7-2.6-10.5
		c1.2,0.7,1.7,1,2.2,1.3C521.1,394.3,521.3,394.4,521.4,394.6z M507.1,560.2c0.5,1.8-0.8,4,1.7,5.1c0.3,0.1,0.1,1.2,0.1,1.9
		c-0.3,4.7-0.6,9.4-0.8,14.1c-0.1,1.9-0.2,3.8,2.9,3.8c-4.8,11.2-3.6,22-0.1,33.2c0.7-0.6,1-0.9,1.3-1.2c0.7-0.9,1.4-1.8,1.9-2.8
		c5-9.6,6.5-19.5,1.7-29.7c-2-4.3-2.5-8.7-1.7-13.3c0.5-2.7,1-5.5,1.7-8.2c2.3-8.7-1.9-17.4-10.3-19.7c-3.5-0.9-6.1-3.3-8.6-5.9
		c-4-4.2-6.8-9.3-12.4-12.5c-10.4-5.9-20.6-7.7-31.4-1.9c-2,1.1-3.2,0.9-4.3-1.4c-3.3-7.4-6.2-8.8-14.1-7.6
		c-0.6,0.1-1.3,0.3-1.9,0.5c-12.9,4.5-22.5,12.7-28.3,25.2c-0.9,2-1.1,4.3-1.7,6.4c0.4,0.2,0.8,0.4,1.2,0.6c1-1.3,2.1-2.6,3.1-3.9
		c2.3-2.8,4.4-5.7,6.8-8.4c0.6-0.7,2-0.9,2.9-1.3c1-0.5,2.2-1,2.9-1.8c1-1.2,1.8-2.6,2.6-4c0.3,0.1,0.5,0.2,0.8,0.3
		c0.2,2.5,0.7,5,0.5,7.4c-0.2,2.4-1.1,4.8-1.8,7.8c1.9-0.8,3.4-1.2,4.8-2c4.3-2.3,5.8,0.6,5.9,4.1c0,1-0.3,2-0.3,3.1
		c0.1,1.8,0.3,3.5,0.5,5.3c0.4,0.1,0.8,0.2,1.2,0.2c0.7-1.4,1.4-2.7,1.9-4.2c1.3-3.8,2.3-7.8,4-11.5c0.7-1.5,2.8-3.5,4.1-3.4
		c2.5,0.3,2.1,3.1,2.1,5.1c0.1,3.7,0.5,7.5-0.2,11.1c-0.8,3.7,1.6,7.5-0.7,11c-0.1,0.1,0.2,0.5,0.5,1.1c0.6-0.7,1.2-1.1,1.4-1.7
		c2.5-5.2,5-10.4,5.7-16.2c0.2-1.9,1.2-3.7,1.9-6c5.2,9.9,5.9,16.6,1.9,21.4c-0.6-1.2-1.2-2.3-1.8-3.5c-1.3,1.3-1.9,2.2-2.2,3.1
		c-2.2,5.8-4.3,11.7-6.7,17.4c-4.5,10.9-8.4,21.9-8.6,33.8c-0.1,4.6,0.3,9.3,0.5,13.9c0.4,0,0.9,0,1.3,0c0.7-4.2,1.4-8.4,2.1-12.6
		c0.1,0,0.3,0,0.4,0c0.3,0.9,0.5,1.9,1,3.3c0.8-2.4,1.5-4.2,2.1-6c0.2,0.2,0.3,0.5,0.5,0.7c1.5-1.1,2.9-2.3,4.4-3.4
		c3,3.4,2.9,3.4,3.9,8c0.1,0.4,0.8,0.6,1.2,0.9c0.5-0.6,0.9-1.2,1.4-1.9c0.6,0.6,1.3,1.2,1.8,2c0.4,0.6,0.6,1.4,1.2,2.7
		c1.3-2.6,2.7-4.5,3.1-6.6c3.3-16.7,5.5-33.4-0.7-50.6c1.5,0.8,2.1,1.2,3.2,1.8c1.4-6.3,2.2-12.6,7.5-17.1c0.4,0.9,0.7,1.4,0.7,1.9
		c0.5,3.5,0.7,7,1.3,10.5c0.4,1.8,1.3,3.7,2.4,5.2c0.2,0.3,2.4-0.9,3.7-1.4c0.1,0,0.2-0.1,0.2-0.1c0.6-0.1,1.5-0.4,1.8-0.2
		c0.4,0.4,0.5,1.3,0.5,1.9c-0.1,1.2-0.5,2.4-0.9,4.4c3.1-2.5,5.7-4.5,8.2-6.5c0.2,0.1,0.4,0.3,0.6,0.4c-0.8,1.8-1.3,3.8-2.4,5.5
		c-4.1,6.1-6.4,13-10.2,19.3c-2.5,4.1-3,9.5-4.4,14.3c-0.2,0.6,0.1,1.2,0.2,1.9c0.2,1.7,0.9,3.4,0.7,5c-0.5,3.5-1.5,6.9-2.2,10.3
		c-0.2,0.8,0,1.6,0,2.5c0.2,0.1,0.5,0.2,0.7,0.2c1.4-2.7,2.9-5.4,4.1-7.7c4.6,1.9,5.1-2.6,7.5-4c-0.2,1.5-0.6,2.8-1.1,4.1
		c-1,2.4-1,2.4,0.3,4.1c0.5-0.9,1-1.8,1.7-3.1c-0.1,2.6-0.3,4.8-0.4,7.1c0.3,0,0.5,0,0.8,0c0.4-0.7,0.9-1.4,1.5-2.4
		c0.3,1.3,0.4,2.2,0.6,3.1c4-1.2,3.2-5.2,4.9-7.7c0.8,0.3,1.5,0.6,2.4,0.9c0-1.6,0-3.1,0-4.6c0.1,0,0.2,0,0.4,0
		c0.4,1.4,0.7,2.8,1.3,4.9c1.7-10.9,1.5-21-2-30.7c-2.8-7.6-3.3-15.4-3.3-23.3c0-6.2,3.5-10.9,7.3-15.7c5.2,3.6,3.7,9.7,6.2,14.3
		C505.7,560.5,506.4,560.4,507.1,560.2z M216.4,562c0.3-0.2,0.7-0.4,1-0.6c0.2-6.1-2-11.4-6.2-15.8c-3.6-3.6-7.6-6.8-11.4-10.3
		c-5.5-5.1-10.8-10.5-16.5-15.4c-8.4-7.1-18.1-5.7-24.3,3.3c-1.3,1.8-2.4,2-4.1,0.8c-2.8-2.1-6-3.2-9.6-3.4
		c-8.1-0.3-14.8,2.5-20.1,8.4c-6.3,6.9-13.4,12.8-21.5,17.6c-8.6,5.1-11.2,11.7-9.7,21.5c0.5,2.9,0.9,6,0.6,8.9
		c-0.5,4.7-1.8,9.3-2.5,13.9c-0.6,3.6-1.4,7.4-1,11c0.7,5.7,1.9,11.5,4,16.8c1.9,4.9,5.2,9.3,7.9,13.9c0.3,0.5,1,0.8,1.5,1.2
		c-3.5-5.3-6.2-11.6-6-15.3c1.6,3.3,3.2,6.4,4.7,9.4c3.5-2.3,3.4-5.2,3.2-8.4c-0.2-2.9-0.9-5.9,1.4-8.5c0.5-0.5,0.3-1.8,0.1-2.6
		c-1.8-7.4-2.6-14.8-2.1-22.4c0.2-2.2-0.1-4.5-0.4-6.7c-0.6-3.8-1.1-4.1-4.8-2.9c-0.1,0-0.3-0.1-1.2-0.4c0.4-3,0.8-6.2,1.2-9.3
		c0-0.3,0.4-0.8,0.6-0.8c2.5-0.3,2.5-2.4,3.2-4c1.1-2.5,2.1-5,3.4-7.3c1.7-3.1,4.2-5.5,7.4-7.6c1,2.4,1.8,4.5,2.3,5.8
		c2.6-0.1,4.5-0.2,6.4-0.3c-0.2,5.5,0.7,8.4,3,9.8c-0.6-1.9-1.1-3.6-1.7-5.4c0.2-0.1,0.4-0.1,0.6-0.2c1.6,3.1,3.1,6.3,4.7,9.4
		c0.1,0,0.2-0.1,0.3-0.1c-0.4-2.3-0.7-4.6-1.1-7c0.2-0.1,0.4-0.1,0.6-0.2c1,1.9,2,3.7,3,5.6c0.4,0,0.7-0.1,1.1-0.1
		c0.4-1.6,0.8-3.3,1.3-4.9c0.8-2.7,2.3-3.2,4.6-1.7c0.8,0.5,1.8,0.7,2.6,1c2.6-5.2,2.7-5.3,7.5-4.2c0.2-1.1,0.5-2.2,0.7-3.3
		c0.2,0,0.3,0,0.5,0c0.2,1.8,0.3,3.5,0.5,5.3c2-4.1,3.8-8.1,7.1-11.3c0.6,9.3-0.6,18.9,5.5,27c0.3-1.3,0.3-2.7-0.1-3.9
		c-2.9-8.9-3.2-17.8-0.7-26.8c0.3-1,1.2-2.5,2-2.6c1-0.2,2.8,0.5,3.3,1.4c3.3,5.9,8.4,11.1,7.3,18.8c-0.1,1,0,2,0,3
		c0.3-0.1,0.5-0.1,0.8-0.2c0.5,0.5,1.4,1,1.4,1.5c0.6,7.4,1.7,14.8,1.5,22.1c-0.2,5.8-0.2,11.5,1.4,16.8c1,0,1.9,0,2.2,0
		c0.3-4.1,0.7-8.1,1-12.1c0.3,0,0.6,0,0.9,0c0.2,0.5,0.4,0.9,0.7,1.4c0.5-0.7,1-1.3,2.3-2.9c0.7,1.2,1.2,2.3,1.9,3.1
		c0.7,0.8,1.7,1.4,2.6,2c0.7,0.4,1.7,0.5,2.1,1.1c1,1.6,1.7,3.4,2.5,5.1c1.2,2.9,2.3,5.9,3.4,8.9c0.3-0.1,0.6-0.1,0.8-0.2
		c0.4-4.7,0.8-9.4,1.3-14.3c0.5,0.9,0.9,1.5,1.3,2.3c0.2-2.8,0.5-5.3,0.7-8c0.3,0.4,0.6,0.7,0.9,1c-1.1-7-1.9-14.1-4.3-20.5
		c-3.7-9.9-8.9-19.1-20.4-20.9c1.7-2.7,3.4-5.7,5.4-8.5c0.5-0.7,1.7-1.4,2.6-1.3c3.4,0.2,6.6,0.8,8.7,4.1c1,1.5,2.3,3.3,3.8,3.8
		c5.1,1.7,7.7,5.4,10,9.8C213.3,558.2,215,560,216.4,562z M296.9,524c-0.6,0-0.9-0.1-1.1,0c-8.3,2.7-16.6,4.6-25.4,4.3
		c-0.9,0-2.2,1.2-2.6,2.1c-0.7,1.4-0.3,2.8,1.4,3.6c1.5,0.7,2.7,1.8,4.1,2.8c-2.6-0.7-4.9-2-7.4-2.7c-2.1-0.6-4.6-0.7-6.2,1.4
		c-1.6,2-0.9,4.1,0.2,6c2.7,5.1,5.4,10.2,8.5,15c5.9,9,14.8,12.9,25.3,13.3c1,0,2-0.5,3-0.8c1.4,1.8,3.6,1,5.5,0.7
		c17.9-2.2,26.4-15.1,31.3-31.4c0.9-3-1.7-5.2-4.9-4.5c-2.1,0.5-4,1.5-6,2.2c-0.6,0.2-1.2,0.4-1.8,0.7c-0.1-0.3-0.3-0.5-0.4-0.8
		c1.8-1.1,3.5-2.3,5.4-3.2c1.7-0.7,2.3-1.5,1.8-3.4c-0.5-1.8-1.5-2.6-3.4-2.4c-7.9,1.1-15.8,0.6-23.4-2.1c-1.8-0.6-2.4,0.1-2.4,1.8
		c0.1,2.1,0.2,4.3,0.2,6.4c0,1.3-0.3,2.8-2,2c-1.6-0.7-2.9-2-4.3-3.1c0.1-0.2,0.2-0.4,0.3-0.6c1.3,0,2.7,0,4.3,0
		C296.9,529.1,296.9,526.7,296.9,524z M306.7,503.1c-1.3-1.1-2.4-2-3.5-2.9c1.2-0.7,2.2-1.8,3.5-2.1c4.1-1,8.4-1.5,12.3-2.8
		c4.7-1.6,8.5-4.6,10.9-9.9c-5.5,1.8-10,5-15.5,3.1c-1.5,3.1-4.5,1.9-6.8,1.6c-2.5-0.3-3.8-2.5-4.1-5c-0.6-5.6,2.6-11.2,7.6-13.8
		c3.7-2,7-1.1,10.1,1.1c2.8,2,2.9,4.6,1.8,7.7c-0.3,1,0.2,2.7,1,3.4c0.5,0.5,2.3,0,3.2-0.5c3.9-2.2,6.5-8.2,5.7-12.7
		c-1.3-7.6-6.1-12.4-13.1-15c-16.5-6.2-32.8-5.5-48.5,2.7c-1.2,0.6-2.1,1.8-3.3,2.2c-6.3,2.1-9.7,9.9-6.9,16
		c0.3-6.7,0.6-7.8,2.9-9.3c2.2,4-0.4,9,2.6,13.6c0.1-1.4,0-2.1,0.3-2.6c0.6-0.9,1.5-1.7,2.3-2.5c0.6,0.7,1.3,1.4,1.7,2.2
		c0.5,0.9,0.6,1.9,1,2.9c1,2.6,2.7,3.1,4.6,1.1c0.7-0.8,1.6-2.6,1.2-3c-0.7-1-2.2-1.3-3.4-2c-0.9-0.5-2.1-0.9-2.5-1.7
		c-0.3-0.7,0.2-2.1,0.9-2.7c3-2.8,6.6-4.2,10.8-3.1c4.2,1.1,7.2,3.7,8.2,8.2c1.5,6.4,1.5,12.5-3.6,17.9c4-0.8,4.6-1.2,5.1-4.5
		c0.7-4.7,1.4-9.5,2.1-14.2c0.4,0,0.7,0,1.1,0c0.3,1.2,0.8,2.4,1,3.6c1.3,7.3,2.5,14.6,3.7,22c0.4,2.4,1.6,2.6,3.5,1.8
		C305.4,503.8,306.2,503.4,306.7,503.1z M150.4,581.7c-0.3,0-0.6,0-0.9,0c-0.5-2.4-1-4.9-1.4-7.3c-1.2,7.5-1.9,14.9-2.7,22.2
		c-0.1,0.8-0.3,2.3-0.5,2.3c-3.4,0.4-1.8,2.9-1.7,4.4c0.9,9,4.5,17.3,8.2,25.6c0-1.9,0-3.8,0-6.5c0.7,1.7,1.1,2.6,1.4,3.5
		c-0.5-4.1,2.2-6.3,4.6-8.8c3.3,4.8,6,5.8,8.5,2.9c0.9,2.9,1.8,5.4,2.6,8c0.8-1.6,1.3-3.2,1.1-4.9c-0.2-1.8-0.9-3.6-1.3-5.4
		c-0.1-0.6-0.3-1.7-0.1-1.8c2.2-1.2,2.3-3.2,2.3-5.4c-0.1-8.9-2-17.3-5.5-25.4c-2.8-6.4-5.4-12.9-8.3-19.3c-0.5-1-2.1-1.6-3.2-2.3
		c-0.6,1-1.6,1.9-1.7,2.9c-0.4,3.4-0.5,6.9-0.8,10.3C150.9,578.3,150.6,580,150.4,581.7z M409.6,578.3c0.2,0.1,0.5,0.2,0.7,0.3
		c-0.9,2.3-2.4,4.7-2.5,7c-0.1,2.4-2.4,5.1,0.3,7.5c0.3-0.4,0.7-0.6,0.8-0.9c1-3.6,4-5.1,6.8-7c1.6-1.1,3.2-0.6,3.8,0.8
		c0.9,2.2,1.9,4.8,1.6,7c-0.5,3.6,0.9,6.5,2.4,9.8c2.2-3.7,4.9-7.3,5.6-11.2c2.4-13.4,3.6-26.9,0.9-40.4c-0.2-1.1-0.5-2.2-1-4.1
		c-6,5.2-11.5,10-17.1,14.8c1.4-3.8,2.7-7.6,4-11.4c-6.9,10.9-8.8,23.3-11.8,35.4c0.3,0.1,0.6,0.3,0.8,0.4
		C406.5,583.7,408,581,409.6,578.3z M130.3,617.3c0.2-0.1,0.4-0.2,0.6-0.2c0.8,1.4,1.7,2.7,2.4,3.9c4.2-1.9,3-5.6,3.1-8.8
		c0.1-1.9-0.2-3.9-0.3-5.8c-0.7-8.5-2.1-17-5.3-25c-0.4-0.9-1.4-1.5-2.1-2.2c-0.8,0.8-1.8,1.4-2.3,2.3c-0.6,1.1-0.8,2.5-1.2,3.7
		c-0.2,0-0.3,0-0.5-0.1c-0.1-2.5-0.3-5-0.4-7.5c-1,3.6-1.5,7.1-2,10.7c-0.6,3.6-1.3,7.2-1.9,10.8c-0.3,0-0.6-0.1-0.9-0.1
		c-0.3-4.9-0.6-9.8-0.9-15.3c-6.7,10.4-7.3,30.2-1.2,36.5c0.1-1.8,0.3-3.3,0.4-5.1c1.8,5,3.5,9.7,5.3,14.4c0.3,0.8,0.4,1.8,0.9,2.3
		c1.5,1.2,3.2,2.1,5,3.1c0.1-0.2,0.2-0.6,0.4-1c1.3-3.7-0.7-8,2.1-11.5c0.3-0.4-0.2-1.4-0.3-2.1
		C130.8,619.2,130.5,618.3,130.3,617.3z M203.1,398.9c2.5,1.3,5,2.4,7.4,3.8c2,1.2,3.9,2.7,5.9,4c0.5,0.3,1.4,0.3,2.1,0.3
		c3.3,0,6.6,0,10,0c-0.2,0.7-0.3,1.2-0.4,1.9c2.1-0.6,3.8-1.2,5.6-1.7c2-0.6,4.4-0.5,6-1.7c4.4-3.2,8.6-6.8,12.8-10.3
		c0.5-0.4,0.9-1.1,1.3-1.7c-0.2-0.2-0.3-0.4-0.5-0.6c-1,0.4-2,0.9-3,1c-1.4,0.2-2.9,0.4-4.3,0.2c-2-0.4-2.3-1.8-1.2-3.3
		c1-1.4,2.1-2.6,3.7-4.5c-2.2,0.4-4.1,0.5-5.7,1.2c-1.7,0.7-3.1,2.1-4.6,3.1c-9.5,6.2-20.6,3.7-26.4-6.1c-0.9-1.6-1.9-3.1-2.9-4.6
		c-0.3,0.2-0.5,0.3-0.8,0.5c1.9,3.3,3.4,6.9,5.7,9.9c1.3,1.9,1.9,3.2,0.2,5.4c-6-4.1-7.3-10.8-10.6-17.3c-1.1,0.4-3.6,0.5-4.4,1.8
		c-1.6,2.5-0.6,5.8,1.5,7.7c-0.4,0.7-1.2,1.5-1,2c0.7,2,1.7,3.8,2.6,5.7C202.3,396.9,202.8,398.1,203.1,398.9z M367.5,500.4
		c-0.2,0-0.4-0.1-0.5-0.1c-7.7,10.1-15.5,20.1-23.2,30.3c-1.1,1.5-1.9,3.2-2.5,5c-1.2,3.4-2.1,7-3.3,10.4c-0.5,1.5-1.8,2.8-2.2,4.4
		c-2.1,8.6-6.9,15.4-13.8,20.8c-6.6,5.1-14.3,7.2-22.3,8.8c-0.7,0.1-1.4,0.4-2.7,0.7c-0.3-0.1-1.5-0.8-2.3-0.5
		c-2.9,1.2-5.1-1.7-7.9-1.1c-0.7,0.1-1.4-0.1-2.1-0.1c0.4,0.8,0.5,1.9,1.1,2.2c2.7,1.2,5.4,2.9,8.2,3.1c4.6,0.3,9.3,0,13.8-0.8
		c6.9-1.3,13.6-3.3,19.1-7.9c0.6-0.5,1.3-1.1,1.7-1.8c0.9-1.5,1.5-3.1,2.3-4.6c1.7-2.9,3.9-5.5,5.3-8.5c2.8-6.1,5.3-12.5,7.9-18.7
		c0.3-0.7,0.4-1.9,0.7-2c2.5-0.3,2.9-2.4,3.8-4c5.2-9.4,10.4-18.8,15.5-28.3C365.5,505.3,366.4,502.8,367.5,500.4z M404.5,483.7
		c-3.3,4.3-4.4,8.5-4.7,13.3c-0.3,5.1-1.6,10.2-2.5,15.3c-0.3,1.5-0.4,3.1-0.5,4.6c2.1-1.2,3.3-2.7,4.9-3.7c1.4-1,3.2-1.4,5.2-2.3
		c0.4,4.9,0.8,9.1,1.2,13.7c3-2.7,5.5-5.3,8.2-7.4c2.1-1.6,2.5-3.2,1.4-5.5C413.4,502.5,409,493.3,404.5,483.7z M226.8,364.1
		c-4.9-0.1-10,3.4-10.5,7.8c-0.7,5.9,1.6,11.7,7.8,14.2c4.6,1.8,8.8,0.9,12.5-2.2c3.5-2.9,3.6-6.7,2.6-10.7
		C238,368.2,231.6,364.1,226.8,364.1z M405.1,622c0.1,0,0.2,0.1,0.3,0.1c0.2,2,0.3,4.1,0.7,6.1c0.3,1.3,1,2.4,1.5,3.6
		c0.9-1.1,2.3-2,2.6-3.2c2.1-7.9,4.1-15.8,5.8-23.7c0.4-2-0.2-4.4-0.9-6.5c-0.6-2-2.4-2.2-3.6-0.6c-1.3,1.7-2.6,3.7-3.1,5.8
		C407.1,609.8,406.2,615.9,405.1,622z M214.5,372.7c-0.4,0-0.8,0-1.2-0.1c-0.6,1.6-1.6,3.3-1.6,4.9c-0.3,9.4,9.3,17.3,18.9,14.7
		c6-1.6,11.5-5.1,17.6-7.8c-1.7-3.4-3.4-6.8-5.2-10.4c-3.6,10.9-7.5,14.9-14.5,14.6C218.7,388.1,215,381.8,214.5,372.7z M447,618.2
		c-2.8,2.2-4.8,4.8-5.3,8.1c-1.1,7.3-2.1,14.7-3.1,22c-0.2,1.1,0,2.3,0,3.6C446.3,647.4,451.8,625.5,447,618.2z M202.9,630.9
		c-1.9-11-4.1-21.1-10.5-30C186,605.8,193.1,626.7,202.9,630.9z M482.4,621.5c-1.4,1.7-3.1,3-3.7,4.6c-2.3,7.2-4.2,14.5-6.1,21.8
		c-0.2,0.6,0.5,1.5,0.7,2.2c0.6-0.3,1.4-0.4,1.9-0.9c4.8-4.6,8.2-10.1,8.9-16.8C484.5,629,485,625.3,482.4,621.5z M140.1,659.3
		c0.3-0.1,0.6-0.3,0.9-0.4c-0.1-1.2-0.1-2.3-0.2-3.5c-0.4-4.4-1.2-8.9-1-13.3c0.2-3.7-0.7-6.6-3-9.2c-1.8-2.1-3.5-1.9-4.7,0.6
		c-0.4,0.8-0.6,1.8-0.8,2.7c-0.9,7.4,0.9,14.2,5.5,20.1C137.9,657.4,139.1,658.3,140.1,659.3z M167.3,654.8c0.4-1.3,0.7-1.6,0.6-1.9
		c-0.7-6.6-1.1-13.3-2.2-19.8c-0.3-1.9-2.2-3.7-3.7-5.3c-1.1-1.2-2.4-0.8-3,0.8c-0.3,0.9-0.5,1.8-0.5,2.7c0.2,7.1,2,13.7,5.6,19.8
		C164.8,652.2,165.9,653.2,167.3,654.8z M404.9,549.8c-0.3-0.2-0.5-0.3-0.8-0.5c-1.5,1.4-3.2,2.5-4.4,4.1c-3.3,4.4-6.6,8.9-9.5,13.7
		c-2.5,4.1-2.3,4.3,2.5,4.5c1.7,0.1,3.5,0.7,4.4-1.7C399.6,563.1,402.3,556.5,404.9,549.8z M219.7,572.9c-0.9-4.6-5.8-11.1-9.1-12.5
		c-1.8-0.8-3.1-0.3-4,1.3c-1.8,3.2-2,6.5-0.5,9.9c0.3,0.6,1,1.3,1.5,1.3C211.5,572.9,215.5,572.9,219.7,572.9z M506.7,614.3
		c-2.9,1.5-4.6,3.6-5.2,6.7c-0.8,4.4-1.9,8.7-2.8,13.1c-0.4,2-0.6,4.1-1,6.5C504.5,636.7,509.9,620.6,506.7,614.3z M115.9,647.8
		c0.3-0.2,0.6-0.3,0.8-0.5c-0.6-5.1-1-10.3-1.8-15.4c-0.3-1.6-1.4-3.2-2.5-4.5c-0.6-0.7-1.9-0.8-2.9-1.2c-0.3,0.9-0.9,1.8-0.9,2.8
		c-0.5,5.9,1.3,11.2,4.6,16C113.9,645.9,115,646.8,115.9,647.8z M383.4,554.6c-1.8,2.5-3.8,4.7-5.1,7.2c-1.4,2.6-2.3,5.5-3.2,8.3
		c-0.3,0.9-0.3,2.5,0.2,3c1.8,1.6,6.4-0.5,6.6-3C382.5,565.1,383,560.1,383.4,554.6z M142.4,484.5c6,0.6,15.1-13.5,12.6-21.7
		c-1.6,3.9-2.7,8-4.8,11.6C148.1,478.1,145,481.2,142.4,484.5z M264,532.2c0.5-2.8,1.2-4.8-1.8-5.5c-1.7-0.3-3.3-0.9-4.9-1.3
		c0.4,0.3,0.9,0.7,1.3,1c-0.8,0.5-1.7,1-2.8,1.7C257.9,529.2,260.8,530.7,264,532.2z M233.3,529.9c0.4-0.3,0.8-0.6,1.3-0.9
		c-3.2-4.5-6.3-8.9-9.5-13.4c-0.3,0.2-0.5,0.4-0.8,0.6C226.8,521.1,228.6,526.4,233.3,529.9z M275.8,491c-4-1.6-7.4-2.9-10.9-4.3
		C265.3,491,270.6,493.2,275.8,491z M249.8,511.7c-3.1-2.8-3.6-8-9-8c2.4,0.8,3,2.5,3,4.9C243.8,511.4,246.8,513,249.8,511.7z"/>
	<path d="M345.8,353.6c-0.1-2.1-0.2-3.5-0.3-4.9c-1.4,0.4-2.8,0.7-4.7,1.2c-1.8,5.5-1,11.6-1,17.7c0.3,0,0.6,0,0.9,0
		c0-0.9,0-1.9,0-2.8c0-1.1-0.3-2.2-0.2-3.3c0.1-1,0.6-2,1.3-3c1.7,2.7,0.6,5.6,0.7,8.4c0,2.9,0,5.8,0,8.7c0.4,0,0.8,0.1,1.1,0.1
		c0.6-3.1,1.2-6.2,1.8-9.2c0.3,0,0.5,0,0.8,0c0.1,1.1,0.3,2.2,0.2,3.2c-0.1,1.1-0.5,2.1-0.4,3.2c1.3-2.3,2.4-4.8,3.9-7
		c3.7-5.6,8.8-9,15.6-8.3c2.7,0.2,5.7,1.4,7.8,3.1c4.8,3.8,9,8.3,13.7,12.2c1.5,1.3,3.8,1.7,5.8,2.2c1.5,0.4,3.1,0.2,4.7,0.6
		c-3,1.6-6.3,1.5-9.5,0.9c-2.4-0.4-3.9,0.1-5.2,2.1c-1,1.6-2.3,2.9-3.3,4.5c-6.3,10-19.7,11.7-28.7,3.3c-1.9-1.8-3.9-2.5-6.3-1.9
		c-0.8,0.2-1.6,0.7-3.3,1.4c1.5,1.1,2.7,1.7,3.3,2.6c0.6,0.9,0.7,2.2,1.1,4.1c-1.5-0.9-2.6-1.5-3.6-2.2c-3.7-2.9-6.3-6.7-8.7-10.6
		c-0.7-1.2-2.1-2.1-2.4-3.3c-0.6-2.6-1.4-5.5-0.8-7.9c0.5-1.6,0.4-2.9,0.3-4.3c-0.4-3.8-1.6-7.6-0.9-11.2c0.3-2,0.4-5.3,3.8-6.4
		c3.9-1.2,3.8-4.8,3.6-8.3c-0.7,0.2-1.3,0.4-1.9,0.6c-1.5-3.4,1.3-10.2,5.6-13.3c-0.9,2.3-1.6,4.2-2.2,6c0.1,0.1,0.3,0.2,0.4,0.3
		c1.4-1.6,2.9-3.2,4.3-4.7c0.2,0.2,0.4,0.3,0.6,0.5c-1.2,1.7-2.4,3.5-3.7,5.4c4,3.2,6.3-2.7,9.9-1.4c-0.6,0.7-1.2,1.4-2,2.3
		c2.7-0.3,5.3-0.5,7.8-0.8c0.1,0.2,0.2,0.4,0.2,0.7c-1.3,0.5-2.5,1-3.1,1.2c4.2,1.2,9.2,2,13.7,3.9c5.5,2.4,9.8,6.1,12.9,11.7
		c2.4,4.3,6.5,7.5,9.8,11.3c1.5,1.7,3,3.5,4.4,5.4c0.4,0.5,0.1,1.5,0.1,2.3c-0.7,0-1.6,0.2-2.1-0.1c-2.3-1.6-4.4-3.3-6.6-5.1
		c-2.8-2.2-5.5-4.5-8.2-6.7c-4.7-3.9-10.3-5.3-16-6.8c-1-0.3-1.9-1.1-2.9-1.2c-1.6-0.3-3.2-0.3-4.8-0.2c-0.6,0-1.4,0.9-1.8,0.7
		C348.1,348.2,347.7,351.8,345.8,353.6z M363.4,384.9c7.4-0.1,12.5-5.6,12.8-12.9c0.2-4.7-7.5-10.6-13.9-10.5c-6,0.1-11,5-10.9,10.7
		C351.6,379.5,356.7,384.9,363.4,384.9z M377.8,371.3c-3,11.1-6.7,15.1-14,15.2c-4,0.1-7.7-1.2-9.9-4.6c-2-3.1-3.1-6.6-4.5-9.8
		c-2.4,2.7-2.8,7.4-0.1,10.9c4.6,6,10.8,8.5,18.1,7.1c7-1.3,11-6.1,12.9-12.8C381,374.9,380.3,372.9,377.8,371.3z"/>
	<path d="M405.9,283.4c0.9-2,1.5-3.4,2.4-5.4c-2.3,2.4-4.1,4.3-6.3,6.7c-0.5-1.6-0.7-2.2-0.7-2.1c-4.9,0.4-9.4,1.1-14,1
		c-2.4,0-5.2-1-7.3-2.3c-9.8-6.3-19.5-12.6-30.1-17.5c-14.9-6.8-30.3-8.4-46.2-5.5c-3.7,0.7-7.1,0.4-10.7-0.2
		c-16.8-2.6-33.2-1.2-48.9,5.4c-11.6,4.9-22.9,10.2-34.4,15.2c-3.5,1.5-7,3.1-10.7,4c-2.8,0.6-5.8,0.1-8.9,0.1
		c0.1,0.7,0.2,1.4,0.3,2.7c-1.9-0.8-3.5-1.5-5.2-2.3c0,0.5-0.1,1-0.1,1.5c-2.1-0.1-3.8-4.3-3-8c1,0.7,1.9,1.2,2.6,1.9
		c0.8,0.7,1.5,1.6,2.3,2.4c0.7-0.9,1.2-2.2,2-2.4c0.8-0.1,1.8,0.8,2.6,1.3c2.3,1.5,4.8,2.2,7.4,1.2c5.7-2.3,11.4-4.5,16.9-7.1
		c9.8-4.7,19.2-10.3,29.2-14.3c16.8-6.6,34.5-7.5,52.3-4.6c1.6,0.3,3.3-0.2,4.9-0.4c25.1-2.4,48.3,3.3,69.5,16.8
		c3.4,2.2,6.8,4.5,10.4,6.4c2.8,1.5,5.8,2.4,8.8,3.5c3.5,1.2,6.6,0.2,9.2-2.3c0.8-0.7,1.7-1.4,2.7-2.3c0.5,1,0.9,1.8,1.5,3
		c1.6-1.9,3-3.6,4.6-5.5C410.5,278.4,409.6,281,405.9,283.4z"/>
	<path d="M440.4,321.5c-1-1.1-1.6-1.8-2.2-2.5c4-0.6,14.2,5.9,15.7,10.3c-1.8-1.2-3.3-2.2-4.8-3.2c-0.2,0.2-0.3,0.4-0.5,0.6
		c3.4,3.3,6.7,6.5,10.1,9.9c-3.2,0.7-2.6,2.9-1.9,5.4c0.6,2.2,2.4,4.6,0.1,7c3.4,5.8,5.8,11.7,4.6,18.7c-1.1-1.9-2.1-3.9-3.2-5.8
		c-0.4,0.1-0.8,0.2-1.2,0.3c0.4,2.6,1.9,5.9,0.9,7.7c-1.6,2.8,0.3,5.5-1.2,8.2c-0.6-0.4-1.1-0.7-1.8-1.1c0.1,2.3,0.3,4.5,0.4,6.8
		c-0.5,0.3-0.9,0.5-1.4,0.8c-0.2-0.6-0.4-1.2-0.7-1.8c-1.4-4-2.9-8-4.2-12.1c-0.5-1.4-0.4-2.9,2.7-2.5c-2.8-4.6-5.1-8.8-7.7-12.8
		c-0.8-1.3-1.7-2.5-0.2-4.2c1.3,0.7,2.6,1.5,3.8,2.2c1.2-4.8-2.2-7.3-4.7-10.1c0.2-1,0.6-2.1,0.4-3c-0.2-0.9-1-1.8-1.9-3.1
		c4.7-0.6,7.4,2.5,11.1,3.3c-3.7-3.8-7.3-7.6-11.5-12c1.8,0.4,2.8,0.6,3.8,0.8c0.1-0.2,0.2-0.3,0.4-0.5c-3-2.4-6-4.7-9-7.1
		c0.1-0.2,0.2-0.4,0.4-0.6C437.8,321.2,438.8,321.3,440.4,321.5z"/>
	<path d="M392.6,397.1c-4.5,3.4-8.7,6.6-12.5,9.4c0.7,2.1,1.2,4,2.1,5.7c0.5,1,1.6,1.7,2.6,2.2c1.1,0.6,2.4,0.7,3.6,1.1
		c0,0.4-0.1,0.7-0.1,1.1c-2.5,0-4.9,0-7.4,0c-0.1,0.3-0.2,0.6-0.3,0.9c1.3,1,2.7,2,4.6,3.4c-4.8,1.8-8.7-1.2-12.8-0.7
		c2.9,1.3,5.7,2.5,8.6,3.8c-0.1,0.3-0.2,0.7-0.3,1c-0.8,0-1.8,0.2-2.5,0c-4.2-1.3-8.5-2.7-12.7-4c-1.8-0.6-3.7-1-5.4-1.7
		c-1.3-0.5-3.4-0.5-3-3c0.1-0.4-0.8-0.9-1.3-1.3c-1.4-1.2-2.8-2.3-4.8-4c4.3,1.3,7.7,2.4,11.2,3.4c0.7,0.2,1.5,0.6,2.2,0.4
		c0.9-0.2,1.6-0.9,2.4-1.4c-0.5-0.6-0.9-1.2-1.5-1.7c-2-1.4-4-2.7-6-4c0.2-0.3,0.3-0.7,0.5-1c1.8,0.4,3.6,0.9,5.5,1.3
		c0-0.2,0.2-0.7,0.3-1.1c0.1-0.5,0-1.1,0-1.8c1.4-0.3,2.8-0.8,4.1-0.8c1.9,0,3.3-0.3,4.6-2c0.5-0.7,2.1-0.7,3.3-1.1
		c0.2-3.1,3.5-2.5,5.5-3.9c-0.6-0.4-1.1-0.8-1.7-1.1C384,394,388.4,394.2,392.6,397.1z"/>
	<path d="M523.4,377.1c-0.8,0.1-1.5,0.3-2.8,0.5c1.7,1.1,3.1,2.1,4.4,3c-0.1,0.2-0.2,0.5-0.4,0.7c-3.5-1.3-7-2.6-10.6-3.9
		c0.1-0.3,0.1-0.6,0.2-0.8c1.6-0.2,3.1-0.4,4.7-0.6c0-0.2,0-0.4,0.1-0.6c-1.2-0.4-2.5-1-3.7-1.3c-7.9-2-14.5-6.5-18.8-13.1
		c-7.4-11.4-18-19.1-28.4-27.2c-8.7-6.8-17.3-13.8-24.4-22.4c-0.9-1-2.1-1.8-3.1-2.7c0.1-0.2,0.2-0.4,0.4-0.6c1,0,2,0,3,0
		c0-0.1,0.1-0.3,0.1-0.4c-1.2-0.6-2.4-1.3-3.7-1.9c3.7-0.8,6.2,1.5,9.1,2.7c0,0.3,0,0.6,0,0.9c-1.2,0.4-2.5,0.8-3.8,1.2
		c0.1,0.2,0.1,0.5,0.3,0.7c12.8,10.8,25.7,21.4,38.3,32.4c4.6,4.1,8.7,8.9,12.5,13.8c5.1,6.7,11.2,11.8,19.1,14.9
		c2.8,1.1,5.3,2.7,8,4C523.6,376.6,523.5,376.8,523.4,377.1z"/>
	<path d="M253.1,414.3c-0.8,0.9-1.7,1.9-2.5,2.8c0.1,0.1,0.2,0.2,0.2,0.4c1.3-0.7,2.7-1.4,4.3-2.2c-0.7,3.8-5.8,5.2-4.5,9.8
		c2.6-1.2,5-2.2,7.4-3.3c0,0.1,0.1,0.2,0.1,0.3c-2.6,2.5-5.3,4.8-7.8,7.4c-2.5,2.6-4.7,5.4-7.4,8.5c0.4-1.5,0.7-2.7,1-3.9
		c-0.2-0.1-0.4-0.2-0.6-0.3c-0.4,1.2-0.9,2.3-1.3,3.5c-0.8,3-1.5,6.1-2.5,9.1c-0.7,2.1-2.2,4-2.8,6.1c-1.2,4.2-2.1,8.6-3,12.9
		c-0.2,0.8-0.2,1.6-0.3,2.3c-0.3,0-0.5,0-0.8,0c-0.3-4.7-0.4-9.4-0.8-14.1c-0.1-1.6-0.8-3.2-1.3-4.7c-0.4-0.1-0.8-0.3-1.1-0.4
		c0.7-0.4,1.6-0.7,2-1.4c2.2-3.1,5.6-6.2,6.1-9.6c1.1-7.6,6.7-12.6,9.4-19.2c0.8-2,3.6-3.2,5.5-4.8
		C252.7,414,252.9,414.1,253.1,414.3z"/>
	<path d="M488.9,361.5c1,0.5,1.8,0.8,2.3,1.2c5.9,4.8,10.3,10.6,11.5,18.4c0.3,2.2,1.2,4.3,1.6,6.5c0.4,1.9,1.1,4.2-1.5,5
		c-2.8,0.9-2.5-2-3.8-4.2c-0.2,1.6-0.3,2.5-0.4,3.4c-0.7,4.9-1.4,9.7-2.2,14.6c-0.4,2.5-1,4.9-4.2,5.1c0-5.9,0-11.9,0-18.5
		c1.4,0.6,2.1,0.9,2.8,1.2c2.5-7.8,1.9-14.9-4.5-20.9c1.4-0.7,2.1-1,3.1-1.6C492,368.4,490.6,365.2,488.9,361.5z"/>
	<path d="M94.7,384.5c2-2.5,3.9-5,5.9-7.5c0.4,0.3,0.7,0.5,1.1,0.8c-5.1,6.5-6.8,14.8-11.6,21.5c-0.5-0.1-0.9-0.3-1.4-0.4
		c0.4-2.6,0.8-5.1,1.2-7.7c-0.2-0.1-0.4-0.2-0.7-0.3c-1.7,2.6-3.4,5.3-5.1,7.9c-0.3-0.1-0.6-0.3-0.9-0.4c1.6-3.9,3.3-7.7,4.9-11.6
		c-0.1,0-0.2-0.1-0.3-0.1c-0.7,0.8-1.3,1.6-2,2.4c-0.2-0.1-0.3-0.2-0.5-0.2c0.4-1.5,1.5-3.2,1.3-4.6c-1-7.1,4.5-10.6,8.3-14.8
		c2.2-2.4,5.4-3.9,8.2-5.7c0.6-0.4,1.6-0.4,2.6-0.3c-6.6,5.2-10.9,11.7-11.8,20.1C94.1,383.9,94.4,384.2,94.7,384.5z"/>
	<path d="M469,415c-0.2,1.7-0.4,3.4-0.6,5.1c0.2,0.1,0.3,0.2,0.5,0.3c1.4-2.7,2.8-5.4,4.4-8.5c1.8,5.2-5.1,18.4-10.6,20.5
		c0-0.8,0-1.5,0-2.2c0-0.7,0.1-1.4,0.2-2.8c-2.4,3.1-4.4,5.7-6.3,8.3c-0.3-0.1-0.6-0.2-0.9-0.3c0.1-1.4,0.1-2.8,0.3-4.2
		c0.4-2.6,0.7-5.2,1.3-7.7c0.2-0.8,1.2-1.3,1.7-2.1c0.7-1.1,1.5-2.2,1.9-3.5c0.7-1.8,1-3.6,1.5-5.5c0.3,0,0.6,0.1,0.9,0.1
		c0,3.8,0,7.5,0,11.4c1.5-3.3,2.9-6.5,4.3-9.7C468.2,414.7,468.6,414.8,469,415z"/>
	<path d="M479.8,424.5c0.5-3.2,0.9-5.9,1.3-8.9c-1.2,0.4-2,0.7-3.2,1.1c-0.1-1.1-0.5-2.1-0.2-3c0.9-3.2,1.9-6.4,3.1-9.5
		c1.3-3.2,1.6-3.3,4.6-1.6c0.3,0.2,0.6,0.3,1.2,0.6c0.5-1.5,0.9-2.8,1.3-4.2C492,402.7,486.3,421.7,479.8,424.5z"/>
	<path d="M425.5,286.3c-2.8,0.5-5.7,1-8.5,1.5c0,0.3,0,0.6,0,1c9.1,1.9,18,4.3,26.5,8.9c-3.1,2.3-6,1.4-8.8,0.3c1.6,0,3.2,0,4.8,0
		c0.1-0.2,0.1-0.5,0.2-0.7c-4.3-1.5-8.6-3-12.9-4.4c-4.3-1.4-8.6-2.7-13.4-4.1c1.4-0.9,2.4-1.6,3.4-2.3c-0.1-0.2-0.1-0.4-0.2-0.5
		c-1.2,0-2.4,0-3.5,0c-0.1-0.3-0.2-0.5-0.2-0.8c2-1,3.9-2.1,5.9-3.1c0,0.3,0,0.7,0,1c2.4,0.7,4.7,1.5,7.1,2.2
		C425.7,285.7,425.6,286,425.5,286.3z"/>
	<path d="M446.1,433.2c2.2-8.9,4.3-17.9,6.5-27.1C457,414.6,451.6,430,446.1,433.2z"/>
	<path d="M394.1,454.9c1.4,2.5,3.2,4.7,3.9,7.2c0.5,1.7-0.4,3.9-1.2,6c-0.5-0.9-1-1.9-1.5-2.7c-1-1.6-2-3.2-3.1-4.8
		c-0.9-1.3-2.5-2.3-1.1-4.3c0.2-0.2-0.7-1.6-1.3-2c-1.2-0.8-2.5-1.4-3.9-2.1c2.9-2.9,9.8-0.9,13.1,3.8
		C397.2,455.5,395.8,455.2,394.1,454.9z"/>
	<path d="M100.4,389.2c1.1-1.4,2.2-2.9,3.8-4.8c1.5,4.9-0.2,9-0.8,13.1c-0.2,0.6-0.4,1.3-0.6,1.9c-1,3.2-2,6.5-3,9.7
		c-0.3,0.1-0.6,0.1-0.8,0.2c-0.4-1.1-1.2-2.2-1-3.2c0.6-4.4,1.5-8.7,2.2-13.1C100.3,391.7,100.3,390.4,100.4,389.2L100.4,389.2z"/>
	<path d="M109.4,416c0.1,1.6,0.2,3.2,0.3,5c-4.7-1.5-5.4-13.4-1.7-18.3c2.1,6.4,4.2,13,6.6,20.1C111.2,421.2,110.5,418.5,109.4,416z
		"/>
	<path d="M521.4,394.6c-0.1-0.1-0.3-0.2-0.4-0.4c-2.7-3.5-2.9-8.6-7.1-11.4c2.8,0.8,5.6,1.5,8.5,2.3c0.1-0.2,0.2-0.5,0.3-0.7
		c-1.4-1.1-2.8-2.2-4.2-3.4c3.9,0.8,6.5,3.2,8.1,6.6c-0.1,0.3-0.3,0.6-0.4,0.9c-2.7-1-5.4-2-8.1-3c-0.1,0.2-0.2,0.4-0.3,0.6
		c3.1,1.9,6.2,3.8,9.3,5.7c0,0.2-0.1,0.4-0.1,0.5c-1.6-0.2-3.2-0.3-5.3-0.6c0.9,1.4,1.5,2.3,2.5,4
		C522.8,395.1,522.1,394.8,521.4,394.6z"/>
	<path d="M321.1,308c-0.1,1.6-0.2,3.2-0.4,5c0.6,0.1,1.2,0.1,2.1,0.2c-1,2.4-1.7,4.7-2.9,6.6c-2.7,4-5.3,8-6,12.9
		c0,0.2-0.3,0.4-0.9,1.1c-0.5-4.2-0.9-8-1.3-11.7c0.4-0.1,0.7-0.1,1.1-0.2c0.3,1,0.5,2,0.8,2.9c0.2,0,0.3,0.1,0.5,0.1
		c0.4-3,0.9-5.9,1.3-8.9c0.3,0,0.6,0.1,0.9,0.1c0,2.1,0,4.2,0,6.4c0.3,0,0.6,0.1,0.9,0.1c1.1-4.9,2.1-9.8,3.2-14.6
		C320.7,307.9,320.9,308,321.1,308z"/>
	<path d="M399,426.6c2.4,1.8,4.9,3.6,7.3,5.4c0.1-0.1,0.3-0.2,0.4-0.3c-2.4-2.9-4.8-5.8-7.4-8.9c4.4,1.8,7.5,4.6,9.7,8.7
		c0.2,0.4,0.2,1.1,0.2,1.6c-0.1,1.4-0.3,2.8-0.5,4.2c-0.1,0.8-0.5,1.5-0.7,2.2c-0.6-0.4-1.5-0.6-1.8-1.2c-2.6-3.7-5-7.4-7.6-11.2
		C398.8,427,398.9,426.8,399,426.6z"/>
	<path d="M453.1,447.6c-0.3,2.9-0.7,5.8-0.9,8.7c-0.1,1.4,0.3,2.9,0.3,4.4c0,1.1,0.1,2.2-0.2,3.2c-0.6,2-1.5,3.9-2.4,6.1
		c-0.7-3-2.7-5.3-1.3-9c1.6-4.3,2.1-9,3-13.6C452.2,447.5,452.6,447.6,453.1,447.6z"/>
	<path d="M154,298.8c0.5,0.1,0.9,0.3,1.4,0.4c0,0.2,0,0.4-0.1,0.6c-2,0-4.1,0-6.1,0c0-0.3-0.1-0.5-0.1-0.8c8.4-5,18-6.5,27.3-8.6
		c0.1,0.4,0.2,0.8,0.3,1.1c-7.6,2.1-15.2,4.3-22.8,6.4C153.9,298.2,154,298.5,154,298.8z"/>
	<path d="M183,285c-2,0-3.5,0-5.1,0c-0.9,0.8-1.9,1.6-3,2.5c1,0.4,2.1,0.9,3.3,1.4c-0.1,0.2-0.1,0.5-0.2,0.7
		c-3.8-0.5-7.6-1.1-11.4-1.6c-0.1-0.2-0.2-0.5-0.3-0.7c1-0.5,2.1-1.1,3.1-1.6c1.1-0.5,3.2,0.6,3.2-1.9c0,0,0.8,0,1.2-0.1
		C176.9,282.8,179.9,282.1,183,285z"/>
	<path d="M465,358.7c-2,0.1-3.7-2.4-2.8-4.2c0.2-0.4,1.3-0.6,2-0.6c2.4,0.1,4.8,0.5,7.2,0.5c1.4,0,3.2-0.3,3.1,1.5
		c0,0.8-1.6,2.1-2.7,2.3C469.6,358.7,467.3,358.6,465,358.7z"/>
	<path d="M102.7,399.3c0.2-0.6,0.4-1.3,0.6-1.9c0.4,1.7,1.1,3.3,1.2,5c0.4,4.6,0.5,9.3,0.7,13.9c0,0.6-0.2,1.2-0.3,1.9
		c-0.3,0.1-0.6,0.2-0.9,0.3c-0.7-2.1-2-4.2-2.1-6.4C102,407.8,102.5,403.6,102.7,399.3z"/>
	<path d="M294.2,300.2c0.1-2.6,0.2-5.1,0.4-7.7c0.4-0.1,0.8-0.3,1.2-0.4c1.3,2.8,3.4,5.5,3.8,8.4c0.4,3.1-0.8,6.3-1.8,9.5
		c-0.7-4.6-1.4-9.1-2.3-14.3c-0.1,1.9-0.2,3.3-0.2,4.6C295,300.2,294.6,300.2,294.2,300.2z"/>
	<path d="M406,446c-3.4-5.9-6-11.9-12.1-15.2C400.5,430.4,408.7,440.5,406,446z"/>
	<path d="M100.4,389.1c-2.2,5.7-4.5,11.4-6.9,17.4C91.5,401.4,95.6,391.7,100.4,389.1C100.4,389.2,100.4,389.1,100.4,389.1z"/>
	<path d="M377.2,428.2c-4.6,2.8-9.9,0.4-14.5-5.8C367.5,424.4,372,426.2,377.2,428.2z"/>
	<path d="M319.1,517.5c0.4-0.9,0.6-2.1,1.2-2.8c1-1,2.3-2.1,3.4-2.1c1.5,0,3,1,4.4,1.8c0.3,0.1,0.2,1.5-0.2,1.9
		c-0.5,0.5-1.8,1.1-2.1,0.9C323.5,515.4,321.3,517.2,319.1,517.5L319.1,517.5z"/>
	<path d="M155.5,301.2c-0.8,0.5-1.7,1.1-3,1.9c1.2,0,1.8,0,2.9,0c-2.7,2.5-5.2,4.2-8.7,3.4c-0.6-0.1-1.2-0.6-1.4-1.1
		c-0.1-0.2,0.3-1.2,0.7-1.3c3.1-1.2,6.2-2.2,9.3-3.3C155.3,300.7,155.4,301,155.5,301.2z"/>
	<path d="M264.3,311.5c0.6,0.1,1.2,0.3,1.9,0.4c0-0.6,0.1-1.1,0.1-2.1c3.6,3.3,5.7,7,7,10.7c-3-2.6-6.2-5.4-9.4-8.2
		C263.9,312,264.1,311.8,264.3,311.5z"/>
	<path d="M296.6,368.7c-0.5-3.2-1-6.3-1.5-9.5c0.2-0.1,0.5-0.1,0.7-0.2c0.3,1.2,0.6,2.3,0.9,3.5c0.2,0,0.3,0,0.5-0.1
		c-0.1-1.6-0.2-3.2-0.3-5.1C299.5,361.6,299.7,366.2,296.6,368.7z"/>
	<path d="M319,517.5c-1.9,1.1-3.8,3.1-5.1-0.7c-0.1-0.3-0.7-0.6-1.1-0.7c-1.6-0.6-3.2-1.1-4.7-2.2
		C312.1,514.3,316.4,513.4,319,517.5C319.1,517.5,319,517.5,319,517.5z"/>
	<path d="M447,303.6c-2.6,1.7-6.2,0.8-9.8-2.3C438.8,300.1,445.4,301.7,447,303.6z"/>
	<path d="M99,561.5c0.1,4.9-0.2,9.7-2.5,14.1C94.8,570.5,96.3,565.9,99,561.5z"/>
	<path d="M235.9,374.2c-1.9,5.7-5.5,7.9-10,6.3c-3.3-1.1-5.5-7.1-4-11.1c1.3-3.6,5.2-4.6,9.8-2.6c-1.3,1.7-3.9,3.1-2.3,5.8
		C230.9,375.1,233.3,375,235.9,374.2z"/>
	<path d="M364.3,366.5c-0.4,5,0,5.4,5.5,6.3c0.5,3.3-1.6,6-4.9,6.3c-4.4,0.4-7.9-2.5-7.9-6.6C357,368.8,360.1,366.2,364.3,366.5z"/>
</g>
</svg>
