<?xml version="1.0" encoding="utf-8"?>
<!-- Generator: Adobe Illustrator 24.2.3, SVG Export Plug-In . SVG Version: 6.00 Build 0)  -->
<svg version="1.1" id="Layer_1" xmlns="http://www.w3.org/2000/svg" xmlns:xlink="http://www.w3.org/1999/xlink" x="0px" y="0px"
	 viewBox="0 0 595.3 841.9" style="enable-background:new 0 0 595.3 841.9; fill: #215342;" xml:space="preserve"
	 height="400" width="500" transform="translate(-85, -79)">
<g>
	<path d="M82.6,514.6c-4.7,3.5-7.4,7.2-8.9,9.6c-3.6,5.9-4.6,11.8-5.2,15.7c-1.2,7.5-0.3,11.9-1.4,12.1c-0.9,0.2-2.7-2.2-6.9-13.8
		c-1.1,3.5-2.1,7-3.2,10.4c-2.4-4-3.1-6-3.3-7.1c0-0.2-0.1-1.1-0.7-1.3c-0.3-0.1-0.7,0-1.5,0.4c-4.7,2-9.4,3.5-14.5,4.1
		c-2.2,0.3-4.4,0.3-6.7,0c7-2.5,13.8-5,18.1-12.1c-1,0.2-1.5,0.8-2,1.2c-4,3.1-8.3,5.4-13.3,6.2c-4.5,0.7-11.4-0.2-16-3.2
		c0.5-0.7,1.2-0.7,1.9-0.8c6.4-0.7,11.5-3.8,15.4-8.8c5.4-7,8.9-14.7,8.3-23.9c-0.2-3,0-6.1,0.8-9c1.7-6.6,5.7-11.5,11.2-15.3
		c0.8-0.5,1.7-0.9,2.4-1.9c-2.5-1.4-5.4-1.7-8.1-3c1-1,2.1,0.1,3-0.4c-0.3-0.8-1.2-1.1-1.8-1.5c-6.6-4.2-13.2-8.4-19.8-12.6
		c-0.3-0.2-0.7-0.4-1-0.6c-0.4-0.4-1.4-0.5-1.1-1.3c0.3-0.8,1.1-0.4,1.7-0.4c11,0.4,21.7-1.1,32.1-4.8c7.6-2.7,14.6-6.4,20.5-12
		c0.9-0.8,1.7-1.7,2.5-2.6c0.1-0.2,0.2-0.4,0.4-1c-6.9,2.2-13.6,4.2-20.7,3.5c9.2-2.9,17.5-7.5,25.1-13.6c-3.4,0.2-6.5,1.5-9.9,2
		c-0.1-0.9,0.6-1,1.1-1.3c2.1-1.3,4.3-2.5,6.3-3.9c6.2-4.3,10.5-10,11.9-17.6c0.3-1.4,0.3-2.9,0.3-4.3c-0.3-12.8,4.7-23.3,13.9-31.9
		c1-1,2.1-1.9,3-3.1c-4.5,1.6-8.2,4.4-11.3,7.9c-3.1,3.5-5.3,7.5-7.3,11.7c-0.5-1.4-0.4-2.7-0.1-4c2.1-9.2,6.8-16.5,15.1-21.2
		c3.6-2.1,7.5-3.6,11.4-5.1c0.8-0.3,1.7-0.5,2.7-1.4c-8.5-0.4-16.3-2.7-23.8-6.6c2.3-0.8,4.4-0.7,6.4-1c8.8-1.3,17-4.2,24.7-8.8
		c3.9-2.4,8.2-4,12.7-4.9c2.6-0.5,5.2-0.5,7.9-0.8c5.2-0.7,9.5-2.9,12.9-7c10.8-12.9,21.4-25.9,31.1-39.6
		c4.1-5.8,8.4-11.5,13.5-16.5c10.5-10.1,23.1-16.1,37.3-19.1c8.7-1.8,17.6-2.3,26.4-2.9c3-0.2,6-0.4,9.3-0.6c-0.9-2-2.6-3.1-3.7-5.3
		c9.3,4.9,17.2,1.4,25.1-2.9c-1.1,2.1-3.2,3.1-4.9,5c7.6-1.4,13.1-6,19.2-10.6c-1.5,4.7-4.8,7.2-8.1,10.4c2.8-0.1,5.1-0.6,7.4-1
		c2.4-0.4,4.7-1.1,7-1.8c2.2-0.7,4.3-1.7,6.7-2c-1.1,1.7-2.9,2.3-4.5,3.4c-1.5,1-3.1,1.9-4.6,2.9c0.4,0.8,1.1,0.5,1.5,0.5
		c17.3,0.4,33.7,4.7,49.2,12.2c9.6,4.7,17.7,11.4,24.4,19.8c3.9,4.9,7.3,10.1,10.6,15.4c5.8,9.1,11.6,18.2,17.4,27.3
		c1.5,2.4,3.2,4.6,5.2,6.5c4.4,4.2,9.7,6.6,15.8,6.6c5.7,0.1,10.7,1.8,15.4,4.7c7,4.3,14.6,7.3,22.7,8.7c2.6,0.5,5.3,0.7,8,1.1
		c-7.1,4.2-14.9,6.2-23.2,7.3c0.7,1,1.6,1.2,2.5,1.5c2.6,0.9,5.1,1.8,7.6,2.9c11.5,5,17.6,14.1,19.5,26.3c0,0.1-0.1,0.3-0.2,0.7
		c-4.2-8.6-9.9-15.5-19.1-19c0.6,0.6,1.2,1.2,1.8,1.7c5.9,5.3,10.3,11.5,12.9,19c1.2,3.5,1.5,7.2,1.7,10.8c0.2,4.6,1.3,9,3.3,13.2
		c3.2,6.7,8.5,11.3,14.9,14.7c0.8,0.4,1.7,0.6,2.4,1.6c-3.4,0.3-6.5-0.8-9.7-1.3c7.3,6.1,15.3,10.7,24.5,13.2
		c-3.5,0.9-6.9,0.4-10.4-0.2c-3.5-0.5-6.7-1.8-10.1-2.8c-0.3,0.8,0.2,1.2,0.5,1.6c1.7,2.3,3.8,4.1,6.1,5.7
		c6.7,4.6,14.2,7.6,22.1,9.7c8.1,2.3,16.4,3.6,24.9,3c0.4,0,0.8-0.2,1.2,0.4c-7.2,4.7-14.5,9.5-22.1,14.5c1.8,0.5,3-0.6,4.7,0.2
		c-3,1.8-6.2,2.8-9.2,4.6c1.2,1,2.1,1.8,3.1,2.6c1.6,1.4,3.3,2.8,4.9,4.3c4.4,4.2,6.6,9.3,6.6,15.4c-0.1,6.5,0.8,12.8,3.3,18.8
		c1.6,3.9,3.8,7.4,6.5,10.6c3.8,4.4,8.5,7.2,14.4,8c-0.4,1.1-1.4,1.4-2.2,1.7c-5.4,2.4-11,2.4-16.6,0.6c-3.6-1.1-6.7-3-9.5-5.4
		c-0.6-0.5-1.2-1-2.1-1.8c0.1,1.7,0.9,2.8,1.7,3.8c1.8,2,4,3.4,6.3,4.7c3,1.6,6.3,2.8,9.8,4.1c-1.2,0.8-2.3,0.7-3.3,0.8
		c-5.7,0.2-11.3-0.7-16.8-2.2c-1.2-0.3-1.7-0.6-2.1-0.4c-0.8,0.3-1,1.3-1.2,1.8c-0.5,1.1-2.7,2.1-10.3,1.1c0.1-3.3,0-15.5-8.3-24.5
		c-3.8-4.1-8.5-6.7-9.7-7.4c-2.3-1.2-5.9-2.8-11.2-3.8c-10-1.9-14.6,0.5-32.8,2.4c-13,1.4-13.5,0.4-19,2.1
		c-11.4,3.5-18,10.1-19.5,11.6c-2,2.1-1,1.5-4.3,5.2c-7.9,9.1-12.8,11.6-14.7,18.3c-0.5,1.8-0.7,3.3-0.7,4.3
		c-1.5-0.8-4.6-2.3-7.2-1.1c-1.4,0.6-2.1,1.7-2.4,2.2c-3,4.7-6.2,9.3-9.7,13.7c-4.7,5.9-10.7,9.8-18.1,11.3
		c-3.9,0.8-7.8,0.9-11.7,0.5c-1.7-0.2-3.3-0.2-5,0.1c-2.7,0.5-4.6,1.9-5.7,4.3c-0.7,1.5-1.6,2.5-2.8,3.5c-2.4,2.1-4.7,4.3-7.1,6.4
		c-2.2,2-4.7,3.5-7.5,4.7c-2.8,1.2-5.1,3-7.4,4.9c-5.9,4.9-12.6,7.7-20.3,8.4c-2.4,0.2-4.5,0-6-2.4c-1.4,1.5-3,2.4-5.1,2.3
		c-1.9-0.1-3.8,0.5-5.6-0.6c-1.7-1-2.5-2.8-4.2-3.8c-0.2,0.2-0.3,0.3-0.4,0.4c-0.7,2.9-0.7,2.9-3.6,2.6c-3.9-0.3-7.5-1.7-10.7-3.8
		c-1.7-1.1-3.4-2.4-5.1-3.6c-2.1-1.5-4.3-2.5-6.9-2.5c-2.6-0.1-4.5-1.4-5.6-3.5c-3.2-6-8.3-10.5-12.4-15.8c-1-1.3-2.5-1.7-4-1.7
		c-3,0-5.9,0-8.9-0.1c-3-0.1-5.9-0.4-8.8-1.2c-6.7-1.8-11.8-5.8-15.9-11.3c-2.9-3.8-5.5-7.9-7.8-12.1c-0.4-0.7-1-1.6-2.2-2.5
		c-3.2-2.3-7.5-1.6-9.8-0.9c-0.1-2.5-0.6-6.2-2.6-10c-1.9-3.5-4.1-5.4-7.1-8.1c-14-12.4-12.8-13.4-18.3-16.2
		c-5.1-2.6-9.9-3.6-13.1-4.3c-5-1.1-8.9-1.3-11.2-1.4c-25.8-1.5-33.8-5.3-45.9-0.2C85.4,512.9,83.6,514,82.6,514.6z M258.8,273.7
		c13.6,1.8,25,7.5,33.9,18.7c0.1-1.5-0.5-2.2-0.8-3c-1.5-3-3.5-5.7-5.9-8.1c-7.8-7.9-17.2-13.1-27.9-16.2c-3.8-1.1-7.6-1.7-11.6-1.4
		c-1.1,0.1-2.1,0.1-3.4,0.9c6.6,0.5,12.8,1.3,18.7,4.7c-1.1,0.4-1.9,0.2-2.6,0.1c-3.7-0.2-7.5-0.5-11.2-0.7c-3.5-0.2-7-0.1-10.5,0.7
		c-2,0.5-3.9,1.2-5.2,3.1c2.9-0.6,5.8-1.1,9-1.8c-0.8,1-1.6,1.2-2.2,1.6c-5.2,2.8-10.4,5.5-15.7,8.3c-1.5,0.8-2.9,1.8-3.9,3.2
		c6.6-2.6,12.9-5.9,19.9-7.5c7-1.6,14.1-1.2,21.3-1.7C260,274.1,259,274.4,258.8,273.7L258.8,273.7z M308.7,418.3
		c0.2-1.9,0.4-3.8,0.6-5.7c0.2-2.2,0.5-4.5,0.7-6.7c0-0.4,0.2-1.1-0.4-1.2c-0.8-0.2-0.8,0.6-1,1.1c-0.5,1.9-0.9,3.9-1.4,5.8
		c-0.2,0.7-0.2,1.6-0.9,2.3c-0.4-3.1-0.6-6-0.5-8.9c0.2-5.4,1.4-10.5,4-15.3c-2.3,1.7-3.2,4.4-5.5,6.4c0.1-2.3,1.2-4.1,1.3-6.3
		c-1.2,1.2-1.1,2.8-2.4,3.9c-0.8-2.5-1-4.9-1.5-7.2c-0.5-2.3-0.5-4.7-1.7-6.9c-0.2,3,1.1,5.7,1,8.9c-1-0.7-0.9-1.8-1.7-2.3
		c-1.2,1.3-1.2,1.3-2.4,0.1c-1.6-1.6-3.1-3.2-4.7-4.8c-0.3-0.3-0.6-0.9-1.6-0.7c1.9,2.4,3.7,4.7,5.4,6.9c-3.6-1.6-6.6-4.2-10.7-4.5
		c1.3,1.5,2.7,2.7,4,4c1.4,1.3,3.1,2.4,4.1,4.1c-0.5,0.5-1.1,0.2-1.5,0.7c3.5,4.1,6.4,8.5,6.7,14.3c-4.1-5.7-8.8-10.5-16.5-10.6
		c3.5,2,7.2,3.6,9.6,7c-2.3-0.8-4.5-1.9-6.8-2.8c-2.2-0.9-4.5-1.7-7.1-0.9c7.6,3.7,14.2,8.5,17.7,16.8c-0.9-0.3-1.2-0.9-1.5-1.3
		c-10.7-12.6-26.4-11.9-37-5.7c-2,1.2-3.8,2.6-5.2,4.5c-0.5,0.6-1.1,1.3-1,2.4c1.6-0.8,3-1.5,4.5-2.1c6.8-3,13.9-4.7,21.4-4.1
		c3.5,0.3,6.8,1.3,9.7,3.2c1.3,0.9,2.5,1.9,3.6,3.7c-2.7-0.9-4.8-1.6-7-2.3c-4.6-1.6-9.3-2.2-14.2-1.8c-1.3,0.1-2.6,0.2-4,1.2
		c1.8,0.5,3.5,0.1,5.2,1c-1.2,0.3-2.1,0.5-2.9,0.7c-3.8,0.9-7.6,2-11.1,3.8c-2.5,1.2-4.7,2.7-6.5,4.8c-0.3,0.4-0.8,0.7-0.5,1.5
		c2.9-1.6,5.6-3.3,8.6-4.4c3-1.1,6.1-1.9,9.8-1.1c-4.7,2.3-8.9,4.3-13.2,6.4c-0.1,0-0.1,0.1-0.1,0.2c0,0.1,0,0.2,0,0.3
		c1.5,0.5,3-0.6,4.9-0.2c-9,5.2-16.6,11.4-23.5,19.4c1.8-0.4,3-0.6,4.2-0.8c-7,5.1-13.2,10.6-15.6,19.6c1.2-0.2,1.8-0.8,2.5-1.2
		c2.1-1.3,4.2-2.6,6.3-3.9c0.4-0.2,0.8-0.2,1.1,0.2c0.3,0.4,0,0.7-0.3,1c-1,0.7-2,1.4-2.7,2.3c-1.8,2.3-3.8,4.6-5.6,6.9
		c-2.2,2.7-4.3,5.4-5.7,8.5c-3.5,7.4-9.1,12.4-16.6,15.5c-2.9,1.2-5.7,2.5-8.5,3.9c-1.8,1-3.6,2-5.2,3.3c-2.1,1.8-3.7,3.9-3.9,6.7
		c-0.4,4.7-0.5,9.4,0.7,14.1c4,14.6,11.5,27,22.3,37.5c3.5,3.5,7.2,6.8,11.5,9.4c4.6,2.8,9.6,4.4,15,4.2c7.3-0.3,14.5-1.5,21.4-3.9
		c15.9-5.5,27.8-16.1,36.9-30c0.5-0.7,0.8-1.6,1.1-2.4c1-2.9,0.2-5.6-2.3-7.5c-1.2-1-2.6-1.6-4.1-2c-3.8-1.1-7.7-2.1-11.5-3.2
		c-2-0.6-3.8,0.1-5.3,1.4c-0.7,0.6-1.3,1.4-2,2.1c-0.3,0.3-0.6,0.8-1.2,0.4c-0.2-0.5,0.1-0.8,0.3-1.1c0.8-1.3,1.6-2.6,2.5-3.8
		c0.8-1,0.9-1.8-0.3-2.5c-0.3-0.2-0.6-0.5-0.9-0.8c-4-4-3.8-10.1,0.5-13.8c1.3-1.1,2.7-1.9,4.2-2.8c0.4-0.3,1.1-0.3,1.1-1.1
		c-0.9-0.3-1.9-0.3-2.8-0.3c-3-0.2-6.1-0.4-9-1c-8.8-1.9-14.9-6.8-17.6-15.5c-1.9-6.1-1.2-12.1,2.1-17.6
		c5.7-9.7,14.2-15.1,25.4-16.4c9.1-1,18.2-1.4,27.3-1.5c8.6-0.1,17.3-0.1,25.8,1.5c7.2,1.4,13.8,4.1,19.2,9.2
		c5.9,5.7,9.3,12.5,8.9,20.9c-0.4,9.5-6.8,17.2-16.1,19.4c-3.6,0.9-7.3,0.8-11,0.7c-0.6,0-1.2-0.2-1.8,0.2c0.6,0.9,1.5,1.4,2.2,2
		c1.6,1.4,3.2,2.9,4.5,4.6c2.7,3.7,2.6,7-0.3,10.5c-0.7,0.9-1.5,1.6-2.3,2.4c-1.4,1.3-1.4,1.3-0.2,2.8c0.5,0.6,1,1.3,1.4,2
		c0.5,1,0.9,2,0.2,3.2c-0.7-0.4-0.9-1-1.1-1.6c-1.2-2.5-3.2-3.3-5.9-3c-4.3,0.5-8.5,1.7-12.5,3.3c-1.3,0.5-2.5,1.1-3.5,2
		c-1.9,1.6-2.5,3.7-1.6,6c0.3,0.8,0.7,1.6,1.2,2.4c11.2,17.3,26.4,28.8,46.6,33.6c6.5,1.5,12.9,1.9,19.5,0.2
		c4.7-1.2,8.8-3.7,12.7-6.5c15.3-10.9,24.5-26,29.1-44c0.9-3.5,0.6-7-0.5-10.4c-1.3-3.9-3.8-7-6.9-9.6c-3.2-2.6-6.7-4.7-10.2-6.7
		c-2.6-1.5-5.2-2.9-7.7-4.4c-3.5-2.2-6-5.2-7.5-9.1c-1.7-4.4-4.2-8.4-7.1-12.2c-2.1-2.7-4.4-5.3-6.8-7.8c-0.7-0.7-1.5-1.3-1.8-2.7
		c2.1,0.7,3.5,2.1,5,3.1c1.6,1,3.1,2.1,4.6,3.2c0.1-0.1,0.2-0.3,0.3-0.4c-5-7.2-11.7-12.3-19.5-16.2c5.2-1.5,9.9,0.7,14.6,2.1
		c-5.6-7.4-12.9-12.2-21.6-14.9c2.1-0.2,4,0.5,6.5-0.1c-2.1-1.4-3.9-2.4-5.6-3.6c-1.7-1.1-3.6-2-4.9-3.6c2.1-0.1,4.1,1,6.5,1.1
		c-4.5-4.4-9.7-6.6-15.3-8.1c0-0.2,0-0.3,0.1-0.5c1.6,0,3.1,0,4.7,0c0-0.2,0-0.3,0-0.5c-2.8-0.7-5.7-0.2-8.8-1c2-1,3.9-0.6,6.1-1
		c-1.5-0.9-2.9-1.1-4.2-1.2c-4.3-0.3-7.7,1.5-10.9,4.2c-0.7,0.6-1.2,1.3-2.4,1.8c0.8-2.9,2.3-4.9,4.2-6.6c1.9-1.8,4.2-2.8,6.6-3.8
		c-0.1-0.1-0.1-0.3-0.2-0.4c-1.6,0-3.2,0-5.1,0c1-1.4,2.5-1.3,3.7-2.2c-1.8-0.9-3.5-0.7-5.2-0.4c-1.8,0.3-3.2,1.5-5.2,1.7
		c0.9-2.2,2.3-3.7,4-5c1.7-1.3,3.8-1.8,5.7-3.2c-2.8-0.9-5.3-0.6-7.9-0.2c-0.9,0.1-1.7,0.3-2.6,0.4c-0.3,0.1-0.6-0.1-0.8-0.4
		c-0.3-0.5,0.1-0.7,0.4-1c0.8-0.6,1.9-0.9,2.3-1.9c-2-1.3-2.9-1.3-4,0.1c-3.3,4.3-6.6,8.7-7.9,14.1
		C310,415.9,309.8,417.2,308.7,418.3z M365.3,311.4c5.4-2.7,11.2-2.8,16.9-3.5c-7.5-0.8-14.8-0.8-22.3,2.2c0.6-1,1.2-1.2,1.7-1.4
		c1.2-0.5,2.5-1.1,3.8-1.6c4.9-1.7,10-2,15-2.8c-8.4-1.8-16.4-0.4-24.1,3c2.3-1.9,5-3,7.7-4.1c2.7-1,5.7-1.5,8.5-2.3
		c-2.6-0.5-5.1-0.4-7.7,0.1c-4.8,0.9-9.1,2.9-13.1,5.6c-1.3,0.9-2.6,1.4-4.2,1.3c-2.8-0.2-5.4,0.7-7.5,2.5c-1.8,1.4-3.1,3.3-4,5.3
		c-3.4,7.2-5.6,14.6-5.8,22.6c0,1.8,0,3.6,0,5.6c-0.6-0.6-0.5-1.4-1.3-1.8c0.1,1.3,0.2,2.5,0.3,3.9c-1-0.7-0.8-1.9-1.7-2.5
		c-1.3,5.3,5.9,18.6,11.9,21.8c-0.2-2.6-1.9-4.8-1.6-7.5c1.5,1,2.6,2.1,3.9,3.3c0.3,0.2,0.8,0.8,0.9,0.4c0.4-1.5,1.3,0.1,1.8-0.3
		c0.2-1.2-1.4-2.1-0.9-3.5c1.1,0.1,0.6,1.6,1.8,1.5c-0.1-1.6-1.5-2.9-1.6-4.8c1.1,0.9,1.4,2,2.4,2.7c0.1-0.9-0.4-1.4-0.6-2
		c-0.2-0.4-0.2-0.8,0.3-1c1.5-0.5,1.4-1.5,1-2.7c-0.1-0.3-0.4-0.8,0.2-1.2c1.1,1.3,1,3.3,2.5,4.8c-0.2-2.1-0.3-3.9-0.5-5.6
		c0-0.2,0.1-0.3,0.4-0.3c0.5,0.1,0.7,1,1.4,1c0.5-1-0.1-2.2,0.4-3.3c1.4,0.8,2,2.4,3.3,3.1c1.2-1,1.7-2.5,2.9-3.2
		c0.6,0.5,0.8,1.1,1.1,1.7c0.2,0.4,0.3,0.9,0.4,1.4c0.4,2-0.7,4.4-2.5,4.9c-1.6,0.4-2.5,1.4-3.3,2.6c-1.6,2.4-3,4.9-4.8,7.2
		c-2,2.7-3.3,5.6-3.9,8.9c-0.6,3.5-0.8,7.1,0.5,10.8c0.9-0.8,0.8-1.8,1-2.6c1.4-5.3,4.1-9.9,8.1-13.6c9.9-9.4,24.1-9.7,34.1-0.8
		c4,3.6,6.8,8.1,8.3,13.3c0.4,1.5,1.1,2.6,2.3,3.5c2.9,2.3,5.7,4.6,8.6,6.9c0.5,0.4,0.8,0.9,1.9,0.8c-0.7-1.3-1.4-2.4-2-3.6
		c-0.7-1.2-1.3-2.4-2.1-3.9c1.4,0.5,1.8,1.6,2.9,1.8c0.1-1.1-0.6-1.7-1-2.4c-0.4-0.8-1-1.5-1.4-2.2c-0.5-0.7-1-1.4-1.4-2.2
		c-0.3-0.7-1.4-1.2-0.8-2.2c0.7-1.1-1.3-0.9-0.9-1.8c0.7-0.3,1.3,0.6,2.1,0.2c-0.5-0.8-1.5-0.9-2.1-1.6c-0.1-0.1-0.1-0.3,0-0.4
		c0.6-0.3,1.2,0.6,1.9-0.1c-2.3-1.4-4.6-2.7-7.2-4.2c1.4-0.5,2.2,0.6,3.3,0.1c-2.7-1.9-5.7-3.2-8.2-5.4c3.9,0.5,7.6,2.1,11.4,2.8
		c0.1-1.7-0.8-2.1-1.8-2.5c-3.1-1.2-6.3-2.3-9.4-3.5c-0.6-0.2-1.5-0.4-1.7-0.8c-0.4-1.1-1.3-1-2.2-1.5c3.2,0,6.3,0,9.5,0
		c-7.6-2.2-15.2-3.5-23-1.1c0-0.9,1.2-0.8,1.1-1.8c-2.5,0.7-4.5,2.4-7.3,3c2.1-2.3,4.3-3.7,6.3-6c-2.1,0.4-3.6,1.6-5.8,1.9
		c1.1-1.8,2.2-3.2,3.4-4.5c3.6-3.8,8-6.3,12.8-8.2c0.9-0.4,2-0.5,2.9-1.5c-4.8,0.6-9,1.9-12.5,5c-3.1,2.8-6,5.7-9,8.7
		c-0.5,0.5-1,1.3-1.8,1.5c-0.2-0.4,0-0.8,0.2-1.1c0.7-1.6,1.3-3.2,0.6-5.1c-0.3-0.9,0.1-1.9,0.7-2.7c2.4-3.2,4.4-6.9,8.2-8.8
		c-0.1-0.7-1.2-0.3-1.1-1.1c1.5-1,3.3-1.3,4.9-2.6c-1.2-0.5-2.3,0.3-3.6-0.4c4.2-0.9,8-1.7,11.9-2.5c0-0.2,0-0.3,0-0.5
		c-2.2,0-4.3,0-6.5,0c2-1.2,4.3-0.6,6.7-1.8c-2.3-1.1-4.6-0.5-6.4-2c3.5-0.3,7.1-0.7,10.6-1c0-0.2,0-0.3,0-0.5c-2.8,0-5.6,0-8.4,0
		c0-0.2,0-0.4,0-0.7c1.4-0.2,2.7-0.4,4.1-0.6c1.4-0.2,2.9-0.1,4.2-1.1c-1.3-0.4-2.6-0.5-3.9-0.6c-1.4-0.1-2.7-0.1-4.1-0.2
		c-1.3-0.1-2.6,0.3-3.7-1c4.5,0,9.1,0,13.6,0c0-0.2,0-0.4,0.1-0.6c-3.5-0.4-7-0.7-10.6-1.1c0-0.2,0-0.4,0.1-0.6c3.8,0,7.6,0,11.3,0
		c-3.7-1.4-7.6-1.3-11.3-2.5c3.3,0,6.5,0,9.8,0c-4.1-1.5-8.3-2.1-12.6-2.7c-4.2-0.5-8.4,0.1-12.7,0.4c5.2-1.9,10.7-2.7,16-4.4
		c0-0.2-0.1-0.3-0.1-0.5C376.8,309.8,371.1,310.6,365.3,311.4z M256.5,385.9c0.9-3.1,1.7-6.2,2.1-9.3c0.1-1.3,0.1-2.6-0.3-3.8
		c-0.9-2.8-2.7-5.2-4.4-7.6c-1.6-2.2-3.5-4.1-5.2-6.2c-1-1.3-2.1-2.6-3.6-3.5c-2.4-1.5-3.1-3.7-2.7-6.7c0.8,1,1.6,1.7,2.7,1.2
		c1-0.5,0.5-2,1.5-2.6c0.9,1-0.1,2.3,0.7,3.4c1-0.6,0.7-2,1.7-2.5c0.7,1.6,1.4,3.2,2.1,4.8c1.4-0.8,1.1-2.7,2.7-3.5
		c-0.2,1.4-0.3,2.6-0.4,3.8c-0.1,0.7-0.3,1.5,0.8,1.7c0.9,0.2,1.7,0.5,2.2-0.6c0.3-0.6,0.5-1.5,1.4-1.7c0.1,0.2,0.2,0.4,0.2,0.5
		c-0.2,0.5-0.3,1.1-0.5,1.6c-1.1,2.9-1.6,2.5,1.6,4c1.2,0.6,2.5,1.8,3.8-0.2c0,2.7-1.1,4.9-0.7,7.3c1.1-0.4,1.3-1.3,1.7-1.9
		c3.5-6,6.2-12.3,7.9-19c1.7-6.6,2.7-13.3,1.8-20.2c-0.3-2.2-0.7-4.3-1.6-6.4c-0.5,0.5-0.1,1.1-0.6,1.4c-0.7-1.5-1.5-3.1-2.2-4.6
		c-0.6,0.3-0.4,1.1-0.6,1.1c-2.2-0.2-1,1.2-0.9,1.9c0.3,1.8,1,3.6,1.1,5.8c-1-1.4-1.3-2.8-1.8-4c-0.9-2.1-1.6-4.2-3.1-5.9
		c-2.3-2.5-4.2-5.2-6.3-7.9c-1-1.3-2.2-2.4-3.6-3.1c-0.7-0.3-1.4-0.8-2.1-0.5c-0.5,0.8,0.3,1.7-0.4,2.4c-0.8-0.3-0.7-1.4-1.5-1.6
		c-0.7,0.4-0.1,1.3-0.8,1.6c-0.7,0.4-1.1-1.8-1.8-0.3c-0.5,1.1-1.3,0.1-1.8,0.6c-0.5,0.6-0.3,1.5-1,2.1c-0.6-0.2-1-1.1-1.9-0.4
		c-0.7,0.6-1.2,1.6-2,1.6c-1,0-1.1-1.4-2-1.9c-0.1-0.1-0.2,0-0.4,0c0.1,0.9,0.1,1.8,0.2,2.8c-1.2-0.2-1.2-1.8-2.5-1.8
		c-0.4,1.1-0.2,2.3-0.9,3.2c-1-0.5-0.8-2-2.2-2.8c0,1.7,0,3.1,0,4.6c-0.9,0.1-1.2-0.7-1.7-0.7c-0.6,0-0.7,0.8-1.2,1.1
		c-0.4,0.3-0.8,0.5-1.3,0.6c-1.9,0.7-3,2-3.2,4.1c-0.1,0.8-0.2,1.6-0.9,2.1c-1.3,0.9-1.6,2.1-1.4,3.6c0,0.2,0,0.5-0.2,0.6
		c-0.7,0.1-0.8-1-1.7-0.7c-0.4,2.6,0.2,5.4-0.3,8.1c-0.9,0-1.4-1-2.4-0.5c1.4,2.3,2.8,4.6,4.1,6.8c1-0.3,0.3-1.1,1-1.5
		c2,3.7,4.8,7,7,10.5c1.1,1.8,2.1,3.6,2.6,5.6c0.2,0.8,0.6,1.6,0.3,2.5c-1-0.2-1.6-0.8-2.4-1.3c-4-2.6-8.1-5.2-12.1-7.8
		c-0.9-0.6-1.4-0.4-1.8,0.5c-0.4,0.8-0.2,1.1,0.5,1.5c1.4,0.7,3.1,1,4.1,2.5c-1.8-0.5-3.6-1-5.7-1.5c1,1.4,2.6,1.7,3.5,3.3
		c-3.8-0.2-7.4-1.1-11-0.6c4,1.1,8,2.1,12,3.2c0,0.2,0,0.4,0,0.5c-3.4,0.4-6.8,0.9-10.3,1.3c0.7,1,1.9,0.6,2.6,1.4
		c-1.3,0.8-2.8,0.8-3.9,1.6c0.1,0.8,1,0.7,1,1.5c-1.5,0.9-3.1,1.8-4.7,2.7c1.5,1.7,1.5,1.9-0.2,3.1c-0.5,0.3-0.9,0.6-1.4,0.9
		c-2.4,1.6-4.8,3.2-7.1,4.9c-0.9,0.6-1.8,1.2-2.2,2.6c2.7-0.4,4.8-2.3,7.6-2.5c-0.8,1.3-1.7,2-2.6,2.7c-1.5,1.3-3.2,2.5-4.7,3.8
		c-1.3,1.1-2.4,2.4-2.7,4.4c1.9-1.3,3.8-2.7,5.7-4c0.1,0.1,0.2,0.2,0.3,0.3c-1.3,2.3-2.5,4.6-3.9,7.1c1.1,0.2,1.5-0.4,1.9-0.8
		c1.3-1,2.4-2.1,3.8-2.9c2.2-1.3,3.6-3.1,4.4-5.4c1.1-2.9,2.6-5.5,4.4-7.9c7.6-10,21.4-13.2,32.3-7.5c7.8,4.1,12.3,10.7,14.4,19.1
		C255.5,383.3,255.6,384.6,256.5,385.9z M304.9,577.6c-0.8,1-0.8,2.2-1.9,3.2c-0.5-1.7,0.1-3.4-0.5-5.2c-1.4,1.8-1.5,3.9-3.1,5.5
		c-0.1-1.4-0.1-2.4-0.2-3.8c-2.6,2.2-2.8,5.1-3.8,7.8c-0.6-2.6-0.1-5.2-1.3-7.7c-0.6,2-1.1,4.1-1.7,6.1c-0.2,0-0.3-0.1-0.5-0.1
		c0-1.4,0-2.8,0-4.2c-0.8,0.2-0.8,1.1-1.7,1.3c-0.6-1.7-1.7-1.5-3-0.4c-0.1-1.8,0.3-3.3,0.4-4.9c-1.3,0.7-1.5,2.3-2.7,3
		c0-2.4,1.3-4.5,1.3-7c-0.4,0.5-0.6,0.7-0.8,1c-0.4,0.5-0.7,1.3-1.5,1.4c-1,0-2.1,0-3.1-0.1c-0.4,0-0.4-0.4-0.5-0.7
		c-0.1-0.4,0.2-1-0.5-1.4c-0.5,0.3-1,0.7-1.4,1.1c-1.4,1.2-1.4,1.2-3.3,0.4c-0.1-0.1-0.3-0.1-0.5-0.1c-1.4-0.2-2.8-0.5-4.3-0.7
		c-0.9-0.2-1.7,0.1-2.4,0.8c-1.1,1-2.3,2-3.4,3.1c-0.6,0.6-1.1,0.6-1.6,0c-0.2-0.3-0.4-0.7-1-0.5c-0.3,1.4-0.8,2.7-1.4,4
		c-0.8,1.8-1.4,3.6-0.5,5.5c0.3,0.6,0,0.9-0.5,1.1c-0.4,0.1-1,0.1-1.1,0.8c1.2,0.5,2.7-0.1,3.9,0.7c-0.7,1-2.1,1.1-2.6,2.1
		c0.8,0.4,1.8,0.1,2.4,0.8c-0.3,0.7-1.3,0.6-1.1,1.7c2.8-0.2,5.4-1.4,8.8-1.4c-2.7,1.8-5.4,2.7-7.8,4.6c3.7,0.5,6.1-1.7,9.2-3.2
		c-0.5,1.2-0.8,2-1.1,2.8c-0.3,0.7-0.5,1.4-0.2,2.1c0.3,0.7,0.7,0.9,1.2,0.2c0.2-0.2,0.3-0.6,0.7-0.3c0.7,0.9,0.3,2.2,1.1,3.2
		c0.5,0,0.6-0.8,1.3-0.6c0.2,0.8,0.4,1.6,0.6,2.9c1-1.7,1.8-3.1,2.6-4.4c0.9,0.2,0.3,1.1,1,1.3c0.8-0.6,1-1.7,2.1-2.2
		c-0.5,3-2.4,5.9,0.3,8.6c1.1-0.6,0.9-2.1,1.8-2.7c0.7,0.3-0.1,1.2,0.6,1.3c1.6-1.2,2.4-3.3,4.4-4.4c-0.6,2.6-0.5,2.5-0.1,3.1
		c1.5,1.7,2.5-0.3,3.7-0.6c0.4,1.1,0,2.2,0.4,3.2c1.2,0.1,1.9-1.1,3-1.1c0.8,0.8,0.7,2,1.6,2.7c0.2-0.1,0.5-0.2,0.6-0.3
		c2.2-2.3,5.1-2,7.8-2.4c0.2,0,0.6,0,0.7,0.1c0.8,1.5,1.9,0.8,2.8,0.2c0.3,1.1-0.2,2,0.3,3.2c1.3-1.5,1.5-3.5,2.9-5
		c0.6,1.5,0.1,2.9,0.8,4.2c3-1.4,2.5-4.4,3.1-6.9c1.2,1.2,1.3,2.8,2.3,3.9c1-1.1,0.9-2.8,2-3.8c0.5,1.1,0.2,2.3,1.1,3.3
		c1.2-2.4,1-5.2,2.2-7.5c1,0.5,0.9,1.8,2,2.2c0.2-0.3,0.4-0.5,0.6-0.7c1.5-2.2,1.5-2.2,3.8-1.5c0.2-0.7-0.5-1.3-0.3-2
		c0.6-0.6,1.4,0.4,2.1-0.2c-0.4-1-1.3-1.8-1.9-2.7c-0.6-0.9-1.8-1.5-1.6-3.2c1,0.7,1.8,1.4,2.7,1.9c1.1,0.7,2.1,1.4,3.5,1.6
		c0.5,0.1,1.2,0.2,1.3-0.3c0.2-1.4,1.5-1.3,2.3-1.7c3-1.2,5.9-2.5,8.4-4.6c1.5-1.3,2.7-2.9,3-5c-0.7,0-0.7,0.7-1.1,0.8
		c-0.7-0.3-0.4-1.3-1-1.7c-0.3,0.6-0.4,1.4-1.1,0.4c-0.2-0.4-0.2-0.9-0.9-0.9c-0.3,0.6,0.1,1.4-0.5,1.9c-0.9-0.6-1-1.7-1.9-2.2
		c-0.8,0.5,0.2,1.5-0.7,2.1c-0.6-0.9-1.1-1.8-1.6-2.6c-0.7,0.2-0.1,1-0.9,1.2c-0.9-1.4-1.9-2.9-2.9-4.3c-0.6,0.2-0.4,1-1.1,1
		c-1-0.9-1.4-2.5-2.6-3.2c-0.6,0.5-0.1,1.3-0.7,1.8c-1-1.1-1.9-2.2-2.8-3.3c-0.5,1.1,0.4,1.8,0.1,2.7c-1.4-0.7-1.9-2.5-3.5-3.1
		c-0.7,1.2,0.7,2.2,0.1,3.4c-0.9-0.6-1.1-1.5-1.7-2.3c-0.3-0.4-0.4-1.2-1.2-0.9c-0.7,0.3-0.4,0.9-0.4,1.5c0,0.4,0.2,0.8-0.2,1.1
		c-0.6,0.3-1.2-0.4-1.9,0.1c-0.1,0.7,0.6,1.5,0.2,2.2c-0.5,0.4-1.1-0.8-1.6,0.1c-0.4,0.8,0,2.7-1.9,1.5c-0.1,0.3-0.3,0.5-0.4,0.8
		c-0.3,0.5-0.1,1.2-0.6,1.6c-0.8-0.4-0.7-1.5-1.7-1.8c-0.1,1.1-0.1,2.2-0.2,3.3c-1.1-0.9-0.5-2.5-1.5-3.3c-0.8,0.6-0.4,1.6-0.9,2.2
		c-0.9-0.5-0.6-1.8-1.5-2.3c-0.5,0.2-0.7,0.7-1,1.1c-0.3,0.4-0.5,1-1.1,1.2c-0.7-0.1-0.6-1-1.1-1.1c-0.7-0.2-0.7,1-1.5,0.9
		C305.1,578.8,305.5,578.1,304.9,577.6z M245.7,411.2c-8.7,3.6-17.4,4.1-26.2,0.7c-9.1-3.5-14.1-10.6-17.1-19.8
		c-3.8,4.1-6.5,8.3-7.7,13.4c0.8,0.3,1.2-0.6,1.8-0.1c-0.3,1.4-1.5,2.3-1.7,4.1c2.2-0.8,3.8-2.3,5.8-3c-0.8,1.4-1.7,2.7-2.8,3.8
		c-1.3,1.4-1.9,2.9-1.8,4.8c0.1,2-0.1,4-1.2,5.8c-0.3,0.5-0.4,1,0.2,1.6c1.5-1.1,2.3-2.9,4.1-4.3c0.1,1.7,0.1,3,0.2,4.2
		c0.9,0.4,1.2-0.9,2-0.5c0,1.5-1,2.9-0.8,4.4c0.7,0.3,1.1-0.2,1.6-0.4c0.5-0.2,0.9-0.6,1.5-0.6c0.6,0.3-0.1,1.4,0.6,1.3
		c1.2-0.1,1,0.3,0.6,1c-0.1,0.3-0.5,0.6-0.2,1.1c0.4,0.2,0.7-0.1,1.1-0.3c2.3-0.8,3.1-0.5,4.2,1.7c0.2,0.4,0.3,0.7,0.5,1.1
		c0.3,0.8,1,1,1.8,0.8c0.9-0.1,1.6-0.7,2.2-1.4c0.6-0.7,1-1.6,1.8-2.1c0.3,1.1-1,1.9-0.5,3.1c0.6-0.8,1.1-1.4,1.5-2.1
		c0.5-0.7,1-1.1,1.8-0.5c1.3,1,1.9,0.2,2.6-0.8c2.6-3.6,5.9-5.8,10.3-6.8C237.9,420.2,242.2,416.2,245.7,411.2z M131.4,362.9
		c-0.8,1.6-1.8,2.4-2.7,3.3c-4.6,4.7-8.9,9.6-13,14.8c-3.1,3.9-4.4,8.2-4.4,13.1c0,3.3,0.5,6.5,0.8,9.8c1.3,12.6-2.2,23.5-11.4,32.5
		c-0.3,0.3-0.6,0.8-1.4,0.8c0.6-1.2,1.1-2.2,1.6-3.2c1.7-3.2,3.3-6.4,4.8-9.7c2.2-4.9,3.1-10.1,3-15.4c0-0.8,0.2-1.6-0.5-2.3
		c-0.5,0.4-0.5,1-0.6,1.5c-4.3,15.1-12.1,28.1-22.9,39.4c-1.6,1.7-3.3,3.3-4.9,4.9c-0.3,0.3-0.7,0.5-0.2,1c0.3,0.3,0.6,0.1,0.9-0.1
		c1.6-1.1,3.4-2.2,4.9-3.4c5.6-4.4,11.1-8.9,16.7-13.3c6.8-5.3,11-12.1,13.1-20.4c1.1-4.2,1.3-8.5,1.9-12.8
		c1.6-11.9,6.2-22.4,14.8-31c1.7-1.7,3.1-3.7,4.4-5.7c0.2-0.3,0.8-0.7,0.2-1.3c-7.3,6.3-14.2,12.8-19.1,21.2c0.3-2.1,1-3.9,2-5.6
		c3.6-6.7,8.6-12.3,14-17.5c4.4-4.3,8.6-8.8,12.9-13.2c0.4-0.4,1.1-0.8,0.7-1.4c-0.4-0.7-1.1-0.3-1.7-0.1c-1.2,0.4-2.4,0.9-3.5,1.6
		c-1.4,0.9-2.8,1.9-4.1,2.9c-2.8,2.2-5.8,4-9.1,5.3c-4.2,1.7-8.4,3.5-12.6,5.2c-0.4,0.2-1.1,0.2-1,1.2
		C120.3,364.4,125.6,363.7,131.4,362.9z M454.9,350.2c0,1.9,0.8,3.2,1.7,4.5c3.3,4.5,7.2,8.4,11,12.3c3.1,3.2,6.3,6.4,8.9,10
		c2.3,3.1,4,6.5,4.4,10.5c-3.9-8-10.4-13.8-16.8-19.9c0.1,2.6,0.2,2.9,2,4.6c6.9,6.5,11.3,14.4,13.7,23.5c1.3,4.8,1.7,9.8,2.3,14.7
		c1.3,9.1,4.7,17.2,11.4,23.8c2.5,2.5,5.1,4.9,7.9,7c5.1,3.9,10.2,7.7,15.4,11.5c0.4,0.3,0.8,0.5,1.2,0.7c0.4,0.2,0.8,0.2,1.1-0.2
		c0.2-0.3,0-0.6-0.2-0.9c-0.4-0.4-0.8-0.8-1.2-1.2c-3.4-3.3-6.8-6.7-10.4-10c-3.1-2.8-5.3-6.1-7-9.9c-3.2-7.3-6.8-14.5-9.3-22.1
		c-0.1-0.4-0.1-1.2-1.1-1.2c-0.4,10.9,3.8,20.3,9.2,29.5c-0.8-0.5-1.4-1-2-1.6c-9.1-9.6-12.2-21.1-10.5-34c0.5-3.6,0.6-7.2,0.1-10.8
		c-0.7-4.8-2.7-9-5.9-12.6c-4.2-4.7-8.7-9.2-13.3-13.5c-0.6-0.6-1.5-0.9-1.4-2.4c5.4,0.9,10.8,1.8,16.1,2.7c0.1-0.2,0.1-0.4,0.2-0.6
		C472.8,360.6,463.5,356,454.9,350.2z M397.5,392.4c-1,2.9-2,5.4-3.3,7.8c-5.7,10.4-16.3,15.7-28.1,14c-2.7-0.4-5.3-1.1-8-1.5
		c0.1,0.4,0,0.6,0.1,0.8c2.6,4.6,6.2,7.9,11.3,9.4c4.3,1.3,8.7,1.2,13.1,0.7c0.3,0,0.7,0,0.8-0.4c0.1-0.9,0.5-1.1,1.2-0.5
		c1,0.9,1.9-0.2,2.9,0c0.9,0.2,0.5-0.7,0.6-1.2c0.1-0.4,0.5-0.3,0.8-0.2c0.6,0.2,1,0.8,1.7,0.7c0.8-0.5-0.1-1.2,0.2-1.6
		c0.7-0.6,1.3,0.6,1.8-0.1c0.1-0.7-0.7-1.3-0.3-2.2c1.7-0.3,3.4,0.4,5.1,0c0.4-0.5-0.2-1.2,0.3-1.6c2.8,0.4,2.8,0.4,3.4-1.2
		c1.5,0.4,2.1,2.3,4.4,2.5c-2.1-3.5-4.1-6.6-6-9.7c0.1-0.1,0.2-0.2,0.3-0.3c1.7,0.8,3.4,1.6,5.1,2.5c0.8-2-0.1-3.4-1.1-4.8
		c-0.9-1.4-2.1-2.7-1.4-4.6c0.1-0.4-0.1-1-0.2-1.4C401.1,396.9,399.7,394.6,397.5,392.4z M286.8,456.7c-0.7,0-1.1-0.3-1.4-0.6
		c-1.3-0.8-2.5-1.4-3.8,0.1c-0.4,0.5-1,0.3-1.6,0.2c-5.9-1.1-11.1,0.4-15.7,4c-2.6,2-4.3,4.7-5,7.9c-0.3,1.2-0.1,2.3,0.5,3.4
		c1.6,2.7,3.2,3.4,6.4,2.7c5.4-1.2,10.5-3.3,15.8-4.9c2-0.6,3.8-1.8,5.1-3.5c0.6-0.8,1.3-1.1,2.2-1.3c2.4-0.5,2.4-0.5,2.3-2.9
		c0-0.3,0-0.6,0.4-1c1.2,0.4,2.5,0.7,3.8,1.1c1.2,0.4,2.4,0.8,3.7,1.1c1.2,0.3,2.4,1.1,4.3,0.6c-5.5-4.7-11.4-7.3-17.9-9.1
		C285.7,455.7,286.7,455.8,286.8,456.7z M82.1,470.7c-1.3-0.3-2.4,0.1-3.3,0.5c-6.2,3.1-12.5,6.1-18.4,9.8c-7.3,4.6-11,11.3-11,20
		c0,2.2,0.1,4.3-0.2,6.5c-0.8,6.7-3.3,12.6-7,18.1c-0.5,0.7-1.1,1.3-1.3,2.3c1.2-0.1,1.7-1.4,3.4-1.1c-1.4,1.5-2.8,2.4-4,3.4
		c-1.3,1.1-2.6,2.1-3.9,3.1c2.1-0.1,3.9-1,5.5-2.2c4.5-3.2,7.4-7.7,9-12.9c1.2-3.8,1.7-7.6,2-11.5c0.7-9.5,5.1-16.5,13.7-20.7
		c8.9-4.4,17-10.1,25.4-15.4c1-0.6,1.7-1.5,2.3-2.4c0.2-0.4,0.6-0.8,0.1-1.2c-0.4-0.3-0.7,0-1.1,0.2c-2.2,1.4-4.3,2.8-6.5,4.1
		c-3.8,2.4-7.6,4.7-11.8,6.3c-1,0.4-2.1,1-3.7,0.9C75,475.8,78.8,473.5,82.1,470.7z M489.4,476.2c-0.4-1.2-0.8-2.4-1.3-3.6
		c-1-2.5-1.9-5.1-2.5-7.7c-1.3-5.5-3.3-10.7-5.6-15.8c-3.6-7.6-8.1-14.7-13.3-21.3c-4.4-5.5-7.3-11.8-8.8-18.7c-0.6-3-1.1-6-1.8-8.9
		c-0.2-0.8,0.1-2.1-1-2.1c-0.8,0-1,1.3-1.2,2.1c0,0.1,0,0.2,0,0.2c-0.4,3.1-1,6.2-1.3,9.3c-0.7,7,1.1,13.4,5.7,18.7
		c6.7,7.8,12.7,16,17.9,24.9c0.3,0.5,0.4,1.2,1.8,1.3c-3.6-6.8-7.3-13.2-10.8-19.8c0.6-0.1,0.8,0,0.9,0.2
		c4.1,6.4,8.4,12.6,11.3,19.7c2,5.1,4,10.1,6.1,15.1C486.4,472.2,487.6,474.3,489.4,476.2z M110,475c0.8-0.6,1-1.4,1.4-2
		c2.1-3.6,3.4-7.6,4.7-11.5c2.7-8.1,6.5-15.6,11.6-22.5c0.4-0.6,0.8-1.3,1.6-1.6c-0.6,1.4-1.3,2.7-2,4c-0.7,1.3-1.4,2.5-2,3.8
		c-0.7,1.3-1.5,2.7-2.1,4c-0.6,1.3-1.8,2.4-1.6,4c1,0,1.1-0.8,1.4-1.3c5.8-8.2,11.2-16.6,17.5-24.3c2.9-3.6,4.6-7.8,5-12.5
		c0.4-5.5-0.8-10.8-2.5-16c-0.1-0.4-0.4-0.7-0.9-0.7c-0.9,1.5-0.8,3.2-1,4.8c-1.5,9.6-4.6,18.4-10.9,26c-3.8,4.6-6.7,9.7-9.3,15
		c-4.7,9.6-7.8,19.8-10.9,29.9C109.9,474.3,110,474.6,110,475z M78.8,493.9c-4.1,7.6-2.6,14.7,0.1,21.9c0.7-0.3,0.5-0.7,0.5-1.1
		c-0.1-1.8-0.4-3.5-0.4-5.3c-0.2-9.3,3.3-16.8,11-22.2c1.3-0.9,2.7-1.7,4.1-2.6c8.2-4.9,13.4-12,15.3-21.4
		c1.8-9.1,5.6-17.3,10.8-24.9c2.6-3.8,5.7-7.3,8.6-10.9c0.4-0.5,0.9-1,1.2-1.9c-0.4,0.2-0.5,0.3-0.6,0.4c-1,1-2.1,2-3.1,3
		c-6.6,6.7-12.3,14.1-16.4,22.6c-0.8,1.8-1.3,3.6-1.1,5.6c0.4,4.2-0.9,7.9-4,10.8c-2.8,2.7-5.6,5.2-8.6,7.7
		c-5.3,4.5-11,8.5-16.4,12.9c-2.2,1.8-4.2,3.7-5.5,6.2c-0.8,1.5-1.6,2.9-1.6,4.9c1.3-0.9,2-2.1,2.9-3.1
		C76.4,495.8,76.9,494.4,78.8,493.9z M556.4,527c0.2-0.8-0.3-1.2-0.6-1.7c-1.2-2.2-2.3-4.4-3.3-6.7c-1.4-3.3-2.3-6.8-2.7-10.4
		c0-0.5-0.3-1.5,0.1-1.6c1.8-0.5,0.7-1.7,0.8-2.6c0.1-0.9-0.1-1.9-0.1-2.9c-0.4-8.1-3.9-14.7-10.8-19c-6.5-4-13.6-7.1-20.7-10
		c-0.4-0.1-0.9-0.6-1.3,0.3c1.3,0.9,2.6,1.8,3.8,2.7c1.4,1,2.8,1.9,4.1,2.9c1.2,0.9,2.7,1.5,3.7,3c-1,0.2-1.6-0.3-2.2-0.6
		c-5.7-2.6-10.9-6-16.3-9.1c-0.7-0.4-1.4-0.8-2.1-1.2c-0.6-0.4-1.5-0.8-2-0.2c-0.6,0.8,0.2,1.5,0.8,2c1.1,1.1,2.3,1.9,3.7,2.7
		c7.1,3.9,14.1,7.8,21.2,11.7c1.9,1,3.7,2.1,5.4,3.5c3.7,2.9,6.4,6.5,7.7,11c0.9,3.1,1.6,6.2,1.7,9.4c0.2,6.2,3,11.2,7,15.6
		C555,526.3,555.5,526.9,556.4,527z M465.5,421.9c-0.1,0.2-0.3,0.3-0.4,0.5c2.6,3.1,5.2,6.2,7.8,9.3c7.9,9.4,13.8,19.7,16.4,31.8
		c1.9,9.1,7,16.2,15.1,21c1.2,0.7,2.4,1.5,3.6,2.3c9.9,6.6,13.6,15.9,11.8,27.5c-0.2,1.2-0.4,2.5-0.5,3.7c1.3-1.5,1.9-3.3,2.5-5.1
		c0.6-1.8,1-3.7,1.1-5.6c0.2-1.9,0-3.8-0.2-5.7c-0.2-1.8-1.1-3.5-1.1-5.4c1.2-0.1,2,1.1,3.3,0.6c-0.7-1.9-1.7-3.4-3.2-4.7
		c-3.2-2.9-6.5-5.7-9.7-8.6c-5.5-4.9-11.4-9.3-17-14.1c-3.2-2.7-4.9-6.2-5.2-10.4c-0.1-1.4-0.2-2.9-0.3-4.3c-0.2-1.5-0.6-3-1.4-4.3
		c-4.8-7.4-9.8-14.8-15.4-21.7C470.5,426.3,468,424.1,465.5,421.9z M457.4,365.9c2.2,5,4.9,9.6,7,14.6c-2-1-2.6-3.3-4.6-4.4
		c-0.4,1,0.2,1.7,0.6,2.4c1.3,2.8,2.7,5.6,4,8.5c0.2,0.4,0.9,1.1,0.1,1.4c-0.7,0.3-0.9-0.5-1.1-0.9c-0.7-1-1.3-2-2-3
		c-0.2,0.6-0.2,0.9-0.1,1.3c1.4,4.8,2.8,9.7,4.3,14.5c2,6.3,4.7,12.4,8.3,18c0.2,0.3,0.4,0.7,0.7,1c0.2,0.3,0.4,0.7,1.1,0.9
		c-3.2-8.1-5-16.3-5.2-24.8c1.1,0,0.7,1.5,1.7,1.4C472.4,389,463.8,370.8,457.4,365.9z M139.6,367.9c-0.1-0.1-0.2-0.1-0.3-0.2
		c-0.1,0.1-0.3,0.2-0.4,0.3c-6.1,8-10.4,16.8-12.5,26.7c-0.2,1.1-0.4,2.3-0.1,3.5c0.7-0.3,0.5-1.3,1.4-1.2
		c-0.4,9.5-2.1,18.7-6.4,27.6c1.2-0.5,1.5-1.3,1.9-1.9c3.3-4.8,5.6-10,7.4-15.5c2.7-7.8,4.5-15.8,7-23.6c0-0.1-0.1-0.2-0.2-0.4
		c-1.5,1.8-2.5,4-4.3,5.5c1.2-4.1,3.3-7.8,4.6-11.9c-1.5,0.9-2.1,2.6-3.8,3.3C135.7,376,137.6,371.9,139.6,367.9z M391,385
		c-1.1,0.3-1.3,1-1.8,1.6c-1.7,2.2-3.5,4.2-5.6,5.9c-5.4,4.5-11.5,5.7-18.2,3.5c-1.1-0.4-2.2-0.6-3.4-0.3c-1.5,0.3-1.5,0.2-1.3,1.7
		c0.3,2.2,1.5,3.9,3.2,5.1c1.3,1,2.8,1.6,4.4,1.9c6.4,1.3,11.8-0.7,16.7-4.6C389.8,396.1,391.4,391,391,385z M246.8,389
		c-3.8,3.5-7.7,6.5-12.9,7.4c-5.2,0.9-9.8-0.8-14.6-3.3c0.6,1.6,2.3,1.7,2.7,3c-1.6,0.2-2.9-1.1-4.5-0.8c2.7,6.5,9.4,11.3,18.1,8.5
		C242.4,401.8,247.9,394.6,246.8,389z M249.9,259.6c4,0.9,7.9,1.6,11.8,2.7c14.5,3.9,25.8,12,32.3,25.9c0.1,0.3,0.2,0.6,0.7,0.6
		c0.4-0.1,0.3-0.5,0.3-0.8c0-1,0-2.1-0.1-3.1c-1.1-7-4.3-13-9.4-17.9c-1.8-1.7-3.9-3.1-6.2-4c-0.5-0.2-1.1-0.5-1.7-0.3
		c0.4,0.8,1.1,1.1,1.6,1.6c0.5,0.5,1.2,0.8,1.5,1.8C270.8,261.6,260.8,258.7,249.9,259.6z M119.6,348.2c7.6,0,15.1-0.3,22.1-3.9
		c0.2,1.3-0.9,1.8-0.9,3.1c9.1-3.8,18.3-6.8,27.1-10.9c0.7-0.3,1.4-0.8,2.1-1.2c0.4-0.3,0.9-0.6,0.9-1.3c-0.5,0.1-0.8,0.1-1.1,0.2
		c-6.7,1.5-13.3,3.4-20.1,4.4c-1.6,0.2-3.1,0.5-4.7,1c-8,2.6-15.9,5.2-23.9,7.8C120.5,347.3,119.9,347.3,119.6,348.2z M326.5,296.7
		c0.7-0.1,1.1-0.7,1.5-1.1c12.3-10.7,26.6-15,42.8-13.7c0.5,0,1,0.1,1.4,0.1c0.4,0,0.9,0.3,1.2-0.4c-11.6-3.4-22.8-0.6-34.1,1.8
		c1.2-1.4,2.7-2.5,4.3-3.4c1.7-1,3.3-1.9,5-2.7c1.5-0.8,3.1-1.4,4.7-2.1C341.8,275.3,327.5,286.9,326.5,296.7z M428.5,334.1
		c0.9,1.2,1.7,1.6,2.4,2c2.3,1.4,4.6,2.5,7.1,3.5c6.2,2.6,12.7,4.4,18.8,7.1c0.1,0,0.3-0.1,0.4-0.1c0.1-1.2-1.6-1.8-1.1-3.3
		c6.3,4,13.1,4.7,20.2,4.1c-1.3-1-2.8-1.3-4.3-1.8c-9.1-3-18.2-6-27.6-7.7C439.2,336.9,433.9,336.3,428.5,334.1z M348.6,267
		c-14.8-0.6-32.5,16-33.1,24.9c0.7-0.4,1.2-1.1,1.7-1.6c2.7-2.8,5.4-5.7,8-8.6c5.5-6.1,12.2-10.4,19.9-13.2
		C346.3,268.1,347.4,267.9,348.6,267z M429.2,415.3c-4,7.9-0.3,34.5,5.4,40.3c0.2-0.5-0.1-0.9-0.2-1.4c-0.8-3.7-1.7-7.5-2.2-11.3
		c-0.8-6.8-0.8-13.7-1.9-20.5C430,420.1,430.1,417.7,429.2,415.3z M361.6,383.7c2.9,0.2,5.5-2.1,5.6-5c0.2-2.8-2-5.2-4.9-5.4
		c-3-0.2-5.5,1.9-5.7,4.8C356.4,381,358.6,383.5,361.6,383.7z M222.2,378.3c0-2.9-2.3-5.1-5.2-5.1c-2.9,0-5.3,2.3-5.3,5.1
		c0,3,2.3,5.3,5.4,5.3C220.1,383.7,222.2,381.5,222.2,378.3z M167.3,417.5c-0.6,1.2-0.7,2.1-0.8,3c-0.4,5-0.7,10-1.1,15
		c-0.5,6.4-1.2,12.7-3,18.9c-0.1,0.4-0.4,0.9,0,1.6C169.1,443.8,169.8,431,167.3,417.5z M166.7,374.7c-1.2,0.4-1.6,1.2-2.1,1.8
		c-2.2,2.9-3.8,6.1-4.8,9.6c-1.3,4.6-1.7,9.2-0.6,13.9c0.1,0.4,0.1,1,0.9,0.9C160.5,391.8,163.2,383.3,166.7,374.7z M488.2,546.8
		c1.4,4.4,2.7,8.7,2,13.4c-0.8,4.8-3.7,8.2-7.7,11.6c7.1-1.7,14.2-8.3,14.7-13.7c-0.8,1.1-1.5,1.9-2.2,2.8c-1.1,1.4-2.2,2.8-3.2,4.2
		c-0.3,0.3-0.6,0.6-1,0.3c-0.3-0.2-0.3-0.5-0.3-0.9c0.2-1.1,0.5-2.2,0.6-3.3C491.8,556.1,491,551.2,488.2,546.8z M322.9,289.6
		c7.3-7.8,15.6-14.1,25.5-18.4C337.3,273.7,328.5,279.5,322.9,289.6z M432.5,376.8c1.5,4.1,3,8.2,4,12.5c1,4.3,1.3,8.6,1.6,13.4
		C441.8,396.6,438.4,382.2,432.5,376.8z M522.1,469.1c4,0.8,7.6,1.6,11.3,2.2c2.8,0.5,5.6,0.5,8.3-0.3c0.5-0.1,1.2-0.2,0.8-1.2
		c-5.1-0.7-10.3-1.5-15.5-2.2C525.4,467.5,523.8,467.7,522.1,469.1z M102.8,559.9c2.5,6,6.9,9.8,13.2,12c-0.5-1.1-1.4-1.5-2-2
		c-3.5-3-5.4-6.9-5.5-11.5c-0.1-2.7,0.5-5.4,1.2-8c0.2-0.8,0.7-1.5,0.4-2.7c-1.6,2.9-2.3,5.7-2.5,8.7c-0.2,2.9,0.6,5.8,1.4,8.7
		C105.6,564.5,104.6,561.8,102.8,559.9z"/>
	<path d="M258.8,273.7c-0.5,0-1.1,0.1-1.7,0.1C257.7,273.3,258.2,273.5,258.8,273.7C258.8,273.7,258.8,273.7,258.8,273.7z"/>
</g>
<g>
	<path d="M108.3,578.1c-1.3,1.3-2.6,2.4-3.8,3.6c-1.3,1.2-2.8,2.1-4.6,2.5c-0.6,0.1-0.9,0.4-1,1.1c-0.1,1.4,0,2.8,0.2,4.2
		c0.1,1.5-0.3,1.9-1.8,1.4c-4.9-1.6-8.5-4.6-11.1-9c-0.7-1.2-1.5-2.4-2.4-3.5c-1.5-1.9-2.6-3.9-3.3-6.2c-0.1-0.4-0.2-0.7-0.7-0.7
		c-4.2-0.2-7.1-2.5-9.3-5.7c-2.7-4.1-4.4-8.6-5.3-13.4c-1.7-8.6-1.2-17,2.4-25.1c3.1-7.2,8.7-12,15.6-15.4
		c7.6-3.8,15.7-4.2,24.1-3.1c6.6,0.9,13.1,1.7,19.8,1.8c6.4,0,12.8,0.2,19.2,1c9.5,1.1,16.8,5.8,22.2,13.6c2,2.9,4.8,4.9,7.3,7.2
		c2.7,2.4,5.8,4.5,8.3,7.2c3.2,3.5,4.4,7.7,4.1,12.3c-0.1,2.4-0.6,4.6-1.3,6.9c-0.8,2.8-2.4,5-4.6,6.8c-0.6,0.5-1,1.1-1.3,1.8
		c-2.6,5.7-6.9,8.8-13.3,8.7c-0.5,0-0.9,0.2-1.3,0.5c-2.5,2-5.1,3.8-8.1,5c-0.6,0.2-1.1,0.7-1.6,1.1c-2.3,1.7-4.8,2.9-7.6,3.1
		c-2.5,0.2-3.8-0.8-4.1-3.3c-0.1-0.9-0.2-1.7-0.2-2.6c0-0.9,0-1.7,0-2.7c-0.5,0.2-0.5,0.6-0.7,1c-2,4-4.7,7.4-8.4,9.9
		c-0.5,0.3-0.8,0.8-1.1,1.3c-2.1,3.1-4.3,6.2-7.6,8.3c-3.7,2.4-6.8,1.8-9-2.1c-1.3-2.3-2.1-4.7-3.1-7.1c-0.2-0.4-0.3-0.8-0.6-1.1
		c-2.5-2.4-4.3-5.4-5.4-8.6C108.5,578.4,108.5,578.3,108.3,578.1z M139.8,537.3c1.8,1.4,3.1,2.9,4.1,4.9c4.3,9.4,4.8,19.3,2.4,29.2
		c-0.6,2.7,0.1,4.7,1.6,6.6c1.2,1.6,2.9,2.1,4.9,1.9c1.2-0.2,2.4-0.6,3.5-1.2c2.3-1.2,4.3-2.8,6.1-4.6c7.2-6.9,10.7-15.3,9.9-25.2
		c-0.7-8.6-4-16.5-9.4-23.3c-3.7-4.7-8.4-7.9-14.3-9.2c-3.6-0.8-7.2-1.2-10.9-1.5c-9.1-0.6-18.1-1.4-27-3.8c-2-0.5-3.9-1.1-6-1
		c-6.8,0.3-13.2,1.9-18.9,5.7c-5.7,3.9-10.5,8.6-12.8,15.3c-2.9,8.4-3.7,17-2.1,25.7c0.6,3.2,1.1,6.4,2.6,9.3
		c1.2,2.4,3.1,3.9,5.6,4.7c0.7,0.2,1.1,0.2,0.8-0.7c-0.5-1.7-0.6-3.5-0.7-5.2c-0.4-9.8,2.9-18.5,8.2-26.5c0.2-0.3,0.5-0.6,0.8-1
		c0,0.3,0,0.4,0,0.5c-2.9,5.8-4.3,12-4.8,18.4c-0.5,5.7-0.1,11.3,2.3,16.5c1.9,4.2,4.4,7.8,9.3,8.8c2.5,0.5,5.1,0.8,7.5-0.3
		c1.8-0.8,3.5-1.9,5.1-3.1c0.5-0.4,0.7-0.7,0.5-1.4c-0.5-1.5-0.7-3.1-0.9-4.7c-0.3-3.6,0.1-7.2,0.5-10.7c0.7-5.9,2.2-11.5,5.5-16.5
		c0.2-0.4,0.5-0.8,0.8-1.1c-0.7,2-1.5,3.8-2,5.8c-1.6,6.3-1.7,12.8-1,19.2c0.5,4.9,2.1,9.5,5.3,13.4c4.1,4.9,9.3,5.8,14.9,2.7
		c5.5-3.1,8.3-8.3,10.5-13.8c2.4-6,2.8-12.3,2.6-18.7C144,546.9,143.4,541.6,139.8,537.3z M172.7,532.2c5.6,11.2,7,22.5,1.6,34.3
		c1.9-0.9,3.3-2,4.8-3.2c2.1-1.7,3.5-3.8,4-6.5c0.4-2.1,0.8-4.1,1-6.2c0.4-3.7-0.6-6.8-3-9.6C178.5,537.9,175.5,535.2,172.7,532.2z
		 M117.3,589.9c1,1.9,2,3.7,3.3,5.3c1.2,1.3,1.8,1.5,3.4,0.8c2.7-1.2,4.7-3.2,6.7-5.3C126.1,592.2,121.7,592.1,117.3,589.9z
		 M97.6,589.3c-0.2-1.4-0.1-2.8,0.3-4.1c0.1-0.4,0.1-0.7-0.4-0.7c-3.1,0.2-6.1-0.3-9.2-2C90.9,585.7,94,587.7,97.6,589.3z
		 M168,575.2c4.5-0.9,7.9-3.5,10.6-7.1c-2.3,1-4.6,2.1-7,2.9c-0.1,0-0.2,0.2-0.3,0.2C170.3,572.6,169.1,573.9,168,575.2z
		 M152.9,582.8c-3.3-0.1-5.7-1.5-7.3-4.5c0.2,1.6,0.3,3.2,0.8,4.7c0.2,0.7,0.7,1,1.4,1C149.6,584.1,151.3,583.6,152.9,582.8z"/>
</g>
<g>
	<path d="M492.5,578.8c-1.2,3.3-2.9,6.2-5.4,8.6c-0.3,0.3-0.5,0.7-0.6,1.1c-1,2.4-1.8,4.9-3.1,7.1c-2.2,3.9-5.3,4.6-9,2.1
		c-3.3-2.1-5.5-5.2-7.6-8.3c-0.3-0.5-0.6-0.9-1.1-1.3c-3.7-2.5-6.4-5.9-8.4-9.9c-0.2-0.3-0.2-0.7-0.7-1c0,0.9,0,1.8,0,2.7
		c0,0.9-0.1,1.8-0.2,2.6c-0.3,2.5-1.6,3.5-4.1,3.3c-2.9-0.3-5.4-1.5-7.6-3.1c-0.5-0.4-1-0.8-1.6-1.1c-3-1.3-5.6-3.1-8.1-5
		c-0.4-0.3-0.8-0.5-1.3-0.5c-6.4,0.1-10.7-3-13.3-8.7c-0.3-0.7-0.7-1.3-1.3-1.8c-2.2-1.8-3.8-4-4.6-6.8c-0.7-2.3-1.2-4.6-1.3-6.9
		c-0.2-4.7,0.9-8.8,4.1-12.3c2.5-2.7,5.5-4.8,8.3-7.2c2.6-2.3,5.3-4.3,7.3-7.2c5.4-7.8,12.7-12.5,22.2-13.6c6.4-0.7,12.8-0.9,19.2-1
		c6.6-0.1,13.2-0.9,19.8-1.8c8.3-1.1,16.4-0.7,24.1,3.1c6.9,3.4,12.4,8.3,15.6,15.4c3.5,8.1,4.1,16.5,2.4,25.1
		c-0.9,4.8-2.6,9.3-5.3,13.4c-2.2,3.3-5.1,5.6-9.3,5.7c-0.6,0-0.6,0.4-0.7,0.7c-0.8,2.2-1.9,4.3-3.3,6.2c-0.9,1.1-1.7,2.3-2.4,3.5
		c-2.6,4.4-6.2,7.4-11.1,9c-1.5,0.5-2,0.2-1.8-1.4c0.1-1.4,0.3-2.8,0.2-4.2c-0.1-0.7-0.3-1-1-1.1c-1.8-0.4-3.3-1.2-4.6-2.5
		c-1.2-1.2-2.5-2.3-3.8-3.6C492.7,578.5,492.6,578.6,492.5,578.8z M456.9,552.4c-0.2,6.4,0.2,12.8,2.6,18.7
		c2.2,5.5,5,10.7,10.5,13.8c5.5,3.2,10.8,2.2,14.9-2.7c3.2-3.9,4.8-8.4,5.3-13.4c0.7-6.5,0.6-12.9-1-19.2c-0.5-2-1.3-3.8-2-5.8
		c0.3,0.4,0.6,0.7,0.8,1.1c3.2,5,4.8,10.7,5.5,16.5c0.4,3.6,0.9,7.1,0.5,10.7c-0.1,1.6-0.4,3.2-0.9,4.7c-0.2,0.6-0.1,1,0.5,1.4
		c1.6,1.2,3.3,2.3,5.1,3.1c2.4,1.1,5,0.8,7.5,0.3c4.9-1,7.5-4.6,9.3-8.8c2.3-5.3,2.8-10.9,2.3-16.5c-0.6-6.4-1.9-12.6-4.8-18.4
		c0-0.1,0-0.2,0-0.5c0.3,0.4,0.6,0.7,0.8,1c5.3,8.1,8.6,16.7,8.2,26.5c-0.1,1.8-0.2,3.5-0.7,5.2c-0.3,0.9,0.1,0.9,0.8,0.7
		c2.5-0.8,4.4-2.3,5.6-4.7c1.5-2.9,2.1-6.1,2.6-9.3c1.6-8.8,0.8-17.3-2.1-25.7c-2.3-6.7-7.1-11.5-12.8-15.3
		c-5.7-3.8-12.1-5.4-18.9-5.7c-2.1-0.1-4,0.5-6,1c-8.8,2.3-17.9,3.1-27,3.8c-3.7,0.3-7.3,0.7-10.9,1.5c-5.9,1.3-10.6,4.6-14.3,9.2
		c-5.4,6.8-8.7,14.7-9.4,23.3c-0.8,9.8,2.7,18.3,9.9,25.2c1.8,1.8,3.8,3.4,6.1,4.6c1.1,0.6,2.2,1.1,3.5,1.2c2,0.3,3.7-0.3,4.9-1.9
		c1.5-1.9,2.2-3.9,1.6-6.6c-2.4-10-1.9-19.8,2.4-29.2c0.9-2,2.2-3.5,4.1-4.9C457.7,541.8,457.1,547.1,456.9,552.4z M420.1,541.2
		c-2.4,2.8-3.4,6-3,9.6c0.2,2.1,0.6,4.2,1,6.2c0.5,2.7,2,4.8,4,6.5c1.4,1.2,2.9,2.2,4.8,3.2c-5.5-11.8-4.1-23.2,1.6-34.3
		C425.6,535.4,422.7,538.2,420.1,541.2z M470.4,590.8c2,2.1,4,4.1,6.7,5.3c1.6,0.7,2.2,0.5,3.4-0.8c1.4-1.6,2.4-3.4,3.3-5.3
		C479.4,592.3,475,592.4,470.4,590.8z M512.9,582.8c-3.1,1.7-6.1,2.2-9.2,2c-0.6,0-0.5,0.3-0.4,0.7c0.4,1.3,0.4,2.7,0.3,4.1
		C507.1,587.9,510.2,586,512.9,582.8z M429.8,571.5c-0.1-0.1-0.2-0.2-0.3-0.2c-2.4-0.9-4.7-1.9-7-2.9c2.7,3.6,6.1,6.2,10.6,7.1
		C432,574.1,430.8,572.9,429.8,571.5z M453.3,584.3c0.7,0,1.2-0.4,1.4-1c0.5-1.5,0.6-3.1,0.8-4.7c-1.6,3-4,4.4-7.3,4.5
		C449.9,583.8,451.5,584.3,453.3,584.3z"/>
</g>
</svg>
