<?xml version="1.0" encoding="utf-8"?>
<!-- Generator: Adobe Illustrator 24.2.3, SVG Export Plug-In . SVG Version: 6.00 Build 0)  -->
<svg version="1.1" id="Layer_1" xmlns="http://www.w3.org/2000/svg" xmlns:xlink="http://www.w3.org/1999/xlink" x="0px" y="0px"
	 viewBox="0 0 595.3 841.9" style="enable-background:new 0 0 595.3 841.9; fill: #215342;" xml:space="preserve"
	 height="350" width="500" transform="translate(-120, -65)">
<g>
	<path d="M390.2,447.8c-0.4-0.7-0.8-1.4-1.6-3.1c-1.2,5.2,0.5,9.4,0.4,14.3c-1-2.7-1.8-4.7-2.7-7c-3.1,3.2-2.3,7.3-3.6,10.9
		c0.1-2.1-0.8-2.6-2.1-1.2c-0.6,0.7-0.2,2.3-1.4,3.2c-0.3-0.7-0.5-1.2-0.9-2.1c-10.5,22.6-24.3,42.7-38.5,62.6
		c-7.6,10.8-15.8,21.4-19,34.7c-0.5,2.3-1.2,4.5-1.5,6.8c-1,6.1-5.2,9.7-9.9,13c-1.3,0.9-2.2,2.4-4.1,4.4c0.1-1.8,0.2-2.4,0.2-3.6
		c-4,3.7-8.4,5.9-13.7,6.6c1-0.6,2.1-1.3,3.1-1.9c-6.3,0.4-12.2,1-17.5-1.2c-10.7-4.4-20.9-9.9-30.2-16.8c-2.3-1.7-3.6-4.6-4.1-7.4
		c-2.9-17.3-11.5-31.9-20.4-46.6c-13.6-22.7-22.9-47.3-30.2-72.7c-1.7-5.8-1.1-8.9,0.5-10.5c5.4,14.7,12.9,29.1,19.7,43.7
		c6.5,13.8,20,18.6,33.8,22c12.8,3.2,25,2.3,36.1-5.7c3.4-2.4,2.8-9.5-0.9-11.2c-1.3-0.6-2.5-1.3-3.8-1.7
		c-17.2-5.1-27.2-17.8-34.9-32.8c-10.6-20.7,2.8-44,26.1-45.7c13.1-0.9,25.9,1.1,38.5,3.5c17.8,3.5,30.4,22.4,26.5,38.8
		c-1.5,6.5-4.6,12.2-11.8,14.2c-1,0.3-1.4,0.9-1.5,1.8c-0.7,8-5.9,12.6-12.4,16.2c-4.7,2.6-9.6,4.5-14.8,5.8c-3.9,1-5.4,2.6-6,6.9
		c-0.7,5.2,1.1,7.3,5.7,8.3c13.9,3.1,27.8,5,41.7-0.3c6.3-2.4,11.8-5.9,15.9-11.3c2.2-2.9,6.3-4.1,7.2-8.2c-0.2,0.8-0.3,1.6-0.5,2.5
		c0.2,0.1,0.3,0.1,0.5,0.2c0.8-1.9,1.6-3.7,2.7-6.1c0.1,1.4,0.2,2.3,0.3,3.1c3.1-7.7,2.5-15.7,1.9-23.6c-0.1-1.2-0.5-2.5-1.1-5.1
		c1.3,2.5,1.9,3.8,2.8,5.5c0.7-2.9,0.2-5.3-0.2-7.7c-0.3-2.1-1.9-3.7-1.4-6.3c0.4-2.2-2.5-2.4-4.3-2.6c-1.5-0.2-3.1,0-4.7-0.4
		c0.8,0,1.7,0.1,2.5,0c2.1-0.2,5.1,1.1,6.1-1.4c0.8-2-1.4-4-2.5-5.9c-1.7-2.9-3.3-5.8-4.4-9.1c1.1,1.4,2.2,2.9,3.3,4.3
		c-0.6-3.9-2.4-7.2-4.5-10.5c-2.6-4.1-5.4-8.2-8.1-12.2c-0.9-1.3-0.6-2.2,0-3.6c0.9-1.9-0.1-3.9-0.4-5.9
		c-1.6-9.8-6.1-18.2-11.6-26.1c2,0.5,3.4,2.6,5.9,4.3c-2.5-5.7-5.3-10.3-9.8-13.4c-3.5-2.4-4.5-8.1-9.9-7.7c0.6-2.3,1.2-4.6,1.9-7.1
		c-0.6-0.1-1.4-0.4-2.5-0.7c1.5-1.3,2.8-2.4,4.7-4c-1.9,0.3-2.9,0.5-4.5,0.7c0.8-1,1.3-1.7,2.1-2.7c-1.2,0.1-2,0.2-2.8,0.3
		c0.1-0.3,0.1-0.6,0.2-0.7c5.1-2.1,4-6.6,3.8-10.5c-0.3-5.4,0.7-10.5,2.2-15.7c0.7-2.5,1.5-5,1.5-7.8c-0.7,1.9-1.4,3.9-2.7,7.2
		c-0.4-6.6,2-11,3.2-15.7c1.8-6.8,5.3-11.9,12.4-16.1c2.2-1.3,2.2-1.3,2.9,1.6c2.9-4,7-7,6.7-12.7c-1.3-1.4-3.6,0.1-5.3-1.3
		c1.7-1,3.4-1.9,5-2.8c4.7,0.1,8.2-2.6,12.2-4.9c-1.4-0.8-2.4,0.7-3.4-0.4c0.7-0.9,1.3-1.7,2.5-3.2c-5.1,2.2-7,6.9-11.3,8.5
		c-1.5-0.4-2.9-1.4-4.9-0.8c1.2-1.9,2.1-3.4,3.2-5.1c-4.3-4.4-8.4,1.4-13.6,0.4c4.8-2.6,8.4-4.8,13.7-4.7c5.1,0,11,2,16.5-2.7
		c-2.7,0.1-4.6,0.2-7.1,0.4c2-2,1.7-5,6.6-5c-10.3-2.3-16.1,4.7-23.9,5.8c0.3-0.5,0.6-0.9,1-1.5c-1.3,0.4-2.3,0.7-4,1.3
		c2.5-3.3,4.6-5.8,7.8-7.5c2.6-1.4,3.4,1.7,5.6,0.9c4.1-1.6,8.7-1.7,11.9-5.1c-2.7,0.2-4.4-3-7.6-2.7c1-0.3,2-0.6,3-1
		c-4.7,0.1-8-5-13.2-2.9c-2.8,1.1-0.4-3.7-3.6-3.4c3.6-2.5,7.4-2.2,10.9-3.4c-3.1,0-6.3,0-9.7,0c0.6-0.5,1.2-0.9,2-1.5
		c-1.7,0.1-3,0.3-4.3,0.4c0-0.2-0.1-0.4-0.1-0.6c2-0.5,4-1,5.8-1.4c-4.6-1.4-9.3-3.7-14.6-3.9c-5.4-0.2-10.8-0.3-16.2,0.3
		c-5.5,0.6-10.9,1.4-16.3,2.2c3.5-3.8,23-6.5,34.5-4.9c12,1.6,23.2,5.5,34.4,10.2c5.9-16.7,20.4-20.7,35.1-24.6
		c10.5-2.8,20.9-1.8,31.5-0.2c8.8,1.4,17.7,2.1,26.6,2c4.7,0,9.4,0.5,14,2.2c-4.9,0-9.9,0-14.8,0c-0.1,0.3-0.1,0.7-0.2,1
		c12.3,4.2,24.6,8.4,37.4,12.8c-3.1,0.6-5.7,1.2-9,1.9c3.3,1.3,5.9,2.4,8.2,3.3c-0.1,3.7,3.5,3.2,4.7,5.2c-2.1,0.1-4.1-1.7-6.8-0.8
		c7.7,6.4,17.7,9.1,24.5,17.4c-6.6-3.7-12.1-8.5-20.1-9.6c2.9,5.3,7,8.4,11,11.9c16.2,14,36.7,22,52.4,36.7
		c6.3,5.9,11.4,12.5,14.1,20.9c1.2,3.5,3.1,6.7,5.8,9.9c-7.3,4.4-15,5.7-23.9,4.6c3,2.5,5.5,4.5,8.1,6.6c-7.1-6.2-15.9-2.5-23.6-4.3
		c-6.6-1.5-13-3.7-19.4-6.4c4.6,3.4,9.1,6.8,14.8,11c-6-1.5-10.4-3.5-15.2-5c2.7,2.1,5.5,4.2,8.2,6.3c-0.1,0.1-0.1,0.2-0.2,0.4
		c-3.2-1.4-6.3-2.9-10.6-4.9c3.7,4.9,6.6,8.9,9.5,12.8c-7.3-7.7-14.3-15.6-24.7-20.8c3.8,8.2,9.4,14.4,15,21.5
		c-9.9-3.8-17.2-10.1-25.7-16c1,9.5,6.1,15.6,13,21.3c-4.3,0.5-7.3-1.7-11-2.7c0.3,1.3,0.6,2.4,1,4.1c-3.4-3.9-6.8-6.6-11.8-8.9
		c4.6,6.2,10.8,9.3,14.9,14.8c-7.8-3.9-15.5-7.8-23.3-11.7c5.4,6.3,11.2,12.3,15.1,21.2c-3.4-3.7-6-6.5-8.6-9.3
		c-0.2,0.2-0.4,0.3-0.7,0.5c1.3,1.6,2.6,3.2,3.8,4.8c-0.1,0.2-0.2,0.3-0.3,0.5c-1.6-1.1-3.2-2.3-5.3-3.9
		c3.8,15.9,17.5,19.4,29.4,25.8c-11.5-0.7-21.2-5.7-31.1-9.8c2,2.4,5,3.7,6.9,6.6c-4.5,0.5-7-3.2-10.8-4.2c0.1,0.6,0.1,1.1,0.2,1.7
		c-0.6-0.3-1.2-0.7-3.1-1.7c7.2,11.1,13,21.5,21.7,30.4c-2.8,0.3-4.4-1.4-6-2.7c-1.7-1.3-3.3-2.9-5.5-4.7c0.6,2.9,1.1,5.3,1.6,7.6
		c-3.7-8-10.2-11.2-18.6-11.6c-5-0.3-9.4-2.6-15.2-5.6c5,6.7,11.1,8,18,9.3c-4,1.9-7.4,1.9-10.7,2.2c-1.1,0.1-2.5,0.1-1.9,1.6
		c1.6,4-1.6,9,2.7,12.5c0.6,0.4,0.6,1.7-0.4,1.8c-7.3,0.4-0.7,3.1-0.8,4.7c-0.7,1-2.6-0.1-2.9,1.4c-0.4,1.9,1.9,2,2.6,3.3
		c-0.9-0.1-1.8-0.2-3.8-0.3c4.5,2.7,8.6,2.7,12.5,3.8c-4.8,0-9.5,0-16,0c8.1,12.1,5.6,25.1,5.5,38c-0.2,30.8,0.6,61.7,1,92.5
		c0,3.9-0.1,7.9-0.2,11.8c0,1,0.2,1.7,0.9,2.3c9.2,8.6,9.7,19.2,7,30.6c-2.3,9.5-6.1,18.1-13.5,24.7c-0.2,0.2-0.5,0.5-0.7,0.7
		c-6.2,7.1-7.8,7-14.1-0.5c-5,12.4-13.3,21.3-25.8,26.8c1.9-12.3,4.4-24,9.4-34c0,1.8,0,4.6,0,7.3l0.1-0.1
		c-1.3,7.5-5.3,14.2-6.3,21.8c10.5-3.5,21.3-20.8,23.3-37.3c1.8-6.3,3.6-12.5,5.4-18.8c0.4-0.5,0.9-1.1,1.9-2.4
		c-1.8,11.3-2.9,21.9-5.5,32.1c-1.3,5.3,2.2,5.4,4.6,7.7c-0.6-7.3,1-13.8,2.7-20.4c0.8,5.5,1.4,11.1,0.3,16.6
		c1.9-4,0.2-8.7,2.6-12.9c1.1,4.2-0.9,7.9-1,11.9c16.3-11.9,22.4-38,6.2-54.5c-1.3-1.3-2-2.7-2.5-4.6c-2.9-12.5-10.9-19.1-23.6-19.7
		c-0.8,0-1.1-0.5-1.5-0.9c-4.6-5.3-10.8-7.3-17.4-8.3c-6.1-0.9-11.3,1.4-15.6,5.6c-1.6,1.6-3.3,2.2-5.4,1.8
		c-6.9-1.5-12.4,1.5-17.5,5.7c-3.8,3.2-6.8,7-9.4,11.2c-5.4,8.4-9.9,17.3-14.4,26.2c-5.5,10.8-3.2,21.5-0.1,32.2
		c0.4,1.5,0.7,1.5,3,3.1c1.9-5.6,4.6-10.7,8-15.5c-1.7,4.8-3.3,9.5-5,14.3c3.4-5.7,4.4-12.4,8.9-18.8c-0.5,6.7-3.1,11.7-3.9,17.2
		c3.1-5.3,3.9-11.6,8.1-18c-0.6,7.8-3.4,13.7-5.1,20.3c1.4-0.7,2.4-1.2,3.3-1.7c0.1,0.1,0.1,0.2,0.2,0.3c-1.8,1.3-3.4,2.8-5.3,3.9
		c-6.8,4.1-12.4,2-15.1-5.5c-0.1-0.4-0.2-0.8-0.4-1.2c-1.3-2.7,0.2-7-2.5-8.4c-2.3-1.2-5.8,0-8.8-0.1c-7.1-0.1-14.3,0.3-21.4-0.5
		c-8.7-1-17.1,3.6-25.1,2c-14.5-2.9-29-1-43.4-2.8c-1.9-0.2-2.3,0.4-2.5,2.2c-0.4,3.2-1,6.5-1.9,9.7c-1.7,6.3-6.1,8.4-12.2,6.2
		c-5-1.8-8.3-5.2-10.1-10.4c-0.6,6.8-2.3,13.2-5.1,19.1c-2.9,6.1-6.1,12.2-12.8,15.3c-2.8,1.3-4.9,1-6.7-2
		c-7.6-12.5-6.2-25.6-3.3-40.5c2.4,12.1-2.1,23.2,3.4,34.7c0.7-5.8-1.2-10.5,0.8-15.8c2.4,3.9,1.9,7.7,2.7,11.2
		c0.3-5.4,0.5-10.8,0.8-17.3c2.4,7.9,4.3,14.8,4,23.5c-0.9-2.2-1.3-3.2-2-4.8c0.2,3.3,0.4,5.8,0.6,8.4c2.4-0.1,3.6-1.5,4.7-3.1
		c11.3-16.6,13.8-34.1,4.9-52.5c-3.2-6.5-5.6-13.1-3.2-20.5c1.1,0.2,1.1,1.2,1.3,1.9c4.3,12.6,8.5,25.3,10,38.7
		c0.4,3.9,2.5,6.5,6.6,9.2c-2.5-5.8-3.1-10.9-4-17.4c3.4,7,2.9,13.9,7,19.1c-1.3-5.2-2.5-10.4-3.8-15.6c0.2-0.1,0.5-0.2,0.7-0.3
		c2,5.4,4.1,10.7,6.1,16.1c0.3-0.1,0.5-0.2,0.8-0.2c-1.2-4.6-2.5-9.3-3.7-13.9c0.2-0.1,0.4-0.1,0.7-0.2c1.6,4,3.1,8,4.7,12
		c0.4,0.9,0.4,2.4,1.7,2.4c1.5-0.1,2.3-1.5,2.7-2.8c2.7-9.6,4.4-19.4,1.1-29.1c-4.2-12.6-9.9-24.7-18.2-35.2
		c-4.9-6.2-11.1-9.9-19.4-8.3c-1.4,0.3-1.6-0.7-2.2-1.3c-11-11.8-21.4-12.2-33.3-1c-0.8,0.8-1.4,1.2-2.7,0.8
		c-10-3-18.7,0.2-22.5,9.9c-3.5,8.9-8.3,16.5-14.6,23.5c-4.7,5.2-5.6,11.8-3.8,18.6c2.3,8.9,6.2,17.2,12.6,24
		c2.5,2.6,3.6,5.9,5.8,8.7c-3.5-6.4-4.3-13.2-3.6-20.9c2.5,3.2,1.8,6.8,3.8,10.7c-0.6-5.1-0.9-9.2,0.1-13.3c1.6,7,3.3,13.9,3.6,21.2
		c1.4-0.7,3.2-1.6,4.9-2.5c-2.5,0.3-2.8-1.3-3.2-3.2c-1.8-7.8-3.5-15.5-3.8-23.5c0-1.1-0.1-2.1,0.9-3.4c1.9,6.4,2.3,12.7,3.4,18.8
		c0.3-10.1-2.8-20-1.9-31c3,8.7,4.9,16.9,4.7,25.5c-0.2,16.7,7.9,29,21,39.3c-0.7-11.8-4-22.7-3-34.1c2.9,13.1,3.2,26.6,6.6,40.1
		c-11.5-6.5-19.7-15-23.6-27.6c-2.1,2.3-4.1,4.2-6.8,4.9c-3,0.9-5.4,1-6.6-2.9c-0.5-1.6-2.5-2.8-3.7-4.3
		c-8.7-9.6-14.2-20.5-12.9-33.7c0.7-7.1,4.1-13.4,8.8-18.8c1.9-2.1,2.7-4.2,2.7-7.1c0.1-30.5,0.4-61,0.5-91.6
		c0.1-11.5,0-22.9,0-35.2c-5.5,2.2-10.1,4.2-15.4,0.8c2.8-0.5,5.1-0.6,7.2-1.3c1.5-0.4,3-1.2,4.1-2.3c1.7-1.5,4.1-3.6,3.2-5.7
		c-0.8-1.7-3.8-0.8-5.9-0.7c-3.6,0.2-7.2,0.1-11.4,0.1c8.1-6.4,18.3-9.9,19.7-22.2c-5.5,3.8-9.9,9.9-17.7,7.1
		c2.3-5.9,7.8-9.9,9.8-16.1c0.5-1.5,1.3-2.9,1.9-4.4c0.3-0.8,0.8-2,0.4-2.6c-0.6-1-2-0.8-2.9-0.4c-1.5,0.7-2.5,0.3-3-1.1
		c-0.7-1.8,1.2-1.5,1.9-2.1c1-0.7,2.1-1.3,2.9-2.3c-9.9,1.3-16.9,7.7-25.3,14.8c5.9-11.2,15.2-15.9,24.6-20.6
		c-9.4,1.7-19.9-0.7-27.9,9.1c1.4-4.3,3.8-6.2,6.6-9c-6.6,2.1-11.5,5-17.6,8.9c5.5-6.3,11.3-9.9,17.3-13.4
		c-5.3,0.7-10.5,2.2-16.6,1.1c18.8-4.5,35.8-10.3,44.2-28.8c-10,14.1-24.2,22-40.7,26.5c6.1-3.4,12.6-5.9,18.2-10.2
		c5.5-4.3,8.3-11,13.2-16c-3.8,2.9-7.7,5.9-12.6,9.6c3.1-5.1,6.5-8,10.7-11.1c-7.8,1.8-14.8,3.3-21.8,4.9c8.7-5,18.3-8.4,27.6-14.6
		c-5.3-0.9-9.4,0.5-14.2,0.5c5.3-3.7,9.5-7.5,12.8-12.6c-9.7,4.6-17.5,13.1-28.7,15.4c5.9,0,11.8,0,17.6,0c0.1,0.3,0.1,0.6,0.2,0.9
		c-9.2,4.6-18.5,9.1-28.4,14c6.3-7.1,13.9-10.4,22-13.4c-14.2,1.8-27.1-0.1-37.2-11.3c6.4,4.1,13.4,6.5,21.1,6.4
		c7.8-0.1,14.2-3.6,20.5-8.6c-18,2.5-20.4,2.5-25.4,0.2c5.4-1.1,10.9-0.4,16.7-2.7c-14-3.3-25.2-9.6-33.2-22.7
		c14.9,7.2,27,3.5,39.5-5.5c-8.5-2.2-13.3,2.6-18.9,6.3c1.2-4.7,5.3-6.5,8.4-9.8c-5.4,0.7-9.1,3.6-13.3,5.8c0.2-2.5,2.6-3.3,4-6.3
		c-7.6,4.4-16.2,1.4-22.8,7.4c-4.2,3.8-10.1,4.8-15.9,4.8c-5.8,0-11.6,0-17.2,0c4.1-1.2,8.5-2.4,13-3.7c0-0.2-0.1-0.4-0.1-0.6
		c-5.5,1.2-11.1,2.5-17.3,3.8c9.5-17.6,14.8-36.2,25.7-53c-4.3,1.1-6.6,3.8-9.7,6c0.7-2.9,2.8-4.4,4.4-6.5c-1.6-0.6-2.1,1.3-3.9,1.5
		c3.8-5.4,7.4-10.5,12.6-14.9c-3.1-0.3-4.6,1.8-7,2.4c-0.1-3.3,2.5-4.4,4.1-6.3c-16.5,0.4-34,15-32.4,28c-1.9-5.6,0-13.6,4.6-20.1
		c4-5.6,9.5-9.3,15.4-12.6c9.7-5.2,19.8-9.2,30.5-11.8c5.2-1.2,9.3-3.7,9.9-9.6c0.2-1.7,1.7-1.7,2.8-2.1
		c12.9-5.1,25.9-10.2,38.8-15.2c1.2-0.5,2.5-1,4.8-2c-13.2-1.5-25.2-3-33.1-14.4c8.4,4.8,17.2,4.9,27.8,4.7
		c-7.7-4.2-15-6.5-19.7-13.6c7.2,4.1,14,7.5,21.2,9.8c7,2.2,14.2,3.7,21.6,3.5c7.5-0.2,14.5,1.1,21.5,3.7c10.3,3.9,20.7,7.5,31,11.4
		c2.9,1.1,4.6,3.6,5.8,6.8c-3.4-1.5-6.9-3-10.3-4.5c-0.1,0.2-0.3,0.5-0.4,0.7c7.9,5.1,15.8,10.1,23.6,15.1
		c1.9-5.5-0.6-12.4-7.7-20.4c3.5,0.5,6,2.2,7.6,4.9c1.5,2.5,2.7,5.3,4,7.9c1.4,2.7,2.9,5.4,4.4,8c1.5-0.1,0.8-1.5,1.4-2
		c4,10.4,4,10.4,15.1,8c17.7-3.7,35.2-3,52.4,3.3c1,0.4,2.3,0.7,2.1,2c-1,5.5,0.1,11.2-0.6,17.7c-1.1-4.2-2-7.4-2.8-10.6
		c-0.3,3.5,1.1,6.9-0.1,10.3c-2.1,5.6-1.4,11.5-2.4,17.1c-0.9,5.2,2.1,9.6,1.2,15c-2-3.9-3.9-7.5-5.7-11.1c-0.2,0.1-0.3,0.1-0.5,0.2
		c1.6,7.9,3.1,15.7,5,25.1c-2.5-3.3-4.2-5.5-5.5-7.3c-0.1,11.8,0,23.9,0.8,36.1c-1.7-4.3-3.4-8.6-5-12.9c0.6,7.8,6.2,15.3,0.6,23.6
		c-0.6-2.9-1.1-5.6-1.6-8.3c-1.1,11.5-1.5,23-14.9,27.8c0,0,0.1-0.1,0.1-0.1c-0.8-0.1-1.7-0.2-2.9-0.4c10.3-5.9,17.8-19.7,14-25
		c-0.4,0.7-0.7,1.5-1.7,3.4c0-3.5,0-5.7,0-7.6c-2.5,4.8-5.1,9.7-8.1,15.3c-0.1-1.7-0.1-2.3-0.2-3.1c-0.9,1.1-1.9,2.7-2.2,2.6
		c-4.2-1.7-3.7,2.3-4.9,4c-1.5,2.3-2.5,4.9-3.7,7.4c-0.1,0.2-0.4,0.3-0.9,0.7c0.1-1,0.1-1.6,0.2-2.7c-2.7,2-3.2-0.8-4.6-1.9
		c-2,1.8-2.2,3.7-1.2,6c1,2.4,0.4,3.9-2.6,4.3c-3.2,0.4-6.4,1.6-9.6,2.4c-12.1,2.8-23.8,4-31.5-8.9c-0.4-0.7-1.2-1.9-2.3-1.1
		c-0.8,0.6-0.9,1.5-0.8,2.8c0.3,3.1,3.3,3.4,4.8,5.2c3.4,4.3,8,7.2,13.8,7.4c5.6,0.2,11-0.9,16.1-3.1c3.1-1.3,4.1-0.1,3.7,2.9
		c-0.1,1-0.4,1.9,0.7,2.5c1.2,0.7,2.2,0.1,3.2-0.7c1.7-1.2,2.7-3.4,5.1-3.5c0.4-0.2,0.9-0.3,1.3-0.5c2.6-0.4,5.2-0.8,8.6-1.4
		c-3.8,1.7-6.9,3-11.4,5c2.8-0.2,4-0.2,6-0.4c-5.1,6.2-9.7,11.8-14.3,17.4c-0.3-0.3-0.6-0.7-0.9-1c-4.8,3.8-10,7.3-13.8,13.6
		c2-1.2,3.1-1.9,4.3-2.6c-2.8,2.6-2,7.3-5.8,9.6c-3.7,2.2-7.2,3.3-11.3,1.7c0.8-1.3,3.4-1,3.6-3.7c-13.9,1.4-26.5,5.2-35.6,16.8
		c1.6-0.9,3.2-1.8,4.8-2.6c-6.5,5.7-12.1,12-15.1,21.5c1.2-1.5,1.7-2.1,2.9-3.4c-5.7,17.5-13.9,34-6.2,53.7
		c-0.9-12.1,1.2-22.4,3.5-32.7c0.2-0.6,0.4-1.3,0.7-1.9c0.7-1.2,1.4-2.3,2.9-4.8c-2,19.2,0.7,35.9,12.9,50.8
		c-0.5-1.9-0.8-3.2-1.3-5.2c7.1,9.8,12.2,19.6,15.8,30.3c0.8-3.4-0.8-6.4-1.6-9.5c-0.8-3.3-1.8-6.5-2.3-10
		c2.2,5.2,4.3,10.4,6.5,15.6c0.2-0.1,0.5-0.1,0.7-0.2c-0.3-2-0.6-3.9-1-5.9c0.2-0.1,0.4-0.2,0.6-0.3c3.3,6.2,6.7,12.3,10.1,18.6
		c1-1.5-0.2-2.7,0.2-4.6c3.9,6.2,5.4,12.7,7.8,20.2c0-4.3,0-7.2,0-10.5c1.6,0.6,1.5,1.9,2,2.9c6.2,13.1,10.8,26.9,15.9,40.5
		c2.1,5.6,4.5,11.4,8.8,15.3c3.4,3.1,5.3,7.2,8.3,10.3c1.4-0.1-0.1-1.2,0.7-1.4c2.3,1.4,4.5,3.6,7,4.2c7.5,1.8,13.9,7.1,22.1,6.8
		c3.6-0.1,7.2-0.6,10-2.6c3.5-2.4,8.1-3,10.8-8.1c0,1.9,0,2.5,0,3.9c1.9-2.4,3.3-4.2,5-6.3c0.3,1.1,0.5,1.9,0.9,3.5
		c1.9-3,3.4-5.5,5.5-9c-0.3,2-0.5,2.9-0.8,4.5c3.6-4,5.1-8.1,6.6-12.2c2.7-7.2,3.3-14.9,5-22.3c2.7-12.3,8.9-21.6,21.5-26.9
		c-5.7,5.9-10.4,11.8-10.7,19.8c4.3-11.8,15.3-19.1,20.6-30.4c-2.8,7.9-4.6,15.9-3.7,24.3c0.9-7.2,2.6-14.2,5.7-20.7
		c2.5-5.2,5.3-10.4,8.5-16.6c-2,12.6-4.7,24-1.5,35.6c-0.3-7.4,0.3-14.7,2.7-23c-0.2,2.9-0.3,4.6-0.4,6.2c1.7-4.3,1.9-8.9,3.7-13.1
		c4.2-9.7,7.7-19.7,10.7-29.9C389.7,468.4,391.8,458.3,390.2,447.8c2.5,8.6,2.6,17.6,2.6,26.9c5.8-12.3,3.6-24-0.8-36.6
		C391.3,441.9,389.5,444.6,390.2,447.8z M72.4,234.7L72.4,234.7c6.2-7.3,15.2-11.5,21.4-18.8c-6.1,3-11.5,7.1-16.7,11.5
		c-3.9,3.4-9,6.2-11.4,10.5c-6.8,12.1-12.4,24.9-18.5,37.4c-0.5,1-2.3,1.8-1,3.1c1.6,1.5,0.7,2.6-0.2,3.8c-0.8,1.1-1.7,2.2-2.6,3.3
		c-0.8,1-1.5,2-2.2,3c18.4-12.1,30.4-29.5,41.9-47.6c-1.7,0.8-3.4,2-4.7,0c-1.1-1.7,0.9-2.6,1.6-3.7c1-1.6,2.4-3,4.1-5.1
		C78.1,235.4,78.1,235.4,72.4,234.7z M254.1,243.8c5.3-5.7,8,1.2,12.4,3.2c-0.9-4.1-4.5-5.5-5.7-8.7c3-0.2,4.2,2.6,6.6,3.2
		c-0.4-4.5-3.8-7.5-5.5-11.9c2.9,1.4,5.4,2.6,8.2,4c-1.2-3.7-3.2-6.4-5.2-9.4c2.3-0.4,5-0.4,2.8-3.8c1.2,0.3,1.9,0.4,3.6,0.8
		c-1.7-1.8-2.9-3-4.1-4.4c4-0.7,6.9,1.2,10.3,4.1c-0.8-1.6-1.1-2.4-1.5-3.3c4.6,0,9,0,14,0c-19.5-5.7-43.3-5.9-53.6-0.2
		c5.2-1,9.4-0.9,13.9-0.7c-5.8,2.2-11.6,3.7-17.7,7.9c8.4-2.8,15.5-4.2,22.8-1.4c-6.2,0.8-12.6,0.6-18.6,2.7
		c-6.1,2.2-9,8.6-14.9,11.2c2.5-0.7,4.9-1.4,7.4-2.1c0.2,0.3,0.3,0.6,0.5,0.9c-4.2,2.4-8.4,4.8-13.2,7.6c1.4,0.3,1.9,0.4,2.3,0.6
		c-3.1,2.3-6.1,4.5-9.2,6.8c0.1,0.2,0.3,0.4,0.4,0.6c1.9-1,3.8-1.9,5.7-2.9c-10.1,7.5-16.9,17.7-24.4,27.3c3.4-0.6,4.8-4.2,8.9-5.2
		c-4.6,5.4-11.4,10.5-10.5,15.8c1,5.8-2.5,11.7,1,17.1c1.8-0.8,2.7-3,5.5-2.8c-1,2-3.4,3.8-1.3,5.5c1.1,0.9,3.4-0.2,4.6-1.3
		c3.5-3.5,8.4-4.8,11.9-7.9c-0.1,0-0.7-0.3-2.7-1.1c10-1.2,18.6-1.9,27.7,1.2c1.2,2.9,4,5.6,7.6,2.1c2.1-2,4.8-4.2,5.7-7.5
		c0.5-1.8,1.4-3.4,2.2-5.1c0.2,0.1,0.4,0.1,0.6,0.2c-0.1,1-0.1,2-0.3,4c2.1-4.8,1.7-10.2,7.4-12.1c0.3-0.7-1.1-2.2,0.6-3.4
		c1.8,1.9,2.8,4.8,6.1,5.1c0.3-2.5-1-3.9-2.3-5.7c-2.1-2.9-5.3-1.4-7.6-2.9c-5.9-3.8-8.6-10.5-14.2-14.7c2.7,0,4.9,2.3,7.7,1.1
		c-0.2-2.1-3.1-1.8-3.4-3.9c2.3,0.1,4.2,1.9,6.5,0.7c-0.5-0.7-0.9-1.4-1.9-2.8c2.5,1.2,4.1,2,6.9,3.3c-2.1-3.5-3.6-6-5.3-8.7
		c4.5,1.2,7.6,4,11.7,6.8C261.9,248.2,258.3,245.2,254.1,243.8z M283.2,524.1c-2.2,1.1-3.9,0.3-5.8-0.7c-3.8-2-6.3-5.8-9.7-7.6
		c-5.8-3.2-12.2-5.4-18.2-8.3c-0.7-0.3-1.6-0.3-2.4-0.5c-0.1,0.7-0.2,1.4-0.2,2.1c0.7,15.7,6.7,29.8,14.2,43.1
		c11,19.5,35.1,21.9,48,1.5c8.2-13,11.2-27.1,12.7-41.9c0.1-1.3,0.8-3.3-1.3-3.7c-1.8-0.4-3.8,0.4-3.9,2.3c-0.1,3.7-3,3.8-5.6,4.8
		c0.8,0.8,1.3,1.4,2,2.2c-2.2,0.4-4.1,0.7-6.4,1.1c0.7,1.2,1.3,2.1,2,3.2c-2.6,0.7-5.2-1.3-7.7,0.6c1.2,0.6,2.1,1,4.1,2
		c-2.3-0.3-4-1-4.4-0.6c-3.7,3.9-7.7,1.5-11.6,0.8c-2.3-0.4-3.4,0.3-3.4,2.8c0,7,0,13.9,0,20.9C285.3,540.2,284.9,532.3,283.2,524.1
		z M204.9,352.4c-1.4-1.7-2.8-3.1-3.9-4.7c-4-6.2-8.5-11.8-15.9-14.1c-2.1-0.7-2.5-1.9-2.6-4c-0.2-4.6,1.1-8.9,2.2-13.8
		c-3,2.9-16,48.5-14.8,51.1c0.5-0.9,1-1.6,1.9-3.2c-0.3,5,0.4,8.9,1.7,12.8c0.7,2,4.4,4.8,0.2,7.7c6.6,0,12.6,0,18.7,0
		c-2.3,2.5-5.9,3.3-7.2,6.8c8.7-7.1,19.5-8.6,29.6-12c5.8-1.9,10.4-5.4,14.2-10.2c-2.5,2.1-5.5,4.4-8.4,4.1c-4.2-0.5-8.3-2.2-12.1,1
		c0,0-0.3-0.2-0.6-0.5c1.3-1.4,2.6-2.7,3.8-4.1c-2.9,1.1-5,3.3-9,4.3c2.8-2.5,4.7-4.2,6.7-5.9c-3.5,0.8-6.3,3-10.2,2.7
		c0.8-1.4,2.2-3.4,1.9-3.6c-2.8-2.8,0.4-3.3,1.9-4.6c-2.4-1.6-5,0.4-7.5-1.1c3.6-2.2,7-4.3,10.5-6.4c-0.1-0.1-0.1-0.3-0.2-0.4
		c-3.2,1-6.3,2.1-10.3,3.4C198.5,354.6,201.8,353.9,204.9,352.4z M178.8,197.4c-5.1-5.8-12.3-6.7-19.1-11.1
		c6.2-0.6,10.8,0.9,15.5,1.4c-2.8-1.5-5.6-3-8.5-4.4c6,1,11,3.9,16.2,6.5c-5.9-6.2-13.2-9.7-21.2-12c-5.4-1.6-10.7-2.3-16.2-0.2
		c-1.7,0.6-1.3,1.7-1.4,2.9c0,1.4,1,0.7,1.5,0.8c2.1,0.5,3.8,1.5,6,3.1c-6.2-0.1-11.8-1.8-18,0.4c4.7,1,9,0.8,12.7,3
		c-14.3,7.8-31.2,4.2-45.3,11.8c6.2-1.1,12.4-2.2,18.5-3.2c-9.6,4.2-18.1,10-26.8,15.9c4.3-1.8,9,1.2,13.2-1.4
		c0.5-0.3,1.2-1,2.1-0.1c-2.2,1.6-4.3,3.2-6.4,4.8c-1.1,0.8-2.8,1.6-1.8,3.2c0.9,1.5,2.3,0,3.4-0.4c15.9-7.1,32-13.4,49.8-13
		c1.1,0,1.3-0.7,1.4-1.7c-7.3-1.3-14.4-0.8-21.5,0.9c-1,0.2-2.2,0.8-2.7-0.7c-0.3-1,0.6-1.2,1.4-1.4c9.7-2.7,19.4-5.9,29.7-4.4
		c4.1,0.6,8.3,1.2,13.8,2.1c-7.8-4.3-15-5-22.1-6.3C161.8,192,170,194.3,178.8,197.4z M482.7,214.6c-7.1-1.5-13.5-4.7-20.2-7.1
		c-13.5-4.8-27.2-9.2-41.8-8.5c-8.3,0.4-14.6,4.8-19.8,11.2c10.2-4.3,20.5-8.2,33.4-5.1c-9.6,2.6-18.2,2.7-26,6.4
		c6.7-1,13.3-1.5,19.9-0.3c6.5,1.2,13.3,0.4,19.7,2.9c-1.8,0.1-3.6,0.3-5.7,0.4c0.9,0.6,1.4,0.9,2.5,1.7c-2.1-0.2-3.4-0.3-4.4-0.4
		c0.2,1.4,1.1,3.2,0.5,4c-1.8,2.7,0.4,2.7,1.8,2.9c11.9,2.2,22.5,7.6,32.4,14.2c3.9,2.6,7.7,5.4,11.9,8.4c0.1-3-2.9-3-3.3-5.5
		c2.9,1.9,5.6,3.5,9.2,5.8c-5.6-9.4-12.5-15.9-20-22c0.3-0.3,0.7-0.7,1-1c5.5,4.1,10.9,8.2,16.4,12.3c-8.6-8.9-16.6-18.7-28.4-24
		C468.9,212.8,475.4,215.1,482.7,214.6z M248.2,443.2c-0.4-4.2-0.5-8,3.9-9.6c3.6-1.3,5.5-5.4,9.7-5.8c7-0.7,14-1,21-0.5
		c7,0.5,14.2-0.9,21.1,1.5c-4.4-1.9-8.8-3.3-13.3-4.3c-12-2.6-24-4.5-35.9,0.5c-0.9,0.4-1.9,1.5-2.9,0.6c-1.1-1-0.5-2.3-0.1-3.5
		c2.2-7.4,7.8-11.3,14.5-14.1c2.6-1.1,5.1-2.5,5.8-5.7c-8.7-1.3-19.7,4.8-24.2,13.2C243.4,423.7,243.4,437.9,248.2,443.2z
		 M372.2,294.7c-1.3-1.2-3.1,0.4-3.2-1.3c-0.1-2.3-2.2-0.2-2.7-1.7c1.9-1.7,3.9-3.4,5.8-5c-1.7-0.7-3.1,1.8-4.5,0.2
		c-0.9-1-1.6-2.5-0.5-3.4c-1.3-2.1-4.7-1.6-4.5-5.1c-2.3-1-4.9,0.9-7.6-0.7c1.4-1.3,2.7-2.4,4.3-3.8c-8.8,1.9-13.6,9-12,17.3
		c1.3-0.6,0.6-2.7,2.6-3.1c0,3.3-0.6,6.6,0.6,10.7c0.7-2.3,1.1-3.7,1.4-5.1c0.5,6.8,0.5,6.8,7.8,3.3c0.4,3.3,2,3.2,4.3,1.6
		c0.7-0.5,1.9-1.2,2.2-1c3.2,2.8,5.3-0.1,8.3-1.6c-1.7,0-2.7,0-5.2,0C370.8,295.3,371.5,295,372.2,294.7z M375.9,434.5
		c0.3-6.9,7.6-5.3,10-8.6c3.8-5.3,8.2-2.9,12.7-1.7c0.1-0.4,0.2-0.9,0.3-1.3c-11.3-4.2-22.7-8.3-34.8-12.8
		C367,419.3,371.2,427.1,375.9,434.5z M216,331.4c2.4-0.6,5-1,4.1-4.6c-0.5-1.8-1.8-2.4-3.6-2.4c-2.3,0-3.5,1.2-4.2,3.2
		c-2,5.5,0.7,12.3,5.8,15c7,3.7,16.1,2,20.1-3.9c2.1-3.1,3.6-6.4-1.4-8.3c-1.1,5.1-3.9,8.9-9.4,9.6
		C221.2,340.8,217.8,337.2,216,331.4z M245.8,536.3c0.6,6.2,1.6,12,4.5,17.3c1.5,2.8,4.1,7.8,6,6.7c3.2-1.8,2.6-6.7,1.2-10.4
		c-1.9-5-3.7-9.9-5.7-14.8c-0.9-2.2-1.4-6.2-3.4-5.8C245.5,529.9,246.6,534,245.8,536.3z M352.1,337.4c-4.3,1.1-3.6,3.9-2.7,6.6
		c1.8,5.5,7.9,9.3,14.3,9.2c6.4-0.2,11.5-4.2,13.2-10.5c0.5-1.9,1.6-4.8-0.1-5.6c-2-0.9-3.6,1.8-4.5,3.6c-2.6,4.7-6.3,7.6-11.8,6.8
		C355,346.8,353,342.5,352.1,337.4z M322.3,533c-4.4,8.1-8.9,16.2-13.1,24.4c-0.9,1.7-0.5,4.7,1,5.6c1.8,1,3-1.6,4.3-2.8
		c0.8-0.7,1.5-1.6,2-2.4C321.5,550.4,324,542.4,322.3,533z M159.8,505.5c-6.4-24.5-15.2-48.9-1.9-73.9
		C141.3,456.7,150.3,481.1,159.8,505.5z M108.2,367.3c5.2,0.9,9,1.6,12.9,2.3c3.8,0.7,7.6,2.7,11.6,0.9c-0.6-1.9-2.1-1.7-3.5-2.2
		c3.6-0.4,6.7-1.5,10.2-3.7c-5.7,0.9-10.5,2.6-15.6,1.8c4.2-1.5,8.8-1.9,12.5-4.9C127.6,365.2,117.9,363.7,108.2,367.3z
		 M148.9,445.6c6.6-16.1,13.3-31.4,23.2-45.2c-6.5-1.6-5.3,3.3-6.5,6.2c-0.5,1.2-1.2,2.3-1.8,3.3C157,420.8,150.2,431.6,148.9,445.6
		z M120.2,327.4c5.4,1.3,10.1-1.9,14.4,2.4c2.4,2.3,11.6-6.4,11.3-11c-2.6,1.7-4.9,3.3-8,5.4c0.6-1.3,0.8-1.8,1.1-2.6
		C132.7,323.5,126.8,325.4,120.2,327.4z M261.4,558.7c-2.5,4.1-2.5,4.1,0.8,6.4c1.5,1.1,3.1,2.2,4.7,3.3c5.2,3.4,10.7,5.9,17.2,5.4
		c1-0.1,2,0,2.1-1.4c0.1-1.2-0.8-1.3-1.7-1.4C274.9,570.6,267.7,565.7,261.4,558.7z M417,467.7c-1.5,1.1-1.3,2.3-1.4,3.4
		c-0.5,5.4,2.2,9.6,5.2,13.6c5.9,7.8,13.8,14.1,17.5,23.6C434.6,492.9,418.9,484.1,417,467.7z M355.3,357.8c0.9,3.4,3.4,2.9,5.1,3.1
		c8.5,1.2,16.8,1.1,23.3-5.7c1-1.1,2.9-2.7,1.6-4c-1.6-1.6-2.6,0.9-3.6,1.8c-2.5,2.1-5.1,3.8-8.1,4.8
		C367.6,359.7,361.7,359.7,355.3,357.8z M245.9,528.4c0-4,0.5-8.2-2.5-11.5c-0.8-0.9-1.7-1.6-1.2-3c0.3-1,1.4-2.2-0.2-3
		c-1.3-0.7-2.6-0.8-3.9,0.2c-1.2,0.9-1.6,2-1,3.3C239.3,519.5,241.9,524.3,245.9,528.4z M281.4,437.8c-2.8,14.8-6.7,17.9-21.5,17.5
		c-0.9,0-2.1,0.1-2.2,1.3c-0.1,1,0.7,1.4,1.6,1.7c2.7,0.8,5.5,1,8.2,0.6C277.4,457.2,284.1,447.3,281.4,437.8z M370.4,331.1
		c-0.8-3-2.5-5.1-5.8-5.1c-2.8,0-4.7,1.6-4.5,4.6c0.2,3.4,2.2,5.4,5.8,5.4C369,335.9,369.9,333.8,370.4,331.1z M411.2,477.9
		c0,4.1,0.8,8,3.6,10.9c6.4,6.4,13.1,12.5,14.7,22.1C429.4,496.5,416.4,489.4,411.2,477.9z M232.8,323.6c-0.2-3.2-1.8-5.2-4.9-5.1
		c-2.6,0-4.4,1.7-4.4,4.5c0,3,1.6,5.1,4.8,5.1C231.4,328.2,232.7,326.4,232.8,323.6z M406.6,484c4.7,10.9,6,22.3,5.3,34
		C415.9,505.2,414,493,406.6,484z M307.2,562c-5.1,5.5-11,8.3-17.9,8.9c-1.1,0.1-2.6-0.3-2.3,1.7c0.3,1.9,1.8,1.2,2.8,1.1
		c5.6-0.8,10.9-2.8,15.7-5.8C307.3,566.7,308.7,565.2,307.2,562z M177.6,325.8c3.4-7.3,6.7-13.3,7.8-20.1
		C181.5,305.9,177.5,315.7,177.6,325.8z M135.4,334.7c8.4-3.3,13.8-9.7,19.2-18.1C146.3,322,142.6,330.1,135.4,334.7z M159.8,201.4
		c7.7,1.8,15.1,4.3,22.6,6.7C176.2,201.5,167.8,202.1,159.8,201.4z M46.9,262.2c-4.3,9.3-8.7,18.6-13,27.9
		C41.2,282.3,45.1,272.8,46.9,262.2z M382.3,413.6c4,3.5,8.8,5.3,14.1,5.9c-2.3-2.5-4.8-4.4-7.4-6.3c-1.7-1.2-3.5-2.2-3.5,1.5
		C384.3,414.3,383.3,414,382.3,413.6z M74.1,288.3c7-1,13.8-6.5,14.7-11.5C82.6,278.8,78.8,283.6,74.1,288.3z M380.2,338.5
		c-0.8,2.8-1.4,5.6-2.4,8.4c-1,2.8-3.1,4.9-5.5,7.1C381.4,351.5,384.9,344.4,380.2,338.5z M90.7,312.8c5.9,5,20.6,6.1,23.4,2.1
		C106.4,315.9,98.8,314.9,90.7,312.8z M384.2,335.1c0-7.3-5.7-14.5-12.9-16C377.5,323.4,380.7,328.7,384.2,335.1z M220.5,378.7
		c-6.7,3.8-13.9,6.1-21.3,8.2C207.3,386.7,214.5,384,220.5,378.7z M209,326.6c-1.6,2.7-4.5,3.5-3.6,6c1.3,3.4,3.6,6.2,7,7.8
		C209.9,336.4,209,332.2,209,326.6z M112.2,177c5.8,1.6,11.7,1.1,17.6,0.5C124.1,175,118.2,176.2,112.2,177z M135.5,189.7
		c-7.4-1.6-12.9-0.1-18.3,2C122.8,190.8,128.6,192.6,135.5,189.7z M156.4,458.6c-1.9,5.9-0.6,11.4,2.1,17.8
		C157.7,469.8,157.1,464.2,156.4,458.6z M373.9,436c2,2.4,2.8,3.7,3.9,4.7c0.9,0.9,0.7,3,2.6,2.5c0.7-0.2,1.4-1.4,1.4-2.3
		c0.1-1.6-1.3-2.3-2.5-2.9C378.1,437.5,376.7,437.1,373.9,436z M297.3,578.5c6.6-0.8,11.8-4,16-9
		C308.1,572.8,302.6,575.5,297.3,578.5z M123.6,418.3c6.5-2.2,10.7-6.9,14.1-12.4C133.1,410,128.3,414.1,123.6,418.3z M212.6,312.4
		c5.6,1,8.8-2.1,12.6-2.3C221.2,308.8,217.7,310.4,212.6,312.4z M143.5,311.3c-4.3,1.9-8.7,3.8-13,5.6
		C135.4,316.2,140,315,143.5,311.3z"/>
	<path d="M398.4,594.9c-0.4,3.9-1.3,7.8-1.1,11.7c0.3,9.5-0.2,18.8-2.1,28.1c-0.9,4.7-1.4,10.4-6.8,11.6c-4.8,1.1-8.4-3-11.4-6.4
		c-5.7-6.5-8.1-14.5-9.7-22.9c-0.4-2.1,0-5.3-3.9-3.8c5.4-15.1,7.1-31.2,15.1-45.3c-0.3,1.4-0.6,2.7-1.2,5.6
		c1.8-3.6,2.8-5.7,3.9-7.8c0.3,7.7-2.3,14.3-6.3,20.6c-9.7,15.4-5.7,41.8,8,53.7c1.3,1.2,2.8,3.1,4.6,2.3c2.1-1,0.5-3.3,0.3-4.9
		c-0.4-3.6-0.8-7.2-0.4-10.8c-0.4,1.2-0.8,2.4-1.2,3.8c-1.9-5-1-15.3,2.3-24.6c0,4.6,0,8.2,0,11.8c1.4-0.1-0.2-2,1.1-1.8
		c0.9,0.1,1.4,0.9,1.3,2c-0.2,3.2-0.4,6.4-0.4,9.6c0,3,1.7,6,0.8,9.2c2-8.2,4.4-16.3,3.5-25c-1,5.9-2,11.8-3,17.7
		C392.7,617.7,392.2,605.7,398.4,594.9L398.4,594.9z"/>
	<path d="M408,600.5c0.3,7.9-4.1,14.2-5.1,22.1c2.8-5.2,5.2-9.7,7.5-14.2c-3.7,9.9-8.6,19.5-5.9,30.6c-0.2-3.8,0.1-7.6,0.9-11.4
		c0.8-3.8,1.8-7.4,5.1-11.2c-0.6,9.3-4.5,17.1-4.6,25.6c1.9-7,2.7-14.3,7.3-21.9c-2,10.1-3.7,18.7-5.4,27.4
		C397.4,642.8,397.4,616.6,408,600.5z"/>
	<path d="M171.1,618.7c2,3.2,1.3,7.1,3.5,11.3c-0.5-4.6-0.9-8.1-1.5-12.8c3.1,4.3,3.1,8.4,4.2,12.1c0.1-9-3.3-17.5-3.9-26.5
		c1.2,3.4,2.4,6.9,3.6,10.3c0,0-0.1-0.1-0.1-0.1c0,0.5-0.1,1.1,0,1.6c1.8,7,4.1,14,2,21.3c-0.3,1.1,0.7,0.7,1.2,0.8l-0.1,0
		c-1,4.7-6.3,7-6.7,12c0,0.2-0.9,0.6-1.3,0.5c-1-0.2-0.7-1.1-0.8-1.8c-2-11-3.4-22-1.3-33.8C170.5,615.7,170.9,617.2,171.1,618.7
		c-1.5,3.1-0.2,6.2,0.1,9.1c0.6,5.3,0.9,10.6,2.9,15.6C174.7,635,172,627,171.1,618.7z"/>
	<path d="M441.8,586.8c-1.8,6.3-3.6,12.5-5.4,18.8c-0.3,0.3-0.7,0.5-1.5,1.1c0.3-9.6-1.4-18.9,2.2-27.9c-0.6,4.7-1.2,9.5-1.9,14.2
		c2.9-7.6,1.9-16.4,8.5-24c-1.3,5.3-2.3,9.4-3.6,14.3c1.1-1,1.6-1.4,2.4-2.2C442.3,583.4,442,585.1,441.8,586.8z"/>
	<path d="M400.5,608c3-7.7-1.1-16.4,3.2-24.2c3,2.1,0.2,4.7,1.5,6.9c0.8-1.6,1.4-3.1,2.1-4.5C406.6,594,407.2,602.1,400.5,608z"/>
	<path d="M179.4,599.5c1.5-5.1-1.2-9.3-1.2-14.1c4.2,9.1,3,18.5,3.2,28c-3.9-4.7-6-13.2-4.7-27.2
		C177.7,590.9,178.5,594.9,179.4,599.5z"/>
	<path d="M419.3,621.2c2.3-2.1,2.6-5.3,4.7-8.6c-0.4,2.8-0.8,4.7-0.9,6.6c-0.1,1.3-1.9,3.3,1.3,3.6c0.9,0.1,0.3,1.5,0,1.9
		c-2,3.9-4.2,7.7-6.9,12.6C417.2,631,420.6,626.3,419.3,621.2C419.3,621.1,419.3,621.2,419.3,621.2z"/>
	<path d="M339.4,272.1c-3.1,1.6-5.9,3.2-8.7,4.6c-1.4,0.7-3.4,1.2-3.8-0.5c-0.3-1.3-1-3.5,1-4.8
		C331.6,268.9,335.2,268.9,339.4,272.1z"/>
	<path d="M195,177c9.2,4.5,11.8,14.6,18.3,21.5C205,193.2,201.2,184.1,195,177z"/>
	<path d="M250.4,349.1c-0.4,0.2-0.9,0.3-1.3,0.5c0.2-1.3,1.2-1.9,2.2-2.5c4.1-2.8,8.3-5.5,13.3-6.4c0,0-0.1,0.1-0.1,0.1
		c0.7,0,1.5,0.1,2.2,0c0.7-0.1,1.4-0.3,2.6-0.5c-1.6,2.8-4.4,2.8-6.8,4c0.8,0.3,1.3,0.5,1.9,0.7
		C259.7,346.9,254.6,346.6,250.4,349.1z"/>
	<path d="M177.1,613.2c-0.3-2.2-0.7-4.3-1.2-7.5c6,10.5,8.3,20.4,4.3,31.1l0.1,0C182.2,628.5,180,620.8,177.1,613.2L177.1,613.2z"/>
	<path d="M439.5,619.9c1.3-8.4,1.9-16.9,4.8-25.9C444.5,602.9,442.6,614,439.5,619.9z"/>
	<path d="M160.8,631.1c-3.2-5.9-1.6-11.6,0.8-17.5C165.1,619.8,159.7,625.2,160.8,631.1z"/>
	<path d="M146.8,593.7c-1.8-7.4-3.7-14.8-5.5-22.1C145.9,578.2,146.9,585.8,146.8,593.7z"/>
	<path d="M398.4,595c0.8-4,1.6-8,2.4-12.1c0.2,0,0.5,0.1,0.7,0.1c-0.5,7-1,14-1.5,21.9C398,601.2,400.2,597.7,398.4,595
		C398.4,594.9,398.4,595,398.4,595z"/>
	<path d="M305.5,337.5c2.7-1.1,4.8-2.7,7.1-0.9c1.5,1.2,0.2,2-0.4,2.9c-1.1,1.8-2.5,1.8-4.3,1C306.4,339.9,309.1,336.9,305.5,337.5z
		"/>
	<path d="M316.3,321.6c1.2-3.4-0.8-7.8,4.5-9.2c1.4,2.1-1.2,2.8-1.4,4.4c0.5-0.3,1.1-0.6,2.4-1.4
		C319.9,318.1,319.6,320.9,316.3,321.6z"/>
	<path d="M380.1,587.7c2.8-2.1,4.3-3.2,6.1-4.5c-1-0.1-1.8-0.1-2.8-0.2c2.3-2,4.9-1.6,7.4-1.4c0.1,0,0.3,0.7,0.3,0.7
		c-1.9,1-2.9,3.3-5.3,3.7C384.4,586.2,383,586.8,380.1,587.7z"/>
	<path d="M170.2,438.7c-0.2,0.6-0.4,1.3-0.7,1.9c-0.5,0.6-1.1,1.3-1.9,2.3c1.6-5.3,1.6-10.7,5.1-15.5c0.7,2.3-0.4,4.1-0.9,5.9
		C171.5,435.1,170.8,436.8,170.2,438.7z"/>
	<path d="M309.3,393c-2.1,2.7-3.1,5.8-7.1,4C302.8,393.1,305.2,392.3,309.3,393z"/>
	<path d="M330.3,222.5c-2.7,3.1-5.4,4.4-9.2,5.8C322.9,223.8,325.6,222.5,330.3,222.5z"/>
	<path d="M245.7,269.5c-2.2-0.7-4.1-1.4-6.7-2.2c0.9,1.4,1.4,2.1,1.8,2.7c-4,4.2-8.3,1.7-12.6,0.9c3.8-0.1,5.4-3.9,8.9-4.9
		c2.7-0.7,5.2-0.9,7.7,0.1C246.4,266.7,245.8,268.1,245.7,269.5z"/>
	<path d="M72.4,234.7c-2,5.9-5,11-10.8,16.3C64.4,243.8,66.5,238,72.4,234.7C72.5,234.8,72.4,234.7,72.4,234.7z"/>
</g>
</svg>
