<?xml version="1.0" encoding="utf-8"?>
<!-- Generator: Adobe Illustrator 24.2.3, SVG Export Plug-In . SVG Version: 6.00 Build 0)  -->
<svg version="1.1" id="Layer_1" xmlns="http://www.w3.org/2000/svg" xmlns:xlink="http://www.w3.org/1999/xlink" x="0px" y="0px"
	 viewBox="0 0 595.3 841.9" style="enable-background:new 0 0 595.3 841.9; fill: #215342;" xml:space="preserve"
	 height="400" width="500" transform="translate(-145, -57)">
<g>
	<path d="M79.4,420.1c3.4-3.1,7-6.1,10.1-9.5c2.6-2.8,4.6-6.1,7.5-8.9c-1.1,2.4-2.1,4.8-3.4,7.1c-4.7,8.2-8.5,16.7-10.1,26
		c-1.4,8.7-1.2,17.4,0.8,26c0.2,0.9,0.5,1.8,1.1,2.6c-2.7-19.4,1.3-37.1,12.9-53.1c-11.8,19.4-11.8,39.8-5.4,60.8
		c-1.9-19.7,2.4-37.9,13.4-54.4c-2.7,9.1-5.3,18.1-8,27.1c0.4,0.1,0.7,0.2,1.1,0.3c1.1-3.5,2.1-7,3.3-10.4c3.4-9.5,8.7-18,15.1-25.8
		c7.1-8.7,12.9-18.2,17.5-28.4c0.4-0.9,0.9-1.8,1.4-2.7c0.3,0.1,0.5,0.2,0.8,0.4c-2,4.3-3.7,8.7-6,12.8c-4.4,7.8-9.4,15.2-13.5,23.1
		c-3.7,7.1-6.5,14.8-9.6,22.2c-0.4,1-0.6,2.2-0.6,2.4c4.1-4.9,8.5-10.4,13.1-15.8c2.9-3.4,6.2-6.4,9.2-9.7c5.3-5.8,9-12.4,11-19.9
		c2.1-7.9,4.8-15.7,6-23.8c1-6.4,0.2-13,0.4-19.5c6.2,20.5,4.1,40-7.2,58.6c7.5-4.7,13.9-25,14.4-44.8c1.7,3.5,2.2,11,1.4,18.5
		c-1.1,11.7-4.7,22.6-9.3,33.4c-4.3,10.1-7.7,20.3-6.7,31.5c1.1-12.8,6.8-23.9,12.4-35.2c8.6-17.2,10.7-35.5,6.4-54.3
		c-0.6-2.5-1.6-4.9-2.6-7.2c-3.2-7.4-6.5-14.8-9.8-22.1c-0.1-0.3-0.4-0.5-1.2-0.5c1.1,5.5,2.1,11.1,3.2,16.6
		c-8.8-16.5-9.8-34.3-8.7-52.4c-0.4,0-0.8-0.1-1.1-0.1c-0.7,4.8-1.8,9.5-2.1,14.3c-0.4,4.9-0.1,9.9-0.3,14.8
		c-3.7-21.8-3.5-43.3,3.5-64.7c-4.4,3.7-8.7,22-10.1,41.5c0-3.3,0-6.6,0-10c-0.4,0-0.7,0-1.1,0c0.5,12.9,0.8,25.9,1.5,38.8
		c0.5,10.1,0.5,20-3.1,29.6c-2.5,6.5-6.1,12-12.5,15.1c-1.4,0.7-3.1,0.9-5,0.9c10.4-6.4,16.3-15.2,16.5-27.5c-1,2.1-2,4.2-3,6.2
		c0.3-4.3,2.2-8.4,1.1-13.4c-4.1,8.7-7.2,17.1-11.8,24.6c-4.6,7.5-10.8,14.1-16.4,21.3c3.5-1.4,6.6-2.8,9.7-4.1
		c0.2,0.3,0.3,0.6,0.5,0.9c-0.4,0.5-0.6,1.1-1.1,1.4c-9.6,5.7-15.7,14.8-22.3,23.4c-5.3,7-12.2,11.8-20.5,14.4
		c-0.4,0.1-0.7,0.2-1.2,0c13.4-6.1,20.1-18.2,27.6-30.5c-1.2,0.5-1.9,0.8-2.9,1.2c4.9-5.5,9.7-10.9,14.5-16.3
		c-0.2-0.2-0.4-0.5-0.6-0.7c-7.5,6.8-15.8,12.2-25.8,14.5c10-4.5,18.6-10.7,25.6-19.3c-1.8,0.5-3.5,1.2-5.3,1.4
		c-1.7,0.2-3.5,0.1-4.8,0.1c3.9-1.9,8.3-3.6,12.1-6.1c4-2.6,7-6.3,8.8-11.4c-4.2,2.8-8,5.3-11.8,7.9c5.1-4.8,10.5-9,13.7-15.5
		c-2.8,2.2-5.7,4.5-8.5,6.7c-0.3-0.4-0.7-0.8-1-1.1c3.2-2.7,6.4-5.4,9.6-8.1c-0.3-0.4-0.2-0.3-0.5-0.7c-3.6,2.2-7.2,4.5-10.8,6.7
		c12.9-10.4,19.3-18.6,19.5-26.7c-2.3,2.4-4.2,4.9-6.5,6.9c-2.2,2-4.8,3.7-7.5,5.2c5.9-4.7,10.5-10.3,13.3-17.3
		c-2.1,2.2-4.3,4.5-6.4,6.7c-0.1-0.1-0.3-0.2-0.4-0.4c2.3-3.3,4.6-6.5,6.8-9.9c3.2-4.9,4.8-10.2,4.6-16.2
		c-0.3-12.5,0.8-24.8,4.9-36.7c0.1-0.4,0.1-0.8,0.1-1.2c-0.3-0.1-0.6-0.3-0.9-0.4c-2.9,6.4-5.8,12.8-8.6,19
		c2.6-13.8,18.6-36.5,18.3-36.7c-3.4,3.3-6.8,6.6-10.2,9.9l0,0c4.1-6.6,9.9-11.5,16.1-15.9c3.2-2.2,6.3-4.4,9.5-6.6l1.2-1
		c2.9-0.9,5.8-1.8,9-2.8c-6.2-1-17.9,1.5-30.7,6.4c-0.1-0.3-0.2-0.6-0.4-0.9c4.6-2,9.1-4.4,13.9-5.7c4.8-1.4,9.9-1.7,15.7-2.6
		c-7.2-2.2-13.9-2-20.8-2.1c3.9-0.6,7.8-1.7,11.7-1.7c4.8,0.1,9.6,1.1,14.3,1.9c7.7,1.3,15.4,1.4,23.1-0.1c1.1-0.2,2.3-0.5,3.7-0.1
		c-0.9,0.5-1.8,1.1-2.8,1.4c-6.5,2.1-12.9,4.4-19.4,6.1c-9,2.4-16.8,7-23.9,12.9c6.4-3.2,12.8-6.4,19.1-9.6c0.2,0.4,0.1,0.2,0.4,0.6
		c-5.8,4.1-11.7,8.3-17.5,12.4c0.2,0.3,0.1,0.2,0.3,0.5c13.5-5.2,27-10.4,40.5-15.6c0.3,0.6,0.2,0.4,0.5,0.9
		c-10.5,7.3-22.4,12.8-30.1,23.6c7-5.9,15.3-9.4,23.6-12.9c1.3-0.5,2.2-1.9,3.2-3c5.8-6.8,11.3-13.8,17.3-20.4
		c5.1-5.7,10.8-10.9,16.2-16.3c1-1,2-1.8,3.3-2.5c-6.9,10.9-14.5,21.3-18.8,33.5c5.1-5.3,10.3-10.6,15.4-16c0.6,0.5,0.3,0.3,0.9,0.8
		c-6.9,8.2-13.7,16.5-17,27c2.7-3.3,5.4-6.5,8.1-9.8c0.2,0.2,0.5,0.3,0.7,0.5c-0.9,1.5-1.8,2.9-2.7,4.4c-7.5,12.3-14.2,25-16.3,39.5
		c-0.6,4.3-0.5,8.7-0.3,13c0.1,1.9,1.2,3.9,2.4,5.8c3.8-6.3,5.6-13.1,7.8-19.7c4.1-5.2,7.6-10.7,13.9-14c10.1-5.2,20-8.4,30.9-2.8
		c1.2,0.6,2.6,0.8,3.9,1.2c0.1-0.3,0.3-0.5,0.4-0.8c-1.7-1.3-3.2-3-5.1-4c-10.2-5.3-20.1-4.7-29.4,2c-6.5,4.7-11.8,10.6-14.7,18.4
		c-0.5,0.3-1.1,0.6-2.4,1.2c1.1-3.5,1.9-6.3,2.8-9c1.8-5.3,3.8-10.5,5.8-15.8c0.4-1,1.2-1.8,1.8-2.6c1.4-1.9,2.8-3.9,4.3-5.7
		c0.1-0.2,0.3-0.3,0.4-0.5c1.2-1.3,2.2-2.7,2.7-4.4c1.1-3.6,4.2-5.9,5.8-9.2c-3.4-2.2-5.5,1-8.6,1.6c2.7-3,5.4-6.1,8.1-9.1
		c-0.1-0.1-0.2-0.2-0.3-0.3c-1.6,1.3-3.2,2.5-4.8,3.8c-0.2-0.2-0.5-0.5-0.7-0.7c2.9-2.8,5.8-5.5,8.7-8.3c0.7-0.6,1.1-1.5,1.6-2.3
		c-0.3-0.4-0.3-0.4-0.7-0.9c-0.9,0.3-1.7,0.6-2.6,0.9c-0.1-0.2-0.2-0.3-0.4-0.5c3.3-2.4,6.5-4.9,9.8-7.3c-0.1-0.2-0.1-0.2-0.2-0.4
		c-1.7,0.3-3.5,0.7-5.2,1c-0.1-0.3-0.1-0.2-0.2-0.5l3.2-2.2l-2.5,0c-0.2-0.4-0.2-0.4-0.4-0.8c4.7-5.7,12-4.3,18.3-5.8l-1.9-1.7
		c7-0.8,13,1,19.6,2.3c-1.4-1-2.8-1.9-4.3-2.9c0.4-0.8,0.3-0.6,0.7-1.4c2.5,1,5,1.9,7.5,2.9c0.1-0.3,0.1-0.2,0.2-0.4
		c-2.1-1.5-4.1-3-6.2-4.5c0.2-0.4,0.1-0.3,0.3-0.7c2.3,0.8,4.6,1.5,6.8,2.4c2.4,1.1,4.6,2.9,7.1,3.4c2.2,0.5,4.7-0.4,7.2-0.7v-3.1
		c1.3,0.3,2.3,0.5,3.6,0.8c0.3-1,0.5-1.8,0.9-3.4c2.6,4.8,9,4.1,10.6,9.3c6.9,3.6,7,11,9.7,17.5c0.9-1.6,1.7-3,2.5-4.4
		c0.5,0.2,0.4,0.1,0.9,0.3c-0.5,4.3-1,8.5-1.5,12.8c0.2,0,0.1,0,0.3,0.1c0.9-2.4,1.8-4.8,2.9-7.8c0.4,0.9,0.6,1.3,1.1,2.2
		c2.3-3.6,4.4-6.9,6.5-10.2c0.4,0.2,0.3,0.1,0.7,0.3c-0.5,2.2-1.1,4.5-1.8,7.7c1.8-1.5,3-2.5,4.8-4.1c-1,2.4-1.6,4-2.7,6.5
		c3.7-3,7.3-5,9.5-7.9c2.3-3.2,5.2-5.4,8.1-7.8c2.8-2.4,5.8-3.2,9.2-3.8c1-0.2,2-0.5,2.7-0.7c0-1.6,0.2-2.8-0.1-3.9
		c-0.2-0.7-0.9-1.6-1.6-1.9c-1.9-0.8-3.9-1.3-5.8-2c0-0.4,0-0.4,0-0.9c3.8-1.2,7.6-2.5,11.7-3.8c-4-3.2-9.8-0.1-13.3-4.6
		c3-0.4,5.8-0.8,8.6-1.1c0-0.4,0-0.4,0.1-0.8c-8.4-2.7-17-4-26.2-2.4c0.8-0.4,1.6-0.9,2.5-1.2c1-0.4,2-0.7,3.2-1.2
		c-2.2-2.1-5.7,1.2-8.1-2.4c-5.2-0.9-15.8,3.6-18.7,8.6c-0.5,0.9-0.1,2.4,0.3,3.5c0.8,2.7,1.7,5.3,2.1,8.2
		c-6.3-11.9-14.8-20.6-29.6-21.6c2.3,1.5,4.1,2.6,6,3.8c-0.1,0.2-0.1,0.1-0.2,0.4c-3.1-1.1-6.2-2.2-9.3-3.2
		c-0.2,0.3-0.2,0.3-0.4,0.5c0.4,0.6,0.7,1.1,1.4,2.2c-16.1-1.8-31.4-1-45,8.7c5.2-1.6,10.5-3.2,15.7-4.7c0.1,0.2,0.2,0.5,0.3,0.7
		c-0.9,0.3-1.9,0.7-2.8,1c-7.8,2.5-15.3,5.9-22,10.5c-9.5,6.5-19.7,11.1-31.3,12.1c0.1,0.3,0.1,0.6,0.2,0.9
		c5.3-0.6,10.6-1.2,15.9-1.7c-19.6,9.7-39.9,13.6-60.6,6.8c9.6-2,20.4,3.4,31.4-0.6c-5.2-0.9-9.7-1.6-14.2-2.4c0-0.3,0-0.2,0-0.5
		l17.2,0c0.1-0.3,0.1-0.2,0.1-0.5c-6.7-3.3-13.4-6.6-20.2-10c0.1-0.1,0.1-0.3,0.2-0.4c4.5,1.8,9,3.8,13.6,5.3
		c11.7,3.6,23,2.2,33.4-4.2c5.7-3.5,11-7.7,16.4-11.6c15.8-11.2,33.3-17.4,52.9-16.2c4.9,0.3,9.9,1.7,14.4,3.5
		c5.4,2.1,10.4,1.7,15.8,0.5c6.7-1.5,13.5-3.2,20.3-3.4c16.3-0.5,31.1,5.3,44.8,13.5c9.4,5.6,18.1,12.3,27,18.7
		c11.4,8.1,24.3,11.5,38.1,11.7c4.8,0.1,9.6,0,14.4,0.4c-4.9,0.9-9.8,1.8-14.8,2.7c0,0.5,0,0.4,0,0.9c7.2,1.1,14.3,2.3,21.5,3.4
		c0,0.5,0,0.3-0.1,0.8h-18.3c7.9,4.6,16.6,7.4,23.3,13.9c-6.6-4-13.8-5.8-21.2-6.9c-0.2,0.4-0.1,0.3-0.3,0.8
		c7.3,4.2,14.5,8.3,21.8,12.5c-0.2,0.4-0.1,0.2-0.3,0.6c-5.1-2.1-10.2-4.3-15.3-6.4c-0.2,0.3-0.4,0.7-0.5,1c0.4,0.5,0.8,1,1.3,1.5
		c14.7,12,23.4,27.8,27.1,46c2.2,10.9,8.8,17.8,17,24c0.4,0.3,0.9,0.6,1.2,1.2c-1.5-0.8-3-1.6-4.4-2.5c-1.4-0.9-2.8-1.9-4.1-3
		c-1.4-1.1-2.7-2.3-4.3-3.3c3.4,8.8,7.2,17.4,13.6,24.5c-7.5-6.4-11.7-15-16.3-23.4c3.3,15.8,12.3,27.8,24,38.3
		c-1.8-1.3-3.6-2.6-5.3-4c-1.7-1.4-3.3-3-4.8-4.6c-1.6-1.7-3.1-3.5-4.7-5.3c0.2,6.6,12.3,18.1,24.6,24c-1.6-0.4-3.3-0.7-4.9-1.3
		c-1.7-0.6-3.3-1.4-4.9-2.2c-1.6-0.8-3.1-1.7-4.8-2.3c5.5,7.1,13.1,11.7,20.4,16.7c-5.1-2.6-10.1-5.3-15.2-7.9
		c1.7,5.4,10.4,11,24.6,16.4c-2.8-0.7-5.6-1.2-8.3-2.1c-2.7-0.9-5.2-2.3-7.9-3.6c2.4,4.5,10.7,10.4,18.8,14c-2-0.4-4-0.6-5.9-1.3
		c-2-0.7-3.9-1.7-5.9-2.6c1.3,5.7,21.9,20.4,34.1,24.8c-1.7-0.2-3.4-0.3-5-0.6c-1.7-0.3-3.3-0.8-4.9-1.3c-1.7-0.5-3.4-1.2-5.1-1.8
		c-0.2,0.4-0.2,0.3-0.4,0.7c3.6,2.7,7.3,5.3,10.9,8c-0.1,0.1-0.2,0.3-0.2,0.4c-3.6-2.2-7.3-4.3-11-6.5c3.5,8,13.1,15,22.3,16.1
		c-5.1,1.5-9.3,0-13.4-1.5c-0.3,0.5-0.2,0.4-0.5,0.8c2.8,2.6,5.5,5.5,8.6,7.6c3.2,2.1,6.9,3.4,11,5.4c-2.7,0-5.2,0.2-7.6-0.1
		c-2.4-0.3-4.7-1-7.8-1.7c5.2,5.4,11.3,7,17.5,8.2c-6,0.9-12,1.2-17.4-3c0.9,6.3,9.8,12.2,19.2,13.1c-4.3,1.9-8.5,0.8-21.5-5.8
		c3.8,8.4,7.2,16.2,7.7,25.1c-1.7-4.3-3.2-8.3-4.8-12.3c-0.3,0.1-0.2,0.1-0.5,0.1c1.1,6.7,2.2,13.4,3.2,20.1c-0.3,0-0.6,0.1-0.9,0.1
		c-1-3.8-1.9-7.7-2.9-11.5c-0.6,0.1-0.4,0-1,0.1c-0.1,7.4,0.2,14.8-4,21.4c0.6-3.1,1.2-6.3,1.8-9.4c-0.4-0.1-0.7-0.2-1.1-0.3
		c-1.1,4-2.1,7.9-3.3,11.9c-1.6,4.9-3.5,9.6-7.8,12.8c-1.2,0.9-2.7,1.5-4.2,1.8c2-2.3,4-4.6,6-6.9c-0.2-0.3-0.2-0.2-0.4-0.5
		c-4.4,3-8.7,6-13.4,9.3c20.4,0.9,40.8,1.7,61.1,2.6c0,0.2,0,0.3,0,0.5c-1,0.1-2,0.2-3,0.2c-39.4,0.5-78.7,0.9-118.1,1.4
		c-1.5,0-3-0.2-4.5,0.1c-0.9,0.2-2.2,1.1-2.3,1.8c-2.1,11.8-13.4,19-27.3,17.2c-1.7-0.2-3.8,0.2-5.2,1.2c-6,4.5-12.6,5.6-19.9,5
		c-2.6-0.2-5.3,0.8-7.9,0.9c-1.9,0.1-4.2,0.1-5.6-0.8c-2.1-1.5-3.5-1.2-5.7-0.4c-7.2,2.6-14.1,1.3-19.7-3.5
		c-2.9-2.5-5.6-3.4-9.1-3.5c-4.9-0.2-9.1-2-12.5-5.6c-0.9-0.9-2-1.9-2.2-3c-1-4.2-3.8-4.4-7.4-4.4c-18.3,0.2-36.6,0.1-54.9,0.1
		c-2.3,0-3.5,0.4-4.3,3c-1.9,6.7-7.8,10.9-14.8,11.1c-2.1,0.1-4.3-0.3-6.4-0.2c-1.2,0-2.6,0.3-3.5,1c-6.1,5.3-13.1,6.5-20.9,5.6
		c-1.6-0.2-3.3,0-4.8,0.6c-2.7,1-5.1,1.1-7.8-0.2c-1.3-0.6-2.8-0.8-4.2-1c-5.6-0.6-11.6,0-16.6-1.9c-6.2-2.3-12-3.8-18.7-3.7
		c-9.9,0.1-16.2-6.5-18.4-17.1c-0.5-2.5-1.5-3-3.7-3c-14.4-0.1-28.7-0.2-43.1-0.4c-27.7-0.4-55.3-0.9-83-1.5
		c-4.7-0.1-9.5-0.5-14.2-1c28.4-0.7,56.9-1.3,85.3-2c0.1-0.4,0.3-0.8,0.4-1.3c-10.8-1.4-17-7.8-19.8-17.9c-0.6,0.1-0.4,0.1-1,0.1
		l0,11.7c-4.2-4.3-3.7-9.6-4-14.7c-2.1,6.3-0.6,12,3.1,17.2c-3.1-1.7-5-6.1-4.6-12.7c0.3-4.8,1.3-9.6,1.4-14.5
		c-0.9,2.8-1.9,5.6-2.6,7.7c-0.3-1.6-0.8-3.7-1.2-5.8c-0.1-0.6,0.4-1.2,0.5-1.8c1.6-6.1,3.3-12.3,4.9-18.4c0.1-0.4-0.1-0.8-0.1-1.3
		c-3.2,6.2-6.3,12.3-9.3,18.4c-0.4-0.2-0.2-0.1-0.6-0.3l7.9-19.1c-0.5-0.3-0.4-0.2-0.8-0.6c-3.7,3.7-7.3,7.6-12.1,7.9
		c3.1-2.7,7.2-5.4,10.1-9.1c2.9-3.7,4.6-8.4,6.4-12.9c-5.2,6.6-8.2,15.4-17.8,17.9c2.1-1.7,4.2-3.2,6-5c1.9-2,3.6-4.2,5.2-6.4
		c1.5-2.1,2.8-4.5,3.8-7.1c-6.2,5.6-12.2,11.2-21.5,9.3c7.3-1.5,13.3-4.9,17.2-10.9c-5.9-1-11.8-2-17.8-3.1c0-0.3,0-0.6,0.1-0.9
		c10.6-0.7,17.4-7.9,24.4-14.6c5.2-5,10-10.3,15.4-15.1c-4.6,8.7-11.9,15-19,21.5c0.4,0.5,0.2,0.3,0.6,0.7c3.8-2.7,7.6-5.3,11.3-8
		c0.3,0.3,0.2,0.2,0.5,0.6C84.7,414,82.1,417.1,79.4,420.1c-0.8,0.7-1.7,1.3-2.6,2c-3.8,1.6-7.5,3.2-11.3,4.8
		c4.3-0.3,8.2-1.6,11.2-4.8C77.6,421.4,78.5,420.8,79.4,420.1z M202.4,446.1c-0.8,1-1.5,2.1-2.3,3.1c0.2,0.1,0.4,0.3,0.6,0.4
		c0.7-1,1.4-2.1,2.1-3.1c0.9-1,1.8-2.1,2.6-3.1c4.6-4.4,9.3-8.5,15.2-10.7c1.2,4.3,2.3,8.3,3.4,12.3c0.2,0.6,0.2,1.5-0.1,2
		c-2.4,3.6-4.9,7.1-7.4,10.8c-1.1-0.5-2.4-1.2-3.8-1.7c-5.8-2.1-11.2-1.6-16,2.8c-4.7,4.4-6,9.9-5.5,16c0.6,8.2,0.2,16.2-3,24.1
		c-2.5,5.9-2.8,12.2-0.2,18.4c1.3,3,3.5,4.9,7.3,6c-1.4-3.2-3.6-5.5-2.6-9.2c5.1,5.4,11,7,17.9,5.6c-0.3-1.2-0.6-2.1-0.6-2.9
		c0.2-3.8,0.3-7.6,0.8-11.3c0.2-1,1.8-2.6,2.7-2.6c1.2,0.1,2.7,1.3,3.3,2.4c0.8,1.5,1.3,3.5,1.2,5.2c-0.2,4.2-0.8,8.4-1.2,12.6
		c-0.1,1.5,0.2,3,0.3,4.5c0.4,0,0.7-0.1,1.1-0.1c0.1-0.6,0.2-1.2,0.2-1.8c0.8-11.7-0.4-23.3-1.8-35c-0.6-5-1.4-10,0.2-15.1
		c0.5-1.7-0.3-3.8-0.5-5.8c-0.5-0.3-0.9-0.5-1.4-0.8c-0.6,1-1,2.1-1.8,3c-4.6,5.4-5.4,12.1-6.5,18.7l0,0c0.3-5,0.5-10.1,0.8-15
		c-4.5,2.5-5.8,6.8-6.2,11.6c-0.3-0.1-0.5-0.2-0.8-0.2c0.7-3.5,1.4-6.9,2.1-10.4c-0.1-0.1-0.3-0.1-0.4-0.2c-1.4,2.6-2.8,5.3-4.1,7.9
		c-0.3-0.1-0.6-0.3-0.9-0.4c2.7-6.8,5.3-13.7,8.2-20.3c0.8-1.9,2.8-3.6,4.6-4.6c3.4-1.8,6.4,0.5,6.1,4.3c-0.1,1.5,0.2,3,0.3,4.5
		c0.3,0,0.6,0,0.8,0c0-7.8,2.7-14.4,8.5-20.4c1.1,2.8,4.2,4.8,2.3,7.7c-1.8,2.7-4.4,4.9-6.6,7.3c-0.2,0.2-0.6,0.1-0.9,0.2
		c-0.4-0.8-0.7-1.5-1.4-2.9c0.2,3.8,0.3,6.7,0.5,10c0.7-1.8,1.3-3.4,1.9-4.9c0.4,1.2,0.3,2.1,0.2,3c-1.8,15.1-2,30.1,1.4,45.1
		c0.4,1.9,1.4,3.7,2.1,5.6c0.3-0.1,0.6-0.2,1-0.3c0-2.7,0-5.5,0-8.2c0-1.8-0.3-3.8,0.4-5.3c0.6-1.3,2.3-2.8,3.6-2.9
		c1-0.1,2.8,1.5,3.3,2.8c0.9,2.3,1.1,4.9,1.7,7.4c0.2,1,0.5,2,0.8,3.1c0.4,0,0.7,0.1,1.1,0.1c0.9-2.1,1.8-4.3,2.6-6.4
		c0.6,2.8,0.7,5.6,0.6,8.4c-0.2,3.3,2.5,3.1,4.4,4c1.8,0.9,3.3,0.2,4.3-1.5c2.4-4.1,4.2-8.2,1.3-12.9c-0.3-0.5-0.6-1.2-0.6-1.8
		c0.4-7.5-4-13.3-6.8-19.6c-0.2-0.4-0.7-0.6-1.1-0.9c-0.2,0.1-0.5,0.2-0.7,0.3c0.4,2.2,0.7,4.3,1.3,7.3c-3.2-7.6-6.3-14.3-8.7-21.3
		c-0.9-2.7-2.4-4.1-4.6-5.2c-1.2-0.5-2.6-0.7-3.5-1.4c-0.6-0.5-1.2-2.3-0.8-2.7c2.6-3.1,5.5-6,8.3-8.9c14,15.3,19.4,19,32,22
		c16.1,3.8,33.9,0,37-5.6c-10.1,5.1-20.4,5.6-30.8,4.1c-13.4-2-24.7-7.7-27.2-14.1c1.9,1.1,3.3,1.8,4.5,2.7c6.5,5.1,14,8,22.1,9.1
		c1.6,0.2,3.2-0.3,4.9-0.5c0-0.3,0-0.6,0-1c-0.6-0.3-1.2-0.5-1.8-0.8c0.6-1,1.1-1.8,1.7-2.7c-1.5-0.6-2.6-1.2-4.2-1.9
		c1.2-0.8,1.8-1.2,2.2-1.5c-1.2-2.2-2.4-4.2-3.2-5.6c0.3-2.3,0.7-3.9,0.6-5.5c-0.4-4.4-4.2-8.3-2.1-13.3c0.5-1.1-0.7-3-1.4-4.4
		c-0.5-1.3-1.4-2.4-2.1-3.6c-6-12.2-2.1-23.9,9.9-28.9c5.4-2.2,11.1-3.1,17.8-2.7c-2.6,0.4-4.4,0.6-6.1,0.9
		c-6.9,1.3-13,3.9-17.5,9.6c-4.2,5.3-4.4,13.3-0.6,18.8c1.7,2.5,3.3,2.8,5.8,1.2c3.1-4.4,7.2-6.6,12.7-6.4c5.6,0.2,9.2,3.3,12.3,8.4
		c0.1-1.1,0.2-1.5,0.1-1.7c-3.3-8.3-14.9-11.7-21.8-6c-1.6,1.3-2.1,3.8-3.2,5.8c-3.1-1.4-5-3.7-5.1-7.3c-0.3-9.2,4.4-15.9,13.2-18.8
		c6.5-2.1,12.9-1.4,19.1,0.7c7.4,2.5,14.7,2.5,22.3,1.5c5-0.6,10.6-0.5,15.3,1.1c9.7,3.1,13.5,11.2,10.8,20.9
		c-0.2,0.6-0.2,1.3-0.4,2.4c4.7-5.1,4.2-12.7,0.3-18.6c-3.9-5.9-9.8-8.2-16.2-9.9c6.2,0,11.8,1.9,16.5,5.8
		c6.6,5.4,8.1,11.8,4.7,19.7c-0.6,1.5-1.6,2.8-2.1,4.3c-1,2.8-1.7,5.6-2.5,8.4c-1.1,3.4-1.8,7-3.4,10.2c-0.8,1.6-2.8,2.4-1.1,4.7
		c0.3,0.4-0.5,2.3-1.2,3c-1.1,1-2.7,1.6-4.1,2.4c0.6,2.5-2.4,5.9-5.9,6.3c0.2,3.6,2.9,5.8,6.7,4.7c5.5-1.5,10.8-3.5,16.2-5.6
		c2.6-1,4.9-2.5,7.4-3.8c0.2,0.4,0.4,0.9,0.6,1.3c-6.8,6.5-14.9,10.6-24.5,11.8c-9.5,1.1-18.6-0.6-27.6-3.6
		c19.4,9.4,37.6,7.9,54.6-6.8c4.5,5.6,7.5,11.4,5.8,18.5c-0.9,3.6-2.2,7.1-3.8,10.4c-1.2,2.6-3.9,4.6-4.8,7.2c-2,6-1.4,12,2.3,17.3
		c0.6,0.9,1.9,1.3,3.4,2.4c-1.4-3.5-2.5-6.2-3.6-8.9c2.3,4.7,3.3,5.8,5.8,5.5c-0.3-1.3-0.6-2.6-1-4.6c1.4,1.9,2,3.6,3.2,4.4
		c0.7,0.5,2.3-0.3,3.4-0.5c0.6-2.7,0.9-5.6,1.8-8.5c1.9-5.9,5.4-6.7,9.6-2.3c5.1-9.8,3.4-20.4,4.6-29.6c-1.3-0.5-2.1-0.8-2.9-1.1
		c-0.8-1.5-1.7-3-2.5-4.6c-1.7-2.8-0.5-5,0.8-6.3c1.7-0.4,2.6-0.6,3.6-0.8c0.2,1.4,0.5,3,0.7,4.5c0.2,0,0.3,0,0.5-0.1
		c-0.2-2.6-0.5-5.2-0.7-7.8c3,2.8,4.1,6.4,4.2,10.3c0,4.9,0,9.8-0.4,14.6c-0.7,8.4-1.8,16.8-2.7,25.2c-1.9,6.5-2.5,13-1.3,19.5
		c0.4,0,0.8,0,1.2,0c0-6.5,0-13.1,0-19.6c1.5-2.1,2.7-5.4,5.9-4.1c2.9,1.1,2.4,4.4,2.5,7c0,1.2,0,2.3,0,4.2c1.4-1.3,2.1-2,2.8-2.6
		c2.3,1.1,2.3,1.1,6-3.4c-0.7,2.2-1.2,3.8-1.6,5.4c0.2,0.1,0.4,0.2,0.5,0.4c1.4-1.3,2.8-2.6,4.5-4.2c-0.5,2-0.8,3.5-1.3,5.5
		c1.4-0.5,2.3-0.8,3.4-1.1c-0.9,1.5-1.6,2.6-2.3,3.7c0.2,0.3,0.5,0.6,0.7,1c2.8-1.6,6.4-2.5,8-4.8c1.7-2.3,2-6,1.9-9.1
		c-0.2-4.1-1.3-8.2-2.1-12.2c-1.3-5.9-2.6-11.8-1.3-17.9c1.1-5,0.5-10-1.7-14.6c-2.1-4.4-5.6-7-10.4-7.4c-4.7-0.4-8.3,2-12.2,5.2
		c2,0,3.8-0.5,4.3,0.1c4.7,4.9,9.1,10.1,9,17.6c-1-2.5-2-4.9-3-7.3c-0.3,0.1-0.7,0.2-1,0.4c1.6,6.1,4.8,12,2.8,19.5
		c-0.9-2-1.5-3.3-2.3-5c-0.3,1.3-2.5-5.6-3.7-9.8l0.1,0.1c-0.3-0.9-0.5-1.8-0.8-2.7c-0.2,0.1-0.4,0.1-0.5,0.2c0,0.5,0,1,0,1.5l0,0
		c-3.7-1.6-3.4-5.2-4.1-8.3c0-0.2,1.1-0.6,1.7-0.9c-2.3-2.7-4.6-5.4-7-8.1c-1.1-1.8-2.2-3.6-3.4-5.3c-2.8-4.2-5.6-8.4-8.4-12.6
		c-0.4-0.6-0.9-1.3-0.8-1.9c0.4-2.6,0.9-5.1,1.5-8.2c10.6,4.9,16.9,12.9,20.3,23.5c0.2-0.6,0.3-1,0.2-1.4
		c-2.4-10.4-8.7-17.7-18.1-22.5c-1.9-1-2.8-2.1-2.4-4.2c0.2-1,0.2-2.1,0.1-3.2c-0.1-2.4,1.1-3.1,3.2-2.2c4.4,1.8,8.8,3.7,13.1,5.5
		c3.5,3,6.9,6,10.4,9c0.2-0.3,0.4-0.5,0.7-0.8c-3.5-2.9-7-5.8-10.6-8.7c-4.7-2.1-9.3-4.4-14.2-6.1c-1.8-0.7-3-1.2-3.2-3.3
		c-1.1-12.2-6.9-22.4-14.1-32c-0.7-0.9-1.8-1.5-2.6-2.2c-2.1-2-5-3.6-6.2-6.1c-5.4-11.8-10.4-23.7-15.5-35.7
		c-0.5-1.2-0.8-2.5-1.4-4.6c-0.6,2.3-0.9,3.5-1.2,4.7c-0.2,0-0.5,0-0.7,0c-1-4.4-2-8.8-3.1-14c-1.1,1.6-1.6,2.2-2,2.8
		c-3.9-10.7-3.1-22.7-9.8-32.9c-0.5,0.9-0.8,1.6-1.2,2.4c-0.3-0.1-0.6-0.3-0.9-0.4c-1.3-6.7-2.6-13.3-4-20c-0.3,0-0.6,0-0.9,0
		c-0.4,2.1-0.9,4.3-1.3,6.4c-0.2,0-0.4-0.1-0.7-0.1c-0.3-2.2-0.5-4.4-0.8-6.5c-4.4,7.4-5,15.3-4.6,23.9c-0.7-0.8-1.1-1.2-1.8-2.1
		c0.7,9.7,4.7,17.9,7.9,26.2c-0.4,0.2-0.8,0.4-1.2,0.5c-2.8-5.6-5.6-11.2-8.6-17c-0.3,0.8-0.6,1.3-1.3,2.9c-0.8-2.4-1.3-4.1-1.9-5.7
		c-0.3-0.9-0.7-1.7-1.2-2.5c-0.6-0.9-1.7-1.7-1.8-2.6c-0.3-1.9,0.1-3.8,0-5.7c-0.1-1.4-0.5-2.7-0.7-4c-0.3,0-0.7-0.1-1-0.1
		c-1,1.5-1.9,3.1-2.9,4.6c-0.2,0-0.4,0-0.6-0.1c0-2.9,0-5.8,0-9.3c-3.9,2.3-4.7,2-4.6-1.7c0.2-8-1.2-15.7-3.4-23.3
		c-0.2-0.6-0.5-1.1-0.8-1.7c0,5,0.3,9.9-0.1,14.8c-0.4,4.8-1.4,9.5-2.1,14.3c-0.4,0-0.8-0.1-1.2-0.1c-0.5-2.7-1-5.3-1.5-8
		c-0.2,0-0.4,0-0.6,0c-0.7,6.2-1.3,12.4-2,18.6c-0.3,0-0.5,0-0.8-0.1c-0.3-1-0.7-2-1-3.1c-2.4,5.1-1.9,11.1-5.9,16.4
		c0.3-3.4,0.5-6,0.7-8.5c-0.3,0-0.6-0.1-0.9-0.1c-0.7,2.2-1.2,4.4-2,6.5c-3,7.8-5.8,15.7-12.6,21.2c-2.7,2.2-5.4,4.5-8.1,6.8
		c-0.6,0.5-1.2,1.2-1.8,1.8c0.2,0.2,0.3,0.5,0.5,0.7c3-1,5.9-2.1,8.9-3.1c0,0,0,0,0,0c-0.9,0.7-1.8,1.5-2.7,2.2
		c-4.7,3.5-9.3,7-14,10.5c-0.8,0.6-1.3,1.5-2,2.2c0.2,0.2,0.3,0.4,0.5,0.6c3.7-2.3,7.4-4.6,11.1-6.9c0.2,0.2,0.3,0.5,0.5,0.7
		c-3.2,3.9-8.3,6.4-10,11.9c4.7-2.1,8.9-3.9,13.2-5.8c0.2,0.4,0.4,0.7,0.6,1.1c-3.9,3.5-7.9,6.9-11.8,10.4c-1,0.9-1.7,2-2.6,3.1
		c-4.1,4.7-8.4,1.3-12.6,0.2c-0.4-0.1-0.7-0.9-1.1-1.3c-0.6-0.8-1.2-1.7-2-2.3c-3-1.9-6.1-3.6-9.2-5.4c-1.4-0.9-2.8-1.9-4.7-3.2
		c-0.1,1.5-0.3,2.1-0.2,2.7c0.8,5.4,1.5,10.7,2.6,16.1c1.7,8.3,5.5,15.3,12.3,20.7c1.9,1.5,3.1,1.6,4.5-0.7
		c2.5-4.2,5.1-8.4,8.1-12.2c2.9-3.7,3.2-7.6,2.5-12c-1,0.3-1.9,0.6-2.7,0.9c-0.1-0.2-0.2-0.3-0.2-0.5c0.9-1,1.8-2.1,2.7-3.1
		c1.9-1.3,3.9-2.5,5.8-3.8c0.1,0.1,0.2,0.2,0.3,0.3c-0.5,0.7-1,1.3-1.5,2c0.1,0.1,0.2,0.3,0.4,0.4c2.6-1.6,5.1-3.2,7.7-4.8
		c0.3,0.3,0.7,0.7,1,1c-4,5.7-7.7,11.8-12.2,17.2c-8.8,10.6-15.9,21.8-17.6,35.8c-0.1,0.6-0.4,1.1-0.7,1.7c-0.3-0.1-0.6-0.1-0.8-0.2
		c0.6-3.4,1.1-6.9,1.7-10.3c-1.2,2.5-2.2,5.2-2.4,7.8c-0.3,2.9-1.7,3.9-4.3,4.5c-8.5,2.2-16,6.1-22.5,12.1c-0.9,0.9-1.7,2-2.5,3
		c0.2,0.2,0.4,0.4,0.5,0.6c7.6-7.7,16.7-12.5,27.8-14.9c0,2.5-0.1,4.5,0,6.4c0.2,2.7-0.8,4.2-3.2,5.8c-4.6,3.1-8.7,7-12.9,10.5
		C204.1,444,203.2,445.1,202.4,446.1z M173.6,396.5c0.1,0,0.3,0,0.4,0.1c-1.2,6.3-2.5,12.7-3.7,19c7.9-20.1,5.7-40.5,2.2-60.9
		c12.4,30,14.6,60.7,5.6,92.1c0.6-0.4,0.9-0.8,1.1-1.3c1.1-3.2,2.4-6.4,3.3-9.6c5.3-18.4,7.3-37.1,1.9-55.7
		c-3.9-13.6-9.1-26.8-14.2-40c-1.8-4.6-4.5-8.9-7.2-13.1c-5.6-8.6-9.4-17.9-10.9-28c-0.4-2.5-0.7-5-1-7.5c-0.3,0-0.7,0.1-1,0.1
		c0.5,7.4,1,14.8,1.6,22.2c-0.3,0-0.6,0-0.9,0.1c-0.8-8.2-1.5-16.4-2.2-23.9c-2.5,10.4-0.2,21.6,1,32.6c0.6,5.3,3.6,10.4,5.6,15.6
		c6,15.4,8.8,31.3,7.2,47.8c-0.5,4.8-1.4,9.5-2.1,14.3c7.9-17.8,8.9-36,3.4-54.6c4.6,8.5,7.4,17.5,8.4,27c1.1,9.9,0.5,19.7-1.4,29.5
		C170.4,402.9,172.6,398.4,173.6,396.5z M482.3,336.9c-0.3,0-0.7-0.1-1-0.1c-0.4,0.8-0.9,1.6-1.1,2.4c-1.1,4.4-2.4,8.8-3.1,13.3
		c-1.4,8.9-0.7,17.6,4.6,25.1c3.8,5.3,8.2,10.4,12.9,14.9c12.2,11.6,23.2,24,29.3,40c0.1,0.3,0.4,0.6,0.6,0.9
		c-0.7-18.8-11.4-32.7-22.8-46.3c0.3-0.3,0.7-0.6,1-0.8c6.3,6.2,12.6,12.5,18.8,18.7c0.3-0.2,0.5-0.5,0.8-0.7
		c-6.5-12.4-16.8-22.3-23.9-34.4c7.4,8.3,15.5,15.4,26.5,18.1c-7.2-8.7-15.4-16.5-21.8-25.5c-6.4-9.1-10.9-19.5-16.4-29.4
		c0.2,3.3,0.2,6.8,0.5,10.2c0.3,3.4,0.8,6.8,1.4,10.1c0.6,3.3,1.6,6.5,2.4,9.8C485.5,355.3,483.9,346.1,482.3,336.9z M264.7,208.5
		c-7.6-6.7-13.5-2.2-19.3,1.2c-0.5,1.2-1.3,2.5-2.3,2.9c-4.3,1.5-4.9,2.4-3.8,6.5c-1.7,1.1-3.4,2.1-5.7,3.6c1.8,0.5,2.7,0.8,4,1.1
		c-1.7,0.9-2.9,1.6-4.5,2.5c2.7,0.2,4.9,0.3,7.7,0.5c-2.5,2.5-4.5,4.5-6.3,6.4c1.3,0,2.9,0.2,4.4-0.1c3.2-0.6,5,1.8,7.2,3.1
		c4.5,2.7,9.2,5.3,13.3,8.6c3.2,2.6,5.8,6.1,9.1,9.7c0.2-1.7,0.4-2.9,0.5-4.1c2.4,1,3.7-0.4,4.3-3.4c1.2-1.1,2.1-1.6,2.4-2.2
		c4.7-10.8,3.7-21.3-1.5-31.6c-0.4-0.7-1.1-2-1.4-1.9c-2.5,0.7-3.1-1.7-4.6-2.7c-1.3-1-2.6-2-4.6-3.4
		C263.9,206.4,264.1,206.9,264.7,208.5z M349.1,257.5c-1.1,0.4-1.7,0.6-3.1,1c1.1-1.6,1.6-2.6,2.4-3.4c4.6-4.9,9.2-9.7,13.7-14.6
		c0.8-0.9,0.9-2.3,1.3-3.5c0.3-1.1,0.5-2.2,0.9-3.8c-0.3-0.7-0.8-2.1-1.4-3.6c0.6-0.4,1.3-0.8,1.7-1c-0.7-1.6-1.4-3-2.2-4.7
		c-1.5-0.6-3.5-1.4-5.7-2.3c0.5-0.7,1-1.3,1.5-2.1c-1.2,0.1-2.1,0.2-3.8,0.4c1.4-1,2.1-1.5,2.8-2.1c-0.1-0.2-0.1-0.3-0.2-0.5
		c-1.9,0.6-3.9,1.3-6.4,2.1c0.8-1.1,1.3-1.8,1.8-2.5c-0.1-0.2-0.3-0.4-0.4-0.6c-3.3,1.7-6.5,3.4-9.8,5.1c-0.1-0.5-0.2-1.1-0.3-1.9
		c-5.2,3.4-8,8.5-11.2,13.3c0.3-1.4,0.6-2.8,1-5.1c-0.8,1.1-1,1.3-1.2,1.5c-4.6,8.8-2.8,17.8-0.4,26.7c0.3,1.1,1.9,1.8,2.9,2.7
		c1.2,1.6,0.8,4.9,4.6,3.4c0.4,1.2,0.8,2.2,0.8,2.4C345,266.7,346.4,261.7,349.1,257.5z M471.4,339.8c-0.3-0.3-0.7-0.6-1-0.9
		c-1.6,1.4-3.3,2.7-4.7,4.3c-7,8-11.3,17.5-13.7,27.7c-4.4,18.5-3.1,36.4,7.9,52.6c5.1,7.5,11,14.4,16.3,21.2
		c-0.3-1-0.5-2.7-1.1-4.3c-2.8-7.4-5.5-15-8.7-22.3c-10.4-24.3-10.3-48.3,1.6-72.1C469.1,344,470.3,341.9,471.4,339.8z M443.7,517.6
		c6.1-2.5,10.3-8.1,9.7-14.4c-0.8-8.7-2.6-17.4-4.4-26c-0.5-2.4-2.3-4.8-4-6.8c-2.6-3.1-6.7-3.8-10.2-2.2c2.2,1.8,1.8,3.5,0,5.4
		c-7.4,7.9-5.4,17.7-5.5,27.4c4.4-2.7,6.3-2,7.9,2.6c0.6,1.8,0.9,3.7,1.4,6.1c1.1-2.2,2-4,3-6.1c0.4,1.3,0.7,2.1,1.3,3.7
		c1.3-1.9,2.2-3.2,3.1-4.5c1.8,2,1.8,2,5.1-5.6C453,505.6,449.1,511.6,443.7,517.6z M465,261.9c-7.4-13.7-19.1-22.4-33.1-28.6
		c6.2,1.3,12.4,2.5,18.7,3.8c0.1-0.4,0.2-0.8,0.3-1.2c-12-4.8-24.1-8.9-36.6-12c-0.2,0.5-0.5,1-0.7,1.4c2.9,1.9,5.9,3.8,9.2,5.9
		c-1.3-0.1-2.3-0.4-3.1-0.1c-0.5,0.1-0.7,1.1-1,1.7c3.6,1.6,2.5,6,5,8.4c1.2,1.2,2.2,2.6,2.9,4.1c3,6.3,7.6,11.5,12.7,16.1
		c8,7.3,11.7,16.2,11.9,26.8c0.2,9.2-1.1,18.2-4.1,27c-0.3,0.9-0.5,1.9-0.7,2.8c0.3,0.1,0.6,0.3,1,0.4c1-1.8,2.2-3.5,3-5.3
		c8.1-20.6,5.3-46.6-16.3-62.8c-2-1.5-3.8-3.4-5.7-5.1c0.2-0.3,0.5-0.6,0.7-0.9c7.8,2.6,14.7,7,21.2,12
		c-6.1-7.6-13.2-13.9-21.8-18.5C443.4,241.5,455.1,250.3,465,261.9z M414.4,398.4c0.5,0,1,0.1,1.5,0.1c0.4-1.5,0.8-3,1.1-4.5
		c3.2-16,8.3-31.3,18.2-44.5c5.8-7.7,12.3-14.9,18.2-22.5c8.8-11.4,14.1-24.2,13.3-39c-0.2-3.6-1.2-7.1-1.8-10.6
		c-0.4,0.1-0.7,0.1-1.1,0.2c0,1,0,2.1,0,3.1c0,16-4.9,30.3-15.5,42.5c-2.6,3-5.1,5.9-7.7,8.9c-13,15.3-21.5,32.8-25,52.7
		C414.9,389.2,414.8,393.8,414.4,398.4z M183.2,470.3c0-0.3,0-0.7-0.1-1c-2-0.1-4-0.7-5.9-0.3c-6.2,1.1-9.6,5.5-11.9,10.9
		c-3.7,8.6-3.5,17.7-2.5,26.7c0.3,2.7,1.8,5.4,3.2,7.9c1,1.7,2.9,3,4.5,4.4c0.1-0.2,0.2-0.3,0.3-0.5c-1.1-2.6-2.3-5.2-3.4-7.8
		c0.2-0.1,0.5-0.3,0.7-0.4c2.5,2.3,4.9,5,9,4.8c-0.3-1.8-0.8-3.1-0.7-4.4c0.2-4,0.1-8.1,1.1-11.9c1-3.8,4-4.7,7.6-3.3
		c-0.4-8.1-2.1-15.1-11.5-17.4C175,472.9,180,472.6,183.2,470.3z M473.6,488.8c-0.1-0.5-0.1-1-0.2-1.5c-2.9-14-10.4-25.4-20-35.6
		c-3.6-3.9-7.2-7.8-10.5-12c-4.7-6-7.9-12.8-10.1-20.1c-0.3-0.8-1.3-1.4-2-2c-0.3,0.9-0.8,1.8-0.7,2.7c0.1,1.2,0.5,2.5,0.9,3.7
		c1,3,2.1,5.9,3.2,8.9c-0.2,0.1-0.5,0.2-0.7,0.3c-1.6-3.4-3.2-6.9-4.7-10.3c-0.3,0.8-0.3,1.4-0.2,2c2.4,14.5,9.5,26.6,20.4,36.2
		C458.3,469.3,467.5,477.6,473.6,488.8z M350.5,282.4c-6.5,11.5-2.3,26.7,8.9,34.2c11.1,7.4,26.2,4.6,34.7-6.4
		c8.1-10.5,8.2-25.6,0-35c2.4,6.2,2.9,12.1,1.7,18.2c-2.1,11.3-11.4,19.7-22.5,19.9c-10.6,0.2-19.7-7.3-22-18.8
		C350.7,290.7,350.8,286.8,350.5,282.4z M219.2,271.9c-10.3,11.4-10.8,26.6-1.7,38.2c7.5,9.6,21.2,12.4,32.2,6.8
		c10.2-5.3,16.8-18.8,13.7-28.9c-0.4,1.9-0.7,3.4-1,4.9c-2.5,13.9-16.2,22.8-29.4,19.3c-10-2.7-16.9-12-17.4-23.4
		C215.3,282.8,216.8,277.2,219.2,271.9z M339.7,480.2c-1,0.7-2,1.5-3,2.2c-4.8,3.8-9.9,6.6-16.4,4.9c-2.7-0.7-5.9,0.9-8.2-1.7
		c-1.7,2.2-3.8,0-5.7,0.6c-2.2,0.7-4.3,0.5-6.8-0.5c-2.7-1.1-6.2-0.1-9.4-0.1c-2,0-4,0.1-6-0.1c-4.1-0.6-7-3.3-10-5.9
		c-1.8-1.5-4.1-2.4-6.1-3.6c4.1,8.8,10.9,14.2,19.8,15.9c5.8,1.1,11.8,1,17.7,1.9c9.4,1.3,18.2-0.9,26.5-5
		C335.7,487,338.7,484.5,339.7,480.2z M249.4,483.4c0.6,0.3,1.3,0.5,1,0.4c-0.6,1-1.9,2.3-1.7,3.1c1.3,4.1,3,8.1,4.7,12.4
		c3-2.2,4.6-0.3,5.7,1.9c1,2.1,1.4,4.4,2.2,6.6c0.4,1.2,1.1,2.3,1.7,3.4c1-0.7,1.9-1.3,3.2-2.2c0.4,0.2,1.2,0.5,2.6,1.1
		c-2.1,3.2-4,6.2-6.2,9.5c1-0.3,1.6-0.5,2.2-0.7c6.8-3.3,9.8-13.3,6.1-20.8c-0.4-0.9-0.8-1.8-1.5-2.4c-2.8-2.7-5.8-5.4-8.6-8.1
		C257.7,484.5,253.9,483,249.4,483.4z M222.2,282.5c-4,1.6-4.8,4.3-4.5,7.5c1,10.9,5.5,15.9,17.3,19.3c10,2.9,21.1-3.3,23.8-13.3
		c0.3-1.3,0.2-2.7,0-4c-0.1-0.6-1-1.4-1.7-1.6c-0.4-0.1-1.2,0.7-1.6,1.2c-0.4,0.6-0.6,1.3-1,2c-5,9.9-15.3,12.8-24.4,7
		c-5.4-3.4-7.7-8.6-8-14.8C222.2,285,222.2,283.9,222.2,282.5z M390.3,287.6c-0.7,2.2-1.2,4.2-2,6c-2.6,6.1-7.5,9.3-13.9,10.4
		c-6.4,1.2-10.8-1.9-14.5-6.7c-1.1-1.4-1.9-3.5-4.2-2.1c-2.5,1.5-1.4,3.4-0.4,5.3c0.2,0.5,0.5,0.9,0.8,1.4
		c4.7,7.1,13.4,10.4,21.8,8.3c8.5-2.2,15.7-10.1,16.3-18.1C394.4,289.5,392.9,288.2,390.3,287.6z M273.7,422.6
		c1.2-0.8,2.4-1.6,3.6-2.5c6.2-4.8,12.9-6.6,20.5-3.4c1.4,0.6,3.1,0.9,4.6,1c0.9,0.1,1.8-0.5,2.7-0.8c-0.6-0.6-1.2-1.3-1.9-1.9
		c-2-1.6-5-2.9-5.8-4.9c-0.8-2.1-2-2.9-3.6-3.4c-5.8-2-15.3,0.7-19.3,5.4C272.1,415.3,271.6,419.2,273.7,422.6z M411.6,218.9
		c-0.1,0.5-0.3,1.1-0.4,1.6c10.6,5.1,22.2,6.5,34.6,8.6c-3.7-1.9-6.6-3.6-9.6-4.9c-2.4-1.1-5.1-1.6-7.6-2.5c-2-0.7-4-1.6-6.1-2.3
		c0.1-0.1,0.1-0.3,0.2-0.4c4.2,0.2,8.4,0.4,12.6,0.7c-12.5-2.6-24.4-6.6-35.9-12c-0.2,0.4-0.4,0.8-0.6,1.3
		c6.2,3.6,12.5,7.2,18.7,10.8c-0.1,0.2-0.2,0.3-0.3,0.5C415.4,219.7,413.5,219.3,411.6,218.9z M387.7,237.9c14,12.5,23.8,27,26,46.7
		c0.4-1,0.5-1.1,0.5-1.2c0-1,0-1.9-0.1-2.9c-1.1-16.7-6.6-31.5-19.3-43.1c-3.3-3-8.4-4.3-11.6-2.6c2.3,0.9,4.5,1.7,6.7,2.5
		c-0.1,0.2-0.1,0.4-0.2,0.6C389,237.9,388.4,237.9,387.7,237.9z M378.4,366.4c1.7-0.5,3.1-1,5.4-1.8c-4.9-2-8.9-3.8-13-5.3
		c-1.7-0.6-3.7-0.5-5.6-0.4c-0.7,0-1.7,0.8-1.9,1.4c-1.4,7.4,5.9,15.4,14.1,15.1c-2.1-4.7,1.4-5.6,4.8-6.7
		C380.8,367.9,379.7,367.2,378.4,366.4z M347.1,280.2c0.8-1.7,1.6-3.5,2.5-5.2c8.3-15.3,25.9-23,41.3-12.1c0.9,0.7,2.2,0.8,3.3,1.2
		c0.2-0.2,0.4-0.5,0.6-0.7c-0.8-1.2-1.4-2.5-2.4-3.5c-6.9-7.4-19.1-9.1-28.5-3.7C354.6,261.5,349.6,270.1,347.1,280.2z M267.2,285.4
		c-0.6,4.3-0.8,8.6-1.9,12.7c-2.3,8.4-6.2,15.9-14.1,20.4c-17,9.7-37.4,0.5-42.7-19.1c-0.3-1-0.6-2.1-0.9-3.1
		c-0.3,0-0.6,0.1-0.8,0.1c-0.1,1.1-0.4,2.3-0.1,3.3c2.2,9.8,7.1,18,16.5,22.3c11.7,5.4,23.1,3.7,32.8-4.6
		C265.8,309.1,267.5,297.5,267.2,285.4z M330.3,418.1c2.4,0,4.9,0.1,7.3,0c2.7-0.2,3.8-2,2.7-4.4c-0.5-1.2-1.6-2.3-2.7-3
		c-5.4-3.4-18.1-0.9-22.9,4.7c-0.3,0.4,0.4,2.6,1,2.8c1.7,0.5,3.5,0.6,5.3,0.6C324.1,418.6,327.2,418.3,330.3,418.1z M344.2,301
		c1.5,10.5,7.5,17.4,16.8,21.8c12.2,5.7,23.3,3,33.2-5.3c6-5,9.6-13.5,8.2-17.6c-7.3,16-14.2,22.1-26.3,23
		C359.6,324.2,350.4,314.8,344.2,301z M340,441c-0.3-0.1-0.6-0.2-0.8-0.4c-0.7,1-1.3,2.2-2.3,3c-1.2,1-2.6,2.1-4,2.2
		c-4.6,0.4-10.3-4.9-10.9-9.5c-0.5-4.4,1.1-6.9,6.2-9.2c5.7-2.6,10.2-2.2,13.5,1.3c0.8,0.9,1.7,1.8,2.5,2.6c-1.9-3.9-4-7.8-8.9-7.7
		c-5.7,0.2-10.5,2.6-13.9,7.3c-2.6,3.7-2.4,8.5,0.5,11.8c1.8,2,3.8,3.8,5.9,5.3c2.4,1.8,5.3,2.8,8.1,1.2
		C339,447.3,339.6,444.1,340,441z M364.6,493.8c1.2-3.6,2.3-7.1,3.5-11c-11.5,1-19.5,17.4-14.6,26.2
		C353.1,499.4,357.1,493.6,364.6,493.8z M463.6,374.4c-1.8,11.7-0.1,22.9,5.1,33.5c0.3,0.7,0.7,1.4,1.2,1.8c0.6,0.5,1.6,1,2.2,0.8
		c0.5-0.2,1.1-1.3,1-2c-0.3-1.9-0.5-3.9-1.4-5.5C467.1,394.1,463.9,384.7,463.6,374.4z M245.1,274.8c-2.7,0-4,1.5-4,4.2
		c0.1,3,2.3,5.3,5.2,5.3c2.6-0.1,4.4-1.8,4.4-4.4C250.8,276.8,248.5,274.8,245.1,274.8z M383.4,280.4c0-2.8-2.2-4.7-5.3-4.7
		c-2.4,0.1-3.9,1.1-3.9,3.6c0,2.9,2.2,5.1,4.9,5.2C381.7,284.5,383.4,282.8,383.4,280.4z M299.4,433.2c-2.3,7.8-7.7,11.1-15.9,10.7
		c3.1,3.8,6.4,4.2,10.2,1.9C298.3,443,301.2,437.3,299.4,433.2z M360.1,280.2c-2.8,0-4.6,1.7-4.6,4.5c0,2.4,1.7,4,4.3,4
		c2.6,0,4.6-1.8,4.7-4.2C364.6,282.1,362.7,280.2,360.1,280.2z M322.9,423.6c-0.1-0.5-0.2-0.9-0.3-1.4c-7.6,3-15.3,1.7-23.2,0.9
		c1.7,1.5,3.5,3,5.5,3.3c3.1,0.4,6.4,0.4,9.5-0.1C317.3,425.9,320.1,424.6,322.9,423.6z M231.7,283.1c0-2.5-1.7-4.2-4.2-4.2
		c-2.8,0-4.7,1.7-4.7,4c0.1,2.3,2.2,4.4,4.6,4.3C229.9,287.2,231.7,285.4,231.7,283.1z M156.2,440.6c-0.2,3.3-0.2,6.5-0.5,9.8
		c-0.6,7.5-5.1,13.6-7.9,20.3c-0.5,1.3-1,2.5-1.5,3.8C154.9,464.7,157.6,453.3,156.2,440.6z M351.5,496.2c-3.5,1.9-5.4,4.3-5.1,7.9
		c0.3,2.6,1.2,4.8,4.2,6.2C350.9,505.4,351.2,501.1,351.5,496.2z M430.7,520.8c4.8-4.1,5.5-15.7,1.6-18.2c-2.4,2.7-3.4,7.6-2.2,10.9
		c0.8-2.9,1.6-5.7,2.4-8.6c0.5,0.1,0.9,0.2,1.4,0.3c-0.4,3.5-0.7,7-1.3,10.5c-0.2,0.9-1.5,1.5-2.8,2.7
		C429.9,518.6,430.3,519.5,430.7,520.8z M278.9,450.5c2.6,6.3,13.3,11.9,19.9,10c-3.6-1.3-7.2-2.2-10.5-3.8
		C284.9,455,282,452.6,278.9,450.5z M357.3,509.9c1.4-4.3,3-8.7,4.5-13.3C357,497,354.7,505.1,357.3,509.9z M282.5,449
		c-2.7-4-5.3-8-9.3-10.9C274.9,443,276.8,447.6,282.5,449z M348.3,515.5c-1.2-4.3-2.4-8.6-3.6-12.6C342.3,507.1,344,513,348.3,515.5
		z M385.5,505.1c-4.2,2.8-5.5,9.9-2.9,13.6C383.6,514.1,384.5,509.9,385.5,505.1z M400.4,508.6c-0.4,0-0.8-0.1-1.2-0.1
		c-0.7,4.3-1.3,8.5-2,12.8c0.3,0,0.6,0.1,0.9,0.1C400.4,516.9,401.5,511,400.4,508.6z M315,460.9c6.9,0.6,13.4-1,19.1-5.2
		C327.7,457.4,321.3,459.2,315,460.9z M201.3,316.7c0.3-3.4,1.5-6.8,0.6-10.9C199.7,309.6,199.5,314.1,201.3,316.7z M181.3,500.4
		c0,4.7,0,8.3,0,11.9c0.3,0,0.6,0,0.9,0c0-4.8,0-9.6,0-14.4c-0.4-0.1-0.9-0.2-1.3-0.3c-0.8,2-1.5,3.9-2.3,5.9
		c0.3,0.1,0.6,0.3,0.9,0.4C179.9,502.9,180.4,502.1,181.3,500.4z M213.7,517.9c0-3.6,0-7.2,0-10.8
		C211.6,510.8,211.6,514.4,213.7,517.9z M229.2,514.4c0.2-3.1,0.4-6.2,0.6-9.9C226.8,506.6,226.6,510.1,229.2,514.4z"/>
	<path d="M154.7,225.6c-0.4,0.3-0.8,0.7-1.2,1c-3.2,1.2-6.4,2.4-9.6,3.5c-0.1-0.2-0.2-0.4-0.3-0.7
		C147.4,228.1,151.1,226.9,154.7,225.6z"/>
	<path d="M391.8,474.4c1.2,2.8,2.1,5.6-1.2,7.9c-0.2-0.4-0.4-0.8-0.9-1.9c-0.7,3.2-1.3,5.8-1.8,8.5c-0.2,0-0.3,0-0.5,0.1
		c-0.2-2.1-0.4-4.1-0.5-6.2c-0.2,0-0.4,0-0.6-0.1c-0.7,1.9-1.4,3.8-2.2,5.6c-0.1,0-0.3-0.1-0.4-0.1c0-1.2,0-2.4,0-3.5
		c-0.2-0.1-0.4-0.1-0.6-0.2c-1.5,3.7-3,7.5-4.5,11.2c-0.3-0.1-0.7-0.2-1-0.3c0.7-3,1.5-6.1,2.1-9.2c0.9-4.4,2.6-8.6,2-13.4
		c-0.2-1.7,2.2-3.8,3.4-5.7c1.3,0.9,2.7,1.8,4,2.7C390.1,471.3,390.9,472.8,391.8,474.4z"/>
	<path d="M311.2,353.3c-0.4,3.6-0.8,7.2-1.2,10.9c0.5,0.1,0.9,0.2,1.4,0.3c0.8-2.3,1.6-4.5,2.4-6.8c0.2,0,0.4,0.1,0.6,0.1
		c-0.1,1.6-0.2,3.1-0.4,5.6c2-2.7,3.5-4.8,5-6.8c0.2,0.1,0.4,0.2,0.6,0.3c-1.5,3.4-3,6.8-4.5,10.2c0.4,0.3,0.7,0.5,1.1,0.8
		c2-2.3,4-4.7,6.6-7.6c-0.4,1.7-0.7,2.6-1,3.9c3.6-1.7,6.8-3.2,10-4.7c0.1,0.2,0.2,0.4,0.4,0.6c-3.3,2.1-6.6,4.2-9.9,6.3
		c0.2,0.4,0.5,0.8,0.7,1.2c1.8-1.1,3.5-2.1,5.3-3.2c0.1,0.2,0.3,0.3,0.4,0.5c-1.4,1.6-2.9,3.2-4.3,4.8c0.2,0.2,0.3,0.5,0.5,0.7
		c2.7-0.6,5.4-1.3,8.1-1.9c0,0.1,0,0.2,0.1,0.4c-3.1,1.6-6.3,3.2-9.4,4.9c-0.2,0.1-0.2,0.6-0.3,1.1c1.6,0,3.1,0,4.6,0
		c0.2,0.3,0.4,0.5,0.6,0.8c-1.3,1.4-2.7,2.7-4.2,4.3c1.5-0.3,2.9-0.5,4.7-0.8c-0.5,4.1,3,2.7,5.3,4c-1,1.1-1.9,2-2.9,3
		c0.9,0.7,1.9,1.5,3.4,2.7c-3.4,0-6.3-0.4-9.1,0.1c-2.8,0.5-5.5,1.8-8.5,2.9c0.2-1,0.3-1.8,0.7-3.5c-1.7,0.6-2.8,1.1-4.2,1.6
		c0.4-1.8,0.9-3.6,1.4-5.5c-0.3-0.1-0.6-0.2-0.8-0.3c-1.1,3.1-2.2,6.2-3.3,9.5c-0.7-0.8-1.4-1.7-2.7-3.2c0.5,2,0.8,3.2,1.3,5.2
		c-1.4-1.2-2.3-2-3.5-3.1c-0.2,1-0.4,1.7-0.5,2.6c-0.8-0.5-1.5-0.9-2.3-1.4c0,0.7,0,1.2,0,2c-1.6-0.6-3-1.2-4.9-1.9
		c0.5,1.1,0.9,1.9,1.6,3.2c-6.2-0.5-11.5-2.1-16.8-5.9c1.4-0.9,2.7-1.7,4.1-2.5c-0.8-0.5-1.7-1-2.8-1.7c0.7-0.3,1.3-0.6,2.9-1.3
		c-3.1-0.9-5.5-1.6-7.8-2.2c0-0.2-0.1-0.5-0.1-0.7c2.6-0.2,5.1-0.4,7.9-0.6c-0.4-0.7-0.7-1.3-1.2-2.1c1.5,0.2,2.7,0.4,4.4,0.7
		c-0.6-1.1-0.9-1.9-1.4-2.8c1.2,0.2,2.3,0.3,4.3,0.6c-1.3-2.6-2.3-4.5-3.3-6.5c0.1-0.2,0.2-0.4,0.4-0.6c2.3,1.6,4.7,3.1,7.6,5.1
		c-0.7-3.6-1.4-6.6-2-9.6c0.3-0.1,0.5-0.2,0.8-0.3c0.8,1,1.5,2.1,2.3,3.1c0.3,0,0.6,0,1,0c0.5-6.9,1-13.7,1.5-21
		c1.1,1.1,2.2,2.1,3.4,3.2c1-3.4,2-7,3.1-11c0.3,0.9,0.5,1.5,0.8,2.7c0.8-1.6,1.4-2.8,1.9-3.9c0.1,0,0.2,0.1,0.3,0.1
		c-0.7,3.8-1.4,7.6-1.9,11.4C309.2,351.9,308.7,353.9,311.2,353.3L311.2,353.3z"/>
	<path d="M378.9,458.5c0-0.3,0-0.8-0.2-0.9c-5.5-4.4-1.4-8.2,0.5-12.2c4.6,1.8,10.5,7.6,11.6,11.8
		C386.8,457.7,382.8,458.1,378.9,458.5L378.9,458.5z"/>
	<path d="M342.9,395.4c-6.8,0-12.8,0-19.1,0c2.6-0.7,5.1-1.3,7.5-1.9c-0.1-0.2-0.1-0.5-0.2-0.7c-3.5,0.6-6.9,1.2-10.3,1.8
		C325.5,388.3,337.7,388.2,342.9,395.4z"/>
	<path d="M225.5,444.5c-0.9-3.7-1.8-7.2-2.5-10.8c-0.1-0.7,0.8-1.6,1.2-2.5c0.5,0.7,1.2,1.3,1.4,2.1c0.8,2.4,1.4,4.9,2.3,7.3
		C228.6,442.7,228.1,443.8,225.5,444.5z"/>
	<path d="M229.1,444.8c4.1,5.9,4.1,6.1,0.9,8.3C226.2,447.8,226.1,446.6,229.1,444.8z"/>
	<path d="M373.1,464.1c-0.6,0.7-1.2,1.4-1.9,2.1c-3.5-3.2-3.4-3.9,1.4-7.7C374.9,460.2,375.3,462.1,373.1,464.1L373.1,464.1z"/>
	<path d="M224.1,420.4c-0.3,3,1.6,6.2-0.1,9.1c-0.4,0-0.7,0-1.1-0.1c0-3,0-6.1,0-9.1C223.3,420.3,223.7,420.4,224.1,420.4z"/>
	<path d="M387.3,449.3c-2.9-2.4-5.3-4.4-7.6-6.4C381.8,440.7,385.1,443.4,387.3,449.3z"/>
	<path d="M378.8,458.5c-0.6,0.8-1.1,1.6-2.2,3.1c-1.2-2.4-2.1-4.1-3-5.8c0.3-0.2,0.6-0.5,0.9-0.7C376,456.2,377.4,457.4,378.8,458.5
		C378.9,458.5,378.8,458.5,378.8,458.5z"/>
	<path d="M333.1,396.9c-0.1,0-0.2,0.1-0.3,0c-0.1,0-0.1-0.1-0.1-0.2c0.1,0,0.2,0,0.3,0C333,396.8,333,396.8,333.1,396.9z"/>
</g>
</svg>
