<?xml version="1.0" encoding="utf-8"?>
<!-- Generator: Adobe Illustrator 24.2.3, SVG Export Plug-In . SVG Version: 6.00 Build 0)  -->
<svg version="1.1" id="Layer_1" xmlns="http://www.w3.org/2000/svg" xmlns:xlink="http://www.w3.org/1999/xlink" x="0px" y="0px"
	 viewBox="0 0 595.3 841.9" style="enable-background:new 0 0 595.3 841.9; fill: #215342;" xml:space="preserve"
	 height="400" width="500" transform="translate(-100, -103)">
<g>
	<path d="M577.4,342.4c-1.7-2-2.9-3.5-4.2-5c1.1,3.8,0.1,7.4-0.2,10.8c-1.3,11.9-4.5,23.4-10.2,34c-9.4,17.2-24,29.7-37.8,42.9
		c-12.7,12.1-26.8,22.7-38.3,36.1c-10.4,12-15.9,25.4-12,41.7c1.2,4.8-2.8,8-8.5,6.7c-10.8-2.3-18.1-9.3-22.9-18.8
		c-7.4-14.6-10.7-30.6-14-46.5c-0.2-1.1-0.5-2.2-0.9-4c-5.7,6.3-9.8,12.6-11.8,20.1c-4.3,15.5-9.3,30.7-16.7,45
		c-1.1,2.2-1.1,4.2,0.1,6.4c1.1,2,1.9,4.1,2.8,6.2c3.5,8.3,6.8,15.5,18.9,12.6c6.1-1.4,12.9-0.1,19.2-3.1c5.4-2.6,10.7-0.3,15.2,3.5
		c1.1,1,2.1,2.1,3.9,1.8c21.7-3.1,29,4.2,37.8,26.4c0.2,0.4,0.3,0.8,0.5,1.2c5.3,14.8,5.3,14,21.1,15.1c11.1,0.8,22.1,3.2,33.3,4.1
		c3,0.2,6.2-0.3,10,1.8c-2.7,0.2-4.3,0.5-5.9,0.5c-15.5,0-31,0-46.5,0.1c-1.1,0-2.8-0.6-2.9,1.1c-0.1,1.9,1.7,1.6,2.9,1.6
		c11.3,0,22.5,0,33.8,0c0,0.6,0,1.2,0,1.8c-10,0-20-0.1-30.1,0.1c-2.1,0-6.1-1.7-6.1,1.7c0,3.1,3.9,1.5,6,1.6
		c5.2,0.3,10.5,0.1,15.8,1.3c-6.1,0-12.1,0-18.2,0c-1.9,0-4-0.4-4,2.7c0,3.2,2.1,3,4.1,3c4.5,0,9,0,13.5,1.1c-4.8,0-9.6,0-14.3,0
		c-1.8,0-2.8,0.5-2.8,2.5c0.1,9.1-3.6,16.5-10.9,21.6c-4.8,3.3-4.9,8.2-6.6,12.8c-0.7,1.8-0.9,4.5-3.6,4.4c-2.3-0.1-2.6-2.5-3.4-4.2
		c-1.2-2.4-0.9-6.5-3.8-6.9c-3.4-0.4-5.7,2.7-8.1,5.2c-5.2,5.6-11.4,10.4-14.4,17.8c-0.4,1-1.5,1.9-2.6,1.3c-0.8-0.4-1.8-1.4-1.7-2
		c0.3-6-2.7-8.7-8.5-9.7c-2.1-0.4-3.8-2.9-5.8-4.7c-3.7,4.4-10.2,6.6-10.4,13.8c0,1.1-0.6,2.5-2,2.6c-1.6,0.1-2.6-1.2-2.7-2.3
		c-0.6-7.5-5.5-9.5-12-11c-5.6-1.3-9-6-11.6-11.5c-3.5,2.6-5,6.3-6.9,9.7c-0.9,1.5-1.4,3.7-3.7,3.6c-2.4-0.1-3.9-2.2-3.9-4.1
		c-0.3-9.1-6.6-14.6-11.2-21.5c-3.7-5.5-7.2-6.2-12.8-6.2c-41.6,0.1-83.1-0.1-124.7-0.3c-4.2,0-6.1,1.5-7.1,5.9
		c46.3,0,92.5-1.3,138.7,0.1c-47.1,1.7-94.2,0.1-141.3,1.3c0,0.8,0,1.6,0,2.3c34.8,0,69.6,0,104.4,0c0,0.4,0,0.8,0,1.2
		c-8.1,0-16.2,0-24.4,0c-26.1,0.2-52.1,0.4-78.2,0.5c-5.5,0-8.4,2.9-9.5,8.1c-0.8,3.7-1.6,7.4-3.5,10.7c-0.4,0.7-1.4,1.4-2.2,1.5
		c-0.5,0-1.3-1-1.6-1.7c-0.9-1.9-1.7-3.9-2.5-5.9c-1-2.4-2.1-4.3-5.3-4.3c-3.2,0-5.6-0.1-7.2,3.6c-2.5,5.7-7.6,9.1-13.1,11.4
		c-3.6,1.5-6,3.3-6.8,7.3c-0.3,1.4-0.8,3.5-2.9,3.2c-1.9-0.3-1.8-2.2-2-3.6c-0.6-5.4-0.3-11.1-5.5-15.3c-3.3,5.8-8.3,9.6-14.9,11.5
		c-1,0.3-1.1,3.4-1.7,5.2c-0.4,1.2-0.6,2.7-2.1,2.9c-1.7,0.2-2.3-1.3-2.5-2.4c-1.2-5.4-4.4-8.6-9.3-11.3c-5.7-3.1-8.4-9-10.6-15.5
		c-2.3,2.7-1.9,5.7-2.8,8.2c-0.4,1.2-0.6,2.7-2.1,3c-1.6,0.3-2.5-1.1-2.8-2.3c-1.6-7.2-6.7-10.7-12.9-13.4c-1.8-0.8-4-2.6-4.6-4.4
		c-2.2-6.7-7.3-6.9-12.8-6.4c-0.9,0.1-1.9-0.1-3.5-0.2c1-0.3,1.3-0.5,1.6-0.5c3.5-0.5,9.2,1.4,9.9-0.9c1.2-3.9-0.7-8.8-1.4-13.2
		c-0.3-1.8-1.9-1.4-3.1-1.5c-5.8-0.1-11.6-0.1-17.4-0.1c-1.3,0-2.6-0.3-3.9-1.7c6.9,0,13.8,0,20.8,0c1.8,0,3.4,0,3.4-2.6
		c0-2.7-1.8-2.5-3.5-2.5c-16.3-0.1-32.5-0.2-48.8-0.3c-1.8,0-3.6,0-5.4-1c2.2-0.1,4.5-0.4,6.7-0.4c15.8-0.1,31.7-0.1,47.5-0.3
		c1.3,0,3.6,0.8,3.5-1.5c0-2-2.2-1.2-3.4-1.2c-17.7-0.1-35.3-0.2-53-0.3c-1.4,0-2.8-0.1-4.3-1.1c1-0.1,2-0.2,3-0.3
		c19.2-1.3,38.5-2,57.7-4.2c5-0.6,8.2-6.7,10.1-11.9c1.4-3.9,1.9-8.2,3.2-12.2c4-12.3,11.2-16.6,23.9-14.1c2.4,0.5,4.1-0.4,5.9-1.7
		c6.9-4.7,17.5-7,24.2,0.6c0.8,1,1.9,0.8,3,0.3c6.2-3.1,12.5-5.2,20.1-2.9c-1.6-11.8,4.1-23.3-3.8-34.8
		c-7.7-11.2-10.7-24.8-12.7-38.3c-1-7.1-4.8-13.1-8.8-18.9c-5.6-8.2-10.9-16.5-14-26.1c-0.2-0.6-0.7-1.2-1.5-2.5
		c-2.1,13.1-4.3,25.3-7.9,37.2c-4.1,13.3-9.1,26.2-17.1,37.8c-3.2,4.6-5.5,4.4-8.1-0.5c-2.8-5.2-2.6-10.8-1.7-16.4
		c3.1-19.3-3.8-33.7-20.4-44c-14.7-9.2-29.8-17.8-41.6-30.9c-12.4-13.6-18.4-29.6-18-48c0-0.6-0.1-1.2-0.4-2.8
		c-1.1,2.3-1.8,3.8-3.1,6.7c0.5-5.8,0.9-10.2,1.5-16.3c-1.9,3.5-3,5.6-4.1,7.6c-0.2-0.1-0.4-0.2-0.6-0.3c1.8-4.6,3.6-9.3,5.4-13.9
		c-0.3-0.1-0.6-0.3-0.8-0.4c-1.3,2.7-2.6,5.4-4.4,9.2c1-6.4,3.1-10.9,7-14.7c-5.1,1.4-8.4,5.3-12.4,8.2c4-5.9,8.7-11,16.5-14.1
		c-6.3,0-11.2,0.6-16,2.4c6.1-3.8,13-5.3,20.1-5.5c2.5-0.1,1.2,2.3,0.4,3.7c-4.3,7-5.1,14.3-2.7,23.5c0.6-2.6,0.9-4,1.3-5.7
		c0.7,0.5,1.2,1,2.1,1.7c1.4-10.6,3.3-20.5,14.2-25.5c2,2.8-0.2,6,3.8,6.5c2.7,0.4,3.8-0.2,5-2.4c4-7.1,8.5-13.7,15.5-18.3
		c3.7-2.4,5.4-1.9,7.4,2.8c2,4.7,2.2,8.6,1,13.2c1.4-2.6,2.5-5.3,4.2-7.6c4.9-6.7,7.5-9.7,15.8-5.9c3.5,1.6,4.5,4.8,4,8.1
		c-1.7,11.2-5.9,21.6-11.2,31.5c-2.2,4.1-7.1,3.8-10.4-0.1c-7.9,7-10,12.9-6,17.1c2.4-0.8,0.7-4.7,3.6-5c3.5-0.3,1.6-3.7,3.2-5.1
		c2.7,1,6.3-2.5,8.3,1.6c1.4,2.8,2.6,5.3,5.9,6.7c2.5,1.1,3.3,0.9,4.4-1.4c5.1-10.7,8-21.9,10-33.6c1.8-10.7,5.5-21,10-30.9
		c0.6-1.3,1.1-2.7,1.5-3.4c-6.7-2.6-12.3,1.3-18.3,2.4c-3.8,0.7-6.7-1-6.2-5.6c1.2-11.8,19.4-32.2,31.1-35c0.3-0.1,0.6,0.1,0.7,0.1
		c1,1.8,1.6,3.6,2.8,5.1c1.6,1.9,4.1,2.6,5.4,0.3c2.9-4.9,5.1-10.2,7.9-15.1c2.8-4.9,6.9-9,10.6-13.3c-27.9,8.6-46.9,30.2-70,47.4
		c8.6-4.1,6.6,0.7,6.5,5.5c-0.3,8.2-8.4,17-16.5,17.2c-3.5-3.9-2.7-8.5-2.5-13.3c-20,13.8-38,30.7-63,35.1
		c29.6-11,52.9-31.4,77.4-49.9c13.7-10.4,26.8-21.6,41.1-31.3c10-6.8,20.7-12.3,32.5-15.3c1.4-0.4,5.5,0.9,4.4-3.4
		c1.7-0.2,3-1.7,5.1-1c4.5,1.6,9.3,0.9,15.5,1.1c-7.1-4.3-14-3.3-20.2-5.1c7.2,0.6,14.6-1,22,4.5c-1.8-4.2-4.6-5.3-6.9-7.6
		c4.3,0.8,5.9,4.8,9.6,6.7c-0.6-2.1-1.1-3.8-2.1-7.3c1.8,3.2,2.5,4.9,3.6,6.3c3.2,3.8,7.3,5.5,12,3c18.9-9.8,39.1-15,60.2-17.2
		c29.2-3,58.1-1.3,86,8.5c4.7,1.7,9.6,3.7,13.5,6.8c5.9,4.6,10.3,2.3,14.8-1.7c1.7-1.5,3.1-3.2,4.9-4.5c-0.8,1.3-1.6,2.6-2.4,3.9
		c0.2,0.2,0.4,0.5,0.6,0.7c2.9-2.3,5.8-4.5,9.2-7.2c-2.2,4.1-5.7,6.3-8.2,9.7c2.3-1.3,4.6-2.5,6.8-3.9c2.3-1.4,4.5-3,7-4.7
		c0,0.8-0.1,1.3-0.1,2c1.2-0.6,2.2-1.1,3.3-1.6c0.1,0.2,0.2,0.3,0.3,0.5c-2.6,1.9-5.3,3.8-8.4,6.1c3.5,0.6,5-2.7,8.1-2.8
		c-1.1,0.9-2,1.6-3.2,2.6c16.1,3.4,29.1,11.5,42.3,20c35,22.6,68.3,47.7,103.5,69.9c5.9,3.7,11.8,8.4,19.8,5.1
		c-1.2,0.6-2.4,1.1-5,2.4c5.1,0,8.7,0,12.3,0c0,0.3,0,0.6,0,0.8c-4.5,0.2-8.9,0.4-15.1,0.7c6.8,2.8,11,7,16.9,8.8
		c-2.3-0.2-4.5-0.4-7.5-0.6c3.3,2.4,5.9,4.4,8.8,6.5c-2.2,1.6-4.2,0.3-6.6,0.9c1.2,1.3,2.2,2.4,3.2,3.5c-0.1,0.1-0.2,0.3-0.3,0.4
		c-1.4-0.9-2.8-1.8-4.2-2.7C572.9,334.8,576,337.7,577.4,342.4z M356.8,568.9c7.8-11.1,16.7-20.6,26.1-29.5c1.4-1.4,2.6-3.3,3.2-5.2
		c5.7-17.9,14.4-34.6,20.5-52.2c5.4-15.4,8.6-31.7,19.7-44.5c0.7-0.8,0.9-2.2,0.8-3.3c-2.3-26.3-1.4-52.7-2.6-79.1
		c-1.4-33.5-7.6-66.1-21.9-96.7c-7.5-16.2-19.3-29.2-33.9-39.1c-19.2-12.9-41.5-15.9-64.1-17.3c-0.9-0.1-2.2,0-2.7,0.6
		c-4.8,6.3-12.4,5.1-18.8,6.6c-3.1,0.7-6.5-1.4-8-4.8c-0.7-1.6-1.7-2-3.3-1.9c-7,0.6-14,1.1-20.8,2.9c-1.7,0.5-3,0.9-3.6,3.3
		c-1.5,5.9-5,10.7-10.6,13.7c-3.9,2-8.1,3.2-11.7-0.3c-3.4-3.3-0.9-6.4,1.8-8.9c-1.5-1-2.3,0-3.3,0.3c-7.7,2.1-12.9,7.9-19.1,12.3
		c-13.9,9.7-26.5,20.5-33.8,36.1c-12.5,26.4-20.6,53.9-19.9,83.4c0.4,15.7-0.3,31.2-4.3,46.4c-2.9,10.8-2.9,21.6,3,31.6
		c1.8,3.1,3.8,6.2,6.1,9.1c8,10.5,13.4,22.1,15.3,35.4c3.2,22.4,16.1,40.9,25.3,60.9c2.6,5.7,5.9,10.6,12.2,13.1
		c3.8,1.5,6.5,4.8,8.9,8.3c3.8,5.6,6,11.9,8.1,18.2c0.9,2.6,1.7,5.4,5.6,5.3c0.7-2.3-1-4.8,0.7-6.8c3.6-0.3,3.9,2.9,5.4,4.9
		c1.7,2.5,3.3,4.9,5,7.4c1.1-0.6,0-2.3,1.7-2.4c2.1,2.3,2.5,5.9,5.5,8.2c-0.3-1.2-0.4-2-0.9-4.3c3.5,5.2,6,9.5,11.8,9
		c-0.2-0.6-0.5-1.3-0.9-2.3c6.3,3.9,20.4,7.6,25.8,7c0.8-0.9-1.7-0.9-0.5-2c22.4,6.2,50.2-1.9,61.3-18.2c0.3,0.9,0.5,1.7,0.9,2.9
		c2.5-4.1,1.8-9.8,7.9-10.7C355,566.8,355.6,567.5,356.8,568.9z M415.6,535.9c-1.6,0.6-2.9,0.2-3.9-0.7c-4.3-3.8-8.6-2.4-12.9-0.3
		c-7.5,3.8-10.8,10.7-13.6,18.1c-2.5,6.6-0.9,14.5-5.3,20.1c-7.5,9.7-8,20.7-6.9,31.9c0.6,6.8,4,12.4,10.4,17
		c0.8-8.4,2.6-16,6.2-22.9c1.5-2.9,2.4-8.1,6.5-7.3c4.5,1,3.9,6.1,3.9,9.9c0,8.6-0.9,17.1-3.5,25.4c11.6-15.2,10.5-33.7,12.4-51.4
		c3.1,0.6,2.7,2.3,2.6,3.8c-1.1,11.2-1.6,22.6-5.1,33.4c-1.3,3.9-1.9,7.7-0.3,11.6c-0.7-1.5-1.4-3-2.3-4.7c-2,2.6-2.8,5-1.4,7.7
		c3.1,5.7,7.7,9.4,14.1,10.9c3,0.7,4-0.2,3.8-3.3c-0.6-9.8,0.4-19.4,3.7-28.6c0.6-1.7,1.3-3.7,3.6-3.6c2.3,0.2,2.7,2.3,3.2,4
		c1.6,6.8,1,13.7,0.5,20.6c-0.3,4-0.7,7.9-1.1,12.7c4.5-3,7.3-6.2,7.9-10.7c1.9-14.6,5-29.1,5.2-43.9c0.1-5.5,0-11.1,0-16.7
		c1.9,2.4,3,4.8,2.9,7.3c-0.2,18-3.3,35.8-5.7,53.6c-0.4,2.9-0.4,5,1.8,6.8c2.4,1.9,5.2,4.2,8.1,3.1c2.7-1,0.9-4.4,1.2-6.7
		c0.3-2.1,0.1-4.3,0.3-6.4c0.4-5.8,1.3-11.6,3.1-17.1c0.8-2.4,1.6-5.6,4.8-5.3c3,0.3,3.5,3.5,3.8,6.1c0.4,3.1,0.6,6.2,0.5,9.3
		c-0.2,5.8-0.8,11.5-1.2,17.3c0.4-0.1,0.7-0.1,1-0.3c0.6-0.5,1.1-1,1.7-1.5c7.6-7.5,8.7-17,7.9-26.9c-0.9-11-1.6-21.9-0.4-32.9
		c0.2-1.9,0.5-3.8,2.8-5.8c-0.8,19.6-3.4,38.6,6.4,57.9c-0.3-5.1-0.6-8.6-0.7-12.1c-0.1-7.3-0.8-14.7,1-21.8c0.4-1.4,1-3,2.8-3.1
		c1.5-0.1,2.2,1.2,2.8,2.4c1.7,3,2.4,6.4,3.2,9.8c1.4,6.4,1.4,12.9,1.3,19.6c8.5-6,12.4-13.4,12.2-23.6
		c-0.4-15.6-6.7-29.4-12.1-43.5c-1.8-4.6-4.4-8.9-7.5-12.8c-5.8-7.3-18-10.9-25.4-7.2c1.2,1.9,2.4,3.8,3.6,5.6
		c-10.5-14-22.7-15.3-37-6.1c0.4-0.5,0.7-1,1.4-1.9c-5.3-0.8-10.1-1.5-15.3,0.9C414,534.8,414.7,535.3,415.6,535.9z M131.1,539.7
		c-8.1-2.6-14.9-0.4-19.3,7.5c-6,10.8-9.7,22.7-14.1,34.1c-3.8,9.8-1.5,21.3,3.1,31.4c2.3,5.2,6.7,8.1,12.3,10.3
		c-0.2-1.3-0.3-2.1-0.5-2.9c-1.7-9.1-2-18.2,0.1-27.2c0.6-2.7,0.9-7.1,4.5-6.9c3.3,0.1,3.9,4.3,4.3,7.2c1,8.1,1.7,16.2,2.6,24.3
		c4.9-14.9,4.3-30.4,4.3-45.5c2.3,5.2,2.9,11,2.6,17.2c-0.5,11.8-4.7,23.3-3.7,35.2c0.7,7.5,8,16.5,14.2,17.5
		c-0.2-1.2-0.3-2.4-0.5-3.5c-1.3-10.2-1.2-20.4,1.3-30.4c0.8-3,1.7-6.7,5.1-6.5c3.8,0.2,4,4.3,4.4,7.3c1.1,10,0.2,20-0.4,30
		c-0.1,1.7-0.7,3.6,0.3,5.3c10.2-2.1,14-8.5,11.1-18.1c-0.7-2.3-1-4.8-1.2-7.3c-1-12.5-1.1-25.2-2.9-37.7c-0.7-5-0.4-10.2,0.8-16.1
		c2.5,17.7,3.4,34.7,4.2,51.6c0.4,7.4,2.4,14.2,7.2,21.3c0.2-2.8,0.3-4.4,0.5-6.1c0.9-8.6,0.6-17.4,3.1-25.9
		c0.4-1.3,0.9-2.9,2.6-2.9c1.8,0,2.3,1.5,2.6,2.8c0.7,2.9,1.3,5.9,1.7,8.8c1.2,9.6-0.3,19-2.4,28.5c12-3.5,21.3-17,18.8-27.4
		c-2.2-9.2-3.1-18.5-3.2-27.8c0-1.8-0.4-3.8,1.5-6c2,15.5-0.4,31.6,10.8,44.5c1.5-1.6,1-2.9,0.9-4.1c-0.5-6.6-1.3-13.3-1.6-19.9
		c-0.2-3.8-0.1-9.1,4.3-9.7c4.6-0.6,5.3,4.9,6.4,8.4c2.2,6.7,2.9,13.8,2.8,21.1c9.8-6.8,14.4-24.9,9.4-37.7
		c-3.8-9.9-8.1-19.7-12.5-29.4c-4.6-10-17.2-16.6-27.1-14.7c0.6,1.2,1.2,2.3,1.8,3.4c-6.4-8.1-14-10.5-23.6-6.3
		c-1.9,0.8-3.8,1.5-5.7,2.2c-0.7,0.3-1.4,0.7-2.3-0.1c-7-7-12.7-7.5-21.5-2c-3,1.9-6,3.8-8.9,5.7c-0.2-0.2-0.3-0.5-0.5-0.7
		C129.6,541.6,130.2,540.8,131.1,539.7z M415.2,221.5c0.5,1,0.6,1.3,0.8,1.5c19.1,16.4,27.9,37.1,26.8,62.3
		c-0.3,7.4,0.4,14.8,3,21.9c4.6,12.7,12,24.3,14.1,38c0.9,5.6,3.4,10.9,5.4,17c0.8-1.7,1.3-2.6,2.1-4.5c2.5,6.3,2.3,13.8,10.7,15.2
		c1,1.7-0.1,4.2,1.5,6.3c2.5,3.4,6.9,5.6,7.3,10.6c0.1,0.8,0.8,1.9,1.5,2.3c1.2,0.6,1.6-0.7,2.1-1.5c4.4-7.6,6.8-15.9,8.2-24.5
		c0.4-2.4,0.7-4.1,3.5-4c0.9,2.8,1.7,5.5,2.6,8.2c0.9-1.3,1-2.6,0.9-3.8c-0.2-6.1-5.5-11.3-3-17.9c0.5-1.4-1.6-3.7,0.6-4.5
		c2-0.7,4.4-0.9,5.6,1.9c0.5-0.7,0.8-1.2,1.7-2.5c-0.3,4.7,4,1.5,4.5,4.3c2.4-1.7,2.7-4.4,3.7-6.6c2,0.5,2,3.1,4.1,3.1
		c0.9-0.9-0.3-3,2.2-3c2,0,2.2,1.5,3.1,2.7c5.2,6.5,3.9,14.2,4.3,21.6c0.1,1.5-0.6,3.2,1.3,4.5c3.3-3,3.8-7.1,4.8-11
		c0.3-1.3,0.6-2.8,2.2-2.8c1.4,0,1.4,1.5,1.6,2.4c0.4,1.9,1.2,3.7,3.3,3.8c2.1,0.1,2.7-1.9,3.3-3.4c2.5-6.4,3.8-13.1,4.9-20.2
		c0.8,2.2,1.5,4.1,2.3,5.9c0.8-7,0.7-13.6-4.6-19.3c3.6,0.1,2.7-1.5,2.1-3c-4.6-9.9-12.2-16.7-21.3-22.9c-31-21.3-61-44.1-92.7-64.6
		C432.1,230.1,424.5,225.1,415.2,221.5z M112.2,483c0.7-2,1.1-3,1.4-3.9c9.7-32.5,11.5-66.1,13.3-99.6c0.9-16.6-1.5-33.3,0.8-50
		c2-14.2,5.1-28,10.8-41.3c-7.1,10.7-10.7,22.7-13.7,35.1c-0.3-0.6-0.2-1.2-0.2-1.7c2.5-18.8,11.8-34.9,20.9-51.1
		c10.1-18,20.3-35.9,37.7-48.1c0.7-0.5,1.6-1,1-2.1c-0.6-1.1-1.7-0.7-2.6-0.6c-11.2,1.2-18.7,8.4-24.4,17
		c-11.9,18.3-19.6,38.9-29,58.6c-9.9,20.7-9,43.1-8,65.3c1.7,38-0.2,75.7-8.4,113C111.2,476.2,110.4,479,112.2,483z M458.4,480.5
		c0-1.6,0.1-2,0-2.4c-3.5-16.5-6-32.9-2.5-49.9c1.2-6-0.1-12.4,0.1-18.7c0.2-15-4.6-29.3-6-44.1c-1.3-12.7,2-25.5-1.1-38.3
		c-1.9-7.9-5-15.3-7-23.1c-3.6-13.8-4.6-28.3-10.3-41.6c-6.3-14.7-12.6-29.4-26.5-38.9c-2.2-1.5-4.4-3.2-7.3-1.8
		c0.7,2.5,0.7,2.7,3.1,5.2c17.8,18.3,30,39.5,36,64.5c5.5,23,11.8,45.7,9.7,69.6c-0.5,5.1-3.8,9.5-2.5,15.2
		c5.8,25.1,5.7,50.8,7.8,76.3C452.7,461.8,453.8,470.9,458.4,480.5z M379.4,558.7c-2.1,6.4-6,10.4-6.3,16c4.8-2.9,5.9-6.3,7.3-14.4
		c1.9-11.6,5.9-22.4,17.7-27.9c2.5-1.2,5.4-1.7,8.6-2.6c-3.7-5.7-6.6-11.4-8.9-18.6c-10.4,33.9-35.1,55.8-57,79.9
		c7.8,0,16.3,0,24.8,0c1.3,0,1.5-1,1.6-2c0.6-5.8,2-11.6,0.5-17.6c-0.5-1.8-0.4-3.8,1.2-5.6c0.4,2.3,0.8,4.3,1.3,7.2
		C372.6,567.8,375.1,563.6,379.4,558.7z M233.2,606.9c0.8,0.1,1.3,0.2,1.8,0.2c44,0,88-0.1,132.1-0.2c1.2,0,2.8,0.4,2.6-1.8
		c-0.1-1.7-1.1-2.2-2.6-2c-1.6,0.1-3.2,0.1-4.8,0.1c-41.5-0.1-83.1-0.2-124.6-0.3C235,602.9,232.7,603,233.2,606.9z M198.4,538.4
		c-3.6-7.3-7.1-14.5-10.8-21.9C181.7,529,186.5,538.6,198.4,538.4z M210,593.9c3.7,13.8,4.2,27,4.8,41.1
		C219.3,626,216.4,598.9,210,593.9z M458.4,605.1c0,13.8,0,26.4,0,37.8C462.2,635.6,463.5,609.5,458.4,605.1z M230.9,578.6
		c4.3,13.4,6.5,15.1,16.7,12.1C241.6,587,238.5,580.3,230.9,578.6z M116.6,588.4c-3.4,13.2-2.8,26.3,1.3,39.3
		C117.5,614.6,117,601.5,116.6,588.4z M391.5,633.5c4.8-12.7,7.5-25.6,5.1-39.2C395.2,607.4,393.4,620.5,391.5,633.5z M487.6,634.4
		c4-9,2.6-37-2-40.8C486.5,607,487.7,620.4,487.6,634.4z M522.2,408.3c8.2-1.6,27.3-25.6,28.6-35.6
		C542.3,385.6,534.4,398.2,522.2,408.3z M147.4,603.1c-4.3,4.1-5.4,29.8-2,36.2C146.1,627.1,146.7,615.5,147.4,603.1z M425.6,642.8
		c3-12.3,5-24.7,1.8-37.3C426.8,617.9,426.2,630.3,425.6,642.8z M177.4,637.8c1.3-10.8,3-20.3,0-30.1
		C177.4,617.4,177.4,627,177.4,637.8z M473.4,627.8c5.4-2,6-5.5,2.1-9.7C474.7,621.3,474.1,624.5,473.4,627.8z"/>
	<path d="M181.8,458.3c2.7,2.9,3.4,6.1,4.1,9.3c2.6,12,5.9,23.8,10.3,35.3c7.7,20.3,22.1,31.3,43.6,33.7c15.8,1.8,30.8-0.8,45.4-7
		c5.1-2.2,5.5-5.9,5.1-10.5c-0.4-4.3-0.3-8.4-6-9.9c-5.9-1.6-11.4-4-14-10.7c-1.2-3-5.4-3.6-8.3-5.3c-15.7-9.3-25-22.3-24.8-41.2
		c0.1-9.3,4.4-15.2,13-18.4c18.2-6.7,37-5.9,55.9-4.4c7,0.6,13.9,2,20.4,4.6c14.6,5.7,19.9,16.3,15.7,31.4
		c-2.8,10.2-9.1,17.9-17.6,23.9c-4.2,2.9-8,6.1-10.6,10.7c-2.7,4.9-7.7,6.9-12.5,8.5c-5.9,2-7.9,5.8-8.1,11.8
		c-0.2,5.9,2.9,8.9,7.3,11.4c17.5,9.7,46.4,6.8,61.7-6c15.9-13.4,24.6-30.7,27.6-51c0.9-6.5,1.5-13.1,6-18.4
		c1.2-1.5,2.4-3.1,5.1-3.3c0.7,6.9-0.7,13.6-2.2,20.1c-4,18.1-9,35.9-20.2,51.3c-6.5,8.9-16.3,14.5-23.2,23.3
		c-2.6,3.3-7.4,0.4-11.1,0.1c-3.7-0.3-5.4,1.1-6.7,4.1c-2.2,5.1-3.8,10.5-7.4,15c-11.2,14.4-27,15.5-43.3,14.5
		c-8.5-0.5-16.8-2.5-24.5-6.5c-8.2-4.3-13.1-11.3-16.4-19.6c-3.7-9.3-8.1-9.9-14.5-2.2c-1.5,1.8-3.2,3.2-5.1,1.2
		c-7.2-7.9-15.5-15.2-21.1-24.1c-12.6-20.1-22.8-41.5-24.7-65.9C180.6,461.3,180.6,461.3,181.8,458.3z M292.3,568.6
		c0.2-5.5,2.1-10.5-3.4-12.5c-2.2-0.8-4.2-1.7-5.6-3.4c-5.8-6.5-12.8-5.2-19.6-2.8c-7.6,2.6-8.6,8.8-2.9,14.5
		c8.3,8.3,20.1,11.3,30,12.9c21.1,3.4,36.4-2.6,43.9-26.2c0.8-2.6,0.1-3.5-1.9-4.5c-16.3-8.4-36.1,1.2-39.4,19.1
		C293.1,566.3,292.9,566.8,292.3,568.6z M269.5,443.9c-1.3,1.2-3.1,2.3-1.9,4.3c1.2,1.9,3.2,1.7,5,1.2c8.8-2.1,17.7-2.8,26.6-2.1
		c13.7,1.2,23.5,8.3,30,20.3c0.8,1.5,1.1,3.6,3.3,3.5c2.2,0,3.4-1.6,4.4-3.4c5.5-9.7,2-22-7.8-27.2c-7.8-4.1-15.3-5.8-24.8-3
		c-10.1,2.9-21.3,1.9-32.1,2.7c-1.4,0.1-3.1,0.1-4.2,1.6C268.3,442.5,268.8,443.2,269.5,443.9z M304.6,474.1
		c-2,6.3,2.8,14.5,8.3,15.4c2.1,0.3,3.5-0.8,4.5-2.4c0.6-1,0-1.6-0.9-1.9C311.3,483.1,307.1,479.9,304.6,474.1z"/>
	<path d="M163.6,352.5c7.4-1.1,8.7-6.8,11.1-12.3c4.7-10.7,12.1-19.4,23.2-24.1c15-6.4,29.8-0.1,35.5,15.1
		c3.9,10.4,5.6,21.2,4.7,32.3c-0.3,3.1-0.9,6.2,0.7,9.4c-12.1,4.2-22.8,12.1-36.4,10.7c-14.3-1.4-23.7-9.3-29-22
		C171.4,357,169,353.8,163.6,352.5z M232.8,347.4c-0.8,4.2-0.9,8.5-3.3,12.3c-2.3,3.7-5,7-8.8,9.2c-3.8,2.2-8,3.1-12.4,2.8
		c-9.7-0.7-17.4-8.2-19.2-18.8c-1.3-7.2,0.4-13.7,5.2-19.3c4.7-5.5,11.1-7.3,20-7.4c-11.9-3.1-24,3.6-31.3,15.6
		c-9.1,15-3.2,30.2,13.7,34.8c13.4,3.7,25.5-0.4,37.2-6.4c0.4-0.2,0.9-0.8,0.9-1.2C235.5,361.8,235.2,354.5,232.8,347.4z
		 M206.5,364.5c-5-3.1-7.4-6.8-9-11c-0.5-1.4-0.8-3-2.7-2.2c-1.6,0.7-4.3,1.2-3.5,3.8c1.2,4,3,7.7,6.9,10.2
		C200.2,361.7,202.9,363.7,206.5,364.5z M217.4,339.6c0.3,2.3,1.4,4.4,4,4.4c2.7,0,3.6-2.1,3.5-4.5c-0.1-2.2-1.3-4-3.8-3.9
		C218.9,335.7,217.3,336.8,217.4,339.6z"/>
	<path d="M336.3,375.3c1.8-10.9-0.6-21.4,2.3-31.8c4.7-17,15.8-28.2,29.5-28.9c14.9-0.8,29.3,9.7,35.6,25.6
		c2.4,6,2.3,13.6,10.7,16.4c-7.6,0.9-7.7,7.3-10.2,12c-5.7,10.7-15.8,14.4-27,15.5c-10.3,1-19.6-3-28.9-6.9
		C344.5,375.7,340.8,373.9,336.3,375.3z M372.5,379.4c1.1,0,3.2,0.2,5.2,0c15.2-1.4,24.1-12,20.8-24.8c-2-7.8-5.9-14.8-11.7-20.5
		c-11.2-10.9-28.7-9.8-38.3,2.7c-6.8,8.9-8.8,19.2-8.3,30.2c0.1,1.9,0.9,3.4,2.6,4.1C352.1,375,360.9,380.5,372.5,379.4z"/>
	<path d="M247.5,235.7c-4.7-4.3,4.6-4.9,1.2-8.7c2.7,0.5,4.5,0.8,7.4,1.3c-1.9-2.2-3-3.5-5.2-5.9c2.4,1.4,3.4,2,4.9,2.8
		c-0.1-1.2-0.3-2-0.4-3.3c4.1,3.2,10.1,3.1,12.1,8.7c1.9,5.5,0,9.2-5.9,10.7c1.7,2.5,3.5,4.7,4.7,7.1c2.3,4.6,1.8,8.8-2,12.7
		c-3.4,3.5-7.1,2.9-11,1.3c-3.9-1.7-7.3-4-10.2-7.2C235.7,247.3,236.9,241.8,247.5,235.7z"/>
	<path d="M361.2,243.9c-0.1,0.7-0.2,2.6-0.9,4.2c-1.4,3.4-3,7-7.4,7.2c-4.4,0.2-6.4-3.1-8-6.4c-1.9-4-2.2-8.4-8.3-9.8
		c-5.1-1.2-7.2-9.1-4.9-13.3c2.7-5.1,9.9-7.7,15.3-5.4C354.3,223.5,361.2,234.4,361.2,243.9z"/>
	<path d="M318.8,285.7c-6,0-10.9-6.8-10-12.9c0.7-5.3,2.5-10.2,5.2-14.8c2.3-4,5.8-5.9,10.5-5.6c4.4,0.3,5.9,3.2,7,7.1
		c2.1,7.3-2.6,20.8-9.2,24.9C320.9,285.1,319.4,285.5,318.8,285.7z"/>
	<path d="M170.9,396.7c0.3-0.8,0.5-1.6,0.9-2.9c5.6,6,10.8,12,9.4,20.7c-0.5,3.2-1.5,7.3-6.8,5.8c-0.4-0.1-1.1,0.2-1.4,0.6
		c-3.6,4.7-8,5-12.3,1.4c-4.5-3.8-3.2-8.7-2.2-13.9c0.8-4.3,3.4-7.5,5-11.2C165.2,393.2,168.3,397.1,170.9,396.7z"/>
	<path d="M253.5,277.3c1.7,1.9,1.9,4.8,4.7,5.5c1.5-0.6,0.3-1.8,0.8-2.6c0.2,0,0.5,0,0.5,0.1c0.8,5.8,7.3,6,10,10.5
		c3.5,6,2.3,17.2-3.7,20.6c-5.4,3.1-11.1-1.2-11.1-8.6c0-2.6-0.5-4.5-2.3-6.5c-4.2-4.6-3.5-8.7,1.4-13
		C255.8,281.5,252.7,279.6,253.5,277.3z"/>
	<path d="M280,405.2c-0.1,5.3-4.2,9-10,8.9c-1.8,0-10.2-7.7-9.9-9.2c1-4.4,3.7-8.1,8.1-8.6C274.4,395.5,280,400.4,280,405.2z"/>
	<path d="M331.5,504c0.5-2.6,1.8-5.6,4.5-6.9c2-0.9,5-2.2,6.9,1.6c0.3,0.6,3.3,2.4,4.7,4c2.7,3,1.7,9.7-1.6,12c-2,1.4-3.8,1.4-5.9,0
		C334.9,511.1,331.5,507.3,331.5,504z"/>
	<path d="M248.1,513.7c-6.4,3.3-13.4,6.4-13.9-4.7c-0.2-3.7,8.3-8.7,11.2-7.4c2.6,1.2,2.9,4.2,4.4,6.1
		C252.2,510.8,247.6,512,248.1,513.7z"/>
	<path d="M408.7,389.9c6.6,5,7,9.4,1.7,15.4c-2.2,2.5-4.6,2.5-6.9,0.2C398.9,400.8,400,397.5,408.7,389.9z"/>
	<path d="M197.2,420c-5.3-1.2-3-5-1.9-7.2c2-3.9,5.5-6.8,9.9-8.3c1.7-0.6,3.4-0.5,4.7,1c1.3,1.5,0.4,2.8-0.3,4.2
		C207,415,203,418.6,197.2,420z"/>
	<path d="M396.2,296.5c-17-15.6-25.1-16.7-45.8-6.7C359.8,276.5,384.9,279.6,396.2,296.5z"/>
	<path d="M223.3,285.6c-12.4-2.7-12.4-2.7-33.5,9.8C196.9,283.5,215.7,278,223.3,285.6z"/>
	<path d="M222.4,287.4c-8-1.2-13.3,1-18.7,3.7C206.1,287.1,215.9,284.5,222.4,287.4z"/>
	<path d="M480,296.5c2.7,4.3,5.5,8.6,8.2,13c2.3,3.7,4.3,7.5,5.2,11.8c1.4,6.4-2.5,9.4-8.7,10.4c-6.9,1.2-9.8-2.9-12.8-7
		c-3-4.2-6.3-8.2-6.9-13.9c-0.4-3.6-2.4-7-4.2-11.7c1.9,1.6,2.8,2.3,4.1,3.4c-0.3-1.6-0.5-2.9-1.1-5.6c1.6,2,2.3,2.9,3.2,4
		c0.5-0.8-1.1-3.6,1.9-1.7c-2.4-4-4.8-7.4-6.7-11.1c-1.3-2.4-2.4-4.4-0.8-8c1.6-3.4-2.2-7.5-4.3-11c-1-1.7-1.8-3.5-1.9-5.9
		c1.3,1.2,2.7,2.3,4.4,3.8c-0.6-3.7-4.5-5.3-4.2-9.1c0.8,0.3,1.6,0.4,1.9,0.8c3.9,5.6,9.2,3.5,13.9,2c1.7-0.5,2.7-0.1,3.7,0.6
		c9.5,7.3,19.2,14.6,26,24.4c3.8,5.5,5.6,12.6,7.4,19.2c1.2,4.6-4.6,7.8-10.2,6c-6.6-2.1-10.6-7.5-15-12.4c-0.8-0.9-1.5-1.8-2.3-2.6
		C480.5,296.2,480.2,296.4,480,296.5z"/>
	<path d="M390.5,350.5c-0.1,13.2-10.5,24.1-22.8,24c-11.7-0.1-20.9-10.3-20.9-23c0.1-13,10.5-23.3,23.5-23.2
		C381.8,328.4,390.6,338.1,390.5,350.5z M373.3,366.7c-7.6,1.3-12.7-1.4-16.1-7.3c-1.2-2-2.6-1.8-4.3-0.9c-1.5,0.9-2.2,1.8-1.4,3.7
		c3,7.2,13,11.7,21.3,8.8c-5.6,0.8-10,0.4-14.5-3.1C363.5,367.1,368.1,370.1,373.3,366.7z M382.8,342.8c-0.4-2.3-1.5-4.1-4.1-4
		c-2.6,0.1-3.8,2-3.8,4.3c0.1,2.5,1.7,4.5,4.2,4.4C381.6,347.4,382.5,345.2,382.8,342.8z M387.1,353.2c0.2,1,0.3,1.5,0.4,2.3
		c2.3-3.7-0.5-5.3-2.6-7.2c-0.9-0.8-1.8-0.8-2.6-0.1c-3.3,3.1,2.7,4.8-0.3,8.7C384.6,355,385.7,354.2,387.1,353.2z"/>
</g>
</svg>
