<?xml version="1.0" encoding="utf-8"?>
<!-- Generator: Adobe Illustrator 24.2.3, SVG Export Plug-In . SVG Version: 6.00 Build 0)  -->
<svg version="1.1" id="Layer_1" xmlns="http://www.w3.org/2000/svg" xmlns:xlink="http://www.w3.org/1999/xlink" x="0px" y="0px"
	 viewBox="0 0 700 841.9" style="enable-background:new 0 0 700 841.9; fill: #215342;" xml:space="preserve"
	 height="450" width="700" transform="translate(-200, -95)">
<g>
	<path d="M434.7,469.6c3.1-8.7,22.5-22.3,28.1-18.4c9.2,6.3,15.5,3,22.4-2.8c1.8-1.5,4.2-2.1,7.9-1.6c-4.9,1.1-8.2,2.9-11.2,5.2
		c-3,2.3-5.6,5.4-10.6,4.8c2.7,3,4,7.8,8.9,3.1c0.3,0.3,0.7,0.7,1.2,1.1c0.5-0.9,0.9-1.6,1.3-2.5c0.5,1.7,0.9,3.2,1.5,5
		c0.4-0.4,0.8-0.7,1.6-1.4c-0.7,4.6,2.5,7.2,4.6,10.6c0.6-1.1,1-1.9,1.6-3c0.4,1.8-0.9,3.6,0.5,5.4c0.7-0.4,1.3-0.8,2.4-1.5
		c-1.3,4.9-11.6,6.5-4.2,13c1.5-2.3,1.6-6.7,5.5-8.1c5.1-1.8,8.7,0.1,11.6,4.7c2.3,3.7,5.3,7,8.8,10c-0.6-2.1-1.2-4.3-1.8-6.6
		c0.7,0.2,1.2,0.4,2.4,0.8c-3.5-8.5-2.1-17.7-6.1-25.7c-0.5-1-1-2.1,0.1-3.1c1.2-1,2.6-2,4.1-1c2,1.4,3.6,3.3,4.2,5
		c6.2,2.1,5.1,10.7,11.3,11.3c-0.9,3.1-3.9,4.1-4.1,6.9c-1.1-0.4-2.2-2.3-3.4-1c-1.9,2-3.7,4.2-3.5,7.8c2.7-2.3,3.6-5.7,6.9-6.8
		c3.4-3.4,9.4-0.9,12.7,5.5c0.2-0.7,0.4-1.3,0.5-1.7c5.9,6,5.7,12.8,1.4,20.1c13.3,1.8,26.1,0.4,38.9,1.1c-0.6,1.5-1.8,1-2.6,1
		c-15.6,0.1-31.2,0-46.8,0.1c-3.7,0-5.8,3.6-9,5c-3.1,1.4-5.8,2.4-6.2-2.6c-0.1-1.5-1.3-2.4-2.7-2.3c-1.6,0-0.9,1.5-1.3,2.4
		c-0.5,1.2-0.5,3.6-2.1,3c-5.4-2-10.7,0.4-16,0.2c-6.7-0.3-12.5-2.9-18.8-3.6c-4.2-0.4-7.6,1.9-8.7,6.6c-0.6,2.5-2.5,3.7-3.9,1
		c-5.1-9.5-15.1-9-22.9-9.4c-25.2-1.1-50.4-0.4-75.6-0.4c-5.9,0-10.2,5.4-16.1,5.6c-5.7,0.2-9.8,3.4-14.3,6.3c0-0.5,0-1,0-1.5
		c-1.5-0.6-2.3,2.6-4.2,1c-9.9,1.1-16.4,10.1-26.2,12.3c-15.8,3.6-30.5,1.9-44.5-7c0.2,0.7,0.4,1.2,0.7,2.3
		c-5.2-5.8-9.9-11.4-18.6-11c1.4,2.5,2.7,4.7,4.3,7.4c-2.7-2.1-4.9-3.8-7.3-5.6c0,0.7-0.1,1.3-0.1,1.7c-4-2.1-7.8-4.6-11.9-6.1
		c-9.8-3.6-19.8-5.9-30.6-5.4c-15.9,0.7-31.8,0.2-47.7,0.1c-3.5,0-6.7,0.6-9.4,3c-2.5,2.2-5.2,2.2-7.6,0c-5.6-4.8-11.6-3.5-17.5-1.2
		c-4.3,1.7-8.6,0.9-11.7-1.1c-3.7-2.4-4.4-7.8-2.2-11.5c2.8-4.9,6.6-9.2,9.5-14.2c-1.4,4.2-3.4,8.2-2.9,12.7
		c0.5,3.9,1.5,9.7,5.2,9.5c4.5-0.2,8.2-4.8,9.1-9.9c0.5-2.6,0.1-5.4-0.1-8.1c-0.3-4.1-1.6-7.3-7.9-5.5c5.9-3.4,7.2,0.9,10.1,3.2
		c5.7,4.4,5.1,11.6,9.6,17.5c-1.2-7.8-0.2-15-5.6-20.6c-0.8-0.8-2.1-1.2-3-1.9c-1.1-0.8-2.4-1.5-2.1-3.3c0.3-1.4,1-2.2,2.3-2.3
		c1.7-0.2,2.2,1.3,2.7,2.4c0.6,1.2,0.8,2.5,1.6,4.9c0.3-6.4-1-11.8,0.6-17.4c4.7,3.1,10,3.5,17,3c-4.8,1.8-6.9,4-8.2,7.4
		c3.2,0.4,3.9,3.4,5.9,5.2c7.4,2.8,5.9,12.4,12.2,16.1c0.8-0.6,0.8-0.6,5.4,7.7c0.6-2,0.6-2-0.6-8c1,1.5,1.4,2.1,1.8,2.8
		c2.2-10.9-5.3-24.3-15-29.9c-6.7-3.8-14.7-5.2-20.2-11.7c-3.4-4.1-9.1-3.3-14.1-2.4c-1.6,0.3-3.2,0.8-5.4,1.4
		c12.5-7.9,20.8-1.6,29.4,8.4c-0.8-6.5-3-10.4-5.8-14c-1.8-2.3-3.8-4.4-5.7-6.6c-6.5-7.5-6-13,2.3-19.7c-0.8,1.3-1.2,2.1-1.8,2.8
		c-4.7,5.4-3.8,10.5,0.7,15.6c5.3,5.9,11.4,11.3,11.9,20.3c4-7.4,3.4-13.7-1.5-18.6c-9.1-9.2-9.5-12.6-2.3-23.9
		c-0.1,2.4-0.3,4.5-0.3,5.5c6.5-13.4,8.9-29.7,20-42.2c-0.4,1.3-0.7,2.7-1.1,4c0.2,0.1,0.3,0.1,0.5,0.2c0.5-1.3,1-2.5,1.9-4.7
		c-0.7,13,2.6,24.6,5.1,37.8c-0.6-17-1.1-32.5,6.5-47.4c0,1,0,1.5,0,3.9c5.6-18.5,18.9-29.7,29.4-42.8c-2.5,3.6-4.9,7.2-7.4,10.8
		c-12.6,18.1-19.3,38.5-20.8,60.3c-1.5,20.6-8.5,39.1-18.6,56.7c-2.2,3.8-2.4,6.4,2.9,7c4.6-18.4,19.2-33.3,19.4-53.6
		c0.2-15.6,2.1-30.9,8.3-45.5c7.8-18.1,18.4-34.2,32.1-48.3c0.7-0.7,1.3-1.6,2.2-2.7c-1-0.1-1.6-0.2-2.7-0.3
		c7.1-7.1,15.7-10.1,25.4-12.5c-4.2,4.8-8.8,8.8-9.8,16.8c-1,0.9-3.2,3.4-5.9,5.3c-14.8,10.8-21.2,26.5-25.1,43.5
		c-0.4,1.9-0.7,4.1-0.2,5.9c2.7,9.7-0.7,17.7-5.8,25.8c-7.6,12.1-8.3,24.6-1,37.3c2.7,4.6,4.2,9.9,6.4,15.4c2.2-3,3.1-4.9,1.1-8.7
		c-3-5.7-4.3-12.4-6.6-19.6c3.5,4.5,4.8,9,7,13.7c2.1-19.8,0.6-39.4,6.5-58.2c-4.5,13.2-0.9,26.4,0.1,39.6
		c1.2,15-0.3,29.3-11.3,41.1c-1.7,1.8-2.8,4.2-4.6,6.9c12.1-7.2,38.5-40.4,50.4-63c-15.3,8.8-22.2,24-32.8,36
		c6.5-14.8,2.1-35.3,23.2-42.5c-7.5-2.7-12.9-10.9-22.7-7.4c-0.8-11,6.8-18.3,10.6-27c4.3-9.8,14.9-11.7,22.5-17.7
		c-1.4,0.3-2.7,0.6-5,1c7.1-8.9,14-16.7,23.4-22c9.5-5.4,18.8-6.5,27.5,1.5c1.4,1.3,1.6-1.7,2.6-0.4c0.4-1.4,1.5-2.6,1-4.3
		c-1.3-4.1-4.5-5.4-8.4-5.9c-12-1.5-22.9,2.2-33.8,7.5c10.7-14.7,28.8-16.9,49.9-6.4c-0.7-4.9-4.2-7.6-18.3-14.5
		c11-2.3,19.3,3.2,23.8,22.6c0.2-0.7,0.4-1.2,0.7-2.2c2.2,7,3.7,13.5,4.8,21.7c1.6-13.6-3.4-25.4-2-37.8c2,1.1,4.9,1.7,6.2,3.5
		c1.7,2.3-0.3,5.2-1.1,7.8c-0.7,2.6-1.2,5.3-0.5,9c1.5-4.3,3.9-7.1,6.6-9.7c13.7-13.3,31.7-12.4,42.9,3c5.5,7.6,11.3,15,15.6,23.5
		c0.4,0.9,0.8,1.8,1.1,2.6c-1.4,0.7-1.7-0.3-2.1-0.8c-5-6.2-11.4-10.9-18.3-14.8c-2.8-1.6-5.7-3-7.9-5.7c-1.8-2.3-4.6-3.1-7.4-2.3
		c-7.9,2.3-14.2,6.5-16.5,11.4c-0.6,10.9,5.7,15.2,10.3,21.4c0.6-2.2,1-3.8,1.5-5.3c0.7-2.4,1.6-4.3,4.7-4.8c2.3-0.3,3.4-3,3.1-5.1
		c-0.4-3.2-3.9-2.9-6-4.1c-0.7-0.3-1.6-0.2-2.7-0.3c1.5-4.8,4.9-6.1,9.5-6.4c-0.9,1-1.5,1.7-2.5,2.9c10.6,3.5,17.2,11,22.7,19.8
		c-1.6,1.4-3.6-0.5-5.2,1.8c6.2,2.9,10.9,7.6,15.6,12.3c5,5.1,6.2,11.9,6.4,19.6c0.8-2.9,1.4-5.1,2.2-7.9c0.7,1.7,1.2,2.7,1.8,4.2
		c0.1-1.3,0.2-2.1,0.4-3.2c2.1,7.7,1.3,14.4-4.9,19.7c-3.7,3.1-3-2.8-5.6-2.6c-1.3,0.8-1.2,2.6-1.6,3.6c-5.4,0.1-7.9,5.5-12.6,6.3
		c-0.5,0.1,0.1,1.4,0.8,1.7c11.8,5.2,14,16.1,15.9,27.1c0.6,3.2,0.5,6.5,0.4,9.9c-3.8-8.4-7.6-16.8-15.3-23.5
		c3.1,7.7,4.9,15.1,8.4,21.8c2.8,5.3,4.2,11.1,4.1,17.1c0,1.5,0.1,3.5-1.6,4.2c-1.6,0.7-2.8-0.7-5.3-2.5c3.6,5.1,9.4,4.6,11.1,7.7
		c6.8-16.3,1.5-34.1,3.8-51.5c1.4-10.5,4.9-20.3,8.1-31.5c0.7,2.8,1.1,4.6,1.5,6.4c0.1,0,0.2,0,0.3,0c-0.1-1.1-0.1-2.1-0.3-4
		c0.6,1.3,0.9,2,1.3,2.7c0.2-0.3,0.4-0.5,0.4-0.7c0.1-16,0.5-32.1-9.1-46.3c-2.4-3.5-5.8-7.1-3-12c0.3,0.4,0.8,1,1.7,2.3
		c0-4.8-1.9-8.3-4-12.1c18,11.3,31.4,75.4,25,114.2c9.5-28.9,14.3-58.1,0.4-86.9c-8.4-17.6-17-35.9-37.9-44.5
		c2.2,5.7,6.6,9.3,6.8,14.8c-2.6-4.6-5-9.4-7.8-13.7c-3.9-6-8.9-10-16.9-8.4c-1.4,0.3-3.3-1-4.8-1.8c-5.9-3.4-11.9-6.1-19.9-5.2
		c4.3-2.3,7.7-1.7,11-0.4c2.2,0.8,4.4,1.7,6.4,3c3.8,2.4,7.4,4.3,12.2,3.1c2.6-0.6,5.1,0.7,7.3,2.3c12.2,8.7,25.9,15.6,36.2,26.8
		c10.4,11.2,20.3,23,30.7,34.2c10.5,11.4,22.1,22,26.6,37.5c1.1,3.9,1.4,8,1.9,12.1c-8.6-37.8-40.9-57.9-62.9-85.7
		c9.5,18.2,23.6,34,26.4,55.3c-0.1-1.4-0.3-2.7-0.4-4.1c2.1,6.5,2.6,13.1,2.7,19.8c0-2.2,0-4.3,0-6.5c0.1,0,0.2,0,0.3,0
		c0.6,4.9,1.2,9.7,1.9,15.6c0.4-4.2,0.6-7.4,0.9-10.7c0.1,0,0.3,0,0.4,0c0,2.5,0,5,0,7.5c3.1-9,2.4-18,0.3-27.4
		c5.5,5.6,8.1,34.5,4.5,50.9c2.9-6.1,3.4-11.1,3.6-16c0.6-12.7-0.8-25.1-5-37.2c-0.3-0.9-0.9-1.8,0.1-2.5c0.9-0.6,1.4,0.2,2,0.8
		c13.2,12.3,14.9,27.5,11.2,44c-0.5,2.1-1,4.1-1.9,7.3c3.9-4.8,4.9-9.6,6.3-14.4c0.2,0.5,0.3,0.8,0.7,1.6c0.4-2.9,0.8-5.2,1.3-8.7
		c1.9,4.5,1.4,8,0.2,11.4c-2.3,6.9-6.9,12.5-11,18.3c-5.7,8-9.2,16.9-11,26.9c9.9-9.4,24.3-33.2,27.8-46c0.9,6.5-1.3,11.9-4.5,16.7
		c-6.2,9.3-13.1,18.1-19.3,27.4c-5,7.5-10.1,15.3-4.9,25.1c2.1-2.4,2.6-6.1,5.8-7.8c-4.1,8.1-7.6,16.3-9.2,25.3
		c1.6-4,3.3-7.9,4.9-11.9c0.2,0.1,0.5,0.2,0.7,0.3c-0.9,2.6-1.8,5.1-2.7,7.7c0.1,0,0.2,0.1,0.3,0.1c0.7-1.3,1.3-2.6,2.2-4.4
		c0.3,2.8-1.8,4.8-0.2,8.1c1.9-8.6,5.1-15.7,9.5-22.3c1-1.5,0.2-2.8-2.5-2.6c2.7-2.9,5.1-5.5,7.8-8.5c-0.6,6-1.1,11.4-1.7,17.7
		c2.4-3.2,4.2-5.6,6-8c0.2,0.1,0.4,0.3,0.6,0.4c-0.8,1.5-1.6,2.9-2.7,4.9c1.3-0.6,2.2-0.9,4.6-2c-6.7,6.1-10.6,11.8-10,19.7
		c1.6-6.7,7.6-10.5,10.3-16.4c2-4.4,4.9-6,9.6-4.9c8.3,1.9,7.6,8.9,8.7,13.2c2.3,2.7,3.8,4.4,5.5,6.4c-0.5-7.9-5.5-15-3-23.1
		c0.7,0.5,1.4,0.9,2.1,1.3c0.9-2.7,0.9-5.2,0.3-7.7c-1.3-6-3.4-11.4-9.6-13.9c-5.2-2.2-9.6,0-13.5,3.2
		C445.1,460.4,440,465,434.7,469.6z M279,374c-0.1,3-0.8,5.3-3.9,6.7c-24.4,10.5-39.8,30-50.8,53.1c-4.5,9.4-8,19.2-13.5,28.1
		c-2.2,3.6-3.5,7.4,0.8,10.7c3.1,2.4,6,5.7,11.3,3.9c1.7,0.6,4.1,1.8,6.5,2c17.1,1.5,32.6-4,47.2-12.3c1.9-1.1,3.6-3,2.7-6.3
		c-3.6,3-8.3,1.6-11.5,3.2c-12.2,6.3-24.8,10-38.6,9.2c-5.5-0.3-9.7-3-13.5-6.8c9,2,17.8,1.3,26.6-0.7c21.7-4.9,23.3-5.3,24-8.9
		c-13.5,0.3-25.9,6.7-39.3,7c-0.1-3.1,2.5-2.5,4.4-3c8.7-2.2,18-2.4,25.2-8.9c1.4-1.3,3.1-2.5,2.5-5.3c-5.8,1.3-10.5,5.2-16.5,6.1
		c-5.6,0.8-10.9,2.4-16.6,0.7c10-3.1,20-6.2,29.8-12.2c-5.5-1.4-9.9,1.1-14.9,0.4c5.5-3,7.8-7.8,10.5-12.6c-0.7,0-1.3,0-2.4,0
		c7.5-18.9,21.3-30,40.8-32c25.7-2.6,44.4,7.9,52.3,30.6c1.5,4.3,3.4,7.2,7.4,9c2.3,1,4,3,5,5.6c-1.8-0.5-2.8,2.6-4.5,0.9
		c-1.3-1.3-2.1-3-3.4-4.4c-0.4-0.4-1.5-0.4-2.3-0.3c-1.7,0.1-3.3,0-4.8-1.1c-3.3-2.5-6.9-1.2-10.2,0c-2.1,0.8-0.9,2.6,0.4,2.6
		c4.8,0.3,7.8,4.4,12.2,5.9c4.9,1.7,10.5,2.6,15.1,5.7c0.9,0.6,2.6,0.8,2.4,2c-0.2,1.5-1.9,2.4-3.2,2.2c-4.6-0.6-9.9-0.4-13.4-2.7
		c-3.4-2.3-7-1.8-10.2-3.6c-0.5-0.3-1.6-0.1-2,0.3c-0.8,0.7,0,1.3,0.6,1.8c6.2,5.4,12.5,10.5,21.3,11.2c2.5,0.2,5,1.1,7.5,1.7
		c-4.8,0.1-9.6-0.4-14.2-1.3c-3.5-0.6-7.6-0.3-9.9-3.3c-2.2-2.9-4.8-2.7-7.6-2.8c-0.7,0-1.3,0.4-2,0.7c0.3,0.6,0.4,1.5,0.9,1.9
		c6.8,4.4,12.8,10.3,21.3,11.7c2.1,0.3,4.3,0.5,6.4,0.7c2.1,0.2,4.2,0.4,6.3,0.6c-12.4,1.6-24.4-0.3-36.1-4.4c-1,2.6,0.8,4,2.6,4.8
		c6,2.8,12.1,5.6,18.9,6.3c2.4,0.2,4.9,0.4,7.3,0.5c2.4,0.1,4.8,0,7.2,0c-14.1,4.6-27.1,0-40.2-3.9c-0.9,4.2,17.3,16.3,22.9,14.5
		c-0.2-0.4-0.4-0.8-0.7-1.4c9.3,0.4,18.4,0.7,25.5-7.4c-1.2-0.6-2-1-2.8-1.4c2.5-2.5,2.6-5.5,2-8.7c-1.1-5-2.4-10.1-2.9-15.2
		c-2.1-18.9-6.4-37-17.3-53c-7.5-11-18.7-18.8-25.7-30.2c-1.5-2.4-4.4-3.5-7.3-3.8c-1.5-0.2-3.2,0.1-3.8,1.7
		c-0.6,1.7,1.3,1.8,2.2,2.4c2,1.3,4.2,2.4,6.3,3.7c0.2,0.1,0.3,0.3,0.5,0.6c-1-0.1-1.8-0.2-2.8-0.4c2.5,3.5,6.5,5.3,8.6,9.5
		c-12.6-8.2-25.7-11.1-39.6-8.2c-1.9-3.8,9.6-6.5,1.1-10c-5.2-2.1-7.9,4.3-10.9,8C277,375.2,278,374.6,279,374z M313.7,423.9
		c-0.2,1.9,0.8,2.7,1.8,3.3c5.1,2.8,10.7,4.7,15.4,0.2c4.7-4.4,2.1-9.8-0.4-14.3c-11.7-20.8-52.7-22.7-66.4-3.1
		c-3.3,4.8-4.4,10-2.4,16.1c0.9-3.5,1.6-6.5,2.8-11c1,3.5,1.5,5.4,2,7.3c1.4,5.2,5,5.5,9.3,4.1c1.3-0.4,3-1.2,2.7-2.8
		c-0.2-1.5-2-1.4-3.3-1.6c-3.5-0.4-7-0.9-8.3-5c-0.8-2.5-0.6-4.9,1.5-6.4c3.4-2.5,6.2-6.7,11.6-4.3c2.8,1.3,5.9,3.2,8.7,2.9
		c7.4-0.8,14.7,0.1,22.1-1c4.3-0.6,9.1,1,11.8,5.2c2,3,2.7,6.5,0.7,9.6C320.9,426.7,317.2,424.6,313.7,423.9z M409.6,436
		c-3.1,5.4-7.7,9.6-12.7,15.5c2.7-1,3.9-1.4,5.4-2c-1.6,5.1-3.5,9.7-4.4,14.5c-3.1,15.2-1.3,32,20.8,36.2c1.2,0.2,2.6,1.2,3.1-1
		c2.2-9.8,6-19.6,0.2-29.4c-0.4-0.6-0.4-1.4-0.6-2.2c-3.9-12.6-4.7-25.5-3.9-40.4c-5.7,12.9-8.9,24.5-10.9,37.6
		c1.1-2.4,1.7-3.7,2.8-6.1c0.2,4.8-0.8,8.6,0.4,12.3c0.3-1.2,0.6-2.2,1-4c0.6,4,1.2,7.3,1.7,10.7c0.7-5.5,1.4-10.7,2-16
		c1.6,8.1,2.1,16.1,2.3,24.2c0.1,3.6-0.3,7.7-4.6,8.6c-4.1,0.8-6.2-2.7-7.9-5.6c-4.5-7.8-5-16.4-2.9-24.9
		C403.6,454.5,406.8,445.3,409.6,436z M291.4,510.5c-2.1-2.4-1.9-6.4-6.3-7c-3.6-0.5-7-0.2-9.6,2.1c-3,2.7-7.7,6.1-7.5,8.9
		c0.2,3.2,6.2,3.7,9.8,4.6c9,2.2,18.2,4,27.2,0c3.8-1.7,6.6-5.9,4.2-8.7c-3.2-3.7-8.5-5.8-13.9-5.9
		C291.4,504.6,293.1,508.6,291.4,510.5z M509.4,510.5c2.9-6.2-0.5-25.1-5.2-29.6c-2.9-2.8-8.8-1.9-10.3,1.4
		C488.2,495,494.5,503,509.4,510.5z M463.7,516.1c5-6.9,2.7-31.8-3.7-37.1c-3.2-2.7-6.1-1.7-7.6,2.4
		C449.1,490.5,455.6,510.4,463.7,516.1z M276.1,477c-9.7,7.4-19.7,11.8-30.3,15.1c-4,1.3-8.1,1.6-12.2,1.8c-4,0.2-7.8-0.5-11.5-1.9
		c-3.9-1.4-7.5-3.4-10.4-6.5c-2.9-2.9-4.6-6.4-5.5-10.4c1,16.2,11.9,22,26,24.5c-1.8,0.2-3.5,0.3-6.3,0.6
		C243.5,502.2,263.8,492.8,276.1,477z M386.4,454.6c11.2-14.6,13.1-39.5,4-52.6c-2.6,9.8-4.2,19.4-4.1,30.1c1.4-1,2.1-1.5,3.1-2.2
		C388.4,438.3,387.5,446.2,386.4,454.6z M517.2,512.3c7.5-4,13.4-8.1,17.1-14.5c2.9-5.1,3.1-10.5-0.5-15.3c-1.8-2.5-5.2-4.3-6.8,0
		C523.4,491.9,521.8,502,517.2,512.3z M383.3,503.7c1.5-8.6-6.4-16.2-13-12.8c-9.1,4.7-18.1,9.5-28,12.3c2.5-0.2,5-0.5,9.6-0.9
		c-4,1.4-6,2.1-8.1,2.9c0.1,0.2,0.1,0.4,0.2,0.6c3.6-1.1,7.3-2.1,11.9-3.5c-1.3,1-1.7,1.3-2.2,1.6
		C363.5,500.3,373.1,496,383.3,503.7z M133.7,510.9c7.7-7.2,12.1-14.3,12.1-23.5c0-2.2,0.7-5.2-2.3-6c-3.4-0.9-6.7,0.3-8.1,3.5
		C131.8,492.8,133.3,501.2,133.7,510.9z M312.7,482.6c11.1,15.4,43.7,18.2,57.2,5.1c1.7-1.6,0.7-3.4,0.5-4.8
		C351.1,496.6,332,492.2,312.7,482.6z M218,480.6c10.3,9.9,27.4,8.9,51.4-2.4c6.9-3.3,9.9-6.3,9.7-9.3
		C260,477.8,241.3,488.6,218,480.6z M222.2,388.1c6,3.6,12,2.6,18,1.3c2.3-0.5,4.7-1.1,6.9-0.6c1.8,0.4,3-0.2,3.5-1.3
		c5-9.1-1.2-20.6-11.3-21.1c6.4,4.8,8.1,9.5,5.4,15.9c-2.3,5.6-7.3,6.8-12.6,6.2c-6.8-0.8-8.2-6.1-8.7-13.3
		c-0.7,4.9-1.2,8.4-1.7,11.8c-2.1,0.5-3.8-1.8-6-0.3c2,1.9,4.1,3,6.7,3.8C222.3,389.7,222.3,389.1,222.2,388.1z M200.4,473.4
		c0.4-1,1.8-1.2,3.6,0.4c0.8-0.9,3-0.8,2.6-2.5c-0.6-2.4-1.1-5-4.5-5.3c-10.3-0.6-16.3,7.1-15.4,20.3c0.5-2.1,0.9-3.8,1.3-5.6
		c0.2,3.7-0.9,7.6,2.6,10.6C193.7,485.6,191.6,477.3,200.4,473.4z M316.7,447.3c6.3-5.9,10.2-12.4,15.9-17.2c-4,2.3-8,3.9-12.3,5.1
		c-10,2.9-12.9,1.1-14.8-9.1c-0.1-0.6-0.1-1.1-0.1-1.7c0-1.2-0.3-2.4-1.8-2.1c-1.4,0.3-2.7,0.7-2.2,2.8c1,3.8,1.5,7.8,2.6,11.5
		c0.9,3.2,3.4,4.7,6.8,4.8C313.9,441.5,317.6,441,316.7,447.3z M277.2,329.5c-4.9,1.1-9.4,1.7-13.8,3.1c-2.7,0.8-3.4,3.6-1.4,5.5
		c3.5,3.5,6.9,7,8.1,12.1C274.9,344.1,277.4,337.7,277.2,329.5z M286.4,452.4c-1.6-1.6-3.7-3.4-5.4-5.6c-1.5-2-3.7-5.2-0.4-6.6
		c7.6-3.2,8.9-9.2,9.1-16.2c0-1.2,0-2.5-2-2.8c-0.8,5.2-0.5,12-5.8,14c-4.8,1.8-10.6-0.5-17.4-3.5
		C274.2,438.2,275.8,450.2,286.4,452.4z M356.3,323.3c-5.3-8-17.9-13.8-24.3-11.6c-8.1,2.9-16.8,12.8-16.5,19.8
		c4.8-7.6,10.7-12.8,18.8-15.1C343.2,314,350,317.5,356.3,323.3z M374.6,388.4c-1.3-0.1-2.4-0.2-3.5-0.3c-1.3-10.9-1.4-11-4.5-13
		c2,8.2,0.4,14.1-4.8,17c-5.3,3-10.8,1.2-17.3-5.5c-0.2,2.5-0.3,4.8-0.5,7.2C351.2,397,372.9,393.4,374.6,388.4z M192.9,502.4
		c1.7-9.6,1.7-9.6,15.2-8.7c-2.4-2.9-4-6-4.6-9.6c-0.2-1.2-1-1.6-2.3-1.5c-4.9,0.4-7.2,3.8-8.8,7.7
		C190.9,494.2,189.8,498.3,192.9,502.4z M382.4,493.4c0.6-4.6,0.4-8.9-0.8-13.2c-1.3-4.7-3.3-8.3-8.9-7.8c-0.9,0.1-2.4,0.5-2.4,0.8
		c0,1.4,0,3.9,0.7,4.2c6,2.1,7,7.4,8.2,12.5C379.6,491.4,380.6,492.6,382.4,493.4z M227.3,378.2c0.1,4.2,1.4,6.8,4.9,6.9
		c6,0.3,8.8-4.1,10.6-8.8c1-2.6-0.4-5.4-3-6.9c-3-1.7-5,0-6.6,2.4c1.7,2.9,7.7,1.3,6.7,6.6c-0.5,2.6-2.8,4-5,4.4
		C231.9,383.2,229.4,381.5,227.3,378.2z M361.5,381.9c-4.2,4.7-8.1,6-12.3,1.4c-1.5,1.5-0.6,2.6,0.2,3.6c1.8,2.1,4.3,2.2,6.7,1.4
		C358.9,387.4,360.9,385.7,361.5,381.9z M292.4,459.8c0.3-4.9,0.7-9.7,1-14.6C290.9,450,292,454.9,292.4,459.8z M359.8,376
		c-0.5-0.7-0.1-2.8-2.3-2.8c-1.5,0-3.1,0.7-2.9,2.4c0.3,1.9,2.6,1.7,4,2.4C359.5,378.5,360.1,377.6,359.8,376z"/>
	<path d="M39.8,487.5c2.2-4.7,4.5-9.3,7.1-14.9c-9.7,10.9-12.7,20.8-9,31c0.6-8,4-13.9,8-19.6c2.4-3.4,4.9-5.3,8.2-1.9
		c7,0.2,5.7-5,6.3-9c0.1-0.8,0.2-1.8-0.2-2.4c-2.8-4.3-1.2-6.9,3.3-7.7c3.4-0.6,4.7-3.6,7.7-5.5c-1.2,2.2-2.1,3.9-3.2,6
		c1.1-0.3,1.6-0.5,2.2-0.6c0.1,0.9,0.2,1.8,0.3,2.9c1-0.2,2.4-1.5,2.7,0.3c0.4,2.5,4.8,3.8,2.2,7c-1.2,1.5-2.7,2.8-4.2,4.1
		c-6.5,5.4-12.7,17.4-12.2,24.9c1.2-3.1,2.1-5.4,2.9-7.8c2.3-7,8.1-10.3,14-13.4c3.5-1.8,7.1-0.8,9.5,2.5c3.3,4.6,8.8,7.8,8.8,11.9
		c-3.7-5.7-3.4-14.4-2.2-22.7c1.6,0.9,4.6-5.5,4.5-11.3c0-1-0.1-2.1-0.2-2.7c3.2-1.2,6.2-2.3,11.1-4.1c-6.9,5.2-1.9,11.2-4.6,16.5
		c1-0.4,1.5-0.5,2.2-0.8c-0.5,1.4-0.9,2.5-1.5,4.6c1.2-1.4,1.8-2.1,2.6-3.1c0.4,7-4.7,11.4-6.9,16.9c-2,4.7-4,9.3-1.9,14.6
		c0.8,2-1.6,3.2-2.9,3.8c-4.2,1.8-10.2,1.9-12.5,4.9c-6.9,8.9-9.8-0.3-14.1-2.2c-6.3-2.8-7.7-2.3-8.3,4.6c-2.1,0-3.7-1.2-4.7-2.6
		c-3.1-4.4-7.4-4.7-12.1-4.6c-8.6,0-17.3-0.2-25.9-0.3c-0.7,0-1.3-0.2-2-1.1c7.3,0,14.6,0,22.6,0c-7.5-18.3,5.7-29.3,13.5-42
		c2.5-4.2,9.3-5.8,18.2-5.8c-3.9,1-6.2,1.5-8.5,2.1c-8.4,2.1-11.3,6.8-9.3,14.8c0.4,1.7-0.9,2.8-1.8,3.9
		C46.5,482,42.4,483.9,39.8,487.5z M71.2,499.8c-0.3,4.6,0.6,9,2.4,13.2c1.1,2.5,2.7,2.8,3.9,0.4c3-5.9,6.7-11.5,8.5-18
		c1-3.7,0.8-7.5-1.3-10.9c-1.3-2.2-3.4-3.1-5.9-3.1c-2.3,0-3.4,1.7-4.3,3.5C72.2,489.6,71,494.5,71.2,499.8z M58.5,512.5
		c-0.3-6.1-0.4-11.8-1.1-17.4c-0.5-4.1-1.9-8.2-4.1-11.8c-0.7-1.2-1.7-1.7-3-1.5c-1,0.2-1.8,0.6-2.2,1.8
		C44,493.3,48.7,506.9,58.5,512.5z"/>
	<path d="M208.7,365c-1.6-12,14-37.7,25.1-41.9c-2,3-5.8,4.7-5.6,9c0.9-0.6,1.7-1.2,2.9-2.1c-4.5,5.7-9.1,10.7-12.7,16.4
		C214.9,352,212.2,358.2,208.7,365z"/>
	<path d="M127.2,418.3c6.9-9.7,11.5-20.6,15.4-31.7c5.3-15,17.1-24.5,28.9-34.2C148.8,369.1,142.6,396.7,127.2,418.3z"/>
	<path d="M249.5,295.1c6.9-4.2,13.9-7.6,22.2-5.7c4.3,0.9,8.1-1.1,12.1-1.8c5.8-1,11-0.3,15.5,3.8c1.4,1.3,2.6,1.5,4.5,1.1
		c6-1.5,11.9-0.9,17.6,1.8c-6.3-1.1-12.6-2.7-19.3-0.7c2.6,3.4,5.4,6.4,5.8,11.2c-7.8-14.2-15.2-19-26.7-15.7
		C270.6,291.9,259.1,288.5,249.5,295.1z"/>
	<path d="M255.4,303.9c9.9-10.4,27-12.3,37.6-4.9C280.2,297.3,268.1,298,255.4,303.9z"/>
	<path d="M247,296.4c-9.5,3.9-18.8,1.5-26.9,5.4c-8.3,4-12.7,11.8-18.3,20.3C212.3,300.3,215.8,296.4,247,296.4z"/>
	<path d="M543.1,457.6c-1.5-0.8-2-1.1-3.2-1.8c1.9,2.6,7.2,18.2,2.9,31.4c2.4-13.2-1.7-27-4.9-30.4c-5.3-5.7-12.4-5.8-19.1-3
		c-5,2.1-8.8,2-12.6-2.1c-2-2.2-5-3.5-7.7-5.3c4,0.4,7,2.6,9.6,5.1c3.4,3.2,6.8,3.3,10.8,1.2C527.8,448.2,535.2,449.6,543.1,457.6z"
		/>
	<path d="M170.1,350.2c6.6-14.5,22-18.2,33-27.4C193.5,333.6,177.8,337,170.1,350.2z"/>
	<path d="M107.2,452.9c-5.4,2.7-9.1,1.9-12,0c-5.7-3.8-11.1-3.9-16.9-0.9c4.8-3.3,9.7-5.6,15.4-1.9
		C97.2,452.4,101.1,453.6,107.2,452.9z"/>
	<path d="M352.6,308.9c4.3,3,6.2,7.6,8.1,12.2C358,317,355.3,312.9,352.6,308.9z"/>
	<path d="M343.2,416.8c-6.8-11.4-16.2-20.1-29.1-22.9c-12.2-2.7-25.2-3.9-37.3-0.5c-10.3,2.9-17.6,11.1-23.6,20.1
		c-4.1,6.2-8.4,12.3-14.1,17.1c-1.2,1.1-2.7,1.9-5,3.6c10.2-17.1,19-33.8,36.2-43.6c7-4,13.7-7.7,22.2-8c3.8-0.1,7,2.1,10,1.5
		c10.6-2.3,17.1,5,24.4,9.8C335,399.3,338.6,408.5,343.2,416.8z"/>
</g>
</svg>
