<?xml version="1.0" encoding="utf-8"?>
<!-- Generator: Adobe Illustrator 24.2.3, SVG Export Plug-In . SVG Version: 6.00 Build 0)  -->
<svg version="1.1" id="Layer_1" xmlns="http://www.w3.org/2000/svg" xmlns:xlink="http://www.w3.org/1999/xlink" x="0px" y="0px"
	 viewBox="0 0 595.3 841.9" style="enable-background:new 0 0 595.3 841.9; fill: #215342;" xml:space="preserve"
	 height="325" width="700" transform="translate(-225, -25)">
<g>
	<path d="M175.9,524.9c2.3,1.7,0.5,3.8,0.5,5.9c2.1-0.6,2.5-2.8,4-3.8c-0.8,4.1-1.3,8.3-2.4,12.3c-1.4,5.1,0.5,9.9,0.6,14.9
		c0,0.6,0.3,1.4,0.7,1.6c9.5,5.4,8.7,15.6,10.8,24.3c1.1,4.6,2,8.6,7.2,9.7c5.5,1.2,9.5-1.4,11.7-6c6.4-13.2,13-26.4,13-41.8
		c0-7.2,1.2-14.4,1.9-21.8c0.4,1.5,0.7,2.8,1.3,5c0.3-7.4-4.5-13.3-2.6-21c0.8,2.3,1.4,3.9,2,5.4c-0.8-14.3,0.6-27.9,10-39.9
		c15.8,16.9,34.4,21.7,55.6,11.8c10.5-4.9,19.7-11.6,22.9-24.4c-8.1,0.2-15.7-0.3-22.7-3.8c-8.6-4.3-15.5-10.4-19.2-19.8
		c-2.1-5.5-6.1-10.2-7.1-16.1c-2.9-17.1,4.1-29.3,22.1-34.7c13.9-4.2,28.4-6.1,43-4.3c17.1,2.1,28.4,17.1,24.8,34.6
		c-2.8,13.4-7.4,26.6-19.1,35.8c-6.3,5-13.4,7.5-21.9,8.1c4.2,9.8,12.1,14.4,20.8,17.5c15.7,5.6,29.6,2.1,41.6-9.6
		c2.5,3.2,4.2,6.9,4.6,10.8c0.2,1.7-2.2,3.8-3.9,5.3c-5.7,5.2-6.9,9.8-2.7,15c-1.5-0.9-2.3-1.4-3.2-1.9c-1,2.1,0.9,2.8,1.6,4.3
		c-0.8,0.1-1.5,0.2-1.8,0.2c-1.5,8,5.6,8.6,10.1,11.7c-0.8,0.5-1.5,1-3.2,2.1c-3,0.1-7.1,2.1-13.1,1.6c2.3,1.6,3.2,2.3,4.3,3
		c-1.5,1.4-3.4,0.6-5.1,1.3c1.6,1.2-0.2,1.6-0.6,2.2c-1.7,2.3-0.6,4.6,0,6.8c3.9,15.3-1.1,32.5-16.1,39c-3,1.3-1.9,4.1-1.6,6.7
		c0.8-1.8,1.5-3.5,2.1-4.8c1,8.3,2.6,16.9,2.9,25.8c0.3,5.8,3.4,11.7,10.7,13.9c4.1,1.2,5.9,6.5,10.4,8.7c7.1-0.7,6.7-9.6,12.4-12.5
		c0.2,0.5,0.4,1.1,0.8,2c2.4-2.7,4.7-5.3,7.1-8.1c0.3,2.2,0.6,3.9,0.8,5.9c2.9-0.7,1.5-3.5,2.9-4.9c1.1,9-0.1,17.6-4.6,25.9
		c9.9-4.8,20.6-44.5,18.2-73.6c-0.3,1.8-0.4,2.7-0.6,3.6c0.9-11.7-3.3-22-9.5-32.2c2.8,0.6,3.6,2.7,4.8,4.2
		c6.2,7.9,9.3,17.6,9.7,26.9c0.5,12.5-1,25.3-5.2,37.4c-3.6,10.4-5.9,21.3-12.4,30.8c2.2-0.3,2.2-0.3,6.8-8.4
		c-0.7,3.9-2.3,7.2-1.4,9.4c1.2,3-0.8,5.3,0,7.9c1-3.9,2-7.7,3-11.6c0.2,0,0.3,0,0.5,0.1c0,2.1,0,4.2,0,7.9c1.1-3.8,1.8-6.1,2.6-8.9
		c1.2,2-0.6,4.1,1.4,5.7c0.5-1.2,1-2.2,1.5-3.6c0.7,1.1,0.2,3.5,2.8,1.5c-0.4,2.3-0.6,3.8-0.9,5.3c8.8-14.4,13.7-30.4,16.8-47
		c0.6,0,1.3,0,1.9,0c0.1,0.8,0.1,1.5,0.3,3.3c0.9-2.2,1.2-2.7,1.4-3.3c0.7,0.8,1.4,1.5,2.2,2.4c0.2-0.7,0.4-1.3,0.7-2
		c2.8,8.6,8.1,16.3,6,25.9c-0.6,2.8-1.5,5.2-3.2,7.5c-3.6,4.8-3.5,4.9-3.7,11c9.7-10.6,11.6-23.7,12.8-36.9
		c1.2-13.2,0.9-26.3-2.8-40.4c4.1,4,5.3,8.1,6.7,12.5c-0.8-0.4-1.2-0.6-1.9-0.9c0.1,4,2.9,6.5,5,10.8c-1.7-1.9-2.6-2.9-3.9-4.4
		c0.4,5.9,4.1,10.8,2.1,16.5c-0.4-0.7-0.8-1.3-1.4-2.2c-0.8,4.5,1.1,8.4,1.4,13.1c-0.8-1.2-1.3-1.7-1.9-2.6
		c-2.4,12.4-4.7,24.5-12.6,34.7c4.8,0.3,4.8,0.3,8-9.4c-0.4,2.8-0.9,5.6-1.4,8.7c5.5-1.7,9.6-4.2,10.9-9.9c0.3-1.6,1-3.1,1.4-4.6
		c1.4-5.8,5-10.5,8.6-14.8c2.6-3.1,4.9,0.6,6.1,2.9c1.8,3.4,1.4,7.4,1.8,11.7c5.2-4.8,7.3-10.7,7.7-17c1.4-19.5-1.5-38.2-12.7-54.9
		c-0.9-1.4-0.5-2.6-1-4.2c11,11.5,14.6,25.6,16,40.5c0.9,9.8,1.4,19.6-2.3,29.1c-1.1,2.9-2.6,6-5.3,7.5c-3.8,2.1-4,5.4-4.5,9
		c-0.8,6.1-2.4,12-6.4,16.9c-1.6,2-3.7,3.3-6.3,2.6c-2.4-0.6-3.3-2.6-4.1-4.8c-1.2-3.7-1-7.5-1.3-11.7c-6,4.1-12,7.6-19.3,7.8
		c-1.5,0-1.4,1.6-1.7,2.6c-2.5,7.1-5.5,14.1-10.8,19.6c-2.3,2.4-5,5.7-8.6,4.3c-3.6-1.4-3-5.5-3.3-8.7c-0.1-0.7-0.1-1.4-0.1-2.3
		c-5.1,1.4-9.7,1.2-13.4-2.8c-3.4-3.6-4.2-8.5-5.9-13.4c-3.8,3.8-7.2,7.5-10.9,10.7c-2.2,1.9-5,5.3-8,3.1c-2.5-1.9-0.3-5.5,0.6-8.1
		c1.3-4.3,3.1-8.4,4.6-12.4c-14.4-3.5-24.2-12-29.3-25.5c-2.1-5.4-4.8-10-8.8-14.1c-1.7-1.8-3.8-3.6-4.8-5.8
		c-2.6-6.1-7.3-6.9-13-6.5c-1.8,0.1-3.1,0.4-4.4,1.8c-4.2,4.7-10.5,5.7-16.5,2.6c-2.4-1.2-4.9-2.7-6.6-4.6
		c-5.8-6.5-12.4-12-19.3-17.2c-1-0.8-2.3-1.6-2.7-2.8c-2.7-6.5-8.2-6.6-14-6.4c-9.2,0.2-18.5,0.2-27.7,0.1c-2.5,0-3.3,0.9-4,3.2
		c-3.5,12.5-6.9,25-13.1,36.5c-2.3,4.3-5.3,7.8-10.5,8.6c-3.7,0.5-6.6-0.8-8.8-3.9c0,4.5,0.1,8.9,0,13.2c-0.1,2.4,0.5,5.6-2.3,6.7
		c-3,1.1-4.6-1.7-6.3-3.6c-0.7-0.8-1.4-1.7-2.1-2.5c-8.1,13-15.5,18.2-21.7,14.9c9.9-1.5,15.5-7.7,19.2-16.1
		c0.8-1.7,0.7-3.2,0.2-4.9c-3.6-12.3-5.4-24.8-5.2-37.7c0-2.5-0.5-5.3-1.6-7.5c-2.8-5.6-2.7-11.5-3.1-17.5c-0.2-2.7,1.9-4.3,3.4-6.1
		C173.5,526.7,174.7,525.8,175.9,524.9z M307.7,491.8c-9.2-1-17.7,1.3-26.1-1.2c-2.2-0.7-4.5-0.6-5.6,2c-3.9,8.8-8.8,17.2-10.7,26.8
		c-1.9,9.3-1.3,18.1,6.3,25.3c5.5,5.1,10.5,10.7,15.8,16.1c4,4.1,8.5,7.6,14.2,9.3c7.8,2.4,14.2-2.6,13.7-10.7
		c-0.3-4.3-0.4-8.6-0.9-12.9c-0.4-4.3-1.1-8.5-1.6-12.8c-0.3,0-0.6,0-0.9,0c-0.3,0.8-0.6,1.6-0.8,2.5c-0.4,1.3,0.1,3.6-2.2,3.2
		c-1.9-0.4-1.5-2.4-1.4-3.8c0-0.9,0.3-1.8,0.4-2.7C309.5,519,308.4,505.4,307.7,491.8z M318.7,494.7c-0.2,0.1-0.3,0.3-0.5,0.4
		c2.6,4.8,5.1,9.5,7.7,14.3c-0.2,0.1-0.4,0.2-0.5,0.3c-2.9-4.8-5.8-9.6-9.4-15.7c1.2,7.6,4.5,12.9,6.9,18.4
		c-2.9-3.4-4.4-7.6-6.7-11.7c1,2.5-2.3,0.7-2.1,2.8c0.2,3.3-0.7,6.6-0.8,9.9c-0.1,15.5,1.7,30.9,3.9,46.2c1.3,9,1.8,9.2,10.9,7.4
		c3.4-0.7,6.3-1.5,8.7-5c2.9-4.1,3.1-8.7,5.1-13.5c1.4,2.8,2.5,5.1,3.7,7.3c0.4,0.9,1,2.1,2.2,1.5c1.2-0.6,3.3-1.4,2.9-2.6
		c-1.3-3.9,2.4-5.1,3.3-7.6c1.4,0.2,0.5,2,2.2,1.8c1.1-0.2,1.4-1.5,1.7-2.6c1.6-4.7,1.8-9.5,0.8-14.3c-3.6-17.6-11.5-33.5-20.9-48.7
		c-0.8-1.3-1.7-2.7-3.9-1.8c0.6,1.2,1.2,2.3,1.6,3.4c0.4,1.3,0.3,3.5-1.4,2.4c-5.8-3.5-5.1,1.6-6.2,4.5c-2.2-2-4.1-3.9-7.1-6.7
		c1.7,4.8,4.8,6.8,6.2,10.1c-2.3-2.1-4.5-4.3-6.8-6.4c-0.2,0.1-0.4,0.3-0.6,0.4c3.1,4.3,6.2,8.6,9.3,12.9c-0.2,0.1-0.3,0.2-0.5,0.4
		c-3.3-4-6.5-8-10.5-12.9c2.6,6.4,7,10.2,10.2,16.4C324.4,501.7,321.5,498.2,318.7,494.7z M349.6,403.6c-1.8-4-3.1-7.6-5-10.9
		c-2.1-3.9-6-6.6-9.9-4.3c-3,1.7-5.7,1.6-8.6,1.6c-2.6,0-5,0.7-7.3,1.5c-10,3.3-20.5,4.7-30.8,6.9c-1.4,0.3-3.5,1-4.3-1
		c-0.7-1.7,0.9-2.7,2-3.7c4.1-3.9,8.9-6.7,13.8-9.3c-8,2.4-15.5,5.6-20.5,12.9c-0.6,0.9-1.1,2.3-1,3.4c0.3,3.2-1.4,3.5-3.9,3.2
		c-1-0.1-2.2-1.2-2.9,0.2c-0.7,1.4-0.1,2.8,0.8,3.9c1.8,2.1,3.5,1.5,5.5,0.1c8.5-6.3,19.1-5.5,29-9.1c-0.4,2.9-0.7,5-1,7.2
		c-5.2,0.4-10.4-0.6-15.6,0.2c-10.7,1.6-18.8,11.3-13.2,17.4c-0.1-8.1,2.3-14.1,11-14.6c5.6-0.3,10.6,5.2,13.5,14.8
		c1.7-5.6-1.3-9.1-4-13.2c3.6,0.2,6.6,1.5,9.5-0.1c8-4.7,17.2-6,25.8-8.9c7.7-2.6,14.2,2.2,14.7,10.2c0.1,1.3,0.2,2.5,2.1,2.4
		c2.5-5,2.8-10.2,0.9-15.7C349,400.1,349.9,401.7,349.6,403.6z M234.6,476.6c0.4,1.3,0.4,1.7,0.6,2c5.3,12.3,10,24.7,12.8,37.8
		c1.6,7.3,4.2,14.2,9.1,20.1c2.4,2.9,5.5,4.9,9.3,7.4c-1.4-4.1-1.6-8.7-3.7-10c-6.3-3.8-8.6-9.7-10.1-16c-2.4-9.7-4.6-19.5-8-28.9
		C242.8,484.1,239.2,480.6,234.6,476.6z M426.3,638.5c4.2-8.1,6.9-16.6,6.1-25.8c-0.2-2.9,0.2-8.3-5.9-5.2c-0.1-0.5-0.2-1-0.2-1.5
		c-2.2,8.6-3.5,16.4-1.9,24.5c0.8-1.8,1.6-3.5,2.6-5.6C427.5,629.7,426.6,634.1,426.3,638.5z M358.8,518.6
		c8.1-14.5,8.8-30.4,11.7-46.6C365.1,475.1,355.9,513.6,358.8,518.6z M185.5,587.3c0.5-8.5-0.1-16.9-2.4-25.1
		c-0.5-1.8-1.7-3.1-4.1-3c-1,12,4,22.8,6.1,34.2c-0.5-3.1-1-6.2-1.6-9.3c0.2,0,0.5-0.1,0.7-0.1C184.6,585.1,185,586.2,185.5,587.3z
		 M391.9,605.2c-3.8,9-6.8,17.8-11.3,26C387.9,625.4,394.4,610.3,391.9,605.2z M257.5,504.7c1.3,4.8,0,9.3,3.9,10.9
		c2,0.8,3.3-3,3.3-4.7C264.7,507.2,260.8,507.4,257.5,504.7z M465.7,596.6c1.4,8.1,4.2,15.5,2.5,23.3
		C471.7,610.9,470.7,599.4,465.7,596.6z M339.1,431.9c1.9-0.6,3.4-2.5,5.5-1.1c0.9-2.1,1.7-3.9,0.7-6c-2.7,0.2-5.2,0.4-8,0.7
		C341.7,426.6,338.7,429.6,339.1,431.9z M326.8,405.5c6.6-1.1,13.1-4.1,17.6,3.3C342.2,402,333.3,400.3,326.8,405.5z M353.2,496.6
		c-2.9,2.1-2,7.6,1.4,9.9C355.5,502.9,354.2,499.9,353.2,496.6z"/>
	<path d="M109.7,344.3c-6.1,2-12,4.5-18.8,3.9c14.2-3.5,24-12.1,30.8-25.9c-6.8,4.3-13,7.1-20.3,2.9c16.3-0.6,22.2-13.4,29.7-24.3
		c-4.8,3.3-10.1,5.9-14.2,11.3c0.2-1.6,0.4-2.5,0.5-3.6c-2,0.2-3.9,0.5-4.7,0.6c6.3-7.7,13.8-15.1,24.1-19.1
		c10-3.9,21.1-4.2,31-10.2c-2.4,0-4.4,0-6.3,0c3.7,0.2,6.6-2.1,9.7-3.1c-2.1-1.4-4.3-3-8-5.5c3.3,1.1,5,1.6,6.7,2.2
		c0.3-0.8,0.6-1.4,0.9-2.2c0.8,0.5,1.6,0.8,2.5,1.4c0.6-3.1,0-6-0.4-9.1c0.6,1.4,1.2,2.9,1.9,4.6c0.4-0.9,0.8-1.6,1.5-3.2
		c-0.3,2.6-0.5,4.3-0.9,7.3c1.4-2.6,2.2-4,3.3-6c0,1.4,0,2.1,0,3.5c1.4-2.2,2.4-3.9,3.5-5.6c-7.4,15.4-10.2,31.5-8.5,48.5
		c0.9,0.2,0.6-1.2,1.5-1.5c-0.8,9.8,2,19,4,28.3c2.7,12.2-1.7,23.8-3.1,35.6c-0.5,4.5-0.4,8.9,2.4,12.7c2.8,3.7,6.3,4.8,10.4,2
		c3.1-2.1,6.1-4.4,9.1-6.6c-0.7-1.8-1.9,0-2.7-0.7c2.2-3.4,2.9-7.4,4.2-11.1c-0.6,0.2-1.1,0.3-1.9,0.5c0.2-0.4,0.2-0.8,0.4-0.8
		c3.1-1.2,5.4-5.8,9.5-3.1c3.1,2.1,7,2.5,10,5.1c3.2,2.7,4.7,9.3,1.4,12.4c-4.3,4.1-9.2,7-15.3,6.9c-0.7-0.5,1-1.2-0.3-1.7
		c-2.5-1.1-4-5.5-7.7-2.3c-2.8,2.4-5.6,4.8-8.2,7.5c-3,3.1-6.9,3.8-11.6,4.5c4.8,1.9,8.5,0.5,13.3-1.5c-2.8,2.3-5.5,2.5-7.3,5
		c2.6-1,4.7-1.7,7.7-2.8c-7.7,8.7-11.4,18.1-10.7,29c1.6-11.4,5.2-21.6,15.7-28c-4.5,5.5-8.3,11.3-9.4,19.6
		c3-6.7,4.3-13.5,11.5-15.8c-3,4.1-5.8,8.3-6,14.7c1.8-5.1,3.2-9.2,7.7-12c-0.3,1.6-0.5,2.7-0.8,4.2c1.5-2.2,2.5,0.2,4.2-0.1
		c-0.7,1.3-1.2,2.2-1.8,3.3c1.3,0.7,2.1,1.7,0,3.9c1.8-0.7,2.5-0.9,3.3-1.2c-1.1,3.2-2.2,6.3-3.5,10.1c2.6-2.6,4.1-5.4,7.9-5.9
		c-2.2,2.8-5.2,4.7-5.5,8.6c2-1.7,2.9-4,5.6-5.1c0.9,3.6,4.9,3.9,7.2,6.8c-9.1,4.3-15.2,11.7-20.8,19.6c-0.9,1.3-2.1,1.2-3.4,1.3
		c-9.5,0.3-19.3,0.2-28,4.4c-6.4,3-12.1,7.4-17.8,11.8c1-0.4,1.9-0.7,3.7-1.4c-3.4,2.9-6.5,5-8.9,7.8c-4.8,5.4-9.3,11-13.7,16.7
		c-8,10.3-19.8,16.6-27.8,26.5c-3.4,4.2-6,8.7-11,11.3c1.1-0.5,2.1-0.9,3.2-1.4c1.1-0.5,2.1-1.1,4.1-2.1
		c-4.3,7.1-14.5,7.4-15.3,17.1c3.3-5.8,8-9.3,13.7-12.7c-0.6,1.8-1.2,2.9-1.5,4.1c-2.1,8.4-2.7,17-1.4,25.6c0,0.3,0.1,0.6,0,0.9
		c-4.6,15.8,3.5,28.4,10.5,41.3c0.6,1.1,1.5,2.1,2.9,4.1c0-3.2-0.1-5.4,0-7.6c0.1-2,0.3-4,0.9-5.9c2-6.5,5.7-7.3,10.4-2.3
		c1.5,1.6,2.7,3.5,3.8,5.4c1.1,1.9,1.8,3.9,2.8,5.9c1.6-1.4-0.3-2.9,0.8-4.3c0.5,1.2,0.9,2.3,1.9,4.8c-0.4-2.7-0.6-4-0.7-5
		c4.2-0.8,0.3-4.1,2-5.8c0.9,3,1.7,5.8,3,9.9c-0.2-6.5-1.1-11.5-2.4-16.6c-0.8,0.2-1.6,0.5-2.3,0.7c-3.5-3.3,0.4-6.9-0.7-10.8
		c-0.8,1-1.3,1.7-2.2,2.8c-0.3-4.6,2.7-7.7,2.8-11.8c-1.4-1.6-2,0.6-3.3,1.4c0.8-4.1,1.6-8,2.6-13.4c-1.4,3.2-2.2,5-3.1,7.1
		c-3.1-11.4,1.4-26.6,10.1-33.6c-3.8,5.2-0.9,10.8-1.8,17.5c1-1.8,1.4-2.4,1.9-3.4c0.7,20.6-3,41,4.1,61.1c0.3-4,0.5-7.6,0.8-11.2
		c1,6.2-1.4,12.8,2.3,19.8c0.1-6.6,0.3-12.1,1.5-17.5c0.7-3.4,1.6-7,5.6-7.8c4.2-0.8,6.5,2.2,8.2,5.4c4.4,8.2,5.4,17.1,4.6,26.3
		c-0.6,6.4-0.5,12.8-2.2,19.1c-0.6,2-0.8,4.5-3.3,4.9c-2.6,0.5-3.9-1.6-5.3-3.4c-3.8-5-5.5-10.9-6.8-16.8c-0.6-3-2.9-4-5-4.6
		c-1.6-0.5-3.9,1.3-4.5,2.9c-1.4,3.7-4.2,4.1-7.6,4.1c-0.6,3.6-1.1,7.2-1.7,10.7c-0.3,1.8-0.9,3.8-3,4.1c-1.9,0.3-3.1-1.3-4.1-2.6
		c-4.1-5.2-6.1-11.3-7.3-17.6c-0.8-4.1-1.8-7.4-5.2-10.5c-5.3-4.7-8.2-11.3-11.1-17.7c-1.3-2.9-1.8-6.5-6.4-6.2
		c-1.4,1.6-2.9,3.8-4.8,5.5c-2.4,2.1-4.5,1.3-5.4-1.8c-0.4-1.3-0.8-2.8-0.6-4.1c1.7-11.4-0.6-23.1,2.8-34.3c0.4-1.3,0.7-2.7,1.1-4.2
		c-19,0-37.7,0-56.4,0c0-0.2-0.1-0.3-0.1-0.5c3.1-0.4,6.1-0.8,10.3-1.4c-5.2-1.6-9.5-2.5-13.9-6c21.8,8.4,40.5,2.5,59.3-6.9
		C96.8,521,100.3,501.2,104,481c-0.6,9.3-0.9,18.5-3.1,27.6c7.9-17.1,8.3-36.8,19.3-52.9c-0.7,2.3-1.3,4.5-2,6.8
		c4.1-8.4,11.3-14.9,14.4-23.8c-0.4,1.8-0.8,3.6-1.2,5.3c13.5-11.5,25-24.1,26.5-42.9c1.1-13-2.4-24.8-8.3-36.1
		c-0.9-1.8-2.1-1.2-3.4,0.4c-2-6-4.5-11.5-5.5-17.2c-0.7-3.9,2.7-7.8,1.5-12.2c-0.6-2-0.3-4.2-0.5-6.5c-1.2,0.1-2.1,0.2-3.1,0.4
		c0,0,0.2,0.1,0.2,0.1c-0.3-0.7-0.6-1.5-0.9-2.2c0,0,0,0.1,0,0.1c1-3.9,4.6-6.8,4.3-11.4c-1.6,2.8-3.1,5.6-4.7,8.3
		c1.1-6.3,2.3-12.6,7.2-17.3c-8.2,4.4-10.8,13.2-16,21c0.8-7.8,4.6-13.4,8.5-18.7c3.9-5.3,7-11.4,12.7-15.3
		c-4.7,1.4-8.1,4.7-11.8,7.4c5.7-7.7,13.8-12,22.9-15.5c-19.1,2.3-38.8,11.6-44,21.8c5.6-4.8,10.5-8.5,17.1-10.8
		c-3.6,9.9-9.6,17.4-16.8,25c4.4-1.7,7-4.5,11.1-7.9c-7.6,11.6-10.1,24.8-23.5,30.1c2.7,0.5,4.2-2.3,6.5-1.1
		C110.7,343.6,110.2,343.9,109.7,344.3z M153.8,340.5c-1,12.3,3.4,25.1,6.1,38c2.2,10.3,1.5,20.7,1.6,31.1
		c0.1,7.8-3.3,15.2-6.7,22.3c-1.8,3.6-3.5,7.3-5.4,11.1c1.8-0.1,2.2-1.2,2.8-2.1c11.4-16.8,16.3-35,12-55.1
		C160.8,370.3,157.1,354.8,153.8,340.5z M135,458.1c7.5-2.9,26.3-39.2,23-45.3C151,428.5,139.8,441.5,135,458.1z M145.6,592
		c-2.4,2.5-2.8,2.7-3.1,5.4c-1.3,14.4,0.6,28.2,7,41.3c0.5,1,0.5,2.8,2.2,2.2c1.5-0.6,0.6-2.1,0.3-3.2c-3.3-12.7-6-25.4-5.8-38.6
		C146.3,597,145.9,594.9,145.6,592z M115.4,635.5c-0.5-1.9-1.1-3.8-1.5-5.8c-2.5-10.2-4.6-20.5-3.2-31.1c0.2-1.8,1.6-4.8-0.8-5.3
		c-2.7-0.5-3.2,2.7-3.7,4.9c-0.2,0.7-0.1,1.5-0.2,2.6c0.5-0.9,0.8-1.4,1.3-2.3C106.5,612,107.9,624.4,115.4,635.5z M83.7,560.1
		c-5.2,5-7.7,11.2-8.9,18.1C77.6,572.1,82.1,566.8,83.7,560.1z M75.2,567.1c0.1-6.1,7.5-8.4,7.8-15.2
		C77.8,556,74.4,560.4,75.2,567.1z M151.2,355.2c-0.4,6.2,2.1,11.7,4.9,17.1C154.4,366.5,152.8,360.9,151.2,355.2z"/>
	<path d="M426.6,433c1.9,6.2,1.2,13,3.5,19.1c0.4,1.2,0.8,2.4,1.5,3.6c-2.2-10.3-3-20.6-1.8-31.6c1.1,6.9,1.2,13.4,3,19.6
		c1.8,6.2,4.2,12.1,8.2,17.3c-9.9-21.2-8.8-43-3.9-65c-0.2,12.6,0,25.1,4,37.2c5.6,17.2,13.4,33.2,28.3,44.1c8.2,6,18.2,9,27.5,13.4
		c10.2,4.8,20.1,10,28.3,17.9c8.1,7.9,16.9,14.4,31,12.5c-11.5-0.8-17.4-7.7-23.6-14c-5.9-6.1-12.4-11.4-20.2-15.3
		c11.8,5.5,22.5,15.8,36.2,8c-8.7-0.8-18.2-2.1-27.4-5.4c14.5,3.1,30.5-0.4,43.3,10.2c-5.2-3.3-10.6-4.4-17.3-1.5
		c3.6,0.5,6.4,0.8,9.2,1.2c-7.9,0.2-15.7-1.5-23.6-0.4c2.4,1.8,5.4,2.3,8.2,3.6c-1.8-0.1-3.6-0.2-5.8-0.4
		c7.4,5.8,13.4,13.2,23.8,13.1c-2.3,2.5-3.7,2.9-11.1,4c7.8,4.8,16.3,4.9,24.8,5.5c-7,2.5-14,4.9-21.8,3.4c5.2,3.3,13,2.9,30.6-1.3
		c-3.3,2.6-6.9,3.7-11.5,5.5c3.2,0,5.2,0,7.2,0c0,0.5,0,1.1,0,1.6c-8,0-15.9,0-23.9,0c-21.8-0.1-43.6,0.2-65.3,1.3
		c-3.3,0.2-6.2-0.1-8.7-2.7c-2-2-4.8-2.7-8.6-3.8c2.7,0,4.2,0,5.8,0c0.1-0.2,0.1-0.5,0.2-0.7c-3.8-1.4-7.6-2.8-11.6-4.3
		c0.9-1,0.7-1.8-0.3-2.5c-2-1.4-4-3-6.1-4.3c-9.6-5.7-17.2-13.6-23.3-22.9c-4.5-6.8-11-10.7-18.1-14.3c-10.8-5.4-22.4-6.5-34-8.1
		c-0.7-0.1-1.4-0.1-1.6-1c-0.9-4.6-3.7-8.4-5.1-12.7c-0.9-2.6,1.7-6.4,2.8-9.8c2.9,1,3.2,3.7,4.2,5.8c1-2.3-1-3.9-1-6
		c3.4,0.9,5.7,3.3,8.3,5.3c-2-4-6.4-5.4-9.2-8.6c0.5-0.8,1-1.6,1.7-2.6c10.7,4.7,17,14,23.9,22.6c-5-8.8-10.4-17.5-19.7-22.1
		c-4.9-2.5-5-5.4-4.3-9.6c0.3-1.4,0.7-2.1,2.2-2.2c10.8-0.8,21.4,0.1,31.7,3.8c1.9,0.7,2.9,1.7,2.8,3.9c-0.2,4.7-0.1,9.3-0.1,14.5
		c-8.7-4.6-16.9-8.9-26.2-10.6c7,3.3,14,6.4,20.8,9.9c4,2.1,7.2,4.2,6.9,9.3c0-1.5,0-3.1,0-5.3c13.5,8.8,23.7,19.7,30.2,34
		c-3.7-11.4-10.5-20.8-19.6-28.5c-1.2-1-2.6-1.9-3.8-3c-2.1-2-6.1-2.6-6.4-5.4c-0.5-5,0.4-10.2,0.6-15.3c0.1-1.4,1.5-0.1,1.6-0.8
		c-2.5-3.6-1.7-7.1-0.2-10.6C424.7,431.8,425.7,432.4,426.6,433z M480.8,503.3c-0.2-0.3-0.4-0.7-0.5-1c-3.8-5-8.2-9.4-14-12.2
		c-1.8-5.5-7.3-8.1-9.8-13c2.6,4.9,4.6,10.2,10,12.9c0.9,1.4,1.6,3.2,2.9,4.1c3.8,2.6,5.8,7.5,11,8.1
		C480.5,502.6,480.6,502.9,480.8,503.3c0.4,0,0.7,0,1.1-0.1c-0.7,2.2,1,2.9,2.3,3.7c8.1,5.2,16,10.6,24.3,15.3
		c4.8,2.7,9.3,5.8,14.9,9.6c-0.8-1.7-0.9-2.3-1.2-2.7c-4.8-5.3-9.5-10.8-16.1-14.1c-8-4-16.1-7.9-24.2-11.8
		C481.5,503.3,481.1,503.3,480.8,503.3z M527.9,527.6c-0.7-2.2-1-3-1.3-3.8c-5-12-14.4-19.7-25.6-25.7c-10.8-5.8-22.3-10.6-32-18.4
		c-6.3-5.1-11.4-11.2-16.1-18.1c1.5,8.9,8.4,13.6,13.6,19.6c-1.4-1.1-2.8-2.3-4.3-3.4c7.7,7.8,10.3,21,24.4,22.1
		c4.9,0.4,9.4,4.2,13.9,6.6C510.5,511.8,520,517.3,527.9,527.6z M566.9,530.1c-12.6,1-22.8-5.1-33.9-11.3
		C542.1,529.2,550.5,531.9,566.9,530.1z M483.6,517.3c-4.3-3.9-8.7-7.9-12.1-11C472.1,508.4,481.3,517.4,483.6,517.3z M476.4,505.5
		c2.5,6.4,12.5,13.7,19.2,13.5C487.7,515.8,482.8,510.7,476.4,505.5z"/>
	<path d="M379.8,328.8c-1.7-1.4-0.1-4.9-3.4-5.4c-11.4,9.9-16.6,10.6-30.2,4c-2.4-1.1-2.2,0.8-2.1,2.1c0.6,6.4,2.1,12.7,4.9,18.5
		c6.8,14,14.1,27.8,23.5,40.3c4.5,6,7.3,12.4,9.2,20.1c2.4-4.5,1.1-9.1,2.7-14.2c1,1.4,1.6,2.3,2.4,3.5c0-1.2,0-2.1,0-3.8
		c1.5,2.2,2.5,3.6,3.7,5.3c0.8-2.1-0.7-4-0.6-6.5c1.1,0.9,1.8,1.6,2.9,2.5c-0.5-3.1-2.6-4.8-4.7-7.1c3,0.3,4.3,2.2,7.1,4
		c-1.4-2.3-2.2-3.7-3.2-5.3c2.5,0.1,3.4,2.2,5.1,3.3c0.2-2.8-2.1-4.1-3.1-6.3c1.9,0.3,2.5,2.1,4,3.1c-0.1-3.1-2.1-4.5-3.8-6.2
		c-1.9-1.9-2.2-4.4-3-6.8c-0.9-2.5,1-4.9-1.1-8.8c4.7,4.9,6.9,9.2,8.7,14.2c6.2-7.5,8.8-15.7,7.4-25c-0.6-4.1-1-8.4-2.7-12
		c-7-15.2-4.3-31.8-7.1-47.7c0.8,1.6,1.6,3.3,2.5,5.2c1.1-23.7-11.2-40.5-26.3-55.7c2.3,0.4,5,3.2,9.5,8c3.1,3.3,5.9,6.6,8.1,11
		c1.3-2.1,0.1-3.7,0.4-5.8c0.8,2.1,1.4,3.8,2.2,6c0.6-1.6,1-2.7,1.6-4.1c0.3,1.6-0.1,3,1.2,4c0.4-0.5,0.9-1.1,1.6-1.8
		c-0.1,1-0.1,1.8-0.2,2.8c1.7,0.4,4.4-0.2,3,3.2c6.4-1.4,12.2-3.7,18.5-4.5c9.6-1.3,14.5,4.8,19,11.4c2.8,4.2,3.5,9.6,6.4,13.9
		c-1.8-2.1-3.7-4.2-5.5-6.3c-2.5-3-5-6-7.5-9c-7.6-9.5-21.8-7.1-31.1-2.2c2.2-0.1,3.5-0.2,4.8-0.3c4.9-0.2,10.7,6.4,10,11.3
		c-0.1,0.6-0.4,1.5-0.7,1.6c-5.1,1.3-2.2,4.4-1.7,7c2.8,15.5,11.5,27.9,20.1,40.5c7.4,10.9,11.2,23.4,14.1,36.2
		c2.7,11.4,1.9,22.8,0.7,34.3c0.7-14.9,0.6-29.7-5.4-44.7c0,7.9,0,14.9,0,22.7c-1.5-14.7-2.5-28.8-10.1-41.3
		c3.9,12.4,5.2,24.9,1.1,37.5c1-9.1,0.5-18.1-2.2-26.9c-1.3-4.4-2.5-8.9-5.5-12.5c-1.1-4.8-4-8.6-6.3-12.8c1.4,4.6,2.2,9.5,6.3,12.7
		c-1,2,0.3,3.7,1,5.4c2.2,6.1,3.3,12.4,2.2,18.9c0-2.1,0-4.2,0-6.3c-0.2,0-0.4,0-0.5-0.1c-0.6,2.6-1.2,5.2-1.7,7.8
		c-0.2,0-0.5,0-0.7-0.1c0-3.6,0-7.2,0-10.7c-0.1,14.7-4.7,28.7-7.3,43.6c3-2.2,1.3-7.1,5.8-7.1c-1.5,6-4.5,11.4-4.9,17.9
		c3.2-5.3,3-12.3,9.1-16.7c-3.6,13.5-7,26.3-7.8,39.7c-8.6-3.1-16.9-5.7-25.9-5.6c-2,0-4.1-0.2-6,0.4c-5.1,1.7-5.4-1.4-5.4-5.5
		c8-1.5,15.4,1.4,23.1,2.8c-6.7-2.9-13.6-5-21-4.6c-2,0.1-2.9-0.4-3.6-2.5c-3.9-12.5-12-22.6-18.8-33.4
		c-9.7-15.3-20.2-30.3-25.7-47.8c-3.9-12.3-4.6-24.9-3.6-37.8c0.9-11.2,1-22.4-0.4-33.6c-0.2-1.3-0.8-2.8-1.6-3.8
		c-6.6-8.7-6.7-9.7-0.1-18.9c0.5,2.7,1.4,4.9,5.2,3.3c-1.6,3.2,2.8,3,1.9,5.7c2.6-1,4.8-1.9,6.9-2.8c-1.9,1.8-4.5,2.6-6.2,5.3
		c3-1.2,5.3-3.5,8.7-2.7c-1.5,0.9-2.9,1.7-5.8,3.4c3.5-0.2,5.3-0.4,8.3-0.6c-3.3,0.9-5.6,1.7-7.1,4.1c1.2,0.1,2.1,0.1,3.4,0.2
		c-1.6,1.2-2.9,2.3-4.6,3.6c1.8,1.2,3,2.1,4.6,3.1c-7.9,3.2-8.2,10.6-9.2,17.2c-0.7,5.1-1.1,10.3,0.8,16.9c0.6-3.1,0.8-4.7,1.2-6.9
		c0.2,1,0.3,1.5,0.5,2.4c2.8-7.9,2.8-16.3,6.7-23.5c-1.2,4.4,0.5,8.7-0.1,13.5c3.7-1.8,6.5-4.3,10.8-4.5c-2.1,3.2-5.4,4.4-7.2,8.2
		c14.1-5.7,21.1,4.3,29,12c-0.7,0-1.6,0-2.8,0c2.4,2.9,4.5,5.4,7,8.4c-1.3-0.3-2.1-0.4-2.8-0.6c0.3,5.3,1.1,10,6.1,13.3
		c2.7,1.8,1.3,9.6-1.7,11.7c0.6,0.7,1.2,1.5,2,2.5c-2.3,0.7-3.8-0.8-5.6-1.1C381,329.8,380.4,329.3,379.8,328.8z M343.7,304.4
		c-4.7,12.5,8.6,21.1,18.2,18.9c-1.8-0.1-3-0.2-4.3-0.3c0.9-1.5,2.2-1.1,3.4-1.3c3-0.5,6.1-0.4,8.4-3.1c6.2-7.2,4.7-19.3-3.2-25.3
		c-6.4-4.8-16.4-1.9-21.5,6.3C344.3,301.2,344,302.8,343.7,304.4z M435.8,275.3c-2.9-6-11.1-11-17.3-10.3c4,0.4,7,1.8,9.7,3.7
		C430.8,270.6,433.1,272.9,435.8,275.3z"/>
	<path d="M138.8,329.9c0,0-0.2-0.1-0.2-0.1c-0.2,1-0.1,2.1-0.6,2.9c-5.9,8.3-8.5,18.3-14.8,26.4c-5.9,7.5-7.5,17-9.1,26.2
		c-1.9,11.5-0.9,23.2-1.7,34.9c4.1-12.1,8.5-24.1,10.8-36.8c-0.1,10-2.8,19.7-3.9,29.7c1.5-5,2.9-10,4.4-14.9
		c0.6,4.9-0.3,9.6-0.9,14.3c7.9-14,10.4-29.6,12.3-45.3c0.7,6.5-0.3,12.9-1.5,20.5c4.5-8.3,8.6-15.4,9.7-23.8
		c-1.8,17.3-10.4,32.6-15.2,49.4c7-6.6,10.2-14.9,12.3-23.7c0,9-3,17.2-8.4,24.2c-9.6,12.6-20.1,24.5-26.8,39.1
		c-4.6,10-8.9,20.2-15.1,29.4c-1.6,2.3-3.2,4.6-4.9,6.9c-0.9,1.3-1.6,2.6-0.6,4.6c9.6-9.7,16.9-20.8,22.8-32.9
		c-9.8,24-22.6,45.8-44.7,60.7l0.1-0.1c-6,1.7-11.9,3.6-19.2,0.7c6.8,0.8,11.2-1.6,15.1-6.5c-2.8,1-5.1,1.9-7.4,2.7
		c7.4-5.3,9.9-13.6,13-21.4c2.5-6.3,5.3-12.3,10-17.4c1.3-1.4,2.6-3,5.7-3.6c-11.7,10.3-12.5,25.4-19.7,37.2c1.6,0.9,2.5-1,4.2-0.9
		c-2.4,2.6-4.6,4.9-6.9,7.3c9.7-3.1,16.2-9.9,23-18.3c-2.8,1.2-4.5,2-7.4,3.3c3.2-5.1,9.6-6.3,9.9-12.9c-3.6,2.8-6.3,6-11,8
		c10.4-16.2,19.2-32.2,25.4-49.7c-9.3,13-21.2,23.5-31.3,35.8c6.7-12.5,17.2-22.3,25.2-33.9c-9.8,11-24.4,10.6-37.5,16.5
		c6.7-8.4,15.5-12.3,23.9-18.7c-7.8,1.3-14.4,0.4-21-0.5c1.7-1.3,3.7-0.7,6.3-1.2c-4.1-1.4-7.7-2.4-11-4.9c1.2-0.2,2.1-0.3,3.6-0.5
		c-2.4-1.8-4.3-3.3-6.2-4.8c5.1,1.3,8.8,4.8,15.4,5.1c-10.3-5.2-10.6-13.6-10-24c0.9,2.5,1.2,3.6,1.6,4.6c0,0,0.1,0,0.1,0
		c-1.7,3.2,0.4,5.6,2,7.8c5.3,7.2,16,9.7,25.1,5.7c4.1-1.8,8-4.3,12.1-6.6c-9.6,13.4-25.6,15.8-38.4,2.7c4.3,7,11.7,8.9,19.7,11.4
		c-7.2,2-13.5,1.4-19.8-0.8c5.6,3.6,11.8,4.4,17.9,3.1c12.8-2.8,21.7-10.6,26.9-22.7c-3.8,8.7-8.2,16.9-15.5,23.2
		c-7.2,6.2-16.1,9.8-24.4,15.7c16.8-4.2,29.9-12,36.5-28.2c0,0.5-0.1,1-0.2,3.4c2.6-6.4,4.6-11.2,6.6-16c0.1,0,0.3,0.1,0.4,0.1
		c-0.5,3.2-1,6.4-1.8,11.3c2.7-6.1,4.2-10.7,5-15.5c2.9-18.5-1.1-37.8,7-56c-8.2,1.9-20.5,10.5-25.4,17.5l-0.1,0
		c-2.4,1.5-3.5,4.1-5.2,6.1c-3.2,3.9-7.2,5.5-12.3,4.5c6.4-0.2,9-4.4,10.6-9.7c2.8-9.1,9.2-14.9,18-17.9c8.3-2.8,14-8.3,17.7-16
		c2.7-5.6,5-11.4,7.8-17.1c-1.6,8.7-1.7,17.8-6.4,26.9c5.2-3.3,8-7,10-11.6C132.5,339.2,133.7,333.4,138.8,329.9z M108.8,363.1
		c-11.5-1-23.6,9.4-24.7,20.2C88.9,373.2,97.4,367.3,108.8,363.1z"/>
	<path d="M241.5,302.7c3.2,6.7,5.2,13.8,7.8,20.8c1.3-12.7-4.1-24.3-5.7-36c8.7,20.9,13.8,42.8,9.2,66.5c-0.6-3.4-1.2-6.4-2-10.8
		c-2.6,7.9-3.6,15-7.9,22.4c1.3-6.4,3.1-11.2,2.6-16.8c-3.1,7.5-9.1,12-15.3,16.4c2.2-3.4,4.5-6.7,6.5-10.1
		c2.1-3.4,3.4-7.2,3.9-12.5c-5.3,6.1-9.8,11.3-14.3,16.5c-0.6-0.6-1.3-1.2-1.9-1.7c2.2-2.8,4.4-5.5,7.4-9.4
		c-7.6,2.2-13.4,0.2-19.2-1.9c-0.7-0.3-1.4,0-1.7,0.8c-0.3,0.9,0,1.7,0.7,2.1c1.4,0.9,2.9,1.6,4.5,2.4c-2.5,7.2-9.1,1.9-13.5,4.6
		c1.1-3.6-0.7-5.8-2.4-8.8c0.2-0.3,0.8-1.2,1.5-2.4c-0.8,0-1.3,0-2,0c1.2-9.1-0.3-18.5,2.4-27.3c-2.9,0.3-4.4,4.1-5.6,8.9
		c-1.6,6.3-2.5,12.6-2.9,19.1c-2.5-10.5,2.2-20.6,2.6-31.8c3.9-8.8,10.7-16.2,22-17.8c-0.6-1.2-1-2-1.5-3.1c1-0.1,1.7-0.2,2.8-0.3
		c-0.6-0.8-1.2-1.4-1.9-2.3c0.8-0.3,1.5-0.6,2.3-0.9c-0.4-1.3-0.8-2.6-1.3-3.9c0.4-1.1,1.2,0.1,1.8-0.3c0.7-2.6-1.2-4-2.7-5.7
		c1.2-1.1,3-0.3,4-2.2c-1.6-1.2-3.3-2.5-5.1-3.7c0.1-0.2,0.1-0.3,0.2-0.5c1.9,0.8,3.7,1.5,7.2,3c-3.2-2.1-4.9-3.2-7.3-4.9
		c2,0.6,3,1,4.7,1.5c-2.2-3.2-5.4-3.9-7.8-5.7c3.1,1,6.1,2.1,9.1,3.1c0.7-1.2-0.5-1.7-0.7-2.8c1.3,0.7,2.4,1.2,3.9,2
		c-0.3-0.9-0.5-1.5-0.8-2.4c4-0.3,3.4-2.2,1.6-4.6c1.1,0.9,2.1,1.9,3,2.6c1.8,0.3,0.8-1.5,1.8-1.8c2.6,3.1,6,5.7,5.7,10.4l0.1,0
		c-0.6-0.7-1.3-1.4-1.6-1.7C233.6,282.6,233,293.6,241.5,302.7L241.5,302.7z M236.3,320c-0.1,0.5-0.2,0.8-0.2,1
		c0,5.2-3.2,8.6-8.3,8.6c-4.8,0-7.4-2.9-7.4-8c0-0.6-0.3-1.4-0.7-1.9c-2.1-2.6-0.6-4.2,1.6-6.3c0.1,4.4,2.9,4.7,5.7,4.6
		c2.8-0.1,3-3.2,3.1-4.7c0.2-2.2-1.9-3.7-4.5-4c-7.4-0.9-13.7,3.1-15.8,10c-2.2,7.4,0.6,16.1,7.3,20c8.6,5,20.7,1,22-10.2
		C239.5,326.3,240.1,322.3,236.3,320z M224.7,301.4c-1.5-2.9-3.9-3-6.3-2.9c-7.6,0.3-13.4,4.5-17.6,13.5c2.6-3,7.4-2.8,6-7.8
		c2-1.5,4.5-0.5,6.6-1.4C216.6,299.9,220.7,301.4,224.7,301.4z"/>
	<path d="M284.2,234.3c-0.2-1.6-0.3-2.5-0.4-3.6c0.5,0.6,0.9,1,1.7,2c0.4-2.5,0.7-4.5,1.1-7c2.4,4.3,2.8,8.4,1.9,12.8
		c-0.5,2.5,1.2,4.5,2.3,6.2c5.9,8.8,4.1,18.5,4.1,29.7c-0.8-3.4-1.3-5.2-1.7-7.1c-1.4,3.2,0.7,7-1.6,9.7c-3.9-0.8-2.7-7.6-8.7-6.6
		c-1-1.4-1.3-4.5-4.6-5.1c0.1,1.2,0.1,2.3,0.2,3.5c-9.8-3.3-12.8-11.7-14.7-20.1c-1.1-4.9,0.7-10.4,1.3-15.6
		c0.3-2.9-0.9-5.5-1.5-8.2c-0.4-1.9-0.6-4-0.6-5.9c0-1.9,0.4-4.2,2.1-5c1.8-0.8,3.4,0.9,4.9,2.1c0.2,0.2,0.4,0.6,0.6,0.6
		c9.8,0.8,11.7,7.9,12.4,15.8C283,232.9,283.5,233.2,284.2,234.3z"/>
	<path d="M62.7,521.5c13.8-6.3,25.5-15.1,33.3-28.4c1.2-2,2.2-4,3.4-6.2c0.3,14.3-18.2,31.1-43.6,39.6c13.9,0.7,25.2-5.6,39.4-22.2
		c-0.5,4.9-6.2,12.2-13,17.4c-6.1,4.6-13.1,6.9-20.5,8.3c10.2,0.7,17.6-5,25.5-10.8c-2.3,5.1-9,10.5-15.8,12.2
		c-10.3,2.6-20.9,3.9-31.6,3.8c-7.8-0.1-15.1-2.1-20.2-8.7c6.4,10.6,17.6,11.3,28.1,13.4c-11.3,1.1-22.1,0.4-32.6-7
		c3.7,1.1,6.5,1.8,10.4,2.9c-11.6-8.4-11.1-20.5-12.6-31.8c3.2,8.8,4.8,18.6,13.4,24.2c8.3,5.4,17.6,5.5,28.4,4.3
		c-2.6-0.9-3.8-1.3-5.8-2c2.6-0.7,4.6-1.2,7-1.9c-5.5-3-8.8,3.2-13.8,1.9c2.4-1.2,4.6-2.3,7.1-3.6c-2.4-0.9-4.8-0.9-7.4-3.4
		C49.8,526.3,56.4,525.1,62.7,521.5C62.8,521.4,62.7,521.5,62.7,521.5z"/>
	<path d="M496.5,468.1c11.7,9.2,25.3,14,39.5,17.4c7.8,1.9,15.7,3.4,23.1,6.6c2.8,1.2,5.6,2.6,8.2,5.5c-15.5-8.3-32.6-7.9-48.4-12.9
		c-20.5-6.6-36.4-19.1-47.7-37.5c-0.7-1.1-1.2-2.3-1.8-3.5c-0.1-0.2-0.1-0.5,0,0c25.6,27.8,57.3,34.2,92.2,25.5
		c-9.1,4.7-20.2,7-31.8,6.6C518.3,475.6,507.2,472.6,496.5,468.1z"/>
	<path d="M465.5,412.5c2.6,5.1,5.1,10.3,9.5,14.3c-0.7-1.3-1.4-2.7-2.1-4c4.9,5.3,9.4,11,15.8,16.1c-0.7-1.2-1-1.7-2.2-3.7
		c13.6,12.1,27.2,19.3,44.4,14.4c-10,4.4-20.1,5.1-30.5,1.6c5.1,3.8,11,6.1,17,7.7c6.3,1.7,12.6,3.1,19,4.5
		c6.2,1.3,12.5,2.4,18.8,3.8c-6.9,0.2-13.8-0.7-20.6-1.7c-9.3-1.3-18.7-2.5-27.6-5.7C488.1,452.9,470.3,432.7,465.5,412.5z"/>
	<path d="M215.7,435.5c1.1,4.7,2.2,8.7,4.5,12.5c-2.7,1.1-5.2,2.1-8.7,3.5c4.1,0.2,7.5-3.4,9.6-1.5c2.8,2.4,5.4,6.5,5.7,10
		c0.3,4.5-5.8,5.4-7.8,9.5c-6.8-7.8-15.2-11.9-24.9-14.7C200.4,447.1,205.7,439,215.7,435.5z"/>
	<path d="M512.8,424.3c-4.4,2.7-9.1,1.7-14.7,1.1c10.4,9.2,20.4,17.1,33.7,20.7c-15.5,1-57.5-31.3-62.7-48
		c9.3,11.3,19.5,20.9,35.1,25.9c-4.2-2.6-7.2-4.3-9.9-6.3c-2.7-2-5.3-4.3-7.7-6.7c-2.5-2.4-4.8-5.1-7-8
		c10.3,8.8,21.5,15.4,35.7,13.6c-15.7-1.5-27.9-9.9-38.9-20.6c6.2,2.7,12.3,5.5,18.5,8.2c0,0.1-0.1,0.3-0.1,0.4
		c-2.5-0.5-4.9-1-7.4-1.5c9.9,6.3,19.7,12.5,33.1,12c-8.1,5.6-15.7,2.8-23.3,1.4C499,419.7,503.8,422,512.8,424.3z"/>
	<path d="M254,195.7c-10.2,2.4-20.1,5.6-29.3,10.7c-15.2,8.4-25.8,21.5-35.9,35.1c-8.8,12-20.3,19.1-36.5,20.8
		c2.4-0.8,3.6-1.2,4.7-1.6c1.2-0.4,2.5-0.9,3.7-1.2c9.6-2.6,17-8.2,22.5-16.5c9.3-14,19.4-27.1,34.2-35.8
		C228.7,200.6,240.9,196.6,254,195.7z"/>
	<path d="M89.9,379.2c0,0,0.1,0,0.1,0c0.1,1.6,0.2,3.3,0.3,5.6c2.3-4.5,4.2-8.5,8.9-11.8c-1.6,2.2-2.6,3.5-3.5,4.7
		c1.2-0.2,1.9-0.8,2.7-1.3c0.7-0.5,1.5-0.8,2.3-1.2c-8.4,7.4-9.9,17.2-10.3,27.3c2.8-6.8,7.1-12.7,11.6-18.9
		c-0.4,7.1-0.6,13.8-1.3,20.4c-1.1,11.4-5,21.4-14.8,28.3c-10.8,7.6-25.2,3.2-29.6-9.2c0,0-0.1,0-0.1,0c2.2,2.3,4.1,4.9,6.6,6.8
		c7.2,5.5,16.1,4.5,23.6-2.2c9-8,11.7-18.6,12.7-29.9c0.2-2.5,0.5-5.1,0.9-8.6c-6.1,9-9.9,17.9-12.6,27.3
		C89.1,404.3,89.6,391.8,89.9,379.2z"/>
	<path d="M463.5,302.7c-2.3,1.1-3.8,3.4-7.8,3.8c5,1.4,8.8,2,12.7,4.6c-2.9-0.7-5.2-1.2-7.5-1.8c2.5,2.5,5.1,4.6,9.9,5.4
		c-5.3,2.2-9.7,0.9-15.2,0.3c8.8,9.1,9.6,24.3,24.8,25.9c-9.7,1.6-17.7-2.1-24.6-9.5c2.4,11.1,14.9,23.1,27.9,27
		c-10.9,1.5-27.8-15.3-30.3-30.7c5.5,5.5,10.7,10.6,18.4,12.5c-11-9.9-14.7-25.4-28-33c6.5,2.7,12.4,6.6,19.9,7
		c-5.3-4.5-11.5-6.8-16.8-10.7c3.3,1.4,6.7,2.6,11.9,1c-6.6-0.7-11.5-1.9-15.3-5.5c-3.7-3.5-6.8-7.3-9.4-11.8
		C442.6,294.7,449.6,305.1,463.5,302.7z"/>
	<path d="M276.7,200.3c-0.4-5.7-0.4-10.3-3.8-14.5c2.9,1.3,3.4,1.8,5.5,6.3c2.1-7.2,6.3-12.6,11.9-16.9c5.8-4.5,12.3-6.5,19.6-4.3
		c-5.1-0.9-9.9,0.3-14.4,2.8c-4.5,2.5-8,6-10.6,10.7c21.8-16.6,44.4-8.9,65.5-2c-2.1,0.9-6.2,0.7-16.8-1.9
		c-13.6-3.4-27.1-4.1-40.3,1.9c-6.7,3-11.8,7.5-14.7,14.4C278.4,197.6,277.8,198.4,276.7,200.3z"/>
	<path d="M420.4,438.8c-12-5-23.7-6.6-35.8-5.5c-1.8-6.4-0.9-8,5.3-8.6c9.9-0.9,19.6,0.9,28.7,4.5C422.9,431,419,435.3,420.4,438.8z
		"/>
	<path d="M153.2,491.9c-0.2-2.6,0.1-5.4-3.7-5.8c1.2-4.9,3.9-8.5,7.4-11.6c3.5-3.1,7.4-5.6,11.4-0.2c-2.4,2-1.4,3.2,1,4.7
		c2.7,1.7,3,4.2,0.3,6.4C164.9,489.4,159.9,492.6,153.2,491.9z"/>
	<path d="M266,327.4c-6.3-7.4-5-14.9-1.9-22.9c1.2-3.2,0.7-7.2,1-11.7c2.4,4.3,2.3,8.7,5.5,12.5c0.4-2,0.6-3.3,0.9-4.6
		c1.3,0.4,1.1,1.4,1.2,2.2c0.9,4.7,0.8,9.5,1.8,14.3c0.8,3.9-1.4,7.5-6,8.7C267.7,325.9,266.4,325.9,266,327.4z"/>
	<path d="M461.9,434.2c-6-17-3.6-34.6-4.2-52c-0.4,16-4.4,31.7-2.5,47.8c-5.4-21.4,4.8-42.8-0.6-65.5c1.2,2.3,1.7,3.4,2.7,5.3
		c-0.4-2.7-0.6-4.4-0.9-6.6C466.2,386.7,457.2,411,461.9,434.2z"/>
	<path d="M462.2,356.4c-8.9-10.7-15.1-23.5-25.7-32.9c-5.7-5-9.3-11.4-12.8-18c-2.6-4.8-3.3-10-3.2-15.6
		c2.9,14.6,9.9,26.9,21.2,36.8c-2.6-5.7-5.1-11.4-7.8-17.3c2.1,0.4,2.4,1.9,3,3c5.3,11,11.4,21.4,18.2,31.5
		c9.8,14.6,21.8,19.8,39,16.9c-5.3,3.8-17.2,2.7-29.5-2.8C463.7,357.5,463,357,462.2,356.4z"/>
	<path d="M218.1,471.4c1.7,1.9,2.4,2.7,3.4,3.9c-3.7-8.1,4.7-8.5,6.9-13.3c1.8,2.5,3.1,4.4,4.5,6.4c-4.4,6.2-7.4,13.1-9.1,20.7
		C223.3,483.1,216.3,479.3,218.1,471.4z"/>
	<path d="M374.1,198.9c-3.3,3.7-12.7,6.3-15.3,4.2c2.7-0.4,5.4-0.8,8.1-1.2c-10.5-1.4-18.6-7.3-27.5-12.9c3.2,0.3,5.9,0.6,8.7,0.7
		c2.9,0.1,5.8,0,8.7-0.5c-14.4-1.3-28.3-9.4-43.3-3.2c16.6-10.5,32.6,3.2,49.3,0.9c-2.8,2.7-5.5,3.4-16,4.3
		C350.2,195.7,362.3,199,374.1,198.9z"/>
	<path d="M315.6,343.4c-1.2,0.8-1.5,2.9-3.3,1.5c-1.5-1.2-2.2-2.7-1.4-4.5c3-6.8,7.3-9.3,14.6-8.4c2.5,0.3,4,2.1,4.3,4.4
		c0.4,2.2-1.3,3.8-3.3,3.9c-3.2,0.2-5.4,1.5-7.6,3.6C318.4,344.5,316.4,347,315.6,343.4z"/>
	<path d="M229.8,387.9c0.5,1.7,0.7,2.5,1,3.4c0.9,0,1.7,0,2.8,0c0.4,4.4-1.6,7.1-5.3,9c-2.1,1.1-3.8,2.8-5.7,4.2
		c-0.9,0.7-1.7,1.5-3,0.9c-1.4-0.6-1.2-1.6-1-2.7c0.2-1.6-1.2-2.7-0.9-4.7C218.6,390.7,226,392.1,229.8,387.9z"/>
	<path d="M109.7,344.3c0.5-0.4,1.1-0.7,1.6-1.1c1.1-0.7,2.3-1.5,3.4-2.2c-5,6.8-10.4,13.1-18.5,16.2c12.8-0.7,18.1-10.8,24.7-19.6
		c-2.9,14-17.7,23.3-33.6,21c0.3-0.4,0.6-0.7,1-1.3c-2.8-0.7-5-2-7.4-4C93.4,359.2,101.9,352.7,109.7,344.3z"/>
	<path d="M400.7,505.4c-5.9,0.1-10.4-2.9-14.4-6.2c-2.9-2.4-2.2-6.5-1-9.5c0.8-2,3.6-1.2,4.4,0.5c1.8,3.8,5,5.9,8.3,8
		c2.1,1.3,3.2,2.4,1.6,4.8C398.8,504,400.8,504.1,400.7,505.4z"/>
	<path d="M467.4,376.5c6.4,10.6,16,15,28.3,15.2c-0.9,0.3-1.5,0.5-2.2,0.7c-0.8,0.1-1.6,0.1-4,0.3c10.7,4.5,19.9,8.4,29.2,12.3
		c-14.5-3.5-28.4-8.5-41.5-15.5C472,386.7,468.7,382.4,467.4,376.5z"/>
	<path d="M175.9,524.9c-1.2,0.9-2.4,1.9-3.7,2.8c-0.6,0.4-1.1,0.9-2.3-0.1c2.6-5.6,4.7-11.7,8.1-16.9c1.9-2.9,1.4-5.9,1.4-8.4
		c0.1-3.2,2-3,3.4-3.8c0.6-1.5-1.2-1.1-1.4-2.2c3.5,0.9,6.5-1.4,10-1.2c-3.7,0-4.3,3.4-5.8,5.4c-3.4,4.5-6.1,9.2-5.9,15.5
		C179.8,518.7,176.5,521.5,175.9,524.9z"/>
	<path d="M410.2,248.2c-9.7-1.2-16.9-6.1-22.4-13.8c-7.2-10-13-21.2-23.8-28.2c9.7,4.5,16.6,12.1,21.6,21.2
		C391.2,237.5,398.4,245.5,410.2,248.2z"/>
	<path d="M275.5,197.5c-6.8-7-13.9-7.7-21.9-5.9c4.4,1.1,8.6,1.4,13.7,4.7c-10.9-3.5-20.5-3.2-30.1-3c10-1.6,19.5-5.9,30.5-3.7
		c-0.9-1.4-1.5-2.3-2.7-4.1C269.6,188.7,273.3,191.3,275.5,197.5z"/>
	<path d="M488.2,572c-1.9-14-5.8-27-17.6-36.8C482.8,538,490.4,554.2,488.2,572z"/>
	<path d="M379.8,328.8c0.6,0.5,1.2,1,1.8,1.5c3,1.8,3,5.1,4.5,8c-3.5,0.8-1.9,2.8-0.4,5.3c-5-1.7-8-4.7-10.8-8
		C373.9,334.5,378.1,328.9,379.8,328.8z"/>
	<path d="M135.4,284.4c-2.5,0.1-1.8-1.3-1.1-2.4c1.1-1.8,2.5-3.6,3.9-5.6c-1.9,0-3.5,0-6.1,0c5.8-1.4,10.6-2.6,15.5-3.7
		c-3.5,2.3-7.3,4.1-10.3,8.1c8.9-4.6,17.3-8.7,27-5.6c-9.1-0.9-17.2,2.9-25.3,6.2c-1.5,0.6-2.5,2.2-3.8,3.3
		C135.2,284.5,135.4,284.4,135.4,284.4z"/>
	<path d="M509,374.5c-4.7,4.2-10.5,5-16.4,5.2c-10,0.4-18.2-3.7-24.9-11.2c6.7,3.4,13.5,6.2,22.8,5.1c-4.8,2.1-8.4,1.2-12,1.5
		C484.5,379.6,501.1,379.3,509,374.5L509,374.5z"/>
	<path d="M135.4,284.4c0,0-0.1,0.1-0.1,0.1c3.3-2.4,7.1-3,11.1-3.3c-4.7,5.3-34.4,19.5-40.2,18.7
		C118.4,298.2,126.4,290.5,135.4,284.4z"/>
	<path d="M242.5,384.8c-2.1,21.8-9.2,36.6-16.8,35.2C238.5,411.8,236.5,396.4,242.5,384.8z"/>
	<path d="M414.5,252c7.9,3.5,15.8,6.7,19.9,14.9c-6.7-8.5-15.6-11-26-9.7c3.7-2.1,7.6-1.4,12.2-1.1c-4.1-2-8.1-2.6-11.5-5.3
		c3.3-0.4,6.3-0.7,10.5-1.2C417.3,250.7,416.1,251.3,414.5,252z"/>
	<path d="M330.4,462.8c6,0.9,11.3,2.2,16.3,5.1c-3,2.2-6,3.8-9.6,2.3C334,469,331.5,467,330.4,462.8z"/>
	<path d="M462.2,356.4c0.8,0.6,1.5,1.1,2.3,1.7c11.3,10.8,24.4,15,39.8,10.7c0.2-0.1,0.4-0.1,0.6-0.1
		C494.1,376.8,469,369.5,462.2,356.4z"/>
	<path d="M509,374.6c0.9-0.3,1.8-0.5,2.8-0.8c-3.8,11.5-26.5,15.9-39.2,6.5c9.4,3.9,17.6,5,26,2.1c3.5-1.2,6.6-2.8,9.5-5.1
		C509.2,376.5,509.6,375.8,509,374.6C509,374.5,509,374.6,509,374.6z"/>
	<path d="M222.4,498.2c-1.7-6.9-4.8-12.4-8-17.7c-1.2-2,0.3-2.8,1.6-4.8C219.1,483.1,225,488.9,222.4,498.2z"/>
	<path d="M221.4,504.9c-3-7.7-6.6-15.1-9.3-22.9C217.4,488.8,221.6,496,221.4,504.9z"/>
	<path d="M426.6,433c-1-0.6-2-1.2-2.9-1.8c-0.7-5.3,2.4-21.6,5.1-25.8c-1.9,8.7-2.7,17-1.7,25.3C427.2,431.5,426.8,432.2,426.6,433z
		"/>
	<path d="M441,287.2c8.8,9,19.2,11.7,31,8.2C465.1,302.4,448.3,298.2,441,287.2z"/>
	<path d="M237.3,273.2c2.1,5.9,1.7,12.2,2.8,18.3c0.6,3.3,0.6,6.7,1.9,9.9c0.1,0.4,1.1,1.5-0.5,1.3c0,0,0.1,0.1,0.1,0.1
		C236.1,293.5,237.2,283.3,237.3,273.2L237.3,273.2z"/>
	<path d="M163.2,271c-11-2.5-20.6,0.8-30-1.8C142.7,270.6,152.4,264.5,163.2,271z"/>
	<path d="M502.9,443.1c8.4,2,16.8,3.2,25.4,4.1C519.2,449.7,510.9,447,502.9,443.1z"/>
	<path d="M357.2,358c-3.4-7.5-8.8-14-9.9-22.5C352.8,342.1,353.9,350.5,357.2,358z"/>
	<path d="M370.2,338c6.4-0.1,7.9,5.9,12.1,8.1c-0.8-0.4-1.6-0.8-2.5-1.2c-0.7,0.4-0.5,2.3-1.9,1.5
		C374.6,344.6,371.8,342.4,370.2,338z"/>
	<path d="M304.5,251.5c2.4,2.8,4,5.4,3.5,8.9c-0.2,1-0.6,1.7-1.5,2c-1.1,0.4-1.7-0.5-2.1-1.3C303.1,258.1,302.4,255.1,304.5,251.5z"
		/>
	<path d="M157.2,265.5c-6.3,1.9-12.4,0.6-18.5-1C144.9,264.7,151.2,263.6,157.2,265.5z"/>
	<path d="M202.7,461.7c5.9,1.6,10.1,5.6,14.2,9.8c0.5,0.5-0.5,1.4-1.4,1.7C211.3,469.4,207.6,464.9,202.7,461.7z"/>
	<path d="M202.8,465.5c6.7,1.6,12.8,8.3,10.4,11.4C210.1,472.9,206.9,469,202.8,465.5z"/>
	<path d="M358.7,347.4c-3.9-1.4-5.2-3.7-6.4-6.1c-0.5-1-1.5-2.4,0-3.2c1.3-0.6,3-0.2,3.6,1.3C356.9,341.8,357.6,344.2,358.7,347.4z"
		/>
	<path d="M357.7,338.8c4.3,2.7,6.2,6.1,7.8,10.6C360.5,347.4,358.7,344,357.7,338.8z"/>
	<path d="M213.5,417.2c-0.5,1.9,2.6,2.3,1.1,4.9c1.2-1,1.6-1.4,2.2-1.9c-0.6,2.8-1.1,5.3-1.7,8.4C211.5,424.7,211.9,421,213.5,417.2
		z"/>
	<path d="M257.7,454c1.6,0.2,3.5,0.1,3.6,2.2c0.1,1.8-1.6,2.5-3.2,2.4c-1.7-0.1-3.7-0.4-3.7-2.6C254.3,453.9,256.1,454,257.7,454z"
		/>
	<path d="M271.9,474.7c4.3-0.7,7.9-1.3,11.9-2C281.4,476.6,276,477.5,271.9,474.7z"/>
	<path d="M366.9,338.9c2.9,1.2,6.2,6.5,7.2,11.3C370.3,347.1,368.6,343.4,366.9,338.9z"/>
	<path d="M214,521.6c-0.1,1.5,0.1,3.5-1.9,3.5c-2.3,0.1-2.4-2.1-2.5-3.7c0-1.6,0.2-3.6,2.3-3.5C214.1,518,213.7,520.1,214,521.6z"/>
	<path d="M340.6,452.6c-2.7,2.4-5.2,4.5-9.4,2.3C334.2,452.6,336.6,450.6,340.6,452.6z"/>
	<path d="M311.8,270.3c-3.8-2.4-4.5-6.3-1.9-8.7C311.3,264.4,312.1,267,311.8,270.3z"/>
	<path d="M364.2,339.4c1.7,2.8,2.9,4.6,4.1,6.6c0.4,0.7,0.4,1.4-0.4,1.8c-0.4,0.2-1.2,0.2-1.4,0C364.9,345.6,363,343.5,364.2,339.4z
		"/>
	<path d="M440.5,538.2c6,1.9,5.8,7.3,8.3,10.7C446.3,545.6,443.7,542.3,440.5,538.2z"/>
	<path d="M142.9,556.3c0-1.4,0.1-2.6,1.4-2.5c1.6,0.1,2.1,1.3,2.2,2.7c0,1.1-0.2,2.5-1.6,2.4C143.4,558.7,143.2,557.2,142.9,556.3z"
		/>
	<path d="M259.7,375.7c-1.5,0-2.8-0.6-2.9-2.3c-0.1-1.4,0.7-2.4,2.2-2.3c1.8,0.1,2.6,1.6,2.8,3.1C262,375.6,260.7,375.7,259.7,375.7
		z"/>
	<path d="M470.8,475.1c-3.9-0.5-6.4-2.9-8.1-6.3C465.4,470.9,468.1,473,470.8,475.1z"/>
	<path d="M420.8,500.9c8.3-0.1,9.4,0.4,13.1,6.3C429.8,503.1,425.6,502.8,420.8,500.9z"/>
	<path d="M178.2,311.9c-1.3-4.8-0.7-9.5,0.9-14.2C178.8,302.5,178.5,307.2,178.2,311.9z"/>
	<path d="M344.7,299.5c1.4-0.1,2.7,0.1,3.5,1.3c2.2,3.5,4.5,1.1,6.7,0.2c2.5-0.9,2.4-2.9,1.1-6c3.1,2.1,6.8,2.3,4.9,6.8
		c-0.8,2,2.7,2.6,1.8,5c-1.7,4.4-5.2,6.5-9.3,6.7c-4.7,0.3-6.1-3.7-7.1-7.5c-2,1.2-2.1,1.6-0.8,6.3c-2-2.9-2.2-5.4-1.8-8
		C344,302.8,344.3,301.2,344.7,299.5z"/>
</g>
</svg>
