<?xml version="1.0" encoding="utf-8"?>
<!-- Generator: Adobe Illustrator 24.2.3, SVG Export Plug-In . SVG Version: 6.00 Build 0)  -->
<svg version="1.1" id="Layer_1" xmlns="http://www.w3.org/2000/svg" xmlns:xlink="http://www.w3.org/1999/xlink" x="0px" y="0px"
	 viewBox="0 0 595.3 841.9" style="enable-background:new 0 0 595.3 841.9; fill: #215342;" xml:space="preserve"
	 height="340" width="450" transform="translate(-55, -32.5)">
<g>
	<path d="M384.1,509.5c0.7-0.7,1.4-1.5,2.2-2.1c0.5-0.3,1.1-0.4,1.7-0.5c0,0.6,0.3,1.3,0.1,1.8c-2.4,7.9-4.6,15.9-7.3,23.7
		c-2.9,8.6-3,16.9,0.4,25.5c3.4,8.6,7,17.1,8.8,27.7c-1.1-1.6-1.5-2-1.7-2.5c-4.3-9.4-4.3-9.5-14.8-9.1c-21,0.8-41.7-1.6-62.5-3.3
		c-18-1.5-36-0.3-53.9,1.9c-6.8,0.8-13.6,0.7-20.4,0.7c-18.9,0-37.8,0.7-56.7,1c-2.1,0-2.8,0.8-3.3,2.8c-0.9,3.3-2.1,6.8-6.1,7.3
		c-3.9,0.5-5.9-2.6-7.8-5.5c-4.2-6.6-9.3-6.5-14.4-0.4c-10.1,11.9-22.3,18.8-38.6,14.7c-3.5-0.9-6.4,0.5-9.6,2
		c-6.8,2.9-12.6-2.2-18.4-4.5c-7.2-3-12-9.5-17.9-14.4c-3.4-2.8-6.7-4.7-10.8-0.7c-4.5,4.5-10,5.1-11.9-2.2c-0.5-2-2.2-2.6-4.1-3
		c-5.9-1.3-11.8,0.1-17.7,0c-1.1,0-3,0.4-3.1-1.2c-0.2-2,1.8-1.2,2.8-1.3c5.2-0.3,10.5-0.4,15.8-0.5c2.3,0,3.2-0.9,3.1-3.2
		c-0.4-9.3,0.9-18.8-2.1-28c-0.8-2.3-0.8-5.4,0.1-7.6c2.6-6.7,2-13.7,2.1-20.6c0.4-33.2-1.4-66.5,0.9-99.7
		c2.1-29.9,2.3-59.7,1.6-89.6c-0.5-20.3-3.1-40.7-2-61c1.2-22.9,0.3-45.9,2.1-68.7c1.5-18.1,2-36.1,2.3-54.2c0-1.1,0.3-2.2,1.1-3.3
		c0,126.3,0,252.6,0,379.8c4.3-3.3,6.5-7.1,8.6-10.8c0.4-0.8,0.7-1.7,1.3-2.3c0.8-0.8,1.6-2.2,3-1.1c1.3,1,0.2,2-0.3,2.9
		c-3,5.6-7.1,10.3-11.2,15c-6.3,7.3-9.5,15.3-6.3,25c1.5,4.7-0.5,9.8,1.8,15.2c1.4-3.1,2.5-5.6,3.6-8.1c1.1-2.4,2.3-4.6,4.3-6.4
		c4.2-3.8,9-2.6,10.7,2.8c0.8,2.6,1.1,5.4,1.8,8.7c2.8-8.1,3.8-15.8,2-23.6c-1.6-7.1-0.4-13.3,5.2-18.4c3.1-2.8,3.3-7,4.8-10.6
		c0.8-2.1,1.9-4,3.3-5.9c-2,5.7-1.2,12.3-6.1,17c-4.5,4.4-5.5,9.5-4.2,15.7c2.3,10.8,0.3,21.3-3.2,31.5c-2.5,7.2-0.7,14,5.6,19
		c1.3-0.7-0.2-1.9,0.7-2.9c4.1,5.8,7.8,12.1,16,14.6c-2.3-5.5-3.7-10.6-4-16c-0.3-4.9-0.6-9.9,1.5-14.5c1.3-2.9,3-5.8,6.7-5.9
		c3.8-0.1,5.4,2.7,6.7,5.7c0.7,1.4,1.2,2.9,1.6,3.9c0-8.9,0.3-18.2-0.1-27.5c-0.3-9.6,4.5-16.7,10.9-23.4
		c-11.1,13.3-5.8,28.8-6.6,43.5c1.5,0.2,1.8-1,2.5-1.6c3.9-3.5,8.5-2.9,11.5,1.4c3.9,5.5,4.9,11.4,2.9,17.9
		c-1.6,5.3-3.3,10.5-6,15.3c-1.1,1.9-0.7,2.7,1.5,3.3c3.5,0.9,6.8,0.7,10.3-0.1c14.6-3.6,26-16.1,26.6-31c0.3-7.8,0.3-16.6-3.1-23.2
		c-4.3-8.5-1.4-15.2,0.2-22.9c1.3-6,1.1-12.4-0.2-18.3c-1.1-5-1.7-4.9,0.9-7.7c0.3,1.9,0.6,3.5,0.9,5.3c0.8-0.2,1.6-0.4,2.6-0.6
		c0.2,5.7,4,10.5,2.8,16.4c-1.5,7.3-6,14.2-3.4,22.2c2.3,7.1,3.9,14.4,5,22.1c0.7-2.7,1.3-5.4,2.1-8c1.1-3.6,2.6-7.1,6.8-7.5
		c4.3-0.4,6.1,3.2,7.6,6.5c3.5,7.3,4.5,15.2,5,23.2c0.2,2.8,2.4,4.2,5,3.1c5.6-2.4,10.6-5.5,14.3-10.5c1.5-2,2.9-4.2,5.9-5.4
		c-0.7,4.5-2.8,7.8-5.3,12.2c9.4,0,18.1,0,26.8,0c0.9,0,1.3-0.8,1.1-1.7c-1.5-5-2.9-10-4.6-15.7c-4.9,5.3-9.4,10.5-16.8,11.5
		c-0.4-2.4,1-3.5,2.8-4c8.9-2.7,14.6-11.9,13.4-21c-0.7-5.6-0.9-11.1-2.1-16.7c-1-4.5-3.1-5.9-5.8-7.3c-4.4-2.3-7.2-5.7-9.6-9.9
		c4,3.4,7.4,7.6,13.2,9c-0.5-3-0.5-5.8-1.5-8.4c-0.4-0.9-2.1-1.6-2.7-3.1c-3.2-9-3.3-18.3-4.3-27.6c-0.8-7.6-0.3-15.1,0.1-22.6
		c0-1-0.1-2.6-0.8-3.1c-1.2-0.9-2.2,0.6-3.1,1.3c-9.1,7-16.5,15.7-23.3,24.9c-1,1.3-3.5,3.2-0.1,4.8c2.2,1.1,4.8,3.5,6.4-1.6
		c0,8,8.7,7.3,11.1,12.9c-6-6.6-15-5.3-22.1-9.1c-7.1-3.8-14.6-6.8-23-8.3c1.7-1.7,3.1-1.2,4.4-0.8c4.7,1.2,9.5,2,13.9,3.8
		c4,1.6,6.2,1,8.3-2.8c4-7.4,9.6-13.8,15.7-19.6c4-3.8,6.9-8.8,11.8-11.8c2.1-1.3,0.6-4,0.9-6c0.8-5.8-0.2-11.3-2.2-16.8
		c-2.1-5.8-0.6-11.2,1.2-17c3-9.5,12.6-13.6,16.4-22.3c4-9.1,9.1-17.8,16.1-25c4.2-4.3,8-9.6,14.7-10.5l-0.1,0
		c-12.9,10.8-21.6,24.6-28.1,40c-2.5,6-3.4,12.4-5.1,19.4c3-4.7,5.3-3,7.5-0.2c0.4,0.5,1.7,0.5,2.5,0.2c1.1-0.3,1.3-1.5,1.2-2.5
		c-0.3-2.3-0.2-4.7-1-6.8c-1-2.6-0.7-5.5,1.1-7.6c2.7-3.1,0.8-7.1,2.2-10.7c6.2-16.5,16.2-28,34.6-31.4c17.5-3.3,34.7-5.1,52.1,0.6
		c3.2,1.1,6.8,1.3,10.2,1.7c11,1.4,13.1,11.7,18.7,18.5c1,1.2,1.4,2.8,2.1,4.3c1.7-0.6,3.7-3.1,5,0c1.2,3,2.6,6.5-0.4,9
		c-3.6,3.1-4.5,11.2-0.9,15.2c1.1-1.4,2.2-2.8,3.4-4.1c0.9-0.9,1.7-2.4,3.3-1.7c1.6,0.7,2.1,2.3,2.2,3.9c0.3,5.3-4.2,11-10.2,12.6
		c-5.8,1.6-8.9,6.9-13.9,9.6c-0.4,0.2-0.6,1.5-0.4,2.1c0.5,1.3,1.8,1.5,3.1,1.5c0.8,0,1.5-0.3,2.3-0.5c1.9-0.5,3.5-3.8,4.9-2.6
		c2.2,1.8,3.3,4.8,4.8,7.4c0.3,0.6,0.5,1.7,0.2,2.3c-3.1,6.1,1.8,4.9,4.7,5c8.2,0.3,11-1.9,14.2-10.2c0.8-1.9,0.9-5.8,3.6-5
		c2.5,0.7,1.1,4.1,0.8,6.4c-0.3,2.3-1.2,4.3-3.2,5.7c-3.1,2.2-6.8,3.5-6.7,8.5c0,1.6-2.2,2.5-4,2.1c-2-0.4-2.3-2-1.8-3.7
		c0.7-2.3-0.5-2.9-2.4-2.8c-9.5,0.4-18.8-2.6-28.3-2.1c-1.8,0.1-3.6-0.1-3.4,2.4c0.2,2.1,1.2,4.2,3.5,3.4c5.8-2.1,6.9,4.2,10.8,5.6
		c0.8,0.3,0.4,1.3-0.2,1.7c-1.4,1-2.8,1.9-4.6,1.3c-0.4-0.1-0.8-0.5-1-0.8c-1.7-2.2-4-5.3-6.7-3.2c-2.7,2-0.6,5.6,0.4,8.3
		c0.6,1.6,1.9,3.6,3.3,4c9,2.7,17.2,7.8,27.9,3.6c14.6-5.7,17.3-17.2,19-30.2c0.1-0.6,0.1-1.1,0.2-1.7c0.1-0.6,0.3-1.3,0.5-1.9
		c2.9,1.8,4.1,8.1,2,15.5c-6.3,22.3-23.6,26.1-43.7,25.2c4,7.3,10.7,8.8,18.8,8.2c-1.9,2.9-0.1,3.2,1.8,3.5c6.5,1,11.2-2.6,14.9-6.8
		c8.9-10.1,16.9-20.9,21.4-33.8c3.4-9.9,3.1-10.7-5.2-16.8c-13.1-9.6-18.2-23.6-20-38.7c-0.6-4.9-1.1-10-1.4-15.1
		c2.1,7.1,5.6,13.5,7.5,20.8c2,7.7,3.9,17,12,22.7c0-2.3-3.3-3.3-1.8-4.9c1.4-1.6,3.8-0.7,5.8-0.4c3.7,0.5,7,2.1,9.9,5.1
		c-2.7,1.1-4.7-0.2-6.9-0.3c-1.1,0-2.8-0.9-3.1,0.9c-0.2,1.5,1.4,1.8,2.6,2.1c2.3,0.6,4.6,1,6.9,1.6c8.9,2.3,14.1,9.5,13.9,18.9
		c-0.2,9.6-4.4,17.9-8.2,26.4c-0.2,0.5-0.4,1-0.4,1.6c5.6-6.2,9.7-13.3,13.5-20.7c3.8-7.5,4.4-15.8,5.9-25.7
		c2.1,8.6,0,15.1-1.4,21.8c1.4,0.1,2.4,0.2,3.6,0.3c-1.4-2.7,1-3.4,2.3-4.3c2.2-1.3,4.2-2.4,1.5-5.6c3.9,0.3,5.4-1.3,4.8-4.9
		c1.5,0.2,2.9,2.8,4.2,0.3c1.4-2.6,1.8-5.2,0.3-8.3c-2.5,1.8-0.3,4.9-2.8,6.3c1-9,1.6-17.8,5.3-26.4c2.6-6,2.1-13.3,3.5-19.8
		c2.6-11.9,0-23.9,0.8-35.8c0.4-6.4,0.7-12.7,2.3-19c1.3-5.1-1.3-10.3-1.9-15.5c-0.9-8.5-5.2-16-6.6-24.3c-0.8-4.5-2.5-8.6-3.6-13
		c0.6,0.7,1.2,1.4,2.6,3c-1.6-7.1-5.6-11.6-9.2-16.3c-2.7-3.5-6.2-7.5-6.3-11.2c-0.1-5.2-5.4-7.9-4.2-13.3c0.5-2.1-1.8-4.4-3.4-6.3
		c1.8-0.8,13.3,3.3,14.2,4.9c0.8,1.4-1.2,1-1.2,1.9c16,9.5,26.4,23.6,33.3,40.4c6.5,15.8,13.7,31.5,15.1,48.9
		c1,12.7-0.2,25.3-1.5,37.9c-1.1,10.9,1.4,20.9,5.1,30.8c5.6,15,11.2,30,22.2,42.2c4.9,5.5,10.9,9.6,17.8,12.3
		c3.4,1.3,6.7,1.5,9.5-1.6c2.9-3.1,1.3-6,0-8.9c-0.1-0.3-0.3-0.6-0.5-0.9c-8.1-8.6-10.5-20.3-16.3-30.2c-5.4-9.2-6.6-19.4-5.8-29.9
		c0.2-2.1,0.2-2.2,1.5-4.3c1.5,0.5,1.1,2.3,2,3.3c7-10.4,14.3-20.6,21-31.1c9.9-15.7,9.3-24.3-1.9-39.2c-0.4-0.5-0.7-1-1.3-2.1
		c12.1,9.1,19.9,23.4,10.9,37.6c-6.5,10.2-12.2,20.8-17.6,31.7c-4.9,10.1-4.9,20.4-2.3,32c1.1-3.6,1.7-6.5,2.8-9.1
		c5.5-12.8,13-24.3,23.8-33.2c19-15.8,19.8-48.4,1-64.2c-8-6.7-17-11.5-26.4-15.9c-6.7-3.2-12.9-7.1-18-12.7c-0.6-0.6,0.3-1.6,1-1
		c0,0,0,0,0,0c7.8,6,16.2,10.8,25.2,14.7c15.5,6.7,26.2,18.1,32.8,33.5c5.1,11.9,2.1,23.3-3.5,34.2c-3,5.9-6.5,11.9-11.7,15.8
		c-4.2,3.1-6.4,7.3-9.6,10.8c-12.3,13.5-15.3,40.3-6,56.2c2.2,3.7,5.1,7.4,3,12.1c-2.6,5.7-8,7.6-14.8,5.2
		c-13.9-4.9-22.7-15.5-29.8-27.7c-7.9-13.5-12.9-28-15.7-43.4c-0.2-1.2-0.5-2.4-0.8-3.6c0-0.2-0.3-0.3-0.7-0.7
		c-3.4,5.5-7.7,10.4-7.3,17.5c0.4,7.3-1.1,14-6,19.7c-1.8,2.1-2.7,4.9-3.2,7.7c-1.4,8.1-4.3,15.1-12.7,18.3
		c7.8,9.9,15,19.8,19.4,31.4c0.9,2.3,2.4,2.9,4.6,2.8c11.9-0.2,23.2,2.6,33.9,8c-6.2-1.3-12.4-2.8-18.7-4
		c-18.4-3.7-35.8,0.4-53.6,5.2c-17.1,4.6-28,17.6-42,26.2c-8.9,5.5-15.7,12.4-20.9,21c-5.3,8.8-7.5,18.9-10.5,28.6
		c-1.4,4.5,1.5,9.4,4,14c2.3-4.1,4.5-1,6.1-0.1c3.2,1.7,6,4.1,9.1,6.2c0.8-0.9,0.1-1.5-0.3-2.1c-4.6-8.2-4.5-16.6-3.6-25.9
		c0.9-9.6,7.8-16.6,8.2-25.9C383.8,510.2,384,509.9,384.1,509.5z M253.4,507.3c-0.2,5.7,2.8,10.5,4.3,15.6
		c3.8,12.7,18.2,23.1,29.2,20c8.9-2.5,17.8-2.8,26.8-3.6c8-0.7,18.1-9.8,18.3-17.7c0.4-14,3-27.3,8.7-40c0.7-1.5,0.6-2.6-1.3-3.4
		c-4.8-2.1-9.5-4.5-14.2-6.9c-2.6-1.4-4-0.2-4.2,2.2c-0.3,4.3-2.1,4.3-5.2,2.5c-7.2-4.3-11.7-3.1-16.3,4c-1.7,2.6-3.2,5.4-4.8,8
		c-0.6,0.9-1.3,2.2-2.6,1.7c-1.3-0.5-0.9-2-0.6-3c1.5-4.3,3.1-8.6,4.8-12.9c0.5-1.4,2.3-2.5,1-4.2c-1.3-1.7-3.2-1.5-5.2-1.5
		c-6.8,0.1-11,7.6-18.2,6.2C263.1,482.9,255.8,493.6,253.4,507.3z M246.7,526.8c-10.1-15.2-15.7-30.4-19-46.5c-0.3-1.7,0.5-4-1-5.1
		c-4.8-3.7-9.7-7.3-13.5-13.1c-0.6,7.6,1.7,13.8,2.5,20.2c1.5,11.8,2.4,23.8,9,34.4c2.7,4.3,2.8,9.4,0.4,14.2
		c-0.4,0.9-0.9,2-0.7,2.9c1.6,9.8,1.6,19.8,3.8,29.5c0.3,1.4,0.9,2.6,2.6,2.6c5,0.1,10.1,0.2,15.1,0.3c1.3,0,2.5-0.3,2-2.2
		c-0.7-2.6-1.4-5.2-2.3-8.8c-0.5,2.3-0.8,3.6-1.1,4.9c-0.9-10.8-4.6-21-5.7-31.7c2.8,11.9,7.8,23.1,11.2,34.8
		c0.7,2.4,1.7,3.3,4.2,3.2c5.1-0.2,10.3-0.2,15.4-0.1c2.2,0,3.2-0.8,3.6-3c1.2-5.3-1.4-9-5.3-11.5c-7-4.6-12.5-10.3-15.8-18.2
		c-5.6-13.3-11.1-26.6-12.6-41.2c-0.4-3.9-1.8-7.6-3.4-11.2c-0.7-1.6-2.3-3.1-4-2.4c-1.7,0.7-0.5,2.6,0,3.8
		c1.8,5.2,3.8,10.4,4.2,15.9c0.3,4,1.6,7.4,3.6,11C242.6,514.5,245.8,519.3,246.7,526.8z M433,437.7c4.1,9.1,2.7,18.6,1.5,28.3
		c5-1.5,9.8-2.9,14.4-4.4c3.6-1.1,10.2-0.1,4.7-7.8c2.6,0.8,2.9,2.5,3.8,3.7c1.5,2,3.6,2.1,5.4,1.2c2.2-1.1,0.2-2.7-0.3-4
		c-2.1-5.6-7.5-9.1-9.5-14.4c-1.9-5.1-4.5-9.3-8.1-13.2c-1.2-1.3-2.4-2.5-4.3-2c-1.8,0.5-3.6,1.5-3.8,3.3c-0.2,1.3-0.7,1.6-1.6,2.1
		c-5.1,2.4-9.9,5.5-12.8,10.3c-3.9,6.6-8.5,12.6-13.1,18.7c-5,6.6-9.9,13.4-14.8,20.1c5.9-2.5,10.9-7,18.6-6.4
		c-4.6,2.5-8.6,4.4-12.3,6.8c-3.8,2.5-8,4.4-11.7,6.9c-3.4,2.3-5.4,6.6-8.1,10c0.4,0.4,0.8,0.8,1.2,1.1c3-2.2,6-4.4,8.9-6.7
		c10.2-7.9,19.6-17.1,32-21.2c7.5-2.4,9.1-6.8,9.9-13.5C433.8,450.1,432.9,444,433,437.7z M358.3,533.1
		c-11.7,15.8-28.1,22.2-45.9,25.9c0,1.6,1.6,2.2,0.8,3.8c-0.7-0.1-1.9,0-2.3-0.5c-3.7-4.3-8.7-3.1-13.4-3.4
		c-6.2-0.4-12.3-0.9-18.2-2.6c-0.8-0.2-1.7-0.1-2.5-0.1c0,2.9-0.3,5.8,0.1,8.6c0.3,2.1,2.5,1.4,3.9,1.4c20.6,0.1,41.2,0.2,61.7,0.2
		c13.1,0,14.6-1.5,14.8-14.8c0-1.5,0.4-3.2-0.2-4.3C354,542.5,356,537.9,358.3,533.1z M257.2,373.3c4.2-7.3,10.1-9.8,15.7-12.7
		c2.5-1.3,5.4-2,8.1-0.7c8,3.7,16.4,3.6,24.9,3.8c11.3,0.3,22.4,1.3,27.8,13.8c0.4,0.9,1.1,2,2.3,1.5c1.5-0.6,1.2-2.1,0.8-3.2
		c-3.4-9.2-7-18.3-17.9-21.3c-4.7-1.3-9.3-3-14.1-4.3c-2.4-0.7-6.4-1.6-6.8,1.1c-0.5,3.2,3.7,2.7,6,2.9c5.9,0.6,11.9,0.1,17.2,3.4
		c0.9,0.6,3,0.8,2,2.4c-0.9,1.4-2.1-0.2-3.1-0.6c-6.4-2.4-13.1-4.3-19.5-1.6c-4.1,1.7-7.5,1.4-11.3,0.1c-2.5-0.9-4.9-2.1-7.5-3
		c-7.3-2.7-23.3,6.4-24.6,14.1C257.1,369.8,257.2,370.7,257.2,373.3z M170.1,565c-0.6,0-1.2,0-1.8-0.1c0-6.7,0-13.3,0-20
		c0-1.6,0.1-3.5-1.7-4.4c-0.9-0.5-1.7,0.1-2.3,0.9c-1.2,1.6-1.8,3.2-0.9,5.3c1.8,4.6,1.3,9.5,0.6,14.2c-1.1,6.9,0.5,13,4.1,18.6
		c1.8,2.8,3.7,2.4,4.6-0.7c1.9-6.6,2-13.4,1.1-20.3c-0.3-2.3-0.9-4.5-1.6-8.2C171.3,556.2,170.7,560.6,170.1,565z M94.4,586
		c-1.3-8.7-0.4-17.7-2.3-26.3c-0.3-1.4-0.2-3.7-2.2-3.7c-2,0-2.4,2.1-2.6,3.8c-0.9,8.7,1.2,17.1,1.8,25.7c0.1,0.8,0.8,1.6,1.4,2.2
		c0.8,0.8,1.5,2.3,3,1.7C95,588.6,94.3,587.1,94.4,586z M55.8,545.9c-0.3-1.2,0.5-3-1.3-3.3c-1.5-0.3-2,1.4-2.3,2.5
		c-2,6.4-4.2,12.7-5.7,19.2c-0.8,3.5-3.6,9.4,0.3,10.5c4.5,1.3,5.5-5.2,7.7-8.6c0.2-0.3,0.3-0.6,0.3-0.9c0.2-0.8,0.2-1.8-0.9-1.7
		c-3.3,0.2-2-1.9-1.6-3.3C53.4,555.5,55.4,550.9,55.8,545.9z M106.2,588.6c1.4-2.2,2.2-4.3,2-6.6c-0.7-8,1.1-15.8,1.9-23.6
		c0.1-1.4,1.5-3.5-0.6-4.1c-2.1-0.6-3,1.5-3.7,3.2c-0.5,1.2-0.8,2.6-0.9,3.9c-0.6,6.5-1.2,13.1-1.7,19.7
		C103,583.7,103.5,586.3,106.2,588.6z M339.5,493.2c-2.7,7.8-4.7,15.5-2.5,23.8c0.3-2.2,0.5-4.5,0.8-6.7c2.6,0.3,5.3,2.9,7.2-0.7
		C347.3,505.4,344.3,495.9,339.5,493.2z M307.5,387.6c-3.3,4.3-1.6,9,3.4,12.8c4.5,3.4,10.2,1.7,14.9,4.2c1.2,0.6,3.2-1.4,3.4-3.1
		c0.2-2.3-1.9-1.4-3-1.3C315.6,400.5,311.2,397.6,307.5,387.6z M212.6,418.4c3.8,1.3,7.3,1.5,10.9,0.6c0.7-0.2,1.7-0.2,2.1-0.6
		c0.7-0.9-0.4-1.5-0.8-2.2c-1.9-3.4-6.1-5.5-5.5-11.4C215.1,409.3,213.8,413.8,212.6,418.4z M358.4,480.9c-3.7,0-7,0-10.3,0
		c-0.8,0-1.6,0.2-1.8,1.2c-0.5,3,0.1,5.6,2.9,7.2c2.6,1.6,4.7,0.8,6.4-1.5C357,485.9,357.9,483.8,358.4,480.9z M262.9,478.3
		c10-6.1,16.1-15.1,23.7-22.9C283.5,454.8,265.1,472.7,262.9,478.3z M251.9,500.7c1.9-4.1,3.8-8.2,5.6-12.4c1.1-2.6-0.8-4.2-2.9-4.8
		c-2.4-0.7-2.5,1.6-3,3.1C250.2,491.2,252.3,495.8,251.9,500.7z M318.4,471.3c1.8-2.6,1.5-4.6-0.1-6.2c-3.2-3.1-6.6-5.9-10-8.8
		c-0.8-0.7-1.4-2.4-2.6-1.4c-1.3,1.1,0.1,2.3,0.8,3.2C309.8,462.8,315.4,465.4,318.4,471.3z M351.9,495c-0.1-3.2-2.3-4.1-4.7-4.3
		c-2.3-0.1-3.5,1.8-3.3,3.8c0.3,2.9,1.4,6.9,4,7C350.5,501.6,351.2,497.6,351.9,495z M212.1,421.8c-3.1,3.7-1.4,7.7-1.4,11.5
		C217.9,431.6,218,431.1,212.1,421.8z M371.4,565.9c-2.6-6.9-8.6-2.4-13.5-3.4c-0.4,0.6-1,1.7-1.9,3.4
		C361.7,565.9,366.8,565.9,371.4,565.9z"/>
	<path d="M254,221.2c-10.1,5-16.9,12-22.6,20.2c2.2-9,8.8-14.1,16.4-18.1c7.4-3.9,14.9-7.7,22.3-11.5c0.5-1.4-1.4-1-1.3-2.2
		c2-1.4,4.5-1.7,6.9-1.9c6.1-0.5,11.1,1.9,15.9,5.4c-1.4,1.8-2.7,0.1-3.9,1.1c0.2,2.1,3.4,2.4,3.3,4.9c-2.1,1.1-3.6-1-5.4-0.8
		c-0.9,2.1,0.4,3.4,2.2,5.2c-3.9-0.9-2.6,1.1-3.1,2.9c-1.4,5-0.2,9.5,2,13.2c7.6,12.6,4.1,24.2-1.9,35.9c-0.2,0.4-0.4,0.8-0.5,1.2
		c-3,19.3-17,30.5-30.7,42c-4,3.3-7,6.5-6.2,12c0.2,1.2-0.2,2.8-0.8,3.9c-7.7,12.4-12.9,26.7-24.9,36.1c-6.3,4.9-10,12-14.8,18.3
		c-6.4,8.4-8.6,17.6-4.2,27.8c-2.7-5.4-6.1-10.3-7-16.4c-7.7,4.5-10.4,4.1-12.9-4.9c-4.3-15.7-15.3-28.1-20.1-43.4
		c-0.3-0.9-1-1.6-1.8-2.9c-0.6,1.2-1.2,2-1.4,2.8c-2.8,14.5-12.8,24.5-22.2,34.6c-7,7.6-14,15.1-20.7,22.9c-1.5,1.8-3.3,3.3-4.9,5
		c-4.1,4.5-8.9,3.1-13.5,1.2c-4.2-1.7-5.7-5.5-6.1-9.7c-0.8-9.1,2.7-16.9,7.7-24c2-2.8,2.7-5.2,2-8.8c-1.2-6.1-1.2-12.4-1.9-18.7
		c-1.4-12.2-5.2-23.7-10.4-34.9c-7.7-16.3-5.5-27.3,7.2-40.1c7.1-7.1,14.8-13.5,23.9-17.8c19.4-9.1,37.1-21.2,54.8-33.1
		c3.3-2.3,7.1-3.9,10.3-6.3c2.3-1.7,6.4-1.5,5.9-7c-0.2-2.5,5.7-5.2,10.7-5.4c-2.1,3-3.3,5.9-5.5,7.7c-5.7,4.8-9.1,10.9-12.3,17.4
		c-7.9,16-16.7,31.7-23.3,48.4c-4.8,12.1-8,24.8-9.5,37.3c-2,16.5-7.5,31.4-16.7,44.2c-6.4,8.8-14.4,17.1-23.4,24.2
		c3.7-5.6,7.4-11.3,11.2-16.9c5-7.5,7.3-16.3,11.8-24c1.4-2.3-1.6-4.5-1.3-7c0.6-5,0.7-10.1,1.8-15c2.8-12.2,5.8-24.5,11.1-35.9
		c5.3-11.4,5.4-24.4,11.4-35.6c-4.8,7.1-11.5,12.6-15.2,20.4c-6.3,13.3-13.9,26.1-18.2,40.3c-0.4,1.2-0.9,3-2.5,2.7
		c-1.7-0.3-1.3-2.1-1.4-3.4c-1.3-25.3,11.3-44,28.6-60.3c5-4.7,10.9-8.5,16.4-12.7c1.3-1,2.9-1.7,3.5-3.8c-0.9,0.3-1.5,0.3-2,0.7
		c-16.8,11.2-35.3,19.5-52.2,30.3c-12,7.7-22.1,18-24.4,33.4c-0.8,5.2-0.5,10.2,2,15.7c0.1-1.3,0.2-1.9,0.3-3.4
		c7.3,18.9,16.6,36.4,13.1,57.1c5.1-9.1,11.9-17.6,9.4-29c-2.5-11.5-4.1-23.1-3.5-35c0.1-1.2,0.2-2.3,0.8-3.5
		c-1,6.9,0.8,13.5,2,20.1c0.6,3.4-1.1,8.4,4.9,9.4c0.6,0.1,1,2.8,1.2,4.3c0.5,3.3,1.6,5.3,4.7,3.3c6.4,5.7,2.5,10.8-0.7,15.7
		c-3.3,5.2-7.3,9.8-11.8,14.1c-4.8,4.5-9,9.6-10.6,16.3c-0.2,0.9-0.5,1.9-1.1,2.4c-4.5,4.2-3.7,10.2-4.9,15.4c-0.7,3-0.2,6.4,2.8,8
		c3.2,1.8,6.6,1.3,9.5-0.9c4.2-3.1,7.3-7.3,9.8-11.8c1.9-3.4,4.1-6.4,6.8-9.1c9.3-9.5,16.5-20.6,24.3-31.3
		c7.9-10.9,6.4-25,13.6-35.5c8.5-12.4,6.1-27.5,11.9-40.5c7.8-17.5,14.9-35.2,27.7-50c1.1-1.3,0.3-3.4,1.1-5.2
		c1.6-3.8,1.1-4,4.3-6.9c-0.3-1.5-2.2-0.2-2.6-1.6c0.6-1.3,2.1-0.8,3.3-1.6c0.2-1-2.6-1.9-0.6-2.9c4.6-2.4,10-1.6,14.9-2.8
		c1.3-0.3-0.5,1.4,0.7,2.3c5.3-2.9,9.4-8.4,16.6-8.8c-0.6,0.3-1.2,0.4-1.7,0.8c-5.8,3.6-7.8,9.8-10.9,15.5
		c-5.3,10.1-7.2,21.8-15,30.8c-7.2,8.2-9.4,18.6-12.3,28.8c-2.5,8.7-4.5,17.4-6.4,26.3c-1,4.7-1.3,9.2-0.8,14
		c1.3,10.8,2.6,21.5,1.3,32.4c-0.2,2,0.3,4.5,1.5,6c2.8,3.6,1.6,7.1,0.9,10.7c-0.4,2.4-0.2,4.5,1,6.7c2.5,4.6,1.8,9.5,1.1,14.5
		c3.6-4.3,6.5-8.9,8.6-14.4c-2.5,0.1-2.9,2.3-4.8,3.3c0.7-3.5,3.1-5.6,4.8-8c1.9-2.7,2.5-5.1,0.7-8.3c-2.4-4.3-1.9-9.6-3.5-14.3
		c-4.8-14.4-2.2-28.3,2.2-42.1c0.9-3,2.3-5.8,3.8-8.6c1.6-3.1,3.2-6,2.8-9.8c-0.2-1.4,0.8-3.4,1.9-4.5c8.1-8.2,11.1-19.3,16.9-28.8
		c2.9-4.7,6.5-9.2,9.1-13.9c2.7-4.8,8.4-9.1,8.2-13.7C248.7,225.4,251.7,224.7,254,221.2z M213.7,366c0.8-3.7,1.5-6.7,2.2-9.6
		c1.1-4.8,3.4-9,7.2-12.2c4.1-3.4,6.6-7.8,8.5-12.6c0.9-2.4,0.6-4.1-1.7-5.7c-4.2-2.9-6.1-7.3-6.3-12.4c0-2,0.4-4.5-2.5-4.5
		c-3.3,0-7.5-2.8-9.5,1.8c-3.5,8.1-6.9,16.3-5.4,25.5c1.2,7.3,2,14.6,3.1,21.9C209.7,360.8,210.6,363.4,213.7,366z M249.8,305.5
		c6.6,0.2,11.3-3.1,13.3-9.5c0.8-2.4,1.5-4.9,2.1-7.4c2.1-7.7-4-16.1-11.9-16.4c-8.1-0.3-13.6,3.7-17.2,10.6c-1.5,2.8-4,6-3.7,8.7
		C233.5,299.4,241.5,305.3,249.8,305.5z"/>
	<path d="M358.6,217.4c18.2,3,32.2,12.8,43.1,27.3c-3.2-2.9-6.6-5.7-9.7-8.7c-3.2-3.1-6.3-6.3-10.8-8c1.7,2.1,3.4,4.1,5.6,6.8
		c-1.6-0.5-2.5-0.8-4.2-1.3c1.6,3,2.9,5.5,4.1,8c-1,1.3-1.7-0.3-2.6,0.2c0,0.2,0,0.6,0.1,0.8c2.4,6.1,7,10.6,11.2,15.4
		c7.9,9.2,14.2,19.4,19.5,30.4c0.7,1.4,1,3,1.2,4.5c0.9,6.5,2.3,12.7,5.7,18.4c2.1,3.5,3.4,7.4,2.8,12.1c-3-1.7-3.8-4.6-5.6-6.6
		c-2.3-2.6-8.9-3.1-10.3-0.3c-5.8,12.3-16.7,9.4-26.6,9.2c-2.3,0-4.7-1.1-7.3-1.8c1.7,6.8,6.8,11.7,7.5,19.1
		c1.8-1.8,2.3-4.9,4.6-3.3c2.9,2,5.6,5,5.4,8.4c-0.5,7.4,1,13.7,6.5,18.8c2,1.9,0,2.7-3.8,4.5c3.6,2.6,6.5,4.5,9.1,6.6
		c1.1,0.9,3.1,2.3,2,3.7c-1.4,1.8-3.1-0.1-4.3-1.1c-5.7-4.9-11.2-10.1-15.1-16.5c-3.9-6.4-8.4-12.6-11.1-19.5
		c-3.6-9.2-11-14.4-17.8-20.3c-24.9-21.8-53.6-21.9-83.5-13.7c-1.1,0.3-2.1,0.6-3.5,0.4c10.5-4.2,18.1-12,26-19.6
		c-1.2,2.2-2.4,4.3-4.2,7.4c6.9-3.1,8.7-9.2,12-14.6c1.2,4-1.3,6.2-1.7,9c6.2-3.8,10.2-9.1,13.2-15.6c-1.3,3.9-2.5,7.9-4.1,11.8
		c-0.9,2.3-0.5,3,1.8,3.7c3.8,1.2,7.5,2.8,11.3,4.2c1,0.4,2.2,1.3,3.1,0.3c1.1-1-0.2-2-0.5-3c-1-2.8-2.5-5.5-2.2-10.2
		c2.2,4.6,3.8,7.9,5.4,11.2c0.2-0.1,0.5-0.1,0.7-0.2c-0.7-2.7-1.6-5.3-1.9-8c-0.2-2.1-4-4.7,0.4-6.7c0.3-0.2-0.4-2.7-0.6-4.1
		c-3.5-21.2-2.9-41.4,13.4-58C347.7,213.9,354.2,213.5,358.6,217.4c-6.3-0.9-11.1,1-15,6.3c-5,6.7-7.3,14.3-9.1,22.2
		c-4.4,20,4.1,45.6,18.9,56.6c-2.5-6-1.6-12.2-4.8-18.1c-8.7-16.2-8.4-32.6,2.6-48.1c1.7-2.5,3.3-4.9,1.6-8.2
		c-2.1,1.6-4.2,3.1-7.2,5.4c1.9-4.8,4.7-7.1,7.5-9.5c2-1.7,5.5-3.3-1.3-5C355,218.3,356.8,217.9,358.6,217.4z M382.2,279.6
		c-8.6,0-18,10.1-17.8,19.1c0.1,5.7,10.5,14,17.4,13.9c7.6-0.1,18.1-8,17.8-13.4C399,289.1,390.5,279.6,382.2,279.6z M404.5,303.8
		c-7.6-0.1-8.4,9.4-15.3,10.4C396.4,313.7,399.5,307.4,404.5,303.8z"/>
	<path d="M504.1,577.9c5.4,5.5,4.3,13.2,6.3,20.9c1.9-3.1,1.6-5.5,1.8-7.7c0.2-2.5,0-4.9,0.2-7.4c0.3-3.9,2.5-6.3,6.3-6.7
		c3.7-0.4,6.3,1.6,7.3,5.1c2.5,8.7,1.9,17.5,0.9,26.3c-0.1,0.9-0.3,1.9-0.5,3.6c2.5-2,16.7-32.2,18.6-33.7c0.2,0.1-0.9,5.6-0.7,5.8
		c-0.9,1.1-12.7,25.8-13.8,26.6c-3.6,2.6-6.8,5.4-8.3,9.8c-0.4,1.3-2.2,2.7-3.1,1.9c-2.1-1.9-6.1-0.4-7.1-4
		c-0.3-1.2-0.7-2.5-1.6-5.5c-2.1,7.5-6.8,11.9-8.1,17.9c-0.6,2.7-0.9,5.8-4.2,6.7c-3.1,0.9-5.3-1.3-6.8-3.4c-2.3-3.4-5-3.8-8.9-3.4
		c-15.5,1.7-35.5-10.2-41.9-24.6c-0.6-1.3-0.8-2.7-1.7-4.3c-0.9,7.2-7,11.3-9.4,17.7c-1.4,3.8-2.8,8.9-7.6,8.7
		c-4.5-0.1-5.7-5.1-6.6-8.8c-1.1-4.7-3.6-7.4-7.6-10c-7.1-4.7-12.2-11.4-15.5-19.4c-0.4-1-0.9-2.1,0.2-3.9
		c3.9,9.3,11.7,14.4,19.2,21.4c-0.3-7.5,1.1-13.9,2.2-20.4c1.4-8.6,5.7-12.7,13.9-12.9c2.5-0.1,4,2.3,5.1,4.4
		c2.1,3.7,2.5,7.8,2.5,12c0,1.6,0,3.2,0,6.5c3.5-5.5,7.2-11.3,5.8-14.4c-3.7-8,0.7-14.2,1.5-21.2c0.3-2.2-1.2-4.6-1.6-7.1
		c-0.4-2.2-0.3-4,0.4-6c2.4-7.5,1-14.2-2.3-21.4c-5.2-11.2-3.6-23.7-5.2-35.6c-0.3-2.5,0.9-5.2,1.5-7.8c-1.9,0.2-1.6,2.3-3,3.1
		c-0.8-3.8-1.2-7.4,2.6-9.8c1.7-1.1,3.1-1.8,3.8,1.6c0.7,3.6,1.1,6.8-1.3,9.9c-3.3,4.2-1.4,9,0.3,12.4c2.1,4.2,2.3,8.3,2.7,12.5
		c0.7,6.5,3.4,12.3,5.9,18.1c4.1,9.5,3.1,19.3,1.5,28.7c-2.5,15.2-0.6,30.7-4.6,45.7c-0.2,0.6,0.1,1.7,0.5,2.2
		c10.5,11,21.7,20.5,38.3,20c3.2-0.1,3.9-0.8,2.7-3.9c-2.6-7.1-2.4-14.9-4.3-22c-1.9-7,1-10.1,6-13.1c4-2.3,7.3-1.5,9.9,2.1
		c4.4,5.9,5.4,12.9,6.5,19.9c0.2,1.1-0.1,2.5,1.3,3.5c2.4-6.3,2.3-12.5,1-19.3c0.2,0.9,0.4,1.8,0.7,2.7c0.3-0.3,0.6-0.6,0.9-0.8
		c-2.5-7.4-5.1-14.7-7.4-22.2c-0.5-1.5-1.8-3.3,0-5C500.9,572.5,502.5,575.2,504.1,577.9z M499.3,623.7c-0.7-6.2-1.2-12.2-2.2-18.2
		c-0.7-4.4-2-8.7-4.4-12.6c-0.7-1.1-1.6-2-3-1.5c-1.6,0.6-0.6,1.8-0.5,2.9c0.5,4.1,0.8,8.2,1.4,12.3c1.1,8.2,2.4,16.3,3.6,24.5
		c0.2,1.4,0.6,3.1,2.4,3.1c1.6,0,1.7-1.6,1.8-2.8C498.9,628.8,499.1,626.1,499.3,623.7z M422.5,624.2c2.3-2.5,2.7-5.3,3.4-7.9
		c2.7-10.4,3.8-21,3.4-31.8c-0.1-2.3-0.7-5.4-3.5-5.3c-3.1,0.1-1.9,3.3-2,5.1c-0.7,11-1.4,22.1-2,33.1
		C421.7,619.6,420.8,621.8,422.5,624.2z M519.2,619.1c3.6-12.8,5.8-24.4,2.9-36.5c-0.3-1.1-1.1-2.2-2.4-1.8c-1.6,0.5-1,2.1-0.8,3.2
		c1.5,9.4,1.5,18.7-1.3,27.8C517,613.9,517.1,615.9,519.2,619.1z"/>
	<path d="M527,496.5c6.6,10.3,13.3,19.1,11,31.4c-1.1,5.9,0.5,12,2.7,17.7c3.2,8.4,6.3,16.8,7.2,25.8c0.4,4.2,4.7,3.8,7.9,7.2
		c-2.2-9.3-3.7-17-6-24.5c-1.3-4.1-0.9-7.5,2.2-10c3.5-2.8,7.6-3.5,11.4-0.2c2.2,1.8,3.9,4.1,6.2,6.5c1.9-4.2,2.2-8.5,2.8-12.8
		c0,2,0.5,4.1-0.1,5.9c-2.6,7.7-1.4,15.1,1.1,22.6c1.9,5.9,2,12.1,1.7,18.3c-0.2,3.1-0.8,6.3-4.1,7.4c-3.2,1-6.3-0.8-7.3-3.5
		c-2.5-7.4-10.7-4.9-14.8-9.7c-0.6,1.3-1.1,2.2-2,4c-2-15.8-7.4-29.8-11.2-44.3c-1.3-4.9-0.9-10.1-0.3-15c0.7-6.6-0.7-12.4-4.5-17.7
		C529.3,503.2,527.9,500.6,527,496.5z M565.2,576.3c-1,4.5,1.2,7.3,2.9,10.2c0.5,0.9,1.1,1.8,2.3,1.5c1.1-0.3,1.6-1.3,1.6-2.3
		c0.4-13.1-1.9-25.6-8.6-36.9c-1.4-2.4-4.2-4.4-8.1-2.9c7,5.8,14.8,29.3,12.7,37.5C566.3,581.7,566.4,579.2,565.2,576.3z"/>
	<path d="M437.7,200c6.6,0,11.9,2.1,18,1.1c-0.8,1.1-1.2,1.7-1.7,2.4c2.9,1.9,5.8-2,10.1,0.4c-4.7,0.5-8,0.9-12,1.3
		c2.9,1.5,7.4,0.1,6.7,5.3c1.2,0.3,3,0.8,5.8,1.6c-2,0.9-3.2,1.4-4.9,2.2c8.1,7,41.3,32.6,48.3,41.5c-8.3-2.2-36.3-31-43.8-34.2
		c0.6,11.3,7,20.1,12.2,29.2c8.2,14.3,15,29.1,17.9,45.3c1.6,8.7,3.2,17.5,2.5,26.5c-1,13.9-3.2,27.7-0.5,41.7
		c-2.6-4.4-3.3-9.2-3.4-14.1c0-9.3-0.2-18.6,0.8-27.8c1.7-16.5-1.6-32.1-8.8-46.7c-9-18.4-17.5-37-28.2-54.5
		c-1.5-2.4-3.3-4.6-5.6-7.6c1.8,0.5,2.6,0.8,5.1,1.5c-4.3-3.2-7.3-5.5-10.3-7.8c0.5-1.5,2.1-0.4,2.9-1.3c-2.2-1.1-5.2,0.6-7.1-1.9
		c1.4-1.6,3.4-0.6,5.2-1.4C444.4,201.1,441,202.9,437.7,200z"/>
	<path d="M228.5,195.5c11.3,3,19.2-5.4,28.4-8.6c17.2-5.8,34.7-10.2,52.7-12.6c4.9-0.6,10.1,0.4,15.5-2.6c-1.7,3.8,0.1,3.3,1.9,3.1
		c15.7-1.4,31.3-0.8,46.4,4.3c9.4,3.1,19.5,4,28.1,9.4c1,0.6,2.1,1,2.8,2.5c-3.7-1.2-7.5-2.2-11.2-3.5c-14.2-5-28.9-7.5-43.7-10
		c-8.5-1.5-16.8-0.7-25.3-0.2c-7.4,0.5-14.9-1-22.3-0.1c-18.9,2.4-36.8,8-54,16.2c-5.6,2.6-11.4,6.3-18.1,2.9
		C229.2,196,228.9,195.7,228.5,195.5z"/>
	<path d="M389.3,219.3c-6.7-5.5-13.5-10.7-20.6-15.5c-9.8-6.6-24.7-3.8-31.4,5.9c-9,13-12.8,27.6-14.5,43c-0.3,2.3-0.4,4.6-1,6.9
		c-1.1-10-1.1-19.8,2.6-29.6c2.9-7.7,6.9-14.7,10.8-21.8c5.9-10.9,24.4-14.8,34.5-7.5c6.3,4.7,12.6,9.1,17.5,15.4
		C387.8,217.2,388.5,218.3,389.3,219.3z"/>
	<path d="M574.1,542.8c1.2-11.8-5.6-19.1-10.9-26.8c-3.8-5.5-8-10.6-9.4-17.5c-0.9-4.3-3.9-7.7-7-10.9c-1.1-1.2-2.9-2.3-2-4.9
		c5.8,3.5,10.9,7.7,13.1,13.9c3.9,10.6,9.8,20,15.4,29.6C576.1,531,577,536.1,574.1,542.8z"/>
	<path d="M318.6,199.7c0.6-1.1,1.3-2.3,2.1-3.9c0.5,1.1,0.8,1.8,1.3,3.1c2.7-3.9,2.7-9.6,9.2-10.3c-6.6,7.8-11.5,16.2-15,25.6
		c0-3.2,0-6.5,0-11.3c-0.8,2.3-1,3-1.3,3.8c-1.6-9.7-5.5-17.1-17.9-18.8c10.7-2.3,14.2,3.3,16.9,10.8c1.4-2.8-0.2-4.8-0.1-7.1
		C315.9,194,318,196.2,318.6,199.7z"/>
	<path d="M504.1,577.9c-1.6-2.7-3.2-5.5-4.8-8.2c-1.7-3.5-2.6-7.1-0.3-10.7c-0.3-0.2,0.2,0.1,1.4,0.9c-1.3-4.8-2.3-8.9-3.4-13
		c-1.1-4.1-2.1-8.2-2.8-12.4C504.4,547.4,503.7,562.8,504.1,577.9z"/>
	<path d="M300.3,207.5c-22.2-10-28.1-9.1-59.7,8.3c2.1-4.2,11.9-9.6,16.2-11.3c5.4-2.2,11-3.4,16.6-4.9c7.6-2,15-2.3,22,2.2
		C297.3,203.2,299,204.7,300.3,207.5z"/>
	<path d="M305,263.7c3.7-11.5,0.7-23.2,1.9-34.8c0.2-1.9-0.7-3.9-1.2-5.9c-0.6-2.6,1-0.9,2.1-0.8c-1.3-3.2-3.2-6-3.3-9.6
		C310.7,220.8,311.4,257.2,305,263.7z"/>
	<path d="M436,374.9c-2-18.4,4.2-36.2,3.3-55.1c3.7,9.2,2.9,17.5-1,25.6c-0.5,1-0.7,2.5-0.4,3.6c1.8,6.7,0.3,13.1-1.3,19.5
		C436.1,370.6,436.2,372.7,436,374.9z"/>
	<path d="M359,192c13.3-3.3,34.2,8.3,38.9,23C387.3,201.5,374.9,193.5,359,192z"/>
	<path d="M423.2,420.5c-0.9-13.2-7-22-17-28.5c-0.9-0.6-2.8-1.2-2.1-2.6c0.9-1.6,2.4-0.3,3.5,0.3
		C419.2,395.2,426.3,408.7,423.2,420.5z"/>
	<path d="M485.9,495c2.7,4.3,4,9.1,3.8,13.9c-0.2,5,0.4,9.7,1.6,14.5c-1.4-3-2.8-6.6-4.7-8.6C480.2,508,489,501.4,485.9,495z"/>
	<path d="M81.2,478.4c-5.8,0.6-11.2,2.4-16.8,5.2c1.3,0.3,2.2,0.5,4.9,1.1c-8.1,1.9-11.7,8.1-17.7,11.7
		C55.4,484.9,69.5,476.3,81.2,478.4z"/>
	<path d="M417.5,194.6c1.3-1.1,2.3-1.9,3.2-2.6c1.9-1.5,9.8-0.5,10.6,1.9c1,2.9,3.3-0.2,4.2,2.2c-6.4-1.1-12.2,3.4-19.1,2.3
		c1.1-1.9,2.7-0.8,3.8-1.7C419.4,196.1,418.5,195.5,417.5,194.6z"/>
	<path d="M514.5,411.8c-9.8-10.4-14-23.3-16.6-37C503,387.4,506.8,400.5,514.5,411.8z"/>
	<path d="M432.7,383.8c-0.7,10.7,5.6,21,1.4,31.9C435.8,404.9,428.9,394.7,432.7,383.8z"/>
	<path d="M194.6,514.9c10.6,11.6,16.4,19.7,9.9,26.4C207.2,529.7,197.3,523.9,194.6,514.9z"/>
	<path d="M112.7,473.9c11.1-6.6,21.6-8.5,32.8-6c-5.4,0.4-10.9,1.2-16.2,0.9C123.5,468.4,120.1,474.9,112.7,473.9z"/>
	<path d="M543.5,479.9c-8.3,0.7-28.5-7.7-35.6-11.9C515.6,469.8,535.8,478,543.5,479.9z"/>
	<path d="M401.9,331.4c-2.5,4.8-7.9,6.5-10.7,3.8c-0.6-0.5-1-1.5-1-2.3c0-1,1-1.5,1.9-1.5C395.3,331.3,398.5,331.4,401.9,331.4z"/>
	<path d="M92.1,471c8.1-5.4,17.1-5.7,26.3-5.1C109.3,465.5,100.9,469.2,92.1,471z"/>
	<path d="M254.4,341.6c-0.9-0.8-2.2-1.6-0.4-2.8c5.3-3.6,10.8-6.4,18.7-7C265.8,335.5,260.1,338.5,254.4,341.6
		C254.4,341.6,254.4,341.6,254.4,341.6z"/>
	<path d="M196,203.8c4.7-0.7,8.5-1.2,12.9-1.8c-4.2,5.8-9.1,6.6-14.9,4.7c2.1-0.5,4.3-0.9,7.8-1.7
		C199.2,204.4,198.1,204.2,196,203.8z"/>
	<path d="M511.4,316.8c0-8,0-16.1,0-24.1C513.7,300.8,512.2,308.8,511.4,316.8z"/>
	<path d="M409.2,205.7c4.8,4.3,12.4,2.1,16.6,7.6C421.8,214.5,412.5,210.4,409.2,205.7z"/>
	<path d="M200,198c4.2-0.8,7.7-2.1,11.4-1.4C208.8,203.8,204.7,200.9,200,198z"/>
	<path d="M96.5,472.3c-3.2,3.2-5.7,6.9-9.8,8.5C87.2,475.6,90.6,472.5,96.5,472.3z"/>
	<path d="M240.7,218.8c-6.2,4.7-11.2,10-15.1,17C226.8,228.6,235.6,218.7,240.7,218.8z"/>
	<path d="M450.8,195.7c-3.1,3-6.5,3.2-10.4,2.1C441.8,194.2,446.5,193.2,450.8,195.7z"/>
	<path d="M417.5,377.7c-2.6-8.5-2.6-15.2,0.9-21.8C416.3,362.6,418.2,369.4,417.5,377.7z"/>
	<path d="M527.5,318.9c-0.2-3.7-0.3-7.5-0.5-11.2c-0.3-3.8-0.7-7.5-0.7-11.3C528.5,303.7,528.7,311.3,527.5,318.9z"/>
	<path d="M358.9,434c1.5,0.3,2.1,1.4,2.1,2.7c-0.1,2.1-1.3,3.3-3.4,3.4c-1.2,0-2.3-0.5-2.1-2C355.8,436.1,356.9,434.6,358.9,434z"/>
	<path d="M384.1,509.5c-0.1,0.3-0.3,0.6-0.4,0.9c-0.8,1-1.6,2-2.4,3c-0.2-4.6,2-7.8,5.1-11.2C387.6,505.7,384.8,507.3,384.1,509.5z"
		/>
	<path d="M481,478.3c1.8,3.4,4.6,6.4,4.7,10.5C482.5,486,480.8,482.6,481,478.3z"/>
	<path d="M416.1,379.5c3.5,3.2,4.2,7.7,5.5,12C418.2,388.3,418,383.5,416.1,379.5z"/>
	<path d="M351.6,438.4c-0.3,1.5-0.8,3-2.5,2.9c-2-0.1-2-1.7-1.9-3.2c0.1-1.4,0.7-2.6,2.4-2.5C351.4,435.7,351.7,436.9,351.6,438.4z"
		/>
	<path d="M323.7,221.9c-0.2-5.4,1.5-10.2,4.9-14.5C327,212.2,325.4,217.1,323.7,221.9z"/>
	<path d="M102.2,513c0.8-4.5,3-7.1,5.9-9.2C107.4,507.3,105.6,510.2,102.2,513z"/>
	<path d="M286.7,521.1c-2.2-6,1.8-19.6,7.2-23.9C291.4,505.7,289.3,512.8,286.7,521.1z"/>
	<path d="M263.6,286.8c0.1,8.3-6.2,15.7-13.6,16c-6.1,0.2-12.2-6.2-12.4-13.1c-0.2-7.3,6.7-14.3,14-14.4
		C259,275.2,263.5,279.6,263.6,286.8z M255.9,287.8c2.2-1.2,5.9-1.2,6.3-4.6c0.3-2.3-2-3.8-4.3-3.6c-2.9,0.3-5.5,1.5-5.8,5
		C251.9,286.9,253.6,287.6,255.9,287.8z M241.7,293.6c2.1,6.5,10.7,8.5,15,4.3c1-1,0.8-2,0.4-3c-0.6-1.5-1.6-0.7-2.5-0.4
		C250.3,296,246.1,298.6,241.7,293.6z"/>
	<path d="M382.3,282.6c7.8,0,13.5,6.2,13.6,14.8c0.1,6.1-7,12.1-14.1,12.1c-6.5,0-14.1-6.2-14.2-11.5
		C367.4,290.3,374.9,282.6,382.3,282.6z M372.1,302.4c4.3,5.4,10.8,6.3,16.6,2.9c3.3-1.9,5.7-4.5,4.3-9.9
		C387.4,302.2,382.3,309,372.1,302.4z M387.1,294.1c2.1-0.5,5.2,0.5,5.5-2.9c0.2-2.6-1.9-4.1-4.4-4c-3.1,0-4.1,2.6-4.4,5
		C383.4,294.9,385.8,293.6,387.1,294.1z"/>
</g>
</svg>
