<?xml version="1.0" encoding="utf-8"?>
<!-- Generator: Adobe Illustrator 24.2.3, SVG Export Plug-In . SVG Version: 6.00 Build 0)  -->
<svg version="1.1" id="Layer_1" xmlns="http://www.w3.org/2000/svg" xmlns:xlink="http://www.w3.org/1999/xlink" x="0px" y="0px"
	 viewBox="0 0 595.3 841.9" style="enable-background:new 0 0 595.3 841.9; fill: #215342;" xml:space="preserve"
	 height="400" width="500" transform="translate(-60, -60)">
<g>
	<path d="M392.5,533.2c5.7,0,11.5,0,17.2,0.1c45.7,0.9,91.3-0.3,137-0.7c-49.9-1.1-99.9-0.9-149.8-0.8c-1,0-2.7,0.7-2.8-0.4
		c-0.1-1.1,1.6-1.6,2.8-1.9c0.5-0.2,1.1-0.1,1.7-0.1c35.3-0.1,70.6,0,105.9-0.3c22.4-0.2,44.8-1,67.1-1.5c-3.5-1-7-0.9-10.5-0.9
		c-17.8-0.2-35.6-0.4-53.4-0.7c-1,0-2.9,0.8-2.8-1.3c0.1-2,1.9-1.2,2.9-1.2c17.6,0.1,35.1-0.2,52.7-1.1c-7.4-0.3-14.7-0.3-22.1-0.3
		c-6.8,0-13.6,0-20.4-0.1c-0.5,0-2.5,0.8-1.3-1.1c2.7-4.4,7.9-4.9,11.4-1.1c1,1.1,2.1,1.3,2.9,0.2c1.9-2.5,4.4-2.3,7-2.2
		c2.7,0.1,5.4-0.1,8,0c2.1,0.1,2.4-0.6,1.4-2.3c-1.5-2.6-2.7-5.1-2.4-8.3c1.4-16.8-2.9-31.7-15.2-43.8c-5.7-5.5-12.8-9.1-18.7-14.2
		c-16.7-14.6-35.2-26.2-56.1-33.9c-1.2-0.5-2-1.3-2.5-2.6c-3.6-8.7-6.9-17.6-11.8-25.7c-1-1.7-2.2-3.7-1.6-6.1
		c0.1-0.6-1.5-1.4,0.6-1.1c1,0.1,0.1-0.6-0.2-0.7c-0.6-0.3-1.2-0.4,0-0.9c1.6-0.7,0.8-2.4,0.1-2.6c-2.6-0.6-0.5-1.1,0-1.4
		c2.7-1.8,5-3.8,5-7.5c0-1.6,0-3.3,0.8-4.7c1.5,1.2,1.4,3,1.7,4.7c1.9,9.5,6.9,16.7,15.6,21.1c7.7,3.9,16,0.4,18.3-7.9
		c2.4-8.9,5.3-17.8,6.4-27c1.5-12.5-0.7-23.1-14.6-28.6c-2.6-1-5.1-2.2-7.7-3.1c-1.8-0.7-3.4-1.6-4.9-2.9c-6.1-5-12.9-8.9-19.8-12.6
		c-2.1-1.1-5.6-0.6-5.9-4.3c-3,0.2-4.1-3.8-7.2-3.5c-0.4,0-0.8-0.3-1.2-0.4c0.4-0.1,0.9-0.3,1.3-0.4c0.5-0.1,0.9-0.1,1.4-0.1
		c-0.1-0.1-0.2-0.3-0.4-0.3c-2.6-0.4-4.9-1.3-7.2-2.5c-1.5-0.8-4-0.5-6.1,0.3c-3.6,1.5-7.2,3-11.1,3.4c-0.2,0.4-0.4,0.7-0.6,1.1
		c0.2,0.6-0.9,2.3,0.3,1.6c3.1-1.6,6,0,8.9-0.4c7.4-1,12.7,3.4,18.3,7c0.2,0.1,0.6,0.6,0.6,0.6c-2.4,2.7,1.3,1.1,1.5,2
		c0.1,0.3,0.7,0.8,1.1,1.1c3.1,2.6,4.7,6.3,6.7,9.6c3.1,5.2,6.9,10.3,8.2,16.3c2,9,3.3,18.2,4.1,27.5c0.7,7.8,3.4,13.7,10.7,17
		c1.6,0.7,3.5,1,4.3,3c2.2-2.1,1.7,0.5,1.6,1.1c-0.3,1.7-1.8,1.1-2.8,0.9c-4-0.7-7.4-2.4-10.1-5.6c-3.7-4.4-6.1-9.4-7.4-15
		c-3.3-14-6.3-28-13.4-40.7c-5.1-9.2-11.9-16.1-22.3-18.8c-3-0.8-5.8,0.1-7.6,2.2c-1.6,1.8-4,2.6-5.2,5.4c-0.9,1.9-1.9,3-0.9,5
		c0.1,0.2,0.2,0.6,0.1,0.8c-1.2,3-1,5.9,0.5,8.8c0.5,0.9,1.3,1.7,1,2.8c-1.2-0.6-2.9,0-3.8-1.4c-0.3-0.5-0.6-1-0.9-1.5
		c-3.6-5.9-5.5-12.7-9.8-18.3c-1.6-2.1-2.3-5-5.2-6l0.1,0c-2.5-0.3-2.5-0.3-2.7,1.6c0,0.1,0,0.2-0.1,0.3c-3.1,1.7,0,2.3,0.6,3.4
		c0.3,0.5,1.4,1,0.9,1.6c-1.6,1.6,0,2,0.8,2.7c5,4.8,8.4,10.6,9.8,17.4c0.3,1.5,0.6,3.2-0.9,4.2c-1.5,0.9-3.1,0.5-4.7-0.2
		c-5.9-2.8-10.5-7-14-12.6c-4.5-7.3-9.5-14.3-19.3-15c-0.5,0-0.9-0.3-1.4-0.5l0,0c-2.2-0.3-4.4-0.6-6.5-0.9
		c-0.6-0.1-1.3-0.1-1.9-0.2c0.2,0.9,1.1,1,1.7,1.3c2.6,1.4,5.4,2.7,7.4,4.9c5.6,6,12.2,10.7,18.8,15.4c4.7,3.3,10.2,5.4,14.2,9.7
		c8.2,8.8,12.5,19.5,14.1,31.3c0.4,3,0.2,6.2-0.7,9.1c-0.9,3-2.9,5.6-4.5,8.3c-0.3,0.6-0.6,1.3-1.4,1.2c-0.8-0.1-0.9-0.9-1.2-1.5
		c-1.7-2.9-0.6-6.3-1.3-9.4c-0.9-3.9-2-8-5.8-10.1c-2.5-1.4-4.1-3.4-6-5.3c-3.2-3-6.4-6.4-11.5-5.7c-1.1,0.1-1.6,0.3-1.7-1.3
		c-0.1-10.6-7.1-15.9-15.9-19.6c-3.3-1.4-6.6-1.2-9.2,1.4c-1.6,1.7-6.1,3.7-0.8,6.5c0.2,0.1,0.8,0.4,0.3,0.8c-1.6,1.4-1.6,1.4,0,2.9
		c0.3,0.3,0.6,0.7,0.9,1.1c-0.6,0.4-1-0.2-1.5-0.4c-0.4-0.1-0.9-0.1-1.3-0.2c0.3,0.4,0.5,0.8,0.8,1.1c1.1,1.2,3.3,2.8,3.1,3.4
		c-1.4,3.3-0.7,6.7-1.1,10c-0.2,1.7,0.3,4.9-1.8,4.8c-6.8-0.2-13.7-0.5-19.9-3.9c-0.6-0.3-1.1-1.2-1.9-0.7c-0.1,0,0.5,1.1,0.7,1.7
		c0.1,0.2,0.3,1,0,0.7c-2.1-2.4-4.5-0.2-6.6-0.3c-3.7-0.2-7.7-1.7-11.3,0.6c-0.5,0.3-0.9-1.6-1.4-0.6c-0.4,0.8,0.8,1.5,1.8,1.8
		c0.8,0.2,1.6,0.7,2.4,0.8c10.5,1,20,5.3,29.6,9.4c7.8,3.3,14,8.4,19,15.2c9.6,13.2,18,27.1,28.7,39.4c2.2,2.6,3.2,5.9,3.9,9.2
		c0.4,1.7,0,2.5-2.1,2c-2.5-0.7-5.1-1.4-6.9-3.3c-5.9-6-13.3-10.5-18.7-17c-0.8-1-2.9-0.8-2.9-2.3c0-4.6-6.7-4.2-6.5-9.1
		c0-0.9-2.1-2-3.3-2.9c-0.3-0.3-1-0.5-1.2-0.4c-0.7,0.3-0.3,1-0.1,1.5c2.3,5.3,4.7,10.4,8.8,14.6c5.1,5.3,12,8.3,17.2,13.3
		c5.5,5.3,11.9,8.2,19.2,9.3c4.2,0.7,7.7,2.7,9.9,6.6c3.6,6.6,4.8,13.6,4,21.1c-0.2,1.7-0.4,3.4-0.6,5.1c1.4-1.3,1.3-3.2,2.1-4.7
		c0.4-0.8,0.2-1.9,1.2-2.5c0.4,0.9,1.2,2,1,2.6c-0.5,1.3,4.2,3.8-0.9,3.9c-0.8,0-0.1,0.7,0.3,0.7c3.3,0.5,1.2,4.3,3.4,5.5
		c-1.4,0.9-0.1,1.3,0.3,2.1c0.5,1,1.1,2.3-1,2.3c-0.6,0-1.3-0.1-1.9-0.2c0.3,0.9,1.2,0.9,1.9,1.1c1.1,0.4,2.1,0.9,1.8,2.2
		c-0.3,1.4-1.4,0.4-2.1,0.5c-0.2,0-0.5,0.1-0.7,0.2c0.2,0.1,0.5,0.3,0.7,0.4c1.6,0.9,3.8,1.5,1.2,3.7c1.1,1.1-0.8,2-0.2,3.1
		c0.3,0.5,0.9,0.8,0.5,1.4c-0.5,0.7-1.2,0.4-1.9,0.2c-0.4-0.1-0.9-0.3-1.3-0.5c0.4,0.4,0.7,0.7,1.1,1.1c0.5,0.6,1.8,0.9,1.2,2
		c-0.5,0.9-1.3,0.2-2-0.1c-0.4-0.2-0.9-0.3-1.3-0.4c-0.1,0.8,0.7,0.7,1.1,1c0.6,0.6,2,0.8,1.4,2.1c-0.5,1.1-1.5,0.4-2.3,0.1
		c-0.4-0.1-0.8-0.1-1.3-0.2c0.3,0.3,0.6,0.7,0.9,1c0.9,0.6,1.7,1.2,1,2.3c-0.7,1-1.5,0.1-2.2-0.3c-0.4-0.2-0.7-0.8-1.1-0.2
		c0,0.1,0.4,0.5,0.7,0.8c0.5,0.6,1.8,1.1,1.1,2c-0.7,1-1.7,0.1-2.6-0.3c-0.3-0.1-0.5-0.3-0.7-0.4c-0.6-0.3-1-0.9-1.8-0.6
		c0.4,0.5,0.8,1,1.3,1.5c0.5,0.5,1.8,0.8,1.3,1.6c-0.5,0.8-1.6,0-2.4-0.3c-0.6-0.2-1.2-0.3-1.8-0.5c0.5,0.4,0.9,0.9,1.4,1.3
		c0.5,0.4,1,0.8,1.5,1.2c-0.4,0.1-0.9,0.4-1.3,0.4c-0.6,0-1.1-0.4-1.6-0.4c-0.4,0-1-1.1-1.3,0c-0.1,0.3,0.6,0.8,1,1.2
		c-0.2,0.1-0.4,0.3-0.5,0.3c-2.2-0.9-4.4,0.3-5.6,1.4c-2.1,1.9-3.9-1.1-6.4,0.5c-2,1.3-6.4-0.2-9.3-1.4c-3.4-1.3-6.3-3.8-8.9-6.5
		c0,0.3,0.1,0.5,0.2,0.6c1.2,1.4,2.8,2.6,3,4.7c-2.1-0.4-2.7-2.4-4.1-3.6c-1.1-0.9-1.3-3.1-2.9-2.8c-2.6,0.5-2.7-1.9-4.1-2.8
		c1.1-1.1,2.3,0.1,3.5-0.1c0.6-0.1,1.1,0,1.7,0c0.3,0,0.8,0.2,0.4-0.6c-0.3-0.6-0.1-0.7,0.5-0.6c5.2,1.1,10.3,0,15.3-1.3
		c0.9-0.2,2.5-0.3,2.4-1.1c-0.2-1.2-1.9-1.3-2.9-1.1c-2.2,0.3-4.1-0.3-6.2-0.7c-1.3-0.3-3.1-2.1-4,0.7c-2-1.2-4.4-0.7-6.4-1.4
		c-8.2-2.7-16.2-5.8-23.1-11.2c-6.6-5.2-13.6-9.7-21.7-12c-2.5-0.7-4.2-2.6-6.7-3.5c-2.3-0.8-5.2-1.6-7.2-3.7
		c-1.8-2-5.5-2.1-6.2-5.1c-1.2-5.2-0.8-10.5-0.6-15.7c0.1-1.6,0.8-3.2,2.8-3.6c1.8-0.3,3.5,0.1,4.6,1.7c0.6,0.9,1.2,1.9,1.7,3
		c1.9,4.4,5.1,7.3,9.6,8.8c1.4,0.4,2.6,1.2,3.9,1.9c1.5,0.9,3.8,2.6,4.4,1c0.8-2.2,3-4.3,1.7-7.1c-2.6-5.7-2.6-5.7,3-8.7
		c0.3-0.2,0.7-0.4,1-0.6c3.6-2.5,3.5-5-0.4-6.9c-2.3-1.1-2.7-3.6-0.8-5.4c4-3.8,4-4.3-0.4-7.7c-0.6-0.5-1.8-0.8-1.4-1.9
		c0.3-0.9,1.1-1.3,2-1.5c0.7-0.2,1.5-0.3,2.3-0.4c5.7-1.1,7.3-3.8,5.9-9.4c-0.2-0.9-0.2-1.8-0.2-2.8c0.7,0.4,1.5,0.7,2.2,1.1
		c0.3,0.2,0.6,0.4,1,0.6c0.3-0.6-0.2-0.9-0.5-1.2c-2.8-2.2-4.3-5.3-5.8-8.4c-5-10.4-12.8-17.5-24.4-19.5c-8.9-1.6-17.9-1.4-26.9-0.2
		c-12.9,1.8-24,7.2-31.7,18.1c-2.7,3.7-6.2,6.1-9.8,8.7c-0.6,0.4-1.3,1.2-2,0.6c-0.7-0.6,0.1-1.4,0.4-2c3-6.2,7.3-11.4,12.7-15.7
		c0.4-0.3,0.8-0.8,1.2-1.1c-0.8-0.3-1.2,0.4-1.7,0.7c-4.3,2.5-7.7,6-10.4,10.1c-1.5,2.3-3.4,4.5-5.2,6.1c-1.4,1.2-1.6,3.4-3.6,3.9
		c-1.4,0.3-1.7,2.3-3.4,2.3c1.3,2.6-3.5,1.5-2.4,4c-3.6,0.4-2.2,5.4-5.6,6.1c0.7,2.6-1.3,3.5-2.9,4.7c-0.5,0.4-1,0.9-1.4,1.3
		c0.6,0.6,1-0.2,1.6-0.1c0.2,0,0.3,0.2,0.5,0.3c-0.2,0.3-0.4,0.6-0.6,0.8c-1,0.6-2,1.1-3,1.7c-0.4,0.2-1.6,0.9-0.2,1.1
		c2,0.4,0.7,1,0.2,1.6c-0.6,0.8-1.2,1.4-1.7,2.4c-1.2,2.5-1.9,5.4-4.7,6.8c-0.3,0.2-0.6,0.5-0.8,0.9c-0.2,0.4-0.4,0.8-0.6,1.3
		c0.4-0.1,0.8-0.1,1.3-0.2c0.5-0.1,0.9-0.8,1.5-0.3c-0.4,0.4-0.7,0.8-1.2,1.2c-1.9,1.4-1.8,1.4-1.3,2.4c0.1,0.2-0.2,0.9-0.5,1.2
		c-2.6,2.6-3.6,6-4.6,9.4c-0.2,0.8-0.3,1.6-0.4,2.5c1-0.5,0.8-1.6,1.2-2.4c0.7-1.6,1.1-3.4,2.1-4.7c6.6-8,10-18,16.1-26.3
		c6.8-9.2,15.4-16.1,25-22c0.4-0.2,0.9-0.3,1.3-0.5c0,0.4,0.2,1,0,1.3c-1.5,2.1-2,4,0.9,5.3c0.2,0.1,0.4,0.4,0.5,0.7
		c1.8,2.6,3.8,4.8,6.8,6c1.6,0.6,1.8,1.4,0.9,2.8c-1.2,1.8-0.3,3.2,1.4,3.9c4.1,1.6,6.9,3.9,6.9,8.8c0,1.8,1.6,3.7,4.1,2.5
		c4.5-2.2,9.3,0.9,9.5,6.1c0.2,4.4-3.1,6.8-5.5,9.7c-5.5,6.7-4.8,10.2,2.7,14.1c1.3,0.7,3.1,2.5,1,3.2c-2.2,0.8-2.9,5.3-6.4,2.7
		c0,0-0.4,0.3-0.5,0.6c-1,1.5-2.2,2.3-3.9,3.2c-6,2.9-10.8,8.5-13.1,13.9c-4.3,10.1-10.6,18.3-17.4,26.4
		c-4.6,5.5-9.7,10.3-16.9,12.3c-8.7,2.4-21.3-1.5-25-7.9c-0.6-1.1-1.2-2.1-1.8-3.2c-0.3,1.4,0.7,2.4,1.3,3.6c0.1,0.3,0.2,0.7,0.2,1
		c-0.3-0.1-0.7-0.2-0.8-0.4c-3.3-5.5-8.6-9.8-9.5-16.7c-0.4-3-0.2-6.1-0.2-9.1c0-4.2-0.4-8.3,0-12.5c0.8-7.7,4.1-14.4,7.6-21.1
		c0.7-1.3,1.5-2.6,2.2-3.9c0.9,1.5,0.2,3.1,0.1,4.6c-0.5,6.3-0.1,12.6,0.4,18.9c0,0.6,0.5,1.2,0.8,1.7c0.1-0.5,0.2-1,0.2-1.5
		c0.1-0.8,0.6-1.5,0.9-2.2c1.6-4.3-0.7-8.4-0.3-12.7c2-20.9,10-39.7,20.1-57.7c1-1.8,2.4-3.5,3.9-5c9.2-9.8,19.9-17.9,30.7-25.8
		c8.6-6.2,17.6-11.9,28.3-13.9c5.8-1.1,11.6-1,17.4,0.2c1.6,0.3,3.8,1.1,2.6-2.4c-1.4-4.4,1-8.6,1.8-12.8c0.2-1,1-1.8,1.5-2.8
		c-1.3,0.6-2.6,1.1-3.3,2.6c-0.2,0.5-0.4,1.1-0.6,1.6c-1.1,3.9-1.1,3.9-3.9,5.5c-0.2,0.1-0.2,0.7-0.2,1.1c0.2,1.4-0.9,2.1-1.6,3
		c0-1-0.1-2.1-0.1-3.1c0.1-4.2,0.9-8.4,0.4-12.6c0-0.4-0.4-0.8-0.6-1.2c-0.1,0.4-0.3,0.9-0.2,1.3c0.4,2.4-0.5,4.7-1.4,6.6
		c-1.2,2.3-4.8,2.3-6.3,4.7c0,0-0.5-0.1-0.5-0.2c-0.3-0.9-0.6-1.9-0.9-2.9c-0.2,1.1-0.5,2.2-0.7,3.3c-0.1,0.2-0.3,0.6-0.4,0.6
		c-2.5-0.5-4,0.7-5.8,2.5c-1.9,1.9-4.9,2.8-7.4,4.2c-0.3,0.2-0.6,0.8-0.7,0.8c-0.7-0.2-0.1-0.8-0.2-1.2c0-0.2,0.6-0.9-0.1-0.5
		c-0.7,0.4-0.8,2.3-2.3,0.8c-0.1,1.8-2.3,0.6-2.9,1.9c-0.4,0.9-1.9,0.5-1.9-0.2c0.1-3.5-1.8-0.9-2.3-0.6c-5.5,3.1-10.8,6.6-16.6,9.2
		c-1.2,0.5-2.9,2.8-3.7-0.6c0-0.2-0.8-0.5-0.9-0.4c-2,1.8-1.4-0.4-2.1-1.1c-2.6-2.6-2.4-6-3.6-9.1c-0.2-0.6,0-1.8-1.1-1.6
		c-0.2,0-0.3,1.2-0.4,1.8c-0.1,1.5,0.9,2.9,0.2,4.5c-0.9-1.3-1.8-2.6-2.7-4c-3.9-6.2-8.7-10.4-16.8-9.5c-2,0.2-2.3,2.2-3.9,2
		c-1.5-0.2-2.6-0.7-3.8,0.9c-0.9,1.1-2,2.5-3.8,2.5c0,0-0.2,0.5-0.1,0.6c1.8,1.6-0.1,1.2-0.8,1.5c-0.6,0.2-1.5-0.1-1.6,0.9
		c-0.3,2.4-3.8,3.1-3.2,6c-2.5,0.5-3,3.2-3.4,4.7c-0.9,3.4-1.7,6.7-3.1,9.9c-0.4,0.8-0.4,1.8-0.6,2.7c2.6,0.4,0.9,1.9,0.5,2.7
		c-0.6,1.5-1.7,2.8-2.5,4.2c-0.2,0.4-0.3,0.8-0.5,1.3c0.3-0.3,0.7-0.5,1-0.8c1.3-1.6,2.4-3.2,4.2-4.2c1.2-0.7,3.2-0.4,3.2,0.4
		c0.2,3.6,3.2,5.6,4.5,8.6c0.4,0.9,2.2,1.7,1.1,2.8c-0.9,0.9-2.1-0.1-3.2-0.5c-0.3-0.1-0.5-0.3-0.7-0.4c-0.7-0.4-1.4-0.7-2.1,0
		c-0.7,0.8-0.3,1.6,0.2,2.4c1.2,1.8,3.1,2.1,5.1,2.1c1.4,0,3.4-0.3,3.8,1.2c0.5,1.7,1.5,1.8,2.8,2.2c3.9,1.2,5.8,4.8,4,7.4
		c-2,3-4.6,1.2-7,0.7c-0.6-0.1-1.1-1.3-1.8-0.1c-0.3,0.5-0.5,1-0.7,1.5c0.6,0,1.3,0,1.9,0c5.5,0,6.2,0.8,5.1,6
		c-0.3,1.4-0.8,2.7-1.3,4.1c-2.8,6.9-6.4,13.6-7.9,20.9c-1.4,6.7-6.7,10.9-9.6,16.6c-0.9,1.8-1.8,1.1-2.6-0.3
		c-2.1-3.3-3.3-6.9-2.6-10.9l-0.8,2.2c-0.3-0.7-0.5-1.4-0.9-2c-0.4-0.6-0.3-2-1-1.7c-0.8,0.3-1.5,1.4-1.8,2.3
		c-0.2,0.7,0,1.7,0.3,2.5c1.3,3.9,2.4,7.8,5.1,11c0.4,0.4,1.2,1.5,0.6,1.6c-3.3,0.6-1.4,3.5-2.5,5.1c-0.7,1-0.6,2.5-0.9,3.7
		c-0.8-1.4-0.7-2.9-0.7-4.5c0-0.4-0.1-0.7-0.1-1.1c-0.7,0.1-0.6,0.7-0.7,1.1c-0.1,0.6-0.2,1.2-0.3,1.7c-0.1-0.7-0.3-1.3-0.4-2
		c-0.1-0.8-0.1-1.5-0.1-2.3c0-0.5,0-0.9,0.1-1.4c-0.3,0.3-0.6,0.6-0.9,1c-0.2,0.3-0.4,0.5-0.7,0.8c-0.1-0.3-0.4-0.7-0.3-1
		c0.2-1,0.5-2,0.7-3.1c0.1-0.3,0-0.5,0-0.8c-0.2,0.1-0.5,0.1-0.6,0.3c-0.3,0.3-0.3,1.1-0.9,0.8c-0.7-0.4-0.3-1.2-0.4-1.8
		c0-0.6,0.7-1.2,0-1.8c-0.3,0.4-0.6,0.9-1,1.3c-0.2,0.3-0.8,0.6-0.8,0c0-2-2.9-3.5-1.1-5.8c0.1-0.2,0-0.5,0-0.8
		c-0.2,0.1-0.5,0.2-0.6,0.4c-0.3,0.5-0.4,1.4-1,1.2c-0.8-0.3-0.2-1.1-0.3-1.8c0-0.4,0.1-1.3-0.3-1.1c-2.7,1.3-1.2-1.1-1.6-1.8
		c-0.3-0.6,0.6-1.9-1.1-1.7c0-2.3-3-2.7-3.1-4.9c0-0.8,0.4-2,0.1-2.2c-1.2-0.7-0.5,1-1.2,1.1c-1,0.3-1.1-0.7-1.2-1.2
		c-0.1-1,0.2-2.1,0.2-3.1c0-0.5,0-1.3-0.2-1.3c-0.7-0.2-0.7,0.5-0.7,0.9c-0.3,1.9-1,0.9-1.5,0.1c-1.6-2.5-2.1-5.3-2.1-8.2
		c-0.1-9.4,2.8-18.1,7.3-26.2c4.6-8.3,7.1-17.3,7.5-26.5c0.4-10.6,3.2-20.9,3.8-31.5c0.1-1.6,0.5-3.8,1.3-5.2c1.8-3,2-6.5,3.4-9.5
		c1.5-3.2,2.4-6.7,4.3-9.6c1.6-2.4,2.7-5,4.3-7.4c1.5-2.3,2.3-5.9,1.6-7.5c-2.1-5-2.4-11.1-7.7-14.4c-0.5-0.3,0.1-0.6,0.3-0.9
		c1.2-1.1,0.5-1-0.6-1.1c-5.4-0.4-10.4-0.1-15.7,2.6c-12.3,6.3-22.7,14.1-29.2,26.6c-3.6,6.9-6.9,13.9-10.7,20.6
		c-4,7-7,14.3-7.7,22.3c-0.5,5.5-0.6,11.1-0.8,16.6c-0.4,9-2.2,17.5-7.5,25c-5.7,8.2-16.5,9.5-23.6,2.5c-5.1-5-8.5-11.2-10.1-18.1
		c-0.4-1.9-0.4-4.3-1.1-6c-2-5.5-0.2-10.6,1.1-15.5c1.2-4.6,4.5-8.7,8.8-11.3c11.7-6.9,23-14.5,33.5-23.1c0.3-0.2,0.6-0.4,0.9-0.6
		c0,0.4,0.1,0.9,0,1.3c-4.8,14.4-7.5,29.1-7.2,44.3c0,0.8,0.1,1.7,0.1,2.5c0.9-0.6,0.7-1.6,0.8-2.5c0.8-8,0.7-16.1,2.7-23.9
		c5.1-19.3,13.3-37.2,24.5-53.8c2.6-3.8,5.9-7.2,9.3-9.7c5.7-4.2,13-6,19.9-7.9c2.7-0.8,5.9-1.2,9.1-0.6c1.2,0.3,2.4,2.5,3.1,1.1
		c0.6-1.1-1.4-2.5-2.4-3.6c-0.4-0.5-0.6-1.6-1.6-1.2c-1.1,0.5-1,0.6-1.6,0.2c-1.6-0.9-3.2-1.8-4.8-2.6c-0.3-0.2-0.7-0.1-1.1-0.2
		c0.2,0.3,0.4,0.6,0.6,0.9c0.3,0.5,0.6,0.9,0.9,1.4c-0.4,0-0.9,0.1-1.3,0.1c-0.9,0.1-1.6-1-2.6-0.3c0.9,0.4,1.7,0.8,2.6,1.2
		c0.4,0.2,0.9,0.4,1.3,0.6c0.3,0.2,0.8,0.6,0.7,0.8c-0.2,0.7-0.7,0.2-1.1,0.1c-3.1-0.6-6.1-1.2-9.3-1.8c0.8,1,2,0.6,2.9,1.1
		c0.5,0.3,1,0.4,1.6,0.6c-0.6,0.2-1.1,0.5-1.7,0.7c-6,2.1-11.9,4.1-17.5,7.6c-8.5,5.3-13.6,12.8-17.9,21.4
		c-2.8,5.6-4.7,11.7-8.8,16.6C107.9,345,93.1,353.3,78,361c-2.8,1.4-2.7,1.4-3.2,3.9c-0.1,0.3-0.5,0.5-0.8,0.8
		c-0.8,0.7-1.7,1.3-2.4,2c-0.5,0.5-1.4,1.4-1.3,1.7c0.4,0.8,1-0.3,1.5-0.2c0.7,0,0.7,0,0.1,1.3c-1.3,2.9-2.1,5.7-2.4,9
		c-1,10.4,3.3,19,8.1,27.5c3.9,7,8.3,13.6,17.8,13c0.3,0,0.5,0.2,0.8,0.2c-0.3,0.3-0.5,0.7-0.9,1c-9,5.8-15,13.8-17.7,24.2
		c-0.5,2-1.7,2.8-3.5,3.6c-10.3,4.3-20.7,7.8-29.4,15.7c-13,12-18.7,34.2-11.4,49.6c0.3,0.7,0.4,1.7,1.5,1.8c-0.1-0.7,0-1.5-0.3-2.2
		c-4.4-11-1.2-21.8,2.6-31.9c5.1-13.7,16.9-21.7,29.2-27.9c11.4-5.8,24.3-8.1,36.5-11.9c4.7-1.5,9.7-2.7,14.6-2.8
		c13.5-0.3,24.4,5.9,33.4,15.4c5.2,5.5,9.9,11.6,14.4,17.8c3.2,4.5,6.4,8.7,8.1,13.9c2.3,6.9,3.3,13.7,0.4,20.7
		c-0.3,0.7-0.7,1.7-1.2,1.8c-1,0.2-0.4-0.9-0.6-1.4c-0.2-0.5-0.2-1-0.8-0.2c-1.6,2.4-1.3-0.5-1.9-0.8c-0.1-0.1,0-0.6,0-1
		c-0.2,0.3-0.5,0.5-0.7,0.8c-0.5,0.4-0.3,1.3-1.2,1.4c0-0.6-0.1-1.3-0.1-1.9c0-0.4,0-0.8,0-1.1c-0.1,0.1-0.3,0.3-0.4,0.4
		c-0.3,0.6-0.6,1.2-0.9,1.7c-0.7-0.7,0.2-1.4,0.1-2.1c-0.1-0.6,0-1.1-0.1-1.7c-0.1,0.2-0.3,0.4-0.4,0.6c-0.3,0.5-0.5,1-0.8,1.5
		c-0.7-0.5-0.1-1.6-0.4-1.7c-1.5-0.6-1-2.1-1.6-3.1c-0.3-0.6-0.6-1.1-1.1-0.1c-0.2,0.4,0.3,1.2-0.6,1.2c-0.1,0-0.2-0.9-0.2-1.3
		c0-1.1,0-2.2,0-3.4c-0.3,0.6-0.4,1.2-0.4,1.7c-0.1,1.5-0.1,3.1-1.1,4.3c-1.2-1.2-0.3-2.8-0.6-4.2c-0.2-0.9-0.3-1.9-0.4-2.9
		c-0.1,0.9-0.1,1.9-0.2,2.8c-0.1,0.5-0.3,1-0.4,1.4c-0.1-0.5-0.2-0.9-0.2-1.4c-0.5-4.5-1.8-8.8-3.2-13c-1-3-3.1-5.9-6.7-5.7
		c-3.4,0.2-4.8,3.1-5.6,6.1c-0.9,3-1.1,5.9-0.6,9.1c0.7,3.6,1.6,7.1,2.7,10.5c0.1,0.4,0.1,0.9,0.1,1.3c-0.4-0.2-0.8-0.4-1.1-0.7
		c-2.3-2.5-4.1-5.4-4.8-8.7c-1.9-8.9-3.6-17.8-5.4-26.8c-0.2-0.8,0.3-1.7-0.5-2.3c-0.4,0.7-0.8,1.5-1.1,2.2
		c-1.8,5.6,1,10.5,2.3,15.6c2,7.7,6.3,15.2,1.7,23.4c-0.5,0.9-0.2,2.2-1,3.1c-0.3-1-0.5-2-0.8-3c0-0.2-0.2-0.3-0.6-0.9
		c0.7,3,0.5,5.5-0.5,8c-0.1,0.4-0.5,0.7-0.8,1.1c-0.1-0.4-0.2-0.8-0.3-1.3c-0.1-0.5,0-1.2-0.3-1.3c-0.6-0.3-0.4,0.4-0.5,0.7
		c-0.2,0.5-0.1,1.3-0.8,1.3c-0.2,0-0.5-0.9-0.6-1.5c-0.2-1.1-0.3-2.2-0.5-3.1c-1.6,2.3,1.9,6.3-3.1,8c-1.3,0.5-2.3-1.2-3.2,0.1
		c-0.8-0.7,0.2-1.3,0.2-2c0-0.3,0-0.7,0-1c-0.4,0.8-0.8,2.2-1.3,2.3c-1.6,0.3,0.8-1.7-0.8-1.7c-0.1,0-0.2,0.3-0.3,0.5
		c-1.4,1.6-0.7-0.4-1-0.6c-1.7-1.1,0.2-2.3,0-3.4c-0.1-0.3-0.1-0.7-0.1-1c-0.2,0.2-0.4,0.4-0.6,0.6c-0.5,0.4-0.9,0.9-1.4,1.3
		c-0.2-0.7-0.3-1.4-0.4-2.1c-0.5-3.9-0.6-7.9-3.5-11c-3.3-3.5-7.7-3.3-9.6,0.2c-2.1,4-1.2,9-4.2,12.8c-0.6,0.7,0.8,1.8-0.3,2.5
		c-0.4-0.8-1-1.6-1.2-2.5c-0.4-1.3-0.6-2.6-0.8-3.9c-0.6-5.6,1.5-11,1.2-16.5c-0.3-4.8,3.3-8.9,2-14.1c-0.5-2.2,1.8-4.8,3-7.2
		c-0.9,0.8-1.7,1.8-2.4,2.7c-0.9,1-1.2,3.5-2.3,3c-1-0.4-0.2-2.8-0.1-4.3c0-0.3,0.2-0.5,0.2-0.8c0.2-1.5,0.5-3-0.1-4.5
		c-1.3,1-1.6,2.6-1.8,4c-1.7,11.9-1.6,24-2,36c-0.1,2.2,0.4,4.4-0.6,6.5c-0.2,0.4-0.6,0.9-0.9,1c-0.6,0.1-0.5-0.6-0.6-1
		c-0.5-1.1-4-1.8-4.7-1c-0.5,0.6-0.3,2-1.9,1.2c-1.5-0.7-0.9-1.8-0.8-2.6c0.4-2.3,1.1-4.5,0.9-6.8c0-0.3-0.3-0.6-0.4-0.9
		c-0.1,0.3-0.3,0.7-0.3,1c-0.2,1.6-0.2,3.2-0.5,4.8c-0.1,0.7-0.7,1.3-1,2c-0.5-0.7-1.1-1.3-1.5-2c-0.9-1.9-1.5-3.9-2.5-5.8
		c-0.9-1.9-2.1-3.9-4.6-3.7c-2.3,0.2-3.6,2-4.6,3.9c-2.2,4.4-3.5,9.1-3.2,14.1c0,0.6,0.6,1.6-0.5,1.8c-2.8,0.6-10.5-4.2-11.1-7
		c-2-8.9,0.6-17,4.8-24.7c0.8-1.5,1.4-2.9,1.4-4.6c0.1-6.4,1.5-12.4,5.6-17.6c0.3-0.3,0-1.1,0-1.6c-0.4,0.2-0.9,0.3-1.2,0.6
		c-4.1,3.4-6,8-6.3,13.1c-0.2,4.6-2.1,8.4-4.5,12.1c-0.7,1-0.9,1.3-2.1,0.4c-5.3-3.9-9.5-2.7-11.4,3.6c-1.5,5-3,10.1-2.4,15.4
		c0,0.5-0.1,0.9-0.1,1.4c-0.1,1.3,5,8.9,6.3,9.2c1.2,0.3,2.3,0.2,3-1.1c0.5-0.8,1-1.7,1.6-2.4c1.3-1.5,2.6-2.5,4.1,0.1
		c1.3,2.3,3.5,3.7,5.9,4.8c0.6,0.3,1.5,0.9,1.5,1.2c-0.2,1-1.3,0.5-1.9,0.5c-11.1,0.2-22.2,0.4-33.3,0.7c-3.7,0.1-7.4,0.4-11.1,0.6
		c15.4,1.3,30.8,1.4,46.2,1.7c2.1,0,4.2,0.2,6.3,0.2c1.6,0,2.8,1.1,2.8,2.3c0,1.4-1.7,0.7-2.6,0.7c-12.7,0.1-25.5,0-38.2,0
		c0,0.3,0,0.7,0,1c12.8,0,25.7,0,38.5,0c2.4,0,4.5,0.3,6.5,1.8c0.5,0.4,1.6,0.9,1.5,1c-0.4,0.9-1.3,0.5-2,0.5c-11.2,0-22.3,0-33.5,0
		c0,0.6,0,1.2,0,1.9c18.1,0,36.2-0.1,54.3,0c39.7,0.2,79.5,0.4,119.2,0.6c1.5,0,3.1,0,4.5,0.7c0.8,0.4,2.3,0.3,2.1,1.5
		c-0.1,0.8-1.5,0.3-2.3,0.3c-44.4,0-88.9,0-133.3,0c0,0.5,0,1,0,1.6c38.5,0,77,0.1,115.4,0c14.4-0.1,28.8-0.4,42.8,4.1
		c0.9,0.3,0.9,0.2,0.7,0.8c-0.3,0.9-0.3,1,0.6,0.8c5.6-1.1,11.3-1.7,17.1-1.8c1.6,0,3.1-0.4,4.7,0.5c15.1,8.5,31.4,13.5,48.8,14.1
		c19.2,0.6,37-3.8,52.2-16.1c2.2-1.8,4.3-2.4,7-2.4c45.4,0.1,90.8,0,136.1,0c0-0.4,0-0.9,0-1.3c-21.9,0-43.9,0-65.8,0
		c-22,0-44-0.1-66.1-0.2c-0.8,0-2.3,0.6-2.4-0.5c-0.1-0.9,1.4-1,2.3-1.4c2.5-1,5.1-0.6,7.7-0.6c48-0.1,95.9-0.4,143.9-1.1
		c4.8-0.1,9.6,0,14.4,0c0-0.4,0-0.9,0-1.3c-11.1,0-22.2,0-33.3,0c-40.1-0.2-80.2-0.4-120.4-0.7c-1.1,0-2.3,0.4-3.3-0.3
		c1.1-0.7,2.1-1.4,3.3-2.1C391.7,533.1,392.1,533.2,392.5,533.2z M466.2,332.6c-5.6-5.2-10.8-10.6-15.8-16.3c-0.4-0.5-1-1.4-0.9-1.6
		c0.6-0.9,1.4-0.1,1.9,0.2c9,5.3,18.1,10.4,26.3,17c2.8,2.2,1.7,5.1,1.2,7.8c0,0.3-0.5,0.5-0.8,0.8c-2.4-1.6-4.6-3.2-7.1-4.3
		C469.3,335.3,467.7,333.9,466.2,332.6z M498.9,526.6c-0.2,0.3-0.7,0.5-1.1,0.7c-0.2-0.4-0.6-0.8-0.6-1.3c-0.2-2-0.3-4-0.4-6
		c-0.1-5.8,1.3-11.4,3-16.8c0.4-1.2,0.7-3,2.4-2.7c1.3,0.3,2.7,1.4,2.7,3.2C505.1,511.9,503.3,519.6,498.9,526.6z M534.8,508.5
		c-1,2.9-2.1,5.8-3.8,8.3c-0.3,0.5-0.7,1.2-1.1,1.2c-0.8,0-0.8-0.9-0.9-1.5c-0.2-1.6-0.4-3.2-0.6-4.1c0.5-6.5,0.8-12.4,2.6-18
		c0.4-1.1,0.5-2.8,2-2.9c1.5-0.1,2.2,1.4,2.7,2.7C537.7,499.1,536.4,503.9,534.8,508.5z M441.5,406.6c-1.8,1.6-3.7-0.3-5.6,0.1
		c-0.2,0-0.4,0-0.6,0c-1.6-0.1-3.3,0.2-4.6-1c1.4-0.9,3.1-0.3,4.6-0.6C437.4,405.5,439.7,404.9,441.5,406.6z M417.4,364.8
		c1.6-2.7,3-5.6,4.9-8.1c1.8-2.4,2.4-4.9,2.7-7.7c0.1-1.2,0.3-2.5,0.6-3.7c0.8-3.1,2.2-5.7,5.9-5.4c3.1,0.2,5.9,3.7,5.9,7.1
		c0.1,3.2-2,4.8-4.7,5.8c-1.4,0.5-2,1.2-2.6,3c-1.9,5.5-6.3,9.2-10.8,12.7c-0.5,0.4-1.1,0.2-1.5-0.3
		C417,367.2,416.7,366,417.4,364.8z M414,395.6c0-0.4,0.1-0.7,0.1-1c0.2,0.3,0.5,0.6,0.6,0.9c1.9,5.4,4.7,10.2,7.4,15.2
		c3.7,7,3.7,14.5,1.9,21.8c-0.6,2.4-1,4.5-0.8,6.9c0,0.4-0.1,1-0.1,1.1c-0.7,0.1-0.4-0.7-0.6-1c-0.2-0.4-0.5-0.7-0.8-1.1
		c-0.2,0.4-0.5,0.8-0.6,1.2c-0.3,2.5-0.6,4.9-0.9,7.4c-0.1,0.5-0.4,0.9-0.5,1.4c-0.2-0.4-0.3-0.9-0.5-1.3c-0.2-0.6,0-1.5-1-1.4
		c-0.2,0-0.3,1-0.4,1.5c-0.1,0.7-0.1,1.5-0.2,2.2c-0.7-0.7-0.3-1.5-0.4-2.3c-0.1-0.4,0-0.8,0-1.1c0.9-4.4,0.7-8.8,1.1-13.2
		c0.9-9.3,0.9-18.5-2.7-27.4C414.3,402.2,413.8,398.9,414,395.6z M412.3,485.8c2.7-5.3,3.9-11.5,9.1-15.3c0.3-0.2,0.8-0.7,0.7-0.8
		c-0.4-0.7-0.7,0.1-1.1,0.1c-1.3,0-0.4-0.8-0.3-1c0.7-1.6,1.5-3.1,2.4-4.6c2.7-4.4,7.8-7.2,8.8-12.9c0.1-0.6,1-1.2,1.7-1.5
		c7.7-3.2,13.7-9,20.5-13.6c4.2-2.9,8.5-5.5,13.8-6c0.9-0.1,1.6-1.1,2.7-1c1.2,0.1,0.5-0.4,0.1-0.8c-0.4-0.4-1.5-0.4-1-1.3
		c0.4-0.6,1.3-0.7,2.1-0.6c2.8,0.6,5.4,1.9,8,3.1c9.7,4.4,18.2,10.6,26.2,17.4c5.2,4.5,10.7,8.7,16.5,12.4c3.7,2.4,6.8,5.6,10,8.6
		c1,1,1.6,1.9,0.1,3.2c-0.6,0.5,0.4,0.8,0.7,1.2c6.1,8.6,9.9,17.9,9.4,28.6c0,0.8,0.3,2.1-0.7,2.2c-0.8,0-1-1.3-1.1-2.1
		c-0.5-3.5-1.4-6.7-3.5-9.6c-2.3-3.2-5.2-3.1-7.2,0.2c-1.1,1.8-2.2,3.5-3.3,5.3c-0.6-1.9-1.2-3.8-1.9-5.7
		c-2.4-6.6-4.9-13.2-7.4-19.7c-0.4-1-1.2-1.9-2-2.8c-1.1-1.3-2.4-2.4-4.3-2.5c0.8,1.1,1.6,2.3,2.4,3.3c1.3,1.6,1.9,3.5,2.7,5.3
		c0.5,1.1,0.1,1.6-0.4,2.3c-0.8,1.1-1.2,0-1.8-0.2c-0.7-0.3-1.5-1.1-2-0.5c-0.5,0.7,0.6,1.2,1,1.7c0.1,0.1,0.3,0.3,0.4,0.4
		c3.1,2.7,4.5,6.1,5.7,10c0.8,2.5-1.5,5.1,1,7.1c-2.9,1.7,0.6,3.2,0.2,4.8c-0.1,0.2-0.2,0.4-0.2,0.7c-0.3-0.3-0.6-0.5-0.8-0.8
		c-0.6-0.7-1.1-1.5-1.7-2.2c-0.5,1.1,0.5,1.9,0.7,2.8c0.4,1.7,1,3.3,1.4,5c0.1,0.3-0.1,0.7-0.1,1.1c-0.1-0.1-0.3-0.3-0.3-0.4
		c0-1.8-1.7-2-2.7-2.8c-0.2-0.1-0.4-0.2-0.6-0.3c0,0.3,0,0.6,0.1,0.8c0.2,0.8,0.6,1.6,0.8,2.5c0.1,0.7,0,1.5,0,2.2
		c-0.8-0.3-0.2-1.6-0.6-1.6c-2.5-0.3-1.1-2.8-2.5-4c0.1,1.6,0.3,3,0.3,4.4c0,0.6-0.1,1.3-0.2,1.9c-0.3-0.6-0.6-1.1-0.8-1.7
		c-0.2-0.4-0.2-0.9-0.4-1.9c-0.3,1.7-0.2,2.9-1.5,3.5c-0.4-1.2-2.2-0.9-2.5-2.3c-0.7-3.7-1.4-7.3-2.1-10.9c-0.1-0.3-0.4-1-0.4-1
		c-0.7,0.2-0.1,0.7-0.2,1.1c-0.1,0.6,1.1,2.1-0.9,1.6c-4.3-1-6.5,0.1-8.2,4.3c-1.6,4-1.6,8.4-2.7,12.6c-0.1,0.4-0.2,0.7-0.3,1
		c-0.1-0.3-0.2-0.8-0.4-0.9c-1.5-0.7-1.6-2.7-2.9-3.4c-0.5-0.3-0.2,1-0.2,1.6c-0.1,0.6,0.7,1.7,0.1,1.8c-0.8,0.1-0.8-1-0.9-1.7
		c-0.1-0.9-0.3-1.8-0.5-3.3c-0.2,0.7-0.3,0.9-0.3,1.1c-0.3,1.4,0.8,2.8,0,4.2c-1.3-1.2-1.1-2.9-1-4.3c0.4-9.6-2.3-18.7-4.1-28
		c-0.8-4.2-0.4-8.6-2.3-12.6c-0.2-0.3-0.4-0.7-0.5-1c-0.6,0.4,0.1,0.8,0,1.2c-0.3,1.4,0.1,2.8,0.2,4.2c0.2,4.4,0.1,8.8,1.2,13.1
		c0.2,0.6,0.5,1.4-0.8,1.7c-5.9,1.7-7.4,3.7-7.7,9.8c-0.1,2.1,0,4.2-0.1,6.3c0,1.1,0.4,2.4-1.6,2.5c-0.8,0-2.4,0-2,1.8
		c-1.2-0.4-1.8,3.3-3.4,0.5c-1.2,2.2-2.7-1.9-4.2,0.3c-0.5,0.7-0.8-2-2.3-1.7c0.4,1.1,1,2.1,1.2,3.2c0.1,0.6-0.4,0.3-0.7,0.1
		c-0.2-0.2-0.3-0.5-0.5-0.7c-1-1.1-1-2.9-2.4-3.7c-0.6,1.7,0.5,3.1,0.8,4.7c0.1,0.9,1.1,1.6,0.4,2.6c-0.6-1.4-2.8-0.8-3.3-2.5
		c-0.2-0.6-0.3-1.3-1-1.5c0.1,0.7,0.1,1.3,0.2,2c0.1,0.5,0.7,1,0.2,1.6c-0.4-0.4-0.9-0.7-1.2-1.1c-4.8-6.6-4.2-13.9-3-21.4
		c1.3-8.4,2.3-16.8,3.4-25.3c0.1-0.6,0.1-1.2,0-1.7c-0.2-1,0.1-2.9-0.7-2.8c-1.1,0.1-1.1,1.9-0.8,2.8c0.7,2.1-2.4,3-1.4,5
		c-3.5,0.3-0.9,3-1.7,4.4c-0.2,0.3-0.2,0.8-0.7,0.3c-0.3-0.3-0.2-1-0.9-0.6c-0.1,0.1,0.2,0.7,0.3,1.1c1,4.7,1.6,9.4,1.1,14.2
		c-0.1,0.5-0.4,1-0.6,1.5c-0.3-0.4-0.7-0.8-1-1.3c-1.6-2.8-3.2-5.9-6.8-5.8c-3.7,0.1-5,3.4-6.6,6.2c-2,3.4-2,7.8-5,10.7
		c-1.3,1.2-2.8,2.1-1.8,4.2c0.1,0.2-0.2,0.6-0.3,0.9c-0.3-0.5-0.5-1-0.8-1.5c-0.3-0.5-0.6-1-1-1.5c0,0.6,0,1.1,0.1,1.7
		c0.1,0.8,0.3,1.7,0.4,2.5c-1.1-0.4-0.9-1.6-1.3-2.4c-0.3-0.7,0-1.7-0.9-2.1c0.1,0.7,0.2,1.5,0.2,2.2c0,0.3-0.1,0.7-0.2,1
		c-0.2-0.3-0.5-0.6-0.6-0.9c-0.5-1.6-1-3.2-1.7-5.1c-0.1,0.5-0.1,0.7-0.2,0.9c-0.2,1.3,1,2.5,0.3,3.9c-1.4-0.7-0.7-2.5-1.8-3.4
		c0.2,1.7,0.4,3.3,0.6,5c-1.5-1.3-1.3-3.2-1.8-4.9c-0.2-0.5-0.3-1.1-0.5-1.9c-0.5,2.1,0.3,3.8,0.6,5.6c0.1,0.4,0.1,0.7,0.1,1.1
		c-0.3-0.3-0.7-0.5-0.9-0.9c-2-4-2.7-8.3-2.5-12.8c0-0.4-0.1-0.9-0.2-1.3c-0.2,0.4-0.5,0.8-0.6,1.3c-0.1,1.2-0.1,2.5-0.3,3.7
		c-0.1,0.7,0.4,1.5-0.3,2c-0.3-0.7-0.7-1.4-0.7-2.1c-0.1-1.7,0.1-3.4,0.1-5.1c0-0.4,1.6-2.5-0.9-1.5c0,0-0.4-0.6-0.4-0.9
		C412,487.6,411.9,486.5,412.3,485.8z M484.4,503.2c-0.5,5-1,10.1-1.5,15.2c-0.1,1.1-0.5,2.2-1.7,2.3c-1.3,0.2-1.3-1.2-1.7-2
		c-2.9-7.1-3.7-14.4-2.2-21.9c0.4-2,1.5-3.3,3.7-3.3c2.3,0,2.5,1.8,2.7,3.4C484.1,499,484.2,501,484.4,503.2z M442.2,494.4
		c-0.6,6.8-2.1,13.4-5,19.6c-0.2,0.3-0.4,0.8-0.7,0.8c-0.7,0.1-0.7-0.6-0.7-1c-1-8.3-0.7-16.5,2.6-24.4c0.3-0.8,0.9-1.9,2.1-1.4
		c1,0.4,1.7,1.1,1.7,2.4C442.2,491.7,442.2,493,442.2,494.4z M378.4,385.8c0.4,0.4-0.1,0.8-0.3,1.2c-2,3.9-5.3,5.4-8.9,5
		c-0.9,0-1.2,0-1.5,0c-0.7-0.1-1.5,0.2-2-0.6c0.6,0,1.3,0,1.9-0.1c3.8-0.4,7.3-1.2,9.5-4.8C377.4,386,377.7,385.2,378.4,385.8z
		 M353.4,367.4c4.1,0,4.1,6.4,0,6.4C349.3,373.8,349.3,367.4,353.4,367.4z M351.5,382.2c0.8-0.8,1.1,0.4,1.5,0.7
		c3.8,2.4,7.6,3,11.6,0.7c3.7-2.1,5.8-5.2,5.5-9.8c0.2-3.1-0.9-6-2.7-8.7c-0.3-0.4-0.5-1.3-0.3-1.5c0.5-0.5,1,0.1,1.5,0.4
		c7,4.2,9.7,13.2,6.3,20.6c-1.6,3.4-4.4,5.2-8,5.1c-5.6-0.1-10.6-2-14.9-5.7C351.3,383.4,350.9,382.8,351.5,382.2z M379.4,412.5
		c-2,2.4-7,1.8-10-0.9c-2.1-1.9-3.4-4.4-4.7-6.8c-0.8-1.3,0-1.7,1.1-2.3c2.6-1.4,5.6-1.4,8.3-2c4.5-0.9,6.3-4.4,8.7-7.5
		c0.8-1,1.2-3.2,2.2-2.9c1.7,0.6,2.3,2.6,2.2,5C385.7,401.3,383.7,407.4,379.4,412.5z M407.4,424.9c-0.4,2.8,0,5.5-0.2,8.2
		c-0.2,3.1-0.3,6.9-3.8,9c-0.8,0.5-0.8,2-1.8,2.9c-1.4,1.2-2.1,1.8-3.8,0.6c-2.3-1.6-4.8-3.1-7.5-4.1c-4.1-1.5-5.7-5.9-2.7-9.2
		c7.2-7.8,9.1-17.8,12.1-27.3c1.3-4.2-0.2-8.5,0.9-12.8c1.1-4.2,1.9-8.6,2.8-12.8c0-0.2,0.3-0.3,0.4-0.5c0.2,0.3,0.4,0.7,0.5,1
		c2.4,8.3,3.9,16.7,4.2,27C407.7,411.8,408.3,418.4,407.4,424.9z M404.3,517.2c0.8-0.1,1.5-0.1,2.3-0.1c14.7,0,29.3,0.2,43.9-0.1
		c3.7-0.1,5.5,2.8,8.3,4c0.2,0.1,0.2,0.4,0.3,0.7c-0.5,0.1-0.9,0.2-1.4,0.3c-4.7,0-9.4,0-14.1,0c-4.4,0-8.8,0-13.2,0
		c0,0.2,0,0.3,0,0.5c-8.7,0-17.4,0-26.1,0c-0.9,0-2.8,0.9-2.7-0.9C401.6,519.8,401.6,517.4,404.3,517.2z M402.3,522.7
		c21.6,0.4,43.3-0.3,64.9,1c7.3,0.4,14.7-0.2,22.1-0.4c0.7,0,1.3,0,2,0c1.2-0.1,2.3,0.2,2.3,1.5c0,1.6-1.4,0.9-2.2,0.9
		c-10.4-0.1-20.9-0.2-31.3-0.3c-4.5,0-9,0-13.5,0c0,0,0-0.1,0-0.1c-14.7,0-29.5,0-44.2,0c-0.9,0-2.4,0.7-2.5-0.8
		C399.8,523.5,400.8,522.7,402.3,522.7z M318.9,417.6c4.5,0.4,8.2-0.6,11.4-3.2c0.4-0.3,1-1.2,1.6-0.5c0.5,0.6,0,1.3-0.4,1.8
		c-0.8,0.9-1.8,2.2-2.8,2.3c-4.1,0.5-8.2,1.7-12.4,0.9c-0.6-0.1-1.1-0.6-1.6-0.9c0.5-0.7,1.2-0.3,1.8-0.3
		C317.4,417.6,318.4,417.6,318.9,417.6z M309.2,408.4c0.2-2.2,1.5-5.6,3.1-5.5c2.1,0.1,2.9,3.3,3.5,5.6c-0.4,1.8-1,3.9-2.9,3.9
		C310.9,412.3,309,410.7,309.2,408.4z M223.6,391.7c-0.7,1.7-1.8,2.3-3.6,1.8c-0.6,0-1.2,0-1.7,0.1c-0.9,0.2-1.8,0.4-2.7,0.7
		c0.8-0.7,1.6-1.5,2.5-2.2c0.6-0.4,1.3-0.8,2-1c1.2-0.4,2.4-1.5,3.7-0.8C224.4,390.5,223.8,391.2,223.6,391.7z M207.7,366.8
		c4.1,0,4.1,6.4,0,6.4C203.5,373.2,203.5,366.8,207.7,366.8z M199.8,370.3c0.2-0.4,0.5-0.7,0.8-1.1c0.1,0.4,0.2,0.8,0.2,1.3
		c0.8,8.8,7.5,13.9,15.3,11.5c4.2-1.3,7.1-5.1,7.4-9.5c0-0.7,0.1-1.4,0.2-2.2c1,4,0.6,8-0.8,11.8c-1.6,4.4-8.8,7.4-15,6.5
		c-4.8-0.7-8.8-5.5-9.2-11C198.6,375.1,198.6,372.6,199.8,370.3z M196.3,382.4c0.3,0.3,0.7,0.6,0.9,0.9c5.6,9.2,16.9,8.8,24.3,3.5
		c3-2.2,3.4-5.8,4.2-9.2c0.2-1.1-0.2-3.1,0.6-3c1.6,0.2,0.3,2.1,0.8,2.8c-0.1,7.7-1.8,10-8.7,12.4c-1.7,0.6-3.3,1.5-5,2.1
		c-6.6,2.3-15.2-1.9-17-8.2C196.3,383.3,196.3,382.9,196.3,382.4z M197.3,392.3c-0.3-0.4-1-0.6-0.6-1.4c0.4,0.3,0.8,0.4,1.1,0.8
		c2.6,2.9,6.1,3.7,9.7,4.1c0.8,0.1,1.8-0.5,2.5,0.5c-0.8,0.1-1.7,0.3-2.2,0.3C203.6,396.4,200,395.4,197.3,392.3z M127.9,358.3
		c0.3-3.2,2.9-4.4,5.2-5.6c5.6-2.8,9.5-6.9,12.3-12.6c2.1-4.3,5.2-8.2,9.8-10.6c0.6-0.3,1.4-0.6,1.9-0.3c0.7,0.4,0.3,1.2,0,1.8
		c-0.7,1.9-0.5,3.7,0,5.6c0.7,3-1.4,5-3.1,7.1c-6,7.4-6.1,7.4,0.5,14.1c1.6,1.6,2.9,3.4,2.9,5.7c-0.2,6.5,3.8,11.8,4.6,18.1
		c0.4,3-0.9,3.6-2.7,4.5c-0.1,0.1-0.5-0.2-0.6-0.4c-1.1-4.3-1.9-0.3-2.7,0.1c-0.5,0.2-1.2,1-1.3,1c-0.6-0.6,0.2-0.9,0.4-1.4
		c0.1-0.4,0.2-0.9,0.3-1.3c-0.4,0.2-0.8,0.4-1.2,0.6c-0.5,0.2-0.8,0.9-1.4,0.5c-0.1-0.1,0.3-1,0.6-1.4c1.5-2.3,2.8-4.8,3.1-7.2
		c0-1.5,0-2.4-1.5-2.2c-1.2,0.2-2.1-0.5-2.4-1.6c-0.3-1.3-0.2-3.4-1.9-0.7c-1.2-1.7-2.7-1.7-4.4-0.6c-0.1-2.8-1.2-3.1-3.2-1.4
		c-2-2.3-2.6,0.3-3.8,1c-0.2,0.1-0.8,0.1-1,0c-0.8-0.8-0.8-0.9-1.7,0.2c-1.4,1.7-1.4,1.7-2.5,0.3c-0.1-0.1-0.1-0.2-0.1-0.2
		c-0.8,1.2-2,1.1-3.3,1.2c-0.8,0.1-1.8,0.8-2.3,0.5c-0.7-0.4,0.7-1.3,0.5-1.6c-1.5-1.7,0.6-3.4-0.1-5c-1.1-2.5-0.7-4.8,1.2-6.9
		c0.2-0.3,0.4-0.6,0.5-0.9c-0.6-0.3-0.8,0.3-1.1,0.6c-1,1-1.1,2.6-2.5,3.3C126.5,360.8,127.8,359.7,127.9,358.3z M112.4,409.5
		c4.2-6.8,5.5-14.4,5.9-20.5c-0.1-8.1,4.7-11.8,11.2-10.4c1.2,0.3,1.4,1.1,1.8,2c1.1,3,2.3,5.9,4.9,8c0.7,0.6,1,1.1,0.4,1.9
		c-3.7,4.5-5.5,10.3-9.7,14.5c-1.9,1.9-3.9,3.1-6.7,3.3c-2.3,0.2-4.4,1.5-6.7,2.4c-0.5,0.2-1.1,0.5-1.5,0
		C111.7,410.5,112.2,409.9,112.4,409.5z M148.7,422.4c-2.1,3.1-6.6,4.6-9.9,3.5c-3.3-1.1-3.2-1-4.5,1.9c-0.6,1.4-2.4,1.4-3.8,1.6
		c-0.8,0.1-1.7,0.1-1.8,0.2c-4.3-0.3-8-0.6-11.6-0.9c-4.5-0.4-8.7,1.1-12.8,2.8c-1,0.4-2.4,1-2,2.1c0.4,1,1.7,0.1,2.5-0.3
		c9.8-3.9,19.6-1.8,29.4,0.1c0.3,0.1,0.5,0.2,0.7,0.3c-0.2,0.3-0.5,0.6-0.7,0.8c-1.2,0.9-2.7,0.6-3.9,0.3c-6-1.6-12.2,0.2-18.3-1
		c-1.6-0.3-2.9,0.9-4.2,1.7c-2.5,1.5-4.8,3.5-8,3.5c-0.6,0-1.1,1-1.7,1.5c-0.3,0.3-0.8,0.9-1,0.8c-0.7-0.2-0.1-0.7-0.1-1.2
		c0-0.3-0.1-0.5-0.1-0.8c-0.3,0.2-0.7,0.3-0.9,0.6c-3.1,4.6-8.4,4.4-12.8,6.2c-0.4,0.2-0.9,0-1.3,0c0.1-0.4,0.2-0.8,0.3-1.1
		c1.7-2.9,2.7-6.1,4.7-9c1.3-1.8,3.3-3,4.1-4.7c3.3-6.9,10.2-9.1,15.6-13.4c4.5-3.6,9.7-3.6,14.2-5.7c3.6-1.7,6.9-1.7,10.4-1
		c0.3,0,0.5,0,0.8,0c-0.1-0.2-0.2-0.6-0.4-0.6c-6.4-2.2,0.1-3.1,0.6-4.5c0.3-0.7,0.8-0.7,0-1.2c-0.6-0.4-0.2-0.6,0-0.8
		c0.9-1.3,3.9-1,2.7-3.9c-0.1-0.3,1.9-1.4,2.8-2.1c0.2-0.2,1.1,0,0.4-0.9c-1.2-1.6-0.8-2.4,1.4-2.9c3.3-0.9,5.9,1.3,8.8,2
		c0.1,0,0.2,0.3,0.3,0.4c-2.8-0.3,0.2,3.1-2,3.2c-0.1,0-0.1,0.4-0.2,0.7c2.4,0.5,1.5,4.2,4.1,4.4c2.1,0.2,3.9-0.7,5.7-1.6
		c0.3-0.2,0.6-0.4,1-0.6c0.3,0.6-0.3,0.9-0.6,1.1c-1.1,0.8-2.3,1.6-3.5,2.4c-0.4,0.2-0.8,0.4-1.1,0.6c0.5,0,1.2-0.1,1.3,0.2
		c0.3,0.7,3.5-2,1.5,1.3c-0.1,0.1,0.2,0.7,0.3,0.7c1.1,0.2,1.6,0.7,0.9,1.7c-0.7,1.1-1.6,0.7-2.5,0.3c-3.4-1.5-7-2-10.7-1.7
		c-0.4,0-0.8,0.3-1.2,0.5c0.4,0.1,0.8,0.4,1.2,0.4c3.4,0,6.6,0.9,9.8,1.8c1.6,0.4,2.2,0.9,1.1,2.5C152,417,150.5,419.8,148.7,422.4z
		 M51.5,497.5c-0.8,7.3-1.9,14.6-4.4,21.6c-0.2,0.5-0.5,1-0.8,1.4c-0.4-0.5-1-0.9-1.2-1.5c-1.6-3.6-2.4-7.4-2.2-10.9
		c-0.1-4.6,0.6-8.5,2.5-12.2c0.8-1.5,1.9-2.8,3.9-2.3C51.1,494.2,51.7,495.9,51.5,497.5z M79.3,533.6c-1.2,0.5-2.3-0.6-3.3-1.3
		c-5.9-4.5-7.4-10.7-6.2-17.6c0.4-2.7,1.6-5.3,2.5-7.9c0.3-0.9,1-1.9,2.1-1.6c1.1,0.3,2.2,0.5,2.7,2c1.6,5.3,1.3,10.8,2.1,16.1
		c0.4,2.3,0.4,4.6,0.7,6.9C79.7,531.3,80.7,532.9,79.3,533.6z M144.2,489.4c0.4-2.6,0.8-6.4,3.9-6.5c3-0.1,3.8,3.6,4.6,6.2
		c1,3.4,0.9,7,0.9,10.5c0,4.1-0.2,8.2-1.2,12.2c-0.1,0.5-0.1,1.2-0.8,1.4c-0.2,0-0.6-0.4-0.8-0.7
		C146.7,505.4,142.7,498.1,144.2,489.4z M129,523.3c15.5-0.2,31-0.4,46.5-0.6c1.2,0,2.4,0,3.6,0l0-0.8c-13.4,0-26.8,0-40.1,0
		c-1.2,0-2.5,0.1-3.7,0c-1.4-0.2-3,0.8-4.1-0.6c1.8-1.2,1.8-4.2,4.9-4.2c15.4,0.1,30.8,0.1,46.2,0.1c1.8,0,3.3,0.4,4.2,2.2
		c1.2,2.4,3.6,3.6,5.7,5.1c0.3,0.2,0.6,0.7,0.8,1c-0.4,0-0.7,0.1-1.1,0.1c-20.7,0-41.3,0-62,0c-0.4,0-0.8,0.1-1.1,0
		c-1.4-0.2-2.8,0.4-4.1-0.6C125.8,523.6,127.4,523.3,129,523.3z M114.7,530c2.3-0.3,4.6-0.6,6.8-0.6c25.8-0.1,51.5-0.5,77.3,0.2
		c1.9,0.1,4.9-0.1,4.9,1.7c0,1.6-3,0.7-4.6,0.7c-13.6,0.1-27.2,0-40.8,0c0-0.1,0-0.2,0-0.3c-14.5,0-28.9,0-43.4,0
		c-0.7,0-2.1-0.2-2.1-0.3C112.9,530.2,114,530.1,114.7,530z M104.5,507.3c0.5-1.6,0.3-4.4,2.6-4.1c2.3,0.3,4.4,1.8,4.9,4.7
		c0.8,4.3,0.3,8.6-0.2,12.8c-0.3,2.4-1.1,4.8-1.5,7.3c-0.4,2.4-1.6,2.2-3.1,1.1c-4-2.8-4.2-7.1-4.5-10.2
		C102.8,514.1,103.5,510.6,104.5,507.3z M94.4,523.6c0.6-0.6,1.5-1.1,1.7-1.8c1.1-2.8,1.6-1.2,2.3,0.2c2.1,3.8,2.1,3.8-3.1,3.8
		c0,0,0,0-0.1,0c-1.2-0.1-2.4-0.2-3.5-0.3C92.3,524.3,93.7,524.4,94.4,523.6z M95.4,525.8C95.8,525.8,95.6,525.8,95.4,525.8
		L95.4,525.8z M86.8,529.1c4.8,0,9.6,0,14.3,0c0.3,0,0.6-0.1,0.8,0.1c1,0.6,2.7,1.4,2.6,1.8c-0.3,1.3-1.7,0.6-2.7,0.6
		c-2.3,0.1-4.6,0-6.9,0v0c-2.8,0-5.5,0-8.3,0c-0.9,0-1.8-0.2-1.8-1.4C85,529,86,529.1,86.8,529.1z M207.8,535.7
		c-14.5,0.1-29.1,0.1-43.6,0.2c-5.7,0-11.5,0-17.2,0l0,0.5c-20.2,0-40.4,0-60.6,0c-0.8,0-2.3,0.7-2.3-0.7c0-1.1,0.7-2.5,2.4-2.4
		c1.1,0,2.1,0,3.2,0c37.3,0,74.6,0,111.9,0c2.2,0,4.4,0,6.5,0.9c0.7,0.3,1.8,0.3,1.7,1.2C209.6,536.1,208.4,535.7,207.8,535.7z
		 M305.8,482.7c-3-4.7,1.8-1.9,2.4-2.8c5.7,0,9.5,3.2,12.9,6.8c1.5,1.6,2.9,2.2,4.9,2.2c1.3,0,2.8,0,3,1.9c0.2,1.8-0.6,3-2.5,3.2
		c-1.8,0.2-2.3,1.5-2.8,2.9c-0.4,1-1.1,1.8-2.3,2c-1.2,0.1-1.1-1.1-1.5-1.8c-0.6-0.9-1.1-2.1-2.3-1.6c-1.2,0.5-0.2,1.6,0,2.5
		c0.1,0.3-0.1,0.7-0.1,1c-0.3-0.1-0.7-0.1-0.7-0.3c-1.1-4.4-5.8-4-8.4-6.3c-2.7-2.3-5.4-4.5-2.7-8.6
		C305.9,483.5,306,483,305.8,482.7z M299.7,498.5c0.7-1.6,2.1-0.4,2.9,0.1c5.2,2.9,10.6,3.5,16.3,2.4c0.3-0.1,0.8-0.4,0.8,0.2
		c0,0.1-0.4,0.3-0.7,0.4c-3,0.7-6,1.3-9.9,1.1c-2-0.1-4.7-0.2-7.4-1.1C300.3,501.1,299,500.1,299.7,498.5z M296,435.2
		c0,0.3-0.2,0.7-0.2,1c-0.2-0.3-0.5-0.5-0.7-0.8c-0.2-0.5-0.3-1.6-0.4-1.6c-0.8,0-0.1,1.1-0.5,1.1c-0.9,0.1-0.5-0.8-0.5-1.2
		c-0.3-4.6-0.5-9.2-0.8-13.7c-0.3-4.6-0.7-9.1-1.1-14c-0.9-3,0.2-2.4,3-2.4c4.4,0.1,2.6,2.2,2.3,4.1c-0.1,1.1-0.6,2.4-0.2,3.4
		C299.5,419.3,297.1,427.2,296,435.2z M288.1,387.5c0.3-1.5,2-1.1,3.1-1.3c1.6-0.3,3.2-0.2,5-0.3c1.4,0.1,3.1,0.1,4.7,0.2
		c0.6,0,1.2,0.2,1.3,0.9c0.1,0.8-0.6,1-1.1,0.9c-3.2-0.3-5.7,0.8-7.9,3c-0.9,0.8-2.3,1.3-3.3,0.1C289,390,287.9,388.9,288.1,387.5z
		 M280.6,389.6c0.7-2.1,2.8-1.7,4.5-2c1.1-0.2,1.7,0.6,1.9,1.9c-1.4,1.1-3.2,1.4-5,1.8C281.1,391.5,280.4,390.2,280.6,389.6z
		 M254.4,414.3c-6.3-2.3-7.6-9.1-3-15.5l0.4-0.6c6.1-9,15.4-12.7,25.2-15.8c0.3-0.1,1,0.1,1,0.1c0,0.7-0.6,0.6-1,0.7
		c-2,0.8-3.9,1.5-5.9,2.3c-0.5,0.2-1.1,0.5-1,1.2c0.1,1,1,1,1.5,0.8c3.6-1.3,4.9,3.2,8.1,3.3c0.7,0-0.1,1-0.7,1.2
		c-1.7,0.4-3.3,0.8-5,1.1c-4.4,0.7-7.8,3-11.4,5.6c-3.3,2.4-5.5,5-7.1,8.5c-0.9,2-0.9,3.9,0.1,5.8c0.2,0.5,0.4,1,0.6,1.5
		C255.7,414.5,255,414.5,254.4,414.3z M276.8,429.5c-0.2-0.3-0.4-0.6-0.5-0.9c-0.5-0.8,0-2-1-2.5c-0.4,0.9-0.9,2.4-0.8,2.7
		c0.5,3.1-2.2,2-3.3,2.7c-0.2,0.1-0.5-0.1-0.8-0.1c-3-0.4-3-0.4-8.5-4.7c-1-0.8-2.1-1.4-3-2.2c-0.9-0.8-2.9-0.8-2.1-2.8
		c0.7-1.8,1.9-2.6,3.8-2c0.4,0.1,0.8,0.1,2.1,0.3c5.2-0.3,10.9-2,15.8-5.9c2.8-2.2,2.7-5.7,2.5-9c0-0.6-0.7-1.6,0.1-1.8
		c0.9-0.2,1.1,0.9,1.4,1.5c1.1,3.1,1,6.4-0.6,9.2c-1.1,1.9-0.8,4.6-3.1,6c-0.3,0.2-0.2,1.1-0.1,1.6c1.1,2.7-2,4.6-1.3,7.2
		C277.3,429,277,429.3,276.8,429.5z M273.5,461.2c-0.3,0.2-0.3-1.3-0.6-1.9c0.2-2.8,1.7-4.4,4.5-4.8c1.1-0.1,2,0.8,1.6,1.4
		C277.4,457.9,275.5,459.7,273.5,461.2z M275.7,464.4c0-2,0.7-3.7,2.3-3.8c1.4-0.1,1.6,1.6,1.5,2.8c-0.1,2-1.2,3.6-2.1,5.2
		C276.3,467.3,276,465.7,275.7,464.4z M265.5,490.2c0.2-1.3,0.9-1.8,2-2.2c1.6-0.5,0.9,0.8,1.2,1.4c1,1.4,1.8,0.4,2.3-0.5
		c0.5-0.8,0.7-1.8,1.3-2.5c0.4-0.5,1.3-1.1,1.9-1c0.8,0.2,0.3,1.1,0.2,1.7c-0.1,1.7,0.7,2,2.1,1.5c0.8-0.3,1.6-0.6,2.4-0.8
		c0.9-0.2,2-0.7,2.7,0.3c0.6,0.8-0.1,1.6-0.5,2.4c-0.6,1.1-1.1,2.1-1.7,3.2c1.6,0.4,3.2,0.6,4.7-0.2c3.1-1.7,5.1,0.4,6.9,2.3
		c1.6,1.7,0.5,4.6-0.2,5.8c-1.1,1.9-4.2,0.9-6.3,1.2c-1.5-0.1-3-0.2-4.4-0.3c-1.6-0.1-2.3-0.6-1.8-2.5c0.7-2.7-1-3.1-2.9-2
		c-3.6,2.1-5.7-1.1-8.2-2.3C265.3,494.8,265.1,492.5,265.5,490.2z M266.2,497.4c6.1,4.7,13.2,6.5,20.8,6.8
		c-7.9,0.8-15.2-0.1-21.2-5.9c-0.3-0.3-0.4-0.7-0.6-1.1C265.5,497.2,265.9,497.2,266.2,497.4z M331,532.2c-8.3,4-17.2,4-26.1,4
		c0-0.3,0-0.7,0-1c-9.6,0-19.3-0.1-28.9,0.1c-2.1,0-4.1,1-5.7-1c-0.1-0.1-0.5-0.1-0.7-0.1c0.3,0.5,0.5,1,0.8,1.5
		c0.4,0.6,0.8,1.2,1.2,1.8c-1.1,0.4-1.6-0.5-2.1-1.1c-1.8-2.2-5-1.8-6.8-3.8c-0.1-0.1-0.6-0.2-0.7-0.1c-1.4,1.1-1.4,1-3.1-0.3
		c-1.3-1-2.6-2.5-4-2.6c-4.5-0.5-6.7-4.1-9.9-6.3c-0.2-0.2-0.4-0.4-0.6-0.6c0.3,0,0.7-0.1,1,0c3.9,0.8,6.2-0.8,7-5
		c0.2-1.2,0.5-2.2,1.6-2.9c4-3,7.9-6,11.7-9.2c1.5-1.2,2.8-1.5,4.7-0.7c5.2,2.3,10.8,3.1,16.4,3.4c4.1,0.2,7.7,2,11.5,3.3
		c10.1,3.4,20.5,3.2,30.9,2.4c3.8-0.3,5.8-4,9.1-5.2c0.3-0.1,0.6-0.4,1-0.6c3.7-2,5.3-0.9,5.4,3.5
		C344.9,521.8,339.5,528.1,331,532.2z"/>
	<path d="M392.4,298.9c-0.9,0.7-1.9,1.4-2.8,2.1c-0.7-1.5-0.5-3,0.4-4.3c0.1-0.2,0.2-0.3,0.3-0.5c0.7-1.1,1.3-2.2,2-3.3
		c-1.2,0.4-2.8,1.4-3.7,1c-2.8-1.2-5.6,0.1-8.7-0.9c-7.6-2.3-13.9-7.4-21.9-8.7c-6.3-1-12.1-4.6-18.2-6.8c-13.6-5-27.7-5.9-42-4.3
		c-1.5,0.2-3,0.3-4.6,0.5l0.1,0c-1-1.1-2-2.2-3-3.4c-0.3-0.4-1.5-0.7-0.8-1.5c0.5-0.5,1.2,0.3,1.7,0.6c1.1,0.9,2.2,1.8,3.3,2.7
		c0.7,0.7,1.6,0.9,2.3,0.3c1-1-0.3-1.4-0.7-2c-0.6-1-2-1.4-2.2-2.7c1.4,0.1,2.4,1,3.3,2c1.8,1.9,4.1,1.2,5.9,0.9
		c16.5-2.3,32.2-0.7,46.7,8.1c3,1.8,6.4,2.8,10,3.3c4.3,0.6,8.7,1.7,12.6,3.7c5.6,2.8,11.7,3.3,17.6,4.6c1.3,0.3,2.9,0.4,3.9-0.2
		c2-1.2,3.3,0.3,4.8,0.8c0.8,0.3-0.1,0.5-0.2,0.5c-2.7,1.1-3.5,3.8-5,6C393.2,297.8,392.8,298.3,392.4,298.9z"/>
	<path d="M293.3,273.6c-5.6,0.8-10.9-1.3-16.3-1.9c-11.2-1.2-21.8,1.6-32.3,5c-9.8,3.2-19.3,7.4-29.5,9.1c-4.1,0.7-8.2,1-12.3,1.8
		c-2.1,0.4-4.1,1.2-6,2.1c-2.9,1.4-8.9,1.6-11.2-0.7c-0.5-0.5-1.1-1-1.8-1.4c-1.4-0.7-1-2.1-1.3-3.2c1.2-0.2,1.5,0.9,2.2,1.5
		c4.9,3.8,10.4,3.4,14-1c2.6-3.1,5.9-4.4,9.8-3c1,0.4,1.4-0.1,2-0.4c2-1,3.5,0.3,5.2,0.9c0.5,0.2,1.3-0.1,1.9-0.3
		c12.4-3.3,24.3-8.4,37-11.1c8.5-1.8,16.9-3,25.5-1c0.6,0.1,1.3,0.6,1.7-0.3c0.1-0.2-0.8-0.7-1.2-1c-1.4-0.9-2.9-1.8-4.3-2.8
		c-1-0.7-2.5-0.7-3.1-2c1.3,0.3,2.6,0.6,3.8,1.1c3.4,1.1,6.5,2.8,9.3,4.9C288.4,271.6,290.6,273.1,293.3,273.6
		C293.3,273.7,293.3,273.6,293.3,273.6z"/>
	<path d="M218.4,347.2c0.5-8.6,3.9-15.3,12-19c2.1-1,6,1.7,5.9,4.1c0,1.2,1.2,1.2,1.4,2.7c0.6,6.2-1.1,11.6-3.4,17.1
		c-0.1,0.3-0.5,0.5-0.7,0.7c-0.1-0.4-0.3-0.7-0.3-1.1c-0.1-2.8-0.9-5.2-3.3-6.9c-4.3-3-7.6-2.1-9.8,2.8c-0.3,0.7-0.2,2.1-1.2,1.9
		C218,349.3,218.5,348,218.4,347.2z"/>
	<path d="M217,506.7c1.2-1,2.3-2.1,3.5-3.1c-1.5,0.4-3.1,0.7-4.5,1.3c-1.7,0.6-2.8-1-4.3-0.9c-0.3,0-0.5-0.2,0-0.4
		c0.6-0.2,1.4,0.2,1.8-0.5c-0.8-0.2-1.6-0.3-2.4-0.6c-8.6-2.9-13.5-9.1-14.6-17.8c-0.8-6.4-0.1-13,2.8-19.1c1-2.1,2.2-3.5,5.1-2.6
		c2.8,0.9,5.7,0,8.2-1.5c4.3-2.5,8.5-5.2,10.9-9.8c0.2-0.3,0.6-0.8,0.7-0.8c0.7,0.3,0.1,0.8,0,1.1c-3.2,7.6-8.8,12-17,13.2
		c-7.8,1.1-8.7,2.1-9.9,9.4c-1,5.8-0.3,11.4,2.7,16.6c4.9,8.7,12.6,11.2,21.6,7c4.2-1.9,7.5-4.8,10.3-8.4c0.2-0.3,0.5-0.5,0.8-0.7
		c0,0.3,0.1,0.7,0,1C228.9,497.1,223.9,502.8,217,506.7z"/>
	<path d="M384.5,479.5c-7.3-0.9-14.1-3.7-19.4-9.4c-0.5-0.5-0.8-1.2-1.2-1.9c0.6,0.3,1.3,0.6,1.8,1c4.9,3.5,10.4,5.7,16.3,6.8
		c5.4,1,9.2-2.5,8.1-8c-1.3-6.5-4.9-11.4-11.5-12.9c-6-1.4-10.6-4.7-14.9-8.7c-0.4-0.4-0.7-0.9-1-1.3c0.8-0.5,1.2,0.3,1.7,0.6
		c2.5,1.3,4.8,3.4,7.5,4c4.8,1.2,9.5,4,14.7,1.9c0.3-0.1,0.7-0.1,1-0.2c-0.2,0.3-0.3,0.7-0.5,0.9c-0.6,0.5-1.2,1.1-1.9,1.3
		c-1.4,0.4-1.5,0.7-0.3,1.7c1.7,1.4,3.9,2.3,5.2,4.3c0.5,0.8,4.5,1,0.4,2.6c-0.6,0.2,0.1,1,0.5,1.4c1.1,1.4,2.2,2.5,2.3,4.8
		C393.3,474.2,389.7,479.6,384.5,479.5z"/>
	<path d="M384,496.9c-13.5,2-21.3-6.5-28.7-15.6c-0.5-0.6-1.1-1.3-0.7-2.2c0.5,0.5,1.1,1,1.6,1.6c5.5,6.3,12.9,9.3,20.8,11.1
		c2.2,0.5,5.9,0.6,6.8-0.7c1.7-2.4,4.9-2.3,6.3-4.6c1.2-1.8,3-1.3,4.6-0.9c0.7,0.2,1,0.5,0.3,1.1c-1.3,1-2.7,1.9-3.5,3.4
		c-0.4,0.7-0.6,0.5-0.4,1.9c0.1,0.7-0.5,0.5-0.7,0.6c-1.1,0.3-2.2,0.4-3.3,0.8c-0.9,0.3-1.8,0.7-2.6,1c0.6,0.9,1.5,0.4,2.2,0.5
		c1.5,0.1-0.8,1.9,0.9,1.8c-0.3,0.1-0.7,0.3-1,0.3C385.7,497,384.9,496.9,384,496.9z"/>
	<path d="M174.5,372.6c-0.7,6.7-1.5,13.5-3.3,20c-0.1,0.5-0.1,1.2-0.8,1.3c0-0.5,0-0.9,0.1-1.4c1.3-9.5,2.5-18.9,3.8-28.4
		c0.1-0.8,0.4-1.6,0.6-2.5c0.2,0.8,0.4,1.5,0.7,2.7c0.5-6.4,2.5-11.9,5-17.4c0.2-0.5,0.6-0.8,1-1.2c-0.1,0.5-0.1,1.1-0.3,1.6
		c-3.9,8.9-5.9,18.3-4.7,27.9c0.4,3.3-0.1,7.3,3.3,9.8c0.5,0.4,0,2,0.1,3c0.3,5.8-1.2,10.9-5.4,15.1c-1.5,1.5-1.8,4-3.6,5.4
		c-0.8,0.6-1.8,2-2.6,1.4c-1-0.7,0.2-1.9,0.7-2.6c1-1.7,2-3.6,3.5-4.9c4.7-4.2,5.2-9.3,3.7-14.9
		C175.1,382.8,174.4,377.8,174.5,372.6z"/>
	<path d="M331.8,387c-20-16.2-42.6-17.4-66.5-10.2c-2.1,0.6-4,1.9-5.9,2.8c-0.3,0.1-0.7,0.1-1,0.2c0.2-0.3,0.4-0.6,0.7-0.8
		c7.4-4.6,15.2-7.8,24.2-7.4c2.4,0.1,4.5-1.6,6.9-1.5c11.2,0.7,21.7,3.6,31.6,8.9C325.7,381.2,329.6,383.3,331.8,387z"/>
	<path d="M331.1,317.5c7.9,1.4,15.8,3.3,23,7.4c0.4,0.2,0.6,0.7,0.9,1c-0.4,0-0.9,0.1-1.3,0c-5.2-1.9-10.5-2.9-16.1-2.7
		c-2.7,0.1-5.9,0.2-8-0.4c-3.2-1-4.7,0.9-6.9,1.6c-1.5,0.5-2.9,0.3-4.3,0.1c0.5-1.3,1.3-2.6,2.5-3.3
		C324,319.4,327.3,317.8,331.1,317.5z"/>
	<path d="M221.4,290.8c-0.4,0.5-0.9,1-1.4,1.5c-3.9,3.7-7.6,7.4-11.9,10.6c-4.9,3.6-7.6,9.3-10.5,14.5c-3.1,5.5-5.8,11.2-8.7,16.8
		c-0.2,0.4-0.6,0.7-0.9,1c0-0.4,0-0.9,0.2-1.3c4-11.4,8.5-22.6,17.8-31c4.7-4.3,10.4-7.5,14.8-12.2c0.2-0.2,0.5-0.2,0.7-0.4
		C221.4,290.4,221.4,290.6,221.4,290.8z"/>
	<path d="M392.4,298.9c0.4-0.5,0.7-1.1,1.1-1.6c0.3-0.1,0.5-0.2,0.8-0.3c1-0.6,2-1.1,2.9-1.7c0.1,1.4-1.1,2-1.8,3
		c-0.3,0.4-1,1-0.4,1.4c0.5,0.4,1-0.2,1.4-0.6c5.3-5.1,11.9-6.9,18.9-8c0.7-0.1,1.4,0.1,2,0.2c-0.6,0.2-1.2,0.5-1.8,0.7
		c-4.4,1.4-8.8,2.4-12.9,4.7c-0.8,0.4-2.2,1-1.9,1.8c0.2,0.7,1.3-0.5,2.1-0.5c0.4,0,0.8,0,1.1-0.1c-0.2,0.4-0.4,0.7-0.6,1.1
		c-3,2.2-7,2.1-9.9,4.5c-0.4,0.3-1.1,0.5-1.5,0.3c-0.8-0.3-0.5-1.1-0.4-1.7C391.9,300.8,392.2,299.9,392.4,298.9z"/>
	<path d="M240.8,310.1c1.3,0,2.4,0.6,3.5,1.2c1.6,0.9,1.8,1.6-0.1,2.3c-0.7,0.3-2.3,0.3-1.3,1.8c1.5,2.1,0.9,2.4-1.3,1.8
		c-2.7-0.8-5.3,1.8-8.1,0.5c-1.3-0.6-2-2.4-1.5-2.8c1.1-0.8,2.6-0.9,2.5-2.8C237,312.6,238.4,309.9,240.8,310.1z"/>
	<path d="M197.3,309.4c-0.7,0.3-1.4,0.7-2.1,0.9c-0.8,0.3-1.9,1.4-2.5,0.4c-0.5-0.8,0.9-1.2,1.6-1.6c0.9-0.6,1-0.7-0.2-1
		c-1.2-0.3-0.1-1.6,0.1-1.8c2.3-2.3,3.2-6.1,6.8-7.1c-0.7-1.4,0.6-2,1.3-2.6c1-0.9,2.6-2,3.8-1c1.3,1.1,0,2.6-0.7,3.5
		c-1.2,1.6-2.5,3.2-4.1,4.3c-2.1,1.5-2.2,4.1-3.9,5.7C197.4,309.3,197.4,309.4,197.3,309.4z"/>
	<path d="M190.8,419.4c-2,2.5-1.3,5.4-2.5,7.7c-0.4,0.8-1.1,1.6-2,1.2c-1-0.4-0.2-1.3-0.1-2c0.8-4-2.3-6.1-4.4-8.7
		c-0.7-0.9-2.3-1.7-0.6-2.9c0.7-0.5,1.7-4.8,2.9-0.2c0.2,0.7,0.9,0.5,1.5,0.4C189.4,414.4,188,419,190.8,419.4z"/>
	<path d="M93.8,390.9c0.1-1.8,0.7-4.5,1.8-7c0.1-0.3,0.5-0.5,0.7-0.8c0.1,0.1,0.3,0.3,0.3,0.4c-0.6,3.1,3.1,3.8,3.4,6.6
		c0.3,2.6-0.5,4.5-1.6,6.4c-0.4,0.7-4.6-2.2-4.7-3.2C93.7,392.8,93.8,392.3,93.8,390.9z"/>
	<path d="M315.6,310.8c-3.9-0.1-6.4-3.1-4.9-5.9c0.6-1.1,1.4-2.6,2.9-0.6c0.8,1,2,0.8,3.2,0.8c1.2,0,2.4,0.2,3.6,0.5
		c3.8,1-3.7,1.3-0.1,2.1c3,0.7,1.3,1.2-0.1,1.7C318.7,309.8,317.1,310.3,315.6,310.8z"/>
	<path d="M294.4,344.4c-0.7-5.1-4.4-7.7-5.2-11.7c-1.1-6-0.5-12,0.7-17.9c0.1-0.5,0.3-0.9,0.4-1.3c0.4-0.9-1-2.3-0.1-2.4
		c0.8,0,0.9,1.8,1,2.9c0.4,4.6-0.5,9.2-0.8,13.7c-0.2,3.8,0.2,7.2,2.5,10.3C294.1,339.5,294.9,341.3,294.4,344.4z"/>
	<path d="M248.1,288.5c-0.7,0.5-1.2,0.9-1.7,1.2c-4.4,1.9-8.8,3.8-13.2,5.6c-0.3,0.1-0.9,0.3-1.1,0.1c-0.4-0.6,0.2-0.9,0.5-1
		c4-1.1,4.9-6.4,9.3-7c0.2,0,0.5-0.3,0.5-0.5c0-0.7-1.5,0-1.2-1.2c0-0.1,0.4-0.1,0.5,0C244,286.2,246.4,286.4,248.1,288.5z"/>
	<path d="M195.2,334.2c-0.2-0.1-0.4-0.2-0.4-0.2c0.1-0.3,0.1-0.6,0.3-0.8c0.8-1.2,1.6-2.4,2.6-3.4c3.8-4.2,7.7-8.2,10.9-12.9
		c0.6-0.8,1.8-1.9,2.5-1.4c0.7,0.5-0.9,1.4-1,2.3c-1.6,8.1-9.7,10.3-14.2,15.8C195.7,333.8,195.4,334,195.2,334.2z"/>
	<path d="M382.6,325.7c-0.2,0.5-0.3,0.9-0.5,1.1c-0.6,0.4-1.1-0.1-1.5-0.4c-2.8-2-4.5-4.9-6-7.9c-2.8-5.7-4.9-11.9-10.6-15.7
		c-0.3-0.2-0.3-0.6-0.5-0.9c0.3,0.1,0.7,0,1,0.2c2.4,1.8,4.8,3.6,6.1,6.3c2.6,5.3,5.9,10,10,14.2
		C381.3,323.5,381.9,324.7,382.6,325.7z"/>
	<path d="M285.8,287c-1-2,2.3,0.1,1.5-1.7c3.3,0.7,7,0.3,10,2.3c0.2,0.1,0.4,0.4,0.6,0.6c-0.2,0-0.4,0.2-0.5,0.1
		c-6.2-2.3-11.5,2.4-17.5,2.4c-2.3,0-2.5,0-2.5-0.4c1.5,0.3,1.3-2.1,3-1.8c1.4,0.3,3-0.4,4.5-0.5C285.9,288,286.4,288,285.8,287z"/>
	<path d="M203.8,471.2c0.2,4.2,1.2,6.8,4.3,7.9c3.8,1.4,7.1-0.4,10-2.5c2-1.5,3.8-3.4,5.7-5.1c0.2-0.2,0.6-0.3,0.9-0.5
		c-0.1,0.3-0.2,0.7-0.4,1c-2.2,3.6-5.1,6.4-8.8,8.3c-3.4,1.8-6.4,1-9.3-1C203.4,477.5,203.2,475,203.8,471.2z"/>
	<path d="M203.3,340.7c0.9,0.2,0.5,0.7,0.2,1c-2,2.4-3.8,5-6.2,7.1c-2.3,2.1-4.9,3.9-6.4,6.8c-0.2,0.3-0.5,0.5-0.7,0.7
		c0-0.4-0.1-0.7,0-1.1c0.6-2.7,1.9-5,4-6.9c2.6-2.3,5.2-4.5,7.8-6.7C202.4,341.3,202.9,341,203.3,340.7z"/>
	<path d="M262.2,277.6c0.2,0,0.8,0,1.3,0c0.3,0,0.6,0.1,0.8,0.1c-0.3,0.1-0.5,0.3-0.8,0.4c-5.3,0.8-10.6,1.4-15.7,2.7
		c-4.1,1-8.1,2.2-11.9,3.9c-0.5,0.2-1.1,0.3-1.6,0.4c0.4-0.4,0.7-0.8,1.2-1.1c5.9-3.6,12.4-5.2,19.2-5.9
		C257,277.9,259.4,277.8,262.2,277.6z"/>
	<path d="M170.6,424.9c-0.8,3,0.4,6.5-0.9,9.8c-0.2,0.5-0.3,1.1-0.4,1.6c-0.2-0.5-0.3-1-0.6-1.4c-0.8-1.1-0.5-2.1-0.2-3.2
		c0.7-2.1,0.5-2-1.4-4.1c-0.9-1-0.2-2.3,0.2-3.4c0.4-1.2,1-2.8,2.2-2.8C171.3,421.6,170.4,423.5,170.6,424.9z"/>
	<path d="M356.1,467.2c0,1-0.6,0.7-1,0.5c-1.4-0.4-3-0.4-4-1.3c-3.4-2.7-7.1-5.1-9.8-8.6c-0.2-0.3-0.2-0.7-0.3-1
		c0.2,0.1,0.4,0.3,0.7,0.4c4.4,2.6,7.9,6.6,12.8,8.5C355.1,466,355.6,466.7,356.1,467.2z"/>
	<path d="M280.3,319.7c-1-0.2-1.4-0.3-1.7-0.4c-6.9-2.2-13.4-1.3-19.5,2.4c-0.4,0.3-0.8,0.9-1.5,0.5c0.3-0.4,0.5-0.8,0.8-1.1
		c4.3-5,15.6-5,20.5-2.5C279.2,318.7,279.5,319,280.3,319.7z"/>
	<path d="M240.5,456.8c-0.3-0.1-0.7-0.2-0.7-0.3c0-0.4,0-0.9,0.2-1.1c3.9-3.5,7.2-7.7,10.5-11.7c0.1-0.1,0.2-0.2,0.3-0.4
		c0,0.3,0.2,0.7,0.1,1c-1.2,4.2-4.1,7.2-7.3,10C242.7,455.2,241.6,455.9,240.5,456.8z"/>
	<path d="M259.2,310.9c-2.8-1-5.2-0.1-7.7,0.1c-0.3,0-0.7,0-1-0.1c0.3-0.2,0.5-0.6,0.8-0.7c4.7-1.3,9.2-3.5,14.3-2.1
		c0.3,0.1,0.7,0.2,1,0.3c-0.3,0.2-0.5,0.5-0.8,0.5C263.5,309.7,261.3,310.3,259.2,310.9z"/>
	<path d="M187.1,438.7c0.3-3.3,3.7-4.4,5-7c0.1-0.2,3,0.9,4,2.2c0.4,0.5-0.3,1-0.7,0.7c-4.5-2.1-4.2,2.4-5.7,4.3
		c-0.6,0.8-0.8,1.8-2.1,1.5C186.9,440.2,187,439.4,187.1,438.7z"/>
	<path d="M259.8,292.8c-1.3-0.2-3.9,0.2-3.6-2c0.3-1.9,3.2-1.8,5-2.1c1.4-0.2,1.4,1.4,1.4,2.6C262.6,293.1,261.4,293.1,259.8,292.8z
		"/>
	<path d="M252.4,459.1c-0.7-0.1-0.4-0.4-0.2-0.7c2.1-2.3,3.3-5.3,6.3-6.8c1.1-0.5,1.8-0.6,2,0.8
		C260.6,453.2,253.2,459.1,252.4,459.1z"/>
	<path d="M350.9,306.5c-3.1-2.1-6.2-4.3-9.3-6.4c-0.3-0.2-0.6-0.4-0.8-0.7c0.4,0,0.9-0.2,1.2-0.1c1.6,0.4,3.3,0.9,4.9,1.4
		c0.5,0.3,1,0.6,1.5,0.8C349.2,303.2,350,304.8,350.9,306.5C350.9,306.5,350.9,306.5,350.9,306.5z"/>
	<path d="M327.5,286c0.9,0.1,1.3,0,1.7,0.1c2.4,0.6,4.9,0.8,6.8,2.5c-2.2,0.9-4.1-0.5-6.2-0.6c-1.5-0.1-3,0-4.6-0.1
		c-0.6,0-1.7-0.2-1.7-0.4c-0.1-0.9,0.9-0.8,1.4-1C326,286.2,327,286.1,327.5,286z"/>
	<path d="M348.4,301.6c-0.5-0.3-1-0.6-1.5-0.8c-2.8-1.8-5.3-4-8.4-5.2c-0.4-0.2-1.1-0.7-1-0.8c0.3-0.6,0.8-0.2,1.2-0.1
		c4.2,0.8,7.3,3.6,10.6,6.1C350.2,301.5,348.9,301.5,348.4,301.6z"/>
	<path d="M197.3,309.4c0.1-0.1,0.1-0.1,0.2-0.2c0.2,1.7-1.2,2.5-2.2,3.5c-1.4,1.4-2.9,2.8-4.4,4.2c-0.8,0.8-1.6,1.6-2.3,2.4
		c-0.5-1.5,0.8-2.2,1.3-3.2C191.5,312.9,195.3,312.1,197.3,309.4z"/>
	<path d="M341.7,443.1c0.1,0.7-0.3,0.5-0.7,0.4c-2-0.2-7.4-5-7.8-6.8c0-0.2,0-0.5,0-0.7c0.4,0,1,0,1.1,0.2c1.3,3.3,4.5,4.4,6.9,6.3
		C341.3,442.7,341.5,442.9,341.7,443.1z"/>
	<path d="M189.9,341.8c0.4,0.1,0.6,0.2,0.8,0.2c-0.1,0.3-0.1,0.7-0.3,1c-1.5,2.1-2.8,4.3-3.7,6.7c-0.1,0.4-0.7,1.4-1,0.6
		c-0.4-1.6,0.5-3.2,1.3-4.5C187.8,344.3,188.9,343,189.9,341.8z"/>
	<path d="M381.8,303.5c-2.3-0.9-4.6-1.8-6.8-2.8c-0.4-0.2-0.6-0.6-0.9-1c0.4,0.1,0.9,0.1,1.3,0.2c2.2,0.6,4.4,1.2,6.6,1.9
		c0.7,0.2,1.9,0.9,1.8,1C383.5,303.9,382.4,302.9,381.8,303.5C381.7,303.5,381.8,303.5,381.8,303.5z"/>
	<path d="M251.8,398.2c1.2-0.8,2.2-2.2,3.7-1.7c0.9,0.3,1.1,1.7,1.2,2.7c0,1.9-1.2,3.2-2.5,4.3c-0.9,0.8-1.7-0.4-2.5-0.9
		c-1.6-1.1-0.8-2.5-0.3-3.9C251.6,398.6,251.7,398.4,251.8,398.2z"/>
	<path d="M147,421c-0.5-0.3-0.9-0.6-1.4-0.9c-2.3-1.7-4.6-3.4-6.9-5.1c-0.3-0.2-0.5-0.5-0.7-0.8c0.3,0,0.7,0,1,0.1
		c3.1,1.4,5.5,3.7,8.2,5.7c0.2,0.1,0.3,0.5,0.3,0.7C147.5,420.8,147.2,420.9,147,421z"/>
	<path d="M143.5,356.6c-0.3,0.5-0.5,1.2-0.9,1.4c-2.9,1.4-5.8,2.7-8.8,3.9c-0.4,0.2-0.9,0.1-1.4,0.1c0.2-0.5,0.4-1.1,0.8-1.4
		c2.4-1.9,4.1-4.5,6.8-6c0.7-0.4,1.3-1.7,2.1-0.9C142.8,354.4,143,355.6,143.5,356.6z"/>
	<path d="M146.6,361.9c0.6,0.1,1.4,0,2.1,0.3c1.3,0.5,3.5,0.7,3.2,2.2c-0.2,1.1-2.1-0.1-3.3-0.1c-2.2-0.1-4.6-0.8-6.5,1.3
		c-0.3,0.4-0.8,0.8-1.2,0.2c-0.2-0.3-0.1-1,0.1-1.3C142.3,362.5,144.2,361.9,146.6,361.9z"/>
	<path d="M400.2,424.3c0.1,3.5,1.4,7-1,10.2c-0.6,0.8-1.2,1.8-2.3,1.2c-1.3-0.8-0.2-1.6,0.3-2.3
		C399.3,430.7,399.8,427.5,400.2,424.3z"/>
</g>
</svg>
