<?xml version="1.0" encoding="utf-8"?>
<!-- Generator: Adobe Illustrator 24.2.3, SVG Export Plug-In . SVG Version: 6.00 Build 0)  -->
<svg version="1.1" id="Layer_1" xmlns="http://www.w3.org/2000/svg" xmlns:xlink="http://www.w3.org/1999/xlink" x="0px" y="0px"
	 viewBox="0 0 595.3 841.9" style="enable-background:new 0 0 595.3 841.9; fill: #215342;" xml:space="preserve"
	 height="325" width="700" transform="translate(-200, -40)">
<g>
	<path d="M472.6,335.2c1,0.5,2,1,3.6,1.8c-3.7,1-6.9,0.7-11.7-1.5c8.1,10.4,10.8,21.4,13.1,32.2c2.8,13.7,10.2,23.8,21.2,31.8
		c4.7,3.4,9.8,5.7,16.9,6.5c-8.2,2.5-14.8,1.3-22.4-2.4c4.2,6.4,4.9,13.5,11.5,16.8c-1.6-0.7-3.1-1.5-4.8-2.3
		c0.3,8.2,3.7,14.2,11.9,17.9c-4.8,0.1-6.5-3.7-10.4-5.2c0.8,3.5,1.6,6.4,2.4,10c-4.6-4.5-4.6-9.9-5.1-15
		c-1.2-13.9-9.7-23.5-18-33.7c-16.8-20.5-33.1-41.5-46.4-64.7c-3.9-6.8-11.2-10.6-20-12c2.8,2.9,5.3,5.6,7.8,8.3
		c11.6,12,22.5,24.7,25.1,41.9c1.5,9.5,10,9.9,15.2,14.5c-4.3-6.1-11.5-9.7-14.4-17.4c17.3,11.4,27.6,27.8,32.9,47.6
		c4.5,16.9,11,33.3,16.8,50.4c-11.8-7.7-17-19.4-22.2-31.5c0.2,1.8,0.4,3.6,0.7,6c-6.7-11.6-5.5-26.5-17.6-34.9
		c6.7,7.3,2.6,16,3.7,24.1c2.1,15.4,9.1,28,21.3,37.5c7.1,5.5,11.5,12.7,14.4,21c0.9,2.7,2,5.4,6.1,4.6c-2.4-15.7-14.3-25.6-22.8-37
		c20.9,15.1,34.3,40.1,62.9,48.8c-7.8-6.3-15.9-9.1-22.5-16.5c9.7,4.4,17.9,10,30,4.9c-12.2,0.3-20.5-3.4-28.2-11.3
		c8.7,2.4,16.5,3,23.8-1.8c-0.6,3.9-4.9,5.2-17.3,5.3c8.2,7.4,17.8,8.5,24.6,2c-0.9,2.3-1.4,3.7-2.4,6.2c2.4-1.9,4-3.1,5.5-4.2
		c-4.3,8.7-11.5,10.9-23,7.1c26.6,19.5,39,44.1,42,74c1.3,13.1-2.9,23.7-12.2,32.4c-4.2,3.9-8.4,7.5-11,12.7c-1,1.9-2.9,3.2-5.1,3.1
		c-1.7-0.1-2.6-1.8-2.7-3.3c-0.4-5.5-3.1-7.9-8.6-8.3c-3.3-0.3-6.3-2.2-9.1-4.9c-3.4,10.6-7.8,20.2-15.8,27.6
		c-3.5,3.3-6.3,3.4-8.2-1.9c-1.8,3.4-3.4,6.5-5.2,9.5c-1.2,2-2.9,4-5.6,3.2c-2.5-0.7-3-3-3.5-5.2c-1-4.4-0.2-9.4-4-13
		c-1.1-1-2-2.3-3.5-1.4c-8.9,5.4-16.8,3.2-23.9-2.8c-6.8,4.9-9.8,12.8-15.6,18.3c-1.3,1.2-2.7,2.5-4.6,1.8c-2.1-0.8-2.4-2.8-2.2-4.7
		c0.5-5-1.5-7.6-6.5-9.1c-7.1-2.1-12.4-7.1-18-14.5c1.1,4.1,1.7,6.2,2.4,9.1c-6-4.7-7.9-10.7-9.3-17.1c-1.6-7.3-2.1-14.8-1-22.2
		c0.5-3.2-1.4-3.1-3.5-3.1c-16.8-0.1-33.6-0.4-50.4-0.2c-2.2,0-4.6,2.7-6.5,4.6c-1.4,1.4-2.2,3-3.5,0.4c-1.9,1.1-2.6,5.6-5.7,1.2
		c-1.9,6.3-7.2-2.4-9.3,2.7c-0.9-1.3-1.7-2.2-2.3-3.3c-3.4-5.8-0.7-11.3,5.5-12.3c5.9-1,11.7-2.7,18.7-4.3
		c-11.3-10.7-27-3.6-37.8-14.7c0.2,3.6,0.3,4.8,0.3,5.9c-7.9-1.4-9.6-9.1-16.1-16.2c3.7,8.4,0.3,11.3-4.3,12.7
		c-8.5,2.6-9.7,11-13.8,17c-3.8,5.5-20.2,12.1-26.6,9.9c-19.7-6.7-40.1-2.6-60.2-3.8c-2.3-0.1-1.6,1.7-1.7,3
		c-0.5,8.8-0.7,17.7-1.5,26.5c-0.5,5.1-3,9.5-7.2,13.7c0.5-2.7,0.8-4.7,1.2-7.3c-6,5.2-10,13-20.7,11.5c-2.5,1.8-7.4,3.5-6.3,9.8
		c0.2,1.3-0.3,3.1-2.1,3.6c-2,0.5-3.4-0.5-4.5-2c-4.6-5.8-8.6-12.1-15.2-16c-1.9-1.1-3.3-0.8-5.1,0.2c-5.7,3.4-11.4,3.9-16.5-1.2
		c-5,2.7-7.4,6.5-6.8,12.4c0.3,2.7,0.8,6.6-2.5,7.7c-3.4,1.1-5.3-2.3-7.1-4.6c-1.4-1.8-2.5-3.9-4-6.3c-1.2,9-5.3,5.7-8.7,2.4
		c-7.7-7.3-12.2-16.6-15.1-27.4c-7.6,5.4-15.6,8.7-24.6,5.3c-2.1,3.7-0.4,10.1-5.4,10.3c-5.2,0.2-5.1-6.2-7.3-9.9
		c-3.6-6.1-9.8-10.4-12.2-17.2c-6.6-18.2-0.6-35.3,5.2-52.4c5.7-16.9,15.1-31.1,32.4-42c-18.2,3.1-31.9,0.4-40.4-15
		c3.8,4.9,8.1,9.4,15,9.3c6.2-0.1,12.2-1.7,18.8-5.3c-4.7,0.5-8.2,0.8-11.6,1.2c9.1-2.3,17.8-5.3,26-10c20.4-11.8,31.4-30.6,38.9-52
		c6.2-17.6,16.9-31.5,33.3-40.7c1.1-0.6,2.2-1.1,5.7-2.8c-3.8,3.1-5.5,4.5-7.3,5.9c12.7-6.6,24.4-14.2,30.5-27.8
		c-6.1,12.4-19.5,14.9-29.7,21.7c-11.8,7.8-21.9,17-28.8,29.4c-0.7,1.2-1.7,2.3-3.2,4.3c-0.1-1.7-0.3-2.5-0.1-2.9
		c8.5-16.9,17.5-33.2,35.7-42c11.4-5.5,20-14,23.7-26.3c-11.3,4.2-19.2,14.2-29.6,20.7c3.2-1.8,6.4-3.6,9.6-5.3
		c-25.4,10.5-34.3,37.6-52.7,53.9c1.8,0.1,3.4-0.6,11.9-6c-2.1,5.1-6,8.2-9.4,11.7c-9.4,10-10.9,22.3-10.3,35.1
		c0.2,4.2-8,15.1-12.8,14.9c10.8-9.3,9.5-22.2,12-35c-4.4,5.6-8.5,10.2-16.1,12.8c9.8-5.8,15.3-13.2,19.2-22.3
		c-8.8,2-25.6-3.3-26-8.1c12.4,3.2,23.4,0.3,33.2-7.7c0.1-0.1-0.5-1-0.5-1.1c14.2-6,14.6-24.1,26.5-32.7
		c-7.7,4.4-12.9,11.3-18.8,19.2c3.3-17.4,7.4-32.8,25-42c-6.3,0.1-11.1,0.5-15.7-3.5c8.1,0.8,14.6-0.2,18.5-7.6
		c-3.6,0.7-7,1.4-7.6,1.5c5.7,0.7,10.3-6.5,16.9-10.1c-2.7,7.1-7.7,12-15.5,17.2c19.3-6.1,25.9-26.4,44.5-31.1
		c-3.4-1.6-5.6-3.7-10.1-3c5.5-6.7,12.2-0.8,17.3-3.6c-4.6-1.4-9-2.7-13.4-4c0.2-0.9,0.3-1.8,0.5-2.7c-18,1.8-24.4,17.2-33.9,30.7
		c5.2-12.6,11.8-22.5,22.9-30c-12.6,0.1-23.7,8.4-36,3.2c17.1,5.1,28.2-11.2,46.4-11c-17.4-5.9-30.5,5.7-44.9,2.8
		c8.3-1.1,16.2-3.1,23.3-8c7.3-5,15.3-5.9,24.2-2.5c-1.6,0.4-2.7,0.6-4.7,1.1c10.9,5.3,20.9,4,29.2,0.9c-21.4-1.2-43.7-13-62.3-4.6
		c6.9,1,15.2-9.9,27.7-9.3c-3.6-2.7-6.5-4.9-10.4-7.8c8.2,2.1,15,4.3,23,4.6c-1.8-2.2-3.2-3.9-4.6-5.5c6.6,3.7,12.7,1.4,19.7-1.1
		c-2.5-0.4-4-0.7-5.6-0.9c13.6,0.1,25.4-6.9,38.6-9.1c5.4-0.9,9.9-6.5,14.9-9.9c14.8-10,30.8-15.7,48.9-15
		c19.9,0.7,39.9-1.5,59.8,1.4c14.5,2.1,27.3,8.6,38.8,17.5c5,3.9,10.3,6.4,16.6,7.5c4.2,0.7,8.4,2.2,12.3,3.9c6.9,3,13.7,6,21.1-4.1
		c-2.5,5.4-5.2,6.5-7.9,8.4c8.2,2.1,15.8-0.5,23.7-0.5c-1.1,3.7-4.3,4.6-6.5,7c7.1-0.6,11.9-4.1,16.2-10.1c-0.8,3.9-3,5.9-5.7,9.1
		c4.6-2.5,6.3-5.7,8.7-10c-1.2,5.4-3.9,8.3-8.4,11.7c4.6-1.1,7.6-1.8,10.6-2.5c0.1,0.2,0.1,0.3,0.2,0.5c-3.1,1.2-6.2,2.4-11.3,4.5
		c12.5-0.6,20.8,4.5,29.3,9.5c6.4,3.7,13.3,1.8,21.5-2.2c-6.1,5.1-11.3,7.1-17.5,7.8c1-0.6,1.7-1,2.4-1.4c-11.6-2.8-20.2-13-33-12.3
		c-9.4,0.5-17.6,3.1-24.6,9.4c10.5-3.7,20.9-6.9,32.2-4.9c-3.8,0.5-7.8-1.3-12.8,1.9c18.1,0.8,31,19.6,50.3,9.1
		c-4.9,5.5-14.2,6.3-23.8,2.2c-7.7-3.3-15-8.1-25.7-8.1c17.3,5.1,27.3,15.4,30.9,31.5c-5.7-13.7-13.5-25.3-29.5-28.4
		c15.6,3.2,17.1,17.3,22.8,28.2c-4-6.1-7.7-12.4-12.7-17.9c-4.7-5.2-11.6-5.1-16.9-8.3c-9.7-6-15.6,1.6-22.8,5
		c8.6-1.6,17.7-9.4,25.7-0.3c5.9,6.7,13.1,12.5,17.2,20.9c3.7,7.6,7.9,15.1,14.7,20.5C468.8,335.4,470.5,337.8,472.6,335.2
		L472.6,335.2z M418.5,275.1c-2.8,2.8-5.5,5.6-8.3,8.3c3.2-1.5,5.8-3.7,8.3-6c2.5-2.3,5.7-3.4,9.8-4.5c-3.3-0.7-5.4-0.7-7.4,0.7
		c0.5-1.2,2.5-1.8,1.6-3.6c4.2-1.3,7.7-3.6,12.3-8.8c-13,5.6-24.8,1.7-36.7,4.6c4.6,1,8.5,1.8,14.2,3c-5.6,0-9.2,0-12.8,0
		c-3.4,0-6.8-1.9-10.6,0.2c11.4,5.1,22.6,3.2,33.7,1.1c-8.6,4.8-16.7,10.7-27,11.5C404.4,283.3,411.5,279.4,418.5,275.1z
		 M135.4,339.5c10.4-5.7,17.1-15.6,28.6-23.8c-8.6,1.8-12.1,6.4-15.5,10.5c-4,4.8-10,7.5-12.9,13.3c-5.7,3.4-11.4,6.8-17,10.3
		c-9.7,6.2-15.3,15.3-18.5,28c1.6-2.2,2.3-3,2.8-3.8c4.8-9.4,12-16.3,21.7-20.3c10.6-4.4,19.6-10.5,27-21
		C145.7,336.1,140.8,338.5,135.4,339.5z M177.2,370.8L177.2,370.8c2.1,10.7,0.9,21.5,1.4,32.3c0.8,17.1,6.9,32.4,22.9,39.6
		c7.3,3.3,6.8,7,7.1,12.3c0,0.5,0,0.9,0,1.4c0.3,2.9-0.7,3.8-3.9,3.2c-8.8-1.6-17.9-2.7-26.4-0.6c-9.7,2.4-12.2-0.8-11.1-9.7
		c0.2-2-0.5-4.6-0.3-6.3c0.7-8.8-2.3-16.6-5.6-24.3c-5.6-13.1-7.1-26-0.2-39.1c1.2-2.3,1.8-4.8,3-8.5c-2.1,2.4-3.3,3.7-5.6,6.3
		c1.2-4.1,1.9-6.6,2.6-9.1c-3.7,5.9-6.8,12-11.2,17.5c-3.1,3.8-3.5,10-2.8,15.2c2.7,20.6,2.7,41.2,1.4,62c0.9-4.3,1.7-8.7,3-14.9
		c0.3,12.2,1.8,22.4-1.8,32.4c6.3-14.9,2.7-30.4,2.5-47.9c1.6,3.7,2.5,5.3,3,7.1c6.1,22.1,4.1,43.4-6.2,63.9
		c-1.3,2.7-3.1,5.5,0.1,9.4c3.4-8.1,6.5-15.5,9.6-23c0.1,6.7-4.1,12.1-4.4,18.7c1.5-3.7,3.1-7.4,4.9-11.9c0.6,7.5-3.3,14.1,0,22.8
		c1.8-20.2,3.5-38.1,5.1-56c2.5,8.4,0.5,16.7-0.1,25.1c2.5-7.6,3.8-15.4,3.7-23.4c0-1.4-0.5-3.4,1.3-4c8.3-2.3,16.8-2.7,25.3-2
		c7.8,0.7,18.2-1.2,14.7,13.5c1.6-2.5,2.4-4.6,3.4-6.5c0.6-1,0.4-3.3,2.5-2.4c2,0.9,0.3,2.3-0.1,3.2c-4.2,9.8-7.7,19.8-9.8,30.2
		c-0.8,3.9-2.6,6.3-5.7,8.5c-8.9,6.2-15.3,14.7-20.7,24c3.9-4.2,7.3-8.9,11.1-13.2c3.9-4.4,7.9-8.7,13.7-11.7
		c-1,8.9-2,17.4,0.1,25.6c0.8,3.2,0.2,5.2-1.7,7.5c-4.9,5.9-9.1,12.2-13.6,21.7c6.5-9.2,11.3-16.1,16.7-23.7
		c3.8,9,10,14.6,18.3,17.9c-2.1,4.7-4.1,9-6.1,13.4c2.7-3.3,4.5-6.9,6.3-10.5c0.7-1.3,1.3-2.3,3.4-2c11.4,1.6,22.1-0.4,31.7-7
		c8.8-6.1,17.3-12.6,27.6-16.3c1.5-0.5,3-2,3.7-3.4c5.9-11.9,0.1-25.9-12.4-29.6c-7.9-2.4-13.6-6.8-16.3-14.8
		c-1.9-5.7-4.6-10.6-11.5-11.6c-2.6-0.4-3.7-3-4.7-5.2c-7.3-16.5,4.6-38.7,22.3-42c9.5-1.7,19.1,0.9,28.5-1.4
		c25.2-6.4,40.6,0.8,50.6,24c1.5-1.2,3-2.3,4.5-3.4c-3,3.4-4.5,7-2.9,11.4c0.5-0.2,1.3-0.5,1.2-0.5c-5.4,15.1-19.5,25.8-25.1,42.3
		c0.5,0.1-0.4,0-2.1-0.2c2.2,1.1,3.6,1.8,5,2.5c-0.1,0.3-0.2,0.7-0.3,1c-2.1-0.6-4.3-1.2-7.8-2.1c2.8,2,4.4,3.2,6.3,4.5
		c-3.5,1.4-5.9-1.2-10.2-1.8c3.8,2.6,6.4,4.3,9.6,6.5c-4.9,1-7.7-1.6-11-3.4c1.2,3.8,4.8,4.7,7.7,7.1c-5.5,1-8-2.9-11.6-5.9
		c1.4,4.8,4.6,7.2,7.9,10.4c-5.8-0.6-7.9-4.8-11.2-8.4c0.9,5.2,4.2,8,7.6,11.7c-6.3-1.5-8.5-5.7-11.7-11.5
		c1.9,6.3,3.6,10.6,7.4,13.9c-1.6-0.9-3.1-1.7-5.3-2.9c1.3,1.7,2.1,2.8,3.2,4.3c-3.2-0.4-4.6-2.8-7.1-3.9c1.7,2.2,3.3,4.4,5,6.6
		c-0.2,0.2-0.4,0.4-0.7,0.6c-1.6-1.2-3.2-2.4-5.8-4.4c1.6,2.8,2.6,4.5,3.6,6.2c-0.9,0.7-1.7,1.2-3.1,2.2c2.3,1.6,4,3.4,6,4.1
		c12.6,4.2,24.2,10.3,35.8,16.5c2.7,1.4,6.1,2.8,9,2.6c11.5-0.9,22.1-1,24.2,14.6c-1.2-4.9-3.1-9-5-13c-0.5-1.1-1.8-2.6,0.1-3.3
		c7.4-2.7,13.3-7.1,15.7-15.3c6.9,7,10.7,15.4,16.4,22.5c-2-4.2-4.3-8.3-6.8-12.2c-2.7-4.3-8.2-8.6-8-12.7c0.5-9.5,0.8-18.9,0-28.9
		c6.7,4.4,10.9,10.3,15.9,15.5c-0.7-1.8-1.4-3.5-2.7-4.7c-9.2-8.5-16.7-17.7-18.2-31c-0.8-6.8-4.4-13.2-6.7-19.8
		c-0.5-1.5-0.7-3-1.1-4.5c4.5,0.5,3.3,5.5,6.8,8.4c-4.2-10.4,2.7-9.3,8.2-9.5c6.2-0.2,12.3,0,18.3,1.9c1.8,0.5,2.9,1.5,3.1,3.3
		c1.6,19.9,14.7,37.5,11,58.7c3.5-1.3,6.4-2.6,9.4-3.3c5.1-1.2,6.1-3.6,3.6-8.2c-1.9-3.4-3.2-7.2-4.8-10.8c1.9,1.6,2.9,3.7,4.4,5.4
		c1.5,1.7,2.7,4,5.9,4.2c-8.7-14.7-17.1-29-22-45c1,1.6,2,3.3,1.9,3.1c-0.4-0.3,2.2-3.9-0.8-4.8c-7.1-2.1-4.3-7.3-5-14.1
		c1.2,4,1.8,5.7,3.1,10c-0.9-11.1-3.5-19.2-0.7-29.3c0.1,9.4-0.1,17.1,4.8,25.5c-1.4-15.8,3.8-28.5,10-41
		c-1.1,7.6-2.1,15.2-3.2,22.8c2.6-9.3,3.7-18.9,7.7-27.6c8.8-19.4,8.1-39,1.3-58.6c-2.5-7.3-5.9-14.3-14.4-21.1
		c13.9,23.8,12.7,45.6,2.1,67.5c6.4-7.1,10.3-15.4,12.7-25.7c0.2,21.4-15.6,33.6-23.9,49.5c1-0.7,1.6-1.5,2.2-2.3
		c0.5-0.8,0.9-1.7,1.3-2.6c-6,13.2-6.9,26.7-6.8,40.3c0,1.3,0.4,3.4-1.8,2.9c-9-2.1-18.2-1.7-27.9-1.5c1.4-9.7,2-19.2,6.5-29.3
		c1.5,3.1,2.3,4.8,3.1,6.5c10.2-7.1,18.9-32.6,14.1-42.3c-0.5,1.6-0.9,2.9-1.4,4.2c-3.4,9.6-4.8,20.4-14.5,26.3
		c-12.6,7.6-13.7,19.6-12.9,32.4c0.1,1.8,0.3,3.2-1.4,4.1c-0.6-0.3-1.4-0.5-1.8-1c-5.8-8.8-11.2-17.6-10.8-28.9
		c0.2-4.7,2.1-10.5-5.3-14c2.5,0.2,3.6,0.2,6.8,0.5c-9.6-12.9-15.7-26.3-27.9-35.4c2.6,1.4,5.3,2.8,9.5,5
		c-5.1-6.8-10.7-10.2-15.9-14.1c1.6-0.5,3.4-1,5.9-1.8c-2.7-0.9-4.5-1.5-6.8-2.3c1.5-0.6,2.5-1,4.5-1.7c-2.5-0.2-3.8-0.3-5.3-0.4
		c0.3-1,0.6-1.8,1.1-3.2c-6.4,2.3-4.3-2.6-4.8-5.2c-4.6,1.9-5.4,1.7-4.8-0.6c1.8-7.1-1.3-11.5-6.8-15.5c-4.5-3.3-7.1-7.8-7.1-14
		c0-4.3,3-8.8,0.5-12.6c-6.8-10.6-5.1-22.6-5.7-34c-0.5-10.1,1.6-20.1,7.2-31.3c-1.5,8.9-3.7,15.5-1.2,22.8
		c1.6-6.8,3.1-13.2,5.2-21.8c1.3,5.8-1.2,9.5,0.9,13.5c0.7-1,1.3-1.5,1.5-2.1c5.8-23.2,25.3-20.6,42.9-15c9.6,3,17,9.7,22.1,19.4
		c1.4-4.1-1.8-6.4-1.5-10.2c4.3,1.6,8.3,3,12.3,4.5c0,0.2-0.1,0.3-0.1,0.5c-2.6-0.6-5.1-1.2-7.7-1.8c6.5,3.8,13.3,5.9,21.5,3
		c-2.9-1.3-5-2.6-7.4-3.1c-12.8-3.1-24.1-9.1-35-16.6c-8.6-6-18.5-9.9-29-11.4c-20.3-3-40.7-1.2-61.1-1.4c-16.3-0.1-31,5-43.7,15.1
		c-8,6.3-16.7,10.6-26.7,13c-12.5,3-24.6,7.2-37.3,10.2c6.2,0,12.5,0,21.3,0c-14.5,5.6-26.5,3.4-41.2-0.3c5.4,2.8,8.5,4.4,12,6.2
		c-5.8,0.8-11.4,0.1-18.6,3.1c13.4-1.1,24.4,2.8,35.8,1.3c11.6-1.5,21.2-7.4,32.6-14.5c-1.6,3-2.2,4-2.7,5
		c-6.7,15-16.1,29.1-15.6,46.5c0.2,5.5-1.1,10.4-3.9,15.2C175.2,343.6,171.3,356.6,177.2,370.8z M48.5,509.6
		c6.6,0.2,12.3-1.4,19,1.5c-2.5,0.3-3.7,0.6-4.9,0.6c-8.7,0.3-16.8,2.8-24.6,6.3c-11.4,5.1-21.3,21.6-19.8,32.5
		c0.7,5,0.5,9.9-0.4,14.9c-1.6,8.7-0.3,17,6.6,24.9c1.1-8.7,5.3-15.7,4.2-23.6c-1.4-10.2,4.1-17,11.3-22.9
		c5.7-4.7,10.3-4.4,13.5,2.9c0.7,1.5,1.8,2.8,3.4,5.3c0.4-7.2,0.7-13,0.9-18.9c0.2-6.7,5.3-10.2,10.2-14.9c-2.7,0.5-4.5,0.8-7.8,1.5
		c8.3-8.3,17.9-9.3,27.3-11.3c-24,14-13.9,38.9-21.2,60c2.3-1.7,2.9-2.2,3.9-2.9c0.2,8.2-7,16.9,3,23.9c1.1-2.5,2.1-4.8,4-9.1
		c0.6,5.2,1,8.4,1.5,12.5c3.2-3.6,3.6-7.1,3.8-10.8c4.2,0.8,3.8-3.5,5.2-5.3c4.3-5.3,10.5-9.1,11.3-17.4
		c1.1-11.3,5.6-21.6,14.1-29.8c1.5-1.4,3.1-3.3,5.3-2.8c2.2,0.5,1.4,3.1,3.1,7c-0.5-5.7,7.1-5.2,3.7-10.8c2-1.6,4.5-2.1,6.4-0.6
		c2.2,1.7-0.3,3.2-1,4.8c-1.5,3.3-2.7,7.4-0.9,10.1c2.9,4.3,1.6,7.9,0.4,11.9c-3,10.4,5.5,18.5,4.4,29.8c8.3-9.9,8.3-9.9,17.3-5.9
		c0.6-3.1,1.7-6.2,1.8-9.2c0-4.3,1.6-4.1,4.6-2.5c6.1,3.3,9.7,8.8,14.1,13.4c1.7,2.2,3.4,4.5,6.2,8.1c-4.7-10.7-7-20.4-11.9-29.3
		c5,7.2,10,14.4,15.1,21.6c-4.9-11.8-5.3-25.5-13.8-35.4c-6.6-7.7-10.8-18-21.3-22.1c-1.4-0.5-2.3-2.2-3.4-3.5
		c-9.4-11-22.1-18.1-35.2-21.2c-21.8-5.2-42.8,2.6-63,10.6c-7.8,3.1-13.5,10.2-14.7,15.8c5.7-7.2,12.7-11.1,22.4-12.6
		C50.9,507.8,50.1,508.4,48.5,509.6z M498.3,523.4c-5.7-2.2-9.9-4-14.5-3.8c-4.5,0.3-9.1,0.9-13.6,1c-4.5,0.2-9.1,0.1-13.6-0.2
		c-3.5-0.2-5.5-2.6-6-5.8c-0.4-3,2.4-4.1,4.4-5.3c2.3-1.3,4.7-2.4,9.1-4.6c-12.9,1.6-34.7,21.7-36.8,29.3
		c-1.7,21.7,10.5,25.8,25.6,28.2c-2.1-6.9-6-11.8-10.1-17c3.9-0.4,5.4,3.1,8.1,3.9c-0.4-1.3-0.7-2.4-1.1-3.9c4.7,0.1,7,3.7,11,6
		c-0.8-4.5-1.4-8.3-2.5-14.7c2.5,3.3,3.5,4.7,4.7,6.2c0.8-3.4-0.7-6.7,1.5-10c1.3,1.6,2.5,2.8,3.4,4.2c6.3,10,7.6,20.8,5,32.3
		c-2.9,12.7-0.7,24.4,7.8,36.1c-0.7-18.7,16.1-34.4,2.4-54.7c23.5,11.4,21.5,33.3,28.1,50.8c3.3-5.4-0.2-12.3,2.4-16.5
		c5.9-9.7,5.8-20.1,6.2-30.4c0.5-13,3.2-26.6-8.4-37c-2.2-2,1.4-1.4,1.7-2.5c-0.5-1.1-1-2.2-2.1-4.5c2.7,1.4,4.1,2.1,5.5,3
		c13.1,8.3,11,24,17,35.8c2,3.9,3,8.4,6.2,12c4.6,5.2,6.6-1.6,9.9-2c2.6-0.4,0.6-3.2,0-4.7c-1.7-4.2-3.9-8.2-6.8-14.2
		c9.4,7.5,13.8,16.4,20.5,23.3c1.6-1.5,0.2-5.2,3.6-6.7c0.9,3,1.8,5.8,2.8,9.2c7.8-14.1-2.5-41.3-21.6-59.2
		c-12.7-11.9-59-19.8-71.4-11.8c3.3,0,6.3,0,11.2,0c-3.9,1.4-6.1,2.2-10.3,3.8c6.8-0.2,11.6-0.6,17.5,1.4c-3.7,1-6.1,1.6-8.8,2.3
		c1,0.7,1.8,1.2,3.2,2.2c-2.4,0.5-4.1,0.9-6.3,1.4c7.9,4,7.9,4,6.4,5.6c1.2,0.7,2.4,1.3,5.2,2.9c-5,0-8.1,0-12.7,0
		C488.2,517,493.5,518.1,498.3,523.4z M410.7,360.8c0.3-1.6,0.5-2.5,0.6-3.4c0.1-1.6,0.3-3.3,0.1-4.9c-3.9-26.8-14.1-51.3-28.5-73.8
		c-6.7-10.5-20.5-12.5-30.6-7.3c0.3,2.7,0.9,5.2,5.8,5.4c-5.9,1.8-3.4,4.6-3,7c2.6-0.3,5-0.5,7.3-0.8c0,0.2,0.1,0.4,0.1,0.6
		c-2.2,0.6-4.4,1.2-6.6,1.8c8.1-0.6,15.8,0.5,23.7,3.3c-4.6,1.7-8.6,3.2-13.3,4.9c5.8,2.9,11.5,4.2,16.9,8.9
		c-4.1-0.6-6.9-0.9-9.7-1.3c9.5,6.7,15.7,15.6,22.3,24.5c-4.7,1.9-0.1,2.8,0.4,3.8c-2.9,7.2,10.4,10,5,17.8c3.7,5.4-0.3,14.1,7,18.6
		c-0.5-1.5-1-3-1.5-4.8c0.9,0.4,1.4,0.7,2.1,1c-0.1-1.2-0.1-2.3-0.2-3.9C409.4,359.4,409.9,360,410.7,360.8z M407.9,303.8
		c6.8-1,12.1-5.8,19.1-2.5c-2.5,0.2-4.4,0.1-6.3,0.4c-1.7,0.3-3.4,0.9-5.1,1.3c6.4-0.6,10.1,1.7,13.8,7.2c4.2,6.3,11.5,10,15.6,17.3
		c5.9,10.7,13.6,20.4,20.4,30.6c4.3,6.4,8.3,13.1,13.6,21.5c-4.8-15.1-6.5-28.9-14.8-40.2c-8.1-11-12.2-24.2-20.9-35
		C432.2,291,419.9,289.8,407.9,303.8z M333,287.1c5.1-6.4,11-8,16.5-10.2c3.1-1.2,2.9-2.6,1.4-5c-6.2,2.3-11.8,5.4-16.5,10.7
		c-0.5-1.8-0.9-2.9-1.4-4.6c-2,1.9-3.8,3.6-6.3,6c0.3-3.2,0.6-5.2,0.9-8.8c-2.5,3-4,4.7-6,7.1c0.3-2.9,0.5-5,0.9-9.7
		c-1.6,4.6-2.4,6.7-3.9,11c0.9-5.8,1.4-9.3,2.2-14.8c-1.8,3.6-2.7,5.5-4.6,9.5c0.6-4.6,0.8-6.9,1.1-9.3c-5.3,8.4-4.6,36.1,1.4,39.6
		c0.4-2.5,0.8-5,1.2-8.1c2.2,3.3,0.5,7.6,4.7,9.3c0.5-3.1,0.9-5.9,1.4-9.5c2.2,3,0.1,6.5,3.3,8.7c0.5-3.1,1-5.9,1.5-8.7
		c0.3,0,0.6,0.1,1,0.1c0.3,2.2,0.7,4.5,1.3,8.8c1.3-6.9,0.5-12,3.7-17.5c0.3,3.7,0.4,6.2,0.7,10.2c2.3-6.5,1.8-12.2,5.8-17.8
		c-0.6,5-1,8.6-1.6,13.2c3.7-4.9,6.7-8.7,9.6-12.6c1.4-1.9,1.8-4.5,0.5-6.2c-1.3-1.7-3.3,0.1-4.7,0.8
		C343.1,281.5,338.9,283.9,333,287.1z M373.6,396.9c0.4-3.6,4.8-1.9,5.4-5.1c0.7,1.1,1.1,1.8,1.7,2.6c0.5-1.3,0.8-2.4,1.2-3.4
		c2.7,0.6,22.2-18.7,24-23.7c-1.1,0.5-1.9-1.3-3.2,0.2c-4,4.6-8.9,8-14.1,11.2c-13.2,8.2-21.2,8.2-32.9-1.5
		c-1.9-1.6-3.8-3.1-6.6-5.3c0.3,3.4,0.1,5.9,0.9,7.9c2.9,7.5,11.7,12.2,9.1,22.8c-0.9,3.6,4.3,8.7,6.9,13.6c0.5-4.9,1-9.3,1.3-13.7
		c0.4-4.4,1.3-8.6,5.6-11.6C373.2,393.1,373.4,395,373.6,396.9z M502.1,603c-0.1-8.8-0.5-16.2-3.6-23c-0.9-2.1-2.1-3.9-4.8-3.8
		c-2.6,0.1-3.6,1.9-4.3,3.9c-0.6,1.8-1.3,3.5-1.8,5.3c-3.4,14.8,5.9,28.2,4.8,42.8c-0.1,1.3,0.2,3.1,1.9,3.3c1.9,0.2,2.4-1.7,3-3
		C501,619.9,502.1,610.8,502.1,603z M120.5,451.8c10.6-11.2,14.4-23.1,15.9-36.1c-2.1,26.2,6.2,54.9-19.3,75.3
		c10.8-7.7,18.5-17.5,20.5-30.6c1.7-11.3,2.3-22.7,3.4-34.1c1.3-13.4-3.8-27.4,3.9-40.1c2.5-4.1,5-8.2,7.6-12.5
		c-14.6,12.9-23.5,32.3-22.1,47.8c0.3-0.3,0.5-0.7,1.1-1.4C130.8,431.5,127.5,441.3,120.5,451.8z M439.3,629.3
		c11.8-7.5,19.2-34.7,13.1-46.6c-1.1-2.2-2.3-4.6-5.3-4.4c-3.2,0.2-4,2.8-4.9,5.3c-2.5,7.6-1.1,15.5-1.6,23.2
		C440.2,614.1,439.8,621.5,439.3,629.3z M150,629.9c-0.4-5.1-0.1-8.5-1-11.6c-2.8-9.9-2.4-19.6,0.3-29.3c0.7-2.6,1.2-5.3,1-7.9
		c-0.3-3.2-1.4-6.5-5.2-7c-3.9-0.4-5,2.8-6,5.7c-2.3,6.7-3,13.7-2,20.7C138.5,610.7,140.2,621,150,629.9z M62.5,481.6
		c-3,3.3-4.6,5-6.2,6.8c9.1-7.4,17.7-15.4,28.7-20.3c11-4.9,20.4-12.3,28.5-24.7c-3.4,14.8-15.5,19.4-23.3,29.6
		c3.1-2.4,4.8-3.8,8.5-6.7c-5.1,7.5-9,13-9.8,20c6.8-0.5,40.3-68.4,38.9-78.1c-1.8,1.5-2.3,1.8-3.6,6c-8.4,27-24.4,47.1-51.4,57.5
		c-6,2.3-10.8,7-17.4,13.6C58.8,483.5,59.7,483,62.5,481.6z M98.5,630.5c0.1-13.2-0.4-25.4,2.4-37.4c1.1-4.5,0.9-9.1-0.7-13.4
		c-0.7-2-0.5-4.9-3.5-5c-2.8,0-3.8,2.5-4.5,4.7c-4.5,13.9-4.9,27.9-0.4,41.9C92.9,624.6,94.5,627.7,98.5,630.5z M548.3,610.5
		c1.7-1.4,2.8-2,3.4-2.8c8-10.6,7.5-32.1-0.9-42.2c-1.4-1.7-2.8-1.5-4.2-0.2c-3.8,3.8-6.9,8.7-5.5,13.7
		C544.1,589,546.7,599.1,548.3,610.5z M33.5,610.4c0.5-2.5,0.7-3.3,0.7-4c0.1-13.3,2-25.8,11.6-36.3c2.7-3-1.2-7.4-4.4-9.7
		c-3.1-2.3-4.9,0.4-5.9,2.7c-5.9,13.5-7.6,27.5-4.5,42C31.4,606.4,32.3,607.7,33.5,610.4z M247.8,453.4c4.5-12.8,15-14.7,24.6-17.8
		c4-1.3,8.1-1.8,12.2-2.8c2-0.4,3-1.9,3.1-3.7c0-0.5-1.5-1.4-2.3-1.5c-7.5-0.5-15.1-1.1-22.5,1.5C253.7,432.3,245.5,444,247.8,453.4
		z M357.4,373.9c7.3,8.1,17.6,7.8,25.8-0.7c7.4-7.6,9.5-16.8,4.7-20.8C383.9,370.3,378.3,374.3,357.4,373.9z M508.6,405.6
		c-15.5-5.2-23.4-16.6-33.2-28.9C479.6,392.1,494.9,405.4,508.6,405.6z M122.1,395c-3.8,4.9-17.5,40.6-18.3,47.5
		C114.1,427.9,114.2,409.9,122.1,395z M147.9,295.9c9.6,0,18.5,7.2,30.7,3.1c-5.8,0.4-9.4,0-13.1-2.5c2.9,0,5,0,7.1,0
		C164.4,295.5,156.3,293.7,147.9,295.9z M377.5,343.7c0-2.5-1.2-4-3.8-3.9c-2.6,0.1-3.9,1.8-3.8,4.4c0.1,2.5,1.4,3.9,3.9,4
		C376.7,348.1,377.4,346.1,377.5,343.7z"/>
	<path d="M493.8,417.7c3.2,11,3.6,20.3,9.6,28.3c-1.2-0.3-1.6-0.4-2.5-0.6c7.2,14.6,19,23.4,33.7,29.1
		C515.3,475.4,492.5,444.9,493.8,417.7z"/>
	<path d="M472.6,335.2c-5.8-0.8-8.3-5.4-10.6-9.7c-5.1-9.2-9-19.2-17.6-28.8c9.4,6.5,13.1,14.4,16.8,22.4
		C463.9,325.3,465.8,332.1,472.6,335.2C472.6,335.2,472.6,335.2,472.6,335.2z"/>
	<path d="M469.3,439.1c-4.1-6.4-5.2-12.7-5.5-19.3C465.5,425.9,467.3,432.1,469.3,439.1z"/>
	<path d="M177.2,370.8c6.2-12.3,3.6-28.2,16.5-38.5c-2.2,0-3.1,0-6.1,0c7.8-7.1,14.5-13.1,21-19c0.4,0.2-0.4-0.2-1.1-0.6
		c2.3-3.4,5.5-3.1,10.1-1.6c-1.6-1.3-2.2-1.8-2.9-2.5c1.5-0.9,2.9-1.7,4.7-2.7c-1.4-0.6-2.6-1.1-4.6-2c4.7-0.5,8.3,0.4,11.8,2.4
		c-4.4-2.3-5.9-8.6-11.9-9c3.8,0.6,7.5,1.3,11.9,2c-1-5.5-6.6-4-9.4-6.6c3.2-2.2,6.1,0.7,9.1,0.3c-0.3-3.2-4.2-2.5-5.1-5.4
		c1.8,0.5,3.2,1,5.1,1.5c0.7-5.1-4.8-4.1-6.3-7.7c2.4,0.8,4.3,1.5,6.6,2.2c2.3-5.9-4.6-4.3-6-7.8c2.5,0.8,4.6,1.5,7.3,2.4
		c-0.8-1.4-1.2-2.2-2.1-3.8c1.3,0.8,2,1.2,2,1.2c3.2-2.8,5.3-6.7,9.4-8.3c2.3-0.9,5.4-1.5,6.6,0.4c4.3,6.5,10.1,12.3,11.1,21.7
		c-3.1-5.2-5.5-9.7-8.4-13.9c-2.9-4.2-6.1-9.1-13.1-3.5c13.9,8.2,21.4,20.5,26.5,37.3c0.2-4.9,0.3-7.2,0.4-9.6
		c0.3,0,0.5-0.1,0.8-0.1c0.3,3,0.6,6,1,9c0.2,0,0.3,0,0.5,0c0-3.6,0-7.2,0-12c3.8,5.5,3.4,10.6,3.4,15.8c5.8-8.3,4.3-24.1-4-43.8
		c3.5,2.1,6.8,8.1,9.5,17.5c1.9,6.5,2.2,13.3,4,20.2c1.4-4.5,2.7-9.1,4.7-15.8c0.3,5,0.5,7.8,0.7,12.2c0.2-2.9,0.3-4.3,0.5-6.7
		c0.5,2.7,0.9,4.5,1.3,6.8c4.1-2.9,3.9-7.3,6-10.6c6.6,15,0.9,36.7-11.4,46.3c-11.5,9-23.2,17.8-26.6,33.8c-0.6,2.7-4.1,9.5-10,11.2
		c-0.2-1.2-0.4-2.5-0.6-3.9c0,4.7-2,8.5-5.5,12c-0.6-1-1.2-1.9-2-3.2c-0.2,1.7-0.4,2.9-0.6,4.4c-2-0.5-3.6-0.4-2.4,3.6
		c-1.6-1.7-2.2-2.4-3-3.2c-0.9,1.5-1.7,2.7-2.9,4.7c-0.4-2.2-0.7-3.6-0.9-5c-0.5,1.6-0.9,3.2-1.9,6.2c-0.7-2.8-1-4.1-1.3-5.8
		c-0.7,1.5-1.2,2.6-1.8,3.8c-2-0.5-3.9-0.8-2.6-3.5c-11.4-2.4-23.2-14.8-19.9-20.1c-2.9,0.1-4.9-0.4-2.3-3.9
		C187.6,368.9,181.9,360.7,177.2,370.8C177.1,370.7,177.2,370.8,177.2,370.8z M247.7,297.3c-5.1-6.4-11.3-11.3-18.6-15.1
		c6.8,9,16.9,15.2,22.3,26.9c0.4-2.5,0.8-3.7,0.7-4.9c-0.3-12.5-8-20.3-17.1-27.3c-1.1-0.8-2.4-2.8-4-0.4c-1.5,2.3,0.4,3.1,1.8,4
		C239.3,284.8,244.6,290.1,247.7,297.3z M230.5,375c-21.9,0.7-24.5-1.2-31.6-23.1c-3,8.6,0.7,20,8.1,25.1
		C213.8,381.6,223.9,380.8,230.5,375z M217.6,344.1c-0.2-2.2-1-4-3.4-4.1c-2.6-0.1-4.1,1.6-4.2,4.1c-0.1,2.3,1.4,3.8,3.6,3.9
		C216.2,348.2,217.3,346.4,217.6,344.1z M238.9,299.2c-2.1-4.9-5.4-8.7-10.8-12.3C228.6,294.9,235,295.9,238.9,299.2z"/>
	<path d="M336.9,500.2c0.4-3,5.5,0.1,3.3-4.6c1.7,0.2,3,0.3,5.4,0.5c-2.6-1.4-4.4-2.4-6-3.3c0.2-3.1,2.9-3.3,4.7-4.5
		c-0.3-1.8-3.9-2.6-1.7-4.6c2.9-2.5,6.7-1.8,10.1-1.3c1.9,0.3-0.4,4.2,3.7,4.5c-2.9,1.2-4.8,2-7.4,3.1c2.5,0.3,4.2,0.5,5.8,0.8
		c0.7,4.2-1.2,6-5.7,5.6c1.3,1.8,2.3,3.2,3.5,5C346.9,503.6,341.7,503.6,336.9,500.2z"/>
	<path d="M181.9,376.2c3.9,8.4,11.1,14,16.1,21.3c0.1,0.1,0.1,0.2,0.2,0.3c1.4,2.1,6.2,0.8,5.2,4.5c-0.3,1.1-4.3,1.6-6.6,1.8
		c-4.1,0.3-7.3-1.6-8.7-5.5c-1.9-5.3-3.4-10.8-5-16.2C182.5,380.4,182.3,378.3,181.9,376.2z"/>
	<path d="M212.2,407.3c0,3.1-4.1,3.6-2.8,6.1c1,2.1,2.8-0.8,4.3-0.2c-0.5,6.4-9.5,10.7-16,7.4c2.3-0.5,4.2-1,6.2-1.5
		c-3.2-0.4-6.6,0.6-9.8-2.6c2.5-0.6,4.5-1,8.1-1.8c-5.1,0.2-8.9,0.6-12.7-2.8C197.8,412,205.1,410.4,212.2,407.3z"/>
	<path d="M348.1,408.8c-7.7-0.4-14.4-2.8-20.9-5.4c-2-0.8-1.1-2.3,0.6-3.3C333.2,397.2,345.4,401.9,348.1,408.8z"/>
	<path d="M196.1,429.4c4.8-4.5,10.2-7.4,16.3-9.1C212.2,428.4,203.1,433.5,196.1,429.4z"/>
	<path d="M191.2,405.4c6.8-0.6,12.5-1.1,18.6-1.6C207.8,409.8,197.5,410.8,191.2,405.4z"/>
	<path d="M370.5,534.9c-1.1-1.4-2.1-2.7-3.2-4c0.2-0.2,0.4-0.3,0.6-0.5c1.8,1.5,3.7,2.9,6.3,5c-4.4,1.6-8.2,3-13.1,4.8
		C363.3,534.8,365.9,533,370.5,534.9z"/>
	<path d="M378.4,513.5c-3.2,2-4.2,2.7-5.4,3.4c0.2,2.9,2.6,4.4,3.7,7c-3.9-3.4-7.1-7.6-11.1-11.1
		C369.1,514.6,372.5,515.1,378.4,513.5z"/>
	<path d="M352.1,460.7c0.6,6.4,5,10.8-0.1,14.8C353.9,471.4,350.4,467.1,352.1,460.7z"/>
	<path d="M339.1,411.1c3.6-2.1,6.1-0.9,6.6,1.8c0.3,1.9,2.4,5-2.7,7.9c3.6-4.1-3.2-5.2,0.8-8.2C342.2,412,340.9,411.6,339.1,411.1z"
		/>
	<path d="M111.6,498.6c-4.8,3.9-10.1,6-16.6,4.7c-5.9-1.2-12.3,3.9-19.7-0.6c4.1-1.5,6.6-2.5,9.1-3.4c-0.7-0.2-1.7-0.6-2.7-0.9
		c4.8-3.6,10.2,0.5,16-1c-1.5-0.9-2.4-1.3-3.7-2.1C100.5,495.6,106.3,496.8,111.6,498.6z"/>
	<path d="M125.9,517c2.4-0.7,4.7-0.7,5.8-3c1.6,1,3.2,1.9,2.6,4c-0.3,0.9-1,2.2-1.7,2.3C129.9,520.7,128,519.3,125.9,517z"/>
	<path d="M135.6,514.7c-3.5-2.3-4.9-4.4-2-7.9C135.8,509,136.4,511.2,135.6,514.7z"/>
</g>
</svg>
