<?xml version="1.0" encoding="utf-8"?>
<!-- Generator: Adobe Illustrator 24.2.3, SVG Export Plug-In . SVG Version: 6.00 Build 0)  -->
<svg version="1.1" id="Layer_1" xmlns="http://www.w3.org/2000/svg" xmlns:xlink="http://www.w3.org/1999/xlink" x="0px" y="0px"
	 viewBox="0 0 595.3 841.9" style="enable-background:new 0 0 595.3 841.9; fill: #215342;" xml:space="preserve"
	 height="375" width="700" transform="translate(-210, -60)">
<g>
	<path d="M117.3,573.4c-0.5-4.6-1.2-9.3-1.5-13.9c-0.5-6.8-0.7-13.6-1.3-20.4c-0.2-2.2-1-4.6-3.9-4.4c-2.9,0.3-3,2.8-3,5
		c-0.2,11.1,2.5,21.6,7.7,31.4c0.7,1.3,1.2,2.8,0.8,5.1c-1.6-1.7-3.4-3.3-4.6-5.2c-1.8-2.8-3.2-5.9-4.9-8.8
		c-2.6-4.3-6.2-8.4-11.3-6.6c-4.1,1.5-4.5,6.9-4.7,11.1c-0.2,3.9,1,7.8,1.5,11.7c0.2,1.5,1.2,3,0,4.6c-8.5-3.1-16.5-6.5-20.7-15.4
		c-2.7-5.6-6.3-10.8-9.4-16.2c-1.3-2.3-3.5-1.8-5.5-2c-2.2-0.2-4.3,0-6.5-0.4c2.4,0,4.9,0.1,7.3,0c1.1-0.1,3,0.6,3-1.4
		c0-1.9-1.3-2.6-3.2-2.6c-10.9,0-21.8,0-32.7-1.1c7.5,0,15.1,0,23.3,0c-10.3-16-5-30.2,3-44c-0.9,5-3.3,9.8-2,15.4
		c0.5-0.9,1.1-1.8,1.6-2.7c-1.6,4.5,0,7.9,2.8,12.2c0.3-0.8,0.6-1.4,0.8-2.1c0.8-4.6,4.5-8.8,1.8-14c-0.3-0.6,0.1-1.8,0.4-2.5
		c2.6-4.9,4.2-10.5,9-14c0.6-0.4,1.2-1.2,0.7-2c-0.7-1-1.8-0.7-2.7-0.5c-4.8,0.9-8.1,4.2-11.3,8.5c0.5-6.7,12.5-13.4,21.6-12.6
		c-1,1.1-2,2-2.5,3c-7.3,14.8-13.7,29.8-9,46.9c0.1,0.2,0.4,0.4,0.9,1.1c1-3.1,2.4-5.9,2.8-8.8c0.9-7.5,4-14.6,3.8-22.3
		c0-0.3,0.1-0.7,0.3-0.8c6.4-5.5,6.8-14.5,12.3-20.5c5.5-6,11.7-10.2,20.3-8.9c0.5,0.1,1.1-0.3,2.1-0.5c-2.3-2.6-5.4-2-9.2-3.3
		c3.1-0.2,5-0.4,7.9-0.6c-10.1-6.9-17.8-15-22.4-26.4c-1.7,3.3,0.2,6.1-0.6,9c-2.3-0.9-3.1-2.9-2.9-4.7c0.3-3.8,1.3-7.6,1.8-11.4
		c0.2-1.4,2.1-3.1,0-4.2c-2.1-1.1-2.6,1.3-3.9,2.8c0-4.8,3.4-8,4.6-12.2c-8.2,1.8-12.1,7.8-15.6,24.1c-2.8-5.2-3.3-10.3-2.9-15.7
		c0.4-5.3,2.9-9.9,5.4-15.4c-5.5,1.6-10.2,3.6-15.5,2.4c18.7-9.2,34.6-27.6,36.5-42.9c-4.7,4.9-7.1,10.5-9.7,16.2
		c-0.2-6.8,5.1-17.6,11.8-24.7c6.4-6.7,14.5-11.2,22.7-16.4c-12.1-1.7-28.3,15.3-35.3,36.1c-2.3-10.9,4-26.3,14.7-36.1
		c7.3-6.8,16-11.3,25-15.2c5.6-2.5,10.8-5.3,14.5-10.4c2-2.7,5.1-4.1,8.8-4.6c-3.6,3.3-7.1,6.7-10.8,10c-3.6,3.2-7.4,6.3-11.4,9.8
		c5.8,0.6,33.6-19.2,36-25c0.6-1.5-1.3-0.9-1.1-2.3c4.3-1.6,8.7-3.3,13.5-5c-2.6-3-7.4-2.1-8.8-6.7c2.4,0.2,4.4,0.4,6.4,0.6
		c0.1-0.3,0.2-0.6,0.2-0.9c-4.5-1.5-8.9-2.9-13.4-4.4c6.7-2,13.1,0.6,21.2,0.8c-2.9-1.6-4.3-2.4-6.8-3.8c8-2.2,16.3-0.9,22.6-6.7
		c-3.1-1.4-6.3,0.1-9.3-1.9c1.7-0.9,3.1-1.6,4.7-2.3c-5.4-2.3-11.2-0.7-16.5-3.2c6.3-3.9,12.8,2,19.4-0.7c-1.7-2.2-3.2-1.7-5-2.3
		c1.9-0.1,3.4-0.3,5.8-0.4c-3.1-1-5.4-1.8-8.4-2.8c3.5-2.2,7-1.9,10.7-2.6c-3-1.7-5.7-0.6-9-0.9c4.1-3.2,8.2-2.2,13-1.7
		c-1.7-2.1-2.9-3.6-4.6-5.6c1,0.4,1.4,0.6,2,0.9c-0.2-3.6-3.4-7.2,0.2-11.2c2.5,6.1,5.3,11.5,12.1,14.3c-1-2.2-1.7-3.7-2.4-5.2
		c4,4.5,9.1,5.7,14.8,6c3.4,0.2,5.9-1,8.8-2.4c21.6-11,43.9-14.1,67.1-5c2.3,0.9,4.4,0.6,6.6-0.3c18.3-7.6,36.4-6.3,52.9,4.2
		c10.6,6.7,20.6,11.3,33.1,6.2c-0.4,0.4-0.8,0.9-1.2,1.3c9.7,1.5,19.2-2.1,28.9-1.1c-5.4,2.7-11.4,3.6-16.1,8
		c15.4-6.6,30.7,3.2,47-0.5c-3.8,4.1-8.2,5.6-12.1,8.3c2.5,1.5,0.9,2.3-0.3,3.2c-10.7,7.8-22.1,5.7-34.5-0.3
		c-3.3-1.6-6.4-3.5-10.4-5.7c1.1,3.1,3.3,3,4.7,4.5c-1,0.1-1.9,0.1-3.2,0.2c6.3,6.1,12.9,11.3,21.6,9.9c7.9-1.3,15.9-2.8,23.2-6.7
		c-1.2,0.8-2.3,1.6-4,2.8c1.9,0.2,3.2,0.3,4.7,0.4c-0.6,2.3-3.5,2-3.7,4.3c1.4,1.7,3.1-0.2,5.3,0.7c-7.3,2.3-12.1,8.4-19.8,9.4
		c5.2,0.7,10.5,2,15.7,2.1c14.1,0.2,29.7,10.9,34.5,24.5c-11.9-15.7-27-20.4-45.8-13.5c8.5,7.7,21,8.3,29.4,16.3
		c-6.9-2.9-13.7-5-21.7-3.5c13.8,6,28.6,9.5,38.8,21c1.7,1.9,2.7,4.3,3.7,6.7c-7.1-5.7-13.9-11.7-23.2-13.8
		c-0.5,1.9,0.2,2.7,1.3,3.4c0.9,0.5,1.6,1.2,3.4,2.7c-5.7-1.2-9.3-5.9-14.4-3.2c3.8,8,11.5,12.6,15.2,20.2c3.8,7.8,6.2,16,7.4,24.6
		c2-11.4,0.6-22.1-6.9-32.9c8.4,5.8,11.9,13.1,14.2,21.2c-0.4-5.7-2.1-10.8-4.2-15.9c3.9,5.3,6.8,11.2,7,17.8
		c0.1,5.3,1.1,9.8,5.6,13.1c-1-0.7-2-1.4-3.3-2.3c-0.2,0.7-0.3,1.3-0.5,1.9c-0.6-0.4-1.1-0.7-1.7-1.2c-0.9,2.1-0.2,3.9,0.3,5.6
		c3,11.2,8.2,20.4,21.2,22.7c-3,1.8-6.3,0.6-9.6,1.4c2.4,3.4,7.1,4.4,7.8,8.7c-4.4,0.9-5.5,0.2-26.6-16c-0.4,2.1,1,3.6,1.8,5.2
		c4.7,8.5,7,17.4,5.6,27.1c-0.3,1.8,0.5,2.3,2.1,2.3c5.6,0.1,10.4,2.3,14.3,6.2c1.2,1.2,2.4,1.7,3.9,0.5c8-6.4,16.5-4.6,23.4,4.8
		c1.6,2.2,3.4,4.2,4.5,6.8c-0.6-0.6-1.3-1.1-2.9-2.6c7.6,14.2,10,28.9,14.8,42.9c-0.2-13.9-0.7-27.6-8.3-39.9
		c8.9-1.5,21.2,5.5,24,14.4c-3.6-5-7.4-8.4-12.1-10.7c-1.1-0.5-2.4-1.5-3.4,0.1c-1.1,1.7,0.4,2.3,1.5,3.2c2.2,2.1,5.1,3.5,3.5,8
		c-1.2,3.6,2.2,6.9,3.5,10.4c0.9,2.4,3.4,5.2-0.9,7.1c-0.3,0.2-0.5,1.3-0.3,1.9c0.9,3.6,1.7,7.1,2.8,10.6c0.6,1.7,1.6,3.8,3.8,3.5
		c2.2-0.3,1.1-3.2,2.1-4c4.3-3.3,1.5-8.2,3-12.4c1.5,1.1,2.7,1.9,3.8,2.7c1.5-1.3,0.3-2.8,0.7-4c2.5,2.2,4.6,11.4,4.2,18.3
		c-0.4,6.9-3.3,12.5-9.8,17.5c10.1,0.9,18.7,1.7,27.3,2.5c0,0.3,0,0.5,0,0.8c-3.1,0-6.1,0-9.2,0c-9.8,0-19.6,0.3-29.4,0
		c-4.7-0.1-6.7,1.8-7.1,6.6c4.2,0,8.4,0,12.5,0c0,0.2,0,0.4,0,0.6c-1.6,0-3.3,0-4.9,0c-9.4,0.1-11.6,1.3-14.3,10.6
		c-2,6.9-6.2,11.5-12.2,14.9c-0.7,0.4-1.6,1.2-2.1,0.4c-0.9-1.9-2-4-2-6c0-4.7-0.9-9.2-2.4-13.7c-1-3.1-2.8-4.7-6.3-4.5
		c-6.1,0.3-12.3,0.4-18.4,0.5c-2.3,0-3.5,1.2-4.2,3.1c-2.4,6.5-7.5,10.8-12.4,15.2c-0.9,0.8-2.3,1-3.6,1.5c-2.3-6-2.7-12.6-7.3-17.5
		c-1.2-1.2-2.3-1.6-3.8-1.6c-33.1,0.5-66.1,0.9-99.2,1.3c-2.8,0-5.2,0.7-6.4,3.3c-1,2.2-0.6,4.4,1,5.9c-3.6,8.8-7.1,17.4-11,26.9
		c-3.8,1.3-6.2,4.7-4.8,8.9c-1.8,0.7-2.5-1.6-4.3-1.5c0,3.4,2.9,4.8,4.9,7.2c-3.3-0.9-4.8-3.6-7.3-5.4c-1.5,3.4-4.1,6.2-2.8,10.5
		c-2.1-1.2-4.1-2.4-6.4-3.7c-0.8,6.5-4.1,2.6-6.7,1.9c-0.7,2.2,1.4,2.9,1.9,4.6c-2.5-0.6-3.3-3.1-5.4-4.5c-0.7,2.2,1.2,3.5,1.6,6.2
		c-2-3.1-3.5-5.4-5.1-7.8c-1.7,1.3-0.1,2.9-1,4.9c-0.9-2.4-1.6-4.3-2.6-6.9c-1,4-0.3,7.2,1.2,11c-4.7-2.8-6.5-7.1-9-10.8
		c-1.7,1.1-0.6,2.8-1.5,4.3c-0.9-2-1.6-3.7-2.4-5.6c-2.7,0.9-2.3,3.5-3.6,5.3c-0.3-1.7-0.6-3.1-1-5.2c-0.9,1.3-1.3,2.1-1.4,2.2
		c-7.2-4-13.2-9.4-19.6-15.2c0,0-0.7,0.1-1.7,0.3c0.3-0.4,0.4-0.7,0.5-0.8c3.5-1.8,6.9-2.5,11-1.4c2.7,0.7,2.9,3.5,3.2,4.3
		c2,6.3,7,0.7,10.3,4.4c0.7,2.7,2.4,1.3,4.3-1.5c0,1.9-1.2,3.5,0.7,4.6c1.7,0.9,4.1,0.4,4.7-0.3c2.3-2.5,3.5-0.8,4.9,0.7
		c2-4.7-0.2-6.6-4.5-7.2c-2.1-0.3-4.3-0.8-6.4-1c-5-0.5-9-3-13-5.9c-3-2.2-6.7-1.9-11.2-2c1.3,0.9,2,1.3,2.8,1.8
		c-2.3,1.4-4.7,1.9-7,0.7c-2.2-1.1-4.2-2.5-6.2-3.7c0.3-0.4,0.9-0.9,0.8-1.1c-1.5-3.7-4.4-6.5-4.1-11.3c0.2-2.6-2.7-5.8-3.7-9.1
		c-1.1-3.9-4.8-6.5-9.6-6.6c-21.3-0.1-42.6-0.3-63.9-0.6c-2.4,0-4.4,0.3-6,2.4c-2.5,3.4-5.5,6.5-8.3,9.6c-2.9,3.2-5.7-1.7-6.5-3.2
		c-1.8-3.6-5.1-5.6-7.5-8.4c-3.3-3.8-16.3-0.8-17.9,4c-1.4,4.4-2.4,8.9-3.6,13.3C118.2,573.4,117.8,573.4,117.3,573.4z M273.9,493
		c0.6,2.1-0.4,4-0.8,6.6c2-1.8,3.5-3.2,5-4.5c-0.7,1.7-1.3,3.5-2.4,6.4c1.8-1.5,2.5-2.1,3.4-2.9c0.1,1.1,0.2,1.9,0.3,2.8
		c2.4-1,4.6-0.7,6.7,0c0.8-1.3,1.6-2.5,2.2-3.6c1.4,0.3,0.1,2.2,1.9,2.2c1.8,0,3.3-0.1,3.7-2c0.8,0.2,0.6,1.6,1.8,0.9
		c0.8-1.9,1.1-3.9-0.1-6c-3.4,4.1-3.6,0-4.8-2c-0.6,0.9-1.1,1.6-1.6,2.4c-1.6-1.3-4.1-0.9-5.3-3.1c-1.9,1.6-3.5,3-5.2,4.4
		c0.7-2.1,2.5-3.8,1.8-6.6c-1.6,1.6-3.4,2.5-5.3,3c1.3-2.3,2.6-4.7,4-7c-3.1,1.2-6.4,1-8.2,3.6c0.2-2.3,6.3-4.9-0.5-6.8
		c0.6-1.9,1.2-3.6,1.9-5.9c-2,1.5-3.4,2.5-5.5,4.1c1.2-2.5,2-4.1,3.4-7c-2.1,1.7-2.9,2.4-3.9,3.2c0-2.1,2.7-3.5,1.2-5.1
		c-2.2-2.3-4.1,0.7-6.1,1.3c-0.1-2.6,4.6-2.7,2.5-6c-1.8-2.9-3.7-5.8-5.4-8.8c-7.1-12.5-1.7-29.5,10.8-36.2
		c14.5-7.8,30-7.7,45.6-6.3c5.2,0.5,10.8,1.8,15.2,5.3c-1.1,0.1-2.4,0-2.6,1.4c-0.4,2.9-2.1,2.1-3.6,1.4c-16.8-7.3-33.9-5.1-50.8-1
		c-9.2,2.2-15.7,11-15.4,19.2c0.2,6.1,3.2,7.9,8.5,5c3.7-2,7.2-4.5,11-6.5c4-2.2,8.1-3.7,12.6-1.2c2.3,1.3,5.3,4.1,6.5-1.3
		c0.1-0.5,1.5-0.9,2.3-0.9c2.3-0.2,4.7,0,7.1-0.1c1.7,0,6-1.7,6.4,2.9c2-0.6,4.1-2.7,5.4,1.2c3.6-3.6,7.9-3.9,12.1-2.8
		c4.1,1.1,8.2,2.3,11.9,4.3c4.2,2.2,4-0.5,3.8-2.9c-0.5-8.3-5.3-13.8-12.2-17.8c1.8,0.8,3.6,1.6,5.3,2.5c3.9,2,5.3,8.1,11.2,6.8
		c1-0.2,1.2,1.4,1.4,2.3c0.4,2.2,0.5,6.3,1.2,6.4c6.1,1,3.6,5.6,3.8,8.6c0.3,5.7-2.2,12,5.1,15.3c-3.3,3.3,1.3,3.7,1.1,5.5
		c-0.7,4.9-3.5,9.1-4.8,14c-1.1-0.6-2.2-1.1-4.8-2.5c2.2,2.8,3.4,4.3,4.8,6.1c-2.5-0.6-3.9-3.6-7-2.3c0.9,2.7,3.3,4,4.7,6.1
		c1.8,2.5,3.1,2,4.6-0.3c3.1-4.6,5.4-9.4,7-14.7c0.5-1.5-0.7-3.7,1.8-4.4c-2.3-3.2-2.3-6.5-1.3-10.3c3,1.4,5.7,2.8,8.5,4.1
		c-1.6-1.7-3.6-2.8-5.6-3.9c-1.9-1-4.2-1.6-4.2-4.4c-0.1-5.3-2-10.2-3.6-15.2c-1-3-0.1-4.2,3.1-4.1c6.2,0.2,12.1,2,17.9,3.9
		c-5.8-3.2-12-4.7-18.5-4.9c-3.1-0.1-4.3-1.3-5.1-4.1c-2.3-8.1-4.8-16.1-8.8-23.6c-0.5-0.9-1-2-1.2-3c-1-5.8-1.3-12.4-6.4-15.7
		c-7.3-4.7-9.3-13.1-15-18.8c-2.3-2.3-4.4-4.7-6.6-7.2c-0.6-0.6-1.2-1.5-0.5-2.4c0.8-0.9,1.7-0.3,2.4,0.1c2.9,1.6,5,4.2,7.1,6.6
		c3.5,3.9,7,7.8,10.5,11.7c-4.4-4.7-5.5-11.4-10.1-16c-6.4-6.2-11.4-13.3-11.7-22.9c-0.1-4.4,1.8-8.4,1.9-12.4
		c0.2-7.3,4.4-12.2,8.3-17.3c2-2.7,6.8,0,9.2-3.2c0.1-0.1,0.9,0.1,1,0.4c1.1,2.9,2.9,1.3,3.7,0.8c4.2,4.4,9.4-0.5,13.3,2.3
		c-0.6,0.7-1.3,1.4-2,2.2c2.9,3.3,5.8,6.2,12.1,5.5c-3.9,2.3-6.2,3.7-9.1,5.4c1.8,0.8,2.8,1.2,4,1.8c-1.3,0.6-2.2,1-3.4,1.6
		c1,0.5,1.6,0.8,2.3,1.2c-0.6,0.5-1,0.9-1.5,1.2c0.9,0.7,1.6,1.4,2.5,2.2c-0.9,0.5-1.5,0.8-1.4,0.7c0.5,5.1,4.4,7.2,7.9,9.5
		c3.4,2.3,5,7.6,11.3,7.2c-2.2-2.5-2.7-5.1-5-6.6c-1-0.7-3.1-1-2-2.9c1.2-2,3-1.3,4.4-0.4c4.4,2.8,7.9,6.4,9.8,12
		c2.5-4.8-0.6-8.7-1.1-12.7c-0.6-5.3-5.7-8.9-9.9-12.6c1.6-0.9,4,0.5,4.5-1.5c0.5-2.1-1.4-3.4-2.9-4.5c-2.8-2.2-5.7-4.1-9-6.3
		c2.8-0.8,5.3,1.3,7.6,0.2c-2.8-4.1-8.2-4.3-11-7.2c-3.1-3.3-6.7-5-10.5-6.8c-1.1-0.5-2.5-1-2.1-2.4c0.3-1.3,1.2-2.4,2.9-2.3
		c2.1,0.1,3.9-0.3,4.3-2.9c-2.2-1.9-5.1-0.9-7.7-1.7c2.1-1.5,4.8-0.5,6.5-2.8c-3.3-2.2-7.1-1-10.4-2.1c2.5-4.5-1.3-3.6-3.2-4
		c-2.9-0.7-6.3-1.1-7.6-3.8c-1-2,2-3.5,3.4-5.1c0.1-0.1,0-0.3,0-0.9c-3.9,0.9-7.8,1.8-12.2,2.8c0.7-1.6,1-2.3,1.5-3.4
		c-6.3-1.6-11,2.1-17,4.3c1.6-3,2.8-5.3,4.3-8.2c-4.8,2.1-6.6,6.3-10.9,9.6c-1.9-7.1,4.9-10.4,5.8-16.1c-5.9,3.2-8.5,8.8-11,11.9
		c-8.2,2.2-5.2,8.7-7.5,12.6c-1.7-2.4-2.1-5.9-6.5-7c1.6,6.4,3.1,12.3,4.6,18.1c-4.4-5.9-4.4-13.5-8.5-19.5l0,0
		c-8-15.1-26.3-23.9-37.7-18c2.3,2,5.2,0.8,7.7,1.4c2.5,0.6,5.1,1.3,7.6,1.9c-1.1,0.8-2,0.8-2.8,0.6c-7-2.1-13.5-1.6-19.9,2.4
		c-5.4,3.4-9.8,8.3-16.4,9.6c-0.1,0-0.1,0.2-0.2,0.4c1.5,0.7,2.9,1.7,3.7,3.6c-8.1,6.4-11.8,16.6-21.9,22.8c4,0.4,6.1,0.9,5.2,4.1
		c-0.4,1.4,1,1.3,2.1,1c1-0.3,1.9-1.1,3.3,0.1c-1.6,2.2-1.5,5-1.9,7.5c-0.6,3.2-5.7,4.5-5.6,9.8c0,3.6-4,7.2-6,10.9
		c-2.7,4.8-3.4,10.2-5,16.7c2.4-1.8,3.7-2.7,5.1-3.8c-0.1,2.3-3.2,4.2-1.3,5.9c1.8,1.6,3.6-1.1,5.6-1.6c0.8-0.2,1.6-0.5,2.1-1
		c1.8-1.5,4.5,0.6,6-1.7c2.4-3.6,5.8-5.8,9.5-7.7c4.7-2.4,9.7-3.9,14.9-4.8c-12.6-5.6-19.5,3.4-27.2,10.7c0.1-1.2,0.3-2.2,0.9-2.9
		c4.9-6,11.4-9.9,18.1-13.6c1.6-0.9,3.2-1.6,2.2-3.8c-0.9-2-0.3-4.7-3.4-5.5c2.8-2.6,6.5-0.5,8.9-3.1c-0.6-0.5-1.3-1.1-2.1-1.8
		c1.7-1.3,1-4,4.2-4.6c-1.6-1.2-2.7-2.1-4-3c2-1.2,4.1,1.1,5.8-0.8c-0.7-1.2-1.4-2.4-1.9-3.5c10.3,1.7,2-6.1,5.7-8.8
		c-0.3,0.2,0.5,1.9,1.8,0.6c-1.7-1.6-3.3-3.1-6-5.6c6.1,2.5,9.5,6.6,14.5,9.5c-0.6-2.4-1-3.9-1.5-5.9c1.5,1,2.4,1.6,3.6,2.4
		c0.3-1.5,0.5-2.7,1-4.6c2.3,3.1,4.1,5.7,5.9,8.2c10.3,1.9,10.4,10.3,11.5,18.6c0.5-1.8,0.9-3,1.3-4.3c0.2,0,0.4,0.1,0.5,0.1
		c-1.1,4.1-2.3,8.2-3.4,12.3c0.2,0.1,0.4,0.2,0.6,0.3c1.2-2.5,2.4-4.9,3.8-7.7c4.5,15-21.9,60.6-36.6,64.1c0.1-6-5-5.3-8.2-5.6
		c-8.6-0.9-15.7-4.4-21.7-10.3c-4.1-4-8.3-3.3-11.3,2.1c1.4,0.8,3.5-0.4,4.6,1.6c-5,3.3-3.7,4.7,2.9,4.3c-7.2,4.8,0.3,6.8,0.2,10.1
		c2.7,0.3,6.8-3.1,7.2,3c2-0.2,4.7-2.6,5.2,0.6c6.5,0.3,12.8,0.6,17.2-5.4c1.1,2.7-1.3,6.1,1.8,7c3.1,0.9,4.3-2.6,6.1-4.4
		c4.5-4.7,9.1-9.4,13.7-14c1.2-1.2,2.7-2.1,4.6-3.5c0.3,4.7-2.3,7.3-4.6,9.6c-7.3,7.1-15.4,13.4-20,22.8c-1.9,3.8-4.2,7.3-6.6,11.6
		c0.1-3-2.7-1.8-3.2-4.5c-2.5,4.4-6.2,5-10,5.4c-2.3,0.2-4.4-1.3-6.8,0c-2.5,1.3-3.7,0.3-2.9-2.8c0.3-1.3,1.8-4.2-0.8-3.8
		c-2.9,0.5-5.9-1.4-9,1.3c0.8-2.3,0.3-3.4-0.5-4.8c-2.1-3.3-3.4-6.5,1.9-8.6c2-0.8,3.4-2.8,6-5c-5.4,0-8.2,2.9-12.6,4.1
		c3.1-4-1.2-7.9,2.6-10.8c-4.1-1-11.5,4.7-13.4,9.7c-2.1,5.5,2.2,13.4,9.4,17c-0.9,2.1,0,3.5,1.9,4.3c-0.5,2.4-0.9,4.6-1.4,6.8
		c-0.2,1-0.2,2,0.8,2.7c1,0.7,2,0.4,2.7-0.3c1.7-1.5,4-1,4.8,0c2.6,3.5,5.2,4.7,9.2,1.7c-2.4,3-5.5,4.8-6.5,8.3
		c-0.4,1.3-0.4,2.6,0.5,3.6c0.3,0.3,1.3,0.5,1.6,0.3c5.4-4.1,13.3-4.6,17.1-11.3c0.3-0.5,1-0.9,1.6-1.3c5.7-3.3,11-7.6,13.2-13.8
		c0.9-2.6,2.1-4.3,4.1-6.1c-3.8,3.7,2.9,6.5,0.4,10.3c-2.1,3.2-2.6,7.1-3.7,10.7c-1.3,4.3-2.7,11.2-9.1,10.2
		c-4.5-0.7-8.2,0.9-12.3,1.1c-3.9,0.2-7.6,1.9-11.4,3c7.4-2.6,15.2-1.5,22.7-2.5c1.3-0.2,3.2-1.1,3.6,0.7c0.5,1.8-1,3.2-2.7,3.8
		c-2.5,0.8-5.2,1.2-7.8,1.9c-6.3,1.7-12.4,3.9-17.6,9c6.9-2.9,13.2-5.7,19.6-8.1c1.9-0.7,5-2.7,5.9,0c0.8,2.4-2.5,3.5-4.7,4.5
		c-4.7,2-9.6,3.7-15.1,8.3c6.3-2.8,10.5-5.9,15.7-6.9c-0.3,6.1-5.1,7.9-9.6,10.7c2.8,0.2,4.5-1.8,7-1c-1.6,2.1-3.1,3.9-4,5
		c4.6,5.7-1.4,9.8-1.1,14.3c1-0.3,2-0.7,2.9-1c0.4,1.2,0.5,2.6,1.2,3.1c7,5.3,13.4,11.3,19.7,17.3c0.8,0.7,1.9,1.4,2.9,0.4
		c0.9-0.9,1.7-1.9,1.4-3.4c-0.4-1.9-4.5-1.6-2.2-4.9c-1.2,0.3-1.9,0.4-2.5,0.5c-1.3-2-0.7-5.5-4-5.5c-2.5-0.1-4.7-1.3-4.6-3
		c0.1-2.3,2.5-5.5,4.5-5.2c5.4,0.8,7.4-2.2,9.5-6c1-1.8,3.1-2.2,5-1.9c1.8,0.3,0.1,1.8,0.5,2.7c3.2-0.9,5.4-0.3,5,4
		c2.2-2.4,3.1,1.7,5.4-0.2c-0.8,2.7-3,4.3-2,7.2c7.3-4.1,4.4,2,4.5,5.6c1.9-1.4,3.2-2.2,4.5-3.1c-2,2.2-0.9,4.3,0.4,6.4
		C272.2,493.4,273.1,493.2,273.9,493z M438.2,506.4c1.6-5.9-0.1-12.3,2.3-18.1c0-0.1-0.2-0.3-0.5-0.6c-4.4,7-6.1,14.8-7.5,22.6
		c-0.3,1.9,2.5,1,2.5,2.7c0.5-0.3,1.1-0.6,1.6-1c-0.1,1.3-0.8,2.9,0.9,3.7c0.9,0.4,1.8-0.2,2.2-1c2-4.9,2.4-10,1.6-15.4
		C440.3,501.7,439.3,504.1,438.2,506.4z M462.6,500c0.1-1,0.2-2,0.5-4.6c-2.8,3.9-4.3,6.5-3.9,11.3
		C460.8,503.7,461.7,501.8,462.6,500c-0.4,2-0.8,4-1.2,6.1c-0.2,1-0.8,2.3,0.2,3.1c1.1,0.8,2-0.2,3-0.6c1.4-0.6,3.1-1.5,3.8,0.5
		c1.3,4.1,1.1,8.4,3.4,12.5c1.6,2.9,1.2,7,1.7,10.6c0.2,0,0.3,0,0.5,0c0.4-3.8,0.8-7.6,1.2-11.4c0.3,0,0.5,0,0.8,0
		c0.3,3.3,0.6,6.5,1,11.6c1.2-4.4,1.9-7,2.6-9.4c3.6,1.2,2.3,4.8,3.6,7.3c3.8-11.3,5-23.3,2.4-27.7c-1.5,4.3-2.1,8.7-5.3,12
		c-1.2-0.6-1.7-3.6-3.9-0.8c0-1.9,0-3.4,0-3.8c-6.4-4.4-5.5-11-7-16.6c-0.9,0.3-2,1.3-2.5-0.8C465.4,495.3,464,497.6,462.6,500z
		 M325.9,558.8c3,1.4,5.4,0.4,6.6-2.4c3.2-7.7,5.1-15.8,5.5-24.1c0.1-1.3,0-3.1-1.7-3.4c-1.7-0.3-2.1,1.6-2.6,2.8
		c-2,5.8-3.8,11.6-5.7,17.4c0.7-4.9,2.1-9.6,2.6-14.5c0.6-5.2-2.1-9.8-3.7-14.5c-0.4-1.2-1.1-3.6-2.6-2.1c-5.8,6-12,3.5-18.5,1.6
		c-3.6,3.3-1,8.2-2.6,12.1c-1.1-0.2-1.9-0.3-3-0.5c-0.9,5.6,0.2,11.2-1.9,16.5c-0.8-6.8-1.3-13.7-1.4-20.5c0-4.6-2.2-6.5-6.5-7
		c-6.2-0.8-11.6-5.3-18.3-4.7c-1.2,0.1-1.8-1.3-2.4-2.4c-0.7-1.5-1.5-2.9-3.5-2.7c-2.1,0.2-2.3,2-2.7,3.4c-1.4,4.7-2.1,9.4-1.8,14.8
		c-3.1-2-3.9-0.3-4.5,2.1c-2.3,9.1,0.6,17.6,3.4,26c1,3,3.9,3,6.5,1.6c-0.9,0.9-2.6,1.4-1.9,3.2c1.4,3.5,3.3,6.8,6.3,9.1
		c2,1.5,3.5,0.9,4.3-1.4c2-5.8-0.9-10.8-7.1-12.6c-0.5-1.2-1-2.4-1.5-3.5c-0.5-1.1-1.1-2.2-1.7-3.3c7.5,9.3,16.4,15.2,28.6,14.7
		c11.2-0.4,22.5-0.4,31.2-10.8C325,556.2,324.9,557.6,325.9,558.8c-4.2-1.5-5.8,2.7-8.7,4.1c0.8,1.5,1.5,3.1,2.5,4.6
		c0.3,0.4,1.2,0.8,1.7,0.7C324.2,567.6,327,561.5,325.9,558.8z M148.8,457.4c-2.7-14.4-3.7-28.3,3.7-41.8c-5.1,3.3-6.8,9.2-12,13.7
		c1.2-7.4,3.1-13.4,6.4-18.5c6.2-9.6,10.5-19.9,13-31c0-0.2-0.2-0.5-0.6-1.4c-5.6,9.5-15.2,12.4-23.9,16.8c-2.5,1.3-4.9,3-7.1,4.9
		c-4.5,3.7-9.6,15.6-8.7,19.8c7.8-11.8,17.4-21.2,23.3-22.8c-13.1,13.8-20.1,27.4-17.7,35.3c1.3-2.9,2.4-5.5,3.6-8.1
		c1.1-2.5,2.3-4.9,3.5-7.4c-4.1,12-5.1,17.8-3.5,23.1c1.1-9.7,4.8-17.6,11.6-24.2c-6.7,15.3,3.3,32.2-5,47.6
		c-1.2-5.7,2.8-10.9,0.3-17.3c-3.8,4.8-5.1,9.5-5.6,15.1c-2.3-2.7-1.7-6-3.4-9.5c-0.4,2.1-0.8,3.3-0.8,4.5
		c-0.1,5.6,1.9,10.3,5.5,14.6c1.7,2.1,2.8,2,4,0c2-3.5,3.8-7,5.8-10.8c2.2,3.3,0.2,7.4,3.1,10.8c4.3-7.7,0.3-15.1,0.7-23.8
		C146.5,451.3,147.7,454.3,148.8,457.4z M123.9,356c-3.6,7.4-9.5,11.8-15.5,16.2c-7.9,5.7-11.9,12-12.2,17.5
		c4.9-8.2,12-15,16.5-15.8c-10.2,13.2-12.7,18-12.1,24.1c5.8-13.5,17.1-20.3,28.1-27.4c4-2.6,8-5.1,11.9-7.8c2-1.4,4.1-3.1,4.7-6.3
		c-7.6,4.1-15.4,6.2-25,9.1c2-2.3,2.7-3,3.4-3.8c4.8-5.8,11.8-9,17.5-13.6c11.8-9.6,19.9-23.5,34.3-30.3c0.9-0.4,1.6-1.4,0.9-2.5
		c-0.9-1.2-2-0.4-2.9,0c-7.2,3.9-14.5,7.7-19.8,14.4c-2,2.5-4.3,4.8-6.5,7.1c3-9.2,11-14.1,17.2-21.2c-2.9-0.1-4.7,0.8-6.6,1.7
		c-7.7,3.9-12.4,10.6-16.6,17.8c-4.5,7.6-10,13.9-18.7,17c-5.3,1.9-9.8,5.5-13.8,9.6c-2,2-2.3,2.6-2.5,4.7
		C111.3,361.6,117.1,358.5,123.9,356z M448.7,552.2c-2-5.2-4-8.7-9.5-7.9c-2.3,0.3-4.7,0-7.1,0.1c-2.6,0.1-3.6-0.7-3.2-3.4
		c1.1-6.9,2.1-13.9,3-20.8c0.3-2.1,0.1-4.5-2.7-4.8c-2.9-0.3-3.7,1.9-4,4.2c-1.2,7.2-0.9,14.4,0.7,21.5c0.7,2.9-0.2,3.4-2.8,3.4
		c-13.7-0.1-27.3-0.1-41,0c-12,0-23.9,0.1-35.9,0c-2.6,0-3.4,1.5-3.8,3.6c-0.4,2,0.8,2.3,2.5,2.4c-0.6,0.7-1.2,1.4-1.6,1.9
		C378.2,552.2,413.1,552.2,448.7,552.2z M174.5,328.3c-7.7,10.4-12.9,22-23.6,29.2c-10.3,6.9-20.2,14.4-30.3,21.7
		c0.1,0.2,0.3,0.5,0.4,0.7c5.1-2.3,10.2-4.6,15.3-6.9c-4,4.8-8.9,8.4-12.6,13.2c-3.7,4.8-6.7,9.8-7,17.9
		c4.9-9.6,11.3-15.5,19.6-22.1c-1.8,4.4-2.9,7.3-4.1,10.2c9.5-1.3,26-17.3,26.9-26.7c0.3-3.4,1.6-6,3.4-8.5
		c5.1-7.2,8.9-15,11.9-23.2C174.9,332.4,175.7,330.9,174.5,328.3z M469.3,479.2c0.2,0.1,0.4,0.2,0.5,0.3c-0.5,2-1,4.1-1.6,6.6
		c3.2-2.1,3.9-5.4,6.4-7.9c0.2,3.5-0.4,6.5,1.1,9.6c1.3,2.8,1.2,6.3,1.6,9.5c0.2,1.3,0.7,2.3,2.2,2.4c1.2,0.1,1.9-0.5,2.1-1.7
		c0.8-5.2,2.2-10.3,1.8-15.6c-0.8-9.4-3.8-11.7-11.5-9.5c-1.6-1.3-1.3-4.6-4.8-4.2c1.8-3.7,4.7-5.5,7.8-7.1c1.2-0.6,2.9-1,2.5-2.8
		c-0.4-1.6-2-1.6-3.4-1.9c-7.3-1.9-12,2.1-16.3,7.1c-10.3,12.1-8.2,25.7-4.5,39.7c3-8.3,5.5-16.8,11.9-23.3c1.2,1.2,0.1,3.4,2.1,4.3
		C467.8,482.7,468.5,481,469.3,479.2z M105.2,509.5c1.8-9.3,7.1-16.2,12.1-16.7c0.2,0.9,0.5,1.8,0.7,2.5c1.5,0.8,1.6-1.2,2.8-0.9
		c0,2-0.4,4.1,1.1,6.3c0.6-4.2,0.8-7.8,0.7-11.6c0-3.5,0.3-6.6-4.8-4.8c0-1.3,0-2.3,0-3.3c-1,0.2-1.8,0.4-3.2,0.8
		c1.2-1.7,2-2.8,3-4.2c-1-0.2-1.7-0.4-2.5-0.6c0.9-3.1,3.5-4.8,5.1-7.1c-4.8-1.9-13.3,3.3-15.6,10.3c-2.5,7.3-5.3,15.1-4.3,22.6
		c0.7,5.5-1.3,9.8-2,14.7c-0.3,1.9-1.1,3.9,0.5,6.4c0.9-2.3,1.7-4.1,3.1-7.4c0,4,0,6.5,0,9.4c1.2-0.5,1.9-0.8,2.6-1
		c1,1.6,0.7,3.9,3.5,4.1c2.2-6,2.5-12.4,3.2-19.8c-0.9,1.5-1.3,2.1-1.7,2.8c-0.8-2.8,1-5.5-0.7-8.6
		C107.6,505.4,106.7,506.8,105.2,509.5z M236.6,548.7c-1.5-2.5-3-3.6-5.1-3.6c-20.5,0-40.9-0.2-61.4,0.1c-3.5,0-3.6,4-4,6.4
		c-0.4,2.4,2.3,1.5,3.6,1.5c20.6,0.3,41.1,0.5,61.7,0.6c1.1,0,2.4,0.5,3.2-0.7c0-2.5-2.6-3-3.6-4.9
		C232.7,548.2,234.3,548.4,236.6,548.7z M164,545c3.9-6.8,7.5-13.6,5.9-21.7c-1.3-6.5-3.2-12.9-3.1-19.6c0.2-11.9-3.1-22-14.4-28.4
		c-6.3-3.6-15.6,0-16.5,7.1c-0.2,1.3,0.3,2.4,1.2,3.2c1.1,0.9,0.9-1,1.8-0.9c0.5,1.9,1,3.8,1.6,6.2c1.1-1.9,2.9,1.1,4.1-1.5
		c2.1-4.5,5.6-4.8,8.9-0.8c0.2-1.6,0.3-3,0.6-4.3c0.2-1.2-0.8-3.1,1.1-3.5c1.6-0.3,2.7,1.2,3.4,2.5c2.8,5.3,5.4,10.6,5.1,16.8
		c-0.3,5.4,0.8,10.5,2.4,15.7c1.7,5.3,4.7,11.2-2,16c-1.9-2.3-1.2-6.5-6.3-8.1c3.2,9.3,0.7,18.1,0.6,28.1c4.1-4.7,3.8-9.3,5.9-15
		C164.2,540.8,164.1,542.9,164,545z M499.3,526.2c0.2,0,0.4-0.1,0.6-0.1c0.3,2.1,0.6,4.1,1.1,7c0.6-1.7,0.9-2.5,1.3-3.7
		c0.5,2,1,3.6,1.8,6.8c0.2-3,0.3-4.4,0.4-6.6c0.5,2.6,0.8,4.3,1.1,5.9c0.5-2.3,1.3-4,2.3-6c1.4-2.7,5.4-2.7,5.5-5.8
		c0.3-7.2,0.1-14.5,0.1-22.9c-2.1,3.6-1.7,6.5-2.5,10c0-4.5,0-8.1,0-13.2c-2.3,5.6-6,8.8-6.1,14.6c-1-2-0.1-3.7-1.8-4.5
		c-2,1-0.7,3.9-2.9,5.1c-1.9-3.9-1.6-8.1-1.8-12.2c-0.3-4.1-0.1-8.2-0.1-12.8c-5.1,8.4-5.7,36.7-0.9,39.6c0.2-1.8,0.3-3.5,0.6-6.5
		c0.2,5.3,0.4,9.2,0.6,13c0.2,0,0.5,0,0.7,0C499.3,531.4,499.3,528.8,499.3,526.2z M443.2,414.6c0.9-2,1.6-3.2,2-4.5
		c3.9-13.4-2.2-31.2-13.6-39.1c-1.3-0.9-2.9-3-4.3-1.4c-1.5,1.7,1.1,2.8,2.1,3.8c5.6,5.4,10,11.4,12.3,20.5
		c-3.7-6.6-6.7-12.1-13.5-16.6c4.3,9.2,11.2,15,14.2,24.5c-4.7-7.5-9.3-13.3-16-17.3C430.3,395.2,441.4,401.8,443.2,414.6z
		 M326.6,567.5c-9.1,8.9-20.1,12.4-32.8,13.1c-14.5,0.7-23.3-6.5-30.2-19.6c0.4,5.8,2.6,9.3,4.9,13.1c-3.3,0.3-5.8-0.4-7.8-2.7
		c1.9,5.6,5.9,9.5,11,12c2.1,1,4.7,3.8,6.5-0.7c0.4-1,1.7-0.7,2.7-0.5c10.3,2,20.7,1.8,30.9-0.6C318.8,580,326.5,572.2,326.6,567.5z
		 M371.2,389.1c2-1.5,5.4-2.8,5.5-4.3c0.3-6.1,9.4-8.7,6-16.1c-0.3-0.6,1-1.9-0.2-2.8c-1.2-1-2.6-0.9-3.9-0.4
		c-2.1,0.7-3,2.6-3.5,4.5c-2.1,7.9-10.4,13.3-18.6,12c-2.6-0.4-5.2-0.7-8.5-1.1c2.4,3.8,4.7,6.6,8.7,7.8c0.1-0.9,0.1-1.5,0.1-2.3
		c3.1,2.9,7.1,2.5,10.8,3.4c0-0.6,0-1.2,0-2.2C369.1,388.2,370.2,388.7,371.2,389.1z M136.7,507.3c0.1,0,0.3,0.1,0.4,0.1
		c0.9-2.1,1.8-4.1,2.7-6.2c0.1,4.2-0.7,8.2-1,12.2c-0.3,3.9-0.5,7.9,0.6,12.3c2.5-2.1,1-4.7,2.2-6.8c0.4,2.9,0.7,5.6,1.1,9.1
		c1.7-3.7,1.1-7.3,5-8.9c1.1-0.4,3.5-1.3,3.9-3.5c1.2-6.5-2.2-12.1-2.8-18.1c-2.2-0.1-1.7,2.1-3.2,2.4c-0.3-2.9-3.2-3.3-4.8-4.8
		c-0.6-0.5-1.4,0.5-1.6,1.3C138.3,500,137.5,503.7,136.7,507.3z M277.6,567.7c-0.6,4.4,1.2,7.2,5.1,7c4.6-0.2,9,0.8,13.4,1.7
		c4.2,0.9,7.9-2.4,12-0.7c0.2,0.1,0.8-0.2,1-0.5c1.2-1.7,2.4-2.1,4.4-1.1c1.7,0.8,3.2-0.5,4.1-2c1.3-2.2,1.2-4.5-0.2-6.7
		c-0.9-1.4-2.2-1.9-3.6-1.1c-4.3,2.7-8.4,4.9-13.8,5.2c-4,0.2-13.8-0.6-16.8-3.8c-1.3-1.4-2.7-3-4.4-2.4
		C276.9,564.1,278,566.6,277.6,567.7z M74.1,525c0.5,2-0.7,4,0.9,6.2c1.4-4.8,1.1-9.7,4.4-13.9c-0.3,9.9,1.4,18.8,6.6,28.5
		c1.6-6.3,0.2-11-0.4-16c2.5,0.5,3.3-1,3.3-3.1c0.1-4.7,1.1-9.7-2.9-14.4c-0.6,2.2-0.9,3.5-1.5,5.7c-0.6-3.2-1.1-5.6-1.9-9.5
		c-0.9,2.7-1.3,3.9-1.8,5.6c-0.1-2.5-0.2-4.3-0.3-6.1c-0.5,4.4-2.9,7.1-6.1,10c-3.5,3.2-4,8.1-4.3,13.4
		C72.9,529.7,72.3,526.8,74.1,525z M509,569.3c0.6-0.9,1.4-1.6,1.7-2.6c3.6-10,6.3-20.2,4.8-31c-0.3-2.4-0.8-5.1-3.8-5.3
		c-3-0.2-4,2.5-4.4,4.8C505.2,546.6,508.7,557.7,509,569.3z M368.4,358.5c-0.2-1.6,0.2-4.6-2.2-4.8c-2.4-0.2-1.5,2.7-1.8,4.3
		c-1,5.6-5.4,9.1-10.7,8.3c-3.5-0.5-5.9-2.7-6.5-6.1c-0.6-3.2,2.8-2.2,4.3-3.1c2.7-1.6,3.6-3.9,2.5-6.5c-1-2.4-3.6-2-5.1-0.7
		c-3,2.6-5.6,5.7-5.6,10c-0.1,7.1,4.4,11.7,11.3,11.8C362,371.8,368.3,366,368.4,358.5z M469.2,533.4c0.1,0,0.2,0,0.3,0
		c-0.2-2.8-0.3-5.5-0.8-8.2c-0.3-1.8-1.6-3-3.5-3.1c-1.8-0.1-2.9,1.1-3.2,2.6c-2.4,11.2-1.5,22.2,3.1,32.7c0.3,0.6,1.2,1.2,1.8,1.2
		c1.1,0,1.1-1.2,1.2-2C468.5,548.8,468.9,541.1,469.2,533.4z M146.5,542C146.5,542,146.5,542,146.5,542c-0.1,4.3-0.1,8.7-0.1,13
		c0,1.2-0.7,2.9,1,3.3c1.5,0.3,2.1-1.3,2.6-2.5c4-9.3,5.4-19.1,4.7-29.2c-0.2-2.4-1.6-4.5-4.3-4.5c-2.8,0-3.7,2.3-3.8,4.5
		C146.4,531.7,146.5,536.9,146.5,542z M433.1,428c0.9-6.7-4.2-16.9-9-19.1c-1.2,1.2,0.5,2.6-0.4,4.2c-3.9-4.7-4.2-11.2-9-15.2
		c1.6,14.6,12.2,26.3,12.8,41.1c3.3-7.6,1.6-14.8-1.8-21.8C429.3,419.9,431,423.7,433.1,428z M119.3,541.8c1.5-3.1-1.4-7,0.9-8.5
		c4.6-2.9,3.3-7.5,4.6-11.3c-1.1,1.4-1.7,3.1-2.4,4.6c-0.4,1-0.6,2.4-2,2.2c-1.2-0.2-1.1-1.5-1.3-2.4c-0.8-3.5,0-7.2-2-10.8
		c-0.6,0.9-1,1.6-1.8,2.8c-0.2-3.1-0.3-5.7-0.5-9.1c-1.9,2.3-5.2,19.9-4.6,22c0.7-0.5,1.4-1,2-1.5
		C114.5,533.8,116.8,537.7,119.3,541.8z M262.1,454.8c1.1,3.6,3.6,5.4,6.3,6.3c4.4,1.6,8.9,2.7,13.2,4.9c4.7,2.4,7.3-2.1,10.2-4.6
		c1.6-1.4,1.6-3.8,1-6.2c-2.7,1.6-4.2,4.4-7.5,5.1c1.7-2.1,4.8-3,4.3-6.3C283.2,457.3,281.4,460.2,262.1,454.8z M181,492.7
		c-2.5,1.2-3.7-1.6-5.1,0c-1.3,1.4,0.3,3.2,0.8,4.7c0.7,2.1,1.7,4.2,2.6,6.2c6,1.6,6.8,7.4,9.8,11.7c4.4-9.8-1.1-16.7-6.3-23.6
		c-1.4-1.9-3.5-3.4-7-1.9C177.5,490.8,179.3,491.7,181,492.7z M246.8,353.8c-0.2,1.5-0.4,2.4-0.4,3.2c-0.4,4.7-2.9,7.6-7.4,8.5
		c-4.7,1-8.7-0.1-11-4.8c-0.7-1.4-1.2-3.4-3.3-2.5c-2.1,0.9-2.1,2.9-1.4,4.8c2.4,6.4,11,10.2,17.6,7.6
		C247.6,368.1,250.8,359.9,246.8,353.8z M424.3,284c-10.7-1-20.2,1.2-30.1,1c6.6,7.3,27.7,10.1,31.2,4c-6.3,1.3-12.4,1.8-19-1.5
		C412.8,287.5,418.4,287.6,424.3,284z M432.2,368.2c9.3,12.2,20.1,22.1,21.4,39C457.2,392.7,445.9,372.2,432.2,368.2z M245.1,541.5
		c-2.9-3.6-4.1-7.6-5.9-11c-3.8-6.9-6.7-14.2-10-21.3c-0.8-1.7-2.3-2.6-4.5-2.7c2.6,7.8,5.4,15.3,11.2,21.5
		c-1.4-0.3-2.5-0.4-3.7-0.7c0.6,2.3,4,2.2,3.8,4.4C235.5,537.6,238.6,541.4,245.1,541.5z M524.7,517.2c-0.1-4.6-1.2-8-2.8-11.1
		c-0.7-1.3-1.8-1.7-3.2-1.7c-0.9,0-1.7,0.3-1.7,1.2c-0.5,7-0.6,13.9,3.1,21.8c-0.3-4.1-0.4-6.9-0.6-9.6c0.3-0.1,0.7-0.1,1-0.2
		c1,2.7,2,5.4,3.4,9.1c1-5.1-0.9-8.8-1.4-13.6C523.4,514.7,523.8,515.5,524.7,517.2z M430.4,483.8c0.3,0.2,0.5,0.4,0.8,0.5
		c1.4-1.9,2.7-3.8,4.1-5.6c1.4-1.9,3-3.5,5.8-4.6c-1.9,5-7.4,6.8-8.3,11.9c3.1-5.5,10.6-8.3,9.9-16.9c-5.3,2-10.3,4-14.3,7.8
		c-1.4,1.3-4.7,2.9-2.6,5.4c2.1,2.4,3.2-1.4,5-1.9c0.3-0.1,0.7-0.2,1.5-0.5C431.5,481.4,431,482.6,430.4,483.8z M86.8,571.9
		c-1.1-4.5-2.3-8.5-3.2-12.5c-1.2-5.5-0.6-11.3-2.8-16.6c-0.4-0.9-0.7-2.1-2-1.8c-0.7,0.2-1.4,1.1-1.6,1.8
		C75.1,548.7,81.1,567.5,86.8,571.9z M420.9,521.3c3.2-7,0.3-11.9-4.8-16.3c-2.6,4.5-2.3,9-0.3,14.1c0.1-1.2,0.2-2,0.3-3.1
		c0.8,1.5,1.4,2.5,2.1,3.8c0.4-0.9,0.7-1.3,0.9-1.7C419.7,519.3,420.3,520.2,420.9,521.3z M447.7,521c-3.4,0.9-4.6,8.8-2.2,13.8
		c0.3-0.4,0.6-0.9,1-1.5c0.4,1.1,0.7,1.9,1.5,4.4C453.2,531.2,449.1,526.2,447.7,521z M425.2,404.8c6.8,7.1,11.1,15.4,12.8,25.9
		C441.5,421.5,434.4,407.6,425.2,404.8z M456.1,546.7c-0.5-5.3-1.1-10.7-0.2-16.1c0.2-1,0.4-2.4-1-2.7c-1.4-0.3-2,1-2.4,2.1
		c-1.4,4.9-1.5,9.8,0.2,14.8C453.3,546.6,453.9,547.4,456.1,546.7z M499.2,552c0.1-0.3,0.2-0.6,0.3-0.9c-1.5-0.7-3-1.3-4.4-2
		c-3.2-1.4-6.5,1.5-9.8-0.5c-3.5-2.2-5.8-0.6-7.3,3.3C485.2,552,492.2,552,499.2,552z M231.5,358.5c2.5-0.5,4.9-2,5.3-5.3
		c0.2-2-0.7-3.8-3.1-3.8c-3.7,0-5.5,2.2-5.9,5.7C227.5,357.4,228.8,358.3,231.5,358.5z M200.3,377.4c-6.3-1.6-14.7,5.4-14.7,12.3
		C190.6,385.5,195.2,381.6,200.3,377.4z M380.3,291.9c3.5,4.8,18.1,13.1,21.5,12.3C394.7,299.9,389,293.8,380.3,291.9z M129.8,539.7
		c1-4.1,2.2-8.1-0.4-13c-2.6,6.7-4.3,12.6-5.4,20.4c3.5-4.6,4-8.8,5.9-13.9C129.8,536.3,129.8,538,129.8,539.7z M335.7,458.8
		c-10.1,1.1-19.8,4.1-24.5-8.2c0.5,6.3,4.3,9.2,9.2,10.6C325.4,462.7,330.5,462.9,335.7,458.8z M241.8,521.8
		c-5.6-6.6-5.3-16.2-11.1-22.7C234,506.9,233.8,516.3,241.8,521.8z M341,499.2c0.1,1.1,0.1,2.1,0.2,3.4c3.9-0.3,7-1.9,9.7-4.1
		c1.6-1.3,0.3-2.8-0.8-3.7c-1.2-1.1-2.3-3.4-4.3-2.1c-1.7,1.1,0.2,2.4,0.8,3.5c0.4,0.8,1.3,1.6,0.4,2.8c-0.8-0.3-1.7-0.6-2.6-0.9
		c-0.3,1.1,0.8,2.5-0.7,3C342.1,501.7,342.4,499.4,341,499.2z M218.7,486c-0.9,7,5.1,19,9.1,19.6C224.9,499.4,222.2,493.5,218.7,486
		z M341.4,533.3c2.8-6.7,5.7-13.4,8.9-21.1C346.3,515.6,342,525.7,341.4,533.3z M138.3,554.3c-1.1-2.7-1.7-5.2-3.8-5.2
		c-2.7,0-4.6,2.1-7.2,4.6C131.2,553.9,134.4,554.1,138.3,554.3z M418.2,338.2c2.8,4.3,11.6,6.6,15.8,4.4
		C428.8,341.2,423.8,339.8,418.2,338.2z M227.1,372.7c-4.7-2.8-7.1-7.4-9.2-12.5C215.6,364.8,220.8,371.7,227.1,372.7z M251.8,571.6
		c0.9,2,2.9,1.9,4.3,3c-1.1,0.2-1.9,0.4-3.8,0.7c3.4,1.5,5.9,2.5,8.9,3.8C256.2,571.1,255.2,570.3,251.8,571.6z M442.4,480
		c-5.3,4.4-7.1,10.7-8.9,16.9C437.2,491.7,438.6,485.2,442.4,480z M445.1,347.2c-4.4-1.9-8.8-3.7-13.7,0.9
		C436.6,347.8,440.9,347.5,445.1,347.2z M371.4,363.8c-2.7,5.7-6.6,8.5-11.6,11.3C366.2,375.3,371.4,370.4,371.4,363.8z
		 M243.6,519.1c1.1-3.3,1.4-5.8-0.6-7.9c-0.8-0.9-2.1,0-2.4,0.9C239.5,515,241.7,516.6,243.6,519.1z M243.2,525.2
		c3,4.8,5.9,9.6,8.9,14.5C251,533.7,247.4,529.3,243.2,525.2z M349.3,486.8c1.3,3.1,2.7,6,6.9,7.4
		C355.2,489.9,352.1,488.5,349.3,486.8z M240.3,542c0.8,4.2,3,5.3,6.6,4.8C246.3,543,243.6,542.6,240.3,542z M72.6,539.7
		c-1.9,3.1-1.5,6.2,0,9.2C72.6,545.9,72.6,542.8,72.6,539.7z"/>
	<path d="M295.9,349.2c0-9.9,0-18.7,0-28.1C299.2,325,299.3,343.4,295.9,349.2z"/>
	<path d="M283.8,276.6c-1,3.1,2.3,5.4,1.6,9.5c-3.4-5.7-5.8-11.1-9.3-15.8C278.7,272.4,281.2,274.5,283.8,276.6
		C283.8,276.6,283.8,276.6,283.8,276.6z"/>
	<path d="M140.2,377.1c3.7-6.9,7.4-11.8,14.2-14.6C150.4,368.2,145.3,371.7,140.2,377.1z"/>
</g>
</svg>
