<?xml version="1.0" encoding="utf-8"?>
<!-- Generator: Adobe Illustrator 24.2.3, SVG Export Plug-In . SVG Version: 6.00 Build 0)  -->
<svg version="1.1" id="Layer_1" xmlns="http://www.w3.org/2000/svg" xmlns:xlink="http://www.w3.org/1999/xlink" x="0px" y="0px"
	 viewBox="0 0 595.3 841.9" style="enable-background:new 0 0 595.3 841.9; fill: #215342;" xml:space="preserve"
	 >
<g>
	<path d="M466.4,419.8c-1.1-1.2-2.2-2.4-3-3.3c-2.4,8.1-5.5,16.4-2.8,25.4c-0.7-0.9-1.4-1.7-2.5-3.1c0.6,3,1.1,5.3,1.6,7.7
		c-0.2,0.1-0.4,0.1-0.6,0.2c-0.5-1.1-1-2.1-1.6-3.3c-1.5,1.6-0.3,3.3-0.9,5.1c-0.5-0.7-1-1.2-1.5-1.8c-0.3,1.1-0.6,2.1-1,3.4
		c-3-7.8-5.9-15.3-8.9-22.7c-1-2.3,1.7-3.1,1.5-5.4c-0.9-9.2-1.2-18.4-1.8-27.7c-0.1-2-0.2-3.8,2.3-4c-0.2-5.4-1-10.5,0.2-16.5
		c0.5,1.8,0.8,2.9,1.5,5.2c-0.4-5-0.8-8.8-1.1-12.6c0.3-0.1,0.6-0.1,0.8-0.2c1,2.7,2,5.5,3.4,9.3c0.6-14.3-2.2-27.2-3.1-41
		c1.3,1.8,2.2,3,2.9,4c-3.7-13.8-7.5-27.8-11.7-43.6c-5-2.8-9.4-10.9-19.6-11c4.8,3.8,9,7.2,13.3,10.5c-0.2,0.3-0.3,0.5-0.5,0.8
		c-1.6-0.9-3.3-1.7-6.2-3.3c6.8,7.5,11.2,14.8,12.1,23.9c-2.1-2.5-4.3-5-6.4-7.4c2,5.7,5.8,10.2,7.6,15.8c0.3,1,1.5,2,0.5,3.1
		c-1.1,1.3-2.2,0.2-4.6-1.6c4.2,9.5,9.2,16.9,11,26.8c-3.8-6.7-7.1-12.4-10.3-18.1c-0.3,0.1-0.5,0.3-0.8,0.4
		c2.2,5.6,4.5,11.2,6.7,16.7c-0.2,0.1-0.5,0.3-0.7,0.4c-1.9-3.1-3.9-6.2-5.8-9.3c-0.6,0.2-1.2,0.3-1.8,0.5
		c4.2,13.1,10.3,25.8,9.1,40c-1-0.5-2-1.1-3.3-1.9c0.4,2,0.8,3.7,1.3,6.1c-1.1-0.9-1.7-1.4-3-2.5c1.6,4.3,2.9,7.7,4.2,11.2
		c-0.2,0.1-0.3,0.2-0.5,0.2c-1.1-1.8-2.2-3.6-4.3-7c2.1,5.8,5.3,9.4,5.1,15.1c-1.6-2-2.6-3.2-4-5.1c1.9,4.1,4.1,7.4,4.3,12
		c-1.5-2.2-2.6-3.8-4.4-6.4c1.3,4.9,4,8,4,13.1c-1.4-1.6-2.2-2.4-3.5-3.9c1.1,3.6,2,6.5,3.1,10.1c-1.2-0.7-1.8-1-2.6-1.4
		c1.2,3.9,2.4,7.7,3.6,11.6c-0.2,0.1-0.4,0.2-0.6,0.4c-0.9-1.3-1.9-2.7-3.7-5.3c1.8,5.4,3.1,9.3,4.9,14.5c-1.6-1.8-2.2-2.5-4-4.4
		c2.1,4.4,3.6,7.5,6.1,12.5c-2.6-2.5-3.6-3.4-5.2-5c1.5,4.1,2.8,7.5,4.9,12.9c-2.2-2.4-3-3.3-5.2-5.8c3.1,6.5,2.6,11.8,5.2,16.7
		c0.2-2.4,0.4-4.8,0.7-7.8c0.6,2.3,1,4.1,1.6,6.4c4.2-5.1,1.8-11.2,3.6-16.9c1.6,2.2,2.9,3.9,4.1,5.7c0.1-1.7,0.2-3.5,0.3-5.3
		c3,8,2.9,16.1,1.6,25.8c10.8-12.5,4.6-26.1,5.7-39.7c4.3,8.6,6.3,16.7,7.3,27.1c2.1-6.9,3.6-11.9,5.3-17.5c0.6,1.1,0.9,1.6,1.4,2.5
		c1.5-5.2,2.9-10,4.4-15.3c2.3,3.1,0.7,6.2,1.5,9c1.2-4.5,1.4-9,1.2-13.8c4.1,3.6,5.1,16.5,2.1,26.1c-2.7,8.5-5.6,16.8-8,25.4
		c3.6-5.7,3.9-12.8,8.5-19c-0.2,1.7-0.2,2.5-0.4,4.4c9.8-10.2,8.1-22.1,7.6-34.4c3.7,5.8,1.8,11.7,3,18.5c2.5-8.8,0-16.2-0.8-25
		c4.2,7.1,5.6,13.7,6.9,21.2c0.4-13-5.4-23.1-11.5-33.3c2.6-0.2,3.6,2,6.4,3.2c-2.6-4.3-4.7-7.7-7.5-12.3c9.7,5,13.8,12.9,18.2,21.3
		c-0.8-7.3-4.1-13-7-18.9c7.5,6,10.4,14.2,12,23.2c-1.2-11-4.4-21.3-11.7-30.2c3.1,1.1,4.3,2.4,10.4,11c-0.4-5.5-5.4-12.9-12.9-19.3
		c-6-5.1-12.1-10.1-16.2-17.7c12.4,2.6,21.5,9.7,30.1,17.6c-1.6-0.9-3.2-1.8-4.9-2.7c10.1,9.9,16.3,21.5,16.6,37.1
		c-1.1-2-1.7-3-2.2-3.9c4.3,10.7,4.9,21.4-0.5,33.8c1.2-7.4,1.2-13.1,0.3-18.8c-0.3,10.2-3.9,19.4-9.2,30.4
		c0.8-4.3,1.2-6.5,1.9-10.8c-2.1,5.2-3.4,8.6-5.5,13.7c1-4.7,1.6-7.6,2.2-10.4c-0.2-0.1-0.4-0.1-0.6-0.2c-2.9,6.8-5.8,13.7-8.7,20.5
		c-0.2-0.1-0.3-0.1-0.5-0.2c0.6-2.1,1.1-4.1,1.7-6.2c-0.3-0.1-0.6-0.2-1-0.3c-2.5,7.3-5,14.6-7.9,23c15.5-8.9,27.5-4.7,37.3,7.8
		c3-3.2,3.3,1.7,5.3,1.5c0.2-0.6,0.5-1.4,0.7-2.1c3.6,0.8,7.3,1.2,9.6,4.7c-0.4-1.4-0.9-2.9-1.8-6c4.8,6.5,9.2,11.2,8.7,18.4
		c-2.4-0.3-3-2.4-4.8-3.9c2.7,8.8,6.1,17,6.9,27.4c-2.3-5.3-2.7-9.9-5.9-13.4c3.5,10.9,6.8,21.8,6.9,33.9c2.4-2.3,2.3-2.3,3.4-11.8
		c0.6-5.4,1.9-10.4,7.3-13.7c2.2-1.3,2.8,0.9,4.5,0.5c-0.6-2.6-1.2-5.2-2.2-9.7c1.5,3.5,2.2,5.3,3.8,9c-1.6-10.1-4.8-17.2-10.1-23.4
		c2.9,2.3,5.8,4.7,8.8,7.2c0.9-2.5-2.8-4-0.4-6.6c4.3,4.5,7.1,9.6,8.4,15.8c-0.4-0.6-0.7-1.1-1.8-2.7c0.8,4.1,1.4,7.1,2.2,10.9
		c-0.8-1.2-1.2-1.8-1.6-2.3c-0.4,6.4-3.3,12.6-0.6,20.1c-1.2-1.3-1.6-1.7-1.8-2c-1.4,9.6-1.4,19.6-4.4,29.2
		c-0.8,2.4-1.9,4.8-3.1,7.1c-0.9,1.7-2.2,3.3-4.4,2.6c-2.1-0.6-2.1-2.7-2.2-4.4c-0.3-6.6-0.4-13.3-0.7-19.9c0-0.9-0.4-1.7-1.2-2.5
		c0.1,2.2,0.2,4.3,0.4,7.2c-2-2.6-2.4-5.4-5.5-6.6c0.4,1.4,0.7,2.7,1,4.3c-1.6-1.1-0.6-4.5-3.7-3.7c-1.5,0.4,0.1,1.8-0.9,2.4
		c-1.2-2.1-2.3-4.1-3.7-6.7c0.1,1.9,0.2,3.2,0.4,6.3c-1.1-4.6-2.3-7.2-4.8-10.4c1.4,4.2,2.4,7.4,3.5,10.9c-1.9-1.5-3.4-2.7-5.2-4.1
		c-0.2,0.8-0.4,1.3-0.4,1.8c-1.9,11.6-3.5,23.2-8.3,34c-1,2.2-2,5.1-5.2,4.5c-3-0.6-2.9-3.6-2.9-5.9c-0.2-7.5-0.1-14.9-0.1-24.8
		c-0.9,7.4-5.5,3.9-8.1,5.6c-1.4-4.2-5.9-4.3-9.9-6.5c0.5,1.9,0.8,3.2,1.2,4.6c-1.1-4.7-5.1-7-8.7-10.5c0.8,2.4,1.4,4.2,2.4,7.4
		c-2.3-4.2-4-7.3-6.2-11.2c0.1,2.6,0.2,4,0.4,6.6c-2-4.6-2.3-8.8-5.1-12c-1.7,2.4,0.9,5-0.1,7.2c-0.8-4-1.6-8.1-2.4-12.3
		c-0.3,0-0.6,0.1-0.9,0.1c0.4,4.7,0.8,9.4,1.3,14.7c-0.7-0.7-1-1-1.4-1.3c-0.7,7.1-1.6,14-4.8,20.3c-1.3,2.5-3,5.2-6.4,4.4
		c-3.3-0.8-3.5-3.9-3.2-6.6c1.2-13.3-0.7-26.3-2.7-39.4c-1.1-7.6,2.7-12.5,8.6-12.4c2.8,0.1,4.5,1.9,6.9,4.6
		c-1.3-9.2-5-16.2-9.7-22.7c-0.4-0.8-0.8-1.7-1.3-2.5c-0.9-1.9-1.8-3.8-3-6.5c5.6,3.9,8.5,9.1,12,13.8c-3.2-7.2-6.6-14.2-13.4-18.9
		c-4.9-3.3-10-2.9-15.1-0.6c-11.3,5-21.9,23-20.9,36.1c0.7-1.9,1.2-3.4,1.9-5.6c0.2,1.6,0.3,2.4,0.5,3.2c0.4-3.2,3.6-4.6,4.7-8.6
		c0.1,2.9,0.2,4.6,0.3,7c1.5-3.4-0.1-7.8,4.8-8.2c0,0.7,0.1,1.8,0.3,4.3c0.4-2.3,0.5-3.3,0.9-5.6c0.5,4.6,0.9,7.9,1.2,11.3
		c0.3-4.2-0.1-8.4,1.2-13.1c0.9,6.9,1.7,13.2,2.5,19.6c1.2-7.2-2.2-14.2,0.8-21.4c0,4.9-1.4,10.4,0.4,14.4c2,4.3,2,9.1,4.7,14.1
		c0-2.7,0-4.4,0-7.4c2.8,4.8,3.5,9.5,6.7,13.1c-0.5-5.5-1-10.7-1.5-15.9c1.9,10.7,6.5,20.9,5.8,33.5c-3.9-4.9-6.8-8.5-10.9-13.6
		c0.8,3.7,1.2,5.5,1.7,7.6c-1.7-2.9-3.3-5.5-4.9-8.1c-0.2,0.1-0.3,0.2-0.5,0.3c0.7,1.7,1.5,3.5,2.2,5.2c-0.1,0.1-0.2,0.1-0.3,0.2
		c-1.5-2.6-3-5.1-4.5-7.7c-0.2,0.1-0.4,0.2-0.6,0.3c0.4,1.5,0.9,3.1,1.9,6.7c-2.6-5.7-4.3-9.5-7.9-13.6c1.4,3.5,2.4,5.8,3.4,8.1
		c-0.3,0.3-0.5,0.5-0.8,0.8c0-0.4,0-0.8-0.1-1.2c-2.3-9.1-8.5-10.3-17-10.1c-22,0.6-44.1,0.2-66.7,0.2c1.7,3.8,3.6,7.3,2.7,11.5
		c-1.9-3-3.6-5.9-5.4-8.7c-0.2,0.1-0.5,0.2-0.7,0.3c1.4,5.3,2.8,10.6,4,16c1.3,5.5,1.4,11-1.6,16.7c-0.9-5.2-1.7-9.9-5-15.1
		c2.3,10.1,1.9,18.7-2.7,27.6c-0.6-5.4,1.3-10.1-1-16.1c-2.2,11.4-6.5,20.4-17.7,26.6c4.1-5.2,7.2-9,7.9-15.1
		c-6.6,12.7-15.5,21.7-27.1,28.1c4.7-4.5,9.2-9.2,13.6-15c-7.9,6.5-15.1,12.5-22.3,18.5c3.9-4.3,7.5-8.7,11.2-13
		c3.6-4.3,9.1-8,6-16.1c-1,2.8-1.6,4.7-2.3,6.5c-2.2-5.4-4.1,5.5-6.7-1.4c1,7.5-4.9,7-7.7,11.2c0-0.4,0,0.5,0.2,2.2
		c-0.9-1.5-1.4-2.5-2.1-3.6c-0.5,0.5-0.9,1-1.5,1.6c-0.5-0.8-0.9-1.5-2.2-3.6c1,4.4,1.6,7.3,2.5,11.5c-3.6-2.9-2.7-6.5-4.6-9
		c-1.1,0.8-2.4,1.3-2,3.1c0.3,1.4,0.8,2.8,0,4.1c-3.6,0.1-2.8-4.7-5.9-5c0,7,6.5,11.3,7.6,18.3c-7.3-6.2-8.9-14.7-11.2-22.9
		c-1.7,3-0.5,6,0.3,9.8c-3-3.7-4.3-7-4.3-11.5c-0.8,0.9-1.2,1.4-1.8,2.1c-0.4-1.8-0.8-3.2-1.3-5.3c-1.2,2.9,0.8,5.7-1.5,8.3
		c-0.5-3.1-0.9-5.8-1.4-9.1c-0.6,1.3-1.1,2.2-1.7,3.6c0-1.9,0-3.3,0-4.9c-6.1,6.6-0.9,13,0.1,19.5c-2.3-1.8-4.4-5.6-6.3-10.4
		c-1.6-3.9-0.7-8.2-1.7-13c-4.1,8.8-0.4,15.5,3.5,22.2c-9-2.9-13.9-16.7-10.5-29.4c-2.2,4-5.1,7.8-4.1,13c-1.8-4.3,0.4-8.6,0.3-14.1
		c-5.3,9.4-6.3,18.1-3.3,27.4c-5.7-6.1-6.8-13.3-5.4-21.3c-2.8,3.1-3.2,7-1.5,14.2c-7,0-9.4-6.7-7.5-21.8c-2.9,4.1-4.7,8-4.1,14.8
		c-3-7.2-1.5-12.5-0.3-17.6c1.2-5.2,4.9-9.1,7.1-13.9c-5.2,4.8-8.6,10.6-11,19.3c0-3.8,0-5.7,0-9c-2.3,5-1.4,8.6-0.3,12.2
		c-11.7-4.5-3.9-40.5,8-50.7c-3.1,6.6-5.5,11.8-8.2,17.5c1.3-1,2.1-1.6,4-3c-2,4.5-3.6,8-5,11.5c-1.4,3.6-2.6,7.3-2,12.1
		c2.5-4.8,3.4-9.7,7.6-13.8c-1.4,3.5-2.5,6.1-4,10c3.7-3.5,6.4-6.1,9.3-8.8c-2.7-1.2,2.5-5.6-1.9-5.9c-1.2-14.6,3.5-27.8,8.2-41
		c-4.2,2-11.1,10.9-13.8,20.2c-2,6.6-5.4,8.1-11.8,8c-24.1-0.5-48.3-0.5-72.4-0.7c-4.9,0-10.8-1.8-12.5,5.6c0.1-0.9,0.3-1.8,0.6-4
		c-1.6,3-2.5,4.8-3.4,6.5c-0.2-0.1-0.3-0.1-0.5-0.2c0.4-1.2,0.8-2.4,1.6-4.7c-4,3-4.3,7.1-6.8,11.1c0.9-2.9,1.4-4.8,2.2-7.4
		c-8.7,8-12.6,17.8-16.5,29.6c-0.4-4.3-0.6-6.9-1.1-11.4c-0.8,6.8-1.4,11.8-2.1,16.8c-0.3,2-0.7,4-3.2,4.3c-2.5,0.3-3.9-1.1-4.9-3.1
		c-3.8-7.4-4.1-15.3-4-23.4c0-1.2,0.2-2.5,0.3-4.1c-3.4,3.7-2.5,8.5-5.1,13.3c0.6-3,1-4.8,1.4-6.7c-0.2-0.1-0.3-0.1-0.5-0.2
		c-1.4,3.1-2.8,6.2-4.4,9.7c0.1-1.1,0.1-1.9,0.2-3.3c-1.3,1.7-2.3,3-3.8,4.9c0-2,0-3.2,0-5.1c-0.9,1.2-1.4,1.9-2.3,3.2
		c0.5-1.8,0.8-3.1,1.7-6.4c-2.6,4.2-4.1,6.6-6.5,10.5c1.1-4.4,1.7-7.1,2.4-9.8c1.2-4.1,2.4-8.2,3.6-12.3c2.2-3.4,1.3-7.4,1.7-11.6
		c0.5,1.2,0.8,2,1.8,4.7c0-5.9,0-9.7,0-13.6c0.2,0,0.4,0,0.6-0.1c0.7,2.7,1.4,5.3,2.2,8.4c0-5.7,0-11,0-17.7
		c1.6,9.3,1.5,17.4,1.8,25.4c0.7-9.2,0.8-18.4-0.6-27.6c-0.3-1.7-1.5-4.3,1.7-5.4c0.5,1.7,0.9,3.1,1.7,6c-0.2-4-0.4-6.5-0.5-9.2
		c0.6,0.8,1,1.4,1.7,2.4c-0.4-3.2-0.8-5.8-1.3-9.9c0.9,2.6,1.3,3.8,2.1,6.3c-0.3-3.2-0.5-5.1-0.7-7.5c0.7,0.9,1.1,1.4,2,2.5
		c0-2.1,0-3.4,0-5.1c0.7,0.8,1.1,1.3,2.3,2.6c-0.8-2.7-0.5-4.6-2-5.9c-4.6-4.2-26.8-4.5-30.9,1.9c-6.5,10.1-11.5,20.8-14.1,33.8
		c2.9-4.8,4.7-9,9-12.2c-7.3,15.1-10.9,27.1-9.6,31.7c2.5-2.6,5.1-4.7,9-3.3c10.2,3.5,6.5,11.7,5.6,19.5c4.7-2.3,5.3-6.8,8.5-9.8
		c0.1,1.8,0.2,3.2,0.3,5.9c1.6-5.5,2.9-9.6,4.4-14.8c0.8,5.5,0,9.7-1.4,13.8c-0.1,0.3-1.6,1.5,0.4,1.2c-1.4,5.2-7.8,6.7-8.7,12.9
		c-0.3-1.3-0.5-1.8-0.9-3.2c-1.1,4.2-1.9,7.6-3.1,12.5c-0.5-2.7-0.8-4.1-1-5.4c-0.1,0-0.3,0-0.4,0c0,3.9,0,7.7,0,11.6
		c0,2.5-0.6,4.6-3.3,5.4c-2.7,0.8-4.7-0.5-6.1-2.6c-4-6-5-12.9-5.4-19.9c-0.3-5.3-0.1-10.7-0.1-16.9c-1.4,2.8-2.3,4.8-3.4,7.1
		c-1.1-4.7-0.2-9.1,0.3-15.3c-3.9,11.4-13.1,18.1-14.8,28.7c0.5-2.7,1-5.3,1.6-8.2c-3.2,1.8-3,5.1-4.4,9.4c0.4-3.8,0.6-5.9,0.8-8
		c-0.3,0-0.5,0-0.8-0.1c-0.2,2.5-0.5,5-0.6,7.5c-0.1,2.5-0.6,4.7-3.3,5.4c-2.9,0.7-4.5-1.3-5.4-3.6c-3-7.6-2.7-15.5-2.2-23.4
		c0.1-1,0.2-1.9-0.1-3c-0.2,0.5-0.3,1-0.5,1.5c-1.1-3.5-0.8-6.9-0.3-10.5c-1.2,3.2-2.3,6.5-3.5,9.7c-0.9-6.9,0.7-13.4,1.7-20.2
		c-1,1.4-1.9,2.9-3.5,5.3c3.6-13,8.4-24.1,15.5-35.6c-2.2,2.4-3.6,3.8-5.9,6.3c7-21.5,26.7-28.5,45.2-17.4c13-8.2,28.4-5.9,42,6.6
		c4.3-4.5,9.5-7.2,16.3-7.4c-4.5-9.2-8.8-18-12.4-27.2c0.6,3.9,1.2,7.7,1.9,12.6c-4.6-7.5-7.2-14.8-9.2-24.3
		c-0.3,3.2-0.4,4.5-0.6,7.2c-3-12.7-3.6-24.1-0.1-35.8c-2.6,3.1-5.4,12.3-6.8,22c-2-15,1.2-27.6,7.7-39.1
		c6.4-11.3,12.7-22.7,16.2-34.9c-1,0.9-2.5,2.3-4.7,4.3c2.5-7.1,7.2-11.4,11.4-16.5c-3.7,1.4-7.4,2.8-12.2,4.6
		c8.3-6.2,15.9-11,26.5-15c-6.9,9.5-12.5,17.4-18.2,25.2c0.2,0.2,0.4,0.3,0.6,0.5c2.3-1.8,4.6-3.5,6.8-5.3c0.2,0.2,0.5,0.4,0.7,0.6
		c-1.9,2.8-3.9,5.6-6.6,9.5c2.9-2.1,4.7-3.5,6.5-4.9c0.3,0.2,0.6,0.5,0.8,0.7c-6.8,8.6-13.6,17.1-20.4,25.7
		c5.8-4.1,10.6-9.3,17.3-12.1c-11.7,12.6-19,27.1-20.8,45.8c1.2-2.6,1.8-3.9,3-6.6c-0.7,11.4-0.5,21.2,2.9,30.6
		c-1.1-14.9-4.2-29.9,5.1-45.8c-3.2,12.7-4,23.5-3,36c0.1-2.5,0.2-3.5,0.3-5.4c2.4,4.7,4.4,8.6,6.4,12.5c0.3-0.1,0.5-0.2,0.8-0.3
		c-0.3-1.9-0.6-3.7-1.2-7.4c4,7.8,6.1,14.6,10.3,20.5c0.5-0.5,1-1.1,2-2.1c3.5,7.2,6.8,14.1,10.2,21.1c-1.5-7.9-2-16.1-6.5-23.6
		c1.2,0.2,1.7,0.3,2.5,0.4c-5.3-12.9-13.2-24.4-14.8-39.6c3.7,6.8,7.6,12.1,9.6,18.6c-0.6-3-1.2-5.9-2.1-10.7
		c6.5,11.1,12,20.6,17.5,30.2c-0.3-7.9-4.3-14.4-6.6-21.6c1.8,2.3,3.5,4.6,5.3,7c0.2-0.1,0.4-0.2,0.6-0.3c-2.1-3.8-4.2-7.6-6.2-11.5
		c-2.1-4.1-4.2-8.1-5.8-12.4c-1.6-4.2-1.6-8.7,0-13.1c0.4,4.4,0.2,8.9,2.1,14.3c-0.4-4.2-0.6-7.3-0.9-10.3
		c3.7,9.5,6.6,19.3,13.2,28.7c-5-16-7-31.3-6.2-47c0.2,0.8,0.4,1.6,0.7,2.5c0.2,0,0.5,0,0.7,0c0.4-8.2,0.9-16.4,1.4-25.9
		c-1.1,2.3-1.6,3.5-2.1,4.7c0.2-3.1,0-6-0.6-8.9c-0.4,0.3-0.8,0.7-1.6,1.3c0.2-2.3,0.4-4,0.8-7.4c-3.1,5.9-5.1,10.6-9,15.3
		c3.1-8.3,5.8-15.7,8.5-23.2c-0.3-0.2-0.7-0.3-1-0.5c-2,3.8-4,7.6-5.9,11.4c1.7-9.6,7.7-17.8,8.3-27.6c-6.2,3.9-11.3,9.9-18.1,13.7
		c-6.9,3.9-14.3,5.7-22.2,6.2c3.8-1.6,7.9-2.6,12.3-5.6c-3.8,0.9-6.6,1.5-9.3,2.1c15-7,30.1-13.6,38.9-29.1
		c-2.7-0.5-2.7-0.5-7.6,3.8c1.9-2.3,3.7-4.6,6.8-8.3c-3.3,2.3-5.1,3.6-8.3,5.9c7.9-10.7,16.4-19,21.3-30.7c-2.8,2.1-4.9,3.7-7.1,5.4
		c0.3-0.6,0.6-1.2,1.5-2.8c-2.2,1.8-3.6,3-6.1,5.1c4.9-8.6,11.4-13.8,17.6-19.4c-4.4-0.5-14.8,4.5-22.2,10.9
		c4.2-6.2,8.8-10.1,14.1-13.1c5.2-2.9,10.5-5.4,15.6-8.4c-9.5,0.8-18.1,4.3-27.7,9.6c8.1-9.2,17.7-12.2,27.2-15.8
		c-4.6,0.2-9.1,0.5-15.7,0.8c6.3-1.8,10.7-3,15.1-4.2c-8.7,0.7-16.9-0.1-24.8-6.3c5.4,1.5,9.6,3.9,16.4,4c-8-2.7-13.6-5.9-18.9-11.4
		c12,5.6,23.3,9.2,36.6,5.9c-2.5-0.6-4.2-0.9-6.6-1.5c11.5-1.9,21.4-6.2,31.3-13c-5.1-0.3-9.3-0.5-13.5-0.7c0-0.1,0-0.2,0-0.4
		c2.6-0.2,5.2-0.3,7.8-0.5c0-0.3,0-0.6,0-0.8c-0.8-0.2-1.7-0.4-3-0.7c16.6-1.8,30.9-9.2,45.4-15.7c-0.8,0-1.7-0.1-3.4-0.2
		c10.2-5.2,19.8-9.2,30.5-3.6c2.8,2.9,5.7,5.8,8.5,8.6c0.1,0.6,0.1,1.2,0.2,2.3c-7.5-5.9-15.4-9.6-24.9-9c6.7,1.2,13,3.3,18.3,8.1
		c-12.5-5.5-24.8-3.2-37.9,0.4c2.9,0,5,0,7.8,0c-6.8,4.5-14.4,4.8-22,8.2c7.6-0.7,14.3-0.1,20.9,1.1l-0.1-0.1
		c-1.4,1.5-3.2,1.1-4.7,0.7c-7.2-1.8-13.9-0.5-20.6,2.5c-5.6,2.6-11.4,4.8-18.3,7.6c3-0.5,4.9-0.8,8.6-1.4c-3.7,2-5.7,3.1-9.4,5.1
		c6.8-1.8,11.8-3.1,16.9-4.5c0,0-0.1,0-0.1,0c2.8,1.6,5.8-0.4,9.8,0.7c-4.2,1-7,2.3-9.1,4.9c6.5-0.5,13.1-1.4,20.2,2.9
		c-5.7,0-10.3,0-16.5,0c4.5,1.1,7.2,1.8,11.8,2.9c-8.6,0.4-15.3-0.2-21.9,1.3c-6.8,1.5-11.8,5.5-15.9,10.9c1.4-1.1,2.8-2.3,4.4-3.6
		c0.6,2.8,1.9,1.9,3.4,1c7.5-4,15.3-7,25.2-5.9c-1.7,0.7-2.3,1-2.9,1.2c-0.6,0.2-1.2,0.2-2.1,0.3c0.6,0.3,1,0.5,1.6,0.9
		c-15.8,4.7-32.2,8.4-35.5,28.7c2.4-2.1,4.6-4,8.3-7.1c-2.7,6-4.7,10.4-6.8,15c2.7-0.6,4.7-5.9,7.1-1.1c0.6,1.2-2.8,4.3-5.1,7.7
		c2.3-1.3,3.3-1.9,5.1-3c-1.1,2-1.7,3.1-2.7,4.8c1.3-1.1,2.2-1.9,4.6-3.9c-6.3,8.2-4.6,17-8.9,24c4-5.7,10.2-9.2,15.2-15.5
		c-1.9,0.9-2.9,1.3-3.8,1.7c-1.4-1.8,4.2-3.5,0-5.9c1.7-1.5,3.7-3.2,6.3-5.4c-2.7,0.5-4.8,0.8-7.4,1.3c4-3.5,8.8-4.3,13.8-7.1
		c-4.5-0.8-7.5,1.1-12.4,1.8c7-3.4,12.9-4.1,19.2-5c-5-1.3-9.5-1.4-14.1-0.1c6.3-3.6,13.3-3,20.2-3.5c-6.4,0-12.8,0-19.3,0
		c3.9-1.9,7.7-3.5,11.5-5.7c-1.6-0.2-3.1-0.3-5.5-0.6c2.4-0.6,3.8-1,5.3-1.4c-0.2-0.9-0.4-1.7-0.6-2.8c2.9,0,5.8,0,10.1,0
		c-3-0.7-4.5-1-8.3-1.8c4.3,0,6.5,0,8.7,0c0-0.2,0-0.3,0-0.5c-2.8-0.4-5.7-0.8-8.5-1.3c0-0.3,0-0.5-0.1-0.8c2.5-0.3,5-0.7,7.9-1.1
		c-6-2.4-12-3-18.2-2.4c8.7-3.6,17.4-2.1,26.4,0c-2.9-2.8-7.5-4.6-14.3-5.5c3.6-2,9-1.1,21.9,3.8c-3.6-4.2-8.3-4.9-14.4-7.3
		c9.7,0.2,16.3,2.9,22.8,8.6c-2.2-5.4-5.7-8.5-8.8-12.6c6,0.6,8.1,5.4,12,8.5c-1.9-6.4-6.5-10.3-11.1-14.7
		c9.6,1.7,18.4,16.2,20,33.2c1.4-3.4,2.5-5.8,4.1-9.7c-0.4,3.1-0.6,4.7-0.8,6.3c0.2,0,0.3,0.1,0.5,0.1c0.4-1.8,0.8-3.5,1.3-5.5
		c1.8,1.5,0.9,3.5,1.6,6.5c0.3-3.9,0.6-6.5,0.9-10.4c3.3,9.2,0.6,15.7-4.8,22c9.5-5.7,9.7-15.8,1.1-29.5
		c10.9,3.1,10.2,19.7-1.7,34.3c0.7-0.1,1.2-0.1,2.8-0.3c-2.9,2.5-5.1,4.5-7.4,6.5c2.6,2,4.9,2.8,6.8-0.5c1.3-2.3,0.8-5.7,4.2-7.1
		c0,2.7,0,5.3,0,7.8c0.2,0,0.3,0,0.5,0.1c0.3-2.6,0.6-5.2,1-7.8c1.3,3.8,1.4,7.4-0.8,11.1c-0.7-0.6-1.2-1.1-1.8-1.6
		c-1.8,3.9-10.1,15-12.2,16.3c2.6,0.5,5.1,0.5,7.2,2.3c-3.8,0.2-7.5,0.4-11.2,0.6c0,0.4,0,0.7-0.1,1.1c3.3,0.3,6.6,0.7,10.3,1.1
		c-3.9,3.1-8.2,1.7-12.5,3.2c3.1,0,5.6,0,8.1,0c-4.9,1.3-9.9,1.9-15.4,5c5.7,0.2,10.5,0,16.1,2c-9.5-0.3-17.9,0-25.6,3.9
		c-7.9,3.9-10.2,12.8-16.7,19.7c1.3-5.8,4.2-9.1,7.2-12.4c0.9-1.1,3.1-1.9,1.6-4c-1,0.3-2,0.7-3,1c-0.1-0.5-0.3-1-0.8-3.3
		c-1.3,2.4-2,3.7-3.5,6.5c0.3-2.6,0.4-3.3,0.5-4.1c-3.6,1-5.2,4-8.2,6.2c0.6-1.7,1-2.8,2.2-6c-4.3,4-7.1,6.6-11.2,10.4
		c4.5-7.6,8.1-13.7,12-20.3c-1.5,0.4-2.6,0.7-5.3,1.4c4.2-2.3,6.9-3.8,10.2-5.6c-10.1-0.8-13.8,7.5-20.6,12c1.7-5.2,6-7.3,10.3-11.2
		c-2.8,1.3-4.4,2-6.2,2.8c0.5-1.6,1.6-3.3-1.2-3c-6.4,0.8-19.8,14.4-21,21.4c3.3-2.9,5.6-6.6,10.3-8.8c-3.4,5.8-6.3,10.9-9.3,16.1
		c0.2,0.1,0.4,0.2,0.6,0.3c1.2-1.7,2.4-3.5,3.6-5.2c0.2,0.1,0.4,0.2,0.6,0.3c-1.4,3.5-2.9,7-4.8,11.8c4-3.3,6.8-5.6,11.2-9.2
		c-2.3,2.7-1.4,3.1-0.5,3.3c-2.8,4.3-5.5,8.5-8.2,12.7c9.4-10.6,10.9-11.8,15.5-11.3c-10.3,7.4-16.6,16.8-18.5,29
		c2.4-8.9,6.9-16.4,15.3-23.8c-4.9,9.4-8.3,17.3-10.9,25.5c-2.4,7.9-1.9,20.2,0.9,24.7c1.5-11.2-2.9-23.7,5.2-34.4
		c-2.2,9.2-5,18.2-2.5,27.8c1.1-9.2,1.3-18.5,5.6-26.9c-3.3,10.2-4.5,20.5-3.2,31.1c-0.5-4,1.7-7.5,2.3-12.2
		c0.8,1.8,0.2,3.8,2.6,3.3c0.9-5.2,1.8-10.5,2.8-15.8c-0.2,0-0.3-0.1-0.5-0.1c-0.5,1.4-1,2.9-1.6,4.3c0.8-5.9,1.9-11.7,6.3-16.1
		c0.9,0.6-0.4,2.3,2.1,2.5c0.6-4.2,1.4-8.4,1.8-12.6c0.4-4.8,2.1-8.7,7.1-13.4c-2.9,5.5-3.9,9.5-4.2,15c1.4-1.9,2-2.8,2.6-3.7
		c-1,2.4-1.9,4.8-3,7.6c3.1-2.2,5.8-4.1,8.6-6.1c0.8,0.9-1.1,2.5,1.1,3.6c5-6.1,10.7-11.9,20-15.2c-3.4,3.7-7.3,4.9-9.1,8.7
		c1.7-0.4,3.2-0.7,5.4-1.2c-5.3,4.3-11.8,6.2-14.3,15.1c7.3-9.7,16.6-10.7,27.2-12.9c-16.7,6.6-28.2,17.1-37.2,30.4
		c6.8-5.2,10.8-13.6,19.9-16.4c-1.3,2,0.4,4.6-2.3,6.7c1.5-0.2,2.3-0.3,3.8-0.5c-5.8,4.3-12.3,6.5-17.3,11.9
		c2.3-0.4,4.2-0.7,7.9-1.3c-8.6,4.9-16.6,7.6-22.9,14.4c7.4-3.3,13.9-6.3,20.4-9.2c-10.2,6.1-21.6,10.5-27.9,21.5
		c6.8-6.5,14.5-11.6,25.8-14.4c-3.3,1.6-4.8,2.3-7.6,3.6c3.5-0.8,5.5-1.2,7.5-1.6c-9,3.4-17.9,7-24.5,14.6c6.8-4.5,13.5-9,23.1-9.8
		c-7.2,3.7-13.2,7.3-18.4,13c2.3-0.5,3.9-0.8,6.9-1.4c-7.6,5.9-16.3,9.5-14.7,20.2c2.1-7.8,8.2-12.5,13.9-17.4
		c-6.9,5.3-9.7,12.6-10.7,22.8c2.2-5,3-8.8,6-12c-0.5,2.3-0.9,4-1.2,5.7c3.3-5.9,7.4-10.6,13.8-13.6c-10.9,11.2-13.5,25.4-15.8,41.9
		c-0.2-3.4-0.3-4.8-0.5-6.7c-4.3,13.7,1.4,33.9,11.4,40.8c-6-15.2-7.4-30.1-0.5-45.1c-0.4,3-0.9,6.1-1.6,11.2
		c2.3-6.3,3.9-10.6,5.5-14.9c0.2,0.1,0.4,0.1,0.6,0.2c-0.3,1.5-0.7,3.1-1,4.6c0.1,0,0.3,0.1,0.4,0.1c1.3-3,2.6-6.1,4.1-9.6
		c1.4,10.9-3.8,20.4-3.4,31.9c3.9-8.4,6.3-16.2,11.6-22.4c-4,8.6-8.3,17-10,27.6c4.1-6,7.7-11.1,11.2-16.2
		c-5.1,10.1-11.8,19.5-12.1,31.5c3.9-12.4,11.3-22.2,21.3-30.3c2.1-1.3,4.2-2.6,7.7-4.7c-4,4.3-6.8,7.3-9.7,10.3
		c4.9-2.8,8.9-6.9,15.1-9.5c-2.9,2.7-4.9,4.6-8.3,7.7c3.9-1.8,6.2-2.8,9.6-4.4c-2.5,2.1-4,3.4-6.3,5.3c4.2-1.4,7.4-2.3,10.5-3.4
		c10.8-3.7,21.8-7.1,30.2-15.4c1.6-1.6,2.6-4.8,6.1-2.4c-0.3-1.7-0.4-3.1-0.7-4.7c-0.5,0.7-0.8,1.2-1.3,1.9c-1.1-3.2,2.6-6-0.3-9.6
		c-2.8,7.6-6.8,13.6-13.6,17.5c0.4-0.7,0.7-1.4,1-2c4-4.7,7.9-9.4,10.3-17.2c-2,2.5-2.8,3.6-3.7,4.7c-0.8-1,3.7-3.7-1.1-3.5
		c-1.6,1.8-3.2,3.5-4.9,5.3c-0.4,0.1-0.9,0.3-1.8,0.6c1.6-2.8,2.9-5.1,4.2-7.4c-0.3-0.2-0.6-0.4-0.9-0.7c-3.8,4.6-7.7,9.1-11.5,13.7
		c-0.2-0.1-0.3-0.3-0.5-0.4c3.3-4.8,6.5-9.6,9.8-14.5c-0.3-0.2-0.5-0.4-0.8-0.6c-1.6,2-3.2,3.9-5.1,6.3c0.4-3.2,4.3-4.7,2.4-8.5
		c-2.9,3.4-5.4,6.3-7.8,9.2c1.9-3.2,3.8-6.3,6-9.9c-1,0.4-1.7,0.7-2.8,1.1c1.5-3.3-1.6-3-2.6-4.6c-1.6,1.3-3,2.4-6.1,5
		c2.5-3.2,3.6-4.7,4.9-6.3c-1.2-1.4-2.5-2.8-3.9-4.5c-2,4-4.8,7.2-7.9,10c-0.4-5.5,10.4-7.4,4.6-14.3c-0.6-0.8-0.4-3.7-3.3-2.3
		c0.6-0.9,1-1.6,1.6-2.6c-3,0.2-3.2,3.1-5.8,4.1c7.8-5.5,1.3-9.4-0.7-14c-4.9-11.6,2-26.7,14.9-33.9c8-4.4,16.6-3.8,25.2-4
		c2.3,0,4-0.1,3.9-3.1c0.2,1,0.4,2,0.8,4.3c2.2-7.3,2.3-13.8,5.2-19.5c-1.7,5.8-2.7,11.7-3.4,18c7,0.8,13.9-0.2,20.6,2.3
		c10.7,3.9,17.5,11.4,21.2,22c0.6,1.6,1.2,2,2.6,1.7c3.2-0.7,6,0.6,10.8,1.9c-3.3-0.3-4.7-0.4-6.1-0.5c0,0.2-0.1,0.5-0.1,0.7
		c1.8,0.4,3.7,0.8,6.3,1.4c-4.5,0.4-8.3-1.2-13.1,0.4c4.4,0.8,7.9,1.4,11.3,2c0,0.3-0.1,0.7-0.1,1c-3.3-0.3-6.6-0.7-11.8-1.2
		c4.7,2.8,8,4.8,12.9,7.8c-5.1-1.2-8.4-1.9-11.7-2.7c-0.1,0.2-0.2,0.5-0.3,0.7c2.5,1.2,5.1,2.3,7.6,3.5c0,0.1-0.1,0.3-0.1,0.4
		c-2.7-0.7-5.3-1.4-8.4-2.2c-2.3,4.6-4.8,9.3-6.9,14.2c-0.9,2.1,1.3,3.4,2.6,4.5c3.7,3.3,5.6,7.6,7.5,12.1c-3.7-4.6-7.3-9.2-11-13.8
		c-0.3,0.2-0.6,0.4-0.8,0.5c2.7,3.7,5.4,7.5,8,11.2c-0.2,0.1-0.3,0.3-0.5,0.4c-1.9-2.4-3.8-4.8-5.6-7.2c-0.2,0.1-0.4,0.3-0.6,0.4
		c1.5,2.2,2.9,4.5,4.4,6.7c-3.6-2.5-6.8-5.2-5.6-10.5c-5.6,2.7-1.6,5.7-1,9.6c-1.6-2.4-2.7-3.9-3.7-5.3c-0.2,0.1-0.4,0.3-0.7,0.4
		c1.2,2.5,2.4,4.9,3.5,7.4c-0.3,0.2-0.6,0.3-0.8,0.5c-1.4-2.1-2.8-4.1-4.1-6.2c0.5,3.9,2.9,6.6,5.4,9.3c-0.9-0.7-1.8-1.4-3.4-2.6
		c0.7,1.7,1.1,2.7,1.4,3.6c-0.1,0.1-0.3,0.2-0.4,0.3c-1.8-3.2-3.6-6.4-6.3-11.1c-0.2,9.1,9.3,12.4,8.1,21.4
		c-4.7-6.2-8.7-11.6-12.8-17.1c-1.2,1-0.5,2.4-0.6,3.7c0,10.2,6.6,17.2,12.1,24.9c-4.7-2.6-8.4-6.2-10.7-11
		c-2.2-4.6-4.2-9.3-6.5-14.5c-0.8,2.8,1.8,4.8-0.1,6.9c-0.8-1.7-1.6-3.4-2.4-5.1c-0.4,7.4,4.3,13.1,5.9,20.2
		c-3.5-3.7-5-8.3-7.7-12.1c0.7,2.2,1.4,4.5,2.5,8.3c-2.5-4.4-4.3-7.4-6.2-10.7c-0.1,5.3,3,9,5.1,13.7c-6.1-4.9-7.7-10.9-6.9-17.9
		c-2.4,0.4-5-0.4-6,3.2c1.2-0.6,2.2-1.6,2.2,0.2c0,0.9-0.2,1.8-0.2,2.8c0,0.8,0.1,1.6,0.3,4.1c0.4-2.4,0.5-3.2,0.7-4
		c6.3,17.7,24.1,18.9,37.1,26.9c-11.4-7.3-21.2-15.7-24.6-29.5c0.5,0.5,1.3,1,1.5,1.7c2.7,7.2,7.4,13.3,12.8,18.4
		c7.6,7.2,19.9,7,26.6,16.2c-1.5-2.8-3.3-5.2-5.4-7.2c-3.3-3.3-6.9-6.4-10.3-9.6c0.2-2-1.4-3-2.5-4.3c3.1,0.4,4.5,3.4,7.1,4.7
		c1,0.5,1.9,1.7,2.5-0.1c3.8,3.4,7.5,6.8,11.2,10.2c0.2-0.2,0.4-0.3,0.6-0.5c-2.8-3.1-5.6-6.2-8.4-9.3c0.1-0.2,0.3-0.4,0.4-0.6
		c4.2,3.6,8.6,7,12.7,10.7c4.3,3.9,8.5,8,11.7,12.9c3.1,4.8,5,10.1,7.3,15.8c6.9-20.7-3.6-36.2-13.3-51.7c2.5,0.8,4.4,3.3,11,15.5
		c-0.1-10.1-6.3-17.7-10.3-26.1c7.8,7.8,13.6,16.7,17.1,27.6c0.5-6.7-4.9-18.5-13.1-29.4c12.8,8,20.3,37.7,14.9,58.7
		c8.7-3.8,11.4-17.6,7.4-38.6c3.2,4.2,3.8,9,5.4,13.4c-3-17.9-9.2-34.4-21-49.2c5.4,1.8,6.5,3.2,17.5,21.9c0.4-3.2-0.8-8.3-2.9-11.5
		c-2.3-3.4-4.8-6.6-7.7-10.5c4,1.5,5,4.8,7.4,7.9c-0.2-1.5-0.4-2.3-0.6-3.5c3,2.5,3.2,6.1,6,10.1c-2.1-9-3.6-16.7-7.7-23.3
		c-4.1-6.6-12.1-9.3-17.2-15.2c8.9,1.9,13.3,10,21.3,14.6c-5.6-11.7-16.5-16.8-25.8-25.1c1.6,0.8,2.3,1.1,4.3,2
		c-2-2.1-3.1-3.3-4.2-4.4c0.1-0.2,0.2-0.3,0.4-0.5c3.2,2.1,6.4,4.3,10.5,7.1c-4.8-6.9-12.2-9.3-16.3-15.6c0.8-0.1,1.7-0.3,2.8-0.5
		c-0.3-0.5-0.5-0.9-1-1.9c2,1,3.5,1.7,5,2.5c-6-7.1-13.3-12.6-23.3-17.6c12.4,2,21,6.9,28.3,16.7c-0.6-2.1-0.8-2.7-1.2-4
		c1.5,1.5,2.6,2.5,4.6,4.3c-4.3-8.7-9.4-15.2-16.4-20.4c1.5,0.5,3,1,6.6,2.2c-10.2-8.4-19.7-14.4-27.1-23.5
		c4.8,0.3,9.3,0.5,13.7,2.1c-2.6-4.4-7-5.9-21.2-7c5.2-2.4,10.4-1.9,15.5-2.8c-3.7-0.4-7.5-0.8-11.1-1.2c2.5-4,6.4-5.1,11.1-4.6
		c-6.5-4.7-13.1-3.5-20-1.3c1.7-0.8,3.5-1.7,5.3-2.4c1.8-0.7,3.7-1.3,5.7-2c-2.8-1.7-5.7-0.9-8.6-1.2c0.2-0.3,0.2-0.6,0.4-0.7
		c1.9-1.4,6.3-1.6,5.3-3.8c-1-2.1-5.3-1.7-8.2-1.3c-2,0.3-3.9,1.1-6.1,1.1c3-1.2,6.1-2.5,9.6-3.9c-5.3-4.2-8.1-9.7-7.1-16.3
		c1.4-9.1-4.8-19,3.3-27.3c0.6,3.6,1.2,7.4,3.8,11.4c-0.5-3.5,2.3-5.4,2.4-8.7c1.7,3,3.4,6,5.1,9c-1.1-5.5-2.4-10.9-1.4-16.6
		c-0.6,1.7-1.2,3.4-2,5.7c-1.4-2.8-1.6-5-1.1-7.4c0-0.9-0.1-1.7-0.1-2.6c0.4-0.7,1-1.4,1.2-2.1c2.2-9.7,11.3-13.9,17.1-20.7
		c-2.4,4-5,7.9-7,12c-2.1,4.3-3.6,8.8-4.8,13.5c0.6-1,1.3-2.1,2.9-4.7c-0.5,4-0.8,6.2-1.1,8.7c1.4-2.1,2.7-4,4.2-6.1
		c0.5,0.8,0.7,1.3,1,1.8c1-1.1,1.9-2.2,3.9-4.4c-0.3,2.7-0.5,3.7-0.6,5.2c4.4-6.3,9.3-11.2,17.7-13.2c-4.5,3.7-9.4,5.4-12,10.8
		c4.4-2,7.7-5,13.5-4.6c-4.8,4.6-8.9,8.4-13,12.3c11.7-7.8,24.1-8,36.8-3.8c-8.3-0.7-16.7-1.8-24.9,1.7c9-1.9,17.9-2,27.9,2.8
		c-3.2-0.3-4.9-0.4-8.7-0.8c4.8,2.5,7.7,4,10.6,5.6c-0.1,0.2-0.2,0.5-0.3,0.7c-2.6-0.9-5.2-1.8-7.7-2.7c-0.1,0.2-0.2,0.4-0.2,0.5
		c1.9,1.2,3.9,2.4,7.1,4.4c-3.5-0.5-5.4-0.7-8.4-1.1c2.4,1,3.9,1.6,5.3,2.1c-0.1,0.2-0.1,0.4-0.2,0.6c-2.4-0.4-4.7-0.9-7.4-1.4
		c0.3,4.8-4.1,2.2-6,4.1c1.7,0.1,3.1,0.2,6.2,0.3c-3.1,0.9-4.6,1.4-7.4,2.3c4.2-0.4,7.1-0.7,10.5,0.5c-1.4,0.7-2.4,1.2-3.3,1.7
		c6.4,0,10.8,3.6,15.5,8.7c-4.7-0.9-8.5-2.2-12.6-1.5c7.2-1.3,10.5,6.4,17.2,7c-0.6-4.2-3.1-7.5-5.3-12.2c3.3,2.7,5.6,4.5,9.2,7.5
		c-3.2-4.4-5.5-7.5-7.7-10.6c1.4-1.4,2.6,0.1,4.6,0.3c-2.3-2.1-4-3.7-7.2-6.5c3.2,1,4.7,1.4,6.8,2.1c-2.7-2.4-4.9-4.3-8.5-7.5
		c4.1,1.2,6.3,2,9,2.8c-1.6-3-5-4-6-7.4c1.4,0.1,2.4,0.2,3.9,0.4c-9.6-7.6-18.6-15.7-31.1-20.8c8.5-0.3,14.5,3,21.2,5.1
		c-4.3-3.2-8.5-6.4-13.4-10.1c5.6,0.9,9.7,3.7,15.2,6c-7.3-8.5-15.8-12.7-26.3-14c1-1.1,1.5-1.7,2.1-2.4c-4.2-1.3-8.6-0.9-13-0.4
		c0.6-1.5,1.1-2.9,1.7-4.6c-1.2-0.3-2.4-0.7-4-1.2c2.3-1.8,4.7-0.7,8.5-1.5c-7.1-1-12.7-1.7-18.6-2.6c3-1.9,13.3-2.4,19-1
		c14.7,3.8,26.9,11.8,38.4,21.6c10.4,8.9,23,7.3,35.1,3.2c2.6-0.9,4.9-2.4,7.4-3.7c-2.6,6.9-9.7,7.7-15.1,11.4c4.8-0.1,8.9-1.6,13-3
		c-7,5.3-15,6.6-23.6,5.3c8.1,3.1,16.1,6.3,25.7,7c-8,2.1-14.5-0.2-21.1-2.4c8,5.6,16.7,9.6,26.9,13.3c-2.8-0.3-4.6-0.4-7.6-0.7
		c6.5,3.2,12.4,3.6,19.3,4.9c-3.1,0.7-5.1,1.1-8.3,1.8c2.9,0.4,4.6,0.6,6.2,0.9c0,0.1,0,0.3-0.1,0.4c-4.6,0-9.2,0-14.3,0
		c7.5,5.7,15.4,9.7,25.4,13c-5.6,0.4-9.5,1.1-13.2-0.6c4.9,8.2,11.9,15.1,16.5,25.4c-2.8-2.7-4.6-4.4-6.3-6.1
		c-0.3,0.2-0.6,0.4-0.8,0.7c4.1,5.5,8.3,11,13.5,17.9c-8.3-4.1-10-12.3-17.2-17.4c1.2,3.9,1.9,6.3,2.9,9.9c-1.3-1.5-1.8-2.1-2.3-2.7
		c-1.9,2.1,0.9,3.7,0.2,5.9c-2.5-3.5-4.9-6.8-7.3-10.1c-0.1,0.1-0.2,0.1-0.3,0.2c2.4,4.2,4.9,8.4,7.3,12.6c-0.2,0.2-0.5,0.3-0.7,0.5
		c-2.9-3.9-5.8-7.8-8.7-11.7c-0.3,0.2-0.5,0.3-0.8,0.5c3.7,6.8,7.4,13.6,11.1,20.4c-0.3,0.2-0.7,0.4-1,0.6
		c-2.6-3.7-5.1-7.4-7.7-11.2c-0.2,0.1-0.4,0.2-0.6,0.3c3.6,7.6,7.3,15.3,10.9,22.9c-0.3,0.2-0.6,0.3-0.9,0.5
		c-1.9-3.3-3.8-6.7-5.6-10c-0.1,0.1-0.3,0.1-0.4,0.2c0.5,1.4,1,2.8,2,5.8c-2.3-3.1-3.6-4.8-5.7-7.7c3.9,9.2,7.3,17,10.6,24.9
		c-0.2,0.1-0.5,0.2-0.7,0.3c-1.6-2.8-3.1-5.6-4.7-8.4c2,5.3,4.2,10.4,4.6,16.2c-1.9-4-3.9-7.9-5.8-11.9c2.7,5.9,3.3,12.8,8,18.9
		c3.5-9.8,1.1-18.6,0.4-28.2c8,10.6,4,23.3,9,34c0-3.5,0-7,0-10.5c2.6,5.2,1.6,10.6,1.6,16c-1-2.5-2.6-4.1-5.5-5.3
		c-2.3,13.3-4,26.3-8.2,40.3c-3.3-11.5-4.9-21.8-6-32.2c1,2.1,2,4.3,3,6.4c-1.8-7.6,7.8-15.8-2-24.5c1.3,5.1,2.6,8.5,2.1,12.6
		c-2.5-3.2-4.7-6.1-6.9-9c-0.3,0.2-0.6,0.3-0.8,0.5C463.3,410.4,464.8,415.1,466.4,419.8z M527.4,529c-0.4-1.5-0.9-2.9-1.9-6.2
		c2.4,3.1,3.8,4.8,5.4,6.9c-0.4-2.9-2.5-4.9-1.5-7.7c1.8,1.4,3.3,2.5,5.5,4.2c-1.1-7.7-5.3-13.3-9.2-21.1c7.5,8,11.7,15.7,15.8,23.5
		c-4.1-10.2-8.1-20.4-17.3-27.3c-5.8-4.3-12.1-6.3-19.3-4.1c-8.5,2.6-15.9,7.9-25.2,9.6c1.5,2.4,2.7,4.3,4.2,6.7
		c0.2-1.3,0.4-2,0.5-3c1.5,1.3,2.7,2.3,4.4,3.7c-0.3-1.4-0.5-2.2-0.9-3.8c6.7,7.1,9.3,15,10.7,23.6c-1.1-2.4-2.2-4.8-3.3-7.1
		c-0.2,0.1-0.3,0.2-0.5,0.2c2.1,5.6,4.3,11.1,6.6,17.2c0.7-2.4,1.2-4.1,2.1-7.6c0,5.3,0,8.9,0,12.5c0.8-6.9,1.5-13.7,3.3-22.2
		c3.8,16.2-2.9,31.6,4.3,46.1c2.1-2.9,0.5-6.6,4.2-8.5c1.2,4.1,2.4,7.8,4,13.2c0-3.9,0-6,0-9.7c0.9,3,1.3,4.5,2.3,7.9
		c0.6-5.9,0.9-9.7,1.4-15.3c1.3,6.1,2.2,10.6,3.2,15.3c3.5-6.1-2.7-10.9-1.1-16.9c0.4,2,0.8,3.5,1.2,5.6c2-6,5.2-8.9,11.5-5.6
		c-0.6-2.1-1-3.9-1.7-5.6c-3.3-7.6-2.1-16.8-8.2-23.4C527.7,529.8,527.5,529.4,527.4,529z M271.7,516.5c-0.4-1.8-0.5-2.6-0.8-3.8
		c-0.7,1.5-1.3,2.7-2.1,4.5c0.2-2.1,0.3-3.4,0.6-5.9c-1.1,2.2-1.6,3.2-2.3,4.5c-0.3-0.7-0.5-1.2-0.8-2.2c-0.7,1.7-1.2,3-2.3,5.7
		c0.3-2.9,0.5-4.3,0.7-6.6c-1,1.8-1.6,2.8-2.3,4.1c-0.1-0.8-0.2-1.5-0.4-2.6c-1.1,2.2-2,4-3.6,7.2c0.7-3,1-4.4,1.4-5.8
		c-6.1,11.8-12.5,23.6-13.4,37.1c-0.4,6.2,1.3,12.3,5.8,16.9c11.8,12,26.6,18.2,42.9,19.8c18.4,1.8,31.7-9,44.2-20.8
		c6.9-6.6,10-20.3,5.9-29.9c0,3.1,0,5.4,0,7.8c-0.2,0-0.4,0-0.6,0c0-2.5,0-4.9,0-7.4c-0.2,0-0.3,0-0.5,0c-0.1,1.8-0.2,3.6-0.2,5.1
		c-1.4,1-1.5-2-2.6-0.3c-1.3-6.5-2.6-12.9-3.9-19.4c-0.2,0-0.3,0.1-0.5,0.1c0.1,1.5,0.3,3,0.6,6.7c-1.8-5.7-2.9-9.2-4-12.7
		c-0.2,0-0.3,0.1-0.5,0.1c0.4,2.6,0.8,5.2,1.3,7.8c-0.2,0-0.4,0.1-0.6,0.1c-0.7-2.2-1.4-4.5-2.7-8.2c0.3,4.3,0.6,7,0.9,10.6
		c-0.9-1.2-1.3-1.7-2.1-2.7c0.3,3,0.6,5.4,0.8,7.8c-0.2,0.1-0.5,0.1-0.7,0.2c-2.7-6.5-5.3-12.9-8-19.3c-0.1,0.4-0.2,1-0.3,1.4
		c-2.1-1.6-4.1-3.4-4.7-6.3c0.1,1.5,0.2,3,0.3,4.7c-1.6-1.8-1.2-4.7-3.7-6.1c-0.2,1.3-0.3,2.3-0.4,3.6c-0.7-1.8-1.3-3.2-2.4-6
		c-0.2,3.1-0.3,4.8-0.4,6.6c-0.4-1.4-0.8-2.6-1.2-4.2c-0.5,1.1-0.8,1.8-1.2,2.8c-0.3-2-0.6-3.6-0.8-5.1c-0.2,0-0.5,0-0.7,0.1
		c-0.1,2-0.3,4-0.6,7.9c-0.5-3.1-0.7-4.3-1-6.1c-4.6,11.2-6.8,22.1-7.3,33.6c-1.2-10.9-2.4-21.7-3.6-32.6c-0.2,0-0.4,0-0.6,0
		c-0.4,3.4-0.7,6.8-1.1,10.2c-0.3,0-0.5,0-0.8,0c-0.5-4.4-1.1-8.8-1.7-14c-0.5,3.4-0.8,6-1.2,8.7c-0.2,0-0.3,0-0.5,0
		c-0.2-2.4-0.3-4.9-0.6-9.1c-0.8,4.5-1.4,7.2-1.9,9.9c-0.3,0-0.5,0-0.8-0.1c0-2.3,0-4.7,0-7c-0.2,0-0.5,0-0.7,0c-0.5,3-1.1,6-1.9,11
		c0-3.4,0-4.8,0-6.9c-0.8,1.1-1.1,1.6-1.6,2.3c-0.2-0.8-0.4-1.4-0.7-2.3c-0.5,1.1-0.9,1.8-1.3,2.7c-0.2-1-0.3-1.8-0.5-2.9
		c-0.6,1.5-1.1,2.6-1.8,4.2c-0.2-1.7-0.4-2.7-0.6-4.3c-0.5,1.6-0.8,2.6-1.4,4.5c-0.2-2.1-0.3-3.2-0.4-5
		C272.9,513.1,272.5,514.3,271.7,516.5z M160.8,349.2c3.8-7.7,6.3-15.4,13.7-21.4c-3.9,9.9-8.7,18.1-10,27.6
		c3.1-5.1,5.2-10.7,10.9-16.1c-6.3,12.4-9.6,23.5-8.7,36.1c0.8,10.7-1.4,21.5-4.3,32.1c-1.5,5.3-1.8,11-2.6,16.6
		c2.3-5.7,3.4-11.8,8-18.1c-1.9,8.2-3.4,14.9-4.9,21.6c0.2,0.1,0.4,0.1,0.7,0.2c0.5-1.2,1.1-2.5,2.3-5.4c0,10.2,0,18.7,0,27.8
		c1.1-1.6,1.7-2.5,3-4.4c-0.9,4.7-1.6,8.2-2.3,11.7c1.6,25,8.5,49.1,12.3,73.9c1-7.5,2-15.1,3-23c-0.8,0.5-1.2,0.8-2.2,1.5
		c0.5-4.5,0.9-8.6,1.3-12.9c-0.4,0.6-0.7,0.9-1.3,1.8c0-2.7,0-4.8,0-7.2c-0.5,1-0.9,1.7-1.6,3c-0.4-2.4-0.6-4.1-1-6.4
		c-0.2,2.2-0.3,3.8-0.5,5.4c-1.5-7-2.1-14.1-2.4-21.1c-0.7-13.4-1.6-26.7-1.8-40.1c-0.1-7-0.8-14.2-0.2-20.9c0.8-8.6,0.8-17.6,4-26
		c0.1-0.2,0-0.5-0.1-0.9c-0.8,0.5-1.5,1-3.1,2c2.7-7,5.1-12.9,7.2-19c2.8-8.1,4.6-18.9,3.7-18.9c-0.4,0.5-0.7,0.9-1.5,1.8
		c0.2-10.5,0.6-20.2,3.4-30.9c-4,3.6-4.9,7.4-6,10.4c-5.4-27.8,11.1-43.2,33.8-55.8c-2.8,0.6-4.6,1.1-8.4,1.9c3.5-2,5.2-3,7-3.9
		c-9.6,1.2-16.6,7.3-25.7,13.4c3.8-1.2,5.9-1.8,9.6-2.9c-10.7,9.1-18.2,18.5-24.3,30c1.8-1.2,3-2.1,5.1-3.5
		c-3.6,6.6-7.1,11.9-9.2,18.5c1.5-1.3,2.6-2.3,5-4.5C168.3,332.5,161.7,339.1,160.8,349.2z M109.9,530.8c1.1-2.1,2.1-4.1,3.9-7.5
		c-2.9,10.3-8.6,18-9.3,28.5c2.8-4.1,6-5.5,9.7-4.5c4.9,1.4,6.7,5.5,7.4,11c0.5-2.3,0.9-3.9,1.2-5.4c0.1,0,0.2,0,0.4,0.1
		c-0.4,3.2-0.8,6.4-1.3,9.8c3.4-1.8,4.8-5.1,7.3-7.3c5.5-4.9,11.9-10.1,13.5-18.3c0.8-3.8,1.6-7.6,2.4-11.3c0.3,0,0.6,0,1,0
		c0.9,5.9,1.8,11.8,2.9,18.6c0.9-2.2,1.4-3.5,2.2-5.3c0.3,2.8,0.6,4.9,1,8.1c0.9-3.5,1.5-5.8,2.6-10c0,4.2,0,6.6,0,9
		c1.4,0,2.6,0,4.1,0c-0.6-8.5-2.9-16.3-7.3-23.4c-6.2-10.1-15.6-15.4-25-13.3C115.4,512.1,112.7,521.6,109.9,530.8z M328,410.6
		c3.8,0.8,1.1-1.3,0.8-2.9c2.2,1.9,3.8,3.3,5.4,4.8c-4.2-5.7-9.5-10.1-16.6-10.4c-12.6-0.6-25.4-1.2-38-0.3
		c-12.5,0.9-22.6,15.5-18.9,25.5c0.4-1.9,0.8-3.7,1.2-5.6c1.2,0.6,0,2.3,1.7,2.7c1.5,0.4,0.5-2,1.8-1.3c0.2,0.5,0.3,1.1,0.4,1.2
		c4.9-3.3,11.1-2.6,17.1-4.6c-0.1,0,0.8,0.7,1.5,0.6c5.9-0.9,12.2,1.4,17.9-1.4c3.3-1.6,6.5,0.6,10.1-0.5c3.3-1,7.8-1.7,11.8,0.3
		c2.4,1.2,5.3,1.2,8.6,1.8C331,417,329.6,414,328,410.6z M396.4,369.5c0.2,0.7,0.3,1.3,0.7,3.1c-2-2.3-3.6-2.8-4.7-0.6
		c-2.4-2.1-3.1-5.5-6.4-6.6c-0.1,0.9-0.2,1.6-0.2,2.5c-1-0.7-1.7-1.2-2.6-1.8c-0.5,0.9-0.8,1.6-1.1,2.3c-1.6-0.5-2-2.6-4-2
		c0.1,1.1,0.3,2.2,0.4,3.4c-1.6-0.6-1.8-2.8-3.9-2.3c0.1,0.8,0.2,1.6,0.4,2.6c-1.7-1.1-3.1-2-5.2-3.3c0.6,2.1,1,3.3,1.6,5.6
		c-2.5-2-4.2-3.3-5.8-4.5c4.8,6.1,4.6,15,10.6,20.1c-0.3-3.9-3.5-6.6-3.5-11.2c4.7,4.3,4.1,10.9,8.1,15.1c0.6-0.6,1.2-1.6,1.5-1.6
		c17.5,6.7,20.8,23.2,26.3,38.5c1-15.4-3.5-29.7-7.1-46c8.7,7.8,11.2,17.3,15.3,27.5c-0.3-4.1-0.5-6.6-0.8-10.7
		c1.8,3.7,2.8,5.8,4.8,9.9c-2.6-10.1-3.4-18.7-9-25.5c1,0.7,2,1.4,3.7,2.7c-2.8-7.8-7.4-13.1-12.4-18.8c-0.5,1-0.8,1.6-1.3,2.4
		c-1.6-1.3-3-2.4-5.2-4.2c0.7,2,1.1,3,1.6,4.4C397.4,370,397,369.8,396.4,369.5z M38.9,522.6c-3.2,9.9-8.2,18-10.3,27.3
		c7.4-5.2,12.7-3.2,13.8,5.1c0.6,4.9,0.3,9.7-2.3,14.2c-1.2,2-2.4,4-2.3,7c4.5-2.7,10.4-2.9,12.4-9c-1,0.5-1.7,0.8-2.7,1.2
		c1.3-3.4,2.4-6.5,3.6-9.5c-0.2-0.1-0.4-0.2-0.5-0.2c-1.1,1.8-2.2,3.6-3.3,5.4c-0.2-0.1-0.3-0.2-0.5-0.3c1.7-5.2,3.3-10.5,5-15.7
		c-0.2-0.1-0.4-0.1-0.6-0.2c-1.2,2.1-2.3,4.3-3.5,6.4c4.9-13.8,1.8-29.4,10.3-43.9c-0.7,3.4-1.1,5.2-1.5,7.1c1.7-3,2.6-6.4,5.4-9.2
		c0.5,1.3,0.9,2.2,1.2,3.2c1.5-0.7,1.7-2.9,3.9-2.8c0.1,0.9,0.2,1.8,0.3,3.2c1.3-1.6,2.2-2.8,3.4-4.2c-5.9-3.3-11.3-8-18-4.4
		c-15.2,8-21.7,22.4-26.6,37.8c2.9-7.1,6.1-14,12.7-20.5c-1.6,3-2.6,4.9-3.5,6.7c0.2,0.1,0.3,0.2,0.5,0.3
		C36.5,526.1,37.4,524.8,38.9,522.6z M60.1,585.1c0.5,6.4,0.4,13.3,4.4,19.2c0.5,0.8,1.6,1.1,2.4,1.7c0.3-0.6,1-1.2,0.9-1.7
		c-0.7-11.6,0.6-23,2.1-34.5c0.3-2.5-1-4.6-3.6-5.1c-2.7-0.5-3.5,1.8-4.2,3.8C60.4,573.7,60.6,579.3,60.1,585.1z M478.6,591.5
		c2.3-0.9,2.7-2.3,3.1-3.7c4.7-13.6,3.2-27.4,1-41.2c-0.3-2.1-0.6-5.3-3.8-4.6c-3.3,0.7-3.1,3.8-2.6,6.4c2.2,11.6,2.5,23.3,2.3,35.1
		C478.5,586,478.6,588.6,478.6,591.5z M111.4,593.7c-0.1-13.3,2.4-24.5,4.9-35.8c0.6-2.8,0-6-3.6-6.5c-3.3-0.4-4.4,2.3-4.7,5.1
		c-0.6,5.8-1.5,11.6-1.5,17.3C106.5,580.1,106.9,586.6,111.4,593.7z M262.5,443.5c4.4,4.7,6.8,12.3,12.1,11.9
		c10.4-0.8,19-5.9,18-18.6c-5.4,0-5.5,9.3-12.4,8.4C274.7,444.4,269.1,444.1,262.5,443.5z M31.1,592.8C32,581.1,35,570,38.3,559
		c0.3-1.1-0.3-2.4-0.6-3.6c-0.4-1.4-1-2.9-2.9-2.7c-1.7,0.2-2.3,1.4-2.9,2.8c-2,4.9-3.3,10.1-3.5,15.4C28,578.2,27,585.7,31.1,592.8
		z M531.1,604c0.5-0.9,1.2-1.8,1.6-2.8c4.6-11.8,4.9-24.1,2.9-36.4c-0.3-1.7-1-3.6-3-3.3c-2.4,0.3-2.9,2.5-2.9,4.6
		C530,578.6,531.7,591.1,531.1,604z M569.8,546.2c-0.8,0.7-1.7,1-2,1.7c-6.2,14.6,2.9,29.8-2.4,45
		C572.4,588.5,574.9,557.4,569.8,546.2z M354.1,331.9c-2.3,8.8,0,13.3,7.8,15.6c9.8,3,20.2-1.3,25.4-10.1c2.7-4.6,0.1-7.1-2.8-10.3
		c-1.4,10.2-6.2,16.3-13.1,17.4C363.4,345.8,359.2,342.8,354.1,331.9z M254.6,333c-3.6,8.7-9.5,12.1-17.2,10.2
		c-8-2-11.5-8.4-12-16.7c-4.8,4.9-5.2,7-2.5,11.5c4.9,8.2,13.8,11.2,23.5,8.3C252.4,344.5,254.6,340.4,254.6,333z M249.5,332.5
		c-7.7,5.3-13.7-2.6-21-3.2c1.3,6.1,4,10,8.9,11.5c4.6,1.4,9.1,0.4,12.3-3.7c1.5-1.9,3.3-3.8,2.2-7.4
		C250.7,331,250.1,331.8,249.5,332.5z M376.4,331.2c-4.2,3.9-4.2,3.9-10.5,4.1c-2.4,0.1-3.7,1.5-4.2,3.5c-0.6,2.1,1.5,2.5,2.7,3.1
		c6.2,3,13.3-0.5,15.4-7.6C378.7,333.2,377.6,332.3,376.4,331.2z M418.3,381.8c-0.9-11.3-1.5-22.6-7.8-32.4c2.6,4.8,1.5,10,2.2,15.1
		C413.5,370.4,416.3,376,418.3,381.8z M367.3,325.8c2.6-0.3,4.7-1.4,4.6-4.3c0-2.9-2.3-4.1-4.9-4c-2.5,0.1-4.8,1-4.8,4.1
		C362.2,324.9,364.8,325.4,367.3,325.8z M438.7,493.5c2.5-5.7,2.7-10.9,2.1-17.1c-0.8,2.8-2.1,0.1-2.5,0.6
		C435.9,482.6,436.5,487.6,438.7,493.5z M242.5,317c-1.9,0.4-3.9,1.1-3.9,3.9c0,2.5,1,4.4,3.7,4.3c2.4,0,4.1-1.4,4.1-4.1
		C246.3,318.8,245.5,317.2,242.5,317z M389.6,336.6c-4.2,8.3-10.8,12.9-20.5,14.7C380.4,352.4,390.7,344.8,389.6,336.6z
		 M155.4,491.6c-0.7-9.4-5.5-16.5-9.1-24.5C147.4,476,151.6,483.4,155.4,491.6z M219.6,334.4c-1,8.5,6.8,16,15.4,15.2
		C227.7,346.9,223,341.9,219.6,334.4z M364.5,575c-1.4-5.9-2.1-12-7-16.4c0.8,1.4,1.7,2.9,2.9,4.9c-1.2-0.7-1.8-1-2.5-1.4
		C360.2,566.6,362.4,570.8,364.5,575z"/>
	<path d="M286.7,242.9c-2.8-2.9-5.7-5.8-8.5-8.6c-2.7-2-5.4-3.9-8.5-6.2c4.6-0.1,8.1,2.2,12.4,3.9c-2.9-4.1-6.9-5.9-10.8-9.1
		c8.5,1.3,15.1,5.2,22,8.1c7.3,3,8.3,8,8.4,15.6c-1.5-4-2.6-6.8-3.6-9.7c-0.2,0.1-0.4,0.1-0.6,0.2c0.4,2.5,0.7,5.1,1.1,7.6
		c-0.2,0-0.4,0.1-0.5,0.1c-0.3-1-0.6-2.1-1.2-4c-0.1,2.4-0.2,3.9-0.3,5.3c-4.5,0.9-5.1-3.1-8-7c1.2,3.7,1.9,5.7,3,9
		C289.4,245.7,288,244.3,286.7,242.9z"/>
	<path d="M503.5,382.3c-12.1-6.3-23-10.9-28.9-22.3c3.8,3.1,7.6,6.2,11.4,9.3c-3.3-5.4-5.9-10.9-8.8-17.3
		c10.2,5.9,15.6,16.5,28.2,20.8c-6-0.4-9.5-2.2-14.8-5.4C495.4,372.9,498.8,376.9,503.5,382.3z"/>
	<path d="M575.2,514.7c-9.6-1.5-14.4-9.8-21.9-13.7c2.2,0.7,4.4,1.3,6.7,2c-2-2.5-4.2-3.7-7.3-4.7c-3.2-1.1-6.1,0.1-9.1,0.8
		c-2.9,0.7-5.6,2.3-8.8,1.7C549,490.1,563.5,493.2,575.2,514.7z"/>
	<path d="M311.5,246.7c2.1-8.3,6.9-13,14.8-16c-2.2,1.8-3.8,3.1-5.4,4.4c10.9-4.5,21.9-3.2,34.1-2c-12.7,2.9-24.9,4.2-35.6,11.2
		c2-3.3,5.1-4.3,7.9-5.4c2.8-1.1,5.8-1.9,8.6-3.1C327,237.2,319.1,240.6,311.5,246.7z"/>
	<path d="M321.8,322.5c0,1.1,0,2.3,0,3.4c-0.3,0.1-0.5,0.2-0.8,0.3c-1.1-2.9-2.8-5.8-3-8.9c-0.3-3.4-2.6-5.5-3.6-9.1
		c-1.4,3.9-0.1,7.1-0.4,10.2c-3.8-16.6,4.4-31,8.2-46.7c1.3,3.3-1,18.9-3.3,23.4c-0.1-1.6-0.2-2.7-0.5-5.8c-1.2,6.3-4,10.5-1.9,16.5
		c1.2-2.4,1.9-3.7,2.6-5c0.2,0.1,0.4,0.1,0.6,0.2c-0.4,1.6-0.8,3.1-1.4,5.7c1.3-2.3,2.1-3.7,3.5-6.1
		C320.9,308.7,317.5,315.8,321.8,322.5L321.8,322.5z"/>
	<path d="M332.4,242.9c8.2-7.7,17.9-8.5,28.4-5.7c-2.5,0-4.9,0-7.4,0c5.4,1.1,10.6,2.6,16.6,6.6C356.4,240,344.4,239.1,332.4,242.9z
		"/>
	<path d="M307,246c-0.3-2.1-0.5-3.6-1-6.8c-0.5,2.6-0.8,3.7-1.2,5.9c-2.2-6.3-3.8-11.8-8.2-16.6c4.9,1,8.2,3.2,10.9,6.7
		c-0.4-1.2-0.8-2.4-1.8-5.5c2.2,3.4,3.3,5.1,4.6,7c0.6-0.5,1.3-1.1,2.1-1.8c0.5,1.6-2.2,3.3,0.4,4.9c-1,2.2-2.1,4.8-3.6,8.3
		c-0.3-2.1-0.5-3.3-0.7-4.6C308,244.5,307.6,245.1,307,246z"/>
	<path d="M232.4,257.8c11.1-5.1,42.6,5.4,49.7,14.7C266.8,263.3,250.9,256.3,232.4,257.8z"/>
	<path d="M148,394.6c-5.5,11.2-9.8,22.7-12.3,35.6C132.5,415.3,138.5,404.3,148,394.6z"/>
	<path d="M285.9,301.8c-3.5-10.3-10.5-18.4-16.6-27.2C277.2,275.3,286.8,290.6,285.9,301.8z"/>
	<path d="M246.6,249.5c12-4,28.7-2.7,34.3,2.8C269.5,248.9,258.3,251.6,246.6,249.5z"/>
	<path d="M331.2,267.9c0.3-1.6,0.6-3.1,1-5.6c-1.7,1.4-2.8,2.4-4,3.4c-0.2-6,8.9-14.1,16.5-15.1c-1.5,2.2-4.7,2.4-5.7,5.3
		c2.9,0.2,5-3.3,7.9-1.4c-0.6,0.3-1.2,0.6-1.9,0.8C338,256.8,334.3,262,331.2,267.9L331.2,267.9z"/>
	<path d="M321.5,265.4c-3.1,11.6-6.1,22.7-9.1,33.8C315.2,288,311.4,275,321.5,265.4z"/>
	<path d="M331,276.1c-2.5,6-2.9,12.9-8.4,19c1.7-10.4,3.1-19.4,8.5-27.2c0,0-0.1,0-0.1,0C331.3,270.6,329.6,273.4,331,276.1
		L331,276.1z"/>
	<path d="M271.9,272c2,1,4,2.1,6,3.1c1-1.8-0.6-2.3-1.6-3.8c9.4,4.2,13.6,11.7,16.5,20.3C288.4,282.3,279.4,277.9,271.9,272z"/>
	<path d="M212,484.8c5.9-11.3,11.7-22.7,23.7-29.2C226.1,463.9,219.5,474.7,212,484.8z"/>
	<path d="M344.5,246.8c-7.5,2.9-12,9.6-18.7,15.1C327.9,252.4,335.2,246.7,344.5,246.8z"/>
	<path d="M249,253.9c8.9-4.6,26.2-1.7,33.6,5.9C272.2,253,260.4,254.9,249,253.9C249,253.9,249,253.9,249,253.9z"/>
	<path d="M370.8,262.2c-4.9,6.3-13,7.4-18.1,14.6c0.7-4.9,3.9-6.3,6-9.2c-1.4,0.6-2.3,1-4.5,1.9C359.4,264.3,364.3,262,370.8,262.2z
		"/>
	<path d="M235,380.7c7-7.6,15.6-11.7,28.1-11.9C252,372.3,243.5,376.5,235,380.7z"/>
	<path d="M378.4,465.3c2.2,3.2,4.3,6.4,6.6,9.7c0.6-1.6-1.5-3,0.3-5.1c3.4,6.9,4.8,14,6.1,21.2C388.1,481.9,383.1,473.6,378.4,465.3
		z"/>
	<path d="M254.6,255.9c10.1-0.2,20.2-0.9,28.6,6.3C274.1,258.1,264.1,258.4,254.6,255.9z"/>
	<path d="M129,460.9c-4.2-10.3-3.3-20.6,0.4-30.8C128.5,440.4,127.7,450.7,129,460.9z"/>
	<path d="M293.7,352.7c-1.8-7.3-4.9-13.2-10.3-18.3C290.8,335.9,296.3,345.6,293.7,352.7z"/>
	<path d="M339.2,493.9c-6.5-4.3-12.5-9-15.5-16.6c4.3,4.1,8.7,8.2,13,12.3C337.8,491,339.5,491.9,339.2,493.9z"/>
	<path d="M240.2,371.9c5.6-5.8,12.3-8.2,20.8-7c-2.1,0.7-3.6,1.2-6.9,2.2c2.7-0.2,3.6-0.3,6.4-0.5c-4.3,1.3-6.8,2.1-10.4,3.2
		c1.3-1.1,1.8-1.6,2.8-2.4C248.1,368.5,243.9,369.4,240.2,371.9z"/>
	<path d="M138,438.4c-1.6-10.7,0.4-20.6,7.2-29.2C141.4,418.5,138.5,428.1,138,438.4z"/>
	<path d="M321.8,322.6c-0.7-3.4-0.7-6.6,1.6-11.5c0,4.3,0,6.9,0,9.5c0.2,0,0.5,0,0.7,0c0-2.3,0-4.5,0-6.8c0.4,0,0.7-0.1,1.1-0.1
		c0.3,4.5,0.7,9.1,1.2,15.3c-1.4-2.4-2-3.5-2.8-5c-0.1,1.5-0.1,2.6-0.2,4.8C322.6,326.1,322.2,324.3,321.8,322.6
		C321.8,322.5,321.8,322.6,321.8,322.6z"/>
	<path d="M230.1,499.5c7-9,14.7-15.5,22.7-21.7C245.6,484.7,239.4,492.8,230.1,499.5z"/>
	<path d="M337.6,284c0,0.9,0.1,1.7,0.1,2.6c-0.6,1.6-1.2,3.2-1.9,5c-2.5-4.4-0.4-13.8,4.3-18.7C339.1,277.1,338.3,280.5,337.6,284z"
		/>
	<path d="M370.5,503.3c-5.9-5.6-11.9-11.2-17.8-16.7c0.5-0.5,0.9-0.9,1.4-1.4c6,5.5,12.8,10.2,17,17.5
		C370.8,502.9,370.6,503.1,370.5,503.3z"/>
	<path d="M490.9,451.3c0.6-8.7-0.5-16.5-2.6-25C492.9,430.8,494.2,443.9,490.9,451.3z"/>
	<path d="M345.2,255.4c0.6-0.3,1.2-0.6,1.9-0.8c1.4-0.6,2.8-1.1,4.2-1.7c-10.1,4.9-14.9,14.3-20.1,23.2c0,0,0.1,0,0.1,0
		C333.5,267.6,337.3,260.1,345.2,255.4z"/>
	<path d="M145.6,416.8c-2.3,7.8-2.9,15.7-3.2,23.8C140.2,432.2,140.6,424.2,145.6,416.8z"/>
	<path d="M141.3,473.5c-5.4-4.7-7.4-11-8-17.8C136,461.6,138.7,467.6,141.3,473.5z"/>
	<path d="M218.5,461.5c4.5-5.5,9.2-10.8,16.4-13C229.5,452.8,224,457.2,218.5,461.5z"/>
	<path d="M286.7,320.4c1.1-4.8-2.5-9.8,0.7-15C289.8,310.9,289.5,315.8,286.7,320.4z"/>
	<path d="M252.5,430.7c-4.3,3-8.7,5.7-15,7.6C242.7,434,247,431.2,252.5,430.7z"/>
	<path d="M236.1,265.7c7.5,0,13.5,1.2,19.3,3.5C249.4,267.7,242.9,269.8,236.1,265.7z"/>
	<path d="M561.3,524c-3.5-5.6-6.2-10-9-14.4C556.2,513.3,561.1,516.3,561.3,524z"/>
	<path d="M346.6,459.5c4.7,5.5,9.4,11,14.1,16.5C357.6,475.3,352.5,469.5,346.6,459.5z"/>
	<path d="M221.6,264c-1.5-0.1-2.9-0.3-5.3-0.5c6.8-2.7,13-2.8,19.4-2.1C230.6,260.3,226.6,264.8,221.6,264
		C221.5,263.9,221.6,264,221.6,264z"/>
	<path d="M225.5,485.1c-0.4-6,2.7-10.4,6.3-14.7C229.7,475.3,227.6,480.2,225.5,485.1z"/>
	<path d="M306.9,316.5c-3.4-5.1-3.1-12.2,0.5-17.8C305.9,304.7,305.7,310.1,306.9,316.5z"/>
	<path d="M298.4,344.3c-0.3-5.3-1.9-9.1-4.2-13C298.7,333.1,300.8,338.9,298.4,344.3z"/>
	<path d="M263.9,398.7c0.5-0.1,1.1-0.3,3.2-0.9c-3.6,0-5.5,0-7.5,0c4.6-1.4,9.2-1.9,14.8,0.6c-4.2,0.3-7.2,0.5-10.2,0.8
		C264.1,399,264,398.8,263.9,398.7z"/>
	<path d="M489.2,409.3c-2.3-4.5-2.4-9.4-2.6-15.7C489.5,399.5,489.1,404.4,489.2,409.3z"/>
	<path d="M370.5,503.3c0.2-0.2,0.4-0.4,0.6-0.6c3.8,4.5,7.1,9.3,9,16C376.5,513,373.5,508.2,370.5,503.3z"/>
	<path d="M312.6,343.1c-0.7,3.8-1.5,7.5-2.5,13.1C308.1,350,310.1,346.5,312.6,343.1z"/>
	<path d="M380.6,513.3c-3.6-5.5-6.7-10.3-9.8-15.1C374.6,502.6,379.2,506.4,380.6,513.3z"/>
	<path d="M309.9,274.4c0.7-7.9,3.2-12.8,7.8-16.5C314.5,262.4,312.2,267.3,309.9,274.4z"/>
	<path d="M362.6,419.1c-5.8-1.5-11.8-0.8-17.7-1.2C350.9,416.6,356.8,416.4,362.6,419.1z"/>
	<path d="M476.7,516.5c0.4,0.8,0.8,1.7,1.3,2.5c1.8,4.1,3.5,8.2,5.3,12.2c-0.1,0.1-0.2,0.1-0.3,0.2c-3-5.5-6-11.1-9.3-17.3
		C475,515.2,475.8,515.9,476.7,516.5z"/>
	<path d="M152.2,400.7c-0.8,3.9-1.6,7.9-2.7,13.6C148.2,408.1,149.1,404.1,152.2,400.7z"/>
	<path d="M335.1,398.2c4.4-1.1,8.6-0.5,12.5,2.1C343.4,399.7,339.3,398.9,335.1,398.2z"/>
	<path d="M486.9,385.2c3.6,5.6,4.8,10.2,4.2,17C489.5,396,488.4,391.4,486.9,385.2z"/>
	<path d="M346.1,483.9c-1.4-1.5-2.7-3-4.1-4.4c0.2-0.2,0.4-0.4,0.6-0.6c1.4,1.5,2.7,2.9,4.1,4.4l0.1,0
		C346.6,483.5,346.3,483.8,346.1,483.9L346.1,483.9z"/>
	<path d="M346.7,483.3c0.3,0.4,1.5,0.6,0.5,1.4c-0.1,0.1-0.7-0.5-1.1-0.8c0,0-0.1,0.1-0.1,0.1C346.3,483.8,346.6,483.5,346.7,483.3
		L346.7,483.3z"/>
	<path d="M527.8,530.1c2,7,5.3,13.7,5.8,21.7c-2-4.8-3.8-9.1-6.1-14.7c0.3,5.9,0.6,10.4,0.9,14.8c0.7-6.7-4.3-11.4-5.9-18
		c0,5.5,0,10.4,0,15.2c-0.2,0-0.4,0-0.6,0c0-6.6,0-13.1,0-19.8c1,1.4,2,2.7,3.4,4.6c0-2.4,0-4.1,0-6.1c0.9,0.4,1.5,0.7,2.1,1
		C527.5,529.4,527.7,529.8,527.8,530.1z"/>
	<path d="M288,470.2c-5.5,11-12.4,20.5-24.8,24.6c8.3-4.7,16.6-9.4,19.9-19.3C284.8,473.8,286.4,472,288,470.2z"/>
	<path d="M65.5,546.2c1.1-6.8,5.2-11.9,10.1-18.6C73.5,535.9,69.9,541.2,65.5,546.2z"/>
	<path d="M79.8,533.8c1-1.4,1.6-2.3,2.7-3.9c-1,3.9-1.7,7-2.9,11.8c0.2-3.2,0.3-4.7,0.4-6.8c-1.5,1.9-2.7,3.3-4.2,5.3
		c-2-4.5,1.8-6.4,3.4-9.7C79.3,531.8,79.5,532.5,79.8,533.8z"/>
	<path d="M168.8,369.3c-0.8-9.6,3-15.6,8.2-22.8C174.1,354.5,171.8,361,168.8,369.3z"/>
	<path d="M173.4,375c-0.8,6.3-2.8,12.4-2.8,19.1C167.8,387,171,381.1,173.4,375z"/>
	<path d="M510.3,569.5c-1.8-13.3-3.3-25.6,0-38C511.3,543.9,513.4,556.1,510.3,569.5z"/>
	<path d="M516.3,555.3c-0.6-4.6-1.1-9.2-1.9-15.7c-0.3,3.1-0.4,4.3-0.4,4.4c0-4.6,0-10.4,0-16.1c0.2,0,0.4,0,0.5,0
		c0.4,1.6,0.7,3.2,1.3,5.8c0.2-2.1,0.3-3.2,0.5-5.2C517.8,538,517,546.6,516.3,555.3z"/>
	<path d="M503.5,503.7c3.9,3.7,7.6,6.7,6.6,12.2c-0.4-1.2-0.8-2.2-1.6-4.6c0,2.6,0,3.8,0,5.9c-0.6-1.3-0.8-1.7-1.3-2.6
		c-0.4,1.5-0.7,2.6-1.1,4.2c-0.4-1.3-0.6-2-1.1-3.7c-0.4,1.7-0.6,2.6-0.9,3.8c-2.7-4.5,0.5-9.9-2.7-14.2c0.7,1,1.3,2.1,3,4.8
		C504,506.4,503.8,505.3,503.5,503.7z"/>
	<path d="M521.8,505.9c-0.6-1.1-1.2-2.1-1.8-3.2c5.7,3.1,8.1,8.5,11.2,16c-3.7-4.9-6-8-8.4-11.2C522.5,507,522.1,506.5,521.8,505.9z
		"/>
	<path d="M521.8,505.9c0.3,0.5,0.6,1.1,0.9,1.6c0.6,2.1,1.2,4.1,1.8,6.2c-3.1-2.9-5.7-6-6.7-10.6
		C519.5,504.3,520.7,505.1,521.8,505.9z"/>
	<path d="M519,527.8c1,6.4,1.7,12.8,0,19.3C519,540.6,519,534.2,519,527.8z"/>
	<path d="M120.2,545.8c-1.5-2.7-1.1-5.9-5-6.5c-2.3-0.3-1,2.2-2.6,1.7c1.4-2.5,1.5-7.5,5.5-5.8C122,536.7,121.8,541.4,120.2,545.8z"
		/>
	<path d="M128.2,518.4c-2.4,6.1-2.9,11.6-3,17.2C124.8,530,123,524.1,128.2,518.4z"/>
	<path d="M116.9,529.8c0.5-5.5,2-9.2,6.2-12.2C122.1,522.2,119.8,525.5,116.9,529.8z"/>
	<path d="M378.5,374.9c5.1,3.4,8.9,7.6,10,15.8C383.7,385,382.7,378.9,378.5,374.9z"/>
	<path d="M396.7,391.9c-2.3-4.4-4.6-8.8-7.7-14.9C394.5,381.8,397.1,386,396.7,391.9z"/>
	<path d="M382.6,388c-2-3.3-4.1-6.6-6.1-9.9C380.8,379.8,382.6,383.3,382.6,388z"/>
	<path d="M47.2,541.5c1.1-7.3,1.1-14.8,3.8-21.8C50.3,527,50.2,534.5,47.2,541.5z"/>
</g>
</svg>
