<?xml version="1.0" encoding="utf-8"?>
<!-- Generator: Adobe Illustrator 24.2.3, SVG Export Plug-In . SVG Version: 6.00 Build 0)  -->
<svg version="1.1" id="Layer_1" xmlns="http://www.w3.org/2000/svg" xmlns:xlink="http://www.w3.org/1999/xlink" x="0px" y="0px"
	 viewBox="0 0 595.3 841.9" style="enable-background:new 0 0 595.3 841.9; fill: #215342;" xml:space="preserve"
	 height="300" width="700" transform="translate(-225, -50)">
<g>
	<path d="M123.5,711.8c0.2-14-7.6-22-10.3-32.4c-7.9,6.9-17.8,11.3-17.9,23.4c-0.5-1.8-0.9-3.5-1.3-4.7c-15-0.7-16.2-13.3-20.3-22.7
		c-10.2,4.1-19.7,8.5-24.1,20c6.1-12.7-6-20.1-7-30.6c-6.6,1.8-3.6,7.4-5.1,11.1c-30.8-27.6-31.7-80.1-12-101.3
		c8.4-9,17.6-16,29.8-18.7c2.9-0.6,5.6-1.1,7.8-3.9c14.3-17.7,34.1-20.7,53.4-7.9c6.9,4.5,13.4,9.3,22.7,6.4
		c-1.2-6.5-2.6-12.9-1.8-20.2c-3.2,1.1-5.6,2-9.1,3.2c1.6-12.1,7.4-21.3,14.1-32c-9.8,5.1-18.6,7.8-29.9,10.4
		c5.2-5.2,8.8-8.7,12.4-12.4c-1.8,0.1-3.7,0.3-6.9,0.5c3-2.7,5.1-4.6,8.2-7.4c-7,1.4-12.3,4.3-19.6,3.3c9.6-4.1,17.9-8.4,22.6-17.3
		c-3-0.9-6.3,0.7-8.9-1.9c0.8-1,1.6-2,2.4-3c-2.1-2.9-6.5-2.8-7.8-7c2.4-0.7,4.8-1.4,7.6-2.2c-2.6-1.5-4.9-2.8-7.8-4.4
		c1.9-1.1,3.3-2,4-2.4c-8.9-9.4-17.9-18.8-26.8-28.2c-2.5-2.6-5.3-5.3-0.1-8.2c-3.2-4.4-7.9-7.3-9.2-13.4c5.8,0,11.4,0,18,0
		c-5.2-7.8-10.6-14.2-14.2-21.4c-4.9-9.8-4.7-21-6.2-31.6c-0.2-1.1-0.3-2.2-0.3-3.3c1.2-32-9.1-63.1-6.7-95.1
		c3-40.9,7.5-81.7,15.4-122c2.2-11.1,6.2-22.2,18.7-25.6c11.8-3.1,20.1,4.6,27.4,12.3c19.9,21.2,34.1,46.4,49.3,70.9
		c18.9,30.2,38.5,60.1,53.6,92.6c0.2,0.5,0.8,0.9,2.4,2.8c-0.8-5.2-1.4-8.8-2.3-14.2c5.4,7.3,7.8,14,9.7,21.4
		c1.2,0.2,2.6,0.4,4.1,0.6c0.1,2.7,0.2,5.2,0.4,8.3c11.6-3.5,22.3,1.5,33.8,2.1c2.9-7.1,7.2-13.7,13.6-18.9c2.4,2.5,0.2,5.2,1.4,7.9
		c1.2-0.6,2.5-1.2,4.5-2.2c-0.3,2.6-0.6,4.5-0.9,7.1c4-1.7,7.1-5,11.5-5.2c1.9,3.2-2.1,5.7-0.4,9.4c9.9-3.4,20.2-4.9,30.1-1.9
		c5.4-10.1,8.5-20.8,17.1-30.2c-0.9,4.9-1.5,8.1-2,11.4c8.7-14.5,17.8-28.4,27.4-42c25.1-35.3,47.2-72.7,74.2-106.7
		c7.3-9.1,15.2-17.6,25.6-23.4c14.4-8,24.7-4.4,30,11.1c7.4,21.6,8.7,44.3,11,66.7c2.9,28.9,4.2,57.9,1.1,86.8
		c-0.8,7.7-1.7,15.6-4.2,22.9c-4,11.8-4,24.1-6.2,36.1c-0.4,2-0.6,4.1,3.8,2.3c-7.4,12.1-1.6,26.2-11.8,36.4
		c6.5,1.5,5.6,4.8,3.5,8.1c-5.1,8.2-10.5,16.3-15.8,24.7c4.1,2,8.9-1.9,13.2,0.7c-1.5,5.6-6.4,8.4-9.4,12.9c1,1.1,1.9,2.1,2.9,3.4
		c-3.4,5.7-8.7,9.4-13.1,13.9c-5.4,5.6-10.9,11.1-16.5,16.6c-2.1,2.1-2.5,3.9,1.7,5.6c-4.8,2-8.6,3.6-12.5,5.2
		c-0.3,1.9,2.2,1.2,2.9,2.5c-2.2,1.5-1.5,3.4-0.6,5.6c-1.8,0.8-3.5,1.6-5.4,2.4c3,5.4,9,7,13.7,11.4c-3.6-0.5-6.3-0.8-10.5-1.4
		c7.1,6.3,15,7.5,21.9,11.1c-5-0.6-10-1.2-16.4-2c2.2,2.1,3.3,3.1,5.1,4.9c-4.1-1.4-7.2-2.4-13.1-4.5c7.5,6.4,12.7,10.9,18,15.4
		c-0.2,0.5-0.5,1-0.7,1.5c-8.5-3.1-17-6.3-26.8-9.9c6.7,10.6,11.9,20.4,14.2,31.6c-4.4,1.1-6.7-2.4-10.4-3c0,6.1,0,12,0,18.1
		c7.8,1.2,14.6-0.8,21.5-5.1c18.3-11.5,36.3-12.5,48.6,1.1c10.1,11.1,24.3,11.9,35,20.5c20.7,16.7,29,50.3,17.1,74.1
		c-2.2,4.4-3.8,8.6-4,13.5c-0.2,3.6-1.9,6.8-4.4,9.3c-4.1,4-9.5,6.6-11.5,13.7c-2.7-4.7-0.8-9.2-5.3-13.5c1,12.1-13.6,18.6-8,31.4
		c-2.8-4.5-4.9-9.8-8.7-13.1c-3.9-3.4-9.5-4.7-14.9-7.1c-4.2,9.8-6.2,21.5-19.5,23.4c-0.5,1.8-0.9,3.5-1.3,5.2
		c-0.4-12.5-12.4-15.7-18.8-24.9c-2.3,11.3-11.3,18.7-11,30.6c0-12.2-9.6-13.8-17.1-17.6c-1.7-0.9-3.7-1.7-4.8-3.1
		c-10.1-13-24.1-12.5-38.4-11.6c-2.7,0.2-5.5,0.5-8.1,0c-21-4.2-36.1,4.7-48.7,20.6c-5.6,7.1-7.1,15.5-10,23.5
		c-12.8,35.6-67.5,47.6-94.4,20.6c-8-8-11.7-18.3-13.9-28.9c-3.4-16-15.1-28.4-26.7-33.7c-14.4-6.5-34.1-5.7-49.4-0.1
		c-11.1,4-19.6,16-31.7,21.2C126.6,699.2,126.1,705.1,123.5,711.8z M240.2,461.9c5.4-5.4,5.3-11.8,2.2-18
		c-4.3-8.4-11.5-11.9-21-10.7c-9.5,1.2-17.9,10-18.5,19.7c-0.7,10,4.5,16.9,14.6,19.4C226.4,474.5,237,469.6,240.2,461.9
		L240.2,461.9z M309.4,495.4c5.9,14.5,15.5,22.3,24.6,31.6c-5.9-1.7-11-3.2-16-4.7c25.9,14.6,48.4,32.1,59,61.4
		c-0.7-12.2-5-23-12.2-32.8c-7.1-9.6-16.2-17.4-24.2-26.2c19.9,13.7,38.6,28.3,43.9,55.4c3.7-6.9,6.5-12.1,10.8-16.2
		c3-2.8,5.9-6.8,10.5-5.1c5,1.9,4.8,7,4.8,11.5c0.2,8.1-3.9,15.1-5.4,22.8c1.1-1.9,2.2-3.7,3.3-5.6c-14.3,23.9-15.7,52-24.9,77.9
		c5.3,0,10.4,0,15.8,0c-1.3-3.6-2.4-6.7-4.3-11.9c4.7,5.5,7.4,9.7,12.7,12.3c-0.4-2.5-0.6-3.9-1.1-6.8c7,5.9,13.8,8.5,22.5,6.2
		c-15.3-25.9-13.4-52.5-5.4-79.8c2.8-9.6,5-19.6,3.5-30.1c-1.4-9.2-4.1-17.7-10.1-27.9c9.9,9.5,12.6,19.8,14.8,30.8
		c4.3-4.1,8.2-7.8,13.2-8.8c6.3-1.2,7-4.8,6-10c-1.8-9-3.6-18-5.5-28c4.4,3.9,6.1,9.2,12.9,11c-4.1-7.2-7.2-13.6-11.2-19.4
		c-6.9-9.9-14.9-18.8-26.3-23.7c-6.1-2.6-20.6,3-20.8,7.8c0.8,0.9,1.7,1.9,1.5,1.7c-5.1,12-9.3,23.8-20.7,30.8
		c3.1,0.6,6.2,1.3,11.3,2.4c-14.6,1.9-24.7-3.4-31.5-12.9c-17.5-24.4-30.1-51-30.1-81.9c0-6.5,2.1-13.1,1.3-19.4
		c-1.7-13.7,2.3-20.6,15.3-23.6c3.8-0.9,7,0.2,10.7,2.3c-2.7,1.2-4.7,2.2-7.2,3.3c24.6,6,43,24.3,47.6,48.5
		c2.5,12.9,8.9,22.6,19.2,30.1c1.8,1.3,2.3,2.4,0.8,4.2c4.4,1.6,8.3,3.7,13.4,3.6c-1.5-3.6-2.9-6.9-4.7-11.2
		c3.8,3.1,3.5,7.7,8.7,10.4c-4.8-10.5-8.8-19.7-10.7-29.8c4.2,1.9,1-3.2,4.1-3c2.6,0.7,6,1.7,10.2,2.8c-2.9-5.1-3.8-10.4-8.4-13.9
		c-1.5,1.9-2.8,3.5-4.4,5.5c-1.4-10.1-1.9-19.7-5.1-28.8c-0.9-2.6-2.5-5.3,0.8-6.3c0.7-9.5-10.1-11.4-10.5-19.8
		c0.6-13.5-11.3-19.2-18.2-28.3c3.5,2.6,7.1,5.2,12.2,8.9c-7.7-15.2-17.9-24-35.6-25.8c4-2,5.6-2.9,7.8-4
		c-6.8-1.8-12.5,2.8-21.1,0.8c7.6-2.4,12.8-4,18.8-5.9c-8-2.2-14.5,4.3-21.8,1c-4.3,5.8-11.9,5.7-17.7,9.1c3.6-2.3,7.3-4.6,10.9-6.9
		c-13.2,2-22.5,9.6-30.2,19.6c-7.8,10-11,22.3-16.5,35.9c0-5.6,0-8.8,0-13.6c-1.4,3.2-2.1,4.9-3,7.1c-0.4-2.1-0.6-3.5-0.9-5.2
		c-1.7,0.3-3,0.5-4.2,0.6c-10.7-25.6-31.7-47.9-42.6-44.9c5.3,3,10.9,5.3,15.2,10.7c-12.4-6.4-23.4-14.6-33.1-13.9
		c-10,9.4-16.6,16.5-24,22.4c-8.5,6.8-16.5,14-22.9,23c1.9-1.8,3.9-3.6,5.8-5.4c-7,9.7-15.3,18.3-20.1,29.6
		c4.8-5.8,9.6-11.6,14.3-17.2c-9.1,21.7-25.5,39.4-33.2,62.7c1.6-0.8,2.4-1.3,3.7-2c-0.6,5.2-4.4,9.8-0.5,14.7c1-0.5,2-1,3-1.5
		c0.7,2.1,1.2,3.8,2.4,7.4c1.1-4.1,1.7-6.2,2.3-8.5c0.7,6.1-0.3,11.7-1.6,17.3c-0.5,2.1-0.8,4.6,1.6,6c2.2,1.3,4-0.1,5.7-1.4
		c11.4-8.9,20.8-18.2,23.7-34c5-27.1,23.2-43.5,49-51.8c-1.8-0.6-4.1-1.3-6.6-2.1c8.4-6.3,16.5-1.3,22.2,2.4c6,4,4.1,12.8,3.5,21.5
		c-1.2-2.8-1.8-4.2-2.3-5.5c0.4,4.7,1.7,9.1,2.4,13.5c5.6,33.7-9.9,61-27.4,87.6c-5,7.5-11.9,13.4-20.7,16.2
		c-4.3,1.4-8.7,2.7-13.9,0c7.1-2,14.4-2.1,20.3-8.9c-19.7,0.5-18.8-21.2-32.9-26.1c3.4-0.7,5.4,3,9.6,1.3c-4.3-5.3-8.9-8.5-15.6-7.5
		c-8.3,1.2-15.5,4.7-21.2,11c-7.7,8.5-14.5,17.6-19.5,30.8c4-3.8,6.1-5.8,9.3-8.8c-2.7,11.3-5.7,21-4.1,31.4c0.9,5.6,3.7,7.5,9,7.8
		c1.4-10,3.7-19.5,11.4-26.6c-2.6,5.3-5.3,10.6-6.3,16.4c-0.8,4.9-3.3,10.6,0.3,14.8c6.2,7.2,8.3,15.5,9.8,24.5
		c3.1,19.4,11.6,37.9,8,58.3c-1.5,8.7-4.6,16.8-8.6,25.2c7.1,1.2,10.4-4.6,15.6-7.4c-1.2,2.5-2,4.3-3.4,7.2c3.6-2.6,6.3-4.5,10-7.2
		c-1.7,3-2.6,4.7-3.6,6.5c2.3,0.9,4.1,1,5.9-0.2c1.5-1.1,3-2.2,4.5-3.4c1.6,1.9,2,5,4.1,3.6c-6.2-27.8-9.8-56.1-25.2-80.5
		c1.4,1.8,2.9,3.6,5.2,6.4c-2.7-8.4-5.1-15.4-7.1-22.5c-0.8-2.8-1.3-6.3,1.9-8.3c3.2-2,6.3-0.3,8.7,1.8c3.1,2.7,6.1,5.7,8.6,8.9
		c3.2,4,5.9,8.3,9.5,13.5c6.7-29.4,28.3-45.3,49.3-61.6c-8.9,10.1-18.8,19.3-27.1,29.7c-8.5,10.7-14.6,22.9-14.4,39.4
		c2.6-12.5,5.6-22.5,12.7-32.6c-1.3,4.6-2.1,7.7-3,10.8c14.6-24.1,36.7-38.8,60.9-51.3c-4,0.6-7.5,2-11.1,3.2c-1.5,0.5-3.4,2-4.7,0
		c-1.3-2,0.1-3.5,1.7-4.9c4.4-3.7,8.8-7.5,13.5-11.7c-2-0.2-3.3-0.3-5.1-0.5c1.7-6.2,8.5-8.1,10.7-14.9c-4.1,2.9-7.2,5.1-12.4,8.7
		c8.1-13.6,14.6-24.9,20-37.9c0.8,3,1.3,5.1,1.8,7.3c3.6-1.7,2.9-5.9,6.1-8.3c3.8,14.6,9.5,28,16.3,42.7
		C314.6,499.9,313.1,498.6,309.4,495.4z M458,218.2c-9.8,14.5-20.5,26.9-26.6,42.7c4.1-0.9,6.3-4.6,10.7-4.1c-1.1,1.9-1.9,3.3-2.9,5
		c1.4,0.1,2.3,0.2,3.8,0.4c-5.5,5.9-10.6,11.6-12.8,20.5c4.9-3.3,8.9-6,12.9-8.7c0.2,0.3,0.5,0.5,0.7,0.8c-4.2,5-8.3,10-12.5,14.9
		c0.2,0.2,0.4,0.4,0.6,0.6c1.6-1.1,3.1-2.3,4.7-3.4c-7.5,10.9-3.5,24.7-9.8,35.7c1.8-1.4,3.6-2.7,6.4-4.9c-1.6,7.1-2.8,12.7-4,18.2
		c2.1,0.8,3.1-1.9,4.7,0.2c-0.7,3.7-1.4,7.6-2.3,12.2c2.2-0.6,3.3-0.8,4.5-1.1c0.3,3.5-2.6,5.3-3.5,7.9c1.6,1.8,3.1,3.6,5,5.8
		c-1.7,1.2-3,2.1-4.4,3c5.5,5.8,0.4,15.2,9,19.2c-2.1,1.4-3.1,2.1-4.5,3c4.8,7.6,8.4,15.6,14.3,22.1c2.4-1.7,2.3-3.9,2.7-5.9
		c1.9-9.7-2.8-19.2-0.4-28.9c0.6-2.4-0.1-5.3,2-4.9c8.1-8.8,8-19.3,10-29.4c5.3,16.8-2.8,33.2-2.2,49.8c0-5.1,0-10.3,0-15.4
		c-3.6,14.3,4,28.9-1.9,43.1c-0.1,0.3,0.4,0.8,0.6,1.3c2.2,5.7,0.6,10.8-4.6,13.3c-7.7,3.7-9.2,8.4-5,15.5c2.1,3.6,3.7,7.5,6.1,10.8
		c2.2,3.2,5.3,3.5,7.3-0.4c2.6-5,6-9.4,9.8-13.5c5.4-5.7,10.6-11.5,15.7-17.1c-1.8,0-4.4,0-7.9,0c6.6-5.2,12.3-9.7,18.8-14.8
		c-5.5-0.9-10.4,1.5-14.9-1.9c7.2-10.3,16.2-19.1,20.4-30.5c2-16.8,5.7-33.2,7.4-52.1c-4.5,8.5-8.5,14.7-15.1,22
		c1.2-2.9,1.4-3.7,1.7-4.4c10.1-18.8,15.3-39.5,19-60c6.8-38,2.5-76.3-1.8-114.3c-1.2-10.4-2.4-21-14.5-28c7,37.4,4.5,73.4-3,109.2
		c0-35-1.2-69.9-8.5-105c-5.8,4.2-9.1,9-12.6,14.3c2.7,0.1,5-1.7,7,1.4c-4.1,7.3-12,11.3-17,18.2c1.4,0.7,2.5,1.3,4.3,2.3
		c-4.5,4.9-8.7,9.4-12.9,13.9c1.7,0.9,3.7-0.1,4.6,2.3c-9.9,7.9-20,15.8-24.3,29.8C447.8,225,451.4,220.6,458,218.2z M94.2,144.4
		c-0.6,1.9-1.3,3.6-1.6,5.5c-5.8,29.7-9.5,59.7-12.3,89.7c-2.3,24-2.9,48,4.8,71.4c3.7,11.4,7,22.9,11.3,37.2
		c-4.9-7.5-8.2-12.6-12.2-18.8c2,30.9,1.5,61.1,29.8,81.9c-8.1,3-14.3,2.2-22,1.6c7.3,6.3,13.6,11,23.1,14.9c-6.4,0-10.3,0-15.8,0
		c12.1,10.1,22.7,19.8,31.3,33.2c3.3-10.4-6.4-12.8-8.7-19.1c6.3-2.5,12-5.5,16.7-10.4c-0.9-1.1-1.5-1.8-2-2.6
		c-4.6-7.3-10-17.1-7.3-23.3c4-9.2,1.5-17.3,1.5-25.6c0-10.7-5-21-4.4-32c0.2-3.4,0-7.1,3.6-10.5c0.8,9,1.6,17.3,4.1,25.1
		c1.7,0.8,3.5-1.5,4.2,0.5c12,14.8,1,33,7.7,49.3c2.1-2.4,4-4,5.1-6c1.7-3.2,8-5.6,2.3-10.5c-4-3.5-4.3-6.2,1.7-7.5
		c1.1-0.2,2.1-1.1,3.2-1.7c-1.6-2.9-5.2-3.6-5.3-7.3c3.6-2.8,9.9-3.4,8.4-11c-0.9-4.9-1.3-10.4,1.2-15.2c2.1,0,3.7,0,5.7,0
		c-2.3-7.2-5-14-5.3-22.7c2.3,3.3,3.8,5.4,6.5,9.2c-1.2-8.8-2.1-15.3-3.2-23.2c3.1,2.2,5,3.6,7.9,5.7c-3.6-11.5-6.8-21.7-10.3-33
		c6.1,3.7,7.1,10.2,11.8,13.7c7-7.4-1.3-11.2-3.7-16c-2.7-5.4-6.6-10.1-11.5-17.4c5,3.2,7.8,5,10.5,6.7c-1.5-7.8-11.6-11.7-10-22.2
		c-1.1-1.5-3-4.2-5.9-8.3c7.5,3.1,11.2,8.1,17.2,12.9c-4.4-16.7-14.6-28-23.8-40.2c4.3,2.9,8.6,5.7,14,9.3
		c-5.3-13.2-13.6-22.3-23.8-30.8c3-1.1,4.4-1.6,6.2-2.2c-8.4-10-12.1-22.5-23.4-32.4c4.7,0.4,6.6,0.5,9.2,0.8
		c-3.7-6.2-7.3-11.1-13.1-15.4c-6.7,36.2-11.2,71.8-14.4,107.6c-0.8-10.9-1.6-21.8-2.4-32.7c-0.4,0-0.8,0-1.2,0
		c-0.7,5-1.3,9.9-2,15.5c-1.9-27.4-3.2-54.1,2.2-80.7c-0.7,0.8-1.4,1.6-2.5,2.9C97.7,146.6,97.7,146.6,94.2,144.4z M476.6,673.1
		c3-12.9,3.3-25.6,2.3-38.5c-1.1-13.1-5-25.3-10.3-37.3c1,0.3,1.4,1,1.8,1.7c1,1.4,2.1,2.8,3,4.3c10.8,17.4,13.1,36.7,12.5,56.5
		c-0.2,8.2,8,20.9,16.8,24.3c-0.9-2.5-1.6-4.5-2.2-6.6c-0.7-2.1-1.7-4.2-1.8-6.4c-0.4-6,6.4-12.2,10.2-9.4c-0.3,0.8-0.6,1.7-0.9,2.5
		c2.5,1,4.7,1.9,6.8,2.7c4.4-11.6,1.4-35.4-7.8-62.2c4.1,3.5,1.2-1.5,2.6-1.5c5.9,5.4,6.4,13.1,8.8,20c3.6,10.3,6.4,20.8,5.9,31.8
		c-0.4,9.1,5.9,12.1,12.7,16.8c-1.5-5.1-3.2-8.9-3.7-12.8c-1.2-9.6,6.2-12.1,15.2-4.6c0.8-24.8-0.7-48.8-12.9-73.2
		c5.8,4.6,7.8,9,9.9,13.3c8.2,17,11.2,35.1,11.6,53.8c0.1,2.7-0.4,6,3.9,6.4c2.7-5.1,0-12.2,5.8-16.3c-2.2,6.1,2.8,11.3,1.3,17
		c4.6-6,3.6-13.5,6.4-20.2c8-19.7,4.5-39.1-8.8-56.1c-6.5-8.4-15.1-14.1-26.1-17c0.3,3.1,0.6,5.3,1,9.3c-1.5-2.2-2-2.9-2.5-3.7
		c-16.9-28-31.9-31.9-60.3-15.4c-6.5,3.8-13,6-20.9,4.5c-10.8-2-20.3,4.9-22.9,15.6c-2.1,8.8-3.8,17.8-6.1,26.5
		c-5.1,19.6-2.4,38.4,6.7,56.1c6.8,13.3,17.2,23.3,31.2,30.4c-7.1-19.3-6.7-22.9,1.5-24C471.5,664.8,476.4,667.1,476.6,673.1z
		 M132,685.9c21-7.9,38.7-37.6,36.7-62.2c-1.3-17-7-33.3-10.6-49.9c-2.1-9.6-10-15.3-19.5-14.3c-10.3,1.1-17.4-3.3-24.8-8.7
		c-13.6-9.9-28.2-9.1-41.1,1.9c-5.6,4.8-11.6,9.3-17.4,13.9c0.7,0.7,1.3,1.4,2,2.1c0.2-1.8,0.3-3.6,0.5-5.6
		c-31.8,9.6-48.3,45.2-34.3,78.4c13-1.7,9.3,9.9,12.5,15.8c3.9-2.1,3.9-2.1,4.3-6.3c1.3-17.3,2.2-34.7,9.4-50.9
		c1.9-4.2,3.8-8.5,8.8-12.8c-8.7,23.9-11.4,46.7-8.4,70.2c0.6-4.4,2.5-8.9,7-6.7c11.1,5.4,5,14.3,2.5,23.5
		c6.6-4.9,13.7-7.2,13.2-16.8c-0.4-6.7,0.9-13.7,2.4-20.3c2.9-13.2,7.6-25.6,18.6-38c-9.5,23.9-15.2,45.9-12.7,70.4
		c3.6-4.2,6.1-8.3,11.1-6.3c10.5,4.3,3.8,12.6,3.8,20.9c7.3-8,16.3-12.4,15.4-24.4c-0.6-8.8,0.5-17.9,2-26.6
		c2.2-13.2,7.3-25.4,16.4-35.5c-12.9,23.1-13.6,47.8-10.6,74.2c2.2-2,3.3-3.4,4.7-4.3c1.3-0.8,3-1,4.7-1.5c-1-0.7-1.8-1.2-3-2
		C135.3,663.3,135.9,665.6,132,685.9z M382.9,311.9c1.9-0.5,2.9-0.8,4.5-1.2c-1.6,5.9-0.9,10.5,5.8,11.9c4.7,1,6.3,3.8,3.9,8.7
		c2.7-0.1,5.5-0.8,6.7,2.4c-5,2.2-4.6,9.6,0.8,14.1c2.9-7.2,10.7-12.5,7.1-21.5c2.9-1.2,7-2.7,2.8-5.6c-4.1-2.8-3-5.3-2.6-8.8
		c0.6-4.5,4.6-7.1,5.9-11.7c-2.9,1.1-5.5,1.6-6-2.1c-0.6-5-1.1-10-0.7-15.2c1.5-18.5,11.2-34.4,16.8-51.6
		c9.9-30.2,26.6-57.2,43-84.1c7.8-12.9,14.1-27.8,32.5-33.4c-6.6-0.4-10.2,2-13.7,4.4c-6.8,4.6-12.7,10.3-17.5,16.9
		c-39.9,55.5-79.8,110.9-112.9,170.8c-0.2,0.4-0.8,0.7-1.8,1.6c-0.2-3-0.4-5.2-0.4-7.4c-0.1-2.3,0-4.5,0-8.3
		c-6.7,10.8-4.8,16.9,6.3,23.6c5.6-15.8,13.2-30.5,23.2-44.7c0.6,6.9-4.5,11.4-5.7,18.3c1.9-1.7,2.9-2.6,3.9-3.4
		C379.8,294.1,386.6,302.9,382.9,311.9z M214.3,269.2c-4.2-5.7-1.3-13-4.4-18.6c-20.1-35.6-41-70.8-64-104.6
		c-7.4-10.9-14.8-22-26.6-29c-7.9-4.7-15.7-1.8-18,6.2c12.3-6,17.3-5.5,22.4,1.9c27.9,40.4,48.1,84.6,65.2,130.4
		c2.7,7.2,4.1,14.7,6.2,22.1c-0.5,0.1-1,0.3-1.5,0.4c-1.1-3.1-2.2-6.2-3.3-9.4c-0.2,10.9,2.4,21.1,7.9,31.5c-3.4-0.9-3-4.3-6.3-3.3
		c0.4,2.7,0.8,5.4,1.3,8.3c-1.4-0.3-2.5-2.9-3.9-0.6c-1.2,1.9-2.3,4.5-0.4,6.1c2.8,2.2,3.2,5,3.4,8c0.4,6,0.7,12.1,1,18.1
		c0.1,1.6-0.2,3.2,1.8,4c1.9,0.8,3.3,0.2,4.9-0.8c5.6-3.4,6.2-8.9,6.3-14.6c0.1-3.6,0.8-7,4.4-8.3c10.8-3.9,8.6-14.6,9.6-21.8
		c1.3-9.9-4.9-19.7-8-29.6C212.7,266.9,213.5,268.1,214.3,269.2z M249.1,679.5c-2.7,27.1,14.8,49.5,38.1,50.2
		c29.8,0.9,52.7-21.6,51-51.2c-12.1,2.7-24,1-35.5-2c-9.1,9.3-5.7,21.9-10.2,32.5c-0.7-10.5-1.5-21-2.2-31.5c-0.2,0-0.5,0-0.7,0
		c0,4.3,0,8.6,0,15.7c-1.4-7.5-2.3-12.1-3.1-16.7C273.7,677.4,261.8,682,249.1,679.5z M237.8,321.9c19.9-14.4,37.1-11.1,53.5,5.8
		c3.7-10.5,7.1-2.3,10.9,0.3c16.3-18.9,35.7-21.5,57.6-10.2c-17.2-15.6-34.7-15.2-53.2-1.1c0.7-5,1.2-8.9,1.9-14.2
		c-3.2,4.6-5.5,7.9-8,11.6c-4.3-4.6-1.2-10.4-4.2-15c-4.6,6-6.3,12.7-7.6,19.7c-13-9.6-26.4-14.9-41.5-6.6c-4.3,2.4-6.2,1-7.6-2.7
		c-1.5-4-2.7-8.1-5-15c0.5,7.2,0.6,11.3,1.1,15.4C236.3,314.1,237.1,318.1,237.8,321.9z M363.8,450.5c4.7,7.7,8.5,7.7,12.7,0.7
		c0.5-0.9,1.5-1.6,2.5-2c2.9-1,4.7-2.7,4.5-5.9c-0.2-3.2-1.6-6-4.7-7.2c-2.8-1.1-5.7-2-8.7-2.5c-9.9-1.7-20.7,5.9-22.1,15.3
		c-1.5,10.1,7.5,21.7,18.1,23.5c10.8,1.8,21.6-5.3,22.9-15.2c0.6-4.2,0.4-8.4-4.5-10.8c-5.7,18.3-11.9,23.5-23.1,19.7
		c-8-2.7-10.9-9.2-7.9-17.6c2.8-8,9.8-12.1,16.5-9.5c-3.2,3.5-8.5,6.6-2.4,12.8C365.9,451.2,365.2,451,363.8,450.5z M259.8,575
		c4.5,3.1,36.6,5.6,53.3,4.2c-0.8-0.3-1.3-0.5-1.9-0.7c4.5-1.5,9.7,1.4,13.9-2.5C316.7,566.9,268.7,566.2,259.8,575z M213.6,621.3
		c-0.5,24.4,29.1,48.6,52.2,43.1C231.1,647.5,231.1,647.5,213.6,621.3z M319.4,663.3c18,2.2,44-17.7,44.4-35.9
		C355.7,649.3,337,655.1,319.4,663.3z M229.4,301.9c0.9-0.4,1.8-0.7,2.7-1.1c-3.4-12.6-7.1-25.1-15.8-35.6
		C220.7,277.4,225.1,289.7,229.4,301.9z M261.9,738.5c14.3,9.4,29.8,9,45.6,5.5C292,744.8,276.5,746,261.9,738.5z M545.4,673.8
		c3.3-9.1,2.9-15.5-2.1-21.1c-1.2-1.4-3.5-1.4-4.3,1.4C547.2,657.8,544.3,665.3,545.4,673.8z"/>
	<path d="M477.8,315.8c6.3,16.5,1.8,31.1-8.5,47.2C472.4,345.6,475.1,330.7,477.8,315.8z"/>
	<path d="M119.7,316.2c3,14.8,4.2,28.2,4.9,42.1C115.8,351.8,112.7,328.7,119.7,316.2z"/>
	<path d="M240.3,461.8c-5.3,4.3-10.9,6.9-18,4.7c-8.3-2.6-12.8-10.5-10.3-18.8c2.2-7.4,10.3-11.6,19.3-9.1c-5.1,4.4-11,8.6-4.1,15.5
		c1.3,1.3,2.8,1.7,4.4,1c2.6-1.2,0.7-3.3,0.7-5.2c2.4-1.4,4.8-2.7,7.6-4.3C243.7,451.1,242,456.5,240.3,461.8
		C240.2,461.9,240.3,461.8,240.3,461.8z"/>
</g>
</svg>
