<?xml version="1.0" encoding="utf-8"?>
<!-- Generator: Adobe Illustrator 24.2.3, SVG Export Plug-In . SVG Version: 6.00 Build 0)  -->
<svg version="1.1" id="Layer_1" xmlns="http://www.w3.org/2000/svg" xmlns:xlink="http://www.w3.org/1999/xlink" x="0px" y="0px"
	 viewBox="0 0 600 841.9" style="enable-background:new 0 0 600 841.9; fill: #215342;" xml:space="preserve"
	 height="450" width="700" transform="translate(-250, -79)">
<g>
	<path d="M405,312.3c4.2,1.5,6.7,5.6,11.4,7.1c-1.1-8.4-7.9-12.6-12.6-18.4c2,1,4.1,1.9,7.7,3.6c-4.1-3.2-6.9-5.3-9.6-7.5
		c0.1-0.2,0.3-0.5,0.4-0.7c2.6,1.3,5.2,2.7,9.2,4.7c-4.3-6-10.3-8-14.4-13.8c2.7,2.1,4.4,3.3,6.1,4.6c-3.8-6.6-10.5-10.6-13.3-18.4
		c3.3,2.5,6.1,4.7,9,6.9c0.1-0.1,0.2-0.3,0.4-0.4c-2.2-2.1-4.4-4.2-7.3-7c7.3,1.6,10.1,8,16.1,11.1c-2.3-4.6-6.6-6.5-8.7-10.3
		c6.7,5.7,13.2,11.6,21.3,15.2c5.3,2.3,11.1,3.4,16.7,4.9c1,0.3,1.4-0.5,1.5-1.4c0.2-1.8-1.1-2.2-2.3-2.8
		c-7.6-3.6-15.8-6.4-22.2-12.1c-3-2.7-5.7-5.7-9.1-9c7.1,0.5,12.3,4.3,19.3,6.5c-5.2-5.4-10.5-8.3-15.9-11.2
		c-5.4-2.9-11.6-3.3-17.8-6.3c5.4-0.6,10.1-0.6,14.8,0.8c-2.1,0.3-4.1,0.6-7.3,1.1c10.4,2,19.5,4.3,29.8,8.4
		c-6.9-9.2-15-13.4-24.2-16.3c2,0.5,4,1,7.1,1.7c-4.8-5-9.3-8.5-15.8-10.2c1.3,2,3.5,2.3,3.9,4.7c-12.5-4.1-24.3-11.3-38-6.7
		c6.8-3.8,13.9-4.1,21.1-1.6c4,1.3,7.8,2.1,12.3,1.8c7.6-0.6,12.8,4.1,16.4,10.5c0.8,1.4,1.7,2.4,3.2,3c8.7,3.3,15.9,8.8,21.9,15.9
		c3.9,4.6,9.5,6,14.9,7.8c7.2,2.4,14,5.4,19.2,11.1c0.6,0.7,1.2,1.4,2.3,2.7c-4.2-1.7-7.6-3-11.9-4.7c2,2.9,4.3,4.5,4.6,7.5
		c-1.3-1-2.4-1.9-3.6-2.7c-0.1,0.2-0.3,0.3-0.4,0.5c1,1.3,2.1,2.5,3.4,4.1c-5,0.5-9.6,1-14.6,1.5c2.2,4.9,6,1.2,9.3,2.2
		c-4.2,2.6-9.8,4-7.6,10.5c-0.5-1.6-0.9-3.3-1.4-5.2c-1.3,0.6-2.3,1.1-3.4,1.7c0.8,3,2.4,5.7,1.5,9.3c-0.6-1.3-1-2.3-2-4.6
		c0.3,10.9,0.6,20.5-4,30.4c0.8-4.7,1.4-8.3,2.1-12c-0.2,0-0.4-0.1-0.5-0.1c-1.4,5.4-2.8,10.8-4.2,16.5c-0.4-0.6-0.7-1-1-1.4
		c-0.1,0.1-0.3,0.2-0.3,0.4c-0.7,11.4-4.7,21.7-10.3,31.6c-4.6,8.3-2.7,17.1-0.1,25.2c1.3,4.1,6.9,5.6,12,7.4
		c-5.5,0.5-9.8-0.9-15-3.3c3.8,4.7,6.4,9,12.1,11.4c-6.8,0.5-11.4-1.9-15.4-6.1c2,4.7,0.1,8.9-0.9,13.6c-0.3-6.1-3.5-10.1-7.6-13.5
		c3.7,6.6,4.6,15,11.8,19.9c-1.6-0.6-3.3-1.3-5.1-2c0.3,3.3,2.3,5.1,4.8,6.8c-3-0.1-6.1-2.1-9.6-6.3c-2.5-3-4.8-6.2-8-10.5
		c1.9,6,3.4,10.5,4.9,15.1c-2.9-3.6-5.2-7.6-9.5-10c7.6,11.5,5.2,26.3,13.2,38c4.1-6.1,8.2-11.6,13.9-16.2
		c-1.5,6.3-2.8,12.2-4.2,18.1c-0.1,0-0.2,0-0.3,0c0.4-3.9,0.8-7.8,1.3-12.2c-4.5,4.1-4.8,9.1-5.3,14.3c-0.3-1.6-0.5-3.2-1-6
		c-2.3,5.3,0.7,9.6-0.3,14.1c-0.9-3.4-0.6-6.8-2.4-9.6c-3.9,2.3-2.8,11.6,1.2,11.4c1.9-0.1,4.7,1.4,5.6-1.7c0.9-3,1.3-6.2,1.7-8.6
		c0.7,0.5,1.6,1.1,2.7,1.8c0-1.2,0-2.1,0-4.5c0.9,2.4,1.4,3.6,2,5.3c0.5-3.3,1-6.1,1.6-9.6c0.7,1.4,1,2.2,1.4,3
		c1.6-1.5,0.9-3.4,1.3-5.1c0.4-1.7,0.6-3.4,1-5.9c0.7,2.9,1.2,4.9,1.6,6.9c0.1,0,0.2,0,0.3-0.1c-0.1-1.5-0.3-3.1-0.4-4.6
		c2.4,4.3,4,9,8.8,12.6c-4.5-9.5-7-18.8-6.1-28.7c0.2,2.8,0.4,5.5,0.7,9.8c1-5.1,1.7-8.7,2.6-13.5c0.9,3.8,0.2,6.7,1.8,9.1
		c0.4,5.2,1.9,9.7,6.3,12.9c-3.3-4.3-4.9-9.2-6-14.4c0-5,0.3-10.1,1.8-14.9c-2-1-2.8,2.3-5,1c-1.9,1.8-3.3,4.3-4.1,7.1
		c-1.2,3.7-3.2,6.9-5.8,9.7c-2.7,2.9-5.3,1.9-8.7-0.6c3.7,0.5,5.4-0.1,7.4-3.1c5.5-8.5,10.3-17.9,20.1-22.9c2.5-1.3,3.9-4.8,6.2-7.7
		c-1.1,0.3-1.6,0.5-2.2,0.7c0.2-0.3,0.3-0.5,0.4-0.7c9.4-9.9,20.5-14.9,34.3-11.8c0.8,0.2,1.9,0,2.6-0.5c5.8-4,11.8-3,16.5,1.1
		c3.6,3.1,7.3,3.6,11.4,4.3c6.6,1.1,11,5.5,14.9,10.1c-0.2,1.4-2,0.3-1.6,1.9c0.5,1.9,0.5,3.8,2.7,4.9c4.5,2.4,9.2,4.7,11.4,10.5
		c-1.2-0.8-2-1.4-4.3-2.9c12.1,17.6,11,33.5-0.5,49.6c11.4,0,23.1,0,34.7,0c0,2.2,0,4.3,0,6.5c-19.6-0.3-39.2,0-58.7,0.8
		c11.6,0.1,23.3,0,34.9,0.1c7.9,0,15.9,0.1,23.8,0.2c0,0.4,0,0.7,0,1.1c-29.1,0.1-58.2,0.2-87.3,0.3c-20.2,0-40.5,0-60.7,0
		c1.2,0.7,2.3,0.8,3.5,0.8c45.8,0.4,91.5,0.3,137.3-0.3c2.4,0,4.8,0.2,7.3,0.3c0,0.7,0,1.4,0,2.2c-19-0.1-38,0.2-56.9-0.2
		c-28.4-0.7-56.7-1.4-85.1-0.6c-2.5,0.1-5.1,0.7-8.2-0.9c2.2,7.2,3.6,13.6,2.4,20.2c-0.2-5.8-1.2-11.5-3.4-16.9
		c-1-2.4-2.2-3.4-5.7-1.6c-9.5-32.3-30.1-54.2-61.9-65.2c1.2,0,2.5,0,3.7,0c0.5-1.4-2.6-2.4,0.6-4.4c0.8,1.3,1.7,2.8,2.6,4.4
		c0.6-6.8-3.7-12.2-2.1-19.8c0.9,4.4,1.6,7.7,2.3,10.9c0.1,0,0.3,0,0.4,0c-0.1-1.4-0.3-2.8-0.4-4.5c3.1,3.1,2.7,7.3,5,11.9
		c1.6-5.6-1.4-9.4-1.8-14.1c1.2,1.4,2,2.3,2.8,3.2c0.3-0.2,0.6-0.3,0.9-0.5c-2.8-6.2-5.5-12.3-8.7-19.3c4.8,2.4,6.3,6.4,8.9,10.7
		c-0.4-3.2-0.6-5.6-0.9-7.9c2.7,7.6,0.6,16.5,7.1,23.4c0-1.8,0.1-3.5,0-5.1c-0.1-1.7-0.5-3.4-0.1-5.3c1.4,3.4,2.8,6.7,4.5,10.8
		c0.8-5.7-0.5-10.4-1.7-15.1c-1.2-4.9-4-9-7-14.3c4.9,2.2,6.8,5.9,9.9,9.4c-0.6-1.9-0.9-3-1.3-4.2c0.6-0.5,1.9,0.1,1.7-1.4
		c3.3,2.8,4.8,6.7,7.8,10.6c-1.4-5.5-3.8-9.5-6.3-13.4c-3-4.7-6.2-9.3-9.1-14.1c-1.4-2.3-3-3.3-5.8-1.6c1.7,0.6,3.1,1.4,3.6,3.3
		c-2.5-0.6-4.5-2.7-8.1-2.1c5.2,1.9,9.1,4.3,12.7,8.8c-6.9-2.8-11.8-8.3-19.2-6.9c3.2,2.3,4.5,5.5,5.5,9.3c-1.1-1.9-2.2-3.8-3.4-5.7
		c-0.4,0.4-0.9,0.8-1.3,1.2c0.6,1.2,1.2,2.4,1.9,3.8c-2.3,0.1-4-2.5-6.3-0.1c0,0.7-0.1,2-0.2,3.9c-1.4-2.2-3-1.2-5.2-0.7
		c5.3,7.8,7.1,16.5,7.2,24.5c-7.4-16.9-13.9-36.1-37.5-39.1c3.3-3.5,4.5-3.4,17.1,1.4c-1.9-2.3-3.3-4-4.7-5.6
		c-1.4-1.6-2.9-3.2-4.5-4.9c2.3-1.8,5.1,1,7.1-1.3c8.2,6.6,14.7,7,25,1.3c7-3.9,8.7-11.5,4-18.3c-1.4,13.7-6.6,20.5-16.4,21.1
		c-5.6,0.3-10.2-2.4-13.3-7c-3.1-4.5-3.8-9.6-2.9-16c-3.5,5.1-5.5,9.1-0.8,13.5c1.7,1.6,3,3.6,4.5,5.4c-5.5-0.9-10.6-1.6-14.6-6.6
		c-3.4-4.3-8.4-7.1-13.5-9.7c-4-2-5.7-6.6-8.5-10c-1-1.2-1.9-2.4-3-3.5c2.3,4.1,2.8,9,5.4,13c-0.8-1.2-1.6-2.3-2.7-3.9
		c-0.1,0.8-0.1,1.1-0.2,2.1c-3.1-5.6-5.8-10.7-8.6-15.8c-0.3,0.1-0.6,0.1-0.9,0.2c1.6,5.5,3.1,11.1,4.7,16.6
		c-0.2,0.1-0.3,0.1-0.5,0.2c-1.1-3.6-2.3-7.2-3.4-10.8c-0.4,7.2,2,14,1.4,21.1c-0.1-8.4-3-16.3-4.8-24.4c1.4,7.7-0.2,14.9-3.4,21.8
		c0.2-1.2,0.5-2.4,1.1-5.2c-1.1,2.2-1.5,3.1-2.6,5.3c0.6-3.1,1-4.7,1.3-6.3c-0.1-0.1-0.3-0.1-0.4-0.2c-0.4,0.9-0.7,1.7-1.6,3.9
		c0.5-3.2,0.8-4.9,1-6.7c-0.1,0-0.2-0.1-0.4-0.1c-1.1,3.6-2.2,7.2-3.3,10.8c-0.1,0-0.3-0.1-0.4-0.1c0.6-3,1.2-6,1.9-9
		c0.1-0.4,0.3-0.9,0.4-1.3c0.2-11.9,3.3-23.6,2.7-35.5c-0.3-5.8,1-11.6-0.1-17.5c1.3,6.6,2.5,13.2,5.7,20.5
		c-1.2-6.8-1.7-12.4-0.7-18.1c-0.7,7.5,0.9,14.5,5.2,22.6c-1.4-4.7-2.4-7.8-3.4-11c-1-3.4-1-7-1-10.5c0-3.5,0.8-6.8,2.6-10.4
		c-0.4,3.2-0.7,5.9-1.3,10.4c0.7-2,0.8-2.2,1.1-3.2c-0.8,8.5,1.7,15.4,5.9,21.8c-2.4-6.6-3.6-13.4-2.7-21.2
		c0.7,5.1,0.7,9.6,2.9,13.7c-3.1-11.2-0.9-21.4,5.4-30.9c-1.6,4.2-3.2,8.5-4.1,13c-0.9,4.6-1,9.1-0.2,13.8c0-1.6,0-3.2,0-4.8
		c0.4,4.7,1.5,9.2,3.4,13.6c-8.9-30.7,9.3-43.3,34.5-51.7c-9.7-3.5-19.4-3.7-29.3-1.9c2.1-2.3,8.8-4.5,15.9-4.4
		c5.4,0.1,9.1-0.2,11.6-6.2c2.2-5.4,8.5-9,12.8-9.6c-1.1,1.8-2.1,3.4-3.3,5.4c9.4-0.6,16.1,3.3,20.5,10.9
		c6.4,11.4,15.1,21.4,20.5,33.4c1.2,2.7,2.5,5.4,3.7,8.1c0.2,5.2,1.6,10.1,5.5,13.6c3.7,3.3,8.2,5.8,12.4,8.6c0,0.2,0,0.4,0,0.7
		c0.2,0.1,0.5,0.2,0.7,0.3l0.1-0.1c0.4,2.6,2.9,2.6,5,4.2C411.3,318.6,407.8,315.7,405,312.3z M399.3,331c-2.1-0.8-1,0.8-0.9,1.4
		c0.4,1.9,1.1,3.8,1.5,5.8c2.9,13.8,4.9,27.9,10.1,41.2c1,2.5,2.3,4.3,4.7,5.6c-0.2-4.8-3.3-9.3-1.4-16.5c-0.5-3.3-3.8-7.7-8.1-13.3
		c1.8,1.6,2.4,2.1,3.2,2.7c0.3-3.5-2.5-5.6-2.9-9.3c1.4,1.9,2.5,3.2,4.3,5.6c-2.8-8.4-5.1-15.5-9.2-21.9c0.7,0.4,1.4,0.8,3.2,1.8
		c-2-2.2-3.6-3.5-1-6.3c1.3,1.9,2.5,3.7,3.9,5.9c1.3-5.3-5.7-15.7-12.8-19.7C396.7,319.8,394.9,326.3,399.3,331z M320.9,270.4
		c-17.9,7.4-24.7,28.7-14.5,45.5c2-4.2,1.2-8.9,2.2-13.3c1.1-4.6,2.1-9.3,5.4-12.9c2.9-3.2,5.7-6.9,11.1-8.7
		c-3.1,5-7.6,7.8-9.3,13.4c3.3-3.1,6.1-5.6,8.8-8.3c2.6-2.6,4.1-6.5,8.7-7.2c-3.2,3.9-6.5,7.4-11.6,11c2.7-0.5,3.8-0.6,5.5-0.9
		c-3.1,4.1-5.5,7.9-6.9,12.5c0.9-0.5,1.7-0.8,2.8-1.4c-1.4,2.2-2.6,4-3.8,5.8c0.2,0.1,0.3,0.2,0.5,0.4c1.7-1.4,3.4-2.8,5.1-4.2
		c-0.9,3.3-4.1,4.9-5.1,8.2c0.9-0.4,1.5-0.8,2.4-1.2c-4.8,12.5-5.1,14-3.1,17.7c-0.1-6.7,1.4-12.3,5.2-17c3.8-4.7,8.5-8,14.9-9.5
		c-0.5,1.1-0.6,1.5-0.8,1.9c2.3-0.4,4.4-0.8,7.5-1.4c-1.6,1.1-2.2,1.6-3.1,2.2c10.2-1.1,18.9,1.6,26.9,8.3c-0.3-1.8-0.5-3-0.9-5.3
		c11.6,11.1,17.2,25.1,26.8,36.2c-1.9-3.1-3.8-6.1-5.6-9.2c0.2-0.1,0.3-0.2,0.5-0.3c1.4,1.7,2.8,3.4,4.8,5.8
		c-2.3-15.3-8.9-27.3-20.5-38.4c6.3,2.5,10.7,5,14.9,7.9c-3.9-5.8-7.7-11.6-12.6-16.5c-4.9-4.9-10.9-8.2-18.1-12.4
		c10.1,1.3,18,4.4,25.2,9.3c-15.2-15.4-33.9-18.7-54.5-15.7c6.7-3.3,14.5-1.1,21.2-3.5c-2.9-4.1-6.6-3.9-10.4-3.2
		c1.5-0.5,2.9-0.9,4.4-1.4c-7.3-1.7-13.7,0.9-20.2,3.6C323.2,268.9,322.1,269.6,320.9,270.4z M504.5,405.8c-5.9,5.1-9,11.8-9.9,19.1
		c-0.8,7.2-7.8,12.1-7.6,20.2c6.4-3.2,8.3-14.6,18.5-7.2c2.1-4.3,4.1-8.5,6.3-13.1c-0.8,8-6.4,14.2-5.9,22.6
		c6.2-6.2,9.3-26.7,5.3-32.6c-0.4,0.7-0.7,1.4-1.3,2.6c0.1-2.4,0.9-4.2-0.8-5.8c-1.5,1.3-1.2,4.1-4.1,4c0.2-0.8,0.4-1.6,0.6-2.5
		c-2.1,0.4-1.4,3.3-3.5,3.7c-0.6-2,1.7-2.5,1.8-4.1c-0.5,0-0.8-0.1-1.4-0.1c8.2-9.4,16.6,0.5,25.4-0.5c-1.2-0.9-2-1.5-2.7-2.1
		c-6.1-5.4-14.9-4.5-21.3-9.4c-2.6-2-6.3-1.1-10.5,0.4c4.9,1.7,4,4.2,2.8,7.2c-2.5,6-9.7,7.3-12.3,14.4c-0.5-2.3-0.8-3.2-1-4.2
		c-7.5,5.8-10.5,13.4-9.7,22.8c3-0.3,5.4-1.4,7.4-3.6c6.2-6.9,9.7-15.4,14-23.4C496.8,410.2,500.2,407.5,504.5,405.8z M518.1,459.4
		c-1.1-5.8-0.2-10.9,0.9-16c0.5-2.3,2.1-2.5,3.8-2.3c1.8,0.2,2.9,1.1,2.5,3.3c-0.4,2.2-1.2,4.5-0.5,6.9c7.9-9.2,6.1-28-3.3-32.1
		c0.6,4.5-3.5,6.5-4.9,11c-0.1-2-0.2-3.1-0.3-4.1c0.3,5.8-1.1,11.3-4.2,16c-3.1,4.8-4.9,9.7-5.1,15.4
		C513.2,456,513.7,456.1,518.1,459.4z M336.1,345.3c-2.9,5.1-1.2,13.9,3.2,17.9c4.6,4.1,11.9,4.6,16.8,1c6.1-4.5,8.4-12.7,5.4-19.3
		c-2.2-4.9-6.1-6.8-12-7.2c5.3,3.9,6.9,8.3,4.7,13.7c-1.7,4.2-5.1,6.1-9.6,5.4C338.4,355.8,336.2,351.4,336.1,345.3z M535,443.5
		c-0.3,0-0.6,0-0.9,0c0-3.9,0-7.9,0-12.9c-3.4,8.9-3.5,16.9-1,24.9c2.5-1.2,4.2-5.1,7.2-3.1c4.4,3.1,1.8,7.9,1.6,13.1
		c2.8-7.4,1.9-14.1,2.7-21.2c0.5,1.1,0.8,1.8,1.7,3.7c-0.8-5.7-0.6-10.2-3.9-14.6c-0.7,3.3-1.1,5.7-1.8,9.1
		c-2.8-4.6,0-10.5-5.7-13.4C535,434.3,535,438.9,535,443.5z M490.8,471.5c-3.5-3-4.3-5.8-0.7-8.8c1.1-0.9,2-2.1,2.8-3.3
		c3.8-5.6,9.4-10.3,10.6-18.7c-1.1,2-1.7,3-2.5,4.4c0.4-3,2.5-6.1-0.6-7.6c-3-1.5-4.8,1.6-6.5,3.6c-5,6-7.8,12.9-9,20.5
		C484.3,466.2,486.5,470.4,490.8,471.5z M502.2,476.4c-0.4,3.2,1.3,3.3,3.4,2.2c6-2.9,8.5-8.3,10-14.4c0.6-2.5,0.5-4.7-2-5.8
		c-2.5-1.1-4.8-0.1-6.2,2.2C504.4,465.5,502.8,470.8,502.2,476.4z M463.5,459.5c-2.3-5.7,0.9-9.9,3.4-14.2c1-1.8,2.5-3.4,3.1-5.4
		c0.7-2.1,1.7-4.8-0.5-6.4c-2.5-2-4.8-0.2-6.6,1.6c-1.9,1.9-2.7,4.4-3.4,7C457.4,450,458.9,456.7,463.5,459.5z M471.8,433.1
		c0-6.1,1.6-11.5,8.1-16.7c-1.7,3.2-2.6,4.9-3.4,6.5c3.5-2.8,5.8-6.2,6.2-10.9c-3.5,4-7.7,5.7-12.7,5.5c-0.3,0-0.8,0.5-1,0.8
		c-2.2,4.4-4.4,8.8-5.2,13.6c5.8,1.2,3.9-3.8,5.6-7.7C468.6,428.7,467.9,431.8,471.8,433.1z M526.2,476.1c1.2-2.1,3.4-0.5,4.9-1.6
		c5.4-4.4,8.3-10.1,9.3-16.8c0.2-1.3,0.5-3-1.1-3.6c-1.5-0.5-2.6,0.7-3.4,1.7C530.9,461.7,529.2,469.2,526.2,476.1z M449.5,431.3
		c1.8-2.9,3.6-5.4,6.3-7.2c3.2-2.1,6.5-4,5.7-8.9c-0.4-2.2,1.1-4.3,2.5-6.1c1.4-1.8,2.8-3.6,4.8-6.3
		C461.3,407.5,448.9,422.6,449.5,431.3z M491.4,401.4c-3-0.6-6.7-3.4-8.3,2.3c-0.4,1.6-1.5,2.1-2.7,2.7c-3.7,2-7.1,4.3-9.1,8.1
		C480.7,414.3,485.4,406.9,491.4,401.4z M346.2,339.9c-2.3,0.2-3.9,1.3-4,3.6c-0.1,2.5,1.5,4.1,3.9,4.2c2.3,0.1,3.6-1.4,3.8-3.7
		C350,341.5,348.6,340.2,346.2,339.9z M404.9,448.4c-2.7,8.9,5.9,12.1,7.8,18.7c1.1-1.3,2.6-1.7,1.4-3.4
		C410.8,458.9,407.4,454.2,404.9,448.4z M414.1,297.6c-2.7-5-3.9-10.1-10.4-12.9C407.3,289.7,409,294.3,414.1,297.6z M400.7,356.6
		c-3.7-2.7-7.4-5.4-11-8.1C392.4,352.3,395.9,355.1,400.7,356.6z M414.9,401c-4.5-2.6-7.8-6.5-11.4-10.1
		C405.9,395.9,410.1,398.7,414.9,401z"/>
	<path d="M280.7,346.3c-0.1,0.4-0.3,0.9-0.4,1.3c-1.7,5.4-4.5,10.1-7.7,15.3c-0.2-1.1-0.4-1.7-0.7-3c-1,1.4-1.8,2.5-2.5,3.5
		c-0.1-0.1-0.3-0.2-0.4-0.4c1.1-1.8,2.2-3.6,3.2-5.3c-0.3-0.2-0.5-0.4-0.8-0.6c-5.1,6.3-10.2,12.6-15.3,19c-0.6,0.7-0.5,1.3,0.6,1.4
		c-5.2,3.8-5.3,10.2-9,16.3c5.1-3,8.9-5.4,14.2-6.5c-7,3.8-13.4,7.1-15.6,14.7c14.9-7,38.2-1.3,40.5,9.8
		c-15.7-12.8-32.5-13.7-50.2-4c-2.2,1.2-4.6,1.4-7.5-0.4c4,0.1,6.2-1.2,6.6-4.8c0.2-2-1.4-1.1-2.5-1.4c2.5-3.3-0.4-6.4,0.1-9.8
		c-2.1,0.8-2.8,4.9-5.8,2c0.5-0.9,1.1-1.8,2-3.3c-7,3.4-11.1,9.6-17.6,12.4c1.8-7.3,5.6-12.6,13.9-13.7
		c-14.5-2.4-21.9,5.3-23.9,22.9c3.1-2.9,6.6-6.1,10-9.3c-2.2,5.3-2.8,10.7-2.3,17.2c2.5-3.3,4.6-6,6.6-8.7
		c-0.8,4.2-2.7,7.8-3.1,12.5c3.6-4.4,4.4-10,9.2-13.6c-0.6,5.9-0.9,11.2-1.9,16.7c7.7-6.7,11.2-19.6,24.8-16
		c-6.5,1.5-12.4,4.4-16.7,10.1c-4,5.2-8.5,9.8-14.1,13.5c-8,5.2-15.2,11.4-21.2,18.8c-3.3,4-6.8,8-8.7,12.9
		c7.6-9.4,16.7-17,26.2-24.2c14.5-11,25.7-17,30.9-17.1c-50.9,19.2-63.6,66.8-59.7,96.5c4.6-25.1,11-49.1,26.7-69.5
		c-7.8,11.5-13.8,23.8-17.9,37c-4.1,13.2-6.6,26.7-6.7,40.5c1.3-8.1,2.8-16.2,5.6-23.9c2.8-7.7,7.2-14.6,9.8-22.4
		c-6.4,20.9-8.2,44.4-4.3,55.4c-1.5-31.4,11.2-56.2,39.2-74.2c-2.7,1-4.6,1.6-7.2,2.6c4.9-4.9,11-4.9,17.4-7.7
		c-4,0.3-6.6,0.5-9.2,0.6c0-0.2-0.1-0.4-0.1-0.5c5.4-1.6,10.7-3.2,16.1-4.8c0-0.2,0-0.4-0.1-0.7c-2.3,0-4.7,0-7,0
		c0-0.3-0.1-0.5-0.1-0.8c1.9-0.5,3.9-1,6.4-1.7c-5.2-1.4-9.7,0.1-14.7,0.5c5.1-3.5,10.5-3.4,15.8-3.7c4.8-0.3,9.7-0.1,14.5-0.1
		c0-0.3,0-0.5,0.1-0.8c-2.8-0.7-5.6-1.4-10-2.5c6,0.1,9.9,1.5,14,3.1c0.1-1,0.2-1.6,0.3-2.3c1.4,1,2.7,2,4.8,3.5
		c-2.7-6.1-7.1-8.6-12-10.8c6.7,0.6,13,1.8,17.9,6.8c3.3-5.6,0.8-10.9-9.1-18.7c6.9,2.3,12.3,5.7,16.5,12.5
		c-1.6-6.1-5.4-9-10.4-13.2c6.5,2.7,10.2,6.1,13.2,10.3c0.6,0.8,0.6,2.8,2.2,2.2c1.5-0.5,0.9-2.2,0.8-3.4
		c-0.4-5.9-2.6-11.3-5.1-16.6c1.7,2.6,3.4,5.2,5.6,8.5c0.7-12.1,4.7-23.6-3.6-35.6c0.8,3.4,2.7,4.7,2.5,7
		c-13.4-17.1-20.1-20.7-37.1-20.3c11.9-3.3,21.4,2.1,30.7,8.5c3.4,2.4,6.3,5.4,8.5,9.5c0.5-1.7,0.9-3.1,1.4-4.6
		c2.1,15.7-3.9,31.4,1.4,47.8c0.1-8.7,2.3-15.9,7.1-22.2c-4.2,7.2-5,14.9-3.9,23.9c2.3-5,3.1-9.9,6.8-13.5c-0.6,2.5-2.6,4.3-2.5,7.3
		c2.8-4.7,4.6-9.7,10.2-12.6c-3.3,4.4-6.3,8.1-8,14c3.5-5,6-9.3,11.4-12.9c-2.6,6.4-9.2,10-7.1,17.9c4.7-8.6,10.3-14.6,20.6-17
		c-7.3,3.6-12.4,7.7-16.2,13.8c1.3,0.4,2.1,1.2,1,2.6c5.7-6.4,12.7-9.3,20.9-9.5c-6.2,2.2-12.6,3.8-17.1,9.3c1.8-0.6,3.4-1.2,5-1.8
		c0.1,0.2,0.3,0.3,0.4,0.5c-1.2,0.7-2.3,1.5-4.7,3c6.4,0.3,9.6-3.7,15-3.9c-2.2,1.5-3.7,2.6-6.1,4.2c7.1-1.3,13.1-3.4,19.5-1.8
		c-5.1,0.9-6.7,5.8-10.4,8.6c4.6-1,9.1-1.9,13.7-2.9c0.1,0.2,0.1,0.4,0.2,0.7c-4.6,1.7-9.2,3.4-13.8,5.1c6.7-0.7,13.2-1.7,21.1,0.4
		c-6.8,0.3-12.4,0.4-19.3,3c5.2-0.7,8.7-1.1,12.1-1.6c0,0.2,0.1,0.3,0.1,0.5c-3.4,1.4-6.9,2.7-10.7,4.2c10.5,1.9,20.6,3.6,30.6,5.4
		c-0.1,0.3-0.1,0.6-0.2,1c-1.8-0.1-3.6-0.2-6.7-0.3c2.6,1.3,4,2,6.2,3.1c-5-0.6-9.1-1.1-13.3-1.7c0,0.1,0,0.3-0.1,0.4
		c2.1,0.6,4.1,1.2,6.2,1.8c-6.3,0.1-12.6-0.3-18.8,0.9c4.4,0.3,8.7,0.5,13.1,0.8c-3.4,1-7,0.1-10.4,1.5c14.1,2.8,27.6,6.4,34.6,20.9
		c-3.9-5.1-8.5-9.4-14.6-11.3c-6-2-12.2-2.7-18.7-1.8c12.3,1.4,21.9,7.2,29.3,17.1c7,9.2,13.2,18.5,8.6,31.4
		c-1.2-10.2-4.9-19.2-10.7-26.8c-5.8-7.6-13.9-12.9-24.9-15.1c5,3,8.9,5.4,12.8,7.7c-0.1,0.2-0.2,0.4-0.3,0.7
		c-7.5-2.7-15-5.5-22.6-8.2c12.2,5.5,23.2,12.1,30.3,23.5c-5.1,2.7,0.8,5.6-0.5,7.9c-3.4-3.6-5.5-9-11.4-10.3
		c0.7-1.8,0.5-3.8-0.9-4.9c-4.6-3.6-9.8-6.3-15.7-7.5c5,4.7,12.3,6.1,16.2,12.2c-1.5,0.6-1.6,1.6-0.1,4.1c3.1,5.3,5.7,10.9,7.5,16.8
		c1.3,4.1,1.6,8.2,0,12.4c1.1-6.1-1.6-11.2-3.6-16.6c-2-5.3-4.5-10.3-8.6-14.3c3.4,7.6,7.8,14.7,8.7,23.2
		c-2.9-7.9-5.7-15.8-13.7-21.2c7.1,14.2,12.2,28.3,14.1,43.4c-2.1,3-1.9,7.1-4.9,9.6c1.1-3.4,0.7-6.6-0.7-9.9
		c-2.1-5-3.7-10.2-5.2-15.4c-2.4-8.2-6-15.5-13.1-20.7c-1.2-0.8-2.1-1.5-3.1,0.3c2.2,2.3,5,4.3,6,8.1c-7.1-7.2-7.1-7.2-9.3-6.3
		c22.5,22.1,18.8,33.7,10.2,45.7c0-0.4,0-0.6,0-0.8c0.2-0.8,0.3-1.6,0.7-2.3c6.5-14.2,0-25.7-7.7-37c-1-1.4-2.1-1.7-3.3-0.6
		c2.3,3.4,4.7,6.5,6.7,9.9c4.5,7.9,6.3,16.3,3.4,25.2c2.6-18.4-10.8-35.8-20.9-37.5c8,12,19.3,22.1,20.9,37.5
		c-0.2,1-0.4,2.1-0.6,3.1c1.3-8.3-5.9-12.8-8.6-19.3c-3.1-7.4-9.8-10.9-15.5-15.5c3.4,9,9.2,16.4,13.1,25c4,8.8,6.3,17.8,5.8,28.6
		c5-11.6,0.5-21-2.9-30.6c4.6,8.5,9.4,16.7,6.7,27c-1.7,6.4-5.2,11.9-8.3,17.6c-2.5,4.7-2.6,7.3-0.6,10.1c1.2-3,2.4-6.1,3.5-9.2
		c-1.4,4.1-2.2,8.3-2.9,13.3c0.8-1.3,1.2-2,1.7-2.7c-0.3,1.5,0.2,2.7,1.1,4.2c2-5.3,4.8-9.8,7.5-14.4c2.9-4.8,6.8-9,8.5-14.4l0,0
		c2.8-3.8,5.8-7.4,5.8-12.5c0-2.2,0.7-4.4,1.1-6.6c3.7,11.1-4.7,18.7-7.9,27.9c3.7-4.8,8.5-9.3,10.1-14.8c2.1-7.2,1.8-15.2,2.6-22.8
		c0.3,0.8,0.7,1.5,1,2.3c0.4-0.3,0.8-0.6,1.2-0.9c-0.3-1.7-0.7-3.4-1-5c2.9,6,6.9,11.5,8.6,18.5c4.4-4.8,7.3-9.9,8.1-16.2
		c0.8-6.2-0.7-12.3-0.6-18.4c0.1-6.3-5.2-11.1-4.4-17.5c2.8,1.2,4.6,5.2,5.5,11.1c0.6,4.2-1.6,8.6,1,13.2c0.2-1.4,0.4-2.5,0.5-3.6
		c0.3,0,0.5-0.1,0.8-0.1c0.5,2.7,1.1,5.4,1.6,8.1l0,0c-2.7-0.9-1.5,1.2-1.4,2c0.7,7.5,2.1,15-0.9,22.5c-1.8-1.8-0.8-4.1-1.1-6.6
		c-3,6.6-2.2,14-7,19.7c0-3.7,0-7.2,0-11.2c-4.5,3.7-1.8,9-3.9,13.6c-0.8-2.6-1.4-4.8-2.2-7.4c-4.8,5.3-7.1,12.2-13.4,17
		c1.5-2.6,2.5-4.4,3.5-6.1c-9.4,10.8-23.6,18.2-24.7,35c-0.5-1.4-1-2.7-1.7-4.4c-0.5,0.5-0.9,0.9-1.8,1.9c2-3.7-0.5-6.1-1-9.3
		c-3,6.8-1,12.6,2.2,18.9c-7.3-6.1-9.2-15.7-4.8-22.8c0.9-1.5,0.4-2.8,0.2-4.1c-0.7-4.8,2.4-8.6,3.7-12.8c1.9-3.4,1.9-7.1,1.3-10.8
		c-2.2-14.3-11.9-31.8-23.9-43.3c0.4,1.2,0.7,2.2,1,3.3c-0.1,0.1-0.3,0.1-0.4,0.2c-0.5-0.9-1.1-1.9-2-3.5c0.2,1.1,0.2,1.5,0.3,1.8
		c1.9,9.8,8.7,16.9,13.8,24.9c5.3,8.3,12.5,16.1,9.8,27.3c-0.5-4.4-1.3-8.7-4.5-13.1c-0.4,6.9-0.9,13-3.8,18.6
		c-2.9,5.7-7,10.3-13.6,14.1c7.3-9.6,8.6-19.1,4.9-29.2c0.2,4.6,1.3,9.3-0.6,14.7c-0.3-4.2-0.3-7.7-2.7-12c2.3,13-1.9,23.1-7.9,33.8
		c1.3-9.2,3.5-17.5-0.2-25.6c0.5,4.6,1.5,9.2,1,14.9c-1.1-4.3-2-7.7-2.9-11.1c0.8,8.1,1.2,16.1-2.7,23.6c0.8-6.8-0.9-13.1-4.4-19
		c0.3,2.1,0.7,4.2,1.1,7.1c-2.7-4.3-3.4-8.4-4.7-12.9c-0.9,3.7,0.5,6.4,1,9.6c-4.4-4.6-6.2-10.1-7.5-15.8c-0.6,7.6,4.2,13,7.3,19.1
		c4.1,8.1,5.6,17,4,26.1c-0.3,1.9-1.7,3.4-4.2,3.6c-0.9-8.6-6.9-14.1-12-20.2c5.9,5.1,12.4,9.7,13.1,19.7c3.1-6.2,2.2-11.5,1.1-16.7
		c-2.3-10.5-8.8-19.1-13.4-28.5c-1.1-2.2-2.1-4.5-3.4-7.4c-0.9,5-0.5,9.3,0.9,14.8c-4.1-6.1-3.5-12.4-5.8-17.8
		c-6.1,3.7-5.5,22.1,1.4,26.5c-4.1,0.4-5.8-2.4-8.9-5.9c2,16.3,0.6,30.5-12.2,41.2c1.9-5.7,5.8-10.4,6.3-17.8
		c-2.5,7.6-7.9,11.3-11.2,15.4c0.3-18.1-7.2-33.4-20.1-48c1.5,7,2.8,12.7,1.7,19.8c-1.1-13.3-8.6-22.3-14.5-32.7
		c-2.7,5.9-3,12.3-7.2,18.2c1.6-5.5,3-10.2,2.4-15.7c-0.8,1.7-1.5,2.9-2.1,4.1c2.8-9.9,2.8-19.9,0.7-31c2.7,2.8,2.6,5.4,3.1,7.7
		c0.5,2.3,0.9,4.7,2,7c0-8,0-16,0-24c0.3,0,0.6-0.1,0.9-0.1c0.5,3.3,1,6.6,1.5,10.2c0.7-0.6,1.3-1.1,2.4-2
		c-0.1,12.8,3.5,23.9,11.8,34.2c-2.4-9.4-7.4-17.1-8.4-26c9.5,21.4,22.4,41.2,28.3,65.6c-0.6-9.6-2.4-17.5-4.3-25.4
		c3.3,7.2,4.2,14.9,5.5,22.5c1.5-7.3-0.5-14.2-2.3-21.2c1,2.7,2.1,5.3,2.8,8c0.7,2.8,0.9,5.7,1.5,9.2c2.2-5.1,1.7-9.6,0.5-14.6
		c3.8,2.8,4.2,6.7,4.9,10.5c1.6-2.1,2.1-3.9,1-5.4c-10.7-15.7-8.6-31.6-0.8-47.5c3.5-7.1,7.9-13.8,10.8-21.2c1.5,0.5,2.1-1,4-2.2
		c-4.7,9.4-8.9,17.9-13.1,26.4c7.2-10.4,15.4-20.3,15.4-34.2c-2.1,3.3-4.2,6.7-6.2,10c-1.1,0.6-1.3,2.4-3.5,2.6
		c0.6-1.5,1.1-2.7,1.6-3.9c-0.3-0.1-0.5-0.3-0.8-0.4c-4.1,8.5-8.3,16.9-12.2,25.4c-4,8.8-6,18.1-4.3,27.9
		c-3.2-7.7-3.2-15.5-0.6-23.2c3.6-10.6,9.1-20.4,12.2-31.3c1-3.4,3.8-6.2,5.7-9.4c0.7-1.1,1.7-2.2,0.9-4c-3.6,3.7-5.3,8.4-8,13.2
		c1.1-6.2,3.9-11.1,5.8-16.4c-2.4,3.4-4.8,6.9-7.9,11.2c0.1-2,0.2-2.9,0.3-5c-3.2,6.6-6,12.2-10.8,18.4c2.7-6.1,4.7-10.9,6.8-15.6
		c-6.2,8.5-10,18.1-13,28.1c1.9-14.8,5.9-28.8,17.6-41c-8.3,4.2-15.2,14.2-16.8,23.7c-1,5.7-2.8,11.4-0.7,17.3
		c-0.4,4.9-0.1,9.7,2.1,14.3c-3.5-3.4-6.1-7.5-7.1-12.1c-1.7-8.4-6-16.1-6.5-24.8c-0.7-12.2,5.3-21.5,12.7-30.3
		c-1.9-0.7-2.5,1.6-4,1.6c-0.1-2.2,2.8-3.4,1.9-6.1c-6.4,4.8-11.6,11.3-12.3,18.6c-0.7,6.7-3.8,12.3-4.9,18.7
		c-0.8,4.7-1,9.4-1.7,14.2c-0.5-2.3-1-4.6-1.6-7c0.1-16.9,7-31.4,17.2-46.2c-12.6,9.3-16.3,21.7-18.5,34.8
		c-0.7,3.8-0.4,7.8,1.4,11.4c-5.1-4.9-3.1-10.8-2-16.3c2.7-13.2,8.7-24.7,18.7-33.9c0.7-0.7,1.3-1.4,2.6-2.7
		c-4.4,1.6-6.9,4.6-10.9,7c3.8-5.6,8.9-8,13.2-11.3c-8.7,1.5-13.1,8.7-19.3,14.6c0.4-1.3,0.6-2,1-3.4c-3.3,2.4-4.2,5.5-5.5,8.7
		c1,0,1.6,0,2.5,0c-3.9,8-8,15.5-10.3,23.9c-2.1-5.9,0.3-11.7,0.8-17.5c-4.7,11.4-12,22.3-6.6,35.7c3.8,9.6,5.6,19.4,2.4,29.6
		c-0.2,0.5-0.4,1-0.5,1.3c-0.9-14.8-5.8-29-8-43.7c-1.8,5.2-2.9,10.3-1.4,15.7c1.4,5.2,2.8,10.4,3.8,15.7
		c-4.7-5.4-4.8-13.7-11.5-17.7c2.2,5.3,3.5,11,6.5,16.4c-3.2-2.7-6.5-5.5-9.9-8.3c-0.5,4.5-0.9,8.8-1.4,13.2c-0.2,0-0.3,0-0.5,0
		c-0.4-3.6-1.1-7.3-1.1-10.9c0-8.7-5.6-15.6-7.5-23.8c-3.9-16.8-4.2-33.2,2.2-49.4c0.1-0.3,0.1-0.7,0.2-1.2c-3.5-0.7-6-0.5-7.9,3.3
		c-6.6,13.7-8.8,27.7-5,42.6c-7.2-15.5-5.8-30.8,2.3-46.5c-33.5,1.4-66.3-1.2-99-1.7c36.8,0,73.7,0,110.5,0c0-0.3,0-0.6,0-0.9
		c-43.2,0-86.5,0-129.7,0c0-0.2,0-0.4,0-0.6c0.9-0.1,1.8-0.1,2.7-0.2c-7.9,0.1-15.8-0.5-23.9-1.2c2.9-0.8,5.9,0.7,8.5-0.9l-0.1,0
		c5.5,0,11,0,16.6,0c-1.8-2.8-4.5-1.8-6.9-1.9c-8.1-0.1-16.3-0.3-24.4-0.5c-0.8,0-2.1,0.4-2.1-1c0-1.4,1.3-0.9,2.1-0.9
		c10.4,0,20.8,0,31.7,0c-1.8-5.6-4.1-10.2-4.2-15.3c-0.2-13.5,2.4-26.3,14.4-34.6c3.1-2.1,5.7-3.8,6.7-7.9c-0.9,0.9-1.4,1.5-3.1,3.3
		c3.9-7.1,8.7-10.2,14.9-11.1c5.3-0.7,10.3-2,14.3-6.1c-0.8,0-1.5,0.1-2.5,0.1c3.7-3.4,8.1-4.2,12.1-2.6c5.2,2,9.9,1.3,14.9,0.2
		c3.1-0.7,6.1,0.3,9.1,0.7c9.4,1.4,16.7,6.6,23.6,12.5c6.2-5.5,5.5-18.7-1.7-30.2c0.9,5,1.3,9.1-0.3,14c-1.5-10.7-6.8-19-10.6-28.4
		c-1.4,2.6-2.2,5-5.2,6.3c2.9-4.4,2.2-8.6,0.9-12.9c-0.4,1.9-0.8,3.9-1.3,5.7c-2.9-3.9-7.2-6.9-7.5-12.9c-2.6,1.9-4.6,4.2-8.2,4.1
		c3.3-2.7,5.2-5.7,4.9-10c-2.8,0.9-4.2,4.6-7.9,3.4c2-0.9,3.3-2.4,4-4.3c0.8-2.3,2-5.2,0.1-6.9c-1.7-1.5-3.3,1.3-4.9,2.1
		c-3.5,1.9-6.9,3.2-10.9,1.3c0.1-0.9,0.1-1.8,0.2-3c-2.8,0.8-4.9,2.1-6,5.9c0.2-12,12.4-12.7,16.5-20.8c-4.4,2.4-8.4,5.1-14.5,5.1
		c3.6-2,6.3-3.5,9.9-5.6c-6.1,0.4-6.1,0.4-13.2,6.2c-0.7-1.4,0.4-2.4,0.9-3.4c0.5-1.1,1.3-2.1,2.5-4c-3.8,1.2-6.4,2.5-9,6.4
		c2.6-8.3,10.8-8.4,15.2-14.8c-4.3,2.7-7.6,4.7-11.1,7c0.9-2.6,2.9-3.6,4.7-4.7c1.8-1.1,3.7-2,6.3-3.4c-6.9-1.1-13.6-0.7-18.3-6.9
		c5.7,2.3,10.9,3,16.3,1.7c7.3-0.3,12.4-4.4,17-9.5c3.3-1.7,4.8-5,6.9-8.3c-0.2,1.1-0.2,1.7-0.6,4.1c2.9-5.3,4.9-9.1,7.1-13.2
		c-1.8,0.5-3,1.3-4.5,0.8c2.1-1.2,4.3-2.3,7.1-3.9c-1.3-0.3-1.8-0.4-2.5-0.5c4-2.7,7.6-5.7,13.1-7.8c-4.1-0.1-6.1,1.9-8.6,2.9
		c1.6-4.3,8.6-7.9,13.9-7.1c1,0.2,1.8,0.4,2.7-0.5c6.8-7.1,15.5-9.5,24.9-10.5c1.6-0.2,3.1-0.7,4.9-1.1c-1.5-2.5-3.5-3.4-6.3-3.2
		c7.9-5.4,23.7-4.1,33.4,2.5c1.4-2.5,1.5-5.9,4.9-7.8c-0.2,3.8-3.3,6.5-2,11.8c1.1-9.1,4.8-13.9,12.6-16.1c6.9-1.9,13.4-1.9,20.5,0
		c-5.8,0.6-11.2,0.8-16.5,1.7c-8.4,1.5-13.3,6.2-14.6,13.2c-0.4,2.5-0.4,4.3,3.2,3.4c7.8-1.9,13.4-1.3,16.6,1.1
		c-13.6,5.2-29.4,7.1-36.8,24c8.6-3.4,16.4-6.8,25.1-3.5c-1.7,0-3.3-0.1-5,0c-1.8,0.1-3.6,0.5-5.4,0.5c-9.7,0-15.7,6.9-22.9,11.8
		c-5.1,3.5-9.7,7.5-13.9,12.8c-0.4-3.9-0.8-7.3-1.2-10.7c0.2,0,0.4-0.1,0.5-0.1c0.6,2.3,1.3,4.5,1.9,6.8c0.1-10.4,5.1-19.6,6.7-30
		c0.1,2,0.1,2,1.6,3c0.9-2.1,1.7-4.3,2.9-7.3c0.7,3.7,0,6.7,1.8,9.3c4.2-8.2,3.7-19.1,14.6-22.8c-1.2-0.8-1.2-0.8-6.3,2
		c-2.1-1.2,2.2-4.3-1.6-5.2c-4.6-1-8.6-0.3-12.1,3c-3.7,3.5-8.5,4.6-13.2,6c-4.8,1.4-9.6,2.7-13.8,5.5c-1.3,0.8-2.8-0.7-4.1,0.7
		c-1.2,1.3-3.2,2.1,0,4.3c-11.5,0.9-15.7,9.4-20.8,17c-0.9,1.3-2.3,2.7-0.8,4.6c1.7,2.2,2.8-0.3,4.3-0.4c0.3,0.6,0.6,1.3,1.1,2.5
		c2.5-4.5,5.9-6.9,11-7.2c-2.9,2.8-4.2,6.2-6,11.2c2.8-2.9,4.5-4.8,6.3-6.6c0,0,0,0,0,0c0.7,3.9-0.5,7.6-0.8,12.4
		c6-6.6,11.6-12.5,19.2-15.8c-3.8,3-7.5,6.2-11.3,10.5c3.9-1.5,6.1-5,10-4.4c-3.1,7-8.1,12.8-10.4,20.8c2.3-2.6,4.1-4.5,5.9-6.5
		c0.1,0.1,0.2,0.2,0.3,0.3c-1.7,2.6-3.4,5.1-5.1,7.7c0.1,0.1,0.3,0.2,0.4,0.3c1.3-1.2,2.7-2.5,4.3-4c-0.2,1.7-0.3,2.9-0.4,4.5
		c2.7-1.4,3.7-4.4,7-5.3c0.8,10.9-5.8,18.9-10.3,29.2c1.8-1.9,2.7-2.8,3.5-3.7c0.9-1,1.8-2,2.9-3.2c0.2,1.1,0.3,1.9,0.4,3.1
		c0.5-1,0.9-1.8,1.2-2.5c0.2,0.1,0.4,0.1,0.7,0.2c-1.1,3.3-2.2,6.6-3.3,9.9c0,0.6-0.1,1.2-0.1,1.8c0.8,2,0.4,3.8-0.9,5.6
		c-1.4,1.9-0.9,3.9-0.1,6.5c2.7-2.5,5.1-4.6,7.8-7.1c1.1,4.3,0.2,8-0.5,11.6c-1.1,5.4-2.7,10.7-5.7,15.4c-2,3.2-0.1,6.3,0.7,9.1
		c0.9,3.6,1.1,6.9,0.7,10.4c2.2-8.5,5.1-16.9,6-25.8c0.9-9.1,1.9-18.2,3-27.2c0.3-2.5-0.4-4.7-0.9-7.1c-1-5.1,2.4-8.7,5.6-11.7
		c4.4-4.1,9.7-7.3,15-11.3c-4.5,13.4-11.2,25.5-11.8,40.4c1.5-3.7,2.6-6.6,4.1-10.4c-1,7.2-1.9,13.5-2.7,19.8
		c0.3,0.1,0.6,0.2,0.9,0.3c2.8-6.3,5.6-12.6,8.4-19c0.3,0.1,0.5,0.2,0.8,0.3c-0.9,3.8-1.7,7.6-2.8,12.3c4.6-6,6.7-12.4,8.7-18.7
		c2.3-7,3.9-14.2,6.3-21.2c3-8.8,9-15.1,19.6-18.5c-2.7,0.2-3.8,0.2-5.7,0.3c1.5-1.1,2.3-1.7,3.6-2.8c-3.3,0.2-6,0.4-8.7,0.6
		c4-5.5,17.3-6,32.6-0.9c-1.9-2.6-4.3-4-6.8-5.3l0.1,0c-0.2-0.5-0.5-0.9-1.1-2.1c10.2,2,15.9,8.4,20.1,16.6
		c-1.5-6.5-6.3-10.7-10.7-15.2c9.6,2.3,12.5,9.3,15.5,36.3c2.3-5.5,1.5-10.7,1.4-16.1c0.9,3.7,1.7,7.4,2.8,11.9
		c1.6-5.2,1.1-9.6,1-14c0.7,5.5,0.8,11.1-0.2,16.9c3.8-3.1,4.6-9.9,4.4-29.4C284.1,317.9,278.5,332.3,280.7,346.3z M88.1,459.7
		c-2.9-3.6-2.9-8.3-4.4-12.7c-2.8,5.4,3.1,18.1,8.7,19.6c1.4,0.6,2.2,2.9,4.6,1.5c-0.4-2-0.9-4-1.1-6c-0.4-3.7-1.3-7.6,2.2-10.6
		c1-0.9,3-1.9,2.2-3.3c-1.2-2.3-3.1-4.1-4.8-6.1c-0.8,0.5-0.8,1.7-1.9,1.4c-0.4-0.8-0.8-1.7-1.5-2.9c-1.9,4.1-1.2,8-1.6,13.5
		c-0.8-2.6-1.1-3.6-1.4-4.5c-1.3-5.2-0.6-10.2,1.3-15.2c0.5-1.2-0.3-2.5-1.5-2.7c-1.4-0.2-1.4,1.2-1.4,2.2c0,2.1-1.8,2.1-2.9,2.7
		C84.7,444.6,85.4,452.3,88.1,459.7z M331.8,480c4.5-1.7,6.5-6.5,5.3-11.5c-2.7-11.1-18.2-19.6-30-15.9c-3.9,1.2-6.8,0.9-10.6-0.1
		c-12.7-3.3-24.5,0.6-35.2,7.4c-3.9,2.5-5.4,7-4.7,11.7c0.5,3.9,3.1,6.2,6.8,7.3c0.2,0.1,0.5,0,0.8,0c-0.3-0.8-0.6-1.5-1.1-2.4
		c0.9,0.4,1.5,0.7,2.6,1.3c-1.6-2.8-2.6-5.1-1.9-8.1c0.8,2.3,1.1,4.6,3.7,5.7c-0.2-0.8-0.3-1.3-0.5-1.7c2.7,1.7,5.3,3.4,8,5.2
		c-2.6-3.6,2.9-3.4,2.3-5.6c0.4,1.1,0.8,2.2,1.5,3.9c0.6-1.9-0.3-3.7,1.7-4.5c0.6,1.4,0.1,3.2,1.3,4c1.3-1.9,3.1-3.4,2.9-5.9
		c0.6,1.4-0.3,3,1.5,4.6c-0.8-2,0.2-3.1,0.7-4.4c0.5,1,1,1.8,1.6,2.9c1.2-1.7,2.3-3.1,3.4-4.6c0.4,1.8-0.3,4.3,2.9,4.6
		c0.1-0.8,0.2-1.6,0.3-2.5c0.2,0.6,0.3,1.2,0.5,2.2c0.8-2.6,3.8,0.3,4.4-2.3c-0.2,1.4-0.5,2.9-0.8,4.9c2.9-1.2,2.3-4,3.4-5.7
		c1.3,0.7,0.9,2.1,1.2,3.9c1.2-1.4,2.1-2.4,2.9-3.3c2,2.3,2.6-0.7,4-0.9c1.2,0.7,0.3,1.8,0.2,3c0.9-0.7,1.5-1.2,1.8-1.5
		c3.1,3.9,5-1.4,7.5-0.7c0,0.4,0,0.9,0,2.1c1.5-2.7,1.8,0.5,3.1-0.3c-0.5,0.8-0.9,1.4-1.3,2.1c2.2-1.6,4.8-2,7.4-2.8
		c-0.1,0.6-0.2,1.3-0.4,2.4c1.3-1.1,2.1-1.9,2.7-2.5C334.2,474.4,332.8,477,331.8,480z M73.6,422.4c2.1,0.5,2.8,0.5,2.9,0.8
		c1,2.4,4,3.2,5,0.8c3.8-8.7,13.7-4.5,18.9-10.1c0.6,2.1-2.9,4.5-0.3,4.8c3,0.4,5,1.9,8.1,3.7c-1.6-2.4-2.7-4-3.7-5.6
		c5.8,4.9,12.5,8.5,17.3,14.4c0.5-0.7,0.9-1.3,1.2-1.8c0.8,0.5,1.5,0.8,2.1,1.2c2.9-3.3-3.2-5.6-0.2-9c-4.7-1.7-9.2-3.3-14-5
		c1.8-1,3.6,1.7,4.5-0.4c0.6-1.4-1.2-2.5-2.2-3.4c-1.4-1.3-3-2.4-5-3.9c0.8-0.4,1.5-0.8,2.3-1.2c-0.3-0.6-0.7-1.2-1-1.7
		C96.9,408.9,86,415.7,73.6,422.4z M247.9,479.2c-8.3-0.4-14.7,3.4-21.6,5.2c2.4-1.5,4.9-3,8.7-5.3c-8.5,1.6-14.1,5.6-20,9
		c1.9-1.9,4-3.7,6.1-5.3c7-5.5,15.3-8,24.3-10.6c-23.6-0.1-39.1,18.4-38.6,35.3c9.5-1.7,14.3-10,22.9-15.9c-7.5,0.8-12,4.4-18,7.5
		c9.1-9.1,19.5-13.2,30.5-16.4c-3.9,0.8-7.8,1.7-12.3,2.7C235.4,481.7,241.5,481.3,247.9,479.2z M236.7,348.1
		c-7.4,0.1-11.6,3.5-13.2,10.2c-1.6,6.6,2,14.3,8.1,17.4c5,2.5,11.7,1.2,15.4-3c3.5-4,5.2-12.2,3.1-15.1c-0.8,5.4-3.6,9.1-9.2,9.8
		c-4.4,0.5-7.5-2.1-9.1-6C229.5,356.1,231.7,351.7,236.7,348.1z M159.7,422.3c6.4,7.6,15.5,12.2,20.6,22.4c0-2,0-2.4,0-4.6
		c2.5,3.2,4.3,5.4,6.1,7.8c3.9-6.5,3.3-14.4-1.2-17.7c-0.1,0.8-0.2,1.6-0.3,2.8c-1.7-2.6-3.1-4.8-4.9-7.6c-1.1,4-2,7.2-3.1,11.6
		c-0.3-8.1-0.5-15.3-5.2-21.5c-0.1,0.6-0.2,1.1-0.4,1.9c-0.5-1.4-1-2.6-1.5-4C167.5,417.7,163.7,420,159.7,422.3z M97.6,459.8
		c0.1,6.7,2.4,12.5,7.1,17.3c2.2,2.2,4.7,3.5,7.9,3.6c2.3,0.1,3.4-0.6,2.8-3.2c-1.8-8.6-5.8-16-11.3-22.7c-1.4-1.7-3.3-0.9-4.8-0.7
		c-1.7,0.2-1.3,2.2-1.2,3.4c0.1,1.7,0.5,3.4,0.9,6.1C98.4,461.9,98,460.9,97.6,459.8z M279.5,500.8c8.7-2.5,11.7-6,9.2-11
		c-9.6,8.1-17.6,2-26-2.8c8.2,14.3,22.5,20.4,36.5,28C294.8,506.5,283.1,509.6,279.5,500.8z M86.1,478.3c-1.8-3-3.7-5.9-5.5-8.9
		c-1.8-3-3.1-6.3-5.8-8.7c-1.5-1.4-3.7-3.2-5.2-2.4c-2,1-1.9,3.8-1.2,6.1C71.7,476,72.9,478.7,86.1,478.3z M142.4,461.1
		c2.7-6.4-2.5-24.4-7.4-27.8c-1.4-1-2-0.3-2.7,0.9c-2.8,5.5-0.7,9.9,2.8,14.4C137.9,452.2,142.7,454.7,142.4,461.1z M308.5,489.3
		c1.5,4.3,3.8,7.3,8,8.4c4.5,1.2,8.5,0.3,11.4-3.5c1.7-2.3,3.1-4.9,1.8-8.6C323.5,492.8,315.9,489.1,308.5,489.3z M151.7,440.4
		c3-1.6,4-3.5,3.8-6c-0.5-8.6-5.2-15.2-10.4-21.5c-0.5-0.5-1.1-1.1-1.9-0.4c-0.7,0.6-2.2,1.4-1.6,2.2c1.3,1.8,0.6,4.1,1.7,5.8
		c3,5,6,10.1,9.3,15.5c0.2-1,0.2-1.6,0.4-2.4C153.4,435.9,153,437.8,151.7,440.4z M58.2,458.1c1.7-2.8,2-5.9,5.1-8.2
		c0,2.5,0,4.3,0,6.1c2.1-4.4,3.3-8.8,3.4-14.3c0.8-0.7,1.8-2.8,0.3-4.2c-1.5-1.4-3.2,0.5-4.6,1.6C56.2,444.1,55.4,450.4,58.2,458.1z
		 M306.2,541.4c-4.7,10.1,6.2,25,19.4,26.5C317.2,560.1,310,552.1,306.2,541.4z M193.1,500.5c-3.2,16.3-11,32.3-1.9,50.6
		c-0.8-5.2-2.8-8.5-1.7-12.6c1.3,4.1,2.7,8.3,4,12.4C189.7,534.1,189.1,517.3,193.1,500.5z M220.8,357.9c-4.6,7.9-2.6,15.5,4.9,19.5
		c11.6,6.1,19.2,3.6,28.3-8c4.3-5.4,2-9-1-13.4c-0.5,16.3-6.1,24.1-16.8,23.6C226.9,379.1,219.9,369.4,220.8,357.9z M127.9,471.1
		c4.7-6,4-15.8-0.9-23.6c-1.3-2-2.4-4.5-5.4-3.4c-0.9,1.5,1.5,3.6-1.1,4.7c2.7,5.3,5.3,10.7,8.3,16.6c0.1-1.7,0.2-2.8,0.3-5
		C129.4,464.4,129.4,467.3,127.9,471.1z M114.6,443.7c5-1.5,5.4-5,1.5-7.8c-1.8-1.3-4.3-2.4-6.5-3.6c-1.4-0.8-2.3-2.5-4.5-2.3
		c0.4,1,0.8,1.9,1.3,3.2c-1.1-1.2-2-2.1-2.9-3c0.8,4.1-0.5,9,4.9,11.4c-0.3-2-0.5-3.5-0.7-5C109.9,439.4,111.1,442.5,114.6,443.7z
		 M284.2,538c-6.6,8.2-6.5,18.7-9.6,28.1C280.7,557.7,285.8,549,284.2,538z M343.3,479.1c15.4,1,27,9,37.2,19.9
		C376.2,487.2,357.9,477.5,343.3,479.1z M281.7,558.6c-4.4,6.1-9.9,11.5-10.9,19.7c4.8-6.3,9.4-12.4,14-18.3
		c1.2-1.5,1.5-2.9,0.2-4.8c-1.6,2.5-3.1,4.7-4.6,6.9c-0.1-0.1-0.3-0.2-0.4-0.3C280.6,560.7,281.2,559.6,281.7,558.6z M241.6,534.3
		c4-3.6,12.9-19.6,12.9-22.6C247.7,517.5,244.2,524.9,241.6,534.3z M350.5,523c4.7,9.3,7,19.5,10.9,29.1
		C359.8,541.6,357.5,531.5,350.5,523z M181.5,484.6c0-0.1,0-0.2,0-0.3c-20.9,0-41.8,0-62.7,0c0,0.1,0,0.2,0,0.3
		C139.7,484.6,160.6,484.6,181.5,484.6z M328.6,553.5c-2.7-6.6-4.1-13.8-9.8-19.9C320.1,541.8,322.9,548.3,328.6,553.5z
		 M298.4,543.5c-3.2,8.8-8.4,16.2-15.4,22.5C292.1,561.2,297.9,554.1,298.4,543.5z M244.4,354.4c-0.3-2.5-1.6-3.8-3.9-3.7
		c-2.3,0.1-3.7,1.4-3.7,3.8c0.1,2.5,1.4,3.8,4,3.7C243.2,358,244.1,356.4,244.4,354.4z M214.3,524.4c2.8-6.9,3.1-14.5,7.2-21.9
		C212.2,508.3,216.1,517.2,214.3,524.4z M250.8,512c-6.5,4.5-13.9,18.3-11.4,21.8C242.2,525.9,246.3,518.8,250.8,512z M101.9,442.8
		c-0.2-4.4-6-13.3-9.7-14.1C95.8,433.5,96.4,439.3,101.9,442.8z M352.2,515.1c0.2,8.2,6,12.6,7.5,18.7
		C358.5,527.6,356.6,521.7,352.2,515.1z M66.7,456c4.6-1.3,5.7-5.3,2.9-10.5C67.6,448.9,66.5,452.1,66.7,456z M108.7,328
		c6.3-2.8,10.5-7.9,15.1-14.3C116.9,317.7,113.7,323.8,108.7,328z M138,417.6c-3-8.1-6.5-10.6-13-9.2
		C130.1,410.3,135.7,411.7,138,417.6z M318.8,502.5c-3.8,3.4-7.4,4.1-10.7,5.3c-3.9,1.4-6.3,4.4-6.4,8.2c1.9-3.5,4.3-5.8,7.9-6.7
		C313,508.4,316.4,507.4,318.8,502.5z M162.5,415.8c3.4-3.4,6.4-5.7,6.5-10.5C164.2,407.2,163.8,411.1,162.5,415.8z M242,458.1
		c4.3,0,8.5,0,14.1,0C250.5,455.1,246.3,456.9,242,458.1z M81.3,440.9c4.7-4.3-0.2-8.3,1.1-11.9C80.6,432.5,80.8,436.2,81.3,440.9z
		 M361.3,499.3c-1.9-4.8-5.4-5.7-10-7.5C355.2,494.7,357.8,496.6,361.3,499.3z"/>
	<path d="M388.3,545.2c3,2.1,3.1,5.8,5.7,9.8c-0.7-4.2-1.1-7.1-1.8-11c3,5.5,1.7,10.6,2.3,16.2c4.8-7.1,2.3-14.2,1.5-21.1
		c-0.5-4.5-2.5-8.8-2.2-14c3.3,2.5,2.3,6.8,5.2,9.9c-2.1-10.4-4-20.1-6-29.7c0.4,0.2,0.9,0.5,1.6,0.9c-2.2-8.7-7.5-15.3-11.7-22.6
		c5.1,7.2,11.3,13.6,15.6,23.3c-0.9-8.2-5-13.1-7.8-18.7c2.3,3.4,4.9,6.5,6.6,10.1c1.8,3.7,2.8,7.8,3.9,11.8c1.1,4,1.8,8,2.7,12.1
		c1.6-19.6-3.2-37.3-15.5-52.8c10.4,10.7,15,25.4,26.3,35.8c-2.2-4.3-4.2-8.3-6.3-12.2c5.2,6.1,8.9,13.1,11.5,20.6
		c-1.4-16.1-10.5-28.3-20.5-41.4c4.3,2.6,6.8,5.6,9,8.7c2.3,3.1,4.5,6.4,6.4,9.7c2,3.4,3.7,7,5.5,10.6c0.1-5.4-3.3-11.6-16.3-29.3
		c21.7,15.4,28.3,48.8,9.9,67.4c3.5-7.9,2.5-15.4-1.6-23.9c-1.3,6.5-0.5,12.3-2.8,18.1c-0.2-3.2-0.3-6-0.4-8.7c-0.2,0-0.3,0-0.5,0
		c-0.1,0.6-0.2,1.1-0.3,1.9c-0.4-4.4-0.8-8.6-1.3-12.8c-0.7,8.6-1.9,17.2-0.6,25.8c-0.4-1.1-0.8-2.1-1.6-4c0.2,13,1.3,25.3-9.4,35.2
		c1-2.1,1.7-3.5,2.4-4.9c-3.4,3.6-6.7,7.2-12,10.7c4.4-6.2,2.2-12.8,5.4-18.2c1.4-2.4-0.5-4.6-1.5-6.8
		C389.3,549.6,388.1,547.6,388.3,545.2C388.4,545.2,388.3,545.2,388.3,545.2z M417.7,529.4c2.7-5.1-1.2-21.1-6.4-25
		C415,512.8,418.3,520.5,417.7,529.4z"/>
	<path d="M179.5,338c-0.1-7.9,4.2-13.6,5.4-21.3c-5.7,4.7-8.5,9.9-11.6,15c2.1-15,24.6-34.5,44.9-38.4c-9,5.6-17.1,11-23.1,18.8
		C189.1,319.9,184.3,328.3,179.5,338z"/>
	<path d="M263.7,271.3c-12.7-4.1-21.4-17-35.7-12.1c-0.2,0.5,0-0.2,0.3-0.8c0.3-0.7,0.7-1.4,1.4-3c-3.4,2-5.7,3.7-6.2,7.1
		c-1.1-2.7-0.1-5.4,3.2-7.5c6.9-4.5,14.3-5.9,22.2-3.4c3.5,1.1,6.9,2.4,10.2,4c-5.9-1-11.7-3-17.9-2.4c7.8,1.3,13.7,5.8,19.3,11.4
		c-1.2,0.3-2.3,0.6-4,1.2C258.8,267.5,260.8,269,263.7,271.3z"/>
	<path d="M278.7,276.3c-3.1-17.8-5.5-35.6-28.1-38.5c10.2,0.8,18.5,3.8,25.1,11.7C282.4,257.7,283.5,265.9,278.7,276.3z"/>
	<path d="M223,248.7c10.6-9.2,31.3-9.5,41.7-0.1C250.2,242.5,236.9,243.4,223,248.7z"/>
	<path d="M271.3,223.2c10.6,10.5,14.2,22.4,11.9,36.2C280.8,247.1,278.2,234.9,271.3,223.2z"/>
	<path d="M398.6,250.2c-0.7,0.1-1.3,0.3-2.4,0.5c3.5,1.8,7.3,2,10.9,5.4c-11.7-5.7-23.7-3.6-34.5-7
		C376.6,247,395.8,247.7,398.6,250.2z"/>
	<path d="M329.1,388.5c14.4,0.2,20.6,9.5,24.5,20.9c-3.9-2.5-8.3-5.3-12.9-8.2c3.9-1.8,5.8,1.8,8.6,2.7
		C348,398,341.6,393.2,329.1,388.5z"/>
	<path d="M179,278.6c-9,3.5-16.9,8.5-23.3,16.5c-0.2-6.3,7.7-14.1,16.6-16.3c-4,2.2-7.5,3.6-10.4,7.8
		C167.7,282.7,172.9,279.5,179,278.6z"/>
	<path d="M310.2,251.8c-14.8,7.1-17.1,9.7-26.4,28.7C285.1,266.5,298.4,251.8,310.2,251.8z"/>
	<path d="M348.4,412.2c-3.5,2.6-7.6,0.6-11.3,1.2c-4.7,0.8-9.3,1.7-15.1,2.7C331,410.8,339.4,409.4,348.4,412.2L348.4,412.2z"/>
	<path d="M315.5,391.8c8.1-2.7,11.4-2.8,16.2,0c-10.1-3-17,4-25,7.8C309,396.1,313,394.8,315.5,391.8z"/>
	<path d="M315.5,391.8c-2.5,3-6.6,4.3-8.7,7.8c-4.6,3.1-4,8.9-7,12.8C298.4,404.6,306.1,394.4,315.5,391.8z"/>
	<path d="M180.3,285c0.3,9.3-3.4,16.9-1.7,24.9C175.1,301.8,176.9,294,180.3,285z"/>
	<path d="M348.5,412.2c0-1.2,0-1.2-1.2-1.6c-5.2-1.6-10.6-1.5-16-1.4c5.5-3.4,16.4-1.7,22.8,3.7
		C351.8,414.3,350.3,411.6,348.5,412.2C348.4,412.2,348.5,412.2,348.5,412.2z"/>
	<path d="M370.8,236.2c-8.2,2.3-15.6,4.3-22.9,6.4C354.4,237.3,362.1,236.6,370.8,236.2z"/>
	<path d="M403.5,311.6c-1.9,0.1-2.6-1.4-3.5-2.6c-2.7-3.9-5.7-7.6-9.3-10.8c1.2,0.5,2.4,1,4.1,1.7c-0.7-2.6-1.3-4.8-1.9-6.9
		C395,300.1,399.4,305.8,403.5,311.6z"/>
	<path d="M154.5,298.1c3.9-2.2,6.9-5.8,12.8-7.7c-4.7,4-9,6.5-10.3,12C155.8,300.7,157.2,298.1,154.5,298.1
		C154.5,298.1,154.5,298.1,154.5,298.1z"/>
	<path d="M245.8,299c-2.8,1.6-5.5-0.2-8.2-0.5c-3.2-0.4-6.3-0.5-9.4-0.1C234.1,295.6,240,296.8,245.8,299
		C245.8,299,245.8,299,245.8,299z"/>
	<path d="M124.4,305.5c-4.6,5.1-9.7,9.2-17,9.5c5.7-2.1,11-4.9,15.3-9.3C123,305.5,123.6,303.8,124.4,305.5z"/>
	<path d="M398.2,295.4c-2.7-4.7-5.4-9.3-8.1-14C394.3,285.2,397.2,289.8,398.2,295.4z"/>
	<path d="M38.5,482.8c-5.2,0-10.4,0-15.6,0c0-0.3,0-0.6,0-0.9c8.3,0,16.6,0,25.9,0C44.7,482.3,41.6,482.6,38.5,482.8
		C38.4,482.9,38.5,482.8,38.5,482.8z"/>
	<path d="M375,549.5c0.3,4.1,0.6,8.3,0.9,13.8C373,558,373.3,553.8,375,549.5z"/>
	<path d="M168.6,353.3c0.1-0.6,0.1-1.2,0.1-1.8c3-2.9,3.1-7.4,5.9-10.4C173.1,345.3,173.1,350.4,168.6,353.3z"/>
	<path d="M249.8,279.6c5.9,1.6,9.6,3.8,14,7.9C258.7,284.7,255,282.5,249.8,279.6z"/>
	<path d="M324.4,268.1c4.5-0.5,9-1.1,13.5-1.6c0.1,0.4,0.2,0.8,0.2,1.3c-4.2,1-8.4,2-12.7,3c-1.3,0.3-2.6,0.7-3.9,1
		c-1.7,0.4-1.4-0.4-0.8-1.4C322.1,269.6,323.2,268.9,324.4,268.1z"/>
	<path d="M475.3,439.4c0.2-5.5,0.9-8.8,3.5-11.5c1.1-1.1,2.3-0.7,2.2,1.1C481,432.9,478.3,435.2,475.3,439.4z"/>
	<path d="M524.8,437.8c-1.8-3.8,0.3-7.7-1.7-11.1C527,429.8,526.3,433.5,524.8,437.8z"/>
	<path d="M266.9,418.6c-12.2-3.5-24-2.1-36,3.3C235.2,414.8,255.2,413.3,266.9,418.6z"/>
	<path d="M354.4,582.6c-0.5-6,0.8-11.6,3.2-17C358,571.6,356.4,577.1,354.4,582.6C354.4,582.6,354.4,582.6,354.4,582.6z"/>
</g>
</svg>
