<?xml version="1.0" encoding="utf-8"?>
<!-- Generator: Adobe Illustrator 24.2.3, SVG Export Plug-In . SVG Version: 6.00 Build 0)  -->
<svg version="1.1" id="Layer_1" xmlns="http://www.w3.org/2000/svg" xmlns:xlink="http://www.w3.org/1999/xlink" x="0px" y="0px"
	 viewBox="0 0 595.3 841.9" style="enable-background:new 0 0 595.3 841.9; fill: #215342;" xml:space="preserve"
	 height="400" width="700" transform="translate(-195, -70)">
<g>
	<path d="M316.7,550.4c-7.7,4.8-16.6,1.9-24.7,4c-6,1.6-12.4,4.6-18.5,1.8c-5.5-2.5-11.9-2.7-16.6-7c-0.8-0.8-2.4-0.8-3.9-1.2
		c0.9-0.5,1.5-0.9,2.3-1.3c-2.4-2.1-7.7,2.8-7.8-4c-12.4-2.2-22.6-8.8-30.9-18.2c-1.5-1.7-3.3-2-5.3-1.9c-8,0-15.9,0-24.5,0
		c4.9-11.6,12-20.2,22.4-25.8c2.3-1.2,2.5,0.8,2.9,2.3c0.9,3.7,1.4,7.6,2.7,11.1c4.9,13.5,15.4,20.7,28.7,24.3c0.1,0,0.2,0,0.3,0
		c20.5,3.6,38.1-2,53-16.6c3.1-3,4.6-6.6,4-10.3c-0.5-1.9-4,0.5-2.7-3.2c-1.4,6.2-7,8.4-10.6,13.7c0.4-2.4,0.6-3.5,0.7-4.6
		c-1.3-1.4-4,1.7-4.9-1.6c-0.4,0.3-1,0.7-1.8,1.4c-2.2-6-6.8-9.2-12.3-12.2c-0.2-1.5,0.6-3.2,1.9-5.3c1,1.3,1.9,2.4,2.7,3.6
		c1.6-1.8,0.6-3.1-0.8-4.4c-4.5-4-8.4-8.5-11.7-13.5c0.4-0.4,0.9-0.9,1.3-1.3c1.2,1.7,2.5,3.3,3.7,5c3.6,5.1,7.5,4.8,13,2.1
		c5.5-2.7,10.5-5.1,13.5-10.8c2.7-5,2.3-8.2-3.4-10.7c-6.9-3.1-18.4,0.9-21.6,8.3c3.1-0.6,4.6-2.9,6.5-4.7c3-2.8,6.1-3.7,9.8-1.8
		c2.9,1.5,4.2,4,3.8,7c-0.5,4.1-3.6,5.8-7.2,6.6c-10,2.2-18.6,0.3-25.3-8.1c-3.7-4.6-3.7-9.3-2.1-14.5c2.4-7.4,7.3-13.3,12-19.2
		c0.9-1.1,4-0.1,5.9-0.7c15-4.8,30.3-5.9,45.9-4.8c12.8,0.9,27.2,15.1,27.9,28c0.6,11-12.1,21.1-24.8,19.7c-1.5-0.2-4.5-2.3-4.7,1.2
		c-0.1,2.6,2,4.8,4.9,3.6c2.4-0.9,1.5,2,3,1.7c5-1.8,8.4-6.1,13.4-9.5c-0.7,5.3-2.9,9.4-6,12.5c-4,4-5.9,7.8-1.1,14.6
		c-2.4-1.8-3-2.2-3.9-2.9c0.1,1.1,0.2,2,0.4,3.8c-1.2-1.9-1.9-2.9-3-4.6c0.4,1.8,0.6,2.9,0.9,4.4c-0.6-0.2-1-0.4-1.7-0.7
		c0.1,1.1,0.5,2.1-1.4,2.3c-1.7,0.3-1.6-0.9-2-1.6c-0.5-0.8-0.8-1.8-1.1-2.7c-0.5-1.5-1.2-2.6-3.1-2.1c-2,0.5-2,2-1.7,3.6
		c0.4,2.3,0.6,4.7,0.1,7.3c-0.2-0.8-0.3-1.7-0.6-2.5c-0.9-2.4,0.9-6.3-2.2-7.1c-2.1-0.6-6.1-0.7-7.4,2.1c-1.7,3.7-2.9,8,0.3,11.8
		c2,2.3,4.6,3.8,7.4,4.8c8.8,3.2,17.9,6,26.6,9.7c15.3,6.4,39.2-4.7,40.6-25.5c0.4-5.9,2.5-6.8,7.7-4.8c7.4,3,15,5.5,21.8,10.5
		c0.8-1.5,1.6-2.8,2.6-4.5c1.6,3,0,6.7,2.7,9.4c0.2-0.7,0.4-1.1,0.4-1.6c-1.2-13.1,1.2-25.7,5.3-38.1c2.6-8,4.7-16.2,6.9-24.3
		c0.5-1.7,0.6-3.5,0.6-5.2c0.1-4-1.4-7.8,1.8-11.9c4.2-5.3-0.3-11-1.6-17.7c0.9,1.6,1.3,2.3,1.6,2.9c0.3,0.7,0.6,1.4,1.4,3.6
		c-0.2-6.7-3.6-10.7-5.7-16.2c4.5,1.5,5.9,5.1,9,7.5c-0.5-5-2.3-9-3.3-13.5c1.2,1.4,2.5,2.8,5,5.6c-1.2-2.9-1.7-4-2.2-5.1
		c2.2,0,1.4-1.2,0.8-2.2c-3.1-5.7-6.2-11.2-12.5-14.2c-4.7-2.3-8.4-5.8-10.2-11.1c-0.3-0.9-1.3-1.6-3.1-3.8c2,9.2,5.1,16.1,9.2,22.5
		c0.1,0.2,0.3,0.4,0.4,0.5c1.7,2.3,3.1,5.8,0.9,7.3c-2.1,1.4-3-2.5-4.5-4.1c-0.4-0.5-0.8-1-1.8-2.4c1.6,9.8,6.2,18.1,4.6,27.8
		c-0.7-1-1.2-1.7-2.2-3.2c1.9,12.6,3.6,24.4-1.9,36.9c0-3.7,0-6.3,0-8.9c-0.2,0-0.4,0-0.6-0.1c-0.2,1-0.5,2-0.8,3.6
		c-1.1-3.1-2.1-5.6-3.8-10.2c0.7,11.1,1.6,20.1,0.6,30.9c-1-3.9-1.5-6.1-2.4-9.3c-1,5.3-0.2,10-2.5,14.7c-0.5-1.6-0.9-2.5-1.3-4
		c-0.8,1.2-2.1,2.1-2,3c0.1,6.7-3.6,5.3-7.5,3.9c-0.8-0.3-1.7-0.7-2.5-0.6c-10,0.4-12.7-5.6-14.2-14.3c-2.1-12.5-7.9-23.6-14.8-34.4
		c-4-6.3-8.4-13-10.2-20.9c-1.8-7.8-5.2-15.3-8.6-22.7c-1.4-3.1-4.2-5.9-6.9-8.2c-2.3-1.9-4.6-3.6-5.9-6.4c-0.7-1.5-1.8-2-3.4-1
		c-0.5-2.1-1-4-1.6-6.4c-0.9,1.2-1.4,1.8-2,2.6c-2.7-2.2,0-3.7,0.5-5.1c-5.4-5.4-13.4-8.3-15.4-17c-0.3,2.1-0.7,4.2-1.2,7.3
		c-1.8-3-6.5-0.7-5.6-7.7c-1.4,3.3-1.8,4.2-2.4,5.8c-0.7-1.9-1.1-3.2-1.7-4.8c-1.5,1.7-2,5.3-4.2,4.2c-3.4-1.8-5.8-5-6.4-9.2
		c-1.3,0.7-1.4,0.7-2.3,7.7c-0.5,4-4.5,3.3-6.8,5.4c2.2,1.5,1,3.1,0.2,4.9c-3.9,9.1-12.1,14.5-19,20.6
		c-14.1,12.2-18.5,28.7-22.5,45.5c-1.1,4.5,3.3-0.3,4.9,1.5c-4.4,3.7-9,7.5-11.2,13c-5.1,12.3-14.8,22.7-16,36.5
		c-0.6,6.7-3.3,9.1-9.8,10.5c-15,3.4-27.3,12-37.9,23.1c-0.6,0.6-1.3,1.2-0.7,2.5c3.9-3.3,7.6-6.6,11.5-9.6
		c9.4-7.2,20-12.2,31.6-14.7c1.4-0.3,3-1,3.7,0.8c0.6,1.7,0.9,3.8-1.2,5c-11.3,6-19.3,15-23.5,27.1c-0.6,1.7-2.1,1.7-3.6,1.7
		c-5.4,0-10.7,0.2-16.1,0c-3-0.1-4.3,1-5,3.8c-1.9,8-4.8,15.9-11.7,20.8c-5.3,3.8-10.3,9-17.8,8.5c-2.8-0.2-2.3,1.9-2,3.7
		c0.7,4.4,3.7,8.4,2.8,13.6c-7.1-1.4-10.3-6.5-12.6-12.1c-1.1-2.7-3.2-3.2-5.2-4.6c-6.1-4.1-10.5-1.2-15.7,1.4
		c-5.7,2.9-11.8,0.5-18.1-1.2c0.3,5.6,2.9,9.5,5.5,13.5c0.6,0.9,2,1.9,1.1,3.1c-0.9,1.3-2.4,0.8-3.7,0.5c-3.5-0.7-7-2-9-5
		c-7.1-10.4-17.4-18.6-22.3-30.6c-0.6-1.4-1.4-1.9-3-2.1c-15.7-1.2-26.9-12.3-27.3-28.1c-0.3-8.9-3.9-17.8-0.4-26.9
		c3.5-9.1,9.4-13,19.3-13.1c6.3,0,11.7,0.2,17.7,3.5c3,1.6,8.7-3.9,11-8.9c2,1.7,2.6-0.6,3.1-1.4c4.7-7.6,6.6-15.9,6.4-26.3
		c-5,9.8-5.3,19.4-9.5,27.8c0.8-3.1,1.5-6.3,2.3-9.4c-0.4-0.3-0.8-0.6-1.3-1c-2,2.8-4,5.6-6,8.4c-0.5-0.4-0.9-0.8-1.4-1.2
		c7-7.2,9.1-16.3,10.4-25.8C74.7,424,77.8,415,81,406c-5.1,5.3-8.4,11.6-11.2,19.6c0.2-2.3,0.3-3.2,0.4-4.2
		c-0.3-0.1-0.6-0.2-0.9-0.3c-1,2.8-2.1,5.6-3.4,9.2c0.8-10.1,5.8-17.8,8.9-26.4c-6.2,5.4-10.9,11.9-15,18.8c3.3-8.6,10-15,15.8-24.2
		c-4.6,2.4-7.5,3.9-11.6,6c6.3-5.6,11.6-10.2,17.7-15.5c-1.8,0.1-2.6,0.2-4.1,0.3c5.3-3.2,10.1-6,14.9-8.9
		c20.9-6.8,26.3-15,33.8-34.1c-1.3,0.5-2.3,0.9-3.4,1.3c-1.4-1.9,1.4-3.1,0.4-5.5c-3.8,4.1-7.5,8.2-14.8,9.5
		c7.8-3.8,12.2-8.9,17.1-15.1c-7.7,0.9-13.7,3.5-19.5,7.1c3.1-5.1,8-8.3,12.4-12c2.6,1.3,4.6-0.4,6.8-1.2c4.9-1.7,9.8-3.4,14.6-5.1
		c-5.6,3.9-8.4,9.7-12.8,16.1c2.9-1.8,4.7-2.7,6.3-3.9c1.6-1.2,2.9-2.6,4.3-4c1.4-1.4,2.6-2.8,4-4.2c-15.5,17.8-23,41.4-41.2,57.2
		c3.2-2.9,6.4-5.8,9.6-8.7c-3.7,5.8-7.9,11.1-12,16.5c-4.9,6.3-7.8,14.8-6.5,19.1c3-5.7,4.7-12,10.4-18.3
		c-2.5,6.2-5.4,10.2-6.2,17.1c2.5-4,4-6.3,5.5-8.5c0.3,0.1,0.6,0.3,0.9,0.4c-2.1,5.2-4.3,10.4-6.4,15.7c0.3,0.1,0.6,0.3,0.8,0.4
		c0.5-0.7,1.1-1.4,1.9-2.6c-0.3,3.6-1.6,6.3-2.5,9.1c-0.9,2.8-2,5.6-1.3,10c5.1-15.8,8.8-30.7,16.9-44c-1.2,4.4-2.4,8.8-3.5,13.1
		c3.7-5.8,5.5-12.3,7.3-18.7c4-14.1,10-27.1,20.9-37.5c1.3-1.2,2.3-3.2,2.4-4.8c0.5-6.9,8.2-17.4,15.4-20.1
		c-2.9,2.8-5.6,5.4-7.2,9.8c2.2-1,3.8-1.7,5.3-2.5c1.7-0.8,3.3-1.6,5.2-0.6c-0.4,0.6-0.7,1-1.2,1.7c6.2-1.3,12-6,13.9-11.7
		c-4.2,2.2-6.1,6.4-10.5,7.9c3-3.5,5.6-6.5,8.2-9.6c0.9-1.1,2.9-2,2.1-3.7c-0.8-1.8-2.8-1.2-4.4-1c-1.1,0.1-2.2,0.3-3.2,0.7
		c-14.3,4.9-28.5,9.9-42.7,14.9c2.3-1.8,4.6-3.6,7.4-5.8c-4.7,0-8.4,1.8-11.2,2.5c11.2-12.2,28.3-10,44.4-14.5
		c-5.6-1.3-10.2-1.3-14.8-0.8c-4.5,0.5-9.1,1-13.7,0.8c2.6-0.5,5.3-1,7.9-1.6c0.3-1.3-0.8-1.1-1.8-1.6c6.4-0.6,12.6,0.1,17.9-4.6
		c-3-0.2-5.8-0.4-8.6-0.6c0-0.1,0-0.3,0-0.4c3.9,0,7.8,0,11.8,0c-8.3-4.3-16.6-2.9-26.7-0.4c12.9-8.3,27.6-2.2,38.4-10.4
		c-10.3-1.8-21.8,1-32.1-4.2c2.5,0.6,5.1,1.2,7.6,1.8c0.1-0.2,0.1-0.5,0.2-0.7c-1.6-0.8-3.2-1.6-6.6-3.3c9.5,2.6,17.3,3.4,25.1,4.5
		c14.9,2.2,27.1-4.1,38.8-12.2c6.1-4.3,12.1-8.7,18.3-12.9c20.8-14.1,43.2-15.3,66.7-8.2c2.3,0.7,4.4,0.7,6.7-0.1
		c28.9-9.6,55.4-3.6,78.2,8.6c-6.4-1.9-11.1-3.6-15.8-5.9c-4.6-2.3-9.7-3.5-14.9-3.8c-5-0.3-10.1-2.3-16,1
		c5.2,2.6,10.5,0.3,15.6,3.8c-4.9,0.3-8.9,0.5-13.2,0.7c1.8,4.5,5.9,3.7,8.7,4.6c5.2,1.6,9.4,4.7,13.7,7.6c0.6,0.4,0.6,1.7,0.9,2.7
		l0.1-0.1c-1.2,0.5-2.4,0.9-3.6,1.3c-2.7-4.2-13.9-5.9-19.1-3.7c-8.7,3.6-13.8,10.3-15.8,19.3c-2.2,9.8-1.8,19.5,1.3,29.2
		c2,6.2,6.3,9.5,12.1,10c5.7,0.5,8.1-4.6,10.4-8.7c2.8-5,4.9-10.2,7.3-15.4c2.2-4.7,4-9.7,11-6.9c2.1,0.8,4.4,0.8,4.6-2.6
		c1.6,0.6,1.8,2,1.4,2.8c-2,4.1,0.5,5.9,3.4,7.8c6.6,4.1,8.3,11.7,12.4,17.7c6.3,9.2,3.3,20.3,5.3,30.4c0.8,4,2.2,8,4,12.3
		c1.1-4.7,2.3-9.4,3.3-14.1c2-9.6,4.1-19.1,5.8-28.7c0.7-4-1.2-7.7-2.7-11.1c1-1.5,1.6,0.6,2.5-0.1c-0.3-2.3-0.9-4.4-2.7-6.4
		c-0.3,1-0.5,1.7-0.7,2.4c-0.1-8.5-5.6-13.8-12-19.6c5.3,0.1,9.2,1.9,12.5,4.3c4.3,3.2,9.1,5.7,12.1,11c3,5.4,10.6,5.1,15.4,9.4
		c0.4-3.1-2.5-3.8-2.8-6.3c6.6,1.1,9.5,6.8,13.7,10.6c3.2,5.2,7.6,9.3,12.3,13c6,6.6,13.7,8.6,22.3,9.1c-3.3,0.3-6.7,0.7-10.6,1.1
		c6.1,3.3,12.3,5.7,17.4,12.3c-3.4-1.9-4.9-4.1-8.1-3.8c2.4,2.6,4.6,5,7.8,8.5c-4.2-1.5-6.9-2.5-9.7-3.4c1.7,6.9,8.9,12.6,21.1,17
		c-4.4-0.5-8.9-0.6-13.2-2.5c7.8,11.1,20.1,14.4,33.6,18.4c-7.8-0.3-13.9-1.6-20-3.4c6.2,5,14.1,6.2,22.6,10.7
		c-12.2-2.8-22.4-5.5-31.1-15c3.2,7.2,6.3,12.6,7.6,19.3c-7.8-14.5-13.9-29.3-25.2-41.1c13,25,20.6,52.4,31.7,78.3
		c0.7-0.3,1.5-0.6,2.2-0.9c-1.5-3.2-2.9-6.3-4.2-9.2c1.1-1.7,2.3-0.5,3.7-0.9c-11.2-11.4-11.5-27.1-17.8-40.4
		c9.9,17.1,10.8,39.3,29.3,51.6c-3.7-2.5-7.4-5-12.7-8.6c3.4,5.9,5.8,10,9.9,13.1c-0.4,1-0.7,1.8-1.1,2.6c-3.3-2-6.5-4.4-10.6-2.3
		c-1.2,0.6-1.7,1.7-0.2,2.9c2.5-0.9,5-1.8,7.9-1c1.1,0.4,1.9,2.6,3.5,0.9c1.9,1.5,4,2.4,6.5,2.7c6,0.9,8.5,5.6,10.4,10.9
		c0.7-0.4,1.2-0.6,1.7-1c10-9.3,23.8-7,28.6,5.8c2.9,7.8,6.3,11.4,15,10.8c7.1-0.5,15.8,10.5,16.7,18.9c0.4,3.3,0.8,6.5,1.2,9.8
		c1.2,9.1-2.9,16.3-11.6,19.8c-2.8,1.1-4.8,2.5-6.1,5.3c-1.9,4.1-5.3,6.5-9.9,7.6c-1.1-3.9,4-6.4,2.1-10.7c-2.6,3.4-4.3,7.5-7.3,9
		c-7.2,3.6-8.1,10.9-11.7,16.6c-4,6.4-9.3,11.3-16.3,14.2c-1.8,0.8-3.7,1.5-5.7-0.6c3.7-4.7,7.3-9.4,11-14.1c2.8-3.5,2.5-6-2.1-7.4
		c-3.2-1-5.7-3.1-8-5.9c-3.2,5-6.6,9.3-12.6,10.6c-0.9,0.2-1.5,2-2,3.1c-3.3,7.1-7.5,13.2-16.2,15.5c2.3-6.8,4.5-13,6.7-19.3
		c0.9-2.6,0.3-4.1-2.4-5.1c-6.6-2.3-11.2-7.1-15.2-12.4c-5.8,2.8-7.7,7.8-8.4,13.6c-0.3,2.3-1.1,4.8-3.7,4.7c-2.9,0-2.3-3.1-2.1-4.7
		c1.5-12.1-4.9-18.8-15.3-22.8c-1.5-0.6-3.1-1.1-4.7-1.1c-19.8-0.1-39.7-0.2-59.5-0.3c-3.1,0-5.8,0.4-8,2.8
		c-0.8,0.9-1.7,1.8-2.8,2.3c-13.8,6.5-27.1,14.1-40.6,21.2C324.7,550.3,320.4,549.9,316.7,550.4c1.1-0.5,2.3-1,3.5-1.5
		c6.9-2.7,14.3-4.7,18.3-12.6c-5.7-1.2-11.2-1.6-15.7-5.3c-1.5-1.2-2,0.9-1.5,2.6c-2.7-1.9-5.3-1.4-8.7-0.5c-0.4-0.7-1.1-1.8-2-3.5
		c-0.8,1.8-1.1,2.7-1.7,4.1c-0.7-1.9-1.8-2.8-3.4-2.9c-0.4,0.6,0.8,1.7-0.6,2.2c-0.3-0.6-0.6-1.1-1-1.7c-0.8,1.1,0.3,3.1-1.9,3.4
		c-1.8-1.1-0.4-3.2-1.3-4.7c-0.5,1.6-0.9,3-1.8,6.2c-0.1-2.9-0.2-4-0.3-6.4c-0.8,2.9-1.2,4.4-1.9,6.9c-0.3-1.9-0.4-2.7-0.4-3.1
		c-2.4,1.2-4.8,4.6-6.8,0.7c-1.4-2.8-2.5-2.1-4.4-1.5c-4.3,1.4-8,4-12.8,4.9c-4.5,0.9-9.7,1.1-13.6,4.5c3.7,5.6,19.4,10.7,28.7,9.8
		C297,551.2,306.8,550.9,316.7,550.4z M532.4,488c-0.4,1.6-0.8,3.2-1.2,4.9c-2.2-0.9-2.2-2.7-3-4.3c-2.5,3.2-2.2,6.9-2.7,10.4
		c-1.4,9.9,1,20.5-4.9,29.6c0.9-0.5,1.9-1,3.9-1.9c-1.6,2.2-2.6,3.5-4.1,5.5c1.5-0.7,2.2-1,3.5-1.6c-0.9,1.4-1.4,2.3-2.1,3.5
		c1.5-0.2,2.5-1.1,3.5-0.2c0.9,1.6-1.1,2.7-0.8,4.3c1.9,1.2,4.4,1.7,5.3,1c1.8-1.5,1.6-3.5,1.2-5.4c-0.3-1.9-0.4-3.7,1.4-5
		c-0.2,1-0.9,2.5-0.5,3c3.4,4.5,1.3,8.7-0.4,13c-3.1,7.8-8.1,14.4-14.2,20.9c1.1,0,1.6,0.2,1.9,0c11.2-7.8,19.3-17.9,21.6-31.6
		c0.9-5.1-2.7-7.9-7.2-6.5c6.7-5.3,7.8,2.6,11.4,5c1.3-2,2.7-4.1,4.3-6.5c0.4,1.3,0.7,2,1,3.1c1.5-3.4,1.9-6.5,1.5-9.5
		c-0.7-5.1-2.2-9.9-4.3-14.8c-3.2-7.3,0-15.8-2.9-23.6c3.8,0.5,2.8,3.4,3.8,6.5c1.4-12.3-5.4-19.1-13.1-25.7
		c1.3-0.3,1.8-0.4,2.5-0.6c-4-3.2-7.9-4-12.6-1.2c1.1,0.7,1.7,1,2.5,1.5c-1.5,1.2-2.7,2.2-4.5,3.7c1.9,0,2.9,0,4.3,0
		c-1.3,2.1-2.3,3.9-3.5,5.8c1.1-0.2,2.1-0.4,3.2-0.6C527.5,476.9,531.4,482,532.4,488C532.4,488,532.4,488,532.4,488z M125.4,533.7
		c3.5,2.1,4.5,5.5,5.1,9.1c0.5,3.5,2.4,5,6,3.9c0,0.6,0,1.2,0,1.9c5.4-3.6,7.5-10.4,14-12.1c0,0.3,0,0.9,0,1.5
		c9.6-9,12.4-28.3,5.2-36.5c-0.3,1.1-0.6,2-0.9,3.2c-1.7-2.3-1.3-5.2-3.6-6.9c-0.2,1.2-0.3,2.2-0.5,3.3c-1.7,0.1-3.2,0-4.3-1.8
		c-0.2,1.1-0.4,1.8-0.5,2.5c-7-2.9-7.5-9.4-9-15.3c1.4,1.3,2.5,2.9,3.6,4.5c1.2,1.7,2.3,3.3,3.7,5.2c0.3-9.3-0.5-16.9-3.2-21.5
		c-1.5-2.6-1.7-5.6-0.5-7.2c1.8-2.3,3.6,1.1,5.5,1.7c0.1,0,0.4-0.1,1.1-0.4c-2.3-1.8-4.4-3.5-6.7-5.3c0.7-0.8,2.3-1.2,0.8-2.7
		c-4.9-5.1-16.4-6.2-21.6-1.3c-5.4,5.2-8,12.1-9.7,20.3c2.2-3.3,3.9-2.8,5.4-0.4c2.3-2.2,2.4-5.7,6.3-8.1
		c-3.4,8.3-10.5,13.4-10.9,22.3c1.3-2.4,2.3-4.3,4-7.6c1.1,11.8-6.2,20.4-5.4,30.6c0.8,9.8,1.7,19.6,5.3,28.8c4-2.4,2.8-6.5,4.6-9.3
		C120.8,533.8,122.1,531.1,125.4,533.7c-3.5-0.3-4.7,2-4.9,4.9c-0.8,10.6,1.4,20.5,7.5,29.3c0.6,0.9,1.2,2.1,3.2,2.1
		c-0.3-1.4-0.3-2.9-0.9-4c-3.9-7.9-5-16-2.8-24.6C128.2,538.5,127.5,535.8,125.4,533.7z M245.3,278.4c-10.1,0.8-15.1,7.3-18.7,15.3
		c-2.6,5.7-5.5,11.6,1.4,16.6c2.5,1.9,4.2,4.4,5.5,7.1c0.8,0.1,0.1-1.6,1.3-0.8c2.7,6.5,3.7,13.5,10.1,18.6c8.8,7,20.8,4.5,23.6-6.4
		c2.2-8.4,2.2-16.9,1.4-25.4c-0.8-8.9-5.4-15.3-13.3-19.5c-1-0.5-2.3-0.9-2.5-2.6c4.1,0.4,7.6,5,12.2,1.7c1.1-0.8,2.1-2.3,4.3-2.2
		c3.8,0.1,5.7,2.7,8.2,4.7c4.3,3.4,8.5,7.6,14.1,7.6c5.9,0,10.4-4.3,14.5-8.1c2.9-2.6,5.2-5.9,8.3-9.6c0.5,2.2,0.6,2.6,0.7,3.3
		c2-2.5,5.3-4.2,3.6-8.3c-1.1,0.3-2.1,0.6-3.2,1c0.3-0.9,0.4-1.4,0.7-2.4c-1.2,0.7-2,1.2-2.9,1.7c-2.2-3.3-4.9-4.7-8.6-2.9
		c-0.4-3.1,1.8-4.6,2.7-7.4c-4.2,2-7.4,4.2-10.1,7.3c-2.8,3.4-5.6,4.3-8.5-0.2c-1.8-2.8-4.3-4.9-7.5-6.1c-10.8-4-21.9-5.6-33.3-3.8
		c-8.5,1.4-17.3,2.8-22.6,10.9c6.4,4.5,0,7.4-1.3,10.2c-1.8,3.7-4.9,6.8-9.8,10.3c2.8-0.4,3.8-0.3,4.6-0.6
		c5.9-2.2,10.7-6.3,15.5-10.2C238.7,275.8,241.7,273,245.3,278.4z M438.1,340.4c-8.6-10.8-18.9-14.5-25-10.5
		c0.9,11.2,0.3,22.4,6.9,32.1c-0.7,0.4-1.5,0.8-2.2,1.2c-2.9-3.2-5.8-6.4-9.1-10.2c0.7,6.7,5.5,11.1,6.8,16.8
		c-3,0.4-2.6-3.4-5.2-2.4c4,10.5,11.6,17.8,21,23.1c0-0.1,0.1-0.8,0.2-1.8c2,2.1,3.6,3.8,6.2,6.5c-1.4-7.5-4.9-12.5-9.8-18.6
		c5.1,3.2,7.5,6.8,11.5,11.2c-3.3-8.5-7.9-14.4-12.2-21.5c2.9,1.7,4.9,2.8,6.9,4c0.3-0.3,0.5-0.7,0.8-1c-1.8-1.5-3.6-3.1-6.6-5.8
		c2.7,1.5,3.8,2.1,5.9,3.3c-2.7-4.3-4.3-7.9-7.2-10.7c7.1,3.1,9.5,10.4,14.3,15.7c-1.9-3.8-3.9-7.7-5.9-11.7
		c1.7-0.4,3.4-1.5,4.3,0.4c5.5,11.1,8.5,22.9,9.9,35.1c0.7,6.3-5.2,11.7-4.2,18.8c0.7,4.6-1,9.3-2.4,13.9c-1.4,4.4-2.8,8.7-4.3,13
		c-1,2.8-1.1,5.8-3.2,8.4c-2.1,2.6-3.5,5.5-4,8.9c-1,7.2-3.1,14.1-4,21.2c-0.7,5.2-3.3,10-3,16c1.4-1.3,2.4-2.2,3.5-3.2
		c-0.2,1.5-0.3,2.5-0.5,3.5c7.2-18.6,19.9-33.3,32.9-47.7c0,0.7,0.1,1.6,0.2,3.2c3.5-6.4,4.4-13.1,7.5-18.9
		c-0.6,3.8-1.3,7.5-1.9,11.3c2.8-5.7,3.5-11.8,5.3-17.8c0,6.8,0,13.7,0,20.5c4.8-21.7-2-76-22.5-89.2c0.3,1,0.5,1.8,1.1,3.7
		c-9.3-11.5-17.9-22.1-30.6-29.2C426.9,332.1,431.8,336.8,438.1,340.4z M86.4,572.6c-4.4-5.8-6.9-11.3-9-17.1
		c-2.2-6.1-2.3-12,0.7-18.5c2.4,4.6,5.1,8.5,9.6,10.8c2.4,1.2,5.1,1.9,6.8,0.7c3-2,6.4-4.2,5.9-9.1c-1.3-13-6.5-25.5-4-38.9
		c0.3-1.8,0-3.7,0-5.5c-0.6,3.9-0.6,7.7-2.2,11.4c-0.1-6.8,0.6-13.5-0.1-20.2c0.3,1.1,0.7,2.1,1.3,4.3c0.3-2.1,0.4-3,0.5-4
		c0.4,0.8,0.7,1.4,1.5,2.9c0-2.5,0-3.8,0-5.8c0.7,1.3,1.1,2,1.5,2.8c-4-7.1,5.1-13.6,2.6-20.5c-0.6,0-1.2,0-1.8,0
		c0.1,1.3,0.3,2.5,0.5,4.5C88.6,452,73.6,461.1,61,475c2.4-1,4.5-1.9,7.2-3c-1.5,2.7-4,5-3.5,6.5c1.6,5.8-3.4,7.2-5.7,10.4
		c-0.2,0.2-0.2,0.5-0.4,1.1c2.6-1.2,4.9-2.3,8-3.8c-1.3,2.2-1.6,3.7,0,5.1c-5.9,3.1-7.8,8.8-10.7,13.9c0.2-1.5,0.5-2.9,0.6-4.1
		c-7.9,10.9-5.9,22.5-2,34.7c0.7-0.9,1-1.2,1.1-1.4c2.9,4.9,5.8,9.7,9.1,15.2c1.3-4.5,0.8-8.8,4.2-12.7c-3.9,12.3,0.2,27.1,8.2,31
		c-1.2-2.2-2.4-4.3-4.5-8.1C77.7,564.8,79.6,570.3,86.4,572.6z M485.5,464.4c-1.3,2.9-0.1,5,0.3,7.1c0.8,0.8,1-1.7,2.4,0.3
		c2.1,2.8,2,5.4,1.3,8.2c-2.6,10.1-6.5,19.7-7.9,30.1c-0.6,4.3,2.5,8.8-0.7,12.9c0.8-0.6,1.7-1.1,2.5-1.7c-3.3,2.6-0.9,5.9-1.6,9
		c1.3-0.9,2.2-1.6,4.1-3c-1.1,2.2-1.7,3.2-2.4,4.5c0.8-0.3,1.4-0.4,1.9-0.6c-1.2,4.7,0.3,6.1,6.2,5.5c-0.9-5.4-1.4-12.4,4.8-13.1
		c8.2-0.9,6.4,8.4,9.1,13.6c5.2-4.9,6.4-12.4,12.1-16.4c0.1,0.9,0.3,2,0.7,4.8c2.4-10.1,3.6-18.3,0-28c-0.3,2.9-0.5,4.3-0.7,5.9
		c-2.3-2.5-1.1,2.2-3.4,0.3c1.3-10.1-4.9-20.4-0.8-31.5c0.8,2.4,1.6,4.9,2.7,8.1c1.5-6-2.8-21.1-6.3-24.2c-0.8-0.7-1.9-1.8-2.8-0.6
		c-1.4,1.9-2.8,0.4-4.2,0.5c-4.9,0.2-8.6-4.6-15.6-2.3c3.2-1.6,4.5-2.2,6.9-3.4c-5.6-0.6-9.3,0.9-10.7,4.9c-1.1,3.1-4,6.5,0,10
		C483.5,465.2,484.2,464.9,485.5,464.4z M208.7,425c1-0.9,1.8-1.6,2.5-2.3c-1.5-2-3.6,0.1-5.1-1.3c0.7-0.6,1.4-1.2,2.4-2.1
		c-1.4-0.2-2.3-0.3-2.8-0.4c-1.9-3.4,2.7-4.5,2.1-6.3c-1.6-4.9,1.5-5.9,4.6-7.3c1.2-0.5,2-1.4,1.8-2.8c-0.2-1.5-1.5-1.6-2.7-2
		c-5.8-1.9-10.5-4.8-12.5-11.2c-0.8-2.6-3-5.1-5.9-4.9c-3.1,0.2-2.7,3.4-2.7,5.5c-0.1,5.2,0.4,10.5-0.6,15.7
		c-0.4,1.8-0.2,3.4,1.4,4.4c-3.4,4.1-5.4,8.6-7.4,13.4c1,0.1,1.8,0.1,3.4,0.2c-9.7,5.7-9.1,14.3-7.4,22.6
		c1.4,6.7,6.2,11.6,12.8,16.6c-2.3-7.5-6-13.6-0.1-19.2c-1.3,4.3-3.3,9.1-0.7,13.3c4.9,7.8,11.8,14.1,15.9,22.9
		c5.8-10.2-3-14.7-7.7-21.2c6-0.1,11.8,6,16.2-1c2.9-4.8,5.2-9.9,7.9-15c-7.9-2.2-18.7-8.6-17.8-10.3c-1.8-0.3-3.7-0.6-5.8-0.9
		c3.3-3.2,7.5-3.3,11.6-5.4C210.7,425.5,209.9,425.3,208.7,425z M442.7,482c-2.2,6.1-4.2,10.5-5.5,15c-3.1,10.8,3.6,18.5,14.9,24.6
		c1.9,1.1,2.7,4.4,5.8,3.5c0-1.8-0.1-3.4,0-5c0.2-2.6,0.7-5.4,3.8-5.8c3-0.4,4.1,2.2,4.7,4.6c0.9,3.6,2,7.2,2.3,11.1
		c9.7-19.8,13.3-39.5-0.5-59.3c-3.3-0.6-5.7,3-9.3,2.4c0.2-8.4,9.2-2.9,11-8.4c-2.4-2-6.1-3-9.6-4.5c-5.2-2.1-13.1,2.3-13.2,7.9
		c0,0.8,0.3,1.8,0.9,2.3c0.8,0.8,1.6,0,2.2-0.6c1.9-1.7,4-1.5,6.5-1.1c-5.4,8.1-17.1,8.5-22,19.3C437.8,485.5,439.6,484.3,442.7,482
		z M311,437.1c-12.8-0.1-25-0.7-36.2,4.4c-8.4,3.8-17.4,7.9-20.4,18.2c-0.5,1.8-1.4,4.1,0.3,5.6c2,1.8,5.3,1.3,6.8,0.5
		c9-5.2,19-6.6,29-7.9c16.4-2.1,32.7-1.9,48.5,4.2c0.8,0.3,1.4,0.2,2-0.6c2.6-3.7-1.3-4.9-2.7-6.8c-0.9-1.2-2.3-2.7-3.8-2.7
		c-6.4-8.5-17.4-7.3-25-12.8C309.5,439,310,438.4,311,437.1z M28.8,483.4c0.6,4.6-2.9,7.7-2.9,13.1c2.3-6.2,6.9-7.1,11.1-9
		c-0.4,2.3-1.3,3.7-2.8,5c-8.3,7.5-10.9,16.2-7.7,24.8c0.7,2,1.6,3.9,4.1,2c0.6,1.4,1.2,2.6,2.1,4.7c0.2-2.9,0-4.8,0.5-6.6
		c0.7-2.5,1.7-5.6,4.9-5.1c3.1,0.5,2.2,3.5,2.1,5.7c-0.2,4.6,3.6,5.6,6.5,7.5c-1.4-2.8-5.4-3.9-5.1-8.1c2.4,0.5,1,4.4,4.5,3.6
		c-1.6-4.1-0.9-8.3-0.1-14c0.4,2.6,0.6,3.5,0.7,4.5c0.5-8.4,1.4-16.7,4.6-24.6c-2.7,3.5-3,7.8-4.3,12c-3.3-5.1-1.9-9.7,1.4-15.5
		c-3.5,3.1-3.7,6-4.9,8.1c-1.1-9.3,5-14.9,12.8-19.7c-9.5-5.2-16.7-1.6-24,1.1c-0.1,0-0.2,0.3-0.2,0.5c0.7,0,1.3,0.1,2.6,0.2
		c-3.8,2.7-8.4,3.8-9.4,8.2c-0.9,3.8-0.9,7.8-1.4,11.8C25.2,490,26.2,486.7,28.8,483.4z M376.9,431.3c-5.4,7.3-6.5,19.5-1.9,24.3
		c1.1-4.4,2.2-8.5,3.6-13.9c0.4,2.5,0.5,3.7,0.7,5c5.5-5.5,6.1-12.2,7.7-19.1c3-13.7-1.6-26.3-2.6-39.4c-0.1-1.3-0.6-2.7-2.1-3
		c-1.6-0.3-2.5,1-2.9,2.2c-1.8,5.2-4.1,10.4-4,16.1c0,3.8,0,8.7-3.9,9.9c-8.6,2.7-3.2,7-2,11C370.5,428.2,375.4,427.6,376.9,431.3z
		 M576.9,497.1c-1.1-7.6-5.4-13.1-12.4-15.8c-3.9-1.5-8.4-1.5-9.4,4.3c4.3,2.6,1.9,7.2,3.3,10.6c0.7-0.4,1.3-0.7,1.9-1
		c0.6,1.8,3.3,2.6,2.6,5c-1.5,0-3.2-1.3-3.9,1.1c-1.9,6.6-6.4,13.1-1.1,20.6c1.6-2.6-0.5-6.7,3.4-7.1c4-0.4,3.3,4.2,4.6,5.6
		c8.9,0,13.5-3.7,12.1-12.7c-0.4-2.8-2.2-5-3.1-7.5c-1.1-3-4.3-5.8-2-10C574.3,492.6,575.6,494.8,576.9,497.1z M162.4,451.1
		c-9.3-19.8-18.3-39.5-13.9-62.6c-3.3,3.7-4,8.1-5.1,14.4c-0.4-13.8,7.4-22.4,12.8-33.4c-6.6,5.3-10.5,10.8-13.8,16.8
		c-0.7,1.3-1.1,3.1-3.3,1.9c-3.9,10.3-1.6,31.3,4.2,37.5c-0.5-2.6-1-5.1-1.4-7.7c7.6,17.6,13.7,35.8,26.3,50.8
		c-3.8-8.1-7.6-16.2-11.4-24.2c0.2-0.1,0.4-0.2,0.6-0.3C159,446.6,160.7,448.8,162.4,451.1z M206.3,354.4c-3.3,9.7,1.1,20.5,10,25.7
		c7.7,4.5,18.9,3,24.6-3.2c5.6-6.1,7.1-17.7,2.7-23.7c-1.9,10.4-7.5,16.8-18.3,16.7C215.4,369.8,209.7,363.8,206.3,354.4z
		 M192.7,350.9c2.5-8.4,2.5-16.8,7.5-24.1c5.2-7.5,12.6-11.7,20.2-15.9c-2.2-3.8-7-0.7-9.1-4.2c1.6-1.3,2.5-2.9,2.8-4.9
		c-17.2,2.1-33.3,33.3-22.8,56.1c-0.2-4,2.6-5.6,5.1-8C194.9,350.3,194,350.6,192.7,350.9z M170.8,445.7
		c-5.5-13.9-13.9-26.8-13.1-42.6c-1.9,6.8-0.1,13.2,1.3,19.6c-8.7-21.8,0.1-41.1,8.7-60.4c-16.8,9.5-24.2,48.2-12.3,65.2
		c0.6-2-1.2-4,0.2-6.4C161.3,429.2,166,437.4,170.8,445.7z M152.7,354.7c-26.1,10.2-38.1,29.5-37.8,56.8c1.3-5.3,3.3-10.4,5.3-15.6
		c2-5.2,4.1-10.3,5.8-15.6c2.9-9.6,10.4-16.6,21-18.8c3-0.6,6.1-1,9-1.9c5.4-1.5,10.3-7,9.3-10.2c-8.7,2.4-18.3,1.6-27.8,7.7
		C143.6,355.9,147.7,354.1,152.7,354.7z M343.4,365.5c2.6,6.4,13.4,10.9,23.1,9.5c5.4-0.8,4.7-6.4,5.9-10.3c0.7-2.2,0.9-4.6,0.7-6.8
		c-0.4-6.8-0.7-13.7-7.6-19.4c4.3,9.7,4.1,18-2.9,24.6C357.5,368,351,370.2,343.4,365.5z M498.3,544.4c-0.9,6.2-2.4,10.9-4.7,15.3
		c7.4-7.8,10.2-19.6,7.6-30.9c-0.6-2.7-1.5-5.6-5-4.6c-3.2,0.9-4.4,4.5-3.1,7c4.2,8.2,1,15.5-1.5,23.1c-1.1,3.5-2.7,6.8-4.1,10.1
		C492.9,559,495.2,552.2,498.3,544.4z M211.5,345.5c-3.1,5.6-1.4,13.6,3.8,17.6c7.1,5.5,14.8,5,21-1.1c5.6-5.5,6.3-13.1,1.9-18.9
		c0.3,10.7-4.1,17.9-11.7,19C219.2,363,213.9,357.2,211.5,345.5z M157.8,337.8c-1.9,1.3-3.1,2.1-4.2,2.9c-2.1,1.5,0.1,4.4-1.9,5.9
		c0.4,0.4,0.7,1.1,1.2,1.2c7.7,2.4,19.6-9,17.9-18c-4.9,5-12,3.9-18.8,7.5C154.5,337.5,155.6,337.6,157.8,337.8z M373.8,333.2
		c-11.1-12.1-20.5-15.5-27.2-10.7c-3.2,2.3-5.3,5.3-5,11.1c2.3-2.9,3.7-4.6,5-6.4c0,0.6-0.1,1.2-0.1,1.8
		C356.1,327.4,365.8,325.8,373.8,333.2z M224.5,337.2c-4.5,0.2-7.5,2.7-9.6,6.4c-0.6,1.1-0.5,2.2,0.6,3.2c4.1,4.3,8.2,8.9,11.7-0.5
		c0.1-0.2,0.4-0.3,0.6-0.3c2.4-0.6,4.6-1.4,3.5-4.6C230.1,338.2,227.6,337.3,224.5,337.2z M364.8,348.8c-7.2,8.8-14,17.1-24.9,5.4
		c0.3,3.7,0.5,7.3,4.2,9.1c5.9,2.8,11.7,1.4,16.3-2.3C363.5,358.4,365.2,354.2,364.8,348.8z M460.2,548.6c3.4-9.6,5.3-19.3,4-29.3
		c-0.2-1.8-0.5-4.6-3.3-3.8c-2.4,0.7-2.4,3.3-1.6,5.3c1.8,4.6,1.2,9.2,0.9,13.9C460,539.3,460.2,543.9,460.2,548.6z M238.4,334.2
		c-2.9-3.8-2.7-10.7-9-10.3c-5.8,0.4-12.4,0.6-16.9,8.7C222.3,327.8,230.9,325.9,238.4,334.2z M318.2,465.4c-4.8-2.8-6.3,2.7-9.6,2
		c-0.5-0.9-1.1-1.9-1.8-3.1c-1.7,2.1-6.4,4.2-2,6c2.8,1.2,4.5,2.7,6.6,5C311.5,470.7,313.1,467.3,318.2,465.4z M40.5,531.8
		c-1.3-5.4-2.3-10.8-1.7-16.4c0.1-1-0.6-2-1.8-1.8c-1.4,0.1-2,1.3-2.2,2.5C34,522.1,35.3,527.6,40.5,531.8z M355.5,342.3
		c-0.2-2.3-1.4-3.9-3.9-3.9c-2.7,0-4.7,1.2-4.9,4.1c-0.1,2.7,1.5,4.4,4.2,4.5C353.9,347.1,355.1,345.1,355.5,342.3z M554.7,536.6
		c4.7-2.2,6.8-6.3,8.1-10.8c0.9-3.3,1.7-6.8-1.4-12C560.1,522.8,560.6,530.8,554.7,536.6z M405,313.6c3.7,5,9.3,6.3,15.1,10.6
		C417,316,411.7,314.3,405,313.6z M331,472.2c-1.5-3.9-3-6.7-6.7-8.1c0,1,0,1.6,0,4.1c-0.9-4.4-2.7-4.3-5.1-3.3
		C324.2,465.5,323.8,473.9,331,472.2z M300.9,500.4c2-11.4,0.8-22.7,0-34C300.9,477.7,300.9,489,300.9,500.4z M365,345.8
		c-0.2-1.6-0.8-3.2-2.9-3.1c-1.9,0.1-3.4,1.1-3.4,3.2c0,2,1.2,3.3,3.3,3.3C363.9,349.2,364.8,347.8,365,345.8z"/>
	<path d="M297.7,361.7c2.5,6.3,5.2,12.1,9.6,17c1.3,1.5,2.5,2.6,4.9,2.8c4,0.4,4,4.2,4.6,7.2c1.7-0.7,1.6-3.7,4-3
		c1.2,0.3,1.1,1.4,1,2.5c-0.1,2.6-1.6,3.7-4,3.7c-3.6,0.1-4.8,3-6.2,5.1c-8.2-0.8-16.4,5.6-23.8,0.3c-4-1.5-7.5-2.8-11-4.2
		c0.1-1.4,0.2-2.4,0.4-3.8c2.8,1.4,4.3-4.3,7.8-0.9c0-2,0-3.3,0-3.8C292.5,378.5,293.8,369.6,297.7,361.7z"/>
	<path d="M400.1,503.6c1.7-0.8,2.5-1.2,3.4-1.6c1.3,1.4,1,3,1,4.5c-2.3,0.8-3.2-1.1-4.6-1.7c-3.4-1.5-6.7-3.2-10.2-4.6
		c-11.7-4.5-11.6-4.5-11.9-17.2c0-2.5,1-3.1,3.1-2.7c6.3,1.2,12.7,2.5,18.7,4.9c2.2,0.9,2.6,2.1,2.3,4.3
		C401.2,493.9,400.7,498.4,400.1,503.6z"/>
	<path d="M443.7,335.6c-4.7-3.7-9.1-7.8-12.3-13c-1.1-2.8-2.3-5.6-4-9.8c11.2,9.6,17.3,22.4,29.5,28.3
		C451.7,341.8,448.3,337.2,443.7,335.6z"/>
	<path d="M397.1,290.5c-10.7,2.8-26.6-7.1-36-22.4c2.7-0.4,4.3,0.7,5.8,2.7c9.3,12.2,15.7,16,28.6,16.9c-1.5,0.5-2.4,0.8-3.7,1.3
		C393.3,290.8,395.2,289.9,397.1,290.5z"/>
	<path d="M162,296.7c-11.6,1.6-21.4-3.7-33.9-2.5C134.6,292.1,155.7,293.9,162,296.7z"/>
	<path d="M431.5,311.8c8.3,6.7,12.8,16.9,21.3,23.4C443.6,329.3,438.3,319.9,431.5,311.8z"/>
	<path d="M395.1,292.4c3.6-0.2,23.2,3.3,25.9,4.7c-6.5-2.4-13-2.1-19.7-0.9C398.4,296.8,396,295.6,395.1,292.4z"/>
	<path d="M352.2,277.6c2.4-0.8,4.7,0.3,4.2,2.4c-1.1,4.9-4.2-1.4-6.1,0.7C350.9,279.6,351.6,278.6,352.2,277.6
		C352.2,277.5,352.2,277.6,352.2,277.6z"/>
	<path d="M107.6,396.6c1.2-6.1,3.2-11.9,7.2-16.9C112.5,385.3,110.1,390.9,107.6,396.6z"/>
	<path d="M87.2,503.4c-4.2-3.9-6.2-13.1-3.9-16.7c2.5,2.3,1.3,5.6,2.1,8.2c0.9,1.1,2.1-1.7,2.7,0.1
		C88.9,497.7,88.1,500.4,87.2,503.4z"/>
	<path d="M88.5,504.5c0.5-5.4,0.9-10.8,1.4-16.2C92,493.9,89.3,499.1,88.5,504.5z"/>
	<path d="M495.7,471.2c0.2,2.9,0.4,5.8,0.7,9c0.5-0.5,0.8-0.9,1.1-1.3c4.7,7.7,4.7,7.7-1.4,12.8c-1.4-3.2-6.5-4.3-5.8-8.5
		c0.8-4.2,2.7-8.2,4.1-12.3C494.9,471.1,495.3,471.2,495.7,471.2z"/>
	<path d="M503.9,486.9c1.5,1,3,2.2,3.1-1.5c1.9,5.5,2,9.9,0.2,14.5C507.9,495.2,502.7,492.3,503.9,486.9z"/>
	<path d="M510.7,499.9c-2.5-7.1-0.8-13.2-1.9-19.4C511,484,512.4,495.2,510.7,499.9z"/>
	<path d="M532.4,488c3.9-0.5,2.1,3.6,4.1,4.9c0.1-0.7,0.3-1.4,0.8-4.2c0.4,5.1,0.7,8.2,0.9,11.3c0,0,0,0,0,0
		C535,496.6,531.2,493.5,532.4,488C532.4,488,532.4,488,532.4,488z"/>
	<path d="M538.2,500c1.3-2.2,1.1-4.6,0.6-7.1c3.7,1.8,4.4,4.7,3.5,8.3C540.4,501.8,540.1,498.7,538.2,500
		C538.2,500,538.2,500,538.2,500z"/>
</g>
</svg>
