<?xml version="1.0" encoding="utf-8"?>
<!-- Generator: Adobe Illustrator 24.2.3, SVG Export Plug-In . SVG Version: 6.00 Build 0)  -->
<svg version="1.1" id="Layer_1" xmlns="http://www.w3.org/2000/svg" xmlns:xlink="http://www.w3.org/1999/xlink" x="0px" y="0px"
	 viewBox="0 0 595.3 841.9" style="enable-background:new 0 0 595.3 841.9; fill: #215342;" xml:space="preserve"
	 height="350" width="700" transform="translate(-210, -65)">
<g>
	<path d="M391.8,473.6c-2.6,3.5-5.2,7.1-7.9,10.6c-20.8,26.6-36.4,56-48.9,87.2c-1.4,3.6,1.9,5.2,2.3,8.3c-4-1.3-4.5,0.8-3.3,3.5
		c1.8,4-2.1,6.6-2,10.2c0,1.2-1.6,0.5-1.8,0.4c-3.4,2.2-3.2,7.8-8.3,8c-5.5,4.3-7.8,12.4-16.5,13c0,0.8,0,1.8,0,3.3
		c-1.2-0.9-2-1.5-2.9-2.1c-1.4,0.3-2.1,3.8-4.1,0.3c-0.7,2-1.3,3.4-1.8,5c-1.5-0.2-3.6-2.1-4.1,1.4c-0.8-1-1.3-1.5-2.2-2.6
		c-0.5,2.1-0.8,3.6-1.5,6.4c-0.6-2.9-0.9-4.6-1.4-7.3c-0.9,3.1-1.5,5.1-2.6,8.8c-0.5-3.3-0.7-4.8-1-6.3c-0.9,1.5-1.9,3-3.1,4.8
		c-0.8-1.8-1.5-3.2-2.6-5.5c-0.7,2.5-1.1,4.1-2,7.4c-0.4-3.6-0.7-5.5-1-8.1c-1.5,2.5-2.7,4.4-4.1,6.7c-0.6-2.4-1.1-4.3-1.8-7.1
		c-0.3,1.8-0.5,2.7-0.8,4.5c-0.7-1.6-1-2.3-1.2-2.9c-1,0.9-2.1,1.8-3.4,2.9c-0.6-1.2-1-2.2-1-2.1c-3.8-2.4-6.9-4.6-11.1-4.2
		c-0.3-1.4-0.1-4.3-2.7-5.5c-1.7-0.8-1.6,1.8-3.3,2.5c-0.4-1.4-0.8-2.8-1.2-4.4c-0.5,1-0.9,1.8-1.3,2.7c-2.8-1.1-4.5-4.1-8-4.3
		c0-0.4-0.1-1.4-0.1-1.7c-4.2-0.9-3-7-7.4-7.4c-0.1-1.2-0.1-2.8-0.2-4.7c-0.9,0.8-1.5,1.3-2.6,2.2c0.3-1.6,0.6-2.7,1-4.4
		c-0.9,0.7-1.4,1.1-1.6,1.3c-2.7-3.7-3.6-7.8-0.5-12.5c-1.3,0.7-2,1.1-2.8,1.5c-0.4-2.3,1.7-3.2,2.4-5.1c-0.9,0.3-1.5,0.5-2.5,0.8
		c0.7-13.6-9.8-21.7-15.7-32c-8.2-14.3-16-28.7-22.7-43.7c-2.6-5.8-6.6-10.3-10.6-15c-1.2-1.4-1.8-0.8-2.3,0.6
		c-3.9-4-0.3-8.3-1.2-12.8c-3,4.1-2.4,8.3-2.2,13.4c-2.6-6-2.6-11.1-0.1-16.1c1.4-2.7,4.1-3.1,6.8-2.8c3.7,0.4,6.1,2.9,8.3,5.6
		c4.8,6,7.6,13.2,11,20.1c8.1,16.2,18.9,29.4,38.1,32.9c12.5,2.3,22.9-3.7,33.5-8.6c10.4-4.8,11.6-7.8,8.6-19.7
		c-0.6,2.6-1.1,4.6-1.9,8.4c-0.5-5.2,1.7-8.7-0.4-13.2c-0.7,3.1-1.2,5.2-2,8.5c-1-3.5,0.5-6-1.3-8.5c-0.6,2.1-1.1,3.9-1.9,7.2
		c-1.3-12.6-7.7-8.1-13.4-5.9c0.2-2.3-6-4.7,1.3-7.1c-3.6-0.3-7.6,0.9-7.8-1.4c-1.2-10.4-11.7-15.1-14-24.9c-1.4-6-7-10.5-6.3-17.6
		c1.3-14,8.4-24.1,19.6-31.8c19.8-13.5,58.4-12.2,75.9,2.4c15.7,13.1,18.1,29,6.5,45.8c1.3-0.4,2.2-0.6,3.1-0.9
		c2.4,1.7-14.9,24.2-21.5,28.1c-0.9,1.3,2.3,0.9,0.9,2.6c-1.2,1.5-2.5,1.2-4.2,0.8c0.5,0.9,0.9,1.5,1.5,2.5c-1.2-0.2-2-0.4-3-0.5
		c0.5,0.7,0.8,1.1,1.4,2c-1.4-0.3-2.4-0.5-3.3-0.7c-0.6,0.8,0.9,1.9-0.9,2.4c-2.5,0.8-2.9-1.6-5.2-3.2c1.6,2.6,2.5,4.2,3.7,6.2
		c-3-0.5-3.4-3-5.7-5.9c1.3,3.6,2,5.6,3,8.4c-1.2-1.4-1.9-2.4-3.8-4.8c0.5,3.3,0.7,4.7,1.2,7.9c-1.5-3.2-2.3-4.8-3.4-7.1
		c-0.7,4.2,1.2,7.3,1.1,10.8c-1-3.3-2-6.6-3.5-11.7c-0.2,5.2,0.5,8.3,1,11.5c-0.6-1.3-1.2-2.5-1.9-3.8c-3.6,3.7-2,9.5,3.3,12.5
		c26.3,14.8,43.3,15.6,68.1-15.3c8.3-10.3,14.4-22.4,21.7-33.7c1.8-2.9,3.4-7.2,7.7-6C392.2,465.8,391.6,470.2,391.8,473.6
		C391.8,473.7,391.8,473.6,391.8,473.6z M232.9,534.8c8.7,9.3-6.5,13.4-2.6,21.6c4.5-3.9,7.3-1.6,9.3,2.7c0.9,2,1.8,3.9,2.6,6
		c5.8,15.8,17.4,24,33.8,25.1c17.2,1.2,29.4-7.3,37.4-21.8c4.9-8.9,8.1-18.8,22-16.1c-2.6-8.1-9.3-10.7-14.7-13.6
		c-10.3-5.5-20.2-15.2-34.5-5.9c3-3.2,3.5-6.9,8.1-6.5c-8.4-5.5-12.2-3.9-13.5,5c-1.5,10.3,0.5,20.7-1.7,30.9
		c-0.3-5.7-0.5-11.4-1-17c-1.4-14.9-9.5-20.5-23.3-15.7C248.1,531.8,241.8,535,232.9,534.8z M329.6,452c2.8-4.8,2.9-9.1,2.2-13.4
		c-2.5-15.5-13.5-23-27-27.4c-24.1-7.9-46.9-7.2-66.1,11.9c-5.2,5.2-9.9,11-8,19.4c5.9-6.6,13.2-11.1,21.1-14.8c0.5-0.9,1-1.7,1-1.7
		c10.4-0.2,13.5-13,23.8-12.3c-4.4,2.3-8.7,4.1-13.1,8.5c10.8-4.3,20.4-6.1,30.7-5.2c12.1,1,16.2,10.2,20.1,18.1
		c3,0.8,1-2.1,2.5-1.1C323.5,437.9,326.9,444.2,329.6,452z M296.9,594.1c3.9,3,7.8,1,10.8-1.5c4.6-3.8,8.9-8.1,12.7-12.7
		c5.5-6.6,7-19.7,3.1-24.7c-0.7,1.2-1.7,2.1-1.8,3.3c-1.7,9.8-8.2,16.5-14.8,23.2c-9.4,9.5-21,12.7-33.8,10.8
		c-17.6-2.5-29-12.7-34-29.9c-0.7-2.5-1.4-5.5-4.6-6.7c-1.7,4.5-1.5,8.7-0.5,12.8c2.4,9.8,6.3,19.2,15,25c3.3,2.2,7.9,2.8,12,3.5
		c1.9,0.3,5.3,1.9,5.7-2.8c2.8,5.2,6.1,3.3,9.2,1.3c4.4,4.9,7.9,4.1,10.9-1.2C290.6,598.9,293.7,597.9,296.9,594.1z M325.8,582.2
		c-9.6,6.3-15.6,15.8-27.5,16.5c-10.6,0.7-21.2,2.4-31.8,2.4c17.9,1.7,36.4,7.6,52.3-6.6C322.1,591.6,325.2,588.3,325.8,582.2z
		 M295.3,441.8c-4.6,3.6-6.2,8.5-5.9,14.2c0.3,4.1,1.3,8.2,5.6,9.8c7.5,2.6,15.4,3.1,23.3,2.7c2.4-0.1,4.8-1.8,6.4-4.3
		c-9.9,1.5-20.1,5.8-28.3-2.6C291.1,455.9,291.9,448.7,295.3,441.8z M228.9,546.8c-3.8-4.4-0.7-13.6-10.6-15.1
		C221,538.1,224.4,542.9,228.9,546.8z M229.2,562c-4.8-8.1-8.6-14.6-12.4-21.1C217.3,549.4,221.8,555.5,229.2,562z M232.2,546.5
		c2.6-4.2,0.8-7.6-0.2-10.8c-0.6-1.8-1.9-2.7-4.3-2C228.6,537.9,228.9,542.2,232.2,546.5z M329.4,531.4c-3.6-0.4-5.5,0.9-5.9,4.1
		c-0.4,3.2,2.1,3.6,4.3,4.6C328.4,537.2,328.9,534.5,329.4,531.4z"/>
	<path d="M384.9,501.1c-5.1,7.6-7.5,16.1-8.4,25.7c7.3-3.2,14.1-5.1,21.9-1.4c-1.5-6-0.8-11.5,2.1-16.5c0.5,0.3,1.1,0.6,1.2,0.7
		c0.2-1.1,0.5-2.9,1-6c0.8,2.7,1.3,4.1,2.1,6.8c0.6-6.8,1.2-12.2,1.7-17.7c0.3,0,0.5,0,0.8,0c0.4,2.9,0.7,5.7,1.3,10.1
		c1-6,1.8-10.6,2.6-15.1c0.3,0,0.6,0,0.9,0c0.2,1.8,0.4,3.6,0.6,6.2c1.9-8.6,3.3-16.5,5.3-24.2c2.2-8.1,0.4-16-0.5-25.5
		c1.4,2.5,2.1,3.7,3.1,5.5c0-4,0-7.6,0-11.1c0.1,0,0.3,0,0.4,0c0.4,3.6,0.8,7.2,1.2,11.1c0.9-7.8,0.2-15.1-2.1-22.4
		c0.8,2.1,1.8,4.1,2.5,6.2c0.8,2.2,1.5,4.5,2.5,7.8c1.7-5.7,0.2-10.3-0.1-15c3,8.6,4.4,17.5,4.7,25.8c1.7-10.2,0-20.9-2.1-32.3
		c6.3,12.4,8.9,24.9,9.4,37.9c0.8-19.9-1.8-39.5-4.6-59.2c2,5.5,4,11.1,6,16.6c-2.5-16.7-5.7-33.1-17.1-46.1c2.6,1,6,4.6,9.3,10.9
		c2.3,4.4,4.3,9,6.9,13.4c-2.3-9.5-4.7-18.9-7-28.4c0.3-0.1,0.6-0.2,0.9-0.3c1.3,3.9,2.6,7.8,4.7,14c-1.9-19.1-3.6-35.9-5.3-52.6
		c3.1,9.1,3.8,18.6,5.2,28c1.5,9.6,3.2,19.1,4.4,28.8c1.2,9.5,1.8,19.1,2.8,29.9c2.5-10.8,5.8-20,1.5-30.1c-3.6-8.3-2.8-17.4-1-28.6
		c-0.2,9.2,0.1,16.2,2.5,24.4c0.2-3.1,0.2-4.8,0.3-6.9c3.8,15.1,3.2,22.8-1.6,50.2c-6.2,35.3-5.9,70.2,8.9,103.9
		c2,4.5,3.5,9.3,2.9,15c-16.1-13.9-33.3-20.9-54.3-11.3c0.8,0.9,1.3,1.6,1.9,2.4c-9.9-7.4-20.1-9.5-30.7-1.5c-2.2-2.7-2.4-5.1-1.6-8
		c2.1-7.5,5.7-14.2,10-20.6c5.7-8.5,8.3-17.9,9.7-27.8c0,0,0,0,0,0c0.8,9.1-3,17.3-5.6,25.6C385.7,499.9,385.3,500.5,384.9,501.1z"
		/>
	<path d="M149.1,498.7c-2.2-9-2.6-17.9,2.5-26.2c-1.7,5.6-2.2,11.3-1.4,17.2c1.4,10.1,9.5,14.7,16.2,20.6c8.8,7.7,14,17.3,14.5,29.2
		c0.1,2,0.7,3.5,2.9,4c2.2,0.5,1.4-1.5,2.4-2.7c0.8,3.4,2.5,5.9,5.8,7.4c0-1.5,0-2.9,0-5.6c2.5,13.2,12.9,20.9,15.5,33
		c0.5-1,0.8-1.5,1.1-2.1c4.9,6.3,8.6,12.8,9.5,20.7c2,17.6,12.8,28.7,28,35.7c33.7,15.7,65.4,8.8,85-18.5
		c7.3-10.2,13.2-21.2,11.6-34.8c0.9,0.5,1.5,0.8,2.3,1.2c-4-18.9,2.2-32.8,19.5-40c-1.1,2.2-2.5,5.4-4.1,8.5
		c-8.5,17.1-11.7,35.2-10.5,54.1c0.4,6.2,2.7,12.1,6.3,17.2c3,4.2,6.1,4.9,8.2-1.2c-0.4,4.5-1.2,6-3.3,6.5c-3.3,0.7-5.1-1.4-6.7-3.7
		c-2.8-3.9-4.6-8.4-6.2-12.9c-0.7-1.8,0.2-4.8-3.1-4.9c-3.1-0.1-5.5,0.3-7.3,3.9c-22.2,43.6-86.1,48.2-114.8,8.3
		c-0.8-1.1-1.4-2.3-2.3-3.4c-1.9-2.5-1.6-7.3-4.7-7.8c-5.3-0.9-10.9-0.3-16.4-0.2c-1.7,0-1.9,1.8-2.4,3c-3.7,8.1-9.3,14.4-18,17.5
		c16.2-10.4,17.7-25.6,13.5-43.4c2.5,5,2.7,9.7,3.7,14.5c2.2-3.4,0.9-8.3,5.9-12.2c0.5-8.9-3.4-18.5-9.2-27.6
		c-7.1-11.2-17.9-9.4-28.6-8.9c2.2-0.5,4.3-1.5,6.4-1.3c6.2,0.3,6.6-2.7,5.8-7.8c-1.1-7.4-4.5-13.3-9.5-18.6
		C161.2,511.2,154.2,505.8,149.1,498.7L149.1,498.7z"/>
	<path d="M222.4,316.5c0.3,7.8-1.1,14.7,7.3,16.9c-1.2,1-2.1,1.6-3.4,2.7c1.5,0.3,2.6,0.6,3.6,0.8c-3.9,3.4,1.2,5.6,1.4,10.4
		c-1.2-2.1-1.7-3-2.2-3.9c-2.6,3.4-6.9,3.8-9.2,7.2c-7.2,10.6-16.5,17.4-30.2,14.9c-6-1.1-9.9-5.4-13.6-9.8
		c-1.8-2.1-3.3-3.8-6.9-1.7c0.9-1.6,1.4-2.4,1.9-3.3c-0.7-0.1-1.2-0.2-2.1-0.3c2.5-2.3,4.7-4.5,7.4-7c-1.4-0.2-2.1-0.4-3-0.5
		c1.2-1,2.3-1.8,3.7-2.9c-0.8-0.6-1.5-1-2.2-1.6c2.3-1.1,4.5-2.1,7-3.3c-2.1-0.7-3.8,1.4-5.7-0.4c1.5-0.5,2.8-1,4.2-1.5
		c-0.9-0.9-1.7-1.8-3.4-3.6c4.3,1.5,6.5-0.3,8.4-3c-1.1-0.4-2.5-0.8-4.9-1.6c3-1.1,5-1.9,7.5-2.8c-1.3-0.5-2.4-0.9-3.7-1.4
		c4-1,6.8-4.5,11.2-3.9c-1.9-0.7-3.7-1.4-5.6-2.1c0-0.2,0.1-0.4,0.1-0.7c2.7,0.4,5.4,0.8,8.1,1.2c0.1-0.2,0.2-0.4,0.2-0.6
		c-1.3-0.5-2.6-1-4-1.5c5.1,1.9,11.5-0.9,16.2,3.7c1.4-1.6,1.7-1.3,4,3.6c0-1.2,0-2.1,0-2.9c0.9-0.4,1.2,0,2.7,4.3
		c0.6-0.7,1-1.3,1.6-2c0.5,1,0.9,1.8,1.6,3.3C221,321.2,221.4,319.9,222.4,316.5z M215.4,338.5c-2,8-6.5,12.3-13.5,13.1
		c-8.2,1-11.1-4.9-12.9-12c-1.5,5.6-0.6,10.2,3.7,12.9c5.6,3.5,11.3,1.2,16.6-1.3C214,348.8,215.7,344.6,215.4,338.5z M198.1,358.2
		c-8.5-1.1-12.8-6.4-14.8-15.9c-1.2,4.2-3.9,6.1-1.6,9.3C185.7,357.5,191.5,358.7,198.1,358.2z M203.7,339.4c2.9,1.7,4.7,0.5,5.7-2
		c1.3-3.3,0.5-6.1-3.9-7.7C207.1,333.7,205.8,336.6,203.7,339.4z"/>
	<path d="M330.4,350c0.1-3.4-1.6-3.9-3.8-3.7c-1.3-0.7,4.2-2.4-1.2-2.3c1.3-1,1.9-1.5,2.9-2.2c-0.9-0.2-1.7-0.5-3.1-0.8
		c1.5-0.5,2.4-0.9,3.8-1.3c-1.1-0.5-2-0.8-2.8-1.2c2.3-1.2,4.1-2.8,4.4-5.8c0.8,0.2,1.6,0.5,2.8,0.8c-0.1-1.7-0.2-3-0.3-4.6
		c0.7,0.4,1.3,0.8,2.1,1.3c0.4-2,0.8-3.8,1.2-5.5c1.6-0.4,1.7,0.6,2.1,1.4c1.2-1.7,2.3-3.3,3.4-5c7.3-3.4,15.3-1.3,22.9-2.9
		c-0.8,4,2.4,2.3,5.5,2.7c-2,1-3,1.5-5.3,2.7c4.5,0.6,7.2,1,11.5,1.6c-2.2,0.5-2.9,0.6-3.5,0.8c0.2,0.1,0.3,0.3,0.5,0.3
		c3.6-0.5,5.5,0.6,6.5,4.7c1,4,3.6,7.7,5.6,11.5c1.5,2.8,4.2,4.3,7.5,6.3c-1.6-0.1-2.3-0.1-3.4-0.2c0.9,1.6,3.1,3,1.6,4.7
		c-1.4,1.6-3.1-0.2-4.6-0.8c-3.1-1.2-5.1,0.4-6.6,2.8c-8.9,14-25.1,11.8-34.4,5.7c-4.9-3.2-9.3-7.2-13.6-11.2
		C331,348.7,330.4,350.1,330.4,350z M341.5,340c-1.6,6-1.2,10.6,3.5,13.3c6.2,3.6,12.8,6.1,19.4,0.8c3.8-3.1,5.1-7.8,3.5-11.5
		c-0.8,7.4-6.1,12.5-13.2,12.7C348.2,355.6,343.1,350.1,341.5,340z M361.7,358.6c6.6-0.2,10.4-2.5,12.7-7c2.3-4.4,0.1-8.4-2.3-14.5
		C372.8,347.3,371.2,354.4,361.7,358.6z M354.8,342.2c3.7,1.1,5.2-0.8,6.4-2.9c0.9-1.6,1.1-3.5-1.3-4.8
		C358.3,337,356.7,339.4,354.8,342.2z"/>
	<path d="M33.6,608.5c-9.7-18.7-1.5-46.5,16.2-55.3c6-3,7.1-7.6,7.5-13c0.4-6-0.7-11.8-6.8-14.9c-5.6-2.9-10.6-6.5-15.3-10.8
		c-5.7-5.2-8.3-11.7-9-21c-1.7,4.9-2.9,8.2-4.1,11.5c-7.3-10.2,0.1-35.7,14.9-50.4c-8.6,14.5-17.6,28-15,46.7
		c4.4-9.8,6-19.3,11.2-27.4c-4.7,12.8-8.9,25.5,2.7,38.2c-3.6-13.9-3.9-26.9,2.1-39.4c-2.2,7.3-3.7,14.7-3.9,22.3
		c1.8-9.6,5.4-18.5,10.5-26.8c-6.4,14.5-10.8,29.2-5.5,45c2.3,6.8,9.5,8.4,16.5,13.7c-8.3-18-11.9-34.5-2-51
		c-4.8,12.5-5.6,24.9-0.6,37.5c1.7,4.1,3.1,8.4,4.3,12.6c2.1,7.7,3.3,15.4-1.8,23.9c8.6-4.1,16.5-5.4,24.4-6.8
		c3.1-0.6,4.4-3.8,6.7-5.7c8.1-6.7,17.8-8.8,27.9-9.3c2.6-0.1,3.7-1,4.8-3.2c6.5-12.7,6.7-26.4,6.4-40.1c-0.1-2.5,0-2.5,2.1-4.7
		c1.2,5.3,2.3,10.2,3.5,15.6c0.3-1.7,0.6-2.8,0.8-4c0.3,0,0.6-0.1,0.9-0.1c0.6,4.2,1.3,8.5,2.1,14c0.4-4.7,0.6-8.3,1-13
		c2.7,12.2,0.7,22.7-4.1,34.8c5.4-6,7-11.9,10-18.9c0,3.6,0,5.5,0,7.3c0.2,0,0.4,0,0.6,0.1c0.3-1.3,0.6-2.6,1-4.3
		c1.9,6.1,6,11.3,3.2,18.4c1.1-1.2,1.7-1.9,3.5-3.9c-1.4,3.6-2.2,5.8-3,8c0.2,0.2,0.5,0.3,0.7,0.5c0.9-1.2,1.8-2.5,2.7-3.7
		c-4,5.3,0.7,7.1,3.8,9.9c-11.2-8.2-22.6-4.8-34.2-1.6c2.1-1.2,4.2-2.4,6.4-3.7c-8.2-8.9-29.3-5.4-43.3,7.1
		c3.9,0.2,7.6-1.5,11.4,0.2c-3.5,0.4-6.8,0.7-11.5,1.2c2,0.7,2.7,0.9,4.3,1.4c-17.5,1-34.3,2.5-45.9,16.3
		C30.6,575,28.6,590.9,33.6,608.5z"/>
	<path d="M410.2,650.6c-1.5,6.5-2.8,13.1-6.7,18.8c-0.8,1.2-1.7,3.2-3.5,2.7c-1.6-0.4-1.9-2.2-2-3.6c-0.6-6.3-2.6-10.4-9.2-13.5
		c-7.7-3.5-9.6-12.5-11.6-20.4c-3.5,2-6.6,4-10,5.7c-3.8,1.8-5.9,0.2-6.1-3.8c-0.1-1-0.2-2.2,0.1-3.1c5.9-15.2,10.6-30.8,18.9-45
		c1.1-1.9,2.5-4.1,5.3-3.6c2.9,0.5,3.7,3.1,3.9,5.5c1.1,14.5,0,28.6-9.2,40.7c-1.5,2-1.7,3.6-0.9,5.9c3.2,8.5,7.3,16.2,17,19.8
		c-0.1-10.4,1.4-20.1,3.9-29.7c0.8-3,1.3-6.3,4-8.5l0-0.1c-3.3,16.5-7.8,33-4.5,50.1c0.9-0.8,1.1-1.8,1.3-2.7
		c1.4-8.5,1.6-17.2,4.5-25.5c0.5-1.3,0.6-3.3,2.4-3.3c2.3,0,1.9,2.4,2,3.7C410.1,644.1,410,647.4,410.2,650.6L410.2,650.6z
		 M385,586.4c-2.2,2.2-22.3,46.7-22.3,49.2C377.2,627.5,392.3,600.7,385,586.4z"/>
	<path d="M114,559c3.2-1.6,6-4.4,11.7-4.7c-23.2,16-23,39.1-23,62c0,6.8,0.6,13.8,6.7,18.8c0-1.4,0-2.7,0-4.5c2,2.4,1.6,5.7,4.4,7.5
		c-0.1-1.1-0.1-2-0.2-3.5c2.6,3.2,1.8,8.3,6.7,9c0,0,0-0.1,0-0.1c-6.1,1.3-8.6-4.4-12.7-6.9c-0.8-0.5-1.2-1.9-2.9-2
		c0.3,1.8,0.6,3.6,1.1,7.1c-2.2-3.2-3.5-5.2-4.9-7.4c-0.7,1-1.4,2-2.4,3.5c-0.4-1.1-0.6-1.9-0.7-2.3c-6.2,2.6-11.3,6.1-11.3,13.7
		c0,1.3-1.2,2.5-2.8,2.6c-1.5,0.1-2.2-1.1-2.8-2.1c-6.9-10.6-6-38.3,1.6-48.3c-3,12.2-6.4,24.3-4.4,37c0.7-6.8,1.1-13.6,1.5-20.4
		c0.4-5.6,3.9-10.7,2.8-16.6c4.7-2.1,4.9,2,5.6,4.5c2.6,9.3,1.7,18.8,1.5,28.2c0,1.1,0,2.2,0,3.9c5.4-2.2,9.2-5.9,10.2-11.2
		c0.9-4.7,1.1-9.8,0.5-14.6c-1.7-14.1,0.3-27.4,7.3-39.9c1.6-2.9,2.3-6.3,3.4-9.5C111.8,561.5,112.9,560.2,114,559z M86.1,630.5
		c2-9.8,1.5-19.5-1.4-29C83,611.3,83.2,621,86.1,630.5z"/>
	<path d="M125.1,602.7c4.3,2.3,3.9,6.7,4.6,10.4c1.8,9.5,2,19.2,1.3,29.1c4.3,0,7.3-2,10.3-4c13.5-9.2,16.9-22.9,16.5-38
		c-0.1-5,1.8-9.3,3.3-13.8c0.7-2.1,1.8-4.6,4.4-4.6c2.5,0,3.8,2.3,4.7,4.5c4.4,10.5,6,21.5,5.1,32.8c-0.5,5.7-0.4,11.6-4.1,18.7
		c-0.8-19,2.6-36.6-5.3-53.1c0.7,16.8-2.6,33.7,2.2,50.5c-3.5-4.9-3.4-12-10-14.9c-3.4,7.6-7.6,14.8-14.7,19.8
		c-1.1,0.8-2.3,1.8-3.6,2c-6.5,1.2-11.5,4-12.8,11.2c-0.1,0.9-1.1,2.7-2.7,0.8c0.6-6.6,1.3-13.1,1.9-19.7
		C127.1,623.8,129.2,613.1,125.1,602.7z"/>
	<path d="M437.4,660.7c-6.9,0.9-9.5-4.5-13-8.8c-0.5,0.8-0.9,1.4-1.6,2.5c-0.4-1.8-0.7-3.1-1-4.9c-1.9,3.2-3.1,6.6-7.2,7.9
		c1.1-1.7,1.9-3,3-4.7c-2.3,0.6-2.8,4.5-5.9,2.1c10.2-15.8,3.1-33.8,7.4-49.3c-0.2-0.6,0,0,0.3,0.8c1.8-7.3,2.6-14.6,3.3-21.9
		c1.5,10.4-1.4,20.5-1.8,30.8c-0.6,13.3,0,26.3,7.9,37.8c1.7,2.5,3.6,5.4,7,4.6c3.2-0.7,2.1-4.2,2.4-6.5c1.4-10.4,3-20.8,6.3-30.8
		c0.6-1.8,0.8-4,3.5-4c2.8,0,3.2,2.3,3.8,4.2c4.5,15.4,2.6,30.3-4.6,44.5c-1.4,2.7-2.7,6.4-6.4,5.7c-3.8-0.7-2.8-4.6-3.1-7.5
		C437.5,662.5,437.5,661.7,437.4,660.7z M450.2,650.1c2.5-10.6,2.4-20.3,0.1-29.9c-0.3-1.2-0.5-2.8-2.1-2.7
		c-1.4,0.1-1.6,1.5-1.7,2.6c-0.7,12.4,1.4,24.7,0,37.2c1-3.5,2-7,3.1-10.8C449.8,647.7,449.9,648.4,450.2,650.1z"/>
	<path d="M469.7,638.5c-10.2,15.5-11.5,16.8-15.7,17.2c1.7-1.9,3.6-4.5,6-6.6c9.4-8.6,5.8-20.9,9.1-31.3c2.2-7.1,1.2-14.9,0.3-22.4
		c-0.2-1.4,0-2.8,0.4-4.2c2.6,8.2,3.3,16.6,3.7,25.1c0.4,8.1-2.4,16.8,4.1,25.8c1.3-8.1,1.8-14.6,4.2-20.7c1-2.7,1.6-7,4.5-7
		c3.4,0,4.4,4.3,5.2,7.3c1.3,4.8,1.8,9.7,2.7,14.8c8-7.6,11.8-17.3,14.5-27.6c-1.2,10-2.7,20.3-11.1,27c-4.4,3.6-5.9,7.8-7.2,12.7
		c-1.2,4.4-1.6,11.4-7.1,11c-5-0.3-4.3-7.2-4.1-11.2C479.2,641.2,471.7,643,469.7,638.5z M486.6,649.2c6.9-11.7,6.7-28.2-0.4-33.5
		c-3.7,9.7-5.6,19.4-4.9,29.6c1.7-7.6,3.4-15.2,5.2-23.5C488.3,631.1,487.2,639.6,486.6,649.2z"/>
	<path d="M41.5,625.9c-3.8-15.7-0.9-30.2,7.3-43.9c1-1.7,2.7-3.8,4.9-2.9c3.1,1.3,2.4,4.5,2.6,7.3c0.9-4.4,3.9-8.2,3.8-14.4
		c0.5,2.2,0.7,3.1,0.9,4c0.2,0,0.3,0,0.5,0c-0.2-2.7-0.4-5.5-0.6-8.2c0.2,0,0.4-0.1,0.6-0.1c0.5,2.5,0.9,5,1.5,8.2
		c2.4-9.5,7.2-16.4,15.4-20.7c-11,9.7-15,22.8-17.3,36.5c-2.3,13.8-2.7,27.5,8.7,39.7c-6.1-3.1-8.3-7.8-10.2-12.5
		c-5.6,1.1-11.3,1.1-14,7.5C44.9,628.2,42.7,628,41.5,625.9c1.6,0.6,1.9-0.6,2.3-1.7c3.6-11.3,7.2-22.6,10.6-33.9
		c0.8-2.8,1.2-6-0.4-10C45.5,595,41,609.8,41.5,625.9z"/>
	<path d="M556.2,497.1c1.8-4.6,3.6-9.2,5.3-13.8c-13.2,10.8-22.2,25-33.6,37.1c-4.5,4.8-6.4,10.7-6.7,17.1
		c-0.6,12.8-6.5,22.3-18.1,28.5c2.7,3.8,5.6,7.5,5.6,12.7c-3.9-10.7-13.9-15.2-21.5-22.2c2.9,1.6,5.9,3,8.6,4.9
		c3.3,2.3,6.1,1.7,9.4-0.4c10.1-6.3,12.5-16.3,13.6-27c0.6-5.5,1.4-11,2.2-16.7c0.7,1.1-0.2,2.9,1.5,3.2c1.5,0.3,1.6-1.4,2.3-2.1
		c4.4-4.6,8.9-9.1,13-13.9c6.9-8.1,11.2-17.7,14.6-27.9c-0.3,3.4-0.6,6.7-1.1,11.6c3.8-8.3,6.7-15.3,6-23.3
		c2.3,7.5-0.2,14.4-3.5,22.4c10.8-9,10.8-20.5,12.2-31.7c0,1.6,0,3.2,0,4.8c0,1.7,0,3.4,0,5.1c0.2,0,0.3,0,0.5,0
		c0.4-5.3,0.9-10.6,1.2-14.4C569.9,466.8,564.3,482.2,556.2,497.1z"/>
	<path d="M537.7,362.7c-5.5-4.2-7.8-10.5-10.6-16.5c-3.4-7.2-7.1-14.1-13.7-19.1c2.4,1.4,5,2.8,7.3,4.4c2.4,1.7,4.6,3.7,7.6,6
		c-3.5-9.4-8.7-16.5-16.6-21.8c3.8,1.2,7.5,2.4,13.3,4.3c-4.5-3.2-7.4-5.1-11.3-7.9c3.6-0.4,5.8-0.6,9.4-1
		c-19.7-6-29.1-25.8-48.1-31.6c2.5-0.4,5-0.8,8.8-1.4c-4.9-1.4-8.6-2.5-12.2-3.5c0-0.2,0.1-0.5,0.1-0.7c5.5,1.1,11.1,2.2,18.9,3.8
		c-8.6-5.3-15.5-8.5-22.8-11.1c-7.6-2.7-15.4-2.1-23.8-1.2c10.7-7.8,39.3,1.9,60.6,20.5c-7.6-3.7-14.4-6.3-23.2-5.1
		c11.8,5,19.1,14.1,27.9,21.2c7.6,6.2,16.1,9.4,28,7c-6.3,3.5-11.2,4.4-16.7,5.4c4,3.2,7.6,6.1,11.4,9.2c-1.3,0-2.3,0.1-1.3,1.8
		c-3.6-2.2-6.8-4.8-12.6-6.1c9.1,8,13.2,17,14.1,28.9c-2.3-5.7-4.6-10-9.9-13.7C527.8,344.6,532.7,353.7,537.7,362.7L537.7,362.7z"
		/>
	<path d="M128.1,368.8c-2.5,11.3-4.9,21.8-7.2,32.2c2.8-5.1,4.8-10.6,8.9-14.9c-5.7,11-7.7,22.7-8.1,36c1.5-5.4,2.6-9.6,3.8-13.9
		c0.6,3.9-0.9,7.6,0.1,11.8c2.2-6.1,4.2-11.9,6.2-17.6c-6.9,24.2-7.3,48.8-6.3,73.6c-0.5-3.3-1.3-6.6-1.4-10
		c-0.2-14.5-5.6-28.2-7.1-42.4c-0.9-9,0.5-17.9,1.6-26.9c0.9-7.2,3.5-13.9,4.4-21.1C123.3,373.3,124.7,370.8,128.1,368.8z"/>
	<path d="M74.4,435.5c8.2,14.4,8.3,28.7-0.1,35.4c0.8-3.2,1.6-6.2,2.8-10.9c-3.2,4.1-5.3,6.7-7.3,9.3c2.5-9.5-1.3-18.1-3.2-27.6
		c-0.6,2.1-1,3.5-1.8,6c-1.5-3.5-0.4-6,0.1-8.9c-5.7,3.6-10.9,6.9-16.2,10.2c9.3-8.5,12.9-20,17.3-33c0.3,9-2.5,15.4-6,22.8
		c5.9-3.7,7.6-8.6,8.3-14.1c1.1,9.3-0.3,18.8,4,27.7c0-3.8,0.2-7.7-0.1-11.5c-0.2-4-0.9-7.9-1.6-13.3c1.1,2.8,1.7,4.2,2.3,5.7
		c1.8,9,1.7,18.1,1,27.3C77.3,452.3,75.1,443.9,74.4,435.5z"/>
	<path d="M149,498.6c0.2,1,0.4,2,0.7,3.7c-7.3-9.5-13.5-18.6-12.1-31.4c-1.7,3.2-1.9,6-1.3,11.8c-8.6-11.7,3-55,16.9-61.3
		c-2.9,3.3-6.8,5-9.2,10.3c9.3-4.2,17.2-9.5,28.3-8c-21.6,3.8-31.7,16.9-34.9,37.4c2.8-3.8,4.9-6.8,7.1-9.9
		C136.8,468,138.8,483.7,149,498.6C149.1,498.7,149,498.6,149,498.6z"/>
	<path d="M583.6,409.2c-6.3-1.5-11.4-2.8-16.7-4.1c19.7,25.2,7.2,50.2,1,75.2c4.7-19.3,9.1-38.7,1.9-59.5c2.7,4.4,4.2,8.4,5.1,13
		c2.4-10.6-2.6-19.2-20.4-35.5c6.6,2.6,13,5,19.4,7.5c-13.6-9.7-28-18.1-37.4-32.5C550.3,387.2,566.4,398,583.6,409.2z"/>
	<path d="M131.6,253.2c2.8,0.6,5.6,1.1,9.5,1.9c-12.1,2.4-23.3,4.6-34.9,6.9c4.4,4.5,9.7,6.1,14.9,8.3c-8.6-1.8-16.7,0.6-26.5,3.7
		c5.9-3.6,10.7-4.8,16-5.9c-4-3.1-6.7-7.3-12.4-6.7c0.9-1.4,3.8,1,3.4-1.5c9.5,0.3,18.3-3.1,28.5-5.3c-4.2-1.5-7.4-2.7-10.6-3.8
		c22.9,2.7,41.4-7.1,58.6-20.6C164.9,242.5,151.1,253.4,131.6,253.2z"/>
	<path d="M464.5,380.4c0.2,2.4,0.3,4.2,0.5,7.1c-5.4-4.2-6.7-8.9-6-16.1c0.9,4.4,0.8,7.5,3.2,11c-0.5-8-1-14.9-1.6-23.6
		c1.8,7.3,3.3,13,4.7,18.6c1-4.8,1.2-9.5,3.7-13.8c-0.2,2.4-0.4,4.8-0.7,8c3.8-4.5,2.6-9.4,3.3-15c1.1,3,1.9,4.9,3.2,8.4
		c0-5.2,0-8.8,0-13.8c0.9,2.8,1.4,4.3,2.1,6.6c1.4-5.8-1.2-10.2-2.7-15.9c5.3,7.1,9,13.8,10.6,21.8c-2.6-0.4-3.5-2.6-5.3-4
		c-0.9,3.2-0.4,6.1,1.5,9.9c-2.2-1.4-3.6-2.2-5.1-3.1c-1.5,2.8,0.1,5.7-0.2,8.5c-2.3-0.4-2.4-2.8-4-4c-3.4,4-2.9,8.1,0.1,13.4
		C468.8,382.7,466.9,381.6,464.5,380.4z"/>
	<path d="M50.9,377.1c1.6-4.2,2.4-6.1,3.5-8.9c-2.6,1.8-4.3,3.1-6,4.3c10.7-8.9,14-21.5,17.8-35.1c-5.9,4.6-8.1,10.1-9.2,17.6
		c-2.9-17.8,5.4-29.3,16.9-40c-5.1-0.6-9.8,0.7-14.4-1.2c17.1,2.8,31.1-9.6,48-9.1c-22.1,4.6-42.2,11.6-48.4,36.7
		c3-3.4,6.4-6.4,10.8-9.7C65,347.2,59.6,361.6,50.9,377.1z"/>
	<path d="M501.8,429.8c1.9,7.9-1.8,15-3.7,23.6c4.5-4.5,8.1-8.1,11.2-12.3c-0.9,1.9-1.8,3.8-2.7,5.8c6.6-3,8.9-9.4,8.1-22.2
		c10.1,15.2-4.5,21.5-11.8,30.3c-3.4-1.7-6.5,3.1-6.3,12.1c-1.2-2.5-2-4.1-3-6c-3.8,6.4-4.8,13-4.1,22c-3.2-8.6-2.2-15,0.6-21.2
		c2.6-5.9,5.6-11.8,8.3-17.6C500.6,439.7,502.4,435,501.8,429.8z"/>
	<path d="M231.9,385.7c-14.3,26.5-33,51.8-33.4,84.5c0-1.6,0-3.1,0-4.7c0-0.2-0.2-0.4-0.6-1c-0.1,2.2-0.3,4-0.4,5.8
		C192.8,451.6,211.9,405,231.9,385.7z"/>
	<path d="M420.7,223.5c9.7-3.6,18.3-5.3,28.8-5.9c-12.6,3.2-23.9,5.1-35.2,9.3c3.1-2.1,6.1-4.2,9.2-6.3c-0.5-0.7-0.9-1.4-1.4-2.1
		c-17.3,13.1-35.3,12.5-53.7,3.5c11.2,3.8,22.8,5.3,34.4,2.6c11.6-2.6,22.1-7.7,31.2-15.9c-2,2.3-4,4.7-6,7
		C426,218,423.8,220.2,420.7,223.5z"/>
	<path d="M20,468.1c-3.5,3.2-6.2,5.7-9.3,8.5c1.6-6.1,17.5-23.1,31.6-34.2c-7.3,10.2-17,18-21.4,29.5c-4.4,11.6-3.7,23.7-3,35.8
		C14.4,494.7,14.6,481.7,20,468.1z"/>
	<path d="M12.9,463.5C39.1,444,45,413.9,60.4,389.7C43.8,433.3,29.6,455.7,12.9,463.5z"/>
	<path d="M193.3,223.7c17.9-17,68.6-19,84.5-3.8C249.5,205.2,221,211.8,193.3,223.7z"/>
	<path d="M436.6,251.6c17.1-5.8,31,3.4,45.5,10.4c-13.4-1.7-26.7-3-39.8,1.1c8.4-4.2,17.5-4.9,28.5-4.6
		C458.8,253,448.2,249.9,436.6,251.6z"/>
	<path d="M384.9,501.1c0.4-0.6,0.8-1.2,1.2-1.7c9.8-11.6,20.8-22.6,23.1-38.7c1.6-10.9-2.3-19.8-11.2-27.5c9.2,4,14.5,16,13.3,26.8
		c-1.6,14.8-10.5,25.4-20,35.7c-3.1,3.4-6.7,6.6-6.8,12.6C383.5,505.2,384.5,503.1,384.9,501.1z"/>
	<path d="M426.3,320.4c-6-19.7-17.1-36.5-29.6-52.6C413,281.7,422.9,299.2,426.3,320.4z"/>
	<path d="M192.5,299.7c-2.3,0.4-4.6,0.8-6.9,1.2c5.4-1.2,7.2-8.4,13.6-8.3c-1-0.3-2-0.5-2.6-0.7c8.3-0.7,15.1,3.5,17,11.2
		c-2.7-0.5-4.3-2.6-7.3-5c1.2,2.3,1.7,3.5,2.8,5.6C203.6,298.9,198.3,297.7,192.5,299.7L192.5,299.7z"/>
	<path d="M124.7,272.9c-11.8,0.5-23.1,2.3-34.9,10.2c6.3-1.2,10.6-1,16.6,0.9c-11.2-0.4-20.1,1.4-28.8,6.4
		C91.2,277.8,105.8,269.5,124.7,272.9z"/>
	<path d="M55.3,384.5c-3.9,5.4-6.7,8.7-12.2,12c6.3-6.7,10.6-12.5,14.8-20.6c-0.5,2.9-0.6,4-1,6.6c1.5-2.4,2.2-3.5,2.9-4.7
		c-4.5,12.8-5.9,27.3-21.3,35.6C47.3,405.3,52,396.6,55.3,384.5z"/>
	<path d="M145.2,306.3c-7.6,17.3-2.5,38-14.9,54C138.4,343.1,134.7,322.8,145.2,306.3z"/>
	<path d="M284.3,218c9.3-12.4,42.2-15.5,62-5.8C325.7,208.2,303.9,204.8,284.3,218z"/>
	<path d="M96.1,466.8c3.3,11,3.2,21.6-4.8,31.1c7.1-16-1.4-30.6-3.6-45.8c1.5,5,2.8,10,4.4,14.9c1.6,5,3.1,10,3.6,16.8
		C97.4,477,97.2,471.9,96.1,466.8z"/>
	<path d="M346.2,420.8c17.3,17.8,21.5,41.6,10,53.4C363.6,458.7,362.8,454.5,346.2,420.8z"/>
	<path d="M108.2,285.1c-19.9,1.4-33.3,16.5-50.3,24C74.9,301.6,86.6,283.1,108.2,285.1z"/>
	<path d="M388,379c-9,9.7-19.8,11.1-31.6,7.2c3.2,0.3,6.5,0.6,11.8,1c-2.6-1-3.2-1.3-4-1.6C371.9,382.2,380.9,384.4,388,379z"/>
	<path d="M424.9,236.2c6.8-7.7,15.5-12.1,24.9-15.3c-9.2,4.7-16,12-22.9,20.9c0.5-4.8,3.5-6.9,5.7-10.9
		C429.4,233.1,427.2,234.6,424.9,236.2z"/>
	<path d="M393.5,575.4c1.5-2.4,2.8-4.4,4.1-6.5c0.2,0.1,0.3,0.2,0.5,0.2c-1.9,4.7-3.8,9.4-6.2,15.2c-1.9-10.1,2.4-18.7,1.1-27.6
		c0.3,2.1,0.6,4.2,1,6.2c0.2,0,0.4,0.1,0.7,0.1c0.3-2.8,0.5-5.6,0.8-8.7C398.6,561.9,393.1,568.2,393.5,575.4z"/>
	<path d="M123.6,602.9c-2.6,7.5-3,15.3-2.7,23.1c0.3,8,1.2,16,1.8,24c-0.8-2.2-1.7-4.3-2.5-6.5c0,0,0,0.1,0,0.1
		c-0.5-11.1-2.2-22.2,0.1-33.3C121,607.7,120.7,604.5,123.6,602.9z"/>
	<path d="M537.7,362.8c2.2,2.2,4.6,4,7.6,5.2c-2.7-0.9-5.4-1.8-9.6-3.2c6.6,6.8,12.9,11.3,20.4,15.3c-7.4-1.3-13.6-5.7-28.5-20.5
		c3.3,1.6,5.5,2.8,7.8,3.8C536,363.6,537.5,365,537.7,362.8C537.7,362.7,537.7,362.8,537.7,362.8z"/>
	<path d="M404,618.5c3.1-4.1,4.7-0.7,5.9,1.5c4.1,7.4,2.9,15.5,2.6,23.5c-0.1,3.3-0.9,6.5-2.1,9.8c-0.1-0.9-0.2-1.7-0.3-2.6
		c0,0-0.1,0.1-0.1,0.1c1.4-9.7,1.7-19.4-1.4-28.9C408.2,619.9,407.2,617.2,404,618.5L404,618.5z"/>
	<path d="M476.7,430c0-6.2,0-12.2,0-20.5c2,5.9,1.8,9.7,1.4,15.4c2.7-6,2.2-10.6,2.3-15.2c0.3,2.4,0.5,4.8,0.8,7.2
		c0.2,0,0.3,0,0.5,0c0-3.4,0-6.8,0-10.6C485.2,411.6,482.7,422.7,476.7,430z"/>
	<path d="M62.3,412c-1.7,2.2-3,3.9-4.3,5.5c-0.2-0.1-0.4-0.3-0.5-0.4c2.8-4.5,5.5-9,9.2-14.9c-2.5,8.8-0.7,17.4-8.6,24.8
		C60,421.2,62.2,417.2,62.3,412z"/>
	<path d="M508.2,582.3c4.3,10.8,6.3,21.7,1.9,32.9C511.2,604.1,510.5,593.1,508.2,582.3z"/>
	<path d="M425,563.3c0.8,3,1.7,6.1,2.8,10c0.4-5.8-0.8-10.3-1.7-15.1c0.9,2.5,1.8,5,3,8.1c0.6-1.4,1-2.3,1.8-4
		c0.3,7.9-2.2,14.3-3.9,20.9C425.6,576.6,427.2,569.7,425,563.3z"/>
	<path d="M302.3,291c-0.4,10.2-1.9,20.5,1.8,30.4c-4.6-9.1-5.9-18.6-3.7-28.6c0,2.7,0,5.3,0,8.2c0.4-0.2,0.6-0.3,0.6-0.4
		c0.3-3.2,0.6-6.3,0.9-9.5C302,291.1,302.2,291.1,302.3,291z"/>
	<path d="M427.3,250.7c8.8-6.8,18.8-8.7,30.8-6.9C446.9,245.6,436.5,245.4,427.3,250.7z"/>
	<path d="M464.7,240.2c-10.5-1-21-3-31.7-1.2C443.7,234.3,454.2,237.3,464.7,240.2z"/>
	<path d="M324.7,262.3c-12.8,15.4-15.4,20.4-17,32.4C306.5,282.7,314.2,267.9,324.7,262.3z"/>
	<path d="M193.2,395.3c3.4-2.7,6.3-5.2,9.3-7.5c1.5-1.1,2.6-0.5,2.8,1.3c0.3,3.2-4.9,7.6-8,6.8C196.2,395.7,195,395.6,193.2,395.3z"
		/>
	<path d="M364.6,297.5c-9.2-0.8-15,6.7-22.9,9.2C345.7,299.3,356.8,294.7,364.6,297.5z"/>
	<path d="M225.1,356.7c4.9-3.9,9.8-7.7,14-12.4C236.8,351.1,234.3,357.6,225.1,356.7z"/>
	<path d="M114,559c-1.1,1.3-2.2,2.6-3.3,3.8c-1.7-5.9,2.6-8.9,6.1-12c2.4-2.1,5.6-3.3,8.6-4.6c-3.8,2.9-8,5.1-11.7,10.1
		c3-1.8,4.9-2.9,6.7-4.1c-0.3-0.2-0.5-0.4-0.8-0.6C117.9,554,115.9,556.5,114,559z"/>
	<path d="M324.5,355.9c0-0.5,0.1-1,0.1-1.5c7.1,1.6,10.8,5.9,11.4,15C332.3,363.2,328.4,359.6,324.5,355.9z"/>
	<path d="M76,389.2c1.2-4.1,2.4-8.3,4.2-14.4c-0.4,11.2-1.5,20.5,1.1,29.6c-2.8-5.4-2.6-11.2-2.7-17.7c-0.8,1.3-1.2,2.1-1.7,2.8
		C76.5,389.4,76.3,389.3,76,389.2z"/>
	<path d="M464.9,421c2,9.1-0.6,18.2,0.2,28.1C460.7,439.3,465.6,430.2,464.9,421z"/>
	<path d="M126,352.1c-0.5,5.5-2.9,10.2-6.7,16.1C120.1,361,121.8,356,126,352.1z"/>
	<path d="M298.2,297.1c0,10,0.2,20,5.7,30C298.3,321,296.7,312.1,298.2,297.1z"/>
	<path d="M201.4,287.5c5.1-1.2,9.4,0.3,13.1,3.8C207.9,292.1,207.9,292.1,201.4,287.5z"/>
	<path d="M364.5,301.8c-3.7,1-7.1,2-10.6,3c1.3-3.4-1.8-0.7-2.6-2C355.4,299.8,359.6,299.4,364.5,301.8z"/>
	<path d="M490.9,408.4c-2.3-7.8,3-12.2,3.5-17.7C496.1,396.8,491.8,401.4,490.9,408.4z"/>
	<path d="M97.3,421.7c1.4,9,2.5,16.2,3.7,23.4C98,438.3,96.9,431.1,97.3,421.7z"/>
	<path d="M161.4,561c0.9-2.4,1.5-3.9,2.8-7.4c-0.7,4.1-1.1,6-1.4,7.9c-0.2,1.8-0.4,3.5-0.7,6.8c-2.2-6.2-4-10.9-2-17.5
		C160.7,554.7,161,557.4,161.4,561z"/>
	<path d="M499.7,385.9c0.1,0.7,0.3,1.5,0.6,2.8c2.9-4.5,2-8.7,0.6-13.7c4,6.1,3,13.3-2,18C497,390.4,499.8,388.3,499.7,385.9z"/>
	<path d="M192.4,299.7c3.9,0.3,8.1-1.1,13,4.4c-8.5-5.3-14.4-1.8-20.6,0.9c0.6-2.2,2.2-2.5,3.5-3.2
		C189.6,301.1,191,300.4,192.4,299.7C192.5,299.7,192.4,299.7,192.4,299.7z"/>
	<path d="M130.8,433.5c1.5-10.7,3.3-21.4,8.8-31C135.7,412.6,133.1,423,130.8,433.5z"/>
	<path d="M469,446c-2.6-6.5,0.8-11.9-0.7-18C472.3,434,469.4,439.5,469,446z"/>
	<path d="M94.5,429.3c-3-5.9-2.2-11.9-0.9-18C93.9,417.3,94.2,423.3,94.5,429.3z"/>
	<path d="M182.3,554.5c-5-2.8-10.4-4.9-17.3-7.4C173.1,547,178.3,549.6,182.3,554.5z"/>
	<path d="M303.2,309.4c-0.6-8.9-0.4-17.8,2.2-26.4C304.9,291.8,302.3,300.5,303.2,309.4z"/>
	<path d="M72,485c1.9-3.8,4.6-7.2,6.4-10.9C78.8,479,75.2,481.9,72,485z"/>
</g>
</svg>
