<?xml version="1.0" encoding="utf-8"?>
<!-- Generator: Adobe Illustrator 24.2.3, SVG Export Plug-In . SVG Version: 6.00 Build 0)  -->
<svg version="1.1" id="Layer_1" xmlns="http://www.w3.org/2000/svg" xmlns:xlink="http://www.w3.org/1999/xlink" x="0px" y="0px"
	 viewBox="0 0 595.3 841.9" style="enable-background:new 0 0 595.3 841.9; fill: #215342;" xml:space="preserve"
	 height="300" width="700" transform="translate(-205, -40)">
<g>
	<path d="M41.2,637.5c0.3-7.8,0.3-14,3-19.9c0.2,6.2-1.3,12.4-0.5,19.1c1.8-2.2,1.7-4.8,4.2-6.7c-1,5.9-4.6,10.9-2.7,17
		c1.3-3.2,0.7-6.7,3.5-10.3c-2.5,12.4-0.6,23.4,2.8,34.2c3.5,11,10,20.2,18.7,29.4c-0.6-4.6-2.3-7.7-2-11.2c0.5-4.2,1.9-7.9,5.9-9.7
		c4.8-2.2,8.2,0.6,10.9,4.2c4.7,6.1,6.9,13.4,10.1,20.3c0.3,0.7,0.6,1.5,1,2.3c4.7-4.8,5.2-17.7,1.2-22.5
		c-7.7-9.1-10.9-20.3-13.1-31.5c-3-15.4-4.3-31.1-8.4-46.5c3.2,2.7,5.2,8,7.4,19.3c1-2.7,1-6.3-0.4-11.1c-1-3.6-2.2-7.2-3.1-10.9
		c4.2,6.7,5.8,14.4,6,22c0.4,15.6,3,30.6,8.9,45c3.6,8.8,10.7,16.4,18.9,18.9c-3.9-4.8-7.4-9.3-7.8-15.2c-0.3-4.6,0.6-8.7,5.1-10.8
		c4.5-2.1,8.5-0.5,12,2.7c2.8,2.6,4.9,5.8,6.6,9.2c1.7,3.4,3,6.9,4.7,10.8c7.1-21.4-2.5-39.3-9.8-57.9c1.2,1.4,2.4,2.9,4.2,4.9
		c-5.5-17-11.3-32.8-23.2-46c7.2,2,14,11.3,22.3,30.3c-0.2-3.8-0.4-7-0.5-10.2c2.3,5.3,3.8,10.7,3.7,16.3
		c-0.2,7.9,1.1,15.2,4.9,22.2c1.6,2.9,2.4,6.2,3.3,9.4c1.5,5.3,6.6,8.7,12.2,8.1c2.7-0.3,3.7-1.2,2.1-3.9
		c-3.8-6.4-6.5-13.2-6.4-20.8c0.1-4.3,0.9-8.3,5.6-9.6c4.8-1.3,7.7,1.8,10.1,5.5c1.9,3.2,2.7,6.8,3.7,11.7
		c4.8-18.5,9.2-35.4-0.6-52.4c-3.3-5.6-6-11.6-9.9-16.8c-6-8.1-12.6-14.7-24.7-10.9c5.7-4.5,13.4-4.3,19.3,0.2
		c5.5,4.1,8.9,10,13.2,16.1c5.4-16.9,18.1-27.7,29.1-39.7c12.1-13.3,15-29.4,13.7-46.6c-0.8-10.5-3.7-20.8-4-32.2
		c-12.2,7.1-21.2,16.6-28,28.2c5.1-11.4,12.8-20.5,23.1-27.4c5.3-3.6,5.7-9.6,1.3-14.3c-1.2-1.3-2.2-0.4-3.2-0.1
		c-7.9,2.4-15,6.3-21.9,10.7c6.3-5.4,13.5-9.5,21.4-12.2c2.5-0.9,2.9-1.8,2.3-4.3c-2.5-9.4-2.4-9.4-12-6.7
		c-13.6,3.9-25.5,10.6-35.5,20.7c8.3-10.3,18.9-17.2,31.3-21.3c3.7-1.2,7.5-2.1,11.3-2.9c2.2-0.4,2.7-1.4,2.1-3.4
		c-2.1-6.4-4.7-11.5-12.6-13c-14.1-2.8-22.7-22.8-16.3-36.3c5-10.6,0.3-21.6-10.8-25.4c-3.1-1.1-4-0.6-4.1,2.9
		c-0.3,19.1,2.5,38.1,2.4,57.2c-0.1,16.8-3.6,32.8-9.8,48.4c-5.3,13.4-13.8,24.2-26.4,31.4c-6.1,3.5-11.1,3.1-15.1-0.7
		c-3.9-3.7-5.2-8.1-2.7-13.2c0.5-1.1,0.9-2.2,1.7-3.1c13-15.5,11.8-33,8-51.2c-3.5-16.7-14.3-27.8-27-37.8
		c-4.1-3.3-8.1-6.8-12.6-10.6c1,4.9,1.9,9.2,2.8,13.4c-2.8-5.9-4.5-12.2-8.5-18.6c0.4,2.2,0.6,3.4,1,5.6c-2.7-5.4-5.1-10-7.4-14.6
		c-0.3,0.1-0.6,0.2-0.8,0.3c0.1,1.6,0.2,3.2,0.5,6.2c-3.1-7.5-4.8-14-8.4-20c-1.1,2.3-2,4.3-3.6,7.6c0.5-4.3,0.9-7.2,1.1-10
		c0.2-2.5-0.1-4.4-3.5-2.6c-1.6,0.9-3.6,1-5.6,1.1c1.2-0.5,2.4-0.9,3.6-1.4c-0.7-1.4-1.6,0.2-2.9-0.8c8.2-1.8,4.6-6,2.5-10.1
		c-7.4-14.2-9.4-28,2.8-40.9c3.5-3.7,6.9-7.5,10.6-11c15.5-14.9,34.8-24.1,53.3-34.4c20.2-11.2,39.7-23.2,55.2-40.7
		c2.6-2.9,5.8-5.2,9.5-6.8c5.3-2.4,10.4-2.2,15.1,1.3c13.2,10,27.2,10.5,42.2,4.3c13.9-5.8,27.6-12.3,42.4-15.9
		c30.4-7.4,59.1-1.8,86.7,11.7c5.6,2.8,11.3,5.5,17.1,7.8c8.2,3.3,16.2,2.8,23.8-2.1c2.8-1.8,5.6-3.6,8.4-5.3
		c9.1-5.3,18.2-3.6,23.2,5.5c4,7.3,10.1,11.7,16.8,15.8c16.4,10.1,34.1,18.2,49,30.7c18.8,15.8,37.6,31.6,54,49.9
		c5.5,6.1,7.5,13,2.8,20.4c-4.7,7.5-6.4,15.9-8.1,24.3c-4.4,21.2-16.1,38.5-32.7,51.5c-21.3,16.5-32.1,37.9-35.6,63.8
		c-0.9,7-1.5,14,4.3,19.9c2.9,2.9,5.6,7.5,2.5,11.5c-3,4-7.7,1.9-11.5,0.6c-8.8-2.9-14.4-9.6-19.6-16.9
		c-10.6-14.9-15-31.9-16.3-49.9c-1.9-25.6,1.4-51.1,2.4-76.7c0-0.8,0-1.6,0-3.2c-5.4,2.6-11.2,3-15.2,7.9c-4.2,5.1-2.1,10.6-1.6,16
		c0.3,2.8,1,5.6,1.8,8.3c3.8,13.7-0.8,25.6-13.1,33c-4.1,2.5-7.3,5.4-8.8,10.1c-0.9,2.8-0.3,4,2.5,4.8c6.9,1.9,13.1,5.2,18.8,9.6
		c-5.9-3.2-11.8-6.2-18.2-8c-2.8-0.8-3.5-0.5-3.8,2.6c-0.4,4.9,1.2,7.1,6,8.4c9.5,2.6,17.7,7.8,25.2,14c-8-5.1-16.2-9.7-25.4-12.2
		c-1.7-0.5-4.7-2.6-5.1-0.3c-0.5,3-2.8,7.5,2.4,9.4c11.1,4.2,21,10.2,29.8,18.2c-10.3-7-21-13.2-32.6-17c-3.6,6.3-1.8,11.1,3,15.8
		c3.7,3.6,6.3,8.2,9.3,14c-4.1-5.6-7.3-10.2-10.8-14.5c-1.2-1.5-2.9-4.9-4.7-3.3c-1.8,1.6-2.8,4.8-0.3,7.9c5,6.2,8.4,13.4,10.9,21
		c1,3,1.7,6.1,2.3,9.2c-3.4-10.9-8-21.3-15.7-30.9c-3.7,9.6-9.9,17.1-14.7,25.3c-2.4,4.1-0.9,10.4-1.5,15.7
		c-2,18.8,2.8,35.4,14.9,50.2c10.8,13.2,18.1,28.3,19.4,45.7c0.1,1.9,0.9,2.9,3.1,2.9c4.2-0.1,8.5,0,13.1,0
		c-0.7-3.5-0.9-6.6-2.3-9.8c-5.4-13-4.4-33.8,13.2-43.9c2.4-1.4,4.1-3,5.5-5.6c5.4-10.3,18-18.2,26.7-16.9c2.3,0.3,4.6,1,8,3.5
		c-12.7-3.4-20.9,1.8-29.3,10.3c2.5-0.9,3.6-1.3,4.7-1.7c0.1,0.1,0.2,0.3,0.2,0.4c-2,1.5-4,2.9-6.1,4.5c1.6,1.2,2.7-0.7,4.6,0.2
		c-2.6,2.7-5.8,4-8.8,5.6c-8.4,4.7-14.6,11.2-16.8,20.9c-1.2,5.3-1.4,10.7-0.4,16.2c1.3-3.7,2.6-7.4,4.4-10.8c1.9-3.6,4.4-6.4,8-8.3
		c3-1.5,6-1.4,8.7,0.6c2.7,2,3.5,4.8,2.8,7.9c-2.3,10.9-7.4,20.4-14.5,28.9c-0.3,0.3-0.6,0.7-0.8,1.1c8,4.8,12.7,1.8,15-9.6
		c3.3-16.8,10.7-31.8,20.7-45.5c3.4-4.7,7.7-8.4,12.6-11.4c1.5-0.9,2.1-1.6,0.8-3.2c-3.2-3.9-5.7-8.5-10.7-10.6c5,0.4,9,2.9,11.5,7
		c2.2,3.5,4.4,3.8,7.8,2c5.3-2.7,11-3.9,16.9-2.6c9.2,2,12.7,9.1,14.8,17.3c0.3,1.3,0.6,2.5,0.8,3.8c0.6,3.6,2.1,5.1,6.1,3.8
		c7.5-2.5,14.2-0.7,19.8,5c1.9,1.9,3.5,3.9,2.2,6.9c-0.7,1.7,0.5,1.9,1.8,2.2c3.4,0.9,6.8,1.4,10.4,1.7c8.9,0.7,14,7,15.1,18.5
		c0.5,5.4,0.2,10.9,0,16.3c-0.1,2.7-2.6,5.8,2.4,7c1.5,0.3,1.2,2.7,1,4.2c-1.9,12.4-3.8,24.7-5.9,37.1c-0.7,4,0.2,8-0.9,12
		c-0.5,1.9-1.3,2.6-3.1,2.5c-2.8-0.2-5.4-0.8-7.8-2.2c-5.2-3-9.9-2-13.1,3c-0.4,0.6-0.7,1.5-1.2,1.7c-7.9,2.2-14,9.2-23,8.4
		c-1.4-0.1-1.7-1.4-3-1.8c0.9-0.2,1.7-0.2,2.3-0.5c1-0.5,3.2-0.4,2.6-2.2c-0.7-1.8-2.6-0.9-3.7-0.2c-2.4,1.8-5,1-6-0.8
		c-2-3.6-3.4-1.4-5.3-0.3c-7.2,4.2-14.3,8.8-22.9,10c-2.6,0.4-5,2-7.6,2.8c-4.5,1.3-8.2-2.2-7.1-6.7c0.5-2.3,0.2-4-1.2-5.9
		c-3.4-4.4-3.3-9.7-3.7-14.9c0,3,0,6.1,0,10.1c-3.4-3.3-8.7-2.8-9-8.3c-0.1-1-1.4-0.6-2.2-0.7c-7.3-0.8-9.7-3.2-11-10.6
		c-0.2-1.2-0.8-2.5-1.5-3.5c-4.6-7.2-6.7-15.1-6.3-23.6c0.3-7.7-2.9-11.3-9.8-14.6c-6.6-3.1-13.1-3.1-19.9-3
		c-78.1,0.4-156.3-0.7-234.4,0.6c-0.9,0-1.9,0-2.8,0.1c-1.1,0-2.1,0.3-2.2,1.7c0,1.4,0.8,1.9,2,2c3.8,0.3,7.6,0.5,11.3,0.6
		c2.4,0.1,3.3,1.3,1.6,3c-2.1,2-2.3,4.3-2.9,6.9c-1.8,7.6-4.2,15.1-6.5,22.5c-0.6,2-0.8,4.3-3.5,5.4c-1.4,0.6-0.2,2.4,0.6,3.9
		c-2.4,0.2-4.4,0.8-6.5,1.9c-2,1.1-3.4,2-1.8,4.4c1,1.5,0.4,2-1.1,2.4c-2.8,0.8-5.5,0.3-7.9-1c-3.1-1.6-4.8-0.9-6.4,2.2
		c-1.8,3.7-4.7,6.6-8.8,7.7c-2.7,0.8-5.4,0.7-7.2-2.6c-1.7,5.1-4.8,9.2-5.3,14.5c-0.4,4.2-4.1,6.5-7.4,4.2
		c-4.6-3.4-10.2-3.4-15.1-5.6c-2.4-1.1-4.7-2.1-7.5-3.4c-0.5,3.9-1.1,7.8-1.4,11.7c-0.4,5.7-4.7,9.1-7.7,13.2c-1.6,2.2-4.8,1.1-7,0
		c-11.3-5.7-23.8-9.7-30.1-23.3c-1.4,7.8-4,9-10.3,6.3c-5.5-2.4-11.8-2.4-16.9-6.1c-11.4-8.3-20-18.2-19.9-33.3
		c0.1-11.2-2.9-22.3-1.9-33.5c1-11.3,5.9-20.7,16.1-26.7c-11.8,10.5-14,24.3-13.7,39.1c0.4-2,0.7-4.1,1.3-6.1
		c0.6-2.1,1.5-4.1,2.3-6.5c-2.7,23.8-4.6,47,19,64.5c-3.4-5.7-5.5-10.3-6.1-15.4c-0.5-4.2-0.1-8.1,4.3-9.9c4.4-1.8,8.1-0.1,11.1,3.3
		c1.1,1.3,2.1,2.8,3.3,4.5c-1.1-10.6-4-20.4-7.7-30c-5.1-13.2-3.1-25.8,2.8-38.2c0.3-0.7,0.6-1.5,1-2.4c-5.5,0.1-10.7-3.5-16.2-0.4
		c4.2-3.8,8.9-4.3,13.9-2.6c2.7,0.9,4.2,0.7,5.7-2c4.4-7.6,10.5-12.5,19.9-11.2c2,0.3,2.3-1.3,2.8-2.6c1.5-3.5,3-7,5.6-9.9
		c6.2-7,14.3-7.6,23.8-2.2c5.5,3.1,9.8,8.4,17,8.6c-1.7,3.3-4.2,2.5-6.5,1.9c-3.6-1-6.3-3.6-9.4-5.6c-12.7-8.2-20.6-6.1-26.8,7.6
		c-1.2,2.6-3,4.7-5.7,4.7c-11.8-0.2-17.3,7.6-22.1,16.6C39.6,614.4,38.1,624.7,41.2,637.5z M458.1,384.1c0-4.5-0.2-9,0-13.5
		c1.6-33.5,1.6-66.7-6.9-99.5c-5.3-20.8-12.3-40.7-23.1-59.3c-4.7-8.2-10.4-10.2-18.1-6c-9.2,5-17.9,10.8-29.9,8.3
		c2.3,2.5,4.9,1.6,6.9,3.2c-4.1,0.3-7.6-0.4-10.8-1.8c-7.5-3.4-15-6.9-22.5-10.5c-30.2-14.6-61.2-17.5-93.3-6.6
		c-18.5,6.3-35.8,16.1-55.5,19.1c2.9,0.3,5.7,0.3,8.5,0.3c2,0,2.5,0.9,1.1,2.3c-4.9,4.7-8.7,10.3-14,14.8
		c-13.6,11.4-22.2,26-24.9,43.8c-1.1,7.3-1.6,14.5-1.6,21.9c-3-11.6,0.7-22.8,2-34.1c-5.5,12.8-6.3,26.1-4.2,39.7
		c4.1,26.3,6.9,52.6-3.7,78.3c-2.9,7.1,0.9,18.3,5.9,20.8c-8.6-13.7-5.5-20.9,0.4-27.9c0,3.3,0,7.2,0,11.1c0,6,2.4,10.3,8.3,12.2
		c8,2.7,16,4.6,24.1,0.4c0.1-0.1,0.2-0.2,0.2-0.3c2.3-7.6,8.7-13.7,8.2-22.4c-0.1-1.3-0.3-3.2,1.2-4.3c4.9-3.9,9.7-7.7,15-11.9
		c0.4,2.6-0.6,4.1-1.4,5.6c-2.1,4-4.3,7.9-6.5,11.8c-1.1,1.9-1,3.1,0.7,5.1c1.5,1.7,6.4,1.8,4.1,6c-6.2,11.6-10.5,24.1-16,36
		c-1.5,3.3-4.8,7.5,3.7,6.6c-2.8,2.2-7.1-0.9-7.8,3.9c-0.4,2.9-1.3,5.7-2.1,9.1c3.7-1.1,6.7-2,9.7-2.9c-2.5,1.8-5.2,2.8-7.9,3.8
		c-4.2,1.5-1.9,4.8-2.4,8c1.9-1.2,3.3-2,4.6-2.8c-0.9,1.6-2.1,2.7-3.3,3.8c-1,1-1.9,2.1-0.9,3.4c1.1,1.4,2.1-0.1,3-0.5
		c2.6-1,4.8-2.9,7.9-3c-0.2,0.4-0.2,0.7-0.3,0.8c-3.2,2.1-8.5,2.4-9.5,5.9c-1,3.3,0.9,7.6,2.7,11.1c0,0.1,0,0.2,0,0.4
		c3.6,12.6,10.7,22.2,23.4,26.6c23.2,7.9,43.8,3.9,61.1-14.2c4.8-5,6.1-11.6,3.2-18.5c-0.2,1-0.3,1.8-0.4,2.5
		c0.1-3.4-2.2-4.9-4.9-6.1c-6.1-2.6-12.3-5-18.2-8.1c-5.2-2.8-10.4-6-9.5-13.4c0.2-1.4-0.4-2.1-1.8-1.8
		c-10.2,1.5-15.8-4.7-19.6-12.6c-7.5-15.6-1.7-43,22.1-49.7c23-6.4,45.9-5.4,68.7,0.6c15,4,22.9,14.3,25.7,29.1
		c3.2,17.2-7.9,30.6-24.9,30.2c2.4,7.2,1.8,8.8-4.6,13.3c-7.3,5.1-15.5,8.7-23.3,13c-2,1.1-5.4,1.8-5.3,4.1
		c0.1,4.5-1.6,9.8,1.3,13.6c13.6,17.6,31.5,26.4,53.9,24c16-1.7,24.5-13.2,30.9-26.5c4.5-9.1,4.2-9.9-3-17.1c-1.2-1.2-2.2-1.4-3.9,0
		c0.5-3.1-1.9-4.8-2.4-7.3c2.4-0.3,3.2,2.2,5,2.6c3.7-4-2.5-5.7-2.2-10c4.3,4.3,7.9,8,11.3,11.5c5.3-8.7-5.9-8.5-8.6-15
		c3.8,2.1,6.3,3.4,8.7,4.7c1.7-9-7.3-7.8-11.3-11.9c3.4-1,5.6,1.8,8.3,1.3c0.2-6.5-3.1-9.8-9.2-11.1c1.8,0,3.5,0,6.1,0
		c-9-15-14-31.5-27.2-43.2c-13.1-11.5-29.3-16.5-44.9-23c11.6,1.9,22.3,6.4,32.6,12.2c0.3-2-0.6-3-1.3-4.1
		c-3.2-4.8-6.4-9.6-9.5-14.5c-6.2-9.9-11-20.8-19.8-28.9c-0.9-0.9-1.9-2-1.5-3.4c1-3.4-0.5-5.9-2.2-8.6
		c-4.6-7.2-10.8-13.5-11.6-22.8c-0.2-2.7-0.3-5.1,1.4-7.4c1.9-2.5,2.2-5.4,0.9-8.4c-4.1-10-3.5-12,4.7-18.6c1.5-1.2,1.9-0.1,2.6,1
		c4.1,6.8,7.3,13.6,6.4,22c-0.4,3.7,2,7.7,5.6,8.7c3.8,1.1,6.4-2.2,8.3-5.4c1.9-3.2,3.3-6.7,3.2-10.4c-0.3-8.5-1-16.9-1.3-25.4
		c-0.2-4.4-1.5-8.9,0.8-13.2c0.8-1.6,0.6-3.5,0.7-5.3c0.2-2.6-2.5-4.5-0.7-7.3c2.5-4,6.7-6.1,11.5-4.7c3.6,1,6.9,2.6,10,4.6
		c9,6.1,18,12.3,24.6,21.5c-0.9,0.2-1.8,0.4-3,0.7c1.5,0.5,2.5,0.9,3.3,1.1c-1.5,2-1.8,3.6,0.7,5.4c-1,0.2-1.8,0.4-2.6,0.6
		c3.1,2,4.1,5.3,5.5,8.1c4.7,9.9,9,20,13.5,29.9c2.4,5.2,3.2,5.3,6.9,0.9c1.1-1.3,1.4-2.7,1.3-4.3c-0.2-4.6-0.2-9.3-0.9-13.8
		c-1.1-7.6-2.4-15.2-7.1-21.7c-0.7-1-1.7-2.6-3.1-1.9c-1.6,0.7-0.4,2.3-0.1,3.5c1.6,6.4,3.2,12.7,2.4,19.5
		c-3.5-16.2-7.9-31.9-20.5-43.9c5.7,2.1,8.7,6.8,11.9,11.2c0.6,0.9,1.6,3,2.7,0.9c0.9-1.9,1.7-5.3,0.7-6.4
		c-3.6-4-4.7-10.3-10.9-12.1c-1.7-0.5-3.2-1.7-4.8-2.5c9.9,1.3,18.7-1.8,27.1-5.8c7.6-3.6,14.3-2.6,19.5,4.1
		c13.2,16.9,18.4,36.8,21,57.6c0,0.2-0.4,0.5-1,1.2c-3.3-9.5-6-19-13.3-26c0.2,1.3,0.6,2.4,1.2,3.5c3.4,6.9,6.4,14,8.4,21.5
		c6.7,25.5,5,51.5,3.6,77.4c-1.5,27.5-3.6,54.9,0.3,82.3c2.5,17.6,7.1,34.5,17.8,49.2c3.9,5.4,8.7,9.7,15.2,11.7
		c1.6,0.5,3.4,1.7,5.5-0.2c-7.8-7.4-14.8-15.5-19.9-24.6c-9.6-16.7-14.9-35-15.6-54.5c-0.1-1.4,0.4-3.5-1.2-3.8
		c-2.3-0.3-1,2.4-1.9,3.4c-1.4-11.9,3.4-23.6,7.8-27.6c0.2,2.9,0.3,5.6,0.5,8.3c-2.4-38.1,3.9-76,1.8-114
		C460.4,315.9,456.9,350.1,458.1,384.1z M508.4,604c4.7-12.3,9.6-23.7,9.4-36.5c5.7,21.2-5.3,38.6-12.7,57c1.8-1.6,3.6-3.3,5.3-4.9
		c-10.2,12.2-12.8,28.6-22.8,41c1-0.8,2-1.6,3.5-2.9c-1.5,3.3-3.3,5.3-5.7,7c-5.3,3.7-6.5,13.6-2.2,19.1c4.5-5.9,8.9-11.8,15.3-15.6
		c5.6-3.3,10.1-3.3,13.7,0.3c3.3,3.2,3.7,8.7,1.1,13.9c-0.6,1.2-2,2.1-1.3,4c1.3-0.8,2.5-1.5,3.7-2.3c9-6.3,13.9-15.6,18.7-25.1
		c6.2-12.4,8.9-25.9,13.5-38.8c3.6-10.1,5.6-20.5,5.1-31.3c-0.2-4,0.7-8.7-1-11.9c-3.2-5.8-12.1-8.3-18.3-5.3
		c-5.9,2.9-6.9-1-8.5-4.6c-1.2-2.6-1.8-5.4-2.8-8c-1.9-5-4.4-9.8-9.9-11.3c-9.1-2.4-17.8-1.3-25.5,4.7c-14,10.9-21.2,26.4-28.1,42
		c-0.6,1.4-1.6,2.9-1.2,4.7c3.3-0.2,5.3-3.5,8.8-3.5c-2,2.5-5.3,3.4-6.7,6.6c0.9-0.1,1.6-0.2,2.5-0.2c-13.1,21.1-16,41.2-7.2,52
		c0.5-1.9,0.9-3.4,1.3-4.9c1.8-7.4,3.1-15,9.3-20.3c3.2-2.8,7-4.1,11.2-2.6c3,1.1,5.5,3.1,5.7,6.6c0.6,12.1-4.7,21.5-14.1,28.7
		c-2.5,1.9-4.4,4.1-6.5,6.3c6.6,2.1,12,1,16.3-4c7.6-8.8,13.7-18.4,15.9-30.1c0.7-3.5,1-7.2,3.4-10.3c-0.4,3.3-0.9,6.7-1.3,10
		c4.2-10.7,9.4-21.1,11.3-32.7C507.6,601.8,507.9,602.6,508.4,604z M301.6,546.4c-0.2,0-0.4,0-0.6,0c-0.1-0.7-0.2-1.4-0.2-2
		c-0.7-11.5-1.4-22.9-2.1-34.4c-0.1-1.4,0.3-3.6-1.4-3.6c-5.6,0-11.2,1-16.9,0.6c-2.7-0.1-7.9,4.2-8.5,10
		c-0.6,6.4-2.4,12.7-5.2,18.6c0.8-7.9,2.1-15.7,3.3-23.5c0.4-2.7,0.7-4.9-3.4-3.7c-2.6,0.8-5.3,1.3-8,1.4c-2.8,0.1-3.4,1.2-3,3.7
		c1,7.2,1.3,14.3,0.7,21.6c-0.6,7.7-1.3,15.4,0.3,23c0.8,3.6,3.1,6.1,6.8,6.3c3.6,0.2,3.2-3.5,4.1-5.7c1.7-4.4,1.9-9.4,4.5-13.6
		c0.4,1.3,0.5,2.5,0.2,3.7c-1.2,5.4-2.4,10.9-3.9,16.2c-3.8,13.4,1.2,21,15.2,23.2c4,0.6,8.4,0.1,12,2.6c4,2.7,7.6,1.8,10.3-1.7
		c3.3-4.2,7.5-5.7,12.6-6.2c14.8-1.5,25.2-11.5,26.6-26.4c1.3-13.4-2.1-26.3-4.5-39.5c-3.7,2.4-6.9,0.4-10.6-0.7
		c1.5,5,2.8,9.6,4.1,14.2c-3.5-6.9-7.9-12.9-12.4-19.1c-5.2-7.2-13.7-4.3-20-7.7C301.6,517.6,301.6,532,301.6,546.4z M82,283.4
		c-0.1,0.4-0.1,0.7-0.3,0.8c-0.4,0.4-0.8,0.9-1.3,1.2c-8.5,6.9-11.1,15.7-9.2,26.3c2.8,15.8,10.3,29.4,19,42.5
		c1.6,2.3,2.6,7.4,5.6,6c3.1-1.5,2.4-6.7,1.1-9.8c-2.9-7.2-1.7-14.5-1.7-21.8c0-20.2,8.8-37.6,18.7-54.4c6.3-10.7,13-21.3,22-30
		c5.6-5.4,8.3-12.6,12.7-18.7c-10.7,8.9-22.2,16.2-34.1,23.1c-9.2,5.3-18.4,10.7-27.7,16c-2.3,1.3-3.4,3.6-2.9,5.6
		c0.6,2.3,2.7-0.1,4.2,0.2c0.3,0.1,0.6,0.2,1.6,0.4c-3.4,3-6.4,5.7-9.4,8.5c-1.1,1-3.2,1.6-2.5,3.4C78.6,284.4,80.5,282.5,82,283.4z
		 M103,485.1c1.4-0.1,2.7,0.1,3.8-0.3c11.8-4.1,19.3-12.6,24.8-23.4c3.6-7.2,4.4-15.4,5.1-23.1c1.6-16.7,3.6-33.5,0.6-50.2
		c-4.2-23.7-3.7-47.7-3.6-71.6c0.1-28.2,6.3-54.8,20.2-79.4c5.8-10.2,11.9-20.6,22.7-26.8c3.9-2.3,7.1-2.3,11,0.5
		c5.3,4,11.5,4.6,18.9,2.7c-4-0.6-7-0.6-9.8-1.5c-2.9-0.8-6-1.9-8.4-3.7c-9.9-7.4-16.8-3.4-23.2,3.1c-12,12.1-21.9,26.1-27.9,42.1
		c-14.2,37.9-14.9,77.2-8.7,116.7c3.4,21.5,6.8,42.7,4.4,64.6c-2.1,19.6-8.7,36.4-26.8,46.7C105,482.2,103.4,482.8,103,485.1z
		 M537.6,664.9c1.5-2.7,3-5.4,4.6-8c2.8-4.6,5.7-9,11.1-11.1c2.9-1.1,5.9-2.3,8.7,0.1c3.1,2.6,4,6.1,3.3,9.9
		c-0.6,3.6-2.3,6.7-4.5,9.6c-1.4,1.8-2.8,3.6-4.9,6.3c4.6-1.7,7.6-3.9,9.9-7c6.3-8.6,9.3-18.3,9.8-28.8c0.6-13.9,0.4-14-12.9-17.1
		c2.6-1.3,5-0.6,7.3,0.2c2.3,0.8,4.4,2.1,6.9,3.3c0-2.3,0-4.3,0-6.5c2,1.1,2.1,3,3,6.1c1.3-7.8,1.1-14.2-0.3-20.4
		c-2.2-9.6-5.1-12.1-14.8-13.6c-1.4-0.2-2.7-0.7-4-1.3c-2.7-1.2-4.1-1-3.9,2.6c0.3,6,0,12.2-1.7,18
		C549.2,626.3,546.8,646.7,537.6,664.9z M115.6,458.8c6.4-14.9,2.6-41.9-7.3-55.6c-5.2-7.2-12-13.5-15.8-21.3
		c-3.9-7.9-10.2-13-16-18.9c-5.6-5.7-11.7-10.9-17.7-16.2c-7.9-7.1-12.5-17.1-16-27.3c-2.2-6.3-1.4-11.8,2.6-17
		c1.7-2.2,3.2-4.7,4.7-7c-10,9-12.3,19.7-7.4,32.1c4.8,12.2,11.4,23.4,19.6,33.7c10.5,13.2,23.8,23.8,35.4,36
		c9.5,10,15.6,21.5,17.7,35.3C116.6,440.9,116.9,449.2,115.6,458.8z M345.3,314.5c-0.1,1.3-0.3,2.6-0.2,3.9c0.8,6.7,0.5,14,7.4,18.2
		c9.3,5.7,21.9,5,29.6-1.5c10.7-9,12.3-15.5,7.3-28.5c-3-7.9-6.5-15.5-13.4-20.9c-9.5-7.5-19.9-5.6-25.7,4.9
		C346.4,298,344.4,306,345.3,314.5z M395.7,581.9c0.6,0.9,1.2,1.9,1.8,2.8c4.9,8.5,8.1,17.6,9.9,27.2c0.2,1.1-0.1,3.1,2,2.6
		c1.5-0.4,0.7-2.1,0.5-3.1c-2.5-10.5-6-20.7-11.7-29.9c-7.2-11.6-17.5-21.2-22.1-34.6c-0.5,5.9,1.8,11,3.7,16.3
		c5.3,14.8,9.3,29.9,10.7,45.6c0.3,3.5-1.1,4.8-4.4,4.7c-5.7-0.1-11.4,0-17,0c10,0.8,20.1,0.5,30.1,0.9c4.5,0.2,4.7-1.3,4.1-5
		C401.6,600,399.2,590.9,395.7,581.9z M369.2,357.8c-1.5,0.2-3.7-0.1-3.9,1.7c-0.3,2.6,0.8,5.2,2.9,6.9c6.7,5.3,19.9,3.7,25.8-2.5
		c4.1-4.2,7-9.2,10.2-14c1.8-2.7,4.5-6.1,1.6-8.4c-3-2.4-5.9,1.1-7.8,3.5c-3.7,4.8-9.3,6.4-14.4,8.7c-4.5,2.1-8,7.8-14.2,4
		C369.5,357.7,369.3,357.8,369.2,357.8z M352.4,406.3c0.1-3.7-1.1-6.6-2.9-9.2c-9.3-13.7-23.8-15.1-38.3-16.5c-2-0.2-4,0.2-6,0.1
		c-9.6-0.8-19.2-0.4-28.7,1c-17.1,2.5-27.8,12.9-29.2,28.3c2.6-1,3.5-3.3,4.2-5.7c3.2-9.7,10.2-15.3,19.8-17.4
		c15.6-3.5,31.5-4.1,47.3-2.4c10.7,1.1,20.8,3.6,27.4,14C347.6,400.8,349.5,403.9,352.4,406.3z M455.9,233.9c1.9,1.3,3.8,2.7,5.8,4
		c12,7.7,24.1,15.4,35.2,24.5c6.2,5.1,12.1,10.5,17.8,16.2c10.8,10.7,22.5,20.9,26.1,36.8c0.6,2.5,2.6,2.5,4.2,1.5
		c2.4-1.5,5-3.3,2.1-6.7c-1.4-1.7-2.5-3.8-4-5.4c-12.5-14.3-25.4-28.1-39.7-40.6C489,251.6,473,241.9,455.9,233.9z M263.5,402.3
		c7.3-0.8,14.6-1.8,21-6.2c1.8-1.2,3-2.7,2.5-5c-0.3-1.4-1.3-2.4-2.8-2.2c-8.5,0.9-16.5,2.9-22.8,9.3c-0.8,0.8-1.9,1.8-1.3,3.1
		C260.7,402.5,262.2,402.2,263.5,402.3z M38.2,677.5c1-3-0.3-5.4-0.7-7.9c-0.3-1.8-1.3-3.4-3.4-3.6c-2.1-0.2-3.1,1.5-3.9,3
		c-2.8,5.2,1.8,17,7.7,19.4c-3.1-6.6-7.6-12.7-4.7-21.5C34.9,671.1,35.1,674.7,38.2,677.5z M544.5,663.5c0.3-0.2,0.7-0.3,1-0.5
		c4-3.2,7.6-6.8,10.2-11.3c0.5-1,0.7-1.9-0.2-2.6c-0.9-0.8-1.8-0.1-2.6,0.5c-4,3.1-6.8,7.2-9.2,11.6
		C543.2,662.1,542.6,663.3,544.5,663.5z M368.4,558c4.5-11.8,5.6-24.3,7.2-36.7C371.1,533.1,370.6,545.6,368.4,558z M345.5,523.5
		c3.1-3.4,6.4-6.1,7.7-10.8c-2.7,0-5,0-7.4,0c-1.2,0-2.3,0.3-1.9,1.7C344.6,517.3,343.8,520.4,345.5,523.5z M160,645.1
		c0.3-0.1,0.6-0.2,1-0.3c-0.5-2.6-0.8-5.2-1.5-7.7c-0.8-3.1-1.7-7-5.9-6c-3.8,0.9-3.5,4.8-3.2,8.1c0.1,0.9,0.5,1.7,0.8,2.7
		c3-2.6-0.5-6.6,2.5-9.2c1.1,2.2,2.1,4.2,3.2,6.3C157.9,641,159,643,160,645.1z M447.7,581.9c-5.3-0.9-12.3,11-10.1,17.4
		C441,593.2,444.3,587.6,447.7,581.9z M475.3,628.6c-6.9,1.2-11.1,7.6-11.1,15.5C469.6,640.2,471.3,634.2,475.3,628.6z M120,681
		c-1.9-5.5-3.2-10.1-5.2-14.3c-1-2.2-3-0.9-3.8,0.6c-1.1,1.8-1.3,4.6,0.5,5.6C114.7,674.7,116.3,678.1,120,681z M199.5,433.8
		c2.9-7.1-3.2-22.3-9.5-24.4C196.6,416.2,197.5,424.6,199.5,433.8z M314.1,288.2c0-2.8,0-5.7,0-8.5c0-1,0.3-2.3-0.8-2.9
		c-1.3-0.7-2.3,0.3-3.2,1c-2.6,1.9-1.7,3.9,0.3,5.6C312,284.8,313.6,286,314.1,288.2z M318.8,433.3c1.8,5.6,6.1,7.6,9.8,10.2
		c1.1,0.8,2.6,1.5,3.4,0c0.9-1.7-0.4-4.2-1.4-4.2C325.8,439.2,323,435.7,318.8,433.3z M287.4,428.2c-3.4,6.8-6.1,13.4-14,16.6
		C282.7,443.8,289.2,436,287.4,428.2z M81.2,694.1c-0.4-3.8-2.1-6.2-3.5-8.7c-0.5-0.9,0-3-2-2.7c-1.3,0.2-2.1,1.4-2.6,2.7
		c-0.5,1.5-0.1,2.7,1.3,3.6C76.6,690.4,78.6,692.1,81.2,694.1z M391.3,468.1c2.4-4.7-0.5-6.9-3.2-9.2c-0.7-0.6-1.2-2.2-2.4-0.7
		c-0.7,0.9-1.1,2,0,3.2C387.5,463.5,389.2,465.7,391.3,468.1z M252.5,516.8c-0.6-7.3-2.6-8.6-8.2-6.3
		C243.8,516.6,250.4,513.1,252.5,516.8z M414.3,337.4c0,5,0,13,0,20.9C417.7,350.3,413.3,342.3,414.3,337.4z M345.8,430.1
		c5.5-4,8-11.1,5.6-15.5C350.4,420.1,349.6,425,345.8,430.1z"/>
	<path d="M140.4,559.3c-9.6,2.4-14.5,9.2-18.8,16.8c-1,1.7-1.6,5.2-4,3.9c-2.4-1.3,0.6-3.4,1.4-4.9c3.1-6.4,7-12.1,14-14.9
		C135.2,559.3,137.4,558.7,140.4,559.3z"/>
	<path d="M154.8,586.5c-11.8-5.3-18.9-2.7-24.8,9.3c0.2-4.9,4.3-11.1,8.9-12.6C144.8,581.2,150.2,582,154.8,586.5z"/>
	<path d="M71.1,604c-8.3-0.6-15.8,0.9-21.9,7.4C51.2,604.5,62.8,600.6,71.1,604z"/>
	<path d="M446.9,565.8c6.7-1.3,11.4,1.7,12.5,8.2C456.1,569.4,452,566.7,446.9,565.8z"/>
	<path d="M82.9,584.7c1.3,5.7,3.7,9.6,6.2,14.3C84.3,596.1,81.5,590.1,82.9,584.7z"/>
	<path d="M205.9,246c-0.9,0.1-1.8,0.2-3.1,0.4c3.7-2.6,5.9-6.3,9.9-7.7c0.2-0.1-0.3-1.9-2.3-3c7.8-1.3,13.9-5.2,20.7-6.7
		c7.8-1.7,12.3,2.9,12,11.6c0,0.4,0.4,0.8,0.6,1.2c2.2,4,3.3,8.3,2.9,13c-0.1,1.4-1,4.3,1,3.9c6.6,15.3,5.3,32,10.1,47.8
		c11-3.6,15.2-12,17-22.6c2.2-13.5,2.4-27.1,4.3-40.6c0.3-2.2,0.9-4.3,1.7-8.2c1.8,5.8,2.1,10.1,1.7,14.4
		c-0.6,8.4,2.5,14.7,7.9,21.3c5.3,6.6,4.9,15.8,2.5,24.3c-3.4,11.7-10.4,21.2-17.4,30.8c-0.5,0.7-1.3,1.3-1.5,2
		c-2.1,8.8-10.4,10.4-16.6,14.3c-1,0.6-2.1,1.1-2.6,2.3c-4.1,9-13,13.6-19.4,20.7c0.7-1.2,1.4-2.4,2.1-3.6c0.7-1.2,1.4-2.5,2.1-3.7
		c0.8-1.4,1.4-2.8,0-4.2c-1.3-1.4-2.7-1.6-4.5-0.9c-5.5,1.9-11,3.5-16.4,5.6c-4,1.5-6.7-1.4-9.8-2.5c-10.1-3.4-15.1-12.9-22.1-19.9
		c-2.5-2.5-3.5-5.7-0.9-9.3c1.6-2.2,1.8-4.9-0.6-7.1c-1.2-1.1-1.1-2.2-0.2-3.5c2.2-3.4,4-6.7,4-11.1c0.1-7.9,3.7-14.9,7.3-21.7
		c1.1-2.1,1.1-3.8,0.7-6c-1.6-7.5-1.3-14.6,5.9-19.6c-0.9-0.7-3.3,0.2-2.9-1C201.1,252.9,201.5,248.3,205.9,246z M239.6,301.1
		c-0.1-1.9-1.1-2.9-2-3.9c-9.9-11.2-26-9.5-34.3,3.5c-3.5,5.5-4.6,11.9-7,17.8c-1.6,3.9-1,7,0.7,10.4c7.7,15.2,29.7,19.7,42.9,8.6
		c2-1.7,3.5-3.8,3.5-7.4c-8,12.2-20.2,11.7-26.6,7.2c-9.8-6.9-12-21.3-4.8-32C217.8,296.5,229.3,294.7,239.6,301.1z M241.9,318.5
		c-0.3-1.4,0.7-3.8-1.3-4.6c-1.6-0.6-1.4,1.5-1.7,2.5c-1.4,5.4-3.6,10.2-9.9,11.1c-5.8,0.8-9.5-2.1-12.5-9.2c-0.4-1-0.7-2.1-2.1-2
		c-1.3,0.1-1.6,1.2-1.8,2.3c-1.1,5.7-0.3,10.7,4.8,14.3c3,2,6.1,4.3,9.7,3.9C235.8,335.8,242,327.8,241.9,318.5z M217.8,303
		c-2.5,0.5-4.5,1.8-4.6,4.3c-0.1,2.6,2.1,4,4.4,4.1c2.2,0.1,4-1.5,4.1-3.6C221.8,305.3,220,303.8,217.8,303z M229.8,310.2
		c1.9-0.1,3.5-0.6,3.6-2.4c0-2.1-1.8-2.5-3.5-2.6c-1.6-0.1-3.1,0.5-3,2.5C227,309.7,228.4,310.1,229.8,310.2z"/>
	<path d="M252.6,252.9c-0.4-5.8,0.4-10.9-0.8-15.9c-2.8-11.8-9.3-16.3-21-13.3c-17.7,4.6-33.5,12.6-39.5,31.4
		c-2.2,7.1-4.2,14.7-5.1,22.3c-0.2,1.7-0.5,3.4-1,6.1c-4.8-35,16.9-56.3,48.9-62.6c7-1.4,13.3-0.2,17.5,6.3
		C256.2,234.1,256.8,246.4,252.6,252.9z"/>
	<path d="M318.1,248.8c-5.3-13.9,2.3-32.6,15.1-38.5c2.6-1.2,5.3-1.2,8-0.9c11.5,1.3,21.8,5.4,29.7,14.2c-7.3-4.2-14.7-8.3-22.8-11
		c-10.3-3.4-15.4-1.7-21.6,7.2c-4,5.8-6.8,11.9-6.6,19.1C320.1,242.2,319.4,245.4,318.1,248.8z"/>
	<path d="M248,374.8c10.4-7.7,31.3-13.9,46.4-13.5C277.6,364.1,262.5,368.4,248,374.8z"/>
	<path d="M191,367.2c-4-6.2-5.5-13.3-7.4-20.3C187.1,353.2,191.6,359.2,191,367.2z"/>
	<path d="M510.5,574.6c-6-10.9-14.9-14.5-26.4-12c2.4-4.4,9.9-3.6,15.7-1.9C505.6,562.5,510.2,568.3,510.5,574.6z"/>
	<path d="M503.3,644.7c7.2-4.1,19.6,2.7,21.5,12c-3.5-3.3-6.1-6.5-9.5-8.7C511.8,645.6,507.6,645.7,503.3,644.7z"/>
	<path d="M543.4,603.5c-4.8-8.3-10.4-12.8-19.3-10.9c4-2.2,8-2.1,12-0.2C540.2,594.3,542.9,597.2,543.4,603.5z"/>
	<path d="M296.9,585.5c-1.3-8.2-0.4-16.3,1.2-24.3C297.9,569.3,299.1,577.5,296.9,585.5z"/>
	<path d="M383.6,316.3c-0.7,9-4.1,16.5-13,19.8c-7.1,2.6-13.5,0.2-18.7-5c-6.4-6.4-7.6-14.3-5.6-22.6c2.4-10.1,11.1-16.1,20.4-14.6
		C376.8,295.4,384.4,305.5,383.6,316.3z M350.8,318.3c-0.1,6.2,3.1,10.7,8.8,12.5c9.3,3,16.3-0.3,20.1-8.9
		c2.4-5.5,0.4-10.7-0.6-15.9c-0.3-1.8-2.1-2.5-4-1.8c-1.5,0.6-1.1,1.7-0.6,2.9c2.9,6.6,1.1,13-4.6,15.8c-5.6,2.8-10.9,0.8-14.9-5.5
		c-0.8-1.2-0.8-4-2.9-3.4C350.3,314.6,351.1,317,350.8,318.3z M367.3,305.8c1.9,0,3.6-0.3,3.7-2.7c0.1-2.3-1.7-3-3.5-3.1
		c-1.7,0-3.7,0-3.6,2.7C364.1,304.8,365.1,305.9,367.3,305.8z M358.8,307.5c-0.1-2.3-1.8-2.6-3.5-2.7c-2-0.1-3.2,0.9-3.3,2.9
		c-0.1,2.1,1.2,3.1,3.1,3C357.1,310.6,358.4,309.4,358.8,307.5z"/>
</g>
</svg>
