<?xml version="1.0" encoding="utf-8"?>
<!-- Generator: Adobe Illustrator 24.2.3, SVG Export Plug-In . SVG Version: 6.00 Build 0)  -->
<svg version="1.1" id="Layer_1" xmlns="http://www.w3.org/2000/svg" xmlns:xlink="http://www.w3.org/1999/xlink" x="0px" y="0px"
	 viewBox="0 0 841.9 1190.6" style="enable-background:new 0 0 841.9 1190.6; fill: #215342;" xml:space="preserve"
	 height="450" width="700" transform="translate(-195, -185)">
<g>
	<path d="M123.8,660.9c3-1.3,6-2.7,10.1-4.5c-4.5,5.6-4,11.2-3.6,17.7c3.2-2.9,5.9-5.4,9.9-9c-3.4,8.4-9.5,14-9.1,22.6
		c5.5-2.6,8-7.8,12.7-11.3c-0.3,5.5-2.8,9.8-5.1,16c2.2-2.7,3.1-4,4.1-5.2c0.3,0.1,0.7,0.2,1,0.4c-2.8,8.7-5.5,17.5-8.3,26.2
		c0.2,0.1,0.5,0.2,0.7,0.4c3.1-4.9,6.1-9.7,9.2-14.6c-0.5,9.8-2.5,19-9.1,27.7c8-2.9,13.4-9.9,22.2-7.9c-1.7,2.2-3.3,4.3-5.4,6.9
		c3.3-0.3,5.1-3.4,8.3-2.3c-0.8,2.1-1.6,4.1-2.6,6.8c2.2-0.7,3.7-1.2,7.1-2.3c-3.2,2.2-4.8,3.4-7,4.9c4.8,0.6,9,1,13.2,1.7
		c12.1,2.1,20.2,10.3,27.2,19.3c8.5,11,16.3,22.6,24.2,34c2.4,3.5,3.6,7.7,4,11.8c1.5,18.8,10.9,35.8,12.8,54.5
		c1.1,10.7,2.6,21.4,4.8,32c1.8,8.7-2.6,16.2-7.1,24c23.3,0,45.8,0,69.1,0c-2.9-6.7-5.6-13.1-9.2-21.6c6.6,7.4,8.3,14.7,10.7,21.7
		c4,0,7.7,0,11.7,0c-0.1-6.7-3.1-12.5-5.5-20c6.5,6.2,6.4,13.3,8,20c3.8,0,7.5,0,12,0c-14.1-21.8-17.9-46.6-25-72.4
		c5.2,9.8,6.6,18.8,9,27.4c5.3,19.7,11.8,38.7,28.4,52.5c3.3,2.8,5.6,7,7.7,11c9,17.5,23.9,25.8,42.7,28.4
		c34.1,4.7,58.8-8.9,75.1-38.8c5.7-10.5,14.1-19.4,18.7-30.7c4.5-10.9,9-21.9,14.2-34.6c-4.4,21.6-12.7,39.6-22.8,56.8
		c14.2,2.5,18.9,0.6,33.7-14c-2.4,6-5.5,9.7-9.7,13.1c27.5,0,54.6,0,83.2,0c-24.6-15.4-24.5-37.3-20.3-60.7
		c2.6-14.6,4.6-29.3,4-45.5c-1,2.1-1.5,3.1-2,4.4c-5.5-41.3,39.1-94.4,71.9-86c1.4-1.2,0.3-4.1,3.5-4.4c0.5,1.1,1.2,2.5,2.2,4.7
		c0.7-7.3,0.2-13.8-0.9-21.3c4.3,5,5.1,10.5,8,16.5c1.1-12.7-0.7-23.8-2.3-36.7c6.8,10.7,9.3,21.1,12,33.8c0.9-20-4-36.9-8.3-56.5
		c5.4,6.4,9,10.7,13.7,16.2c-4.4-12-10.5-21-18.9-28.6c4.1-2.7,4.1-2.7,16.9,7.1c-0.8-3.4-6.6-10.3-16.3-17.9
		c-6.4-5.1-13.4-9.5-21.2-14.9c2.5,0.2,3.8,0.2,5.5,0.3c-1.8-1.9-4.4-2.7-4.7-5.7c8,0.9,14.1,6,22.8,10.2
		c-8.5-8.7-17.5-12.9-27.5-17.1c9.4-2.2,16.6,2.7,25.6,5c-11.3-9.7-26.2-10.1-36.7-20.5c11.1,4,21.7,3.9,33.8,2.8
		c-7.4-1-13.6-0.3-21.8-3.7c7.3-0.4,12.1-0.7,16.9-0.9c12.9-0.3,25.8-0.8,38.7-0.8c5.3,0,8.3-2.1,11-6.7
		c8.9-15.3,15.2-31.8,21.7-48.2c-1.1,9.8-4.3,19.1-8.3,28c-2.7,6-3.6,12-3.5,18.6c0.8,58.3,1.4,116.7,1.7,175
		c0,5.8,1.5,9.7,6.5,12.5c2.4,1.3,4.4,3.2,6.8,4.4c27.3,13.8,36.4,37.4,36,66.2c-0.2,13-1.5,25.8-8.1,37.4
		c-2.9,5.2-6.9,9.3-12.3,12.2c-5,2.6-4.1,8.3-5.7,12.5c-1.9,5-2.4,10.4-5.7,15.6c-5-5-5.9-11.6-8.8-17.4c-5.7,2.8-11,6.3-17.3,6
		c-4.1,12.4-8.3,24.4-17.8,34.4c-5.3-7.8-6.2-16.1-8.1-24c-14.3,1.1-28.2-4.5-42.4-1.3c-3,0.7-5,1-6.5,4.2
		c-2.6,5.7-6.8,10.5-12.3,14.2c-4-4.7-3.8-10.4-4.7-16c-5.3-1.3-10.6,0.1-15.9,0.2c-35.5,0.2-71.1,0.7-106.6,0.8
		c-5.1,0-8,1.3-10.6,5.9c-21,35.8-57.6,43.7-94.1,32.2c-12.9-4.1-22.1-13.4-27.9-25.4c-4.3-9-10.2-11.7-20.1-11.6
		c-33,0.3-66,2-99,0.5c-9.1-0.4-16.8,8-17.1,17.6c-0.1,2.6,1.6,6.4-2.1,7.5c-3.9,1.2-4.9-3-6.9-5.2c-0.7-0.8-1.1-1.8-1.5-2.7
		c-4.5-9-6.2-9.5-14.7-4c-7.1,4.5-14.9,7.2-23.1,8.2c-3.8,0.5-4.8,2.1-4.8,5.4c-0.1,4.5-0.3,9-0.6,13.5c-0.1,1.7,0.5,3.9-2,4.5
		c-2.2,0.5-3.6-1-4.8-2.7c-3.8-5.3-7-11-8-17.4c-0.9-5.9-4.6-7.6-9.7-7.5c-14.1,0.1-24.5-6.6-33-17.3c-0.1,0-0.5,0-0.7,0.2
		c-2.5,3.1-3.6,9.2-8.3,8.3c-4.3-0.8-4.5-6.7-5.4-10.6c-1.3-5.5-3.9-9.7-7.4-13.9c-23.3-27.7-19.9-76.7,6.8-101
		c19.4-17.7,19.4-17.7,28.7-41.3c-4.3,4.6-7.4,7.8-10.4,11c0.7-8,15.3-21.2,25.8-22.2c-11.9,8.2-15.6,20.4-20.3,32.1
		c-3.2,7.9-9.9,13-16.3,18.3C66.5,825.2,61.8,873,86.4,904c0.2,0.3,0.6,0.5,1.2,0.9c1-5,0.1-10.8,6.9-12.4
		c-3-13.5-2.5-26.7,1.9-39.7c-1.1,11.9-2.2,23.9,0.4,35.6c2.2,9.9,6.3,19.1,11.3,28.1c8.5,15.1,22.5,16.1,37.2,16.9
		c1.5-6.8-0.3-18.3,10.4-17.3c11.9,1.1,7.5,12.7,8.3,20.9c14-0.1,25.1-7.4,36.5-15.5c0.6-6.7-2.7-13.2-6-19.8
		c-8.1-16-6.2-32.7-3.4-49.6c-0.9,19-0.6,37.8,9.6,55.3c2-3.8,2.3-10.5,8.7-8.1c9.9,3.7,6.4,13.2,7.3,20.6
		c15.7-4.1,32.2-26.5,23.3-41.3c-1.2,3.2-2.4,6.2-3.5,9.2c3.8-17.4-1.6-33.2-5.3-49.9c-2.8-12.7-8.2-24.9-9.1-38.3
		c-0.9-13.4-13.1-22.1-18.3-33.9c-1-2.3-2.9-4.2-4.4-6.3c-18.4-27.1-50.3-31.6-75.9-10.8c-6.7,5.4-12.7,11.4-17.2,18.8
		c2-8.8,7.9-14.8,14.8-20c2.5-1.9,3.2-3.7,3.1-6.7c-0.5-22.9-0.8-45.9-1.1-68.8c0-1.9-0.2-3.8-0.3-6.3c-5.1,2.2-9.4,5.4-15.4,6.1
		c5.2-3.9,11.1-5.4,15-9.8C122.9,661.9,123.4,661.4,123.8,660.9z M606.4,911c0-1.6-0.1-3.2,0-4.8c0.3-7.8,0.9-15.6,5.3-22.5
		c1.8-2.9,4.6-4.8,7.7-4.8c3,0,3.9,3.4,4.8,5.9c1,2.6,2.6,5.5,2.4,8.1c-0.7,10.3,6.6,13,14.1,15.2c7.6,2.2,15.4,3.8,23.2,5.4
		c2.8,0.6,5.6,0.3,8.3-1.4c-0.5-10.7-1.3-21.5,4.7-31c3-4.8,6.6-9.4,13.4-5.3c0.1,0.1,0.4-0.2,0.6-0.4c-0.6-0.8-1.2-1.7-1.8-2.5
		c10.5,7.2,9.1,18.7,10.1,29.3c6.4,0.4,11-2.7,15.8-5.7c-3.5-9.7-3.3-18.9,3.2-27.3c4-5.2,8.2-7.4,13.7-1.4c0.3-5,0.6-9.7,0.9-14.4
		c1.2,10.4,0.6,21,2.6,31.6c6.2-3.6,9.9-9,12.4-15.2c5-12.2,5.7-25.1,5.1-38c-1.2-22.5-9.5-40.6-29.2-53.7
		c-17.8-11.9-35.5-24.2-51.9-38.3c-26.3-22.7-55.5-17.6-75.1,11c-3.7,5.4-8,10.5-11.8,15.9c-7.3,10.3-9.9,21.8-7.5,34.1
		c1.5,7.8,1.8,15.4,0.5,23.2c-2.2,13.3-2.1,26.6,1.2,39.7c1.6,6.2,3,12.4,5.1,20.9c-6.9-12.4-8.6-23.9-10.5-36.1
		C564.8,880.6,581.2,911.8,606.4,911z M618.8,882.8c-1.8,6.1-5.1,11.5-1.8,18.1c2.7-2.5,2.2-6.4,5.6-8.1
		c2.5,13.1-2.4,24.2-10.1,36.8C625.2,916.5,627.9,892.5,618.8,882.8z M681.6,935.3c12.6-16.8,17.5-40.4,11.5-52.9
		c3,16.3,0.7,32-10.8,45.7C680.5,930.1,679.8,932.4,681.6,935.3z M211.3,907.3c0,10.7,0,21.4,0,32.2
		C212.6,928.6,214,917.9,211.3,907.3z M158.3,957.2c0.8-9,1.6-18,2.3-27.1C159.2,939.2,154.7,947.8,158.3,957.2z M96.4,925.2
		c5.3-6.1,5.3-17.3,0.6-23.9C98.6,909.1,98.9,916.8,96.4,925.2z"/>
	<path d="M523,759.6c5,9.2,6.1,18.5,1.8,28.4c-13.8,31.7-26.8,63.8-45.7,93.1c-5.4,8.4-7.5,18-8.4,27.7
		c-1.9,20.6-28.9,43.6-50.1,45.3c-19.4,1.6-37.9,0.3-51.6-16.4c-5.7-6.9-9.3-14.6-11.8-23c-2.8-9.7-5.8-19.6-12.3-27.3
		c-13.6-16.1-21-35.1-26.6-55c-3.8-13.7-9.9-25.9-18.4-37.2c-3.9-5-6.9-10.7-10.6-16.7c-0.3,2.4-0.5,4.4-1,8.4
		c-2.2-9.2-2.8-16.2,2.3-22.5c3.8-4.6,7.5-5.2,11,0.4c6,9.4,10.3,19.6,14.7,29.8c5.7,13.1,13.8,24,26.7,30.7l-0.1,0
		c14,13.3,49.4,13.5,62.7-0.1c5.6-5.6,4.8-13.6,5.2-20.8c0.1-1.7-2.4-2.1-4-2.3c-6.4-1-12.7-2-19.1-2.6
		c-17.5-1.9-28.1-13.7-27.9-31.4c0-1.4-0.5-2.9-1.3-4.1c-9.5-15-6.3-33.8,7.5-44.6c21.6-16.9,64-19.8,87.8-6.1
		c16.5,9.5,22,32.1,12.1,50.2c-1.3,2.4-2,4.8-1.9,7.6c0.3,11-9.9,23-22.3,26.3c-9.4,2.5-19.2,3.1-28.4,7.3
		c0.3,5.9,0.8,11.8,0.2,17.8c-0.3,3.1,3.3,4.7,5.7,6.4c17.6,12.2,43.6,10.7,59.9-3.2c12.7-10.9,20.9-24.9,28.2-39.7
		c4.5-9.2,7.8-19.3,15.8-26.4L523,759.6z M336.5,835.3c-0.1,6.5,4.1,11.3,7.2,19.2c0.6-9.2,14.1-9.7,8.1-18.7
		c-1.4-2.1-7.8-3.9-12.5-3.2c0.6-1.1,1.3-2.3,2.1-3.7c-2.5-1.8-5-3.6-8.4-6C333.7,828,332.9,832.2,336.5,835.3z M364.6,855.9
		c0.5,1.2,1,2.5,1.4,3.7c1.1,4.3-0.4,8.2-1.8,12.2c-6.8,19.2,2.1,45.1,20.1,60c10,8.3,20.5,12.2,33.1,6.7c0.6-0.3,1.4-0.3,2.1-0.2
		c19.5,3.7,28.3-1.3,36.3-19.6c11.2-25.5,6.8-51.3,2.8-77.5c-1.8,0-3.5,0-5.2,0c2.7,0.7,5.5,1,5.2,4.9c-0.3,3.5-2.6,4.4-5.6,4.6
		c-7.5,0.4-14.5,2.6-21,6.1c-6,3.3-11.6,6.2-16-3c1.1,9.1,3.4,17.2,1.2,28.1c-1.7-9.7-1.3-17.5-6.6-24.9c0-0.3,1.8-3.5-0.5-3.6
		c-7.1-0.1-9-4.9-11-10.2c-1-2.6-2.4-6.4-5.4-5.9c-10.8,1.7-21.6,2.6-32.9,0.4c0.1,6.8,0.7,12.4,2.4,17.8
		C363.6,856.9,364.1,857.4,364.6,855.9L364.6,855.9z M463.1,747c2.1-1.9,3.6-3.2,3.3-5.7c-1.2-12.6-6.8-22.4-18.7-27.4
		c-16.9-7.1-34.6-7.1-52-2.9c-13.9,3.4-23.1,10.1-27.2,18.3c17.6-17.7,36.9-14.1,56.8-9c-1.6,0.3-2.7,0.4-3.9,0.6
		c8.6,2.1,17,4.5,25.4,6.7C457.2,730.2,455.7,742.3,463.1,747z M488.2,822.8c-4.7,3.8-8.1,7.9-12.5,10c-8.2,3.9-13.6,8.5-9.1,17.9
		c5.7-8.3,7.4-8.7,13.9-2.4C486,841,487.8,832.6,488.2,822.8z M357.1,874.5c2.4-8.1,5.2-15,0.1-21.9c-1.7-2.3-2.7-6.5-6.9-4.6
		c-4.3,1.9-6.3,5.9-4.9,10.4C347.2,864.6,351.5,869.4,357.1,874.5z M468,872.6c12.7-13.3,14.8-20,6.3-26.2
		C466,852,464.1,859.4,468,872.6z M453.1,772.6c-8.9-0.6-14.6-7-23-8.6C433.2,772.8,445.6,777.4,453.1,772.6z M464.9,917.8
		c1.7-9.8,3.1-18,4.7-27.5C464.9,895.9,462,911.6,464.9,917.8z"/>
	<path d="M466.2,622.4c2.3,5,4.6,10,7.2,15.5c0.5-4.8,1.3-9.1,1.2-13.4c-0.2-8.9,4.7-14.3,12.1-17c7.5-2.7,13.8,1.3,18.7,6.7
		c2.6,2.8,4.6,6.3,6.4,9.7c3,6,5.1,12.5,8.5,18.3c3.3,5.7,10.8,7.3,14.5,13.3c-0.6-0.2-1.1-0.1-1.4-0.4c-7.4-6.4-14.2-8.9-22.7-0.5
		c-5.4,5.3-13.3,4.4-20.2,0.3c-3-1.8-6.1-3.5-9.1-5.1c-2.6,2.5,0.2,4.3-0.3,6.9C473.4,646.2,468.5,634.9,466.2,622.4z M493.8,625.1
		c0.5,4.4,3.3,5.2,6.7,4.3c3.7-0.9,5.2-3.5,3.9-7.2c-1.7-4.6-5.3-7.2-10-8.1c-4.9-0.9-9.2,0.8-12.4,4.6c-2.6,3.1-3,5.7-1.3,8.9
		c1.6-5.5,5.2-8.7,10.8-8.7c2.9,0,5.4,1.4,6.7,4.7C496.6,624.2,495.3,624.6,493.8,625.1z M480.1,633.1c-0.1,7.4,4.1,11.5,9.5,13.5
		c5.2,1.9,11,1.9,15.1-3.3c4.3-5.5,3.8-11.3,2-19.1c-3.1,13.4-6,18.8-10.9,18.9C489,643.2,484.4,638.9,480.1,633.1z M511,631.8
		c-0.3,11.4-4,18.8-15.6,21.3c10.6,2.6,15.8-3.8,21.7-8.7c-1.1-2.1-2-3.8-2.8-5.6C513.4,637,512.5,635.1,511,631.8z"/>
	<path d="M349,644c5.6-8.4,10.5-16.2,13.9-24.9c-4.9,18.2-13.5,34.4-27.6,47.5c2.8-4.4,5.6-8.8,8.4-13.2c-14.4,9-28,12.9-40.7-2.5
		c-3.4,1.9-6.3,4.7-13.1,4.8c13.8-8,15.4-21.9,23-31.8c5.2-6.8,11.9-13,21.3-10.4c9.3,2.6,12.3,11.1,13.8,19.8
		C348.5,636.6,348.6,639.9,349,644z M315.5,636.4c-1.7,8.4,2.1,15,9.2,16.5c6.1,1.3,17.1-4.6,18.4-10.1c-5.6,0.3-9.6,7-15.2,4.9
		C322.7,645.8,318.1,642.2,315.5,636.4z M332.9,626.6c-0.5,2.1-3.2,3.9-0.1,5.6c1.9,1,4,2.9,6.2,1.4c2.2-1.5,2.2-4.1,1.2-6.5
		c-2-4.9-5.8-7.2-11-6.7c-5.6,0.5-9.9,3.2-12,8.7c-0.4,1-0.4,2.4,1.4,3C321.9,626.7,326.1,623.4,332.9,626.6z M305.5,647.8
		c5.9,7.9,14.1,11.2,22.4,8.6c-11.3-0.8-16.2-7-17-17.6C308.9,642.2,307.3,644.9,305.5,647.8z"/>
	<path d="M165.2,597.2c-5.5-2.4-11.3-3.1-16.3-6.2c10.5,2.7,21.3,4,34.7,5.7c-17.9,3.2-33.2,3.7-49.4,0.7c3.8,5,8.7,6.7,14.2,9.4
		c-7.4,2.2-14.2,2.5-21.4,6.2c6.1,0.6,11.1,1,16,1.5c-0.5,3.7-14.2,13.9-21,14.7c0-14.5-0.1-29,0-43.4c0-3.2-0.7-6-2.2-9
		c-8.4-16.4-16.5-32.9-24.7-49.4c-0.6-1.3-1.1-2.7-1-4.3c11.6,20,24,39.7,34.6,60.2c5.6,10.8,12.9,15.1,24.4,13.9
		C157.1,596.9,161.1,597.2,165.2,597.2z"/>
	<path d="M243.4,679.3c1.9-6.2,2.4-12.6,6.2-17.8c3.6-4.9,7.2-9.9,11.2-14.6c-5.6,14.5-10.3,29.5-19.7,42.3
		c6-4.3,9.2-10.9,14.2-17.7c-4.7,29-14.4,54.2-33.3,75.5c6.9-23.7,9.6-48.4,18.5-71.6C242.4,676.3,244.2,676.8,243.4,679.3z"/>
	<path d="M555.4,625.9c8.9,9.9,13.9,21.8,16.8,34.7c-1.2-2.2-2.4-4.5-4.4-8.1c-1,15.5,2,28.7,7.1,41.5c5,12.7,13.1,24.3,13.3,38.6
		c-7.9-22.4-24.3-41.7-24.4-66.9c0-7.1,2-14.5,0.6-21.2C563.1,638,558.6,632.1,555.4,625.9z"/>
	<path d="M333.7,507.3c-7.1,2.7-14.1,5.4-21.2,8.1c0.1,0.2,0.1,0.4,0.2,0.7c5.1-1.2,10.3-2.4,16.9-3.9c-28.7,13.9-57.6,5.4-85.8,6.7
		c30.1-3,61.5,4.2,89.6-14.2C333.5,505.6,333.6,506.5,333.7,507.3z"/>
	<path d="M234.7,550.1c-5.2,1.5-10.2,3.2-15.5,4.3c-6.1,1.3-12.4,2-19.3,1c11.5-4.2,23.1-8.3,37-13.4c-8.8,0.6-14.9,2.3-23.4,1.2
		c10.6-1.3,19-2.4,27.4-3.5c0.1,0.4,0.3,0.8,0.4,1.2c-5.7,2.9-11.4,5.8-18.7,9.6c6.5-1.3,11.3-2.2,18.8-3.6c-3.2,2.2-4.1,2.8-5,3.4
		C235.9,550.2,235.3,550.1,234.7,550.1z"/>
	<path d="M468.4,485.6c-4.1,1.3-7.3,2.4-10.6,3.4c15,0,29.5,1.1,44.7,8.6c-25.1-4.8-48.4-8.6-71.4,1.6
		C434.9,494.5,456.9,486.2,468.4,485.6z"/>
	<path d="M123.8,660.9c-0.5,0.5-0.9,1.1-1.4,1.6c-1.1,0.3-2.2,0.6-3,0.8c7.7-8.9,1.1-19.4,3.3-29.2c3.5-1,7.4-2.1,11.3-3.2
		c-8.5,3.6-0.3,14.1-7.1,18.4c2.2-1,4.4-2.1,7.5-3.6C130.5,651.3,127.2,656.1,123.8,660.9z"/>
	<path d="M156.4,590.6c23.2-0.1,45.6-4.8,67.7-11.2C202.8,590.8,179.9,593.1,156.4,590.6z"/>
	<path d="M497.1,509c2.1,0.6,4.2,1.1,8.3,2.2c-8.8-6.3-17.2-8.1-25.7-11.1c19.2-1,30.8,13.3,45.3,21.2c-9.5-3.9-18.9-7.7-28.4-11.6
		C496.8,509.6,496.9,509.3,497.1,509z"/>
	<path d="M554.1,524.6c8.7-5.2,18.4-5.6,28-7c-2.9,1-5.8,2.1-9.7,3.4c8.2,0.7,15.4,0,24-1.7C582.1,528.7,567.5,521.1,554.1,524.6z"
		/>
	<path d="M572.1,722c8,16.3,8.7,32.6,0.8,49c1.2-8.1,2.3-16.2,2.2-24.4C575.1,738.3,573.5,730.1,572.1,722z"/>
	<path d="M259.2,875.2c-12.6-14.2-18.9-30.7-18-49.9C244.1,843.1,249.8,859.8,259.2,875.2z"/>
	<path d="M244.9,663.1c10.7-18.2,22.6-35.8,29.7-56C270.3,628.8,257.4,645.8,244.9,663.1z"/>
	<path d="M204.8,541.8c18.5-3.6,36.9-7.1,55.4-10.7C242,536.2,223.8,542.1,204.8,541.8z"/>
	<path d="M412.9,509c1.6-4.1,2.5-6.5,3.9-10.1c0.2,2.2,0.3,3.1,0.4,4.3c9.5-9.4,20.5-15.7,32.9-19.7
		C437.6,490.7,425.9,499,412.9,509z"/>
	<path d="M321.7,499.8c12.8-7.6,39.8-8.6,54.5-1.6c-10.1-2-19-2.5-28-2.3C339.2,496.1,330.4,497.4,321.7,499.8z"/>
	<path d="M274.9,524.4c-13.5-1.6-27-0.5-40.5,0.5C247.8,520.3,261.3,519,274.9,524.4z"/>
	<path d="M289.9,901.9c-14.1-8.2-21.6-21.2-26-36.4C270.9,878.9,278.1,892.1,289.9,901.9z"/>
	<path d="M523.7,525.2c13.4-2.9,26.7-5.9,42.6-9.4C551.3,523.3,537.7,525,523.7,525.2z"/>
	<path d="M529.4,811.4c-3.3,17.8-8.5,34.7-16.9,50.5C518.1,845,523.8,828.2,529.4,811.4z"/>
	<path d="M586.3,549.5c11.6,5.4,22.4,9,34.9,7.8C611.3,562.3,596.3,559.1,586.3,549.5z"/>
	<path d="M141.6,917.5c-5.8-14.3-8.1-29-6.3-44.4C136.3,888,138.5,902.8,141.6,917.5z"/>
	<path d="M209.6,571.4c10-4.1,20-8.1,30-12.2C230.7,565.8,221.2,571.3,209.6,571.4z"/>
	<path d="M306.3,510.3c11.6-8.2,35.8-11.6,48.5-6.9C337.6,500.5,322.9,504.7,306.3,510.3z"/>
	<path d="M626.8,572.1c-12.4,3.4-22.1-1.8-31.1-9.3C605.1,568.6,615.6,571.5,626.8,572.1z"/>
	<path d="M523.2,759.7c2.7-3.8,6.6-3.3,10.2-2.3c5,1.4,8,5.2,9,10.2c1.2,6.3-0.7,12.1-3.1,17.8c0.6-6.6,3.1-13.1,0.2-19.6
		c-3.3-7.5-9.2-8.6-16.4-6.3C523,759.6,523.2,759.7,523.2,759.7z"/>
	<path d="M407.4,507.1c-7.6-8.4-16.3-13-26.3-16C389.7,489.2,404.8,497.9,407.4,507.1z"/>
	<path d="M556.9,846.8c-1.1,10.3-3.6,19.9-11.3,30.3C550,865.5,553.4,856.1,556.9,846.8z"/>
	<path d="M231.5,528c8.1-1.7,16-0.7,25.7,1.9C247.4,531.1,239.5,528.8,231.5,528z"/>
	<path d="M553.1,608.8c8.7,8.4,18.5,16,22.9,28C570.2,625.9,560.6,618.2,553.1,608.8z"/>
	<path d="M234.7,550.1c0.6,0.1,1.1,0.1,1.7,0.2c-6.4,6.5-13.4,12.3-22.4,14.7C221.6,561,228.5,556,234.7,550.1z"/>
	<path d="M590.6,540.9c9.1,1.7,17.9,4.6,27.3,2.7C608.2,548.5,599.5,543,590.6,540.9z"/>
	<path d="M559.6,857.3c2.6-8.2,5.3-16.3,7.9-24.5C567,841.6,564.8,849.8,559.6,857.3z"/>
	<path d="M254,845.6c1.5,10.7,6.1,20.5,8.6,30.8C258.4,866.5,254.1,856.6,254,845.6z"/>
	<path d="M236.6,757.1c-4.6,5.6-4.7,14.8-15,17.4C227.7,768.4,232.4,762.9,236.6,757.1z"/>
	<path d="M569.9,611.7c-7-3.5-13.9-7.1-22.1-11.2C557.2,602.2,563.8,606.4,569.9,611.7z"/>
	<path d="M641.3,578.8c-7.4,2.2-14.6,3.9-22.1,1.6C626.6,579.9,633.9,579.4,641.3,578.8z"/>
	<path d="M288.8,753.9c-11.3,3.5-12.9,13-13.8,23.6C272.3,765.5,278.3,755.4,288.8,753.9z"/>
	<path d="M688.5,808c11.8,21.1,15.9,52.1,8.9,70.3c0.4-8.6,1.1-16.2,1.1-23.8c0-7.9-0.7-15.9-3-23.5
		C693.3,823.6,691.1,816.2,688.5,808z"/>
	<path d="M630,820.4c9.8,21.4,5.4,42.6-0.3,63.8C632.2,862.9,637.1,841.7,630,820.4z"/>
	<path d="M724.8,807.2c5.1,11.8,8.6,23.9,7,37.1C731.4,831.5,727.9,819.4,724.8,807.2z"/>
	<path d="M364.7,855.8c-1.5-3.7-2.3-7.4-2.2-11.4c0-1.2-0.1-2.7,1.4-3c1-0.2,2.3,0.3,3.2,0.9c1.2,0.8,1.1,2.2,0.3,3.2
		C364.9,848.7,364.9,852.3,364.7,855.8C364.6,855.9,364.7,855.8,364.7,855.8z"/>
</g>
</svg>
