<?xml version="1.0" encoding="utf-8"?>
<!-- Generator: Adobe Illustrator 24.2.3, SVG Export Plug-In . SVG Version: 6.00 Build 0)  -->
<svg version="1.1" id="Layer_1" xmlns="http://www.w3.org/2000/svg" xmlns:xlink="http://www.w3.org/1999/xlink" x="0px" y="0px"
	 viewBox="0 0 595.3 841.9" style="enable-background:new 0 0 595.3 841.9; fill: #215342;" xml:space="preserve"
	 height="350" width="700" transform="translate(-200, -35)">
<g>
	<path d="M137,344.9c5.6-0.6,9.9-3.7,14.4-7c-0.6,1-1,2.2-1.8,3c-4.3,4.4-6,9.9-6.8,15.7c-0.3,2-1.3,3-2.8,3.7
		c-7.9,4.1-13.9,9.9-17.2,18.3c-0.9,2.3-1,3.3-0.5,5.8c2.3-0.3,2.2-3.2,5.2-3.9c-5.1,8.1-3.8,16.4-3.2,24.7
		c0.5,8.3,0.7,16.6,1.9,25.3c2.4-2.3,2.5-5.1,3.3-7.6c2.7-8.7,2.7-17.7,1.6-26.4c-0.9-7.4,0.3-13.9,4-20.1c0.4-0.6,0.6-1.3,1.1-2.1
		c-2.5-0.2-2.7,2.1-4.1,3c-0.1-4.6,7.5-13.5,11.8-14.5c-6,13.5-4.2,28-4.3,42.9c1.5-2.3,2.6-10.5,2.6-15.8
		c-0.2-16.3,3.6-31.5,12.3-45.4c0.4-0.6,0.8-1.1,1.5-1.5c-2.4,6.5-5.6,12.7-7.7,19.3c-5.8,17.7-6.5,35.8-2.7,53.9
		c2.6,12.7,5.4,25.3,6.8,38.2c0,0.1,0.1,0.2,0,0.3c-0.5,3.3,1.6,6.5,0.7,9.9c1.7-3.8,2.7-7.7,2.8-11.9c0.5-14.1-2.6-27.9-4-41.8
		c-2-18.9-1.9-37.7,2.8-56.4c3-12,5.6-24,12.9-34.5c-2.6,2.8-5.2,5.6-7.6,8.2c2.1-8.4,30.8-30.1,39.1-29.1c-4,2.1-7.8,4.2-11.6,6.3
		c0.1,0.1,0.1,0.3,0.2,0.4c1.3-0.4,2.6-0.9,5-1.7c-4,3-7.1,5.3-10.6,8c1.5,0.3,2.4,0.5,3.7,0.9c-3.2,1.9-6.6,2.9-9.5,5.4
		c9.3-1.3,18.1-2.6,27.3-3.9c-0.3,0.8-0.5,1.4-0.7,2.1c4.1-0.5,8-0.9,12.7-1.4c-3.2,1.8-6.1,2.2-8.8,5.1c9.9-2.5,17.6-9.4,28.2-5.6
		c9.2,3.3,18.4,6.2,25.7,13.3c-3.7,1-2,3.3-0.9,4.8c3.8,5.5,6.7,11.5,9.7,18.3c-0.2-2-0.3-3.4-0.4-4.9c7.2,8.5,6.5,29.1-1.5,37.1
		c2.2-6.1,3.8-11.9,2.9-18.3c-1.8,1.4-2.3,3-2.8,5.1c-1.3,5-2,10.4-7.7,13.3c-2.2,1.1-3.5,4-5.8,5.6c-0.8,0.6-1.6,2.1-2.9,1
		c-1.2-1,0-2.1,0.4-3.1c0.2-0.5,0.3-0.9,0.5-1.5c-4.7,1.1-6.9,5-6.9,12.3c5.7-3.1,11.1-6.1,17.4-9.5c-3.3,5.8-9.2,6.8-13.2,10.2
		c0.3,1.3,2,0.3,2,2c-3.3,1.8-7.6,1.9-10.4,5.2c-2.6,3-6.3,4.8-9,8.4c1.2-0.2,2-0.3,3.5-0.5c-2.6,2.8-5.7,4.3-7.5,7.3
		c0.6,0.1,1.2,0.2,1.7,0.3c-0.4,1.4,1,2.8-1,4.2c-5.5,3.7-11.1,7.5-17.5,9c-22.8,5.4-37.2,20.2-46.5,40.8c-1.1,2.4-1.9,5-3.1,7.6
		c0.7-0.6,1.4-1.2,2.7-2.2c-1.2,4.9-4.3,8-6.4,11.7c3.7-4,7.7-7.5,9.8-13.1c2.6-6.7,7.4-12.2,13.3-17.2c0.6,5.5-1.7,9.9-4,14.1
		c-3.3,6.1-3.6,12.6-4,19.2c-0.2,4.2,0,8.3,0,12.7c3-4.7,5.9-9.6,10.9-14.1c-1.6,4.5-4.5,7.2-5.4,12c7.1-7.2,12.7-14.8,22.6-18.5
		c-1.3,1.5-2,2.4-2.7,3.2c0.1,1.5,1.6,0.3,1.9,1c-2.3,9-13.4,9.1-16.5,17.4c4.3-3.8,8.1-8,13.9-9.9c-0.4,4.6-4.9,6.1-6.3,10
		c2.7-1.3,4-3.5,5.8-5.2c1.4,0.1,0.2,1.5,1.1,2c6.4-4.7,13.8-7.8,21.3-10.7c-5.4,4.5-9.4,10.4-15.4,14.6c2.6-0.8,5.3-1.6,8.1-2.4
		c-0.3,2-2.3,2-2.9,3.6c8-2.3,15.2-6.1,23.7-10c-3.3,3.7-6.8,5-10.4,7.5c7.8-1.5,13.9-5.5,21.6-8.1c-3.9,5.6-9.5,7.1-14.7,11
		c6.8-0.7,12.2-3,18.2-5.1c-0.9,2.9-3.5,2.9-5.1,5c10.7-1.5,18.6-7.2,26.5-13.1c-3,5.4-7.6,9.3-13.4,13.3c4.2-0.6,7-1.9,9.8-3.4
		c2.8-1.6,5.6-3.3,8.2-5.2c2.6-1.9,5-4.1,7.9-6.5c-0.3,1.6-0.6,2.6-0.9,4.1c3.5-1.3,4.7-4.5,6.9-6.5c0.9-0.8,1.8-1.8,2.5-2.7
		c2.5-3.4,1.2-6.3-2.8-7.4c-10.1-2.9-18.9-7.4-22.2-18.5c-0.4-1.2-1.4-2.3-2.1-3.4c-4.2-5.9-4.8-12.2-2-18.8
		c2.6-6.1,7.8-8.4,14.1-8.8c10.9-0.8,21.9-0.5,32.9-1.3c6.1-0.5,12.1,1.4,15,7.7c3,6.4,2.3,12.7-2,18.3c-1.2,1.6-1.5,3.1-1.1,5
		c0.8,4.3-1,7.7-4.2,10.1c-5.6,4.2-11.4,8.2-18.5,9.6c-1.9,0.4-2.6,1.3-2.6,3.2c0.1,2.4-0.3,4.9,0.4,7.3c2.1-0.4,0.6-2,1.6-2.7
		c2.2,0.8,2.5,5.3,6.8,4c5.7,5.3,13.4,8.3,21.6,10.1c-2.2-1.5-4.5-3-6.7-4.5c-2.2-1.6-4.5-3-6.7-6.6c3.9,2,6.7,3.6,9.5,4.9
		c2.3,1.1,4.6,2.1,6.9,3c0.9,0.4,2.1,1.1,2.8-0.2c0.5-1.2-0.8-1.5-1.5-2c-0.6-0.5-1.3-0.9-1.7-1.8c3.9,1.5,7.9,3,11.8,4.5
		c1,0.4,1.9,0.8,2.7-0.4c0.7-1.3-0.1-2-0.9-2.6c-3-2.1-6-4.1-8.9-6.3c9.3,3.1,19.4,4.1,27.7,10.2c-3.9-4.7-8.6-8.6-13.3-12.7
		c2.6,1.2,4-2.8,7.2-0.3c-2.1-6.1-7.2-8.4-10.9-13c9.9,1.3,18.3,4.2,25.5,10.4c-1.3-3-4.3-4.2-6.7-6.6c0.8-0.1,1.4-0.2,1.9-0.2
		c-0.3-0.6-0.6-1.2-1.1-2.1c6.8,0.6,9.9,5.9,14.1,10.3c-1-5.9-4.8-9.7-8.2-14.8c2.9,1.7,5,2.8,7.1,4c-3.7-6.6-9.3-11.4-15.1-16.2
		c6.6,1.2,12.9,2.8,19.3,5.1c-1.9-2.3-3.8-4.6-5.8-7c2.5-1.6,4.1,1.1,7,0.5c-3.9-2.3-5.6-5.7-7.7-9c2.8-1.3,4.8,1.2,7.7,1.7
		c-5.9-8.1-14.3-12.1-22.7-15.9c8.8,0.2,17.2,2.3,25.8,4.5c-1.2-0.9-2.5-1.8-3.9-2.8c2.6-0.7,1.5-2,0.6-3.2
		c-6.8-9.1-15.7-15.4-25.8-20.2c-1-0.5-2.3-0.6-2.6-1.9c1.4-0.8,2.6,0.5,4.4,0.2c-3.6-3.3-8-4.7-12.3-6.8c1.8-1.1,3.4,0.5,5.8-0.4
		c-8.6-4.4-16.8-7.9-25.3-10.9c1.4-1.3,1.4-1.3,5.9-1.8c-1.7-2-2.1-2.2-8.2-3.3c-3-0.6-6.1-0.8-9.9-1.3c1.2-0.7,1.8-1.1,2.6-1.6
		c-0.4-0.2-0.6-0.5-0.9-0.5c-6.6-0.9-12.6-3.1-17.2-8.1c-0.3-0.3-0.8-0.5-0.9-0.8c-3.2-11.5-10-22.3-7-34.8
		c0.1,5.8,0.8,11.8,3.1,17.5c-0.7-8.2,0.4-16.1,2.4-24c1.6-6.4,6.4-10,10.5-14.4c2.9-3.1,4.8-6.5,5.8-10.6
		c1.8-8.1,4.8-15.6,11.7-20.9c1.9-1.4,1-3.1,1.3-4.5c1.1-5.5,5.5-8.8,8.5-13.2c-1.3-1.5-2.8-0.9-5.2-0.3c6.9-5.1,13.4-8.7,20.7-11.1
		c-10.5-0.4-19.9,4.4-30.9,6.9c7.5-7.4,15.7-11,24.7-13.5c-5.4-3.4-11.2-1.5-27.5,8.2c1.3-1.5,2.5-3,3.9-4.4
		c1.5-1.5,3.1-2.7,5.2-4.5c-5.7,1.3-10.2,3.8-15,5.9c2.3-1.4,4.5-2.9,7.9-5.1c-6.7,1.6-11.9,3.2-16.6,6.6c4-5.5,10-7.7,16.1-9.7
		c6.2-2,12.7-2.3,19.5-2.2c-8.1-4.9-20.8-2.2-32.6,6.7c2.6-6.8,10.4-10.3,29.5-12.8c-12.4-3.6-23.5-3.2-33.9,4.4
		c1.1-5.7,10.7-11.4,21-12.7c-3.4,1.4-6.1,2.5-8.7,3.5c8.4-0.6,16.6,0.2,24.6,2.8c7,2.3,12.6,6.8,18.2,11.4
		c8.8,7.1,17.8,14,28.8,17.5c6.9,2.2,12.6,6.5,17.7,11.6c9,9,19.7,12.6,32.3,10.9c5.2-0.7,10.6-0.9,16.8-1.5
		c-3.8,3.7-8.1,4.2-11.9,6.1c7.1-0.2,14.1-1,21.2-0.3c7.1,0.7,14.1,1.8,21.2,3.1c-8.7-0.4-14.9,6.2-23,7.7
		c8.5-0.2,16.7,0.7,24.7,3.4c-10.5-1.2-20.7,0-30.9,3.9c15.7,5.6,23.5,18.6,30.9,32.2c2.7,5,6.1,9.5,9.3,14.4
		c-2.1-1.6-4.1-3.2-6.8-5.3c1.1,4.1,4.2,5.6,6.1,8.4c-1.6,0-3.1-1.9-4.4-0.1c-1.3,1.9,0.1,3.5,1.1,4.8c4.8,6.6,10.8,11.3,19.5,11.3
		c-0.8,2.2-0.8,2.2-6.3,3.1c4.7,3.1,9.2,6,14.9,9.6c-6.5-1-11.7-1.8-16.9-2.6c10.1,5.6,20.6,10.4,23,24.6c-3.9-7-9.1-11.2-15.6-14
		c4.8,6.9,8.1,14.2,8.9,22.6c-1-2.3-1.8-4.6-3-6.8c-1.2-2.3-2.5-4.5-4.2-6.6c6.5,12.4,7,26,8.6,39.5c-2.4-7.5-4.2-15.2-9.4-21.6
		c2.9,19.6,3.8,38.7-5.2,57c3.2-14.2,3.1-28.4,0.6-42.7c-0.3,9.9-1.2,19.7-4.9,30c0.4-6.4,0.7-12,1-17.5
		c-1.8,19.5-9.5,36.9-19.5,54.7c3.2-11.1,6-21,8.9-31c-0.3-0.1-0.5-0.2-0.8-0.3c-2.5,5.9-4.9,11.9-7.6,18.3c0-5.4,0-10.3,0-16.3
		c-2.3,6.6-3.4,12.4-3.5,18.4c-0.1,7,2.1,13.6,3.1,20.4c0.3,2.3,2.3,1.4,3.5,1.4c30.8,0.2,61.5,0.3,92.3,0.4c1.8,0,3.7,0,5.8,0
		c-0.8,2.1-2.2,1.4-3.1,1.4c-29.2,0.5-58.4,0.9-87.5,1.2c-3.6,0-6.2,1.2-8.2,4.1c1.1,1.2,2.5,0.7,3.8,0.7
		c30.2-0.1,60.5-0.3,90.7-0.5c1,0,2.1,0,3.1,0c0.7,0,1.3,0.3,1.1,1.1c-0.1,0.4-0.6,0.8-1,0.9c-1.2,0.1-2.5,0.1-3.8,0.2
		c-30.6,0.4-61.3,0.7-91.9,1.1c-0.9,0-1.8,0.1-3,0.2c1.3,1.5,2.6,1,3.7,1c30.5,0.2,61.1,0.3,91.6,0.4c3,0,3.9,0.7,3.9,3.7
		c0,9.3,0.3,18.6,0.7,27.8c0.1,2.8-0.6,3.5-3.4,3.5c-37.9-0.1-75.7,0-113.6-0.3c-6.8,0-12.2,0.1-13.8,8.4c-0.5,2.9-2.9,5.5-5.3,7.7
		c-3.9,3.7-5.2,3.9-10,1.3c-3.7,5.9-8.3,10.9-15,13.6c-4.5,1.8-8.7,2.1-12.7-1.1c-0.6-0.5-1.4-1.3-2.2-0.9
		c-7.4,3.5-13.9-0.6-20.5-2.8c-5.5-1.8-10.2-5.1-14.1-9.3c-0.5,0.2-0.8,0.3-0.8,0.4c-3.1,6.8-5,7.4-11.7,3.6
		c-4.6-2.6-8.5-6.2-11.4-10.6c-1.4-2.1-2.5-2.3-4.5-0.9c-17.8,12.4-36.6,12.8-56.1,4.8c-0.5-0.2-0.9-0.5-2.2-1.1
		c21.5,4.2,41.9,6.8,61.1-6.9c-2.4-1.5-4-1-5.7-0.5c-6.5,2.2-13.1,4.5-19.7,6.4c-14.6,4.3-28.8,2.4-42.7-3
		c-4.8-1.9-8.5-5.7-13.3-7.8c-4.7-2-6.8-1.8-9.5,2.6c-3.3,5.3-5.6,11.2-9.8,16c-4.9,5.5-7.6,6.1-14,2.6c-1.3-0.7-1.9-0.2-2.5,0.8
		c-10.6,17.2-37,24.3-59.4,4.5c-4-3.6-7.8-6.4-13.5-7.6c-11.1-2.5-19.6-9.9-27.7-17.7c-1.7-1.7-3.4-2.6-6-2.6c-32,0.1-64,0-96,0.1
		c-2.8,0-3.7-0.7-3.6-3.6c0.4-9.2,0.6-18.4,0.5-27.6c0-3,1.1-3.7,3.8-3.7c21.5-0.1,43.1-0.3,64.6-0.6c1.3,0,2.7,0.3,4.6-1
		c-1.9-0.1-3.2-0.2-4.4-0.2c-21.8-0.3-43.5-0.6-65.3-1c-1.2,0-3.5,1-3.4-1.4c0.1-1.9,2.2-0.9,3.4-0.9c32.7,0.2,65.5,0.4,98.2,0.6
		c1.7,0,3.9,0.7,5-2.1c-17.8-2.5-35.6-2.9-53.4-3.2c-17.7-0.3-35.5-0.1-54-0.1c1.5-2.7,2.9-2,3.9-2.1c30.3-0.2,60.7-0.5,91-0.6
		c3.2,0,4.8-0.5,4.3-4.2c-0.4-3.9,1.6-7.5,2.5-12.3c-5.1,6.5-10.1,11.7-18.2,13.1c14.3-10.4,7.9-28.5-1.6-42.2
		c2.3,8.8,4.8,17.1-1.9,24.6c2.3-7.9-0.9-14.6-4.4-22.2c-0.7,4.7,0.4,8.9-2.5,12.8c-0.9-12-7-21.6-11.3-32.6
		c-2.2,5.7-5,10.2-10.3,12.7c7-6.1,7.6-14.3,7.4-22.7c-0.1-4.9,1.1-9.5,3.2-14.8c-6.8,6.7-6.7,15.8-11.8,22.4
		c1-4.9,2.1-9.9,3.1-14.8c-0.2,0-0.4-0.1-0.6-0.1c-0.6,2-1.2,4-1.8,6c-0.2,0-0.4,0-0.6,0c-0.1-1.7-0.3-3.3-0.5-5.7
		c-2.3,5.9-2,11.5-3.4,16.9c-0.3-9.6-6-18.1-5.5-27.7c0.7-12.3,5.1-22.7,16.1-29.5c1.9-1.2,3.7-2.6,5.3-4.5
		c-3.3,1.2-6.6,2.4-9.9,3.6c-0.1-0.2-0.2-0.4-0.3-0.6c3.8-2.5,7.6-5,12.4-8.1c-2.2,0.3-3.2,0.4-4.9,0.6c7.2-8,16.9-10.3,25.6-14.6
		c-0.2,0.4-0.4,0.9-0.7,1.2c-7.3,6.1-12.2,14.3-18.6,21.2c-1.4,1.4-2.3,2.8-1.5,5c0.8,2.2-0.9,3.4-2.5,4.5
		c-4.2,2.6-7.5,6.1-9.9,10.6c6.9-4,15.3-2,22.1-6c2.7-1.6,4.8-3.4,4.7-7.3c-0.1-2.9,2-5.6,4.3-7.8c1.8-1.7,3.8-3.3,5.2-6.8
		c-4.6,2.4-8.4,4.3-12.2,6.3c9.3-7,16.8-15,18.9-26.8c-1.3-0.9-1.9-0.1-2.4,0.2c-0.6,0.4-1.2,0.8-2,1.4c4.5-11.9,12-20,23-25.4
		C134.9,348.2,138.3,348.3,137,344.9L137,344.9z M412.5,563.1c2,3,3.5,6.3,6.3,8.6c0.8-2.4-1.2-4.2-1.5-7.1
		c4.2,5,7.1,10.1,10.8,15.9c-1.6-1.1-2.3-1.7-3-2.2c1,2,1.6,4.2,3.6,5.3c5-3.8,6.3-9.1,5.9-14.6c-0.4-5.3-0.5-10.7-2.2-16
		c0.7,0.3,1.2,0.6,1.9,1c-0.8-5.7-5.8-6.6-10.7-9.3c4.1,0,6.2,1.8,9.1,3.1c-0.3-1.3-0.6-2.2-0.7-3.1c-0.4-3.6-1.7-7.4-0.9-10.8
		c0.5-2.5,0.7-4.2-0.4-6.5c-3.5-6.9-10.4-8.1-16.7-9.8c-3.6-1-7,2.4-6.8,5.6c-3.9-2.4-6.1-8-12.1-6.1c-4.7,1.5-9.1,3.4-10.4,9.3
		c-1-1.3-1.6-2.2-2.3-3.2c-5.7,4.5,1.7,6,1.8,9.1c-1.1,0.6-1.4-1.6-2.6-0.7c0.4,1,0.7,1.9,1.2,3.1c-8.4-2.9-16.4,0.3-24.8-0.4
		c0.8,2.7,2.1,5.1,0,6.6c-1.5,1.2-1.2,2.2-0.8,3.5c2.3,6.3,1.8,12.1-2.4,17.7c-3.2,4.3-2.2,10.8,1.4,14c0.2,0.2,0.5,0.2,1,0.3
		c0.1-0.9,0.2-1.6,0.2-2.3c1.7,4.9,7.1,5.2,10.8,9.5c-3-6.1-5.2-11.2-5.6-18.1c1.2,2.2,1.7,3.3,2.7,5.1c0-4.3-0.9-7.8,0-11.8
		c3.8,7.4,10.3,12.1,13.8,20.5c-0.1-2.2-0.1-3-0.2-4.3c0.7,0.7,1.1,1,1.6,1.5c0.3-1.8-1-3.3-0.1-5.2c1.4,5.9,4.2,10.7,9,14.1
		c1.6-1.1,1.6-2.6,1.6-4.7c4.1,5.6,10.5,6.9,15.1,11.2c-1-2.5-3-4.5-3.5-7.2c0.9-0.7,1.2,1.2,2.2,0.3c-0.4-2.2-0.9-4.6-1.4-7
		c1.5,0.3,1.1,2.2,2.8,2.2c-1.2-4.1-1.6-7.9-0.5-12.2c0.6-2.4,3.2-4.6,1.8-7.4c-3-6.2-1.7-13-2.4-19.5c0-0.1,0.3-0.2,0.4-0.3
		c0.4,0.3,0.7,0.7,1.2,1.1c0-1.9-1.3-3.6-0.7-5.6C409.8,541,412.2,551.3,412.5,563.1c-2.5,1.6-1.1,3.6-0.3,5.2
		c3.1,6.3,7.4,11.8,12.1,17c0.8,0.9,1.6,1.8,2.6,0.3C420.9,578.8,415.2,571.9,412.5,563.1z M157.1,562.8c2.2-5.4,8.3-7.8,8.9-14
		c0,3.1,1.7,5.5,1.7,8.6c-0.1,5.8,0.1,11.4-3.1,16.5c-0.2,0.4-0.2,1-0.2,1.5c0.8,6.1,3.5,11.3,9,13.8c5,2.2,9.2-1.1,12.9-4.4
		c1.5-1.3,2.8-2.8,4-4.4c3.2-4.5,6.2-9,9.7-14.2c0.4,6.5,0.3,12.2-1.9,18.9c1.5-1.8,2.1-2.6,3.2-3.9c-0.2,2.1-0.4,3.6-0.5,5.2
		c3.2-1.4,4.4-6.3,7.2-5.2c2,0.7,4.8,3.6,4.9,7.3c1-0.6,1.7-1,2.3-1.3c0.8,0.6,0.6,1.9,1.8,2.1c1.9-0.1,2.4-4,4.4-2.4
		c2.8,2.1,3.6,0,4.6-1.5c2.5-4.1,4.2-8.5,4.1-13.3c-0.1-5.6,2-11.1,0.6-16.8c4.1,6.4,3.8,13.7,4.8,20.7c4.9-4,2.8-9.6,3.3-16
		c1.1,2.9,1.7,4.4,2.5,6.5c0.4-3,0.7-5.3,1.1-8c2.2,2.3,2.2,5.1,3.9,7.1c-0.6-3.6-1.2-7.2-1.8-10.8c1.4-0.1,1.8,1.5,3.1,0.3
		c-1.3-2.3-2.8-4.5-3.9-6.9c-1.1-2.4-2.1-5-2.7-7.7c-1.8-7.6-6.4-11.8-14.4-12.6c0.6,2.4,1.1,4.8,0.5,7.8c-0.7-1-1.2-1.8-1.7-2.5
		c-2.4-4.4-5.4-8.1-10.7-9.4c-2.9-0.7-5.8-1.9-8.3-3.5c-5.6-3.5-11.1-7.3-18.3-3.9c-0.3-1.4-0.5-2.8-0.8-4.2
		c-0.1-0.6,1.8-0.9,0.3-1.8c-0.9-0.5-1.7-0.8-2.8,0c-1.4,1.1-3.1,1.6-5.2,1.5c0.4-0.9,0.6-1.6,1.3-3.2c-4.9,4.6-10.9,5.9-14.8,10.6
		c-1.2-3.8,2.2-5.4,3.6-7.8c1.6-2.8,0.4-4.5-1.9-5c-3.3-0.7-6.7-0.6-10.3,0.9c1.4,0.7,2.4,1.2,3.6,1.8c-2.2,1.6-5.1,0.7-6.9,2.8
		c2.4,0.9,0.2,2,0.3,2.8c0.3,2.1,0.6,2.1-1.4,2.4c-6.6,1-10.2,5.9-14.7,10.8c2.2,0,3.6,0,5.5,0c-1.8,2-3.8,3.4-4.5,5.2
		c-1.6,4.3,2.9,1.9,4.2,3.2c-0.4,2.5-4.2,2.2-4.2,4.9c1.2,1.1,2.8-1.7,4,0.9c1.6,3.7,2.6,7.7,3.2,11.3c1.1,6.6,3.6,2.1,5.1,1.2
		c5.9-3.8,10.7-8.7,14-16.2c1.2,9.9-4.8,14.9-10.5,20.2c1.2,0.4,1.8-1.1,2.7-0.3C157.7,559.8,155.9,560.6,157.1,562.8z M410.5,328.8
		c1.5,5.1,4,9.9,4.7,15.2c3.5,25.8,3.1,51.8,4.8,77.7c0.4,6.1,1.3,12,2.9,17.9c4.7,17.1,15.6,32.1,16.4,50.5
		c2.8-10.3,2.4-20.4-3.1-29.6c-11.3-19-16.3-47.6-11.1-67.1c0.6,5.4-0.3,10.7,0.9,16c2.9-6.6,3.1-13.2,2-19.9
		c-0.9-5.4-1.5-10.7-1-16.2c0.7-7.2,0-14.2-1.5-21.3c-1.5-7.3-3.8-14.3-6.2-22.3c4.2,5.5,5.7,11.2,8.1,16.7
		c-0.2-6.8-2.7-12.8-5.5-18.5c9.6,3.7,20.7,2.6,28.5,10.5c-2-4-6.1-5.6-9.3-9.3c5.6,1.5,9.2,4.6,13.1,7.2
		c-6.5-11.3-17.1-17.2-28.3-21.3c12-2.7,24.1-6.2,35.9-11.3c-4.1,1-8.2,1.4-12.4,1.7c-4.2,0.3-8.5,1.6-12.4,0.1
		c-4-1.6-8.2,1.6-12.2-1.1c2.9-0.9,5.9-0.6,8.7-2.1c-11.3-0.7-21.3-6.4-33-7c3.1,3.3,6.4,5.5,10.3,7.5c-3.4,0.2-3.5,1.3-1.9,3.4
		c0.9,1.1,3.4,1.6,2.4,3.5c-0.9,1.8-2.6-0.8-3.9,0c-0.2,0.1-0.3,0.3-0.6,0.6c3.2,4.2,7.7,7.3,11.1,13.1c-2.5-2.1-3.8-3.4-5.3-4.5
		c-1.4-1.1-3-1.9-5.2-3.3c7.2,12.1,11.5,26.2,10.6,33.3C415.9,342.5,416.5,334.5,410.5,328.8z M265.2,365
		c2.9-15.5-5.8-31.9-18.9-36.5c2.2,2.8,3.8,5.6,4.2,9.4c-9.8-13.6-28.6-21.9-37.5-16.8c1.8,1.7,4.7,1.5,7.1,4.1
		c-5.3-0.5-9.7-1.6-14.3-0.5c-6,1.4-10.8,3.4-12.3,5.5c1.1,1,2.9-0.4,4.1,1.1c-3,1.5-6.7,1.7-8.9,5.1c4.7,0,9.1-1.2,13.5,1
		c-4,1.5-9.3-1.2-10.9,4.9c-0.4,1.3-2.5,1.7-3.2,3.7c4.5-1.5,8.6-3.6,14.5-3.2c-11.6,4.2-21.5,8.8-24.7,21.7
		c9.7-5.6,18.3-12.2,29-14.8c-3.7-0.2-7.2,0.8-10.9,1.1c1.7-0.9,3.5-1.7,5.1-2.6c-0.3-1.3-1.6-0.2-2.1-1.5c8.3-3.4,16-1.1,23.9,2.2
		c0.3-0.9,1.1-2.2,0.8-2.5c-4-3.9-9.5-3.9-14.4-5.4c14.2-0.5,25.9,4.1,34.3,17.7c0.8-6.2-1.3-10.6-3.4-14.9
		c-2.2-4.5-5.5-8.2-8.4-12.1c11.4,8.6,16.7,20.4,17.9,35.3c3.1-5.7,1.5-10.5,0.9-16.1c3.5,6.1,3.3,12.2,3.8,18.6
		c5.7-5.4,5.9-11.6,5.4-18.6C261.4,355.9,263.1,360.1,265.2,365z M328.9,526.9c-0.5-0.7-1.7-2.5-3-4.1c-2.6-3.1-5-3.1-7.8-0.2
		c-7.4,7.8-16.5,10.9-27.2,9.8c-5.8-0.6-10.8-3.3-16-6.1c-1.4,4.5-1.7,8.8-1.4,13.1c0.4,4.9,1.9,6.6,5.5,6.9
		c0.5,0.6,1.1,1.1,1.8,1.9c0.8-3.4,1.8-5.2,3.9-1c0.2,0.4,0.8,0.7,1.3,0.8c4.4,0.4,9.1-0.2,12,4.1c1-0.3-0.9-2.7,2-1.7
		c3.1,1.1,6.3-0.4,8.3-3.5c0.2-0.3,0.7-0.6,1-0.5c3.3,0.8,4.9-1.7,7.1-4c0,1.4,0,2.4,0,3.6c3.5-3.6,3.5-3.6,5-2.4
		c0.8-3.4,4.6-4.4,5.9-7.2C328.4,533.9,328.3,530.9,328.9,526.9z M356.1,309.8c-7.5-4.5-23.9-0.6-33.2,7.8
		c-14.3,12.9-18.7,24.6-13.4,36.3c0.7-4.4-1-8.7,0.5-13.2c1.3,5,2.1,9.9,4.6,14.9c7.8-28.4,26.6-40.9,55.7-40.2
		c-13.1-7-25.1-4.2-37.1,0.2C340,310.1,348.1,310.3,356.1,309.8z M297.5,519.2c-4.7-6-11.5-5.8-18-6.3c-1.9-0.2-4.4-0.7-5.4,1.5
		c-1,2.1,0.2,4.3,1.5,6.1c0.5,0.7,1.1,1.3,1.7,1.9c8.7,8.5,26.4,8.9,35.5,0.8c1.9-1.7,3.6-3.6,4.3-6.1c1-3.4-0.4-5.6-3.8-5.5
		C307.1,511.7,301.6,513.6,297.5,519.2z M183.1,374.6c-6.1,3.6-6.5,10.6-9.6,15.9c-0.7,1.2,0.7,1.6,1,2.3c0.5,1.1,1.4,0.6,2.1,0.1
		c1.6-1.1,3.4-2.1,4.8-3.5c7.5-7.2,14.8-14.5,22.3-21.8c-4.3-0.6-7,3.2-11.9,4c5.5-9.1,13-12.2,22.4-11c-0.1-1.6-1.9-1.2-1.8-2.6
		c0.7,0.1,1.3,0.2,1.9,0.2c0.6,0.1,1.3,0.1,3.1,0.2c-10.7-4.3-19.5-1.5-28.3,2.2c1.7-1.1,3.3-2.2,5.8-3.8
		c-9.3,2.5-16.1,10.7-16.6,19.2C180,375.7,181.5,375.1,183.1,374.6z M345.1,355.5c7.5-2.5,14.4-4.9,22.5-1.4
		c3.6,1.6,8.9-0.2,13.3,1.4c0.7,0.3,1.8,0.3,2.2-0.6c0.6-1.2-0.4-1.7-1.1-2.2c-2.9-2-5.8-3.9-9.7-6.6c2.9,0.8,4.6,1.3,6.6,1.8
		c-4.9-10-28-6.6-35.7,4.7c2.2,1,3.6-1.6,5.9-1.4C348,352.9,345.6,353.1,345.1,355.5z M374.1,321.5c-13.1-7-39.9,1.3-45.2,14
		c1.3-0.3,1.3-0.3,1.7,2.2c4.6-3.5,8.7-7.8,15.1-9.3c-11.3,8.6-12.5,9.9-12.8,14.7C343.8,329.3,358.2,324.1,374.1,321.5z
		 M415.4,509.3c1.6,1.8,3.7,2.1,5.5,2.6c8,2.3,13.7,6.8,16,15.1c0.4,1.3,0.9,2.6,2.2,3.3c5.5,2.8,11.4,3.5,17.6,4
		c-0.9-3.7-3.7-5.1-6.5-6.5c-2.7-1.4-5.4-2.7-9-4.5c1.9-0.2,2.8-0.3,4.1-0.5c-1.4-0.1-2.2-0.2-4.2-0.4c2.7-0.7,4.1-1.1,5.6-1.5
		C443,516,419.6,507.3,415.4,509.3z M454.1,556.9c1.1-1.2,0.6-2.8,0.5-4.3c-0.9-8.9-7.1-14-13.7-18.8c-1.1-0.8-2.1-0.1-2.1,0.8
		c0,4-2.9,7.9,0.1,11.9c3.7,4.9,6.1,10.4,7.7,16.3c0,0.1,0.2,0.2,0.3,0.3c0.4-0.8-0.3-1.9,0.8-2.6c0.2,0.8,0.3,1.5,0.6,2.7
		c1.8-3.7-0.1-7.3,0.8-10.7C450.9,554.1,452.5,555.4,454.1,556.9z M279.4,438.6c-1,0-2.1-0.1-3.1,0c-4.6,0.6-8.2,2.9-10.5,7.1
		c-0.7,1.3-0.7,3,0.6,4c0.9,0.7,1.7-0.2,2.4-0.8c8.6-7.4,19.4-5.6,29.4-6.5c1.8-0.1,3.4,0.6,5.2-0.7c1.5-1.1,4.7-1.2,3.9-3.4
		c-0.9-2.5-4-1.3-5.8-0.7c-6.5,2.2-13,2.3-19.7,1C281.1,438.4,280.2,438.6,279.4,438.6z M343.9,397.4c4,1.9,6.5,4.9,10.5,4.2
		c7.6-1.3,11.8-6.4,14-13.3c2.4-7.1,0.7-13.6-4.1-20C367.6,390.8,363,397.4,343.9,397.4z M185.7,434.3c4.3,2.1,6.6-1.2,9.4-2.7
		c1.9-1.1,3-1.3,3,1.8c3.5-2.9,7.7-4.5,7.6-9.6c-1.9-0.3-3.8-0.1-5.8,0.8c1.4-1.9-0.3-3.9,0.5-6
		C196.1,424.4,189.5,427.9,185.7,434.3z M205.7,387.6c-3.7,6.4-1.2,15.3,5.8,20.6c5.9,4.5,15.5,3.6,21.2-2
		C217.6,412.1,208.1,405.6,205.7,387.6z M195.5,384c-8.7,1.7-21.2,15.6-19.8,21.4c2.9-1,5.7-2,7.2-5.3c-1.1,0.2-1.8,0.4-3.3,0.7
		C185,394.8,190.8,390.3,195.5,384z M349.3,370.7c-0.4-2.4-0.5-5.6-4.3-5.7c-3.5-0.1-4.5,2.6-4.5,5.5c0,2.9,0.9,5.6,4.3,5.8
		C348.2,376.5,349.1,374,349.3,370.7z M491.1,412.1c-4.9-4-9.7-8.1-14.7-12.1c-0.7-0.5-1.6-0.4-2.3,0.3c-0.9,1-0.6,2.1,0.1,2.8
		C478.8,407.8,483.8,411.9,491.1,412.1z M226.2,380c-0.4-2.4-0.8-5.3-4.2-5.5c-3.1-0.2-4,2.3-4,4.9c-0.1,2.9,0.7,5.8,4.2,5.9
		C225.3,385.4,225.8,382.7,226.2,380z M381.1,335.9c-8.4-3.6-15.8-2.1-24.1,1.1c5.3,1.1,9.6,1.9,13.7,2.7c0.7-2-1.7-1.5-1.6-3
		C372.8,335.8,376.7,337.9,381.1,335.9z M182.5,421.1c5.3,0.2,9.6-3.4,15.3-1.9c2.6-2.1,3-5.1,0.2-8.4
		C193.7,415.1,188,417.3,182.5,421.1z M392.8,283.3c3.4,11,21.2,14.2,30.7,14.6c-5.8-0.4-10.9-2.5-16-5
		C402.5,290.3,397.9,287.1,392.8,283.3z M92.2,424.2c2.5-2.3,7.3,1.6,9-3.6c1.2-3.5,2.6-6.9,1.6-11.9
		C99.9,415.1,95.7,419.3,92.2,424.2z M387.7,286.9c-8.7-6.3-26.8-7.7-32.4-2.9C366.1,282.3,376.4,283.7,387.7,286.9z M215.3,377.8
		c-4.6,2.7-5.4,6-5.7,9.6c-0.3,3.3-0.1,6.5,3,8.7c0.5,0.4,1.1,0.9,1.6,0.2c0.3-0.3,0.3-1.1,0.1-1.4
		C211.3,389.5,212.1,384.2,215.3,377.8z M456.9,324.3c-5.6-4.4-11.6-7.8-19.2-5.8C444.1,320.5,450.5,322.4,456.9,324.3z
		 M314.8,575.5c8.7-1.6,17.7-0.1,26.4-2.1C332.2,571.2,323.6,573.7,314.8,575.5z M138.8,378.3c-5.2,4.4-7,10.1-6.3,17.5
		C135.2,389.6,135.9,383.6,138.8,378.3z M424.2,587.7c-5.3-5.4-9.8-10.8-13.1-17.6C411.1,575.8,419.8,587.5,424.2,587.7z
		 M149.7,559.4c6-2.8,11.3-6.4,13.7-13.1C159.1,550.9,154.1,554.8,149.7,559.4z M482.7,397.7c3.1-4.2,2.6-6.1-2.1-8.8
		C478.9,392.3,480.1,395,482.7,397.7z M106.7,419c-0.2-1.1-0.5-2.9-1.3-2.6c-2.5,1.2-2.6,4.2-3.6,6.5c-0.5,1,0.6,1.6,1.4,1.5
		C106.6,424,105.3,420.6,106.7,419z M69.2,419.9c-3.8,3-5.8,6.7-5.3,12.6C66,427.6,67.6,423.8,69.2,419.9z M126.7,364.7
		c3.4-1.2,5-3.1,6.9-4.7c0.6-0.5,1.1-0.9,0.6-1.8c-0.5-0.9-1.3-0.6-1.9-0.3C129.6,359,128.3,361.4,126.7,364.7z M202.1,606.2
		c-7.3,0-14.4-1.3-21.4-3.6C187.5,606.1,194.6,607,202.1,606.2z"/>
	<path d="M137,344.8c-0.3,0.2-0.5,0.5-0.8,0.5c-14.6,2.4-22.6,13-30,24.1c-5.1,7.7-11.7,13.5-21.3,17.5c3.6-3.1,6.3-5.6,9.1-8
		c-0.1-0.1-0.2-0.2-0.3-0.4c-3.4,2.1-6.9,4.2-10.3,6.3c13-8.4,20.4-22.3,31.3-32.8c-2.5,1.3-5.1,2.6-7.6,3.9
		c-0.1-0.1-0.2-0.3-0.2-0.4c1.7-1.3,3.4-2.5,6.2-4.7c-2.3,0.8-3.4,1.1-4.5,1.5c0.4-1.4,3.1-1.7,2.1-3.5c-0.9-1.4-2.7-0.4-4.1-0.4
		c-7.2,0.1-11.6,5.8-17.3,8.8c-0.5,0.2-0.8,0.6-1.4,0.7c6.6-7.7,14.8-13.7,23.6-20.5c-2.3,0.1-3.5,0.2-5.4,0.3
		c5.5-2.7,10.3-5,15.7-7.6c-4.2-1.4-8.1,1.4-11.9-0.6c1.9-2,4.5-2.1,7.2-3.4c-6.5-3.8-12.4-8-17.3-13.6c9.8,6.6,20.7,6.4,32.9,5.2
		c-5.7-1.6-10.5-2.1-14-5.7c2.6,0.6,5.2,1.3,7.8,1.9c10.4,2.2,19.7,0,28-6.7c5.4-4.4,10.7-8.9,16.5-13.8c-8.9,0.9-16.9,0.5-23-6.5
		c6.2,2.8,12.5,4.2,19.2,2.7c6.4-1.5,12.3-4.3,18.1-7.5c-7.2,0-13.3,4.2-21.2,6c5-3.2,9.3-5.4,14.8-7.5c-9.5-1.5-17.9-3.2-24.7-10.1
		c2.1,0.2,3.8,0.4,5.4,0.6c10.9,1.7,21.2-0.9,31.2-5.1c15.6-6.6,32.1-7,48.6-7.4c9.4-0.2,16.1,3.4,19.5,9.8c-3-2.6-5.7-4.8-9.3-5.6
		c4.5,2.9,8.3,6.5,10.8,11.2c-7.6-8.1-8-8.3-34.1-11.8c1.7-0.5,3-0.8,4.3-1.2c-7.7-0.8-24.9,3-37.3,8.6c5.1-0.7,8.7-1.3,12.4-1.8
		c-13.1,4.5-26.5,7.1-41.6,6.5c13.3,4.4,25.5,4.2,37.8,1.1c5.9-1.5,11.8-2.8,17.9-3.2c1.3-0.1,2.6-0.6,4.3,0.8
		c-5.9,1-11.5,1.8-17.3,4.4c9.7,0.3,18.8,0.9,26.9,5.9c-1.8-0.3-3.8-1.2-5.4-0.8c-8.1,2.2-16.6-0.5-24.7,2.8
		c-8.2,3.3-15.8,7.6-23,12.7c-1.6,1.1-3.3,2-5.2,2.6c3.3-5.4,8.9-7.6,14.1-10.5c-10.4,2.4-19.1,7.9-26.4,15.4
		c-10.8,10.9-24.1,15.3-39.1,15.9c-2.1,0.1-4.2,0-5.8,0c5.8,4,14,4.4,30.5,1.4c-5.1,3.8-9.5,7.5-15.5,8.4c-6,0.9-11.4,3.3-16.9,6.9
		c3.3-0.7,5.9-2,9.2-2c-2.2,2.4-5.2,2.6-7.7,4.6c3.1-0.4,5.7-0.8,8.2-1.1c0.1,0.2,0.2,0.4,0.2,0.6c-1.4,0.7-2.8,1.5-4.2,2.1
		c-0.9,0.3-1.2,0.7-0.9,1.6c0.3,1.1,1,0.3,1.5,0.3c6.1,0,12-1.5,18.1-2.4C139.5,342.9,138.2,343.9,137,344.8
		C137,344.9,137,344.8,137,344.8z"/>
	<path d="M305.3,228c-4.2,0.9-8.4,1.7-12.5,2.7c-5.1,1.3-9.7,3.7-13.9,7c-7.5,6-7.5,6-17,8.2c0.9,2.4,4.2,3.6,3.6,7.3
		c-5.3-6.5-11.6-9.7-20.6-8.4c3.7,1.6,7.2,2.2,9.7,5c-9.5-2.6-18.7,0.3-28.1,1.1c5.9-2.6,11.8-4.3,18.3-4.3
		c-5.8-2-11.7,1.6-17.5-0.8c5.2-0.7,10.1-2,15.1-3.3c4.5-1.2,9.1-1.5,13.6,0.4c7.2,3,13.3,0.9,18.2-4.3
		C282.7,229.5,293.3,226.6,305.3,228z"/>
	<path d="M282,247.4c8.2-17.5,46.4-22.5,63.5-8.7C322.6,229.6,301.8,231.9,282,247.4z"/>
	<path d="M182.9,302.4c-8.1,9-20,12.2-27.6,22.3C158.2,315.2,173,303.4,182.9,302.4z"/>
	<path d="M223.7,254.8c-8.4,3.1-16.7,1.7-25.1-0.3c4.4,0.1,8.7,0.5,13.1,0c2.5-0.2,5.1-0.5,7.3-1.6
		C221.5,251.6,222.8,252.5,223.7,254.8z"/>
	<path d="M199.5,551.3c0.5,6.4,0.7,12.7-3.9,18C196.9,563.2,198.2,557.2,199.5,551.3z"/>
	<path d="M197.6,546.2c1.2,4.3,0.7,8.5-1.8,12.4C196.4,554.5,197,550.4,197.6,546.2z"/>
</g>
</svg>
