<?xml version="1.0" encoding="utf-8"?>
<!-- Generator: Adobe Illustrator 24.2.3, SVG Export Plug-In . SVG Version: 6.00 Build 0)  -->
<svg version="1.1" id="Layer_1" xmlns="http://www.w3.org/2000/svg" xmlns:xlink="http://www.w3.org/1999/xlink" x="0px" y="0px"
	 viewBox="0 0 595.3 841.9" style="enable-background:new 0 0 595.3 841.9; fill: #215342;" xml:space="preserve"
	 height="280" width="700" transform="translate(-265, -35)">
<g>
	<path d="M182.3,485c0.4-2.3,0.8-4.5,1.2-6.8C182.9,480.6,182.6,482.8,182.3,485z"/>
	<path d="M193.3,484.3c0.3-5,0.9-9.2,1.7-12.5C193.7,475.4,193.3,479.6,193.3,484.3z"/>
	<path d="M533.3,479.8c3.9-3.9,8.1-6.6,10.1-12c-4.1,2.4-7.7,4.5-12.3,4.6c1.3-2,2.4-3.5,4.5-6.6c-6.2,5.1-11.3,7.8-17.4,5.2
		c2.1-3.4-2.8-4.1-2-6.6c0.5-0.2,1.1-0.4,1.7-0.8c1.1-0.7,3.3-0.3,3.2-2.4c-0.1-2.6-2.2-1.2-3.4-1.5c-2.3-0.6-3.7-2-4.9-4.1
		c-4.7-8-3.2-16.8-3.8-25.9c-2,5.8-1,11.2-0.9,14.6c-0.5-1.9-5.8-2.7-5.3-8.1c-2.2,4.2-6.2-0.2-7.3,4c-2.3,8.2,1.3,15.3,3.9,22.7
		c0.4,1.1,1.9,1.6,2.7,2.3c4.2,3.6,10.8,1.4,14.2,6.4c0.9,1.2,3.4,2.1,2.5,3.5c-1.1,1.8-3.3,3-5.1,4.5c0.8,0.8,1.8,1.8,2.9,3.1
		c-5.8,0.7-8.5-3.7-12.2-6.1c0.2,0.8,0.4,1.7,0.9,3.5c-16.4-12.4-21.5-29.9-27.5-48.8c8,13.3,12.5,26.7,20.5,38.2
		c1.1,1.6,2.6,2.8,3.9,4.2c-2.8-5.2-4.9-11.1-8.2-15.8c-7.2-10.4-10.1-22.7-15.9-33.7c-1.4-2.8-4.1-6.5-3.4-8.9
		c1.3-4.1,1.6-8.2,0.6-11.8c-2.7-9.8-2.6-19.6-0.7-29.3c5.2-26.4,9.6-52.7,2.3-79.5c-0.3-1.1-0.6-2.3,1.3-3.4
		c1.3,3.3,2.5,6.5,3.8,9.7c-1.3-9.6-5.3-18.3-8.5-27.2c5,4.4,7.5,10.2,10.8,15.7c0.2-2.5-0.5-4.5-1-6.6c-3.3-12.6-10.8-22.7-19-32.4
		c-1.8-2.2-2.6-4,1.5-4.6c-4.6-6.5-6.2-13.8-9.1-22.5c7,6.6,8.2,14.7,13.3,20.3c-1.6-10.5-8.2-18-15.2-25.2c0.5,1.1,0.9,2.3,1.5,3.8
		c-7.8-0.9-11.3-6-13.9-12c0,0-0.2-0.1-0.2-0.1c-0.9-0.2-1.8-1.3-2.7,0.1c-0.9,1.3,0.3,1.9,0.7,2.8c4.9,9.7,7.6,20,8.3,30.9
		c-1.7-3-2.9-6.3-4.3-9.4c-1.5-3.3-2.9-6.7-4.8-9.8c-1.7-2.9-3.9-5.5-5.8-8.2c10.7,15.8,14.9,32.8,12.2,53c-2.8-5.5-3-10.5-6.6-14.4
		c-4.1,11.2-2.6,22.2,3.9,30.6c9.4,12,19.6,22.8,19.2,39.5c-0.1,6,1.5,12,0.2,20c-0.1-15.2-1.6-28-10-39c-0.7,4.4,1.9,7.8,3.7,11.3
		c4.2,8.4,5.1,17.3,4.4,26.6c1.2-15-9.1-26-13.2-39.3c1.6-1,2.8,0.2,4.2,0.7c-0.7-0.9-1.5-1.8-2.2-2.7c-1.8-2.3-3.7-4.7-5.5-7
		c-1.6,0.5-1.9,1.7-1.4,3.1c1.7,4.7,3,9.5,5.2,13.9c4.1,8.1,9.5,15.3,7.3,25.7c-1,4.7,0.3,10.6,2.1,15.7c2.8,8,3.3,16.4,3.7,27.1
		c-4.6-9.1-2-17.7-6.1-25.8c0.4,4.6,0.7,8.2,1.2,14.3c-9.8-17.5-23.5-27.3-38.2-36c-10.7-6.4-24.9-7.6-30.6-21.4
		c1,4.5,3.2,8.1,6.8,11.5c-6.3-1.4-12-2.7-17.7-3.9c-6.6-1.3-13.3-0.7-17.1,1.4c24.2-3,78.4,21,86.2,38.5c-6.4-4.2-12-9.2-19-11.6
		c1.4,1.4,2.9,2.6,4.5,3.7c15.5,9.9,25.6,24.3,32.3,40.9c14.4,35.5,18.7,72.4,12.4,110.2c-1.5,9.1-3.5,18.2-7.2,26.7
		c2.6-21.7,6.6-43.1,5.7-65c-0.8-21.4-12.6-53.6-24.1-61.9c10.7,16.3,17.4,31.8,20.5,48.8c3.4,18.5,1.4,43.4-5,50.1
		c0.4-21.7-4-42.1-15.1-60.9c13.4,39.8,7.7,75.7-20.9,107.1c5.1-15.3,10.3-30.8,15.5-46.3c-5.2,11.9-12.2,22.5-20.6,32.2
		c-0.8,0.9-1.3,2.8-2.9,1.8c-1.6-0.9-0.2-2.4,0.1-3.5c2.8-7.6,5.8-15.1,8.7-22.6c5.6-14.1,10-28.5,10.4-43.8
		c-2.1,23.4-13.8,43.4-22.6,64.5c1.2-4,2.4-8,3.6-12c-0.3-0.1-0.5-0.1-0.8-0.2c-1.5,5.1-3,10.1-4.5,15.2c2.4-19.8,5.8-39.2,13-57.8
		c4.6-11.8,6.5-24.3,1.9-36.8c6.2,28.8-11.9,52.5-16.6,79c2.8-26.5,16.6-51.7,8.5-79.4c4,19.9,0.1,38.9-6.9,58.5
		c-0.9-4,0.5-7.2-1.9-11.3c-3.4,15.8-10.3,28.7-22,41.3c5.8-12.8,11.9-23.4,13.3-35.7c1.7-14.2,0.7-30.3-2.2-35.5
		c3.4,26.4-3.1,52.4-16.3,66.1c13.4-29.1,11.3-58.4-0.6-87.5c2.4,7.2,4.9,14.7,5.7,22.6c0.7,7.9-0.6,15.6-1.5,23.4
		c-1,9-4.1,18.9-6.8,22.1c5.5-19.6,5.5-47,0-55.6c5.8,25.1,3.1,53.1-6.6,64.5c3.9-15.5,4.7-30.6,4.8-45.9c0.1-11-3.6-19.8-12.8-27.9
		c7.3,10.2,10.8,20.3,9.3,31.9c-2.6-6.9-5.5-13.3-10.4-18.6c3.4,7.8,8.1,15.1,7.2,25.6c-2.4-5.8-4.2-10.3-6.1-14.8
		c1.4,6.5,4.7,12.6,3,20.2c-1.7-5-3.3-9.6-4.9-14.2c1.4,7.1,1.6,8.5,0.7,12.4c-2.8-7.1-5.4-14-11.3-20.2c1.1,4.6,3.5,7.9,3.2,12.9
		c-1.6-3.1-2.7-5.4-4-7.7c-1.2-2.1-2.6-4.2-3.9-6.2c2.5,9.1,7.5,17.3,6.4,28.3c-1.2-4.4-2.1-7.7-3-11c1.6,7.5,1.9,15.1,2.2,23.4
		c-9.9-14.7-16.7-29.8-22.2-45.6c-1.2-3.4-0.5-5.2,3.1-6.3c8.1-2.6,15.5-6.9,22.4-11.9c3.7-2.7,7.2-6.4,7.2-10.7
		c0-5.3,3.1-7.2,6.6-9c1.6-0.8,2.3-1.8,3.2-3.1c13.3-19.6,4-52.6-18.1-61.1c-21.5-8.3-43.8-7.3-65.4-1.1
		c-27.4,7.9-34.4,24.3-26.4,51.9c2.8,9.9,12.5,16.6,15,27.1c0.5,2.2,3.9,2.2,4.2,4.8c3.6-0.3,3.4,2.2,3,4.4c-0.4,2.6-1,5.2-1.8,9.5
		c3-4.4,2.6-7.8,3.6-11.5c5.8,4.4,11.9,7.6,18.5,10.5c-0.7,1.4-1.3,2.5-1.9,3.8c2-0.2,2.4-4.1,4.3-2.6c2,1.6,0.4,4.2-0.4,6.1
		c-5.4,13.7-13,26.5-16.2,41c-0.3,1.5-0.6,3-1.1,5.5c-1.2-10,2.5-18.4,3.2-27.1c-3.4,5.6-3.8,11.9-4.4,18.8
		c-3.3-11.3-0.1-21.1,3.8-30.8c-1.7,2.8-2.6,6.8-5.1,8.1c-9.7,5.3-7.4,15.4-10.3,23.3c-1,2.7-0.8,5.9-1.3,9.7
		c-3.7-16.8,2.4-30.6,8.8-44.5c-5.4,7.3-8.7,15.5-11,26.6v-4.9c-7.4-2.9-0.3-7.8-2.3-11.5c-1.9,4.5-3.7,9-5.8,14.1
		c-0.8-7.4,1.5-13.5,3.7-19.7c-0.6-0.3-0.4-0.2-1-0.4c-5.5,10.9-7.1,22.6-6,34.8c-2.3-7.4-2.1-14.9-2.2-22.4
		c-2.3,10.5-1.2,21,0,31.5c-3-11.6-5-23.3-4.5-35.3c-1.7,6.6-1.4,13.3-2,19.9c-0.7-5.2-1.4-10.5-2.3-17.6c-0.6,4.9-1,7.9-1.4,11.1
		c-1.6-6.3-0.8-12.5-0.3-19.8c-0.7,1.5-0.9,1.9-1.1,2.3c0,0-0.2,0-0.4,0c-0.4-6.2,2-11.9,3.9-17.7c-4.7,7.1-6.8,15.2-8.4,24.5
		c-0.7-11.1,1.1-20.5,5.3-29.6c-3.7,4.3-5.5,9.4-6.3,14.8c-0.8,5.4-1.3,10.8-2,16.9c-2.7-14.1-0.1-27.3,1.5-41.3
		c-7.8,20-4.8,39.2-0.2,59.2c0.9-2.7-1.3-4.7,0.2-6.8c1.9,7.7,3.9,15.2,5.8,22.7c-0.6-0.7-1.3-1.4-2.2-2.5c2.5,9,7,16.5,11.2,24.3
		c-10.6-11.5-17.9-25-24.3-39c1.1,4.2,2.4,8.3,4.3,12.1c1.9,3.9,4.2,7.5,6.5,11.2c2.2,3.5,4.5,6.9,6.7,10.4
		c-10.8-8.3-26.6-29.9-25-67.6c-2.6,20-0.5,36.8,8.3,52.6c4.6,8.2,3.1,18.1,6.7,26.7c-5.9-9.4-11.6-18.9-16.5-28.7
		c-3.1-6.2-4.1-13.1-4.5-20.1c-0.6-9.8-0.3-19.5,0.5-29.3c-4.2,14.9-2.1,30.2-3.8,45.3v-25.5c-1.5,18-1.7,36-4,54
		c-1,8-9.6,22.9-15.8,25.6c11.4-22.5,13.6-43.8,6.1-68c3.1,18.4,5.5,34.7,0.2,50.8c2.7-13.5,0-26.4-3.6-39.4
		c-1.2,13.9,1.2,28-4.8,41.4c0.9-21.7-5.8-43.3-6-59.6c-0.8,11.9,0,27.9,2.2,43.9c-0.8-2.8-1.6-5.5-2.4-8.3
		c-0.3,0.1-0.5,0.1-0.8,0.2c1.4,5.6,2.7,11.2,4.5,18.3c-9.1-17.7-16.8-34.5-14.5-53.3c-0.4,2.3-0.8,4.6-1.2,6.9
		c-7.2-46.8,6.9-86.4,40.6-119.3c-38.3,30.8-43.9,75.6-51.3,121.7c-2.3-17.8,1.9-33,5.7-50.3c-5.4,7.3-8.3,13.2-10.4,19.5
		c-2.1,6.3-3.7,12.7-4.8,19.3c-1.1,6.6-1.8,13.2-0.9,19.9c0.9,6.4,1.8,12.8,2.7,19.2c-16.7-61.1-4.4-115.7,34.6-162.2
		c-7.7,5-20.8,6.3-30.1,15c22.7-21.6,48.9-38.1,76.3-52.2c-0.9,0.1-2.3,0.2-4,0.4c3.2-3.1,7.1-2.7,10.9-3.7c-3-0.6-6-1.2-9.6-1.9
		c6.5-2.8,12.9-1.6,20.7-1.9c-12.5-5.1-23-1.9-33.6,0c13-5,26.3-7.3,40.2-6.6c-7.8-3.3-15.7-0.8-24.8-0.4
		c7.4-10.5,17.9-11,28.8-12.3c-10.1-3.4-18,1.7-26.9,5.8c1.3-4.7,2.1-7.9,3-11.1c-1.8,2.9-2.6,6.3-4.3,9.1c-1.6,2.6,1.5,7.2-3.5,8.7
		c-0.6-13.3,5.4-23.2,14.2-31.4c9.1-8.5,20.3-11.7,32.8-9.5c-6.7-2.5-13.6-1.6-21.3-1.2c3-1.9,5.2-3.4,7.6-4.9
		c-1.6,0.2-3,0.4-4.8,0.7c1.3-1.8,2.2-3,3.7-5c-3.9,2.2-6.8,3.9-10.6,6c2.8-4.6,7.6-6.1,9.3-11.1c-2.2,2.1-4,3.8-5.7,5.4
		c4.6-8.8,12.9-14.5,16.9-23.7c5.3-11.9,5.6-11.7,5.7-26.3c-1.6,4.9-3.5,8.7-8,12.7c3.5-13.4,6.5-25.5-3.9-35.8
		c6.7,8.6,8.1,17.8,3.3,28.9c-1-3.1-1.7-5.2-3.1-9.4c0.4,6,2.6,9.6,0.3,13.4c-3.2-15.1-8.8-26.9-15.8-32.9c2.7,4.4,4.8,8.5,4.7,13.2
		c0,1.4,0.7,3.2-1.4,3.5c-1.9,0.2-2.3-1.3-2.9-3c-3.5-10.1-9.1-18.3-20.4-21c5.5,2.5,10.4,5.7,14.1,11.3c-4.9-1.1-5.6,0.6-4.1,4.7
		c3.5,9.4,4.1,19.2,4.5,31.7c-2-5.1-3.1-3.7-4.1-2c-1.9-3.2-2.5-6.8-5.5-9.4c0,2.5,2.7,4.1,1.7,7.1c-3.7-4.8-6.7-9.7-12.3-11.9
		c4,3.3,7.6,6.8,10.3,13.1c-7.8-9.4-18.6-14.4-26.5-12.9c9.2,2.3,19.1,3.2,23,15.5c-2.8-1.2-4.3-1.9-6.2-2.7
		c0.6,1.7,2.4,2.2,1.5,3.9c-2.5,1.2-4.3-1.4-7-1.3c0.6,0.8,1.1,1.4,1.5,1.9c-8.8,3.4-16.2,8.1-21,16.3h4.3
		c-8.1,2.9-6.4,9.9-9.6,14.3c-0.5,0.7-1.4,5.7,0.1,7.4c2.8,3.1,2.2,6.4,2.1,9.8c-0.1,5.6-4.2,9-7.3,12.9c-0.8,1-1.7,2.2-0.9,3.5
		c0.6,1,1.6,0.6,2.4,0.1c2.1-1.3,3.9-0.7,4.9,1.4c1.1,2.4-0.8,3.5-2.5,4.1c-6.6,2.5-11.6,7.2-17.4,11.8c1.7-0.3,2.9-0.4,6-0.9
		c-9.9,10-19,18.7-24.8,32c7.8-9,12.3-18.9,22.5-22.9c1.5,2.2-4.5,4.9,0.7,5.9c5.7,1.2,7.6,4.1,5.4,9.8c-2.6,6.6-8,11.6-10.7,18.1
		c-1.9,4.6-4.1,8.3-8.6,11.2c-14.8,9.3-21.3,23.2-20.5,40.5c0.3,5.9-1.1,11.3-3.1,18.2c-0.4-21.5,4.1-40.5,11.4-59.2
		c-1.9,2.5-3.9,5-6.6,8.5c0.1-7.5,1.3-13.3,4.1-18.7c-13.1,9.3-9.5,25.1-14.4,37.7c4.3-15.8,0.3-32.7,6.7-48.2
		c6.2-15.3,15.3-28.6,26.6-40.5c-0.5-0.5-1-1-1.6-1.5c7.2-7,15.1-13.5,16.7-24.9c-2.5,2.2-2,6-5.4,8c0.5-3.4,0.9-6.2,1.4-9.1
		c-0.5-0.1-0.3-0.1-0.8-0.2c-0.7,2.5-1.3,5.1-2.1,8.3c-2.6-6.1,0.3-11,1.3-16.2c-2.3,4.7-5.6,9-4.9,14.8c-3.9-7.9-7.5-15.1-8.2-24.6
		c-1.9-23.5,1.2-45,15.9-64c2.9-3.8,7-6.8,7.5-12.1l-0.3-0.2c-5.5,6.3-11,12.5-17.7,20.1c5.1-11.3,9.5-21.1,14.2-31.5
		c-24.7,0.3-49.3,0.1-73.8-0.3c0.1,1.5,0.2,3,0.2,4.4c0,0.3,0,0.6,0,0.9c0.1,14.6,0.3,29.3,0.6,43.9c0.1,4.8,1.3,10.1-3,13.1
		c0,0.1,0,0.1,0,0.2c13.9-6.1,26.5-14.9,43-19.7c-5.6,4.5-9.5,7.6-14.1,11.3c2-0.2,3.1-0.3,4.2-0.3c2.2,0,5-3,6.3-0.1
		c1.2,2.6-1.9,4.1-3.8,5.6c-1,0.8-2,1.5-3.1,2.2c-4,2.4-7.7,5-10.2,9c4.1-2.5,7.7-5.7,13.5-6.4c-7.4,8.4-12.6,17.5-18.8,26.3
		c1.9,0.4,2.9-1.4,4.8,0.4c-6.1,7.4-14,13.5-18.8,22.6c1.3-0.8,2.3-1.5,4.1-2.6c-3.6,13.2-3.6,26-5.6,38.7
		c5.2-7.8,6.2-17.4,11.3-25.2c5.2-8.1,11.5-15.1,20.4-22.9c-6.6,13.8-12.8,25.1-17.5,37.1c-4.8,11.9-9,24.1-10.4,37
		c1.5-4.4,2.6-8.9,3.9-13.4c1.3-4.4,2.7-8.7,4-13c-6.1,23.3,1.3,46.2,1.6,69.2c0.5-4.3,1-8.5,1.7-13.7c3.2,8-8.9,63-14.7,69.2
		c0.4-5.9,1.5-11.6-0.2-19.1v10.7c-1.8-2.3-2.2-1.2-2.5,0.4c-1.1,6-3.6,11.4-6.1,16.9c-11.5,25.2-29.4,42.3-57.9,46.1
		c-7.2,1-13.9-0.1-21.5-4.9c29.9,3.7,53.3-13.1,61.3-31.6c-3.7,5.1-6.1,8.6-8.7,12c-1.2,1.5-2.7,4.1-5,2.1c-1.9-1.7-0.1-3.9,1.2-5.1
		c7.6-6.8,11.1-16,15.6-24.7c1.1-2.1,2.2-4.3,1.3-7.7c-2.7,7.3-5.9,13.5-11.1,21.2c2.8-11.8,5.1-21.5,5-31.8
		c-7.2,3.2-1.2,14.4-10.7,16.3c0.9-4.4,1.7-8.5,2.8-13.9c-2.8,3-4.7,5-8,8.7c1.8-8.4,4.4-14.4,4.9-21.2c1-14,2.4-28.1,4.1-42.1
		c0.3-2.6,0.7-5.1,1-7.7c-1.7-0.2-0.8,2.2-2.7,1.5c-1.3-5.5,1.6-11.1,0-16.9c-2-7.2-2-14.8-2.1-22.3c0-0.7-0.5-1.6-1-2
		c-1.2-0.8-1.9,0.4-2.6,1c-8.8,8.4-10.9,19.9-14.6,31.5c5.7-2.9,4.4-9.8,9.9-13.5c-2.5,9.4-0.1,18.5-6.8,25.6c3-2.2,3.9-0.4,4,1.9
		c0,1.8-0.6,3.6-1.2,5.3c-4.1,13.7-11.8,27-3.5,41.7c0.2,0.3,0.1,0.8-0.1,1.1c-3.4,7-1.1,14.1-0.4,21.2c-0.1,0.3-0.1,0.6-0.2,0.9
		c2.8-2.6-0.6-6.1,1.4-9.4c0.4,8.2,0.7,15.7,1.1,24c1.1-0.9,1.5-1.3,1.9-1.5c0.3-0.2,0.7-0.2,1.3-0.4c-8.4,21.5-31.5,27.8-52.7,14.8
		c0,0,0,0,0,0c-0.9-1.5-1.9-3.1-3.2-5.1c0.7,22.3,21.8,37.9,44.3,33.5c27.6-5.5,45-22.8,55.8-47.8c0.9-2,1.8-4,2.6-6
		c0.5,0.2,0.4,0.1,0.9,0.3c-0.5,2.4-1,4.8-1.7,8.2c2-2.8,3.4-4.7,5.7-7.8c0,0,3.7,258.7,3.2,259.9c6.9,0.1,13.7,0,20.6-0.3
		c7.3-0.4,12.4,1,18,6.1c10.9,10.2,21.5,9.3,29-2.5c4.9-7.8,6.9-6,11.6-0.1c10.6,13.4,23.5,13.5,34.4,0.8c3.2-3.7,6.4-4.9,11-4.9
		c35.3-0.1,70.6,0,105.9-1.1c11.1-0.3,18.1,3.5,24.2,12c6.3,8.8,12,9,19.6,1.2c3.2-3.2,5.8-6.9,9.1-10.9c2.1,3,3.9,5.5,5.7,8.1
		c6.3,9.1,11.2,10.5,21.4,6.4c6.8-2.7,11.7-7.7,15.8-13.6c0.8-1.2,1.4-2.1,3.3-2.1c9.4-0.1,18.8-0.8,28.2-0.9
		c4.3-0.1,8.5-0.1,12.8-0.1c0-1.4,0.1-2.9,0.3-4.3c-0.2-0.9-0.1-2,0.1-3.1c0-0.9,0.1-1.8,0.2-2.7c-1-62.8-1.3-125.7-3.4-188.5
		c-0.3-8.3,0-16.6,0-25.1c2.1,1.2,3.3,2.1,4.2,3c3.8,3.5,8.3,6.2,13.4,7.4c15.7,3.8,27.1-6.1,31.3-15.5
		C541.8,476.7,539.4,480.6,533.3,479.8z M350.5,362.1c3.6,0.2,6.1,1.9,7.6,4.9c0.6,1.2-0.3,1.9-1.6,1.9
		C352,369.2,350.2,367,350.5,362.1z M359.7,371.8l-3,0.9c3.2-0.3,5.4,0.6,7.6,1.6c1.3,0.7,3.7,1,3,2.9c-0.8,2.3-2.9,0.8-4.3,0.3
		c-4.7-1.6-9.3-3.3-13.9-5.6C352.5,372.1,355.9,372.8,359.7,371.8z M271.7,391.9c2,6.1,4,12.2,6,18.1c-7.5-5.4-10-23.4-4.8-37.6
		c0.7,1.6,1.2,3,1.8,4.4c1.4-0.6,2.8-1.1,5.2-2C276.1,380.6,269.2,384.2,271.7,391.9z M239.5,272.2c-6.7-2.3-8.5-10-3.2-16.2
		c0.6,5.1,1.1,10,7.5,10.5C242.3,269.1,239.1,269.2,239.5,272.2z M247.6,255.8c-1.8,0.2-3.9-1.1-3.7-2.6c0.3-2.5,3.1-2.7,5.2-3
		c1.7-0.2,3.4,0.4,3.8,2.8C251.6,254.8,249.6,255.6,247.6,255.8z M220.9,258.2c2.1-8.1,5.8-15.1,13.3-19.5
		c10.9-6.3,24.1,0.9,25.2,14c-5.2-8-11-14.8-21.6-11.2c-7.6,2.6-11.2,10.2-10.1,19.6c1.1,9.2,5.7,13.7,15.7,15.2
		c-5.2,2.5-14.2,0.9-19.4-3.7C219.5,268.6,219.5,263.5,220.9,258.2z M179.7,298c-3.3,4.2-6.6,8.5-10,12.7
		C172.1,305.8,175.8,301.8,179.7,298z M72.3,448.7c-0.3-7.7-4.3-16.1,4-22c1.4,2.8,1.4,11.5,0,13c-1.2,1.3-1.4-1.2-2.3-0.7
		C73.4,442.3,72.8,445.5,72.3,448.7z M20.7,468.5c6.1,9.5,18.2,13.2,29.8,8.7c11.8-4.5,20.7-12.4,26.5-24c1.3,5-5.6,17-13.5,23.6
		c-11.5,9.7-23.4,10.1-36.7-1.4c3.6,6.1,9.8,9.7,19.5,12.6C34.3,489.3,21.8,479.8,20.7,468.5z M402.9,520.8c1.2,5,2.3,9.9,3.4,14.8
		C397,532.2,396.9,531.6,402.9,520.8z M391.4,537.7c2.4-0.4,2,2.4,3.8,3.2c0.9-1.7-1.9-3.7,0.2-4.8c2.2-1.2,4.7,0.2,6.7,1.1
		c5.3,2.5,7.4,7.6,9.4,12.7c-3.7-4.1-7.6-7.7-15.2-7.4c2.8,2.6,5.1,4.2,6.6,6.2c1.5,2.1,2,4.7,1.9,7.9c-4.7-4.6-9.7-7.3-16.1-6.2
		c7.9,2.7,16,5,16,16.3c-3.1-5-7.4-6.9-14.7-7.8c14.4,7.5,16.2,19.7,17.9,32.1c-3.7-7.3-7-15-17.2-18.1c5.9,10.8,10.3,21.1,8.4,34.7
		c-1.5-8.5-4.5-14.5-10.1-18.9c2.7,5.7,6.6,10.9,7.5,18.3c-2.9-3.7-4.7-7.4-9.1-10.5c4.3,8.2,5.2,15.9,4.6,24.9
		c-1.7-3.6-3.1-6.4-4.8-10c-0.2,6.7,0.4,12.7-2.7,19.7c-1.1-5.4-1.9-9.4-2.8-14.1c-2.9,10.3-5.5,20-8.2,29.6c-0.7-3.3-1.4-6.2-4-8.9
		c0.8,13-1.7,25.2-7,36.8c1.4-8.5,2.8-16.9,4.1-25.4c0.6-4,1-8-1.2-11.8c-1.2-2,0-3.8,1.1-5.4c14.5-20.9,19.9-44.5,21.1-69.4
		c0.1-2.8-0.5-5.4-2.2-7.7c-0.8-1.2-1.5-2.4-2.1-3.7C382.9,550,390.3,537.9,391.4,537.7z M333.2,449.2c1.5,5.2,3.1,10.3,5.3,17.7
		C333.2,460.4,331.7,455.3,333.2,449.2z M329.8,451.2c1.7,8.5,5.3,16.1,10.1,23.4c2.5,3.8,0.7,9.1,0.6,14.9
		C336.7,476,329.3,464.7,329.8,451.2z M303.6,356.5c-4.5,3.5-8.7,6.7-14,8.1c-2.9,0.8-3.8-0.4-2.6-3c1.1-2.3,0.5-3.4-2-3.7
		C290.7,351.6,296.9,354.8,303.6,356.5z M284.2,379.2c5.6-8.1,31.7-12.7,42.1-6.9C311.2,373.5,297.6,373.1,284.2,379.2z
		 M309.8,463.5c2.1-3.7,3.2-8,4.7-12c0.4-1.1,0.4-3,2.3-2.4c1.5,0.5,0.8,1.9,0.7,3.1c-1,7.3-6.5,13.1-7.4,21.5
		c3.3-8.7,8.4-15.6,9.3-24.7c2.6,3.1,2.5,6-0.3,12.9c-1.6,4-3.6,7.8-5.6,11.6c-2.2,3.9-3.8,7.9-4.7,12.3
		C307.4,478.4,305.7,471,309.8,463.5z M253.5,510c5,9,10.6,17.7,17.4,25.5C263.4,528.2,256.4,520.5,253.5,510z M264.1,600.7
		c0.1,10.7-6.6,19.1-4.9,29.7C254.3,621.6,256.6,606.6,264.1,600.7z M258.9,583.5c-2,9.3-2.9,17.9-3.3,28.7
		C250.7,599.8,252.1,588.4,258.9,583.5z M256.3,575.7c-5.7,7.3-8.6,14.9-12.3,22.3C241.9,590.7,248.7,577.1,256.3,575.7z
		 M238.5,588.9c0.3-8.1,3.1-13.3,8.1-17.6C244.2,576.6,241.7,581.9,238.5,588.9z M251.6,557.8c-1,1.5-1.9,2.6-3.2,4.5
		c1.4-0.6,2.1-1,2.9-1.2c0,0,0.2,0.4,0.5,0.8c-3.7,2.7-6.9,5.9-10,10C241,564,244.5,559.1,251.6,557.8z M248,548.9
		c-3.8,6.3-10.7,9.3-14,15.7c-0.4-6.6,1-12.7,4.9-17.8C243.3,540.8,244.7,548,248,548.9z M230.1,526.6c9.7,7.7,10.2,15.9,1.2,20.9
		c-1.8-3,1.7-4.7,1-7.7c-4.3,0.4-5.2,4.5-8.1,7.3C224.4,539.2,227.6,533,230.1,526.6z M200.1,632.8c-3.3-3.4-5.6-7.8-10.1-10
		c-2.5-3-6.5-4.6-8.3-9.3C191.6,617,196.3,624.5,200.1,632.8z M177.4,494.6c2,7,3.3,11.9,4.7,16.8c5.2,10.3,9.9,20.8,13.1,31.9
		c-6.5-9.8-11.3-20.2-13.1-31.9c-0.7,9.9-8.3,18.1-7.4,28.5C172.7,525.4,176,511.2,177.4,494.6z M170.6,541.6
		c7.3,10.2,1.6,17.9-15.2,20.4C163.3,556.8,166.7,549.3,170.6,541.6z M171.3,556.5c-4.6,11.6-23.1,24.9-26.7,20.7
		C153.3,571.3,162.6,566.1,171.3,556.5z M162.5,571.4c-0.6,10.7-6.9,18.9-13.3,17.8c0.6-1.1,1.1-2,2-3.6c-5.8-0.6-11.4,1.5-18.5-1.1
		C144.9,583.2,154.5,579.8,162.5,571.4z M261.8,660.6c-2.5-1.2-5.1-2.4-9.8-4.5c4.9,5.8,8,10.2,9.6,16.6c-2.7-2.5-4.7-4.3-6.6-6
		c3.8,7.4,9.3,14.3,4.4,23.8c-2.8-3.7-0.4-8.1-4-11.5c3.3,10.4-1.9,16.2-10.5,20.3c2.2-12.3,2.1-24.9-2.8-39.2
		c0,20.5,3.8,40-13.7,56.1c0.8-8,2.8-14.2-1.9-20.2c-4.2,5.6-3,11.7-3.1,17.5c-8.7-1.4-14.4-6.9-15-15.6c-0.2,2.3-0.3,3.4-0.5,5.7
		c-9.3-13.3-4.1-27.2-4.6-40.5l0.1,0.1c-2.9-7.3-5-15-10.4-20.9c12.5,23.3,8,45.5-4.5,67.2c-0.1-3.4,1.6-6.7,0.2-10.8
		c-4,2.5-5.4,6.4-6.3,10.3c-0.9,4-2.7,4.5-6,3c-8.4-3.8-15-9-16-19.1v6c-5.2-9.2-6.1-18.6-10.7-28.6c0.5,9.5,4.7,17.9-2.5,25.5
		c0.5-4.4,0.9-8.2,1.3-12c-0.2,0-0.4-0.1-0.6-0.1c-0.8,2.3-1.3,4.6-2.3,6.8c-1.1,2.2,0.3,6.4-4.4,6.1c-6.3-0.4-10.5-2.2-9.6-10.1
		c0.7-6.2-1.5-12.9,5.6-19.7c-3.7,1.5-5,2-6.3,2.5c-1.3-3.1,4.3-4.4,1.7-8.2c-3.1-4.6-1.9-9.2,1.8-13.6c4.3-5.1,3.9-5.4,12.9-8.6
		c-2.4-0.6-4.1-1-7.2-1.8c5.8-0.8,10.3-1.3,15.5-2c-5.1-2.1-9.6,0-14.8-0.9c7.2-3.1,14.2-2.7,21.7-4.6c-2.1-0.7-3.3-1-5.1-1.6
		c4.1-1.2,8.1,0.1,12-2.2c-3.5-2.4-7.1-0.6-10-1.5c6.2-2.8,11.3-10.8,21.5-3.6c-3.7-5.5-8-5.9-11.3-8.9c9.2,0.2,13.7,7.8,20.5,11.1
		c4.1,4.1,7.8,8.6,10.4,14.1c1.8-0.7,3.5-1.3,6.4-2.4h-5.6c4.9-6,9.4-11.1,17.4-14.2c-1.1,2-1.5,2.7-2.3,4.1
		c18.4-1.2,24.9,13.8,34.1,24.5c4-0.6,5.6-4.2,9-5.8c0.5,2.2,0.8,4.4,3.6,5.2c-2.5,0.9-5.1,1.9-9.6,3.5c4.4,0.5,7,0.7,10.6,1.1
		C258.7,654.9,263.5,657.9,261.8,660.6z M269.2,631.2c-3.9,3.9-3.8,9.5-5.2,14.7c-5.5-9-4-28.1,3.5-37.9c-0.8,8-1.5,15-2.1,21.9
		c0.4,0,0.8,0.1,1.2,0.1l4-10.8c0.2,0,0.5,0.1,0.7,0.1c-0.3,2.6-0.6,5.2-0.9,7.8l0.6,0.1c0.6-1.7,1.1-3.3,1.9-5.6
		c1.3,5.3-0.9,9.6-1.3,14.4C269.9,634.5,271.6,632.3,269.2,631.2z M274.2,649.1c-2.8-8.3-0.2-15.5,1.6-22.7c0-0.1,0.3-0.1,0.3-0.2
		C276.3,633.7,276.1,641,274.2,649.1z M277.4,649.6c0.4-6.6-0.4-13.5,2.6-19.7C281.3,636.8,280,643.3,277.4,649.6z M281.1,617.1
		c-8.7-17.4-11.5-36.2-12.4-55.4c-0.1-3.1,0.8-6,2.7-8.4c7.4-9.6,10.8-20.7,12.8-32.5c0.4-2.4,0.9-4.9,3.9-6c1.3,3-2.1,5.2-0.5,10
		c0.3-5.6,4.8-8.4,2.6-14.2c0.5-0.8,1.6-2.8,3-5.1c1.4,1.8,2.5,3.3,4.8,6.3c1.3-8.3,8-12.9,8.5-20.8c1.2,5.8,1.1,11.7,4.6,17.2
		c0.5-1.2,0.8-2,1.4-3.4c1.1,1.8,1.9,3.1,3.7,6c-0.6-3.6-0.9-5.5-1.3-7.4c1.1,2,1.9,4.2,4.5,3.2c4.6,29.3,5,58.7,6.5,88
		c0.8-26.4,1.7-52.8-1.1-80.1c2.2,1,3,1.3,4.1,1.7c-0.3-1.1-0.6-2-1-3.7c1.8,0.9,3,1.5,4.6,2.3c-0.3-2.7-1-5.5,3.4-5.1
		c-0.6-1.1-1-1.9-1.4-2.7c-1.1-1.8-2.7-3.7-1-5.7c1.9-2.1,3.8,0.1,5.1,1.1c3.8,2.8,6.2,4.1,5.8-2.5c-0.1-1.7,1-3.2,2.9-4.1
		c1.2,2.8,2.4,5.5,3.5,8.1c0.3-0.1,0.6-0.2,0.9-0.3c-0.5-2.3-1.1-4.6-1.6-6.9c0.3-0.1,0.5-0.3,0.8-0.4c2.6,5.2,5.1,10.4,8.3,16.9
		c0.2-2.5,0.3-3.5,0.4-4.7c1.1,0.9,2.1,1.7,4.3,3.5c-2.8-5.1-3.2-8.9-2.2-13.4c3.9,2.6,3.6,6.4,3.6,9.9c-0.2,15.1,3.3,29.4,13,41
		c6.9,8.2,6.4,16.3,5,25.6c-2.1,13.8-4.5,27.6-10.5,40.4c-8.9,18.7-23.7,29.8-44.4,30.3C307,646.2,290.8,636.3,281.1,617.1z
		 M294.8,643.1c-0.1,1-0.3,2.1-0.5,3.8c1.1-0.9,1.8-1.4,3.5-2.9c-1.6,6.4-2.9,11.6-4.8,18.9C291.9,654.5,291.9,648.6,294.8,643.1z
		 M301.9,657.8c-1.5,6.3-1.1,12.6-1.3,19c-2.3-6.4-4-12.9-2.9-19.7c0.3-1.6,0.6-4.4,3.2-3.9C304.1,653.7,302.2,656.3,301.9,657.8z
		 M313.5,681.4c-2.3-8-4.3-15.9-0.1-25.1C316.2,665.4,314.2,673.4,313.5,681.4z M345,660.7c-1.1-1.7-1.8-2.9-3.6-5.7
		c1,8.9,0.3,15.7-3.9,24.2c0.8-4.2,1.1-6.2,1.5-8.2c-2.1,4.4-2.7,9.5-6.3,12.9v-25.2c-2.5,11.9,0.3,25.2-9.2,36.7
		c-0.3-7.9,4.6-13.3,4.3-20.7c-1.9,5.4-2.5,10.5-5.6,15.4c-3.4-10-1.7-19.5-0.5-29.8c-3.1,5.9-2.3,12-5.1,18.9
		c-0.6-7.4-1-13.1,0.7-18.6c0.9-3,4.1-2.2,6.4-2.8c4-1,8.6-0.8,11.2-5c2.2-3.5,6.8-0.3,9.7-3.5c1.3,3.4,2.6,6.7,3.7,9.6
		C347.2,661.1,345,656.5,345,660.7z M349,683.7c1.5-7.7,5.2-13.6,5.7-20.5c0.5-6.5-3.9-13.2,0.3-20.2c3.7,6.9,3.4,13.4,2.7,20.2
		c1-2.2,2-4.5,3.6-7.9C361.8,667.3,356,675.1,349,683.7z M410.7,667.1c-2.9,7.2,0.1,14.4-0.9,21.6c-1.4,10.2-3.2,19.8-13,26.4
		c0.9-6.5,4.4-13-2.6-18.1c-3.7,6-3.1,12.8-4.2,19.3c-7.4-3.1-14.4-24.1-12.2-36.4c2.3-13.3,4.6-26.5,19.8-32
		c-5.7,0.7-9.5,4.4-13.7,7.4c0.9-10.2,13.7-17.7,28.7-17c-10.1-6.1-22.2-2.7-29.4,10.1c-8.7,15.4-10.5,32.4-8.4,49.9
		c0.1,0.9,0.4,1.7,0.6,2.7c-5.7-3.2-11.1-6.2-8.3-14.8c-2.9,2.5-2.6,4.9-3.1,7.2c-3.6-0.9-4.6-3.4-3.2-6.2
		c7.3-14,8.2-30.5,19.3-43.4c10.2-11.8,17.5-16.2,32.9-12.3c5.7,1.4,9,3.7,6.3,10.3c-3.7,8.8-7,17.8-10.5,26.8
		C409.2,668.1,409.9,667.6,410.7,667.1z M493.2,682c-2-2.3-3.9-4.4-5.7-6.6c4.3,5.4,5.1,11.5,4.1,18c-0.2,1.5,0.7,3.9-1.9,4
		c-2.5,0.1-2.1-2.1-2.6-3.7c-0.4-1.2-0.8-2.4-1.4-4c-1.8,2.7,2.7,6.6-1.4,7.8c-4.2,1.3-5.7-2.1-6.8-5.5c0.1,0.9,0.3,1.7,0.3,2.5
		c0,0.9,0,2.1-0.6,2.5c-1,0.7-2,0.4-2.3-1c-0.5-2.4-1.1-4.8-2.4-7.1v9.8c-1.2-4.9-0.4-7.7-2-10c-1.5,2.5-1.8,5.8-4.8,8.3
		c0.5-5.5,0.9-10.5,1.3-15.4c-0.2-0.1-0.4-0.1-0.6-0.2c-0.8,2.2-1.6,4.4-2.4,6.5c1.8-7-0.1-13.8-0.6-21.2c-3.6,3.3-3.4,7.6-4.5,11.3
		c-3.3,11.6-4.8,24-14.5,32.7c-4,3.6-8.5,5.9-14.3,6.5c-0.1-5-0.2-9.8-2.9-14.1c-0.9-1.4-2-2.5-3.8-2c-2.2,0.5-1.4,2.3-1.2,3.5
		c0.6,3.5,1.5,7,2.5,11.2c-6.2-5.9-9.2-12.7-10.3-20.4c-1.3-9.2-1.4-18.5-0.8-27.8c0.8-11.5,7.8-18.6,19.1-23.5
		c-2.5-0.4-3.5-0.6-4.8-0.8c1.1-3.6,4.2-5.6,6.1-8.1c-3.6-6.4,0.5-11.3,4.5-13.5c8.4-4.6,5.4,6.3,10,8.3c-1.4-7.3,3.4-8.9,9-9.2
		c-2.1,2.1-3.7,5-5,8.2c2.8-0.7,5.3-0.7,8.7,0.9c-2.6,1.5-4.4,2.5-7.7,4.3c7-0.9,12.5-1.5,18.7-0.4c-4.5,4.4-10.3,3.4-14.7,6.1
		c6.5,0.5,12.9,1,19.7,1.5c-1.6,2.7-3.8,2.6-5.6,3.4c3.9,7.9,13.9,8.1,20.7,15.8c-3.8-1.1-5.3-1.5-8.3-2.4c3.5,3.1,5.8,5.1,9.1,8
		c-2.1-0.6-3-0.8-4.6-1.3c1.4,2.1,2.4,3.6,4,6c-2.9-1.7-4.8-2.8-7.3-4.2C488.1,672.5,493.6,675.5,493.2,682z M480.3,547.3
		L480.3,547.3c0.3,0,0.5,0,0.8,0c4.6,1.6,5.7,7,10,9.2c1.1,0.6,1.2,3,0.1,4.3c-1.2,1.3-2.4-0.1-3.4-0.7c-2.2-1.3-3.5-3.4-4.7-5.6
		c-0.4,9.8,8.2,16.8,9.1,26.5c-3.1,0.2-3.7-2.1-5.9-2.9c4.8,5,7.6,10.6,5.5,17.6c-2.9-0.2-2.9-3.7-6-4.3c3.7,5,7.6,9.6,5.8,16.8
		c-3.5-4.4-4.7-9.5-8.7-12.7c-3.2,3.4,5.1,9.9-3.7,11.5c1.3,6.1,2.6,12.4,4.2,19.8c-7-3.4-5.7-10.5-9.3-14.6
		c-2.3,2.4,1.8,7.4-1.9,7.8c-5.2,0.5-0.9-5.9-4.2-8c-0.9,2.2-2.3,4.7-4.9,4.3c-3.4-0.5-1.5-4.6-3.7-6.4c0.1,1.9,0.2,3.8,0.4,5.7
		c-0.2,0-0.4,0.1-0.6,0.1c-0.6-2.6-1.2-5.3-2-8.6c-2.8,4.3,0.4,10.6-6.1,13c2.1-4.1-3.8-4.2-3.6-7.5c-0.3,2.8-0.7,5.7-1.1,9
		c-1.7-2.5-3.2-4.6-4.9-7c-1.4,2.6-2.8,4.5-5.3,5.3c-2.4,2.1-4.7,4.2-7.1,6.3l-0.3,0.2c-1.3,1.7-2.7,3.4-4.1,5.2
		c-3-2.4-0.4-6.3-3.2-8.5c-0.9,1.1-1.9,2.1-3.3,3.7c-0.3-1.9-0.5-3.1-0.8-4.5c-1.3,1-1.8,5.3-4.1,1.7c-1.1-1.8-0.7-4.7-1.9-7
		c-0.3,1.9-0.6,3.7-1,5.6c-0.2,1.1,0.5,2.9-1.6,3c-2,0.1-2.9-1.2-2.9-2.9c-0.1-5.1-0.5-10.2-0.1-15.3c0.4-4.7-1-9.2-0.7-13.9
		c1.4,4.2,2.9,8.4,4.3,12.6c0.6-0.1,1.3-0.2,1.9-0.3c-1.8-19.8-3.6-39.7-5.3-58.3c5.8,4.1,7.9,11.9,8.5,20.6
		c2.3-11.5,7-21.9,14.7-31c-0.8,2.3-1.5,4.6-2.4,6.9c-1.6,3.9-2.9,7.8-3.2,12.1c-0.1,1.5,0.6,2.1,1.7,2.7c1.3,0.6,1.5-0.6,2-1.3
		c11.8-17.2,25.8-33.1,30.6-54.4c1.2,11.8,2.9,23.4,6.7,34.6c-0.3-4.8-1.7-9.5-0.7-15.5c0.9,5.9,1.7,10.6,2.6,16.5
		c4.4-6.7,6.2-13.3,8.4-20.1c2.2,6.8,7.3,9.7,13.2,11.8c1.1,0.4,3.1,0.2,2.6,2.1c-0.6,2.1-2.4,1-3.6,0.6c-3.4-1.1-6.8-2.4-11.3-4.1
		c5.1,9,11.5,15.6,17.7,23.8C487,552.1,485.6,545.5,480.3,547.3z"/>
	<path d="M400.3,184.9c-2.9,2.5-5.2,4.6-4.4,9.6c1.2,6.6-6.4,9.6-8.5,14.5c6,2.4,12.3,1.2,18.5,1.6c1,0.1,2.9,3.1,2.9,3.8
		c0.1,5.5,4.9,7.2,8.2,11c-1.9,0.3-3.4,0.5-4.1,0.6c1.7,4.3,7.2,5.8,7.8,11.1c2.3,11.8,0.6,24.2,8.2,36.6c-6.3-2.3-10.7-2.8-14.8,0
		c0,0,0.4,0.6,0.9,1.4c-4.1-0.6-6.2,2.8-9.5,3.7c-5.8-1.2-10.5,3.5-15.9,4.7c-1.6,0.4-3.1,2.4-2.2,5.1c2.4,7.7,5.9,14.6,11.5,20.7
		c4.7,5.2,8.6,11.1,14.2,18.2c-10.7-3.6-17.9-8.4-23.9-18.3c4.8,3.7,8,6.1,11.2,8.5c-16.3-14.2-16.7-39.1-35-51.9
		c6.2,1.9,9.9,6.8,14,11.6c-0.9-8.7-9.9-17.4-25.7-24.5c3,0.5,4.7,0.8,6.8,1.2c-3.6-4.2-8.3-4.6-12.8-5.3c3,0,6.1,0,9.3,0
		c-6.6-8.1-12.5-16.3-16.7-25.8c-4.3-9.7-6.9-19.3-3.4-30.6c0.7,1.4,1.2,2.3,2.4,4.8c1.3-7.6-1.4-14.1,2.1-20.5c0,3.9,0,7.4,0,10.9
		c0.2,0,0.5,0,0.7,0c0.5-3.9,1-7.8,1.5-11.7c1.2,5,0.5,10,2.5,15.7c7-9.2,5.7-20.9,11.1-30c0.1,0,0.3,0,0.4,0
		c-0.4,5.8-4.6,10.7-4.2,17.2c16.7-20.7,44.1-28.5,55.6-16.3c-18.8-6.2-38.4-3.5-43.8,6.4c9.2-5,18.9-7.1,29.1-6.7
		c-4.5,0.8-9,1.6-13.5,2.4c0.1,0.4,0.1,0.7,0.2,1.1c1.7-0.2,3.4-0.5,5.7-0.8c-4.6,2.9-8.7,5.4-12.7,8.1c-1,0.7-2.4,1.7-1.9,3.1
		c0.6,1.6,2.2,1,3.4,0.7c3.9-1,6.3,2.5,9.7,2.8c0,1.3-1.9,1.9-0.4,3.8c11.7-5.4,23.9-7.9,36.5-2.2l0.1-0.1
		c-11.2-1.8-22.4-2.9-32.9,2.4c3.3,5.5,6.9,5.5,10.7,1.7C399.5,185,399.9,185,400.3,184.9z M391.1,273.4c8.6,1.4,16.5-3.2,17.7-10.4
		c1.8-11.2-7.9-25.9-18.8-28.4c-11-2.5-18.1,2.8-22.6,16.7c-1.2,3.5-0.3,6.1,2.7,8.6c0.5-12.9,4.3-19.4,12.4-21.1
		c7.1-1.5,14.5,2.3,18.1,9.3C404.7,256.1,401.8,263.9,391.1,273.4z M383.7,250.5c1.6,1.6,3.3,2.2,5,1.6c4.6-1.7,4.5,1.2,4.2,4.1
		c-0.7,5.8-4.7,7.4-10.7,7c4,4.4,7.5,3.9,10.9,1.2c3.5-2.8,3.9-12.4,0.5-15C390.3,247,386.7,246.1,383.7,250.5z"/>
	<path d="M379.4,147.9c-3,0.5-6,1.5-8.9,3C373.3,149.7,376.3,148.6,379.4,147.9z"/>
	<path d="M357.1,161.6c0.1,0,0.3,0,0.4,0c4-4.8,8.4-8.3,12.9-10.6c-4.2,1.9-8,4.2-11.1,6.8C358.2,158.7,356.8,159.7,357.1,161.6z"/>
	<path d="M502.3,223.9c-1.9-1.4-3.9-2.7-5.9-4.1c-1.9-1.2-3.8-3-3.8-4.6c0-11,0.5-22-0.3-32.9c-0.6-7.5-0.8-7.1-1.1-13
		c-17.8-0.3-43.3-0.9-61.1-0.7c-6.7,0.1-11.4-4-13.2-8.5c-5.6-13.9-19.1-23.1-33.6-20.9c16.7,2.5,25.1,7.8,31.5,19.8
		c-0.7-0.5-1.1-0.7-1.4-1.1c-9-11-22.1-12.7-34-10c16.8-2.8,34.9,9.5,48.2,35.1c-2.1-0.6-4.2-1.2-6.2-1.8l0.1-0.1
		c-4.4,0.3-8.9,0.5-13.3,1c-1.5,0.2-3,1.2-4.5,1.9c13.4-3.7,28.5,0.4,33.7,9.8c-4.1-1.8-7.7-3.3-11.3-4.8c2.7,2.4,6.5,3,8.8,7.3
		c-2.9-1.5-5.2-2.6-7.4-3.7c5.9,5,11.3,10.2,14.5,17.4c0,0,0.2,0.1,0.2,0.1c1.9,1.5,3.8,3.1,6.3,5.1c-0.8-5.1-6.5-8.2-2.9-13.6
		c1.8-2.7,1.1-5.1-2.2-6.7c-1.2-0.6-2.2-2.1-1.6-4.3c6.7,1.3,9,8.5,14.7,10.8c1.8-2.1-1.7-4.9,1.4-6.5c-6.1-10.3-15.2-16.2-27-18.2
		c14.3,0.7,24.8,7.6,31.2,19.7c-0.4-0.1-1.6-0.5-2.7-0.9c12.5,13.8,38,30.8,47.9,30.9C505.4,225.8,503.7,224.9,502.3,223.9z"/>
	<path d="M503.6,383.4c-0.2-5-0.4-9.1-0.7-14.9c0.8,3.1,1.2,4.5,1.7,6.5c4.2-11.1,0.3-22.7,4.5-33.7c2.3,2.9,4.3,5.9,8,6.6
		c1,0.2,2.2,0.8,2.8-0.4c0.3-0.7,0.3-2-0.2-2.5c-5.6-6.8-9.2-14.7-13.3-22.9c6.1,2.8,9.9,8.1,15.8,12.2c-0.7-7.3-4.4-13.6-4.1-21.1
		c5.9,11.1,11.5,22,20,31.5c-1.2-0.2-2-0.3-3.1-0.5c3.2,8.5-2.5,16-1.9,24.2c0,0.1,0,0.3-0.1,0.4c-8.2,4.2-4.8,13.5-8.6,19.7
		c-1.2,1.9-1.4,5.1-4.2,4.9c-2.7-0.2-2.9-3.3-4.2-6.9c-0.6,8.9-4.3,15.4-6.3,22.5c-1.2,4.2-3.7,6.4-8.1,6.6
		c-4.3,0.2-5.3-3.2-6.5-6.2c-3.1-8.4-4.2-16.9-0.7-26.3C498.1,390.3,499.7,378.4,503.6,383.4z"/>
	<path d="M555.6,307.9c3.7,4.5,8.9,7,13.6,10.2c-1.3,1.9-5.3,0-5.1,3.1c0.1,2.3,3.1,1.5,5.4,2.6c-4.2,0.5-5.5,5.8-10.5,3.8
		c1,8.1,2.5,15.5,7.6,22.4c-4.2-1.7-6.4-4.8-10-7.8c0.3,4.6,0.6,8.6,1,13.3c-1.4-1.2-2.3-1.9-3.5-3c0,6.5,0,12.6,0,18.6
		c-0.3,0-0.6,0.1-0.9,0.1c-0.9-5.1-1.8-10.3-2.8-15.8c-1.6,4.9-1.4,9.5-0.2,14.7c-1.5-0.7-2.5-1.1-3.8-1.7c0,7.1,0,13.9,0,20.7
		c-0.2,0-0.4,0-0.6,0c0-4.1,0-8.2,0-12.3c-0.4,0-0.8-0.1-1.2-0.1c-0.9,4.9-1.8,9.7-2.8,15.3c-1-1.8-1.7-3-2.8-5
		c-0.6,8.3-0.3,15.7,2.5,23.5c-1.8-0.9-3-1.5-5-2.4c0.6,2.7,1,5,1.5,7.3c-0.2,0.1-0.3,0.1-0.5,0.2c-1.4-3.7-2.8-7.4-4.5-11.9
		c-2,7.6-0.8,14.3,0.4,22.7c-4.2-6.3-7.2-11.2-8.7-18.2c-2.5,6-4.2,10.9-3.2,17c-0.9-1-1.4-1.6-2.1-2.4c-1.5,4.9-2.3,9.8-1.8,14.7
		c0.2,2-1.2,2.3-2.2,3.1c-1.6,1.3-1.3-1-2.4-1.2c-1.3,5.1,1.1,9.9,1.3,16.8c-4.5-11.4-3.1-21.2-1.5-31.1c0.5,2.8,0.9,5.6,1.6,9.7
		c3.6-13.2,6.3-25.4,12.5-38c0,7.5-0.8,13.6,2.1,20.7c0.9-14.2,1.8-27,2.6-39.8c1.3,8.4,0,17.1,4.6,25c-0.8-8.1-1.6-16.2-2.4-24.2
		c0.2,0,0.5-0.1,0.7-0.1c0.6,4.8,1.2,9.5,1.8,14.3c0.1,0,0.3,0,0.4-0.1c0-10.6,0-21.3,0-33c3,7.1,3.1,13.8,4.2,20.9
		c2.4-9.1-1.8-18.3,3.3-26.4c0.5,1.6,1.2,3.5,2.5,7.6c2.5-16.8,7-31.4-0.8-46.4c-2.7,3.3,0.7,6.6-0.5,9.9c-1.1,3,2.3,6.6,0.7,11.4
		c-7.6-19.3-17-36.4-34.6-46.8c0.1,2.5,0.2,5.8,0.5,9.2c0.2,2.1-0.5,3.8-2.5,4.2c-2.2,0.4-3-1.5-3.2-3.2c-0.3-3.6-0.5-7.3-0.5-10.9
		c0-5.6-0.4-11.1-2.9-16.3c3.8,6.9,8.5,13.2,13.7,18.9c5.9,6.4,13,10.3,21.5,12c1.1,0.2,2.3,0.6,3.1,1.4c1,1,1,3.9,3.4,2.4
		c2.6-1.6-0.6-3.4-0.4-5.5c0.8-0.2,1.7-0.4,2.7-0.6C550.2,303.6,552.9,305.7,555.6,307.9z"/>
	<path d="M510.2,248.7c3.4,0.8,6.9,2.2,9.4-1.7c1.2-0.7,2.3-1.4,3.5-2.1c0.6,5.3-4.7,4.8-7.1,7.8c5,6.2,11.1,10.1,20.1,7.1
		c-5.3,4.1-11,6.4-18.4,4.1c15.7,14.9,51.3,25.3,58.9,8.7c-0.8,12.3-6.8,19-18.7,19.5c4.8,1.1,8.2,1.9,11.7,2.7
		c-0.1,1.3-1.3,1.3-2.2,1.5c-2.3-1.4-4.9-0.6-7.3-0.6c-7.3,0.1-13.3-2.4-17.6-8.3c-0.7-0.9-1.6-2.1-1.4-3c0.3-1.5,1.9-0.9,3-0.8
		c6.9,0.2,13.5,2.9,20.6,1.9c5.5-0.7,8.3-2.7,8.9-6.2c-14.5,7.2-28.6,2.6-43.7-3.4c3.9,6.8,7,12.3,10.1,17.7
		c-9.5-0.8-16.6-6.1-23.1-12.4c-3.1-3-7-5.7-2.4-10.9c2-2.2,0.6-5.6-1.2-8.3c-3-4.5-5.8-9.2-9.1-14.4c1.8,0.6,2.7,0.9,3.7,1.2
		c3,10.2,10,14.9,19.4,12.9C519.7,259.6,514.1,255.2,510.2,248.7z"/>
	<path d="M194.8,178.1c-0.7,1.7-1.4,3.4-2,5.2C193.5,181.6,194.1,179.9,194.8,178.1z"/>
	<path d="M261.7,148.1c-16.9-7.7-33.1-4.4-48.7,3.8c-5,2.6-9.4,2.7-14.5,1.6c6.4-9.2,14.7-11.3,47.5-13.1
		c-19.2-3.5-37.4-2.9-51.6,13.7c4.5-7.7,10.5-13.9,18.5-17.2c21.9-9,43.7-8.8,65.2,1.7c-9.9-6.7-21.1-10.1-32.8-9.6
		c-52.6,2.4-54.3,25.8-54.3,25.8c-0.5,2-0.8,3.1-1.6,5.9c5.1-8.8,11.6-4.7,18.7-5.7c-7.9,6.7-10.5,14.9-13.5,23
		c12.7-30.1,37.2-36,67.5-29.6C262.3,148.6,262,148.3,261.7,148.1z"/>
	<path d="M112.4,240.7c4.8-1.9,9.6-3.8,15.7-6.2c-6.8,6-14.2,8.3-22.3,12.7c9.1-1.3,15.7-4.1,23.4-9.3c-8.8,11.2-21,8.9-31.7,12.8
		c4.7,0.9,8.7-0.8,12.4,1.3c-0.6,2.7-3.2,3.1-4.9,4.9c-0.2,1,2.4,1.2,1.2,3.1C101.9,266.3,83,275.3,75,274c3.4-1.1,6.3-2,9.8-3.1
		c-4.1-2.8-7.3-5.6-9.3-9.5c-0.6-1.2-1.3-2.4-1.7-4.1c7.5,7.9,15.7,10,26,3.1c-3.6,0-6.2,0-10.6,0c5.9-2.1,10.2-3.7,16.7-6
		c-6.7-0.6-11.2-1.1-16.7-1.6c4.4-1.9,8.3-2.5,11.5-5.4c-2.2-0.5-4-0.9-6.5-1.5c6-1.2,11.6-1.4,16.4-4.4
		C111.2,241.3,111.8,241,112.4,240.7z"/>
	<path d="M302,131.6c4.7,3.5,9.6,6.9,14.2,10.6c4.8,4,6.5,9.7,7.8,16.3c11.7-26.8,63-48.2,82.1-33.5c-20.1-6.9-36.9,0.1-53.6,7.5
		c-18,7.9-29.3,20.9-30.2,41.5c-2-25.8-2.8-28.6-11.6-33.8c11.3,15.9,7.9,32.4,8.6,49.9c-2.4-11.7-0.3-22.1-2.4-32.3
		C314.6,147.4,310.1,138.6,302,131.6z"/>
	<path d="M50.3,318.5c-13.2,0.8-19.7-2.4-23.4-11.2c-0.5-1.3-0.8-2.7-1.3-4.5c12.9,9.9,33.1,7.4,43.1-5.1c-7.3,0.3-11.7-1.6-15.3-7
		c7.8,7.2,15.9,4.4,24.7-0.2c-9,13.9-30.6,27.9-46.8,19.4c4.1,6.4,13.4,8.7,22.2,5.5c8-2.8,13.8-9.1,21.3-13
		c-4.1,3.8-8.3,7.6-12.4,11.4C58.4,315.4,54.3,316.9,50.3,318.5z"/>
	<path d="M50.3,318.5c4.1-1.5,8.1-3.1,12.2-4.6c-0.3,3-2.9,4.5-4.7,6.4c-9.4,10.2-15.3,22.2-18,35.9c1.8-3.7,3.6-7.3,5.4-11
		c-1.7,8.5-5.5,16.2-6.1,25.5c-4.9-12.2,1.5-34.2,14.7-49.9c-9.9,3.9-18.1,1.7-27.8-5.1C35.3,320.2,42.5,323.4,50.3,318.5z"/>
	<path d="M85.3,279.4c-5.1,6.9-13.1,8-21.2,9.4c2.2,2.9,4.9,1.9,6.9,2.9c-9.5,2.6-22.9-10.4-22.9-22.6c13.7,20,29.3,9.7,44.7,2.2
		c0.4,0.8,0.9,1.6,1.3,2.4c-2.2,1.6-4.4,3.1-6.6,4.7c-0.6-1-1.5-0.8-2.4-0.4c-9.9,4.4-19.9,8.1-31.9,0.1c3.4,5.4,6.2,8.1,10.9,8.3
		C72.1,286.8,78.7,283.2,85.3,279.4z"/>
	<path d="M67.9,440.3c-0.1,0.3-0.1,0.6-0.2,0.9c0.5,3.6,1,7.2,1.5,10.7c-0.3,0.1-0.6,0.1-0.8,0.2c-2.2-7.7-4.4-15.4-6.6-23
		c-0.4,0.1-0.7,0.1-1.1,0.2c0.1,2.2,0.3,4.4,0.4,7.4c-4.5-7.9-3.8-16.3-5.7-25c-3.1,5.5-5.5,10.7-11.2,14.9c1.9-3.8,3.3-6.5,4.6-9.1
		c1.9-1.8,2.3-4.1,2.6-6.5c2.9-2.9,2.7-7.2,5.4-11.9c-0.5,9.2,0.3,16.8,2.8,24.7c0.5-4.6-0.6-9.1,3.1-14
		C62.3,421.1,63.5,431,67.9,440.3z"/>
	<path d="M47.9,379.3c-1.9,2.5-3.2,4.2-5.6,7.4c2.4-6.6,4.4-11.4,3-17.1c-2.5,4.1-2.1,9.4-6.6,12c2.8-13.1,8.6-26,11.3-25.1
		c0.3-4,1.4-7.8,3.8-11.2c-5.7,18.3-1.7,37.6-5.1,56.1C48.1,394.2,50.8,387.2,47.9,379.3z"/>
	<path d="M523.1,244.9c-1.2,0.7-2.3,1.4-3.5,2.1c-9.6-0.3-15.2-6.9-22.7-13.9c4.3,1.1,7,5,10.2,0.6c-4.7-2.9-9.3-5.7-14-8.7
		c10.3-0.4,17.1,11.6,28.2,7.5c-4.5,2.8-8,7.1-14.1,6.9c6.4,7.5,11.8,7,18.9-2.1C524.9,240.2,524,242.6,523.1,244.9z"/>
	<path d="M541.2,294.9c1.1,0.8,2.2,1.7,3.5,2.2c1,0.4,2.2,0.7,3.2,0.6c2-0.3-0.3-1.9,0.7-2.8c5.4,2.6,11.2,2.8,17,2.6
		c-2.9,1.5-6,2.3-10.6,2c7.7,6.4,14.4,11.9,23.9,12c-8.3,2.1-15.6-2-23.2-3.6c-2.7-2.1-5.4-4.3-8.2-6.4
		C545.4,299.3,543.3,297.1,541.2,294.9z"/>
	<path d="M159.8,445.8c10.2-36.4,28.4-67.2,61.7-87.3c-7.1,5.3-14.1,10.9-20.5,17.1c-6.5,6.4-12.4,13.4-17.6,21
		c-5.2,7.6-9.5,15.6-13.4,23.9C166,428.7,162.8,437.2,159.8,445.8z"/>
	<path d="M274.8,130c5.1,3.3,7.5,8.9,11.3,13.5c-7.6-9-17.8-13.4-28.6-16.8c-11-3.4-22.3-5.1-33.8-5.8c3.1,0,6.2,0,9.3,0
		c0-0.2,0.1-0.5,0.1-0.7c-0.6-0.2-1.3-0.3-1.9-0.5c0.6-2.5,30.5,6.3,45.8,13.5c-1-1.1-1.7-2-2.5-2.9
		C274.6,130.2,274.7,130.1,274.8,130z"/>
	<path d="M151.9,361.9c5.6-27.6,21.6-49.2,40.9-68.8C174.7,313.4,160.2,335.8,151.9,361.9z"/>
	<path d="M51.3,410.9c-0.3,2.4-0.6,4.8-2.6,6.5c5.8-19.2,2.8-39.6,8-59C54.5,375.9,57.9,393.9,51.3,410.9z"/>
	<path d="M112.4,240.7c-0.6,0.3-1.2,0.6-1.8,0.9c-3.1-0.3-6.4,0-9.4-2.2c8.4,2.2,13.4-2.9,18.9-7.7c5.4-4.7,12.4-6,19.7-5.9
		C129.4,228.5,121.3,235.4,112.4,240.7z"/>
	<path d="M484.5,297.4c5,23.3,5.3,46.6-2.4,69.5C488.2,343.9,487.3,320.7,484.5,297.4z"/>
	<path d="M420.1,351.5c14.3,8.3,27.1,18.3,35.1,33.2c-5.2-6.2-10.1-12.7-16.3-17.9C432.6,361.6,426.3,356.6,420.1,351.5z"/>
	<path d="M545.6,338c-6-3-10.6-4.8-12.5-9.8c-0.5-1.4-2-2.9,0.1-4c1.5-0.8,3.5-0.8,4.6,0.9C540.2,328.7,542.4,332.7,545.6,338z"/>
	<path d="M412.1,140.1c-14.8-10.3-28.4-3.2-42.7,3.1C383.1,132.4,401.3,129,412.1,140.1z"/>
	<path d="M396.3,127.1c-14.9-0.6-25.8,8-37.2,16C363.4,134.1,384.7,124.8,396.3,127.1z"/>
	<path d="M201.4,177.6c0,0-0.3-0.2-0.3-0.2c12.2-13.6,27.3-20.2,45.6-18.7c-10.8-0.8-20.7,2.8-30,7.7
		C211.2,169.4,206.5,173.8,201.4,177.6z"/>
	<path d="M181.5,347.1c-3,5.2-5.8,10.1-8.7,14.9c-0.3,0.4-1.1,0.9-1.6,0.8c-0.4-0.1-0.9-0.9-0.9-1.4
		C170,356.5,176.2,348.2,181.5,347.1z"/>
	<path d="M229.2,415.4c-9.6,18.9-13.9,38.9-13,60C214.1,454.1,218.8,434.1,229.2,415.4z"/>
	<path d="M274.5,130.4c-10-6.8-20.2-13.2-31.8-17.1c12.5,2.2,22.9,8.3,32.1,16.7C274.7,130.1,274.6,130.2,274.5,130.4z"/>
	<path d="M219.8,136.9c13.2-3.5,26.2-4.4,38.9,2C245.9,134.5,232.9,135,219.8,136.9z"/>
	<path d="M396.4,407.7c10.4,6,16.6,27.4,11,39.2C410.9,431.2,406.5,419,396.4,407.7z"/>
	<path d="M285.2,186.3c-5.5-14.5-12.9-26.4-29.2-29C268.5,156.3,282.9,170.3,285.2,186.3z"/>
	<path d="M449.3,302.7c-1.8-2.3-3.7-4.7-5.5-7c-6.9-3.1-6.6-9.8-7.9-15.8c2.8,7.9,8.8,13.8,13.1,20.7
		C449.4,301.1,449.2,302,449.3,302.7z"/>
	<path d="M218.9,398.9c-8.4,12.2-14.7,25.4-20.6,38.9C202.9,423.6,209.7,410.6,218.9,398.9z"/>
	<path d="M287.2,434.1c-1.6,10.7-8,19.4-12.5,28.9c-0.2-0.3-0.5-0.6-0.7-0.9c0.2-4.8,3.6-8.2,5.5-12.3
		C282,444.6,284.6,439.4,287.2,434.1z"/>
	<path d="M270.7,325.3c16.6-1.5,28.8,4.2,40,12.8C299.3,330.2,287,325,270.7,325.3z"/>
	<path d="M355.2,284c-12.3,3-21.3,7.8-25.6,19.5C330.5,292.7,340.8,284.7,355.2,284z"/>
	<path d="M184.6,266c0.8-0.9,1.2-1.5,2.2-2.7c-0.8,2.7-1.3,4.5-1.9,6.3c-4-12.2-0.7-25.2,9.6-34.2C188,245.2,181.6,253.8,184.6,266z
		"/>
	<path d="M363.1,307.9c-9.4,3.1-18.4,7-25.6,14.2C344,313.7,353,309.8,363.1,307.9z"/>
	<path d="M300.2,200.5c-0.1-12.9-3.1-25.1-8.2-36.7C298.4,175.2,300.8,187.6,300.2,200.5z"/>
	<path d="M237.6,388.6c-7.4,8.2-13.4,17.2-18.4,27C223.3,405.2,229.4,396.2,237.6,388.6z"/>
	<path d="M410.7,447.5c2.9,11.6,2.6,23.3,0.2,34.9C412,470.8,412.4,459.2,410.7,447.5z"/>
	<path d="M429.8,518.3c5-10.4,9.7-19.6,11.5-29.8C441.8,494.6,435.7,511.3,429.8,518.3z"/>
	<path d="M314.4,167.3c-2.8-11-6.7-20.1-13.5-28.3C307,143.1,313.4,156.2,314.4,167.3z"/>
	<path d="M430.1,484.7c-3.1,9.1-6.2,18.3-9.3,27.4c-0.3-0.1-0.7-0.2-1-0.3c3-9.1,6.1-18.2,9.1-27.3
		C429.4,484.5,429.8,484.6,430.1,484.7z"/>
	<path d="M255.1,112.9c10.5,1.3,19.4,6.6,28.6,11C274.6,119.5,264.9,116.1,255.1,112.9L255.1,112.9z"/>
	<path d="M368.4,139.1c7.8-4.7,16.4-7.2,25.3-8.5C385.2,133.3,376.6,135.5,368.4,139.1z"/>
	<path d="M255.2,112.8c-7.9-0.3-15.7-1.7-23.3-4.1C239.9,109,247.5,110.8,255.2,112.8C255.1,112.9,255.2,112.8,255.2,112.8z"/>
	<path d="M428.8,626.4c-2.6-0.9-2.9-3.3-3.3-5.4c-1.4-7.6,1.5-14.4,3.6-21.5c-1.8,8.9,0.4,17.8,0,26.7
		C429.1,626.2,428.8,626.4,428.8,626.4z"/>
	<path d="M480.3,549.9c-0.4-1.3-3.3-1.9-1-3.9c0,0-0.1,0-0.1,0c0.3,0.4,0.7,0.9,1,1.3c0,0,0,0,0,0c0,0-0.1,0.1-0.1,0.1
		C480.2,548.3,480.3,549.1,480.3,549.9z"/>
	<path d="M481,547.3c-0.2,0.9-0.4,1.8-0.6,2.7c-0.1-0.9-0.2-1.7-0.3-2.6c0,0,0.1-0.1,0.1-0.1C480.5,547.3,480.8,547.3,481,547.3z"/>
	<path d="M203.3,663.4c0.5-9.8-3.8-18.4-8.4-29.2c10.1,9.3,14.3,19.9,19.4,29.8c-2.9-4.8-5.7-9.6-9.5-15.8
		c1.3,6.9,3.1,11.9,2.7,17.4c-1.6,0-3.7,0.3-4.2-2.3C203.2,663.3,203.3,663.4,203.3,663.4z"/>
	<path d="M436.3,619.8c-2.2-2.4-0.8-5.2-0.6-7.7c0.4-7.1,1.2-14.2,1.8-21.6C438.2,600.5,437,610.2,436.3,619.8
		C436.2,619.9,436.3,619.8,436.3,619.8z"/>
</g>
</svg>
