<?xml version="1.0" encoding="utf-8"?>
<!-- Generator: Adobe Illustrator 24.2.3, SVG Export Plug-In . SVG Version: 6.00 Build 0)  -->
<svg version="1.1" id="Layer_1" xmlns="http://www.w3.org/2000/svg" xmlns:xlink="http://www.w3.org/1999/xlink" x="0px" y="0px"
	 viewBox="0 0 595.3 841.9" style="enable-background:new 0 0 595.3 841.9; fill: #215342;" xml:space="preserve"
	 height="350" width="700" transform="translate(-200, -55)">
<g>
	<path d="M488.5,432.7c-0.3-1.9-0.7-3.8-1.2-5.6C487.6,428.9,488,430.8,488.5,432.7z"/>
	<path d="M555.2,505.9c5.8,6.3,12.2,12,19.3,16.8c1.7,1.2,3.6,2.7,6.7,1.8c-11.6-6.5-20.2-15.6-30.5-25c7.9,1.7,14.3,2.8,21.9,2.4
		c-8.3-2.8-14.5-7-20.8-12.4c5.4-1.5,10.5-1.8,15-4.4c-11.1,1.7-22.1,3.2-30.6-8.2c13.2,7.5,26.1,10,39.6,3.2
		c-10.7-3.1-22.7-2.5-31-11.7c4.4,2.4,9.1,3.7,14.3,3.7c-17-3.7-22.8-19.5-34.6-30.7c15.6,6.2,19,25.2,35,29
		c-12-5.9-16.1-19.2-25.9-27.2c6,3,11.5,6.6,15.9,12.6c-1.3-4.8-4.4-7.8-7.4-11.7c10.5,2.9,18.8,8.3,28.3,14.8
		c-9.8-12.1-20.3-20.3-33.5-25.1c4.1,0.9,8.1,1.7,12.2,2.6c-3.8-1.8-7.7-3.3-11.7-4.2c-17.6-4.2-32.8-11.8-43-27.7
		c-4.1-6.4-11.6-11.5-16.3-13.1c10.6,7.1,17.8,16.8,23.2,27.9c4.3,8.8,11.4,13.1,20.7,14.7c7.3,1.2,14.9,1.8,21.6,5.6
		c-14.5-3.7-30-0.9-45-8.7c3.7,6.4,7.9,10.2,11.7,14.5c-2.3-1.7-4.6-3.4-7-5.2c7.1,9.4,14.9,18.1,21,28.3
		c-6.9-7.3-13.8-14.6-20.8-21.9c6,11.1,11.5,22.4,22.5,29.5c-11.8-5.6-16.8-17.5-24.5-27c-2,2.3,0.4,3.9-0.2,5.9
		c-1.1-1.7-2.2-3.2-3.2-4.7c4.5,10.6,9.2,21,15.7,30.2c-14.6-12.7-21.3-29.5-25.6-47.6c1.2,7.1,1.3,14.3,3,21.2
		c-0.9-2.3-1.9-4.7-2.8-7c-0.1,0-0.3,0.1-0.4,0.1c1.3,5.1,2.5,10.2,4.2,16.7c-4-7.1-5.4-13.4-5.5-19.9c-0.3-12.3-2.9-23.5-13.3-31.3
		c-3.9-3-8.1-5.7-12.1-8.6c-3.5-2.5-7.5-4.5-8.9-9.1c-2-6.4-5.5-11.9-9.9-16.9c-4.1-4.7-7.1-9.7-7.8-16.1c-0.5-4.9-3-9.1-6.1-13
		c-5.4-6.7-6.3-15.6-11.4-22.4c14.1,13,26.7,27.7,46.2,33.1c-14.9-1.3-24.7-11.6-35.4-20.2c10.2,11.2,20.6,22.1,36.7,24.1
		c-4.3-0.3-8.5,1.2-12.9,0.3c17.7,5.4,36.3,8.2,52,19.2c-2.6-3.9-6.9-5.9-11.2-9.5c3.7,0.8,6.2,1.4,8.7,1.9
		c-6-3.8-13.1-4.1-20.5-6.4c5.2-1.4,9.4,0,14.6-0.6c-2.6-1-4.4-1.7-7-2.7c4.4-1,7.9-1.8,11.3-2.6c-9.4-1.9-18.6,1.3-27.9,0.5
		c5.5-0.8,10.9-1.6,16.4-2.4c-7.9-1.3-15.9-2.3-23.5-4.9c-7.6-2.6-14.7-5.9-20.7-11.6c3.2,1,6.4,1.9,9.6,2.9
		c-6.5-3.1-13.6-5-19.8-10.9c7,1.7,12.7,4.8,20.3,4.6c-14.2-2.5-26-7.8-34.6-17.8c-9.4-10.8-20.1-20-30.3-29.9
		c-14.1-13.8-30.9-20-50.3-19.8c-21.9,0.2-43.6,3.7-65.6,2.9c-19.4-0.7-34.7,10.2-46.8,25.2c-4.9,6.1-9,12.9-15.6,17.4
		c-16.5,11.1-34.8,15.1-54.4,14c-7.5-0.4-15-1.4-22.2-4.1c4.9,4.6,11.2,6.4,19,9.3c-7.1,0.3-12.3-0.5-17.6-2.2c2.4,2.5,6,2,7.8,5.1
		c-2.1,0.5-4.1,1-6.1,1.5l0.1,0.4c3.1-0.2,6.1-0.4,10.7-0.7c-11.4,4.1-21.3,7.7-31.2,11.3c0.1,0.2,0.1,0.3,0.2,0.5
		c3.2-0.8,6.3-1.6,9.5-2.4c-7.7,5.6-12.6,13.1-16,21.5c-3.5,8.6-7.1,17-18.8,19.5c6.7,1.4,10.3-1.2,12.8-5.2
		c3.4-5.3,6.4-10.8,9.6-16.2c9.9-16.6,24.2-26.6,43.6-28.8c2.4-0.3,4.8-0.5,8.7-0.9c-2.3-0.8-3.4-1.1-4.4-1.4
		c-0.9-0.3-1.8-0.7-2.8-1.1c17.3,0.3,33.6-2.4,50.1-12c-2.6,3.5-4,5.5-5.5,7.5c-6.7,9.1-14.7,16-26.9,16.3c2.2-1.1,4.2-2.1,6.3-3.2
		c-5.1,0.9-9.8,2.3-15.5,2.5c3.3-1.4,6.1-2.6,10.4-4.5c-5.2,1-8.8,1.7-12.4,2.5c-7.1,1.6-14.6,0.6-21.3,4.5
		c-6.1,3.5-15.6,12.4-16.6,16.3c11-9,22.5-16.6,37.8-15.1c-0.5,0.6-0.8,0.9-1.2,1.3c3.5-0.3,6.8-1.3,11.5-0.4
		c-11.1,4.1-22.4,1.3-32.1,6.5c-9.5,5.1-18.6,10.7-26.7,19.3c0.3-1.5,0.3-2,0.5-2.5c7.6-15.6,18-27.9,36.6-30.2
		c4.1-0.5,8.1-1.4,12.2-2.2c1.2-0.2,2.8-0.1,3.3-2.4c-8.5,1.6-17,2.2-24.8,5.4c-10.5,4.3-19,11.3-26.1,20.2
		c-6.4,7.9-10.3,17.8-19.2,25.4c8.7-1.5,10.3-8.6,14.5-14.2c-2.6,9-7.5,16.4-6.1,25.5c4.2-15.1,12.6-26.8,26.5-34.3
		c-13.6,12.2-19.8,28-22.8,45.5c-1.5,9-5.6,16-15.8,17.1c-0.1,0-0.1,0.4-0.2,0.7c4.3,1.7,7.6-0.4,10.5-3c5-4.3,6.8-10.4,8.2-16.6
		c1.4-6.2,2.6-12.4,5.7-18.1c-0.9,6.3-2.1,12.5-3.2,18.7c-2.5,13.8-11.5,21-24.6,24c-2,0.5-4,0.9-6.1,1.3c7,0.7,13.6-0.4,20-3
		c-7.5,7-15.4,12.5-26.5,11.3c-6.9-0.7-13.7-2.2-20.3-1.6c2.5,0.6,5.4,1.7,8.3,2c5.7,0.7,10.9,4.1,16.9,3.3
		c12.2-1.8,21.7-7.7,27.6-18.6c2.2-4,4-8.2,4.9-13c1.1-5.9,3.5-11.7,4.4-17.6c1.7-10.7,6.2-19.8,13.5-27.6
		c6.9-7.3,14.9-13.1,24.9-15.5c-7.8,4.4-14.7,9.7-21.5,16.9c2.6-0.9,4.2-1.4,5.7-1.9c1.8-2.9,4.5-4.9,7.2-6.7
		c11.9-7.9,26.4-10.8,38.9-20.3c-3.1,7.1-3.8,13.2-5.7,21c6-9.2,3.1-21,14.4-26c-5,7.5-7.2,15.4-9.9,23.3c-0.2-0.7-0.3-1.1-0.7-2.7
		c-4.6,14.8-15.5,25.1-19.6,39.1c2-13.9,11.5-24.8,15.5-37.9c-2.6,3.7-3.7,8.3-7.3,11.4c1.3-2.4,2.6-4.8,3.7-7.2
		c1-2.4,2.8-4.6,2.6-9.2c-6.2,13.5-16.8,20-28.5,24.3c-17.6,6.5-27.3,18.2-28.1,37.3c-0.5,12.4-5.5,22.9-15.4,30.8
		c-0.4,0.3-0.7,0.9-1.5,1.8c11.9-5.8,19.8-14,22.7-26.6c1.8-7.9,4.2-15.5,7.5-22.9c3.2-7.1,8.3-12.5,15.4-16
		c-12.4,11.2-18.6,25.4-21.5,41.5c-2,11-8.4,18.9-18.4,23.7c-7.2,3.5-13.6,8.1-19.7,13.3c-11.5,9.7-25.1,14.3-39.6,16.5
		c6.7-2.2,13.5-4.5,20.2-6.7l-0.2-0.7c-2.3,0.4-4.6,0.7-7.6,1.2c7.8-5.7,17.9-4.8,25.2-12.4c-11,4.2-21.4,6.4-30.5,12.3
		c-8.6,5.6-18.5,5.3-29.3,3.6c11,4.4,20.9,8.9,32,4c-12.2,6.8-20.6,20.3-37,18.3c3.1,3.6,6.4,5.5,11.7,5.5
		c-9.4,9.1-18.7,15.2-31.5,14.1c8,5.7,17.1,4,26.1,4.2c-6.2,4.7-10.4,11.1-14.3,18c-2.8,5-1.5,9.1,0.5,13.3c3.6,7.5,3.8,7.4-4.9,7.5
		c-0.3,0-0.6,0-0.9,0c-1.8,0.2-4.3-0.3-4.3,2.3c0,2.8,2.6,1.8,4.1,1.8c17.8,0.1,35.6,0.1,53.5,0.1c2.8,0,5,0.3,6.6,3.3
		c1.4,2.8,3.8,3.1,5-0.3c0.9-2.4,2.3-3,4.7-3c9,0,17.9,0.2,26.9-0.3c5-0.3,8.5,0.5,10.8,5.5c1.4,3.1,3.9,3.1,5.1-0.4
		c1.2-3.6,3.4-4.5,6.9-4.5c20.3,0.1,40.6,0.5,60.9-0.3c7.1-0.3,11.4,3.1,15.8,6.9c6.2,5.4,13,9.9,20.1,14c5.7,3.2,11.7,5.5,18.6,5.8
		c-0.7,1.2-0.9,1.7-0.8,1.4c8.7,1.3,17.4,0.2,26-2.3c3.1-2.1,7.4-1.5,10.7-3.1c3.2-1.5,7-1,9.8-3.2c3.7-2.9,6.9-2.8,9.9,0.8
		c0.4-1,0.8-1.9,1.2-2.9c3,0.8,5.8,1.5,9,2.3c-0.3,0.5-0.5,0.9-0.7,1.1c12.8,4,26.3,5,40.1,4.6c15.5-0.5,26.7-8.3,37.7-17.5
		c-1-0.6-2.1,1.1-3.3-0.3c3.7-3.6,6.4-7.9,13.1-7.5c15.1,0.8,30.2-0.2,45.4,0.5c4,0.2,5,1.4,5.7,4.8c1,4.5,5.6,5.8,8.2,1.9
		c3.8-6,9-6.6,15.1-6.1c2.3,0.2,4.8,0.3,7.1-0.1c3.7-0.6,5.4,0.9,6,4.4c0.3,1.6,0.9,3.6,2.6,3.9c2.2,0.3,4.3-0.7,5.7-2.5
		c1-1.3,1.8-2.7,2.7-4.2c0.6-1.1,1.4-1.6,2.7-1.6c11.4-0.1,22.8-0.4,34.3-0.5c10.3-0.1,20.6-0.1,30.9-0.2c1.3,0,3.2,0.2,3.3-1.9
		c0-2.3-1.9-1.9-3.4-2.1c-1.8-0.2-3.7,0.3-5.6-1.1c2.2-2.2-2.9-5.1,1.2-7.2c-1.8-2.7-3.4-5.1-5-7.6c1.4,0.3,1.8,2.6,3.8,2.1
		c-0.2-4.4-1.4-8.6-3.7-13.2c5.3,2.1,9.2,5.4,14.7,6c-5.5-4.7-10.1-9.3-12.9-16.4c5.1-0.3,9.6-0.6,14.5-0.9
		c-0.8-1.1-1.2-1.7-1.9-2.5c1.7,0.2,3.1,0.4,4.6,0.6c-17.9-10.8-33.3-24.8-51.8-34.1c3.1,0.4,5.9,1.5,8.8,1.7
		C544.4,495.3,549.9,500.1,555.2,505.9z M165.1,336.7c9-0.7,17.9-1.7,26.7-4.2C183.2,335.9,174.3,337.1,165.1,336.7z M130.9,425.2
		c-2.1-12.3,8.1-31.4,18.8-34.4C137.6,399.5,135.2,412.8,130.9,425.2z M559.8,551c-1.1-1.5-2.2-2.9-3.2-4.4
		c1.6,4.2,3.3,8.3,2.5,13.1h-1.6c-0.5,2.7,1.7,4.4,2.2,6.7c-7.7,2.1-14.7-2.9-18.4-13.7c2.1,2.7,4.1,4.3,6.5,5.5
		c2.8,1.4,2.1,4.8,4,6.8c1.5-0.2,2.9-0.4,4.9-0.6c-0.6-3.9-3.5-6.6-6.1-8.3c-3.4-2.3-3.8-5.6-4.8-9.1c0.6,1.1,1.3,2.1,1.9,3.2
		c0.2-0.2,0.5-0.4,0.7-0.6c-0.3-1.1-0.7-2.3-1.2-4.1c1.2,1.1,1.9,1.7,3.8,3.5c-1.6-3.5-2.5-5.6-3.5-7.6c0.2-0.1,0.4-0.2,0.6-0.3
		c2,3.5,4,7.1,6.9,12.1c-1.3-10.9-7.4-17.4-12.3-24.8c1.7-1.1,2.7-2.5,0.7-4.3c5.2-0.7,6.6,1.7,8.2,6.2c1.8,4.9,5.8,9.1,7.1,14.4
		C559.1,546.7,559.4,548.8,559.8,551z M543,516c5.3-0.1,8.6,1.7,9.1,7.8C547.6,522.5,544.7,520.1,543,516z M553.6,517.5
		c-4.2-3-8.8-3.7-14-4.9C545.9,510.4,552.9,512.8,553.6,517.5z M503.3,435.2c18.3,4,30.2,15.6,39,31.5c-7.2-6.7-11.4-15.7-20.2-20.4
		c5,6.7,10,13.4,15.7,21c-11.6-4.9-15.4-15-21.5-23.3c1.4,3.4,2.8,6.8,4.2,10.2C516.9,446.1,510.8,440.1,503.3,435.2z M524.3,460.8
		c9,8.7,19.9,14,31.8,17.5C545,479.6,529.5,471,524.3,460.8z M544.7,487.6c5.5,1,8.5,6.2,13.7,8.9c-15,0.1-35.1-12.3-40.2-24.8
		C523.9,482.4,533.9,485.6,544.7,487.6z M512.4,481.7c-6.4-4.1-12-8.8-14.6-17.6C503.2,470.5,507.3,476.6,512.4,481.7z M469.2,432.2
		c-1.7-3.6-3.2-6.6-5.3-11c0.5,4.9,2.7,7.9,1.9,11.4c-3.1-7.6-7.3-14.2-14.2-19.1c-2.9-2.1-5.2-5-6.2-9
		C462.1,408.3,471.8,419.4,469.2,432.2z M459.3,441.4c-7.8-7.6-15.9-15.2-21.4-24.8c4,6.1,10.1,10.2,15.6,14.8
		c-4-4.5-8.1-9.1-12.1-13.6c14.3,14.8,28.5,29.7,35.2,50C469.6,459.8,467.1,449.1,459.3,441.4z M474.2,468.8
		c-6.1-4.3-7.8-11.2-10.5-17.5C467.2,457.1,470.7,462.9,474.2,468.8z M434.1,440.1c4.8,12.6,15.9,20.7,22.2,32.1
		C447,462.9,438.8,452.8,434.1,440.1z M448.8,522.2c2.4-3.5,1.6-8.5,5.3-11.4c1-0.8,1.8-1.7,3.1-0.6c-1.1,6.7-4.5,12-9.8,16.5
		C446.9,524.8,448,523.4,448.8,522.2z M436.9,422.1c1.6,11.6,6.9,21.6,13.1,31.2C440.1,445.1,435,432.9,436.9,422.1z M453.3,464
		c-5.4-7.7-12.5-14.1-15.8-23.2C441.8,449.2,449.1,455.5,453.3,464z M451.7,420.8c4.2,3.2,6,7.1,8.9,10.6c-0.3-3.6-1.9-6.3-3.6-10.3
		c3.5,4.6,6.1,8.1,8.8,11.6c1.7,5.6,3.5,11.1,5.3,17C463.1,441.3,457.9,431.4,451.7,420.8z M434.3,363.7c0.4,6.5,3.2,11.7,7.3,16.6
		c4,4.8,7,10.3,10.2,17.5c-7.1-7-10.5-14.6-14.7-22c-0.5,4,2.3,10.6,6.9,17.5c3.6,5.3,8.8,9,13.5,13.3c-6-2.3-11.5-5.2-16.1-10.7
		v3.8c-0.6-4.6-5.4-7.3-5.4-12.6c-1,0.8-1.5,1.2-3,2.3c3.3-13.5,0.5-25.5-4.1-37.5C430.9,353.5,434.1,360,434.3,363.7z M431,395.5
		v-14.9c-0.2,0-0.4,0-0.6-0.1c-0.4,2.8-0.7,5.6-1.1,8.3l-0.4,0v-6.3c-3.6,9.1-5.1,18.5-5.8,28c-0.7,9.7,0.1,19.3,2,28.8
		c-3.9-11.1-4.2-22.5-2.7-34c1.1-8.7,2.8-17.3,4.3-25.9c1.8-10,0.6-19.8-2.4-29.5c0.2,9.1,0.8,18.3-0.2,27.4
		c-1.3-9.2-0.2-18.5-2-29.5c-0.3,5.2-0.6,8.8-0.8,12.4c-0.7-8.6,0.6-17.4-4.3-26.6C427.4,344.3,436,376,431,395.5z M190.6,422.8
		c2.4-4.5,4.8-9,7.2-13.5C197.4,414.9,193.6,418.7,190.6,422.8z M198.9,415.9c2.7,8.8-4.7,10.8-7.1,13.4
		C193.4,426.1,194.2,420.2,198.9,415.9z M187.7,372c-2.2,9.4-7.2,17.3-12.9,25C179.3,388.7,184.6,380.9,187.7,372z M169.8,471.5
		c-1.4,6.2-4.5,11.3-10,14.8C164,481.9,167.4,477,169.8,471.5z M137.7,437.4c0-6.5,2.4-12.4,4.1-18.6c4.4-16,18.6-23.6,28.8-34.7
		c2.1-2.3,4.3-4.5,6.5-6.7c-3.6,6.3-8.5,11.6-13.6,16.7c-9.7,9.8-14.8,21.6-17.2,34.9c-1.2,6.8-2.9,13.5-5.2,20.1
		c0.3-4.5,0.5-9,0.9-13.5c0.4-4.7,1.1-9.4,2.8-13.9c1.6-4.3,3.4-8.5,4.7-12.9c-4.3,6.3-7.6,13-8.8,20.5c-0.7,4.5-0.8,9-0.8,13.5
		c-0.2,9.8-1.7,19.3-7.6,27.5c-0.9,1.2-1.6,3.2-4.3,2.7C136.7,462.5,137.6,450,137.7,437.4z M90.2,476.2c9.5-9.8,20.3-17.7,33.2-24
		c-2,1.7-3.3,3.2-5,4.1c-8.3,5.1-14.7,12.2-21,19.4c-7.3,8.3-17.1,12.2-27.7,14.2c11.9-6.3,23.8-12.6,32.7-23.3
		C98.3,469.8,94.2,473,90.2,476.2z M46.4,529.4c-0.7,7.2-1.5,14.3-2.1,21.5c-0.4,4.5,1,9.2-1.8,13.9c-0.8-2.9,2.7-5.8-0.6-7.8
		c-1.9-1.1-2,1.9-3.6,2.3c0.7-4.5-4.2-8.4-0.7-13c-1.1-0.9-2.8,0.8-2.8-2c-1.5,1.8-2.4,3-3.9,4.9c1.3-5.4,4-8.9,6.3-12.9
		c-1.5,0.9-2.9,1.9-4.9,3.2c2.3-3.4,5.1-5.5,7.6-8.3c-1.9,0.5-3.8,1-6.7,1.7c3.8-3.6,7.4-5.5,11.5-6.3
		C46.8,526.4,46.5,528.1,46.4,529.4z M83.5,555.2c-1.6,6.7-3.2,13.5-4.9,20.8c-5.7-4.7-8.5-19.6-5.4-24.7c1.4-2.3,3.2-4.2,6.3-3
		C82.6,549.5,84.3,551.6,83.5,555.2z M98,562.6c-0.9,1.2-1.7,0.1-2.4-0.7c-0.2,1-0.4,1.9-0.5,2.7c-0.4-4.6-0.9-9.1-3.2-13.1
		c-0.5-0.9-1-2.2-2.4-2.1c-1.7,0.1-0.8,1.8-1.6,3.3c-2.4-5.5-6.1-8.5-12.1-6.5c-5.9,2-4.8,8.7-8,12.5c-3.4-1.5-3.6-2.6-1.2-4.8
		c2.1-1.9,2.4-4.9,0.7-8.2c-3.3,3.7-3.2,8.4-4,12.7c-1.8-1.6,1.6-6.8-4.4-5.9c-0.9-4.1-4.5-7.9-3.4-13.3c0.5-2.3,1.1-4.3,2.6-6.1
		c0.6-0.7,1.2-1.6,2.3-1.1c0.9,0.4,0.8,1.3,0.7,2.2c-0.2,2.1-0.1,4,2.7,4.8c2.2-3.5,1.6-8.5,5.5-11c3.1,3,1.2,6.6,0.5,11.3
		c1.1-1.9,1.5-2.7,2-3.6c0.6,0.5,1.1,1,1.6,1.4c1.4-0.9,0.3-2.2,0.9-3.3c1.6,0,1.1,1.7,2.1,2.6c0.9-0.4,2-0.9,3.1-1.4
		c0.2-3-1.5-5.2-3.2-8c-0.4,1.4-0.7,2.3-1.1,3.4c-0.6-3.2-1.2-6.2-1.8-9.2l-0.7-2.9c-2.4-3.2-2.1-7.2-3.5-10.9
		c2.2,7.1-6.9,12.8-2.1,20.4c-1.4,0.9-3.9-0.7-5.1,1.8c2.8-7.8,4.4-15.5,4.8-24c-3.2,2-0.3,6.4-4.2,7.8c0.4-2.2,0.8-4.1,1.3-6.3
		c-2.1,0.8-2,2.7-3.1,3.9c-0.6-0.4-1.2-0.7-1.9-1.1c-3.1,3.4-3.6,7.6-4.7,11.9c-1.6-3.7,1.3-6.2,1.8-9.5c-0.8,0.2-1.3,0.4-1.8,0.6
		c-0.3-3,5.4-5.4,1-8.9c3.5-6.5,13.2-10,22.6-8.2c0.3,0.1,0.6,0.1,0.9,0.2c9.2,2,10.6,4.3,8.5,13.6c3.2-0.2,3.6,2.1,3.2,4.3
		c-0.9,4.5,0,8.8,0.8,13c1.5,8.1,2.5,16.3,5.2,24.2c0.2,0.5,0.1,1.1,0.2,3.1c-0.9-2.7-1.4-4.1-1.9-5.6c0.6,4.2-0.9,8.9,3.2,12.1
		C98.3,561,98.3,562.2,98,562.6z M113,556.6c0.5-7.2,4.3-12.5,7.7-18.3c1.4,1.9,0.3,3.5,0.5,5c1.3,0.1,2.7,0.2,4.8,0.4
		C119.8,545.9,119.8,545.9,113,556.6z M125.3,575.6c-5.2-3.5-8.7-17.4-5.8-23.8c0.3,1.5,0.4,2.4,0.7,3.9c1-3.9-0.5-9.4,5.6-8.4
		c4.5,0.7,7.3,3.8,5.5,10.1c1.1-1.6,1.4-2.2,2.6-4.1C132.8,562.6,128.2,568.7,125.3,575.6z M145.3,501.3c-0.7-0.2-1.3-0.4-2-0.6v2.6
		c-1.3-1.2-2.3-2.2-3.3-3.1c-0.2,0.2-0.4,0.3-0.6,0.5c1.7,2.4,3.3,4.9,5.3,7.7c-2.2-0.4-2.3-2.9-4.8-2.4c2,3.3-0.9,6.1-0.9,8.9
		c0,3.3,3,6.6,3.4,11.6c-1.1-2.3-1.7-3.5-2.3-5c-0.6,2.6,0.5,4.4,1.9,6.3c1.6,2,3.5,4.2,0.7,6.9c-1.1,1.1-0.5,2.1,0.8,2.6
		c1.2,0.5,2,1.4,2.2,3c-0.7-0.4-1.3-0.7-2.5-1.3c1.8,3.4,3.3,6.1,5.1,9.6c-2.7-1-2.4-4.4-5.8-3.9c1.4,4.7,6.2,8.5,3.6,14.1
		c-1-3.1-2.8-5.9-6.2-7.6c1.1,4.9,4.5,9.1,2.4,14.4c-1.4-4-3-7.9-4.3-11.9c-1-3.1-2.9-5.5-5.6-7.1c-4-2.4-5.5-6.1-6.7-11.6
		c1.4,2.7,2.1,4.2,3.2,6.3c1.1-5.4-4-8.8-2.8-14c1.2,1.6,2.2,2.8,3.6,4.6c-1.3-7.3-4.1-13.1-8.5-18.3c1.6,5-1.4,10.1,1.1,15
		c0.6,1.1,1.3,2.3,1.2,3.4c-0.2,1.5,1.7,3.3-0.1,4.2c-2.1,1.1-1.5-2.3-3.7-2.6c-0.9,3.9-2.4,7.8-5.4,11c1-3,1.9-5.9,3.2-9.9
		c-4.4,2.2-5.4,5.9-7.3,9.6c-0.5-2.4-0.8-3.9-1.1-5.4c-1.1-1.4-0.3-2.6,0.5-3.8c-0.1-6.3,4.5-11.3,5.3-18.9
		c-1.8,3.8-2.4,6.6-4.7,8.8c-1.6-4.9,1-9.2,1-13.9c-1,0.3-1.6,0.5-2.4,0.8c0.5-2.2,1-4,1.6-6.7c-1.2,1-1.9,1.5-3.5,2.9
		c2.1-4.7,3.7-8.3,5.9-13.4c-3.3,3.7-7.3,3.8-9.3,6.8c1.3-1.9,2.6-3.9,3.9-5.8c-0.1-0.1-0.3-0.2-0.4-0.4c-1.6,1.4-3.2,2.8-5.3,4.5
		c0.5-4.2,2.4-7.2,4.4-10.1c-1.9-2.2-3.3,0-5.2,0.3c1.3-1.4,2.4-2.6,4.1-4.5c-1.6,0.5-2.3,0.7-2.9,0.9c-0.5-2.1,4-3.3,1.1-5.6
		c-2.5-1.9-3,1.6-4.8,2.1c-0.7-0.8,0.1-1.3,0.5-1.7c3.7-5.4,15.2-10,21.5-8.3c1.8,0.5,5.3,0,4.4,4c0,0.2,0.3,0.6,0.6,0.7
		c10.1,2.8,12.2,15.4,23.2,17.7c-2.8,2-4.9-0.2-7,0.5C141.9,498.3,144.3,499.1,145.3,501.3z M139.1,482.9c6.9-9.2,6.9-20.3,9-30.9
		c1.4-7.2,5.2-13.6,9.1-19.8c2.8-4.4,5.9-8.5,8.2-13.3c-1.5,6.1-4.9,11.2-8.3,16.3c-5.6,8.5-9.1,17.6-8.4,28.1
		C149.1,471.4,146.5,478.4,139.1,482.9z M157,477.7c2.1-3.2,3.9-6.6,5.4-10c1.5-3.5,2.5-7.1,3.9-11.2c0.8,9.2-6.4,22.4-16.7,30.4
		C152.4,483.5,155,480.8,157,477.7z M163.9,560.1c-3.9-3.1-7.3-14.7-5.6-19.3c0.7-1.7,1.1-3.9,3.5-4.2c2.7-0.4,3.3,1.7,4.2,3.5
		C169.1,546.2,168.1,556.2,163.9,560.1z M189.3,550.4c-10.2-1.1-10.2-11-15.5-17.1c-1.9,7.4,1.7,14,0.9,20.9
		c-0.9-3.6-1.8-7.2-2.7-11.3c-0.7,0.8-1.1,1.2-1.4,1.7c-4.3-3,3.4-14.8-8.9-12.2c-1-3.7-0.5-7.3,2.5-10.7c2.4-2.8,2.3-6.5,2.1-10
		c-0.2-4.1-0.1-8.2,1.5-12.3c-5.2,1.2-8.1,8.8-5.2,13.4c0.4-1.5,0.8-2.7,1.2-4.3c0.4,2.4,0,4.1-1.3,5.6c-1.8,2.1,0.5,3.3,1.3,5.1
		c-0.8,0.9-2.7,1.2-2.1,3.2c-1.9-0.3-2.5-2.9-4.3-1c-0.8-3.5-3.1-6.3-1.7-9.7c-2.1-0.6-2.6,1.3-4.1,1.5c0.8-2.7,4.1-3.7,4.7-6.9
		c-1.4,0.5-2.5,0.9-3.7,1.4c0.3-2,2.7-2.7,2.4-4.6c-1.5-0.9-2.3,0.8-3.3,0.8c1.9-6,6.4-8,12.3-8c6.7,0,10,4.8,14.2,9.5
		c-1.4,0.1-2.1,0.1-3.8,0.2c8.5,6.5,6.8,17.2,12.2,24.7c-1.3-0.8-2.5-1.5-4-2.5c1.1,3.7,1.8,7.3,5.8,9.4c-1.1,0.6-1.6,1-2.2,1.3
		c1.2,2.6,3.8,4.4,4.3,7.7c-1-0.4-1.8-0.8-2.7-1.2C187.3,547,188.7,548.5,189.3,550.4z M204.5,490.9c1.1-4.1,2.3-8.1,3.4-12.2
		c-0.3-0.1-0.7-0.3-1-0.4c-1.5,2.9-3,5.9-4.5,8.8c0.5-5.4,2.6-10.6,2.1-17.6c-2.6,5-4.6,8.8-7.2,14c0.5-6.3,3.2-10.4,4.4-15.4
		c-3.3,0.8-4.1,3.7-6.6,5.8c-0.5-8.1,6.7-13.1,6.1-20.6c-1.4,1.3-2.9,2.7-4.9,4.7c0.4-1.4,0.6-2.1,0.8-3.1c-2.8,0.9-2.9,4-5.6,5.9
		c1.8-6.6,4.3-12,8.9-18c-5.6,2.6-7.5,6.8-10.7,11.5c1.9-6.4,6.4-10,8.2-17c-1.9,2.8-2.9,4.2-3.8,5.6c-0.3-0.2-0.6-0.5-0.8-0.7
		c0.7-1.7,1.4-3.3,2.5-5.9c-2.1,1.4-3.4,2.2-5.5,3.6c3.3-5.7,4.6-11.5,9.4-15.4c0.9,1-1.7,3.3,3.1,2.9c-7.2,3,0.6,6.9-2.8,9.6
		c0.9,1.1,1.5-0.2,2.2,0c-0.7,2.5,0.7,4.9,1.3,7.3c0.3,1.3,1.6-0.3,3-0.9c-2.1,3.1-1.2,4.5,1.9,4.4c0.4,1.9-1.6,2-2.1,3.5
		c1.2-0.1,2.3-0.3,3.7-0.4c-1,1.6,3.1,2.6-0.1,4.3c4.2,3.1,7.8,6.1,6.8,12c2.9-3.4,7-2.3,10.9-3.2c-2.6,3.3-3.5,6.2-0.3,8.8
		c-0.7,8-5.9,14-10.2,21.2c2.7-0.5,3.5-2.7,5.5-3.9c-2,4-4.5,6.8-8.2,9.4c0.3-6.6,1.4-12.4,3.7-18c-1.7,3.1-3.4,6.1-5.7,10.1
		c-0.1-4.6,2.1-7.6,2-11.3c-1.5,2.7-3.1,5.5-4.6,8.2c-0.2-0.1-0.3-0.1-0.5-0.2c0.6-2.1,1.1-4.2,1.7-6.3c-0.2-0.1-0.5-0.2-0.7-0.3
		c-1.6,3.2-3.2,6.3-4.8,9.5C205,491,204.8,491,204.5,490.9z M214.9,416.1c-1.1,1.4-1.8,2.3-2.5,3.1c-1.3,0.8-2.6,1.7-4.3,2.9
		c2.8-3-3.7-5.6,0.6-8.4c1.2,0.4,2.3,1.7,4.7-0.5C211.8,416.3,212.2,417.1,214.9,416.1z M225.2,392.1c3.4,1.2,3.2,5.5,6.7,7.2
		c4.1,2,8.7,0.8,12.5,3.4c-0.3,3-2.3,4.2-5,4.3c-2.8,0.1-6.1,1.5-7.5-2.4c-5.6,0.6-6.5-4.1-8.3-7.5
		C222.5,395.1,222.4,393,225.2,392.1c-4.5-0.7-1.6-3.5-1.2-5.3c0.3-1.6,1.2-3.2,3.4-3.8C223.7,385.4,231.3,390.1,225.2,392.1z
		 M235.9,385.9c-0.3,0-0.6-0.4-0.8-0.3c-1.4,0.5-3.4,2.1-3.7-0.8c-0.3-2.3,2-3.1,4-3.5c3.6-0.6,7.4-2.5,10.4,1.5
		c2.8,3.8,5,7.6,2.8,12.5c-0.4,0.9-0.9,1.7-1.4,2.5c-0.3-0.2-0.6-0.3-0.9-0.5c0.4-1.5,0.8-3,1.2-4.5
		C243.7,390.3,240.9,386.3,235.9,385.9z M237.6,395.9c-3.6,0-3.6-5.6,0-5.6C241.2,390.3,241.2,395.9,237.6,395.9z M225.1,416.2
		c-1.2,2.6-2.1,4.4-3.1,6.6c3.5-0.3,3.4-3.7,5.4-5.2c0.7,1.9-1.3,3-1.2,4.7c0.8,0.5,2.9-0.9,2.3,1.6c2.7-1.1,2.4-4.2,4.9-5.9
		c0.9,8.2-5.7,13.8-5.7,21.2c4.5-1.2,5.7-5.5,9-8.9c-0.9,4.7-3.7,7.8-4.9,11.6c4.7-5.4,9.2-10.9,10.9-18.1
		c-0.9,11.6-4.2,22.5-8.6,33.8c-2.4-3.1,0.6-5.4-0.7-7.6c-1.3-0.1-1.1,1.3-2,1.8v-3c-1,2.2-1.5,3.5-2.1,4.9
		c-2.1-2.2-1.8,0.6-3.3,1.4c1.1-3.7-1.3-6.5-2.1-9.8c-0.6,2-1.2,4.1-1.9,6.6c-0.3-1.6-0.4-2.8-0.8-3.9c-0.4-0.9-0.2-2.8-2.5-1.9
		c1.4-2.9-2.8-4.2-1.4-7.4c-1,0.4-1.6,0.7-2.5,1.1c-0.6-2.4-1.2-4.6-1.8-6.9c-0.5,0.4-0.9,0.8-1.9,1.6c1.7-5.4-3.3-10.6,1.2-15.3
		c2.6-0.3,5.5,0.6,7.9-2.6c0.1,1.5,0.2,2.2,0.3,3.3C222,418.8,223.3,417.7,225.1,416.2z M225.2,560.4c2.9-1.7,4.1-5.6,8.2-5
		l-3.6,2.9c0.1,0.2,0.2,0.4,0.3,0.6c1.1-0.4,2.2-0.8,3.4-1.2c0.1,0.2,0.3,0.4,0.4,0.6c-2.1,1.4-4.2,2.8-6.6,4.5
		C227.4,561.4,226.2,561.4,225.2,560.4z M242.3,570.9c-1,0.9-1.8,0-2.3-0.6c-1.7-1.9-3.3-3.5-6-1.4c4.1-5.6,5.5-5.5,8.5,0.4
		C242.7,569.7,242.6,570.6,242.3,570.9z M243.3,560.9v-2.8c-5.9,3.7-9.3,9.7-15.8,11.6c1.5-1.4,3.1-2.7,5.1-4.5
		c-1.4-0.1-2.2-0.2-2.9-0.3c-0.8-1.2,12.2-10.3,16-11.2c-1.4,1.5-0.9,2.6,0,4.1C246.4,559,245,560.3,243.3,560.9z M266.6,563.1
		c-0.6-0.9-1.2-1.8-2-2.9c-0.4,0.2-0.9,0.5-1.5,0.9c-0.1-0.7-0.1-1.4-0.3-2.9c-1.4,1.8-2.2,3-3.3,4.5c-0.3-2.1,2.2-3.1,1.3-5.1
		c-2.2-0.3-2.4,2.1-3.9,2.9c0-1.5,1.9-2.4,0.8-4.2c-0.9,0.1-1.8,0.2-2.9,0.3c0.4-0.9,0.7-1.8,1.1-3c-5.8,0.9-3.6-9.5-11.3-6.5
		c1.1-1.6,1.7-2.5,2.4-3.5c1-1.3,2.2-2.2,4.4-2.5c-0.7,1-1.2,1.7-1.7,2.4c1.4,0.8,2-0.5,2.9-0.5c-0.7,4.5,3,6.3,5.4,8.8
		c2.9,3,6,5.9,9.1,8.7C268.5,561.7,268,562.3,266.6,563.1z M291.6,541.9c-0.2,0.2-0.4,0.3-0.6,0.5c-0.5-1-1-1.9-1.8-3.2
		c-1.6,2.8,0.4,4.1,0.8,6.4c-1.9-1.1-3.5-2.1-5.9-3.5c2.2,2.4-1.9,2.5,0.4,5.5c-1.8-1.5-2.5-2.2-3.3-2.8c-1.6,0.6-0.5,1.7-0.6,2.7
		c-1-0.7-1.9-1.4-3.3-2.3c0.2,1.3,0.3,2.1,0.7,4.6c-1.2-2-1.6-2.7-2.1-3.6c-0.4,0.9-0.7,1.4-1,2.1c-0.7-0.7-1.3-1.3-2-2.1
		c-0.4,0.6-0.8,1.1-1.3,1.8c-0.7-0.6-1.3-1.2-2.1-1.9c-0.1,0.8-0.3,1.4-0.4,2.2c-1.6-0.8-1.9-2.3-3.1-4.6v8c-1-2.6-1.4-3.6-1.9-4.9
		c-0.3,0.4-0.6,0.8-1,1.2c-1.6-2.7-1.1-5.6-1.6-8.6c-1,1.3,0.2,3-1.1,4c-1.2-1.5,0-3.9-2.1-4.9c0.4-0.9,0.7-1.9,1.4-2.7
		c0.8-0.9,1.6-0.2,2.4,0.3c6.9,3.9,14,4.3,21.2,1c4.4-2,5.8-5.5,4.7-10.1c-1.5-6-5.8-10.3-10.3-9.9c-5.3,0.4-8.2,3.5-9,8.6
		c-0.5,3-0.8,5.6-4.8,5c0.5-6.4,3.1-11.6,8.8-14.5c3.5-1.8,7.4-2.1,10.8,0.6c5,3.9,8.3,9,8.1,15.5c-0.1,3,0.2,5.6,2.9,8.5
		c-1.9-1.4-3-2.1-5-3.5C290.6,539.5,291.1,540.7,291.6,541.9z M323.1,565.5c0.9,2.7,1.4,4.2,1.9,5.6
		C323.1,568.8,322.2,567.1,323.1,565.5z M340.1,589.4c-8.1-3.4-13.2-9.4-15.1-18.1c1.9,2,3,4.9,6.6,5.9c-0.7-1.2-1.2-2.1-1.7-2.9
		c1.8,2.6,6,1.4,7.2,4.6c1.1,2.9,4.3,3.8,6.1,7.1c-5.8-1.6-9.6-5.3-14.7-8.6C331.4,583.3,335.8,586.4,340.1,589.4z M338.8,568.2
		c5.4,3.6,11.4,6.2,17,12.1C347.6,577.9,343,573.2,338.8,568.2z M404.6,429.8c0.3,1.7,2.9,4.5-1.6,5.1c0.9,3.3,3.5,6.1,6,10.8
		c-3-2.8-4.7-4.4-6.4-6c-0.2,0.1-0.4,0.2-0.6,0.3c2.1,3.8,4.2,7.6,6.9,12.4c-2.5-1.9-4.1-3.2-7-5.4c2,3.4,3.2,5.4,4.7,8
		c-1.6-1-2.6-1.6-4.6-2.8c2,5.8,6.5,9.3,7.8,15.7c-3.1-3.8-5.6-6.8-8.1-9.8c1.9,6.1,6.5,11.1,6.3,18.6c-1.5-2.6-2.6-4.7-3.9-7
		c-1.2,1.8,1.1,3.3-0.5,5.1c-0.8-0.9-1.6-1.7-3.5-3.7c2,4.5,3.4,7.6,5.3,11.8c-1.3-1.2-1.9-1.7-2.6-2.3v8.1c-1.9-2.6-1-7.1-5.8-7.8
		c2.5,5.4,1.8,11.1,2.8,16.6c-2.1-3.7-3.4-7.8-6.7-11.9c0.2,2,0.3,3.1,0.5,4.9c-1-1.5-1.6-2.3-2.2-3.2c-0.2,0.1-0.4,0.2-0.6,0.3
		c1,2.6,2,5.2,3,7.9c-0.1,0.1-0.2,0.2-0.4,0.2c-1-1.5-2-3-3.7-5.5c0.3,2.2,0.4,3.1,0.7,5.3c-2.6-4.9-3.8-9.2-7.4-12.1
		c0.9,2.6,1.7,5.3,3.2,9.7c-5.5-5.8-6.1-12.7-10.8-17c1,0.5,2,1.1,3.4,1.8c-4.7-10.6-11.4-19.3-17.6-28.4c-0.5-0.5-0.9-0.9-1.4-1.4
		c-2.5-2.1-5-4.2-8.6-7.2c2.6,5.1,5.5,8.4,8.3,11.5c0,1.5-1.5,0.6-1.8,1.7c1,0.5,2.1,1,3.3,1.6c-1.2,1.4-2.7,0.1-4.5,1.1
		c5.4-0.4,4.1,5.1,5.8,5.9c3,5.1,3.6,9.9,5.4,14.7c-4.8-1.2-4.4-8.4-10.6-8.6c2.6,4,6,7.3,7.1,11.3c1.7,6.2,6.5,11.5,5.3,18.7
		c-0.2,1,0.6,3.9,1.6,5.8c1.1,2,1.6,4.5,0,6.6c-1.9,2.4-0.6,4.2,0.7,6c-3.2,0.9-2.7,4.1-3.4,6.5c-0.5,1.4,1.3,2.3,2.6,3.1
		c1.6,1,2.5-0.3,3.7-0.9c1.7-0.9,0.5-2.1,0.5-2.9c0-1.6-0.3-3.2,1.3-3.9c1.7-0.7,2.9,0.8,3.8,2c1.1,1.2,1.9,2.7,2.9,4.2
		c-0.9,0.5-1.7,1-2.3,1.3c8.8,7.2,22,11.9,16.8,28.1c0.3,0,0.7-0.1,2-0.4c-3,1.5-5.1,2.6-4.8,5.5c0.9-0.5,1.8-0.9,4-2.1
		c-3.9,5-7.8,7.6-12,10.3c1.3-0.3,2.7-0.6,4.2-0.9c-0.2,2.7-3.3,2.8-3.9,4.8c0.9,1.3,1.8-0.7,2.9,0.2c-4.8,5-11.1,7.2-17.4,6.2
		c-6-0.9-11.6-4.2-17.3-6.4c-1.1,1.6-1.8,3.5-4.5,2c-6-3.3-12.3-6.1-15.5-13.2c-1.4,2.2,0.6,3.8-0.4,5.9c-1.1-1.3-2.1-2.5-3.2-3.7
		c-1.9,0.7-2.9,1.9-3,4.5c-1.8-3.3-3.7,0.7-6-2c0.6-0.9,1.8-1.8,3.8-2.8c9.9-4.8,17-12.9,20.9-23.4c1.4-3.9,3.2-5,6.7-2.4
		c2.8,2.1,5.7,4.1,8.6,6.2c0.5-5.1-2.5-10.5-6.8-12c1.1,2.3,2.7,4.1,2.3,6.6c-2.2-1.1-4.4-2.2-6.6-3.5c-0.9-0.5-2.6-0.6-1.8-2.2
		c0.8-1.5,1.7-0.1,2.6,0.3c0.7,0.3,1.4,0.5,3.8,1.3c-2.8-2.4-4.2-3.6-5.6-4.7c5-14.8,1.2-27.6-9-38.8c-9.7-10.7-22.1-11.9-35.5-9.5
		c7.2,1.1,14.3,2.4,21,5.6c-1.2-1.2-2.3-2.4-3.6-3.7c12.1,2.5,25.8,16.7,26.5,28c-0.6-0.9-1-1.4-1.5-2.2v3.1c-0.8-0.9-1.3-1.5-1.8-2
		l-0.6,0.3l2.6,5.6c3.5,3.7,2.1,9.3-3.3,12.7c-3.7,2.3-7.4,2.4-12.2,0.1c3-0.7,5-1.3,7.1-1.8l0,0c1.4-3.5,0.2-5.1-3.5-5.7
		c-2.1-0.4-3.9-2.1-5.9-3.1c-3-1.5-6.1-3-10.1-1.3c3.4,1.3,7,1.6,9.4,5.1c-1.9-1-3.3-1.8-4.8-2.5c-4.8-2.1-10.7,0.6-13.5,6.2
		c-2,4.1-0.3,8.1,4.6,10.9c6.9,3.9,14,2.5,20.9,0.7c1.1-0.3,4.1,2.7,3.3-1.9c1.2,0.9,1.9,1.5,3,2.3c-1.8-4.6,3-3.3,4-5.6
		c-1,8-6.1,13.5-10.8,19.2c-1.7,2.1-3.5,2.5-5.9,1.1c-3-1.9-7.6-0.2-9.1-5.2c-1,2.1,1,2.7,0.7,4.8c-3-2-5.7-3.8-8.6-5.8
		c1-0.8,1.7-1.3,3.4-2.7c-2.4,0.7-3.5,1-5,1.5c-0.6-3.5-3.2-2.1-6-2c1.7-1.1,2.8-1.9,3.9-2.6c-3.6-4.6-2.5-10.5-5-15.6
		c2.9,0.3,1.6-1.8,2-3.2c0.9,0.2,1.7,0.3,2.9,0.6c1-4.3,5.3-5.8,8.7-8.8c0.2,0.1,1.1,0.7,2.1,1.3c3.7-3.8,8.4,3.3,12.5-1.2
		c-2.7-1.4-5.3-2.7-7.6-3.8c-5.1,1.4-11.1-2.7-15.5,2.4c0.3-0.7,0.6-1.4,1.4-3c-5.4,3.1-9.8,10.8-15.4,1.2c-3.3,4.3-6.5,0.4-9.9,0
		c0-0.2,0.2-0.8,0.4-1.6c-1.7-0.8-2.2,1.3-3.7,1.4c0.3-0.8,0.5-1.6,0.8-2.5c-2.2,0.2-2.6,2.2-4.2,3.1c-1.5-2.8-2.3,0.4-4.1,0.6
		c0.6-1.5,1.1-2.8,1.7-4.1c-0.1-0.1-0.3-0.2-0.4-0.3c-1.3,1.8-2.6,3.6-3.9,5.4c-1.6-0.8-0.2-2-0.9-3.2c-0.8,1.4-1.4,2.6-2.2,4.1
		c-0.5-0.7-0.9-1.2-1.2-1.5c-5.7,2.6-8.2,8.9-14.4,12.1c-5.5-11.2,1.2-19.5,6.3-28.4c-1.1,0.1-1.8,0.2-4.2,0.5
		c2.9-1.7,4.4-2.6,6-3.6c-2.9,0.1-6-0.2-7.9,2.6c-12.6,18.6-13.2,26.1-3.4,39.2c-1.8,2.5-2,2.6-4.6,2.2c-0.7-1.2,0.7-2,0.6-3.5
		c-0.9,0.4-1.8,0.8-3.3,1.6c1.1-1.5,1.7-2.4,2.1-3.1c-1.6-5-3.2-9.8-4.8-14.9c-1.7,0.9-2.7,1.2-2.3,4.1c0.7,5.1,3.7,9.6,3.5,14.9
		c-0.1,1.9,1.4,3.6,3.4,4.8c1.6,1,0,3.1,0.6,4.6c-2,2.7-6.7,2-8,6.3c0.8-0.3,1.4-0.5,2.1-0.7c-1.9,3-4.9,4.3-7.6,6
		c2.1-2.5,3-5.8,5.3-8.3c-4.3,3.3-10.2,4-14,8.9c3.1,0.1,4-2.6,6.6-3.4c-4.3,5.5-10.7,6.8-15.5,10.6c0.8-3.4,4.2-4.4,6.2-6.8
		c-3.1-2.9-5.1,0-7.3,1.1c-1.9-3,0.4-4.7,3.1-7.3c-4.3,1.2-7,2.7-10.2,6.4c1.3-2.4,1.8-3.4,2.6-4.9c-1.3,0.4-2.2,0.6-4,1.1
		c1.8-2.8,2.6-5.5,6-4c2.1,0.9,3.6-0.1,5-1.4c0.8-0.8,0.6-1.5-0.2-2.4c-1.7-1.8-3-0.3-4.3,0.5c-2,1.1-4.1,2.1-6.3,2.8
		c2.1-3.5,6.1-4.2,9.5-6.2c-1.4-1.7-2.7-3.1-3.9-4.7c0.4-0.5,0.8-1.1,1.3-1.8c-0.9-0.2-1.6-0.3-2.3-0.4c1.9-2.5,0.5-3.6-2.1-4.5
		c1.4-0.7,2.4-1.2,2.6-1.2c2.5-8.4,3.8-16.4,14.7-16.9c-1.8-2.3-3.7-0.9-5.2-1.7c1.3-1.9,4.2-1.3,5.3-3.4c-0.6-1.7-2-0.6-3.7-0.8
		c2.9-1.1,1.3-4.4,3.7-5c-1.2-3.8,2.8-6.9,1.4-10.8c3.7-5.9,2-15.2,10.5-19c-1.9,0.5-3.8,1.1-6.2,1.8c3.3-3.5,5.4-7.6,10.6-8.3
		c-1.1-0.2-2.3-0.4-3.7-0.7c-0.4-4,3.6-4.1,5.6-6.4c-1,0.2-1.7,0.3-2.6,0.4c0.8-2.1,3.5-2.4,3.8-4.6c-0.2-1.1-1.3,0.1-1.5-0.2
		c-0.6-10,5.8-16.5,10.9-23.9c-0.9,0.1-1.6,0.1-2.3,0.2c8.9-5.5,15.3-14.9,27.5-17c-4.2-1.8-6.9-4.5-11.1-2.4
		c-5.6,2.8-11.7,3.8-18.2,3.4c-0.5-2.9,1.7-4.9,3.4-7.7c-1.3,0.3-2,0.4-3,0.6c1.2-6.5,3.8-11.9,10-14.7c2.7-1.2,2.4-2.8,1-4.7
		c-1-1.4-1.5-2.9-0.4-4.8c0.9,0.8,1.6,1.4,2.7,2.4v-7.4c1.2,0.9,1.9,1.4,2.6,1.9c8.2-11.1,11.2-17.7,10.1-22.6c-2,1.4-1.5,3.7-3,7
		c0.6-5,1-8.5,1.5-12.7c-5.6,3.1-6.7,8.5-9.8,12.4c-1-0.9,0.7-4.8-2.1-4.3c-2.8,0.5-2.1,3.7-1.4,6.8c-5.5-3-11.8-3.5-15.1-9
		c1-2.1,2.6-0.2,4.1-1.2c-2.8-4.8-8.9-8.6-4.9-15.7c2.1,0.2,3.2-0.8,1.4-3.8c4.3,1.9,3.6-0.7,3.2-3.2c1.4,0.4,2.4,0.7,3.8,1.1
		c-0.3-1.1-0.6-1.8-0.8-2.6c0.8,0.1,1.4,0.1,2.1,0.1c0.2-0.3,0.4-0.5,0.6-0.8c-1.3-0.6-2.5-1.2-4.6-2.2c5.3-2.2,7.8,0.5,11.2,2.6
		c-1-1.9-1.6-3.1-2.3-4.3c3.8-3.9,7.7-4.9,13.2-0.5c-1.8-3.8-3-6.2-4.3-8.8c1.6,0.1,1.6,0.1,6.4,5.2c1.1-1.7-1.2-3-0.4-5
		c6.2,3.6,6.8,10.2,8.9,17.6c0.8-7,1.2-12.7-3.3-16.2c-5.9-4.7-12.7-7.8-20.7-5.4c-0.3,1.1,1.5,1.9,0.3,2.9
		c-0.8,0.8-1.8,0.4-2.6-0.1c-1.1-0.7-2-0.3-2.8,0.3c-1.3,1,0.6,1.8,0.2,2.7c-0.8-0.1-1.6-0.2-1.8-0.3c-4.1,2.8-8.7,2.5-11.1,6.3
		c0.1,0.1,0.5,0.6,1,1.2h-4.1c2,3.6-1.4,2.7-3.5,3.6c1.8,0.6,2.8,0.9,4.6,1.4c-2.7,0.2-3.5,3.1-6.2,2.5c0.9,0.6,1.8,1.2,3.2,2.2
		c-3.9,0.6-6.9,1.9-8.9,5.1c0.5,0.5,1.3,1.3,2.9,2.7c-3.9-1.2-6.1,0.1-7.7,2.7c-1,1.5,1.2,1.3,1.2,2.4c-1.5,0.2-3,0.4-4.6,0.7
		c-0.7,1.1,1,1.5,1.1,2.6c-1.2,0.5-2.4,1.1-3.8,1.7c2.9,1.4-0.9,3.3,0.6,5c-0.8,0.1-1.5,0.2-2.9,0.4c1.2,0.9,1.9,1.5,2.7,2.1
		c-1.1-0.1-2.2-0.1-3.2-0.2c-0.5,1.3,0.9,1.1,0.9,1.4c-3.8,3.1-2,9.6-8,11.3c1.1,0.6,1.7,0.9,2.5,1.3c-2.4,2.1-4.8,4-7.6,6.4
		c1.8,0.3,3,0.5,3.5,0.6c0.1,7.2-2.2,13.1-9.8,15.7c0.6-3.3,3.5-5.7,3.2-9.8c-1.7,1.4-3.1,2.6-5.2,4.4c2.9-6.3,1.2-12.3,3.4-18
		c-0.7,0.3-1.2,0.5-2.2,0.9c3.5-6.7,5.2-13.5,10-20.1c-2.3,1.2-3.6,1.9-4.9,2.6c-0.1-0.1-0.2-0.2-0.3-0.4c2.3-2,4.5-4,8-7
		c-5.2,1.3-7.5,3.8-11.3,6.9c3.3-6,7.2-9.2,11.6-12.3c-2.4,1-4.9,1.9-8,3.1c3.7-4.3,7.6-6.9,14.6-8.1c-6.1-0.8-8.6-1.9-3.4-5.4
		c-1.7,0.5-3.5,1-6,1.7c3.3-3.9,7.9-3.7,11.4-5.8c-1.6-1.3-3.2-0.1-5.3-0.7c3.1-1.6,5.7-2.9,8.3-4.2c-0.1-0.2-0.1-0.4-0.2-0.6
		c-2.4,0.5-4.8,1.1-6.6,1.4c7.9-10.5,21.7-12.1,32.9-19c-1.2-0.5-2-0.9-3.1-1.5c8-4.7,13.6-13.3,24-14.1c-1.6-0.2-3.1-0.3-4.9-0.5
		c2.1-1.1,4.8-0.2,6.7-2.1c-1.5-1.4-3.3,0-5.5-1c3.2-0.6,5.7-1.1,8.8-1.7c-3.2-2.1-5.9-0.8-8.4-1.1l0.1,0c-2.8,1-5.5,2.1-8.2,3.1
		c0.3,0.1,0.8,0.2,2.2,0.5c-3.7,1.5-6.6,2.6-8.6,3.5c-2,5.3-6.4,6.8-8.8,8.6c-3.7,8.4-11.6,3.7-16.7,8.6
		c5.1-9.2,12.9-13.5,19.9-19.2c-1.1-0.3-1.6-0.4-1.6-0.4c18.5-16.5,40.5-13.7,62-9.4c-3,4.2-4.2,5.3-6.7,5.8
		c0.6,1.2,1.2,2.3,1.8,3.3c4.3,0,3.5-4.8,6.4-6.4c-0.5,1.4-1,2.4-1.7,4.3c4-1.8,6.2-4.7,9-6.9c1.9,3.2,3.6,0.5,5.3-0.3
		c2-0.9,3.8-2.2,6.1-2.8c-0.8,0.9-1.6,1.7-2.6,2.9c11.5-0.3,21.9-7,34.3-3.7c-3.2,0.7-5.6,1.2-8,1.7c0,0.3,0.1,0.6,0.1,1
		c4.3,0.3,8.7,0.5,13,0.8c0,0.2,0,0.3,0,0.5c-2.8,0.2-5.5,0.3-8.7,0.5c4.3,4,9.5,2.7,13.8,4.8c-1.9-0.1-3.7-0.3-6.4-0.5
		c3,4.1,7.4,1.9,11.2,3.7c-2.1,0.1-3.6,0.2-6,0.3c8.3,3.3,16.6,4.2,24.6,8.3c-4.7,0.3-8.4-1.4-13.1-0.2c6.3,2.7,12.7,3.2,18.1,7.8
		H391c3.2,1.5,6.6,2.4,10.4,5.2c-3.1-1.1-5-1.9-7-2.6c-0.1,0.2-0.2,0.5-0.4,0.7c2.1,1.4,4.3,2.8,7.5,5c-2.3-0.6-3.4-0.9-4.9-1.4
		c3.2,6.3,9.4,9,13.5,13.8c8.8,10.2,10.8,21.6,5.9,34.5c1.7-15.5-2.8-28.4-15.2-39.6c1.2,3.9,4.3,5.5,4.4,8.6
		c-1.4,0.8-1.8-0.9-3.2-0.8c1.4,2.9,2.8,5.7,4.7,9.6c-2.9-2.3-3.8-5-6.5-5.9c2.3,6.3,7.1,11.5,7.2,19.2c-1.1-1.7-1.9-2.9-2.7-4.1
		c-0.2,0.1-0.4,0.2-0.7,0.3c1.4,3.2,2.7,6.4,4.2,9.8c-2.5-2.5-6.1-9.7-8.5-16.9c-2-6.1-5.2-11.2-12-15.1c3,5.6,5.5,10.2,8.1,15
		c-0.8,0.2-1.5,0.4-2.3,0.6c0.2,0.8,0.5,1.6,0.9,3c-1.8-1.5-3.1-2.7-4.4-3.8c7,8.7,13.2,17.9,17,28.5l-8.4-14.4
		c4.4,11.9,9.6,23.3,11.3,36c1.7,12.8-2.3,25-3,37.3c-1.4-1.9-1.5-5.1-4.3-7.7C403.4,424.9,404.2,427.3,404.6,429.8z M385.5,500
		c-1.7-5.2-5.9-8.8-8.7-13.3C382,489.6,384.9,494.1,385.5,500z M253.9,420.7c2.3-5.1,3.3-5.8,7-4.8
		C258,417.3,257.9,421.7,253.9,420.7z M251.5,376.9c2.7,4.7,5.4,9.5,8.6,15.2C253.2,388.5,252.8,382.5,251.5,376.9z M232.4,312
		c0,0,0,0.3,0,0.5c-2.4,0.4-4.5,2.2-7.7,1.8c2.1-3,4.7-3.8,8.2-4.8c-0.9,1-1.4,1.6-2.2,2.4C231.5,312,231.9,312,232.4,312z
		 M421.2,553.5c-4.4-5.4-3.2-19,2.2-25C429.5,531.4,428.2,547.3,421.2,553.5z M432.4,542c-1.1-4.5,0.8-9.7-2.5-14.4
		c-0.3,0.9-0.6,1.5-0.9,2.4c-1-2.3-1.6-5-5-4.3c0.4-1.8,2.2-3,1.6-5.2c-4.9,1.4-7.1,6-10.8,9.6c-0.5-9.7,6.9-14.2,11.5-20.6
		c-2.6-0.1-4.3,1.6-6.6,2.2c1.7-1.4,3.5-2.8,5.5-4.4c-2.4-1.2-3,0.3-4.3,0.3c-0.1-3.4,2.8-5.6,3.5-8.5c1.5-6.2,4.8-7.4,11-3.9
		c-1.4,0.8-2.7,1.5-5.5,3.1c2.9-0.4,4.2-0.6,6.2-0.9c-1.4,1.3-2.4,2.1-3.3,2.9c-1,1-1.6,2.1-1.6,3.6c2.2,0.8,3.4-2.5,5.7-1.1
		c0.7,2.5-1.9,4.7-0.9,7.6c0.5-0.7,1-1.2,1.6-2C438.4,520.2,437,531.4,432.4,542z M458.7,575.9c-2.9-6-1.3-12-1.5-17.8
		c-0.3-6.4,1.8-11.6,8.9-13.3C471.7,549.6,467.8,568.4,458.7,575.9z M489.6,501c-2.5,3.7,1.2,8.5-2.4,12.2c-0.5-1.2-1-2.3-2-4.5
		c0.2,6.2,1.5,11.2,0.5,17.4c-2.8-6.5,0-13.2-4.6-18.1c-0.1,0.4-0.3,0.8-0.4,1.2c0,0,0-0.1,0-0.1c0.2,3.7,0.6,7.4,0.4,11
		c-0.2,3.1,0.4,5.7,3.1,9c-0.9-2.4-1.4-3.7-1.9-5c4.9,6.9,0.2,13.5-0.1,20.5c-2-0.9-1.6-2.6-2.8-4.2c0.2,3.3,0.3,6,0.5,8.7
		c-2.9-5.4-1.2-11.5-2.6-17.4c-2.3,2.2-3.4,4.6-3.9,7.4c-0.5,2.7-1.1,5.4-2.1,8c-0.5-7.6-0.8-15.1,2.3-22.5
		c-3.9,6.4-6.6,13.7-13.3,18.9c0.2-1.3,0.3-1.8,0.5-2.9c-3,3.4-5.1,7.1-8.9,9.8c0.1-1.1,0.1-1.5,0.2-2.2c-0.8,0.7-1.6,1.2-2.3,1.8
		c-0.2-0.2-0.4-0.3-0.7-0.5c2.8-4.3,5.6-8.6,8.4-12.9c-4.1,4-7.9,8.3-12.7,11.6c4-5.7,8.4-11.2,11-17.7c-3.4,2.5-4.7,7-9.8,10
		c5.2-7.8,9.6-14.4,14-21c-0.1-0.1-0.2-0.2-0.3-0.3c-1.6,1.7-3.3,3.5-4.9,5.2c-0.2-0.1-0.5-0.3-0.7-0.4c1.8-3.2,3.6-6.3,5.7-10
		c-1.1,0.6-1.8,1-3,1.7c1.3-2.5,2.2-4.4,3.4-6.7c-1.3,0.5-2.2,0.9-3.2,1.2c-0.3-3.5,2.8-5.8,3.8-9.9c-4.4,4.1-6.3,9.3-11.2,11.9
		c-0.7-5.7,2.3-10,5-14.1c-4-1.9-2.6-4.8-1.9-7.3c-0.9-1.4-1.8,0.1-2.9-0.5c1.6-6,6.1-10.2,10.5-13.9c8.1-6.9,20.8-6.7,26.8,0
		c-1.5,0.8-2.1-1-3.5-1.1c0.2,0.7,0.3,1.3,0.5,2.2c-0.9-0.7-1.8-1.3-3.5-2.6c2.9,5.4,5.7,9.6,7.4,14.2c1.7,4.5,2.2,9.5,2.6,14.5
		C490.5,502.7,490.1,501.9,489.6,501z M475.1,445.7c-4.1-9.5-3.5-20.2-7.7-30.9c5.7,4.7,9.8,9.3,12.4,15.2c3.3,7.5,5,15.3,5.2,23.5
		l0.1-0.1c2.6,5.7,5.2,11.4,7.9,17C489,468.4,478.8,454.1,475.1,445.7z M494.3,574.9c-1.3-11.9-3.2-23,3.1-33.5c0.8-1.3,2-2.8,4-2.4
		c2,0.4,2.2,2.2,2.7,3.8C507.2,553.9,503.3,567.6,494.3,574.9z M526.7,552.3c-0.6-1.3-1-2.3-1.8-4.1c-0.2,3.5-0.3,6.1-0.5,9.8
		c-3.9-7.4-1.6-14.9-4.2-21.4c-2,6.8-0.3,13.4,0.6,20c-4.1-3.8-6.3-17.3-3.3-24.8c1.6-4,0.8-8.4,3.1-12.1c0.4-0.7,0-1.6-1.2-1.9
		c-4,4.4-3.2,10-3.5,15.6c-0.9-0.7-1.4-1.1-2.1-1.6c-1.8,5.5-0.7,10.9-0.6,16.3c-1.3-7.5-7.4-13.1-7-22c-1.5,1.7-2.1,2.4-3.3,3.6
		c0.5-1.4,0.7-2.1,1.3-4.3c-2.8,3.4-4.6,5.7-7,8.5c0.2-2.1,1.7-3.9-1.5-4.4c4.5-4,9.1-7.1,9.5-13.3c0.1-2.1-0.1-3.6-2.2-4.3
		c1.3-2.6,2.7-5.2,4.5-8.7c-5.1,3.9-6.5,9.4-10.3,12.9c1.9-5.2,6.5-9,8.5-14.8c-3,1.2-3.7,3.9-5.9,5.6c1.9-6.6,8.6-10.2,8.1-17.8
		c-0.1-0.1-0.7-0.4-1.4-0.9c1.9-1.9,3.7-3.5,6.4-3.3c4.3,0.4,12.4,7.8,13,11.8c-0.6,1.1-1.5-0.1-2.2,0.3c0,2.8,4.7,5.4,0.3,8.5
		c-1-1.1-1.9-2.1-3-3.3c0.3,11.7,3.4,22.9,3,34.4c0.3-0.7,0.7-1.3,1.1-2.3c1.8,3.1,3,6.1,3,10.6c-1.3-2.4-2-3.9-3.5-6.6
		C524,544,527.3,547.7,526.7,552.3z M502.7,512.3c-2.3,3.9,0,9.9-5.8,13.2C496.3,519.4,499.5,515.8,502.7,512.3z M527.8,535.5
		c-3.6-5-4.5-17.7-1.7-20.5C528.7,516.5,529.9,530,527.8,535.5z M502.8,453.9c8.5,12.4,14,27.2,27.1,36.2
		C515.2,482.3,510.9,466.6,502.8,453.9z"/>
	<path d="M144.5,376.1c10.9-5.1,23.1-7.4,33.1-14.8c-4.5,8.1-12.9,11.2-19.7,16.5c5.5-2,10.1-5.7,15.1-8.5c-4.6,5-9.7,9.5-16.6,10.8
		c-14.8,2.7-25.9,13.1-28.8,28.2c-2.5,12.7-5.2,25.2-12.2,36.4c-3.3,5.3-6.7,10.7-12.1,13.8c-7.7,4.4-15,10.1-24.6,10.4
		c-3.6,0.1-7.2,1.2-11,1.4c2.6-1.3,5.2-2.5,8.7-4.2c-7.8-1-14.7,1.4-21.7-0.7c2.7-0.6,5.3-1.4,8-1.9c7.9-1.4,16-1.9,23.7-4
		c9.4-2.6,16.4-8.8,23.3-16c10.3-10.9,12.9-24,15-37.5C126.7,392.7,133.4,382.9,144.5,376.1C144.5,376,144.5,376.1,144.5,376.1z
		 M102.6,457.5c5.4-5.3,9-10.4,11.3-16.3C110.3,446.3,106.8,451.4,102.6,457.5z"/>
	<path d="M446,375.9c-2.5-3.6-6-6.4-7.6-10.9c9.1,11.2,20.1,18.3,35.2,16.2c-6.9-2.7-13.5-6.4-19.9-10.4c-6.3-4-12.5-8.1-17.1-14.6
		c0.6-0.1,0.9-0.2,1-0.1c7.1,9.1,17.5,11.4,28.1,13.6c8.1,1.6,16,3.9,23.7,7c10.1,4.1,16.7,11.6,21.2,23c-6.4-4.9-12.5-7.6-18.9-9.8
		c6.4,5,12.4,10.3,16.8,17.2c-7.8-7.8-15.9-15.2-26.6-19.1c-4.9-1.8-10.1-1.5-15.1-2.4C458.9,384.3,451.9,381,446,375.9L446,375.9z
		 M454.9,368.8c7.6,5.9,16.2,10.2,25.2,13.3c9,3.1,17.9,6.4,26.6,12.1C493.2,376.8,472.6,375.9,454.9,368.8z"/>
	<path d="M445.9,375.9c6.5,8.6,15.4,14.2,24.6,19.3c14.4,7.9,20.1,21,22.6,36.2c-0.9-2.2-1.9-4.3-2.6-6.6c-3.6-11.6-11-20-21.1-26.4
		c-8.3-5.3-16.2-11-22.1-19C446.5,378.4,445.2,377.5,445.9,375.9C446,375.9,445.9,375.9,445.9,375.9z"/>
	<path d="M97.6,451.4c-8.2,9-33.1,11.8-45.6,4.7C68.5,458.6,83.6,460.1,97.6,451.4z"/>
	<path d="M506.3,432.1c-10.2-9.1-14-23.3-25.2-31.6C493.8,407.6,498.4,421.2,506.3,432.1z"/>
	<path d="M360.1,448.3c-5.2-3.4-4.4-10.9-10-14c6.4,1.5,19.8,17.3,18.7,22c-2.5-2.2-4.9-4.4-7.4-6.5
		C361,449.2,360.6,448.7,360.1,448.3z"/>
	<path d="M109.6,535.1c1.4-2.4,2.8-4.7,4.3-7.2c2,3.2-1.2,10.3-4.7,11C108.1,537.5,108.8,536.3,109.6,535.1z"/>
	<path d="M72.8,518.3c-0.8-3.5-1.7-7-1.1-11.1c3.9,4.6,4.4,9.1,1.8,14C73.3,520.3,73,519.3,72.8,518.3z"/>
	<path d="M349.1,515.1c-0.5,3.7,0,7.9-3.3,10.6c-1.4,1.1-3.1,3.6-5.1,0.5c0,0,0,0,0,0c5.5-2.1,8.4-5.7,6.3-12.3
		C348,514.5,348.5,514.8,349.1,515.1z"/>
	<path d="M398,390.4c-2.7-2.1-5.3-4.3-8.7-7.1c5,1.3,7.5,4.6,11.2,6.6c-3.2-2.7-0.1-6.1-1.3-9c-1.2-2.9-2.9-5.4-5.3-7.4
		c1.1,0.4,2.2,0.8,3.5,1.2c-0.2-2.2-1.5-3.1-2-3.7c1.4-4.4-7.5-6-1.8-10.4c-3.3,0.6-3.7-2.6-6.2-3.5c3-2,4.2,1.2,6.3,1.3
		c-1.7-5-6.6-2.1-9.5-4c0.6-0.4,1-0.8,1.6-1.3c-1.7-1-4.9,0-4.8-2.6c0.1-2.8-1.6-4.3-2.8-6c-2.8-3.8-2.2-8.9-5.8-12.6
		c-0.9-1-2.9-1.5-3.1-3.3c0.3-0.3,0.7-0.6,1.5-1.2c-3.7-0.8-3.6-6-7.5-5.8c-1.9-4.5-5.8-7.1-8.9-10.3c-4.9-5-8.6,2.3-12.9,0.8
		c-1.4,3.9,3.8,3.2,3.1,6c6.7-1.1,1.6,3.9,3.1,5.4c1.9-0.7,2.9-3.4,5.5-2.7c1,2.7-2.8,7,2.9,8.1c-1.2,1.4-2.2,2.5-3.9,4.5
		c3-1.2,4.6,0.1,6.1,0.4c-0.7,10.3-3,19.9-12.6,27.1c0.5-2.9,0.8-4.9,1.3-7.6c-2.5,1.5-4.4,2.8-6.4,4c-0.4-3.5-1.8-0.8-2.9-0.1
		c0.4-2.2-2.8-2.3-1.3-5.4c-1.4,1.6-1.9,2.1-2.5,2.7c-3.1-3.8-3.2-3.8-6.4-5.2c-2.2,6.3-0.8,10.9,2.3,16.9c1.5,2.9,4.4,6.1,3.1,10.1
		c-0.6,1.9-0.3,3.3,1.2,5.1c0.3-0.6,0.7-1.3,1-2c-0.2,2.4,0.7,3.8,2.3,4.9c0.9-0.3,1.8-0.6,3-1c-0.4,1-0.6,1.6-0.9,2.2
		c0.3,0.1,0.5,0.3,0.8,0.4c3.1-5.4,6.1-10.9,10.1-17.8c-2.3,1.8-3.2,2.5-4.4,3.5c3.3-5.7,5-11.8,10.7-15.7
		c-7,12.5-5.9,28.6-18.8,37.8c1.2-0.3,2.5-0.7,3.8-1.1c0,1.1-1.7,1.2-1,2.6c0.8-0.2,1.6-0.5,3-0.9c-0.9,1.3-2.1,1.9-1.4,3.3
		c0.7,0.1,1.4,0.2,2.2,0.2c-0.7,2.3-3.9,0.8-4.2,3.3c1.9,0.7,3.4-0.9,5.4-0.9c-0.7,1.2-2.3,1.6-2,3.1c1.6,1.4,2.8-0.7,4.3-0.4
		c-0.8,1.2-0.5,2,0.1,3.5c1.5,3.7,6.5,4.2,6.5,9.6c-0.1,7.5,3.7,14.4,7.2,21c0.3,0.5,0.7,0.9,1.6,1.9c-0.2-1.5-0.3-2.2-0.4-3.1
		c0.6,0.4,1.1,0.7,3.1,2c-4.5-6.3-0.8-12.7-4.6-17.9c1.3,0.6,2.3,1.3,3.1-0.4c2-4.1,6.7-3.3,9.5-3.4c3.5-0.1,7-0.8,10.5-0.9
		c1.5-0.1,4.9-0.3,3.8-4c6,1.7,8.3,0,8-5.9c-0.1-2.2,0.8-2.8,2.8-2.2c-0.1-3-1.5-5.6,0.4-8.4C400.7,393.2,399.5,391.6,398,390.4z
		 M367.8,380.4c2.2-1.8,4.5-3.2,7.6-1.7c4,2,8.1,9.7,7.1,14.2c-0.3,1.3-0.6,3-2.4,2.5c-1.7-0.4-0.6-1.8-0.4-2.8c0.1-1,0.2-2,0.3-3.3
		c-1.2,0.3-2,0.5-2.9,0.8c-1.2-6.3-6.5-4.2-10.7-5.6C365.3,382.7,366.4,381.5,367.8,380.4z M369.1,394.7c-3.6,0-3.6-5.6,0-5.6
		C372.7,389.1,372.7,394.7,369.1,394.7z M362.3,401.8c-8.6-5.4-9.7-16.3-1.9-22.1c0.2,2.3,0.5,4.3,0.6,5.7
		c-4.7,4.2,0.1,8.3-1.3,12.2c2.5-0.2,5.8-2.1,4.7,2.7C363.8,400.7,363.1,401.3,362.3,401.8z M364.6,400.2c1.4-1.3,2.8-1.4,4.8-1
		c2.8,0.6,5.9,1.4,8.2-1.6c0.5-0.7,1.4,0.2,1.8,1c-3.8,5.2-8.8,6.9-13.2,4.6C364.8,402.6,364,401.8,364.6,400.2z M367.3,407.6
		c7.2,0.2,12.2-2.3,16.7-5.9C382.5,406.8,373.6,410,367.3,407.6z"/>
	<path d="M320,311.2c-2.5,1.6-2.6,4.2-3,6.8c-1.6,8.7-3.2,17.4-4.5,26.2c-0.5,3.7,1,6.8-0.1,10.5c-0.9-3.2-1.7-6.3-2.9-10.6
		c0.2,4.5,0.4,7.8,0.6,11c-1.9,0.4-2-0.8-2.7-1.5c0.2,11.3,4.6,22.3-0.1,33.7c-1.2-1.7-0.9-3.4-0.7-5c0.2-1.7,0.5-3.4,0.9-6.2
		c-1.7,2.8-1,5.7-3.4,7.1c-1.6-1.3-0.6-3-1.2-4.6c-0.6,5.6-1.1,11.1-1.7,17.2c-3.2-3.7-2.9-8-4.9-13.3c0.5,5.8,0.8,9.8,1.1,13.8
		c-4.8-16-6.3-32.4-5.8-49.1c-0.6,5.1-1,10.2-3.6,14.9c3.8-14.1-1.5-28-0.8-41.8c1.6-1.1,3.2,0.8,4.4-1.8c0.8,4.8,1.4,8.7,2.1,12.9
		c1.6-3.3,1.5-6.8,1.9-11c8.3-0.1,5,7.7,8,11c0.9-3.3-2.4-6.9,0-10.1c1.6-0.1,1.3,1.3,2.1,1.7c0.1-1,0.1-2,0.2-3.3
		c1.8,0.9,1.5,2.6,2.6,4.3c0.2-3,0.4-5.5,0.6-7.9c0.3-0.1,0.5-0.1,0.8-0.2c0.5,1.7,1,3.4,1.6,5.6C313,312.4,315.3,309.7,320,311.2
		L320,311.2z"/>
	<path d="M256.8,469c-1.4-0.7-0.3-1.1,0.3-2c3.2-4.8,8.2-5.6,13.2-5.4c3.7,0.1,7.6,0.6,10.8,4.1c-1.8-0.2-3.2-0.3-4.8-0.5
		c0.8,1,1.4,1.8,2.6,3.4c-3.5-2.1-6.4-3.2-10.6-4c2.1,1.3,3.2,2,4.3,2.6c-0.1,0.2-0.1,0.4-0.2,0.6c-1.6-0.3-3.3-0.7-4.9-1
		c-0.5,2.9-2.9,0.7-4.4,1.8c1.6,0.7,3.1,1.4,5.2,2.3c-2.2,0.3-4.7-1.8-5.5,1.5c0.8,0.3,1.6,0.7,2.5,1.1c-4.4,2.6-8.7,5.1-13.3,7.8
		c0.9,0.5,1.6,0.9,2.5,1.5c-1.3,0.5-2.3,0.8-3.3,1.2c0.4,1.5,1.8,0.1,2.4,1.1c-1.4,1.3-3.1,2.1-4.1,4.4c-2.3,5.6-4.8,11-6.4,16.8
		c-0.7,2.4-2.2,4.9-5.9,5.2c0.9-2.9,3.3-5.6,0.8-8.7c2.8-1.3,3.5-4.2,4.1-7.3c1.4-7.1,3.1-14.1,10.2-17.9c-0.8-0.2-1.6-0.4-2.5-0.7
		c0.8-2.1,2.7-2,3.9-2.6C250.9,470.2,256.1,471.2,256.8,469z"/>
	<path d="M391.3,442.2c-0.7-2.3-1.1-3.7-1.7-5.7c-0.7,1.6-1.2,2.7-1.8,4.3c-0.6-1-0.9-1.6-1.4-2.3c-0.4,5.4,0.5,10.7-1.7,15.7
		c-0.6,1.3-0.8,2.6-2.4,1.2c-3-2.7-6.3-15.7-4.9-19.7c2.1,1.9,1.8,4.5,2.3,6.7c0.5,2.3,0.8,4.6,1.4,6.9c0-6.7-3.3-13.8,2.8-19.7
		c1.8,0.4,0.7,2.7,2.5,3.6c-1.6-3.7,0.8-5.6,2.8-7.8c1.2-0.3,1.1,1,1.7,1.4c0.4-1.7,0.8-3.3,1.1-4.9c1.5-0.3,1,1.3,2,1.6
		c0.2-0.8,0.4-1.6,0.6-2.3c0.4,0,0.7-0.1,0.7,0c1.3,1.6,1.7,4,0.8,5.2c-2.8,3.7-4.6,7.4-3.5,12.1
		C392.7,439.2,391.9,440.3,391.3,442.2z"/>
	<path d="M360,508.8c-2.6-5.6-2.6-12-6.6-17.3c-2.5-3.4-5.4-4.7-10.4-5.7c4-0.9,6.7-1.6,9.7-2.3c-1.1-2.5-2.1-4.7-5.6-4.4
		c0.6-1,0.9-1.6,1.3-2.3c-2-1.2-3.9-0.3-6.2-0.1c0.5-0.6,0.8-1.1,1.1-1.6c-1.3-0.5-2.7-1-4.2-1.5c3.8-3.4,11.5-2,15.5,1.4
		c6.8,5.8,5.9,14.1,6.1,21.1c0.2,4.3,2.7,8.3,1,12.8C361.4,508.9,360.7,508.8,360,508.8L360,508.8z"/>
	<path d="M316.2,453.9c0.6,2.7,1.5,5.4-1.2,8.4c1.7-0.2,2.4-0.3,3.3-0.4c-0.7,4.7-5.6,3.6-8,5.7c-1.4-2.9-3.4-3.3-5.9-0.7
		c-3.4-7.4,2-12.5,4.7-18.1c3.7-1.2,2.4-6.2,5.3-8C316.7,445.1,312.6,450.1,316.2,453.9L316.2,453.9z"/>
	<path d="M362.2,564.6c2.6,3.3,6.5,3.9,10.2,4.4c2.8,0.4,5.8-0.2,7.1,3.3c-6.6,6.1-13.3,2.1-19.9-0.3c-2-0.7-3.4-2.2-3-4.6
		c1.6-1.1,3,1.2,4.9-0.4c-3.9-3.4-8-5.9-13.2-6.1c-1.3-1.7-3.7-2.6-3.8-5.2c-0.3-0.8-0.6-1.7-1.1-3c1.3,0.4,2.2,0.6,3.6,1
		c-0.9-1-1.6-1.8-2.4-2.6c2.4-0.8,3.8,1.1,5.7,1.1c0,0-0.1,0-0.1,0c0.6,0.6,1.3,1.2,1.9,1.8c-0.8,1.4-2.9,0.2-3.4,2.2
		c3,3.2,6.1,6.3,11.2,5.9C360.7,563,361.5,563.8,362.2,564.6z"/>
	<path d="M254.8,447.2c2.9-1.5,0.8-5.5,3.8-6.8c0.2-0.1,0.7,0.7,1.2,1.2c1.2-1.3,2.5-2.7,3.7-4c0.3-1.6-1.5-1-1.7-2
		c0.8-5.7,15.1-17.3,19.5-15.4c-4.9,4.4-6.9,10.4-9.7,16.4c-3.9,1-6.2,5.9-10.9,7.3c0.7,0.2,1.3,0.4,2.4,0.6
		C260.3,446.4,257.8,447.1,254.8,447.2z"/>
	<path d="M350.3,552.3c-1.5-1.2-3-2.5-4.5-3.7c1.9-2.6,3.7-1.7,5.7-0.2c1.7,1.3,3.5,2.6,5.9,1.9c1,5.9,6.1,7.7,10.3,10.6
		c-3-3.6-6.2-7.1-9.4-10.5c-0.1-0.2-0.6,0-0.9,0c-0.9-2.6-3.4-2.8-5.5-3.4c-2.3-0.7-3.2-1.9-2.9-4.4c1.4,0,2.9,0,4.4,0
		c0,0-0.1,0-0.1,0c3.3,3.6,6.6,7.3,10,10.8c6.3,6.4,14,6.8,22.2,5c1.5-0.3,3-0.5,4.5-0.5c-6.2,1.5-11.7,6.8-18.8,3.6
		c-0.7,1.9,1.3,1.8,1.7,2.8c-1.7,1.2-3.3-0.2-4.9,0c0,0,0.1,0,0.1,0c-2.1-1.5-4.7-2.5-6.1-4.5C359.2,555.3,355.4,552.8,350.3,552.3
		L350.3,552.3z"/>
	<path d="M331.2,433.7c0.1-1.7,1.6-1,2.2-2.2c-5.2-0.8-9.2-4.5-14.4-5.2c8.9,0,19.2-3.6,22.4,9.9c-2.1,2,2.6,3.3,2,6
		c-3.7-1.1-5.9-3.6-9.3-7.3C334.2,435,332.3,435.4,331.2,433.7z"/>
	<path d="M281.9,398c-2.4-1.9-4.8-3.8-7.2-5.8c3.4-0.9,6.2,3.8,10,1.5c-0.3-1.9-3-2.6-1.7-5c0.6,0.2,1.2,0.3,2.5,0.7
		c-0.9-2.2-1.7-3.9-2.5-6c1.7,0.5,3.2-1.6,4.4,0.6c2.2-0.9,1-2.1,0.7-3.2c3.5,2.5,4.4,8.2,2,13.1c-0.7,1.3-0.7,4-3,2.5
		c-2.5,0.4,1.6,4.7-2.8,3.7C283.4,399.4,282.7,398.7,281.9,398z"/>
	<path d="M384.6,537.4c2.4,1.1,4.5,1.9,7.2,1.6c4.3-0.5,4,2.8,2.5,5.7c-1.4,2.7-2.7,6.1-7.2,3.6c1.5-2,0.7-5.4,5.9-5
		c-5.9-2.6-10.5-4.5-15.5-6.7c2.2-2.5,1.7-5.9,5-8.4c-0.9,4.5,4.7,3.8,5,7.9c0.5,0.4,2.3-0.6,3.4,1.3
		C388.7,537.4,386.7,537.4,384.6,537.4z"/>
	<path d="M320,311.2c2.7-2.8,5.4-5.6,8.2-8.3c3.5-3.4,17.6-4.9,22-2.5c-1.9,1.8-4,2.8-6.6,2.3c-1-0.2-2.3-0.3-2.9,0.2
		c-5.9,4.4-14.2,3.5-19.7,8.8C320.2,312.6,320,311.9,320,311.2C320,311.2,320,311.2,320,311.2z"/>
	<path d="M264.9,287c-0.6-0.1-1.2-0.1-2.4-0.2c9.4-4.9,18.4,0.2,27.3-1.1c-0.3-0.5-0.5-1-0.8-1.5c2.9-0.6,8.2,5.2,8,9.1
		c-6.3,0.7-11.4-1.9-16.3-5.4C275.6,284.1,270.2,286,264.9,287C264.8,287,264.9,287,264.9,287z"/>
	<path d="M374.2,546.1c3.1-0.5,4.8,2.1,8.1,3.3c-1.1,0.4-1.7,0.6-3.7,1.3c3,0.2,4.2,0.2,5.9,0.3c-1,0.6-1.8,1.1-2.9,1.8
		c0.9,0.4,1.6,0.7,2.3,1.1c-0.3,0.3-0.5,0.7-0.7,0.7c-5.9,1.3-11.5,1.6-17.6-3.6c2.7,0.6,4,1,5.6,1.3c-0.3-1.4-0.5-2.6-0.7-3.6
		C371.1,546.9,375.4,550.5,374.2,546.1L374.2,546.1z"/>
	<path d="M220.7,528.5c1.2-0.6,2-0.9,2.9-1.3c-0.3-2.5-2.7-0.9-3.6-2c4.9-6.1,4.9-6.1,10.4-3c-0.8,0.6-1.5,1.1-2.4,1.7
		c0.7,1.2,1.8,1.3,3.5,1.3c-2.7,1.9-0.8,2.2,1,2.4c-2.6,4-6.5,3.1-9.8,3.6C220.9,531.3,221.7,529.3,220.7,528.5z"/>
	<path d="M302.4,468.8c-3.4-2.6-8.1-3.9-8-9.3c0.9-1.4,1.7,0.3,2.6-0.2c0.7-1.7-0.3-3.8,1.2-5.2
		C301.6,454.8,304.5,464.2,302.4,468.8z"/>
	<path d="M323.5,470.5c-0.4-3.5-2.3-4.6-5.6-2.9c0.9-4.7,3.3-7.5,8-9c-1.1,1.3-1.9,2.3-3.7,4.4c2.5-1.5,3.8-2.3,6.5-4
		c-2,2.7-3,4.1-5.1,6.9c3.6-2.4,5.9-3.9,8.1-5.4C328.4,463.3,328.6,469.2,323.5,470.5z"/>
	<path d="M300.9,414c-0.7-2.6-1.3-5.1-2-8c0.8-0.1,1.5-0.1,2.6-0.2c-0.4-1.6-0.8-2.9-1.1-4.3c0.2-0.1,0.3-0.2,0.5-0.3
		c1.4,2.6,2.7,5.1,4.2,8c2.9-1.4,5.4-4.9,10.5-2.3c-6.1,0.8-9,5-12.8,7.9C301,416,301.5,414.1,300.9,414L300.9,414z"/>
	<path d="M305.3,433.4c-0.7,1.7,0.4,2.4,2.4,2.4c-1.6,3.4-3.2,6.5-4.8,9.9c-1.6-1.9,1.2-3,0.1-4.7c-2.1,1.3-1.1,3.9-2.8,5.8
		c0.1-2.7,0.2-5,0.4-7.9c-1.1,0.7-1.6,1.1-2.1,1.4C297.1,434.5,300.8,433.4,305.3,433.4z"/>
	<path d="M300.8,413.9c-0.3,0.8-0.8,1.5-2,1.5c-0.4-0.7-0.8-1.4-1.7-2.9c0.7,2.9-0.4,4-2.5,4.7c-1.6-2.4-4.2-4.4-4-9.5
		c2.1,2.3,3,3.3,4.3,4.7c-0.2-1.5-0.4-2.6-0.6-3.7c0.3-0.1,0.7-0.1,1-0.2c-0.4-0.8-0.8-1.7-1.4-2.9
		C299.1,406.5,298.9,411.1,300.8,413.9C300.9,414,300.8,413.9,300.8,413.9z"/>
	<path d="M374.3,546.1c-1.2-0.9-2.4-1.8-4-3c1.3-0.5,2-0.7,2.7-1c-0.4-0.5-0.7-1-1.1-1.6c2.7,0.5,5.2,1,8.6,1.6
		c-1.8-1.2-2.9-1.9-4.6-3.1c3.7-1.3,5.9,0.9,8.5,1.5C382.8,546.3,377.6,544.5,374.3,546.1C374.2,546.1,374.3,546.1,374.3,546.1z"/>
	<path d="M316.3,454c3.4-7,8-10,19.8-6.6C329.2,450.5,321.7,449.4,316.3,454C316.2,453.9,316.3,454,316.3,454z"/>
	<path d="M274.3,454c-3.4,1.1-5.9,2.3-8,4.9c-1.9,2.3-5,2.9-8.2,2.3C259.6,455.8,268.4,451.9,274.3,454z"/>
	<path d="M359.9,508.7c1.1,1.8,2.2,3.7,3.3,5.4c0.1,1.4-1,0.2-1.3,0.8c1.7,4,0.5,7.7-2.7,7.8c0.2,0.6,0.5,1.2,1.3,3.3
		c-2.6-2.8-5.4-3.1-5.9-6.2c5.6,1.3,3.6-3.2,4.5-5.3C359.7,512.7,359.7,510.7,359.9,508.7C360,508.8,359.9,508.7,359.9,508.7z"/>
	<path d="M274.4,449.5c2.6,1.5,4.5,0.8,5.7,3.2c-4.2,0.3-7.9,0-12-1.4c9.8-5.1,14.6-5.3,15.5-0.3
		C280.8,450.5,278.2,450.1,274.4,449.5z"/>
	<path d="M346.8,418.7c-4.8-1.2-9.5-2.5-14.3-3.7c0.2-0.6,0.4-1.1,0.6-1.7c-1.8-0.2-3.5-0.4-6.3-0.6c4.9-3.2,8.7-1.7,13.1,0.1
		c-1.4,0.4-2.2,0.6-3.6,1C340.2,415.2,343.9,416.1,346.8,418.7L346.8,418.7z"/>
	<path d="M274.4,480.5c6.8-3.6,20-2,24.5,3.3C290.6,481.1,282.5,481,274.4,480.5L274.4,480.5z"/>
	<path d="M316.9,385.9c-1.6,3.3-4,4.9-6.6,7c-0.6-5.4-2-10.5,1.4-15.6c1.6,3.3-0.3,6.2,0.3,9.3C313.4,386.5,314.8,386.3,316.9,385.9
		z"/>
	<path d="M321.7,345.1c1.7,5.5,2.6,10.3,2.9,15.4C321.7,359,319.8,349.9,321.7,345.1z"/>
	<path d="M362.2,564.6c-0.8-0.8-1.5-1.7-2.3-2.5c-1.8-1.3-3.5-2.7-5.3-4c5,1.1,8.5,5.4,13.6,5.9c0,0-0.1,0-0.1,0
		c1.4,1.9,3.5,1,5.8,1.4C369.6,568.2,366,564.8,362.2,564.6z"/>
	<path d="M290.2,446.3c-5.4,0.8-9.3-1.6-14.6-2.9c4.8-1,8.1,0.5,11.8,1.8c-1.8-2.7-4.1-3.7-6.2-5.1
		C284.8,440.8,287.7,442.5,290.2,446.3z"/>
	<path d="M289.7,461.6c0.5-0.7,1.1-1.4,1.7-2.2c2,1.2,3.1,3.2,1.4,4.5c-4.7,3.5-6.7-2.2-9.9-3.8C285,460.6,287.3,461.1,289.7,461.6z
		"/>
	<path d="M343.9,469.3c-3.7,2-7,3.2-10.9,2.4C334.8,467.7,337.4,467.1,343.9,469.3z"/>
	<path d="M281.9,398c0.8,0.7,1.6,1.4,2.3,2c-4.4-0.8-8.7-1.6-13.6-2.4C273.7,395.2,277.1,395.5,281.9,398z"/>
	<path d="M375.2,445.8c-3-4.7-6.4-9.3-4.3-15.5C372.3,435.5,373.8,440.6,375.2,445.8z"/>
	<path d="M267.3,400.5c4.1-0.1,8.3-0.4,12,2C275.1,403.4,271.1,402.7,267.3,400.5z"/>
	<path d="M232.1,533.8c0.5,0.9,1,1.9,1.5,2.9c-2.6,1.5-5.1,2.8-8.2,2.3c0.1-1.1,0.2-2,0.2-3C227.7,534.9,230.4,535.6,232.1,533.8
		L232.1,533.8z"/>
	<path d="M318.6,390.3c0.7,0,1.5-0.1,2.5-0.2c-0.3,0.6-0.3,1-0.6,1.3c-1.9,2.1-4.3,3-7.4,2c0.8-3.1,3.7-3.8,5.3-5.9
		C319.6,388.6,318.1,389.1,318.6,390.3z"/>
	<path d="M350.4,566.3c0.2,0.3,0.5,0.6,0.7,1c-5.2-0.5-11.5-5.9-11.5-9.9C343.4,560.5,347,563.4,350.4,566.3
		C350.5,566.3,350.4,566.3,350.4,566.3z"/>
	<path d="M232.1,533.7c-2.8,0.5-5.6,0.8-9.5-0.3c4.7-1.5,8.4-2.7,12.2-3.9C235,531.6,232.9,532.3,232.1,533.7
		C232.1,533.8,232.1,533.7,232.1,533.7z"/>
	<path d="M346.7,418.7c5.3,0.7,6.6,5.2,8.4,9.4c-2.9-7.3-9.7-7.7-15.7-9.6C341.9,418.3,344.3,420,346.7,418.7
		C346.8,418.7,346.7,418.7,346.7,418.7z"/>
	<path d="M350.4,566.3C350.4,566.3,350.5,566.3,350.4,566.3c-1.9-4.3-7.1-5.8-9.1-10.3c1-1,2-1,3.1-0.2c0.1,2.6,2.5,3.6,3.8,5.3
		C349,562.8,352.8,563.2,350.4,566.3z"/>
	<path d="M316.4,395.5c3.3-2.1,6.1-4,9.1-5.9C325.3,395,324.8,395.4,316.4,395.5z"/>
	<path d="M274.3,480.5c-0.5,2.3,1.3,1.3,2.1,1.4c4.3,0.3,8.3,1.2,11.9,3.6c-6.1-2.8-12.6-2.7-19.3-3.1
		C270.8,481.8,272.6,481.1,274.3,480.5C274.4,480.5,274.3,480.5,274.3,480.5z"/>
	<path d="M333.1,399.2c0.5-0.3,1.1-0.6,1.6-0.8c-2.6,0-4.9,0.1-7.5-0.5c4-4.1,7.8,0,12.3-1C337.5,399.5,335.2,398.9,333.1,399.2z"/>
	<path d="M350.7,571c-6.6-1.1-12.6-6.5-13.5-11.7C340.8,564.1,345,567.3,350.7,571z"/>
	<path d="M353.4,542.4c0,0,0.1,0,0.1,0c-2.3-0.5-0.5-3.1-3.9-4.2c6.2,0.2,7.3,4.2,9.7,6.9C357.3,544.2,355.3,543.3,353.4,542.4z"/>
	<path d="M359.1,529.1c-2.4-0.2-3.9-1.7-5.7-2.8c0.1-1.6,0.7-3,2.4-2.5C358.1,524.5,359.3,526.4,359.1,529.1z"/>
	<path d="M397.4,425.1c-1.3-4.2-0.6-7.3,0.5-10.5C399.2,417.8,399.8,421,397.4,425.1z"/>
	<path d="M371,529.6c-1.4,3.2-3,2.6-4.5,1.4c-1.2-0.9-2.9-2.8-1.6-3.7C367.6,525.4,368.3,529.7,371,529.6z"/>
	<path d="M382.1,464.4c-0.8-3.8-2.7-7.1-3.8-10.8C381.4,456.7,383.2,460.1,382.1,464.4z"/>
	<path d="M337.1,463.7c-3.4,1.4-4.3,7.1-9.8,5.6C329.8,465.9,333.8,465.4,337.1,463.7z"/>
	<path d="M287.7,467.6c-4.2-3.1-7.8-3.9-10.9-7.6C281.6,461,284.5,462.9,287.7,467.6z"/>
	<path d="M123.5,499.8c-1.6-3.9-3.4-7.5-7.7-9.1c0.5-1.5,1.7-0.5,2.8-1.1c-2.1-1-4.1-2-6-2.9c2.7-3,9.2-1.7,13.6,3.3
		c3.7,4.1,0.9,10.7,5.6,14.6c-0.4,0.3-0.8,0.6-1.2,0.9c-0.7-1.4-1.5-2.8-2.2-4.3c-0.4,0.3-0.8,0.6-1.2,0.9c0.3,1.5,0.7,3,1.2,5
		C125.5,505,125.3,501.8,123.5,499.8C123.4,499.7,123.5,499.8,123.5,499.8z"/>
	<path d="M129.3,519.8c-4.4-3.7-5.3-9.2-6.9-14.3c-0.6-1.9-0.1-4.1-2.3-6.6c1.9,0.5,2.6,0.7,3.3,0.9c0,0-0.1-0.1-0.1-0.1
		c1.5,5.4,2.9,10.7,5.2,15.8C129.2,516.8,131.2,518.1,129.3,519.8C129.2,519.8,129.3,519.8,129.3,519.8z"/>
	<path d="M129.3,519.8C129.3,519.8,129.2,519.8,129.3,519.8c1.7,2.1,3.5,4.2,5.3,6.4c0.9,1.1,1.2,2.2-0.7,3
		C130.9,526.8,129.3,523.8,129.3,519.8z"/>
	<path d="M469.8,505c-0.8,1.2-1.6,2.3-2.5,3.6c-1.2-4.4-1-12.7,3.7-20.8c-0.5-0.1-1-0.1-1.6-0.2c1.2-3.1,2.7-5.7,5.2-7.7
		c0.7-0.5,1.3-1.2,2.2-0.5c0.9,0.7,0.5,1.5,0.1,2.2c-3.4,4.6-5.6,9.9-5.6,15.5C471.2,500,470.1,502.4,469.8,505L469.8,505z"/>
	<path d="M480.7,509.1c-0.7,3.2-1.5,6.3-2.2,9.5c-0.4,0-0.9,0-1.3,0c0-10.6,0-21.1,0-31.7c1.2,3.4,3.1,6.3,2.4,10.6
		C479,500.9,479,505.4,480.7,509.1C480.8,509.2,480.7,509.1,480.7,509.1z"/>
	<path d="M469.8,505c3.8,10.5,2.1,18.4-5.4,24.6c-0.7-2.6,2.9-3.8,2-6.4c-0.9-2.6,1.4-4.1,1.6-4.8C465.9,512.7,469.2,509,469.8,505
		C469.8,505,469.8,505,469.8,505z"/>
	<path d="M475.4,474.7c-5.6,3.2-9.8,8-14.6,12.2C465.5,482.6,467.6,475.3,475.4,474.7z"/>
	<path d="M456.1,495.8c2.1-4.7,4.9-7.6,9.5-9C462.5,489.7,459.5,492.5,456.1,495.8z"/>
	<path d="M83.9,518.3c0.5-1.4,1.1-2.8,1.6-4.2c-2.1,7.2,6.9,12.8,2.8,20.7C84.5,529.6,88.1,522.9,83.9,518.3z"/>
	<path d="M170.2,510.4c0.7,5.9,2.7,11.6,2,17.9c-2.6-2.1-2.8-2.8-3.3-10.1c-1.3,2.8-0.8,4.9-1,7
		C167.2,520.1,166.6,515.1,170.2,510.4z"/>
	<path d="M435.5,513.6c0.8,5.7-5,6.5-7,10c-0.2-2.3,1.6-3.6,2.9-5.1C432.7,517,434,515.4,435.5,513.6z"/>
	<path d="M485.1,453.4c-4.4-6.3-5.7-13.7-8.1-20.8C480.6,439.2,483.3,446.1,485.1,453.4C485,453.5,485.1,453.4,485.1,453.4z"/>
</g>
</svg>
