<?xml version="1.0" encoding="utf-8"?>
<!-- Generator: Adobe Illustrator 24.2.3, SVG Export Plug-In . SVG Version: 6.00 Build 0)  -->
<svg version="1.1" id="Layer_1" xmlns="http://www.w3.org/2000/svg" xmlns:xlink="http://www.w3.org/1999/xlink" x="0px" y="0px"
	 viewBox="0 0 595.3 841.9" style="enable-background:new 0 0 595.3 841.9; fill: #215342;" xml:space="preserve"
	 height="350" width="700" transform="translate(-220, -50)">
<g>
	<path d="M505.9,340.4c1.7,9.4-1.7,17.2-7.5,24.6c4.2,2.5,8.4,4.9,12.6,7.3c-12.4-7.3-22.2,0.9-33.5,5.1c8.8,1.8,13.9-7.3,23.4-4.9
		c-10.5,1-17.5,6.9-27.2,11c7.5-0.6,12.5-3.3,18.9-5.3c-2.1-0.2-3.2-0.3-4.2-0.4c5.7-3.9,18.3-3.4,24,0.7
		c-21.5-0.1-41,7.7-60.3,18.2c2.1,0.4,3.7,0.7,5.3,1c-2.7,2.3-5.4,4.7-8.4,7.3c1.3,0.4,2.1,0.7,3.2,1c-1.1,1.1-2,1.8-3,2.8
		c0.9,0.6,1.6,1.1,2.1,1.4c-1.8,4.8-5.4,8.9-3.4,14.5c2.3-0.6,4.6-0.4,6.4-2.2c-0.9-0.3-1.6-0.5-3-0.9c4.2-1.4,6.1-4.3,5.2-7.6
		c-2.2-7.7-0.5-13.5,7.4-17.8c-2.7,0.6-4.6,1-6.5,1.4c1.7-2,4.2-2,6.4-2.6c12.6-3.2,24.5-9,38.2-11.6c-7.3,2.7-13.8,5.2-20.3,7.6
		c0.1,0.3,0.1,0.7,0.2,1c6.7-0.9,13.4-1.8,20.7-2.8c-13,6.9-28.7,3.4-40.3,13.1c0.8-0.1,1.6-0.1,3.1-0.3c-1.6,1-2.7,1.6-4.6,2.8
		c2.3-0.1,3.5-0.2,6.6-0.3c-6.4,2.1-5.7,5.7-4.7,9.3c1,3.7-2.2,4.6-3.9,6.5c-0.8,0.9-1.8,1.7-3.1,3c4.5,0.2,7.7-1.6,12.3-3.3
		c-4.6,4.9-9.7,6.6-14.7,9.9c1.5-0.2,2.3-0.2,4-0.4c-4,1.5-7,2.7-10.6,4.1c1.2,0.6,1.9,0.8,2.1,0.9c-2.5,4.8-0.1,9.9-0.5,14.8
		c-0.7-1.9-1.4-3.8-3-8c0.8,8.4,1.5,14.5,2.2,22.2c-0.9-2.6-1.3-3.7-2-5.9c0,6,0,11,0,17.4c-1-2.2-1.3-3.1-1.9-4.3
		c-1.4,4.8-2.6,9.1-4,14c7.6-1.7,14.9-4.4,23.7-3.4c-26.1,3.4-46.4,13.5-55.2,39.3c1.4-1.9,2.8-3.8,4.2-5.6c0.2,0.1,0.4,0.3,0.6,0.4
		c-1.2,2.2-2.5,4.4-3.7,6.6c0.2,0.1,0.3,0.2,0.5,0.3c1-1.2,1.9-2.4,2.9-3.5c0.2,0.1,0.4,0.2,0.6,0.4c-0.9,1.4-1.9,2.9-2.8,4.3
		c0.1,0.1,0.3,0.3,0.4,0.4c1-0.9,2-1.8,3.9-3.6c-1.8,2.9-2.9,4.7-4.7,7.6c1.7-1.3,2.4-1.8,3.7-2.8c-0.4,1.3-0.7,2.2-1.1,3.4
		c1.1-0.4,1.9-0.7,3.2-1.3c-2.5,4.2-6.8,6.2-8.6,10.6c1-0.2,1.7-0.3,3.3-0.5c-3.5,2.8-0.1,5.4-1,7.1c9.5-4.8,12.6-15.5,19.2-23.8
		c-0.8,2.4-1.6,4.9-2.6,7.7c0.8-0.2,1.4-0.3,2-0.5c-1.6,8.5,1.8,16.2,4.2,26.1c0.4-6,0.7-10,1.1-14.4c5.9,4.9,15.1,0,19.2,8.5
		c1.4-3.3-0.4-5.7-0.2-8.7c0.7,1,1.3,1.7,2.1,2.7c1.7-7.7-3.2-14.6-0.8-21.7c0.2,0.4,0.6,1,1.4,2.4c0.1-1.9,0.2-3.2,0.3-5.3
		c2.3,5.5,1.8,10.6,1.7,15.6c-0.1,5.3-0.4,10.6-0.6,15.8c-0.2,4.7,0.1,8.9,2.8,13.3c2.5,4.3,2.5,9.9,5.9,15.7
		c-0.9-4.1-1.5-6.7-2.2-9.7c3.6,3.8,4.7,8.5,6.4,12.9c0,0,0-0.1,0-0.1c0.1,3.8-1.8,2.8-3.7,1.5c-3.6-2.7-7.3-1.6-11.4-0.8
		c1.6-11.5,1.1-22.9-5.5-33.2c-2.8-4.5-6.3-5.7-10.8-2.1c-4.1,8,0.4,20.5,8,21.6c-2.7-7.3-5.4-14.5-8.1-21.7
		c4.4,3.1,5.7,8.2,7.9,12.6c3.4,6.8,6.3,13.9,6.5,21.6c-17.6,0-34.9,0-52.3,0c0-0.4,0-0.7,0-1.1c16.6,0,33.2,0,49.8,0
		c0.4-3.6-1.6-3.5-3.5-3.5c-10.7,0-21.4,0-32.1-1.2c11.1,0,22.2,0,33.3,0c0-0.2,0-0.5,0-0.7c-6.9,0-13.8,0-20.7,0c0-0.3,0-0.5,0-0.8
		c7,0,13.9,0,20.8,0c0.3-1.6,0.2-2.6-1.2-2.8c-7.3-1.5-14.4-3.7-22.2-3.2c-10.7,0.8-21.4,0.5-32.1,0.1c-4.9-0.2-7.3,2.8-10.8,5.2
		c-3.9,2.7-7.6,5.5-10.6,9.1c0,0-1-0.7-1.7-1.2c-0.5,1-1,2-1.5,2.9c-2.1-2.2-3.9-2.5-4,1.1c0,2.2,0.8,4.3,1.4,6.8
		c-0.9-0.4-1.4-0.6-2.1-0.9c0.2,1.8,0.4,3.3,0.7,5.4c-2.9-3-3.3-6.7-5.3-11.1c-10,19.8-26.9,25.6-46.6,25.1
		c-19.6-0.6-36.7-6.5-45.3-27.3c-1.5,3.1-2.5,5.2-3.5,7.3c-0.1,0.2-0.3,0.3-0.4,0.5c-1.5-1.6,0.1-3.3-0.2-5.3c-1,1.1-1.8,2-2.7,2.9
		c0-3.2-1.3-5-3.9-6.8c-5.7-3.8-9.4-10.1-15.7-13.4c-1.3-0.7-2.6-1.2-3.9-1.2c-17.4,0.1-34.8-0.2-52.2,0.5
		c-4.2,0.2-9.2,1.8-14.4,6.8c16.5,0,30.5,0,44.6,0c0,0.5,0,1,0,1.6c-11.5,0-23,0-34.6,0c-7.6,0-7.6,0-12.3,5.9
		c1.4-10.9,5.5-20,10.2-28.9c0.4-0.8,1.2-1.5,1.5-2.4c0.8-2.1,4.4-4,1.7-6.3c-2.8-2.2-5.6,0.1-7.7,2.2c-6,6.1-6.8,14-7.2,21.9
		c-0.2,4.8,0,9.6-1,14.7c-0.5-1.6-1.1-3.2-1.5-4.8c-0.2-1.1-0.2-2.4-1.7-2c-1,0.3-2.8,1.3-2.8,1.6c0.4,1.5-0.4,1.3-1.3,1.7
		c-9.3,4.1-9.5,4.1-8.7,1.6c0.9-3.1,2-6.1,2.9-8.8c0.3,2.7-1,5.5-1,8.7c1.8-5.3,3.7-10.6,5.8-16.9c0,3.1,0,5.3,0,9.2
		c1-2.4,1.3-3.3,2-5c0,1.6,0,2.3,0,3.6c3.6-6.2,6-11.9,5.2-18.8c-1.4-11.6-1.3-23.1,4.5-36.1c-0.5,3.1-0.7,4-1.1,6.3
		c1.4-2.5,2.2-3.9,3.4-6.1c-1.8,10.5-6.5,19.3-5.1,30.3c0.6-3.5,1-6,1.5-8.5c0.1,0,0.3,0,0.4,0c0,3,0,6,0,9.7
		c4.1-4.7,8-8.6,14.4-6.7c4.9,1.4,7,4.7,6.3,10c4.9-11.2,6.1-22.7,5.1-34.9c2.7,10.8,6.8,20.8,14.7,29.5c-0.2-1.5-0.3-2.5-0.3-3.2
		c3.2,2.1,6.7,3.3,11.1,1.1c-2.2-3.1-4.2-6-6.6-9.3c1.4,0.5,2.2,0.8,3.5,1.2c-1.1-3.4-3.7-4.7-6.1-6.9c1.1,0.3,1.9,0.4,3.2,0.7
		c-3.1-5.1-0.8-10.2-0.5-15.2c0.2-2.6-1-3.9-2-5.4c-11.9-17.2-28.2-26.9-49.3-27.5c-5.4-0.1-10.9,1.7-18.6,2.9
		c15.1-6.9,28.1-5.2,42-0.4c-1.7-3.5-2.9-6.2-4.2-8.8c-0.3,0.2-0.6,0.3-0.9,0.5c-0.3-2.6-0.7-5.3-1.2-9.1c-0.7,1.8-0.9,2.3-1.3,3.7
		c0-4.1,0-7.5,0-12.4c-1.1,2.8-1.7,4.2-3,7.6c0.4-5.4,0.7-8.7,0.9-11.9c-0.2-0.2-0.4-0.3-0.7-0.5c0,0.8,0,1.6,0,2.4
		c0.4-8.3,5.2-16.6-5.8-21.2c2.1,0.8,4.1,1.6,6.2,2.4c-8.8-6.4-18.6-11.5-25.9-21.7c6.3,4.5,11.5,7.9,17.9,9.3
		c-7.7-4.9-10.6-12.9-13.8-20.7c0.9,0.2,2.1,0.4,4.1,0.7c-2.7-2-4.7-3.6-7-5.3c1.7,0.1,3,0.2,6,0.4c-15-6.9-29-8.1-44.4-5.6
		c5.5-3.9,10.9-5.4,17.4-6.3c-5.9-5.2-11.9-8.7-19.6-9.4c5.1-2,9.7,0.6,15.4,0.6c-5.3-3.5-10.1-6-16-7.9c2.9-0.6,5.1-1.1,9.2-1.9
		c-6.2-0.7-10.6-0.4-15.2-0.5c3.7-1.2,7.4-2.4,11.6-3.8c-5.5-7-9.9-14.3-10.1-23.4c-1.9-0.2-2.6,1.3-3.5,2.2
		c-9.1,9.2-18.2,18.4-27.3,27.6c-2,2-4,4.6-7.1,3.7c-3.4-1-3.7-4.3-3.8-7.3c-0.7-14.8-1.2-29.6-6.9-43.6c-2.1-5-5.1-9.4-9.3-15
		c0.9,4.1,1.4,6.6,2.4,11c-3.3-6.1-5.7-10.5-8.7-16c0,2.9,0,4.6,0,7.4c-5.7-14.8-0.3-26,13.7-29.8c5.5-1.5,11.3-2.2,17-2.8
		c20.7-1.9,41.2-4.9,61.1-10.9c1.5-0.4,2.8-1.6,4-2.7c10.2-9.8,21.8-14.6,35.8-14.3c-3,1.2-5.2,2.1-7.4,2.9c4.4-0.4,9.2,2.5,12.7,1
		c5.1-2.2,7.6,2.4,11.6,2.3c1.1-1.4-0.6-2.3-0.7-3.8c1.2,0,2.5,0.6,3.4-0.7c0.2,0,0.4,0,0.6-0.1c5.5,2.3,8.9,6.8,12.4,11.3
		c1.5,1.9,2.9,4,4.3,5.9c2.9-9.8-5.1-15.1-10.7-18.2c-5.9-3.2-11.1-7.4-17.2-10.2c-1.8-0.8-3.3-1.9-3.9-4.2
		c11,2.2,19.4,8.3,27.1,16.1c-1.4-2.1-2.7-4.2-4.1-6.3c7.1,5.9,10.9,14,15.5,22.9c0.1-11.2-8.3-19.1-6.9-28.6
		c8.4,13.7,17.3,27.5,20.5,44.1c0.7-0.3,1.3-0.5,2-0.8c-1-3.7-1.9-7.5-2.9-11.2c0.1,0,0.3-0.1,0.4-0.1c0.9,2.8,1.9,5.6,2.8,8.3
		c0.2,0,0.3-0.1,0.5-0.1c-0.4-2.3-0.8-4.6-1.5-8.6c1.3,3.5,2,5.2,2.7,7c0.2-0.1,0.4-0.1,0.6-0.2c-0.8-3.7-1.5-7.3-2.3-11
		c0.1,0,0.2,0,0.3-0.1c1.9,5.8,3.8,11.7,5.7,17.5c0.3-0.1,0.6-0.2,0.9-0.3c-0.9-3.9-1.9-7.8-2.8-11.7c0.2-0.1,0.4-0.1,0.6-0.2
		c0.9,2.4,1.8,4.7,2.7,7.1c4.5,11.2,6.3,12.4,17.9,10.2c18.2-3.5,36.2-4.5,54.9-3.9c20.7,0.6,41.1,1.4,61.8,6
		c-0.5-4.3,0-7.5,2.6-10.6c0.3,1.1,0.6,2,1,3.3c1.6-2.4,3-4.4,4.8-7.1c0.2,1.8,0.3,2.9,0.5,4c5.3-15.1,17.4-26.3,23.6-41.1
		c1.3,8.4-4.1,15.3-4.3,23.3c3.6-7.8,7.6-15.3,14.6-21.2c-1.8,2.9-3.3,5.5-4.9,8.1c7.3-7.1,15.3-12.3,25.5-13.7
		c-9,5.5-16.5,12.4-21.7,21.8c11.9-14.3,25.7-18.9,42.6-9.7c-6-1.8-12.4-1.5-18.6-1.9c-6.2-0.4-12.3,1.2-15.8,7.6
		c1.9-1.2,3.9-2.3,5.8-3.5c-1.4,2,1,3.9-0.4,6c2-1.1,3.6-2,6.3-3.5c-1.4,1.8-2,2.6-3.5,4.4c8.5-2.6,15.6-1.3,23.7,3.1
		c-5.6-0.1-9.7-1.8-14.7-0.3c22.6,4.3,29.5,23.8,40.4,39.2c7.4,10.4,12.3,22.5,20.8,32.2C502.7,335.8,504.3,338.1,505.9,340.4z
		 M97.8,315.7c-0.3,0.3-0.5,0.5-0.8,0.8l0-0.1c0.1,0.3,0.3,0.5,0.4,0.8c0.1-0.2,0.3-0.4,0.4-0.6l0,0c-0.1,5.2-1.6,10.1-4.4,15.1
		c9-6.6,14.6-16.4,26.3-22.3c-4.9,6.3-8.5,10.9-12,15.5c-3.5,4.7-6.9,9.4-10.4,14.1c23.2-20.8,39.3-47.3,57.6-71.8
		c-1.3,0.8-2.9,1.6-5.6,3.1c5.4-6.5,12-8,20-10.2c-7.2,0.5-12.2,2.5-17.2,4.7c3.6-4,9-5,13.8-8c-8-0.5-13.6,2.6-18,8.2
		c-6,7.4-11,16-18.3,21.7c-6.5,5.1-11.9,10.6-16.9,16.9c-1.2,1.6-3.4,3.1-6,2.7c-0.8-2.4,2-3.4,2-5.7c-1.7,1.2-3.1,2.2-4.5,3.3
		c1-1.6,2.9-2.8,2.5-5.6c-2.1,1.2-3.9,2.1-5.7,3.1c-1.1,0.7-2.2,1.6-1.7,3.2c0.6,1.7,1.9,1.9,3.4,1.3c-1.7,3-4.3,5.6-3.9,9.4
		C98.5,315.4,98.1,315.6,97.8,315.7L97.8,315.7z M207.7,351.9c0.1-1.5-0.7-2-2-1.4c-4.3,1.9-7.8,4.9-10.6,8.9
		c2.6-1.2,5.2-2.5,7.8-3.7c-5.4,5.1-12.9,8.2-16,15.8c7.6-7.6,16.6-13.5,25.1-20.6C209.7,349.9,208.8,351.2,207.7,351.9z
		 M198.2,377.9c-5.6,4-12.9,6.9-11.3,15.7c4.8,3.7,7-1.3,10.4-3.4c-0.2,1-0.3,1.5-0.5,2.7c6.2-5.5,7.2-13.7,13.8-18.3
		c6.2-4.3,12.5-7.8,20.7-7.7c-1.8-2.9-4.3-1.7-5.9-3.1c2.6-1.5,5.7,0.9,8.2-1.3c-1.2-0.8-2.1-1.4-3-2c0.1-0.2,0.2-0.4,0.3-0.6
		c2.5,0.9,5.1,1.8,9.8,3.6c-16.7-11-26.1-11.4-29.5-2.2c1.1,0,2.2,0,4.3,0C207.9,366,201.9,370.9,198.2,377.9L198.2,377.9z
		 M404.3,488L404.3,488c0.9,2.4,3.6,3.3,3.7,6.9c0.3,6.4-3.1,12.6-0.4,19.4c3.2-8.1,9.9-13.3,14.4-20c3.2-4.8,9-6.2,11.4-12.7
		c4.9-13.2,10.6-25.9,9.7-40.2c-0.4-5.9-1.8-11.7-2.7-17.6c0.4-0.3,0.7-0.5,1.1-0.8c0.1,0.8,0.2,1.5,0.3,2.3
		c0.2-0.2,0.4-0.4,0.6-0.6c-1.3-10.1-2.5-20.3-3.7-29.9c0.2,0.2,0.7,0.9,2.2,2.6c-3.7-12.1-8.3-22.1-16.3-30.3
		c2.1,1.7,4.1,3.5,6.2,5.2c0.1-0.1,0.2-0.2,0.3-0.3c-2.1-2.4-4.2-4.8-7.1-8c2.6,1.3,4.2,2,5.8,2.8c-2.5-8-5.4-15.1-13-19.2
		c2.6,1,5.2,2,8.2,3.1c-3.8-4.9-8.3-7.9-13.3-10.5c2,0.5,4.1,1,8.1,2c-5.9-4.5-10.2-7.9-15.1-11.6c3,0.4,5.3,0.8,8.6,1.3
		c-2.8-1.5-4.6-2.5-7.6-4.1c2.6,0.4,3.6,0.5,4.9,0.7c-2.3-2.8-4.4-5.2-6.7-7.9c1.4-0.2,2.4-0.4,4.5-0.7c-2.9-1-4.7-1.7-6.8-2.5
		c0.8-0.5,1.6-0.9,1.6-1.1c-0.6-3.5-5.4-1.3-6.4-4.9c1.4-1,2.9-2.1,5.7-4.1c-4,0.6-6.5,0.8-8.9,1.2c-1.3,0.2-3.5,0.3-3.2-1
		c1.4-6.3-5.1-6.9-7.4-10.4c-1.2-1.9-3.1-4-4.7-6.7c-0.2,1.5-0.3,2.5-0.4,2.9c-7.1,2.3-14.3,1.9-20.8,5c2.6-2.4,5.8-3.2,10.9-4.8
		c-5.2,0-8.4,0-13,0c1.8-0.5,2.2-0.6,3.5-0.9c-4.9-1-9-1.7-13-2.6c-15.4-3.7-31.2-0.4-46.7-1.8c-0.6-0.1-1.5,0.1-2,0.5
		c-4.8,4.7-11.2,3-16.2,2.6c-11.4-0.9-22,2.3-33,3.6c7.1-0.7,14.1-2.6,21.2,0.3c6.7,2.7,11.9,7.5,19.2,12.9c-3.1-1-4.2-1.4-5.8-1.9
		c1.1,1.5,1.8,2.5,3.1,4.2c-11.7-6.3-20.9-8.1-27.1-5.7c1.8,0.4,3.9-1,4.5-0.3c-11.8,9.9-28,12.9-39.6,25.7c2.4-0.8,3.8-1.2,7.2-2.3
		c-3.2,2.5-4.7,3.7-6.6,5.1c4.8,2.5-0.7,6.4,1.4,9c18.3,0.3,24.1,14.7,32,27.1c-0.4-2.4-0.9-4.7-1.7-9c2.3,4.8,2.9,8.2,6.2,10.2
		c0-0.8,0-1.5,0-2.6c7.3,11.3,5.7,26.6-3,29.7c-2.1-4.1-2.1-4.1-3.8-5.2c4.7,26,21.4,33.9,45.5,30.8c-1.6,1-3.3,1.9-4.8,2.8
		c1.9,1.4,3.6,2.7,6.1,4.6c-3.1-0.2-5.3-0.4-7.9-0.5c4.5,5,8.6,9.3,16.9,9.7c-9.6,2.9-16.3-2.7-26.2-2.5c5.3,1.6,8.4,2.5,11.5,3.4
		c-0.1,0.3-0.1,0.6-0.2,0.8c-2.7,0-5.3,0-8,0c0,0.2,0,0.4-0.1,0.7c3.1,0.6,6.3,1.2,10.6,2c-7.9,1.8-14.4-0.8-21.5,1
		c-6.6,1.7-14.3-1.1-21.3,2.1c5.4-1,10.8-1.8,16.2,0.2c-4.8,1.8-9.5,3.4-14.1,5.2c-0.6,0.2-1.2,1-1.4,1.7c-0.4,1.9,1.8,0.4,2.3,1.9
		c-8.4-0.5-10.7,8.4-17.5,10.6c5.3-1.8,10.4-3.4,18-2.7c-4.6,1-7.4,0.8-9.9,2.7c2.4,0,4.5,0,6.6,0c0,0.2,0,0.3,0,0.5
		c-1.8,0.2-3.6,0.4-6.1,0.8c1.1,0.5,1.5,0.7,1.8,0.8c-1.6,0.4-3.2,0.8-6.6,1.6c5.5,0.6,9.5-0.5,13.8,1.3c-5.8,0.7-10.8,1.3-15.8,1.9
		c0,0.2,0,0.3,0,0.5c2.3,0.2,4.6,0.4,7.8,0.6c-5.8,5-13,5.7-19.4,10.2c1.8-0.2,2.4-0.2,3.4-0.3c-3.6,2.1-6.8,3.9-9.9,5.8
		c0.1,0.2,0.2,0.5,0.4,0.7c1.9-0.6,3.8-1.2,7.1-2.3c-4.1,2.8-6.8,4.7-11.3,7.7c3.4-0.8,4.7-1.1,6.9-1.6c-3.6,2.8-6.9,4.6-8.8,8.2
		c4.6,1-0.6,2.4,0.4,3.8c0.4,0,0.9,0,1.8-0.1c-0.7,1.1-1.4,2-2.2,3.2c1.2-0.4,1.9-0.6,3.1-1c-0.9,4.6-5,7.9-2.2,13.3
		c1.4,2.7-4.4,7.7-1.4,9.5c5.9,6.6,4.6,13.9,10.8,18.2c6.3,4.4,10.5,11.6,17.3,13.3c6.1,5.2,12,7.4,18.9,7.1
		c-0.3,0.9-1.7,0.9-0.7,1.9c1.7-0.4,3.3-0.9,5.5-1.5c-0.9,1-1.5,1.6-2.3,2.4c2.6,0,4.3-2.3,6.8-1.3c-0.6,1-1.2,1.8-1.7,2.6
		c2.9-2.1,6.3,0.4,9.2-1.8c0.4,1.3,0.7,2.2,1.1,3.8c1.5-3.6,2.6-1,3.8,0.2c0.7-1.1,1.2-1.9,2-3.2c0.4,1.7,0.6,2.4,0.8,3.3
		c1-1.2,1.7-2.2,2.7-3.5c0.2,1.3,0.3,2.1,0.5,3c2.3-2.9,4.7-0.8,7.8-2c-0.4,0.6,0.1-0.2,0.7-1.1c0.4,0.8,0.6,1.3,0.7,1.5
		c5.3-2.8,4.9-7.2,3.3-12.2c-0.4,0.7-0.8,1.3-1.3,2.1c-0.6-1.9-1-3.4-1.9-6.5c0,2.8,0,3.9,0,5c-0.7-2.5-1.9-4.5-3.6-6.9
		c-0.1,2.1-0.2,3.8-0.4,6.9c-0.8-2.9-1.2-4.4-1.9-7.3c-0.4,2.2-0.5,3.1-0.7,4.1c-2.5-2.2-2.5-5.1-3.4-7.7c0,2,0,4.1,0,6.1
		c-0.1,0-0.3,0-0.4,0c-0.2-2.3-0.4-4.6-0.5-7.1c-0.8,0.5-1.3,0.7-2.5,1.4c1.1-6.4-1.8-10.7-5.6-15.3c0.2,3.5,0.9,6.3-1.1,10.7
		c1.9-10-2.6-16.5-6-23.5c-3.1-6.4-9.6-11-9.9-19.1c-0.5-14.5,7.1-27,21.3-32c19.5-6.9,39.4-6.9,58.6,0.8
		c19.8,8,26.6,30.6,14.7,47.5c-3.6,5.2-6.2,10.8-8.5,16.5c-0.7,1.7-2.2,3.1-4,5.7c0-0.2,0,1.1,0,2.4c-4.1-1.4-1.4,3.3-3.8,3.6
		c-0.3-0.6-0.7-1.2-1.3-2.3c-0.1,1.5-0.2,2.5-0.3,3.8c-0.6-0.8-0.9-1.3-2-2.9c1,6.1-5.7,6-5.5,10.4c-3.6-0.2-0.5-3.2-2.2-4.5
		c-0.8,2.6-1.5,4.9-2.6,8.6c0-3,0-4.5,0-7.3c-1.1,3.3-1.8,5.5-2.8,9c-0.6-2.6-0.9-3.7-1.3-5.4c-0.6,2-1.1,3.3-2.1,6.6
		c0-3.4,0-4.9,0-7.9c-1,3.3-1.5,5-2,6.9c-1.7-1.9-0.3-3.9-0.9-6.2c-0.8,2.3-1.4,4.2-2.1,6.1c-0.2-1-0.4-2-0.6-3.1
		c-3.3,8.9,4.1,11.4,9.1,14.2c5,2.8,11-0.9,16.7,0.2c0.1-0.6,0.3-1.3,0.5-2.3c1.3,0.8,2.4,1.4,3.8,2.3c-0.1-1.4-0.1-2.3-0.2-3.4
		c4.1,0,8.6,2.6,11.2-2.6c2.1,0.2,4.3,0.4,7.4,0.7c-1.1-1.4-1.6-2-2.1-2.6c1.6,0.4,3.1,0.7,6.1,1.4c-2.2-1.9-3.1-2.7-4.1-3.6
		c9,5.8,11.8-4.1,17.9-6c0,0,0.5,0.7,1.4,2c0.7-2.7,1.2-4.7,1.4-5.2c3-3.1,6-4.5,5.8-9.2c0.7,1.2,1,1.8,1.4,2.5
		c1.4-2.8,0.4-5.6,0.6-7.8c4.3,1.2,4.8,4.3,4,8.1c-0.2,1.1,0.7,1.5,1.6,1.5c9.2,0,18.4,0,27.9,0c-0.5-2.5-0.6-4.2-2.7-4.2
		c-4.8,0.1-9.7-0.2-14.4,0.6c-7.1,1.2-13-2.4-13.7-10.5c0.9,4.5,2.9,3.8,5,3.2c-1.9-4.4,1.2-10-5.2-13.6c2.2,0.3,2.9,0.4,4,0.6
		c-0.9-1.3-1.6-2.2-2.3-3.3c0.8,0.1,1.3,0.2,2.2,0.3c-1-1.7-1.9-3.1-2.8-4.7c4.2,0.1,4.3-1.3,1.1-8.3c1,0.3,1.8,0.5,2.9,0.9
		c-1.3-2.8-2.3-5-4-8.8c2.2,2.1,3.3,3,6,5.5c-3.3-5.5-5.4-9.1-7.5-12.7c0.3-0.2,0.6-0.4,0.9-0.6c1.2,1.3,2.4,2.6,3.6,3.9
		c0.2-0.1,0.4-0.2,0.5-0.4c-0.8-1.4-1.6-2.9-2.7-4.8c1,0.8,1.7,1.2,2.3,1.7c-1.5-2.3,0.2-4.3,0.1-6.1c-0.1-2-2.4-3.9-4.9-7.5
		C401.2,485.8,402.7,486.9,404.3,488z M202.8,466.5c-9.1,1.8-14.4,7.1-13.9,13.7c0.8-9.9,16.4-14.6,21.4-9.2
		c0,5.8-1.8,12.3,2.1,15.2c3.3,2.6,9.3,0.5,13.5-1.9c0.1-1.8-2.5-2.6-0.8-3.8c5.7-3.9,7.9-10.4,12.2-15.2
		c4.2-4.7,10.4-7.7,11.2-14.7c0.1,0-0.4,0-0.8,0.1c4-10.5,13.4-12.9,22.9-15.5c-2.2,0-4.4,0-6.3,0c-0.1-4.2,7.5-4.4,4.2-9.7
		c-1.2-1.9-2.3-4.1-4.1-5.3c-1.5-1-3.8-0.2-5,1.5c-1.3,1.8-2.4,3.8-3.3,5.8c-1.2,2.4-3.1,3.9-5.6,5c2.2-2.2,0.9-4.1-0.2-6.4
		c-7.1,6.8-17.5,0.2-25.2,7c2,0.9,3.6,1.6,5.7,2.5c-7.9,3-14.7-0.2-23.3-3.7c2.6,2.2,3.6,3,5.3,4.4c-6.8-1.9-10.1-8-16.7-8.7
		c3.9,12.1,12.3,23.1,5.3,37.1c1.3-0.2,0.6-0.1-0.2,0C201.6,465.2,202,465.7,202.8,466.5z M146.2,357.6c0-0.3,0.1-0.6,0.1-1
		c2.7,0,5.5,0,9.4,0c-3.2-1.1-5.2-1.8-8.8-3c7,0.7,12.5,1.3,17.9,1.9c0-0.2,0.1-0.4,0.1-0.6c-1.1-0.4-2.3-0.8-3.8-1.4
		c4.6-1,8.9-1.5,12.7-3c3.8-1.5,7.3-3.9,10.8-6.1c2-1.3,5.5-1.9,5.3-4.5c-0.2-2.7-3.9-2.4-6.1-3.2c-3-1.1-6.1-2.2-9.2-2.4
		c-10.5-0.9-14.8-8-17.7-16.7c-1.4-4.1-2.5-8.4-4.3-12.3c-1.1-2.4-2.5-8-6.6-3c-9.2,11.1-16.1,23.5-18.4,38
		c-2.3,14.6,0.1,19.1,13,25.5c1.7,0.8,3.1,2.2,4.7,2.9c4.6,2.1,9.2,4,13.8,6c0.1-0.2,0.3-0.5,0.4-0.7c-2.7-2.2-5.5-4.4-8.6-6.9
		c1.6-0.6,2.5-0.9,4-1.4c-2-0.5-3.4-0.8-5.6-1.3c4.2-1.9-0.4-2.2-0.2-3.6c1.8-0.2,3.3-0.4,5.6-0.7
		C151.5,359.1,148.8,358.4,146.2,357.6z M352.1,578.6c-5.9,1.6-11.3,3.4-17.7,2.6c-1-2.6-3,1.3-5,0.8c-8.2-2.2-16.4-4.4-24.8,0.2
		c-2.8,1.5-7-2-10.5,0.3c-1.1-2.1-4.2,3.7-4.5-1.8c-0.9,1.7-1.4,2.8-2.4,4.8c-0.2-2.2-0.3-3.4-0.4-4.6c-0.3-0.3-0.6-0.5-0.8-0.8
		c-0.3,1-0.5,2-1.3,5c-0.8-5.7-3.3-4.9-5.2-5.4c0.9,10.4,12.7,18.6,28.4,20C328.8,601.6,348,592.7,352.1,578.6z M187.1,426.8
		c-2-3-3.8-5.7-6-9.1c-0.3,1.7-0.5,2.8-0.6,3.9c-0.7,16.7,0,33.2,7,50.1c1.5-2.7,2.2-3.9,3.3-5.9c0,1.8,0,2.7,0,3.7
		c3.6-1.1,4.2-21.4,1-25.2c6.8-5.8-0.7-12.5,1-18.7c0.3-1.1-1.8-5.3-5.4-5.9C187,422.2,188.7,424,187.1,426.8z M70.2,315.8
		c0.3,3.4,0.6,6.3,0.8,9.2c0.5-2.1,0.5-4.2,0.5-6.3c0-1.1,0.2-2.2,1.4-2.6c0.5-0.2,1.3-0.1,1.6,0.2c1.1,0.8,0.6,1.9,0.1,2.9
		c-1.6,3.1-2.3,6.3-2,10.3c1.6-2.5,1.2-5.3,3.7-7.1c0,1.9,0,3.4,0,5.1c1.4-1.6,0.8-4,3.2-4.9c0.6,1.4,1.2,2.7,1.9,4.4
		c3.9-5.2,7.5-10,11.5-15.4c-5.3-1.3-10-2.5-14.9,0.4c-2.5-6.1-6.5-11.2-10.3-16.4c-1-1.3-2.6-3-3.7-0.5c-1,2.3-2.8,3-4.5,4
		c2.7,4.8,5,9.5,4.4,15.4c1.1-0.7,1.6-1.1,2.5-1.7c0.3,1.9,0.5,3.4,0.8,5.2C68.3,317.2,69,316.6,70.2,315.8z M272.4,511
		c-1.7-3.1,1.1-5.4,1.2-8.4c0.2-11.6,6.2-19.4,17.1-23.3c13.2-4.7,26.7-4.9,40.4-2.7c8.5,1.4,16.5,3.8,24.2,9.1
		c-0.5-2.9-2.1-3.7-3.5-4.7c-7-5-15-7.2-23.4-8.1c-16.8-1.7-33.2-1.2-47.9,8.6C271.1,487.7,266.9,503.6,272.4,511z M352.1,494.8
		c2.6-2.1,2.8-2.2,2.3-3.3c-3.4-9-11.8-10.4-19.5-12.7c-2.1-0.7-2.3,1.3-3.5,2c8.2,6,8.2,6,2,21.5c4.5,1.3,8.9,1.9,12.7-1.2
		c4.4-3.5,3.6-8.2,1.3-13C350.7,489.5,350.9,492.4,352.1,494.8z M210.7,393.1c-6,7.9-5.7,17.2,0.8,23.5c7.8,7.6,24.8,8.2,33.6,1
		c6.6-5.3,9.6-14.5,6.4-19.6c-3.1,14.9-10.5,22.1-21.9,21.3C216.8,418.4,211.4,411,210.7,393.1z M240.2,383.3c-5.5,0.3-5.5,6.1-9,8
		c4.2,1.8,6.7,6.8,11.7,6.8c3.8,0,5.9-2.8,5.5-6.3C247.8,387,244.1,384.7,240.2,383.3z M218.3,393.1c-3.5,5-4.6,10-0.5,15.3
		c4.7,6,12.7,8.5,19.1,5.1c4-2.1,7-5.4,7.6-12.3c-6.7,7.7-12.8,14-21.7,7.3C217.9,404.8,215.9,399.5,218.3,393.1z M186.6,556.8
		c12.5,0,24.6,0,36.7,0c0.9,0,2.6,0.6,2.5-1.5c0-1.7-1.2-1.8-2.4-1.7c-11.2,0.2-22.5,0.4-33.7,0.5C187.1,554,186.2,555,186.6,556.8z
		 M220.7,286.8c2.5-12.7-0.7-23.9-8.5-33.9c5.8,11.2,4.7,23.6,6.2,35.5c1.4-4.3-0.9-8.5,0.7-13.2
		C219.7,279.5,220.2,283.1,220.7,286.8z M142.6,389.9c-0.5-5.3-5.8-4.4-7.5-8c2.3,0.4,4.3,0.8,7.3,1.4c-3.9-2.7-7.9-2.9-10.8-6.7
		c2.5,0.5,4.2,0.9,5.6,1.2c-3.5-3.7-7.3-7.4-13.3-6.5c1.7,1.9,4.8,3.7,4.8,5.4C128.8,386.1,136.9,386,142.6,389.9z M464.6,378.8
		c10.4-2.3,20.6-5,30.2-9.9c-10-2.8-18.3,1-26.4,6c2.3-0.6,4.7-1.1,7-1.7c0.1,0.2,0.1,0.5,0.2,0.7
		C472,375.5,468.3,377.2,464.6,378.8z M183.7,563.4c17.6,0,35,0,52.7,0C232.3,560.7,185.9,560.7,183.7,563.4z M468.9,368.2
		c-3.4,2-6.4,3.8-9.4,5.6c0.1,0.2,0.2,0.3,0.3,0.5c8.1-2.9,16.1-5.8,24.2-8.7c-2.8-5.1-8.6-4.9-17.6,0.6
		C467.2,366.9,467.9,367.4,468.9,368.2z M173.9,566.3c4,0.8,5.5-1.2,6.7-3.6c2.4-5,4.1-10.1,2.5-17.2
		C179.7,553.2,176.9,559.5,173.9,566.3z M237.8,311.2c0.3-4.6,5.2-3.1,7.1-6.3c-8.7,1.3-15.5,5.7-23,9.4
		C228.3,316,233.2,313.6,237.8,311.2z M430.5,341.2c5.6,3.5,10.4,6,16.7,6.6C443.2,341.4,438.4,338.7,430.5,341.2z M325.5,519.5
		c0.8,8,7,13.2,11.8,10.6c0.9-0.5,1.5-1.6,2-2.6c0.1-0.2-0.8-1.4-1.1-1.3C332.8,526.6,329.1,523.7,325.5,519.5z M145.7,373.6
		c0.1-0.3,0.2-0.6,0.1-0.7c-3.5-1.9-7-3.8-11.3-6.1c2.6,0.5,4.4,0.8,6.2,1.2c-4-1.7-8.1-2.7-12.3-3.4c-0.9-0.2-2.5-0.9-2.8,1
		c-0.3,1.8,1.3,1.7,2.3,2.1C133.8,369.6,139.7,371.6,145.7,373.6z M92.9,287.9c-16.7-1.3-24-0.4-28,4.3
		C74.4,287.7,83.4,290.4,92.9,287.9z M177.8,330.9c-0.5,0.2-1,0.4-2.1,0.9c7.5,0.7,14,3.7,21.8,2c-7.6-1.5-14.3-2.8-22.1-4.4
		C176.8,330.3,177.3,330.6,177.8,330.9z M195.8,347.9c7.1-2,12.3-3.5,15.6-8.9c-1.4,0.2-2.1-0.5-2.6-1.4
		C206,342.1,201.4,344,195.8,347.9z M207.4,335.6c4.3-1.1,8.7-2.2,12-7.7C214,330.1,210.3,332.2,207.4,335.6z M307.5,560.2
		c0.4,5.4-1.5,9.5,1.8,13.2c1.5-4.4,3-8.7,0.5-13.8c-0.2,2.3-0.3,4-0.5,6.5C308.7,564,308.4,562.8,307.5,560.2z M302.8,496
		c1.3-0.1,3-0.8,3.3-3c0.3-1.9-1.3-2.3-2.8-2.3c-2,0.1-3.7,0.9-3.9,3.2C299.4,495.8,300.7,496,302.8,496z"/>
	<path d="M109.6,506.3c0.6-0.1,1.3-0.2,1.7-0.2c-2.3,9.6-4.6,19-7,29.2c1.5-1.1,2.4-1.8,3.5-2.6c-6.4,7-6,16-7.3,23.7
		c1.2,4.8,2.3,9.6,3.5,14.4c0.3,0,0.6,0,0.9-0.1c0-3.2,0-6.5,0-9.7c2.7,6,1,12.8,3.8,19c1.8-10.3-2.1-21.6,7.5-29.5
		c2.2,1.4,4.7,2.9,6.5,4c4.2-6.8,3.6-14.7,5.3-22c1.3-5.6,2.7-11.2,5.4-16.3c0.9-1.8,1.8-3.8,4.3-1.6c-2.7,5.2-3,11.6-7,16.7
		c-2.3,3-1.4,5.8,4,5.9c-4.6,3.5-7.5,7.1-6.4,12.7c1.6,0.5,1.9-2.2,3.6-2.2c-0.9,3-5.3,4.6-3.5,9c1.8-1.5,3.4-3,5.2-4.2
		c8.1-5.1,14.4-1.9,15.5,8c0.4,4.3,0.3,8.7,0.1,13c-0.3,8.4-6.3,10-15.7,10.7c13-5.2,15.1-13.9,13.9-24.1
		c-5.4,2.2-14.7,18.2-13.3,23.6c0.7,2.7,3,0.9,5.5,2.1c-7.9-2.2-7.7,3.4-9.2,7.8c-3.3-2.5-3.7-6.1-5.3-9.5c-1,4-1.1,7.8-3.9,12.1
		c-0.4-1-0.6-1.5-0.8-2.1c-1.8-7.6-7.4-7.6-13.7-7.3c-11.1,0.4-22.2,0.1-33.4-1.1c14.3,0,28.5,0,43.1,0c-0.3-4.3-1.3-7.4-3.4-10.8
		c-0.2,1.2-0.3,1.8-0.5,2.4c-0.5,2.2,1.1,5.6-1.6,6.3c-3,0.8-5.1-2.1-6.5-4.6c-1.3-2.2-2.8-2.7-5.2-2.7c-10.2,0.1-20.3,0-30.5-0.5
		c10.1,0,20.2,0,30.3,0c0-0.2,0-0.4,0-0.6c-5.8,0-11.7,0-17.5,0c0-0.3,0-0.6,0-0.9c6.6,0,13.1,0,20.1,0c-0.7-2.6-1.2-4.6-1.8-6.7
		c-17.5-1.2-34.9,0.6-52.8-1.3c8.9-0.5,17.4,0.4,27.7-1.7c-8.3,0-14.6,0-20.9,0c0-0.2,0-0.5,0-0.7c9.2,0,18.5,0,27.7,0
		c1.2,0,3.4,0.7,3.5-1.2c0.1-2.2-2.3-1.5-3.6-1.6c-10.5-0.2-20.9-0.2-31.4-0.4c-1.3,0-2.8,0.6-4.8-2.3c13.3,0,25.6,0,38,0
		c0-0.6,0-1.1,0-1.7c-14,0-27.9,0-41.9,0c0-0.6,0-1.2,0-1.8c12.8,0,25.7,0,38.5,0c1.6,0,3.4-0.1,3.3-2.6c-0.1-2.7-2.2-1.3-3.4-2
		c1-1,3.6,0.6,3.5-1.5c-0.1-2.2-2.4-1.3-3.7-1.3c-22-0.1-44-0.1-66-1.1c22.2,0,44.5,0,66.7,0c1.3,0,3.6,0.9,3.6-1.5
		c0.1-2.4-2.3-1.6-3.5-1.6c-18.6-0.1-37.2,0-55.8-1.2c18.8,0,37.6-0.1,56.4,0.1c3.1,0,4.2-0.9,3.9-4c-0.5-5.8,1.7-11.4,1.9-16.9
		c0.5-11.6,8.7-15.3,16.5-19.3c13.6-7.1,28.4-11.6,42.9-16.5c1.4-0.5,3-0.4,5.8-0.7c-13.1,5.6-25.8,8.9-37,15.7
		c-12.9,0-25.7,13.1-27.3,28.3c1.1-2.1,1.9-3.7,2.9-5.8c0.2,2.2,0.4,3.8,0.7,6.4c5.5-5.5,11.6-9.1,13.8-16.2
		c-0.7,0.1-1.8,0.3-3.6,0.7C104.4,510.8,107,508.5,109.6,506.3z M120.7,592.9c0.5-0.1,0.9-0.2,1.4-0.3c0.7-8.8,1.5-17.5,2.1-26.3
		c0.3-4-0.5-7.8-3.9-10.5c-1.4-1.1-3-2.1-4.8-1.3c-1.7,0.8-2.3,2.7-2,4.2C115.7,570.2,118.2,581.6,120.7,592.9z M129.2,588.9
		c3.2-10.5,6-21.1,11.6-30.6c0.9-1.6,3.6-3.6,1.5-5.5c-2.1-2-4.6,0-6.7,1.2C126.2,559.8,125.1,575.9,129.2,588.9z M90.9,552.7
		c2.2,0.5,4.1,1.1,4.9-1.7c1.3-4.6,2.8-9.2,3.9-13.9c0.5-2.3,0-4.9-2-6.2c-1.8-1.2-3.9-0.1-5.5,1.2c-4.8,3.7-8.5,21.3-5.3,27.6
		c1.9-9.3,3.5-18.2,12.4-25.5C95.8,541.2,92.1,546.4,90.9,552.7z M86.9,562.3c3.3,1.8,6.2,1,8.9,1.2c0.3,0,0.9-0.7,1-1.2
		c0-0.4-0.5-1.3-0.8-1.3C93.1,560.9,90.2,560.1,86.9,562.3z"/>
	<path d="M505.7,340.1c-1.7-2.5-3.4-5-5.1-7.5c-2.2-3.9-4.4-7.7-6.6-11.6c13.9,19.7,30,37.4,48.5,53c0.4-4.2,1.4-8.7,1.2-13.5
		c-0.3-7.8,0.3-15.5,1.9-23c1.6-7,4.4-13.7,8.1-19.9c4.4-7.3,9.7-18.1,7.6-22.3c-2.3-4.7-14.6-9.7-22.2-8.8c2.7,1.4,4.7,2.4,7.7,4
		c-5.5,1.9-9.4-1.5-14-0.5c0.7,1.1,1.3,2,2.2,3.3c-4.8,0.8-8.8-2.8-13.1-1.2c-0.4,0.2-0.4,1.4-0.7,2.5c-0.8-0.4-1.6-0.8-2.8-1.4
		c0.3,0.9,0.5,1.6,0.6,1.8c0.6,2.8-4.6-2.7-2.4,1.7c-7.3-0.8-12.7-5.7-18.8-9.5c4.3,4.2,8.6,8.5,12.9,12.7
		c-10.2-4.3-19.9-9-27.6-16.7c-4-4-8.3-7.7-12.1-11.9c-8.2-9-18.1-15-30.9-18.9c12.3-1,22.7,1.4,30.2,9.4c6.6,7,14.3,9.5,23,10.9
		c11.5,1.9,22.8,6.2,34.9,4c-0.8,0.4-1.7,0.7-4.4,1.8c6.1-0.3,10.3-0.5,15.8-0.8c-2.4,0.7-3.6,1.1-5.3,1.6c6.6,1.2,12.8,2,18.8,3.5
		c12.6,3,20.1,11.9,18,21c-0.2,0.8-0.4,1.6-0.7,2.3c-2.7,6.8-5.4,13.6-8.7,21.8c0.3-4.1,0.5-6.8,0.7-9.7
		c-8.6,6.4-21.6,51.7-18.2,63.4C530.2,368.8,517.7,354.8,505.7,340.1z"/>
	<path d="M472.6,485.5c9.8,1.3,18.8,5.5,28.1,8.6c4.8,1.6,9.4,3.7,14,5.8c16,7.3,20.7,15.1,20.1,32.6c-0.4,10.7-0.4,10.7,10.1,11.2
		c-2.8,0-5.6,0-8.4,0c15,2.6,30.3,0.3,45.2,4.2c-14.9,0-29.8,0-44.8,0c0,0.5,0,1,0,1.5c2.7,0.1,5.4,0.3,7.8,0.4
		c-2.6,0.6-5.7-0.7-9.5,2.2c16.1,0,30.9,0,45.7,0c0,0.6,0,1.1,0,1.7c-14.7,0-29.3,0-44,0c0,0.7,0,1.4,0,2.1c15.6,0,31.1,0,46.7,0
		c0,0.6,0,1.2,0,1.9c-14.9,0-29.7,0-44.6,0c0,0.4,0,0.7,0,1.1c13.6,0,27.2,0,40.8,0c0,0.6,0,1.2,0,1.8c-15.4,0-30.8,0-46.1,0
		c0,0.6,0,1.2,0.1,1.8c5.8,0,11.6,0,17.4,0c0,0.2,0,0.3,0,0.5c-2.3,0.1-4.5,0.2-6.8,0.3c0,0.3,0,0.6,0,0.8c11.6,0,23.3,0,34.9,0
		c-19.1,1.4-38.2,0.2-57.3,2.3c18-0.8,36,0.1,53.9,1.1c-17,0-34,0-51,0c-3.4,0-6.6,0.3-5.8,5.5c14.2,0,28.5,0,42.7,0
		c0,0.6,0,1.2,0,1.8c-13.6,0-27.3,0.1-40.9-0.1c-2.8,0-4,1-5,3.2c-1.3,2.9-3.3,5.3-7,6.3c1.3-6.3,2.6-12.3,3.9-18.4
		c0.2,0,0.5,0.1,0.7,0.1c-0.2,2.8-0.4,5.6-0.8,10.5c1.9-5.1,3-8.3,4.3-11.7c0.4,0.8,0.6,1.2,1.7,3.2c3.7-19.5-1.8-36.5-5.5-54.3
		c4.2,2,7,4.6,7.7,9.2c0.5,3.1,3.1,4.5,5.5,5.8c1.2,0.6,2.7,0.6,3.2-1.3c0.6,0.8,1.1,1.5,1.7,2.2c0.2-0.3,0.5-0.5,0.5-0.7
		c-0.5-3.9-2-7.4-2.4-11.5c-0.5-5.9-6-9.9-11.4-12.5c-7-3.3-14-6.6-21.3-9.1C488.6,492.5,481.2,487.7,472.6,485.5z M532.6,560.5
		c0.3-1.2,0.6-2.4,0.8-3.7c1.3-8.2,0.4-16.1-3.4-23.6c-1-2-2.7-2.9-4.9-1.6c-1.4,0.8-1.8,1.7-0.9,3.1
		C528.9,542.7,532.5,551,532.6,560.5z M521,534.7c-0.6,10,3.6,19.6,7.8,19.3C528,547.4,525,541.7,521,534.7z"/>
	<path d="M473.5,562.5c-0.2-3.6,1.1-6.5,4.4-8.1c4.1-2,7.4-0.3,14.7,7c2.5-8.1-2.4-34.6-10.1-53.2c7.3,6.4,9.1,15,12.3,22.9
		c3.4,8.5,2.3,17,1,25.7c0.4-1.4,0.9-2.8,1.3-4.3c0.4-1.5,0.8-2.9,1.8-4.3c-0.9,4.2-1.7,8.3-2.6,12.5c2.6-4.7,6.3-7.3,11.7-8.1
		c0.5,4.7,0.9,9.1-0.6,13.6c-1.7,5.2-3.4,10.5-0.5,16.1c1.3,2.5-1.5,1.7-4.7,3.2c21.8,0,41.4,0,61,0c0,0.6,0,1.3,0,1.9
		c-15.4,0-30.8,0.2-46.1-0.1c-8.1-0.2-16.1-0.9-17.3,11.1c-4.1-4.5-3.4-9.2-4.8-13.3c-1.6,3.1-3.2,6.1-5.2,9.9
		c-4.9-12.2-6.1-24.7-15.1-36C474.4,560.2,473.9,561.3,473.5,562.5L473.5,562.5z M490.6,591.1c1.8-8.8,2.5-15.6,1.3-22.3
		c-0.8-4.9-3.3-9-7.5-11.9c-1.5-1.1-3.4-1.2-5-0.1c-0.4,0.3-0.6,1.6-0.4,2.1C483.7,568.5,487.9,578.4,490.6,591.1z M499.3,595
		c3.6-13.3,3.4-26.5,7.9-39.3C497.1,557.7,492.7,581.7,499.3,595z"/>
	<path d="M296.8,620.2c7,3.9,15,4.8,23.2,5.1c1.5,0.4,2.1-2.1,4.3-1.4c-1.7,3.4-4.2,6.5-7.7,6.1C302.8,628.8,297.8,626,296.8,620.2z
		"/>
	<path d="M473.5,562.4c-1.6,4.6-0.6,9,1,13.4c1.7,4.7,6.4,6.1,10.9,9.3c-6-0.3-10-2.2-13.2-6.9c-0.1,2.2-0.2,3.5-0.3,4.9
		c-1.7,0.4-1.9-1.1-2.6-1.9c0,0,0,0.1,0,0.1c-0.4-4.5-0.9-9-1.5-15.5c1,2.8,1.3,3.7,1.8,5.2c0.6-4.5,1.2-8.5,1.9-13.7
		C472.5,559.7,473,561.1,473.5,562.4C473.5,562.5,473.5,562.4,473.5,562.4z"/>
	<path d="M187,247.8c-2.5,0.4-5.1-1.8-7.2,1.5c-8.3-1-17.2-3.1-26.4-0.2C158.9,242.8,178.3,242.1,187,247.8z"/>
	<path d="M276.6,614.8c0-2.2,0-4.3,0-6.5c0.2,0,0.5,0,0.7,0c0.3,1.3,0.6,2.5,1.1,4.8c0.6-1.8,1-2.7,1.5-4.1c0.4,1.9,0.6,3.2,1.1,5.7
		c0.5-2.1,0.7-3.2,1-4.5c1.1,1.2,2.3,2.6,2.6-1.7c0.5,2.2,0.8,3.2,1.2,5.2c0.6-1.4,0.8-2,1.2-2.9c1.4,4,2.6,7.3,4.6,12.9
		c-3.4-3.5-5.1-5.4-7.1-7.5c-0.2,1.7-0.3,3-0.5,4.4C281.4,618.5,279,616.6,276.6,614.8L276.6,614.8z"/>
	<path d="M340.7,613c0,1.7,0,3.5,0,6.4c1.8-3.8,3.1-6.6,4.8-10.3c0.6,1.8,0.8,2.7,1.2,4c0.7-1.6,1.3-2.7,1.8-3.9
		c-0.2,6.9-5.3,10-10.2,14.2c0.7-4.1,1.3-7.3,1.9-10.6C340.4,612.9,340.5,612.9,340.7,613z"/>
	<path d="M268.5,611.2c-5.6-2.4-4.3-6.5-3-11.2C268.8,603.4,271,606.5,268.5,611.2z"/>
	<path d="M276.6,614.7c-0.4,0.7-0.7,1.4-1.3,2.5c-0.7-1.3-1.2-2.2-1.9-3.6c-0.6,1-1,1.8-1.7,3.1c-1.5-3.3-2.2-6.1-0.4-9.7
		c0.7,1.7,1.2,2.9,1.8,4.5c0.5-0.8,0.8-1.5,1.4-2.5C275.3,611.2,276,613,276.6,614.7C276.6,614.8,276.6,614.7,276.6,614.7z"/>
	<path d="M262.4,590.3c0.1-0.2,0.3-0.3,0.4-0.5c0.6,0.2,1.6-1.2,1.7,0.5c0.2,3.3,2,6.9-1.7,10.4
		C262.5,596.8,261.3,593.6,262.4,590.3z"/>
	<path d="M480.2,388.3c5.9-2.3,11.1-6.8,19.6-6C492.3,384.6,486.3,386.5,480.2,388.3z"/>
	<path d="M191,252.3c-0.2,0-0.4,0.1-0.6,0.1C190.6,252.2,190.8,252.2,191,252.3z"/>
	<path d="M97.9,316.6c-0.1,0.2-0.3,0.4-0.4,0.6c-0.1-0.3-0.3-0.5-0.4-0.8c0,0,0,0.1,0,0.1c0.3,0,0.5,0,0.8,0L97.9,316.6z"/>
	<path d="M98.8,315.2c-0.3,0.5-0.6,0.9-1,1.4c0,0,0,0,0,0c0,0,0-0.1,0-0.1c0-0.3,0-0.5,0-0.8c0,0-0.1,0.1-0.1,0.1
		C98.1,315.6,98.5,315.4,98.8,315.2z"/>
	<path d="M368.3,419.6c1.1,2.5,1.7,4.1,2.3,5.5c-4.9-1.8-5.2-11.3-13.7-7.9c5.8-4.7,6.8-11.3,8.6-17.6c2.4-8.3,6.1-16.1,11.3-22.9
		c4.7-6.2,13-8.3,21.2-5.5c-3.4,0.2-6.3,0.2-9.1,0.6c-2.8,0.4-5.4,1.4-9.2,4.6c11.7-4.5,20.7-2.7,28.8,4.1
		c7.5,6.4,11.4,15.9,18.6,21.4C414.6,429.1,395.6,436.5,368.3,419.6z M368.5,403.3c-2.4,6.9,2.3,14.2,11.1,17.9
		c13.6,5.7,27.7,2.3,32.7-7.8c4.5-9.2,1.4-20.9-7.4-25.9c5.6,15.9,5.8,29.5-14.5,33C380.9,422.1,371.9,414.7,368.5,403.3z
		 M395.2,384.3c-4.3,0.9-5.9,4-5.4,7.8c0.7,5,5.1,6.3,9.2,6.8c3.6,0.4,5.5-2.4,5.2-5.6C403.8,388,400.2,385.4,395.2,384.3z
		 M374.7,397.6c-2.4,7.1-0.1,11.4,4,14.8c5.5,4.5,11.6,4.8,17.7,1.3c3.5-2,5.2-5.3,5.4-11.4c-5.1,5.7-8.6,11.3-15.6,9.8
		C379.3,410.7,376.6,405.2,374.7,397.6z"/>
	<path d="M315,308.3c0.9-0.5,1.7-0.8,2.1-1c-4.2,8.8-6,18.4-6.7,30.4c1.3-3.9,2-5.8,2.7-7.8c-1.4,8.8-4,17.3-3.2,28.4
		c1-7.2,1.7-12.4,2.4-17.6c-1.4,9.6-1.3,19.2-1,28.9c3.9-1.3,3.3-5.6,5.3-7.7c-3.8,15.7-2.8,32.2-5.8,48.3
		c-1.6-10.2-3.2-20.5-4.8-30.8c-1.5-10.2-3.5-20.4-1.5-30.9c0.5,2.8,1,5.6,1.7,9.5c2.2-19.1-4.9-35.8-6-52.9c0.1,0,0.8,0.5,2.5,1.5
		c-1.8-3-3.1-5.1-4.4-7.3c2.6-0.9,3.3,4.1,5.9,2c1.4-1.1-0.8-2.2-0.9-3.6c3.2-1.3,3-3.6,1.1-6.1C311,290.7,317.3,300.2,315,308.3z"
		/>
	<path d="M295.8,417.6c0.8,0.6,1.3,1,2.2,1.7c-7.2,1.5-13.7,2.4-19.4-3.2c-5.4-5.3-5.6-10.9-1.6-17.3c5,6.3,11.7,10.6,19.8,12.4
		c2.3,0.5,4.3,0.7,4,3.6C300.7,417.6,298.2,417.1,295.8,417.6z"/>
	<path d="M381.1,358c2.7-1.5,5.5-1.9,8.8,0.3c-11.8,3-14.4,14.4-22.2,22.8c1.4-4.7,2.5-8.3,3.6-11.9
		C373.6,364.7,376.9,361,381.1,358z"/>
	<path d="M381.1,358c-4.2,3-7.5,6.7-9.9,11.2c-3.7,4.9-4.4,10.9-5.8,17.3c-2.1-10.2,4.7-25.3,13.8-31.5c2.5-1.7,5.3-3.7,8.6-1.1
		C385.8,355.8,382,354.5,381.1,358z"/>
	<path d="M404.3,488c-1.2-3.7-4.8-5.5-7-9.1c2.1,1.3,3.8,2.3,5.5,3.4c0.2-0.2,0.4-0.4,0.6-0.6c-3-3.2-5.9-6.4-9-9.7
		c0.6,0.1,1.2,0.2,3,0.6c-3.6-2.9-6.3-5-8.8-7c8.1,1.5,13.1,7.5,19,23.5C406.2,488.6,405.2,488.3,404.3,488
		C404.2,487.9,404.3,488,404.3,488z"/>
	<path d="M310.3,414.3c-4.6-8.7-8.6-17.5-7-27.6C305.6,395.9,308,405.1,310.3,414.3z"/>
	<path d="M374.3,355.2c4.8-5.9,12.9-7.1,19.3-3.6C387,351.6,381,351.6,374.3,355.2z"/>
	<path d="M396.5,466.4c-5.5-1.3-9-5.3-12.5-9.7C389.3,458.6,392.9,462.5,396.5,466.4z"/>
	<path d="M366.8,305c-6,1.6-12.1,3-17.3,6.8C353.9,306,360.1,304.8,366.8,305z"/>
	<path d="M362.5,375.5c-0.9,5.8-1.9,11.6-2.8,17.4C357.9,386.5,360.1,380.9,362.5,375.5z"/>
	<path d="M234.5,336.3c1.1-5.2,6.4-6.9,12.6-3.8C241.9,330.4,239.3,336.9,234.5,336.3z"/>
	<path d="M385.5,449.2c-5.2-1.1-8.5-2.6-12.5-2.2c1.1-0.8,2.8-0.1,2.7-2.2c-1.4-0.6-2.9-1.3-5.8-2.6
		C375.9,443.5,380.2,445.4,385.5,449.2z"/>
	<path d="M355,391.1c-2.4-7.8,0.7-13.3,2.1-19.2C356.4,377.8,355.8,383.7,355,391.1z"/>
	<path d="M220.1,468.9c-0.5-7,3.7-11.2,20.7-21.3C240.3,460.2,230.9,465,220.1,468.9z"/>
	<path d="M198.1,378c4.5-4.6,8.2-10.2,14.9-12.2c-6.3,4.5-11.6,9.9-17,15.6C196.7,380.3,197.5,379.1,198.1,378
		C198.2,377.9,198.1,378,198.1,378z"/>
</g>
</svg>
