<?xml version="1.0" encoding="utf-8"?>
<!-- Generator: Adobe Illustrator 24.2.3, SVG Export Plug-In . SVG Version: 6.00 Build 0)  -->
<svg version="1.1" id="Layer_1" xmlns="http://www.w3.org/2000/svg" xmlns:xlink="http://www.w3.org/1999/xlink" x="0px" y="0px"
	 viewBox="0 0 595.3 841.9" style="enable-background:new 0 0 595.3 841.9; fill: #215342;" xml:space="preserve"
	 height="450" width="700" transform="translate(-190, -110)">
<g>
	<path d="M346.1,278.8c10.3-4.3,21-6.9,33.7-5.9c-8.1,1.5-15,2.6-21,8.3c18.8-6.5,36.7-6.2,54.4,0.4c6.1,2.3,11.3,5.9,15.3,11.3
		c-13.2-10.8-28.5-9.7-44-8.3c6.3,1.5,12.7,2.6,18.8,4.9c10.8,4.2,20.1,11.2,30.5,16.1c20.9,9.7,43.1,15,65.7,19.2
		c0.6,0.1,1.1,0.2,1,0.2c-11.4,0-23.5,0-34.8,0c12.7,4.3,26,9.5,37.3,18.7c11.7,9.6,14.5,24.5,22,36.6c-4.8-4.6-9.6-9.2-14.5-13.9
		c-0.2,0.4-0.3,0.7-0.3,0.7c8.8,8.4,14.6,18.7,19.2,29.8c2.7,6.4,7.8,10.9,13.2,15.1c-5.8-1.2-10.2-4.6-15.2-10
		c3.8,10.2,7.2,18.9,14.3,25.4c12.4,11.2,23.2,23.6,30.1,39.1c0.5,1,0.9,2,1,3.2c-6.1-8.8-13.6-16.3-21.3-23.6
		c-7.7-7.2-15.9-13.8-25-19.4c15.1,17.4,29.6,35.3,40.6,55.7c-10.4-10.5-21.2-20.4-33.3-29c20,23.5,35.7,49.2,43.3,80.7
		c-3.7-6.4-6.5-11.9-9.9-17.1c-3.4-5.3-7.3-10.3-11.1-15.4c-3.8-5.1-8.3-9.5-13.1-13.7c10.5,16.8,17.5,34.3,12.3,54.9
		c7.5,0.6,14.9,0.8,22,3.5c-11.5-2.4-23.1-2.6-34.8-2.6c-11.4,0.1-21.8,4.7-32.7,6.9c-20.2,4.1-39.9,2.6-59.3-4.9
		c2.9-6,3.4-12.6,3-19.5c4,5.6,6.5,11.7,6.7,18.5c0.1,3,1.1,4.4,4.2,4c1.4-2.9,0.6-6.2,1.2-9.3c1.8,0,1.7,1.9,3,2.8
		c1.8-3.4,3.5-7.1,8.4-8.7c-4.3,5.2-6.6,10.5-7.8,16.8c2.9,0.4,5.7,0.8,8.5,1.3c1.8,0.3,2.1-0.7,2.3-2.1c0.6-3.4,1.3-6.8,4.1-10.1
		c-0.8,4.4-2.5,8-2.3,12.2c14.9,1.1,29.3-1.4,43.7-6.1c-0.2-5-2.5-9.4-5.1-14c5.7,0.8,8.8,4.6,12.8,8.7c-0.6-2.4-0.9-4-1.4-6
		c2.8,0.8,3.8,3,4.1,5c0.7,4.3,3.2,4.2,6.3,3.4c0.3-9-4.4-16-12.6-19c-9.1-3.4-18.3-6.3-27.1-10.7c2-4.6,4.1-9,2.2-15.3
		c-0.7,7-1.1,12.7-5.4,17.2c-4.2,4.3-9.4,6.4-16,8.4c3.2-4.9,4.9-9.3,2.5-15c-0.5,7.7-1.5,14.4-8.6,19.2c4.1-8.1,5.6-15.7,1.4-24.3
		c-3.1,9.1-10,9.5-17.2,8.5c-14.9-2.3-26.6,2.1-36.1,14.3c-4.7,5.9-4.1,13.6-10.4,19.7c9.1-2.7,16.8-3,24.6-2.1
		c1.7,0.2,1.9-1,2.1-2.1c0.9-4.5,2.1-9,1.5-14.6c5.5,6,5.9,12.4,6.1,19.1c-10.1-1.9-19.9-3-29.8-0.7c-5,1.2-9.5,3.4-13.2,7
		c-6,5.8-13.2,9-21.5,9.5c-1.7,0.1-2.7,1-3.9,1.9c-12.1,9.2-25.5,13.8-40.9,10.9c-1.7-0.3-3.4-0.8-4.9-2.5c5.2,0.1,9.3-2.1,13.5-5.1
		c-9.9,2.7-15.8-7.3-26.9-7c7.1-4.3,12.5-8.1,13.4-15.4c-3,2.8-4.8,6.5-9.4,9.5c5-9,4.3-17.4,3-26c3,5.2,4.3,10.6,3.4,17.8
		c2.9-5.4,4.6-9.9,5.5-15.5c2.8,10.4-1.7,22.6-9.6,28.1c2.8,1.3,9.8,0.3,14.4-2.1c4.6-2.4,8.3-5.8,10.8-10.4
		c2.5-4.4,4.1-9.2,5.7-14.8c1.1,12-9.5,26.7-22,31.6c3.6,2.6,9,2.6,19.4-0.1c-4.4,4.6-8.7,8.4-14.6,10.2c5.2,1.2,10.4,0.7,15.5-0.4
		c11.5-2.5,21.3-7.9,28.7-17.2c3.8-4.8,1.7-10,0.5-16.6c-0.4,6.1-1.5,10.3-3.4,14.4c-2.1,4.5-5.2,7.3-9.9,7.6
		c14.7-10.1,10.5-24.2,7.6-38.6c6.5,8.1,9.4,16.9,10.5,27.2c4.7-8.3,4.3-16.7,4.4-25.3c3.9,9,6,25.3-2.1,33.8
		c5.6-0.3,14.6-8.4,17.1-15.8c4.6-13.4,1-25.3-6.7-36.4c-4.8-6.9-11.3-11.9-18.3-16.6c16,2.5,29.4,25.9,29.8,51.6
		c15.8-16.4,4.1-48.6-20.8-57.2c0-1.4,1.7-0.6,2.1-1.7c-6.5-1.3-13-2.5-19-6.7c20.5,5,26.8,5.5,34.7,2.2c-4.8,0-8.2,0.3-11.5-0.1
		c-11.9-1.3-21.5-7.2-29.6-15.7c-9.9-10.3-20.2-20-34.8-22.9c-4.5-0.9-9.1-1.2-15.5-2c4.3-0.6,6.9-1,9.9-1.4
		c-3.4-2.6-7.1-3.6-11-4.8c0.7-0.4,1.2-0.7,1.7-1c-0.6-2.2-13.1-0.4-19.1,2.6c4.2-6.3,11-6.6,28.4-1.2c-1.1-2.9-2.1-5.6-1.7-10
		c2,5.9,3.9,10.6,9.3,14.1c-3.4-5.9-6.3-10.8-5.9-17c13.3,0.6,16.2-9.9,20.4-18.9c2.2-4.7,3.7-9.7,5.7-14.4
		c5.1-12.2,16.4-18.5,29.9-16.2c-19.7-0.1-29.1,10.8-31.1,29.5c0.3-0.9,0.7-1.8,1-2.6c0.4,0.3,0.7,0.5,1.1,0.8
		c-0.5,2.4-1,4.7-1.6,7.1c17.2-12.4,34.1-9.7,51.5,0.3c-4.1-6.5-9-11.8-15.4-16.5c3.5,0.4,5.4,2.5,8.5,4.2
		c-4.3-7-10.1-10.6-17.1-12.8c5.5-2.8,15.7,0.5,21.1,6.4c5.3,5.9,7.3,13.4,10,20.9c1.7-16.3-13.2-37.2-35-49.1
		c3.6,0.1,6.7,1.1,9.6,2.6c2.9,1.4,5.6,3.1,9.2,5.1c-3.6-4.8-7.2-8.1-11.8-10.4c6.1,0.6,11.4,2.9,16.5,6.4
		c-1.5-4.2-11.4-10.9-21.1-14.6c-8.1-3-16.5-4.6-25.1-5.6c13.3-3,26.5-3.3,39.9-0.5c-15.7-10.4-33.1-14.1-51.9-12.2
		c3.9-3.2,10.4-3.6,30.4-2c-4.6-4.8-15.5-6.5-40.7-6.4c7.6-3,14.8-2.7,21.8-3.1c-5.7-2.3-20.4-2.5-29.7-0.7
		c-10.3,2-18.7,6.9-25.3,15.1c-9.6-22.7-30.4-27.5-49.3-24.8c-16.3,2.3-30.7,13-33,24.7c9.5-10.9,21.2-10.4,33.4-8.1
		c-5.9,1.4-11.8,2.7-18.1,6c7.4,0.9,13.4,2.8,18.8,8.4c-12.5-3.5-23.9-4.4-36,3.1c7.3-1.5,13.1-1.5,18.8,0.4
		c-7.9,0.4-15.5,2.1-22.8,5.3c-7.2,3.2-14,7-19.4,13c5.7-3.3,11.8-5.4,19.9-6.5c-10.1,4.9-18.7,9.1-27.1,16.2
		c8.5-2.1,15.4-1.7,22.3,2.8c-3,0.5-5.4,0.9-7.8,1.3c0,0.3,0,0.5,0.1,0.8c3,0,6,0,9.1,0c-5,1.9-10,3.2-14.2,9
		c5.6-3.6,10.4-4.7,16.9-3.8c-7,2.3-11.9,5.6-17.5,10.6c3.3-1,5.2-1.6,7.1-2.2c-8.5,5.7-15.2,13-20.1,22
		c19.6-13.5,39.1-21.7,58.9-1.4c-2.4-8.6-4.5-18.3-7.8-27.6c-4-11.5-14.3-17.2-28-16.8c-1.2,0-2.3,0-3.5,0
		c10.5-4.2,24.4,1,30.8,11.6c3.8,6.3,6.2,13.1,8.9,19.9c3,7.6,8.4,13.8,12.7,20.7c1.2,2,3.4,3.1,5.3,4.4c1.8,1.2,5,0,5.4,2.2
		c0.5,2.9-0.9,5.8-2.3,8.4c-1.1,1.9-2.4,3.7-3.5,6c5.8-6.9,13.2-6.3,22.1-4.5c-5.4,0.7-9.5,1.4-13.6,3.9c2.3,0.6,4.2,1.1,7.7,2
		c-8.8,1-16,1.5-22.8,4.2c-13.4,5.1-22.5,15.7-32.6,25.1c-5.6,5.2-11.5,10.1-19.5,13.6c2.5-2.7,4.3-4.7,6.8-7.5
		c-12.3,7.7-23.7,13.9-37.2,8.2c1.1,5,8.9,10.3,17.2,11.2c11.6,1.3,22-2.5,32.5-7.8c-3.5,4.2-15.8,9.4-23.6,9.6
		c-6.7,0.1-12.9-0.3-18.1,5.6c-5.8,6.6-9.8,13.8-11,22.6c-1.5,11,1.4,20.9,7.9,31.6c-1.5-6.8-2.6-12-1.1-18.3
		c2,10.2,2.8,19.9,9.1,29.2c-3.6-11.9-4.5-22.2,4.7-32.4c-5.5,13.8-1.2,23.7,8.8,33.6c-2.3-4.9-4.4-8-4.9-13.2
		c4.8,9.4,10.1,16.7,19.1,22.1c-5.2-7.9,0.3-16.7-4.4-24.3c5.2,13.9,15.4,21.5,30.3,24.8c-7.6,0.5-15.1-2.7-24.8-10
		c-0.9,4.6,1.6,9.6,7.5,14.9c-9.6-0.2-28.8-15.2-36.3-28.6c-0.7,5.7,0.8,10.8,2.2,16.7c-5.5-4.5-10.4-8.9-12.6-14.7
		c-2.9-7.4-8.6-8.5-15.1-8.9c-6.4-0.4-12.8,0.4-19.4,1.4c0.5-6.4,1-12.4,5.9-18c0.2,5.2,0.7,9.6,2.1,13.9c0.3,1.1,0.5,1.9,2,1.9
		c6.6-0.4,13.2,0,20.1,1.7c-1.4-4.8-1.4-9.7-2.8-14c-1.2-3.7-5.6-6-7.8-9.7c-3.8-6.5-9.7-9.1-16.9-9.4c-2.8-0.1-5.7-0.1-8.6,0
		c-6.3,0.2-11.3-1.3-12.9-8.4c-3.7,5.1-3.7,10.1,0.1,23.3c-3.3-1.6-3.3-1.6-7.7-17.8c-1.7,5-1.4,9.6,1.8,14
		c-10.1-1.3-20.3-7.7-19.4-25.7c-2.4,4.8-1.4,9-0.4,13.3c-11.7,4.3-23.2,8.7-34.7,12.8c-10.4,3.7-14.1,8-15.9,19.6
		c2.5-0.7,5.5,2.2,7.2-1.9c1-2.5,1.7-5.2,4.8-7.5c-0.5,2.3-0.8,4-1.3,6.4c3.8-3.7,7-7,12.3-7.3c-1.8,3.6-3.8,6.9-4.5,10.7
		c-0.2,1.4-0.2,2.2,1.5,2.8c12.4,3.9,25,6,38,5.9c3.1,0,4.3-0.8,3.3-4c-0.8-2.7-1.2-5.5-1.9-8.9c2.6,2.7,3.8,5.4,3.8,8.4
		c0,3.9,1.9,4.6,5.2,3.8c1.9-0.5,3.9-0.8,6.2-1.2c-1.5-6-3.4-11.4-7.5-17c4.9,2.2,6.5,5.8,8.4,9.4c0.8-1.1,1.6-2.1,2.8-3.8
		c0.3,3.7,0.6,6.6,0.9,9.6c3.5,0.3,5.3-0.6,5.4-4.5c0.2-6.3,2.2-12.2,6.5-18.7c-0.4,7.9-0.3,14.4,2.8,20.1
		c-23.9,9.8-48.1,9.9-72.5,2.2c-8.3-2.6-16.6-4.2-25.2-2.9c-1.2,0.2-2.5,0-4,0c2.9-14.8,13.1-24.2,23.3-33.6
		c-16.3,9.1-30.2,21-42.6,34.9c11.3-25.7,30.3-45.2,51.7-64.8c-15,6-27.8,12.7-38.8,22.6c13-17.4,29.1-31.3,48.3-41.8
		c-9,2.1-17.9,4.6-25.7,10c6.4-9,15.3-14.8,25.5-19.9c-13.6-0.9-40.5,9.5-52.1,32.1c0.2-5.8,5.9-15.2,13.3-22.3
		c6.4-6.2,14.1-10.6,21.8-15c-9,2-16.9,6-24.2,11.9c2.2-5.7,10.7-13.7,22.9-21.8c8.8-5.8,17.7-11.6,26.1-18.2
		c-3.4,1.3-6.7,2.5-10.1,3.8c9.1-5.9,18.8-10.8,25.5-19.7c-8.2,6.2-17,11.2-27,14c2.6-1.7,5.3-3.4,7.8-5.3c2.6-2,5-4.2,7.2-6.6
		c-5.7,3.6-11.5,6.9-19.3,9.4c4.3-3,7.5-5.3,10.8-7.5c-7.5,2.7-14.9,5.1-23,5.3c24.3-5.6,36.9-25.4,53.4-43.3c-6.8,3-12.3,3.6-18,3
		c-5.7-0.6-10.9-2.5-15.2-6.3c12,6.1,26.4,1.9,34.5-2.6c-10.2,2-19.7,2.8-29.9-3.3c5.1,1,8.7,2.4,13.3,1.8
		c-5.7-1.2-10.5-2.8-15.8-6.9c16.8,6.1,29.7,1,42.1-8.4c8.9-6.7,19.3-10.9,29.7-14.6c18.1-6.4,33.8-17.1,50.3-26.5
		c2.9-1.6,5.9-3.1,9.7-5.2c-10.2,0.7-18.6,3.7-27,7.1c8-6.1,17.1-9.8,27-12.8c-14.3-2.5-35.4,8.4-46.2,23.5
		c3.4-21.9,42.6-40.9,79.1-37.8c-4.9-3-9.7-2.9-15.1-4c10.6-1.6,20.1-1.5,29.5,3c-2.7-5.3-7.2-7.4-21.2-10.2
		c13-6.2,41.4,8.2,61.4,31.3c0.2-3.6,0.4-6.9,0.6-10.2c0.3,0,0.6,0,0.9-0.1c0,3.9,0,7.8,0,12.3c17.1-18.6,38.2-27.3,61.5-31.6
		C357.6,272.5,351.3,274.3,346.1,278.8z M198.8,417.7c-7.2,6.9-7.9,23.3-1.3,32.7c4.8,7,16.2,10.3,23.4,6.8
		C198.7,449.1,194.4,441.4,198.8,417.7z M380.9,456.9c9.7,3.1,19.7-0.5,24.6-8.7c5.8-9.5,4.8-23.9-1.9-30.8
		C408.4,439.7,403.8,447.9,380.9,456.9z M379.6,419.6c0.2,4.4,2.5,7.2,6.9,7.4c4.5,0.2,6.9-2.6,6.9-6.9c0-4.2-2.5-7.1-6.8-7.1
		C382.6,413,379.9,415.1,379.6,419.6z M235.6,428.7c4.2-0.3,6.5-2.9,6.5-6.9c0-4.2-2.3-7.2-6.6-7.3c-4.5-0.1-7.1,2.7-7,7.2
		C228.6,425.9,231.2,428.2,235.6,428.7z M108.5,481.3c-10.5,10.8-8.8,33.4,2.3,37.6C103.6,507,102.1,494.9,108.5,481.3z M495.6,483
		c3.4,13.1,0.8,24.7-7.2,35.6C499.8,514.3,503.8,493.3,495.6,483z M395.7,416.3c2.9,8.4,2.6,15.9-1,23.7
		C402.4,436.5,403.1,423,395.7,416.3z M161.8,460.4c2.5,9.5,15.9,16.6,23.9,12.9C176.1,472.1,168.2,468.2,161.8,460.4z M244.6,423.8
		c0.7,5.7,0,11.1-2.4,16.4c2.5,0.8,3.4-0.7,3.9-2.1C247.7,433.2,247.5,428.4,244.6,423.8z M206.3,428.7
		c-1.1,11.2,5.5,20.1,14.5,20.5C210.2,444.2,208.3,441.7,206.3,428.7z M390.7,556.1c5.5-3.7,7.1-9.1,6.5-16.8
		C395.7,546.1,393.6,551.2,390.7,556.1z"/>
	<path d="M271.9,525c6.8-6,14.6-10.7,19.9-18.3c0.4-0.6,0.9-1.1,1.4-1.8c2.9-4.2,5.7-8.7,5.9-13.8c0.2-6.7-6.7-6.3-10.4-9.1
		c-3.1-2.3-6.8-3.7-10.2-5.7c-6.6-4-6.5-8.4,0.1-12.2c0.6-0.4,1.2-0.8,2.2-1.3c-2.8-0.7-5.4-1.1-7.8-1.9c-5.9-2-7.5-7-3.9-12
		c5.6-7.8,14-10.2,22.9-11c8.3-0.8,16.7-0.7,24.9,1.1c5.3,1.2,9.8,3.8,13.5,7.8c5.5,6.2,3.7,12.4-4.3,14.5c-1.8,0.5-3.6,0.8-5.5,1.2
		c0.1,0.4,0.1,0.7,0.2,0.8c8.8,5.6,8.6,9.2-0.7,14.3c-5.5,3-10.9,6.1-16.4,9c-2,1.1-2.6,2.4-2.2,4.6c1.5,9.3,6.7,16.5,12.4,23.5
		c5.4,6.7,10.8,13.4,12.6,22.3c-1.1-1.6-2.2-3.2-3.3-4.8c-9.7-14-21-17.8-37.4-13c-4.9,1.4-9.6,3.1-13.9,5.9
		C271.9,524.9,271.9,525,271.9,525z M328.4,451.9c-6.3-13.5-50.7-12.5-55.5,0.6c4.7-2.6,8.9-5.4,13.7-7.5c5.8-2.5,10.4,3.7,14.8,2.3
		c5.3-1.6,10-3.8,15.4-1.5C320.5,447.5,324.1,449.7,328.4,451.9z"/>
	<path d="M248.8,569.1c2.4,1.3,4.8,2.6,7.5,4c-10.8,2.3-23.5-1.8-29.9-9.8c3.6,1.9,6.6,3.7,9.7,5.1c3.1,1.4,6.3,2.6,10.3,2.8
		c-7.8-7.1-12.2-15.6-13.5-25.7c4.9,13.5,13.3,22.8,29.1,24.5c-12.6-6.6-13.8-19.6-12.8-30c1,2.9,1.8,5.3,2.8,8
		c1.2-4,2.2-7.7,3.5-11.3c1.3-3.7,3.5-6.9,6.9-11c-1.3,4.8-1.8,8.5-3.2,11.8c-5.1,11.4-1.6,22.4,9.5,28.3c2.5,1.3,5.1,2.3,8.1,3.6
		c-1-3.8-2.7-7.1-2.1-11.2c1.8,2.1,3.3,3.9,4.9,5.7c1.7,1.8,3.5,3.3,7.1,4.7c-3.7-5.3-4.5-10.2-3.7-16.3c0.7,1.4,1.1,1.9,1.3,2.6
		c3.6,9.7,11.5,13.8,21,15.7c4.8,0.9,9.6,1.6,14,3.8c3,1.5,5.4,3.5,7.3,7.9c-11.3-9.2-25.6-6.3-36.3-13.7c2.6,3.9,6.7,6.5,9,12.6
		c-6.2-7.6-15.4-8.2-20.5-14.9c1,4.4,3.2,8,6,11.5c-4.1-2.2-7.1-6.2-11.9-7c-1-0.2-2.2-1.2-2.9-0.9
		C262.6,572.6,255.8,571.9,248.8,569.1z M266.5,567.5c-5.4-2.6-9-6.8-13.3-11.2C254.7,563.7,260.2,568.3,266.5,567.5z"/>
	<path d="M271.9,525c0,0,0-0.2,0-0.2c-4.1,7.2-7.6,14.7-8.1,23.7c-5.3-9.5,5.5-32,17.6-37.1C277.6,515.9,273.5,519.6,271.9,525z"/>
	<path d="M204.4,507.1c-11.4,7.7-20.2,16.9-23.8,30.7C179.1,526.4,192.5,509.1,204.4,507.1z"/>
	<path d="M304.7,385.6c-3.1,10.2-6.4,19.9,0,29.9c-3.3-0.7-4.2-3.1-4.7-5.7C298.6,403.3,300.8,391.7,304.7,385.6z"/>
	<path d="M286.8,420.4c2.9-6.4,3.6-13.4,4.6-21.7C292.8,407.5,292.3,414.5,286.8,420.4z"/>
	<path d="M296.6,432.6c-7.1-5.2-14-4.7-21.2-3.5C282.1,425,291.6,426.2,296.6,432.6z"/>
	<path d="M341.9,478.4c6.8,2,12.8,5.4,17.6,10.6C353.9,485,348,481.4,341.9,478.4z"/>
	<path d="M324.6,390.4c-2.1,6.6-2.6,12.4,0,19.2C320.3,403.8,320.3,396.8,324.6,390.4z"/>
</g>
</svg>
