<?xml version="1.0" encoding="utf-8"?>
<!-- Generator: Adobe Illustrator 24.2.3, SVG Export Plug-In . SVG Version: 6.00 Build 0)  -->
<svg version="1.1" id="Layer_1" xmlns="http://www.w3.org/2000/svg" xmlns:xlink="http://www.w3.org/1999/xlink" x="0px" y="0px"
	 viewBox="0 0 595.3 841.9" style="enable-background:new 0 0 595.3 841.9; fill: #215342;" xml:space="preserve"
	 height="400" width="700" transform="translate(-200, -59)">
<style type="text/css">
	.st0{fill:#FFFFFF;}
</style>
<g>
	<path d="M324.2,346.1c1.1,1.5,2.1,3,3.2,4.5c-4.8-2.7-7.7-6.9-9.9-11.7c-1.9,2.3-1.9,2.3,1.1,8.3c-1.8-1.7-3.6-3.5-5.8-5.5
		c-0.5,3.6,3.1,4.8,3.6,7.8c-1.4-0.6-2.4-1-4.6-2c2.1,3.7,5.2,5.3,6.5,8.3c-0.9,0.5-1.5-0.2-1.9-0.6c-2.1-2.6-4.1,0.2-6.2,0.1
		c-0.7,0-0.4,1-0.1,1.6c0.4,0.8,1.2,1.5,0.6,2.5c-1.4,0.6-1.7-2.4-2.9-1.2c-1.6,1.6-0.4,3.7-0.1,5.6c-1.2,0-1.2-1.6-2.7-1.4
		c0.9,3.3,1.6,6.7,0,10c-0.5-0.6-1.3-1.5-2.2-2.7c-0.5,2.6,1.4,4.1,1.2,6.3c-1.1-1.2-1.2-3.3-3.7-4c3,5.4-2.8,7.2-3.4,11.4
		c-1-0.7-1.6-1.1-2.3-1.5c-0.2,0.3-0.5,0.4-0.4,0.5c0.8,2,0,3.1-1.8,3.9c-1.9,0.9-3.6,2.4-5,4c-0.8,1-1.5,1.9-0.7,3.2
		c0.7,1.2,1.7,1.6,3,1.6c1.3,0,2.5-0.7,4,0.2c-3.8,3.6-9.7,2.6-13.5,5.7c0.1,0.3,0.3,0.6,0.4,0.9c0.8,0,1.5-0.1,2.3-0.1
		c-2.8,1-2.9,4.3-5.1,5.7c-0.7,0.5-0.6,1.3-0.2,2c0.4,0.8,1.1,0.6,1.7,0.4c3.3-0.8,6.6-1.6,10-2.1c-11.2,3-17.7,12.9-27.7,18
		c-0.3-2.5,1.1-4.1,2.3-6.1c-2.4,2.1-4.9,4.1-7,6.3c-1.6,1.6,0,3.4,1.2,3.9c2.4,1,1.2,2,0.4,3.1c-2.1,2.8-4.3,5.6-7,9.2
		c1.8-1.2,2.8-1.8,4.8-3.1c-2,3.4-4.1,5.5-5.1,8.4c3.1,0.1,3.9-1.7,3.8-4.9c1.7,2.3,3.6,2.6,5.6,2.6c1.3,0,1.8,1.1,2,2.3
		c0.3,2.1-0.3,3.7-2.5,4.1c1.2,2.1,0.4,4.1,0.2,6c-0.1,1.2-1.4,1.3-2,0.2c-1.2-2.1-3.8-3.3-4-6c-0.1-1.9-1.3-1.8-2.2-1
		c-4.9,4.3-9.7,8.8-14.3,13.5c5.3-1.9,7.1-7.8,12-10.1c1.9,2.8,0.6,4.7-1.1,7.1c-1.6,2.2-4.3,4.2-4.9,6.3c-2,7.1-9.2,7.3-13.4,11.4
		c-0.3,0.2-0.5,0.5-0.6,1c4.9-2.6,9.6-5.7,15.1-7.6c-0.1,4.1,0,8.1,2.9,11.9c-5.3,5.5-11,11.4-16.6,17.3c0.2,0.2,0.3,0.3,0.5,0.5
		c2.3-2.2,4.6-4.5,6.8-6.8c1.6-1.6,2.9-2.9,5.6-2c2.8,0.9,5.8,1.1,8.8,1.5c-0.2,1.6-1.6,0.6-2,1.5c2.7,0.5,1.5,2.3,1,3.7
		c-1.1,3.3-3.4,0.5-5.2,0.9c-0.1,0.1-0.2,0.4-0.2,0.4c3.7,3.5,2.4,7.2,0.5,10.9l0,0c-1.5,0.7-1.2,2.7-2.6,3.6
		c-2-1.4-3.1-3.3-4.3-5.3c-1.4-2.3-3.5-3.8-6.3-3.8c-24.5,0-49.1,0-73.6,0c-1.8,0-3.4,0-4.7,1.7c-1,1.3-2.6,1.3-3.7,0
		c-1.4-1.7-3.2-1.7-5-1.7c-12.1,0.2-24.2,0.4-36.3,0.6c-2.2,0-4.1,0.4-5.6,2.4c-1.8,2.4-3.8,2.1-5.7-0.3c-2-2.6-6.7-2.3-8.5,0.4
		c-1.8,2.6-3.9,2.6-5.8,0.5c-1.9-2.1-4.1-2.5-6.7-2.4c-21.8,0.2-43.5,0.4-65.3,0.5c0-0.9,0-1.9,0-2.8c5.6-0.1,11.2-0.3,16.7-0.4
		c1.1,0,2.5,0.3,2.1-1.8c-1.7-10.1,2.5-17.9,10-24.3c1.5-1.3,3.1-2.6,5.2-4.3c-2.7,0.1-4,1.7-6.6,2.9c4-4.4,8.2-6.8,13.2-7.6
		c2.1-0.3,3.3-0.9,4-3c1.8-5.8,5.3-10.7,9.5-14.9c3.5-3.5,7-6.9,10.7-10.2c5.7-5.1,14.6-4.6,22.1,1.4c3.6-5.5,7.9-9.9,15.6-8.6
		c-5.3-7.4-14.1-12.2-14.4-22.5c-1-0.4-0.7,1-1.4,0.9c-0.5-1.9,0.6-3.6,0.7-5.6c-1.8,1.1-1.4,3.2-2.5,4.6c-1.9-7.1-0.1-13.5,7-24.1
		c-3.4,1.3-7.4,7.6-10.5,17c0.7-5.6,3-9.5,5.2-13.4c2.3-4,5.8-7,8.4-11c-2.4,1.6-4.8,3.3-7.2,4.9c14.6-11.6,28.9-23.4,40.6-38.3
		c-2.5-0.2-4.5,1.5-7.4,1.5c6.6-4,12.7-7.6,17.9-12.7c-1.2-0.9-1.9,0.7-3.1,0.2c5-3.3,9.6-6.8,13.7-10.9c1.3-1.3,1.8-2.6,1.8-4.4
		c-0.1-10.7,10.4-26,20.6-30.1c-6.7,8.2-12.4,17-16.2,28c7.8-7.9,12-18.4,23.4-20.9c-2.5,0.2-5,0.5-7.4,0.7c3-3.1,4.2-7.7,9.3-8.2
		c-1.1-0.8-2.8,0.1-2.7-1.7c0-1.5,1.3-1.3,2.2-1.6c1.7-0.5,3.3-1,4.9-1.7c-6.7,0.3-12.4,4-19,4.7c3.8-1.5,7.7-3,12.2-4.8
		c-3.5-1.1-6.2,0.1-9.8,0.6c3.8-2.3,7.3-2.7,11.2-4.2c-2.5-0.3-4.3-0.5-7.3-0.9c4-2.3,7.6-0.7,10.7-1.7c0-1.6-1.7-0.6-2-1.8
		c5.4-2,11,0.8,16.6,0c1.6-0.2,3.1-0.2,4.5-1.1c6-3.7,12.4-6.8,18.1-11c2-1.5,4.3-2.5,6.8-3.1c5.8-1.4,10.6-4.8,15.4-8.2
		c4.8-3.3,9.6-6.6,15.5-7.5c-5.4,2.3-10.6,4.9-16.2,9.2c4.4-0.7,7.8-1.3,11.2-1.9c-3.9,1.7-8.3,1.6-12.2,3.9
		c8.1-0.4,15.5-2.9,23.2-4c-3.1,1.8-3.3,3.1-0.4,5.3c1.7,1.4,3.7,2.4,5.9,3.8c-5.8-0.3-11.1-1.9-16.5-2.4c3.4,1.8,7.6,1.3,11.2,4.6
		c-7.4-1.1-14.1-0.7-20.8-0.3c2.3,0.3,4.6,0.1,7.2,1.4c-3.7,2.1-7.5,0.2-11,2c2.7,0.1,5.1-0.4,7.5,1c-1.9,0.2-3.8,0.2-5.6,0.6
		c-1.4,0.3-4,0.3-2,3.4c-5.8-0.1-10.9,1.6-15.3,6.7c2.8-0.3,4.4-2,6.4-2.6c0.9-0.3,2-0.7,2.5,0.3c0.7,1.2-0.6,1.6-1.3,2.1
		c-1.4,0.9-2.2,2.2-2.9,4.3c7.1-2,13.8-2,20.5,0.2c3.5,1.1,6.9,2.9,10.8,2.6c1.6-0.1,1.6,1.3,1.1,2.4c-0.6,1.4-1.1,2.8-0.6,4.3
		c-5.7-0.5-8.1-7.1-14-7.8c0.4,4.9-3.9,2.9-5.8,4.2c0.5,2.3,3.1,1.7,4.2,3.3c-2.3,1.1-4.6,1-6.9,0.7c-1.7-0.2-3.4-0.1-4.5,0.9
		c-2.5,2.1-5.3,3.8-7.6,5.9c-4.2,3.6-9.1,6.1-13.5,9.4c0.1,1.1,1.6,0.8,1.9,1.9c-4.1,1.2-7,3.7-8.2,7.9c-0.1,0.3-0.7,0.6-1.1,0.7
		c-2.1,0.5-3.4,2.6-5.6,3c-1,0.2-1.4,1.4-1.3,2.5c0,0.6,0.2,1.2,0.8,1.3c1.1,0.2,1.7-0.7,2.3-1.3c2.5-2.6,5.1-4.9,8.3-6.6
		c3.9-2.1,7-5.4,10.5-8c3.6-2.7,7.4-5.3,10.4-8.7c-0.8-0.6-3,0.4-3.1-1.2c-0.1-1.7,2.3-0.9,3.2-2c0.2-0.3,1.4,0.2,2.1,0.3
		c1.9,0.2,3.8,1.1,5.6,0.1c0.4-1.3-1.5-1.5-1-2.7c2.7,0.5,5-1,7.5-1.3c1.9-0.3,3.7,0.1,4.9,1.4c0.9,0.9-0.4,2.1-0.9,3.1
		c-0.3,0.7-0.6,1.4,0.1,2c1.6,1.7,3.3,3.4,4.9,5.1c0.9-1-0.7-2,0.7-2.9c3.2,3.8,4.8,8.4,6.4,14.1c0.1-4.9-1.9-8.1-2.9-11.5
		c8.4,7.9,6,20.1,12.2,28.8c0-5.1,0-10.3,0-15.8c1.3,1,1.1,2.6,3.1,3.2c-2.8-10.1-2.5-20.8-10.7-28.5c1.5,1.5,3,3,4.4,4.6
		c2.5,2.8,3.3,2.8,5.3-0.5c0.7-1.2,1.3-2.4,2-3.8c2.2,1.6,5.2,1,7.3,3c0.7,0.7,1.7,0.6,2.6,0c1.1-0.6,0.7-1.6,0.5-2.5
		c-0.2-0.7-0.3-1.4-0.6-2.5c1.2,0.8,2.1,1.4,3.1,2c0.1-0.3,0.2-0.4,0.2-0.5c0.7-3.8-0.9-7.4,0.8-11.7c1.9-4.9-0.5-10.8-0.7-16.3
		c0-0.5-0.6-1.1-1-1.6c-2.7-3.1-2.2-5.8,1.5-7c0.7-0.2,2.2,0.4,2.8,1.6c0.4,0.8,1,1.7,1.8,1.5c3-0.7,5.2,0.3,7.3,2.3
		c1.3,1.3,3.1,1.1,3.8-0.3c3.7,2.4,3.2,7.8,7.9,9.1c0.5,0.1,1.2,0.7,1.2,1c-0.4,3,1.5,3.8,3.8,4c0.5,1.2-0.9,1.5-0.8,2.6
		c2,0.3,3.4-1.6,6.4-1.7c-3.4,1-4.4,3.3-5.8,5.1c-2.2,2.6,1.5,2.5,2.5,4.1c-2.9,3-7.5,4.5-9.6,9.9c4.1-2,6.3-0.4,8.7,1.6
		c0.6,0.5,3,1.5,4.4-0.5c2.3-3.2,5.4-4.7,9.4-4c2,0.3,3.9-1.3,5.9-0.5c0.3,1.2-1.1,1.3-1,2.2c6.6-3.3,8.6-3.2,9.1,0.9
		c2.2-0.1,4.1-2.6,6.8-0.8c-1.2,0-2.1,0-3.1,0c1.4,2.9,1.4,3,4.4,1.8c2.9-1.1,5.4-0.1,8.5,0.6c-2.1,1.8-3.7,3.7-6.2,4.6
		c2.9,1.5,6,0.5,8.8,1.4c0.6,1.2-1.2,1-1.1,2.2c1.7,1.4,4.2,1.1,6.8,2.6c-3.1,0.1-5.8-0.9-8.4,1.4c3.5,0.3,6.6,0,9.5,1.6
		c-3.8,2.8-8.4-0.9-12.4,2.2c2.5,0.4,4.8-0.2,7.9,1c-4-0.2-6.9,0.5-9.6,1.8c-0.6,0.3-1.6,0.4-1.4,1.4c0.1,0.8,1,0.9,1.6,0.9
		c9,0.6,14.7,6.1,19.5,12.9c0.7,1,1.7,1.9,3,3.2c0.1-3-2.6-3.5-3.1-5.3c0.5-0.8,1.3-0.1,2.2-0.3c-4.3-2.6-7.4-6-10-9.8
		c-0.7-1.1-2.1-1.1-3.2-1.5c-0.6-0.3-1.2-0.6-1.1-1.4c0.1-0.8,0.8-1,1.4-1.1c1-0.1,2.1-0.2,3-0.1c1.5,0.2,3,0.6,3.3-1.7
		c0.1-0.8,1.1-1,1.8-0.9c2.5,0.5,4.1-0.5,4.7-3c1.5,0.3,2.1,1.5,2,2.5c-0.1,2,0.9,3.3,2.1,4.6c0.6,0.6,1.4,1.5,0.4,2.4
		c-1.8,1.7-1.1,3.1,0.2,4.6c1.8,2,0.7,5.1,2.7,7.2c0.5,0.5,1.3,1.4,1.6,2.4c2.1,6.5,5.8,12.3,8.5,18.6c-1.9,0.5-3.2-0.1-4.6-0.9
		c-2.3-1.4-4.8-2.4-7.6-2.4c-1.3,0-2.4,0.3-3.3,1.2c-0.8,0.8-2,1.5-1.6,2.7c0.5,1.6,2.2,0.5,3.4,1.3c-1,1.6-2.1,3.1-2.1,5.1
		c0,2,0.1,3.7,3.1,3.8c-1.7,0.9-3.1-0.4-4.6,0.7c1.4,0.7,2.7,1.3,4,1.9c0,0.1-0.1,0.2-0.1,0.4c-1.3-0.2-2.6-0.4-4.1-0.6
		c0.5,2,2.6,1.4,3.2,2.9c-1,0-1.8,0-2.7,0c0,1.6,1.8,1,2,2.2c-1.1,0.3-2.3-0.9-3.4,0.1c-0.1,1.2,1.4,0.7,1.7,1.9
		c-2-0.4-3.5,0-5.1,1.4c-1.5,1.3-3-0.2-4-1.4c-1.3-1.5-1-3.1,0.4-4.5c1.1-1.1,2.8-1.8,3.7-4.6c-8.2,5.9-15.7,4.4-23.3,0.4
		c0.9-1.5,2-0.3,2.8-0.8c-1.5-1.8-3.6-2.5-5.8-3c-0.9,2.6-0.2,4.6,1.6,6.5c1.4,1.5,2.7,3.1,4,4.7c2.2,2.8,4.6,5.2,8.4,5.9
		c1.3,0.2,2.8,1,2.1,2.7c-0.7,1.9-2.1,0.6-3.3,0.2c-0.9-0.4-1.8-0.8-3.6-1.6c2,3.3,4.5,4.6,6,7.1c-2.9-1.2-5.8-2.4-9.7-4
		c2.2,2.6,3.8,4.4,5.7,6.7c-9.1-5.8-15.6-13-20.1-22c-2.7-5.4-7.5-8.9-12.7-9.5c-7-0.8-10.3-5.6-14.5-9.7
		C325.9,346.8,325.4,345.7,324.2,346.1c-0.4-4.1-2.9-7.6-3.1-11.8C319.8,338.9,321.3,342.7,324.2,346.1z M282.9,359.5
		c-9.2,10.7-17.4,24.5-16.5,28.1c2.4-4.1,4-8.4,6.3-12.3c1.5-2.6,3.5-3.4,5.4-1.9c3.4,2.7,4.6,0.6,6.4-1.7c1.2-1.6,1.5-3,1.5-5
		c0-2.4,0.5-4.6-2.6-5.5C282.6,361,282.9,360.1,282.9,359.5c3.3-0.1,5.1-4.6,3.1-9.6C285.2,353.7,284.6,356.9,282.9,359.5z
		 M129.3,395.7c1.3-0.1,2.5,0.1,2.7,1.7c0.2,2.3,1.1,4.6-0.7,6.7c-0.2,0.2-0.6,0.4-0.7,0.3c-1.4-1-1.4,0.4-1.5,1
		c-0.5,2.1-0.9,4.3-1.4,6.5c1.2-1.6,0.9-3.9,3.2-5.4c-0.2,2.9-0.5,5.4-0.7,8.6c0.5-0.7,0.6-1,0.8-1.2c0.2-0.1,0.4-0.2,0.4-0.2
		c0.1,11.8,6.4,20.8,12.9,30.1c1.6-2.8,2.3-10.5,1.3-10.8c-0.6,0.3-0.2,1.6-1.8,1.3c0.2-2.8,0.5-5.6,0.7-8.6
		c-3.6,1.9-3.6,1.9-3.5-4.6c-0.8,1-1.4,1.8-2.1,2.8c-0.8-1.2-0.3-2.2-0.3-3.2c0.1-1.3,0.6-3.5-0.5-3.6c-3.9-0.5-1.7-2.8-1.5-4.3
		c0.3-2.1,0.4-3.8-2.6-3.1c0.3-2.5,2-4.5,1.4-6.7c-1.7-6.6-1.3-13.4-2.8-19.9c-4.1,1.2-5.4,4.9-7.1,8.3c-0.9,1.8-1.7,3.8,1.8,3.2
		C128.3,394.4,128.9,395,129.3,395.7c-1.3,0.4-2.9,1.2-2.6,2.5c0.5,3.1-1.5,5.4-1.8,8.2c-0.2,1.7-0.3,3.3-0.5,5
		C126.2,406.1,129.7,401.5,129.3,395.7z M63.4,484.5c2-1.1,0.6,1.4,1.6,1.6c0.2-3,0.8-5.7,1.9-8.4c0.2,1.1-0.4,2.2,0.4,3.5
		c1.7-3.3,4.1-5.8,5.2-9.2c2.6-7.7,7.9-9.5,14.6-4.8c0.7-2.7,0-5.3-1.3-7.5c-1-1.7-1.3-3.3-1.2-5.2c0.1-1.5-0.4-3-1.2-4.4
		c-0.6-1-2.5-2.6-0.7-3.9c1.3-0.9,2.6-1.7,3.7-3c-3.4-1.7-6.9,0.7-8.8,4.7c-2.3,4.8-4.7,9.9-10.5,11.8c-0.3,0.1-0.6,0.5-0.6,0.8
		c-0.5,5.6-4.4,9.5-6.6,14.3c-2.5,5.6-4.1,11.3-3.8,17.5c1.9-8.9,5.2-17.2,10.7-24.5C63.8,473.1,65.2,479.2,63.4,484.5
		c-0.7,4.4-2.5,8.8,0,13.4C63.4,493.1,63.4,488.8,63.4,484.5z M118.7,493.6c-0.8-3.7,2-1.9,2.4-1.8c2.5,0.3,1.7,3,3,4.5
		c0.5-1.9-0.7-3.8,0.2-5.9c0.4,0.5,0.6,0.7,0.8,1c0.6,0.8,0.3,2.7,1.9,2.2c1.4-0.4,1.7-1.9,1.6-3.3c-0.1-0.9-0.4-1.8-0.8-2.6
		c-0.5-1.3-0.8-2.6-0.1-3.8c1.2-2.1,0.8-4.1,0.2-6.2c-1.5-4.8-3.4-9.2-8.2-11.8c-1.6-0.9-2.9-2.7-1.9-4.8c1.2-2.6,3-4.4,6-4.8
		c2.2-0.3,3.3,0.3,4.1,2.5c0.5,1.4,1.7,2.5,2.6,3.8c-0.6-2.4-1.6-4.5-2.7-6.6c-0.7-1.3-0.9-2.6,0.3-3.2c4.4-2.2,1.2-4.4,0.1-6.5
		c-1.1-2.2-3.8-3-5.2-4.9c-4.4-6.2-9.8-6.6-14.9-1.2c0.5,0.9,2.7-0.6,2.2,1.5c-0.3,1.6-0.8,3.1-2.5,4c-2.1,1.1-3.9,2.7-4.9,5.1
		c1.7,0,2.8-1.5,4.8-0.9c-7.5,5-7.7,13.1-9.4,20.5c0.8-1,1.2-2.3,1.7-3.4c1.9-4.3,5.2-4.8,8.5-1.5c3.6,3.6,5.9,7.8,6.7,12.9
		c0.6,4.2,1.1,8.4,0.7,12.7C117.5,491.3,117.5,491.3,118.7,493.6z M173.7,454.8c-2.1-7-2.9-14-3.2-21.2c-0.3-9.8,1.3-19.5,2-29.2
		c0.3-4.2,2-8.4,0-12.6c-0.7-1.5-1-2.9-0.5-4.3c1.6-4.6-2.2-8.8-0.8-13.5c-2.1,1.8-2.5,4.1-1.8,6.5c0.5,1.8,0.3,3.3-0.8,4.7
		c-1.5,2.1-3,4.1-3.9,6.6c0.1-5.2-0.1-10.3,0.8-15.3c0.9-5,4.7-9.2,4.6-14.7c-1.1,0.2-2,1.2-3.3,0.6c0.1-2.4,1.9-4.4,1.7-6.8
		c-1.1,0.1-1.5,1.5-2.5,1c-0.7-1.4,1-3.5-0.9-4.1c-2.2-0.7-1.4,2.4-2.8,3c-0.1-0.1-0.3-0.1-0.3-0.2c-0.1-0.3-0.2-0.6-0.1-0.8
		c0.8-2.4,0.7-4.7,4.1-6.1c3.5-1.4,3.3-6.5,5.6-9.5c-5.8,4.2-10.5,8.8-11.8,16.4c-1.1,6.9-2.2,13.8-1.5,20.9c0.7-1.3,1.3-2.7,2-4
		c0.2,0.1,0.5,0.1,0.7,0.2c-0.9,8.1-1.9,16.3-2.8,24.4c0.1,0,0.3,0,0.4,0.1c0.6-2.7,1.2-5.4,2-9.1c1.2,5.7,0.5,10.3,0.9,16
		c0.6-1.9,0.8-2.8,1.2-4C163.8,419,167,437.2,173.7,454.8z M254,358.1c0-9.1-7-16.6-15.6-16.7c-8.4-0.1-15.4,7-15.3,15.5
		c0,8.4,8,17.1,15.6,17.2C246.8,374.2,254,366.7,254,358.1z M173.3,473.9c0.1-3-1.8-4.6-3.5-6.3c0.9-1,1.8,0.8,2.7-0.6
		c-5.4-5.6-8.7-13.2-16.4-16.6c-0.2,0.3-1.2,0.3-2.2,0.5c-2.7,0.5-5,2-6.4,4.4c-5.5,9.5-6.1,19.7-4.3,30.2c0.3,1.7,0.8,3.3,1.2,4.9
		c0.7-2,0.7-4,0.7-5.9c0-4.7,0-9.3,2-13.7c2.9-6.2,9.3-7,13.7-1.8c3,3.5,4,7.7,4.4,12.1c0.4,4.7,2.6,8.9,4.1,13.4
		c-1.9-4.6,0.7-9.6-1.3-14.2c-1.4-3.2-2.3-6.6-3.4-10C167.3,472.2,172,468.3,173.3,473.9z M370,329.6c-6.7-0.2-12.8,6.5-13,14.1
		c-0.2,8.3,7,16.3,14.6,16.5c8.2,0.2,14.6-6.4,14.9-15.4C386.8,337,378.9,329.8,370,329.6z M234.6,384.8c0.4-1.8-1-1.5-2.2-1.6
		c-2.8-0.3-5.6-0.6-7.5-3c-2.3-2.8-5.1-4.9-7.7-7.2c-2-1.7-4.3-0.6-4.5,2c-0.4,3.9,0.9,4.9,4.7,3.7c0.9-0.3,2-0.9,2.5,0.1
		c0.7,1.3-0.7,1.8-1.4,2.3c-1.5,1-1.7,2-0.5,3.4c0.9,1,1.8,2,2.9,2.9c2.6,2.1,5.5,3.7,8.5,5.2c5,2.5,4,7.4,4,11.8
		c0.5-3.1,1.7-6,2.1-9.2c0.3-3.1,2.1-3.8,5.1-2.3c1.2-4.8,5.1-7.7,8.8-9.8c5-2.8,4.3-7.6,7.2-12.1
		C247,373.5,241.3,379.7,234.6,384.8z M200.2,381.4c-0.2-0.1-0.4-0.1-0.6-0.2c0-0.9-0.1-1.8,0-2.7c0.5-5.4,1.8-10.9,1.5-16.3
		c-0.5-9.4,1.8-17.8,6.8-25.6c1-1.6,1.4-3.1,1.3-5c-0.2-2.4-1.1-2.5-2.8-1.2c-2.2,1.7-4.4,3.4-6.9,4.7c-1.5,0.8-2.3,2.1-2.4,3.8
		c-0.5,5.8-1.1,11.7-1.6,17.5c-0.2,2.3-0.9,4.7-0.3,7.4c1.2-2.4,0.8-5,3.2-7.4c-0.1,11.9-1.8,23.1,0.7,34.3c0.3-0.9,0.5-1.8,0.8-2.9
		c2.4,4.5,2.4,4.5,4.5,4.1c-2.5-3.7-1.5-8.1-2.7-12.7C200.9,380.3,200.5,380.8,200.2,381.4z M88.3,488.5c-0.1-6.1-1-12.1-3.7-17.7
		c-1.7-3.7-4.6-1.1-6.9-1.5c-1.1-0.2-1.3,1.5-1.8,2.5c-1.1,2.2,0.6,4,0.6,5.9c0.3,6.2,3.6,11.5,3.8,17.9c0.1,4.2,3.5,8.3,5.5,12.3
		c0.4,0.8,1,1.7,2.2,1.4c1-0.3,1.4-1.3,1.5-2.2c0.1-1,0.3-2.1,0-3c-1.1-3.3-0.8-6.8-1.4-10.2c-1.3-7-1.3-14.4-5.9-20.5
		C87,477.3,86.5,483.3,88.3,488.5z M149.9,489.2c-0.1,0-0.1,0-0.2,0c0,2.8,0.2,5.6,0,8.3c-0.3,3.2,0.6,6.1,2.4,8.6
		c0.5,0.7,0.8,1.7,1.7,1.7c1.1-0.1,1.3-1.2,1.6-2c2.3-6.6,3.9-13.4,4.5-20.3c0.4-4.2,0.1-8.4-1.1-12.4c-0.5-1.7-1.2-3.1-3.3-3.3
		c-2.1-0.2-3.3,1-4.2,2.7c-1.1,2.1-1.4,4.4-1.4,6.8C149.9,482.5,149.9,485.8,149.9,489.2z M102.5,508.3c1.8-1.1,2-2.6,2.4-3.8
		c2.1-6.1,3.6-12.3,4.1-18.8c0.4-5.3,0.9-10.6-1.3-15.7c-0.7-1.6-1.1-3.8-3.2-3.8c-2.3,0-2.7,2.3-3.2,4c-2.3,8.2-3.5,16.6-2.7,25.1
		c0.3,3.1,0.6,6.3,2.6,9.8c1.9-10.1,2-19.8,5.6-28.9C106.8,486.9,103.2,497.2,102.5,508.3z M239.6,375.5c-11.6-1.6-16.9-8.6-18-19.6
		c-1,2.1-1.4,4.2-2.4,6.1c-2,3.7-1.5,5.9,2.3,8.3c4,2.5,7.5,5.4,12.2,6.4C235.8,377.1,237.7,376.9,239.6,375.5z M210,346.6
		c3.1-0.9,4.3-3,4.6-5.8c0.3-3.4,1.9-6.4,3.4-9c1.6-2.9,2.8-6.6,5.9-8.7c0.6-0.4,0.9-1.2-0.3-2.5C216.7,327.9,210,335.1,210,346.6z
		 M387.8,343.4c-1,9.4-4.7,16.5-15.3,18.4c6.3,2.7,10.6,1.1,13.5-4.5c1.2-2.4,1.9-5.1,3.4-7.3C391.4,347,390.2,345.3,387.8,343.4z
		 M360.2,329.7c5.1-4.5,10.5-5.5,16.8-2.4c5.5,2.7,10.2,6.3,13.5,11.5c-4.1-6.7-7.9-13.8-16.8-15.1
		C368.1,322.9,363.2,324.3,360.2,329.7z M194.5,336.8c1.3-1.2,2-2.8,3.6-3.5c2.3-1,3.5-2.9,4.8-4.8c0.4-0.6,1-1.3,0.3-2
		c-0.8-0.8-1.6-0.1-2.2,0.5c-1.2,1.3-2.3,2.7-4.2,5c0.7-5.3,3.6-8.3,5.9-12.2C194.2,323.2,197,331.2,194.5,336.8z M211.6,410.7
		c1.4-3.3,3.3-6.1-1.4-7.6c-1.3-0.4-2.1-1.7-2.5-3.1c-0.5-1.6-1.6-3.1-2.8-5.3C204.1,401.8,208.1,405.8,211.6,410.7z M219.8,348
		c4.2-6.9,9.8-11.8,18.1-12.7C231.3,333.6,219.8,341.4,219.8,348z M206.6,363.2c2.5-2.9,3.3-5.9,4.6-8.6c0.4-1,0.6-2.3-0.3-2.9
		c-1.1-0.7-2.4,0.2-2.8,1.1C206.7,355.8,205,358.9,206.6,363.2z M224.1,416.3c1.1-1,2.6-0.4,3.3-1.6c0.5-1,0-2-0.8-2.4
		c-2.4-1.1-4.4-3-7.2-3.3c-0.8-0.1-1.5-0.3-1.8,0.7c-0.2,0.9,0.3,1.5,1.1,1.7c2.2,0.5,3.5,2,4.6,3.8
		C223.5,415.6,223.8,415.9,224.1,416.3z M129.5,379.4c-3.8-1.7-8,3.6-9.4,11.9C122.4,386.3,125.9,382.8,129.5,379.4z M240.4,410.4
		c-3.5,0.2-4.7,2.5-5.4,5.2c-0.2,0.7-0.5,1.5,0.4,2c0.8,0.4,1.4-0.2,1.9-0.7C239.1,415,239.8,412.7,240.4,410.4z M305,290.4
		c1.1-2.9,3.6-4,2.4-6.4c-0.4-0.9-2.2-1.1-3-0.2C302.8,285.6,304.4,287.5,305,290.4z M362.5,357.4c-2.8-2.2-4.4-5.2-6-8.8
		C355.1,354.5,356.2,356.1,362.5,357.4z M279.1,383c-2,1.2-4.3,4.5-5.1,7.1C277.5,389.2,279.5,387.1,279.1,383z M274.5,383.9
		c1.3-1.1,2.7-2.2,3.9-3.4c0.8-0.8,1.2-1.8,0.2-2.7c-1-0.9-1.6,0.1-2.3,0.7C274.8,379.8,274.9,381.8,274.5,383.9z M36.8,497.8
		c2.2-1,3-2.7,3.2-4.8c0.1-0.6-0.2-1.3-0.9-1.5c-0.5-0.2-1,0-1.2,0.5C37.2,493.7,36.1,495.4,36.8,497.8z M271.3,395.8
		c5.3-1.8,6.7-3.3,6-5.9C275.1,391.4,273.2,393,271.3,395.8z M129.8,475.9c-1.1-7.2-1.7-8.2-4.6-8.1
		C126.6,470.2,127.9,472.6,129.8,475.9z M166.3,334.8c0.7-1.3,2.1-2.7,1.5-3.1c-2.6-1.6-0.7-3.4-0.5-5.2
		C163.7,328.7,164.7,331.5,166.3,334.8z"/>
	<path d="M414.2,502.5c0.1-2.2-0.9-4.2-1.8-6.1c-3.9-8.3-7.7-16.8-13.9-23.8c-0.8-0.9-1.1-1.9-0.8-3.1c0.9-4,1.4-8.1,1.5-12.2
		c0-2.1,0.8-2.5,2.8-1.9c6.1,1.8,11.6,5,17,8.2c-3.3-3.2-7.1-6.1-11.4-7.1c-7-1.6-9.7-5.8-9.9-12.5c-0.1-2.7-0.8-5.4-1.6-7.9
		c-1.2-3.6,0.5-6.3,2.8-8.5c2.3-2.2,3.1-4.2,0.2-6.4c-1-0.8-1-1.7-0.5-2.7c0.6-1.4,1.3-2.9,1.9-4.3c0.5-1.1,0.5-2.8,2.3-2.8
		c1.6,0.1,2,1.5,2.4,2.7c0.1,0.3,0.3,0.6,0.9,0.9c-0.8-6.4,3.7-11.8,3.6-18.1c0,1.8,0,3.5,0,5.3c0.2,0,0.5,0.1,0.7,0.1
		c0.2-1.2,0.4-2.5,0.6-3.7c0.9-6.8,1.4-13.7,1.5-20.6c0-2.2-0.3-4.3,1.2-6.6c1.1-1.7,0.1-4.3-1.2-6.3c-1.6-2.5-3.2-5-4.8-7.5
		c6.7-1,6.9-1.2,5.1-8.1c-2.1-8.1-4.2-16.3-8.3-23.7c0.9,1.2,1.8,2.5,3.2,4.4c-1.7-6.2-3.7-11.2-6.3-16.1c-1.4-2.6-1.7-6.2-3.8-7.8
		c-2.9-2.3-5.5-5.3-9.2-6.7c-0.6-0.2-1.2-0.6-1.7-0.9c-0.5-0.3-1.3-0.6-1.1-1.4c0.3-1.2,1.3,0.1,2.1-0.7c-4.6-2.1-9.1-4.2-13.8-6.4
		c5.5-1.1,13.2,2.5,15.4,7c1,2.1,3.1,2.9,5.1,3.6c1.2,0.4,1.6-0.6,1.2-1.5c-3.4-6.7-3.9-14.7-8.9-20.8c-1.1-1.4-2.4-2.5-3.7-3.7
		c-18-17-39.6-25-64-26.7c-8.8-0.6-17.5-2.4-26.3,0.2c1.8-1.6,3.9-2.5,6.2-2.8c3.8-0.5,7.6-0.7,11.4,0c10.7,2.2,21.7,1,32.3,3.7
		c8.1,2.1,15.8,4.9,22.9,9.3c2,1.2,3.8,1.6,6,1c3.7-1,7.5-1.9,11.5-2.9c-0.5,1.3-2,1.1-2.3,2.7c1.7-0.4,3.2-0.7,5.6-1.2
		c-1.9,1.4-3.1,2.3-5,3.6c6.5-0.6,12.3-1.5,19,0.3c-5.7,0.8-10.8,1.2-15.1,4.1c1.6,0.1,3.2,0,4.7,0.4c0.6,0.2,1.4,0.4,0.9-1
		c-0.3-0.8,1.1-1,1.9-1.2c2.5-0.7,5,0.1,8.2,0.1c-1,0.3-1.4,0.4-2.6,0.8c4.8,1.9,9.5,1.7,14,3.7c-2.7,0.8-5-0.4-7.9,0.2
		c2.2,0.7,3.8,1.1,5.9,1.8c-2.5,0.4-4.7-0.4-6.9,1c3.6,1.6,6.9,3.1,10.2,4.6c-3.6,0.2-6.9-1.5-10.9-0.8c7.1,4.3,14.4,7,20.6,11.9
		c-7-3.2-14.3-5.6-22.2-5.6c2.3,1.9,2.1,6,6.1,6.1c0.3,0,0.9,0.4,0.9,0.5c-1.1,3.4,2.3,2.9,3.7,4c1.8,1.5,5,6,6.2,10.1
		c-1.5-2.2-3-4.4-4.6-6.8c-1.4,1.4-1.3,2.5-0.4,3.9c6.1,8.8,11.6,17.9,14.9,28.2c1.6,5,2.6,10,3.4,16.1c-0.9-1.4-1.4-2.1-1.8-2.7
		c0.9,5.8,1.4,11.6,2.2,17.3c1.2,8.7,2.3,17.4,1.7,26.1c-0.3,4.5-1.5,9-1.6,13.5c-0.2,5.2-1.8,9.9-2.9,14.9
		c-0.5,2.1,1.2,3.8,1.3,5.9c3.8-17.2,6.8-34.4,4.7-52.6c0.5,1.2,0.8,2,1.5,3.7c0.8-6.6,0.3-12.2-0.6-17.6
		c-2.1-12.4-3.7-24.9-9.2-36.3c1.5-6.1-4.3-9.8-4.9-15.4c1.2-0.1,1.6,1,2.2,1.7c2.7,3.4,4.7,7.1,6.2,11.2c0.3,0.8,0.7,2.1,1.8,1.7
		c1.2-0.4,0.5-1.6,0.2-2.4c-0.9-3.2-2.6-5.8-4.9-8.3c-2-2.1-3.2-4.9-4.7-7.4c-0.5-0.8-0.5-1.8,0.3-2.6c0.2,0.1,0.3,0.1,0.5,0.2
		c4.2,6.3,9.7,11.5,14.4,17.3c2.1,2.7,1.7,3.8-1.7,4.5c0.7,3.6,1,7.3,3.6,10.3c1.2,1.4,1.5,3.6,1.3,5.6c-0.1,0.8-0.4,1.7,0.3,2.4
		c1.5,1.7,0.4,2.5-1.1,3c-1.9,0.7-2.2,1.5-0.6,2.8c0.7,0.6,1,1.5,0.6,2.3c-1.6,3.5,0.3,5.9,2.1,8.4c1.2,1.6,1.5,3.4,1,5.3
		c-0.2,0.9-0.4,2-1.7,1.9c-1-0.1-1.1-1.1-1.2-1.9c-0.1-1-0.1-2-0.4-3c-0.2,6.3-0.1,12.7-0.7,19c-1.3,13.8-0.5,27.8-4.5,41.2
		c-0.9,3-1.5,6.5-3.5,8.7c-1.9,2.2-3.5,4.4-4.8,6.9c-0.4,0.8-0.9,1.5-0.9,2.5c0.3,5.5,0.3,11-2.4,16.1c-0.2,0.3,0,0.7,0,1.4
		c1.4-0.5,1.9-1.5,2.2-2.7c0.8-3.5,1.6-7.1,1.3-10.7c0-0.4-0.1-0.7-0.1-1.1c0-1.7,0.2-3.7,1.9-4.2c1.8-0.5,1.6,1.8,2.3,2.8
		c2.1-5.9,7.6-8.3,11.8-12c1.9-1.7,3.9-3.5,6.9-1.4c1,0.7,2.9-0.1,4.1-1.4c-4-2.5-1.5-4.2,0.9-5.4c2.8-1.4,3.6-4.1,5.1-6.4
		c0.6-1,0.1-1.5-0.9-1.8c-1-0.2-2.1-0.1-2.9-1.5c2.2,0.5,2.6-0.7,2.4-2.4c-0.4-3.4-0.6-6.8-0.5-10.3c1.6,1.4,1.3,3.5,1.4,5.3
		c0.1,1.7-0.3,3.9,1.9,3.8c1.9,0,0.9-2.2,1.2-3.4c0.1-0.3,0.2-0.7,0.4-1.2c2.3,1.4,1.7,3.6,1.8,5.5c0,0.8-0.6,1.9,0.6,2
		c1.2,0.2,1.7-0.9,1.5-1.9c-0.3-2.4,2.7-2.8,2.8-4.8c1.2,0.4,0,1.7,1.1,2.1c0.6-1.1,1.1-2.2,2.1-4.1c0,4.6-0.7,8.3-0.1,12.3
		c4-5.1,6.3-10.4,7-16.5c0,1.7,0,3.5,0,5.2c1.3-4.8,1.6-9.6,1.4-14.6c0.4,0.7,0.7,1.4,1.6,3.3c0-4.1,0-7.1,0-10.1c0.4,0,0.9,0,1.3,0
		c2,9.2,0.8,18.5-0.5,27.8c-0.1-1-0.2-2-0.3-3.5c-0.7,3.6-1.5,6.9-2.1,10.1c-0.7,4.5-4.5,6.8-7.2,10.9c0.2-1.5,0.3-2.2,0.4-3
		c-4.7,8.6-10.6,16.3-16.7,24.3c0.1-2.2,1.7-3.6,1.4-6.2c-2.4,3.7-4.7,6.7-7.5,9.2c-0.6,0.6-0.6,1.1-0.1,1.7
		c0.1,0.1,0.2,0.3,0.4,0.4c4.6,5.9,4.6,5.9,9,0.1c5.6-7.5,13.1-13.1,20.1-19.3c2.9-2.6,6.6-4.2,11.2-3.3c-3.8,2.2-7.2,4.1-10.6,6.1
		c2.2,0.1,4.4-1.6,6.7,0.6c-1.7,0.5-3.2,1.3-4.4,2.6c1.7,0.8,3.4-1,5.3,0c-0.9,1.2-1.8,2.2-0.5,3.8c0.8,1-0.3,2.4-1.4,3.3
		c-3,2.3-5.3,5.2-7,8.8c1.8-0.6,3.4-1.1,6.1-2c-2.9,3-3.7,5.9-3.9,9.1c-0.1,1.9-2.4,0.8-3.2,2.7c-2.1,4.9,0.4,10-1.8,14.6
		c0.8,0.8,1.6-0.7,2.6,0.5c-4,3.7-3.9,8.9-4.4,14c-0.2,2.2,0.6,2.9,2.5,2.1c1.8-0.8,2.4-0.1,2.7,2.5c2.6-4.4,5.4-7.3,9-9.8
		c0.2,0.8,0.3,1.4,0.4,2.1c1.3,0.2,1.7-0.7,1.8-1.4c0.5-2.9,0.8-5.9,1.3-8.8c1-5.6,2.2-11.1,6.4-15.3c2-2,3.8-3.4,7.1-2.5
		c2,0.5,1.2,1.9,1.7,2.8c2.2,3.6,3.7,7.5,4.6,11.9c1-10.3-4.9-21.8-13.9-27.2c2.2-0.9,1.8-2.2,0.7-3.6c-1.1-1.6-2.1-3.3-3.3-4.8
		c-1.2-1.4-1-2.1,0.7-2.7c2.8-1,2.7-1.2,6.9-0.1c-3.5-3.7-7.8-4.3-12.6-5.6c3.5-1.5,6.2-0.8,8.8,0.3c2.7,1.2,4.9,3,6.7,5.3
		c1.1,1.4,2,1.6,3.4,0.4c2.3-1.9,5-3.2,8.6-3.4c-2.9,1.9-5.9,3-7.4,6.2c7.9-5.1,15.5-6.2,23,0.5c-1,0.8-2-0.8-3,0.1
		c0.7,1.2,2.1,1.5,3.1,2.1c7.4,3.9,14,8.8,19.2,15.5c2.4,3.1,5.8,5.1,8.2,8.3c6.1,8.3,8.3,26.1-1.1,36.6c5.7,0,11,0,16.4,0
		c1.9,0,3.7,0,5.6,0c1.1,0,2.2,0,2.1,1.5c-0.1,1.4-1.1,1.5-2.2,1.5c-1,0-2,0-3.1,0c-14.1,0.2-28.3,0.4-42.4,0.5
		c-1.7,0-3.1,0.5-3.4,2.1c-0.3,1.3-1,1.4-1.9,1.4c-1.1,0.1-2.1-0.1-2.3-1.4c-0.2-1.5-1.4-1.6-2.5-1.5c-3.3,0.1-6.7,0.2-10,0.2
		c-1.3,0-2,0.5-2.6,1.6c-1.3,2.4-3.5,2.5-5,0.6c-1.9-2.3-4.1-2.5-6.7-2.5c-28,0.6-56,1.1-84,1.7C416.5,504.6,415,504.3,414.2,502.5
		L414.2,502.5z M434,455.1c1.1,0.4,1.8-1.1,3.1-0.4c-2.2,3.7-6,6.2-7.8,10.3c-1.7,4-2.1,8.2-3.9,12.3c2.7,0.2,2.8-1.8,3.4-3.5
		c0.7-1.9,2.3-3,3.6-4.7c0.3,1.5-0.9,2.5-0.3,3.7c0.9-0.3,0.9-1.7,2-1.6c0.4,1.1-1.3,2,0.1,3.2c2.2-3.3,6.3-4.1,8.7-7.3
		c1.7-2.2,4.4-1.3,6.6,0.1c0.7,0.5,1.1,1.5,2.7,1.3c1.8-6.1-3.4-10.4-3.6-16.2c0.3-0.2,1,1.5,1.9,0.5c-0.7-2.2-3.1-1.8-4.4-3
		c-3.4-3.1-5.4-2.9-8.5,0.5C436.3,451.8,436.5,454.4,434,455.1z M546.4,464.4c4.1,5.4,4.2,11.4,5.4,17.4c1.1-1.2,0.8-2.3,0.9-3.2
		c1.7-11-4.2-19.6-9-28.5c-3.9-7.1-11.1-10.8-17.6-15c-1.3-0.8-2.6-1.4-4,0.3c3,2.5,4.8,6.1,8.5,8c0.1,1-2,1.6-0.8,3
		c1,0.4,2.1-1.3,3.1,0.2c1,1.6-1.2,2.1-1.2,3.4c1.2,0.3,1.9-1.7,3.5-0.5c-2.6,3.1-3.6,6.8-5,10.5c-1.3,3.7-2.8,7.3-4.3,10.9
		c2.2-2.9,3.6-6.1,6-8.8c3.9-4.5,8.8-4.1,12,1c0.9,1.4,1.6,3,2.8,5.3C546.5,466.5,546.4,465.8,546.4,464.4z M513.1,495.3
		c1.2-5.6-0.6-10.8-1.1-16.2c-0.5-6-1.6-11.8-4.8-17c-0.6-1-1.1-2.4-2.6-2.2c-1.4,0.2-2.3,1.2-2.7,2.5c-0.3,1.1-0.6,2.2-0.7,3.3
		c-0.2,3.5,0,7.1,0.8,10.5c1.3,5.4,3.2,10.8,3.6,16.3c0.3,4.2,1.7,7.4,4.3,10.4c0.5,0.6,1.1,1.5,2,1.2c1.1-0.3,1.1-1.4,1.1-2.3
		C513.1,499.6,513.1,497.4,513.1,495.3z M531.2,503.6c2.4-1.6,3.5-3.7,4.4-5.8c3.2-7.2,5.5-14.8,6.4-22.7c0.4-3.5,0.6-7.1-1-10.4
		c-0.7-1.5-1.5-2.9-3.3-3c-1.7-0.1-2.3,1.4-2.9,2.6c-4.7,8.1-6.1,16.9-5.5,26.1C529.6,494.7,529.6,499,531.2,503.6z M440.9,481.8
		c-0.2,0-0.3,0-0.5,0c0-1.9,0-3.8,0-6.6c-1.8,6.5,0.1,20.3,3.1,24.8c0.6,0.9,1.3,1.7,2.5,1.4c1.2-0.3,0.2-1.4,0.6-2.1
		c1,1,2,2.5,3.5,1.9c1.6-0.6,1-2.4,1.1-3.7c0.2-2.4,0.3-4.8,0.4-7.2c0.3-5.7-0.2-11.3-2.2-16.7c-0.6-1.7-1.4-3.8-3.7-3.5
		c-2.3,0.2-3.4,2-3.7,4.3C441.6,476.7,441.2,479.3,440.9,481.8z M557.7,474c1.2,8.9,0.6,16.6-1.8,24.3c4.9-3.5,7.5-8.3,8-14.1
		c0.5-6.2-0.4-12.2-4-17.3c-3.3-4.6-4.5-11.3-12.4-11.9c5.1,7.1,9.2,14.5,8.4,23.5C556.4,477.3,556.8,476.2,557.7,474z M428.3,449.5
		c5.4-0.7,10.2-3,16-2.9C439.2,443.3,433.1,444.5,428.3,449.5z M499.4,472.7c-1.6,6.6,1.1,12.3,4,17.9
		C502.3,484.6,500.3,478.8,499.4,472.7z M454.4,470.1c-1.2,6.3,1.8,12.5,0.2,18.8C455.8,482.6,455.6,476.4,454.4,470.1z
		 M440.4,440.2c2.8,0,5.2,0.9,7.5,2.1c0.6,0.3,1.3,0.6,1.7-0.2c0.4-0.8-0.2-1.2-0.7-1.6C446.2,438.8,443.4,438.3,440.4,440.2z
		 M382.2,273.5c-1.6-3.8-5.3-5.9-7-9.6c-0.2-0.5-0.8-0.6-1.2-0.2c-0.6,0.5-0.2,1,0.2,1.4C376.8,267.9,379.5,270.7,382.2,273.5z"/>
	<path d="M414.1,502.5c0,1.9-1.2,2.2-2.8,2.2c-4.3,0-8.6,0-12.8,0.1c-1.1,0-2.4-0.1-3.4,0.9c0.1,1.2,1.8,0.1,1.7,1.4
		c-0.1,1-1.1,1.1-1.7,1.6c-3.9,3.3-7.6,6.8-11.7,9.9c-2.6,2-4.1,4.7-5.5,7.4c-4.6,8.3-10.5,15.7-15.8,23.6c0.2,1.2,1.6,0.6,2.3,1.6
		c-4.8,2-9.6,4-14.5,5.9c-2.4,1-4.3,2.3-5.4,4.8c-0.2,0.4-1.3,0.7-2,0.7c-4.8,0.1-9.3,1.3-14,2.7c5.2,1.1,10.4,0.8,15.8,0.3
		c-4,5.1-44.3,5.9-48.9,1.2c2.1-1.3,4.4,0.4,6.5-0.3c-5.7-4.6-13.6-3.6-19.2-8.2c-1,0.5,0.1,1.4-0.1,2c-7.7-6.1-12.8-14.3-19.1-21.5
		c-2.7-3.1-5-6.5-7.7-9.5c-1.6-1.9-1.9-3.7-0.8-5.8c1-2,2-4,3-6c1-2.1,2.5-2,4-0.8c3.4,2.5,7.2,3.8,11.5,3c2.7-0.5,3.7,0.5,3.6,3.3
		c-0.1,3.5-0.5,7.1,0.8,10.6c0-3.4,0-6.7,0-10c0-2.6,1-3.9,3.7-4.1c8.3-0.5,16-3.1,23.4-7.7c-4.1-2.3-2.4-3.4,0.4-4.6
		c2-0.9,4.8-1.6,3.9-5.1c-0.3-1,0.9-1.5,1.8-1.9c1.3-0.6,2.4-1.5,3.1-2.7c0.8-1.3,0.9-2.6-0.9-3c-1.8-0.4-2.5-1.1-1.3-2.8
		c1.2-1.7-0.4-1.8-1.4-2.1c-5.4-1.5-10.7-3.1-15.8-5.4c-14.7-6.5-23.6-18-27.8-33.2c-1.7-6.4-0.1-12.5,3.8-18
		c5.6-7.7,12.9-13.1,22-15.8c6.7-2,13.4-3.9,20.4-4.7c-1.2,0.5-2.3,1-3.5,1.5c0,0.2,0.1,0.4,0.1,0.5c3.3-0.6,6.6-1.3,9.9-1.6
		c6.8-0.8,13.6-2.1,20.5-1c17.1,2.8,26.2,21.9,23.1,36.3c-2.2,9.8-17.8,16-26.4,10.9c-4.8-2.9-6.8-10.3-4-15.9
		c1.5-2.9,2.6-6.8,6.8-7.1c4.4-0.3,7.3,2.3,9.5,5.8c1.5,2.5,3.4,4.2,6.6,3.4c3.1-0.8,3.7-3.4,3.9-6.1c0.9-9.1-5-19.4-13.3-23.3
		c-2.7-1.2-5.5-0.5-8.2-0.6c-15.1-0.1-29.4,4.7-43.9,8.2c3.1,1.3,6.1-0.4,9.2-0.1c-1.4,0.6-2.9,1.1-4.2,1.9
		c-2.1,1.2-5.3,1.3-4.8,5.1c0.1,0.5-1.2,1-1.7,1.7c-0.6,0.9-2.4,1.5-0.7,3c0.7,0.6-0.4,1.1-0.9,1.4c-2.3,1.7-2.5,4.2-2.8,6.7
		c-0.1,0.7-0.1,1.6,0.6,2c1,0.6,1.5-0.3,2.1-0.8c2.2-2,4.6-3.8,7.6-4.6c-0.5,0.4-1,0.9-1.6,1.3c-3.9,2.5-6.4,5.7-6.4,10.7
		c0,2,0.3,5.3-2.2,5.7c-2.3,0.4-3.7-2.3-5.1-4.1c-0.5-0.6-0.9-1.4-1.8-3.1c0.8,4.4,2.1,7.2,5.4,8.5c3.5,1.3,6.4-1,6-4.6
		c-0.4-3.7,1.6-7.5,5.2-9c3.5-1.6,6.5-0.3,9.1,2.3c4.5,4.7,5.3,12.3,1.8,17.9c-0.4,0.7-0.9,1.4-1.5,2.4c3.6,0.2,7.3-6.4,10.5,1.5
		c0.9-7.8,0.2-14.7,2.4-22c1.9,2.7,1.4,5.3,1.8,7.6c0.4,2.1,0.7,3.5,3.3,2.4c1.7-0.7,2.7,0.4,3.3,1.8c1.6,3.3,5,5.2,6.7,8.5
		c0.6,1.1,1.8,0.8,3,0.8c2.9-0.2,5.9-0.3,6.7,4.1c4.5-3,7-7.3,10.4-11c0,7.4-4.9,12.3-9.4,17.7c1.7,0.6,4.6-2.4,4.6,1.9
		c0.6-0.4,1.1-0.7,1.6-0.9c0.7-0.4,1.4-0.9,1.8,0.2c0.3,0.8-0.2,1.4-1,1.8c-1.1,0.6-2.2,0.1-3.3,0c-1-0.1-1.9,0.2-2.1,1.3
		c-0.2,1,0.7,1.2,1.5,1.3c2.8,0.5,4.2,2.2,4.6,4.9c0.4,2.1,1.1,3.8,3.6,4.3c1.6,0.3,2.4,2,3.4,3.2c1.1,1.4,0.5,2.1-1.7,2.2
		c2.1,1.8,3.8,3.3,5.5,4.7c0.5,0.4,1.3,0.6,1.3,1.3c0,1-1,1-1.6,1.3c-5.5,2.1-11.3,2.3-17.1,2.1c-0.6,0-1.2,0-1.8,0.3
		c11.8,2.7,23.2,1.1,33-5.9c10-7.1,14.8-18.1,18.4-30.1c3.2,3.2,5.4,6.3,7.2,9.8C407.7,489.2,410.9,495.9,414.1,502.5
		C414.2,502.5,414.1,502.5,414.1,502.5z M303.6,532c-0.2,2.8-1.5,6.2,2.4,7.3c5.6,1.6,11.3,1.2,17.3-2.1
		C316.1,535.6,309.7,534.3,303.6,532c-1.9-2.9-5.4-4.9-6-8.5c-0.6-3.4-2.4-2.5-4.4-1.9c-2.4,0.7-3.9,2-2.5,4.6
		c2.1,3.9,4.9,7.4,7.8,10.8c1.5,1.8,2.7,1.2,3.4-0.8C302.3,534.8,302.4,533.2,303.6,532z M327.7,521.8c-3.4-1-4-3.6-4.8-6
		c-1.8-5-3.8-5.8-8.6-3.4c-4.2,2.1-8.4,4.3-12.7,6.4c-1.6,0.8-2.2,1.8-2,3.5c0.5,4.3,2.9,6.9,6.8,8.3c11.1,4.1,22.5,4.4,34.1,2.8
		c8.2-1.1,13-5.7,14.7-13.8c1.2-5.6,1.3-5.7-4.5-5.6c-7.5,0.2-14.7-3.7-22.4-1.7c-2.5,0.6-3.6,1.2-2.8,3.7
		C326.1,517.9,326.9,519.6,327.7,521.8z M373,512.7c-0.2,3.3-1.2,5.3-2.2,7.3c-4.2,9.3-9.8,17.4-18,24c-10.7,8.7-22.4,13-35.8,11.2
		c-9-1.3-18.1-2-27-3.9c-1.4-0.3-3.5-0.8-3.9,1c-0.3,1.4,1.7,1.5,2.9,1.9c0.5,0.2,1,0.5,1.5,0.7c5.2,1.8,10.3,4.1,16,3.8
		c1.8-0.1,3.5-1.3,5.2-0.5c4.8,2.1,9.9,0.8,14.8,1.6c5.1,0.8,9.5-2.8,14.3-3.6c10.5-1.6,17.6-7.8,23.6-16c5-6.8,9.6-13.9,14.3-21
		c1.2-1.7,1.8-3.9,2.6-5.8c-3.8,3.2-4.8,8.3-9.1,11.5C372.4,520.9,374.9,517.5,373,512.7z M357.5,531.3c-0.9-0.3-0.8-0.9-0.8-1.5
		c-0.1-1,0-2.3-1.1-2.7c-1.4-0.5-1.8,1-2.5,1.8c-1.5,1.8-3,3.5-4.9,4.9c-8.9,6.8-19.3,8.4-30.1,8.2c-5-0.1-10.3,0.4-14.7-3.2
		c-0.5-0.4-1.1-0.3-1.6,0c-1.9,1.4-3,0.1-4.2-1.2c-0.7-0.8-1-2-2.4-2.2c-1.2,2.8-1.1,5,1.9,6.8c5.4,3.2,11.1,5.3,17.3,5.8
		c17.5,1.4,33.4-1.4,44.9-16.4c0.5-0.6,1.1-1.3,1.3-2.1c0.2-1.1,0.1-2.5-1.3-2.6c-1.4-0.1-1.3,1.2-1.4,2.2
		C357.9,529.9,358.5,530.7,357.5,531.3z M306.2,550.7c3.8,1.7,23.4,1.5,26.9-0.3C323.9,551.2,315.3,549.8,306.2,550.7z"/>
	<path d="M422.9,295.2c-0.2-0.1-0.3-0.1-0.5-0.2c-4-3.2-8-6.4-12.6-10.1c5.5,1.3,9.6,3.5,13.5,6.2c4.4,3,8.6,6.1,13.1,9
		c4.9,3.2,10.3,5,16.5,6.5c-1.8,1-3.1,0.7-4.4,0.7c-1.4,0-2.7-0.2-4.3,0c21.8,12.9,39.8,29.7,52.2,51.9c-2.8-2.1-4.4-5.5-8-7.8
		c2,4.8,5.5,8.3,6.8,14c-2.3-2.7-3.8-4.6-5.4-6.5c3,6.9,5.2,13.8,5,21.5c-0.8-1.9-1.6-3.8-2.5-5.7c0.6,8.8,1.7,17.5-1.7,26.1
		c-0.1-9.1-0.5-18.1-3.8-26.7c1,8.1,2.1,16.2-0.6,24.2c-1-21.3,0-43-14.6-61.2c5.3,4.3,10.9,7.7,15,13.1c-1.7-3.8-4.2-7.1-6.9-10.2
		c-10.5-11.9-22.3-22.3-36.1-30.2c-2.7-1.5-5.8-2.8-7.6-5.1C432.4,300.2,427.4,298.2,422.9,295.2z"/>
	<path d="M457.2,369c2.9,4.2,6.2,1.1,9.2,0.5c1.1-0.2,0.4-1.1,0.2-1.8c-1.1-3.5-3.2-6.4-6.2-9.3c3,0.3,3.9,3.2,7,3.3
		c-2-3.1-5.4-3.8-7.9-6.5c1.7,0.8,2.8,1.3,4.2,1.9c-0.4-1.9-2.3-2.1-2.8-3.6c2.4-0.7,4.7-0.4,7,0.8c-2-3.8-5-6.3-8.9-8.2
		c7.6,0.6,12.4,5.4,13.3,12.6c0.7,5.6-1.1,11-1.1,16.6c0,0.6-0.5,1.6-0.8,1.6c-3.5,0.1-2.6,2.5-2.7,4.6c-0.2,2.6-0.6,5.2-1.3,7.7
		c-0.4,1.6-1.4,3.9-3.2,3.8c-2.1-0.1-3.2-2-3.9-4.2c-1.3-4.1-0.7-8.3-1.4-12.3C457.4,374,457.4,371.5,457.2,369z"/>
	<path d="M281.9,482c-3.3,1.3-5.9,2.3-8.6,3.4c1.1,1.7,2.9,0.6,3.6,1.6c-0.3,4.1-4.1,5.1-6.1,8c-1.2-1.5-0.8-3.1-0.1-4.4
		c1.6-3-0.2-3.9-2.6-4.2c-2.3-0.3-4.8,0.5-7-1.7c1.5,3.1,1.7,5.2-2.6,5.2c-1.2,0-2.1,3.3-3.9,1.4c-1.6-1.8,1-3,1.6-4.5
		c0.3-0.8,0.6-1.3,0.2-2.3c-1.6-3.4-0.9-4.6,2.9-5.1c4-0.5,4-0.5,5-2.3c-2.6,0.5-4.3-0.2-5.1-2.8c-0.6-2.1-2.3-3.6-4.4-4.5
		c0.5-0.4,0.9-0.7,1.6-1.2c-1.8,0-3.1,0-4.5,0c2.9-1.1,4.7-4,7.8-4.7c0.8-0.2,1-1,1.3-1.7c1-2.8,2.8-2.8,4.6-0.9
		c1.1,1.2,2.5,1.6,3.9,2.2c-3.2,2-3.2,2-2.2,6c0.6,2.4,1.2,4.8,0.8,7.4c-0.7,4.2-2.4,5.4-6.3,4.2c-0.4-0.1-0.9-0.1-1.5-0.2
		c3.9,3.5,6.6,3.5,9.9-0.1c0.7-0.7,1.5-1.5,2.4-1.2C275.3,480.8,278.2,481.5,281.9,482z"/>
	<path d="M308.1,400c-0.9-2.3-3.4-2.4-5.1-4c2.1-0.6,3.7,2.5,5.5,0.5c-0.5-1.4-2.1-0.2-2.6-1.4c8.2-4.5,19.9-3.7,24.1,4.6
		c-1.3,0.1-2.6,0.7-3.6,0.4c-3.8-1.3-6.7,0.4-9.4,2.7c-2.3,2-4.4,2.3-6.9,0.4c-2.1-1.6-4.5-2.8-7.3-4.5
		C305.2,398.3,306.2,400,308.1,400z"/>
	<path d="M447.9,350.8c-1.4-5.6-2.8-11.1-4-16.7c-0.3-1.5,0-3.3,0.4-4.8c0.5-1.7,1.9-1.7,3.1-0.6c1.3,1.2,2.9,2,4.5,2.7
		c1.9,0.9,4.4,1.8,1.1,4.2c-0.6,0.4-0.5,1.1-0.3,1.8c0.5,2.3-1.4,4.4-2.5,4.4c-4.7,0.3-2,2.9-1.9,4.8c0.1,1.4,0.2,2.7,0.3,4.1
		C448.3,350.8,448.1,350.8,447.9,350.8z"/>
	<path d="M247.1,512.5c2-0.7,1.5-4.4,4-3.8c1.7,0.4,2.9,2.5,4.4,3.7c0.8,0.7,1.8,1.1,2.9,1.8c-1.8,3.6-3.6,7.2-5.5,11
		C250.3,521.1,243.6,519.2,247.1,512.5C247.2,512.5,247.1,512.5,247.1,512.5z"/>
	<path d="M385.3,437.5c-10.5-15.2-19-31.8-33.3-44C369.3,403.4,376.4,421.2,385.3,437.5z"/>
	<path d="M350.3,286.3c8.7-4.2,27.3-2,31.1,3.6c-4.8-0.5-10.4,0.6-13.9-1.7c-5.4-3.5-10.4-1.2-15.5-1.6
		C351.6,286.5,351.3,286.5,350.3,286.3z"/>
	<path d="M381.8,400.5c3.3,2.4,5.5,5.2,5.4,9.2c-0.1,4.8,2.2,8.7,4.4,12.8C386,420.3,380,406.8,381.8,400.5z"/>
	<path d="M445.3,380c0.2,5.5,1.9,10.4,4.3,15.3c-2.7-0.7-3.2-1.4-4.9-5.7c-0.7-1.7-0.6-3.7-3.6-3.8c-1.6,0-1.3-2.4-0.9-3.8
		c0.3-1.1,0.8-2.2,1.7-2.9C443.2,379.1,443,382.7,445.3,380z"/>
	<path d="M443,331c-1.4-3.3-2.6-6.1-3.8-8.8c-0.5-1.1-1-2.4,0.2-3.3c1.2-0.9,3.1-1.3,3.9-0.5c2,1.9,4.5,3.4,5.7,6.4
		C444.1,323,442.7,324.4,443,331z"/>
	<path d="M293.7,245.9c-8.3,0.4-16.3,3-25,4.4C276.9,246,284.9,243.6,293.7,245.9z"/>
	<path d="M345.8,393.4c-6.4-1.6-7.4-8.1-12.5-10c0.7,0,1.4,0.1,2.5,0.2c-1-2-2.9-2.6-4.3-3.7c3.1-0.8,3.2-0.9,4.9,2.1
		c2,3.4,4.3,6.4,7.4,8.7C344.5,391.1,344.8,391.9,345.8,393.4z"/>
	<path d="M391.2,393.8c2.5,0.9,4.4,2.5,5.8,4.6c0.5,0.7,1.8,1.7,0.5,2.6c-1.2,0.9-2.9,0.8-4.3,0.1c-1.1-0.5-1.6-1.5-0.9-2.5
		C393.9,396.4,392.9,395.1,391.2,393.8z"/>
	<path d="M443,369.2c-0.3,1.4,1.1,4.1-0.9,4.1c-1.8,0.1-1.4-2.7-1.5-4.4c-0.1-1.1,0-2.2-0.1-3.3c-0.1-0.9-0.3-2.1,0.8-2.3
		c1.4-0.3,1.2,1.1,1.4,1.9C442.8,366.5,442.8,367.8,443,369.2z"/>
	<path d="M355,281c-4.6,1.5-8.8,4.2-14.6,4.7C345.1,281.6,350.3,282.1,355,281z"/>
	<path d="M264.2,506.6c-2.7-0.9-5.8-0.5-7.5-3.2c-0.3-0.4-1.1-0.5-0.7-1.2c0.3-0.7,1-0.6,1.7-0.6
		C260.9,501.9,261.6,505.3,264.2,506.6z"/>
	<path d="M264.9,498.3c4.3-0.4,7-3,10.7-2.5C273.7,498.8,269.5,500,264.9,498.3z"/>
	<path d="M467.8,347c-3.5-2.5-7.5-3.9-11.9-5.1C459.6,341.1,466.3,343.9,467.8,347z"/>
	<path d="M279.7,291.9c2.7,1.1,6.6,1.2,5.2,6.4C282.7,296.2,281.9,293.5,279.7,291.9z"/>
	<path d="M238.8,345.3c-7.8,2.3-11.4,8.2-9.2,14.3c1.9,5.2,8.5,8,13.3,5.8c3.6-1.7,5.1-5.9,3.4-9.2c-1,0.6-0.7,1.6-1,2.5
		c-1.1,3.1-3.3,5-6.6,5c-3.3,0-5.8-1.6-6.8-5.1c-1.7-5.6,0.4-10.3,5.1-11.3c6.1-1.4,10.9,1.9,11.7,8c0.8,6.1-2.1,10.9-7.2,12.1
		c-5.3,1.2-11-2.2-12.7-7.5c-1.8-5.8,0.8-12.3,5.6-14.3C235.6,345,236.8,345,238.8,345.3z M243.3,355.8c1.5-0.2,3.1-0.5,2.9-2.5
		c-0.2-2.1-1.7-3.3-3.7-3.3c-1.6,0-3,1-3,2.6C239.5,354.7,241.2,355.6,243.3,355.8z"/>
	<path d="M377.4,336.9c-0.6-0.1-1.1-0.3-1.6-0.3c-1.7-0.1-3.2,0.4-3.5,2.4c-0.3,1.9,0.6,3.1,2.5,3.3c3.3,0.4,3.2,2.1,1.8,4.4
		c-2,3.2-5,4.3-8.6,4c-3.3-0.2-3.8-3.1-4.7-5.5c-1.7-4.5-1.2-7.3,1.9-9.8c2.8-2.3,8.2-2.6,11.3-0.6
		C377.1,335.2,377.8,335.6,377.4,336.9z"/>
	<path d="M379.5,341.8c1.9,4.5-0.6,9.8-4.9,11.7c-4.7,2.1-11-0.3-13.3-5.1c-2.7-5.6-0.9-12.7,3.8-15.1c-5.4,7.7-5.2,14.6,0.6,18
		c3.2,1.8,6.7,2,9.8,0C378.8,349.4,378.8,345.7,379.5,341.8z"/>
	<path d="M100.5,498.9c-0.8-7.3-1.2-14.6,1.8-21.5C100.9,484.5,101.6,491.8,100.5,498.9z"/>
	<path d="M533,497.7c-0.4-7.9,0.9-15.6,2.3-23.4C536.1,482.3,535.2,490.1,533,497.7z"/>
</g>
</svg>
