<?xml version="1.0" encoding="utf-8"?>
<!-- Generator: Adobe Illustrator 24.2.3, SVG Export Plug-In . SVG Version: 6.00 Build 0)  -->
<svg version="1.1" id="Layer_1" xmlns="http://www.w3.org/2000/svg" xmlns:xlink="http://www.w3.org/1999/xlink" x="0px" y="0px"
	 viewBox="0 0 595.3 841.9" style="enable-background:new 0 0 595.3 841.9; fill: #215342;" xml:space="preserve"
	 height="400" width="700" transform="translate(-190, -80)">
<g>
	<path d="M438,492.2c1.1-24.3-7.8-43.7-27.6-58.3c2.6,1.2,5.2,2.4,7.8,3.6c-8.2-7-17.6-11.8-27-16.7c3.2,1.1,6.4,2.3,10.4,3.7
		c-2.8-6.7-6.6-11.8-11.2-16.3c-4.5-4.3-8.9-8.7-12.9-13.5c-4.4-5.2-11.7-5.4-18.1-6.9c-2.4-0.6-4.9-0.8-8.1-1.2
		c5.5-1.3,10.2,0.2,15.2,0.1c-2.9-1.5-5.7-3.5-8.8-4.3c-11.6-3.3-12.6-11.4-11.1-22.2c0.9-6.3,4.1-11.9,7.7-17.8
		c0.9,4.6-2.8,7.8-2.5,12.6c4-7.5,8.4-13.9,15.8-17.9c-0.9,1.5-1.7,2.8-2.5,4.1c0.2,0.2,0.4,0.4,0.6,0.6c1.9-1.4,3.8-2.8,5.8-4.3
		c0.2,0.9,0.2,1.4,0.4,2c5.7-3.2,11.5-4.9,18.5-5.4c-1.5,0.7-2.4,1.1-5,2.4c6.8-1.3,11.5-0.4,15.9,2.3c-1.5,1.8-3.7,1-5.7,2.2
		c4.4,0,8.7-1.2,12.8,1.7c-0.9,0.3-1.5,0.5-2.2,0.7c16.5,11,28.4,25.5,35.6,43.9c-0.2-1.2-0.4-2.5-0.7-3.7c-0.2-1.2-0.5-2.3-1.1-5.1
		c5.4,10.9,6.2,21.4,8,30.6c14.6-31.3,2.9-58.3-17.6-85.2c9.9,6.2,14.7,14.3,19.2,22.8c2.7-6-1.2-16.8-13-38.2
		c2.1,2.9,4.2,5.6,6.2,8.6c2,2.9,3.7,6,5.8,9.4c-1.3-14-15.4-41.1-45.4-56.8c10.6,3.5,18.4,8.6,25.8,15.4
		c-2.9-8-22.2-21.2-45.2-30.9c7.2,1.1,12.6,2.1,17.5,4.7c22.5,12,39.5,28.9,48.5,53.3c1.8,4.8,4.5,9.3,7.4,13.6
		c10.4,15.1,9.3,32.6,11.2,49.5c1.9,17.6,2.3,35.3,7.9,52.3c5,14.9,14.7,26.6,25.7,37.7c-8.8-20.9-18.2-41.7-19.3-65
		c6,35.6,31,59.3,54.2,86.3c-9.9-19.5-21.8-36.1-26.4-56.2c3.4,6.5,8,11.9,12.6,17.5c10.8,13,22.5,25.4,31.5,39.8
		c6.4,10.2,10.1,21.3,9.9,33.5c3.2-27.4-13.3-45.7-31.3-65.2c14.7,3.9,23.5,12.5,31.5,22.7c-0.5-3.9-6.4-13.3-13.1-20.2
		c-13.6-14.1-23.5-30.3-27.3-49.8c-0.1-0.6-0.2-1.2-0.5-3.1c2.9,4.4,5,7.7,7.1,11c-5.2-20.7-17.3-38.5-23.7-58.7
		c2.5,4.6,7.4,7.8,8.1,13.6c-0.2-11.8-1.5-23.3-7.4-34.4c3.7,3.4,5.4,7.3,7.3,10.8c-4.8-26.3-27.3-33.9-49-44.9
		c3.5,0.6,5.1,0.9,8.7,1.5c-7.3-4.5-11.8-9.6-19-12.9c2.2-0.3,3.4-0.4,6.3-0.8c-19.8-6.2-26.7-27.5-45.7-33
		c-7-2.1-13.8-4.8-20.9-6.7c9-0.6,17.2,2.1,25.1,6.1c-15-11-32.6-12.1-50.3-13.5c3.6,0.2,5-4.7,8.9-3.4c-8.2-1.9-16-4.6-24.5-4.5
		c0.9-0.4,1.8-0.9,2.9-1.4c-14.1-2.7-20.1,0.1-37.6,17.6c-2.1-3-4-6-6.1-9c-2.1-3-4.4-5.9-6.9-8.6c3.1,6.6,6.4,13.1,7,20.6
		c-29.4-45.1-58-25.2-79.8-28.9c66-10.2,79.2,9.5,88.1,19.6c10-12.6,23-18.3,40.1-16.1c-4.1,0.4-7.2,0.7-11.1,1.1
		c16.4,4.1,31.9,8.1,47.9,9.4c-3.9,0.5-7.7,0.9-11.6,1.4c25,2.7,42.4,18.4,60,33.7c7,6.1,14.9,11.1,25.1,14.1
		c-4.3-0.6-7.5-1-10.6-1.4c-0.1,0.3-0.2,0.6-0.2,0.9c4.7,1.6,9.4,3.3,15.3,5.3c-4,0.5-6.8,0.9-9.7,1.3c0.1,1.9,1.6,2.4,2.7,3.1
		c8.4,5.3,16.9,10.4,25.2,15.8c15.5,10.1,22.6,25,23.3,43.1c0.3,6.8-0.2,13.6-0.4,20.4c-0.1,2.4,1.2,4.3,2.2,6.3
		c8.4,16.5,16.3,33.3,20.5,51.5c0.2,1,0.5,2,0.1,3.3c-2.9-4.9-5.7-9.7-9.5-16.1c2.6,10.7,7.1,18.3,13.4,25
		c10.9,11.4,21.6,22.9,26.5,38.5c3.6,11.6,3.7,23.3,1.4,36.4c0.2-20.5-6.8-37.1-19.3-51.6c14.4,22.7,20.9,46.2,7.3,72.4
		c9.3,1.6,18.3,3.2,27.8,4.9c-13.3,0-26.1,0.1-38.8,0c-3,0-4.9,0.8-5.7,3.9c-1,4.4-5.1,6.1-8.3,9.4c-0.8-3.6-2.2-6.5,0.3-9.8
		c0.4,2.3,0.8,4.3,1.2,6.7c3.2-2.4,4.9-5.2,5.6-9.3c-1,0.9-1.6,1.4-2.4,2.1c-0.9-9.9-6.2-18-10.3-27.1c3.2,1.5,4,4.7,7.2,7.4
		c-6.9-21.3-24.5-28.1-41.4-36c0.6-0.3,1.2-0.7,2.5-1.5c-14.3-3.6-28-6.3-44.2-4.2c4.4-2.1,7-3.3,10.4-4.9
		c-5.4-1.2-9.6,0.3-13.8,1.2c-3.4,0.7-6.7,1.6-10.1,2.3C438.9,489.1,438.4,490.6,438,492.2L438,492.2z M406.8,365.5
		c13.7,12.2,21.3,26.2,24.6,44.4c-4.4-8.3-9.2-14-17.8-16.2c1.7,2.8,2.9,4.9,4.5,7.6c-1.6-1-2.7-1.6-3.7-2.3c-1.7,1.7-1.4,3.4-0.7,5
		c0.6,1.6,1.5,3,2.4,4.7c-2-0.2-3.9,0.8-6.1-0.2c12.4,9.3,16.3,23.9,25,35.8c-1.1-4.7-2.3-9.5-3.4-14.2c1.8,7.3,8.6,11.1,12,17.2
		c-2.4-7.8-4.9-15.5-5.5-23.6c-0.6-8.1-1.4-16.2-2-24.4c0.2,0,0.3-0.1,0.5-0.1c1.1,3.9,2.2,7.8,3.6,12.9
		c2.6-22.9-13.4-51.9-32.7-51.7c4.3,3.4,8.8,5.8,12.1,11C415.2,369.2,412.2,366.8,406.8,365.5z M361.7,355.2
		c-4.7,1.9-5.9,5.8-6.4,9.9c-0.9,7.2,2.9,14,9.1,17.1c5.4,2.7,13.6,1.6,17.9-2.4c4.4-4.1,6.8-14.4,4.6-19.9
		c-0.8-1.9-2.5-3.9-4.3-2.9c-2.1,1.2-3.1,4-1.4,6.5c1.5,2.2,1.8,4.2,0.9,6.6c-2.6,6.6-9.2,9.9-15.4,7.5c-6.4-2.4-9.1-9.4-6.7-16.7
		C360.6,359.2,362.4,357.8,361.7,355.2z M369.9,386.3c4.4,4.4,9.5,4.2,14.6,2.1c6.2-2.5,10.6-6.7,10.9-13.8
		c0.3-5.6-3.9-14.1-7.2-15.6C392.9,372.3,387.4,380.7,369.9,386.3z M408.3,420.8c-1.4,7.7,4.4,9.6,9.1,12.2c2.1,1.2,3.8,5.3,6,3.4
		c2.1-1.8-0.6-5.2-1.8-7.6c-2.9-6.2-4.9-13.2-12.4-16.8c0.5,4.3,1,8,1.5,12.8C409.6,422.9,409,422,408.3,420.8z M513.2,500.8
		c-7.6-9.3-14.1-19.4-24.2-26.1c-1.6-1-3.3-1.4-5.4,0C493.6,483.5,503.4,492.1,513.2,500.8z M463.7,370.9
		c-0.1-9.2-0.6-18.3-3.5-27.1C457,353.3,462.4,361.8,463.7,370.9z M378.1,362.1c-0.2-2.2-1.4-3.7-3.4-3.6c-3,0.1-3.9,3-4.5,5.1
		c-0.4,1.6,1.8,2.8,3.7,2.8C376.7,366.5,377.7,364.5,378.1,362.1z M355.6,379.3c-4.1-8-3.5-14.8,0.5-22.3
		C349.7,362.6,349.2,374.2,355.6,379.3z"/>
	<path d="M159.9,488.3c-12-1.2-22.9-6-34.7-7.7c3.2,1.6,6.4,3.2,9.5,4.9c-9.8-2.2-18.9,1-28,4.3c4.1-0.2,8.3-0.4,12.4-0.6
		c-13.9,1.5-27.8,3.3-40,11.4c3-0.6,6-1.2,10.7-2.2c-2.4,1.7-3.4,2.4-5,3.6c2.2,0.1,3.8,0.2,5.3,0.3c-10.2,3.3-20.9,5.2-29.1,13.7
		c3.3,0.6,5.4-2.2,8.4-1c-3.2,3.3-6.4,6.4-9.3,9.8c-2.7,3.1-5.2,6.5-4.7,11.3c-2.1,1.8-4.2,3.6-6.3,5.5c0.2,0.3,0.4,0.6,0.7,0.9
		c2.1-1.3,4.1-2.6,6.9-4.4c-3.1,6.7-6.4,12.5-5.9,21.1c1.3-2.8,1.9-4.2,2.6-5.6c0.2,0.1,0.3,0.1,0.5,0.2c-0.6,2.8-1.2,5.6-1.8,8.4
		c-0.4,0-0.7,0-1.1,0c-0.6-3.5-1.5-7.1-1.6-10.6c-0.1-2.8-1.2-3.5-3.6-3.6c-9.3-0.2-18.5-0.5-27.8-0.8c-1.6-0.1-3.2-0.3-6.8-0.7
		c15.2-3.8,28.4-7.2,42.1-10.7c-4.8-8.5-5.7-17.1-3.7-26.1c1.9-8.8,6.1-16.4,10.6-24.1c-8.9,7.9-14.1,17.9-15.9,29.7
		c-1.2-13.2,1.7-25.5,7.9-37.1c4.3-8.1,9.3-16,16.1-22.2c11.1-10.2,16.7-23,20.2-37.1c3.8-15.8,10.1-30.7,15.9-45.8
		c0.4-1.1,0.8-2.3,1.6-4.7c-1.5,1.3-2.1,1.8-3.1,2.5c4.1-13.7,15.3-22.2,22.8-34.5c-2.3,0.9-3.4,1.4-5.4,2.2
		c9.9-6.8,16.3-15.4,21.9-24.8c2.4-4.1,2.6-8.8,4-13.2c5.9-18.4,30.1-55.4,64.8-65.1c-28.2,12.5-58.4,48.3-62.4,68
		c7.4-11.4,16-21.7,28.4-30.7c-20.4,20.5-32.4,42.6-28.9,70.8c1.4-8.5,2.5-17.1,7.1-24.9c-4.8,12.8-1.6,25.5,0,38.4
		c1.6,12.6-1,25.9,6.2,38.4c0.4-2.5,0.7-4.4,1.1-6.7c-0.1,14.6,6.8,27.1,9.7,40.7c0.7-14.3,0-28.6,4.4-43.5
		c-0.3,4.6-0.6,8.2-0.8,11.7c3.2-21.4,15.6-35.5,35.3-44.8c-6.5-2-12,0.1-18.6,0.7c8.3-5.9,17.2-6.7,27-8.5
		c-6.8-5.1-13.4-4.8-21.7-2.7c6.3-4.6,11.5-7.9,18.8-8.6c-2.1-1.7-3.5-2.8-5.3-4.3c6.7,2.2,11.8,5.8,15.9,10.8c2.3,0,2-2.1,2.7-3.2
		c0.6,0.4,1,1.7,1.7,0.9c0.6-0.7,0.9-2,0.8-2.9c-0.7-5-3.6-9.2-5-14c3,4.6,6.1,9.1,9.2,13.8c0.2-13.6-10.8-29-29.4-35.8
		c4.2,1.3,8.5,2.4,12.6,4c4.1,1.7,8.1,3.7,11.8,6.1c3.7,2.4,6.9,5.6,11.6,9.3c-1.5-5.4-4.9-7.6-6.9-10.9
		c9.2,10.1,23.9,15.8,24.9,32.5c-0.2-8.1-3-15.4-5.5-22.7c5.3,9.5,8.9,19.7,12.1,32c2.3-5.9,0.3-9.4-0.3-13.2
		c0.9,1.7,1.7,3.4,3.3,6.6c0-13.1-2.8-23.6-11.3-33.2c7.5,5.9,13.2,18,14.4,31c1,11.3,0.3,22.5-4.5,34.6c2.1-2,3-2.8,4.6-4.2
		c-3.1,5.9-5.7,10.3-12.9,9.6c-12.6-1.1-22.9,5.4-33.7,10.6c-7.8,3.8-15.1,8.2-21.8,15.9c4.6-1.9,8-3.2,12.1-4.9
		c-6,4.5-12,7.8-16.6,12.5c-10.7,11-21.3,22.2-30.8,34.1C161.1,459.9,157.1,473.5,159.9,488.3z M197.2,389.2
		c-4.7,5.9-9.4,11.9-11.6,19.5c5.4-6.5,13.8-9.8,18.4-18.1c-1.4,0.7-2,1.1-3.6,1.9c2.8-3.8,5-6.7,7.2-9.7c-0.2-0.2-0.5-0.4-0.7-0.7
		C203.7,384.6,200.4,386.9,197.2,389.2c2.9-4.9,8.5-7.3,12.3-12.8c-6.4,2-10.7,5.4-15.9,10.8c2.2-6.5,4.8-10.4,7.6-14.2
		c2.9-3.8,6-7.3,9.2-11.2c-15.8,0.5-33.9,28.4-28.2,43C187.1,399.6,191.1,393.4,197.2,389.2z M118.1,467c2-0.4,2.4-0.4,2.6-0.6
		c0.6-0.5,1.2-0.9,1.7-1.5c10.8-13.5,20.1-27.6,23.9-45c4-18.4,2.2-36.5-1.1-54.6c-2.3-12.4-3.7-24.8-3.2-38.9
		c-4.4,7.1-8.2,12.8-13.5,17.4c1.6-2.7,3.1-5.5,4.7-8.2c-7.4,9.1-15.9,17.4-21.5,30c4.5-6.2,7.9-10.8,11.3-15.4
		c-1.2,5.1-4.6,9.5-2,15c1.5-2.7,3.2-5.4,4.8-8.2c-9.7,22.5-22.7,43.6-28.3,68.8c6.8-5.7,11.5-12.1,16.5-18.2
		c-11.7,26-39.1,39.1-52.3,64c11.7-13.1,29.3-18.6,40.4-32.2c0.2,5-5,8.5-4.1,14.4c18.3-20.4,20.7-46.5,28-70.7
		c-1.9,20.9-7.7,41.1-11.1,61.8c1.5-2.6,3-5.1,5.2-9c-1.4,5.8-2.5,10.1-3.6,14.4c0.2,0.1,0.5,0.1,0.7,0.2c0.8-1.3,1.5-2.7,2.3-4
		c0.2,0.1,0.4,0.2,0.6,0.3c-1.6,4-3.2,8.1-4.9,12.1c19.2-26.3,26.1-56.6,28-88.4C149.6,406.1,142.2,438.2,118.1,467z M228.2,350.3
		c-5,4.1-9.1,8.7-8.6,15.6c0.5,6.5,4.4,10.8,10.1,13.5c4.1,2,8.2,2,12.8-0.2c-2.2-0.9-4.4-0.1-6.1-2.6c5.1,0.9,9.6,0.9,13.9-1.4
		c4.9-2.6,8-6.9,7.1-10.5c-2.8,0.7-5,1.8-6.8,4.5c-2.4,3.5-6.3,4.1-10.4,3.6c-3.7-0.5-5.1-2.9-5.7-6.4c-0.5-2.6-2.7-3.6-5.2-3.4
		c-2.7,0.3-2.5,2.7-2.9,5.6C224.2,361.7,225.2,355.9,228.2,350.3z M243.5,361.2c2.5-0.4,4.5-1.5,4.6-4.4c0.1-2.2-1.3-4.1-3.5-3.8
		c-2.7,0.4-3.8,3.4-4.6,5.5C239.5,360.1,241.7,360.9,243.5,361.2z M258.5,355.7c2.2,8.1,1.6,15.4-6.2,20.9
		C260.3,376.9,263.6,365.2,258.5,355.7z M112.9,370.4c-2.4,4.7-4.9,9.3-7.3,14C110.3,380.8,112.1,375.9,112.9,370.4z"/>
	<path d="M337.6,567.4c4.1-5.2,4.5-11.7,7-18.5c0,3.5,0,6,0,9.9c2.8-6,2.9-10.9,2.9-17.3c0.6,5.5,1.1,9.6,1.8,15
		c2-4.8,1.3-8.7,1.7-14.1c0.9,4.2,1.5,6.8,2.1,9.5c1.1-4.9,1-9.8-0.2-16.3c3.6,5.5,6.3,9.7,8.9,13.8c0.4-0.2,0.7-0.3,1.1-0.5
		c-2.9-6.8-5.7-13.6-8.6-20.3c0.2-0.1,0.3-0.2,0.5-0.3c1.4,2.1,2.8,4.1,4.3,6.2c-1.9-6.9-5.4-12.9-11-17.4
		c-4.1-3.2-8.3-7.5-12.9-8.3c-5.8-1-6.8,6.4-9.3,10.2c-14.3,21.3-54.8,18.9-65.9-8.4c-1.4-3.5-3-3.7-5.9-1.8
		c-8,5.1-15.4,10.8-21.5,20.6c4-2.5,6.5-4.1,10.7-6.7c-6.2,6.7-11,11.8-15.8,17c0.1,0.3,0.3,0.6,0.4,0.8c2.9-1.4,5.7-2.7,8.6-4.1
		c-3.1,4.7-6.2,9.4-9.9,15.1c4.9-1.4,6.7-4.9,9.9-7.1c-0.8,2.2-1.5,4.1-2.2,6c0.3,0.1,0.5,0.3,0.8,0.4c1.5-2.3,3-4.5,5.6-8.5
		c-1.1,4.4-1.7,7-2.8,11c3.2-3.7,5.5-6.2,8.2-9.4c-1.2,5.3-2.5,9.7-4.7,14.1c7.7-2,12.8-6.3,15.1-13.9c0.7,8.1,0.3,16.3,6.3,24.4
		c0-5.2,0-8.9,0-14.2c2.2,7.1,3.5,13,7.7,17.6c-9.4-7.6-20.5-6.2-31.2-6.3c-13.4-0.1-26.7-0.1-40.1-0.1c-1.3,0-2.8-0.2-3.6,1
		c-2.7,4.5-8.4,3.9-11.8,7.3c3.7-5.1,6.1-10.6,6.4-16.9c0.7,3.6,1.5,7.2,2.3,11.2c2.1-3.8,1.1-7.7,2.4-12c1.2,2.1,2.1,3.7,3.2,5.7
		c0.8-3.7-1.4-6.2-1.7-9c-1.2-12.2-7.6-22-14-31.9c-6.6-10.1-6.9-21.2-4.5-32.6c-0.4,11.1,0.4,21.9,7,31.6
		c-4.7-19-4.6-37.6,4.3-55.4c-3.6,12.6-5.7,25.4-4.8,38.6c0.9,13.4,5.8,25.2,14,35.8c-0.7-1.9-1.4-3.8-2-5.7
		c0.2-0.1,0.3-0.2,0.5-0.3c5.2,8.1,10.4,16.2,16.2,25.2c0.6-6.5-1.4-11.5-2-16.9c3.1,7.8,7.9,13.9,16.2,16.7
		c-6.3-7.6-10.5-15.9-10.9-26.3c0.9,1,1.5,1.8,3.2,3.9c-2.8-11.1-5.6-20.6-3.3-30.8c0.9,4.5,0.4,9.2,3.3,14.3
		c3-17.8-2.1-36.9,13.9-50.6c-6.3,7.8-9.9,16.2-10.3,27.4c2.9-6.9,5.5-12.3,9.5-16.8c-2.7,5.8-6,11.2-7.5,19.5
		c4-5.7,6.5-10.4,11.5-13.5c-10.2,11.8-16.3,24.5-14,40c2.8-11.7,10.4-20.4,18-29.2c-2.8,6.6-5.7,13.2-6.3,21.3
		c7.1-7.2,12.6-14.7,17.9-22.4c-1,3.5-3.4,6.5-3.3,11c2.8-3.2,5.1-6,7.5-8.7c0.5,0.6,0.9,1.2,1.4,1.8c11.3-5.2,22-11.3,30.9-21.1
		c-0.8,3.1-1.6,6.2-2.7,10.5c5.6-5,7.8-10.3,8.3-16.4c0.4-5-1.6-8.3-6.3-10.4c-13.7-6.1-26.4-23.9-25.6-35.5
		c0.5-7.4,3.6-13.3,10.6-16.1c8-3.1,16.3-3,23.4,2.2c4,2.9,7.3,3.5,11.5,1.3c5.5-2.9,11.4-3,17.3-1.8c9.3,1.9,14.9,8,15.6,16.5
		c0.7,8.6-4.3,16.5-12.6,19.8c-1.9,0.8-3.9,1.5-4.5,3.8c-1.9,7.1-7.3,10.4-13.8,12.3c-12.9,3.9-14.4,8.8-6,19.6
		c1.7,2.2,3.6,4.2,5.4,6.2c1.8-0.5,0.3-1.6,1.4-2.5c6.5,3.7,13.1,7.5,21,11.9c-2.1-4.6-4.5-7.6-5.1-11.6c3.6,3.4,6.6,7.2,10,12.4
		c-0.5-5.7-2.7-9.4-3.8-13.7c4.1,13.6,14.7,22.1,23.7,32.4c-0.6-4.7-3.2-8.1-4.6-12c5.7,7.8,13.4,14.7,13.2,25.8
		c3.5-9,5.7-18.3,4.9-28.2c1.1,4.9,0.9,9.8,0.5,14.7c-0.4,5-1.6,10-2.2,15c-0.5,5-0.9,10.1-2.3,15c-1.4,4.8-4.8,8.9-5.2,15.7
		c3.3-4.1,5.7-7.1,8.3-10.2c1-0.3-0.4,1.6,1.4,0.8c4.4-6.3,8.9-13.3,12.7-22.9c-1.3,10.7-4.2,18.9-5.7,27.6c0.8-2,1.5-3.9,2.4-6.1
		c0.9,3-3.1,6.8,0.3,8.1c3.9,1.5,8-0.9,11-4c1.2-1.2,2.1-2.6,3.6-4.5c0,2.2,0,3.8,0,6.5c10.5-15,13.6-31,14-48.5
		c1.3,12.3,0,23.9-0.4,35.6c6.5-3.4,12.6-27.7,12.6-49c3.9,19.6,0.1,34.7-11.4,51c-4.8,6.8-2,14.5,1.4,21.5c0.5,1,1.3,1.9,2,3.1
		c-9.4-2.8-9.8-3.4-8.3-12.6c0.4-2.5,0.7-5,1.2-9.2c-3.8,3.7-3.1,7-2.8,9.8c0.4,4.5-1.1,5.8-5.5,5.7c-18.2-0.4-36.4-0.5-54.7-0.7
		C341.3,566.3,339.4,566.2,337.6,567.4z M285.6,484.1c-6.8,4.6-13.1,8.9-19.3,13.2c-1.2,0.9-1.2,2.5-1.2,3.9
		c0.4,15.2,8.9,25,23.9,27.8c22.3,4.1,35.2-6.3,34.5-27.9c-0.1-2.2-0.6-3.8-2.9-4.5c-6.8-2.1-12.9-5.4-18.7-9.5
		c-0.7-0.5-1.9-1.2-2.3-1c-4.6,3-10.8-2.4-15.5,4.9C284.9,487.5,285.2,486.1,285.6,484.1z M318,449c-6.1-3.5-7.5-8.4-6.6-14
		c0.8-4.8,3.7-7.5,8.7-7.4c4.9,0.1,7.7,2.8,8.7,7.5c0.3,1.4-0.7,3.8,1.7,4c2,0.2,3.6-1.2,4.7-3c4.1-6.8,2.6-14.5-4-19.1
		c-6.4-4.4-13.3-4.2-20.1-1.5c-5.8,2.3-10.7,2.1-16.2-1.3c-7.8-4.9-16.2-3.5-21.8,2.5c-3.1,3.3-3.8,13.8-0.6,16.6
		c2.7-9.2,10.7-9.8,17.1-7.7c8.1,2.6,7.2,11.4,7.4,20c3.4-7,4.4-13.3,5.7-20.2C307,434.2,297.4,450.4,318,449z"/>
	<path d="M149.7,574.8c2.3,0.2,3.4,0.3,4.7,0.5c-4.9,2.2-10-2.2-15,1c3.7-6.1,6.3-12.1,7-19c0.7-6.9-1.2-13.4-1.7-20.2
		c2.3,5.3,5.9,10.1,6,16.2c1.8,0.3,2.7-1.2,4.5-2.1C151.6,559,156.3,567.7,149.7,574.8z"/>
	<path d="M452.6,576.9c-8-1.5-15.7,0.5-21,0.1c2.9,0.8,7-4.9,12.8-2.5c-4.9-6.3-1.9-13.9-4.7-20.5c0.8,0.4,1.5,0.7,2.5,1.3
		c2-7.6,4.3-14.9,3.8-22C451.6,546.9,439.9,563.7,452.6,576.9z"/>
	<path d="M426.1,477.7c10.3,24.7,6.5,46.8-7.2,62.4C430.6,519.2,431.2,498.7,426.1,477.7z"/>
	<path d="M91.7,532.4c-8,16.3-9.7,30.9,5.5,43.1c-6-3.3-13.6-7.5-14.8-13.2C80.3,552,80.1,540.4,91.7,532.4z"/>
	<path d="M437.9,492.1c-0.5,5.8-1.5,11.5-3.8,17c2-16.5-2.7-31.7-9-46.7c6,7.8,9.2,16.9,11.2,26.4
		C436.6,490.2,436.7,491.5,437.9,492.1C438,492.2,437.9,492.1,437.9,492.1z"/>
	<path d="M505,541c0,4-0.1,7.9,0,11.9c0.2,3.8-1.2,8.1,4.3,12.2c-7.7-3.4-8.7,2.8-12.7,5.3c6-10.6,3.8-20.6,0-31.7
		c3.6,4.9,4.9,9.6,6.7,16.3c0.5-6,0.8-10,1.2-13.9C504.6,541,504.8,541,505,541z"/>
	<path d="M178.3,519.4c-13.5-10.8-17.7-32.9-9.2-47.6c-2,9-2.5,16.8-1.2,24.7C169.2,504.4,172,511.8,178.3,519.4z"/>
	<path d="M115,540.1c-2,12.6,1.1,24.4-3.2,35.5C109.2,563.9,109.3,552.4,115,540.1z"/>
	<path d="M58.4,564.1c3.7,1.7,6.9-3.1,11.4-6.6c-0.6,2.1-1,3.5-1.3,4.6c2.7-2.5,5.6-5,8.8-7.9c-0.7,4-2.4,7.8-0.4,10.9
		c-0.4-1.7-4,1.8-4-1.9C67.3,568.4,61.5,562.9,58.4,564.1z"/>
	<path d="M468.4,579.1c-1.5-4.1-2.5-7-3.6-9.9c2.5,3.3,3.4,7.6,7.7,10.7c-0.4-2.3-0.7-3.8-1.1-6.2c1.4,2.9,3.5,4.9,2.1,6.9
		c-1.2,1.8-3.8,0.3-5.7,0c-3.6-0.6-7.1-1.6-10.3-4c-0.4,0.8-0.7,1.5-1.2,2.5c-2.2-2-2.4-4.2-2.3-7.4
		C457.9,576.1,462.9,576.8,468.4,579.1z"/>
	<path d="M336.1,550c0.3,6.5-0.8,11.9-1.9,17.4c-5.5,0.6-7.3,7.4-13.5,7.4c1.4-3.6,2.6-7,4.4-11.7c-0.6,4.2-1,6.9-1.5,10.6
		C331.5,567.3,333.9,559.1,336.1,550z"/>
	<path d="M292.7,576.6c3.7-2.8,1.7-7,3.1-11.4c3.3,11.5,11.8,13.1,21.3,12.8C308.6,583.2,301.2,572,292.7,576.6z"/>
	<path d="M157.7,576.2c9.5,1.7,17.5-1.1,24.4-7.6C182,575.4,167.5,580.2,157.7,576.2z"/>
	<path d="M473.3,546.2c1.5,9.7,2.9,19.3,4.4,28.9c-4.5-9-4.8-18.7-4.7-28.5C473.1,546.5,473.2,546.4,473.3,546.2z"/>
	<path d="M194.2,234.2c12.4-7.6,30.3-6.5,43.9,3.3C223.2,230,209,227,194.2,234.2z"/>
	<path d="M117.8,580.5c6.7-1.8,13-2.9,17.6-8.2C135.2,577.8,123.6,583.4,117.8,580.5z"/>
	<path d="M499.6,337.5c6.1,5.3,12.6,10.3,12.5,21C508.9,349.8,503.8,343.9,499.6,337.5z"/>
	<path d="M100.6,564.9c1.4,4.7,2.6,9,4.1,14C98.7,576.2,97.2,570.6,100.6,564.9z"/>
	<path d="M518.6,566.1c-2.1-1.7-3.3-2.7-4.7-3.9c-0.6,0.9-1.1,1.6-1.9,2.8c-0.1-4-0.4-7.5-2.5-11.5
		C514.7,556.5,517.1,560.4,518.6,566.1z"/>
	<path d="M489.5,575c-1-0.5-1.3-0.1-3.6,3.9c0.4-5.8,0.8-11,1.3-16.9C489,566.4,489.6,570.4,489.5,575z"/>
	<path d="M373.6,518.8c-1.1-8-1.2-16.2-4.1-23.8C373.2,502.5,374.2,510.5,373.6,518.8z"/>
	<path d="M415.3,569.3c3.1,3.1,6.5,4.8,10,6.6C419.6,577,415.7,574.6,415.3,569.3z"/>
</g>
</svg>
