<?xml version="1.0" encoding="utf-8"?>
<!-- Generator: Adobe Illustrator 24.2.3, SVG Export Plug-In . SVG Version: 6.00 Build 0)  -->
<svg version="1.1" id="Layer_1" xmlns="http://www.w3.org/2000/svg" xmlns:xlink="http://www.w3.org/1999/xlink" x="0px" y="0px"
	 viewBox="0 0 595.3 841.9" style="enable-background:new 0 0 595.3 841.9; fill: #215342;" xml:space="preserve"
	 height="350" width="700" transform="translate(-210, -55)">
<g>
	<path d="M52.5,335.4c-10.4,0-19.9,0-29.4,0c0-0.3,0-0.6,0-0.9c4.9-0.3,9.8-0.6,14.7-0.9c3.9-0.2,7.8-0.5,11.7-0.8
		c0.9-0.1,2.4-0.1,2.4-1.4c0-1.1-1.2-1.1-2.1-1.4c-3-0.9-6.1-1.1-9.2-1.2c-7.3-0.3-14.6-0.6-22.4-0.9c1.6-1.3,3.1-1,4.5-1
		c11.4-0.3,22.7-0.7,34.1-0.9c4.8-0.1,8.4-1.7,10.6-6.2c1.8-3.7,5.4-5.1,8.8-6.8c2.1-1,5.2-1.7,4.5-4.7c-0.6-2.8-3.7-2.8-6.1-2.9
		c-8.5-0.1-17-0.1-25.5-0.6c6.7-0.7,13.4-1.4,20.1-2.2c1.9-0.2,5.3-0.1,5.2-1.9c-0.1-2.4-3.5-1.9-5.5-2.1c-3.4-0.2-6.9-0.1-10.4-0.8
		c5.4-0.7,10.8-1.4,16.2-2.1c0.7-0.1,1.4-0.2,2-0.4c1.3-0.4,2.5-1,2.5-2.4c0.1-1.3-1-2-2-2.6c-2.5-1.3-5.3-1.5-8-1.5
		c-12.9,0.2-25.7-0.6-38.5-0.8c-2.1,0-4.3,0-6.3-1.2c12.3-0.3,24.5-0.8,36.8-0.7c7.4,0,14.3-1.2,20.8-4.8c8-4.4,16.8-5.8,25.7-7
		c4.2-0.5,8.5-0.9,11.9-3.9c1.8-1.6,2-2.9-1.2-3c1.3-1.1,3.6-0.9,3.5-3c-0.1-1.8-1.6-2.7-3-3.6c-4.3-2.9-9.4-2.6-14.3-3
		c-11.7-0.8-23.3-1.4-35-2.1c0-0.4,0-0.8,0-1.2c5.2,0,10.3,0.1,15.5,0c12.4-0.4,24.8,0.3,37.2-0.8c3.6-0.3,7-1,10.1-3
		c1.3-0.9,2.9-1.9,2.5-3.8c-0.4-1.6-2.2-0.7-3.3-1.1c-0.6-0.2-1.3-0.3-2-0.7c3.6-0.5,7.3-0.7,10.8-1.9c1.9-0.7,5-1.2,4.9-3.1
		c-0.2-2.3-3.3-2.3-5.5-2.4c-7.8-0.5-15.6-0.9-23.4-1.4c-0.9-0.1-1.8,0.3-3-1.2c2,0,3.5,0,5,0c9.8,0,19.5,0,29.2-0.7
		c6.4-0.5,12.7-1.6,18.3-5.2c0.9-0.6,2.2-1.2,2-2.6c-0.2-1.5-1.6-1.7-2.8-2.2c-2.3-0.8-4.8,0-7.1-1.8c3.3,0,6.6,0,9.9,0
		c1.1,0,2.4,0.4,2.9-1.1c0.4-1.4-0.3-2.5-1.2-3.4c-2.6-2.5-5.9-2.8-9.3-3c-6.9-0.3-13.8-0.6-20.6-0.9c-2-0.1-4-0.4-6-0.6
		c0-0.5,0-0.9,0.1-1.4c12.2,0,24.3,0,36.5,0c4.8,0,9.6-0.6,13.8-3.3c4.3-2.8,4.7-4.1,2.1-8.3c-0.4-0.7-0.4-1.2-0.2-1.9
		c0.8-4,0.2-5-3.8-5.5c-6.2-0.9-12.5-1.4-18.8-2.2c-2.9-0.4-5.8-0.4-8.5-1.6c27.1-1.2,54.2-1.2,81.3,0.3c-8.8,0.7-17.6,1.3-26.3,2
		c-5.1,0.4-10.3,0.9-15.4,1.3c-1.8,0.2-3.4,0.6-3.7,2.8c-0.3,2.4,1,3.6,3,4.4c3.7,1.4,7.6,1,11.5,1.7c-2.2,0.6-4.4,1-6.5,1.7
		c-1,0.3-2,0.8-2.1,2c-0.1,1.2,1,1.7,1.9,2.2c3.8,2,7.9,2.3,12,2.4c12.6,0.1,25.3,0,37.9,0.1c3,0,5.3-1.2,7.5-2.9
		c16.5-12.8,35.4-17.8,56.1-16.3c1.2,0.1,2.5,0.4,3.7,0.8c4.3,1.4,4.6,2.6,1.9,5.9c-1.6,1.9-3,4-2.2,6.6c0.9,2.6,3.5,2.6,5.8,2.8
		c8.3,0.7,16.7,0.5,25,2.3c7.4,1.6,13.8,4.8,18.7,10.7c2.3,2.8,5.2,3.9,8.7,3.9c6.7-0.1,13.3,0.1,20-0.1c5.5-0.1,10-2.2,13.3-6.7
		c1.4-1.9,1.3-3.3-1.5-3.7c-3.4-0.4-6.8-1-10.1-1.7c17.4-0.7,34.7-0.6,52.2,0.3c-7,0.9-14,1.8-20.9,2.7c-3.5,0.5-7.1,0.8-10.5,1.5
		c-2.2,0.4-5.1,0.6-4.8,3.7c0.3,3.2,2.9,3.8,5.6,3.8c9.3,0,18.6,0,27.9,0c7.8,0,15.6-0.2,23.4,0.5c0.9,0.1,3.3-0.8,1.8,1.9
		c-0.5,0.9,0.7,0.9,1.3,1.2c1.7,0.6,3.4,0.5,5.1,0.5c15.3,0,30.5,0,45.8,0c0,0.4,0,0.9,0,1.3c-1.6,0.1-3.3,0.4-4.9,0.4
		c-12.3,0.4-24.6,0.7-36.8,1c-1.8,0-3.7,0.1-5.4,0.6c-4.9,1.4-7.1,7.9-4.1,12.1c1,1.5,2.5,1.9,4.2,1.9c5.4,0,10.8,0,16.3,0.6
		c-4.8,0.7-9.6,1.4-14.4,2.1c-2.1,0.3-4.1,0.7-5.8,1.9c-2.7,1.7-2.9,3.2-0.5,5.4c5.4,5,12,6.9,19.2,7c8.7,0.1,17.4,0.2,26.2,0.2
		c1.1,0,2.1,0.1,3.2,0.8c-3.3,0.4-6.7,0.7-10,1.1c-1.9,0.3-3.8,0.6-5.7,1.1c-1.1,0.3-2.4,0.8-2.4,2.1c-0.1,1.2,1.3,1.5,2.2,1.9
		c5.7,2.4,11.7,3.9,17.9,4.5c10.6,1.2,21.3,0.3,32.9,0.9c-6.4,1.5-12.1,1-17.6,1.8c-2.4,0.3-4.8,0.7-7,1.6c-3.2,1.4-4.6,4-4.8,7.3
		c-0.2,3,1.2,5.4,3.7,6.9c2.1,1.2,4.3,2.2,6.5,3c4.3,1.5,8.6,3,12.2,6c2.2,1.8,5.1,2,7.8,2c8.5,0,17,0,25.4,0c0,0.4,0,0.8,0,1.2
		c-6.7,0.5-13.4,1-20.2,1.5c-2.3,0.2-5.5,0.2-5.7,2.6c-0.1,1.5,3.4,1.3,5.3,1.5c1.7,0.2,3.4,0,5,0c0,0.3,0.1,0.6,0.1,1
		c-3,0.4-5.9,0.8-8.9,1.1c-2.9,0.3-5.7,0.9-8.3,2.2c-2.2,1.1-3.7,2.8-3.5,5.4c0.2,2.9,2.7,2.9,4.6,3.1c2.6,0.4,5.3,0.4,7.9,0.8
		c-2.1,1-4.4,0.7-6.6,0.9c-1.4,0.1-3.1,0.1-3.6,1.5c-0.4,1.4,1.2,2,2.2,2.7c2,1.5,4.1,3,6.2,4.3c2.1,1.4,4.9,0.7,7.5,1.7
		c-1.8,1.3-5,0.4-4.8,2.3c0.3,2.2,3.3,1.4,5.1,1.5c5.3,0.2,10.5,0.1,15.8,0.5c-4.3,1.6-8.9,1.1-13.2,1.9c-2.6,0.5-5.2,0.9-7.8,1.3
		c-1.5,0.2-1.6,1-0.9,2.1c1.1,1.9,2.3,3.7,3.3,5.6c8.2,14.5,11.3,29.5,5.9,45.8c-1.3,3.8-0.5,8.2-1,12.3
		c-2.2,16.5-8.4,31.1-20.1,43.1c-0.5,0.5-1,0.9-1.5,1.4c-0.3,0.2-0.6,0.3-0.9,0.4c-1.3-1.2-0.4-2.9-1.2-4.4
		c-2.2,0.9-3.7,2.5-4.7,4.5c-3.5,7.1-8.8,12.6-15.1,17.1c-3,2.1-5.3,4.7-7,7.9c-0.5,0.9-1.9,1.9-0.9,3c0.8,0.9,2.2,0.3,3.3,0.1
		c3.2-0.6,6.3-1.8,9.8-3.3c-2.2,4.8-5.4,8.1-8.7,11.3c-1.5,1.4-1.6,2.3-0.1,3.8c4.7,4.9,10,7.8,17.2,7.8c12.1,0,24.3,0.8,36.4,1.9
		c-10.3,0.5-20.7,1-31,1.4c-4.5,0.2-8.9,0.4-13.3,1.4c-1.3,0.3-3.1,0.5-3,2.2c0.1,1.6,1.9,1.5,3,1.7c1.9,0.3,3.9,0.3,5.9,0.9
		c-2.5,0.2-5,0.5-7.5,0.7c-3.5,0.3-6.8,1-9.7,3.1c-1.1,0.8-2.5,1.8-2.1,3.3c0.5,1.7,2.3,1.1,3.6,1.2c0.7,0,1.4,0,2.4,0
		c-1.3,1.4-3.9,1.2-3.8,3.2c0,1.7,0.5,3.4,1.5,4.9c1,1.6,2.4,3.2,3,5c2.1,5.7,6.4,7,11.9,7c8.7,0,17.3,0.5,26,1
		c-4.2,1.4-8.6,0.9-12.9,1.4c-6.1,0.7-12.3,1.2-18.5,1.6c-6.3,0.4-11.7,3.8-17.6,5.4c-1.9,0.5-1.3,2.2-1.2,3.5
		c1.3,9,0.5,17.8-2.1,26.5c-1.8,5.8-4.3,11.3-8,16.8c19.6,0.3,38.7,0.6,57.9,1.9c-4.5,1.5-9.2,1.3-13.8,1.5
		c-15.6,0.6-31.2,0.8-46.8,1.1c-1.5,0-2.7,0.1-4.1,1.2c-4.2,3.4-8.7,5.6-14.2,2.8c-1.9-1-1.8,0.8-2.2,1.6
		c-2.6,5.3-5.5,10.3-9.5,14.6c-5.4,5.8-11.6,10.3-19.8,11.6c-9,1.4-16.4-1.6-23-7.5c-4.3-3.8-7.4-8.5-9.6-13.7
		c-0.8-1.8-1.4-2.6-3.7-1.9c-6.4,2-12.5,0.7-17.9-3.2c-2.2-1.6-4.4-2.1-7-2.2c-14.3-0.1-28.6-1.3-42.9-2.2c-0.4,0-0.8-0.2-1.2-0.7
		c14.3-1.8,28.6-1.3,43.3-2.4c-3.5-6-6.2-12-7.4-18.6c-0.2-1.3-1.2-1.5-2.3-1.5c-3.7,0.1-7.3,0.2-11,0.2c-1.9,0-2.8,1.4-3.9,2.5
		c-11,11.5-24.2,19.1-40.1,21.4c-22.8,3.4-42.7-3.1-59.4-18.7c-4.2-3.9-8.2-6.1-13.8-5.5c-3.4,0.4-6.9,0.4-10.3,0.2
		c-2.9-0.2-3.3,1.5-3.8,3.7c-1.7,8.6-4.9,16.5-11.7,22.4c-6.3,5.5-13.5,7.1-21.3,4c-1.9-0.8-2.3,0-2.8,1.5
		c-2.4,6.6-6.1,12.3-11.7,16.7c-10.3,8.2-23.7,7.6-35-1.7c-6.3-5.2-11.3-11.4-14.9-18.7c-0.9-1.8-1.3-2.9-3.6-1.2
		c-4.7,3.5-10.6,2.7-15.9-2.2c-1.8-1.6-3.5-2.2-5.7-2.3c-18.9-0.6-37.8-1.3-56.7-2.1c-1.1,0-2.3,0.3-3.4-1.1
		c19.9-1.2,39.6-1.6,59.2-1.8c0.3-1.3-0.6-2-1.1-2.9c-5.6-8.5-8.7-17.9-9.4-28c-0.1-1,0.3-2.5-1.7-2.1c-6,1.2-11.9-0.4-17.8-0.7
		c-5.5-0.3-10.9-0.9-16.6-1.4c1.1-1,2.3-0.8,3.4-0.8c10.1-0.2,20.2-0.3,30.3-0.3c1.9,0,2.3-0.5,2.4-2.2c0.4-5.9,0.3-5.5-4.9-8.1
		c-8-3.9-16.5-3.5-24.9-4c-1.7-0.1-3.4,0-5.1-0.3c3.2-0.7,6.5-0.4,10-1.6c-6.4-1.5-12.5-1-19.2-2c3.7-1,6.9-0.8,10-1
		c1.3-0.1,2.5,0,3.8-0.1c8-0.2,11.9-2.9,14.6-10.5c0.9-2.5,2.2-4.3,4.4-5.8c3.9-2.7,3.4-3.7,0.4-7.2c-4.2-5-9.3-5.7-15.3-5.5
		c-10.4,0.3-20.9,0.1-31.3,0.1c0-0.4-0.1-0.9-0.1-1.3c1.3-0.2,2.6-0.5,3.9-0.5c7.9-0.3,15.8-0.5,23.7-0.8c2.6-0.1,6.1,0.2,6.4-3.1
		c0.3-3.2-3.1-3.4-5.5-3.9c-6.8-1.4-13.7-1.6-20.5-1.9c-2-0.1-4.1,0-6.1-1.1c5.8-0.3,11.6-0.7,17.4-0.9c4-0.2,8-0.4,11.9-1.4
		c1.6-0.4,3.4-0.9,3.2-2.9c-0.2-2.1-2.3-2-3.8-2.1c-4.1-0.1-8.2,0-12.8,0c2.5-1.6,4.9-1.1,7.1-1.8c1.2-0.4,2.5-0.5,3.7-0.8
		c0.9-0.2,1.9-0.6,2.1-1.6c0.3-1.2-0.7-1.8-1.6-2.4c-9.3-5.8-15.9-14-21.6-23.2c-7.5-12.2-11.5-25.6-13-39.8
		c-0.5-4.6-2.5-8.8-3-13.4C29,393.3,32.7,379.7,40,367c1.4-2.4,2.6-4.8,2.9-7.6c0.4-4.2,1.5-8.3,3.1-12.3
		C47.5,343.3,49.9,339.9,52.5,335.4z M441,480.5c-1.6-15.8-11-24.8-23.3-31.6c4.3,0.6,7.7,3.1,11.7,5.1c-2.5-10.4-10.4-12.7-19-14
		c6.2-1,11.9,0.6,17.5,3.6c0.1-2,0.1-3.7,0.4-5.4c1.5-7.3,4.8-13.8,7.6-20.6c3.8-9,4.4-18.2,1.6-27.6c-0.5-1.7-1.1-3.4-1.7-5
		c0.7,0.3,1.1,0.7,1.4,1.2c4.4,7.4,6.6,15.3,6.2,23.9c0,0.8-0.6,2,0.4,2.5c1,0.5,1.9-0.4,2.7-1.1c2.3-2.1,1.7-4.9,1.3-7.4
		c-1.5-8.6-4.8-16.4-9.5-23.7c-0.6-1-1.8-1.8-1.4-3.5c5.3,5.1,9.1,10.9,12.3,17.3c0.9-23.8-9.5-43.2-22.8-61.6
		c7.3,6.1,12.6,13.6,17.6,21.5c-7.5-45.7-32.9-77.3-75.5-95.3c1.4,0.3,2.6,0.7,3.9,1.1c13.3,4.6,24.9,12,35.4,21.2
		c2.3,2,4.5,2.9,7.4,1c2.9-2,2.6-4.5,1.6-7.3c-1.1-3.1-3-5.8-5.3-9.3c4.3,2.6,7.9,4.6,11.3,6.9c18.3,12,37.4,22.1,58.3,28.8
		c12.6,4,24.3,10,34.8,18.4c16.4,13.2,28.8,29.4,37.1,48.8c1.6,3.7,3.3,7.2,4.9,10.9c-0.3-4.6-1.5-8.9-3.3-13
		c-13.5-31.9-36.4-54.3-68.8-66c-23-8.3-44.7-18.5-65.1-32.1c-12.1-8.1-24.9-15-38.5-20.3c-6.1-2.4-12.4-4.3-18.7-6.2
		c11.4-1.6,22.7-0.6,34.1-0.2c-10.4-5-21.4-7.5-32.9-8.6c-11.4-1-22.7-0.4-34.1,0c7.5-3.1,15.3-5.1,23-8.5c-0.8-0.4-1.3-0.7-1.9-0.8
		c-17.1-3.4-34.1-3.9-51.2,0c-14,3.2-24.8,10.4-30.3,24.3c-1.1,2.8-2.7,5.5-4.1,8.2c-0.2-0.2-0.5-0.3-0.7-0.5
		c7.9-20.4,16.7-40.2,36.5-52.7c-0.5-0.1-0.8-0.2-1.1-0.1c-14.9,2.8-28.7,7.9-39.7,19c-14,14.2-21.3,35.5-6.7,56.5
		c0.4,0.6,1.4,1.3,0.4,2.4c-4.6-3.5-7.3-8.2-9.1-13.5c-0.9-2.5-2.2-4.5-4.1-6.2c-8.4-7.4-18.5-10.5-29.3-11.3
		c-19.1-1.4-36.8,3.2-53.1,13.4c-2.6,1.6-5.2,3.4-7.6,5.3c-2.4,1.9-4.7,4-7,6c0.9,0.3,1.4,0,1.8-0.2c16.1-8.7,33.1-13.4,51.5-11.6
		c3.6,0.4,7.2,1,10.2,3.3c-8.4-0.9-16.8-1.1-24.9,1.3c-8.2,2.4-15,7.3-21.2,13.1c7.8-2.6,15.4-5.9,23.6-7c-6.9,2.8-13.8,5.8-20,9.9
		c-18.4,12.3-38.3,21.4-59.3,28.4c-12.8,4.3-24.4,11-34.3,20.5c-5.3,5.1-9.9,10.6-13.4,17.1c1.9-1.1,3.6-2.4,5.2-3.7
		c1-0.8,1.9-1.6,2.8-2.6c13-14.9,29-25.1,47.7-31.3c17-5.7,33-13.6,47.9-23.8c4.3-3,9-5.4,13.9-7.6c1.5-0.7,3.1-1.5,5-0.5
		c-2.7,5-4.9,10.2-8.2,14.8c-1.5,2.1-3.1,4.3-2.1,7.6c9.5-7.1,18.5-14.5,29.8-18.7c-0.5,1.3-1.5,1.5-2.2,1.9
		c-9.1,5.7-17.5,12.2-24.8,20.1c-12.2,13.2-22.6,27.4-27.9,44.8c-0.3,1.1-0.9,2.2-0.1,3.7c7.5-8.9,16.3-15.3,27.3-18.6
		c-12.3,6.1-21.3,15.4-26.5,28.1c-5.3,12.8-5.3,25.7-1,39.7c2.8-16.6,7-25.7,13.1-28.5c-11.1,12.7-10.8,30.1-6.1,39
		c0.2-5.6-0.5-11.3,1.8-16.6c0.7,4.2,1,8.4,2.3,12.5c2,6.7,4.7,13.2,7.5,19.5c5,11.2,8.8,22.8,8.9,35.8c5.7-5.1,11.2-9.5,18.2-11.4
		c-6.1,4.2-11.3,9.3-15.7,15.2c-5.6,7.5-7.7,13.6-7.1,20.2c2.5-9.8,7.5-17.6,15.6-23.8c-0.2,1.4-1.2,1.9-1.8,2.6
		c-6.7,7.9-10.8,16.7-10,27.3c0.5,6.4,2.6,12,8.9,16.6c-2.8-6.8-3.5-13-2.5-19.3c1-7,4.1-13.2,8.1-16.7c-0.6,1.4-1.1,2.4-1.6,3.4
		c-4,8.3-4.7,17-1.7,25.7c1.6,4.7,4.5,8.3,9.8,9.7c0.1-2.3-2.1-4-1.2-6.6c3.3,2.9,6.3,6,11,7.4c-4.5-8.2-6.6-16.3-5.6-25.2
		c4.2,7.4,9.3,13.9,15.6,19.5c7.5,6.7,15.9,12.2,21,13.5c-7.8-6.5-13.8-14.3-16.2-24.4c8.8,15,19.4,27.5,38.3,29.1
		c-3.8-1.5-7.9-2.5-12.5-4.9c5.5,0,9.6,2.6,14.5,1.9c-1.3-1.7-2.4-3.1-3.6-4.6c0.5-0.1,0.8-0.2,0.9-0.1c0.6,0.3,1.2,0.6,1.8,1
		c9.5,6.4,19.8,6.1,30,2.9c10.4-3.3,18.8-8.9,21-20.9c0.5,7.2,5.1,11.2,10.6,14.5c2.5,1.5,5.1,2.7,7.8,3.4
		c19.5,5.1,36.2-0.2,50.5-13.9c0.8-0.8,1.4-1.8,2.2-2.6c0.2,0.3,0.5,0.5,0.7,0.8c-4.3,6.1-9.9,10.8-16.2,14.8
		c8.9-2.7,16.8-7.1,23.8-13.2c5.5-4.7,10.7-9.8,16-14.6c1.4-1.3,3.2-3.3,5-2.5c2.2,0.9,2.5,3.6,2.6,6c0.1,1.8,0,3.7,0.1,5.5
		c0,0.8-0.4,1.8,0.6,2.5c3-1.5,4.7-4.5,7.5-6.6c0.7,3-1.4,5.1-1.3,8c5.8-3.3,8.9-8,8.8-14.4c-0.2-6.1-3.6-10.8-7.2-15.3
		c8,5.9,11.6,13.7,10.1,24.6c4.2-5,6.5-9.5,5.8-15.2c-0.7-5.3-3.1-9.8-7.1-13.6C433.5,472.4,437.6,475.1,441,480.5z M496.2,581.5
		c4.9-9.6,6.4-19.8,5.3-30.3c-1.3-13.2-7.3-23.5-19.7-29.4c-1.6-0.8-3.1-2-4.6-3c-10.9-7.1-22.2-13.4-35.3-15.3
		c-3-0.4-6.2-1.3-9,0.7c-5.3,3.9-11.4,6.3-17.5,8.7c-25.8,10.1-40.9,33.4-36.8,59.6c1.5,9.8,5.4,18.7,13.3,25.3c1.2,1,2.3,1.6,4,1.3
		c8.6-1.6,14.7-10,13.7-18.7c-0.7-6.2-1.2-12.5-2.1-18.7c4.5,10.7,6,22,7.1,33.3c0.4-11.1,0.9-22.2,1.3-33.3
		c0.9,8.2,1,16.4,1.1,25.1c3.8-3.2,5.5-7,8-10.2c-0.8,4-2.7,7.4-5.2,10.5c-4.4,5.7-3.8,12.1-2.2,18.2c1.3,5.4,4.8,9.9,8.9,13.7
		c8.3,8,19.1,8.7,27.5,0.8c15.4-14.4,21.7-32.8,21.1-53.6c-0.2-7.6-2.6-14.8-6.1-21.6c1.7,1,2.4,2.6,3.2,4.2
		c4.3,8.1,5.9,16.8,5.7,25.9c-0.1,5.2-1.1,10.2-2.2,15.3c-0.2,1.1-1.5,3.1,1.3,3.3c3.7,0.2,7.6-2.2,9.2-5.6c0.3-0.7,0.4-1.6,1.5-1.9
		c0.4,2.9-0.9,5.7-0.9,9.4c8.6-12.5,6.2-24.9,2.8-37.4C494.5,565.1,495.9,573.1,496.2,581.5z M196.4,563.8c0.6,2.6,0.3,5.2-0.1,7.8
		c-1.6,11.2,2.2,20,11.3,26.6c4.4,3.2,5.7,3.2,9.5-0.9c8.2-8.7,11.4-19.4,10.8-31c-1.4-26.7-21.4-43.3-39.9-46.4
		c-10-1.6-16.9-7.8-20.1-17.6c-0.3-0.8,0-1.9-1.2-2.3c-1.3,1.6-2.5,3.3-3.9,4.8c-8.5,9-19.7,11.6-31.4,12.5c-2,0.2-3.6,0.6-5.3,1.8
		c-3.9,2.7-6.9,6.4-10.6,9.2c-4.8,3.6-8.3,8.2-10.4,13.8c-3.8,10.2-3.1,20.5-0.6,30.7c1.2,4.7,3.1,9.1,6.4,12.9
		c-0.3-9.2,0.7-17.9,6.5-25.4c-1.6,5.7-3.6,11.3-3.8,17.3c-0.2,5.9,0.1,11.7,4.3,16.5c-0.3-5.2-1-10.4,0.2-15.7
		c2.1,5,4.1,10,8.1,13.8c0.9,0.8,1.6,2.5,3,1.8c1.3-0.7,0.4-2.3,0.2-3.5c-1.2-7-2.1-14.1-1.6-21.2c0.4-5.6,1.2-11.1,4.7-16.3
		c0.1,2.2-0.8,3.7-1.1,5.4c-2.8,13.1-0.4,25.5,4.6,37.6c4.1,9.8,10,18.3,18.6,24.7c7.7,5.7,16.5,6.3,23.2,0.8
		c8.9-7.2,13.5-16.6,12.8-28.3c-0.1-2.3-0.9-3.8-3-4.9c-2.8-1.5-5-3.7-6.2-7.2c2.5,2.2,4.3,4.8,7.9,5.5c-1.2-6-1.2-11.6,0.2-18
		c0.9,5.9,0.7,11.2,2.6,17.1C193.3,577.9,194,570.8,196.4,563.8z M216.2,514.7c9.4,24.6,27.7,42,46.8,59.8
		c-1.3-5.3-2.4-9.8-3.6-14.2c1.4,1.7,2.3,3.6,3.2,5.5c4.1,8.6,9.5,16.2,18.4,20.1c12.4,5.5,25.5,6.8,39,4.9
		c15.7-2.3,27.3-11.1,37-23.1c4.2-5.3,8.3-10.7,12.1-16.4c-0.7,3.6-2.5,7-2.1,11.8c12.1-18.1,20.9-36.6,25.3-57.7
		c-5.3,3.4-8.7,7.8-11.9,12.4c-9.5,13.6-20.7,25.1-36.5,31.4c-1.7,0.7-3.3,1.8-3.7,4c2.2-0.2,3.9-1.6,6.1-1.1
		c-9,6.4-18.8,11.2-29.5,13.5c-12.8,2.8-24.9-0.7-36.8-5.5c0.6-1.1,2.5-0.6,2.2-2.1c-0.2-0.9-1.4-1-2.2-1.3
		c-4.8-1.4-9.5-2.9-14.3-4.3c0-0.2,0.1-0.4,0.1-0.6c1.9-0.1,3.8-0.3,5.7-0.4c0.2-0.4,0.3-0.8,0.5-1.2
		C249.6,544.3,231.5,531.8,216.2,514.7z M307.4,563c3.2-0.1,6.4-0.1,9.6-0.9c13.2-3.3,23-10.5,26.6-24.4c1.1-4.4-0.2-6.6-4.5-7.6
		c-9.6-2.2-19.1-2.4-28.2,2.1c-3.2,1.6-6.5,2-10.3,1c-8.8-2.5-17.5-1.3-25.8,2.4c-3.6,1.6-4.5,4-3.1,7.8c0.6,1.6,1.5,3.1,2.8,4.3
		C283.6,556.7,293.9,563.2,307.4,563z M98.5,546.3c0.4-1,0.8-1.8,1.1-2.7c2.6-7,6.5-13,12.8-17.4c2.9-2,5.1-5,7.7-7.7
		c-3.4-1.9-6.5-1.8-9.7-0.8c-12.1,4-20.4,12.2-26,23.6C89.2,543.1,94.3,543.2,98.5,546.3z M476.3,512.9c1.7,2.2,3.6,4.1,6.1,5.1
		c10.8,4.5,18.5,12,22.5,23.1c0.4,1,0.6,1.8,2.2,1.2c2.7-1.1,5.5-1.9,8-2.7C508.3,521.6,493.8,514.9,476.3,512.9z M93,336.9
		c-19.4,2.6-50.8,38.1-52.3,59c7.6-11.2,12.8-23.6,21.3-33.9C70.7,351.4,81,343.1,93,336.9z M87.4,354.6c-2.9,0.1-5,1.7-7,3.2
		c-14.3,10.7-24.7,24.4-31.1,41.1c-3,7.9-5.7,15.9-3.8,24.3c0.8-14,6.6-26.5,13.8-38.4C66.6,372.8,76.2,363,87.4,354.6z
		 M517.9,338.8c19.3,16.6,31.9,37.1,36.9,62.2C556.2,381.9,534.6,345.2,517.9,338.8z"/>
	<path d="M402.5,613c-5.7,2.2-75.1,3.1-85.5,1.3C320.3,611.7,393.9,610.5,402.5,613z"/>
	<path d="M359.4,624.7c-23.2,1.3-46.5,3.5-69.7-0.5C313,623,336.2,623,359.4,624.7z"/>
	<path d="M527.5,560.6c-4.5,0.5-9.1,1.1-13.6,1.6c-1.3,0.1-2.5,0.2-3.7-0.2c-0.8-0.3-1.6-0.6-1.4-1.6c0.2-0.8,0.9-0.9,1.6-0.9
		C516.1,559.2,521.7,559.4,527.5,560.6z"/>
	<path d="M312.1,436.3c7.3,0.1,14.6,0.8,21.7,2.7c4.3,1.2,8.4,3,11.9,5.9c5.3,4.2,6.6,8.3,4.7,14.8c-2.2,7.6-7.8,13.1-12,19.4
		c-5.9,9-14,15.3-23.5,20c-4,2-7.9,2.3-12.2,0.8c-15.7-5.4-27.9-15.5-38.2-28.2c-6.7-8.3-4.2-19.8,5.4-25.1
		C283.1,439.3,297.2,436.3,312.1,436.3z M321.2,442.8c-0.9,0-1.8,0-2.7,0c-0.8,0-1.7,0.1-1.9,1.1c-0.1,0.9,0.3,1.7,1.1,2
		c4,1.8,8,3.5,12.5,2.2c0.7-0.2,1.7-0.2,1.7-1.3c0-0.9-0.8-1.3-1.5-1.7C327.5,443.6,324.4,442.9,321.2,442.8z"/>
	<path d="M243.8,363.6c-3.7-5.4-8.6-8-19-9.8c6.2-0.3,10.9,0.8,15.2,3.7c11,7.3,15.4,18.3,17.2,30.8c1.4,9.9-0.3,19.3-4.7,28.3
		c9.1-8.4,12.1-19.3,12.3-31.2c1.5,6.9,0.5,11.3-6.3,29.4c11.2-3.8,22.4-7.2,34.2-7.9c-11.6,2.3-22.9,5.6-33.7,10.3
		c-13.6,5.9-26.9,12.3-37.1,23.6c-9.3,10.4-15,22.3-16.4,36.3c-0.1,1.1,0.1,2.3-1.2,3.3c-1.2-10.8,1.4-20.5,6.7-29.6
		c5.3-9,12.3-16.4,21.5-22.7c-10.1,1.9-18.3-0.5-25.2-6.8c-6.8-6.3-9.4-14.6-10.9-23.5c-1.1,5.2,0.6,10.2,1,15.2
		c-5-10.3-6.2-21-2.9-31.9c4.1-13.6,13.3-21.7,27.4-23.6c6.7-0.9,12.9,1.2,18.6,4.8c0.9,0.5,1.7,1.1,2.6,1.7
		C243.6,363.7,243.7,363.6,243.8,363.6z M241.1,379.4c-0.1-4.4-4-7.9-8.7-7.9c-4.3,0.1-7.9,3.9-7.8,8.3c0.1,4.4,4.1,8.2,8.6,8.1
		C237.8,387.8,241.1,384.3,241.1,379.4z M210.8,401.8c1.6-0.3,3.6,0.6,4.6-1.3c0.7-1.2,0.4-2.4-0.8-2.9c-2.5-1.1-5.1-1.2-7.5,0.2
		c-1.1,0.6-1.1,2.1-0.4,3.1C207.6,402.3,209.4,401.5,210.8,401.8z M211.5,407.2c-1-0.8-0.4-3.1-2.3-3.5c-1-0.2-1.5,0.9-1.5,1.8
		c0,1.9,1.3,2.4,2.8,2.8C211.1,408.5,211.6,408.3,211.5,407.2z"/>
	<path d="M329.2,372.4c1.1,9.4,2.6,18.7,8.3,26.8c-1.4-5.2-3.2-10.2-2.8-15.8c1.7,6.3,3.4,12.5,7.9,18.4c-5.7-15.1-5-29.2,2.5-42.6
		c4-7.1,10.1-11.6,19.5-11.8c-12.8,4.4-17.6,9.2-21,20.1c1.3-0.5,1.6-1.8,2.2-2.7c11.4-18.5,34.9-17.4,47.5-4.8
		c11.4,11.4,14.9,31.7,8.2,46.4c-4.1,9-11.3,13.8-20.6,16c-2.8,0.7-3-2.3-5.4-3c6.7-1.5,11.9-4.3,15.5-10.4c-2.2,0.6-3.4,2-4.8,2.9
		c-2.7,1.8-5.3,3.6-8.3,4.9c-2.2,1-4.3,1.3-6.6,0.3c-18.1-7.8-36.8-13.2-56.8-12c7.5-1.8,15-1.1,22.5-0.9
		C331.7,394.3,328.7,383.8,329.2,372.4z M374.7,382.4c4.7,0,8.5-3.9,8.5-8.5c-0.1-4.6-4.2-8.4-9.1-8.4c-4.3,0-8,4.1-7.9,8.7
		C366.3,378.6,370.2,382.4,374.7,382.4z M354.7,395.6c1.5-0.5,4.6,0.8,4.4-2.4c-0.2-2.8-3.1-2.4-5.2-2.5c-1.8,0-3.5,0.1-3.5,2.6
		C350.2,396.9,352.8,395.4,354.7,395.6z M390.3,415.3c5.2-2.1,8.1-6.4,8-11.9C395.6,407.5,393,411.3,390.3,415.3z M353.7,401.6
		c1.3,0.1,1.6-0.8,1.7-1.7c0.1-1.8-0.8-2.8-2.6-2.9c-0.7,0-1.5-0.1-1.4,0.9C351.5,399.5,352,401,353.7,401.6z"/>
	<path d="M336.8,425.1c-26.2-11.5-50.2-4.5-73.6,8.1c4.7-5.8,17.1-10.9,35-14.7c-5.4-0.2-10.4,1.6-16.2,2.7
		C297.2,412.5,323.9,414.5,336.8,425.1z"/>
	<path d="M261.4,343.1c-3.8-7.7-7.9-15.1-11.8-22.7c-12.7-24.3-40.9-29.4-62.5-9.9c-2.4,2.1-4.4,4.7-6.6,7c-0.1-0.1-0.3-0.3-0.3-0.4
		c8.7-15.4,33.6-28,54.3-15.6c6.3,3.8,11.4,8.8,14.9,15.4c3.9,7.4,8,14.7,10.8,22.6C260.7,340.7,261,341.9,261.4,343.1z"/>
	<path d="M333.3,341.2c1.1-6.4,3.2-12.6,5.9-18.4c4.3-9.2,9-18,17.7-24.1c15.4-10.8,35.1-8.2,48.8,6.3c0.2,0.2,0.2,0.6,0.7,1.7
		c-2.4-1.8-4.2-3.2-5.9-4.5c-19-14.1-41.4-9.7-53.8,10.5C341.2,321.7,336.8,331.2,333.3,341.2z"/>
	<path d="M333.2,409.5c5.3,0,10.4,1.3,15.4,2.6c14.4,3.6,27.7,9.4,38.6,19.9c4.6,4.5,7.8,9.8,8.2,16.5c-6.9-18.6-23-25.8-39.7-32.3
		C348.5,413.4,340.8,411.6,333.2,409.5z"/>
	<path d="M402.5,323.6c-12.7-14.8-27.9-20.3-46.7-13.6c2.7-4,11.7-6.9,18.7-5.9C387.1,306,396.4,312.6,402.5,323.6z"/>
	<path d="M249.9,424.7c-18.9,11.9-36.1,24.9-36.3,50.4c-1.7-3.8-1.6-7.7-0.8-11.6c2.3-11.9,9.3-20.7,18.4-28.2
		C236.9,430.8,242.9,426.9,249.9,424.7z"/>
	<path d="M187.3,334.5c7.3-15.7,28.6-29.1,42.9-23.1C211.2,311.2,198.1,320.6,187.3,334.5z"/>
	<path d="M280.7,278.5c-1.4-10.1,6-20.2,17.6-24.5C289.6,260.1,283.5,268.1,280.7,278.5z"/>
	<path d="M273.6,280.7c-2.7-11.4-0.1-21.6,6.8-30.8c-2,4.9-4,9.8-5.3,15C273.9,270.1,275,275.6,273.6,280.7z"/>
	<path d="M270.1,432.4c13-7.6,27.2-9.9,42.2-8.2C297.6,423.8,283.5,426.3,270.1,432.4z"/>
	<path d="M198.5,418c6.5,7.4,14.8,11.5,24.8,13.1C216.1,433.1,202.6,425.9,198.5,418z"/>
	<path d="M311.6,422.6c-3.6,0.6-7.1,0.7-10.7,0C304.4,422.6,308,422.6,311.6,422.6z"/>
	<path d="M414.7,549.7c-2.2-6.9-1.3-13.5,3.3-19.2c4.9-6.2,11.6-8.8,19.4-8.8C420.3,526.6,415.4,536,414.7,549.7z"/>
	<path d="M456.4,524.6c7.3,1.2,13.3,7.8,15.1,17.1C467.6,534.1,463.6,527.8,456.4,524.6z"/>
	<path d="M465.7,569.4c-1.6-4.7-4-9.1-6.8-13.9C463.1,559.3,465.4,564.2,465.7,569.4z"/>
	<path d="M163.8,526.5c-14.8,1.8-25.7,9.1-32.4,23C128.5,536.7,149.1,522.2,163.8,526.5z"/>
	<path d="M281.3,566.5c14.9,3.9,29.7,5.1,45.2-0.4C318.2,573.6,294.4,573.8,281.3,566.5z"/>
	<path d="M305.1,535.7c5.2-0.6,8.5,3.1,10.4,11.5C312.3,543.3,309.8,538.7,305.1,535.7z"/>
</g>
</svg>
