<?xml version="1.0" encoding="utf-8"?>
<!-- Generator: Adobe Illustrator 24.2.3, SVG Export Plug-In . SVG Version: 6.00 Build 0)  -->
<svg version="1.1" id="Layer_1" xmlns="http://www.w3.org/2000/svg" xmlns:xlink="http://www.w3.org/1999/xlink" x="0px" y="0px"
	 viewBox="0 0 595.3 841.9" style="enable-background:new 0 0 595.3 841.9; fill: #215342;" xml:space="preserve"
	 height="250" width="700" transform="translate(-265, -0)">
<g>
	<path d="M199.1,287.6c0.9,0.3,1.3,1.2,1.8,1.8c2.9,3.9,3.9,8.5,4.7,13.2c0,0.2,0,0.5,0,0.7c0,0.6,0.1,1.2,0.6,1.4
		c0.6,0.3,1-0.3,1.4-0.6c2.7-2.4,5.4-4.8,8.1-7.1c0.6-0.5,1.2-1.7,2.1-1c1.1,0.7,0.2,1.7-0.2,2.5c-0.7,1.6-1.9,2.9-2.8,4.4
		c-0.7,1.1-0.3,1.6,0.9,1.6c1,0,1.8-0.5,2.7-1c3.1-1.7,6.6-2.3,10.1-2.7c0.4,0,0.8,0,1.2,0.1c0.4,0.1,0.8,0.2,0.9,0.6
		c0.1,0.5-0.2,0.8-0.5,1c-0.5,0.4-1.1,0.7-1.6,1c-3.2,2.1-6,4.7-8.6,7.6c-0.4,0.5-1,0.9-0.8,1.6c0.3,0.9,1.1,0.7,1.8,0.7
		c1.6,0,3.1,0.4,4.6,1.1c2.8,1.3,5.7,1.3,8.7,0.6c2-0.5,4-1.3,5.9-2.1c14.4-6.5,29.4-8.3,45-7c5.3,0.5,10.6,1.6,15.9,2.2
		c5,0.6,10.1,0.4,15.1-0.4c18.4-2.6,36.3-1.3,53.7,5.9c0.8,0.3,1.6,0.6,2.5,0.9c0.6,0.2,1.3,0.3,1.7-0.3c0.5-0.6,0.1-1.2-0.2-1.8
		c-1.8-3-3.6-6-5.4-9c-0.5-0.8-1.5-1.5-0.7-2.5c0.9-1.1,2.1-0.5,3.1,0c1.3,0.6,2.6,1.3,4.2,2.1c-0.7-4.8-3.5-8.3-5.4-12.1
		c0.9-0.3,1.4,0.2,1.9,0.5c4.4,2.3,8,5.5,11,9.4c0.1,0.2,0.3,0.4,0.4,0.6c0.5,0.6,1,1.1,1.8,0.8c0.7-0.3,0.7-1,0.7-1.6
		c0.1-3,1.1-5.8,2.4-8.5c0.4-0.9,1-1.6,1.6-2.4c0.3-0.5,0.8-0.8,1.4-0.5c0.5,0.2,0.6,0.7,0.5,1.2c0,1-0.1,1.9-0.1,2.9
		c-0.1,2.8,0.6,5.4,1.6,7.9c0.3,0.8,0.6,1.5,1.6,1.5c0.9,0,1.1-0.8,1.5-1.4c3.7-6.6,6.8-13.6,9.3-20.8c6-17.4,12.4-34.6,20.4-51.2
		c13-27,29.9-51.3,51-72.7c6.8-6.9,14-13.4,21.7-19.3c14.2-10.9,28.5-21.7,43.3-31.8c3.8-2.6,7.8-5.1,11.7-7.5
		c3.1-1.9,6.3-3.5,9.7-4.8c0.7-0.2,1.3-0.5,2-0.7c3.9-1,5.8,0.2,6.6,4.1c0.6,2.7,0.7,5.4,0.8,8.1c0.1,12.3,0.2,24.6,0.4,36.9
		c0.3,20.3,0.8,40.6,1.2,60.9c0.1,7.9,0.2,15.8,0.3,23.7c0.1,9.9,0.2,19.8,0.2,29.7c0,7.2-0.5,14.4-2.1,21.4c-1.9,8-5,15.5-9.7,22.3
		c-2.4,3.5-4.1,7.2-4.5,11.5c-0.3,2.5-0.1,5,0.6,7.4c1.2,4.6,1.7,9.3,2,14c0.2,3.3,1,4.1,4.3,4.5c0.3,0,0.6,0,1,0.1
		c0.8,0.2,1.5,0.6,1.7,1.5c0.2,0.9-0.2,1.6-0.8,2.1c-0.7,0.6-1.6,0.7-2.4,0.9c-2.3,0.5-3.6,1.9-4.2,4.1c-0.2,1-0.4,2-0.6,3.1
		c-1.8,10.9-7.3,19.7-15.7,26.7c-2.9,2.4-6,4.5-9.1,6.7c-3.7,2.5-7,5.6-10.9,7.9c-1.3,0.8-1.5,1.5-0.6,3c0.6,1.1,0.4,1.5-0.6,2
		c-1.4,0.7-2.8,1.5-4,2.6c-1.4,1.3-1.2,2.3,0.6,3c0.6,0.2,1.2,0.4,1.8,0.6c0.8,0.3,1.6,0.6,1.6,1.6c0,0.8-0.7,1.2-1.4,1.5
		c-0.7,0.3-1.5,0.6-2.2,1c-3.8,2.4-6.9,5.7-9.5,9.4c-1.8,2.5-1.6,4,0.5,6.4c1.1,1.4,1.2,2-0.2,3.2c-2.1,1.9-2.9,4.3-3,7.1
		c0,1.4-0.1,2.7-0.1,4.1c0,2,0.2,2.3,2,3c0.8,0.3,1.7,0.5,2.5,0.9c1.3,0.6,1.3,1.7,0.1,2.3c-7.8,4.3-13.2,11-18.2,18.1
		c-2.4,3.4-2.4,4.4-0.1,7.8c0.5,0.7,1,1.5,1,2.4c0,1.5-1,2.2-2.4,1.6c-0.2-0.1-0.4-0.2-0.6-0.4c-2.9-1.9-6.1-1.1-8.2,2.1
		c-2.5,3.9-3,8.1-2.1,12.4c0.7,3.5,1.1,7,0.5,10.5c-0.6,4.2-2.5,7.9-5.1,11.2c-1.3,1.6-2.6,3.3-3.5,5.1c-1.9,3.8-1.4,6.8,1.7,9.8
		c1.7,1.6,3.6,2.9,5.6,4.1c2.4,1.3,4.8,2.5,7.2,3.9c1.5,0.9,3.1,1.7,4.5,2.7c4.4,3.1,5.1,6.4,2.7,11.2c-1.1,2.1-2.4,3.9-3.9,5.7
		c-3,3.6-6.2,6.9-9.4,10.3c-2,2.1-3.9,4.2-5.8,6.4c-0.7,0.8-1.4,1.8-2,2.7c-1,1.6-0.8,3.2,0.5,4.6c0.8,0.8,1.7,1.5,2.5,2.2
		c1.9,1.7,2.2,3.3,1.1,5.6c-0.9,1.7-1.9,3.3-2.8,5c-1,1.8-1.8,3.5-2.3,5.5c-0.7,2.7,0,4.9,2,6.7c1.4,1.3,3.1,2.2,4.9,3
		c1.5,0.6,3.1,1.3,4.6,2.1c2.5,1.4,3,2.7,2.1,5.4c-0.4,1.4-1,2.7-1.6,4c-0.6,1.3-1.2,2.6-1.5,4c-0.8,3.2-0.1,5.2,2.7,6.9
		c1.8,1.1,3.7,1.8,5.7,2.4c4.9,1.6,9.9,2.3,15,3.3c1.6,0.3,3.2,0.6,4.7,1.1c3.7,1.4,4.4,4,2,7c-0.5,0.6-1,1.2-1.5,1.9
		c-1.5,2.3-1.9,4.7-1,7.3c0.5,1.6,1.3,3.1,2.1,4.5c9.6,16.4,4.4,37.9-11.3,49c-4.3,3-4.2,3-3.1,8c0.7,3.3,1.1,6.6,1.3,10
		c0.1,0.6,0,1.3-0.1,1.9c-0.4,1.6-2,2.2-3.4,1.4c-1.1-0.6-1.9-1.5-2.7-2.4c-2.2-2.3-4-5-5.7-7.7c-1.4-2.2-3.1-3.2-5.7-3.3
		c-6.5-0.3-12-2.9-16.8-7.3c-3.5-3.2-4.7-3.2-8.2,0.1c-3.2,3-6,6.2-8.6,9.7c-9.1,12.3-21.6,17.7-36.6,18.1c-1,0-1.9,0-2.9,0
		c-2.5,0.1-3.1,0.4-3.7,2.9c-1.1,4-2.5,7.9-4,11.8c-0.3,0.7-0.5,1.4-0.9,1.9c-1.2,1.7-3.1,1.6-3.9-0.3c-1.5-3.2-2.4-6.6-2.8-10.1
		c-0.1-1.3-0.2-2.6-0.2-3.8c0-3.1-1.2-5.6-3.5-7.6c-1.4-1.3-3-2.5-4.2-4c-0.7-0.9-1.4-0.9-2.1,0c-2.1,2.5-4.3,5-5.6,8.1
		c-4.5,10.2-12.2,16.3-22.9,19.1c-0.9,0.2-1.9,0.5-2.8,0.8c-2.5,0.9-3.9,2.7-3.9,5.4c0.1,3.6-0.9,6.9-2.3,10.2
		c-0.1,0.3-0.2,0.6-0.4,0.9c-1,1.8-2.6,1.9-3.6,0.1c-0.6-1-1-2.2-1.5-3.3c-1.1-2.9-1.8-6-2.2-9.1c-0.4-2.7-1.6-4.4-4.3-5.5
		c-9.8-4.1-15.4-11.6-17-22.1c-0.2-1.5-0.4-3-0.5-4.5c-0.2-3.5-1.4-5-4.9-5.9c-7-1.8-26.4,3.5-32-1.2c-5.4-4.6,4.6-16.2,1-30.4
		c-1.9-7.4-11.3-13.5-28.5-26.1c-4.9-3.6-8.6-6.1-9.6-6.8c-15.6-10.4-27.2-18.2-42.8-22.8c-10.8-3.2-14.3-2.2-21.4-6.8
		c-6-3.9-7-6.9-13.5-9.6c-7.4-3-13.9-2.3-14.3-4.6c-0.3-2.1,4.3-3.4,5.4-7.4c0.1-0.6,0.5-2.5,2-4.3c0.2-0.2,0.4-0.5,0.6-0.7
		c4.6-4.2,5.4-9.5,4.8-15.4c-1.2-11.9-6-22.3-13.6-31.4c-3-3.6-6.2-7.1-9.5-10.5c-1.4-1.4-2.8-2.9-4-4.4c-2.8-3.6-2.9-7.3-0.3-11.1
		c1.7-2.5,3.8-4.5,5.7-6.8c1.8-2.2,3.4-4.5,4.3-7.1c1.5-4.3,0.9-8.3-1.9-12c-1-1.3-2.3-2.5-3.6-3.5c-1.3-1-2.6-1.8-4-2.6
		c-2.3-1.3-4.5-2.8-6.3-4.8c-2.8-3-4.6-6.6-4.6-10.8c0-3.7-1.7-5.8-5.2-6.8c-3.1-0.9-5.9-2.3-8.8-3.8c-0.6-0.3-1.3-0.7-1.9-1.1
		c-0.7-0.5-1.6-1-1.5-2c0.1-1,1-1.1,1.8-1.4c0.8-0.3,1.6-0.6,2.4-1.1c1.7-0.9,1.9-1.4,0.9-3c-1.9-3.1-4.3-5.5-7.7-7
		c-1.8-0.8-3.5-1.6-5.4-2c-0.6-0.2-1.3-0.3-1.3-1.2c0-0.8,0.6-1,1.3-1.2c0.7-0.2,1.9,0.1,2.1-0.8c0.2-1-0.9-1.4-1.6-1.9
		c-3.4-2.8-6.1-6.1-8.1-10c-0.8-1.6-1.7-3.1-3.4-3.9c-0.6-0.3-1.3-0.8-1.2-1.6c0.1-0.9,1-1,1.6-1.2c0.8-0.4,2.3,0,2.4-1.2
		c0.1-1.3-1.5-1.5-2.4-2.1c-0.4-0.3-0.9-0.4-1.3-0.6c-0.5-0.2-0.9-0.4-0.8-1c0-0.7,0.5-1,1.1-1.1c0.9-0.1,1.8-0.1,2.6-0.3
		c1.3-0.3,1.6-0.9,0.9-2.1c-0.5-0.8-1.1-1.5-1.8-2.3c-4.2-4.7-9-8.7-14.6-11.6c-15.8-8.2-23.9-21.6-26.6-38.7
		c-0.9-5.7-1.3-11.4-2.3-17.1c-1.2-6.8-3.7-13-8-18.5c-7.5-9.5-12.1-20.4-15.5-31.9c-5.4-18.2-7.3-36.8-6.9-55.7
		c0.2-11.4,1.2-22.8,1.4-34.3c0.3-14.2,0.1-28.5-0.2-42.7c-0.2-9.1-0.2-18.2-0.1-27.3c0-4.8,0.5-9.6,1.4-14.3
		c0.2-1.1,0.4-2.2,1.1-3.2c1.3-2,3.5-2.4,5.3-0.9c0.3,0.2,0.6,0.5,0.9,0.8c9.8,11.6,21.8,20.6,34.5,28.8
		c10.7,6.9,21.7,13.2,32.7,19.6c9.7,5.8,19.2,11.9,27.7,19.3c11.5,10.1,21,21.9,29.5,34.6c12.4,18.6,23.3,38,33.4,57.9
		c3.2,6.3,6.3,12.6,9.4,18.9c0.9,1.8,1.8,3.6,2.4,5.5c0.3,0.8,0.6,1.8,1.8,1.6c1-0.1,1.1-1.1,1.2-1.8c0.7-3.1,1-0.6,0.9-7.3
		C199.5,293.2,199.4,290.6,199.1,287.6z M420.4,475.7c-1.7,1.6-3,3.5-4.4,5.3c-5.7,7.4-13.2,11-22.6,10.7c-2.3-0.1-4.6-0.5-6.8-1.2
		c-1.5-0.5-2.2,0.2-1.9,1.6c0.5,1.9,1.2,3.5,3.5,4c11,2.6,20.4-0.1,28-8.5C419.2,484.3,420.7,480.2,420.4,475.7
		c0.8,0.2,0.7,1.8,1.8,1.4c0.9-0.3,1.1-1.5,1.4-2.4c0.2-0.9,0.3-1.7,0.2-2.6c-0.3-2.7-1.1-5.3-2.6-7.6c-0.3-0.5-0.6-1.2-1.5-1.3
		c0.2,1.2,0.5,2.3,0.7,3.5C420.9,469.7,421.4,472.7,420.4,475.7z M266.3,638.3c-1.5-0.9-2.7-1-3.9-1.3c-2-0.5-4.1-0.9-6.1-1.4
		c-0.9-0.2-1.3-0.9-1.2-1.8c0.1-0.9,0.1-1.8,1.1-2.2c0.9-0.4,1.3,0.4,1.8,0.9c0.7,0.8,1.5,1.4,2.7,0.9c2.4-1,5-1.1,7.5-1.3
		c2.3-0.2,4.7-0.4,6.6-1.9c1.5-1.2,2.8-1.1,4.4-0.4c3,1.3,5.9,1,8.8-0.5c2-1,3.8-2.4,5.5-3.9c0.5-0.5,1.3-1,0.7-1.8
		c-0.7-0.9-1.2,0.1-1.7,0.5c-1.3,1-1.4,1.1-2.4-0.4c-1.6-2.3-3.8-3.6-6.5-4.2c-1.3-0.3-2.7-0.5-4-0.4c-2.4,0.1-4.6-0.5-6.7-1.5
		c-1.5-0.7-3.1-1.4-4.7-1.6c-1.2-0.1-2-0.5-2.2-1.8c-0.1-0.9-0.7-1.4-1.6-1.6c-2.7-0.6-4.7-2.3-6.7-4c-1.8-1.6-3.6-3.2-5.8-4.2
		c-0.6-0.3-1-0.7-1.2-1.4c-0.7-2.3-1.6-4.5-2.2-6.8c-0.7-2.6-1.5-5.2-2.6-7.7c-1-2.3-0.9-2.8,1.2-4.1c1.1-0.7,1.4-1.5,1.2-2.8
		c-0.4-2.6,0-5.1,0.8-7.6c0.8-2.4,1.6-4.9,2.4-7.3c2.5-7.1,7.2-12.4,14.1-15.5c1.4-0.6,2.4-1.4,2.8-3c0.8-2.9,3-4.2,5.9-4.5
		c1-0.1,2.1,0,3.1,0c0.6,0,1.4,0,1.4-0.6c0.1-1.4,1.8-2.3,1.2-3.9c-0.3-0.9,0.2-1.5,1.3-1.4c2,0.1,3.5-0.9,5-2.1
		c0.9-0.7,1.7-1.4,2.7-2c2.2-1.4,4.5-1.8,6.5,0.4c0.2,0.2,0.4,0.3,0.6,0.4c1.4,0.8,2.2,0.7,3-0.7c0.4-0.7,0.7-1.5,1.2-2.1
		c1.1-1.3,2.6-1,3.1,0.6c0.2,0.5,0.2,1.1,0.4,1.6c0.6,1.9,1.1,2.1,2.6,0.8c0.7-0.6,1.3-1.2,1.9-1.8c0.4-0.4,0.8-0.8,1.4-0.4
		c0,0.2,0.1,0.4,0.1,0.5c-0.4,0.6-0.8,1.2-1.2,1.8c-1.1,1.5-1,1.9,0.7,2.6c1.7,0.7,3.6,0.8,5.4,0.9c1.8,0.1,3.3,0.7,4.2,2.4
		c1.1,2.2,2.9,2.8,5.1,2.9c2,0.1,4,0.3,6,0.5c3,0.2,5.7,1.4,8.1,3.3c0.7,0.6,1,1,0.6,2c-0.8,2-0.5,2.7,1.3,3.7
		c4.6,2.7,7.3,6.9,9,11.7c0.8,2.1,1.3,4.3,2,6.4c2,6.6,2.8,13.2,2.1,20.1c-0.6,5-3.2,8.8-6,12.6c-0.5,0.6-1.2,1.1-1.9,1.4
		c-2.7,1-4.8,2.9-6.3,5.3c-0.8,1.2-1.8,2-3.3,2.2c-3.3,0.6-6.3,1.9-9.2,3.4c-3.3,1.7-6.4,3.5-9.9,4.9c-0.4,0.1-0.7,0.3-1.1,0.6
		c-1.4,1.1-1.4,2.8,0.1,3.7c0.5,0.3,1.2,0.6,1.8,0.7c2.3,0.6,4.6,1.2,7,1.6c7.6,1.2,15.3,0.8,23,1c5,0.1,10-1,15.1-1.1
		c0.5,0,1.1,0.2,1.5-0.4c-2.2-1.3-4.4-2.5-6.5-3.8c-3-1.7-6-3.3-9.5-3.7c-0.3,0-0.6-0.1-0.9-0.2c-0.8-0.3-1.1-0.9-0.8-1.7
		c0.3-0.8,0.9-0.8,1.6-0.6c0.4,0.1,0.7,0.3,1.1,0.5c3.1,1.4,6.3,2.8,9.4,4.2c3.7,1.7,7.5,3.3,10.8,5.7c2.3,1.7,4.4,1.6,6.9,0.3
		c6-3.3,10.4-8.1,14.4-13.5c1.2-1.6,0.9-2.5-0.9-3.5c-1.1-0.6-2.3-1.1-3.5-1.6c-2.4-0.9-4.8-1.8-7.2-2.7c-0.8-0.3-1.7-0.5-2.3-1.2
		c0.4-0.3,0.8-0.3,1.2-0.2c3.7,0.8,7.4,1.3,10.7,3.2c3,1.7,5,0.9,6.1-2.4c0.7-2.4,1.3-4.8,1.7-7.2c0.3-1.8-0.4-2.7-2-3.3
		c-0.5-0.2-1.1-0.3-1.6-0.4c-3.9-0.7-7.9-1.3-11.8-2c-0.5-0.1-1.2,0-1.3-0.7c0.4-0.4,0.9-0.3,1.4-0.2c3.8,0.3,7.6,0.7,11.4,1.3
		c0.9,0.2,1.9,0.4,2.8,0.4c0.7,0.1,1.4-0.1,1.7-0.9c0.9-2.3-0.4-4.2-2.8-4.2c-4.1,0-8.2-0.1-12.2,0.5c-0.6,0.1-1.3,0.1-1.9,0.1
		c-0.6,0-1.1-0.3-1.2-0.9c-0.1-0.7,0.5-1,1.1-1c0.9,0,1.8,0,2.6-0.1c3.8-0.1,7.5-0.2,11.3-0.4c1.9-0.1,2.3-0.7,1.9-2.5
		c-0.5-2-1.1-4-1.6-6c-0.7-2.6-2.2-3.6-5-3.3c-2.6,0.2-5.3,0.5-7.9,0.8c-3.3,0.4-6.5,0.9-9.6,2.1c-0.5,0.2-0.9,0.5-1.7,0.3
		c1.3-1.4,2.7-2,4.3-2.4c4.6-1.4,9.4-1.8,14.2-2.4c3-0.3,3.3-0.8,2.1-3.6c-0.6-1.3-1.2-2.6-1.8-3.9c-1.2-2.4-2.4-4.9-3.6-7.3
		c-0.6-1.3-1.2-2.6-1.3-4.2c1.1,0.6,1.5,1.5,2,2.3c0.9,1.4,1.9,2.4,3.7,1.9c0.9-0.2,1.3,0.3,1.7,1c0.5,1,0.7,2.1,0.9,3.2
		c0.3,1.4,0.7,2.8,1.2,4.1c1.4,3.2,3.9,5,7.5,5.1c1.5,0.1,3,0,4.6,0c4.2,0,8.5,0,12.7,0c-2.9,1-5.9,1.3-8.9,1.5
		c-2.1,0.1-4.2,0.2-6.2,0.6c-2.4,0.4-3.1,1.4-2.7,3.9c0.3,1.7,0.7,3.3,1.1,4.9c0.8,3,1.5,3.4,4.6,3.3c8.1-0.5,16.1-1.7,24.1-2.7
		c5-0.6,9.9-1.6,14.7-3.3c1.4-0.5,1.4-0.6,0.6-2c-0.8-1.3-0.8-1.3,0.6-2.2c1.4-0.8,2.8-1.6,4.2-2.4c0.9-0.6,2-0.9,2.6-1.9
		c-0.4-0.9-1.6-0.7-1.8-1.8c3.8-1.3,7.1-3.5,10.5-5.4c0.6-0.3,1.1-0.6,1.6-1.1c0.9-1,0.5-2.1-0.8-2.3c-0.5-0.1-1.1,0-1.7,0
		c-1.1,0-2.1,0-2.9-0.9c0.7-0.7,1.6-0.7,2.4-0.9c3.4-1,6.2-2.8,8.4-5.7c0.4-0.5,0.9-0.9,1-1.6c0.1-0.8-0.5-1.4-1.3-1.2
		c-0.4,0.1-0.8,0.4-1.2,0.7c-1.4,1.1-3,1.8-4.6,2.6c-0.5,0.3-1.1,0.3-1.5-0.3c-0.3-0.5-0.1-0.9,0.3-1.3c0.2-0.2,0.5-0.4,0.7-0.6
		c2.1-2.2,4.2-4.4,5.9-6.9c2-3,2.2-6.1,0.5-9.3c-0.8-1.4-1.6-2.8-2.5-4.1c-4.1-6.7-6-13.9-5.1-21.7c0.4-3.7,1.2-7.4,1.3-11.2
		c0-2.6,0-5.3-0.9-7.8c-0.6-1.6-1.5-3.1-3.4-3.7c-0.3,1.5,1.4,2.5,0.5,4c-0.3-0.2-0.6-0.4-0.9-0.5c-1.7-1.1-3.3-2.3-5-3.3
		c-1-0.6-2.1-0.4-2.6,0.4c-0.5,1,0.2,1.5,0.8,2c1.2,1.1,2.4,2.1,3.4,3.4c1.2,1.7,1,2.6-0.7,3.7c-0.7,0.4-1.7,0.5-1.8,1.5
		c0.5,0.6,1.2,0.6,1.8,0.7c0.6,0.1,1.3,0.2,1.4,1c0.1,0.8-0.4,1.1-1,1.5c-1.2,0.7-2.3,1.4-3.5,2.1c-0.7,0.4-1.1,1-0.4,1.7
		c1,1.1,0.6,1.9-0.3,2.8c-2.3,2.1-4.3,4.5-6.8,6.4c-0.3,0.3-0.6,0.6-0.3,1.1c0.4,0,0.9,0.1,1.4,0.1c0.5,0.1,1.2,0.1,1.3,0.8
		c0.2,0.7-0.4,1-0.8,1.3c-2.1,1.7-4.2,3.5-6.3,5.2c-7.4,6.1-15.9,10.1-25.1,12.6c-8.6,2.3-17,2.6-25.4-0.9
		c-7.7-3.2-15.1-7-22.1-11.5c-4.3-2.7-7.9-6.2-10.5-10.6c-1-1.7-2.2-3.3-3.5-4.9c-2.5-3.2-5.7-5.4-9.7-6.2c-0.3-0.1-0.6-0.2-0.9-0.2
		c-0.4-0.1-0.8-0.3-0.9-0.7c-0.1-0.6,0.3-0.9,0.7-1.1c0.2-0.1,0.4-0.2,0.6-0.3c0.4-0.2,0.9-0.5,0.7-1.1c-0.2-0.7-0.8-0.7-1.4-0.7
		c-0.7,0.1-1.4,0.3-2.1,0.4c-0.5,0.1-1,0.1-1.2-0.4c0.2-0.6,0.8-0.7,1.2-1c0.4-0.3,1.1-0.5,1-1.2c-0.1-0.8-0.8-0.9-1.4-1.1
		c-1.1-0.3-2.2-0.6-3.2-0.9c-1.2-0.4-1.2-1-0.3-2c0.6-0.6,1.7-0.6,1.9-1.7c-0.4-0.3-0.8-0.1-1.1,0c-1.2,0.4-2.4,0.9-3.6,1.3
		c-0.5,0.2-1.1,0.3-1.6-0.1c-1.1-0.9-1.3-3.1-0.3-4.1c0.4-0.4,0.9-0.6,1.3-1c0.9-0.8,0.9-1.6-0.2-2.3c-0.8-0.5-1.6-0.7-2.5-0.3
		c-0.7,0.3-1.3,0.6-1.9,1c-1.4,0.8-2.8,1.6-4,2.6c-0.4,0.4-0.9,0.3-1.3-0.1c-0.4-0.5-0.2-0.9,0.1-1.3c0.4-0.4,0.9-0.7,1.3-1
		c1.3-1,1.3-1,0.3-2.1c-1.5-1.9-1.4-2.6,0.8-3.9c2.7-1.5,5.6-2.2,8.6-2.8c0.5-0.1,1.2,0.1,1.3-0.8c-3.5-0.7-6.8,0-10,1.6
		c-2.3,1.2-4.3,2.7-6.4,4.2c-0.7,0.5-1.2,1.1-2.1,1.2c-0.3-0.8,0.2-1.2,0.5-1.7c0.4-0.7,0.8-1.4,0.1-2.2c-0.8-0.8-1.6-0.3-2.4,0.2
		c-0.3,0.2-0.6,0.5-1,0.7c-0.4,0.2-0.8,0.3-1.1,0.1c-0.4-0.3-0.2-0.7-0.1-1.1c0.1-0.3,0.3-0.6,0.4-0.9c0.2-0.6,0.2-1.1-0.3-1.5
		c-0.5-0.4-1.1-0.4-1.6-0.1c-0.5,0.3-0.9,0.7-1.3,1c-1.4,1.5-2.3,3.2-2.8,5.2c-0.2,0.7-0.3,1.4-0.7,2c-0.6,1-2.2,1.5-3.4,1.2
		c-1.2-0.3-1.3-1.2-1.3-2.2c-0.1-1.2-0.2-2.4-0.3-3.6c-0.1-0.6-0.3-1.1-0.9-1.2c-0.6-0.1-1.1,0.1-1.5,0.6c-0.3,0.5-0.6,0.9-0.9,1.4
		c-1.3,2.3-2,4.9-2.6,7.4c-0.8,3.7-1.6,4-4.7,2.1c-2.7-1.8-5-1.6-7.4,0.6c-0.5,0.4-0.9,0.9-1.4,1.3c-1.1,0.9-2.4,1.5-3.9,1.6
		c-3.1,0.2-3.1,0.2-3.7,3.1c-0.8,3.6-2.9,5.5-6.5,6.1c-1.2,0.2-2.4,0.2-3.6,0.3c-1.3,0.1-2.6,0.5-3.3,1.7c-1.7,2.8-4.1,4.8-6.6,6.9
		c-1.7,1.4-3.4,2.9-4.7,4.7c-1.9,2.6-3.9,5.1-5.8,7.6c-1.7,2.2-3.5,4.4-4.9,6.8c-4.2,7.6-10.7,12.8-18.3,16.7
		c-4.1,2.1-8.4,2.9-13,2.3c-4-0.6-7.7-2.1-11.2-4.1c-0.4-0.2-1.1-0.3-1.1-1.2c1.5-0.5,3.2,0.4,5.2-0.5c-2.7-1.4-5.1-2.6-7.8-4
		c1.1-0.5,1.8-0.5,2.5-0.5c0.6,0,1.3,0.1,1.9,0.1c0.5,0,0.9-0.3,1-0.9c0.1-0.4-0.1-0.8-0.4-1c-0.3-0.2-0.6-0.5-1-0.7
		c-3.9-2.3-6.9-5.6-10-8.9c-2.7-2.8-3.6-6.2-2.3-10c0.3-0.8,0.3-1.5-0.2-2.2c-2-3-2.6-6.5-2.9-10c-0.3-3.3-0.5-6.7-0.9-10
		c-0.6-5.4-2.8-9.8-8.1-12.1c-0.2-0.1-0.4-0.3-0.7-0.5c1.6-0.8,3-1.4,4.3-2.1c2.8-1.4,4.9-3.2,5.7-6.4c0.1-0.5,0.3-1.1,0.9-1.3
		c1.4-0.5,2-1.8,2.7-2.9c2.8-4.6,5.9-8.9,9.8-12.7c7.1-6.7,15.4-9.8,25-8.1c13.1,2.2,21.2,10.3,25.1,22.9c0.6,2,1.1,4,1.7,6
		c0.3,0.9,0.5,1.9,1.7,2.4c-0.1-2.4-0.9-4.5-1.4-6.6c-1.3-5.5-3-10.8-5.8-15.7c-3.6-6.2-8.7-10.6-15.7-12.4
		c-2.4-0.6-4.9-0.9-7.4-0.9c-9.5-0.2-17.8,2.7-24.6,9.4c-3.4,3.3-6,7.3-7.9,11.6c-0.4,0.9-0.8,1.7-1.3,2.6c-0.5,0.8-0.8,1.7-1.8,2.7
		c0.2-0.7,0.2-1,0.4-1.3c1-2.6,1.6-5.3,1-8.2c-0.3-1.5-0.1-3.2,0.1-4.8c0.6-4.1,2.4-7.8,4-11.5c1.3-3,3.2-5.5,5.7-7.6
		c0.9-0.8,1.8-1.6,2.7-2.4c0.4-0.3,0.9-0.6,0.9-1.2c-6.8,0.4-16.6,7.4-17.5,13.2c1.8-0.9,3.5-1.8,5.2-2.7c-1.3,3-2.8,5.7-3.8,8.7
		c-1.2,3.5-2.4,6.9-3.6,10.4c-0.9,2.7-1.9,5.4-3.2,8c-1.2,2.2-2.7,4.2-4.8,5.6c-1.4,1-2.1,0.7-2.7-0.9c-0.1-0.3-0.2-0.6-0.3-0.9
		c-1.5-8.5-2.1-17-0.8-25.5c1.3-8.3,3.8-16.3,7.2-24c0.4-0.9,0.9-1.9,1.1-2.9c0.4-1.6,0.2-2.1-1.2-3c-1.9-1.2-1.9-1.3-1-3.4
		c0.1-0.2,0.2-0.4,0.3-0.6c0.3-0.6,0.6-1.2-0.1-1.7c-0.9-0.6-1.3,0.2-1.8,0.7c-0.5,0.4-0.4,1.5-1.5,1.2c-0.3-0.5-0.2-1.1-0.2-1.6
		c0-1.6,0.3-3.2,0.5-4.8c0.4-2.6,0.6-3.6-2.4-4.9c-2.4-1.1-3.6-2.8-1.9-5.6c0.1-0.1-0.1-0.3-0.1-0.4c-9,6.4-14,27.2-12.5,34.8
		c0.6,0,0.7-0.6,1-0.9c0.6-0.7,1-1.4,1.6-2.1c0.5-0.5,1.1-1.1,1.9-0.6c0.8,0.5,0.6,1.2,0.3,1.9c-0.1,0.3-0.3,0.6-0.4,0.9
		c-1,2.4-1.9,4.7-2.5,7.2c-0.5,2-1,4-0.5,6.4c1.8-2.5,2.7-5.1,4.7-7.5c0,2.7-0.9,4.8-1.6,6.8c-2.4,6.6-4,13.3-4.4,20.3
		c-0.6,8.9,1.1,17.4,4.8,25.4c1.8,3.9,2.6,8,2,12.4c-1.6,12.2-0.6,24.1,3.3,35.7c2,5.9,3.5,11.9,4.6,18.1c0.7,3.9,1.7,7.8,3.2,11.5
		c2.2,5.4,5.7,9.8,10.8,12.7c0.4,0.3,1.1,0.4,1.1,1.2c-1.9,0.7-3.6-1.5-5.6-0.6c0.4,0.9,1,1.3,1.7,1.6c3.3,1.5,6.7,2.9,10.3,3.8
		c5.1,1.2,10.2,1.8,15.5,1.4c2-0.2,2.4-0.5,3-2.5c0.1-0.3,0.1-0.6,0.6-0.7c0.4,0.7,0.7,1.4,1.1,2c0.6,1,1.4,1.5,2.5,1.5
		c1.2-0.1,1.8-0.9,2.2-1.9c0.7-1.8,1.3-3.6,2-5.4c3.6-9.1,8.3-17.6,11.7-26.8c0.4-1.2,1.2-2.1,2.8-2.7c-1,3.5-1.9,6.7-2.8,9.9
		c-1.4,5.5-3.2,10.9-5.8,16c-1.5,2.8-2.5,5.9-3.2,9c-0.7,3.1,0.1,4.2,3.3,4.2c2.2,0,4.4-0.1,6.7,0.1c-0.4,0.5-0.8,0.4-1.2,0.4
		c-2.4,0.3-4.8,0.3-7.2,0.4c-2,0.1-2.7,0.8-2.8,2.8c0,1-0.1,1.9,0,2.9c0,1.8,0.7,2.5,2.5,2.5c1.2,0,2.4-0.2,3.6-0.3
		c1.1-0.1,2.2-0.3,3.7-0.1c-1,0.8-1.8,0.8-2.6,0.9c-1.5,0.2-3,0.4-4.5,0.9c-1.7,0.6-2.3,1.5-2.2,3.3c0.1,1,0.3,2.1,0.6,3.1
		c0.8,3.4,1.7,3.9,4.8,2.4c1.9-0.9,3.8-1.6,5.9-1.8c0.5,0,1.1-0.3,1.5,0.5c-0.7,0.3-1.3,0.6-2,0.8c-1.8,0.5-3.5,1-5.3,1.5
		c-2.5,0.7-3,1.5-2.2,4c0.5,1.9,1.6,3.5,2.7,5c1.4,1.8,2.2,2.1,4.3,1.4c2.9-1,5.7-2.2,8.5-3.3c0.8-0.3,1.6-0.7,2.5-0.9
		c0.8-0.2,1.5-0.1,1.7,0.8c0.2,0.8-0.3,1.3-1,1.4c-3.4,0.3-6.2,2.6-9.7,2.6c-1.9,0-2.5,1.2-1.8,2.9c1,2.7,3.8,3.9,6.5,2.5
		c1.3-0.7,2.6-1.6,3.9-2.4c3.6-2.4,7.4-4.4,11.4-6.2c0.8-0.3,1.6-0.7,2.1,0.3c0.5,1.1-0.4,1.4-1.1,1.7c-4.9,2.6-9.7,5.2-14.6,7.8
		c-0.4,0.2-0.7,0.4-1,0.6c-0.6,0.5-0.6,1.1,0,1.6c0.3,0.3,0.6,0.5,1,0.7C243.7,638.8,254.4,640.5,266.3,638.3z M369.5,434.4
		c0.5-0.6,1.1-1.2,1.6-1.8c2.3-2.7,4.5-5.4,6.8-8.1c0.5-0.5,1-1,1.5-1.5c0.3-0.2,0.8-0.5,1,0c0.7,1.7,1.3,0.7,2.1,0.1
		c3.5-3.3,7.7-5.4,12.6-5.9c1.4-0.1,2.8-0.6,4.1-1.1c-0.2-0.3-0.4-0.6-0.7-0.6c-3.2-0.7-6.4-1.5-9.7-1.2c-1.6,0.2-3.2,0.3-4.5-1.1
		c1.1-1.6,2.6-2.4,4.2-3.1c1.2-0.5,2.4-0.9,3.6-1.4c0.4-0.1,0.9-0.5,0.7-0.8c-1.1-1.3,0.4-1.7,1.1-2.5c-3.6-1.2-7-2.3-10.6-3.6
		c3-1.5,6-0.3,8.9-1.7c-3.9-2.9-8.7-2.8-12.7-5c0.9-0.9,1.8-1,2.7-1.1c1.5-0.3,3-0.1,4.5,0.1c0.6,0.1,1.4,0.2,1.7-0.5
		c0.3-0.8-0.3-1.2-0.8-1.5c-4-2.3-8-4.4-12.5-5.2c-1.2-0.2-2.4-0.4-3.5-0.7c-1.3-0.4-1.4-1.2-0.3-2c0.4-0.3,0.9-0.6,1.4-0.9
		c2.3-1.2,4.5-2.4,6.8-3.6c0.4-0.2,1.2-0.3,1-1.3c-1.2,0-2.4,0-3.5,0c-5.2,0.1-9.7,1.9-13.2,5.8c-0.5,0.6-1.1,1.2-1.7,1.7
		c-0.7,0.5-1.4,1.1-2.5,0.8c-0.2-1.4,0.3-2.7,1-3.9c0.8-1.5,1.7-2.9,2.6-4.3c3.9-6,9-11,14.2-15.9c0.6-0.5,1.2-1.1,1.7-1.7
		c0.4-0.4,0.7-1,0.3-1.5c-0.3-0.4-0.8-0.4-1.3-0.3c-1.5,0.5-3,0.5-4.5,0.7c-1.6,0.3-3.2,0.5-4.7,0.7c-0.8,0.1-1.7,0.2-2.1-0.7
		c-0.5-0.9-0.2-1.7,0.5-2.4c0.3-0.3,0.6-0.6,0.8-0.9c2.1-2.5,4-5,5.5-7.8c1.2-2.3,2.1-4.7,2.6-7.2c1.1-6.1-2.9-11.2-9-11.7
		c-3.5-0.3-6.8,0.5-9.9,2.3c-2,1.2-3.9,2.6-5.5,4.2c-0.5,0.5-1.1,1-1.9,0.5c-0.7-0.5-0.6-1.3-0.3-2c0.1-0.2,0.2-0.4,0.3-0.7
		c1.9-4,4.3-7.6,7.4-10.9c0.5-0.6,1.3-1,1.5-2c-2.5,0.3-4.8,0.6-7.1,1c-7,0.9-14,1.7-20.8,3.4c-8.8,2.1-16.8,5.7-23.5,11.8
		c-0.2,0.2-0.5,0.5-0.7,0.6c-1.1,0.6-2.1,0-2.3-1.2c-0.1-0.7,0.2-1.4,0.6-2c0.8-1.6,1.9-3,3-4.3c4.9-5.8,11.2-9.7,18.2-12.5
		c5.4-2.1,10.9-3.7,16.4-5.2c0.6-0.2,1.3-0.1,1.7-0.9c-4.1-1.3-8.3-1.4-12.5-1c-5.8,0.5-11.6,1.2-17.4,1.5
		c-9.1,0.6-18.2,0.3-27.2-1.4c-10.6-2-21.2-1.8-31.5,1.7c-4.5,1.5-8.9,3-13.4,4.6c-8.7,3.1-17.3,6.3-26.3,8.2
		c-0.5,0.1-1,0.3-1.6-0.1c1.7-2.7,4.8-3.7,6.5-6.1c-5.5,2-9.5,5.6-12.7,10.4c-0.5,0.8-0.9,1.7-0.4,2.9c2.1-0.5,4-1.3,5.9-2.4
		c7.6-4.6,15.7-7.2,24.6-6.3c2.8,0.3,5.7,1,8.4-0.4c0.1-0.1,0.3,0,0.5-0.1c6-0.4,11.4,1.2,16.2,4.8c0.6,0.4,1.4,0.8,1.4,1.8
		c-1.2,0.2-2.3,0-3.4-0.1c-1.9-0.2-3.8-0.5-5.7-0.7c-6.7-0.7-13.2,0.3-19.8,1.6c-4.1,0.8-7.6,2.9-10,6.5c-0.9,1.3-1.9,2.2-3.5,2.7
		c-2.3,0.8-3,1.9-2.9,4.4c0.1,3.5,1.3,6.6,3.4,9.3c2.2,2.9,4.3,5.7,6.5,8.6c0.4,0.6,0.9,1.2,1.2,1.8c0.4,1-0.1,1.6-1.2,1.3
		c-1.2-0.3-2.4-0.9-3.5-1.6c-1.2-0.7-2.4-1.4-3.8-1.3c-0.8,0-1.7-0.3-2,0.7c-0.3,0.9,0.6,1.2,1.1,1.6c1.2,0.8,2.4,1.6,3.6,2.4
		c1.6,1.1,2.9,2.4,3.9,4.1c1.7,2.9,3.7,5.6,5.8,8.2c6.4,8.1,12.8,16.1,18,25.2c0.4,0.6,0.8,1.4,1.6,0.9c0.8-0.5,0.4-1.2,0.1-1.9
		c-1.2-2.9-2.4-5.7-3.7-8.6c-0.6-1.3-1.2-2.6-1.5-4c-0.5-2-0.3-3.9,1.2-5.6c1.2-1.4,2.1-3,3.1-4.5c0.5-0.8,1-1.7,1.5-2.5
		c1.2-1.7,2.5-1.8,3.9-0.2c0.6,0.7,1,1.4,1.4,2.2c0.6,1.2,1.1,2.5,1.7,3.7c0.4,0.8,0.8,1.7,1.7,1.9c2.9,0.6,5.1,2.1,7.1,4.3
		c0.4,0.4,0.9,0.8,1.5,0.5c0.7-0.3,0.8-1,0.8-1.6c0-2.2,0-4.3,0.1-6.5c0-0.9,0.1-1.8,0.2-2.6c0.1-0.6,0.4-1.3,1.2-1.3
		c0.7,0,0.9,0.5,1,1.1c0.3,0.8,0.5,1.5,1.7,1c1.8-0.7,1.8-0.7,2.2,1.3c0.2,1,0.2,2.1,0.8,3c0.7,1.1,1.9,1.6,3.1,1.2
		c1.2-0.4,1.5-1.3,1.4-2.5c-0.1-1.2-0.2-2.4-0.3-3.6c-0.1-1.5,0-3.1,0.4-4.9c2.2,1.9,2.9,4,3.2,6.4c0.1,1.3,0.2,2.7,0.4,4.1
		c0.2,1.5,0.7,2.9,1.5,4.3c0.5,0.9,1.1,0.8,1.6-0.1c0.2-0.4,0.3-0.9,0.4-1.4c0.4-1.6,0.9-3.2,1.3-4.9c0.2-0.8,0.4-1.6,1.1-2.1
		c0.7-0.5,1.4-0.6,1.7,0.3c0.6,2.1,2.2,3.5,3.6,5c1,1,1.9,2.2,2.2,3.7c0.4,2.3,1.6,4.3,2.7,6.3c1,1.7,2.6,2.5,4.6,2.5
		c3.2,0,5.3-1.4,6.4-4.5c0.3-0.9,0.5-1.8,0.7-2.8c0.7-2.8,1-5.7,1.9-8.4c0.4-1.3,0.7-2.6,1.9-3.9c0.8,2.1-0.8,3.8-0.3,5.5
		c0.6,0.1,0.8-0.3,1-0.6c1-1.3,1.9-2.5,2.9-3.8c1.7-2.2,2.6-2.2,4.1,0.1c0.2,0.3,0.4,0.7,0.6,1c1,1.3,1.8,1.3,3,0.2
		c0.4-0.4,0.7-0.9,1.1-1.3c1.5-1.5,2.9-3,4.4-4.4c0.7-0.6,1.6-0.8,2.4-0.2c0.9,0.7,0.5,1.6,0,2.3c-0.7,0.9-1.1,1.9-1.3,3
		c-0.2,0.7-0.1,1.5,0.5,2c0.7,0.5,1.4,0.3,2,0c1-0.6,2-1.3,2.9-2.2c0.7-0.7,1.5-1.4,2.7-1.2c0.1,1.8-1.1,2.7-1.7,4
		c-0.2,0.5-0.3,0.9,0.2,1.3c0.4,0.3,0.8,0.1,1.1-0.1c0.5-0.4,1-0.8,1.4-1.3c1.6-1.5,3.1-3,4.7-4.4c1.1-0.9,2-0.9,2.8-0.2
		c0.8,0.8,0.7,1.4-0.2,2.7c-2.3,3.2-4.7,6.5-7,9.8c-0.3,0.4-0.8,0.8-0.5,1.5c1.5-0.9,2.4-2.4,4.1-3.3c-0.2,0.8-0.3,1.4-0.5,1.9
		c-1,2.5-1.9,4.9-2.9,7.4c-3.2,7.9-5.5,16-6.1,24.5c-0.6,7.7,0.6,15.1,3.2,22.4c0.3,0.9,0.8,1.8,1.4,2.5c2,2.1,3.7,4.4,4.6,7.6
		c1.4-1.3,2.8-1.2,4.2-1.1c1.5,0.1,2.4-0.4,3-1.8c1.3-3,2.7-6,4.1-8.9c1.7-3.6,3.4-7,5.6-10.3c0.5-0.7,0.9-1.5,1.6-2.1
		c0.2-0.1,0.4-0.2,0.6-0.1C369.5,433,368.8,433.8,369.5,434.4z M72.9,229.4c-0.7-3.4-1.4-6.5-2.1-9.6c-0.6-2.7-0.9-2.8-3.4-1.5
		c-1.5,0.8-2.1,0.5-2.6-1.2c-0.3-1.3-0.6-2.7-1-3.9c-3.6-10.7-9.1-20.4-16.4-29.1c-0.5-0.6-0.9-1.1-1.6-1.5
		c-1.2-0.6-2.5,0.1-2.7,1.4c-0.1,0.5,0,1,0.1,1.4c0.6,4.4,1.2,8.7,1.9,13.1c0.1,0.9,0.2,1.9,0.3,2.9c0.1,0.7,0.3,1.5-0.6,1.8
		c-0.8,0.3-1.1-0.5-1.4-1c-0.8-1.2-1.5-2.4-2.3-3.6c-0.7-1.1-1.5-2.1-2.3-3.1c-0.4-0.5-1-0.8-1.7-0.6c-0.8,0.2-1.2,0.8-1.2,1.6
		c0,0.3,0,0.6,0,1c1,9.2,0.6,18.4,0.8,27.6c0,1.3-0.3,2.3-1.6,2.9c-2,1-2.8,2.7-2.9,4.9c0,1.8-0.1,3.5-0.1,5.3
		c-0.2,7.9-0.2,15.8,0.6,23.7c0.4,3.9,1.2,7.7,0.5,11.7c-0.3,1.6,0.3,3.2,0.8,4.7c0.6,1.7,1.3,3.3,1.8,5c3,9.4,7.3,18.2,12.2,26.8
		c4.5,7.8,9.3,15.5,14,23.2c1.6,2.7,3.5,5.2,5.4,7.6c8.2,10.4,18,19.3,27,28.9c1.7,1.9,4.1,2.7,6.4,3.7c0.8,0.4,1.7,0.4,2.5-0.3
		c0.7-0.7,0.5-1.4,0.2-2.2c-0.3-0.8-0.5-1.5-0.6-2.3c-0.1-0.8-0.2-1.6,0.5-2.2c0.8-0.6,1.5-0.3,2.2,0.1c1.8,1,3.5,2,5.3,2.9
		c0.9,0.4,1.7,1.6,2.8,1c1.3-0.9,0.3-2.2,0.1-3.3c-1.5-6.4-3.5-12.6-5.4-18.9c-2.3-7.7-4.5-15.5-5.2-23.6c-0.2-2.5-0.3-5.1-0.5-7.6
		c-0.8-7.7-3.3-15-6.1-22.1c-0.7-1.8-1.5-3.5-2.2-5.3c-0.4-1.1-0.1-1.5,1.1-1.4c0.3,0,0.6,0.1,0.9,0.1c2.4,0.3,2.8-0.1,2.6-2.6
		c0-0.4-0.1-0.8-0.2-1.2c-0.6-4.8-2.1-9.3-3.9-13.8c-2.7-6.8-6.1-13.2-9.4-19.7c-3.5-6.8-6.9-13.7-9.2-21.1
		C75.4,227,75.1,227,72.9,229.4z M518.8,246.9c-1,1.6-1.8,2.7-2.6,3.9c-2.2,3.4-4.6,6.8-5.9,10.7c-1.6,4.6-3.7,9-6.1,13.2
		c-2.4,4.3-4.8,8.6-7.2,13c-2,3.8-3.7,7.8-5,11.9c-0.2,0.7-0.7,1.5,0.2,2.2c0.8,0.5,1.4-0.1,2-0.3c0.3-0.1,0.6-0.3,0.8-0.4
		c7.7-4.2,15.5-8.4,23.2-12.5c4.4-2.3,8.7-4.7,13-7.2c0.3-0.2,0.6-0.8,1.2-0.2c-1.6,2.9-3.6,5.4-5.6,8c-3.8,5-7.3,10.1-9.9,15.8
		c-1.7,3.8-4,7.3-6.3,10.7c-2,3-4.2,5.8-6.4,8.7c-1.7,2.1-3.1,4.4-4.1,7c-0.4,1.1-0.3,2.1,0.7,2.8c0.9,0.7,1.8,0.2,2.6-0.3
		c5.3-3.2,10.3-6.8,14.8-10.9c4.6-4.2,9.2-8.4,13.8-12.6c3.7-3.4,6.3-7.6,7.9-12.4c1.5-4.3,2.2-8.8,2.8-13.3c0.3-2,0.4-4,0.7-5.9
		c0.1-1.1,0.3-2.1-0.7-2.8c-1-0.7-2-0.2-2.9,0.3c-1.2,0.6-2.4,1.4-3.5,2.1c-1,0.6-2,1.2-3,1.8c-0.5-0.6-0.3-1.1-0.2-1.6
		c0.3-4.1,0.8-8.1,1-12.2c0.4-6.3,0.7-12.6,1-18.9c0.3-6.1,1.1-12.1,2.6-18c2.6-10.1,3.6-20.5,3.3-30.9c-0.3-8.9-0.3-17.7,1.3-26.5
		c0.9-5.1,1.5-10.3,1.6-15.5c0-2.2,0-4.3-0.2-6.5c-0.1-1.6-1.2-2.1-2.5-1.2c-5.1,3.7-9.7,7.9-13.5,12.8c-3.8,4.9-7.4,9.8-11,14.9
		c-11.3,16.2-22.5,32.4-35,47.7c-9.3,11.4-15.6,24.5-19.2,38.8c-0.3,1.2-0.7,2.4,0.6,3.2c1.1,0.8,2-0.1,2.8-0.7
		c1.1-0.7,2.4-1.4,3.7-1.7c1.4-0.4,2.1-0.1,2.7,1.3c0.4,1,0.7,2.1,0.9,3.2c0.8,4.1,1.6,8.3,2.4,12.5c0.2,1.1,0.4,2.2,0.6,3.3
		c0.1,0.6,0.5,1,1.1,1.2c0.7,0.2,1.2-0.2,1.6-0.7c0.4-0.7,0.9-1.3,1.3-2c4.6-8.5,11-15.2,18.5-21.1c5.8-4.6,11.7-9.1,17.8-13.5
		C517,247.5,517.5,247,518.8,246.9z M428.3,620.4c-0.8,0.3-1.6,0.6-2.3,0.8c-7.4,2.7-14.9,4.7-22.2,7.6c-7,2.8-13.7,6.3-19.4,11.2
		c-8,6.8-12.2,15.5-11.8,26.1c0.2,5.1,1.4,10,2.7,14.8c2.1,8.3,4.5,16.5,6.1,24.9c1.1,5.5,4.7,9.7,8.2,13.9c0.4,0.4,0.9,0.7,1.5,0.5
		c0.6-0.3,0.7-0.8,0.7-1.4c-0.1-2.3,0.3-4.5,0.5-6.7c0.3-3.8,1.3-7.4,2.9-10.8c1.4-2.9,3.1-5.6,5.4-7.8c2.8-2.8,5.7-2.3,7.6,1.2
		c0.6,1.1,1,2.3,1.3,3.6c1.6,6.4,1.1,12.7-0.2,19c-0.4,2-1,4-1.3,6.1c-0.3,1.8,0.2,2.5,2,2.8c0.4,0.1,0.8,0.1,1.2,0.1
		c12.6,0.1,22.8-4.7,30.7-14.5c3.3-4,4.3-8.7,3.5-13.7c-0.4-2.3-0.8-4.6-1.3-6.8c-2.6-11.8-6.9-23-14.1-32.8
		c-1.2-1.6-2.4-3.2-3.8-4.6c-1.4-1.3-3.1-2.3-5.1-2.4c-2.2-0.1-2.8,0.6-2.2,2.7c0.2,0.8,0.7,1.6,0.2,2.3c-0.9,1.2-1.9,2.4-2.9,3.5
		c-0.5,0.5-1.3,0.6-2,0.2c-0.6-0.4-0.7-1-0.4-1.7c0.2-0.5,0.3-0.9,0.5-1.4c0.4-1.1,0.7-2.3,0.7-3.5c0-1.9-1.4-2.9-3.2-2.2
		c-0.6,0.2-1.1,0.6-1.7,0.9c-2.7,1.7-5.5,3.3-8.2,5c-0.4,0.2-0.8,0.9-1.4,0.3c0.4-1.3,1.3-2.2,2.4-3c4.3-3.3,8.9-6.2,13.7-8.8
		c5.4-2.9,10.9-5.3,16.6-7.6c3.1-1.3,5.7-3.1,7.6-5.9c1-1.5,2.3-2.9,3.6-4.2c3.1-2.9,6.7-4.4,10.9-3.8c1.8,0.2,3.5-0.3,5.2-0.8
		c0.5-0.1,0.9-0.3,1-0.9c0.1-0.6-0.4-0.8-0.8-1.1c-4.3-2.2-8.5-4.8-13.1-6.4c-7.1-2.4-13.7-1.4-19.8,3.1c-0.2,0.1-0.4,0.3-0.3,0.6
		C427.2,619.4,428.2,619.4,428.3,620.4z M505.7,651.6c-0.4,0.8-0.2,1.5-0.2,2.1c0.4,3.4,1.2,6.8,2.7,9.9c1.6,3.3,1.8,6.8,0.8,10.3
		c-1.6,5.7-4.4,11-7.3,16.1c-0.4,0.6-0.8,1.2-1.7,1c-0.8-0.2-1.2-0.7-1.4-1.5c-0.2-1.3-0.5-2.5-0.3-3.8c0.3-2.5,1.2-4.8,2.5-6.9
		c2.9-4.8,4.1-10,3.1-15.6c-0.8-4.4-2.9-8.3-5.8-11.6c-2.3-2.7-5-4.9-7.8-7c-1.4-1-2.8-2.1-4.3-3.1c-1.5-0.9-2.4-0.7-3.6,0.5
		c-0.2,0.2-0.4,0.5-0.6,0.7c-0.8,0.8-1.4,0.6-1.6-0.5c-0.3-1.6-0.2-3.2,0.4-4.7c0.7-1.8,1.2-2,3.1-1.5c3.8,0.9,7.2,2.5,10.6,4.3
		c0.5,0.3,1.2,0.9,1.7,0.3c0.6-0.7-0.3-1.1-0.6-1.5c-1.3-1.5-2.7-2.7-4.2-3.9c-2.1-1.6-4.3-3.1-6.3-4.8c-5.3-4.6-11.4-6.1-18.3-5.3
		c-9.1,1-15.9,7.1-17.6,15.8c-0.6,2.9-0.6,5.9,0.1,8.8c2.3,10.3,4.6,20.6,7,30.8c0.8,3.6,2.1,7,3.7,10.4c3.9,8.4,11,12.5,19.6,14.7
		c0.2,0.1,0.5,0.1,0.7,0.1c1.1-0.1,1.6-0.8,1.3-1.8c-0.1-0.4-0.4-0.8-0.7-1.3c-1.8-3.3-3.3-6.7-4.3-10.4c-1.3-4.7-1.6-9.4-0.9-14.2
		c0.3-2,1.1-3.7,3.3-4.3c2-0.6,3.4,0.5,4.7,1.8c1.9,1.8,3.5,4,4.8,6.3c2.5,4.3,4.4,8.9,6.2,13.5c0.4,1,0.9,2.1,1.4,3.1
		c0.4,0.9,1.2,1,2,0.6c0.6-0.3,1.1-0.7,1.6-1.1c5-4,8.5-9.1,10.6-15.1c3.2-8.9,3.3-17.8-0.7-26.6
		C508.5,654.3,507.6,652.8,505.7,651.6z M377.3,640.8c-6.1,1.7-11.2,4.9-15.3,9.8c-1.2,1.5-2.4,3-3.7,4.4
		c-5.5,6.1-12,10.8-20.1,12.9c-3.8,1-7.3,2.7-10.7,4.6c-7,3.9-10,10.2-9.6,18c0.6,10.7,1.4,21.4,2.2,32.1c0.7,9.2,5,16.2,12.9,21
		c0.6,0.4,1.2,0.8,1.9,0.9c0.9,0.1,1.4-0.3,1.4-1.2c0-0.4-0.2-0.8-0.2-1.2c-1.5-7.7-0.6-15.1,2.5-22.3c0.8-2,2.1-3.5,4.4-3.5
		c2.5,0,4.3,1.1,5.3,3.4c0.4,0.9,0.7,1.9,1,3c0.9,4.1,1.3,8.2,1.1,12.4c-0.1,2.5-0.3,4.9-0.5,7.4c-0.2,2.2,0.6,2.9,2.6,2.3
		c5.9-1.8,11.2-4.7,15.4-9.4c2-2.2,2.9-4.8,2.5-7.7c-0.3-2.1-0.6-4.1-1.1-6.1c-2.1-8.8-6.7-16.2-12.7-22.8c-1.7-1.9-3.4-3.8-5.5-5.3
		c-3.8-2.7-6.7-2.8-10.6-0.2c-0.2,0.1-0.4,0.3-0.6,0.4c-1,0.6-2,0.8-2.9,0c-0.9-0.7-0.6-1.7-0.3-2.6c1.1-3.3,3.2-5.8,6.2-7.7
		c1.8-1.1,3.7-1.9,5.6-2.6c7.9-3.1,13.4-8.6,16.4-16.5c0.3-0.7,0.6-1.5,0.9-2.2c0.1-0.2,0.4-0.2,0.5-0.3c0.7,0.3,0.4,1.3,1.5,1.3
		c0.8-3.9,1.3-8,2.8-11.8C372.3,647.5,375.4,644.5,377.3,640.8z M257.6,445.6c0.8,1.1,0.6,2.3,0.8,3.5c0.1,0.4,0.3,0.8,0.7,0.9
		c0.5,0.1,0.9-0.2,1.1-0.7c0.3-1.1,0.4-2.2,0.5-3.3c0.9-22.6-8.5-40.9-23.5-56.8c-2.2-2.3-5-4-7.9-5.4c-0.6-0.3-1.2-0.8-1.7,0
		c-0.4,0.7,0.2,1.2,0.7,1.6c0.1,0.1,0.1,0.1,0.2,0.1c4.7,3.7,8.2,8.5,11.7,13.2c0.8,1.1,1.4,2.3,1.8,3.6c0.1,0.5,0.5,1.1,0,1.8
		c-2.6-2-5.1-4-7.7-5.9c-2.3-1.7-4.7-3.3-7.5-4.3c-3.1-1.1-6.2-1-9.6,0.5c5.6,1.4,10.7,2.9,14.9,7.5c-3.9-0.2-7.3-0.4-10.6,0.4
		c-3.3,0.8-6.5,1.9-9.6,4.4c3.1,0.3,5.8,0.1,8.9,0.8c-2.1,1-4.1,1.1-5.8,1.6c-1.3,0.4-2.6,0.7-3.9,1.1c-0.5,0.1-0.9,0.6-0.7,1.1
		c0.1,0.4,0.6,0.5,1,0.6c1.6,0.1,2.9,0.7,4.2,1.6c1.8,1.4,3.3,3.1,5.9,4.3c-2.6,0.4-4.8-0.1-7.1,0.7c2.6,2.1,5.9,2.4,8.3,5.1
		c-7.7-1.3-14.9-2.4-22.2,0c0.7,0.9,1.6,1,2.4,1.2c4.1,1.4,8.3,2.2,12.5,3.4c5.6,1.5,10.8,3.8,14.9,7.8c4.5,4.3,8.9,8.7,13,13.4
		c3.2,3.7,5.9,7.7,7.5,12.5c0.1,0.4,0.3,0.8,0.5,1.1c0.7,1,1.8,1,2.2-0.2c1.1-3.3,2.9-6.4,3.3-10C256.8,450.5,257.2,448,257.6,445.6
		z M518.2,129.2c-1.6-0.4-2.2,0.3-2.9,0.8c-2.7,2-5.4,4.1-8.1,6.1c-24.1,17.9-44.3,39.4-60.5,64.6c-14.3,22.2-25.3,45.9-34,70.7
		c-3.2,9.2-6.3,18.4-10.6,27.2c-1.5,3.2-3.2,6.3-5.1,9.2c-1.4,2.1-2.4,2.2-4.1,0.3c-1.1-1.2-2-2.5-3-3.7c-0.3-0.4-0.5-0.9-1.1-0.7
		c-0.6,0.1-0.6,0.7-0.7,1.2c-0.7,3.7,0,7.2,1.1,10.6c0.1,0.4,0.5,0.8,0.8,1.2c0.4,0.5,1,0.5,1.5,0.2c0.5-0.3,0.5-0.8,0.4-1.3
		c-0.1-0.5-0.3-0.9-0.4-1.4c-0.1-0.4,0-0.8,0.4-1c0.4-0.2,0.6,0.1,0.8,0.3c0.6,0.5,1.2,1.1,1.8,1.5c1.9,1.4,3,1.1,3.7-1.2
		c0.2-0.6,0.4-1.3,0.6-2c0.5,0.6,0.6,1.1,0.7,1.7c0.2,0.6,0.3,1.3,0.5,1.9c0.5,1.5,1.6,1.7,2.7,0.6c0.8-0.9,0.9-2,1-3.1
		c0.1-0.9-0.2-1.9,0.2-2.9c2.1,0.6,3.5,1.9,4.7,3.5c1.2,1.5,2,3.2,3,4.9c0.3,0.6,0.6,1.3,1.3,1.6c0.6-0.8,0.5-1.5,0.3-2.2
		c-0.3-1,0-1.9,0.7-2.7c1.9-1.9,1.8-4,1.3-6.4c-1.8-8.4-1.8-16.8,0.2-25.2c1.4-6,3.7-11.7,5.8-17.5c7.6-20.7,16.3-40.8,27.3-59.9
		c12.7-22,28.1-41.8,47.4-58.4c6.5-5.6,13.3-11,20-16.5C516.7,130.6,517.3,130,518.2,129.2z M300.9,550.2
		c-10.3-0.3-20.4,1.1-30.4,4.2c-3.2,1-6.1,2.4-8.6,4.6c-5.5,4.8-7.5,12.9-4.7,19.5c0.3,0.7,0.7,1.4,1.5,1.3c0.9-0.1,1.1-0.8,1.1-1.6
		c0.1-1.3,0.6-2.4,1.6-3.4c5.8-6,12.8-8.9,21.2-8c4.4,0.5,8.9,1,13.4,0.9c6.9-0.2,13.7-1.1,20.5-1.9c6.6-0.8,13.2-1,19.7,0.7
		c0.8,0.2,1.6,0.4,2.4,0.4c1.4,0,2-0.5,2.4-1.9c0.6-2.4,0.3-4.5-1.8-6.2c-3.1-2.6-6.6-4.2-10.4-5.3
		C319.6,551.1,310.4,549.9,300.9,550.2z M441.5,312.4c-0.6-0.3-0.9,0-1.3,0.2c-1.8,0.6-1.9,0.6-1.9-1.4c0-1.1,0-2.2,0.2-3.3
		c0.4-4.2,1.9-8.1,3.5-11.9c0.3-0.7,0.9-1.4,0.7-2.6c-0.6,0.4-1,0.6-1.3,0.9c-1.6,1.3-2.7,2.9-3.7,4.6c-0.2,0.4-0.6,0.8-1.1,0.5
		c-0.4-0.2-0.6-0.5-0.6-1c0-0.3,0.1-0.6,0.2-0.9c1.4-8,3.3-15.8,5.6-23.5c1.9-6.6,5-12.6,10.2-17.3c0.2-0.2,0.4-0.5,0.3-0.8
		c-2.2-0.6-2.2-0.6-1.3-2.7c1.1-2.7,2.2-5.3,3.6-7.8c7.1-13.2,14.2-26.5,22.3-39.2c9.3-14.7,19.4-28.7,31.6-41.2
		c2.7-2.8,5.4-5.7,8.1-8.5c0.5-0.6,1-1.2,1.5-1.8c0.4-0.5,0.6-1,0.1-1.5c-0.6-0.5-1,0-1.5,0.4c-1.3,1.2-2.5,2.5-3.9,3.6
		c-6.6,5.1-12.2,11.3-17.7,17.5c-16.7,19.2-30.6,40.1-41.6,63c-6.4,13.3-11.4,27.3-17.6,40.7c-0.2,0.5-0.4,1-0.6,1.6
		c-3.6,9.9-4.2,20.1-3.9,30.5c0.1,4.1,1.5,7.6,4.1,10.7c2.3,2.6,4,5.6,4.7,9.1c1.4,7,4,13.7,5.2,20.7c0.3,1.5,1.3,1.8,2.4,0.9
		c1-0.8,1.3-1.9,1.5-3.2c0.7-4,0.1-8,0.5-12c0.1-0.8-0.3-1.2-1.1-1.3c-2-0.2-2.4-1.6-2.3-3.3c0-1.6-0.1-3.2-0.2-4.8
		c-0.1-0.9-0.4-1.6-1.5-1c-1.1,0.6-1.5,0.1-1.8-1c-0.4-1.7-0.8-3.4-0.9-5.2C441.9,317.4,441.7,314.9,441.5,312.4z M21.6,146.5
		c-0.1,0.6-0.2,0.9-0.2,1.2c-0.2,8.1-0.3,16.1,0.1,24.2c0.4,7.3,0.6,14.5,0.6,21.8c0,13-0.8,26-1.5,39.1c-1.1,19,0.4,37.8,4.9,56.4
		c3.4,13.9,8.7,26.9,17.7,38.2c3.2,4.1,5.3,8.8,6.3,13.8c0.6,2.8,1,5.7,1.5,8.5c1,6,1.5,12.1,2.9,18c3,12.7,9.7,22.9,21.1,29.6
		c4.7,2.7,9.1,5.9,13.5,9.1c3.9,2.9,6.8,6.7,9.4,10.8c0.5,0.8,0.9,1.7-0.3,2.5c-0.7,0.5-0.8,1.2-0.1,1.9c2.3,2.2,4.9,4.1,7.7,5.7
		c0.4,0.2,0.8,0.2,1.1-0.1c0.3-0.4,0.1-0.7-0.1-1.1c-0.6-1-1.2-2.1-1.8-3.1c-5.8-9.8-13.5-17.8-23.3-23.6
		c-7.8-4.6-13.7-10.9-18.4-18.6c-2.2-3.6-3.4-7.5-3.6-11.8c-0.4-10.1-1.8-20-4.3-29.8c-0.6-2.2-1.6-4.1-3.2-5.8
		c-5.1-5.4-9.5-11.4-12.8-18.1c-12.6-25.6-17.7-52.7-16.3-81.1c0.5-10.1,1-20.1,1-30.2c0.1-18.6-0.8-37.1-1.5-55.6
		C22.1,147.7,22.2,147.2,21.6,146.5z M308.7,661.1c2.6,0,5.1-0.2,7.6-0.6c7.8-1.1,14.7-4.1,20.5-9.6c2.1-2,3.9-4.3,5.2-6.9
		c0.5-1.1,0.3-1.5-1-1.4c-2.5,0.2-4.9,0-7.4-0.3c-3.5-0.5-6.8-0.3-10.1,1c-3.8,1.5-7.9,2-11.9,2.3c-8.5,0.6-16.9-0.2-25.4-0.2
		c-4,0-7.9-1-11.4-3.2c-0.4-0.3-0.9-0.4-1.3-0.6c-0.4-0.2-0.8-0.1-1.1,0.2c-0.4,0.4-0.4,0.9-0.1,1.3c0.2,0.3,0.4,0.5,0.6,0.8
		c2,2.6,4.2,5,6.8,7.1C288,658.2,297.9,660.9,308.7,661.1z M154.2,328.4c0,0.8-0.1,1.3-0.1,1.8c0,2.6,0.2,5.1,0.6,7.6
		c0.7,4.4,1.9,8.7,3.8,12.8c0.6,1.3,1.4,2.5,2.7,3.3c1.5,0.9,2.7,0.2,2.7-1.5c0-0.4-0.1-0.8-0.1-1.2c-0.5-6.4-0.4-12.8,0.8-19.1
		c0.8-4,1.3-8,1.6-12.1c1.5-16.6-2.2-32.1-9.4-46.9c-2-4.2-4.9-7.8-8.3-11c-0.7-0.7-1.5-1.2-2.5-0.5c-0.9,0.6-1.1,1.4-0.3,2.7
		c3.7,6.6,6.1,13.7,8.2,20.9c0.7,2.3,0.7,2.3-1.6,2.5c-0.1,0-0.2,0.2-0.4,0.3c0.9,2.6,1.7,5.3,2.6,7.9c1.3,3.9,2.6,7.7,3.3,11.8
		c0.2,1.2,0.5,2.5,0.1,3.7c-0.9,0.4-1.3-0.9-2.3-0.5c0,0.3,0,0.6,0.1,0.9c1.1,5.5,1.8,11,1.8,16.6c0,0.2,0,0.5,0,0.7
		c0,0.6-0.1,1.1-0.8,1.3c-0.5,0.1-0.9-0.2-1.1-0.7C155.3,329.4,155.2,328.9,154.2,328.4z M397.1,509c2.8,0,5.4-0.2,7.8-0.9
		c11.7-3.7,20-11,24.5-22.5c1.8-4.6,2.8-9.5,3.8-14.3c0.2-1.1,0.1-1.9-1-2.4c-1-0.4-2-0.1-2.7,0.9c-0.4,0.5-0.6,1.1-0.9,1.7
		c-0.8,2.1-1.7,4.1-2.5,6.2c-1.4,3.6-3.1,7-5.4,10.1c-7.9,10.6-18.5,14.5-31.4,12.6c-5.8-0.8-11-3-16.1-5.9c-2.8-1.6-5.6-3-8.5-4.5
		c-1.3-0.7-2.7-1.1-4.1-1.1c-0.7,0-1.3,0.2-1.5,0.9c-0.2,0.7,0.5,0.9,0.9,1.2c8,6.3,16.9,11.2,25.2,17c1.6,1.1,3.3,1.5,5.2,1.4
		C392.9,509.2,395.1,508.9,397.1,509z M426.1,611.3c-1.4-0.2-2.2,0.8-3.2,1.3c-0.5,0.2-1,0.6-1.5,0.2c-0.5-0.5-0.2-1,0-1.5
		c1.1-2.4,2.3-4.8,3.5-7.1c1.3-2.5,3-4.5,5.5-5.9c2.3-1.3,3.9-3.3,5.9-4.8c0.3-0.2,0.4-0.5,0.3-0.8c-0.2-0.4-0.5-0.6-1-0.5
		c-1.1,0.2-2.2,0.4-3.3,0.5c-0.6,0.1-1.4,0.1-1.6-0.7c-0.3-0.8,0.3-1.2,0.9-1.5c1.6-0.9,3.2-1.9,4.8-2.8c0.7-0.4,1.4-0.8,1.8-1.5
		c0.4-0.6,0.1-1.3-0.7-1.4c-0.7,0-1.4,0-2.1,0.1c-5.7,0.8-11.4,1.5-17.1,2.3c-2,0.3-2.3,0.6-2.6,2.7c-0.5,5-1.9,9.7-3.7,14.3
		c-0.9,2.4-2.5,4.2-4.9,5.3c-2.1,1-2.6,2.2-2.1,4.4c0.4,1.9,1.4,3.4,2.5,4.8c2.1,2.8,4.2,3.4,7.2,1.6
		C418.9,618,422.5,614.7,426.1,611.3z M244.9,498.4c-1.2-0.3-2,0.3-2.7,0.6c-1.9,0.9-3.6,2-5.3,3.2c-2.8,1.9-5.8,3.4-8.9,4.6
		c-13.2,4.9-26.3,1.9-35.5-8.1c-2.6-2.8-4.6-5.9-6.4-9.2c-1-1.9-2-3.8-3.1-5.7c-0.3-0.5-0.6-1-0.9-1.4c-0.9-1-2-1.2-3-0.4
		c-1.1,0.8-0.5,1.6-0.1,2.5c2.6,5.4,5.4,10.7,7.5,16.3c2,5.2,5.5,9.3,10.2,12.4c9.5,6.2,25.2,6.2,34.6-1.1
		C236.2,508.1,240.2,503.1,244.9,498.4z M427.4,458.9c0.1-0.5,0.2-0.7,0.1-0.8c-2.3-4.1-4.8-8.1-8.1-11.5
		c-6.1-6.3-13.6-9.9-21.9-12.3c-4.8-1.4-9.1-0.7-13.2,2c-2.5,1.6-4.7,3.6-6.9,5.6c-2.2,2-4.4,4.1-7.1,5.2c-3,1.2-4.4,3.5-5.1,6.4
		c-0.8,3.7-1.3,7.4-1.9,11.1c-1,6.3-2.1,12.6-4.7,18.5c-0.1,0.3-0.4,0.7,0,1.1c2-1.3,3-3.3,3.6-5.4c0.9-3.3,1.7-6.6,2.6-10
		c1.3-5.1,3-10.1,6.1-14.5c7.2-10.5,19.2-15.2,31.7-12.3c9.4,2.2,16.8,7.5,22.9,14.8C426,457.6,426.4,458.4,427.4,458.9z M91,172.1
		c-1.5,0-2.7,1.8-2.4,3.5c0.3,1.4,1.2,2.2,2.2,3c3.2,2.6,6.3,5.1,9.5,7.7c7.2,5.8,14.2,11.9,20.7,18.5c7.1,7.3,13.7,15,20.2,22.7
		c1.6,2,3.4,3.8,5.5,5.3c0.5,0.4,1.1,0.7,1.6,1c0.9,0.4,1.6-0.2,1.5-1.2c-0.1-0.8-0.5-1.5-1-2.1c-8.4-11.2-16.7-22.5-27.5-31.5
		c-2.8-2.4-5.5-4.9-7.6-7.9c-2.8-4-6.3-7.2-10.2-10c-3.7-2.7-7.5-5.1-10.9-8.2C92.3,172.4,91.7,172.1,91,172.1z M221.8,481.1
		c1.9,0.1,3.5-0.9,4.6-2.6c0.5-0.8,0.8-1.7,1.2-2.6c0.6-1.3,1.6-2,3-1.9c0.6,0,1.1,0,1.7,0c1.8-0.1,3-1.1,3.7-2.7
		c1.6-3.8-0.4-7.7-4.4-8.4c-3-0.6-6-0.7-8.9-1.5c-2.7-0.8-4.3,1.3-3.3,3.9c0.2,0.4,0.4,0.9,0.6,1.3c1.1,2.3,1.1,2.3-1.1,3.8
		c-0.3,0.2-0.7,0.5-1,0.7c-1.8,1.6-2.2,4.1-1.3,6.6C217.4,480,219.2,481.1,221.8,481.1z M405.1,702.8c0-1.5,0-3,0-4.6
		c0-0.8-0.4-1.6-1.3-1.8c-1-0.2-1.7,0.1-2.2,1c-0.2,0.3-0.3,0.6-0.4,0.8c-1,2.8-2.1,5.5-2.8,8.4c-1.2,5.3-1.2,10.8-1.9,16.2
		c-0.5,4.3-0.2,8.4,0.5,12.6c0.1,0.5,0.2,0.9,0.3,1.4c0.2,0.5,0.5,0.8,1,0.8c0.5,0,0.9-0.3,1.1-0.7c0.2-0.5,0.3-1.1,0.4-1.6
		c0.6-2.7,1.1-5.3,1.7-8C403.3,719.3,405,711.2,405.1,702.8z M239.6,485.9c-0.6,0.2-0.7,0.6-0.7,0.9c-0.8,3.5-3.1,5.8-5.9,7.8
		c-1.5,1.1-3,2.1-4.7,2.9c-4.7,2.4-9.6,3.3-14.9,2.3c-4.6-0.9-8.8-2.8-12.6-5.5c-0.5-0.3-0.9-1.1-1.6-0.5c-0.7,0.6-0.3,1.3,0.1,1.9
		c0.2,0.3,0.3,0.5,0.5,0.8c3.2,4.7,7.5,7.7,13.2,8.2c9.9,1,18-2.3,23.8-10.7C238.5,491.8,239.5,489.1,239.6,485.9z M494.5,713.8
		c-0.1-0.6-0.2-1.4-0.5-2.1c-1.7-5.9-3.4-11.8-5.1-17.7c-0.7-2.4-1.5-4.7-2.3-7.1c-0.9-2.5-2.2-4.8-3.8-6.9
		c-0.7-0.8-1.4-1.7-2.6-1.2c-1.3,0.6-0.9,1.7-0.7,2.7c0.1,1,0.3,2,0.5,3.1c2.1,10.9,7.6,20.4,12.9,30c0.2,0.4,0.6,0.9,1.1,0.7
		C494.6,715.1,494.4,714.5,494.5,713.8z M343.3,757c0.2-0.4,0.3-0.6,0.3-0.8c1.8-10.4,2.3-20.9,2-31.5c0-0.8-0.1-1.6-0.6-2.3
		c-0.8-1.2-2.4-1.2-3.1,0.1c-0.5,0.8-0.6,1.6-0.7,2.5c-0.6,4.7-0.4,9.4-0.5,14.1c0,4.9,0.4,9.7,1.1,14.5
		C342.1,754.7,341.9,756.1,343.3,757z M409.1,464.9c1.5,0.1,2.8-0.3,3.9-1.4c2.1-2,2.7-4.9,1.4-7.4c-1.4-2.8-4.4-4.4-7.3-3.9
		c-2.8,0.5-4.7,2.5-4.8,5.2C402.2,460.6,405.8,464.7,409.1,464.9z M198,319.9c-2.2,4-3.4,7.9-3.5,12.1c0,1.2,0.9,1.9,1.8,1.7
		c0.6-0.1,0.9-0.5,1.3-0.9c1.5-1.4,1.8-1.4,3.5-0.3c0.3,0.2,0.5,0.4,0.8,0.6c1,0.6,1.7,0.4,2.1-0.7c0.2-0.4,0.3-0.9,0.3-1.4
		c0.9-5.9,3.5-10.9,7.4-15.3c0.3-0.4,0.6-0.7,0.8-1.2c0.1-0.2,0.1-0.5,0-0.7c-0.2-0.3-0.5-0.3-0.8-0.2c-0.4,0.2-0.7,0.4-1,0.6
		c-3.6,2.9-7,6-8.9,10.4c-0.5,1.1-1,2.3-2.3,3.1C197.8,325.4,199.6,322.5,198,319.9z M201.3,636.3c3.3,4.8,5.8,10,8.4,15.1
		c0.5,0.9,1.1,2,0.1,2.8c-0.9,0.7-1.6-0.2-2.3-0.7c-0.7-0.5-1.5-1-2.2-1.4c-0.4-0.3-0.9-0.4-1.4-0.1c-0.1,0.3,0.1,0.6,0.3,0.9
		c3,3.9,5.3,8.3,7.5,12.8c1.8,3.6,3.6,7.3,5.7,10.8c0.3,0.5,0.5,1.1,1.5,1.4c-2.6-6.4-5.8-12.2-6.7-18.8c0.7-0.6,1.6,0.6,2.3-0.4
		c-1.4-3.6-2.8-7.4-4.3-11.1c-1.2-3-2.8-5.7-4.7-8.3C204.4,637.9,203.2,636.7,201.3,636.3z M96.2,429.4c-0.2,1,0.4,1.7,0.9,2.4
		c1.3,1.8,2.9,3.2,4.7,4.4c2.2,1.5,4.7,2.8,7.1,4.1c2.4,1.3,4.7,2.7,6.8,4.4c0.4,0.3,1.1,0.5,0.8,1.3c-1.4,0.3-2.8-0.2-4.1,0.3
		c0,0.6,0.2,0.8,0.5,0.9c2.8,1.8,5.7,3.6,8.5,5.3c0.3,0.2,0.7,0.4,1.1,0.5c0.5,0.2,0.9-0.1,1.2-0.5c0.3-0.4,0.1-0.8-0.1-1.1
		c-0.5-0.6-0.9-1.3-1-2.1c-0.3-1.4-1.1-2.4-2.3-3.2c-2.2-1.6-4.4-3.2-6.6-4.8c-5-3.5-10-6.9-14.3-11.2
		C98.4,429.2,97.4,429,96.2,429.4z M401.2,474c3.3,0,5.4-2.1,5.4-5.4c0-3.4-2.4-5.9-5.6-5.9c-3.3,0-5.5,2.3-5.4,5.7
		C395.7,471.8,397.9,474,401.2,474z M422.6,426.4c0-0.6-0.2-0.8-0.5-1c-2.4-2.1-5.5-3-8.2-4.3c-0.9-0.5-1.7,0.1-2.1,1
		c-0.7,1.3-0.4,2.4,1.2,3.7c5,4.2,10.2,7.9,16.1,10.7c0.6,0.3,1.2,0.7,2,0.7c0.2-0.7-0.3-1-0.6-1.4c-1.6-2-3.5-3.7-5.7-5.1
		c-2.3-1.4-4.6-2.8-7-4.2c-0.5-0.3-1.2-0.4-1.3-1.2C418.6,425.2,420.4,426.7,422.6,426.4z M399.4,603.2c3.8-4.1,7.2-7.9,10.6-11.7
		c0.3-0.3,0.5-0.6,0.7-0.9c0.8-1.4,0.3-2.4-1.3-2.4c-1.8-0.1-3.7,0-5.5,0.1c-1.8,0.1-2.3,0.6-2.5,2.6c-0.2,2.6-0.9,5-1.5,7.5
		C399.7,599.8,399.1,601.2,399.4,603.2z M286.1,597.2c-1.3-0.1-2.6,0-3.5-0.8c-4.1-3.6-8.9-3-13.7-2.5c-0.7,0.1-1.2,0.4-1.4,1.1
		c-0.2,0.6,0.2,1,0.6,1.4C272.4,600.9,281.1,601.4,286.1,597.2z M117,460.4c2.9,2.2,7.5,3.6,10.4,3.5c1.1-0.1,2-0.4,2.5-1.5
		c0.7-1.4,1.6-2.5,3.2-3c-0.4-1-1-1.7-1.1-2.7c-0.1-1.8-0.4-1.9-2.3-1.9c-2.6,0-5.3,0.3-7.8,1.1c-0.8,0.2-1.7,0.3-2.2,1.2
		c1.3,0.7,2.7,0.5,4,0.9c1.3,0.4,2.7,0.7,3.6,2.2C123.8,460.4,120.5,459.9,117,460.4z M213,628.5c0.2-0.3,0-0.6-0.1-0.9
		c-3-6.7-5.8-13.5-8.1-20.5c-0.1-0.4-0.3-0.7-0.5-1.1c-0.3-0.5-0.8-0.9-1.4-0.6c-0.6,0.2-0.7,0.8-0.6,1.4c1.2,8,4,15.3,9.8,21.1
		C212.4,628.2,212.6,628.5,213,628.5z M421.2,434.8c3.4,9.2,7.9,17.9,13.9,25.8c-1.8-4.2-3.4-8.4-5.1-12.6c-1-2.5-2.2-5-3.6-7.3
		C425,438.5,423.4,436.4,421.2,434.8z M327.2,597.2c3.4,0,6-1.3,8.5-2.9c0.6-0.4,1-0.9,0.8-1.6c-0.2-0.7-0.8-1-1.5-1
		c-1-0.1-2.1-0.1-3.1,0c-2.9,0.4-5.6,1.7-8.5,2.2c-0.7,0.1-1.2,0.5-1.2,1.2c0,0.8,0.5,1.2,1.1,1.4
		C324.6,596.9,326,597.3,327.2,597.2z M194.8,591.6c0.5,0.6,0.8,0.9,1.1,1.2c2.6,2.5,5.5,4.7,7.1,8c0.3,0.5,0.8,0.8,1.4,0.7
		c0.8-0.2,1.1-0.8,1.4-1.5c0.8-2.6-1.8-7.5-4.6-8.1C199.2,591.6,197.2,591.3,194.8,591.6z M186.3,433c0,0.2,0.1,0.3,0.1,0.5
		c1.2-0.3,2.3-0.5,3.5-0.8c5-1.2,9.8-3.1,14.8-3.9c0.2,0,0.5-0.1,0.7-0.2c0.5-0.2,0.8-0.6,0.7-1.1c-0.1-0.4-0.3-0.7-0.8-0.8
		c-0.3-0.1-0.6-0.1-0.9-0.1C197.5,426.5,191.7,429,186.3,433z M199.9,622.8c3.7,2.3,6,5.4,8.1,8.7c1.2,1.8,2.4,3.6,3.7,5.3
		c0.4,0.6,0.8,1.3,1.7,1.6C213.8,630.8,206.2,622.9,199.9,622.8z M190.5,471.9c-0.6-0.1-0.8,0.3-1,0.7c-1.6,2.6-2.5,5.5-2.7,8.6
		c-0.1,2.6,0.3,5.1,1.6,7.3c0.3,0.5,0.6,1.3,1.4,1.1c0.7-0.2,0.4-1,0.3-1.5c-0.2-3.6-0.2-7.2,0-10.7
		C190.2,475.5,190.4,473.7,190.5,471.9z M156.4,247.8c2.2,0,3.4-1.6,2.7-3.5c-0.7-1.9-1.8-3.6-3.2-5c-1.2-1.1-2.2-0.9-2.6,0.7
		c-0.5,2.1-0.3,4.3,0.7,6.3C154.5,247.3,155.5,247.8,156.4,247.8z M380.4,304.5c0,0.1-0.1,0.3-0.1,0.4c0.3,4.4,2.3,8.3,3.4,12.4
		c0.2,0.6,0.7,0.8,1.3,0.7c0.5-0.1,1.1-0.3,1.6-0.3c0.8-0.1,0.9-0.6,0.7-1.2C387,314.3,382.2,306.1,380.4,304.5z M154.5,399.5
		c0.6-0.1,0.8,0,0.9-0.1c2.6-2,5.3-3.8,8.4-5c1.6-0.6,2.3-2.1,2.8-3.7c0.1-0.4,0.3-1-0.3-1.3c-0.4-0.2-0.8,0-1.1,0.2
		C161.2,392.2,157.6,395.3,154.5,399.5z M323.6,599.8c-3.9-0.6-6.9-1.6-9.4-3.9c-2.4-2.3-3.6-5.4-4.8-8.4
		C309.7,596.5,317.3,600.6,323.6,599.8z"/>
	<path d="M262.1,320.8c7.2,0.2,13.6,2,19.5,5.3c0.5,0.3,1,0.6,1.2,1.1c0.3,0.6,0.2,1.2-0.3,1.8c-0.4,0.5-0.9,0.6-1.5,0.4
		c-0.4-0.1-0.7-0.3-1.1-0.5c-5.6-2.9-11.2-5.8-17.2-7.6C262.6,321.3,262.5,321.2,262.1,320.8z"/>
	<path d="M423.6,711.2c-0.1,2.2-0.5,4.8-1.9,7.1c-0.3,0.5-0.7,0.9-1,1.3c-0.6,0.6-1.2,1.2-2.1,0.7c-1-0.7-0.2-1.4,0.1-2.1
		c2-3.7,2.1-7.6,1.6-11.6c-0.4-2.8-1-5.6-1.5-8.5c-0.1-0.5-0.3-1,0.4-1.2c0.5-0.1,0.7,0.2,0.9,0.6
		C421.9,700.4,423.7,707.1,423.6,711.2z"/>
	<path d="M362.4,729.4c-0.1,3.5-0.8,6.4-3.1,8.6c-0.5,0.4-0.9,0.9-1.5,1.1c-0.8,0.3-1.6,0.2-2.1-0.6c-0.5-0.7-0.1-1.3,0.3-1.7
		c1-1.2,1.9-2.5,2.7-4c2.2-4.5,2-9-0.6-13.2c-1.3-2.1-2.8-4-4.3-6.1c-0.4-0.5-0.8-1-1.1-1.6c-0.3-0.5-0.6-1-0.1-1.5
		c0.5-0.6,1-0.2,1.5,0.1c1.1,0.7,2,1.6,2.7,2.7C360.3,718.2,362,723.7,362.4,729.4z"/>
</g>
<g>
	<path d="M283.5,669.4c-0.3-0.7-0.7-1.3-1-2c-0.9-0.6-1.7-1.1-2.6-1.6c-7.2-4.3-14.5-8.2-21.5-13c-6.7-4.6-13-8.9-20.3-12.3
		c-10.2-4.1-20.5-7.9-30.4-12.7c-6.5-3.1-12.8-6.5-19.2-9.7c-0.1,0.1-0.2,0.3-0.3,0.4c-2.1,2.8-4.2,3.4-7.2,1.6
		c-4.2-2.4-7.9-5.7-11.4-9.1c0.1,0,0.1,0,0.2,0c-1.9-0.5-3.7-1-5.5-1.6c-4-1.3-7.8-3-11.6-4.8c-0.9,0.3-1.7,0.5-2.6,0.7
		c-9.3,1.6-18.6,3.5-27.5,6.7c-2.1,1.1-4.2,2.2-6.2,3.5c-1.1,0.7-2.3,1.3-3.4,1.8c0.1,0.2,0.1,0.4,0.2,0.6c0.8,3.2,0.1,5.2-2.7,6.9
		c-1.8,1.1-3.7,1.8-5.7,2.4c-4.9,1.6-9.9,2.3-15,3.3c-1.6,0.3-3.2,0.6-4.7,1.1c-3.7,1.4-4.4,4-2,7c0.5,0.6,1,1.2,1.5,1.9
		c1.5,2.3,1.9,4.7,1,7.3c-0.5,1.6-1.3,3.1-2.1,4.5c-9.6,16.4-4.4,37.9,11.3,49c4.3,3,4.2,3,3.1,8c-0.7,3.3-1.1,6.6-1.3,10
		c-0.1,0.6,0,1.3,0.1,1.9c0.4,1.6,2,2.2,3.4,1.4c1.1-0.6,1.9-1.5,2.7-2.4c2.2-2.3,4-5,5.7-7.7c1.4-2.2,3.1-3.2,5.7-3.3
		c6.5-0.3,12-2.9,16.8-7.3c3.5-3.2,4.7-3.2,8.2,0.1c3.2,3,6,6.2,8.6,9.7c9.1,12.3,21.6,17.7,36.6,18.1c1,0,1.9,0,2.9,0
		c2.5,0.1,3.1,0.4,3.7,2.9c1.1,4,2.5,7.9,4,11.8c0.3,0.7,0.5,1.4,0.9,1.9c1.2,1.7,3.1,1.6,3.9-0.3c1.5-3.2,2.4-6.6,2.8-10.1
		c0.1-1.3,0.2-2.6,0.2-3.8c0-3.1,1.2-5.6,3.5-7.6c1.4-1.3,3-2.5,4.2-4c0.7-0.9,1.4-0.9,2.1,0c2.1,2.5,4.3,5,5.6,8.1
		c4.5,10.2,12.2,16.3,22.9,19.1c0.9,0.2,1.9,0.5,2.8,0.8c2.5,0.9,3.9,2.7,3.9,5.4c-0.1,3.6,0.9,6.9,2.3,10.2
		c0.1,0.3,0.2,0.6,0.4,0.9c1,1.8,2.6,1.9,3.6,0.1c0.6-1,1-2.2,1.5-3.3c1.1-2.9,1.8-6,2.2-9.1c0.4-2.7,1.6-4.4,4.3-5.5
		c9.8-4.1,15.4-11.6,17-22.1c0.2-1.5,0.4-3,0.5-4.5c0.2-3.1,1.2-4.6,3.7-5.5c0-8.8,1.7-17.5,3.1-26.4c0.2-3.3,0.2-6.6,0-9.9
		C285.5,675.8,284.6,672.6,283.5,669.4z M102.6,714.4c-0.2,0.4-0.6,0.9-1.1,0.7c-0.5-0.2-0.3-0.8-0.4-1.5c0.1-0.6,0.2-1.4,0.5-2.1
		c1.7-5.9,3.4-11.8,5.1-17.7c0.7-2.4,1.5-4.7,2.3-7.1c0.9-2.5,2.2-4.8,3.8-6.9c0.7-0.8,1.4-1.7,2.6-1.2c1.3,0.6,0.9,1.7,0.7,2.7
		c-0.1,1-0.3,2-0.5,3.1C113.3,695.3,107.9,704.8,102.6,714.4z M146.5,649.4c-2.3,10.3-4.6,20.6-7,30.8c-0.8,3.6-2.1,7-3.7,10.4
		c-3.9,8.4-11,12.5-19.6,14.7c-0.2,0.1-0.5,0.1-0.7,0.1c-1.1-0.1-1.6-0.8-1.3-1.8c0.1-0.4,0.4-0.8,0.7-1.3c1.8-3.3,3.3-6.7,4.3-10.4
		c1.3-4.7,1.6-9.4,0.9-14.2c-0.3-2-1.1-3.7-3.3-4.3c-2-0.6-3.4,0.5-4.7,1.8c-1.9,1.8-3.5,4-4.8,6.3c-2.5,4.3-4.4,8.9-6.2,13.5
		c-0.4,1-0.9,2.1-1.4,3.1c-0.4,0.9-1.2,1-2,0.6c-0.6-0.3-1.1-0.7-1.6-1.1c-5-4-8.5-9.1-10.6-15.1c-3.2-8.9-3.3-17.8,0.7-26.6
		c0.8-1.7,1.7-3.3,3.5-4.4c0.4,0.8,0.2,1.5,0.2,2.1c-0.4,3.4-1.2,6.8-2.7,9.9c-1.6,3.3-1.8,6.8-0.8,10.3c1.6,5.7,4.4,11,7.3,16.1
		c0.4,0.6,0.8,1.2,1.7,1c0.8-0.2,1.2-0.7,1.4-1.5c0.2-1.3,0.5-2.5,0.3-3.8c-0.3-2.5-1.2-4.8-2.5-6.9c-2.9-4.8-4.1-10-3.1-15.6
		c0.8-4.4,2.9-8.3,5.8-11.6c2.3-2.7,5-4.9,7.8-7c1.4-1,2.8-2.1,4.3-3.1c1.5-0.9,2.4-0.7,3.6,0.5c0.2,0.2,0.4,0.5,0.6,0.7
		c0.8,0.8,1.4,0.6,1.6-0.5c0.3-1.6,0.2-3.2-0.4-4.7c-0.7-1.8-1.2-2-3.1-1.5c-3.8,0.9-7.2,2.5-10.6,4.3c-0.5,0.3-1.2,0.9-1.7,0.3
		c-0.6-0.7,0.3-1.1,0.6-1.5c1.3-1.5,2.7-2.7,4.2-3.9c2.1-1.6,4.3-3.1,6.3-4.8c5.3-4.6,11.4-6.1,18.3-5.3c9.1,1,15.9,7.1,17.6,15.8
		C147.1,643.5,147.1,646.5,146.5,649.4z M198.6,735.3c-0.1,0.5-0.2,0.9-0.3,1.4c-0.2,0.5-0.5,0.8-1,0.8c-0.5,0-0.9-0.3-1.1-0.7
		c-0.2-0.5-0.3-1.1-0.4-1.6c-0.6-2.7-1.1-5.3-1.7-8c-1.7-8.1-3.4-16.3-3.6-24.6c0-1.5,0-3,0-4.6c0-0.8,0.4-1.6,1.3-1.8
		c1-0.2,1.7,0.1,2.2,1c0.2,0.3,0.3,0.6,0.4,0.8c1,2.8,2.1,5.5,2.8,8.4c1.2,5.3,1.2,10.8,1.9,16.2
		C199.6,726.9,199.3,731.1,198.6,735.3z M223.1,665.9c-0.2,5.1-1.4,10-2.7,14.8c-2.1,8.3-4.5,16.5-6.1,24.9
		c-1.1,5.5-4.7,9.7-8.2,13.9c-0.4,0.4-0.9,0.7-1.5,0.5c-0.6-0.3-0.7-0.8-0.7-1.4c0.1-2.3-0.3-4.5-0.5-6.7c-0.3-3.8-1.3-7.4-2.9-10.8
		c-1.4-2.9-3.1-5.6-5.4-7.8c-2.8-2.8-5.7-2.3-7.6,1.2c-0.6,1.1-1,2.3-1.3,3.6c-1.6,6.4-1.1,12.7,0.2,19c0.4,2,1,4,1.3,6.1
		c0.3,1.8-0.2,2.5-2,2.8c-0.4,0.1-0.8,0.1-1.2,0.1c-12.6,0.1-22.8-4.7-30.7-14.5c-3.3-4-4.3-8.7-3.5-13.7c0.4-2.3,0.8-4.6,1.3-6.8
		c2.6-11.8,6.9-23,14.1-32.8c1.2-1.6,2.4-3.2,3.8-4.6c1.4-1.3,3.1-2.3,5.1-2.4c2.2-0.1,2.8,0.6,2.2,2.7c-0.2,0.8-0.7,1.6-0.2,2.3
		c0.9,1.2,1.9,2.4,2.9,3.5c0.5,0.5,1.3,0.6,2,0.2c0.6-0.4,0.7-1,0.4-1.7c-0.2-0.5-0.3-0.9-0.5-1.4c-0.4-1.1-0.7-2.3-0.7-3.5
		c0-1.9,1.4-2.9,3.2-2.2c0.6,0.2,1.1,0.6,1.7,0.9c2.7,1.7,5.5,3.3,8.2,5c0.4,0.2,0.8,0.9,1.4,0.3c-0.4-1.3-1.3-2.2-2.4-3
		c-4.3-3.3-8.9-6.2-13.7-8.8c-5.4-2.9-10.9-5.3-16.6-7.6c-3.1-1.3-5.7-3.1-7.6-5.9c-1-1.5-2.3-2.9-3.6-4.2
		c-3.1-2.9-6.7-4.4-10.9-3.8c-1.8,0.2-3.5-0.3-5.2-0.8c-0.5-0.1-0.9-0.3-1-0.9c-0.1-0.6,0.4-0.8,0.8-1.1c4.3-2.2,8.5-4.8,13.1-6.4
		c7.1-2.4,13.7-1.4,19.8,3.1c0.2,0.1,0.4,0.3,0.3,0.6c-0.1,0.7-1.1,0.6-1.2,1.7c0.8,0.3,1.6,0.6,2.3,0.8c7.4,2.7,14.9,4.7,22.2,7.6
		c7,2.8,13.7,6.3,19.4,11.2C219.3,646.6,223.5,655.2,223.1,665.9z M253.7,753.4c-0.2,1.1,0,2.4-1.4,3.4c-0.2-0.4-0.3-0.6-0.3-0.8
		c-1.8-10.4-2.3-20.9-2-31.5c0-0.8,0.1-1.6,0.6-2.3c0.8-1.2,2.4-1.2,3.1,0.1c0.5,0.8,0.6,1.6,0.7,2.5c0.6,4.7,0.4,9.4,0.5,14.1
		C254.8,743.7,254.4,748.6,253.7,753.4z M277.6,690.4c-0.6,10.7-1.4,21.4-2.2,32.1c-0.7,9.2-5,16.2-12.9,21
		c-0.6,0.4-1.2,0.8-1.9,0.9c-0.9,0.1-1.4-0.3-1.4-1.2c0-0.4,0.2-0.8,0.2-1.2c1.5-7.7,0.6-15.1-2.5-22.3c-0.8-2-2.1-3.5-4.4-3.5
		c-2.5,0-4.3,1.1-5.3,3.4c-0.4,0.9-0.7,1.9-1,3c-0.9,4.1-1.3,8.2-1.1,12.4c0.1,2.5,0.3,4.9,0.5,7.4c0.2,2.2-0.6,2.9-2.6,2.3
		c-5.9-1.8-11.2-4.7-15.4-9.4c-2-2.2-2.9-4.8-2.5-7.7c0.3-2.1,0.6-4.1,1.1-6.1c2.1-8.8,6.7-16.2,12.7-22.8c1.7-1.9,3.4-3.8,5.5-5.3
		c3.8-2.7,6.7-2.8,10.6-0.2c0.2,0.1,0.4,0.3,0.6,0.4c1,0.6,2,0.8,2.9,0c0.9-0.7,0.6-1.7,0.3-2.6c-1.1-3.3-3.2-5.8-6.2-7.7
		c-1.8-1.1-3.7-1.9-5.6-2.6c-7.9-3.1-13.4-8.6-16.4-16.5c-0.3-0.7-0.6-1.5-0.9-2.2c-0.1-0.2-0.4-0.2-0.5-0.3
		c-0.7,0.3-0.4,1.3-1.5,1.3c-0.8-3.9-1.3-8-2.8-11.8c-1.6-3.9-4.6-6.9-6.6-10.6c6.1,1.7,11.2,4.9,15.3,9.8c1.2,1.5,2.4,3,3.7,4.4
		c5.5,6.1,12,10.8,20.1,12.9c3.8,1,7.3,2.7,10.7,4.6C275,676.3,278,682.5,277.6,690.4z"/>
	<path d="M172,710.9c0.1,2.2,0.5,4.8,1.9,7.1c0.3,0.5,0.7,0.9,1,1.3c0.6,0.6,1.2,1.2,2.1,0.7c1-0.7,0.2-1.4-0.1-2.1
		c-2-3.7-2.1-7.6-1.6-11.6c0.4-2.8,1-5.6,1.5-8.5c0.1-0.5,0.3-1-0.4-1.2c-0.5-0.1-0.7,0.2-0.9,0.6
		C173.7,700.1,171.9,706.8,172,710.9z"/>
	<path d="M233.2,729.2c0.1,3.5,0.8,6.4,3.1,8.6c0.5,0.4,0.9,0.9,1.5,1.1c0.8,0.3,1.6,0.2,2.1-0.6c0.5-0.7,0.1-1.3-0.3-1.7
		c-1-1.2-1.9-2.5-2.7-4c-2.2-4.5-2-9,0.6-13.2c1.3-2.1,2.8-4,4.3-6.1c0.4-0.5,0.8-1,1.1-1.6c0.3-0.5,0.6-1,0.1-1.5
		c-0.5-0.6-1-0.2-1.5,0.1c-1.1,0.7-2,1.6-2.7,2.7C235.2,717.9,233.5,723.5,233.2,729.2z"/>
</g>
</svg>
