<?xml version="1.0" encoding="utf-8"?>
<!-- Generator: Adobe Illustrator 24.2.3, SVG Export Plug-In . SVG Version: 6.00 Build 0)  -->
<svg version="1.1" id="Layer_1" xmlns="http://www.w3.org/2000/svg" xmlns:xlink="http://www.w3.org/1999/xlink" x="0px" y="0px"
	 viewBox="0 0 650 841.9" style="enable-background:new 0 0 650 841.9; fill: #215342;" xml:space="preserve" 
	 height="450" width="700" transform="translate(-175, -98)">
<g>
	<path d="M156.7,337.4c1.5,0.1,2.6-0.5,3.3-2c1.8-3.5,4.9-5.9,8.3-8c-1.6,2.4-3.3,4.7-4.7,7.2c-2.5,4.4-4.8,8.3-2,14.3
		c5.9,12.6,2.4,26,1.7,39.1c-0.3,5.8-2.5,10.8-3.9,16.1c1.7,1.3,2.1-0.3,3.5-1.6c-3.4,11.9-8.6,22.2-13.8,33
		c3.6-0.1,4.1-4.3,7.5-4.6c-3.9,20.4-7.9,40.9,3.2,60.9c0.1-1.3,0.1-2.3,0.2-3.6c3.9,2.2,7.5,4.3,11.2,6.3c3.9,2.1,4.8,1.5,4.9-3
		c0.3-10.5-3.4-20.1-7.4-29.4c-3.1-7.2-4.4-14.4-4.6-22.1c0-1.2,0.5-2.6-1.4-4.2c-0.6,1.2-1.2,2.4-2.2,4.6
		c-0.9-6.2-1.3-10.7,0.7-15.9c-1.5,1.2-2.4,1.9-3.4,2.7c-0.8-2.3,0.5-3.9,1.1-5.5c4.6-11.6,9.9-22.9,12.3-35.2
		c1.1-5.4,0.6-10.8,0.3-16.2c-0.3-5.7-1-11.4,0.7-17.3c-2.3,1.4-2.1,3.9-4,5.5c-1.2-9.4-0.3-18.2,2.9-26.9
		c3.9-10.2,10.4-18,19.7-23.3c2.7-1.5,5.3-3.8,8.9-1.8c1,0.6,3.1,0,4.3-1c5.6-5.1,12.7-4.5,19.4-5.2c2.7-0.3,4.8-1.7,7.1-3.2
		c3-2.1,6.4-0.7,9.2,0.9c3.8,2.2,6.8,5.4,8.9,9.3c1.8,3.2,3.6,6.4,5,9.8c2.3,5.5,10.6,8.1,16.1,3.5c4.2-3.5,7.9-6.3,6.8-13.3
		c6.1,10.2,3.8,24.1-4.7,33.3c-2.4,2.5-5,4.8-7.4,7.3c-0.9,0.9-2.2,1.9-1.3,4.2c6.5-4.3,13.5-7.4,21.6-9.7
		c-3,8.2-10.4,10.1-16.1,14.2c1.6,0.9,3.4-1,5.3,0.8c-5.7,4.6-13.9,6.4-17,14.6c4.1-1.6,7.4-3.5,11.1-4c1-0.1,2.3-0.7,2.8,0.7
		c0.5,1.4-0.8,1.9-1.7,2.4c-5.9,3.4-11.8,6.8-17.7,10.3c-8.2,5-13.3,11.9-13.9,21.8c-0.1,1.7-0.1,3.5-1.6,5.5
		c-0.4-1.7-0.8-3-0.9-4.3c-0.1-3.6-1.7-3.5-4.1-1.7c-5.9,4.5-10.5,10-12.8,17.2c-1.6,4.8-3,9.7-4.8,15.6c2.8-3.4,4.8-5.8,7.7-9.4
		c-1.1,9.4-5.8,17.9,2.4,25.2c-1.1,0.2-1.4,0.4-1.5,0.3c-1.4-1-2.4-3.8-4.3-2.2c-1.6,1.3,0.6,3,1.3,4.5c4,8.9,12.7,11.9,20.5,15.9
		c1.4,0.7,3.5,0.8,3.8-1.2c0.8-5.7,3.9-11.6-1-17.1c-3.3-3.7-3.6-9-6.9-12.8c-1.2-1.4,0.9-2.1,1.8-2.9c4.1-3.6,4.3-5,0.8-6.8
		c0.7-1.8,3.5-3,1.7-5.9c-0.5-0.8,0.2-3.7,2.4-4.7c2-0.9,2.2-2.6,2.1-4.9c-0.8-17.2,7.7-32.2,26.9-35c14.1-2.1,27.9-2.8,41.8,1.5
		c14.9,4.6,26,20.4,22.6,35.6c-1.8,8.1,1.7,15.8,2.2,23.8c0.2,2.9-1.1,4.7-2.5,6.6c-1.8,2.4-2.6,4.6-1.5,7.7
		c1.1,3.1-0.7,6.8,2.5,9.9c1.2,1.1-2.9,1.9-3.5,3.9c9.7,3.9,25.1-4.7,26.6-14.8c0.3-2,1.6-3.7,2.9-5c6.1-6,5.5-12.8,2.6-20
		c-0.4-0.9-0.7-1.8-1.1-2.7c0-0.1,0-0.2,0.2-1c1.1,1.3,2.1,2.3,3.1,3.4c1.2-11.1-8.5-25.6-19.8-29.7c-0.3,1.6-0.5,3.1-0.8,4.6
		c-4.2-7.2-5.7-15.6-12.8-20.8c-6.7-4.9-14.5-7.8-21.8-12.8c4.1-1.5,7.1,1.2,10.9,0.8c-2.1-4.3-6.2-5.9-9-9.1
		c6.2-3.4,10.4,1.6,15.8,3.5c-0.3-4.9-1.4-8.9-4.5-12.2c-2-2-4-3.9-6.3-5.7c-7.9-6.1-11.1-15-14.5-23.8c-1.2-3.1-0.9-6.4,0.2-9.8
		c0.2,0.7,0.4,1.3,0.6,1.8c1.2-6.1-0.1-12.7,4-18.3c0.5,0.4,0.8,0.6,0.7,0.7c-0.9,8.8,4.6,14.5,9.9,20.3c0.7,0.8,1.4,1.8,2.7,1.6
		c1.5-0.3,1.6-1.6,1.8-2.8c1-5,2.6-9.6,5.8-13.6c1-1.3,2-2.6,3.9-2.4c0,0,0.1-0.1,0.1-0.1c2.4-2.8,4.8-5.6,7.2-8.3
		c2.6-2.9,6.1-2.3,9.4-2.7c8-0.9,15.8-1.2,23.6,1.8c-1.4-0.1-2.9-0.1-4.3-0.2c2.3,0.5,4.4,1.4,6.3,3.2c-2.1,1.1-4.3,0.5-6.2,0.2
		c-6-1-11.1,0.8-15.5,4.3c0.5,0.1,1.5,0.4,2.7,0.7c-1.1,1.8-3,1.8-4.4,2.6c2.2,3.1,5.8,2.9,9,3.8c5.5,1.4,10.3,4.2,15.4,8
		c-3.7,0.8-6.1-1.6-9.9-1.5c3.5,2.2,5.8,4.7,8.1,7.1c5,5.2,6.6,12,10,18c3.5,6.1,3,13.3,7,19c0.5,0.7,0.9,1.4,2,2
		c0.9-16.5,4.6-33.1-3.8-48.8c1.4-0.8,2.1,1.1,3.4,0.6c-5.3-8-13.3-11.3-22-13.9c5.4-1.2,10.2,0.3,14.8,2.7c2.5,1.3,3.8,0.4,4.2-2.2
		c15.5,5.7,28.9,24.8,24.9,45.9c-0.6-1-1-1.7-1.4-2.5c-0.1,0.4-0.3,0.7-0.3,1c-0.9,6.9-1.9,13.7-2.8,20.6c-1.3,10.6,1,20.7,5,30.5
		c3.4,8.3,7.3,16.4,9.9,25.1c1.1,3.7,0.6,7.8,3.1,11.9c-0.3-2.9,0-4.9,2.2-6.3c1-0.6,0.7-1.7,0.3-2.7c-0.8-1.7-1.5-3.4-2.4-5
		c-6-11.5-7.2-24.2-9.1-36.8c0-0.1,0-0.2,0-0.3c-3.1-6.9-1.3-14.3-2.1-21.4c-0.8-7.3,2.5-14.5,1.4-22c0.7,1.9,1.5,3.8,2.5,6.4
		c1.4-3.5,0.2-6.3,0.2-9c0.9-0.6,0.8,0.8,1.8,0.7c-1.2-6.6-5.8-11.6-8.3-17.7c2.6,3.2,5.3,6.4,8.5,10.4c0-5.8-2.9-8.8-5.8-11.8
		c-2.9-3-6.1-5.8-8.9-9.2c3.8,2.5,7.5,5,11.3,7.5c-1.5-3.6-4.8-5.5-7.8-8.6c11.3,3.9,16.1,13.4,22.4,21.7c-1.8,0.5-2.2-1.9-4.2-1.2
		c2.8,6.3,6.9,11.5,11.7,16.4c-3.6-1.3-6.3-3.7-9-6.2c-0.7-0.6-1.1-1.9-2.3-1.2c-1.2,0.6-0.6,1.7-0.3,2.6c2.1,7.6,3.6,15.4,5.3,23.1
		c1.3,5.5,5.9,9.2,9.8,13.2c0.9,1,2.4,1.5,2.7,3.3c-1.7,0-2.6-1.2-3.8-1.9c0.2,1.3-0.1,1.7-1.5,1.1c-3.1-1.3-6.2-2.4-9.3-3.6
		c-0.9-0.3-1.8-1.3-2.7-0.3c-0.9,1-0.3,2.1,0.2,3c4.9,10.3,10.7,19.9,20.8,26.1c0.3,0.2,0.5,0.6,1.1,1.2c-5.7,1.7-11.2,0.4-17.1,1.2
		c2.7,6,6.9,10.7,10.9,15.7c-1,1.7-2.5,1.3-4,1c-1.9-0.4-3,0.3-2.1,2.2c4.9,10.2,8.4,21,12.5,32.5c4.4-9.5,5.3-18.6,6.5-28.5
		c1.8,2.2,1.5,4.2,1.9,6.2c0.2-0.6,0.4-1,0.8-2c0.2,1.6,0.3,2.7,0.5,5c4.7-10.2,4.5-19.4,1.4-29.1c2,1.2,2,1.2,4.2,4.7
		c-0.9-7.5-2.8-13.5-4.5-19.5c-1.7-6.2-4.5-11.9-8.2-18.1c7.1,1.9,11.3,6.6,15.6,11.2c-0.8-6.4-3.9-11.7-7.4-17.2
		c5.8,0.1,7.6,5.4,11.9,7.6c-2.4-4-4.8-8-7.4-11.9c-1-1.5-2.4-2.8-3.3-4.4c-0.7-1.2-3.2-2.5-1.5-4c1.4-1.2,2.8,0.8,4.1,1.7
		c1.1,0.8,2.1,1.7,4.2,3.4c-5.4-11.6-13.9-18.1-24-23.3c2.7-1.5,5.4-0.5,8.3-1.7c-5.3-3.7-9.6-7.9-14.6-12.5
		c5.6-1.4,10.3-0.1,15.2,1.6c-2.3,0.2-4.6,0.4-8.1,0.7c5.8,4.7,10.7,8.7,16,13c-1.9,0.3-3.2,0.5-5.4,0.9c12,9.6,17.9,22.4,22.5,36.1
		c-0.6-0.5-1.2-1.1-1.9-1.6c7.9,13.8,15.2,28.1,33.2,31.1c-5.8,2.2-9.6,1.2-23.9-6.4c2.6,6.1,13.6,11.5,24.2,12
		c-7.3,2.5-11.1,1.2-27.9-9.6c2.5,3.4,4.6,6.3,6.6,9.1c-4.2-1.8-6-5.8-9.2-8.6c4.5,8,8.1,16.3,10.5,26.4c-2-2.4-3.3-4-4.7-5.6
		c0.7,4.8,3.2,8.7,6.1,12.9c-3.4,0.5-4.2-2.6-6.4-3.8c-0.2,4.1,1.8,8.2-1.1,12c-1.9-0.9-1.2-3.2-2.7-4.5c-0.8,5.5-0.6,11-2.3,16.7
		c3.1-1.3,5.8-2.5,8.6-3.4c5-1.7,10.4,0.4,15.5-1.4c-0.8,0.7-1.5,1.4-2.6,2.4c3.8,0.8,7-1.6,10.5-0.6c-0.4,2-2.7,1.8-3.7,3.5
		c4,0.6,7.9,1.7,13.3-0.9c-2.8,2.4-2.1,3.1-0.6,3.7c3.5,1.6,6.9,3.6,9.9,6.2c0.9,0.8,1.7,0.8,2.9,0.6c18.8-3.5,40.8,11.5,41.3,30
		c0.3,8.3,0,17.7-5.4,25.6c-1.4,2.1-4.3,5.1-0.3,8.1c0.8,0.6,0.6,3-1.4,2.6c-2.5-0.4-3.4,1-4.5,2.7c-2.2,3.2-4.8,6.1-9.1,7.6
		c0.1-1.5,0.1-2.6,0.3-3.6c0.9-4.8-0.5-6.7-5.4-7.2c-1.4-0.1-2.8,0.1-4.2,0c-6.8-0.2-13.5-1.2-17.3,7.1c-1.6,3.6-5.9,5.9-10.5,6.6
		c-1-2.7,0.2-5,0.6-7.4c0.2-1,0.9-2.3-0.8-2.7c-7.1-1.4-13.8-4.9-21.4-3.5c-1.9,0.3-3.4,0.8-4.7,2.4c-2.9,3.8-6.8,6.2-11.6,7.1
		c-0.1-0.2-0.2-0.4-0.3-0.6c-0.7-1.9,1.7-4.4-0.1-5.4c-3-1.7-6.1-3.5-10-3.4c-31.7,0.2-63.5,0.3-95.3,0.5c-6.8,0-13.7,0.1-20.5,0.1
		c-1.2,0-3-0.3-3,1.5c0,2.1,2,1.2,3,1.2c13.2,0.1,26.4,0,39.6,0.5c-7.1,1.5-14.3,1.1-21.5,1.2c-5.7,0.1-11.5,0.8-17.2,0.4
		c-4.7-0.4-6.5,1.9-6.7,5.7c-0.2,4.1-1,8.1-3.3,11.1c-2.9,3.9-5.4,8.6-11.1,9.5c-0.8,0.1-1.4,0.9-2.1,1.5
		c-11.8,11-25.3,15.6-41.4,11.8c-3.8-0.9-8-0.9-12.1,0.2c-7.4,2-14.8-0.5-22.2-1c-6.6-0.4-13-1.1-17.5-6.8c-2.4-3-4.4-6.5-7.1-9.2
		c-3-3-5.3-6.2-7.1-9.9c-0.7-1.5-1-3-0.5-4.6c1.7-5.4,0.4-7.3-5.1-7.3c-11.7,0-23.4,0-35.1-1.1c13,0,26,0,39.1,0
		c0.1-2.9-0.5-4.1-2.7-4.1c-35.5,0.2-71.1,0.4-106.6,0.7c-0.3,0-0.6,0.1-1,0.2c0,0.3,0,0.6,0,0.9c0.1,1.6,2.5,3.2,0.6,4.6
		c-1.9,1.4-4.9,1.5-6.4-0.2c-6.4-7.2-14.7-5-22.6-5c-3.8,0-6.6,3.4-10.7,2.6c0.4,3.9,3.1,6.6,4.1,10.4c-6.4,0-10.5-3.3-14.1-7.7
		c-1.4-1.8-1.7-5.1-4.4-5.1c-4.8,0.1-9.6-1.2-14.3,1.4c-3.4,1.9-5.8,3.5-3.2,8c-4.1-0.7-6.7-2.8-8.7-5.2c-3.1-3.7-6.6-5.2-11.3-4.5
		c-1,0.1-2.7,0.7-2.8-1.2c-0.2-2.2-0.8-4.6,0.4-6.7c0.2-0.3,1.2-0.3,1.8-0.1c1.1,0.3,0.9,1.4,0.9,2.2c0.1,1.9,0.2,3.7,3.5,2.4
		c-2.9-2.8-2.6-6.8-5.5-9.8c-2.5-2.7-2.9-7.3-2.4-11.2c0.6-4.1-2.6-7.2-1.7-11.7c2.8-13.2,17.4-27.2,30.8-28.6
		c2.9-0.3,5.8-1.2,8.7-0.2c0.4,0.1,1.2,0.1,1.5-0.2c5.7-5.4,12.7-7.9,20.8-9.2c-1-0.8-1.6-1.3-2.8-2.3c3.8,0.8,6.9,0.8,8.7,4.8
		C71.1,459,60.1,466,54.1,480c-4,9.3-3.6,18.8-0.4,28.8c1.2-3.3,1.6-6.4,3.3-9c1.8-2.8,3.9-5.2,7.1-6.5c3.7-1.4,6,0.5,5.3,4.4
		c-0.6,3.4-1.6,6.8-0.7,10.3c0.7,2.8,2.3,3.9,5.2,3.7c6.2-0.5,9.5-3.5,10.6-10.3c1-6.4,1.3-12.9,4.3-18.9c2.5-5.3,5.9-9.8,9.9-14
		c3.5-3.7,8.2-1.7,12.3-2.8c1-0.3,2.1-0.1,4.3-0.3c-5.4-2.4-9.5-6.2-13.6-6.6c-2.8-0.3-5.9-3.4-9.5-0.8c-1.1,0.8-4.7-0.3-5.8-2.5
		c-0.9-1.6-2-2.6-3.4-3.8c6.8,1.1,13.8-0.4,20.8,2.6c-1.1-4.9-2.5-9.5-1.6-14.9c-2.4,2.9-2.4,6-3.5,9.3c-2-5.6-0.2-10.6,0.1-16
		c-1.9,1.4-3.6,2.7-5.3,3.9c-0.2-0.1-0.4-0.3-0.7-0.4c2-4,4-8,6-12c-0.1-0.1-0.3-0.1-0.4-0.2c-0.8,0.9-1.5,1.7-2.4,2.8
		c0.5-5.6,4-10.3,4.3-17c-4.2,3.9-4.3,9.6-10.8,10.6c4.4-3.3,5.3-7.1,5.3-11.7c-5.7,3.1-11.6,4.6-17.9,1.8c10,2,16.7-3,22.4-10.3
		c-6.9,3.7-13.2,9.1-23.5,6.7c18.1-3.8,26.2-16,32.8-31.4c-1.3,1-1.7,1.2-2.4,1.7c2.1-6.5,3.9-12.9,7.7-18.5
		c3.8-5.5,8.7-9.8,14.4-13.9c-2.7-1.3-4.7,0.4-7.4,0.5c4.7-6.4,12.6-8.3,18.2-14.5c-4.6,0.1-7.4,2.7-11.4,2.1
		c3.5-3.3,7.3-5.5,10.7-8.3c-2.4,0.9-4.7,1.7-8.1,2.9c3-4.2,6.7-6,10.6-7.7c-3.6-3.1-7.1-1.1-11.7-0.2c6.3-4.7,13.1-5.2,19.4-7.7
		c-1.5-2.6-4.4-3.9-5.6-7.2c7.4,0.2,14.2-1.5,21.6-3.6c-3.9-2.3-8.1-1.3-11.8-2.8c8.4-2.9,17-4.3,27.1-3.9c-2.7,1.2-4.3,2-6,2.6
		c-1.8,0.7-3.7,1.1-5.7,1.8c1.8,2,4.4,0.6,6.5,2.4c-6.4,3.9-13.6,4.2-20.8,6.3c3.9,2.2,7.8,2.2,11.5,3.1c0.8,0.2,1.8,0.1,2.1,1.2
		c0.3,1.1-0.7,1.5-1.4,1.9c-3.3,2.3-6.7,4.6-9.5,9.2c5.3-2.3,8.7-5.8,14.1-7.5c-4.6,5.3-10,8.6-13.3,13.9c-0.9,1-1.8,2-2.7,3.1
		c-6.3,6-14.9,5.4-22.9,7.6c1.8,1.4,4,0.9,5.3,2.9c-5.3,3-10.3,6.2-14.8,10.1c-4.4,3.9-8.1,8.4-10.4,13.8c2.7-2.8,5.2-5.9,9.4-7.4
		c-2.1,3.9,2.3,1.5,2.8,3.2c-3.2,2-5.8,4.5-8.4,7.2c-0.8,0.8-1.2,1.7-0.8,2.9c0.5,1.6,1.9,0.1,2.6,0.8c-3.8,7.9-5.9,16-6.9,25.2
		c5.9-2.7,10.8-5.4,17.4-6.5c-3.6,4.7-5.7,9-7.3,13.7c-1.6,4.8,0.8,9.7-0.9,14.4c-1.9,5.3,3.8,8.3,3.1,14c1.6-2.1,1.2-3.9,3.2-5.1
		c-0.4,4.6,0.1,8.1,4.7,10.2c3.7,1.7,5.4,1.7,5.9-2.4c1.3-9.8,5.7-18.6,8.4-27.9c0.2-0.8,1-1.5,0.1-2.4c-0.8-0.9-1.6-0.2-2.4,0
		c-2.8,0.7-5.6,1.4-8.8,2.2c7.6-10.1,16.5-18.7,20.1-30.7c-3.6,2.4-6.8,5.3-12.1,5.4c1.1-2,1.9-3.4,2.6-4.8c-3.9,3.8-9.6,2.9-14,5.6
		c0.8-1.4,2-2.4,3.1-3.3c5.3-4.5,10.1-9.1,11.5-16.5C147.4,355,151.4,345.9,156.7,337.4L156.7,337.4z M287.1,482.7
		c-7,4-13.8,7.4-21.1,8c-7.6,0.6-9.9,5.2-11.2,11.3c-2.3,10.8-1.8,21.6-0.1,32.3c1.8,11.4,10.6,20.5,22,19.6
		c12.9-1,26.4-0.7,38.8-5.9c8.4-3.5,13.6-9.9,16.1-18.4c2.2-7.7,2.1-15.7-0.2-23.4c-1.5-5.2-4.2-11.3-8.4-13.3
		c-8.3-3.9-17.4-6.2-25.4-11.7c-1.4,6.6-0.8,13-2.6,19.5c-0.4-1-0.5-1.3-0.7-1.8c-1.3,5.9-0.3,11.9-2.4,17.7
		c-0.2-3.3-0.5-6.6-0.7-10c-0.2,0-0.3,0-0.5,0c0,2.6,0,5.3,0,7.8C288.5,504.2,289.7,493.6,287.1,482.7z M542.9,506.9
		c1.4-2.8,1.4-5.4,1.5-7.9c0.7-25.5-12.2-40.4-37.2-43.3c-1.8-0.2-3-1.5-5.4-0.8c-3.2,1-6.2,2.8-9.7,3.8c0.5-3.4,2.5-5.6,3.4-8.5
		c-3.4,3.9-7.8,6.1-12.3,8c-8.4,3.6-17.2,6.2-24.4,12.3c-4.7,4-9.7,7.8-10.2,14.7c-0.1,2.1-1.5,4.9,0.8,6c2.3,1.1,3.1-2.1,4.6-3.3
		c1.5-1.1,2.4-3.5,4.7-2.6c2.3,0.9,3.3,2.9,3.6,5.4c1,7.7,3.6,14.7,8.8,20.6c3,3.4,5.6,4.4,8.8,0.4c1-1.3,2.5-2.6,4.1-3.1
		c3.6-1.3,4.8-3.6,4.4-7.2c-0.2-1.4-0.4-3.3,1.6-3.8c2.1-0.6,3.6,0.7,4.4,2.5c1.3,2.8,2.4,5.7,3.8,9.1c2.6-10.2,2.3-19.7-2.1-28.8
		c-4.7-9.6-13.1-14.1-23.2-16.4c7.2,0.1,14.5-2.5,20.9,3c7.6,6.4,11.8,14.8,14.9,24c1.8,5.3,3.3,10.8,6.3,15.7c2,3.3,4.9,5,8.8,5.4
		c2.2,0.2,3.2-0.5,3.4-2.7c0.4-4.4,0.9-8.8-0.2-13.2c-0.4-1.7-0.9-3.8,0.7-5.2c1.8-1.5,3.7-0.5,5.5,0.3c2.8,1.2,4.7,3.3,6.2,6
		C541,500,541.6,503.4,542.9,506.9z M327.9,423.1c-3.5,1.4-6.4,2.8-9.5,3.7c-10.5,3-14.3,0.9-17.7-10c-0.9-2.9-0.4-6.2-0.1-9.4
		c0.6-8.8,7.9-8.9,13.9-9.7c2.3-0.3,4.2,3,6,5c0.9,0.9,3.2,1.2,2.6,2.4c-1.3,2.9,0.7,4.6,1.5,6.3c-1.5,2-2.8,3.7-4.2,5.5
		c2.1,2,4.1,1.4,5.9-0.1c1.9-1.7,3.1-3.9,3.6-6.4c2.4-11.1-4.4-22.3-16.8-25.5c-16.5-4.2-33-3.5-49,3.1c-5.3,2.2-9.6,5.9-11.6,11.6
		c-1.9,5.6-0.7,11.6,3.3,14.4c0-1.4-0.1-2.6,0-3.7c0.2-3.6,3.9-8.3,7-8.3c2.2,0,3.8-1,5.3-2.1c4.9-3.4,12.1-1.9,14.5,3.6
		c2.7,6.2,2.3,12.5-0.9,18.5c-2.1,3.8-5.5,5.5-9.9,5.8c-5.2,0.4-9.7-1.4-14.2-3.6c-1-0.5-1.8-1.6-3.1-1.2c0.7,11,8.2,21.2,17.6,22.1
		c-7.6-4.8-12.8-10.3-15.9-19.4c4.2,4.4,8.2,6.2,12.9,5.9c4.5-0.3,9.3,1.2,13.2-1.9c3.4-2.7,6.9-5.6,7.2-11.9
		c1,7.5-0.2,13.5-0.1,20.6c2.2-11,0.1-21.4,3.5-31.5c-1.3,6.8,4.1,10.5,6.7,15.4c0.9,1.6,2.4,2.9,3,4.6c1.8,5.4,4.3,7,9.8,6.7
		c3.8-0.2,7.2-1.8,10.8-2.7C327.7,429.8,327.5,426.7,327.9,423.1z M207,407.8c1-0.7,1.7-1,2.2-1.6c6.7-7.8,16.8-11,24.3-17.7
		c2.3-2,2.5-3.2-0.4-4.6c-1.9-0.9-4.3-1.9-1.3-4.5c1.1-0.9,0.1-1.9-1.1-1.9c-6.4-0.1-10.8-3.6-14.9-8.1c-3.3-3.5-9.7-2.5-12.7,0.9
		c-2.4,2.7-4.7,5.6-7.3,8c-3.8,3.6-7.4,7.3-10.6,11.4c-0.8,1-1.5,2.1-0.3,3.2c2.4,2.3,1.4,4.6-0.1,6.7c-6.3,9.5-5.7,20.6-7.2,31.2
		c-0.4,2.8,2.2,4.7,4.3,5.5c1.9,0.8,1.8-2.1,2.8-3.3c0.2-0.2,0.4-0.4,1-1c0,1.5,0,2.5,0,3.6c0,1.2,0.4,2.2,1.6,2.6
		c0.8,0.3,1.5,0,2-0.6c0.9-0.9,1.1-1.8-0.1-2.6c1.2-1.8-1.4-1.5-1.6-3.1c-0.8-5.2,3.8-7.1,5.6-10.5c2.6-4.9,8.2-7.4,13.6-9.5
		c1.2-0.5,2.6-1,3.1-2.8C209,408.8,208.3,408.5,207,407.8z M405.6,407c4.2-1.7,2.5-4.4,1.4-7c-1.2-2.9-2.3-6-4.5-8.2
		c-6.9-7.1-11-16.6-19.3-22.5c-0.3-0.2-0.7-0.4-0.7-0.6c0.3-4-2.3-4.9-5.5-5c-4-0.1-7.6,0.8-10,4c0.5,1.6,2.7,1,2.3,2.8
		c-0.3,1.6-1.6,2.2-2.9,2.8c-5.8,2.4-11.9,3.1-18.2,2.2c-2.7-0.4-5.5-0.7-9.3-1.2c5.8,4.7,10.4,8.9,15.1,12.9
		c9.7,8.4,20,16.1,32,20.9c2.7,1.1,4.9,2.7,7,4.7c3.5,3.5,3.4,4.3-1,6.1c1.1,1.6,2.1,3.3,3.2,4.9c1.4,1.9,1.8,5.9,4.4,5.3
		c2.8-0.7,1.1-4.3,1.5-6.6c0.3-1.9,0-4.3,3.6-2c-1.3-6.2-2.1-11.9-2.4-18.9C403.8,404,404.7,405.5,405.6,407z M140.4,490.3
		c1.6-6.6-4.6-14.6-17-21.2c-4-2.2-17.1-0.8-23,5.7c-7.8,8.5-10.1,23.8-4.3,33.7c0.9-3,1.2-6.1,3.4-8.5c1.1-1.2,2.3-2,4-1.7
		c1.9,0.4,2.1,2,2.2,3.5c0.2,1.9,0.5,3.9,0.7,5.8c0.3,2.7,1.7,3.8,4.5,3.1c7.1-1.7,12.5-5.2,14.3-12.9
		C127.8,486,130,485,140.4,490.3z M192.2,346.3c-2.9,7.1,0.9,11.6,2.5,17.5c1.8-2.2,2.9-4.1,3-6.1c0.4-6,4-10.7,6.1-16
		c1.3-3.3,2.4-6.9,6-9.2c4.4-2.8,9.4-4.4,13.8-7.1c-0.1-1.4-1-1.9-1.8-2.2c1.7-5.5,6.8-5.1,11-6.2c1.2-0.3,3.2-0.8,2.8-1.6
		c-1-2.3,0.7-5-2.1-7.1c-6.3-4.6-13.3-5.4-20.7-4.7c-2,0.2-4.5,0.2-5.9,1.3c-5,4.2-9.5,8.8-14.2,13.3c-0.5,0.5-1.7,0.9-1,1.9
		c2.3,3.6-0.2,6.1-1.9,8.8c-0.6,1-1.2,2-1.8,3c0.3,0.2,0.5,0.3,0.8,0.5c0.6-1,1.3-1.9,1.9-2.9c-0.1,5.1-2.2,9.4-3.9,13.8
		c-0.7,1.7-0.4,3.5,0.7,4.6C188.3,349.1,189.9,348.1,192.2,346.3z M414.6,456.1c-3.5,11.6-7,23.1-7.4,35.1c-0.1,2-1.2,5.1,1.1,5.8
		c2,0.6,3.2-2.5,4.5-4.1c3.1-4,6-8.5,10.1-11.3c3.2-2.2,5.4-4.6,6.3-8.2c3.2-13.4,2.7-26.9-0.3-40.3c-1.2-5.5-2.2-11.1-5.8-16.5
		c0.3,4.1,2.9,7.2,1.4,11.3c-0.9-1.4-1.7-2.5-2.5-3.8c-1.1,4.5,1,8.7-0.2,13.8c-0.9-2.5-1.4-4.2-2-5.8c0.7,7.4,1,14.7-0.6,22.6
		c-1-1.4-1.5-2.2-2.9-4.2c0,4.9,0,8.6,0,12.2c-0.3,0-0.7,0-1,0C415,460.6,414.8,458.4,414.6,456.1z M575.5,489.9
		c-1.8-14.1-22.5-27.8-35.1-23.8c8.5,7.1,11.3,17.2,13.8,27.3c7.8-2.3,12.8,1.5,17.8,13.4c1.5-8.7-1.7-16.6-4.7-25.4
		C571.7,483.4,573.1,486.8,575.5,489.9z M355.2,525.3c39.2,0,77.7,0,116.2,0c-3.1-1.5-4.8-5.1-8.5-5.1c-33.6,0.2-67.1,0.4-100.7,0.7
		C359.6,521,356.8,522,355.2,525.3z M26.2,505.3c1.4-2,2.1-3.2,2.9-4.4c2.7-3.6,6.4-6.4,10.8-6.4c2.9,0,3.4-0.9,4-3.1
		c2.1-7.9,4.4-15.7,10.5-21.7c-10.7-1.7-27.2,9.2-30.6,20.5c0.9-0.1,1.7-1.3,2.8-0.3C26.1,494.6,24.6,499.5,26.2,505.3z
		 M120.8,525.9c0,0.3,0.1,0.5,0.1,0.8c34,0,67.9,0,102.3,0c-2.1-3.3-4.1-5.1-8-5.1c-26.1,0.3-52.2,0.2-78.3,0.8
		C131.5,522.5,126.2,524.6,120.8,525.9z M355.3,364.9c10,0.1,16.6-6.7,14.7-14.7c-1-4.1-2.7-7.9-5.4-11.3
		c-5.2-6.7-11.3-8.3-19.2-4.9c-6.2,2.6-10.5,10.8-9.4,17.7c0.2,1,0.3,2.2,1.2,2.5c3.8,1.5,6.1,4.8,9,7.3
		C349,363.8,352,365.2,355.3,364.9z M41.4,538c-3.2-9.1-4.4-17-3.2-25.2c0.7-4.5,2-8.8,3.5-13.1c0.8-2.2-0.3-3.7-2-4.5
		c-2.1-1.1-1.7,1.3-2.4,2.1c-0.8,0.9-1.6,1.8-2.3,2.7c-3.9,4.6-6.7,9.6-6.5,15.8C28.6,525.1,35.3,530.6,41.4,538z M220.6,346
		c-2.6,4.6-5.9,9.2-3,14.9c2.6,5.2,7.3,7.5,12.9,7.8c6.3,0.3,10.7-4.2,15.7-7c3.9-2.2,4.2-9.6,2-14.8c-2.4-5.7-7.9-9.9-12.5-9.9
		c8.8,5.2,11.5,11.7,8.2,19.4c-2.7,6.1-8,8.6-14.3,6.8C222.5,361.4,219.5,355.2,220.6,346z M336.9,535.2c-1.2,2.2-1.8,3.2-2.4,4.2
		c-5.5,8.9-12.5,16.1-23.2,18.4c-4.4,1-6.8,4.4-11.5,7.2c13.2,0.8,22.9-3.3,30.6-12C334.5,548.4,338.5,543.5,336.9,535.2z
		 M556.7,494.4c3.6,13.7,6.8,26.5,3.8,40C573,525.6,571.4,501.9,556.7,494.4z M281.9,562.6c-0.6-0.2-0.9-0.4-1.2-0.4
		c-8.1,0-15.4-2-21.5-7.5c-0.7-0.6-1.5-0.8-2.4-0.5c-3,1.1-5.9,2.3-9.1,3.5C259.8,567.8,275.3,570,281.9,562.6z M525,536.2
		c9.7-5.3,12.2-22.8,4.5-32.5C528.9,515.1,528.7,525.9,525,536.2z M484.7,534.7c7.5-4.7,10.1-10.5,10.8-17.3
		c0.7-6.5-1.6-14.6-4.8-16.9C491.7,512.1,489.8,523,484.7,534.7z M66.5,508.4c-5.7,8.2-1,26.6,7.4,29.2
		C72.2,527.6,67.6,518.8,66.5,508.4z M147.4,472.6c-0.8,7.1-0.7,7.5,2.8,14.1c1.5-6.7-1.2-12.7-2-19.8c-1.2,1.9-1.9,3-3.2,5
		c0.8-4.7,1.4-8.4,2-12.1c-2.5,2.4-5.1,5.3-4.1,8.2c2,6.2,0,12.2,0.2,18.3c0,1.8,0,3.5,0,5.3C144,485.4,144.9,479.3,147.4,472.6z
		 M114.1,533.5c-11.3-8.1-10.5-20.5-11.6-33.2c-3.8,5.1-4,10.2-2.9,14.8C101.6,523.2,105.2,530.4,114.1,533.5z M60,519.3
		c-0.4-9.1,3.2-16.2,6.7-23.9C58.3,499.6,54.9,511.3,60,519.3z M254.4,544.5c-2.7-5.6-0.8-12.3-7.6-15
		C244.6,536.7,247.1,542.2,254.4,544.5z M246.8,509.5c2.9-3.3,0.7-14.4-3.3-16.5C241.1,498.8,242.6,506.4,246.8,509.5z M529.8,493.2
		c3.2,6.8,6.7,13.5,8.1,22.3C540.2,506,536.6,496.2,529.8,493.2z M353.5,329.5c6.1,1,10.4,3.9,13.6,8.7c3,4.5,4.8,9.5,7,14.4
		C371.6,337,363.7,326.9,353.5,329.5z M144.4,317.6c2.3,0.9,3.9,1.5,5.9,2.3c-2.5,1.4-4.7,2.6-8,4.4c2.8-0.3,4.3-0.3,5.8-0.5
		c3.5-0.6,5.6-3.8,5.4-6.3c-0.3-2.8-3.5-0.4-5.5-0.6C147.1,316.7,146.2,317.2,144.4,317.6z M141.2,327.5c2.9,4.8-1.7,6.4-3.6,9.3
		c2-0.3,3.1-1.2,4.1-2.4c2-2.5,3-5.8,6.5-6.9c0.4-0.1,0.8-1.1,0.7-1.6c-0.2-0.9-1.1-1-1.9-0.7C145.1,325.9,143.2,326.7,141.2,327.5z
		 M339.5,496.1c-5.1,3.2-5.3,7.1-2.2,11.7C338.9,504,342.6,500.8,339.5,496.1z M247.7,523.1c3.6-7.9,3.4-8.4-3.2-10.7
		C244.7,516.1,245.6,519.5,247.7,523.1z M506.7,524.6c-1.1-2.3-2.3-4-4.5-5.1c-1.1,1.7-2,3.2-3.2,5.1
		C501.8,524.6,504.1,524.6,506.7,524.6z M222.5,339c-6.6,3.9-8.7,10.1-9,17.2C215.5,350,217.7,343.8,222.5,339z M236.7,487.1
		c0,3.7,0.7,6.3,2.2,8.8c0.3,0.5,0.8,1.1,1.5,0.8c0.7-0.3,1.1-1,0.8-1.6C239.8,492.7,239.8,489.5,236.7,487.1z M236.5,341.2
		c-1.4,0.2-2.1,1.2-1.9,2.5c0.3,1.8,1.7,2.6,3.4,2.9c1.5,0.2,1.9-0.8,1.8-2C239.6,342.6,238.4,341.5,236.5,341.2z M335.1,497.6
		c1.6-0.9,2.6-2.2,2-3.7c-0.6-1.3-2.1-0.8-3.4-0.4C333.8,494.9,333.6,496.3,335.1,497.6z"/>
	<path d="M420.6,289.7c-1.8-0.5-2.9-0.8-3.9-1.1c0-0.3,0-0.5,0-0.8c3.9-0.4,7.8-0.9,11.7-1.3c0-0.1,0-0.3,0-0.4
		c-5.8-0.5-11.6-1.1-17.4-1.5c-8.7-0.5-16.5-3.2-23.4-8.6c-6-4.7-12.3-8.9-19.3-11.9c-10.2-4.5-20.5-6.2-31.1-1.3
		c-0.9-1.5,1.1-2.3,0.7-3.8c-4.6,2.1-8.4,5.6-14.1,7.5c1.8-2.8,3.2-4.8,5-7.6c-6.4,1.5-10.6,5-14.8,8.5c-2.1,1.7-3.7,4.1-6.4,4.9
		c-0.5,0.2-1.2,0-1.8-0.1c-0.2,0-0.3-0.9-0.1-1.1c3.3-4.3,6.6-8.5,10.5-12.3c-0.3,0.6-0.6,1.3-1.1,2.6c6.4-4,12.2-8.1,19.9-8.5
		c-0.6,1-1,1.7-1.7,2.9c2.5-0.8,4.4-1.7,6.4-1.8c1.6-0.1,4.2-2.4,4.9,1.3c0,0.2,1,0.3,1.5,0.3c14.6-1.2,27,4.8,37.5,13.6
		c11.6,9.7,24.9,12.6,39.3,13.8c6.2,0.5,12.4,1.5,18.7,3.2c-5.9,1.6-11.8,3.1-18.5,4.9c7.5,3.9,14.9,5.5,22.8,6.5
		c-2,4-6.3,4.3-10.3,6.6c7.4,0.5,12.6,4.6,20.1,6.1c-4.9,1-8.6-0.4-12.2,1.4c3.6,2.2,7.1,4.2,10.5,6.3c-0.1,0.2-0.2,0.4-0.3,0.6
		c-5.8-1.5-11.5-3-17.5-4.6c1.4-3.1,3.9-4.4,7.4-6.6c-3.6,0.4-6,0.7-8.3,0.9c0,1.1,1,0.3,1.2,0.8c-4.2,3.8-12.6-0.9-18.4-6.7
		c2.6-0.9,5.2,0.1,7.7,0.1c2.5,0,4.9-0.3,7-1.7c-7.8-4.1-16-7.1-25.8-9.4C412.2,290,416.3,291.8,420.6,289.7z"/>
	<path d="M275.9,271.3c-1,0.3-2.1,0.5-3.1,0.8c-0.6,0.9,0.9,1.7-0.4,2.7c-8.4-6.3-17.2-12-28.7-13.1c1.4,2.1,2.6,3.7,4.3,6.2
		c-10.9-3.1-20.5-2.2-29.8,2.3c-6.7,3.2-13.1,7-18.5,11.9c-9.4,8.6-20.7,10.6-32.7,11c-5.9,0.2-11.8,0.5-17.6-1.5
		c5.2-0.3,10.5-0.7,15.7-0.8c12.7,0,24.1-2.8,33.7-12.1c9.1-8.8,19.8-15.4,32.9-16.9c2.2-0.3,4.5-0.4,6.9-0.6
		c-0.4-0.6-0.7-1.1-1.2-2c12.3-1.5,22.3,3.2,31.8,10c-1.3-1.8-2.6-3.7-4.7-6.7C269.9,265.1,272.8,268.4,275.9,271.3L275.9,271.3z"/>
	<path d="M275.9,271.4c0.1,0.1,0.1,0.2,0.2,0.2c0.1-0.2,0.4-0.5,0.4-0.5c-2.6-3.7-3.2-8.1-4.5-12.5c2.6,3.6,5.2,7.2,7.8,10.9
		c0.2-0.1,0.5-0.2,0.7-0.4c-0.3-1.4-0.7-2.8-1.2-4.9c1.5,1.3,2.7,2.2,4.3,3.5c-0.6-2.9-1.1-5.3-1.7-8.1c4.4,2.3,6.5,6,8.9,9.7
		c2-3.4,3-6.9,4.1-10.4c0,3.3,0,6.6,0,11.3c2.7-4.5,5.3-7.1,8.9-9.7c-0.6,2.4-1,4.2-1.7,7c2.1-2.5,3.5-4.3,5.1-6.2
		c1.2,3-2,11.1-5.1,12.1c-5.7,1.8-7,7.1-10.1,11.1c-1.4-2.9-3.1-5.8-5.8-8.2c-1.5,3.6-4.7,1.4-6.5,1.2
		C277.3,277.5,275.4,274.6,275.9,271.4C275.9,271.3,275.9,271.4,275.9,271.4z"/>
	<path d="M285.9,288.1c3.4,3.2,5.1,7.5,7.6,11.8c2.1-3.6,2.4-7.8,5.5-10.6c-2.9,11.1-3.8,22.6-6.6,33.8
		C290.2,311.5,287.1,300.1,285.9,288.1z"/>
	<path d="M154.8,332.5c0.9-1,1.8-2,2.7-3.1c3.2-2.8,6.4-5.5,9.6-8.3c-3.4,5.6-7.4,10.6-10.4,16.3c0,0,0.1-0.1,0.1-0.1
		c-4,3.5-6.6,8.6-12.6,11.8C147.7,342.6,152.5,338.3,154.8,332.5z"/>
	<path d="M334,299.4c0,0-0.1,0.1-0.1,0.1C334,299.5,334,299.4,334,299.4z"/>
	<path d="M364,346.4c-0.1,8.2-4.9,13.7-12,13.6c-6.6-0.1-11.9-6.7-11.7-14.5c0.2-7.1,5.6-12.4,12.5-12.2
		C359.6,333.4,364.1,338.7,364,346.4z M360.4,341c-0.6-1.6-1.4-3.1-3.4-3.3c-1.2-0.1-2,0.8-1.8,1.8c0.5,1.7,1,3.7,3.3,3.8
		C359.8,343.4,360.3,342.4,360.4,341z"/>
</g>
</svg>
