<?xml version="1.0" encoding="utf-8"?>
<!-- Generator: Adobe Illustrator 24.2.3, SVG Export Plug-In . SVG Version: 6.00 Build 0)  -->
<svg version="1.1" id="Layer_1" xmlns="http://www.w3.org/2000/svg" xmlns:xlink="http://www.w3.org/1999/xlink" x="0px" y="0px"
	 viewBox="0 0 595.3 841.9" style="enable-background:new 0 0 595.3 841.9; fill: #215342;" xml:space="preserve"
	 height="350" width="700" transform="translate(-195, -65)">
<g>
	<path d="M519.1,504.1c-1.3-0.2-2.5-0.4-3.8-0.6c-0.4,0-0.8,0.2-1.9,0.5c5.8,6.2,14.5,9.3,17.1,20.2C524,513.8,515.8,514,505,516
		c8.9,4,14.8,8.7,18.9,16.5c-6.8-1.7-13.3-3.6-21.2-3c15.6,13.8,15.7,30.4,11.1,49.6c-3.9-10.6-9.4-18.2-18-26.2
		c4.2,11,7.5,20.2,6.9,30.2c-0.2,3.7,0.4,7.8-1.1,10.9c-4.1,9.1-0.9,13.8,7.9,16.2c0.7,0.2,1.3,0.8,4.2,2.8
		c-25.3-8.1-48.2-9.6-71.8-4.6c-26.2,5.6-35.8,27.1-48.3,47.1c-0.1-0.1-1.1-0.6-2.3-1.2c-0.2,6,0,11.7-2.1,18.4
		c-2-10.4-1.7-20.5-9.8-29.1c2.3,7.2,4.3,13.1,4.6,20.5c-1.2-2.7-2-4.4-3.6-7.7c0,10,0,18.3,0,27.5c-7.2-10.3-6.6-22.5-13.1-32
		c1,5.3,4.5,9.9,4.6,16.3c-1.9-3.4-3.4-6.1-5.9-10.4c1.2,6.6,3.1,11.3,2.5,17.3c-1.1-2.6-1.9-4.4-3.4-7.7
		c-0.1,6.7,2.2,11.2,2.9,16.2c-2-3.4-4-6.9-6.5-11.2c0.4,7.1,2.3,12.7,6.2,20.3c-7.9-8.9-7.4-18.7-13.4-28.4
		c2.5,9.2,4.3,16.2,6.6,24.7c-4.8-7.1-6.4-14-10.3-19.9c1.1,4.7,2.2,9.4,3.5,15.1c-4.5-3.6-4.8-8.5-8-13.2c0.9,8,4.7,13.1,9.1,19.6
		c-7.7-4.4-11.1-10-14.1-16.5c1.8,5.1,3.6,10.2,5.9,16.6c-5.9-4.1-7-9.7-10-14c1.7,6.6,4.5,12.6,8.5,18.5c-4.1-3.2-8.3-6.5-14.1-11
		c1.9,5,3.1,8.1,4.5,11.9c-5.1-3.4-6.8-8.1-9.7-14.8c1.5,10,7.5,14.7,12,22.1c-9.4-6.7-14.2-14.8-17.3-24.1
		c-0.2,6.7,2.2,12.6,5,19.5c-5.9-5.9-8-12.6-10.3-22c0.1,8.8,2.6,14.3,3.6,20.3c-2.7-6.2-5.3-12.3-8-18.5c-0.3,0.1-0.6,0.2-0.9,0.3
		c1.9,5.8,3.7,11.6,6.3,19.7c-3.9-6.6-7.7-10.5-9.7-15.8c0.2,2,0.5,3.9,0.9,7.8c-2.9-4.9-4.9-8.3-7.8-13.3
		c1.2,8.5,5.6,13.4,9.2,20.2c-4.3-2.7-6.7-5.2-9-8.3c0.5,1.9,1.1,3.9,1.7,6.3c-4-3.8-4.9-8.7-8.8-14.8c1.3,5.7,2,9.3,2.9,13.5
		c-4.5-4.5-4.8-10-6.5-15.1c0.2,3.9,0.4,7.8,0.7,12.5c-4.6-5.9-5.9-12.5-8.3-20.7c-0.4,6.1-0.7,10.2-1.1,16.1
		c-2.7-6.6-3.1-11.8-3.7-17.1c-0.7,6.1,0.2,12.1,2.1,19.4c-6.4-8.8-6.9-17.5-6.3-28.3c-5.6,11.9-0.4,20.8,3.1,31
		c-8.2-10.7-10.5-21.9-11-33.8c-2.2,9.8,0.9,19,2.9,29.3c-10.2-11-7.6-24.4-9.9-37c-3.2,5.6-1.5,11.4-2.5,17.9
		c-3.5-8.1-2.4-15.6-2.1-23c-3.9,5.7-1.8,12.5-3.4,20.7c-1.9-9.9-4.7-17.8,0.4-25.6c-7,7.2-5.4,15.7-3.2,26.2
		c-2.6-5.1-4.2-8.4-6.2-12.4c0.2,4.6,0.4,8.6,0.7,14.2c-3.1-7.2-2.7-13.4-4-21.5c-2.6,9.1-0.1,15.7,1.2,22.9
		c-16.5-16.4-18.8-34.1-4.5-46.1c2.4-2,1.7-3.5,0-5.2c-7.9-8-17.6-8-27.4-5.9c-9.7,2.1-19.1,5.4-28.8,7.5
		c-13.3,2.9-17.9,0.5-24.5-11.3c-6-10.7-16.4-13.4-27.4-14.6c-5.2-0.5-10.5,0.1-15.7,0.7c-6.4,0.7-13,1.6-19-0.4
		c-23.1-7.8-46.1-6.9-69.3-0.9c-2.5,0.7-5.3,0.6-8.1,0.3c9.6-4.9,19.8-7.6,30.3-9.5c14.2-2.6,28.3-1.7,42.3,1.3
		c10.5,2.2,19.4-1.5,29.6-8.6c-13.3,1.6-24.4,0.9-36.7-5.5c20-4.9,31.5-18.3,41.9-34.4c0.9,5.6-2,9-2.8,13c3.3-0.5,6.2-1.4,7.8-4.5
		c-1.6,7.3-6.9,12.3-12,18.1c5.4-1,7.9-5.6,13.2-7.4c-3.5,7.1-9.2,10.5-14.3,14.8c5.5-1.5,11-3,17.3-4.7c-1.6,6.2-4.2,11.2-8.1,15.7
		c5.7,0.8,5.7,0.8,8.4-2.3c1.1,1.3-1.1,3.6,2.3,4.7c2.1-4.3,4.3-8.7,6.4-13.2c0.3,0.1,0.6,0.2,0.8,0.3c-1.4,4.4-2.8,8.9-4.2,13.4
		c3.4,0.7,3.7-2.3,5.7-3c0.5,2-1.8,5.3,2,5.4c3.4,0.1,2-3.2,2.2-4.9c2.9-21.2,9.7-40.9,23.7-57.5c1.6-2,3.5-3.7,5.3-5.5
		c0.5-0.5,1.1-0.8,2.2-0.8c-13.5,16.4-20.3,35.2-22.1,57.3c13-28.4,20.1-38.6,32.2-44.7c-6.3,9.5-14.8,15.2-18.6,25.1
		c4.9-5.3,9.3-10,13.7-14.7c-11.2,15.9-24,31.1-18.6,52.9c0-20,7.7-36.6,21-50.9c-4.8,10.2-10.4,19.9-14.6,31.5
		c2.8-3.3,5-5.9,7.1-8.5c0.4,0.2,0.7,0.5,1.1,0.7c-0.9,1.8-1.7,3.7-2.6,5.5c-5.5,10.2-8.1,21.2-8.5,32.7c-0.1,2.2-0.8,4.9,2.7,5.1
		c3.5,0.2,3.6-2.2,3.5-4.9c-0.5-15.7,5.1-28.7,17.6-39.4c-5.9,12.8-12.2,24.9-10.6,39.1c2.5-13.7,11.6-24.7,14.9-38
		c-2.4,10.3-4.8,20.6-7,31c-0.4,2.1-2.6,5.5,0.7,6.2c3.4,0.8,5.9-1.5,6.6-5.5c1.9-10.7,6-20.7,10.3-30.6c0.4-1,1.1-1.8,3-4.8
		c-1.7,7.3-2.9,12.1-4.1,17c12.3-22.5,28.5-41.9,44.1-60.3c-2,0.8-5.6,2.3-9.5,3.9c1-3.1,1-6.1,6.7-8.6c-5,1.1-7.1,1.6-9.2,2.1
		c-0.1-0.4-0.3-0.7-0.4-1.1c4.3-2,8.5-3.9,12.8-5.9c-0.1-0.2-0.1-0.4-0.2-0.6c-4,1.2-8.1,2.4-12.1,3.6c-0.1-0.2-0.2-0.4-0.3-0.6
		c4.2-2.3,8.4-4.7,13.4-7.5c-6.3,0-11.6,0-18.2,0c5.1-6,11.2-5.7,17.5-6.9c-3.6-0.8-6.5-1.5-9.4-2.1c0-0.3,0-0.7,0-1
		c4.1-0.5,8.3-1.1,12.8-1.7c-7.3-3.2-14.5,2.3-22.2-0.9c8-3.2,14.2-8.6,24.9-8.3c-3.5-1-4.8-1.4-7.1-2.1c5.4-4.1,11.1-0.6,16.8-3.2
		c-5-1.1-9.3-2-14.2-3c6.9-1.6,13.2,0.6,22.2,1.3c-9.7-6.2-18.2-6.1-26.8-6.6c10.9-3.4,21,2.7,31.5,2.3c-7.9-7-17.5-8-27.2-8.8
		c12.3-1.8,24.4-1.7,36.3,4.5c-3.1-5.4-8.3-7.9-21.6-11c4.7-0.1,9.2,0.6,14.1,2.8c4.5,2,8.9,4.3,13.4,6.5
		c-1.2-5.6-4.7-7.7-23.7-15.1c8.3-0.7,15.7,2.9,31.6,15.5c3.7-3,5.1-7.7,8.9-12.7c-1,3.5-1.6,5.3-2.1,7.2
		c11.1-17.1,28.2-20.8,47.3-21.5c-17.1,4.6-35.5,6-43,25.4c4.4-3.6,7.9-8.3,14.4-10.8c-3.4,4.5-7.9,7-10.1,13.8
		c24-23.6,49.3-32.2,80.2-15.3c-14.1-2.8-27-6-40.4-4.4c-13.7,1.6-24.4,8.8-33.4,18.8c5.6-2.6,10.7-6.2,17.5-7.7
		c-0.9,1-1.5,1.7-2.6,2.9c3-0.6,5.2-1,9-1.7c-3.1,2.1-4.8,3.3-6.6,4.6c6.1-1.3,11.7-4.1,20.2-3.3c-9.5,4.4-18.5,4.9-25.1,10.7
		c6.1,6.3,12.6,5.7,19.6,2.5c-2.3,1.5-4.6,2.9-6.9,4.4c0.1,0.3,0.3,0.6,0.4,0.9c3.4-1.1,6.8-2.3,11.3-3.8c-2.7,2.7-6.1,2.2-7.6,6
		c6.3-0.6,12.1-1.1,20.1-1.8c-6,1.8-10.3,1.1-15.7,6.5c24.5-3.1,46.6-6,67.7,4c-12.5-9-26.6-13.5-42.3-15.6
		c31.8-0.6,68.9,21,77.5,45.5c-3.9-4.7-6.5-9.2-12.6-13.4c8.6,11.6,14.5,22.4,15.9,35.4c-14.7-39.5-43.9-56.8-84.7-56.2
		c-0.8,5.9-6.6,2.3-8.9,5.7c1.8,1.3,3.7,2.6,5.9,4.2c-2.5,0.7-4.7,1.4-8.1,2.4c8.7,2.7,17.2,1.3,24.4,5.9c-8.1-1.8-16.3-2.7-27-0.9
		c6.6,1.2,10.9,2,17,3.1c-7,0-12.1,0-17.2,0c7.2,2.8,14.7,4.8,22.5,10.3c-8.9-2.9-16.5-5.3-24.7-4.2c5.7,1.3,11.5,2.7,17.2,4
		c-0.1,0.5-0.2,1-0.2,1.6c-4.6-0.5-9.2-1.1-13.8-1.5c-1.3-0.1-3-0.9-3.9,0.8c-1.1,1.9,1,2.3,1.7,3.3c3.3,4.9,9.7,5,13.7,8.7
		c-0.2,2.3-2.1,0.9-3.1,1.6c1.9,2.7,6.1,2.5,7.5,6.7c-6.5-1.2-9.5-7.2-16.3-9.9c5.6,7.8,15,10,17.8,19.6c-8.3-5.4-12.7-15.3-24.9-16
		c14.1,13.5,28.2,25,41.2,41.4c-3.6-9.8-7.3-16.6-11.6-23.1c8.5,6.4,13.6,15.4,19.4,25.4c-1.1-16.8-14.7-24.9-21.3-37.2
		c18.6,10.9,29.8,27.9,39.4,46.3c-4.9-24.5-22.1-39.7-42.4-54.5c9.1,3.4,15.4,8.4,21.8,13.1c6.5,4.8,10.8,11.4,15.4,18.1
		c-0.7-3-1.3-6.1-2.4-10.9c6.1,6.4,7.2,13.4,11,19.1c-0.5-2.3-1.1-4.6-2-8.3c7.7,9.8,12.4,19.2,14.3,30c0.4,2.2-0.3,5.9,3.9,5.1
		c4.1-0.8,1.6-3.8,1.5-5.9c-0.7-8.2-5.4-15.4-6.4-23.6c5,8.7,11.3,16.7,12,28c3.7-4,2.4-14.4-2.4-29.9c-2.9-9.5-7.2-18.4-12-27.1
		c8,8.5,13.1,18.5,17.3,29.3c-0.5-10-3.8-19.2-8.4-27.9c-4.7-9-11-16.9-17.8-24.3c-6.7-7.4-14.5-13.3-22.9-18.6
		c22.8,4.1,38.6,17.7,50,37c11.2,18.9,13.8,40.4,18.9,61.4c-0.3-3.8-0.6-7.6-1-12.3c3.1,3.6,3.6,7.4,4.8,10.9c0.6,1.6,1,3.6,3.2,3.5
		c2.6-0.1,1.9-2.5,2-4c1-9.4-2.2-18.2-5.6-29.2c6.9,7.4,9.8,14.1,10.5,21.7c0.3,3.2,0.4,6.6-0.1,9.8c-0.5,3.5,1.4,4,3.9,4.6
		c3.4,0.8,3.4-1.7,3.8-3.7c1.8-9.6-2.2-18.1-5.9-29.2c3.1,3.9,4.6,5.9,7,8.9c-0.6-9.6-3.2-17.3-7.1-24.4
		c-3.9-7.1-8.3-13.8-12.5-20.8c8.3,2,20.8,9,35,32.1c3.4-8.7-4.4-27.3-15.1-35.6c-5.8-4.5-9.6-10-11.5-17.3
		c5.7,8.6,13.7,12.3,25.7,12c-11.2-4.2-19.3-9.8-26.3-19.7c8.3,3,15.1,5.5,23.3,2.3c-5.7-4-12.1-5-16.7-9.3
		c-4.6-4.3-8.6-9-11.8-16.9c9.5,8.4,18.5,13.3,30.6,13.7c-9-8.2-16.1-16.6-21.2-28.3c11.4,7,22.1,12.6,34.7,15.2
		c-2,2.6-4.4,2.7-6.7,2.7c-2.4,0-4.7,0-9,0c10.2,8,21.8,12.4,25.4,25C528.7,506.5,524.8,502.3,519.1,504.1L519.1,504.1z
		 M333.2,566.4c4.1,2.5,7.3,6.4,13,7.8c-1.2-1.9-1.9-3.2-3.4-5.5c5.5,2.7,9.8,4.9,15.3,7.7c-1.6-2.5-2.3-3.7-3.9-6.3
		c6,3.1,10.4,5.4,16.7,8.6c-6.3-7.1-11.2-12.7-16.2-18.3c0.3-0.3,0.6-0.5,0.9-0.8c6.7,5.5,13.5,11,20.2,16.5
		c0.3-0.4,0.6-0.7,0.9-1.1c-2.8-3.5-5.6-7.1-8.4-10.6c0.2-0.2,0.4-0.4,0.7-0.6c1.8,1.4,3.6,2.8,6.7,5.2c-3.2-5.6-7.6-8.3-9.3-13.9
		c13.2,8.1,22.5,18.8,30.6,30.7c-3.5-10.6-10.6-18.8-17.8-26.8c-2.3-2.6-3.4-7.3-7-7.4c-4.7-0.1-8.1-4.5-12.9-2.9
		c0.3,1.9,3.2,3.2,2.6,6.2c-2.3-1.4-4.4-2.7-7.8-4.8c1.4,2.3,2,3.1,3.1,4.9c-3-1.7-5-2.9-8.1-4.6c1.4,2.6,2.2,4,3.9,7.4
		c-4.7-3.7-7.6-6-11.7-9.3c3.7,7.6,6.6,13.7,10.6,22c-8.1-5.2-11.2-12.4-18.4-16.2c2.4,3.7,4.3,6.7,6.2,9.7c-0.3,0.3-0.7,0.6-1,0.9
		c-3.3-2.8-6.7-5.5-11.8-9.8C329.7,560.2,331.5,563.4,333.2,566.4c-3.2-2.9-6.5-5.8-11-9.9c2.9,7.5,5,13.4,13,13.9
		C334.4,568.9,333.8,567.7,333.2,566.4z M288,584c-15.6,9.4-16.7,9.7-17.7,14.7c-5.4,27.1,0.3,53.5,33.4,59.8
		c37.1,7.1,60.3-13.1,54.3-48.2c-1.3-7.5-3.5-14.5-9.2-20.2c-6.1-6-14.4,1.3-21.3-6.7c1.6,6.9,6.2,8.3,8.4,12.4
		c-5.2-1.5-7.4-5.8-11-8c-4.1,3.7,1.3,6.9,0.3,11.5c-3.9-6.9-7.3-13-10.8-19.1c-0.2,0.1-0.5,0.2-0.7,0.3c2.1,5.1,4.2,10.1,6.5,15.8
		c-4.8-0.9-4.4-5.9-8.2-7.3c1.4,10.2,2.8,20,4.1,29.8c-0.4,0.1-0.9,0.1-1.3,0.2c-3-10.8-5.9-21.5-9.2-33.4
		c-3.5,10.9-7,20.6-16.5,26.4c6.7-6.7,9.2-15.3,11.5-23.9c-4.8,6.9-7.6,15.4-16.1,19.1c6.6-6.6,11-14.4,13.8-25.9
		c-4.7,8.2-8.1,14.3-16.3,19.7c3.8-5.8,6.3-9.4,9.6-14.4c-3.4,1.8-5.2,2.7-8.3,4.3C285.4,588,286.4,586.4,288,584z M334.2,499.1
		c-1.3-4-4.2-5.2-6.9-6.1c-17.8-5.8-35.2-5.3-51.9,3.9c-2,1.1-3.3,2.7-3.9,4.8c-0.6,2.1,0.8,3.3,2.4,2.8
		C293.3,497.6,313.2,495.9,334.2,499.1z M257.2,577.9c8.2-5.1,15.3-7.8,20.6-16.4c-3.4,2.7-5-0.6-6.7,1.6c-0.2-1.4-0.3-3.1-0.4-3.1
		c-5.2-0.1-6.9,5.7-11.4,7.2c5.2-6.3,1.1-16.2,9.4-21c-14.6,5.3-22.2,17.5-30.2,29.3c4.2-3.6,8.5-7.2,12.7-10.7
		c0.4,0.4,0.7,0.8,1.1,1.2c-3.4,4.4-6.8,8.7-11.4,14.7c9.5-4.3,16.3-9.2,23.9-13C262.6,570.5,260.6,573.3,257.2,577.9z M218.5,581.6
		c9.8-16.2,25.1-27.8,36.7-42.5c-6.7,1.3-10.6,7-16.6,9.9c2-11.2,13.3-11,19.8-17.4c-13.1,2.4-20.5,12.3-30,19.1
		c2.1-1,4.1-1.9,6.2-2.9c-7.8,11.5-17.1,21.5-23.5,36.3c5.9-8.5,9.4-16,16.2-21C223.5,569,220.1,574.9,218.5,581.6z M223.2,587
		c6.9-16.3,23.3-25,32.1-39.9C239.6,556.5,229.8,570.5,223.2,587z M363.8,619.3c4.7-3.4,8.9-6.4,13.7-9.8
		C368.4,608,362.3,612.3,363.8,619.3z M320,535.9c4.9-2.6,9.2-4.8,13.9-7.3C327.1,525.1,320.1,528.6,320,535.9z M288.5,534.7
		c0.6-5.5-1.9-7-5.3-7.4c-1.8-0.2-4.9,0.2-4.4,2C280,534,285.3,531.5,288.5,534.7z M282.8,560.4c-7.1,2.4-6.3,8.4-8.5,12.6
		C277.7,569.7,281.1,566.4,282.8,560.4z M255.8,618.9c2.8-2.5,0.7-4.3-0.7-5.8c-1.9-2.1-4.3-3.1-7.9-2
		C250.6,614.2,253.1,616.5,255.8,618.9z"/>
	<path d="M126.8,456.1c-4.8,12.8-12.8,23.2-22.5,32.5c-9.6,9.2-24.3,10.9-32.6,22.4c5.5-15.7,10.4-31.6,23.7-45
		c-12.1,2.1-21.9,5.8-31.6,13.7c4.9-19.4,19-29.5,34-41.5c-20.9,4.3-34.8,14.1-43.8,31c0.8-7.2,3.6-13.4,7.5-19.3
		c4-6.1,9.2-11.2,14.8-15.9c5.4-4.5,11-8.7,17-13.5c-8.3-0.2-18.4,5.7-32.8,18.4c-0.6-7.1,7-15.9,23.1-26.4
		c-6.5-1.3-14.3,3.9-30.6,20.5c-0.7-8.8,2.5-15.9,6.8-22.6c4.2-6.8,10-12.1,17.2-17.9C61.4,392,49,387.3,39.5,376
		c13.3,8.8,27.2,14.2,44.6,7.9c-9.7-4-19.3-4.2-28.3-9.8c7.3,0.5,12.9,2.5,20.5,5.6c-10-8.4-20.2-7.2-32-9.5
		c9.5,8.5,19.7,10.1,30.4,13.1c-20.8,6.9-28.6-14.1-45.3-17c6.9-3.9,13.1-1.8,20.2-3c-5.7-3.3-10.4-5.9-15.1-8.6
		c0.1-0.3,0.2-0.7,0.4-1c3.3,0.6,6.6,1.3,9.9,1.9c-11.9-5.8-17.2-15-16.2-28.8c1.9,1.8,3.2,3,5.5,5.1c-0.9-2.2-1.3-3.3-1.9-5.1
		c4.3,4.7,8.6,8.4,13.6,11.2c-11.9-20.7-31.6-37.7-26.9-66.1c4,20.4,9.5,29.8,20.6,34.5c-1-10.5-5.2-19.6-9.9-28.3
		c-5-9.3-6.1-18.8-3.9-30.7c2.8,6.4,4.7,11.4,9.9,16c-0.4-14,0.2-26.8-3.1-39.4c3.6-1.1,4.5,2.4,7.7,2.7c-3.8-11-6.7-21.9-7-33.5
		c5.1,0.3,7.8,4.7,12.3,6.3c3.2-5.1-0.2-10.5,0.8-15.8c3.9,0.4,5.2,3.9,8,6.1c1.3-4.4-1.6-8.3-1.5-12.8c8.2,2.3,13.9,7.5,19.7,13.3
		c2.2-4.9-0.7-9.3,0.4-14.2c4.8,4.6,6.4,10.5,9.3,16c2.2-2.4,0.4-5.1,1.3-8.8c5.6,9,8.5,18.7,15.6,25.4c1.7,2,0.9,7.2,6.2,3.1
		c0.9,2.4,1.7,4.5,2.9,7.4c1.9-2.7,3.3-4.7,5.3-7.6c1.5,4.2,2.7,7.5,4.1,11.3c4-4.1,3.8-9.3,6-15.4c1.6,6.9,2.9,12.2,4.1,17.6
		c1.9,8.5,4.9,16.6,9.9,23.8c2.5,3.6,4.2,3,5.9-0.6c2.6-5.4,2.5-11.2,2.6-18.9c6.5,9.9,6.7,21.5,16.1,28.8
		c-1.8-7.1-3.3-13.3-5.2-20.8c15,14.8,19.8,35.4,35.7,49.1c-0.4-5-3.8-8.3-3.2-13.4c4.4,5.6,9.6,9.6,14.8,13.6
		c2.7,2.1,5,2.5,8.1,1.7c11.1-3.1,22.1-1.3,35.4,2.3c-8.9-6.4-16.1-10-24.4-11.3c14.2,2.7,28.7,1.1,44.2,6.4
		c-8.3-9.7-15.4-18.1-25.4-26.5c18.1,7,33.1,15.1,44.3,29.8c1.6-5.4,3.1-10.1,4.5-14.9c2.2,8.8,6,16.6,9.8,25.8
		c6.5-19.3,18.3-33.5,32.6-47.2c0.4,23.5-17.8,37.9-24.1,57.4c-0.8-9.2,1.7-17.6,6.4-25.3c4.6-7.5,11.1-14,13.8-24.2
		c-15.4,14.7-23.7,31.8-28.5,53.8c-2.7-11.4-4.6-20.2-8.9-28.2c0.7,13.1,8.6,25,6.8,38.8c-1.2-2.8-2.4-5.4-3.9-8.8
		c-0.8,1.8-1.2,2.8-1.6,3.6c-7.5-1.4-8.9-8.3-11.6-13.5c-6.3-11.7-16.1-18.4-28.5-22c-1.1-0.3-2.2-0.5-3.3-0.6c-0.5-0.1-1,0-3.1,0
		c11.5,7.4,20.9,14.8,24.3,29.7c-17.4-18.8-37.9-22.7-61.2-20.5c2.5,2.8,4.5,4.9,6.2,7.3c1.3,1.8,3.3,4.1,1.4,6.1
		c-1.9,2-4-0.5-5.5-1.7c-15.2-12-32.2-16.2-51.3-12.2c-2.2,0.5-4.4,1.2-6.6,1.8c-0.6,0.2-1.2,0.7-2.6,1.5
		c13.5,5.2,27.1,8.9,39.5,20.4c-19.4-1.2-35.2,2.7-48.6,17.3c8.5-2.7,15.3-6.2,25.2-5.6c-12.9,7.1-24,13.2-33.3,24
		c6.3-1.4,10.9-3.8,16.1-3.5c-1.5,11.1-18.5,26.7-30.7,28.4c4.8-4.1,10.1-7.3,13.1-13.1c-20.3,20.4-52.9,23.6-70.1,51.1
		c18.8-10.8,38.8-14.7,56.9-23.7c-8.2,6.7-16.4,13.3-25.5,20.7c10.5-2.1,19.1-5.7,27.5-10.5c-10.1,8.3-18.8,17.8-28.4,27.5
		c12.4-2.8,22-9,29.9-18.6c0.4,9.3-6.6,17.7-40.6,49.1c8.7-4.3,15.2-7.7,20.8-12.6c5.7-4.9,11-10.1,16.7-15.3
		c-4.5,12-13.6,19.9-23.9,27.6c18.6-0.5,20.8-17,28.8-29.5c0.9,9-4.3,13.6-7.9,20.4c7.8-5.1,12.2-11.5,18.9-18.5
		c-3.8,11.1-9,18.8-15.9,25.5c-8.7,8.5-18.9,15-28.2,22.7c-6.9,5.8-12.6,12.5-15.8,22C96.1,489.4,113.3,474.9,126.8,456.1z
		 M97.8,337.1c10,3.8,11.3,14.3,17.1,22.8c-1.3-10.6-8.1-17.7-10.5-26.9c3.4,3.5,6.7,6.9,11.2,11.6c-2.9-7.4-7.2-11.7-12.4-17.8
		c4.1,2.7,6.5,4.3,8.9,5.9c2.1-4-2.2-5.5-2.3-8.5c5.1,2,5.6,7.3,8.4,11.4c1.8-8.3-3.1-14.2-5.9-21c1-0.3,1.9-0.6,2.9-0.8
		c-1.5-2.8-2.9-5.3-4.2-7.8c0.4-0.3,0.8-0.6,1.1-0.8c4.4,4.2,8.9,8.4,13.7,13.1c-0.4-5.1-4-8.1-6.1-13.2c2.5,2.3,4.1,3.7,5.7,5.1
		c1.4-8.8-6.1-12.3-10.8-18.4c7.5,3.1,12.1,8.4,19.3,13c-2.5-5.8-4.2-9.7-6.1-14.3c-0.6,1.1-0.9,1.7-0.9,1.5
		c-11.5-7.9-14-22.3-24.2-31.5c3.3,7.3,6.6,14.6,9.9,21.9c-8.5-12.8-17-25.4-28-36.2c3.8,8.1,9.7,15,13,24.6
		c-6.1-1.6-8-6.8-13.5-9.5c2.4,4.2,4.1,7.2,6.7,11.8c-6.1-5.9-10.9-10.7-17.1-16.8c7.6,13.7,17.7,23.6,22.4,37.6
		c-5.2-6.8-9.9-13-14.3-18.9c-5,2.6-5.9-3.5-9.7-3.6c6,10.3,12.9,20,17.3,33.1c-4.1-4.7-7-7.9-9.8-11.2c3,7.2,8.3,12.7,12.6,19
		c-2.9-2.5-5.9-5.1-8.8-7.6c-0.2,0.2-0.4,0.4-0.5,0.6c3.3,4.9,6.7,9.7,10.4,15.2c-1.5-0.3-2.2-0.5-3.1-0.6c3,5.2,7.8,9,9.4,15.7
		c-1.7-1.4-2.8-2.2-4.5-3.6C96.4,334.2,97.1,335.7,97.8,337.1c-2.8-2.4-5.7-4.9-8.5-7.4c3.5,7.8,9.5,13.3,15.9,20.3
		C103.1,344.3,100.7,340.5,97.8,337.1z M37,231.5c2.1,10.4,4.3,19.3,11,26.6c-1.3-5.6-2.7-11.1-4-16.7c0.8,0.2,1.5,0.4,2.3,0.6
		c5.5-10.8,5.7-23.2,8.2-34.8c0.9-4.1-0.8-8.7-1.3-13c-2.7,5.7-1,11.5-3.5,17c-4.6-2.5-6.3-7.8-12.1-9.3c0.8,3.5,1.5,6.4,2.3,10.1
		c0.9-1.9,1.3-2.8,2.3-4.9c2.3,5.9,10,8.1,5,16.1c-2,3.2-0.3,8.6-0.3,14.1C43.1,235.2,40.6,233.7,37,231.5z M51.1,359.3
		c7.8,4.8,15.9,9,25.7,10.6c-1.1-1.8-2.4-2.9-2.3-4c0.4-7.9-6.3-12.6-10.8-15c-9.5-5-20.4-7.1-29.7-15.7c4.5,17.7,20.3,18.9,31,27
		C60.3,361.3,55.7,360.3,51.1,359.3z M39.4,260.2c1.4,6.1,2.8,12.2,4.2,18.4c-8.7-5.2-10.1-15-16.6-23.7c0.1,7.5,0.8,12.8,4.8,17.7
		c0.5-1,0.8-1.7,1.4-3c6.6,8.5,12.9,16.6,20.1,25.9C52,281.2,46.1,270.6,39.4,260.2z M64.1,318.7c-3.2-4.9-5.3-8.8-10.1-11.9
		c0.6,2.9,1,4.7,1.5,7c-11.6-3.4-23.8-3.9-30.8-17.6c1.6,12.3,20.2,26.4,34.8,27.3c-4.7-2.6-8.4-4.6-12.1-6.6
		c0.1-0.3,0.2-0.6,0.3-0.9C52.7,316.8,57.8,317.7,64.1,318.7z M44.3,326.3c3,6.5,7.7,10.8,13.4,14.1c0.7-0.7,1.4-1.4,2.1-2.1
		c-3.4-2.7-6.8-5.4-10.8-8.4c8,0.6,17,7.9,17,14.7c0,7.4,4.7,5.3,8.7,6.2C70.1,337,56.9,326.4,44.3,326.3z M125.4,227.4
		c1.3,10.5,2.7,21,7.7,30.7c0.2-1.6,0.4-3.2,0.7-5.1c1.5,1.4,2.7,2.5,5.6,5.2C133.7,246.7,128.8,237.4,125.4,227.4z M164,250.3
		c1.8,6.9,3.3,11.6,2.5,16.4c-1.1,6.3,2.8,8.6,8.5,11.2c-1.8-4-3.1-6.8-4.4-9.7c0.3-0.1,0.5-0.2,0.8-0.3c1.4,2.5,2.8,5,4.3,7.5
		C173.3,267.1,170.1,259.3,164,250.3z M151.2,259.3c-0.6-6.3-1.1-11.8-1.6-17.2C147.5,247.8,142,253.9,151.2,259.3z M61.7,191.9
		c1.4,2.2,2.2,3.6,4.2,6.9c-0.7-7-1.7-11.3-6.9-15c-0.3,5.6,0.6,9.9,2.7,14C61.7,196.1,61.7,194.4,61.7,191.9z M41.8,290.6
		c1,7.2,1.6,11.8,2.4,17.8c1.7-3.2,0.2-5.7,2.4-7.4c1.5,0.9,2.9,1.8,4.3,2.6c0.2-0.2,0.4-0.5,0.7-0.7C48.8,299.4,46,296,41.8,290.6z
		 M112.6,214.3c-3.6,8-2,12.7,3,16.9C114.8,226.4,113.9,221.6,112.6,214.3z M268.4,279c4.9,5.5,9.8,11.1,14.7,16.6
		C280.2,288.3,274.9,283.2,268.4,279z"/>
	<path d="M470,359.5c6.9,3.7,13.1,6.9,21.5,11.3c-4.3-5.3-8.2-7.7-10-12.8c4.8,1.3,9,2.4,14.6,3.9c-9.9-13.8-24.1-18.8-38.4-27
		c7.6-1.5,13.7-1.7,19.1-6.3c-20.1-3.6-38.3-10.6-56.6-20.7c15.4-9.4,32-7.2,49.5-8.7c-20.9-8.2-40.4-12.1-60.8-5.5
		c-3.4,1.1-6.7,2.3-10.1,3.3c-2.1,0.6-4.8,1.5-6.2-0.9c-1.4-2.5,0.3-4.7,2.1-6.4c8.1-7.3,17.4-11.7,28.4-12.2c5.9-0.3,11.9,0,18.5,0
		c-9.3-5.2-18.4-8.8-28.9-8.5c-14.9,0.5-27.9,5.9-39.5,15c-2.3,1.8-5.4,5.8-8.3,2.8c-2.7-2.7,0.2-6.4,2-9.2c3-5,8.1-8.6,10.8-15.6
		c-12.8,9.8-26.1,16.1-36.8,26.1c-10.7,10.1-18.8,21.9-24.6,35.4c-3-27.4,18.8-46.1,25.3-70.1c-2.5,10.2-5,20.5-7.9,32.3
		c15.9-13.4,36.7-16.4,49.6-34.2c0.1,8.1-2.4,13.8-6.2,20.7c8.2-4.1,15.5-6.2,23.1-7.6c0.5-0.1,1.2-1.2,1.2-1.9
		c0.6-16.5,10.2-27.8,22-37.9c5.1-4.3,10.3-8.4,17.3-14.1c-5.1,16.6-12.3,30.8-10.4,47.9c9.6-11.7,17.1-23.4,18.7-40.3
		c1.7,5.6,2.7,9,3.8,12.5c2.9-0.8,1.7-4.2,4.2-5.4c0.8,1.1,1.7,2.2,2.8,3.5c4.3-5,5.5-11.2,8.2-18.8c0,6,0,10,0,15.1
		c6.8-5.1,8.6-12.4,12.2-19.8c0.2,4.1,0.4,7.2,0.6,11.4c6.5-7.1,9.7-14.7,12.4-23.5c1.1,2.3,1.7,3.7,2.6,5.5
		c4.4-4.4,5.8-10,8.6-15.4c0.5,0.8,1,1.4,1.8,2.6c1.4-3.3,2.5-6,4.1-9.7c0.9,2.5,1.4,4.1,2.4,7c3.8-7.2,7.1-13.4,11.1-21
		c0.5,4.4,0.9,7.2,1.4,11.2c4.6-6,6.7-12.5,12.2-17.6c-0.1,2.3-0.2,3.9-0.3,6c4.4-1.7,6.5-6.3,11.4-7.2c-0.4,5.4-1.2,10.3-4.5,15.9
		c2-1.4,2.9-2,3.9-2.7c0.4,1.4,0.7,2.8,1.1,4.4c1.6-0.3,3-0.6,5-1c-0.4,1.7-0.7,2.9-1.1,4.5c1.1,0.2,2.1,0.5,3.4,0.7
		c-1.2,1.6-2.3,2.9-4.7,6c3.6-2.1,5.3-3.1,8.3-4.8c-2.9,7.6-5.2,13.8-8,21.1c3.9-1.8,7-3.2,10.1-4.5c-4,3.2,0,8.6-4.4,12
		c4-0.3,7-0.5,10.8-0.8c-2.6,10.4-9.5,17.6-15,27.1c7.3-2.8,12.6-7,20-7.5c-3.5,11.7-10.7,20.5-20.2,30.9c5.7-2.6,8.9-4.1,13.3-6.2
		c-4.6,17.1-17,28.2-23.5,43.4c2.3-2.6,4.6-5.2,7-7.8c2.4-2.6,4.8-5.1,7.7-8.2c0.1,14.9-6.7,27.2-10.9,42.5
		c9.7-10.5,18-19.2,20.1-33.6c3.9,21.8-0.1,39.6-14.2,55.3c4.3-3,8.7-6,14.1-9.7c-3,11.6-7.4,20.6-16.7,26.9
		c2.3-0.7,4.5-1.4,7.4-2.3c-2.4,6.6-7.2,10.9-12.4,17c5.6-1.2,9.6-2.1,13.5-2.9c1.7,3.1-7.3,4.1-0.9,8.2c-4.5,4.4-8.4,9.3-13.4,12.8
		c-5.5,3.8-12.5,4-20.4,4.7c9.7,7.9,11.7,17.6,10.9,28.8c-9-4.6-16.9-12.1-28.7-12.6c9.4,9,19,16.9,24.9,30.6
		c-7.1-5.4-12.7-9.3-22.7-10.6c22.9,15.6,27.2,38.8,34.4,60.7c-5.8-12.2-15.9-19.5-28.3-22.1c-17.6-3.8-21.3-19.7-30.3-31.1
		c15.1,14.9,33.8,24.7,52.2,37c-9.7-15.2-26.8-21.9-36.8-38.1c7.4,4,13.2,7.1,20.6,11.1C509.5,435.4,496,427,483,416.3
		c2.6,0.2,4.1,0.3,7,0.5c-12.2-7.7-20.4-17.3-23.8-31.6c6.3,6,11.9,11.4,18.7,17.8c-2.8-0.4-4.1-0.6-5.4-0.8
		c10.1,7.6,17.2,19.4,32.3,22.6c-8.3-8.5-16.8-14.9-23.4-24.3c7.7,3.1,15,4.2,22.4,5.5c-2.4-3-6.1-4.9-14.1-7
		c-5.4-1.4-10.7-2.7-15.4-5.9c-4.5-3.1-8.2-6.7-10.9-13.2c5.3,4.3,9.5,7.7,13.6,11.1c0.1-0.2,0.3-0.4,0.4-0.5
		c-5.4-5.6-10.9-11.2-18.2-18.7c8.9,3.3,15.1,6.2,22,7.3c6.8,1.1,13.5,1.2,22.5-1.1C494,376,479.3,374.4,470,359.5z M503.2,272.4
		c1.8-5.1,7.3-7.8,5.3-13.8c2.5-4.3,4.9-8.5,8.3-14.5c-7.3,5.2-12.1,10.8-18.9,14c7-8.7,13.7-17.1,20.4-25.6
		c-7.8,4.4-12.4,12.4-21.9,17.4c7.5-8.6,13.8-15.9,20.1-23.1c-8.6,3-12.2,11.5-20.6,16.8c5.2-8.7,13.1-14.1,13.5-24.8
		c-11.7,20.5-29.5,35.5-40.8,55.5c5.2-5.5,10.3-11,16.3-17.3c-0.3,6.6-6.6,9.2-6.1,16.2c-1.3,1.7-3.5,4.8-5.7,7.8
		c0.2,0.2,0.5,0.4,0.7,0.6c3.6-4,7.2-7.9,11.2-12.2c-3.3,10.7-3.3,10.7,3.3,9.2c-2.9,5.4-5.6,10.5-9.1,16.9c6.2-4.1,10-8.5,17.1-11
		c-4.7,6.2-10.3,9.5-12.6,15.4c2.1,1.1,4.6-2,5.7,0.5c1.4,3.5-3.4,5-3.8,8.5c3.5-1.8,6.2-4.4,10.2-4.9c1.4,6.8-7.1,7.9-8,14
		c3.5-2,6.5-3.6,9.8-5.5c-0.1,2.8-0.5,4.6-2.2,6.1c-0.8,0.7-1.2,1.7-0.4,2.6c0.4,0.4,1.3,0.7,1.8,0.5c8.5-4.1,15.7-9.9,21.5-17.5
		c-4.3,2.6-8.5,5.2-12.8,7.7c4.9-7.5,13.2-11.7,17-20.8c-2.8,2.2-5.2,3.8-8.4,4.2c0.4-1,0.8-1.8,1.4-3.2c-2,1.5-3.3,2.6-4.7,3.6
		c-0.2-0.2-0.4-0.5-0.7-0.7c1.9-2.3,3.8-4.7,5.7-7c-3.3,1.2-6,3.3-10.7,3.4c5.9-7,13.1-11.6,17.6-20.3c-5.7,4.8-10.4,8.8-16.8,14.3
		c4.7-6.9,7.9-11.9,12-16.3c-5.2,3.7-10.3,7.5-15.5,11.2c7.1-7.5,14.4-14.6,21.7-24.1C516.4,262.3,509.8,267.3,503.2,272.4z
		 M546.5,335.1c-4.5,5-7.5,8.5-11.9,9.9c-7.6,2.4-14.2,6.7-15.6,14.6c-1,5.5-3.4,9-7.1,12.4c-0.6,0.5-1,1.2-1.6,1.9
		c6,2.1,22.9-4,28.3-10.6c-4.3,1-7.9,1.8-12.2,2.8c-0.9-8.1,8.2-8.9,10.1-15.1c-4.9,0.1-7.2,5.3-13,5.7
		c13.6-11.2,27.2-20.5,35.7-35.2c-2.7,1.8-5.4,3.6-8.4,5.7c0.7-1.8,1.2-3,2.4-5.7c-4.1,3.9-7.1,6.7-10.3,9.7
		c-3.8-14,4.7-24.6,8-36.4c-4.1,5.3-12,6-15,13.6c2.7-1.7,4.6-2.9,7.9-4.9c-6.4,9.3-11.8,17.3-18.3,26.6c5.8-2.1,8.1-6.8,13-7.5
		c0.5,7.3-5.4,10.4-9.3,15.4c2.4-0.6,4-1,5.6-1.4c0.6,2.5-3.2,3.9-0.9,5.7c2,1.6,3.4-1.3,5-2.1C540.8,339,542.7,337.6,546.5,335.1z
		 M411.8,249.9c2.3-0.3,3.2-2.9,4.9-1c1.3,1.4,0.3,3-0.2,4.3c-1.4,3.7-3,7.3-8.3,5c-0.5,2-0.9,3.6-1.4,5.8c4.2,0.4,8,0.7,11.5,1
		c-1.8-8.5,6.2-13.7,5.3-21.1c-0.9,0.4-1.8,0.7-2.9,1.2c0.9-8.2,8-13,10.4-21.4C421.9,231.2,416.1,239.7,411.8,249.9z M546.8,253.6
		c7.6-7.5,17-13.3,21.8-23.9c-6.7,2.5-22.7,12.6-23.3,14.9c3.1-1.2,5.9-2.2,9.6-3.6c-3,3.7-7.6,4-9.4,8.4c1.7-0.3,2.8-0.5,4.3-0.7
		C548.6,250.6,547.7,252.1,546.8,253.6z M549.9,376.9c-5,1.6-9.1,3.1-13.4,4.2c-4.4,1.1-8.8,3.1-13.7,1.6c0.6-2.2,2.1-4.3-0.9-6
		c-1.7,3.5-3.8,6.6-7.7,8.1C523.1,389.6,544.6,385.2,549.9,376.9z M525.6,407.6c-3.7-6.4-10-9.3-15.2-13.7c1.8-1.1,3.1-1.8,4.5-2.6
		c-6.5-3.2-13-4.5-22-4.7C504.8,394.2,514.9,400.6,525.6,407.6z M449.3,236.3c-4.6,10.9-9.1,21.4-14.4,33.9c3.3-2.3,4.9-3,5.9-4.2
		c6.6-8.3,7.3-18.6,9.7-28.3C450.6,237.6,450.4,237.4,449.3,236.3z M545.5,279.6c4.7-6.5,9.6-13.3,14.5-20.1
		C552,264.1,540.5,266.1,545.5,279.6z M451.7,253.4c7.6-7,12.4-13.3,16.9-22.3C458.5,236,454.9,243.2,451.7,253.4z M564.1,209.3
		c-11.3,1.5-10.2,11.8-14.9,17.4C554.5,221.6,559.8,216.5,564.1,209.3z M556.8,202c-7.7,1.4-9.3,4.2-8.7,14.9
		C552.2,212.3,554.6,207.6,556.8,202z M535.9,358.6c9.2-1.3,15.9-6.5,20.9-14.1C549.9,349.2,542.9,353.9,535.9,358.6z M457.4,307.4
		c-5.9,3.7-12.5,1.2-19.3,2.3C445.5,313.6,451.9,313.8,457.4,307.4z M490.6,207.4c-3.1,5.3-7.5,8.4-6.8,16.6
		C487.7,218,492.2,214.9,490.6,207.4z M549.6,365.4c-5.5,2.3-11.8,2.9-17,9.2C540.2,372.6,545.5,370.2,549.6,365.4z M555.3,320.4
		c8.2-4.2,9-9.6,8.7-15.7C561.5,309.2,559,313.7,555.3,320.4z M458.8,282.8c6.1-8.4,11.1-15.3,16.1-22.2
		C468.4,266.5,462.7,272.9,458.8,282.8z"/>
	<path d="M337.8,423.8c-4.2-5.7-5.5-12.3-5.2-19.5c0.7,1.5,1.5,3,2.2,4.5c2.7,5.7,5.8,11.1,10.1,15.7c3.3,3.5,6.4,10.3,12,6.7
		c3.9-2.5-1.6-7-2.9-10.5c-16.2-40.7,4-79.8,46.6-89.7c1.5-0.3,3-0.5,4.6-0.5c-24.4,9.4-44.8,22.9-50.3,50.6
		c-2.8,14.2-0.9,28.1,6.5,41c-4.4-21.1-2.1-40.8,11.9-57.9c10.4-12.7,23.2-21.6,41.3-25.2c-26.6,11.6-45.9,27.3-48.6,56.8
		c2.8-8,6.3-15.8,11.2-22.8c5-7.3,11.2-13.1,21-18.5c-5.8,6.2-10.6,10.3-13.9,16.8c21.3-16.7,44.2-19.1,68.8-11.8
		c-1.9-4.5-7.6-8.1-20-13c8.8,0.3,18,5.9,29.5,17.7c-1.8,1.5-3.2,0.6-4.9-0.2c-23.4-11.2-57.5-4.2-74.7,15.1c-3.5,4-3.5,4-4.8,16.8
		c2.4-6.6,4.3-11.9,9.3-15.2c2.6,1.7,0.7,3.6,0.3,5.7c1.1-0.6,1.8-0.9,2.7-1.4c0.1,1,0.1,1.9,0.3,3.2c4.3-3.2,7.8-7,13.5-7.3
		c-3.4,3.2-6.6,6.2-9.8,9.3c3.8-1.4,7-3.3,10.6-4.2c1.9,0.9-1.1,1.4,0.1,2.3c3.8-0.6,7.7-1.1,13.1-2c-4.4,1.9-7.9,1.8-11.1,4.9
		c3.6-0.8,6.4-1.5,10.7-2.5c-2.9,2-4.4,3.1-7.8,5.4c13.6-1,25.6-3.5,36.7,7c-9.2-1.7-15.5-8.3-23.8-5.7c-0.9,0.3-1.9,0.7-1.7,2.5
		c5.4,0.6,10.8,1.1,18.8,2c-4.4,0.8-6.3,1.2-9.2,1.7c5.7,2.8,11.5,3.1,16.9,7.3c-4.2-0.9-7.2-1.6-13-2.8c6.2,4.7,10.3,7.8,14.3,10.8
		c-0.2,0.3-0.3,0.6-0.5,0.9c-5.1-2-10.1-4-15.2-6.1c9.3,4.7,17,11.8,27.1,17.1c-10.5-0.9-16.3-10.1-28.2-11.5
		c5.7,3.1,9.1,5,13.6,7.4c-2.3,0.7-3.5,1-5.3,1.5c4.8,3.6,9.3,7,13.7,10.4c-0.2,0.4-0.3,0.7-0.5,1.1c-6.2-1.8-12.5-3.5-18.7-5.3
		c2.8,4.1,8.2,4.7,10.7,9.5c-3.9-0.7-7.1-3.7-12.6-1.8c5.7,2.5,10.2,4.4,14.7,6.4c0,0.4,0,0.9,0,1.3c-4,0-8,0-12,0
		c0.1,0.4,0.2,0.8,0.3,1.2c-2.1-0.6-4.2-1.1-6.2-1.7c5.3,3.9,11.7,5.8,16.8,11.8c-3.8-1.4-6.4-3.8-10.1-2.9c0.8,0.8,1.3,1.5,2.2,2.5
		c-4.8-1.2-9.1-2.3-16-4c4.8,3.8,7.3,5.9,11.2,8.9c-3.8-1-5.9-1.5-9.4-2.4c16,15.1,28.4,31.2,35,51.2c-9.3-15.5-20.4-29.2-36.5-38
		c-16-8.8-33.5-11.9-51.5-13.4c16.9-4.1,33.3-1.8,49.6,3c-30.9-20.3-61.9-40-100.6-18.5c-0.8-3.2-0.8-3.2,4.2-13.3
		c-8.4,1.9-15,8.8-23.8,25.7c-3.4-7.8-2.9-18.2-14.8-19.8c3.1,3.8,8.2,5.5,7.9,11.1c-21.2-14.8-43.6-13-65-3.1
		c-31.3,14.4-57,35.7-71.7,68c-0.9,1.9-1.6,3.9-2,6.1c9.1-10.8,19.6-19.8,32.3-26.3c-19,15.5-33.2,34.5-42.5,57.4
		c-0.3-4.5-0.7-9-1-13.6l0,0.1c0.9-3.1,2.2-6.1,2.8-9.3c4-19.8,13.8-36.5,26.8-51.6c1.3-1.5,2.6-3.1,3.4-5.3
		c-3.4,2.8-6.8,5.6-11.5,9.5c2.6-6.7,6.6-10.3,11.5-15.4c-6.6,2.6-9.3,8.3-16.3,10.4c4.2-7.2,9.9-10.1,15.3-14.1
		c-5.7-0.9-10.3,6.6-15.9,0.6c2.3-1.3,4.6-2.6,6.8-3.9c-0.1-0.2-0.1-0.4-0.2-0.6c-2.1,0.8-4.2,1.6-8.4,3.1c4.4-3.1,7.2-5.1,9.9-7
		c-0.1-0.2-0.2-0.4-0.3-0.6c-3.7,1.7-7.3,3.5-11,5.2c-0.2-0.4-0.5-0.8-0.7-1.2c4.2-2.9,8.4-5.7,12.6-8.6c-0.2-0.3-0.4-0.6-0.5-0.9
		c-4.7,2.3-9.5,4.7-14.2,7c5-2.8,6.5-8.3,12-13.9c-6,2.8-9.6,4.5-13.3,6.1c-0.2-0.3-0.3-0.5-0.5-0.8c4.8-3.2,9.5-6.3,15.5-10.3
		c-5.3,0.4-8.5,2.6-13.5,5.1c4.4-4.5,8.4-5.6,12.9-7.4c-4-1.6-7.1,0.6-10.5,0.6c1.7-3.6,5.4-3.5,8.4-5.9c-2.5,0-4.3,0-7.9,0
		c3.1-1.1,4.5-1.6,6.8-2.5c-2-0.4-3.1-0.7-4.7-1c1.5-0.8,2.7-1.4,4.8-2.5c-2.9-0.2-4.8-0.3-8.1-0.6c7.1-2.6,13.1-2.8,19.3-2.2
		c-3.6-1.1-7.1-2.2-12.2-3.8c3.7-0.7,6-1.1,9.3-1.7c-2.5-0.8-4.2-1.3-6.6-2.1c5.7-1.1,10.1,1,15.2,1.1c-2.3-1.3-4.6-2.5-7.3-4
		c4.2-1.1,7.6,0.8,12.5,1.2c-6.6-4.1-13-3.9-20.3-4.8c9.3-2.4,16.9,0,25.2,3.1c-2.6-4.9-7.3-5.8-10.2-9.6c4,1.3,8,2.6,14.1,4.7
		c-6.3-5.5-12.3-6.4-18.8-8.6c4.9,0,8.6,0,13.1,0c-1.8-1.4-3.2-2.5-5.4-4.1c5.9,0.7,9.9,3.7,14.5,6c0.1-3.3-2.9-4.1-4.6-6.5
		c6.1,1.6,8.8,6.2,12.7,10.8c-0.8-4.9-3.8-7.5-6.2-11.6c4.2,2,8.7-0.9,11.5,3.5c1.3-2.1-0.9-3.1-0.9-4.9c3.6,2.6,4.3,6.9,7.8,11.1
		c-0.3-4.5-0.5-7.7-0.8-12c1.6,2,2.5,3.2,3.7,4.6c0.3-0.9,0.6-1.7,0.9-2.6c2.9,3.5,3.1,7.7,4.4,11.8c1.7-2.9,1.2-5.8,1.1-9.2
		c2.6,1.8,2.7,4.1,3.7,6c3.2,2.2,2.6,6.3,4.1,10.1c2-7.6-0.5-13.2-5.6-18c-15.4-14.4-33.8-17.5-53.9-14c-0.7,0.1-1.4,0.2-2.5,0.3
		c13.1-7.2,37.7-10.6,62.7,12c-1.2-5.2-7.9-11.9-20.6-20.6c22.1,4.7,39,34,34.3,59.6c6.4-7.9,7.1-21.3,1-33.5
		c-14.7-29.4-39.8-35.6-71.1-29.5c27.5-14.4,76.1-1.4,81.2,48.6c2.4-5.6,1.8-10.5-4.5-33.7c5.9,9.1,9.2,17.1,9.1,26.3
		c-0.1,9.1-3.5,17.4-5.6,26.1c1.2-1.9,2.4-3.9,4.5-7.2c-0.5,3.7-0.8,5.9-1.3,9.6c7-9.2,5.8-19.3,9-29.5c0.9,9.4,2.1,17.4-0.3,26.6
		c5.3-7.5,7-15.1,8.7-25.1c2.5,10.8-1.3,18.5-3.5,26.5c5.5-10.7,11.4-21.1,11.9-33.5c1.5,11.7-2.4,22.5-4.8,33.6
		c6-7.2,6.2-16.3,7.9-26.3c2.3,5.6,1.9,10,1.1,14.4c-0.8,4.3-1.9,8.7-2,13.1c3.4-8.3,3.7-17.1,5.4-28.6c1,6.1,1.6,9.7,2.3,13.5
		c1.2-0.2,3.3-0.9,3,2.1c0.2-1,0.3-2,0.7-3.8c2,6.5,3.7,12.1,6.2,20.1c1.7-10-1.6-17.6-1.4-26.6c0.8,2.4,1.2,3.5,2,6
		c0-6.2-1.9-10.9-0.2-17.8c2.4,11.7,4.3,21.4,9.3,30.4c-2.2-11.4-7.1-22.4-5.8-34.5c2.7,0.6,2.9,2.6,3.3,4.5
		c1.7,8.2,3.1,16.5,6.4,24.3c0.5,1.2,0.8,3.1,2.8,2.4c1.8-0.7,1.8-2.2,1.3-3.9c-1.3-4.4-2.6-8.9-4.1-14.1
		C329.2,413,326.5,425,337.8,423.8c-2.3,2.7-6,5.7-3.2,9.3c2.3,2.9,6.1-0.2,9.8-0.6C342,429.3,339.9,426.5,337.8,423.8z
		 M410.9,450.7c8,0.3,16.3-11.5,16.1-23.1c-0.1-8.6-7.4-18.6-13.3-18.3C427.3,430.7,427.2,431,410.9,450.7z M190.1,419.4
		c-7.1,3.3-11.4,12.9-10,20.6c1.6,9.2,7.9,16.9,15,17.6C180.3,446.6,181.8,433.7,190.1,419.4z M220.8,426.5
		c-0.4-3.9-2.7-5.9-6.4-6.1c-3.8-0.2-6.3,1.9-6.5,5.7c-0.2,3.8,2.1,6.2,5.9,6.3C217.8,432.6,220.3,430.6,220.8,426.5z M400.1,419
		c-0.2-3.6-1.9-5.5-5.3-5.5c-3.5,0-5.7,1.7-5.8,5.3c-0.1,3.4,1.9,5.3,5.2,5.3C397.6,424.1,399.8,422.4,400.1,419z"/>
	<path d="M126.9,489.9c-8.9,14-24.1,19.3-32.1,33c10.8-3.7,20.2-8,28.4-17.9c-3,13.4-6.5,24.1-16.6,31.3c6.2-2.5,9.7-8.1,15.2-11.7
		c-0.6,8.8-9.6,18.2-20.7,22.4c-9.8,3.7-21,2.4-30.1,8.8c11.1-15.1,31.8-18.1,43.6-35.2c-13.4,6.4-25.9,10.5-36.6,18.6
		c6.8-9.4,15.2-17.6,21.6-28.3c-4.5,1.1-8.4,2.1-14.2,3.5c14.6-9.5,23-23.2,37.2-32.8c-2.5,9.7-9.8,13.8-16.2,20.9
		C114.5,499.5,120,495.1,126.9,489.9z"/>
	<path d="M279.1,338.3c10.8,6.5,16.5,16.8,21.3,27.9c-0.9-15.1-7.2-28.5-13.1-42.1c6.4,7.3,10.2,16,15,25.4
		c0.4-4.6,0.7-8.2,1.1-11.7c0.2,0,0.4,0,0.5,0c0.3,4.1,0.5,8.3,1,14.5c3.5-6.2,5.9-10.6,8.4-15c-1.9,10.7-6.8,20.6-6.9,32.6
		c1.8-2.5,3.1-4.4,4.4-6.2c-2.4,11.2-2.8,22.6-5.3,35.4C297.5,377.2,299.4,353,279.1,338.3z"/>
	<path d="M202.9,467.4c14.6-12.2,31.3-17.4,50.4-14.9C236.7,457.8,218.6,458.4,202.9,467.4z"/>
	<path d="M166.3,298.7c13.6-5.4,37.4,1.1,40.4,11.1C193.5,305.2,181.2,300,166.3,298.7z"/>
	<path d="M164,522.2c14.7-19.4,32.6-34.4,56.9-40.4C199.6,491.9,180.8,505.6,164,522.2z"/>
	<path d="M357.6,431.1c-13.7-12.1-20.6-42.2-13.5-56.8C342.6,394.8,347.6,412.4,357.6,431.1z"/>
	<path d="M203.3,352.3c4.1-7.1,10.3-6.4,16.4-9.3c-5.8,0.8-9.9,1.4-14.2,2.1c6.4-6,22.8-7.8,29.9-3.4
		C225.7,346.5,214.4,345.9,203.3,352.3z"/>
	<path d="M242.2,445.8c21-7.1,47.6-0.4,57.8,15.4c-9-7.7-17.7-12.1-27.5-13.9C262.9,445.6,253.2,444.7,242.2,445.8z"/>
	<path d="M330.2,330.3c6.1-9.6,30.2-16.5,40.3-10.7C355.3,318.6,343.5,326.9,330.2,330.3z"/>
	<path d="M456.2,328.6c-17,0-28.8-7.6-40.2-16.3C428.8,317.5,441.6,322.7,456.2,328.6z"/>
	<path d="M296,394.5c-3-11.1-5.8-21.9-8.9-33.7C295.7,367.2,299.8,383.8,296,394.5z"/>
	<path d="M450.2,581.6c-5.4-18.3-16-33.6-27.2-48.6C434.4,547.9,449.8,560.6,450.2,581.6z"/>
	<path d="M362.3,279c-4.7,7.9-11.5,12.6-17.5,18.7C342.6,291,353.3,279.7,362.3,279z"/>
	<path d="M180.4,325.4c3-6.3,19-9.5,26.9-5.4C198.3,324,189.4,322.7,180.4,325.4z"/>
	<path d="M186.8,341c-6.3,3.3-11.2,5.9-16.8,8.9c1-1.8,1.6-2.9,2.5-4.6c-7.3,3.2-13.5,7.3-20.1,12.3
		C155.7,348.6,168.8,342.4,186.8,341z"/>
	<path d="M386.1,346.7c-11.4,8.8-19.6,20.2-27.3,32.1C363.3,364.2,372.5,353.5,386.1,346.7z"/>
	<path d="M285.8,375c-6.1-9.8-8.3-22.5-21.2-27.1c2.8-1.5,4-1.5,6.8,0.7C279.9,355.3,285,364,285.8,375z"/>
	<path d="M474.4,570.2c-6.9-8.9-1.3-19.2-3.2-28.7C477.8,550.4,470.4,560.9,474.4,570.2z"/>
	<path d="M144,537.9c-2.1,9.4-7,17.2-13.7,23.9c4.8-7.1,7.2-15.1,9.4-23.3c0.8-3.1,2.6-2.4,4.3-0.6C144,538,144,537.9,144,537.9z"/>
	<path d="M419.9,378.4c10.8,0.5,22.1-0.1,29.7,10.3C440.2,383.6,430.4,380.2,419.9,378.4z"/>
	<path d="M139.3,391.9c2.2-8.8,15.1-19.1,24.4-19.5C152.7,374.9,147.9,385,139.3,391.9z"/>
	<path d="M486.2,477.9c-5.1-7.8-12.8-13.3-17.8-21.1C476.1,462.3,483.8,467.9,486.2,477.9z"/>
	<path d="M497.5,506.4c-10.4-1.7-13.3-8.6-18-16.9C486.1,495.7,491.1,500.4,497.5,506.4z"/>
	<path d="M461.2,461.5c7.2,7.1,10,14.6,10.7,23.2C468.5,477.4,465.2,470.2,461.2,461.5z"/>
	<path d="M330.2,351.4c-3.1,5.7-5.9,11-8.9,16.5C320.2,361.4,325.4,351.6,330.2,351.4z"/>
	<path d="M469.7,403.5c4.8,4,6.6,9.7,8.4,15.4C474.1,414.4,470.3,409.8,469.7,403.5z"/>
	<path d="M136.9,502.1c-2.1-6.4,0-11.6,4.9-15.9C140.2,491.5,138.5,496.8,136.9,502.1z"/>
	<path d="M519,504.1c6.8,2.7,10.7,8.4,13.3,15.2C527.9,514.2,523.5,509.2,519,504.1C519.1,504.1,519,504.1,519,504.1z"/>
	<path d="M451.5,380c-4.2-4-7.6-8.6-12.3-12C445.6,369.7,449.4,374.1,451.5,380z"/>
	<path d="M350.8,337.7c6.3-5.3,11.9-6.9,18.2-6.3C363.6,333.3,358.1,335.2,350.8,337.7z"/>
	<path d="M482.2,514.7c4,4.5,5.6,10.1,7.1,15.7C485.8,525.7,483.2,520.6,482.2,514.7z"/>
	<path d="M469.5,525.9c6,8.4,6.6,10.2,5.4,15.6C472.2,536.8,470.6,532.4,469.5,525.9z"/>
	<path d="M42.9,345.4c7.7,3,14.2,5.5,21.3,8.3C57.1,356.5,47.6,352.9,42.9,345.4z"/>
</g>
</svg>
