<?xml version="1.0" encoding="utf-8"?>
<!-- Generator: Adobe Illustrator 24.2.3, SVG Export Plug-In . SVG Version: 6.00 Build 0)  -->
<svg version="1.1" id="Layer_1" xmlns="http://www.w3.org/2000/svg" xmlns:xlink="http://www.w3.org/1999/xlink" x="0px" y="0px"
	 viewBox="0 0 595.3 841.9" style="enable-background:new 0 0 595.3 841.9; fill: #215342;" xml:space="preserve"
	 height="350" width="375" transform="translate(-10, -20)">
<g>
	<path d="M413.7,448.9c6.1,7.5,6.8,14.8,8.6,22.4c0.6-1.1,1.1-1.6,1.1-2c-0.6-17.4,1.2-35.6-8.1-51.3
		c-11.1-18.9-18.7-39.5-29.3-58.5c-1.2-2.2-2-4.6-2.3-7.4c1.2,1.7,2.4,3.4,3.6,5.2c-3-20.5-7.4-40.4-22-56.4
		c7.2,4.8,10.6,12.2,15.5,19.5c0-1.7,0-2.7,0-3.7c5.3,19.5,6.1,40.3,19,58.3c-0.9-13.1,1.6-25.3,0.9-37.7c0.4,2.8,0.8,5.6,1.3,8.4
		c2.7-9.6,2.9-19.2,0.9-28.8c-1.2-5.8-3.3-11.3-4.7-17.1c-2.2-8.7-4-17.5-7.8-25.8c-2.3-5-4.6-9.8-8-14.1c-1.2-1.5-2.4-3.4-0.3-5.1
		c2-1.7,3.8-0.9,5.4,0.7c8.7,8.8,16,18.7,23.6,28.4c0.3,0.4,0.7,1,0.6,1.3c-3,8.4,5.4,11.9,7.8,17.9c0.6,1.5,2.3,2.6,1.4,4.7
		c-3.2-0.5-3.5-4.7-6.7-5.1c-1.2,1.9,0.8,3.4,0.5,5.5c-0.8-1.2-1.4-2.2-2.1-3.2c-0.2,0.1-0.5,0.2-0.7,0.3c1.2,3.2,2.5,6.5,3.5,9.7
		c0.6,1.9,1.7,4.2-2,4.4c-1,0-1.1,0.9-1,1.6c1.1,10.3,0.9,20.8,3.9,30.9c0.1,0.4,0.6,0.7,1.1,1.3c0.8-1.3,1.4-2.4,2-3.5
		c0.4,0.1,0.8,0.1,0.8,0.2c6.2,10.6,10.4,21.8,9.8,34.1c-0.1-0.1-0.3-0.5-0.5-0.9c1.2,8.2,3.6,16.3,3.4,25c-3-0.9-2.3-4.1-6.3-6.2
		c2.1,13.2,6.2,24.9,4.8,37.3c0.9-2.3,1.8-4.5,2.7-6.9c2.6,4.3,5.9,8.2,3.2,13.5c-0.5,1,0.5,2.2,1.7,2.4c1.8,0.3,3.5,1.5,5.5,0.1
		c7.2-5.1,10.5-12.3,11.3-20.8c0.2-2.1,1.3-3.4,2.8-5c3.5-3.6,2.5-8.2,0.1-12.2c-2.6-4.4-4.9-9-10.3-13.9c3.8,1.4,5.5,2,7.3,2.6
		c1-2.9-1.3-5-0.9-8c7.9,1,5.2-3.4,3.4-7c-3.6-7.1-5.4-14.5-5.6-22.6c-0.2-7.1-2.5-13.9-7.8-20.7c8.8,5.9,15.2,11.9,16.3,22.5
		c1.7-4.6,1-10.6-1.5-16.4c-3-6.7-7.2-12.8-13.3-16.9c-8.4-5.6-13.8-13.2-17.5-22.5c-4.3-10.8-7.4-22.3-16.7-31.4
		c8.5,0.8,13,6.5,19.2,12.2c-7.9-23-27.4-32.2-45.3-45.2c4.4,0.7,7.9,3.1,9.8-0.5c2.4-4.6-5.2-2.8-4.5-7.4
		c8.6,0.5,15.7-3.4,22.2-9.2c-8.6,3.5-17,2.6-25.2,0.1c-0.7-5.9-4.9-8.7-9.7-12c6.8-0.5,12.9-1.5,18.9,1.2
		c-16.1-11.7-34.5-6.9-52.5-7.8c2.9-0.6,5.6-1.3,8.4-1.8c2.8-0.5,5.7-0.7,8.6-1.1c-8.6-6.8-34.7-5.6-46.2,2
		c2.2-4.6,10.8-10,19.6-12.6c8-2.3,15.9-1.7,24-1.1c-11.4-5.8-23.3-5-35.3-2.3c-12.3,2.8-22.2,9.6-31.1,18.8
		c-1.4-6.3,4.1-13.2,18.6-24.8c-6.1-0.7-17.1,7.7-25.8,20.2c2.4-6.4,6.5-10.1,10.6-14.2c-13.4,2.1-23.6,17.7-26.5,40.6
		c-0.9-3.7-1.4-6.5-2.3-9.1c-1-2.7-2.4-5.2-4.4-7.4c0.6,1.4,1.2,2.8,1.8,4.2c-0.2,0.1-0.3,0.2-0.5,0.3c-1.3-1.6-2.6-3.2-3.9-4.9
		c3.1,7.4,5.1,14.9,5.4,25c-4.1-22.8-12.9-39.6-35.3-45.2c6.6,3.7,12.3,8.5,16.3,15.1c-7.9-10.6-19.5-14.1-33.1-16.9
		c6.7,4.3,13,6.6,17,12c-8.3-5.5-17.9-8.8-26.1-15.7c9.8-4.8,20-7.1,30-9.4c71.6-16.1,137.9-4,198.7,37.3c3.7,2.5,7.6,5,10.6,8.1
		c6,6.2,12.2,2.9,19.9,1.6c-4.6-1.8-8.1-2.8-11.1-4.5c-2.9-1.7-5.4-4.2-8.7-6.9c6.5-1.2,11.9-2.6,17.5-3.1c5.3-0.4,9.4-3.9,14.6-4.4
		c2.5-0.3,5.3-0.6,6,1.6c0.9,2.9-2.4,2.6-4.1,3c-3.5,0.9-7,1.7-10.5,2.4c-3.9,0.9-5.2,2.5-2,5.8c1.1,1.1,1.9,2.5,2.9,3.7
		c2.1,2.3,2,4-0.7,5.8c-3.5,2.4-3.1,4.2,0.8,6.3c3.4,1.8,6.4,4.7,9.2,7.5c2.2,2.2,0.6,5.4,0.7,8.1c0.1,1.6-2.8,1.2-4.5,1.2
		c-4,0.2-8,0.2-12,0.3c-1.1,0-2.8-0.3-2.9,1.3c-0.1,1.1,0.3,2.9,1,3.3c6.8,3.2,4.1,8.5,3.2,13.4c-0.3,1.8-1.3,4,1.1,5.1
		c2.7,1.3,4.3,4.5,8.6,2.9c4-1.4,8.7-0.8,14-1.1c-2.3,2.9-4,4.8-6.9,5c-1.4,0.1-2.6,0.7-2.5,2.4c0.1,1.5,1.4,2.4,2.5,2.1
		c11.1-2.8,21.1,4,32.2,3.3c9.4-0.6,18.7-4.2,28.4-1c0.1,1.5-2.5,3.6,2,5.5c-3.1,0-4.6-0.2-6.1,0c-4,0.7-8.2-1.4-12.1,3
		c-2,2.2-8.3,0.8-12.6,0.6c-5.3-0.2-7,0.9-4.2,6.4c7.9,15.7,13.5,32.2,16.5,49.6c0.7,3.8,4.3,6.6,4.5,10.9c0.1,1.3,2.1,0.9,3.2,0.8
		c7.6-0.2,15.2-0.5,22.8-0.7c1.8,0,3.6-0.4,5.4,0.9c-1,3.1-3.7,3.2-5.9,2.9c-7.7-0.8-14.2,1.5-19.9,6.5c-0.4,0.4-1,0.7-1.6,0.8
		c-4.6,0.4-5.8,2.5-5.2,7.2c1.6,12.7,1.6,25.5,0.1,38.3c-0.3,2.6,0.4,4.1,2.3,5.9c7.1,6.4,13.5,13.5,17.7,22.3
		c1.3,2.8,2.6,5.7,1.2,9.9c-5-7.2-10.1-13.5-16.3-18.7c6.3,3.4,11,8.7,15.2,14.5c0.1-3.3-2.1-8-6.3-13c-2.6-3-5.4-5.9-8.2-8.7
		c-6.8-6.6-14.4-12.4-21.2-19.1c-4.8-4.6-10.9-7.4-18.2-6.1c-2,0.4-4.2-0.3-6.2-1c8.8-3,17.3-2.1,26,1.9c-3.3-5.7-9.3-7.2-33.1-8.1
		c6.7-2.9,13-1.6,21.3-1.9c-10.6-5.8-20.3-5.8-30.5-5.9c1.6-3,4.8-4.3,5.4-8.3c-3.8,2.1-6.6,4.5-10.7,5.2c2.6,6.7,5.3,13.1,5.3,19.8
		c0,12.2,2.8,24.2,2.6,36.3c-0.1,7.9-3.8,14.5-9.4,21c-11.1,12.8-20.8,27.2-21.8,45.2c-0.5,8,3.8,14.5,7,21.5
		c-1.7-2.5-3.4-5-5.3-7.8c0.2,1.9,0.4,3.5,0.7,6.2c-4.8-3.8-5.5-9-8.5-14c-1.1,23.1,17.2,33.8,28.4,49.6
		c-16.1,9.7-31.3,20.8-43.9,35.6c4.7-5.9,1.4-11-0.8-16.5c3.4,2.8,4.9,5.9,5.5,11.1c8-10.7,15.7-21.1,12.2-35.5
		c2.5,2.7,2.5,2.8,3,12.9c5.5-7.4,3.4-14.8,2.3-23.3c3.6,6.1,7.4,10.6,11.9,14.5c-6.6-12.5-11.5-26-22.9-35.5
		c-2.2-1.8-2-6.3-3.2-9.4c-3.6-9.5-5.6-19.6-10.5-28.8c-1.6-3-2.9-6.7-2.1-11c1.8-9.7-0.4-19.4-1.9-29.1
		C414.6,452.9,414.3,451.9,413.7,448.9z M460.5,437.5c-7.4,4.1-9.5,12.7-5.2,20C457.9,451.1,461.2,445.1,460.5,437.5z"/>
	<path d="M155.2,382.4c1.6-5.9,3.2-11.8,4.8-17.6c-1.1,16.4-6.4,31.8-9.8,47.8c1.8-4.4,4.1-8.6,5.5-13.1
		c6.1-19.8,20.6-31.1,38.8-38.9c10.8-4.6,22.6-7.4,31.2-17c-0.8,4.1-4,7.3-9.7,10.2c-10.7,5.5-22.5,8.8-32.9,14.9
		c-9,5.3-16.1,12.3-20.8,21.6c-0.7,1.5-1.2,3.1-1.4,4.9c4.7-4.9,9.5-9.4,16.9-13.3c-7.4,8.2-16.5,13-18.3,23.6
		c3-7.6,9.9-10.2,16.5-13.2c-14.7,10.9-23.8,26-31.3,42.5c2.5-3.3,5.1-6.5,7.6-9.8c-4.4,16.9-17.3,27-29.2,38.1
		c1.9-0.9,3.7-1.7,6.4-2.9c-6.7,8.1-5,17.2-6,25.7c-1.1-7.2-1.1-14.3,1.2-21.6c-2.9,1.1-5.2,2.1-9.4,3.7c3.4-4.5,5.6-7.6,8-10.8
		c-2.8-1.4-5.4,0-7,0.9c-3,1.6-6.4,2.7-9.3,3.7c-14.8,5.4-22.8,19.5-36.5,26.7c-11.1,5.8-19.8,16.4-23.3,30.4
		c-2.1-6.5-4.1-12.3-7.9-17.3c-2-2.6,0-6.1,0.1-10.8c-5,7.9-8.2,14.6-5.9,23c-2.4-2-3.8-5.9-4.2-11.4c-0.7-11.2,1.2-21.8,6.3-31.9
		c1.7-3.4-0.8-7.5,1.4-12.8c-4.7,4.1-4.5,8.3-5.9,13c-1.5-9.5,1.3-17.3,4.5-24.8c2.6-6,6-11.7,11-16c3.8-3.3,2.8-7.1,2.1-11
		c-0.3-1.8-1.8-1.1-2.9-1.2c-2.7-0.2-5.5-0.3-7.2-2.8c3.6-3.7,6.8-7.2,12-8.5c4.9-1.2,9.1-4.1,13.5-9.2c-5.7,2.4-10.1,4.2-15.1,6.3
		c-0.4-10.1,0.5-19.6,1.5-29c1.6-14.5,5.1-28.7,9.4-42.6c0.6-2,0.3-4.6,1.4-6.2c3.4-5.2,3.2-8.7-3.5-10.2c-1.9-0.4-2-1.8-1.3-3.4
		c0.7-1.5,1.4-3.1,2.1-4.6c2-4,1.5-6.2-3.6-5.9c-3.3,0.2-6.7,0-10.6,0c1.7-6.7-2.9-5.8-6.7-5.7c-4.9,0.2-9.9,0.5-14.8,0.7
		c-1.1,0-2.7,0.6-2.8-1.3c-0.1-1.4,1-1.9,2.4-2.1c13.1-1.3,25.8-5.3,39.1-5.2c3.6,0,5.9-3,5.7-6.9c-0.1-3.4,0.9-5.3,4.6-5.3
		c4.5-0.1,8.9-0.4,13.4-0.8c0.9-0.1,2.2-0.4,2.5-1c3.5-7.4,11.6-10.1,16.2-16.2c16.7-21.8,38.6-37.5,61.5-52
		c5.3-3.4,29.9-15.8,36.1-14.4c3.9,0.9-10.1,11.4-5,13.4c-21.9,4.5-39.4,14.4-53.6,30.2c2.9-1.6,5.8-3.2,8.7-4.8
		c0.2,0.3,0.4,0.6,0.6,0.9c-2.7,1.7-5.4,3.5-9.1,5.9c3.1-0.7,5-1,6.9-1.4c-9,5.4-15.6,15.1-27.5,15.1c4,2.7,7.7,0.9,11.5,0.2
		c1.2-0.2,2.7-1.4,3.6,0.1c0.9,1.5-0.6,2.4-1.5,3.3c-6.3,7-12.6,14-18.9,21c-1.8,1.9-2.7,3.8,0.7,5.9c-6.7,3.6-12.5,2-18.3-1.3
		c-1.3,7.1,3.3,8.5,21.9,7.2c0.4,4.1-3.1,4.9-5.4,6.1c-9.1,4.8-17.2,10.7-23.9,18.6c-5,6-8.5,12.6-10.1,20.2
		c-0.3,1.3-0.8,2.6,0.8,4.1c4.4-7.2,8.3-14.8,16.4-20.7c-1.4,3.8-2.2,6.5-3.3,9.1c-3,7.3-4.5,15.1-4.9,22.9c-0.2,3.3-1.5,5-4.3,6.4
		c-4.9,2.3-8.9,5.8-11.4,10.8c-0.6,1.3-1.5,2.5-0.1,4.7c4.1-4.4,6.9-10.2,14.1-11.7c-3.6,4.4-8.6,7-9.5,12.1
		c-2.4,13.3-6.7,25.3-19.6,32.8c3,1.7,4.7,0.2,6.6,0.3c1.1,0.1,2.6-0.9,3.2,0.6c0.6,1.3-0.5,2.2-1.3,3.2
		c-7.1,8.4-11.5,18.7-19.2,26.7c-2.1,2.2-2.7,5.5-2.8,8.8c0,2,0.2,3.3,2.5,3.2c-0.8,1.7-1.5,3.1-2.4,4.9c5.5,0,10.5,0,17.4,0
		c-8.5,3.9-15.6,6.6-20.6,12.7c-4.8,5.9-9,12.1-10.7,20.4c4.5-0.8,6.6-3.8,9.1-6c3.2-2.8,6.2-4.8,10.7-3.6c2.7,0.7,4.9-0.8,6.7-2.8
		c8.8-9.6,18.7-18.4,22.1-31.8c0.1-0.4,0.5-0.7,0.9-1.2c2.5,7.3,5.8,14.3,3.4,22.3c2.2-6,4.5-12,6.9-18.3c3,3,1.7,6.9,3.9,10.7
		c8.4-13,13.6-28.3,29.5-33.3c0.4,0.9-1.7,4.5,1.1,5.2c2.5,0.6,3.2-3.1,4.4-5.1c7.4-11.2,10.6-23.7,11.6-36.9
		c3.4,1.7,3.1-1.1,3.2-2.8c0.3-7.3-1.4-14.4-2.4-21.6c-2.8-19.7-2.9-39.2,3.9-58.3c0.4-1.1,1.1-2.2-0.3-3.5c-1,1.1-2,2.2-3.7,4
		c1.5-6.6,5.2-11.6,5.6-18.6c-5.7,3.8-10.8,7.2-15.8,10.5c8.6-4.7,10.7-14,15.6-21.3c-1.9-1.4-4,1.3-5.8-1c2.1-4.1,7.4-5.2,10.3-10
		c-3.6,0.5-6.5,0.8-10.1,1.3c4.8-4.2,11-4.4,15.2-8.1c2.1-1.8,4.3-3.5,5.6-6.1c0.9-1.9,2.8-3.6,4.9-2.6c2.2,1.1,0.7,3.4,0.1,4.8
		c-2.4,5.1-5.2,9.9-6.2,16.1c1.9-1.1,3.4-2,4.9-2.8c-10,10.4-16,22.5-18,37.5c3.4-4.8,6.4-8.9,9.4-13c-6.5,11.4-11.3,23.1-11.2,38.5
		c2-4.5,3.2-7.2,4.4-9.9c-2.8,12.4-4.9,24.8-2.4,38.5c0.9-2.4,1.4-4,2-5.6C150.7,360.1,152.7,371.3,155.2,382.4
		c-0.9-1.9-1.9-3.9-3-6.1c0,4.4,0,8.4,0,12.4c0,0.9,0.2,1.8,0.4,3.3C156.8,389.2,154.6,385.4,155.2,382.4z"/>
	<path d="M208.7,528.4c-0.8-4.3-1.5-7.8-2.2-11.2c-4.8,4.8-5.1,17.5,2.3,26.5c-2.9,0.6-2.9,0.6-10.5-6.6c-0.6,0.8-1.3,1.6-1.6,2
		c0.2-11.8-4.2-24.1,3.1-35.7c-1.6,8.9-3.4,17.6,0.8,27.8c1.1-11.9,6.6-20.5,10.1-29.9c-0.3,1.7-0.6,3.4-0.9,5.1
		c7.5-20,23.8-31.1,41.7-40.7c-1.5,1.8-3.1,3.5-5.7,6.5c4.5-2.4,7.6-4.1,10.6-5.7c0.2,0.3,0.4,0.5,0.5,0.8
		c-4.5,3.4-8.9,6.9-13.5,10.2c-3.4,2.4-5,5.4-4.6,9.5c1.3,11.8,3.8,23.2,11.1,33.5c0-2.8,0-5.6,0-8.4c-0.2-11.3-0.6-22.7,1.8-33.9
		c1.2-5.4,5.1-7.4,10-10.1c-0.4,2.3-0.7,3.8-1,5.4c3.5-5.7,10.5-7,15-11.8c-0.5,2-1.1,4-1.6,6c7.8-3.6,9.4-10.5,10.5-18.1
		c-11.8-0.3-19.4-9.5-29.8-13c-9.2-3.1-10.7-13.3-11.4-22c-1.6-20.5,7.9-30.6,30.4-33.7c5.1-0.7,10.2-1.1,16.1-0.6
		c-2.4,2.2-4.8,2.3-7.1,2.4c-9.4,0.4-17.4,3.7-23.5,11.1c-0.9,1.1-2,2.2-2.5,3.5c-1.1,3.2-3.4,6.9-0.3,9.8c3,2.9,5.5-0.8,7.9-2.2
		c4.7-2.7,8.8-3.7,14.5-1.1c4.3,1.9,10.7,2.7,13.9-3.8c1-1.9,2.4-3.6,5.5-4.1c-1.2,2.2-2.1,4-3,5.9c-0.6,1.2-0.7,2.3,0.4,3.3
		c1.1,1,2.3,0.7,3.3,0c5.8-4.2,12-5.3,18.8-2.7c2,0.8,4.3,0.1,5.4-1.9c1.1-1.8-0.1-3.6-1.3-4.9c-1.2-1.3-2.8-2.2-4.4-3.4
		c3.4-4.2,0.1-6.2-3.1-7.5c-4.6-1.8-9.4-3-14.1-4.5c22-1.2,38.1,6.7,32.9,35c-1.6,9-6.1,15.8-13.9,21.1
		c-6.6,4.5-11.5,11.5-19.4,14.2c-1.8,0.6-4,0-6-0.1c-2.6,0-4.2,0.5-3.3,3.8c0.7,2.4,1.4,4.8-0.6,7.4c-1.6,2.1,4.2,7.5,7.4,7
		c-0.6-1.2-1.1-2.4-2.1-4.4c4.2,2.4,7.5,4.3,11,6.2c0.9-2-1.1-2.4-1.3-4.8c5.1,3.5,8.1,7.4,9.2,12.9c2.6,13.5,3.6,27,1.4,40.7
		c-0.1,0.7,0,1.3,0,2.9c5.8-5.4,8.5-11.7,10.7-18.1c1.1-3.2,1.4-6.6,2.3-9.8c2.1-7.5-1.8-12-7.8-15.7c-0.5,1.6-1,3.2-2,6.6
		c-0.8-5.8,0.2-9.7-0.8-13.7c4.4,9.4,16.9,10.9,19,22.3c0.5-0.4,1-0.8,1.5-1.2c-1.2-2.5-2.3-5-4.1-8.8c4.6,3.8,5.2,8.9,9.8,11.7
		c-0.9-2.7-1.6-4.9-2.4-7.1c8,12.1,12.9,25.5,17.4,39.6c2.6-6.1,0.7-11.4-1.9-17.9c6.1,7.2,6.3,15.2,1.2,20.2
		c-2.2-1.2-1.6-3.6-2.3-5.4c-0.7-1.9-1.2-3.8-2.1-7.2c-1,3.8-1.6,6.1-2.3,8.5c-0.1-8.7,0.3-17.2-4.3-25.1c-2,0.9-0.6,2.9-1.9,4
		c-1.9-2.3,1.9-7.8-4.4-7.8c0.4,2.3,1.7,5-2.3,5.2c-0.3,0-0.7,0.9-1,1.4c-3.7,8.5-7.5,17-10.9,25.5c-4.3,10.9-5.4,23-5.2,35
		c0.2,16.1-5.9,23.4-21.7,27.2c-8,1.9-16,2.6-24.1,1.5c-14.3-1.9-22.4-10.9-28-23.4c-9.4-21-13.3-43.6-19.8-65.5
		c-0.5-1.7-0.8-3.6-1.6-5.2c-2.4-4.8-6.9-5-9.7-0.7c-4.7,7.3-6.7,15.4-6.8,24.1C210.3,524.1,210.8,525.9,208.7,528.4z M282.3,506.3
		c-0.6-2.3-1.1-4.6-1.7-6.9c-0.6-2.3-1.2-4.7-2.1-6.9c-2.3-5.9-9.8-12.4-13.6-10.9c-6.2,2.4-8.1,8.1-8.1,14.5c0,0.6,0,1.2,0,1.8
		c0.2,11-1.1,21.7-5.5,31.9c-0.9,2.1-0.1,3.5,1.3,5.1c7.4,8.3,10.9,18,9.2,29.3c-1,6.4,1.8,10.9,8.3,12.9c8.7,2.6,17.3,1.6,25.6-1.2
		c6.4-2.1,12.4-5.6,11.7-13.6c-0.9-10,2.9-17.6,10.5-23.6c1.8-1.5,2.4-3,0.2-4.2c-9.4-5.3-10.7-14.5-11.7-23.9
		c-0.8-7.7-0.5-15.5-2.4-23c-1.2-4.9-3.9-7.1-9.3-5.5c-5.5,1.6-7.9,5.5-9.7,10.3C283.6,496.7,283.9,501.5,282.3,506.3z M247.9,542.7
		c0.6,7.2,0.8,14.3,8.6,17.8c3.1,1.4,4.4,0.3,3.9-2.9c-0.9-5.9-2.6-11.5-5.7-16.7c-1.2-2-2.3-5-5.2-4.1
		C246.6,537.6,248.6,540.8,247.9,542.7z M319.4,540.4c-6.1,6-9.6,11.6-10.2,18.7c-0.1,0.9,0.5,2.3,1.2,2.8c1.1,0.7,2.3-0.2,3.1-1.1
		C318.6,555.5,318.8,548.7,319.4,540.4z M266.5,578.6c2.9,6.5,7.4,6.2,11.3,6.4c5.4,0.3,11.1,0.8,15.6-3.3
		C284.8,580.5,276.2,582.6,266.5,578.6z M322.8,424.5c-6.2,2.5-11.6,2.7-16.9-1.1c-1.8,6.2,3.5,8.1,6.1,8.4
		C316.1,432.2,321.2,431.2,322.8,424.5z"/>
	<path d="M138.9,536c-6.5,14-1.9,26.5,0.2,39.1c0.5,3.1,1.9,4.4,5.2,3.4c2.8-0.8,4.9,0.8,6.4,3c1.5,2.2-0.1,4-1.4,5.5
		c-3.3,3.9-5.5,8.4-7.5,14.6c8.1-6.6,14.8-12.6,18.6-21.2c3.9-8.7,5.6-18.1,4.5-27.2c-1.1-9-6.8-17-8.3-28c3.1,8.6,5,15.8,9.2,23
		c0.4-8,0.8-15.1,1.2-22.2c1.8,6.6,3.1,13.1,8.1,19.1c0.3-3.2,0.4-5.5,0.6-7.8c0.3,0,0.6,0,0.9,0c0.5,3.9,0.9,7.9,1.4,12.4
		c-4.5-2.7-5.9-7.1-9.8-12.1c1.5,14.7-5.9,27.5,0.1,41.6c1.4-4.4,2.6-8,3.8-11.7c-0.1,9.7-2.7,19.2,1.2,29.6
		c-4.3-2.9-7.8-5.1-11.1-7.6c-2.2-1.7-3.4-1.5-5.1,0.8c-6.5,8.5-14.6,15-24.8,18.7c-1.3,0.5-2.7,0.4-5,0.8c2.3-4.8,4.2-8.8,6.2-12.9
		c-8.3,8.5-16.8,16-30.5,14.3c-0.6,9,2.6,17,7.8,24.6c-2.1,0.7-3.3-0.5-4.4-1.3c-9.9-6.5-16.5-15.2-19.8-27
		c-3-10.7-3.9-21.3-4.1-32.4c-0.1-4.8,1.3-7.3,5-10.3c-1.3,7.6-3.6,14.6-2.5,22.6c2.3-5.1,5.6-3.7,8.6-2.1
		c11.3,6,17.2,16.2,14.2,25.2c5.7-1.8,10.5-4.8,14.5-8.7c3.9-3.8,7.6-7.7,11.3-11.7c2.1-2.3,2.8-4.7,0-7.1c-0.4-0.3-0.8-1-0.7-1.5
		c1.8-12.2-0.7-24.6,1.4-36.8C134.8,542,135.8,539.3,138.9,536z M99.5,619.6c0.1-5.4,0.4-10.5,1.5-15.3c1.9-7.9-2.1-12.6-8-16.5
		c-3.9-2.5-6-1.4-6.3,3.3c-0.7,10.6,3.1,20,8.2,29.1c0.6,1.1,1.7,2,3.2,3.9c-0.5-4.1-2.8-6.6-1.8-10.5
		C97.6,616,98.6,617.8,99.5,619.6z M135.6,603.7c4-1.1,4.8-3.6,5.8-5.8c1.9-4.1,3.8-8.3,6.7-11.9c1.4-1.7,2.5-3.9-0.1-5.5
		c-2.5-1.6-5.4-0.5-6.2,1.6C139.2,588.9,139,596.3,135.6,603.7z"/>
	<path d="M527.5,583.9c-5.8,0.1-11.5-0.4-15.8-4.8c-4.1-4.2-4.3-10.3-6.5-17c-1.2,2.2-1.9,3.6-2.7,5.1c-0.5-0.3-1.1-0.6-1.6-0.9
		c7.3-14.4,9.7-29.3,6-45.5c1,0.8,1.5,1.1,2.3,1.7c1.5-5.4,0.8-10.6,0.4-15.9c1.8,3.5,2.3,7.3,2.2,11.1c-0.3,13.8-0.7,27.5-4,41
		c-2.7,11,5.6,23.4,15.8,23.4c0.5-4.5-1.3-9.8,3.7-13.2c3.6-2.5,7.4-4.7,11.9-5c4.6-0.4,6.6,2.1,6.3,7.8
		c14.7-20.6,16.4-42,11.1-64.6c3,3.3,3.7,7.2,4.3,11c2,12.3,2.3,24.5-2.2,36.4c-0.6,1.5-1.6,3.1,0.1,4.6c1.6,1.4,3.2,0.5,4.8,0.2
		c2.2-0.4,1.9-2.2,2-3.7c0.1-1.3,0.1-2.7,0.1-4c0-3.5,1.7-5.5,5.2-5.5c5,0,5.3,3.5,5.4,7.4c6.4-14.2,8.6-28.5,3.2-43.5
		c-5.4-15-16.7-24.4-29.1-33.2c2.3,1.2,4.7,2.3,8.2,4c-5.3-5.9-9.4-11-14.8-15c-5.6-4.1-8.3-10.1-9.7-17.4c0.8,0.5,1.3,0.7,1.5,1
		c4,11.6,14.8,17.9,21.5,27.3c6.9,9.7,16.3,17.1,22.4,27.7c13.5,23.6-0.3,63.5-20.7,74.8c-0.8,0.4-1.7,0.7-4,1.6
		c5-5.4,9.1-9.7,10.5-15.7c0.2-1.1,0.4-2.3,0.6-3.5c-4.3-0.3-6.8,0.8-9.7,4.1c-6.5,7.5-13.1,14.8-18.4,23.4c-3.4,5.5-9.4,7.7-16.3,9
		C523.3,593.1,526.8,589.1,527.5,583.9c1-4.3,1.6-8.6,1.4-13.3C524.1,574.4,523.7,580.1,527.5,583.9z M528.2,590.3
		c2,1.2,3.4,0.7,4.5-0.5c5-5.2,8.6-11.3,9.9-18.5c0.5-2.4,0.5-5.4-2.7-5.7c-3.2-0.3-7.4,0.4-7.8,4.1
		C531.6,576.8,531.3,583.8,528.2,590.3z M566.6,569.2c4.7-4.8,8.4-9.9,8-16.8c-0.1-1.9,0.2-4.4-2.4-4.5c-2.8-0.1-4.2,2.4-3.9,4.7
		C569.3,558.3,568.3,563.7,566.6,569.2z"/>
	<path d="M224.9,307.2c8,9.8,4.3,21.4-1.7,28.7c-5.1,6.2-18.4,6.1-25.3,0.4c-0.7-0.6-1.7-1.6-2.3-1.5c-7,1.7-4.1-3.2-3.3-5.5
		c2.2-6.1,4.2-12.4,7.7-18c4-6.5,13.5-8.6,19.5-4C223.1,310,224.2,310,224.9,307.2z M211.6,337.4c-6.9-2.3-10.3-6.9-9.7-15.7
		c-2.9,4.8-5.8,8.2-3.7,11.9C201,338.3,206.2,338.6,211.6,337.4z M204.5,323.5c-0.7,4.1,0.3,7.5,3.7,9.9c2.8,2,5,2.3,8.4,0.6
		C210.5,332.4,206.6,329,204.5,323.5z M217.4,316.3c-0.1-1.9-1.1-3.1-3.1-3.1c-2.4-0.1-3.9,1.1-4.2,3.5c-0.2,1.9,0.5,3.4,2.7,3.4
		C215.2,320,217,319,217.4,316.3z"/>
	<path d="M346.7,273.9c-19.3,7.8-30.7,19.2-24.4,40.8c0.8-8.6,8.2-9.6,14.4-12.9c-0.7,1.1-1,1.7-1,1.8c11.8,3.2,15.9,13.6,20.7,23.1
		c1.7,3.3-2.2,4.4-4,5.9c-9.9,8.2-26.3,1.8-28.9-10.9c-0.6-2.7-2.6-5.1-3.6-7.8c-6.3-16.7,6.1-37.4,23.8-40
		C344.1,273.6,344.7,273.8,346.7,273.9z M337.9,334c5.3,1.6,9.5,1,12.3-2.9c1.6-2.2-1.4-9.7-4.3-11.7
		C346.1,325.6,344.5,330.7,337.9,334z M332.9,310.2c-2.3,0.2-3.7,1.9-3.5,4.2c0.1,2.6,2.5,3.3,4.7,3.4c2.3,0.1,3.5-1.3,3.4-3.7
		C337.3,311.5,335.8,310.3,332.9,310.2z"/>
	<path d="M79.2,593.4c-15.9-10.4-21.4-25.9-22.5-43.5c-4,4.3-4.9,11.3-3.6,27.4c-4.5-1.4-9.8-10.4-9.3-17.7
		c0.9-12.4,2.4-24.7,3.8-37c0.1,6.1-1.3,12.2-0.4,19c2.2-2.6,4.1-5.5,7.2-1.7c-1.6-1.3-2.9-1-4.1,0.5c-3.7,4.4-5.4,19.1-2.8,24.2
		c5.2-13.9,9.2-28.5,18.3-40.9c-6.2,15.8-10.6,31.5-2,48.9c1.1-3.4,0.2-7,4.1-7.2c3.2-0.2,5.2,1.8,7.1,4.2c1.5,2-0.4,3.1-0.5,4.6
		c-0.6,5.3,1,10,3,14.7C78.1,590.3,78.6,591.8,79.2,593.4z M73.2,586.5c-1.5-6.5-1.8-11-1.6-15.5c0.1-2.1-0.2-4.5-2.9-4.6
		c-2.8-0.1-3.6,2.2-3.6,4.5C65.2,576.6,68.6,580.7,73.2,586.5z"/>
	<path d="M491.9,564.6c-6.4,0.1-12.3,0.6-18-2.8c2.9-2.1,5.1,0.9,7.9-0.1c-0.9-4.1,0.8-7.1,5.4-9c-0.9,1.8-1.9,2.9-2.1,4.2
		c-0.4,2.4,0.3,4.6,3,4.8c3.1,0.3,1.5-2.3,1.8-3.7c0.5-2.8-0.1-6.3,3.9-6.7c3.9-0.3,6.8,1.9,6.9,5.8c0.2,6.8,0.5,13.8-4.7,19.5
		c-5.8,6.3-10.1,6.8-17,1.7c-8.1-5.9-12.3-14.4-15.2-23.6c-1.8-5.7-4.5-10.9-8-15.7c-4.9-6.7-4.4-22.3,2-29.8
		c-3.5,10.8-4,20.3,0.8,29.7c-0.2-5.7-0.1-11.3,2.2-16.8c-0.5,10,1,19.6,4,29.2c3.1,9.7,7.8,18.1,15.8,24.6c2.4,2,5.1,4.6,8.3,3.2
		c3.3-1.5,2.8-5.3,3-8.4C492,568.8,491.9,566.8,491.9,564.6z M493.9,574.9c4-5.3,4.5-11.4,4.7-17.5c0.1-1.7-1-3.4-3-3.4
		c-1.8,0-2.8,1.4-2.9,3.1C492.4,563,495.5,568.8,493.9,574.9z"/>
	<path d="M379,549c-3.2,4.4-5.8,8.1-11.9,10.6c8.2-9.1,6.2-17.2,1.6-25.7c-1.9,3.2-3.7,6.1-5.9,9.8c-0.4-3.6-1.9-5.6-3.4-7.9
		c0.9,0.6,1.9,1.2,2.8,1.8c4.8-4,4.4-11.8,3.1-36.7c2.6,7.7,2.2,14.5,2.6,21.1c0.4,6.8,4.5,12.4,6.3,19.6c2.5-5.6,0.9-10.6,1-15.6
		c5.4,12.4,6.7,25.1,2.4,38.1C378.1,559.4,379.9,554.8,379,549z"/>
	<path d="M394.4,591.8c5.6,10.7,3.9,19.7-4.4,23.9c2-2.8,4.9-4.3,5.1-7.4c-7.7,0-12.2,2.7-16.6,10.6c1.7-6.3,1.2-11.7,1.3-17.3
		c0.6,1.9,1.2,3.7,1.9,6.1c1.9-4.3,1-8.3,1.1-12.5c5.3,1.7,8.6,6,13.3,8.8C397.2,599.9,394.8,596.5,394.4,591.8z"/>
	<path d="M397.3,490.1c11.2,20-1.5,71.1-18.5,80.5C398.4,547.6,401.4,520.6,397.3,490.1z"/>
	<path d="M343.2,651.3c-0.9-3.2,0.7-6,2.1-8.6c4.1-7.5,8.6-14.8,8.4-24.8c4.6,6.5,5.8,12.9,6.9,20c6.7-9.7,9.6-19.3,6.1-30.7
		c2.5,3.2,5.1,6.4,8.4,10.5c-2-0.7-2.9-1-4.6-1.6c-0.1,10.1-6.2,17.7-10.2,26.4c-1.9-5.7-1.4-11.9-4.4-17.6
		C351.5,634,347.3,642.6,343.2,651.3L343.2,651.3z"/>
	<path d="M213.1,672.3c3.9,0.5,4.1-3.1,5.4-5.1c1.6-2.5,2.4-5.5,3.8-8.9c0.1,7.1-3.8,11.7-8.3,17c10-2.6,15.4-9.6,21.6-15.7
		c-4.2,8.4-10.8,14.7-18.5,20.8c3.3,0.6,5.4-1,7.4-2.1c2.2-1.2,4-3,6.3-4.3c-6,5.7-7.5,13.5-10.6,21.6c-1-5.8,0.9-9.8,3-14.3
		c-3.6,0.6-6.7,1.2-11.4,2.1c4.5-3.7,7.8-6.3,12.6-10.2c-6.4,1.9-10.8,4.2-16,2.4C210.3,674.2,211.7,673.3,213.1,672.3L213.1,672.3z
		"/>
	<path d="M308.4,671.1c8.6-4.9,13.4-11.5,18.4-18.7c1.7,6.2,2.3,11.7,0.9,17.4c-0.4-4.6,0.1-9.3-1.7-14.6
		c-5.2,8-10.9,14.7-20.5,17.7c4.4-6.1,6-12.4,8-20.6c-9.3,9.5-17.9,17.1-28.1,24.8c2.2-4.2,3.8-7.2,5.6-10.8
		c-0.3,1.7-0.4,2.8-0.7,4.7c9-7,17-13.9,24.3-23.4C314.4,656.3,312.4,663.1,308.4,671.1z"/>
	<path d="M274.8,678.2c-1,3.4-2,6.8-3.5,12c4.9-5.5,8.6-9.7,13.4-15c-3.4,9.2-15.6,19.7-21.3,19.2c0.7-3.1,3.5-5.6,2.8-9.7
		c-5.1,7.4-12.2,11.2-20.2,13.7c8.3-5.9,18.8-9.5,21.5-21.2c0.9,5.4,0.3,10.4-2.2,15.3C269.2,691,269.2,691,274.8,678.2z"/>
	<path d="M175.9,652.7c10.1-6.8,8.8-15.1,7.5-23.3c-1.7-10.6-4.2-21.2,2.4-31.2c0.7-1,1.3-2,2.9-4.6c-1.3,6.7-2.3,11.6-3.3,16.6
		c-1.6,7.7-1.1,15.4,0,23.1c1.1,7.8-1.7,16.7-5.8,18.5C178.9,651.9,178.3,652,175.9,652.7z"/>
	<path d="M180.9,545.2c2.2,3.1,3.8,5.3,6.5,9.2c-0.8-3.9-1.2-5.8-1.8-8.6c2,3.3,2.4,6.6,5.6,9.3c-2.6-9.9-0.8-18.6,2.1-28
		c-0.6,30.5-0.6,30.5,8.3,37.4C194.2,564.8,183.6,555.3,180.9,545.2z"/>
	<path d="M181.7,580.2c-2.5,12.6-2.1,23.9-0.8,35.7C173.7,608.2,173.9,590.6,181.7,580.2z"/>
	<path d="M343.1,651.3c-0.3,1.1-0.7,2.3-1.2,3.8c-2.5-3.3-2.2-6.9-2.6-11.1c-3.8,7.4-0.1,15-3,21.6c-2.8,6.6-7,12-15.7,15.5
		c10.3-6.3,16-13.2,15.4-24.1c-0.5-8.8,2.5-17.1,3.8-26.4c0.5,6.4,0.9,12.1,1.4,17.8C341.4,649.7,341.3,651.2,343.1,651.3
		C343.2,651.3,343.1,651.3,343.1,651.3z"/>
	<path d="M455.5,387.8c-14.7-8.1-6.7-22.1-10.1-33c3.1,5.2,4,11.1,3.9,16.8C449.2,377.9,452.7,382.4,455.5,387.8z"/>
	<path d="M341.8,267.4c10.8-4.9,28.3,4.1,33.4,17.4c-5-5-9.3-9.7-14.7-13.1C354.8,268.2,348.8,267,341.8,267.4z"/>
	<path d="M383.2,309.7c-7.9-10.5-13.9-22.4-23.2-31.9C370.8,286.2,377.7,297.5,383.2,309.7z"/>
	<path d="M257,673c-0.1,7.3,0.2,12.8-3,17.7c0.8-3.2,2.4-6.2,1.9-10.5c-3.4,4.3-6.7,7.8-10.7,10.4c-3.9,2.5-7.6,5.4-12.5,6.2
		C241.8,690.7,252.2,686.1,257,673z"/>
	<path d="M403.7,530.3c8.8-12.9,9.6-26.9,8.2-42.1C416.3,503.3,412.2,524.9,403.7,530.3z"/>
	<path d="M448.4,442.6c2.5-10,1.8-18.6,1.8-27.6C454.9,419.1,454.3,435.9,448.4,442.6z"/>
	<path d="M411.4,619.2c0.8-5.6-3.2-6.6-5.6-9.6c-0.5,1.7-0.8,2.8-1.4,4.8c-2-3.5-1.4-6.2-0.6-9.2c3.3,3,6.3,5.8,9.5,8.7
		c2.8-2.9,2.9-6.5,3.3-11.2C419,610,414.9,613.9,411.4,619.2z"/>
	<path d="M384.9,373.2c-7.6-4.5-11.8-11.2-13.1-19.8C376.2,360,380.5,366.6,384.9,373.2z"/>
	<path d="M364.5,249.9c-11-9.8-22.6-8.8-34.3-7.3C341.1,237.1,357.6,240,364.5,249.9z"/>
	<path d="M182.4,662.3c13-5.6,15.5-16.5,15.1-29C198.7,650.2,194.7,658.3,182.4,662.3z"/>
	<path d="M149.5,493.8c-1.8,12.8-3,25.6-1.2,38.5C145.3,519.3,146,506.5,149.5,493.8z"/>
	<path d="M63.6,427.5c2.6-6.3,6-10.7,9.4-15.3C74.8,414.8,69.5,423.6,63.6,427.5z"/>
	<path d="M138.8,499.2c0.3,1.5,0.4,2.1,0.7,3.4c2.2-3.9,3.2-7.9,6.3-10.7c-2.3,6.6-6.9,12.6-5.2,20.5
		C138.4,509.7,138.2,508.2,138.8,499.2z"/>
	<path d="M184.1,312.3c-1.5,2.9-3,5.7-4.4,8.6c-1.4,2.9-2.6,5.8-4.4,8.5C176,322.5,179,316.9,184.1,312.3z"/>
	<path d="M213.2,672.4c3.5-8.1,1.3-15.7-2.3-23.1C217.2,657.1,218.1,666.9,213.2,672.4C213.1,672.3,213.2,672.4,213.2,672.4z"/>
	<path d="M241.2,670c1,7.8,1.6,15.5-4.3,22C241.1,685.2,241.3,677.6,241.2,670z"/>
	<path d="M175,343.4c-0.4,5.8-0.8,11.7-1.2,17.5C171.9,354.9,172.3,349,175,343.4z"/>
</g>
</svg>
