<?xml version="1.0" encoding="utf-8"?>
<!-- Generator: Adobe Illustrator 24.2.3, SVG Export Plug-In . SVG Version: 6.00 Build 0)  -->
<svg version="1.1" id="Layer_1" xmlns="http://www.w3.org/2000/svg" xmlns:xlink="http://www.w3.org/1999/xlink" x="0px" y="0px"
	 viewBox="0 0 595.3 841.9" style="enable-background:new 0 0 595.3 841.9; fill: #215342;" xml:space="preserve"
	 height="350" width="700" transform="translate(-215, -57)">
<g>
	<path d="M46.8,575.3c-8.6,0-17.3,0-25.9,0c-0.7,0-1.3,0-2,0c-0.6,0-0.8,0.4-0.8,1c0,0.6,0.1,1.1,0.9,1.2c0.6,0,1.1,0,1.7,0
		c3,0,6.1-0.1,9.1-0.1c5.8,0.1,11.6,0.2,17.4,0.3C46.9,577,46.8,576.2,46.8,575.3z"/>
	<path d="M325.7,587.9c-0.6-0.3-0.7-0.9-2.1-3c-1-1.4-1.4-3.2-2.3-5.1c-0.3,1.9-0.4,3.4-0.7,4.8c-0.3,1.9-0.8,3.7-1.9,5.3
		c-0.3,0.5-0.7,1.3-1.2,1.1c-0.9-0.2-0.9,0.3-1.2,0.7c-1,1.4-2,1.3-3-0.1c-2.1-2.9-4.1-5.9-6.3-8.8c-1.5-1.9-2.2-1.9-3.4,0.2
		c-1.4,2.5-2.7,5-4.1,7.5c-0.8,1.4-1.1,1.5-2.5,0.6c-0.9-0.6-1.5-1.5-2.1-2.4c-0.6-1.1-1.2-2.1-1.9-3.2c-0.6-0.9-1.2-1.7-2.4-1.9
		c-0.6,1.4,0.8,2.7,0.2,4.1c-1.5-0.5-1.7-1.8-2.3-2.8c-1.1-2-1.7-2.3-3.6-1.2c-1,0.6-1.6,0.5-2.3-0.3c-0.3-0.3-0.6-0.8-1.3-0.6
		c0.4,2.4,1.5,4.6,1.9,7.3c-1.8-1.2-2.6-3-4.1-4.2c-0.5,0.9,0.6,1.8-0.2,2.8c-5.3-4.6-9.5-10.1-13.4-16.5c0,2.1,1.2,3.3,1.2,4.9
		c-1-0.6-1.6-1.4-2.2-2.2c-1.5-2-2.7-4.1-3.7-6.4c-0.2-0.4-0.3-1.3-0.8-1.1c-1.7,0.7-2.1-1.3-3.3-1.6c-0.7,2.6-1.1,2.9-3.7,2.3
		c-0.6-0.1-1.1-0.3-1.7-0.4c-2-0.6-3.9-1.3-5.9-1.8c-0.4-0.1-1.1-0.6-1.2,0.1c-0.2,1.2-1.5,0.3-1.9,1c0.3,0.9,1.5,1,1.8,2
		c-4.9-0.5-8.8-3.2-13.3-4.6c2,1.8,4,3.6,6,5.4c-0.1,0.1-0.2,0.2-0.3,0.3c-1.6-0.7-3.3-1.4-4.9-2.1c-0.1,0.1-0.1,0.3-0.2,0.4
		c1.5,1.1,3,2.2,4.5,3.3c-1.6,0-2.9-0.4-4.2-0.8c-3.2-1.1-6.2-2.5-9.2-4.1c-0.4-0.2-1.1-0.9-1.5-0.3c-0.7,1.2-1.3,0.5-2,0.1
		c-2.2-1.4-4.3-2.8-6.5-4.3c1.1,3.2,4.3,4.3,6.6,7c-5.9-1.9-10.2-5.1-14.2-8.9c0.7,1.4,1.4,2.8,2.2,4.5c-1.9-0.9-2.7-2.6-4.7-3.2
		c1.8,3.4,4.8,4.9,7,7.3c-7-1.8-12.7-5.7-17.7-10.7c1.5,3.9,4.8,6.3,7.5,9.1c-4.1-1.1-7.3-3.7-10.6-6.1c1.5,2.9,4.2,4.8,6.3,7.2
		c-2.6-0.8-4.8-2-7-3.4c-5.5-3.5-9.4-8.2-11.8-14.4c-2.9-7.7-3.4-15.6-1.7-23.7c1.4-6.5,4-12.6,6.9-18.6c0.1-0.3,0.3-0.6,0.4-0.9
		c0.1-0.2,0.3-0.5-0.2-0.8c-8.7,14.8-13.7,30.1-6.8,47.4c-0.5-0.3-0.7-0.3-0.8-0.4c-0.2-0.2-0.3-0.4-0.5-0.6
		c-4.6-6.6-7.1-13.9-7.4-22c-0.2-7.9,1.4-15.5,3.8-22.9c0.2-0.7,0.6-1.4,0.5-2.5c-7.2,7.8-13.2,16.2-19.6,24.4
		c-0.2-0.5-0.3-0.6-0.3-0.8c0-0.3,0.1-0.7,0.1-1c3.1-11.8,7-23.2,12.6-34c10.9-21.1,27.1-36.6,49-45.9c0.6-0.2,1.3-0.3,1.6-1
		c-1.6-0.4-3,0.6-5,0.2c3.8-2.3,7.3-4.4,10.8-6.5c0-0.1-0.1-0.2-0.1-0.4c-2.2,0.5-4.5,1.1-6.7,1.6c2-2.3,4.4-3.9,6.9-5.4
		c2.5-1.5,5.1-3,7.6-4.4c2.4-1.4,4.8-2.7,7.2-4c-0.1-0.1-0.1-0.3-0.2-0.4c-3.2,1-6.3,2-9.5,2.9c3.8-3.4,7.8-6.4,11.7-9.4
		c6.5-5,9.6-8.1,10.6-10.3c-4.1,2.5-7.8,5.3-11.9,7.4c3-3.2,5.1-6.7,5.3-11.1c0.2-4.3-0.4-8.2-3.5-11.7c-1,1.4-1.7,2.7-2.7,3.8
		c-1.2,1.3-2.7,2.1-4.5,2.1c-4.2-0.1-7.2-3.4-7-7.6c0-0.7,0.2-1.3,0.2-1.9c0.4-2.7-0.4-3.3-3-2.6c-8.2,2.2-12.6,8.5-12.6,17.1
		c0,10.4,12.6,19.9,23.1,15.2c0.6-0.3,1.2-0.9,2.3-0.5c-1.2,1.4-2.6,2.4-4,3.3c-2.2,1.5-4.8,2.7-6.7,4.6c-2.8,2.9-5.8,2.8-9.2,1.4
		c-9-3.8-18.6-15.5-15.2-29.9c4.1-17.2,22.7-25.6,38-16.9c7.2,4.1,11.3,10.5,13.1,18.5c0.4,1.8,0.7,3.6,1.2,5.8
		c2.9-2.4,5.5-4.5,8.2-6.6c-0.6-0.7-1.4-0.3-1.9-0.9c1.8-1.9,4.1-3.2,6-5.4c-1.8,0.1-3.1,0.7-5.1,0.6c2.7-1.6,4.9-3,7.1-4.3
		c3.5-2.1,4.2-3.8,3.4-7.8c-0.3-1.6-0.1-2,1.4-2.7c0.5-0.2,0.9-0.3,1.4-0.5c3.7-1.5,5.4-3.9,5.4-7.9c0-1.1-0.1-2.3-0.3-3.4
		c-0.3-2-0.6-4-0.9-6.1c-0.5-4.7-0.2-9.5-0.7-14.2c-1.4-12.9-6-24.4-14.1-34.5c-5.1-6.3-11.2-11.5-17.8-16.1
		c-3.9-2.7-8.1-4.9-12.4-6.9c-0.7-0.3-1.7-0.5-2.2-1.9c4.7,1.2,8.8,3,13.1,3.9c-3.7-4.7-9.1-7.1-13.9-10.5c1-0.5,1.6,0,2.1,0.2
		c3.3,1.2,6.6,2.4,9.9,3.7c0.7,0.3,1.5,0.5,2-0.3c0.4-0.7-0.3-1.2-0.8-1.6c-1.4-1.1-2.8-2.2-4.3-3.3c-3.9-2.9-7.9-5.8-11.9-8.8
		c-0.4-0.3-0.9-0.6-0.5-1.2c0.3-0.5,0.7-0.1,1.1,0c3.3,1.1,6.7,2.3,10,3.4c0.7,0.2,1.4,0.8,2.5,0.4c-1.1-1.3-2.7-2-4-2.9
		c-1.3-0.9-2.8-1.8-4.1-2.7c-1.3-0.9-2.8-1.5-4.1-3.4c4.6,0.7,8.5,2.2,12.6,2.7c-3.3-2-6.2-4.6-9.4-6.7c-2.5-1.6-5.2-2.6-8.2-3
		c-4.2-0.6-8.3-0.9-12.5-0.9c-5.6,0-11.1-0.1-16.7-0.5c-2-0.1-4.1-0.2-6-1c-1.1-0.4-2.2-0.8-2.8-2.2c4.1,0.3,8.1,0.5,12-0.1
		c5.5-0.8,10.9-2.4,16.1-4.4c11.2-4.2,22.7-6.8,34.6-7.8c9.5-0.8,18.4,1.3,26.3,6.8c3,2.1,5.9,4.2,8.8,6.2c0.6,0.4,1.2,1,2.5,1.3
		c-1.3-1.9-2.3-3.5-3.5-5.1c-1.2-1.6-2.5-3.1-3.8-4.5c-1.4-1.5-3-2.8-4.5-4.2c-1.4-1.3-3.1-2.1-4.4-3.7c0.7-0.2,1.1,0,1.6,0.1
		c3.9,1.1,7.4,2.9,10.8,5.2c6.7,4.6,10.7,11.1,14.1,18.3c1.4,3.1,1.9,6.2,1.2,9.6c-0.8,4-1.1,8.1-1.3,12.2
		c-0.4,10.5,0.9,20.8,2.7,31c0.7,4.2,1.5,8.4,2.4,13.1c0.4-1.2,0.3-1.9,0.2-2.7c-0.7-6.8-1.4-13.5-2.1-20.3
		c-1-9.6-1.4-19.3,0.2-28.9c2-12.2,7.1-22.8,15.7-31.6c4.4-4.5,9.6-7.9,15.6-9.8c0.7-0.2,1.3-0.6,2.2-0.2c-2.8,5.2-6.9,9.8-7.5,16.1
		c3.3-8.6,8.8-15,17.9-18.4c-0.8-0.3-1-0.4-1.2-0.4c-0.5-0.1-1-0.1-1.5-0.1c-9.1,0-17.2,2.7-24.3,8.5c-4.1,3.4-7.5,7.3-10.7,11.5
		c-0.5,0.6-0.7,1.4-1.7,1.7c0-2.6,1.6-4.6,2-7.1c-1.2,1.6-2.5,3.2-4,5.1c-0.4-3,0.6-5.5,0-8c-1.2,2.9-2.3,5.8-3.6,9.1
		c-2.3-3.3-3.8-6.8-7.1-8.9c1,2.6,2,5.2,3,7.8c-1-0.3-1.6-0.9-2.1-1.4c-1.5-1.5-3-3-4.6-4.4c-7.7-6.8-16.4-11.1-26.8-11.5
		c-1.7-0.1-3.5-0.1-5.7,0.5c2.2,0.8,3.9,1.4,5.5,2.1c1.7,0.7,3.3,1.4,4.9,2.3c1.5,0.8,3.1,1.6,4.2,2.9c-6.9-2.6-14-4.6-21.3-5.9
		c-7.8-1.4-19.4-2.2-22.3-1.5c4.7,1.2,9.1,2.4,13.4,3.5c-0.2,0.7-0.7,0.7-1.1,0.7c-3.1,0.4-6.1,1.3-9,2.3c-3.4,1.1-6.8,2.4-10.2,3.5
		c-4.5,1.4-9,2.4-13.8,2.2c-2.2-0.1-4.3-0.7-6.8-1.1c1.6,1.7,3.7,2.3,5.2,3.9c-8.9,2.9-17.5,2.6-26.2,0.2c1.1,1.6,2.3,2.9,3.5,4.3
		c1.3,1.4,2.6,2.7,3.9,4.1c1.2,1.3,2.9,1.9,4.1,3.5c-3.4,0.3-6.4,0.6-9.5,0.9c0,0.1,0,0.3,0,0.4c1.4,0.7,2.8,1.3,4.5,2.1
		c-0.8,0.4-1.3,0.7-1.8,0.9c0.8,1,2.3,0.9,3.1,1.9c-0.9,0.7-2.1,0-3.1,1.1c5.2,1.3,10.3,2.7,15.9,4.1c-1.3-2-2.8-2.9-4.2-3.8
		c-1.4-0.9-3.2-1.3-4.5-3c0.6,0.1,0.9,0.1,1.2,0.1c5.2,0.9,9.6,3.6,13.9,6.5c7.6,5.4,14.2,11.9,20.2,19c5.1,6.1,9.6,12.5,13,19.6
		c1.2,2.5,2.2,5.1,2.8,7.8c0.1,0.4,0.4,1-0.1,1.4c-0.6,0.4-1.1,0.1-1.6-0.2c-0.6-0.3-1-1-2.1-0.8c1.6,3.3,4.9,5.6,4.5,9.7
		c-1-0.5-1.2-1.3-1.7-2c-1.3-2.2-2.7-4.3-3.9-6.5c-4.9-8.5-12.4-14.2-20.6-19.3c-0.6-0.3-1.2-0.6-1.8-0.8c-0.6-0.2-1.1-0.8-1.9-0.3
		c2.6,4.4,6.3,7.8,10,11.2c-1.6-0.2-2.8-1-4-1.8c-1.2-0.8-2.4-1.7-3.7-2.3c-2.2-1.1-2.5-0.9-2.8,1.5c0,0.1-0.2,0.2-0.4,0.4
		c-1.2-0.5-2.1-1.4-3.2-2.1c-0.3-0.2-0.5-0.6-1-0.2c-1.4,1-1.4,0.9-2.1-0.4c-0.4-0.7-0.5-1.6-1.1-2.2c-0.3-0.3-0.7-0.5-1.1-0.4
		c-0.4,0.1-0.5,0.6-0.5,1c-0.1,2.1,0.7,3.9,2.3,5.2c1.4,1.2,2.8,2.2,4.3,3.3c1.3,1,2.4,2.1,2.8,4.1c-4.7-2.1-9.4-4.1-14.1-6.2
		c-0.1,0.2-0.2,0.3-0.2,0.5c4,2.8,7.9,5.7,11.9,8.5c-0.5,0.7-1.4,0.5-1.5,1.4c1.1,1,2.7,1.2,3.9,2.4c-4.6,0.8-8.9,0.4-13.2-0.1
		c-6.2-0.7-12.2-2.2-18.4-3.4c-8-1.6-16-2.6-24.2-1.3c-0.2,0-0.6,0.2-0.7-0.4c3.6-1.4,7.3-2.7,10.9-4.1c-1.3-0.2-2.5-0.1-3.7,0.1
		c-1.2,0.1-2.4,0.3-3.6,0.4c6-2.5,12.4-2.4,18.7-2.8c-2-1-4.1-1.4-6.3-1.5c-2.2,0-4.4,0-6.6,0c7.9-3.2,16-5.2,24.5-3.1
		c-3-2.5-6.7-2.9-10.1-4.2c1.4,0.1,2.8,0.1,4.3,0.2c-8.5-3.8-17.6-3.6-26.6-3.9c8.8-3.2,17.7-4.4,27-2c-2.3-1.5-4.6-2.7-6.9-3.9
		c-2.3-1.2-4.9-1.9-7.3-3c2.9-0.6,5.8-0.5,8.6-0.1c2.8,0.4,5.5,1.5,8.3,2.1c-0.9-1.1-2.1-1.6-3.3-2.1c-1.3-0.6-2.5-1.2-3.6-2.1
		c-1-0.9-1-1,0.2-2.1c-0.9-1-2.6-0.6-3.8-2.4c1.6,0.3,2.7,0.6,3.8,0.8c1.1,0.2,2.2,0.5,3.4,0.7c2,0.4,2,0.4,3.3,0
		c-3.9-1.4-7.6-2.7-11.3-4c0-0.2,0.1-0.3,0.1-0.5c5.7-0.1,11.4-0.4,17.1,0.1c4.9,0.5,9.5,1.7,13.7,4.3c0.3,0.2,0.6,0.6,1.1,0.2
		c-0.1-0.2-0.2-0.4-0.4-0.5c-0.6-0.5-1.1-1-1.7-1.4c-4.8-3.7-10.3-6.1-16.1-7.7c-11.3-3.1-22.7-3.3-34.1-1.2c-8.1,1.4-15.9,4-23,8.3
		c-5,3.1-9.4,6.9-12.6,11.9c-0.3,0.4-0.8,0.8-0.4,1.6c10.1-6.9,21.7-9.6,33.6-12.1c-0.7,1.1-1.6,1.4-2.4,1.8
		c-6.2,3.6-12.5,7.2-18.7,10.9c-13.7,8.2-27,17-39.4,27.2c-0.8,0.6-1.6,1.2-2.1,2.3c16.6-8.3,34.1-14,52.2-17.8
		c-0.7,0.6-1.4,1.1-2.2,1.6c-6.6,3.9-13.3,7.4-20,11c-7.7,4.1-15.3,8.2-22.6,12.9c-0.7,0.5-1.6,0.8-2.1,1.9c5.7-1.4,11.2-2.7,16.7-4
		c-0.6,0.9-1.3,1.5-2,1.9c-5.4,3.4-11,6.5-16.7,9.5c-6.4,3.4-12.9,6.8-19,10.9c-14.9,10.2-27.3,22.9-38.1,37.3
		c-7,9.3-12.4,19.5-16,30.6c-2,6-3.7,12-5,18.2c-1,5.1-1.9,10.2-1.6,15.4c0,0.6-0.2,1.3,0.7,1.7c0.1-0.4,0.2-0.7,0.3-1
		c2.2-11.3,5.4-22.3,9.8-32.9c3.7-9,8.1-17.5,14.2-25.2c2.4-3,5.1-5.8,8.3-7.9c0.7-0.5,1.4-1,2.6-1.1c-2.6,2.8-4.8,5.4-6.9,8.1
		c-6.1,7.9-10.9,16.5-13.4,26.3c-4.5,17.7-3.9,35.4,1.3,52.9c2.6,8.8,6.2,17.1,11.6,24.6c1.8,2.5,3.8,4.8,6.2,6.6
		c0.4,0.3,0.8,0.8,1.4,0.4c-0.2-0.3-0.3-0.5-0.4-0.7c-5.8-7.4-9.8-15.7-12.5-24.6c-1.9-6.2-3.2-12.5-3.1-19.1c0-3.2,0.5-6.4,1.9-9.3
		c0.6-1.3,1.4-2.5,3.1-3.4c-3.7,19,0.6,35.9,11.4,51.2c-3.3-7.3-6.5-14.7-7.5-22.9c4,8.5,9.1,16.2,15.1,23.4
		c6.8,8.1,17.5,18.8,19.6,19.6c-1.1-2.2-2.9-4.1-3.6-6.5c3.8,3,6.7,6.7,9.1,10.7c3.9-0.6,9.1-1.1,15.2-1.2c4.5-0.1,15.3,0,29.2,3.1
		c12,2.6,18.7,4.1,26.4,9.3c8.8,5.9,13.5,13,14.5,14.5c1.7,2.7,2.9,5.1,3.7,7c0.3,1,1.4,5.3-0.9,9.9c-2.1,4.4-5.9,6.2-6.9,6.7
		c59.1,0,102.1,0,103.4,0c0.2,0,1,0,1.8,0.4c0.3,0.2,0.6,0.4,0.9,0.7c5.4,5.7,12.2,9.9,16.5,17c0.5-1.3-0.4-2.3-0.1-3.3
		c1.1,0,1.2,1.5,2.4,1.5c0.9-2.3,1-4.7,2-7c0.2,0,0.3,0,0.4,0.1c0.6,0.8,1.2,1.5,1.8,2.3c3.3,4.1,7.3,7,12.4,8.4
		c2.1,0.6,2.2,0.5,2.5-1.5c0.3-2.3,0.6-4.7,1-7.1c0.3-1.6,0.7-3.2,1.9-4.8c3.8,5.8,7.1,11.5,10.8,17.1c1.8-2.4,2.9-4.8,3.8-7.3
		c0.9-2.4,1.3-5.1,2.2-7.6c0.3,0.5,0.5,0.9,0.6,1.4c0.5,1.8,0.9,3.6,1.4,5.5c0.1,0.5,0.3,1.2,0.9,0.8c1.3-0.8,1.9,0.6,2.9,1
		c1.1-3.5,2.3-7,3.6-11c-0.4,0.4-1.1,1-2.1,1.5C329.4,587.5,327.3,588.6,325.7,587.9z M214.7,436c-1.2,1-2.2,1.1-3.3,0.9
		c-1.6-0.2-3-0.7-4.4-1.4c-7.3-3.7-13-9.1-16.8-16.3c-1.9-3.5-2.8-7.3-1.9-11.4c0.8-3.8,2.9-6.8,6-9.4
		C191.6,416.1,198.3,428.5,214.7,436z M172.8,362.3c0.1-0.8,0.7-0.8,1.2-1.1c4.3-2,8.6-4,13.3-5c4-0.8,7.9-0.8,11.8,0.6
		C190.3,358.4,181.8,361.1,172.8,362.3z M195.6,332.6c-0.8-1.5-2.2-1.8-2.6-2.9c5.1-1.8,17.7,1.6,20.7,5.8c-5.1,1-10.2,1.6-15.1,3.3
		c1.2,1.8,3,1.7,4.5,2.3c-7.7,1-15.3,3.1-23.7,1.7c3.4-2.3,6.9-1.4,10.5-2.5c-6.3-3.8-12.3-6.9-19-8.5
		C179.1,329.2,187.1,329.7,195.6,332.6z M48.4,417.6c2.4-9.5,6.4-18.3,12.2-26.3c0.3-0.4,0.6-0.7,1-1.1c0.1-0.1,0.3-0.1,0.4-0.1
		c-0.5,1.9-12.2,27.7-13.6,29.9C48,419.1,48.2,418.4,48.4,417.6z M63.3,504c-2.7-4-5.9-7.6-9-11.3c-2.7-3.2-5.2-6.6-6.7-10.5
		c-0.6-1.4-1.1-2.9-1.1-4.5c2.3,5.4,6,9.7,9.7,14.1c2.3,2.8,4.6,5.6,6.2,8.8c0.6,1.1,1.2,2.3,1.4,3.6
		C63.5,504.5,63.4,504.1,63.3,504z M91.8,430.3c-2.2,8.9-2.7,18-1.4,27.1c0.1,0.7,0.2,1.5,0.2,2.2c0,0.1-0.1,0.3-0.3,0.6
		c-1.2-1.7-1.9-3.5-2.3-5.4c-1.4-5.7-1.6-11.5-1.2-17.3c0.5-8.4,1.9-16.6,4.2-24.8c-0.7,0.1-0.9,0.5-1.1,0.8
		c-0.3,0.4-0.5,0.8-0.8,1.2c-3.1,5.2-5.1,10.8-6.4,16.7c-3.3,14.5-3.8,29-0.7,43.6c0.1,0.5,0.3,1-0.1,1.4c-1.4,0.1-1.9-1-2.5-2
		c-3-5.8-4.7-12-5.2-18.6c-0.5-7.6,0.2-15.1,1.3-22.5c1.1-7.4,1.7-14.8,2-22.3c0-0.1-0.1-0.2-0.3-0.5c-1.2,1.5-1.5,3.3-2,5
		c-0.7,2.9-0.9,5.8-1.1,8.8c-0.2,3.2-0.5,6.4-1.5,9.4c-0.7,2-1.1,2.7-2.3,3.9c-2.4-1.9,0.2-4.6-1.1-6.9c-1,0.8-1.2,1.9-1.7,2.9
		c-1,1.7-2.3,2.7-4.5,2.4c1-3.7,2-7.2,2.9-10.7c-0.1-0.1-0.3-0.1-0.4-0.2c-2.1,4-3.6,8.3-6,12.2c0.7-5.3,1.4-10.6,2.1-15.9
		c-0.2,0-0.4-0.1-0.5-0.1c-3.3,7.8-5.2,15.9-6.3,24.3c-0.8-2-1-4.2-1.2-6.3c-1.2-11.5,0.7-22.5,4.8-33.2c2.8-7.4,6.6-14.5,10.7-21.3
		c3.6-6,7.5-11.9,11.3-17.8c0.5-0.8,1-1.5,1.3-2.5c-5,2.4-9.7,5.4-14.7,8c-0.4-1.1,0.3-1.4,0.7-1.7c4-3.2,7.9-6.3,11.9-9.5
		c0.6-0.5,1.4-0.9,1.8-1.6c0,0-0.1,0-0.1,0c0,0,0.1-0.1,0-0.2c-0.1,0-0.2-0.1-0.2-0.1c-6.1,3.2-12.1,6.5-18,10c-3.4,2-6.5,4.3-10,7
		c0.1-1.1,0.6-1.5,1-2c2.2-2.6,4.7-4.8,7.3-6.9c13.6-10.6,28.6-18.7,45.1-24.1c1.2-0.4,2.4-1,3.7-0.8c0.1,1-0.8,1.6-0.7,2.5
		c1.2,0.7,2.4,0.5,3.7,0.2c1.9-0.4,3.6-1.4,5.4-2.3c1.4-0.6,2.7-1.4,4.5-1.3c-0.6,1.1-1.5,1.7-2.3,2.4c-3.7,3.3-6.6,7-8.1,11.8
		c-0.8,2.8-2.6,5.3-4.3,7.7c-3.8,5.5-6.7,11.5-8.9,17.7c-0.1,0.3-0.2,0.6-0.1,1.1c0.2-0.3,0.5-0.6,0.7-1c2.7-4.4,6.3-7.7,10.6-10.4
		c3.8-2.4,7.9-4.3,12-6.1c2.5-1.1,5-2.3,8.1-3.7c-2.3,5.4-7.1,7.8-10.5,11.4c0,0.8,0.7,0.7,1,0.9c0.9,0.5,0.9,1.1,0.4,1.8
		c-0.5,0.8-1.1,1.6-1.7,2.4c-4.2,5.7-8.6,11.2-12.5,17.1C100.6,405.8,94.9,417.5,91.8,430.3z M120,520.2c-0.1,0.4-0.1,0.8-0.4,1.1
		c-0.1,0-0.2,0-0.4,0.1c0-3.8-0.5-7.5-1.4-11.1c-1.8-7.5-4.9-14.4-8.3-21.2c-3.1-6.2-6.3-12.4-8.9-18.9c-4.1-10.2-5.3-20.7-4.3-31.6
		c0.1-1.2,0.3-2.4,0.4-3.5c0.2,0,0.4,0,0.6,0c1,8.1,3.8,15.7,6.9,23.2c2.3,5.4,4.6,10.7,6.8,16c2.4,5.6,4.8,11.3,6.8,17.1
		C121.1,500.8,122,510.4,120,520.2z M130.3,514.5c-0.2,1.3-0.4,2.5-1.3,4c0-2.3,0-4.2,0-6.1c-0.1-7.1-1.9-13.8-4.4-20.3
		c-2.7-7-6.3-13.7-9.7-20.4c-4.5-8.8-8.3-17.8-10.4-27.5c-2.1-9.9-2.2-19.8,0.2-29.7c0.3-1.3,0.3-1.3,1.3-2.4
		c0.3,0.6,0.1,1.3,0.1,1.9c-1.8,13.2,0.5,25.9,5.2,38.3c3.2,8.3,7.1,16.4,10.9,24.5c3,6.3,5.7,12.7,7.3,19.5
		C131,502.2,131.4,508.3,130.3,514.5z M130.5,483.8c-1.9-5.7-4.5-11-7-16.5c-2.7-6-5.3-12-6.7-18.4c-2.9-13.2-1-25.7,5.1-37.6
		c0.1-0.3,0.4-0.5,0.6-1c0.4,0.8-0.1,1.3-0.2,1.9c-3.7,11.9-4.7,24-2.9,36.4c0.7,4.8,2.3,9.4,4.1,13.8c2.2,5.2,4.7,10.3,6.5,15.6
		c1.2,3.7,2.2,7.5,2.3,11.6C131.8,487.6,131.2,485.7,130.5,483.8z M140.8,284.5c9.5-6.5,31.5-8.3,40.6-2.6
		C167.4,280,153.9,280,140.8,284.5z"/>
	<path d="M584.1,405.7c-12.9-35.3-36-61.2-70.1-77.2c-9.9-4.6-20.2-8-30.7-10.9c-6.5-1.8-12.8-4-18.7-7.4c-0.6-0.3-1.4-0.5-1.9-1.6
		c12.1,3.5,24.7,3.9,36.8,8.1c-0.8-1.2-1.8-1.5-2.6-1.9c-8.8-4.9-18-9-27.1-13.4c-7.9-3.8-15.7-7.8-23.1-12.5
		c-0.7-0.4-1.6-0.7-2-1.9c11.2,0.5,21.3,3.8,31.2,8.3c-15.4-13.7-32.5-23-53.9-22c0.3-0.7,1.1-0.6,1-1.3c-7.9-2.7-16,0.7-19.9,8.2
		c-0.2,0.4-0.6,0.8-0.2,1.1c1.2,0.8,0.3,1-0.3,1.4c-1.2,0.7-2.6,1.1-4,2.4c0.9-0.1,1.4-0.1,1.9-0.2c5.9-0.8,11.7-2.2,17.6-3.5
		c7.1-1.6,14.1-2.8,21.4-2.2c1.4,0.1,2.8,0.2,4.6,0.9c-6.4,0.8-12.5,0.6-18.3,2.7H437c-1.3,0.8-2.3,0.7-3.3,0.8
		c-2.5,0.2-5.1,0.3-7.6,0.5c-3.3,0.3-6.4,1.2-9.3,3c-0.4,0.3-1.1,0.4-1,1.2c2.8-0.4,5.5-0.8,8.3-1.1c0,0.1,0.1,0.2,0.1,0.3
		c-3.9,1.7-7.8,3.5-11.7,5.2c1,0.3,1.9,0.2,2.8,0c4.3-0.7,8.6-1.4,12.8-2.1c0.5-0.1,1-0.2,1.2,0.6c-1.3,1.1-2.9,1.7-4.4,2.5
		c-1.4,0.8-2.9,1.5-4.3,2.3c-1.4,0.8-3.1,1.2-3.9,3.1c3.4-0.9,6.8-1.8,10.2-2.7c-1.4,1.1-37.8,18.6-38.6,18.8
		c2.4-2.8,6.1-3.9,8.7-7.2c-3.4,1.1-5.7,3.3-8.6,4.1c-0.5-1.2,0.8-1.6,0.9-2.9c-4.3,2.7-8.3,5.2-12.3,7.7c1.4-2.4,3.3-4.2,5.3-6
		c1.9-1.8,3.9-3.5,6-5.1c2.1-1.6,4.2-3.2,6.4-4.6c2.1-1.4,4.2-2.7,6.3-4.1c-7.3,2-13.9,5.5-20.2,9.4c-6.3,3.9-12.2,8.3-18.5,12.4
		c1.9-2.3,3.8-4.7,5.7-7c0.9-1.1,1.8-2.2,2.6-3.3c0.2-0.3,0.6-0.6,0.2-1.1c-0.4-0.5-0.7-0.1-1,0.2c-0.4,0.4-0.8,0.8-1.3,1.2
		c-2.7,2.6-5.4,5.2-8.2,7.8c-0.4,0.3-0.7,0.8-1.5,0.8c0.6-1.8,1.8-3,2.8-4.3c1-1.3,1.9-2.7,1.7-4.5c-0.2-1.7,0.5-3,1.6-4.2
		c0.9-0.9,1.8-1.9,2.7-2.9c0.4-0.5,0.8-1,1.1-1.6c0.4-0.8,0.2-1.6-0.4-2.3c-0.6-0.7-1.4-0.7-2.2-0.4c-0.6,0.3-1.2,0.6-1.7,0.9
		c-10.4,6.2-19.5,13.8-27.3,23c-4.1,4.8-7.1,10.2-9.1,16.2c-2,6-3,12.2-3.6,18.5c-0.5,5.7-0.7,11.4-0.9,17.2
		c-0.1,3.6,1.2,6.2,4.5,7.7c0.4,0.2,0.9,0.4,1.3,0.7c1.2,0.8,1.5,1.8,1.1,3.2c-0.3,1.2-1.1,1.8-2.3,1.8c-0.5,0-1-0.2-1.6,0.4
		c4.3,1.6,6.7,5.3,9.8,8c0.3,0.3,1.1,0.8,0.6,1.1c-1.4,0.8-0.2,0.9,0.2,1.2c2.3,1.1,4.6,2.1,6.9,3.2c0.4,0.2,1.2,0.2,0.9,1.1
		c-0.5,0.3-1,0.1-1.5,0.1c-0.4,0-0.9-0.3-1.2,0.3c4.5,3,12.9,7.5,14.7,7.7c-1.2-0.9-2.3-1.6-3.4-2.4c-1.4-1-2.2-2.4-2-4.2
		c0.1-1.4,0.3-2.8,0.5-4.1c1.7-11.3,9.6-20.3,20.5-23c2.5-0.6,5-0.9,7.5-0.6c9.7,1.2,16.6,6.5,21.2,15c2,3.7,2.8,7.7,2.4,11.9
		c-0.9,8.1-4.2,14.9-10.3,20.4c-2,1.8-4.2,3.1-6.7,4c-1.1,0.4-2,0.4-3-0.3c-4.8-2.9-9.5-5.8-14.3-8.6c-0.2-0.1-0.3-0.3-0.6-0.6
		c1.5-0.1,2.7,0.4,4,0.7c2.9,0.5,5.8,0.7,8.5-0.3c11.5-4.2,14.1-13.1,10.3-23.5c-0.6-1.7-1.6-1.9-3.1-0.8c-1.1,0.8-2,1.7-3.2,2.3
		c-2.2,1.3-4.4,1.1-6.5-0.3c-2.4-1.6-3.3-4-3-6.8c0.1-0.6,0.3-1.3,0.4-1.9c0.3-2.3-0.4-3.1-2.7-2.7c-1,0.1-1.9,0.4-2.8,0.8
		c-6.4,2.4-14,12.3-10.3,22.4c0.7,2,1.7,3.9,2.9,5.7c0.3,0.4,0.9,0.8,0.4,1.7c-3.3-1-6.6-2-9.9-3.1c-0.1,0.1-0.1,0.2-0.2,0.4
		c7.3,4.2,14.6,8.4,22,12.6c-0.1,0.1-0.1,0.3-0.2,0.4c-3.3-0.4-6.5-0.8-9.8-1.2c6.2,2.8,12.7,4.9,18.1,9.1c-2.5,0-4.8-1.2-7.3-1
		c3.3,1.6,6.7,3.1,10,4.7c-2.5,0.6-4.9,0.1-7.7,0.1c0.9,0.3,1.4,0.5,1.8,0.7c0.3,0.1,0.6,0.1,1,0.2c9.8,2.4,18.2,7.3,25.4,14.3
		c5.3,5.1,9.5,11,13.4,17.3c7.9,13.1,13.1,27.3,16.8,42c0.2,0.7,0.6,1.4,0.2,2.5c-2.8-2.9-5.3-5.6-8-8.3c-2.6-2.7-5.3-5.3-8.5-7.3
		c3.3,5.8,6.1,11.7,7.7,18.2c1.5,6.5,2.2,13.1,0.9,19.7c-1.1-12.8-4.7-24.7-11.8-35.4c0.4,1.3,1,2.5,1.6,3.8
		c0.6,1.3,1.2,2.5,1.7,3.8c5.6,12.7,7.9,25.8,4.7,39.5c-1.2,5.1-2.5,10.2-5,14.8c-0.7,1.2-1.3,2.6-3,3.6c0.8-2.8,1.5-5.1,2.1-7.5
		c0.6-2.3,1.2-4.6,0.6-7.5c-2.5,4.4-4.3,8.6-6.9,12.9c-0.8-4.9-1.4-9.2-2.1-13.5c-0.7-4.3-1.1-8.6-2.2-12.8c0.1,6-1.1,11.8-3.2,17.3
		c-2.3,5.8-6.9,13.4-9.2,15.1c3.5-10,1.9-19.5-2.5-28.7c-0.9,3.4,0.3,7.2-2.1,10.4v-6.8c-1.7,8.8-4.7,16.9-12.4,23.2
		c0.5-2,1.5-3.2,2-4.7c0.6-1.5,1.1-2.9,0.2-4.7c-1,2-1.9,3.8-2.8,5.5c-1,1.7-2.2,3.3-4,4.4c2.7-7.2,2.8-14.6,1.9-22.1
		c-1.3,4-2.6,7.9-5,11.4c-2.4,3.5-5.6,6-9.8,7.2c2-3.6,4.3-7,4.2-11.4c-2.6,4.6-4.9,9.4-9.5,12.6c2-4.4,2.8-9,2.6-13.8
		c-1.4,3.6-1.7,7.7-4.7,11c-0.2-2.1,0.2-3.8,0.1-5.5c-1.7,4-3.2,8.1-5,12c-1.8,3.9-3.7,7.7-6.1,11.2c-0.2-0.1-0.3-0.2-0.5-0.2
		c1.2-3.2,2.4-6.4,3.6-9.5c-0.1-0.1-0.3-0.1-0.4-0.2c-2.3,3.5-4.7,7-7,10.4c-0.1-0.1-0.3-0.2-0.4-0.2c0.7-2.3,1.3-4.7,2-7
		c-0.2-0.1-0.3-0.1-0.5-0.2c-3.6,7.1-8.5,13.6-9.3,22c2.9-3.6,5.4-7.5,9.3-10.5c0.1,1.7-0.4,3.1-0.5,5c2-2.1,3.9-3.8,4.8-6.2
		c1.5-3.8,4.5-5.5,8.4-5.7c1.1-0.1,2.3-0.1,3.4-0.1c23.8-0.1,47.5-0.2,71.3-0.2c-0.7-0.9-0.9-2.2-1.5-3.3
		c-5-10.3,0.7-20.5,11.4-30.8c4.2-4.1,11.4-6.9,17.8-8.6c41.3-10.9,61.9-4.3,61.8-4.5c-2.9-4.6-9.4-13.2-10.4-18.6
		c-0.4-2-0.5-4.1,0-6.3c1,0.7,1.3,1.6,1.7,2.3c3.7,6.1,7.6,12.1,12.3,17.5c2.9,3.3,6,6.3,9.8,8.5c2.3,1.4,4.8,2.4,7.7,2.7
		c-1.6-2.1-3.1-3.9-4.4-5.8c-8-12.4-11-26-9.1-40.6c0.7-5.1,2.3-9.9,5.4-14.1c0.5-0.7,1-1.4,1.9-2c0.1,1.1-0.2,2-0.4,2.9
		c-0.6,2.8-1.3,5.6-1.9,8.4c-1.3,5.7-2.2,11.4-1.7,17.3c0.2,1.9,0.4,3.9,1.3,5.9c0.2-0.6,0.4-1,0.5-1.3c1.6-6.4,4.2-12.4,7.4-18.2
		c3.5-6.5,7.3-12.8,10.8-19.3c3.3-6,5.9-12.2,7.4-18.9c0.1-0.4,0-0.9,0.6-1.2c0.7,2.2,0.9,4.4,1,6.6c0.4,6.4-0.7,12.6-2.2,18.7
		c-0.9,3.6-1.8,7.3-2.7,10.9c3.1-4.6,5.4-9.5,7.5-14.5c2.1-5.1,3.7-10.4,5.6-15.6c0.1,7.8-2.3,14.9-5.1,22.1c0.8-0.1,0.9-0.6,1.2-1
		c6.2-9.4,9.1-19.7,8.9-30.9c-0.2-10.2-2.4-20-6-29.5c-0.2-0.6-0.8-1.2-0.4-2.2c9.8,10.8,12.3,23.7,12,37.5c0.5-0.2,0.5-0.6,0.5-0.9
		c0.9-4.2,1.1-8.4,1-12.7c-0.4-10.7-2.5-21.1-5.2-31.4c-3.6-13.7-9.4-26.3-18.9-37.1c-0.1-0.2-0.2-0.4-0.3-0.6
		c0.9,0.3,1.6,0.8,2.2,1.3c4.8,4,9,8.6,12.9,13.5c6.4,8.3,11.5,17.3,16.1,26.7c0.4,0.7,0.5,1.6,1.5,2.3
		C586,410.8,585,408.2,584.1,405.7z M398.3,355.6c4.9-1,9.8-0.3,14.5,1.1C407.9,357.8,403,357.6,398.3,355.6z M413,404.2
		c-2,8-5.8,14.9-11.9,20.5c-2.3,2.1-4.8,3.7-7.7,4.6c-0.9,0.3-1.9,0.5-3.4,0.3c1.1-1,1.8-1.6,2.6-2.2c2.6-2.2,5-4.4,7.3-6.9
		c5.2-5.6,7.2-12.1,6.6-19.6c-0.3-3.7-0.8-7.3-1.6-10.9c-0.1-0.4-0.1-0.8-0.2-1.2c0.8-0.2,1,0.5,1.4,0.9c1.9,2.2,3.9,4.2,5.5,6.6
		C413.1,398.8,413.8,401.4,413,404.2z M386.4,339.1c4.5-6.9,17.9-11.3,26-8.6c-0.5,0.7-1.4,0.1-2,0.8c2.7,2,6.7,1.5,8.9,4.4
		C415.5,338.2,390.7,341,386.4,339.1z M427.3,320.3c1.2,0.7,2.2,0,3.5,0.6c-7.1,2.8-13.9,6-21.5,6.1c-3.2,0-6.3-0.5-9.8-2.1
		c8-3.4,15.4-6.9,23.7-8.8c-1.1-0.7-2.2-0.3-3-0.9c2.3-3.9,12.6-5.7,17.7-3.1C435.4,316.2,430.6,317.2,427.3,320.3z M440.5,304.2
		c-3.9,1-7.8,1.9-11.7,2.7c-2.8,0.6-5.4,1.8-8,3.1c-2.3,1.2-4.6,2.5-6.9,3.7c-3.5,1.7-7.2,2.7-11.2,2c-1.1-0.2-2.3,0-3.4,0
		c-0.4-0.9,0.3-1.2,0.7-1.5c1.2-1.1,2.5-2.2,3.9-3c10.1-6,21-9.3,32.9-9.4c1.3,0,2.6,0,3.9,0.4c0.9,0.2,1.8,0.3,2.7,1
		C442.5,304,441.5,304,440.5,304.2z M482.4,433.8c0.3-2,0.7-3.7,0.9-5.4c2-13.5-0.6-26-7.1-37.9c-4.1-7.5-9.2-14.3-14.6-20.9
		c-2.9-3.5-5.8-6.9-8.7-10.3c-0.5-0.6-1-1.2-1.8-2.3c4.6,0.5,8.2,1.8,11.7,3.7c6,3.3,10.8,7.9,14.6,13.5c6.1,9,9.4,19,10.4,29.8
		c0.8,9.4-0.4,18.4-4,27.2C483.6,432,483.3,432.9,482.4,433.8z M496.9,437.5c-0.9,10-3.4,19.7-5.4,29.4c-1.7,8.6-3.1,17.2-2.8,26.1
		c0.1,2.7,0.4,5.4,0.9,8c0.1,0.6,0.3,1.3,0,2.4c-2-3.5-3-6.9-3.8-10.4c-1.4-6.6-1.2-13.2-0.3-19.8c0.9-6.5,2.3-12.9,3.5-19.3
		c0.1-0.8,0.2-1.6,0.7-2.3c2.4-3.5,3.3-7.5,3.9-11.5c0.8-5.7,1.4-11.4,2.2-17c0.1-1.1,0.3-2.2,0.7-3.3
		C497.5,425.6,497.4,431.5,496.9,437.5z M528.4,475.3c-2.1,6.7-4.4,13.4-5.8,20.3c-1.4,6.6-1.8,13.3-0.5,20c0,0.1-0.1,0.3-0.2,0.7
		c-2-5.2-2.5-10.3-2-15.6c0.4-4.4,1.5-8.7,2.9-12.9c1.8-5.2,3.8-10.3,6-15.3C529.2,473.5,528.6,474.4,528.4,475.3z M554.5,395.2
		c-1.4-0.4-2.4-1.2-3.4-1.8c-3.3-2.3-6.1-5.2-8.6-8.4c-2.9-3.8-5.7-7.6-8.5-11.4c-0.6-0.8-1.2-1.8-2.3-2.4c-0.2,1,0.4,1.7,0.8,2.5
		c3.3,7.1,6.6,14.3,8.7,21.9c0.2,0.6,0.4,1.3,0.5,1.9c0.2,1.1-0.3,1.5-1.3,1.1c-1-0.4-1.5-1.2-2.1-2c-0.6-0.9-1-2-2-2.7
		c-0.3,0.5,0,0.9,0.1,1.2c5.2,11.6,7,23.8,6.6,36.4c-0.3,8.9-1.5,17.8-2.7,26.6c-0.6,4.2-1.2,8.4-1.8,12.6c-0.1,0.8-0.3,1.6-0.5,2.4
		c-1.4-6.8-0.9-13.4,0.3-20.1c1.1-6.6,2.3-13.2,2.8-19.9c0.7-8-0.3-15.8-2.6-23.5c-3.3-11.1-7.9-21.5-15.1-30.6
		c-1.6-2-2-2.3-4.4-2.4c4.6,7.8,8.5,15.8,9.1,25c-0.9-0.1-1-0.9-1.2-1.4c-1.2-2.6-2.1-5.3-3-8c-0.9-2.6-1.9-5.1-3.2-7.4
		c-0.4-0.7-0.7-1.5-1.6-2c-0.4,1.4,0.1,2.8-0.3,4.7c-4.5-9.2-11.5-15.1-20.4-19.1c11.6,12.3,15.4,27.5,17.1,43.7
		c-1.1-1.1-2.1-2.2-3.4-3.1c-1.3-0.9-2.6-1.7-4.4-1.7c0.8,8.6,2.6,17.2,0.1,25.7v-5.3c-0.2,0-0.3,0-0.5-0.1
		c-0.9,4.1-1.8,8.3-2.6,12.4c-0.1,0-0.3,0-0.4,0c-0.1-1.4-0.3-2.8-0.4-4.2c-0.4-6.2-0.9-12.4-1-18.6c-0.3-8.6-2.6-16.6-6.7-24.2
		c-4.5-8.4-10.2-15.8-16.9-22.5c-2.8-2.8-6.1-5-9.4-7c-3.1-1.9-6.4-3.7-9.4-5.9c-0.5-0.4-1.1-0.7-1.6-1.6c7.4-0.6,14.3,0.9,21,3.7
		c-0.2-1.4-1.3-1.7-1.9-2.4c-0.7-0.8-1.5-1.4-2.6-2.4c5.1-0.5,8.3,3.2,12.7,4.3c-1.7-2.7-3.7-4.6-5.8-6.3c-2.4-1.9-4.8-3.7-7.3-5.5
		c-2.1-1.6-4.2-3.1-6-5.1c-0.6-0.6-1.3-1.2-1.6-2.5c9.8,1.9,18.1,5.9,24.6,13.7c0.3-1-0.1-1.6-0.4-2.2c-2.7-7.7-7-14.6-12.5-20.7
		c-0.3-0.4-0.7-0.7-1-1.1c-0.8-1-0.7-1.3,0.4-1.7c1.2-0.4,2.5-0.6,3.9-0.7c1.7-0.1,3.4-0.5,4.7-1.9c-0.9-1.2-2.4-1.3-3.3-2.2
		c0.3-0.7,1-0.5,1.5-0.4c3.1,0.1,6,0.9,8.9,1.8c10.4,3.3,20.1,8,29.1,14c2.4,1.6,4.7,3.3,6.5,5.6c-6.6-2.6-12.9-5.7-19.9-7
		c1.1,1.5,2.8,2.2,4.3,3.2c1.6,1,3.2,1.9,4.8,2.9c1.5,1,3,1.9,4.5,3c1.5,1.1,3.1,2.1,4.7,3.7c-2.2-0.4-3.9-1.5-6.3-2.1
		c9.8,12.6,20.7,23.6,29,37.1c-1.5-0.1-1.9-1.5-3.2-1.5c0.4,1.6,1.4,2.7,2.3,3.8c1.1,1.2,2.2,2.4,3.2,3.7
		C554.2,391.9,554.7,393.4,554.5,395.2z"/>
	<path d="M581.2,575.8c-0.6,0-1.1,0-1.7,0c-11.6,0-23.1,0-34.7,0v0c0,0.8-0.1,1.6-0.4,2.3c11.8,0,23.7,0,35.5-0.1c0.4,0,0.8,0,1.2,0
		c0.8,0,1.5,0,1.5-1.1C582.6,575.9,582,575.8,581.2,575.8z"/>
	<path d="M402,493.6c-5.8-1.8-10.8-4.3-14.9-8.4c0.7-0.6,1.1,0.1,1.5,0.3c2.2,1.2,4.3,2.5,6.4,3.6c2.6,1.4,5.4,2.4,8.3,2.9
		c2.7,0.4,3.3,1.7,1.8,4.1c-1.6,2.6-3.9,4.5-6.8,5.4c-6.9,2.3-13.8,4.8-21,5.8c-2.5,0.4-5.1,0.3-7.6,0.2c-0.3,0-0.6-0.1-1,0.5
		c2.3,1.2,4.6,2.4,6.8,3.6c-3.4-0.3-6.5-3.5-10.2-0.9c0.4,1,1.3,1,2,1.4c0.6,0.4,1.9,0.3,1.3,1.7c-0.1,0.3,0.5,0.5,0.9,0.7
		c1.5,0.7,3,1.3,4.5,2c0.4,0.2,1.2,0.2,1.3,1.2c-1.8-0.7-3.5-1.3-5.1-1.9c-1.2-0.4-2.3-0.9-3.4-1.3c-1.9-0.7-2-0.7-2.8,1.2
		c-2.6,5.8-5.7,11.2-10.3,15.8c-3.2,3.2-6.9,5.8-11.2,7.4c-1.9,0.7-3.2,1.8-4.3,3.4c-1.7,2.5-3.7,4.8-5.9,6.9
		c-9.7,8.8-20.6,10.8-32.8,6.3c-3.4-1.2-6.6-3-9.5-5c-3.6-2.4-7.4-4-11.8-4.4c-11.2-1-19.5-6.6-25.4-16c-0.1-0.1-0.2-0.3-0.3-0.4
		c-3-4.7-3.9-4.2-7.8-2.7c-0.1,0.1-0.3,0-0.5,0c0.5-0.8,0.5-0.8,2.2-1.7c1.4-0.8,1.7-1.4,1-2.7c-0.7-1.4-1.4-1.5-2.7-0.7
		c-0.5,0.3-0.9,0.8-1.5,0.8c-0.1,0-0.1,0-0.2-0.1c-0.2-0.4,0.2-0.5,0.3-0.8c0.2-0.3,0.5-0.4,0.5-0.9c-1.2-0.3-2.2,0.8-3.4,0.7
		c0-0.9,1-1.2,1.1-2.2c-0.7-0.7-1.6-0.4-2.5-0.3c-2.5,0.3-4.7,1.3-6.9,2.4c-2,1.1-4,2.2-6.2,2.9c-0.6,0.2-1.2,0.5-2.5,0.3
		c2.6-1.9,4.9-3.5,7.2-5.2c-0.8-0.5-1.4-0.2-2-0.2c-4.6,0.4-9-0.3-13.3-1.6c-4.9-1.4-9.8-3.3-14.8-4.4c-0.6-0.1-1.1-0.3-0.8-1.1
		c0.2-0.4-0.2-0.6-0.5-0.7c-1.6-0.4-2.1-1.6-1.8-3c0.3-1.4,1.2-2.5,2.7-2.9c0.7-0.2,1.5-0.2,2.2-0.4c4.1-0.9,7.7-2.9,11-5.2
		c2.8-2,5.5-4.1,8.4-5.9c-5.4,6.2-11.8,11.1-19.5,14c-0.1,0.8,0.5,1,1,1.3c2.9,1.9,6,2.9,9.4,3.3c9.3,1.2,18.5,0.9,27.4-2.2
		c7.1-2.4,13.5-5.8,19.5-10.2c9.6-7.1,18.5-14.8,26.9-23.3c5.4-5.4,9.9-11.5,13.1-18.6c0.2-0.4,0.3-0.8,0.8-0.9
		c0.8,0.4,1.3,1.2,1.9,1.9c7.9,8.9,16.3,17.3,26,24.2c11.3,8.1,23.7,13.7,37.5,15.7c8.4,1.2,16.8,1.5,25.2-0.3
		C395,498.1,398.9,496.2,402,493.6z M306.8,516.3c-0.1,0-0.2,0-0.3,0.1c-0.2-0.9-0.5-1.9-0.7-2.8c-1-4.6-1.9-9.3-3.4-13.8
		c-1-2.9-2.1-5.7-4-8.1c-3.7-4.7-8.8-5.7-14-2.8c-3.7,2-6.5,5-8.4,8.7c-3.6,6.9-4.7,14.4-3.1,21.9c3.4,16.3,12.9,27.6,28.9,32.6
		c15.7,4.9,29.4-1.9,35.3-16.9c0.5-1.2,0.9-2.5,1.2-3.7c1.4-5.5,1.4-11,0.5-16.6c-1.2-7.2-3.8-13.9-8.5-19.6c-2.3-2.9-5.1-5.4-8.4-7
		c-4.5-2.2-9-2-13.5,0.1c-3.2,1.5-4,3.8-2.9,7.1c0.1,0.3,0.2,0.6,0.4,0.9c1.9,4,3,8.1,3.7,12.4c0.5,3,1.1,5.9,1,9
		c-0.8-1.5-1.1-3.2-1.5-4.8c-0.4-1.7-0.8-3.3-1.3-5c-0.5-1.6-0.5-3.3-1.4-4.7c-0.2,0-0.4,0.1-0.6,0.1
		C306.1,507.6,306.4,511.9,306.8,516.3z M342.1,531.3c4.5-0.9,7.6-3.1,9.2-7c1.5-3.8,0.7-7.4-1.8-10.6c-0.8-1-1.8-1.7-3.2-1.3
		c-1.4,0.4-1.5,1.6-1.5,2.8c-0.1,1.8-0.2,3.6-0.4,5.4C344,524.1,343,527.4,342.1,531.3z M275.7,538.9c0-0.4,0.1-0.5,0-0.7
		c-2.5-4.7-4.7-9.5-6.1-14.7c-0.3-1-0.8-1.8-2-1.9c-1.2-0.1-2,0.5-2.6,1.5c-2.3,3.4-2,8.7,0.8,11.6
		C268.4,537.6,271.9,538.6,275.7,538.9z M254.3,519.5c0.9,4.7,3.3,8.4,7.1,11.2C260.3,526.2,257.9,522.5,254.3,519.5z"/>
	<path d="M275.4,430.4c-1.1-0.3-2-0.1-3-0.1c-6.7-0.2-11.3-4.2-10.6-11.8c0.9-9.7,5.5-17.4,13.9-22.5c5-3.1,10.7-4.6,16.4-5.4
		c6.8-0.9,13.7-1.2,20.5,0.3c7.5,1.7,13.8,5.5,18.7,11.4c4.4,5.3,5.9,11.4,4.5,18.2c-1,4.8-3.9,7-8.8,6.7c-1-0.1-2-0.2-3.4-0.4
		c1,1.1,1.7,1.9,2.3,2.7c2.1,2.8,2.3,5.4,0,8.1c-4,4.6-8.4,9-14,11.8c-6.6,3.3-13.4,3.5-20.3,1.2c-7-2.4-12.9-6.7-18.1-11.9
		c-1.5-1.4-1.5-2.7-0.5-4.4c0.4-0.6,0.9-1.2,1.3-1.8C274.8,431.9,275.4,431.4,275.4,430.4z M294.4,420.1c0.5,0.2,0.7,0.3,0.9,0.4
		c3,2,3.2,2,6-0.2c0.2-0.2,0.4-0.3,0.6-0.5c1.9-1.3,3.1-1,4.2,1c0.4,0.6,0.6,1.3,0.9,2c0.7,1.7,1.5,3.3,2.8,4.6
		c2.4,2.4,5.1,3.3,8.4,2.2c-0.1-0.2-0.1-0.3-0.1-0.3c-0.5-0.5-1.2-0.4-1.8-0.6c-4.3-1.2-7-4-8.3-8.3c-0.7-2.3-0.9-4.7-0.6-7.1
		c0.3-2.6,1.5-4.7,3.8-6c4-2.3,8.1-2.5,12.1-0.1c2.7,1.6,4.8,3.9,7,6.2c0.8,0.9,0.9,1.9,0.6,3c-0.2,0.6-0.7,1.1-0.6,1.8
		c2.3,0.5,2.7,0.2,2.7-2c0-0.3,0-0.7-0.1-1c-0.7-5.4-2.8-10-6.9-13.7c-3.5-3.2-7.6-5.4-12.2-6.6c-11.2-3-22.3-1.9-33,2.4
		c-6.9,2.7-11.4,8.1-14.2,14.9c-0.2,0.5-0.4,0.9-0.5,1.4c-0.2,1,0,1.8,1,2.3c1.1,0.5,1.7-0.1,2.2-0.9c0.3-0.4,0.5-0.9,0.7-1.3
		c1.1-2.1,2.8-3.6,4.9-4.6c1.9-0.9,3.8-1.5,5.8-1.9c5.3-1.1,10,1.9,11.4,7.2c1.8,6.8-1.4,13.6-7.8,16.5c-0.5,0.2-1.2,0.3-1.5,1
		c1.8,0.7,2.4,0.7,3.8,0.3c3-0.9,4.9-3,5.8-5.9C293.2,424.3,293.8,422.3,294.4,420.1z"/>
	<path d="M362.8,294.1c4.2-5.4,10.9-7.3,15.6-12.1c-3.6,0.6-7.3,0.4-10.9,1.5c3-4.9,8.7-5.7,13.1-8.7c-2.7-2.4-5.4,0.1-8.4-0.6
		c2.7-1.4,5.5-1.7,7.7-3.1c-9.5,0.3-18.1,3.6-26.3,8.2c6.6-7.1,15.2-11.1,24-14.7c-3-0.6-5.9,0-8.8,0.5c-3,0.5-5.9,1.2-9,1.5
		c2.6-2.3,4.6-5.2,7.5-7c2-1.3,4.3-1.7,6.5-2c3.6-0.5,7.2-0.6,10.8-0.3c4.1,0.3,8.2,0.5,12.3,0.6c1.7,0.1,3.4-0.3,5.2-1.4
		c-1.5-0.7-2.8-0.7-4-0.9c-10.8-1.7-21.7-3.4-32.5-5.1c-0.8-0.1-1.8,0.1-2.2-1.1c-0.1-0.4-0.9-0.3-1.3-0.3c-2.9-0.2-5.7,0.6-8.3,1.9
		c-2.4,1.2-4.7,2.6-7,4c-1.5,0.9-3,1.9-4.8,2.3c4.7-6.3,12-8,19-10.3c-12.4-4.4-24.1-2.5-35.3,4.4c-0.1-0.9,0.4-1.2,0.8-1.5
		c3.2-3.1,7.1-4.9,11.3-6.1c6.9-2.1,13.9-1.9,20.9-0.8c7.5,1.2,14.8,3.4,22,5.9c8.3,2.9,16.8,4.4,25.6,3.7c2-0.2,4.1-0.5,6.1-0.8
		c0.8-0.1,1.6-0.4,2.4-0.2c0.3,0.7-0.3,1.1-0.6,1.5c-4,5.4-9.5,8.4-16,9.8c-1,0.2-1.9,0.4-2.9,0.6c-0.1,0-0.1,0.1-0.2,0.3
		c4,0.6,7.6-0.4,11.4-1.5c-0.7,0.4-1.3,0.8-2,1.3c-0.7,0.5-1.5,0.7-2.1,1.5c1,0.6,2,0.4,3,0.4c1.7,0,3.4-0.4,5.1-0.2
		c1.4,0.1,2.7,0.5,3.7,1.8c-1.5,0.5-2.8,0.9-4.1,1.3c-12.1,3.9-22.7,10.2-31.5,19.3c-2.7,2.8-5.8,4.4-9.5,5.1
		C367.1,293.3,364.9,293.7,362.8,294.1z"/>
	<path d="M351.1,485.8c10.7,4.6,21.6,7.8,33.1,8.4c-2.7,1.4-5.5,1.6-8.3,1.4c-8.7-0.6-16.6-3.5-23.7-8.4c-0.3-0.2-0.5-0.4-0.8-0.6
		C351.3,486.4,351.2,486.3,351.1,485.8z"/>
	<path d="M250.5,495.4c-8.2,9.5-18.4,14.2-31.1,12.6c5.5-1,11-2.1,16.3-4.3C240.9,501.5,245.8,498.5,250.5,495.4z"/>
	<path d="M370.4,255.5c-5.4,1.8-10.6,3.5-15.9,5.3C355.3,255.6,364.8,252.4,370.4,255.5z"/>
	<path d="M254.8,275.2c-3.7-3.2-7.4-6.4-11.3-9.7c1.1-0.9,2-0.6,2.8-0.3c1.4,0.5,2.6,1.3,3.7,2.3
		C252.2,269.7,253.7,272.3,254.8,275.2z"/>
	<path d="M184.5,274.9c-4.6-1-8.9-2-13.4-3C174.7,270.6,181.1,272.1,184.5,274.9z"/>
	<path d="M252.5,259c-2.9-0.9-5.6-2.3-8.5-3.7C246.7,254.2,249.3,255.3,252.5,259z"/>
</g>
<g>
	<path d="M119.4,591.7c-0.4,2.1-0.6,4.1-1,6c-0.9,3.9-2.8,7.1-6.6,8.8c-0.9,0.4-0.5,1.1-0.5,1.6c0,0.5,0.4,1.3,0,1.6
		c-0.5,0.3-1.1-0.3-1.6-0.5c-2-0.9-3.5-2.5-5-4c-0.3-0.3-0.6-0.6-1-0.8c-7.1-2.1-11.5-6.7-12.8-14.2c-0.5,0.2-0.4,0.7-0.5,1
		c-1.2,4.6-3.4,8.5-7.7,10.9c-0.5,0.3-0.4,0.5-0.1,0.8c0.7,0.5,1.4,1,2,1.4c-2.7,2.5-7.6,2.2-10.4-0.6c-0.5-0.5-1-0.8-1.7-1.1
		c-3.6-1.4-6.2-3.9-8.3-7c-1.2-1.7-2.1-3.5-3-5.3c-0.2-0.4-0.4-0.8-0.9-0.4c-0.3,0.3-1.1,0.3-0.6,1.1c0.4,0.6,0.7,1.2,1.1,1.9
		c0.1,0.2,0.4,0.5,0.2,0.7c-0.2,0.2-0.5,0.2-0.8,0.1c-1.7-0.4-3.1-1.3-4.4-2.4c-0.7-0.5-1.3-1-2.1-1.3c-3.3-1.5-5.3-4.1-6.4-7.4
		c-4.1-13-3.1-25.4,4.8-36.9c4.3-6.3,10.3-10.7,17.1-14.1c6.3-3.1,12.8-5.4,19.8-6c5.1-0.5,10.1,0,15.2,0.7c7.4,1,14.8,2.3,22.1,4.3
		c7.8,2.1,15.7,4.4,22.7,8.5c9.7,5.7,17,13.5,19.7,24.8c1.5,6.3-0.4,11.6-5.7,15.5c-2.1,1.6-4.4,2.8-6.9,3.5
		c-4.4,1.2-8.8,2.5-13.4,3c-0.6,0.1-0.7,0.4-0.9,0.8c-1.3,3.1-3,6.1-5.4,8.5c-1.5,1.5-3.3,2.7-5.4,3.2c-0.6,0.1-1,0.5-1.5,0.8
		c-1.1,0.7-2.3,1.2-3.6,1.3c-0.3,0-0.6,0-0.8-0.2c-0.2-0.3,0.1-0.5,0.2-0.7c1-1.2,1-1.2-0.3-2.1C122.7,596.1,121.1,594,119.4,591.7z
		 M51.7,585.4c0.1-1.6,0.3-2.7,1.8-3c1.3-0.2,2.3,0.3,3.2,1.8c0.6,1,1,2.1,1.2,3.2c0.1,0.5,0.2,1.2,1,0.8c0.6-0.3,1.3-0.3,0.9-1.4
		c-0.9-2.9-1.3-5.8-1.4-8.8c-0.5-9.4,1.9-18.2,5.9-26.7c0.1-0.3,0.3-0.6,0.6-0.8c0.5-0.4,1-1,1.7-0.6c0.6,0.4,0.3,1.1,0.2,1.7
		c-0.4,1.9-1,3.8-1.8,5.6c-3.4,8.3-3.9,16.9-2.2,25.6c0.9,4.7,2.6,9,5.9,12.6c0.8,0.9,1.6,1.7,2.9,2.3c-0.2-0.7-0.3-1.3-0.4-1.8
		c-0.3-1.5-0.5-3.1-0.2-4.6c0.7-3.2,3.9-4.4,6.5-2.4c1.5,1.1,2.1,2.7,2.6,4.5c0.5,1.8,0.4,3.6,0.8,5.5c1-0.5,1.8-1.1,2.5-1.9
		c2-2.2,3-4.7,3.7-7.5c1.5-6.5,1.9-13.1,2.4-19.7c0.4-4.8,1-9.5,2.6-14.1c0.3-0.8,0.4-2.1,1.4-1.9c1.1,0.2,0.9,1.5,0.7,2.5
		c-0.6,4.1-1.2,8.2-1.4,12.4c-0.5,9,0.7,17.8,3.9,26.3c0.5,1.3,1.1,2.5,2.1,3.4c0.7,0.7,1.4,1.3,2.5,1.7c-0.3-1-0.5-1.7-0.7-2.5
		c-0.7-3.1-0.3-6,2-8.3c2.8-2.7,5.6-2.5,7.6,0.9c0.1,0.2,0.3,0.5,0.4,0.7c1.2,2.6,1.3,5.3,1,8.1c-0.1,0.5-0.1,1-0.1,1.7
		c1.8-1.2,2.8-2.6,3.4-4.4c0.6-1.9,0.8-3.8,0.9-5.8c0.3-9.9,1.4-19.8,2.3-29.7c0.2-2.1,0.3-4.1,1-6.1c0.2-0.5,0.4-1.3,1.1-1.2
		c0.8,0.1,0.8,0.8,0.9,1.4c0.1,1.5,0.1,3,0,4.5c-0.7,6.2-0.8,12.4-0.6,18.6c0.1,4.1,0.6,8,2.1,11.8c0.7,1.8,1.6,3.4,3.1,4.6
		c0.5,0.4,1.1,1,1.7,0.7c0.5-0.2,0.1-1,0.3-1.5c0-0.2,0-0.4,0-0.6c0.1-1.5,0.5-2.9,1.6-4c1-0.9,2.1-1.2,3.3-0.8
		c1.2,0.4,1.6,1.5,1.6,2.7c0,0.7,0,1.4,0,2.2c1.3-1.1,2.1-2.4,3-3.7c2.6-4.2,4.6-8.7,6.7-13.1c0.9-1.9,1.8-3.9,3.1-5.6
		c-0.7,4.2-2.1,8.1-3.6,12.1c0.3,0,0.5,0.1,0.7,0c5.4-0.8,10.7-2,15.4-4.9c4.1-2.6,6.6-6.3,6-11.5c-1.1-9-5.5-16.2-12.7-21.7
		c-6.5-5-14.1-7.5-21.8-9.4c-8.1-2.1-16.5-3-24.8-4c-10.8-1.3-21.5-1.2-32.1,2.3c-10,3.3-17.4,9.5-21.7,19.1
		c-3.4,7.5-4.2,15.5-3.7,23.6C48.6,579.5,49.8,582.5,51.7,585.4z M107.5,605.3c-2.2-4.8-4.2-9.7-2.4-15.1c-2,1-2.9,3.2-2.4,5.8
		C103.2,599.6,105.1,602.6,107.5,605.3z M78.9,603.9c-1.8-1.7-2.8-3.6-3.7-5.5c-0.9-1.9-1.4-3.9-2.2-6.1
		C71.9,597.1,74.7,602.7,78.9,603.9z M132.4,590.8c-0.9,2.8-2.4,4.8-3.8,7.2C131.6,596.3,132.9,593.7,132.4,590.8z M54,585.5
		c-0.7,2,0.8,4.3,3.4,5.3C56.1,589,54.5,587.6,54,585.5z"/>
</g>
<g>
	<path d="M467.2,598c-1.3,0.9-1.3,0.9-0.3,2.1c0.2,0.2,0.4,0.4,0.2,0.7c-0.2,0.3-0.5,0.3-0.8,0.2c-1.3-0.1-2.5-0.5-3.6-1.3
		c-0.5-0.3-0.9-0.6-1.5-0.8c-2.1-0.6-3.8-1.7-5.4-3.2c-2.5-2.4-4.1-5.4-5.4-8.5c-0.2-0.4-0.3-0.7-0.9-0.8c-4.6-0.5-9-1.8-13.4-3
		c-2.5-0.7-4.8-1.9-6.9-3.5c-5.3-3.9-7.2-9.2-5.7-15.5c2.7-11.3,10-19.1,19.7-24.8c7-4.1,14.9-6.4,22.7-8.5c7.2-2,14.6-3.3,22.1-4.3
		c5-0.7,10.1-1.1,15.2-0.7c7,0.6,13.5,2.9,19.8,6c6.8,3.4,12.8,7.8,17.1,14.1c7.8,11.5,8.8,23.9,4.8,36.9c-1,3.3-3.1,5.9-6.4,7.4
		c-0.8,0.3-1.5,0.8-2.1,1.3c-1.3,1.1-2.7,1.9-4.4,2.4c-0.3,0.1-0.6,0.1-0.8-0.1c-0.2-0.3,0-0.5,0.2-0.7c0.3-0.6,0.7-1.3,1.1-1.9
		c0.5-0.8-0.2-0.8-0.6-1.1c-0.6-0.5-0.7-0.1-0.9,0.4c-0.8,1.9-1.8,3.6-3,5.3c-2.2,3.1-4.8,5.6-8.3,7c-0.6,0.2-1.2,0.6-1.7,1.1
		c-2.8,2.8-7.7,3.1-10.4,0.6c0.7-0.5,1.4-0.9,2-1.4c0.4-0.3,0.4-0.5-0.1-0.8c-4.3-2.5-6.5-6.3-7.7-10.9c-0.1-0.3,0-0.8-0.5-1
		c-1.3,7.4-5.7,12-12.8,14.2c-0.5,0.1-0.7,0.5-1,0.8c-1.5,1.5-3,3.1-5,4c-0.5,0.2-1.1,0.9-1.6,0.5c-0.4-0.3,0-1,0-1.6
		c0-0.6,0.4-1.2-0.5-1.6c-3.8-1.7-5.7-4.9-6.6-8.8c-0.4-1.9-0.7-3.8-1-6C471.1,594.4,469.5,596.5,467.2,598z M543.7,576.7
		c0.4-8.1-0.4-16.2-3.7-23.6c-4.3-9.5-11.7-15.7-21.7-19.1c-10.6-3.5-21.2-3.5-32.1-2.3c-8.3,1-16.7,1.9-24.8,4
		c-7.7,2-15.3,4.5-21.8,9.4c-7.2,5.5-11.6,12.7-12.7,21.7c-0.7,5.2,1.9,9,6,11.5c4.7,2.9,10,4.1,15.4,4.9c0.2,0,0.4,0,0.7,0
		c-1.5-4-2.9-8-3.6-12.1c1.3,1.7,2.2,3.7,3.1,5.6c2.1,4.4,4.1,8.9,6.7,13.1c0.8,1.3,1.7,2.6,3,3.7c0-0.8,0-1.5,0-2.2
		c0.1-1.2,0.4-2.3,1.6-2.7c1.2-0.5,2.4-0.1,3.3,0.8c1.2,1.1,1.5,2.5,1.6,4c0,0.2,0,0.4,0,0.6c0.1,0.5-0.3,1.3,0.3,1.5
		c0.6,0.2,1.2-0.4,1.7-0.7c1.5-1.2,2.4-2.8,3.1-4.6c1.5-3.8,2.1-7.8,2.1-11.8c0.1-6.2,0-12.4-0.6-18.6c-0.2-1.5-0.1-3,0-4.5
		c0-0.6,0.1-1.3,0.9-1.4c0.8-0.1,0.9,0.6,1.1,1.2c0.7,2,0.8,4.1,1,6.1c0.9,9.9,2,19.8,2.3,29.7c0.1,1.9,0.3,3.9,0.9,5.8
		c0.6,1.8,1.6,3.3,3.4,4.4c-0.1-0.7-0.1-1.2-0.1-1.7c-0.3-2.8-0.1-5.5,1-8.1c0.1-0.3,0.2-0.5,0.4-0.7c2-3.4,4.8-3.6,7.6-0.9
		c2.4,2.3,2.8,5.2,2,8.3c-0.2,0.8-0.4,1.5-0.7,2.5c1.1-0.4,1.8-1,2.5-1.7c1-1,1.6-2.2,2.1-3.4c3.2-8.5,4.5-17.3,3.9-26.3
		c-0.2-4.1-0.9-8.2-1.4-12.4c-0.1-0.9-0.4-2.2,0.7-2.5c1-0.2,1.2,1.1,1.4,1.9c1.5,4.6,2.2,9.3,2.6,14.1c0.5,6.6,0.9,13.2,2.4,19.7
		c0.7,2.8,1.7,5.4,3.7,7.5c0.7,0.8,1.5,1.4,2.5,1.9c0.3-1.9,0.3-3.7,0.8-5.5c0.5-1.7,1.1-3.3,2.6-4.5c2.6-2,5.9-0.8,6.5,2.4
		c0.3,1.6,0.1,3.1-0.2,4.6c-0.1,0.5-0.2,1.1-0.4,1.8c1.2-0.6,2.1-1.4,2.9-2.3c3.3-3.6,5-8,5.9-12.6c1.7-8.7,1.1-17.3-2.2-25.6
		c-0.7-1.8-1.4-3.7-1.8-5.6c-0.1-0.6-0.4-1.3,0.2-1.7c0.6-0.4,1.2,0.3,1.7,0.6c0.2,0.2,0.4,0.5,0.6,0.8c4,8.5,6.4,17.3,5.9,26.7
		c-0.2,3-0.5,6-1.4,8.8c-0.3,1.1,0.3,1.1,0.9,1.4c0.9,0.4,0.9-0.3,1-0.8c0.3-1.1,0.7-2.2,1.2-3.2c0.9-1.5,1.9-2.1,3.2-1.8
		c1.5,0.3,1.7,1.4,1.8,3C542.4,582.9,543.6,579.9,543.7,576.7z M489.6,596.4c0.4-2.7-0.5-4.8-2.4-5.8c1.8,5.5-0.2,10.3-2.4,15.1
		C487.1,603,489,600,489.6,596.4z M519.1,592.7c-0.8,2.2-1.3,4.2-2.2,6.1c-0.9,1.9-1.8,3.8-3.7,5.5
		C517.5,603.1,520.3,597.5,519.1,592.7z M463.5,598.4c-1.4-2.3-2.9-4.4-3.8-7.2C459.2,594.1,460.6,596.7,463.5,598.4z M534.8,591.1
		c2.6-1,4.1-3.3,3.4-5.3C537.7,588,536.1,589.4,534.8,591.1z"/>
</g>
</svg>
