<?xml version="1.0" encoding="utf-8"?>
<!-- Generator: Adobe Illustrator 24.2.3, SVG Export Plug-In . SVG Version: 6.00 Build 0)  -->
<svg version="1.1" id="Layer_1" xmlns="http://www.w3.org/2000/svg" xmlns:xlink="http://www.w3.org/1999/xlink" x="0px" y="0px"
	 viewBox="0 0 595.3 841.9" style="enable-background:new 0 0 595.3 841.9; fill: #215342;" xml:space="preserve"
	 height="350" width="700" transform="translate(-225, -49)">
<style type="text/css">
	.st0{fill:#FFFFFF;}
</style>
<g>
	<path d="M578.7,563c-15,1.2-29.7,0.5-44.2,1.8c15.8,0.2,31.5,0.8,47.3,1.5c-3.7,1.4-7.6,1.5-11.4,1.7c-15.9,1.1-31.8,0.7-47.7,0.7
		c-1.9,0-3.5,0.4-5.2,1.4c-4.6,2.9-9.9,3.9-15.3,4.1c-4.1,0.2-8.2-0.1-12.2-0.7c-1.1-0.2-2.1-0.1-3,0.4c-10.1,5.3-20.4,4.5-30.7,1
		c-3.4-1.2-6.7-1.4-10.1-1.1c-7.5,0.8-15,1-22.3-1.7c-1.2-0.5-2.5-0.3-3.7-0.2c-27.7,0.6-55.5,1.1-83.2,1.7c-1.4,0-2.5,0.3-3.5,1.5
		c-7.9,8.5-17.8,12.8-29.4,13.8c-10.7,0.9-21.3,0.9-31.7-1.9c-7.3-2-13.8-5.3-19.6-10.2c-1-0.8-1.8-1.2-3-1.2
		c-19.9,0.3-39.8-0.4-59.7-0.4c-2.1,0-3.8,0.5-5.6,1.6c-5.9,3.6-12.3,5.7-19.3,5.8c-2.1,0-4.3-0.2-6.1-1.1c-1.5-0.7-2.3-0.3-3.4,0.4
		c-4.3,2.8-8.8,5.2-14,6.1c-6.5,1.1-12.9,0.7-19-2.3c-0.9-0.5-1.7-1.1-2.8-0.2c-7.5,5.3-15.7,4.8-24,2.6c-3.9-1-7.4-2.9-10.6-5.3
		c-1.3-0.9-2.5-1.3-4-1.5c-8-0.7-14.4-4.2-18.8-11c-1.1-1.6-2.3-2.1-4.1-2.1c-7.3-0.1-14.7,0-22-0.7c-0.8-0.1-1.7,0.1-2.6-0.7
		c0.8-0.6,1.8-0.4,2.6-0.4c6.7-0.2,13.4-0.3,20.1-0.5c0.8,0,2.4,0.8,2.5-0.9c0.1-1.7-1.3-1.8-2.7-1.9c-7.3-0.2-14.6-0.5-22-0.6
		c-5.7-0.1-11.5-0.2-17.5-0.8c1.3-1,2.5-0.9,3.7-0.9c11.2,0.1,22.4-0.9,33.6-0.7c2.7,0,2.6,0,2.1-2.7c-2.6-14.2-0.2-27.1,10-37.8
		c6-6.2,13.5-9,22-9.1c2.8,0,4.8-0.6,7-2.5c5.5-4.9,11.8-8.2,19.1-9.5c2.2-0.4,3.1-1.1,3-3.6c-0.1-18.7-0.1-37.5,0-56.2
		c0-2.1-0.5-3.6-2.2-5.2c-6.5-6.1-11-13.9-15.9-21.4c4.2,3.7,8.3,7.4,12.8,11.3c0.1-1.5-0.8-2.1-1.3-2.8c-5-6.2-10.7-11.8-16.2-17.5
		c-0.4-0.5-0.9-0.9-1.3-1.3c-0.3-0.3-0.7-0.7-0.5-1c0.2-0.2,0.8-0.2,1.1-0.2c4,0.6,8,1.5,11.8,3c0.5,0.2,1,0.8,2,0.4
		c-5.2-7.6-8-16.9-18-20.3c1.4-1.2,2.9,0.8,3.4-0.4c0.4-0.9-1-1.9-1.6-2.9c-7.2-10.3-15.4-19.8-24.4-28.5
		c-13.4-13-19.5-29.1-20.1-47.6c-0.2-7.3-0.4-14.7,0.1-22c0.8-14.2,4.8-27.3,13.3-38.9c3.8-5.1,4.8-5.8,14-10.2
		c-1.6-0.8-3.1,0.1-4.5-0.1c9.6-3.5,17.1,1.7,24.8,6.2c0.1-0.2,0.2-0.4,0.3-0.6c-1.4-1-2.8-2-4.3-3c-1.6-1-3.2-2-4.9-2.9
		c-1.6-0.9-3.3-1.7-4.9-2.8c4,0.6,7.6,2.3,11.1,4.2c7.6,4.2,14.8,9.1,21.7,14.3c19.5,14.9,39.3,29.5,59.7,43.3
		c7.2,4.9,13.9,10.4,20.4,16.2c0.8,0.7,1.5,1.7,3.1,2.1c-1.2-2.7-3.1-4.5-4.9-7c3.8,1.7,6,4.4,8.5,7.7c-0.3-2.8-1.3-4.8-2.2-6.7
		c-1-2-2-4.1-2.7-6.2c7.2,5.5,11,13.3,14.1,21.6c0.3-2.7-0.5-5-1.2-7.4c-0.7-2.4-2.3-4.3-3.6-7c2.3,1.2,3.9,2.5,5.4,3.8
		c4.7,4.1,10.5,7,14.7,11.7c2.1,2.4,3.9,4.9,5.3,7.7c0.5,1.1,1.1,1.3,2.2,0.6c7.7-4.9,16.2-7.6,25.2-9.1c3.1-0.5,6.3-0.6,9.4-0.5
		c1.8,0.1,3.1-0.5,4.5-1.7c5.1-4.3,9.3-9.6,14-14.4c0.3-0.3,0.4-0.9,0.8-0.8c0.7,0,0.6,0.8,0.7,1.2c0.8,2.7-0.1,5.4-0.2,8.9
		c4.6-6.1,9.2-11,16.6-13.1c-2.9,4.8-5.7,9.1-7.7,13.7c-0.3,0.6-0.5,1.1-0.8,1.7c-0.4,0.7-1,1.7-0.5,2.3c0.7,0.9,1.5-0.2,2.2-0.5
		c1.5-0.6,3-1.3,4.8-1.3c-0.1,1.5-2.2,1.6-2.2,3.1c1.4-0.1,2.4-1.1,3.7-1.5c10.5-3.5,20.8-2.6,30.9,1.4c2.9,1.2,5.7,2.5,8.4,4.3
		c1,0.7,1.4,0.7,2.2-0.4c2.3-3.3,5.1-6.1,8.2-8.6c6.3-5,12.7-9.9,19.9-13.6c0.7-0.4,1.8-1.3,2.2-0.7c0.5,0.9-0.8,1.4-1.4,2
		c-2.7,2.8-5.7,5.2-7.7,8.8c1.3-0.8,2.7-1.7,4-2.4c9-5,18.2-9.9,27.1-15c26-15.1,50.2-32.5,73.2-51.8c9.2-7.8,19.1-14.6,30.6-18.7
		c3.1-1.1,6.2-1.7,9.4-2.1c-3.2,1.4-6.6,2.4-9.8,3.9c-3.2,1.5-6.3,3.2-9.4,5.1c-3.1,1.9-6.2,3.8-9.2,6.2c1.2,0.7,1.7-0.2,2.4-0.6
		c5.1-2.9,10.4-5.4,16.2-6.6c0.8-0.2,1.7-0.7,2.4-0.2c2.5,1.6,5.2,1.2,7.9,0.8c4.6-0.7,8.6,1.1,12.7,2.8c0.9,0.4,1.4,1.2,1.7,2.1
		c0.3,0.7,0.9,1.3,0.5,2c-0.5,0.8-1.3,0.3-2,0.2c-0.6-0.1-1.2-0.2-1.9-0.2c-2.2,0-4.3,0.4-6.5,1c0.4,2,1.9,3.4,3.1,4.9
		c6.2,8.1,8.8,17.4,9.9,27.3c2.6,23-1.3,45-10.6,66.1c-5.7,13-13.9,24.4-24.5,33.8c-8.1,7.1-13.4,16-17.5,25.6
		c-1.2,2.8-0.9,6.2-1.1,9.4c-0.1,1.3,0.8,0.8,1.5,0.4c2.3-1.5,4.8-2.5,7.3-3.6c0.4-0.2,0.9-0.5,1.2-0.1c0.4,0.6-0.2,0.9-0.6,1.2
		c-2.7,2.9-5.6,5.6-8,8.8c-1.3,1.7-1.6,3.3-1.6,5.2c0.2,14.3,0.4,28.7,0.6,43c0.1,8.5,0.1,17,0.2,25.4c0,2.9,0.1,3,2.9,2.3
		c14.5-3.4,26,1.9,35.9,12c1.7,1.7,3.4,3.4,4.4,5.7c0.6,1.4,2,1.4,3.1,1.8c7.7,2.4,13.8,6.7,18.2,13.5c8.1,12.7,5.4,31.1-6.2,40.8
		c-0.4,0.4-1.4,0.6-1.1,1.3c0.2,0.7,1.1,0.4,1.7,0.4c13.1,0,26.2,0,39.3,0.1C574.6,562,576.5,561.8,578.7,563z M289.6,315.6
		c-1.9,2.2-4,4.1-5.9,6.2c-0.3,0.4-0.7,0.9-1.3,0.8c-0.8-0.2-0.8-0.9-0.8-1.5c0-1.4,0-2.7,0-4.1c0-0.9,0.5-2.4-0.1-2.7
		c-1.1-0.4-1.5,1.1-2.2,1.8c-2.4,2.6-4.1,5.9-7.2,7.8c-2,1.3-3.7,2.6-4.6,4.9c-0.2,0.4-0.3,1.1-0.9,1c-0.6-0.1-0.6-0.8-0.6-1.3
		c-0.2-1.4-0.8-2.3-2.5-2c-6.6,1.2-13.2,2.1-19.3,5.2c-3,1.5-6.6,2.4-7.5,6.4c-0.1,0.4-0.5,0.6-0.8,1c-5.1,6.1-10.4,12-15.1,18.4
		c-8.4,11.6-14.4,24.3-15.2,38.9c-0.2,3.9-0.7,7.7,0.1,11.6c0.4,2.2,0.6,2.3,2.6,1c1.1-0.7,2.3-1.5,3.4-2.2c0.4-0.3,1-0.8,1.4-0.4
		c0.5,0.6-0.3,1.1-0.5,1.6c-0.2,0.4-0.5,0.7-0.8,1c-3,3.5-5.6,7.3-8.1,11.2c-0.6,0.9-2.1,2-1,2.9c1.3,1.1,1.9-0.8,2.9-1.5
		c0.2-0.1,0.4-0.1,0.9-0.2c-0.5,1.6-1.4,2.7-2.1,3.9c-1.7,2.8-3.7,5.5-4.5,8.6c-1.7,7.4-2.2,15.1-6,21.9c-0.4,0.7-0.2,1.7,0.7,1.6
		c1.2-0.2,2.7,0.2,3.6-0.8c2.5-3.1,5.5-6.3,6.1-10.1c0.5-3.2,1.7-5.9,2.7-8.8c2.1-6.3,5.9-11.6,10.7-16c4.7-4.2,10.1-7.4,16.8-7.5
		c2.4,0,2.4-0.1,1.2-2.2c-0.3-0.6-0.6-1.1-0.4-1.8c0.5-1.5-0.3-2.6-1.3-3.6c-0.9-0.9-1.8-1.8-2.5-2.8c-0.8-1.3-1.7-1.6-3.1-1.5
		c-2.1,0.1-4.2,0.1-6.3,0.2c-0.5,0-1.1,0.1-1.4-0.5c-0.3-0.8,0.4-1.1,0.9-1.4c1.9-1,3.9-2,6.2-2.1c0.3,0,1.1,0.5,1-0.5
		c-0.2-2.2,0-2.3,2.1-2.5c1-0.1,1.9,0.7,3,0.1c4.3-2.3,7.1-1.5,9.5,2.7c2.5,4.4,2.9,9.3,2.8,14.3c0,1.4-1.8,1.9-1.6,3.3
		c0.5,3,0.5,6.1,2.6,8.6c0.3,0.4,0.9,0.5,1,1.1c1.7,7.4,4,14.7,4.2,22.5c0,1.1-0.4,2.7,0.8,3.1c1.5,0.4,1.9-1.3,2.5-2.3
		c2-3.1,3.5-6.5,5.8-9.3c2.1-2.6,2.7-5.4,2.9-8.4c0.8-12.4-1.9-24.2-6.2-35.7c-0.3-0.7-0.7-1.4,0.1-1.9c0.9-0.5,1.4,0.3,1.7,0.9
		c4.6,7.7,9.4,15.5,8.1,25.1c-0.3,2.3-0.5,4.6-0.8,6.9c-1.4,8.9-3,17.8-7.9,25.6c-1.6,2.6-3.3,5.1-5.2,7.5c-0.7,0.9-1.9,2.1,0.1,2.9
		c1.1,0.5,0.4,0.9,0,1.3c-0.5,0.5-1.2,0.8-1.8,1.3c-12.4,8.5-22.2,19.5-28.8,32.9c-3.3,6.7-5.3,14-3.9,21.8c0.1,0.5,0.1,1.1-0.3,1.5
		c-1,0.9-0.7,2.1-0.8,3.2c-0.3,5,0.4,10,0.7,15c0.3,4.6,2.2,7.7,5.7,10.2c1,0.7,2,1.6,3,2.3c7.5,5.2,16,8.1,24.9,9.9
		c10.7,2.2,21.2,0.9,31.5-2.3c2.3-0.7,4.1-2,5.6-3.9c1.6-2.1,0.5-4.3,0-6.3c-0.4-1.5-2.1-1-3.3-1c-3.2-0.2-6.2-0.8-9.1-2.1
		c-7-3-12-8-14.6-15.4c3.4,2.9,6.7,1.1,10.5,0.3c-2-1.3-4-1.1-5.7-1.7c-5.3-1.8-9.3-5-10.2-10.8c-1-6.4,0.9-12,6.4-16
		c2.9-2.1,6.2-3.5,9.6-4.6c9.7-3.1,19.7-3.7,29.8-3c6.2,0.4,12.2,2,17.5,5.5c5.8,3.8,8,9.3,7,15.9c-1,6.4-5.3,10-11.3,11.6
		c-1.2,0.3-2.4,0.6-3.7,0.9c-0.4,0.1-0.9,0.4-0.9,0.8c0,0.3,0.5,0.6,0.8,0.8c1.8,0.9,3.7,0.8,5.5,0.7c2.4-0.1,2.5,0.1,1.6,2.2
		c-0.2,0.5-0.5,0.9-0.8,1.4c-5.4,8.6-13.5,12.5-23.2,13.5c-3.6,0.4-4.1,0.9-2.9,4.3c0.2,0.6,0.6,1,1.1,1.5c1.8,1.9,3.9,3,6.4,3.8
		c4.9,1.4,9.8,1.9,14.9,2c12.1,0.2,23.4-2.7,33.6-9.5c4.9-3.2,9.1-7.3,11.7-12.5c1.6-3.2,4.5-5.4,5.8-8.8c0.1-0.4,1.4-0.8,1.5-0.8
		c2.1,1,2.8-0.9,4-1.8c2.4-1.9,4.6-4,6.9-5.9c2.3-1.9,4.9-3.3,7.9-4.5c0,1.4-1.1,1.8-1.7,2.3c-3.5,2.8-6.6,6.1-9.5,9.5
		c-0.6,0.7-2.2,1.7-1.4,2.4c1,0.8,1.8-0.9,2.5-1.6c6.9-7.3,14.6-13.8,23.4-18.8c3-1.7,5.9-3.4,8.9-5.2c-3.5,0.3-6.5,2.4-10,2.4
		c2.4-1.9,5-3.5,7.8-4.6c2.9-1.1,6-1.3,9.5-2.4c-2.3-0.6-3.9-0.5-5.6-0.1c-1.1,0.2-2.3,0.3-3.4,0.4c-0.5,0-1.2,0.2-1.3-0.5
		c-0.1-0.6,0.7-0.6,1.2-0.7c4-0.9,8.1-1.3,12.2-1.2c1.4,0,2.7-0.1,4.1-0.1c0.2,0,0.5-0.1,0.5-0.2c0.2-0.3-0.1-0.7-0.3-0.8
		c-2-0.4-2.8-2.4-4.3-3.5c-0.7-0.5-2.1-0.8-1.6-1.9c0.3-0.8,1.5-0.6,2.3-0.6c0.2,0,0.4,0,0.6,0c1,0,0.9-0.2,0.1-0.7
		c-0.4-0.3-1-0.6-0.6-1.2c0.3-0.5,0.9-0.3,1.4-0.3c1.1,0.1,2.7,0.8,3.1-0.3c0.3-0.9-1.5-1.4-2.4-2.1c-0.1-0.1-0.1-0.4-0.1-0.7
		c1.1,0.1,2.3,0.2,3.4,0.3c0.4,0,0.9,0.2,1.1-0.3c0.1-0.5-0.5-0.6-0.8-0.8c-0.3-0.3-0.8-0.5-0.6-1c0.2-0.6,0.9-0.5,1.3-0.4
		c2,0.3,3.9,0.8,5.9,1c0.9,0.1,2.1,1.1,2.5,0c0.6-1.4-1.3-1.3-1.9-1.9c-0.1-0.1-0.4-0.2-0.6-0.2c-4.6-0.4-7.2-4.4-11-6.4
		c-0.3-0.2-0.8-0.5-0.5-1c0.2-0.4,0.8-0.3,1.1-0.2c1.5,0.5,2.9,1.1,4.4,1.7c1.5,0.5,3,1,4.4,1.5c0.4-2.7,2.5-0.6,3.7-1.2
		c-0.5-1-1.4-1-2.1-1.3c-3.5-1.4-7-2.7-10.3-4.6c-0.5-0.3-1.1-0.5-1-1.1c0.2-0.9,1-0.6,1.6-0.5c1.1,0.1,2.3,0.4,3.4,0.4
		c0.7,0,1.9,0.8,2.1-0.3c0.2-0.9-1.1-1.1-1.8-1.5c-0.2-0.1-0.4-0.1-0.6-0.2c-1.2-0.7-3.5-0.7-3.3-2.3c0.3-2,2.4-0.8,3.7-0.8
		c0.1,0,0.2,0,0.3,0c0.4,0,0.9,0,1.1-0.4c0.2-0.5-0.3-0.7-0.7-0.9c-4.1-1.4-8.1-3.6-12.2-3.8c-3.9-0.2-7.3-1.4-10.7-2.9
		c-1.8-0.8-3.8-1.1-5.5-2.8c-1.5-1.5-4.8-0.6-7.3-0.3c-1.1,0.1-2.4,0.3-0.8,1.8c0.5,0.5,0.4,1.2-0.3,0.9c-2.3-0.8-3.1,0.6-4.3,2.1
		c-1,1.2-1.9,2.4-3,3.6c-0.4,0.5-0.8,1-1.6,0.6c-0.6-0.3-0.8-1-0.7-1.6c0.1-0.5,0.4-1,0.5-1.5c0.5-1.9,2.3-3.6,1.9-5.5
		c-0.4-2-2.8-2.6-4.1-4.1c-0.3-0.3-0.6-0.6-0.9-0.9c-1-0.7-1.5-2.6-2.7-2.2c-0.9,0.3-0.5,2.1-0.7,3.2c-1.5,8.1-5.8,14.1-14,16.5
		c-6.5,2-17.1-1.1-21.7-6.2c2.4,0.8,4.6,1.6,6.9,2.2c5.1,1.4,10.2,2.5,15.1-0.8c5.6-3.7,9.2-8.8,10.7-15.3c0.3-1.3,0.8-2.7,0.3-4
		c-1.5-3.6-3.8-6.6-6.4-9.5c1.4,4.1,2,8.2,1.5,12.4c-0.5,4.9-2.4,9-6.7,11.9c-7.2,4.7-18.2,4.7-23.9-4.6c-0.2-0.3-0.4-0.7-0.5-0.7
		c-0.5,0-0.6,0.5-0.7,0.9c-0.3,2.3-0.5,4.6-0.8,6.9c0,0.4-0.2,1.1-0.3,1.1c-0.7,0.1-0.8-0.6-0.9-1c-0.1-0.4-0.1-0.8-0.2-1.2
		c-0.1-0.2,0.1-0.6-0.3-0.6c0,0-0.1,0.4-0.1,0.6c-0.4,2.1-1.8,1.4-2.9,1c-4.1-1.9-8.3-3.4-12.3-5.6c-4-2.2-7.9-4.7-12.4-6
		c-0.9-0.3-1.4-0.9-1.9-1.5c-4.3-5.8-6.4-12.3-6.7-19.5c-0.4-9.3,2-18,5.6-26.4c0.2-0.5,0.3-1.4,1.1-1.3c0.7,0.1,0.6,1,0.8,1.5
		c0.1,0.3,0.1,0.6,0.2,0.9c0.9,8.4,3.8,16.3,6.7,24.1c0.6,1.6,1.8,3,2.8,4.5c0.2,0.4,0.7,0.8,1,0.3c1-1.5,1.7-0.2,2.1,0.4
		c3.3,4.9,8,8.6,10.9,13.8c0.2,0.4,0.7,1.2,0.9,1.1c0.9-0.3,0.3-1,0.3-1.6c-1.4-9.7-0.4-19.2,2.5-28.5c0.9-3.1,2.5-6.1,2.4-9.9
		c-0.4,0.7-0.7,1.1-0.8,1.4c-0.3,0.6-0.3,1.8-1.1,1.7c-0.8-0.1-0.4-1.2-0.6-1.8c-0.5-2-0.1-4,0-5.9c0.9-10.5,9.3-12,16.9-11.1
		c0.8,0.1,1.9,0.5,0.5,1.5c-0.2,0.2-0.7,0.4-0.6,0.5c0.2,0.5,0.7,0.3,1,0.3c2.5,0,4.9,0.1,7.2,1.4c-0.9,1-2.2,0.6-3,1.6
		c4.3,0.2,8,1.9,11.4,4.1c0.4,0.3,1,0.6,0.7,1.2c-0.3,0.5-0.9,0.4-1.4,0.2c-0.6-0.3-1.1-0.5-1.7-0.7c-4.7-1.6-9.5-2.5-14.5-2
		c-1.4,0.1-3,0.8-2.8,1.9c0.2,1.3,1.8,0.6,2.9,0.6c0.5,0,1.4-0.7,1.6,0.2c0.1,0.6-0.8,0.9-1.3,1.2c-2.6,1.3-5.1,2.9-7.4,4.7
		c-0.5,0.4-1.6,0.8-1,1.6c0.4,0.5,1.1-0.3,1.5-0.6c2.2-1.4,4.3-3.1,6.9-3.6c0.6-0.1,1.3-0.6,1.6,0.2c0.2,0.5-0.5,0.8-1,1.1
		c-2.9,1.7-5.3,4-7.6,6.5c-0.5,0.6-1.3,1.4-0.8,2.2c0.6,0.9,1.6,0.2,2.2-0.1c9.3-4.2,22.2,3.2,27,10.4c1.1,1.7,2.1,3.4,3.5,4.8
		c1.9,2,2.4,4.4,2.7,6.7c0.8,5.2,3.6,9.3,6.7,13.2c0.4,0.5,0.8,1.5,1.6,1.3c0.9-0.3,0.8-1.3,1-2.1c0.1-0.4,0.1-0.8,0.1-1.2
		c0.8-7-1-13.5-3.4-19.9c-2.5-6.9-6.3-13.2-10.3-19.4c-0.5-0.8-1.5-1.9-0.8-2.5c1-0.8,1.7,0.7,2.4,1.3c4,3.3,7,7.4,9.7,12
		c1.2-5.3,1.2-5.7-1-9.1c-0.9-1.3-1.9-2.5-2.7-3.8c-0.5-0.7-1.5-1.2-1.3-2.5c1.6,0.9,3.1,1.8,4.6,2.7c0.7,0.4,1.5,1.1,2.3,0.3
		c0.7-0.7,0-1.6-0.3-2.3c-0.1-0.2-0.2-0.4-0.3-0.5c-3.8-8.3-9.3-15.3-15.7-21.7c-0.8-0.8-1.6-1.6-1.9-2.8c0.9-0.1,1.3,0.5,1.8,0.9
		c3.9,3.3,7.8,6.6,11.7,9.9c0.9,0.8,1.9,2.3,3.1,1.1c1.2-1.2-0.6-2.1-1.2-3c-2.1-2.6-4.9-4.9-6.2-7.8c-1.4-3-3.6-5.2-5.5-7.7
		c-2.5-3.4-5.5-6.2-8.8-8.8c-1.9-1.5-3.6-3.2-5.4-4.8c-0.5-0.5-1.5-1.3-1.1-1.7c1.6-1.9-0.3-2.2-1.2-2.9c-2.6-2.1-5.3-4.1-8.1-5.9
		c-2.2-1.4-4.3-2.9-6.4-4.4c-0.4-0.3-1.1-0.7-0.9-1.1c0.4-0.7,1.1-0.2,1.6,0c5.3,2.1,10,5.3,14.5,8.6c0.6,0.4,1.2,0.9,1.8,1.2
		c0.4,0.2,1,0.5,1.4,0c0.3-0.4,0.1-0.8-0.2-1.1c-1.2-1.2-2.1-2.8-3.6-3.8c-6.1-4.3-12.7-7.7-19.2-11.3c-0.8-0.4-1.7-0.6-2.3-1.8
		c2.6,0.1,4.6,1.1,6.7,2c2.3,1,4.6,2,6.9,3c0.6,0.2,1.3,0.3,1.6-0.4c0.2-0.6-0.3-0.9-0.7-1.3c-1.8-1.5-3.8-2.7-5.3-4.4
		c-3-3.2-6.6-5.4-10.7-6.8c-3.8-1.2-7.8-1.7-11.7-2.1c-5.4-0.5-10.8,0.1-16,1.4c-1.1,0.3-2.5,1.7-3.2,0.6c-0.5-0.8,1.4-1.5,2.2-2.3
		c0.1-0.1,0.1-0.3,0.1-0.6c-4.2,0.7-7.6,3-11,5.1c-2.6,1.6-3.1,1.2-3.1-1.8C288.7,322.9,289,319.3,289.6,315.6z M167.2,384.1
		c1.6,1,2.9,1.2,4.2,1.2c2.4,0,4.8-0.1,7.2-0.2c0.8,0,1.6-0.3,2.1,0.8c0.7,1.8,1.4,0.9,1.7-0.2c1.4-3.9,3.2-7.7,3.9-11.8
		c0.3-2.4,0.9-4.7,1.4-7.1c0.1-0.7,0.3-1.8,1-1.8c2-0.2,1.3-1.6,1-2.5c-0.7-2.3-1.9-4.4-2.5-6.8c-2.6-10.4-7.4-19.7-13.3-28.5
		c-3-4.4-5.9-8.9-9.1-13.1c-3.1-4-6.1-8-10.2-11.2c-8.9-6.8-17.8-13.6-25.4-21.9c-0.5-0.5-1.3-1-1.2-2c1.6,0.4,2.6,1.4,3.7,2.2
		c4.6,3.6,9.2,7.2,13.9,10.7c0.6,0.5,1.2,0.8,2.4,0.7c2.1-0.1,4.7-0.2,6.8,1.4c3.3,2.7,6.9,5.1,10.3,7.7c6.2,4.7,12.8,8.6,20.2,11.3
		c1.3,0.5,2.5,1.2,3.6,2c2.2,1.6,4.4,3.2,6.8,4.9c0.1-0.9-0.4-1.1-0.7-1.3c-10.3-10-21.5-19-33.4-26.9c-13.1-8.7-25.7-18-38.3-27.3
		c-9.4-7-18.9-13.9-29-19.8c-4-2.3-8.2-4.1-12.8-5c-7.5-1.5-13.1,1.5-16.2,9.1c7.4-4.9,14.2-2.7,20.8,1.4c0.8,0.5,1.6,1,2.3,1.6
		c7.4,5.4,13.7,11.9,19.4,19.1c0.6,0.7,1.7,1.7,1.1,2.3c-1,1-1.7-0.6-2.5-1.1c-7.4-5.5-14.2-11.7-21.8-16.9
		c-3.3-2.3-6.8-4.2-10.7-5.2c-6.5-1.7-10.1-0.2-13.1,5.7c-1.7,3.3-3,6.7-4,10.2c-4.8,17-4,34.1-1.4,51.2c1.4-10.8,2.5-21.5,3.2-32.4
		c1.2,1.8,0.8,3.7,1,5.5c0.1,0.6,0.1,1.7,0.3,1.7c1,0.1,0.3-0.9,0.7-1.3c0.8-0.7,0.9,0.2,1,0.5c1.3,2.4,2.2,5,2.7,7.7
		c1.7,9,3.3,18.1,4.6,27.2c0.8,6,1.2,12.2,4.9,17.3c2.7,3.8,5.1,7.9,8.4,11.4c2.5,2.6,4.5,5.7,7.9,7.8c-0.2-1.2-1.1-1.7-1.6-2.3
		c-5.4-6.1-10-12.6-13.2-20.1c-0.4-1-1.9-2.5-0.7-3.2c0.9-0.6,2.1,1.2,2.6,2.2c3.3,6,7.8,11.1,12,16.5c5.1,6.4,10.4,12.6,16.2,18.3
		c3.6,3.6,7.3,7.1,11.4,10.2c0.4,0.3,1,0.7,0.6,1.3c-0.4,0.6-0.9,0.1-1.3-0.1c-1.3-0.9-2.6-1.7-3.9-2.6c-3.8-2.7-7.4-5.9-12-7.3
		c-0.4-0.1-1-0.7-1.4-0.1c-0.2,0.4,0.2,0.8,0.5,1.1c5.9,5.8,10.9,12.3,16.1,18.8c4.3,5.5,9.3,10.5,14.3,15.4
		c0.9,0.9,1.9,1.8,2.6,3.3c-2.4-0.8-4-2.2-5.8-3.2c-1.2-0.6-1.2-0.7-1.9,0.4c-0.3,0.5-0.7,0.3-1.1,0.2c-0.7-0.2-1.4-0.5-2.1-0.8
		c-1-0.4-1.6,0.1-1.3,1c0.6,2.3,0.3,4.8,2.5,6.7c3.9,3.5,7.7,7.1,11.3,10.9c2.9,3.1,6.3,5.8,8,9.9c0.5,1.3,1.3,2.6,2,3.9
		c0.6,1.3,4.7,1.2,6,0.3c3.7-2.6,6.6-6,8.9-10c2.4-4,4.1-8.2,5.5-12.6c0.2-0.7,0.7-1.5,0-2c-0.7-0.5-1.4,0.1-2,0.4
		c-0.5,0.2-0.9,0.5-1.4,0.7c-2.7,1-5.3,1.2-8.1-0.4c-2.6-1.5-4.7-3.5-7-5.2c-4-3.1-7-7-9.1-11.7c-2.4-5.3-3-11.1-4.8-16.5
		c-0.7-2.1-1.3-4.2-1.9-6.3c-0.2-0.6-0.2-1.4,0.5-1.6c0.8-0.3,1,0.5,1.3,1c0.4,0.7,0.8,1.5,1.1,2.2c1.5,3.1,3,6.1,4.5,9.2
		c0.4-1.9,0-3.7-0.7-5.3c-2-4.2-1.6-9-3.5-13.2c-0.2-0.5-0.5-1.3,0.2-1.7c0.5-0.3,1,0,1.5,0.3c1.1,0.7,2.1,1.5,3.2,2
		c0.8,0.4,1.6,1.7,2.4,0.8c0.6-0.7-0.5-1.7-1.1-2.4c-1.2-1.5-2.4-2.9-3.7-4.2c-0.7-0.7-1.3-1.3-1.7-2.2c-0.2-0.4-0.6-0.8-0.3-1.1
		c0.4-0.6,1-0.2,1.4,0c1.8,0.9,3.4,2,5.1,3.1c0.8,0.5,1.9,1.9,2.6,1.1c1-1.1-0.6-2-1.3-2.8c-0.9-1-2-1.8-3.1-2.7
		c-0.9-0.7-1.7-1.5-2.2-2.6c-0.2-0.5-1.2-0.9-0.6-1.5c0.4-0.3,1.2,0.1,1.7,0.4c3.2,1.9,6,4.2,8.7,6.7c0.4,0.3,0.8,1.1,1.2,0.7
		c0.7-0.5,0-1.1-0.3-1.6c-4-5.7-8.1-11.2-13-16.1c-2.6-2.7-5.4-5.3-9.2-6.9c-1.9-0.8-4-1.5-5.9-2.6c-8.1-5.1-16.1-10.5-23.3-17
		c-5.2-4.7-10.4-9.5-14.3-15.2c-5.8-8.5-7.8-18.1-7.2-28.3c0.1-1.1,0.2-2.3,0.4-3.4c0.1-0.7,1-1.3,1.3-0.6c0.7,2.2,1.2,1.1,2.1,0.1
		c0.5-0.6,1.2-0.1,1.7,0.3c0.9,0.7,1.8,1.4,2.6,2.2c5.1,4.9,8.7,10.9,12.3,16.9c5.2,9,12.3,16,21.2,21.3c6.2,3.7,12.8,6,20.1,6.6
		c8,0.6,15.4,3.1,21.6,8.4c5.1,4.4,9.5,9.5,12.6,15.5c1.1,2.1,2.4,4,4.3,5.3c1.5,1,2.5,2.3,2.9,3.9c0.7,2.6,2.5,4.9,2.5,7.7
		c0,0.6,0.3,1,0.7,1.4c0.4,0.5,1.7,0.4,1.4,1.3c-0.2,0.7-1.3,0.5-2,0.7c-0.6,0.1-1.2-0.2-1.7,0.4c0.2,0.8,0.9,0.8,1.4,1.2
		c0.4,0.3,1,0.5,0.9,1.1c-0.2,0.7-0.8,0.5-1.3,0.5c-1.3,0-2.5,0-3.7-0.3c-1.4-0.4-2.9-0.6-4.3-0.8c-0.5-0.1-1.2,0.1-1.2,0.7
		c0,0.2,0.5,0.7,0.8,0.8c1.5,0.7,3.1,1.3,4.6,2c1.6,0.8,3.7,0.6,5,2.2c-1.9,0.6-3.7,1.1-5.6,1.7c-1.1,0.3-2.9-0.6-3.2,0.7
		c-0.2,0.7,1.9,1.4,3,1.8c0.8,0.3,1.6,0.5,2.4,0.8c1.1,0.4,3.2-0.2,3.2,1c0.1,1.2-1.9,1.7-3.1,2.3
		C173.7,382.8,170.7,383.4,167.2,384.1z M454.9,403.6c-0.2-0.1-0.4-0.2-0.5-0.4c-0.7,0.8-1.3,1.6-2,2.3c-2.8,3.2-5,6.7-7.3,10.2
		c-0.4,0.5-0.6,1.3-1.2,0.3c-1.1-1.9-1.7-3.7-0.5-6.1c6-11.3,13.6-21.3,22.8-30.2c4.1-4,8.8-7.1,13.4-10.4c1.2-0.9,1.6-2.1,2.8-3
		c5.5-4.1,11.1-8.1,15.2-13.8c3.9-5.4,8.4-10.4,9.7-17.3c1.1-5.6,2.5-11.2,3-17c0.2-2.8,0.4-5.6,1.6-8.2c0.9,6.3,1.3,12.6,0.4,19.5
		c2.5-6,4.1-11.6,4.8-17.5c1.2-10.8,0.7-21.5-0.4-32.3c-0.5-4.8-1.5-9.5-3.3-14c-0.8-1.9-1.2-4-1.7-6c-0.2-0.8-0.4-1.8,0.5-2.3
		c1.2-0.5,1.7,0.6,2.1,1.4c1.7,3.4,3.1,6.9,4,10.5c0.4,1.7,0.6,3.4,1.8,4.8c-0.8-8-0.9-16.1-4.6-23.4c-2.8-5.6-6-7-12-5.4
		c1.9,0,3.1,0,4.4,0c-0.2,0.6-0.5,0.6-0.8,0.6c-8.8,0.9-16.7,4.5-24.3,8.7c-7.2,3.9-13.7,8.8-20.1,13.9c-0.7,0.6-1.6,1.4-2.5,0.7
		c-0.9-0.8-0.3-1.8,0.3-2.5c2.2-3.1,4.2-6.2,6.8-9c7.7-8.6,17.3-14.5,27.4-19.6c2.5-1.2,5-2.3,7.9-2.8c2.2-0.4,4.5,0.7,6.5-0.5
		c-8-2.3-15.3-0.5-22.3,3.8c-9.8,6.1-19,13-28.2,19.9c-12.7,9.5-25.2,19.5-38.9,27.6c-1.8,1.1-3.6,2.3-5.8,3.8
		c1.2,0.2,1.7-0.2,2.3-0.5c7-3.6,13.8-7.5,20.9-10.7c3.8-1.7,6.8-4.8,10.7-6.5c2.7-1.2,5.3-2.9,8.4-3.2c-4.3,3.6-8.4,7.2-12.6,10.8
		c-7.5,6.4-16,11.4-24.2,16.8c-10.1,6.7-20.4,13.2-28.2,22.8c-1.5,1.8-3.8,3.5-4.7,5.3c-0.9,2.1-2.5,3.1-3.7,4.7
		c-0.4,0.5-1.2,0.7-1.1,1.7c2.1-0.7,2.1-0.7,4.9,0.4c0.2,0.1,0.6-0.1,0.9-0.2c0.6-0.4,1.3-0.7,2-0.7c0.4,0,0.9-0.1,1.1,0.3
		c0.3,0.4,0,0.8-0.3,1.2c-0.2,0.3-0.5,0.7-0.8,1c-1.5,2.3-5.2,3.5-3.5,7.4c0.1,0.2-0.2,0.6-0.4,0.8c-0.4,0.5-0.6,0.9-0.2,1.7
		c0.9,2,0.1,3.9-1.4,5c-1.8,1.4-0.7,2,0.3,2.8c1.2,1,2.8,1.3,3.7,2.8c0.8,1.3,0.5,1.8-0.6,2.5c-3.2,1.9-3.2,2.1-1.2,5.2
		c0.8,1.1,1.5,2.3,2.5,3.2c5.3,5.4,9.6,11.6,13.7,17.8c6.9,10.4,13.7,20.8,18.9,32.1c2.5,5.5,5.4,10.9,10,15.1
		c1.8,1.7,2.5,1.8,4.2,0c5.1-5.8,11-10.9,15.4-17.3C452.7,409.6,453.9,406.6,454.9,403.6z M436.2,498.8c-6.6,0.9-12.6,3.6-18.5,6.5
		c-18.8,9.3-33.5,23.4-46.5,39.5c-0.5,0.6-1.3,1.3-0.2,2.1c1.7,1.2,0.5,2.2-0.3,3.1c-2.1,2.2-4.2,4.4-6.7,6.1
		c-0.5,0.3-1.4,0.5-1.1,1.3c0.2,0.5,0.9,0.3,1.4,0.3c11.5-0.1,23-0.1,34.5-0.2c1.3,0,1.7-0.3,1.1-1.6c-2.5-5.9-3.9-12.1-4.2-18.5
		c-0.4,1.4-0.6,2.9-0.8,4.3c-0.2,1.4,0.1,4-1,3.9c-1.8-0.1-1.6-2.5-1.7-4.1c-0.7-10.1,4.1-18.1,10.2-25.5c0.3-0.3,0.6-0.7,1-0.6
		c0.7,0.3,0.4,0.9,0.3,1.3c-0.4,1.9-1.9,3.5-2.1,5.8c1.4-1.3,1.8-3.1,4-4.4c-0.8,2.3-1.4,3.9-2.1,5.5c-1.8,4.5-3.4,9-4,13.8
		c-0.8,6.2,0.9,11.8,4.1,17.7c1.5-8.2,2.9-15.8,7.5-22.4c-1.4,6.9-2.8,13.8-2.8,20.9c0.8-2,1.1-4.1,2.2-5.9c0.3-0.5,0.5-1.3,1.3-1
		c0.6,0.2,0.4,0.9,0.3,1.4c-0.3,2.2-0.5,4.3-0.8,6.5c0.8-1.1,1.2-2.2,1.7-3.4c1.1-2.7,2.1-5.5,3.7-7.9c0.3-0.4,0.5-1.1,1.1-0.7
		c0.4,0.2,0.1,0.8,0,1.2c-1,4.1-2.1,8.1-2.4,12.3c-0.1,1.4,0.2,2.7,1,3.9c0.3,0.4,0.5,1.1,1.1,0.9c0.4-0.1,0.4-0.7,0.5-1
		c0.5-1.1,0.4-3.1,1.8-2.9c1.7,0.3,1.1,2.4,0.9,3.5c-0.4,3.1,1.1,4.8,3.6,5.8c5.8,2.3,11.9,3,18.2,2.4c1.5-0.1,1.8-0.8,1.1-2.1
		c-2.3-4.2-4-8.7-5.9-13.2c-1.5-3.5-3.9-5.8-7.6-6.9c-0.7-0.2-1.7-0.1-2.2-1.2c4.9-0.6,8.6,0.9,11.2,5c1.1,1.8,1.9,3.7,2.7,5.6
		c1.3,3.4,2.6,6.8,4.1,10.4c6.4-19.3,3.1-37.6-3.5-55.8c6.5,8.3,10.5,17.6,11.4,28c0.8,9.6,0.1,19-4.6,27.8c-0.8,1.4,0,1.8,1.2,2.1
		c3.1,0.8,6.3,1.6,9.4,2.4c9.4,2.3,18.5,2.6,27.1-3.2c2-1.3,3.1-2.6,3.2-4.9c0.1-1.9,0.2-3.8-0.2-5.6c-1-6-3-11.7-6-17.1
		c-0.4-0.6-0.8-1.3-1.1-1.9c-0.1-0.2-0.1-0.7,0.1-0.9c0.3-0.5,0.7-0.1,1,0.1c1.7,1.3,2.8,3.1,3.8,4.9c2.8,5,4.3,10.4,4.5,16.1
		c1.2-6-0.1-11.6-2.5-17.1c-1-2.3-2-4.6-2.9-6.9c-0.2-0.4-0.4-0.9,0-1.1c0.4-0.2,0.8,0.2,1.1,0.5c0.7,0.8,1.3,1.7,1.9,2.5
		c0.6,0.8,0.9,1.9,2.1,2.8c-3-13.5-8.4-25.6-16.4-36.5c1.8,0.9,3.1,2.2,4.4,3.6c5.7,6.2,9.9,13.2,12.7,21.1
		c4.7,13,6.7,26.1,0.2,39.3c-0.7,1.4,0.1,1.6,1.2,1.7c7.9,0.7,15.4-0.3,22.4-4.2c1.3-0.7,1.9-1.7,2-3.2c0.3-5.1-0.1-10-1.6-14.9
		c-1.3-4.1-3.3-8-4.8-12.1c7.5,7.1,10.4,15.8,9.1,26c2.2-8.4,1.8-16.4-4.2-23.3c-0.3-0.4-0.7-0.8-1-1.2c-0.2-0.3-0.6-0.7-0.4-1.1
		c0.3-0.4,0.7,0,1.1,0.1c1.6,0.8,2.6,2.1,3.7,3.3c0.3,0.3,0.4,1.1,1.1,0.7c0.2-0.1,0.1-0.8,0.1-1.2c-0.9-7.5-3.3-14.4-7.4-20.8
		c-1.2-1.9-2.4-3.7-3.7-5.7c0.8-0.1,1.1,0.2,1.4,0.5c6.3,5.3,10.6,11.9,12.6,19.8c2.3,9,2.1,18-1,26.9c-0.2,0.5-0.6,1.1-0.2,1.4
		c0.5,0.4,0.9-0.2,1.3-0.4c4-2.5,6.8-5.9,7.4-10.7c0.4-3.4,0.3-6.9-0.2-10.3c-0.3-1.9-1.3-3.7-1.3-5.7c3.5,5.3,4.8,11.1,3.8,17.4
		c1.7-2.7,2.4-5.5,1.9-8.7c-0.5-3.1-2.1-5.7-3.9-8.7c2.7,0.8,3.7,2.7,5.5,4.9c-0.6-9.4-3.6-16.8-11-21.8c-3.6-2.5-7.3-4.9-11.6-6
		c-1.6-0.4-2.6-1.7-3.5-3c-8.7-12.1-20.5-17-35.2-15.1c-2.9,0.4-5.8,0.8-9.3,1.3c2.7,1.5,5.2,1.5,7.4,3.4c-3,0.1-5.5,0.2-8-0.3
		c-8.4-1.8-16.4-0.7-23.8,3.9c-3.6,2.2-7.5,3.6-11.3,5.4c-0.4,0.2-1,0.7-1.4,0.1c-0.3-0.4,0.2-0.9,0.5-1.4
		C432.1,501.5,434.3,500.4,436.2,498.8z M158.3,569.2c2.1-4.1,3.7-7.9,6.9-10.8c3.1-2.9,6.3-5.5,10.3-6.9c-0.5,0.8-1.2,1.4-1.9,2.1
		c-5.1,4.6-9.3,9.9-12.4,16.1c-1.4,2.8-0.5,5.2,1.1,7.3c1.3,1.7,3.3,0.8,5,0.4c7.5-1.7,14-5.3,19.9-10.3c3-2.6,4.4-5.6,5-9.4
		c0.5-3.1-0.1-6-0.3-9.1c0-0.6-0.3-1.5,0.3-1.7c0.9-0.4,1.3,0.6,1.6,1.2c1.2,2.2,2.2,4.4,3.3,6.5c0.5-5.7-0.6-11.1-2.9-16.2
		c-0.4-0.9-0.9-1.8-0.2-2.6c0.7-0.8,1.8-0.4,2.7-0.1c2.9,0.9,4.5,3.3,5.9,5.8c1.2,2.1,2,4.5,3,6.8c0.6-5.9-0.6-11.5-3.5-16.6
		c-0.9-1.6-1.9-3.3-2.8-4.9c-0.2-0.4-0.7-1,0-1.3c0.3-0.2,0.7,0.3,1,0.7c2.3,3.1,4.6,6.2,6.3,9.7c0.3,0.6,0.4,1.3,1.3,1.5
		c-0.1-1.6-0.7-2.8-1.3-4c-3.7-7.8-9-14.3-16.7-18.2c-8.2-4.2-16.9-7.8-25.7-10.7c-0.2-0.1-0.4-0.1-0.6-0.1
		c-1.4-0.3-1.4-0.3-1.3,1.1c0.1,1.1-0.8,0.8-1.3,0.8c-2.6,0-5.2,0-7.8-0.2c-9.2-0.7-18.2-2.6-27.5-2.7c-10.1-0.1-19.3,2.1-27.2,8.5
		c-3,2.4-6.4,3.3-10.1,3.7c-10.8,1.3-19.1,6.4-23.7,16.6c-2.5,5.6-3.2,11.4-3.2,17.4c0,1.5,0.2,2.9,0.4,4.4c0.2,1.3,0.5,2.6,0.8,3.9
		c0.5-5.1,2.6-9,6.7-12c0.4,0.9-0.2,1.4-0.5,1.9c-3.6,5.7-4.2,11.7-1.7,18c2,5.3,6.3,7.9,11.5,9.3c1.4,0.4,2.3-0.1,1.6-1.8
		c-0.6-1.8-1.1-3.6-1.4-5.5c-2.6-18.6,2.7-34.9,14.7-49.2c0.4-0.5,0.8-1.1,1.9-1.1c-4.9,8.9-9.4,17.6-11.1,27.4
		c2.8-5.8,5.8-11.4,10.6-15.9c-1.6,4.2-3.6,8.2-5.3,12.3c-1.7,4.1-2.8,8.3-3.2,12.7c-0.4,4.3-0.5,8.7-0.3,13.1c-0.2,0-0.5,0-0.7,0
		c-0.3-2.3-0.7-4.7-1-7.3c-0.4,4.5,0.9,12.4,2.7,15.9c0.4,0.9,0.9,1.6,1.7,2.2c8.3,6.1,17.5,7,27.2,4.6c1.5-0.4,1.4-1,0.4-2.1
		c-1.9-2.1-3.6-4.3-4.7-7c-5.6-12.8-4.5-25.3,1.3-37.6c1.3-2.8,2.9-5.5,5.1-7.7c-2.8,7.9-5.3,15.7-5.6,24.2c1.7-3,2.6-6.5,5.3-8.9
		c-2.4,8.4-5.6,16.8-2.2,25.6c0.1-6.9,2.5-12.9,6.4-18.4c0.8-1.2,1.5-3.2,2.8-3c1.3,0.3,1.2,2.4,1.3,3.8c0.6,7.9,3.6,14.5,10.5,19
		c0.2,0.1,0.5,0.5-0.1,0.8c-4-1.3-7.1-3.7-9.3-7.3c-2.2-3.6-3-7.5-3.3-11.7c-3.1,6.2-5.1,12.6-5.4,19.5c-0.1,2.5,0.6,4.2,2.5,5.7
		c5.8,4.9,12.5,6.1,19.7,4.9c5.3-0.9,10.1-3.3,15-5.4c1.2-0.5,1.5-1,0.7-2.3c-4.4-7.7-5.3-16-4.4-24.6c0.9-8.1,3.6-15.5,8.7-21.9
		c0.9-1.1,1.9-2.3,3.9-3.1C157,539.2,153.7,553.5,158.3,569.2z M243.3,462.7c-3.5,2.6-6.9,4.1-10.4,5.3c-6.9,2.3-12.9,0.7-18.3-4.1
		c-3.1-2.8-5.2-6.2-6.8-10c-0.4-0.9-0.5-2-1.7-0.5c-6.8,8.3-16.1,12-26.5,13.3c-4.4,0.5-8.7,1.1-13.1,1.6c-1.9,0.2-3.5,1-5.1,2.2
		c-1.9,1.4-3,3.7-5.1,4.8c-2.3,1.2-4,2.9-5.9,4.6c-0.4,0.3-1,0.8-0.6,1.3c0.3,0.4,1,0.3,1.5,0.1c3.3-0.8,6.6-0.8,10-0.8
		c0.6,0,1.4-0.1,1.5,0.7c0.1,0.5-0.7,0.6-1.2,0.8c-2.1,0.7-4.3,1.5-6.4,2.2c1.4,0.5,2.8,0.5,4.1,0.6c0.4,0,1.2-0.2,1.2,0.6
		c0,0.4-0.5,0.6-0.9,0.8c-1.8,0.8-3.7,1.1-5.3,2.6c4.9-0.8,9,0.1,11.2,4.8c-6.1,1.4-12.7,1.3-17.9,5.9c3.4-0.6,6.8-0.5,10-1.8
		c3.5-1.4,7.3-1.9,11.1-1.4c0.5,0.1,1.2,0,1.3,0.7c0,0.7-0.7,0.6-1.2,0.7c-2.5,0.5-4.9,0.9-7.4,1.4c-0.4,0.1-1,0.3-1,0.6
		c-0.1,0.7,0.7,0.6,1.1,0.7c5.7,1.5,11.3,3,16.9,4.6c6.5,1.9,12.3,5,17.8,9c6.2,4.5,11,10.2,15.3,16.5c0.5,0.8,0.8,2.4,2,1.9
		c1.1-0.4,0.4-1.9,0.3-2.9c-0.1-1.2-0.3-2.5-0.4-3.7c-0.2-2.6-1.2-5.2-0.6-7.8c0.5-2-0.5-2.9-1.9-3.7c-5.8-3.4-11.9-6.1-18.4-7.9
		c-0.5-0.1-1-0.2-1.5-0.4c-0.4-0.2-1,0-1-0.9c7.9,0,15.1,1.7,21.7,6.1c2.2,1.5,2.2,1.4,2.9-1.2c1.6-6.5,3.8-12.8,6.8-18.8
		c1-2,1.2-3.4-0.2-5.2c-0.9-1.2-1.8-1.2-2.9-1.4c-0.7-0.1-2,0.4-2.1-0.7c0-0.9,1.3-0.8,2-1.1c0.9-0.3,2-0.3,2.8-1.2
		c-1.1-0.4-1.9,0-2.6,0.2c-0.8,0.2-1.6,0.5-2.4,0.7c-2.2,0.5-4.5-0.7-5.4-2.7c-0.1-0.3-0.2-1,0-1.2c0.6-0.6,0.9,0.1,1.1,0.5
		c1.3,2.3,3.2,2.4,5.4,1.9c2.6-0.6,5.3-1.2,7.9-1.8c-1-0.4-1.9-0.4-2.8-0.4c-1.9-0.1-3.7,0.5-5.6,0.8c-1,0.2-1.9,0.2-2.6-0.7
		c-0.3-0.4-0.2-0.8,0-1.2c0.6-1,1.6-1.3,2.7-1.1c0.5,0.1,1,0.3,1.5,0.4c0.8,0.2,1.6,0.4,2.5,0.4c0.9,0,2.2,0.4,2.4-0.8
		c0.2-1.4-1-2-2.2-2.1c-1-0.2-2.1-0.2-3-0.8c-4.4-2.8-7.8-6.5-10.3-11.2c-0.2-0.4-0.5-0.8,0-1.1c0.4-0.2,0.8,0.2,1,0.6
		c0.7,1.1,1.5,2.3,2.2,3.4c3.6,6,14.1,10.1,20.2,7.3c3-1.4,6.1-2.7,9.1-4c0.8-0.4,1.9-0.7,1.9-1.8c0-1.8,1.3-2.4,2.6-2.7
		c2.3-0.6,2.9-2.2,2.9-4.2c0-1.6,0-3.3-0.5-4.9c-1.2,0.5-1.3,1.7-2,2.4c-4.1,4.8-9.1,7.9-15.6,6.9c-7.4-1.1-13.1-7.9-13.6-15.6
		c-0.2-2.9,0-5.9,0.2-9.5c-2,3.1-3.4,5.5-5,7.8c-2.2,3-1.9,5.8,0.3,8.6c6.4,8.5,15.3,13.6,26.7,9
		C239.4,463.7,240.9,462.8,243.3,462.7z M250.8,566.3c7.9,8.8,17.2,14,28.3,15.9c8.1,1.4,16.2,1.3,24.4,0.6
		c10.6-0.9,19.5-5.1,26.8-12.7c1.6-1.7,3.4-3.1,5.4-4.2c4.4-2.6,9.3-4.3,12.9-8.1c0.3-0.4,0.9-0.5,1.4-0.7c4.5-1.6,7.1-5.3,10.1-8.6
		c0.2-0.2,0.3-0.7,0.2-0.8c-0.3-0.5-0.7-0.1-1,0.1c-0.3,0.2-0.5,0.4-0.7,0.6c-9.8,9-21.8,12.9-34.8,14.2c-1.2,0.1-2,0.4-2.6,1.7
		c-2.2,4.3-5.7,7.4-10,9.6c-6.9,3.5-14.4,4.3-22,4.1c-9.1-0.3-17.3-2.8-23.6-9.8c-0.7-0.8-1.6-0.9-2.6-0.9
		C259.1,567.2,255.2,567.1,250.8,566.3z M125.3,466.2c0-4.1-0.1-12,0-20c0-3.1-0.5-5.6-3.7-6.8c-0.6-0.3-1-1.3-1.8-0.8
		c-0.3,0.2-0.2,1.2-0.2,1.8c0.2,18.1,0.5,36.2,0.8,54.3c0,2.7,0.2,2.6,3.3,2.8c2.4,0.2,2.4-1.1,2.4-2.9
		C126,486.4,125.8,478.3,125.3,466.2z M471.2,452.7c0.1,0,0.1,0,0.2,0c0-9.2,0-18.4,0-27.6c0-2.4,0-4.8,0-7.2c0-0.4,0.3-1.2-0.5-1.2
		c-0.3,0-0.7,0.4-0.9,0.7c-2,2.7-3.4,5.4-3.4,9.1c0.4,20.3,0.6,40.5,0.8,60.8c0,0.4,0,0.8,0,1.3c0,1.2,0.7,1.3,1.7,1.1
		c2.2-0.5,2-2.1,2-3.7C471.2,474.8,471.2,463.7,471.2,452.7z M210,535.5c0.7,3.2,1.6,6.4,1.9,9.7c0,0.5,0.2,1.2-0.4,1.4
		c-0.7,0.2-0.7-0.6-0.9-1.1c-0.5-2.1-0.9-4.1-2.3-5.8c0.8,5.6,0.6,11.1-1.1,16.4c-0.8,2.5-0.8,2.6,1.9,2.6c5.2,0,10.4,0,15.7,0
		c0.6,0,1.4,0.2,2.2-0.5c-5.6-2.9-8.4-7.6-10.5-13C215,541.5,212.9,538.3,210,535.5z M378.4,564.5c0-0.2,0-0.4,0-0.6
		c5.6,0,11.3,0,16.9,0c2.7,0,5.4,0,8.2-0.1c0.5,0,1.1,0.2,1.3-0.4c0.2-0.7-0.4-1.1-0.8-1.5c-1.1-0.9-2.4-0.6-3.6-0.6
		c-13.3,0-26.6,0.1-39.8-0.1c-2.7,0-4.9,0.7-7,2.1c-0.3,0.2-0.9,0.6-0.8,0.8c0.1,0.8,0.8,0.4,1.2,0.4
		C362.1,564.5,370.3,564.5,378.4,564.5z M463.9,459.6C463.9,459.6,463.9,459.6,463.9,459.6c-0.1-9.8-0.1-19.7-0.1-29.5
		c0-0.7,0.5-1.9-0.5-2.1c-0.7-0.2-1.3,0.9-1.8,1.6c-0.5,0.6-0.3,1.4-0.3,2.1c0.2,19.1,0.4,38.3,0.6,57.4c0,0.9-0.4,2.4,1.2,2.3
		c1.3-0.1,0.7-1.5,0.9-2.3c0.1-0.4,0-0.8,0-1.3C463.9,478.4,463.9,469,463.9,459.6z M318.4,562.8c-1.5,0.6-3.4,0.8-4.6,1.9
		c-3.1,2.6-6.9,3.7-10.6,4.3c-10.2,1.8-20.6,4.2-30.3-2.1c-1-0.6-2.6-0.6-3.2,0.3c-0.4,0.7,1.1,1.2,1.9,1.6c1,0.6,2.1,1,3.1,1.4
		c10.3,3.6,20.6,3.8,31,0.7C310.7,569.4,315.1,566.9,318.4,562.8z M234.6,432.3c-1.6,0.1-3.1,0.3-4.4,1.4c-1.9,1.5-1.6,3.3,0.6,4.3
		c0.8,0.4,2.2-0.1,2.5,0.9c0.5,2,1.9,1.1,3,1.2c1,0.1,2.2-1.3,2.8-0.1c0.6,1.1-0.8,1.7-1.7,2.2c-0.1,0.1-0.2,0.1-0.2,0.2
		c-0.4,0.3-0.9,0.7-0.6,1.2c0.2,0.3,0.6,0.6,1,0.7c1.8,0.5,4-0.6,4.5-2.1c0.7-2.2,0-3.6-2.2-4.6c-0.8-0.3-1.3-0.5-1.4-1.7
		C238.4,433.3,237.1,432.2,234.6,432.3z M354.2,438.8c1.1-0.1,2.2-0.1,3.2-0.3c1.2-0.2,2-1.2,1.6-2.2c-0.6-1.6-0.4-3.3-1.1-4.8
		c-1.5-3.1-6.7-3.8-8.7-1.1c-1,1.4-0.7,2.8,0.5,3.9c0.5,0.5,1.2,0.7,1.9,1.1c0.4,0.2,1.1,0.3,0.6,1
		C350.2,439.7,352.9,438.6,354.2,438.8z M131.9,437c0.3-0.6,0-0.8-0.2-1c-0.6-0.5-1.9-0.7-1.2-1.7c0.5-0.8,1.3,0.1,1.9,0.4
		c0.3,0.2,0.6,0.7,1,0.1c0.1-0.2-0.1-0.6-0.1-0.9c-0.1-0.7-0.7-1-1.1-1.5c-4.8-4.8-9.7-9.5-14.6-14.2c-2.3-2.2-4.7-4.5-7.4-6.3
		c1.9,2.3,3.7,4.5,5.8,6.6c4.5,4.5,7.2,10.6,12.5,14.4c0.2,0.2,0.5,0.6,0.4,0.8C128.3,436.5,130.8,436,131.9,437z M301.4,510.1
		c0,0.3,0.1,0.6,0.1,0.9c5.7-0.6,11.3-0.6,16.8,0.7c1.6,0.4,1.8-0.6,1.5-1.8c-0.6-2.9-3.7-4.9-7.1-4
		C308.9,507,305.2,508.7,301.4,510.1z M452,416.7c-4.7,3.2-8.2,7.5-12.3,11.2c-0.2,0.2-0.4,0.5-0.5,0.8c-0.1,0.5,0.2,1,0.5,0.9
		c1.3-0.7,2.8,0.5,4.1-0.7c2.2-2.1,4.7-3.8,6.7-6.1c0.6-0.7,1.4-1.5,0.8-2.5C450.7,418.8,451.7,417.8,452,416.7z M284.2,511.5
		c-0.1-0.6-0.6-0.5-0.9-0.5c-4.6-0.4-9.4,0.8-13.9-1.5c-1.3-0.6-2.6,0.8-3.2,2c-0.6,1.1-1.3,2.5-0.3,3.5c0.9,0.9,2.1-0.3,3.2-0.5
		c0.4-0.1,0.8-0.2,1.2-0.3c4-1.2,8.2-1.6,12.3-2.1C283.1,512.1,283.8,512.2,284.2,511.5z M128.5,494c0.3,0,0.5,0,0.8,0
		c0-1.5,0-3.1,0-4.6c0-12.2,0-24.5,0-36.7c0-2.7,0-5.4,0-8.2c0-0.5,0.3-1.4-0.7-1.3c-0.6,0.1-0.5,0.8-0.5,1.3c0,0.6,0,1.3,0,1.9
		c0.1,14.2,0.3,28.5,0.4,42.7C128.6,490.7,128.5,492.4,128.5,494z M199.2,544.8c1.3,4,1.8,8.1,1.9,12.3c0.1,1.8,1.3,1.6,2.5,1.5
		c1.4-0.1,1.3-0.9,1.1-2C203.7,552.3,201.9,548.3,199.2,544.8z M432.8,454.9c1.5,0.2,2.3-0.2,3.1-0.7c0.3-0.2,0.7-0.6,0.4-1
		c-0.1-0.2-0.5-0.5-0.7-0.5c-2.9,0.5-5.8-0.4-8.6-0.6c-0.3,0-0.7,0.1-0.8,0.3c-0.3,0.5,0.3,0.6,0.6,0.9
		C428.7,454.6,431,454.6,432.8,454.9z"/>
	<path d="M266,395.5c-2.8-4.8-6.6-8.2-8-13.2c-1.2-4.1-3.1-8-5-11.8c-1-2.1-1.2-4.4-2.2-6.5c-0.3-0.6-0.5-1.5,0.5-1.9
		c0.8-0.3,1.4,0.4,1.7,1c1.4,2.6,2.9,5.1,4.2,7.7c3.4,6.8,6.1,14,8.7,21.2C266,392.8,266.6,393.7,266,395.5z"/>
	<path d="M369.5,516.9c-2-0.4-3.9-0.9-5.9-0.8c-0.6,0-1.3,0-1.4-0.8c0-0.6,0.4-0.9,1-1c2.6-0.7,4.5-2.6,6.6-4.1
		c5.4-4,11.2-7.3,17.8-8.9c2-0.5,4.1-0.6,6.7-0.3c-1.7,1.2-3.2,1.2-4.4,1.7c-5.8,2.1-11.2,5.1-16.5,8.2c-1.3,0.7-2.5,1.6-3.7,2.3
		C366.7,514.9,366.7,514.9,369.5,516.9z"/>
	<path d="M343.2,466.1c4.8,1.2,8.9,3.1,13.2,4.1c3.5,0.8,7,1.2,10.4-0.4c1.8-0.8,4.2,1.1,4.1,3c0,0.3-0.2,0.6-0.5,0.7
		c-0.3,0.2-0.5-0.2-0.7-0.3c-2.3-1.7-3.3-1.7-5.5,0.1c-0.3,0.3-0.7,0.5-1.1,0.5c-1.6-0.3-3-0.3-4.5,0.6c-0.5,0.3-3,0.8-1.8-1.7
		c0.3-0.7-0.1-0.9-0.7-1c-0.2,0-0.4-0.1-0.6-0.1C350.9,471.7,346.9,470.1,343.2,466.1z"/>
	<path d="M243.4,516.2c0,1.8-1.1,2.7-2.6,2.6c-1.5-0.1-2.4-1.2-2.4-2.8c0-1.6,1.1-2.2,2.4-2.3C242.4,513.8,243.3,514.7,243.4,516.2z
		"/>
	<path d="M237.5,514c-0.2,1.4-0.8,2.5-2.3,2.5c-1.7,0-2.6-1.2-2.8-2.8c-0.1-1.4,0.8-2.1,2.1-2.2C235.8,511.3,237.5,512.7,237.5,514z
		"/>
	<path d="M237.8,530.1c-0.2,1.5-1.2,2.2-2.7,2.1c-1.5-0.1-2.5-1-2.4-2.6c0.1-1.7,1.1-2.3,2.7-2.2
		C236.9,527.5,237.8,528.3,237.8,530.1z"/>
	<path d="M242.2,533.6c-1.7-0.1-2.5-1.2-2.4-2.7c0.1-1.4,1.2-2.2,2.6-2.1c1.4,0.1,2.4,0.6,2.3,2.3
		C244.6,532.7,243.8,533.6,242.2,533.6z"/>
	<path d="M449.9,381.5c0.9-0.3,1.1-0.3,1.2-0.4c0.8-0.7,0.9-2.7,2.2-2.1c0.7,0.3-0.1,2.1-0.4,3.2c-1.4,5.4-3.1,10.6-6.6,15.1
		c-0.5,0.6-0.8,1.2-1.3,1.8c-1.8,2.1-4,3.9-5.8,6c-2.3,2.6-5.9,3.4-9.6,3c-3.9-0.4-4.6-1-5.4-4.8c-0.5-2.2-1-4.4-0.5-6.5
		c0.5-2.6-1.3-4.7-1.2-7.2c0-0.9-1.4-0.9-1.7-0.8c-2.4,0.7-4.8-0.2-7.1,0c-1.6,0.2-2.4-0.7-2.6-2.4c-0.4-3.5-1.4-7-0.5-10.6
		c0.4-1.7-0.3-2.2-1.9-2.2c-1.5,0-3.2,0.4-4.6-0.6c-0.5-0.3-1.2-0.6-1.2-1.3c0-0.8,0.8-0.9,1.3-1.1c0.8-0.4,1.7-0.6,2.4-1.3
		c-1.4,0.4-2.9,0.7-4.3,1.1c-0.7,0.2-1.8,0.4-2-0.2c-0.3-0.9,0.9-0.9,1.5-1.2c1.9-0.7,4.1-0.9,5.8-2.3c0.3-0.3,0.8-0.3,1.1-0.6
		c0.9-0.8,1.8-2,1.3-2.9c-0.3-0.7-1.6,0.2-2.5,0.5c-2.9,1-5.9,2-8.9,2.8c2.3-2.4,5.1-4,7.8-5.9c2.7-1.9,4.5-4.4,5.8-7.4
		c1.2-2.9,1.9-5.9,2.7-8.8c0.9-3.1,2.9-5.8,4.8-8.4c0.4-0.6,1-1.3,0.5-2c-0.5-0.8-1.3-0.1-2,0c-1.8,0.5-3.5,1.4-5.7,1.4
		c0.4-0.9,1-1.1,1.6-1.4c1.8-0.8,3.6-1.7,5.4-2.5c3.1-1.4,5.4-3.8,7.7-6.2c6.4-6.9,14.8-10.4,23.4-13.6c10-3.7,20.2-7.2,29-13.3
		c8.8-6.2,15.7-14,19-24.6c0.2-0.6,0.1-1.5,0.8-1.5c0.9,0,1.1,1,1.1,1.6c0.4,4,0.3,7.9-0.5,11.9c-0.2,1.2-1.5,2.9,0.9,3.4
		c0,2.6,2.2,5.1,0.2,7.7c-0.9,1.1-0.9,2.5-1.5,3.7c-0.5,1-0.7,1.6,0.9,1.7c1.3,0,0.6,1.1,0.2,1.6c-2.1,2.3-2.8,5.2-3.6,8.2
		c-0.9,3.2-3.1,5.7-5.2,8.1c-4.1,4.9-7.4,10.5-12,15c-3.9,3.8-8.4,6.8-12.6,10.2c-1.1,0.8-2.1,1.7-3.1,2.6c-0.4,0.3-1.1,0.7-1.1,1.1
		c0.2,3.5-2.9,4.6-4.8,6.5c-2,2-4.1,3.8-5.8,6.2c-0.6,0.9-1,1.1,0.7,1.1c1.5,0,1.4,1.8,0.8,3.2C451.8,370.8,452.6,376.3,449.9,381.5
		z"/>
	<path d="M483.1,542.7c1,3.4,0.1,6.5-1.9,9.3c-1.3,1.9-3.1,3.4-4.8,4.9c-2.5,2.1-4.7,4.4-5.4,7.8c-0.1,0.4,0,1.2-0.8,1
		c-0.3-0.1-0.5-0.7-0.6-1c-0.5-2.2-0.1-4.1,1.2-6c1.2-1.8,2.7-3.2,4.4-4.5c3.8-2.7,6.4-6.2,7.1-11
		C482.4,543,482.5,542.7,483.1,542.7z"/>
	<path d="M200.6,462.9c1.4,3.8,3.7,6.7,6.1,9.7c0.4,0.5,1.4,1.1,0.6,1.8c-0.5,0.4-1.1-0.3-1.5-0.8c-1.8-2-3.4-4.2-5.3-6.1
		C199,466.2,201.3,464.6,200.6,462.9z"/>
	<path d="M210.5,473.1c-0.1,0.3-0.1,0.5-0.2,0.6c-0.3,0.2-0.6,0.1-0.8-0.2c-1-1.3-2.8-2.1-2.7-4c0-1.5-1.4-2-1.8-3.2
		c-0.2-0.6-0.5-1.3,0.1-1.7c0.7-0.5,1.2,0.1,1.5,0.6c1,1.4,3,2.3,2.2,4.7C208.5,471.2,210.2,472,210.5,473.1z"/>
</g>
</svg>
