<?xml version="1.0" encoding="utf-8"?>
<!-- Generator: Adobe Illustrator 24.2.3, SVG Export Plug-In . SVG Version: 6.00 Build 0)  -->
<svg version="1.1" id="Layer_1" xmlns="http://www.w3.org/2000/svg" xmlns:xlink="http://www.w3.org/1999/xlink" x="0px" y="0px"
	 viewBox="0 0 950 350" style="enable-background:new 0 0 595.3 200; fill: #215342;" xml:space="preserve"
	 height="850" width="600" transform="translate(-25, -515)">
<style type="text/css">
	.st0{fill:#FFFFFF;}
</style>
<g>
	<path d="M571.7,496.3c-18.5,0-37.1,0-55.6-0.2c-2.4,0-3.3,0.5-3.7,3c-0.7,4.9-2.4,9.5-4.7,13.9c-1.6,3.1-2.7,6.5-4,9.7
		c-0.6,1.6-1.4,3-2.6,4.2c-1.4,1.3-2.4,0.9-3-0.7c-0.5-1.3-0.7-2.7-0.7-4.1c0-0.4,0-1-0.5-1.1c-0.6-0.2-0.6,0.5-0.7,0.8
		c-2.2,4.7-5.8,7.6-11.1,8.2c-1.9,0.2-3.2,1-3.9,2.9c-0.4,1-1.1,1.8-1.8,2.6c-0.7,0.8-1.3,1.8-2.6,1.5c-1.2-0.3-1.6-1.5-1.8-2.5
		c-0.4-1.9-0.5-3.8-0.7-5.7c-0.1-0.8-0.2-1.7-1.1-1.8c-1.1-0.2-1.1,0.9-1.3,1.6c-0.7,2.3-1.3,4.5-2.1,6.8c-0.3,1-0.9,2-2.2,2
		c-1.3,0.1-1.8-1-2.3-1.9c-1-2-1.7-4-2.1-6.2c-0.2-1.6-0.8-2.2-2.4-1.3c-7.2,4-13.4-0.2-17.1-5.6c-2.2-3.2-4.4-6.4-5.5-10.1
		c-0.1-0.2-0.2-0.5-0.4-0.7c-0.6-0.9-1.1-2.2-2.1-2.1c-1.1,0-1,1.5-1.4,2.3c-1.2,2.6-2.1,5.4-3.8,7.8c-0.6,0.8-1.3,1.8-2.5,1.6
		c-1.2-0.2-1.5-1.4-1.8-2.4c-0.7-2.3-0.8-4.7-1-7c-0.1-0.8,0-1.7-0.9-2c-4.5-1.7-6.1-5.6-7.1-9.6c-0.6-2.5-1.8-3.3-4-3.3
		c-6.9-0.1-13.9-0.3-20.8-0.4c-4.2-0.1-8.4,0.1-12.6-0.1c-2.6-0.1-4.5,0.3-5.9,2.9c-3.2,5.7-7.9,10.2-12.1,15
		c-1.5,1.7-2.9,3.4-4.5,5c-4,4.2-8.8,7.3-14.6,8.5c-3.1,0.6-4.7,2.2-5.4,5.2c-0.5,2.2-1.4,4.3-2.1,6.5c-4.5,13.3-14,21.2-27.6,24.1
		c-15.2,3.3-29.5,1-41.9-9.1c-5.8-4.7-9.6-10.9-11.7-18.1c-0.1-0.3-0.1-0.5-0.2-0.8c-0.9-4-2.4-6.9-7.4-7.5
		c-5.9-0.8-10.9-4.3-14.9-8.7c-1-1.1-1.6-2.7-2.5-4c-4.3-5.7-8.7-11.3-10.9-18.2c-0.2-0.7-0.6-0.9-1.3-0.8c-11.9,0.4-23.9,0-35.8,0
		c-2,0-3,0.3-3.6,2.5c-1.4,5.5-4.3,10-10.1,11.7c-1.2,0.4-1,1.3-1,2.1c-0.1,2.2-0.3,4.4-1.1,6.4c-0.3,0.7-0.5,1.6-1.5,1.7
		c-0.9,0.1-1.4-0.7-1.8-1.3c-1.9-2.9-2.6-6.3-3.8-9.5c-0.3-0.7-0.2-1.8-1-2c-0.8-0.2-1.2,0.9-1.6,1.5c-1.6,2.6-2.4,5.5-4.2,8
		c-2.2,3.1-4.6,6-8,7.8c-3.5,1.9-6.9,1.9-10.2,0c-1.4-0.8-2.1-1-2.2,1c-0.1,2.2-0.6,4.3-1,6.5c-0.2,1-0.6,2.2-1.9,2.3
		c-1.3,0.1-1.8-0.9-2.3-1.8c-1.3-2.1-1.7-4.6-2.7-7.1c-0.7,1.2-0.8,2.2-1,3.3c-0.1,1-0.2,2.1-0.5,3.1c-1,3.6-3.5,4.5-5.8,1.5
		c-2.5-3.3-5.7-4.7-9.6-5.6c-5.5-1.2-9.1-5.1-11.7-9.9c-1-1.8-2.1-3.7-2.6-5.7c-0.1-0.6-0.2-1.4-0.9-1.5c-0.8-0.1-1,0.8-1.3,1.4
		c-0.9,2.1-1.8,4.2-2.8,6.2c-0.5,1-1.1,2.1-2.5,2c-1.6-0.1-1.8-1.4-2.2-2.6c-0.9-2.6-1-5.3-1.5-8c-0.2-0.9-0.2-1.7-1-2.4
		c-3.1-2.6-4.5-6.2-5.3-10c-0.4-1.7-1.2-1.9-2.7-2.1c-6.8-0.8-13.5,0.4-20.3,0.2c-5.6-0.2-11.2,0-16.9-0.1c-0.8,0-2.3,0.6-2.3-0.9
		c-0.1-1.5,1.4-1,2.2-1c11.5,0,23,0.1,34.5,0.1c3.7,0,3.7,0.1,4.2-3.6c0.8-6,0.8-6-5.3-6.1c-10.5-0.1-20.9,0-31.4-0.1
		c-0.5,0-1.1,0.1-1.6,0c-1-0.2-2.7,0.7-2.8-1c-0.1-1.8,1.7-1,2.7-1c12-0.1,24.1-0.1,36.1,0c2.7,0,4-0.6,4.8-3.4
		c1.3-4.9,3.3-9.6,5.9-14c3.3-5.7,7.9-9.4,14.9-9c1.2,0.1,2.4,0.2,3.3,0.8c2.2,1.4,3.6,0,4.7-1.3c4-4.7,7.2-5.9,13.2-4.6
		c1.9,0.4,4.2,2.1,5.6,0.9c1.3-1.1-0.1-3.6-0.1-5.6c0-10.5,2.8-20.1,9.4-28.4c8.2-10.2,16.8-20,24.2-30.9
		c7.3-10.6,13.8-21.5,17.9-33.8c0.7-2.2,1.7-4.3,2.2-6.7c-1.1,1-2.1,2-3.2,2.9c0.9-2.2,2.5-3.9,4.3-5.4c1-0.8,1.9-1.6,2.8-2.4
		c0.3-0.3,0.7-0.5,0.3-1.1c-0.7-0.9-0.7-0.9,0.3-1.6c1-0.7,2.6-1.1,3-2.1c1.6-4.4,5.8-5.4,9.1-7.4c3.6-2.1,7.7-3.5,11.8-4.2
		c3.9-0.7,7.8-1.3,11.7-2c0.5-0.1,1-0.2,1.5-0.4c0.5-0.2,1.4,0.1,1.5-0.7c0.1-0.6-0.7-0.7-1.1-1c-0.3-0.3-0.9-0.3-0.8-1
		c1.3-0.1,2.6,0.6,3.9,0.2c-0.2-1-1.5-0.8-1.9-1.9c4.4,0.6,7-2.1,9.9-4.6c13.5-11.8,28.8-19.8,46.7-22.4c5-0.7,10.1-0.6,15-1.7
		c1.6-0.4,3.5,1.1,6,1.9c-1.6-1.7-3.1-2.5-4-4.1c3.5,0.2,14,4.1,17.5,6.7c-2.1-0.1-3.4-1-4.8-1.6c-1.5-0.6-2.8-1.8-4.8-2.2
		c0.6,1.5,2.2,1.5,2.9,2.7c-1.8-0.2-3-1.5-4.5-2.1c-0.3,0.8,0.3,1,0.7,1.4c0.5,0.5,0.6,0.6-0.2,0.5c-0.6-0.1-1.3,0-1.8-0.1
		c-7.8-2.2-15.5-0.1-23.2,0.9c-1.7,0.2-3.5,0.6-5.2,1c-0.4,0.1-1.9,0.5-0.2,1.1c0.4,0.1,0.5,0.4,0.5,0.8c-0.2,1.4-0.1,1.4,1.3,1.9
		c2.6,1,5.4,1.3,7.7,2.9c-2-0.4-4-1.2-6.2-1.1c2.7,0.8,5.3,2,7.9,3.1c-3.9-0.9-7.7-2.3-11.8-2.2c-0.2,0.7,0.2,0.7,0.5,0.8
		c3.3,0.9,6.7,1.4,9.2,4.1c1,1,2.5,1.7,3.8,2.2c3.8,1.5,5.9,4.2,7,8c1.1,3.9,2.3,7.7,3.3,11.6c0.7,2.7-0.7,5.6-0.2,8
		c1.3,6.1-2.2,11.1-3.2,16.6c-0.3,1.5,0,3.1-0.1,4.8c1.2-2.6,2.4-5.2,3.7-7.9c0.7,0.7,0.5,1.4,0.3,1.9c-2.1,6-1.5,12.5-3.8,18.4
		c-1,2.4-1.9,4.9-2.8,7.3c-0.2,0.4-0.5,0.9-1,0.7c-0.6-0.2-0.1-0.7-0.1-1.1c0.2-1.4,0.3-2.7,0.3-4.2c-2.3,8.2-7.4,15.1-10,23.1
		c-0.1,0.4-2.3,2.8,0.9,1.6c0.8-0.3,1,0.5,0.9,1.2c-0.2,0.9-0.9,1.5-1.4,2.2c-0.8,1.2-3.1,1.8-1.6,4.1c0.4,0.6-0.7,1.9-1.5,2.6
		c-1.1,1-2.3,1.9-3.5,2.8c-0.5,0.4-0.4,0.4-0.4,1.8c0,0.6-0.6,0.5-0.8,0.8c-6.5,6.3-12.5,13-17.4,20.6c-0.5,0.7-1,1.4-1.1,2.3
		c-0.3,2.6-1.2,4.9-3,6.8c-1.8,2-1,5-2.5,7.2c-0.9,1.2-1,3-2.1,4.1c-0.9,0.9-0.7,2.1-0.9,3.1c-0.9,4.8-4.5,7.8-7.7,11
		c-1.7,1.8-3.7,3.2-5.6,4.8c-5.4,4.4-8.3,10.1-9,17c-0.1,0.7-0.3,1.6,0.4,1.9c0.3,0.1,1-0.6,1.7-0.8c-3.7,3.2-1.7,6.6-0.5,9.8
		c1.4,3.5,3.8,6.4,6.1,9.4c1.6,2.1,3.2,4.1,4.7,6.3c5.8,8.5,14.5,10.7,23.9,11.1c14.8,0.6,26.8-5.9,37.3-15.6c2-1.9,2.9-4.6,3.7-7.2
		c0.7-2.3-0.6-4.4-2.6-5.8c-1.8-1.2-3.9-2-5.5-3.6c-0.2-0.2-0.6-0.5-0.9-0.5c-4.4-0.2-8-2.9-12-3.8c-3.6-0.8-5.2-2.6-6-5.8
		c-0.1-0.5-0.6-0.9-0.9-1.3c-1.6-2.4-4.1-3.8-6.1-5.7c-3.1-2.9-3.5-6.3-3.2-9.7c0.5-6.1,0.9-12.3,4.5-17.6c0.6-0.8,0.8-1.9,1.2-2.9
		c0.3-0.8,0.4-0.8,1.2-0.5c0.8,0.3,1.1-0.4,1.5-0.8c1.7-2.3,4.2-4.1,5.3-7.1c1.1,0.9,0.3,1.9,0.9,2.8c0.7-1.8,2.9-1.8,3.6-3.5
		c0.2-0.4,0.4-0.8,0.9-0.1c1.2,1.6,1.8,0.3,2.3-0.6c0.6-0.9,1.1-2,1.6-3.1c0.2,0.3,0.3,0.5,0.3,0.6c-0.1,1.2-1,2.7,0.5,3.3
		c1.6,0.6,1.8-1.2,2.4-2.2c0.6-1.1,0.6-1.1,1.4-0.2c0.2,0.2,0.5,0.4,0.6,0.1c0.8-2.6,3.3-2.2,5.1-3.1c0.5,0.7-0.6,1.5,0,2.3
		c1.1-0.3,1.4-1.8,2.8-1.6c0.8,0.1,1.7-0.3,1.1,1.1c-0.1,0.3-0.3,0.8,0.2,0.8c0.2,0,0.7-0.3,0.8-0.5c0.9-1.8,3-0.4,4.2-1.7
		c0.1-0.1-0.2,0.9-0.1,0.9c1-0.2,1.8,0.2,2.7,0.6c0.3,0.1,1-0.6,1.5-0.9c0.3-0.2,0.9-0.4,0.9-0.3c0.3,0.4-0.3,0.5-0.4,0.8
		c-0.4,0.6-0.2,0.8,0.4,0.7c0.7-0.2,1.3-0.5,2-0.7c0.3-0.1,0.7-0.2,0.9,0.3c0.3,1.1,0.3,1.1,1.5,0.9c1.8-0.3,3.5,1.2,5.4,0.5
		c0.1,0,0.4,0,0.5,0.2c3.2,2.9,3.6,3.2,7.3,3.9c0.3,0,0.7,0,0.8,0.1c0.8,2.8,3,1,4.5,1.3c0.3,0,0.5,0,1.1,0c-0.9,1.1-3,0.7-2.7,2.4
		c0.2,1.4,1.4,2.2,2.4,3c5.5,4.6,8.1,10.3,6.6,17.5c-0.7,3.6-2.4,6.8-4.7,9.6c-3.3,3.9-6.9,7.5-10.7,10.9c-1.6,1.5-3.5,2.8-2.9,5.4
		c0.1,0.6-0.2,1.4-0.7,1.6c-2.5,1-4.3,3.2-6.9,4.1c-6.5,2.2-8.3,9.4-5.6,14.4c0.3,0.5,0.8,1.1,0.7,1.7c-0.2,3.7,2.3,5.5,4.9,7.3
		c11,7.3,22.7,9.1,35.1,4.2c5-2,8.8-5.8,12.3-10c2.2-2.7,4.7-5.1,7-7.7c3.7-4.2,7.7-8.3,8.8-14.1c1.1-5.5,0.1-10.6-3.6-15
		c-0.5-0.5-0.9-1-1.4-1.5c-2.4-4.1-6.8-6.6-9.3-10.7c-0.5-0.8-1.1-1.6-1.4-2.5c-0.2-0.5-1.7-2.1,0.8-1.2c0.6,0.2,0.4-0.6,0.3-1
		c-1.4-2.8-3-5.4-6.3-6.4c-1.5-0.5-2.8-1.3-4.3-2c0.3-0.7,1.7,0.2,1.7-1c0-1.1-0.9-1.1-1.6-1.3c-3.1-1.2-6.2-1-9.3-0.5
		c3.1-1.2,6.2-1.3,9.4-0.7c1.2,0.2,2.6,2.3,3.8,0c0.1-0.2,0.3,0.4,0.3,0.7c0.2,0.9,0.8,1.6,1.6,1.3c1.1-0.4,0.3-1.3,0.2-2
		c-1.6-6.9-3.1-13.9-7.3-19.9c-0.7-1.1-2.2-2.4-0.4-4.1c0.5-0.5-0.7-1.6-1.1-2.5c-2.8-5.7-7.6-9.8-12.1-14c-2.1-2-4.7-3.8-5.9-6.3
		c-1.2-2.5-4.1-3.6-4.7-6.4c-0.2-0.9-1-1.4-1.8-1.9c-5.7-3.9-6.4-4.6-6-12.3c-0.2,0.7-0.4,1.4-0.8,2.6c-1-1.9-0.9-3.6-0.8-5.2
		c0-1.2,0.2-2.5,0.2-3.7c0-0.5,0.2-1.2-0.4-1.4c-0.6-0.2-0.8,0.5-1.1,0.9c-0.8,1-1.7,1.4-3,1c-1.3-0.4-1.4-1.5-1.6-2.5
		c-0.1-1-0.2-2.1,0-3.1c0.5-3.1,2.2-4,5-2.8c1.7,0.8,2.3,0.9,2.3-1.4c-0.1-3.7,1.3-7,3.5-10c3.5-4.9,6.4-10,7.4-16.1
		c0.6-3.7,2.8-7,2.8-10.9c0-1.6-0.3-3.1-0.2-4.7c0.2-2.5,0.3-5,1.2-7.5c0.9-2.4,0.5-5,0.2-7.6c-0.4-3.6,0.9-4.9,4.4-4.6
		c2.4,0.2,4.4,1.6,6.5,2.7c2.8,1.5,5.2,3.5,7.6,5.6c-1.6,0.3-2.7-0.7-4-1.2c-0.5-0.2-1.1-0.5-1.5,0c-0.5,0.5,0.1,0.9,0.4,1.4
		c0.7,1.5,1.8,2.7,3.3,3.6c3.2,1.9,6,4.2,9.3,6c4,2.1,4.9,6.1,6.3,9.8c1.7,4.2,0.6,8.8,1,13.2c0.1,1.7-1,1.3-1.9,0.9
		c-4.1-1.6-8.3-2.7-12.8-3.1c-1.3-0.1-3.4-0.8-3.8,0.5c-0.5,1.5,1.8,1.5,2.9,2c3.2,1.4,6.5,2.7,9.7,3.9c4.7,1.8,8.4,4.5,8.9,10.1
		c0.1,0.9,0.8,1.6,1.5,2.1c6.1,4,8,10.3,8.8,16.9c0.4,3,1,5.9,2,8.7c0.7,2,1,4.1,1.2,6.2c0.3,2.6,0.3,4.8-2.3,6.7
		c-2.1,1.5-2.9,4.6-5,6.4c-0.9,0.8-1.7,1.6-3.1,1.6c-1.6,0-2.6,1.3-3.6,2.4c-4.2,4.7-9.3,6.7-15.6,5.7c-1.5-0.2-2.3-0.1-1.4,1.7
		c1.3,2.8,2.6,5.5,5.1,7.5c1.1,0.9,2.3,1.6,3.7,1.8c1,0.2,1.8,0.6,2.5,1.3c2.7,2.5,5.9,2.7,8.9,0.5c0.6-0.4,1.1-0.8,2.2-1.5
		c-0.8,3.3-2.3,5.4-4.9,6.7c-3.3,1.5-5.3,0.7-10.7-4c-0.1,0.1-0.3,0.3-0.2,0.3c2.4,2.8,2.1,6.3,2.5,9.6c0.2,1.1,0.5,2.1,1.8,2.6
		c1.5,0.6,1.1,2.2,1.4,3.4c0.2,0.9-0.3,2.3,1.5,2.1c0.7,0,0.6,0.8,0.5,1.3c-0.3,1.4,1.3,1.5,1.6,2.5c0.9-0.3,0.9-1.2,1.3-1.9
		c0.1-0.2,0.3-0.4,0.5-0.8c0,2.1,0.2,4.1-0.6,6c-0.2,0.5-0.3,1.3-0.1,1.5c2,1.6,1.8,3.4,0.6,5.3c-0.8,1.3,1.8,1.2,0.8,2.5
		c-0.6,0.9-0.9,2.1-1.2,3.2c-0.1,0.4,0,1,0.5,1.1c0.6,0.1,0.9-0.5,1.2-0.9c2.5-4.1,4.7-8.6,5.7-13.3c2.3-10.1,5.5-19.9,7.6-30.1
		c2.7-13,3.1-26,1.7-39.3c-0.9-9-2.4-17.9-5.2-26.5c-0.1-0.4-0.3-1.1-0.1-1.2c2.6-1.4,0.3-2.7-0.1-4c-0.6-2-2.7-3.4-1.4-6
		c0.3-0.6-0.9-1.7-1.1-2.8c-0.8-4-1.8-8-4.1-11.4c-1.7-2.5-2.4-5.4-4.4-7.8c-1.8-2.2-2.6-5.2-4.2-7.6c-0.5-0.8,0.3-0.6,0.6-0.6
		c2.5,0.3,5,0.5,7.2,2.1c4.8,3.5,9.1,7.7,14,11.1c2.9,2,5,4.2,5.5,7.8c0.1,1,1.1,2,1.7,3c-1,0.4-1.2-1.2-2.4-0.6
		c1.4,2.2,3.4,4.1,4.7,7.1c-2.2-1.4-3.1-3.1-4.8-4.2c1.9,4,2.6,8.4,5.2,12.1c5.2,7.5,7.5,16.1,8,25c0.6,9.6-0.3,19.2-1.9,28.6
		c-1.3,8-2.9,15.9-4.1,23.9c-0.1,0.6-0.8,1.7,0,1.9c0.9,0.2,1-1,1.2-1.7c0.5-1.7,0.8-3.4,1.5-5.1c0.2,3-0.2,6-0.9,8.9
		c-0.8,2.9-1.5,5.8-2,8.9c-0.6,3.8-1.8,7.5-2.8,11.2c-1.9,7.3-1.9,14.8-1.7,22.3c0,1.1,0.4,1.8,1.7,1.7c1.2-0.1,1.7-0.6,1.6-1.8
		c-0.2-3.6-0.4-7.2-0.3-10.8c0.4-7.9,2.4-15.6,4.2-23.3c3.3-13.7,6.7-27.3,9.8-41c2.6-11.3,1.9-22.7-0.2-34
		c-2-10.6-5.6-20.6-11.2-29.9c-1-1.7-2.4-3.2-3.6-4.9c-0.5-0.8-2-1.3-0.6-2.7c0.5-0.5-0.6-0.8-1-1.2c-3.9-3.4-7.9-6.7-11.8-10
		c-0.5-0.4-1.3-0.6-1.9-0.9c-0.8-0.4-0.8-0.4-0.1-1c0.1-0.1,0.3-0.2,0.4-0.3c-0.2-0.1-0.4-0.3-0.6-0.3c-3-1-6-2.1-9.2-2.1
		c-3.7,0-6.8-0.8-9.5-3.8c-2.5-2.8-6.2-4.6-9.5-6.6c-5.1-3.1-10.5-5.7-16-7.9c-3.2-1.3-6.5-2.1-9.8-2.7c-2.4-0.4-3.9-2.2-6.3-3.5
		c10.8,2.3,20.3,6.5,29.5,11.4c3.7,2,7.4,4.1,10.7,6.7c2.1,1.7,5,2.3,6.9,4.3c0.5,0.5,1.7,0.8,2.5,0.7c6.4-0.5,12,2.8,18.4,3.3
		c-1.3,0.3-2.5,0.7-4.2,1.1c3.9,2.1,7.7,3.4,11.9,4c-1.1,0.9-2.1,0.9-3.2,0.9c-1,0-2.1,0-3.5,0c1,1,2.2,0.9,3.2,1.2
		c1,0.4,2.1,0.5,3.8,0.9c-2.1,0.1-3.5,0.1-5-0.3c4.3,3.2,7.9,7.1,13.1,9.2c-0.3,0.2-0.5,0.4-0.6,0.4c-1.3,0-3.1-0.9-3.6,0.1
		c-0.4,0.8,0.8,2.4,1.6,3.6c1,1.5,2,3.1,2.6,4.8c1.9,5.7,6.2,9,11.1,11.7c3.5,1.9,6.9,3.9,9.3,7.6c-2.3-0.6-3.9-2-5.8-2.7
		c-0.5-0.2-1.2-0.9-1.6-0.3c-0.5,0.6,0.4,1.1,0.7,1.5c1.9,2.2,3.8,4.3,5.5,6.8c-1-0.9-2-1.7-3.2-2.8c-0.3,1.3,0.7,1.8,1,2.6
		c5.3,12.5,13.6,23.3,20.8,34.7c5.8,9.3,10.4,19.2,14.8,29.3c-0.7-0.7-1.3-1.5-2-2.2c-0.2,0.1-0.3,0.1-0.5,0.2
		c1.3,3.4,2.5,6.8,3.8,10.3c-1.1-0.3-1.4-1.4-2-2.1c-0.7,0.7-0.3,1.4-0.2,2c0.6,2.4,1.4,4.7,1.9,7.1c0.4,1.9,1,3.1,3.2,2.7
		c0.9-0.2,1.7,0.3,2.4,0.8c0.9,0.6,1.8,1.2,2.5,1.9c3.4,3.6,6.9,4.9,11.6,1.9c3.5-2.2,7.2-1.3,10.3,1.7c2.1,1.9,4.7,2.9,7.7,2.8
		c6.3-0.3,10.2,2.1,11.5,8.2c0.9,4.1,3.2,7.4,4.2,11.3c0.4,1.5,1.2,2.1,2.8,2.1c19.6-0.1,39.2-0.1,58.8-0.1c0,0.7,0,1.4,0,2.1
		c-19,0-38.1,0.1-57.1,0c-2.1,0-2.9,0.3-2.2,2.6c0.5,1.5,0.7,3.1,0.7,4.7c0,1.9,0.8,2.4,2.6,2.4c18.7-0.1,37.4-0.1,56.1-0.1
		C571.7,494.9,571.7,495.6,571.7,496.3z M347.8,404.4c-3.7-1.6-6.9-4.1-10.4-6.2c2.2,0.5,4,1.6,6.1,2.5c2.9,1.2,5.9,2.2,9.2,1.6
		c8.2-1.4,14.2-7.6,15.3-15.9c0.2-1.7-0.1-3.1-1.2-4.9c-1.2,7.2-4.8,12.2-10.3,13.7c-9,2.5-15.3-1.3-19.5-9.7
		c-0.6,3.6-0.2,6.7-1.2,9.7c-0.6,1.8,0.1,2.6,1.7,3c-1.1,0.3-1.1,0.3-0.6,0.8c2.2,2.1,4.9,3.7,7.7,5
		C345.6,404.5,346.7,404.9,347.8,404.4c3,3,6.3,1.7,9.3,0.4c6.1-2.6,9.8-7.5,12.1-13.5c0.2-0.6,0.7-1.2,0.1-1.9
		c-0.2,0.1-0.4,0.2-0.4,0.3C365,399.1,358.4,404.6,347.8,404.4z M465.7,516.4c-1.6,2.6-0.8,5.5-1,8.2c-0.3,3.2,0.2,6.3,1.5,9.2
		c0.3,0.7,0.5,1.8,1.4,1.7c0.7-0.1,0.8-1,1-1.7c1.4-4.4,2.2-8.8,2.3-13.4c0.1-1.9-0.4-3.7-1.2-5.3c-0.8-1.6-1.8-1.7-3-0.5
		C466.2,515.2,465.8,515.7,465.7,516.4L465.7,516.4z M212.5,452.5c0.7-3.6,0.9-7.1-1.4-10.2c0.7,3.6-0.2,7.3,0.8,10.9
		c-0.4,3.8-0.8,7.6-1.3,11.4c-0.7,5.3-1.9,10.5-3.3,15.6c-0.5,1.8,0,2.5,2,2.5c2.8-0.1,5.6,0,8.4,0c1.1,0,1.8-0.4,2.6-1.4
		c2.7-3.4,4.2-6.8,2.7-11.3c-0.6-1.9-0.5-4-0.8-6c-0.5-3.2-1.1-6.4-3.1-9.5c-0.5,2.2-0.6,4-1.4,6c-0.2-2-0.3-3.6-0.5-5.3
		c-0.1-0.6-0.4-2-1.2-0.2c-0.1,0.2-0.3,0.6-0.4,0.6c-0.5-0.1-0.3-0.5-0.4-0.8c-0.5-1.6-0.1-3.3-1.2-4.9
		C213.5,450.9,213,451.7,212.5,452.5z M438.5,427.1c1.6,3.1,2.4,6.4,3.7,9.6c0.6,1.3,0.7,3.4,3.2,2.4c0.6-0.2,0.6,0.5,0.7,0.8
		c1.6,3.4,3.2,6.9,4,10.6c0.2,1,0.9,1.7,1.5,2.4c0.8,0.9,1.8,0.2,2.7,0.1c0.8-0.1,1-0.7,0.8-1.4c-1.3-5.1-1-10.5-2.4-15.6
		c-3.2-11.9-8.6-22.8-15.5-33c-6.9-10.2-13.9-20.3-18.9-31.6c-2.3-5.3-6.7-9.4-8.7-14.9c-0.5-1.4-2.8-3.1-5.1-4.3
		c1.5,3.5,3,6.4,4.2,9.5c2.1,5.9,3.6,12,6.9,17.5c2.1,3.6,4,7.4,6.5,10.8c2.7,3.8,6.1,7,8.4,11.1c0.6,1.1,1.9,2.2-0.3,3.1
		c-0.8,0.3-0.3,0.9,0,1.3c1.4,2.4,2.8,4.4,3.4,7.4c0.6,3.2,1.8,6.6,3.2,9.7c-0.6-1.3-1.6-2.2-3.1-3.7c1.4,3.4,2.5,6.1,3.7,8.7
		c0.2,0.4,0.4,1.2,1,0.9C438.9,428.3,438.6,427.6,438.5,427.1z M472.9,467.1c1.1,3.9,2.8,7.8,3.2,11.8c0.7,7,1.6,14.2-0.1,21.2
		c-0.1,0.4-0.2,1,0,1.3c1.2,1.8,1.2,1.8,1.1,3.2c-0.3,2.5-0.6,5.1-1,7.6c-0.1,0.8,0.1,1.3,0.7,1.8c0.8,0.6,0.7-0.4,1.1-0.6
		c1.7-0.6,3.4-1.2,5,0.5c0.7,0.7,1.7,1,2,2.3c0.2,0.8,0.8,0.7,0.6,2.4c-0.2,2.8-0.7,5.6-1.7,8.2c-0.7,2,0.3,2.2,1.7,1.7
		c4.5-1.6,7.8-4.4,8.7-9.3c1.2-6.5,2.2-13,3.1-19.5c0.9-6.6,0.9-13.3-1.1-19.8c-0.7-2.2-1.6-4.3-2.3-6.4c2.7,2.8,3.9,6.2,5.1,9.7
		c0.5,1.6,0.3,3.3,0.3,5c-0.1,4.1,0.6,8.2,0.4,12.3c-0.1,1.6,1,0.8,1.5,0.5c1.5-0.9,2.8-1,4,0.4c1.1,1.3,1.7,2.6,1.6,4.3
		c-0.1,1.7-0.3,3.5-0.4,5.2c0.8-0.2,0.8-0.8,1-1.4c2.6-7,3.6-14.2,2.6-21.7c-0.4-2.8-1.1-5.5-2.2-8.1c-1-2.6-2.4-5.1-3.3-7.7
		c-0.8-2.4-2.4-4.3-3.1-6.8c-0.5-1.9-3-3.3-5.5-2.6c-3.5,1-6.7,0-9-2.3c-4.2-4.1-8.5-3.8-13.2-1.5c-1.7,0.8-3.4,1.4-5.3,0.7
		c-0.4-0.2-0.7-0.4-1.1-0.6c-1-0.8-2.1-1.6-3.1-2.5c-3.6-3.2-7.5-3.7-11.7-1.5c-4.3,2.4-8.7,3.7-13.8,2.9c-4.6-0.8-8.9,0.7-12.2,4.2
		c-0.4,0.4-1,0.7-0.8,1.2c0.3,0.6,0.9,0.3,1.4,0.1c0.7-0.3,1.6-0.1,0.9,0.7c-3.9,4.2-2.6,10.1-5,14.8c-0.4,0.8-0.6,1.8-0.9,2.8
		c0,0.1,0.1,0.3,0.2,0.4c0.8-0.2,0.4-1.5,1.6-1.6c-0.7,4.9-0.7,9.7-1.5,14.5c0.7-1.3,0.8-2.9,1.9-4.3c-0.3,2.8-0.5,5.4-0.8,7.9
		c0.5-0.6,0.6-1.3,0.8-2c0.6-2.2,0.6-2.1,2.6-1.6c0.2,0.1,0.6-0.2,0.9-0.4c0.7-0.4,1.3-0.9,2-1.3c3.3-2.2,5.7-1.7,7.8,1.8
		c0.3,0.4,0.3,1.1,1,1c0.5-0.1,0.6-0.8,0.8-1.3c0.8-2.2,0.4-4.7,1.7-6.9c1.6-2.7,2.4-5.6,3.2-8.6c0.5-1.7,0.7-3.4,1.6-5
		c0.7,0.9,0.3,2,0.7,3.5c1.3-3,1.5-5.7,2.8-8c0.2-0.4,0.5-0.9,1-0.6c0.4,0.2,0.2,0.6,0.1,1c-0.4,1.7-0.8,3.4-1.1,5.1
		c-0.6-0.7-0.9-0.2-1.1,0.3c-1.2,3.9-2.4,7.7-3.6,11.6c1.2-1.1,1.6-2.5,2.7-3.6c0.7,1.7-0.2,3.4-0.4,5.1c1,0,0.8-1.6,1.6-1.1
		c0.6,0.3,0.2,1.3,0.1,2c-0.8,4.3-1.7,8.6-2.6,12.8c-0.2,0.9-0.5,1.7,0.2,2.5c-0.5,1.7-1.1,3.3-1.3,5c-0.5,4.6-1.5,9.4,3,12.9
		c1.5,2.9,3.9,4.4,7.1,4.8c2.1,0.2,2.5-0.5,2.1-2.5c-0.1-0.6-0.2-1.4,0.6-2c0.4,0.8,0.7,1.6,1.1,2.5c0.3-1.8,1.5-2.8,1.3-4.5
		c-0.2-1.6,1,2.2,1-0.1c0-2.1,1.5-3.5,2.3-5.2c0.9-1.9,2.3-3.8,4.9-3.9c2.5-0.1,2.6,2.2,3.6,4c0.4-3.6,0.7-6.8,1.1-10
		c0.7-5.9,0.8-11.9,0.7-17.7c-0.1-7.1,0.2-14.5-1.7-21.6C472.3,466.9,472.6,467,472.9,467.1z M76.9,483c-2.2,5.1-1.1,16.3,1.1,19.3
		c0.5-0.6-0.7-1.6,0.3-2.1c0.8-0.4,0.9-0.3,0.9-0.9c0-0.5-0.2-1.1,0.2-1.5c0.1,0.1,0.2,0.3,0.2,0.4c0.3,0.8-0.5,2.3,0.7,2.4
		c0.8,0.1,0.9-1.3,1.2-2.1c0.6-1.7,1.6-3.1,3.5-3.7c1.9-0.6,3.2,0.5,4.5,1.8c0.4-2.6,0.8-4.8,1.2-7.6c0.7,1.4-0.1,2.4,0.5,3.3
		c0.9-1.2,0.4-2.8,1.2-4.1c0.6,0.9-0.3,1.8,0.7,2.8c0.1-4.1,2.9-7.1,1.6-11.7c-1.4-4.9,1.5-9.8,4.7-14c0.2,1.7-0.3,3.3-0.9,4.8
		c-0.1,0.3-0.9,0.9,0.1,1.1c1,0.2,1.2,0.4,0.8,1.2c-1.5,2.7-1.1,5.7-1.8,8.5c-1.6,6.6-2.4,13.3-3.4,20c-0.9,6,0.4,10.2,4,14
		c0.2-3.9-1.5-7.6-0.5-11.4c0.3,1.8-0.2,4,0.7,5.3c1.6,2.4,0.3,4.9,1.2,7.1c0.2,0.4,0.2,1.1,0.4,1.2c2.1,0.5,1.9,2.5,1.8,3.7
		c-0.4,3.3,1.5,4.5,4.1,5.5c1.5,0.5,3,1.1,4.4,1.6c0.3,0.1,0.9,0.6,1.1,0c0.3-0.9-0.4-1.7-0.6-2.5c-0.1-0.3-0.2-0.7-0.7-0.6
		c-0.7,0.1-0.6,0-0.8-0.1c-1.1-0.9-0.8-3.2-3.3-3c-1,0.1-2.9-0.4-3.3-1.9c-1.2-4.1-1.9-8.3-1-13.2c0.4,2.2,0.7,3.7,1,5.4
		c0.9-0.6-0.3-2.1,1.4-2.2c2.1-0.1,1.9,1.5,2.5,3.1c0.2-0.9,0.3-1.2,0.3-1.5c-0.1-0.9,0.6-1.2,1.2-1.6c0.2,0.5,0.5,1.1,0.6,1.6
		c0.2,1.4,0.3,2.8,0.5,4.4c0.7-2.2-0.1-4.6,2.6-5.7c1.5-0.6,2.6-0.8,3.8,0c0.9,0.6,1.9,2.4,2.5,1.9c0.8-0.8,0.6-2.4,0.8-3.7
		c0.1-0.6,0-1.2,0-1.8c-0.2-9.5-0.2-19,1.3-28.4c0.2-1.5,0.3-1.4-0.8-2.2c-0.2-0.1-0.3-0.6-0.2-0.9c0.4-2.1,0.7-4.3,1.1-6.4
		c0.5-2.7,2.5-5.1,4.7-7c-4.7,17.7-5.1,35.6-2.5,53.7c1.1-0.4,1-1.1,1.3-1.4c0.3-0.3-0.1-0.9,0.8-0.9c2.4-0.2,2.4-0.3,2.6-2.1
		c0.3,2.8,0.7,4.3,2.4,5.6c1.2,0.9,2.5,1.4,2.5,3.1c1.8-0.1,1.4,1.6,1.9,2.5c0.8,1.2,2.3,1.6,3.5,0.8c0.1,0.1,0.2,0.2,0.2,0.3
		c0.1,0.8,0.9,1.2,1.3,0.9c2.1-1.3,4.9-1,6.7-3.1c1.6-1.8,3.2-3.7,4.5-5.8c1.6-2.6,2.7-5.6,4.9-7.7c1.3-1.3,1.5-2.6,0.6-4.2
		c-1.6-2.8-2.3-6.1-3.4-9.1c-0.3-0.7-0.5-1.9,0.2-2.2c0.9-0.4,1,0.9,1.4,1.4c0.4,0.6,0.4,1.5,1.4,1.8c0.5-1.8,0.5-3.7,2.3-4.9
		c2.4-1.6,5.4-0.5,6.9,2.9c1.7,3.9,2.1,8.1,2.4,12.3c0.1,0.7-0.4,1.8,0.4,2.2c0.7,0.3,1.7-0.2,2.4-0.8c3.6-2.6,5.4-6,5.9-10.4
		c1.2-10.6-2.7-20.2-6.1-29.8c-1.9-5.2-6.4-8.8-12.5-8.5c-6,0.4-11.2-1.1-16.1-4.5c-4.3-3-8.7-2.6-13,0.2c-1.2,0.8-2.3,1-3.7,0.5
		c-2.4-0.8-4.9-1.4-7.3-2c-3.4-0.9-6.4-0.4-9.1,2.1c-1.4,1.3-2.8,2.5-4.1,3.7c-0.9,0.9-1.6,1.1-3,0.5c-5.9-2.8-10.4-1.4-14.6,3.6
		c-1.6,2-1.8,4.4-3.2,6.4c-2.3,3.5-4.2,7.3-5.5,11.3C77.2,481.3,77,482.1,76.9,483z M206.3,460.2c-0.4-2.3-0.7-4.3-1.1-6.2
		c-0.7-3.1-0.6-6.5-3.4-8.8c-0.4-0.4-0.6-1.1-0.2-1.5c1.9-2.2,0.7-4.5,0.5-6.8c-0.1-0.9-0.1-2.1,1-2.1c1.8,0,1.3-0.8,1-1.7
		c-0.4-1.1-0.7-2.2-1.1-3.2c-4.6-10.9-8.4-21.8-9.2-33.9c-0.5-8-0.4-15.7,1.3-23.5c0.2-1.1,0.8-2.2,0.6-3.8
		c-0.4,0.8-0.6,1.2-0.7,1.6c-3.6,11.8-4.2,23.8-2,35.9c1.3,7.3,4.3,14.1,6.9,21c0.7,1.9,1.5,3.8,1.5,5.9
		c-2.7-7.7-6.8-14.6-10.8-21.7c-1.3-2.3-2.8-4.4-3.4-7.1c-0.7-2.9-1.3-5.8-2.3-8.6c-1-2.8-0.2-5.7-0.9-8.6c-0.7-2.8-0.8-6.6,0.4-9.2
		c1.9-4.1,0.1-8.6,2.2-12.6c0.6-1.1,0.4-2.7,1.6-3.7c0.8-0.7,0.7-1.7,0.6-2.7c-0.1-1,0-1.9,0.4-2.8c4.4-10.9,11.3-19.8,20.9-26.4
		c1.6-1.1,3.2-2.3,5.3-3.7c-3,0.1-5.4,0.1-7.6,1c-6.3,2.7-11.8,6.7-15.9,12.2c-4.3,5.7-6.9,12.2-9.1,19.1
		c-2.9,9.2-5.2,18.3-6.1,27.9c-1.2,12.8,1.4,24.6,9,34.9c5.4,7.4,9.6,15.3,13.2,23.6c2.8,6.5,4.4,13.1,4.3,20.2
		c0,4.6-0.2,9.1-0.8,13.7c2.1-7.2,3.8-14.4,1.8-22.3C205.4,457.5,204.8,459,206.3,460.2z M269.6,548.7c-0.5-1.5-0.6-1.5-1.6-1.4
		c-0.5,0.1-0.4-0.3-0.4-0.4c0-1.8-1.8-2.4-2.4-3.9c-1.2-2.9-5-3.8-5.5-7.3c0-0.2-0.6-0.6-0.9-0.5c-2.1,0.2-2-1.5-2.4-2.8
		c-0.1-0.4,0.1-0.9,0-1.3c-0.3-1.3-1.7-1.7-2.4-1.5c-1.2,0.4,0,1.3,0.2,1.9c0.7,2,1.5,3.9,2.2,5.9c2.3,6.7,6.1,12.3,11.7,16.5
		c12.9,9.6,27.2,11.5,42.4,6.9c9-2.7,16.2-7.7,20.5-16.5c2.3-4.8,3.8-10,6.2-14.8c0.5-1,0.1-1.3-0.8-1.1c-1.9,0.5-3.8,0.6-5.7,0.6
		c-1.5,0-2,0.7-2.7,1.9c-3.3,6.5-6.7,13-13.4,16.8c-7.5,4.2-15.6,4.4-23.8,3.6c-3.3-0.3-6.5-1.4-9.7-2.4c-1.3-0.4-2.2,0.1-3,1
		c-0.6,0.7-0.6,1.3-0.1,2.1c0.8,1.1,1,3.2,0.3,3.3c-1.3,0.2-1.8-1.5-2.2-2.7c-0.1-0.4-0.1-0.9-0.2-1.3c-0.1-0.3-0.1-0.9-0.5-0.8
		c-2.1,0.8-1.2-1-1.3-1.7c-0.4-1.2,0.2-2.6-0.6-3.8c-0.5-0.7-0.8-1.7-1.9-1.6c-1.1,0.1-1.2,1.1-1.3,2
		C270,546.6,269.8,547.6,269.6,548.7z M296.9,533.1c-0.8-4.3-1.6-5.5-4.1-5.1c-3.5,0.6-6.8-0.6-10.3-0.6c-2.9,0-5.8,0.4-8.7,0.1
		c-1.1-0.1-2,0.3-1.4,1.7c3,7.2,7,13.6,14.9,16.1c8.7,2.7,17.2,1.8,25.3-2.4c4.7-2.5,7.9-6.4,9-11.7c0.6-3,0.1-3.5-3-3.5
		c-4.1,0-8.3-0.2-12.4-0.1C300.7,527.6,298.1,527.4,296.9,533.1z M197.1,484.9C197.1,485,197.1,485,197.1,484.9
		c-5.5,0.1-11,0.1-16.6,0.1c-3.8,0-3.8,0-3.3,3.9c0.1,0.9,0.3,1.7,0.2,2.6c-0.1,2.3,1.1,2.9,3.2,2.9c9.8-0.2,19.6-0.1,29.5-0.2
		c6.1-0.1,6.1-0.1,7.1-6.2c0.5-2.8,0.4-2.9-2.6-3C208.9,484.9,203,484.9,197.1,484.9z M395.5,494.4c0,0,0-0.1,0-0.1
		c2.3,0,4.6,0,6.8,0c2.4,0,4.7-0.1,7.1-0.1c6.5,0,6.4,0,6.6-6.5c0.1-1.9-0.7-2.4-2.4-2.5c-11.3-0.5-22.6-0.3-33.9-0.5
		c-2,0-2.5,0.5-2.3,2.5c0.2,1.7,0,3.5-0.4,5.2c-0.4,1.7,0,2.1,1.7,2.1C384.3,494.4,389.9,494.4,395.5,494.4z M281.6,454.9
		c2.6-0.2,5.2-0.5,7.9-0.6c8.5-0.2,16.8,0.6,24.8,3.7c3.1,1.2,6.3,2.2,9.7,2.4c4,0.3,7.1-3.6,6-7.5c-1.7-5.8-10.8-9-15.7-5.3
		c-1.8,1.4-3.6,1.9-5.8,1.7c-7.1-0.5-14.2-0.6-21.2,1.1c-1.5,0.4-2.9,0.7-4.2,1.7c2.8,0,5.5-0.5,8.3,0.1
		C288,453.2,284.6,453.1,281.6,454.9z M259.1,387c-4.3,6.4-10.4,9.2-17.7,7.7c-8.2-1.7-11.3-8.1-12-16c-3,3.1-4,6.3-1.1,9.8
		c0.4,0.5,0.7,1.2,1,1.9c4.9,9.6,12.4,12.6,22.5,8.9c2.6-1,5.1-2.4,8-2.4c1.1,0,0.8-0.6,0.6-1.2C259.2,392.9,259.1,390,259.1,387z
		 M380.9,440.7c-0.2,0-0.3,0-0.5,0c-0.2,0.6-0.5,1.3-0.7,1.9c-2.5,9.7-4.1,19.8-9.7,28.4c-0.4,0.6-0.4,1.1,0,1.7
		c2.1,2.7,3.6,5.8,5.2,8.8c1,1.9,3.2,1.1,4.8,0.8c1.6-0.3,0.6-1.7,0.5-2.6c-1.2-8.6-1.5-17.3-0.8-26
		C380.1,449.4,380.5,445.1,380.9,440.7z M161.3,413.1c0.3-1.9,0.6-3.8,0.8-5.7c1.1-10.6,4-20.8,7.4-30.9c0.6-1.7,1.5-3.2,2.2-4.8
		c0.5-1.3,1-2.6,1.3-4c0.4-1.3,0.6-2.7,0.9-4.6c-3.8,6.5-6.2,13.1-10.5,18.7c-6.5,8.4-12,17.5-18.9,25.6c-0.6,0.7-1.8,1.9-1.1,2.3
		c1.1,0.7,1.6-0.9,2.1-1.7c2.2-3.5,4.6-6.9,7.9-9.5c1.5-1.2,3-2.4,3.7-4.2c0-0.1,0.3,0,0.5,0c-0.1,0.7-0.2,1.3-0.3,2
		c1.3-2.2,3.2-3.6,5.2-5.6c-0.7,4-1.9,7.5-1.9,11.6c0.9-0.9,0.4-2.1,1.3-2.7c-0.2,2.4,0.1,4.8-0.6,6.9
		C160.4,408.7,161.1,410.9,161.3,413.1z M425.3,436.5c0.6-5.6-0.5-11.2-0.6-16.9c0.8,0.8,0.7,1.6,0.8,2.3c0.4,3.8,0.8,7.7,1.3,11.5
		c0.2,1.4-0.3,3.5,2.4,2.9c0.8-0.2,0.6,0.9,0.6,1.4c0.1,1.6,0,3.2,0,4.7c0.2,0,0.5,0,0.7,0c0.7-3.6,0.7-7.2,0.3-10.9
		c-0.4-4.4-2.3-8.4-3.3-12.7c-1.5-6.3-4-12.2-7.5-17.6c-0.3-0.4-0.5-1.1-1.8-1.1C424.3,411.8,423.2,424.5,425.3,436.5z M273.4,376.8
		c0.1,0.9,0.1,1.3,0.2,1.7c0.1,1.4-0.8,3.8,0.8,3.8c1.6,0.1,1.3-2.5,1.5-3.9c0-0.2,0-0.4,0-0.5c0.5-7.6-1.9-14.5-5-21.2
		c-1.4-3.1-3-6.1-4.5-9.2c-0.3-0.6-0.7-1.4-1.6-1c-0.6,0.2-0.4,0.9-0.2,1.4c1.4,3.4,2.6,6.8,4.2,10.1c1.8,3.7,2.3,7.8,3.9,11.5
		C273.6,371.7,273.9,374.5,273.4,376.8z M87.4,502.1c0.1-1,0.1-1.6,0.2-2.1c0.1-1.4,0.2-3.2-1.5-3.5c-1.9-0.3-2.3,1.5-2.7,2.9
		c-0.1,0.3-0.2,0.7-0.2,1c-0.4,5.6-1,11.2,0.2,16.7c0.2,0.8,0.1,2.2,1,2.2c1,0.1,1-1.3,1.2-2.1C86.7,512.2,88,507,87.4,502.1z
		 M161.1,510.5c-0.3-1.8-0.7-3.5-1-5.3c-0.1-0.5-0.2-1.3-0.8-1.1c-0.9,0.2-0.4,1-0.3,1.5c0.4,1.4,0.8,2.9,1.2,4.3
		c0.8,2.4,1.5,4.8,2.3,7.3c0.1,0.4,0.5,1,0.7,1c0.7,0,0.6-0.7,0.7-1.2c0.1-0.4,0.2-0.9,0.2-1.3c0.4-6.1,0-12.1-0.6-18.1
		c-0.2-2-0.6-4-2-5.6c-0.5-0.6-1.2-1.1-2.1-0.7c-0.8,0.4-0.6,1.1-0.5,1.8c0.2,1,0.4,2.1,0.6,3.1
		C160.5,500.9,161.4,505.6,161.1,510.5z M111.8,518.8c0.1-1.1,0.1-2.3,0.2-3.4c0-0.5,0.3-1.1,0.9-1.1c0.6,0,0.5,0.6,0.5,1
		c0.2,1.2,0.4,2.4,0.5,3.6c0.2,4.4,1.4,8.6,2.4,12.8c0.2,0.9,0.6,2.1,1.8,1.9c0.9-0.2,0.6-1.3,0.6-2.1c0.1-4.4,0.1-8.8-0.6-13.1
		c-0.3-2.3-1-4.5-2.7-6.1c-1.6-1.6-2.7-1.4-3.5,0.8C111.3,515,111.6,516.9,111.8,518.8z M427.8,510.2c-0.8,2.1-0.5,4.3-0.1,6.4
		c0.2,0.8-0.2,2.2,0.7,2.3c1,0.2,1.4-1.2,1.7-2c2.5-5.5,4.4-11.2,5.9-17.1c0.3-1.1,0.2-2.3,0.2-3.4c-0.1-1.5-0.4-3.1-2.2-3
		c-1.5,0-1.2,1.7-1.4,2.7c-0.9,4.7-1.7,9.5-2.5,14.2c-0.4,1.9-0.9,3.8-1.3,5.7c-0.2,0-0.3,0-0.5-0.1
		C428.2,514,428,512.1,427.8,510.2z M339.7,382.4c-0.2,1.2-0.4,1.5-0.4,1.8c0,0.5,0.1,1.1,0.2,1.6c1.4,4.2,4.2,7.1,8.6,8.1
		c4.1,0.9,7.7,0.1,9.8-4c0.2-0.4,0.9-0.8,0.5-1.3c-0.4-0.5-0.9,0.1-1.4,0.4c-4.6,2.5-9.2,2-13.1-1.5
		C342.5,386.1,340.9,384.8,339.7,382.4z M233.5,379.5c-1.5,1.3-1.5,2.8-1.1,4.3c0.8,2.9,2.4,5.3,4.8,7c3.1,2.2,9,2.3,12,0.3
		c0.3-0.2,0.9-0.4,0.7-0.9c-0.2-0.5-0.7-0.4-1.1-0.3c-0.4,0-0.9,0.1-1.3,0.2C240.3,390.7,234.8,384.8,233.5,379.5z M479.4,518.8
		c-0.3,4-0.9,8-1.8,11.9c-0.1,0.2-0.2,0.6-0.4,0.7c-0.8,0.5-0.8,0.5-0.8,0.9c0,0.2,0,0.4,0.1,0.5c0.3,0.8,0,2,1,2.2
		c0.8,0.1,1.2-0.9,1.6-1.6c1.4-2.5,2.3-5.1,3-7.8c0.6-2.3,1.4-4.7,0.8-7.2c-0.3-1.3-0.3-3.4-2-3.2
		C478.7,515.3,479.4,517.4,479.4,518.8z M128.9,524.4c-0.1-2.2,0.2-4.4-0.8-6.5c-0.5-0.9-1-2-2.3-1.8c-1,0.2-1.5,1.3-1.5,2.3
		c-0.2,4.8,0.6,9.4,2.6,13.8c0.2,0.4,0.3,0.9,0.9,0.8c0.5-0.1,0.5-0.6,0.6-1.1C128.5,529.5,128.7,527,128.9,524.4z M500,511.7
		c-0.2,0-0.4,0-0.6,0c0,3.8,0,7.7,0,11.5c0,0.7-0.4,1.9,0.6,2c0.8,0.1,1.2-1,1.5-1.7c1.7-4,2.9-8.1,3.4-12.4c0.3-2.5,0.9-5,0.1-7.5
		c-0.3-0.8-0.6-1.8-1.8-1.5c-1,0.2-1.3,1.1-1.2,2.1c0.1,1.4,0.2,2.8,0.4,4.2c0.7,4.9-1.2,9.4-1.7,14.1c-0.2,0-0.4,0-0.6-0.1
		C500,518.8,500,515.2,500,511.7z M198.6,330.7c-10.1,5.8-18.4,13.2-21.8,24.9c0.6-3.9,4.7-4.8,6.6-7.7
		C187.7,341.4,191.9,334.9,198.6,330.7z M432.9,429.7c-0.5-1.5-0.9-3-1.4-4.5c-0.2-0.6-0.2-1.7-1.1-1.5c-0.6,0.1-0.3,1.1-0.2,1.7
		c1.1,5.5,2.4,11,2.4,16.7c0,0.4,0,1,0.6,1c0.5,0,0.6-0.6,0.6-1.1c0.2-1.7,0.3-3.4,0.5-5.7c0.6,1.6,0.5,2.8,1.7,4.2
		c0.2-6.9-2.1-12.6-4-18.4C432.2,424.6,433.3,427,432.9,429.7z M398.9,414.3c-3.1,10.1-5.3,20.3-5.8,30.8
		C397.1,435.2,397.2,424.6,398.9,414.3z M329.2,350.7c2.2-2.4,4.5-4.8,7.5-6.4c1.1-0.6,2.2-1.6,3.4-0.1c0.5,0.6,1,0.2,1.3-0.2
		c1.6-2.1,3.7-3.4,6.1-4.4c0.4-0.2,0.9-0.4,0.7-0.9c-0.2-0.5-0.7-0.4-1.2-0.3C339.2,339.8,333.2,343.8,329.2,350.7z M251.2,376.2
		c2,0,3.7-1.5,3.6-3.3c0-1.8-1.6-3.4-3.5-3.5c-1.9-0.1-3.7,1.5-3.8,3.2C247.3,374.3,249.2,376.2,251.2,376.2z M356.4,377.9
		c1.9,0,3.4-1.2,3.4-2.9c0-1.7-1.8-3.4-3.7-3.4c-1.8,0-3.3,1.3-3.3,3C352.9,376.3,354.5,377.8,356.4,377.9z M246.3,341.7
		c-8.2,1.4-14.4,5.6-18.2,13c2.8-2.4,5.4-5,8.4-7.3C239.5,345,243.1,343.6,246.3,341.7z M311.6,480c1.5,1.4,2.6,2,4,1.8
		c1.3-0.2,2.6-0.2,3.9-0.5c3.4-0.9,6.9-1.5,9.3-4.4c0.2-0.3,0.6-0.5,0.4-0.9c-0.1-0.1-0.7,0-0.9,0.2
		C323.2,478.9,317.8,479.9,311.6,480z M253,337.2c0.5-0.3,1.5-0.4,2.6-0.2c0.9,0.1,1-0.5,0.6-1.2c-0.8-1.4-6.1-2.9-7.6-2.2
		c-0.6,0.3-1.5,0.9-0.7,1.5C249.3,336,250.6,337.3,253,337.2z M292.5,549.1c4.9,1.3,9.7,1.2,14.4-0.7
		C302.1,548.4,297.3,548.9,292.5,549.1z M285.1,345.3c-0.1,8,0.8,16-0.4,24C286.5,361.3,286.3,353.3,285.1,345.3z M226,387.6
		c1.1,3.9,3,7.4,5.5,10.5c0.4,0.4,0.8,1.2,1.4,0.7c0.7-0.6-0.1-1.1-0.5-1.4c-1.2-1.1-2-2.4-2.8-3.8
		C228.5,391.6,227.8,389.3,226,387.6z M393.7,356c0.9,3.2,2.3,6.2,4.1,9c0.2,0.3,0.6,0.6,0.8,0.6c0.6-0.2,0.3-0.7,0.2-1.1
		C397.6,361.4,395.9,358.6,393.7,356z M308.3,475c0.2-2.7-0.1-5.5,1.9-7.8c2-2.3,4.9-2.1,7.9-2.9C309.9,464.3,305.8,469,308.3,475z
		 M256.5,379.8c-0.2-1.1-0.8-1.9-2.1-1.9c-1.4,0-2.5,0.7-2.5,2.1c-0.1,1.4,1,2,2.3,1.9C255.5,382,256.2,381.2,256.5,379.8z
		 M256.3,368.9c-0.7-3.1-2.2-5.4-5.2-6.5c-0.4-0.1-0.9-0.4-1.2,0.1c-0.2,0.3,0.2,0.6,0.4,0.8C252.4,365.2,254.4,367.1,256.3,368.9z
		 M283.5,326.8c1.9,4.9,3.4,9.9,5.4,14.7C287.8,336.4,287.1,331.1,283.5,326.8z M335.5,385.1c-0.4,4.3-1.6,8.6-2.4,12.9
		C335.6,394,335.4,389.6,335.5,385.1z M362.5,381c-0.1-1-0.4-1.8-1.6-1.6c-1.3,0.3-2.8,0.5-2.8,2.2c0,1.1,0.9,2,2.2,1.8
		C361.7,383.3,362.5,382.4,362.5,381z M222.3,409.6c-0.3,0-0.5,0.1-0.5,0.4c-0.1,0.7,1.8,3.8,2.6,4.1c0.5,0.1,0.9,0,1-0.5
		C225.5,412.5,223.2,409.5,222.3,409.6z M322.9,370.9c-2.4,3.6-4,7.6-4.4,12C319.9,378.9,321.6,375,322.9,370.9z"/>
	<path d="M371.9,415.5c-0.2,1.7-1.6,2.1-2.1,3.5c1.9-0.8,3.1-2.2,4.3-3.5c0.3-0.4,0.7-0.9,1.3-0.7c0.6,0.3,0.3,0.9,0.3,1.4
		c-0.6,4.1-2.5,7.5-6,9.8c-3,2-7.7,1.7-10.5-0.8c-0.7-0.6-1.4-1.7-1.3-2.4c0.1-0.6,1.5-0.5,2.4-0.6c3.6-0.5,6.4-2.6,9.2-4.7
		C370.1,416.9,370.8,416.3,371.9,415.5z"/>
	<path d="M399,354.4c11,21.4,9.4,43.5,2.8,65.7C407.4,398,407.3,376,399,354.4z"/>
	<path d="M300.7,306.7c-1.1-1.2-1.7-0.7-2,0.8c-0.1,0.5-0.8,0.5-1.4,0.6c-2.1,0.2-4.6-1.1-5.4-3c-0.9-2.1,0.5-3.4,1.9-4.7
		c2.3-2.1,8-0.8,9.2,2.1C303.6,303.9,302,306.8,300.7,306.7z"/>
	<path d="M311.2,307.4c-3.4,1.4-3.6-1.8-4.7-3.9c-0.2-0.5-0.4-1-0.2-1.5c0.3-0.8,5-3.7,5.9-3.6c1.9,0.2,4.7,2.8,5,4.6
		c0.1,0.3,0,0.7-0.1,1C316.6,305.6,313.3,307.6,311.2,307.4z"/>
	<path d="M299.9,404.7c-1.4,0.4-2.1,0-2.6-0.8c-0.5-0.9-0.7-1.9,0-3c1.9-2.8,7.7-3.4,10.1-0.9c1.2,1.2,1.6,2.6,0.7,4.1
		c-0.9,1.4-2.2,1.1-3.5,0.3c-0.2-0.1-0.6-0.4-0.6-0.3C302.8,405.9,301.1,405,299.9,404.7z"/>
	<path d="M331.5,426.6c-2.3,0-4.6-1.9-4.8-3.8c-0.1-0.8,0-1.5,0.6-2.2c1.2-1.4,2.7-1.3,4-0.4c1.6,1.1,4.2,1.6,3.9,4.3
		C334.9,426.9,332.5,425.8,331.5,426.6z"/>
	<path d="M319.7,332.1c-2.2-0.1-4.1-1.6-4-3.4c0-1.8,2.8-3.8,5.2-3.5c1.6,0.2,2.9,0.9,2.8,2.8C323.5,330.6,321.9,332.2,319.7,332.1z
		"/>
	<path d="M302,381.9c1.3,0.1,2.7,0.2,2.6,2.2c-0.1,2.8-1.9,5.3-3.8,5.3c-1.7,0-3.7-2.4-3.5-4.3C297.4,383.4,299.6,381.9,302,381.9z"
		/>
	<path d="M272.5,423.2c0.6,0,1.2,0,1.8,0c0.6,0,1.2,0.1,1.5,0.8c0.2,0.7,0.2,1.4-0.4,1.9c-1.1,0.9-2.1,1.8-3.3,2.6
		c-1.2,0.8-2.4,1.6-3.8,0.4c-0.9-0.8-1.7-1.6-1.2-2.9c0.6-1.6,1.7-2.7,3.4-2.9C271.1,423,271.8,423.2,272.5,423.2
		C272.5,423.2,272.5,423.2,272.5,423.2z"/>
	<path d="M314.2,419.8c-1-0.1-1.8-0.2-2.6,0.2c-1.4,0.7-2.5-0.1-3.5-1.1c-1.2-1.3-1.1-2.3,0.6-3c1.8-0.7,3.6-1,5.4-0.6
		c1.8,0.3,3.5,1.1,3.2,3.1C317.2,420.1,315.2,419.6,314.2,419.8z"/>
	<path d="M380.3,417.1c-0.2,4.4-1.2,8.5-3.2,12.4c-0.8,1.6-2.1,2.8-3.7,3.6c-0.3,0.2-0.7,0.3-0.9-0.1c-0.1-0.2,0-0.5,0.1-0.7
		c3.6-3.8,4.1-8.7,5.2-13.5c0.2-0.7,0.2-1.4,0.5-2c0.4-1,0.2-2.8,1.6-2.6C380.7,414.4,380.1,416.2,380.3,417.1z"/>
	<path d="M285.5,393.4c1.2,0.4,2.7,0.4,3.1,1.8c0.4,1.4-0.7,2-1.9,2.3c-0.7,0.2-0.9,0.8-1.3,1.2c-1,1.1-2.3,2.6-3.7,1.2
		c-1.2-1.2-1-3.2,0-4.6C282.6,394.1,284.1,393.7,285.5,393.4z"/>
	<path d="M291.5,408.9c-0.8,1.9-2.3,2.9-4.1,3.6c-1.4,0.6-2.6,0-3.6-0.9c-0.6-0.5-0.6-1.3-0.3-2c0.4-1.4,1.4-2.2,2.8-2.4
		c1.5-0.2,3.1-0.9,4.4,0.6C291.1,408.2,291.3,408.6,291.5,408.9z"/>
	<path d="M301.8,351.2c0-1.9,1.8-3.4,3.9-3.4c2,0,2.8,1.2,2.8,3c0,1.8-2,3.4-4,3.3C302.9,354.1,301.7,352.8,301.8,351.2z"/>
	<path d="M318.1,319.5c-1.4-0.1-2.9-0.8-2.8-2.6c0.2-1.9,1.7-2.8,3.6-2.8c1.5,0,2.7,0.6,2.8,2.5
		C321.7,318.2,320.2,319.5,318.1,319.5z"/>
	<path d="M281.3,415.8c0.9,0.2,2-0.7,2.3,0.6c0.2,1,0,2.1-1.1,2.7c-0.5,0.3-1,0.7-1.5,1c-0.9,0.5-1.6,1.5-2.8,0.7
		c-1-0.7-1.2-1.8-0.9-2.8c0.4-1.2,1.1-2.2,2.6-2.2C280.3,415.8,280.8,415.8,281.3,415.8z"/>
	<path d="M348.6,465.5c2,0,3.3,1.2,3.2,2.6c-0.1,1.6-1.9,2.6-3.5,2.6c-1.4,0-2.8-0.6-2.7-2.5C345.6,466.1,347,465.6,348.6,465.5z"/>
	<path d="M366,441.3c-0.4-0.1-1.2-0.3-1.8-0.7c-0.9-0.5-2-1.1-1.7-2.3c0.3-1.3,1.5-0.8,2.4-0.9c0.7,0,1.5-0.2,2.1,0
		c0.8,0.4,2.4-1.6,2.5,0.7C369.4,440.2,368.2,441.4,366,441.3z"/>
	<path d="M305.7,425c-1.5-0.1-3.1,0.1-3-1.8c0.1-1.5,1.5-2.1,2.9-2c1.4,0.1,3.1,0.8,3.1,2.3C308.5,425.4,306.7,424.9,305.7,425z"/>
	<path d="M369.9,476.3c0.5,0.5,0.9,1,1.4,1.5c0.5,2.6,2.1,4.8,2.3,7.4c0.3,3.2-0.7,5.9-2.5,8.5C374,487.6,372.1,481.9,369.9,476.3z"
		/>
	<path d="M301.3,414.8c1,0,2.1,0.2,2.1,1.4c0,1.5-1.5,1.5-2.5,1.7c-1,0.2-1.8-0.4-1.7-1.4C299.2,415.1,300.2,414.8,301.3,414.8z"/>
	<path d="M299.3,424.6c-0.4,1.3-1.4,1.8-2.7,1.9c-0.9,0.1-1.7-0.2-1.6-1.2c0.1-1.5,1.5-1.8,2.7-2
		C298.5,423.1,299.2,423.4,299.3,424.6z"/>
	<path d="M77.3,480.4c1.4-1.6,2.1-3.9,4.6-4.6c1.4-0.4,1.6-2.1,1.9-3.5c0.7-3.4,2.1-6.5,4.7-8.9c1.8-1.6,3.2-1.1,3.7,1.2
		c0.3,1.3,0.4,3.2,1.4,3.5c1.3,0.4,1.7-1.6,2.6-2.6c0.3-0.4,0.4-1,1.1-1c0.6,1-0.1,1.7-0.5,2.4c-1,1.7-2,3.5-2.8,5.3
		c-1,2.3-4.7,4-7,3.5c-2.4-0.5-3.6,0.1-3.2,2.4c0.7,4-3.1,5.2-4.4,7.8c-0.3,0.5-1.3,0.5-1.4,0.2c-0.5-1-1.8-1.7-1.2-3.1
		C77,482.1,77.2,481.3,77.3,480.4z"/>
	<path d="M446.2,505c1.2-1.5,1.1-3.6,2.4-5.6c0.6,2-0.2,3.4-0.5,4.8c-0.4,1.6-0.4,3.1-0.2,5c1-1.5,0.4-3.3,1.8-4.7
		c0,0.6,0.1,0.9,0,1.2c-1.2,4-0.5,8.1-0.8,12.2c-0.1,1.8-0.2,3.5-1,5.1c-4.5-3.5-3.5-8.3-3-12.9C445.1,508.4,445.8,506.7,446.2,505z
		"/>
	<path d="M468.4,459.5c2.5,1.6,3.5,4.3,5,6.7c0.3,0.5,0.1,0.8-0.5,0.9c-0.3-0.1-0.6-0.2-0.9-0.3c-2.5-2.1-4.5-4.5-4.6-7.9
		C467.7,459.1,468.1,459.3,468.4,459.5z"/>
	<path d="M138.4,477.5c0.1,0.5,0.2,1.1-0.4,1.4c-0.6,0.3-1,0-1.3-0.5c-1.1-1.5-2-1.4-2.9,0.1c-0.6,1-1.5,1.8-2.8,1.8
		c-1.5,0-1.4-1.3-1.7-2.2c-0.2-0.5-0.5-0.7-1-0.6c-2.2,0.4-2-1-1.9-2.4c0.1-1.3,1.3-3-1.2-3.4c-0.2,0-0.4-0.6-0.4-0.9
		c-0.5-2.7,3.2-8.4,5.9-9.2c0.8-0.2,1.7-0.7,2.4,0.2c0.7,0.8,0.1,1.7-0.3,2.5c-0.9,1.9-1.6,3.9-1.5,6.1c0,0.4-0.1,1,0.4,1.1
		c0.2,0,0.6-0.3,0.9-0.4c0.1-0.1,0.2-0.3,0.4-0.4c1.3-0.7,2.3-3.4,2.9-2.8c1.2,1.2,1.7,3.3,2.1,5.1
		C138.4,474.4,138.3,476,138.4,477.5z"/>
	<path d="M124.4,490.1c0.1,2.6,1.6,4.6,2.7,6.7c0.6,1.1,0.8,2.3,1,3.5c0.5,4.4,0.5,4.4-3.5,6c-0.9,0.4-0.9,0.4-1.2-0.8
		C121.5,498.4,121.7,494.4,124.4,490.1z"/>
	<path d="M111.8,464.1c0.2,2.4-1.7,3.1-3.2,4.1c-1.3,0.8-2.8,2.6-4.2,1.6c-1.5-1.1-0.5-3.1-0.1-4.7c0.4-1.9,1.4-3.5,2.7-5
		c0.7-0.8,1.5-1.4,2.7-0.9c1.1,0.4,1.5,1.1,1.6,2.1C111.4,462.2,111.6,463.1,111.8,464.1z"/>
	<path d="M136.6,490c-0.2,2.2-1.6,3.9-2.7,5.6c-0.4,0.6-1.4,0.6-1.6,0.2c-0.9-1.7-2.8-3-2.1-5.3c0.7-2.2,2.9-2.9,4.7-3.3
		C136.4,486.8,136.4,488.8,136.6,490z"/>
	<path d="M161.6,478.5c0-2.2,2-4.2,3.9-4.1c1.5,0.1,2.2,1.1,2.4,2.3c0.2,1-3.7,3.8-5.2,3.8C161.2,480.5,161.8,479.3,161.6,478.5z"/>
	<path d="M463,478.2c-0.1,1.8-0.8,3.5-1.8,5.1c-0.7,1.1-1.7,2.1-3.2,1.9c-1.5-0.2-2.2-1.4-2.5-2.7c-0.2-1.2-0.3-1.6-1.5-0.7
		c-1.3,0.9-1.5-0.3-1.4-1.2c0.6-3.1,1.9-5.8,3.9-8.2c1.1-1.3,4.6-0.4,5.4,1.2C462.6,475,462.8,476.5,463,478.2z"/>
	<path d="M464.7,496c-0.1,0.5-0.1,1.1-0.2,1.7c-0.2,0.7-0.6,1.3-1.3,1.5c-0.9,0.3-1.2-0.6-1.5-1.1c-0.7-1.1-1.5-2.2-1.2-3.6
		c0.2-1.2,0.5-2.4,2-2.4c1.3,0,2,1,2.2,2.2C464.6,494.8,464.6,495.4,464.7,496z"/>
	<path d="M484.8,482c0-0.8,0-1.6,0-2.4c0.1-1.5,0.1-3.3,1.8-3.7c1.7-0.3,3.5,0.2,4.6,1.9c1.2,1.8,1.7,3.8,2.2,5.9
		c0.8,2.7-1.2,4.1-2.7,5.5c-0.9,0.9-1.4-0.4-1.5-1.1c-0.3-1.6-0.8-2.1-2.4-1.2c-1.5,0.9-2.1-0.1-2.1-1.5
		C484.8,484.2,484.8,483.1,484.8,482C484.8,482,484.8,482,484.8,482z"/>
	<path d="M178,398c0-0.6-0.1-1.3,0.6-1.4c0.5-0.1,0.7,0.5,0.9,0.8c0.5,0.9,1.1,1.6,2.3,1.2c1.7-0.7,1.8,0.6,1.9,1.6
		c0.2,1.8,0.4,3.7,1.4,5.3c0.4,0.6,0.2,1.3-0.1,2c-1.6,3-1.4,3.5,2.1,4.6c0.5,0.2,1,0.4,1.3,0.8c2.6,4.1,5.4,8.2,7.5,12.6
		c0.5,1.1,1.9,2.6,0.4,3.4c-1.2,0.6-1.4-1.4-2-2.2c-0.8-0.9-1.2-2.2-1.9-3.1c-0.4-0.6-1.3-1.5-1.8-1.4c-2.5,0.3-3.3-1.6-4.3-3.1
		c-4-6.1-7.1-12.5-8.1-19.8C178.2,398.8,178.1,398.4,178,398z"/>
	<path d="M178.7,393.9c-1.5-3.3-1.4-6.2-1.1-9.2c0.1-0.9,0.2-2,1.2-2.1c1.1,0,0.6,1.2,0.8,1.9C180.9,387.7,179.9,390.6,178.7,393.9z
		"/>
	<path d="M465.7,516.5c1.1-0.8,2-0.9,2,0.9c0,5.3,0,10.6-0.5,15.9C465.9,527.7,464.9,522.1,465.7,516.5L465.7,516.5z"/>
</g>
</svg>
