<?xml version="1.0" encoding="utf-8"?>
<!-- Generator: Adobe Illustrator 24.2.3, SVG Export Plug-In . SVG Version: 6.00 Build 0)  -->
<svg version="1.1" id="Layer_1" xmlns="http://www.w3.org/2000/svg" xmlns:xlink="http://www.w3.org/1999/xlink" x="0px" y="0px"
	 viewBox="0 0 595.3 841.9" style="enable-background:new 0 0 595.3 841.9; fill: #215342;" xml:space="preserve"
	 height="350" width="400" transform="translate(-55, -30)">
<g>
	<path d="M57.4,229.7c0.2,1.1,0.5,2.2,0.7,3.3c0.9,4.3,3.4,7.5,7.2,9.6c5.7,3.1,10.9-0.2,11-6.9c0.2-9.1,3.1-16.9,9.7-23.3
		c5.4-5.3,11.9-8.2,19.6-7.6c2.4,0.2,3.6-0.5,4.7-2.8c4.3-9,11.5-13.9,21.6-13.5c3.7,0.2,5.6-0.8,7.1-4.5c6.4-16.1,25-22,38.1-14.2
		c0.8,0.5,2.4,0.5,3,0.1c2.7-2.1,5.1-4.8,7.9-6.8c2.7-1.9,5.7-3.4,8.7-5.2c-0.9-2.8-1.8-5.6-2.7-8.5c3.2-0.3,5.9-0.2,8.5-0.8
		c7.1-1.6,12.9-5.4,16.3-12c6.6-12.6,16.5-20.3,30.8-21.8c0.6-0.1,1.2-0.3,1.8-0.6c21-11.5,40.6-7.4,59.1,5.8
		c5.3,3.8,10.6,7.5,17.2,8.4c0.1,0,0.3,0.1,0.4,0.1c5.1,0.8,9.5-0.5,12.7-4.8c3.1-4,0.8-7.5-1.4-10.9c8.2-6.6,20.1-3,24.3,7.1
		c3.1,7.6,1.7,14.7-2.7,21.4c-0.7,1.1-1.5,2.1-2.2,3.1c8.2,4.9,19.6,5.2,38,0.8c-0.3,3.6-0.5,6.9-0.7,9.1c6.6,2.3,12.9,4.6,19.1,6.7
		c0.8,0.3,2,0,2.9-0.4c13.7-5.3,26.7,0.8,31.1,14.8c0.8,2.5,2,3.7,4.6,4.3c7.4,1.6,12.9,6.1,17.6,11.9c0.9,1.2,2.9,2.3,4.3,2.2
		c8.4-0.4,14.2,3.7,19,10.1c0.8,1.1,2.3,2.3,3.5,2.4c17.4,0.4,26.4,15.7,26.9,27.9c0.3,6.8,4.4,9.9,8.2,10.6
		c3.8,0.8,9.8-2.9,11.9-7.2c0.4-0.8,0.8-1.6,1.4-2.7c5.6,2.6,8.8,7,9.7,12.7c1.8,11.3-4.4,17.7-14.3,21.5
		c5.3,3.6,10.5,6.7,15.2,10.4c9.8,7.7,17.2,17.1,19.5,29.8c0.2,0.9,0.6,1.7,1.1,2.4c8.3,10.9,8.7,23.1,6.1,35.8
		c-1.9,9.2-4.9,18.3-13.1,23.9c-4.6,3.2-5.8,6.5-6.1,11.8c-0.8,15.9-11.9,28.7-27.4,32.8c-4.1,1.1-6.9,5-7.2,10.3
		c-1.2,17.5-4.4,34.6-9.8,51.3c-6.6,20.4-15.9,39.5-28.5,57c-0.4,0.6-0.8,1.3-1.2,2.1c1.1,0.7,2,1.4,3,1.9
		c9.7,5.4,15.9,13.6,18.3,24.4c2.3,10.7,2.3,21.6-0.4,32.3c-3.2,12.2-11.4,19.2-23.7,21.7c-1.5,0.3-3.4,1.5-4,2.8
		c-8.9,20.9-33.1,21.8-47.5,9.9c-2.3-1.9-3.7-1.9-6.3-0.4c-10.4,6.1-20.9,4.8-31-0.6c-10.3-5.5-18.9-13.1-25.3-23
		c-1.8-2.8-3.5-3.7-6.9-2.8c-27,6.9-54.4,9.7-82.3,7.8c-18.4-1.2-36.4-4.3-54.1-9.6c-3-0.9-4.5-0.4-6.2,2.3
		c-8.5,13.6-19.8,23.8-35.4,28.5c-7.7,2.3-15.1,1.5-21.8-3.1c-1.9-1.3-2.9-0.6-4.3,0.5c-6.3,4.8-13.3,7.8-21.4,7.8
		c-12.4,0.1-20.6-6.2-26.1-16.8c-0.7-1.4-2.3-3-3.7-3.3c-13.9-2.5-23.5-11.8-24.8-26.3c-0.8-9-0.5-18.4,1-27.3
		c2-12.6,10-21.3,21.9-26.2c1.2-0.5,2.4-1,3.5-1.5c0.1,0,0.2-0.2,0.5-0.6c-2.6-4.2-5.3-8.6-7.9-13c-14.4-24.5-23.2-50.9-27.3-79
		c-0.3-2.2-1.8-4.2-2.8-6.2C72,429.6,67.2,424,59.7,420c-4.8-2.6-7.7-8.7-11.6-13.1c-0.8-0.9-2.2-1.4-3.3-2.1
		c-2.3-1.5-5.3-2.5-6.8-4.6c-4.7-6.1-6.2-13.3-5.4-20.8c0.3-2.6-0.3-4-2.5-5.7c-9.9-7.7-14.9-18.3-16.5-30.5
		c-1.4-10.5,1.3-20.2,6.6-29.3c9.4-16.5,21.1-31,36.6-42.1c0.5-0.4,1-0.8,1.5-1.2c0.1-0.1,0.1-0.5,0.2-1c-9.6-3.1-15.8-9-15.3-19.8
		C43.4,241.5,50.2,232.1,57.4,229.7z M172,409.4c-0.4,0.1-0.8,0.3-1.1,0.4c-6.4-7.7-10.9-16.2-12.4-26.3
		c-1.5-10.2,1.6-19.4,6.7-28.1c-0.3-0.2-0.6-0.3-0.9-0.5c-4,3.7-8,7.4-12,11.1c-0.4-0.1-0.8-0.2-1.2-0.3c0.3-2.8,0.2-5.6,0.8-8.3
		c4.1-16.7,14.4-28.5,30.4-35.9c-8.4-3.7-15-8.2-17.3-17.1c18.1-3.3,20.2-20.2,13.9-29.6c-2.4,6.7-7.7,10.6-13.8,13.7
		c0.1,0.3,0.2,0.6,0.3,0.9c3.6,0.4,7.1,0.8,10.9,1.2c-4.1,4.5-10.9,4.9-16.5,1.3c-4.6-2.9-6.2-7.4-4.1-12.6c3.1,0,6.3,0,10.5,0
		c-7.7-6.2-10.7-10.6-11.3-16.4c-1.9-16.3,7.5-33.8,22.5-40.9c3-1.4,6.6-1.4,10.7-2.2c-0.8,1.5-0.8,1.8-1,1.9
		c-1.5,0.8-3,1.5-4.4,2.3c-11.3,6.1-19,14.9-20.9,28.1c-1.2,8.3,2.6,16.9,8.7,19.6c3.5,1.6,4.6,1.1,5.6-2.5c0.4-1.4,0.6-2.9,1-5
		c6.6,6.6,12.6,13.1,13,22.5c0.4,10.6-5.6,17.5-14.7,22.5c3.2,1.5,6.3,2.9,9.6,3.3c10.8,1.5,21.7,2.7,32.6,4.1
		c2,0.3,3.9,0.8,5.9,1.2c-0.7-2-1.9-3.3-3.2-4.5c-19-17.8-20.7-47.1-4.1-67c12.5-14.9,32.6-13.9,43.5,2.2c6.2,9.3,7.5,19.6,6.3,30.4
		c-0.1,0.9-0.1,1.9-0.2,3.2c23.1-9.8,46-9.9,68.9-1.1c0.1-0.5,0.3-0.7,0.3-1c-0.1-0.6-0.2-1.3-0.4-1.9c-2.2-11.1-0.7-21.6,5.7-31.1
		c9.4-13.9,26.6-16.2,39.5-5.5c14.3,11.9,19.7,35.8,11.6,53.6c-2.5,5.5-6.4,10.3-9.5,15.3c-0.3,0,0,0.1,0.2,0c1.1-0.5,2.1-1,3.1-1.5
		c9.3-5.5,19-5.6,28.5-0.9c3.7,1.8,6.7,0.5,10.6,0.3c-2.6-1.8-4.8-3-6.6-4.6c-9.5-8.9-8.7-25.3,1.7-35.4c3.1-3,7.8-4.6,8-10
		c1.1,4,2.1,7.9,3.4,12.6c7.2-8.9,6.8-22.3,0-31.2c-6.3-8.3-15.1-12.2-25-14.4c-1.2-0.3-2.3-0.9-4.1-1.5c7.7-3.9,25.3,2.3,33.2,10.8
		c4.9,5.4,7.7,11.6,8.1,18.9c0.4,8.1-2.6,15.1-7.9,21c0.8,1.1,1.5,2,2.3,3.2c-5.8,1.1-9.4-2.1-13.2-4.9c-5.7,5.7-8,16-4.3,22.3
		c5.7,9.8,14.5,10.3,24.3,7c-5.6,6.1-12.4,9.7-20.4,11.3c0.3,0.6,0.4,0.8,0.5,1c4.5,5,10.4,9.2,10.1,17c0,0.6,0.8,1.3,1.2,2
		c7.8,12,9,24.4,2.7,37.5c-3.3,6.9-6,14-8.6,21.2c-4.8,13.1-2.2,25.3,6.1,36.2c6.1,8.1,14.2,13.5,24.6,15.8
		c-2.8-3.2-5.3-6.1-7.8-8.9c0.4-0.4,0.8-0.8,1.2-1.2c0.9,0.7,2,1.3,2.8,2.1c9.2,8.6,23.6,14.2,38.5,3.7c1.1-0.8,2.6-1.1,3.9-1.6
		c0.3,0.4,0.6,0.7,0.9,1.1c-1.4,1.7-2.9,3.5-4.7,5.7c7.4-1.2,13.7-3.4,19-8.1c10.1-9,11.9-20.8,10.7-33.8c1.4,0.7,2.2,1.6,3.2,2.4
		c0.8,0.6,2,1.6,2.6,1.4c11.7-4.2,19.8-11.8,22.5-24.5c1.3-6.2,0.2-11.7-3.8-16.6c1.4-3.1,2.8-6.2,4.1-9.2c0.1,0,0.2,0.1,0.3,0.1
		c-0.6,2.8-1.2,5.5-2.1,9.2c2.6-1.2,4.2-1.8,5.8-2.6c12.4-7.2,19.5-24.9,16.1-39.9c-3.3-14.7-15.3-25.7-31-28.4
		c-1.4-0.2-2.7-0.8-4-1.3c0.1-0.4,0.2-0.8,0.3-1.1c9.4-1.4,17.9,1.7,26.6,5.2c-0.7-1.4-1.5-2.7-2.7-3.6c-3.9-3.1-7.8-6.3-12.1-9.1
		c-7.4-4.8-15.2-8.9-22.3-14c-5.3-3.7-9.8-8.5-14.7-12.8c1.1-0.9,1.7-1,2.3-0.9c4.8,0.5,9.7,1.5,14.5,1.4c6.1-0.1,11.7-2.1,15.9-6.9
		c1.1-1.3,1.8-3,2.7-4.5c-1.2-0.1-1.6,0.2-1.9,0.5c-5.7,5.1-12.3,6-19.1,3.3c-6.9-2.7-11.6-7.5-11.9-15.6c-0.2-3.4-0.9-7-2.1-10.2
		c-2.8-7.3-8-12-16-13.8c-0.1,5.9,1.4,11.7-1.3,17.2c-2.1-6.8-3.2-13.4-6.1-19.1c-3.1-6.2-8.8-9.7-16.4-9.8c0.3,5.2,0.6,10,0.9,14.7
		c-0.5,0.1-0.9,0.1-1.4,0.2c-0.3-1.1-0.6-2.3-0.9-3.4c-1.7-8.3-4.9-15.8-12-21c-9-6.6-21.9-5.3-31.9,2.9c-0.9,0.7-1.9,1.4-2.8,2.1
		c-0.3-1.3-0.1-2.1,0.4-2.5c4.1-3.2,8-6.9,12.5-9.4c3.1-1.7,3.8-3.4,2.8-6.4c-2-6-6.3-9.3-12.3-10.6c-6.5-1.4-12,0.6-17.2,5.1
		c13.1,2.7,15.9,4.3,16.8,9.2c-3.8-1.7-7.7-4.4-11.9-5.1c-4.3-0.7-8.9,0.5-13.3,0.9c0.9-1.7,2.4-2.7,3.7-3.8c1-0.9,2.8-2.2,2.7-2.8
		c-0.3-1.2-1.7-2.7-2.9-3.1c-4.3-1.4-8.6-3.1-13.1-3.3c-8.5-0.5-17,0.1-25.6-0.2c-3.6-0.1-7.2-1.3-10.9-2.1c0.1-0.3,0.2-0.6,0.2-0.9
		c5.9,0.3,11.7,1.1,17.6,0.9c8.3-0.4,12.9-3.4,14.7-8.6c-9.1,3.7-18.3,2.7-27.4,0.7c-7.8-1.7-15.7-3-23.5-4.5
		c-1.3-0.2-2.6-0.1-3.9-0.2c-1.1-0.1-2.2-0.2-3.3-0.3c10.9-1.8,19.2-6.8,23.4-17.2c1.8-4.5,2-9.2-1.2-13.8
		c-3.9,13.2-11.4,18.4-24.6,17.7c-8.2-0.4-15.1-3.8-21.9-8.1c-6.3-4-12.8-7.8-19.7-10.5c-8.7-3.4-17.9-3.7-27.9-0.6
		c7.4,2.7,14.1,5.1,17.7,12c-2-0.5-3.7-1.6-5.4-2.6c-14.6-8.7-32-5.2-42,8.5c-1.5,2.1-2.9,4.3-4.2,6.5c-4.1,6.8-10,11.4-17.7,13.7
		c-0.9,0.3-1.8,0.7-2.9,1.2c6,7,13.9,6.3,21.8,7c-18.3,0.7-35.2,4-45,20.6c-4.6-3.1-8.7-6.7-13.3-8.8c-5.3-2.3-10.7-0.6-15.5,2.4
		c-6.9,4.3-10.7,11.7-9.3,18c2.3,0.4,4.7,0.7,7,1.1c0.1,0.5,0.1,0.9,0.2,1.4c-8,1.6-14,5.4-15.5,15c-1.4-1.8-2.7-2.8-2.5-3.5
		c0.7-3.9,1.8-7.8,2.8-11.8c-5.4-2.5-12.2-0.9-16.7,4.8c-1.4,1.8-2.1,4.7-2.1,7.1c0,3.3,2,3.3,4,1.6c1,1.4,2,2.8,2.7,3.8
		c-3.6,1.2-7.5,1.7-10.4,3.6c-3,1.9-5,5.2-7.7,8.2c-0.2-5.4,3.7-8.1,6.8-11.9c-3.6-0.7-7.3-1.5-10.6-0.8
		c-9.9,1.9-16.7,10.7-16.8,20.9c0,2.8,0.3,6-0.9,8.2c-6.6,12.5-28.1,13.5-32.4,0.2c-0.1-0.3-0.5-0.5-0.8-0.7
		c-0.3,0.2-0.5,0.3-0.6,0.5c-2.4,6.7,1.7,13.3,9.9,15.6c7.5,2.1,14.8,0.5,22.1-1.8c1.5-0.5,2.9-0.8,4.4-1.2c0.2,0.5,0.4,1,0.7,1.5
		c-4.5,2.7-9,5.3-13.5,8c-0.2-0.2-0.3-0.5-0.5-0.7c1.4,0.3,2.8,0.7,4.2,1c0.2,0.4,0.3,0.7,0.5,1.1c-9.5,7.7-18.9,15.3-29,23.5
		c5.4-0.5,9.6-1,13.9-1.4c0.1,0.3,0.1,0.7,0.2,1c-0.9,0.4-1.7,1-2.6,1.2c-17.9,5.1-28.7,17.2-34,34.6c-3.9,12.5-3.7,24.7,4,36
		c2.3,3.4,5.3,6.2,9.7,7.3c-1.3-3.4-2.8-6.3-3.4-9.5c-0.6-3.1-0.5-6.5-0.1-9.7c0.3-3.2,1.3-6.2,2-9.4c0.2,8.7-2.5,17.3,2.2,25.9
		c1.2-1.7,1.9-2.9,2.7-4.1c-0.3,5.1-1.6,9.7-2.3,14.5c-1,6.5-0.9,13,3.8,18.8c1.7-3.2,2.8-6.5,4.1-9.7c1.3-3.3,2.7-6.7,4.2-9.9
		c0.3-0.7,1.3-1.2,2.2-1.9c-1.3,5.9-3,11.1-3.5,16.5c-0.5,5.5,0.5,11.1,3.4,16.1c2.9,4.9,6.9,8.4,12.5,11.1c0.3-2.6,0.3-4.7,0.9-6.6
		c0.5-1.8,1.6-3.5,2.4-5.3c0.4,0.1,0.9,0.2,1.3,0.3c-2,10.9,1.2,20.4,8.6,28.1c7.5,7.8,17.5,10.4,28.2,12.1c-2-2.4-3.6-4.4-5.2-6.4
		c0.4-0.5,0.7-1,1.1-1.5c6.8,5,13.8,9.1,22.6,8.5c9.1-0.6,14.7-6.6,20.1-13.2c0.4,0.4,0.9,0.9,1.3,1.3c-1.9,3.3-3.8,6.6-5.7,9.9
		c19.1-3.1,37.4-30.3,30.4-46.3C173.8,401.7,172.9,405.6,172,409.4z M376.5,326.8c-0.4,0.2-0.8,0.4-1.2,0.7
		c-0.6-0.9-1.3-1.7-1.9-2.6c-5.2-8.9-12.1-16.1-20.7-21.6c-24.1-15.4-50.3-18-77.4-10.6c-21.7,6-40.1,17.1-50.4,38.5
		c-0.2,0.4-0.7,0.7-1.4,1.4c-0.1-1.2-0.5-2.1-0.1-2.6c2.9-4.2-0.2-5.6-3.2-7.2c-1.4-0.7-2.7-1.5-4.2-2c-6.7-2.5-13.5-1.5-20.3-0.1
		c1.8,0.8,3.7,1.7,5.5,2.5c0,0.3,0,0.6,0,0.9c-18.6,1-32.2,9.3-39.8,26.4c6.7-4.2,13.5-8,21.9-4.7c-8,5.8-14.5,12.6-16.9,22.2
		c-2.4,9.5-1.9,18.8,3.9,27.9c3.6-6.7,5.3-14.2,13.3-18.5c-3.5,9.3-2.5,17.1,2.7,24c5,6.7,11.1,12.1,20.4,13.9
		c-0.9-2.4-1.6-4.2-2.3-6c1.8,0.3,3,1,4,1.8c12.7,9.9,21.2,22.9,27.6,37.4c4.3,9.9,8.2,20.1,12.4,30.1c3.1,7.3,7.9,13.3,14.2,18.1
		c14.8,11.2,31.5,14.7,49.5,11.5c22.7-4,39.5-15.9,47.4-38.5c1.7-4.7,3.5-9.4,5.4-14.1c8.5-20.4,22.7-36.9,37.4-52.9
		c0.2-0.2,0.7-0.2,1.8-0.5c-1.1,2.9-2.1,5.3-3,7.6c0.3,0.3,0.7,0.6,1,0.9c2.7-2.6,5.7-4.9,7.9-7.9c5.3-7.2,7.2-15.2,4-24.6
		c5.9,1.7,6.5,6.9,9.6,11.1c7.3-14.9,7-28.6-2.1-42.1c7.4,3.1,9.5,10.4,13.3,16.4c3.3-19.2-4.5-32.1-23-39c0.2-0.3,0.5-0.7,0.7-1
		c4,0.7,8.1,1.3,12.3,2c-7.8-13.6-35.8-17-51.2-6.4C374.5,321.7,375.5,324.3,376.5,326.8z M388.9,436.1
		c-10.2,11.4-16.7,24.8-22.3,38.8c-1.6,4.1-3.1,8.3-5.3,12c-25.3,43-90.8,47.8-118.8,0.7c-7.4-12.4-13.9-25.4-20.8-38.1
		c-0.8-1.4-1.6-2.8-2.4-4.2c-0.3,0.1-0.6,0.1-0.9,0.2c0.4,14.5-4.3,27.6-11.4,40.2c3.7-1.1,6.9-2.1,10.1-3.1c0.1,0.3,0.2,0.7,0.3,1
		c-4,3.4-8.3,6.5-11.8,10.3c-3.5,3.8-6.3,8.2-9.4,12.3c0.3,0.3,0.7,0.6,1,0.8c3.4-2,6.3-5.1,11.7-4.9c-4.7,5.2-9.4,9.5-10.6,16.1
		c0.9,0.3,1.5,0.6,2.1,0.8c24.3,6,34.1,17,37.2,41.7c0.3,2.3,1.4,2.6,3.3,2.7c10.6,1,19.1,5.9,24.2,15.2c2.7,4.9,4.4,10.5,5.7,15.9
		c0.9,3.5,2.2,4.2,5.6,3.2c0.3-6,0.7-12,5.4-17.6c-1,3.8-2.1,6.7-2.6,9.8c-1.4,7.8-1.4,7.8,6.2,9.3c0.3,0.1,0.5,0.2,0.7,0.2
		c6.2,0,12.5,0,18.1,0c1.2-6.6,2.3-12.8,3.4-19c0.5,0.1,0.9,0.2,1.4,0.2c-0.1,0.7-0.2,1.4-0.3,2.1c-0.2,5-0.3,10-0.4,15
		c0,0.7,1,1.9,1.3,1.9c0.8-0.2,1.8-0.8,2.2-1.5c0.6-0.9,0.8-2.1,1.2-3.2c2.4-6.8,5.9-12.8,11.6-17.4c-4.1,6.7-8.1,13.3-8.7,21.6
		c0.9,0.1,1.4,0.3,1.8,0.2c1.9-0.1,3.9-0.4,5.8-0.5c2.7-0.2,3.9-1.5,4.5-4.3c2.4-12.4,8.5-22.3,20.3-28.1c2.1-1,3.8-2.1,6.4-2
		c3.6,0.2,6.1-0.7,6.6-5.6c2.1-21.3,15.9-35.6,37.1-39.2c1.2-0.2,2.4-0.6,3.7-1c-2-6.1-6.4-9.8-11.8-13.1c4.8-2.8,7.7-0.1,12,1.8
		c-5.1-12-12.8-21.9-14.5-34.4C386.1,460.8,386.9,448.5,388.9,436.1z M367.9,566.8c0.5,20.3,10.5,40.7,32.7,54
		c15.9,9.6,31.1,4.1,37.9-13.2c0.5-1.2,0.9-2.4,1.2-3.7c3.1-12.1,1.7-24.1-1.5-35.9c-3.7-13.5-9.4-26-19.9-35.7
		c-6-5.6-13-8.7-21.2-6.9C379.3,529.1,367.8,543.4,367.9,566.8z M156.6,589.9c-0.1,10,2.8,18.9,8.9,26.7c6.2,7.9,14.7,10.7,24.1,7.1
		c3.9-1.5,7.8-3.5,11.2-6c18.6-13.9,28.6-32.6,29.6-55.9c0.7-16.5-7.5-28.7-22.5-35c-10.2-4.3-19.2-2.4-27.1,5
		C164,547.6,158.3,567.9,156.6,589.9z M406.6,522.6c4.4,2.6,8.5,4.5,12,7.2c11.9,9.4,19,22.2,23.5,36.3c5.6,17.9,7.6,36-2.3,53.4
		c-0.4,0.8,0.1,2.9,0.8,3.5c14.7,11.8,33.6,7,38-10.9c3.1-12.7,2.2-25.4,0-38.1c-3.6-20.2-13.1-36.9-30.5-48.4
		C434.9,516.9,421.1,516.5,406.6,522.6z M191.6,523.2c-5.4-4.2-17.2-6-26-3.8c-15.1,3.8-26.2,13.4-34.4,26.1
		c-11.3,17.5-13.5,37.4-12.1,57.7c0.3,4.4,1.2,9.1,2.9,13.1c6.3,15,23.2,17,36.2,6c0.6-0.5,0.3-2.5-0.1-3.6c-1.6-4.3-4-8.5-5.1-12.9
		c-3.2-13-1.8-26,2.5-38.5C162.3,548.3,172,531.6,191.6,523.2z M486,608.4c7.9,0,16.2-6.3,17.9-15c1.5-7.5,2-15.4,1.5-23
		c-1-15.6-9.8-25.6-24.8-29.3c-4.1-1-8.3-1.4-13.5-2.2C483.2,560.3,487.6,583.6,486,608.4z M131.3,539c-4.3,0.7-7.8,1-11.1,1.8
		c-12.6,2.9-22.2,9.5-25.1,22.8c-1.4,6.5-1.7,13.3-1.7,20c0,6.2,1.3,12.4,5.4,17.4c3.5,4.3,7.8,7.4,14.1,7.9
		C112.1,583.7,116,560.3,131.3,539z M238.4,304.4c-1.2-0.5-2-0.9-2.9-1.2c-20.9-7.6-26.6-34.7-10.6-50.2c9.2-8.9,21.7-8.2,30,1.6
		c1.1,1.3,2.1,2.6,3.2,3.9c-2.3-7.5-6.7-13.3-14.2-15.7c-8.2-2.5-15.6-0.3-21.8,5.6c-7.1,6.8-10,15.6-10.5,25.2
		c-0.8,14.7,3.6,27.3,15.4,36.7c0.9,0.7,3,1.1,3.8,0.6C233.5,309.1,235.8,306.8,238.4,304.4z M333.8,598.6
		c10.1-2.2,19.8-4.4,29.4-6.5c2.4-0.5,1.6-2,1.3-3.6c-1.2-5.1-2.4-10.3-3.3-15.5c-0.5-2.6-1.3-3.8-4.3-3.2
		C344.6,572,334.1,584.4,333.8,598.6z M264.6,597.3c-0.7-7.9-3.6-14.9-7.9-19.8c-4.4-5-9.8-7.7-16.5-8.2c-2.1-0.1-2.9,0.5-3.3,2.7
		c-0.9,4.8-1.8,9.6-3.2,14.3c-0.8,2.8-0.3,4,2.5,4.7c5.9,1.4,11.7,3,17.6,4.4C257.1,596.2,260.6,596.7,264.6,597.3z M362.5,303.7
		c1.8,1.6,3.4,2.9,4.7,4.4c2.3,2.7,4.1,2.2,6.7,0.1c17.1-13.7,16.9-37.8,9.6-51.9c-3.3-6.4-7.9-11.6-15.2-13.6
		c-8.9-2.4-17.9,0.8-23.3,8.4c-6.5,9.2-7.6,19.3-4.7,31.1c0.3-1.2,0.4-1.3,0.4-1.4c-0.1-0.8-0.2-1.5-0.3-2.3
		c-0.9-11.1,2.5-20.4,11.7-27.1c9.7-7.1,21.2-5.2,28.2,4.6c11.9,16.5,4.2,40.1-15.2,46.5C364.6,302.7,363.8,303.1,362.5,303.7z
		 M261.3,292.1c24.9-10.2,50-10.4,76.5-2C323.7,275,277.2,275,261.3,292.1z M364.8,252.6c-5.4,0-9.6,3.8-9.7,8.9
		c-0.1,5.2,4.6,10,9.8,10c5,0,9.6-4.6,9.6-9.7C374.5,256.5,370.4,252.6,364.8,252.6z M237.7,252.5c-5.5,0-9.5,3.7-9.6,8.9
		c-0.1,5.5,4.3,10,9.7,9.9c5.2-0.1,9.5-4.4,9.5-9.6C247.3,256.1,243.5,252.5,237.7,252.5z"/>
	<path d="M209.4,210.8c0-15.5,13.3-28.1,27.6-26c3,0.4,6,2.1,8.7,3.8c1.1,0.7,1.9,2.9,1.7,4.2c-0.2,1.1-2,2.1-3.3,2.6
		c-1.7,0.6-3.6,0.5-5.3,0.8c-9.6,1.9-15.9,8-20.6,16.2c-0.6,1-0.9,2.2-1.7,3c-0.9,0.9-2.3,2.2-3.3,2c-1.2-0.3-2.5-1.6-3.1-2.8
		C209.5,213.4,209.6,211.9,209.4,210.8z M214.6,209.3c5.7-10.3,13.6-16.4,25.2-17.9C229.5,185.7,215.9,195.3,214.6,209.3z"/>
	<path d="M391.3,208.5c-0.1,0.8,0,2.1-0.5,3.1c-0.7,1.4-1.9,3.4-2.9,3.4c-1.3,0.1-3.1-1.3-4.1-2.5c-3.2-3.8-5.7-8.3-9.3-11.8
		c-4-3.8-9.1-5.6-14.8-5.8c-2.4-0.1-5.7-0.3-5.7-3.3c0-1.9,1.8-4.5,3.6-5.7c7.7-5.2,17.8-3.7,25.2,3.2
		C388.1,194.4,390.9,200.8,391.3,208.5z M361.8,189.6c4.7,2,10,3.4,14.1,6.3c4.1,2.9,7.1,7.3,10.8,11.2c-2-8-5.3-14.8-13.4-17.8
		C369.2,187.6,365.1,187.2,361.8,189.6z"/>
	<path d="M93.8,312.2c-7.6,6.7-16.4,9.4-26.5,6.9c-6.4-1.6-10.2-5.2-10.8-9.9C66.9,320,77.9,320.8,93.8,312.2z"/>
	<path d="M446.6,372.8c3,18.6,15.6,26.8,31.9,21c-5.3,4.8-15.5,4.5-23.2-0.7C447.9,388.1,444.3,379.7,446.6,372.8z"/>
	<path d="M462.9,267.5c5.5,14.5,16.3,18.6,30.3,16.7c-8.1,3.4-15.8,2.1-23-2.5C465.2,278.4,462.1,272.5,462.9,267.5z"/>
	<path d="M45.9,354.2c9.5-1.7,16-7,19.3-16.3c0.4,0.2,0.7,0.4,1.1,0.7c-1.4,2.9-2.7,5.8-4.3,9.1c5.9-0.7,10.5-3.3,14.5-7.3
		c-1.2,3.4-5.3,6.6-10.9,7.7c-4,0.8-7.5,2.2-10.9,4.4c-2.5,1.5-5.6,2-8.4,3C46.2,355,46.1,354.6,45.9,354.2z"/>
	<path d="M500.1,424.1c-6.9,4.6-15,3.7-19-2c-3.5-5.1-2.3-10.5,3.1-14.5c-1.2,2.2-3.2,4.4-3.4,6.8c-0.2,2.4,0.7,5.4,2.2,7.4
		C486.7,426.7,492.7,427.3,500.1,424.1z"/>
	<path d="M522.3,379.1c1.7-2.3,4.5-4.3,4.4-6.2c-0.2-5.8-5.3-7.7-10.8-9.8c5.2,0.1,8.8,2,11,5.4c1.2,1.9,1.7,5.1,0.9,7.1
		C527.2,377.3,524.2,378,522.3,379.1z"/>
	<path d="M488.5,271c6.1,5.7,13.6,7,21.9,6.9C504.1,281.5,492.7,277.9,488.5,271z"/>
	<path d="M115.3,429.6c-10.6,1.1-20.2-7.8-15.9-17.2c-0.6,5.1,0.5,9.8,4.7,12.5C108,427.4,112.6,428.6,115.3,429.6z"/>
	<path d="M138,349.7c-3.2,5.3-8.9,7.7-13.8,6.2c-1-0.3-1.7-1.8-2.2-3C126,356.5,130.8,355.7,138,349.7z"/>
	<path d="M447.2,273.8c5.3-1.5,9.3-4.3,10.2-10.7C458.9,269.3,454.4,273.8,447.2,273.8z"/>
	<path d="M501,303.5c-4.9,0.9-8.9-1.1-11.5-5.8C493.1,299.5,497.3,301.6,501,303.5z"/>
	<path d="M506.9,285.2c5.9,1.8,8.9,7.4,6.5,12.3C513.9,292.1,511.1,288.3,506.9,285.2z"/>
	<path d="M58.7,297.2c3.6,5,8.5,2.5,13.5,1.6C66.1,303.4,60.4,302.6,58.7,297.2z"/>
	<path d="M434.1,216.1c3.7,0.3,8.2,0.7,12,1C442.4,219.8,437.6,219.3,434.1,216.1z"/>
	<path d="M531.5,334.9c-0.5,3.9-3,6.1-9,7.4C525.5,340,528.7,337.3,531.5,334.9z"/>
	<path d="M160.5,192.8c3.7-1.7,6.7-3.1,9.9-4.6C168.1,191.6,164.7,192.4,160.5,192.8z"/>
	<path d="M133.5,257.6c-3.2,0.6-5.3-1-6-4.7C129.2,254.3,131.4,256,133.5,257.6z"/>
	<path d="M129.5,264.7c2.4,1.1,5.3,2.5,7.2,3.3C132.8,268.9,130.8,268,129.5,264.7z"/>
	<path d="M455.5,223.7c2-1.7,3.9-3.4,5.7-4.9C461.7,221.4,459.9,223.1,455.5,223.7z"/>
	<path d="M298.4,370.2c-3.5-0.7-6.8-1.1-10-2c-5.1-1.5-9.2-4.5-11.9-9.3c-0.8-1.4-2.4-2.6-3.9-3.4c-6.1-3.1-11.5-7-15.5-12.5
		c-7.9-10.8-5.8-23.2,5.4-30.6c7.1-4.7,15.1-7.1,23.5-8.5c13.3-2.2,26.3-1.3,38.9,3.5c3,1.1,5.9,2.7,8.5,4.5
		c10.2,6.9,12.6,18.1,5.2,27.9c-3.8,5-9.3,8.8-14,13.1c-1.9,1.7-4.2,3.1-5.5,5.2c-4.1,6.5-9.8,10.1-17.3,11.3
		c-0.6,0.1-1.2,0.4-2.1,0.8c3,7.3,7.9,12.6,14.4,16.3c19,10.8,38.7,11.8,58.8,3.3c11.9-5.1,21.4-13.4,29.2-23.7
		c0.9-1.2,1.6-2.6,2.9-4.6c-4.7-2-8.9-3.9-13.1-5.7c4.5-3.2,11-2.2,17.4,2.9c6.6,5.3,9.7,12.7,7.2,18.6c-2.6-4.3-5-8.2-7.7-12.8
		c-1.1,2-1.9,3.3-2.6,4.6c-7.5,14.4-19.1,24.6-32.9,32.5c-2.3,1.3-3.5,2.8-3.9,5.6c-2.6,15.6-9.1,29.8-16.7,43.6
		c-4.7,8.5-9.3,17.1-15.3,24.6c-11.3,14-27.2,17.9-44.3,15.9c-21.3-2.5-33.7-15.2-39.1-35.9c-4-15.3-9.2-30.4-14-45.5
		c-0.8-2.5-2-4.5-4.9-5.4c-20.6-6.2-36.6-18.3-47.2-37.1c-0.2-0.3-0.5-0.6-1.2-1.5c-2.1,3.2-4.1,6.2-6,9.2
		c-1.2-5.4,1.7-9.3,4.9-12.8c4.9-5.5,10.9-8.9,19.3-7.6c-5.2,2.8-9.9,5.3-14.9,7.9c0.6,1.4,0.8,2.1,1.3,2.7
		c16,18.7,35.6,30.3,60.8,29.8c13-0.3,25.3-3.8,36.1-11.3C292.9,380.2,296.6,376.1,298.4,370.2z M301.1,441.4c-0.3,0-0.7,0-1,0
		c0-8-0.3-16,0.1-23.9c0.3-7.2-5.4-14.4-12.7-14.9c-7.6-0.6-12.8,3.3-15.8,9.7c-3.8,8.2-6.9,16.7-10.1,25.1
		c-5.5,14.8,4.4,35.5,21.7,40.8c7.2,2.2,14.5,2.9,21.8,2.1c15.4-1.8,28-8.7,33.2-24.1c5.9-17.8,1.1-34.1-10.1-48.7
		c-0.9-1.2-2.3-2.1-3.6-2.9c-7.2-4.7-16.2-2.3-19.4,5.7c-1.7,4.3-2.5,9.2-3.1,13.9C301.5,429.9,301.4,435.7,301.1,441.4z
		 M274.4,316.7c14.1-0.6,28.6-1.2,42.9-1.8C310.3,308.3,281.3,309.9,274.4,316.7z"/>
	<path d="M398.8,339.7c-3.5-0.4-7.3-0.8-10.7-1.1C391.6,336.4,396.2,336.8,398.8,339.7z"/>
</g>
</svg>
