<?xml version="1.0" encoding="utf-8"?>
<!-- Generator: Adobe Illustrator 24.2.3, SVG Export Plug-In . SVG Version: 6.00 Build 0)  -->
<svg version="1.1" id="Layer_1" xmlns="http://www.w3.org/2000/svg" xmlns:xlink="http://www.w3.org/1999/xlink" x="0px" y="0px"
	 viewBox="0 0 595.3 841.9" style="enable-background:new 0 0 595.3 841.9; fill: #215342;" xml:space="preserve"
	 height="350" width="400" transform="translate(-45, -30)">
<g>
	<path d="M182.3,226.7c-3.4-3.8-6.2-7-8.9-10.1c0.2-0.3,0.4-0.5,0.6-0.8c2.3,1.2,4.8,2.2,7,3.5c14,8.4,29.1,9.7,44.8,7.7
		c20.9-2.6,41.7-5.7,62.7-7.3c18.8-1.4,37.8-1.4,56.6-1.4c11.1,0,22.3,1.3,33.4,1.9c1.4,0.1,2.7-0.1,4.1,0
		c8.5,0.7,15.1-2.5,20.8-8.7c4.7-5.1,10.2-9.4,15.3-14c0.2,0.2,0.5,0.4,0.7,0.6c-3.1,5.1-6.3,10.1-9.4,15.2c0.2,0.3,0.5,0.6,0.7,0.9
		c6.4-4.3,12.7-8.7,20.8-9.1c7.9-0.4,15.3,1.4,23.6,4.1c-2.1,0.2-3.3,0.4-4.1,0.5c7.6,3.8,15.5,7.7,23.2,11.7
		c7.4,3.8,14.4,8.3,22,11.7c19.5,9,40.3,14.4,61.2,19.1c2.4,0.6,4.8,1.5,7.3,1.7c5.4,0.5,8.3,3.7,11,8c10.6,16.9,12.4,35.3,9.5,54.6
		c-2.5,16.7-8.6,32.2-13.8,48.1c-3.6,11-6.2,22.4-8.2,33.7c-2.7,14.8-14.6,19.9-26.8,10.9c-5.4-3.9-8.4-9.5-11.1-15.3
		c-2.2-4.9-4.1-9.9-6.2-14.8c-0.4-1-0.9-1.9-1.3-2.9c-0.3,0-0.6,0.1-0.9,0.1c-0.1,1.2-0.2,2.3-0.2,3.5c0,38.1,0.1,76.3,0,114.4
		c0,3.1,0.7,5.5,3.2,7.4c1.8,1.4,3.4,3,4.9,4.8c4,4.9,8.8,8.7,14.4,11.9c8.4,4.8,13.6,12.3,16.5,21.4c0.8,2.4,0.5,5.1,0.9,7.7
		c0.2,1.3,0.3,2.7,0.8,3.9c3.3,8.2,6.2,16.4,4.3,25.5c-2.2,10.5-7.2,19.4-16.4,25.3c-2.4,1.5-3.8,3.2-4.3,6.1
		c-0.4,2.6-1.5,5.3-2.7,7.7c-1.9,3.6-6.8,3.6-7.5-0.2c-1.3-6.7-4.9-11.1-10.2-14.9c-1.4-1-2.2-3.1-3.5-5.1c-0.7,1.3-1.2,2.2-1.7,3
		c-2.6,5.3-5.4,10.3-10.7,13.4c-3.2,1.9-4.9,4.8-5.8,8.4c-0.8,3.2-2,6.3-3.1,9.4c-1.2,3.3-3.6,3.8-5.5,1c-1.8-2.7-2.7-6-4-9
		c-0.5-1.2-0.8-2.9-1.7-3.5c-6.2-3.9-9.8-9.7-12.5-16.2c-0.2-0.4-0.5-0.7-1-1.4c-3.6,5.1-8.3,8.6-13.9,10.9c-0.8,0.3-1.2,2-1.5,3.1
		c-0.5,2.6-0.6,5.2-1.1,7.8c-0.6,2.9-2.5,3.6-5.1,2.6c-3.8-1.4-6.5-4.3-7.1-8.1c-1.2-7.3-3.7-13.9-9.4-18.9
		c-0.7-0.6-1.1-1.5-1.4-2.3c-1.1-2.5-1.6-5.2-5.8-4.4c-1.5,0.3-4.3-2.3-5.2-4.2c-3.5-6.9-6.4-14-9.7-21c-0.5-1-2-1.5-3-2.3
		c-0.1,0-0.2,0-0.3,0c-5.3,0.1-10.7,0-14.3,5.1c-21.4,11.9-43,23.4-67.9,25.5c-18.9,1.6-37.8,1.2-56-5.3c-1.7-0.6-3.6-1.2-4.7-2.5
		c-2.6-2.9-6-3.8-9.3-5.4c-5.1-2.4-10-5.4-15-8c-3.4-1.7-6.8-3.8-10.4-4.6c-4.5-1-9.3-0.9-13.9-1.4c-2.4-0.3-3.3,0.8-4.3,2.8
		c-3,6-6,12-9.5,17.6c-3,4.7-4.7,4.9-9,3.1c-4.1,4.7-8.1,9.1-11.9,13.6c-0.8,0.9-1,2.2-1.4,3.4c-1,2.9-1.7,5.9-3,8.7
		c-0.9,2-2.4,4-4.2,5.2c-1.6,1.1-4.1,2.1-5.8,1.6c-1.2-0.4-1.8-3.2-2.5-5c-0.2-0.6-0.2-1.4-0.2-2c0.1-3.9-0.5-6.9-4.8-9.1
		c-3.4-1.8-5.7-5.6-8.6-8.7c-0.2,0.3-0.5,0.7-0.7,1.2c-2.6,7.6-7,13.7-14.1,17.8c-1,0.6-1.5,2.1-2,3.3c-1.3,3.1-2.4,6.4-3.9,9.4
		c-0.5,1-2.2,2.1-3.2,2c-1-0.1-2.2-1.5-2.6-2.6c-1.6-4.1-2.8-8.4-4.4-12.5c-0.6-1.6-1.5-3.5-2.9-4.4c-6.7-4.2-12.4-9.2-15.1-17
		c-0.1-0.4-0.6-0.7-0.8-0.9c-3.2,2.2-6.6,4.1-9.3,6.7c-1.5,1.4-2.1,4-2.6,6.1c-0.6,2.8-1.6,5.2-4.8,5.3c-3.2,0.1-4.6-2.3-5.2-5
		c-0.8-3.1-0.9-6.3-1.7-9.4c-0.5-1.8-1.2-3.8-2.5-5c-13.2-11.8-16.1-26.5-8.2-42.1c1.2-2.4,2.7-4.5,0.4-7.1c-0.5-0.6-0.2-2,0-2.9
		c1.8-9.2,7.1-16.4,14.6-21.5c9.7-6.6,18.4-14.2,26.9-22c2.2-2.1,3.2-4,3.2-7c-0.1-31,0-62,0-92.9c0-11.5,0-23,0.1-34.5
		c0-1.2,0-2.4,0-3.7c-0.4-0.1-0.9-0.3-1.3-0.4c-0.4,1.1-1.1,2.3-1.3,3.4c-1.8,12.2-3.4,24.4-5.4,36.5c-1.4,8.4-3.2,16.8-5.6,25
		c-2,7-6.3,12.7-13.4,15.4c-5.9,2.3-9.3,0.9-12-4.7c-1.4-2.8-2.4-5.9-3.5-8.9c-4.6-12.9-11.3-24.5-18.9-35.8
		c-10.6-15.8-19.3-32.5-22.4-51.6c-2-12.1-1.4-24,3.2-35.6c1.1-2.8,2.9-4.6,5.8-5.8c16.5-6.9,33.3-13.4,48.2-23.3
		c12.1-8,23.4-17.3,35.2-25.8c10.1-7.4,20.2-14.8,31.9-19.6c8.3-3.4,16.9-4.7,25.8-2.8C179.1,226.5,180.2,226.5,182.3,226.7z
		 M351.9,354.1c1.7,2.6,3.4,5.2,5.2,8.1c0.7-3.3,2.2-1.8,3.7-0.5c-2.4-5.5-6-10.2-6.5-16.7c2.4,4,4.5,7.4,6.6,10.9
		c0.6-0.2,0.4-0.2,1-0.4c-1.1-5.7-2.2-11.4-3.2-17c1.3,2.1,1.4,5.6,2.7,6.1c3,1.2,2.7,3.6,3.6,5.6c0.6,1.4,1.3,2.7,2.3,4.6
		c0.8-9.3,1.6-17.7,2.4-26.9c-1.6,2-2.6,3.3-3.6,4.6c0.2-2.5,1.4-4.5,2-6.6c0.1-0.2,0.1-0.4,0.1-0.6c0.4-2.4,1.9-4.5,3.8-6.1
		c1.6-1.4,2.5-3.7,4.3-5c-0.3-0.3-0.5-0.5-0.8-0.8c-3.5,3.5-6.9,7-10.4,10.4c-1,0-1.6,0-2.5,0l0,0c2.1-6.1,3.5-12.5,9.2-16.7
		c-0.4,0.9-0.7,1.9-1.1,2.8c3.2-1.3,6.1-2.8,9.2-3.8c2.2-0.7,4.5-0.6,4.9,2.2c2.1,0.1,4,0,5.7,0.5c1.5,0.4,2.8,1.5,4.2,2.3
		c1.1,0.6,2.3,1.1,4.1,2c-2.1,0.7-3.3,1.1-4.6,1.6c0.8,0.9,1.4,1.7,2.2,2.7c-1.4,0.6-2.4,1.1-4.3,1.9c4.4,0.1,7.1,1.4,9.2,4.7
		c1.9,3,5,4.8,8.9,4.4c1.1-0.1,2.3,0.5,4.2,0.9c-4,2-7.3,3.7-10.5,5.3c0.1,0.4,0.1,0.3,0.3,0.7c4.4-0.9,8.7-1.8,13.1-2.7
		c0.2,0.6,0.2,0.4,0.4,1c-1.7,1-3.4,2-5,3c0.1,0.3,0.1,0.3,0.2,0.6c4.3-0.7,8.6-1.3,12.9-2c0.1,0.4,0.2,0.7,0.3,1.1
		c-8.8,1.4-17.6,2.8-24.2,9.6c7-1.7,13.8-3.7,21.3-2.7c-0.3,0.9-0.5,1.5-0.8,2.3c1.8,0.4,3.3,0.8,4.9,1.1
		c9.6,1.7,17.3,6.8,23.7,13.9c1.3,1.5,1.9,4,2.1,6c0.3,2.7,1.2,4.8,3.9,6c-0.8-1.4-1.5-2.8-2.3-4.2c0.5-0.4,0.3-0.2,0.8-0.6
		c2.1,2.3,4.3,4.6,7,7.5c-0.1-9.8-0.6-18.7-5.6-26.7c-7.7-12.4-18.8-20.5-32.1-26c-5.2-2.2-9.6-5.4-13.5-9.5
		c-8.5-8.8-18.6-15-31.2-16.1c-4.5-0.4-8.7,0.2-12.8,2.5c-5.7,3.2-9.6,7.8-13.2,13.8c-0.2-1-0.2-1.4-0.4-1.7
		c-0.1-0.4-0.4-0.7-0.7-1.4c-8.3,8.7-9.8,19.1-9.8,30c0,13.9,5.5,26,12.2,37.6c0.9-0.4,0.6-0.3,1.5-0.7c-1.6-4.8-3.3-9.6-5-14.9
		c1.1,0.7,1.9,1.2,3.1,1.9C353.8,360.3,352.9,357.2,351.9,354.1L351.9,354.1z M202.9,345.1c0.8,0.4,4.1-3.4,2.2-4.5
		c2.9-2,6.7,1.4,8.7-2.7c-0.9,0-1.5,0-1.3,0c-0.3-2.2-0.5-4.2-0.8-7c2.8-1,6.4-2.4,10.1-3.8c0-0.1,0-0.3,0-0.4c-3.9,0-7.7,0-11.6,0
		c3.7-3.7,8.5-4,14-5.3c-1.8-1.6-3.2-2.8-4.2-3.7c5.3-5.9,11.2-3,17,0.2c0.1-0.3,0.3-0.5,0.4-0.8c-1.3-1.9-2.5-3.9-4-6.2
		c6,1.1,10.3,3.5,12.6,8.5c0.7,1.4,1.5,2.8,2,4.3c1,2.5,2.1,5.2-1.7,6.6c-0.6-0.5-1.2-1.1-2.5-2.2c1.4,10.2,2.6,19.6,3.9,28.9
		c0.3,0,0.6,0.1,0.9,0.1c0.5-6.3,0.2-12.9,5.5-19.1c1,8.9,1.8,17,2.7,25.1c0.3,0,0.7,0,1,0c3-7.5,3-15.5,3.1-23.5
		c0.7,1.3,1,2.7,0.9,4c-0.3,5.2-0.7,10.4-1,15.7c-0.1,1.3,0.2,2.6,0.4,3.9c0.2,1.1,0.7,2.2,1,3.3c0.4,1.2,0.8,2.5,1.5,4.4
		c-0.8,2.2-1.9,5.2-3,8.3c0.5,0.2,1,0.3,1.4,0.5c6.1-11.2,10.3-22.9,11.2-35.9c0.3,0,0.6,0,0.9-0.1c0.8,4.9,1.5,9.7,2.4,14.9
		c4.6-17.3-7.7-47.1-21.8-53.1c0.7,1.4,1.3,2.7,1.9,4c-2.1-0.7-3.5-1.8-4.7-3.1c-4.8-5.1-10.6-6-17.2-4.6
		c-9.8,2.2-17.9,7.3-24.5,14.7c-7.8,8.7-16.6,16.2-26.1,23c-13.5,9.7-21.7,22.8-23.5,39.5c-0.2,1.5,0.1,3.2,0.8,4.5
		c0.2,0.4,2.4-0.2,3.8-0.3c-0.8,1.7-1.6,3.3-2.4,5c2.9-2.7,5.5-5.6,7.9-8.5c0.4-0.5,0.7-1.5,0.5-1.8c-2.1-2.4,0.1-3.8,1.3-5.1
		c7.9-8.5,17.6-13.5,29.3-14.6c1.1-0.1,3,0,3.2-0.6c1.3-3,3.5-1.6,5.5-1.5c1,0,1.9,0,3.6,0c-8.1-6.5-17.3-4.3-25.8-5.2
		c0-0.3,0-0.7,0-1c2.2-0.6,4.4-1.2,7.6-2c-2.4-0.7-3.9-1.2-5.3-1.6c0.1-0.3,0.1-0.5,0.2-0.8c4,0.5,8,1.1,12,1.6
		c-0.5-0.4-1.1-0.9-2-1.7C201.8,345.2,202.4,345.2,202.9,345.1z M76.4,291.8c-0.3-0.2-0.6-0.4-0.9-0.7c1.6-2.9,3.2-5.7,5.1-9.3
		c-1.9,0.7-3.1,1.2-4.3,1.7c-11.2,5-22.3,10.3-33.7,14.9c-5.4,2.2-9.2,5.3-9.9,11.4c-0.7,6-1.9,11.9-2,17.9
		c-0.2,21.9,8.2,40.7,21.9,57.4c0.2,0.3,0.7,0.4,1.8,1.1c-3.3-9.5-5.6-18.3-6.4-27.6c1.2,1.1,2,2.4,2.6,3.7
		c2.3,5.1,5.6,9.2,10.4,12.3c7.9,5.2,14.6,3.1,17.6-5.8c0.4-1.2,0.7-2.4,0.7-3.7c0.3-9.8,0.2-19.6,0.8-29.3
		c0.3-6.1,0.9-12.3,2.5-18.2c3.5-12.2,9.4-23.4,16-34.2c0.5-0.9,0.7-2,1.1-3.1c-0.4-0.2-0.8-0.4-1.2-0.5c-3.2,4.8-6.6,9.4-9.6,14.3
		c-3.1,4.9-5.9,10-8.9,15c-0.3-0.1-0.5-0.3-0.8-0.4c0.3-1.4,0.6-2.8,0.9-4.2c-0.4-0.1-0.7-0.3-1.1-0.4c-2.3,4.6-4.6,9.2-6.8,13.8
		c-0.7-0.8-0.8-1.4-0.7-1.9c2.3-9.7,5.7-18.9,11-27.5c0.7-1.1,1.1-2.4,1.6-3.7c0.5-0.5,1-0.9,1.5-1.4
		C85.3,283.5,79,289.5,76.4,291.8z M382.7,507.8c1,0.4,2.2,0.7,3.1,1.3c4.5,2.6,9,5.4,13.5,8c6.1,3.4,12.2,6.6,18.4,9.8
		c0.9,0.5,2.2,0.1,3.3,0.1c-0.4-1.1-0.7-2.3-1.2-3.4c-0.2-0.5-0.8-0.8-1.3-1.1c-8.1-6-16.1-11.9-24.2-17.8c-2.6-1.9-5.2-3.6-7.8-5.4
		c1.5,0,2.6,0.6,3.6,1.3c10.1,7.1,20.1,14.2,30.2,21.2c0.9,0.6,2.8,1.4,2.9,1.3c1.3-2,2.8-4.1,3.4-6.4c0.2-0.8-1.3-2.7-2.5-3.3
		c-8.4-4.2-16.8-8.1-25.2-12.1c-5.4-2.6-10.8-5.3-16.2-8c5.3,1.6,10.4,3.7,15.5,6c8.7,3.9,17.4,8,26.1,11.9c1,0.5,2.3,0.3,3.5,0.4
		c-0.2-1.1-0.3-2.3-0.7-3.4c-1.4-3.7-4.6-5.2-8.1-6.2c-4.6-1.3-9.3-2.4-13.8-3.7c-6.1-1.8-12.2-3.8-18.2-5.7
		c0.1-0.3,0.2-0.5,0.3-0.8c9.3,2.5,18.6,5.1,27.9,7.6c1.5,0.4,3.1,1,4.6,1.2c1.3,0.2,2.6,0.1,3.9,0.1c-0.2-1.3-0.2-2.7-0.7-3.9
		c-1.3-3.5-2.8-7-4.2-10.5c-5-11.9-11-23.2-19.8-32.9c-9.3-10.3-21-16.1-34.4-18.8c-3-0.6-4.4,0.4-4.9,3.5
		c-0.7,4.5-1.7,8.9-2.8,13.4c-3.7,14.4-11.6,22.4-26.8,23.5c-1,0.1-2,0.3-3,0.6c-3.2,1-5.5,3.1-6.8,6.3c1.1,0.5,2,1,3.4,1.7
		c-1.9,1.2-3.4,2.1-5.1,3.1c1,0.7,1.8,1.3,3,2.1c-2.1,0.6-3.4,0.9-4.3,1.1c0.8,2.3,1.5,4.4,2.2,6.5c-0.8,0.4-1.5,0.7-1.7,0.8
		c1.4,2.1,2.6,4.1,3.9,6.1c-3.5,1.2-3.7,3.7-3.2,6.5c0.3,1.3,1.1,2.8,0.8,4c-1.3,4.5,1.1,5.3,4.7,5.1c0.7,0,1.4,0.2,2,0.3
		c2.4,0.5,4.3,1,6.2-1.7c0.8-1.1,3.9-0.6,5.9-0.5c0.5,0,1.5,1.6,1.3,2.2c-0.7,3,1.4,3.6,3.2,3.4c2.5-0.3,3.8,1,5.1,2.7
		c1.3,1.7,2.7,3.5,4.1,5.2c3.5-2.7,5.2-2.5,7.2,0.4c3.4,4.9,3.4,4.9,8.4,1.6c1.6-1.1,2.8-1.6,3.6,0.8c0.3,0.9,1.1,1.9,1.9,2.2
		c2.7,1.1,5.5,1.9,8.2,3c1,0.4,1.9,1.1,2.6,1.9c1.1,1.2,2.2,2.6,3.1,3.9c0.5,0.7,0.8,1.5,1.3,2.2c-0.8,0.4-1.5,0.9-2.3,1.2
		c-1,0.3-2,0.5-3.7,0.9c1.2,1,1.6,1.8,2.3,2c5.7,1.5,11.3,3.5,17.1,4.3c5.8,0.8,10.9-5.6,9.9-11.4c-0.1-0.7-1-1.5-1.7-2
		c-3.6-2.5-7.4-4.9-11-7.4c-7.5-5.3-15-10.7-22.4-16.2c-1.7-1.3-3-3.1-4.5-4.7c0.2-0.2,0.4-0.5,0.7-0.7c0.9,0.7,1.9,1.5,2.8,2.2
		c10,7.1,19.6,14.8,30.1,21.2c9,5.5,7.6,5.4,12.7-3.2c1.3-2.2,0.7-3.4-1.4-4.6c-5.7-3-11.5-6.1-17-9.4
		C393.9,515.1,388.3,511.3,382.7,507.8L382.7,507.8z M427.7,552.8c3.5-5.3,3.8-12.4,9.1-17c-0.7,4.3-1.4,8.4,2.8,12.1
		c0.4-1.7,0.8-3.1,1.1-4.4c0.6-2.2,1-4.4,1.8-6.5c0.2-0.6,1.2-1.1,1.9-1.5c1.2-0.7,2.7-1.1,3.7-2.1c2.7-2.7,5.1-5.7,7.7-8.6
		c-2.4,8.5-10,14.7-9.2,24.2c1.3-1.9,2-4,2.9-6c0.3-0.8,1.1-2.1,1.4-2.1c2.8,0.6,2.7-1.6,3.4-3.2c0.6-1.4,1.2-2.7,1.8-4
		c-2.7,12.4-4.2,24.7-1.2,37.2c-4.3-7.4-3.8-15.6-3.7-23.8c-1.6,6.1-2.5,12.2-3.3,18.3c-0.2,1.4-0.5,3.9-1.1,4
		c-3.2,0.4-2.2,2.9-2.7,4.6c-0.1,0.3-0.4,0.5-0.6,0.8c-0.4-1-0.8-1.9-1.1-2.8c-0.3,0-0.5,0-0.8,0c-0.6,4.9-1.1,9.9-1.6,13.9
		c2.9-2.7,6.1-5.7,9.4-8.8c1.8-1.7,3.3-1.3,4.3,0.9c3.5,7.6,5.2,15.7,6.9,24.8c1.2-3,2.9-5.5,3.3-8.2c0.8-5.2,1-10.4,1.2-15.6
		c0-1.2-0.7-2.6-1.5-3.6c-2-2.6-2.1-11.3,0.1-14.2c2.9,3.5,0.8,7.6,1.8,11.3c0.7-1,1.1-2,1.2-3c0.5-6.6,0.8-13.1,1.5-19.7
		c0.4-3.8,0.9-7.7,2.1-11.3c1.3-3.9,3.5-7.6,5.2-11.4c1.5-3.4,2.8-7,4.3-10.3c0.4-0.8,1.6-1.3,2.4-1.9c0.4,1,0.9,2,1.1,3
		c1,5.6-1.7,11.5,1.1,17.1c0.2,0.4,0.1,1.1,0,1.7c-0.7,3.7-1.4,7.4-2.3,11c-1.3,4.8-3,9.5-4.3,14.4c-0.3,1.2-0.5,3.2,0.2,3.8
		c2.8,2.7,2.4,5.6,1.7,8.8c-0.6,2.5-0.9,5.2-0.7,7.8c0.2,3.2,1,6.4,1.6,9.7c0.5,0,1.1-0.1,1.6-0.1c0.2-1.4,0.5-2.7,0.7-4.1
		c0.3-2.1,0-4.6,0.9-6.3c1.1-2,3.1-4.5,5-4.8c2.9-0.5,6.4-1.2,8.7,2.4c4.7,7.4,6.4,15.5,6.2,24.1c0,0.6,0.1,1.2,0.2,2
		c1.2-1,2.2-1.7,3.2-2.6c0.4,0.9,0.7,1.6,1,2.4c3-3.1,4.3-6.8,2.6-8.9c-2.7-3.3-1.8-6.6-1-10c0.7-3.2,1.3-6.4,1.9-9.7
		c0.4-2.6-0.1-5.7,1.3-7.6c2.2-3.2,2.2-6.4,2-9.7c-0.2-6.2-0.4-12.4-0.8-18.6c-0.3-5.1-1-10.3-1.5-15.4c0-0.4,0.4-0.8,0.9-1.8
		c1.4,2.4,2.5,4.3,3.5,6.2c0.2,0.6,0.4,1.3,0.5,1.9c0.1-0.1,0.2-0.1,0.4-0.2c-0.3-0.6-0.6-1.1-0.9-1.7c0.7,0.2,1.7,0.2,1.9,0.6
		c3.9,6.5,7.7,13.1,11.4,19.7c0.3,0.6,0.1,1.4,0.2,2.4c-1.2-0.6-2.1-1-3.7-1.8c1,9.7,0.8,19,2.9,28.8c1.5-1.8,2.3-2.6,3-3.4
		c3.9,1.8,4,1.6,5.8-2.3c0.7-1.4,1.9-2.6,2.9-4.1c3.1,3.5,3.1,6.7,1.1,10.1c-0.5,0.8-0.9,1.9-0.8,2.7c1,5.1,2.3,10.2,3.4,15.2
		c1-1.1,2.7-2.5,3.9-4.2c1-1.4,1.5-3.2,2.2-4.8c0.6-1.4,1.3-2.7,1.9-4.1c-0.3-2.8,1.1-4.7,2.7-5.6c0.6-2.4,0.9-3.8,1.4-5.1
		c1.8-4.4,1.6-8.8,0-13c-2.2-5.6-5-10.9-7.4-16.4c-0.6-1.3-0.5-2.9-0.7-4.3c1.1,0.7,2.3,1.4,3.3,2.1c0.4,0.3,0.7,0.8,1.4,1.6
		c0-1.3,0.1-1.9,0-2.5c-1.5-10.1-7.5-16.8-16.3-21.2c-2-1-4.2-1.9-5.9-3.3c-4.2-3.6-8.1-7.6-12.3-11.2c-9.7-8.4-20.3-14.6-33.8-13.8
		c-4.7,0.3-9.4,0.6-14.1,0.8c-0.1-0.2-0.1-0.3-0.2-0.5c3.4-1.1,6.8-2.1,10.2-3.2c-18.1-0.8-30.3,10.2-42.6,21.1
		c1.1-0.5,2.2-0.9,3.7-1.5c-2.3,5.5,2.6,2.2,3.8,3.5c-0.3,0.5-0.4,0.9-0.6,1.3c-6.4,11-12.7,22.1-19.1,33
		C424.8,549.3,425,551.3,427.7,552.8c-0.2,0.5-0.5,0.9-0.7,1.4c0.2,0,0.3,0.1,0.5,0.1C427.6,553.8,427.6,553.3,427.7,552.8z
		 M151.8,465.3c-0.4-2.1-0.8-4.3-1.3-6.4c2.6,3.5,4.5,7.2,6.9,10.6c5.1,7.1,10.5,14,15.9,20.9c1.1,1.4,2.8,2.3,4.4,3.1
		c0.6,0.3,2.3-0.2,2.4-0.7c1.4-5.3,4.7-10.4,2.3-16.1c-2.4-5.7-4.9-11.3-7.4-16.9c-0.4-0.9-1.3-1.6-2.3-2.9c-0.4,2-0.7,3.2-1,4.5
		c-4.7-1.1-5.3-4.6-5.9-8.3c-0.4-2.2-1.2-4.4-1.8-6.5c-0.3,0.1-0.7,0.2-1,0.3c0.2,0.8,0.6,1.7,0.6,2.5c-0.1,1.4-0.4,2.7-0.6,4
		c-1.1-0.9-2.8-1.6-3.2-2.8c-1.4-5-2.7-10-3.3-15.2c-0.7-5.9,0.1-12-1.3-17.6c-1.3-5.1-0.1-9.5,0.3-14.3c0.5-5.9,0-11.8-0.1-17.7
		c0-0.1-0.3-0.3-1-0.9c-0.5,2-1.2,3.6-1.3,5.3c-0.8,8.2-1.4,16.3-2.1,24.5c-0.2,1.7-0.6,3.3-0.9,5c-0.5,0-0.9-0.1-1.4-0.1
		c0-3.7,0-7.3,0-11.4c-1.4,1.1-2.1,1.7-2.8,2.3c-0.3-0.1-0.5-0.3-0.8-0.4c0.5-2.3,0.8-4.6,1.5-6.8c2.5-7.4,5.3-14.8,7.9-22.2
		c1.2-3.4,3.1-6.7,0.8-10.4c-0.3-0.5-0.2-1.4,0-2c3.1-7.5,5.1-15.6,11.8-21.2c4.6-3.8,8.9-7.8,13.4-11.6c4.7-4,9.9-7.4,14-11.9
		c6.7-7.3,14-13.6,22.5-18.6c12.1-7.1,24.9-10.7,38.9-6.6c1.1,0.3,2.4,0.2,3.6,0.2c0.1-0.4,0.2-0.8,0.2-1.2
		c-3.2-1.2-6.3-2.4-9.5-3.5c0.1-0.3,0.3-0.7,0.4-1c9.3,2.9,18.8,4.5,27.3,10.2c8.8,5.9,12.1,15.1,16,24.1c0.3-0.1,0.5-0.2,0.8-0.3
		c0-1.4,0-2.7,0-4.1c0.3-0.1,0.6-0.1,0.9-0.2c1.7,5.2,3.5,10.4,5.3,16c0.8-0.8,1.1-1.1,1.2-1.3c0.2-0.8,0.3-1.6,0.3-2.4
		c-0.3-12.9-3.4-24.9-10.6-35.8c-8.2-12.4-20-17.4-34.4-16.8c-9.9,0.4-19.2,3.8-28.4,7.2c-1.6,0.6-3.3,1.1-5,1.6
		c-0.2-0.3-0.4-0.7-0.5-1c2.6-1.8,5-3.8,7.7-5.2c8.6-4.4,17.6-7.3,27.3-8.4c2.2-0.3,4.4-1.2,6.6-1.6c4-0.6,8.2-1.9,12-1.2
		c5.5,1,10.7,3.6,16,5.6c1,0.4,1.9,0.9,2.7,1.3c3.3-5.7-0.4-9.1-3.2-12.7c-0.2-0.3-0.9-0.7-1.1-0.6c-2.3,1.9-2.9-0.6-4.1-1.5
		c-2.9-2.3-5.6-4.7-8.4-7.1c-0.3,0.2-0.5,0.5-0.8,0.7c0.2,0.9,0.5,1.8,0.8,3c-22-4.7-42.1,1-61.8,9.5c11.3-9.7,24.3-15.4,39.6-16.5
		c1.1-4.1,5.3-3.5,8.9-4c-0.1-1.3-0.2-2.4-0.3-4.5c6.4,1.6,12.1,3.1,17.9,4.6c1,0.3,2.2,1.1,2.9,0.7c4.3-1.9,8-0.3,11.6,1.7
		c2,1.1,3.1,0.5,2.7-2c-0.2-1-0.4-2-0.9-2.9c-1.5-2.6-3-4.6-3.4-8.1c-0.4-3.7,2.1-6.2,0.8-9.9c2.1,0.8,3.5,1.2,5.2,1.8
		c-0.3-2.3-0.6-4.1-0.8-5.9c0.4-0.2,0.7-0.5,1.1-0.7c2.2,2.3,4.5,4.5,6.9,7c1.4-0.9,3.5-2.1,5.5-3.3c0.2,0.2,0.5,0.5,0.7,0.7
		c-0.4,1.3-1,2.5-1.2,3.8c-0.1,0.9,0.1,2.1,0.6,2.7c0.4,0.4,1.6,0.2,2.4,0c1.2-0.3,2.4-0.8,4.3-1.5c-1,1.7-1.6,2.7-2.3,3.9
		c1.9-0.2,3.4-0.3,4.9-0.4c0.2,0.3,0.4,0.7,0.6,1c-0.5,0.2-1.1,0.3-1.6,0.7c-4.9,3.5-9.7,7.1-14.8,10.4c-2.7,1.8-3.8,4.1-3.3,7.2
		c0.4,2.7,0.8,5.4,1.4,8.1c0.1,0.5,0.7,0.9,1.8,2.1c1.4-6.2,1.1-12.5,5.8-16.4c0.3,0.1,0.7,0.3,1,0.4c-1.1,3.5-2.3,7-3.4,10.5
		c0.3,0.1,0.6,0.3,1,0.4c2-1.9,3.8-4.2,6.1-5.7c2.9-2,6.1-3.7,9.4-4.9c2.7-1,5.6-1.3,8.5-1.8c1.5-0.3,3.1-0.3,4.7-0.4
		c2.2,0,4.5,0.5,6.7,0c8.4-1.7,16.3-0.3,23.7,3.9c1.3,0.7,2.3,1.9,3.5,2.8c-0.2,0.3-0.3,0.6-0.5,0.9c-4.4-1-8.8-1.8-13.2-3.1
		c-9.2-2.6-17.3-0.5-24.8,4.9c-1.9,1.4-3.9,2.7-5.9,4c-0.7-1.2-1.3-2.1-2.3-3.8c-3.6,3.6-6.8,6.9-10.3,10.4
		c-0.4-1.4-0.7-2.4-1.2-4.3c-3.6,8.3-6.9,15.6-7.3,23.9c-0.1,2.4,1.2,4.8,1.9,7.2c0.4,0,0.7,0,1.1-0.1c1.7-2.4,3.2-4.9,5-7.1
		c1.8-2.1,3.3-4.8,7.5-5.5c-1.5,2.7-2.7,4.8-3.8,6.8c8.4-9.3,18.6-15.3,30.8-17.3c11.8-1.9,23.6-1.5,34.3,4.9
		c-0.6,0.5-1.1,0.5-1.7,0.5c-7.6-0.5-15.2-1.5-22.8-1.3c-14.3,0.4-25.2,7.4-33.7,18.7c-4,5.4-5.2,11.8-7.1,17.9
		c-2.6,8.1-3.6,16.4-3.2,24.9c0.1,1.2,0.6,2.4,0.9,3.6c0.4,0,0.9,0.1,1.3,0.1c1.1-7.4,2.1-14.9,6.7-21.3c0.7,0.5,1.4,1,2.1,1.5
		c6.3-7.3,9.9-17.1,20.3-20.8c-0.6,1.4-1.1,2.5-1.6,3.7c0.5-0.1,0.8,0,0.9-0.2c0.5-0.4,1-0.9,1.5-1.4c5.7-6,12.5-10.2,20.9-11.3
		c14.8-1.9,27.7,2.6,38.8,12.2c6.2,5.4,12.8,10.1,20.4,13.5c3.8,1.7,7.5,3.9,11,6.2c11.9,8,19.6,19,22.2,33.1
		c1.5,8,1.8,16.3,2.6,24.4c0.1,0.7-0.3,1.9-0.8,2c-2.3,0.6-1.6,2.2-1.2,3.5c3.5,9.9,4.7,20.2,4,30.6c-0.3,4.2,0.8,8.3-2.4,12.6
		c-3.1,4.2-3.7,10.2-5.5,15.3c-0.6,1.7-1.5,3.2-2.3,4.8c-1-1.3-2.1-2.6-3.1-3.9c-1.5,4.2-3.1,8.6-4.6,13.1
		c-1.7,4.8-2.2,9.7-0.6,14.7c1,3.3,2.2,6.5,3.1,9.8c0.7,2.5,1.6,3.7,4.3,2.2c1.8-1,3-0.6,2.8,1.8c5.8-0.8,8.5-4.7,11.5-9.1
		c7.1-10.5,10.8-21.7,9.8-34.4c-0.1-1.2,0-2.4,0-3.7c0.4,0,0.7,0,1.1,0c0.5,3.6,1,7.3,1.5,10.9c0.5-0.1,1-0.1,1.5-0.2
		c-0.5-6.2-0.6-12.4-1.5-18.6c-1-7-3.2-13.8-3.7-20.8c-0.7-9.3-0.2-18.6-0.2-28c0-0.8,0.5-1.5,1-3c4,5.5,2.4,11.3,4,16.5
		c1.2-5.4,1.7-10.7,2.4-16.1c0.1-0.9,0.7-1.7,1-2.5c0.3,0.1,0.6,0.1,0.9,0.2c-0.4-1.6-0.9-3.3-1.3-4.9c-0.2-1.1-0.8-2.8-0.4-3.2
		c2.1-1.6,0.8-3.1,0.1-4.5c-1.3-2.5-2.9-4.9-4.3-7.4c-0.6-1.1-1.1-2.2-1.6-3.4c0.3-0.2,0.6-0.5,0.9-0.7c2.6,1.8,5.2,3.6,8.6,5.9
		c-1.7-8.3-6.1-14.3-10.1-20.6c0.7-0.4,1.3-0.8,2.5-1.5c-3-3.1-5.8-5.9-8.5-8.8c0.2-0.2,0.3-0.5,0.5-0.7c2.2,1.2,4.3,2.5,7.3,4.1
		c-6.1-9.6-14.3-15.5-22.8-21.2c0.2-0.3,0.4-0.6,0.6-0.9c2.9,0.9,5.9,1.9,8.8,2.8c0.1-0.2,0.2-0.4,0.2-0.6
		c-4.4-3.6-8.8-7.2-13.2-10.9c0.2-0.3,0.5-0.7,0.7-1c2.5,0.7,4.9,1.4,7.4,2.2c-2.8-3.1-5.8-5.5-8.7-8.1c-0.6-0.5-0.8-1.4-1-2.2
		c-0.3-1.1-0.1-2.5-0.7-3.4c-3.5-5.1-8.5-8.9-14.2-10.8c-5.8-1.9-9.2-5.9-12.5-10.4c-4.6-6.1-8.9-12.4-14-18
		c-6.4-7-13.4-13.5-20.4-20c-2.8-2.6-4.6-4.9-2.4-8.7c0.1-0.1-0.2-0.4-0.2-0.4c-4.5,0-9,0.3-13.3-0.1c-9.5-0.7-19-1.9-28.6-2.4
		c-36.9-2-73.5,0.5-109.9,6.6c-8.4,1.4-16.4,3.5-21.6,11.2c-0.4,0.5-0.9,1.1-1.5,1.3c-4.5,2-6.6,6.1-9,10c-0.8,1.3-1.6,2.5-2.4,3.7
		c-0.2,0.2-0.5,0.3-0.8,0.5c-0.6-0.8-1.1-1.6-2.2-3.2c-3.1,4.9-6.4,9-8.6,13.6c-5,10.5-9.3,21.2-14.1,31.8
		c-5.5,12.1-11.1,24.2-16.9,36.1c-1.7,3.5-4.1,6.5-6.2,9.8c-0.4-0.2-0.7-0.4-1.1-0.6c1.1-5.4,2.7-10.5,5.9-15.3c1.6-2.3,3-5.2,3.2-8
		c1.1-11.8,5.3-22.1,12.2-31.7c6.3-8.6,12.3-17.5,14.6-28.3c0.6-2.9,2.7-5.6,4.2-8.3c1-1.9,2.1-3.7,3.1-5.4c-3.9-1.5-7.1-2.5-10.1-4
		c-1.9-0.9-2.4-2.4,0.2-3.4c-1.4-1.3-2.8-2.4-4.2-3.6c0.1-0.2,0.3-0.4,0.4-0.6c2.1,0.6,4.1,1.1,6.2,1.7c-9.7-6-19.7-9.2-30.7-4
		c-2.2,1-3.8,3.2-6.1,4.1c-12,5.1-21.5,12.9-28.9,23.7c-10.4,15.1-19.9,30.7-23.4,48.9c-2,10.7-2.4,21.7-2.7,32.6
		c-0.7,24.5-1,49-8.9,72.6c-2.1,6.2-5.3,12-8.1,17.9c-0.3,0.7-0.6,1.3-1.4,2.9c5.7-2.8,8.3-7.3,11-11.7c-1.7,6.9-5.2,12.1-13.7,13.1
		c3.8,1.8,6.4,0.7,8.8-0.8c4.3-2.6,6.3-6.7,7.7-11.3c1.7-5.2,1.5-10.7,3-16c1.8-6.4,2-13.2,2.8-19.8c0.8-6.9,1.9-13.8,2.3-20.7
		c0.8-12.9,1.3-25.9,1.9-38.8c0.1-1.7,0.2-3.4,0.7-5c1.3-4.4,3.1-8.8,4-13.3c1.7-8,3.4-15.8,8.4-22.5c2.7-3.6,5.5-7.2,8.3-10.8
		c5.4-6.9,10.5-14.1,16.5-20.5c4-4.2,8.9-7.9,14-10.7c6.3-3.5,13.3-5.2,21-3.9c-1.7-1.5-3.4-3-5.1-4.5c6.4,1,11.9,3.7,16.5,8
		c1,1,0.8,3.4,1.1,5.1c-1.3,0.1-2.7,0.3-4,0.4c-0.5,0.1-1.1,0.1-2.3,0.2c0.7,2,1,3.8,1.9,5.4c1.2,2.2,0.6,3.3-1.7,3.5
		c-1.7,0.1-3.5,0-5.2,0c-0.1,0.4-0.1,0.7-0.2,1.1c2.5,1.1,4.9,2.1,7.6,3.3c-4,3.4-8,5.8-13,5c-2.4-0.4-4.8-1.3-7.1-2.2
		c-4.6-1.8-9.6-2.3-13.6-1.1c7.3,2.1,15.1,2,21.7,5.9c0,0.3,0,0.7,0,1c-2.3,0.2-4.7,0.4-7.7,0.6c3.7,1.3,6.8,2.4,9.9,3.6
		c0,0.4,0.1,0.9,0.1,1.3c-3.5,1.4-6.9,2.8-10.4,4.2c1.6,0.4,3.2,0.8,5.8,1.4c-2.7,2.8-4.9,5.1-7.2,7.4c1.1,0.5,2,0.9,3.1,1.4
		c-3.6,4.8-7.4,9.2-8.6,15c1.2-1.3,2.3-2.6,3.5-3.9c0.4,0.2,0.7,0.4,1.1,0.7c-4.9,9.1-9.8,18.3-14.6,27.4c0.3,0.2,0.5,0.4,0.8,0.6
		c2.6-1.5,5.1-3,7.7-4.5c0.2,0.2,0.4,0.4,0.6,0.6c-1.1,1.5-2,3.1-3.2,4.5c-4.1,4.7-7.3,9.8-8,16.3c-0.6,5.6-1.6,11.2-2.3,16.8
		c-0.2,1.7-0.3,3.4-0.4,5.5c1-0.8,1.4-1.2,2.1-1.7c-0.7,4.3-1.5,8.1-1.9,11.9c-0.1,1,0.2,2.4,0.9,3c2.5,2.3,1.5,5,1.1,7.5
		c-0.4,2.8-1.5,5.6-1.8,8.4c-0.4,3.6-0.4,7.3-0.6,11c-0.4,0-0.7,0-1.1,0c0-5.6,0-11.3,0-16.9c-0.2,0-0.4,0-0.6,0
		c-0.3,0.5-0.5,1.1-0.8,1.6c-0.3-1.3-0.6-2.6-1-4.3c-1.1,1-1.7,1.5-2.3,2c-0.3-0.1-0.6-0.2-0.9-0.3c0.9-5.4,1.8-10.8,2.7-16.2
		c-0.4-0.1-0.8-0.1-1.2-0.2c-3.1,6.6-5.8,13.5-5.2,21c0.2,2.5,1.9,2.9,3.6,0.7c0.1,0.1,0.1,0.2,0.2,0.3c-0.4,7.4,1.2,14.3,5.1,20.8
		c3.2,5.2,4.7,11,3.9,17.3c-0.4,3.6-0.2,7.3-0.3,10.9C145.7,455.3,147.9,460.5,151.8,465.3z M162.1,546.2c0.3-0.1,0.6-0.2,0.9-0.2
		c0.8,2.4,1.6,4.8,2.2,7.3c0.6,2.4,1.2,4.8,1.4,7.3c0.3,2.3,0.1,4.7,0.2,7c0.3,0,0.6-0.1,1-0.1c0.2-0.9,0.1-1.9,0.6-2.6
		c0.6-1,1.6-1.7,2.4-2.5c0.7,0.9,1.8,1.8,2,2.8c0.3,2.2-0.2,4.5,0.1,6.8c0.2,1.9,0.5,4.3,1.7,5.5c4.7,4.9,6.6,10.8,7,17.4
		c0.1,0.8,0.3,1.6,0.5,2.7c6.2-6.3,7.4-13,3.8-20.4c-0.9-1.7-1.6-3.5-2.1-5.4c-0.2-0.8-0.4-2.2,0.1-2.5c2.4-2.1,1.5-4.4,0.7-6.6
		c-1.9-5.2-4.1-10.3-6.1-15.4c-0.4-1.1-0.8-2.2-1.2-3.3c0.4-0.3,0.7-0.6,1.1-0.8c2.4,2.5,4.9,4.9,7.3,7.4c0.1-1.1,0.2-1.9,0.4-3.5
		c9.7,7.2,16.1,15.9,19.6,26.7c5-10.2,2.6-22.2-5.9-28.2c-0.4,0.8-0.8,1.5-1.4,2.7c-4.7-7.1-9.3-13.8-13.7-20.6
		c-0.3-0.5,0.3-2.4,0.9-2.7c3-1.1,1.8-2.6,0.9-4.5c-2-4.4-7-7.5-6.1-13.5c2.8,1.8,5.6,3.6,8.3,5.3c0.3-0.3,0.6-0.6,0.8-0.9
		c-1.6-2.3-3-4.8-4.8-6.9c-2.3-2.7-4.9-5-9-4.4c-1.1,0.2-2.5-0.8-3.6-1.5c-4.8-2.8-9.4-6.1-14.4-8.4c-4.4-2-9.3-3.2-14.6-2.7
		c0.2,0.7,0.3,1,0.4,1.3c0,0.3,0,0.6,0,1.2c-11.9-2.3-21.6,2.4-30.4,9.4c-9.5,7.5-18,16.3-28.8,22.1c-1.2,0.6-2.3,1.5-3.2,2.6
		c-2.9,3.3-5.7,6.8-8.5,10.2c0.3,0.2,0.5,0.5,0.8,0.7c2.2-1.7,4.5-3.3,6.7-5c0.1,0.1,0.2,0.3,0.2,0.4c-2.2,2.9-4.3,5.9-7.1,9.6
		c2.2,0,3.3,0,4.5,0c-2.7,5.7-5.9,10.9-4.1,17.6c2.8-1.4,5.1-2.5,7.7-3.9c0.4,1.5,0.8,2.9,1.3,4.5c1-0.3,1.9-0.6,2.9-0.9
		c0.9,2.9,0.9,5.1-2,6.6c-0.9,0.5-1.7,1.5-2.2,2.4c-2,4.1-2,4.1-5.4,1.4c-0.5-0.4-1.1-0.6-1.7-0.8c-4.8,9.3-4.1,18.4,1.9,22.4
		c0.2-1.1,0.1-2.1,0.5-3c2-4.5,3.5-9.4,6.2-13.4c2.5-3.7,5.8-3.2,8.1,0.7c1.4,2.5,3.8,4.6,3.1,8c-0.1,0.6,0.7,1.4,1,2.1
		c1.5-2.3,2.7-4.6,2.5-6.7c-0.7-8.4-2.4-16.7-2.9-25.1c-0.5-8.3,3-15.5,9.4-20.7c4-3.2,7.6-6.3,9.7-11c0.7-1.7,2-3.1,3-4.6
		c0.2,0.1,0.3,0.2,0.5,0.3c-2.4,7.8-4.8,15.5-7.3,23.3c0.5,0.2,1,0.4,1.5,0.6c1.5-2.7,3-5.3,4.5-8c0,2.5-0.8,4.7-1.6,6.8
		c-2.6,7-5.7,14-5.1,21.8c0.1,1.4,0.7,2.7,1.1,4.1c0.4,0,0.7-0.1,1.1-0.1c0.8-1.7,1.7-3.4,2.6-5.3c0,4.6-0.1,8.8,0,12.9
		c0.2,4.7,0.5,9.5,5.6,10.4c4-2.5,7.3-4.6,10.8-6.6c0.4-0.2,1.5,0,1.8,0.3c3.4,4.5,8.1,8.3,7.6,14.8c-0.1,0.7,0,1.5,0,2.2
		c4.7-9.5,2.1-19.5,1.9-30.3c0.7,2.3,1.2,3.7,1.9,5.9c1.2-5.9,0.2-11.8-2.5-19.7c-0.9-2.5-1.2-5.3-1.5-7.9c-0.3-2.9-1.3-5.2-4-6.7
		c-1.1-0.6-2-2-2.6-3.2c-3.2-5.9,1.9-10,3.6-15c0.5,2.9,1,5.8,1.5,8.7c0.4,0,0.8-0.1,1.1-0.1c1.3-4.1,2.5-8.3,3.8-12.4
		c0.7,0.2,1,0.2,1.1,0.3c0.3,0.3,0.6,0.7,0.8,1.1c5.6,9.7,9.1,20,10.8,31.1c1,6.8,2.7,13.5,3.7,20.4c0.7,4.5,0.8,9.2,1.1,13.8
		c0.1,1.7,0,3.3,0,5.8c1.9-3.4,3.3-6.2,4.8-8.9c0.3,0.1,0.6,0.2,0.9,0.4c0.3,0.9,0.5,1.8,0.8,2.7c0.4-0.1,0.8-0.2,1.3-0.2
		C164.5,568,161.5,557.4,162.1,546.2z M265.4,503.3c-14.5,13.6-27.5,28.5-38.8,45.6c3.3,0.4,7.1-0.6,6.9,3.8c-0.1,3.3-2.9,3-5.2,2.8
		c-2.3-0.1-4.8-0.3-4.5-4.2c-2.7,3.9-5.4,7.7-8.3,11.8c10,1.9,25.8-6.9,32.6-17.9c-3.5-2.7-1-5.1,0.9-7c6.5-6.4,13.2-12.6,19.8-18.8
		c0.7-0.7,1.7-1.1,2.5-1.6c0.3,0.3,0.5,0.6,0.8,0.9c-9.2,7-15.3,16.1-19.6,27.6c5.6-4.7,10.4-8.8,14.5-12.3
		c-1.1-1.6-2.9-3.5-2.5-4.1c1.2-2,2.9-3.9,4.9-5.1c0.6-0.4,2.7,1.8,4.5,3.1c4.2-3.6,9.2-7.9,14.2-12.1c0.3,0.2,0.6,0.4,0.8,0.6
		c-0.6,1.7-1.2,3.5-2.2,6.3c3.8-1.3,6.8-2.2,10.2-3.4c-0.9-0.7-1.1-1-1.4-1.1c-1.2-0.5-2.5-1-3.8-1.5c1-1.2,1.9-2.3,2.9-3.5
		c1.3-1.6,2.6-3,3.8-4.7c0.7-1,1-2.2,1.7-3.9c-0.1-0.1-0.7-1-1.7-2.5c2.9,0.3,5.2,0.6,8.2,0.9c-2-2.7-3.4-4.6-5.1-6.9
		c1.6-0.2,2.5-0.3,3.1-0.4c1.1-3.5-5.8-4.6-2.3-8.5c-1.2-0.9-2.3-1.8-3.7-2.9c1.4-0.8,2.3-1.4,3.4-2c-3.1-4.5-7.1-6.6-12.2-6.8
		c-12.6-0.4-19.6-7.9-23.4-19c-1.5-4.3-2.3-8.8-3.6-13.2c-0.6-2.3-1.7-4-4.6-3.3c-10.6,2.6-20.2,7.2-27.6,15.4
		c-9.9,10.9-17,23.6-22.4,37.2c-1.4,3.6-2.4,7.4-3.5,11.1c0.3,0.3,0.7,0.6,1,0.9c8.8-3.4,17.6-6.9,26.3-10.3
		c-0.1-0.2-0.2-0.4-0.3-0.6c-4.4-0.2-8.9-0.5-13.3-0.7c0-0.4,0-0.8,0-1.3c7.4,0,14.8,0,22.3,0c-0.7,0.4-1.4,0.9-2.3,1.2
		c-9.8,4-19.6,8-29.4,11.9c-5.8,2.3-8,5.5-7.6,12.8c11-4.8,21.8-9.5,32.5-14.1c-0.3,0.6-0.8,1.1-1.3,1.3
		c-9.2,4.3-18.3,8.5-27.5,12.8c-1.5,0.7-3.2,1.3-4.6,2.2c-0.6,0.4-0.6,1.7-0.8,2.6c0.8,0.2,1.6,0.6,2.4,0.6c0.6,0,1.3-0.4,1.9-0.8
		c13.1-7.5,26.2-15.1,39.3-22.7c1-0.6,1.9-1.1,2.9-1.7c0.2,0.3,0.3,0.5,0.5,0.8c-2.7,2-5.3,4.2-8.3,5.9c-11.7,6.6-23.5,13-35.2,19.6
		c-0.8,0.4-1.8,2.2-1.5,2.6c2.4,4.4,5.1,8.7,8.2,13.8c13.6-16.1,26.2-32.1,42.6-44.4c-0.3,0.9-0.9,1.6-1.6,2.2
		c-11.2,11.9-22.5,23.9-33.7,35.8c-4.2,4.5-7.4,9.1-4.4,15.7c1.2,2.6,1.1,5.8,1.6,8.9C231.9,540.6,245,518.6,265.4,503.3z
		 M516.8,271.2c-0.3,0.2-0.6,0.4-0.9,0.6c0.5,1.2,0.9,2.5,1.6,3.6c6.9,10.3,9.1,22.2,9.2,34.1c0.2,15.5,3.6,30,11.3,43.4
		c1.1,1.9,2.5,3.8,4.1,5.4c5.2,5.4,12.7,5.3,17.8-0.2c1.9-2,3.7-4,5.2-6.3c3.5-5.5,6.8-11,10-16.7c1.2-2.1,2.6-4.6,2.7-6.9
		c0.6-9.2,1-18.3,1.1-27.5c0-4-0.8-7.9-1.2-11.9c0.4-0.1,0.7-0.1,1.1-0.2c1.1,6.1,2.2,12.3,3.4,18.5c0.2-0.2,0.4-0.4,0.4-0.6
		c1.3-16.6-1.5-32.2-11.8-45.8c-1.3-1.7-3.4-3.2-5.4-3.7c-8.6-2.1-17.3-3.8-26-5.6c-1.2-0.2-2.5,0-4.5,0
		c16.8,15.9,28.6,33.6,30.1,56.5c-0.3,0.1-0.6,0.3-0.8,0.4c-1.8-5.2-3.7-10.3-5.5-15.5c-0.4,0.1-0.8,0.2-1.2,0.4
		c0.1,1.7,0.2,3.3,0.3,5c-4.9-6.7-9.6-13.2-16.4-17.9c1.1,2,2.3,3.9,3.4,5.9c-11.1-7.1-16.4-20.2-28.9-25.6
		c3.3,6.4,7.4,12.3,8.6,19.7c-1.7-1.1-3-2.6-4.2-4.1C519,274.4,517.9,272.8,516.8,271.2z M312.7,480.1c7.7-6.3,11-7.7,17.8-8.4
		c11.6-1.2,18.2-7.1,20.6-18.4c0.3-1.5-0.1-3.2-0.1-4.8c-1.4,0.6-2.9,1.1-4.2,1.7c-1.7,0.8-3.2,1.7-4.9,2.4
		c-3.8,1.5-7.6,1.4-11.2-0.7c-6.9-4.1-10.6-14.6-7.9-22.2c2.1-5.9,9.1-8,14-4.2c1.8,1.4,2.2,2.7,0.2,4.4c-4.1,3.6-3.1,8.8,2.1,10.9
		c4.8,2,10.4,1,13.6-2.4c5.5-5.9,6.1-8.5,2.7-14.8c-6.6-12.3-16.9-19.9-30.9-21.6c-6.9-0.8-14.1-0.8-21.1,0.1
		c-16.5,2.1-28.9,10.5-36.2,25.6c-2.5,5.1-0.9,11.2,3.6,14.9c3.6,3,10,2.7,14.3-0.6c3.5-2.7,3.7-6.2,0.6-9.3c-2.1-2.1-2-3.4,0.4-5.1
		c4.4-3.1,11.1-0.9,13,4.3c2.3,6.2,0.4,14.7-4.3,19.3c-5.4,5.2-11.4,4.8-17.7,1.9c-1.9-0.9-4-1.2-6-1.9c0.2,2.3-0.1,4.7,0.6,6.9
		c2.2,6.7,5.4,13.1,13.2,14.2c8,1.1,15.8,2,22.3,7.3c0.1,0,0.2,0,1.1-0.2c2.2-16.1-0.5-32.7,1.7-49
		C310.9,446.5,311.8,462.8,312.7,480.1z M213.5,469c0.3,0.2,0.7,0.5,1,0.7c0.3-0.4,0.7-0.8,1-1.3c7.8-10.6,15.5-21.3,23.4-31.9
		c1.6-2.2,3.6-4.1,5.7-5.7c2.7-2.1,6-3.7,8.6-5.8c6.9-5.6,13.4-11.6,20.4-17c3.8-2.9,8.2-5.4,12.7-7.2c16.6-7,33.5-6.6,50.4-1.2
		c2.9,0.9,5.7,1.9,8.5,2.8c-1-1.8-2.4-2.8-3.8-3.9c-1.9-1.5-1.3-3,0-4.9c1.1,0.8,2.2,1.5,3.1,2.3c7.2,6,14.4,12.2,21.7,18.1
		c10.2,8.2,20.3,16.5,30.7,24.4c12.1,9.2,21.8,20.2,27.3,34.7c2.5,6.6,5,13.1,11.1,17.6c6.2,4.6,6.1,4.9,12.8,1.2
		c2.2-1.2,2.9-2.7,1.9-5c-2-4.9-3.7-9.8-5.9-14.5c-5.1-10.6-11.7-20-21.8-26.6c-3.7-2.4-7-5.5-10.3-8.4c-9.2-8.2-18-16.6-28.5-23.3
		c-6.3-4-12-9-17.8-13.7c-0.9-0.7-1-2.4-1.4-3.6c0.2-0.2,0.5-0.3,0.7-0.5c-3.8-3-7.6-6.2-11.5-9.1c-8-6.2-17.1-9.2-27.3-9.3
		c-20.5-0.2-39.9,4.5-58.7,12.3c-2.6,1.1-4.9,2.9-7.4,4.3c0.1,0.3,0.3,0.5,0.4,0.8c1.2-0.1,2.4-0.1,3.6-0.2c-1,1.3-2.2,2-3.2,2.9
		c-2.8,2.6-6.7,4.9-8,8.2c-1.3,3.3-3.3,5.4-5.6,7.7c-2,2.1-4.2,4-5.8,6.3c-5.8,8.6-11.7,17.1-16.9,26
		C220.8,453.4,217.3,461.3,213.5,469z M302.2,534.9c0-0.5,0.1-1,0.1-1.4c5.4-3.3,11.9-2.1,18.1-3.9c-0.7-0.6-0.9-0.9-1.2-1
		c-0.8-0.2-1.6-0.3-2.4-0.4c-16.7-1.8-28.6,6.3-38.2,18.8c-1,1.4-1.7,3.3-1.8,5c-0.1,6.8,1.6,13.2,8.2,16.4c4.1,2,8.7,3.6,13.2,3.9
		c7.3,0.5,14.8-0.2,22.1-0.4c1.1,0,2.3-0.2,3.4-0.3c1-0.1,2-0.2,3-0.2c0.1,0.4,0.1,0.8,0.2,1.2c-5.2,1.3-10.3,2.6-15.8,4
		c0.9,0.3,1.5,0.7,2.1,0.7c11.9-0.1,23-2.9,32.2-10.9c2.6-2.2,3.7-5,3.7-8.4c0-11.6-8.7-20.6-20.3-20.9c-6.8-0.2-13.6-0.4-20.5-0.9
		C306.4,536.1,304.3,535.4,302.2,534.9z M401.7,218c-0.2,0-0.3-0.1-0.5-0.1c-1.3,1.7-2.7,3.4-3.9,5.1c-0.4,0.7-0.8,1.9-0.5,2.4
		c1.5,2.4,3.2,4.8,5.1,7c3,3.6,6.6,6.7,9.3,10.5c5.7,8.2,11.8,16,19.6,22.4c2.5,2,5.9,2.4,8.8,0.4c-0.8-0.5-1.5-0.9-2.6-1.6
		c3.4-1.2,6.4-2.3,9.4-3.3c-3-0.1-5.7,0.8-8.5,1c-2.1,0.1-5.9-0.2-6-1c-0.7-3.5-4.3-2.7-5.8-4.6c-0.1-0.1,0-0.4-0.1-0.8
		c1.1-0.8,2.3-1.6,4.3-3c-2.3-0.1-3.6-0.2-5.2-0.3c0.8-0.5,1.3-0.7,1.7-0.9c-2.3-0.8-4.6-1.5-7.3-2.4c2.2-2.7,4-4.8,5.8-6.9
		c-3,0.4-4.8,3.8-8,2c1-5,2-9.5,2.8-13.3c-1.8-0.1-4,0.4-4.8-0.4c-0.8-0.8-0.7-3.1-0.3-4.5c1.1-4,4.9-5.1,8.2-6.3
		c11.2-4.1,21.2-1.1,30.4,5.8c16.3,12.3,29.1,27.4,38.1,45.7c0.4,0.8,1,1.4,1.6,2.1c0.8,0.8,2.2,1.4,2.5,2.4
		c2.3,7.5,4.9,15,6.6,22.6c6.3,29,12.8,58,22.4,86.2c2.9,8.5,6.6,16.5,13.6,22.5c2.2,2,4.8,3.3,7.8,2.5c-3.2-2.5-6.7-4.7-9.4-7.6
		c-2.7-2.8-4.5-6.4-6.7-9.7c0.3-0.2,0.6-0.4,0.8-0.5c1.5,2.1,2.9,4.3,4.6,6.2c1.7,1.8,3.5,3.5,5.5,4.9c2,1.5,4.2,3.2,7.3,1.6
		c-0.6-0.7-1-1.3-1.5-1.7c-4.7-3.7-8-8.4-10.4-13.8c-4.1-9.5-8.1-19-12.1-28.5c-7.3-17.3-10.2-35.8-14.2-54
		c-2.5-11.5-4.9-23.2-8.9-34.3c-4.7-13-13.1-24.2-21.7-34.9c-9-11.2-19.3-20.3-34.2-22.5c-0.6-0.1-1.2-0.7-1.8-1
		c0-0.3,0.1-0.5,0.1-0.8c1.8-0.2,3.6-0.4,5.9-0.7c-5.2-3.1-10.3-1.8-15.4-1.2c0-0.3,0-0.5-0.1-0.8c2.1-0.9,4.2-1.8,6.7-2.9
		c-5.7-1.3-25,5.8-27.7,10.3c1.9-0.8,3.4-1.5,5-2.2c0.2,0.2,0.5,0.5,0.7,0.7c-1.7,2.3-3.4,4.6-5.2,6.9c-1.6,2.1-3.1,4.2-4.9,6.1
		c-0.7,0.7-2.2,0.6-3.4,0.8c-0.2-1.1-0.7-2.3-0.6-3.4c0.2-1.3,1-2.5,1.5-3.8c-1.6-0.6-3.1-1.2-4.8-1.8
		C401.3,219.7,401.5,218.8,401.7,218z M165.1,398.5c-1.1,1.4-1.7,1.8-1.9,2.4c-8.4,19.9-2.2,36.5,14.2,49c2.4,1.9,5.7,2.8,8.8,3.6
		c5.9,1.4,10.7-1.5,15.4-4.6c-1.4-0.7-2.8-1.2-4.2-1.1c-6.8,0.2-11.9-3.3-16.8-7.3c-1.6-1.4-2.4-2.9-1.5-4.2
		c3.4,0.6,6.2,1.4,8.9,1.4c5.9,0,11.7-0.3,17.6-0.7c1.1-0.1,2.1-0.8,3.1-1.2c0.1-0.4,0.1-0.7,0.2-1.1c-26.4,2.5-37.4-12-40.3-35.7
		c-2.5,11-1.2,21.4,4.6,31.1C165.9,421.1,166.1,410,165.1,398.5z M239.2,403.9c-0.5-4.8-0.5-9-1.3-13.1c-0.7-4-1.9-8-4.9-11.1
		c0,1.2,0.4,2.2,0.7,3.3c4.3,14.9,2,29.4-11.3,39.1c-12.7,9.2-33.3,8.2-41.8-11c-6.5-14.6-1.8-32.6,10.9-42.4c1-0.8,2-1.6,3-2.4
		c-0.3-0.4-0.6-0.8-0.9-1.2c-3,2.1-6.2,3.9-8.9,6.2c-13.1,11.5-14.7,33.3-8,46.3c4,7.7,10.3,12.5,18.9,13.5
		c11.1,1.3,21-1.9,29.3-9.4c7.3-6.5,14.4-13.3,21.5-20c1.7-1.6,3.3-3.5,4.5-5.5c1.1-1.9,1.2-4-1-6.2
		C248.8,396.9,244.9,400.8,239.2,403.9z M372.3,385.1c-0.4,0.1-0.7,0.2-1.1,0.3c0.6,2.4,0.6,5.3,2,7.2c1.9,2.8,4.4,5.9,7.4,7.3
		c5.7,2.6,9.9,6.8,14.3,10.9c9,8.3,19.2,13.3,31.8,11.9c6.7-0.7,12.2-3.4,16.6-8.5c7-8.1,8.4-17.8,7.2-27.9
		c-1.7-14.4-8.8-25.2-22.7-30.6c-1.2-0.5-2.6-0.6-4.3-1c0.4,0.7,0.4,0.8,0.5,0.9c0.3,0.2,0.6,0.4,0.9,0.5
		c15.4,7.1,21.8,19.7,21.3,36.1c-0.4,11.5-8,21.6-17.3,25.4c-16.7,6.8-39.9-5.8-41.1-27.1c-0.3-5,0-10.1,0-15.1
		c-3.2,7-3.7,14.5-2.6,22.3C378.8,396.5,376.5,394.1,372.3,385.1z M425.9,442.8c5.8,5.7,13.1,6.4,20.8,2.1
		c12.2-6.8,18-17.6,18.7-31.3c0.3-7.2-1.2-14-4.3-20.5c-0.4-0.9-1.8-1.3-2.8-2c-0.2,1-0.7,2-0.7,3c0,5.1,0.4,10.2,0.2,15.3
		c-0.5,16.6-13.5,30.7-30,32.7C427.3,442.3,426.8,442.5,425.9,442.8z M395.4,403.7c0.4,1.3,0.5,1.9,0.8,2.3
		c5.3,7.8,12.7,11.5,22,11.4c9.9-0.1,17.6-4.2,22-13.4c0.6-1.3,0.9-3.8,0.2-4.4c-3.8-3.3-5.8-3.3-8.1-0.9
		c-7.5,8.1-18.7,9.2-27.7,2.8c-0.8-0.6-1.6-1.1-2.8-1.9C402.1,404.8,399.3,404.9,395.4,403.7z M184.8,411.8
		c-0.2,0.2-0.5,0.3-0.7,0.5c0.8,1.4,1.4,2.9,2.3,4.2c10,13.2,30.6,12.4,40.4-1.7c3.1-4.4,2.8-5.6-2.2-7.1c-1.2-0.3-3,0.5-4.1,1.4
		c-8.6,6.1-17,6.8-24.4,1.7c-2.4-1.6-3.5-1.8-4.7,1.2c-1.1,3.1-2.6,3.2-5.1,1.1C185.8,412.6,185.3,412.2,184.8,411.8z M207.8,457.2
		c-6.4,2.5-11.8,6.5-14.7,12.6c-2.8,5.9-4.3,12.4-6.3,18.5c-0.1-0.2-0.6-0.8-1.1-1.6c-4.8,7.2-3.8,10.3,5.1,17.6
		c3.8-9.7,7.7-19.5,11.5-29.2c-0.5,0.1-1.3,0.3-3.3,0.8c3.2-4.8,5.8-8.7,8.5-12.7c-0.2-0.1-0.4-0.3-0.6-0.4
		c-1.3,1.4-2.6,2.8-3.9,4.2c-0.4-0.3-0.7-0.5-1.1-0.8C204,463.2,205.9,460.2,207.8,457.2z M493.4,581.9c-0.5,0.1-1.1,0.1-1.6,0.2
		c-0.8,1.9-2,3.8-2.5,5.8c-0.9,4-1.7,8-2,12.1c-0.6,9.1-0.4,18.2,2.4,27c0.3,1.1,1.4,1.9,2.2,2.8c0.8-0.8,2.1-1.5,2.4-2.5
		c3.9-12.1,5.6-24.4,2.9-36.9C496.7,587.4,494.8,584.7,493.4,581.9z M128.3,581.2c-0.5,0-1,0-1.5,0c-1,2.3-2.3,4.5-2.9,6.9
		c-3.3,12.2-3.1,24.5,0.5,36.7c0.6,1.9,2,3.5,3,5.3c1.1-1.8,2.8-3.5,3.3-5.6c2.7-10.6,2.7-21.4,0.9-32.1
		C131,588.5,129.4,584.9,128.3,581.2z M166,607.3c0.2,0,0.4,0.1,0.6,0.1c0,3-0.2,5.9,0.1,8.9c0.1,1.8,1,3.5,1.5,5.2
		c1.7-1,3.4-2,5-3.1c0.4-0.3,0.7-0.9,1-1.4c4.8-10.3,5.5-21,2.4-31.9c-0.2-0.6-0.5-1.3-1-1.8c-1.2-1.3-2.5-2.4-3.8-3.6
		c-1,1.5-2.6,3-2.9,4.6C167.7,592,166.9,599.6,166,607.3z M451,580.5c-4.5,3.1-7,7.1-7.4,11.8c-0.5,6.4-0.7,13,0,19.3
		c0.4,3.5,2.7,6.8,4.5,10c0.5,0.9,2.4,1.5,3.5,1.4c0.6-0.1,1.4-1.9,1.5-3.1c1.1-11.9,1.2-23.8-1-35.7
		C451.9,583.2,451.5,582,451,580.5z M117.7,332.7c-4.5,2-8.7,18-7.4,24.5c1.7-0.6,3.4-1.2,5.4-1.9c-2.2,8.6,1,14.9,6.9,19.8
		c3.3,2.8,4.7,2.3,6.4-1.5c0.8-1.9,1.2-4,1.7-6c-1.9,0.1-3.9,0.2-5.8,0.2c-0.7,0-1.5-0.2-2.2-0.3c0.2-0.8,0.3-1.6,0.6-2.4
		c0.1-0.4,0.6-0.7,0.8-1.1c1.9-2.8,1.5-3.7-1.9-4.3c-0.4-0.1-0.7-0.4-1.5-0.9c1.7-2,3.3-3.9,5.6-6.5c-2.7,0.1-4.2,0.2-5.8,0.3
		c-4.2,0.4-4.5,0-3.7-4.3c0.5-2.6,1-5.2,1.5-8c-1.3,0.1-2,0.2-2.5,0.3C116.5,338.1,117.1,335.7,117.7,332.7z M530.2,599.6
		c0.5,3.8,1,8.8,1.8,13.9c0.1,0.9,1.3,2.4,1.9,2.4c1-0.1,2.4-1,2.8-1.9c4.1-9.3,4.9-18.8,1.1-28.4c-0.5-1.4-2.4-2.3-3.7-3.4
		c-0.9,1.3-2.4,2.5-2.7,4C530.8,590.1,530.7,594.2,530.2,599.6z M414.6,369.1c0,5.3,3.6,8.9,9.1,9c5.2,0.1,9.5-3.9,9.5-8.7
		c0-4.3-4.3-9.5-8-9.2C419.7,360.6,414.7,362.9,414.6,369.1z M210.4,377.5c0-4.4-4.4-8.2-9.2-8.2c-5.1,0-9.3,4.1-9.4,8.9
		c0,4.6,4.2,8.5,9.3,8.5C206.6,386.6,210.5,382.8,210.4,377.5z M455.8,399c-0.3,0.7-0.5,1.1-0.5,1.5c-2.6,12.9-10.4,21-23,24.3
		c-6.9,1.8-13.8,1.2-20.6-0.2c-1.3-0.3-2.6-0.5-4.1-0.8c2.9,6.6,16.5,9.1,28,5.5C447.2,425.7,458,409.9,455.8,399z M87.1,586.7
		c0.2,0,0.4,0,0.5,0c-0.2-2.8-0.2-5.7-0.5-8.5c-0.1-0.8-0.9-1.9-1.6-2.3c-0.5-0.2-1.8,0.5-2.2,1.2c-1.3,2.5-2.7,5-3.3,7.7
		c-1.6,7-1,14,0.5,21c0.5,2.1,0.6,5.3,3.5,5c3-0.3,3-3.4,3-5.8C87.2,599,87.1,592.9,87.1,586.7z M186.3,225.9
		c0.3-0.3,0.5-0.6,0.8-0.9c2.6,3.1,5.2,6.3,7.8,9.4c1.2,1.4,2.6,2.8-0.6,4c2.1,1.4,3.8,2.6,5.6,3.6c0.7,0.4,2,0.6,2.5,0.2
		c2.6-2.4,5.1-5,7.9-7.8C201.7,231.2,194,228.6,186.3,225.9z M501.2,356.8c6.9-3.2,9-11.4,4.4-15.4
		C504.1,346.4,502.7,351.3,501.2,356.8z M426,576.1c-0.4,0-0.8,0.1-1.3,0.1c-2.8,3-3.4,8.4-1.2,11.4c0.5,0.6,1.4,1.2,2.1,1.3
		c0.4,0,1.2-1.1,1.2-1.7C426.7,583.5,426.3,579.8,426,576.1z M141,364.4c-0.4-0.2-0.9-0.5-1.3-0.7c-3.6,6.4-7.3,12.9-10.9,19.3
		c0.3,0.1,0.5,0.3,0.8,0.4C135.7,378.5,137.3,370.9,141,364.4z M197.6,576.2c-0.8,4.3-1.5,7.8-2.1,11.4c-0.1,0.4,0.8,1.5,1.1,1.4
		c0.8-0.1,1.8-0.4,2.3-1C201.2,585.4,200.9,580,197.6,576.2z M452.8,244.9c-5.9,0.4-12,0.5-16,7.4
		C442.7,249.6,447.7,247.2,452.8,244.9z M161.8,482.1c-0.3,0.2-0.6,0.5-0.9,0.7c0.1,5,2.5,7.6,6.8,6.5
		C165.7,486.8,163.7,484.4,161.8,482.1z M446.5,279.6c-3.1-1.6-6.2-3.3-9.9-5.2C437.4,278.2,441.5,280.2,446.5,279.6z M241.5,400.3
		c2.7-2.8,2.2-6.2-0.7-9.9C241.1,394.1,241.3,397.2,241.5,400.3z M94.5,586.5c0-0.1-0.1-0.2-0.1-0.3c-0.1,0.1-0.2,0.2-0.3,0.3
		c0.1,0,0.2,0.1,0.2,0.1C94.4,586.6,94.4,586.5,94.5,586.5z M111.1,598.4c-0.1-0.2-0.2-0.3-0.2-0.5c-0.1,0.1-0.2,0.2-0.3,0.4
		c0,0,0.1,0.2,0.1,0.2C110.8,598.4,110.9,598.4,111.1,598.4z M514.4,269c0-0.1,0-0.2-0.1-0.3c-0.1,0.1-0.3,0.1-0.4,0.2
		c0.1,0.1,0.1,0.2,0.2,0.2C514.2,269.1,514.3,269,514.4,269z M445.7,255.5c-0.1,0.1-0.1,0.2-0.2,0.2c0.1,0,0.2,0.1,0.3,0.1
		c0.1,0,0.1-0.1,0.2-0.2C445.9,255.6,445.8,255.6,445.7,255.5z M207.2,551.8l-0.2,0l0.1,0.2L207.2,551.8z M170.9,453.2l-0.1,0.2
		l0.2-0.1L170.9,453.2z M252.4,539.2l0.2-0.1l-0.2-0.1L252.4,539.2z M143.6,604.4c0.1-0.1,0.1-0.2,0.1-0.3c0,0-0.1-0.1-0.2-0.2
		c-0.1,0.1-0.1,0.2-0.1,0.3C143.4,604.3,143.6,604.3,143.6,604.4z M457,444.5l0.2-0.1l-0.2-0.1L457,444.5z"/>
	<path d="M192.4,246.2c-0.1,0.2-0.2,0.3-0.3,0.5c0,0-0.3,0-0.3-0.1c0-0.2,0-0.4,0-0.5C192,246,192.2,246.1,192.4,246.2z"/>
	<path d="M551.1,563.4c4.9,8.1-1.2,14.4-3.4,21.4c-2.6-5.8,1.6-11,1.3-16.7c0.7,0.5,1.2,0.9,2.1,1.7
		C551.1,567.3,551.1,565.3,551.1,563.4z"/>
	<path d="M160.1,550.7c0-0.1,0.1-0.2,0.1-0.3c0.1,0.1,0.2,0.2,0.3,0.4c0,0.1,0,0.2-0.1,0.3C160.3,551,160.2,550.8,160.1,550.7z"/>
	<path d="M262,452.7c-4.5,1.5-7,4.2-9.4,8.3c-1.7,2.9-5-1.6-7.8-2.1c-0.3-0.1,3-6,4.9-6.7C253.7,450.7,257.9,451,262,452.7z"/>
	<path d="M428,467.1c-2.7-3.3-5.5-6.6-8.3-10.1C422.9,457.5,426.9,462.1,428,467.1z"/>
	<path d="M57.3,312.9c0-4,2.7-7.1,6.2-6.9C63.4,308.7,61.2,311.2,57.3,312.9z"/>
</g>
</svg>
