<?xml version="1.0" encoding="utf-8"?>
<!-- Generator: Adobe Illustrator 24.2.3, SVG Export Plug-In . SVG Version: 6.00 Build 0)  -->
<svg version="1.1" id="Layer_1" xmlns="http://www.w3.org/2000/svg" xmlns:xlink="http://www.w3.org/1999/xlink" x="0px" y="0px"
	 viewBox="0 0 595.3 841.9" style="enable-background:new 0 0 595.3 841.9; fill: #215342;" xml:space="preserve"
	 height="350" width="400" transform="translate(-90, -43)">
<g>
	<path d="M573.4,543c-38.9-0.1-77.8-0.1-116.7-0.1c-2.2,0-4.4,0-6.9,0c0.1-1.7,0.4-2.8,0.2-3.9c-1-7.8-1.2-15.9-3.5-23.4
		c-2.4-7.7-8.4-10.5-16.5-9.9c-2.7,0.2-3.4-1.2-3.9-3.3c-1.1-4.5-3.5-8.4-7.8-9.8c-4.7-1.4-5.5-4.5-5.6-8.5
		c-0.1-1.8-0.4-3.6-0.6-5.4c-0.8-7.6-2.3-14.8,0.6-22.7c8.8-24.7,17.1-49.6,18.4-76.1c0.1-1.1,0.7-2.6,1.5-3.2
		c2.7-1.9,5.7-3.5,9.1-5.5c0.3,2.4,0.7,4.5,0.9,6.7c0.5,4.2,0.8,8.4,1.3,12.5c2.8,23.6,11.6,45.1,23.9,65
		c12.5,20.1,26.1,39.5,39.4,59.1c3.5,5.2,7.2,10.4,11.5,14.9c5.2,5.5,12.2,7.2,18.5,5.1c-10.7,0.4-17.9-4.4-23.1-12.4
		c-13.9-21-28.2-41.9-41.6-63.3c-14.4-23-24.9-47.7-27.6-75.2c-1.8-18.1-3.5-36.3-5.4-54.4c-1.4-12.7-3.9-25.2-9.3-37
		c-6.7-14.7-19.6-20.8-33.5-26c-0.2-0.1-0.4,0.3-1.2,0.7c5.6,10,11.2,20,16.8,30c-0.4,0.4-0.9,0.7-1.3,1.1
		c-9.9-0.3-14.9-9.3-22.7-13.4c1,2.3,2.3,4.3,3.7,6.1c7.1,9.4,14.3,18.7,21.4,28.1c5.8,7.5,7.7,16.1,8.3,25.5
		c0.6,10,2.8,19.9,4,29.9c0.9,7.2,2.6,14.6,1.5,21.6c-1.9,11.7-5.7,23.1-8.8,34.5c-0.8,2.9-2.2,5.7-3.4,8.5
		c-0.4-0.1-0.8-0.3-1.2-0.4c0.7-3.7,1.4-7.4,2.1-11.1c-0.2-0.1-0.4-0.1-0.7-0.2c-0.8,1.5-1.5,3.1-2.7,5.3c-0.3-3.2,0.4-6.7-0.8-7.5
		c-4-2.8-2.5-5.8-1.3-8.9c2.9-7.3,6.3-14.4,8.8-21.8c1.7-5.2,2.1-10.9,3.1-16.4c-4,9.6-7.4,19.2-10.7,28.9
		c-2.5,7.3-5.5,14.5-7.1,21.9c-2.5,12.2-4,24.6-6,36.9c-0.4,2.7-1.1,5.4-1.6,8.1c-0.4-0.1-0.8-0.1-1.1-0.2
		c-0.9-9.2-1.9-18.4-2.8-27.9c-0.8,0.4-1.3,0.7-2,1c-0.8-4.8-1.6-9.5-2.4-14.1c-0.4,0-0.8,0.1-1.2,0.1l-1.7,27l-0.7,0.3
		c-3.6-9.9-7.3-19.7-10.9-29.6c-0.6,0.2-1.3,0.4-1.9,0.6c0.6,2.5,0.9,5.1,1.8,7.5c4.4,11.1,9.2,22,13.3,33.2
		c3.6,9.7,6.5,19.6,9.7,29.4l-0.1-0.1c0.3,1.5,0.8,3,0.8,4.5c-0.3,16.6-18.9,43.7-18.4,43.5c-1.4-0.6-3.4-2-4.1-1.5
		c-1.4,0.9-2.1,2.9-3,4.5c-0.8,1.4-1.6,2.8-2.5,4.1c-0.1,0.2-0.7,0-1.2,0c0.2-0.8,0.4-1.5,0.9-3c-2,1-3.4,1.5-4.7,2.3
		c-6.9,4.3-14.3,4.7-21.9,2.7c-1.9-0.5-3.3-2.6-4.9-3.9c1.7-1.2,3.3-2.5,5.1-3.7c0.8-0.6,1.7-1,2.6-1.5c-1-0.8-1.8-1.8-3-2.4
		c-0.7-0.4-1.8-0.1-3.2-0.1c2.2-4.6,5.6-8.3,4.2-13.4c-0.2-0.6,0.6-1.5,0.9-2.3c0.8-2.4,2.3-4.8,2.1-7.2c-0.2-3.6,1.9-5.2,3.8-7.4
		c7.8-9.1,13.3-19.6,15-31.3c2.7-17.6-6.4-30.7-18.3-42.3c-0.7-0.7-1.6-1.3-2.5-1.4c-5.5-0.9-11-2.1-16.6-2.3
		c-12.2-0.5-24.3-0.3-36.5-0.8c-11.6-0.5-22.3,2.3-31.9,8.7c-11.1,7.5-17.5,17.4-17,31.3c0.3,7.9,2.7,15,5.6,22.2
		c3,7.6,5.5,15.2,10.8,21.6c1.6,2,3.5,4.7,3.3,6.9c-0.4,3.5,0.2,5.7,2.9,8c2.7,2.2,2.3,5.5-0.9,6.8c-4.5,1.8-3.6,4.1-1,6.8
		c-0.8,1.1-1.3,2.3-2.2,2.8c-3,1.6-6,3.3-9.3,4.2c-1.1,0.3-2.9-2-4.2-3.2c-3.3-3.2-6.5-2.6-9.9,3.1c-2.4-3.7-4.7-6.8-6.6-10.1
		c-1.2-2-1.9-4.7-4.7-2.5c-2.6,2-3.2,0.5-4.4-1.4c-1-1.7-2.5-3.1-4.3-5.2c0.4-2.8,0-5.8-4.6-7c-1.4-0.4-2.9-2.5-3.3-4.1
		c-1-4.5-1.5-9.1-2.2-13.6c0.2-1-1.5-1.9-1.6-2.8c-0.2-7.4-0.1-14.9,3.7-21.7c1.5-2.7,3.4-5.3,4.2-8.2c4.7-17.9,13.8-33.3,25.5-47.4
		c1-1.2,1.8-2.5,2.7-3.8c-0.2-0.2-0.5-0.3-0.7-0.5l-5,4.7c-0.4-0.2-0.8-0.5-1.1-0.7c4.3-10,8.6-20,12.9-30.1
		c-2.5,2.3-4.1,5.1-5.6,7.9c-5,9.7-10,19.5-15,29.2c-2.2,4.2-4.7,4.3-7.3,0.2c-0.6-0.9-1-2-1.5-3c-4.9-9.1-9.2-18.7-14.9-27.3
		c-12.3-18.4-17-38.4-15.5-60.2c0.1-0.8-0.1-1.7-0.1-2.5c-3.9,7.5-3.2,15.3-2.1,23.1c0.7,4.7,2.6,9.4,2.6,14
		c-0.1,9.7,3.5,17.8,9.4,25.1c10.9,13.6,15.8,29.5,18.3,46.4c1.3,8.5-2.7,16-5.3,23.9c-0.3-22.3-7.5-42.6-16.9-62.4
		c0.4,3.7,0.9,7.4,1.3,11.1c-0.4,0.1-0.8,0.3-1.2,0.4c-2.9-4.1-6.3-7.9-8.5-12.4c-4.1-8.4-4.7-17.4-4.2-26.7
		c0.6-11,2.2-22.2-2.7-32.8c-2.4-5.1-1.8-9.5,0.9-14.3c5.2-9.1,9.9-18.4,14.9-27.6c-0.2-0.1-0.4-0.2-0.5-0.4
		c-1.9,2.5-3.9,4.9-5.8,7.4c3.8-23.8,13-45.1,28.3-63.8c-2.2,0.8-3.7,2.1-5.1,3.3c-5.8,5-11.2,10.7-17.6,15
		c-18.9,13-29,31.1-33,53.2c-4.5,25.1-4.8,50.5-5.6,75.9c-0.6,19.8-2.5,39.5-7.9,58.6c-4.1,14.3-9.6,28-19.3,39.8
		c-9.5,11.6-18.1,23.8-27.4,35.6c-1.3,1.6-4.3,2.1-6.5,2.3c-0.6,0-2.2-3.4-1.9-5c1.4-8.9,3.2-17.6,4.8-26.4
		c3.6-18.8,8.5-37.6,10.4-56.6c2.4-24,3.8-48.3,1.4-72.5c-0.1-0.7,0.1-1.4,0.3-2.1c2.7-10.3,5.4-20.6,8.1-30.9
		c0.4-1.7,0.5-3.6,0.6-5.4c0.2-3.5-0.1-7.1,3.5-9.3c0.7-0.4,1.3-2.2,1-2.5c-2.9-3.3,0-6,0.7-8.8c0.7-2.8,2-5.4,3-8.1
		c-0.4-0.3-8,9.6-11.3,14.8c-0.1-0.1-0.2-0.2-0.4-0.3c0.6-1.7,1.3-3.5,1.9-5.2c-0.2-0.1-0.5-0.2-0.7-0.3l-5.1,10.8
		c-0.2-0.1-0.3-0.2-0.5-0.3c0.3-1.7,0.5-3.3,0.8-5.2c-3.9,2.7-2.4,9.3-9.2,10.9c-1.5,3.5-3.5,8.2-5.7,13.3c-0.5-1.3-0.8-2.2-1.3-3.6
		c-11.7,21.3-16.9,43.6-18.7,66.4c1.9,1,3.4,2.1,3.5,3.4c0.4,5.3,1.6,10,5.9,13.5c3.5-7,7-14,10.5-21c0.7,0.2-0.4,22.2-1.8,33.3
		c-1.2-1.3-2.1-2.3-3.2-3.6c-0.5,2.9-1,5.3-1.4,7.8l0,0c0.4,3.2,0.9,6.3,1.3,9.5c-0.2,0-0.3,0.1-0.5,0.1c-1.5-4.7-3-9.3-4.5-14
		c-0.3,0.1-0.6,0.1-1,0.2v4.5c-1.9-4-3.4-7.2-4.9-10.4c-0.5,0.1-0.9,0.2-1.4,0.3c0,1.9,0.1,3.8,0,5.6c-0.1,1.9-0.4,3.7-0.7,5.5
		c-31-20.8-45.7-49.1-42.3-86c0.8,4.8,0.7,9.8,0.8,14.8c0.1,12.2,0.1,12.2,2.5,14.3v-47.8c-0.6-0.7-2-1.7-1.9-2.3
		c1.4-5.9,2-12.4,8.5-15.5c5.9-2.9,11.8-5.9,17.9-8.4c27.2-11.2,52.9-25,76.4-43.1c8.7-6.7,18.9-11.4,28.6-16.8
		c2.4-1.3,5.4-2.3,8-2.2c2.2,0.1,4.4,1.9,6.4,3.2c0.3,0.2-0.4,2.7-1.3,3.5c-8.6,8.6-16.3,18-24,27.4c-7.2,8.7-11.9,18.1-14.6,28.4
		c-4.4,16.5-8.1,33.2-10.9,50.1c-3.5,20.7-5.8,41.7-8.6,62.5c-1.2,8.9-2.3,17.8-3.3,26.7c-0.2,1.8,0.7,3.8,1.2,6.5
		c3.1-2.8,5.3-4.7,7.4-6.6c0.3,0.2,0.7,0.5,1,0.7c-0.3,1.6-0.4,3.2-0.9,4.7c-1.4,4-2.8,8-4.5,11.8c-7.2,15.7-14.5,31.3-21.7,46.9
		c-0.8,1.8-1.3,3.8-1.9,5.7c0.4,0.1,0.8,0.3,1.1,0.4c0.5-0.6,1.1-1.2,1.6-1.9c7.3-9.4,14.5-18.9,22-28.2
		c6.5-8.1,11.8-16.7,14.7-26.7c4.3-14.6,7-29.5,7.3-44.7c0.3-18.7-0.3-37.3,0.1-56c0.3-14.1,0.7-28.4,2.7-42.3
		c3.6-24.5,12.8-46.5,32.9-62.5c1.1-0.9,2.1-1.9,2.9-3c2.5-3.2,2.1-6.1-1.6-7.4c-3.8-1.4-7.2-3.1-12.3-1.4
		c-12.6,4.3-23.5,11.2-34.1,18.8c-14.4,10.3-28.2,21.3-44.4,28.9c-14,6.6-28,13-41.9,19.6c-4.7,2.2-9,5.4-13.9,6.8
		c-10,2.8-14.1,6.1-15.3,16.3c-3.1,26.7,1,52.3,14,76.1c11.7,21.4,27.8,39.4,43.5,57.6c6.3,7.3,12.3,14.6,14.6,24.2
		c0.5,1.9,0.5,4.1,0.2,6c-1.4,9.3-3.5,18.5-4.4,27.8c-0.4,4.5-1.7,5.6-6,5.5c-17.7-0.2-35.4-0.1-53.1-0.1c0.1,0.9,0.1,1.9-0.1,2.9
		c44.7,0,89.4,0,134.1,0c8.5,0,8.7,0.1,7.9,8.3c-1,9.7,1.3,18.2,7.3,26c5.6,7.1,10.5,14.6,8.2,24.6c-0.2,0.9,0.8,2.6,1.6,3
		c0.9,0.4,2.6,0,3.4-0.7c1.2-1,2.2-2.6,3-4c1.9-3.1,3.6-6.4,5.4-9.4c2.4,6.4,4.5,12.7,7.1,18.6c0.8,1.8,3.3,2.9,5.1,4.3
		c1.2-1.9,2.8-3.7,3.3-5.7c1-3.4,1.3-7,1.9-11.1c3.1,5.2,5.4,9.8,8.4,13.9c0.4,0.6,1.1,0.9,1.9,1.2c-0.7-1.3-1.4-2.6-1.8-3.9
		c-2-7.2-4.1-14.4-5.6-21.7c-0.6-2.8,0.9-5.4,4.2-5.7c3.3-0.2,3.7,2.6,4,4.9c0.9,7.2,1.7,14.5,2.4,21.7c0.1,1.2-0.3,2.4-0.5,3.6
		c-0.6,0.5-1.3,0.9-1.9,1.4c1,0.3,2.1,0.5,3.1,0.9c0.5-1.9,1.6-3.9,1.4-5.7c-0.6-4.9,0.2-9.4,2.6-13.8c2-3.7,3.6-7.7,4.7-11.7
		c1.5-5.4,2.2-11,3.5-16.4c0.2-1,1.2-1.9,1.9-2.8c0.7,0.6,1.7,1,2.1,1.8c3,6.4,6.4,12.7,8.8,19.4c4.3,11.5,12.4,17.9,24.4,20
		c2.7,0.5,5.4,1.4,8,2.1c4.3,1.2,8.8,4,12.7,3.4c11.7-1.9,23.2-4.8,34.6-8.2c3.3-1,6.3-4.7,8.3-7.9c4.1-6.6,7.6-13.5,13.5-19.1
		c3.2-3.1,4.8-7.8,7.3-11.7c1.2-1.9,2.7-3.7,4.4-5.1c4.9-3.9,11.9-5.2,14.9-11.7c0-0.1,0.5,0,0.9,0.1c0.3,3.2,0.4,6.4,1,9.5
		c0.4,2,1.6,3.9,2.4,5.8c1.6-1.1,3.6-2,4.9-3.4c4-4.1,7.6-8.6,11.6-12.7c1.1-1.1,3.2-1.5,4.9-1.6c0.4,0,0.9,2.5,1.4,3.8
		c0.6,1.6,1.4,3.1,2.1,4.6c1.7-0.9,4.4-1.4,5.1-2.8c2.6-5.7,7.1-6,12.4-6c46.6,0.1,93.1,0.1,139.7,0.1
		C573.2,544.8,573.3,543.9,573.4,543z M78.7,474.3c-2.4-2.8-5-5.6-7.3-8.5c-12.9-15.8-25.9-31.3-35.1-49.7
		c-11-21.9-13.6-45.2-11.4-69.2c0.8-9.1,4.7-13.5,12.9-15.6c-1.1,2.8-2.4,5.2-3,7.8c-6.1,29.5-6.4,58.3,10.6,84.9
		c2.5,3.9,5.6,7.3,8.2,11.1c8.8,12.7,17.6,25.5,26.3,38.3C79.5,473.7,79.1,474,78.7,474.3z M91.8,446.5c-0.1,0-0.2-0.1-0.2-0.1
		c0.1-0.1,0.2-0.1,0.3-0.2C91.9,446.2,91.8,446.4,91.8,446.5z M189.8,425.5c0.1,0.1,0.1,0.2,0.2,0.3c-0.1,0-0.2,0.2-0.3,0.1
		c-0.1-0.1-0.1-0.2-0.2-0.3C189.6,425.5,189.7,425.4,189.8,425.5z M165.5,540.7c0.1,0.5,0,1.1-0.1,1.9h-61c0.4-1.2,0.5-2.1,1-2.8
		c7.3-10.1,14-20.7,22-30.2c14.3-16.9,21.5-36.7,25.6-57.8c2.9-15.3,3.8-31.1,5.2-46.7c0.8-8.6,0.6-17.4,1-26c0-0.9,0.4-1.8,0.8-4
		c5.1,6.7,12.1,9.5,14.5,18c5,17.2,11.9,33.8,17.9,50.6c4.5,12.7,9.1,25.3,13.3,38.1c0.8,2.4,0,5.4-0.3,8.1
		c-0.5,4.2-1.4,8.3-1.7,12.5c-0.2,2.3-1,3-3.3,3.8c-3.3,1.2-6.1,3.9-9.2,5.9c-1.6,1.1-3.3,2.8-5,2.9
		C171.6,515.9,163.5,525.8,165.5,540.7z M188.8,575c-5.1-4.7-6.7-11.2-7.4-17.8c-0.5-4.6-0.7-9.1-1.3-13.7
		c-2.8,14.5-2.3,28.4,8.8,40.2c-13.3-10.2-15-23.8-12.2-38.7c0.9-5.2,0.3-10.2-1.7-15c-0.4,0-0.9,0-1.3-0.1
		c-0.2,2.6-0.2,5.3-0.8,7.9c-0.3,1.6-1.5,3-2.3,4.4c-1-1.3-2.6-2.5-2.8-4c-1.7-9.5,7.2-21,16.7-21.8c2.5-0.2,4.6,0,4.4,3.3
		c0,0.5,0.1,1.1,0.3,1.6c7.8,16.2,4.1,34.4,8.4,51.2c0.3,1-1,3.5-1.6,3.5C193.5,576.2,190.3,576.4,188.8,575z M199.5,587.4
		c-0.3,3.5-1,6.9-1.6,10.4l-1.3-0.2c-0.1-1.4-0.3-2.9-0.3-3.1c-1,3.5-2.2,8-3.4,12.5c-0.5-0.1-1-0.2-1.5-0.3
		c-0.3-0.4-0.8-0.9-0.7-1.3c0.2-7.7,0.4-15.4,0.9-23.1c0.3-4.2,1.1-4.5,4.4-2.1C199.7,583,199.9,583.1,199.5,587.4z M215.9,611.1
		c-0.2,1.1-1.2,2-1.9,3c-0.9-0.7-2.3-1.2-2.8-2.2c-3.7-7.3-5.3-15.1-4.7-23.2c0.1-1.6,2.5-4.3,3.9-4.3c1.8,0,4.7,1.8,5.2,3.4
		c1.2,3.8,1.2,7.9,1.6,11.2C216.8,603.6,216.5,607.3,215.9,611.1z M222.1,570.5c-0.4,6.4-2.1,12.7-3.3,19.7c-4.7-8.6-7.1-9.4-14-5.5
		c-0.9-2.9-1.9-5.9-2.6-9c-1.7-7.3-4.2-14.6-4.6-22c-0.6-10.6-1.5-20.9-5.3-30.9c-2.3-5.9,0.6-11.9,6.1-14.3c3.3-1.5,5.5-0.5,5.5,3
		c0,14,6.8,25,14.8,35.8C223.5,554.1,222.5,562.6,222.1,570.5z M235.1,595.2c-3.7-4.7-0.9-15-11.4-13.5c0.6-9,1.2-17.9,1.8-27.3
		c5.5,3.2,11,6.4,16.4,9.7c0.5,0.3,0.7,1.2,0.8,1.8C243.7,572,239.1,589.4,235.1,595.2z M339.4,515.3c-7.7,1.5-14.1-1.8-18.3-9.5
		c-2.1-3.8-1.4-7.3,0.6-10.6c0.5,0.1,1,0.2,1.5,0.3c-0.2,1.3-0.8,2.7-0.6,3.9c0.7,3.3,1.5,6.6,2.7,9.7c0.3,0.8,2.2,1.6,3.2,1.5
		c5-0.8,10-1.7,14.9-3.1c3.6-1,6.9-2.8,10.3-4.2C353.1,509.8,348.6,513.6,339.4,515.3z M247.3,488.8c-5.9-24.7,9.3-45,35-46.4
		c6.7-0.4,13.4,0.4,20.2,0.5c9.8,0.2,19.6,0.1,29.4,0.3c8.2,0.2,14.6,3.9,19.5,10.5c-5.1,2.9-6.4,2.5-7.7-3.1
		c-3.7,2.2-7,1.9-9.9-1.5c-0.5-0.6-1.9-0.5-2.8-0.5c-9.5,0.4-19,0.8-28.4,1.3c2.3,1.9,5,3.8,7.4,6c3,2.8,6.2,2.5,9.8,1.6
		c3.5-0.8,7-1.2,10.6-1.7c2.3-0.3,4.7-0.2,7-0.6c4.3-0.8,6.5,1.2,5.8,5.5c-0.6,3.5-1,7-2.1,10.3c-0.6,1.8-1.9,4.1-3.5,4.8
		c-4.1,2-8.6,3.4-13,4.7c-1.4,0.4-3.4,0-4.8-0.7c-9.1-4.9-18.9-5-28.6-3.6c-3.7,0.5-6.6-0.3-10-1.6c-6.8-2.7-10.1-5.6-6.6-13.8
		c1.7-3.9,1.2-8.5,6.3-10.6c-6.5-0.9-12.6-0.1-18.1,3.1c-12.2,7.1-17.2,18.1-15.1,32c0.7,4.7,2.9,8.3,6.7,11.1
		C250,495.8,248.3,492.8,247.3,488.8z M254.7,496.4c1.7,0.3,3.5,0.8,5.2,0.7c1.1-0.1,3.1-1,3.2-1.8c1.1-6.2,6.7-7.7,9.8-10.9
		c-0.7,3.2-1.4,6.6-2.3,9.9c-0.3,1.2-1,2.7-2,3.3C265.1,500,258.1,499.2,254.7,496.4z M260,504.4c2,0.4,3.5,0.7,4.9,1
		c4.3,0.8,8.5,2.1,12.8,2.4c12.8,1,19-6.2,17-18.9c0.9,2.2,2.2,4.3,2.5,6.5c0.7,5.3-4,13.2-8.9,15.6
		C277.6,516.4,268.4,513.8,260,504.4z M294.9,607.6c18.2,0.8,34.9-1.5,49.7-13.3C340.4,604.3,306.2,613.3,294.9,607.6z M343.7,591.3
		c-5.9,6.1-12.9,9.7-21.1,11.5c-13.9,3-27.7,4-41.7,0.6c-8.7-2.1-15.1-7.2-18.9-15.4c-3.4-7.5-0.8-14.1,6.9-17.1
		c8.1-3.2,16.6-3.9,25.2-3.1c4.7,0.5,7.5,3.5,9.1,7.7c0.8,2.2,1.5,4.5,2.3,6.7c0.5,0,0.9,0.1,1.4,0.1c0.7-2.6,1.6-5.2,2-7.9
		c1.5-9.5,5.4-13.3,14.8-11.6c6.5,1.2,13.3,3.9,18.8,7.6C350.6,575.9,350.4,584.3,343.7,591.3z M355.5,576.9
		c-0.7,0.8-2.3,0.8-3.5,1.1c-0.4-1.7-1.8-4.1-1.1-4.9c3.1-4,7.4-6.2,11.9-8c0.4,0.5,0.8,1.1,1.2,1.6
		C361.1,570.1,358.4,573.7,355.5,576.9z M409.4,479.2c0.3,0,0.5,0,0.8,0c0.3,2.8,0.8,5.6,0.9,8.4c0,0.9-1.2,1.7-1.8,2.6
		c-0.4-0.9-1.1-1.8-1-2.6C408.5,484.8,409,482,409.4,479.2z M400.2,544.5c-1,6.3-3.3,12.2-8.6,17.9c-1.5-7.7-2.7-14.3,0.1-20.6
		c0.7-1.5,4-3.1,5.6-2.7C398.7,539.5,400.4,542.8,400.2,544.5z M404.8,547.6c-0.4,1-1.4,1.8-2.1,2.7c-0.4,0-0.8,0-1.1,0
		c0.6-6.5,2.2-13.7-7.9-13.9c0.4-1.5,0.5-2.6,0.9-3.5c4.1-9.2,6.1-18.9,6.5-28.9c0.3-7.1,4.9-11.5,11.4-11.2
		c6.2,0.3,12.1,6.3,12,12.4c0,1.4-0.8,3.1-1.8,4c-4.6,3.8-6.2,9.1-8.1,14.4C411.6,531.7,408.2,539.7,404.8,547.6z M417.2,552.9
		c-0.7-0.1-1.3-0.3-2-0.4c0.8-4.9,1.2-10,2.5-14.8c0.4-1.4,3.1-2.2,4.7-3.3c0.8,1.9,2.5,3.9,2.3,5.7
		C424.3,545.4,421.3,549.5,417.2,552.9z M447.3,539.6c-0.1,1.1-2.8,1.9-4.3,2.8c-0.6-1.3-2-2.7-1.8-3.8c1.3-6.3,1.2-12.5-1-18.5
		c-0.5,0-0.9,0-1.4-0.1c0,1.7,0.2,3.4,0,5.1c-0.5,4.1-0.4,8.5-1.9,12.3c-0.8,2.2-4,3.8-6.4,5c-0.7,0.3-3.4-1.7-3.8-3
		c-1.7-6.3-1.9-6.6-9.2-6.8c2.1-6.2,3.5-12.3,6.1-17.9c4.2-9.1,12.9-10,18.7-1.7C447.9,520.9,448.2,530.3,447.3,539.6z"/>
	<polygon points="260.1,507.5 260.1,507.2 259.8,507.3 	"/>
	<path d="M540.1,525.6c-8-18.4-16.2-36.6-23.9-55.1c-8.7-21-12.9-43.2-16.2-65.6c-3-20.1-5.4-40.3-7.7-60.6c1.1,4,2.3,8,3.3,12.1
		c1.9,7.3,3.5,14.7,5.5,22c0.6,2.2,2,4.3,3.1,6.3c0.9,1.7,2.1,3.2,3.2,4.9c0.1-1.4,0.2-3,0.3-4.6c0.4-0.1,0.8-0.1,1.3-0.2
		c0.9,3.8,1.6,7.7,2.6,11.5c0.6,2.3,1.9,4.5,2.6,6.8c0.7,2.5,0.9,5.1,1.4,7.9c0.6-1.4,1.1-2.8,1.7-4.2c0.2,0,0.5,0,0.7,0.1
		c-0.3,2.7-0.5,5.5-0.8,8.2c0.2,0.1,0.3,0.1,0.5,0.2c0.6-1.9,1.3-3.8,1.9-5.8c0.2,0,0.4,0,0.6,0.1c0,5.7,0,11.4,0,16.6
		c0.6-1.8,1.4-4.3,1.9-5.8c1.7-0.5,2.7-0.8,3.8-1.2c-0.6,2.5-1.3,5.2-1.9,7.9c0.2,0.1,0.5,0.2,0.7,0.4c1.3-2.4,2.5-4.8,3.8-7.2
		c0.3,0.1,0.6,0.1,0.9,0.2c-0.1,2.2-0.3,4.4-0.5,7.3c1.5-2.2,2.7-3.9,3.8-5.6c0.2,0.1,0.4,0.1,0.5,0.2c-0.4,1.5-0.8,3-1.2,4.6
		c0.2,0.1,0.4,0.2,0.6,0.3c1.5-3.1,3-6.2,4.4-9.3c0.3,0.1,0.5,0.2,0.8,0.3c-0.5,1.8-1,3.6-1.5,5.3c0.2,0.1,0.4,0.2,0.5,0.3
		c1.8-3.2,3.8-6.3,5.5-9.6c8.2-15.5,17.6-30.4,20.8-48c0.6-3.2,1-6.4,1-9.6c0.2-11.6-5.1-18.1-17-20.7c3.4,10.9,9.2,21.7-0.3,33
		c-1.5-3.3-3-6.5-4.4-9.5c-0.1,0.4-0.3,1.2-0.6,2.1c-0.7-4.1-1.3-8.2-2.1-13.5c-0.7,1.7-0.9,2.1-1.5,3.6c0-3.8,0-6.6,0-9.5
		c-0.3,0-0.5,0-0.8,0c-0.1,2.7-0.3,5.3-0.4,8c-0.2,0-0.3,0.1-0.5,0.1c-0.5-2.4-1.1-4.9-1.6-7.3c-0.2,0-0.4,0-0.6,0
		c-0.1,1.1-0.2,2.2-0.2,3.4c-0.4-0.3-0.7-0.4-0.8-0.6c-8.2-17.4-15.5-35-33.9-45.2c-17-9.4-32.9-20.9-47.1-34.4
		c-7.7-7.3-18.1-9.2-28.1-11.3c-0.5-0.1-1.1,0-1.7,0.1c-0.2,0-0.4,0.3-1.2,1c2.2,1,4.1,2.1,6.1,2.7c11.5,3,18.2,10.7,22.7,21.3
		c4.4,10.5,9.2,20.8,14.4,30.9c7.6,14.9,8.9,31.1,11.3,47.2c0.3,2.2,0.5,4.4-0.1,6.7c-0.7-3.1-1.5-6.1-2.2-9.2
		c-0.7,0.1-1.3,0.2-2,0.3c1.2,12.5,2,25,3.6,37.4c1.6,12.5,3.9,24.9,6.1,38.3c-1.3-1.6-2.1-2.6-2.9-3.6c-0.4,0.2-0.8,0.4-1.3,0.7
		c4.9,17.8,14.8,33.1,25.1,48.3c0,0,0-0.1,0-0.1c1.3,2.6,2.6,5.4,4.1,7.9c2.1,3.7,4.7,7.1,6.6,10.8c3.2,6.2,6,12.6,9,18.9
		c0.3,0.7,0.5,1.4-0.1,2.7c-2-2.8-4.1-5.5-6-8.3c-10.6-15.5-21.6-30.8-31.8-46.6c-15.1-23.5-26.3-48.6-29.3-76.8
		c-2.1-19.5-3.6-39.1-5.4-58.6c-1.6-17.8-4.4-35.2-15.4-50c-3.7-4.9-8-9.4-12-14c-1.4-1.6-3.1-2.9-4.2-4.7c-0.9-1.6-1.9-3.9-1.4-5.3
		c0.5-1.2,3.1-1.6,4.8-2.2c0.6-0.2,1.3-0.3,1.9-0.5c0.1-0.4,0.2-0.9,0.2-1.3c-2.1-0.5-4.2-1.5-6.3-1.4c-2.9,0.1-5.8,0.8-8.7,1.6
		c-12.6,3.2-24.9,2.8-37.2-1.9c-4.1-1.6-8.6-2.2-13-2.9c-1.1-0.2-2.4,1-3.7,1.3c-0.9,0.2-2,0.2-2.9-0.2c-4.3-2-8.7-3.9-12.9-6.2
		c-9.2-5.2-18.8-7.3-29.5-5.8c-7.4,1.1-15.1,1.2-22.6,0.8c-9.2-0.5-17.5,1.2-25.4,5.8c-2.7,1.6-5.4,3.2-8.3,4.2
		c-2.2,0.7-4.7,0.5-7,0.6c-3.5,0.1-7-0.3-10.4,0.4c-3.8,0.8-7.7,2.1-11.1,3.9c-12.3,6.6-24.3,4.9-36.4-0.4c-0.5-0.2-1-0.5-1.5-0.7
		c-2,3.3-4.2,3.7-9.1,1.5c2-1.5,7.2,4,6.3-3.3c2.9,0.9,5.6,1.5,8.2,2.5c9.8,3.7,19.4,3.3,29.1-0.8c4.8-2,9.8-3.4,14.8-4.8
		c2.1-0.6,4.6-1,6.6-0.6c6.3,1.4,11.5-1,16.7-4c9.1-5.3,18.7-7.6,29.4-6.5c7.6,0.8,15.5,0.2,23-0.8c9.1-1.2,17.3,0.3,25.2,4.5
		c6.9,3.7,13.7,6.7,21.8,6.3c3.8-0.2,7.8,1.1,11.4,2.5c12.9,4.7,25.9,5.4,39.3,2.7c3.4-0.7,7-0.9,10.4-0.5c1.8,0.2,4.5,1.4,5.1,2.9
		c1.3,3.2,3.8,3.8,6.4,4.6c9.5,2.8,17.9,7.3,25.7,13.7c10.5,8.6,21.6,16.5,33,24c18.4,12.1,36.8,24.1,53.2,38.9
		c3.6,3.3,8.8,4.8,13.3,7.1c6.7,3.4,9.4,9,9.8,16.4c0.7,15.3-5,28.9-11.4,42.2c-7.8,16.2-16.4,31.9-23.8,48.3
		c-4.2,9.3-6.6,19.3-9.5,29.1c-0.6,2,0,4.7,0.9,6.7c5.2,12.7,10.8,25.2,16.1,37.9C539.2,520.7,539.5,523.2,540.1,525.6L540.1,525.6z
		 M547.4,362.5c0-0.1-0.1-0.3-0.1-0.4c-0.1,0.2-0.2,0.4-0.3,0.6c0,0,0.2,0.1,0.2,0.2C547.3,362.8,547.3,362.6,547.4,362.5z"/>
	<path d="M348.1,294.3c-0.3-1.6-0.6-3.1-0.9-4.9c-0.2,0.1-1.2,0.6-3,1.4c1.4-2.1,2.2-3.4,3.1-4.6c-0.4-0.1-0.9-0.2-1.3-0.2
		c0.4-1.7,0.8-3.5,1.2-5.3c-2.7,0-3-1.4-1.9-3.5c1.5-2.7,4.6-2.9,7.6-0.4c4,3.3,8.1,6.5,11.7,10.3c3.3,3.5,5.8,7.6,9.4,12.3
		c-7.7-0.3-10.6,4.6-13.9,8.8c0.3,0.5,0.6,0.9,0.9,1.4c1.2-0.9,2.6-1.6,3.7-2.6c5.1-5.3,8-5.8,13.6-1c9.8,8.6,19.3,17.5,28.9,26.3
		c-0.1,0.2-0.1,0.4-0.1,0.7c0,0,0.2,0.1,0.3,0.1c0-0.2,0-0.4,0-0.7c2.4,2.2,4.8,4.5,7.2,6.7c-0.3,0.4-0.6,0.7-0.9,1.1
		c-0.9-0.2-1.9-0.5-3.5-0.9c0,5.3,0,10.2,0,15.2c-0.3,0-0.6,0.1-0.9,0.1c-0.5-0.9-1-1.7-2.1-3.5c-2.1,3-3.9,5.6-6.3,9
		c-0.3-2.1-0.4-3.3-0.5-3.9c-4.5,4.4-8.4,10.4-14,13.1c-5.5,2.6-12.6,1.9-19.6,2.7c3,1.9,6.2,3.8,10.4,6.4c-2.5,0.4-3.7,0.6-5.2,0.8
		c0.4,1.7,0.8,3.5,1.1,5.2c-0.3,0-0.7-0.1-1-0.1c0.3,0.2,0.6,0.4,0.9,0.6c-3.2,3.8-0.5,8-0.6,11.9c0,1.9,0,3.7-0.3,5.7
		c-0.7,5.5-1.1,11-1.6,16.5c-0.4,0.1-0.8,0.1-1.2,0.2c-0.8-4.3-1.7-8.5-2.4-12.8c-0.6-3.5-1.1-6.9-1.2-10.4
		c-0.4-10.9-4.7-20.6-9.5-30.2c-1.9-3.8-2.9-7.9-4.7-11.7c-4.9-10.3-3.1-21.1-2.5-31.8c0.1-2.3,2-4.8,3.5-6.8
		c1.7-2.3,1.7-6.5,0.4-8.9C350.8,302.5,347,299.3,348.1,294.3c0.1-0.4,0.3-0.7,0.4-1C348.4,293.7,348.3,294,348.1,294.3z
		 M396.2,344.3c0.7-5.1-1.1-7.5-6.4-8.5c0.2,9-0.3,18.1-8.9,23.4c-8.7,5.4-16.7,2.6-24.4-3.6c1.6,3.6,3.3,7.2,6.2,8.9
		c7.4,4.5,15.4,5.5,23.2,0.4C386.2,365.3,392,360.7,396.2,344.3z M400.5,334.1c0.5-0.6,1-1.1,1.4-1.7c-6.3-6.2-12.3-12.9-19-18.6
		c-6-5.1-12.1-4.6-18.5-0.2c-6.2,4.3-10.4,14.1-8.7,20.4c0.3-0.4,0.6-0.8,0.8-1.1c11.3-16.2,19.8-17.4,35.3-5.1
		c0.5,0.4,1.1,0.9,1.6,1.3C395.9,330.8,398.2,332.4,400.5,334.1z M382.6,335.2c1.4,7.2,0.7,13.7-6.5,17c-7.2,3.4-12.3-1.3-17.1-6.1
		c-2.2,4.6-1,8.4,3.3,11.1c6.9,4.4,16,3.5,20.7-2.1C387.9,349.4,388,340.2,382.6,335.2z M370.3,331.9c-4.4,0-7.6,3.1-7,6
		c0.3,1.4,2.1,3.3,3.5,3.6c3.1,0.6,6.8-2.9,6.1-5.8C372.7,334,371,332.7,370.3,331.9z"/>
	<path d="M200,351.1c-0.3,2.2-0.5,4.3-0.8,6.6c-3.2-2.1-6.9-10.6-5.8-13.6c0.3-0.9,1.3-1.7,2.2-2.4c7-5,13.9-10,21-14.8
		c12.1-8.1,22.4-5.7,29.6,7c0.9,1.5,1.7,3.1,2.6,4.6c0.6-0.2,1.1-0.4,1.7-0.6c-1.7-6.6-2.4-13.7-5.4-19.6
		c-3.7-7.2-15.4-8.3-23.7-2.4c-5.6,4-10.3,9.4-15.4,14.3c-1.2,1.2-2.1,2.8-3.8,3.5c8.8-13.4,18.8-25.5,34.7-30.9c0,0,0-0.7-0.1-1.4
		c-1.7-0.2-3.8-0.3-5.8-0.5c-0.7-0.1-1.3-0.3-2.4-0.5c1-4.5,5-6,7.7-8.6c1.6-1.6,5.6-1.6,3.9-5.6c-0.1-0.3,1.1-1.2,1.8-1.6
		c2.2-1.3,4.4-2.5,6.7-3.6c5.1-2.4,5.5-1.4,6.9,3.8c1.5,5.8,0.7,11.5,0.6,18.2c-2.6-0.3-5.6-1-8.4-0.8c-2.6,0.1-5.2,1.2-7.4,1.8
		c5.3,9.2,10,17.4,15.3,26.7c0.5-2.6,0.7-3.9,0.9-5.2c0.5,0,1,0,1.4-0.1c0.1,5.1,0.3,10.1,0.2,15.2c-0.1,5.5,0.3,11.1-1,16.3
		c-1.2,5-4.2,9.6-6.8,15.1c-0.8-1.6-1.1-2.1-1.4-2.7c-3.7,4.1-7.2,8.3-11.1,12.1c-2.3,2.2-5.1,3.9-7.9,5.4c-1,0.5-4-0.7-3.9-0.8
		c0.6-5-3.9-4.5-6.4-6c-1.6-1-3.3-1.9-4.9-3.6c10.3,3.4,19.8,3.8,28.2-6.1c-22.5,10.4-33.2-2.4-41.8-19.6
		C200.6,350.7,200.3,350.9,200,351.1z M223.5,335.3c-0.1,1.7-0.2,2.5-0.2,3.3c0,3,1.6,5.2,4.5,4.7c2.1-0.4,4.7-2.1,5.5-3.9
		c1.2-2.8-1-4.6-3.7-5.4c-5.6-1.7-10.7,0.2-13.4,5.1c-4.3,7.8-1,18.5,6.9,22.4c7.9,3.9,18.6,0.2,22.2-7.8c1.4-3,1.3-5.9-1.7-8.7
		c-2.6,6.4-6.1,11.7-13.8,10.7c-4.8-0.6-7.7-3.9-9-8.3C219.6,343.3,219.7,339.3,223.5,335.3z M211.9,339.2c-3.9,1-5.8,3.1-4.9,6.2
		c1.5,5.6,2.8,11.5,5.8,16.4c6.4,10.6,21,12.2,30.4,4.1c3.4-3,5.1-6.9,4.6-11.4c-1.4,1-2.4,2.1-3.4,3.3c-5.4,6.4-13.2,8.8-20.3,6.2
		c-7.6-2.8-12.1-9.4-12.2-17.8C211.9,344,211.9,341.8,211.9,339.2z"/>
	<path d="M282.5,250.7c5.5,6.5,11,12.9,16.6,19.6c3.3-4.8,6.7-9.7,10.1-14.7c0.3,0.2,0.6,0.4,1,0.6c-0.9,1.7-1.7,3.3-2.6,5
		c0.2,0.1,0.3,0.2,0.5,0.4c2.3-2.6,4.5-5.3,6.8-7.9c-7.3,11.6-12.6,24-13.5,37.5c-0.9,13.2-0.2,26.6-0.2,39.8c-0.6,0-1.1,0-1.7,0.1
		c-0.5-5.1-1.4-10.3-1.4-15.4c-0.1-22.4-4.9-43.6-16-63.2c-0.2-0.3-0.2-0.8-0.3-1.2C282,251.1,282.2,250.9,282.5,250.7z"/>
	<path d="M201.2,301.5c11.3-14.8,26.2-24,43.4-29.7c2.7-0.9,5.4-1.6,8.1-2.2c18.9-3.9,35.7,9.9,34.4,29.2
		c-0.9,12.9-3.8,25.7-5.8,38.6c-0.4,0-0.9-0.1-1.3-0.1c0.1-2.2,0.1-4.4,0.4-6.6c1.3-10.8,3.3-21.7,3.7-32.5
		c0.7-18.2-14.5-30.1-32.3-25.8c-17.4,4.2-32.6,12.7-45.5,25.1c-1.3,1.3-2.7,2.5-4,3.7C202,301.3,201.5,301.3,201.2,301.5z"/>
	<path d="M245,384.7c-2.4,5.8-4.8,11.6-7.2,17.3c-2,4.8-3.8,9.7-6.1,14.3c-2.1,4.3-5.1,4.8-8.2,1.1c-3.1-3.8-7.3-13.1-6.8-13.5
		c1.8,2.4,3.6,4.8,4.7,6.3c13.3-4.7,16.4-16.6,22.5-25.9C244.3,384.4,244.6,384.6,245,384.7z"/>
	<path d="M310.9,294c-1.3-21.2,17.2-36.2,36.2-29.8c6.7,2.2,12.8,6,19.2,9c-0.2,0.5-0.4,0.9-0.7,1.4c-2.7-1.4-5.4-3-8.2-4.2
		c-4.1-1.7-8.3-3.4-12.7-4.5c-12.3-3.1-21.4,0.9-27.3,12.2C314.9,283,313.2,288.2,310.9,294z"/>
	<path d="M333.2,397.4c-15-7.7-30.9-7-47.7-4.8C297.1,385.6,324.2,387.1,333.2,397.4z"/>
	<path d="M278.3,362c-5.1,7.8-8.8,16.6-17.4,22c-3.2,2.1-4.9,6.6-7.7,9.7c2.7-6,4.4-12.6,10.6-16.6c2.2-1.4,3.5-4.2,5.3-6.4
		c2.7-3.3,5.4-6.6,8-9.9C277.5,361.2,277.9,361.6,278.3,362z"/>
	<path d="M342.3,357.5c-10.4-14-12.1-30.2-18-44.9c0.4-0.2,0.8-0.5,1.2-0.7c0.9,1.5,2.1,2.9,2.6,4.5c1.7,5.5,3,11.1,4.9,16.5
		C335.8,340.9,338.9,348.6,342.3,357.5z"/>
	<path d="M278.9,402.3c-7.3,2.5-14.6,5-22.1,7.6C263.1,404.2,270.6,402.2,278.9,402.3z"/>
	<polygon points="394.1,370.8 394.2,371.1 394,371.1 	"/>
</g>
</svg>
