<?xml version="1.0" encoding="utf-8"?>
<!-- Generator: Adobe Illustrator 24.2.3, SVG Export Plug-In . SVG Version: 6.00 Build 0)  -->
<svg version="1.1" id="Layer_1" xmlns="http://www.w3.org/2000/svg" xmlns:xlink="http://www.w3.org/1999/xlink" x="0px" y="0px"
	 viewBox="0 0 595.3 841.9" style="enable-background:new 0 0 595.3 841.9; fill: #215342;" xml:space="preserve"
	 height="350" width="400" transform="translate(-35, -43)">
<g>
	<path d="M280.5,262.1c-1.1-0.4-2.2-1.1-3.3-1.7c-2.2-1.2-4.3-3-7-1.1c-0.7,0.5-1.6,0.7-2.4,1c0.7,0.7,1.3,1.4,2,2.1
		c0.3,0.3,0.5,0.6,0.8,0.9c-0.4,0.1-0.7,0.2-1.1,0.3c0.1,1.1-0.2,2.3,0.3,3.3c2,4.4,5.4,8.3,4.7,14.1c-0.9-1.1-1.5-1.9-2.1-2.7
		c-0.1,0-0.3,0.1-0.4,0.1c0.5,1.5,0.9,3.1,1.4,4.6c-0.1,0.1-0.3,0.2-0.4,0.3c-1.8-2.8-3.5-5.7-5.6-8.3c-1-1.3-1.4-4.6-4.6-2.7
		c-0.2,0.1-1.2-1.3-1.8-1.9c-2-2.1-3.9-4.2-6.3-6.2c1.6,2.9,2.2,3.8-2.1,4.1c-3.1,0.2-7.6-2.3-10.1,2.2c-0.1,0.2-1.5-0.3-2.2-0.6
		c-2-0.8-3.9-1.8-5.9-2.4c-2.8-0.9-5.3-2.4-8.5,0.3c-1.4,1.2-4.9,0.2-7.4-0.3c-2.4-0.5-4.2-1.4-3.8,2.5c0.2,2,0.1,5.1-3.6,4.8
		c-0.2,0-0.3,1-0.7,1.3c-0.6,0.5-1.4,0.9-2.4,1.5c3,1.7,6,3.4,8.9,5c-0.2,0.6-0.2,0.4-0.4,1c-2.1-0.4-4.3-0.8-7-1.3
		c2.7,1.7,4.9,3,7,4.4c0.2,0.1,0.6,0.1,0.8,0c4-3.8,6.6,0.3,9.7,1.6c1.2,0.5,2.5,1,3.7,1.5c2.3,1,4.6,1.9,6.8,2.9
		c0.4,1,0.5,1.5,0.9,2.5l0,0c-2.8-0.9-5.5-2.1-8.4-2.7c-2-0.4-4.1-0.9-5.7,1.6c-0.9,1.4-3.2,1.9-5.3,3c1.4,0.3,2.5,0.5,3.6,0.8
		c0,0.3,0,0.3,0,0.6l-15.9,2.8c0,0.4,0,0.3,0,0.7c1.5,0.3,2.9,0.5,4.4,0.8c-3.3,1.1-6.6,1.9-9.6,3.3c-3.4,1.5-3.2,5.3-4.2,8.2
		c-0.5,1.6-0.6,3.3-1,5.3c0.8-0.1,2.2-0.2,3.9-0.3c-0.7,1-1.3,1.7-2,2.5c4.4,0,8.5,0,12.5,0c1.6,0,3.2,0.3,4.8,0.5
		c3.3,0.3,4.4-1.5,3.3-3.8c2.2-1.8,4.3-3.5,7.1-5.8c1.6,0.7,4.6,2,8.5,3.7c-1-2-1.5-3-2.5-5c4.5,3.6,8.2,6.5,11.8,9.5
		c0.4-0.3,0.3-0.2,0.7-0.5c-0.7-1.5-1.4-2.9-2.1-4.4c0.3-0.2,0.3-0.2,0.6-0.4c1.5,1.4,3,3,4.6,4.3c1.8,1.4,2.2,4,5.7,4.2
		c2,0.1,3.8,4.6,5.6,7.3c1.1,1.6,1.9,3.4,3.6,4.8c-0.9-2.6-1.8-5.2-2.8-7.7c0.4-0.2,0.3-0.1,0.7-0.3c1.9,2.8,3.8,5.5,5.7,8.3
		c0.5-0.3,0.4-0.2,0.9-0.4l-5.2-15.5c0.5-0.3,0.4-0.2,0.9-0.5c1.4,1.7,2.8,3.5,4.2,5.2c-1.5-10-7-17.9-12.2-26
		c5.5,5,11.1,10,17.4,15.7c-0.4-2.7-0.7-4.5-1.2-7.5c4.3,6.3,8.1,11.7,12.6,18.1c-1.2-7-2.2-13.2-3.3-19.5c0.5,0.4,1.1,0.9,2.5,2.1
		c-1.4-4.3-2.4-7.7-3.5-11c5.2,5.5,8.3,12.1,9.1,19.7c0.4-0.1,0.9-0.2,1.3-0.3c0-5.8-0.1-11.6,0.1-17.4c0-1.2-1.7-3.9,1.9-3.3
		c0.2-1,0.6-2,0.5-2.9c-1.2-5.8-2.5-11.6-4-18.2c1.7,2.3,3.1,4.2,4.5,6.1c0.3-0.1,0.3-0.1,0.7-0.3c-0.4-3.1-0.6-6.2-1.2-9.2
		c-0.5-2.4-0.6-4.4,3.6-3.9c-1.8-2.6-3.2-4.6-4.5-6.6c5.8,3,7.8,8.9,10.5,14.2c0.6-0.2,0.5-0.1,1.2-0.3c-0.2-3.2-0.3-6.3-0.5-9.7
		c2.2,4.4,2.2,4.4,5.3,3.5c0.1,2.9,0.3,5.8,0.4,8.6c0.3,0,0.5,0,0.8,0v-18.3c0.7-0.1,0.5,0,1.2-0.1c0.5,3.3,1.1,6.6,1.6,9.9
		c0.4,0,0.3,0,0.7,0c0.2-2.5,0.3-5,0.5-7.5c0.2,0,0.4,0,0.6-0.1c0.2,1.6,0.6,3.2,0.4,4.7c-0.3,3.2,0.9,6,3,7.7
		c2.7,2.3,1.5,3.3,0,5.4c-5.9,8.4-8.3,18.1-9,28.2c-0.3,4.7-0.1,9.4-0.1,14.2c0.6,0,1.1,0.1,1.7,0.1c0.5-2.5,1.1-5.1,1.6-7.6
		c1.5-7.6,4.4-14.7,10.2-19.9c2.7-2.4,6.5-3.6,9.7-5.3c2.2,4.1,6,0.2,8.7,1.6c0.4,0.2,0.8,0.6,1.7,1.2c-6.2,4.8-12.7,8.9-15.3,16.6
		c5.1-4.9,10.2-9.7,15.3-14.4c0.9,0.6,0.7,0.5,1.7,1.2c-0.5,1.2-1.1,2.5-1.6,3.7c-0.3,0.7-0.9,1.8-0.6,2.1c2.3,2.5,0.1,3.9-1.6,5.8
		c12.4-2.6,24.4-2,36.2,1.4c-0.8,0.2-1.6,0.5-2.8,0.8c0.7,0.3,1.1,0.6,1.4,0.6c6.7-0.2,12.1,3.5,17.7,6.4c1.8,0.9,3,1.5,5.3,0.1
		c2.4-1.4,5.9-0.9,9.2-1.3c-1.1-0.4-2-0.9-3-1.2c-2.3-0.7-2.3-0.7-2.9-3.7c-0.1-0.5-1.2-0.9-1.8-1.1c-2.9-0.8-5.8-1.4-8.8-2.9
		c2.6-0.4,5.2-0.7,7.9-1.1c0-0.8,0-0.6,0-1.3c-5.8-0.7-11.7-1.4-17.5-2.1c-0.1-0.6-0.1-0.5-0.1-1c3.3-1.2,6.7-2.5,9.1-3.4
		c-5.8-1.6-12.3-3.3-18.8-5.1c0-0.6,0-0.5,0-1.1c5.3-1.4,10.6-2.8,16-4.1c1.7-0.4,3.5-0.3,5.1-1c10-4.3,20.8-4.2,31.4-5
		c2.8-0.2,5.4-0.4,7.5,2.7c1.3,1.9,4.1,2.6,6.1,4.3c-5.9-2.2-11.1-6.2-18.2-4.5c1.3,0.7,2.5,1.5,3.9,2.1c9.9,4.4,18.6,10.4,26,18.3
		c2.7,2.9,4,7,6.2,10.4c7,11.1,12.2,23.1,15.5,35.7c8.4,31.4,17.9,62.5,30.5,92.6c3.9,9.2,8.9,17.9,13.5,26.8c0.4,0.7,0.7,1.5,1.3,2
		c1.1,0.9,2.3,1.5,3.5,2.2c0.3-1.3,1.2-2.9,0.9-4c-1-3.3-2.3-6.5-3.8-9.6c-5.7-11.3-11.7-22.4-17.5-33.6c-0.6-1.1-0.9-2.5-0.6-4.1
		c1.9,3,3.8,6.1,5.6,9.1c0.3-0.2,0.2-0.1,0.5-0.3c-2.5-6.2-5-12.4-7.8-19.6c1.7,1,2.4,1.3,3.5,1.9c-0.5-1.5-0.8-2.6-1.1-3.7
		c-1.3-4.1-3.6-7.7-2.6-12.6c0.5-2.7-1.5-5.8-2.4-8.8c-0.9-3.1-1.8-6.1-2.5-9.3c-0.2-1.1-2.4-3.9,1.8-3.3c0.6,0.1,1.8-3.4,2.8-5.6
		c0.9,1.1,1.8,2.1,3.6,4.1c-0.1-2.7-0.2-4.4-0.3-6.8c1,1.7,1.6,2.7,2.6,4.4c0-1.4,0-2.2,0-3l-0.1,0c1.5,2.6,3.1,5.3,4.9,8.3
		c0.5-1.1,0.9-1.9,1.4-3.1c0.7,0.9,1.3,1.6,2.2,2.8l0.6-4.3c0.4,0,0.3,0,0.6,0c0.8,4,1.5,8,2.3,12.1c0.5,0,0.4,0,0.9,0
		c0.4-1.7,0.8-3.5,1.4-5.9c0.4,1.2,0.6,1.8,0.9,2.4c0.4,1.1,0.9,2.3,1.3,3.4c0.8-0.9,1.7-1.8,2.5-2.8c0.4-0.5,0.5-1.1,1.4-1.5V390
		c0.4,0.1,0.3,0,0.7,0.1c0.8-2.5,1.6-5,2.4-7.6c0.5,0.1,0.3,0.1,0.8,0.1v9.7c0.8,0.1,0.6,0.1,1.3,0.3c1.1-2.9,2.3-5.9,3.7-9.3
		c0.2,1.4,0.4,2.4,0.5,3.4c1.3-3.3,2.5-6.6,4-10.4c0.3,2.2,0.5,3.9,0.8,6.2c4.3-4,3.2-9.3,5.2-13.8l0.5,6c0.4,0,0.3,0,0.7,0
		c0.3-2.1,0.7-4.2,1-6.3c0.4,0,0.3,0,0.7,0c0.4,1.9,0.9,3.8,1.3,5.7c0.3,0,0.2,0,0.6-0.1v-14.5c0.3-0.1,0.2,0,0.6-0.1
		c0.7,1.6,1.3,3.3,2.1,5c3.6-11.7-3.7-28.1-16.3-35.6c3.2,4.5,5.9,8.3,8.6,12.1c-0.6,0.4-0.3,0.3-0.9,0.7
		c-4.1-4.7-8.1-9.4-12.2-14.1c-0.4,0.2-0.7,0.4-1.1,0.6c4.3,3.4,4.5,8.3,5.8,12.8l0.1,0c-1.5-0.8-3.3-1.4-4.4-2.6
		c-1.5-1.6-2.6-3.7-4.4-5.2c1.4,2.8,2.8,5.6,4.1,8.4c-0.2,0.1-0.3,0.2-0.5,0.4c-0.8-0.9-1.6-1.8-3.2-3.6c0.6,2.1,0.9,3.1,1.3,4.3
		c-3.7-1.1-3.7-1.1-3,6.6c-0.8-1.3-1.6-2.7-2.3-4c-0.8-1.4-1.5-2.8-2.8-4c1.4,4.1,2.8,8.2,4.2,12.4c-0.4,0.2-0.3,0.1-0.7,0.3
		c-5-9.1-10-18.1-14.9-27.2c0.3-0.2,0.2-0.2,0.6-0.4l4.7,5.6c0.3-0.2,0.5-0.4,0.8-0.6c-3.8-5.4-7.6-10.7-11.3-16.1
		c-0.8-1.2-0.8-2.9-1.2-4.4c2,2.1,3.9,4.1,5.9,6.2c0.3-0.3,0.7-0.7,1-1c-1.9-2-3.8-3.9-5.6-5.9c-2.1-3.2-3.6-7-6.3-9.5
		c-6.4-5.8-13.3-11-20.1-16.4c-0.5-0.4-1.2-0.6-1.4-1.6c5,0.1,9.4,1.7,13,4.7c8,6.6,15.1,14.3,23.6,20c12.8,8.6,26.5,15.9,39.9,23.7
		c0.9,0.5,1.9,1,2.8,1.6c4.4,2.6,8.3,5.4,6.5,11.6c-1.3,4.4,1.3,7.3,4.2,10c0.2,0.2,0.4,0.4,0.6,0.5c5.8,5.5,5.8,5.9-1.4,9.4
		c-1,0.5-2,0.9-2.8,1.5c-3.5,2.4-3,6.1,0.9,7.7c3.4,1.4,7,2.2,11.3,3.6c-3.5,1.3-6.4,2.2-9.1,3.5c-1.1,0.5-1.8,2-2.7,3
		c1.2,0.3,2.4,0.9,3.6,0.9c2.4,0.1,4.7-0.2,8-0.4c-2.7,1.4-4.6,2.4-6.5,3.4c0.4,0.1,0.8,0.2,1.9,0.5c-2.9,0.3-5,0.6-7.2,0.9
		c-5.6,0.8-7.5,4.8-4.4,9.5c1.7,2.6,4.2,4.7,6.5,6.9c2.7,2.6,2.8,4.1-0.3,5.9c-2.9,1.7-6.2,2.9-9.4,4.2c-2.8,1.1-7.4,7.5-6.9,10.3
		c0.1,0.7,1.7,1.6,2.6,1.6c3,0.2,6.1,0.1,9.3,0.5c-2.5,0.6-5.1,1.1-7.6,1.7c-3.1,0.6-6.3,1.2-9.4,1.8c-6.5,1.4-8.4,4.3-6.6,10.4
		c0.3,0.9,2,1.6,3.1,1.8c3.7,0.6,7.4,1,11,1.8c-6.7,0.6-13.3,1.2-20,1.8c-0.8,0.1-1.7,0-2.3,0.4c-1.1,0.7-2.1,1.7-3.2,2.6
		c1.1,0.9,2.1,2.4,3.4,2.7c2.7,0.6,5.4,0.5,8.2,1.3c-2.8,0.4-5.7,0.8-8.5,1.3c-2.2,0.4-2.9,1.9-1.1,3.2c1.8,1.3,4.1,2.6,6.2,2.7
		c6.2,0.3,12.5,0,18.8,0c1.3,0,2.5,0.1,4.8,0.2c-5.7,1.3-10.2,2.4-14.8,3.5c-2.9,0.7-4.2,2.2-2.7,5.2c0.2,0.5,0.4,1,0.5,1.5
		c1.6,7.1,2.1,7.5,9.6,7.9c11,0.6,22.1,1.2,33.1,1.7c0.6,0,1.3,0.2,2,1.2c-5.3,0.4-10.6,0.9-15.8,1.2c-25.1,1.7-50.3,3.3-75.4,5
		c-1.7,0.1-3.4,0.6-5.1,0.8c-4.1,0.5-3.8,3.7-3.4,6.3c0.1,0.9,2.6,2,4.1,2.1c4.5,0.3,9,0.1,13.5,0.1c0,0.7,0,0.4,0.1,1.2
		c-6.6,0.8-13.2,1.5-19.8,2.3c-2.5,0.3-5.1,0.3-7.5,1.1c-1.6,0.5-2.8,2.1-4.1,3.2c1.4,1,2.6,2.7,4.1,3c3.3,0.8,6.8,0.9,10.2,1.8
		c-5.7,0.7-11.5,1.3-17.2,2.2c-2.2,0.3-4.5,0.8-6.5,1.7c-1.1,0.5-2.8,2.3-2.6,2.9c0.4,1.2,1.9,2.7,3.1,2.9c3.4,0.6,6.9,0.6,10.3,0.6
		c12.5,0.1,25,0,37.6,0.9c-7,0.7-13.9,1.3-20.9,2c-5.4,0.5-10.9,0.8-16.3,1.5c-1.9,0.3-4.1,1.4-5.3,2.8c-0.9,1.1-1,3.6-0.5,5.1
		c0.3,1,2.4,2.2,3.6,2.1c5-0.2,10.1-1,15.1-1.3c2.9-0.2,5.8,0,8.7,0.9c-3.7,0.6-7.5,0.9-11.1,1.7c-5.7,1.3-11.3,2.9-17,4.3
		c-1,0.2-2.2-0.5-3.4-0.6c-11.7-0.6-23.4-1.2-35.1-1.8c-2.4-0.1-4.6,1.5-5,3.9c-1.2,6.6-3.1,13-6.2,19c-1.2,2.2-5.9,4.8-7.5,6.7
		c-10.3,12-20.2,19-35.5,23.3c-7.8,2.2-15.4,6.1-22.3,10.5c-21.4,13.9-45,18.2-69.9,16.9c-5.4-0.3-11.6,0.1-16.1-2.4
		c-5.3-2.9-11-2.6-16.2-4.8c-0.8-0.3-1.1-2.3-1.8-2.4c-3.4-0.5-6.8-0.6-10.3-0.8c0.4-0.5,1.1-1.3,1.4-1.7c-4.8-3.3-10-6-14.1-9.8
		c-7.2-6.7-21.2-7.7-28.9-2c-4.8,3.5-10.3,6-15.3,9.2c-1.1,0.7-2.2,1.9-2.6,3c-0.8,2.8-0.9,5.8-1.8,8.6c-0.6,1.7-2,3.1-3.1,4.7
		c-1.3-1.4-2.9-2.6-3.7-4.3c-1.2-2.2-1.9-4.7-2.7-7.1c-2.1-6-5.4-7.7-11.4-5.5c-3.9,1.4-7.6,3.1-11.3,5c-1,0.5-1.6,2-2,3.1
		c-1,2.9-1.5,6-2.7,8.8c-1.4,3.2-3.7,3.3-5.2,0.1c-1.3-2.8-2-5.8-2.8-8.8c-0.6-2.1-1.1-3.4-4-2.7c-4.1,1.1-8.3,1-12-2.2
		c-2.4-2.1-5.3-0.7-5.8,2.6c-0.4,2.5-0.5,5.1-1.1,7.5c-0.4,1.4-1.5,2.6-2.3,3.9c-1.1-1-2.4-1.9-3.1-3.2c-0.8-1.3-1.5-2.9-1.7-4.5
		c-0.5-5.6-4-8.6-8.4-11.7c-17-12-27.3-28.2-26.8-49.5c0.4-20.4,10.4-35,29.1-43.6c0.7-0.3,1.5-0.6,2.2-0.9c4.1-1.8,4.1-2.2,0.9-5.2
		c-2.1-2-2.8-4.8-2.8-7.9c0-1.4,1.8-4-1.8-4.1c0,0-0.1-1.4,0-2.1c0.3-5.2,0.7-10.3,1.1-15.5c-0.6-0.1-0.4-0.1-1-0.2
		c-0.6,2.1-1.2,4.3-1.9,6.4c-2.2,7.4-4.8,14.7-10,20.7c-2.9,3.4-6.4,6.9-11.2,5.3c-4.6-1.6-5.2-6.4-4.9-10.5
		c0.5-6.2,1.4-12.5,3-18.4c2.1-8-1.2-14.7-3.4-21.8c-0.2-0.5-0.6-0.9-0.7-1.4c-0.6-8-6.5-11.8-12.3-15.7
		c-10.8-7.3-20-16.2-28.2-26.3c-13-16.1-11.5-45.1,6.9-59.6c24.2-19.2,49.6-36.5,76.4-51.7c7.5-4.3,15.1-8.5,22-13.7
		c3.1-2.3,6-2.7,9.2-3.2c4.9-0.7,8.5-2.8,10.5-7.4c0.2-0.4,1.2-0.3,1.6-0.7c0.5-0.6,0.8-1.4,0.8-2.4c0.9-1.6,4.9,1.7,4.4-3.2
		c2.2-0.9,5.3,2.8,7.4-1c0.1-0.1,1.2,0.3,1.8,0.6c8.1,3,16.2,3.2,24.5,0.7c4.4-1.4,9-2,13.5-3.1c1.2-0.3,2.2-1.7,3.4-2.2
		c1.3-0.6,2.7-0.7,4-1.2c2.4-1,6.1,2.5,7.8-2c0.1-0.1,2.9,0.8,4.4,1.1c0.5,0.1,1.1-0.3,1.7-0.5c-0.3-0.6-0.6-1.1-0.7-1.2
		c3.2-0.8,6.7-1.6,10.1-2.4c0.5-0.1,1.1-0.4,1.5-0.2c7.6,2.1,13.1-2.3,19.4-5.5c7.9-4.1,16.3-8.7,24.9-9.8
		c7.7-0.9,16.5-2.3,24.1,2.4c0,0,0.1,0.1,0.1,0.1c0.7,1.4,1.4,2.8,2.4,4.8c-2.4-1.1-4.3-2.1-6.2-2.8c-10.7-3.9-20.7-1.4-30.5,2.7
		c0,0.6,0,0.6,0,1.2c3.3,1.2,6.6,2.5,9.9,3.7c-0.6,0-1.3-0.1-1.9-0.1c-0.1,0.3-0.1,0.5-0.2,0.8c2.4,0.7,4.9,1.4,7.3,2.1
		c0.5,0.2,1.1,0.5,1.6,0.7C281.1,260.4,281.5,259.2,280.5,262.1z M131.6,586.6c0.2,0.5,0.3,1,0.5,1.5c-2.6,3.1-4.7,6.4-4.2,10.6
		c0.7,5.4,1.6,10.8,2.5,16.2c0.2,1.3,1,2.5,1.6,3.7c1.4-1.4,2.1-2.7,2.3-4c0.6-5.1,1-10.3,1.7-15.5c0.6-4.5-0.8-8.1-4-11.1
		 M160.6,383c5.2-4,8.7-10.3,15.9-11.7c0.8-0.1,1.9-1.8,1.9-1.9c-1.9-2.2,0.5-2,1.4-2.4c3.4-1.5,6.9-2.8,10.5-4.3
		c-1.5-2.3-2.6-3.9-3.8-5.6c2.1-0.6,3.8-1.1,5-1.5c-0.1-1.1-0.6-2.1-0.2-2.5c1.8-2.1,3.7-4.1,5.6-6.1c0.3-0.3,0.6-0.8,0.8-1.1
		c1.1-1.5,1.9-3.7,3.4-4.3c7.2-3.1,14.5-4.9,22.3-2c1,0.4,2.3-0.2,3.5-0.3c-0.3-1.2-0.2-2.7-1-3.4c-5-5.3-18.4-7.4-24.7-3.7
		c-5,2.9-10.4,5.1-13.8,10.4c-2.8,4.4-6.6,8.3-9.8,12.4c-0.3,0.3-0.2,1.2,0.1,1.6c1.1,1.5,2.4,2.9,3.6,4.3
		C173.4,367.1,158.2,384.9,160.6,383z M216.1,381.7c2.8,0.8,6.3-0.2,8.2,3.1c0.7-0.5,2.1-1.3,2-1.5c-1.2-3.3,2.5-1.8,3-3.2
		c0.9,0.8,1.8,1.5,2.9,2.5c-0.3-2.3-0.7-4.3-1-6.4c0.2,0,0.4-0.1,0.7-0.1c0.7,1.6,1.4,3.2,2.1,4.8c0.2,0,0.4-0.1,0.5-0.1
		c0-1.9,0-3.9,0-6.3c1.5,1.5,2.7,2.8,3.1-0.2c0.2-1.7,0.7-3.4,0.8-5.1c0.8-8.6,0.9-17.1-9.5-20.8c0,0.7,0,1.4,0,2.8
		c-2.9-4.5-5.9-6.6-11.2-6.2c-5.3,0.4-7.8,1.7-12.4,4.6c-4,2.5-5,5.6-6.5,9.2c-0.2,0.5-1,1.1-1.6,1.2c-2.6,0.2-2,1.8-1.3,3.1
		c2.3,4.3,4.1,9.1,7.3,12.7c3.1,3.4,7.6,5.6,11.6,8.2c0.4,0.3,1.2,0,1.8,0C216.5,383.1,216.3,382.3,216.1,381.7L216.1,381.7z
		 M128.1,336.9L128.1,336.9c-2,5-4.4,9.9-5.8,15.1c-1.4,5.1-1.2,10.5-2.5,15.6c-4.4,18.2-9.6,36.1-19.1,52.4
		c-9.3,16-18.9,31.9-24.3,49.9c-1.3,4.5-3.4,8.7-5.2,13c-0.3-0.1-0.7-0.2-1-0.3c0-1.3,0-2.5,0-3.8c-2.9,5.9-5.2,11.8-3.5,18.5
		c0.4-1.6,0.8-3.3,1.2-4.9c0.2,0,0.4,0.1,0.6,0.1c0.3,1.5,0.6,3.1,0.9,4.6c0.2,0,0.5-0.1,0.7-0.1c0.2-1.2,0.3-2.3,0.5-3.2
		c0.7,0.9,1.8,2.8,2,2.7c2-1,4.3-1.9,5.5-3.6c1.9-2.6,3.3-5.8,4.6-8.8c6-14.9,10.2-30.6,19.3-44.2c1.5-2.2,2-5.2,2.6-7.9
		c0.3-1.2-0.5-2.8,0-3.9c3.7-7.9,6.8-15.9,8.6-24.7c3.1-15.4,7.9-30.4,12.4-45.5c3.2-10.5,6.2-21.2,12.9-30.2
		c3.6-4.8,7.9-9.1,11.9-13.6c-0.6,0-1.4,0-2.2,0c4.4-2.9,9-5,13.5-7.2c1.1-0.6,2.4-1.3,2.9-2.4c1-2.2,1.2-4.9,2.5-7
		c1.4-2.4,3.3-5.4,5.6-6.3c5.5-1.9,11.4-2.7,17.2-3.9c-6.3-9.2-16.3-12.2-26.4-15.2c1.4,0.9,2.8,1.9,4.9,3.3
		c-7.9-1.5-8.5-1.4-11.6,1c0.8,0.4,1.7,0.8,2.5,1.2c-2.9,0.6-5.6,0.1-8.3,0.2c-1.4,0-2.7,1.1-4,1.7c3.3,2.3-0.6,1.5-1,2
		c-0.6,0.7-1.8,1-2.7,1.4c4.2,1,8.1,1.9,11.4,2.7c-6.4,1.7-13.3,3.5-20.1,5.3c0.1,0.3,0.2,0.6,0.2,0.8c4.5-1,9-1.9,13.5-2.9
		c0.1,0.2,0.1,0.4,0.2,0.7c-4,1.6-7.9,3.2-11.9,4.8c0.1,0.5,0.1,0.9,0.2,1.4c3.7-3.2,4.5,2.6,7.1,1.5c-2.5,2.9-5,5.8-7.5,8.8
		c0.3,0.3,0.6,0.6,0.9,0.9c1.3-0.7,2.5-1.4,4.3-2.3c-0.6,1.1-0.9,1.6-1.1,2c-4.4,8.5-8.8,17-13,25.6
		C126.9,333.6,124.9,335.8,128.1,336.9z M137.9,592.2c0.4-0.3,0.9-0.6,1.3-0.9c0.4,3.5,1.1,6.9,1.1,10.4c0,3.5,0.4,4,3.7,2.8
		c3.4-1.2,5.1-3.8,5.4-7.2c0.3-3.8,1.7-11.9,1.5-16.4c-0.1-1.1-1.3-2.1-2.1-3.2l0.1,0.1c0.5-2.1,1.6-4.3,1.5-6.4
		c-0.3-4.8-0.9-9.6-1.9-14.2c-1-4.7-1.3-9.5-3.9-14.1c-2-3.7-0.7-4.4-5-2.8c-5,1.8-10,3.6-15.1,5.4c-0.1-0.4-0.3-0.7-0.4-1.1
		c5.4-2.1,10.8-4.3,16.2-6.4c2.6-1,3.8-2.5,3.7-5.4c-0.2-3.5,0-6.9-0.1-10.4c0-0.3-0.3-0.6-0.6-1.2c-0.5,1.3-0.9,2.2-1.2,3.2
		c-0.2-0.1-0.5-0.2-0.7-0.2c1-3.3,2-6.7,3.3-10.8c-1.4,1.1-2.2,1.7-3.3,2.5c-0.1-3.7-2.4-4.2-5.3-3.7c-0.5,0.1-1.1,0.5-1.5,0.4
		c-4.4-2.2-8.7-3.2-13,0.2c-0.3,0.2-0.9,0.3-1,0.2c-2-3.4-3.1-0.1-3.7,0.8c-1.7,3-3.1,6.2-4.5,9.3c-0.4,0.9-0.6,2.1-0.5,3.1
		c0.2,1.8,1.2,3.7,0.9,5.4c-3.4,21.7-1.8,43.3-0.4,65c0.2,2.6,0.9,5.3,1.9,7.7c1.1,2.9,5.9,4.4,9,2.8c3.4-1.7,0.7-4,0.1-5.8
		c-1.7-5-1.2-9.8,1.2-14.3c0.7-1.4,2.8-3,4.1-2.9c4.6,0.5,8.9,2.1,10.5,7.2 M200,512.8c-1.5-0.8-3-1.7-4.6-2.4
		c-2.9-1.3-5.7-2.8-8.7-3.8c-1-0.4-2.5,0.5-3.7,0.8c0.3,1,0.7,1.9,1.1,3c-0.4-0.1-0.8-0.1-1.2-0.3c-10.3-3.9-16.5,0.7-15.7,11.6
		c0,0.5,0.1,1.1,0.1,1.6c0.1,3.4,1.6,4.5,5.1,4c5.9-0.7,11.8-0.8,17.8-1.1c-5.6,1-11.1,1.5-16.7,2c-3.5,0.3-4.8,1.7-3.6,5.5
		c2.9,8.7,7.9,16,14,22.6c1.3,1.4,4,2.2,6.1,2.2c5.3,0.1,10.6-0.5,16-0.6c2.1,0,4.2,0.5,6.3,0.8l-0.1,1.5H188
		c-0.3,0.6-0.3,0.7-0.5,1.3c5.2,5.2,10.3,10.5,15.7,15.4c6.1,5.6,13.5,8.7,21.8,10.2c15.6,2.9,30.1-1.4,44.6-6.3
		c4.6-1.6,9.1-3.7,13.5-5.9c3.3-1.6,4.8-4.4,3.4-8.5c-0.8,1.1-1.4,2-2.6,3.6c-0.4-2.7-0.6-4.6-0.9-7.1c-1,2.3-1.7,3.8-2.3,5.3
		c-0.3-1.5-0.6-3.1-0.9-4.6c0-0.2-0.2-0.4-0.5-0.8c-0.8,1.7-1.5,3.2-2.3,4.8c-0.6,0-0.6,0-1.2-0.1c-0.5-1.8-1.1-3.6-1.5-5
		c-1.1,1.7-2.3,4.1-3.9,6.2c-0.4,0.5-1.8,0.9-2.3,0.6c-0.6-0.3-0.9-1.6-0.8-2.3c0.3-1.6,1-3.1,1.6-4.7c-0.4-0.2-0.3-0.2-0.7-0.4
		c-1.4,1.7-2.9,3.4-4.6,5.5v-3.1c-4.3,2.7-8.6,5.4-12.9,8.1c-0.5-0.5-0.4-0.4-0.9-0.9c2-3.2,3.9-6.4,6.2-10.1
		c-1.5,0.7-2.3,1.1-3.7,1.9c0.4-1.9,0.7-3.2,0.9-4.4c0.6-1.1,1.4-2.9,2-4l4.3-4.9c-1.6-1.3-3.4-2.4-4.9-3.8
		c-4.2-4.2-8.4-8.5-12.4-12.9c-1.1-1.2-1.4-3.1-2.2-4.6c-1.8-3.6-4.1-6.9-5.5-10.7c-2.8-7.3-0.8-14.5,1.5-21.5
		c5.1-15.5,18.2-25.8,33.9-26.8c8.6-0.5,17.3-1.1,25.9-1.3c11.4-0.3,22.3,2,31.8,8.9c16.9,12.3,19.2,31.1,6.1,47.3
		c-2.1,2.5-3.5,5.6-4.9,8.6c-1.4,3-2.4,6.3,2.6,7.2c-1.2,1.6-2.2,2.8-3.2,4.1l-2.7-0.6l0.5,2c-6.8-1.2-11.2,3.5-16.2,6.7
		c-0.2,0.1-0.1,0.8-0.1,1.1l0,0c-2.8-0.7-2.4,0.8-1.6,2.4l0,0c-2,0.1-3.9,0-5.8,0.3c-0.3,0-8,6.8-9.4,5.3c-0.3,8.8,1,11.1,8.8,13.3
		c15,4.1,30.1,8.1,45.2,11.8c18.2,4.5,34.3-0.4,48.7-11.6c4.3-3.4,7.9-7.6,11.8-11.5c-0.3-0.6-0.3-0.7-0.5-1.3
		c-4.4,0-8.8-0.1-13.1,0c-4.3,0.1-8.5,0.6-12.8,0.7c-4.4,0.1-8.8,0.1-13.2-0.3c-4.2-0.3-8.4-1.1-12.6-1.7
		c17.2,2.9,34.4-0.4,51.5-0.3c2.3,0,4.1-0.8,4-3.3c0-0.4-2.6-1-3.9-1c-11.2,0.2-22.3,0.7-33.5,0.8c-5.4,0-10.8-0.9-16.1-1.3
		c15.3-0.3,30.6,0.1,45.8-0.5c10.4-0.4,10.4-1,13.1-11c1.1-4.2,0.7-4.3-3.7-4.2c-15,0.1,4.6-3.2,5.4-3.9c-0.9-0.4-1.7-1-2.6-1.2
		c-1-0.2-2.1,0-3.2-0.1c-6.8-0.7-13.5-1.5-20.3-2.2c7.7,0.1,15.4,0.5,23.1,0.9c3.1,0.2,4.6-1.3,5.2-4.3c0.8-4.2,1.7-8.4,2.9-12.4
		c1.5-5.4,4.6-9.7,10-11.7c13.1-4.9,18.5-15.7,20.1-28.2c1.1-8.5,0.3-17.3-0.7-25.8c-0.6-4.8-3.2-9.4-4.9-14.1
		c-0.3-0.7-0.8-1.4-0.9-2.2c-0.7-5.2-6.2-9.7-11.3-9.1c-0.6,0.1-1.2,0.6-1.7,1.1c-1.5,1.6-2.8,3.3-4.2,4.8c-1.5,1.6-3.3,3-4.8,4.7
		c-1.3,1.5-2.1,3.5-3.5,4.9c-2.4,2.6-6.1,4.7-7.1,7.7c-0.8,2.6-2.1,3.2-3.9,4.2c-0.9,0.5-2.4,1.6-2.3,2.2c0.3,2.2,0.6,5.6,2,6.3
		c2.5,1.2,3,3.2,4.3,5c1.1,1.5,2.3,3.2,3.9,4c4.3,2.2,8.8,4,13.2,6c-0.2,0.5-0.1,0.3-0.3,0.8c-2.1-0.4-4.3-0.9-6.4-1.3
		c-0.1,0.4-0.1,0.3-0.2,0.6c1.8,1.1,3.7,2.2,5.5,3.3c-0.4,0.1-0.8,0.3-1.3,0.4c0.1,0.9,0.2,1.7,0.4,3.3c-9-3-17.8-5.9-27.7-9.2
		c1.5,2.3,2.3,3.5,3.3,5.1c-2-0.2-3.5-0.4-5.6-0.6c1.1,1.2,1.7,1.9,2.5,2.8c-6.9-1.1-12.1-4.2-16.5-9l-0.1,0.1c0-0.7,0.3-1.7,0-2.1
		c-5.9-6.8-11.9-13.6-17.9-20.4c-0.6-0.6-1.1-1.4-1.6-2c4.1-1.2,0.2-2.4-0.2-2.7c-4-3.3-8.1-6.3-12.2-9.5c-0.6-0.5-1.6-1.3-1.5-1.7
		c1-3.6,1.3-4-1.7-5.1c-3.7-1.4-7.7-2.1-11.8-3.1c1.7-0.6,3.4-1.2,5.9-2c-5.7-1.6-10.7-3.1-12.6-8.8c-0.1-0.2-0.7-0.2-1.1-0.2
		c-2.1-0.2-2.2-1.5-1.6-3.1c0.4-1.2,0.7-2.5,1.3-4.7c-1.3,1.2-1.9,1.8-2.6,2.4c-0.2-3.2-0.4-6.2-0.7-9.9c-1.1,1.8-1.8,2.9-2.6,4.2
		c-0.7-3.1-1.2-5.8-1.8-8.5c-0.5,0-0.4,0-0.9,0c-0.2,1.3-0.5,2.6-0.8,4.4c-1.1-3.3-2-6-2.9-8.8c-0.7,0.1-0.6,0.1-1.3,0.2v11.2
		c-0.1,0-0.3,0-0.4,0c-0.5-4-0.9-8-1.4-12c-0.3,0-0.6,0.1-0.8,0.1c-0.1,0.6-0.3,1.2-0.5,1.9c-1.5-2.5-2.9-5-4.4-7.4
		c0.8,7.1,3.3,14-2.7,19.8c-0.7-3.5-1.5-7-2.3-10.5c-0.7,0.1-0.5,0.1-1.2,0.1v10.1c-0.9-1.6-1.3-2.2-2-3.4c-0.1,2.7-0.2,4.7-0.3,6.6
		c-0.5,0-0.3,0-0.8,0.1c-0.6-2.5-1.2-5-1.8-7.5c-0.6,0.1-0.4,0.1-1.1,0.1v8.4c-1.4,0.4-1.2,0.3-2.7,0.7c-1.4-2.5-2.7-4.9-4.1-7.4
		c-0.6,0.1-0.6,0.1-1.2,0.2c-0.1,0.9-0.2,1.7-0.3,2.8c-1.2-1.8-2.3-3.2-3.3-4.7c-0.4,0.2-0.3,0.1-0.7,0.3c0.3,1.7,0.6,3.4,1,5.7
		c-2.7-3-5-5.5-7.2-8.1c-0.6,0.2-0.6,0.2-1.2,0.5l0,13.5c-4.3-5.4-7.9-9.7-12.1-14.9c-0.2,2.5-0.2,3.6-0.2,3.8
		c-1.9,0.2-3.3,0.3-4.8,0.4c1.4,2.5-2.3,2.6-2.1,3.7c0.6,2.9-1.5,4.2-2.8,6.2c-2.9,4.4-5.6,5.7-10.6,4.9c-1.4-0.2-2.9,0-4.4,0.1
		c0.7,1.2,1.5,2.5,2.2,3.7c0.1,0.2,0,0.5,0,1c-1.7,0.5-3.5,1-5.4,1.5c2.2,1.2,3.8,2.1,5.5,3c-0.9,0.8-1.8,1.5-2.8,2.4
		c1.6,0.5,3,0.9,4.5,1.3c-1.4,3.6,1.9,2.2,3.1,2.6c5.8,2.1,12.1,3.1,16.3,8.4c-2.4-1.3-4.9-2.5-7.3-3.8c-0.3,0.4-0.6,0.7-0.8,1.1
		c1.8,1.1,3.6,2.1,5.3,3.2c-0.2,0.6-0.2,0.5-0.4,1.2c-1.3-0.1-2.6-0.2-3.9-0.3c0.3,0.2,0.6,0.5,0.9,0.7c-0.5,1-1,2.1-1.4,3.1
		c-0.4,1-1,2.2-0.8,3c1,2.9-1.2,2.9-2.8,3.6c-3.7,1.6-7.4,3.3-11,5.2c-3.4,1.8-6.1,5.2-10.6,4.2c-0.3-0.1-0.9,0.4-1.2,0.8
		c-0.4,0.4-0.6,1.1-1,1.3c-3.3,1.6-7.2,2.4-9.7,4.8c-4.6,4.5-8.4,9.9-12.5,15c-5.2,6.3-10.3,12.8-15.8,18.9c-2.1,2.3-1.5,3,0.7,4.3
		C194.1,508.7,197,510.9,200,512.8L200,512.8z M95.2,546.1c-0.3-0.1-0.6-0.1-1-0.2c0.5-4.3,0.9-8.7,1.5-13c0.5-3.7-0.2-7.7,3.1-10.9
		c2.3-2.2,3.7-5.3,5.6-8.1c-0.2-0.3-0.4-0.7-0.6-1c-2,0.6-4.1,1.2-6.5,2c1-1.8,1.9-3.3,3.2-5.8c-2.7,1.4-5.1,1.9-6.1,3.3
		c-2.2,3.4-5.7,3.6-8.8,4.5c-4.2,1.2-8.8,5.9-9.5,10c-0.9,4.8-1.9,9.7-3.4,14.4c-4,12.3-6,24.6-1.4,37.2c3.6,10,11.7,15.6,20,20.6
		c0.4-5.5,0.6-10.5,1.1-15.4c0.3-3.3,1.6-5.4,5.5-3.1c0.6,0.4,1.9-0.4,3.2-0.7c0.2,0.4,0.9,1.6,1.7,2.7c0.3-0.1,0.6-0.2,0.8-0.3
		c-1.1-11.2-2.3-22.4-3.4-33.6c-0.2,0-0.3,0-0.5,0c-0.3,1.1-0.6,2.2-0.9,3.5c-0.3-0.9-0.5-1.6-0.9-2.9c-0.6,1.4-1,2.2-1.4,3.1
		c-0.2-0.1-0.4-0.1-0.6-0.2c0.8-3.7,1.6-7.5,2.4-11.2c-0.2,0-0.4-0.1-0.5-0.1C97,542.6,96.1,544.3,95.2,546.1z M274.8,478.6
		c-10.3-1.5-17.2,1.2-23,5.4c-3.6,2.7-5.7,7.6-8.1,11.8c-0.4,0.7,1.4,3.7,2.4,3.9c3.5,0.6,7.1,0.5,10.6,0.4c6-0.1,11.9-2.8,17.9,0.5
		c1.6,0.9,4.3,0.9,6.1,0.2c5.9-2.2,11.8-2,17.8-1.1c7.8,1.2,15.5,2.5,23.2,3.8c7.3,1.3,10.8-2.7,8.2-9.7
		c-3.1-8.4-9.9-12.9-18.1-13.7C298.7,478.8,285.3,479,274.8,478.6z M364.2,329.4c-3.1-0.3-6.1-0.5-9.1-0.9c-3.4-0.4-6.4-1.4-9.6,1.6
		c-9.7,9.1-12.6,20.5-11.9,33.3c0.5-2.3,1-4.5,1.3-5.7c1.2,4,2.5,8.8,4,13.6c0.1,0.4,0.4,0.8,0.8,1.5c1-2.1,1.8-3.9,2.5-5.6
		c0.2,0.1,0.3,0.1,0.5,0.2c-0.1,1.7-0.2,3.3-0.3,6c0.8-1.6,1.2-2.2,1.7-3.2c0.2,2,0.4,3.4,0.7,5.9c0.8-1.8,1.2-2.5,1.9-4
		c0.6,2.4,1,4.2,1.6,6.5c0.8-2.1,1.4-3.7,2-5.3c0.9-2.6,2.9-2.9,4.5-1.3c2.2,2.1,3,0.7,4.4-0.7c3.3-3.3,6.8-6.5,10.3-9.7
		c0.2,0.2,0.4,0.4,0.6,0.6c-2.8,2.7-5.7,5.3-8.5,8c0.4,0.4,0.9,0.8,1.3,1.2c6-6.5,12-13.1,18.4-20.1c-1.6,0-2.6,0-3.9,0
		c4.6-3.5,4.6-3.5,0.8-7.6c-0.1-0.1-0.2-0.2-0.3-0.3c-0.5-4.6-4.3-5.1-7.6-6c-2.1-0.6-2.1-1.4-0.8-2.7c0.6-0.6,1.4-1,3.2-2.3
		c-2.9,0-4.7,0.1-6.4,0c-1.1-0.1-2.2-0.7-3.3-1.1C363.3,330.6,363.8,329.9,364.2,329.4z M409.8,335.6c1.4-0.4,2-0.6,2.7-0.7
		c4.4-1.1,4.8-2.6,1.8-5.9c-5.9-6.3-15.4-8.6-23.2-5.6c-0.6,0.2-0.9,1.5-1.3,2.3c-0.2,0.5-0.3,1.1-0.6,1.5
		c-1.1,1.5-0.7,8.6-0.2,10.2c0.7,2.2,5.1,2.5,2.9,6c0,0,0.4,0.3,0.5,0.5c2,2.1,4.1,4.3,5.4,5.6c0,1.2-0.3,2,0,2.4
		c1.2,1.6,2.6,3,3.9,4.6c2.6,3.1,5.3,6.1,7.8,9.3c3.5,4.6,7.1,9.2,10.2,14c3.9,6.1,7.4,12.4,11.1,18.6c0.4-0.2,0.8-0.5,1.2-0.7
		c-1.9-3.5-3.8-7-6.1-11.4c1.5,1.1,2.1,1.5,3.3,2.4c-0.9-2.3-1.5-4-2.3-6c1.3,0.5,2.2,0.8,4.2,1.5c-2.2-4.2-3.9-7.4-5.6-10.7
		c2.6-0.9,3.1-1.8,1.1-3.8c-2.5-2.5-5.5-4.4-8-6.4c2-1,4.2-2.1,6.8-3.3c-5.5-2-10.5-3.8-15.4-5.6c0.1-0.4,0.2-0.8,0.3-1.2
		c2.1-0.5,4.1-0.9,6.8-1.5c-5.3-1.5-8.2-4.3-7.8-8.2c0.2-1.8,2-3.4,3.2-5.4C412.2,337.9,411.2,337,409.8,335.6z M256.6,600.4
		c-1,0.5-1.8,0.8-2.7,1.2c-0.6-2.5-2.2-0.4-2.2-0.1c-0.4,1-0.8,2.5-0.3,3.1c1,1.2,2.4,2.1,3.8,2.7c29.7,13,58.5,9.2,86.6-5.1
		c1.2-0.6,2.2-1.7,3.3-2.5c-2.8-0.5-5.3,0.3-7.7,0c-3.5-0.5-7.8,2-10.3-2.5c-0.1-0.2-0.5-0.2-0.9-0.3c-0.2,1-0.4,1.9-0.8,3.4
		c-0.9-1.1-1.5-1.9-2.3-2.8c-0.9,3.4-2.2,3.7-4.8,1.4c-0.5-0.5-1.2-1.1-1.8-1.2c-1.2-0.1-2.4,0.3-3.6,0.5c-1.2,0.3,0.2,5.1-3.6,2.2
		c-2.2-1.7-3.8-0.8-5.5-0.8c-2.4,0-5.5,1.7-7.1,0.7c-2.9-1.7-1,2.3-2.7,1.6c-3.7-1.5-6.2,0.1-7.6,5.2c-0.6-2.8-1-4.2-1.5-6.5
		c-0.8,2.4-1.3,4.1-1.9,6.1c-0.6-1.3-0.9-2.2-1.2-3c-0.2,0.1-0.4,0.1-0.7,0.2c0,2.2,0,4.3,0,6.7c-1.7,0-4.5,0.2-4.5,0
		c-0.3-2.2-0.2-4.5-0.2-7.8c-1.3,2.3-2.1,3.7-3,5.2c-1.4-1.4-2.7-2.5-4.1-3.8c-0.2,0.3-0.7,1.3-0.8,1.6c-1.2-0.5-2.2-0.9-3.6-1.4
		c0-1.2,0-3.3,0-5.4c-0.1,0-0.3,0-0.4,0c-0.6,1.7-1.2,3.4-1.8,5.1c-0.2,0-0.3,0-0.5,0c0.1-2.3,0.2-4.7,0.3-7c-0.2,0-0.5-0.1-0.7-0.1
		c-1.4,2.2-2.8,4.4-4.4,7C257.1,602.3,256.9,601.5,256.6,600.4z M156.7,595.1c0.3,0,0.5,0,0.8,0c0.1-2.3,0.1-4.6,0.4-6.9
		c0.3-3,4-7.6,6.1-7.8c2.2-0.2,8.6,4.1,9.1,6.4c0.7,3.5,1.1,7.1,1.6,10.6c0.5,4.3,1.7,5.2,5.3,2.6c3.7-2.6,7.7-5.6,10.1-9.3
		c5.6-8.6,5.5-14.2-1.8-20.7c-9.7-8.7-9.6-9.1-21.8-4c-9.5,3.9-11.6,7.1-11.2,17.2c0.1,3.2,0.5,6.4,0.8,9.5
		C156,593.5,156.4,594.3,156.7,595.1z M180.6,488.3c-0.1-0.2-0.1-0.4-0.2-0.6c-1.8,0.8-3.6,1.6-5.5,2.3c-0.7,0.3-2.2,0.4-2.2,0.3
		c-0.8-4.4-4.6-2.1-6.3-2.2c-4.3-0.1-8.9,0.5-12.8,2.1c-4.9,2-8.7,0.6-9.5-4.7c-0.2-1.2-0.2-2.9-0.9-3.4c-3.3-2.3-4.9-5.1-3.9-9.1
		c0-0.1,0-0.3,0-0.4c-3.7-3.1,0.5-7.1-1.3-10.9c-1.2-2.5,1.4-6.6,1.2-9.9c-0.2-3-1.4-5.9-1-9c0.1-0.8-0.2-1.7-0.5-3.4
		c-3.2,4.7-6,8.6-9,13c1.3-0.3,2.2-0.6,4-1.1c-3,2.9-5.3,5.1-7.6,7.3c0.2,0.2,0.3,0.4,0.5,0.6c2.2-1.3,4.5-2.6,6.4-3.7
		c-1.8,5-3.5,9.8-5.2,14.7c-0.2,0.6-0.1,1.8,0.3,2.1c1.7,1.2,1.6,1.2,1.9,2.4c0.3,1.4,0.7,2.8,1.2,4.1c1.3,3.1,2.9,6.1,4.1,9.2
		c1.4,3.4,3.3,6.8,7.2,7.1c10.9,0.7,21.2,3.9,31.5,7c3.5,1,6.4-0.6,8.4-2.6c-2.3-2.2-4.4-4.3-6.7-6.6
		C176.7,491.4,178.7,489.8,180.6,488.3z M511.1,473.1c0.5-0.5,0.9-0.9,1.4-1.4c-0.3-0.6-0.6-1.2-0.9-1.7
		c-14.1-22.2-24.3-46.1-33.1-70.7c-7.6-21.3-16.2-42.2-24.9-63.1c-3.4-8.2-8.6-15.6-15.4-21.7c-1.2-1-2.6-1.8-3.9-2.7
		c-0.1,1.6,0.3,2.5,0.9,3.3c10.9,15.2,19.5,31.8,26.4,49.1c9,22.5,17.3,45.3,26.8,67.6c5.3,12.4,12.4,24.1,18.8,36
		C508.2,469.8,509.8,471.4,511.1,473.1z M156.2,325.3c-0.8,1.1-1.9,2.2-2.5,3.4c-22,43.4-36.5,90.2-59.5,133.1
		c-0.3,0.6-0.2,1.5-0.3,2.4C100.6,460.3,154.5,341.1,156.2,325.3z M369.8,429.7c9.5,5.5,19.6,4.9,29.6,2.4
		c9.8-2.4,18.9-14.1,17.8-22.6c-0.4,1.2-0.7,2.1-1,2.9c-4,10.8-11.5,17-23.2,17.7c-2.4,0.2-4.8,0.5-7.2,0.5
		c-10.7-0.1-19.9-4.2-27.7-11.4c-1.6-1.5-2.5-1.4-3.9-0.2c-3.1,2.8-3.2,6.9,0.6,9.5c5.9,4,12.3,7.4,18.5,10.9c1,0.6,2.3,0.8,3.5,0.7
		c5.5-0.3,11.1-0.5,16.6-1.1c16.4-1.6,26.8-11.4,29.4-27.7c0.2-1.2,0-2.4,0-3.6c-4.3,11-8.3,22.4-20.3,26.7
		C391.2,438.6,379.7,438,369.8,429.7z M153.7,571.6c7.9-3.6,14.7-7,21.7-9.7c3.3-1.3,2.7-2.2,1.4-4.7c-4-7.3-7.9-14.8-11.2-22.4
		c-1.5-3.4-3.3-3.9-5.6-2c-1.5,1.2-2.5,3.6-2.8,5.5c-0.5,3.9,0.1,8-0.4,11.9c-0.3,2.1-2.7,4-2.9,6.1
		C153.4,561.4,153.7,566.5,153.7,571.6z M405.6,386.4c5.8,10.9,7.5,21.6-1.1,31.7c-5.5,6.5-17.5,8.7-26,4.5
		c-15.4-7.6-15.7-20.3-10.8-34.9c-1.2,0.6-1.7,1.5-2.3,2.4c-4.4,7.3-6.9,15.3-6.6,23.9c0.1,3.3,1.7,5.7,4.5,7.5
		c10.9,7.2,22.6,9.3,35.1,5.7c9.1-2.6,15-8.5,16.4-18.1C416,399.9,412.7,392.3,405.6,386.4z M417,394.7c-0.8-11.8-12.6-23.2-24-24.4
		c-15.7-1.6-30.2,7-36.5,21.7c-2.5,6-5.1,12-7.3,18.1c-0.5,1.4,0,3.1,0.1,4.7c1.5-0.9,3.1-1.6,4.4-2.7c0.6-0.5,0.7-1.7,1-2.6
		c1.5-4.8,3-9.7,4.6-14.5c4.1-11.9,13.1-18.1,25.1-20c11.6-1.9,20.8,2.6,27.7,12C413.7,389.2,415,391.5,417,394.7z M373.1,396.1
		c-1.3,3-2.9,5.3-3.1,7.6c-0.5,6.9,2.9,12,8.7,15.4c5.4,3.2,15.4,2,20.2-1.6c4.2-3.1,6.3-7.3,6-12.3c-0.1-1.9-2.5-3.6-3.9-5.4
		c-0.8,1.3-1.9,2.6-2.3,4c-1.3,5.2-4,7.9-9.1,8.7c-5.7,0.9-8.8-0.6-11.5-5.6C376.5,403.8,375.2,400.7,373.1,396.1z M170.4,400.8
		c-0.6-0.2-1.1-0.3-1.7-0.5c-1.1,2.2-2.6,4.4-3.3,6.8c-3.1,10.5,3,22.9,13.6,26.7c12.4,4.4,23.6,1.1,34.3-6.1
		c6.9-4.7,4.8-14-0.6-21.2c0.2,7.9-1.3,14.5-6.4,19.7c-5.4,5.4-12.2,6.3-19.3,5.4c-5.1-0.6-9.2-3.2-12.6-7
		C168.1,417.5,168.5,409.3,170.4,400.8z M333.4,516.4c-6.6-0.5-10,4.1-14.1,7.6c-3.7,3-7.8,6.4-12.9,4.5c-5.3-2-5.6-7.3-6.3-12
		c0-0.1,0-0.3,0-0.4c-0.6-1.2-1.1-2.4-1.7-3.6c-0.9,1.3-2.9,2.9-2.6,3.9c1.2,4.3,2.7,8.5,4.7,12.5c2,4.1,6,5.6,10.4,5.6
		C320.5,534.4,329.3,526.5,333.4,516.4z M171.9,601.4c-0.6-4.2-1.1-8.7-2.2-13c-0.3-1.3-2.6-2.4-4.1-2.8c-0.5-0.1-2.3,2-2.5,3.2
		c-0.9,8.6,0.6,16.9,3.9,24.9c0.3,0.8,1.1,1.3,1.7,2c0.5-0.7,1.3-1.4,1.4-2.2C170.9,609.7,171.3,605.7,171.9,601.4z M274.8,511.5
		c-0.1,2.3-0.1,3.7-0.3,5c-0.4,2.6-0.5,5.4-1.3,7.8c-1.8,5.3-5.5,7.2-10.6,4.9c-3.4-1.5-6.3-4.3-9.5-6.4c-1.3-0.9-2.7-1.6-4-2.4
		c-0.4,0.7-1.2,1.7-1,1.9c2.3,3.1,4.5,6.3,7.1,9.1c4.2,4.4,12.6,4.7,16.7,0.9C276.5,528.3,278.1,518,274.8,511.5z M205.5,439.2
		c-2.2,0.8-4.4,1.9-6.7,2.2c-4.7,0.6-9.6,1.6-14.1,0.9c-13-2.1-20.6-10.7-24.7-22.8c-0.7-2.2-1.4-4.5-2.1-6.7
		c-0.4,0.1-0.7,0.2-1.1,0.3c0,0.6-0.1,1.3,0,1.9c2.1,8.2,5.3,15.9,11.3,22.2C179,448.4,194.5,449.4,205.5,439.2z M101,617.6
		c0.9-1.4,1.3-1.8,1.4-2.2c2-7.8,1.7-15.5-0.1-23.3c-0.3-1.1-1-2.2-1.9-3c-2-1.9-3.7-1.8-4,1.3C95.3,599.6,97.3,608.2,101,617.6z
		 M163.9,398c1.4-1.8,2.1-2.8,2.9-3.8c9.1-12.2,21.5-15.2,33.2-8c7.3,4.5,13.1,10.4,16.9,18.2c0.6,1.3,1.3,2.5,2.4,4.4
		c0.1-1.2,0.3-1.6,0.2-1.9c-2.6-12.4-14.7-24.1-27.3-26.4C181.3,378.5,166.9,386.9,163.9,398z M155.9,507.3
		c4.5-1.3,9.5-2.7,15.1-4.3c-13.2-5.3-24.3-7.5-29.9-5.6C146.2,500.9,150.9,504,155.9,507.3z M196.1,423.6c-2.8-0.6-6.4-0.6-9.1-2.2
		c-6.2-3.6-8.1-9.4-6.2-16.5c0.3-0.9-0.3-2.1-0.5-3.2c-1.1,0.5-2.3,0.9-3.3,1.6c-0.6,0.4-0.8,1.3-1.1,2.1c-2.5,5.8-1.1,11.4,4,16.2
		C184.4,425.9,190.4,426.5,196.1,423.6z M433,537.8c3.7-0.4,7.8-0.7,11.8-1.3c0.9-0.1,1.6-1.3,2.4-2c-0.9-0.6-1.8-1.7-2.7-1.7
		c-7,0.2-14,0.6-21,1.1c-0.9,0.1-1.7,1.6-2.5,2.5c1,0.5,1.9,1.3,2.9,1.4C426.7,538,429.6,537.8,433,537.8z M162.8,412.6
		c-2.1,7.6,2.8,17.9,10.9,23.5c7.4,5.1,21,5.5,28.9,0c-9.7,2.3-18.3,3.4-26.5-1.6C167.9,429.5,163.9,422,162.8,412.6z M28.6,360.6
		c-10.9,9.2-10.3,21.8-10.1,34.3C21.6,383.4,19.6,370.4,28.6,360.6z M389.4,392.3c0,0.7,0,1.3,0,2c1.7,1.2,3.3,3,5.2,3.4
		c2.2,0.5,4.2-1,4-3.7c-0.2-2.7-1.7-4.7-4.5-4.4C392.5,389.7,391,391.3,389.4,392.3z M194.3,406.1c2.6,2,4.1,4,5.6,4.1
		c1.3,0,3.5-2,3.8-3.4c0.5-2.4-1.1-4.7-3.9-4.3C198.3,402.6,196.9,404.3,194.3,406.1z M162.3,519.9c-0.4,0-0.9,0-1.3-0.1
		c-0.8,2.5-1.8,4.9-2.4,7.5c-0.3,1.1-0.1,2.3-0.1,3.4c0.8-0.1,1.8,0.1,2.2-0.4c1-0.9,2.4-2,2.4-3.1
		C163.3,524.9,162.6,522.4,162.3,519.9z M289,524.4c-0.3,0.1-0.7,0.1-1,0.2c0.5,2.3,1,4.7,1.4,7c0.3-0.1,0.5-0.1,0.8-0.2
		C289.8,529.1,289.4,526.7,289,524.4z M278.4,605.3c-0.3,1-0.6,1.5-0.6,1.9c0,0.2,0.4,0.4,0.6,0.6c0.2-0.3,0.4-0.7,0.4-1
		C279,606.5,278.7,606.1,278.4,605.3z M520.7,385.5c-0.2,0-0.4,0-0.7,0c-0.1,0.7-0.2,1.4-0.3,2.2c0.1,0,0.3,0.1,0.4,0.1
		C520.3,386.9,520.5,386.2,520.7,385.5z M248.7,601.9c0.1,0.1,0.2,0.2,0.3,0.1c0.1,0,0.1-0.2,0.2-0.3c-0.2-0.1-0.3-0.1-0.5-0.2
		C248.7,601.6,248.7,601.8,248.7,601.9z"/>
	<path d="M299.6,244.5C299.6,244.5,299.6,244.4,299.6,244.5c-0.4-1.2-0.8-2.3-1.2-3.4c1.1-0.3,2.3-1.1,3.3-0.9
		c8.2,2.1,16.6,3.1,24.9,4.5c4.1,0.7,7.8,3.6,11.7,5.4c1.8,0.8,3.5,1.9,5.4,2.3c7.5,1.9,15,3.4,22.4,5.3c1.6,0.4,2.8,2,4.3,2.7
		c11,4.7,22.1,5.6,33.5,1.5c6.4-2.3,12.8-4.6,20.1-7.3c-1.6,1.8-2.5,2.9-4.3,4.9c2.5-0.3,3.9-0.5,6.2-0.7c-2.3,1.5-4.1,2.7-5.9,3.8
		c0.1,0.3,0.3,0.6,0.4,0.9c4.3-1.2,8.5-2.5,12.8-3.7c0.2,0.3,0.3,0.5,0.5,0.8c-1,1.3-1.9,2.5-3.3,4.4c7.9,1.4,15.2,2.6,22.7,3.9
		c-5.6,1.5-11.3,3-17,4.5c-0.1-0.3-0.1-0.5-0.2-0.8c2.5-0.7,5.1-1.4,7.6-2.1c0-0.2,0-0.4,0.1-0.6c-0.9-0.1-1.8-0.4-2.7-0.3
		c-4.5,0.3-9.2,0.1-13.5,1.3c-9.7,2.8-19.9,2.5-29.6,4.8c-3.8,0.9-7.5,2.6-11.2,4c-2.5,0.9-4.9,2-7.4,3c-0.3-0.6-0.6-1.2-0.9-1.8
		c5.7-3.1,11.5-6.1,17.4-9.3c-3.8,0.3-7.5,0.7-11.1,0.9c-0.8,0.1-3.1,1.7-2-1.4c0.1-0.2-0.1-0.4-0.2-0.7c-3.9,1.5-5.9-4.3-10.3-2.5
		c-2.6,1.1-5.9,0.6-8.9,0.8c-0.1-0.3-0.3-0.7-0.4-1c2-1,4-2.1,7.1-3.7c-5.2,0-9.3,0-13.3,0c0.3-0.4,1-1.1,1.9-2
		c-0.3-0.2-0.6-0.5-0.9-0.5c-2.6,0-5.3,0.1-7.9,0c-0.8,0-1.6-0.6-2.4-1c-1.1-0.5-2.3-0.8-3.3-1.5c-0.7-0.5-1.2-1.4-2.1-2.5
		c-1,0.5-2.7,1.4-5.2,2.7c0.8-1.8,1.3-2.9,1.8-4.2c-4.8-2.1-9.5-4.7-14.5-6.2c-5.9-1.8-12.1-2.7-18.5-4c-0.1,0.7-0.2,1.7-0.3,2.7
		C303.2,246.7,301.4,245.6,299.6,244.5z"/>
	<path d="M500.8,368.1c-0.8-1.4-1.7-2.7-2.3-4.2c-3-7.7-7.3-14.7-12.4-21.3c-4.5-5.7-7.9-12.2-11.8-18.4
		c-7.4-11.9-16.7-22-27.7-30.6c-2-1.5-3.7-3.3-5.1-5.7c0.7,0.2,1.4,0.4,2,0.7c3.5,1.9,6.5,4.3,10.8,5.1c7.8,1.4,12.4,7.9,17.4,13.3
		c3.7,4,6.7,8.5,9.5,13.5c-1.6-1.1-3.2-2.3-4.7-3.4c-0.3,0.2-0.7,0.4-1,0.7c2.8,5.3,5.2,10.8,8.4,15.8c6.2,9.7,12,19.5,15.8,30.4
		C500.1,365.3,500.4,366.7,500.8,368.1C500.8,368.1,500.8,368.1,500.8,368.1z"/>
	<path d="M477.3,275c-0.9,0.1-1.7,0.2-2.6,0.3c-0.1,0.3-0.2,0.6-0.4,0.9c3.7,2,7.5,4,10.6,5.7c-10.1-2-20.8-4.2-29.6-6
		c2.1-0.3,6.4-0.9,10.6-1.5c0-0.1,0-0.3-0.1-0.4c-4.7-0.9-9.3-1.8-14-2.7c0-0.3,0-0.6,0-0.9c3.7-0.7,7.4-1.4,11.1-2.1
		c0.1,0.2,0.2,0.5,0.3,0.7c-0.5,0.3-1,0.6-1.5,0.9c0.6,0.4,1.1,1,1.7,1.2c4.6,1.1,9.3,2,14,3C477.4,274.5,477.4,274.8,477.3,275z"/>
	<path d="M513.4,348.4c0.5,2.4,1,4.8,1.5,7.2c-0.3,0.1-0.7,0.2-1,0.4c-2.4-5.8-4.9-11.5-6.9-17.4c-0.4-1.1,1.3-2.8-0.2-4.5
		c-1.1-1.3-1.8-2.9-3-4.8c4.7,3,14.3,20.8,15.1,28.5c-1.6-3.2-3.2-6.4-4.8-9.6C513.9,348.3,513.6,348.3,513.4,348.4z"/>
	<path d="M236,292c-1.7-0.7-3.4-1.4-5.1-2.2c-2-1.5-4-3-6-4.5c0.1-0.3,0.2-0.5,0.3-0.8c4,1.2,8,2.5,12,3.7c1.6,1.4,3.2,2.8,4.8,4.2
		c-0.4,0.6-1.1,1.7-1.3,1.6C239.1,293.5,237.5,292.7,236,292z"/>
	<path d="M313.5,295.1c0.4-7.7,2.8-14.5,8.8-19.3C319.4,282.2,316.5,288.7,313.5,295.1z"/>
	<path d="M242,292.4c-1.6-1.4-3.2-2.8-4.8-4.2c1,0.1,2.6-0.1,2.9,0.4C240.8,289.8,244.4,289.7,242,292.4z"/>
	<path d="M253.2,558.5c-0.8,0.7-1.5,1.3-2.3,2c-0.3-0.3-0.6-0.6-0.9-1c1.7-1.5,3.4-3.1,5.1-4.6C254.5,556.1,253.9,557.3,253.2,558.5
		z"/>
	<path d="M88.8,323.5c-1.9,0.9-3.7,1.9-5.6,2.8c-0.1-0.4-0.3-0.7-0.4-1.1c2.2-0.8,4.4-1.5,6.6-2.3C89.1,323.2,88.9,323.4,88.8,323.5
		z"/>
	<path d="M311.2,440.8c4.2,0.6,8.3,1.2,12.5,1.7c2.2,0.3,4.6,0,6.7,0.5c1.3,0.3,2.2,1.7,3.4,2.6c0.3,0.3,0.7,0.6,1.1,0.6
		c2.6,0.4,5.2,1.1,7.8,0.9c6.5-0.5,10.9,3.3,15.5,6.9c1.7,1.3,2.6,3.8,5.8,3c1-0.2,2.8,2.2,4,3.6c6.2,7.3,12.4,14.7,18.5,22.1
		c1,1.2,1.6,2.8,2.3,4.2c-0.3,0.2-0.7,0.5-1,0.7c-1-0.9-2.1-1.8-3-2.8c-1.8-2.1-3.8-4.2-5.3-6.5c-9.3-13.9-23.7-20.4-38.5-26.3
		c-4.2-1.7-8.3-0.7-12.1,1.8c3.1,0,6.2,0,9.3,0c0,0.1,0,0.1,0,0.2c-1.4,0.1-2.8,0.3-4.1,0.4c0,0.2,0,0.4-0.1,0.6
		c0.9,0.2,1.8,0.4,3,0.7c-1.6,0.5-2.9,0.8-4.6,1.3c2.6,1.5,4.7,2.7,7.1,4.1c-0.1,0.1-0.6,0.5-1.2,1.1c2.9,1.1,5.7,2.2,8.5,3.3
		c0,0.3,0,0.6,0,0.9c-2.8,0-5.5,0-8.3,0c-0.1,0.5-0.1,0.9-0.2,1.4c1.9,0.5,3.8,1,5.9,1.5c-1,0.2-1.8,0.4-3.4,0.6
		c2.5,0.7,4.3,1.1,6.2,1.6c0,0.1,0,0.2,0,0.4c-0.8,0-1.5-0.1-2.3,0c-1.4,0.3-2.7,0.7-4.1,1.1c0.5,1.6,1,3.2,1.6,4.8
		c0.3,1,0.8,1.9,1.2,2.8c-0.9-0.2-2-0.3-2.7-0.8c-9-6.3-17.9-12.5-28.7-15.4c-9.2-2.5-18-1.8-26.6,2.2c-1.3,0.6-3.2,0.9-4.5,0.5
		c-14.7-4.5-29.4,2.4-38.7,12.1c-2.6,2.7-5,5.8-8.1,7.8c-1.6,1-4.6,0-7.2-0.1c0.4-2,4.4-1.2,1.8-3.9c-0.3-0.3,0.9-2.6,1.8-3.3
		c2-1.6,4.6-2.4,6.4-4.1c2.2-2,4-4.5,5.8-6.9c2.5-3.3,6.8-4.9,10.1-3.5c-0.2-1.1-0.5-2.1-0.8-3.7c1.2,0.9,2,1.5,2.8,2
		c0.4-1.9,8.2-5.4,12.2-5.1c-0.8-1.5-1.5-2.7-2.2-3.9l0,0c-0.2-0.8-0.4-1.5-0.5-2.3c0.2-0.2,0.4-0.3,0.6-0.5c1.2,1,2.3,2,3.5,3
		c0-0.3-0.1-0.6-0.1-0.9c1.5,0.1,2.9,0.1,5.1,0.2c0,0,0.4-1,1-2.6c1.3,2.6,2.2,4.5,3.2,6.4c0.2,0,0.4-0.1,0.6-0.1c0-2.2,0-4.3,0-6.7
		c1.8,0.5,1.1,6.1,4.7,1.6c0.3,1.4,0.5,2.4,0.8,4.5c0.6-2.2,0.8-3.3,1.3-4.4c0.2-0.5,0.9-0.8,1.3-1.1c2.3,2.9,4.5-0.2,6.8-0.1
		c7.8,0.4,15.5-2,23.6,0.4c4.8,1.4,10.7-0.8,16.1-1.3c0-0.6,0-1.1,0-1.7c-1.8-0.3-3.7-0.5-5.5-1c-5.9-1.7-11.7-3.4-17.5-5.2
		c-0.3-0.1-0.5-0.9-0.7-1.3C309.8,441.3,310.5,441.1,311.2,440.8z"/>
	<path d="M227.5,488.2c1.5,0.3,3,0.6,4.5,0.9c-0.1,0.4-0.1,0.8-0.2,1.1c-1.5-0.2-3-0.4-4.6-0.6C227.4,489.2,227.5,488.7,227.5,488.2
		z"/>
</g>
<g>
	<path d="M416.2,610.3c1.2,0.4,2.2,1.9,2.6,3c0.8,2.8,0.9,5.8,1.8,8.6c0.6,1.7,2,3.1,3.1,4.7c1.3-1.4,2.9-2.6,3.7-4.3
		c1.2-2.2,1.9-4.7,2.7-7.1c2.1-6,5.4-7.7,11.4-5.5c3.9,1.4,7.6,3.1,11.3,5c1,0.5,1.6,2,2,3.1c1,2.9,1.5,6,2.7,8.8
		c1.4,3.2,3.7,3.3,5.2,0.1c1.3-2.8,2-5.8,2.8-8.8c0.6-2.1,1.1-3.4,4-2.7c4.1,1.1,8.3,1,12-2.2c2.4-2.1,5.3-0.7,5.8,2.6
		c0.4,2.5,0.5,5.1,1.1,7.5c0.4,1.4,1.5,2.6,2.3,3.9c1.1-1,2.4-1.9,3.1-3.2c0.8-1.3,1.5-2.9,1.7-4.5c0.5-5.6,4-8.6,8.4-11.7
		c17-12,27.3-28.2,26.8-49.5c-0.4-20.4-10.4-35-29.1-43.6c-0.7-0.3-1.5-0.6-2.2-0.9c-3.7-1.6-4-2.1-1.8-4.3
		c-7.1-0.8-14.1-1.8-21.1-2.8c-9.1-1.1-18.2-1.8-27.3-1.4c-4.2,2.8-8.2,5.4-12.4,8.2c-0.6-0.2-1.1-0.3-1.7-0.5
		c-0.5,0.5-7.9,1.9-8.4,2.4c-5.9,24.7-11.9,38.5-12.8,40.3c-3.2,5.8-12.4,16.7-23.8,25.6C390.2,582,396.6,603.5,416.2,610.3z
		 M490.5,598.3c0.3-1.1,1-2.2,1.9-3c2-1.9,3.7-1.8,4,1.3c1.1,9.2-0.9,17.8-4.6,27.2c-0.9-1.4-1.3-1.8-1.4-2.2
		C488.5,613.8,488.7,606.1,490.5,598.3z M488.3,520.1c0.2-0.3,0.4-0.7,0.6-1c2,0.6,4.1,1.2,6.5,2c-1-1.8-1.9-3.3-3.2-5.8
		c2.7,1.4,5.1,1.9,6.1,3.3c2.2,3.4,5.7,3.6,8.8,4.5c4.2,1.2,8.8,5.9,9.5,10c0.9,4.8,1.9,9.7,3.4,14.4c4,12.3,6,24.6,1.4,37.2
		c-3.6,10-11.7,15.6-20,20.6c-0.4-5.5-0.6-10.5-1.1-15.4c-0.3-3.3-1.6-5.4-5.5-3.1c-0.6,0.4-1.9-0.4-3.2-0.7
		c-0.2,0.4-0.9,1.6-1.7,2.7c-0.3-0.1-0.6-0.2-0.8-0.3l3.4-33.6l0.5,0c0.3,1.1,0.6,2.2,0.9,3.5c0.3-0.9,0.5-1.6,0.9-2.9
		c0.6,1.4,1,2.2,1.4,3.1c0.2-0.1,0.4-0.1,0.6-0.2c-0.8-3.7-1.6-7.5-2.4-11.2c0.2,0,0.4-0.1,0.5-0.1c0.9,1.8,1.8,3.5,2.7,5.3
		c0.3-0.1,0.6-0.1,1-0.2c-0.5-4.3-0.9-8.7-1.5-13c-0.5-3.7,0.2-7.7-3.1-10.9C491.6,525.9,490.2,522.8,488.3,520.1z M460.7,594.2
		c2.6,3.1,4.7,6.4,4.2,10.6c-0.7,5.4-1.6,10.8-2.5,16.2c-0.2,1.3-1,2.5-1.6,3.7c-1.4-1.4-2.1-2.7-2.3-4c-0.6-5.1-1-10.3-1.7-15.5
		C456.1,600.8,457.5,597.3,460.7,594.2z M441.9,587c0.1-1.1,1.3-2.1,2.1-3.2l-0.1,0.1c-0.5-2.1-1.6-4.3-1.5-6.4
		c0.3-4.8,0.9-9.6,1.9-14.2c1-4.7,1.3-9.5,3.9-14.1c2-3.7,0.7-4.4,5-2.8c5,1.8,10,3.6,15.1,5.4c0.1-0.4,0.3-0.7,0.4-1.1
		c-5.4-2.1-10.8-4.3-16.2-6.4c-2.6-1-3.8-2.5-3.7-5.4c0.2-3.5,0-6.9,0.1-10.4c0-0.3,0.3-0.6,0.6-1.2c0.5,1.3,0.9,2.2,1.2,3.2
		c0.2-0.1,0.5-0.2,0.7-0.2c-1-3.3-2-6.7-3.3-10.8c1.4,1.1,2.2,1.7,3.3,2.5c0.1-3.7,2.4-4.2,5.3-3.7c0.5,0.1,1.1,0.5,1.5,0.4
		c4.4-2.2,8.7-3.2,13,0.2c0.3,0.2,0.9,0.3,1,0.2c2-3.4,3.1-0.1,3.7,0.8c1.7,3,3.1,6.2,4.5,9.3c0.4,0.9,0.6,2.1,0.5,3.1
		c-0.2,1.8-1.2,3.7-0.9,5.4c3.4,21.7,1.8,43.3,0.4,65c-0.2,2.6-0.9,5.3-1.9,7.7c-1.1,2.9-5.9,4.4-9,2.8c-3.4-1.7-0.7-4-0.1-5.8
		c1.7-5,1.2-9.8-1.2-14.3c-0.7-1.4-2.8-3-4.1-2.9c-4.6,0.5-8.9,2.1-10.5,7.2l0,0c-0.4,3.4-1.1,6.9-1.1,10.3c0,3.5-0.4,4-3.7,2.8
		c-3.4-1.2-5.1-3.8-5.4-7.2C443.1,599.6,441.7,591.5,441.9,587z M434.3,536.9c-0.8-0.1-1.8,0.1-2.2-0.4c-1-0.9-2.4-2-2.4-3.1
		c-0.1-2.4,0.5-4.9,0.9-7.3c0.4,0,0.9,0,1.3-0.1c0.8,2.5,1.8,4.9,2.4,7.5C434.6,534.6,434.3,535.8,434.3,536.9z M439.1,577.7
		c-7.9-3.6-14.7-7-21.7-9.7c-3.3-1.3-2.7-2.2-1.4-4.7c4-7.3,7.9-14.8,11.2-22.4c1.5-3.4,3.3-3.9,5.6-2c1.5,1.2,2.5,3.6,2.8,5.5
		c0.5,3.9-0.1,8,0.4,11.9c0.3,2.1,2.7,4,2.9,6.1C439.4,567.5,439.1,572.7,439.1,577.7z M420.9,607.6c0.6-4.2,1.1-8.7,2.2-13
		c0.3-1.3,2.6-2.4,4.1-2.8c0.5-0.1,2.3,2,2.5,3.2c0.9,8.6-0.6,16.9-3.9,24.9c-0.3,0.8-1.1,1.3-1.7,2c-0.5-0.7-1.3-1.4-1.4-2.2
		C422,615.9,421.5,611.9,420.9,607.6z M402.9,596.9c-5.6-8.6-5.5-14.2,1.8-20.7c9.7-8.7,9.6-9.1,21.8-4c9.5,3.9,11.6,7.1,11.2,17.2
		c-0.1,3.2-0.5,6.4-0.8,9.5c-0.1,0.8-0.5,1.6-0.8,2.4c-0.3,0-0.5,0-0.8,0c-0.1-2.3-0.1-4.6-0.4-6.9c-0.3-3-4-7.6-6.1-7.8
		c-2.2-0.2-8.6,4.1-9.1,6.4c-0.7,3.5-1.1,7.1-1.6,10.6c-0.5,4.3-1.7,5.2-5.3,2.6C409.3,603.6,405.3,600.6,402.9,596.9z"/>
</g>
</svg>
