<?xml version="1.0" encoding="utf-8"?>
<!-- Generator: Adobe Illustrator 24.2.3, SVG Export Plug-In . SVG Version: 6.00 Build 0)  -->
<svg version="1.1" id="Layer_1" xmlns="http://www.w3.org/2000/svg" xmlns:xlink="http://www.w3.org/1999/xlink" x="0px" y="0px"
	 viewBox="0 0 595.3 841.9" style="enable-background:new 0 0 595.3 841.9; fill: #215342;" xml:space="preserve"
	 height="280" width="400" transform="translate(-85, 29)">
<g>
	<path d="M168.2,544.1c-1.2-3.1-3.9-2-6.1-2.8c1.3-0.3,2.5-0.7,3.8-1c0-0.3,0-0.3,0-0.6c-2.6-0.3-5.2-0.6-7.9-1
		c0.9-0.3,1.7-0.6,2.6-0.9c0-0.2,0-0.4,0-0.6c-2.4-0.3-4.8-0.5-7.4-0.8c3-0.1,5.7-0.3,8.4-0.4c0-0.2,0.1-0.5,0.1-0.7
		c-1.9-0.3-3.9-0.7-5.8-0.9c-2.3-0.2-4.6-0.2-6.9,0c-3,0.2-5-0.8-5.9-3.8c-0.2-0.5-1.2-1-1.9-1.1c-1.2-0.2-2.5,0-3.7-0.7
		c1.2-0.2,2.5-0.5,3.7-0.7c0-0.2-0.1-0.4-0.1-0.7c-1.8,0-3.5,0-5.3,0c0-0.1,0-0.3,0-0.4c0.7-0.2,1.4-0.4,2-0.6c0-0.2,0-0.4,0-0.6
		c-2.3-0.1-4.6-0.2-7.6-0.4c3.8-0.6,7-1,10.2-1.5c0-0.4,0-0.3,0-0.8c-2.2-0.5-4.3-1.3-6.5-1.4c-9.5-0.2-18.9-0.1-28.4-0.1l30.4-1.5
		c0-0.6,0-0.4,0-1l-32.8-1c0-0.2,0-0.4,0-0.6c5.2,0,10.4,0.1,15.6,0c5.2-0.1,10.3-0.3,15.5-0.5c0-0.3,0.1-0.6,0.1-0.9
		c-0.9-0.2-1.8-0.6-2.7-0.6c-10.8-0.2-21.7-0.4-32.5-0.5c-7.7-0.1-15.4,0-23.1-0.1c18.6-0.6,37.2-1.2,55.7-1.8c0-0.3,0-0.5,0-0.8
		c-4.6-0.2-9.3-0.5-13.7-0.7c3.5-0.3,7.2-0.5,10.9-0.8c0-0.1,0-0.3,0-0.4c-21.9,0-43.8,0-60.7,0c15.8-0.7,36.7-1.5,57.5-2.4
		c0-0.3,0-0.6,0-0.9c-17.9-1.1-35.7,0.6-52,0.2c16.5-0.7,34.6-1.6,52.7-2.4c0-0.5,0-0.9,0-1.4c-36-0.3-72-0.6-108-0.5v-7.7
		c1.1,0,2.2,0.1,3.3,0.1c33,0,66,0,99.1,0c2.3,0,3.8-0.4,4.7-2.9c1.3-3.6,4.3-5.9,7.6-7.6c1.1-0.6,2.2-1.2,3.3-1.8
		c-0.1-0.2-0.2-0.5-0.3-0.7c-2.9,1.1-5.9,2.3-9.5,3.7c3.4-4,8-3.5,11.8-5.4c-3.8-0.5-7.3-0.9-10.8-1.3c0-0.2,0-0.5,0.1-0.7
		c2.4,0.3,4.9,0.7,7.3,1c0-0.2,0.1-0.5,0.1-0.7c-1.2-0.3-2.3-0.6-3.5-0.9c0-0.1,0-0.2,0-0.3c2.9,0,5.8,0.2,8.7-0.1
		c1.6-0.1,3.1-0.4,4-2.7c0.6-1.4,6.2-1.6,6.2-1.5c-4.1,3.2-8.1,6.7-12.5,9.5c-4,2.6-7.4,5.7-10.1,9.6c-0.4,0.6-0.7,1.3-0.5,2.3
		c0.8-0.8,2.4-2.3,2.4-2.3c-0.3,0.7-0.6,1.3-0.9,2.2c0.9,0.1,1.6,0.2,2.5,0.2c-4.9,11.2,2.7,17.8,8.7,25.5c0.3-2.5,0.3-4.5,1-6.1
		c0.6-1.3,2-3.1,3.2-3.2c1.2-0.1,3.2,1.1,3.8,2.3c1.3,2.7,2.1,5.6,2.9,8.5c0.5,1.6,1.1,2.4,3,2.4c0.9,0,1.9,1,2.6,1.8
		c2.9,3.1,5.8,6.3,8.7,9.4c0.3,0.3,0.8,0.3,0.9,0.4c0-3.8-0.1-7.5,0-11.2c0.1-2,1-3.7,3.1-4c2.3-0.3,3.2,1.5,3.8,3.3
		c1,3.2,1.8,6.4,2.9,10.2c2-2.5,3.8-4.7,5.6-6.9c2.9,1.7,4.3,6.3,8.9,4.6c0-2.6-0.3-5.1,0.1-7.6c0.4-2.3,1.3-4.7,2.3-6.8
		c1-2,2.9-1.9,3.9-0.2c1.2,2.1,2,4.6,2.6,7c0.4,1.5,0.1,3.3,0.1,5.2c4-1.3,6.6-3.9,8.2-7.6c2.2-4.9,4.5-9.8,6.6-14.8
		c0.5-1.1,0.9-2.5,0.7-3.7c-0.8-3.8-0.8-7.4,0.3-11.1c0.1-0.3,0.2-0.7,0.2-1.1c0-0.1-0.2-0.3-0.6-0.7c-0.6,0.9-1.2,1.8-1.7,2.6
		c-0.3-0.2-0.6-0.4-0.9-0.7c-0.3-1.5,0.5-2.5,2.3-2.8c2.6-0.4,5.1,1.5,6.8,3.6c4.9,5.6,7.2,12.5,10.5,18.9
		c3.1,6.1,8.6,9.4,14.8,11.5c12.1,4,24.3,4.2,36.6,1.4c2.1-0.5,4.2-1.4,6-2.6c0.8-0.5,1.4-2.2,1.3-3.2c-0.1-1.1-0.6-2.7-2.6-2.3
		c-0.5,0.1-1-1.3-1.7-1.6c-2.9-1.5-5.9-3.1-9-4.3c-6.7-2.5-11.8-6.9-15.6-12.9c0-0.1-0.1-0.1-0.1-0.2c-2-6.4-4.9-12.7-5.9-19.3
		c-2-13,6.8-23.3,20-24.7c2.9-0.3,5.8-0.5,9.6-0.9c-0.9-0.7-1.3-1-2-1.4c1.2,0,2.3,0,3.6,0l-1-1.7c1-0.3,1.8-0.5,2.8-0.8
		c-0.3-1-0.7-2-1-3.1c0.1-0.1,0.2-0.1,0.3-0.2c0.6,0.9,1.1,1.8,1.7,2.7c0.1,0,0.3-0.1,0.4-0.1c-0.1-0.8-0.2-1.5-0.5-3.1
		c0.8,1.7,1.3,2.6,1.7,3.6c0.1,0,0.2-0.1,0.4-0.1c-0.1-1.2-0.2-2.4-0.3-3.1c0.7-0.3,1.2-0.5,1.8-0.7c-0.1,1.1-0.3,2.3-0.4,3.4
		c0.1,0,0.2,0.1,0.4,0.1c1.2-2,2.3-4,3.8-6.5c-0.3,3.7-3.7,6.6-1.2,10.6c-0.2,0.1-0.7,0.3-1.8,0.8c1.1,0.2,1.5,0.4,1.8,0.4
		c6.5,0.7,13,1.2,19.4,2.2c5.1,0.8,8.6,4,10.7,8.6c2.5,5.5,4.8,11.1,3.2,17.3c-0.2,0.8-0.6,2-1,2.7c-2.4,5-4.7,10.1-7.3,15
		c-2.9,5.5-7.9,8.5-13.5,10.7c-3.9,1.6-7.9,3.1-11.6,5c-3.8,2-4.1,4.7-0.4,6.8c3.4,2,7.3,3.5,11.1,4.3c7.5,1.5,15.1,2.1,22.7,0.4
		c8-1.8,14.5-6,19.9-12c3.8-4.3,7.5-8.8,11.3-13.2c0.5-0.5,1.2-0.9,1.9-1.3c3.9-5.7,5.4-12.5,5.6-19.8c0.5,0.5,0.7,0.8,1.1,1.2
		c0-0.9,0-1.6,0-2.3c0.2-0.2,0.4-0.3,0.6-0.5c0.1,0.6,0.3,1.2,0.4,1.8c0.3-0.2,0.5-0.4,0.8-0.5c-0.2-1.5-0.3-3-0.5-5.2
		c0.8,1.1,1.2,1.8,1.6,2.3c1.1-4.6,2.3-9.3,3.6-14.8c1.2,1.3,1.9,2,2.6,2.9c0.5-5.4,2.2-10.7-2.1-15.4c2.6,1.1,2.6,1.1,5.1,7
		c-0.3-2.5-0.6-5-1-7.7c0.7,0.3,1.3,0.7,2.6,1.3c0.2-2.6,0.4-4.9,0.7-7.8c0.7,1.5,1.1,2.5,1.7,3.9c0-2.6,0-4.9,0-7.2
		c3.1,0.6,1.6,3.2,2.4,5c2.1-4.8,2-9.3,0.4-14c0.5,0.6,1,1.2,1.8,2.3v-6.9c0.9,1.2,1.7,2.2,2.4,3.2c0.3-0.2,0.3-0.1,0.6-0.3
		c-0.7-2.6-1.4-5.1-2-7.7c0.2-0.1,0.4-0.2,0.6-0.3c0.6,1.2,1.3,2.4,1.8,3.6c0.5,1.4,0.9,2.8,1.6,4.9c0-3.5,0-6.2,0-9.7
		c0.8,1.9,1.3,3.1,1.9,4.3c0,0.8-2.4-8.7-2.8-10c-0.3-0.9-0.7-1.8-1.2-2.9l0,0c1.8,0.6,3.5,1.6,4.8,3l0.6,0.6
		c0.2-0.3,0.4-0.6,0.6-0.9c-0.2-0.1-0.4-0.2-0.6-0.3c-1.9-1-3-3.1-2.5-5.2c0.1-0.4,0.2-0.7,0.4-0.9c2.1-2.4-1.3-2.4-1.1-3.8
		c1.5-1-0.1-6.8-3-9.4l2.8,0.2c-1.1-1.3-1.9-2.2-2.9-3.5c1.2,0.3,2,0.5,3.2,0.8c-0.8-2.3-2.5-4.5,0.5-6.2c0.2-0.1-0.3-2.6-1-3.1
		c-3.4-2.1-4.3-5.5-5.5-8.8c-0.7-2-1.7-4-2.1-6.3c1,1.6,2,3.2,2.9,4.8c0.2-0.1,0.5-0.2,0.7-0.3c-1-2.6-1.9-5.2-2.9-7.8
		c0.3-0.2,0.2-0.2,0.5-0.4c0.6,0.5,1.2,1,2.1,1.7c-6.1-16.8-14.4-31.8-26.2-44.8l0,0c0.8,0.1,1.6,0.2,2.4,0.3
		c0.1-0.2,0.2-0.3,0.4-0.5c-1.9-1.4-3.8-2.8-5.6-4.3c-1.4-1-2.8-2-4.1-3.1c-0.5-0.5-0.8-1.3-1.2-2c0.7-0.2,1.5-0.3,2.2-0.5
		c0.4-0.1,0.8-0.1,1.4-0.6l-6.4-2.7c0.1-0.4,0.1-0.4,0.2-0.8l10.8,0c0.1-0.4,0.1-0.4,0.3-0.8c-3.8-3.2-8.4-4.5-13.7-5l5-1.5
		c-6.1-2.7-12-2.3-17.9,0c-0.1-0.2-0.1-0.4-0.2-0.7c5.4-1.9,10.9-3.7,16.3-5.6c-0.3-0.6-0.6-1-0.9-1.5c0.2-0.1,0.4-0.2,0.6-0.3
		c-0.7-0.1-1.5-0.2-2.2-0.2c0-0.2,0-0.3,0-0.5c3.4,0.3,6.7,0.7,10.6,1.1c-3.9-3.2-8.2-4.2-12.8-4.7c1.3-0.4,2.6-0.7,3.9-1.1
		c0-0.3,0-0.3,0-0.6c-1.2-0.2-2.3-0.5-3.5-0.6c-3.4-0.3-6.5-1.6-10.1-1c-3.2,0.5-6.8-1.1-10.2-1.7c-0.6-0.1-1.3,0-2,0
		c-0.7,0-1.5,0.1-2.2,0.2c0.1-0.1,0.2-0.2,0.3-0.3c2.4-1.1,4.8-2.2,7.3-3.2c1.7-0.6,3.4-0.9,5.1-1.4c0.1,0.2,0.2,0.4,0.3,0.7
		l-3.1,1.5c0.1,0.4,0,0.3,0.1,0.7c4.3,0.7,8.6,1.6,13,2.2c4.6,0.6,9.3,0.9,13.9,1.2c2.5,0.2,3.6-1,3.9-3.7c0.6-4.9,1.7-9.8,2.7-14.7
		c0.2,0,0.4,0.1,0.7,0.1l-1.9,12.7c0.2,0.1,0.2,0,0.4,0.1c1.8-4.4,3.5-8.7,5.3-13.1c0.2,0.1,0.1,0,0.3,0.1
		c-1.2,5.1-2.4,10.1-3.7,15.2c0.6,0.2,0.4,0.1,1,0.3c2.3-5.8,4.1-11.9,9.7-15.1c-2,3.1-4.1,6.4-6.1,9.7c0.3,0.2,0.5,0.4,0.8,0.6
		c1.3-1.6,2.6-3.4,4-4.9c0.5-0.6,1.5-0.8,2.3-1.1c-0.3,0.8-0.5,1.6-0.8,2.3c-0.2,0.4-0.5,0.7-1.1,1.8c4.5-3,8.3-5.6,12.2-8.2
		c0.2,0.2,0.3,0.4,0.5,0.6c-0.8,1-1.5,2-2.3,3c4.8,0,9.3,0,14.3,0c-1.2,0.7-2,1.1-2.9,1.7c5,0.4,9.8,0.7,14.6,1.1
		c0,0.3,0,0.6-0.1,0.9c-2.6,0-5.2,0-7.9,0c0,0.2,0,0.3,0,0.5c2.5,0.3,5.1,0.6,8.2,0.9c-1.4,0.2-2.2,0.2-3,0.3c0,0.2,0,0.4-0.1,0.6
		l8.9,1.4c0,0.2,0,0.1,0,0.3c-1.5,0.3-3,0.5-5.1,0.9c5.7,1.4,10.7,2.6,15.7,3.8c0,0.2-0.1,0.5-0.1,0.7c-2.2-0.2-4.4-0.5-6.6-0.7
		c0,0.2-0.1,0.5-0.1,0.7c3.2,0.8,6.4,1.7,9.5,2.5c0,0.2,0,0.4-0.1,0.6c-1.3,0-2.6,0-3.8,0c0,0.2,0,0.4-0.1,0.6
		c2.8,0.7,5.5,1.5,8.9,2.4c-1.7,0.2-2.8,0.3-3.8,0.4c0,0.1,0,0.3,0,0.4c3,0.9,6,1.9,9,2.8c0,0.1-0.1,0.3-0.1,0.4
		c-1.4-0.2-2.7-0.5-4.1-0.7c-0.1,0.2-0.1,0.4-0.2,0.6c1.9,0.9,3.8,1.9,6.4,3.2h-4.2c-0.1,0.3-0.1,0.3-0.2,0.6l8.2,4.9
		c0,0.1-0.1,0.3-0.1,0.4l-3.9-0.7c-0.1,0.4-0.1,0.3-0.3,0.7c2.5,1.6,5.1,3.2,7.6,4.8c0,0.1-0.1,0.2-0.1,0.3
		c-1.6-0.6-3.3-1.2-4.9-1.9c-0.1,0.2-0.2,0.4-0.3,0.7c2.7,1.8,5.3,3.6,8.7,5.8c-1.7-0.5-2.6-0.7-3.5-1c-0.1,0.2-0.2,0.4-0.4,0.5
		c2.1,1.4,4.1,2.8,6.4,4.4c-1.3-0.1-2.3-0.1-3.3-0.2c-0.1,0.2-0.2,0.4-0.2,0.6c1.6,0.8,3.2,1.7,5,2.3c2.1,0.8,4.4,1.1,4.8,4
		c0.1,0.5,1.7,0.7,2.7,1c1,0.3,2.1,0.6,3.6,1c-1,0.5-1.6,0.8-2.5,1.3c5.9,1,11.4,2.5,16.5,6.2c1-1.2,2.3-2.7,3.5-4.2
		c0.5,0.3,0.4,0.2,0.9,0.5l-2.7,5.9c1,0.4,2.1,0.8,3.2,1.2c-0.3,0.8-0.5,1.6-0.6,1.8c2.8,4.3,5.6,8.4,8.3,12.5
		c-0.1,0.1-0.3,0.2-0.4,0.4c-1.2-1.3-2.4-2.7-3.6-4c-0.2,0.1-0.4,0.2-0.5,0.3c0.2,0.5,0.3,1.1,0.5,1.5c3.2,5.4,3.6,11.3,2.8,17.3
		c-0.9,6.3-6.2,11.1-12.5,11c-10.8-0.1-21-1.9-29.3-10c-5.5-5.3-12.3-8.5-20.1-9.5c-2-0.2-4,0.1-6,0.3c-0.3,0-0.6,0.7-1.2,1.6
		c-1.1,0.1-3,0.1-4.9,0.2c0,0.2,0,0.5,0,0.7c0.5,0.2,1.1,0.4,1.1,0.4c-1.1,0.6-2.7,1.3-4.1,2.2c-1.4,0.9-2.6,2-4.1,3.1
		c0.7,0.4,1.3,0.7,1.5,0.8c-0.6,1.1-1.3,2.3-2,3.5c0.5,0.2,0.9,0.4,0.9,0.4c-0.7,1.5-1.4,3-2,4.5c-0.2,0.6-0.2,1.4-0.6,1.7
		c-4.4,3.8-5,9-5.6,14.2c-0.6,5.1-1.7,10-6.5,13.4c1.1,1.3,2.1,2.4,2.8,3.3c-0.9-0.1-2-0.2-3.1-0.4c0,0-0.4,3.9-1.9,3.1
		c-0.3,0.4-0.2,0.3-0.5,0.7c1.7,1.6,3.4,3.2,5.2,4.8c0,0,0,0,0,0.1h-5.1c1.3,2.6,2.7,5.2,4.4,8.4c-1-0.7-1.4-0.9-2.1-1.3
		c0.4,2.4,1,4.5,1.2,6.7c0.1,1.4-0.4,2.8-0.7,4.2c-0.2-0.2-0.4-0.5-0.8-0.9c-0.1,1-0.2,1.9-0.3,2.5c-0.5-2.9-1.1-6-1.7-9.1
		c-0.3,0-0.6,0-0.8,0.1c3.1,11.2-0.8,21.6-3.1,32.3c3.2-3.3,5-8,9.8-8.9c-2.2,2.5-4.6,5.2-7.3,8.2c1.8,0.9,2.8,1.4,3.8,2
		c0,0,0,0,0,0c-5.1-1.8-5.5,3.4-8.2,5.8c-0.4-1.4-0.7-2.3-1-3.3c-3,0.3-5.9,0.4-8.8,0.9c-0.9,0.2-2,1.3-2.3,2.2
		c-2.7,6.5-5.3,13-8.1,20.1c3.4-1.4,4.3-5.3,7.2-6.6c-1.7,3.1-3.4,6.3-5.1,9.4c0.4,0.3,0.3,0.3,0.7,0.6c0.8-0.7,1.7-1.4,3.1-2.5
		c-1.5,4.2-4.2,7.5-1.6,11.5c2.2,3.3,4.1,6.7,6.4,10.6c0.9-2.8,1.2-5,2.2-6.8c1.4-2.3,3.1-4.9,5.3-6.3c3.1-2.1,6.3-0.1,5.9,3.7
		c-0.2,2.8-1.4,5.4-2.2,8.1c-0.4,1.3-0.9,2.5-1.7,4.7c2-0.8,3.2-1.4,4.6-2c2.8,4.1,5.8,8.5,9.3,12.6c0.5-0.1,0.5-0.2,1-0.3
		c0.3-2.7,0.5-5.4,1-8c0.4-2,1.2-4,2.1-5.9c0.9-1.8,2.3-3.2,4.6-2.7c2.3,0.5,3.4,2.4,3.4,4.5c0,3.2-0.5,6.4-0.8,9.5
		c-0.1,1.3-0.5,2.6-0.8,3.9c0.4,0.3,0.5,0.3,0.9,0.6c2.3-1.2,4.5-2.5,6.8-3.6c1.5-0.7,3-1.3,4.9-2.1c0.5-2.5,0.9-6,1.9-9.3
		c0.5-2,1.7-3.9,2.8-5.6c1.1-1.7,2.9-3.2,4.8-2.1c1.3,0.8,2.7,2.8,2.7,4.3c0,3.1-0.6,6.3-1.3,9.5c-0.4,2.3-1.2,4.5-1.9,6.9
		c2.6,1.1,4.5,0,6.1-1.2c7.6-5.9,13.1-13,13-23.3c0-3.2,0.9-6.5,1.4-9.7c0.2,0,0.4,0.1,0.6,0.1c1.7-1.3,3.2-3.6,5.7-2.4
		c2.5,1.2,2.2,3.9,1.9,6.1c-0.6,4.1-1.5,8.2-2.4,12.7c1.1-0.5,2.1-1,3-1.5c4.8-2.6,9.7-5.1,14.5-7.8c0.6-0.3,1.1-1.1,1.2-1.8
		c1.5-6.5-0.7-11.5-6.3-15.1c-2.7-1.8-5.2-3.8-7.4-5.4c9.2,0.4,17.1,10.9,16.3,22.7c0.8,0.1,1.6,0.2,2.4,0.2c30.5,0,60.9,0,91.4,0
		c0.5,0,0.9-0.1,1.4-0.1c0,2,0,4,0,6.1c-0.7-0.1-1.5-0.2-2.2-0.2c-32.2,0-64.4,0.1-96.6,0.1c-2.1,0-4.2,0-6.3,0
		c0.3,0.5,0.6,0.5,0.8,0.5c34.2,0.3,68.4,0.6,102.6,0.8c0.5,0,1.1-0.1,1.6-0.2v1.7c-0.5,0-1.1-0.1-1.6-0.1
		c-32.7,0.2-65.4,0.4-98.1,0.6c-2.4,0-4.9,0.5-7.3,0.7c0,0.3,0,0.6,0,0.8c27.5,0.6,55.1,1.2,79.4,1.7c-26.1,0.3-55.3,0.6-84.6,0.9
		c0,0.4,0,0.8,0,1.2c23.5,1.2,47.1,1.6,70.6,2.3c-28.4,0.1-56.8-1.6-85.1,0.9c0,0.3,0,0.5,0,0.8c6.4,0,12.7,0,19.1,0
		c6.4,0,12.8,0,19.3,0c0,0.1,0,0.2,0,0.3c-13.7,0.5-27.3,1-41,1.4c0,0.4,0,0.8,0,1.2c24.1,0,48.2,0,72.4,0c0,0.2,0,0.3,0,0.5
		c-25.1,0.4-50.2,0.9-75.4,1.3c0,0.4,0,0.8,0,1.2c7.1,0.3,14.2,0.7,21.4,0.8c7.2,0.1,14.3,0,21.5,0.4c-15.8,1-31.6-0.5-47.3,1.5
		c0,0.4,0,0.3,0,0.7c3.9,0.2,7.8,0.5,11.7,0.6c4,0.1,8,0,12,0c0,0.3,0,0.6,0,0.9c-10,0-20.1,0-30.1,0c0,0.4,0,0.9,0,1.3
		c7.8,0.4,15.5,0.1,23.7,0.3c-8.6,0.4-16.7,0.7-24.9,1c0,0.3,0,0.6,0,0.8c6.9,0,13.8,0,20.6,0c0,0.1,0,0.2,0,0.3
		c-7.2,0.3-14.5,0.6-21.7,0.9c0,0.3,0,0.6,0,0.9c2.5,0,5,0,7.5,0c0,0.3,0,0.6,0,0.8c-6.8,0-13.6,0.1-20.4,0c-2.7,0-5.5-0.4-8.2-0.5
		c-0.6,0-1.2,0.3-1.7,0.6c-2.8,1.5-5,0.6-5-2.4c0-3.2-1-4.7-4.1-6c-2.7-1.1-5.1-2.5-8.1-2.6c1.2-0.1,2.4-0.1,3.7-0.2
		c0-0.2,0-0.4,0-0.5c-3.1,0-6.1,0-9.2,0c0-0.2,0-0.4,0-0.6c3.1,0,6.2,0,9.3,0c0-0.2,0.1-0.4,0.1-0.6c-1-0.2-1.9-0.6-2.9-0.7
		c-1.7-0.1-3.5,0.1-5.2-0.1c-2.9-0.3-6.1,1.5-8.7-1.5c-0.6-0.7-2.5-0.6-3.7-0.5c-8.9,0.1-17.8,0.3-26.7,0.5c-0.2,0-0.4,0.2-0.7,1
		c6.8,0.3,13.6,0.7,19,0.9c-6.3,0.5-14.1,1.1-21.8,1.8c0,0.5,0,0.3,0,0.8h23.8c0,0.2,0,0.3,0,0.5c-8.3,0.5-16.6,1-25,1.5
		c0,0.5,0,0.3,0,0.7c7.7,0.3,15.4,0.6,22.2,0.9c-8.7,0.5-18.2,1.1-27.8,1.7c0,0.6,0,0.4,0,1c4.1,0.2,8.2,0.4,12.3,0.6
		c0,0.1,0,0.2,0,0.3c-4.8,0.2-9.5,0.3-14.3,0.5c-1.1,0-2.1,0.4-3.2,0.5l0.1,0c-0.8-0.2-1.7-0.8-2.4-0.6c-3.4,0.9-6.7,1.9-10.1,2.9
		c-1.3,0.4-2.6,0.7-4,0.9c-3,0.5-3.3,1.2-1.5,3.8c-3.8,0.5-7.5,0.9-11.7,1.4c0.7,0.8,1.2,1.3,1.8,2c-0.5,0-0.8,0.1-1.1,0
		c-2.6-0.7-4.9,0.1-7.5,0.9c-2.7,0.8-5.1,2.2-7.8,2.7c-1.8,0.4-3.8-0.5-5.8-0.8c-0.5-0.1-1.1-0.1-2.2-0.2c-0.2-0.3-0.9-1.1-2-2.4
		l0,4.3c-0.4,0.1-0.4,0.1-0.8,0.2c-0.8-1.2-1.5-2.4-2.5-3.9c-0.1,1.3-0.2,2.3-0.3,3.3c-0.3,0.1-0.3,0.1-0.5,0.1
		c-0.6-1.1-1.3-2.2-1.9-3.4c-1.6,1.5-2.3,1.1-2.9-1.3c-1.5-0.2-3-0.1-4-0.7c-0.5-0.3-0.3-1.9-0.4-3.5c-1,0-2.3,0.1-3.6,0.2
		c0.1-0.2,0.3-0.6,0.2-0.5c-1.1-1.3-1.8-2.4-2.8-3.3c-0.5-0.5-1.1-0.8-1.7-0.9c-4.8-1.2-9.6-2.3-14.4-3.4c-0.3-0.1-0.7,0-1.7,0
		c0.9,1,1.5,1.6,2.3,2.4c-2.4-0.1-4.5-0.2-6.6-0.3c0-0.1,0-0.1,0-0.2c0.7-0.1,1.4-0.2,2.1-0.3c0-0.1,0-0.2,0.1-0.3
		c-1.3-0.4-2.6-0.8-4.5-1.3c1.4-0.2,2.2-0.4,2.9-0.5c0-0.3,0.1-0.6,0.1-0.8c-5.2-0.7-10.4-1.4-15.7-2.1c3.2-0.2,6.5-0.5,9.7-0.7
		c0-0.6,0-0.4,0-0.9c-8.8-0.7-17.7-1.1-26.5,0.1c0,0.6,0,0.4,0,1c3,0.2,6,0.3,9.2,0.5c-4.3,1.2-9.3,0.1-12.9,4.3
		c1.3,0.2,2.3,0.4,3,0.5c-2,0.5-4.4,1-6.8,1.5c0,0.3,0,0.2,0,0.5l2.7,0.9c-2.2,1-4.4,2-7.1,3.2c1.1,0.2,1.8,0.4,2.9,0.6
		c-1.5,0.4-2.6,0.7-3.7,1c0,0.4,0,0.3,0,0.7c2,0.4,4.1,0.7,6,1.1c-1.8,0-3.7-0.1-5.6,0c-1.5,0.1-2.2,0.9-0.7,2.2
		c-1.7,1.3-4,1.5-6.1,0.7c-0.2-0.1-0.5-0.1-0.6-0.1c-0.8,0-1.7,0-2.7,0c1.1-0.3,2.1-0.5,3-0.8l-0.2-0.9c-8.7,0.9-5.3,0.5-14,1.4
		l0,0.8c0.5,0.2,1.1,0.4,1.8,0.6c-1.1,0.6-2,1-2.9,1.4c0.2,0.1,0.4,0.3,0.7,0.4c-0.8,1.5-1.3,3.2-2.4,4.3c-1.3,1.2-2.9,1-4.3-0.5
		c-1-1.2-2.4-2-3.6-3 M478,335.9c-0.3-0.3-0.6-0.6-0.8-0.8c1.2,0.3,2.4,0.6,3.7,0.8c-1.1-1.1-2.3-1.7-3.6-2.1c-0.1,0-0.4,0.6-0.7,1
		c-0.4-0.1-0.8-0.1-1.2-0.2c-0.1,0.2-0.1,0.4-0.2,0.6C476.2,335.4,477.2,335.7,478,335.9c1.1,0.8,2.1,1.6,3.1,2.4
		c-1.6-0.4-3.3-0.9-4.9-1.3c1.7,1.8,2.3,4.8,5.8,4.1c-0.4-1.1-0.7-2-1-2.9c0.2,0,0.3,0.1,0.5,0c0.1,0,0.1-0.1,0.2-0.1
		C480.5,337.4,479.3,336.7,478,335.9z M449.2,325.3c5.5,4.7,12.2,7.1,18.9,9.4c-0.5-2.9-2.7-4.7-4.7-4.7c-1.7,0-2.7-0.4-3.8-1.2
		c-1.7-1.2-3.4-2.4-5.1-3.5c-0.1,0.2-0.3,0.4-0.4,0.6c1.3,1,2.5,2.1,3.8,3.1c-0.2,0.2-0.3,0.4-0.5,0.5c-2.5-1.9-4.9-3.8-7.4-5.6
		c-0.4-0.3-1.3-1.8-1.5,0.2c-3.3-3.6-6.9-7-9.9-10.9c-1.8-2.4-2.4-5.6-3.8-9c0.2,4.9,0.6,9.1,3.4,12.7c2,2.6,4,5.2,6.5,7.4
		C445.6,325.2,447.6,325,449.2,325.3z M280.2,532.5c-0.1-0.5-0.1-1.1-0.2-1.6c-0.2,0-0.4-0.1-0.6-0.1c-0.3,0.7-0.6,1.4-1.2,2.8
		C279.3,532.9,279.8,532.6,280.2,532.5c-0.5,1.2,0,1.9,1.3,2.3c6.7,2.1,13.6,2.6,20.5,1.5c0.5-0.1,0.9-0.8,1.3-1.2
		c1.4,0.1,2.8,0.2,4.3,0.2c0.1-0.5,0.2-1,0.3-1.5c-1.1-0.5-2.1-1.3-3.2-1.3c-0.4,0-0.9,1.7-1.3,2.6c-0.7-3.8-3.9-2.3-6.1-2.6
		c-0.9-0.1-1.9,0.5-3,0.8c-1.7-1.6-3-1.6-5.2,0.2C287.3,530.9,282.6,530.3,280.2,532.5z M439.2,502.4c-2.1-0.2-2.5,1.8-3.6,3
		c-0.6,0.7-0.9,1.8-1.2,2.7c-1.9,6.2-2.2,12.5-2,19c0,0.8,0.3,1.5,0.5,2.3c0.3,0.1,0.6,0.2,0.9,0.2c0.8-1.8,1.8-3.6,2.3-5.5
		C437.7,518.4,444.8,504,439.2,502.4z M299.4,457.4c-4.9,0-9.5-0.2-14.1,0.1c-4.7,0.3-9.3,1.2-14,1.8c0.2-0.4,0.4-0.8,0.6-1.2
		c-6.2,1-11.3,8.6-12.2,13.3c-0.2,1.1,0.4,2.3,0.6,3.5c0.4,0.1,0.7,0.3,1.1,0.4c0.3-0.9,0.7-1.7,1-2.6c0.1,0.4,0.3,0.8,0.4,1.2
		c1.9,0.5,3.7,1.3,5.6,1.3c3.9,0.1,7.9-0.2,11.8-0.5c4.2-0.3,7.3-2.8,10.5-5.1c1.1-0.8,1-3.2,1.3-5c0.1-0.6-0.3-1.4-0.5-2.2
		C294.4,461.1,298.3,461.5,299.4,457.4z M456.9,348.1c0.2-0.2,0.3-0.5,0.5-0.7c-10.3-8.7-18.9-19.1-27.5-29.5
		c-2-2.4-4.6-4.5-6.3-7.2c-1.9-2.9-4.6-5.2-6.4-7.9c-4.6-6.8-10.5-12.2-16.7-17.3c-3.4-2.9-7.4-4.3-11.7-5
		c-7-1.1-12.4,4.4-11.4,12.5c3.6-7.8,9.5-9,16.5-7.1c0,0.2,0.1,0.6,0.1,1.1c0.2-0.2,0.4-0.5,0.6-0.7c1.4,0.6,3.2,0.9,4.2,1.9
		c3.5,3.7,7.4,7.3,10,11.6c4.2,7.1,9,13.5,15.1,19.1c8,7.4,15.7,15.2,23.7,22.6C450.4,344.1,453.8,345.9,456.9,348.1z M411.8,530.6
		c0.2,0.1,0.5,0.1,0.7,0.2c0.6-0.9,1.6-1.7,1.9-2.7c1.3-4.4,2.6-8.7,3.5-13.2c0.4-2,0.3-4.2-0.1-6.2c-0.1-0.8-1.3-1.9-2.1-2.1
		c-0.6-0.1-1.9,0.8-2.3,1.5c-0.8,1.5-1.6,3.2-1.7,4.8c-0.4,4.7-0.5,9.5-0.6,14.2C411.2,528.3,411.6,529.4,411.8,530.6z M173.8,539.8
		c0.2,0,0.4,0,0.6-0.1c-0.7-5-1.4-9.9-2.3-14.9c-0.2-1-1.5-1.8-2.4-2.6c-0.7,0.9-1.8,1.7-1.9,2.7c-0.8,7.2,0.4,14.2,3,21
		c0.2,0.6,1.2,0.9,1.8,1.4c0.4-0.7,1.1-1.3,1.2-2C174,543.4,173.8,541.6,173.8,539.8z M260.8,490.6c0.6,7.8,6.8,10.6,13.7,10.2
		c6.1-0.3,9-4.4,8.6-11.4c-0.4-5.5-3.8-9.1-8.9-8.9c4.6,1.7,7.1,4.9,7.4,9.6c0.3,4.4-2.4,7.4-6.8,7.6c-3.5,0.2-6.5-1-9.1-3.3
		C264.3,493.3,262.7,492.2,260.8,490.6z M386.4,516.4c0.4,0.1,0.7,0.1,1.1,0.2c0.5-0.4,1.1-0.7,1.4-1.2c2.4-5,4.8-10.1,6.9-15.2
		c0.4-1-0.4-2.5-0.6-3.7c-1.3,0.4-2.7,0.7-3.9,1.3c-0.7,0.3-1.2,1.2-1.5,1.9c-1.2,3.6-2.5,7.2-3.3,10.9
		C386.1,512.4,386.4,514.4,386.4,516.4z M147.1,534.2c1.3-6.5,1.1-12.7-0.2-18.7c-0.2-1-1.7-1.6-2.5-2.5c-0.8,0.9-2.1,1.7-2.2,2.7
		c-0.9,6.4,0.8,12.2,3.8,17.8C146.1,533.7,146.5,533.8,147.1,534.2z M462.3,506.7c3-5.7,4.9-11.7,4.6-18.2c0-0.6-0.9-1.6-1.1-1.6
		c-0.8,0.2-1.8,0.7-2.2,1.3C460.1,494.1,460.9,500.3,462.3,506.7z M304,480.5c-3.9,0.3-6.4,3.2-7.5,7.7c-1.2,4.9-0.2,8.8,3,10.9
		c2.8,1.9,6.6,2.2,8.9,0.3c-5-0.1-8.6-1.7-9.2-6.9C298.6,488,300.1,484.1,304,480.5z M194.3,540.4c2.3-4.8,2.2-19-0.3-21.6
		C190.9,526.1,192.8,532.8,194.3,540.4z M216,492.5c-0.8,4.8-0.8,9.4,1.4,13.9c1-3.4,1.5-6.8,2.1-10.2
		C220,493.7,219.3,492.2,216,492.5z M418.8,287.5c-0.3,0.3-0.6,0.6-0.9,0.9c4.2,4.2,6.7,10,12.5,12.9c-1-2.6-2.4-5-4.1-7.1
		c-0.6-0.7-2-0.7-2.8-1.4C421.8,291.1,420.3,289.2,418.8,287.5z M356.7,514.2c9.1,0.7,18,1.5,27.1,1.1c0-0.4,0-0.7,0-1.1
		C374.7,514.2,365.7,514.2,356.7,514.2z M211.1,519.6c0,0.3,0,0.6,0,1c7.6,0,15.1,0,22.7,0c0-0.3,0-0.6,0-0.9
		C226.2,518.9,218.6,518.4,211.1,519.6z M266.7,490.5c1.9-1.1,3.7-1.9,5.3-3.1c0.4-0.3,0.6-1.6,0.3-2.1c-0.6-0.8-1.6-1.8-2.4-1.7
		C267.3,483.7,265.5,487.2,266.7,490.5z M232.2,517.9c-3.2-1.8-17.4-2-21.2,0C218.4,517.9,225.2,517.9,232.2,517.9z M478.5,374.8
		c7.4,2.7,15-0.8,16.8-8.3C491.2,373.5,485.2,374.9,478.5,374.8z M360,510.2c0,0.2,0,0.4,0,0.5c7.5,0,15,0,22.4,0c0-0.2,0-0.4,0-0.5
		C375,510.2,367.5,510.2,360,510.2z M382.4,512.8c0-0.2,0-0.5,0-0.7c-8.5,0-17.1,0-25.4,0c4,0.2,8.3,0.6,12.6,0.7
		C373.9,512.9,378.2,512.8,382.4,512.8z M363.8,506.4c0,0.2,0,0.3,0.1,0.5c5.2,0,10.3,0,15.5,0c0-0.2,0-0.3,0-0.5
		C374.1,506.4,368.9,506.4,363.8,506.4z M403,280c-0.2,0.2-0.4,0.4-0.6,0.6c2.2,2.1,4.4,4.1,6.6,6.2c0.3-0.3,0.6-0.6,0.9-1
		C407.6,283.9,405.3,281.9,403,280z M179.4,536.9c4,1.4,8,0.8,11.9,0.3c0-0.3,0-0.6,0-0.9C187.3,536.5,183.3,536.7,179.4,536.9z
		 M361.1,508.3c0,0.2,0,0.3,0,0.5c6.3,0,12.7,0,19,0c0-0.2,0-0.3,0-0.5C373.7,508.3,367.4,508.3,361.1,508.3z M365.8,504.3
		c0,0.2,0,0.3,0,0.5c3.9,0,7.7,0,11.6,0c0-0.2,0-0.3,0-0.5C373.5,504.3,369.6,504.3,365.8,504.3z M309.4,534.7
		c0.8-0.5,1.6-0.9,2.3-1.3c0-0.3,0-0.5,0-0.8c-1.5-0.5-3-1.1-4.5-1.6c-0.1,0.2-0.1,0.4-0.2,0.6C307.7,532.5,308.4,533.4,309.4,534.7
		z M215.5,512.9c0,0.1,0,0.2,0,0.3c4,0,8,0,12.1,0c0-0.1,0-0.2,0-0.3C223.6,512.9,219.5,512.9,215.5,512.9z M149.6,533.3
		c0,0.3,0,0.5,0,0.8c2.9,0,5.9,0,8.8,0C155.5,533.1,152.6,532.4,149.6,533.3z M215,514.8c0,0.2,0,0.3,0,0.5c4.7,0,9.4,0,14.1,0
		c0-0.2,0-0.3,0-0.5C224.4,514.8,219.7,514.8,215,514.8z M429.9,530.7c0-0.1,0-0.2,0-0.3c-3.1,0-6.2,0-9.3,0c0,0.1,0,0.2,0,0.3
		C423.7,530.7,426.8,530.7,429.9,530.7z M429.9,528c0-0.1,0-0.3-0.1-0.4c-3.1,0-6.2,0-9.3,0c0,0.1,0,0.3,0,0.4
		C423.6,528,426.7,528,429.9,528z M188.5,535.2c0-0.1-0.1-0.3-0.1-0.4c-2.4,0-4.8,0-7.1,0c0,0.1,0,0.3,0,0.4
		C183.7,535.2,186.1,535.2,188.5,535.2z M219.3,509.9c0,0.2,0.1,0.3,0.1,0.5c2.5,0,5.1,0,7.6,0c0-0.2,0-0.3,0-0.5
		C224.4,509.9,221.9,509.9,219.3,509.9z M197.5,521.8c-0.1,0-0.2,0.1-0.4,0.1c0,1.4,0,2.9,0,4.3c0.1,0,0.2,0,0.4,0
		C197.5,524.7,197.5,523.2,197.5,521.8z M393.6,514.2c0,0.2,0.1,0.4,0.1,0.6c0.7-0.1,1.5-0.2,2.2-0.4c0-0.2-0.1-0.4-0.1-0.6
		C395.1,514,394.4,514.1,393.6,514.2z M392.8,515.5c-0.1,0.1-0.1,0.2-0.2,0.3c1.3,0,2.6,0,4,0c0-0.1,0-0.2,0-0.3
		C395.3,515.5,394.1,515.5,392.8,515.5z M428.7,526.4c0-0.1,0-0.2,0-0.3c-1.3,0-2.5,0-3.8,0c0,0.1,0,0.2,0,0.3
		C426.2,526.4,427.5,526.4,428.7,526.4z M221.3,505.7c0,0.1,0,0.3,0,0.4c1.4,0.1,2.8,0.2,4.2,0.2c0-0.2,0-0.4,0-0.6
		C224.1,505.7,222.7,505.7,221.3,505.7z M469,332.2c0.1-0.2,0.2-0.3,0.3-0.5c-0.6-0.2-1.2-0.5-1.7-0.7c-0.1,0.1-0.1,0.3-0.2,0.4
		C468,331.7,468.5,331.9,469,332.2z M428.5,524.6c0,0,0-0.1,0-0.1c-0.8,0-1.5,0-2.3,0c0.1,0,0.1,0.1,0.1,0.1
		C427.1,524.6,427.8,524.6,428.5,524.6z M412.9,284c0.1-0.2,0.2-0.4,0.3-0.6c-0.4-0.2-0.7-0.3-1.1-0.5c-0.1,0.1-0.1,0.3-0.2,0.4
		C412.3,283.5,412.6,283.8,412.9,284z M467.7,491.4c0.1,0,0.1,0,0.2,0c0-0.5,0-1,0-1.5c-0.1,0-0.1,0-0.2,0
		C467.7,490.4,467.7,490.9,467.7,491.4z M412.1,287.4c0.1-0.1,0.2-0.2,0.3-0.3c-0.2-0.2-0.4-0.5-0.6-0.7c-0.1,0.1-0.3,0.3-0.4,0.4
		C411.7,287.1,411.9,287.2,412.1,287.4z M406.9,282.1c0.1-0.1,0.2-0.3,0.4-0.4c-0.3-0.2-0.6-0.5-0.9-0.7c-0.1,0.1-0.2,0.2-0.2,0.3
		C406.4,281.5,406.6,281.8,406.9,282.1z M178.4,538.6c0,0.1,0,0.3,0,0.4c0.6,0,1.2-0.1,1.8-0.1c0-0.1,0-0.2,0-0.3
		C179.6,538.6,179,538.6,178.4,538.6z M154.6,529C154.6,528.9,154.6,528.9,154.6,529c-0.4-0.1-0.8-0.1-1.2-0.1c0,0,0,0.1,0,0.1
		C153.8,529,154.2,529,154.6,529z M184.8,533.6c0-0.2,0-0.4,0-0.6c-0.4,0-0.8,0.1-1.2,0.1c0,0.1,0,0.2,0,0.3
		C184,533.5,184.4,533.6,184.8,533.6z M392.6,517.5c0-0.1,0-0.2,0-0.3c-0.6,0-1.2,0-1.8,0c0,0.1,0,0.2,0,0.3
		C391.4,517.5,392,517.5,392.6,517.5z"/>
	<path d="M164.1,278.1c1.2-0.5,3.5-1.3,5.9-2.3c-0.2-0.4-0.4-0.7-0.6-1c3.2-0.9,6.4-1.8,9.9-2.8c-2.4-0.5-4.6-0.9-7.3-1.4
		c3.6-0.3,6.8-0.5,10.6-0.7c-1.2-0.6-1.9-0.9-2.5-1.3c0.1-0.4,0.1-0.4,0.1-0.7c2.1-0.2,4.3-0.4,6.4-0.6c0-0.2,0-0.2,0-0.3l-6.2-2.2
		c0-0.1,0-0.2,0-0.2c4.4,0.4,8.9,0.7,13.4,1.1c0.1-0.2,0-0.2,0.1-0.4c-1.6-0.6-3.1-1.2-5-1.9h8.9c-1-0.7-1.7-1.2-3.1-2.1l6.6,1.7
		c0.1-0.2,0.1-0.2,0.2-0.4c-0.9-0.8-1.7-1.5-3.2-2.8c3.8,1.7,7,3.2,10.2,4.4c2.3,0.9,4.8,1.4,7,2.3c1.4,0.6,2.6,1.7,3.8,2.6
		c0.9,0.7,1.6,1.5,2.8,2.6c-0.2-1.1-0.2-1.7-0.3-2.4l2.2,2.4c0.3-0.1,0.2-0.1,0.5-0.3l-1.4-5.3c0.1,0,0.3-0.1,0.4-0.1
		c2,3.6,4,7.3,6.4,11.5c0-1.3,0-1.9,0-2.4c0.1,0,0.2-0.1,0.3-0.1c0.5,1.6,1.1,3.2,1.6,4.8c1.7-2.3,1.6-4.2-0.5-12.5
		c0.4-0.1,0.3-0.1,0.7-0.2c1.9,5.1,3.9,10.2,6.1,16c7.3-0.4,15.2-0.9,23-1.3c-0.1-0.3-0.1-0.6-0.2-1.1c1.6,0.5,3.2,1,5.5,1.8
		c-0.9-1.3-1.3-1.9-1.8-2.5c8.2,2.4,15.6-0.6,23.9-3.3c3.9,3.5,3.7,9.6,4.9,15.1c-1.7-4.3-3.4-8.5-5.2-13.1c-2.5,2.3-1.1,4.3-1,6.1
		c0.1,1.9,0.6,3.7,0.7,5.7c-1.4-2.4-2.8-4.9-4.3-7.6l-1.1,4.2c-0.8-0.6-1.3-1-2.3-1.7c0.8,2.7,1.4,4.9,2.3,8
		c-2.3-2.2-3.9-3.9-6.1-6.1c-0.2,1.7-0.2,2.5-0.3,3.5c-0.8-0.3-1.4-0.5-2.1-0.8c0,0.4,0,0.7,0.1,0.9c1.6,2.5,3.4,5,5,7.6
		c4,6.4,4.6,13.9,6.6,21c0.7,2.5,0.8,5.1,1.2,7.6c-0.5,0.2-0.4,0.2-0.9,0.4c-1.1-1.6-2.2-3.1-3.4-4.7c-1.3-2.4-2.7-4.9-4-7.3
		c-0.2,0.1-0.4,0.2-0.6,0.4c1.1,1.9,2.1,3.7,3.2,5.6c-1.7-1.3-3.5-2.6-5.3-4c-0.1,0.6-0.2,1-0.3,1.7c-3.1-2.8-6-5.5-9-8.1
		c-0.1,0.1-0.2,0.2-0.3,0.2c1.4,1.7,2.7,3.4,4.1,5.1c-0.1,0.1-0.2,0.2-0.3,0.3c-2.9-2.5-5.9-5-8.8-7.5c-0.1,0.1-0.2,0.1-0.3,0.2
		c0.4,0.8,0.7,1.6,1.2,2.6c-3.5-2-6.7-3.9-10-5.8c-0.1,0.2-0.3,0.4-0.4,0.6c2.2,1.8,4.5,3.5,6.8,5.3c-5.8-1.9-11.5-3.7-17.2-5.5
		c-0.1,0.2-0.2,0.5-0.2,0.7c3.6,1.5,7.1,3,10.7,4.6c-0.1,0.3,0,0.2-0.1,0.5h-19.7c1.9,0.3,4.9,0.8,8.2,1.3c-1.8,1.9-3.3,3.4-5.1,5.3
		c1.3-0.3,2.3-0.8,3.2-0.7c1.7,0.1,3.3,0.6,5,0.9c0.6,0.1,1.7,0.2,2.4,0.2c2.9,0,5.7,0,8.6,0c0,0.3,0,0.5,0,0.8
		c-2.4,0-4.9-0.1-7.3,0c-1.6,0.1-2.6,1-3.1,2.9c-0.4,1.6-1.9,3-3.2,4.1c-1.2,1-2.1,0.6-2.1-1c0-1.8,0.3-3.5,0.5-5.6
		c-3.3-1-6.1,0-9.5,1.9l3.5,1c-3.4,2.7-8,3.5-9,8.2c0.5-0.1,1.1-0.3,2.1-0.6c-1.9,3.5-6.9,4-7.1,8.6c0.5-0.1,1-0.2,1.6-0.3
		c-0.1,0.3-0.2,0.6-0.3,0.8c-0.4,0.5-0.9,1-1.3,1.4c-2.7,2.6-5.5,5.1-8.2,7.9c-0.8,0.8-1,2.2-1.5,3.4c-0.9,2.2-1.9,4.5-2.8,6.7
		c0.2-0.1,0.8-0.3,1.8-0.7c-1.2,1.8-2.2,3.3-3.6,5.4c1.3-0.7,1.9-1,3.3-1.8c-1.3,2.1-2.3,3.5-3.3,5.1c0.5,0.1,0.9,0.1,1.3,0.2
		c-1.2,3.1,1.3,7.3-2.9,8.9c2.4,3-1,4.4-1,6.7c0.5,0.1,1.2,0.2,2.7,0.5c-3.1,3.4-5.9,6.3-8.6,9.2c-0.2-0.1-0.3-0.2-0.5-0.3
		c1-0.2,2-0.5,3.1-0.7c0.1,0.1,0.2,0.3,0.3,0.4c-1.5,1.1-2.9,2.1-4.6,3.3c0.8,0.1,1.5,0.2,2.6,0.3c-1.1,0.6-1.8,0.9-2.9,1.4
		c0.8,0.3,1.4,0.4,1.9,0.6c-1.1,1.5-2.2,2.9-3.6,4.9c2.7,0.6,4.8,1,7,1.5c0,0.1,0,0.2,0,0.2c-1.8,0-3.7,0-5.9,0
		c0.7,1,1.2,1.6,1.7,2.3c-0.2,0.2-0.2,0.2-0.3,0.5l-6.1-1.6c1.8,2.1,3.6,4.2,5.4,6.2c-0.9-0.1-1.9-0.2-3-0.2c0.2,1.2,3.7,0.6,1.5,3
		c0.6,0.3,1.4,0.6,2.2,0.9c0,0,0.1,0.1,0.1,0.2c-2.5,1.3,0.6,5.6-3.3,6.1c-0.2,0.2-0.4,0.4-0.6,0.6c-0.8,0.2-1.6,0.3-2.9,0.6
		c0.7-0.9,1-1.4,1.4-1.8c2.1-2.1,1.9-3.5-0.1-5.9c-2.6-3.1-4.8-6.4-7-10.1l3.1,1.6c0.2-0.2,0.2-0.2,0.3-0.4
		c-0.7-1.1-1.5-2.1-2.3-3.4c0.6,0,1.2,0.1,2.4,0.2c-1.4-1.5-2.4-2.5-3.3-3.5c0.6-0.9,1.2-1.7,1.7-2.3c-1.5-3-3-6-4.5-9.1
		c1.3,0.1,2.2,0.1,3.8,0.2c-1.9-1.2-3.1-2-4.4-2.8c0.1-0.2,0.2-0.4,0.3-0.6c0.6,0,1.2,0,2.3,0c-1.6-1.1-2.8-2-4.6-3.2l2.9-0.4
		c-1.4-0.9-2.5-1.6-3.9-2.5c0.8-0.5,1.4-0.8,1.4-0.8c-2.3-1.5-4.6-3.1-7.2-4.8c0.7-0.5,1.3-0.9,2.1-1.4c-0.3-0.2-0.5-0.5-0.7-0.5
		c-3.6-0.8-6.4,0.4-7.8,3.8c-2.4,5.5-4.7,11.1-6.7,16.8c-2.6,7.3-4.6,14.8-7.2,22.2c-1.6,4.5-4,8.8-8,11.6c-2.3,1.6-5.2,3-7.9,3.2
		c-6.3,0.5-9.6-3.8-8.5-10c0.6-3.1,1.2-6.1,1.5-9.2c0.5-5.7-0.7-11.1-2.7-16.4c-3-8-7.1-15.3-12.8-21.7c0.4,0.9,0.7,1.8,1.1,2.7
		c0.5,1,1,1.9,1.6,2.8c-0.2,0.1-0.5,0.2-0.7,0.3c-1.4-2.8-3-5.6-4-8.6c-0.9-3-1.1-6.2-1.9-9.4c-1.4,5.2-0.6,10.3,1.3,15.6
		c-3.7-5.2-4.9-13.3-3.9-22.3c-0.6,1-1.2,2-1.9,3c-0.1,0-0.3-0.1-0.4-0.1c0.7-2.7,1.4-5.4,2.2-8.6c-1,0.9-1.6,1.4-2.3,2
		c-0.1-0.1-0.3-0.2-0.4-0.3c2.1-2.7,4.2-5.5,6.6-8.7c-1.8,0.2-3,0.3-4.2,0.4c-0.1-0.2-0.1-0.2-0.1-0.4c1.7-1.3,4.9-4.6,4.8-5.3
		l-2.8-1.3c1.6-0.9,2.9-1.7,4.5-2.6c-1.1-0.9-2.2-1.8-3.4-2.8c3.7-0.1,7.5,1.7,11-1.7c-2.2-0.3-4.1-0.6-5.8-0.8
		c2.1-0.3,4.3-0.7,6.5-1c0.1-3.1,3.7-2,4.8-4.3c-1.6-0.4-3.3-0.9-5.1-1.4c6.5-1.8,13-3.5,18.4-7.9c-2.3,0.8-4.6,1.6-7,2.4
		c-0.1-0.1-0.1-0.3-0.2-0.4c4.1-2.1,8.2-4.2,12.3-6.3c-0.1-0.2-0.1-0.3-0.2-0.5c-0.6,0-1.3,0-2.3,0c3.7-1.9,7-3.6,10.4-5.3
		c-0.1-0.2-0.2-0.5-0.3-0.7c-0.7,0.3-1.4,0.5-2.3,0.8c3.6-2.9,7.1-5.7,10.5-8.5c-0.2-0.2-0.3-0.5-0.5-0.7c-0.6,0.1-1.2,0.3-2.3,0.6
		c1.8-1.4,3.3-2.5,5.4-4.1l-3.1,0.5c-0.2-0.4-0.1-0.3-0.3-0.8c4.2-2.4,8.5-4.9,12.7-7.3c0-0.1-0.1-0.3-0.1-0.4
		c-1.1,0.1-2.2,0.1-3.4,0.2c0-0.1,0-0.2,0-0.3c1-0.4,2-0.7,3.1-1.1c2.5-0.9,7.9-1.7,7.9-2.1 M215.6,280.1c0.2-0.3,0.4-0.6,0.5-0.9
		c-1.9-1.3-3.8-3.7-5.9-3.8c-3-0.2-6.7,0.4-9.1,2.1c-4.6,3.3-8.1,7.8-10.4,13.2c-2.1,4.9-4.5,9.6-6.9,14.4c-1.4,2.8-3.5,5.2-4.8,8
		c-2.7,5.8-4.4,11.9-5.5,18.2c-0.9,5.2-1.9,10.3-3.2,15.4c-1.2,4.5-2.6,9.1-4.5,13.3c-2.1,4.5-5.6,8.3-7.3,12.8
		c-2.9,8-5.3,16.2-7.2,24.4c-2,8.7-4.7,17-10,24.2c-4.2,5.7-7.1,6.3-13.4,3.1c-0.1,0-0.2,0.2-0.4,0.2c3.2,4,8.8,4.4,13.2,0.9
		c4.2-3.3,6.7-7.8,8.3-12.7c2.4-7.6,4.5-15.3,6.6-23c1.7-6.4,3.8-12.8,8.1-17.9c6.3-7.4,9.9-16,12.5-25.1c2.2-7.6,4.2-15.2,6.7-22.7
		c4.1-12,8.4-23.9,13-35.6c1.6-4.2,5.1-7.3,9.1-9.4C208.6,277.6,212.2,278.8,215.6,280.1z"/>
	<path d="M245.4,404.5c-0.3,3.6-1.7,6.3-5.3,7.9c-1.6,0.7-2.9,2.7-3.8,4.4c-1.9,3.3-4,6.3-4.9,10.3c-0.7,3.3-4.4,3.4-6.5,0.7
		c-0.5-0.6-1.3-1.1-2.1-1.4c-0.7-0.2-1.6-0.1-2.8-0.2c0.9-1,1.5-1.6,2-2.2c-0.6-1-1.2-2-2-3.4c-0.7-0.9-1.6-2.2-2.7-3.4
		c-0.9-1-2.1-1.8-3.1-2.7c1.5-1.7,1.1-2.3-3.6-5.2c0.4-0.6,0.9-1.1,1.1-1.5c-1.6-3.4-3.2-6.5-4.8-10c0-0.1,0.7-0.9,0.7-1
		c-3.3-3.2,1.4-7.9-1.9-11.1c2-1.9,3.6-4,4.8-6.7c1-2.4,3.2-4.2,4.8-6.3c0.5-0.7,0.5-1.9,0.9-2.7c0.6-1.2,1.3-2.4,2.1-3.8
		c0.1,0.1-0.3-0.2-0.4-0.3c0.7-0.9,1.2-2,2.1-2.6c3.3-2.1,6.7-3.8,10-5.9c5.7-3.5,11.4-2.7,17,0c3.3,1.6,6.2,3.8,9.6,6
		c0.7-1.7,1.4-3.6-0.2-5.8c-0.5-0.8-0.4-2-0.3-3.1c2.8,3.1,5.4,6.2,4.7,10.2c0.7,0.3,1.5,0.4,1.6,0.7c1.2,4.9,3,9.5,2.8,14.7
		c-0.1,3.3-0.7,6.2-2.7,8.5c-3.2,3.8-7,7.1-10.6,10.6c-1.1,1.1-2.3,2.1-3.4,3.1C247.3,403.2,246.4,403.9,245.4,404.5z M254.8,387.7
		c0.8-1.1,1.6-2.2,2.4-3.3c-0.2-0.1-0.4-0.3-0.6-0.4c-0.4,0.8-0.9,1.7-1.3,2.5c0.1-2.5,0.2-4.9,0.1-7.4c0-0.7-1-1.3-1.6-2
		c-0.5,0.6-1.1,1.1-1.4,1.7c-0.7,1.7-1.2,3.4-1.8,5.2c-2,5.5-6.5,8.3-11.9,7.2c-2.1-0.4-4-1.7-6-2.5c-2.1,2.4-2.1,2.4-0.7,4.9
		c2,3.4,6.2,4.6,10.6,3.1C247.7,395,251.7,391.9,254.8,387.7z M239.8,377.4c0.9-0.8,2.6-1.6,3.3-3c0.8-1.6,0.3-3.6-1.6-4.4
		c-2.8-1.1-5.7-2.2-8.6-2.6c-1.6-0.2-4.7,1.2-4.8,2c-0.2,2.6-2,3-3.6,3.9c-1.6,0.8-2.1,2-1.5,3.6c0.6,1.8,2.1,2.2,3.5,1.5
		C230.6,376.6,234.7,376.4,239.8,377.4z M220.8,376.2c-3.6,2.5-4.7,5.5-4,9.2c1.6,8.5,10.2,16.2,18.9,16.6c2.8,0.1,5.7-0.8,8.6-1.3
		c0-0.3-0.1-0.6-0.1-0.9c-6.8,1.4-12.5-0.7-17.2-5.5C222.1,389.4,220.7,383.3,220.8,376.2z"/>
	<path d="M373.4,348c-0.8-0.2-1.6-0.3-2.3-0.7c-2.5-1.5-4.9-3.3-7.6-4.6c-2.4-1.2-5-1.8-7.7-0.9c-0.8,0.2-1.5,0.7-2.1,1.1
		c-1.2,0.8-7,3.3-10.9,9.9c-3,2.6-2.1,6.2-2.2,9.8c2.5-3.7,5.2-7.2,10.5-7.4c-0.1-0.3-0.3-0.6-0.4-0.9c0.3,0.4,0.7,0.9,1.2,1.6
		c1.3-1.1,2.4-2.1,3.7-3.2c0.3,3.5,2.1,2,3.9,1.3c-0.4,0.6-0.8,1.1-1.5,2.1c2.4-0.7,4.3-1.2,6.6-1.8c-0.5,0.8-0.7,1.2-0.7,1.3
		c2.1,0.7,4.2,1.4,6.5,2.1l-2.9,1.7c1.8,0.4,2.9,0.6,3.9,0.8c-0.1,0.2-0.3,0.4-0.4,0.5c1.1,0.8,2,1.9,3.2,2.2
		c1.4,0.3,2.3,0.7,3.2,1.9c0.9,1.2,2.5,1.9,4,3c-1.4,0.1-2.4,0.2-3.6,0.3c1.8,1.6,5.7-0.1,5.4,4c0,0.5-0.6,1-0.7,1.2
		c2.3,2.8,4.9,5.8,7.6,9.1l-1.7,1.1c0.5,1.3,1,2.5,1.6,3.9c-5.9-0.2-6.7,0.4-6.3,3.4c-3.1,2.7-6,5.1-8.6,7.6
		c-6.3,6-13.3,9.5-22.2,6.6c-2-0.6-3.8-1.8-5.6-2.8c-3.2-1.9-6.6-3.6-9.6-5.8c-1.9-1.5-3.2-3.9-4.6-5.9c-1.2-1.7-2.3-3.5-4.1-5.1
		l2.8,0.2c0.8-4.7,1.6-9.3,2.4-14c0.6-3.3,1.6-6.6,1.8-10c0.1-3.4-0.6-6.9-0.9-10.3c-0.2-1.6-0.4-3.2-0.2-4.8c0.5,1,1,2,1.5,3
		c0.3,0,0.6,0,0.9-0.1c-2.3-3.6,0.5-6.5,0.9-10.1c0.4,0.9,0.7,1.5,1.2,2.6c0-2.2,0-3.8,0-5.5c0.1,0,0.2-0.1,0.4-0.1
		c0.3,0.9,0.6,1.9,1,3.1c0.5-0.7,0.8-1.1,1.2-1.6c0.2,0.5,0.4,0.9,0.7,1.5c0.4-2.6,0.8-5,1.2-7.4c0.2,0,0.4,0,0.5,0
		c0.1,1.6,0.2,3.1,0.4,4.7c0.1,0,0.3,0,0.4,0.1c0.4-1.9,0.8-3.8,1.3-6.4c0.2,2.4,0.4,4,0.5,5.7c0.5-0.4,0.8-0.6,1.3-1.1
		c-0.1,1.2-0.1,2.1-0.2,2.9c1.5-2.1,3.1-4.2,4.9-6.5c0.1,0.9,0.1,1.6,0.2,2.9c1-0.9,1.6-1.4,1.6-1.5c1.4,0.1,2.3,0.1,3.2,0.2
		c-0.2,0.1-0.3,0.3-0.5,0.4c0.9,0.7,1.8,1.6,2.8,2.2c1.9,1.1,6.2,4.6,6.7,5.1C368.8,343,371.1,345.5,373.4,348
		C373.3,348,373.4,348,373.4,348z M341.4,391.7c2.2,6.4,9.9,11.2,16.9,11c7.4-0.2,15.9-7.1,18.2-15c1.6-5.3-0.6-12.5-4.6-15.2
		c2,9.4,1.1,18-7.7,23.6C355.8,401.4,348.2,399.1,341.4,391.7z M340,382.5c0.2,0,0.6,0.1,0.8,0c4.1-2.2,8.2-3.8,13-3.5
		c2.5,0.1,4.2-2.9,3.4-5.2c-0.7-2-7.4-5.8-9.4-5.2C342.3,370.2,338.6,377.2,340,382.5z M369.8,382.8c0-1,0.2-1.5,0-1.9
		c-0.6-1.3-1.4-2.6-2.1-3.9c-0.7,1.1-1.4,2.2-2,3.4c-0.2,0.3-0.2,0.7-0.2,1.1c-1.9,7.7-3.6,9.1-11.4,10.1c-0.3,0-0.6,0-0.8,0.1
		c-0.8,0.7-1.6,1.4-2.3,2.2c0.7,0.6,1.4,1.6,2.2,1.9C359.9,398.1,370.3,389,369.8,382.8z"/>
	<path d="M191,422.3c0.4,0,0.6-0.1,1-0.1c0.5,0.4,1,0.8,1,1.2c-0.3,3.1,1.8,6.2,3.5,7.1c1.8,1,2.1,3.1,3.2,4.4c2.1,2.5,4.1,5,5.4,8
		c0.7,1.7,1.3,3.4,1.7,5.1c0.8,3.9,0.1,8.2,0.1,12.3c0,1.1,0.3,2.2,0.6,3.5l0.6-0.4c1.1-0.8,2.7-0.3,3.1,1h0l1,0.6
		c0.4,0.2,0.7,0.7,0.7,1.2c0,0.3,0,0.5,0.1,0.8c0,0,0-0.1,0-0.1c-1.1,0-8.6-1.6-10.2-3.4c-0.5,0.8-1.2,1.9-2,3.1
		c-2.8,0.6-4.1-1.9-6.2-4c0.1,1.1,0.1,1.7,0.2,2.8c-5.6-1.5-10.8-0.9-15.9,1l0,0c-5.4-3.9-5.5-4-7-7.6c2.2,1.5,4.2,3.1,6.3,4.2
		c1,0.5,2.6,0.4,3.7,0c3.1-1.2,6.1-1.9,9.8-1.5c-0.8-1.2-1.6-2.3-2.7-4c2.5,1.5,4.6,2.8,6.7,4c3.1,1.8,7,0.5,8.4-2.7
		c3.3-7.4,0.9-16.7-5.7-21.4c-2.3-1.7-4.6-3.4-6.9-5.1c0.1-0.3,0.3-0.5,0.4-0.8c-1,0.4-2,0.7-3,1C188.9,429.2,188.2,425.4,191,422.3
		z"/>
	<path d="M310.1,272.9c-4.7,5.5-7.3,11.7-8.2,20.1c-0.3-0.6-0.6-1.2-1.3-2.5c-0.3,3.8-0.6,6.8-0.8,9.3c-1.6-7.8-3.2-16.1-5-24.8
		c0.7,1.7,1.3,3,1.8,4.3c0.2,0,0.3-0.1,0.5-0.1c0.1-0.6,0.1-1.2,0.2-1.8c0.1,0,0.2,0,0.3-0.1c0.6,3,1.2,6,1.8,9.1
		c1.2-4.7,2.3-9.2,3.6-14.3c0.6,1,0.8,1.3,1.4,2.3c2.3-2.8,4.5-5.5,6.6-8.1C310.7,268.6,309.5,270.2,310.1,272.9z"/>
	<path d="M364,321.6c-2.8,0.7-1.7,2.4-0.8,3.7c1.2,1.8,2.7,3.4,4.1,5.1c-3.6-0.4-7-2.1-9.5-5.3c-4.4-5.6-8.7-6.8-15.4-4.1
		c-0.7,0.3-1.5,0.5-2.3,0.6c5.1-3,10.4-4.1,16.2-2.3c1.2,0.3,2.5,0.1,3.8,0.1c0.1-0.3,0.2-0.6,0.2-0.9
		C361.5,319.5,362.8,320.6,364,321.6C364,321.6,364,321.6,364,321.6z"/>
	<path d="M247.4,339.8c-0.9-2.4-1.7-4.4-2.5-6.5c3.1,3.5,5.3,7.3,5.8,12.9c-5.2-2.4-9.8-4.6-14.3-6.7c0-0.3,0.1-0.5,0.1-0.8
		c1.9-0.3,3.8-0.6,5.9-0.9c-0.3-0.6-0.6-1.3-0.9-2c0.2-0.2,0.3-0.4,0.5-0.6C243.6,336.7,245.3,338.1,247.4,339.8z"/>
	<path d="M288.2,358.5c0.4,1.2,0.7,2.4,1.1,3.5c0.3,1.2,0.6,2.4,0.7,3.5c-0.6-8.9-1.3-17.8-1.9-26.7c2.1,3.5,3.5,23,2.4,33.6
		c-1-4.6-1.9-9.2-2.9-13.7C287.8,358.6,288,358.5,288.2,358.5z"/>
	<path d="M422.9,457.1c-1,1.1-0.8,1-1.7-0.2c-1-1.3-2.1-2.9-3.5-3.4c-2.7-1.1-5,1.3-4.3,4.2c0.2,1,0.4,2.1,0.1,3.3
		c-0.3-0.6-0.6-1.2-0.9-1.9c-1.4-3.1-2.7-3.5-5.3-1.1c-0.9,0.8-1.5,1.8-2.2,2.8c-0.6,1-1.2,2-1.6,2.8c-0.5-1.3-1.1-2.6-1.6-3.9
		c0,0,0,0,0,0c0.8-0.5,1.8-0.8,2.2-1.4c1.7-2.4,3.7-4,6.8-3.9c0.6,0,1.2-0.2,1.7-0.6c4.1-2.8,6.3-2.4,9,1.7
		C422,456.2,422.5,456.7,422.9,457.1L422.9,457.1z"/>
	<path d="M422.9,457.2c0.8-1.7,1.6-3.4,2.4-5c0.2,0,0.4,0.1,0.7,0.1c0.1,0.4,0.2,0.8,0.4,1.3c1.9-1.4,3.8-2.7,5.7-4.1
		c0.1,0.1,0.2,0.2,0.3,0.3c-0.2,0.4-0.5,0.7-0.7,1c2.4,0.5,5,0.8,7.4,1.7c2.3,0.9,4.4,2.5,6.4,4.2c-0.8-0.3-1.5-0.5-2.9-1
		c0.5,1.5,0.9,2.5,1.3,3.5c-0.1,0.1-0.1,0.1-0.2,0.2c-0.3-0.5-0.7-0.9-0.9-1.4c-2-6.2-9.1-6.5-13.7-3.7
		C427.1,455.4,424.9,456.2,422.9,457.2C422.9,457.1,422.9,457.2,422.9,457.2z"/>
	<path d="M296.8,290.7c-1-2.1-2.3-4.1-3.1-6.2c-2.7-7.8-3.2-8.7-11.2-14.6c5.9,1.4,9.9,4.4,11.8,9.4
		C295.7,282.9,296,286.9,296.8,290.7C296.8,290.7,296.8,290.7,296.8,290.7z"/>
	<path d="M455.5,463c3.4-0.2,6.7-0.5,10-0.7c0,0.2,0,0.4,0,0.6c-1.2,0.3-2.3,0.6-3.6,1c4.8,1.2,9.4,2.4,14.8,3.8c-2.5,0-4.2,0.1-6,0
		c-3.5-0.4-7-1.2-10.5-1.3C457.7,466.2,456.2,465.5,455.5,463z"/>
	<path d="M178.9,466.5c-1.9,1.5-3.9,1.6-6.2,1.1c-2.9-0.6-6-0.9-9-1.3c-4.3-0.6-8.1,0.7-11.2,3.7c2.5-6.1,7.4-5.4,12.5-4.6
		c-0.8-0.5-1.5-0.9-3-1.8c1.8,0,2.9-0.2,3.9,0c1.7,0.4,3.3,1,4.9,1.7C173.4,466.6,175.9,468.4,178.9,466.5
		C178.9,466.5,178.9,466.5,178.9,466.5z"/>
	<path d="M257.6,339.6c0.2-0.1,0.7-0.3,1.2-0.4c0.5-0.2,0.9-0.3,1.4-0.4c2.7,5.5,2.1,8.4-2.1,9c-0.8-3.7-1.5-7.5-2.3-11.3
		c0.3-0.1,0.6-0.1,0.9-0.2C257.1,337.6,257.5,339,257.6,339.6z"/>
	<path d="M154,508.9c-0.3,2.3-0.5,4.6-0.8,6.9c-1.7-8-2.5-16,1.2-24.3c-0.5,5.9-0.9,11.1-1.3,16.3c-0.1,0.8-0.1,1.6-0.2,3
		C153.5,509.9,153.8,509.4,154,508.9C154.1,508.9,154,508.9,154,508.9z"/>
	<path d="M436.5,479.5c-1.2,1.3-2.7,2.5-3.6,4.1c-1.9,3-4.2,6.1-4.8,9.5c-0.3,2-1,3.8-1.3,5.8C425.3,491.6,429.5,483.1,436.5,479.5z
		"/>
	<path d="M237.8,343.1c-1.1,0.4-2.3,0.6-3.3,1.2c-3.1,1.8-6.2,3.7-9.4,5.7c0.3-0.7,0.5-1.8,1.2-2.5
		C229.4,344.4,232.6,341,237.8,343.1L237.8,343.1z"/>
	<path d="M471.3,470.8c4.7-0.8,13.2,4.7,15.3,9.6C482.9,475,477,473.2,471.3,470.8z"/>
	<path d="M253,345.1c-2.6-3.1-2.8-7-3.1-10.8C252,337.6,253.9,340.9,253,345.1z"/>
	<path d="M176.1,472.3c2.3-5.1,9.5-6.5,14.3-3.5C182.4,468.1,180.5,468.5,176.1,472.3z"/>
	<path d="M158.6,480.8c-0.3-5,1.6-8.6,5.2-10.6C162.2,473.3,160.5,476.8,158.6,480.8z"/>
	<path d="M286.8,364.7c0-1.2,0-2.5,0-3.7c0.2,0,0.4-0.1,0.6-0.1c0.7,5.9,1.5,11.7,2.2,17.6c-0.1,0-0.2,0-0.4,0.1
		c-0.4-1.8-0.8-3.5-1.2-5.3C287.6,370.4,287.2,367.5,286.8,364.7z"/>
	<path d="M434.6,466.1c0,3.3,0,6.3,0,9.3C432.5,472.4,432.5,469.4,434.6,466.1z"/>
	<path d="M286.8,364.7c0.4,2.8,0.8,5.7,1.2,8.5c-1.1-3-2.2-6.1-3.4-9.1c0.3-0.1,0.6-0.3,0.9-0.4C285.9,364,286.4,364.4,286.8,364.7z
		"/>
	<path d="M311.7,277.4c-1.6,2.3-3.3,4.7-5.2,7.5C306,280.4,309.6,279.5,311.7,277.4z"/>
	<path d="M227.9,333.5c-0.3-2.3,0.6-3.3,2.9-3.5C231.3,332.5,230.2,333.4,227.9,333.5z"/>
	<path d="M452.1,457.1c0.8,0.3,1.5,0.6,2.4,0.9c-0.6,0.4-1,0.6-1.7,1.1c1.3,0.8,2.4,1.4,3.4,2.1c-3.1,0.3-3.7-0.1-4.5-3.5
		C451.8,457.4,451.9,457.2,452.1,457.1z"/>
	<path d="M396.3,468.2c3.6-0.6,5.2,0.1,5.4,2.9C399.8,470.1,397.9,469,396.3,468.2z"/>
	<path d="M402.1,477.5c-1.8-1.4-3.5-2.8-4.8-3.8c3.6-0.6,4.4-0.1,5.1,3.8C402.3,477.5,402.2,477.5,402.1,477.5z"/>
	<path d="M237.9,343.1c-1.4-0.8-2.8-1.6-4.3-2.3c0-0.2,0.1-0.3,0.1-0.5c2.2,0.6,4.3,1.2,6.5,1.8c0,0.3-0.1,0.5-0.1,0.8
		C239.3,343,238.6,343.1,237.9,343.1C237.8,343.1,237.9,343.1,237.9,343.1z"/>
	<path d="M254.6,336c0.6,2.6,1.2,5.2,1.7,7.8c-0.3,0.1-0.5,0.1-0.8,0.2c-0.5-2.6-1.1-5.2-1.6-7.8C254.2,336.1,254.4,336,254.6,336z"
		/>
	<path d="M404.6,415.7c-0.1-0.2-0.3-0.3-0.4-0.5c-0.3-0.5-0.7-1.1-1.1-1.7c1.7,0.8,3.4,1.5,5.4,2.5
		C407,415.9,405.8,415.8,404.6,415.7z"/>
	<path d="M245.4,404.5c0.9-0.7,1.8-1.4,2.8-2.1C247.3,403.2,246.4,403.9,245.4,404.5z"/>
	<path d="M460.9,487.9c-0.2,0-0.4-0.1-0.6-0.1c-0.1-1-0.2-2-0.2-3.1c0.2,0,0.4,0,0.6,0C460.8,485.8,460.8,486.9,460.9,487.9z"/>
	<path d="M452.1,457.1c-0.1,0.2-0.3,0.3-0.4,0.5c-0.6-0.3-1.2-0.6-1.8-1c0.1-0.2,0.1-0.3,0.2-0.5
		C450.7,456.4,451.4,456.7,452.1,457.1z"/>
	<path d="M317.1,552.3c3.8,0,7.7,0,11.5,0c-19.4,3.4-38.9,4.9-58.7,3.9c8.5-0.4,17-0.8,25.5-1.2c0-0.4,0-0.8,0-1.2
		c-12.6,0-25.1,0-37.7,0c0-0.3,0-0.5,0-0.8c5.2,0,10.4,0,15.6,0c0-0.3,0.1-0.7,0.1-1c-7.5-0.8-15.1-1.5-22.1-2.2
		c6.1-0.6,12.8-1.3,19.5-1.9c0.4,2,1.3,2.4,3.3,1.5c1.5,0.5,2.5,0.8,3.6,1.1c1.7,0.8,2.2,3.6,5.2,2.9c-0.8-0.6-1.7-1.2-2.8-2.1
		c7.9,0,15.3,0.6,22.5-0.2c5.8-0.7,11.6-1.3,17.4-1.4c8.6-0.1,17.3-0.4,25.9-0.5c0.9,0,1.8,0,2.6,0
		C338.4,553.2,327.6,551.2,317.1,552.3z"/>
	<path d="M347.2,554.4c-4.8,0.5-9.6,1.1-14.4,1.7c-6.3,0.8-12.7,1.6-19,2.4l0,0c-0.7,0.1-1.4,0.2-2.3,0.3c0.9,0.1,1.6,0.2,2.3,0.3
		l0,0c-2.8,0.3-5.6,1-8.4,0.9c-15.1-0.2-30.3-0.7-43.4-1C289.1,557.4,318.2,555.9,347.2,554.4L347.2,554.4z"/>
	<path d="M342.1,559.4c-25,5.7-51,4.4-77.1,1.8C291,562.3,316.9,562,342.1,559.4z"/>
	<path d="M347.4,544.5c-11.8,1.8-23.4,4.4-35.4,4.4c-0.1-0.3-0.1-0.7-0.2-1c3.2-0.6,6.4-1.6,9.6-1.8
		C330.1,545.3,338.7,544.9,347.4,544.5z"/>
	<path d="M246.2,541.9c4.7,0,9.5,0,14.5,0c0,1,0,1.8,0,3.1c1.4-0.5,2.5-1,3.6-1.4c0.5,0.6,1.1,1.3,1.9,2.3c-0.9,2.1-3.1,1.3-4.8,1.1
		c-4.1-0.4-8.1-1.2-12.2-1.7c-2.3-0.3-4.6-0.4-6.2-0.5c4.2-0.2,9-0.4,13.9-0.6c0-0.3,0-0.7,0.1-1
		C253.3,542.8,249.7,542.4,246.2,541.9z"/>
	<path d="M348.2,540.6c-7.1,0-13.9,3-20.8,1.1c-0.1-0.3-0.2-0.7-0.3-1c1-0.3,2-0.9,3-0.8C336,540,341.9,540.3,348.2,540.6z"/>
	<path d="M256.2,536.3c1.4,0.7,2.3,1.1,3.3,1.7c-0.3,2-1.4,2.5-3.4,2.2c-5.1-0.8-10.3-1.4-14.7-2C245.9,537,251.8,540.6,256.2,536.3
		z"/>
	<path d="M338.6,529.2c5.1,0.5,10.2,1,15.3,1.5c0,0.1,0,0.2,0.1,0.4c-5.9,0.3-11.9,0.6-17.8,1c-0.1-0.3-0.2-0.7-0.3-1
		C336.8,530.4,337.8,529.8,338.6,529.2C338.7,529.2,338.6,529.2,338.6,529.2z"/>
	<path d="M329.6,537.4c0.7-0.3,1.4-0.9,2.1-0.9c5.9-0.1,11.9,0,17.8,0c0,0.3,0,0.5,0,0.8c-6.5,0.5-13.1,1-19.6,1.5
		C329.8,538.3,329.7,537.8,329.6,537.4z"/>
	<path d="M355.5,533.7c-7.6,0.4-15.1,0.9-22.7,1.3c0-0.4-0.1-0.9-0.1-1.3c1.1-0.2,2.3-0.6,3.4-0.6c6.5-0.1,12.9,0,19.4,0
		C355.5,533.3,355.5,533.5,355.5,533.7z"/>
	<path d="M244,535.5c3.3,0.5,6.8-1.4,9.7,1.7C250.5,536.7,247.2,536.1,244,535.5z"/>
	<path d="M252.7,532.4c-3-0.2-6-0.5-9-0.7c0-0.3,0-0.5,0.1-0.8C246.8,531.1,250.1,529.3,252.7,532.4L252.7,532.4z"/>
	<path d="M329.9,543.4c-1.9,0.4-3.8,0.8-5.6,1.1c-0.1-0.3-0.1-0.6-0.2-0.9c1.9-0.3,3.7-0.6,5.6-0.9
		C329.8,543,329.8,543.2,329.9,543.4z"/>
	<path d="M52.6,511.2c1.1,0,2.1,0,3.2,0c0,0,0,0,0,0.1C54.7,511.3,53.6,511.3,52.6,511.2C52.6,511.3,52.6,511.3,52.6,511.2z"/>
	<path d="M63.2,515.7c0.7,0,1.4,0,2,0c0,0,0,0,0,0c-0.7,0-1.4,0-2.2,0C63.1,515.7,63.1,515.7,63.2,515.7z"/>
</g>
</svg>
