<?xml version="1.0" encoding="utf-8"?>
<!-- Generator: Adobe Illustrator 24.2.3, SVG Export Plug-In . SVG Version: 6.00 Build 0)  -->
<svg version="1.1" id="Layer_1" xmlns="http://www.w3.org/2000/svg" xmlns:xlink="http://www.w3.org/1999/xlink" x="0px" y="0px"
	 viewBox="0 0 595.3 841.9" style="enable-background:new 0 0 595.3 841.9; fill: #215342;" xml:space="preserve"
	 height="350" width="450" transform="translate(-125, -33)">
<g>
	<path d="M438.4,498.2c1.7,6,0.9,12-0.9,17.7c-0.9,3-0.4,4.5,2.7,5.5c13.4,4.2,10.6,3.9,13.7-7.3c2.6-9.3,3.8-18.8,4.4-28.4
		c0,5.1,0,10.1,0,15.2c0.2,0,0.4,0.1,0.7,0.1c1.2-7.6,2.3-15.3,3.6-23.7c1,13.8-1.1,26.3-5,38.7c-1.1,3.4-0.9,6.6,2.3,9.6
		c1-5.7,2.3-10.8,4.6-15.5c1.1-2.2,2.4-4.4,4.1-6.2c1.7-1.8,3.9-3.2,6.7-2c2.8,1.2,3.2,3.5,3.2,6.2c0.2,6.5-1.7,12.7-1.9,19.2
		c5.8-14.1,8.8-28.9,10.8-43.9c3.3,15.1-0.3,29.2-6.8,42.8c8,3.7,18.5-0.1,21.8-7.9c5-11.7,6.6-23.9,6-36.5
		c3.7,11.6,2.3,23-1.6,35.2c3.2-2.8,4.7-8.4,8.6-5.7c5,3.6,0.1,9,0.4,13.6c5.3,0.3,9.5-3.5,10.1-9.3c1.9-19.2-4-36.1-15.2-51.2
		c-11.9-16-28.5-24.2-48.2-25.9c-17.7-1.6-34.9,11.2-42.5,30.7c-2.9,7.5-4.4,15.4-5.6,23.8c-6.7-20.8,8.2-44.3,35.7-56.4
		c-5.4-9.6-12.9-17.2-22.9-24.2c6.8,0.7,11.4,3.5,17.1,5.4c-2.3-3.5-5.3-4.9-8.2-7.4c1.4,0.1,2.3,0.2,4,0.3c-2.2-1.7-3.9-3-5.5-4.3
		c0.1-0.2,0.2-0.4,0.3-0.7c2.4,0.9,4.8,1.7,8.5,3c-2.4-2.1-3.8-3.3-5.5-4.7c3.4-1.4,6.2,0.6,10.1,0.4c-9.3-7.5-15.8-16.8-25.8-24.3
		c4.3,0,7.4,0,10.5,0c0-0.3,0.1-0.6,0.1-1c-6.2-1.7-12.3-3.4-19-5.2c9.6-4.7,22.6,0.5,28.9,11.6c-4.8-1.2-9-2.2-13.1-3.3
		c4.6,3,9.3,5.6,13.9,10c-1.7-0.5-2.5-0.8-3.1-0.9c2.4,6.8,8.6,10.8,12.7,17c-3.4,0.7-5.6-1.6-9.1-1.7c3.5,2.8,6.4,5.1,9.7,7.7
		c-3.5,1.1-6-0.8-9.8-1.6c4.8,4.9,9.2,8.8,12.1,15.2c-4-2.2-7.1-3.9-10.9-5.9c2.7,4.7,5.1,8.9,7.6,12.9c0.9,1.4,2.5,0.8,3.8,0.7
		c39.4-2,73.3,29.3,74.4,68.8c0.2,5.5-0.5,10.8-3.8,16.3c20.3,0,39.9-0.2,59.6,2.1c-1.1,0.1-2.2,0.1-3.2,0.2
		c-18.4,0.3-36.8,0.7-55.2,1c-1.8,0-3.3,0.3-4.6,1.7c-3.5,4.1-9.7,2.7-13.5,6.7c-1.2,1.2-3.4-0.3-4.3-2.1c-0.8-1.6-1.5-3.2-2.2-4.8
		c-9.3,6.9-19.2,5.9-29.3,2.9c-0.6-0.2-1-0.6-1.7-0.2c-7.8,4-11.8,3.4-17.5-2.6c-1.8,2.5-4.4,3.1-7.2,2.4c-32.1-7.6-64.6-2.5-97-3.8
		c-1.9-0.1-3.8,0.3-5.7,0.6c-10.1,1.6-16.6,9-20.6,16.8c-8,15.6-21.5,19.2-36.6,20.3c-15.6,1.1-29.2-2.6-39.5-16.2
		c-11.4-15.1-26.8-23.1-46.8-21.7c-19.2,1.3-38.6,0.2-57.9,0.9c-5.7,0.2-11.3,3.2-17.1,3.9c-4.1,0.5-8,1.1-12,2.4
		c-3.7,1.2-7.5,0.6-9.6-3.5c-7.2,3.8-14.6,4.5-22.2,3.7c-3-0.3-5.2-2-6.7-4.6c-1.7-3.1-3.7-2.9-5.3-0.1c-2.7,4.7-5.3,4.1-9.2,1.1
		c-4.2-3.1-9.8-3.4-14.9-3.7c-11.2-0.6-22.4-0.2-33.6-0.9c11.5-2,23.2-2.4,34.9-2.4c-9.2-21.3-3.7-40.1,9.1-57.3
		c12.6-16.9,29.1-28.7,50.7-30c7.4-0.5,12.2-1.7,15-8.5c0.4-1,1.4-1.8,3.3-4.1c-4.5,2.7-7.5,4.4-11.3,6.6
		c2.8-7.2,7.6-11.7,11.8-16.6c0.7-0.5,1.4-0.9,2.1-1.4c2.3-1.3,4.6-2.6,6.9-3.9c0.2,0.2,0.3,0.5,0.5,0.7c-3.7,3.4-7.5,6.8-11.9,10.8
		c4.6-0.7,8.1-1.2,12.4-1.8c-6.3,5.9-11.8,11.3-15.8,18.5c29.9,9.4,41.5,31.6,43.7,60.8c0.2-1.4,0.3-2.8,0.5-4.4
		c3.7,5.5-0.9,19-8.9,26.5c22.5,2.3,45.6-4.7,68.1,5.1c-2.2-2-4-3.7-6.4-5.8c3.4,0.1,5.2,1.8,7.1,3.1c9,6.1,17.3,13,23.5,21.9
		c8,11.4,19.6,15.2,32.5,16.5c7.1,0.7,14.2,0.2,21.2-1.9c8.3-2.4,14.4-7.3,19-14.5c5-7.9,11.1-14.9,18.6-20.6c2-1.5,4.1-2.8,7.5-3.4
		c-2,1.6-3.5,2.8-4.9,3.9c9.3-6.2,20.6-2.1,30.9-6.5c-1.4,0.8-2.1,1.2-3.6,2.2c16.4,0,32,0,48.3,0c-9.3-9.6-9.3-20.7-7.6-32.2
		c1.7,12.5,2,25.6,15.7,32.8c0.9-4.7,1.4-9.3,3.1-13.6c1.7-4,4-6.8,8.9-6.1C438.1,497.9,438.2,498.1,438.4,498.2z M91,484.8
		c0.4,2.5,0.5,3.5,0.6,4.5c1.4,11.1,3.3,22.2,6.3,33c0.4,1.6,0.4,4.4,3.5,3.4c2.7-0.9,1.3-2.9,0.9-4.5c-0.8-3.4-1.7-6.8-2.3-10.2
		c-0.5-2.9,0-5.7,3.3-6.6c3.2-1,5.4,0.7,6.9,3.5c2.6,4.9,4.3,10.2,5.3,15.7c0.2,1.1-0.1,2.5,2.5,3.7c-0.5-16.1-6.2-31.4-2.6-48
		c2.4,14.6,4.7,28.2,6.9,41.9c0.3,1.7,0.1,4,3,3.3c4.5-1,9-2.1,13.5-3.2c1.6-0.4,2.9-1.2,2.2-3.1c-4.8-13.9-0.4-28.1-1.4-42.2
		c-0.1-1,0.1-2.1,0.3-5.1c2.1,9.1,2,16.4,2,22.7c10.1,5,6.3,14.8,9.1,22.2c5.3-4.6,10.6-8.8,10.1-16.5c-0.7-12.1-2.6-24-8.7-34.6
		c-12.3-21.3-26.7-28.9-44.6-27.3c-36.9,3.3-65.9,43.7-58.6,80.1c1,4.8,4.4,5.5,8.7,5.7c-1.2-3.8-2.3-7-2.2-10.5
		c0-2.1,0.2-4.3,2.6-5c2.5-0.7,4.2,0.6,5.2,2.7c1.9,3.9,3.6,7.9,5.4,11.9c-1.4-13.7-6-27.2-1-41.7c0.6,0.8,0.9,1,0.9,1.2
		c0.1,0.9,0.1,1.8,0.2,2.7c0.4,11.9,2.6,23.4,7.3,34.3c4.1,9.5,10.3,11.8,20.2,7.6C91.7,513.4,88.5,500.1,91,484.8z M475.3,509.2
		c-0.3-1.7,0.1-3.9-1.8-4.5c-2-0.7-3.4,1.2-4.2,2.7c-2.8,4.8-4.4,10.1-5.4,15.6c-0.3,1.8-0.7,3.7,1.7,4.5c2.3,0.7,4,0,5.1-2.1
		C473.3,520.2,474.6,514.8,475.3,509.2z M113,525.6c0.1-4.1-3.7-15-6.3-18c-0.7-0.9-1.5-1.8-2.8-1.3c-1.2,0.5-1.5,1.7-1.4,2.9
		c0.5,6.5,2.6,12.6,6.2,18.1c0.7,1.1,1.7,1.5,2.9,1.2C113.1,527.9,113,526.7,113,525.6z M148.5,513.4c-0.6-4.2-1.2-8.8-2.1-13.5
		c-0.3-1.4-1.2-3-3-2.7c-1.5,0.3-2,1.9-1.9,3.2c0.1,6,1.2,11.9,3,17.7c0.3,0.8,0.7,1.9,1.9,1.5c0.6-0.2,1.3-1,1.5-1.6
		C148.1,516.7,148.2,515.4,148.5,513.4z M431.3,520.8c3.6-3.9,5.9-16.9,3.7-20.2C430.3,503.6,427.8,516.4,431.3,520.8z M67.6,527.7
		c-1.5-6.8-3.4-12.7-7.3-18.3C57.5,514.7,61.7,525.6,67.6,527.7z M514.3,513.7c-4.4,4.1-6.5,8.2-6.8,13.2c0,0.8,0.9,1.7,1.6,2.4
		c0.2,0.2,1.4-0.2,1.7-0.6C513.6,524.5,514.6,519.8,514.3,513.7z"/>
	<path d="M377.7,482c0.8-3.5,1.5-7,0.7-10.7c-0.5-2.2-1.6-4.2-3.9-4.8c-2.4-0.6-3.9,1.1-5,2.7c-7.1,10.1-13,21.1-21.2,30.4
		c-4.2,4.7-8.6,9.4-13.3,13.6c-7.8,6.8-14.8,14.1-19.3,23.5c-6.3,13.4-19.7,15.4-35.6,14.4c-12.8-0.9-22.2-6.7-28.2-18.3
		c-3.4-6.7-9.2-11.5-14.8-16.3c-13.8-11.9-23.1-27.2-32.8-42.4c-1.6-2.5-3.2-7.4-6.9-5.4c-3.5,1.9-0.8,6.1,0.1,9.3
		c0.1,0.4,0.3,0.8,0.7,2c-4.2-4.2-5.6-8.7-4.6-13.7c1.1-5.6,7.4-6.9,12-2.5c5,4.8,8.5,10.9,12.3,16.6c13.3,19.6,38.7,20.6,54.6,14.5
		c5.6-2.1,9.6-6.3,12.1-11.8c1-2.1,0.5-3-1.9-3.4c-5.8-0.8-11.4-2.3-16.5-5c-5.2-2.8-8.8-6.9-8.2-13.3c0.2-1.8-0.8-2.9-1.8-4.1
		c-6.5-7.5-5.5-17.7,3.2-22.4c16.2-8.8,33.1-8.7,49.6-0.9c8.5,4,9.8,14.5,3.6,22.5c-1.2,1.6-1.6,2.9-1.2,4.8c0.9,5.1-0.9,9.1-5.3,12
		c-5.3,3.5-11.3,5.4-17.4,6.4c-3.4,0.6-3.2,2.1-2,4.4c4.5,8.6,12.6,11.5,21.5,13.1c18.7,3.4,32.4-4.1,43-18.9
		c3.2-4.4,6.6-8.7,10.3-12.7c5.6-6,12.4-7.5,16.9-4.2c4.1,3,4.6,10.4,1.1,17.3C379,479.8,378.4,480.9,377.7,482z M286.4,541.8
		c0-0.1,0-0.3,0.1-0.4c0.9,0,1.8,0.1,2.7,0c7.4-1.3,16-0.3,19.3-9.6c2-5.4,2.3-11.1,1.2-16.7c-0.3-1.3-0.4-3.3-2.3-3.3
		c-1.7,0-2.2,1.7-2.7,3.1c-1.8,5.7-4,11.3-7.3,16.4c-5.8,8.9-14.7,9.9-22.4,2.6c-5.7-5.4-8.4-12.2-10-19.6c-0.2-1.1-0.5-2.4-1.9-2.4
		c-0.6,0-1.3,0.8-1.7,1.4c-4.5,8.4,2.1,24.1,11.2,26.3C277.2,540.7,281.8,541.1,286.4,541.8z M257.6,442.2
		c17.4-5.2,34.6-5.9,52.7-1.4C302.2,429,264,430.5,257.6,442.2z M273,524.1c0.1,3.9,6.6,10.7,10.3,10.6c2.1,0,2.9-1.4,3.5-3.1
		c0.8-1.9-1-2-1.6-2.9C282.2,524.3,277.5,524.7,273,524.1z M279.2,448.2c0.5,4.1,0.5,8.1-2.2,11.6c-2.6,3.4-6.4,4.5-12.3,5.3
		c7.2,1.2,11.5-0.6,14.6-4.9C282.2,456.3,281.4,452.2,279.2,448.2z M292.9,532.7c-0.3-3.7-0.5-7.4-0.8-11.1c0-0.2-1.1-0.7-1.3-0.5
		c-0.5,0.4-0.9,1-1,1.6C289,526.3,290.4,529.5,292.9,532.7z M292.2,461.6c3.5,3.9,7.7,4.4,12.3,2.5
		C300.1,464.8,296.2,462.8,292.2,461.6z M283.6,524c-0.2-4.1-6.3-7.1-10.3-5.4C276.3,521.2,281.6,519.2,283.6,524z"/>
	<path d="M424.2,292.7c-0.6,1.6-1.2,3.3-2.2,5.9c-0.6-4.4,1.8-7.7,0.4-12c-1.1,3.4-2,6-2.8,8.6c0.4-7.5-1.3-14.6-3.5-21.6
		c-3.4-11.2-8.7-13.3-18.8-7.4c-9.3,5.4-17.1,12.6-23.6,21.3c-1.1,1.5-2.4,2.9-4.8,5.9c2.7-5.8,5.8-9,6.6-12.4
		c-8.4,7.7-17.4,15.9-26.2,24c-1.5-1.9-2.3,0.9-3.2,2.1c-1.1,1.5-2,3.2-3.9,6.6c1.4-4.9,2.2-8,3.2-11.6c-4.9,2.2-5.7,7.4-9.7,10.8
		c1.5-5.4,4.6-9.5,3.9-15.2c-1.3,1.9-2.3,3.4-3.3,4.8c1.4-4.2,2.8-8.3,2.1-13.9c4.2,4,3.7,8.1,4.3,12.9c3.1-5.2,5.7-9.8,8.6-14.7
		c1.1,3.6-0.8,6.5-0.9,10.7c3.7-5.1,6.8-9.3,10.5-14.4c0.2,2.4,0.4,3.7,0.5,5.4c6.2-6.1,12.2-12.1,18-17.9c1.7,0,1.1,1.7,2.1,2.3
		c2.4-2.1,4.8-4.4,7.4-6.4c3.3-2.4,6.5-4.9,10.2-6.8c7.6-3.8,12.8-2,16.9,5.5c1,1.9,1.8,3.8,2.8,5.8c1.3-1.4-0.3-2.7,0.2-4.4
		c0.5,0.9,1.2,1.5,1.2,2.1c0.1,10.6,6.2,19.6,7.5,30c0.8,6.4,2.9,12.6,6.1,18.6c2.5,4.8,0.6,10.5-0.2,15.7
		c-0.7,4.6-1.7,9.1-3.8,13.9c2.6-0.6,4.5-1.1,6.7-1.6c-1.7,5.2-7,11.8-14.3,18c3.6,1.9,7.2,1.3,10.8,0.8c-2.6,5.6-9.2,8.4-16.9,7.1
		c4-0.2,7.7-1.7,11.5-3.8c-3.5-1.6-7.7-0.1-10.7-3.1c3-2.6,6.6-4.2,9.3-8.1c-3,0-5.6,0-8.1,0c5-1.1,9.9-1.5,13.1-6.9
		c-4.4,1.5-8.4,1.7-13,0.6c12.3,0.9,11.1-8.8,13-15.9c0.8-2.9,0.8-5.9,1.4-10.7c-1.5,2.5-2,3.3-3.2,5.3c1.3-5.7,2.5-10.4,0.3-15.3
		c-0.8,3.3-1.5,6.2-2.2,9.2C429.9,312,424.3,302.6,424.2,292.7z"/>
	<path d="M197.1,270c3.8,6.4,7.5,12.8,11.4,19.4c1.5-1.9-0.3-4.4,2.4-6.3c2.5,5,5,9.8,8,15.9c0.2-4.4,0.4-7.4,0.6-12
		c3.4,7.3,5.4,13.7,9.6,19.2c1.3-5.7,4.1-10.3,7.6-15c1.3,4.2-0.8,8.5,2.8,12c-0.2-2.5-0.3-4.5-0.5-6.6c4.7,8.6,13.9,6.1,20.8,8.6
		c4.9,1.8,9.9,3.2,14.7,5.1c5.8,2.3,11.5,2,17-0.2c9.5-3.8,19.1-7,29.5-7.2c5.1-0.1,7.6-3.5,9.5-7.6c0.6-1.3,1.1-2.6,1.7-4
		c5,3.8,3.7,11.7-2.2,14.7c0.7-3.1,3.4-5.5,2.8-9.4c-6.7,11.9-20.2,10.5-30,15.9c1.3-0.9,2.6-1.7,3.9-2.6c1.4-0.9,2.9-1.7,4.7-2.7
		c-11.2,0-26.4,10.6-28.2,20.6c0-4,0-6.5,0-8c-5.3-3.3-9.7-6.6-14.9-8.4c-5.3-1.8-10.5-3.9-16.1-5c2.3,1.7,4.6,3.4,6.9,5.2
		c-6.2-3-12.8-4.9-18.1-9.4c-1.5,1.9,0.3,3.2,0.1,5c-3.3-1.6-4.4-4.8-6.4-7.5c0.8,4,1.7,8,2.8,13.2c-3.6-4-3.4-8.1-4.6-12.3
		c-2.3,3.4-1,7-2.6,10.3c-3.2-2.6-3.8-6.4-6.2-9.7c-0.7,4.2,1.4,8-0.6,12.5c-2.1-9-9.2-14.5-12.1-22.4c0.5,3.1,0.9,6.2,1.6,11.3
		C205.9,291.3,199.8,281.4,197.1,270z"/>
	<path d="M391.3,348.8c0.7,0.9,2.5,0.5,2.2,2.2c-0.9,1.4-2.1-0.5-3.5,0.7c4.5,2,8.2,4.8,11.1,8.7c-1.6-0.8-3.3-1.7-6-3.1
		c7.2,8.3,14.5,14.9,19.5,25.3c-8.8-8.6-16.5-16.1-25.3-22.6c2.1,0.6,4.2,1.2,7.2,2.1c-4.6-4.6-9.3-7.4-13.7-8.3
		c-3.5-4.7-8.6-2.8-12.2-5.2c6.2-1.9,13,3.2,18.3-2.2c-4-0.7-8.1-1.4-12.9-2.2c5.6-1,9.9-3,13.4-7.4c-3.2,0.3-5.9,0.4-8.7-1.1
		c5.2-2.9,9.9-6.1,13.6-11.6c-3.7,0.9-6.7,1.6-10.1,2.5c-0.7-8.2,7.8-9.4,10.6-15.4c-4,2.3-7.9,2.9-13,3.1c11-4.8,16-14,22.6-22
		c-1.4,2.6-2.6,5.2-4.2,7.7c-1.6,2.6-3.6,4.9-5.7,7.7c4-0.9,5.9-4.5,10.7-6.5c-5.7,8.4-10.9,15.2-18.4,22.5
		c5.5-2.1,9.5-3.6,14.6-5.6c-2.3,5.9-6.5,8.9-9.9,13.9c2.7-1.5,4.6-2.4,7.2-3.9c-1.8,6.2-5.3,10.1-9.4,13.7c2.1,1.2,5.5-0.4,6.1,2.3
		C396.1,346.4,392.9,347.1,391.3,348.8z"/>
	<path d="M144.7,330.4c-1.2-1.9-2.4-3.9-3.5-5.8c2.1,8.8,3.9,17.7,7.9,26.3c-7.6-3.2-14.3-24.3-10.6-33c0.7,0.9,1.3,1.7,1.6,2.1
		c1-13.2,5.2-25.7,10.4-37.9c1.2-2.9,1.2-6.4,1.9-9.6c0.7-3.1,1.5-6.1,3.9-9.3c-0.2,1.5-0.2,2.4-0.4,4.3c14-23.6,23.2-7.9,33.2,3.4
		c0.2-2,0.4-3.7,0.7-6.3c6,7.4,3,16.7,7.1,23.8c-1.2-1.9-2.6-3.7-3.7-5.6c-3.8-6.6-8-12.9-13.4-18.3c-7.4-7.4-14.7-6.3-19.9,2.7
		c-2.3,4-3.4,8.4-4.9,12.6c-1.5,4.3-1.6,8.8-1.6,15.2c-1.2-4.3-1.9-6.7-2.7-9.5c-2.3,3.7,0,6.6,0.9,11.5c-1.5-2.9-2.2-4.3-3.5-6.8
		c-0.8,9.9-1.5,18.7-2.2,27.6c-2.6-3.1-1.2-7.1-1.9-12.6C141.1,314.8,142.8,322.5,144.7,330.4z"/>
	<path d="M240.7,395.4c-4.2-2.9-8.8-2.6-13.2-0.4c-3.4,1.6-6.4,4-8.6,7c-1.7,2.3-3.9,3.4-6.7,4c-10.9,2.7-20.4,7.8-29.1,17.7
		c9.1-6.9,17.5-11.6,26.9-14c8.4-2.2,16.4,0.2,24.5,2.1c0.4,0.1,0.7,0.3,0.9,0.5c2.1,2.1,5.2,2.8,7.8,1.3c1.9-1.1,3.3-2.5,3.6-5
		C247.5,403.2,245.2,398.6,240.7,395.4z M236,406c-3.2,0-3.2-5,0-5C239.2,401,239.2,406,236,406z"/>
	<path d="M380.6,414.3c-12.4-9.8-29.3-10.3-41.8-19.9c-0.6-0.4-1.5-0.4-2.3-0.5c-8.9-1.5-17.8,7.9-15.1,16c0.6,1.8,2.5,4.2,3.6,3.1
		c2.7-3.1,6.2-2.2,9.3-2.8c7.5-1.6,15-4.1,22.8-2.9c13.3,2,23.8,9.5,33.8,17.8C388.1,420.9,384.6,417.4,380.6,414.3z M330.8,405
		c-3.2,0-3.2-5,0-5C334,400.1,334,405,330.8,405z"/>
	<path d="M185.6,321.2c-5-3-9.9-5.3-13.5-10.6c8.2,2.2,15.5,4.1,22.7,6c0,0.2,0,0.4-0.1,0.6c-3.2-0.2-6.3-0.5-10.1-0.8
		c2.7,3.2,7.1,3,9.3,6.3c-3.9,2.7-7.9-0.1-12.4,0.7c4.9,3.8,10,5.8,15.7,8.4c-5.4,2.9-10.1,0.3-14.7,0.4c2.2,4.3,8.2,6.3,19,6
		c-3.4,2.3-7.1,1.7-11.4,3.3c5.1,0.8,9.1,1.4,13.7,2.1c-12,4.5-21.9,11.7-33.4,17.8c4.7-6.1,10.8-9.2,16.7-12.5
		c-1.2-1.3-3.8-0.8-3.7-3c0.1-1.7,2.1-1.1,2.7-1.4c-1.7-6.2-8.1-9.1-9.7-16.1c4.5,0.8,8.5,1.6,12.6,2.3c0.1-0.2,0.1-0.3,0.2-0.5
		c-2.8-1-5.8-1.8-8.5-3c-2.8-1.2-5.6-2.6-6.2-6.5C178.1,319.6,181.5,321.5,185.6,321.2z"/>
	<path d="M407.8,418.1c4.8,7.7,9.4,15.4,11,24.4c-6.1-12.2-12-24.5-25-33.4c5.8,0.8,8.7,3.8,12.9,6c-3.6-6-8.7-8.7-15.5-12.4
		c6.9,0.5,10.9,3.1,14.7,6.2c-4.8-7.6-10.7-14.1-17.9-20.1c10.2,2.6,23.6,20.2,26.9,34.9C411.8,422.7,410.2,419.9,407.8,418.1z"/>
	<path d="M130.7,387.6c4.1-7,10.5-10.9,18.1-14.3c-3.7-3-7.6-5.7-9.9-10c3.8-0.6,7.5,0.5,11.2-1.3c-6.9-3.9-11.4-9.7-15.8-17.7
		c6.8,4.2,12,8.2,17.8,11.7c-2.8-0.7-5.5-1.4-8.8-2.2c2.8,4.4,7.5,5.7,11.2,8.7c-3.5,2.2-7.1,2.1-11.3,2.4c3.2,4.3,7.4,6.6,11.6,9.2
		c-5.2,2.1-10.8,2.8-15.5,7.1c3.5-0.4,6.4-0.8,9.4-1.1C142.8,382.9,136.5,384.3,130.7,387.6z"/>
	<path d="M161.1,409.1c3.7,1.4,7.2-0.7,10.7-1c1.3-0.1,2.6-0.4,6-0.9c-6.3,4.6-11.1,8.1-17.2,12.5c5.3-0.9,8.9-1.5,12.6-2.1
		c0.2,0.4,0.4,0.8,0.5,1.1c-6.2,5.4-12.4,10.8-20,17.3c4.2-6.8,9.1-10.6,14.1-15.2c-5-0.1-9,1.4-13.6,1.9c4.6-3.7,9.2-7.4,14.4-11.7
		c-4.1,0-7.5,0-12.5,0C158.9,410.1,160,409.6,161.1,409.1L161.1,409.1z"/>
	<path d="M194.9,312.2c-6.6-0.1-13.4-0.5-18.8-5.9c1.3-1.3,2.2,0.4,3.5,0c-7.4-9.1-13.3-18.9-15.6-31.4
		C171.8,290.3,178.2,305.7,194.9,312.2z"/>
	<path d="M178.9,370.5c-12.5,10.8-24.8,21.8-34.8,35C151.7,389.9,163.4,378.3,178.9,370.5z"/>
	<path d="M395,373.5c15.9,6.2,23.5,18.6,31.3,30.8C417.3,393.2,406.9,383.5,395,373.5z"/>
	<path d="M303.4,406.3c-14.2-3.5-28.2-2.3-42.1-0.4C269.3,399.8,297.8,399.8,303.4,406.3z"/>
	<path d="M185.6,357.7c-8.5,6.8-17,13.6-25.5,20.4C166.2,368.4,173.8,360.6,185.6,357.7z"/>
	<path d="M250.8,418.5c-13.3,3.3-25.6,7.9-31.7,22.7C220,428,234.5,417.9,250.8,418.5z"/>
	<path d="M317.8,417.7c14.9-1.1,28.9,4.8,32.9,19.7C343.8,423.9,331.4,419.7,317.8,417.7z"/>
	<path d="M133.6,397.8c-1.8,2.6-5.4,3.2-6.9,6.3c1.9,0,3.6,0,6.6,0c-5.1,3.8-9.7,5.1-15.2,5.1C120.6,401.4,127.3,399.9,133.6,397.8z
		"/>
	<path d="M235.7,387.9c2.5-1.8,4.9-0.8,8.3,0c-3.7-3.3-7.1-4.1-11-4.2c7.7-3.5,16.1,3.8,16.2,14.2c-2-2.4-3.8-4.6-5.7-6.6
		C241.4,389.1,238.5,388.7,235.7,387.9z"/>
	<path d="M151.6,449.4c2.7-12.2,15.5-24.4,25.6-24.2C165,430,158.3,438.7,151.6,449.4z"/>
	<path d="M224.4,377.4c6.2-4.6,11.2-6.7,17-4.6c3.2,1.2,4.7,3.8,6.1,8.6C240.7,372.7,233.4,374.6,224.4,377.4z"/>
	<path d="M321.2,376.7c0.3-4.1,2.7-6.2,5.7-7.2c4.8-1.5,8.8,0.7,13.4,4.8C332.8,371.7,326.4,370.1,321.2,376.7z"/>
	<path d="M438.4,498.2c-0.1-0.1-0.3-0.3-0.4-0.4c-1.8-8.2-0.7-16.3,1.9-24.3C439.4,481.7,438.9,490,438.4,498.2z"/>
	<path d="M161.2,409.2c6.7-5.6,13.3-11.1,20-16.7C175.8,399.6,169.9,406.1,161.2,409.2C161.1,409.1,161.2,409.2,161.2,409.2z"/>
	<path d="M180.3,388.9c2.2-10.6,6.3-18.6,14.3-24.4c-2.9,3.4-6.2,6.6-8.2,10.7C184.4,379.3,182.6,383.6,180.3,388.9z"/>
	<path d="M129.3,398.7c1.4-6.4,6.7-8.5,11.8-10.9C137.1,391.5,133.2,395.1,129.3,398.7z"/>
	<path d="M376.1,368.8c7.2,4.1,12.3,10.1,15.3,18C387,380.1,382.4,373.7,376.1,368.8z"/>
	<path d="M316.6,379.1c0.9-9.1,6.6-13.3,14.7-11.5C323.3,366.8,320.1,372.4,316.6,379.1z"/>
	<path d="M330.6,383.1c-5.4,2.1-9.3,5.7-11.3,12.4C318.7,388.5,323.7,383.3,330.6,383.1z"/>
	<path d="M268,424.2c8.5-2.2,15.4-2.2,22.5-1.2C283.5,423.3,276.6,423.7,268,424.2z"/>
	<path d="M128.7,409.7c-0.7,0.5-1.4,0.9-2.1,1.4c-2.9,0.6-5,3.6-10,2.8C121.4,411.6,124.2,408.3,128.7,409.7z"/>
	<path d="M320.2,398.3c1.2-5.8,3.3-9,9.8-10.8C325.7,391.2,322.8,393.7,320.2,398.3z"/>
</g>
</svg>
