<?xml version="1.0" encoding="utf-8"?>
<!-- Generator: Adobe Illustrator 24.2.3, SVG Export Plug-In . SVG Version: 6.00 Build 0)  -->
<svg version="1.1" id="Layer_1" xmlns="http://www.w3.org/2000/svg" xmlns:xlink="http://www.w3.org/1999/xlink" x="0px" y="0px"
	 viewBox="0 0 595.3 841.9" style="enable-background:new 0 0 595.3 841.9; fill: #215342;" xml:space="preserve"
	 height="350" width="450" transform="translate(-135, -50)">
<g>
	<path d="M186.1,447.5c0.4-3.2,0.8-6.3,1.2-9.5c-4,6.3-6.4,13.2-6.4,20.8c-0.3,0-0.6,0-0.9,0c0-2.6-0.3-5.2,0.1-7.8
		c0.4-2.8,1.2-5.6,2.1-8.3c0.9-2.6,2.1-5,3.2-7.6c-2.6-0.8-4.9-2.1-7.4-2.2c-1.3-0.1-2.7,1.7-4.2,2.7c0.8-1.8,1.6-3.7,2.7-6.3
		c-4.2-2.1-8.7-4.3-13.2-6.6c1-0.3,2-0.6,3.7-1.1c-1.5-0.7-2.5-1.2-4.1-2c1.8,0,3,0,4.8,0c-4.9-4-9.5-7.2-13.4-11.2
		c-3.9-3.9-7-8.6-10.5-12.9c0.2-0.3,0.5-0.7,0.7-1c3,0.5,6,0.9,9.8,1.5c-3.8-3.6-7-6.6-10.1-9.6c0.2-0.4,0.5-0.7,0.7-1.1
		c2.7,0.6,5.4,1.1,8.2,1.7c-1.4-3-2.6-5.8-4.1-9c1.4,0.8,2.3,1.4,3.9,2.3c-1.5-6.5-2.9-12.3-4.4-18.2c1.6,0.6,3,1.1,4.4,1.6
		c-3.6-13.8-8.8-26.6-21.1-35.4c0.2-0.3,0.4-0.6,0.6-0.9c2.7,0.7,5.5,1.4,8.6,2.2c-0.3-1-0.4-2-0.8-2.8c-5.3-12.4-6-25.1-3.5-38.3
		c3.6-18.8,6.8-37.6,10.1-56.4c0.5-2.7,0.8-5.5,1.3-8.3c0.4-0.1,0.7-0.1,1.1-0.2c1.1,2.6,2.1,5.1,3.2,7.7c-0.1,1.6-0.6,3.3-0.3,4.8
		c0.8,4.5,1.9,8.9,2.9,13.3c0.4-0.1,0.8-0.2,1.1-0.2c-1.1-5.6-2.1-11.1-3.2-16.7c7.4,15.1,19.9,24.7,35.2,30.3
		c13.3,4.9,23.6,13.2,31.2,24.7c5.4,8.1,9.6,16.9,14,25.6c1.4,2.8,1.8,6,2.8,9c0.4,1.3,1.1,2.5,1.7,3.8c0.3-0.1,0.6-0.2,0.8-0.2
		c0-3.8,0-7.7,0-11.9c4.4,7.2,4.7,15,5.2,22.7c0.3,0,0.5,0,0.8,0c0.3-2.9,0.5-5.8,0.8-8.6c0.1,0,0.1,0,0.2,0c0,1.9,0,3.9,0,5.8
		c0.3,0.1,0.7,0.2,1,0.2c1-3.6,2-7.2,3-10.9c0.1,0,0.2,0,0.3,0c-0.3,4.4-0.6,8.8-0.9,13.3c-0.1,1.3-0.2,2.7,1.8,2.7
		c7.7,0,15,2.1,22.2,4.7c0.3,0.1,0.7,0,1.6-0.1c-4.6-4-9.4-6.1-14.7-7.6c2.4,0.2,4.8,0.4,7.2,0.6c0.1-0.2,0.3-0.4,0.4-0.7
		c-2.9-2.1-5.7-4.3-8.9-6.6c7.7-1,14.1,2.2,21.1,5.6c-3.9-6.2-10.9-12.9-22.3-12.3c6.9-3.8,15.2-2.2,25.4,4.9
		c0.8-3.5-0.6-7.8-5.7-18.9c1.9,2.6,4,5.1,5.6,7.8c1.7,2.8,2.9,5.8,4.6,9c0.9-1.4,1.7-2.7,2.5-3.9c0.2,0.1,0.3,0.1,0.5,0.2
		c-0.5,2.8-1.1,5.5-1.4,8.3c-0.3,3.4-0.3,6.9-0.3,10.3c0,0.6,0.5,1.2,0.7,1.8c0.6-0.4,1.5-0.6,1.8-1.2c2-3.2,3.9-6.5,6.1-10.4
		c-0.2,3.2-0.5,5.8-0.7,8.4c0.3,0.1,0.6,0.1,0.9,0.2c0.9-3.4,1.8-6.9,2.6-10.3c0.1,0,0.3,0,0.4,0.1c-0.3,2.1-0.7,4.3-1,6.4
		c3.9-10,4.7-20.3,3.1-31c-3,11.2-6.1,22.3-12.5,32.3c0.1-1.1,0-2.2,0.3-3.1c1.8-5.3,3.8-10.6,5.4-15.9c2.4-7.8,4.5-15.7,6.8-24
		c2.6,7.5,4,15.1,3.5,22.8c-0.5,7.6-1.9,15.2-3,23.5c6.1-7.6,13.7-11.5,22.9-12.4c-11.9,7.5-17.5,18.8-19.7,32.3
		c4.5-17.3,16.2-25.5,33.4-26.9c-2.2,0.9-4.4,1.7-6.5,2.8c-2.2,1.2-4.3,2.4-6.2,4c-2.7,2.4-5.2,5.1-7.6,7.8c-1,1.1-2.2,2.3-0.9,4.2
		c0.3,0.4-0.4,1.6-0.9,2.3c-1.9,3.2-4,6.3-5.9,9.5c-0.7,1.2-1.2,2.6-1.5,4.2c9.1-15.5,22.8-24.9,40.4-30.5c-4.9-1-15.2,3.4-23.8,9.3
		c4.6-5.2,10.6-8.4,17.1-10.2c6.4-1.7,13-2.4,20.1-3.6c-1.2-3.2-2.6-6.8-4.2-11c2.3,3.1,4.2,5.7,6.6,9c0.8-5-2-8.7-1.6-13.1
		c1.3,3.1,2.6,6.2,4.1,9.8c2.6-6.4,4.7-12.5,7.5-18.3c2.8-5.8,6.2-11.3,9.3-17c0.3,0.1,0.6,0.3,0.9,0.4c-0.3,1.3-0.7,2.6-1,3.9
		c0.2,0.1,0.5,0.3,0.7,0.4c2-2.4,4-4.7,6-7.1c10.1-12.1,22.1-21.5,36.9-27.4c10.8-4.3,21.1-9.7,28.5-19.1c3.1-3.9,5.3-8.5,7.8-12.8
		c0.7-1.2,1.3-2.6,2.3-3.8c4.4,12.5,2.7,25.5,3.7,38.2c1,12.9-0.8,25.7-4,38.3c0.3,0.1,0.6,0.2,0.8,0.2c1.1-3.1,2.3-6.2,3.4-9.4
		c0.2,0.1,0.4,0.1,0.7,0.2c-1.4,5.2-2.8,10.5-4.3,15.7c-1.1,3.6-3.1,7.1-3.3,10.7c-0.5,7.3-4.4,13.3-6.6,19.9
		c-0.2,0.7-0.4,1.5-0.6,2.3c0,0.1,0.2,0.3,0.4,0.7c1.3-0.9,2.5-1.8,4.3-3.1c-2.7,4-5.3,7.2-7.3,10.8c-2,3.6-3.4,7.5-5,11.3
		c0.3,0.2,0.6,0.3,0.9,0.5c1.4-1.1,2.9-2.2,4.6-3.6c-3.2,10.4-6.2,20.4-9.3,30.7c1.7,0,3.4,0,5.1,0c0.1,0.2,0.2,0.4,0.4,0.6
		c-2.4,2.1-4.8,4.1-7.3,6.2c0.1,0.2,0.2,0.5,0.2,0.7c4.3-0.3,8.7-1.2,13.2,1.6c-7,1.4-13.3,3.1-19.2,8.1c2.6,0.3,4.4,0.5,6.6,0.8
		c-5.7,4.7-11.1,9.1-16.8,13.7c3.6,1.5,7.8,1.4,10.9,5.3c-5.6-1.1-10.5-1.2-16,1c4.4,2.7,7.7,5.7,9.1,10.1c-2-1.6-3.7-3.4-5.8-4.6
		c-2.1-1.2-5.6-0.2-7,2.1c-0.5-0.8-0.9-1.4-1.3-2.1c-0.2,0.2-0.5,0.3-0.4,0.4c1.3,3.6-1.2,6.3-2.1,9.4c-0.3-0.5-0.7-1.2-1.1-1.9
		c-0.3,0-0.6,0-0.9,0.1c0,2-0.1,4,0,6c0.3,5.7,0.1,11.4-1.4,17c-1.5,5.3-0.5,10.5,2.3,15.1c2.4,3.9,5.3,7.5,7.9,11.2
		c-4.7-0.3-8.8-3.1-13.5-6.2c0.3,1.9,0.6,3.2,0.8,4.5c1.1,6.9,2.5,13.8,3.3,20.7c0.2,2.4-1.3,4.9,0.2,7.5c-2.9-2.9-3.8-6.5-4-10.4
		c0.2-0.9,0.6-1.8,0.4-2.6c-1-5.5-2.1-11-3.3-16.5c-0.2-1.2-0.9-2.2-1.4-3.3c-0.2,0.1-0.3,0.1-0.5,0.2c1.4,6.6,2.7,13.2,4.1,19.8
		c-0.7-1.9-1.6-3.8-2.1-5.8c-0.6-2.2-0.9-4.5-1.4-6.8c-0.4,0.1-0.7,0.1-1.1,0.2c0.5,5.1,1,10.2,1.6,15.8c-0.8-1.4-1.5-2.5-2.2-3.7
		c-1.7,2.9-1.4,4.1,0.4,6.7c0.9,1.3,0.9,3.1,1.3,4.7c1,4.3,1.9,8.6,3.1,12.8c0.4,1.3,1.5,2.4,2.8,3.3c-1.7-5.8-3.4-11.7-5.1-17.5
		c0.4-0.1,0.8-0.3,1.2-0.4c1.5,3.8,3.2,7.6,4.5,11.5c1.4,4.2,3.7,7.6,6.9,10.5c1.6,1.5,2.7,1.4,3.8-0.8c1.8-3.4,3.7-6.8,5.9-9.9
		c2.8-3.9,6.3-7,10.8-8.9c1.3-0.6,2.6-1.4,3.7-2.3c4.4-3.3,9.1-4.8,14.4-2.6c1.8,0.7,3.1,0.5,4.6-0.7c6.3-5.1,17.6-5.4,24.8,1.5
		c1.1,1.1,3,1.5,4.6,1.9c3.3,1,6.8,1.7,10.1,2.8c3.1,1.1,6.1,2.7,9.1,4c-0.3,0.5-0.9,1.1-0.7,1.3c2.2,3.2,2.9,7,7.4,9
		c8.2,3.6,11.6,11.1,12.4,19.8c0.1,1,0.1,2,0,3c-0.2,2,0.8,2.7,2.6,2.7c2.1,0,4.1,0,6.2,0.1c14.6,0.2,29.2,0.5,43.8,0.7
		c0,0.4,0,0.8,0,1.2c-8.2,0-16.5,0-24.7,0c-27.6,0.1-55.3,0.3-82.9,0.2c-23.3-0.1-46.6-0.4-69.9-0.6c-1.7,0-4.4-0.9-4,2.5
		c0.1,0.7,1,1.4,1.7,1.8c0.5,0.3,1.4,0.1,2,0.1c30.1,0.1,60.2,0.2,90.3,0.3c26.1,0,52.3,0,78.5,0.5c-45.7,0.9-91.4,1.9-137.1,2.8
		c0,0.5,0,1,0,1.4c15.7,0.3,31.5,0.7,47.2,1c0,0.2,0,0.4,0,0.6c-16.9,0-33.8,0-50.7,0c-9.8,0-19.5,0.1-29.3,0c-2.3,0-3.4,0.7-3.7,3
		c-0.3,2.6-1.2,5.2-1.8,7.8c-0.3,0-0.6,0-0.9,0c-1.5-3-2.9-6-4.4-9c-0.3,0-0.5,0-0.8,0c-2.4,12.9-5.3,25.5-15.5,34.6
		c-0.3-0.1-0.6-0.1-0.9-0.2c0.2-2.2,0.6-4.4,0.5-6.6c-0.2-3.8-0.6-7.6-1.1-11.4c0-0.3-1.3-0.8-1.8-0.6c-0.6,0.2-1,1-1.4,1.4
		c-0.1-1.4-0.2-2.9-0.3-4.4c-1.5,0.8-3,1.5-4.5,2.3c0.5-2.6,0.1-4.3-3.4-3.1c-0.5,0.2-1.4-0.9-2.1-1.4c-1.6-1.1-3.3-2.2-4.9-3.3
		c-0.2,0.3-0.5,0.6-0.7,0.9c1.6,1.1,3.2,2.3,4.8,3.4c-0.3,0.4-0.6,0.8-0.8,1.2c-1.4-0.1-2.7-0.2-4.1-0.3c-0.2,0.2-0.5,0.5-0.7,0.7
		c5.8,4.3,12,8.2,12.8,15.8c-2.8-1.9-5.5-4-8.5-5.6c-4.6-2.4-5.9-2-8.8,2.3c-3.2,4.8-7.6,8.3-12.5,11.1c-3.2,1.8-3.8,1.6-5.2-2.6
		c-2.4,3.5-4.6,6.7-6.9,10.1c0-0.8-0.1-1.4-0.1-2.5c-3.1,2.2-5.9,4.2-8.7,6.2c-0.1-0.1-0.3-0.2-0.4-0.3c0.7-1.5,1.4-2.9,2.1-4.4
		c-0.2-0.2-0.4-0.3-0.6-0.5c-2,1.5-4,2.9-6.4,4.6c0-2.6-1.5-5,1.6-6.4c0,0,0.1,0,0.1,0c4.1-2.3,5.3-6.4,6.7-10.4
		c-0.3-0.2-0.6-0.3-0.8-0.5c-1.2,2.2-2.5,4.3-3.7,6.5c-0.1-0.7-0.3-1.4-0.5-2.7c-1.9,1.9-3.4,3.6-5,5.2c0.1-0.9,0.2-1.9,0.3-3.3
		c-1.6,1.1-2.8,1.8-4,2.7c-1.2,0.8-2.3,1.7-3.1,2.3c0.1-0.9,0.2-2.5,0.2-4.1c-2.4,3.8-2.4,9.8-0.5,13.4c1-1.5,2-2.8,2.8-4.2
		c1.4-2.2,2.8-4.5,4.1-6.7c-0.5,4.8-3.3,8.4-6.1,12c-3.9,5.1-3.9,5.1-8.8,0.9c-1-0.9-2-1.9-3.1-2.7c-0.7-0.5-1.7-0.8-2.5-1.2
		c-0.2,0.8-0.4,1.6-0.8,3.1c-2.3-1.4-4.4-2.6-6.4-4.1c-2-1.4-1.9-1.5-4.6-1.5c-0.3,0-0.5-0.8-0.8-0.8c-0.5-0.1-1,0.2-2,0.4
		c-1.6-3-3.7-6.9-5.8-10.7c-0.2,0.1-0.4,0.2-0.7,0.2c-0.1,1.5-0.2,3-0.3,4.9c-5.9-2.8-12-4.5-16.4-9.3c-0.4-0.5-1.3-0.5-2-0.8
		c-0.2,0.3-0.4,0.6-0.6,0.9c-1.7-3.6-3.5-7-4.9-10.7c-0.9-2.2-2.1-2.4-3.8-1.3c-3.2,1.9-6.4,3.9-9.6,5.9c-1.2,0.7-2.3,1.5-4,1.9
		c1.4-2.6,2.8-5.1,4-7.7c0.9-1.8,2.2-3.9-1.6-3.9c-0.3,0-1.1-1.4-0.9-1.8c0.7-1.9,1.6-3.8,2.6-5.6c0.6-1.1,1.4-2.1,1.7-3.4
		c-4.4,2.1-6.6,5.9-8.4,10.3c0.1-0.9,0.1-1.9,0.3-2.8c1.3-5.7,5.3-9.5,9.4-13.3c5.1-4.7,10.1-9.7,15-14.6c0.9-0.9,1.4-2,1.9-3.4
		c-8.1,1.1-13.4,6.5-18.9,11.5c0.2,0.3,0.3,0.5,0.5,0.8c4.5-3.1,8.9-6.1,13.4-9.2c0.1,0.1,0.2,0.2,0.3,0.3c-2,2.1-3.9,4.2-5.9,6.2
		c-2.1,2.1-4.4,4-6.5,6.1c-2.9,2.9-6,5.7-8.6,8.9c-5,6.1-5.3,13.1-3.6,20.5c0.2,0.8,0.5,1.7,0.9,3.3c-6.2-4.3-9.5-9.7-10.8-16
		c-1.3-6-1.4-12.3-2.1-18.6c-3.7,7.2-6.2,15-8.9,23.1c-0.4-0.9-1.1-1.8-1.2-2.7c-0.9-5.1-1.9-10.2-2.5-15.4c-0.4-3.8-0.3-4-4.1-4
		c-9.3-0.1-18.6,0-27.8-0.1c-34.9-0.6-69.9-1.2-104.8-1.9c-11.2-0.2-22.5-0.7-33.7-1.3c27.1,0,54.2,0,81.4,0c28.3,0,56.6,0,85,0.1
		c0.9,0,1.9,0.2,2.6-0.1c0.8-0.4,1.7-1.3,1.7-2.1c0-0.7-0.9-2-1.6-2.1c-1.6-0.3-3.3-0.2-5-0.1c-35.8,0.2-71.6,0.6-107.5,0.5
		c-25.3,0-50.5-0.6-75.8-0.9c0-0.4,0-0.8,0-1.3c15.8,0,31.5,0,47.3,0c1.1,0,2.2-0.1,3.3,0c2.1,0.1,2.9-0.7,2.7-3
		c-0.5-4.9-0.1-9.6,2.4-14.1c2-3.5,4.5-6.5,8.3-8.1c2.1-0.9,3.1-2.4,4-4.4c1.2-2.7,2.9-5.1,4.4-7.7c3.6-6.3,10.2-5.5,16-6.4
		c1.9-0.3,3.4-0.6,5-1.9c8.4-7.2,20.9-7.1,27.5,0.8c0.6,0.7,2.4,1,3.2,0.6c5.8-2.3,10.9-1.5,15.8,2.4c2.7,2.2,6.2,3.5,8.9,5.7
		c6.7,5.7,9.9,13.6,12.6,21.7c1.3,3.8,2.4,7.7,3.7,11.5c0.9,2.6,2.4,3.1,4,0.9c5.4-7.2,10.9-14.5,15.8-22c3.4-5.3,6.1-11,8.9-16.7
		c0.8-1.5,1-3.3,1.1-5.1c-3.7,5.9-6.6,12.3-13.1,16.1c3.1-4.5,6.1-8.8,9-13.1c-0.3-0.3-0.6-0.7-1-1c-4.5,4.2-9.1,8.3-15.9,9.9
		c9.8-13.3,18.2-26.5,20.7-42.6c0.1-0.5-0.1-1.1-0.2-2.4c-3.1,4.3-5.8,8-8.6,11.8c-0.2-0.1-0.4-0.3-0.6-0.4c1.3-2.3,2.6-4.5,3.9-6.8
		c-0.2-0.2-0.4-0.4-0.6-0.7c-3.5,3.6-6.7,7.8-12.9,8.7c6.6-9.7,11.2-19.7,11.4-31.1c-2.3,3.8-4.7,7.7-7,11.5c-0.5-0.2-1-0.4-1.5-0.6
		c0.7-4.8,1.5-9.5,2.2-14.5c-0.7,0.3-1.3,0.5-2.5,1C185.7,453.7,185.9,450.6,186.1,447.5c0,0.6,0,1.2,0,1.8c4-6.5,7.7-13,8.3-20.8
		C191.6,434.8,188.9,441.1,186.1,447.5z M68.7,541.7c-1.1,5.3-0.9,10.5,1,15.5c0.3,0,0.5,0,0.8-0.1c-0.3-5.4-0.6-10.8-1-16.2
		c0.8-1.8,1.6-3.6,2.5-5.7c-5.4,3.5-9.6,15.4-7.5,19.2C65.9,550.3,67.3,546,68.7,541.7z M212.7,453.9c-0.9-1.6-1.7-3.1-2.6-4.7
		c-0.3,0.2-0.7,0.3-1,0.5c0.8,1.9,1.6,3.8,2.3,5.7c0.2,0.6,0.3,1.7-0.1,2c-0.4,0.4-1.5,0.6-2.1,0.4c-1-0.3-2-1-2.9-1.6
		c-0.1,0.2-0.3,0.4-0.4,0.7c2.1,1.5,4.2,3.1,6.7,4.9c-1.1,0.1-1.6,0.2-2.2,0.2c0,0.3-0.1,0.5-0.1,0.8c4,1,8,2,12,3
		c0.1-0.4,0.2-0.7,0.3-1.1c-1.4-0.3-2.9-0.3-4.2-0.8c-1.2-0.5-2.7-1.3-3.2-2.3C214,459.1,213.5,456.5,212.7,453.9
		c0.6,0.5,1.1,0.9,1.7,1.4c0.2-0.1,0.3-0.3,0.5-0.4c-1.1-3-2.2-6.1-3.3-9.1c-0.3,0.1-0.6,0.2-0.9,0.3
		C211.3,448.6,212,451.3,212.7,453.9z M455.7,326.9c0.4-1,0.7-2,1.2-2.9c1.9-3.9,4-7.6,5.8-11.6c0.9-1.9,1.3-4.1,1.9-6.1
		c-3.2,5-5.4,10.3-8.5,15.2c-3.1,4.9-7.1,9.3-10.6,14c0.3-0.5,0.5-1.1,0.9-1.5c16.4-21.7,25.4-45.9,24.2-73.4c0-0.6-0.2-1.2-0.4-1.8
		c-4.3,17.6-13,33.8-14.6,52.1c1.6-4.3,3.2-8.6,4.8-12.9c-3,15.1-11.6,27.6-19,40.7c1.4-1.1,2.7-2.1,4.1-3.2
		c0.4,0.2,0.9,0.8,1.1,0.7c1.2-0.7,2.2-1.5,3.3-2.3c-3,4.4-6.1,8.8-9.1,13.3c0.3,0.2,0.7,0.5,1,0.7c6.2-8.1,12.4-16.3,18.6-24.4
		c-0.3-0.3-0.7-0.5-1-0.8C458.2,324.1,457,325.5,455.7,326.9z M361.6,568.4c1.2,0.7,2.4,1.3,3.6,2c-1.4-2.9-3.1-5.4-4.7-7.9
		c-1.6-2.6-3-5.3-4.5-7.9c0.2-0.1,0.4-0.3,0.7-0.4c2.9,2.6,5.9,5.3,8.8,7.9c-2.9-8.2-14.4-18-19.8-17.5c0.9,1.1,1.7,2.1,2.4,3.1
		c3.9,6.3,7.7,12.5,11.5,18.8c-4.9-4.1-9.7-8.2-14.9-12.6c1.8,4.5,21,22.5,24.7,23.3C366.6,574,364.1,571.2,361.6,568.4z
		 M510.5,547.1c0.4,1.3,0.9,2.5,1.4,3.8c0.3-0.3,0.6-0.4,0.6-0.5c0.1-0.4,0.2-0.8,0.3-1.1c0.5-6.9-0.2-13.6-3.5-19.7
		c-3.2-5.7-7.7-9.9-14.4-11.2c-0.9-0.2-1.9,0.4-2.9,0.6c0.6,0.9,0.9,1.9,1.7,2.6c0.9,0.7,2.2,0.9,3.1,1.6c1.3,0.8,2.4,1.9,3.6,2.9
		c-1.7-0.9-3.5-1.7-5.2-2.6c-0.2,0.2-0.4,0.5-0.5,0.7c2,3.7,4.6,7.2,5.9,11.1c1.3,4,1.3,8.4,1.8,12.6c-0.3,0.1-0.7,0.1-1,0.2
		c-0.6-2.7-1.1-5.4-1.7-8c-0.3,0-0.5,0.1-0.8,0.1c0.3,5.3,0.6,10.5,1,15.8c0,0.5,1.3,1.4,1.5,1.2c0.7-0.4,1.7-1.2,1.7-1.9
		c0.3-5.7,0.5-11.4,0.6-17.1c0-1.1-0.3-2.3-0.5-3.5c0.3-0.1,0.7-0.2,1-0.3c1.1,2.3,2.4,4.6,3.3,7c0.9,2.5,1.6,5.1,2.5,8.2
		C510.2,548.4,510.3,547.8,510.5,547.1z M463.8,528.1c-0.1,0.3-0.2,0.6-0.3,0.9c-3.1-3.9-5-8.8-10-11c3.7,3.5,6.3,7.7,8.5,12.2
		c-0.3,0.2-0.6,0.4-0.8,0.6c-2.8-4-5.6-8-8.4-12c-0.3,0.2-0.6,0.4-0.9,0.6c0.9,1.9,2,3.8,2.6,5.8c0.6,1.9,0.6,4,0.9,6
		c-0.2,0-0.3,0-0.5,0.1c-0.8-1.9-1.7-3.8-2.8-6.3c-0.7,3.8,3,15.9,5.3,17.9c-0.1-1.4-0.2-2.6-0.3-3.8c0.1,0,0.2,0,0.3-0.1
		c0.5,1.3,0.9,2.7,1.4,4c0.2,0,0.5-0.1,0.7-0.1c-0.5-4.2-0.9-8.4-1.4-12.6c1.4,1.3,2.5,2.7,3.2,4.3c2.4,4.9,4.6,9.8,7,14.7
		c0.3,0.7,1.1,1.2,1.7,1.8c0.3-0.7,1-1.5,1-2.2c-0.2-7.5-0.8-15-4-21.9c-2.2-4.7-4.9-8.8-9.7-11.1c-1.5-0.7-3.3-0.8-5-1.2
		c-0.1,0.3-0.2,0.6-0.3,0.9C457.4,518.2,461.2,522.6,463.8,528.1z M145.4,526.6c-1.5,0.2-3.2,0.1-4.5,0.8c-1.9,1-3.5,2.5-5.1,3.7
		c-0.1-2.6,3.2-5.2-0.5-8.3c1.8-1.3,3.3-3.2,5.2-3.6c1.9-0.4,4.1,0.7,6,1c-3.4-5.6-10.4-7.1-15.8-2.3c-2.8,2.5-5.4,6.1-6.3,9.6
		c-1.7,6.1-2.2,12.5-2.7,18.9c-0.2,2.3,0.8,4.6,1.5,7.6c2.6-6,4.9-11.3,7.5-17.3c0.6,1.6,0.8,2.2,1.2,3.4c1.5-2,2.6-3.7,4-5.2
		c0.5-0.6,1.5-0.7,2.3-1c-1.6,3.1-3.2,6.2-4.7,9.4c0.3,0.2,0.6,0.3,0.9,0.5c0.6-1,1.1-2,1.9-2.9c0.4-0.5,1.3-1.4,1.7-1.2
		c2.5,0.8,4-0.7,5.7-2.1c1.8-1.5,3.8-2.7,5.8-4.1c0.8-0.6,1.5-1.2,2.3-1.8c-0.1-0.3-0.3-0.7-0.4-1c-1.6,0.3-3.4,0.4-4.9,1
		c-1.7,0.6-3.1,1.8-4.7,2.7c1.2-2,2.7-3.6,4.3-5.3C146.6,528.2,147.5,527.2,145.4,526.6z M191.4,270.3c3.8,6.4,7.6,12.8,11.4,19.2
		c0,0.1,0.3,0,0.8,0c-2-7.4-5.6-13.8-10.9-19.2c14.8,6.9,21.7,20.2,22.8,40.2c-1-1.7-1.7-3-2.5-4.4c0,7,0,13.7,0,20.4
		c-3.1-1.8-6-4.9-10.6-3.8c2.5,4.2,4.9,8.1,7.3,12.1c-3.6-0.5-6.6-0.9-9.6-1.3c6.8,6.7,9.4,14.1,7.1,23.1c4.1-6.2,2.7-12.4,0.4-19
		c1.9,0.4,3.4,0.7,5,1c0.3-0.2,0.5-0.4,0.8-0.6c-1.5-3.7-3.1-7.3-4.8-11.2c4.1,3,7,6.6,8.6,11.2c0.2,0.6,0.8,1,1.1,1.5
		c0.3-0.6,1-1.3,0.9-1.9c-0.2-1.4-0.4-3-1.2-4.2c-2.5-4-3-8.5-3.4-13c-0.2-2-0.4-4-0.7-6.1c0.2,0,0.5-0.1,0.7-0.1
		c1.3,4.7,2.6,9.3,3.9,14c0.7-0.4,0.8-0.7,0.8-0.9c-1.2-11.7-2.4-23.4-3.6-35.1c2.1,3.7,4,7.5,5,11.6c1,4.1,1.1,8.4,1.7,12.9
		c3.9-6.7-1.5-22.5-12.3-36.6c-5-6.6-17.8-14.2-21.9-13.1C189.4,268.2,190.4,269.3,191.4,270.3z M244.8,540.5
		c1.9-1.1,3.9-2.2,6.5-3.8c-4.5,0.5-8.1,0.8-11.7,1.2c-0.1-0.2-0.1-0.5-0.2-0.7c2.5-1.4,4.9-2.8,7.8-4.5c-0.9-0.1-1.1-0.3-1.4-0.2
		c-0.7,0.1-1.4,0.2-2,0.4c-8.7,1.7-14.8,6.8-20.2,13.8c-7.3,9.4-10.1,19.8-10.3,31.4c0,0.5,0.3,0.9,0.4,1.2c2.9-5.4,5.6-10.9,8.8-16
		c3.6-5.7,9.9-11,13.1-12c-2.1,2.8-4.5,5.5-6.3,8.5c-1.8,2.9-3,6.1-4.5,9.1c0.2,0.1,0.5,0.2,0.7,0.3c2.6-3.8,4.8-7.9,7.7-11.4
		c3-3.6,6.4-7,10-10c3.4-2.8,7.4-5,11.1-7.4c-0.1-0.2-0.3-0.5-0.4-0.7c-1.7,0.7-3.4,1.3-5.4,2c0.3-0.7,0.5-1.1,0.8-1.9
		c-1.4,0.4-2.5,0.8-3.6,1.1C245.5,540.8,245.2,540.6,244.8,540.5z M408.8,375.2c0.5-4.1,0.9-8.2,1.7-12.2c0.7-3.9,1.9-7.7,2.8-11.6
		c-0.4-0.2-0.7-0.4-1.1-0.6c-0.5,1-1,2-1.5,3c-0.5-0.3-0.9-0.6-1.4-0.9c1.7-3.9,3.4-7.7,5.1-11.6c-0.2-0.1-0.4-0.3-0.6-0.4
		c-1.8,1.7-3.6,3.5-5.4,5.2c-0.3-0.3-0.7-0.5-1-0.8c1.3-2,2.7-4.1,4.1-6.1c0.4-0.6,0.9-1,1.4-1.5c-2.3-1.8,0.6-3.1,0.5-5.5
		c-3.1,2.1-5.8,3.8-8.9,5.9c2.3-10.4,6.2-19.7,13.6-28.4c-2,0.1-3.1-0.1-4,0.3c-3,1.4-6.3,2.5-8.8,4.5c-8.6,6.7-14.5,15.1-15.5,26.4
		c0,0.3,0.5,0.6,0.7,1c1,4.1-0.8,8.8,0.9,13.2c0.3,0,0.5,0,0.8,0c0.4-1.9,0.9-3.8,1.3-5.7c0.3,0,0.5,0,0.8,0c0.5,2,1,4.1,1.4,6.1
		c0.3,0,0.6,0,0.9,0c1.4-12,1.4-24.5,9.7-34.2c-1.7,6.1-3.9,12.3-5.2,18.7c-1.7,8.5-1.1,16.6,0.9,19.4c1.2-4.3,2.1-8.6,5.4-11.9
		c0.4,1.5,0.5,2.9,0.2,4.2c-1,3.8-2.2,7.6-3.2,11.4c-0.5,1.8-0.6,3.6-0.9,5.4c0.3,0.1,0.6,0.1,0.9,0.2c0.7-2,1.5-3.9,2.5-6.6
		c0.5,5.3-0.5,10.1,2,14.4C408.7,376.2,408.7,375.7,408.8,375.2c0.6,3.2,1.3,6.5,2,9.8c0.3,0.1,0.5,0.1,0.8,0.2
		c1.8-10.5,3.5-20.9,5.4-32.1c-0.9,1.4-1.6,2.1-1.8,3C413,362.4,410.9,368.8,408.8,375.2z M252.1,486.7c10.4,2.3,20.5,5.4,28.3,13.2
		c-6.9-9.3-15.7-15-27.4-15.3c-0.8,0-1.7,0.9-2.6,1.4c-3.6-0.2-7.1-0.4-10.1-0.6c0.5-0.2,1.8-0.5,2.8-1.2c0.4-0.2,0.4-1.2,0.5-1.9
		c3.4-0.1,6.7-0.2,10.1-0.3c-0.1-0.5-0.1-1.1-0.2-1.6c-3.4,0.6-6.8,1.1-10.1,1.7c-0.9,0-1.8-0.1-2.6,0.1c-11.6,3.8-22.1,9.5-30.2,19
		c-0.8,1-1.3,2.2-2,3.3c0.2,0.1,0.3,0.2,0.5,0.4c4.3-3.3,8.6-6.6,12.9-9.9c0.2,0.2,0.3,0.4,0.5,0.6c-1.1,1.1-2.3,2.1-3.4,3.2
		c0.2,0.2,0.3,0.4,0.5,0.6c2.7-1.6,5.2-3.3,8-4.6c2.7-1.3,5.7-2.1,8.6-3.1c0.2,0.3,0.3,0.7,0.5,1c-8.8,5.3-16.9,11.4-23.2,19.7
		c-6.3,8.3-9.7,17.8-10.8,28c10.5-22.7,26.2-37.7,53.1-36.9c-13.9-3.8-25.4,1.9-36.5,9.2c11.6-10.1,24.5-16.1,40.5-11.7
		c-4.4-1.7-8.8-2.6-13.1-3.7c-1.4-0.3-2.6-1.1-3.9-1.6c0.1-0.5,0.3-0.9,0.4-1.4c7.4,1.3,14.8,2.6,22.1,3.9c-3-2-6.2-3.7-9.6-4.8
		c-3.4-1.1-7-1.6-10.6-2.3c0-0.1,0-0.2,0-0.3c4.3,0,8.7,0,13,0c0-0.2,0-0.4,0-0.6C256,489.1,254,487.9,252.1,486.7z M157.2,343.4
		c1.9,1.1,3.8,2.2,6.2,3.6c-1.8-4.4-6.2-6.8-6.8-11.8c2.4,1.4,4.3,2.5,6.2,3.6c-2.1-3.7-4.3-7-6.7-10.2c-4.7-6.1-7.7-13-9.4-20.4
		c-3.3-14.2-1.7-28.4,0.2-42.6c-0.7,16.6-3.3,33.4,4.6,49.2c-0.8-3.4-1.6-6.9-2.3-10.3c1.9,4.6,3.6,9.3,6.7,12.9
		c-2.1-8.2-4.9-16.4-6.3-24.8c-1.3-8.4-1.2-17.1-1.7-25.7c0.1,0,0.2,0,0.3,0c0.9,9,1.8,18,2.7,27c0.4,0,0.9-0.1,1.3-0.1
		c-0.7-9.7-1.4-19.5-2.1-29.2c1.3,0.9,1.8,1.9,2.5,2.9c0.6,0.9,1.4,1.8,2.1,2.7c0.1-0.1,0.2-0.2,0.2-0.3c-2-5.1-3.9-10.2-5.9-15.3
		c0.1,0,0.3-0.1,0.4-0.1c1,1.5,2,3.1,3,4.6c0.4-0.1,0.7-0.2,1.1-0.4c-0.5-3.7-1-7.4-1.6-11.5c0.5,1,0.9,1.7,1.2,2.4
		c0.3-0.1,0.6-0.2,0.8-0.3c-1.3-5.6-2.6-11.2-3.8-16.8c-0.3,0-0.6,0.1-0.9,0.1c-0.1,1.3-0.2,2.5-0.4,4.1c-0.5-1.2-0.9-2-1.3-2.9
		c-1,3.5-1.3,6.8-1.8,10.2c-1.7,11.5-4.1,22.9-5.1,34.5c-1.5,16.8-0.2,33.3,7.7,48.7c1.2,2.4,2.2,4.8,3.3,7.2
		c-0.6-0.6-1.4-1.2-1.8-1.9c-4.4-7.6-7.8-15.7-9.2-24.5c-0.6-3.4-1.2-6.8-1.9-10.2c-3.3,13.9,11.6,47.3,23.2,52.4
		C160.3,348.1,158.7,345.7,157.2,343.4z M366.7,371.6L366.7,371.6c-4.4-0.2-8.8-0.7-13.1-0.4c-3.3,0.2-6.6,1.5-10.5,2.5
		c0.9-1.1,1.4-2,2.1-2.7c9.1-9.2,20.2-12.4,32.8-10.3c5.5,0.9,10.9,2.6,16.3,4c0.6,0.2,1.3,0.2,2.1,0.3c-6.3-11.5-25.5-19.2-44-15.1
		c-13.5,2.9-29.7,17.8-28.8,26.5c5.9-10,12.5-18.9,23.9-22.6c11.1-3.6,21.9-2.5,32.3,2.7c-4.9-0.6-9.8-1.6-14.6-1.6
		c-5,0.1-10,0.8-14.8,2c-5.6,1.3-10.6,4.8-12.3,7.8c6.8-3.5,13.4-6.9,21.1-6.5c-7.3,2.8-14.5,5.5-20.6,10.6
		c-6.3,5.3-11.4,15-10.4,20.7c3-6.8,5.9-13.2,11.7-17.7c-3.7,5.1-6,10.8-7.4,16.9c-1.4,6-2.4,12.1-1.4,18.3c0.6-0.9,0.8-1.9,0.9-2.9
		c1.3-8.4,3.9-16.3,9.3-23c2.8-3.4,6.3-5.7,10.7-6.6c-5,3.8-8.2,8.6-10.9,14.3c-3.7,7.5-6.8,15.1-8.1,23.3c-0.4,2.8-0.6,5.7-0.8,8.5
		c0.3,0,0.6,0.1,0.8,0.1c1.6-6.2,3.2-12.4,5-18.6c1.9-6.3,5.5-11.4,10.8-15.4c5.3-4.1,13.8-8.3,16.6-7.9c-2.7,2.1-5.7,4.5-8.7,6.8
		c0.2,0.2,0.4,0.4,0.5,0.7c4.2-2.4,8.4-4.9,12.7-7.1c4.6-2.4,9.3-2.3,14.8-0.6c-3.4,0.8-6.2,1.4-8.9,2c0,0.3,0,0.6,0,0.9
		c6.4,0.1,12.5,1.1,17.6,5.3c-6.2-2.5-12.4-4.5-19.2-3.2c-6.7,1.2-12.2,4.5-16.4,9.2c5.2-1.6,10.5-3.4,15.9-4.8
		c3.1-0.8,13.7,3.4,15.5,5.7c-7.7-2.1-15.1-2.7-22,2c4.7-0.4,9.4-1.3,14-1.1c5.7,0.3,9.7,2.4,12.5,5.2c-9.1-4.4-19.2-4.2-22.4,0.6
		c0.7-0.1,1.3-0.2,1.8-0.3c10.3-2.6,18.6,0.8,25.6,8.3c5.3,5.6,8.9,12.3,11.5,19.5c0.8,2.2,1.6,4.4,2.5,6.6c0.3-0.1,0.5-0.2,0.8-0.3
		c-2.5-14.8-8.4-28.1-18.1-40c2.5,0.9,4.6,2.1,6.7,3.5c1.3,0.9,2.3,1.5,2.3-1.2c0.5,1.1,0.8,1.7,1.1,2.3c0.3-0.1,0.6-0.2,0.8-0.3
		c-0.8-2.1-1.4-4.4-2.6-6.4c-1.1-2-2.8-3.7-4.2-5.4c5.6,2,7.9,7.4,11.1,11.9c-3.9-20.2-26.4-36.2-44.3-31.5
		c10.5,1.1,20.3,3.9,28.3,11.2C386.1,373,376.8,370.9,366.7,371.6z M323.3,541.3c-6.3-1.5-9.3-4.2-9.7-8.4
		c-0.4-4.7,1.8-9.2,6.1-10.9c7.3-2.9,11.4,1.2,14.3,7.4c6.8-6.7,4.5-19.4-4.1-23.2c-3-1.3-6.4-2.4-9.6-2.5
		c-9.8-0.3-19.7-0.6-29.5,0.2c-6.5,0.5-13,2.3-19.1,4.6c-7.2,2.8-10.1,11.3-6.8,17.8c0.6,1.3,2,2.2,3.3,3.6c2.3-6.3,5.7-9,10.7-8.8
		c4.4,0.2,8,2.9,9.1,7.6c1.7,7.4-2.3,11.1-9.9,12.5c6,1.7,10.1-0.8,11.9-6.3c2.4-7.7-1.6-14-11.7-17.7c6.7-3,27.9-3.1,27.9-2.8
		c5.2,0.3,10.6-0.1,15.6,3c-1.5,1-2.7,1.7-3.8,2.5c-5,3.2-6.9,7.9-6.3,13.7C312.2,539.8,317.7,543.5,323.3,541.3z M392,552.6
		c-2.9-4.5-5.7-9.8-9.4-14.3c-3.3-4.1-7.4-7.6-11.7-10.8c-4-2.9-8.1-6.2-13.8-4.8c-1,0.2-2.1-0.1-3.1-0.1c3,1.8,6.3,2.9,9.3,4.5
		c14.3,7.7,23,20.1,28.6,34.9c1.5,3.9,2.7,7.8,4.1,11.8c0.8-0.9,1.1-1.8,1.1-2.6c-0.2-4.6-0.1-9.3-0.8-13.9
		c-1.6-10.2-5.3-19.8-10.3-28.8c-0.3-0.5-0.4-1.2-0.6-1.8c2.4-0.7,0.8-2.3,0.5-3.3c-3.6-11.6-10.4-20.9-20.3-27.9
		c-9.6-6.8-20.2-8.5-31.5-5c-2.4,0.7-4.6,2-6.9,3.1c0.1,0.4,0.3,0.7,0.4,1.1c8.2-3.5,16.6-4.5,25.9-2c-13.5,2-16.9,3.1-18.7,6.2
		c16-2,31-1.4,41.8,12.7c-4.7-4.2-9.6-8-16-9.4c-6.5-1.5-12.5-0.7-18.1,3c5.5-0.8,10.9-1.4,16.3,0.1c5.3,1.6,10,4.2,13.4,8.8
		c-6-3.1-11.7-6.9-18.9-6c5.5,2.4,11.3,3.9,14.9,9.5c-2.6-0.9-5.3-1.9-7.9-2.8c-0.2,0.4-0.5,0.8-0.7,1.2c2.5,1.9,4.8,4.1,7.5,5.8
		C379.3,529.1,388,539.3,392,552.6z M229.8,356.1c8.7-1.7,25.2,6.1,26.7,12c-2.6,0.4-5.2,0.8-7.8,1.1c0,0.3,0,0.6,0,1
		c2,0.8,4,1.6,5.9,2.5c6.2,2.9,12,6.4,14.6,13.1c1.7,4.3,2.6,8.9,3.7,13.3c0.6,2.3,0.8,4.7,1.2,7c1.6-10.7-0.1-20.8-5.4-30
		c-5.2-9-11.8-16.8-21.5-21.6c8.6,2.1,15,7.4,21,13.4c-2-5-5.6-8.4-9.9-11.3c-10.3-7-21.5-7.2-33.8-4.1c8.9-5.5,18-4.3,27-4.7
		c-9.5-3.9-18.7-2.8-27.9,0.9c-9,3.6-14.9,10.7-21,17.8c10-4.9,20.4-8,31.6-8.4c0-0.3,0-0.7-0.1-1
		C233,356.8,231.7,356.5,229.8,356.1z M328.4,487.9c0.1,0.2,0.3,0.4,0.4,0.6c1-0.6,2-1.1,2.9-1.8c5.9-4.5,12.5-5.6,19.6-4.3
		c15.5,2.8,27.6,11.2,37.5,23.1c1.5,1.8,2.8,3.6,4.3,5.5c0.6-3.9-1.9-6.6-3.8-9.1c-10.5-13.6-22.6-25.2-40.3-29.3
		c2,0.1,4,0.2,5.8,0.6c7.4,1.8,13.7,5.9,19.8,10.3c1,0.7,2.1,1.3,3.1,1.9c-8.7-10.9-24.9-20.4-40.1-14.8c-9.9,3.7-23,14.4-22.8,19.1
		c3.4-0.4,5.4-2.8,7.4-5.2c4.3-5,10-7.6,16.7-9.2c-6.1,4.7-12.8,7.8-16.5,14.3c0.2,0.2,0.4,0.5,0.6,0.7c2.5-2,5-3.9,7.5-5.9
		c0.1,0.2,0.3,0.4,0.4,0.6C330,485.9,329.2,486.9,328.4,487.9z M205.5,391.5c-7.3,11.9-14.2,23.6-17.3,37.3
		c7.9-17.2,18.3-30.9,39.8-29.9c-6.8-3.7-13.4-2.3-20,0.4c10.7-6,21.2-5.1,31.6,1c-8.5-9.8-18.7-10.3-30-5.6c5-4.9,11.4-5.9,18-6.5
		c-0.1-0.3-0.1-0.6-0.2-0.9c-1.4-0.5-2.9-1-4.9-1.7c8.6-0.6,15.4,2.6,22,6.8c0-0.8,0.1-1,0-1.1c-0.3-0.4-0.6-0.8-0.9-1.1
		c-6.3-6.2-13.9-7.8-22.4-6.6c-1.1,0.2-2.1,0.3-3.2,0.4c-1,0.1-1.9,0.1-2.9,0.2c0-0.4,0-0.8-0.1-1.2c6.5-0.7,13-1.4,19.7-2.2
		c-5.7-2.2-11.1-3.9-23,0.3c2.3-1.8,4.2-3.3,6.7-5.2c-8.2,0.1-21,14.4-20.1,21.6C200.8,395.4,203.1,393.4,205.5,391.5z M200.1,575.4
		c0.4,0.1,0.8,0.2,1.2,0.3c6.9-20.7,19.7-36.6,38.9-47.1c-12.6,3.2-21.3,11.8-29.3,21.3c8.1-13.2,20.4-20.8,35.3-25.9
		c-7.9-1.6-15.4,1.3-31.2,11.8c9.3-11.9,21.1-18.9,35.8-21.4c-9.3-1.3-17.5,1.7-25.2,6.7c5.7-5.9,12.8-9.1,20.9-11.3
		c-0.7-0.2-1-0.3-1.2-0.3c-0.7,0-1.4,0.1-2.1,0.2c-8.1,0.9-14.7,4.9-20.5,10.4c-9.9,9.5-15.9,21.3-19.1,34.4
		C202,561.4,201.3,568.5,200.1,575.4z M212.3,491.3c0.2,0.3,0.5,0.6,0.7,0.9c0.8-0.6,1.6-1.1,2.3-1.8c6.6-6.3,14.4-10.6,23-13.5
		c15.8-5.4,30.3-4.8,43,7.5c1.7,1.7,4.3,2.7,7.2,1.8c-0.5-0.6-0.9-1.1-1.7-2.1c1.6,0.9,2.4,1.3,4.1,2.2c-0.9-1.7-1.3-2.7-1.8-3.5
		c-9.5-15.5-31.4-21.9-47.9-14.1c-7.9,3.7-15,8.6-21.3,14.7C217.4,486,214.8,488.7,212.3,491.3z M349.9,528.3
		c13.1,8.5,25.5,17.3,30,33.1c-1-1.5-1.8-3.3-2.9-4.7c-7.7-9.2-16.4-17-27.3-22.3c-0.9-0.4-2-0.5-3-0.7c4.4,3.4,9.2,5.9,13.2,9.3
		c5.4,4.7,11.4,9.3,15,15.3c5.8,9.5,7.3,20.5,5.6,31.7c-0.2,1.4-0.5,2.7-0.8,4.1c-0.3,1.3-0.5,2.6-0.8,4c0.3,0,0.5,0.1,0.8,0.1
		c3.2-6.6,4.8-13.6,5.1-20.9c0.3-7.4-0.9-14.6-2.8-21.7c0.8,2.1,1.7,4.3,2.6,6.6C389.4,550.8,364.9,526.8,349.9,528.3z M442.6,370.9
		c-0.5,0.8-1,1.6-1.5,2.4c-3.4,5.7-7.3,11.1-13.5,14.2c-0.8,0.4-1.7,0.4-2.6,0.6c0.4-0.8,0.6-1.8,1.2-2.5
		c13.9-15.4,23.2-33.7,32.3-52.1c0.4-0.7,0.5-1.6,0.8-2.3c-0.3-0.2-0.5-0.3-0.8-0.5c-2.6,3.1-5.2,6.1-8.3,9.7c1.4-0.2,2-0.3,2.5-0.4
		c0.2,0.3,0.4,0.6,0.6,0.9c-5.2,4.3-10.4,8.6-15.6,12.9c0.1,0.2,0.2,0.4,0.3,0.6c3.5-2,7.1-4,10.6-6c0.2,0.2,0.4,0.3,0.6,0.5
		c-4.8,7.6-9.3,15.3-14.5,22.6c-5.1,7.2-11,14-16.7,21.2c1.9-0.1,3.6-0.2,5.3-0.3c-0.7,0.7-1.5,1.4-2.5,2.4
		C430.3,393.4,442.3,380.4,442.6,370.9z M161.8,405.7c4.7,1.6,9.5,3.3,14.2,4.9c0.1-0.4,0.3-0.7,0.4-1.1c-2.1-0.9-4.3-1.7-6.3-2.6
		c-2.1-1-3.8-2.5-4.7-5.1c2.5,0.8,4.6,1.5,6.8,2c2.1,0.5,4.3,0.8,6.5,1.2c0.2-0.4,0.3-0.7,0.5-1.1c-10.4-7.5-17.4-17.7-23.9-28.4
		c2.5,8.5,7.6,15.5,13.4,22c-0.3,0.3-0.6,0.7-0.9,1c-4.2-2.7-8.4-5.5-12.5-8.2c-0.2,0.3-0.5,0.5-0.7,0.8c0.5,0.9,0.9,1.8,1.5,2.6
		c1.7,2.3,3.6,4.6,5.2,7c0.3,0.5,0.3,1.3,0.2,1.9c0,0.2-1,0.3-1.5,0.2c-2.1-0.6-4.1-1.4-6.4-2.1c5.4,8.7,20.5,16.9,26.3,14.3
		C173.5,412.6,166.5,411.1,161.8,405.7z M94.9,556.5c0.4,0,0.7-0.1,1.1-0.1c0.2-0.7,0.4-1.5,0.5-2.2c0.4-4.2,0.3-8.5,1.1-12.7
		c1-5.7,2.3-11.4,4-16.9c1.8-6.1,7.4-8.7,12.5-11.3c3.3-1.7,6.4,0.6,9.2,2.5c0.6,0.5,1.6,0.5,2.3,0.8c-0.2-0.9-0.2-2.1-0.7-2.7
		c-2.5-2.7-5.7-4.1-9.5-4.2c-8.1,0-14.4,4.1-17.4,11.8c-3.3,8.4-4.7,17.1-4.3,26.1C93.8,550.7,94.5,553.6,94.9,556.5z M234.4,367.7
		c-0.1-0.4-0.3-0.7-0.4-1.1c-2.5,0.3-5.1,0.4-7.6,0.9c-2.5,0.5-5,1.2-7.4,2.1c-2.5,0.9-4.9,2.1-7.2,3.4c-2.2,1.2-4.2,2.7-6.3,4.1
		c9.3-9.3,20.6-14.3,33.6-15.6c-13.6-0.1-25.8,3.7-35.7,13.4c-6.5,6.4-10.9,14.1-13,23.1C201.8,383.1,214.4,370.1,234.4,367.7z
		 M495.7,541.4c0.2-0.1,0.4-0.2,0.6-0.2c-1.6-5-2.9-10-4.7-14.9c-2.4-6.6-6.1-12.3-13-15.3c-2.6-1.1-4.7-1.4-6.2,1.2
		c15.8,10.3,16.9,27.4,19.8,43.6c0.3,0,0.7,0,1-0.1c0.5-5.5,1.1-11.1,1.5-16.3C494.9,539.9,495.3,540.7,495.7,541.4z M361.2,439.1
		c0,4.6,3.7,8.2,8.3,8.1c4.5-0.1,8-3.7,8-8.1c0-4.4-3.7-8.2-8-8.3C364.7,430.8,361.2,434.2,361.2,439.1z M222.5,373.5
		c0.1,0.2,0.1,0.4,0.2,0.5c1.1-0.1,2.3-0.2,3.4-0.3c7-0.7,13.8-0.1,20.3,2.8c7.7,3.5,12.6,9.8,18,15.8c3.5,3.9,5.4,8,6.4,12.8
		c0.5,2.5,1,4.9,1.5,7.4c0.7-0.8,1-1.6,1-2.5c-0.2-10.1-3.1-19.2-10.1-26.8c-0.4-0.4-0.9-0.8-1.4-1.1c-2.4-1.5-5.1-2.7-7.3-4.5
		c-9.3-7.7-19.7-8.1-30.7-5.1C223.3,372.8,222.9,373.2,222.5,373.5z M249.1,437.6c0.2-4.7-2.9-8.2-7.6-8.5c-4.4-0.2-8.2,3.4-8.3,7.8
		c-0.1,4.8,2.8,8.1,7.3,8.3C245.4,445.5,248.9,442.4,249.1,437.6z M328.8,356c-13.2,13.4-22.4,41.4-21,48.8c0.4-1.4,0.7-2.4,0.9-3.4
		c2.6-10.9,6-21.4,11.9-31.1c6.1-9.9,13.4-18.3,24.7-22.4c0.3-0.1,0.5-0.5,0.8-0.9c-14.2-2.4-36.8,20.9-38.1,39.2
		C313.3,374.9,319.1,364,328.8,356z M298.1,475.5c1.8-2.8,1.8-16-0.6-19.9c-0.1,2.5-0.3,4.9-0.4,7.9c-6.1-13.4-15.7-21.1-23.5-18.9
		c0.4,0.3,0.6,0.6,0.9,0.7c10.3,4.2,15.2,12.5,17.7,22.8c1.1,4.6,2,9.2,3,13.8c0.3-0.1,0.7-0.1,1-0.2c-1.3-7.4-2.7-14.9-4.1-22.8
		C294.2,464.7,296.1,470.1,298.1,475.5z M441.4,398.2c-0.3-0.3-0.5-0.7-0.8-1c-1.1,0.5-2.2,1-4,1.9c2.1-3.1,4-5.5,5.4-8.2
		c1.5-2.8,2.5-5.8,3.6-8.7c1-2.7,1.6-5.5,2.6-8.7c-5.7,7.3-11,14.1-16.3,20.8c0.2,0.2,0.3,0.4,0.5,0.6c2.9-2.2,5.8-4.3,8.7-6.5
		c-4.1,7.1-10.4,11.6-17.8,14.8c0.2,0.3,0.3,0.5,0.5,0.8c1.3-0.3,2.6-0.7,3.9-1c0,0.1,0.1,0.3,0.1,0.4c-1.2,0.8-2.5,1.5-3.7,2.3
		c0.1,0.2,0.2,0.5,0.3,0.7c1.8-0.6,3.7-1.2,6-1.9c-1.3,1.9-2.3,3.3-3.3,4.7c0.3,0.3,0.6,0.6,0.9,0.8
		C432.5,406,436.9,402.1,441.4,398.2z M325.1,440.4c-4.6,2.4-8.1,5.9-10.6,10.3c-2.4,4.3-4.5,8.9-6.7,13.4c0.2-1.7,0.4-3.4,0.6-5.1
		c0.2-1.5,0.3-3.1,0.4-4.6c-0.4,0-0.8,0-1.1,0c-0.7,5.9-2.7,11.7-1.4,17.9C313.2,462,321.6,452.7,325.1,440.4z M397.6,297.1
		c-5.4,3.6-13.1,28.2-11.1,33.6c0.8-1.8,1.4-3.4,2.1-5c0.3,0.1,0.6,0.2,0.8,0.2c-0.3,3-0.7,6.1-1,9.1c3.2-7,5.6-14.1,8.8-20.8
		c3.2-6.8,7.1-13.1,10.7-19.7c-0.3-0.2-0.5-0.3-0.8-0.5c-5.7,9-11.4,18-17.2,27c-0.3-0.2-0.7-0.3-1-0.5
		C391.9,312.8,394.8,304.9,397.6,297.1z M383.6,445.5c-1.6,8.2-6.3,13-14.1,13.3c-8.6,0.4-13.6-4.4-15.1-13.3
		c-2.2,5.1,0,11,5.2,14.7c5.7,4.1,14.4,3.8,19.6-0.6C383.9,455.5,385.9,449.8,383.6,445.5z M251.2,444.8c-2.5,8-7.2,12.9-15.7,12
		c-8.1-0.9-12.5-5.7-13.4-14.2c-2.5,4.4-0.9,10.6,3.2,14.6c5.1,4.9,13.1,5.3,20,1C249.7,455.4,252.6,449.3,251.2,444.8z
		 M297.1,370.3c1.6-13.8-15.1-36-27.8-37c5.6,6.7,11.1,13.2,16.6,19.8c0.2-0.1,0.4-0.2,0.6-0.4c-2.5-3.9-4.9-7.8-7.4-11.7
		c2.6,2.4,5,5,7.3,7.7C291.6,355,294.8,362.4,297.1,370.3z M76.4,551.2c0.2-0.3,0.4-0.6,0.5-1c0.5-3.4,0.9-6.9,1.6-10.2
		c2.1-9.5,5.9-17.8,16.1-21.4c0.7-0.2,1-1.6,1.5-2.4c-0.9-0.3-1.8-0.9-2.5-0.7c-7.2,1.7-12.3,6-15.1,12.9
		C75.5,535.7,75.6,543.3,76.4,551.2z M466.1,242.9c0.4,0.1,0.7,0.1,1.1,0.2c-1.4,6.9-2.4,13.9-4.1,20.7c-1.7,6.8-4,13.5-6.1,20.2
		c0.2,0.1,0.5,0.2,0.7,0.3c0.9-2,1.8-4,2.6-6.1c4.2-10.8,8.2-21.6,8.7-33.3c0.2-3.7,0.1-7.5-1.3-11c-0.3,0-0.6,0-0.9,0
		c-1.6,6.7-3.2,13.4-4.8,20.1c0.3,0.1,0.5,0.2,0.8,0.2C463.9,250.5,465,246.7,466.1,242.9z M439.3,520.4c-8.3,4.6-17.2,22-15.1,28.9
		c2.3-5.8,4.4-11.4,6.6-17c0.2,0.1,0.3,0.1,0.5,0.2c-1.4,5.2-2.8,10.4-4.2,15.6c0.3,0.1,0.7,0.3,1,0.4c0.1-0.2,0.3-0.5,0.4-0.8
		c2.2-5.7,2.9-12,7.2-16.9c1.5-1.7,2.2-4.2,3-6.4C439.1,523.4,439.1,522.1,439.3,520.4z M168.5,373.5c0.3-0.1,0.6-0.3,0.8-0.4
		c-2-4.2-3.9-8.3-5.9-12.6c2.1,0.7,4.1,1.4,6.2,2.1c-1.7-1.8-3.7-3-5.6-4.2c-7.3-4.9-10.6-9.2-12.8-16.7c-0.6-1.9-5.7-5.9-8.6-6
		c2.6,4.2,4.7,8.2,7.4,11.7c6.2,7.9,12.9,15.5,17.3,24.6C167.6,372.6,168.1,373,168.5,373.5z M235.7,583
		c9.1,1.6,30.8-13.5,31.7-21.4c-1.4,1.5-2.6,2.9-3.8,4.2c-0.1-0.1-0.1-0.1-0.2-0.2c1.4-2.5,2.9-5.1,4.3-7.6
		c-0.3-0.2-0.6-0.5-0.9-0.7C259,568.6,249.5,577.8,235.7,583z M197.6,362.2c0.5,1.4,0.8,2.5,1.2,3.6c5.2-5,7.9-14.3,5.1-17.3
		c-0.2,1.5-0.5,2.9-0.8,5c-0.4-2.7-0.7-4.7-1-6.6c-0.2,0-0.3,0-0.5,0.1c-0.4,4.6-0.8,9.3-1.2,13.9c-2.6-8-3.8-10.3-6.3-11.7
		c0,7.4,0,14.9,0,22.4c0.1,0,0.3,0.1,0.4,0.1C195.5,368.6,196.5,365.6,197.6,362.2z M93.7,521.1c-7.8,0.9-15.6,16.5-14.6,24.6
		c0.9-2.9,1.6-5.3,2.4-7.7c0.2,0,0.3,0.1,0.5,0.1c-0.1,1.8-0.2,3.6-0.3,5.5c2.6-5.7,4.1-11.7,8.5-16.4c-1.2,5.7-2.1,11.4-1.2,17.5
		C90.6,536.6,92.2,529,93.7,521.1z M430.3,266.4c-0.1-0.2-0.3-0.5-0.4-0.7c-12,1.9-35.4,23.5-35.1,32.5c0.7-0.9,1.2-1.5,1.7-2.2
		c6.6-9.5,14.4-17.6,24.6-23.4C424.3,270.7,427.2,268.5,430.3,266.4z M311.2,472c2.5-3.3,4.9-6.6,7.5-9.8c2.6-3.1,5.6-6,8.8-9.4
		c-0.2,1.3-0.2,1.8-0.3,2.6c3.5-3.4,6.8-6.5,10.2-9.8C329.9,443.8,315.1,458.8,311.2,472z M515.9,534.4c0.5,1.3,0.8,2,1,2.6
		c0.9,2.6,2.2,5.1,2.4,7.7c0.3,3.3-0.4,6.6-0.6,10c-0.1,1.1-1.3,2.7,1,3c1.7,0.2,3.2,0.2,3.2-2.2c0-1.6,0.2-3.2,0-4.7
		c-0.4-2.6-1.2-5.1-1.8-7.7c1.3,1.6,2.2,3.3,2.9,5.2c0.7,1.8,1.2,3.6,1.9,5.8C527.7,548.3,522,536.8,515.9,534.4z M302.3,392.9
		c-0.1-5.4-1-10.3-3.5-15.4c-6.6-13.6-15.8-24.5-29.9-30.6c-1.1-0.5-2.2-0.7-3.4-1c-0.2,0.2-0.3,0.5-0.5,0.7
		C285.7,355.5,297.6,371.3,302.3,392.9z M285.3,589.8c7.3,8.5,24.4,7.8,30.5,0.3C305.4,593.7,295.7,592.4,285.3,589.8z M390.7,294.8
		c-0.2-0.1-0.3-0.2-0.5-0.3c-5.7,12.2-11.4,24.5-17.1,36.7c0.3,0.2,0.5,0.3,0.8,0.5c2.4-3.8,4.7-7.6,7.3-11.8
		c-0.2,1.9-0.3,3.2-0.5,4.6c0.1,0,0.2,0,0.4,0C384.3,314.6,387.5,304.7,390.7,294.8z M256.1,586.4c11.7,0.7,28.4-19.7,27.4-31.3
		C278.4,569.7,269.9,580.4,256.1,586.4z M484.8,554.3c2.8-2.7,2.8-2.7,2.8-5.9c-0.1-3.1-0.2-6.3-0.6-9.4c-0.6-4.6-2.6-8.6-4.9-12.7
		C483,536,484,545.4,484.8,554.3z M380.2,343.6c-6.2-5.9-23.7-7.5-30.6-2.2C360.4,340.2,370.3,341.3,380.2,343.6z M310,487.6
		c3.9-12.8,13-20.6,25-25.5C323.9,461.5,308.5,477.2,310,487.6z M298.2,399.3c2.2-8.5,0.5-16.4-3.8-23.7
		c-4.1-7.1-9.3-13.2-16.8-18.2c0.5,1,0.5,1.3,0.7,1.5c4.4,5.1,9.2,10,13.2,15.4c4.1,5.6,7.1,11.8,6.5,19.2
		C297.8,395.4,298.1,397.4,298.2,399.3z M113,529.9c-3.9,3.8-3.7,20.2,0.3,23.6c0.6-6.8,1.2-13.4,1.8-20c-0.3,0-0.6-0.1-0.8-0.1
		c-0.5,2.8-1.1,5.5-1.6,8.3c-0.2,0-0.4-0.1-0.6-0.1C112.4,537.8,112.7,533.9,113,529.9z M289,614.8c0.2-0.2,0.4-0.4,0.7-0.6
		c-3.5-4.4-7.1-8.8-11-13.7C277.6,608.2,278.1,608.9,289,614.8z M379.7,467.8c4.6,0.4,14.3-3.6,16.1-6.5c-1.6,0.6-2.9,1.1-4.7,1.7
		c1.9-2.6,3.5-4.7,5.1-6.9c-0.2-0.2-0.4-0.3-0.5-0.5c-0.6,0.4-1.3,0.7-2.1,1.2c0.7-2.1,1.2-3.8,1.8-5.6c-0.4-0.2-0.7-0.3-1.1-0.5
		c-1.2,2.9-2.5,5.7-3.7,8.6c-0.5,1-0.7,2.3-1.4,3.1C386.5,465.2,383.8,467.7,379.7,467.8z M406.9,459c-4.2,6.9,0.8,22.6,8.5,25.7
		C409.5,476.8,406.6,468.4,406.9,459z M232.2,326.2c0.6-0.2,1.1-0.4,1.7-0.6c-2.9-8.8-5.8-17.7-8.8-26.5c-0.2-0.5-0.9-0.8-1.3-1.2
		c-0.3,0.1-0.5,0.3-0.8,0.4C226.1,307.6,229.1,316.9,232.2,326.2z M254.9,461.3c10.3-0.4,18.9,3.7,27.2,10
		C279.1,464.2,263,457,254.9,461.3z M304.7,352.6c4.7-7.1,9.6-14.3,14.3-21.3C314.1,331.5,305.2,344.5,304.7,352.6z M316.1,593
		c-9,4.3-18.1,5.7-28.1,1.5C291.6,600.5,310.6,600.8,316.1,593z M369.4,561.4c-0.4-7.8-15.7-23.5-22-22.8
		C356.6,544.5,363.6,551.8,369.4,561.4z M396.6,412.7c-6.6-8.2-22.2-8.9-25.6-4.1c4.8-1.7,9.5-2.8,13.9-1c-3.4,1.1-7.1,2.3-10.7,3.5
		c0.1,0.3,0.2,0.5,0.3,0.8C384.9,407.8,389.7,408.6,396.6,412.7z M203,488c-4.2,8.8-8.4,17.5-12.5,26
		C195.7,510.4,203.3,494.8,203,488z M351.3,569.6c-4.1-6.2-10-8.5-15.8-11C338.9,564.6,345,566.7,351.3,569.6z M237.9,411.2
		c-7.1-9.7-27.2-5.1-31.2,2.2C216.9,406.3,227.1,404.6,237.9,411.2z M335.6,586.5c-0.1,0.3-0.2,0.7-0.3,1c7.8,1.9,15.6,3.8,23.4,5.7
		c0.1-0.3,0.2-0.7,0.2-1C351.8,587.6,343.5,587.9,335.6,586.5z M299.7,371.8c2.3-8.3,0.9-16.9,1.2-25.4
		C298.1,354.7,299.3,363.2,299.7,371.8z M424.5,277.5c5-5,11-11.1,16.8-16.9C433.9,264.8,428.6,271.6,424.5,277.5z M276.7,582.6
		c6.1-3.3,14.1-16.1,13.2-20.5C285.7,568.7,281.2,575.7,276.7,582.6z M301.6,478.3c2.3-9.3,1.2-18.4-0.1-27.5c-0.4,0-0.7,0-1.1,0
		C300.8,460,301.2,469.1,301.6,478.3z M239.8,574.2c0.3,0.2,0.7,0.5,1,0.7c4.6-6.8,9.1-13.5,13.7-20.3c-0.3-0.2-0.5-0.4-0.8-0.5
		C247.8,559.9,243.6,566.9,239.8,574.2z M198.3,463.6c-3.6,8-6.9,15.5-10.1,22.7C192.4,484.2,199,470.3,198.3,463.6z M192.7,360.5
		c-2.8,5-2.9,23,0,25.8C192.7,377.7,192.7,369.1,192.7,360.5z M153,522.7c2.7,6.6,5.6,13.6,8.6,20.7
		C162.5,535.8,156.8,523.2,153,522.7z M203.1,431.1c3-2.7,5.7-5.9,9.1-8c3.4-2.1,7.5-3.2,11.5-4.7
		C216.4,416.7,204.6,424.1,203.1,431.1z M187.8,465.4c3.9-3.4,7.6-16.4,5.9-21.3C191.7,451.5,189.8,458.2,187.8,465.4z M298.7,613.5
		c-0.2-1.8-0.4-3.3-0.7-4.8c-0.1-0.4-0.5-0.7-0.8-1.1c-0.3,0.3-0.9,0.5-1,0.8c-0.5,4.3-0.5,8.5,1.8,12.4c0.3,0,0.6,0,0.9,0.1
		c0.5-3.2,1-6.5,1.5-9.7c-0.3-0.1-0.6-0.1-0.9-0.2C299.4,611.7,299.1,612.5,298.7,613.5z M287.8,605.8c-0.4,0.2-0.8,0.4-1.2,0.6
		c0.2,0.7,0.2,1.5,0.6,2.1c1.6,2.6,3.3,5.1,5.1,7.6c0.5,0.7,1.6,1,2.5,1.5c0.1-1,0.6-2.3,0.1-2.8
		C292.7,611.7,290.2,608.8,287.8,605.8z M179.2,262.8c5.1,6,10.2,11.9,15.4,18C193.7,275.4,183,262.9,179.2,262.8z M296.6,405.6
		c1.7-9.3,0.1-18-4.4-26.3C295.5,387.7,295.6,396.7,296.6,405.6z M193.5,536.9c-0.2-0.1-0.5-0.3-0.7-0.4
		c-4.2,6.1-8.4,12.2-12.6,18.3c0.3,0.2,0.6,0.4,0.9,0.6C186.2,549.9,190.6,543.9,193.5,536.9z M315.4,567.8
		c-1.3,6.1,7.4,17.9,13,17.6C322,580.9,317.9,575,315.4,567.8z M409,469.9c0.6-6.1,3.2-12.1,2.1-18.5
		C409.2,457.5,406.5,463.4,409,469.9z M218.6,414.5c-0.1-0.3-0.3-0.6-0.4-0.9c-5.5,1.1-10,3.7-13.6,7.8c0.2,0.4,0.5,0.8,0.7,1.2
		C209.8,420,214.2,417.3,218.6,414.5z M188.6,394.7c2.8-5.7,1.4-16.9-1.9-18.7C187.3,382.1,187.9,388.3,188.6,394.7z M346.2,569.1
		c-0.2,0.4-0.3,0.7-0.5,1.1c5.4,2.6,10.8,5.1,16.2,7.7c0.1-0.3,0.2-0.5,0.4-0.8C357.5,573.1,352,570.7,346.2,569.1z M265.4,578.6
		c5-2.3,13.7-13.4,13.4-16.8C274.4,567.3,269.7,573.1,265.4,578.6z M138.1,549.9c0.2,0.2,0.3,0.4,0.5,0.7c4.2-3.2,8.4-6.4,12.6-9.6
		C144.9,541.5,141.3,545.5,138.1,549.9z M277.6,378.3c1.4-5.4-1.7-14.3-5.6-16.9C273.8,366.8,275.7,372.6,277.6,378.3z M98.5,544
		c2-6.1,3.9-12.1,5.9-18.2c-0.2-0.1-0.5-0.1-0.7-0.2C100.4,531.2,97.8,537.1,98.5,544z M372.6,476.8c-4.4-6-17.5-13-23-9.8
		C358.8,466.7,365.3,472.2,372.6,476.8z M396.5,427.2c-2.1-5-9.2-9.4-13.2-8.4C387.6,421.6,391.9,424.3,396.5,427.2z M376.4,412.9
		c7.7-0.2,8.6-1.4,19,4.1C391.7,411.7,382.7,409.6,376.4,412.9z M257.2,345.1c-5.8-2.9-11.8-4.1-18.1-2.3
		C245.1,343.6,251.2,344.3,257.2,345.1z M377.8,470c3,3.1,9,2.6,12.4,0C386,470,382.1,470,377.8,470z M447.7,534.7
		c1.4,5.9,3.9,11.1,9,14.6C453.6,544.4,450.6,539.5,447.7,534.7z M219.6,472.3c0,0.2,0,0.5,0,0.7c2.5,0.1,5.1-0.2,7.3,0.5
		c2.9,0.9,3.7-0.8,5.1-3C227.5,471.2,223.6,471.7,219.6,472.3z M250.6,584.8c-4.3-1.1-12.2,1.7-14.4,5.1
		C241.1,588.1,245.6,586.6,250.6,584.8z M205.7,434.5c3-3.4,6-6.8,9-10.3C210.4,425.4,206.2,430.3,205.7,434.5z M157.6,534.8
		c-0.5,0.1-1,0.2-1.4,0.3c1.2,4.6,2.4,9.3,3.5,13.9c0.5-0.1,0.9-0.2,1.4-0.4C159.9,544,158.7,539.4,157.6,534.8z M481.2,536.4
		c-0.5,6-1,11.4-1.4,16.8C482.1,549.6,482.8,540.5,481.2,536.4z M230.5,410.4c-5.8-1.9-11.6-1.3-17.2,1
		C219,411.1,224.7,410.8,230.5,410.4z M432.6,412.2c-0.2-0.3-0.4-0.6-0.6-0.9c-3.3,1.8-6.6,3.5-9.8,5.3c0.1,0.3,0.3,0.6,0.4,0.8
		C426.4,416.5,429.9,415.2,432.6,412.2z M436.6,542.2c-0.3,0.3-0.6,0.6-0.9,0.9c1.6,1.8,3.2,3.6,4.9,5.3c0.4,0.4,1.2,0.3,1.8,0.4
		c-0.1-0.6,0.1-1.5-0.3-1.8C440.3,545.4,438.5,543.8,436.6,542.2z M283.2,496.5c-1.1-2.6-6.7-8.1-9-8.6
		C277.3,490.9,280.6,494,283.2,496.5z M424.4,411.9c0.2,0.4,0.4,0.9,0.7,1.3c3-1.5,6-3,9-4.5c-0.2-0.4-0.4-0.8-0.6-1.2
		C430.4,408.9,427.4,410.4,424.4,411.9z M381.8,476.2c-3.3-1.7-6.1-3-8.7-4.4C374.1,474.8,377.1,476.5,381.8,476.2z M444.4,366.3
		c0.4,0.2,0.8,0.5,1.2,0.7c1.6-2.8,3.2-5.6,4.8-8.3c-0.4-0.2-0.7-0.4-1.1-0.6C447.7,360.8,446,363.5,444.4,366.3z M451.4,533.5
		c-0.4,0.2-0.8,0.3-1.3,0.5c1.2,3.1,2.5,6.2,3.7,9.3c0.4-0.2,0.8-0.3,1.2-0.5C453.9,539.7,452.7,536.6,451.4,533.5z M318.4,570.2
		c-0.3,0.2-0.7,0.4-1,0.6c2,3.1,4,6.2,6,9.3c0.3-0.2,0.6-0.4,0.9-0.6C322.3,576.4,320.4,573.3,318.4,570.2z M223.5,470.1
		c0-0.4,0.1-0.8,0.1-1.2c-3.4-0.3-6.9-0.6-10.3-0.9c0,0.3-0.1,0.6-0.1,0.9C216.6,469.3,220,469.7,223.5,470.1z M390.8,426.3
		c1.9,2.5,3.8,5,5.8,7.5C396,430.2,394.2,427.6,390.8,426.3z M515.4,557.2c0.4,0.1,0.8,0.1,1.2,0.2c0.6-3.6,1.3-7.3,1.9-10.9
		c-0.3-0.1-0.6-0.1-1-0.2C516.8,550,516.1,553.6,515.4,557.2z M211.5,347.3c0.4-0.1,0.7-0.2,1.1-0.3c-0.3-2.4,0.5-5.1-2.5-6.8
		C210.5,342.6,211,344.9,211.5,347.3z M257.8,556.2c-0.3-0.2-0.6-0.4-0.9-0.6c-1.5,2.1-3.1,4.2-4.6,6.3c0.3,0.2,0.6,0.5,1,0.7
		C254.8,560.4,256.3,558.3,257.8,556.2z"/>
	<path d="M313,611.8c0.1,0.3,0.1,0.6,0.2,0.9c0,0-0.1,0-0.1,0C313.1,612.4,313,612.1,313,611.8z"/>
	<path d="M463.8,528.1c2,5,3.9,10,5.9,15c-0.2,0.1-0.5,0.2-0.7,0.3c-1.8-4.8-3.6-9.6-5.4-14.3C463.6,528.7,463.7,528.4,463.8,528.1z
		"/>
	<path d="M245.9,541c-2,1.1-4,2.2-6,3.3c-0.2-0.4-0.4-0.7-0.6-1.1c1.8-0.9,3.7-1.9,5.5-2.8C245.2,540.6,245.5,540.8,245.9,541z"/>
	<path d="M366.7,371.6c-2,0.7-3.9,1.4-5.9,2.2c0.1,0.2,0.1,0.4,0.2,0.7c2.4-0.1,4.8-0.2,7.2-0.3c-9,1.4-16.5,5.7-23.7,10.9
		C350.4,378,357.2,372.5,366.7,371.6C366.8,371.6,366.7,371.6,366.7,371.6z"/>
	<path d="M401.2,322.2c-2.5,6.2-5.1,12.4-7.5,18.4C394.2,333.9,395.2,327,401.2,322.2z"/>
	<path d="M272.5,472.9c-13-5.8-25.4-3.2-37.7,2.3C246.2,467.7,263.6,466.6,272.5,472.9z"/>
	<path d="M123.6,544.9c0.2-10.9,6.5-26,14.4-26.5C129.5,525,126,534.2,123.6,544.9z"/>
	<path d="M490.7,536.1c-2.7-5.7-5.8-12.2-8.6-18.2C487,522.9,489.5,529.6,490.7,536.1z"/>
</g>
</svg>
