<?xml version="1.0" encoding="utf-8"?>
<!-- Generator: Adobe Illustrator 24.2.3, SVG Export Plug-In . SVG Version: 6.00 Build 0)  -->
<svg version="1.1" id="Layer_1" xmlns="http://www.w3.org/2000/svg" xmlns:xlink="http://www.w3.org/1999/xlink" x="0px" y="0px"
	 viewBox="0 0 595.3 841.9" style="enable-background:new 0 0 595.3 841.9; fill: #215342;" xml:space="preserve"
	 height="350" width="450" transform="translate(-60, -80)">
<g>
	<path d="M436.7,496.8c0.7-5.5,10-11.5,18.4-11.9c3.6-0.2,7,0.8,10.5,1.7c3.4,1,6.9,1.7,10.6,1.8c-2-0.7-3.9-1.4-7.8-2.8
		c6.2,0.6,10.4,1.1,14.5,1.5c0.1-0.5,0.2-0.9,0.3-1.4c-3.8-1.5-7.6-2.9-11.4-4.4c0.1-0.2,0.1-0.5,0.2-0.7c6.1,1.5,12.2,3,19.8,4.8
		c-5.2-2.7-9.3-3.7-15.7-4.8c11.5-0.2,20.5,2.1,31.4,4.4c-8.5-5.2-16.4-5.7-24-8.7c20.7-0.2,39.7,10.4,50.2,27.8
		c-3.3-2.4-6.7-4.8-10-7.2c-0.2,0.3-0.5,0.6-0.7,0.8c1.8,1.2,3.6,2.5,5.4,3.7c-8.9-2.9-17.2-5.5-26.3-4.6
		c13,4.8,25.2,11.1,37.8,17.5c-14-1.9-26.3,3-40.1,10c9.8-1.6,17.8-2.5,26.5-0.7c-8.3,1.6-16,3.1-23.6,4.6
		c10.1,2.9,19.4,6.7,28.8,13.9c-11.5-3.3-21.6-5.7-32-2.2c9.3-0.5,18.2,0.9,29.1,4.8c-11.4-1-20.5-0.8-29.4,2.2
		c8.4-0.6,16.3,0.6,25.4,5.7c-11-1.7-20.1-2.6-28.8,1.8c2.5-0.4,5.1-1,7.6-1.1c2.9-0.2,6-0.7,8.6,0.1c9.8,3.1,19.2,7,29.8,6.5
		c4.5-0.2,8.8,3.1,12,6.4c9.3,9.4,21.8,16.8,19.5,33.3c-2,14.3-5.4,27.5-18.4,36c-0.5,0.3-1.4,0.9-1.6,0.7c-0.5-0.4-1-1.2-0.9-1.8
		c0.1-2.5,0.5-5.1,0.8-7.9c-3.8,6.4-7.4,12.6-11.2,18.6c-1.4,2.2-2.8,5.7-6.2,4.4c-3.5-1.3-2.1-5-2-7.7c0-1.4,1.1-2.8-0.1-4.6
		c-2.6,1.8-5.7,2.8-6.6,6.4c-2.4,9-6.2,16.7-17,17.9c-2.2,0.2-2.1-0.8-2.2-2.1c-0.4-7.2-5.1-11-10.9-13.9c-0.4-0.2-1.1-0.4-1.2-0.2
		c-3.1,5.2-10.3,5.7-12.9,11.5c-2.3,5.2-6.4,6.1-10,2.4c-5.6-5.8-12.9-7.3-19.6-6.8c-12.2,1-20.3-5.2-28.3-12.4
		c-5.4-4.9-10.7-10.1-13.1-17.4c-0.6-1.8-2.1-1.6-3.5-1.6c-12.9,0-25.9,0-38.8,0c-4.6,0-7.4,3.6-11.1,5.5c-4.1,2.1-9,4.3-11.1,7.9
		c-2.7,4.5-5.9,8.2-9.7,11.5c-4.2,3.7-8.5,7.5-16.1,8.6c2.9,0.3,4.2,0.5,5.8,0.7c-6.4,2.1-12.8,1.5-18.9,3.3
		c-1.9-0.7-3.8-1.3-6.3-2.2c0.9,1.1,1.3,1.7,2.4,3c-4-1.9-7.2-3.5-10.4-5c-0.2,0.3-0.5,0.7-0.7,1c1,0.6,2,1.2,2.9,1.8
		c-14.4-6-27.5-13.8-39.9-23.1c-10.3-7.7-21.4-14.1-35.4-13.2c-14.3,0.9-28.7,0.3-43,0.2c-3,0-4.5,0.7-5.2,4.1
		c-2.4,11-8.1,20.1-17.4,26.7c-7.3,5.2-13.7,11.5-20.2,17.6c-3.8,3.5-8.4,5.1-13.3,6.7c-4.3,1.4-4.8,7-6.4,11c-1,2.6,1.4,7-2.1,8
		c-4.1,1.2-7.9-1.2-10.5-4.8c-2-2.8-3.2-5.9-3.2-9.3c0-4.5-1.4-8.1-5.6-10.9c0.9,5.7-2.6,10.1-3.5,15.2c-0.6,3.7-3.4,7.2-7.2,8.4
		c-3.8,1.1-6.2-1.7-7.8-4.8c-1-1.8-2.6-2.5-4.4-3c-8.9-2.7-14.8-8.7-18.6-16.8c-1.7-3.6-4.4-4.7-7.7-5.4c-2-0.5-2.9,0.4-2.5,2.4
		c0.1,0.5,0.3,1,0.3,1.6c0.6,4,2.7,9-0.7,11.4c-1.4,1-7.1-2.8-10-5.4c-8.7-8.1-9.6-19.4-10.3-30.1c-0.7-10.8-0.8-22.1,1.6-32.5
		c3.7-16.2,16.2-25.4,31.2-31c4.5-1.6,7.4-3.3,8.9-8.2c1.9-6.3,6.6-11,10.7-16.2c-5.3,3.7-10.7,7.4-17.1,11.9
		c5.7-10.6,12-19,18.9-27.1c-3.7,2.9-7.3,5.8-12,9.4c2.5-8.4,7-14.1,11.4-20.2c-5.2,4.4-10.5,8.9-16.9,14.3
		c1.2-6.5,5.1-9.9,7.5-15.4c-6,4.1-11,7.5-18,12.3c7.8-11.3,14.9-20,23.8-27.5c-4.2,2.1-8.4,4.2-13.6,6.9c4.8-7,10.5-11.6,15.5-17.2
		c-4.8,2.4-9.6,4.9-15.1,7.7c5.2-6.2,10.9-10.7,16.6-15.4c-5.3,3-10.6,5.9-16.1,9c1.6-4,11.4-13.1,20.4-19.1
		c7.7-5.1,16.1-9.1,24.4-13.2c-7,1.4-13.3,4.3-19.5,7.6c-6.1,3.3-12.1,6.9-18.4,9.9c11.5-11.8,25.8-19.1,41.1-24.7
		c-11.4,0.6-21.4,5.7-32.1,8.8c10.8-4.9,18.2-14.8,29.5-19c-8.7,1.7-16.7,0.6-24.9-5.3c5.7,1.2,10.4,1.5,16.1,0.8
		c-4.3-1.8-8.5-1.5-11.5-5c3,0,5.6,0,9.1,0c-3.9-2.9-7.8-4.6-9.8-8.8c1.7,0,3,0,4.7,0c-2-3.6-4.3-6.6-3.4-10.9
		c1.4,2.1,2.7,4.1,4,6.1c-1.1-6.2-2.5-12.1-2.6-18.2c0-2.4-0.5-5.2,2.3-6.1c2.8-0.9,2.9,2.3,3.7,3.9c3.8,7.2,8.9,13.4,14.7,19.1
		c-2.8-1.7-5.6-3.4-10.2-6.1c3.5,5,5.8,8.5,8.4,12.1c-2.2-0.6-4.1-1.1-6.1-1.6c-0.1,0.3-0.3,0.6-0.4,0.9c5.2,3.2,10.3,6.5,16.1,10
		c-2.9,0-5.2,0-7.7,0c5.7,4.4,15.8,2.9,18.7-2.9c-6.1-0.5-10.3-4.1-14.1-8.4c3.1,1.5,5.8,4.2,10.5,3.6c-4.2-2.3-8-4.2-10.6-8.4
		c2.8,1.4,5.2,2.6,7.5,3.7c-25.4-20.7-44.5-44.9-47.9-78.8c-0.1-0.9-0.2-1.8,1.2-2.2c3.5,4.6,7,9.4,10.5,14.1
		c-5.5-21.3-5.4-42.8-4.7-64.3c0.8-23.3,3-46.4,10.7-68.6c5.1-14.8,13.2-17.9,27.2-10.9c11.6,5.9,20.8,14.8,30.3,23.5
		c1,0.9,2,1.9,3.3,2.5c-4.6-7.5-10.9-13.5-18.6-21.2c13.2,9.1,23,18.5,32.5,30.7c-1.2-5.3-2.1-9-3-13.2c10,19.8,26.3,35.4,32.5,56.8
		c-2-5.9-4-11.9-6.1-17.8c-2.2-6.1-4.4-12.1-7.4-20.2c7.9,13,12.8,24.9,17.2,37c-1.4-8.8-2.7-17.6-4.3-27.9
		c7.2,17,15.8,31.8,18.8,48.9c-1.9-8.4-3.8-16.9-5.7-25.3c5.2,12.3,14.7,22.9,15.5,37c1-12.4-3.4-23.9-6.9-36.5
		c6.3,11.5,12.2,22,13.7,34.4c0.1,1.2-0.2,2.8,1.4,3.3c9.7,3,19.4,5.9,30.5,9.3c-9.7-6.8-18.6-12.2-27.8-17.2
		c9.8,2.3,19.2,5.7,28.5,9.7c-5.4-3.2-10.7-6.4-17-10.1c17,1.6,30,8,38.4,23c0.3-8.6-6.8-25.4-20.7-29.1c6.1-0.5,14.2,4.3,25.4,15.4
		c2.8-4.6,5.8-9,11.1-13.4c-1.5,2.2-2.2,3.3-4.1,6.1c4.6-3.8,7.6-6.3,10.6-8.9c-4.4,6.5-8.8,13-11.3,22.5
		c6.4-8.8,12.9-14.9,21.7-21.1c-4.4,5.3-8.4,8.7-11.2,15c11.9-11.2,25.6-17.3,37.4-26.2c-4.4,4-8.8,8-13.2,12
		c12.4-5.9,26-10.6,27.9-27.3c-0.5,2.9-1.3,5.8-1.5,8.8c-0.1,3-1.5,6.1,0.5,9.6c3.3-16.3,9.3-30.7,22.7-43.9
		c-7.1,12.4-12.5,23.1-13.7,35.3c2.2-5.2,3.6-10.8,7-15.9c-1.2,6-2.3,11.6-3.5,17.3c5-11.7,9.8-23.4,16.6-34.1
		c-5,11.7-9.2,23.7-10.7,36.4c9.6-36.6,30.8-65.5,58.9-89.9c-14.9,16.5-28.9,33.7-38.2,54.2c0.7-0.9,1.3-1.9,2-2.8
		c16.1-23.9,33.1-47.2,56.8-64.3c16.9-12.2,26.1-9,31.9,11.1c7.5,26.1,9.7,52.8,8.3,79.9c0,0.6,0,1.2,0,3.4c3.9-8.3,5.1-15.8,7-23.7
		c3.2,24.1,0.8,47.2-5.7,69.9c-1.8-1.5-1.6,0.8-1.8,1.2c-4.1,8.3-8.6,16.4-13.9,24c-3.1,4.5-5.1,9.6-6.3,15
		c10.6-11.7,17-25.6,22-40.3c-0.1,1.1-0.1,2.2-0.3,4.7c2.8-5.2,4.9-9.1,7.1-13c-1.8,13.2-9.3,24-15.5,37.3
		c6.5-6.5,10.5-12.9,16.9-17.6c-7.5,17-19.1,31-29.2,46.1c3.4-2.2,6.6-4.4,8.9-7.8c6.9-10.6,13.4-21.5,25.4-27.4c1-0.5,2-1,5-2.5
		c-8.3,10-17,16.6-24,26.7c5.2-2.4,9.2-4.4,15.3-7.2c-6.5,5.6-11.3,9.7-16.2,13.8c8.4-2.7,16-6.7,23-11.8
		c-6.3,7.3-13.7,13.2-22.4,19.1c7.1,0,13.1,0.6,20.4,2.8c-10.7,0.8-20.2,0.7-29.6,6.9c15.4-1.3,29.1,0.7,43.7,6.2
		c-12.1,0.1-23.1-0.8-35,3.4c11.8,1.5,21.9,3.8,32.3,8.8c-7.7-0.8-14.6-2.3-22.4,0.2c9.1,0.7,16.9,2.2,25.5,6.4
		c-9-0.2-16.6,0.2-24,2.4c8.6,0.2,16.8,1.8,25.9,4.3c-9.3,1.5-18,0.4-27.6,4.3c11.2,0.9,20.8,2.1,32,1.6c-7.5,2.8-13.8,3.4-22.3,4.7
		c10.4,1.8,18.7,3.1,27.2,7.7c-10.6-1.6-20.2-2-31.4-0.4c14.1,4.2,25,10.7,33,21.5c-17.1-13.5-36.7-18.9-60-17.9
		c4.8-3.9,8.9-2.3,12.9-3.1c-1.2-0.3-1.9-0.4-4-0.9c4.6-1,7.8-1.7,11.1-2.4c0-0.3,0-0.5,0-0.8c-3.6,0-7.2,0-10.8,0
		c0-0.3-0.1-0.7-0.1-1c4.1-0.8,8.3-1.6,12.4-2.3c-6.8-1.2-13.1-4.6-21.3-3.9c1.6-0.9,2.2-1.2,3-1.6c-3-0.6-5.7-1.1-8.8-1.7
		c5.4-0.8,10.6-1.5,15.7-2.2c-9.1-0.1-18.2,2.1-28.6,0c6.9-0.7,12.4-1.3,17.9-1.8c0-0.4,0-0.8,0-1.2c-5.9,0-11.8,0-17.7,0
		c0-0.4,0-0.7,0-1.1c3.5,0,7.1,0,10.6,0c0-0.2,0-0.5,0-0.7c-3.6,0-7.2,0-10.9,0c9.2-2.1,18.4-0.1,29.4,0.1
		c-14.4-4-27.8-1.9-40.5-5.9c12.1-1,23.9-2,35.8-2.9c-13.7-0.3-27.4,0.4-41-2.7c16.5,0.6,32.8-2.1,49.3-3
		c-26.6,0.3-53.3,1.8-79.9-1.3c3.9-0.4,7.8-0.7,12.5-1.2c-5.4-0.7-10.3,0.5-15.7-2c9.7-0.7,17.5-4,24.8-8.7
		c-4.6,1.9-9.3,3.8-13.9,5.7c10.8-9.8,25-11.9,37.9-16.9c-11,2.2-22.4,0.6-33.7,4.2c5.9-4.2,12.2-6.5,18.4-8.9
		c-8.1,0.8-16.2,1.6-24.3,2.4c2.5-2.1,3.6-2.5,12.3-4.1c4.3-0.8,8.7-1.6,12.9-2.9c-4.8,0.3-9.6,0.5-14.3,0.8
		c-0.1-0.3-0.1-0.6-0.2-0.9c2.1-0.7,4.3-1.5,7.2-2.5c-2-0.2-3.1-0.3-6.1-0.6c5.6-1,9.5-1.6,14.8-2.6c-10.7-0.6-20.1-1.1-29.1-1.7
		c1.7-1.4,3.3-2.2,8.6-2.7c3.3-0.3,6.6-0.1,9.8-0.5c-8.6-1.3-17.2-2.9-25.9-1.2c12.2-4.2,25.1-1.2,39.5-3.6
		c-14.2-0.7-26.4-1.4-39.6-2.1c12.4-2.4,24.1,0.3,37.6-2.1c-13.4-0.6-24.7-1.2-36.2-1.7c9.4-5.2,20.2-7.3,30.3-15
		c-8,2.7-14.3,4.9-20.7,7.1c-0.2-0.4-0.3-0.7-0.5-1.1c7-4,14.1-7.9,21.1-11.9c-0.1-0.3-0.2-0.6-0.4-0.9c-8.2,2.5-16.3,5.1-24.5,7.6
		c-0.2-0.3-0.4-0.6-0.5-0.9c1.7-1.3,3.4-2.7,6.3-4.9c-4.3,1.1-7.2,1.9-10.2,2.6c-0.1-0.2-0.2-0.4-0.2-0.6c2.8-1.4,5.6-2.8,8.3-4.3
		c-7.6,0.9-15.4,0-23.6,4.4c7.4-6.2,15.7-8.2,21.9-13.7c-9.1,3.9-18.2,7.7-28,11.9c5.7-6.1,13.1-8.3,20.5-13.6
		c-11.1,3-20.5,5.7-30.6,11.8c6.7-8.5,14.7-12.4,21.2-18.1c-13.3,5.6-25.4,13-35.1,26.8c3.4-8.3,8.3-13,13.3-18.8
		c-6.3,1.3-10.4,5-16.5,9.4c3.3-3.6,5.1-5.5,8.2-8.9c-11.8,6.1-17.3,14.6-19.8,25.4c-2.2-9.8,3.2-17.3,23.1-32
		c-8.6,0.2-15.6,6.6-23.8,21.9c-1-6.1,2.9-11.6,16.1-22.5c-7.6,1.4-13,5.3-18.4,11.9c3.7-7.5,9-11.4,16-16.2
		c-5.1,1.3-8.4,2.1-12.6,3.2c1.5-1.1,2.3-1.7,3.7-2.8c-4.2,0.4-7.1,4.2-11,1.8c0.4-0.5,1-1.2,2.3-2.7c-6.2,2.1-11.3,3.8-18,6.1
		c5.3-3,9.3-5.3,13.3-7.6c-6.6,2.6-13.4,4.8-19.2,10c0.5-3.7,3.3-5.3,5.7-8.3c-6.3,3.4-10.5,7.7-15.4,11.3c1.4-2.2,2.8-4.4,4.1-6.4
		c-10.8,3.6-7.7,16.1-14.6,23.7c0-3,0-5,0-7.7c-2.7,4.5-0.9,9-2.3,13.7c-0.7-2-1.2-3.4-1.9-5.1c-1.7,3-1.1,6-1.3,9
		c-1.2-1.3-2.2-2.4-3.5-3.8c-0.2,0.8-0.3,1.4-0.5,2.3c-10.4-18.2-28.4-18.8-45.8-21c13.1,3,26.4,5.6,36.9,15.2
		c-12.4-9.8-26.7-10.2-43.7-7.9c6.4-2,10.7-1.8,15.1-2c-12.1-0.2-23.8-3.1-38.1-4c4.5,1.9,6.9,2.8,10.2,4.3
		c-6.5,0.7-11.7-0.8-17.1-0.5c5,1.1,9.9,2.2,15.4,3.4c-4.8,2.2-9.5,0-15.3,1.1c3.3,1,5.4,1.6,8.2,2.4c-5.7,2.2-10.8,1.1-18,0.1
		c6.1,2.7,10.7,2.4,16.8,3.1c-11.6,2.7-21.7,3.3-31.9,2.9c6.8,1,13.6,1.9,21.6,3.1c-10.5,4.2-20.5,5-31.1,6.2
		c6.1,2.1,11.6,0.2,17.3,0.9c-3.8,1.2-7.6,2.5-13.2,4.3c5.2-0.5,8.7-0.9,13.7-1.4c-2.8,1.4-4.3,2.1-7.2,3.5c3.1-0.3,4.7-0.5,6.4-0.7
		c-13.5,5.3-28,8.5-39.6,19.6c6.2-3.2,11.7-6.1,17.1-8.9c0.1,0.2,0.3,0.3,0.4,0.5c-7.7,5.5-15.5,11-23.2,16.6
		c0.1,0.2,0.3,0.5,0.4,0.7c5.7-2.8,11.4-5.6,17.2-8.5c0.1,0.2,0.2,0.4,0.4,0.5c-3.8,2.8-7.6,5.7-11.5,8.5c0.1,0.2,0.2,0.4,0.4,0.6
		c3.8-1.7,7.6-3.4,11.3-5.1c0.1,0.2,0.2,0.4,0.4,0.5c-2.7,1.9-5.4,3.8-9.6,6.8c6-1.7,10.1-2.9,14.3-4.1c-8.5,3.7-16.3,8.3-21.6,16.3
		c3.4-2.4,7.2-3.2,11.2-4.4c-3.6,3.9-7.1,7.7-11.1,12c4.7-3.4,9-6.5,13.2-9.5c0.1,0.1,0.2,0.3,0.3,0.4c-6.1,5.7-12.3,11.4-18.4,17.2
		c7.2-3.9,12.2-10.4,20.9-15c-10.5,9.5-18.2,19.5-28.6,27c3-1.7,6.1-3.4,9-5.2c3-1.9,5.8-4,9.3-5.3c-1.9,1.4-3.7,2.7-5.6,4.1
		c0.3,0.4,0.6,0.8,0.9,1.2c1.6-0.9,3.3-1.8,4.9-2.7c-13.8,8.9-21.9,23.4-33.6,34.7c3-2,6.2-3.8,9.1-5.9c2.9-2.1,5.6-4.5,9.2-6.2
		c-1.5,2.5-2.9,5.1-5.2,9.1c8.9-7,15.5-14.1,23.8-22.6c-5.7,10.4-11.2,18.1-19.4,25.7c7.3-2.8,11.4-7.5,16.9-10.3
		c-3.4,3.7-6.8,7.3-10.8,11.6c7.2-3.6,11.8-9.1,18.4-14.8c-6.6,10.2-14.6,16.3-23.5,21.4c8.2-2.5,15.1-7.3,22-12.1
		c-5.2,5.6-11.5,9.9-18,13.9c5.9-1.8,10.9-5.4,16.7-7.9c-12.7,9.9-25.4,19.8-39.3,30.6c5.5-2.4,9.1-5.4,12.7-8.2
		c-6.5,8.1-15.4,13.1-24.4,17.8c10.3-2.7,18.5-9.3,27-15.2c-7.1,7.1-15.2,12.7-23.9,17.9c11.8-7.6,24.7-7.7,38.7-7.1
		c-6.2,0.6-11.5,1.1-16.8,1.6c5.2,0.1,10.3,0.7,15.5,1.5c-7.3,0.2-14.4,1.5-21.2,4.1c8.3-1,16.5-1.9,24.7,1.3c-3.9,0-7.7,0-11.6,0
		c7.9,1.3,15.4,3.5,23.4,6.6c-8.1,0.8-15.3-1.9-22.4,0c10.1,3.6,20.9,5.4,31.6,7.8c-3.7-0.3-7.3-0.7-11-1c0,0.2-0.1,0.3-0.1,0.5
		c1.3,0.3,2.5,0.6,5.2,1.3c-5.5,0-9.5,0-14.9,0c5.4,2.7,10,1.7,15.9,2.9c-3.3,0.4-5.2,0.6-8.9,1.1c2.8,0.5,3.8,0.7,5,0.9
		c-1.5,0.3-2.7,0.6-5.8,1.4c9.3,1.8,16.9-0.7,24.4,1.1c-3.9,0.6-7.6,1.1-11.3,1.7c0,0.1,0,0.3,0.1,0.4c4.8,0,9.5,0,15.7,0
		c-5.9,1.3-10.5,2.4-15.1,3.4c0,0.2,0.1,0.4,0.1,0.6c5.5-0.5,11-1,16.5-1.6c0.1,0.2,0.1,0.5,0.2,0.7c-1.9,0.6-3.7,1.2-5.6,1.8
		c0,0.2,0.1,0.4,0.1,0.6c3.5-0.8,7-1.5,11-2.4c-3,3.2-7,3.7-10,6.1c4.4-1.3,8.8-2.6,15.3-4.6c-4.3,2.9-6.8,4.5-10.1,6.7
		c4.7-0.4,7.9-2.5,12.5-4.5c-5.7,5.3-11.6,7.9-17,11.5c4.6-1.6,9.2-3.1,14.7-5c-1.7,1.3-2.6,1.9-5.3,4c3.5-1.5,4.9-2.1,7-3
		c-3.8,4.9-8.7,7.2-13.6,9.8c5.9-1,11.9-1.9,19.7-3.2c-3.9,2.3-6.3,3.8-9.3,5.6c9.6-1.9,18.1-4.6,24.3-11.8
		c-4.3-4.1,2.6-3.7,2.6-6.4c-1.5,0.5-3,0.9-6.5,1.9c5.2-3.9,9.1-6.5,12.7-11.4c-6.3,3.3-11.5,5.6-18.4,6.3
		c5.5-3.6,10.2-6.7,14.9-9.9c-7.5,3-15.2,4.5-24,5.6c5.6-2.7,10.4-5,15.2-7.3c-6.9,1.4-13.6,2.4-20.8,2.5c5.1-1.4,9.9-2.6,14.8-3.9
		c0-0.3-0.1-0.6-0.1-0.9c-4.4,0-8.9,0-14.1,0c1-1.1,1.5-1.7,2.4-2.6c-4.8-1.4-10.1-0.6-13.8-4.1c0.8-0.1,1.8-0.3,3.6-0.7
		c-5.7-1.3-10.7-2.5-15.8-3.7c0.1-0.6,0.2-1.1,0.3-1.7c3.2,0.5,6.4,0.9,10.9,1.6c-7.8-3.9-14.5-6.7-22.1-6.6
		c5.8-0.8,11.4,0.4,18.6,2c-5.8-3.4-10.6-4.3-16.3-5.5c6.2-0.3,11.4-0.2,17.6,2.8c-3.6-5.3-6.4-9.3-11.9-12.6
		c8.1,1.8,13.2,5.6,17.1,11.6c6.4,9.9,19.7,15.3,30,11.6c-16.3-0.6-24.1-10.6-31.3-22.1c-3.3-5.2-9.6-8.6-16.8-8.9
		c1.6-5.6,7.9-5.6,11-10.3c-3.7,1.4-6.7,2.5-9.8,3.6c-0.1-0.2-0.2-0.3-0.2-0.5c3.8-1.8,7.7-3.6,11.5-5.4c-0.1-0.2-0.2-0.4-0.3-0.7
		c-2.7,0.9-5.3,1.8-8,2.7c6.8-4.3,14.8-6,21.4-10.8c-0.4-0.4-1.3-0.9-1.2-1c3-5.8,9.8-3.8,14-7.4c-0.2-0.2-0.8-0.6-1.8-1.5
		c4.1,0.6,7.4,1.2,11.6,1.9c-1.2-1.4-1.9-2.2-2.9-3.3c1.5,0.4,2.6,0.8,6,1.8c-5.6-3.2-8.7-6.2-13.5-4.1c-4.2,1.8-8.8,3.1-12.9,5.1
		c-8.1,4.1-14.9,11.7-25.2,8.3c5.7-5.5,12.7-10.9,18-17.9c-0.3-0.1-0.6-0.2-1.2-0.4c8.5-5.3,11.3-17.5,23.3-18.1
		c-1.6-0.3-3.2-0.5-7.1-1.1c6-1.3,9.8-2.1,13.8-2.9c-1.9-1.7-4.7-2-6.1-4.8c5,1,9.7,1.9,14.7,2.9c-0.8-3.2-4.3-2.9-5.7-5.6
		c4.6,0.2,8,2.8,12.2,4c-1.6-1.1-3.3-2.3-4.9-3.4c5.2-0.1,8.9,2.4,12.8,4.9c-1.5-2.3-2.9-4.5-4.8-7.4c5.5,3.1,8.4,7.8,12.9,13.5
		c-1.2-3.3-1.8-4.9-2.5-6.9c3.1,2.9,4.8,6.3,7.5,11.9c-0.9-4.4-1.4-6.4-1.9-9c3.5,3.3,4.8,7.3,6.9,10.9c-0.8-3-1.6-6.1-2.7-10.2
		c7.6,10.2,10.3,20.8,11,32c7.5-11.8-0.2-30.5-22.2-52.4c7.6,4.6,12.9,10,18.7,14.9c-1.2-2.4-2.3-4.7-3.5-7.1
		c0.3-0.2,0.5-0.4,0.8-0.5c2.8,3.9,5.5,7.7,8.3,11.6c-2.5-7.7-5.6-15.2-10.5-21.7c4.6,4.2,8.7,8.9,12.3,14.1
		c-1.8-3.7-3.6-7.4-5.8-12c5.2,5.8,8,11.9,11.6,18c-0.2-2.7-0.4-5.5-0.7-8.2c0.2,0,0.4-0.1,0.5-0.1c1.3,5.5,2.5,11.1,4,17.9
		c0-6.1,0-10.9,0-15.8c2,5.6,2.1,11.5,3.2,17.2c1.4-16.3-4-30.9-10.3-45c4.1,3.6,8.5,13.8,12.9,30.9c1-9.3-2.2-17.5-2.7-26.1
		c1.3,4.3,2.7,8.5,4,12.8c0.4-8.7,1.9-17.5-0.1-26.4c0.9,2.3,1.9,4.5,2.6,6.8c0.8,2.4,1.3,5,2.3,7.3c0.2-7.1,0-14.1-5.3-20.1
		c1.3,1.2,2.7,2.4,3.9,3.7c1.2,1.3,2.1,2.8,4.3,5.7c-1.1-3.9-1.7-6.1-2.4-8.8c3.2,3.4,3.5,7.5,5.1,12.2c2.1-8.1-1.6-13-6.6-18.4
		c4.5,1.5,6.2,5.1,9.4,8.3c-0.2-3.6-0.4-6.4-0.6-10c2.7,5.7,1.3,11.1,2.7,16.6c1.5-1.3,2.9-2.4,4.2-3.5c-5.7,7.6-8.2,16.5-10.6,25.5
		c2.7-5.7,5-11.6,11.7-17.3c-5,7.5-8.1,13.5-9.4,21.1c2.3-4.3,4.3-7.9,6.2-11.6c-3.4,9.5-4.9,19.1-5,30.1c0.7-4.2,1.1-7.4,1.8-10.6
		c0.7-3.1,1.5-6.2,2.7-9.2c-1.2,9.3-1.7,18.5-1.1,27.9c1.1-7.4,2-14.8,5.7-21.5c-2,7.9-2.6,15.9-1.7,25.9c0.7-8.2,1.2-14.6,3.8-21.3
		c0,3.9,0,7,0,12c2.3-7.9,4.8-13.6,9.2-20.1c-2.1,5.5-3.8,9.5-4.2,15.5c3.5-7.7,6.8-13.7,13.4-20.3c-1.8,3.6-2.5,5.1-3.3,6.6
		c3.5-3.6,6.7-7.5,12.9-11.5c-13.3,13.9-18.9,28.8-21,45.3c2.7-7.7,5.1-15.5,10.6-23.6c-2.2,7.6-4,13.6-5.8,19.7
		c2.8-6,4.9-12.1,8.6-18.2c-1.4,5.5-2.8,10.4-4.1,15.3c0.2,0.1,0.5,0.2,0.7,0.3c0.5-1.1,1-2.3,1.9-4.3c-0.4,3.4-0.8,5.8-1.1,8.2
		c3.1-11,9.3-20.3,15.3-29.7c-0.3,1.2-0.7,2.5-1.3,4.9c6.4-9.2,13.1-15.8,24.5-13.9c-2,1.3-4.1,2.7-6.1,4c5.2-1,9.8-3.7,16.3-3.1
		c-5.3,1.5-9.6,3-13.9,6.2c4.7-0.2,8.3-2.6,12.6-1.7c-3.2,1.7-6.2,3.3-9.1,4.8c0.1,0.3,0.2,0.5,0.3,0.8c4.9-1.2,9.7-2.5,14.6-3.7
		c0.1,0.2,0.2,0.4,0.3,0.7c-2.8,1.3-5.5,2.6-8.3,4c0.1,0.2,0.2,0.5,0.3,0.7c3.3-0.8,6.6-1.7,9.9-2.5c0.1,0.2,0.2,0.5,0.3,0.7
		c-3.4,1.7-6.8,3.5-10.2,5.2c0.1,0.2,0.2,0.4,0.2,0.6c4.1-1.4,8.2-2.8,12.3-4.2c0.1,0.2,0.2,0.3,0.4,0.5c-2.6,1.6-5.2,3.2-8.9,5.6
		c4.5-0.3,7.8-0.5,11.1-0.8c0.1,0.2,0.2,0.5,0.3,0.7c-2.5,1-5.1,1.9-9.6,3.7c6.2,0.3,10.3,0.6,14.5,0.8c0,0.2,0.1,0.5,0.1,0.7
		c-1.6,0.4-3.2,0.8-5.6,1.4c4.6,1.9,9.2,1.4,13.5,4.1c-1.9,0-3.2,0-6,0c4,1.7,6.6,2.8,9.2,3.9c-0.1,0.3-0.1,0.6-0.2,0.9
		c-2.4-0.3-4.8-0.5-9-1c5.3,2.5,8.9,4.3,13.5,6.5c-2.1,0.2-3.1,0.4-4.5,0.5c2.3,2.1,5.2,3.3,6.1,6.5c-0.8,0-1.7,0-3.6,0
		c1.7,1.1,2.7,1.7,4.2,2.6c-3.5,1.8-5.8,0.3-7.5-1.1c-6.3-5.2-13.7-8.6-20.9-11.7c-7.8-3.4-23.2,0.7-25.2,11.5
		c2.4-1.4,3.7-4.1,6.8-4.6c-0.5,0.8-0.8,1.3-1.4,2.3c5.4-2.3,10.2-5,17.6-4.5c-2.2,1.1-3,1.5-3.8,1.9c9.5-1.9,15.7,4.2,22.7,8.2
		c-0.3,0.2-0.7,0.4-1.2,0.6c3.4,3,7.6,3.7,11.7,4.9c-1.4,0-2.9,0-4.3,0c0,0.3-0.1,0.6-0.1,0.8c3.1,0.6,6.1,1.1,9.5,1.7
		c-0.5,0.6-1,1.1-1.7,1.9c2.2,0.2,4,0.3,5.9,0.5c-8.8,5-13.2,13.1-16.7,21.9c-3.1,7.8-8.8,13.4-17.5,17.4c6.7,0.3,10.7-2.6,14.6-5.8
		c4.1-3.4,6-8.3,8.8-12.7c2.7-4.3,5.9-8.1,10.1-12.1c-1.9,6.3-3.6,11.8-5.3,17.3c0.2,0.1,0.4,0.2,0.5,0.3c0.9-1.5,1.7-2.9,3-5
		c-0.5,5.4-5.2,8.8-5.1,13.6c0.3,2.2-3.2,3.3-0.6,6.1c-1,0.7-1.9,1.3-4.2,2.9c3.6-1,5.7-1.6,8.5-2.3c-2.5,4.5-7.4,4.9-11.3,9.3
		c-0.3,0.1-2.7,0.7-5.4,1.4c0.7,0.9,1.3,1.6,2,2.4c-3.4,2.2-6.9,0.5-11.5,0.3c4.5,3.1,8.6,3.8,15,3.8c-8.9,2.9-15.4,1.1-22.3-0.2
		c4.4,3.1,8.9,6.3,13.5,9.5c-2.8-0.4-5.7-0.9-10.6-1.7c4.3,2.3,6.9,3.7,9.6,5.1c-1,1.6-2.5,0.8-4.8,1.1c2.8,1.1,4.7,1.8,6.4,2.4
		c-7.6,4-13.5-3.4-22.2-4.6c5.6,5,9.8,9,15.7,10.6c-1.1-0.9-2.2-1.8-4.5-3.7c3.6,1.8,5.9,2.9,8.8,4.4c-0.5-1.3-0.8-2.1-1-2.7
		c1.8,1.3,3.7,2.5,6.7,4.6c-1.1-2-1.5-2.8-2.2-4.1c3.6,1.8,6.5,3.3,10.6,5.4c-1.2-1.6-1.7-2.2-2.4-3.2c2.4,0.9,4.4,1.7,7.4,2.8
		c-1.7-1.5-2.5-2.3-3.6-3.2c2.7-2.6,6-0.4,8.9-1.8c-3.8-0.5-7.4-1-11-1.5c0-0.2,0-0.4,0-0.6c3.8,0,7.5,0,11.3,0c0-0.2,0-0.3,0-0.5
		c-3.7-0.4-7.4-0.8-12.1-1.3c4.5-0.3,8-0.6,13.6-1c-3.7-0.7-5.4-1-8.1-1.6c4.1-0.7,7.1-1.3,12.6-2.2c-4.7-0.5-7-0.7-11.1-1.1
		c7.6-2,13.6-1.9,19.5-2.4c-8.7-0.6-17.3-1.2-25.9,1.2c7.2-2.7,14.7-3.3,22.4-4.3c-4.7-1.2-9.5-2.3-15.2-3.8
		c5.4-1.1,9.7,0.5,14.2,0.5c-3.1-0.9-6.1-1.8-9.5-2.8c4.4-5.1,8.6-9.9,13.8-16c-5.2,2.8-7.6,6.3-10.4,9.6
		c1.1-6.9,6.2-11.6,26.4-24.1c-2.7-0.5-8.8,1.1-13.3,4c-4.1,2.5-7.9,5.5-11.6,8.1c2.4-9.2,4.6-18.8,12.5-25.6
		c10.6-7.7,22.6-7.2,34.7-6.2C459.3,488.3,447.2,487.8,436.7,496.8z M424.6,296c2.1-4,4.2-7.9,6.8-13.1
		c-9.3,8.1-16.6,16.3-21.7,26.3c4.3-4.2,8.1-8.8,13.3-11.8c-0.3,0.7-0.7,1.4-1.2,2.6c1.9-0.9,3.3-1.6,5.5-2.6
		c-5.7,6.3-10.8,11.9-17.4,19.2c15.4-10.9,26-24.2,41.9-33.2c-6,0.8-10.2,3.5-14.8,2.3c0.4-0.5,1-1.3,2.2-2.7
		C432.5,286.3,429.5,292.2,424.6,296z M126.5,658.9c3.5-9.3,3-19.2,4.7-30.2c1.9,8.5,1,15.6,0.5,22.8c4-8.9,6-18.1,5.5-28
		c0.9,2.3,1.9,4.5,2.9,7.1c1.7-3,1.9-6.3,5-9c0.4,4.3,0.7,7.8,1.2,13.5c0.8-7.1,1.4-11.9,2.1-18.4c1.9,7.9,1.5,14.1,2,20.4
		c0-9.2,0-18.5,0-29.1c0.8,2.7,1.3,4.1,2.4,7.4c-0.5-7.8-0.8-13.5-1.2-19.7c4.5,12.2,4.2,24.2,2.1,36.4c4.9-12.6,1.4-25.4,1-38.2
		c1.8,6.3,3.5,12.6,5.3,18.9c0.1-10.3-1.4-20.5-7.4-28.8c-10.1-14-25.2-16.3-40.8-13.5c-16.2,2.9-32.4,6.9-45.4,17.7
		c-1.9-1.8-1-3.7-1.2-5.5c-11.5,3.6-22.7,7.4-32,18c3.4-1.1,5-1.7,6.9-2.3c0.3,1.3,0.5,2.3,0.7,3.4c0.7-0.4,1.2-0.7,2.3-1.2
		c-7.1,9.3-10.5,18.5-8.8,30.1c0.9,5.9,2.3,11.4,4.3,17.1c-0.1-8.3-2.2-16.5-0.5-24.8c1.8-8.6,7.6-18.6,12.7-21.2
		c-3.5,4.7-6.5,9.4-7.7,15.1c4.1-6.6,8.6-12.7,15.9-18.8c-7.4,10.5-11.8,20.4-12.6,34c3.6-11.6,6.9-20.7,14.6-29.1
		c-0.6,2.3-0.8,3.3-1.5,5.9c4.4-7.2,7.7-13.2,16.2-17.4c-7.4,7.2-11.7,13.7-14.8,23.5c6-8.7,10.9-15.5,19.2-22.2
		C62.6,613.7,59.7,636,65.4,660c0-10.5,0.5-20.9,4.2-31.1c0.4,0.8,0.8,1.4,1.7,3c0.5-4.1,0.8-7,1.3-11c1.2,5.8,2.9,10.2,7.1,14
		c0.2-2.1,0.4-3.5,0.5-5.5c0.7,8.7,1,16.9-2.2,26.2c0-6,0.1-10.5,0-15c0-2.3-0.2-5-3.2-5.1c-3.1,0-3.4,2.8-3.4,5
		c0.1,4.6,0.6,9.2,1.2,13.8c1.2,9.6,2.4,19.2,4.1,28.7c0.6,3.3,2.6,7.9,6.2,7.1c3.6-0.8,3.5-5.5,2.4-8.9c-4-12.5-4.5-25.4-3.2-38.3
		c1.5-14.6,5.4-28.6,11.1-42.2c-0.1,0.8-0.1,1.5-0.3,3.7c4.2-8.8,8.6-15.7,16.9-20.7c-1.2,1.6-1.7,2.3-2.7,3.8
		c3.8-2.2,6.8-4.1,9.9-5.6c3.2-1.5,6.5-2.7,10.6-2.5c-1.2,0.7-2,1.2-4.1,2.4c6.7-1.6,12-1.5,18.3,0.3c-17.8,1.6-35.3,11.5-39.3,22.3
		c6.5-6.3,13.5-10.9,23.3-14.3c-8.4,6-15.5,11-21.8,18.9c1.8-0.9,2.3-1.1,3.1-1.5c-1.8,3-3.4,5.5-4.9,8.1c-1.4,2.5-2.7,5-4,7.5
		c5.9-8.3,12.2-15.9,20.7-21.6c-5.6,6.5-11.1,13-13.9,21.3c4.1-5,7.6-10.6,13-15.1c-3.8,6.4-7.6,12.2-10.7,18.5
		c-5.5,11.2-6.7,16.2-5.1,20.9c2.2-12.1,13.7-18.8,14.6-31c0.8,11.2,6,21.3,6.5,32.5c0.9-3.7,1.7-7.5,3-13.1
		c0.4,7.5-1.2,12.6-2.5,17.8c-1.2,5-2.9,9.9-1.7,15.2C124.5,665.7,125.6,662.3,126.5,658.9z M241.9,554.1
		c-2.8,5.7-5.5,11.3-7.8,15.9c-9.5,1.7-17,5.3-25.1,10.5c2.3-0.4,3.6-0.7,4.9-0.9c0.1,0.3,0.2,0.5,0.4,0.8c-2.4,1.4-4.7,2.8-7.1,4.2
		c0.1,0.2,0.2,0.4,0.3,0.7c5.1-2,10.2-4,17.2-6.8c-5.9,4.8-11,6.9-15.8,9.4c7.7-1.9,14.8-5.4,22.2-9.3c-1,2.8-3.9,3.7-3.9,7.1
		c3.6-2.2,6.7-4.2,10.1-6.3c-0.4,3.1-0.7,5.7-1.1,8.5c1.1-0.5,1.9-0.8,2.5-1.1c1.6,0.9-0.3,4.5,3.3,3.1c-0.3,1.9-0.7,3.6-1,5.4
		c4.8-0.5,2.8,3.5,3.7,5.7c1.2-0.8,2.3-1.4,3.7-2.3c0.2,2.7,0.4,4.9,0.6,7.5c1.2-1.3,2-2.2,3.5-4c-1.2,4,2.2,2.9,2.7,4.7
		c1-0.7,1.8-1.3,3.1-2.1c-0.4,2.3-0.7,4-0.8,4.1c9.8,2.2,19.4,3.4,31,4.2c-4.7-2.3-8.1-2.5-10.5-5.5c1.9,0,3.3,0,5,0
		c-25.5-18.9-29.7-38.1-13.5-62c0.2,0.6,0.4,1.1,0.6,1.8c1.7-2.5,3.2-4.9,5.8-8.8c-0.8,3.1-1.1,4.3-1.6,6.3c1.9-1.7,3.2-2.8,4.9-4.3
		c-0.5,1.6-0.8,2.6-1.4,4.6c5.4-6,10.2-11.1,19-13.1c-5.4,2.6-8.9,5.1-11.3,8.9c3.3-3.2,7.8-2.7,11.6-4.1c-1,0.7-1.9,1.5-3.4,2.5
		c10.8-2,20.8-1.4,32.8,1.7c-4.1-0.2-6.1-0.4-8.8-0.5c6.8,2.9,13.6,3.7,20.9,8.1c-2.8-0.7-3.9-1-5.8-1.5c3.3,2.8,7.3,3.2,9.5,6.8
		c-1.1,0-2,0-2,0c5.7,15.7,12.5,31.2-2.1,46c0.5-0.1,1.2-0.2,3.6-0.7c-3.3,3-5.4,4.9-7.8,7.1c1.1,0.1,1.7,0.1,2.8,0.2
		c-2.2,1.8-4,3.3-6,5c5,2,8.2-1.3,11.9-3c0.1,0.9-1.2,1.7,0.1,2.7c1.6-1.3,3.1-2.6,5.9-4.9c-1.5,2.6-2.2,3.8-3.6,6.3
		c3.8-2.4,6.4-4.2,10.1-6.6c-1.4,2.3-2.1,3.4-3.1,5.2c5.2-3.4,9.2-7,13.5-10.5c-1.5,2.4-3.1,4.8-4.6,7.2c5-4.4,8.2-9.6,8.7-17.5
		c-3.4,3-3.4,7-7.2,8.6c-0.5-4.5-0.9-8.6-1.4-13.2c0.8,0.7,1.3,1.1,2.2,1.9c0-2.6,0-4.5,0-7.3c0.7,1.7,1,2.5,1.9,4.8
		c-0.4-3.2-0.6-4.9-0.8-6.9c0.8,0.3,1.3,0.6,1.8,0.8c1.4-4.5,0.6-8.7-0.2-14.3c2.2,3.1,3.6,5,5,7c0.3-0.2,0.6-0.4,0.9-0.6
		c-2.3-4.6-4.5-9.2-6.8-13.8c0.3-0.2,0.5-0.4,0.8-0.6c1.9,2.1,3.9,4.1,5.8,6.2c-8.6-7.2-9.6-18.9-17.4-27.3c1.7,0.2,2.3,0.3,4,0.6
		c-4-3.9-7.3-7.2-10.7-10.5c4.6,1.7,7.6,5.2,11.7,7.3c-4.9-4.4-9.7-8.8-14.6-13.2c0.9,0.3,1.9,0.6,5,1.5c-4-2.6-6.1-3.9-8.2-5.3
		c-2.5-5.2-6.6-8.7-10.2-10.5c-2.9-9.5-12.6-12.4-15.3-20.3c0.4,4.5,3.4,7.3,6.5,11.2c-5.1-2.3-7.2-6.1-9.7-10.6
		c0.2,2.5,0.3,4,0.5,6.8c-1.7-2.8-2.8-4.6-4.1-6.9c-2.2,4,0.7,8-1.8,11.5c-1.5-3-3.1-6.2-4.9-9.7c-2.1,5.1-0.1,9.2,2.4,13.6
		c-4.7-1.5-7.7-3.9-9.8-7.7c0.4,1.9,0.7,3.7,1.3,6.4c-1.4-2.3-2.3-3.8-3.3-5.3c-2.7,1.8-1,4.5-2,6.6c-2.1-1.6-2-4.7-4.9-5.6
		c0,1,0,1.8,0,2.4c-4.9-2.1-2.9-8.5-7.1-11.6c-2.5,4.5-4.8,8.8-9,12.8c1.5-5.5,3.9-9.9,3.4-15.4c-1.4,2.9-2.6,5.3-4.1,8.5
		c-0.3-1.7-0.4-2.5-0.7-4.2c-4.2,9-2.8,19.5-11.5,25.4c1.1-0.4,2.2-0.8,3.3-1.2c-3.6,2.9-4.6,6.7-4.6,10.9c3-0.5,5.9-3,10-2.4
		c-8.2,3.1-14.2,8.2-19.8,15.3c3-1.4,4-5.3,7.5-2.8c-1.2,1.5-2.5,3-4.1,5c1.7-0.5,2.7-0.8,4.3-1.3c-2.7,3.9-6.7,6-7.9,10.3
		C244.6,549.4,243.2,551.8,241.9,554.1z M515.7,625.5c-2.6-18-2.6-18,6.4-20.9c-3.6-5.9,2.8-12-0.2-18.2c1.5,3,3.1,6,4.6,9
		c-2.8-8.6-4.9-17.5-10.7-24.8c8.4,5.7,12.2,14.7,17,24.7c-0.6-3-0.9-4.4-1.2-5.8c4.3,9.3,4.5,19.3,5.1,28.7c0-4.5-0.2-9.5,0.1-14.6
		c0.3-5.3,5.4-9.1,10.4-7.8c-5.8-9.4-11.4-18.5-16.9-27.6c0.4,2.8,1.9,5.1,2.1,8.7c-11.4-19.6-28.6-22.9-46.2-9.5
		c-1.1,0.8-2,0.7-3,0.2c-17.6-8.5-34.4,2.5-44.1,12.5c-4,4.2-4.8,9.8-4.6,16.4c4.3-6.3,7.9-12,14.1-15.2c-4.3,4-7.7,8.6-10,14
		c-0.3,0.8-0.7,2-0.3,2.6c0.9,1.4,1.4-1,2.5-0.6c-0.6,1.4-1.1,2.8-2,5.2c2.7-3.8,4.7-6.6,6.7-9.4c0.4,0.2,0.7,0.3,1.1,0.5
		c-1.9,6.4-3.9,12.8-5.8,19.3c0.2,0.1,0.5,0.2,0.7,0.3c3.5-5.6,7.1-11.3,11-17.5c-1.4,7.2-5.5,12.5-7.1,18.8
		c3.4-5.2,6.7-10.5,10.5-16.3c-1.9,9.9-11.1,16.8-8.1,29.5c0.7-3.9,1.1-5.7,1.5-7.6c0.3,0,0.6,0,0.9,0c0.6,3.5,1.2,6.9,2.1,12.1
		c0.3-3.6,0.4-5.4,0.7-8.6c1.9,6,2.1,10.9,1.4,17.7c3.5-11.4,3.5-21.2,3.1-31.1c2,8.2,1.1,16.5,0.9,26.9c3.1-10.9,4.4-19.9,1.9-30.6
		c3.3,4.9,2.4,9.2,3.5,13.3c1.7-4,3.3-7.7,4.8-11.4c0.9,0.3,2.2,1.7,2.5,0.7c1.7-5.5-2.9-9.7-3.9-15.2c2.9,4.4,5.4,8.3,8,12.2
		c-2.5-7.3-2.5-15.2-6.4-22.2c5.2,5.4,10.4,10.9,15.5,16.3c-2.9-7.5-9.4-12-15.2-19.2c3.8,2.6,6,4.2,9.4,6.6
		c-3.7-4.8-6.5-8.5-9.4-12.2c6.7,3.1,10,9.5,16.7,15.1c-4.6-6.6-7.9-11.9-9.6-19.3c2.3,3.6,3.9,6.1,5.5,8.5c0.2-0.1,0.5-0.3,0.7-0.4
		c-0.3-1.1-0.7-2.3-1.3-4.5c2.2,2.4,3.7,4,5.2,5.6c2-1.8,0.7-4.2,1.7-6.6c0.1,4,0.5,7.3,3,12.2c-1-4.7-1.5-7.4-2.5-12
		c1.7,3.3,2.5,4.9,3.7,7.1c-0.2-3.5-0.3-6.2-0.6-10.9c2.3,6.4,0.6,11.5,4.8,17.5c-1.3-6.2,4-9.7-0.8-15c4.9,3.3,3.5,7.2,3.6,11
		c2-0.9,3-3,5.4-2.3c-0.8,1.6-1.6,3-2.3,4.3c1.7-0.1,3.3-0.2,4.8-0.2c-0.5,3.2-0.9,6.2-1.4,9.4c0.7-0.2,1.2-0.4,2-0.7
		c-0.3,2.1-0.5,3.8-0.8,6.8c0.9-1.8,1.3-2.5,2.3-4.5c2,14.2-1,26.1-2.8,38.3c0.4-3.2,2.3-0.4,3.2-1c1.6-2.5-0.6-5.2,0.7-8.4
		c1.3,2.6,2.3,4.7,3.8,7.8c-0.5-4.4-0.8-7.6-1.3-12.2C514,622.8,514.5,623.6,515.7,625.5z M305.3,573.3c2.2,6.5,1.9,13.9,5.7,21
		c1.6-4.4,4.3-1.2,6.3-1.8c-0.8,0.3-1.6,0.6-3.1,1.2c6.2,0.1,7.1,0.7,6.7,3.5c7.6-0.7,16.8-8.3,16.6-13.4c-2.7,1-5.3,2.2-8.1,2.9
		c-4,1.1-8,1.2-10.7-2.7c-2.7-3.8-2.4-7.6,0.3-11.4c0.2-0.3,0.6-0.7,0.5-0.8c-1.4-2.2-0.5-3.7,1.8-4c2.8-0.4,5.4-1.2,8.4,1.1
		c3.8,2.9,2,7.7,4.7,10.8c6.2-7.4,4.4-17.5-4.1-23.6c-12.2-8.8-40.6-8.5-52.6,0.6c-8.2,6.2-10.5,16.4-5.1,23.1c0.8-3.4-3-7.8,2.2-10
		c0.2,3.4,0.4,6.8,0.8,10.2c0.1,1,0.8,2.3,2.1,2c1.5-0.3,1.4-1.7,1.1-2.9c-0.3-1.7-1.7-4.1,0-5.2c3.6-2.3,7.7-4,12.1-3
		c2.8,0.6,5,4.4,5.2,8.3c-3-6.6-3.6-7.2-6.2-6.9c4.8,3.4,6.3,8.4,3.6,13c-5.8,10.2-14.2,4.6-21.9,2.3c2.2,7.7,15.4,14.5,22.5,11.6
		c-4.8,0.2-9-0.4-12.5-5.2c7.1,2.2,14.3,6.2,18.4-2.1C302.8,586.3,303.6,579.5,305.3,573.3z M482.1,321.6c3-5.9,6-12.1,6.6-18.7
		c1.7-18-0.2-35.9-2.1-53.8c-1.3-11.6-3.2-23-7-34c-4.1-11.9-9.9-14.4-21.2-8.9c-3.3,1.6-6.6,3.4-9.3,5.7
		c-31.2,26.3-50.8,60.6-67.3,97.1c-1.5,3.2-0.9,6.9-0.5,11.3c2.5-5.5,4.6-10,6.7-14.6c0.3,0.1,0.5,0.2,0.8,0.4
		c-0.7,2.2-1.4,4.4-2.6,8.4c7.4-10.7,11.6-21.8,23.2-26.9c-2.4,3-4.5,5.8-6.6,8.5c0.2,0.2,0.5,0.4,0.7,0.5c1.7-1.9,3.5-3.8,5.2-5.8
		c0.3,0.2,0.6,0.4,0.9,0.6c-1.1,2.4-2.2,4.7-3.4,7.1c8.6-15.4,12-33,21.6-47.9c-7.8,11.2-14.7,22.9-21.1,34.9
		c5.7-17.7,12.9-34.8,24.4-49.5c8.5-10.8,17.6-21.4,30.9-26.8c3.7-1.5,7.6-1.1,10.8,2.4c7,7.9,7.6,17.5,7.6,27.3
		c0,6.1,0,12.2,0,17.6c0.4-2.8,1-6.4,1.9-11.8c4.6,14.9,0.1,27.9-0.2,42.5c2-4.5,3.4-7.7,5.3-11.9c-0.4,11.3-4.7,20.5-6.6,30.2
		c3.5-5.9,4.8-12.6,7.5-21C488.3,298.8,484.3,310,482.1,321.6z M194.6,347.3c0.4-6.7-1-13.2-3.4-19.2c-13.9-34.7-35-64.6-61.6-90.7
		c-6.6-6.5-14.1-12.1-23.5-14.2c-6.1-1.4-11.7,2.9-12.2,10c3.2-6.1,7.7-8,13.7-6c4.5,1.5,8.5,3.7,12.2,6.6
		c23.4,18.1,41.7,39.6,44.6,70.7c0,0.2-0.2,0.3-0.5,0.9c-1.3-2.1-2.5-4-3.7-5.9c2.2,7.6,6,14.5,8.2,24c-3.3-6-5.6-10.4-8-14.8
		c-0.3,0.1-0.6,0.3-0.9,0.4c1.3,5.9,2.6,11.7,3.9,17.6c-0.3,0.1-0.7,0.2-1,0.3c-3.6-8.5-7.1-17-10.7-25.5c1,9.7,3.1,19.1,7.3,29.8
		c-7.9-10-11.6-20-14.7-30.4c-0.3,2.5-0.3,4.9,0.1,7.2c3.5,19.8,22.5,30.2,30.1,47.7c-2-6.1-4-12.2-6-18.2c0.2-0.1,0.5-0.2,0.7-0.2
		c2.1,3,4.1,5.9,6.2,8.9c0.2-0.1,0.5-0.3,0.7-0.4c-1.6-3.6-3.3-7.2-5.6-12.2c2.8,3.3,4.5,5.4,6.2,7.4c0.2-0.2,0.4-0.3,0.6-0.5
		c-1.6-3.1-3.2-6.2-5.9-11.4c3,3.8,4.4,5.7,7.4,9.5c-2.2-5.7-3.4-9.2-4.7-12.6c0.3-0.1,0.5-0.2,0.8-0.3c1.4,1.9,2.7,3.9,5.4,7.7
		c-3-8.8-7.1-14.8-8.1-23c1.5,2.7,2.5,4.4,3.5,6.2c0.2-0.1,0.4-0.2,0.7-0.4c-1.3-3.4-2.6-6.8-3.8-10.1
		C184.3,317.3,189.2,332.3,194.6,347.3z M374.5,512.8c10.6,0,19.3-8.9,19.3-19.7c0-10.6-8.3-18.9-19.1-18.9
		c-10.2,0-19.6,9.3-19.5,19.4C355.3,504.5,363.6,512.8,374.5,512.8z M238,505c0-10.9-9.2-20.4-19.7-20.3c-9.6,0.1-18.1,9-18.1,19.2
		c0,10.3,8.7,19.2,18.7,19.3C228.7,523.2,238,514.4,238,505z M83.9,369.9c0.3,17.6,25.2,56.1,35.6,57.3c-9.9-14.9-24.3-26-29.8-44
		c3.4,5.1,6.3,9.6,9.2,14.1c0.2-0.1,0.4-0.3,0.6-0.4c-1.1-2.6-2.2-5.1-3.2-7.7c0.3-0.1,0.5-0.3,0.8-0.4c2.3,3.1,4.7,6.2,8.3,10.9
		c-1.2-3.4-1.7-4.8-2.6-7.4c3.4,3.8,5.8,6.7,8.3,9.5c-7.4-11.5-11-24.5-16.3-36.8c2.2,3.2,4,6.7,6,10c2,3.2,4.3,6.3,6.4,9.5
		c-5.2-11.8-10.9-23.2-14.5-35.5c2.3,3.6,4.5,7.1,6.8,10.7c-2.7-8.7-7.6-16.6-9-26.2c0.8,0.9,1.3,1.4,2.5,2.7
		c-5.1-14.3-6.7-28.1-8.4-41.9c-1.6,30.1,1.1,59.7,10.3,89C91.3,378.8,87.6,374.3,83.9,369.9z M556.5,629.8
		c9.8-4.9,15.8-29.1,11-41.4c-5.2-13-23.5-26.4-33-23.6c4.8,3.8,7,9.1,10.9,15c-0.6-2.9-0.8-4.2-1.5-7.7c3.8,5.5,8.8,6.8,11.1,10.9
		c2.4,0.9,5.2,2,6.3,4.1c6,11.2,2.8,22.3-0.9,33.4C559.5,623.4,558.1,626.3,556.5,629.8z M114.9,656.9c0.3-7.1,4.3-11.6,3.5-17.3
		c-0.3-2.5-0.2-5.7-2.8-6.3c-2.9-0.7-4.1,2.6-4.7,4.8c-2.9,10.8-6,21.5-8.1,32.5c-1.1,5.7-1.3,11.9,2.2,17.3
		c1.4,2.2,3.5,4.8,6.1,3.7c2.3-1,0.5-3.9,0-5.8c-2.7-11.5-2.5-22.8,2.4-34.7C113.8,652.9,114.1,654,114.9,656.9z M482.3,635.1
		c0.2-7.1-1.3-13.2-5-18.6c-1.4-2.2-3.3-4.6-6.2-3.5c-2.9,1.1-3.4,4.2-2.6,6.6c3.9,11,3.1,22.7,4.5,34c0.3,2.5,1.7,4.4,4.3,4.5
		c2.5,0.1,3.1-2.5,2.9-3.9C479.2,647.4,483.2,641.2,482.3,635.1z M206,485.3c-7.5,0.1-14.9,9.6-15.2,19.5
		c-0.4,12.9,10.4,24.6,23.6,25.6c10.2,0.7,20.7-5.4,21.5-12.5c-11.3,10.1-22.2,10.9-31.5,2.5C194.6,511.5,195.1,499.8,206,485.3z
		 M359.1,510c2.6,6.7,13.7,11.4,22.6,9.6c12.2-2.5,22.4-14.7,22.1-26.8c-0.1-8.6-8.7-18-17.5-19.3c11.3,11.4,13.5,22.8,6.2,32.9
		C384.9,517,375.4,518.1,359.1,510z M512.9,658.1c1.6,0.4,2.5-0.8,3.5-1.7c5.6-5.2,7.2-12,7.6-19.3c0.4-7.9,3.1-15.8-0.5-23.5
		c-1.1-2.4-2.9-5.1-6.1-4.2c-3.1,0.9-2.9,4.1-2.6,6.6c0.5,3.7,1.5,7.4,2.2,11.1C518.8,637.7,513.8,647.6,512.9,658.1z M329,626.3
		c-13.5-4-26.7-3-39.2,2.5c-0.3-0.6-0.1-0.2,0.2,0.3c-1.8-0.4-3.5-0.8-6.5-1.5c2.8,4.8,6.7,6.1,10.4,7.2
		C307.1,638.7,318.7,635,329,626.3z M40.2,674.3c-0.3-1.1-0.3-2-0.6-2.5c-8.8-12.7-10-26.6-7.3-41.3c0.3-1.8,1.5-4.6-1.4-5.2
		c-2.4-0.5-3.2,2.1-4.2,3.8c-0.5,0.8-0.9,1.8-1,2.7c-1.7,13.3-0.1,26.1,6.9,37.8C34,672.1,36.2,674.2,40.2,674.3z M537.1,646.3
		c10.7-10.3,15.2-29.3,9.9-41.4c-0.7-1.5-1.3-3.7-3.4-3.2c-2.1,0.5-1.5,2.6-1.4,4.1c0.4,12.2,0.2,24.3-5.2,35.6
		C536.4,642.8,535.7,644.5,537.1,646.3z M275.2,633c11.9,11,25.5,14.9,41.1,10.7c9.3-2.5,18.3-8.3,19.4-13.7
		C315.9,643.8,295.9,644.6,275.2,633z M471.3,365.7c11.8-20.1,20.9-41.2,25.5-64.2C487.3,322.6,480.6,344.6,471.3,365.7z
		 M520.5,508.2c-16.7-7.9-34.4-10.6-53.1-9.6C484.5,507.3,503.5,501.6,520.5,508.2z M471.7,374.6c11.9-8.7,27.9-50.8,24.6-62.7
		C491.2,334,484.5,354.3,471.7,374.6z M80,575.6c6.2-2.6,11.8-5.1,17.6-7.4c5.8-2.3,11.9-3.7,18.2-4.2c6.4-0.5,12.7,0,18.9,1.5
		c5.8,1.4,11.3,3.8,16.9,5.9C133,559.2,85.6,562,80,575.6z M210.7,340.9c13.1-1.8,25.3,4.8,38.2,3.8
		C236.3,342.2,224,335.6,210.7,340.9z M92.9,255c-2.5,15.3-1.4,30.3,3.7,45.1C93.2,285.2,93.7,270,92.9,255z M425.8,265.3
		c-4.1,9-8.3,18-13.4,29C422.7,285.7,421.9,274.4,425.8,265.3z M487.1,520.3c10.6,0.2,18.2-3.9,25.7-8.3
		C504.7,514.6,496.6,517.2,487.1,520.3z M413,373.1c9,2,16.2-0.9,23.8-5.6C428.6,369.4,421.1,371.2,413,373.1z M444.3,567.7
		c11.4-7.7,23.5-11.3,37.5-7C472.9,554.7,452.8,558.5,444.3,567.7z M216,467.9c5.2,2.8,9.9,5.7,14.6,10.5
		C227.5,470.3,221.3,465.9,216,467.9z M270.6,467.1c-2.3,7.7-6.5,13.4-3.4,20.8C269.1,481.3,270.4,475.2,270.6,467.1z M96.6,317.3
		c-3.3-11-5.7-20.2-7.2-30.9C88.3,294.2,92,310.8,96.6,317.3z M370.8,550.9c0,7.9,3.5,13.4,7.9,13.2
		C376.2,560,373.8,556,370.8,550.9z M414.3,594.9c2.8-5.7,6.8-10.4,11.6-14.5C419.3,583.1,415.4,587.9,414.3,594.9z M349.4,509.2
		c1.7,0,3.4,0.4,3.1-1.1c-0.5-2.6-1.1-5.5-2.7-7.4c-1.3-1.6-1.8,0.8-1.4,1.6c0.8,1.7-0.9,1.8-1.4,2.8
		C348.3,506.2,351,506.2,349.4,509.2z M234.9,477.4c-2.1-5-4.6-8.8-9.4-9.7C228.4,470.7,231.4,473.8,234.9,477.4z M243.7,509.1
		c-1.1,3-2.3,6-3.5,9.3c3.4-0.3,3.4-3.5,6-4.8C242.6,512.9,244,511.2,243.7,509.1z M408.2,304.6c3.3-4,6.5-7.9,9.8-11.9
		C413.3,295.6,410,299.5,408.2,304.6z"/>
	<path d="M479.8,470.8c16.8-1.1,30.9,2.4,44.6,14.4C509.1,478.3,495.3,474.2,479.8,470.8z"/>
	<path d="M251.7,436.1c-9.5-7.2-15.3-9.3-32.5-12.3C228.8,422.1,243.4,427.3,251.7,436.1z"/>
	<path d="M300.9,365.3c0.3-4.9,3-8.5,7.3-12.4C305.4,357.8,303.1,361.5,300.9,365.3z"/>
	<path d="M246,547.1c1.6-2.1,3.2-4.2,4.8-6.4c0.5,0.4,1,0.9,1.5,1.3c-4.6,7.6-9.2,15.1-14.7,24.2c1.8-5.1,3-8.6,4.2-12.1
		C243.2,551.8,244.6,549.4,246,547.1z"/>
	<path d="M122.1,668.5c1.8-6.6,3.7-13.2,6.1-21.9c-0.8,5.5-1.3,8.9-1.7,12.3C125.6,662.3,124.5,665.7,122.1,668.5z"/>
	<path d="M244.2,562.4c2.8-3,4.4-7.1,8.3-9.2c-4.2,5.3-5.7,12.4-12,16.2C241.7,567,242.9,564.7,244.2,562.4z"/>
	<path d="M244.2,562.4c-1.2,2.3-2.5,4.6-3.7,6.9c1.4-8.8,6-15.8,12.4-21.8C249.7,552.3,246.2,556.9,244.2,562.4z"/>
	<path d="M373.3,482.3c0.2,8.7,1.6,9.9,12.1,10c-0.2,5.9-3,9.8-8.8,10.9c-4,0.8-8.9-0.2-9.7-4.3C364.7,488,366.9,483.5,373.3,482.3z
		"/>
	<path d="M230.3,502c0.5,6.5-2.4,10.5-8.1,12c-5.9,1.6-10.2-1.1-12.8-6.6c-0.6-1.2-0.3-2.1,0.8-2.7c4.3-2.4,4.2-5.5,1-9.3
		c2.1-0.8,4-1.6,6-2.3C218.5,502.9,220.5,504.3,230.3,502z"/>
	<path d="M476,618.8c5.1,6.5,4.9,12,4.7,17.6C479.9,631.1,478.9,625.8,476,618.8z"/>
</g>
</svg>
