<?xml version="1.0" encoding="utf-8"?>
<!-- Generator: Adobe Illustrator 24.2.3, SVG Export Plug-In . SVG Version: 6.00 Build 0)  -->
<svg version="1.1" id="Layer_1" xmlns="http://www.w3.org/2000/svg" xmlns:xlink="http://www.w3.org/1999/xlink" x="0px" y="0px"
	 viewBox="0 0 595.3 841.9" style="enable-background:new 0 0 595.3 841.9; fill: #215342;" xml:space="preserve"
	 height="350" width="450" transform="translate(-75, -50)">
<g>
	<path d="M33,313.5c5.6,1.9,11.3,3.7,16.9,5.6c0.2-0.5,0.5-1,0.7-1.6c-13.8-6.3-25.4-14.9-31.5-29.8c11.9,1.5,23.2,2.9,34.6,4.3
		c0-0.3,0.1-0.6,0.1-1c-1.7-0.4-3.4-0.9-5.1-1.3c0-0.2,0-0.5,0-0.7c1.5-0.1,3-0.3,5.7-0.6c-1.9-1.3-3-2.1-4.2-2.7
		C43,282.1,36.8,277,32,270.2c-3.1-4.6-6.5-9-9.9-13.4c-16.8-21.9-13.7-44.4,0.6-64.6c3-4.3,6.1-8.6,9.4-12.7
		c8.5-10.8,20.3-15.5,33.5-16.9c20.2-2,39.5,2.5,57.9,10.2c18.2,7.6,36,16.3,53.7,25.1c6.3,3.1,11.7,8.1,18,12.7
		c-4.5-7.9-10.9-13.2-16.9-18.9l-0.1,0c10.6,5.4,18.4,13.9,25.1,23.6c1.5,2.2,3,4.4,4.9,6.3c-0.4-6.8-4.3-12-7.3-17.7
		c0,0-0.1,0.1-0.1,0.1c7.5,6.3,11.8,14.6,14.4,23.8c1.4,5,2.5,10.2,4.1,15.2c1.7-8.4,0.3-16.5-2.5-24.5c1.7,3.2,3.4,6.3,5.1,9.5
		c0.3-0.1,0.5-0.1,0.8-0.2c-0.6-2.8-1.1-5.5-1.7-8.3l-0.1,0.1c5,6.3,5.9,13.8,6.3,21.4c0.2,4.3-0.4,8.6-0.6,13.4
		c1.4-0.1,2.6-0.2,3.9-0.3c13.7-1.5,27.5-2.8,40.6,2.2c6.1,2.3,10.7,1.8,16.6-0.6c14.9-6.1,30.5-5.3,46.1-3.1c1.3,0.2,2.7,0.5,4,0.7
		c0.4,0.1,0.8-0.1,1.9-0.2c0-1.5,0-3.1,0-4.6c-0.1-10,2.2-19.4,6.6-28.2c0.8-1.6,2.3-2.9,3.4-4.3l0.1,0c-1.5,3.5-3,7-4.6,10.4
		c0.3,0.1,0.5,0.2,0.8,0.3c5.5-7.6,11.1-15.2,16.6-22.7c0.5,0.3,0.9,0.6,1.4,0.8c-8.3,11.3-12.7,23.8-12.8,37.7
		c0.3,0.1,0.7,0.3,1,0.4c0.7-1.9,1.6-3.7,2.2-5.6c4.3-13.9,12.1-25.6,22.8-35.3c1.8-1.7,4.2-2.7,6.4-4.1l0.1,0
		c-3.9,4-7.7,8.1-11.6,12.1c0.3,0.3,0.6,0.7,0.9,1c0.5-0.2,1.2-0.3,1.6-0.6c14.3-11.3,30.9-17.8,47.9-23.5
		c15.4-5.2,30.7-10.6,46.2-15.4c14.3-4.4,28.9-6.9,44-6.3c23.1,1,39.9,15,43.6,36.8c1.5,8.4,1.5,17-1.7,24.9
		c-7.1,17.5-13.6,35.4-27,49.6c-2.4,2.5-4.8,5.1-6.7,8.3c2.2-1.1,4.5-2.1,6.6-3.4c9.1-5.6,16.9-12.6,23-21.5
		c0.9-1.3,2.1-2.4,3.2-3.5c0,0,0.1,0,0.1,0c-7.9,16.8-17.6,32.2-32,44.8c1.5-0.3,3-0.4,4.4-0.9c8.3-2.8,15.8-6.9,22.3-12.9
		c1.1-1,2.4-1.6,3.6-2.4c0,0,0.1-0.1,0.1-0.1c-13.3,22.5-30,41.7-52,56.1c-4.2,2.8-8.7,5.2-14.1,8.3c17.6,4,34.6,6.3,50.2,13.6
		c-10.2-1.9-20.1-1.4-30,1.9c7.9,1.6,15.8,3.1,23.7,4.7c-0.1,0.2-0.1,0.3-0.2,0.5c-8.1,0-16.3,0-24.4,0c0,0.2,0,0.5,0,0.7
		c5.6,0.5,11.2,1.1,16.8,1.6c-12.3,0.5-24.4,1.5-35.9,5.9c0,0.4,0,0.7-0.1,1.1c1.5,0.2,2.9,0.5,4.4,0.6c11.3,0.9,21.7,4.4,31.6,9.6
		c0.8,0.4,1.4,1.2,2.1,1.8c0,0,0.1-0.1,0.1-0.1c-5.5-1.8-10.9-3.5-16.4-5.3c-0.2,0.4-0.4,0.8-0.6,1.1c14.4,5.9,27.7,13.4,37.3,26
		l0.1,0c-1.4-1-2.9-1.9-4.3-3c-11.7-9.1-24.8-14.5-39.8-15.1c-1.2,0-2.4,0-3.6,0.1c-0.4,0-0.8,0.2-1,0.3c7.2,2.7,14.4,5.3,21.7,8
		c0,0,0.1-0.1,0.1-0.1c-7.4-1.5-14.8-3.1-22.2-4.5c-2.5-0.5-5.1-0.3-7.9,0.5c1,0.4,1.9,0.8,2.9,1.1c9.6,3.2,19.5,5.9,28.8,9.7
		c11.8,4.9,21.4,13.1,29.7,22.9c0.9,1.1,1.5,2.5,2.2,3.8l0-0.1c-9.9-9.9-22.4-14-35.6-16.1c7,5.1,14,10.2,21,15.3l0.1-0.1
		c-8.7-4.3-17.3-8.9-26.1-12.9c-7.2-3.3-14.8-5-22.9-3.7c-0.9,0.1-1.7,0.4-2.7,1.2c11.4,3,22.6,6,31.2,14.7c0,0,0.1-0.1,0.1-0.1
		c-5.6-2.8-11.2-5.6-16.9-8.3c-1.6-0.7-3.3-1-5-1.5c0,0,0.1-0.1,0.1-0.1c0.1,0.2,0.2,0.5,0.4,0.7c12.9,6.6,23.3,16.6,34.7,25.3
		l-0.1-0.1c-1.6-0.6-3.3-1-4.9-1.7c-10.8-5.4-21.9-10-34.2-11c18.4,6.2,36.1,13.6,49.3,28.5l0.1,0c-5.5-3.4-10.9-7-16.5-10.2
		c-2.5-1.4-5.3-2.3-8-3.4c-0.2,0.4-0.4,0.8-0.7,1.1c1.4,1,2.8,2.1,4.2,3.1c18.1,12,36.2,24,54.3,36.1c1.4,0.9,2.5,2.3,3.7,3.5l0.1,0
		c-7.8-4.8-16.3-6.8-26.8-6.5c8.6,4.2,16.1,8,23.6,11.7c-0.1,0.1-0.2,0.2-0.3,0.3c-5.4-1.1-10.8-2.3-16.3-3.4
		c-1.4-0.5-2.7-1.2-4.1-1.6c-3.8-0.9-7.7-1.4-11.4-2.5c-3.3-0.9-6.5-2.2-10-3.4c2.2,5.8,15.2,9.4,25.6,7.4c-4.3,1.5-8.5,3-12.6,4.5
		c2.8,3.7,8.2,4.9,24.2,5.1c0.1,0.4,0.3,0.8,0.4,1.1c-5.4,1.6-10.7,3.9-16.2,4.7c-5.5,0.8-11.2,0.2-17.3,0.2
		c4.4,5.4,10.3,8.2,16.5,10.4c-0.5,0.2-1.2,0.4-2.8,0.9c3.8,2.5,7,4.6,10.2,6.7c-0.1,0.2-0.2,0.4-0.3,0.6c-4.8-2.6-9.7-5.2-14.5-7.8
		c-0.3,0.5-0.6,1.1-0.9,1.6c5.6,5.5,12,10,19.3,13.2c7.8,3.3,15.7,1.5,23.6,0.1c-12.1,8-24.5,15.2-40.2,16c1.8,1.1,3.4,2.7,5.3,3.3
		c7.5,2.2,14.7,1,21.8-1.9c2.6-1.1,5.3-1.9,8-2.8c0,0,0.1-0.1,0.1-0.1c-32.2,18.2-66.6,31.3-101.2,44.1c-8.1,3-16.4,5.7-24.7,8.2
		c-3,0.9-3.7,2-2.7,5.2c6,17.4,8.1,35.4,6.9,53.7c-0.5,7.1-2,14-6.7,19.7c-6.7,8.1-16.1,14-30.7,4.7c-6.6,7.7-15.7,9.2-25.3,8.8
		c-3.9-0.2-7.8-1.1-11.5-2.4c-3.2-1.1-5.8-1-8.9,0.2c-3.4,1.2-7,2-10.6,2.3c-6.9,0.6-13.4-0.1-17.3-6.7c-0.6,0.1-1,0-1.1,0.2
		c-13.7,13.9-35.9,0.9-39.8-15.2c-2.4-9.6-2.1-19.1-0.4-28.6c0.9-5.4,0.9-5.4-4.6-5.6c-18.8-0.8-37.6-1.7-56.5-2.5
		c-1.6-0.1-3.2,0-5.3,0c0.1,1.8,0.1,3.4,0.3,4.9c1.5,11.3,1.7,22.4-2.3,33.3c-2.5,6.7-6.6,12.1-12.9,15.6c-10.6,5.9-18.3,5-28.6-3.4
		c-0.3,0-0.6,0-0.8,0.1c-9.3,9.9-20,9.5-31.2,4.1c-2.2-1.1-3.8-0.9-6,0c-14.6,5.5-28.6,5.3-41.4-5c-0.8-0.6-2.6-0.8-3.5-0.3
		c-12.1,6-22.5,3-29-8.6c-4.4-7.8-4.8-16.3-3.4-24.9c3.2-19.1,11.7-36,22.1-52c0.7-1.1,1.4-2.3,2.4-3.9c-2-0.8-3.6-1.6-5.3-2.3
		c-25.4-9.2-50.3-19.5-73.8-32.9c-9-5.1-17.3-11.3-23.7-19.5c-1.5-2-2.5-4.4-3.7-6.6l-0.1,0.1c9.5,11.6,22.6,15.1,36.7,16.3
		c10,0.8,20,0.9,29.8-2c1.7-0.5-30-2.1-46.5-9.1c-1.7-0.7-3.2-2.1-4.8-3.2l-0.1,0c10,4.5,20.5,4.4,31.1,3.5
		c4.8-0.4,9.6-1.5,14.4-2.3c1.2-0.2,2.4-0.8,3.6-1.6c-20.2-2.8-38.8-9.1-54.9-22.1c21.6,3.9,39.5-4,56.7-16.3
		c-6.8-1.7-13-3.2-19.1-4.7c0.1-0.2,0.2-0.5,0.2-0.7c4.6-0.2,9.3,0.1,13.8-0.8c4.4-0.8,8.6-2.8,12.8-4.3c-0.1-0.4-0.2-0.9-0.3-1.3
		c-4,0.4-8.1,0.8-11.9,1.1c6.5-2,13.1-4.1,19.7-6.2c-0.1-0.5-0.3-1.1-0.4-1.6c-1.7,0.3-3.3,0.7-5,1c-17.9,3.2-34.7-0.3-51-7.6
		c-0.9-0.4-1.6-1.4-2.3-2.1l-0.1,0c9,2.4,18,4.3,27.4,2.6c-11.5-3.3-22.9-6.7-30.8-17.8c21.1,1.2,37.3-7.7,51.4-21.9
		c-0.7-0.3-1.1-0.6-1.5-0.7c-0.5-0.1-1-0.1-1.6-0.1c0.1-0.3,0.1-0.4,0.1-0.5c0.3-0.2,0.7-0.4,2.1-1.3c-6.4,0-11.5,0-16.7,0
		c9.8-1.2,18.8-3.8,27.5-10.1c-1.4-0.2-1.9-0.4-2.4-0.4c-9.3,0.2-18.6,0.8-27.9,0.5c-6.2-0.2-11.7,1.7-17.3,3.8l0.1,0.1
		c1.5-1.1,2.8-2.5,4.5-3.2c8.4-3.6,16.9-7.1,25.4-10.6c1.6-0.7,3.2-1.2,4.7-2.3c-10.4-2.3-19.3,1.8-28.2,6.4l0.1,0.1
		c3-2.2,5.7-5,9-6.5c6.7-3.1,13.8-5.5,20.7-8.2c1.8-0.7,3.7-1.3,6.4-2.3c-12.1-5-23.5-6.2-35.3-3c-0.1-0.4-0.3-0.8-0.4-1.3
		c9.6-4.1,19.2-8.2,28.7-12.2c0-0.4,0-0.8,0-1.1c-4.7,0.4-9.5,0.9-14.2,1.3l0.1,0c6.7-1.9,13.3-3.9,20-5.8c1.4-0.4,2.9-0.3,4.4-0.9
		c-6.1-3.3-13-3-19.7-4.7c6.5-1.9,13-3.8,19.4-5.7c0-0.3-0.1-0.6-0.1-1c-2.4,0-4.9,0-7.3,0c0-0.3-0.1-0.7-0.1-1c3-0.6,6-1.3,8.9-1.9
		c0-0.3,0-0.6,0.1-0.8c-2.4-0.3-4.8-0.7-7.2-1c0-0.3,0-0.5-0.1-0.8c3.8-0.4,7.7-0.7,11.5-1.1c0-0.4,0-0.8,0.1-1.2
		c-14.2-0.5-28.6,0.3-41.8-5.6c7.6-0.6,15.3-1.3,23-1.9c0.1-0.4,0.2-0.9,0.3-1.3c-13.1-6-24.5-14.1-33.5-26.6
		c6.1,0.6,11.5,1.5,16.9,1.4c5.3,0,10.6-1,15.9-1.5c0-0.5,0-1,0-1.5c-1.3-0.1-2.7-0.3-4-0.4c-8.8-0.6-17.2-2.4-25-6.6
		C35.3,315.9,34.2,314.6,33,313.5C33,313.6,33,313.5,33,313.5z M40.6,275.6c-0.3-0.3-0.7-0.6-1-1c0,0,0.1-0.1,0.1-0.1
		C40.1,274.9,40.4,275.2,40.6,275.6c0.4,0.2,0.6,0.5,0.9,0.8c1.8,3.3,4,5.9,8.1,6.2c0.3,0.4,0.5,0.7,0.8,1.1c0,0-0.1,0.1-0.1,0.1
		c-0.3-0.4-0.5-0.7-0.8-1.1c-2.7-2.1-5.4-4.1-8.1-6.2C41.2,276.2,40.9,275.9,40.6,275.6z M478.2,552.9c0.4,0.3,0.8,0.7,1.1,1
		c0.1,0.5,0.2,1.1,0.3,1.6l0.2,0.1l-0.3-0.1c-0.1-0.5-0.2-1-0.3-1.5C478.9,553.6,478.5,553.3,478.2,552.9c-0.3-0.2-0.6-0.5-0.9-0.7
		c-0.1-0.7-0.2-1.5-0.3-2.4c9.3,4.6,15.3,21.1,13.2,35.6c0,0,0-0.1,0-0.1c0.9-1.3,2-2.5,2.6-4c2.6-6.4,3.1-13.1,1.8-20
		c-0.3-1.4-0.4-2.9-0.6-4.4c0.4-0.1,0.8-0.1,1.2-0.2c0.9,2.4,2,4.7,2.7,7.1c2.7,8.8,1.9,17.7-0.1,26.5l-0.1,0.2c0,0,0.1-0.3,0.1-0.3
		c1-1.9,2.3-3.7,3-5.7c5-13.8,3.7-27.4-1.5-40.9c-0.5-1.4-1.1-2.7-1.6-4.1c0.4-0.2,0.8-0.4,1.2-0.6c2.8,3.7,5.7,7.3,8.5,11
		c-3.4-12-11.7-20.2-21-27.6c17.5,7.7,29.6,20,33.6,39.3c0.7-6.3-1.2-12-4.6-17c-3.4-5.1-7.3-9.8-11-14.6c0.2-0.2,0.4-0.4,0.5-0.6
		c4.7,3.3,9.3,6.7,14,10c0,0-0.1,0.1-0.1,0.1c-0.3-1-0.7-2-1.3-3.7c5.1,3.5,9.5,6.6,14,9.7c0.4-0.5,0.8-1,1.3-1.4
		c-11.3-14.6-19.4-31.5-32.6-44.9c4.7,2.3,8.8,5.4,13.2,7.8c6.6,3.7,13.4,6.9,20.2,10.3l-0.1,0.1c-1.9-1.7-3.9-3.4-5.6-5.2
		c-4.1-4.4-8-9-12-13.5l-0.1,0.1c1.5,0.9,3.1,1.6,4.4,2.7c4.9,3.7,10.1,6.5,16.3,7.4c0.2,0,0.4,0,0.7,0c-0.3,0-0.5,0-0.8,0
		c-0.3-0.3-0.5-0.7-0.8-0.9c-12.3-5.7-21.3-15.8-31.2-24.5c-0.9-0.8-1.7-1.8-2.5-2.7c0.2-0.2,0.4-0.5,0.6-0.7
		c8.7,4,17.3,8.1,26,12.1c-3.3-6.3-7.3-11.7-11-17.3c-1.5-2.3-5.4-3.6-3.3-7.6c0.1-0.2-0.5-0.9-0.9-1.3c-2.8-3.1-5.7-6.2-8.5-9.3
		c-0.7-0.8-1.4-1.5-2.8-3.2c2.9,0.6,4.5,0.9,6.5,1.4c-1.5-3.4-16.9-10.7-22.4-10.9c5.9,7.4,12.7,14.1,15.3,23.7
		c-2.8-2.9-5.6-5.9-8.4-8.8c-0.5,0.5-1,1-1.5,1.5c4,4.1,7.9,8.3,12.1,12.1c2.4,2.3,5.3,4,8,6l0.1-0.1c-12.3-2.3-23.4-7.6-34.7-12.9
		c8.1,6.6,16.2,13.1,24.3,19.7c-0.1,0.2-0.2,0.3-0.3,0.5c-1-0.3-2-0.5-3-0.8l0.1-0.1c1.1,1.3,2.3,2.6,3.3,4c2.5,3.5,5,7,7.5,10.6
		c-0.4,0.4-0.8,0.8-1.2,1.2c-4.3-10.5-13.8-13.4-23.1-17.7c0.3,1.3,0.5,1.9,0.6,2.6c-5.1-2.6-9.6-5.3-14.5-7.4
		c-12.6-5.5-22.1-14.5-29.4-26c-2.9-4.6-6.1-9-9.3-13.4c-6.5-8.9-13.1-17.7-23.4-22.7c-10-4.9-12.6-3.7-15.6,6.9
		c-0.9,3.1-1.7,6.3-3.1,9.2c-2.1,4.4-4.5,8.6-7.3,12.6c-1.1,1.5-3.6,3.1-5.4,3c-5.8-0.4-10-4.5-14.5-7.8c2.7-0.9,5.3-1,7.7-1.7
		c10.5-3,16.5-10.4,19.2-20.7c0.6-2.4,0.6-5.3,4.5-5c0.5,0.1,1.9-2.1,1.8-3.1c-0.6-3.9-1.6-7.8-2.7-11.7c-0.6-2-1.8-3.9-2.9-6.1
		c1.1,0,1.8,0,2.6,0c-0.5-2.4-2-5-1.3-6.8c1.2-3.2-0.4-5-2.1-6.8c-7.6-8.1-15.3-16.1-23-24.1c-1.2-1.3-2.4-2.7-4.1-4.6
		c3.1-0.3,5.2-0.6,7.4-0.8c0-0.3,0.1-0.7,0.1-1c-4.2-0.8-8.4-1.5-12.6-2.3c0-0.3,0-0.5-0.1-0.8c3-0.7,6.1-1.4,9.1-2.1
		c0-0.4,0-0.8,0-1.2c-3.9-0.4-7.8-0.9-12.7-1.4c3.5-1.9,6-3.2,8.5-4.5c-0.1-0.4-0.3-0.9-0.4-1.3c-6.3,1.3-12.6,2.7-18.9,4
		c-0.1-0.4-0.3-0.7-0.4-1.1c1.6-1,3.3-2,4.9-3.1c1.1-0.8,2.7-1.6,0.2-2.6l0.1,0.1c3.9-3,7.9-6,12.5-9.5c-9.9-1-17.6,2-24.8,8.2
		c0.3-1.6,0.4-2.5,0.5-3.4c-0.3-0.2-0.7-0.4-1-0.5c-3.5,4.4-7,8.9-10.6,13.3c-0.2-0.1-0.5-0.3-0.7-0.4c2.3-5,4.6-10,7.3-15.9
		c-1.4,1-2,1.3-2.4,1.8c-1,1.1-2,2.2-2.9,3.4c-9,12.4-13.9,26.3-15.8,41.3c-1.2,9.2-1.6,18.8,3.4,27c4.7,7.8,10.7,14.7,16.1,22.1
		c0.7-11.5,1.2-22.5,2.1-33.5c0.8-10.1,4.2-19.1,12.7-25.4c1.8-1.3,4.1-1.9,6.1-2.8c0.2,0.4,0.5,0.9,0.7,1.3c-1.3,1-2.9,1.9-4,3.1
		c-2.8,2.9-6,5.6-8,9c-2.2,3.6-3.3,7.8-4.8,11.8c-0.2,0.6-0.3,1.4-0.6,2.7c12-14.1,30.1-13.2,39.5,2.7c3.3,5.5,8.9,7.7,14.7,9.4
		c1.6,0.5,3.1,1.2,5.6,2.1c-1.8,0.7-2.5,1.3-3.2,1.2c-7.5-0.7-12.3,3.1-15.9,9.2c-0.7,1.2-1.6,2.2-2.5,3.2
		c-8.2,10.1-19.9,12.7-31.3,6.5c-3.6-2-6-1.9-7.7,1.8c-0.6,1.2-0.7,2.7-0.5,4c0.8,4.4,2,8.7,2.7,13.1c0.4,2.7,0.1,5.5,0.1,8.8
		c-1-0.7-1.6-0.9-1.9-1.3c-6.9-9.7-15.9-16.9-26-23.1c-1.9-1.2-3.2-3.4-4.8-5.2l-0.1-0.1c2.9,1.9,5.8,3.8,8.7,5.6
		c0.3-0.4,0.6-0.8,0.8-1.2c-4.3-5-8.6-10-13-14.9c-9.6-10.6-13.1-22.9-10.8-36.9c2.4-14.4,5.2-28.8,7.8-43.2c0.4-2,0.4-4,0.6-6.6
		c-1.2,0.9-1.7,1.3-2.2,1.7c0-1.7-0.1-3,0-4.4c1.7-19.1-4.7-35.2-18-48.6c-2-2.1-4.7-3.5-7-5.3c-0.2,0.3-0.4,0.6-0.6,0.9
		c1.9,4.7,3.8,9.3,5.7,14l0.1-0.1c-2.8-3.2-5.6-6.5-8.5-9.6c-1-1.1-2.5-1.8-3.7-2.7c-0.2,0.3-0.4,0.5-0.6,0.8c0.7,1.2,1.3,2.3,2,3.5
		c-2.8-1.5-5.5-2.8-8.1-4.2c-0.2,0.3-0.4,0.7-0.6,1c1,2.1,2,4.3,3,6.4l0.1-0.1c-1.4-1.2-2.9-2.4-4.3-3.6c-0.2,0.2-0.4,0.4-0.7,0.7
		c1.9,3.1,3.8,6.3,5.6,9.4l0.1,0c-5.6-4.7-10.9-9.9-19.4-11.8c3.3,4.6,6.2,8.4,8.7,12.3c1.6,2.6,3.5,5.3,0.9,8.5l0.1-0.1
		c-0.2,0-0.4,0-0.7,0l0.1-0.1c1.1,1.9,2.3,3.8,3.6,6c-3.8-1.9-7.4-3.8-11-5.6c-0.2,0.4-0.4,0.8-0.6,1.2c1.4,1,3,1.8,4.2,3
		c2,2,3.8,4.3,5.7,6.4l0.1,0.1c-7.9-4.5-16.3-7.5-26-8.1c6.3,4.6,11.7,8.7,17.2,12.7l0.1-0.1c-0.6,0-1.2-0.1-2.4-0.2
		c2.1,2.5,3.9,4.6,5.6,6.8c0.4,0.6,0.1,1.7,0.2,2.5c-0.4-0.3-0.7-0.6-1.1-1c-0.2-0.5-0.4-1-0.6-1.5c-0.2,0.1-0.4,0.2-0.6,0.3
		c0.4,0.4,0.8,0.7,1.2,1.1c0.3,0.3,0.7,0.6,1,1c-0.9,3.6-2.5,1.7-3.8,0.4c-5.9-6.1-12.9-10.3-21.4-11.6c-1.3-0.2-2.6,0-4.9,0
		c5.2,3.8,9.4,6.9,13.6,10c-0.2,0.2-0.3,0.4-0.5,0.6c-5.5-1.1-11.1-2.3-16.6-3.4c-0.1,0.5-0.2,0.9-0.3,1.4c2,1.3,3.9,2.5,5.9,3.8
		l0.1-0.1c-2.3-0.4-4.6-0.8-7-1.2c-0.1,0.3-0.2,0.6-0.3,0.8c3.2,1.8,6.3,3.6,9.5,5.4c-0.1,0.4-0.2,0.8-0.3,1.1c-7-0.9-14-3-20.9,0.5
		c2.4,0.7,4.8,1.5,7.2,2.2c0,0.4-0.1,0.8-0.1,1.2c-3.9,0.5-7.8,1-11.7,1.6c0,0.3,0,0.6,0,1c4.8,1,9.7,2,14.5,3
		c-6.8,0.9-13.5,0.1-19.7,3.4c5.3,0.6,10.6,1.2,15.9,1.9c0,0.4-0.1,0.8-0.1,1.2c-2,0.2-4,0.4-6,0.6c-1.2,0.2-3.4,0.4-3.4,0.8
		c-0.5,4-4,2.4-6,3.2c-3,1.2-6.2,1.8-9.3,2.7c0.1,0.5,0.2,0.9,0.3,1.4c4.3,0,8.5,0,13.1,0c-6,2.2-11.6,4.3-17.1,6.3
		c0.1,0.5,0.3,1,0.4,1.5c7.5-2.2,15-3.9,23-2.3c-16.9,7.4-26.1,21-31.5,37.9c5-7.1,9.9-14.2,14.9-21.3c0.4,0.2,0.9,0.5,1.3,0.7
		c-7.8,9.7-11.1,21.1-12.8,33.2c7-0.7,14.1-4.5,19.1-9.7c3.1-3.2,6.1-6.7,9.7-9.2c9.3-6.5,20.2-4.4,27,4.5c0.7,0.9,1.4,1.7,2.1,2.6
		c-0.7-11.9-9.3-13.2-18.6-13.7c0.1-0.4,0.2-0.8,0.3-1.2c3.9,0.3,7.8,0.6,11.8,0.8l-0.1,0.1c0.8,0,1.7,0,2.5-0.1l0,0.1
		c-3.7-4.2-7.4-8.4-11.4-12.9c2.2,0.9,4.9,1.4,6.5,3c3,3,6.4,6.2,7.9,10c5.6,13.7,6.5,28.2,5.9,42.7c-0.1,2.9-1.4,5.8-4.9,6.8
		c-0.7-1.9-1.2-3.6-1.9-5.4c-3.2,1.5-5.8,2.9-8.6,3.9c-11.6,4.3-22.4,0.3-29.2-11c-3.1-5.2-6.5-9.1-13.2-7.8
		c-1.5,0.3-4.2,0.9-4.2,1.4c0,2.2,0.2,4.7,1.3,6.5c2.3,4,5.4,7.6,7.8,11.6c4,6.5,8.4,12.4,16.3,14.4c0.5,0.1,0.8,0.6,1.8,1.4
		c-1.8,1.2-3.3,2.1-4.8,3.1c0,1.6-0.4,3.1-1.3,3.6c-4.5,2.7-6.9,2.3-9.2-2.5c-3.5-7.6-6.6-15.4-9.7-23.2c-2.1-5.4-2.6-5.7-7.9-3
		c-7.9,4-14.7,9.4-20,16.4c-5.9,7.6-11.4,15.5-16.7,23.5c-5.6,8.5-12.5,15.4-21.2,20.9c-7.2,4.6-13.8,10.2-20.7,15.4
		c0.4,0.5,0.7,1,1.1,1.5c6.8-4.6,13.7-9.2,20.5-13.9c0.2,0.3,0.4,0.7,0.6,1c-17,12.5-31.5,28.8-53.4,33.9c0.7,0.5,1.3,0.8,1.9,0.8
		c10.7-0.8,21.7,0.4,31.8-4.7c0.4-0.2,1-0.1,1.7-0.2c-0.3,0.7-0.3,1.2-0.5,1.4c-1.4,1.3-2.7,2.8-4.4,3.6c-5.5,2.8-11.1,5.4-16.6,8.1
		c0,0.3,0.1,0.5,0.1,0.8c6.5-1.5,13-3,19.9-4.7c-8.5,7.5-19.2,9.2-29.1,12.8c1.3,0.5,2.6,0.8,3.6,0.4c6.4-2.2,13-3.9,19.1-6.8
		c6.8-3.2,13.1-7.5,19.7-11.4l-0.1-0.1c-5.1,9.9-13.7,16.6-21.8,23.9c3.8-2.3,7.6-4.6,11.4-6.9c0.3,0.3,0.7,0.7,1,1
		c-4.7,6.3-8.5,13.9-14.5,18.5c-6.1,4.6-14.6,6.1-21.9,8.9c9,1.6,17.9-0.5,26.9-4.4c-1.1,3.6-1.9,6.3-2.8,9c0.3,0.1,0.6,0.2,1,0.3
		c1-0.9,2-1.8,3.1-2.8c0,4.4,0,8.3,0,11.6c1.7,0.4,2.8,0.6,3.8,0.9c0.9,0.3,2.2,1.1,2.6,0.8c0.8-0.6,1.6-1.8,1.7-2.9
		c0.6-4.1,1.5-7.9,4.9-10.9c0.2,2.8,0.4,5.6,0.6,8.4c0.3,0,0.5,0,0.8,0c0.9-1.7,1.9-3.4,3.3-5.9c1.3,7.8,0.9,15.3,6.9,20.5
		c0.8-1.3,1.4-2.2,2.1-3.2c3.4,4.5,5,4.6,8.2,0.3c6.3-8.4,14-15,24.1-18.6c11.2-4,22.6-5.7,34.4-4.2c5,0.6,9.8,2.1,14.7,2.9
		c1.1,0.2,3.3-0.5,3.4-1.1c0.6-3,0.6-6.2,0.8-9.3c-0.3,0-0.6-0.1-0.8-0.1c-0.9,1.7-1.7,3.5-2.8,5.6c-5.3-7.4-2.4-16.4-5.9-24.5
		c-1,1.9-1.7,3.1-2.3,4.2c-0.4,0-0.8-0.1-1.2-0.1c0-5.9,0-11.7,0-17.6c-0.5-0.1-0.9-0.2-1.4-0.3c-1.5,1.7-2.9,3.3-3.7,4.2
		c-1.3-1.6-2.5-2.9-3.4-4.4c-0.5-0.8-0.8-1.9-0.8-2.9c0-1.7,0.4-3.4,0.7-5.8c-2,0.2-3.6,0.2-5.1,0.6c-4.1,1.1-5.2,0.3-4.8-4
		c0.6-6.4,5-11.1,12.5-13.4c3.5-1.1,7-0.9,9.4,1.9c3.6,4.5,7.1,9.2,10,14.1c5.8,9.8,10.4,20.3,16.8,29.7
		c12.7,18.8,30.6,28.7,53.6,28.3c2.7,0,6-0.5,8-2.1c1.9-1.5,2.9-4.7,3.3-7.2c0.1-0.7-3.1-2.5-5-2.9c-5.9-1.2-11.8-2.5-16.3-6.8
		c-7.6-7.3-13.8-15.7-16.9-25.9c-4.7-15.2,2.6-28.6,17.9-32.9c12.5-3.5,25.3-3.6,37.8-0.6c21.1,5.1,29,28.1,16,45.5
		c-2.1,2.8-4.4,5.5-6.6,8.3c-5.4,7-12.2,11.4-21.2,12.3c-1.7,0.2-4.7,1.8-4.6,2.6c0.1,2.5,1,5.2,2.4,7.3c0.9,1.2,3.3,1.8,5.1,1.9
		c13.6,1.1,26.4-1.8,38.3-8.6c13-7.5,21.3-19.1,28-32c4.3-8.4,7.9-17.2,11.7-25.9c2.4-5.6,6.5-8.7,12.5-8.7
		c6.7,0,17.7,8.1,19.8,14.4c0.3,1,0.6,2.4,0.2,3c-1.1,1.6-2.7,3-4.1,4.4c-2.5-1.5-5-2.9-8.3-4.9c1,6.2,1.8,11.3,2.6,16.3
		c-0.4,0.1-0.9,0.2-1.3,0.3c-1.3-2.9-2.6-5.7-4-8.6c-0.4,0.1-0.7,0.3-1.1,0.4c-0.4,2-0.7,3.9-1.2,6.4c-2.2-2.7-3.8-4.7-5.5-6.7
		c-0.3,0.1-0.6,0.3-1,0.4c2.2,7.6,3.9,15.2,0.7,24c-1.4-2.9-2.2-4.7-3-6.6c-0.3,0-0.7,0.1-1,0.1c-0.5,7.6-3,14.3-7.3,20.8
		c-1-1.4-1.6-2.2-2.4-3.3c-2.1,4.2-4,7.9-6.2,12.4c1.9-0.5,2.9-0.7,3.7-1c22.2-8,43.5-4.9,63.2,6.9c7.6,4.6,13.6,11.8,20.4,17.9
		l-0.1,0c1.1,0.5,2.6,1.8,3.3,1.4c9.1-4.6,17.9-9.5,18.1-21.6c0-0.7,0.4-1.4,0.9-3.2c4,7.5,3.6,14.3,2.1,21.3
		c8-12,3.8-24.1-0.5-36.3c0.3-0.1,0.7-0.2,1-0.4c2.4,2.2,4.8,4.4,7.9,7.2c0.4-2.8,0.6-4.3,0.8-5.9
		C477.7,552.3,478,552.6,478.2,552.9z M167.8,231.4l-0.2,0l0.3,0l-0.1,0.1C167.8,231.6,167.8,231.4,167.8,231.4z M138.1,291.7
		l0.1,0.1l-0.2,0l-0.1-0.2C137.8,291.6,138.1,291.7,138.1,291.7z M319.6,624.5c0,0.6,0,1.2,0.1,1.8c-0.8,1.1-2,2-2.3,3.2
		c-2.4,9.2-5.1,18.3-6.6,27.6c-1.3,7.7-0.9,15.7,2.5,23.2c3.5,7.8,9.7,12.2,18.3,14.4c0-2.2,0-3.8,0-5.4c-0.1-4.9-0.4-9.7-0.4-14.6
		c0-2.9,1.9-4.7,4.8-5.1c2.9-0.5,4.4,1.3,5,3.7c1,3.6,1.6,7.4,2.2,11.1c0.3,2,0.2,4.1,0.3,6.1c0.6,0,1.1-0.1,1.7-0.1
		c0.1-16.2-0.2-32.3-3.9-48.3l0,0.1c0.8,1.2,2,2.3,2.4,3.6c1.3,5,2.7,9.9,3.5,15c1.3,8.3,2,16.7,3.6,24.9c0.6,2.9,2.7,5.8,4.7,8.1
		c2,2.2,4,1.7,5-1.5c1.3-4,2.6-8,4.2-11.9c1.9-4.7,5-8.3,9.7-10.5c7.7-3.7,11.4-1.3,10.8,7.1c-0.2,2.8-0.8,5.6-1.2,8.4
		c-0.1,1-0.1,1.9-0.2,2.9c11.7-21.2,3.7-41.9-1.5-62.8c0.6,0.4,0.8,0.8,1.1,1.2c5.5,12.1,9.1,24.6,10.1,37.9c0.2,2,0.2,3.8,2.9,3.9
		c5.3,0.2,7.9,3.7,8.6,8.2c0.7,4.4,0.4,8.9,0.5,13.3c0,1.4,0,2.9,0,4.3c6.8,0.8,12.8-2.4,15.2-8.6c1.9-4.7,3.1-9.8,4-14.8
		c2.2-13.6-0.9-26.7-4.1-39.7c-0.2-0.9-0.5-1.8-0.7-2.8c-0.2-0.9-0.2-1.8-0.2-2.8c6.1,11.5,8.4,23.8,9.3,36.5
		c0.1,1.4,0.6,3.4,1.7,4.1c6.5,4.7,8.4,11.3,8.2,18.9c0,1.8-0.2,3.7-0.3,6.1c6.6-1.7,11.4-5.1,13.7-10.6c2.2-5.1,3.6-10.8,4.3-16.3
		c1.4-11.7-0.8-23.2-3.4-34.6l-0.1,0.1c-0.4-3.6-0.3-7.4-1.2-10.9c-7.3-27.9-24-46.5-53.1-52.5c-29.5-6.1-59.3,7.5-72.6,33.3
		c-0.9,1.8-1.5,3.8-2.7,6.6c1.7-1.4,2.4-1.9,3.3-2.6c-1.6,4.8-3.2,9.3-4.8,14.1c1.5,0,2.2,0,2.9,0l0-0.1c-1.4,2.3-2.9,4.6-4.3,6.9
		C320.2,624.5,319.9,624.5,319.6,624.5z M528,261.1c-0.3,0.5-0.6,1-0.9,1.6c-0.9,0.3-1.8,0.6-2.8,0.9l0.1,0
		c-0.5-0.1-0.9-0.2-1.4-0.3l0.1,0.1c9.2-6.6,13.6-16.3,16.9-26.6c3.1-9.6,4.4-19.6,2.6-29.7c-1.6-8.9-9.8-15.4-18.6-13.9
		c-6.9,1.2-13.6,4.1-20.3,6.2c0.1,0.4,0.1,0.7,0.2,1.1c1.6,0.6,3.2,1.1,5,1.7c-0.8,0.7-1.3,1.1-1.9,1.6c2.1,0.8,3.9,1.5,5.7,2.1
		c0,0.3-0.1,0.6-0.1,0.8c-9.6,2.5-19.1,4.9-28.7,7.4c0,0.4,0.1,0.7,0.1,1.1c3.6,1,7.2,2,10.8,3.1c-0.1,0.6-0.1,1.1-0.2,1.7
		c-8.1,0-16.2,0-24.2,0c0,0.3,0,0.6,0.1,0.9c3.4,2,6.8,4,10.2,6l0.1-0.1c-3.3-1-6.7-2.1-10-3.1c-0.1,0.3-0.2,0.5-0.3,0.8
		c2.3,1.4,4.7,2.8,7,4.1c-15-1.8-15-1.8-16.9,0.2c2.2,1.2,4.4,2.4,7.5,4c-2.7,0.4-4.3,0.7-7,1.1c3,1.7,5.2,2.9,7.8,4.4
		c-4.9,2.2-10.5-0.1-15.6,4c4,1.3,7,2.2,10,3.2c0,0.4,0.1,0.7,0.1,1.1c-2.4,0.6-4.8,1.2-7.1,1.9c-2.5,0.7-5,1.3-8.2,2.2
		c2,1.3,2.9,1.8,3.8,2.4c-0.1,0.3-0.1,0.5-0.2,0.8c-4,0-8.1,0-12.1,0c0,0.3-0.1,0.7-0.1,1c3.6,0.9,7.1,1.7,11.2,2.7
		c-1.4,1.1-2.3,1.7-3.6,2.7c3.6,0.7,6.7,1.3,10.9,2.2c-6.4,1.1-11.6,2.1-16.7,3c0,0.4,0,0.8,0,1.2c7.5,1.2,14.4,3.7,21.1,8.7
		c-8.1,1.8-15.3,3.5-23.5,5.4c6.4,3.4,11.6,6.1,16.8,8.8c-0.2,0.3-0.3,0.5-0.5,0.8c-2.5-0.5-5.1-1-7.6-1.5c-0.1,0.4-0.2,0.7-0.3,1.1
		c3.7,1.3,7.3,2.6,11,4c-0.1,0.4-0.1,0.8-0.2,1.3c-5.6,0.3-11.3,0.6-16.9,0.9c0,0.4,0,0.8,0,1.2c1.2,0.3,2.5,0.6,3.7,0.9
		c1.2,0.3,2.4,0.7,4.2,1.1c-14.2,7.6-14.6,7.9-13.4,12.7c5-2.9,10-5.6,14.9-8.4c0.3,0.4,0.6,0.8,0.9,1.1c-4.8,4.8-9.7,9.5-14.5,14.2
		c6.2-0.2,12.7-0.7,19.3,3.2c-3.4,0.2-5.9,0.4-8.4,0.5c0,0.4,0,0.7,0,1.1c4.6,1.1,9.2,2.2,13.8,3.3c0,0.3,0,0.7-0.1,1
		c-1.6,0.6-3.3,1.3-4.9,1.9c14.6,2.7,27-3.3,39.3-9.5c3.7-1.9,6.8-4.8,10.2-7.2c2.4-1.7,4.8-3.2,7.9-5.2c-2.8-1.1-4.7-1.8-7.5-2.9
		c3.9-2.9,6.9-5.2,9.9-7.5c-0.1-0.2-0.2-0.3-0.3-0.5c-4.4,1.9-8.8,3.7-13.2,5.6c-0.1-0.3-0.3-0.6-0.4-0.9c4.4-2.9,8.8-5.7,13.2-8.6
		c0,0-0.1,0.1-0.1,0.1c0.6-0.5,1.3-1,1.9-1.5c-0.1-0.2-0.2-0.5-0.3-0.7c-5.9,1-11.9,2-18.5,3.1c6.5-4.9,12.2-9.3,17.9-13.6l0-0.2
		c0,0,0,0.3,0,0.3c-4.4,0.8-8.8,1.6-13.3,2.4c-0.2-0.6-0.3-1.1-0.5-1.7c11.1-5.4,21.5-11.6,29-21.5c-0.8,0.1-1.4,0.6-2,1.1
		c-0.6,0.5-1.3,1-1.9,1.5c0-0.5,0-1.1,0.1-1.7L528,261.1z M310.1,268.9c-0.8,1.2-1.6,2.4-2.4,3.6c0.3,0.3,0.6,0.6,0.9,0.9
		c2.3-1.1,4.5-2.3,6.8-3.4c-0.1-0.3-0.2-0.7-0.4-1c-1.7,0-3.4,0-5.1,0c3.5-1.9,7-3.7,11.4-6c-9.8-1.4-17.9-0.1-25,5.5
		c-1.7,1.3-3.4,2.8-1.5,5.7c2.4-1.4,4.6-3.1,7-3.9C304.6,269.5,307.4,269.4,310.1,268.9z M106.6,690.6c0,0.5-0.1,1.4,0,1.4
		c2.4,0.9,9.7-4,9.1-6.3c-1.4-5.6-3.1-11.1-4.7-16.7c-6.7,3.1-9.7,12.9-5.6,18.2c0.9-1.8,1.7-3.6,2.6-5.3c0.4,0.1,0.8,0.1,1.2,0.2
		c0.4,1.9,1.1,3.8,1,5.7C110.1,689.5,109.3,691.6,106.6,690.6L106.6,690.6z M141.2,185.4c0.1,0,0.1,0,0.2-0.1
		C141.3,185.4,141.2,185.4,141.2,185.4c-1-0.6-1.7-1.4-2.7-1.9c-17-7.8-34.4-14-53.1-16.1c-13.8-1.6-27.4-0.4-39.8,6.8
		c-1.5,0.9-2.7,2.1-4.5,3.4c1.1,0.3,1.3,0.5,1.6,0.5c0.5-0.1,1.1-0.2,1.6-0.4c20.8-6.7,41.8-7.4,62.9-2.2
		C118.7,178.3,129.9,182.1,141.2,185.4z M393.5,222.4C393.5,222.4,393.4,222.4,393.5,222.4c-0.8,1.6-1.4,3.2-2.1,4.8
		c0.2,0.3,0.5,0.5,0.7,0.8c16.3-11.2,35.1-15.6,54.5-20.3c-10-5.1-19.1,0.2-28.4-0.2c1.4-1.3,2.9-2.2,4.5-3.1c1.5-0.9,3-1.6,4.5-2.5
		c-19.1,4.8-35.5,13.7-48.2,28.6c0.3,0.5,0.6,1,0.9,1.5C384.4,228.9,389,225.6,393.5,222.4z M116.4,353.6c4.7-3.3,9.5-6.6,15-10.3
		c-5.2-0.5-9.7-0.9-14.1-1.3c0-0.5-0.1-0.9-0.1-1.4c5.8-1,11.6-1.9,17.4-2.9c0-0.2,0-0.4,0-0.7c-3.6-0.3-7.1-0.6-10.7-0.9
		c0-0.3,0-0.6,0-0.9c2.5-0.6,5-1.2,7.5-1.9c-0.1-0.3-0.1-0.7-0.2-1c-6.2,0.3-12.3,0.7-18.5,1c-0.1-0.3-0.1-0.6-0.2-0.9
		c3.4-2.2,6.8-4.4,10.2-6.6c-0.2-0.6-0.4-1.2-0.6-1.7c-8.2,1.6-16.4,3.1-25,4.7c9.1-6.3,18.2-11.8,29.2-13.4c-0.1-0.5-0.3-1-0.4-1.4
		c-5.8-0.6-11.6-1.2-17.5-1.8c0-0.5,0-0.9,0-1.4c6.6,0,13.3,0,19.9,0c0-0.4,0-0.9,0-1.3c-5.4-0.3-10.8-0.6-16.2-0.9
		c0-0.6,0-1.1,0-1.7c9.9,0,19.7,0,29.6,0c0-0.5,0-0.9,0-1.4c-4.4-0.6-8.9-1.2-13.3-1.8c0-0.4,0-0.8,0.1-1.2c2.3-0.2,4.5-0.5,6.8-0.7
		c0-0.3,0-0.7,0-1c-8.7-1.3-17.4-2.7-26.2-4c10.4-1.8,20.5-0.1,30.7,1.3c-13.9-8.6-29-11.9-45.3-10.5c0-0.6,0-1.2,0-1.8
		c10.8-1.9,21.6-3.8,32.4-5.7c0.1-0.1,0.2-0.3,0.2-0.4c-7.5-1.2-15-2.4-22.5-3.6c4.1-1.3,8.3-1.7,12.5-2.3c2-0.3,4.3-0.4,5.8-1.4
		c12-8.3,24.9-9.9,38.8-6.3c1.5,0.4,3,0.5,4.5,0.7c0.1-0.5,0.2-1,0.3-1.5c-7.9-4.1-16.4-5.8-25.4-6.1c0.1-0.6,0.2-1.1,0.3-1.7
		c7.5,1.1,15,2.1,22.9,3.3c-4.4-8.2-10.9-14.2-18.7-18.3c-7.7-4.1-16.2-7.1-24-10.4c-0.1,0,0.3-0.2,0.7-0.2c1.1,0,2.2,0.1,3.2,0.3
		c11.4,1.5,21.7,5.7,31.1,12.2c4.2,2.9,8.3,6.1,12.4,9.2l-0.1,0.1c-9.2-22.6-27.3-31.2-50.4-32c16.5-4.3,31.3,1.5,46.1,8.1
		c-1.4-1.7-3-3.2-4.6-4.5c-10.8-8.6-23.5-11.3-36.9-11.9c-21.1-0.9-41.5,3.2-61.6,9.3c-8.2,2.5-16,6-22.5,11.8
		c-8.9,8-9.8,16.5-2.9,26.2c7.4,10.4,16.8,18.8,27.1,26.1c3.6,2.6,7.4,4.8,11.4,7.4c-0.7,0.5-1.1,1.1-1.5,1.1c-13.4,0-26.9,0-40.3,0
		c-0.1,0.4-0.2,0.9-0.3,1.3c3.1,1.2,6.3,2.4,9.4,3.5c0,0.2-0.1,0.4-0.1,0.7c-3,0-6,0-9,0c0.1,0.5,0.1,0.8,0.2,1
		c0.8,0.8,1.5,1.5,2.3,2.2c8.9,7.5,19.5,11.5,30.7,14.1c3.4,0.8,6.9,1.6,10.3,2.5c0,0.6,0,1.2,0,1.7c-7.9,8.1-18.8,6.9-29.7,8.1
		c1.9,1.3,3.1,2.1,5.3,3.6c-3.2-0.2-5.3-0.3-7.5-0.4c11.8,7.5,21.3,18.7,36.7,18.8c0,0.4,0,0.9,0,1.3c-4.8,1.3-9.7,2.6-14.4,3.9
		c18.3,2.8,35.6-0.8,52.3-8.6c0.1,0.3,0.2,0.7,0.3,1C118.7,351.1,117.6,352.4,116.4,353.6c-7,1.9-9.1,9.6-15.2,12.7
		c7.1,0.1,25.8-9.5,28.2-14.3c-4.8,1.7-9.4,3.3-14,4.9c-0.2-0.3-0.3-0.6-0.5-1C115.5,355.2,116,354.4,116.4,353.6z M208.1,643.1
		L208.1,643.1c-0.7,2.5-1.1,5-1.9,7.4c-3.5,10.8-5.4,21.8-5.6,33.1c0,2,0.6,4.1,1,6.1c1.6-5.6,2.1-11,3.4-16.2
		c0.5-1.8,3.3-4.5,4.8-4.3c2,0.2,4.5,2.5,5.3,4.5c1,2.6,0.8,5.8,0.7,8.8c-0.1,3.8-0.7,7.7-1.1,12c2.1-0.5,3.6-0.7,5-1.1
		c10.1-3.1,15.4-10.5,17.9-20.3c2.8-11.2,1.6-22.4-0.3-33.5c-1-5.6-2-11.2-3-16.8c-0.1-0.9,0.1-2.7,0.2-2.7c4.4-0.1,2-3.4,2-4.9
		c-0.2-8-3.1-15.2-7.9-21.4c-14-18.4-32.6-28.6-55.9-29.4c-20.7-0.7-37.9,6.5-50.5,23.5c-1.7,2.3-3.7,4.4-5.5,6.5
		c-14.2,17.1-24,36.3-29.2,57.9c-2,8.4-2.4,16.9,1,25.2c2.3,5.4,5.9,9.5,12.3,11.5c-0.2-2.2-0.3-4-0.4-5.7
		c-0.4-7.4,1.7-13.9,8.3-17.8c2.7-1.6,3.3-3.4,3.7-6.1c2-13.3,6.7-25.5,14.2-36.7c-0.2,1.6-0.9,3-1.4,4.5
		c-2.9,8.5-6.3,16.8-8.4,25.4c-2.7,11.2-1.4,22.4,3.7,32.9c2.5,5,9,8.3,15.2,7.7c-0.4-2.1-0.8-4.2-1.1-6.3
		c-1.2-8.1,1.6-15.2,8.2-17.2c4.7-1.4,6-4.2,6.7-8.3c0.3-1.9,0.8-3.7,1.3-5.5c2.9-10.9,6.8-21.3,13.4-30.6c-0.3,1.4-0.8,2.8-1.3,4.1
		c-2.4,6.5-5.1,12.9-7,19.5c-2.7,9.3-4.4,18.8-1.4,28.4c0.5,1.8,1.4,3.4,2,5.1c0.5-1.8,0.2-3.2,0-4.7c-0.2-1.5-0.3-3-0.3-4.5
		c-0.1-5.4,2-7.1,7.3-5.8c6.4,1.5,10.9,5.4,13.5,11.4c1.8,4.2,3.4,8.6,4.8,12.9c1.1,3.5,3.1,3.7,5.9,2.2c4.8-2.6,8-6.5,9.1-11.8
		c0.8-3.7,1.2-7.5,1.8-11.2C200,661.1,202.3,651.5,208.1,643.1z M254.1,573.9c-0.7,0-1.5,0-2.2,0c-0.5,5.4-1.6,10.9-1.2,16.3
		c0.3,3.8,1.7,8.1,4,11.2c9.4,13.5,28.6,17.4,42.8,9c12-7,15.5-17.9,13.7-31.4c-0.7-5-2.6-6.2-7.7-4.9c-7.6,2-15,4.6-22.6,6.7
		c-1.4,0.4-3.1,0.3-4.5-0.1c-5.2-1.5-10.3-3.2-15.5-4.7c-2.9-0.8-4.4,0.4-4.6,3.4c-0.2,2.8-0.5,5.5-0.8,8.3c-0.5,0-0.9,0-1.4-0.1
		C254.1,583.1,254.1,578.5,254.1,573.9z M240.1,585.6c-0.9,13.5,3.9,24.2,15.2,31.5c10.1,6.5,21.3,7.5,32.8,6
		c19.3-2.5,33.7-17.9,34.7-37.2c0-0.4-0.3-0.9-0.7-1.9c-3.9,5.6-7.8,10.4-10.9,15.7c-13.5,22.8-45.1,23.7-59.9,1.6
		C247.7,596,243.9,590.9,240.1,585.6z M378.8,214.6c0.3,0.4,0.7,0.8,1,1.2c15.8-10.7,34.2-14.7,52-20.4c3.7-1.2,7.6-2.1,11.2-3.6
		c11.7-5.1,23.2-10.6,34.8-15.8c2.3-1,4.8-1.5,7.3-2.3c-0.1-0.5-0.2-0.9-0.4-1.4c-9.2,2.5-18.5,4.6-27.6,7.4
		c-9.3,2.9-18.5,6.1-27.6,9.6c-12.1,4.6-24.3,9.1-36.1,14.5C388,206.5,383.6,211,378.8,214.6z M335.8,396c0.1,10.5,7.2,18.2,16.4,18
		c8.4-0.2,15.7-7.5,15.8-15.6c0.1-8.7-7.4-16.8-15.5-16.9C343.3,381.4,335.8,387.9,335.8,396z M279.6,497.2
		c-4.7,0.3-9.7,0.4-14.7,0.9c-2.8,0.3-5.3,1.9-5.3,5.2c0,3.3,2.6,4.1,5.1,4.8c1.4,0.4,2.9,0.6,4.4,0.6c6.2,0.1,12.4,0.3,18.6,0.1
		c2.3,0,4.8-0.3,6.6-1.4c1.9-1.2,3.1-3.6,4.7-5.5c-1.8-1.4-3.5-3.6-5.5-3.9C289,497.3,284.4,497.5,279.6,497.2z M211.2,384.5
		c-8.8,0-15.8,6.6-15.8,15c-0.1,9.3,6.5,16.3,15.4,16.3c8.4,0,15-6.3,15-14.4C225.8,392,219.3,384.6,211.2,384.5z M386.9,693.3
		c3.3,0.8,7.2,1.8,11.1,2.5c0.8,0.1,2.7-1.4,2.7-2.2c0.4-5.7,0.8-11.5,0.4-17.2c-0.1-1.7-2.6-3.5-4.4-4.7c-0.5-0.4-3.1,0.9-3.4,1.8
		C391.1,679.8,389.2,686.2,386.9,693.3z M508.8,171.3c26.7,3.5,40.9,18.9,43.2,45.7C559.4,191.8,534.6,165.8,508.8,171.3z
		 M156.6,692.9c-2.7-7-4.8-13.1-7.4-18.9c-0.4-1-3.5-2-4-1.5c-1.7,1.5-3.7,3.7-3.8,5.6c-0.2,4.7,0.5,9.4,1.3,14
		c0.2,1.1,2.2,2.8,3.2,2.7C149.5,694.5,153.2,693.6,156.6,692.9z M50.4,190.7c22.6-5.5,45.6-7.1,68.8-7.3
		C95.6,180.2,72.4,180.3,50.4,190.7z M430.5,669.2c-0.3,0.2-0.6,0.5-1,0.7c-1.5,5.3-3.1,10.6-4.4,16c-0.3,1.3-0.2,3.8,0.6,4.2
		c2.4,1.3,5.1,2,7.8,2.8c0.3,0.1,1.3-1.2,1.3-1.8c0-5.1,0.2-10.2-0.5-15.2C433.9,673.5,431.8,671.4,430.5,669.2z M208.4,693.8
		c0.5-0.1,1-0.2,1.6-0.3c0.8-6,1.8-12,2.3-18c0.1-1.3-1.1-2.7-1.7-4c-1.1,1-3,2-3.1,3.1c-0.6,5.3-0.8,10.7-0.9,16.1
		C206.6,691.7,207.8,692.7,208.4,693.8z M340.4,683.8c-0.5-2.8-1.1-6.6-2.1-10.3c-0.2-0.8-1.7-1.2-2.6-1.9c-0.3,0.8-1,1.6-1,2.4
		c0.3,5.9,0.7,11.8,1.2,17.7c0.1,0.9,1,1.7,1.5,2.5c0.7-0.7,2-1.3,2.1-2.1C339.9,689.8,340,687.3,340.4,683.8z M315.1,587.4
		c5.1-3.5,8-10.5,6.5-15.2C315.9,574.5,312.2,581.6,315.1,587.4z M239.5,572.5c-0.9,5.4,2.7,12.5,7.5,15.4
		C249.4,583,246.1,576,239.5,572.5z M178.5,694.2c-2.6-6.2-3.8-12.5-8.8-17.7C169.4,685.8,173.4,694.2,178.5,694.2z M290.1,377.3
		c0.5,0.1,1.1,0.1,1.6,0.2c0.8-7.5,1.7-15,2.5-22.5c-0.5-0.1-1.1-0.1-1.6-0.2C289.3,362,288.5,369.5,290.1,377.3z M374.3,693
		c5-1.7,8.5-14,5.4-20.1C376.7,679.8,376.4,686.3,374.3,693z M37,188.6c0.2,0.3,0.3,0.7,0.5,1c8.9-3.5,17.8-7.1,26.6-10.6
		C54,179.4,45,182.8,37,188.6z M371.6,680.2c-0.6-0.2-1.2-0.4-1.8-0.6c-1.7,4.6-3.5,9.2-5.1,13.8c-0.1,0.4,0.8,1.7,1.1,1.7
		c1-0.1,2.4-0.4,2.7-1.1C370.9,689.7,371.7,685,371.6,680.2z M324.1,273.1c-0.2-0.6-0.4-1.1-0.6-1.7c-5.2,0.5-10.6,0.7-14.5,5
		c0.2,0.5,0.4,1.1,0.5,1.6C314.4,276.4,319.3,274.7,324.1,273.1z M146.8,271.2c-7.4-2.5-13.9-1.7-20.2,1.5
		C133.1,272.2,139.5,271.7,146.8,271.2z M86,178.5c-0.2-0.2-0.3-0.2-0.4-0.3c0,0.1-0.1,0.2-0.1,0.2C85.6,178.4,85.7,178.4,86,178.5z
		"/>
	<path d="M519.8,437.6c-1.1-0.9-2.2-1.7-3.2-2.6c0,0-0.1,0.1-0.1,0.1c1.1,0.8,2.1,1.6,3.2,2.5L519.8,437.6z"/>
	<path d="M537.6,437l0.3,0C537.9,437,537.6,436.9,537.6,437C537.6,436.9,537.6,437,537.6,437z"/>
	<path d="M23.1,475.4c-0.1,0-0.2,0.1-0.3,0.1C22.9,475.5,23,475.5,23.1,475.4C23.1,475.4,23.1,475.4,23.1,475.4z"/>
	<polygon points="563.4,534.5 563.2,534.3 563.3,534.5 	"/>
	<path d="M563.3,534.5c0.1,0,0.2,0,0.3,0C563.5,534.5,563.5,534.5,563.3,534.5C563.4,534.5,563.3,534.5,563.3,534.5z"/>
	<path d="M350,215.7c0-0.1,0-0.3,0-0.4c-0.1,0.1-0.1,0.1-0.2,0.2C350,215.6,350,215.6,350,215.7C350.1,215.7,350,215.7,350,215.7z"
		/>
	<path d="M220.6,217.4l-0.2-0.1C220.4,217.3,220.5,217.5,220.6,217.4C220.5,217.5,220.6,217.4,220.6,217.4z"/>
	<path d="M221.2,219.5c-0.2-0.7-0.4-1.4-0.6-2.1c0,0,0,0.1,0,0.1C220.7,218.2,220.9,218.8,221.2,219.5
		C221.1,219.5,221.2,219.5,221.2,219.5z"/>
	<path d="M0.7,539.3c-0.1-0.1-0.1-0.1-0.2-0.2C0.6,539.1,0.6,539.2,0.7,539.3C0.7,539.3,0.7,539.3,0.7,539.3z"/>
	<path d="M15.9,541.3c-0.1,0-0.2,0.1-0.3,0.1C15.6,541.4,15.7,541.3,15.9,541.3C15.8,541.3,15.9,541.3,15.9,541.3z"/>
	<path d="M526.7,391.7c0.2,0.1,0.4,0.1,0.5,0.2c0-0.1,0.1-0.2,0.1-0.3C527.1,391.6,527,391.6,526.7,391.7L526.7,391.7z"/>
	<path d="M54.8,386.5C54.8,386.4,54.8,386.4,54.8,386.5C54.9,386.4,54.8,386.5,54.8,386.5z"/>
	<path d="M526.8,391.7c-0.7-0.2-1.5-0.4-2.2-0.5c0,0-0.1,0.1-0.1,0.1c0.7,0.2,1.4,0.4,2.2,0.5C526.7,391.7,526.8,391.7,526.8,391.7z
		"/>
	<path d="M519.6,404.1c-0.5-0.3-1-0.6-1.5-0.9c0,0-0.1,0.1-0.1,0.1C518.5,403.6,519,403.9,519.6,404.1
		C519.5,404.2,519.6,404.1,519.6,404.1z"/>
	<path d="M521.1,405.3c-0.5-0.4-1-0.8-1.5-1.2c0,0-0.1,0-0.1,0c0.5,0.3,1,0.7,1.6,1L521.1,405.3z"/>
	<path d="M521.1,405.2c0.2,0,0.3,0,0.5,0c-0.1-0.1-0.1-0.1-0.2-0.2C521.3,405.1,521.2,405.2,521.1,405.2
		C521.1,405.3,521.1,405.2,521.1,405.2z"/>
	<path d="M33.4,429.4c-0.1,0.1-0.2,0.1-0.3,0.2C33.3,429.5,33.4,429.5,33.4,429.4C33.5,429.5,33.4,429.4,33.4,429.4z"/>
	<path d="M178.3,191.7l-0.3,0c0,0,0.2,0,0.2,0C178.3,191.7,178.3,191.7,178.3,191.7z"/>
	<path d="M384,197.7l0.2-0.2C384.2,197.5,384.1,197.6,384,197.7C384.1,197.6,384,197.7,384,197.7z"/>
	<polygon points="199.2,202 199,202 199.1,202.1 	"/>
	<path d="M199.1,202.1c0.2,0.3,0.5,0.7,0.7,1l0.1-0.1C199.7,202.7,199.4,202.3,199.1,202.1C199.2,202,199.1,202.1,199.1,202.1z"/>
	<path d="M199.8,203.1c0.4,0.3,0.7,0.6,1.1,0.9c0,0,0.1-0.1,0.1-0.1C200.6,203.6,200.3,203.3,199.8,203.1
		C199.9,203,199.8,203.1,199.8,203.1z"/>
	<path d="M554.1,256.2c0.1,0,0.2,0,0.3,0C554.2,256.2,554.2,256.2,554.1,256.2C554.1,256.2,554.1,256.2,554.1,256.2z"/>
	<path d="M39.9,419.8l-0.1-0.1C39.8,419.6,40,419.8,39.9,419.8C40,419.8,39.9,419.8,39.9,419.8z"/>
	<path d="M577.2,497l0.2-0.1c0,0-0.1,0.1-0.1,0.1C577.3,497,577.2,497,577.2,497z"/>
	<path d="M536.8,435.8c0.2,0.4,0.5,0.8,0.7,1.2c0,0,0.1-0.1,0.1-0.1C537.4,436.5,537.1,436.1,536.8,435.8
		C536.9,435.8,536.8,435.8,536.8,435.8z"/>
	<path d="M544.9,413c0.1,0,0.2,0.1,0.3,0.1C545.1,413.1,545.1,413,544.9,413C545,413,544.9,413,544.9,413z"/>
	<path d="M551.5,436.7c0,0.1,0.1,0.1,0.1,0.2C551.5,436.8,551.5,436.7,551.5,436.7C551.4,436.6,551.5,436.7,551.5,436.7z"/>
	<path d="M581.9,554.9l-0.1-0.2C581.8,554.7,582,554.8,581.9,554.9C582,554.8,581.9,554.9,581.9,554.9z"/>
	<path d="M519.7,437.5c0.1,0,0.2,0,0.3,0c-0.1,0-0.1,0-0.2,0C519.8,437.6,519.7,437.5,519.7,437.5z"/>
	<path d="M529.9,451l-0.2,0.1C529.7,451.1,529.8,450.9,529.9,451C529.8,450.9,529.9,451,529.9,451z"/>
	<path d="M540,466.8c0.1,0,0.2,0.1,0.3,0.1c-0.1,0-0.1,0-0.2,0C540.2,466.8,540,466.8,540,466.8z"/>
	<path d="M552.4,284.9l0.1-0.3C552.5,284.6,552.5,284.8,552.4,284.9C552.5,284.8,552.4,284.9,552.4,284.9z"/>
	<path d="M99.6,511.3c4-6.7,8.6-12.7,13.6-15.1C109.7,500.2,104.6,505.7,99.6,511.3z"/>
	<polygon points="99.6,494.7 99.7,494.5 99.5,494.7 	"/>
	<path d="M99.5,494.7C99.5,494.7,99.6,494.7,99.5,494.7C99.6,494.7,99.5,494.7,99.5,494.7z"/>
	<path d="M443.9,589.5l0.3,0.1C444.2,589.5,443.9,589.4,443.9,589.5C443.8,589.4,443.9,589.5,443.9,589.5z"/>
	<path d="M216.8,314c0.1,0,0.2-0.1,0.3-0.1C217,313.9,217,313.9,216.8,314C216.9,314,216.8,314,216.8,314z"/>
	<path d="M346.4,331.8L346.4,331.8L346.4,331.8z"/>
	<path d="M515.9,498.4C515.9,498.4,515.8,498.5,515.9,498.4C515.8,498.5,515.9,498.4,515.9,498.4z"/>
	<path d="M346.5,331.8c0.3-0.3,0.7-0.7,1-1c0,0-0.1-0.1-0.1-0.1C347,331.1,346.7,331.4,346.5,331.8
		C346.4,331.8,346.5,331.8,346.5,331.8z"/>
	<path d="M103.3,516.4C103.3,516.4,103.3,516.3,103.3,516.4C103.3,516.3,103.3,516.4,103.3,516.4z"/>
	<path d="M245.7,317.7L245.7,317.7L245.7,317.7z"/>
	<path d="M245.8,317.7c0,0-0.1,0.1-0.1,0C245.7,317.7,245.8,317.7,245.8,317.7z"/>
	<path d="M242.4,305C242.4,305,242.5,304.9,242.4,305C242.5,304.9,242.4,305,242.4,305z"/>
	<path d="M241.4,304c0.3,0.3,0.7,0.7,1,1c0,0,0.1-0.1,0.1-0.1C242.2,304.6,241.8,304.2,241.4,304C241.5,303.9,241.4,304,241.4,304z"
		/>
	<path d="M250.1,299.3l0.2,0C250.4,299.3,250.2,299.3,250.1,299.3C250.2,299.4,250.1,299.3,250.1,299.3z"/>
	<path d="M250.7,290.3L250.7,290.3L250.7,290.3z"/>
	<path d="M302.1,416.9l-0.2,0C301.9,416.9,302.1,416.9,302.1,416.9C302.1,416.9,302.1,416.9,302.1,416.9z"/>
	<path d="M511.6,478.3C511.6,478.3,511.7,478.2,511.6,478.3C511.7,478.2,511.6,478.3,511.6,478.3z"/>
	<path d="M250.8,290.2c-0.3-0.3-0.6-0.5-0.9-0.8l-0.1,0.1C250.1,289.8,250.4,290,250.8,290.2C250.7,290.3,250.8,290.2,250.8,290.2z"
		/>
	<path d="M258.4,279.6l0.2,0C258.6,279.6,258.5,279.5,258.4,279.6C258.4,279.5,258.4,279.6,258.4,279.6z"/>
	<path d="M274.2,278C274.2,278,274.2,277.9,274.2,278C274.2,278,274.2,278,274.2,278z"/>
	<path d="M208.1,643.1l0.1,0.2C208.2,643.3,208,643.1,208.1,643.1C208,643.1,208.1,643.1,208.1,643.1z"/>
	<path d="M324.9,617.7C324.9,617.7,324.8,617.7,324.9,617.7C324.9,617.6,324.9,617.7,324.9,617.7z"/>
	<path d="M319.6,624.6c0.3,0,0.6,0,0.9,0c-0.3,0.6-0.6,1.2-0.9,1.7C319.6,625.7,319.6,625.1,319.6,624.6z"/>
	<path d="M453.1,629.6l-0.1-0.3C452.9,629.4,453,629.7,453.1,629.6C453,629.7,453.1,629.6,453.1,629.6z"/>
	<path d="M341.4,642l0.1-0.3C341.5,641.7,341.4,642,341.4,642C341.4,642.1,341.4,642,341.4,642z"/>
	<path d="M524.3,263.5c0.2,0,0.5,0.1,0.7,0.1c-0.2-0.1-0.4-0.1-0.6-0.2C524.4,263.4,524.3,263.5,524.3,263.5z"/>
	<path d="M482.1,227.6c-0.5-0.3-1-0.6-1.5-0.9c0,0-0.1,0.1-0.1,0.1c0.5,0.3,1,0.5,1.5,0.8L482.1,227.6z"/>
	<path d="M482,227.6l0.3,0c0,0-0.1,0-0.1,0C482.1,227.6,482,227.6,482,227.6z"/>
	<path d="M527.1,262.5c0.3,0,0.6,0,1,0C527.7,262.5,527.4,262.5,527.1,262.5z"/>
	<path d="M523,263.1C523,263.1,523.1,263.2,523,263.1C523.1,263.2,523,263.1,523,263.1z"/>
	<path d="M515.8,293.3C515.8,293.3,515.7,293.4,515.8,293.3C515.7,293.4,515.8,293.3,515.8,293.3z"/>
	<path d="M393.5,222.4l0.1,0.2C393.6,222.6,393.4,222.4,393.5,222.4C393.4,222.4,393.5,222.4,393.5,222.4z"/>
	<path d="M343,386.4c6-4.6,10.8-4.6,15.5-0.6c4.9,4.1,6.3,10.9,3.6,16.5c-2.6,5.3-7.4,7.6-13.1,6.4c-5-1-8.6-5-8.6-9.8
		c3.1-1.1,7.3-1,7.7-5.6C348.5,389.9,346.8,387.6,343,386.4z"/>
	<path d="M200,399.2c4.4,1.7,7.9,0.9,9.6-3.4c1.6-3.9-1.3-6.2-4-8.4c4.2-2.3,10.4-1.1,13.6,2.4c4.3,4.8,4.9,11.8,1.3,16.8
		c-3.3,4.7-9,6.3-14.4,4C201.6,408.8,199.1,404.5,200,399.2z"/>
</g>
</svg>
