<svg id="a4d09c77-d035-4f49-8a79-f072c66e5b5d" data-name="Layer 1" xmlns="http://www.w3.org/2000/svg" viewBox="0 0 595.276 841.89" style="fill: #215342;" height="350" width="450" transform="translate(-95, -52)"><path d="M539.44,556.3l31.8,3.929.163,1.775c-1.7.571-3.376,1.493-5.118,1.656-8.725.812-17.476,1.342-26.2,2.131-8.839.8-17.663,1.761-26.489,2.692-9.621,1.014-19.245,2.007-28.846,3.184a7.227,7.227,0,0,0-4.156,2.04c-5.158,5.654-10.117,11.49-15.163,17.284l8.475.84.125,1.031c-1.483.27-2.992.869-4.445.754-6.5-.512-12.624,1.061-18.907,2.427-7.372,1.6-15.014,1.948-22.518,2.989a13.575,13.575,0,0,0-5.806,1.755,49.736,49.736,0,0,1-24.332,9.231c-14.733,1.3-29.524,2.225-44.149-1.331a46.113,46.113,0,0,1-18.974-9.013,6.46,6.46,0,0,0-3.839-1.215q-31.024-.09-62.048.02a3.854,3.854,0,0,0-2.457.749c-7.805,7.451-17.694,10.37-27.866,11.368-14.467,1.42-29.131,1.457-43.3-2.336-5.907-1.582-11.214-5.365-16.838-8.054a20.011,20.011,0,0,0-5.347-1.916q-13.724-2.163-27.5-4c-3.8-.506-7.659-.62-11.671-1.821l4.922-1.665a57.821,57.821,0,0,1-19.414-18.279c-.412-.619-1.793-.721-2.751-.829-14.15-1.6-28.291-3.308-42.464-4.671-8.845-.851-17.747-1.093-26.614-1.746-5.867-.432-11.725-1.035-17.567-1.725a24.032,24.032,0,0,1-4.579-1.484l.03-1.554,29.619-3.955c-2.132-1.687-4.367-3.295-6.423-5.107-10.767-9.493-17.8-20.794-17.249-35.778.536-14.486,9.887-27.613,23.121-31.311,4.552-1.272,9.536-1,14.124-1.411-.669-4.982-1.689-10.109-1.991-15.277-1.1-18.789,6.837-33.708,20.533-45.872,3.59-3.188,7.813-5.656,11.7-8.522,3.925-2.9,6.252-6.892,7.887-11.431,5.095-14.145,7.012-28.882,8.9-43.7,1.12-8.808-1.1-15.777-5.816-23.294-9.409-14.991-14.229-31.94-16.893-49.418-5.037-33.039-.591-64.883,12.441-95.567a66.551,66.551,0,0,1,5.6-10.321c6.137-9.379,13.068-11.03,23.394-7.268,12.736,4.641,24.25,11.692,34.934,19.982,12.88,9.992,24.411,21.346,33.805,35.457,3.658-1.986,7.329-3.852,10.877-5.929,11.22-6.567,21.508-14.3,30.178-24.091,5.511-6.225,10.589-5.447,14.207,2.093,1.18,2.46,2.017,5.084,3.166,8.032,7.163-3.662,13.011-8.591,16.561-15.891,1.482-3.046,2.6-6.276,3.792-9.456,1.889-5.03,4.911-6.721,10.016-5.578,7.556,1.693,13.009,6.315,17.452,12.4,6.368-1.931,13.524.951,18.115,13.8a30.25,30.25,0,0,0,8.932-11.275c3.826-8.156,9.027-9.621,15.46-3.243,3.769,3.736,6.347,8.807,8.89,13.582,1.089,2.045,1.929,3.571,4.152,4.629,4.908,2.335,9.6,5.12,14.147,7.593,1.692-1.053,3.749-3.294,5.934-3.427,2.27-.137,4.879,1.448,6.947,2.856a82.5,82.5,0,0,1,7.5,6.46c4.307-4.643,8.55-9.562,13.154-14.115,14.525-14.364,30.544-26.679,49.849-33.964,11.377-4.294,18.774-1.721,24.915,8.037,7.479,11.882,11.737,25.042,15.014,38.573,8.494,35.075,7.012,69.55-6.682,103.137-2.7,6.618-6.649,12.723-9.959,19.1-.636,1.224-1.5,2.653-1.374,3.9,1.61,16.289,3.59,32.592,9.713,47.878,2.423,6.048,6.709,11.4,10.447,16.855,2.558,3.735,5.628,7.037,2.508,11.988-.348.552.912,2.5,1.823,3.4a60.033,60.033,0,0,1,14.609,22.067,55.017,55.017,0,0,1,1.658,32.414c-.24,1.007-.446,2.021-.649,3.036-.022.11.081.244.166.479,4.228.247,8.634-.08,12.755.854,13.339,3.022,22.913,14.487,24.457,28.831,1.905,17.694-6.295,30.692-19.494,41.29C541.715,554.679,540.861,555.259,539.44,556.3ZM365.128,543.6c-.118.028-.24.047-.354.086a1.677,1.677,0,0,0-.248.13l.687-.253c-3.459,2.4-6.888,4.843-10.393,7.174-1.4.931-3.088,1.445-4.434,2.436-7.118,5.237-11.57,12.385-14.158,20.7a21.737,21.737,0,0,0,1.135,16.455c1.227,2.479,3.427,4.475,5.186,6.69,1.308-17.845,5.41-28.91,11.827-30.49,0,.125.044.275-.007.378-.405.815-.817,1.628-1.248,2.43-4.466,8.31-5.314,17.2-3.715,26.3.353,2.01,1.958,4.836,3.613,5.379,4.375,1.434,9.093,1.822,13.987,2.682-.053-9.427-.443-18.421,6.607-25.317a2.309,2.309,0,0,1,.085,1.878c-2.6,6.9-2.163,13.886-.415,20.845.291,1.16,1.47,2.912,2.338,2.973,4.362.305,8.758.14,13.16.14-.779-13.727,1.765-22.462,6.625-23.095a11.908,11.908,0,0,0-.692,2.626c-.135,5.553-.263,11.108-.223,16.662.016,2.16,1.431,2.877,3.5,2.4,3.815-.888,7.63-1.782,11.457-2.616,3.482-.76,5.04-2.7,4.83-6.414-.092-1.62.434-3.968,1.564-4.846,5.353-4.162,12.149-6.5,15.781-14.106.569,2.77.868,4.227,1.142,5.563a4.539,4.539,0,0,0,1.046.243,7.934,7.934,0,0,0,1.542-.24c12.816-3.59,23.829-10.186,34.087-18.708,9.348-7.765,11.625-17.089,9.633-28.29-.229-1.288-.348-2.6-.62-3.875-1.707-8.044-3.451-16.079-8.5-23.122-8.494,16.335-21.485,24.177-39.794,23.463a200.253,200.253,0,0,0-28.232.587C388.72,531.8,375.986,535.2,365.128,543.6ZM125.517,433.831q.481.31.964.62a8.356,8.356,0,0,1-.511,2.522,11.922,11.922,0,0,0-.6,10.979c3.736,8.762,6.956,17.858,11.708,26.051,11.758,20.267,29.394,34.514,49.7,45.634a14.317,14.317,0,0,0,6.384,1.422c22.948.46,43.51,7.194,60.754,22.791,8.908,8.057,16.336,17.259,18.471,29.367,1.015,5.76.174,11.846.174,18.037h56.939c-.442-3.96-1.136-7.329-1.139-10.7-.011-13.415,6.751-23.75,15.966-32.554a90.781,90.781,0,0,1,56.924-25.532c9.2-.709,16.435-4.419,23.711-9.062q1.653-1.055,3.272-2.164c24.585-16.766,42.054-38.715,49.161-68.059.7-2.888.165-6.115-.046-9.167a45.037,45.037,0,0,0-1.122-5.755l.859-.379,10.828,10.465c-.919-10.454-6.741-18.425-11.851-27.884,7.351,4.148,14.139,5.234,21.483,5.191-.242-.823-.236-1.273-.459-1.5-8.371-8.413-12.09-19.436-15.033-30.273-3.55-13.069-5.124-26.688-7.237-40.118-.3-1.893.768-4.363,1.935-6.062a109.258,109.258,0,0,0,15.187-31.735c8.8-30.516,8-61.032-.216-91.509-2.941-10.909-6.948-21.388-13.04-30.987-1.982-3.124-4.658-4.654-8.3-3.5a81.409,81.409,0,0,0-11.395,4.142,152.132,152.132,0,0,0-48.592,37.257c-4.834,5.587-10.471,10.783-10.721,19.033a5.658,5.658,0,0,1-1.425,3.181,45.284,45.284,0,0,1-4.046,3.773c4.937-18.282.462-19.711-7.034-27.543-1.693,16.209-3.52,20.771-10.1,23.014,1.64-6.3,5.722-12.271.332-18.132-4.485-4.877-9.926-7.848-16.452-9.96-.936,7.714-2.913,14.515-10.491,18.024A27.629,27.629,0,0,0,355.668,212a31.238,31.238,0,0,0-10.355-19.729c-2.453,9.725-8.923,15.9-16.718,21.121-2.306,1.543-4.087,3.873-6.1,5.849q-3.072,3.012-6.129,6.036l-.727-.737c6.22-13.006,5.961-22.308-.734-27.3-3.528,4.608-6.591,9.649-12.064,12.8,2.626-5.513,2.876-10.845-.2-15.922-2.941-4.856-6.814-8.775-12.263-10.584-1.252,4.176-2.042,8.171-3.624,11.823-4.064,9.389-11.16,16.169-20.138,20.711a35.457,35.457,0,0,0-12.48,10.2,18.269,18.269,0,0,1-12.49,6.9c9.276-8.378,16.073-17.328,9.92-30.706-2.257,2.579-4.027,4.851-6.048,6.872a125.1,125.1,0,0,1-34.312,23.914c-3.243,1.571-4.846,3.064-4.25,6.96.408,2.67.62,6.029-3.157,7.659-.4-.759-.666-1.32-.971-1.861-3.7-6.579-6.755-13.65-11.25-19.635-11.053-14.715-25.1-26.309-40.982-35.493-6.859-3.966-14.318-6.924-21.608-10.1-4.1-1.787-7.434-.3-9.634,3.514a81.3,81.3,0,0,0-5,9.33c-12.18,29.458-16.378,59.993-11.489,91.556,3.143,20.292,9.7,39.328,22.312,55.941a12.206,12.206,0,0,1,2.055,6.526c.517,11.63.736,23.274,1.1,34.911.194,6.207.255,6.386-5.851,7.165-2.807.358-3.491,1.948-4.344,4.189-2.828,7.435-5.869,14.791-8.953,22.126a49.224,49.224,0,0,1-3.381,5.609c8.358-1.2,15.008-4.414,22.133-8.654-4.932,10.093-11.2,18.652-12.19,29.815ZM166.724,568.48c4.192,3.721,8,7.6,12.324,10.781,3.476,2.553,4.122,4.983,2.535,8.925-1.78,4.42-1.029,6.813,3.292,8.678a137.638,137.638,0,0,0,17.786,5.761c.71.2,2.792-1.564,2.853-2.507.333-5.169.275-10.366.254-15.553a20.153,20.153,0,0,0-.618-3.488,3.709,3.709,0,0,1,2.815,1.735c3.484,6.574,3.809,13.689,3.073,21.649,4.638,0,8.942.185,13.209-.127a4.465,4.465,0,0,0,3-2.693,33.808,33.808,0,0,0,.336-19.722c-.3-1.03-.507-2.085-.757-3.128l1.738-1.386a16.958,16.958,0,0,0,1.108,2.948c4.318,7.187,4.232,15.161,3.9,23.1,13.432,1.205,17.742-2.413,18.452-15.25a17.524,17.524,0,0,0-.164-4.695c-1.338-6.033-2.841-12.03-4.316-18.18,4.908,3.534,7.175,8.969,8.443,14.585,1.261,5.59,1.408,11.431,2.028,17.021,7.076-3.86,10.273-13.14,7.8-22.667-3.374-12.979-12.266-21.647-22.632-29.077A46.6,46.6,0,0,0,231.9,539.1c-9.674-3.45-19.759-3.258-29.887-2.539-14.869,1.054-29.8,2.732-44.6-.445-14.181-3.045-25.125-10.182-29.339-25.057-.118-.416-.527-.75-1.024-1.427-.646,1.248-1.19,2.121-1.571,3.061a73.675,73.675,0,0,0-5.466,29.122,14.237,14.237,0,0,0,4.045,9.8c11.183,12.441,25.47,19.855,40.823,25.6a7.211,7.211,0,0,0,1.839.168Zm-73.66-103.5.55-1.428c9.354-1.938,18.292,3.176,28.165,2.805-1.364-4.308-2.561-8.091-3.791-11.973-5.765,3.352-9.087,2.326-9.835-3.841-.693-5.708.263-11.625.607-17.443a24.25,24.25,0,0,1,1.028-4.176c-10.314,2.637-10.7,2.532-13.992-4.157-4.1,4.591-8.46,8.619-11.788,13.367-7.535,10.75-10.585,22.639-7.3,35.734.766,3.056,2.254,5.246,5.519,5.852,6.409,1.191,12.789,2.585,19.24,3.476,2.96.409,6.775,1.006,8.055-2.923,1.316-4.04-2.378-5.216-4.9-6.978C100.732,470.575,96.913,467.756,93.064,464.979Zm392.4-17.577c-1.48,4.775-3.294,10.625-5.38,17.357,2.9-.87,4.715-1.521,6.583-1.953,4.188-.968,8.379-1.969,12.616-2.664,1.9-.311,3.284-.069,2.889,3.008-.456,3.555-2.25,5.368-5.033,6.764-4.089,2.052-8.385,3.756-12.241,6.17-1.551.971-3.105,3.538-2.919,5.181.152,1.337,2.792,2.586,4.533,3.472a6.044,6.044,0,0,0,3.479.1c6.432-1.111,12.838-2.371,19.271-3.474,4.807-.823,7.07-3.823,8.039-8.388,3.671-17.286-5.142-36.324-20.417-46.926a4.9,4.9,0,0,0-1.864-.521c.739,5.714,1.877,11.214,1.959,16.73.034,2.285-1.662,5.616-3.55,6.607C491.728,449.758,488.69,448.1,485.464,447.4ZM81.823,511.789c-.931-11.991-10.39-21.16-21.583-20.041-16.954,1.695-23.451,24.864-16.195,37.913,3.585-5.478,8.206-1.955,11.885-1.414-.4-3.942-1.733-8.043-.957-11.7,1.117-5.255,5.852-4.33,10.164-2.9-.62-2.921-1.381-5.061-1.459-7.225-.109-3.023-1.156-7.339,2.386-8.257,2.282-.592,5.963,1.489,8.027,3.427C77.065,504.391,79.14,508.141,81.823,511.789Zm468.815,16.724c4.38-7.079,2.968-21.048-3.449-29.154a19.4,19.4,0,0,0-21.795-6.608c-7.085,2.417-13.206,11.293-13.207,19.171,2.711-3.6,5.183-7.429,8.211-10.743,2.421-2.648,5.759-4.725,9.454-2.665,3.742,2.087,2.48,5.954,2.118,9.241a61.268,61.268,0,0,1-1.529,6.817c10.594-1.879,11.964.736,8.287,13.941Z"/><path d="M213.346,443.657c-.812,1.126-4.325,3.362-5.716,3.973-.066-1.777,5.063-8.69,7.92-9.28,3.507-.725,4.219.795,3.02,4.178a3.745,3.745,0,0,0,.871,3c12.885,14.94,29.025,23.7,48.809,25.4,7.918.679,15.686.166,23.1-3.077,7.854-3.437,9.8-7.043,8.116-15.606-11.589-1.633-19.933-8.318-26.215-17.914a28.566,28.566,0,0,1-2.778-5.611c-2.37-6.329-1.22-11.165,3.973-15.507,8.713-7.285,19.182-8.594,29.972-7.915,7.924.5,15.478,2.467,21.7,7.955,5.5,4.859,6.885,9.817,3.689,16.471-5.225,10.877-13.3,18.609-25.265,21.836a4.124,4.124,0,0,0-2.352,2.784c-.927,5.473,1.6,9.312,6.31,11.874,9.3,5.063,19.314,5.447,29.432,3.924A70.884,70.884,0,0,0,381.8,446.267c1.341-1.523,3.58-3.114,1.079-5.615-.241-.242.424-1.968,1.075-2.424,3.139-2.195,10.869,1.158,11.537,5.018.173,1-.468,2.14-.735,3.215a10.012,10.012,0,0,1-3.125-.874,8.921,8.921,0,0,1-1.807-2.528l-1.213.328c-.572,1.879-1.2,3.744-1.709,5.641-5.429,20.223-14.488,38.38-30,52.879a78.76,78.76,0,0,1-25.415,16c-2.192.853-3.046,2.062-3.908,4.233-1.86,4.684-3.773,9.638-6.9,13.475-11.814,14.5-31.248,13.3-41.463-2.392-2.388-3.67-3.617-8.078-5.6-12.036-.68-1.36-1.805-3-3.105-3.471-20.686-7.516-35.3-21.754-44.64-41.269-4.55-9.5-7.613-19.715-11.348-29.607C214.209,446.007,213.905,445.168,213.346,443.657Zm69.319,84.264.027.036a9.381,9.381,0,0,0,5.413,3.6,20.967,20.967,0,0,1,3.344,1.016c12.028,5.058,33.755-2.737,33.926-20.435.083-8.52.845-17.034,1.276-25.118-2.28-.217-3.634.049-4.453-.493-3.718-2.463-6.982-.633-10.391.681-2.951,1.137-5.974,2.084-9.959,3.457.784,5.542,1.723,12.188,2.663,18.835a10.874,10.874,0,0,1-3.517-5.2c-1.08-4.278-1.66-8.681-2.636-12.989-.308-1.36-.892-3.23-1.921-3.761-7-3.614-13.687-2.853-19.5,2.549-1.253,1.163-2.455,3.279-2.342,4.86.531,7.423,1.039,14.914,2.561,22.17.806,3.844,3.662,7.258,5.62,10.888-.064.205-.138.408-.183.618,0,.027.137.085.211.129Zm35.526-110.673.228,1.318,2.658-1.825c-.867-1-1.537-2.483-2.63-2.929-13.257-5.415-26.248-5.065-38.741,2.333a9.29,9.29,0,0,0-3.336,3.212c-.5.889.014,2.341.074,3.541,1.03-.151,2.261.01,3.059-.5a33.954,33.954,0,0,1,17.691-5.746C304.185,416.492,311.191,417.019,318.191,417.248Zm-13.047,58.035-.45.231c.094.038.215.129.273.1C305.042,475.575,305.067,475.439,305.144,475.283Zm4.143-1.757.053.221.221-.131Zm-2.55-.336-.515-.144.114.32Zm-13.174.553.26-.069-.192-.124ZM287.691,535.2l.308.047-.129-.277Zm11.252-62.009.119.23.12-.231Z"/><path d="M140.532,209.531c3.536,4.091,7.351,7.976,10.555,12.312,9.444,12.78,15.086,27.465,20.543,42.216.635,1.716,1.307,3.427,2.094,5.077,2.7,5.659,5.724,6.584,11.3,3.515,1.217-.67,2.41-1.385,4.33-2.492-.642,4.34-3.152,6.358-5.76,8.125-4.976,3.371-10.1,6.531-15.139,9.8A112.8,112.8,0,0,0,138,317.179c-1.286,1.79-2.629,3.54-4.405,5.926a246.17,246.17,0,0,1-15.12-86.794c.641,4.221,1.243,8.448,1.935,12.66.721,4.391,1.3,8.824,2.357,13.137,1.4,5.706,3.036,11.372,4.938,16.928.652,1.9,2.414,3.424,3.668,5.119l1.185-.346c.28-1.435.912-2.9.777-4.3-.477-4.937-.576-4.927,3.3-7.843-.919-3.568-2.107-7.164-2.74-10.855-1.169-6.822.066-8.486,6.457-9.641-.812-3.538-2.029-7.046-2.279-10.621-.144-2.055.712-5.227,2.16-6.039,1.326-.743,4.171.769,6.12,1.74,1.429.712,2.491,2.158,4.219,3-3.139-9.879-4.26-20.427-11.881-28.541Z"/><path d="M461.736,209.79c-8.28,8.321-9.375,19.521-12.04,30.329,1.855-1.626,3.537-3.545,5.624-4.78,1.5-.888,4.026-1.7,5.2-1.017,1.243.722,2.129,3.346,1.936,4.994a112.319,112.319,0,0,1-2.575,11.809c7.613-.872,10.09,1.978,8.344,9.453-.768,3.288-1.948,6.48-3.027,10,3.815,1.522,5.1,4.17,2.976,7.924.277.216.472.491.628.471,2.288-.293,5.453.163,6.626-1.151,1.411-1.579,1.11-4.676,1.584-7.11a2.8,2.8,0,0,1,1.566-2.1,28.324,28.324,0,0,1-.048,5.475c-2.958,14.719-6.067,29.409-9.048,44.124-.479,2.363-.55,4.809-.923,8.274-1.451-2.47-2.623-4.194-3.526-6.048a96.558,96.558,0,0,0-31.9-36.961c-4.681-3.3-9.655-6.194-14.562-9.161-6.916-4.182-10.586-10.626-12.881-18.071a1.269,1.269,0,0,1,.047-.767c.081-.215.3-.378.842-1.017a45.684,45.684,0,0,0,2.424,3.918,65.335,65.335,0,0,0,6.371,7.847c5.149,4.911,9.655,3.98,12.619-2.487,3.866-8.433,6.981-17.264,11.462-25.346,4.975-8.974,11.04-17.354,16.836-25.852,1.067-1.565,3.108-2.464,4.7-3.67Z"/><path d="M404.286,403.662l7.127,10.214-.985,1.455c-15.119-14.8-32.792-17.69-51.608-11.763-.238-5.825-.683-11.19-.634-16.55.181-20.024,20.075-33.991,38.781-26.957,11.608,4.364,18.228,13.165,19.9,25.545.24,1.789.426,3.586.689,5.818h9.042l.225.841Zm.192-24.722c-1.04-2.492-1.629-4.806-2.874-6.686a6.307,6.307,0,0,0-8.9-1.958c-3.657,2.436-4.464,9.778-1.569,14.276,1.95,3.029,5.583,4.127,8.44,2.488a4.467,4.467,0,0,0,1.756-1.509C402.457,383.428,403.412,381.215,404.478,378.94Z"/><path d="M245.738,401.876c-.618,0-1.925.008-3.231,0-6.256-.044-12.539-.481-18.762-.048-9.269.646-17.324,4.651-24.587,10.335-1.131.884-2.411,1.578-3.621,2.36l-.966-.892,5.364-8.153-20.9-10.306.106-.737h9.542c-.212-8.586,2.025-16.133,7.417-22.707,8.02-9.777,22.582-13.2,33.8-7.749,11.771,5.721,18.437,19.711,15.5,32.19C245.038,397.707,245.568,399.457,245.738,401.876Zm-8.46-19.217a37.433,37.433,0,0,0-.8-4.735c-1.1-3.4-3.269-5.856-7.061-5.688-3.68.164-5.777,2.886-6.068,6.156a18.624,18.624,0,0,0,1.257,9.046,5.966,5.966,0,0,0,10.338.923C236.215,386.513,236.7,384.128,237.278,382.659Z"/><path d="M412.127,340.577a10.829,10.829,0,0,1-2.66-.029c-12.2-3.195-24.131-1.677-35.977,1.9-5.538,1.675-8.677.712-10.5-2.981-1.875-3.787-.34-8.013,4.041-11.12,8.83-6.264,23.912-5.842,34.523,1.355,4.1,2.781,7.675,6.334,11.489,9.535Z"/><path d="M188.062,340.116c1.8-1.729,3.485-3.6,5.417-5.165,10.733-8.712,22.864-11.1,36.039-7.192a22.452,22.452,0,0,1,8.209,5.034c2.678,2.426,2.992,5.807.863,8.917-2.094,3.057-4.951,3.346-8.3,1.926a58.628,58.628,0,0,0-36.475-3.149c-1.686.374-3.435.467-5.155.69Z"/><path d="M267.953,391.023c20.417-5.779,40.9-5.635,61.426-1.163l.015,1.163Z"/><path d="M177.23,389.637l.041-.019Z"/><path d="M177.271,389.618c.2.039.4.078.605.115-.21-.034-.421-.065-.639-.1C177.23,389.637,177.271,389.618,177.271,389.618Z"/><polygon points="49.657 506.834 49.437 507.063 49.361 506.785 49.657 506.834"/></svg>