<svg id="f72dfbfb-6934-4967-8792-52a85484c443" data-name="Layer 1" xmlns="http://www.w3.org/2000/svg" viewBox="0 0 595.276 841.89" style="fill: #215342;" height="350" width="450" transform="translate(-50, -15)"><path d="M286.1,432.271c.827-.645.91-1.942,2.222-2.469a16.287,16.287,0,0,0,7.249-5.686,20.418,20.418,0,0,1,7.739-6.3c1.359-.664,2.771-1.228,4.186-1.769,2.059-.788,3.341-2.136,3.411-4.43.059-1.92.674-3.434,2.735-3.993.4-.108.72-.463.476-.907-.158-.288-.531-.222-.859-.147-2.659.6-2.674.608-4.209-1.677a28.435,28.435,0,0,0-3.258-4.137c-2.723-2.774-5.955-4.8-9.882-4.806-7.5-.016-14.982-.719-22.481-.5-8.35.249-15.623,7.5-15.846,15.7-.1,3.513.9,5.018,4.251,6.326a14.228,14.228,0,0,1,5.422,3.848c1.444,1.6,2.822,3.263,4.229,4.9a9.4,9.4,0,0,0,4.9,3.26,7.933,7.933,0,0,1,3.154,1.667c2.557,2.119,4.776,4.491,5.712,7.8.141.5.14,1.3.947,1.021.751-.257.316-.951.22-1.454-.195-1.019-.442-2.028-.664-3.041C285.515,434.386,284.71,433.355,286.1,432.271Zm-4.147-27.309a7.212,7.212,0,0,1-2.8-.525c-1.9-.767-3.755-1.652-5.627-2.489l.126-.658c1.64-.122,3.278-.326,4.92-.348,3.826-.053,7.653-.024,11.48-.013a7.705,7.705,0,0,1,1.663.148c1.087.245,1.3.89.546,1.651a6.467,6.467,0,0,1-5.289,2.285C285.3,404.887,283.623,404.939,281.951,404.962Z"/><path d="M271.3,288.536c2.477,8.092,4.9,16.2,7.317,24.311.639,2.142,1.187,4.31,1.778,6.466.149.545.284,1.154.981,1.188.777.038.794-.642.926-1.168a16.318,16.318,0,0,1,1.987-5.308,3.611,3.611,0,0,1-.094,2.927,41.619,41.619,0,0,0-1.325,5.338c-.051.451-.106,1.042.56,1.112.491.052.622-.432.741-.794.85-2.577,1.845-5.12,2.488-7.749a65,65,0,0,1,12.653-25.048c9.666-12.19,21.653-20.709,37.5-22.807.436-.058.924-.3,1.215.3-.362.9-1.265.872-1.962,1.16a62.631,62.631,0,0,0-16.747,9.658c-.535.451-1.394.765-1.335,1.769a2.422,2.422,0,0,0,.586-.076c.434-.2.862-.418,1.283-.646A121.471,121.471,0,0,1,351.2,267.544c2.729-.612,5.478-1.107,8.253-1.46.514-.066,1.254,0,1.236-.778-.014-.648-.68-.5-1.113-.59a84.289,84.289,0,0,0-13.3-1.665,60.263,60.263,0,0,0-29.258,6.05c-.586.288-1.165.921-2.148.275l4.71-3.769a2.944,2.944,0,0,0-2.579.5,118.668,118.668,0,0,1-12.2,4.951,39.529,39.529,0,0,0-10.961,5.771c-2.626,1.9-4.72,4.069-5,7.5-.031.382-.05.787-.478,1.022-1,.549-4.312.1-5.2-.726-.311-.29-.4-.949-1.133-.608-.34,3.538.832,7.078.2,11.185-.312-1.229-.545-1.969-.685-2.727-.636-3.455-1.246-6.915-1.868-10.373-.095-.528-.04-1.366-.739-1.284-.883.1-.581.954-.526,1.566.014.158.058.314.075.473q.408,3.933.811,7.867c.053.53.3,1.124-.361,1.47a.987.987,0,0,1-.732-.548c-.267-.438-.3-1.25-1.062-1.026-.721.212-.394.922-.411,1.449-.031.947.569,1.923,0,3.083a4.307,4.307,0,0,1-.87-2.153,32.752,32.752,0,0,0-7.282-13.866c-.368-.443-.691-1.05-1.427-.854a1.815,1.815,0,0,0,.421,1.445A46.257,46.257,0,0,1,271.3,288.536Z"/><path d="M353.753,287.385c.107.472.568.472.947.585,3.31.984,6.66.666,9.988.22a51.867,51.867,0,0,1,8.852-.265c.622.024,1.308-.034,1.73.7-1.523,1.148-3.669.17-5.171,1.418.5.878,1.311.611,1.971.632a55.9,55.9,0,0,1,29.808,9.252c.433.289.874.779,1.48.3.148-.694-.4-1-.768-1.384-11.367-11.9-25.217-15.956-41.267-13.043-.393.072-.782.166-1.178.218-.307.041-.675.086-.835-.251-.224-.472.14-.744.474-.953,1.015-.635,2.064-1.218,3.064-1.876.341-.224.99-.254.84-.942-.149-.055-.326-.191-.428-.148-3.1,1.287-5.979,3.019-8.933,4.6C353.97,286.638,353.649,286.931,353.753,287.385Z"/><path d="M153.329,331.91c.59.086.8-.41.9-.893a5.688,5.688,0,0,0,.06-.953,25.138,25.138,0,0,1,7.57-17.089,41.9,41.9,0,0,1,19.217-11.168,5.718,5.718,0,0,0,2.595-1.016,4.019,4.019,0,0,0-3.4-.76,28.035,28.035,0,0,0-17.638,8.195,35.017,35.017,0,0,0-9.234,17.541,22.149,22.149,0,0,0-.656,5.208C152.755,331.379,152.886,331.846,153.329,331.91Z"/><path d="M218.285,297.091a3,3,0,0,0-.621.35.592.592,0,0,0-.247.813.73.73,0,0,0,.631.236,18.237,18.237,0,0,0,1.832-.534,38.169,38.169,0,0,1,13.693-1.761c2.311.106,4.628.088,6.942.1.534,0,1.125.12,1.527-.416a1.88,1.88,0,0,0-1.234-.657C233.076,293.115,225.625,294.449,218.285,297.091Z"/><path d="M571.41,514.254c-.2-.337-.606-.594-.55-1.223l2.919,2.059a.879.879,0,0,0-.006-.741,63.605,63.605,0,0,0-2.465-7.612c-3.09-8.569-9.14-14.272-17.49-17.56a26.469,26.469,0,0,1-5.725-2.763c4.833-2.282,9.414-5.145,10.381-6.483-9.35,1.707-20.248,1.938-23.765.429,5.876-1.856,11.616-3.675,17.787-4.286a3.134,3.134,0,0,0-.328-.269c-.177-.091-.357-.178-.542-.252a50.108,50.108,0,0,0-21.111-3.9c-9.051.4-17.983,1.288-26.56,4.427a13.345,13.345,0,0,1-9.465.158c-1.121-.41-2.287-.7-3.426-1.061a53.849,53.849,0,0,0-9.358-2.19,98.113,98.113,0,0,0-1.4-33.77,131.917,131.917,0,0,0-14.829-37.783,197.265,197.265,0,0,1-14.122-31.45,8.738,8.738,0,0,1-.311-.9.725.725,0,0,1,.386-.8.539.539,0,0,1,.662.066,7.047,7.047,0,0,1,.873.81,37.518,37.518,0,0,0,8.373,6.366c.417.256.846.475,1.25-.024.019-.47-.308-.722-.611-.975a47.979,47.979,0,0,1-9.777-11.751q-3.544-5.7-7.126-11.384c-3.151-5-6.12-10.128-9.506-14.984-5.1-7.317-11.174-13.572-19.337-17.511a4.442,4.442,0,0,1-2.177-2.146c-2.105-4.511-5.462-8.044-8.935-11.486-7.655-7.586-16.63-11.771-27.64-10.684-.6.059-1.453-.239-1.625.593-.175.849.692.912,1.264,1.134.075.028.152.05.228.075a46.249,46.249,0,0,1,27.042,22.7,78.177,78.177,0,0,1,4.362,9.857,50.508,50.508,0,0,0,2.9,6.834c.238.428.263,1.141,1.272,1.081-1.553-4.817-3.054-9.579-4.626-14.319a52.166,52.166,0,0,0-6.734-13.634,2.975,2.975,0,0,1,1.92,1.214,67.245,67.245,0,0,1,6.879,8.3,135.9,135.9,0,0,1,7.388,11.778,17.42,17.42,0,0,0,3.569,4.782c.415.357.96,1.043,1.4.742,1.387-.956,1.664.318,2.123.977a53.871,53.871,0,0,1,6.248,12.112c.193.519.667,1.051.266,1.842-2.684-4.474-4.131-9.52-7.61-13.425a118.284,118.284,0,0,1,7.726,21.316,174.7,174.7,0,0,1,4.446,22.227,1.186,1.186,0,0,1-.352-.63,187.017,187.017,0,0,0-7.7-25.184c-2.711-6.843-5.589-13.609-9.812-19.7-.425-.613-.642-1.491-1.68-1.667-.3,1.012.284,1.714.7,2.445a92.586,92.586,0,0,1,4.947,10.646c.7,1.708,1.4,3.522.963,5.355-.612,2.563.048,4.886.722,7.281a89.544,89.544,0,0,1,2.68,15.87c-.275-.154-.481-.2-.519-.3a14.762,14.762,0,0,1-.743-2.258c-1.681-8.776-4.966-17-8.529-25.139-.48-1.1-.906-2.219-1.373-3.322-.125-.294-.332-.592-.695-.534-.547.088-.508.544-.434.93.513,2.667,1.056,5.328,1.567,8,.6,3.138,1.2,6.277,1.755,9.423.126.712.423,1.548-.618,2.21-.507-1.383-.9-2.661-1.44-3.872-.551-1.231-.616-2.759-1.895-3.662-.952,1.1.624,2.322-.434,3.275-1.719-4.9-5.362-12.551-6.611-13.688.014,2.484,1.408,4.475,1.762,7.078-1.395-.663-1.949-.242-1.733,1.11.046.29.042.775-.483.838a4.467,4.467,0,0,1-.784-2.5,28.4,28.4,0,0,0-.949-4.688c-2.873-7.884-5.51-15.841-7.6-23.978a24.544,24.544,0,0,0-4.673-9.637,83.861,83.861,0,0,0-16.1-15.353,55.378,55.378,0,0,0-26.725-10.386,62.3,62.3,0,0,0-18.127.915c-.772.146-1.587.6-2.418.14.188-.607.58-.723.92-.91a52.239,52.239,0,0,1,16.117-5.217c.471-.086.954-.113,1.42-.219.409-.093.735-.331.664-.819-.056-.389-.381-.472-.708-.481q-.719-.019-1.438.007c-6.14.216-12.319-.5-18.416.76a.7.7,0,0,1-.819-.325.74.74,0,0,1,.32-1.028,11.494,11.494,0,0,1,1.675-.912c2.409-1.072,4.828-2.121,7.246-3.173.437-.19,1.015-.325.972-.9-.063-.842-.818-.549-1.315-.629a13.414,13.414,0,0,0-11.171,3.138c-1.472,1.228-2.88,2.534-4.294,3.83-.3.272-.81.5-.507,1.353a31.889,31.889,0,0,1,2.7-2.042c.9-.545,1.517-1.876,3.167-1.29-1.874,2.551-3.963,4.706-5.444,7.386a66.889,66.889,0,0,1,6.577-2.747,22.323,22.323,0,0,1,7.214-1.372c-.987,1.488-2.465,1.594-3.555,2.286-1.214.77-2.489,1.446-3.686,2.239-1.131.75-2.212,1.58-3.288,2.409-1.14.879-2.276,1.766-3.361,2.71-.948.825-2.13,1.437-2.7,2.77,7.1-3.491,14.467-5.7,22.337-5.7a52.277,52.277,0,0,1,22.47,5.144c-1.5.526-3.047-.382-4.661.332.585.94,1.382.969,2.134,1.162a46.036,46.036,0,0,1,19.842,10.2,1.092,1.092,0,0,1,.463,1.464c-4.861-2.8-9.8-5.376-15.529-5.657,2.532,1.272,5.269,2.032,7.751,3.4a39.275,39.275,0,0,1,7.236,4.993c-.774.6-1.247.088-1.727-.084-2.406-.86-4.791-1.782-7.2-2.643-.546-.2-1.334-.656-1.637.148-.253.673.583.824,1.064,1.038a38.9,38.9,0,0,1,8.494,5.354,45.68,45.68,0,0,1,7.643,7.923,58.62,58.62,0,0,1,5.68,9.159c.262.518.977,1.132.331,1.7-.7.615-1.089-.277-1.524-.628-1.742-1.407-3.421-2.892-5.176-4.28-15.791-12.483-36.054-13.226-51.824-1.713-11.986,8.75-18.7,20.734-20.879,35.339-.089.594-.022,1.246-.991,1.667-1.527-8.357-.317-16.443,1.42-24.651a2.352,2.352,0,0,0-1.316,1.638c-2.807,8.384-4.01,16.924-2.584,25.739a49.612,49.612,0,0,0,3.757,12.345c.833,1.87.631,2.158-1.418,2.3-.239.017-.479.007-.719.01a78.172,78.172,0,0,1-17.147-1.65,10.256,10.256,0,0,1-4.864-2.414,35.6,35.6,0,0,1-7.546-9.551,10.489,10.489,0,0,1-1.238-4.579c-.2-3.922.021-7.833.122-11.747a65.961,65.961,0,0,0-2.95-22.947c-.266-.793-.339-1.718-1.3-2.259A70.3,70.3,0,0,1,276.429,354a40.625,40.625,0,0,1-.74-5.416c-.288-1.771-.087-3.727-1.588-5.2-.23,1.671-.175,3.318-.246,4.959-.072,1.675-.236,3.347-.416,5.015-.188,1.747-.338,3.51-.7,5.225-.318,1.515-.185,3.181-1.291,5.05a11.9,11.9,0,0,1,.248-3.614,31.055,31.055,0,0,0,.336-10.02,115.412,115.412,0,0,0-3.867-16.061c-.149-.454-.314-.9-.507-1.341a.71.71,0,0,0-.951-.467.767.767,0,0,0-.464.979,18.284,18.284,0,0,0,.653,2.05,57.751,57.751,0,0,1,3.857,13.815,35.847,35.847,0,0,1,.395,8.16A6.765,6.765,0,0,1,270,354.1c-3.656-17.257-12.637-30.889-27.52-40.526a6.213,6.213,0,0,0-4.264-1.171,14.654,14.654,0,0,1-7.3-.917,18.725,18.725,0,0,0-7.762-1.152,21.5,21.5,0,0,1-5.144-.153c1.344-.782,3.043-.96,4.388-2.39a8.515,8.515,0,0,0-4.044.025,17.492,17.492,0,0,0-8.41,4.849c-2.73,2.593-5.633,4.975-8.566,7.325-.378.3-.707.77-1.4.776a2.872,2.872,0,0,1,.2-.831c2.739-3.872,5.635-7.586,10.01-9.788a5.452,5.452,0,0,0,2.683-3.274,39.013,39.013,0,0,0-7.4,2.5c-1.752.748-1.483.589-2.294-1.164-.728-1.576-.094-2.245.9-3.1a11.472,11.472,0,0,0,1.657-1.728c.925-1.223,1.8-2.483,1.051-4.162a1.511,1.511,0,0,1,.636-1.88c4.786-3.973,9.913-7.029,16.489-6.516,3.267.254,6.568.163,9.814.556,6.312.765,12.45,2.137,17.582,6.3a44.119,44.119,0,0,0,5.831,3.775c10.85,6.266,18.69,15.113,22.968,26.982.145.4.3.742.877.564a16.76,16.76,0,0,0-.806-7.031,38.922,38.922,0,0,1-1.4-4.83C276.2,304.285,269.2,294.3,259.01,286.347c-.646-.5-1.49-1.529-2.216-.6-.651.833.7,1.194,1.119,1.792.72,1.023,1.946,1.694,2.209,3.117a53.793,53.793,0,0,0-18.484-8.314,43.879,43.879,0,0,0-20.424-.44,56.685,56.685,0,0,0-18.717,8.089c1.3.606,1.925-.1,2.594-.4a53.369,53.369,0,0,1,10.39-3.625c.431-.1.925-.385,1.2.329-.44.743-1.291.85-1.976,1.177a96.3,96.3,0,0,0-9.481,5.135A55.817,55.817,0,0,0,184.1,315.917a115.822,115.822,0,0,0-11.486,45.466c-.665,12.91.572,25.723,2.169,38.5,1.565,12.519,2.043,25.012-.29,37.492-.073.386-.056.818-.629.811-.06-.142-.179-.287-.171-.425.093-1.755.24-3.507.3-5.263.424-11.65-1.018-23.135-3.085-34.564-.469-2.594-.935-5.19-1.418-7.782-.084-.449-.109-1.088-.714-1.07-.7.02-.477.667-.5,1.109a2.153,2.153,0,0,0,.018.239c.259,4.63.544,9.258.77,13.889.312,6.391.57,12.785-.318,19.157-.054.387.167,1.015-.726,1.052-.512-4.733-.584-9.515-1.357-14.513a3.707,3.707,0,0,0-.706,2.6c-.386,4.465-.523,8.939-.512,13.42a5.012,5.012,0,0,1-.292,2.357c-.251.5-.537,1.081-1.194,1.016-.831-.083-.551-.821-.6-1.323-.109-1.017.23-2.135-.847-3.437-.712,2.787-1.422,5.143-1.9,7.544a31.277,31.277,0,0,1-5.41,12.173c-2.329,3.251-4.47,6.62-6.555,10.035-.88,1.441-4.819,3.866-10.137,6.519,6.17-7,13.288-16.11,15.93-23.451a135.2,135.2,0,0,0,8-43.662c.211-11.754-.184-23.511.161-35.265.01-.351.119-.812-.662-1.046-.909,2.455-.907,5.063-1.289,7.58-.4,2.605-.677,5.234-.879,7.862-.2,2.565-.233,5.143-.339,7.715-1.278-1.192-.342-2.908-1.675-4.458-2.077,15.868-2.964,31.541-7.193,46.679a200.667,200.667,0,0,0,2.794-26.866c.314-8.941.48-17.887,0-26.912-.841.216-.779.668-.8,1.034-.2,2.951-.369,5.905-.578,8.855-.525,7.417-.973,14.841-1.625,22.246a190.539,190.539,0,0,1-5.126,29.007c-1.265,5.117-2.64,10.208-3.979,15.307-.116.439-.186,1.068-.781,1.041-.66-.031-.54-.679-.556-1.12-.172-4.82-.213-9.644,1.249-14.395a41.887,41.887,0,0,0,2.062-15.343c-.065-.891.634-1.771-.162-3.086-1.227,2.773-1.363,5.567-1.967,8.225-.62,2.725-1.056,5.491-1.585,8.237-.544,2.824-.934,5.693-1.7,8.455-.732,2.62-.216,5.445-1.277,8.229a4.733,4.733,0,0,1-1.366-2.823,49.657,49.657,0,0,1-.944-8.086,107.693,107.693,0,0,1,1.247-15.76c.069-.543.357-1.134-.607-1.319a40.1,40.1,0,0,0-1.62,6.7c-.436,2.356-.749,4.734-1.163,7.094-.386,2.2-.141,4.493-.922,6.637a31.029,31.029,0,0,1-.78-8.117c.168-4.314.379-8.626.561-12.939a17.459,17.459,0,0,0-.023-1.914.449.449,0,0,0-.46-.447.513.513,0,0,0-.523.379c-.093.3-.191.61-.254.922-1.068,5.327-2.164,10.648-2.7,16.066a11.874,11.874,0,0,1-.773,4.249c-.442-8.259.876-16.448,1.035-25.068-1.263,1.393-1.089,2.828-1.452,4.075-.351,1.2-.257,2.534-1.11,3.907-.106-4.061.3-7.8.414-11.554a36.947,36.947,0,0,1,4.134-16.1c3.4-6.617,7.378-12.9,10.88-19.459a21.293,21.293,0,0,1,4.971-6.112,77.045,77.045,0,0,0,15.927-19.677c3.694-6.254,6.922-12.788,10.26-19.248,2.42-4.686,4.615-9.489,7.57-13.884.273-.4.806-.857.13-1.492a4.428,4.428,0,0,0-1.6,1.688q-9.384,12.6-18.758,25.21c-.239.32-.454.658-.707.967a.974.974,0,0,1-1.253.393,1.009,1.009,0,0,1-.555-1.392c.175-.446.383-.879.569-1.32q3.224-7.617,6.439-15.236a3.511,3.511,0,0,0,.549-2.419c-.263.127-.463.155-.518.259-3.654,6.835-7.366,13.633-9.792,21.051-4.146,12.678-12.783,21.769-23.653,28.951a18.381,18.381,0,0,1-12.145,2.867c-.847-.08-1.659-.553-2.735-.263a6.934,6.934,0,0,0,4.708,1.674c1.91.114,3.833.021,5.751.023.392,0,.842-.06,1.037.395.254.593-.206.855-.606,1.114-.267.174-.562.305-.834.472a42.705,42.705,0,0,0-15.036,15.5c-.359.633-.876,1.3-.593,2,.549,1.367-.2,2.292-.87,3.272A84.013,84.013,0,0,0,93.64,438.091a76.922,76.922,0,0,0,.9,21.028c.229,1.166.687,3.118,1.077,4.652a63.545,63.545,0,0,0-10.175,2.742,13.351,13.351,0,0,1-9.465.159c-1.122-.411-2.288-.7-3.427-1.062-5.944-1.9-11.974-3.079-18.258-2.248a34.606,34.606,0,0,0-13.916,4.792,4.425,4.425,0,0,0-1.8,1.647,13.538,13.538,0,0,1,4.183-.9c4.475-.408,8.133,2.212,12.238,3.2-2.812.523-5.532,1.305-8.271,2.018a17.414,17.414,0,0,0-11.421,9.1,25.478,25.478,0,0,0-1.522,3.486q-7.587.285-15.174.6c-.657.027-1.391-.049-1.747.748.645.624,1.309.44,1.92.447q7.185.092,14.369.179c-.7,2.435-1.174,4.934-1.663,7.435-.161.822-.3,1.649-.417,2.477-.114.78-.193,1.566-.288,2.349a43,43,0,0,1,8.247-11.225.4.4,0,0,1-.038.54c-3.756,5.881-5.284,12.4-5.6,19.285-.24,5.274.726,10.409,1.61,15.556a27.808,27.808,0,0,0,1.848,6.425c1.183-4.157,1.97-8.123,3.441-12,1.767,8.078,2.862,10.383,7.53,15.917,3.9,4.621,11.519,9.4,14.933,9.223-2.9-2.027-5.7-3.978-6.495-7.785a45.687,45.687,0,0,0,8.379,7.179,34.119,34.119,0,0,0,10.128,4.7c-1-1.123-1.783-1.969-2.531-2.843-1.392-1.629-1.651-2.08-1.76-2.983,3,2.464,6.139,4.672,9.944,5.389,3.024.57,5.945,1.429,8.892,2.248,1.226.34,2.5.5,3.747.768,1.719.363,3.576-.013,5.192.717a3.537,3.537,0,0,0,4.131-.8,28.49,28.49,0,0,0,2.891-2.86c.359-.4.733-.795,1.1-1.192l.224.116c-.37,1.848-.74,3.7-1.171,5.853,3.1-2.1,5.866-4.157,7.853-6.985,1.53-2.179,3.847-3.283,5.978-4.371a50.179,50.179,0,0,0,8.451-5.14c1.316-1.037,2.568-2.155,3.863-3.219.221-.183.62-.714.761-.035.39,1.883.645,3.784-.361,5.6-.179.323-.768.614-.448.985.289.336.841.066,1.242-.073a15,15,0,0,0,5.476-3.56,23.136,23.136,0,0,0,6.478-10.938c1.027,1.1,1.971,2.124,2.921,3.137,1.116,1.191,1.459,1.278,2.065-.181a38.159,38.159,0,0,1,4.545-7.463,4.76,4.76,0,0,0,.478-.961c2.259-5.432,1.079-10.452-1.829-15.267-.2-.337-.606-.595-.55-1.224l2.919,2.059a.875.875,0,0,0-.006-.741,63.426,63.426,0,0,0-2.465-7.612,29.832,29.832,0,0,0-3.2-6.394c4.6.07,10.079-.1,14.5.13,2.315.12,4.626.324,6.932.551a1.513,1.513,0,0,1,1.572,1.5c.021,1.045-.73,1.314-1.582,1.43-.634.087-1.266.187-1.9.24-2.709.223-5.42.418-8.128.65a11.007,11.007,0,0,0-3.978.786c.892.1,1.282.144,1.671.19a102.145,102.145,0,0,0,11.981.325c2.115,0,2.46.309,3.016,2.307.15.538.256,1.088.391,1.631a80.257,80.257,0,0,0,5.257,15.4,27.622,27.622,0,0,0,5.575,8.039c.314.3.624.8,1.31.289a33.456,33.456,0,0,1-.8-10.832c.078-.935-.515-2.487.72-2.668.975-.143.9,1.481,1.26,2.309a25.8,25.8,0,0,0,3.432,6.29c.3.367.647.832,1.176.507.36-.221.315-.71.213-1.105-.4-1.546-.862-3.078-1.21-4.636a3.31,3.31,0,0,1-.06-2.606,4.611,4.611,0,0,1,1.806,1.971c2.594,3.843,5.07,7.768,8,11.373a38.6,38.6,0,0,0,10.481,9.39,17.049,17.049,0,0,0,1.709.858.921.921,0,0,0,1.1-.212c.322-.367.129-.754-.122-1.075-.788-1.007-1.611-1.987-2.384-3.006-.246-.324-.8-.661-.206-1.182a6.51,6.51,0,0,1,1.927,1.389,53.845,53.845,0,0,0,5.928,4.068c.515.3,1.145.977,1.688.367.591-.664-.248-1.1-.637-1.539-.905-1.013-1.862-1.981-2.764-3-.283-.318-.8-.659-.3-1.163a.8.8,0,0,1,.926.1,49.438,49.438,0,0,0,8.054,4.229c4.472,1.934,6.611,5.34,6.476,10.2a13.023,13.023,0,0,0,.012,2.155c.091.64.631.7,1.067.352a4.15,4.15,0,0,0,1.217-2.289,16.914,16.914,0,0,0,.5-4.994c-.01-.364-.175-.855.321-1.029.609-.213.9.314,1.061.713.445,1.109.749,2.275,1.189,3.386.214.541.113,1.535.948,1.441.922-.1.7-1.077.788-1.75a3.636,3.636,0,0,0,.012-.479c0-1.043-.056-2.062,1.107-2.685.633-.339.566-1.046.455-1.724-.085-.522-.8-.974-.22-1.59.128.1.307.164.37.289,4.408,8.664,11.32,15.683,15.9,24.231.341.637.8,1.28,1.677,1.068.853-.2.972-.973,1.1-1.685a3.83,3.83,0,0,0,.109-1.189c-.2-1.434.159-2.86-.045-4.307-.188-1.329.445-1.79,1.7-1.307a11.379,11.379,0,0,1,3.463,2.111q2.065,1.828,4.183,3.6a59.461,59.461,0,0,0,7.958,5.338c.786.466,1.87,1.415,2.569.71.763-.769-.13-1.9-.575-2.8-.568-1.144-1.273-2.224-1.783-3.391-.311-.713-1.489-1.547-.556-2.22.879-.634,1.469.606,2.072,1.17,4.376,4.09,9.313,6.871,15.435,7.5a70.615,70.615,0,0,1,15.894,3.459,31.847,31.847,0,0,0,8.243,1.429c1.178.083,1.51-.436.936-1.4a13.793,13.793,0,0,0-1.016-1.333,56.724,56.724,0,0,1-5.308-8.263c-.225-.424-.729-.89-.211-1.453.48.023.7.4,1.008.634a50.744,50.744,0,0,0,10.431,5.85c.586.269,1.282.491,1.664-.3.323-.666-.249-1.015-.684-1.348-1.521-1.166-3.083-2.282-4.579-3.478-6.227-4.979-12.016-10.336-15.26-17.868-.154-.359-.432-.691-.931-.415-.051.141-.174.3-.148.432,1.408,6.9,3.06,13.728,6.756,19.857.27.448.856.946.279,1.467s-1.017-.044-1.4-.43a51.746,51.746,0,0,1-6.683-7.511,57.779,57.779,0,0,1-6.277-12.9,3.344,3.344,0,0,0-.73-1.568c-.539.239-.481.542-.439.866a39.231,39.231,0,0,0,1.832,7.681,63.425,63.425,0,0,0,2.95,7.589c.143.291.216.637-.1.862s-.6.034-.848-.172c-.123-.1-.227-.223-.342-.334-6.757-6.556-12.217-13.937-14.766-23.175-.136-.5-.065-1.177-.924-1.212-.068.206-.22.428-.192.624.167,1.185.348,2.37.574,3.546,1.443,7.5,4.217,14.405,9.237,20.272,1.195,1.4,2.506,2.692,3.738,4.057.324.36.908.644.707,1.379a5.476,5.476,0,0,1-2.4-1.167,101.736,101.736,0,0,1-11.989-8.776c-.5-.431-1.033-1.325-1.771-.632-.636.6.221,1.114.527,1.6a38.458,38.458,0,0,0,5.476,6.338c.326.33.8.632.253,1.151-.084.01-.182.054-.24.023-.348-.187-.7-.377-1.029-.59a56,56,0,0,1-22.1-25.829c-.224-.53-.329-1.258-1.293-1.111-.183,1.355.452,2.515.817,3.706a112.507,112.507,0,0,0,6.173,15.329,2.731,2.731,0,0,1,.436,2.627c-1.653-2.261-3.093-4.252-4.561-6.222-.35-.469-.571-1.338-1.417-.928-1.034.5-1.438-.2-1.95-.815s-.874-1.475-1.926-1.4c-.072,1.555,1.593,2.506.922,4.5-2.461-3.515-3.724-7.31-6.1-10.448a2.1,2.1,0,0,0-.18,1.229,109.952,109.952,0,0,1,1.589,11.15c.164,1.59.266,3.186.383,4.781.029.4.05.844-.46.965s-.663-.324-.882-.64c-.091-.13-.157-.278-.237-.416a130.881,130.881,0,0,1-8.355-16.177,53.32,53.32,0,0,1-4.4-22.406c.014-.383.056-.816-.5-.936-.385.78-.4,1.774-1.141,2.449a2.2,2.2,0,0,1-.381-1.978,18.328,18.328,0,0,1,3.5-9.553c1.06-1.4,2.154-2.782,3.2-4.195.3-.41.854-.753.616-1.406a1.1,1.1,0,0,0-1.141.141c-.432.231-.9.534-1.256,0-.347-.519.066-.94.446-1.2,1.185-.812,2.378-1.623,3.629-2.327,1.7-.955,2.368-.721,3.084,1.15a41.579,41.579,0,0,0,2.808,6.346,18.635,18.635,0,0,0,11.868,9.05,31.4,31.4,0,0,0,12.381.5,43.742,43.742,0,0,0,15.606-5.88c3.942-2.3,7.659-4.935,11.42-7.508a92.5,92.5,0,0,1,9.528-6.007c5.769-2.991,11.692-3.592,17.805-1.059.325.135.766.666,1.252-.016-1.007-1.2-3.578-1.727-1.917-4.114a20.48,20.48,0,0,1,6.911,3.69c.587.477,1.259.979.947,1.753-.576,1.429.28,2.224,1.06,3.142.438.515,1.314,1.2.678,1.812-.908.87-.25,1.374.086,2.018.554,1.062,1.146,2.105,1.68,3.178.244.489.541,1.128-.1,1.475-.561.3-.766-.366-1.065-.7-.5-.55-.676-1.458-1.834-1.559.25.931.477,1.759.7,2.59a79.886,79.886,0,0,1,2.323,10.278c.084.661.264,1.354-.764,1.322-.847-.027-.889.469-.786,1.089a33.144,33.144,0,0,0,3.256,10.72c.35.641,1.3,1.332.525,2.062-.709.668-1.665.214-2.454-.228-.418-.234-.814-.507-1.226-.751a78.747,78.747,0,0,1-11.651-8.814,4.154,4.154,0,0,0-2.542-1.5,51.127,51.127,0,0,0,4.032,6.443c1.3,2.056,2.837,3.975,4.026,6.27-1.137.2-1.387-1.216-2.306-.714a1.629,1.629,0,0,0,.4,1.16,38.268,38.268,0,0,0,4.949,7.05c.312.322.79.7.34,1.191-.315.345-.739.083-1.1-.082q-3.381-1.541-6.763-3.079a66.2,66.2,0,0,1-11.339-6.2c-1.105-.788-2.14-1.674-3.207-2.515-.384-.3-.8-.649-1.22-.118-.3.376-.051.751.219,1.063a42.041,42.041,0,0,0,4.146,4.326c1.007.877,2.019,1.749,3.1,2.68-1.063.494-1.725-.111-2.407-.448-1.861-.919-3.693-1.9-5.531-2.865-.45-.237-.93-.423-1.3.023-.419.5.042.89.35,1.221,2.452,2.632,4.926,5.244,7.374,7.88.51.548,1.649,1.018,1.125,1.851-.481.763-1.448.192-2.176-.145a4.229,4.229,0,0,0-3.551-.383,4.94,4.94,0,0,0,2.163,1.626c3.711,2.059,7.685,3.552,11.535,5.313.821.375,1.9,1.46,2.554.683.83-.982-.612-1.737-1.134-2.514-1.067-1.589-2.29-3.074-3.438-4.611a.974.974,0,0,1-.175-1.11.994.994,0,0,1,1.247-.408,5.923,5.923,0,0,1,.677.24c4.346,1.631,8.881,1.894,13.456,1.845a12.243,12.243,0,0,0,2.381-.149c.906-.19,1.121-.875.654-1.641a8.031,8.031,0,0,0-1.127-1.235,27.33,27.33,0,0,1-4.945-6.742c-.3-.616-1.019-1.329-.533-1.943.568-.717,1.3.051,1.927.292a14.782,14.782,0,0,0,5.6,1.14c3.039-.049,3.319-.452,1.882-3.144a17.431,17.431,0,0,1-2.323-9.661c.379-4.872.657-9.73-.212-14.581-.163-.907-.142-1.769.987-2.13a1.413,1.413,0,0,0,.959-1.707c-.412-3.877-1.182-7.588-4.285-10.373a5.837,5.837,0,0,1-2.023-2.742,14.449,14.449,0,0,1,4.661,4.64,17.238,17.238,0,0,0,2.318,3.046,5.265,5.265,0,0,0,2.745,1.389c.94.159,1.929.048,2.86.236,1.434.289,1.264-1.294,2.088-1.891,1.707,3.5,3.344,6.786,4.921,10.1a39.439,39.439,0,0,0,5.662,9.14,12.275,12.275,0,0,1,2.979,8.406c-.051,4.889.813,9.718.907,14.6a2.206,2.206,0,0,0,.054.473.58.58,0,0,0,.46.473.768.768,0,0,0,.845-.309,3.953,3.953,0,0,0,.334-1.376,50.107,50.107,0,0,1,1.589-7.981,69.013,69.013,0,0,0,.714-31.366c-.142-.672-.106-1.431-1.078-1.967.829,9.12.986,18.051-.814,27.084-.8-.528-.577-1.044-.614-1.468-.64-7.326-.875-14.684-1.84-21.983a67.569,67.569,0,0,0-1.948-9.377c-.126-.45-.2-1.035-.863-.856-.524.143-.307.632-.263,1.013a9.411,9.411,0,0,1-.065,3.783c-1.267-3.255-1.819-6.715-3.053-9.967a39.991,39.991,0,0,0-4.462-9.391c3.364,11.664,4.563,23.657,6.5,35.717-.429-.153-.537-.159-.556-.2-1.222-2.774-2.406-5.566-3.661-8.325-1.523-3.349-3.249-6.6-5.037-9.809-5.794-10.41-12.431-20.322-18.153-30.773a1.969,1.969,0,0,0-.273-.393,1.6,1.6,0,0,0-.369-.286.352.352,0,0,0-.236,0c-.31.081.117.256-.3.047a23.134,23.134,0,0,0,2.29,7.076c1.2,2.7,2.6,5.318,3.2,8.249a14.033,14.033,0,0,0,3.223,6.347c1.4,1.641,2.876,3.221,4.273,4.865.313.368.979.619.737,1.332-.561-.024-.867-.416-1.212-.714a76.476,76.476,0,0,1-15.737-17.972c-1.5-2.457-3.1-4.85-4.677-7.257-.378-.577-.6-1.334-1.563-1.539-.007,1.455.8,2.58,1.31,3.781.532,1.247,1.247,2.416,1.784,3.661.49,1.135,1.6,2.021,1.627,3.963a40.793,40.793,0,0,1-4.238-5.5c-1.138-1.737-2.169-3.544-3.265-5.309s-1.806-3.805-3.429-5.3c.894,3.6,2.858,6.75,4.058,10.237-1.988-.9-3.085-2.686-4.5-4.114s-2.742-2.912-4.108-4.373c.039,1.381,1.374,2.029,1.516,3.561a8.929,8.929,0,0,1-2.61-2.478c-1.017-1.182-2.052-2.235-3.84-1.98a2.875,2.875,0,0,1-2.491-1.2c-2.02-2.158-4.037-4.319-6.09-6.446-.463-.479-.755-1.236-1.776-1.259.3,2.6,2.766,4.121,3.084,6.672a25.427,25.427,0,0,1-3.185-2.849c-1.07-1.079-2.1-2.2-3.2-3.243a15.324,15.324,0,0,0-3.287-2.922,4.256,4.256,0,0,0,.681,1.992c.27.436.87.735.547,1.755-1.106-1.213-2.091-2.286-3.067-3.366-.954-1.056-1.46-2.593-3.143-3.08-.408,1.989,1.352,3.362,1.014,5.706l-4.835-7.24c-2.115,1.264-2.1,1.252-3.561-.692-1.409-1.873-2.191-4.076-3.3-6.105-.363-.662-.625-1.686-1.587-1.509-.8.146-.728,1.152-.93,1.8-.733,2.364-1.539,4.7-2.085,7.128-.564,2.5-1.714,2.914-3.922,1.576a1.814,1.814,0,0,0-.546-.093c-2.466,4.991-4.7,10.17-8.734,14.263a44.626,44.626,0,0,1,1.469-5.214c1.261-3.876,1.26-3.876.825-5.216-1.295,1.867-1.889,3.949-2.9,5.81-1.031,1.9-1.946,3.858-3.066,5.7-1.089,1.79-1.957,3.781-3.821,5.217a3.635,3.635,0,0,1-.164-.869c.06-.518.617-1.177-.051-1.5-.77-.372-1.05.5-1.439.951a10.769,10.769,0,0,0-1.552,2.692c-.324.73-.655,1.457-.976,2.188-.293.668-.649.8-1.241.27-.81-.723-1.078-.071-1.292.592-.566,1.747-1.115,3.5-1.693,5.242-.151.454-.384.95-.981.822-.467-.1-.472-.586-.514-.977a17.416,17.416,0,0,1,.2-5.962c.149-.63.534-1.375-.37-1.93-.258.27-.555.457-.673.723a33.181,33.181,0,0,0-2.978,12.023,5.132,5.132,0,0,1-.334,2.348,1.052,1.052,0,0,1-.925.66c-.452-.021-.674-.392-.741-.811-.19-1.184-.341-2.374-.546-3.555-.094-.542-.208-1.183-.872-1.277-.715-.1-.875.564-1.109,1.055a68.066,68.066,0,0,0-3.926,9.521,20.687,20.687,0,0,0,.052,13.421c.14.384.536.858-.279,1.356-3.725-3.768-6.36-8.045-6.667-13.544a50.839,50.839,0,0,1,4.447-24.515,1.758,1.758,0,0,0,.066-2.039,44.561,44.561,0,0,0-4.3,9.743c-4.571,15.252-3.2,30.261,1.805,45.214l-4.508-7.182c-.481.46-.533.77-.411,1.078a51.646,51.646,0,0,0,6.661,12.423c.39.51,1.113.934.727,1.79-.253-.046-.463-.02-.553-.111-.894-.908-1.783-1.824-2.645-2.762-.6-.652-1.16-1.413-2.135-1.395-1.527.028-2.251-.985-3-2.062a70.49,70.49,0,0,1-9.187-19.951c-.149-.492-.007-1.176-.877-1.288a9.236,9.236,0,0,0-.085,1.17,12.755,12.755,0,0,0,.2,1.664,58.494,58.494,0,0,0,8.1,21.63c.244.375.651.77-.033,1.29-2.191-1.315-3.643-3.586-5.718-5-.592.412.166,1.065-.684,1.4a32.254,32.254,0,0,1-5.547-7.008,64.492,64.492,0,0,1-4.672-10.758c-.168-.447-.266-.924-.469-1.352a.755.755,0,0,0-.548-.389.57.57,0,0,0-.565.633,8.252,8.252,0,0,0,.146,1.18,54.575,54.575,0,0,0,3.281,11.252,4.25,4.25,0,0,1,.4,1.111c.054.5-.278.739-.746.527a2.414,2.414,0,0,1-.7-.626q-13.278-14.8-10.833-34.531a106.8,106.8,0,0,1,3.609-17.339,2.214,2.214,0,0,0-.02-2.327,55.5,55.5,0,0,0-5.838,14.468,59.206,59.206,0,0,0-1.683,15.543,3.023,3.023,0,0,1-1.168-2.178,57.062,57.062,0,0,1-1.332-14.765c.02-.559.431-1.3-.5-1.624-.152.188-.388.349-.435.554a33.738,33.738,0,0,0,1.41,20.71c.18.443.424.861.611,1.3a.5.5,0,0,1-.291.759.5.5,0,0,1-.614-.234c-.642-1.011-1.275-2.028-1.877-3.063a42.766,42.766,0,0,1,5.74-51.288,72.481,72.481,0,0,1,7.411-6.811c.558-.45,1.375-.775,1.367-1.728-.971-.13-1.575,1.033-2.727.359,2.839-3.115,6.77-4.279,10.478-6.643-1.961.038-3.377.629-5.361.443,2.512-1.5,5.129-1.627,7.315-3.112a1.818,1.818,0,0,0-1.48-.171,31.041,31.041,0,0,0-7.1,2.116c-.342.169-.782.452-1.059.018a.633.633,0,0,1,.417-.948c2.679-.937,3.244-3.668,4.973-5.515-1.176-.441-1.945.9-3.273.23a26.893,26.893,0,0,1,8.744-5.167c4.143-1.462,8.308-2.863,12.459-4.3a5.781,5.781,0,0,0,2.173-.945c.082-.074.077-.244.108-.353-.349-.539-1.379-.019-1.454-1.216,2.948-1,5.952-2.042,8.884-3.274.985-.415,1.719-.419.768-1.619-.449-.565.233-.809.586-1.06,1.238-.879,2.51-1.712,3.739-2.6.746-.541,1.68-.9,2.1-1.812-.675-.743-1.433.473-2.008-.26a.829.829,0,0,1,.422-.773c1.249-.861,2.524-1.686,3.752-2.576.468-.339,1.375-.513,1.04-1.356-.247-.622-.975-.739-1.615-.847s-1.387.4-2.1-.51a8.949,8.949,0,0,0,2.864-2.626,8.312,8.312,0,0,1,4.042-2.856,28.819,28.819,0,0,1,10.114-1.66,2.59,2.59,0,0,0,1.936-.346c-1.58-1.025-3.485-.395-5.334-1.8,6.546-.406,12.527-.153,18.737,1.821-1.168-2.4-3.665-2.224-5.107-4.031a13.566,13.566,0,0,1,6.75,1.515,8.771,8.771,0,0,0,3.374,1.148c2.622.325,5.23,1.565,7.89.153a.813.813,0,0,1,.474-.037,3.884,3.884,0,0,0,3.533-1c.228-.219.543-.372.836-.07.277.285.149.592-.033.862a8.474,8.474,0,0,1-.719.954,4.475,4.475,0,0,0-1.277,2.747c1.706-.842,2.63-2.179,3.866-3.11,2.1-1.577,2.629-1.832,4.14-1.591-1.114,1.309-2.954,2.071-3.112,4.238,5.656-3.445,10.148-4.613,12.812-3.316-1.346.7-2.953.768-4.4,2.113,1.837-.262,3.175-.466,4.516-.641a16.7,16.7,0,0,1,6.657.44c.829.229,1.3.753.3,1.466-.241.171-.558.315-.326.718,5.568-.057,10.226,2.2,14.316,5.786,2.521,2.207,4.759,4.755,7.807,6.309a1.427,1.427,0,0,1,.369.3c.233.24.381.506.142.83a.537.537,0,0,1-.64.171,5.259,5.259,0,0,0-2.472-.627c.993,1.6,2.561,2.1,3.712,3.093,1.239,1.065,2.918,1.618,3.935,3.326-2.544.055-4.4-1.892-6.755-1.66a24.622,24.622,0,0,0,9.63,4.6c2.782.719,5.642,1.158,8.392,1.976,13.491,4.01,23.878,11.964,30.626,24.443a4.1,4.1,0,0,1,.864,2.388c-.572-.058-.748-.425-.968-.757a49.99,49.99,0,0,0-5.963-7.19c-.388-.4-.693-.9-1.246-1.09a1.006,1.006,0,0,0-.659.045c-.275.114-.215.407-.16.631.161.655.707,1.047,1.09,1.552,3.441,4.542,6.609,9.238,8.188,14.806a8.43,8.43,0,0,1,.613,3.409c-.946.352-1.246-1.09-2.116-.659-.467,1.274,1.122,2.288.271,3.921a32.634,32.634,0,0,0-3.633-5.335,9.444,9.444,0,0,0-4.875-3.347,54.91,54.91,0,0,1,11.034,16.177c3.136,6.98,4.715,15.534,3.428,19.258-1.638-7.684-3.134-15.176-7.484-21.766-.6.773-.125,1.2.125,1.68a58.671,58.671,0,0,1,6.2,22.98,2.49,2.49,0,0,1-.655,2.413c-.417-1.759-.766-3.395-1.2-5.01-1.714-6.447-4.029-12.637-7.9-18.146-.367-.523-.742-1.044-1.149-1.536-.309-.374-.7-.747-1.2-.335-.423.35-.067.7.133,1.034.415.681.863,1.345,1.237,2.048C384.5,477.2,387.3,490.1,388.606,503.4a1.521,1.521,0,0,1-.479,1.679A125.352,125.352,0,0,0,382.451,485a79.764,79.764,0,0,0-9.8-18.157c-.457.611-.242.877-.08,1.14a84.139,84.139,0,0,1,5.609,11.12,78.711,78.711,0,0,1,6.455,25.2,70.28,70.28,0,0,1-6.433,34.992c-.213.467-.725.874-.309,1.863a33.433,33.433,0,0,0,4.2-5.809,52.239,52.239,0,0,0,3.5-6.553c.947-2.133,1.831-4.294,2.771-6.509.341.281.533.361.556.474a2.469,2.469,0,0,1,.057.942c-1.417,7.026-3.31,13.853-8.22,19.4a2.692,2.692,0,0,0-.442.559c-.273.562-.085.942.547.974a3.468,3.468,0,0,0,1.18-.152c4.207-1.312,8.385-2.749,12-5.326,12.146-8.646,22.32-19.114,29.494-32.313a23.12,23.12,0,0,1,1.876-3.058,4.043,4.043,0,0,1,4.2-1.7c.33.064.706.4.992-.113-.474-.636-1.16-.4-1.771-.468-1.4-.149-1.652-.465-1.473-1.808.262-1.963,1.436-2.967,3.635-3.032,4.475-.131,8.95-.23,13.425-.356a3.246,3.246,0,0,0,1.874-.4c-1-.792-1.994-.593-2.911-.658-3.827-.271-7.657-.51-11.487-.758-.648-.042-1.342-.054-1.51-.866a2.013,2.013,0,0,1,.588-1.751,1.889,1.889,0,0,1,1.282-.575c1.111-.132,2.221-.319,3.335-.358q8.63-.306,17.26-.545c.843-.024,1.687-.044,2.531-.065a20.773,20.773,0,0,0-1.568,2.461c-2.174,4.056-2.953,8.475-3.817,12.892-.161.821-.3,1.648-.417,2.477-.114.78-.193,1.565-.288,2.349a43,43,0,0,1,8.247-11.225.4.4,0,0,1-.038.54c-3.756,5.881-5.284,12.4-5.6,19.285-.24,5.274.725,10.409,1.61,15.556a27.822,27.822,0,0,0,1.848,6.425c1.183-4.158,1.97-8.123,3.441-12,1.767,8.078,2.862,10.383,7.53,15.917,3.9,4.621,11.519,9.4,14.933,9.223-2.9-2.028-5.7-3.978-6.5-7.786a45.654,45.654,0,0,0,8.379,7.18,34.119,34.119,0,0,0,10.128,4.7c-1-1.123-1.784-1.969-2.531-2.843-1.393-1.63-1.651-2.08-1.76-2.983,3,2.464,6.139,4.672,9.944,5.389,3.024.57,5.945,1.429,8.892,2.248,1.226.34,2.5.5,3.747.768,1.719.363,3.576-.013,5.192.716a3.535,3.535,0,0,0,4.131-.8,28.7,28.7,0,0,0,2.891-2.86c.359-.4.733-.8,1.1-1.193l.224.117c-.37,1.848-.74,3.7-1.171,5.853,3.1-2.1,5.866-4.158,7.853-6.986,1.53-2.178,3.847-3.282,5.978-4.37a50.179,50.179,0,0,0,8.451-5.14c1.316-1.037,2.568-2.155,3.863-3.22.221-.182.62-.713.761-.035.39,1.884.645,3.785-.361,5.6-.179.322-.768.613-.448.985.289.336.84.066,1.242-.073a15,15,0,0,0,5.476-3.56,23.136,23.136,0,0,0,6.478-10.938c1.027,1.1,1.971,2.123,2.921,3.137,1.116,1.191,1.459,1.277,2.064-.181a38.182,38.182,0,0,1,4.546-7.463,4.794,4.794,0,0,0,.478-.962C575.5,524.09,574.318,519.07,571.41,514.254Zm-455.245-101.4c2.488-10.244,5.729-20.156,12.639-28.448A227.356,227.356,0,0,0,116.165,412.853ZM111.249,392.2a57.942,57.942,0,0,1,13.7-12.959c2.921-1.956,5.827-3.933,8.74-5.9.4-.268.776-.568,1.192-.8.45-.253.98-.9,1.441-.267s-.378.907-.715,1.27a52.838,52.838,0,0,1-9.565,7.952,89.764,89.764,0,0,0-14.445,11.439c-.289.293-.541.762-1.112.68C110.433,392.966,110.931,392.617,111.249,392.2Zm39.377,108.661a.863.863,0,0,0-1.012,0,.92.92,0,0,0-.151,1.011A10.634,10.634,0,0,0,151.2,505a16.894,16.894,0,0,1,3.188,10.094,10.549,10.549,0,0,1-2.735,7.275,35.446,35.446,0,0,0-.531-8.921,19.394,19.394,0,0,0-3.9-8.2,1.381,1.381,0,0,0,.034,1.572c2.348,5.632,2.412,11.486,1.709,17.415a1.6,1.6,0,0,1-.444,1.175c-.987-1.2-1.95-2.41-2.951-3.585a18.792,18.792,0,0,0-1.735-1.811,1.318,1.318,0,0,0-1.557-.277c-.516.3-.425.891-.366,1.412.127,1.109.585,2.148.627,3.284a5.859,5.859,0,0,1-.443,2.677,24.775,24.775,0,0,1-4.661,6.769l-2.718,2.916a16.2,16.2,0,0,0,.1-5.844c-.071-.392-.141-.784-.233-1.171-.156-.657-.235-1.384-1.106-1.514a1.837,1.837,0,0,0-1.926.933,27.067,27.067,0,0,1-5.77,6.513,13.568,13.568,0,0,1-3.9,2.461,30.27,30.27,0,0,0,2.357-4.355,16.806,16.806,0,0,0,.594-10.674,36.172,36.172,0,0,1-1.083-11.5c.1-1.069.259-2.133.405-3.315a19.272,19.272,0,0,0-2.3,4.2c-.529-3.093-1.264-5.78-1.455-8.572a15.083,15.083,0,0,0-1-4.9,2.743,2.743,0,0,0-.882-1.344c.479,1.983-.387,3.628-1.082,5.522a17.979,17.979,0,0,0-3.875-6.537c-1.73-1.732-3.43-3.525-5.79-4.486a60.419,60.419,0,0,1,5.143,7.84c-1.347-.454-2.113-1.442-3.551-2A52.113,52.113,0,0,1,119.6,515.754a53.329,53.329,0,0,0-4.694-3.869c3.3,4.8,5.834,9.594,5.864,15.336a21.37,21.37,0,0,1-5.562,15.219,28.814,28.814,0,0,0,.127-5.424,2.96,2.96,0,0,0-.039-.714c-.1-.325-.152-.811-.61-.754-.443.056-.255.515-.265.8a17.408,17.408,0,0,1-4.235,11.3,15.38,15.38,0,0,1-1.185,1.183c-.289.264-.62.481-1.133.871.484-2.332.921-4.445,1.361-6.557.048-.234.123-.464.159-.7.055-.366.078-.759-.338-.927-.446-.178-.722.07-.981.441-2.078,2.975-4.837,5.286-7.509,7.686-.659.592-1.084.5-1.8.006a13.97,13.97,0,0,1-5.981-8.634,18.274,18.274,0,0,0-.817-2.243c-.114-.3-.226-.647-.637-.584-.514.077-.424.5-.4.85.256,3.663,1.15,7.08,3.826,9.8.131.134.252.277.591.651-3.58-.51-6.905-.791-9.787-2.722-2.465-1.652-2.885-4.191-2.839-6.853.068-3.822,1.742-7.159,3.394-10.486.489-.984,1-1.957,1.41-3-1.893,1.084-3.132,2.828-4.6,4.5A19.293,19.293,0,0,1,86,519.011a34.551,34.551,0,0,0,3.142-5.737,46.213,46.213,0,0,0-6.04,5.111c1.058-8.186.533-15.93-3.808-23.195.257,2.7.541,5.271.737,7.844a55.1,55.1,0,0,1,.252,8.027,12.341,12.341,0,0,0-3.942-3.305,14.562,14.562,0,0,1,2.787,6.395c.513,3.469.85,6.965,1.211,10.455a44.69,44.69,0,0,1,.2,4.876,27.511,27.511,0,0,0-4.19-5.829c.907,3.1,1.737,6.019,2.631,8.921a5.1,5.1,0,0,1,.18,2.337,14.545,14.545,0,0,0,2.908,11.827,4.173,4.173,0,0,1,.283.514,12.706,12.706,0,0,1-3.393-1.383,75.122,75.122,0,0,1-9.313-5.856c-.263-.181-.527-.362-.8-.524a1.193,1.193,0,0,0-1.35,0c-.508.337-.405.834-.267,1.295a23.486,23.486,0,0,0,1.522,3.33,42.216,42.216,0,0,1-5.661-4.533c-2.137-1.977-4.188-4.049-6.318-6.034a5.15,5.15,0,0,0-3.044-1.763c-1.406-.116-1.975.516-1.509,1.864.4,1.147.925,2.249,1.39,3.358A.422.422,0,0,1,53,536.9c-4.735-4.471-8.47-9.541-9.652-16.134a23.162,23.162,0,0,1-.277-5.6c.021-.318.072-.637.062-.954-.024-.716-.212-1.38-.986-1.611-.724-.216-1.215.233-1.615.758a10.66,10.66,0,0,0-1.176,2.212,33.353,33.353,0,0,0-2.2,7,7.4,7.4,0,0,1-.493-2.857c-.534-5.568-1.031-11.185.1-16.694,1.685-8.186,5.274-15.437,11.659-21.085.288-.255.789-.509.485-.94-.245-.346-.751-.16-1.12-.025a27.959,27.959,0,0,0-9.14,5.567c-1.062.958-2.112,1.93-3.189,2.914-.3-.359-.087-.633.008-.9,2.408-6.959,7.25-11.281,14.318-13.179,5-1.342,10.1-2.344,14.91-4.355a4.583,4.583,0,0,0,1.077-.588c-6.405,1.432-12.073-1.29-18.094-3.093a47.21,47.21,0,0,1,8.925-.342c4.148.125,8.292.383,12.437.578a7.2,7.2,0,0,1,2.3.619c6.23,2.461,12.524,2.23,18.756.2a74.854,74.854,0,0,1,19.737-3.456,85.7,85.7,0,0,1,16,.85c.135.019.326-.028.4.32-1.356.364-2.719.72-4.078,1.1a45.363,45.363,0,0,0-7.559,2.62c-.4.188-.774.411-1.152.633a.913.913,0,0,0-.532.983c.085.422.5.473.844.557a49.443,49.443,0,0,0,11.584,1.645c1.891.011,3.781,0,5.69.112a50.006,50.006,0,0,1-8.948,2.623c5.881,1.456,9.985,5.019,13.35,9.567,1.847,2.5,3.608,5.056,5.413,7.595.172-1.889-2.261-7.007-5.619-11.829,5.608.27,15.712,11.9,17.511,20.238C152,501.554,151.317,501.2,150.626,500.865Zm3.936-43.8c2.038-5.008,3.713-10.154,5.763-15.155A37.8,37.8,0,0,1,154.562,457.066Zm107.816,17.807a33.9,33.9,0,0,1,17.326-9.159c2.267-.457,3.219.221,3.237,2.5.031,3.859,1.388,7.54,1.42,11.391,0,.335.124.647.518.652.361,0,.522-.3.674-.582a12.528,12.528,0,0,0,1.172-4.126,17.938,17.938,0,0,1,.937-3.7,8.649,8.649,0,0,1,7.743-5.879,27.55,27.55,0,0,1,19.374,5.475c3.54,2.562,4.782,6.955,3.513,11.621a16.007,16.007,0,0,1-1.908,4.377c-5.615,8.869-13.42,14.644-23.811,16.663a13.309,13.309,0,0,1-11.318-2.479c-1.786-1.409-2.088-1.4-3.956.079a12.533,12.533,0,0,1-8.435,2.848c-5.88-.2-10.5-4.727-11.285-11.059-.245-1.979-.337-3.978-.461-5.5A16.591,16.591,0,0,1,262.378,474.873ZM194.946,340.087c5.029-5.564,11.176-9.009,18.727-9.567,6.542-.482,15.069,4.6,18.173,11.027a11.933,11.933,0,0,1-2.778-2.554c-.291-.273-.534-.6-.832-.862-.593-.523-1.26-1.28-2.048-.536-.8.759.043,1.452.437,2.086.292.47.732.847,1.058,1.3.313.435.811.925.32,1.472s-1.066.229-1.484-.154c-1.328-1.219-3.032-1.754-4.573-2.581-.472-.253-.956-.638-1.643-.3-.075,1.007,1.27.807,1.431,1.609-.231.57-.667.267-.984.167a49.13,49.13,0,0,0-12.259-2.054,23.856,23.856,0,0,1-2.378-.292c-.41-.064-.781-.267-.817-.735-.044-.572.352-.859.827-1.033a2.544,2.544,0,0,1,1.414.068c1.018.2,2.034.445,3.063.559a3.065,3.065,0,0,0,2.789-.666c-4.093-.927-7.822-1.832-11.67-.317a5.16,5.16,0,0,0-2.5,1.757c-1.513,2.126-1.533,2.113-4.3,2.235A.473.473,0,0,1,194.946,340.087Zm-7.672,23c.192-.347.412-.679.635-1.008a23.6,23.6,0,0,1,16.828-10.747c.367-.051.792.025,1.152-.648-2.948-.756-5.7-.076-8.423.618a40.018,40.018,0,0,0-7.855,3.417c-.465-.739.075-.971.351-1.279a17.292,17.292,0,0,1,13.081-6.031c5.031-.094,10.06-.28,15.089-.443a8.236,8.236,0,0,1,6.21,2.631c.608.6,1.395,1.221.808,2.248a2.218,2.218,0,0,1-2.979.646c-.791-.376-1.527-.87-2.322-1.235a1.616,1.616,0,0,0-1.628-.17c1.231,1.887,3.77,2.216,4.8,4.392-1.557.115-2.659-1.1-4.19-.872.1,1.118,1.437,1.254,1.632,2.351-2.448-.5-4.759-1.363-7.2-1.575-2.305-.2-4.6-.481-6.908-.671a3.515,3.515,0,0,0-3.512,1.606,2.439,2.439,0,0,1-1.671,1.2c-4.373.919-8.191,3.082-11.916,5.437-.4.256-.778.556-1.179.817a.541.541,0,0,1-.659-.055A.475.475,0,0,1,187.274,363.091Zm-5.6,80.665a4.136,4.136,0,0,0-.745,2.233,76.278,76.278,0,0,1-1.171,16.217c-.966,6.084-1.184,12.235-1.893,18.335a28.743,28.743,0,0,0,1.373,13.174,69.676,69.676,0,0,1,2.03,8.363,4.493,4.493,0,0,1-.173,3.126c-.3-1.093-.531-1.825-.707-2.568a8.873,8.873,0,0,0-1.608-3.446c-3.514-4.538-4.923-9.8-5.167-15.413-.117-2.71-.01-5.429,0-8.145,0-.4.032-.8.032-1.2,0-.329-.066-.653-.475-.676-.383-.021-.526.277-.64.582a29.23,29.23,0,0,0-1.5,7.569c-.825-1.568-.824-3.116-.518-7.8.175-2.665.956-5.243,1.274-8.183-2.127.812-1.985,2.955-3.3,4.052a3.06,3.06,0,0,1,.263-2.613,79.536,79.536,0,0,1,4.17-9.666c2.451-4.845,4.8-9.739,6.877-14.756a50.455,50.455,0,0,0,2.716-7.919c.483-2.1,1.981-3.057,3.847-3.8-.679,1.026-1.365,2.048-2.034,3.082a10.031,10.031,0,0,0-.709,1.241.769.769,0,0,0,.2,1.058c.276.165.6,0,.87-.21a6.149,6.149,0,0,1,2.53-1.73C184.657,437.672,183.286,440.784,181.671,443.756ZM194.293,391a68.673,68.673,0,0,0-7.673,10.1,12.649,12.649,0,0,0-1.728,3.665c3.034-1.006,4.983-2.871,7.054-4.619a7.145,7.145,0,0,1-1.831,2.639,16.749,16.749,0,0,0-4.52,11.3c-.083,2.428-.442,3.534-1.44,4.821-.731-.274-.509-.926-.5-1.426a147.557,147.557,0,0,0-.595-15.322,7.048,7.048,0,0,1,2.307-6.018,47.392,47.392,0,0,1,7.9-6.2c.495-.3,1.063-1.075,1.643-.464C195.551,390.146,194.669,390.573,194.293,391Zm6.96-16.8c-2.926,1.687-5.336,3.758-6.141,7.265a6.055,6.055,0,0,1-2.186,3.092c-3.38,2.9-5.631,6.713-8.332,10.162a8.166,8.166,0,0,1-.83,1.155c-.457.4-.959.253-1.067-.35-.154-.861-.168-1.747-.239-2.623a49.01,49.01,0,0,1,.48-13.131,21.872,21.872,0,0,1,12.288-16.153c8.132-4.131,16.433-3.955,24.844-.987.06.021.093.116.288.376a5.812,5.812,0,0,1-2.731.164,49.592,49.592,0,0,0-14.891,2.065,4.414,4.414,0,0,0-.878.362.57.57,0,0,0-.334.575.444.444,0,0,0,.476.418,4.52,4.52,0,0,1,1.728.279c-1.328.487-2.677.924-3.978,1.474a10.815,10.815,0,0,0-3.651,2c.345.775.866.623,1.273.491,4.381-1.426,8.938-1.627,13.473-1.991.467-.037,1.066-.269,1.217.346.157.642-.488.676-.927.791A40.277,40.277,0,0,0,201.253,374.2Zm7.917,20.443c1.253,3.224,2.468,6.413,4.665,9.121,2.123,2.616,4.913,4.377,8.121,6.1C216.024,411.423,207.284,400.778,209.17,394.646Zm31.056-2.933a1.371,1.371,0,0,1-1.787-.767c-.232-.417-.378-.881-.581-1.315A10.488,10.488,0,0,0,227.7,383.78c-2.1.182-2.739.708-2.8,2.774a5.241,5.241,0,0,1-3.211,4.9c-1.94.975-2.357,2.023-1.781,4.113,1.173,4.249,3.659,7.222,8.157,8.167a9.718,9.718,0,0,1,1.4.327c.79.294.9,1,.166,1.4a6.366,6.366,0,0,1-4.387.735,12.792,12.792,0,0,1-9.877-10.764c-.3-2.7-.6-5.4-.873-8.1A4.892,4.892,0,0,1,217.5,382.1a36.616,36.616,0,0,1,10.25-2.635c6.034.008,11.264,3.593,13.139,8.548a6.3,6.3,0,0,1,.5,2.086A1.548,1.548,0,0,1,240.226,391.713Zm20.639-30.575a114.635,114.635,0,0,0-2.976-14.378,44,44,0,0,0-6.2-13.269c-.548,1.628.151,3.066.43,4.542.312,1.648.762,3.276.985,4.935a17.38,17.38,0,0,1,.453,5.034c-1.215-1.723-1.193-3.752-2.45-5.557-.588,1.3-.03,2.4-.253,3.641-1.054-.782-1.129-1.859-1.474-2.743-.434-1.113-.923-2.031-2.294-2.076-1.222-.041-1.768-.908-2.256-1.877a44.03,44.03,0,0,0-14.511-16.31,38.51,38.51,0,0,0-10.062-4.972,6.648,6.648,0,0,0-.908-.3.817.817,0,0,0-.99.463c-.2.47.091.766.463.95.354.174.749.261,1.121.4a29.067,29.067,0,0,1,16.568,14.788,75.269,75.269,0,0,1,3.185,8.014,5.632,5.632,0,0,1,.287,1.161.809.809,0,0,1-.607.906.774.774,0,0,1-1.024-.361c-.679-1.445-1.39-2.88-1.967-4.367a30.269,30.269,0,0,0-3.806-7.708,5.12,5.12,0,0,0-1.7-1.655,1,1,0,0,0-1.308.147c-.475.515-.04.826.282,1.185a21.85,21.85,0,0,1,3.886,7.1c.057.149.13.293.173.446a.882.882,0,0,1-.475,1.192.791.791,0,0,1-1-.433c-.629-1.018-1.224-2.059-1.808-3.1a15.339,15.339,0,0,0-11.2-8.193,23.16,23.16,0,0,0-8.351-.054,1.732,1.732,0,0,1-1.169,0c-.04-.142-.158-.324-.109-.416.345-.636,1.569-1.031.847-1.939-.577-.725-1.554-.179-2.253.053-2.855.948-5.119,2.906-7.5,4.644a4.688,4.688,0,0,1-2.551,1.3,3.364,3.364,0,0,1,1.164-2.6,18.042,18.042,0,0,1,15.416-6.774c.8.029,1.6.075,2.4.082.5,0,1-.128,1.058-.726a1.073,1.073,0,0,0-.782-1.09,5.96,5.96,0,0,0-1.154-.3,17.247,17.247,0,0,0-7.366-.342,3.314,3.314,0,0,1-.473.08c-.5.038-1.006,0-1.152-.582-.141-.563.211-.9.72-1.044.537-.153,1.086-.266,1.632-.389a4.44,4.44,0,0,0,3-1.834,3.649,3.649,0,0,1,3.8-2.092.694.694,0,0,0-.335-.79c-1.61-1.154-1.616-1.335.092-2.373a3.748,3.748,0,0,0,1.583-1.346c.846,1.408,2.342,1.445,3.713,1.63,1.342.181,2.715.122,4.066.255a28.238,28.238,0,0,1,13.742,5.221c12.327,8.751,19.577,20.591,21.494,35.641a43.968,43.968,0,0,1,.447,6.213A2.464,2.464,0,0,1,260.865,361.138Zm68.385-18.1c-.849-.477-1.336.1-1.775.7-.7.969-1.379,1.96-2.094,2.922-.415.558-.932.909-1.625.406-.627-.455-.346-.941-.056-1.458a85.869,85.869,0,0,1,11.919-16.168,16.44,16.44,0,0,1,5.744-3.838c5.949-2.541,12.066-4.2,18.617-3.7.529.041,1.106-.112,1.63.4-.49.878-1.36.625-2.1.715-8.91,1.078-16.847,4.234-23.141,10.872a4.7,4.7,0,0,0-1.558,2.434c1.754-.787,2.715-2.252,4.05-3.2a40.872,40.872,0,0,1,4.431-2.852,27.758,27.758,0,0,1,4.828-2.1c1.6-.493,3.2-1.006,4.841-1.346,1.717-.357,3.473-.523,5.213-.762a27.533,27.533,0,0,1,5.268-.127,49.767,49.767,0,0,1,5.244.541,45.662,45.662,0,0,1,5.139,1.15,42.252,42.252,0,0,1,4.972,1.731,34.774,34.774,0,0,1,4.465,2.306c1.5.914,2.908,1.975,4.321,3.02s2.759,2.135,4.136,3.207c-.085.206-.169.413-.254.62-13.558-7.328-27.546-6.368-41.831-2.22.864-1.587,1.158-1.794,5.667-3.808,2.076-.928,4.182-1.788,6.567-2.8a2.331,2.331,0,0,0-2.452-.292,47.692,47.692,0,0,0-7.663,2.74,61.576,61.576,0,0,0-21.872,16.409,8.293,8.293,0,0,1-.612.73c-.167.157-.418.325-.636.116a.842.842,0,0,1-.3-.58,17.145,17.145,0,0,1,1.214-3.875C329.831,344.24,330.109,343.525,329.25,343.042Zm-.833,17.126a16.671,16.671,0,0,1,4.332-8.391,2.6,2.6,0,0,1,1.4-.871.9.9,0,0,1,.942,1.238,3.25,3.25,0,0,1-.561.767,24.421,24.421,0,0,0-4.883,8.44,5.014,5.014,0,0,1-.428.838c-.026.045-.144.037-.417.1A2.672,2.672,0,0,1,328.417,360.168Zm15.851,40.9c-.481-.066-.976-.3-1.023-.846-.054-.629.516-.715.968-.824.619-.149,1.27-.19,1.868-.393a11.443,11.443,0,0,0,7.451-12.316,10.243,10.243,0,0,0-8.458-8.081,3.161,3.161,0,0,0-3.751,2.242,11.674,11.674,0,0,0-.419,1.371,6.181,6.181,0,0,1-4.442,4.582c-2.626.788-3.137,1.817-2.539,4.485.018.078.04.155.065.231.222.662.737,1.433.009,1.967-.8.586-1.485-.126-2.139-.555a2.353,2.353,0,0,1-1.179-1.454c-.578-2.974-1.631-5.856-1.726-8.924-.161-5.221,2.064-7.455,7.346-7.363a24.464,24.464,0,0,0,5.453-.707,13.752,13.752,0,0,1,14.562,7.419,13.9,13.9,0,0,1-3.054,16.075,11.879,11.879,0,0,1-7.083,3.189A8.438,8.438,0,0,1,344.268,401.067Zm19.75-12.254c.21,7.024-5.723,15.115-12.461,17.02a1.738,1.738,0,0,1-1.6-.015c.027-.872.812-.927,1.323-1.2,6.431-3.441,10.039-8.861,11.282-15.964.114-.656-.093-1.758.841-1.675C364.28,387.057,364,388.145,364.018,388.813Zm17.71-10.313c-.528-.361-1.08-.69-1.582-1.085-.6-.468-1.668-.617-1.562-1.6.1-.959,1.2-.535,1.757-.927a4.479,4.479,0,0,0,.4-.379c-1.525-1.651-3.829-2.094-5.852-3.627,2.628-.444,4.579.967,7.042,1.272A6.731,6.731,0,0,0,379.2,369.5c-1.028-.734-1.883-1.4-1.347-2.905.357-1-.324-1.587-1.254-1.977a7.029,7.029,0,0,1-2.652-1.1,10.455,10.455,0,0,1,6.435-.366c1.979.507,3.939,1.093,6.086,1.694-.16-1.287-1.072-1.559-1.764-1.958a31.8,31.8,0,0,0-12.952-3.986c-1.164-.115-2.332-.19-3.94-.318,1.116-.822,2.029-.616,2.815-.841.382-.109.779-.262.794-.76a.7.7,0,0,0-.538-.706c-3.659-1.016-7.124-2.965-11.144-2.254a7.27,7.27,0,0,1-3.063-.13c4.626-3.049,9.687-2.732,14.841-3.057-.417-.53-.528-.826-.7-.868a26.936,26.936,0,0,0-9.479-1.012,11.355,11.355,0,0,0-5.362,1.935c-2.392,1.711-5.2,1.82-8.138,2.514.393-1.155,1.245-1.313,1.857-1.706,1.584-1.018,3-2.147,3.384-4.134a2.059,2.059,0,0,1,1.392-1.518c.368-.155.744-.293,1.108-.457.558-.252,1.428-.406,1.073-1.248-.32-.761-1.116-.4-1.7-.238a38.254,38.254,0,0,0-8.856,3.6,33.785,33.785,0,0,0-11.253,10.584c-.36.533-.636,1.642-1.437,1.212-1.076-.577-.1-1.41.23-2.02,4.824-8.882,12.133-14.216,22.254-15.535a9.448,9.448,0,0,0,3.318-.594,13.423,13.423,0,0,0-7.222-.018,37.659,37.659,0,0,0-7.091,2.149c-.423.178-.873.634-1.191-.032-.273-.574.269-.838.643-1.114a4.661,4.661,0,0,1,.632-.339,35.854,35.854,0,0,1,26.047-3.137c7.483,1.877,12.62,6.9,16.3,13.53.016.03-.066.116-.122.207-.876.355-1.254-.474-1.778-.854a24.293,24.293,0,0,0-8.778-4.262c-.623-.144-1.623-.647-1.9.187-.311.947.869.942,1.44,1.2a29.669,29.669,0,0,1,13.249,12.1,68.254,68.254,0,0,1,8.163,22.146,130.434,130.434,0,0,1,1.854,14.978,2.948,2.948,0,0,1,.021.478c-.047.6.305,1.449-.538,1.63s-.908-.75-1.185-1.27c-.788-1.48-1.587-2.961-2.261-4.5A37.516,37.516,0,0,0,381.728,378.5Zm25.05,124.4a61.371,61.371,0,0,1-6.367,21.2c-.146.293-.332.527-1.031.71a101.665,101.665,0,0,0,5.481-18.4,89.445,89.445,0,0,0,1.351-18.83,132.175,132.175,0,0,0-2.263-18.969,13.484,13.484,0,0,1,1.389,4.514c.332,1.56.665,3.126.864,4.706A108.832,108.832,0,0,1,406.778,502.9Zm-4.471-11.885c-.043-2.152-.166-4.3-.2-6.454s-.008-4.277-.008-6.416l.581.035a69.684,69.684,0,0,1-.451,25.645c-.524-2.051.158-4.072.139-6.112C402.345,495.483,402.352,493.25,402.307,491.018Zm10.867-14.269a11.765,11.765,0,0,0-.744-3.206,12.6,12.6,0,0,1-.236-2.121,154.469,154.469,0,0,0-6.9-26.113c-2.393-6.532-3.9-13.329-5.692-20.036a96.471,96.471,0,0,0-6.449-18.009,17.991,17.991,0,0,1-.787-1.984c-.041-.115.09-.29.2-.6,1.638.542,2.28,2.312,3.818,3.189a2.546,2.546,0,0,0-.749-2.646c-2.574-2.784-2.472-6.256-2.743-9.628a1,1,0,0,1,1.351.256,14.538,14.538,0,0,1,1.848,2.563c3.783,6.588,5.3,13.826,6.8,21.071.259,1.251.489,2.509.792,3.749a14.032,14.032,0,0,1,.472,5.4,19.962,19.962,0,0,0,.251,7.622c2.1,8.429,4.674,16.738,6.394,25.262.634,3.144,1.308,6.282,1.821,9.448.427,2.635.87,5.268,1.386,7.887a48.4,48.4,0,0,1,1.107,9.291C414.518,484.34,413.42,480.607,413.174,476.749Zm5.075-35.189a.805.805,0,0,1-.629-.176,4.783,4.783,0,0,1-.528-1.05,99.9,99.9,0,0,1-4.2-11.211c-.086-.306-.226-.6-.324-.9-.1-.321-.267-.6-.631-.61-.4-.012-.464.343-.592.633-.179.4.187.978-.53,1.331a29.128,29.128,0,0,1-1.57-5.962,217.1,217.1,0,0,1-4.974-36.047,83.916,83.916,0,0,0-8.652-33.657,36.939,36.939,0,0,0-4.588-7.287,1.325,1.325,0,0,1-.4-1.367,19.145,19.145,0,0,1,5.45,4.833,30.648,30.648,0,0,1,4.927,8.731c2.58,6.686,3.711,13.7,4.8,20.734,1.113,7.182,1.781,14.434,3.346,21.546.1.44.011.985.917,1.3.278-3.15-.776-6.19-.306-9.234a50.445,50.445,0,0,1,1.739,12.726c-.035,2.269.076,4.486,1.474,6.417a2.668,2.668,0,0,1,.28,1.847,10.66,10.66,0,0,0,.674,4.474,43.2,43.2,0,0,1,2.582,10.916c.394,3.4,1.29,6.742,1.957,10.111a12.176,12.176,0,0,1,.2,1.41A.464.464,0,0,1,418.249,441.56Zm8.708,13.114c-4.74-10.737-5.973-22.246-8.064-33.542,3.033,10.885,5.523,21.909,8.56,32.791C427.515,454.145,427.442,454.371,426.957,454.674Zm43.471-14.166q-.924-8.082-1.85-16.166A33.119,33.119,0,0,1,470.428,440.508ZM462.336,401.7q2.8,5.492,5.6,10.983a1.732,1.732,0,0,1,.149.451.964.964,0,0,1-.526,1.195c-.765.337-.938-.31-1.194-.783a51.062,51.062,0,0,1-4.083-9.647,7.293,7.293,0,0,1-.51-2.013ZM451.1,419.062a2.667,2.667,0,0,1,0,1.876Zm-16.678,47.722c.442-2.37.016-4.772.373-7.153a51.833,51.833,0,0,0,2.311,12.333C434.888,470.568,434.027,468.874,434.417,466.784Zm11.5,2.9a10.982,10.982,0,0,1-1.117,3.15,5.987,5.987,0,0,0-.617,3.713c.176,1.277-.223,1.568-1.411,1.206A3.853,3.853,0,0,1,440,473.1c.279-1.065.139-2.422,1.506-3.237.614.893.233,1.75.217,2.559-.013.674-.447,1.661.417,1.864.937.221.937-.827,1.087-1.486,1.59-7.011,3.25-14.007,4.735-21.04a141.2,141.2,0,0,0,3.2-26.621c.01-.514-.189-1.12.58-1.663.12,3.569.4,7,.313,10.412-.121,5.033-.462,10.061-.776,15.087a19.624,19.624,0,0,1-1.719,6.7,18.564,18.564,0,0,0-1.578,9.342,8.8,8.8,0,0,1-.571,4.673c-.7.043-.305-.924-.893-.9C445.959,468.816,445.976,469.332,445.912,469.686Zm4.136,6.23a6.877,6.877,0,0,1-2.934,2.388.639.639,0,0,1-.835-.252.882.882,0,0,1,.01-.667,7.593,7.593,0,0,1,.487-.823A85.912,85.912,0,0,0,456.694,445c1.633-13.633.182-27.1-2.153-40.522a5.679,5.679,0,0,1-.082-2.9,125.008,125.008,0,0,1,3.069,14.341,119.921,119.921,0,0,1,1.518,24.118,98.366,98.366,0,0,1-5.267,28.394A29.135,29.135,0,0,1,450.048,475.916ZM570.17,531.928a35.452,35.452,0,0,0-.531-8.921,19.405,19.405,0,0,0-3.9-8.2,1.383,1.383,0,0,0,.034,1.573c2.348,5.632,2.411,11.486,1.709,17.415a1.6,1.6,0,0,1-.444,1.175c-.987-1.2-1.95-2.41-2.951-3.585a18.676,18.676,0,0,0-1.735-1.811,1.318,1.318,0,0,0-1.557-.277c-.516.3-.425.891-.366,1.412.127,1.109.585,2.148.626,3.284a5.839,5.839,0,0,1-.442,2.676,24.78,24.78,0,0,1-4.661,6.77l-2.718,2.916a16.2,16.2,0,0,0,.1-5.844c-.071-.392-.141-.785-.233-1.172-.156-.656-.235-1.384-1.106-1.513a1.837,1.837,0,0,0-1.926.933,27.067,27.067,0,0,1-5.77,6.513,13.545,13.545,0,0,1-3.9,2.46,30.209,30.209,0,0,0,2.357-4.354,16.806,16.806,0,0,0,.594-10.674,36.172,36.172,0,0,1-1.083-11.5c.1-1.069.259-2.133.4-3.315a19.226,19.226,0,0,0-2.3,4.2c-.529-3.093-1.264-5.781-1.455-8.573a15.083,15.083,0,0,0-1-4.9,2.75,2.75,0,0,0-.882-1.344c.479,1.983-.387,3.628-1.082,5.522a17.971,17.971,0,0,0-3.875-6.537c-1.73-1.732-3.43-3.525-5.79-4.487a60.5,60.5,0,0,1,5.143,7.841c-1.347-.454-2.113-1.442-3.551-2a52.13,52.13,0,0,1,10.234,17.707,53.329,53.329,0,0,0-4.694-3.869c3.3,4.8,5.834,9.594,5.864,15.336A21.37,21.37,0,0,1,533.727,552a28.816,28.816,0,0,0,.127-5.424,2.907,2.907,0,0,0-.04-.714c-.1-.325-.151-.811-.609-.754s-.255.515-.265.8a17.4,17.4,0,0,1-4.236,11.3,15.367,15.367,0,0,1-1.184,1.183c-.289.264-.62.481-1.133.871.484-2.332.921-4.445,1.36-6.557.049-.234.124-.464.16-.7.054-.365.078-.758-.338-.926-.446-.179-.722.07-.981.44-2.078,2.975-4.837,5.287-7.509,7.687-.659.592-1.084.5-1.8.006a13.966,13.966,0,0,1-5.981-8.634,18.274,18.274,0,0,0-.817-2.243c-.114-.3-.226-.647-.637-.585-.514.078-.424.5-.4.851.256,3.663,1.15,7.08,3.826,9.8.131.133.252.277.591.65-3.58-.509-6.9-.79-9.787-2.721-2.466-1.652-2.886-4.191-2.839-6.853.068-3.822,1.741-7.159,3.394-10.486.489-.984,1-1.958,1.41-3-1.893,1.085-3.133,2.829-4.6,4.5a19.283,19.283,0,0,1,3.069-11.918,34.631,34.631,0,0,0,3.142-5.737,46.213,46.213,0,0,0-6.04,5.111c1.058-8.186.533-15.93-3.808-23.195.257,2.7.541,5.27.737,7.844a55.091,55.091,0,0,1,.252,8.027,12.329,12.329,0,0,0-3.942-3.3,14.562,14.562,0,0,1,2.787,6.395c.513,3.469.85,6.965,1.211,10.454a44.971,44.971,0,0,1,.2,4.877,27.485,27.485,0,0,0-4.19-5.829c.907,3.1,1.736,6.019,2.63,8.92a5.077,5.077,0,0,1,.18,2.337,14.55,14.55,0,0,0,2.909,11.828,4.173,4.173,0,0,1,.283.514,12.706,12.706,0,0,1-3.393-1.383,75.24,75.24,0,0,1-9.313-5.856c-.263-.181-.527-.362-.8-.525a1.2,1.2,0,0,0-1.35,0c-.509.337-.406.834-.267,1.3a23.537,23.537,0,0,0,1.522,3.33,42.216,42.216,0,0,1-5.661-4.533c-2.137-1.978-4.188-4.049-6.318-6.034a5.15,5.15,0,0,0-3.044-1.763c-1.406-.116-1.975.515-1.509,1.864.4,1.147.925,2.249,1.39,3.358a.423.423,0,0,1-.606-.108c-4.734-4.471-8.469-9.541-9.652-16.134a23.212,23.212,0,0,1-.276-5.6c.021-.318.072-.637.062-.954-.024-.716-.212-1.381-.986-1.611-.724-.217-1.215.232-1.615.758a10.686,10.686,0,0,0-1.177,2.212,33.392,33.392,0,0,0-2.2,7,7.4,7.4,0,0,1-.493-2.857c-.534-5.568-1.031-11.185.1-16.694,1.685-8.186,5.274-15.437,11.658-21.085.289-.255.79-.509.486-.941-.245-.345-.751-.159-1.12-.024a27.942,27.942,0,0,0-9.14,5.567c-1.062.958-2.112,1.929-3.189,2.914-.3-.359-.087-.633.008-.905,2.408-6.959,7.249-11.281,14.318-13.179,5-1.342,10.1-2.344,14.91-4.355a4.6,4.6,0,0,0,1.077-.588c-6.405,1.432-12.074-1.29-18.094-3.093a47.207,47.207,0,0,1,8.925-.342c4.148.125,8.291.383,12.437.578a7.22,7.22,0,0,1,2.3.618c6.23,2.462,12.524,2.231,18.756.2a74.847,74.847,0,0,1,19.737-3.456,85.7,85.7,0,0,1,16,.85c.135.019.326-.028.4.32-1.356.364-2.72.72-4.078,1.095a45.237,45.237,0,0,0-7.559,2.619c-.395.189-.774.412-1.152.634a.913.913,0,0,0-.532.983c.085.421.5.473.844.557a49.443,49.443,0,0,0,11.584,1.645c1.89.011,3.781,0,5.69.112a50.088,50.088,0,0,1-8.948,2.623c5.88,1.456,9.985,5.019,13.35,9.567,1.847,2.5,3.608,5.056,5.413,7.6.172-1.89-2.261-7.007-5.619-11.829,5.608.27,15.712,11.9,17.511,20.238-.747-.377-1.429-.731-2.12-1.066a.863.863,0,0,0-1.012,0,.918.918,0,0,0-.151,1.011,10.634,10.634,0,0,0,1.739,3.117,16.885,16.885,0,0,1,3.187,10.094A10.54,10.54,0,0,1,570.17,531.928Z"/></svg>