<svg id="e9d6ea16-9d5b-4349-84f7-410032a4b38b" data-name="Layer 1" xmlns="http://www.w3.org/2000/svg" viewBox="0 0 595.276 841.89" style="fill: #215342;" height="350" width="450" transform="translate(-110, -60)"><path d="M152.84,455.481l-8.124,2.285a25.676,25.676,0,0,1,7.268-8.825c1.611-1.322,4.981-1.6,4.692-3.7-.2-1.469-3.663-.618-5.557-1.314-.2-.073-.386-.188-.789-.389,3.929-4.736,9.17-7.782,14.492-11.811-3.14-.24-5.668-.648-7.607-2.512,3.64-1.357,6.284-.647,14.719,3.965-1.287,1.187-3,.746-4.439,1.256-1.452.516-2.886,1.08-5.247,1.97,5.745.1,9.868-2.385,14.516-3.1-2.651-2.174-6.108-2-9.066-3.554,1.924-2.532,5.156-1.853,8.077-3.281l-13.581-3.335c8.874-4.149,17.977-5.558,25.449-10.834-9.654,3.04-19.319,6.032-29.031,10.187l9.849,4.372c-2.275,1-4.3,2.191-6.427-.338-1.816-2.163-5.023-2.362-7.643-4.144l7.813-3.6c-6.062-1.907-11.463-3.832-16.2-7.781l5.138-3.234c-9.611-4.5-14.465-12.8-18.931-21.48,3.535,3.634,8.186,5.948,11.208,10.192a11.4,11.4,0,0,0,11.4,5.035,20.6,20.6,0,0,1-11.685-8.324c3.355-.215,6.425.478,9.178-1.046,1.416-.726.281-1.371-.2-1.66-6.9-4.109-10.206-11.263-14.773-17.342-.151-.2-.019-.613-.019-.876.989-.54,1.66.927,2.726.2-1.257-1.456-2.523-2.867-3.726-4.33-1.516-1.845-1.671,2.351-3.116.675-.532.763.014,1.286.444,1.79,6.15,7.2,9.337,16.969,18.585,21.491-6.246-.271-10.622-3.39-13.98-8.569-3.788-5.842-7.392-11.77-10.975-18.414l5.039,1.856c-4.055-7.355-6.206-14.8-7.852-23.178,2.1,2.127,3.225,4.265,5.677,5.481-5.775-9.029-6.656-18.915-6.371-29.062.747,3.66,1.553,7.309,2.222,10.984a45.587,45.587,0,0,0,3.338,10.781,95.777,95.777,0,0,1-2.785-43.77c.446,9.88-.636,19.865,2.034,29.6-.712-10.315.021-20.587.99-30.834,1.728-18.282,4.912-36.275,11.389-53.551a30.726,30.726,0,0,1,4.98-8.974c3.834-4.626,8.293-5.759,13.783-3.264,6.654,3.023,11.348,8.445,16.023,13.915q-3.81-2.923-7.622-5.846a36.675,36.675,0,0,0-9.084-5.486c-5.076-1.936-8.812-.644-12.062,4.316,5.52-5.845,10.919-3.5,16.246.015a59.5,59.5,0,0,1,10.518,8.314c12.937,13.587,27.463,25.417,41.5,37.794a100.881,100.881,0,0,1,18.36,21.329c.328.512.451,1.243,1.585,1.451-7.026-14.951-19.01-25.261-30.732-35.862a81.2,81.2,0,0,1,14.519,10.2c4.532,3.773,8.625,8.022,12.859,12.291l-8.938-15.527a45.336,45.336,0,0,1,14.228,13.25c3.811,5.3,5.615,11.584,8.643,17.284.332-3.414-2.408-6.01-2.357-9.834,3.346,4.086,5.3,8.8,10.1,11.531a15.534,15.534,0,0,0-.676-7.7,22.707,22.707,0,0,1,2.3.861c5.523,2.919,6.548,3.143,12.262,3.23a8.888,8.888,0,0,0,5.777-1.626c3.125-2.3,6.869-2.022,11.006-1.8l-2.848-3.811c7.492,1.918,15.073,3.194,21.889,7.433-.661-1.994-2.451-2.518-3.9-3.4-1.431-.867-3.332-.668-5.135-2.36,3.827-.059,6.743.824,9.225,2.871,1.245,1.027,1.691,1.034,2.758-.382,3.075-4.081,6.991-6.915,12.984-6.692-2.187,2.943-5.272,4.737-6.6,8.319,7.353-3.417,15.648-3.742,22.442-9.039-.676,3.266-2.551,5.4-4.2,7.655l.141-.094-5.226,3.08c4.031-1.221,8.87-.32,11.643-4.437l.248-.149c4.781-2.355,5.625-7.191,7.334-11.564,1.158.62.44,2.25,1.509,2.949,1.55-3.142,3.378-6.063,6.378-8.1-3.931,6.271-6.367,13.275-9.9,19.742,3.226-3.306,4.889-7.612,7.234-11.474a91.691,91.691,0,0,1,8.26-11.805c3.055-3.612,6.778-6.414,9.974-10l-6.649,4.305c7.23-8.824,16.881-15.477,21.961-26.083-2.988,3.46-5.855,7.033-9,10.347a129.935,129.935,0,0,1-10.209,9.5c4.8-6.26,10.131-12.056,14.639-18.519,7.423-10.642,13.272-22.223,20.033-33.257a54.274,54.274,0,0,1,5.209-7.252c2.338-2.693,5.116-4.923,8.706-5.651-9.667.647-12.109,9.393-17,15.589.7-8.833,9.254-17.953,16.524-17.847A13.576,13.576,0,0,1,421,206.6c7.9,6.329,12.916,14.845,17.4,23.652,8.8,17.285,13.611,35.878,17.338,54.784,1.038,5.262,2.543,10.468,2.108,16.71,1.092-2.753-.146-5.1,1.392-6.925l-.085-.105c-.29,4.23,1.539,8.068,2.332,12.093a112.182,112.182,0,0,1,2.153,18.41c1.373-14.136,2.22-28.263-.13-42.415,3.423,8.405,4.273,17.294,5.072,26.179.814,9.061-.74,18.062-.872,27.108,1.973-6.576,2.006-13.361,2.37-20.142,6.735,20.111,9.74,40.281.748,60.991,1.819-.2,2.674-1.353,3.716-2.038a23.09,23.09,0,0,0,2.808-2.568c1.208,6.827-7.687,19.43-16.736,23.889h-6.234c7.754-4,14.384-8.856,18.283-16.78A64.976,64.976,0,0,1,449.414,396.1c4.457.275,7.786,2.589,11.113.016,3.146.859,6.18-1.351,9.609-.306-1.83,3.1-5.333,4.138-7.446,6.666-3.781,1.935-8.152,1.766-12.06,3.37a33.393,33.393,0,0,0,7.833-.25c2.921-.566,6.2-.441,8.383-3.111,3.274-.832,5.891-2.8,8.43-5.088.259,6.935-6.961,15.469-14,16.755,3.147-3.815,8.3-5.99,10.058-12.256-3.693,2.969-5.084,6.658-8.158,8.868-3.116,2.241-6.647,3.422-10.5,4.544,2.965.933,5.471-.185,8.039-.484,3.263.6,6.877-.865,9.7,2.018-1.57,1.813-4.313,2-6.719,3.322,1.937,1.378,3.813,2.629,5.593,4a26.783,26.783,0,0,1,4.726,4.541c-3.381.733-5.623-2.188-8.865-1.823,10.9,12.038,18.856,25.733,24.858,40.664-3.246-3.366-6.316-6.789-10.449-8.827,2.227,9.919,8.071,18.175,12.827,27.238-3.732.2-6.618-2.349-11.123-2A39.979,39.979,0,0,1,496.13,496.2l-10.817-3.493-.247.471c1.559,1.207,3.072,2.479,4.685,3.609,9.5,6.658,12,15.795,9.208,26.616-.574,2.225-.038,2.765,1.9,3.283A64.27,64.27,0,0,1,509.3,529.5c9.558,4.028,13.4,10.008,13.085,20.38-.184,5.972-.745,11.941-2.713,17.623-.743,2.147-.264,2.629,1.791,2.547a44.992,44.992,0,0,1,6.884.238c-3.334,1.339-7.057.1-10.356,2.226l33.986,1.156.027.8-35.461,1.1.008.65h28.488l.044,1.039-31.13,1.278-.009.371,27.153,1.068c-9.616.936-19.251,1.147-28.895,1.36,21.247,1.643,42.58.582,63.835,2.417l-82.272,1.732.017,1.072c19.157,1.361,38.406.026,57.556,1.6-62.782,1.788-125.587,2.061-188.377,3.4,50.94,1.2,101.874,1.8,152.8,3.4-53.134,1.346-106.259,2.678-159.411,3.231,41.839,2.052,83.717,2.371,125.584,3.246-44.323,1.75-88.682,1.675-133.034,1.874l0,1.274,100.262,1.591q.007.5.017,1c-4.895,0-9.791-.039-14.685.007q-43.27.4-86.54.833c-2.242.021-4.471-.006-6.37,1.639,8.162.588,16.344.135,24.253,1.5-10.506.707-21.322-.381-31.813,2.913l68.083,1.7c-66.008,2.985-132.008,2.585-198.009.267,25.673-.395,51.313-2.017,77.022-2.113-11-4.168-22.612-1.514-33.87-2.886,7.86-.52,15.716-1.06,24.272-.884-2.27-2.09-4.416-2.055-6.549-2.076q-46.027-.448-92.056-.891c-5.392-.05-10.784-.007-16.176-.007v-.887l101.549-1.789c-1.767-1.72-3.668-1.282-5.4-1.29-23.907-.108-47.815-.038-71.72-.295-21.365-.23-42.726-.812-64.09-1.421,43.009-.913,86.036-1.021,129.005-3.337-54.912-.48-109.795-1.771-164.676-3.252,52.412-1.706,104.833-2.246,157.274-2.868a17.973,17.973,0,0,0-7.258-1.261c-29.882-.252-59.766-.395-89.646-.783q-48.777-.633-97.562-1.894c15.334-1.272,30.758-.36,46.233-1.617-1.278-1.623-3.046-1.235-4.639-1.242-21.262-.094-42.51-.807-63.76-1.427A2.953,2.953,0,0,1,20,583.075l59.528-1.518.007-.83H46.893l0-1.328H75.022l.008-.914c-11.031-.438-22.09-.45-33.048-2.261H73.3c-12.508-1.693-25.127-1.036-37.641-2.57l36.311-1.228.105-.836c-4.775-.582-9.725.054-14.391-1.556H70.89c-2.369-6.825-4-13.416-2.969-20.437,1.85-12.593,9.088-20.689,20.7-25.177a17.669,17.669,0,0,0,5.468-3.343c5.807-5.113,12.967-5.979,20.324-5.845a36.765,36.765,0,0,1,11.1,2.07c4.34,1.463,5.438.977,7.072-3.1,2.459-6.14,6.843-10.749,12.34-15.352a44.371,44.371,0,0,0-15.7,7.425c6.017-13.49,14.914-24.514,27.456-32.611a86.013,86.013,0,0,0-17.373,5.231c4.082-6.194,10.066-10.163,16.03-14.233-5.062.568-9.657,2.559-14.891,4.495,2.416-6.566,8.215-9.417,12.3-13.766,4.267-.516,7.076-4.105,11-5.443l-7.978,2.242c5.083-4.831,11.93-5.076,17.958-7.6-4.187.464-8.322-3.335-13.112.111,2.951.765,5.347-.861,8.278.3-7,1.566-13.691,2.635-18.381,8.221,1.732.8,3.311-1.424,4.954.056ZM178,321.038l-.922-.521c.072-5.11-5.043-6.7-7.118-10.5a54.765,54.765,0,0,1,5.2,1.768c1.459.481,2.943.514,4.062-.905,1.068-1.354.069-2.371-.537-3.422-.8-1.393-1.743-2.707-2.509-4.118-.281-.517-1.452-1.448.147-1.749,1.831-.344,1.117-1.432.772-2.309-.544-1.385-1.229-2.717-1.9-4.05-.425-.85-.926-1.729.04-2.461.817-.62,1.49.124,2.178.49,2.2,1.166,3.416,3.687,6.5,4.627-2.34-4.021-5.348-6.785-8.175-9.7-2.9-2.993-6.586-4.99-9.748-7.682a37.284,37.284,0,0,1,17.1,10.271c16.68,17.479,22.437,38.228,17.719,61.808-.892,4.455-.586,9.359-4.2,13.207-.884.941.115,3.8,1.409,6.242,5.52-12.006,10.849-23.353,11.06-37.094,2.267,5.963,2.85,11.525,3.351,17.983,4.865-12.7,6.8-24.764,3.5-38.054-1.257,5.468-.686,10.5-2.238,15.258-.479-11.538-2.118-22.782-7.527-33.165a31.887,31.887,0,0,1-1.179-3.01c-.6,1.8,1.037,3.07,0,4.725a118.319,118.319,0,0,0-11.042-20.035c.589,3.187,2.2,6.091,2.393,10.23-1.592-3.475-2.771-6.195-4.076-8.853s-2.7-5.3-4.136-7.9a33.33,33.33,0,0,0-5.16-7.769c1.33,4.309,3.688,7.055,5.206,10.235,2.063,4.322,2.772,6.983,2.332,10.094-1.588-4.395-3.228-8.529-6.286-12.146-.519,1.722.278,3.255-.663,4.881l-8.805-12.133c.526,3.716,1.917,7.122,2.127,11.558-.654-1.533-1.018-2.36-1.362-3.195-2.912-7.054-6.476-13.667-12.4-18.733-4.766-4.074-10.422-3.883-14.7.638-3.32,3.508-5.081,7.909-6.407,12.413-5.671,19.262-8.06,38.977-8.353,59.038-.255,17.51,4.931,32.915,16.265,46.248,1.481,1.742,3.057,3.4,4.589,5.1-.363-2.42-2.436-4.215-1.191-6.715,4.591,3.306,5.964,8.911,9.067,13.393.9-1.78-.949-3.208-.052-4.823,2.361.453,3.746,2.269,5.762,3.581.525-3.924-1.6-6.993-2.5-10.863a39.4,39.4,0,0,0,3.223,3.448c2.808,2.323,5.449,5.021,9.333,5.466,1.309.151,2.935.516,3.646-1.109a2.767,2.767,0,0,0-1.367-3.545c-6.507-4.054-5.729-12.092-10.472-17.65,2.63.323,2.607,2.9,4.42,3.181.7-1.069-.068-1.627-.483-2.265a52.455,52.455,0,0,0-6.112-7.888c-.615-.637-1.4-1.41-1.02-2.392.348-.906,1.415-.78,2.137-.706,2.994.3,2.039-1.132,1.087-2.431a30.859,30.859,0,0,0-6.132-5.759,11.67,11.67,0,0,1,1.572-.2c4.564.269,4.564.273,3.2-4.159-1.58-5.147-1.3-5.8,4.238-7.38,2.24-.639,2.38-1.624,1.517-3.466-1-2.132-2.11-4.267-2.009-6.726,1.761-.028,2.886,2.228,4.808,1.066l.942.569.015.175S178.014,321.03,178,321.038Zm265.378,36.527c-1.549.736-1.3,2.329-1.73,3.633,5.465-3.754,9.874-8.265,11.352-15a30.107,30.107,0,0,0,4.2-11c-.136-6.575,1.506-13.143.111-19.731-.71,4.728.147,9.651-2.081,14.19a64.717,64.717,0,0,0,.178-9.141c-.534-12.871-4.27-25-8.28-37.08-3.856-11.619-7.434-23.343-13.527-34.072-2.908-5.121-6.222-9.923-10.987-13.533-3.644-2.761-7.463-3.185-10.9-.9a11.523,11.523,0,0,1,10.755,2.154c8.028,6.359,11.755,15.381,15.136,24.589a15.756,15.756,0,0,1-1.83-2.88c-3.485-6.373-7.395-12.427-12.968-17.231-4.982-4.295-10.252-4.668-15.271-1.063-.446.321-.8.942-1.44.659-.793-.353-.685-1.152-.566-1.807.425-2.346,1.662-4.516,1.758-7.683-2.227,4.7-3.279,9.039-4.79,13.212-1.517,4.191-1.963,8.533-4.4,12.69a92.587,92.587,0,0,0-12.633,50.64c.269,8.349,4.909,14.6,10.512,20.769.876-4.693.8-5.353-.461-10.278q-7.1-27.765,11.081-49.937c3.579-4.345,8.7-7.9,12.22-8.556A46.483,46.483,0,0,0,401.735,281.1c-.264.6-1.038,1.908-.369,1.921,3.327.065.948,2.131,1.082,3.1.144,1.039-.534,2.191-.937,3.584,1.9-1.689,2.8-3.891,4.9-4.889-.179,4.778.674,9.353-.319,14.448,6.63-4.877,10.556-12.167,18.689-13.753-2.375,2.617-5.16,4.8-7.092,7.8a26.328,26.328,0,0,0-4.279,9.593l7.246-5.642c1.5,12.4,3.243,18.348,7.338,25.136,2.858-2.208,3.472-1.9,4.354,1.614.788,3.14.459,6.524,2.308,10.615.749-1.575,1.2-2.523,1.91-4.02a11.382,11.382,0,0,1,1.019,2.455c.351,8.546.674,17.1-5.6,24.108-.381.425-.674.929-1.029,1.379-.769.975-1.19,2.09-.439,3.163.828,1.182,2.031.825,3.1.271a23.841,23.841,0,0,0,3.256-1.889c3.49-2.589,6.261-5.9,9.434-10.088-.8,3.333-2.783,5.19-3.064,7.7Zm-190.4,90.4-1.3-2.558c-4.272-10.6-18.606-14.353-27.719-7.261-11.22,8.731-9.962,28.963,2.4,36.054,12.741,7.309,24.74,1.062,31.245-11.488a3.274,3.274,0,0,0,.115-2.69C256.176,455.986,254.564,451.98,252.977,447.964Zm-39.919-44.58c.062.325-1.064,1.227.245.887a19.094,19.094,0,0,0,3.643-1.848c6.115-3.148,12.459-5.55,19.427-5.947-3.6,1.554-7.464,2.546-10.868,4.952,1.2.663,1.865-.941,2.794-.1-12.919,9.06-27.084,24.489-28.03,30.458,2.892-3.6,5.76-7.327,8.794-10.911a85.98,85.98,0,0,1,10.088-10.026c-.158,1.359-1.06,1.772-1.664,2.366a83,83,0,0,0-15.9,21.893c-3.159,6.241-5.878,12.689-6.048,19.855-.085,3.564,1.631,4.578,4.784,2.892a17.735,17.735,0,0,0,6.369-5.678c2.709-3.977,5.193-8.109,7.947-12.053,9.043-12.948,24.528-15.221,35.668-5.212,4.672,4.2,6.981,9.824,8.877,15.659,1.375,4.228,2.082,8.712,4.494,12.552.67,1.066,1.307,2.96,2.788,2.45,1.453-.5,1.614-2.307,1.446-3.9-1.1-10.462-.287-20.84,1.37-31.186,1.033-6.445,2.421-12.885,1.334-19.469-3.332-20.179-23.566-28.847-39.067-27.86-1.056.068-1.053.115-1.08.63-.072,1.358-.279,1.711-1.5,1.968-2.857.6-5.765,1.022-8.633,2.637,3.206-.228,6.024-1.286,8.952-.9-6.847,2.481-14.836,7.046-18.611,11.169,7.22-3.882,13.914-6.876,21.553-6.3-.38.29-.849.26-1.229.429-4.189,1.855-9.25,1.768-12.54,5.62C216.579,399.978,214.248,401.061,213.058,403.384ZM473.6,560.958c1.03-1.147.631-3,1.905-4.046,1.168,9.691-1.175,18.279-7.772,25.541-1.155,1.272-.985,1.755.712,2.181a43.834,43.834,0,0,0,16.025.825c7-.821,10.806-4.452,12.318-11.262a63.333,63.333,0,0,0,.6-25.937c-.793-4.141-1.989-8.2-3-12.3a52.341,52.341,0,0,1,7.766,21.4c.992,7.815.638,15.416-2.453,23,5.944-.5,10.417-2.856,13.169-7.893a42.593,42.593,0,0,0,4.558-26.97c-1.174-8.246-6.71-13.052-14.649-13.834,1.493,2.5,3.712,4.614,3.932,8.162-7.876-9.9-15.412-19.658-30.425-14.382,2.034-1.912,4.319-2.49,6.579-3.243-7.73-4.516-17.5-3.722-25.071-1.443-4.334,1.3-8.7,2.463-13.366,2.4l7-3.261c-5.172-.793-9.727.225-14.264.65-6.993.656-13.813,2.383-19.393,7.034-14.7,12.251-19.186,28.74-19.193,47,0,3.215,2.2,4.81,5.079,5.011,4,.279,8.032.127,12.05.114,2.128-.007,2.727-.943,2.095-3.076-2.791-9.417-1.3-18.6,1.892-27.61,1.835-5.187,4.456-9.912,8.737-13.56-1.35,3.994-2.981,7.84-4.524,11.721a47.579,47.579,0,0,0-3.279,12.576c-.43,4.058-1.423,8.165.793,12.967-.939-7.455.038-13.795,3.13-19.776-.662,3.394-.542,6.835-.784,10.252a25.36,25.36,0,0,0,6.852,19.512,6.331,6.331,0,0,0,4.7,2.5c5.282.025,10.585.269,15.842-.107,7.815-.559,8.921-1.5,10.5-7.922a85.42,85.42,0,0,0,1.907-30.057c-.467-4.171-1.114-8.321-1.679-12.481l.877-.087a69.913,69.913,0,0,1,3.478,44.174c2.849-4.345,5.432-8.749,6.243-13.948Zm-385.5-21.085c-.118-4.032,1.643-7.754,2.148-11.772-9.746,2.419-17.766,12.716-18.529,23.667C71,562.2,76.65,574.708,82.813,576.283c-1.893-5.28-4.534-10.14-4.425-15.849.1-5.573,1.1-10.791,3.992-15.595-.906,5.988-2.115,11.921-1.37,18.069.594-7.669,2.406-14.9,7.147-21.12l1.738-2.2c-1.133,9.524-4.218,18.71-3.481,28.376a44.62,44.62,0,0,1,4.937-13.887c-.577,3.969-1.314,7.886-2.1,11.792-.805,3.99.086,8.1-.584,12-.457,2.664.729,3.584,2.4,4.386a20.835,20.835,0,0,0,19.491-.26c2.654-1.38,4.109-3.8,4.462-7.458-3.476,7.591-14.4,11.248-20.849,7.2,5.342.483,10.556.825,14.849-2.432,4.318-3.277,4.961-8.435,5.565-13.577.754,1.011-.036,2.226.89,3.082.935-6.918,1.645-13.813,4.327-20.331l.206,4.692c2.454-6.326,3.9-12.058,7.262-16.957-.848,4.618-1.956,9.154-2.934,13.718-1.952,9.1-3.51,18.246-2.415,27.614.378,3.228.92,4.067,2.976,5.1-4.485-11.092-.839-21.528,2.826-32.59a5.817,5.817,0,0,1,.027,3.944c-1.481,8.152-2.618,16.335-.933,24.587.447,2.19.975,4.734,3.721,5.265,8.892,1.717,17.424,1.39,24.486-5.3,8.694-8.243,11.167-18.569,10.084-30.149-.352-3.756-2.555-7.5-.559-11.433,7.289,12,7.76,24.193,1.7,36.647.215,1.832-1.863,2.176-2.318,3.573-3.662,5.458-2.927,6.838,3.946,7.349,1.028.076,2.169-.241,3.077.1,1.913.724,2.6-1.7,4.3-1.393,5.914,1.07,11.153-.125,15.059-4.991.848-1.056,2.313-.162,3.1-1.911a36.505,36.505,0,0,0,3.392-19.661c-1.178-10.141-6.366-19.117-7.7-29.34-1-7.656-11.324-11.85-20.455-10.159-2.084.386-4.069,1.354-6.357.78-15.517-3.9-29.588-.406-42.521,8.568-1.463,1.015-2.763,2.266-4.139,3.408a29.234,29.234,0,0,1,8.951-8.737,35.441,35.441,0,0,0-19.954-1.122C97.582,521.56,93.2,525.9,90.957,532.643,90.141,535.1,89.064,537.465,88.105,539.873ZM267.52,468.8c-4.84,2.126-7.763,6.29-10.845,10.27-.435.562-1.21,1.506-.137,2,.895.413,1.206-.783,1.723-1.332.674,1.231-.2,1.949-.941,2.645-5.561,5.222-9.132,11.954-13.706,17.924-.73.953-.729,3.749-3.455,1.575-1.029-.822-3.295-.07-5.011-.493-9.664-2.384-16.029-8.966-21.5-16.711-2.984-4.222-5.813-8.63-10.1-11.657-11.929-8.421-25.142-9.832-39.032-6.553-4.775,1.127-9.429,2.768-13.319,6,9.508-2.634,19.137-2.745,28.868-2.043-8.37,1.063-16.4,2.987-23.566,7.7-7.487,4.919-15.064,12.881-16.7,17.908,10.266-4.322,20.617-4.237,31.036-1.084-16.682,1.945-30.968,10.125-33.513,19.727a41.521,41.521,0,0,1,22.341-1.856c2.085.352,3.984,1.7,6.32.8,3.063-1.173,6.329-.96,9.539-.8,10.923.558,18.8,8.774,18.791,19.724a20.284,20.284,0,0,0,1.916,7.9c2.6,6.32,5.415,12.62,6,19.564.119,1.409.567,2.422,1.973,2.884,2.254.74,4.5,1.5,7.6,2.537-2.438-2.435-4.6-4.017-4.971-7.953,15.291,17.762,31.48,32.876,53.249,41.639-6.143-8.061-16.3-9.2-23.518-15.962,4.907,1.9,8.2,5.6,13.066,6.445-.093-1.436-.919-1.581-1.46-1.9-6.664-3.976-11.5-9.628-15.354-16.278-6.695-11.538-13.547-22.982-22.712-33.116l-4.934,8.16c-1.175-1.35-1.257-2.881-1.71-4.268-.458-1.406.372-3.12-1.032-4.66l-3.293,5.569c1.268-5.671,4.823-10.658,8.563-12.613.28,2.872-1.813,5.331-1.5,8.743,2.346-2.667,4.527-4.971,8.444-5.334-1.287,1.972-.354,3.107.687,4.256,1.156,1.276,2.247,2.61,3.36,3.923,7.159,8.446,12.325,18.221,18.357,27.423,13.966,21.3,35.618,25.542,55,15.7,6.258-3.179,10.585-7.955,11.928-15.061.125-.659.255-1.317.4-2.063,1.192.837,1,1.879,1.251,2.726a20.825,20.825,0,0,0,14.18,14.737c14.15,4.614,27.585,3.31,39.821-5.705,7.517-5.538,12.336-13.146,16.232-21.458,3.358-7.167,5.821-14.664,8.411-22.117.523-1.5,1.088-3.187,2.583-.588-1.688,3.534-1.977,7.371-2.561,11.148,1.935-3.314,4.457-6.462,2.992-10.67,1.4,1.409,2.2,1.265,2.742-.795.427-1.63-.5-3.083-.243-5.154,2.351,4.769,2.578.431,3.654-.4,1.916,1.549,2.8,3.842,4.089,6.168.826-2.422-.928-3.872-1-5.8,4.034,3.753,4.469,6.405,2.041,11.987-1.731-2-2.1-4.946-4.119-6.487-6.14,13.322-14.091,25.427-20.925,38.235,7.022-5,13.023-11.315,20.953-14.937L390,563.366c1.87.475,2.068-1.5,3.67-1.082-2.286,3.134-5.373,5.314-7.728,8.136,2.861-1.783,5.526-3.758,8.247-5.651a3.466,3.466,0,0,0,1.642-2.792c.86-9.546,4.277-18.239,9.294-26.292,5.4-8.67,12.714-15.028,22.848-17.64a68.316,68.316,0,0,1,12.2-1.938c4.867-.349,9.574-2,14.655-.4,1.573.5,5.325,1.668,5.838-.266.635-2.395,2.248.118,2.513-1.363l-6.472-4.2a24.075,24.075,0,0,1,7.937,3.155c-3.385-4.793-8.1-7.81-13.191-10.439a85.531,85.531,0,0,1,18.377,6.36c-3.377-7.519-8.99-11.548-15.6-14.582,8.651,1.907,16.823,4.787,24.247,9.571-11.345-17.217-29.6-20.415-48.683-23.666,10.643-3.068,20.976-3.209,31.935-3.438-5.092-3.928-10.543-5.615-15.625-8.057,8.314.747,15.274,5.121,22.57,8.6a46.348,46.348,0,0,0-26.459-10.42c4.075-1.7,7.876-1.04,11.935-2.131a55.953,55.953,0,0,0-23.581-.952c3.439-2.957,6.831-4.582,9.829-6.828a51.547,51.547,0,0,0-12.6,3.758c4.79-3.805,10.539-4.437,16.339-4.941-5.878-.787-11.66.2-18.091.842,5.253-2.463,9.846-4.831,15.624-6.553-5.778-.422-10.082,1.928-15.117,3.435,3.283-3.465,6.913-5.383,10.476-7.476-6.176,1.141-12.2,2.641-18.2,6.9l4.586-8.131-.479-.331-3.623,3.908c.988-5.293,2.625-10.072,1.612-15.842-.783,6.536-1.538,12.364-4.087,17.788-.207-4.068-2.386-7-4.979-9.746.666,3.268,3.06,6.025,2.756,10.5-2.255-5.25-4.168-9.711-6.3-14-5.806-11.662-13.161-22.406-23.106-31.009-10.946-9.47-22.889-16.378-38.671-12.239,5.542-5.056,11.964-5.771,18.834-5.221-.566-1.2-1.9-.11-2.076-1.368,3.083-.537,6.007.272,9.014.877l-5.032-2.787c6.145-1.01,11.473,1.461,16.942,1.385-4.01-3.915-9.694-4.513-14.448-7.251l9.675,1.468a49.778,49.778,0,0,0-19.317-3.582c3.814-1.755,7.074-1.544,10.552-2.127-12.488-1.874-23.731,1.161-32.31,8.873-12.25,11.011-14.212,24.951-11.3,40.308,1.44,7.583,5.281,14.362,6.9,21.863q1.2,5.527,2.556,11.017c.182.737.525,1.621,1.507,1.661a1.867,1.867,0,0,0,1.806-1.363,33.5,33.5,0,0,0,1.445-4.552c1.539-7.122,3.769-13.978,8.408-19.725,5.94-7.36,13.457-11.255,23.187-9.684,8.856,1.43,14.959,7.066,20.464,13.536,3.052,3.586,5.916,7.335,9.42,10.513,2.443,2.217,4.749,5.044,8.576,1.53-3.262,3.917-4.341,8.962-8.621,11.574-.474-.818.871-1.462-.145-2.1-3.673,3.341-6.381,7.513-9.682,11.174-5.779,6.409-12.854,10.377-21.484,11-3.393.247-6.661-.15-6.834,4.4-6.229-2.222-6.7-9.585-12.5-12.77,1.6,4.7,5.265,7.754,6.318,13.077-3.427-5.648-7.682-9.336-12.018-12.9-2.6-2.139-2.885-5.952-6.293-7.585-5.447-2.609-10.291-6.114-13.015-11.906a18.505,18.505,0,0,0,3.3,8.318c-8.277-7.016-9.369-16.978-10.833-26.8-.641,9.824.993,19.087,6.183,27.6-6.75-4.3-9.353-10.991-10.947-18.373a174.536,174.536,0,0,1-2.862-22.183,59.476,59.476,0,0,0,.315,14.087c.617,4.5,1.3,8.992,1.958,13.487l-.926-.1c-5.829-28.743-4.918-56.16,16.629-79.858-5.078,2.017-8.414,5.654-12.3,10.062a38.875,38.875,0,0,1,3.741-7.95,59.14,59.14,0,0,1,4.518-6.085c-3.4,1.237-5.031,4.548-8.178,6.1l6.1-6.757a15.511,15.511,0,0,0-6.186,4.242c-1.688,1.819-3.479,3.546-5.105,5.47,1.344-6.26,4.893-11.212,8.658-16.1l-3.683,3.3c.311-1.893,1.736-2.83,2.942-3.922.713-.646,1.624-1.082.613-2.209-1.07-1.194-1.453.193-2,.546a61.393,61.393,0,0,0-12.1,10.669c2.348-11.861,12.087-19.895,16.45-31.629l-3.139,3.715c-.574-1.468,1.19-2.306.285-4.711L308.477,347a169.065,169.065,0,0,1,9.166-25.286c-3.526,1.018-5.755,3.622-8.57,5.4l3.371-5.277c-10.437,4.718-12.5,13.959-14,24.17-1.727-3.473-2.683-6.586-5.091-8.286-2.2-1.552-5.349-1.394-8.236-3.677,6.948,10.958,10.377,24.15,9.373,32.773a20.074,20.074,0,0,0-11.006-12.7c.848,2.456,3,4.558,3.221,7.679-3.489-2.338-6.272-5.23-10-6.756,7.009,7.3,12.465,15.418,14.611,25.5a127.023,127.023,0,0,0-11.079-11.08c-.39-.339-.74-1.2-1.522-.64-1.082.783-1.156.751-1.673.691-1.342-.154-2.238-1.64-4.076-1.209,4.63,3.116,7.944,7.171,11.384,11.185,2.121,2.475,1.533,5.65,3.392,8.065a27.91,27.91,0,0,1,3.963,8.342c4.607,13.747,5.551,27.852,3.821,42.138-.568,4.688-1.607,9.4-4.343,13.469.12-2.676,1.521-5.169.786-8.6a62.375,62.375,0,0,1-4.8,13.725c-.669-1.289.852-2.144.148-2.942-4.335,1.692-7.11,5.2-10.221,8.318-.331-1.583,1.524-2.863.775-4.343C274.707,461.6,272.131,466.116,267.52,468.8Zm-5.906,125.256c4.4,4.223,7.031,8.715,11.766,11.382,13.045,7.348,27.052,9.614,41.748,8.535,9.3-.683,17.928-3.325,25.4-9.231a49.128,49.128,0,0,0,12.7-14.722C346,593.6,338.9,593.739,331.8,593.486A8.573,8.573,0,0,0,325.106,596c-4.744,4.385-9.958,8.193-16.578,9.194-8.28,1.252-14.987-2.032-20.847-7.6-.855-.813-1.391-2.094-2.909-2.124C277.369,595.328,269.957,595.328,261.614,594.059ZM369.187,472.278c8.808-.543,15.4-4.438,19.109-12.476,3.721-8.054,3.121-15.974-2.489-22.912a19.565,19.565,0,0,0-20.292-7.212c-7.536,1.6-11.565,6.864-13.324,14.158-.99,4.106-1.626,8.316-3.333,12.232a2.765,2.765,0,0,0,.181,2.635C353.684,466.319,359.846,471.66,369.187,472.278ZM305.841,595.493c-.528,1.349-2.038,2.186-2.2,1.4-.586-2.895-2.439-1.524-3.96-1.371.393-1.22,1.82-1.337,1.848-1.634-4.45-6.144-8.742-3.091-13.048-.524,8.492,11.986,24.928,11.755,34.7-.487-6.728-3.1-6.885-3.111-12.477-.69-3.041,1.317-3.308,3.706-.734,5.931.6.522,1.773.68,1.558,2.182C309.048,599.405,305.8,599.855,305.841,595.493Zm92.78-269.543c-.748,6.6-1.42,12.534-2.092,18.47,2-4.187,2.329-8.692,2.926-13.79,4.268,6.534,5.807,13.251,6.818,20.478,2.131-3.9,1.919-8.157,3.5-12.485,2.188,6.275,1.912,12.21,1.928,18.1.011,4.008-.055,4,4,3.01.121-.03.309.212.533.377a27.789,27.789,0,0,1-11.36,12.955c4.468,2.314,8.529-.129,12.59-.123-.263,3.075-2.781,4.35-4.943,6.532,4.948.513,9.134.522,13.808-1.729-3.71-.273-6.674,1.4-9.664.2a25.509,25.509,0,0,0,2.321-3.93c.419-1.114.732-2.572-.447-3.51-1.029-.819-1.912.229-2.775.63-2.246,1.044-4.457,2.126-7.411,1.4,4.382-3.374,7.825-7.123,9.445-12.2.327-1.025,1.032-2.312-.212-3.148-1.014-.681-1.51.733-2.336.948-.686.178-1.176,1.209-2.073.535.5-11.278-1.022-20.117-4.432-24.915-.792,3.646-1.536,7.075-2.389,11C405.7,337.581,402.171,332.134,398.621,325.95Zm76.591,121.99c-3.225-1.451-5.4-3.682-8.766-4.516l14.61,12.343c-6.578-11.177-11.291-22.453-20.858-30.788,2.685-1.042,4.339.773,6.215.078-6.5-4.358-8.508-5.063-12.221-4.456C461.974,428.706,469.722,437.017,475.212,447.94ZM250.758,477.288c-13.743,6.791-29.489,4.395-39.137-16.433,2.775,8.816,7.375,16.161,16.538,19.716C236.338,483.744,243.958,482.834,250.758,477.288Zm-83.6-24.112a19.678,19.678,0,0,0-18.425,10.2c12.152-4.948,24.371-5.481,36.815-2.83-10.439-4.44-21.079-3.1-31.82-1.04C158,456.836,162,453.789,167.158,453.176ZM474.5,491.636c11.4,6.431,21.146,13.86,20.736,28.929C500.24,509.814,487.1,491.687,474.5,491.636Zm-2.555-157.048c-.749,10.922,1.061,22.219-4.741,32.5l3.117-2.7c-.356,4.182-2.879,6.993-4.047,10.33a29.015,29.015,0,0,0,7.464-16.959c-1.5.085-1.071,1.928-2.518,1.96C472.892,351.37,473.92,343.036,471.947,334.588Zm-183.532-27.74a9.517,9.517,0,0,0-6.445-1.638c-2.329.041-5.16-.853-6.547,1.74a2.637,2.637,0,0,1-3.335,1.514c-2.1-.485-4.583-.811-6.072.186-4.3,2.879-6.906-.225-9.987-2.02-.106-.062-.371.15-.623.261.767,1.389,1.5,2.635.582,4.426-.841,1.642.114,2.916,2.549,3.718-.975-1.566-1.754-2.628-.472-3.754,2.285-2.006,3.6,1.244,5.8.871-.223-2.556,1.373-3.014,3.611-2.887,2.29.13,4.594.054,6.891.009.661-.013,1.814-.083,1.9-.376,1.183-4,4.406-2.292,6.867-2.473A36.867,36.867,0,0,1,288.415,306.848Zm69.771,166.51c7.584,4.3,15.308,4.247,22.961.183a26.845,26.845,0,0,0,14.482-19.689C390.932,469.1,376.582,480.388,358.186,473.358Zm112.942-9.274a78.962,78.962,0,0,1,12.566,15.407l-3.4.489,7.087,3.071C483.432,474.921,479.357,467.744,471.128,464.084ZM360.784,587.167c7.359-3.4,25.056-17.612,27.488-21.936C379.6,573.188,369.526,579.37,360.784,587.167ZM166.472,407.638a177.9,177.9,0,0,1-22.34-6.7c5.291,4.179,10.873,5.015,16.588,6.8-3.34,1.637-6.765,1.6-9.466,3.629C156.376,411.407,161.014,409.5,166.472,407.638Zm42.2-56.813c-2.727,9.435-6.006,18.628-11.942,27.55-.217-2.246-.351-3.644-.486-5.041l-.45.048v9.229C201.965,372.359,207.123,362.324,208.669,350.825Zm-34.412,87.252c-8.917-1.032-15.4.5-18.946,4.226C162.1,443.06,167.8,438.962,174.257,438.077ZM378.789,274.228c-3.566,9.676-5.276,19.561-2.992,29.815C375.125,293.949,376.62,284.073,378.789,274.228Zm-188.262,129.8c-6.216,2.751-10.712,7.913-16.593,11.05C179.653,413.861,188.235,408.2,190.527,404.029Zm184.816-31.475c-9.664-2.929-18.843-2.055-27.435,3.415C356.671,371.839,365.891,371.285,375.343,372.554Zm112.49,117.871c-5.448-4.669-11.631-7.3-18.869-7.061C475.482,485.14,481.526,488.153,487.833,490.425ZM192.021,379.1c-2.671,7.774-3.655,15.855-4.3,24C189.994,395.245,190.693,387.113,192.021,379.1Zm-63.562-28.064c2.608,5.977,3.917,12.873,11.149,15.305C134.452,362.255,131.49,356.582,128.459,351.031Zm101.876-64.655a90.363,90.363,0,0,1,10.641,22.1A43.505,43.505,0,0,0,230.335,286.376Zm98.226,14.834c-4.741,2.451-10.04,3.388-14.926,5.443C319.374,306.909,324.575,305.707,328.561,301.21Zm-80.481,6.277c2.117,3.273,3.006,6.683,4.386,9.989l2.437-4.143C250.545,313.8,251.545,308.488,248.08,307.487Zm37.961-5.1c2.852,3.936,8.278,3.019,11.647,5.981C295.95,306.027,292.571,304.235,286.041,302.383Zm184.2,47.442-3.8,9.236C468.958,356.824,470.326,354.115,470.237,349.825ZM454.06,400.234a19.894,19.894,0,0,0,8.911-.956C460.032,398.994,457.062,398.406,454.06,400.234Z"/><path d="M459.235,294.821c-2.605-10.737-4.133-21.7-6.783-32.432,6.037,16.407,10.4,33.184,11.481,50.695-.948-6.287-3.057-12.278-4.783-18.366Z"/><path d="M278.936,622.18a427.517,427.517,0,0,1,54.708.016C315.409,622.792,297.173,622.894,278.936,622.18Z"/><path d="M286.7,624.865c12.212-.544,24.423-.449,36.634.017C311.119,625.446,298.907,625.414,286.7,624.865Z"/><path d="M337.592,302.27l-.248.149c-2.247-.062-3.763,3.337-6.417,1.357l-.141.094c3.888-1.482,5.908-4.845,8.073-8.277C340.178,298.324,338.7,300.259,337.592,302.27Z"/><path d="M252.977,447.964c.191,1.237.365,2.476.575,3.71,1.19,6.984-2.813,13.992-8.875,15.521a13.885,13.885,0,0,1-16.215-8.9c-3.775-10.208,3.644-19.873,14.234-18.654,4.01.461,6.293,3.37,8.981,5.761Zm-15.247-.629c.009,2.507.776,4.061,3.08,4.07,2.4.01,3.868-1.315,3.872-3.766,0-2.421-1.721-3.438-3.816-3.438C238.738,444.2,237.532,445.471,237.73,447.335Zm10.778,12.123c-4.212,3.692-8.839,4.091-13.872,1.872C239.6,465.572,245.078,464.837,248.508,459.458Z"/><path d="M472.484,564.78c-.9,1.559-1.8,3.118-3.162,5.467-.925-5.181,1.415-9.344.722-13.695-.683-4.293-1.933-8.411-2.583-12.759,4.253,4.877,5.653,10.846,6.141,17.165Z"/><path d="M166.246,573.607c2.94-2.966,5.232-6.171,4.963-10.695a74.214,74.214,0,0,1,.211-9.97c-.7,3.978,1.23,7.574,1.486,11.465.337,5.121-2.64,8.793-4.48,12.945-.714,1.612-3.024,1.174-4.661,1.29-.353.024-.262-.967.156-1.451C164.383,575.783,166.461,575.439,166.246,573.607Z"/><path d="M443.244,357.7a112.186,112.186,0,0,0,12.022-20.285c.316-.723-.347-2.987,1.935-2.212a30.107,30.107,0,0,1-4.2,11c-.625,1.059-1.269,2.107-1.87,3.179a38.518,38.518,0,0,1-6.653,8.926c-1.383,1.343-.917-.216-1.1-.742Z"/><path d="M267.52,468.8l-1.346,1.475c.922,1.146,1.851-.789,2.837.246-4.173,2.415-7.144,6.177-10.75,9.218-.517.549-.828,1.745-1.723,1.332-1.073-.5-.3-1.439.137-2C259.757,475.093,262.68,470.929,267.52,468.8Z"/><path d="M218.463,398.409c7.411-3.276,15.072-5.06,23.285-3.733-10.926-1.485-19.673,4.049-28.69,8.708C214.248,401.061,216.579,399.978,218.463,398.409Z"/><path d="M325.3,544.425c3.357,6.022,2.926,7.69-2.944,11a86.835,86.835,0,0,1-12.387,5.886,13.912,13.912,0,0,1-10.962-.2,104.461,104.461,0,0,1-12.047-5.822c-5.24-3.129-5.6-6.011-1.508-10.373a6.338,6.338,0,0,0,1.546-2.352c-1.7,1.034-3.369,2.125-5.107,3.089-3.758,2.084-7.443,1.609-10.219-1.7-5.351-6.383-7.26-13.958-6.678-22.127.332-4.662,3.1-8.034,6.873-10.6a53.282,53.282,0,0,1,24.071-8.51c12.222-1.449,24.258-.453,35.722,4.544,12.708,5.539,15.954,12.559,11.836,25.8a33.373,33.373,0,0,1-2.346,5.694C337.442,545.732,332.925,547.418,325.3,544.425ZM279.08,515.89c17.242-7.174,34.039-7.12,51.227-.321C323.066,505.749,287.121,505.254,279.08,515.89Zm11.414,30.062c6.37-4.25,8.8-8.972,7.437-14.079-1.139-4.282-4.371-6.873-8.991-7.208-3.994-.29-7.769,1.988-9.685,6.154,1.03-.939,1.724-1.606,2.454-2.233a9.39,9.39,0,0,1,12.3-.435c3.13,2.586,3.722,7.562,1.429,11.639C294.129,542.116,292.024,543.765,290.494,545.952ZM330.656,529.8c-2.871-4.571-6.948-6.445-10.95-5.659-4.315.847-7.45,3.675-8.144,7.345-.908,4.8,1.207,9.611,5.865,12.531-1.689-3.041-4.112-5.118-4.529-8.306-.456-3.5.458-6.345,3.254-8.528C319.913,524.249,324.516,524.928,330.656,529.8Zm-26.49,22.976a57.216,57.216,0,0,0,0-16.379Z"/><path d="M342.756,493.422c9.971,1.657,17.49,6.781,25.115,12.12-2.895-5.3-6.16-10.395-7.541-16.393,2.643,4.569,5.329,9.113,7.916,13.713a48.419,48.419,0,0,0,7.879,10.761,16.632,16.632,0,0,1,5.087,9.232C371.425,509.553,358.389,500.48,342.756,493.422Z"/><path d="M343.641,582.759c-8.929,3.338-26.316.107-29.94-5.516C329.278,583.472,334.637,584.45,343.641,582.759Z"/><path d="M345.653,436.259c3.02-5.635,5.756-11.533,12.9-13.087C353.172,426.515,349.278,431.271,345.653,436.259Z"/><path d="M301,573.121c-2.5,7.043-8.284,10.117-14.684,12.423,2.574-2.02,5.742-3.155,8.2-5.4A47.73,47.73,0,0,0,301,573.121Z"/><path d="M345.919,584.938c-6.337,2.032-12.6,3.209-19.056,1.136C333.379,587.44,339.685,585.838,345.919,584.938Z"/><path d="M355.441,548.505c.3-1.1.862-1.951,2.116-1.832s1.715,1.02,1.658,2.189c-.06,1.225-.689,1.956-1.972,1.824C355.98,550.557,355.609,549.594,355.441,548.505Z"/><path d="M269.15,556.277c1.414-.064,2.2.612,2.248,1.757a1.924,1.924,0,0,1-1.888,2.042,1.924,1.924,0,0,1-.36-3.8Z"/><path d="M257.512,557.533c-1.087-.16-1.783-.637-1.837-1.735-.055-1.148.33-2.126,1.6-2.17a1.825,1.825,0,0,1,1.839,1.7C259.325,556.592,258.468,557.144,257.512,557.533Z"/><path d="M246.989,547.322c1.13.213,1.795.736,1.822,1.838.031,1.235-.638,2.079-1.806,2.047a1.768,1.768,0,0,1-1.707-2.142A1.857,1.857,0,0,1,246.989,547.322Z"/><path d="M269.249,573.953c-1.063-.251-1.91-.693-1.853-1.988.054-1.2.634-1.9,1.88-1.871,1.1.023,1.593.677,1.647,1.726A1.87,1.87,0,0,1,269.249,573.953Z"/><path d="M279.188,570.065a1.71,1.71,0,0,1,1.662,2.087c-.089,1.119-.914,1.452-1.96,1.347a1.57,1.57,0,0,1-1.524-1.859A1.543,1.543,0,0,1,279.188,570.065Z"/><path d="M358.831,577.738l6.52-6.2A15.74,15.74,0,0,1,358.831,577.738Z"/><path d="M341.265,556.248c-.023.961-.52,1.394-1.473,1.4A1.443,1.443,0,0,1,338.167,556c.072-.865.519-1.838,1.683-1.673A1.632,1.632,0,0,1,341.265,556.248Z"/><path d="M333.646,573.911a1.689,1.689,0,0,1-1.822,1.572,1.433,1.433,0,0,1-1.394-1.619,1.509,1.509,0,0,1,1.765-1.612A1.561,1.561,0,0,1,333.646,573.911Z"/><path d="M276.346,560.337c-1.041-.057-1.362-.757-1.328-1.635.04-1.027.49-1.789,1.68-1.684a1.531,1.531,0,0,1,1.455,1.631A1.688,1.688,0,0,1,276.346,560.337Z"/><path d="M128.417,580.376c13.776,4.048,28.717-1.7,33.839-22.518,2.329,7.312-4.295,19.041-13.211,23.393C141.651,584.86,131.345,584.58,128.417,580.376Z"/><path d="M108.874,572.284l4.99-12.658C114.5,563.708,112.905,568.023,108.874,572.284Z"/><path d="M157.5,561.771c-.227,5.866-3.782,9.537-8.252,12.609A44,44,0,0,0,157.5,561.771Z"/><path d="M193.857,569.553c1.1-6.221.264-12.289-.574-18.359A29.678,29.678,0,0,1,193.857,569.553Z"/><path d="M105.936,576.091c-1.353,3.769-3.868,3.615-6.373,3.479C101.857,579.269,103.68,577.994,105.936,576.091Z"/><path d="M172.443,582.205a15.1,15.1,0,0,0,2.111-9.739C174.882,575.931,175.5,579.449,172.443,582.205Z"/><path d="M419.658,544.54c-3.578,10.252-5.435,20.616-3.062,31.945-3.463-3.258-3.814-6.835-3.689-10.658C413.164,557.964,415.513,550.126,419.658,544.54Z"/><path d="M435.2,582.575c-4.018-.074-7.076-3.17-8.16-8.386C428.864,577.758,432.944,579.1,435.2,582.575Z"/><path d="M493.824,557.054c1.816,3.9.768,8,.8,12.018C494.243,565.073,494.64,561.024,493.824,557.054Z"/><path d="M143.006,275.469c-1.414,1.4-1.706,3.428-2.9,4.982,1.482-8.294,3.391-16.452,8.669-23.318,3.228-4.2,7.722-5.069,12.165-2.283,4.852,3.042,8.072,7.547,10.608,12.543l-.683.644c-2.472-2.628-4.761-5.463-7.459-7.834-3.824-3.361-8.379-3.429-11.585-.657a2.86,2.86,0,0,0-1.138,2.025l-2.338,3.149a29.465,29.465,0,0,0-5.435,10.982Z"/><path d="M143.006,275.469l-.095.233q1.92-3.387,3.842-6.773A244.375,244.375,0,0,0,135.7,328.312c-.967-7.338-.243-14.574.332-21.827C136.874,295.8,139.812,285.612,143.006,275.469Z"/><path d="M148.346,264.72l2.338-3.149c5.578-3.589,9.141-3.462,13.241,1.092-5.65-2.871-9.829-1.07-13.753,2.176C149.853,265.1,148.758,267.122,148.346,264.72Z"/><path d="M423.451,243.765c-8.806-3.661-9.853-3.508-15.4,2.3.8-3.323,2.084-5.6,5.141-6.559C416.371,238.5,419.62,239.736,423.451,243.765Z"/><path d="M353.667,449.77c-.027-8.13,6.07-14.918,13.467-15,7.681-.08,13.972,6.888,13.855,15.346-.108,7.763-5.846,13.585-13.448,13.644C359.684,463.826,353.694,457.784,353.667,449.77ZM367.584,439.6c-2.234.031-3.478,1.239-3.44,3.377a3.173,3.173,0,0,0,3.459,3.431,3.282,3.282,0,0,0,3.419-3.512C371.016,440.658,369.783,439.6,367.584,439.6Zm-9.5,13.528c1.826,5.044,5.679,7.341,10.876,6.686,4.484-.564,7.8-4.144,8.505-9.188C373.175,460.2,363.045,460.26,358.089,453.132Z"/></svg>