<svg id="a6c84ac2-6651-4bf0-baef-61efa483dcb5" data-name="Layer 1" xmlns="http://www.w3.org/2000/svg" viewBox="0 0 595.276 841.89" style="fill: #215342;" height="350" width="450" transform="translate(-55, -53)"><path d="M256.436,417.334c5.906-6.331,13.822-8.632,21.775-10.855.459-.128.931-.206,1.4-.307a8.871,8.871,0,0,1-1.138-.776,41.057,41.057,0,0,0-13.091-7.988c-.294-.118-.853-.1-.868-.664a7.935,7.935,0,0,1,1.039.111c5.43,1.282,10.573,3.16,14.35,7.534a3.073,3.073,0,0,0,3.113,1.2c13.934-2.278,27.341-.064,40.419,4.811a37.649,37.649,0,0,1,6.589,2.679c4.687,2.822,6.554,7.44,8.267,12.183a36.6,36.6,0,0,1,1.543,5.869c.308,1.7.822,2.366,2.784,2.114,3.427-.442,6.892-.669,10.353-.886a15.6,15.6,0,0,1,12.792,5.259c4.958,5.174,9.376,10.762,12.175,17.471.443,1.063,1.237,3.132,1.635,2.874,1.225-.8.378-2.3.08-3.5a50.521,50.521,0,0,0-9.443-19.173c-3.595-4.56-8.68-7.43-14.221-9.311-1.012-.344-2.061-.582-3.1-.858-.485-.13-1.094-.4-.959-.858.14-.476.812-.215,1.269-.2,5.012.2,9.039,2.464,12.894,5.544,7.85,6.272,13.775,14.256,20.147,21.855.615.733,1.165,1.523,1.811,2.227.546.594,1.039,1.948,1.682,1.6,1.13-.61.5-1.935.118-2.859-2.193-5.3-4.515-10.548-7.129-15.66-.419-.82-1.442-2.2-.914-2.446,1-.468,1.56.989,2.226,1.685a105.137,105.137,0,0,1,10.3,12.884c.477.688.939,1.389,1.452,2.05.421.543.832,1.316,1.7.757a1.409,1.409,0,0,0,.564-2.129,11.336,11.336,0,0,1-.692-1.649,72.967,72.967,0,0,0-13.889-22.42c-.726-.792-1.36-1.667-2.038-2.5-.213-.263-.558-.527-.14-.848.07-.053.4.186.58.332,3.3,2.739,7.272,4.656,9.958,8.145a4.879,4.879,0,0,0,1.659,1.332c1.985,1.048,4.084,1.968,4.855,4.4.121.382.656.677,1.059.909.266.153.746.274.939.138.32-.226.063-.6-.083-.928a43.345,43.345,0,0,0-3.917-6.827,101.627,101.627,0,0,0-17.309-18.61c-.685-.6-1.593-1.038-1.885-2.021,1.042-.166,1.683.612,2.405,1.1a90.626,90.626,0,0,1,18.908,16.953c.411.49.8,1.56,1.384,1.182.638-.414-.119-1.286-.356-1.93-2.223-6.041-5.965-11.1-10.191-15.864a47.813,47.813,0,0,0-10.381-8.769,3.708,3.708,0,0,1-.646-.695,2.62,2.62,0,0,1,1.015-.062c2.341.89,4.666,1.823,6.99,2.757.3.121.6.506.883.142.078-.1-.213-.623-.448-.808a64.083,64.083,0,0,0-12.672-8.046c-1.255-.581-3.146-.675-2.413-3.218.286-1-1.381-1.944-2.817-2.095-3.564-.377-7.121-.82-10.679-1.243-.339-.041-.672-.132-1.007-.2a5.973,5.973,0,0,1,.942-.413,36.439,36.439,0,0,1,20.846.5c3.145,1.058,6.413,1.975,9,4.16a2.739,2.739,0,0,0,2.614.455c.733-.108,1.445-.307,1.6-1.17a1.808,1.808,0,0,0-.718-1.9c-.781-.547-1.593-1.053-2.414-1.541a113.747,113.747,0,0,0-15.359-7.6c-.315-.129-.889-.383-.871-.453.158-.594.711-.378,1.08-.338a32.615,32.615,0,0,1,6.305,1.248,1.474,1.474,0,0,0,1.377-.1,4.468,4.468,0,0,0-1.044-.813,138.531,138.531,0,0,0-17.377-5.4,67.509,67.509,0,0,0-23.132-1.362c-.449.051-1.124.169-1.239-.269-.13-.5.557-.66.951-.9a1.568,1.568,0,0,1,.328-.143,35.075,35.075,0,0,1,14.453-1.9c2.376.259,4.741.609,7.114.891.339.04.972-.009,1-.121.135-.61-.506-.625-.842-.773a34.525,34.525,0,0,0-17.092-3.032,47.3,47.3,0,0,0-15.6,3.6c-.334.15-.731.421-.955.164-.475-.545.226-.792.488-.981a34.255,34.255,0,0,1,18.629-6.624,67.952,67.952,0,0,1,36.858,8.52c4.6,2.529,9.253,4.98,13.87,7.489.328.179.631.406.925.139.076-.069-.13-.6-.325-.8-9.715-9.908-20.787-17.6-34.646-20.373-12.589-2.522-24.4.021-35.546,6.165-3.253,1.794-6.254,3.957-9.321,6.028-.332.225-.773.77-1.2.311-.406-.436.074-.873.341-1.227a36.28,36.28,0,0,1,11.352-9.74c1.762-.99,3.672-1.713,5.5-2.594a11.7,11.7,0,0,0,1.393-.927c-.543-.58-1.123.029-1.642-.045-6.2-.88-10.89,2.666-15.708,5.541a57.1,57.1,0,0,0-10.325,7.71,10.185,10.185,0,0,1-1.416,1.1c-.288.191-.779.486-.941.378a1.01,1.01,0,0,1-.207-1.28c1.677-4.015,3.846-7.706,7.321-10.446,1.5-1.18,3.129-2.187,4.69-3.287.285-.2.783-.607.74-.688-.307-.589-.725-.045-1.09,0-5.409.72-9.88,3.365-13.9,6.884a47.332,47.332,0,0,0-5.777,6.372c-.285.36-.587,1.2-1.258.7-.376-.282-.021-.879.159-1.32,3.831-9.43,10.469-15.589,20.878-16.066A55.032,55.032,0,0,0,336.692,348a14.913,14.913,0,0,1,5.55-1.3,5.155,5.155,0,0,0,.968-.188c-.236-.252-.425-.621-.716-.738-1.548-.625-3.1-1.256-4.69-1.755a66.393,66.393,0,0,0-10.514-2.206,6.325,6.325,0,0,1-.991-.307c.192-.574.706-.411,1.092-.428,5.334-.227,10.428,1.011,15.46,2.588,1.594.5,3.16,1.085,4.754,1.585.315.1.893.116,1.011-.058.34-.5-.252-.74-.523-1.033-4.046-4.39-9.255-6.653-14.9-8.089-1.734-.441-3.493-.788-5.23-1.216a3.532,3.532,0,0,1-.879-.519,5.661,5.661,0,0,1,.948-.195,26.557,26.557,0,0,1,11.537,2.175c.389.168.716.682,1.252.341-.289-.373-.562-.758-.869-1.116a11.809,11.809,0,0,0-5.089-3.244c-2.467-.907-4.968-1.726-7.452-2.589-.4-.141-.948-.046-1.105-.627a8.509,8.509,0,0,1,1.373-.286c1.433-.064,2.873-.019,4.3-.125.7-.052,1.512-.27,1.7-1.063.208-.857-.522-1.249-1.166-1.576-1.813-.918-3.638-1.812-5.453-2.725-.3-.152-.849-.411-.825-.516.133-.584.7-.412,1.1-.428a14.614,14.614,0,0,1,9.4,2.954c.453.33.8,1.09,1.374.894s.662-.988.637-1.57c-.126-2.986-.333-5.968-.462-8.953-.074-1.7-1.292-2.145-2.6-2.479a31.037,31.037,0,0,0-8.547-.758c-.544.014-1.266.23-1.537-.474-.253-.659.294-1.122.7-1.535a8.844,8.844,0,0,1,5.111-2.385,14.625,14.625,0,0,1,5.361-.116c1.608.335,2.012-.3,2.093-1.8.684-12.575,13.141-29.592,30.911-33.993,8.748-2.166,16.678-.27,24.623,2.816a8.611,8.611,0,0,1,4.89,4.982,1.485,1.485,0,0,1-.2,1.328c-.365.356-.843-.041-1.2-.358-1.717-1.531-3.476-2.972-6.016-2.569-.462.073-1.052.043-1.246.551-.183.476.155.895.509,1.226,1.135,1.063,2.25,2.15,3.421,3.172,1.712,1.5,3.492,2.914,5.192,4.423,1.044.927,2.332,1.664,2.778,3.13-1.509.391-2.761-.452-4.089-.882-5.494-1.78-11.064-2.988-16.891-2.428-.461.045-.985.21-1.226-.34-.223-.509.226-.884.425-1.3.589-1.242,1.9-1.345,2.939-1.874.289-.147.481-.486.718-.737a3.111,3.111,0,0,0-.872-.528c-5.371-1.094-10.757-1.275-15.866.936-3.043,1.317-5.465,3.514-5.6,7.25-.016.45.054,1.11.34,1.316.417.3.8-.225,1.16-.534,2.882-2.457,6.339-3.039,9.975-2.971a1.173,1.173,0,0,1,.9.406c.288.586-.269.826-.672,1.037-1.48.777-3,1.487-4.453,2.306-.473.266-1.312.587-1.055,1.254.292.757.993.185,1.516.059,1.74-.419,3.468-.891,5.218-1.259,6.7-1.4,12.8.247,18.5,3.76.457.282,1.288.581,1,1.272-.241.587-1.042.343-1.6.335-5.945-.083-11.2,2.065-16.2,5.013a19.122,19.122,0,0,0-2.262,1.744,8.03,8.03,0,0,0-.733.774,2.9,2.9,0,0,0,.955.06c5.968-1.739,10.413,1.14,14.516,4.868.723.658,2.153,1.346.994,2.9-.426.572.506.931.845,1.275,8.892,9.034,12.614,20.315,14.234,32.523.046.351.137.695.207,1.042.441-.3.306-.807.428-1.223.956-3.266.846-6.626.883-9.972.008-.717-.143-1.439-.094-2.15.075-1.105-.648-2.937.356-3.133,1.073-.209,1.332,1.7,1.789,2.741,2.545,5.783,5.3,11.488,6.123,17.881.231,1.791.2,3.578.409,5.356.064.545-.186,1.384.436,1.556.812.224.739-.693.975-1.186a30.991,30.991,0,0,0,2.728-11.419,67.066,67.066,0,0,0-7.093-35.38,47.419,47.419,0,0,0-9.3-12.637c-.6-.585-1.224-1.141-1.806-1.742-.12-.124-.1-.387-.138-.586.22-.03.492-.157.653-.073a25.379,25.379,0,0,1,2.793,1.587,42.71,42.71,0,0,1,12.786,14.335c.409.728.766,1.489,1.2,2.2.15.242.478.373.724.555a2.614,2.614,0,0,0,.067-1.031c-.987-2.555-1.887-5.157-3.066-7.623-3.152-6.593-6.474-13.091-12.421-17.744-.419-.328-1.174-.815-.611-1.4.45-.464,1.068.192,1.515.472a38.338,38.338,0,0,1,9.514,8.118c1.968,2.408,3.91,4.838,5.881,7.244.606.739,1.25,1.449,1.907,2.143a12,12,0,0,0,3.724,2.736c.03-1.611-1.011-2.817-1.629-4.169-2.675-5.858-7.064-10.469-11.207-15.261-1.956-2.261-3.821-4.6-5.7-6.929-.245-.305-.866-.706-.327-1.145.423-.345.892.1,1.224.4,2.676,2.391,5.517,4.632,7.952,7.25,3.219,3.461,7.24,4.906,11.7,5.6a3.906,3.906,0,0,0,1.038-.124,3.431,3.431,0,0,0-.461-.922c-1.414-1.46-2.771-3-4.315-4.307a72.408,72.408,0,0,1-11.28-11.5,58.23,58.23,0,0,0-6.541-7.132,18.26,18.26,0,0,1-2.328-2.714c-.49-.7-.013-1.157.721-1.033a16.948,16.948,0,0,1,4.992,1.9,66.521,66.521,0,0,1,13.6,9.249c1.045.934,2.794,2.787,3.326,2.172,1.052-1.216-.57-2.641-1.418-3.824A44.889,44.889,0,0,0,405.3,259.344a53.167,53.167,0,0,1-10.21-5.146c-.446-.305-1.274-.646-.975-1.194.272-.5,1.092-.144,1.665.016a92.861,92.861,0,0,1,13.784,5.016c6,2.763,12.368,3.477,18.825,3.874.449.028,1.258.008,1.3-.145.139-.538-.416-.759-.834-.984-.84-.452-1.66-.951-2.528-1.343-7.295-3.3-14.278-7.2-21.337-10.956a57.631,57.631,0,0,0-10.176-4.349,20.109,20.109,0,0,1-2.62-1.126.809.809,0,0,1-.44-.515c-.04-.525.439-.412.722-.42a44.711,44.711,0,0,0,10.585-1.67,21.364,21.364,0,0,0,5.218-2.322c.275-.162.425-.534.633-.81a3.2,3.2,0,0,0-.963-.216c-2.375.235-4.712.8-7.132.656-1.559-.094-3.089-.143-4.248-1.4a89.634,89.634,0,0,1,7.28-5.752c2.768-1.782,2.932-4.691,3.9-7.288.072-.195.085-.545-.032-.652-.338-.313-.648.032-.841.238-3.345,3.56-6.8,7.03-9.368,11.237a4.324,4.324,0,0,0-.848,2.314c-1.106-.607-.936-1.548-.625-2.5a48.415,48.415,0,0,1,7.1-14.4c3.589-4.742,8.8-6.8,14.332-8.218.459-.118,1.018-.209,1.262.273.233.463-.085.91-.458,1.244-1.334,1.2-2.685,2.38-4,3.6a2.988,2.988,0,0,0-.456.9,4.15,4.15,0,0,0,1.014.253c1.666-.009,2.866-1.035,4.163-1.9,3.325-2.219,6.823-3.989,11-3.743.358.021.719.009,1.076.038.6.048,1.319.106,1.4.805.032.26-.582.708-.984.891-.866.4-1.795.649-2.681,1q-3.159,1.27-6.3,2.6a3.54,3.54,0,0,0-.79.658,3.4,3.4,0,0,0,.842.457,19.128,19.128,0,0,0,3.858.718c2.528.018,5,.47,7.492.719a8.332,8.332,0,0,1,1.221.308,13.048,13.048,0,0,1-1.393.22c-7.771.417-14.033,4.348-20.137,8.642-.386.271-.9.658-.686,1.113.105.22.9.266,1.315.158,2.7-.7,5.491-.371,8.2-.853,1.1-.2,2.478-.408,3,.533.654,1.187-.691,2.039-1.4,2.9a36.847,36.847,0,0,1-7.094,6.007c-1.663,1.211-1.669,1.452.2,2.233,5.239,2.194,9.647,5.717,14.35,8.767a22.256,22.256,0,0,1,2.269,1.751c.253.215.609.688.529.847-.238.471-.791.4-1.222.27-1.6-.489-3.177-1.026-4.768-1.533-.319-.1-.655-.15-.984-.223-.078.576.472.657.763.921.384.349.812.679,0,.931-.727.226-1.128.367-.182.9,5.065,2.835,10.365,4.892,16.273,4.968,2.63.033,4.993.666,6.5,3.058.369.585,1.03,1.279.622,1.934-.421.674-1.311.408-1.987.2a100.194,100.194,0,0,0-11.491-2.73c-.658-.123-1.481-.727-1.917-.04-.237.374.613.908,1.056,1.3a11.021,11.021,0,0,1,1.042.982c.838.974.694,1.7-.62,2-.694.154-1.414.188-2.12.291-.351.052-.951.062-1,.221-.15.506.295.842.676,1.11a117.428,117.428,0,0,1,10.25,8.425c.983.871,1.917,1.8,2.826,2.749a2.7,2.7,0,0,1,.36.957,6.845,6.845,0,0,1-1.016.265c-2.063.221-4.014-.574-6.042-.685-.412-.022-1-.438-1.18.134-.074.237.459.782.824,1.021,1.3.849,2.613,1.672,3.967,2.423a30.531,30.531,0,0,1,9.953,9.154,15.118,15.118,0,0,1,1.353,2.5,1.153,1.153,0,0,1-.009.986c-.387.491-.831.16-1.208-.136-1.6-1.256-3.168-2.547-4.8-3.75-.4-.293-.8-1.086-1.445-.48-.118.111.234.834.481,1.2,2.225,3.29,3.605,6.992,5.228,10.578,2.021,4.463,3.577,9.1,5.275,13.688.249.674.386,1.745,1.076,1.677.912-.089.861-1.233,1.026-2.008.245-1.15-.217-2.367.315-3.494,1.384.673,1.895,2.068,2.6,3.265a29.25,29.25,0,0,1,3.163,6.017,3.062,3.062,0,0,0,.625,1.275c.674.66,1.462,1.681,2.2,1.674.843-.007,1.044-1.351,1.4-2.187.931-2.2.681-4.484.354-6.725a64.335,64.335,0,0,0-3.02-12.522c-.526-1.461-.935-2.964-1.389-4.451-.138-.452-.432-1.063-.009-1.333s.815.281,1.1.622a32.613,32.613,0,0,1,4.638,7.646,46.868,46.868,0,0,1,3.923,11.876c.112.722.165,1.636,1.036,1.626s1.01-.923.976-1.644c-.153-3.218.125-6.436-.409-9.662-.564-3.407-.774-6.874-1.084-10.32-.063-.693-.137-1.813.233-2.049,2.559-1.632.737-2.768-.036-4.451-1.294-2.818-2.724-5.57-4.025-8.383-.133-.287-.464-.484-.7-.722-.016.341-.042.682-.047,1.024-.033,2.154-.034,4.309-.114,6.461-.019.517.149,1.307-.716,1.385-.759.068-.925-.606-1.154-1.143-.514-1.208-1.017-2.421-1.529-3.629a37.539,37.539,0,0,0-5.4-9.255c-.5-.609-1.468-1.206-.979-2.091.343-.62,1.3-.5,2.008-.386,1.726.27,1.385-.226.656-1.324-.91-1.372-1.759-2.649-3.473-3.116-.333-.091-.845-.664-.624-1.137s.88-.344,1.277-.214c4.3,1.413,8.776,2.475,11.9,6.172.316.374.629,1.133,1.291.749.2-.114.1-.89,0-1.332-.226-1-1.488-2.167-.766-2.862,1.023-.983,2.1.487,3.169.855.676.232,1.31.615,2,.777a2.578,2.578,0,0,0,1.719-.015c.824-.508.185-1.286-.021-1.9-1.362-4.072-2.277-8.317-4.63-12.009-.236-.37-.676-.9-.14-1.232.215-.133.854.247,1.2.521a46.58,46.58,0,0,0,13.392,7.519c.808.289,1.871,1.176,2.573.167.457-.656-.242-1.595-.658-2.305-.48-.82-1.155-1.527-1.611-2.358-.3-.55-1.377-.945-.823-1.633.416-.516,1.377-.266,2.051-.049a10.87,10.87,0,0,1,4.7,3.178,16.181,16.181,0,0,1,3.63,5.3c.795,2.286,2.985,2.159,4.563,3.04.818.457.507-.49.395-.789a20.705,20.705,0,0,0-6.087-8.733c-2.012-1.693-4.111-3.283-6.167-4.925-.364-.291-.852-.615-.524-1.137.142-.227.622-.328.952-.337,2.273-.066,4.549-.06,6.82-.15.781-.031,1.938.21,2.09-.845.1-.691-.91-.988-1.557-1.25a65.3,65.3,0,0,1-7.69-3.837c-4.4-2.494-7.782-6.331-12.062-8.976a3.806,3.806,0,0,1-1.106-1.387,1.255,1.255,0,0,1-.037-.981c.194-.454.619-.173.934-.092,1.5.386,3.007.766,4.5,1.2,2.816.818,5.435.072,8.026-.949.219-.086.6-.2.6-.31.006-.446-.432-.291-.687-.385-.446-.165-.887-.348-1.345-.471-7.925-2.122-14.544-6.5-20.613-11.856a32.957,32.957,0,0,0-9.9-5.66c-1.88-.747-3.8-1.408-5.632-2.256-.779-.361-2.271-.43-2-1.584.167-.7,1.5-.236,2.28-.087q3.337.635,6.649,1.4c.679.157,1.313.562,2,.061-.6-.37-1.171-.791-1.8-1.1a37.148,37.148,0,0,0-10.267-2.957c-8.332-1.433-16.737-2.6-24.487-6.317a24.367,24.367,0,0,0-2.374-.79c-5.165-1.837-10.053-1.732-14.469,1.976a10.506,10.506,0,0,1-1.846,1.1c-.165.089-.5.139-.579.049a.692.692,0,0,1-.131-.625,21.218,21.218,0,0,1,1.792-3.089c2.515-3.214,5.241-6.218,8.95-8.134a14.671,14.671,0,0,0,1.463-.984,3.609,3.609,0,0,0-1.765-1.034c-3.118-1.1-6.139-.527-9.095.595a25.44,25.44,0,0,0-10.639,7.682c-.351.422-.7,1.115-1.378.645-.414-.287-.288-.915-.114-1.344.4-.993.905-1.946,1.342-2.926.22-.49.982-.8.537-1.522a16.133,16.133,0,0,0-1.436,1.017,115.057,115.057,0,0,0-10.74,11.563c-.287.334-.8.883-.7,1.064.255.481.839.186,1.3.143,1.443-.137,1.455.648.759,1.454a16.73,16.73,0,0,1-6.635,4.757c-2.978,1.157-5.982,2.25-8.975,3.37l.12-.093c-.587.112-1.184.19-1.761.341-3.224.844-3.22.85-3.305,4.189-.015.6-.033,1.2-.088,1.793a1.277,1.277,0,0,1-.7,1.168c-.744.306-1.069-.33-1.372-.789a16.826,16.826,0,0,1-1.419-2.486c-2.913-6.69-6.841-7.938-14.388-6.6a43.832,43.832,0,0,0-17.3,7.469c-.393.272-.762.583-1.172.826-.463.275-.979,1.025-1.487.332-.393-.535.252-1.089.6-1.518.675-.837,1.44-1.6,2.162-2.4,3.889-4.3,8.718-7.448,13.31-10.886,1.416-1.059,2.961-1.969,3.873-3.571-1.912-.451-3.666.28-5.426.793a33.535,33.535,0,0,0-16.42,10.377c-.7.815-1.463,1.584-2.232,2.338-.932.913-2.415,2.789-2.814,2.425-1.132-1.028.382-2.272.718-3.464.088-.314.189-.832.032-.97-.469-.413-.8.116-1.149.363A42.071,42.071,0,0,0,313.662,233.1c-.234.38-.45,1.075-.936.933-.451-.132-.363-.823-.282-1.274.842-4.7,3.646-8.209,6.95-11.406a8.3,8.3,0,0,1,1.717-1.29c9.029-5,17.621-10.918,27.8-13.528a26.753,26.753,0,0,1,8.873-.948c.784.065,1.74.176,2.071,1.131s-.316,1.574-.907,2.178a34.292,34.292,0,0,1-7.276,5.2c-.4.24-.848.583-.682,1.109.049.153.631.189.969.19,1.436,0,2.875.018,4.309-.047a15.848,15.848,0,0,1,8.938,2.078,5.118,5.118,0,0,0,4.725.233,32.155,32.155,0,0,0,16.1-11.927c4.49-6.248,10.4-10.9,18.1-12.7,3.563-.834,7.219-1.275,10.825-1.929a13.134,13.134,0,0,1,12.061,4.1c1.914,1.956,1.756,2.644-.538,4.273-.374.265-.9.344-.984.917-.082.539.358.515.661.617,7.091,2.37,13.875,5.637,21.355,6.888a18.241,18.241,0,0,0,8.4-.956c2.246-.656,2.433-2.748,3.077-4.492.254-.689.323-1.432,1.314-1.329.742.076.892.711,1.123,1.245a6.066,6.066,0,0,1-.729,5.816c-.92,1.456-.372,1.832.868,2.132a30.288,30.288,0,0,1,13.049,7.156,18.859,18.859,0,0,1,5.652,7.71c.764,2.163,2.589,3.044,4.4,3.945a75.4,75.4,0,0,0,14.859,5.032c1.824.475,3.747.836,5.209,2.215,1.868,1.76,1.708,2.585-.7,3.5-.442.169-1.02.233-.962.84.055.572.686.514,1.084.7,11.2,5.271,18.6,13.907,22.627,25.536a26.561,26.561,0,0,1,1.261,10.243c-.045.849-.028,1.844-.906,2.192-1.171.464-1.566-.778-2.192-1.385a10.652,10.652,0,0,1-1.859-3.442c-.449-.966-.691-2.032-1.169-2.981-.3-.6-.7-1.531-1.49-1.272-.471.155-.162,1.065-.06,1.656,2.268,13.172-.438,25.605-5.67,37.645a12.49,12.49,0,0,1-2.3,3.608c-.67.714-1.476,1.641-2.369,1.424-2.826-.689-2.592,1.458-2.748,2.919-.692,6.475-3.914,11.665-8.038,16.435-.157.181-.3.428-.5.51-3.347,1.358-3.894,4.253-4.311,7.383-.431,3.235-1.4,6.281-4.427,8.228-1.042.669-1.219,2-1.543,3.139a36.243,36.243,0,0,1-4.789,10.729,2.611,2.611,0,0,0-.681,2.492c.4,1.556-1.607,1.525-2.725,1.867-.525.161-1.551.124-1.677-.142-.288-.608.506-.854.95-1.132.9-.566,1.917,3.939,0,3.074-3.4-1.532-5.026-9.7-7.342-12.38a28.4,28.4,0,0,1-2.365-4c-.979-1.612-1.734-3.342-3.533-4.39a6.811,6.811,0,0,1-1.887-2.563,51.809,51.809,0,0,1-3.777-8.084c-2.487-6.687-4.911-13.4-7.366-20.1-.111-.3-.262-.814-.433-.831-.571-.056-.7.48-.908.915-1.164,2.455-1.049,4.731-.242,7.446,6.754,22.709,13.225,45.5,19.608,68.321,7.023,25.107,14.312,50.139,21.515,75.2.888,3.088,2.007,6.109,2.93,9.189a4.274,4.274,0,0,0,3.408,3.163,23.336,23.336,0,0,1,9.259,4.514c5.324,4.542,11.742,5.716,18.319,6.072,4.493.242,9.023,1.288,13.555.137a2.9,2.9,0,0,1,1.735.224,2.269,2.269,0,0,1,1.19,2.408c-.023.957-.89.973-1.523,1.229a.864.864,0,0,1-.346.088c-5.082-.227-9.468,2.057-14,3.837-5.244,2.06-10.372.77-15.4-.855a65.236,65.236,0,0,1-11.047-5.068,8.414,8.414,0,0,1-1.123-.877,1.581,1.581,0,0,1,1.359-.058c2.519.723,5.023,1.5,7.556,2.172,2.414.641,4.835,1.309,7.294,1.721a16.651,16.651,0,0,0,8.139-.668q.456-.153.911-.31c-.341-.1-.677-.215-1.023-.284-2.338-.466-4.663-1.024-7.021-1.358a44.067,44.067,0,0,1-12.837-4.232c-10.23-4.886-20.693-9.18-31.9-11.348-.936-.181-1.891-.265-2.825-.453-.385-.078-1.09.151-1.022-.579.051-.544.618-.656,1.1-.719,1.895-.251,3.788-.531,5.69-.719,1.069-.106,2.153-.041,3.23-.075,1.038-.033,2.414.262,2.523-1.248.087-1.2-1.136-1.3-2.05-1.549a20.461,20.461,0,0,0-9.243-.368c-2.69.5-5.34,1.206-8.02,1.764-.5.1-1.275.348-1.5-.36-.15-.474.47-.784.87-1.022a13.9,13.9,0,0,1,3.552-1.664c1.611-.423,3.206-.915,4.789-1.437a17.383,17.383,0,0,0,1.926-.9c-.625-.442-1.31-.191-1.972-.16-.813.039-1.789.983-2.344.294-.719-.893.632-1.258,1.045-1.864.618-.906.082-1.293-.629-1.6a16.04,16.04,0,0,0-5.2-1.217c-7.164-.527-14.069.278-20.463,3.888-2.384,1.347-4.869,2.516-7.293,3.794-.383.2-.885.523-.506,1.054.1.144.66.059.962-.051,2.919-1.062,5.808-2.21,8.746-3.214,2.032-.694,4.122-1.226,6.2-1.773a4.785,4.785,0,0,1,1.395.056,5.4,5.4,0,0,1-.974.9q-3.925,2.166-7.891,4.264a24.4,24.4,0,0,0-6.422,5.121,11.715,11.715,0,0,0-2.536,5.08c-.126.452-.3.976.143,1.335s.895.083,1.312-.122c3.577-1.761,7.466-2.5,11.289-3.454,1.081-.27,2.639-1.155,3.108.321.44,1.386-1.186,1.876-2.332,2.117-9.3,1.954-13.438,9.3-17.513,16.714-.212.386-.638.9-.159,1.264.436.335.826-.182,1.208-.416a62.536,62.536,0,0,1,15.491-6.533c.488-.141,1.084-.393,1.552.148a8.527,8.527,0,0,1-1.145.818,142.036,142.036,0,0,0-25.209,15.749,55.361,55.361,0,0,0-5.159,4.444c-.21.213-.211.632-.309.956a2.711,2.711,0,0,0,.967.23,27.883,27.883,0,0,1,7.145-.4c.329.033.805.153.928.385.283.531-.193.885-.581,1.134-1.106.708-2.255,1.349-3.364,2.054a28.929,28.929,0,0,0-9.976,10.118q-5.484,9.677-10.947,19.364a19.523,19.523,0,0,0-2.7,9.922c0,.553-.239,1.3.45,1.527.484.16.733-.5,1.065-.818,2.775-2.7,4.743-5.99,6.8-9.218.2-.309.36-.959.945-.652.134.07.086.667-.017.975-.342,1.018-.768,2.008-1.119,3.024-.152.442-.385,1.27-.271,1.33,2.875,1.5.57,4.118,1.324,6.082.483,1.259-.162,2.754,1.081,4,.813.813-.147,1.977-.562,2.919a71.1,71.1,0,0,0-4.988,17.5,8.177,8.177,0,0,0,.014,1.407,9.166,9.166,0,0,0,.89-1.017,31.085,31.085,0,0,1,6.592-7.047c.368-.3.815-.631,1.259-.33.5.339.239.877.026,1.286a75.875,75.875,0,0,0-5.1,12.587,32.027,32.027,0,0,0-1.75,11.98c.054.714.081,1.431.176,2.14a1.216,1.216,0,0,0,.855,1.012c.1.031.459-.507.572-.827.236-.671.337-1.391.583-2.057a22.5,22.5,0,0,1,2.878-6.133c.345-.45.642-1.223,1.306-1.024.8.243.306.983.236,1.5-.383,2.84-.966,5.664-1.15,8.516-.334,5.162.05,10.279,2.163,15.1.832,1.9,1.443,1.9,2.631.207a8.658,8.658,0,0,0,1.316-4.4c.478-5.227.547-10.5,2.011-15.613,1.194-4.168,2.669-8.175,5.592-11.493.323-.367.68-.752,1.153-.446.171.112.16.662.083.975-.857,3.473-1.668,6.961-2.644,10.4a71.505,71.505,0,0,0-1.758,10.224,23.568,23.568,0,0,0,.048,4.3c.031.578.217,1.466.809,1.4.5-.055.261-.992.363-1.536.284-1.525.527-3.061.914-4.559.131-.51.375-1.265,1.043-1.3.791-.038.794.719.889,1.292.821,4.923,3.78,8.7,6.723,12.474.273.351.554.979,1.058.785.52-.2.229-.825.158-1.241a72.587,72.587,0,0,1-.861-13.579,27.154,27.154,0,0,1,1.494-8.791,79.618,79.618,0,0,0,4.589-22.756c.019-.348-.4-1.038.391-1.045.23,0,.518.456.69.755a23.779,23.779,0,0,1,2.519,7.8c.1.56.242,1.409.859,1.408.585,0,.821-.829.933-1.394.535-2.693,1.007-5.4,1.508-8.1.085-.463.205-.919.309-1.378.512.23.492.758.627,1.178.911,2.845,1.8,5.7,2.7,8.546.18.568.368,1.322,1.045,1.281.716-.043.7-.854.743-1.4.182-2.5.307-5.013.466-7.519a5.061,5.061,0,0,1,.192-1.335c.748-.019.869.68,1.093,1.2a40.037,40.037,0,0,1,2.252,7.172c.1.455.294,1.008.9.857.213-.052.439-.538.453-.836.569-11.6,6.864-21.263,10.763-31.733.751-2.016,1.654-3.976,2.53-5.943.167-.376.317-.919.88-.873a2.269,2.269,0,0,1,.119,1c-.064.712-.222,1.416-.294,2.128-.034.329-.033.934.079.966,3.391.952,1.555,3.355,1.31,5.124-.606,4.37-1.467,8.706-2.192,13.06a2.557,2.557,0,0,0,.165,2.034q.675-.553,1.348-1.109a3.537,3.537,0,0,1,.262-.245c.924-.6,1.635-2.447,2.673-1.679.887.656-.273,2.211-.732,3.243a65.628,65.628,0,0,0-5.017,17.512,15.371,15.371,0,0,0-.261,1.769c-.024.947-.166,2.21.928,2.46.94.214,1.163-1.022,1.507-1.738,1.915-4,3.866-7.967,6.8-11.348.3-.349.565-.945,1.067-.762.2.073.205.824.212,1.267.1,6.221.127,12.419-1.025,18.593-.5,2.673-.264,5.486-.32,8.237-.009.437.1,1.169.347,1.259.528.194.761-.432.959-.838.734-1.5,1.4-3.039,2.151-4.534a26.181,26.181,0,0,1,1.615-2.787c.247-.371.7-.833,1.067-.838.479,0,.584.652.669,1.087.389,1.992.685,4,1.113,5.986a56.946,56.946,0,0,0,5,14.9c1.236,2.33,1.251,2.44,3.372.586,1.11-.971,1.888-.408,2.889.049,1.911.873,2.211.668,2.321-1.431.094-1.792.1-3.589.161-5.383.013-.353.045-.966.193-1.007.574-.157.788.419.989.8,2.341,4.437,5.6,8.362,7.33,13.14.205.566.4,1.253,1.04,1.353.832.129,1.254-.591,1.583-1.214,1.118-2.112,2.194-4.246,3.274-6.378.22-.433.461-.927.981-.85.227.034.433.538.562.863.925,2.333,1.824,4.677,2.739,7.015.207.528.358,1.3,1.063,1.161a1.172,1.172,0,0,0,.739-1.471c-1.51-6.357.137-12.871-1.042-19.274a14.245,14.245,0,0,1,1.777-10.053,19.04,19.04,0,0,0,3.2-10.113c0-.41-.176-1.022.452-1.162.545-.122.851.343,1.138.716q1.313,1.705,2.595,3.435c.345.47.569,1.355,1.148,1.205s.292-1.008.217-1.524c-.93-6.371-1.775-12.746-3.817-18.912a94.546,94.546,0,0,0-5.8-13.456c-1.142-2.223-2.3-4.476-2.457-7.047a5.512,5.512,0,0,1,.269-1.374,4.9,4.9,0,0,1,1.324.4,14.634,14.634,0,0,1,3.482,3.582,73.965,73.965,0,0,1,7.548,13.41c.168.358.312.96.887.831.131-.03.176-.649.182-1a33.034,33.034,0,0,0-1.192-8.5c-.082-.332-.17-.909-.017-1.01.572-.377.694.316.919.591a35.269,35.269,0,0,1,4.555,8.105,12.9,12.9,0,0,0,7.149,6.7c2.454,1.042,3.761.218,3.487-2.446-.281-2.726-.907-5.417-1.381-8.123-.133-.763-1-1.669-.2-2.216.395-.269,1.023.828,1.433,1.4a47.633,47.633,0,0,0,6.742,6.941c.509.471,1.031,1.239,1.792.855a1.888,1.888,0,0,0,.723-2.234,66.884,66.884,0,0,0-1.551-6.623,220.06,220.06,0,0,0-8.925-24.161c-.579-1.287-1.44-2.409-.983-4.037.4-1.439-.946-2.382-1.662-3.4a202.153,202.153,0,0,0-13.247-16.944c-.389-.444-1.115-.987-.857-1.429.307-.525,1.079-.03,1.652.065,4.409.735,8.409,2.607,12.428,4.433.387.176.834.741,1.2.332.213-.238.087-.919-.072-1.328-2.5-6.415-6.778-10.563-14-11.076a34.515,34.515,0,0,1-9.391-2.142,27.727,27.727,0,0,1-3.509-1.752.733.733,0,0,1-.294-.62c.081-.417.479-.428.8-.34,5.545,1.515,11.341,1.413,16.932,2.679,5.012,1.134,8.617,3.826,10.695,8.589a41.353,41.353,0,0,1,3.089,12.085c.114,1.025.4,2.3-1.345,2.289-1.788-.012-1.3.844-.672,1.744,2.805,4.015,5.712,7.963,8.4,12.052,5.271,8.008,9.57,16.459,11.941,25.849s.981,18.472-1.782,27.488c-.226.735-.4,1.694-1.475,1.811-1.28.14-1.537-.878-1.938-1.732a10.926,10.926,0,0,0-.786-1.594c-.959-1.385-2.01-1.337-2.6.192a17.324,17.324,0,0,0-1.017,6.325,44.779,44.779,0,0,1-2.111,14.827,45.327,45.327,0,0,1-2.432,5.55c-.777,1.535-1.669,3.02-3.756,1.338-1.114-.9-1.384.261-1.682,1a18.609,18.609,0,0,1-4.509,6.815c-2.2,2.056-2.817,1.9-4.157-.729-.8-1.573-1.192-3.356-2.412-4.714-.935,1.6-.243,3.361-.475,5.036a23.024,23.024,0,0,1-1.45,6.25c-1.719,3.892-4.2,4.31-7.16,1.357-1.069-1.066-1.369-3.251-2.82-3.3-1.2-.038-1.8,1.98-2.923,2.91-4.162,3.449-8.381,6.751-13.754,8.1-1.731.434-3.5.715-5.263,1.021-1.341.233-2.783-.057-2.874,2.2-.048,1.16-2.361,1.548-3.635.37a7.364,7.364,0,0,0-5.544-1.815c-2,.007-3.576-1.2-5.074-2.432-1.29-1.057-2.433-1.487-3.261.567a5.089,5.089,0,0,1-1.748,2.235,2.8,2.8,0,0,1-2.705.493c-1.055-.4-.716-1.422-.617-2.183.322-2.474-.775-3.762-3.121-4.4a9.874,9.874,0,0,1-6.6-5.1c-.245-.484-.507-1.209-1.266-1.035-1,.231-.661,1.12-.672,1.762-.019,1.2.113,2.393.093,3.588-.05,2.982-1.4,4.06-4.077,2.867a13.661,13.661,0,0,1-7.24-6.635c-.463-1-.377-2.845-1.486-2.782s-1.217,1.89-1.447,2.994c-.833,4.006-2.533,7.451-5.885,9.93-2.76,2.041-3.8,1.807-5.695-1.126a19.3,19.3,0,0,1-2.62-6.237,9.051,9.051,0,0,0-4.926-6.176c-.834-.463-1.707-.864-2.5-1.38-3.3-2.136-6.415-2.2-9.958-.124-3.812,2.234-5.509,1.459-7.214-2.619a60.188,60.188,0,0,1-2.725-8.108,2.063,2.063,0,0,0-2.474-1.836c-4.426.161-8.854.35-13.281.36-27.893.064-55.787-.006-83.68.14-33.758.177-67.515.542-101.273.785q-9.336.068-18.673-.2c-1.98-.056-3.022.472-3.671,2.454a51.11,51.11,0,0,1-2.985,6.5c-.783,1.587-1.873,2.275-3.776,1.541-1.33-.512-2.674-.985-3.964-1.6-3.3-1.561-9.956-.381-12.346,2.275a7.56,7.56,0,0,0-1.264,2.917c-1.181,3.745-2.269,7.538-4.242,10.977-1.718,2.993-2.493,3.2-5.355,1.383a14.968,14.968,0,0,1-6.8-9.706c-.417-1.851-.879-3.692-1.362-5.527-.1-.386-.013-1.058-.673-1-.521.048-.69.552-.852,1.03a27.013,27.013,0,0,1-2.138,5.288c-1.325,2.223-3,4.056-5.64,4.621-1.793.385-2.376-.094-2.614-1.932-.108-.827-.045-1.676-.118-2.509-.115-1.308.177-3.283-.529-3.763-1.14-.776-1.88,1.337-3.114,1.654-5.419,1.393-4.89,6.342-6.089,10.244-.132.428.083.952.047,1.424-.09,1.158-.815,1.362-1.767,1.031a9.114,9.114,0,0,1-4.311-3.657c-.9-1.275-1.546-1.212-2.459-.134a7.187,7.187,0,0,1-6.061,2.551,6.573,6.573,0,0,0-4.606,1.449c-1.874,1.455-2.785,1.194-4.29-.966a2.2,2.2,0,0,0-2.02-1.1c-8.263-.088-14.844-3.927-20.722-9.32-1.845-1.693-1.839-1.694-3.279.194-.29.38-.648.713-.907,1.111-1.854,2.851-3.614,2.966-6.12-.344-1.931-2.552-2.01-5.8-2.122-8.913-.055-1.553-.03-3.11-.077-4.664a2.164,2.164,0,0,0-.265-.973c-.623.038-.465.625-.614,1.018-.886,2.334-1.748,4.677-2.7,6.986-.886,2.154-1.071,2.18-2.964.729a16.987,16.987,0,0,1-5.3-7.089c-.592-1.4-1.015-3.09-3.117-1.358-.96.792-1.785-.062-2.372-.867a20.745,20.745,0,0,1-3.571-8.117,77.765,77.765,0,0,1-1.3-13.9c-.036-1.53.1-3.112-.91-4.488-.81-1.1-1.573-1.441-2.535-.229-.148.186-.276.389-.424.576-.7.876-.934,2.518-2.519,2.048-1.319-.392-1.309-1.892-1.616-2.976a47.974,47.974,0,0,1,3.168-34.809,77.646,77.646,0,0,1,9.34-14.41c3.034-3.851,6.1-7.68,9.143-11.521.223-.28.428-.575.633-.87.341-.489.841-1.056.5-1.611-.436-.7-1.285-.5-1.956-.361-.811.171-1.586.511-2.382.762-2.052.645-2.214.612-1.967-1.315.681-5.3,2.678-9.9,7.5-12.787a17.342,17.342,0,0,1,4.142-2.072c.264-.074.427-.508.637-.776a3.828,3.828,0,0,0-.9-.284c-3.627-.2-6.289-2.734-9.509-3.92a1.525,1.525,0,0,1-1.088-1.982c.3-.939,1.14-.735,1.8-.69,7.294.5,14.119-1.641,21.034-3.491,3.375-.9,5-2.625,5.915-6.047q15.991-60.03,32.276-119.983c2.392-8.842,4.952-17.636,6.839-26.608.512-2.432.512-4.731-1-6.859-.743-1.049-1.046-2.755-2.876-.88-.852.873-1.742-.321-2.224-1.107a24.782,24.782,0,0,1-2.9-6.9,137.98,137.98,0,0,1-3.649-23.278c-.211-2.74-.478-5.477-.728-8.214-.021-.233-.065-.63-.174-.658-.382-.1-.593.223-.727.53a12.187,12.187,0,0,0-1.244,5.156c.063,3.1-.332,6.228.391,9.3.32,1.358-.373,1.827-1.536,1.626a8.48,8.48,0,0,1-6.533-5.014,35.627,35.627,0,0,1-2.281-7.881,18.345,18.345,0,0,1-.641-4.6c.15-2.757-1.181-4.531-3.264-5.957-7.1-4.862-9.994-11.9-10.484-20.192-.042-.7-.073-1.972-.238-1.993-.958-.126-1.32.839-1.835,1.447-1.619,1.915-3.179,3.88-4.766,5.822a3.889,3.889,0,0,1-1.963,1.5c-1.2.312-2.147.1-2.392-1.333a25.156,25.156,0,0,1-.127-6.8,43.559,43.559,0,0,1,6.478-19.513c.253-.4.735-1.007.609-1.214-.391-.645-1-.2-1.539-.02a6.788,6.788,0,0,1-1.4.278c-1.325.145-1.787-.565-1.437-1.724a8.476,8.476,0,0,1,1.144-2.2,22.324,22.324,0,0,1,8.2-7.336c1.37-.728,2.757-1.424,4.117-2.171.275-.151.678-.5.647-.7a1.125,1.125,0,0,0-1.052-.823c-1.154-.187-2,.666-3.026.922-1.086.272-2.321,1.594-3.232.521-.972-1.145.565-2.124,1.15-3.042a68.5,68.5,0,0,1,5.983-8.048c6.5-7.518,14.581-10.95,24.536-9.683.519.066,1.16.631,1.538-.145.246-.507-.314-.844-.548-1.233a18.708,18.708,0,0,1-2.5-7.4,5.594,5.594,0,0,1,.215-2.819c.353-.915.953-1.01,1.648-.476a23.48,23.48,0,0,1,2.147,1.9c4.5,4.432,10.325,6.269,16.077,8.263a4.262,4.262,0,0,0,2.433-.115c3.418-.725,6.444-2.443,9.658-3.679,1.134-.436,1.654-.985.491-2-.937-.817-.561-1.31.4-1.823,3.979-2.123,8.348-2.874,12.712-3.443,8.528-1.112,17.058-2.259,25.65-2.807.477-.031.956-.073,1.432-.059a2.3,2.3,0,0,1,.635.211,2.373,2.373,0,0,1-.566.391c-1.134.368-2.288.674-3.416,1.058a91.167,91.167,0,0,1-16.671,3.979c-.365.052-1.007-.215-1,.469,0,.187.535.531.826.532,3.876.011,7.491,2,11.579,1.131,1.68-.355,1.117-1.928,2.447-2.277,2.879-.757,5.627-2,8.708-1.806,6.884.426,12.5,3.711,17.819,7.748,1.206.916,1.23,2.538,2.353,3.529.715.63,2.222,1.252,1.577,2.322-.305.507-1.934-.285-2.919-.691-1.211-.5-2.444-.947-3.673-1.4-.33-.122-.778-.271-.953.1a1.062,1.062,0,0,0,.214.928c2.514,2.722,4.933,5.592,9.028,5.94a23.9,23.9,0,0,1,2.823.523c.448.094.975.05,1.233.569a8.161,8.161,0,0,1-1.4.244c-4.194.009-8.367.349-12.536.76-1.774.175-4.58.3-4.656,1.667-.1,1.793,2.651,1.9,4.294,2.24,4.254.877,8.574.543,12.86.146,1.774-.164,3.516-.668,5.277-.987.813-.147,2.136-.562,2.338.048.287.868-1.006,1.021-1.7,1.409-2.851,1.594-6.108,2.01-9.1,3.185-.424.166-1.17.165-1.132.668.033.436.747.311,1.184.373,1.134.161,2.894-.559,3.265.624.528,1.687-1.428,2.249-2.552,2.944a61.927,61.927,0,0,1-20.221,7.9c-1.367.282-2.716.652-4.074.982.955,1.447,2.566,1.6,4.031,2,3.6.97,7.125.3,10.6-.683a62.538,62.538,0,0,0,10.56-4.425c.647-.32,1.538-1.364,2.153-.428.441.671-.508,1.475-1.076,2.061-1.747,1.806-3.483,3.628-5.306,5.355-3.91,3.7-7.876,7.348-11.808,11.027-.307.287-.893.614-.585,1.067.288.423.926.211,1.338.021a75.4,75.4,0,0,0,13.692-8.439A99.414,99.414,0,0,0,210.652,250c.248-.235.76-.59.868-.509.528.392.131.83-.117,1.211-1.371,2.1-2.578,4.305-3.89,6.44-1.051,1.709-1.481,3.745-2.87,5.4-3.1,3.688-7.167,5.939-11.33,8.047a48.224,48.224,0,0,0-6.446,3.861,80.451,80.451,0,0,1-18.989,9.906c-1,.376-2.047.645-3.041,1.041-.388.155-.94.332-.884.89.011.108.648.136.988.228,4.174,1.124,8.08.137,11.795-1.7,3.962-1.953,7.814-4.128,11.743-6.151a29.27,29.27,0,0,1,3.634-1.474,1.113,1.113,0,0,1,.971.239c.127.13,0,.7-.193.91-.555.618-1.195,1.159-1.809,1.724-6.518,6-12.879,12.154-17.827,19.582a36.934,36.934,0,0,0-2.071,3.753c-.207.407-.408,1.039.01,1.33.474.331.771-.278,1.037-.589,1.164-1.362,2.237-2.807,3.451-4.122,6.605-7.159,14.9-11.426,24.163-14.009a1.815,1.815,0,0,1,1.685.1,4.7,4.7,0,0,1-.926,1.042c-10.727,6.447-16.541,16.608-20.969,27.791-1.007,2.542-1.753,5.187-2.612,7.788-.227.687-.559,1.759-.059,2.013.716.364.9-.751,1.3-1.236,1.968-2.4,3.9-4.842,5.888-7.228.2-.236.415-.983.972-.453.113.108-.08.647-.244.921-4.308,7.233-6.292,15.2-6.971,23.466-.632,7.695.707,15.225,2.919,22.6.09.3.408.536.62.8a3.071,3.071,0,0,0,.3-.847c.157-3.825.8-7.608.8-11.456a56.45,56.45,0,0,1,2.525-17.3c.168-.527.1-1.521.686-1.485.553.034.308.953.274,1.467a86.5,86.5,0,0,0,.058,11.842,47.11,47.11,0,0,0,2.691,13.639c.168.438.371.863.558,1.294.437-.287.434-.766.537-1.2a27.606,27.606,0,0,0,.477-5.715c.138-5.5.636-10.97,1.293-16.439.85-7.068,3.52-12.977,9.323-17.382a61.8,61.8,0,0,0,9.592-9.118c1.292-1.512,3.156-2.542,4.786-3.757.572-.427,1.406-.614,1.8-1.148,3.661-4.932,8.489-3.813,13.333-2.664a12.906,12.906,0,0,1,1.345.49c.4.144.8.59,1.209.118.047-.054-.368-.568-.622-.814-3.994-3.879-8.332-7.152-14.067-7.967-.75-.106-1.843.25-1.936-1.011-.079-1.087.886-1.332,1.642-1.616a25.091,25.091,0,0,1,13.048-1.257,6.656,6.656,0,0,0,1.04.262c1.513-.012,3.646,1.557,4.328.183.733-1.474-.985-3.2-2.149-4.553-.233-.27-.535-.48-.777-.743-.3-.33-.878-.92-.819-1,.367-.473.843-.137,1.28.029a16.281,16.281,0,0,1,5.219,3.732,71.55,71.55,0,0,1,8.542,10.143c.353.481.63,1.025,1.024,1.466.375.419.884,1.162,1.389.827.585-.388-.112-1.073-.253-1.6-1.618-6.034-5.953-10.2-10.074-14.506a6.008,6.008,0,0,0-.557-.453c-8.055-6.567-14.957-6.79-23.488-.732-1.655,1.175-3.254,2.429-4.9,3.622-.238.172-.556.542-.874.208-.263-.277-.138-.616.094-.944C217.7,276.5,228.649,270.136,243,275.434a33.224,33.224,0,0,1,15.6,12.179,62.965,62.965,0,0,1,7.9,15.228c.463,1.262,2.2,3.123-.627,4.128-.206.073-.112,1.122-.08,1.713A42.642,42.642,0,0,1,263.6,324.21c-.349,1.081-.187,1.391.813,1.8a39.547,39.547,0,0,1,9.429,5.083,14.268,14.268,0,0,1,3.683,3.881c.172.287.463.6.178.917s-.641.123-.926-.09a38.713,38.713,0,0,0-3.735-2.785c-3.731-2.149-7.5-4.324-12.1-2.8a4.764,4.764,0,0,0-1.032.279c-.782.5-2.176.751-2.059,1.719.1.8,1.435.432,2.217.513a26.036,26.036,0,0,1,10.385,3.634c.351.2,1.007.473.757.912-.274.482-.867.091-1.29-.089a19.192,19.192,0,0,0-9.856-1.126,10.038,10.038,0,0,0-2.086.414,4.123,4.123,0,0,0-1.048.794c.342.091.679.209,1.026.268,1.411.243,2.827.456,4.237.7a28.594,28.594,0,0,1,10.19,4.146,4.119,4.119,0,0,1,.647.628c-.34.023-.729.165-1.013.049a41.4,41.4,0,0,0-6.841-1.934c-4.664-1.021-9.285-.368-13.826.7a57.23,57.23,0,0,0-15.854,6.36c-.5.292-1.236.8-1,1.291.225.463,1.079.207,1.668.076,2.323-.516,4.66-.972,6.969-1.545a22.937,22.937,0,0,1,6.071-.378,5.815,5.815,0,0,1,3.922,1.153c-1.177.169-2.368.275-3.53.518-10.563,2.21-20.682,5.6-29.908,11.34-.811.5-1.593,1.058-2.362,1.625-.542.4-1.453.769-1.143,1.533.2.487,1.1.217,1.678.1.464-.091.9-.324,1.362-.424.209-.045.607.016.656.136.175.429-.277.472-.519.605-5.131,2.832-8.764,7.354-12.822,11.389-3.65,3.632-7.706,6.855-11.285,10.513-6.847,7-13.34,14.365-18.009,23.1a17.688,17.688,0,0,0-1.032,2.281,2.5,2.5,0,0,0,.09,1c.23-.247.472-.485.688-.744a47.459,47.459,0,0,1,6.146-6.023c.317-.262.759-.878,1.154-.364.276.357-.325.76-.623,1.07a104.722,104.722,0,0,0-7.685,8.527,31.381,31.381,0,0,0-6.284,16.85,8.04,8.04,0,0,0,.043,1.061c.591-.059.542-.617.676-.964a59.638,59.638,0,0,1,6.923-13.7c.6-.831,1.21-2.49,2.119-2.014.87.455-.1,1.948-.5,2.877a105.73,105.73,0,0,0-7.64,30.8c-.761,7.136-.344,14.352-.3,21.533a4.327,4.327,0,0,0,.256,1.008c.459-.3.4-.791.445-1.232a124.952,124.952,0,0,1,3-17.662c2.03-8.207,5.2-15.9,10.861-22.353.55-.627,1.135-1.226,1.737-1.805.14-.134.5-.243.6-.163a.726.726,0,0,1,.2.633,7.978,7.978,0,0,1-.754,1.988c-4.721,7.424-6.533,15.873-8.347,24.268a87.321,87.321,0,0,0-2.182,21.348c.021.63-.435,1.608.374,1.838.717.2,1.1-.753,1.556-1.269a21.164,21.164,0,0,0,3.487-5.822c1.5-3.539,4.269-6.014,6.761-8.739.314-.343.761-.781,1.18-.519s.29.894.149,1.339c-1.81,5.733-2.4,11.671-3.121,17.6-.278,2.278-.184,4.533-.3,6.8a3.463,3.463,0,0,0,.213.922c.15-.306.305-.61.448-.919,1.224-2.644,1.479-5.522,1.985-8.336a43.67,43.67,0,0,1,2.342-9.01,10.831,10.831,0,0,1,.924-1.51c.459.5.186,1.066.11,1.6q-1.776,12.423-3.562,24.846a35.274,35.274,0,0,0-.311,3.571c-.033.8-.435,1.883.339,2.337.928.545.971-1.2,1.94-1.14.278.017.647-.506.849-.433.394.141.257.6.157.943-.532,1.831-1.042,3.669-1.612,5.488a24.524,24.524,0,0,0-.511,11.334c.386,2.47.367,5,.577,7.5a1.329,1.329,0,0,0,.62,1.187c.111-.336.248-.666.329-1.008.92-3.929,1.864-7.853,2.7-11.8.1-.464.73-1.991-1.068-1.231-.51.216-.8-.515-.7-.956.546-2.441.479-5.01,1.514-7.346.143-.323.3-.785.565-.885,2.174-.828,2.008-2.926,2.593-4.618,2.73-7.891,4.947-15.956,8.037-23.726a14.871,14.871,0,0,1,.73-1.629c.108-.2.023-.754.523-.485.105.056.1.451.039.66-.736,2.522-1.616,5.01-2.221,7.563a132.031,132.031,0,0,0-3.917,29.082c-.043,3.977,1.648,7.553,3.885,10.824.134.2.343.345.462.548.533.908,1.045,1.828,1.565,2.744.517-1.107.107-2.264.173-3.4.028-.476.162-1.1-.072-1.413-1.567-2.122.522-4.088.185-6.162-.244-1.5,1.559-1.944,1.907-3.438q1.421-6.1,2.757-12.213c.1-.443.032-1.133.639-1.065.531.06.348.747.426,1.174,1.349,7.393,2.514,14.824,4.553,22.073,1.986,7.058,5.957,12.985,10.638,18.5.292.344.689.916,1.071.66.482-.324-.032-.837-.223-1.24-1.331-2.809-2.609-5.645-4.015-8.415-5.282-10.4-6.32-21.534-5.083-32.863.637-5.825-.226-11.438-.724-17.134-.1-1.181-.5-2.344-.064-3.531.8.9.723,2.11.994,3.163.8,3.113,1.247,6.315,2.263,9.381.142.427.105.934.636,1.134.1-.453.242-.9.3-1.361.61-4.968.576-10.025,2.013-14.881a47.292,47.292,0,0,1,14.218-22.367c.367-.326.853-1.167,1.35-.621.415.456-.332,1.031-.709,1.428-5.041,5.306-8.263,11.66-10.695,18.473-.24.672-.4,1.376-.683,2.028a3.438,3.438,0,0,0-.335,2.742c.945-.458.758-1.541,1.237-2.261.191-.289.207-.691.384-.994.1-.168.363-.239.553-.353.06.222.205.461.165.663-.212,1.054-.434,2.109-.721,3.145a38.572,38.572,0,0,0-1.109,9.957,9.011,9.011,0,0,0,.109,1.058c.6-.168.285-.69.4-1.044.515-1.585,1-3.178,1.531-4.758a6.175,6.175,0,0,1,2.075-3.3c4.428-2.984,6.856-7.6,9.8-11.775a41.8,41.8,0,0,1,13.07-12.089c.645-.38,1.39-1.4,2.1-.666.471.485-.486,1.185-.847,1.765-.189.305-.4.6-.6.895-.759,1.135-2.052,1.957-2.064,3.529a19.653,19.653,0,0,1,3.814-.056c1.828.317,2.864-.755,3.935-1.818.386-.383-.09-.884-.2-1.332-.634-2.689-2.535-4.507-4.253-6.513-6.573-7.674-7.69-16.373-4.554-25.8.8-2.418,2.883-4.092,3.727-6.482ZM167.636,472c0-2.153,0-4.306,0-6.459-.007-2.653-.049-2.717-2.226-1.415-1.462.873-3,.626-4.535.672-.551.017-1.36-.326-1.568.207-.142.36.42,1.031.727,1.526a15.843,15.843,0,0,1,2.325,4.81c.152.683.455,1.711-.128,2.029-.778.425-.974-.7-1.4-1.159-.57-.611-1.008-1.346-1.591-1.943-3.48-3.563-7.39-6.4-12.465-7.225-.468-.076-1-.325-1.315.128s.109.888.3,1.312c1.311,2.9,3.739,4.935,5.662,7.362.889,1.121,1.746,2.269,2.6,3.42a1.635,1.635,0,0,1,.145.59c-.218.037-.48.17-.645.094a19.359,19.359,0,0,1-1.888-1.015,41.331,41.331,0,0,0-15.711-5.666,24.635,24.635,0,0,0-8.913.08,3.163,3.163,0,0,0-.891.567,4.533,4.533,0,0,0,.783.607c1.719.824,3.465,1.594,5.179,2.428a26.278,26.278,0,0,1,7.1,4.792c.284.279.928.575.56,1.034s-.855-.029-1.265-.231c-.535-.264-1.069-.531-1.6-.793-6.575-3.215-13.6-4.324-20.833-4.426a26.6,26.6,0,0,0-7.4,1.167c-1,.273-2.567.356-2.612,1.386-.047,1.069,1.505,1.319,2.489,1.694,3.958,1.506,8.187,1.51,12.3,2.171a49.029,49.029,0,0,1,14.364,4.161c.313.156.6.366.9.551-.332.067-.717.276-.989.177-1.953-.718-4.023-.542-6.029-.833-10.4-1.509-20.223.106-29.191,5.785-3.228,2.044-6.366,4.241-9.45,6.5-6.97,5.1-14.175,9.707-22.714,11.784a28.192,28.192,0,0,0-3.336,1.269c-.4.152-1.052.034-1.063.568,0,.188.766.459,1.213.579,3.653.982,7.1.175,10.452-1.286,5.383-2.343,10.242-5.629,15.3-8.55a54.977,54.977,0,0,1,14.068-6.091c.456-.114.927-.287,1.359.081a4.308,4.308,0,0,1-1.089.817c-6.924,2.262-12.724,6.493-18.629,10.552-7.886,5.421-15.782,10.715-25.6,12.255a8.126,8.126,0,0,0-6.535,6.024c-.457,1.541-.153,1.954,1.43,1.506,2.521-.714,5-1.586,7.506-2.35.653-.2,1.45-.5,1.851.4.287.647-.233,1.118-.587,1.58s-.769.917-1.164,1.365A189.939,189.939,0,0,0,48.44,545.318c-3.237,4.747-5.995,9.782-8.868,14.747-.3.518-.682,1.155.011,1.542.528.3.787-.39,1.042-.738a22.647,22.647,0,0,1,3.566-4.006c.245-.207.5-.579.84-.338s.185.637.072.985q-1.824,5.6-3.639,11.212c-.293.906-.771,1.942.148,2.648a2.774,2.774,0,0,0,3.357-.051,11.353,11.353,0,0,0,1.91-1.62c1.242-1.294,2.422-2.648,3.641-3.964.24-.259.723-.7.787-.65.5.382.149.849-.02,1.264A52.551,52.551,0,0,1,45.2,578.1a22.089,22.089,0,0,0-4.079,10.567c-.044.345-.055.964.086,1.018.557.213.693-.391.93-.717,1.615-2.223,3.113-4.546,5.335-6.246.27-.206.744-.479.949-.375.563.285.238.783.087,1.225-1.034,3.048-2.544,5.9-3.435,9.018a28.458,28.458,0,0,0-.912,11.687,7.635,7.635,0,0,0,.62,1.646c.54-.408.2-.992.284-1.488a62.011,62.011,0,0,1,3.166-10.98c.215-.565.608-1.689,1.394-.682,1.321,1.692,2.048.971,2.856-.375a20.963,20.963,0,0,1,1.6-2.38c1.067-1.326,1.509-1.224,2.207.268.552,1.18.407,2.593,1.274,3.655.584-1.189,1.208-2.361,1.743-3.572,1.013-2.29,1.988-4.6,2.951-6.909a4.271,4.271,0,0,0,.56-2.736c-1.065-4.71.651-8.965,2.362-13.185.326-.8.472-1.817,1.406-2.288.275.784.541,1.572.828,2.351a2.9,2.9,0,0,0,.45.956c.354.39.782.476,1.143-.067.827-1.246.162-3.069,1.194-4.041,1.058-1,3.047-.282,4.121-1.7a21.96,21.96,0,0,1,1.724-1.826c.579-.606,1.139-1.231,1.742-1.811a4.591,4.591,0,0,1,.851-.524A3.959,3.959,0,0,1,78.6,559.6c-1.366,4.582-2.69,9.189-5.312,13.261a57.58,57.58,0,0,0-6.747,15.922,43.086,43.086,0,0,0-1.279,10.639c-.009.324.138.894.305.931.392.087.518-.377.662-.694a22.73,22.73,0,0,1,3.353-5.9c.524-.591.991-1.666,1.924-1.284.641.262.381,1.286.364,1.971A15.787,15.787,0,0,0,73.46,602.1a32.166,32.166,0,0,1,3.116,19.158c-.176,1.4-.941,3.482.441,4.134.725.341,1.344-2.218,2.277-3.278.346-.394.38-1.3,1.15-1.034.324.111.516.738.68,1.165a68.2,68.2,0,0,0,4.58,8.924c.446.79.766,1.96,1.954,1.813,1.1-.135.823-1.32,1.08-2.045a21.016,21.016,0,0,1,2.443-5.561c3.159-4.353,6.475-8.6,9.032-13.363.156-.292.621-.737.725-.684.492.25.326.795.265,1.212a28.54,28.54,0,0,1-1.982,6.868c-.83,1.985-1.688,3.959-2.52,5.944-.272.65-.742,1.439-.111,1.988.855.745,1.566-.158,2.156-.616a12.576,12.576,0,0,0,1.949-2.09,28.893,28.893,0,0,0,4.792-8.366c.383-1.057.718-2.132,1.556-.251.236.53.457,1.239,1.173.989.3-.105.431-.794.562-1.239a18.5,18.5,0,0,0,.491-2.088c.557-3.294,1.066-6.6,1.652-9.884.164-.92.341-2.413.85-2.574.964-.305,1.438.982,2.007,1.721a27.7,27.7,0,0,1,3.313,5.1c.239.513.4,1.352,1.125,1.131.615-.186.437-1.011.442-1.565.036-4.308.037-8.617.064-12.926,0-.472-.044-1.247.184-1.357.644-.31,1.057.349,1.447.766a46.616,46.616,0,0,1,4.566,6.423c.256.388.572.884,1.124.7.532-.18.512-.748.45-1.2-.321-2.365-.6-4.739-1.031-7.085-.731-3.992-1.637-7.954-2.294-11.957-.141-.861-1.243-3.128,1.564-2.151.711.248.8-.248.759-.732-.047-.59-.223-1.17-.29-1.76-.36-3.2-.723-6.407-1.029-9.616-.034-.362-.135-1.071.594-1.006.275.024.595.368.757.646a11.905,11.905,0,0,1,.932,1.934c2.089,5.79,6.3,10.1,10.183,14.636a6.815,6.815,0,0,0,1.333,1.193c.762.518,1.35.389,1.458-.637.05-.473-.042-.96.01-1.432.146-1.326-.753-2.63-.075-3.962a11.221,11.221,0,0,1,2.777,3.22,19.216,19.216,0,0,1,2.782,6.181c.233.8.379,1.632.637,2.425.208.639.2,1.535,1.156,1.578.666.03.916-.608,1.33-1.024,1.917-1.926,1.169-4.2,1.029-6.436-.08-1.28-.4-2.607.248-3.852,1.363.833.627,2.287.987,3.419a7.037,7.037,0,0,1,.386,2.472c-.32,5.521,2.673,9.776,5.321,14.167.233.387.483.9,1.036.709.131-.045.08-.67.077-1.027-.031-3.825.292-7.658-.33-11.468a6.118,6.118,0,0,1,.1-1.406c.628.281.426.928.569,1.4,3.065,10.049,4.767,20.21,2.392,30.688a4.326,4.326,0,0,0-.04,3.039,5.558,5.558,0,0,0,1.787-2.6,38.8,38.8,0,0,0,3.642-10.433c.1-.543.008-1.374.858-1.271.763.092.568.9.641,1.435.129.947.179,1.9.315,2.85.049.34.234.779.638.712.169-.028.324-.535.372-.841a30.815,30.815,0,0,0,.659-5.335c-.086-4.66.35-9.331-.471-13.975-.14-.794-.7-2.07.708-2.371,1.144-.244,1.69.735,2.05,1.636a34.551,34.551,0,0,1,1.409,4.051,86.585,86.585,0,0,1,2.96,22.675,18.758,18.758,0,0,0,.3,5.355,3.425,3.425,0,0,0,.581.875,3.251,3.251,0,0,0,.793-.606,15.737,15.737,0,0,0,2.574-7.343c.644-5.773-.177-11.449-1.027-17.127-.068-.454-.339-1.031.156-1.262.518-.241.811.329,1.077.712,1.8,2.6,2.585,5.607,3.448,8.582.092.318.094.726.533.732.463.007.557-.415.6-.755a13.294,13.294,0,0,0-.154-4.632,78.057,78.057,0,0,0-4.478-12.832c-1.288-3.075-2.928-6.029-3.6-9.339-.114-.562-.208-1.376.092-1.714.432-.485,1.049.1,1.549.361,2.113,1.085,2.5.851,2.473-1.531a9.242,9.242,0,0,0-.125-1.429c-.676-4-1.022-8.062-2.236-11.963-.1-.32-.227-.895-.1-.975.529-.336.763.23,1.031.536,1.183,1.348,2.337,2.722,3.516,4.074.313.359.787.8,1.188.5a1.738,1.738,0,0,0,.352-1.333,9.146,9.146,0,0,0-.487-2.081c-.642-1.924-1.337-3.831-1.99-5.753-.165-.484-.647-1.476.12-1.37,2.708.376,1.571-1.515,1.549-2.526a31.775,31.775,0,0,0-.629-3.886c-.135-.906-1.121-2.1-.276-2.6.608-.363,1.455.987,2.17,1.605.348.3.716.878,1.147.613.5-.308.08-.893-.122-1.266a58.061,58.061,0,0,0-5.068-7.82q-5.034-6.54-9.976-13.151c-.517-.7-1.755-1.478-1-2.4.677-.824,2.02-.623,3.068-.364a12.791,12.791,0,0,1,1.924.933c2.418,1.067,3.43.744,4.608-1.631a25.27,25.27,0,0,0,2.142-7.55c.768-5.048-1.6-8.5-5.549-11.166-.89-.6-1.869-1.075-2.744-1.7-.392-.279-1.167-.344-.957-1.089a4.647,4.647,0,0,1,1.317.129c3.363.629,3.914.147,3.05-3.184-1.106-4.265-2.429-8.474-3.614-12.72-.332-1.19-.738-1.3-1.576-.393a7.72,7.72,0,0,1-3.736,2.665,1.739,1.739,0,0,1-1.673-.325,1.144,1.144,0,0,1-.022-1.614,6.032,6.032,0,0,0,1.105-3.326C166.842,481.072,167.59,476.558,167.636,472ZM295.882,598.313a41.023,41.023,0,0,0,5.009-.283,69.441,69.441,0,0,0,8.755-1.834c13.843-4.294,20.418-15.062,24.254-27.877,1.917-6.4.617-13.016-1.048-19.449-2-7.715-4.974-15.19-5.747-23.21a7.37,7.37,0,0,0-.418-2.1,10.882,10.882,0,0,0-3.886-4.6c-1.158-.833-1.207.7-1.829,1.039-.543.294-.831-.251-1.209-.478-1.64-.985-3.257-2.008-4.922-2.948a5.864,5.864,0,0,0-6.382.218c-4.006,2.313-5.754,5.886-6.721,10.1-1.468,6.4-2.435,12.916-4.5,19.17-.438,1.328-.571,3.86-1.571,3.676-1.583-.292-1.141-2.551-1.2-4.032q-.454-10.574-.79-21.154a39.157,39.157,0,0,0-.69-4.961c-.15-.943-.472-1.668-1.5-1.648-3.017.059-6.433-1.958-8.806,1.661a1.526,1.526,0,0,1-1.22.646c-2.5-.722-3.088,1.286-3.891,2.752-1.894,3.458-3.625,7.006-5.455,10.5-.264.5-.461,1.524-.928,1.358-.726-.258-.406-1.224-.334-1.876a28.515,28.515,0,0,1,2.794-9.217c.178-.372.726-.821.253-1.22-.441-.371-.827.212-1.232.384-.6.252-1.532,1.169-1.773.314-.637-2.26-1.323-.928-1.948-.164a9.075,9.075,0,0,0-2.187,3.231c-2.582,9.427-5.325,18.813-7.735,28.284-1.18,4.637-1.683,9.36.4,14.057,3.385,7.63,7.711,14.622,13.9,20.232C279.673,594.63,286.909,598.63,295.882,598.313Zm-113.7-373.1q4.488,0,8.978,0c.357,0,.715-.026,1.073-.04a2.678,2.678,0,0,0-.855-.283c-2.733.092-4.522-1.719-5.985-3.5a17.45,17.45,0,0,0-6.259-4.606c-.646-.311-1.5-.459-1.9-.966-2.328-2.96-5.523-2.732-8.673-2.4-8.522.907-16.459,3.87-24.247,7.242a20.366,20.366,0,0,0-6.34,4c-.249.245-.5.537-.245.872a.772.772,0,0,0,.652.1,23.747,23.747,0,0,0,3.42-1.022c1.969-.869,3.864-1.9,5.8-2.837a9.394,9.394,0,0,1,1.333-.42c-.176,1.991,1.207,1.4,2.2,1.265a26.718,26.718,0,0,0,3.512-.7,43.1,43.1,0,0,1,13.86-1.379,23.748,23.748,0,0,0,7.494-.544,5.511,5.511,0,0,1,1.427-.1c.223,0,.634.111.638.19a.627.627,0,0,1-.666.629c-3.466.119-6.821,1.59-10.3,1.081a14.646,14.646,0,0,0-7.037.81c-3.05,1.051-6.093,2.137-9.085,3.342a64.55,64.55,0,0,0-23.215,15.872c-.543.58-1.71,1.248-1.268,1.919.608.921,1.464-.153,2.144-.495,6.089-3.067,12.268-5.939,18.567-8.545,1.65-.683,3.372-1.2,5.076-1.739a2.727,2.727,0,0,1,1.007.089c-.162.294-.251.693-.5.865q-1.761,1.228-3.595,2.35a42.9,42.9,0,0,0-13.314,12.363,19,19,0,0,0-2.893,7.647,2.849,2.849,0,0,0,.222,1.014c.325-.1.652-.19.975-.294.477-.154.57-1.158,1.28-.637.108.08-.185.88-.436,1.25-3.635,5.365-6.445,11.183-9.411,16.92-3.587,6.935-5.073,14.384-5.609,22.077-.071,1.018-.482,2.242.609,3,1.645,1.139,1.595,2.808,1.607,4.5,0,.437-.15,1.079.335,1.223.541.16.775-.478.971-.878,1.311-2.685,2.576-5.393,3.893-8.074.137-.279.524-.434.8-.646a2.883,2.883,0,0,1,.152.977,31.308,31.308,0,0,0-.479,8.223c.187,3.221.525,6.433.812,9.648.044.5.271.993.827.961.233-.014.508-.452.646-.751.552-1.193,1.032-2.42,1.594-3.608.188-.4.43-1.043.9-.915.292.081.429.779.606,1.212a5.638,5.638,0,0,1,.327,1.023c.246,1.243.3,2.55,1.279,3.527a26.306,26.306,0,0,0,.647-3.866c.147-6.855,1.556-13.509,3.131-20.132a78.052,78.052,0,0,1,5.5-15.486,2.594,2.594,0,0,0,.021-1.014,2.552,2.552,0,0,0-.8.433c-1.152,1.375-2.252,2.8-3.408,4.165a1.209,1.209,0,0,1-.9.445c-.621-.112-.489-.713-.432-1.134a15.357,15.357,0,0,1,2.482-6.28,51.577,51.577,0,0,1,5.867-7.686c.206-.216.622-.54.33-.823s-.582.143-.855.328a79.435,79.435,0,0,0-13.732,12.023c-.211.229-.475,1-1.006.385-.125-.143.08-.661.239-.948a44.2,44.2,0,0,1,7.583-9.962c4.249-4.214,8.55-8.381,12.649-12.737,1.116-1.186,2.538-2.445,2.543-4.386-2-.31-3.321,1.073-4.762,2.031a68.4,68.4,0,0,0-8.079,6.546c-.43.392-1.056,1.114-1.438.824-.729-.554.009-1.286.268-1.906a10.555,10.555,0,0,1,.845-1.579c4.348-6.837,9.412-12.959,16.641-17,1.077-.6,2.876-.992,2.773-2.368-.045-.61-2.1-.176-3.243-.185-1.082-.008-2.259.2-2.5-1.32-.228-1.417.767-1.876,1.856-2.18,3.367-.942,6.755-1.561,10.244-.638.805.212,2.2.5,2.339.014.243-.848-1.03-1.091-1.674-1.576-.283-.214-.68-.291-.933-.527-.589-.551-2.023.029-1.967-1.083.055-1.091,1.367-1.154,2.211-1.491.881-.351,1.823-.549,2.737-.817C174.04,224.922,178.133,225.414,182.185,225.215Zm4.61,148.131a6.3,6.3,0,0,0-2.913.367c-6.511,2.635-11.957,6.724-15.1,13.027-4.645,9.305-9.224,18.6-15.785,26.762-.283.352-.672,1.033-.536,1.229.387.556,1.069.368,1.6.094a30.741,30.741,0,0,0,9.3-7.183,120.418,120.418,0,0,0,7.773-10.292c.252-.359.63-.907,1.048-.664.461.268.15.847-.014,1.3A41.929,41.929,0,0,1,165.2,410.42c-2.33,2.813-1.989,6.616-4.061,9.462-.293.4-.159,1.173-.107,1.763a27.428,27.428,0,0,1-3.006,15.232c-.245.478-.788.972-.276,1.608a16.554,16.554,0,0,0,1.168-1.324,81.992,81.992,0,0,0,9.865-19.8c4.19-11.47,10.33-21.5,20.414-28.759.773-.556,1.6-1.034,2.393-1.561a3.134,3.134,0,0,0,.419-.405,1.782,1.782,0,0,0-.673-.158c-.462.086-.9.327-1.359.389-1.1.146-2.075,1.987-2.907.953-.487-.605,1.189-1.814,1.962-2.7.157-.18.337-.339.5-.51a126.777,126.777,0,0,1,10.688-10.094c.453-.365,1.21-.845.991-1.372-.311-.748-1.257-.43-1.864-.331a21.769,21.769,0,0,0-7.526,3.214c-1.232.732-2.411,1.554-3.63,2.309-.279.173-.813.418-.909.319-.468-.485.081-.826.333-1.163a13.086,13.086,0,0,1,1.392-1.639c1.161-1.1.881-1.821-.556-2.215A13.307,13.307,0,0,0,186.8,373.346Zm225.619,19.089c.219,1.291-.4,1.687-1.165,1.71-1.828.054-3.568-.233-4.808-1.815a.962.962,0,0,0-.606-.314c-.095-.01-.353.363-.313.434,1.389,2.429,1.455,5.657,4.279,7.216a5.588,5.588,0,0,1,1.758,1.176,171.9,171.9,0,0,1,11.848,15.681,136.526,136.526,0,0,1,7.8,13.261c.141.276.526.428.8.638a2.891,2.891,0,0,0,.229-.912,17.607,17.607,0,0,0-2.312-7.082c-3.506-6.224-6.617-12.675-10.6-18.627-.253-.378-.751-.841-.276-1.218.449-.357.78.265,1.05.558a69.033,69.033,0,0,0,14.152,11.477c.857.541,2.127,1.722,2.784.9.57-.708-.99-1.564-1.7-2.2-4.7-4.2-8.073-9.409-11.385-14.67-.211-.335-.71-.842-.252-1.228s.83.16,1.174.439a82.629,82.629,0,0,0,9.368,6.575c.49.3,1.087.862,1.575.293s-.237-1.05-.564-1.461c-5.665-7.12-9.2-15.27-11.692-23.941-.624-2.171-1.3-4.332-2.068-6.455-.294-.811-.734-1.373-1.648-.211-1.664,2.117-3.9,2.34-6.476,1.683a31.03,31.03,0,0,1-7.247-3.012c-.388-.213-.9-.6-1.28-.193-.4.434.056.862.354,1.2,2.381,2.7,4.827,5.317,8.2,6.823.316.141.637.273.955.409-.276.486-.767.3-1.167.348-.913.121-2.105-.2-2.444.985-.29,1.015.472,1.8,1.186,2.452,1.144,1.05,2.341,2.043,3.468,3.112.38.36,1.013.653.8,1.387-.418-.165-.842-.317-1.253-.5a92.532,92.532,0,0,1-8.129-4.539c-.417-.235-1.067-.823-1.424.081a.941.941,0,0,0,.572,1.182c2.609,1.132,3.654,3.69,5.224,5.749A12.463,12.463,0,0,1,412.414,392.435ZM299.619,417.29a21.8,21.8,0,0,1,2.555.016c3.219.344,6.208.957,6.45,5.147.094,1.637,1.364,1.936,2.834,2.056A39.761,39.761,0,0,1,326,428.033c.588.289,1.291.979,1.941.322.787-.8,0-1.544-.364-2.246a16.171,16.171,0,0,0-10.167-8.532c-7.364-2.03-14.756-4.02-22.529-3.986-6.025.027-11.9,1.1-17.845,1.743-4.611.5-8.407,2.35-12.264,4.447-.345.187-.94.478-.608,1.059a1.41,1.41,0,0,0,.867.544,49.443,49.443,0,0,1,6.313,1.275c8.04,2.811,15.016-.693,21.964-3.74C295.308,418.043,297.047,416.914,299.619,417.29ZM128,248.929a1.194,1.194,0,0,0-1.4-.98,15.694,15.694,0,0,0-5.183,1.332,33.428,33.428,0,0,0-14.523,13.441,20.087,20.087,0,0,0-1.859,5.025c-.134.537-.308,1.267.327,1.549.228.1.821-.39,1.125-.723,1.853-2.031,3.633-4.13,5.522-6.126.61-.644,1.171-1.722,2.309-1.381,2.5.749,4.291-.784,5.7-2.2,2.689-2.7,4.976-5.8,7.4-8.753A5.309,5.309,0,0,0,128,248.929Zm-16.314-22.02c5.1.335,9.959-.845,14.779-2.284a5.226,5.226,0,0,0,2.489-1.356c.869-.957,2.221-1.391,2.821-2.63-1.377-.5-2.586.276-3.8.625a14.107,14.107,0,0,1-10.384-.713,56.672,56.672,0,0,1-8.132-4.44c-.363-.249-1.036-.609-1.21-.47-.681.542.027,1.084.29,1.5,1.672,2.661,3.654,5.02,6.674,6.254.453.185.945.419.7.987-.1.221-.592.351-.917.377a70.468,70.468,0,0,1-10.371-.4,25.326,25.326,0,0,0-15.577,4.225c-.283.181-.711.6-.654.767.2.566.759.317,1.148.224,3.248-.778,6.476-1.646,9.737-2.368,1.964-.435,3.923-1.215,5.989-.722A31.622,31.622,0,0,0,111.684,226.909ZM344.335,435.77a1.645,1.645,0,0,0-.358,0c-1.071.245-2.924-.847-3.1.581-.2,1.666,1.912,1.371,2.981,1.5a30.942,30.942,0,0,1,14.706,6.09,38.193,38.193,0,0,1,11.816,14.62,6.2,6.2,0,0,0,.73.97,3.983,3.983,0,0,0,0-1.04c-1.2-4.606-2.19-9.27-4.512-13.521a10.729,10.729,0,0,0-4.077-4.364C356.9,437.331,350.651,436.437,344.335,435.77Zm-96.475,168.1q16.143,0,32.288-.015c1.193,0,2.431.391,3.584-.253a7.849,7.849,0,0,0-3.734-1c-6.571-.219-13.144-.427-19.715-.665-11.128-.405-22.239.195-33.342.728a85.48,85.48,0,0,0-13.9,1.323c-.375.08-.958-.11-.953.539a2.267,2.267,0,0,0,.986.22c.956.03,1.914.033,2.87,0C226.584,604.419,237.208,603.632,247.86,603.873ZM373.581,337.314a22.969,22.969,0,0,0-2.335-9.016c-.192-.424-.451-1.086-.9-.966-.759.2-.253.944-.276,1.438-.044.951.022,1.906.034,2.86.055,4.415-2.2,7.643-5.344,10.423-1.119.99-2.714,1.223-3.718,2.383l4.362,2.4c.312.171.615.368.941.507a2.2,2.2,0,0,0,2.6-.489C371.649,344.324,373.56,341.427,373.581,337.314Zm-34.256,156.73c1.2-.315.469-1.1.185-1.6-4.541-8.1-9.458-15.985-13.481-24.37-.3-.625-.661-1.418-1.56-1.147a1.942,1.942,0,0,0-1.547,2.115,11.33,11.33,0,0,0,1.745,4.648c2.669,4.791,5.612,9.415,8.726,13.927,1.284,1.861,2.7,3.63,4.068,5.435A1.986,1.986,0,0,0,339.325,494.044ZM260.35,610.573c-16.377.429-32.727,1.436-49.09,2.139a16.046,16.046,0,0,0-2.81.51,4.118,4.118,0,0,0-.916.465c.284.489.774.3,1.151.276,2.267-.13,4.528-.393,6.8-.463,17.809-.548,35.618-1.122,53.429-1.549,5.146-.124,10.274-.381,15.4-.813.5-.042,1.082.129,1.487-.359a9.955,9.955,0,0,0-1.405-.2Q272.371,610.563,260.35,610.573Zm119.555-8.114c5.64,0,9.585.013,13.53-.023.34,0,.984.372,1.034-.343.016-.219-.423-.565-.722-.694a13.077,13.077,0,0,0-4.872-.962c-14.72-.439-29.354,1.512-44.055,1.541a6.2,6.2,0,0,0-1.419.189c-.918.221-1.825.491-2.736.741.933.529,1.96.25,2.944.329.713.058,1.434.019,2.151.023C357.713,603.322,369.656,602.88,379.905,602.459ZM345.458,484.117a13.357,13.357,0,0,0-.31-1.586,42.076,42.076,0,0,0-13.5-20.552c-.795-.655-1.7-2.392-2.821-1.217-.829.867.419,2.122,1.141,3.046,4.328,5.539,8.091,11.474,12.084,17.248.805,1.164,1.152,2.638,2.358,3.527a4.328,4.328,0,0,0,.882.388Zm96.914,141.352a86.009,86.009,0,0,0-.567-11.946c-.157-1.178.2-2.453-.591-3.527-.543,1.176-1.409,2.218-1.487,3.588-.007.119-.026.237-.043.355a99.678,99.678,0,0,0-.609,19.313,34.475,34.475,0,0,0,.63,4.611c.14.766.267,1.865,1.3,1.773.862-.077.7-1.112.762-1.789A89.027,89.027,0,0,0,442.372,625.469Zm86.3-1.685c0-1.429.081-2.862-.017-4.284a43.319,43.319,0,0,0-1.489-9.122c-.245-.846-.5-2.1-1.671-2.043-1.369.061-1.028,1.383-1.084,2.229a88.894,88.894,0,0,0,1.243,19.539,7.23,7.23,0,0,0,.4,1.735c.2.473.3,1.24,1.07,1.112.483-.08.684-.591.872-1.046C529.079,629.273,528.6,626.5,528.669,623.784ZM419.182,361.749c.6,4.629,3.331,8.036,6.431,11.228.153.157.51.344.614.276.346-.227.251-.6.1-.93-.348-.754-.763-1.484-1.039-2.264a24.626,24.626,0,0,1-.827-15.287,11.434,11.434,0,0,0-.608-8.356c-.131-.245.057-.667-.412-.721-.017.237-.033.475-.052.712-.382,4.674-2.25,8.937-3.685,13.32C419.486,360.389,418.936,360.97,419.182,361.749ZM64.626,624.907A26.535,26.535,0,0,0,65.069,632c.1.375.274.946.793.917.174-.01.328-.566.471-.882,2.719-5.986,3.038-12.422,3.44-18.826.083-1.329.511-3.477-.966-3.752-1.424-.266-1.942,1.853-2.373,3.148A38.1,38.1,0,0,0,64.626,624.907Zm43.52-388.9c-.132-.648-.409-1-.924-1.1a9.109,9.109,0,0,0-3.538.2c-7.271,1.433-13.873,4.232-19.355,9.352a17.359,17.359,0,0,0-1.167,1.324c.619.441,1.115-.085,1.638-.239,7.685-2.261,14.6-6.5,22.287-8.755A3.792,3.792,0,0,0,108.146,236.008Zm243.886,375.9c3.988-.258,7.327-.522,10.67-.68,7.405-.349,14.813-.633,22.219-.965,3.226-.145,6.45-.339,9.674-.517.319-.017.79-.016.782-.391a1.007,1.007,0,0,0-.624-.753,33.031,33.031,0,0,0-3.556-.3c-10.785-.346-21.473,1.249-32.222,1.651a44.474,44.474,0,0,0-6.412.7c-1.161.216-2.454.238-3.452,1.07ZM218.563,349.458c-4.952-.108-14.921,6.839-16.744,11.7-.2.526-.538,1.212.115,1.631.615.4,1.1-.13,1.556-.5a128.842,128.842,0,0,1,16.262-11.133,3.162,3.162,0,0,0,.6-.386c.163-.156.381-.381.373-.567-.017-.412-.416-.486-.741-.547C219.515,349.565,219.038,349.521,218.563,349.458Zm5.43-12.511c-.247,3.617.942,6.593,2.888,8.253,2.029,1.729,3.807.142,5.667-.307.538-.13,1.346-.044,1.525-.684.276-.986-.8-1-1.3-1.4-3.16-2.5-5.858-5.309-6.455-9.524-.167-1.178-.169-2.38-.246-3.571-1.287.963-1.151,2.538-1.561,3.847A18.809,18.809,0,0,0,223.993,336.947Zm-113.05-89.831c7.76-1.294,13.373-5.617,17.819-11.7.181-.248.38-.718,0-.914a1.34,1.34,0,0,0-.974.142c-6.2,2.871-11.574,7.086-17.342,10.66-.5.308-1.095.738-.7,1.383C109.932,246.984,110.584,247,110.943,247.116Zm426.5,363.649c.185,3.482.35,6.7.53,9.914.031.555-.2,1.468.35,1.557.834.135,1.038-.774,1.247-1.464a11.529,11.529,0,0,0,.545-1.693,60.613,60.613,0,0,0,.639-12.841,19.59,19.59,0,0,0-1.167-5.932c-.226-.562-.419-1.241-1.109-1.228-.972.018-1.009.9-1.017,1.575C537.418,604.112,537.439,607.572,537.439,610.765Zm-389.012,13.56c0,1.233-.059,3.028.017,4.817a40.67,40.67,0,0,0,.482,4.98c.1.6.452,1.491,1.4,1.263.7-.167.655-.9.721-1.473a126.985,126.985,0,0,0,.673-18.249,7.966,7.966,0,0,0-.451-2.081c-.174-.554-.375-1.248-1.052-1.31-1.043-.1-.989.885-1.111,1.493C148.447,617.065,148.69,620.431,148.427,624.325ZM55.505,611.184c0-2.151.017-4.3-.005-6.454a11.585,11.585,0,0,0-.771-4.566c-.117-.272-.1-.721-.548-.638-.181.033-.386.307-.455.514a13.83,13.83,0,0,0-1.135,3.73c-.159,5.364-.607,10.752.548,16.073a16.66,16.66,0,0,0,.581,2.045,4.512,4.512,0,0,0,.568.889,7.781,7.781,0,0,0,.435-.914C55.879,618.376,55.2,614.735,55.505,611.184ZM348.156,453.122a1.906,1.906,0,0,0-1.113-1.668c-1.433-.838-2.895-1.629-4.363-2.405-1.045-.551-.9-.784.145-1.136a9.884,9.884,0,0,0,2.145-1.248.719.719,0,0,0,.218-.94c-.7-1.476-4.228-1.754-4.895-.23a34.062,34.062,0,0,1-3.282,5.039c-.3.454-.738,1.031.312,1.245,3.254.664,6.5,1.378,9.754,2.025A.834.834,0,0,0,348.156,453.122Zm24.8-177.241a19.816,19.816,0,0,0-6.45,1.779c-.3.135-.771.467-.748.658.079.651.685.4,1.078.4,5.992-.025,11.928.272,17.511,2.81.491.224,1.082.865,1.58.238.6-.759-.1-1.335-.62-1.774C381.859,277.089,377.78,276,372.951,275.881ZM179.641,490.187c.109,2.468-.073,4.17.738,5.719.234.447-.224,1.366.7,1.3.528-.036.475-.714.561-1.164.973-5.137,2-10.265,2.889-15.416.214-1.24,1.074-2.419.513-3.768-.992.933-1.285,2.265-1.888,3.411C181.38,483.635,179.265,486.912,179.641,490.187ZM114.88,240.721a3.516,3.516,0,0,0-.958-.21c-4.165.278-8.355.432-12.37,1.737-2.154.7-4.352,1.357-6,3.064-.332.344-.692.794-.5,1.263.209.508.765.456,1.224.309,5.908-1.886,12.012-3.139,17.778-5.484C114.378,241.27,114.776,241.237,114.88,240.721ZM433.478,472.1a5.049,5.049,0,0,0,.9-.732c2.746-3.745,6.549-6.124,10.553-8.264a22.818,22.818,0,0,0,2.648-1.775c.384-.28.762-.788.435-1.193a1.638,1.638,0,0,0-1.273-.32,9.523,9.523,0,0,0-2.052.527,22.354,22.354,0,0,0-10.772,8.393,3.693,3.693,0,0,0-.715,2.334A4.933,4.933,0,0,0,433.478,472.1Zm64.266-193.033c.182-5.543-2.927-10.107-7.838-11.518-.343-.1-.766-.283-.961.065a1.135,1.135,0,0,0,.112.948q1.88,3.051,3.833,6.059,1.656,2.556,3.389,5.062a1.192,1.192,0,0,0,.868.475C497.809,280.122,497.666,279.5,497.744,279.066ZM332.241,455.7c-1.14-.111-2.035-.087-2.376.862-.373,1.035.528,1.462,1.22,1.885,2.429,1.483,4.854,2.977,7.332,4.377a3.805,3.805,0,0,0,3.055.633c.768-.242,1.384-.737.65-1.51A21.95,21.95,0,0,0,332.241,455.7ZM234.1,329.078a3.569,3.569,0,0,0,3.684-3.553,3.809,3.809,0,0,0-3.405-3.547,3.876,3.876,0,0,0-3.7,3.663A3.532,3.532,0,0,0,234.1,329.078Zm120.264.669c-.022-2.023-1.535-3.668-3.25-3.534a3.9,3.9,0,0,0-3.034,3.536c-.043,1.673,1.928,3.906,3.516,3.983C353.076,333.805,354.383,331.922,354.359,329.747Zm-178.635,30.46c-.195-1.094-.36-2.03-.53-2.965-.059-.324-.128-.646-.192-.969a8.108,8.108,0,0,0-.5.918,20.3,20.3,0,0,1-6.452,8.854c-.232.178-.712.34-.464.679.128.175.692.16,1,.055a13.242,13.242,0,0,0,5.714-3.541A4.8,4.8,0,0,0,175.724,360.207ZM218.4,596.78l.016.18c4.268-.417,8.553-.712,12.8-1.3,2.238-.31,4.563.108,6.716-.8a7.54,7.54,0,0,0,.994-.611,8.191,8.191,0,0,0-1.07-.052c-7.006.555-14.064.539-21,1.857-.9.172-1.89-.134-2.715.476.944.084,1.886.181,2.831.246C217.44,596.806,217.919,596.78,218.4,596.78Zm216.619-134.6c.119-.056.257-.079.329-.161,2.949-3.306,6.656-5.739,9.954-8.641a2.314,2.314,0,0,0,.358-.6,2.6,2.6,0,0,0-.974-.184,12.956,12.956,0,0,0-6.923,4.125c-1.16,1.315-2.568,2.527-3.02,4.35C434.645,461.447,434.393,461.945,435.016,462.178Zm-5.465-114.9a.382.382,0,0,0-.481.393c-.03,4.389.757,8.531,3.729,11.98.156.181.416.639.774.254.1-.109.047-.46-.047-.644-1.8-3.542-2.552-7.4-3.435-11.223C430.012,347.7,429.985,347.349,429.551,347.275ZM126.714,261.93c-.147-.422-.5-.429-.807-.328-.79.259-1.549.614-2.343.852a13.023,13.023,0,0,0-5.7,3.489c-.565.585-1.194,1.355-.488,2.182.613.719,1.347.108,1.907-.215a59.977,59.977,0,0,0,7.067-5.389A2.127,2.127,0,0,0,126.714,261.93Z"/><path d="M178.748,193.884a26.3,26.3,0,0,1,14.449,4.023c.411.242.822,1.2,1.358.507.348-.453-.364-1.033-.734-1.464a24.673,24.673,0,0,0-13.185-8.109c-.447-.108-.95-.019-1.232-.506a12.874,12.874,0,0,1,1.4-.236,15.783,15.783,0,0,1,5.315.627c.3.084.676-.116,1.018-.185a4.9,4.9,0,0,0-.846-.528c-2-.75-4.009-1.474-6.015-2.206a1.172,1.172,0,0,1-.858-.971,4.567,4.567,0,0,1,1.051-.134c5.625.572,11.023,1.839,15.91,4.883a38.085,38.085,0,0,1,13.527,14.5c.34.629.64,1.285,1.037,1.876.629.935,1.275,2.783,1.9-.076.193-.882,1.239-.573,1.791-.121a23.1,23.1,0,0,1,3.425,3.147A9.672,9.672,0,0,0,226.9,212.6a23.655,23.655,0,0,0,6.013-.72c2.151-.727,2.207-.694.59-2.15a3.586,3.586,0,0,1-1.4-2c-.115-.689-.341-1.527.231-2.049.521-.474,1.07.184,1.593.363a25.6,25.6,0,0,0,7.344,1.444,184.537,184.537,0,0,1,26.731,2.552,5.081,5.081,0,0,0,1.03-.017,1.376,1.376,0,0,0-.766-1.045,52.388,52.388,0,0,0-14.614-6.537,25.9,25.9,0,0,1-3.727-1.211c-.9-.379-.76-1.1-.15-1.7a4.738,4.738,0,0,1,2.932-1.2c8.365-.775,16.7-1.009,24.711,2.212A33.231,33.231,0,0,1,294,215.209c.166.285.4.791.287.933-.5.621-.779-.13-1.051-.34a101.921,101.921,0,0,0-12.22-8.127,43.027,43.027,0,0,0-12.424-4.356c-.746-.159-1.887-.529-2.234.257-.29.659.834,1.006,1.4,1.4,4.7,3.251,8.142,7.7,11.56,12.171.239.312.749.791.17,1.194-.21.146-.7.007-1.009-.133a17.772,17.772,0,0,1-1.876-1.037,27,27,0,0,0-17.539-3.707c-7.841.812-15.722,1.2-23.5,2.631-4.318.793-8.663,1.9-13.124.851-.27-.064-.716-.188-.737.314a.836.836,0,0,0,.38.569,6.447,6.447,0,0,0,2.948,1.211c.332.031.766.158.669.561a1.119,1.119,0,0,1-.693.712c-1.775.347-3.567.6-5.134-.666a22.135,22.135,0,0,1-2.168-1.868c-1.693-1.769-3.212-1.653-4.6.356-.443.644-.916.615-1.207-.217-.7-2.022-1.4-4.047-2.163-6.049-2.769-7.308-6.952-13.581-13.409-18.173-.371-.263-.78-.793-1.2-.366-.461.47.244.756.463,1.082.666.988,1.386,1.939,2.093,2.9a17.3,17.3,0,0,1,3.781,9.124c.037.531.588,1.287-.1,1.511-.6.2-.861-.683-1.206-1.146a18.162,18.162,0,0,0-1.462-2.025c-.727-.734-1.128-1.892-2.378-2.014-.036.827-.04,1.656-.117,2.478-.095,1.008-.717.829-1.16.341a31.507,31.507,0,0,1-2.714-3.337,9.583,9.583,0,0,0-5.1-3.708,28.727,28.727,0,0,0-22.59,1.284,48.336,48.336,0,0,0-7.883,4.922c-.353.269-.814.783-1.2.285-.316-.406.241-.819.509-1.145a27.391,27.391,0,0,1,13.031-8.468A25.752,25.752,0,0,1,178.748,193.884Z"/><path d="M295.345,275.06c.455,4.858-1.284,10.272-2.253,15.79-.04.23-.078.581-.223.649-.374.175-.613-.16-.8-.427-.547-.771-1.071-1.559-1.6-2.34a15.787,15.787,0,0,0-.755,3.458c.014,2.74.618,5.478-.035,8.218-.108.455-.143,1.2-.4,1.29-.472.167-.688-.49-.985-.833-.157-.18-.3-.375-.468-.543-.421-.419-.926-.962-1.5-.52-.547.417-.207,1.092-.031,1.661.635,2.055,1.162,4.15,1.921,6.157a24.639,24.639,0,0,1,1.437,4.786,5.6,5.6,0,0,0,1.847,3.334c3.026,2.817,3.875,6.756,4.85,10.581a2,2,0,0,1-.073.679,4.556,4.556,0,0,1-.885-.5,17.282,17.282,0,0,0-5.254-3.035c-2.61-1.045-2.64-1.041-2.138-3.8a2.634,2.634,0,0,0-1.528-2.967c-4.526-2.365-8.844-5.327-14.264-5.32-.411,0-1.055.257-1.179-.328-.11-.518.467-.824.893-.965a58.578,58.578,0,0,1,5.816-1.767c1.432-.313,1.434-1.072.991-2.052-.638-1.414-1.405-2.769-2.094-4.161-.2-.4-.666-.857-.272-1.268s.883.014,1.27.222c1.519.816,1.575.069,1.388-1.181-.546-3.66-1.043-7.326-1.531-10.994-.074-.555-.331-1.328.282-1.611s1.082.367,1.454.813a14.686,14.686,0,0,1,2.362,4.4c.123.331.274.731.669.7.69-.052.616-.659.53-1.081-.7-3.417.06-6.949-.834-10.351a2.456,2.456,0,0,1,.151-.932,7.8,7.8,0,0,1,.745.743c.658.85,1.274,1.735,1.94,2.579.29.367.668.8,1.191.535s.4-.8.257-1.259a29.363,29.363,0,0,0-3.991-8.393c-.753-1.078-1.616-2.082-2.333-3.183-.329-.506-1.437-1.008-.7-1.623.52-.437,1.208.485,1.7.95,3.37,3.159,5.656,7.076,7.77,11.12.476.912.741,2.5,1.864,2.308.866-.152,1.06-1.7,1.25-2.774,2.073-11.647-.039-22.32-7.418-31.75-1.031-1.317-2.2-2.527-3.31-3.779-.3-.339-.912-.787-.661-1.092.53-.644,1.07.059,1.514.348a26.776,26.776,0,0,1,7.8,8.308C294.181,260.825,295.423,265.385,295.345,275.06Z"/><path d="M237.808,239.763c2.52.261,4.563-.6,6.7-.853,11.712-1.384,21.7,2.07,29.832,10.637,2.34,2.465,3.508,5.657,4.892,8.694.133.292.21.881.066.983-.664.472-.69-.367-.843-.611a38.985,38.985,0,0,0-7.555-9.051,36.078,36.078,0,0,0-9.725-5.907,1.212,1.212,0,0,0-1.345.01c.3.329.571.682.894.984a29.013,29.013,0,0,1,7.846,11.809c.151.439.338,1.106-.125,1.313-.443.2-.727-.458-.986-.8-8.517-11.281-20.209-14.417-33.629-13.138-1.9.182-3.779.573-5.663.813-3.349.426-5.4,2.823-7.9,4.565-.441.307-.941.927-1.524.322-.388-.4.037-.886.193-1.306.539-1.451,1.087-2.9,1.664-4.337.408-1.018-.142-1.306-.981-1.286-1.828.045-3.456.9-5.185,1.346a3.625,3.625,0,0,1-1.02-.031,3.7,3.7,0,0,1,.478-.81c9.266-9.167,20.293-14.18,33.454-13.953a21.649,21.649,0,0,1,10.008,2.426c.3.162.79.535.747.673-.17.557-.754.406-1.117.294a27.367,27.367,0,0,0-6.747-.806,27.737,27.737,0,0,0-18.109,5.512c-.271.2-.647.543-.623.784.039.383.52.257.832.263.718.014,1.436.006,2.153.02.576.011.5.077,1.384,1.22C236.428,240.263,237.375,239.68,237.808,239.763Z"/><path d="M194.043,441.84c.548-10.167,2.2-19.354,8.5-27.05a7.592,7.592,0,0,0,1.581-3.881c1.462-9.671,5.9-17.56,14.379-22.817,5.325-3.3,11.278-4.335,17.435-4.485a6.49,6.49,0,0,1,1.053.147c-.337.315-.621.794-1.017.918-2.724.856-5.518,1.506-8.2,2.469-6.364,2.285-11.6,6.078-15.089,11.993-.311.527-1.072,1.131-.4,1.867a7.485,7.485,0,0,0,1.319-.954,43.953,43.953,0,0,1,17.024-9.529c.574-.157,1.13-.4,1.711-.5.408-.073.895-.174,1.2.294-.3.172-.6.358-.91.515-2.335,1.174-4.708,2.279-7,3.528a39.909,39.909,0,0,0-8.569,6.432c-.313.3-.88.645-.572,1.083.347.494.853.021,1.269-.164,1.524-.678,3.029-1.405,4.579-2.018a4.364,4.364,0,0,1,2.666-.639,20.78,20.78,0,0,1-1.905,1.592,122.245,122.245,0,0,0-11.575,9.029,35.038,35.038,0,0,0-12.162,20.5c-.065.332-.144.938-.037.982.5.206.8-.251,1.014-.59a59.965,59.965,0,0,1,9.5-11.62c.612-.57,1.212-1.155,1.86-1.681.182-.148.463-.712.758-.113.07.14-.1.447-.231.628-.349.483-.737.938-1.1,1.408-6.469,8.26-10.724,17.669-14.234,27.462a17.7,17.7,0,0,0-.593,2.061c-.183.807-.3,1.629-.448,2.444a.871.871,0,0,1-.283-.126,3.639,3.639,0,0,1-.823-2.305C194.479,446.223,194.234,443.728,194.043,441.84Z"/><path d="M310.4,213.651c.214-6.23-1.4-11.518-2.475-16.887-.086-.432-.45-1.112-.729-1.135-.526-.043-.409.658-.562,1.045-1.79,4.536-2.037,9.278-1.949,14.079a6.362,6.362,0,0,1-.324,3.157A6.532,6.532,0,0,1,303.246,211c-1.425-5.422-2.825-10.837-6.284-15.436a43.482,43.482,0,0,0-8.192-7.969c-.709-.555-2.02-1.45-1.617-2.02.623-.881,1.763.17,2.546.538,5.486,2.575,10.561,5.645,12.744,11.809a4.441,4.441,0,0,0,.48.791c.246-.249.622-.457.718-.754.583-1.808,1.106-3.635,1.642-5.457.41-1.39.769-2.919,2.526-3.085,1.895-.179,2.618,1.31,3.363,2.715a26.549,26.549,0,0,1,3.029,7.97,5.6,5.6,0,0,0,.781,1.51,13.322,13.322,0,0,0,.875-1.1c2.057-3.23,4.972-5.809,6.909-9.133.349-.6.832-1.293,1.67-1.1.8.183.949.976,1.167,1.666a24.655,24.655,0,0,1-.02,15.8c-2.179,6.378-6.186,11.51-10.7,16.328a5.339,5.339,0,0,1-1.11.893c-.29.176-.761.408-.971.291-.464-.258-.407-.839-.263-1.276a31.066,31.066,0,0,1,1.136-3c2.1-4.677,4.225-9.339,6.333-14.012a30.809,30.809,0,0,0,2.51-7.794c.053-.329.022-.854-.181-1-.458-.339-.825.074-1.133.42A37.5,37.5,0,0,0,314.651,210c-1.055,2.656-2.105,5.314-3.185,7.959-.125.306-.4.725-.79.555-.183-.079-.258-.565-.263-.869C310.387,216.1,310.4,214.539,310.4,213.651Z"/><path d="M356.174,248.122c4.172.268,8.7,1.135,12.657,3.936.553.391,1.151,1.07,1.881.475.536-.439.119-1.127.078-1.7a29.776,29.776,0,0,0-3.985-12.161c-.342-.628-.755-1.218-1.109-1.841-.164-.288-.455-.666-.1-.93.317-.234.639.07.9.3,2.675,2.417,5.254,4.915,6.447,8.455a62.284,62.284,0,0,1,1.933,6.136c.6,2.654,2.5,4.547,3.637,6.875a1.167,1.167,0,0,0,.534.46c.428.208.981.61,1.3.48.483-.2.26-.824.109-1.267a47.8,47.8,0,0,1-2.025-7.238,14.738,14.738,0,0,1-.364-1.749c-.03-.651-.37-1.353.159-1.965a10.115,10.115,0,0,1,1.1,1.349,50.949,50.949,0,0,0,5.449,7.1,19.951,19.951,0,0,0,8.7,6.094,17.364,17.364,0,0,1,5.7,2.938,3.149,3.149,0,0,1,.5.892,3.519,3.519,0,0,1-1.012.17c-3.195-.411-6.382-.873-9.578-1.272-.694-.086-1.9-.192-2.022.084-.307.7.548,1.175,1.042,1.639a25.074,25.074,0,0,1,4.317,4.775c.179.284.448.765.337.932-.385.586-.836.127-1.172-.138a90.74,90.74,0,0,0-10.455-6.89,66.4,66.4,0,0,0-20.2-7.926,22.96,22.96,0,0,0-8.9-.092c-.465.086-1.256.351-1.3.026-.079-.588.74-.731,1.2-.926a34.3,34.3,0,0,1,10-2.563,4.717,4.717,0,0,0,2.674-.879,19.439,19.439,0,0,0-2.66-.963c-5.644-1.184-11.137-.406-16.571,1.3-.863.271-2.332,1.182-2.572.456-.3-.9,1.323-1.223,2.163-1.667A23.855,23.855,0,0,1,356.174,248.122Z"/><path d="M444.017,231.088c4.792.015,8.625,1.981,12.27,4.218,5.311,3.26,9.178,8.263,14.024,12.106.3.239.934.686.476,1.094-.34.3-.73-.362-1.106-.585-.335-.2-.594-.883-1.08-.357-.151.163-.027.684.1.985a23.762,23.762,0,0,1,2.109,7.154c.058.619.125,1.252-.4,1.638-.732.537-1.362,0-1.9-.436-1.427-1.151-2.162-2.824-3.131-4.317-3.129-4.818-6.539-9.386-11.18-12.9a44.686,44.686,0,0,0-9.959-5.527c-1.1-.455-2.165-.973-3.252-1.448a.783.783,0,0,1-.565-.774.712.712,0,0,1,.7-.67C442.187,231.167,443.259,231.132,444.017,231.088Z"/><path d="M472.854,507.808a3.059,3.059,0,0,0-2.346.271,2.143,2.143,0,0,1-3.129-.255c-.883-.869-2.044-.214-3.028.169-1.392.543-1.7-.179-1.685-1.339a4.786,4.786,0,0,1,.072-1.422c.683-2.038.121-2.651-1.973-1.974-.736.238-1.307-.111-1.235-1.154.112-1.642-1.071-1.408-1.9-.938-1.861,1.051-3.608,2.3-5.426,3.43-.371.23-1.01.52-1.252.363-.512-.334-.028-.832.168-1.224a11.409,11.409,0,0,1,5-4.933c2.092-1.133,4.2-2.247,5.506-4.387.868-1.419,2.317-.723,3.516-.8.625-.038.611.573.383,1.035-.581,1.174-1.2,2.328-1.772,3.506-.2.413-.4.952.152,1.2.2.09.647-.208.895-.427.8-.707,1.542-1.483,2.348-2.186a1.091,1.091,0,0,1,1.321-.149c.529.339.266.847.1,1.278s-.447.849-.595,1.3c-.194.592.082.929.7.818,1.049-.189,2.09-.428,3.128-.668,2.273-.526,2.51-.321,1.716,1.977-.5,1.435-1.154,2.608,1.059,3.228,1.06.3,1.016,1.581.675,2.494A1.488,1.488,0,0,1,472.854,507.808Z"/><path d="M254.373,367c-15.878.078-30.585,4.065-43.574,13.489-2.412,1.75-4.654,3.734-7.021,5.549-.483.37-1.117,1.344-1.709.637-.472-.563.424-1.227.86-1.734,6.916-8.057,15.273-13.985,25.56-16.912,10.674-3.038,21.472-4.387,32.472-1.784.441.1.95.007,1.221.507a8.293,8.293,0,0,1-1.361.237C258.672,367.009,256.522,367,254.373,367Z"/><path d="M368.811,270.5c.013.737-.506.813-.956.837a26.848,26.848,0,0,0-7.666,1.685c-7.444,2.669-12.7,7.937-16.78,14.465-2.908,4.655-5.551,9.476-8.316,14.221-.421.723-.826,1.46-1.313,2.137-.183.254-.577.356-.875.527-.069-.334-.286-.725-.185-1,2.9-7.69,5.066-15.725,10.687-22.11,6.493-7.375,14.855-10.543,24.439-11.021A3.283,3.283,0,0,1,368.811,270.5Z"/><path d="M231.474,417.852c-.471.07-.94.156-1.413.206-1.326.141-1.82-.42-1.272-1.664a4.274,4.274,0,0,1,1.02-1.446c4.983-4.417,10.457-7.924,17.178-9.032a8,8,0,0,1,2.5-.125,66.083,66.083,0,0,1,11.09,2.617c.315.108.848.383.831.522-.084.655-.692.4-1.056.383a50.262,50.262,0,0,0-10.385.09c-1.723.253-4.014,0-4.262,2.762-.091,1.015-1.079.727-1.681.9-3.318.938-6.808,1.327-9.908,2.949-.99.518-2.4.543-2.779,1.958Z"/><path d="M457.547,231.229c-1.824-.251-3.732-.408-5.6-.788a105.569,105.569,0,0,0-17.359-2.05c-.59-.021-1.653.361-1.685-.6-.027-.845,1.01-.788,1.677-.95a40.689,40.689,0,0,1,9.238-.83c.609-.005,1.592.526,1.793-.329.173-.733-.856-1.016-1.406-1.411-.965-.695-2.017-1.268-2.99-1.953-.246-.173-.332-.575-.492-.871a3.666,3.666,0,0,1,.918-.332,14.962,14.962,0,0,1,4.579.585,35.891,35.891,0,0,1,10.792,4.561,12.92,12.92,0,0,1,1.994,1.5c.78.724,1.675,1.58,1.168,2.73C459.709,231.555,458.531,231.156,457.547,231.229Z"/><path d="M234.282,269.891c-.639,0-.879,0-1.118,0l-4.641-.084c1.235-1.589,3.183-1.453,4.8-1.608,11.019-1.054,20.575,2,27.882,10.672a66.481,66.481,0,0,1,4.31,6.165c.366.55,1.081,1.408.626,1.837-.671.632-1.2-.365-1.66-.8-1.391-1.314-2.7-2.713-4.074-4.048-5.546-5.4-11.678-9.76-19.4-11.593C238.612,269.864,236.246,270.168,234.282,269.891Z"/><path d="M251.832,401.486a12.02,12.02,0,0,1,4.085.575c.273.082.628-.108.945-.172-.266-.216-.519-.451-.8-.643s-.613-.364-.924-.539-.745-.326-.46-.731a1.139,1.139,0,0,1,.916-.3c5,.578,9.7,2.254,14.386,3.973a1.486,1.486,0,0,1,1.107,1.94,1.932,1.932,0,0,1-2.5,1.438,28.233,28.233,0,0,1-3.884-1.8c-1.645-.8-3.268-1.375-5.126-.537a5.814,5.814,0,0,1-3.534.234,32,32,0,0,0-11.74-.007c-1.048.173-2.839.715-3.072-.515-.228-1.205,1.618-1.512,2.7-1.787A28.368,28.368,0,0,1,251.832,401.486Z"/><path d="M273.108,229.7c14.058.946,24.2,9.132,26.035,22.313a18.278,18.278,0,0,1,.126,2.488.78.78,0,0,1-.388.539c-.507.269-.608-.2-.667-.5a32.209,32.209,0,0,0-1.973-6.112c-3.267-7.931-9.3-12.825-17.133-15.73-2.339-.867-4.781-1.456-7.178-2.167-.4-.117-.961.026-.993-.595a2.746,2.746,0,0,1,.977-.224C272.51,229.676,273.109,229.7,273.108,229.7Z"/><path d="M301.073,216.5a3.574,3.574,0,0,1,.033.713c-.057.381.279.987-.426,1.02-.136.007-.33-.545-.443-.859-1.293-3.566-2.518-7.159-3.877-10.7a61,61,0,0,0-4.654-9.583c-2.923-4.866-7.461-7.514-12.584-9.423-.459-.171-1.185-.055-1.285-.828a5.754,5.754,0,0,1,1.4-.147c4.727.67,9.011,2.434,12.156,6.083C297.251,199.569,299.849,207.775,301.073,216.5Z"/><path d="M480.662,244.68c-.052.484.1,1.173-.554,1.47-.676.306-1.112-.234-1.51-.657-1.471-1.564-2.892-3.176-4.381-4.723a73.516,73.516,0,0,0-8.745-7.919,12.64,12.64,0,0,1-3.333-3.211c-.484-.772-.2-1.348.84-1.345a6.691,6.691,0,0,1,3.342,1.144,45.275,45.275,0,0,1,12.829,11.25A5.827,5.827,0,0,1,480.662,244.68Z"/><path d="M235.614,254.75a4.516,4.516,0,0,1-.921.378c-2.346.415-4.709.737-7.042,1.208-7.018,1.417-12.921,4.671-17.308,10.485-1.577,2.091-3.358,4.03-5.067,6.022-.225.263-.641.647-.842.582-.346-.111-.288-.583-.126-.909,5.887-11.888,12.745-18.138,26.3-18.778a25.106,25.106,0,0,1,4.26.48C235.169,254.255,235.542,254.218,235.614,254.75Z"/><path d="M348.894,417.127c8.132-.063,14.381,3.707,19.579,9.6.244.276.878.627.317,1.1-.179.152-.7.071-.965-.077-1.67-.927-3.341-1.857-4.96-2.87a35.228,35.228,0,0,0-19.743-5.381c-.836.015-1.674,0-2.509-.032-.221-.009-.568-.1-.63-.243-.17-.4.171-.574.491-.679A28.6,28.6,0,0,1,348.894,417.127Z"/><path d="M351.476,406.405c-7.458-.96-14.359.32-21.236,1.9-1.678.386-4.077,1.249-4.77-.351-.5-1.162,1.971-2.331,3.371-3.189a7.5,7.5,0,0,1,2.616-1.113c.572-.09,2.635-2.464,1.869.88-.157.687.913.246,1.39.151,4.7-.947,9.414-1.592,14.175-.4.8.2,1.591.462,2.381.711a2.2,2.2,0,0,1,1.611,1.252Z"/><path d="M456.434,485.533l3.6.392c-1.07.5-2.129,1.409-3.214,1.442-3.467.107-5.712,2.555-8.489,3.975a20.053,20.053,0,0,1-3.975,1.6c-1.348.354-3.654,1.343-3.959.619-.7-1.658,1.288-2.759,2.349-3.9,3-3.236,7.139-3.507,11.168-3.958a22.758,22.758,0,0,1,2.506-.013Z"/><path d="M231.334,417.969c.191.438,1.942-.56.913.922a9.153,9.153,0,0,1-2.092,1.943,57.548,57.548,0,0,0-16.132,18.9c-1.251,2.3-2.651,4.521-4.02,6.755-.093.153-.143.766-.6.38-.087-.074.011-.44.1-.638,4.8-10.826,9.314-21.878,21-27.43.433-.2.848-.431.971-.953Z"/><path d="M348,411.433c3.726.693,8.091,1.325,11.374,4.706.328.339.812.75.614,1.207-.271.626-.837.2-1.216.025a31.078,31.078,0,0,0-21.19-1.656,4.027,4.027,0,0,1-1.05.166c-.338-.006-.867-.024-.973-.22-.315-.58.326-.749.656-.963A27.366,27.366,0,0,1,348,411.433Z"/><path d="M353.879,392.7c-8.447-2.058-15.8.072-22.169,5.843a15.681,15.681,0,0,1-4.961,2.767c-.307.123-.7.449-.926.07-.112-.188.083-.69.287-.917,5.9-6.572,16.624-13.192,27.815-8.606a13.725,13.725,0,0,1,1.233.653C354.772,392.863,354.319,392.742,353.879,392.7Z"/><path d="M262.156,384.972a25.909,25.909,0,0,1,7.758,2.866,34.5,34.5,0,0,1,11,8.966,9,9,0,0,1,1.559,2.37,29.93,29.93,0,0,1,.941,3.727c-1.417-.3-1.814-1.665-2.472-2.615-4.72-6.814-11.273-11.174-18.742-14.372a12.877,12.877,0,0,1-1.221-.685Z"/><path d="M256.552,417.213a40.726,40.726,0,0,0-18.111,5.886,12.421,12.421,0,0,1-1.567.677c-.28-.862.457-1.252.884-1.714,4.4-4.763,9.457-8,16.334-6.683,1.066.2,2.542.138,2.344,1.955Z"/><path d="M311.154,271.528c1.1-8.125,4.431-15.931,11.341-21.939.513-.446,1.231-1.374,1.7-.952.709.643-.415,1.1-.78,1.55a57.993,57.993,0,0,0-10.826,21.448c-.094.344-.121.708-.234,1.045-.149.446-.31.939-.826,1.072C311.165,273.844,311.084,273.543,311.154,271.528Z"/><path d="M256.376,357.42a26.251,26.251,0,0,1,17.038,6.315,5.565,5.565,0,0,1,.653.745c-.487.42-.837.027-1.256-.173a58.7,58.7,0,0,0-11.573-4.556,23.762,23.762,0,0,0-15.707,1.32c-.433.195-.887.353-1.305.575-.442.235-.869.351-1.176-.117-.036-.055.434-.531.732-.7A24.11,24.11,0,0,1,256.376,357.42Z"/><path d="M375.726,221.154a15.66,15.66,0,0,0,4.926.1c3.307-.428,6.637,3.094,6.409,6.5-.072,1.093-.8.728-1.222.408-2.3-1.725-4.973-2.7-7.515-3.938a7.334,7.334,0,0,0-1.963-.836c-2.333-.349-1-1.411-.515-2.326Z"/><path d="M293.16,304.246c-.044-2.919.343-5.72,2.187-8.126.435-.566.98-1.256,1.725-1a1.649,1.649,0,0,1,.856,1.828,20.387,20.387,0,0,1-3.879,10.605c-.13.172-.39.41-.536.377-.414-.093-.339-.515-.345-.824C293.146,306.156,293.16,305.2,293.16,304.246Z"/><path d="M230.645,443.236c-.36-.5-.58-.675-.55-.784a3.305,3.305,0,0,1,.437-.964,25.879,25.879,0,0,1,16.089-11.057c.457-.107,1.1-.292,1.288.2.25.664-.368,1.058-.9,1.325a13.18,13.18,0,0,1-1.344.472,34.946,34.946,0,0,0-13.606,8.944C231.574,441.9,231.189,442.515,230.645,443.236Z"/><path d="M446.182,246.93c3.529-.4,6.261,1.164,8.687,3.49.249.24.576.5.341.9a.705.705,0,0,1-.921.257c-3.8-1.532-7.968-1.54-11.819-2.849-.444-.15-1.233-.5-1.209-.611.148-.636.791-.8,1.351-.867C443.8,247.1,444.992,247.032,446.182,246.93Z"/><path d="M447.131,501.049c-.3-.118-.657-.161-.691-.29-.084-.309-.156-.777.011-.972a10.937,10.937,0,0,1,5.178-3.625c2.384-.7,4.82-1.218,7.244-1.774a2.62,2.62,0,0,1,.985.185c-.091.208-.123.509-.282.613A66.145,66.145,0,0,1,447.131,501.049Z"/><path d="M250.992,423.088a.807.807,0,0,1-.8.97c-3.876.243-7.2,2.054-10.6,3.645-.314.147-.7.262-.927-.111a.837.837,0,0,1,.061-.653c1.449-3.073,8.291-5.745,11.527-4.49C250.553,422.566,250.773,422.893,250.992,423.088Z"/><path d="M127.645,504.86a10.973,10.973,0,0,1,2.463.331c.678.248,1.8.727.308,1.587a1.151,1.151,0,0,0-.5.875c.262,3.219-2.076,4.211-4.384,5.326a21.348,21.348,0,0,0-6.134,4.873,10.293,10.293,0,0,1-1.1.895c-.454-.627-.008-1.169.249-1.65,1.854-3.47,3.653-7,7.444-8.851.194-.094.457-.323.457-.49,0-.514-.421-.386-.721-.334-1.523.261-3.04.556-4.565.8a4.352,4.352,0,0,1-1.04-.084,3.71,3.71,0,0,1,.581-.78A10.829,10.829,0,0,1,127.645,504.86Z"/><path d="M138.3,501.912c-.149.663-.681.623-1.115.528-1.3-.288-2.8-1.2-2.8,1.348,0,.6-.733.989-1.369.811a29.816,29.816,0,0,0-9.862-.577,2.609,2.609,0,0,1-.9-.3,2.284,2.284,0,0,1,.282-.625c3.531-3.954,10.56-4.977,14.882-2.174C137.807,501.168,138.242,501.385,138.3,501.912Z"/></svg>