<?xml version="1.0" encoding="utf-8"?>
<!-- Generator: Adobe Illustrator 24.2.3, SVG Export Plug-In . SVG Version: 6.00 Build 0)  -->
<svg version="1.1" id="Layer_1" xmlns="http://www.w3.org/2000/svg" xmlns:xlink="http://www.w3.org/1999/xlink" x="0px" y="0px"
	 viewBox="0 0 595.3 841.9" style="enable-background:new 0 0 595.3 841.9; fill: #215342;" xml:space="preserve"
	 height="350" width="450" transform="translate(-80, -21)">
<g>
	<path d="M582,497.6c-16.5-0.1-33-0.3-49.5,0c-5.5,0.1-9.3,0.2-9.2-7.3c0.1-6.5-2.7-12.3-7.4-17.5c-5-5.6-7.1-13.5-14.6-17.7
		c1.5,2.2,2.7,4.1,4.1,5.9c5.4,6.8,8,14.3,6.7,23c-0.5,3.4-1.6,6.7-1.7,10.1c-0.1,8.3-6.3,13.9-14.7,12.7c0.7-5.5,1.7-11,0.4-17.1
		c-0.2,3.1-0.4,5.6-0.6,8.7c-2.9-2.6-2.3-5.6-3.6-8.4c0.1,1.4,0.1,2.3,0.2,4.2c-2.3-4.7-5.3-3.7-7.7-2.6
		c-3.4-13.6,1.1-28.8-7.1-41.7c1.3,12,4.9,23.9,3.5,35.9c-1.4,12.1-7.6,23.1-9.8,35.3c1-10.2-6.8-21.1,2.1-30.8
		c-3.2,0.9-5,3.8-7.5,6.8c0.5-2.7,0.9-4.7,1.3-6.7c-2.4,5.3-4.2,10.7-4.5,17.4c-5.3-4.4-15.3-2.1-14.3-12.8
		c-0.1,0.6-0.3,1.2-0.6,2.5c-1.5-16.4-5.1-32.5,10.1-44.6c-3,1.9-5.1,5.4-7.6,5.9c-4.3,0.8-2.4-5.2-5.5-6.8
		c3.9,11.2-0.7,21.9-0.8,33.1c-1.9-1.1-3.3-1.6-4.3-2.9c-1.5-2-3.5-2.1-5.7-0.7c-4.8,3.1-4.4,8-4.8,12.7c-0.1,1.3,0.9,3.2-1.5,3.9
		c-2.3,0.6-3.3-0.7-4.2-2.2c-3.8-7-3-14.1-0.3-21.1c4-10.3,36.2-57.7,78.7-31.8c-25.1-26.3-73.6,6.5-78,11.6c3-1.1,5.1-1.8,7.6-2.7
		c-4.3,9.1-8.8,17.5-11.5,26.8c-0.2,0.6-0.6,1.3-1.1,1.4c-3.6,1.2-12.8-3.3-14.3-6.8c2.9,1,5.8,2,8.7,3c0.2-0.4,0.1-0.3,0.3-0.6
		c-1.1-0.8-2.1-1.5-4-2.8c2,0.1,2.8,0.2,4,0.3c-0.9-0.7-1.4-1.1-2-1.6h6.9c-6.3-1.8-10.2-4.2-14.1-8.3c3.6,0.9,6.2,2.1,9.3,1.6
		c-1.6-0.8-3-1.4-5.4-2.6c2.5,0.2,3.7,0.3,5.6,0.5c-2.8-1.7-4.9-3-8-5c2.6,0.5,3.9,0.8,6.4,1.3c-4.6-2.9-8.7-4.7-11.8-9
		c1.3,0.6,1.8,0.9,3.8,1.9c-6.8-6.3-2.6-12.8-3-18.9c0.6,2.5,1.2,5.1,2.2,9c0.6-7,0-12.5-0.3-18.1c0.5,1.9,1,3.8,1.7,6.2
		c0.3-6.1-1.3-11.3-2-17.1c0.4,0.9,0.8,1.7,1.1,2.6c-4.1-10.5-11.6-19.8-5.8-31.3c0.8,3.4,1.7,7.5,2.9,11.5
		c3.5,11.3,4.1,23.5,10.6,33.8c2,3.2,3.9,6.6,8.4,6.4c-0.6-2.4-1.2-4.7-2.1-8.2c2.5,3.4,3.6,6.4,7.8,9.3c-7.3-22,4-38.2,12.7-54.2
		c-0.3,4-1.5,8.6-4,12.9c7.6-6.8,11.6-15.7,14.9-25c-1.2,6.7-4.1,12.6-6.9,18.7c6.3-13.4,16.4-24.9,19.2-40.1v6.2
		c2.9-9,6.9-15.7,4.9-24.1c1.5,1.7,2.9,3.4,4.6,5.3c0.6-7.7-2.8-13.1-8.3-18.2c6.2,0.1,10.3,2.9,13.7,7.2c1.7-6.6-1.1-12.5-7.8-17.2
		c-3.2-2.2-7.3-3.4-9.4-7c-2.6-4.3-6.5-6.4-11-8.2c-17.5-7-35.3-13.6-51.9-22.6c-5.2-2.8-9.7-7-15.4-8.7c0.7-0.1,1.6-0.3,2.5-0.5
		c-8.2-1.3-16.1,4.6-21.1,15.5c-0.7,1.6-0.4,2.4,2.9,3.8c-12.9,0.3-24.5-0.8-32.8,8.9c3.3-1.4,6.5-2.9,9.9-3.9
		c3.4-1.1,6.8-2,10.3-2.6c3.4-0.6,6.8-0.7,11.9-1.1c-2.5,1.1-3.3,1.4-5.2,2.3c8.6,1.9,16.3,3.1,23.8,7.9c-6.5-1-12-2.3-18.1-1.5
		c4.8,0.5,9,1.4,13,3.3c3.9,1.9,7.9,3.9,11.9,5.7c2,0.9,4.2,1.6,4,4.4c0.4,0.4,0.7,0.8,1.1,1.1c6.8,10.9,10.9,25.3,9.4,32.8
		c2.5,19.9-5.4,40-0.4,59.9c-1.9-6.4-3.2-12.9-4.9-19.3c-1.7-6.5-5.2-12-11.1-16.8c3.8,10.6,4.9,18.9,3.3,22.3
		c-2.7-8.4-8.6-14.3-16.6-19.7c5.2,0.7,8.3,3.5,12.6,7.3c-3.1-4.7-6.1-7-9.2-9.4c2.1,0.9,4.2,1.9,6.9,3.1
		c-5.6-9.3-10.2-18.5-19.9-24.3c5.8-1.8,10.3-0.1,14.9,1.5c-1.5-1.1-2.9-2.3-4.7-3.7c1.9,0.1,3.4,0.2,6.6,0.4c-7.7-3.3-14-4-21.9-4
		c2.8-1.1,4.1-1.6,5.5-2.2c-0.1-0.4-0.1-0.3-0.2-0.6c-2.7,0.4-5.4,0.7-9,1.2c4.1-4.7,7.8-8.7,14.2-11.5c-6.1,0.1-9.8,3.2-14.4,5
		c2-2.6,4.6-3.6,7.6-5.2c-2.9,0.5-4.9,0.8-6.9,1.1c-0.1-0.3-0.1-0.2-0.2-0.5c1.9-0.8,3.7-1.6,7.2-3.1c-7,1.5-11.3,4.6-16.2,6.9
		c1.7-1.9,3.5-3.8,5.5-6c-1.2,0.3-1.8,0.5-2.6,0.7c0.2-0.7,0.4-1.2,0.6-2c-1.1,0.5-1.9,0.8-3.6,1.6c1.5-1.8,2.4-2.9,3.3-3.9
		c-4.8,1.1-8,4.2-11,7.9c1-1.9,2-3.8,3.1-5.9c-5.8,1-6.1,6.5-9,10.6c0.2-2.4,0.3-4.3,0.5-6.9c-2.2,4.5-2.8,8.8-3.7,13.1v-8.2
		c-1.7,4.9-1.4,8.9-1.7,13.9c-2.9-8.9-2.4-16.8-0.9-24.7c-4.1,9.2-3.8,18.8-2.3,29.3c-2-3.2-3.4-5.5-5-8c-1,3.5,2,5.8,2.7,9.4
		c-1-1.1-1.6-1.8-2.8-3.1c1,2.2,1.7,3.7,3,6.6c-2.2-2.3-3.1-3.3-4.9-5.2c1.1,2.3,1.7,3.6,2.6,5.6c-1.2-0.9-1.8-1.4-3.4-2.7
		c1.8,3.2,2.9,5.3,4.1,7.4c-8.5-3.7-17.5-14.5-16-19.4c2.4,3.1,4,6.8,8.8,9c-2.9-4.4-5.2-8.1-6.2-12.3c-3-12.9-0.2-25.9-0.5-38.9
		c0.5-1,0.9-2,1.4-3c0.5-1,0.9-2,1.7-3.7c-1.5,1-2.3,1.5-4.2,2.7c1.8-2.4,2.8-3.8,4.6-6.1c-2.6,1.3-4.1,2-5.9,2.8
		c-0.2-1.2-0.4-2-0.5-2.9c-0.8,0.7-1.4,1.3-3.2,3c2.7-4.4,4.5-7.5,6.6-11.1c-1.3,0.5-2,0.7-2.8,1c-0.4,0.4-0.9,0.7-1.3,1.1
		c-3,2.2-4.6,5.3-6.1,8.7c-2.8-5.8-7.2-10.7-4.8-17.5c1.2,2.3,2.6,4.9,4.1,7.7c1.8-2.7,2.5-6,5.1-8c0.4-0.5,0.9-1.1,1.3-1.6
		c2.1-2.2,4.1-4.5,6.5-7c-6.7,1.9-10.6,6.3-12.8,12.4c-4.2-8.2-7.9-12.1-12-12.6c3.3,3.4,5.4,7.3,6.5,12c-10.1-5.8-20.9-7.2-24.8-3
		c4,0.4,8,0.2,12.5,2.7c-3.9,0-6.8-0.1-9.6,0c-2.7,0.1-5.3,0.4-8.9,0.7c2,0.9,3.1,1.3,5,2.1c-1.9,0.5-3,0.8-4.1,0.9
		c-1.2,0.2-2.4,0.2-3.8,0.3c0.6,0.7,1,1.2,1.5,1.8c-2.8,0.8-11.2,1.1-13.8,0.7c-0.3-9.3-4.8-19.3-9.8-22.2
		c1.3,7.1,3.6,14.3,6.5,21.6c0.5-0.8,0.9-1.4,1.1-1.8c1.5,2.5-0.7,3.6-2.9,5.2c5.7,1.9,11.6,1.2,16.9,4.4c-1.7,0.4-2.9,0.8-4.5,1.2
		c1,0.4,1.6,0.6,2.1,0.8c-12.3,2.7-19.9-7.8-30.3-10.5c4.3-1.2,8.5-1.5,12.8,1c-2.1-6-7.5-4.2-11.2-5.7c-3.7-1.5-6.6,0.4-8.8,4
		c-11.8,20.2-19,41.5-18.6,65.3c0.2,11.4,4.2,22.8-0.1,34.2c-1.8,4.9-2.8,10.1-4.2,15.2c-3.2,11.6-11,29.1-15,33.1
		c10.9-18.6,11-38.9,12.2-59.5c1.6,2.3,1.7,4.9,4.2,6.3c2.6-6.3,0.9-12.4-0.1-20.5c1.1,4.2,1.6,6.5,2.2,8.7
		c-1.5-20.3-4.5-40.5,3.3-61.8c-5.1,3.9-4.8,8.6-7,12.5c-0.2-3.8-0.2-7.2,1.1-10.7c-1.4,0.5-2.4,0.9-3.3,1.2
		c0.5,4.4-1.9,7.9-3.8,11.6c0.2-4.2,1.5-8,3.8-11.5c0.1-0.7,0.1-1.4,0.2-2.5c-1,1.3-1.7,2.3-2.5,3.3c7.2-10.3,9.9-23.3,19.2-32.4
		c-2.9,2.3-5.7,4.6-8.6,6.9c2.7-5.7,7.7-8.7,14.2-12.3c-5.5,0.5-8.5,2.7-10.9,5.3c-10.7,11.4-24.2,18-38.6,23.4
		c-10.8,4.1-21.9,7.5-32.1,13.3c-7.3,4.1-12.2,9.9-15.5,18.7c1.2-1.3,1.6-1.7,2.1-2.2c1.6-1.6,3.7-2.7,5.8-2
		c2.5,0.8,0.2,2.9,0.4,4.4c0.3,1.8,0.1,3.6,0.1,5.8c1.8-0.9,3-1.5,4.9-2.4c-2.3,5.8-2.4,11.2-1.8,17.4c0.6-2.5,0.9-4.3,1.5-6.9
		c0.5,4.4,1.1,7.9,1.4,11.3c1,13.3,12.8,21.7,15.3,34.3c0.2,1.2,1.1,2.3,2.1,4v-8.4c2.9,5.8,4.8,11.7,11.4,15.9
		c-3.3-4.8-3.7-8.9-4.2-11.7c10.8,14.3,17.4,30.9,11,51.7c4.6-3.3,5.2-6.8,7.6-10.2c-0.2,3.6-0.3,6.3-0.4,9.4
		c6.9-7.1,11.3-15.3,15.2-23.8c3.9-8.5,6.8-17.4,9.4-27.3c1.8,6,3.2,11.2,4.9,16.2c1.2,3.7,1.1,6.9-0.7,10.4c-3,6-4.3,12.4-4.4,20.1
		c0.9-1.9,1.4-3,2.1-4.5c0.7,8.6,3.5,17.1-6.4,23.4c2.1-0.2,2.6-0.3,3.7-0.4c-4.4,3.9-8.8,6.5-15,6.4c3.6,3.3,7.3,3.3,11.8,2.6
		c-4.6,4-9.3,6.4-14.8,9.1h4.4c-2.8,2.4-6.3,1.2-9.2,2.6c0.9,0.4,1.6,0.7,3,1.3c-2.2,0.6-3.8,1-5.7,1.6c1.5,0.8,2.8,1.6,4.4,2.4
		c-1.4,0.5-2.5,0.9-5.5,2h8.9c-5.3,2.3-9,3.3-10-3.2c-0.4-2.7-1.9-5.2-3.1-7.8c-2.3-5-4.7-9.9-7.2-15.2c2.7,1.3,5,2.5,9.1,4.5
		c-4.6-3.9-7-7-9.7-9.9c1.4,2,2.8,3.9,4.6,6.5c-3.2-1.8-5.6-3.2-8.4-4.8c9.4,15,14.2,26.3,15.1,35.1c0.9,8.8-2.1,15.2-8.2,17.2
		c-0.8-1.7-1-3.5-1.1-5.4c-0.2-4.5-0.4-9.1-5.2-11.9c-4.1-2.4-5.7,1.3-9.5,3.9c3.3-12.2-6.1-23.1,0.9-34.2c-2.5,2.9-4.5,6-4.5,10.5
		c-1.8-2.1-3.4-4-5-5.8c0,0,0,0,0,0c7.3,9.3,9.2,19.9,7,31.8c-0.1-0.5-0.3-1-0.6-2c-0.1,14.6-4.8,20.3-17.7,22.1
		c0.7-6-0.7-11.5-3.4-18.7c0.5,4.4,0.8,7.1,1.2,10.1c-3.1-2.4-4.7-6.7-11.2-5.4c5.2,0.9,8.8,3.1,7.4,6.3c-1.3,3.1-1.6,6.1-2.2,9.1
		c-0.9,4.7-1.5,9.5-3.8,15.1c-2.4-12.3-1.3-24-5.9-34.5c-0.3,1.2-0.7,2.6-1,4c1.3-9.1,1.5-18.3,5.5-27c-2,0.5-1.9,2.2-3.4,4.6
		c1.9-8.2,3.3-14.8,8-21.3c-7.7,6.4-9.7,9.5-9,17.3c0.7,8.9-4.4,16.9-2.7,26.1c-6.2-4.4-7.7,1.1-10.3,4.4c0.1-2.8,0.3-5.2,0.4-7.6
		c-1.7,4.8-2.4,9.6-3.1,14.5c-0.2,1,0.4,2.5-1.6,2c-9.1-2.3-10.5-4.3-11-13.7c-0.3-6.1-2.6-12.1-1-18.2c2-7.6,7.4-13.3,12.5-19.7
		c-1,0.2-1.4,0.4-1.8,0.5c-5.8,3.8-9.3,9.2-12,15.4c-1.2,2.7-3.2,4.8-5.8,6.7c-4.1,3-3.6,8.5-4.6,13.1c-0.5,2.5-0.4,5.2-0.6,8.5
		c-4.6-4.5-5.1-9.3-4.4-14.6c0.9-7.1,5.1-12.7,8.3-18.8c0.9-1.6,4.4-11.2,5.1-12.9c-2.9,4.7-9.1,17-11.7,21.9
		c-4,7.5-5.5,15.3-0.2,23H10.1v3.4c18.2,0.1,36.3,0.2,54.5,0.3c1.7,0,3.6-0.3,5.1,1.1c-1.1,1.8-3.1,0.6-4.3,1
		c5.7,0.6,11.6,1.3,17.5,1.9c0,0.5,0,0.3,0,0.7h-6.6c4.6,0.4,9.3,0.3,14.2,2c-0.9,0.2-1.3,0.4-2,0.5c3,0.1,5.7-0.1,8.7,2.3
		c-1.7,0.3-2.5,0.4-3.3,0.5c1.3,0.2,2.9-0.5,3.6,1.4c0.4,1.1-0.5,1-1,1.5c1.1,0,1.8,0.3,2.4,1.2c1.9,3.1,3.9,6.2,5.9,9.2
		c0.6,0.9,1.1,2.4,2.5,1.7c0.8-0.4,1.4-1.7,1.8-2.6c1.1-2.9,0.1-6.4,2.3-9.1c2.4,2.4,2.7,5.9,4,8.8c0,0.1,0.1,0.2,0.1,0.2
		c0.7,1.4,2.7,1.6,3.6,0.3l0,0c1.9-2.7,3.6-5.7,5.9-6.7c0,0,1.1-0.8,1.9-0.9c-0.5-0.4-2,0.3-1.7-0.7c0.8-2,0.7-4.9,4.9-4.7
		c-2.8-0.7-2.5-1.3-1-1.8c4.3-1.4,8.6-3.3,13.1-4.1c4.8-0.8,10.3-1.8,14.4,0.6c4.1,2.4,5.3,0.6,7.1-2c0.3-0.4,0.7-1,1.1-1
		c5.6-0.1,11.2,0,16.8,0c0,0.6,0,0.3,0,0.9c-1.9,0.2-3.7,0.4-5.6,0.5c0,0.1,0,0.2,0,0.3h4.8c-3.6,5.9-7.8,10.9-14,16.3
		c9.6-4.7,15.2-11.2,19.6-19c-2.2,2.3-4.4,4.7-8,8.3c6.5-9.1,7.9-12,11.2-17.9c2.8-4.9,4.9-10.2,6.2-15.7c1.1-4.5,2.2-9.2,3.3-13.8
		c-1,0.4-1.9,0.8-4.7,1.9c7.9-6.1,10-13.6,13.5-20.2c5.4-10.4,13.2-17.7,25.2-19.3c5.1-0.7,10.3-1.1,16.3-1.7
		c-8.2-2.4-15.8-3.6-23.6-2.7c6.3-2.1,12.8-2.2,19.3-2c-9.1-2.1-18-0.5-26.9,1.5c17.4-7.1,35-11.3,53.5-1.4
		c-2.8-3.2-5.6-5.2-8.7-6.7c-3-1.5-6.2-2.9-9.3-4.3c17.9,5.7,38.4,7.7,44.5,31.2c0.5-1.8,0.8-2.8,1.1-3.9c0,0,0,0,0,0
		c8.2-15,28.3-24.9,40-19.2c-11,1-21.5,1.7-30.2,9.8c18.2-6.5,31-7.5,37.6-3c-0.9,0.2-1.7,0.4-2.5,0.6c-0.8,0.2-1.7,0.3-4,0.7
		c22.5,8,37.5,23,51,41.5c-4.3-3.1-8.1-5.8-11.5-8c16.3,12.8,26.7,32.1,25.6,42.7c-4.6-6.3-7.3-14.3-16.1-18.3
		c12.6,12.9,13.5,27.8,10.8,43.6l0-0.1c-0.4,3.5-0.9,6.9-1.4,10.9c2.8-5.6,4-11.2,4.5-16.9c0.2-2.7,1.2-3.2,3.7-3.5
		c1.8-0.2,3.3,1.9,4.9,0.3c14.2-0.1,28.5,0.2,42.7-0.3c7.3-0.3,13.3,0.4,15.9,8.3c0,0.1,0.3,0.1,0.7,0.2c0.4-0.7,0.6-1.5,1.1-2.1
		c1.4-1.8,1.8-5.6,5.1-4.5c2.5,0.8,0.3,3.5,0.6,5.3c0.1,0.8,0.4,2,1.1,2.3c0.9,0.6,1.5-0.5,2.2-1.1c3.7-3.1,6.4-7.9,10.6-8.3
		c-0.6,0-1.2-0.1-1.9-0.1c2.1-4.2,5.8-2.9,9.6-3.6c-2.6-0.3-4.6-0.5-6.5-0.7c7-3.1,14.4-2.3,22.6-3.3h-13.8c1.6-2,3.7-0.7,5.2-1.5
		c0,0,0,0,0,0c8.2,0,16.3,0,24.5,0c0-0.2,0-0.5,0-0.7h-9.4c-0.6-6.8,3.8-6.4,8.4-6.3c17.2,0.2,34.3,0.2,51.5,0.2
		c1.3,0,3.9,1.5,4-1.2C586.2,496.1,583.4,497.7,582,497.6z M439.2,357.7c-1.6,7.5-0.4,13.9-2.8,20.6c-1.5-4.2-0.2-8-0.8-12.4
		c-0.4,1.5-0.6,2.2-1.2,4.5c0.2-11.2-1.4-20.4-4-29.8c-2.5,10.1,0,20-2.5,29.6c-0.1-10.8,2.1-21.7-2.3-32.2c0.5,4.3,1,8.5,1.7,14.7
		c-2.6-10.6-4.7-19.4-7.2-29.7c2,3,3.1,4.7,4.6,6.9c0.7-3-1.8-4.4-2.2-7c5.1,0.6,5.3,5.7,8.6,8.2c-0.5-2-1-3.7-1.5-5.4
		c0.6-0.1,1.1-0.3,1.7-0.4c5.8,12.9,9.2,26.4,9.2,41.9C440,363.7,439.7,361.4,439.2,357.7z M422.8,289.6c3.3,1.3,5.7,2.1,8,3.1
		c1.1,0.5,1.9,2,3.1,1.4c1.6-0.9-0.7-2.1,0-3.2c15.3,0.3,23.9,11.3,33.8,20.3c-0.1,0.2-0.2,0.4-0.2,0.4c0.9,1.8,4.2,3.2,2.6,5.4
		c-1.4,1.8-4-0.5-6-0.6c-6.3-0.2-7.9-6.2-11.9-9.2c-1.2-0.9-2-2.4-3.8-2.4c2.8,5.1,7,9,10.5,13.5l0.1,0.1c-0.2,4.3,3.9,6.6,5.5,11.4
		c-4.1-4.7-7.3-8.6-10.8-12.2c-5.7-5.9-11.6-11.6-17.5-17.4c-0.7-0.7-2-1.3-2.8-0.3c-0.9,1.2,0.5,1.8,1.1,2.5
		c5.2,5.3,10.6,10.6,15.7,16.1c1.4,1.5,1.7,4,2.8,6.8c-1.3-0.8-1.9-1.2-2.7-1.7v2.3c-0.7-0.8-1.2-1.3-1.8-1.9c3.3,12.2,13.1,23,7,37
		c1.6-4.8-1.1-9.4-0.7-14.2c-0.1,0.5-0.2,1.1-0.5,2.5c-1.9-7.6-4-14.3-9.1-19.8c-0.5,5.4,3.1,9.2,4.3,13.5c-1.3,1.3-1.3-3.2-2.7,0.3
		c-1-4-2.1-7.5-4.8-11.6c0.9,4.6,1.7,8.2,2.4,11.7c-0.2,0.1-0.3,0.1-0.5,0.2c-0.6-1.8-1.2-3.6-2.4-7.4c0.5,3.8,0.8,5.7,1.1,7.5
		c-2-14.3-11-25.1-18.9-36.8c3.5-0.2,4.6,3,7.7,4.5c-2.4-3.3-4.2-5.9-6.1-8.4c0.2-0.2,0.4-0.4,0.7-0.6c1.7,1.3,3.5,2.6,5.5,4.2
		c-3.7-5.8-7-11.4-11.4-16.3c2.5,2.2,4.9,4.5,7.7,6.9C427.4,293.9,424.4,292.9,422.8,289.6z M393.6,276.7l-2.7,0
		c-0.5-0.2-1-0.3-1.4-0.6c-2-1.6-4-3.3-6.5-4.5c1.8,1.5,3.5,3,5.3,4.5l-0.8,0.8c-1.2-1-2.4-2-4.5-3.6c3.6,5,6.6,9.1,9.6,13.2
		c-0.2,0.1-0.4,0.3-0.6,0.4c-1.7-2.1-3.4-4.2-6.3-7.9c1.3,2.6,1.8,3.5,2.5,4.9c-1-0.5-1.6-0.8-3.5-1.7c4.2,3.8,1.4,8.4,4.2,11.6
		c-0.7-0.8-1.4-1.6-3.1-3.6c1,3,1.6,4.8,2.2,6.5c-0.3,0.1-0.2,0.1-0.4,0.2c-2.3-4.4-4.6-8.9-7-13.3c-1.6-2.9-3.6-5.7-6.5-7.2
		c-3.6-1.9-4.1-4.6-2.1-7.6c1.7-2.5,1.8-6.8,7.5-5.1c4.9,1.5,8.6,4.3,12.8,6.7c0.9,0.5,2.1,3.5,3,4.2
		C395.2,275.6,395.3,276.9,393.6,276.7z M408.2,387.1c0.5,3.5,0.9,6.9,1.4,10.4c0.1,0,0.3,0,0.4,0c-0.2-3.4-0.3-6.8-0.6-12.1
		c2.4,10.5,2.9,19.3,3.4,28.1c0.1,1-0.5,0.4-0.8,0.3C410.9,404.9,407.7,396.2,408.2,387.1z M403.9,381.5c1.7,9.3,3.4,18.5,5.1,27.8
		c-0.1-2.2-0.3-4.4-0.5-7.5c1.3,4.5,2.3,8.3,3.4,12c0,0,0,0,0,0c0.9,3.6,1.8,7.2,3.1,12.2c-3.8-6-4.3-11.6-6-16.7c0,0.8,0,1.6,0,3.3
		C405.4,401.9,403.7,391.9,403.9,381.5z M148.7,340.3c-0.3-2.8-1.9-6.2,1.2-9.4c4.8-4.9,7-10.8,6.6-17.7c-0.1-1.5,1.1-3,1.8-5
		c-9.7,4.1-12.2,13-16.2,20.8c-2.4-2.2-2.3-3.6,0.1-8.4c1.8-3.5,4.8-5.9,7.7-8.4c3.8-3.2,7.4-6.5,12-10.6c-2.3,0.8-3.4,1.2-5.1,1.8
		c2.9-6.3,8.2-5.3,13.3-5.8C160.2,311,160.8,328.8,148.7,340.3z M168,388.7c2.6,5.4,3.5,9.7,3.8,15.7
		C169.4,398.9,168.7,394.6,168,388.7z M173.5,376.5c-0.9-4.5-1.4-7.5-2.2-11.7c-0.9,18.2,11.1,34.3,2.8,51.6v-13.3
		c-0.2,0-0.4,0-0.6,0c-0.1,0.5-0.2,0.9-0.5,3.3v-12.1c0.7,1.6,1.1,2.3,1.9,4c-0.2-1.6-0.1-2.3-0.3-2.9c-4.4-11.6-3.5-24-5.3-36
		c-1-6.6-5.4-11.8-8.4-17.4c-2.8-5.2-1-9.8-0.1-14.6c0.5-2.8,2.1-5.3,3.2-7.9c1,6.5-1.5,12.7-1.2,19.2c3.9-6.5,3.2-14.5,8-22.3
		c0.5,12.8-5.1,23.8-1.5,34.6c2.4-6.9,0-14.5,1.4-21.9c0.4-2.2-0.2-6.2,2.7-5.8c2.4,0.3,0.1,3.7,0.2,5.7c1.2,14.1,2.3,28.3,3.5,42.4
		c0.1,0.7,0.2,1.5,0.5,3.9c-2.8-10.8-3.2-20.1-4-29.4C171.5,355.7,174.2,365.3,173.5,376.5z M179.2,345.4c-1.5-4.3-1.5-8.8-2.2-13.4
		v16.6c-2.5-7.8-2.7-15.4,1.3-23.5C180.6,332.3,178.5,338.9,179.2,345.4z M74.5,495.1c-0.2-2.7-0.3-4.8-0.5-7.7
		c-0.2,1.4-0.4,2-0.5,2.6c-0.1-3.9-1.6-8,2.2-11.1c0.4-0.4,1.2-0.8,1.6-0.6c0.7,0.3,0.4,1.2,0.5,1.8
		C78.6,485.3,77.2,489.9,74.5,495.1z M107,524.2c-2.6-9.3-5.3-18.5-5.8-28.1c-0.1-1.8,0.8-3.1,2.7-3.3c1.9-0.2,2.8,0.9,3,2.6
		C107.8,505,108.8,514.6,107,524.2z M144.7,504.1c0-0.2,0-0.3,0-0.5c1.2-0.1,2.3-0.2,3.5-0.3c-1.1-0.1-2.1-0.2-3.2-0.3
		c3.4-0.2,7.2-2.2,11.6,1.8C151.6,504.6,148.2,504.4,144.7,504.1z M159.5,504.9c-0.1-6.7-5-11.9-5.7-18.4c-0.2-1.7-1-3.5,1.2-4.3
		c2.3-0.9,3.4,0.6,4.4,2.3C163.5,491.4,159.9,498.1,159.5,504.9z M356.7,364.5c2.3,0.3,3.6,1.6,3.6,4c0,2.6-1.4,4.1-4,4
		c-2.6-0.1-3.8-2-3.8-4.3C352.6,365.8,354.3,364.6,356.7,364.5z M322,363.9c-5.2-1.1-10.9,0-15.9-3.9
		C312.6,357.8,316.9,362.5,322,363.9z M305.1,301.6c-0.4,5.9-0.7,11.8-1.1,19.1C303.7,313.4,302.2,307.4,305.1,301.6z M308.5,346.9
		c-2.7-3.8-6-7.3-6.1-12.4C305,338.4,305.9,343.1,308.5,346.9z M294,305.2c-4.9-3.5-4.4-11-10.7-13.5c3.7-3.3,4.8-1.4,6.1,1.9
		C290.9,297.4,293.1,301,294,305.2z M291.6,284.8c-7.2-3.3-13.5-8.9-22.2-8.9C279.3,274.6,288.9,278.7,291.6,284.8z M258.2,391.5
		c-7.7,2.9-16.6-1.1-19.6-8.9c-2.9-7.4,0.1-15.5,7.2-18.4c-4,5.1-4.4,10.2-1.6,15.3c2.3,4.2,6.2,6.5,10.9,6.1
		c7.1-0.6,10.5-5.4,11.2-12.7C268.9,380.6,265.1,388.9,258.2,391.5z M253.5,368.8c0.1-2.4,1.8-3.5,3.9-3.5c2.2,0,3.7,1.6,3.7,3.8
		c0,2.5-2.1,3-4,3.2C254.9,372.1,253.4,371.2,253.5,368.8z M278.7,357.4c0.1-0.8,0.6-1.6,0.8-2.4c0.1-0.5,0-1-0.1-2.2
		c-1.4,1.5-2.3,2.5-3.7,4c0-10.5-1-20.4-7.2-29c2.9,6.4,4,13.2,3.6,20.2c-0.9-7.7-4.2-13.9-11.4-19.1c1.5,1.9,2.4,3,3.2,4
		c-0.1,0.1-0.2,0.3-0.3,0.4c-1.8-1.5-3.5-3-5.3-4.5c-0.2,0.1-0.3,0.3-0.5,0.4c0.9,1.2,1.8,2.5,2.6,3.7c-5.1-4.2-10.3-7.9-16.8-9.5
		c5.3,3,10,6.8,13.9,11.6c-5.1-3.1-10.4-5.4-17.1-6c2.8,1.1,4.9,1.8,8.1,3.1c-5.4,0.7-9.6,1.2-15.4,2c4.9,0.8,8.1,1.2,11.7,3.4
		c-4.7-0.4-8.5-1.1-12.6,0.2c2.6,0.3,4.9,0.6,6.9,0.9c-5.2,2.5-11,4-15.2,9.7c4.5-2.2,8.2-3.8,13.2-3c-9.4,5.1-15.8,12.1-22.4,21.8
		c3.8-2.1,5.9-3.2,9.7-5.2c-8.1,8.3-12,16.9-15.5,25.9c-2.4-8.5,0.1-16,3.6-24.6c-5.1,5-7.9,10.1-10.7,16.2c0.4-7.4,3.8-12.9,5.4-19
		c0.5-1.7,0.6-2.6-0.5-4.3c-3.7-5.6-1-11.1,1.3-16.4c0.6-1.3,1.3-2.6,0.5-4c-0.7-1.3-1.3,1-2.5-0.4c4.2-13.3,14.8-20.8,26.8-28.1
		h-7.4c10.4-4,20.5-2.1,30.9,0.7c-2.9-1.5-5.6-2.9-9.5-5c9,1.4,16,4,21.9,10c-3.7-8-12.8-11.9-30.9-13.7c12.7-0.1,25.8-3.4,37.7,5.3
		c-0.2-1-0.3-1.6-0.5-2.9c4.6,5.2,7.4,10.6,8.5,16.8c0.1,0.4-0.6,1.3,0.9,1.3c2,0.1,1.4-1.5,1.3-2c-0.6-8.7-4.2-16.2-10.1-22.6
		c-0.9-1-2.8-1.9-1.4-3.3c1.1-1.1,2.3,0.3,3.3,1.2c1.8,1.8,3.6,3.6,5.3,5.4c0.2,0,0.2,0.2,0.2,0.3c0.1,0,0.2,0.1,0.2,0.2
		c0.2,0.3,0.3,0.6,0.5,0.9c4.8,0.6,4.8,5.4,7.1,8.2c0.5,0.7,0.5,1.8,0.8,3c0.6-0.5,1.1-0.9,2.2-1.9c-0.5,6.2-3.5,10.9-4.9,16.7
		c4.5-2.9,3.8-8.4,7.1-12c2.4,8.1-0.8,14.8-1.9,22c1.9-0.1,1.1,1.6,0.4,2.9c-3.2,6-6.5,12-9.8,17.9c-1.3,2.5-3.1,3.6-6,2.6
		C277.3,358.7,278.7,358,278.7,357.4z M319.2,411.7c-0.5,0-1.3-0.9-1.4-1.4c-0.2-1.1,0.9-1.2,1.7-1.5c6.2-1.8,11.2,1.5,16.4,4.1
		C330.3,412.6,324.8,412.2,319.2,411.7z M311.5,404.7c0.9,0.8,1.7,1.4,0.3,2.7c-8,7.6-11.8,17.1-12.4,28c-2.7-5.9-3.8-12.5-8.6-17.4
		c-0.7-0.7-1.3-1.3-1.8-2.1c-1-1.4-3.8-2.1-3.1-3.9c0.6-1.6,3.1-2,6.1-2c-3.9-2.8-7.4-3.4-11.8-3.4c2.3-1.2,4.1-0.9,6-0.5v-2.7
		c2.4,0.4,4.9,0.8,7.4,1.3c0.1-0.2,0.1-0.4,0.2-0.5c-2.8-0.8-5.7-1.5-9.2-2.5c3.6-1.9,6.6-0.1,11.3,0.3c-3.5-1.2-5.5-1.8-7.9-2.6
		c1.7-3,4.5-1.6,7.6-2c-2.1-0.7-3.4-1.2-5.3-1.8c1.2-0.5,1.9-0.9,3.1-1.4c-3.3-1.5-6.1-0.9-8.9-0.4c-0.9,0.2-2.2,1-2.7-0.5
		c-0.4-1.4,0.3-2.4,1.6-2.8c2.8-0.9,5.6-1.7,9.9-3c-2.9-0.3-4.2-0.4-6.7-0.7c8.7-4.2,16.9-4.8,25.9-5.6c-2.3-0.8-4.3-0.7-5-2.7
		c-0.4-1.1,0.7-1.3,1.7-1.9c-7.2-0.2-13.3,3.1-19.8,4.6c-1.8,0.4-4.3,1.9-5.2-0.6c-0.9-2.3,2-2.7,3.5-3.5c8.9-4.6,19.2-3.9,28.1-7.4
		c-2.2-0.2-4.9-0.4-7.9-0.6c6-2.6,16.4,1.2,19.6,7.4c-6.5-3.3-12.8-4.1-19.4-2.4c8.6-0.5,16.6,0.9,23.2,6.7
		c-4.2-2.5-8.5-4.9-13.6-5.1c5,1.4,9.3,4,13.7,7.9c-1.8-0.3-2.8-0.4-4.5-0.7c2,1.3,3.4,2.2,6,3.8c-5-0.5-8.1-3.2-12.9-2.6
		c5.7,2.1,10,4.6,13.7,8.2c3.9,3.8,4.7,8.9,6.1,13.9C323.8,399.4,319.5,400.9,311.5,404.7z M342.4,385c-4.9-10.1-4.9-17.1,0.1-20.7
		c-3.4,11.7-1.6,17.6,6.4,20.6c6.1,2.3,12.7-0.4,15.4-6.2c3.3-6.9,0.4-13.1-8.7-18.1c7.1,0.8,13.7,7.5,14.2,13.8
		c0.6,7.7-4.5,14.8-12.1,16.8C351.4,393,344.9,390.4,342.4,385z M380.4,408.1c1.8,4.4-1,7.7,0.2,12.1c-3.2-1.8-2.9-5.1-5-6.8
		c-0.8,2.2,2.3,4,0.4,6.5c-1.2-2.1-2.3-4-3.3-5.9c-0.2,0.1-0.5,0.2-0.7,0.4c1.7,4,3.3,8,5,12c-4.2-7.9-10-14.4-17.9-20.5
		c3.3,0.1,2.9-0.8,1.9-2.1c2.1,0.4,3.9,0.7,6.2,1.2c-1.2-1-2-1.6-3.8-3.1c4.7,1,8.2,1.8,12.1,2.6c-0.9-2-3.2-2.6-3.1-4.6
		c14.8,3.2,16.3,12.2,16.3,22.2C384.4,418.3,385.6,411.9,380.4,408.1z M448.2,503.6c-1.3,0.1-2.5,0.2-4,0.3c2.5,0.7,4.8,1.3,8.7,2.4
		h-16.7C439.1,500.2,444.2,503.8,448.2,503.6z M432.1,486.3c1.2-1.9,1.4-5.3,4.7-4.4c3.4,0.9,2.2,3.8,1.6,6.1
		c-1.5,5.6-3.1,11.1-4.6,16.7C434.5,498.5,428.2,492.8,432.1,486.3z M408,502c0-0.2,0-0.3,0-0.5h20c0.5,1-0.2,1-1.3,1.2
		c2.6,0.2,1.9,1.8,2.1,3.3c-6.5,0-12.8,0-19.2,0c-2.4,0-1.5-1.9-1.9-3.5h14c0-0.2,0-0.3,0-0.5H408z M403.9,504.4
		c0.1,1.9,3.7,2.9,1.6,5.6c3.4,0.2,2.8,3.6,4.4,5.4C403.8,517.5,402.2,514.5,403.9,504.4z M465.3,516.2c-13.2,0-26.3,0-39.5,0
		c-4.6,0-9.3,0.3-13.9,0.4c0,0,0,0,0,0c-1.8-1.9-1.9-4.3-2.6-6.8h28.4c0-0.1,0-0.3,0-0.4c-8.6,0-17.2,0-25.8,0
		c-1.4,0-3.5,0.3-3.3-1.9c0.1-2.1,2.1-1,3.1-1c7.2,0,14.4,1.4,21.4,1.1c6.6-0.3,13.1-0.1,19.7,0c0.2,0,0.5,0.2,0.9,0.3
		c-0.6,0.2-0.9,0.4-1.2,0.5c2.1,0.2,4.3,0.4,6.5,0.6c0,0.3,0,0.5,0,0.8h-13.5c0,0.3,0,0.7,0,1h18.3c-13,2.9-26,2.4-39.1,3.9h40.7
		C465.3,515.1,465.3,515.6,465.3,516.2z M490.3,498.1c-1.6,9-5.1,17.3-10.1,25.2c1.3-9,2.5-17.5,3.7-26c0.4-2.8,0.9-5.8,4.3-5.4
		C492,492.5,490.7,495.8,490.3,498.1z M507.1,507.2c0.3-3.1,3.3-3.9,5-5.6c1.6-1.5,3.1,1.1,4.4,2.2c0.7,0.5,1,1.6,1.5,2.5
		C514.3,506.5,510.7,506.8,507.1,507.2z M518.1,494.8c-1.5,0.1-1.3-1.8-1.7-2.8c-2.1-5.1,0.9-10.8-2.3-16.1c3.7,1,5.7,3.6,5.7,7.3
		c0,2.9-0.3,5.8-0.6,8.6C519.1,492.9,519.9,494.7,518.1,494.8z"/>
	<path d="M404.2,338C404.2,337.9,404.2,337.9,404.2,338c-0.3-2.2-0.7-4.4-1.2-6.6C403.4,333.6,403.8,335.9,404.2,338z"/>
	<path d="M149.6,301.4C149.6,301.4,149.5,301.4,149.6,301.4l0.1,0.1L149.6,301.4z"/>
	<path d="M340.5,557.8c-1.4-1.5-0.6-3.6-1.2-5.4c-2.3,3.5-1.3,8-4.4,11.1c2-3.6,1.3-6.9-0.4-10.4c-1.7,0.8-3.2,2-5.3,1.8
		c0.2-0.7,0.4-1.3,0.7-2.2c-0.6,0.3-1.1,0.5-1.7,0.8c-0.1-1-0.2-1.9-0.3-3.2c-3.8,3.9-6.7,8.4-12.8,10.1c3.2-3.4,7.1-5,9.1-8.6
		c2.1-3.7,1.9-7.6,0.8-11.6c0,1.5,0,2.9,0,4.4c-0.1,0-0.2,0-0.3,0c-0.2-1.5-0.5-3.1-0.8-5.5c-0.3,1.6-0.4,2.3-0.6,3.3
		c-0.1-0.9-0.2-1.5-0.5-4.3c-0.6,11-6.7,15.2-14.2,18.9c0-3,0-5.5,0-8.7c-1.8,2.7-3.2,4.9-4.7,7.1c-1.6-2.1-2.9-4-4.5-6.1
		c-0.6,1.1-1,1.9-1.9,3.4c0.1-2.2,0.2-3.5,0.3-5c-1.7,2.4-3.3,4.5-5.3,7.2c-0.9-2.9-1.6-5.1-2.4-8c-0.8,3.9-2.5,6.9-2.1,10.7
		c-3.7-1.3-5.1-4.4-7.8-7.3c0.6,4.6,0.1,8.8,2.9,12.4c-3.4-1.7-4.8-4.6-5.9-8.2c-1.1,1.2-2.1,2.3-4.1,4.6c1.7-4.2,3.2-6.7,3.2-10.3
		c-1.3,1.7-2.3,3.1-3.6,4.9c-0.6-2-1-3.5-1.6-5.5c-1,2.3-1.7,4.1-2.9,6.8c0-3,0-5,0-7.4c-1.1,1.3-1.9,2.1-2.7,2.9
		c-2,0-0.1-3.8-2.9-3c-2.5,0.7-2.1,3.1-2.3,4.8c-0.9,8.1,2,15.4,5.8,22.7c-4.7-2.5-9-4.9-12.3-8.8c3,1.8,6,3.7,9.3,5.7
		c-1.7-3.1-3.2-5.9-4.7-8.8c0.2-0.1,0.3-0.3,0.5-0.4c0.2,0.4,0.4,0.9,0.7,1.3c-2-9.5-1.4-18.3,5-26c-0.9,2.4-1.7,4.8-2.7,7.4
		c6.1-1.2,6-9.2,11.5-10.1c6.8-1.2,11.6-5.6,17-9.1c6.5-4.3,7.2-9.2,2.4-15.4c-0.8-1.1-1.8-1.5-3.1-1.6c-2.4-0.2-4.8-0.4-7.2-0.9
		c-2.4-0.5-4-2.2-5.5-4c-7.2-8.1-18.7-13.9-14.8-27.9c2.2-7.9,6.8-13.5,15.4-14.7c13.1-1.7,26.2-1.4,39.1,1.4
		c7.2,1.6,12.7,5.8,14,13.6c1.4,7.8,0.3,16.2-6.5,20.2c-6.7,3.9-11.4,10.5-19.4,12.6c-6,1.6-2.2,5.5-0.3,8.2
		c4.1,5.7,11.3,7.2,17.2,11.9c-1.5-4.3-2.8-7.9-4-11.5c3.6,7.2,7.8,13.8,12.7,20.6c1.4-2.3-0.2-3.8,0.1-5.8
		c2.4,5.9,6.7,10.6,6.8,17.1c3.6-12-1.1-22.7-5.8-34.3C341.1,529,340.9,543.4,340.5,557.8C340.4,557.8,340.5,557.8,340.5,557.8z
		 M318.9,476.9c-0.9-2.4-2-3.1-4.7-4.1c-8.8-3.1-17.6-0.1-26.3-1.3c-1-0.1-2.6-0.1-2.4,1.7c0.1,0.8,0.3,2,1.3,1.8
		c1.3-0.2,3.3,1.2,3.7-0.2C299.9,475.7,309,478.7,318.9,476.9z M304.3,552.2c2.4-4.5,4.5-9.1,1.6-14.5c-2,3.5-4.5,0.2-6.5,0.6
		C298,543.9,299.7,548.4,304.3,552.2z M310.9,537c0.6,5.7,0.2,11.4-0.7,17.2c5.7-4.3,8.2-11.2,5.6-15.5c-0.1,1.7-0.2,3.3-0.3,5.9
		c-0.5-3,0.3-5.2-1.5-7.3c-0.1,2.7-0.3,5.1-0.4,8.2C312.5,542.1,311.7,539.6,310.9,537z M287,554.9c1-5.3,1.6-9.6,0-14.1
		c0,1.9,0,3.7,0,7.2c-0.7-3.2-1.1-4.8-1.5-6.4c-0.2,0-0.5,0.1-0.7,0.1c0,1.3,0,2.5,0,4.7c-1.8-2.5-3-4.2-4.7-6.7
		C279.9,546.2,283.9,549.8,287,554.9z M292.5,552.7c3.4-5.6,4.6-10.7,4-17.8c-0.6,3-1,4.5-1.4,6.4c-0.1-1.4-0.2-2.4-0.3-3.4
		c-2,0.1-2.2,1.8-2.8,3.2c-0.3-0.7-0.5-1.2-0.9-2.4C290.4,543.7,291.6,547.7,292.5,552.7z"/>
	<path d="M192.5,506.3c-4.7,5.4-8.3,10.1-13.9,13.4c5.4-9.8,14.4-16.2,20.1-25.3c-5.8,12.8-6.1,25.7-1.7,38.8
		c-0.1-1.7-0.3-3.4-0.5-6c0.9,1.3,1.3,1.9,2,3c0.4-9,2.8-16.8,7.2-24.8c-7.2,21.6-10.2,41.7,11,58.4c-5-9.9-7.4-19.2-5.1-29.4
		c-1,13,4.1,24.1,10.4,35c-4.3-4.5-10.2-7-14.1-12.5c0,0.8,0,1.2,0,3.7C199.4,542.4,188.7,527.1,192.5,506.3z"/>
	<path d="M242.2,574c-22.8-19.1-14-51.7-2-65.3c-10.3,23.4-20.5,47,8.4,66.1c-0.4,0.1-1.1,0.2-2.4,0.4c2.2,1.2,3.7,2.1,5.3,2.8
		c1.6,0.7,3.3,1.2,5.5,1.9c-7.2,1-32.2-9.8-37.6-19.4c-2.7-4.7-3.3-10-3.3-16.5c1.3,4.3,2.2,7.6,3.5,10.9c1.3,3.5,2.9,7,5.7,9.6
		c2.6,2.4,5.6,4.5,9,7.1c-0.2-1.4-0.4-2.2-0.7-4.2C235.7,571.5,237.9,573.8,242.2,574z"/>
	<path d="M345.3,562.6c3.6-4.8,6.8-9.9,9.5-15.3c-1.3,6,0,12.4-3.4,17.9c11.5-13.8,12.6-29.8,10.2-46.5c8.8,14.4,1.1,38.8-17.7,55.3
		c2.3,0.7,4.5,0.3,8.5-1.5c-6,3.7-10.5,4.4-16.7,4.6c8.9-4.4,13.8-10.4,15.6-19.4c-2.8,2.2-3.9,5.5-6.9,6.7
		C344.7,563.8,345,563.2,345.3,562.6z"/>
	<path d="M216.5,262.1c0.9,1.1,1.2,1.5,2,2.5c-6.5-2.4-12.5-4.5-18.8-5.4c6.6-2.4,13.1-1.4,20.4,0.7c-4.3-4.8-9-6.2-14.6-6.3
		c6.7-4.3,15.1-1.5,23.6,7.5c-0.2-1.6-0.3-3.1-0.6-6.7c2.8,4.4,4.5,7.2,6.4,10.2c0.6-1.2,1-2.1,1.9-4.1c-0.4,2.7,0.1,4.3-1.4,5.3
		c-1.1,0.8-1.8-0.5-2.5-1c-0.2,0.9-0.4,1.8-0.6,2.8c-2.9-2.1-3-6-6.3-7.2c-1-0.4-1.7-2.3-3-1c-1.2,1.1,0.4,2,0.7,3
		c0.3,1.1,0.9,2.2,1.4,3.6C222.3,264.7,219.8,263.6,216.5,262.1z"/>
	<path d="M400.1,525.8c-6.5,23.1-24.3,36.6-42.4,49.9c-2.6,1.9-6.1,2.6-9.4,3.5c25.3-10.4,36.5-28.6,32-56.1
		c3,5.2,2.5,13.9-1.5,32.3c11.8-10.7,19.6-23.2,21.1-39.5c0,1.6,0,3.3,0,4.9C400.1,522.5,400.1,524.2,400.1,525.8
		C400.1,525.9,400.1,525.8,400.1,525.8z"/>
	<path d="M382.6,256.4c-6.3,3.8-12.1,7.3-18.2,11c0-1,0-2.1,0-3.2c-1,4.3-5.2,6.6-6.2,11.1c-1.7-1.1-3-2-5.7-3.8
		c3,5.4,1.1,7.8-3.1,8.6c-3.6,0.7-6.7-0.5-9.4-4.4c3.9,1.7,6.9,4,10.3,2.3c4.2-2.1-0.6-6.3,2.1-9.1c1.2,0.9,2.6,2,4.4,3.4
		c2.2-9.3,6.6-16.7,14.4-20.7c-1.5,1.7-3.4,3.9-5.4,6.2c-1.9,2.3-3.7,4.6-4.9,8.7c3.1-4,5.6-7.1,8-10.1c-0.4,2.5-2.4,4.2-2.5,7.3
		C371.3,259.7,376.2,256.7,382.6,256.4z"/>
	<path d="M306,276.8c-0.4,0.4-0.9,0.7-1.3,1.1c-1.2,0.7-2.4,1.3-4.4,2.4c3.8-5.6,9-7.7,13.9-10.4c-4.2,1.6-8.3,3.2-12.5,4.9
		c-0.7-2.1,0.7-3.9,1.3-5.8c0.4-0.5,0.9-1.1,1.3-1.6c1.8,1.5-1.3,2.6-0.2,4.1c9.1-6.8,19-5.6,29-2.2c-1-0.1-1.9-0.2-3.7-0.3
		c1.3,0.8,1.9,1.2,3.1,2C322.6,270.1,313.4,269.4,306,276.8z"/>
	<path d="M345.3,562.6c-0.3,0.6-0.6,1.2-0.9,1.8c-2.9,2.2-5.9,4.4-8.8,6.7c2.5-4.2,2.9-9.1,4.9-13.3c0,0-0.1,0.1-0.1,0.1
		c1-2.7,1.9-5.4,3.4-9.7c-0.6,7.2-0.9,12.8-5.4,18.6c4.3-3.3,5.1-6.8,6.7-10c1.6-3.2,0.5-7.2,3.4-10
		C348.7,552.4,347.3,557.5,345.3,562.6z"/>
	<path d="M244.8,565.6c-0.2-3.5-0.4-5.8-0.6-9.2c1.9,3.4,3.3,5.8,4.8,8.3c-0.1,0.1-0.2,0.2-0.4,0.3c-0.9-1-1.8-2-3-3.4
		c-0.4,2.8-1.2,5.1,1.9,7.8c-4-1.9-6.2-4.4-8.6-6.8c-0.4,0.6-0.7,1.1-1.2,1.8c-2.1-2.3-3.3-4.8-3.3-7.6c1.8,1.9,3.6,3.8,6.7,7
		c-0.5-5.2-1.9-8.2-1-11.8C241.2,556.4,241.3,561,244.8,565.6z"/>
	<path d="M516.5,447c-5.3-1-9.7-1.8-14.2-2.7c8.1,0.1,15.6,2.5,23.2,5.1c-2.5,0-5.1,0-9.3,0c2.4,1.4-5.9,0.7-11.4,2.1
		c1.7-0.9,3.3-2,5.1-2.7C511.8,448.1,513.8,447.7,516.5,447z"/>
	<path d="M514.6,451.3c13,14.6,19.7,35.7,11.2,46C535.3,479.5,518.1,464.6,514.6,451.3z"/>
	<path d="M327.6,286.4c-6.6,2.9-11.2,13.9-9.6,23.1c0.1,0.7,0.2,1.4,0.5,3c-3.1-3.8-4-7.8-2.8-11.3c3.2-9.2,9-16.4,18.4-20.1
		c-0.7,0.5-1.3,1.1-2,1.6C330.6,283.9,329.1,285.1,327.6,286.4z"/>
	<path d="M92.3,454.9c-1.3-0.3-2.8-0.5-4-1c-2.4-1.1-4.7-1.4-6.6-1.4c-2,0-3.9-0.4-5.8-0.9c-1.7-0.5-3.6,0.2-5.3,0.2
		C75.2,447,86.9,448.8,92.3,454.9z"/>
	<path d="M398.9,344c-1.1-6.3-2.2-10.7-3.9-15.1c0.8,1.1,1.5,2.2,2.4,3.6c1.7-3,2.1-6,1.1-9.1c-0.9-2.9-1.9-5.7-3.5-10.4
		c8,8.4,3.5,17.3,5.3,25c-0.2-1.6-0.4-3.2-0.7-4.8c-0.2,0-0.5,0-0.7,0C398.9,336.1,398.9,339.1,398.9,344z"/>
	<path d="M76.4,448.6c1.2-0.8,5.3-2.7,9.8-4.6c3.5-1.5,6.9-3.3,9.8-5.6c5-3.9,10.7-4.5,17.3-1.8c3.2,1.3,6.1-1,9.1-2.1
		c24.2-8.8,33.5,4.9,36.9,8.5c-24.3-15.8-42.2-1-49.8-6.4c-4.4-1.8-8.8,0.9-13.2,4.4c-0.1,0.1-0.2,0.2-0.3,0.3
		C93.7,443.6,80.4,447.8,76.4,448.6z"/>
	<path d="M308.3,294c0.5-1,0.9-2,1.4-3c2.8-1.7,4.6-4.9,8.5-5.2C313.8,295.2,312.1,298.7,308.3,294z"/>
	<path d="M327.6,286.4c1.5-1.2,3-2.4,4.5-3.7c2.5,0.9,0.9,2.1,0.1,2.8c-5.1,4.1-9,9.1-11.7,15.7
		C320.5,294.6,324.1,290.5,327.6,286.4z"/>
	<path d="M400.7,380.9c-0.6-9.4-2.8-18.2-8.5-25.9C397.4,359,401.6,371.7,400.7,380.9z"/>
	<path d="M393.8,304c0.4,0.4,0.7,0.8,1.1,1.1c-4.9,0.2-8.4-2.5-13.1-6.2C386.9,300.3,390.6,301.4,393.8,304z"/>
	<path d="M395.4,274.5c-0.2,0.1-0.4,0.3-0.6,0.4c0-0.1-0.1-0.1-0.1-0.2c0.2,0,0.5,0,0.7-0.1C395.5,274.7,395.4,274.5,395.4,274.5z"
		/>
	<path d="M459,318.3c0,0-0.1-0.1-0.1-0.1S459,318.3,459,318.3z"/>
	<path d="M448.3,304.7C448.3,304.7,448.2,304.8,448.3,304.7C448.2,304.8,448.3,304.7,448.3,304.7z"/>
</g>
</svg>
