<?xml version="1.0" encoding="utf-8"?>
<!-- Generator: Adobe Illustrator 24.2.3, SVG Export Plug-In . SVG Version: 6.00 Build 0)  -->
<svg version="1.1" id="Layer_1" xmlns="http://www.w3.org/2000/svg" xmlns:xlink="http://www.w3.org/1999/xlink" x="0px" y="0px"
	 viewBox="0 0 595.3 841.9" style="enable-background:new 0 0 595.3 841.9; fill: #215342;" xml:space="preserve"
	 height="350" width="450" transform="translate(-80, -77)">
<g>
	<path d="M166.3,660.4c-11.9,0.9-22.4-7.1-34.5-5.2c-6.7,1-13.7,6.9-20.2-0.7c-0.4-0.5-2-0.1-4.5-0.1c2.3-0.3,3.3-0.5,4.2-0.6
		c0.1,0,0.1-0.2,0.3-0.6l-8.4,0c0-0.3,0-0.2-0.1-0.5c1.5-0.3,3-0.6,5.2-1c-2.9-1.7-5.3-3.1-7.6-4.5c2.7-3.4,0.5-7.3-4.1-7.4
		c-4.9-0.1-9.8,0-16.8,0c4.9-0.4,7.7-0.7,10.5-0.9c2.8-0.1,5.7,0,9.3,0c-4-5.2-8.8-5.8-13.7-6.5c3.3-0.5,6.6-1,10-1.4
		c0-0.3,0-0.2,0-0.5H82.1c6.2-1.1,10.7,0.2,15.9-2.1H64.2c0-0.4,0-0.2,0-0.5c7.1-0.4,14.2-0.8,21.4-1.1c0-0.4,0-0.2,0-0.6H61.9
		c12.1-3,24.4-4.1,36.8-5.5H72.7l0-1.1h11.5c0-0.4,0-0.3,0-0.7c-4.1-0.4-8.2-0.8-12.3-1.1c0-0.1,0-0.2,0-0.3c3,0,6,0,9.1,0
		c-21.5-3.1-43.1-3.3-64.7-1.9c16.5-3,33.2-4.3,50-3.9c3.2,0.1,4.6-0.8,4.6-4.2c0.4-21-0.7-42.1,0.5-63.1c0.5-8.7,0.1-17.4,0.7-26
		c2.2,23.6,2,47.2,2.9,71c1.2-4.5,2.5-9,3.7-13.6c4.8-18.3,12.4-35.2,23.3-50.7c3.1-4.4,2.3-9.4,2.6-14.1
		c1.8-37.4,0.2-74.4-17-108.8c21.4,36.2,22.2,75.7,18.3,116c14.9-8.4,23.7-24.5,23.5-43.1c-0.1-9.9-0.8-19.8-2.4-29.6
		c-1.6-9.7-4.1-19.1-7-28.3c7.8,19.5,11.7,39.8,12.4,61.1c5.7-6,5.5-7.2,2.8-14.2c-6-15.1-9.1-30.1-4-46.7c3.3-10.5,4-22.2-0.4-33.2
		c-1-2.4-2.5-4-5-4.9c-5.9-2.3-9.3-6.6-9.3-13.1c0-1.8-0.5-2.7-2.4-3.4c-8.7-3.1-11.9-10.4-8.4-18.9c0.6-1.5,0.4-2.4-0.6-3.6
		c-10.6-12.8-32.9-16.8-47.4-8.6c-4.9,2.8-6.4,7.4-7.6,12.4c-1.7,7.5-3.9,14.9-7.4,21.8c-1.4,2.8-3,5.7-5.1,8
		c-4.7,5.5-11,8-17.7,4.8c-6.3-3.1-4.5-9.5-3.7-14.8c1.1-7.6,3.8-14.9,8.2-21c9-12.5,9.5-25.8,5.9-40.1c-2.2-8.9-3.2-18-3.5-27.2
		c-0.2-7.3,2.6-12.8,8.6-16.7c4-2.6,7.9-5.3,12.1-7.6c16.1-8.8,31.3-19.1,43.4-32.9c20.9-24,45.8-26.5,73.8-16
		c12.1,4.5,23.9,9.4,31.8,20.6c1.3,1.8,3.4,1.7,5.4,1.7c7.8-0.1,15.7-1.2,23.4-1.1c24.1,0.4,48.1-1.4,72.4,1.2
		c16.2,1.7,33.4,0.9,49.8-2.5c11.6-2.4,23-2.5,34.5-0.1c4,0.9,7.2,0.7,9.1-3.9c1.8-4.3,5.6-7,9.3-9.7c14.5-10.3,30.7-15.9,48.1-18.3
		c18.2-2.5,30.7,6.9,40.5,20.2c10.7,14.4,24.4,24.2,40.9,30.4c13.7,5.2,20.1,15.1,20,29.6c-0.1,9.5,0.3,19.1,0.4,28.6
		c0,3.9,0.7,7.6,2.9,10.8c10.4,14.9,12.1,33.7,21.8,49c2.6,4.2-1.3,7.9-6.6,7c-8.1-1.4-13.4-6.7-17.9-13
		c-4.8-6.6-8.2-13.9-11.8-21.1c-10.4-20.7-35.8-24.4-52-7.7c-3,3.1-5.3,5.4-2,10.2c3.1,4.5,2.9,9.8-2,13.8c-1.2,1-0.7,2.2-0.8,3.4
		c-0.2,3.2-1.3,5.5-4.3,7.5c-9.6,6-17.7,13.7-19.4,25.6c-0.8,5.5-1,11-0.5,16.4c2.1,23.1,2.7,46.4,1,69.6c-0.1,1.6-0.2,3.3-0.3,5
		c-0.7,12.2,1.3,26,14.1,34.1c3.8,2.4,6.9,6.1,10.1,8.9c-4-39.6-3.5-79.4,17.3-116.1c-2.1,5.5-4.5,11-6.4,16.6
		c-1.9,5.8-3.7,11.6-5.1,17.6c-6.3,27.7-5.6,55.8-3.9,84c0.1,1.1,0.3,2.3,0.9,3.1c10.8,14.5,19,30.4,25.6,49.8
		c0.2-28.2,2.4-53.8,6.2-79.3c-0.8,24.2-1.6,48.4-0.6,72.7c0.6,13.7,1.5,27.3,3.6,40.9c0.2,1.3-0.8,3.7,1.9,3.4
		c2.5-0.3,3.4,0.7,8.2,0.6c12.5-0.3,24.9,0.8,37.8,3.2c-25.3,0.7-50.4-3.3-75.4,8.8c9.1,0,16.8-0.3,24.4,0.1
		c7.7,0.4,15.4,1.6,23.1,2.8c-13.6-0.7-27.2-1.1-40.6,1c-4,0.6-8.1,1.4-8.7,6.9c2.9,2.4,6.7,2.4,11.1,3.3c-4.6,1.8-9.6,0.4-13.1,4.2
		c2.2,1.7,4.1,3.3,6.2,4.9c-2.9,2.4-6.5,2.7-11.2,4.6c3.9,0.3,6.2,0.5,8.9,0.7c-3.1,0.8-6.2-0.5-9.3,1.5c1.3,0.4,2.2,0.6,3.2,0.8
		c-4.2,0.6-9-1.2-11.6,4.1c-0.8,1.7-3.3,1-4.9-0.2c-5.1-3.8-16.8-4.2-22.3-0.8c-4.2,2.6-8.7,3.8-13.2,1.3c-5-2.9-10.3-3.8-15.5-2.8
		c-5.6,1.1-9.7,3.4-16.5-0.1c-7.1-3.7-17.2-1.7-26-1.8c-12.1-0.2-24.2,0-36.3-1.5c6.4,0,12.8,0,18.9,0c-32.5-5.1-65.4-1.2-98.4-1.7
		c0.5,0.1,1,0.3,1.5,0.4c0,0.2,0,0.5,0,0.7c-9.9,0-19.7,0-29.6,0c0,0.4,0,0.8,0,1.2l8.7,0.4l0,1.7c-13.8,0-27.6,0-41.4,0
		c-2.4,0-4,0.4-4.8,3.3c-0.7,2.5-3.1,3.8-5.3,1.3c-4.4-4.9-16-4.9-20.6,0c-0.5,0.5-1.2,0.7-1.9,1.1c0.3-0.4,0.8-0.8,0.8-1.2
		c-1.4-10.8-2.5-21.8-8.8-31.2c-1.1-1.6-2.7-1.3-4.1,0.1c-6.1,6.1-2.1,21.5,6.8,24.1c-0.9-5.5-1.9-10.8-2.8-16.1
		c0.6,1,0.8,2.1,1.2,3.1C162.8,646.3,161.9,654.1,166.3,660.4z M85.5,600.2c0,1.4-0.7,3,0.7,4.1c0.3,0.2,1.6-0.1,1.7-0.5
		c1.2-2.8,2.3-5.7,1.5-9C86.1,595.6,86.8,598.6,85.5,600.2c0.2-11.6,4-22,11.2-32.5c0.2,7-0.5,13.2,3.4,19.4
		c2.6-6.2,6.6-10.6,10.4-15.3c-0.4,3.5-1.3,6.8-2.2,10.1c-0.3,1.1-0.3,2.4,0.9,2.8c0.6,0.2,1.8-0.1,2.3-0.5
		c9.6-9.6,19-19.6,27.3-30.5c-2-1.4-3.7,1-6,0.3c2.7-1.3,5-2.4,8.5-4c-2.5,0-3.8,0-5.1,0c-0.1-0.3-0.1-0.5-0.2-0.8
		c2.2-0.6,4.5-1.2,7.5-2c-5-2-9.1-0.3-13.6-0.5c10-4.7,19.9-9.5,30.3-14.4c-4.1-2.4-8.1-0.7-13-1.8c2.3-0.4,3.3-0.6,4.4-0.8
		c1.1-0.1,2.1-0.2,2.8-0.3c-17.2-12.5-31.1-4.6-44.3,8.3c4.4-8.9,9.6-16.7,18.5-21.5c-1,0.1-2,0.1-3,0.2c3.5-5.9,9.5-7.2,15.5-8.5
		c-0.9-3.1-5.2-3.6-4.4-7.6c-8.8,3.1-15.6,8.1-21.4,14.5c-18.1,20.2-28.3,44.2-34.6,70.3C79.3,591.7,81.6,596,85.5,600.2z
		 M191.5,242.8c-2.2,2.3-4.3,4.7-6.5,7c-16.8,20.1-32.7,40.9-46.6,63.1c-3.6,5.8-4.8,12.5-5.1,20.7c5.6-11,10.8-20.6,17.3-29.9
		c0.2,1.9-1.6,3.2,0.5,4.7c3.5-5,5.7-10.8,11.2-16.2c-3.3,8-6,14.6-8.6,21.1c-0.7,1.8-1.9,3.8,2,3.4c-2.2,4.8-4.2,9.1-6.2,13.4
		c0.5,0.4,0.9,0.7,1.4,1.1c0.6-1.3,1.2-2.5,1.8-3.8c-3.5,13.4-4.4,26,2.7,38.2c0.3,0.5,0.4,1.3,0.2,1.8c-3,7.3-6.1,14.5-9.5,22.6
		c-1.6-4.2,0-7.8-2.3-11.3c-0.7,3.9-1.2,7.1-2.1,12.2c-2.7-11.3-6.2-20.3-6.2-30.1c0-9.6,1.9-19,3.6-28.3
		c-5.3,10.8-10.6,21.7-8.1,34.2c1.6,8.1,4.7,15.9,6.1,24.1c1,6,0.2,12.2,0.2,18.5c3-0.4,4.4-2.7,7.2-1.5
		c-11.6,11.6-14.1,25.5-10.5,40.7c3.5,14.7,10.8,27.3,21.9,39.6c-0.8-2.9-1.2-4.3-2.2-7.7c1.9,2.9,2.7,4,3.4,5.3
		c9.1,16.3,20.7,30.7,34.3,43.3c22.2,20.6,42,42.6,56.3,70.1c22.7,43.7,81.2,42.5,104.4,2.7c12.2-21.1,22.5-43.5,40.9-61.3
		c-7.8,0.8-12.5,4.8-16.3,10.3c-9,13.1-16.7,26.8-22.5,41.6c-4.8,12-13,20.6-25.2,25.1c-27.3,10.2-60,7.1-76.7-23.1
		c-16.2-29.2-35.8-56-60.1-79.1c-0.5-0.5-1.3-0.9-2-1.4c-1.6,3.2,1.6,5.8,0.3,8.8c-3-0.4-4.5-2.7-6.1-4.5
		c-10.1-11.6-19.7-23.3-24.8-38.5c-3.7-10.9-4.1-20.5,2.5-29.8c3.9-5.6,9.7-7.8,18-6.7c-2.8,1-4.3,1.4-5.2,1.7
		c22.1,8.5,25.6,28.6,31.2,48c-5.2,2-8.4,1-11.2-2.2c-8.1-9.4-12.1-20.9-16.2-32.3c-1.1-3-0.8-3.1-2.6-4c4.2,11.7,7.5,23.7,14,34.3
		c13.5,21.7,29.4,40.8,55.5,47.9c10.8,2.9,21.6,3,32.4-1.9c-11.2-4.8-13.5-8.4-13.8-20.4c-0.1-5.8,0.8-11.5,2.9-16.9
		c1.7-4.4,1.3-7.6-2.3-11c-8.5-8.1-12.7-18.8-15.1-29.9c-2.9-13.6,6.4-26,22.9-31.7c16.1-5.5,32.8-6,49.3-3.4
		c24.5,3.9,33.8,19.6,27.2,43.5c-1.6,5.7-4.3,10.9-7,16.1c-5.6,10.9-10.4,22.1-9.5,34.6c1.6,21,7,21.5,23.5,18.7
		c14.2-2.5,25.5-10.5,35.2-20.7c16.3-17.1,25.3-38,30.8-61.2c-6.1,1.4-9.1,7.5-15.2,7.9c0.8-1.9,3.1-2.4,2.9-4.7
		c-5.3,2.3-10,6.6-16.3,3.5c-2.2-1.1,0.8-2.5-0.3-3.8c-9.4,0-15.2-5.9-19.1-13.3c-4.5-8.7-10.4-16.2-17.5-22.7
		c-9.7-8.9-21-15.7-31.8-23c-3.5-2.4-7.7-3.8-12.2-5.9c0.2,2.6,0.3,3.8,0.4,5.2c-6-3.8-8.4-9.7-10.6-15.8c-0.9-2.3-0.1-4,2.3-3.5
		c6.3,1.4,6.1-2.8,6.5-6.8c0.6-6.5-1.8-13,0-19.7c2.9-11.1-2.8-22.3-0.7-33.5c-0.5,3.3-1,6.6-1.8,11.3c-1-10.1,4-27.6,10.9-37.7
		c-6.2,18.6-5.8,36-3.9,53.6c-0.8-2-1.6-4.1-2.3-6.1c0.1,6.8,2,12.8,7.7,18.1c-0.6-3.9-1.2-6.9-1.7-10c0.3-0.2,0.5-0.4,0.8-0.6
		c0.7,1.2,1.3,2.5,2,3.7c0.3-0.3,0.7-0.5,1-0.8c-0.9-1.8-1.7-3.6-3.1-6.4c1.8,1.5,2.7,2.2,3.7,2.9c4.9,3.6,12.7,2.6,15.1-2.4
		c3.6-7.5,6.2-15.4,6.8-23.7c0.6-9.7,2.4-15.8,6.6-19.1c-5.2,11.9-1.7,23.4-2.3,34.9c8.5-6.2,14.3-13.8,15.5-24.6
		c0.7-6.3,2.8-12.3,9.2-15.3c1.1-0.5,3-1.2,3.4-0.7c3.3,3.9,8.8,2.9,12.5,5.9c1.9,1.6,3.1,0.1,2.7-2.2c1.2-0.1,2.2,1.2,3.2-0.2
		c-0.4-4-3.5-6.8-5.4-10.5c1-0.1,1.7-0.2,2.7-0.3c-7.3-7.1-15.9-8.4-25.3-6.7c-9.5,1.7-15.7,7.9-21.2,15.4c3.5-9,9.7-15,18.6-18.1
		c8.7-3,17.4-3.4,26.1,0.3c-7.1-5.6-15-7.5-23.8-5.9c-8.6,1.5-15,6.9-21.8,13.9c11.6-23.8,37.7-20.6,69.1,7.7
		c-2.5-11.6-8.3-20.2-15.7-28.1c3.8-0.2,4,4.5,7.6,3.9c-14.1-15-30.9-26.1-49.2-34c5.8-0.3,12,1.7,18.4,3.1
		c-11.5-7.5-24.1-6.8-37.9-4.6c14-6.6,27.8-6.4,41.8-5.7c-3.4-1.4-6.7-2.6-10-2.4c-21.5,1.7-43,3.7-64.5,5.4
		c-6.4,0.5-8.8,4.1-9.9,9.7c-0.3,1.7-0.3,4-2.1,4.9c-5.7,2.6-5.8,7.8-5.9,12.8c-0.2,6.6,0,13.2,0,19.8c0.1,0,0.3,0,0.4,0
		c-0.2-2.3-0.5-4.6-0.7-6.9c-0.3,0-0.7,0-1,0c-0.4,4.5-0.7,9-1.1,14c-0.4-2-0.6-3.4-0.9-4.9c-0.3,0-0.5,0-0.8,0.1
		c-0.2,4.1-0.5,8.1-0.7,13c-0.9-1.9-1.3-2.8-2.4-5.2c0,4.6,0,7.6,0,11.9c-0.7-2.5-1-3.8-1.9-7c-0.2,3.5-0.2,4.9-0.3,7
		c-0.5-1.7-0.8-2.9-1.1-4c-1.5,8.2-0.6,16.4-2.6,25.8c-1.1-6.5-0.2-12.2-4.1-18.8c0,8.8,1.7,15.8-1.6,22.5c0-8.4-6.3-13.4-9.8-19.8
		c-3.7-6.7-9.6-11.4-14.9-16.7c2,1.1,3.9,2.1,5.9,3.2c-4.9-11.1-13.7-16.8-27.3-18.5c7.3-1.7,12.4-0.4,17.7,0.4
		c-0.8-1-1.8-1.5-2.6-2.2c-1.4-1.2-4.7-0.6-4-3.3c0.6-2.4,3.5-1.6,5.5-1.8c5.9-0.7,11.3,1.7,18.7,3.5c-2.6-2-3.6-2.8-6-4.5
		c6.5,2.5,10.6,5.7,15,10.5c-1.1-5.5-5.5-6.8-8.2-10.9c6.3,1.9,9.2,6.3,13.2,9.3c-5.8-10.3-14.2-17.1-26.1-19.1
		c8.5,0.3,16.2,3.1,23.2,7.7c-6.3-9.4-16.4-11.8-28.3-14c5-1.1,8.1-1.7,11.6-2.5c-5.5-5-5.6-5.5-3.7-5.9c2.9-0.6,5.9-0.6,8.8-0.9
		c0-0.2,0-0.5,0-0.7c-1.3-0.2-2.5-0.5-4-0.8c2-0.7,4.2,0.3,5.8-1.7c-1.2-0.7-2.2-1.2-3.6-2.1c5.8,0.3,10.9,1.2,16.6,3
		c-2.3-4.1-6.1-3.9-9.3-5.9c6.5-0.5,12.4-0.9,18.4-1.3c-19.8-3.7-39.7-0.8-59.6-1.6c-7.9-0.3-15.9,0.2-23.8,0.3
		c-1.7,0-3.2-0.6-4.1-2c-7.6-11.7-19.2-17.8-31.8-21.7c-18.7-5.9-38.2-9.8-54.3,5.7c-26.2,25.1-46.1,54.4-57.1,89.3
		c-0.7,2.1-1.1,4.2-2.1,7.7c1.5-27.7,17.9-47.6,29.4-70.8c-11.7,7.7-22.5,14.6-33.1,21.9c-5,3.5-10.6,7.6-10.6,14.2
		c0,14.8,1.1,29.7,1.7,44.5c0.5,0.1,1.1,0.2,1.6,0.3c4.4-10.6,8.8-21.1,13.2-31.7c-4,14.5-7.9,29-15.4,42.2
		c-6.2,10.9-12.9,21.7-15.2,34.4c-0.6,3.5-2.3,7.1,0.3,10.6l-0.1-0.1c1.2,4.6,4.7,3.7,7.6,2.7c5.7-1.9,8.4-6.9,10.8-11.9
		c7.3-15.5,11.3-32.3,17-48.4c12.4-35.2,31.5-66.5,57.7-93.1c14-14.2,46.8-12.5,60.1,2.1c-3.5-0.9-6.8-1.7-10.2-2.5
		c4.3,3,9.7,4.1,13.9,9.6c-3.2-1-5-1.6-8.7-2.7c4.8,3.7,9.1,5.5,11.1,8.8c3.8,6.2,7.6,6.2,13.7,0.9
		C192.4,240.9,191.9,241.8,191.5,242.8z M238.2,611.1c-2.9-14.6-10.1-23.9-21.7-29.8c-3.8-1.9-8.2-1.2-10,2.7
		c-0.9,2-2.4,2.2-3.4,3.2c-1.3,1.3-2.1-0.7-2.7-1.4c-5.6-6.4-12.4-8.8-20.7-6.7c-1.2,0.3-2.5,0.7-3.6,0.5c-3.9-0.9-7.5-1-9.9,2.7
		c-0.8,1.3-2.4,2-2.9,1.5c-2.5-2.6-3.3,0.3-4.9,1.1c-5.9-4.8-14.9-5.6-19.6-1.1c-3.2,3.1-5.7,6.7-11.1,5.3c0.7,0.5,1.4,0.9,2.2,1.4
		c-16.2-0.1-20.9,11.4-25.9,27.6c-3.4,11.1,1.7,24.5,9.9,29.9c0.6-5.7,0.1-11.4,2.3-16.6c1.8-4.5,4.7-5.3,7.9-1.4
		c3.7,4.4,6.4,9.4,6.9,15.1c0.5,5.7,3.7,6.2,8.8,5.5c-8.2-8.3-11.6-18-10.5-29c1.6-15.7,5.4-27.4,9.3-29.8c-1.1,3.8-2,7.3-3.4,12.6
		c3.1-4.2,5.1-7,7.1-9.8c-12.8,24.9-12.8,38.4,0.4,53.6c5.2,6,11.6,9.3,21.8,8.6c-8.2-3.5-11.9-8.5-13.6-15.1
		c-1.7-7,1.4-15.4,6.5-16.1c7.3-1,8.2,5.5,9.8,10.2c1.7,5,2.3,10.5,3.4,15.7c4.5-17.9-5.2-35.6-0.7-54.6c0.6,2.2,0.9,3.4,1.3,5.2
		c0.9-3.6-0.4-6.7,2.1-10.9c0,8.5,0.6,15.4-0.1,22.2c-1,9.7,1.7,18.4,5.3,27c1.5,3.6,4.3,6.3,8.6,8.3c0-6.1,0-11.7,0-17.3
		c0-2,0.3-4.1,2.6-4.7c2.4-0.6,4,1,4.9,2.9c0.9,1.8,1.8,3.8,2,5.8c0.5,5.1,0.6,10.3,0.9,15.6c7.9-3.1,15.2-18.2,14.1-27.7
		c-1.4-11.2-7.6-20-13.5-29.2c1.3,1,2.5,1.9,5.2,4c-2.5-4.3-4.2-7.2-7-12c13,11.1,14.7,25.5,20.6,38.2c3.2-8.3,8.2-8.9,14.5-3.2
		c1.4-6.3,1.6-12.1-1.4-19.8c4.9,6.6,5.6,12.6,8.2,17.9c-0.9-4.1-1.9-8.3-3.2-14.1C236.3,607.5,236.8,608.5,238.2,611.1z
		 M438.6,655.6c-7.7-8-6-15.1-2.8-22.2c1.2-2.7,2.2-6,5.8-5.9c3.6,0.2,4.7,3.6,5.7,6.4c2.2,6,2.2,12.3,0.7,19
		c8.1-5.3,12.5-12.5,15.6-20.6c5-13.3-2.3-24-7.4-35.3c1.4,1.9,2.7,3.8,4.1,5.7c0.3-0.1,0.5-0.3,0.8-0.4c-1.3-3.2-2.6-6.5-4.2-10.7
		c1.9,1.9,3,3,4.1,4.1c0.3,0.3,0.4,0.9,0.6,1.3c5.4,14.3,9.4,28.6,1.9,43.5c-0.8,1.5-1.3,3.2-1.5,4.9c-0.4,3.7,2.4,5.7,5.2,6.6
		c3,1,2.9-2.3,3.3-4.1c1.4-5.5,0.7-11-0.1-18.5c2.9,9.6,2.2,17.3,0.8,25.1c-0.2,1.2-1.3,3.2,1,3.6c2.3,0.5,2.5-1.5,2.8-3
		c1.1-5.9,1.4-11.9,0.2-17.9c-0.9-4.2-0.8-9-6.3-11.8c1.8,0,2.9-0.3,3.6,0.1c5,3,4.2,9.2,7.5,14.3c1.7-3,3.4-5.4,4.3-8
		c4.6-12.8,0.2-24.2-5.5-35.5c-1.9-3.8-4.7-5.8-9.1-5.1c-3.9,0.6-6.7-0.4-9-4.3c-3.3-5.6-8-7.2-15.1-5.3c-3.3,0.9-7.7,5.7-12,0.7
		c-5-5.7-11.8-3-18-3.3c-13.7-0.6-17.4,2.4-17.1,15.2c1.8-1.9,3.5-3.8,6.5-7.1c-1.9,3.8-3,6-4.8,9.5c2.1-1.7,2.9-2.3,3.9-3.1
		c-8.9,12.5-12.8,23.5-12.3,35.4c0.3,9.5,6.7,18.5,13.2,18.4c0.7-5.4,0.7-11,2.9-16.1c1-2.4,1.9-5.6,5.5-4.8c3.4,0.8,4.3,3.7,4,6.9
		c-0.4,4.3-0.9,8.6-1.4,13.5c11.2-4.4,13.7-13.9,15.7-23.3c2.1-9.9-2.6-19-5.3-28.7c1.1,1.2,1.7,1.9,3.2,3.5
		c-0.6-3.8-1-6.6-1.6-10.2c3.2,3.5,3.2,7.3,5,11.3c-0.3-2.7-0.4-4.4-0.8-8.2c1.3,2.6,2,3.4,2.1,4.2c0.8,13.8,3.1,27.7-2.6,41.3
		C427.8,646,429.1,649.6,438.6,655.6z M300.1,571.9c-2.2-7.4-5.6-13.7-11.6-18.4c-3.2-2.5-7.1-3.9-10.2-6.2
		c-5.6-4.3-11.1-2.8-15,0.9c-10.2,9.8-12.1,31.1-4.5,43c12.7,20,33.3,21.7,53.4,20.5c18.8-1.1,29.9-14.6,36.6-31.4
		c1.5-3.8,2.1-7.9-0.3-11.7c-6.9-10.7-17.4-13.3-29.1-12.5C309.6,556.8,303.3,562.3,300.1,571.9z M392.3,584.2
		c-7.4-4-12.8-5.2-18.3-0.1c-3.5,3.1-4.6,7.7-7.7,10.9c-9.5,10-9.9,21.8-6.8,34.2c0.8,3.1,2.3,6.1,5.4,7.7c1.3-5.2,2.4-10.2,4-15
		c0.9-3,2.9-5.5,6.5-5.5c3.9,0,6,2.5,7.3,5.7c2,4.8,2.1,9.8,0.9,14.9c3.4-16.2,6-32.6,11.4-48.8c-2.5-1.4-5-2.8-8.7-4.9
		C388.5,583.6,389.4,583.8,392.3,584.2z M186.4,566.4c0.7-2.4-0.7-3.1-1.8-3.6c-20.1-10.1-36.2-13.8-51.6,5.9
		c-3.4,4.3-7.7,7.6-12.3,10.4c-9.7,5.9-15,14.8-18.1,25.3c-0.1,0.3,0,0.6,0,1.2c0.6-0.7,1-1.3,1.8-2.4c-0.1,1.5-0.2,2.3-0.5,5.1
		c12.9-23.3,32.6-30.7,56-30.2c0.5-2.5-1.6-2.3-2.2-3.6c3.9-1.4,7.6-2.8,11.3-4.2c-0.1-0.2-0.2-0.5-0.2-0.7
		c-1.4,0.1-2.8,0.2-4.4,0.3c2.2-2.7,7.2,0,8.1-4.7C177.1,564.8,181.9,564,186.4,566.4z M297.4,423.9c-14.3-0.9-27.5,2.1-38.3,11.9
		c-8.2,7.4-9.1,20-2.6,27.6c2.1,2.4,3.9,3.5,5.2-0.7c1.7-5.2,4.3-10.2,9.7-11.7c8.9-2.5,18-4.5,27.1-5.7c6.8-0.9,13.7-0.8,20.4-3.1
		c-1.5-3.5-3.6-4-6.8-4c-5.2,0-12.1,4.7-15.2-4c-0.2-0.5-1.5-0.5-2.3-0.8c-6.3-2.1-10.9,1.3-15.3,5.1c-2.6-2.5-1-4.7,0-6.9
		c-0.7-0.2-1.3-0.3-3.1-0.7C284.5,429.5,290,424,297.4,423.9z M403.2,218.1c0.6,1.7-1.5,4,0.6,4.8c2.2,0.8,2.1-2.2,3.1-3.3
		c1.4-1.5,2.6-3.2,4-4.8c4.7-5.3,10.6-8.3,17.7-9c2.2-0.2,4.3-1.8,6.4-2.6c21.6-8.4,38.6-3,51.2,16.3c3.5,5.4,6.9,11,10.8,16.2
		c6.5,8.7,13.4,17.1,20.2,25.6c0.5-1.9,0.1-3.2-0.5-4.4c-11.1-20.4-25-38.6-41.6-54.7c-4.3-4.2-9.6-7-15.6-7.6
		c-23.2-2.3-43.4,4.9-60.8,20.2c-3.2,2.8-4.5,6.8-5.3,11.3C398.2,224.7,398.9,219.3,403.2,218.1z M567.4,350.5
		c-6-11.1-8-24-14.7-34.5c-11.6-18.5-23.1-36.9-29.1-58.1c-0.4-1.5-0.8-3.5-3.1-2.8c-2.1,0.6-1.7,2.4-1.3,4
		c4.8,18.5,12.6,35.6,22.4,51.9c0.7,1.1,2.3,2.8,2.7,2.7c4.9-2.4,5,2.1,6.1,4.3c3.5,7.4,6.6,15,9.8,22.5
		C561.9,344.3,564,347.8,567.4,350.5z M428.3,354.3c-3.9-3.4-7.7-6.9-11.7-10.2c-7.3-6.1-14-13-23.3-16.2
		c-7.7-2.6-17.8,1.1-20.2,7.8c1.7-1.6,3.1-2.9,5.2-4.9c-0.7,1.9-1.1,3-1.5,3.9c5.2-1.6,10.2-2.4,15.1-0.6c3.6,1.4,7,3.5,10.5,5.4
		c4.1,2.3,8.7,4.1,11.9,7.4C418.2,351,422.9,352.9,428.3,354.3z M357.8,372.3c-7.2,4.1-9,10-4.3,12.6c7,3.8,13.9,7.8,21.2,10.9
		c9.5,4.1,19.2,3.7,28.6-0.4c-5.2,1.2-10.5,2-15.9,0.6c-8.3-2.1-14.9-7.2-21.5-12.3c-1.9-1.4-3.7-3.8-6.7-2.7
		c-1.8,0.7-3.6,1.7-5-0.1c-1.5-2,0.3-3.6,1.2-5.3C356,374.7,356.7,373.8,357.8,372.3z M444.2,203.1c4.4,0.3,7.7,0.2,11,0.7
		c12.9,2.2,20.3,11.5,27,21.5c6.1,9,11,18.8,18.2,27.1c9.1,10.4,18.4,20.8,22.1,34.6c0.1,0.5,0.1,0.9,0.2,1.4
		c-0.9-10.2-4.5-18.7-10.9-25.7c-10.4-11.2-19.2-23.4-26.9-36.6c-3.4-6-7.6-11.4-12.8-15.9C464.4,203.5,455.7,200,444.2,203.1z
		 M542.8,281.2c1.1-22.3-8.8-37.1-29.8-42.7C528.3,250.8,539.5,263.4,542.8,281.2z M384.6,391.9c3.7,0.7,5.2,1.2,6.7,1.2
		c11.8,0.5,22.2-8.4,26.3-21.4c2.1-6.7-2-9.6-6.1-13.6C411.4,383.4,406.9,389.4,384.6,391.9z M414.3,631.2c0.4-2-0.2-3.5-1.4-3.6
		c-1.9-0.1-2.5,1.3-2.9,2.7c-2.8,8.2-3.4,16.7-2.6,25.2c0.1,1.5,0.2,3.9,2.5,3.9c2.5-0.1,2.3-2.6,2.4-4.2
		C413.1,647.2,413.6,639.2,414.3,631.2z M452.5,384.7c3.2-18.6,13.2-35.9,2.7-54.5c5.1,15.9,0.4,30.9-3.9,45.9
		C450.5,378.8,450.9,381.4,452.5,384.7z M189.7,636.2c0,6.6-0.1,13.1,0,19.7c0,1.6-0.1,3.8,2.3,3.8c2.4,0,2.1-2.2,2.4-3.8
		c1.1-6.7,0.5-13.4-0.4-20c-0.4-2.9,0-7.9-3.8-7.5C187.3,628.8,189.7,633.6,189.7,636.2z M121.7,634.7c0.4-2,1.3-4.4-1.3-5.4
		c-1.6-0.6-2.2,0.9-2.5,2c-2,8.3-2.4,16.6-0.2,24.9c0.3,1.2,0.9,2.4,2.5,2.2c1.8-0.2,1.4-1.7,1.4-2.9
		C121.7,648.6,121.7,641.7,121.7,634.7z M236.2,561.1c-7.7-15.3-19.4-27-32.7-37.4C213.9,536.7,225.9,548.2,236.2,561.1z
		 M491.5,542.5c8.1,17.7,14.8,35.9,20.7,54.4C508.4,577.7,502,559.3,491.5,542.5z M371.3,649.9c0.8-11.1,2.1-21.4,6.2-31.4
		c-4.5-0.5-5,2.6-5.9,4.9C368.1,632.5,367.5,646.5,371.3,649.9z M307.5,460.9c-3.6,0.5-4.8,1-4.9,2.7c-0.7,9.4,0.4,18.7,2.4,27.8
		C305.9,481.4,305.1,471.3,307.5,460.9z M404.7,369.4c0.1-1,0.1-2.1-1.1-2.3c-1.5-0.2-2.2,1.1-2.5,2.2c-2,6.5-6.2,10.3-13.2,10.7
		c-1,0.1-2,0.6-1.8,1.8c0.2,1.2,1.2,1.4,2.2,1.5C395.4,384,404.5,376.2,404.7,369.4z M438.6,652.3c2.6-7.1,2.2-13.8,0.4-21
		C433.4,637.9,433.1,647.9,438.6,652.3z M231.3,648.5c3.8-6.2-1.7-25.1-7.1-27.4c-0.5-0.2-1.3-0.3-1.6,0c-0.3,0.3-0.6,1.2-0.4,1.6
		C226.9,630.4,229.9,638.8,231.3,648.5z M415.9,435.6c8.2-5.8,16.6-6.3,26.7-0.1c-2.4-5.5-5.3-7-8.7-7.7
		C426.3,426.4,420.9,430.6,415.9,435.6z M438.1,659.2c7.5-2.1,8.8-21,2.6-28.3C440.8,640.6,443.2,649.9,438.1,659.2z M123.6,655.3
		c4.9-3.9,6.8-8.2,3.6-14.5c0,1.6,0,2.5,0,3.5c-4.4-2,0-7.1-4.1-9.9C123.1,641.8,122.4,648.4,123.6,655.3z M374.5,361.1
		c0.2,1.4,0.3,3.2,1.6,2.5c3-1.7,8.7,0.5,8.5-5.8c-0.1-2.6-1.4-4.3-4.1-4C376,354.3,375.4,357.9,374.5,361.1z M423.8,329.4
		c-6.7-25.3-13.6-39.4-21.2-42.9C416.1,297.7,416.8,315.1,423.8,329.4z M334.6,464.6c1.4,1,2.8,1.8,4.6,1.5c1-4.2-0.6-9.1-3.7-11.6
		c-2.8-2.3-8.4-2.5-12.9-0.5C333.3,452.9,337.1,456.2,334.6,464.6z M292,476.5c3.7-4.4,3.2-9.1,1.6-13.7c-1.6-4.6-6-7.7-11.1-7.6
		C292.9,459.5,291.7,468.2,292,476.5z M269.4,603.7c-4.3-3.6-8.3-7-12.4-10.4c-0.4-0.4-1.5-0.4-1.9-0.1c-0.4,0.3-0.6,1.3-0.5,1.9
		C255.8,600.3,263.1,604.7,269.4,603.7z M447.3,309.5c-2.9-5.7-4.3-12.3-9.9-16.5C441.1,298.3,441,305.6,447.3,309.5z M374.9,639.7
		c6.8-3.7,9-9,5.9-14.8c-0.3,4.3-1.6,7.8-4.2,10.9c1.1-4.5,2.2-9,3.4-13.5C376.5,627.6,376.3,633.7,374.9,639.7z M254.1,541.2
		c1.4,3.5,2.9,6.9,6.1,6.7c3.2-0.2,3.4-3.9,4.1-6.7C260.9,541.2,257.8,541.2,254.1,541.2z M335.9,539.4c1.5,3,1.8,6.6,5.2,6.5
		c2.9-0.1,3.9-3.1,5-6.1C342.7,539.7,339.6,539.6,335.9,539.4z M365.7,366.8c-3.3,8.4-1,13.8,7.4,17.4
		C368.2,379.2,366.3,374,365.7,366.8z"/>
	<path d="M191.5,242.8c9.4-6.1,9.4-6.1,14.1-5.5c-4.4,2.9-8.6,5.3-12.3,8.2c-3.7,2.9-7,6.4-10.9,10c1-2.1,1.8-3.9,2.6-5.6
		C187.1,247.5,189.3,245.1,191.5,242.8z"/>
	<path d="M171.1,371c-2-0.8-3.4-1.3-5.1-1.9c2.1-0.6,3.7-1.2,6.3-2c-2.2-0.7-3.6-1.2-5.8-1.9c2.7-0.8,4.5-1.3,7.2-2.1
		c-2.2-0.3-3.4-0.5-6-0.8c3.8-1.2,6.3-2,9.3-3c-1.5-0.9-2.4-1.4-3.7-2.2c3.7-1.3,7.7-0.3,10.3-3.5c-0.9-0.4-1.7-0.9-2.7-1.4
		c0.5-0.2,0.8-0.4,1.1-0.4c6.5-1.4,10.8-6.6,16.2-9.7c5.8-3.4,12-2.5,17.7,0.4c6.5,3.3,10.5,9.1,13.1,15.7
		c2.6,6.8,6.1,13.1,10.9,18.6c1.3,1.4,2.1,3,1.2,5c-0.8,1.9-2.6,1.6-4.1,1.6c-3.5,0-5.8,2.1-8.1,4.4c-9.7,10-20.8,15.4-35,10.3
		c-4.9-1.8-8.3-5.4-11.3-9.4c-3.1-4.1-6.6-7.8-9.2-12.2c-1.6-2.9-4.7-0.5-6.2-3C168.4,372.9,169.4,372.2,171.1,371z M197.7,365.5
		c3.6,1.9,6.3,1.3,7.9-2.4c1.1-2.5-0.1-4.3-2.2-5.4c-6.1-3-14.2,1.3-15.2,8.1c-0.6,4-0.1,8.1,0.9,12c3,11,14,16.9,24.3,13.1
		c10.3-3.8,15.5-15.2,11.3-24.6c-0.6-1.4-1.2-2.5-2.9-2c-1.6,0.5-1.4,1.9-1,3c1.2,3.8-0.3,7-2,10.1c-2.6,4.9-10.9,7.2-15.4,4.7
		C196.6,378.2,194.2,371.6,197.7,365.5z M213.2,394.9c-21.9-2-22.7-2.9-28.1-29.6c-5.5,2.6-7.2,6.4-4.6,12.1
		c2.6,5.8,5.8,11,10.9,14.9C197.8,397,204.9,397.7,213.2,394.9z"/>
	<path d="M215.6,308.1c-0.9-0.8-1.6-1.4-2.4-2.1c0.5-0.2,0.8-0.4,1.1-0.4c6.4,0.6,12.7,8.9,11.9,16.2c-0.2,1.8,0.5,3.3,0.6,5
		c0.4,9.6,3.1,18.7,6,28c-4.8-10.7-9.4-21.5-22.8-23.5c-12.7-1.9-21.8,5.2-30.7,12.6C180.4,328.8,202,307.3,215.6,308.1z"/>
	<path d="M273.7,390.4c-4.3,2.7-8.6,5.4-14.2,8.9c2.5-0.7,3.7-1,5.8-1.6c-2.6,1.7-4.3,3-6.2,4.1c-13.1,7.5-23.1,18.4-32.8,29.7
		c-13.6,16-25.6,17.2-42.1,4.5c-15.3-11.7-32.4-4.5-34.9,14.7c-0.6,4.8-0.7,9.7-1,15.6c-2.6-10.9-2.6-20.5,1.8-30.2
		c-1.3,1.9-2.5,3.7-3.8,5.6c-0.2-5,3.4-7.1,6.1-10.6c-1.3,0.4-2.1,0.6-3.6,1c3.7-3.2,7-5.3,11.1-5.9c6.4-1,12.6,0.9,18.9,1.5
		c10.5,1,19.5,5.7,28.1,11.4c1.1,0.7,2.1,0.5,3.1-0.2c10-6.7,19-14.6,27.1-23.4C247.2,404.3,259.7,396.3,273.7,390.4z"/>
	<path d="M171.3,214.6c-12.4-4.5-23.2-7.7-34.7-6.5c-16.3,1.7-26.6,12.7-36.1,24.4c-17.8,21.8-32.9,45.3-43.7,71.5
		c-0.2,0.5-0.5,1-1.1,1.3c6.9-23.1,18.3-43.9,32.6-63.1c6.2-8.4,12.5-16.7,20.3-23.6C126.9,202.4,148.9,200.6,171.3,214.6z"/>
	<path d="M189.4,404.5c11.8,3.1,21.4,2.6,30.3-2.4c3.4-1.9,6.5-4.3,9.4-6.9c5.1-4.5,10.7-7.6,18.4-7.2c-7.6,11.3-15.3,22.7-23,34
		c1.4-4.8-0.3-10.2,3.6-14.7C215.3,411,203,412.5,189.4,404.5z"/>
	<path d="M185.5,309.6c-16.9,11.7-13.7,34.3-26.5,48.2c0.6-6.7-0.3-13.6,6.1-18.4c2-1.5,2.4-5.2,3.3-8
		C171.4,322.1,176.1,314.1,185.5,309.6z"/>
	<path d="M20.7,372.9c14.6-3.1,16-16,20.1-27c4.3-11.8,8.5-23.6,13.2-35.3c-6,18.8-10.5,38.1-19.5,55.8
		C31.2,373.2,25.5,375.5,20.7,372.9C20.6,372.9,20.7,372.9,20.7,372.9z"/>
	<path d="M285.3,364.9c-14.1,10.5-29.2,19.7-41.3,32.7C252.9,380.6,268.7,372.3,285.3,364.9z"/>
	<path d="M241.5,331.8c0-2.3-0.1-3.3,0-4.4c0.1-1.1,0.3-2.2,0.6-4.3c-1.3,2.6-2.1,4.2-3.9,7.9c0.7-11.4,4.7-20.9-0.3-30
		c4.6,10.8,9,21.5,6.7,33.8c-0.2-2.3-0.5-4.6-0.8-7.3C243.1,328.7,242.6,329.7,241.5,331.8z"/>
	<path d="M260.3,420c22.3-12.6,45.8-14.7,70.3-7.9C306.3,407,282.8,409.1,260.3,420z"/>
	<path d="M353.8,259.9c14.4-3,38.1,4.8,42.6,14.3C382.7,267.1,370,260.1,353.8,259.9z"/>
	<path d="M176.8,269.7c10.6-16.2,26.2-24.9,44.1-30.5C203.8,245.9,188.9,255.8,176.8,269.7z"/>
	<path d="M152.2,398.6c1.7,0,2.3,0,3.7,0c-3.4,2.2-6.1,4-9.1,5.8c0.1-6.2,8.2-11.3,17-11.2c-2.3,0.9-4.8,1.7-7.2,2.8
		C155.3,396.6,154.2,397.4,152.2,398.6z"/>
	<path d="M283.6,405.7c6.5-2.6,13-1.3,12.6-11.2c1.1,4.3,1.5,6.1,2,7.9c2-0.4,0.4-2,1.4-2.8c1.2,2.6,3.3,3.6,6,4
		C299,403.6,292.4,404,283.6,405.7z"/>
	<path d="M197.2,289.7c-5.5,3.5-10.9,7-17.8,11.5C185,295,190.1,290.9,197.2,289.7z"/>
</g>
</svg>
