<svg id="b2be6bfa-6aa0-4a0a-8e18-7f2df6e562c2" data-name="Layer 1" xmlns="http://www.w3.org/2000/svg" viewBox="0 0 595.276 841.89" style="fill: #215342;" height="350" width="450" transform="translate(-70, -60)"><path d="M115.84,616.3c1.39,4.3.971,4.925-2.835,3.959a27.234,27.234,0,0,1-8.535-3.3,9.441,9.441,0,0,0-7.858-1.615c-14.889,3-36.667-3.945-43.22-24.053-.794-2.437-1.5-1.954-3.219-.743a35.468,35.468,0,0,1-7.453,3.817c-1.454.571-2.539.172-2.862-2.049-.663-4.564-2.75-9.045-2.726-13.552s1.928-8.973,2.98-13.465c.288-1.23,1.013-2.686.631-3.695-4.322-11.415,5.445-31,17.3-34.729,7.581-2.382,15.4-4,23.113-5.966,1.884-.48,4.08-.529,5.588-1.567,11.577-7.981,24.387-9.019,37.477-5.985,8.671,2.01,16.97,5.6,25.469,8.388a30.865,30.865,0,0,0,5.928,1.33c6.52.784,13.061,1.407,19.5,2.081-3.412-12.353-6.97-25.237-10.768-38.99l-9.473,18.189a46.3,46.3,0,0,1,1.939-22.789c-7.052,3.6-14.685,15.644-16.662,26.048-3.824-5.874-2.848-11.935-1.6-17.915,1.762-8.467,6-15.807,10.992-22.748a91.676,91.676,0,0,0,8.2-12.9c-3.286.789-6.544,1.736-9.866,2.321-3.283.579-6.63.791-10.555,1.232l14.715-11.916-.457-1.133c-10.082.933-20.2,2.562-30.1-1.178l18.231-7.945-.156-.937-13.546-1.122-.019-1.267a28.152,28.152,0,0,1,3.247-1.144c6.216-1.4,10.437-5.208,13.282-10.767,4.734-9.248,8.018-19.353,15.715-27L147.3,399.23l-.681-.783c4.615-6.194,8.572-12.625,7.951-21.485-1.2,1.329-1.958,2.19-2.736,3.033-6.739,7.3-14.8,11.758-25.007,11.293-1.756-.08-3.479-.906-5.218-1.388l.064-.846c2.539-.372,5.385-.107,7.591-1.17a49.27,49.27,0,0,0,9.3-6.267c1.452-1.173,1.24-2.668-1.1-2.875a10.08,10.08,0,0,1-1.836-.128,17.983,17.983,0,0,1-2.229-.945,15.393,15.393,0,0,1,1.52-1.9c3.048-2.807,6.318-5.4,9.138-8.418,1.407-1.5,2.019-3.752,2.39-6.118L132.56,372.253l-1.117-.838c1.014-2.485,2.029-4.97,3.137-7.687-.689.126-1.013.092-1.088.212-7.583,12.1-19.15,20.407-28.939,30.4-7.317,7.471-13.839,15.415-15.71,26.133a40.234,40.234,0,0,0,1.691,20.845c-6.005-4.1-8.571-16.216-7.569-33.884-3.076,3.8-6.529,8.135-10.108,12.367-.414.49-1.527.388-2.81.669a59.245,59.245,0,0,0,3.534-29.358c-1.124-9.211-3.506-18.289-5.641-27.353-1.9-8.079-4.226-16.059-6.4-24.236-.86,3.141-1.812,6.622-2.765,10.1l-.84-.082-1.73-24.58c-7.21,7.883-14.172,21.712-8.786,37.883-4.306-2.644-5.991-7-7.927-20.875l-1.81,4.844c-.882-11.86,1.866-22.292,4.451-33.021q-3,3.341-6,6.682l-.749-.562,8.483-13.686C34.4,308.8,24.57,310.52,17.17,318.6a18.742,18.742,0,0,1,.291-3.215c1.609-6.084,6.138-9.527,11.271-12.5,8.819-5.117,17.605-10.294,26.307-15.606a33.075,33.075,0,0,0,6.143-5.384c-16.263,2.179-32.431,4.454-48.246-2.3,5.491-.925,11.006-1.728,16.469-2.8,17.576-3.436,32.792-11.56,46.217-23.306,9.813-8.586,20.508-15.824,33.4-18.883,7.515-1.784,15.26-2.59,22.793-4.309a104.073,104.073,0,0,0,37.3-17.117c2.391-1.7,4.852-3.3,8.249-5.6-8.718-.786-16.583-1.477-22.852-6.41l42.189-1.678-.714-2.632.972-.547,10.891,11.426-.776.918a5.122,5.122,0,0,1-1.337-.212c-10.906-4.923-20.118-1.533-29.2,5.109a222.058,222.058,0,0,1-25.136,16.03c-11.97,6.489-25.477,8.034-38.673,10.463-4.534.834-8.925,2.439-13.381,3.694l.1.983,3.677.215L94,248.083l.2.752,18.06-3.471.193.624-8.333,2.825c6.833,1.116,13.493,1.239,20.1-.9,4.907-1.589,9.93-2.824,14.922-4.139a8.424,8.424,0,0,1,3.553-.054c-13.213,10.347-26.206,20.844-42.587,26.6l1.036-2.846-6.589,4.109c1.281-2.854,2.239-4.977,3.185-7.106.144-.326.435-.832.313-1-2.895-3.856.44-5.361,2.785-7.229-9.763-5.08-18.116-2.687-25.913,4.23-9.907,8.789-22.089,13.163-34.446,17.106-1.053.336-2.1.676-3.15,1.033-.075.025-.1.2-.331.7,16.676-.305,32.036-5.036,46.922-11.777l.475.762c-.857.707-1.684,1.454-2.575,2.115-10.415,7.717-18.6,17.532-26.178,27.9a7.124,7.124,0,0,0-1.446,3.662,3.883,3.883,0,0,0,1.437,3.054c.648.373,2.228-.29,3.063-.926,4.219-3.216,8.309-6.6,12.5-9.857a3.718,3.718,0,0,1,3.091-.471c-1.118,1.967-2.321,3.89-3.334,5.909-1.763,3.515-3.525,7.041-5.02,10.672-.353.859.353,2.153.572,3.247a10.138,10.138,0,0,0,2.746-1.39c1.132-1.108,1.92-2.559,2.987-3.746a25.481,25.481,0,0,1,2.649-2.269,17.375,17.375,0,0,1,.62,3.737c-.129,2.664-.522,5.317-.454,8.084,2.723-8.553,5.576-16.964,12.309-23.61-.4,4.553-.781,8.887-1.2,13.677,3.277-7.045,5.892-13.742,9.409-19.927a28.566,28.566,0,0,1,16.186-13.4c-5.023,5.647-10.108,11.128-12.649,19l18.3-12.594.849,1.15q-7.4,5.84-14.791,11.681l.451.808,12.519-4.572.732,1.18-7.173,6.807,3.936-.745c-6.842,6.172-12.451,12.357-14.395,21.8l20-13.346.313.349-6.066,7.235c10.1-6.9,17.954-15.966,24.891-25.922l1.282.787L128.217,310.31l.524.42,4.419-3.794c-3.073,12.035-10.814,21.617-15.969,32.71l5.475-6.257.929.575a56.069,56.069,0,0,1-3.167,6.086c-4.7,6.918-9.375,13.867-14.381,20.564a67.471,67.471,0,0,0-12.493,29.43c13.471-17.436,31.434-30.861,41.685-50.761,7.633-14.82,11.963-30.668,16.154-46.64,2.685-10.229,5.464-20.468,8.946-30.442,3.653-10.464,10.5-19.019,18.559-26.534a20.442,20.442,0,0,1,5.861-3.805c4.762-2.052,8.514-6.848,14.754-5.326-5.9-3.394-12.1-1.949-18.181-2.209,8.046-6.473,16.748-9.309,26.9-5.047a19.874,19.874,0,0,0-14.7-5.527c-2.928.076-5.841.7-8.765,1.04-.782.091-1.579.046-2.369.064a7.789,7.789,0,0,1,1.407-2.269c6.669-5.134,17.461-4.886,25.329.484,1.671,1.14,3.367,2.242,5.051,3.363l.861-.913c-1.928-2.552-3.832-5.122-5.791-7.65-2.016-2.6-4.086-5.168-5.931-8,6.718,2.018,11.414,6.95,16.417,11.6.463-5.364-5.629-15.435-13.93-23.257,4.506-.5,8.677,2.263,19,12.732-.256-2.09-.458-3.732-.659-5.373l.741-.2c1.279,2.913,3.029,5.724,3.688,8.771,1.97,9.11,3.429,18.33,5.212,27.482.923,4.736,1.047,4.734,5.7,3.512,12.978-3.409,25.761-3.353,38.262,2.067a15.919,15.919,0,0,0,1.776.532c-1.151-5.509-9.272-12.54-17-14.968-8.1-2.544-15.425-.512-22.482,3.555,8.91-12.611,21.838-14.223,35.9-13.12-9.682-6.1-20.506-7.1-31.495-7.674,13.243-4.923,26.5-4.709,39.759-.106,13.224,4.591,23.547,12.964,31.513,24.869,5.589-9,12.856-15.383,23-17.715a33.775,33.775,0,0,1,11.311-.474c-3.33,2-6.915,3.689-9.93,6.09-4.747,3.781-4.552,6.546.355,10.274,5.637,4.282,12.3,6.1,19.131,7.209,7.125,1.159,7.181,1.013,7.377-6.33.323-12.012,3.13-23.147,11.506-32.252,4.386-4.767,9.451-8.488,16.416-9.146-7.555,6.078-12.16,13.851-14.517,23.3l16.164-12.125.9.94-14.391,17.4,1.05,1.071c6.8-5.411,13.282-11.956,23.015-8.676a43.852,43.852,0,0,1,10.55,5.419c-6.18.03-12.256-1.728-18.305,1.984,13.563.042,21.267,2.08,25.633,6.964a27.543,27.543,0,0,0-22.538,2.277,9.036,9.036,0,0,0,2.028.393c10.988-.4,17.638,6.244,24.2,13.919,11.968,14.007,15.7,31.141,19.659,48.27,2.852,12.35,5.023,24.88,8.388,37.084,5.488,19.9,16.642,36.613,30.858,51.4,2.787,2.9,5.27,6.089,8.418,9.756.771-4.659-.884-8.241-2.263-11.709-1.424-3.579-3.49-6.9-5.483-10.735l5.385,4.592.834-.731c-1.132-1.772-2.214-3.578-3.406-5.308-3.976-5.772-8.017-11.5-11.953-17.3-.392-.576-.236-1.525-.335-2.3l.673.253c-3.688-8.312-8.122-17.118-11.524-26.306a221.923,221.923,0,0,1-8.04-28.692c3.2,5.555,6.111,11.311,9.7,16.607,3.548,5.239,7.782,10.013,11.716,14.991l1.268-.8q-3.151-5.806-6.3-11.612l.557-.422.135.131,4.5-3.276L476.086,293.8l24.1,26.818.978-.5c-.8-2.071-1.326-4.312-2.461-6.181-2.864-4.715-6.014-9.256-9.024-13.883-.576-.884-1.038-1.842-1.553-2.766,1.029-.553,2.063-1.586,3.086-1.575,3.693.041,2.121-1.619,1.094-3.035-.791-1.09-1.877-1.971-2.635-3.079-.336-.493-.188-1.317-.26-1.99a4.93,4.93,0,0,1,1.928.155c1.8.987,3.506,2.131,5.249,3.215l.769-.76c-1.347-2.286-2.555-4.672-4.1-6.816-1.561-2.166-3.474-4.08-4.941-6.3,16.241,10.173,23.564,26.061,27.668,44.008l.89-.123-.756-15.717.625-.2,4.665,7.473.716-.32c-.935-3.255-1.954-6.491-2.738-9.783-.168-.706.464-1.64.827-2.422.279-.6.874-1.083,1.044-1.7a15.331,15.331,0,0,0,.285-2.666c1.183.517,2.708.725,3.494,1.6,6.639,7.381,16.848,11.467,19.588,22.439l1.271-.654c-.238-1.167-.391-2.359-.727-3.5-3.4-11.54-10.884-20.616-18.348-29.6-4.308-5.184-9.4-9.713-14.135-14.543a5.993,5.993,0,0,1-1.444-2.148c15.352,5.4,30.7,10.408,47.306,9.444-4.014-1.331-8.045-2.612-12.038-4a79.219,79.219,0,0,1-25.825-14.719A31.34,31.34,0,0,0,503.5,252.1a41.9,41.9,0,0,0-9.123.5c-.62.071-1.678,1.267-1.585,1.767.419,2.244,1.307,4.4,1.763,6.639a13.276,13.276,0,0,1-.212,3.492,9.522,9.522,0,0,1-2.567-1.613c-5.043-6.224-11.554-10.5-19.387-14.322l9.906.628.2-.82-7.811-3.333q.09-.5.182-1c9.621,3.207,19.32,5.755,29.529,3.977l-8.713-3.237.1-.52,5.769.786.276-.992c-7.067-2.1-14-5.039-21.224-6.143a107.869,107.869,0,0,1-55.577-25.455c-5.684-4.922-12.058-8.32-19.8-7.329-3.836.49-7.544,1.982-11.209,2.993.566-3.646,5.691-9.34,11.631-12.432-.654,1.6-1.165,2.84-1.547,3.772l42.872,1.89c-5.678,4-12.613,5.817-21.142,6.211,1.762,1.25,2.784,1.929,3.758,2.672a117.42,117.42,0,0,0,54.415,23.014c12.835,1.965,23.585,8.56,32.953,17.1,12.846,11.71,26.842,21.169,43.878,25.46,6.062,1.526,12.232,2.622,19.029,4.058a43.18,43.18,0,0,1-16.4,3.618c-5.642.143-11.308.295-16.932-.061-5.562-.353-11.084-1.335-17.019-1.426a60.008,60.008,0,0,0,5.83,4.765c7.472,4.732,15.116,9.195,22.565,13.961a96.94,96.94,0,0,1,12.163,8.8c2.605,2.309,4.09,5.648,3.4,10.605-6.7-9.083-16.414-10.378-25.023-13.95l-.65.766,8.218,13.628-.759.56-5.174-5.8c1.956,10.515,4.237,20.616,2.917,31.229l-.909-3.385c-1.759,7.322-2.6,14.808-9.126,21.278,5.063-15.157.8-27.5-8.075-39.536-.523,8.666-1.01,16.729-1.5,24.792l-.886.094c-.94-3.373-1.88-6.746-2.742-9.836-3.2,12.15-6.634,24.136-9.479,36.26-3.429,14.609-4.5,29.33.431,44.521-6.686-1.857-8.317-7.687-11.755-12.162.345,11.971-.445,23.573-8,33.085.551-4.723,1.454-9.711,1.652-14.726.4-10-3.676-18.482-10.1-25.817-3.966-4.526-8.343-8.7-12.68-12.886-7.621-7.351-15.473-14.477-20.86-23.787A18.773,18.773,0,0,0,456.944,362l-.944.53,4.72,9.2-.9.785-14.244-9.9-.793.85c2.045,2.527,4.006,5.129,6.181,7.539a30.414,30.414,0,0,0,3.788,2.921c1.451,1.161,2.853,2.384,4.276,3.579a40.923,40.923,0,0,1-5.023,1.311c-2.246.307-2.048,1.272-.99,2.655a17.526,17.526,0,0,0,13.127,7.239c1.17.086,2.343.135,3.809.218-3.624,3.436-10.919,3.4-17.631-.729-5.133-3.161-9.647-7.329-14.528-11.12.569,7.481,2.3,14.92,7.644,22.422l-7.953-2.591c4.183,8.649,8.105,17.068,12.315,25.34a16.429,16.429,0,0,0,11.014,8.6c1.322.34,2.6.839,3.906,1.255l-.114,1.172-11.8,1.437c4.7,4.83,10.895,6.093,17.738,8.556-10.123,3.317-19.307,2.024-28.493.889l-.409.868,13.145,12.5c-7.337.136-14.156-1.987-21.786-5.113a39.83,39.83,0,0,0,2.178,4.651c2.9,4.425,6.036,8.7,8.853,13.173,5.926,9.413,10.225,19.381,9.257,30.858a19.255,19.255,0,0,1-1.823,6.089c-1.652-10.472-8.294-17.259-16.46-24.268,1.426,7.629,2.449,14.315.661,21.6-2.9-5.937-5.5-11.281-8.111-16.625l-1.025.132a51.92,51.92,0,0,1-1.308,6.448c-1.3,3.933-2.883,7.773-4.341,11.654a16.7,16.7,0,0,0-.947,2.722c-1,5.4-1.938,10.809-2.941,16.466.561-.091,1.45-.24,2.341-.38,3.749-.589,7.526-1.788,11.24-1.618,5.392.247,10.072-1.218,14.855-3.385,11.425-5.179,23.4-8.659,36.034-7.685,5.859.451,12.119,1.762,17.213,4.508a54.059,54.059,0,0,0,18.393,5.709,89.1,89.1,0,0,1,11.153,2.365,31.479,31.479,0,0,1,23.189,33.044,20.631,20.631,0,0,0,1.808,11.033c2.844,6.334,2.482,12.928.031,19.4a7.589,7.589,0,0,0-.929,2.77c.268,4.3-2.3,4.012-4.913,2.933a81.857,81.857,0,0,1-7.611-4.086c-.483,1.1-1.029,2.31-1.543,3.532-6.636,15.79-25.361,25.7-42.1,22.105-2.934-.63-5.264-.5-7.856,1.33a16.921,16.921,0,0,1-12.072,3.441l2-4.106a35.4,35.4,0,0,1-21.156-6.2c-.527-.357-2.168.4-2.959,1.053-3.665,3-8.248,5.11-12.312,3.146-6.906-3.338-14.6-6.1-18.775-13.407a143.693,143.693,0,0,1-6.8-12.67c-1.251-2.809-2.875-3.747-5.851-3.732-20.438.1-40.877.058-61.316.053q-81.993-.021-163.987-.134a8.779,8.779,0,0,0-7.9,4.872c-2.44,4.928-5.094,10.032-8.817,13.961-3.418,3.606-8.306,5.866-12.68,8.5-2.166,1.3-4.751,3.139-6.938,2.893-3.47-.392-6.757-2.35-10.139-3.6-.987-.364-2.373-1.134-3-.758C129.587,613.8,123.217,616.174,115.84,616.3Zm217.387-76a34.846,34.846,0,0,0-1.77,3.585C325.954,559.071,314.1,567.8,298.645,568c-15.663.2-27.911-8.222-33.545-23.5-1.156-3.135-2.738-3.584-5.494-2.851-2.577.686-4.367,2.3-4.185,4.9.244,3.486.23,7.462,1.907,10.291,6.442,10.865,16.822,16.618,29.39,20.941l-3.436-4.413.315-.366,9.05,5.1.5-.675-4.463-4.2.593-.782c5.244,3.263,10.561,5.167,16.547,2.288,1.58-.76,3.646-.442,5.445-.828,11.54-2.477,21.666-7.329,28.547-17.429,4.345-6.378,2.634-12.035-4.414-14.968l-.024-.009a2.083,2.083,0,0,1-.755-3.221,2.387,2.387,0,0,1,1.167-.878c3.661-.92,7.447-1.326,11.162-2.046a86.853,86.853,0,0,0,11.719-2.635c1.915-.658,3.353-2.707,5.653-4.682a10.18,10.18,0,0,0-2.286-.329,9.1,9.1,0,0,0-2.053.779,63.878,63.878,0,0,1-23.4,7.238C333.587,536.117,332.974,537.771,333.227,540.3Zm159.056,43.593c3.741.707,3.113,3.578,2.921,6.109-.281,3.686-.73,7.36-1.108,11.04l1.233-.01c3.893-11.351,3.776-22.383-3.458-32.888,5.55,2.748,8.773,7.29,11.134,12.646,2.6-20.908-5.486-36.237-23.651-45.966,2.361,0,4.941-.718,6.8.134,5.759,2.638,11.632,5.061,16.307,9.78,6.453,6.514,10.361,14.269,12.954,22.873.513,1.7,1.16,3.367,2.157,6.236,1.1-4.95,3.214-3.081,5.467-1.794v-5.236c4.734,3.5,7.688,7.392,7.286,12.7-.4,5.351-1.676,10.634-2.486,15.96a15.328,15.328,0,0,0,.139,3.066,10.873,10.873,0,0,0,2.5-1.861,29.017,29.017,0,0,0,5.723-16.858c.629-21.881-15.763-42.429-37.64-47.284-2.376-.527-4.725-1.171-7.087-1.761l.207-.947a27.545,27.545,0,0,1,2.849-.316c11.887-.117,22.026,4.339,31.067,11.785a15.247,15.247,0,0,0,4.675,2.541,52.772,52.772,0,0,0,6.254,1.386l-.924-4.278c2.961,1.282,5.39,2.335,7.819,3.388-2.593-7.176-7.031-12.314-14.1-14.3-6.971-1.962-14.13-3.25-21.184-4.927-2.611-.62-5.529-.947-7.674-2.366-10.577-7-22.091-8.051-34.021-5.471-7.352,1.59-14.492,4.16-22.411,6.491l14.258,7.946c-6.5-.928-12.489-2.75-18.608-3.818-6.313-1.1-12.808-1.511-18.865,1.286-1.271.587-1.915,2.53-2.849,3.849a18.6,18.6,0,0,0,3.59,1.623c1.954.436,3.984.53,5.982.769l.033.95a25.422,25.422,0,0,0-5.116,1.568c-2.287,1.251-7.183.489-5.011,5.759.134.325-.644.978-.907,1.522-1.909,3.95-3.935,7.851-5.652,11.883-2.192,5.144-.931,9.315,3.358,13.137,5.365,4.781,8.342,11.1,10.1,18.1a38.9,38.9,0,0,0,4.1,10.007c.833,1.427,3.344,2.956,4.8,2.709,2.839-.481,3.477-3.174,2.9-5.871-.921-4.329-2.079-8.612-2.857-12.964a12.759,12.759,0,0,1,.331-5.262c.522-2.023,1.685-2.182,2.977-.371.932,1.308,2,2.518,3.01,3.771l.519-.394q-.332-1.946-.661-3.889l.626-.22,7.932,8.73.9-.538c-.25-2.1-.5-4.191-.773-6.484,3.621,3.145,7.011,5.907,7.29,11.105.328,6.084-.054,11.84-3.371,16.921,8.448-12.62,6.493-25.013-1.293-37.394,4.95,3,8.184,7.36,10.872,12.546.559-5.566,1.122-11.077.434-16.428-1.195-9.3-4.731-17.725-11.988-24.353,2.492.9,4.606,2.29,6.875,3.348,12.219,5.7,16.925,25.571,10.936,38.362a131.931,131.931,0,0,0-6.517,17.113c-2.157,7.011-1.747,7.494,5.157,10.2a19.318,19.318,0,0,0,6.385,1.648,11.708,11.708,0,0,0,5.77-1.553c6.036-3.446,6.92-9.717,7.922-15.75.389-2.342.064-4.8.064-7.21l1.5-.277c1.335,4.373,2.671,8.745,4.092,13.4,1.723-5.271.848-10.336.016-15.4ZM405.831,405.947l-.04-.048c2.363,2.963,4.962,5.772,7.023,8.932,2,3.071,6.664,9.021,9.928,11.013,3.173,1.937,6.562,3.519,8.7,4.648-2.6-3.04-6-6.742-9.083-10.687-2.971-3.8-5.623-7.844-8.415-11.781l.509-.309,7.774,7c1.785-2.02-7.242-5.786.643-6.824-3.184-6.551-6.405-13.18-9.626-19.81l1.132-.637,6.19,7.6c-1.833-9.836-2.131-19.9-9.166-27.662,7.834,3.012,10.619,10.147,14.488,16.484-2.3-12.431-4.317-24.876-13.721-35.274l5.01.652-12.49-18.379,3.746,2.2.585-.964-10.994-6.591a5.683,5.683,0,0,1,3.589.043c5.509,2.345,10.954,4.841,16.446,7.226a13.355,13.355,0,0,0,2.626.568,12.1,12.1,0,0,0-.441-2.68,10.469,10.469,0,0,0-1.583-2.481,74.046,74.046,0,0,0-26.575-21.211c-.883-.424-1.759-.864-3.5-1.722,8.346-2.044,15.341.788,22.494,1.282-7.64-5.069-16.089-7.72-24.88-9.765l13.358,1.525.375-1.039-26.249-9.9h14.732c-9.582-3.358-19.179-4.676-28.959-1.192l7.415-4.521a7.986,7.986,0,0,0-4.6,1.148c-4.875,3.282-9.63,6.742-14.459,10.092a2.444,2.444,0,0,1-1.46.229c-.6-.044-1.507-.571-1.735-.343-2.244,2.247-4.375,4.608-6.537,6.936l-.605-.4,9.258-15.191c-13.986,7.59-21.293,20.407-26.8,35.474-1.049-3.415-2.1-5.813-2.468-8.312a52.4,52.4,0,0,1-.083-7.689c-9.076,19.383-15.65,38.854-2.684,59.252l-1.376.572c-3.189-4.992-6.377-9.985-9.648-15.105.691,9.919,4.744,18.656,8.875,27.369l-1.03.715-10.061-11.395-.7.262c1.184,5.175,2.368,10.35,3.761,16.436-5.452-6.028-7.961-12.638-10.1-19.457L293,362.71l4.269,17.376a35.48,35.48,0,0,1-4.6-6.982c-4.917-10.114-4.441-20.727-2.72-31.444.458-2.859.729-5.748,1.087-8.623l-.839-.1q-1.4,3.467-2.806,6.933l-.992-.224c.564-6.184,1.183-12.364,1.679-18.553.511-6.372.039-12.615-3.067-19.294v15.964c-1.859-6.186-3.45-13.272-6.119-19.926-3.7-9.214-9.4-16-12.824-16.829l8.168,16.322-.555.274-2.819-4.144-.541.3q.4,2.334.8,4.67c-8.863-13.775-20.447-23.442-36.762-26.89,15.365-2.92,30.262-3.261,44.363,7.522-1.195-2.447-1.921-3.933-2.647-5.418l.835-.539c1.861,2.217,3.843,4.345,5.55,6.675,1.768,2.413,3.271,5.022,5.131,7.921-.215-2.366-.384-4.227-.553-6.089l1.409-.327c1.607,3.951,3.214,7.9,4.967,12.214l.926-3.188a37.666,37.666,0,0,1,3.112,8.854c.686,2.945,1.164,5.938,1.733,8.91.937-21.3-3.66-40.334-22.885-52.682-11.583-7.441-39.768-10.9-47.21-5.956,13.388-1.4,25.962-.305,36.8,8.378a62.108,62.108,0,0,0-28.265-4.694c7.33,1.806,14.011,3.155,19.332,7.941-18.514-2.107-36.105.9-53.183,7.792,5.575.749,11.3-.717,16.631,1.864a26.2,26.2,0,0,1-6.119.486c-3.161,0-6.538-.354-6.98,3.918h10.987c-.063-.243-10.463,2.254-15.6,3.745l.368,1.342c3.546-.857,7.059-1.917,10.648-2.513a65.681,65.681,0,0,1,10.636-.947c4.6-.006,7.864,1.719,8.906,3.755l-13.055-.866-.18,1.329c1.4.656,2.82,1.287,4.207,1.976,1.29.64,2.549,1.341,3.821,2.015-7.074-.822-13.812-1.155-20.467,1.528l13.065.614.039.933c-9.442.888-17.275,5.356-25.427,10.747l18.626-2.754c-9.331,2.072-18.086,5.256-26.019,10.752,7.815-1.768,15.577-3.573,23.033-1.9L192.656,317.3l.727,1.289c1.489-.457,2.962-.982,4.473-1.351s3.053-.58,4.582-.859c-.167-.07-16.962,10.979-25.192,16.573l.678,1.118L189,328.872c-5.8,7.408-9.939,15.417-13.606,24.772l9.123-6,.6.764c-1.879,2.93-4.088,5.707-5.547,8.833a71.894,71.894,0,0,0-3.5,10.475c-.945,3.267-1.656,6.6-2.47,9.907l.839.207,4.148-9.708.69.259c-.646,4.781-1.292,9.563-1.982,14.665l5.413-7.357c-2.477,9.83-6.339,17.948-12.732,24.832l1.291,1.019c3.742-3.833,7.484-7.667,11.364-11.64-2.962,10.5-10.12,17.928-16.944,25.711,6.6-1.415,11.268-5.941,16.5-9.57-6.032,10.818-14.771,19-25,25.771l.5,1.04,15.6-4.459c-3.471,3.763-7.212,8.047-11.205,12.082-3.96,4-8.175,7.754-12.278,11.616l.472.816,20.066-6.6c-13.185,12.715-28.4,37.075-27.516,44.2,5.7-7.814,12.92-13.706,21.172-19.407-2.3,6.269-4.343,11.836-6.385,17.4l.751.287,15.98-21.312.944.7-1.232,4.549c2.038-2.012,3.833-3.914,5.776-5.651,1.077-.964,2.747-1.4,3.555-2.506,4.662-6.379,9.253-12.826,16.012-17.2,3.765-2.435,7.77-4.5,11.667-6.729l-.126-.533-16.2,3.347c8.829-7.512,20.2-5.309,28.949-10.486-11.078-1.874-21.374.724-31.589,4.8,4.132-2.85,8.33-5.955,12.989-6.995,7-1.563,14.347-1.509,21.5-2.5a22.726,22.726,0,0,0,8.117-2.717c4.138-2.4,7.84-5.535,11.909-8.066,9.44-5.872,19.747-7.377,30.524-5.1A27.223,27.223,0,0,1,293.6,422.4c-9.594-5.7-19.735-8.089-30.772-5.913-10.777,2.125-19.173,8.595-28.238,14.756l3.541,2.072c-6.809-2.395-11.165,2.259-16.9,5.394l9.916,1.583c-6.154,1.616-12.314,2.5-17.828,4.886a75.688,75.688,0,0,0-15.6,9.617c-6.09,4.659-10.3,10.863-10.66,13.766l7.779-5.665.616.79c-2.947,2.919-6.284,5.547-8.727,8.839-2.315,3.119-3.692,6.935-5.482,10.444l.943.5,6.924-7.554c-2.236,5.469-4.651,9.868-5.782,14.575-1.1,4.581-.956,9.474-1.234,14.238-.522,8.966-.256,11.112,1.8,14.649-1.163-15.474,4.6-27.2,16.528-36-7.231,12.982-6.238,26.524-3.125,40.317a39.02,39.02,0,0,1,5.143-20.542c-1,7.279-2.414,14.505,2.886,21.81.515-4.816.827-8.8,1.426-12.74.2-1.342,1.129-2.574,1.725-3.856a15.538,15.538,0,0,1,1.927,3.628,41.784,41.784,0,0,0,10.241,19.755c.821.877,1.8,1.605,2.71,2.4-4.773-11.361-5.858-22.442-1.6-33.962-1.195,5.924,2.779,8.686,6.788,11.223a27.781,27.781,0,0,0,7.331,3.39c19.348,5.323,36.591.765,51.5-12.172,3.44-2.985,5.9-7.593,7.637-11.926,2.567-6.418,2.071-6.528-4.768-7.743-8.02-1.425-15.69-3.979-20.91-10.627a27.617,27.617,0,0,0-7.806-6.943c-12.041-7.2-12.865-22.035-1.443-30.307a44.638,44.638,0,0,1,13.94-6.433c13.94-3.915,28.249-3.971,42.481-2.063,9.117,1.223,17.757,4.181,24.251,11.323,6.372,7.007,6.884,16.22.284,22.964-6.107,6.239-12.676,12.3-19.966,17.011-4.941,3.191-11.395,4.314-17.339,5.568-3.367.71-3.989,1.863-3.327,4.854A28.341,28.341,0,0,0,311.8,505.866a55.325,55.325,0,0,0,21.025,9.541c9.408,1.95,18.885,2.4,28.037-1.03,5.894-2.208,11.871-4.823,11.5-12.867,0-.093.38-.2.95-.49,4.74,11.1,1.162,21.723-1.571,32.407,8.3-8.115,13.506-17.368,10.641-30.135L386.681,507c.308-1.631.955-3.284.848-4.887a77.351,77.351,0,0,0-1.3-7.944l.477-.242c1.812,3.28,3.623,6.561,5.758,10.428-.194-18.719-7.181-32.577-23.951-40.946,4.625.925,9.182,1.917,13.145,4.025,13.251,7.051,21.373,18.4,25.941,32.62.782-6.191-1.794-11.563-3.96-17.02l.985-.41L410.837,495l1.184-.709c-1.449-12.743-7.728-22.647-18.845-29.8,9.014,2.115,15.241,7.813,20.537,14.8-8.2-23.234-24.767-35.909-49.153-38.99l11.116-1.12c-5.118-2.884-9.2-8.273-16.241-5.852a4.822,4.822,0,0,1,1.58-1.269c.476-.3.907-.665,1.331-.983-17.11-14.123-35.211-21.315-56.652-9.273a32.368,32.368,0,0,1,7.3-5.876c11.472-6.2,23.321-5.748,34.753-.372,5.935,2.792,11.035,7.326,16.65,10.853a15.157,15.157,0,0,0,6.3,2.383c4.391.423,8.863-.007,13.261.377,11.242.983,19.87,6.727,27.662,15.707-6.59-3.657-12.163-7.321-18.191-9.936s-12.649-2.85-19.3-1.8a80.183,80.183,0,0,0,13.957,4.371c7.589,1.707,10.846,3.148,12.736,6.108l-13.487-3.172c5.653,4.221,11.194,7.7,15.89,12.091,3.238,3.025,6.367,5.207,10.9,5.277a5.757,5.757,0,0,1-.458-1c-.268-1.1-.489-2.216-.728-3.325a21.569,21.569,0,0,1,3.353.468,7.326,7.326,0,0,1,2.207,1.323q6.672,5.074,13.309,10.194l.4-.244-22.54-33.071c2.5,1.746,4.257,3.1,6.153,4.213.571.336,1.536,0,2.32-.023a5.813,5.813,0,0,0-.34-2.034c-4-6.64-7.91-13.341-12.163-19.816-2.525-3.842-7.355-4.774-11.462-2.733-2.755,1.369-5.412,2.946-8.2,4.235-13.53,6.251-29.462,2.643-37.928-8.791-7.84-10.587-8.014-22.081-3.358-33.987.379-.97.606-2,.9-3-3.19-.433-.945-2.142-.429-2.815A38.187,38.187,0,0,1,351,360.811c12.173-9.907,25.908-10.047,40.212-6,.355.1.621.512,1.377,1.166l-7.659.368c18.4,9.735,20.137,10.984,21.8,15.51l-9.479-6.24c7.859,11.392,10.1,23.366,5.946,36.412C402.371,404.616,404.022,405.27,405.831,405.947ZM176.813,543.479l2.648-1.507c-.748-.758-1.364-1.861-2.27-2.211-3.252-1.259-6.6-2.263-10.095-3.422,1.066-.452,2.071-.854,3.055-1.3,1.759-.8,3.5-1.63,5.256-2.447-1.819-1.3-3.6-2.656-5.476-3.877a5.717,5.717,0,0,0-2.119-.589c-9.922-1.715-19.6-1.091-28.948,2.946-1.49.644-3.057,1.108-4.589,1.655l-.591-1.226,12.387-7.316a20.906,20.906,0,0,1-4.309-1.9c-3.149-2.34-7.106-1.843-10.618-3.123-11.923-4.343-24.421-5.048-36.2,1.031A69.526,69.526,0,0,1,77.6,526.063a92.726,92.726,0,0,0-19.262,6.044c-7.465,3.484-11.1,10.453-13,18.382,4.718-6.926,12.038-8.635,19.433-10.292a28.206,28.206,0,0,0,5.38-2.026c5.9-2.681,11.662-5.721,17.7-8.029,2.761-1.056,6.052-.726,9.1-1.024l.169,1.194c-2.431.758-4.874,1.48-7.291,2.278-22.8,7.524-35.666,26.8-33.067,50.1a28.311,28.311,0,0,0,14.393,22.232,6.717,6.717,0,0,0-.983-2.6c-4.425-7.148-7.324-14.709-6.738-23.327a12.281,12.281,0,0,1,4.825-9.173c.751-.6,2.4-1.157,2.91-.772,2.267,1.716,4.27,3.78,6.773,6.092,4-22.762,15.411-39.323,40.138-43.518-19.769,9.961-30.195,25.274-27.817,48.911a24.5,24.5,0,0,1,11.789-13.527c-5.6,6.659-6.855,14.538-6.8,22.756.054,8.8,4.916,18.48,10.323,20.62-.665-2.9-1.308-5.7-1.788-7.795-.558.36-1.54,1.418-2.054,1.226a3.839,3.839,0,0,1-2.127-2.24c-2.13-8.062-2.231-16.057,1.421-23.784a30.519,30.519,0,0,1,1.938-3.109c-.7,6.847-1.278,13.341.923,19.988L108.69,580.7c.186,2.089-.688,3.987-.6,5.84.09,1.935,1.2,5.5,1.7,5.468,3.3-.2,2.066,2.079,2.348,3.506.735,3.721,1.149,7.542,2.287,11.134.783,2.472,2.713,4.819,5.832,3.878a97.878,97.878,0,0,0,11.277-4.406c.783-.347,1.769-1.79,1.6-2.471-1.157-4.757-1.922-9.777-4.061-14.1-6.844-13.815-7.651-27.3.539-40.787,3.72-6.125,10.329-6.946,16.231-9.119-13.947,10.667-15.629,25.291-14.222,40.976,5.266-10.029,8.4-13.377,13.2-13.646-9.7,8.668-12.5,28.146-5.088,36.482-.62-2.55-1.3-4.906-1.754-7.305-1.112-5.9.684-11.184,3.729-16.132.326-.529,1.133-.761,1.717-1.131a5.528,5.528,0,0,1,.5,1.955c-.226,1.678-.657,3.328-1.007,4.99l-1.553-2.026c3.5-2.281,7.054-4.483,10.472-6.88,1.394-.977,2.665-2.4,3.758-.024,1.26,2.741,2.808,2.529,5.405-.187-.543,2.228-.812,3.25-1.04,4.28-1.146,5.164-2.578,10.291-3.253,15.516-.225,1.75,1.159,4.074,2.5,5.462.471.485,3.677-.585,4.512-1.749,2.614-3.649,5.259-7.463,6.856-11.612,2.878-7.477,5.058-15.189,11.181-20.932a6.535,6.535,0,0,0,1.908-3.876C184.277,556.231,183.615,548.979,176.813,543.479Zm175.571-299.53c-4.577-3.209-8.991-6.363-13.507-9.363-.374-.248-1.763.343-2.128.9-1.112,1.706-1.952,3.588-3.073,5.736-.428-.778-.62-1.063-.749-1.373-.449-1.087-.876-2.182-1.311-3.274-.823.975-1.69,1.918-2.45,2.941a6.951,6.951,0,0,0-.747,1.681c-.955,2.49-1.9,4.984-2.842,7.476l-.8-.218v-5.289l-.5-.087-1.352,3.484c-1.526-10.118.208-19.066,7.14-26.7-7.463,4.674-11.613,11.426-13.054,20.656-9.784-18.187-26.45-32.279-36.7-31.588,11.058,8.956,18.983,18.166,20.566,23.9-15.8-17.016-31.461-19.727-39.428-16.17,4.649,1.986,10.085,4.315,15.53,6.62.5.213,1.422.541,1.557.364,2.238-2.922,4.073-.493,5.628.615,8.532,6.077,12.66,14.807,14.442,24.848.989,5.574,1.776,11.191,3.012,16.709.217.968-.858,5.319,3.142,2.7.16-.105,1.094.577,1.328,1.057A18.979,18.979,0,0,1,308,274.3c.73,4.059,1.165,8.171,1.686,12.025l8.707-10.949.958.611.434,5.433c3.913-5.073,7.638-9.9,11.362-14.732l.6.538-7.105,13.937,1.151.826c8.363-8.291,18.616-12.394,30.2-13.736l-4.765,3.2.382.649,5.559-.561L345.6,279.455l.635,1.494,36.592-8.562-.18-1.043h-6.112l-.028-.827,17.746-1.644.067-1.01a172.251,172.251,0,0,0-40.049-7.485l21.774-3.567c-.028-.237-.057-.474-.085-.71l-15.317,1-.113-1.12c6.518-.652,13.039-1.28,19.552-1.983a13.623,13.623,0,0,0,2.672-.855c-.745-.663-1.386-1.663-2.253-1.932-4.546-1.409-9.15-2.634-13.734-3.923l.007-.34h7.88l-.015-.888c-3.61,0-7.311-.517-10.811.1C355.14,247.7,348,252.629,340.94,257.6a28.241,28.241,0,0,1-3.189,1.7A33.17,33.17,0,0,1,352.384,243.949ZM299.953,539.213l-.372-.24c-.832-3.955-1.415-7.982-2.548-11.849-2.184-7.455-8.439-11.588-15.543-10.634-12.508,1.679-13.945,3.03-14.357,13.5-.02.491-.1.983-.086,1.473.27,9.951,3.67,18.643,11.414,25.014,9.68,7.964,20.774,9.424,32.173,4.436,11.96-5.233,18-15.381,18.538-27.967.617-14.38,1.479-11.406-12.138-15.761-6.226-1.991-10.333.962-14.41,4.782-2.5,2.338-3.773,4.951-3.185,8.531A78.924,78.924,0,0,1,299.953,539.213Zm84.94,7.983q-.327-.374-.656-.746c-1.482.689-2.942,1.429-4.453,2.045a14.446,14.446,0,0,1-2.357.542,17.7,17.7,0,0,1-.339-2.425c-.011-1.3.115-2.611.193-4.113-1.408.467-2.679,1.366-3.4,1.043-2.881-1.294-3.607.644-4.678,2.516a38.338,38.338,0,0,1-4.086,6.114,4.29,4.29,0,0,1-3.1.517c-1.461-3.8-2.722-1.275-4.008.035-4.475,4.561-8.905,9.167-13.437,13.671-1.44,1.432-3.164,2.673-3.29-1.127L327.323,576.36c.195.14.376.381.558.382,14.385.08,28.771.121,43.156.225,2.326.017,3.03-1.272,3.019-3.236-.051-9.061,3.557-16.691,9.087-23.605A24.171,24.171,0,0,0,384.893,547.2ZM250.987,565.181c-1.482,3.946-1.823,4.081-4.552,1-3.829-4.321-7.486-8.795-11.223-13.2-1.079-1.271-2.146-2.8-3.556-.29-1.108,1.969-2.4,1.362-3.508.077s-1.952-2.848-3.1-4.115a5.631,5.631,0,0,0-2.58-1.607c-2.1-.556-4.269-.832-6.406-1.247-1.98-.384-3.954-.8-5.932-1.2.652,2.136.857,4.565,2.034,6.356,4.6,7.007,8.025,14.352,8.726,22.856.089,1.084,1.818,2.9,2.8,2.911,14.76.085,29.521-.076,44.281-.192.064,0,.127-.183-.056.1l-16.569-17.788a20.932,20.932,0,0,0,2.695,6,51.752,51.752,0,0,0,4.391,4.979l-.561.612Zm22.965-94.706-.33.87c1.777.629,3.512,1.6,5.338,1.824a12.559,12.559,0,0,0,12.714-7.657c2.347-5.677,1.072-12.042-3.125-15.593-4.962-4.2-13.2-4.1-18.858.123-.64.477-1.693.4-2.555.583.242-1.066.179-2.388.8-3.133a6.52,6.52,0,0,1,3.152-1.8c2.824-.788,5.734-1.265,8.571-2.013a87.5,87.5,0,0,1,35.106-1.857,71.47,71.47,0,0,0,7.7.7,2.412,2.412,0,0,0,1.949-1.187,2.624,2.624,0,0,0-.985-2.083,12.787,12.787,0,0,0-2.937-1.51c-7.855-3.5-16.16-4-24.6-3.73a21.86,21.86,0,0,1-3.694-.494c12.047-2.036,23.623-1.149,34.878,4.145-6.035-9.852-49.645-9.627-55.926-2.485l7.356-1.46c-4.6,2.746-8.7,5.143-12.751,7.632-3.876,2.383-5.461,5.408-4.754,8.784.933,4.459,4.146,5.69,7.685,2.89a16.222,16.222,0,0,1,12.361-3.759c5.166.612,8.671,4.047,9,8.708.363,5.1-2.436,9.511-7.13,10.768C279.99,469.523,276.947,469.909,273.952,470.475Zm19.455-210.969a27.383,27.383,0,0,0-.864-3.034c-7.867-17.049-37.554-26.51-53.807-17.142a6.206,6.206,0,0,0-1.185,1.222c.582.371,1.142,1.023,1.749,1.07,5.239.4,10.495,1.07,15.729.948,11.576-.269,22.675.663,31.454,9.454C288.614,254.158,290.588,256.449,293.407,259.506Zm56.381,142.613c4.618,8.543,11.931,12.5,21.386,12.883,7.849.314,18.975-5.674,21.66-11.777a2.324,2.324,0,0,0-.669-2.127c-2.1-1.406-3.87-1.621-5.955.712a20.97,20.97,0,0,1-7.148,4.835c-2.268,1-4.933,1.144-7.445,1.512a32.311,32.311,0,0,1-6.155.492C359.5,408.366,353.836,407.205,349.788,402.119Zm15.993-33.777a8.193,8.193,0,0,0-8.532,7.81,8.016,8.016,0,0,0,7.863,8.064,8.237,8.237,0,0,0,8.348-8.051A7.957,7.957,0,0,0,365.781,368.342ZM41.762,576.067c4.94-5.231,12.693-8.525,12.081-17.565C46.935,560.744,40.76,569.469,41.762,576.067Z"/><path d="M185.085,422.308c-.324-7.554,3.21-12.9,9.232-16.874.886-.585,2.047-2.173,1.807-2.832-4.476-12.279-2.847-23.7,4.117-34.941l-6.412,4.127c5.03-7.63,12.536-11.77,21.6-15.585h-9.679c15.687-9.516,47.224-.32,49.986,14.358l-2.786-2.582-.516.3c1,2.414,2.054,4.8,2.975,7.246,5.944,15.76-.957,34.067-15.846,40.71-11.061,4.934-21.879,3.093-32.12-2.975-6.307-3.738-10.522-3.407-16.006,1.5a52.138,52.138,0,0,0-4.646,5.223C186.166,420.705,185.65,421.527,185.085,422.308Zm66.5-25.469c-1.744,2.006-3.019,3.461-4.28,4.928-3.785,4.405-9.223,4.344-14.281,5.7-8.172,2.193-14.908-.008-21.381-4.714a78.533,78.533,0,0,0-7.435-4.2c3.489,10.165,13.179,16.439,23.8,16.311C239.183,414.731,248.13,408.1,251.581,396.839ZM236.51,376.288a7.653,7.653,0,0,0-7.095-7.868c-4.757-.277-8.663,3.018-8.8,7.422a8.141,8.141,0,0,0,7.7,8.289A8.377,8.377,0,0,0,236.51,376.288Z"/><path d="M405.831,405.947c-.137-1.186-.7-2.523-.343-3.535,2.874-8.149,1.83-16.417,1.03-24.693a3.942,3.942,0,0,1,.211-1.07c4.221,3.664,3.812,15.38-.947,29.239Z"/><path d="M339.371,393.467l-8.246-13.913c5.6.906,10.023,7.433,9.479,13.136Z"/></svg>