<?xml version="1.0" encoding="utf-8"?>
<!-- Generator: Adobe Illustrator 24.2.3, SVG Export Plug-In . SVG Version: 6.00 Build 0)  -->
<svg version="1.1" id="Layer_1" xmlns="http://www.w3.org/2000/svg" xmlns:xlink="http://www.w3.org/1999/xlink" x="0px" y="0px"
	 viewBox="0 0 595.3 841.9" style="enable-background:new 0 0 595.3 841.9; fill: #215342;" xml:space="preserve"
	 height="350" width="450" transform="translate(-95, -60)">
<g>
	<path d="M345.5,267.6c-8.9,12.2-9.9,26-8.4,40.6c2.8-2.8,2.4-3.1,3.7-10.6c2.8-16.8,9.3-31.7,24.1-41.6c2.5-1.7,5.3-2.8,8.2-3.9
		c-9,5.4-16.6,12.1-21.8,23.9c6.8-6.9,12.2-12.3,21.2-15.5c-14.2,9.1-23.7,19.8-27.1,35.1c8.3-19.4,23.9-27.3,43.9-28.4
		c-21.8,4.1-38,14.6-44.7,39.2c11.1-13.8,20.8-26,38.1-27c-6.1,3.8-13.5,5.7-19.3,11.6c3.7,0.1,6.5-3.3,9.9,0.3
		c-1,0.6-2.1,1.2-5.3,3.1c9.4-1.7,16.4-3.6,24.7-1.2c-2.2,0.2-3.2,0.4-5.4,0.6c2.7,0.6,4.1,0.9,5.6,1.2c-5.6-0.6-10.9,0.4-17.2,3.5
		c7.3,1.8,13.9,0.1,20.5,3c-6.8,2.2-13.3,0.7-19.5,1.5c6,1,12.2,0.1,18.7,3c-3.6,0.5-6.5,0.8-10.7,1.3c4.1,2.2,7.6,2.5,10.1,5.6
		c-2.8-0.6-5.3-1-9.4-1.8c5,2.9,8.5,5,12,7.1c-0.1,0.3-0.3,0.6-0.4,0.9c-1.8-1-3.6-2-5.9-3.2c1,10,9.5,10,17.6,13.4
		c-5.1,0-8.3,0-13.5,0c14.2,5,21.7,14.5,28.3,25.1c-5.8-4.9-9.6-12.4-19-14.1c1.6,3.4,2.3,6.5,4.1,8.5c10,10.8,12.2,24.1,12.8,37.9
		c0.2,4.4,1.8,7.3,6.5,8.7c0.6-9.5-2.4-18.4-3.9-28.1c3.6,2.2,3.8,5.7,6.6,8.8c-0.4-3.1-0.6-5.2-1.1-9c3.8,7.8,4.8,14.8,7,22.3
		c3.3-13.2-3.7-23.2-7.8-35.7c4.2,5.9,6.5,10.8,7.9,16.1c0.4-8.2-1.9-15.6-6.1-23.3c4,2.6,5.4,6.3,8.2,10.1
		c-1.1-8.3-4.2-15-8.2-23.7c13.1,14.2,13.3,30,14,46c1.8-4.9,1.1-18.6-1.4-29.5c-2.2-9.6-5.9-18.7-10.5-27.7
		c1.9,1.3,3.8,2.5,5.7,3.8c-7-13-15.2-25-28.7-35c7.7,3.3,11.6,8.4,16.4,12.5c1.9,1.7,4.1,4.5,6.7,1.8c2.6-2.7-0.9-4.4-2.3-6.2
		c-1.9-2.4-4.2-4.5-7.5-8c4.1,0.9,6.5,1.4,9,1.9c-4.5-14-16.6-20.2-26.5-28.8c4.2,1.9,8.4,3.8,14.5,6.5
		c-6.9-7.5-13.6-11.9-21.7-17.1c6.6,0.6,11.1,3.2,16,5c-2-4.2-13.5-11.9-22.6-15.4c-8.7-3.3-17.7-5-26.9-6.6
		c2.4-0.2,4.9-0.3,7.3-0.5c-5.5-1.8-11-2.9-16.8-2c7.4-3.3,15.4-3.5,25.4-3.7c-10.3-3.3-19.2-0.4-28.9-3.2c4.3-1.5,7.1-2.4,11.8-4.1
		c-13.2-0.9-22.6,3.4-31.7,9.6c1.1-4.8,4.8-7.1,8.3-9.3c3.5-2.2,7.4-3.9,10.9-6.1c-14.7,3.3-28.6,7.8-35.8,23.6
		c0.2-9,4.6-15.5,10.7-21.1c-5.3,2-9,5.7-12.7,9.7c2.3-7.5,6.7-13.8,10.9-20.5c-10.3,8.6-20.2,18.3-37,10.1
		c12.7,4.1,21.4-0.3,29.1-7.5c6.7-6.3,14.5-10.2,24.4-12.6c-7.8,4.9-14.1,10-18.9,19c5.8-3.7,10-6.9,15.6-8.3
		c-2.9,1.8-5.2,3.4-7.6,4.9c19.6-6.4,38.7-7.5,57.4,2.2c-6-2.6-12.3-0.2-18.6-0.8c15.5,3.1,31.1,5.8,43.2,19.6
		c-4.5-2.8-7.9-4.8-11.2-6.9c18.3,14.4,27.9,36.4,45.5,51.2c4.7,3.9,9.9,7,15.7,8.6c14.9,4.1,25.9,13.4,34.5,26.1
		c-12.3-12.2-27.5-16.7-44.9-16.1c26.7,12.7,48.1,31.4,65.9,56.7c-2.5-1.9-3.8-2.9-5.1-3.9c-0.3,0.3-0.6,0.6-1,0.8
		c8.1,9.4,16.2,18.8,25.9,30c-9.2-6.8-16.6-12.2-24-17.6c13.9,20.4,38,31.6,49.5,55.6c-7-9.8-14.3-17.7-22.9-24.7
		c19.7,21.3,35.9,43.8,28.9,75.5c-0.6-3.3-1.1-6.2-3.5-8.9c0,1.1,0,1.7,0,4.2c-3.8-12.7-8.1-23.1-15.6-32
		c5,11.2,10.1,22.3,10.7,34.8c0.6,12.2,3.2,24.3,0.6,38c-2.8-9.5-6-17.4-10.7-24.7c3.6,13.6,3.2,27.1,0.4,40.7
		c-0.6,2.7,2.1,2.1,3.5,2.3c5.1,0.7,10.2,1.4,15.2,3.3c-5.5,0-11,0-18.7,0c7.9,3.9,5.5,6.6,1.3,9.3c-0.6-0.7-1.2-1.5-2-2.5
		c-0.7,1.5-1.2,2.7-1.9,4.3c5.4,1.4,10.7,2.7,17.5,4.4c-10.2,1-18.7,1.9-27.3,2.8c0,0.5,0.1,0.9,0.1,1.4c4-0.2,8-0.4,12.5-0.7
		c-2.4,2.8-5.5,1.1-8.6,3.2c4.9,0.6,8.8,1.1,14.4,1.8c-9.6,3.2-18.6,0.9-27.5,4.1c9.3,5.6,18.9,3.1,27.4,5.1
		c-9.2,0.5-18.8,1.1-29.8,1.7c2,0.7,2.5,1,3.2,1.2c-1.3,0.2-2.5,0.5-5,0.9c8,2.5,15.8,0.2,22.2,5.6c-9,0.7-17.5,1.3-26.1,1.9
		c0,0.3,0,0.7-0.1,1c13.9,0.7,27.8,1.5,41.8,2.2c-20.8,0.5-41.5,1.7-62.2,3.4c27.7,4.5,55.6,3.6,84.3,3.7c-3.8,1.6-7.3-0.2-11.1,2.4
		c4,0,7.1,0,10.2,0c0,0.3,0,0.6,0,0.9c-8.5,0.7-17.1,1.4-25.6,2.1c0,0.2,0,0.5,0,0.7c5.3,0.3,10.6,0.6,16.1,0.8
		c-2.7,3.6-6.1,4.2-10,4.2c-37.5,0-75,0.1-112.5,0.1c-2.5,0-5,0-7.6,0.8c22.2,0,44.3,0,66.3,0c0.2,0.3,0.3,0.3,0.3,0.4
		c-0.6,0.1-1.3,0.3-3.2,0.7c23.1,2.5,45.1,0.7,68.9,3.9c-3,0.6-4.1,1-5.1,1c-42.9,0.9-85.7,1.6-128.6-0.5c-4-0.2-8-0.2-11.9-0.2
		c-3.3,0-5.9-0.7-6.3-4.7c-0.3-2.3-2.6-1-3.9-1.6c2.5-7.9,3.1-15.8,0.7-24c2.7,5.8,4.6,11.7,4.6,18c0,3.4,1.4,4,4.5,3.2
		c14.7-3.8,18.1-21.4,6.3-33.9c-1.6,4.7-3.2,9.4-5.5,16c0-7.3,0-12.5,0-18.9c-2.8,4.9-5.7,8.2-10.5,9.8c0.7-3.6-2.7-0.7-3.5-2.5
		c1.7-2.3,4.6-3.9,5.7-7.8c-1.9,1.5-2.9,2.5-4.1,3.3c-3,1.9-6.2,4.8-8.8-0.9c-2.5,1.1-5.2,3.6-9.2,3.8c2.4-3,6.1-4.5,6.9-8.7
		c-3.7,2.4-7.1,4.5-11.8,7.5c2.6-5.7,6-9.1,7-14.1c-4.7,5.1-9.1,9.9-13.6,14.6c-2.7,2.8-5.6,5.3-8.1,8.2c-5.5,6.5-3.8,19.1,2.9,20.5
		c-2.1-4.7-2.6-9.4-1.1-15.8c0.4,8.7,3,14.3,10.9,17.4c-0.2-4.6-2.6-8-0.7-11.7c1.3,7.7,4.6,11.8,9.8,11.8c-1.1-2.1-2.4-4-3.2-6.1
		c-0.7-2.1-0.8-4.4-1.2-6.6c2.1,6.7,5.9,12.9,13.1,10.9c9.4-2.7,3.8-11.9,5.1-18.4c3.7,5.7,2.8,11.3,0.9,17c-1,3-1.9,6.3,2.7,7.5
		c-0.4,2.1,1.2,3,2.5,4c-0.8,2.3-2.6,2.2-4.2,1.7c-2.7-0.8-1.4-3.1-1.6-5c-2.9,0.1-5.4,0.8-8.1,1.3c-5,0.9-10.9,2.2-15.4,0.5
		c-9.6-3.6-18.5-0.1-27.4,1.3c-6,1-5.9,9.3-11,13.9c3.4,0.3,5.4,0.5,7.4,0.6c-14.5,2-19.1,14.4-26.5,25.4c1-3.2,1.7-5.5,2.7-8.6
		c-4,2.7-5.5,6.5-9.1,11.1c1.8-4.2,2.9-6.7,4-9.2c-6.6,6.1-12.2,13.1-22.5,16.3c4.1-5.5,7-10.3,9.7-17.1c-0.5,5.7-2.5,9.2-5.5,14.5
		c15-11.4,19.8-26.3,25.6-42.2c0.7,8.9-2.5,15.7-4.5,22.9c7.1-8.8,14.2-17.6,17.4-28.8c-0.6,6.4-4.6,11.7-5.7,18
		c6.4-8.6,13.6-16.8,15.6-28c-0.1,2.2-0.2,4.5-0.4,7.3c5.4-5.3,3.5-12.3,5.6-19c1,2.6,1.7,4.2,2.3,5.9c-0.5-11.4-4.1-21.8-9.2-31.9
		c5.4,5.1,9.2,11.4,13.3,17.6c0.3-12.7-5.2-23.5-11-34.2c7.4,8.3,11.4,18.3,14.1,29.5c1.7-10.1-0.7-32.1-14.6-44.3
		c6.9,2,11.4,10.9,17.1,33.6c6.2-9.4,2.5-27.2-8.8-38c3.1,1.3,4.9,2.1,6,2.6c4-6.1-1.6-9-4.6-13.1c4.7,1,6,2.8,13.4,15.2
		c-0.9-15.1-11.3-26.1-17.9-39.1c-0.3,2.5-0.5,5.1-0.9,7.6c-1.1,7.3-3.4,14.3-6.8,20.9c-8.1,16.1-14.5,32.7-16.7,50.9
		c-1.9,15.2-12.2,24-26.1,29c-23.5,8.5-46.9,3.8-61.2-12.6c-7.5-8.6-11-18.6-9.1-30.1c0.7-4.3-0.8-8-3.3-11.1
		c-10.9-13.7-21.6-27.5-24.8-45.6c-10.3,7.7-17.5,24.5-14.7,34.3c1.6-4.1,1-8.6,4.9-12.5c-2.3,7.5-4.8,14-2.8,21.7
		c3.2-9.3,10.2-13.3,17.9-16.5c-5.3,4.3-11,8.2-14.5,14.2c-0.8,1.3-1.9,2.4-0.2,4.1c1.7,1.6,2.7,0.5,4-0.3
		c5.8-3.5,11.6-6.9,17.8-9.8c-5.1,3.4-10.2,6.8-15.3,10.1c0.1,0.3,0.2,0.5,0.4,0.8c3.5-1.4,7-2.8,10.6-4.1
		c-8,5.3-17.4,8.8-19.9,19.6c2.6-2.4,4.3-5.8,8.5-7.6c-5.2,5.8-5.5,12.2-4.7,20.5c2.2-8.6,4.7-15.4,11.7-19.4
		c-5.8,6.6-9.4,14.2-10.5,24.3c5.4-7.3,10-13.7,17.3-18.4c-5,13.4-16.5,24.3-12.2,41.9c1.5-5.5,0.1-9.4,3.1-13.9
		c-0.1,9.6-0.6,18.2,5.2,27.2c-0.8-10.2-2-19.1,4.9-28.5c-2.6,13.3-2.3,24.4,3,36.3c-1.9-1.5-2.7-2.1-3.7-2.9
		c-0.2,0.9-0.5,1.6-0.3,0.9c-33.5,0-66.6,0-99.6,0c0-0.7,0-1.3,0-2c31.6,0,63.2,0,95,0c-2.5-6.3-5.9-9.3-13.2-9.3
		c-36.2,0.2-72.4-0.3-108.5-0.5c-6.6,0-13.2-0.1-19.8,0.4c-4.3,0.3-8-1.1-12.3-2.1c4.1-2.9,8.5-1.6,12.9-1.6c-0.4-1.2-0.7-2.2-1-3.1
		c2.7-2.7,6.3,1.5,9.4-1.6c-6.9-4.8-14.3-2.6-21.5-2.4c-4.3,0.1-8.5,0-12.5-1.7c-0.3-0.7-0.6-1.3-0.9-2c3.3-3.7,7.8-1.6,11.7-2.4
		c2.2-0.5,4.5-0.3,6.4-2.5c-8.6-7.3-14.2-18.6-28.9-16c-7.8,1.4-16.2-0.5-24.4-1c11.7-1.1,23.4-2.1,35.4-1.4c-0.5-3.8-2-5.3-5.3-5.2
		c-7.6,0.2-15.2,0.1-22.8-1.4c8,0,15.9,0,25.7,0c-18.6-22.7-30.4-45.9-21.9-75c-1.4,3.4-2.9,6.8-4.3,10.2
		c-0.9-13.6,20.8-48.7,39.7-63.2c-5.1,7.4-9.6,13.8-13.9,20.3c-4.3,6.5-9,12.8-13,22.3c3.7-5.1,6-8.4,8.3-11.6
		c-11,26.3-14.8,52.6-2.8,80.8c1.6-18.3,1.6-35.7,9.6-51.5c1.5-3,3.2-5.9,5.1-8.7c-13,31.3-14.3,61.2,10.6,90.2
		c-1.7-5.3-2.7-8.7-4.3-13.7c12.8,12,25.9,7.1,38.5,4.1c14.5-3.5,22.8-13.4,25.2-28.1c2.1-13.5-1.4-26.3-5-39.1
		c4.3,8.6,6.9,17.7,9,27c-1.4-26.1-5.8-51.5-16.9-76.2c1.8,1.5,3.2,2.5,6.5,5.2c-10-20.2-19.7-38.3-18.2-59.2
		c1.5-20,5.2-39.8,11.6-59.2c-2.3,3.1-5.1,6.1-6.9,9.5c-7.8,14-15.2,28.5-16.8,44.4c-2.6,25.6,1.7,50.6,10.9,74.8
		c6,16,12.8,31.9,14.2,49.2c1.2,15.6-2.1,30.1-11.8,42.9c11.7-25.7,9.7-50.9-2.8-75.8c7.4,19.6,5.1,38.5-4.1,58
		c1-6,1.8-10.9,2.9-18.2c-3.4,6.5-5.6,10.8-7.8,15.2c12.6-23.5,1.7-44.8-6.1-66.4c-0.6,9.2-1.7,18.2-5,29.1
		c0.6-19.7-4.5-37.1-0.8-56.3c-5.5,7.4-8.6,13.7-7.3,22.3c-0.7-0.8-0.9-1-1.1-1.3c-0.2-0.3-0.3-0.7-0.6-1.4
		c-2.6,6.5-1.8,12.7-1.1,19c-3.9-8.5-7.5-17.5-3.4-26.6c9.6-21.5,9.4-45.6,18.4-67.2c0.5-1.1,0.5-2.5,1-5.3
		c-3.7,2.8-6.2,4.7-9.7,7.4c3.5-5.1,6.9-8.9,8.8-15.5c-20.9,14.1-28.2,36.1-40.3,54.7c6.1-9,12.9-17.2,23.6-24.8
		c-2.8,5.1-4.7,8.5-7.2,13.1c5.2-5.3,9.4-9.6,13.5-13.8c0.4,0.4,0.8,0.8,1.3,1.2c-2.9,3.5-5.5,7.5-8.9,10.3
		c-11.3,9.2-18.2,22-27.4,32.9c-14.8,17.4-19.8,37.4-18.7,59.8c0.4,7.9-0.5,15.6,4,22.6c-8.4-9.5-10.3-20.6-9.1-32.8
		c1.2-11.7,4.5-22.7,9.1-35.2c-7.9,6.8-13.6,13.4-19.3,20.1c12-23.2,29.1-43.2,41.8-68.1c-5.7,5.5-10,9.8-16.2,13.5
		c9.4-9.4,17.7-18.5,25.6-28.6c-17.9,6.8-28.8,20.1-37.9,35.3c2.3-5,4.5-9.9,6.8-14.9c-0.3-0.2-0.6-0.4-1-0.6
		c-3.8,5.5-7.7,10.9-12.2,17.3c13.4-32.4,38.4-51.7,67.2-67.4c-15.3,5.2-32.3,1-46.5,9.9c9.2-7.4,20.3-10.4,31.5-12.3
		c15-2.6,26-9.4,31.6-24.4c3.3-8.9,8.2-17.3,13.4-27.9c-2.4,2.2-3.2,2.8-4.4,3.9c7.2-13.2,15.8-24.3,27.3-33.3
		c-14,14.7-19,34.1-27.9,52.9c15.4-10.5,22.1-26.9,34.6-38.3c-10.5,17.1-20.3,34.5-21.7,55.2c1.9-5.6,3.8-11.3,5.7-16.9
		c0.3,0.1,0.6,0.2,0.9,0.2c-1,4.6-2.1,9.2-3.4,15.1c7.8-12.7,13-25.3,22.6-35.4c-1.9,3.8-3.8,7.6-5.6,11.4
		c9.1-8.3,15.6-19.2,27.2-24c-14.2,14.6-27.4,30.2-37.5,48.3c3.6-4.1,6-9.1,10.4-12.8c-8.4,16.6-13.8,33.8-11.8,53.8
		c1.3-10.5,3.6-19.5,7.9-28.2c-6.1,25.1-3.7,49.7,3.3,75.5c4.1-21.1,4.1-42.5,18.9-58.7c-6,11.3-8.6,23.5-9.8,36.1
		c3.8-9.2,6.1-19.2,12.6-28.6c2.4,8.5,1.3,16.3,4.5,23.5c2.3-1.7,3.6-3.6,3-6.3c-4-17.5-0.4-33,11.7-46.4c0.3-0.3,0.4-0.8,1.1-2.1
		c-3.7,1.3-6.6,2.3-11.3,4c4.9-4.2,8.3-7.1,12.8-11c-3.5,0-5.6,0-9.1,0c3.4-1.9,5.6-3.1,7.9-4.4c-1.2-2.1-2.8-1.2-4.1-1.3
		c-1.4-0.1-3.2,0.1-3.3-1.9c-0.2-2,1.1-3.1,3.1-3.3c1.7-0.2,3.4,0,5-0.5c2.3-0.7,3.8-2.3,1.6-4.5c-4.7-4.7-1.8-7.1,2.2-9.8
		c2.1-1.3,5.9-1.1,5.3-5.2c1.8-1.2,4.4-0.2,6-2.4c-1.9-3.3-5.2,0.2-8.2-2c6.1-1.5,11.5-2.8,17-4.2c-2.1-2.1-5.5-0.7-7.5-3.3
		c1.7-2.8,5.3-1.3,7.4-3.4c-1-0.5-1.9-0.9-2.9-1.3c0.1-0.3,0.1-0.7,0.2-1c4,0.6,8,1.2,13.3,2c-4.7-3.6-8.8-4.8-13.4-4.2
		c4.5-2,8.5,0.3,12.8,1.6c-1.8-7.9-12.9-10-40.6-7.8c4.4-2.6,8.6-3.7,12.9-4.6c4.4-1,8.8-0.9,14.3-0.7c-4.2-4.8-8.6-1.4-12-2.2
		c9.8-6.5,16.6,0.8,24,5.8c7.6,5.1,13,12.1,18.1,20.5c0.4-16.2-12-26.4-35.5-30.3c9.3-5.5,23,0.4,35,15.1
		c0.7-6.1-5.5-17.4-15.4-27.4c6.5,2.9,10.6,7.2,13.8,12.5c3.3,5.3,4.7,11.3,5.9,17.4c1.1,5.9,1.3,12.3,6.5,18.2
		c2.5-16-3.3-29.1-8.6-42.2c7.2,14.8,18.4,28.6,10.4,46.8c5.8,0.8,8.6-1.5,9.5-8c1.6-11.9-2-22.6-8-32.7c-1-1.7-2.1-3.2-3.2-4.8
		c12.3,9,18.6,34,11.6,46.7c8.1,2,16.3,3.6,21.7,10.9c-6.6-6.1-14.5-9.1-23.2-10.4c-9-1.3-16,3.8-25.5,6.1
		c5.2,2.9,10.9-0.4,14.2,5.2c6.6-2.9,13.3-0.5,20.4,5.7c-1.9-0.5-2.4-0.5-2.9-0.8c-10.7-5.5-21.3-5-32-0.1
		c-3.9,1.8-7.9,3.7-12.5,2.4c-3.5-1-5.9-3.2-6.7-6.8c-0.8-3.2,1.3-4.2,3.3-6.1c2.4-2.3,2.8-6.8,7.8-6c2.7,4.9,7.8,6.2,12.2,2.5
		c-4.9-5.4-11.1-7.6-17.8-5.9c-6.4,1.7-9.8,7-9.9,13.6c-0.1,7.2,4.1,11.5,10.4,14.2c1,0.4,2.4,0.5,2.9-0.6c1.9-3.8,5.5-3.8,10.9-4.4
		c-5.9,3.3-9.5,8.1-14.9,6.7c-8.1-2.1-10.2-9.3-10.9-17.1c-6.5,7.9,0.5,17.6,14.8,20.7c-3.3,2.6-6.1,4.9-9,7.2
		c12.1-2.7,23.7-3.9,36.1,3.8c-20.7-3.5-38,1.1-54.2,15.2c1.8-5.5,6.4-8.1,4.7-13.3c-2.3,1.3-4.6,2.7-7,4.1c-1.1-3,1.8-4,2.1-7
		c-4.8,5.5-7.3,11.4-9.2,17.5c-0.8,2.6,1.9,2.5,3.6,2.8c10,1.5,18.1-3.9,26.9-6.9c-9.6,3.9-18,12.2-29.9,7.8
		c-1.1-0.4-1.9,0.2-2.2,1.3c-1.3,4.2-2.6,8.5-1.9,13.4c4-1.7,7.5-4.2,12.7-4.3c-18.1,11.4-26.3,27.7-28.5,49
		c7.3-7.8,12.7-15.7,21.3-22c-15.7,16.3-30,32.4-34.3,54.7c4.2-9.6,8.6-19.1,17.1-27.8c-10,20.4-18.8,39.7-17.1,61.8
		c3-13.9,8-26.8,16.4-38.5c-8,18.7-9,37.9-4.5,57.6c0.3-11.5-1-23.1,4.1-33.7c-1.9,20.5,1.6,39,22.4,52.7c-5.9-13-7.8-24.5-5.5-36.7
		c3,12.6,6.2,24.8,20.1,30c2.4,0.9,4.8,2.1,8.3,0.2c-12-3.8-14.6-13.3-15.5-23.5c-0.9-9.7,0.9-19,6.1-27.5
		c-2.4,7.1-4.8,14.1-4.3,21.7c0.2,3.4,0.8,6.8,1.7,10.3c-0.9-14.9,3.5-27.9,13.6-38.9c-2.7,5.3-5.3,10.7-8,16
		c9.3-10.9,18.2-22,29.6-31.7c-1.5,6.9-2.9,13-4.2,18.8c-0.1-1.4-0.2-3.3-0.3-5.4c-7.5,4.9,6.6,38.2,19.3,47.1
		c8.4-6.1,2.2-12.1-0.5-17.7c-1.6-3.3-3.7-5.6-4.1-10.1c-0.7-7.9-4.4-15.6-7.2-23.3c-1-2.7,0.2-4.7,1.1-6.8
		c1.8-4.2,3.7-8.3,7.9-12.1c-0.6,2.2-0.9,3.5-1.5,5.4c14.5-3.9,30.9-1.4,40.5-16.4c2.8-4.4,5.8-8.5-3.6-10.1
		c-19.2-3.4-38.5-23.4-40.8-40.1c-1.3-9.6,2.8-18.2,12.3-22.9c22.4-11.1,45.6-11.2,68.6-2.4c12.7,4.8,17.7,17.3,12.9,30.1
		c-7.1,19.3-22.8,28.8-41.1,35c-3.3,1.1-3.7,2.3-2.3,5c2.4,4.7,6.3,7.7,12.2,11.1c-2.2-3.3-3.5-5.3-4.9-7.3
		c10.9,12.6,24.3,19.3,41.1,18.7c3.1-0.1,7.4,7.4,6.9,10.7c-0.5,3.2-0.2,6.4-0.2,9.7c0,7.6-4.1,13.4-8.4,19.1
		c-1.3,1.7-0.8,3.8-0.2,5.6c1.1,3.2,2.5,6.2,4.1,10.1c7.9-10.1,13.8-20.5,16-32.7c0.4-2.2,0.7-4.5,0.7-6.8c0-2.2,0.4-3.8,4.3-3.1
		c-4.8-5.6-8.9-10.2-12.9-14.9c7.9,4.5,13.8,11,19.5,17.8c-0.6-1.7-1.3-3.4-2.6-7c8.6,9.1,11.3,19.1,14.4,29.8
		c4.5-8.5,2.7-16.7,2.8-24.6c2.6,6.5,4,13.4,1.6,20c-2.2,5.9-3.4,11.1-0.4,17.1c1.3,2.6,0.8,6.1,1.1,9.1c12.5-16.1,15.1-42.2-7-69.1
		c9.4,5.8,18.2,24.3,19.1,38.2c1,16-5,28.6-17,38.8c11.8-3.3,20.3-10.2,25.2-21.6c4.8-11.1,5.9-22.2,1.7-33.7
		c9.7,14.6,10.4,31.2,10.4,49.1c7.6-25.1,8.8-57.8-17-78.7c9.1,3.6,16.8,14.9,24.6,35.9c2.4-7.4-1.3-18.5-10.2-30.2
		c9.2,3,15.6,8.9,22.2,16.2c-4.7-15.5-4.1-31.5-13-45c-5.4-8.2-13.5-12.8-23.3-18.1c14.8,4.6,27.1,10.1,36.4,21
		c-2.7-6.4-7-11.6-11.8-16.4c-4.9-4.9-10.4-8.9-16.7-11.9c-6.2-2.9-12.5-5.6-18.5-9c8.3,2.3,16.6,4.6,24.8,6.9
		c0.4-0.6,0.8-1.3,1.2-1.9c-18.8-2.7-27.1-20.5-43.1-27.9c8.6,0,16.9,0,26.4,0c-8.6-6.7-18.2-8.2-27.2-11.5c4.5,0.5,9,1.1,13.8,1.6
		c-12.4-8.4-49.8-13.3-84.3,2.5c3.7-4.2,7.6-5.9,11.6-7.3c13.6-4.9,27.8-5.6,42.1-5.2c5.4,0.2,10.6-0.6,15.6-2.3
		c6.4-2.2,6.9-7.5,6.4-14.6c-2.1,4.2-3,7.9-5.2,10.2c-2.8,2.8-6.7,0.9-10.4,0c6,0,10.3-1.9,10.4-8.6c0.1-6.2-2.7-10.8-8.1-13.4
		c-3.1-1.5-6.6-2.4-10.6-0.4c3.6,4.5,7.9,7,11.9,9.9c2.9,2.1,1.3,5.3,1.8,8c0.4,2-1.4,2.5-3.2,3.1c-6.3,2.2-12.1,0.6-17.7-2.2
		c-8.1-4.1-16.9-6.1-25.4-9.4c4.7,0.6,9.4,1.2,15.3,2c-8-7.7-13.5-15.7-15.7-25.6c-2.2-10.3,0.4-19.4,6.7-27.7
		c-2.8,7.8-5.7,15.5-3.5,24.1c0.7,2.6,1.7,3.7,4.9,2.8c0.3-16.7,7.7-30.6,19.2-42.4c1.7-1.8,4.5-2.6,7.1-3.4
		c-3.8,4.4-8.4,8-11.3,13.1C346.9,265.5,346.2,266.6,345.5,267.6z M300.4,505.4c-2.9-12.9-6.3-25.7-6.7-39.1
		c-0.2-7.4-4.4-11.8-10.6-10.7c-6.4,1.1-11.8,3.9-12.9,11.2c-3,20.1-5.5,40.3-15.2,58.7c-1.2,2.3-1.5,5.1-1.8,7.7
		c-0.9,7-1.1,14,5.3,18.8c12.9,9.9,26.9,16.1,43.8,13.9c29.2-3.7,46.5-29.8,34.7-54.5c-7-14.6-13.9-29.1-18.1-44.8
		c-1.3-4.7-4.4-7.9-9.8-8.3c-11.5-0.8-14.7,2.7-13.1,14.8C297.5,484,299,494.7,300.4,505.4z M451.6,506.3c-1.4-6.2-1.9-12.6-2-19
		c0-3.6-1.1-7.7-0.2-11.5c3.1-14.2,8.7-27.5,13.3-41.2c4.9-14.7,10.7-29.3,11.8-44.9c1.2-17-3.7-32.9-11.6-47.9
		c-0.9-1.7-1.1-4-3.8-5.1c-0.5,5.8,1.7,10.6,3.2,15.5c6.9,22.5,7.2,44.5-3.2,66.2c-4.3,9.1-7.8,18.7-10.8,28.3
		c-6.3,20-9.5,40.2-0.7,60.5c2,4.6,4.7,8.6,9.4,11.1C453.9,514.8,452.6,510.7,451.6,506.3z M492.9,367.9c0,6,0.1,11.7,0,17.3
		c0,3.1,1.5,4.4,4.4,5.2c6.8,1.9,13.7,3.8,20.4,6.2c4.2,1.4,8.3,3.4,11.1,7.2c-2.5-1.2-5-2.4-7.5-3.7c22.2,14.3,36.5,34.5,45.8,60.5
		c-1.8-21-8.5-37.8-22.3-52.3c-14.4-15.1-31.5-27.4-44.1-44.2c-3-4.1-6.2-8-10.3-13.4c0,10,6.3,15.2,10.4,22.6
		C497.6,371.1,495.4,369.6,492.9,367.9z M173.8,561.6c-10.4-5.1-13.9-0.9-13.8,8c0,5.1,0,10.2,0,15.2c0.3,0,0.6,0,0.9,0.1
		c0.9-4.9,1.8-9.8,2.7-14.7c0.6,7.9-2.4,15.6-0.1,23.9c3.6-1.9,4.8-4.2,3.7-7.8c-1.8-5.7-1.9-11.4,1.6-17.6
		c0.7,6.7-3.5,14.8,3.8,17.6c5.3,2.1,7.9-5,11-9.4c-0.6,5.1-4,8.4-6.6,12.2c6,1,11.7-4.4,14-12.5c1.7,4.4-0.8,8.4-1.9,13.2
		c8.1-3.6,11.5-9.5,12.5-17.6c2.7,5.2,0.7,9.7-1.1,14.8c7.6-5,4.3-25.1-4.4-31.4c0,1.3,0,2.5,0,4.5c-4.6-3.2-8.7-6-13.2-9
		c0.4,4.1,3.5,6.3,5.2,9.5c-7.6-1.4-13.6-5.3-20.1-9.3C168.4,555.6,171.8,557,173.8,561.6z M125.9,559.3c2.8-4.7,5.4-8.8,6.2-15.6
		c-15,27.5-34.5,31.7-59.1,14.9c7.9,11,17,20,27.9,27.2c2.3,1.5,5.5,1.8,7.6,0.1c9.2-7.4,16.1-16.7,21.5-28.1
		C128.2,558.4,127.3,558.7,125.9,559.3z M483.5,411.9c3-8.9,5.2-16.7,5.5-24.7c0.6-16.3,2.1-33.2-14.5-44.8c1,2.4,1.7,4.2,2.6,6.2
		c-1.5-0.3-1.5-2.2-3.8-1.1C479.6,367.9,481.7,389.3,483.5,411.9z M258.8,555.9c-0.1,5.8,2.4,10,6.6,13.1
		c15.4,11.2,32.4,13.3,50.3,7.5c8.9-2.9,16.5-8.2,19.3-17.9c0.5-1.8,1.6-4.8-1.6-5.3c-2.6-0.5-4.3,1.5-4.4,4.2
		c-0.1,2.7-1.2,4.8-3.3,6.1c-7.5,4.4-14.6,9.5-23.8,10.8c-7.5,1.1-14-2.6-21.1-1.9c-0.3,0-0.6-0.4-0.8-0.6
		C273.5,565.7,264,563.9,258.8,555.9z M149,567c-4.1,3.3-9.5,4.6-10.8,9.1c-1.4,4.9,2.1,9,5.9,12c1.8,1.4,4,2.2,6.1,3
		c5.5,2.3,8.5,0.9,8.3-5.6c-0.2-6.9,1.1-13.9-1.9-22.6c-1.1,5.2-1.7,8.4-2.6,12.8c0-4.8,0-8.3,0-12.4c-2.2,3.1-1.4,7.3-5.4,9.3
		C148.7,570.7,148.8,569.3,149,567z M194.7,353.8c-6-0.4-9.6,2.2-12.8,5.9c-8.4,9.7-11,20.9-9.1,33.3c0.3,2-0.6,5.6,2.4,5.5
		c2.6-0.1,3.3-3.2,3.6-5.9C180.2,378.4,182.5,364.4,194.7,353.8z M395.4,346.5c5,5.4,9.1,10.4,11.8,16.3c2.7,5.8,5.1,11.7,7.8,17.8
		C421.6,370.1,411.3,352,395.4,346.5z M293.2,363.4c-11.2-1.2-20,0.1-28.3,4.1c-1.3,0.6-2.1,1.7-1.5,3.2c0.5,1.3,1.6,2.1,2.8,1.7
		C274.6,369.7,282.9,366.8,293.2,363.4z M446,572.4c0.7,5.7-2.2,10.4-4.4,15.5c3.4-0.4,6.2-0.7,9-1.2c2.2-0.4,4-1.8,4.8-4
		c0.8-2.1-1.4-2.8-2.4-3.9C450.9,576.7,448.6,574.8,446,572.4z M270.8,375.4c8.2-1.4,16.4-2.8,24.6-4.2c0-0.3-0.1-0.5-0.1-0.8
		c-2.4,0-4.9,0-7.5,0c1.3-0.6,2.4-1.1,5-2.2C283.8,368.7,276.8,370.3,270.8,375.4z M135,577.3c-2.3,2.2-6.8,1.8-6.1,5.6
		c0.9,4.8,5.5,4.4,9.5,5C137.2,584.2,136.2,581.1,135,577.3z M353.9,315c1.4-0.9,2.1-1.5,4.1-2.8c-8.1,1.2-11.8,6.5-9.1,11
		c2.2-2.4,6.2-2.5,7.3-7C355.8,316,355.1,315.6,353.9,315z M458.6,573.8c2.6,5.2,5,10.7,12.7,8.7
		C469.1,577.1,463.1,576.5,458.6,573.8z M441.4,556.3c2.6,8.9,7.4,16.3,15.1,21.6C452,570.3,445.5,564.1,441.4,556.3z M468.2,545.9
		c-1.7,1.5-2.9,2.6-4.1,3.6c1.3,2.8,3,4.7,6,4.9c0.6,0,1.9-1,1.9-1C470.9,551,469.6,548.7,468.2,545.9z M410,378.4
		c-2.2-5.8-6.1-9.8-12.2-11.2C401.8,370.9,405.9,374.7,410,378.4z M113.4,560.1c-7.2,2.1-14.6,2.9-22.1,3.1
		C99,565.1,106.4,564.2,113.4,560.1z M233,354.7c-9-2.1-14.9,1.2-20.5,5.5C218.6,357.7,225,356.3,233,354.7z"/>
	<path d="M106.1,269.3c24.7-12.1,45.8-29.6,70.4-45.8c-9.7,1.4-16.7,4.1-24.4,8.2c22.1-16.6,45.9-24,72.5-23
		c-15.7-2.5-31.3-3-47.1-1.2c8.5-1.8,17.1-3.5,25.6-5.6c8.8-2.1,17.7-2.2,26.6-1.1c8.8,1,17.3,3.6,25.9,6.2
		c-6.4-5.6-13.8-9.3-21.6-13.3c19.4,3.6,43.5,23.8,48.3,39.4c-18.9-27.8-48.8-29.5-79.1-29.9c10.5,2.2,21.6,1.9,32.4,6.5
		c-21.4,0-41.5,2.7-60.7,11.1c8.1-1.7,16.1-3.3,25.8,1.2c-24.5,1.7-40.6,16.6-58.2,28.6c14.8-7,28.8-15.9,46.7-17.5
		c-4.3,1.3-7.8,2.4-12.2,3.7c2,0.4,3,0.7,5.2,1.2c-12.1,3.2-21.8,8.6-31.2,14.8c-19,12.7-32.9,29.1-39.3,51.5
		c-2.2,7.7-7,14.1-13.5,21.2c11.7-25.6,17.4-52.8,41-69.6C128.1,260.4,117.1,264.8,106.1,269.3z"/>
	<path d="M262.6,633c-11.7-4.5-18.7-11.9-24.8-20.8c3.1,5.5-7.3-21.3,6.5-34c-4.1,13.2-6.8,26.3,3.6,38.8c0.4-2.8-1-5.2,1.6-7.9
		C250.9,618.5,255,626,262.6,633z"/>
	<path d="M302.9,250.4c-16.6-33.3-40.6-56.7-79.8-62.3c25-1.5,42.2,12.4,58.1,27.7C291.2,225.3,302.4,235.1,302.9,250.4z"/>
	<path d="M291.8,643.2c-4.9-6-10.4-11.7-13.3-19.1c-1.9-4.7-3.7-9.5-0.4-15c1.5,18.7,16.5,28.2,27.9,41.5c-5.9-1-8.9-4.6-13-6.2
		C292.6,644.1,292.2,643.7,291.8,643.2z"/>
	<path d="M291.8,643.2c0.4,0.4,0.8,0.8,1.2,1.2c-0.9,2.4-2.3,0.6-3.1,0.2c-3.7-1.8-7.3-3.7-10.8-5.8c-3.6-2.1-6.7-4.7-9.7-8.9
		c0.2,2.2,0.4,3.5,0.5,4.8c-7.2-0.9-13.2-10.4-12.9-21c1.9,7.3,5.1,13.9,11.8,20c-2.3-6.8-5-12.1-5.1-19.7
		C268.8,629.3,279.8,636.8,291.8,643.2z"/>
	<path d="M253.1,431.4c-14.1,6.6-22.1,17.3-27.4,31C224.2,449.8,240.1,431.4,253.1,431.4z"/>
	<path d="M296.2,355.3c9.6-18.9,28-19.6,45.6-22C324.7,336.8,307.4,339.9,296.2,355.3z"/>
	<path d="M257.5,354.2c-10.9-7.4-20.6-10.2-32.5-6C233.4,340.6,248.4,343.2,257.5,354.2z"/>
	<path d="M234.5,272.4c-6.6-9.9-15.1-14.7-26-16.5C217.7,252.7,233,262.2,234.5,272.4z"/>
	<path d="M352.6,292.8c3.2-11.4,12.7-12.7,20.8-15.9C364.8,279.5,360.7,287.9,352.6,292.8z"/>
	<path d="M186.5,292.4c8.7-4.6,16.7-4,24.8-2.6C203.5,290.7,195.7,291.5,186.5,292.4z"/>
	<path d="M300.4,326.8c2.4,11-7,15.8-11.9,23.1C292.6,342.3,300.6,336.7,300.4,326.8z"/>
	<path d="M315.9,634.6c-1.3,5.4-4.9,9.6-8.9,16.1C307.5,642.1,313.6,639.5,315.9,634.6z"/>
	<path d="M345.5,267.6c0.7-1,1.4-2,2.1-3.1c1.7-1.1,3.3-2.2,6.8-4.4c-3.8,5.6-6.5,9.5-9.4,13.7C343.9,271.3,345.2,269.5,345.5,267.6
		z"/>
	<path d="M58.6,583.9c0.3,0.7,0.6,1.3,0.9,2c-1,0.5-2.1,1.6-3,1.5c-1.7-0.1-4.1,1.4-5.1-1c-1.4-3.3,1.6-3,3.3-3.3
		C55.9,582.9,57.2,583.6,58.6,583.9z"/>
	<path d="M179.7,527.9c-4.3-5.7-7-12.1-7.9-19.2C173.8,515.5,176.8,521.7,179.7,527.9z"/>
	<path d="M179.5,306c4.4-3.4,7.3-5.8,10.8-8.6C188.9,302.7,185.7,304.9,179.5,306z"/>
</g>
</svg>
