<svg id="a0231150-3c69-4df7-83f2-5e8f506a0e86" data-name="Layer 1" xmlns="http://www.w3.org/2000/svg" viewBox="0 0 750 841.89" style="fill: #215342;" height="350" width="450" transform="translate(-95, -32)"><path d="M245.5,557.633a11.594,11.594,0,0,1,2.922-4.546c.173-.2.346-.7.284-.75-.288-.214-.531.05-.742.249a23.342,23.342,0,0,0-4.111,4.865c-.917,1.514-1.2,1.488-1.849-.069-1.282-3.083-2.48-6.2-3.687-9.315-.292-.751-.444-1.557-.734-2.31-.641-1.666-.806-1.724-2.327-.818a75.723,75.723,0,0,0-10.269,7.074c-.266.225-.622.773-.965.343-.261-.327.281-.623.548-.87a55.2,55.2,0,0,1,11.085-8c.411-.225,1.075-.318,1.026-.892-.022-.258-.579-.512-.931-.695-5.389-2.807-5.409-2.833-10.658.563a93.706,93.706,0,0,0-17.753,14.3c-.244.261-.411.727-.925.621a6.514,6.514,0,0,1,.586-.954,81.083,81.083,0,0,1,20.015-16.254c1.688-1,1.73-1.021.124-2.038a68.51,68.51,0,0,1-6.67-4.8,6.206,6.206,0,0,0-4.2-1.427q-7.316.069-14.632-.059a5.2,5.2,0,0,0-4.369,1.651c-.19.216-.414.84-.887.356-.083-.085.142-.531.29-.771.413-.671.421-1.157-.527-1.16a108.814,108.814,0,0,0-11.57.121,45.842,45.842,0,0,1-5.013-.208q-48.777.069-97.556.032c-1.619,0-3.241.2-4.857.356a57.432,57.432,0,0,1-14.285-.077,47.2,47.2,0,0,0-7.3-.337q-20.121.021-40.241.038c-.508,0-1.017,0-1.524-.023a1.62,1.62,0,0,1-.56-.136.591.591,0,0,1,.614-.513c.809-.064,1.621-.119,2.432-.122q9.6-.029,19.206-.038c.71,0,1.421,0,2.129-.041a.706.706,0,0,0,.512-.264c.177-.309-.018-.523-.315-.657a16.963,16.963,0,0,1-6.436-5.456c-.849-1.111-2.072-1.136-3.314-1.134-4.268.006-8.537.038-12.8-.038-.871-.016-2.451.623-2.447-.875s1.58-.842,2.449-.856c4.674-.07,9.349-.027,14.023-.05.447,0,1.082.192,1.262-.466.126-.46-.326-.673-.622-.939a17.071,17.071,0,0,1-5.7-11.1c-.045-.394.006-.886-.38-1.071-.418-.2-.739.155-1.018.464-.408.453-.815.908-1.25,1.336-1.816,1.788-3.089,1.468-3.8-1.056a10.427,10.427,0,0,1-.119-5.441c1.981-7.33,2.769-14.963,5.6-22.071a48.841,48.841,0,0,1,6.284-11.777,31.465,31.465,0,0,1,2.57-3c4.306-4.365,9.306-5.308,15.055-2.982,1.5.605,2.879,2.083,4.394,1.822,1.548-.267,2.1-2.325,3.331-3.375.385-.329.723-.713,1.083-1.072,4.1-4.079,8.886-6.317,14.8-5.7,2,.208,2.308.577,3.155-2.168,3.319-10.746,6.622-21.5,10.105-32.192a209.993,209.993,0,0,1,9.59-24.637c7.2-15.26,17.4-28.305,29.3-40.142,8.288-8.244,17.1-15.924,25.511-24.04,9.12-8.8,16.491-18.7,20.888-30.689a25.255,25.255,0,0,1,4.12-7.419,8.634,8.634,0,0,1,6.861-3.366,36.813,36.813,0,0,1,5.77.359,31.387,31.387,0,0,0,22.646-4.962c4.573-3.047,8.8-6.537,13.135-9.9A128.766,128.766,0,0,1,276.6,251.483,116.948,116.948,0,0,1,307.5,249.3a130.143,130.143,0,0,1,36.449,7.858A125.228,125.228,0,0,1,383.979,281.6c2.953,2.633,6.067,5.093,9.18,7.539a17.314,17.314,0,0,0,14.849,3.6c4-.81,7.575.829,10.808,3.134,3.362,2.4,5.85,5.62,8.206,8.939a74.543,74.543,0,0,1,6.232,10.1c4.135,8.389,9.833,15.587,16.258,22.3,8.848,9.248,17.669,18.522,25.579,28.616,13.637,17.405,22.985,36.971,29.517,57.994,3.16,10.173,5.736,20.5,8.378,30.807.051.2.075.4.128.6.712,2.636.756,2.725,3.089,1.588,8.114-3.952,13.332-1.574,17.961,5.242.665.979.892,2.585,2.129,2.79,1.2.2,2.034-1.15,3.045-1.788,6.877-4.339,12.052-3.625,17.494,2.483a8.385,8.385,0,0,1,1.487,1.914c.932,2.044,2.382,2.683,4.609,2.445,4.4-.472,7.353,2.217,9.613,5.41a37.812,37.812,0,0,1,7.018,26.468,13.116,13.116,0,0,1-2.041,5.691,30.593,30.593,0,0,0-3,6.287,14.693,14.693,0,0,1-4.261,6.564c-.3.254-.719.535-.557.988s.657.346,1.031.348c1.931.01,3.862-.006,5.793,0,1.016,0,2.032.011,3.048.046.62.022,1.272.076,1.191.966-.061.669-.592.74-1.1.763-.71.031-1.422.026-2.133.027-2.337,0-4.676.059-7.011-.009a5.617,5.617,0,0,0-4.791,2.161,13.247,13.247,0,0,1-6.394,3.881c-2.9.963-4.927-.151-6.774-2.1-.766-.806-1.309-1.828-2.094-2.611a2.173,2.173,0,0,0-3.579.394c-1.017,1.516-1.966,3.078-2.961,4.61-.51.787-.175,1.1.617,1.137.913.042,1.829.044,2.743.052q14.783.13,29.566.257c.609,0,1.221-.008,1.827.042a8.6,8.6,0,0,1,1.161.254c-.263.4-.68.214-1.029.251a11.787,11.787,0,0,1-1.219.022c-10.67.033-21.34.1-32.01.07a14.025,14.025,0,0,0-6.747,1.422c-4.539,2.349-9.317,2.915-14.118.887a31.589,31.589,0,0,0-15.451-2.437,58.7,58.7,0,0,1-6.094.016,32.449,32.449,0,0,0-8.988,1.143,31.9,31.9,0,0,1-17.444-.177,20.873,20.873,0,0,0-5.991-.943c-18.9.052-37.8.069-56.7.15-.773,0-2.107-.773-2.242,1.053-.055.745-.645.163-.767-.056-.8-1.446-2.195-1.3-3.493-1.322q-7.924-.1-15.851-.132c-2.311,0-2.313.046-1.338,2.037.178.364.4.71.554,1.082a1.782,1.782,0,0,1,.048.553,1.34,1.34,0,0,1-.432-.142,1.66,1.66,0,0,1-.388-.461c-1.457-2.479-3.622-3.008-6.421-3.006-9.349.006-7.969-.17-14.822,5.306-2.965,2.369-6.45,3.779-9.727,5.578-.431.236-1.1.557-1.129.884-.039.464.608.707,1.092.9a34.035,34.035,0,0,1,6.911,3.814c.2.137.427.6.376.649-.258.268-.507.015-.77-.122-2.606-1.362-5.179-2.8-7.843-4.037-2.924-1.361-3.6-1.058-4.95,1.817-1.464,3.12-2.873,6.265-4.359,9.374-.335.7-.278,1.879-1.75,1.52-.641-.156-.3.532-.132.808a22.753,22.753,0,0,0,1.375,2.008,28.414,28.414,0,0,1,5.747,13.237,7.827,7.827,0,0,1,.01,1.177c-.137-.366-.3-.726-.407-1.1a41.112,41.112,0,0,0-3.911-9.526c-.572-.957-1.134-1.92-1.735-2.858-.536-.836-1.036-1.258-1.688-.006a97.4,97.4,0,0,1-10.818,16.884c-.65.794-.3,1.248.321,1.715,3.122,2.34,4.2,5.866,5.4,9.317a2.875,2.875,0,0,1,.027.858,4.62,4.62,0,0,1-.488-.684c-.348-.732-.656-1.482-.988-2.221a23.433,23.433,0,0,0-3.043-5.253c-1.732-2.134-2.328-2.142-4.285-.116a55.392,55.392,0,0,1-20.212,13.787c-13.237,5.024-26.052,3.825-38.516-2.62a82.208,82.208,0,0,1-9.25-5.855c-1.255-.878-1.964-.744-2.474.713-.6,1.721-1.258,3.423-1.938,5.114-.11.273-.053.785-.567.736a2.047,2.047,0,0,1-.019-.849c.578-2.258,1.116-4.53,1.811-6.751a1.87,1.87,0,0,0-.59-2.347A69.469,69.469,0,0,1,246.2,565.605c-.549-.969-1.13-1.921-1.691-2.884-.509-.874-1-.519-1.262.119a29.467,29.467,0,0,0-2.1,7.279,47.239,47.239,0,0,0-.057,11.851,1.87,1.87,0,0,1-.131,1.417c-.087-.492-.165-.987-.263-1.477a36.01,36.01,0,0,1,.038-15.113,18.894,18.894,0,0,1,4.846-9.248,2.232,2.232,0,0,0,.261,1.752,89.98,89.98,0,0,0,14.12,19.389c.271.274.813.689.965.6.609-.366.074-.864-.025-1.315-.209-.945.435-1.021,1.072-.963,1.164.1,1.4,1.037,1.557,1.958a5.826,5.826,0,0,1-.483,2.361c-.312,1.32.014,1.669,1.322,1.115.983-.417,1.465-.372,1.866.633a7.229,7.229,0,0,0,2.325,3.1,31.708,31.708,0,0,0,18.574,6.661c8.214.272,15.844-2.059,23.2-5.494a7.227,7.227,0,0,0,2.93-2.126,3.2,3.2,0,0,1,3.05-1.61,1.856,1.856,0,0,0,2.024-1.089c.518-1.808,3.5-2.648,2.062-5.233-.087-.156.352-.684.632-.949a4.524,4.524,0,0,0,.959-1.878c.136-.357.508-.751.206-1.1s-.756-.091-1.118.043a67.233,67.233,0,0,1-10.208,3.035,85.721,85.721,0,0,1-21.24,1.1,37.888,37.888,0,0,1-3.913-.563,4.437,4.437,0,0,1-.724-.244,5.568,5.568,0,0,1,.557-.157c.38-.069.823.087,1.1-.322-.384-.1-.766-.217-1.153-.311-.69-.167-1.382-.332-2.076-.48-12.721-2.724-22.333-9.8-29.1-20.827-2.445-3.982-2.435-3.993-5.376-.336a3.225,3.225,0,0,0-.815,1.25C247.871,557.086,246.749,557.411,245.5,557.633Zm-60.337-29.312a4.735,4.735,0,0,1-.1.6c-.569,1.918-.572,1.951,1.357,2,1.717.048,3.454-.146,5.152.043,4.8.533,8.978-.375,11.987-4.546a9.84,9.84,0,0,1,1.65-1.318c.439-.384,1.15-.774.853-1.433-.191-.425-.906-.254-1.4-.255-4.55,0-9.1.059-13.648-.036a4.9,4.9,0,0,0-3.494,1.457c.1-2.168-1.556-1.41-2.556-1.411-19.6-.017-39.209.034-58.813,0a7.691,7.691,0,0,0-5.514,2.105,26.1,26.1,0,0,1-4.345,3.328c-.848.5-1.656,1.072-2.483,1.611.885,1.031,2.061.473,3.078.474,20.824.026,41.648-.039,62.471.048C181.878,531.005,183.893,530.668,185.163,528.321ZM92.515,472.786a31.029,31.029,0,0,0,.7,6.889c.083.322-.086.91.578.778.6-.12,1.967-2.634,1.948-3.51a5.536,5.536,0,0,0,3.237-.629,8.442,8.442,0,0,1,5.688-.306,24.293,24.293,0,0,1,9.114,4.725,35.506,35.506,0,0,1,10.3,14.151c.7,1.8,1.438,3.579,2.171,5.363.114.28.325.543.662.357.134-.074.207-.341.227-.528.131-1.184-.836-2.458.075-3.542a3.005,3.005,0,0,0,.141-4.136,2.139,2.139,0,0,1-.243-1.771c.77-3.093-.514-5.765-1.693-8.462-.529-1.209-1.072-2.413-1.575-3.633a3.015,3.015,0,0,1-.086-.855c.213.182.505.323.626.553,1.6,3.024,4.077,5.573,4.864,9.038a2.692,2.692,0,0,0,1.026,1.819,8.312,8.312,0,0,1,2.948,3.8c2.734,5.321,5.313,10.723,7.921,16.108,1.729,3.57,2.969,7.338,4.38,11.036.217.568.62,1.205,1.338.915.573-.231.3-.849.192-1.337a80.121,80.121,0,0,0-3.747-12.511c-4.506-11.372-10.824-21.777-17.245-32.119a49.9,49.9,0,0,0-9.03-11.439c-7.266-6.415-17.187-5.7-23.188,1.672a31.356,31.356,0,0,0-3.919,6.147,58.763,58.763,0,0,0-5.371,22.008,48.148,48.148,0,0,0,1.76,15.66c.118.441.012,1.2.762,1,.566-.149.4-.828.437-1.316.133-1.682-.745-3.143-1.02-4.742a53.851,53.851,0,0,1,.182-18.49,39.521,39.521,0,0,1,3.379-11.027C90.555,473.447,91.016,472.338,92.515,472.786ZM233.747,299.341c.739-.1,1.336-.824,2.172-.494-.534.458-1.042.951-1.608,1.365-.818.6-1.661,1.17-2.525,1.7a185.691,185.691,0,0,0-16.277,11.247,75.242,75.242,0,0,0-14.618,14.151c-5.464,7.3-8.5,15.653-10.25,24.475-1.919,9.68-4.906,18.832-11.339,26.562a13.66,13.66,0,0,0-2.5,4.84c-.3.99-1.034,2.317.039,3,.388.246.3-1.573.964-2.227.128-.128.108-.392.205-.566.485-.867,1.1-2.518,1.7-2.241,1.219.561-.23,1.637-.284,2.55a15.247,15.247,0,0,1-.755,2.616c-1.113,4.42-1.39,8.82.471,13.131a8.511,8.511,0,0,0,.808,1.242c.524-.35.214-.867.251-1.31.051-.606.048-1.217.095-1.824.015-.193.107-.539.179-.544.4-.022.29.342.323.562.24,1.6.455,3.211.7,4.815.074.492.394,1.388.612,1.216,1.169-.922,1.34.077,1.965.665.584.548,1.411.707,1.908,1.584a12.946,12.946,0,0,0,6.911,5.707c2.94,1.115,5.959,2.02,8.925,3.069a26.049,26.049,0,0,1,11.868,8.192c3.48,4.289,5.447,9.242,6.862,14.478a17.535,17.535,0,0,0,1.55,4.282c.254.441.618.9,1.171.848.587-.056.774-.628.885-1.117.8-3.513,2.681-6.51,4.329-9.656a67.7,67.7,0,0,1,10.506-15.252c.729-.775,1.165-1.91,2.406-2.112.129,1.277-.988,1.89-1.548,2.775-2.425,3.837-5.431,7.434-5.088,12.368.078,1.124-.918,2.895-.227,3.071,1.487.38,1.8-1.522,2.492-2.51,2.095-3.009,4.695-5.628,6.742-8.645,2.187-3.223,6.565-3.669,8.5-7.1.043-.077.163-.117.254-.159a1.2,1.2,0,0,1,1.621.344c.382.531,0,.965-.374,1.315-.59.555-1.226,1.061-1.82,1.611-.208.192-.476.513-.231.749s.527-.081.751-.25c1.866-1.4,3.723-2.819,5.6-4.209.223-.164.688-.357.793-.263.471.428-.034.689-.295.935-.517.487-1.09.914-1.6,1.4-4.647,4.429-8.92,9.148-11.96,14.882-1.758,3.317-3.709,6.532-5.526,9.819-6.441,11.651-13.258,23.055-21.792,33.335-2.853,3.437-5.77,6.82-8.65,10.236-.25.3-.724.6-.53,1.016.3.66.878.2,1.3.1.988-.214,1.958-.512,2.931-.793a43.821,43.821,0,0,1,12.918-1.748,6.117,6.117,0,0,1,3.22.756c.256.157.565.4.4.712a.944.944,0,0,1-.723.314c-.913,0-1.827-.053-2.741-.094-14.067-.624-25.982,4.434-36.271,13.761-.418.378-1.269,1.039-.977,1.294.741.646,1.188-.369,1.657-.77a64.8,64.8,0,0,1,10.489-7.285,47.976,47.976,0,0,1,13.586-5.174c.365-.077.72-.393,1.112-.07a4.643,4.643,0,0,1-.988.689c-1.806.665-3.639,1.258-5.445,1.925-1.047.386-2.114.8-2.482,2.034a38.86,38.86,0,0,0-1.8,11.982c.024,1.2.555,1.407,1.466.577a20.669,20.669,0,0,1,7.647-4.272,1.738,1.738,0,0,1,2.148.418c1.437,1.573,1.351,2.923-.548,3.906a64.622,64.622,0,0,0-9.452,5.52c-1.6,1.206-1.635,1.241-.444,2.824,2.624,3.489,5.227,7,7.964,10.4a45.293,45.293,0,0,0,15.2,11.97c.348.176.787.54,1.082.193.391-.461-.224-.679-.488-.835a48.376,48.376,0,0,1-8.382-6.557c-4.916-4.616-9.079-9.735-10.017-16.774-.129-.971-.3-1.8.674-2.4a20.415,20.415,0,0,1,5.76-2.723c2.8-.681,4.645.89,4.57,3.688-.034,1.265-.2,2.5-1.817,2.715-1.4.187-2.1-.459-2.564-2.317a5.756,5.756,0,0,1-.057-.606c-.077-.547-.2-.675-.743-.275-1.527,1.12-2.114,2.447-1.238,4.237-1.159,3.533.841,6.3,2.315,9.145a4.019,4.019,0,0,0,3.9,2.416,4.791,4.791,0,0,1,4.754,2.715,6.541,6.541,0,0,0,3.3,2.968c6.88,3.635,14.365,4.094,21.915,4.209.678.011,1.675.07,1.773-.793.115-1.013-.949-1.174-1.688-1.4a57.286,57.286,0,0,1-7.542-2.378c-1.009-.468-2.214-.866-2.352-2.156-.207-1.925-1.607-2.187-3.032-2.329a17.142,17.142,0,0,1-3.583-.657c-1.458-.468-1.945-1.689-2.273-3a.992.992,0,0,1,.687-1.2,3.214,3.214,0,0,1,3.426.517c.391.324.754.686,1.165.981a9.187,9.187,0,0,0,4.121,1.883,47.192,47.192,0,0,0,9.432.136c1.567-.116,1.845-.734,1.156-2.285-.411-.924-1-1.767-1.464-2.669-.923-1.8-.84-2.12.789-3.218.842-.568,1.693-1.126,2.563-1.649,1.991-1.2,2.547-2.908,2.284-5.183-.289-2.508-1.773-4.286-3.209-6.1a73.377,73.377,0,0,1-6.786-10.108c-1.078-1.959-2.356-3.979-2.468-6.182-.18-3.535-.7-7.054-.52-10.616.485-9.365,4.472-16.51,12.972-20.867a42.949,42.949,0,0,1,7.307-3.032c.289-.086.573-.192.859-.289a2.265,2.265,0,0,0-.449-.28c-1.7-.586-.379-.89.14-1.09a45.682,45.682,0,0,1,10.31-2.613c4.725-.645,9.455-1.255,14.183-1.878a16.626,16.626,0,0,0,6.617-2.143c1.818-1.114,1.742-1.926-.076-2.962-1.555-.887-1.642-.991-.214-2.2a9.376,9.376,0,0,0,3.194-7.586c-.124-8.415-4.331-14.338-11.907-17.907-.825-.389-1.684-.7-2.515-1.084-.272-.125-.541-.4-.41-.7a1.049,1.049,0,0,1,.649-.537,6.67,6.67,0,0,1,3.011.231,27.114,27.114,0,0,1,9.595,4.5c.921.684,1.691,1.241,2.952.342,5.01-3.576,10.774-3.808,16.631-3.449.28.018.751.148.786.3.08.354-.325.459-.612.527-1.579.379-3.173.7-4.743,1.118a4.967,4.967,0,0,0-3.1,1.736,29.418,29.418,0,0,0-5.108,13.521,12.387,12.387,0,0,0,.649,5.708,2.742,2.742,0,0,1-1.461,3.677,3.875,3.875,0,0,0-2.157,3.449c.031,1.536,1.369,1.871,2.529,2.233,1.453.454,2.933.821,4.4,1.24,2.05.587,4.1,1.169,6.139,1.8.432.133,1.244.658.547.979-2.211,1.02-.233.724.222.808,3.593.664,7.2,1.268,10.784,1.954,9.511,1.818,16.864,6.706,21.634,15.264a25.95,25.95,0,0,0,1.993,3.062c2.346,3.085,4.709,2.914,6.553-.5.723-1.336,1.245-2.779,1.892-4.158.117-.25.44-.628.592-.595.51.11.381.617.341.97-.553,4.95-1.111,9.9-3.239,14.5-.809,1.75-1.486,3.562-2.234,5.341a2.785,2.785,0,0,0,.628,3.357,1.993,1.993,0,0,0,2.989-.028,1.083,1.083,0,0,1,1.39-.257c.678.511.217,1.06-.159,1.552a1.8,1.8,0,0,0-.186,1.434c.318,2.817-.71,3.791-3.362,2.876a1.793,1.793,0,0,0-2.466.943c-.724,1.1-1.4,2.239-2.161,3.318a72.055,72.055,0,0,1-7.683,9.049,28.261,28.261,0,0,0-5.224,6.707c-.622,1.206-.232,1.84,1.059,1.59a25.7,25.7,0,0,0,5.319-1.244,53.761,53.761,0,0,0,18.625-13.425c2.422-2.618,4.572-5.432,6.815-8.184,2-2.46,2.066-2.406,3.247.375a2.016,2.016,0,0,0,.346.5,1.949,1.949,0,0,1-.282,2.977,20.528,20.528,0,0,0-5.407,7.633,2.252,2.252,0,0,1-.776.919,51.794,51.794,0,0,0-7.757,6.831,4.732,4.732,0,0,1-1.8,1.088,21.963,21.963,0,0,0-7.056,4.153,14.43,14.43,0,0,1-8.176,3.506,5.926,5.926,0,0,0-4.961,3.117,14.138,14.138,0,0,1-2.527,3.714c-.284.283-.661.608-.461,1.034s.68.324,1.079.287a65.874,65.874,0,0,0,22.241-5.868,21.754,21.754,0,0,0,4.725-2.75c3.574-3,6.99-6.188,10.447-9.325a3.9,3.9,0,0,0,1.111-1.434c.82-2.318,2.564-3.241,4.85-3.447,2.176.89.91,2.8,1.209,4.23a2.42,2.42,0,0,1-1.395,2.5,31.882,31.882,0,0,0-4.082,3.148,3.025,3.025,0,0,0-1.034,3.007c.265,1.374,1.241,1.758,2.468,1.057,4.171-2.382,6.927-6.056,9.327-10.077.423-.708.267-1.116-.4-1.428-2-.929-3.808-2.35-6.155-2.373-.207-.922-1.149-1.069-1.714-1.615-1.794-1.735-1.453-3.825.789-4.887a2.958,2.958,0,0,1,2.618.208,30.111,30.111,0,0,1,7.3,4.338c.519.425,1.093,1.238,1.79.949.753-.31.343-1.246.385-1.906a25.906,25.906,0,0,0-.612-5.434c-.925-6.192-1.672-6.9-7.782-7.51-1.813-.182-3.616-.469-5.415-.757-.592-.094-1.467-.327-1.435-.9.053-.957,1.033-.72,1.707-.772a31.741,31.741,0,0,1,6.661.594,29.949,29.949,0,0,1,14.582,5.6c1.29.984,2.546,2.013,3.838,3,.283.216.648.623,1,.134.068-.1-.21-.526-.411-.715a38.561,38.561,0,0,0-11.016-7.484c-6.244-2.744-12.784-2.9-19.412-2.506-.6.036-1.2.146-1.809.166-.142,0-.344-.189-.427-.342a.491.491,0,0,1,.309-.726,7.721,7.721,0,0,1,1.771-.333,37.518,37.518,0,0,1,10.9.564c.744.18,1.8.631,2.24-.126.357-.617-.629-1.141-1.1-1.645a36.163,36.163,0,0,1-7.1-10.546c-1.111-2.61-2.327-5.175-3.494-7.761-4.112-9.117-9.1-17.66-16.068-24.947a72.081,72.081,0,0,1-8.031-9.934,58.8,58.8,0,0,1-3.686-7.339c-.109-.228-.121-.715.011-.8.286-.2.511.129.674.366a7.546,7.546,0,0,1,.463.787C348.1,429,352.123,433.588,356,438.28a18.727,18.727,0,0,0,1.473,1.536c.107.1.335.078.508.113a1.518,1.518,0,0,0,.07-.557,10.987,10.987,0,0,0-2.047-3.71c-1.312-1.68-2.627-3.36-3.878-5.085-.31-.428-1.066-.943-.518-1.492.228-.229.756.517,1.054.911,2.02,2.672,4.023,5.357,6.045,8.028.856,1.132,1.734,2.248,2.624,3.354.177.221.475.423.752.166.1-.1.1-.382.053-.557a43.718,43.718,0,0,0-3.52-10.03,28.724,28.724,0,0,1-2.511-4.51,30.182,30.182,0,0,1,9.346,10.968c1.108,2.348,2.2,4.815,4.149,6.685.579.556,1.169,1.275,2.09.807a2.674,2.674,0,0,0,1.582-2.1,9.41,9.41,0,0,0-.121-1.5c-.114-1.939-1-3.766-1.092-5.651-.237-4.635-2.1-8.592-4.48-12.414a42.439,42.439,0,0,0-10.18-10.78c-5.03-3.951-9.941-8.03-13.835-13.175a6.334,6.334,0,0,0-.589-.7c-1.03-1.022-1.644-.877-2.139.527a4.65,4.65,0,0,0,.256,3.811c2.58,5.176,5.082,10.455,9.127,14.641,2.331,2.412,3.66,5.291,5.275,8.07-3.107-3.348-6.169-6.74-9.334-10.033-2.8-2.909-5.083-6.319-8.59-8.542a7.915,7.915,0,0,1-2.207-2.488c-3.144-4.949-6.969-9.519-8.6-15.319-.269-.954-1.464-2.467-1.03-2.617,1.233-.427,1.329,1.317,2.132,1.935a1.282,1.282,0,0,1,.19.238c.257.321.549.663.994.52s.516-.574.541-.99a9.991,9.991,0,0,0-1.156-4.377,100.958,100.958,0,0,1-6.208-20.04c-1.752-9.552-1.9-19.174-1.818-28.835a71.175,71.175,0,0,1,1.435-13c.425-2.183,1.2-4.3,1.84-6.439.085-.288.292-.636.62-.546.35.1.261.491.213.786-.3,1.8-.661,3.6-.892,5.406-1.02,7.993-.789,16.026-.532,24.043a49.423,49.423,0,0,0,1.955,11.692c.1.376.2.864.676.864.178,0,.378-.421.532-.673,3.575-5.829,6.616-11.876,7.984-18.663a91.3,91.3,0,0,1,2.212-8.863c2.5-8.113,7.185-14.306,15.037-18.2a11.6,11.6,0,0,1,10.7-.108,33.963,33.963,0,0,1,4.863,2.53c5.355,3.534,11.158,6.264,16.722,9.42A29.244,29.244,0,0,1,395.06,334.58a66.277,66.277,0,0,1,5.827,14.358c2.262,7.789,3.409,15.889,6.571,23.43.7,1.678.114,3.153-.834,4.58q-3.035,4.569-5.989,9.192a42.647,42.647,0,0,1-8.228,9.341q-4.4,3.768-8.644,7.7a34.08,34.08,0,0,0-7.949,9.947c-2.074,4.292-3.322,8.965-2.1,13.555,1.245,4.668,3.56,9.051,5.424,13.552.1.253.377.633.551.622.543-.034.418-.566.487-.927a54.742,54.742,0,0,1,1.61-7.428,39.128,39.128,0,0,1,13.236-18.23A72.363,72.363,0,0,0,408.2,401.226c2.692-3.607,4.953-7.439,5.734-11.971a2.9,2.9,0,0,1,.2-.832c.487.011.6.445.731.824,1.512,4.428.323,8.626-1.2,12.753a42.481,42.481,0,0,1-4.153,7.781c-.2.314-.654.725-.21,1.032.367.253.681-.232.9-.533,3.078-4.186,6.22-8.335,6.269-13.9a11.563,11.563,0,0,1,.442-3.315c.649-2.07.175-4.024-.328-5.989-.3-1.179-.719-2.328-1.082-3.49-.115-.366-.554-.929-.142-1.085,1.771-.67.533-1.658.171-2.274-.818-1.391-1.881-2.638-2.827-3.955-.154-.214-.461-.493-.08-.747.111-.074.366.03.54.094.352.129.762.561,1.041.066.226-.4-.259-.69-.532-.925-3.807-3.28-5.595-7.636-6.625-12.394-1.009-4.657-1.893-9.344-3.018-13.972-1.96-8.059-4.944-15.669-10.374-22.113A71.945,71.945,0,0,0,381.3,315.017c-9.514-7.063-19.6-13.01-31.184-16.07a17.786,17.786,0,0,0-4.51-.492c-.845,0-1.934,1.053-2.336.14-.193-.439,1.485-.663,2.347-.905a4.5,4.5,0,0,0,.86-.3c.162-.083.265-.28.394-.426a3.479,3.479,0,0,0-.492-.328c-2.393-1.087-4.792-1.568-7.336-.383a17.792,17.792,0,0,0-6.529,5.359c-.75.96-1.462,1.95-2.207,2.915-.228.294-.487.792-.908.5-.37-.255-.124-.747.019-1.114,2.144-5.507,5.981-9.152,11.835-10.342,2.869-.583,5.977-.212,8.049,1.745a14.1,14.1,0,0,0,5.294,3.205c3.558,1.23,6.941,2.864,10.356,4.431,5.558,2.549,10.55,6.056,15.754,9.207.955.578,1.849,1.27,3.092.909s2.368-.381,3.211.918c.284.438,3.318.207,3.391-.175.2-1.064-1.078-.947-1.44-1.607-.193-.352-.434-.678-.653-1.016l-.071.079c1.324.266,1.956-.129,1.567-1.584-1.283-4.8-1.979-9.763-4.154-14.3-.176-.367-.385-.791-.12-1.141.434-.574.9-.133,1.337.082.182.089.352.2.526.308,5.262,3.207,10.475,6.5,16.186,8.9a5.03,5.03,0,0,1,1.867,1.528c2.315,2.954,4.856,5.756,6.74,9.019,9.734,16.858,18.31,34.162,21.114,53.765.847,5.921,2.2,11.776,2.532,17.764.632,11.532-.8,22.9-2.884,34.214-2.328,12.667-5.794,25.077-8.534,37.651-2.065,9.48-3.3,19-2.21,28.71.305,2.724.461,5.466.805,8.184.61,4.83,1.321,9.648,2.4,14.4a8.564,8.564,0,0,0,.283.836c.47-.192.337-.635.346-.966.146-5.471-.262-10.931.485-16.418.833-6.124,1.037-12.328,2.207-18.426a219.528,219.528,0,0,1,8.484-30.141c3.573-10.353,7.477-20.59,10.422-31.159,3.9-14,5.134-28.152,2.569-42.491a173.775,173.775,0,0,0-17.632-51.629c-3.839-7.188-8.1-14.089-14.263-19.6-3.122-2.794-6.661-4.185-10.89-3.529a21.04,21.04,0,0,1-15.559-3.835c-4.454-3.039-8.571-6.507-12.765-9.878-18.1-14.548-38.438-23.959-61.564-27.183a127.268,127.268,0,0,0-97.3,26.888A88.952,88.952,0,0,1,206.5,290.8a32.255,32.255,0,0,1-10.607,3.534c-4.209.642-8.318.12-12.431-.43a7.387,7.387,0,0,0-7.016,2.727,21.7,21.7,0,0,0-3.222,5.151c-1.5,3.219-2.991,6.442-4.347,9.72-12.152,29.375-21,59.606-23.674,91.441a75.409,75.409,0,0,0,.62,16.1,165.152,165.152,0,0,0,5.448,24.331c2.638,9.162,6.11,18.076,8.2,27.4,1.941,8.64,3.337,17.336,2.2,26.244a6.043,6.043,0,0,0,.112,3.449,8.3,8.3,0,0,0,.81-3.5c.185-1.506-.352-3.173.422-4.5a6.3,6.3,0,0,0,.78-3.474c-.093-8.283.057-16.555-1.83-24.741-1.112-4.827-1.338-9.852-2.233-14.738-2.362-12.88-4.9-25.713-5.32-38.876a178.371,178.371,0,0,1,.657-23.13,212.254,212.254,0,0,1,6.344-35.016c1.544-5.675,2.828-11.424,4.486-17.072.859-2.923,1.767-5.832,2.691-8.735.614-1.93,1.939-3.5,2.578-5.477a41.559,41.559,0,0,1,10.577-17.569c3.8-3.654,8.063-6.493,13.511-7.039,1.31-.131,2.607-.394,3.91-.589a21.463,21.463,0,0,0,6.226-2.383c.4-.194.893-.767,1.334-.2.258.332-.129.772-.385,1.039-1.778,1.86-2.748,4.265-4.277,6.288-2.832,3.749-3.533,8.362-5.087,12.621a2.8,2.8,0,0,0,1.084,3.517c1.2.744,2.354.544,3.833-.778,1.059-.947,2.022-2,3.078-2.954.4-.362.893-1.21,1.407-.7.384.382-.381,1.034-.708,1.506-.519.748-1.2,1.389-1.682,2.157-.382.609-.1.974.646.805.445-.1.99-.65,1.273.069.206.519-.335.9-.683,1.258-.794.816-2.159,1.21-2,2.725,1.224-.359,1.907-1.409,2.761-2.219a133.646,133.646,0,0,1,20-15.4Zm64.765,152.384v-.03c-2.844,0-5.692-.077-8.533.02-3.342.115-6.992-.064-9.744,1.8-2.948,2-6.225,2.067-9.333,3.052-1.162.368-2.339.7-3.479,1.127a21.258,21.258,0,0,0-11.122,9.05,10.778,10.778,0,0,0-1.632,6.395c.144,2.158,1.05,3.111,3.222,3.248a27.558,27.558,0,0,0,5.123-.661c4.325-.533,8.587-1.439,12.962-1.748,4.156-.293,8.357-.025,12.458-.643,7.1-1.069,14.15-.566,21.227-.085,2.43.165,4.91.474,7.275-.135a11.037,11.037,0,0,1,4.138-.4c3.166.351,5.086-1.317,5.546-4.594a5.005,5.005,0,0,1,.921-2.521c1.392-1.8,1.391-1.9,0-3.523-2.818-3.287-6.6-4.977-10.6-6.293a59.777,59.777,0,0,0-7.41-1.726c-1.239-.239-.97-.675-.178-1.235.228-.162.529-.492.5-.7-.082-.548-.621-.385-.979-.387C305.42,451.718,301.966,451.725,298.512,451.725Zm-5.478,121.067c3.286.234,6.886-.438,10.5-.905a3.2,3.2,0,0,0,1.932-.654c1.814-2.249,1.779-2.249,2.72-2.618a37.8,37.8,0,0,0,8.053-4.247,17.9,17.9,0,0,0,4.8-4.614c1.45-2.188,1.045-3.767-1.195-5.048a11.655,11.655,0,0,0-1.66-.753c-6.378-2.408-13.075-2.632-19.769-2.874a1.44,1.44,0,0,0-1.707,1.62c0,1.318-.016,2.637-.052,3.955a9.638,9.638,0,0,1-.175,1.186c-.368-.272-.256-.693-.311-1.053-.168-1.1-.286-2.213-.462-3.314-.346-2.155-.566-2.353-2.768-1.911-2.881.579-5.717,1.406-8.612,1.887-9.247,1.535-18,.437-25.784-5.264-.409-.3-.819-.6-1.243-.874a1.16,1.16,0,0,0-1.4.149,1.136,1.136,0,0,0-.509,1.313,8.25,8.25,0,0,0,.552,1.415c5.376,10.718,13.012,18.748,25.243,21.431A49.547,49.547,0,0,0,293.034,572.792ZM108.239,522.128c5.361-.024,8.245-1.234,11.1-4.579a13.065,13.065,0,0,0,3.118-9.9c-.861-10.634-5.87-19.357-13.17-26.725-5.408-5.458-10.551-3.423-13.81,2.476a12.035,12.035,0,0,0-1.162,2.8A32.171,32.171,0,0,0,93.3,497.053c.582,6.655,2.893,12.84,4.913,19.113,1.337,4.149,4.252,5.99,8.5,5.962C107.223,522.125,107.731,522.128,108.239,522.128Zm384.208-24.577a61.741,61.741,0,0,0-1.318-14.2,16.17,16.17,0,0,0-2.28-5.93c-1.379-2.084-2.354-2.226-4.029-.434-1.592,1.7-3.009,3.567-4.537,5.331-3.456,3.989-7.031,7.879-10.371,11.962a30.621,30.621,0,0,0-6.336,11.692,12.43,12.43,0,0,0,7.392,14.983c6.946,2.846,12.2,1.375,16-4.331a29.869,29.869,0,0,0,2.366-4.252A40.562,40.562,0,0,0,492.447,497.551Zm17.285-28.608a35.691,35.691,0,0,0,.589,8.075c.692,5.473,2,10.761,5.461,15.282a5.15,5.15,0,0,1,1.345,3c.01,1.116.53,1.887,1.6,1.756,1.168-.143,2.612.078,3.236-1.459a74.929,74.929,0,0,0,5.308-18.628c.14-1.085.05-2.225.741-3.182.945.883.291,2.025.483,3.031a3.024,3.024,0,0,1,0,.911c-.154,1.258.072,2.169,1.6,2.345,1.647.188,2.653,1.4,3.566,2.63a22.071,22.071,0,0,1,3.179,6.2,52.1,52.1,0,0,1,2.568,13.7c.019.349-.116.776.334.991a7.191,7.191,0,0,0,.3-.825,38.413,38.413,0,0,0,1-12.666c-.878-8.375-3.625-16.169-7.2-23.715a23.354,23.354,0,0,0-3.278-5.1c-2.849-3.372-5.948-4.165-10.045-2.582a34.766,34.766,0,0,0-8.394,4.849C510.226,464.993,508.747,466.517,509.732,468.943Zm-24.967-9.428a14.323,14.323,0,0,0-10.884,5.816c-1.846,2.394-3.512,4.964-5.368,7.305-3.387,4.274-6.969,8.429-10.759,12.389-4.7,4.913-9.665,9.581-14.03,14.817a46.005,46.005,0,0,0-8.289,13.381,29.328,29.328,0,0,0-1.37,5.6c-.129.812-.449,1.958.9,2.18,1.015.167,1.406-.567,1.612-1.438a11.256,11.256,0,0,1,.406-1.147,46.462,46.462,0,0,1,7.173-13.008c5.164-6.646,10.486-13.161,15.905-19.6,1.365-1.622,2.88-3.118,4.351-4.649.176-.184.6-.379.747-.293.31.181.1.523-.045.772-.259.436-.516.877-.816,1.284a46.239,46.239,0,0,0-5.251,9.933,24.326,24.326,0,0,0-1.6,7.412,1.276,1.276,0,0,0,.589,1.315c.543.293.984-.055,1.354-.384.68-.606,1.3-1.278,1.977-1.888.206-.186.537-.352.786-.07.084.095.015.37-.044.542a26.137,26.137,0,0,0-1.327,5.3c-.045.362-.136.789.26,1.068a6.526,6.526,0,0,0,.39-.786c2.362-6.875,6.663-12.469,11.566-17.694,3.193-3.4,6.552-6.678,9.27-10.487,1.665-2.334,3.949-4.24,4.6-7.329.335-1.6,2.449-2.027,3.514-3.2.782-.859,1.123-.631,1.558.077a23.03,23.03,0,0,1,2.349,4.935c1.192,3.667,2.348,7.346,3.527,11.018a7.1,7.1,0,0,0,.372.8c.457-.23.312-.67.269-1-.738-5.646-1.784-11.224-4.2-16.431a16.45,16.45,0,0,0-2.2-3.27C490.2,460.5,487.647,459.665,484.765,459.515ZM44.917,497.061c0,1.218-.008,2.435.009,3.653,0,.19.089.524.182.541.366.067.409-.278.517-.532a23.069,23.069,0,0,0,1.664-9.527c-.155-7.762,2.764-14.453,6.835-20.778a16.654,16.654,0,0,1,3.771-4.353.919.919,0,0,1,1.112-.15c.442.3.276.742.07,1.081-2.9,4.761-2.686,10.1-2.867,15.364-.01.272-.156.62.229.712.144.035.363-.149.515-.272.315-.255.587-.568.914-.8,3.095-2.226,6.048-1.638,7.968,1.6a13.2,13.2,0,0,1,1.088,2.172,2.78,2.78,0,0,0,2.559,1.787c4.542.748,8.957-3.012,10.363-6.8a7.8,7.8,0,0,1,2.793-4.1,8.954,8.954,0,0,0,3.327-4.133,11.933,11.933,0,0,1,2.056-3.694c.821-.958.714-1.409-.122-2.189a31.655,31.655,0,0,0-11.645-7c-7.082-2.355-13.389-1.061-18.663,4.451a35.326,35.326,0,0,0-3.707,4.428A49.737,49.737,0,0,0,44.917,497.061Zm8.465,7.446c-.158,5.741.9,11.15,4.377,15.857,3.288,4.45,7.859,6.248,13.273,6.034a6.959,6.959,0,0,0,5.761-3.479c.844-1.308,1.039-2.371-.178-3.742a34.189,34.189,0,0,1-7.05-12.681,96.76,96.76,0,0,1-3.216-14.223,38.566,38.566,0,0,0-1.394-6.852c-1-2.891-3.454-3.395-5.661-1.243a11.123,11.123,0,0,0-1.94,2.713C54.355,492.392,53.5,498.369,53.382,504.507Zm483.558-1.65c-.474-4.859-.983-9.8-2.6-14.537a17.23,17.23,0,0,0-2.82-5.355c-1.622-2-3.455-1.68-4.3.684-.307.856-.5,1.752-.731,2.634a118,118,0,0,1-6.694,19.185c-2.043,4.494-3.884,9.153-7.567,12.7-1.119,1.078-.966,2.333-.333,3.633,1.4,2.868,4.294,4.36,7.89,3.879a16.7,16.7,0,0,0,9.727-4.6C534.614,516.1,536.5,509.829,536.94,502.857Zm-95.71,28.062h27.091c.608,0,1.218.02,1.825-.009.373-.017.886.047.923-.484.016-.223-.259-.529-.479-.7a31.97,31.97,0,0,1-4.337-4.258,6.189,6.189,0,0,0-5.084-2.132c-17.248.066-34.5.031-51.745.029-.71,0-1.422-.009-2.129.042-.844.061-1.033.615-.648,1.245.845,1.383,1.855,2.668,2.656,4.073a4.23,4.23,0,0,0,4.229,2.235C422.764,530.864,432,530.918,441.23,530.919ZM26.161,501.647c0,1.116-.029,2.234.006,3.35a18.714,18.714,0,0,0,5.258,12.943,11.551,11.551,0,0,0,9.962,3.523c1.954-.2,2.491-.961,2.133-2.848-.169-.893-.528-1.748-.74-2.634-1.7-7.089-4.3-13.943-5.465-21.171-.341-2.107-.1-4.267-.69-6.347-.409-1.448-.64-1.541-1.7-.578a14.038,14.038,0,0,0-3.168,5.123c-.113.263-.353.528-.682.4-.11-.043-.173-.366-.155-.55a22.811,22.811,0,0,1,.346-2.707,11.9,11.9,0,0,0,.3-3.323c-.023-.385-.03-.839-.491-.994-.445-.15-.777.154-1.066.427a6.267,6.267,0,0,0-1.868,3.417C27.37,493.646,25.969,497.514,26.161,501.647Zm520.353-39.016a22.968,22.968,0,0,0-2.637.742,26.424,26.424,0,0,0-5.541,3.155c-.4.284-1,.716-.986,1.054.043.907.911.478,1.437.61a3.912,3.912,0,0,1,2.246,1.951c1.264,1.961,2.555,3.915,3.66,5.966,2.872,5.33,4.2,11.195,5.683,17,.2.786.152,1.919.66,2.292,2,1.47,1.035,3.062.491,4.691q-.773,2.311-1.525,4.63c-.122.377-.342.922.1,1.078.35.124.654-.383.851-.744a24.113,24.113,0,0,0,2.939-11.983,27.833,27.833,0,0,1,1.808-11.033c.574-1.394.742-2.961,1.736-4.179,1.459,1.124,1.726,2.846,2.227,4.448.71,2.276,1.088,4.757,3.769,5.759.332.124.209.76.682.862a5.528,5.528,0,0,0-.013-1.187,57.7,57.7,0,0,0-5.921-15.906,24.554,24.554,0,0,0-4.818-6.245A11.42,11.42,0,0,0,546.514,462.631Zm-35.805-3.713c-.088-.323-.257-.905-.406-1.493-3.092-12.185-6.376-24.313-10.432-36.223-6.652-19.536-15.6-37.852-28.379-54.178-6.774-8.657-14.42-16.513-22.156-24.287-.7-.708-1.138-1.856-2.408-1.864.13,1.228,1.168,1.832,1.9,2.6a216.138,216.138,0,0,1,32.123,44.231c11.114,20.084,18.963,41.48,25.541,63.391.846,2.819,1.715,5.631,2.573,8.447.124.407.346.809.8.727C510.389,460.177,510.748,459.8,510.709,458.918ZM43.673,465.84c-5.2.033-11.916,4.531-13.463,8.9a2.311,2.311,0,0,0-.055.538c.173-.042.4-.03.51-.136.665-.625,1.266-1.322,1.961-1.912,1.054-.894,2.334-2.456,3.509-1.735.861.528-.609,2.067-1.031,3.155-1.365,3.523-2.508,7.077-1.911,10.939.077.5-.232,1.421.86.555,1.894-1.5,2.574-1.325,3.567.748a9.014,9.014,0,0,1,.679,2.64q.6,4.06,1.324,8.1a8.069,8.069,0,0,0,.7,1.657c.683-.337.372-1.017.5-1.533.773-3.06.7-6.25,1.324-9.325,1.451-7.1,3.59-13.952,7.7-20.03.676-1,.352-1.36-.657-1.71A22.724,22.724,0,0,0,43.673,465.84ZM561.3,501.714c-.389-4.136-.536-8.3-1.625-12.347-.21-.781-.467-1.553-.748-2.312-.288-.78-.656-1.555-1.687-1.425-.918.115-1.341.742-1.571,1.618a27.244,27.244,0,0,0-.486,6.055c-.329,9.308-3.053,17.532-10.64,23.555-.417.331-.755.619-.7,1.221a3.829,3.829,0,0,0,3.876,3.474,10.087,10.087,0,0,0,8.939-4.891A30.914,30.914,0,0,0,561.3,501.714ZM369.892,387.531a19.116,19.116,0,0,0,6.035-.752,15.7,15.7,0,0,0,5.236-2.38c7.155-4.937,11.223-17.567,8.385-25.649a9,9,0,0,0-1.294-2.727,1.885,1.885,0,0,0-.477-.316c-.073.185-.224.376-.207.552.1,1.007.231,2.012.357,3.017C388.97,367.613,385.365,377.263,375,381c-8.077,2.916-18.815.961-24.246-8.106-.261-.435-.529-.866-.785-1.3-.145-.247-.307-.618-.6-.464-.173.091-.264.555-.215.818a17.043,17.043,0,0,0,4.923,9.547C358.517,385.729,363.968,387.248,369.892,387.531Zm-283,35.444c.257-.534.56-1.057.77-1.614A177.08,177.08,0,0,1,98.11,398.368a140.007,140.007,0,0,1,15.172-22.79c7.908-9.422,16.707-18.014,25.415-26.684,5.038-5.016,10.013-10.094,14.69-15.454.25-.286.645-.695.365-1.028-.371-.442-.69.088-.94.323-1.037.972-2.03,1.991-3.063,2.967-8.049,7.6-16.192,15.1-24.137,22.807a149.927,149.927,0,0,0-38.5,61.61c-.221.672-.437,1.349-.614,2.034A.662.662,0,0,0,86.888,422.975ZM393.823,523.359v.007c-3.239,0-6.48-.045-9.718.021-1.468.029-1.687.5-.8,1.592,1.335,1.651,2.758,3.231,4.152,4.833a2.666,2.666,0,0,0,2.087,1.056c6.277,0,12.554.018,18.83.018.706,0,1.254-.245.741-1.067a41.023,41.023,0,0,0-3.531-5.287,3.475,3.475,0,0,0-2.951-1.192C399.7,523.4,396.759,523.359,393.823,523.359ZM367.544,380c.516,0,1.228.019,1.937-.008a11.048,11.048,0,0,0,1.18-.165c-.305-.359-.739-.251-1.125-.305-.5-.07-1-.121-1.494-.18.463-.454,1.054-.222,1.577-.257,2.753-.183,5.459-.506,7.873-2.009a4.821,4.821,0,0,0,2.154-2.822c.489-1.612-1.24-2.721-.861-4.306.059-.246-.49-.226-.755-.065-.433.263-.85.553-1.265.843-4.472,3.118-9.16,3.583-14.066,1.114a10.661,10.661,0,0,0-3.786-1.059c-2.443-.247-3.534,1.018-2.672,3.248.983,2.544,2.443,4.627,5.41,5.22A19.918,19.918,0,0,0,367.544,380ZM577.4,498.9a51.039,51.039,0,0,0-6.566-21.4,13.131,13.131,0,0,0-3.628-4.053,8.642,8.642,0,0,0-4.5-1.666c-.516-.038-1.056.068-1.228.657-.184.631,1.044,2.3,1.64,2.063,1.224-.484,1.7.364,2.3.959a23.082,23.082,0,0,1,4.375,6.9c.4.864,1.027,2.059-.852.861-.522-.333-.942.217-.936.8a9.643,9.643,0,0,0,.2,2.421c.588,2.142,1.437,4.208,1.384,6.5a2.81,2.81,0,0,0,.866,1.556c.639.736,1.248.56,1.609-.31a8.544,8.544,0,0,0,.241-1.185,7.185,7.185,0,0,1,.3-.808,5.3,5.3,0,0,1,.207.853,12.519,12.519,0,0,1-.145,4.541c-.391,1.31-.156,2.019,1.231,2.456,1.058.333,1.223,1.47,1.62,2.416.357.852-.071,1.981.915,2.588a28.387,28.387,0,0,0,.8-2.895A29.69,29.69,0,0,0,577.4,498.9ZM92.609,530.967v.09c3.757,0,7.513.007,11.269-.015a.984.984,0,0,0,.747-.359c.195-.36-.176-.482-.458-.588a12.327,12.327,0,0,1-5.578-4.536,4.1,4.1,0,0,0-3.666-1.73c-2.333.049-4.669.084-7,.015a4.426,4.426,0,0,0-4.093,2.123c-.91,1.336-1.979,2.565-2.974,3.844-.176.226-.5.493-.47.693.081.486.566.459.955.46Q86.974,530.972,92.609,530.967ZM376.31,345.9a5.9,5.9,0,0,0-5.926,5.679,6.341,6.341,0,0,0,6.758,6.267c3.4-.108,5.941-2.524,5.939-5.651A6.4,6.4,0,0,0,376.31,345.9ZM507.02,530.911v-.024c2.433,0,4.866.01,7.3-.009.469,0,1.123.152,1.3-.438.155-.532-.353-.939-.739-1.23a20.829,20.829,0,0,1-3.72-3.992c-.44-.561-.795-1.2-1.628-1.2-1.824.008-3.648.014-5.472.052a1.438,1.438,0,0,0-1.268.717,27.141,27.141,0,0,1-3.89,5.041c-.7.751-.259,1.067.519,1.075C501.951,530.927,504.485,530.911,507.02,530.911Zm-298.073-.025v.05c2.223,0,4.446,0,6.669,0,.381,0,.869.073,1.032-.354.169-.444-.306-.693-.539-1q-1.653-2.166-3.325-4.317c-1.778-2.3-2.743-2.633-5.015-1.042-2.307,1.615-4.381,3.561-6.552,5.369-.32.266-.58.649-.375,1.031.1.184.541.252.829.255C204.1,530.894,206.521,530.886,208.947,530.886Zm365.442-23.511a11,11,0,0,0-.65-4.169c-.168-.344-.165-.85-.631-.9-.482-.05-.677.371-.762.777a32.411,32.411,0,0,1-5.493,11.693,4.471,4.471,0,0,0-.88,1.906c-.088.641.181.821,1.117.371.727-.35.689.174.627.454a15.749,15.749,0,0,1-.624,1.692.706.706,0,0,0,0,.548c.246.327.568.141.775-.053A20.127,20.127,0,0,0,574.389,507.375ZM359.481,357.551a3.9,3.9,0,0,0-3.9,4.109,3.7,3.7,0,0,0,3.817,3.773c2.507-.052,4.428-1.653,4.387-3.655A4.446,4.446,0,0,0,359.481,357.551Zm138.511,147a14.756,14.756,0,0,0-.348-4.105c-.251-.881.39-2.3-1.123-2.433-1.493-.133-1.527,1.369-2.042,2.291a1.247,1.247,0,0,0-.089.291c-1.042,3.984-.338,7.839.893,11.648.087.269.342.679.529.684.483.014.511-.507.646-.855C497.418,509.6,498.291,507.106,497.992,504.552ZM52.684,530.913v.068c1.823,0,3.646.011,5.468-.012a1.178,1.178,0,0,0,.816-.272c.2-.24-.047-.494-.286-.7a28.262,28.262,0,0,1-3.534-4.122c-1.528-1.948-1.893-1.955-3.511-.222a17.968,17.968,0,0,1-5.069,4.281c-.276.135-.606.364-.458.651.1.2.523.311.8.315C48.836,530.926,50.76,530.913,52.684,530.913Zm325.331-30.042a.554.554,0,0,0-.609.453.985.985,0,0,0,.3.78c.654.473,1.362.873,2.06,1.284,6.741,3.963,13.476,7.933,18.88,13.735.24.257.53.772.905.5.456-.334,0-.728-.241-1-5.649-6.346-11.928-11.882-19.8-15.378A2.578,2.578,0,0,0,378.015,500.871Zm-162.539-.914c-.552-.7-1.04-.143-1.56.078-9.445,4.022-16.4,11.048-22.712,18.843a6.424,6.424,0,0,0-.48.768c-.131.218-.095.442.14.514a.582.582,0,0,0,.48-.147c.429-.43.839-.881,1.232-1.345a70.009,70.009,0,0,1,18.107-15.18c1.4-.82,2.762-1.7,4.135-2.558A1.256,1.256,0,0,0,215.476,499.957ZM90.32,513.887c.074.648.122,1.356.244,2.051s.318,1.488,1.1,1.654c.676.144,1.028-.557,1.4-1.011,2.045-2.535,2.137-5.319.985-8.244a8.038,8.038,0,0,0-1.39-2.655c-.422.688.321,1.581-.4,2.225a2.263,2.263,0,0,0-.594.68A13.49,13.49,0,0,0,90.32,513.887Zm-69.747-9.328c0,.4-.019.806.006,1.208.017.285.042.631.441.632a.7.7,0,0,0,.518-.223c2.444-3.5,4.595-7.12,4.456-11.611-.009-.289-.021-.736-.19-.832-.434-.247-.688.2-.939.472A15.3,15.3,0,0,0,20.573,504.559ZM381.1,530.87c1.764,0,3.18.04,4.591-.015.882-.034.983-.566.5-1.2-.732-.963-1.5-1.9-2.267-2.836-2.191-2.664-2.214-2.677-4.438.062-.937,1.154-2.994,2.461-2.474,3.481C377.687,531.692,379.917,530.594,381.1,530.87ZM50.517,501.06c0-1.067.021-1.673-.007-2.278-.019-.379.009-.866-.455-.989s-.728.264-.917.627a42.562,42.562,0,0,0-3.247,6.5,5.881,5.881,0,0,0-.316,2.677c.069.484.041,1.081.614,1.276a1.2,1.2,0,0,0,1.3-.557C49.339,506.075,50.64,503.612,50.517,501.06Zm221.563,1.02a3.54,3.54,0,0,0-1.913-2.117c-2.211-1.269-4.52-.841-6.814-.28-.312.076-.873-.084-.85.47.006.154.474.353.757.422a31.987,31.987,0,0,1,7.447,2.6C271.725,503.71,271.918,502.97,272.08,502.08Zm-17.512,26.256c.73.04,1.233.094,1.735.087.537-.008,1.353.555,1.532-.294.21-.992-.8-.981-1.431-1.151a29.624,29.624,0,0,0-6.546-1.052,7.446,7.446,0,0,0-1.78.16.93.93,0,0,0-.74.85c-.017.539.491.572.874.613C250.41,527.785,252.557,528.45,254.568,528.336Zm-7.848,22.416c-.161-.158-.27-.357-.423-.4a9.219,9.219,0,0,1-4.662-3.633c-.115-.148-.39-.34-.5-.294-.364.155-.191.482-.094.732.868,2.242,1.722,4.49,2.637,6.712.361.878.809.642,1.2-.042.45-.779.931-1.54,1.4-2.311C246.431,551.262,246.575,551,246.72,550.752Zm-155.508-51.6a12.231,12.231,0,0,0-.753-4.052,9.774,9.774,0,0,0-1.443,3.422,8.925,8.925,0,0,0-.346,1.79c-.169,1.316-.819,2.64.024,3.95,1.152-.916,1.629-2.289,2.292-3.518A4.256,4.256,0,0,0,91.212,499.156Zm428.074,3.6c-.047-.086-.088-.239-.143-.244-.154-.014-.407-.023-.457.062q-2.61,4.45-5.173,8.93c-.073.128.039.362.065.546.173-.049.4-.044.509-.156a29.568,29.568,0,0,0,5.194-8.836A.822.822,0,0,0,519.286,502.753Z"/><path d="M225.994,303.364c-.492-.05-.812-.276-.529-.785a5.18,5.18,0,0,1,2.125-1.675q7.54-4.563,15.123-9.051c1.51-.893,3.018-1.717,3.061-3.782a1.435,1.435,0,0,1,1.062-1.316,23.748,23.748,0,0,1,8.773-2.269,7.793,7.793,0,0,1,3.833.777,27.106,27.106,0,0,1,6.467,4.494c.263.251.738.6.4.951-.313.33-.715-.119-1.038-.307-.875-.51-1.76-1.01-2.595-1.582-4.029-2.761-8.069-2.4-11.915.214-4.536,3.083-9.566,5.264-14.223,8.113-1.02.623-2.282.93-2.795,2.195Z"/><path d="M222.456,421.673c-.2,2.2.3,4.706.486,7.234.029.4.055.991-.335,1.087-.676.166-.743-.511-.887-.973a63.167,63.167,0,0,1-1.834-8.942,50.867,50.867,0,0,0-15.84-29.819c-2.847-2.695-6.319-3.967-9.651-5.638-1.085-.544-2.272-.882-3.38-1.386-.912-.414-2.5-.568-1.091-2.2.11-.127-.044-.594-.2-.82-1.209-1.782-.425-3.543.118-5.249a28.751,28.751,0,0,1,1.7-3.907,39.307,39.307,0,0,0,3.5-13.144,67.728,67.728,0,0,1,6.379-22.77c3.13-6.277,8.011-10.974,13.771-14.741,8.263-5.4,17.185-9.618,26.055-13.906.808-.39,1.754-.483,2.6-.8a2.689,2.689,0,0,1,2.753.592c5.657,3.953,8.732,9.7,11.3,15.831.274.654.426,1.358.693,2.016.955,2.351,2.308,2.861,4.531,1.735,3.309-1.675,4.182-3.366,3.642-7.127-.145-1-.361-2-.545-3-.173-.949-.747-1.859.548-2.65.935-.572.013-1.445-.186-2.174-.172-.632-.19-1.3.515-1.543.761-.268,1.07.434,1.308.959a14.648,14.648,0,0,1,.649,2.011c1.607,5.558,2.7,11.255,4.592,16.737a15.459,15.459,0,0,0,3.57,6.289c1.944,1.913,2.206,4.484,2.477,7.023.041.382,0,.914.482.967s.579-.474.691-.843a91.662,91.662,0,0,0,2.458-10.049c.166-.9.328-1.8.518-2.692.1-.461.01-1.27.547-1.235.78.05.669.926.633,1.473-.171,2.531-.318,5.069-.65,7.581a114.207,114.207,0,0,1-10.963,35.014c-1.95,4.017-3.566,8.179-6.448,11.7a68.6,68.6,0,0,1-5.451,5.736c-5.916,5.726-11.5,11.759-16.846,18.017-1.977,2.314-4.319,4.3-6.069,6.822-.2.3-.747.655-.981.57-.544-.2-.147-.677-.018-1.012.371-.957-.289-1.434-.952-1.583-2.539-.572-5.205-.747-7.242,1.088a4.725,4.725,0,0,1-4.651,1.3c-1.794-.389-2.177-.007-2.284,1.8C222.389,418.471,222.456,419.9,222.456,421.673Zm-16.634-55.49c0,.711-.024,1.422,0,2.131.305,7.739,5.259,14.788,12.374,17.233a24.575,24.575,0,0,0,22.37-2.818,17.479,17.479,0,0,0,6.738-7.664c.183-.423.451-1.064-.1-1.343-.418-.211-.607.414-.858.7a22.477,22.477,0,0,1-6.44,5.026c-11.25,5.924-25.316,1.3-29.149-11.8a22.619,22.619,0,0,1,.792-15.442c.133-.32.475-.722-.053-.934-.141-.057-.526.287-.689.523C207.828,356.131,205.737,360.783,205.822,366.183Zm23.844,13.85c.949,0,1.458.02,1.964,0a18.144,18.144,0,0,0,10.039-3.934c2.368-1.735,1.881-4.594,2.97-6.824.478-.979-.086-1.584-1.22-1.274a15.253,15.253,0,0,0-4.475,1.864c-4.863,3.2-9.934,3.882-15.262,1.174a5.987,5.987,0,0,0-3.826-.72c-1.76.317-2.4,1.412-1.813,3.092A8.927,8.927,0,0,0,220.3,376.6c1.572,1.616,3.769,1.947,5.616,2.983C227.179,380.3,228.693,380,229.666,380.033Zm12.439-28.606a6.62,6.62,0,0,0-6.688-6.463,6.075,6.075,0,0,0-5.658,5.731A6.649,6.649,0,0,0,235.993,357C239.084,357.02,242.132,354.239,242.105,351.427Zm-16.635,5.179a3.992,3.992,0,0,0-4.381-3.959,4.152,4.152,0,0,0-3.845,4.241,3.578,3.578,0,0,0,3.86,3.707C223.72,360.569,225.516,358.927,225.47,356.606Zm17.178,2.207c-1.311-.084-3.207,1.506-3.244,2.718a3.37,3.37,0,0,0,2.945,2.985,2.875,2.875,0,0,0,2.594-2.536C245.053,360.6,243.809,358.887,242.648,358.813Z"/><path d="M297.363,334.493a152.437,152.437,0,0,0-1.688-22.441c-.422-3.217-.753-6.442-1.32-9.642a46.024,46.024,0,0,0-7.876-19.6c-.745-1.019-1.736-2.054-1.1-3.584.522-1.265,1.27-1.576,2.262-.6,3.795,3.73,7,7.871,8.532,13.083,1.29,4.38,2.554,8.768,3.874,13.139.182.6.149,1.6,1.164,1.483.686-.077.791-.83,1.023-1.39a66.923,66.923,0,0,1,7.47-13.922,33.127,33.127,0,0,1,6.181-6.275c.635-.511,1.414-1.689,2.19-.993.448.4-.747,1.237-1.3,1.772a34.409,34.409,0,0,0-7.824,12.217,147.6,147.6,0,0,0-6.637,22.765c-1.587,7.131-2.738,14.348-3.712,21.591a8.907,8.907,0,0,1-.174,1.2c-.128.458-.093,1.095-.763,1.123a2.325,2.325,0,0,1-.287-1.092C297.352,340.384,297.363,337.439,297.363,334.493Z"/><path d="M278.88,298.107c-.12.14-.227.378-.36.393a.62.62,0,0,1-.5-.247c-.359-.612-.66-1.258-1-1.882a41.445,41.445,0,0,0-11.336-13.363c-5.271-4.028-10.865-4.922-16.765-1.7-8.816,4.819-17.686,9.582-25.633,15.8-2.947,2.306-5.679,4.885-8.519,7.328a8.3,8.3,0,0,1-.987.641c-.361-.627.225-.9.515-1.225a120.4,120.4,0,0,1,10.5-9.714c4.264-3.761,8.938-7,13.376-10.543a33.71,33.71,0,0,1,16.1-6.653c6.984-1.13,12.2,1.725,16.6,6.764,1.464,1.68,2.851,3.415,4.191,5.206,1.956,2.615,2.421,5.769,3.742,8.595A1.966,1.966,0,0,1,278.88,298.107Z"/><path d="M264.723,265.51a.964.964,0,0,1-.211.19,8.461,8.461,0,0,0-1.571.772c-.179.138,1.23.35.232.908a5.308,5.308,0,0,1-1.718.594c-4.7.745-8.727,3.2-12.852,5.264a145.892,145.892,0,0,0-24.777,15.33c-1.2.936-2.32,1.964-3.485,2.938-.3.252-.717.665-1.037.379-.539-.48.01-.944.334-1.252,5.405-5.138,10.3-10.758,17-14.53A103.955,103.955,0,0,1,260.322,266c1.269-.345,2.554-.638,3.839-.922C264.42,265.017,264.768,265.037,264.723,265.51Z"/><path d="M388.3,311.2c-2.092.038-3.593-1.324-5.163-2.353a133.052,133.052,0,0,0-25.518-13.393c-3.1-1.179-6.189-2.614-9.666-2.251-.89.092-1.354-.79-2.214-.859-.8-.063-2.245.15-1.986-1.127.195-.96,1.585-.622,2.429-.528a56.9,56.9,0,0,1,17.6,4.467c3.407,1.558,7.067,2.777,9.926,5.212,3.336,2.842,7.072,5.089,10.5,7.772,1.339,1.049,3.162,1.481,4.024,3.139Z"/><path d="M356.9,453.393a2.954,2.954,0,0,1-.487,1.789c-.293.5-.284,1.193-.9,1.5-.118-.485-.271-.966-.347-1.458a29.539,29.539,0,0,0-5.846-13.866c-.61-.785-1.559-2.028-.8-2.629,1.025-.809,1.637.715,2.213,1.406a26.979,26.979,0,0,1,6.072,12.717C356.844,453.052,356.876,453.252,356.9,453.393Z"/><path d="M239.932,491.83c-.029,2.407-2.04,3.559-4.041,2.436a2.972,2.972,0,0,1-1.371-1.564,5.087,5.087,0,0,1,.929-4.847,1.756,1.756,0,0,1,2.23-.342C239.362,488.5,239.7,490.206,239.932,491.83Z"/><path d="M226.765,518.071c-1.758.044-2.772-.8-2.815-2.35-.044-1.6.758-2.983,1.8-3.1,1.335-.152,3.218,1.743,3.316,3.337C229.145,517.293,228.342,518.032,226.765,518.071Z"/><path d="M365.353,486.385a2.579,2.579,0,0,1-2.514,2.152,2.919,2.919,0,0,1-2.762-2.656,2.647,2.647,0,0,1,2.388-2.617A4.216,4.216,0,0,1,365.353,486.385Z"/><path d="M236.34,506.951c1.629.014,2.987.852,3.062,1.891a2.273,2.273,0,0,1-2.591,2.311,2.52,2.52,0,0,1-2.7-2.312C234.11,507.628,234.921,506.94,236.34,506.951Z"/><path d="M246.665,514.082a2.266,2.266,0,0,1-2.24,2.021,3.006,3.006,0,0,1-3.1-2.685,1.788,1.788,0,0,1,1.947-1.858C244.658,511.485,246.6,512.969,246.665,514.082Z"/><path d="M95.534,476.865c-1.1-1.281-.85-3.605-3.1-3.992.025-.3.061-.6.074-.9a6.71,6.71,0,0,1,2.322-4.425c.383,1.457,1.116,2.928,1.058,4.368C95.823,473.549,96.771,475.313,95.534,476.865Z"/></svg>