<svg id="aa3b29c3-3bae-419e-b3ba-571f5ec7c0bb" data-name="Layer 1" xmlns="http://www.w3.org/2000/svg" viewBox="0 0 595.276 841.89" style="fill: #215342;" height="300" width="450" transform="translate(-65, -25)"><path d="M579.066,579.475c-3.206-15.54-11.914-25.776-27.781-29.266a4.608,4.608,0,0,1-2.148-.751c-7.164-6.94-16.594-11.02-22.836-19.264-16.944-22.381-49.117-22.864-67.029-6.766-3.131,2.814-6.229,5.663-9.656,8.782-4.606-8.135-9.89-16.487-14.192-25.318a98.762,98.762,0,0,0-20.888-28.3,34.4,34.4,0,0,1-7.43-11c-3.754-8.69-7.089-17.59-10.061-26.581-2.828-8.556-6.309-16.994-4.195-26.545,2.372-10.714,3.37-21.639,9.761-31.247a22.75,22.75,0,0,0,2.365-20.364c-2.613-7.562-1.177-14.8,1.646-21.664,1.575-3.833,3.609-7.375,3.8-11.63a23.952,23.952,0,0,1,.828-3.561,48.06,48.06,0,0,1,5.022,21.083c.326,19.551,5.451,37.43,18.241,52.649,7.343,8.738,15.486,16.546,26.552,20.321,10.174,3.471,17.359-2.327,15.564-12.731-1.247-7.231.384-13.407,5.316-18.434,5.826-5.939,12.076-11.479,18.332-16.975,11.433-10.045,22.7-20.391,29.069-34.466,8.56-18.927,12.6-39.152,14.746-59.742.651-6.252-1.892-11.338-6.968-14.954-3.436-2.447-7.085-4.615-10.741-6.732-7.642-4.427-15.758-8.16-22.942-13.224a156.487,156.487,0,0,0-38.784-20.034c-10.265-3.587-20.883-6.4-29.994-12.637-14.8-10.129-29.855-19.935-44.061-30.842-8.961-6.879-17.6-8.342-27.4-3.375a29.877,29.877,0,0,1-17.908,2.892c-3.414-.451-6.775-1.3-10.167-1.941-11.547-2.168-23.016-5.135-34.665-6.286-16.758-1.656-33.244,1.408-49.407,5.876-11.573,3.2-23.065,6.692-34.621,9.957-16.783,4.742-32.058,12.165-44.626,24.564-3.624,3.576-7.78,4.567-13.017,3.694-8.079-1.345-15.772.489-21.432,6.852-7.406,8.326-14.726,16.769-21.485,25.619-6.172,8.082-12.048,16.292-20.421,22.345-15.8,11.425-31.744,22.676-47.215,34.538a300.473,300.473,0,0,0-26.349,22.94A20.546,20.546,0,0,0,16.25,346.88c2.132,9.192,4.484,18.377,7.493,27.312,8.478,25.173,24.392,44.153,48.1,56.5a149.207,149.207,0,0,1,15.742,9.588c5.657,3.9,9.631,9.077,10.537,16.27a22.6,22.6,0,0,0,2.342,6.859c2.7,5.537,7.569,7.94,13.656,6.695,11.535-2.361,19.564-9.185,24.178-19.907,4.377-10.173,7.492-20.861,7.926-31.876.666-16.9.277-33.85.328-50.779.015-4.744,0-9.489,0-14.391,1.759,2.586,3.2,5.347,5.239,7.568,4.322,4.72,8.957,9.155,13.454,13.716,3.36,3.407,6,7.169,4.822,12.291-2.5,10.92.487,20.217,8.8,27.444,8.857,7.705,13.876,18.011,19.807,27.693a25.65,25.65,0,0,1,3.639,10.409c1.069,10.432,1.569,20.924,2.168,31.4.294,5.136-1.992,9.08-6.019,12.229a57.936,57.936,0,0,0-19.04,26.976,105.76,105.76,0,0,1-4.463,10.623c-2.019,4.184-4.314,8.235-6.621,12.593a15.291,15.291,0,0,1-2.144-1.946c-4.869-7.025-10.01-13.888-14.423-21.191-2.835-4.692-5.536-9.181-10.449-11.981-15.923-9.075-43.735-7.513-57.365,8.762-3.868,4.619-7.433,9.492-11.3,14.111-6.079,7.259-11.83,14.809-20.911,18.907A28.731,28.731,0,0,0,42.9,559.43c-17.374,18.71-19.083,49.267-8,71.721a41.754,41.754,0,0,1,2.2,6.831c2.389,8.185,4.623,16.419,7.239,24.53.431,1.334,2.491,2.143,3.8,3.2.944-1.507,2.505-2.933,2.717-4.537.6-4.567.463-9.23,1.037-13.8.178-1.418,1.615-2.738,2.632-3.975,1.256-1.529,2.676-2.923,3.788-4.121,4.408,10.264,6.322,23.553,22.835,22,.28.855.436,1.469.678,2.047,1.72,4.109,3.131,8.4,5.355,12.22.846,1.454,3.668,2.609,5.4,2.394,1.152-.143,2.643-2.893,2.808-4.59.41-4.2.066-8.46.2-12.692a7.2,7.2,0,0,1,1.021-3.956c2.12-2.776,4.574-5.3,7.441-8.534l2.107,4.96c.041-.174.223-.945.336-1.43,1.741,6.7,3.364,13.522,5.341,20.239a19.116,19.116,0,0,0,3.483,6.323,4.781,4.781,0,0,0,3.867,1.552c.9-.173,1.961-2.037,2.085-3.238a80.36,80.36,0,0,0,.028-8.446c-.012-3.927,0-7.854,0-12.058,11.862,2.343,19.039-3.875,24.059-13.627,1.905,4.985,3.483,9.694,5.551,14.178.634,1.376,2.608,2.134,3.969,3.174.715-1.409,1.881-2.761,2.066-4.237.732-5.85,1.027-11.755,1.787-17.6.2-1.53,1.117-3.611,2.336-4.265,10.805-5.8,14.731-17.084,20.962-26.413,1.548-2.317,6.294-6.2.188-9.892l.561-1.022H212.8l.048-1.569c-4.3-.47-8.6-1.056-12.912-1.378-4.85-.361-9.729-.36-14.568-.81-1.048-.1-1.979-1.445-2.964-2.217.988-.57,1.933-1.517,2.973-1.636a64.472,64.472,0,0,1,7.309-.189q96.511-.045,193.023-.069c14.117,0,28.234.09,42.35.181,3.26.02,3.26.1,3.87,2.85l-50.6,2.6a7.951,7.951,0,0,0,4.232.884c14.733.56,29.468,1.1,44.2,1.769,1.406.064,2.772.985,4.327,1.573-2.3,3.206-2.244,4.124-.709,6.316,2.566,3.665,5.183,7.318,7.425,11.182a33.548,33.548,0,0,0,15.46,13.825,4.85,4.85,0,0,1,2.361,3.142c.727,4.548.9,9.188,1.706,13.719.236,1.333,1.753,3.25,2.88,3.4,1.227.161,2.865-1.236,3.98-2.31a8.312,8.312,0,0,0,1.767-3.372c1.28-3.872,2.436-7.786,3.9-12.535,3.721,6.6,9.064,10.169,16.249,11.057-.84,2.2-1.521,3.589-1.9,5.055-.854,3.334-1.981,6.678-2.214,10.072-.279,4.042,1.916,5.262,5.287,3.072a22,22,0,0,0,6.191-5.641c3.568-5.2,6.66-10.732,9.905-16.063l5.1,4c-1.885,5.384-3.827,10.654-5.518,16-.325,1.025-.034,3.02.635,3.4a5.072,5.072,0,0,0,3.829-.1,8.318,8.318,0,0,0,3.328-2.525c2.936-3.708,5.63-7.609,8.574-11.31.959-1.206,2.279-2.649,3.644-2.92,9.142-1.817,16.021-6.547,20.4-14.836a32.223,32.223,0,0,1,1.918-2.865c2.895,1.414,3.086,3.662,2.5,6.247-.823,3.612-1.82,7.2-2.3,10.863-.206,1.562.7,3.269,1.1,4.911,1.707-.578,3.589-.88,5.067-1.818a8.881,8.881,0,0,0,2.913-3.526c2.708-5.494,5.208-11.09,7.87-16.607.636-1.318,1.335-2.873,2.466-3.636,4.252-2.87,6.686-6.91,8.564-11.529C580.905,602.093,581.428,590.927,579.066,579.475ZM47.721,661.518c-10.092-16.055-6.68-33.177-4.46-50.205l1.14-.143c.331,2.738.875,5.47.947,8.214.153,5.764-.212,11.551.14,17.3.348,5.7,1.338,11.356,2,17.037A36.526,36.526,0,0,1,47.721,661.518Zm15.984-59.593c-.733,6.535-1.493,13.067-2.49,19.581-3.134-10.886-.993-21.854-.629-32.828.8,9.794.8,9.794,3.33,9.807C63.848,599.636,63.833,600.786,63.705,601.925Zm22.342,39.461c4.267,10.431,3.006,21.181,4.759,31.393C85.42,665.372,82.306,645.5,86.047,641.386Zm27.772.639c3.112,9.478,1.144,18.963,2.678,28.091C111.836,664.107,110.3,645.679,113.819,642.025Zm24.095.142c-1.337-5.893-1.1-6.5,2.4-7.307.643-4.509,1.267-8.885,1.89-13.259-.107,4.886.016,9.794-.453,14.646C141.527,638.53,140.938,641.272,137.914,642.167Zm15.047,10.1c-4.917-7.4-5.853-39.205-.265-45.883C154.167,611.365,154.392,650.3,152.961,652.268Zm26.1-58.651c-.126,1.018-.342,2.025-.517,3.037l-.838-.6-3.352,4.739c-.02-.122-.132-.786-.365-2.169l-6.258,5.482-.458-1.7-.655-.156-3,13.4-.7-.023q.33-4.122.658-8.243l-.649-.1c-.169.535-.339,1.07-.448,1.414-6.18-.3-7.721-6.6-12.187-9.538l-2.116,2.657-.805-.192c.147-2.742.269-5.485.447-8.225.364-5.619,2.22-11.08-.119-16.9-1.528-3.8.68-7.561,2.8-11.092,1.626-2.71,2.3-5.985,3.482-8.975.364-.921,1.1-1.692,1.507-2.6.569-1.267.992-2.6,1.525-4.029-6.521-.9-7.537-.645-8.722,5.123-2.4,11.667-5.028,23.379-6.047,35.2-.75,8.7.907,17.615,1.5,26.584l-2.3-9.669-.708.03,1.443,14.036c-.539-2.48-1.16-4.923-1.626-7.395a38.38,38.38,0,0,1-.372-4.165c-5.659,6.016-3.565,13.567-3.844,20.711-.035.9-.042,1.8-.111,2.693a1.48,1.48,0,0,1-.673,1.093V630.75c-5.506,2.964-5.445,8.429-6.429,12.785l-1.478-8.588-.325-.008v4.574l-.577-.013V621.962l-1.4,5.15c-.719-1.728-1.157-2.778-1.939-4.659v14.264c.617-1.28.818-1.7,1.018-2.112l.843.092c-.448,3.781-.9,7.562-1.286,10.846h-3.117c-1.234-4.358-2.511-8.866-3.788-13.374l-.529.1c.094,1.218.188,2.436.307,3.981-.951-.627-1.7-1.5-2.543-1.608-3.132-.4-3.451-2.1-3.053-4.839a5.536,5.536,0,0,0-1.382-4.2c-5.965-5.683-7.25-12.439-6.033-20.349,1.047-6.807,1.16-13.757,1.714-20.641a6.983,6.983,0,0,1,1.208-3.683l.909,2.739c3.033-8.167,5.906-15.91,8.789-23.649.179-.478.64-.935.622-1.388-.071-1.8.362-4.616-.557-5.191-2.911-1.819-2.984,1.534-3.87,3.037-2.219,3.767-4.266,7.636-6.382,11.465l-.923-.392c3.08-8.571,6.161-17.142,9.481-26.379-5.152,4.793-7.878,10.282-10.682,15.834-3.708,7.343-4.94,15.338-7.256,23.062-4.6,15.344-4.794,31.011-5.482,46.707-.172,3.921-.383,7.84-.579,11.827-4.6-5.179-6.138-4.821-11.2,2.923l-2.942-7.883c-.487,2.976-.845,5.169-1.2,7.362l-.567-.06V629.586l-.737-.063c-.146.8-.291,1.606-.46,2.539-.547-2.468-1.075-4.846-1.6-7.225l-1.3.068-1.865,7.054c-.3-5.084-.559-9.62-.823-14.156l-1.056-.138-1.319,2.5-.373-.075q.876-5.07,1.747-10.124c2.252,3.6,4.4,7.035,6.674,10.664,4.009-6.471.423-10.9-2.618-15.2a17.6,17.6,0,0,1-2.937-7.663A89.167,89.167,0,0,1,67.009,586.8c-.19-3.611.59-6.81,3.721-9.616.388.868.653,1.463.921,2.061a7.5,7.5,0,0,0,4.176-8.594,6.315,6.315,0,0,1-.273-3.051c.944-3.71,2.084-7.369,3.349-11.731-7.116,2.135-11,7.458-15.632,12.882.231-6.069,2.722-9.01,7.2-11.08,5.927-2.741,11.817-5.745,15.841-11.228a54.835,54.835,0,0,0,2.815-4.944c-1.754.233-2.8.047-3.26.483-3.477,3.321-7.644,5.287-12.074,7.026-5.705,2.239-9.082,7.395-11.356,12.453-4.023,8.955-6.961,18.418-10.02,27.777-1.715,5.245-2.759,10.709-4.251,16.654l-4.028-5.786-4.955,9.745-.563-.188a33.08,33.08,0,0,0,.532-3.678c.108-3,2.025-5.953-.617-9.052-.862-1.011.271-3.647.342-5.546.086-2.323-.095-4.659.035-6.979.256-4.6.646-9.2,1.012-14.222l-1.542-.472A31.224,31.224,0,0,1,56.184,552.77c1.861-.707,4.312.257,6.49.245,3.363-.019,5.5-1.832,6.572-5.55-.75-.079-1.448-.2-2.148-.212-.6-.014-1.209.087-2.249.174,1.985-3.123,3.681-5.1,7.578-3.533,1.221.49,3.514-.859,4.946-1.883,4.827-3.456,9.407-7.256,14.237-10.706,3.506-2.5,7.349-1.295,11.127-.444a19.776,19.776,0,0,0,4.774.349c3.09-.072,6.34.256,9.223-.6a38.813,38.813,0,0,0,10.624-4.982c2.58-1.746,4.5-4.519,6.558-6.962a3.754,3.754,0,0,0,.749-2.689c-.065-.422-1.4-.921-2.16-.917-2.86.016-5.943-.391-8.512.545-2.28.83-3.989,3.231-6.233,5.184,0-1.509.018-3.066,0-4.623-.035-2.473-.969-2.982-3.361-2.013a82.3,82.3,0,0,1-9.088,2.706,1.241,1.241,0,0,1-1.056-.366c-2.286-2.933-4.594-1.115-6.564.2-3.322,2.219-6.429,4.762-9.587,7.219a86.792,86.792,0,0,1-9.213,6.642c7.916-12.228,17.195-22.7,33.16-23.317a105.251,105.251,0,0,1,17.219.934c10.266,1.306,17.633,7.186,21.675,16.458,3.93,9.014,9.782,16.4,16.235,23.629C178.787,561.258,181.132,576.917,179.062,593.617ZM112.285,467.2a6.116,6.116,0,0,1-7.337-2.8,34.682,34.682,0,0,1-4.2-9.366c-2.048-8.727-7.243-14.9-14.657-19.382-7.567-4.575-15.491-8.588-22.876-13.431-16.526-10.835-27.8-26.143-35-44.278a235.6,235.6,0,0,1-9.035-29.671c-1.871-7.463-.37-14.892,5.38-20.3,8.576-8.061,17.626-15.628,26.666-23.176,3.3-2.756,7.15-4.855,10.75-7.253,8.022-6.927,15.641-14.474,26.533-17.082l-3.749,4.894,2.838.664c-1.12,3.92-2.219,7.77-3.351,11.734l2.594.628c-.052.353-.078.717-.161,1.068-.991,4.222-3.838,9.109-2.605,12.524,2.584,7.152-2.81,12.007-3.236,18.13-.2,2.927-.808,4.907,1.983,5.355-.884,9.31-1.689,18.323-2.616,27.324-.438,4.246-3.556,5.654-6.89,3.073-2.333-1.806-4.4-3.954-7.494-6.775-1.684,5.2-3.146,9.718-4.608,14.235l1.046.446,1.128-1.358c.179,2.161,0,4.44.665,6.44.509,1.535,1.745,3.815,3.961,1.8q.983,1.986,2.521,5.1l1.506-2.414v4.581l1.751-1.227c.121.985.232,1.891.393,3.2l1.923-2.925c-.132,1.7-.218,2.821-.346,4.476l1.543-.921c.679,1.443,1.464,3.11,2.744,5.825l1.311-3.909c.079.129.27.3.27.461,0,1.935.39,1.565,2.9,4.245,1.508,1.614,1.556,4.593,2.261,6.959L85.42,405.3c-2.741-1.4-5.71-2.492-8.173-4.278-4.752-3.447-9.212-7.3-13.825-10.939-.246-.194-.844.116-1.182-.031-1.116-.486-2.747-.8-3.173-1.674-1.339-2.745-1.591-6.217-3.412-8.486-3.364-4.19-1.786-8.576-2.05-13.083-.21.546-.407,1.1-.635,1.638-.249.588-.525,1.165-.96,2.121v-3.338l-2.23,2.385c.075-1.066.152-2.169.229-3.271l-.569-.19-1.658,2.868C45,375.93,49.3,380.874,52.7,386v-2.818c.346.23.608.307.689.472,4.833,9.9,8.129,20.707,16.8,28.345a8.891,8.891,0,0,1,2.723,4.049,8.491,8.491,0,0,1-2.23-.945C62.446,408.29,53.464,402.3,47.3,393.236c-.964-1.416-2.986-2.066-4.2-3.367-4.267-4.569-5.975-10.224-6.27-16.411l-1.118.019c-.112,2.3-.379,4.612-.286,6.906a32.116,32.116,0,0,0,.927,5.292c.388,1.829.444,3.807,3.029,4.278.765.139,1.4,1.413,1.95,2.258,7.887,12.05,18.488,21.119,30.677,28.609C79.418,425.374,87,429.9,93.5,435.586a29.18,29.18,0,0,1,8.455,13.778c1.857,7.019,4.766,11.987,11.932,13.977a14.153,14.153,0,0,1,2.7,1.432C115.137,465.617,113.813,466.759,112.285,467.2Zm-22.2-94.99c-.118.718-.347,2.065-.556,3.414-.375,2.408-.167,5.252-3.995,2.3-2.75-2.12-4.739-6.056-3.683-9.544l2.7,2.138.8-1.035Zm19.661,9.561a41.234,41.234,0,0,1,.335-4.409l1.288.133c-.073,1.543-.146,3.086-.255,5.4l2-2.477c-.192,4.126-.372,8-.559,12.014l2.968.879q-1.028,27.505-2.064,55.275l.961-1.614.675.011c-.22,3.465-.312,6.946-.766,10.379a2.934,2.934,0,0,1-2.352,1.689,6.983,6.983,0,0,1-3.946-2.161c-.714-.964-.6-2.718-.481-4.092.63-7.529,1.6-15.036,2.02-22.575.516-9.211.772-18.446.823-27.672C110.428,395.626,109.935,388.7,109.746,381.773Zm6.889-99.257c-4.227,5.886-7.352,12.622-10.494,19.209a77.361,77.361,0,0,0-5.031,14.03c-.612,2.384.344,5.14.37,7.73.015,1.518-.48,3.034-.61,4.562-.179,2.1-.1,4.226-.384,6.307a9.751,9.751,0,0,1-1.291,3.475c-2.776,4.754-5.645,9.454-8.139,13.605l-1.786-3.6-1.192.356c.965-4.758,2.9-9.556,2.709-14.267-.515-12.715,7.127-22.47,11.09-33.529,4.049-11.3,8.549-22.437,12.819-33.657.353-.926.976-2.289.594-2.87-3.469-5.276.666-9.47,2.3-13.629,2.116-5.374,5.523-10.348,11.849-12.058-5.694,8.858-6.45,18.878-6.971,28.954C122.174,272.892,120.084,277.712,116.635,282.516Zm22.715,99.1c-.395-3.045-.812-6.262-1.216-9.369L136.4,374.3c.276-4.555.507-8.393.726-12.016-.014.011-.394.3-.787.6-.4-3.281.117-7.073-1.387-9.717-2.843-5-.116-9.062.745-13.5l-2.521,1.747c0-4.985.588-9.418-.111-13.638-2.086-12.6.616-24.632,3.554-36.674a39.04,39.04,0,0,1,2.245-5.509l1.092.289a28.835,28.835,0,0,0-.828,3.634c-.745,7.444-2.173,14.934-1.783,22.325a69.5,69.5,0,0,1-.6,9.48c-.376,4.823-.183,9.689-.332,14.533a24.71,24.71,0,0,1-.685,3.765c.5,1.193,1,2.385,1.45,3.465l1.236-1.174v3.2l.7.345.788-1.642a10.8,10.8,0,0,1,.252,1.415c.042,5.092-1.222,10.657.426,15.157,2.083,5.687,1.392,11.177,1.837,16.758C142.6,379.445,142.744,381.788,139.35,381.612Zm34.088-9.11-8.488-11.884c1.181-.254,2.242-.829,2.675-.521C171.65,362.956,174.225,367.82,173.438,372.5Zm30.97,49.5a96.746,96.746,0,0,1-5.924-7.718c-1.408-2.25-1.75-5.315-3.472-7.181-2.026-2.195-5.023-3.5-7.616-5.161-.759-.487-1.574-.889-2.364-1.329l-4.376,5.524-1.234-.241c.356-2.57.2-5.362,1.2-7.651a10.523,10.523,0,0,0,.644-7.65c-.931-3.165,2-6.616,5.144-5.606,4.681,1.5,9.469,2.383,11.986,8.261,1.881,4.393,6.559,7.605,10.086,11.251.384.4,1.4.185,2.381.282l-1.843,5.938c-3.876-3.953-11.93-12.389-12.37-12.618l-.118-.12-.044.033c-3.058-1.628-5.332-3.762-8.17.059-.723.974-2.051,1.5-3.1,2.231,1.706,0,3.84-.658,5.04.121a92.952,92.952,0,0,1,12.461,9.346C205.925,412.721,207.762,416.587,204.408,422Zm3.478,2.059c.915-11.483,5.888-22.281,9.022-33.37,2.96-10.471,6.189-20.866,9.123-31.343.591-2.112.378-4.447.555-6.677.245-3.092.507-6.182.79-9.61l-1.913.962c.816-5.555,1.639-11.168,2.6-17.74l-3.607,3.087V323.12c-6.207,8.45-8.222,17.853-12.109,26.564l1.44-11.42c-1.783.139-3.051.227-4.317.339-1.553.137-3.257.771-4.622.334a6.162,6.162,0,0,1-4.419-4.954c-.776-4.025-4.439-5.834-7.239-8.077-3.058-2.449-7-3.806-10.017-6.293-5.086-4.191-10.323-8.5-10.821-15.923-.144-2.151-.607-4.286-.663-6.436a4.322,4.322,0,0,1,1.665-3.24c.96,2.676,1.933,5.347,2.877,8.029,2.326,6.607,7.278,10.55,13.543,12.956a8.591,8.591,0,0,0,4.845-.025c7.334-1.844,14.249-4.663,20.278-10.351a19.143,19.143,0,0,0-4.463.054c-4.682,1.156-9.278,2.673-13.975,3.755-1.3.3-2.844-.43-5.032-.823,4.507-.494,8.266-.4,11.695-1.423,3.482-1.034,6.639-3.162,10.791-5.237,2.6,2.187,5.728,4.9,8.965,7.469a5.949,5.949,0,0,0,3.259,1.378c.467.012,1-1.627,1.458-2.537a8.9,8.9,0,0,1,.933-2.045c5.627-6.144,5.873-13.338.531-19.812-3.756-4.551-7.6-9.029-11.834-14.047l-2.012,4.095-8.283-9.7c-1.085.595-2.25,1.626-2.642,1.387-4.3-2.614-8.861-2.834-14.521-1.3l2.247-2.738-.4-.52L179.6,268.188c2.091-3.591,3.658-6.281,5.264-9.037-6.89-.131-9.976,4.79-13.045,9.941-3.19,5.355-3.874,11.328-4.96,17.262-1.116,6.1-2.665,12.12-3.951,18.19-1.876,8.857,2.354,16.47,4.827,24.52,3.892,12.671,12.734,21.783,21.22,31.211a109.033,109.033,0,0,0,7.964,8.01c1.032.931,2.642,1.221,4.413,1.988l-8.784,5c-.6-6.953-.6-6.953-13.02-6.47l6.1-4.779c-2.4-3.2-4.726-6.372-7.15-9.466a3.724,3.724,0,0,0-2.092-1.443c-7.115-.882-10.065-6.187-12.022-11.935a132.246,132.246,0,0,1-4.905-18.972c-1.289-7.108-1.9-14.348-2.593-21.551a10.38,10.38,0,0,1,1.066-4.369c3.024-7.883,6.127-15.736,9.173-23.611.118-.3-.062-.723-.13-1.325l-3.086,1.342c3.851-8.8,10.457-14.522,16.207-20.9a11.6,11.6,0,0,1,1.955-3.114c5.667-4.806,6.066-11.753,8.241-18.153,1.63-4.8,1.127-9.292,1.6-13.934.253-2.489,1.859-4.842,3.031-7.685l-3.219,1.07-2.077-8.184c-4.147,3.788-8.634,6.288-10.716,10.1-5.306,9.715-14.363,15.878-20.993,24.213-4.449,5.593-7.7,12.145-11.45,18.286a9.528,9.528,0,0,1-2.874,3.544c1.006-2.8,2.181-8.736,1.763-8.9-1.537,4.057-3.372,8.032-4.546,12.192-1.931,6.85-3.408,13.826-5.125,20.737-2.56,10.308-5.3,20.575-7.693,30.92-1.289,5.557-2.031,11.241-3.078,17.2l1.114-.692c1.32,8.278,2.868,16.811,4.012,25.4,2.69,20.2,5.188,40.429,7.76,60.646a5.234,5.234,0,0,0,.982,2.914v-7.093c5.407,10.157,1.4,19.6-1.848,29.04-.465,1.352-1.916,2.365-2.91,3.535l-1.146-.683c.471-2.975,1.04-5.939,1.4-8.927,1.92-16.1-.257-31.981-2.773-47.828-2.55-16.066-5.78-32.052-7.62-48.2-1.973-17.316.172-34.567,3.835-51.575,1.509-7.007,3.287-13.957,5.007-20.917,3.262-13.2,10-24.655,18.034-35.422,1.888-2.531,4.19-4.753,6.2-7.509-2.133,1.357-4.761,2.311-6.278,4.171-2.107,2.583-4.281,1.32-6.215.673-.508-.169-.077-3.15-.077-5.064h-2.261c.106-.582.064-1.132.243-1.217,2.924-1.385,5.766-3.173,8.855-3.91,2.661-.635,5.64-.3,8.427.04,4.644.559,8.837-.444,12.092-3.686,15.665-15.605,35.431-23.136,56.18-28.647,14.7-3.9,29.425-7.73,44.268-11.007,18.159-4.008,36.166-2,54.062,2.408,7.676,1.892,15.515,3.179,23.329,4.431,5.077.814,9.953-.445,14.492-2.83,9.6-5.042,17.8-2.949,26.306,3.441,15.162,11.389,30.806,22.169,46.617,32.646,4.916,3.257,10.889,5.152,16.611,6.917A166.632,166.632,0,0,1,508.9,249.883c4.762,3.782,11.124,5.493,16.585,8.461,17.49,9.506,18.368,10.858,14.7,30.3-2.321,12.3-5.262,24.529-8.735,36.556-5.226,18.092-17.567,31.286-31.428,43.283-5.628,4.87-11.177,9.854-16.468,15.083-3.32,3.281-6.094,7.114-9.251,10.862-.667-3.519,1.022-6.195,3.326-8.388,2.873-2.735,6.043-5.163,9.117-7.684A62.758,62.758,0,0,0,506,352.279c-.937,1.341-1.888,2.672-2.808,4.024-.934,1.371-1.837,2.762-2.754,4.144l-.36-1.147c-1.347.344-2.983.318-3.985,1.1-2.939,2.3-5.626,4.919-8.889,7.841-.309-1.605-.507-2.631-.713-3.7l-4.146,1.536a19.215,19.215,0,0,1-.141-2.595c3.269-.615,4.638-5.175,8.685-4.2.405.1,1.17-.545,1.507-1.026,2.908-4.157,5.924-8.255,8.512-12.607.718-1.206.11-3.2.11-4.4-4.623,2.782-9.232,5.195-13.424,8.191a55.713,55.713,0,0,0-9.052,8.259c-3.27,3.67-6.043-.232-6.692-1.342-1.912-3.268-4.195-2.656-6.876-2.247-.4.061-.928-.675-1.638-1.232.162,1.324.282,2.309.44,3.6-.721-.2-1.433-.187-1.583-.471a54.32,54.32,0,0,1-3.343-6.858c-4.018-11.2-7.886-22.465-11.864-33.684a8.38,8.38,0,0,0-2.361-3.4q1.308,5.054,2.614,10.106l-.879.339-2.324-4.436-.476.18c2.032,7.195,4.09,14.383,6.09,21.586,2.565,9.24,4.95,18.534,7.7,27.718.9,3,2.889,5.667,4.062,8.612,3.168,7.953,6.158,15.976,9.233,23.966.818,2.126,2,4.17,2.44,6.367a17.405,17.405,0,0,1,.126,6.785c-1,4.868-4.007,6.688-8.8,5.277-12.826-3.78-22.234-12.14-29.028-23.3A87.532,87.532,0,0,1,422.539,353.8c-.217-4.193-.033-8.407-.033-12.743-.092,1.07-.174,2.034-.257,3l-.54.029v-6.169l-.667-.112-.6,2.177-.535-.008V303.664l-.481-.02-.2,4.309c-1.774-11.123-3.373-22.281-5.571-33.319-1.447-7.263-3.194-14.686-6.284-21.353-5.188-11.19-11.591-21.816-17.387-32.73a32.275,32.275,0,0,1-1.719-5.195,10.735,10.735,0,0,0-1.075-3.047c-2.563-3.475-5.119-6.981-8-10.19-1.467-1.637-3.606-2.672-6.33-4.612l5.85,1.791a50.21,50.21,0,0,0-18.7-8.429c-1.681-.356-3.373-.676-5.037-1.106-1.967-.508-5.1,1.135-5.577,1.485l17.871,13.816-4.283.321c-.326,1.5-1.106,2.89-.741,3.834a26.92,26.92,0,0,0,3.862,7.4c2.838,3.461,6.2,6.492,9.338,9.706.538.552,1.11,1.077,1.594,1.673,2.85,3.5,6.553,6.088,7.69,11.193.905,4.06,4.134,7.6,6.32,11.376,4.6,7.944,7.124,16.423,6.706,25.686a30.6,30.6,0,0,0,.139,5.769c.4,2.739,1.068,5.444,1.7,8.144,1.958,8.343,3.968,16.673,5.93,25.014.8,3.386-.409,5.939-3.578,8.037l-1.725-3.914c-4.854,4.443-5.4,8.211-2.107,16.061.222-.722.352-1.142.62-2.012.306,1.057.514,1.774.865,2.984l3.44-6.227,1.1.321c-.36,1.856-.373,3.836-1.688,5.352-5.824,6.712-6.01,16.463-1.242,23.961,5.336,8.391,1.989,15.828-.706,22.389-2.241-1.829-4.175-4.586-6.56-5.056a15.816,15.816,0,0,0-9.539,1.316,44.693,44.693,0,0,0-10.468,7.915c-1.32,1.27-1.389,3.841-2.189,6.325-.985-1.721-1.872-3.151-2.638-4.644-.813-1.583-1.509-3.226-2.534-5.445l4.325,2.112c-.52-3.7-1.252-6.542-1.248-9.378.012-6.519,6.419-11.762,13.956-11.848,6.484-.073,11.806,2,15.312,7.805-1.265-7.685-6.683-10.974-13.206-14.179-6.6-3.246-13.352-.737-19.809-2.435-.342,1.073-.694,2.141-1.047,3.215a5.882,5.882,0,0,0-4.9,7.305c2.664,10.677,5.6,21.187,10.622,31.148,4.61,9.153,4.035,19.116,1.48,28.876-.9,3.431-2.266,6.738-3.582,10.579-.855-1.174-1.387-1.906-2.511-3.451.562,2.74,1.014,4.461,1.255,6.211.592,4.315.111,8.3-3.08,11.728-7.864,8.452-17.632,13.487-28.641,16.394-1.09.288-2.2.512-4.272.99.644-2.092,1.238-3.73,1.632-5.414.238-1.019.559-2.349.106-3.09-.346-.568-1.894-.717-2.823-.558-3.962.679-6.2-1.03-6.962-4.905-.231-1.182-1.761-2.943-2.766-2.992-3.493-.17-7.017.295-10.9-.273a34.227,34.227,0,0,1,3.068-2.376,64.38,64.38,0,0,0,26.391-30.206c3.026-7.072,6.847-13.959,5.286-22.029-.639-3.3-1.367-6.931-3.229-9.588-9.6-13.7-22.623-20.073-39.54-17.016-13.746,2.484-27.6,4.528-41.186,7.7-16.3,3.806-25.358,14.256-27.319,30.766a29.326,29.326,0,0,0,5.59,21.112c5.74,7.766,12.345,14.849,20.914,19.622,3.587,2,7.555,3.312,12.248,5.322-6.372.688-11.341-.365-15.706-3.891-2.593-2.1-5.113-4.286-7.745-6.331a19.611,19.611,0,0,0-3.1-1.641l-.919.749c.624,1.548.961,3.309,1.922,4.608,4.254,5.745,8.873,11.228,12.971,17.078,1.753,2.5,2.786,4.6,6.512,3.108.956-.384,2.928,1.973,4.525,2.914a38.7,38.7,0,0,0,3.886,1.777c.42-1.2.84-2.395,1.28-3.648l8.038-.8,1.967,4.155c-14.364,6.68-28.489,11.274-43.981,5.19C237,475.234,204.7,464,207.886,424.057Zm-32.633-99.544c3.57.9,11.6,15.617,11.11,20.463a6.7,6.7,0,0,1-4.956-4.329c-1.469-3.488-2.76-7.15-4.866-10.234C175.213,328.467,174.519,326.914,175.253,324.513Zm-1.588-7.3c.589,2.044,1.178,4.089,2.073,7.193C172.664,322,171.281,320.162,173.665,317.211Zm28.73-28.206c1.415-.793,2.984-1.314,4.709-2.057,1.907,6.487-6.214,10.751-12.333,9.825a22.76,22.76,0,0,1-6.847-2.622c-3.075-1.6-4.754-5.765-3.452-8.714.311-.7,2.354-1.355,3.116-1a19.222,19.222,0,0,1,4.465,3.409C195.666,291.139,198.109,291.4,202.4,289.005Zm3.291-15.975c5.584,0,5.575,8.666,0,8.666S200.11,273.03,205.686,273.03Zm-9.89,28.416c9.472.037,14.408-5.949,18.253-14.431,1.052,10.305-6,17.844-16.107,18.206-9.985.357-19.324-7.731-18.921-17.01C182.093,296.35,187.063,301.412,195.8,301.446ZM368.857,443.661c.648-2.623,1.3-5.281,2.019-8.18C373.412,439.465,373.024,440.82,368.857,443.661Zm.971,19.092c-.621,2.19-1.3,4.365-1.85,6.573-1.256,5.086-2.445,10.189-3.66,15.284-.407,1.708-6.836,4.6-7.925,3.363-.612-.694-.689-2.87-.095-3.458,4.981-4.934,5.823-11.174,6.106-17.672.072-1.653.389-3.294.52-4.947.17-2.164.384-4.158,3.411-3.832C369.256,458.379,369.807,460.211,369.828,462.753Zm2.788-32.226c2.964-10.794,4.235-21.578,1.11-32.571a4.586,4.586,0,0,1,.216-3.332q3.949-6.1,8.34-11.906c.668-.883,2.088-1.2,3.988-2.215.445,7.589,4.423,14.342-1.335,21.049a12.139,12.139,0,0,0-2.488,7.1c-.281,10-2.94,19.169-9.543,27.543C372.78,434.3,372.14,432.26,372.616,430.527Zm-18.363,44.906-1.112-.225.739-6.117C356.634,471.405,355.851,473.447,354.253,475.433Zm-16.742,68.083c-4.951,9.7-14.4,11.59-24.047,12.578-1.29.132-2.717-1.084-4.234-1.743-4.9,4-11.01,3.667-16.386,2.05-17.386-5.229-30.878-15.108-34.915-34.083a93.282,93.282,0,0,1-.853-37.008c3.944,2.076,4.806,4.087,3.744,8.94l4.226-3.692c.286,1.4.441,2.152.5,2.42a25.837,25.837,0,0,1,4.549,1.415c3.762,2.008,7.677.157,10.586-.985,6.159-2.417,12.043-2.572,18.647-1.481q3.907,23.8,7.844,47.78l1.871-.276c-.815-5.712-1.727-11.412-2.409-17.14-.461-3.872-.173-7.873-.977-11.656-1.237-5.818,1.277-11,2.071-16.454.971-6.656,5.417-10.68,11.29-13.69a108.405,108.405,0,0,0,14.568-9.13c1.68-1.232,2.533-1.79,4.471-.761,4.288,2.274,6.493,6.049,8.139,10.307,5.431,14.053,4.277,28.28.165,42.25C344.282,530.206,340.872,536.929,337.511,543.516Zm7.035-6.641c-2.134,15.948-26.942,30.623-41.583,23.518,4.3-1.032,8.566-2.669,12.922-2.978,11.394-.811,19.371-6.667,25.454-15.792,1-1.492,1.926-3.026,2.895-4.535C344.3,536.991,344.44,536.945,344.546,536.875ZM264.321,395.7c-2.184-3.533-2.184-3.533.531-6.436l-3.711-7.3c2.285-1.287,5.395-4.112,8.935-4.838,12.038-2.469,24.18-4.58,36.373-6.112,15.525-1.952,31.24,8.776,34.329,22.925a26.443,26.443,0,0,1,.3,7.637c-.262,3.266-4.524,4.884-7.387,3.444-1.187-.6-3.054.161-4.592.3l.56-1.318c-1.715-.515-4.174-.555-4.606-1.51-1.406-3.115-3.982-2.426-6.285-2.672-5.463-.585-11.077-1.08-16.1,1.41-1.694.839-3.237,3.83-3.249,5.847-.028,5,.868,10,1.393,15l1.257.152,2.053-1.845a55.035,55.035,0,0,0,4.666,5.157c3.686,3.184,8.235,3.448,10.882-.372,4.143-5.978,10.512-7.334,16.741-9.594-3.635,5.5-6.492,11.462-12.307,15.393-4.28,2.893-8.72,4.525-13.533,2.817-3.04-1.078-5.819-3.269-8.316-5.423-5.3-4.566-6.222-10.922-6.725-17.488a31.662,31.662,0,0,0-2.157-8.149c-.584-1.612,2.38-2.878.172-4.462-.55-.395-5.316-3.292-7.127-2.954-.778.145-1.473,3.249-1.385,4.967.159,3.1.527,6.034-2.323,7.556-2.029-1.794-3.895-3.5-5.834-5.118-.549-.457-1.805-.54-1.907-.986-1.161-5.03-5.281-3.7-8.835-3.97.357-1.014.636-1.8,1.106-3.137Zm21.4,19.5,1.175.137q1.917,11,3.836,22.006c-4.814-9.033-6.129-14.626-4.8-19.04l-1.949,1.587-.647-.336Q284.53,417.378,285.721,415.2Zm8.2,49.56c.643,2.567.081,3.133-4.283,5.187-1.962.923-3.414.914-4.267-2.057Zm15.047,113.006a7.962,7.962,0,0,0-.324,1.51H282.373c5.141-1.536,11.905-3.57,18.678-5.569a21.919,21.919,0,0,1,4.413-1.044C309.691,572.339,310.684,573.873,308.964,577.768Zm14.375-7.494c5.865-3.4,11.5-7.041,17.486-9.963,2.252-1.1,5.312-.545,8-.744C342.016,569.1,329.692,573.722,323.339,570.274Zm10.115-8.535c-11.842,9.143-40.727,12.457-53.712,2.491-8.923-6.849-17.509-13.97-20.662-25.7a50.242,50.242,0,0,0-11.856-20.906c-1.992-2.176-3.344-4.938-4.988-7.433l.943-.581c7.822,7.894,14.248,16.642,17.768,27.37,2.848,8.68,7.532,16.081,14.977,21.843,26.345,20.391,65.057,6.6,72.2-26.007,1.751-7.992,2.832-16.131,4.179-24.21.784-4.7,2.338-8.981,6.527-11.739,4.226-2.782,6.086-6.851,7.583-11.567,3.524-11.1,7.1-22.227,11.589-32.955,5.51-13.178,7.412-27.123,10.5-40.851,2.108-9.363,5.305-18.479,7.894-27.739.305-1.092-.155-2.4-.261-3.606l1.021-.207c.267,1.68,1.209,3.61.695,5-4.763,12.888-6.312,26.368-7.745,39.88a64.758,64.758,0,0,1-7.519,24.438c-6.431,11.786-10.135,24.575-14.223,37.256a63.383,63.383,0,0,1-7.021,15.688c-6.056,9.088-7.983,19.307-9.875,29.643A47.073,47.073,0,0,1,333.454,561.739ZM435.7,557.771c-2.248,4.534-6.48,6.688-11.282,5.282-1.835-.537-4.518-1.533-5.588-.715-3.838,2.935-9.822,1.47-12.6,6.59-.8,1.479-3.16,2.114-5.216,3.391,1.262-2.542,2.489-5.017,3.717-7.491-3.8,1.4-5.37,4.671-6.8,7.9-2.945,6.641-2.859,6.672-10.066,6.668-10.877-.006-21.755,0-32.886,0,2.36-2.535,2.282-2.528,1.775-7.9-.084-.892.788-1.911,1.314-2.816,1.472-2.538,3.543-4.895,4.3-7.623a7.362,7.362,0,0,0-1.585-6c-1.773-1.876-5.185-2.571-1.915-5.907-1.58-6.768,4.227-11.075,5.413-17.163l-2.9,1.965c2.743-5.182,5.207-9.9,7.751-14.567a6.806,6.806,0,0,1,1.654-1.519c2.057-1.787,4.118-3.568,6.14-5.319l-.038-.061.9,1.461c1.281-5.741,2.411-10.809,3.492-15.652.082.485.222,1.316.509,3.011,4.7-5.711,2.823-11.283,1.941-17.749-2.423,1.973-4.261,3.469-6.217,5.063a11.7,11.7,0,0,1-.286-2.723c1.029-10.279,3.862-20.11,7.437-29.763,1.379-3.725,2.539-7.532,3.924-11.678.727,2.413,1.428,4.742,2.13,7.071l.7-.116q-.481-10.53-.962-21.059l1.305-.2c1.428,5.876,2.937,11.734,4.261,17.634s1.454,11.992,5,17.478c1.846,2.852,1.4,7.128,2.256,10.7.8,3.321,2.2,3.788,4.544,2.181,11.017,7.269,18.055,17.709,24.181,28.981,4.405,8.106,9.133,16.043,13.934,23.922,1.813,2.975,1.871,5.158-.127,8.268A190.292,190.292,0,0,0,435.7,557.771Zm29.93,78.269c-1.761-5.464-.169-29.4,2.162-32.524C471.788,607.349,470.472,627.138,465.633,636.04Zm6.728-36.309c-4.55-3.994-6.622-3.782-9.847,1.142-1.974,3.015-3.641,6.232-5.446,9.358l-1.337-.583a20.123,20.123,0,0,1-.154-3.325c.757-6.6,1.99-13.163,2.3-19.776a172.455,172.455,0,0,0-.237-25.6c-.253-2.476-4.392-4.643-6.9-6.77a50.669,50.669,0,0,0-5.09-3.4,51.913,51.913,0,0,1,3.841-5.248c5.274-5.645,11.406-2.184,17.132-1.125,1.618.3,3.448,2.447,4.138,4.165,1.557,3.877,3.113,7.952,3.513,12.059A132.567,132.567,0,0,1,472.361,599.731Zm23.881,47.346c1.988-9.173,3.856-17.788,5.723-26.4C506.034,627,502.547,641.057,496.242,647.077Zm19.042,1.048,10.039-25.83C528.754,627.353,521.023,644.242,515.284,648.125Zm38.07-76.985c-.735,10.832-2.4,21.6-3.677,32.394-.347,2.919-.928,5.813-1.179,8.737-.661,7.72-5.453,13.674-8.848,20.151-1.069,2.04-4.465,2.941-6.9,4.157a55.534,55.534,0,0,1-5.742,2.105c.688-4.51,1.266-8.286,1.838-12.062.077-.507.152-1.017.187-1.528.534-7.91-2.5-10.125-9.8-6.818,1.527-6.014,3.3-11.782,4.414-17.677,1.564-8.322,4.68-16.557,1.85-25.293-.485-1.5.268-3.545.826-5.212,1.531-4.565,3.374-9.016,2.606-14.035-.158-1.032.5-2.189.782-3.288-3.408-2.595-5.153-2.163-7.972,2.053l-12.908-16.072c-.123.879-.376,1.408-.209,1.684,6.478,10.781,7.072,22.592,5.868,34.626-1.439,14.388-2.278,28.9-7.342,42.671-.39,1.06-.783,2.119-1.366,3.7L503.1,616.76l-4.169,1.732c-.178-3.355-.34-6.385-.527-9.913l-8.168,3.451c-2.075-3.979-4.47-8.549-2.014-13.261,5.173-9.921,4.127-20.007,1.467-30.074-1.386-5.248-1.605-10.8-4.63-15.759-1.276-2.092-.212-5.613-.212-9.207-4.767-3.474-7.27-2.984-11.488,3.195-4.483-4.831-9.306-9.127-17.285-10.056,3.807-3.235,6.851-5.865,9.948-8.432,1.374-1.14,2.853-2.152,4.284-3.223l-4.671-2.577a22.774,22.774,0,0,1,14.57-6.079c6.418-.3,12.886-1.083,19.246-.577a31.028,31.028,0,0,1,18.01,8c2.471,2.175,4.38,4.989,6.544,7.514l2.824,3.379c3.784,2.834,7.378,5.978,11.389,8.444C548.671,549.74,554.184,558.916,553.354,571.14Zm1.247,70.465c2.755-12.189,5.671-25.087,8.773-38.808C565.742,617.731,561.26,630.306,554.6,641.605Zm18.623-29.634a16.225,16.225,0,0,1-2.142,3.184c-.77.974-1.677,1.84-2.782,3.031-.712-5.288-1.071-10.029-2.056-14.635-.849-3.964-3.784-5.672-6.754-4.425.686-3.567,1.35-7.019,2.086-10.843.371,2.671.7,5.055,1.032,7.439l1-.148q-.469-3.671-.939-7.342c-.824-6.464-1.685-12.923-2.445-19.394a51.991,51.991,0,0,1-.208-5.7c-.023-3.342-3.28-4.555-4.571-7.054-.275-.532-.52-1.079-1.089-2.267,8.56,2.339,15.012,6.565,18.59,14C579.96,582.4,579.987,597.22,573.224,611.971Z"/><path d="M526.827,534.869c-3.01,1.441-5.409.443-7.425-1.911-1.7-1.99-3.355-4.025-5.029-6.04l.936-1.207L524,531.49Z"/><path d="M376.6,262.123c-3.066-3.047-6.15-6.079-9.143-9.2-1.593-1.659-2.882-3.619-4.535-5.208-5.864-5.641-12.721-8.264-20.746-5.622-7.72,2.541-12.753,8.116-13.745,16.077a246.094,246.094,0,0,0-1.546,28.275c-.028,3.257,1.73,6.528,2.672,9.793l1.3-.036c.4-.6,1.04-1.159,1.175-1.817,1.123-5.471,1.681-6.09,7.156-4.531,13.737,3.911,27.235-6.7,30.8-16.988.856-2.468,1.256-5.1,1.873-7.678,4.82,2.044,3.351,7.307-6,21.65,6.712-3.976,10.416-9.071,10.828-16.5.1-1.82,1.233-3.582,2.17-6.128C378.591,263.971,377.561,263.081,376.6,262.123Zm-23.615.638c-5.585,0-5.576-8.665,0-8.665S358.557,262.761,352.982,262.761Zm.552-18.232c-6.791-1.191-12.914-.011-18.246,5.3C337.229,243.554,347.6,240.635,353.534,244.529Zm-19.025,18.883c8.494,11.052,15.1,9.516,19.527,3.608,1.327,1.963,3.538,3.746,3.417,5.351-.29,3.817-3.943,5.326-7.051,5.8-6.32.954-11.913-.606-15.587-6.63C333.2,268.88,332.673,266.5,334.509,263.412Zm22.662,21.069c-7.95,5.164-16.861,5.54-23.238.278-2.2-1.814-3.214-5.062-4.769-7.655l1.015-.766c6.136,7.337,13.872,9.959,22.6,6.241,10.235-4.364,11.152-13.648,11.193-23.635a25.578,25.578,0,0,1,2.259,4.785C368.128,271.551,364.479,279.735,357.171,284.481Z"/><path d="M404.33,206.171l-10.89-4.666c25.66,41.134,32.52,86.487,37.2,132.565q.209-1.533.417-3.07l.335.046c.133,1.133.265,2.267.515,4.408.367-1.908.551-2.865.88-4.572,1.16,2.841,2.058,5.044,2.957,7.246l.235-.045q-.805-4.2-1.613-8.408c.452-.1,2.857,7.9,3.438,12.025.627,4.445,1.063,8.918,1.558,13.381.48,4.32.991,8.639,1.373,12.968.369,4.185.59,8.384.876,12.576l-1.041.412c-1.659-3.085-3.318-6.171-4.946-9.2-.092.333-.223.81-.569,2.07-1.01-1.774-2.033-3-2.452-4.408-1.657-5.56-4.131-10.891-1.937-17.127,1.043-2.966.179-6.6-.234-9.943q-.194,3.78-.388,7.56l-1.115.166c-.359-2.256-.9-4.5-1.048-6.771-.754-11.769-1.034-23.58-2.181-35.309-1.849-18.918-6.994-37.153-12.245-55.366-4.1-14.207-8.827-28.094-16.482-40.831-5.488-9.133-11.773-17.544-21.917-21.969-3.725-1.624-7.711-2.65-12.532-4.27a31.53,31.53,0,0,1,3.6-.227c5.584.424,11.27.4,16.706,1.55,3.219.68,6.308,2.9,8.977,5.03a103.48,103.48,0,0,1,9.045,8.845c1.471,1.5,2.8,3.143,4.194,4.72Z"/><path d="M350.456,235.13c-6.042,2.609-12.869,4.832-18.9,8.4-4.6,2.718-4.677,8.526-5.387,13.459-.42,2.912-.437,5.882-.845,8.8a39.755,39.755,0,0,1-1.354,5.024l-1.351-.142c.167-3.144.209-6.3.544-9.426.234-2.183,1.029-4.225-2.7-3.326a2.385,2.385,0,0,1-1.549-.347,5.214,5.214,0,0,1-2.644-3.605c-.99-4.265-8.241-3.1-10.3-7.336l-1.866,2.946V245l-5.166,4.275c-.457-.736-1.8-1.953-1.576-2.691,1.541-5.054,3.342-10.034,5.267-14.956.227-.579,2.149-1.2,2.549-.879,1.456,1.165,3.245,2.543,3.695,4.176.543,1.968-.151,4.277-.329,6.7,2.409-3.034,5.083-3.74,7.379-1.717l2.817-6.784c1.822-.163,3.375.071,4.58-.471,8.474-3.806,16.681-3.876,24.688,1.23A19.559,19.559,0,0,0,350.456,235.13Z"/><path d="M243.083,329.64l.557.471,4.371-3.48c.9,6.246-1.721,10.769-5.227,15.512l4.017-1.125c-5.1,12.028-9.906,23.273-14.636,34.55-2.411,5.748-4.716,11.542-6.978,17.351-.22.564.165,1.385.328,2.073q3.291,13.909,6.6,27.815l-1.789.657c-1.263-2.772-3.027-5.432-3.681-8.342-1.228-5.461-1.758-11.076-2.711-16.6a8.518,8.518,0,0,0-1.52-3.608c-2.1-2.759-1.53-5.4-.052-8.107,1.776-3.249,3.652-6.447,5.333-9.744a7.418,7.418,0,0,0,.3-6.989c-1.175-2.9.221-6.906.721-10.394a49.168,49.168,0,0,1,1.63-6.678c1.526-5.247,2.349-10.893,4.894-15.6,3.259-6.029,7.929-11.3,11.991-16.892C247.557,320.742,244.792,326.832,243.083,329.64Z"/><path d="M249.022,281.347c6.894,8.281,4.031,17.549,2.2,26.2A23.3,23.3,0,0,1,240.2,322.606a9.622,9.622,0,0,1-3.386.726v-6.641l-4.44.866c.433-1.313.724-2.541,1.231-3.672,2.608-5.821,5.285-11.61,7.892-17.432a6.483,6.483,0,0,0,.244-1.88,160.149,160.149,0,0,1,2.471-16.774c.931,1.756,1.861,3.513,2.664,5.029Z"/><path d="M218.737,252.551l8.574,12.393,1.464-1.112c.343,1.6.653,3.045.979,4.569l3.476-.541c-.56,2.5-1.071,4.778-1.612,7.19-9.742-7.03-20.138-11.867-30.777-16.546a8.74,8.74,0,0,1-5.185-7.163l-.007-.071c4.241-.525,8.8-1.387,13.373-1.511,1.877-.051,3.829,1.428,5.683,2.339.871.428,1.554,1.543,2.4,1.629C217.746,253.793,218.506,252.733,218.737,252.551Z"/><path d="M453.684,244.206l1.953-.547c-2.506-4.726-8.7-6.173-10-11.932,5.746,3,12.163,4.931,14.455,12.27a16.838,16.838,0,0,0,5.1,7.024c3.109,2.719,3.975,5.966,4.048,9.779.051,2.638.48,5.279.376,7.9a3.811,3.811,0,0,1-1.9,2.472,2.9,2.9,0,0,1-2.69-.09c-2.322-2.181-5-3.96-4.7-8.09.179-2.427-1.707-4.971-2.5-7.513-.806-2.588-1.312-5.27-2.145-7.848A19.119,19.119,0,0,0,453.684,244.206Z"/><path d="M201.9,321.049c1.174-7.6,7.732-9.019,13.06-11.548,2.594-1.232,7.663,2.75,8.22,5.809.91,4.989-2.373,9.657-7.189,9.771C210.959,325.2,205.828,325.262,201.9,321.049Z"/><path d="M468.17,334.949c-.5-1.98-.912-3.991-1.537-5.932-.642-1.993-1.49-3.761,1.608-4.546,2.653-.672,4.847-.45,5.813,2.311,1.635,4.679,2.624,9.466.068,15.238l-4.344-5.372Z"/><path d="M362.263,300.486c.182.33.606.817.509.966-1.5,2.313-3.049,4.59-2.418,7.58-1.436.1-2.946.514-4.288.2a16.3,16.3,0,0,1-3.857-2.017c.992-4.35,3.711-6.668,7.322-8.159Z"/><path d="M362.263,300.486l-2.732-1.427-1.92-1.556c2.731-.2,5.517.6,5.59-3.091.009-.458,2.482-.868,3.813-1.3.241,1.167,1.073,2.957.618,3.387C366.031,298.01,366.517,302.627,362.263,300.486Z"/><path d="M465.849,336.667c1.95,7.355,1.95,7.355.558,10.26-1.137-2.652-2.277-4.838-3.006-7.153-.609-1.932-.225-3.585,2.5-3.021Z"/><path d="M351.669,402.046c1.2-3.368,2.4-6.736,3.765-10.586,1.515,3.4.359,7.329-2.753,10.948Z"/><path d="M465.849,336.667l.052.086-1.652-4.192.564-.581,3.347,2.959,1.618,1.709-.454,5.888Z"/><path d="M480.113,326.8c-3.087-.444-3.087-.444-4.9-7.327Z"/><path d="M113.737,609.345l-1.635,4.032c-.25-.873-.419-1.461-.868-3.027-.162,2.63-.265,4.319-.369,6.008l-.387.026c-.072-.557-.182-1.111-.211-1.67-.334-6.43-.78-12.858-.924-19.293-.064-2.867.489-5.748.874-9.816-.859,1.47-1.166,2-1.473,2.519l-.914-.363q1.079-3.779,2.156-7.556l.65.091v2.912l2.232-3.565c3.2,7.943,3.208,15.735,1.877,23.63Z"/><path d="M113.737,609.345l1.008-6.072q.81-1.837,1.621-3.677l.351.165c-.4,3.625-.8,7.25-1.322,12.061l1.432-2.039h.8v15.528l-.97.1c-.169-.754-.339-1.508-.541-2.41l-1.228,1.942C111.35,619.755,113.682,614.443,113.737,609.345Z"/><path d="M147.773,530.9c3.426,2.229,7.1,4.284,8.067,8.772.2.923-.431,2.834-.942,2.933-1.114.216-3.087-.065-3.491-.806-1.791-3.289-3.151-6.812-4.668-10.251Z"/><path d="M120.558,630.165c-2.887-3.364-2.952-7.346,0-11.437Z"/><path d="M484.931,525.486c4.955-.5,9.526-1.143,14.118-1.38,8.563-.444,12.438-.043,15.61,9.04-4.868-3.919-9.245-2.744-13.8-.253l2.206,3.783c-5.225-1.787-10.071-3.142-14.643-5.127A5.827,5.827,0,0,1,484.931,525.486Z"/><path d="M47.864,369.139c-2.258-.309-3.261-1.485-3.254-3.878.012-3.426.129-6.958-.654-10.241-.489-2.053-3.246-3.39-2.666-6.172.068-.325-.55-.792-.85-1.194-3.794,2.874-4.755,5.3-5.777,14.966l2.387-3.594c-1.323,7.138-2.547,13.747-3.961,21.382-.613-3.749-1.1-6.7-1.579-9.654l-.637.032v5.836l-.982.024-.789-9.779-.859-.023-.693,1.891-.669.091q-.968-8.666-1.933-17.333c.551-.095,3.166,5.835,3.935,8.951,5.536-10.153,4.565-23.492,14.362-31.856,3.661-12,12.038-20.875,19.96-30.05l4.914-1.984c-4.539,9.519-8.969,18.812-13.467,28.248l2.183.764c-2.421,7.156-4.774,14.112-7.224,21.357l1.226-.563C49.863,353.819,48.864,361.479,47.864,369.139Zm-4.822-31.847-1.288-.9-6.085,9.549C42.409,345.331,40.858,340.014,43.042,337.292Z"/><path d="M310.316,374.491c8.5-3.449,25.574,8.3,27.943,18.737A50.965,50.965,0,0,0,310.316,374.491Z"/></svg>