<svg id="a6f0d5e6-5741-4ac2-b474-7166ac28f14b" data-name="Layer 1" xmlns="http://www.w3.org/2000/svg" viewBox="0 0 595.276 841.89" style="fill: #215342;" height="350" width="400" transform="translate(-60, -65)"><path d="M206.818,679.749c-1.1,5.273-5.55,7.047-9.665,9.02-3.475,1.667-6.417,3.633-7.261,7.684a2.148,2.148,0,0,1-.254.662c-1.711,2.862-3.056,6.693-7.22,5.964-4.11-.72-4.248-4.856-4.215-7.886.065-5.851-5.632-8.4-6.824-13.383-1.155.289-2.907.2-3.369.928-3.463,5.464-8.555,8.407-14.5,10.382-.785.261-1.284,1.964-1.554,3.086-.853,3.559-1.109,7.324-2.414,10.692-1.123,2.9-3.948,3.094-5.279.2-1.8-3.913-2.706-8.229-4.1-12.337-.316-.929-.877-2.219-1.629-2.485-5.026-1.776-7.77-5.487-9.422-10.3-1.192-3.472-2.577-3.566-5.291-.912s-6.3,4.462-9.416,6.751a4.757,4.757,0,0,0-1.541,2.265c-.9,2.769-1.381,5.7-2.51,8.364-1.455,3.434-4.207,3.607-6.456.661a6.966,6.966,0,0,1-1.19-2.028c-3.1-9.888-6.366-19.732-9.147-29.711-1.959-7.031-.043-13.812,2.823-20.3,3.76-8.509,7.146-17.236,11.629-25.352,2.2-3.991,6.228-7.2,9.978-10.03,2.276-1.721,3.173-3.109,3.058-5.935-.765-18.764-1.334-37.535-1.588-56.339l6.279,57.4.552-.03V561.14c1.387,12.741,2.877,26.426,4.366,40.11l.77-.006c0-2.067.02-4.133,0-6.2q-1.4-125.562-2.8-251.125c-.029-2.588,0-5.176-.042-7.764-.117-7.534.654-6.329-6.58-6.373-7.567-.046-14.925-1.076-21.126-5.628A84.436,84.436,0,0,1,90.036,314.1c-3.929-4.125-8.547-8.079-10.906-13.04-1.533-3.224-4.356-4.932-6.238-8.446l3.787,1.843c.574-5.188,1.307-10.358,1.61-15.554a5,5,0,0,0-1.933-3.972c-7.112-3.741-13.211-8.475-17.571-15.368-.428-.677-2.6-.9-3.591-.474a47.359,47.359,0,0,1-36.105,1.138,35.952,35.952,0,0,1-3.444-1.351c-5.508-2.656-6.51-8.061-1.215-10.875,6.822-3.625,14.4-5.957,21.828-8.269,6.192-1.926,12.643-3.019,18.971-4.477-4.873,1.627-9.707,3.356-14.612,4.85-6.854,2.086-13.83,3.792-20.616,6.072-3.342,1.123-4.213,3.829-3.43,6.341l5.354-4.4.154,1.453c.975.139,2.214.721,2.871.329a41.257,41.257,0,0,0,4.427-3.6,7.647,7.647,0,0,1,1.446-.737c1.1,3.96,3.083.391,4.048.106a86.387,86.387,0,0,0,13.442-5.136c2.536-1.237,4.589-3.465,6.859-5.247,17.861-14.563,35.548-29.346,53.64-43.616a82.757,82.757,0,0,1,48.351-18.31c16.806-.784,29.645,6.375,40.166,18.876,10.195,12.113,20.308,24.314,30.978,36a22.974,22.974,0,0,0,21.036,7.5,114.075,114.075,0,0,1,19.175-.744c6.264.209,12.5,1.257,18.749,1.9,13.384,1.386,26.4-1.371,39.448-3.6,8.387-1.434,16.709-1.726,25.078.309a7.407,7.407,0,0,0,5.379-.805c6.13-4.291,12.569-8.371,17.851-13.587,7.648-7.553,14.948-15.27,25.394-19a10.442,10.442,0,0,0,2.974-2.17c17.2-14.879,36.419-17.737,56.644-7.805,11.224,5.512,21.77,12.641,31.967,19.953a361.562,361.562,0,0,0,59.2,34.808c2.54,1.173,4.972,2.577,7.455,3.874-18.267-6.539-35.893-14.44-52.947-25.748,9.827,13.631,19.056,26.234,28.06,39,5.4,7.653,10.98,15.041,18.9,20.347-5.4-3.337-11.174-6.545-15.1-11.287-7.512-9.067-13.874-19.078-20.9-28.562-5.813-7.851-10.723-16.949-18.111-22.924a279.634,279.634,0,0,0-39.78-26.471c-13.676-7.617-28.926-8.256-42.752-.448-13.513,7.631-27.114,15.443-37.731,27.444-4.762,5.382-10.915,9.627-16.8,13.884-3.5,2.53-7.688,2.964-12.246,2.095a59.459,59.459,0,0,0-16.388-1.217c-11.734,1.095-23.393,3.007-35.066,4.7-.885.128-1.635,1.186-2.565,1.9-.381-.247-1.456-1.537-2.581-1.583-14.132-.572-28.282-1.487-42.406-1.205-8.294.166-15.283-1.74-21.49-6.984a51.13,51.13,0,0,1-6.221-5.685c-8.791-10.374-17.421-20.884-26.152-31.309-5.836-6.968-12.141-13.627-21.155-16.151-16.628-4.657-32.3-3.717-47.162,6.932-15.857,11.36-28.97,25.113-40.767,40.424A164.513,164.513,0,0,1,72.1,243.6c-9.632,9.385-22,13.7-34.717,17.235a67.1,67.1,0,0,0,10.168-1.632c17.037-4.333,29.576-15.314,40.733-28.124,9.674-11.108,18.553-22.951,28.706-33.589,8.907-9.332,20.184-14.727,33.279-17.127,11.834-2.169,20.406,5.959,30.933,7.654,3.276.528,6.608,4.727,8.642,8.029,3.142,5.1,5.206,10.865,7.7,16.363,2.029,4.481,4.012,8.982,6.16,13.8l1.066-2.778c1.011,4.356,2.042,8.8,3.132,13.5l1.853-2.145c.358,5.81.7,11.348,1.041,16.889l2.309-3.43c-1.8,16.508-12.913,27.87-20.443,41.164,5.73-5.6,10.636-11.865,16.149-17.534,5.566-5.724,11.733-10.862,17.637-16.256L227.5,256.8c-2.186,1.841-4.63,3.46-6.479,5.593-1.539,1.775-2.33,4.185-3.549,6.257-.891,1.517-2.912,4.121-2.774,4.235,3.475,2.868-.854,5.352-.4,7.848l4.664-.641c.506,4.013,3.633,1.124,5.753,2.015-3.778,2.787-7.142,5.587-10.808,7.913-10.571,6.706-20.4,14.136-27.051,25.068-1.749,2.874-3.907,5.5-5.7,8.35-.987,1.576-5.324,3.076-.478,5.327.225.1-.08,1.461-.225,2.218-.184.961-.456,1.905-.874,3.6,2.865-3.717,5.041-6.819,7.508-9.669,3.042-3.514,6.585-6.615,9.438-10.264a26.382,26.382,0,0,1,13.768-9.519c4.059-1.156,8.333-1.544,12.444-2.549a6.627,6.627,0,0,0,3.043-2.414c.182-.223-.89-1.473-.76-1.269,2.19-1.27,4.336-3.234,6.8-3.8,5.6-1.287,1.417-3.192.472-5.193.623,0,1.241.193,1.6-.03,3.74-2.318,7.241-3.616,9.607,1.72a1.083,1.083,0,0,0,.758.556c2.082.1,2.076.089,2.7,1.572.741,1.758,1.482,3.517,2.265,5.257.1.217.449.321.889.616.093-1.1.165-1.95.237-2.805a158.774,158.774,0,0,1,2.163,21.288c.251,7.082.055,14.18.055,20.987l1.864-1.509v9.184l2.253-.631a10.266,10.266,0,0,1,.51,2.747c-.112,1.33-.836,2.635-.819,3.945.119,9.258-5,16.419-9.845,23.459-4.178,6.066-9.313,11.483-14.132,17.1-6.578,7.66-13.053,15.426-20.008,22.731-2.294,2.409-3.264,3.592.059,5.209-.9,1.253-2.549,2.808-2.279,3.292,2.223,3.983-1.692,3.782-3.208,5.3a6.673,6.673,0,0,0-2.076,3.825c-.187,3.582.721,7.107-1.58,10.587-.972,1.469-.17,4.146-.035,6.265.015.229,1.426.424,1.417.59-.132,2.271-.4,4.535-.637,6.825,6.2-4.771,6.2-4.771,8.353-1.618a24.216,24.216,0,0,1,3.237-3.322c7.49-5.245,7.66-14.153,10.9-21.516.119-.271.107-.846-.06-.959-3.732-2.514-.832-4.978.236-7.187,2.052-4.246,4.4-8.356,6.76-12.447,6.369-11.049,13.117-21.894,19.084-33.154,2.826-5.333,6.88-8.841,12.374-11.58l-14.447,31.084,10.1-5.738.966.91c-3.4,2.542-3.789,4.216.708,5.239,3.584.815,3.459,2.665.706,4.748-.864.653-2.328,1.854-2.161,2.321,1.594,4.471-1.943,7.714-4,9.639a87.6,87.6,0,0,0-14.886,18.073c-3.544,5.721-7.866,10.958-11.8,16.439-1.051,1.463-1.958,3.029-2.928,4.551l.444.434,3.017-1.985c-.638,1.419-.986,2.117-1.272,2.841-3.294,8.349-6.994,16.573-9.672,25.117-1.151,3.672-.177,8.011-.168,12.047a4.328,4.328,0,0,1-.021,1.606c-1.365,3.114-2.809,6.193-4.336,9.523l-2-.712-.829,1.154,5.549,4.859c-1.4,1.087-4.247,2.434-4.113,3.339a54.952,54.952,0,0,0,3.31,11.624c.348.9,2.305,1.408,3.607,1.657a52.819,52.819,0,0,0,6.2.441c-2.058,1.7-4.641,3.239-4.449,3.764,1.441,3.938,2.743,8.26,5.381,11.361,6.5,7.636,15.581,11.149,25.035,13.774a69.218,69.218,0,0,0,27.054,1.9l-3.622-.5,1.6-2.515-11.234.737,5.591-3.58-3.357-1.5a19.369,19.369,0,0,1,2.427-2.314c2.406-1.626,3.112-5.954,1.021-7.441-4.856-3.456-9.642-7.04-14.707-10.166a34.606,34.606,0,0,1-15.627-19.965c-1.188-3.959-1.357-8.214-2.167-12.3-.455-2.293-1.552-4.478-1.849-6.777a22.43,22.43,0,0,1,.309-6.376c1.234-7.568,4.953-13.57,10.274-19.243,4.213-4.492,8.358-7.222,15.028-7.158l-4.662,1.789c4.521,0,8.768.021,13.015,0,5.837-.036,11.683-.321,17.507-.071,1.155.05,2.253.156,3.168.1,2.277-.147,4.553-.3,6.834-.227l.771.026c11.562.313,22.889,1.334,33.25,7.259,15.338,8.771,19.432,26.2,9.447,40.738a6.693,6.693,0,0,0-1.2,2.707c-1.945,14.111-10.915,22.435-23.135,27.976-4.6,2.083-9.453,3.582-14.068,5.625s-7.4,6.084-6.428,9.265c1.29,4.233,5.248,4.225,8.618,4.495,17.526,1.4,33.849-1.826,47.676-13.455,5.032-4.233,9.632-8.952,12.217-16.166-2.184.582-3.626,1.07-5.109,1.332-1.51.267-3.06.312-4.593.455,2.633-1.524,5.416-1.769,8.052-2.526,1.4-.4,2.553-1.693,3.817-2.582-1-.82-1.957-1.7-3.011-2.438a18.9,18.9,0,0,0-2.718-1.226c8.334-.336,9.748-1.391,11.375-8.107l-9.966-.59-.01-1.1c3.123-.238,6.258-.376,9.363-.762,1.08-.134,2.69-.6,3.034-1.37,3.371-7.553,6.526-15.2,9.86-23.1-3.979-.307-5.913,1.184-7.068,4.4-1.207,3.363-2.91,6.549-4.4,9.813l-1.06-.427c.129-1.09.195-2.191.4-3.266.421-2.231.914-4.448,1.377-6.671-2.062,1.031-4.086,2.153-6.206,3.046a9.469,9.469,0,0,1-2.839.267c.328-.846.422-1.952,1.023-2.5,3.893-3.517,7.9-6.912,11.421-9.962.033-.61-.008-.082-.02.447-.015.585,0,1.171,0,1.865.964-.466,1.89-1.208,2.185-1.01,2.757,1.848,4.58,1.257,4.961-2.02a96.829,96.829,0,0,0,.908-12.767c-.122-7.13,2.35-13.2,6.614-18.689,3.933-5.064,7.914-10.092,11.876-15.134,14.5-18.454,21.162-38.73,15.953-62.413a180.161,180.161,0,0,1-3.822-31.326c-.28-6.964-.361-13.831-3.534-20.025-5.12-9.993-10.8-19.7-16.222-29.539-.908-1.646-1.739-3.335-2.605-5l.724-.375,4,4.964C392,272.964,386.1,256.793,390.014,239l.164.18L394.9,224.59l1.9,2.956c1.956-3.884,3.653-7.911,5.925-11.583,2.144-3.465,4.352-7.269,7.5-9.647,4.984-3.769,10.748-6.517,16.247-9.58a4.63,4.63,0,0,1,2.924-.284c4.186.834,8.318,1.965,12.522,2.684,2.3.392,4.79-.225,7.035.3,13.508,3.151,25.435,9.661,36.241,18.15,5.24,4.118,9.889,8.987,14.805,13.516a80.7,80.7,0,0,0-8.055-10.918c-3-3.471-8.433-10.917-7.992-11.307,7.964,9.092,16.294,17.894,23.8,27.349,9.294,11.708,17.66,24.152,26.906,35.9,5.385,6.843,12.153,12.411,20.557,15.409,6.884,2.455,13.7,2.15,19.362-2.86,5.131-4.535,3.808-10.535,2.707-16.4-1.3-6.9-5.788-11.467-10.8-15.742,12.764,5.208,14.795,16.7,13.4,27.3-.942,7.182-11.855,12.544-20.708,11.14-12.078-1.916-20.736-9.4-28.732-17.724-3.075-3.2-4.222-3.318-7.227.262-3.45,4.111-8.294,7.058-12.563,10.472-2.3,1.839-4.663,3.6-6.744,5.2-.643,0-1.9-.322-2.17.056a22.585,22.585,0,0,0-2.716,4.974c-1.246,3.3-2.27,6.673-5.607,8.62a2.1,2.1,0,0,0-.714,1.432c-.344,2.981-.611,5.971-.9,8.958l-1.208.106-.761-2.734c-4.175,13.34-12.992,20.412-26.519,22.117,5.709,1.946,15.591-1.017,20.935-6.867,4.6-5.035,8.386-10.809,12.586-16.213a73.545,73.545,0,0,1,4.817-5.6c.373-.391,1.308-.246,1.985-.348a5.481,5.481,0,0,1-.731,1.633c-.885.94-1.905,1.752-3.528,3.206l3.534-.54c-.4.469-.6.707-.81.937-3.291,3.649-6.4,7.484-9.92,10.9-4.468,4.331-9.352,8.231-13.866,12.517a6.79,6.79,0,0,0-2.032,4.316c-.385,31.621-.624,63.243-.9,94.866q-.618,70.052-1.251,140.1a5.281,5.281,0,0,0,.829,3.406q4.41-27.112,8.822-54.224l.364.048q-3.046,31.063-6.094,62.127l.939.127,8.907-51.537.492.069c-1.046,9.574-2.235,19.135-3.106,28.724-1.382,15.22-2.565,30.457-3.772,45.692a2.98,2.98,0,0,0,.72,2.317c6.276,4.343,8.63,10.942,10.68,17.819,1.792,6.01,3.949,11.91,5.8,17.9,3.425,11.092,2.291,21.448-5.112,30.795-.762.961-.919,2.417-1.3,3.661-1,3.3-1.622,6.765-3.056,9.859-1.414,3.052-3.718,2.651-5.289-.09-.987-1.724-1.216-3.894-2.256-5.572a41.694,41.694,0,0,0-4.606-5.6,1.509,1.509,0,0,0-1.37.03c-1.985,4.125-7.725,5.8-7.454,11.4a3.108,3.108,0,0,1-.506,1.931q-.567.72-1.16,1.42a4.511,4.511,0,0,1-7.44-.713,3.905,3.905,0,0,1-.194-.465,11.266,11.266,0,0,0-6.194-7.239c-2.039-.97-3.691-2.887-5.314-4.575-3.747-3.9-7.824-3.926-11.649-.188-1.733,1.693-3.67,3.723-5.854,4.289-3.725.965-4.824,3.042-5.31,6.517-.46,3.3-1.488,7.58-5.383,7.388-1.769-.088-4.475-4.324-4.766-6.9-.876-7.747-5.214-10.088-12.281-10.517a59.91,59.91,0,0,1-15.983-3.64l20.315,3.413c-1.113-.881-1.422-1.32-1.808-1.4-12.353-2.7-24.4-6.255-37.466-5.536-20.434,1.125-40.945.815-61.423,1.181q-39.658.709-79.314,1.533a3.229,3.229,0,0,0-2.356.979l18.028,5.23-.095.435-23.156-3.5-.182.874,31.567,8.382-.077.372-38.614-5.858-.2,1.062,43.8,10.188c-9.245-1.277-18.156-2.434-27.042-3.762-6.209-.928-12.36-2.26-18.581-3.081-3.368-.444-4.414-1.473-2.489-4.565a31.92,31.92,0,0,0,1.7-3.655c.912-6.537,1.659-13.106,2.777-19.611,1.84-10.7.744-20.82-5.313-30.078-4.231-6.467-10.347-8.743-17.634-6.481-6.042,1.876-11.089.679-15.014-4.417-1.783-2.316-3.244-4.945-5.312-6.957a16.582,16.582,0,0,0-6.32-3.945c-5.372-1.674-9.758,1.11-14.071,3.914-5.005,3.253-10.476,4.837-16.309,2.821-9.653-3.336-18.45.729-22.3,10.306-3.092,7.7-6.6,15.227-9.765,22.895a79.843,79.843,0,0,0-3.869,11.119c-1.909,7.674-.537,14.972,3.223,22.42.86-4.241,1.23-7.983,2.428-11.438,1.256-3.622,2.756-8.616,7.164-8.276,4.722.366,5.407,5.561,5.71,9.546.4,5.207.1,10.466.1,15.654,3.863-1.917,7.065-5.019,8.168-9.632.946-3.955,1.074-8.1,1.869-12.1,2.09-10.523,4.344-21.013,6.553-31.512.046-.22.332-.39.651-.746.148,1.864.273,3.452.4,5.04l.846-.05q-.293-5.673-.587-11.345l.587-.045,1.086,5.091c1.748-3.2,3.379-6.178,5.009-9.158a53.09,53.09,0,0,1-1.9,7.642c-2.07,6.977-4.508,13.875-6.068,20.965a106.158,106.158,0,0,0-2.833,20.578,18.592,18.592,0,0,0,8.821,16.527l-.007-.039c2.286,1.67,1.741-.336,1.741-1.4,0-4.363-.487-8.778.032-13.073.446-3.688,1.383-7.872,5.873-8.928,2.807-.66,6.693,3.64,7.411,8.83.636,4.6.149,9.35.221,14.033.015.992.085,2.73.5,2.852,4.51,1.322,10.025-1.568,11.511-7.035a56.126,56.126,0,0,0,1.349-9.318,95,95,0,0,1,3.393-18.688l.031-.111a104.944,104.944,0,0,1,3.891-12.14c1.543-3.65,3.782-7.006,5.714-10.492a7.065,7.065,0,0,1-.732,4.1c-4.838,12.939-8.746,26.134-6.664,40.1.618,4.143,3.279,7.982,5.063,11.951l1.516-.275a24.488,24.488,0,0,1,.234-3.931c1.143-5.216,1.949-10.58,3.851-15.515.735-1.906,4.243-4.1,6.144-3.819,1.916.28,3.975,3.224,4.92,5.448.907,2.135.706,4.857.561,7.295-.218,3.658-.813,7.3-1.421,12.4Zm254.326,10.969.627,1.219c1.214-.138,3.308.062,3.511-.465,3.73-9.69,3.481-19.673,1.739-29.714a3.278,3.278,0,0,0-.777-1.83c-1.264-1.105-2.679-2.038-4.034-3.039a39.8,39.8,0,0,0-.225,4.422c.078,1.436.543,2.85.657,4.288.045.572-.352,1.674-.627,1.7-3.718.358-3.493,3.379-3.292,5.594C459.263,678.859,460.3,684.78,461.144,690.718ZM225.7,392l15.1-14.078c-2.049-.631-3.6.072-5.086-.051-3.387-.282-7.135-.221-9.982-1.727-2.273-1.2-3.487-2.312-5.687-.278-.654.6-2.972.678-3.078.413-1.266-3.154-2.6-.8-3.935-.2-2.3,1.027-5.04,3.2-5.129-1.844l-4.923.609.855-1.191c-4.655-2.992-9.714-5.56-13.884-9.159a22.544,22.544,0,0,1-6.415-9.7c-.994-3.079.114-6.819.171-10.269a8.56,8.56,0,0,0-.718-2.438c-.795.275-1.945.308-2.324.865-1.778,2.617-3.779,5.21-4.907,8.119-3.68,9.494-7.018,19.121-10.465,28.7a5.585,5.585,0,0,0,.065,1.55l2.067-3.346a11.881,11.881,0,0,1-.262,3.79c-.121.832-.4,1.921-.02,2.5,1.525,2.284,3.285,4.412,5.2,6.914a3.361,3.361,0,0,1,1.365.81,38.394,38.394,0,0,1,2.158,3.2c1.552,2.215,3.136,4.407,4.706,6.608l-1.339.955-4.023-4.583a276.789,276.789,0,0,0,14.99,29.3c1.888,3.191,5.77,4.254,9.625,3.213a3.333,3.333,0,0,0,1.872-2.106c.508-1.947-.011-4.466,1.04-5.919,6.056-8.376,12.459-16.5,18.718-24.73,1.49-1.96,2.88-4,4.316-6ZM393.562,631.732l1.215-.6c0-2.346-.067-4.695.012-7.039.308-9.146,5.357-15.9,13.472-16.759,3.752-.4,7.752.785,11.541,1.67,8.084,1.89,14.65-.074,19.564-6.93.392-.548.806-1.084,1.241-1.6,3.97-4.693,8.944-5.474,14.077-2.058,2.293,1.526,4.408,3.322,7.076,5.356.152-2.069.325-3.6.368-5.132.265-9.445.571-18.89.736-28.337q1.452-83.176,2.85-166.355c.366-21.146.72-42.292,1.247-63.433.089-3.581-.425-5.327-4.634-4.819-4.105.5-8.323-.036-12.473.2-10.314.585-20.118,2.861-27.6,10.608a9.338,9.338,0,0,0-2.062,6.443c.22,3.416,1.413,6.776,2.262,10.142,2.833,11.24,5.518,22.527,4.068,34.236-2.109,17.026-11.533,30.407-22,43.221-5.154,6.308-11.459,11.879-12.53,20.711-.645,5.315-1.578,10.6-2.476,15.878-.849,5-.57,5.378,4.412,3.624,7.038-2.478,13.983-5.221,20.967-7.851-5.306,2.593-10.719,5-16.1,7.469-.594.273-1.022.91-2.173,1.978a49.725,49.725,0,0,0-5.415.773,3.359,3.359,0,0,0-2.035,1.811c-2.872,7.428-5.48,14.961-8.485,22.334-1.029,2.525-.959,3.146,1.918,3.953,6.654,1.865,13.118,4.406,19.658,6.673-6.679-1.606-13.221-3.46-19.712-5.476-3-.932-4.569.225-5.677,2.926-2.041,4.973-3.5,10.411-6.543,14.7-5.462,7.686-7.1,16.154-7.277,25.123-.14,6.94-1.494,14.477.672,20.714,4.575,13.174,10.643,25.9,17.015,38.348C383.99,620.592,389.223,625.933,393.562,631.732ZM183.348,510.411l-.123-.6c4.91-.934,9.8-2,14.74-2.744,2.461-.37,3.659-1.075,3.015-3.814-1.459-6.2-2.784-12.442-4.122-18.675-.7-3.255-2.567-4.76-5.974-4.751a31.382,31.382,0,0,1-5.729-1.017l.136-.834,9.631.753c-1.7-2.292-3.044-3.585-3.745-5.164-1.551-3.49-3.957-7.16-3.852-10.691.149-5.015-.353-9.369-3.552-13.2-2.519-3.022-5.306-5.82-7.818-8.848-15.471-18.647-24.512-39.071-18.383-64.03,2.457-10.006,4.158-20.2,5.928-30.365.284-1.631-.305-4.29-1.47-5.157A61.819,61.819,0,0,0,135.643,330c-2.258-.4-3.389-.006-3.231,2.615.305,5.049.429,10.11.594,15.167,1.129,34.5,2.173,69.009,3.393,103.508,1.549,43.825,3.3,87.642,4.822,131.468.323,9.269.047,18.56.047,27.841l1.562.423c2.257-1.366,4.517-2.724,6.769-4.1,8.739-5.331,15.225-4.094,21.325,4.058a76.78,76.78,0,0,0,5.537,7.209c4,4.194,9.179,3.522,11.906-1.584,2.909-5.445,5.434-11.093,8.2-16.618a97.583,97.583,0,0,0,8.655-64.49c-1.477-7.416-2.064-15.016-2.907-22.549-.41-3.663-1.3-6.111-5.879-4.968C192.137,509.059,187.715,509.623,183.348,510.411ZM382.669,622.7l-1.148.432-18.762-43.191c-.4,4.86-.639,9.307-1.161,13.72s-1.329,8.815-2.032,13.353V556.534a235.581,235.581,0,0,0-7.5,24.522c-2.7,11-6.515,21.5-13.085,30.792a28.242,28.242,0,0,1-6.592,6.983c-7.007,4.862-15.105,6.737-23.419,8.475-14.764,3.086-29.034,3.31-43.043-3.036a47.548,47.548,0,0,1-14.856-10.7c-10.029-10.48-14.209-23.77-18.086-37.215-2.207-7.656-3.861-15.509-6.63-22.952-2.243-6.03-5.777-11.579-8.739-17.341l-1.211.416q.792,18.373,1.585,36.746l1.273.068c.87-3.311,1.741-6.622,2.535-9.641v52.723c-1.151-3.462-2.424-7.289-3.7-11.115l-.483.054,1.08,12.922-.454.055-1.91-6.893-.688.132,2.079,17.685-1.062.208c-1.145-3.445-2.291-6.89-3.531-10.621-1.2,3.772,5.994,23.74,8.749,24.923q-.954-8.125-1.9-16.227a49.443,49.443,0,0,1,2.816,9.611c1.313,6.577,2.534,13.172,3.761,19.766,1.1,5.928,4.232,9.124,10.645,8.2a29.1,29.1,0,0,1,4.04.084c25.732-.03,51.465.015,77.2-.131q36.775-.208,73.548-.83c1.109-.018,3.147-1.487,3.144-2.274q-.047-12.462-.75-24.916a10.226,10.226,0,0,0-2.193-5.431c-3.01-3.752-6.383-7.212-9.719-10.91C382.534,621.372,382.6,622.034,382.669,622.7ZM126.3,320.879l.838-1.275a9.5,9.5,0,0,1,2.712-.183c2.1.472,3.054.11,2.36-2.285-.894-3.085-1.6-6.226-2.5-9.308-1.711-5.833-3.64-11.448-6.917-16.79-4.058-6.614-6.755-14.063-10.04-21.151,2.76,1.342,4.283,5.325,7.833,1.679,1.021,1.99,1.856,3.811,2.866,5.529,1.068,1.816,1.7,5.012,4.815,1.742.4-.417,2.663,0,2.977.6,3.2,6.106,10.014,4.7,14.883,7.253.385.2,1.831-.858,2.265-1.626,3.011-5.321,1.865-10.369-1.543-15-2.968-4.032-6.261-7.824-9.285-11.817-.6-.787-.624-2-.914-3.023a11.694,11.694,0,0,1,3.039.338c3.978,1.555,7.831,3.453,11.863,4.834,3.946,1.352,8.055,2.229,12.7,3.478-6.02-11.833-6.195-11.982-16.457-17.9-1.229-.709-3.07-1.746-3.173-2.777-.418-4.18.425-8.592-.581-12.569-.634-2.5,3.789-6.631-2.3-7.376l2.736-2.874c-10.475-1.969-18.211,3.587-26.9,7.84l3.438,1.375-10.717,4.764c1.963,1.562,8.888-1.711,3.647,4.264-.114.129.048.473-.044.652-1.749,3.415-2.848,7.485-5.428,10.081-4.684,4.713-5.82,7.5-2.942,13.543l-6.415.382.024.221,7.858.383c-6.478.6-12.907.865-19.329,1.265-.753.047-1.461.833-2.189,1.276a8.564,8.564,0,0,0,1.63,2.421,49.9,49.9,0,0,0,5.189,2.866c-9.658,2.038-16.8-1.931-24.2-5.271a34.156,34.156,0,0,0,8.054,5.355c8.082,3.682,16.431,5.125,25.25,2.68,2.567-.712,5.237-.183,4.941,3.454-.185,2.267-2.221,3.762-1.676,6.805.618,3.455-1.395,7.308-1.8,11.039-.459,4.239-2.3,9.082,3.27,11.879l-4.272-1.051,2.718,2.851-1.147.45c.126.521.073,1.262.4,1.529,4.793,3.884,9.13,8.679,15.945,8.826,1.558.034,3.13-.533,5.289-.934Zm328.9-28.251.845.823,18.286-16.006L468.576,289.6l.477.3,5.6-4.926c-4.969,7.175-9.445,13.615-13.886,20.08a8.416,8.416,0,0,0-1.58,2.96c-1.221,6.715-5.346,11.467-10.242,15.78a26.935,26.935,0,0,0-2.74,3.286,10.562,10.562,0,0,0,4.924-.857c1.912-.591,4.914-2.052,5.628-1.332,2.575,2.592,4.949.455,7.31.725,7.512.859,12.005-3.069,16.151-8.335,1.741-2.212,3.324-4.064-1.5-6.182h4.639q-1.582-6-2.958-11.211c.568-.42,1.685-.956,1.625-1.248-.656-3.183-1.738-6.3-2.147-9.5-.134-1.043,1.136-2.613,2.183-3.339.712-.493,2.171-.042,3.262.167,11.5,2.2,21.435-1.632,30.714-7.958a10.426,10.426,0,0,0,1.589-1.7c-7.636,4.13-15.152,7.805-24.337,5.852l7.866-4c-6.365-4.89-13.292-3.385-20.589-3.663,6.547-8.076,3.38-14.936-1.932-21.684l3.253-.732c-1.2-1.122-2.021-1.855-2.8-2.634-1.112-1.109-2.192-2.252-3.285-3.38,1.478-.5,2.959-.979,4.427-1.5.157-.056.232-.343.336-.529-7.9-9.974-25.883-16.732-34.621-13.181.792,1.256,2.129,2.474,2.317,3.849a82.269,82.269,0,0,1,.7,11.5c-.009,1.823-.309,4.033-1.356,5.39-3.1,4.018-6.8,7.568-9.932,11.56a45.247,45.247,0,0,0-4.332,7.743c-.031.063,1.768,1.548,2.371,1.347,3.083-1.032,6.06-2.387,9.063-3.656,2.852-1.2,5.69-2.444,8.451-3.633-.775,2.1-1.44,3.933-2.123,5.756a11.042,11.042,0,0,1-1.305,3.2c-3.151,3.8-6.778,7.245-9.55,11.287-1.313,1.914-2.32,5.907-1.292,7.132,1.662,1.978,4.271,5.164,8.125,2.539,3.72-2.532,7.628-4.788,12.459-7.79ZM430.544,611.91c8.094,5.5,10.3,13.809,11,22.431a203.182,203.182,0,0,1,.516,27.227c-.537,10.013,6.7,14.687,12.432,20.553.374.383,1.068.452,1.97.808a51.746,51.746,0,0,1-.739-5.4c-.145-5.243-.448-10.507-.115-15.727.2-3.125,1.9-5.86,5.573-6.256a6.186,6.186,0,0,1,6.978,4.665,79.241,79.241,0,0,1,2,12.5,60.541,60.541,0,0,1,.046,6.845l1.578.485c1.558-3.787,3.639-7.45,4.573-11.385,2.541-10.715-.757-20.894-3.562-31.1-1.1-4-1.788-8.108-2.568-12.186-.754-3.942-1.384-7.908-2.147-12.313,7.624,9.307,6.023,20.728,9.569,30.752q.093-1.863.185-3.725l.825.028v35.161c.937-4.66.747-9.3,1-13.916a31.1,31.1,0,0,1,1.61-9.472c1.564-4.013,5.02-4.2,7.336-.511a29.784,29.784,0,0,1,3.131,7.739c.814,2.89,1.152,5.915,1.834,9.621,3.22-6.588,7.221-12.476,5.084-19.168-3.74-11.709-8.046-23.272-12.823-34.6a9.4,9.4,0,0,0-10.9-5.572c-7.442,1.486-13.239-1.926-17.839-6.941-3.613-3.937-8.513-6.077-12.257-3.1C439.939,603.233,435.422,607.582,430.544,611.91Zm-3.971,70.3a18.369,18.369,0,0,0,12.694-17.519c.019-5.047-.065-10.1-.343-15.14-.456-8.272-.5-16.634-1.852-24.769-1.31-7.86-6.6-12.859-14.758-14.1-2.87-.437-5.984.171-8.692-.657-8.4-2.571-13.683,1.2-14.821,9.443-1.659,12-1.622,24.289-1.626,36.454,0,4.351,1.981,8.7,3.058,13.054l1.051-.243v-1.21l9.342,11.971c1.114-7.129,1.8-12.9,3.049-18.541a5.421,5.421,0,0,1,3.787-3.41,9.621,9.621,0,0,1,5.9,2.03c1.161.872,1.857,2.9,2.007,4.486C425.936,670.049,426.193,676.068,426.573,682.209ZM233.212,557.7l.455-.612-3.76-2.7a29.4,29.4,0,0,0,.645,4.8q4.583,15.16,9.351,30.264c4.041,12.724,11.5,22.462,23.547,28.959,15.931,8.588,32.478,9.722,49.631,5.66,8.9-2.108,17.454-5.913,23.428-12.813,4.289-4.955,7.331-11.4,9.525-17.678,5.146-14.715,9.427-29.732,14.126-44.6a33.618,33.618,0,0,1,2.2-4.539,34.453,34.453,0,0,0-15.69,20.09c-2.206,7.309-4.813,14.519-6.589,21.929-2.487,10.374-7.365,19-17.767,22.475-12,4-24.4,6.819-36.631,10.15l-.455-1.371,2.35-2.456-14.15,2.339-.1-.7,4.937-1.461c-2.855-.816-5.032-1.807-7.284-2.02-11.306-1.071-17.226-9.227-22.881-17.479-2.282-3.33-3.512-7.391-5.15-11.15-.621-1.427-.842-3.055-1.6-4.388-1.208-2.113-2.88-3.979-1.217-6.648.216-.346-.362-1.434-.839-1.916-1.016-1.027-2.207-1.883-3.327-2.809l1.194-.112c-.176-1.829.14-3.914-.644-5.43-1.2-2.312-3.153-4.232-4.56-6.028Zm64.471,38.346c1,.7,2.359,2.457,3.466,2.31,4.536-.605,9.271-1.134,13.429-2.887,11.245-4.74,13-14.735,10.242-25.038-.3-1.111-1.6-2.742-2.475-2.765a38.486,38.486,0,0,0-8.821.824,33.128,33.128,0,0,0-17.082,9.434c-.254.258-2.029-.338-2.422-.962-4.565-7.243-11.467-9.927-19.691-7.476-1.4.418-2.8,1.369-4.158,1.3-5.753-.28-5.421,4.09-5.756,7.57a14.625,14.625,0,0,0,5.938,13.585c6.833,5.335,14.726,7.061,23.133,6.585C295.084,598.434,296.589,596.722,297.683,596.041Zm14.1-123.2c-5.467-.174-9.467,2.319-8.81,6,.473,2.647,3.544,5.125,5.984,6.988,1.078.822,3.462-.1,5.254-.174,8.085-.351,16.245-1.1,23.137,4.63.452.375,1.364.2,2.062.276.025-.849.341-1.827.03-2.526a15.392,15.392,0,0,0-11.737-9.48c-4.19-.847-8.143-2.871-12.2-4.364C313.948,473.612,312.388,473.056,311.786,472.839ZM176.165,191.619c-4.642-4.525-9.34-5.569-14.245-6.376-10.6-1.746-20.108,2.6-29.846,5.356a37.589,37.589,0,0,0-11.142,5.6c-3.067,2.17-5.587,5.2-8.077,8.08-4.076,4.719-7.934,9.628-11.884,14.457a10.179,10.179,0,0,0,4.219-2.967c9.78-10.8,20.829-19.476,34.906-24.428,10.862-3.822,21.3-5.087,32.153-.925C173.134,190.754,174.064,190.978,176.165,191.619ZM145.632,705.6l1.794-.113c.494-1.439,1.331-2.855,1.425-4.319.58-9.05,1.132-18.107,1.357-27.171.052-2.1-1.084-4.284-1.922-6.327a2.568,2.568,0,0,0-2.03-1.334c-.544.063-1.31,1.216-1.379,1.943-.711,7.578-1.765,15.169-1.759,22.755C143.121,695.892,144.738,700.747,145.632,705.6Zm-39.723-37.934c-3.4,6.471-4.606,13.107-2.352,20.074.846,2.615,1.487,5.3,2.314,7.917a22.271,22.271,0,0,0,1.335,2.841c.635-.778,1.683-1.481,1.839-2.345,1.291-7.151,2.729-14.3,3.448-21.518.318-3.191-.924-6.537-1.458-9.813l-1.783.05q-1.711,9.463-3.424,18.928l-1.266-.141Zm79.3,1.163c.432,2.2.812,3.072.729,3.891-.824,8.146-1.736,16.284-2.592,24.427-.129,1.23-.094,2.476-.135,3.715,1.026-.925,2.366-1.668,3.027-2.805,4.708-8.094,5.134-17.11,4.914-26.107-.05-2.07-2.084-4.09-3.205-6.133-1.767,1.469-4.275,2.585-5.173,4.468-3.9,8.178-2.731,17.008-2.66,25.676C181.456,687.306,179.6,678.088,185.207,668.831Zm300.962,20.263c1.264-1.538,2.06-2.112,2.308-2.867,3.73-11.341,4.172-22.617-1.1-33.649-.394-.822-1.672-1.222-2.539-1.819-.408,1.046-1.2,2.106-1.164,3.134q.56,14.274,1.394,28.536C485.169,684.279,485.66,686.107,486.169,689.094Zm-65.9,5.486c.534-1.034,1.435-2.031,1.544-3.108.851-8.43,1.7-16.867,2.188-25.323.114-1.967-.984-4.089-1.86-5.983-.3-.649-1.629-.821-2.488-1.211a8.3,8.3,0,0,0-.525,2.443c.384,4.007,1.111,7.993,1.293,12.006.146,3.229.9,7.454-.759,9.53C416.163,687.321,419.3,690.621,420.269,694.58ZM148.3,321.9c3.943,1.172,3.306-1.434,3.325-3.536a17.372,17.372,0,0,1,.529-2.967c-1.733-.252-4.488-1.306-5.026-.62-2.686,3.426-4.065.146-5.756-.809-1.623-.917-2.947-2.365-4.576-3.266a2.483,2.483,0,0,0-2.287.837c-.845,1.589,5.383,9.475,7.147,9.234.094-.012.172-.161.262-.167a11.168,11.168,0,0,1,3.019-.113A19.456,19.456,0,0,1,148.3,321.9ZM328.834,583.423l.016.039c1.209-.858,2.929-1.454,3.527-2.624a35.222,35.222,0,0,0,3.427-9.016c.54-2.741-2.387-9.18-2.446-9.037-1.625,3.969-3.179,7.967-4.7,11.912A11.543,11.543,0,0,0,328.834,583.423ZM225.691,331.343c-.013,3.574,2.652,6.778,5.758,6.565,3.507-.24,4.734-2.706,4.632-5.843-.112-3.436-1.336-6.258-5.369-6.407C226.864,325.517,225.745,328.015,225.691,331.343Zm-60.45,72.213c-5.063-11.987-5.612-24.008-.147-37.02C155.954,378.557,156.074,395,165.241,403.556Zm89.7,157.687-1.393.309c-1.894,5.182-.87,10.272,1.235,15.137.939,2.172,2.708,4.006,4.234,5.886a1.328,1.328,0,0,0,2.253-1.4C259.212,574.52,257.068,567.884,254.945,561.243Zm-44.786,9.263c2.744-18.262-2.474-35.956-4.563-53.9ZM449.946,315.963a74.155,74.155,0,0,1-6.805,4.329,74.263,74.263,0,0,1-8.617,3.428c-1.073.367-2.431-.055-3.463.364-.342.138-.475,2.2,0,2.654,1.061,1.012,2.571,2.207,3.878,2.184C439.063,328.852,448.418,320.95,449.946,315.963Zm-228.157,44.21c7.5,1.416,10.86.413,15.993-4.626C228.274,353.839,226.276,354.392,221.789,360.173Zm-16,227.873q-5.73,12.9-11.459,25.795C201.6,606.781,205.115,598.046,205.791,588.046Zm-7.084-233.288c-3.726-11.2-4.68-13.257-.734-25.781C189.96,335.967,190.086,346.608,198.707,354.758Zm3.9-17.882c-.246,4.221-2.544,9.575,1.762,14.2.881.948,2.674,1.049,4.047,1.54-.046-1.348.294-2.862-.2-4.012C206.413,344.452,204.329,340.419,202.611,336.876ZM166.5,344.382l1.3.333,3.987-25.409-1.217-.2C166.65,327.1,168.084,336,166.5,344.382Zm21.6,105.546c1.67,3.732,3.186,7.206,4.8,10.633.245.519.956.819,1.451,1.22a5.059,5.059,0,0,0,.726-1.312,32.522,32.522,0,0,0,.906-5.542,3.073,3.073,0,0,0-1.543-2.135C192.505,451.738,190.421,450.95,188.1,449.928Zm-30.369-115.6-.314.5,6.564,5.624c.491-6.14.934-11.682,1.377-17.223l-.946-.132c-.915,4.426-1.829,8.852-2.763,13.369Zm57.218,232.213c-3.589,4-4.024,10.675-1.083,14.073C214.266,575.461,214.609,571,214.952,566.543Zm116.871-50.392c-6.985,3-12.3,8.051-19.625,5.389C317.968,525.371,326.978,523.179,331.823,516.151Zm-9.967,82.208-.474-1.166L306.043,602.7C312.114,603.623,317.433,602.33,321.856,598.359Zm-65.323-91.582c-1.194-8.142.839-13.949,8.015-17.121C257.272,490.57,252.462,499.955,256.533,506.777Zm185.241,161.5-3.137,6.951,4.663-1.206C442.892,672.486,442.485,670.953,441.774,668.275ZM94.285,315.766l-.216.148,4.587,4.683.191-.177Z"/><path d="M345.048,296.163q-.926,6.171-1.852,12.341l-1-.042c0-3.662-.275-7.351.06-10.983.592-6.419,7.081-12.288,13.876-12.888.4-.035,1.136.306,1.2.589.355,1.58,1.227,3.507.663,4.737-1.25,2.723-3.234,5.113-4.944,7.62a36.094,36.094,0,0,0-6.135,21.015c0,.665.781,1.327,1.2,1.991.6-.514,1.464-.916,1.73-1.565.732-1.786,1.211-3.677,2.514-5.321v2.393c1.754-1.833,3.65-4.441,6.152-6.172,1.285-.888,3.653-.2,5.532-.239.283,0,.658.057.836-.094,5.528-4.676,11.333-2.586,17.05-.6,2.908,1.01,6,1.974,8.435,3.751a133.842,133.842,0,0,1,11.212,9.837c.248.228-.135,1.144-.26,1.975,1.308,2.028,2.976,4.6,4.625,7.181a18.073,18.073,0,0,1,1.722,2.9c1.244,3.118,3.137,6.127-.526,9.264-1.084.928-.689,3.551-1.04,5.384a5.542,5.542,0,0,1-.7,1.939c-2.151,3.325-4.3,6.658-6.565,9.9q-3.44,4.92-7.3,9.535c-.554.809-1.012,2.223-1.677,2.328-3.543.558-6.792,2.242-10.065-2.194-3.959-5.368-10.752-4.8-16.836-4.145-2.269.244-4.438,1.418-6.686,2.18a5.157,5.157,0,0,1-2.5,8.28,2.059,2.059,0,0,1-1.494-.282,17.543,17.543,0,0,1-8.472-14.271,142.991,142.991,0,0,1-.142-14.331c.175-5.357.78-10.7,1-16.057.392-9.411.6-18.828.964-28.24.1-2.521.453-5.031.691-7.547Zm42.519,64.127c6.366-.858,12.305-8.045,13.846-15.951,1.091-5.6-3.093-14.214-8.5-17.346C398.357,339.037,398.588,350.27,387.567,360.29Zm-14.935-5.357c2.383,4.324,10.648,5.029,13.678,1.106,3.983-5.156,4.426-11.349,4.141-17.718C388.152,347.824,382.622,353.774,372.632,354.933Zm12.31-18.716a6.607,6.607,0,0,0,1.4-8.711,4.7,4.7,0,0,0-3.982-2.119c-3.248-.143-5.234,1.735-5.244,5.2-.01,3.541,3.118,7.315,6.151,6.553A4.3,4.3,0,0,0,384.942,336.217Zm-35.157,15.175c-3.418,8.327-1.019,11.813,7.528,10.914Zm15.587,1.4c-1.868-2.308-3.556-4.48-5.354-6.558a8.441,8.441,0,0,0-1.991-1.29,8.465,8.465,0,0,0-.936,2.369C356.849,350.769,359.793,352.763,365.372,352.789Zm-18.984-5.648h-.142v6.9l.142,0Z"/><path d="M328.34,266.674c-1.155,5.626-2.195,11.278-3.5,16.87a148.253,148.253,0,0,1-4.9,16.81c.5-6.085.953-12.175,1.531-18.253a70.169,70.169,0,0,1,1.455-10.645c.51-2.007,2.194-3.716,3.35-5.558Z"/><path d="M225.77,391.923c-4.863,5.331-9.7,10.687-14.623,15.96-.57.61-1.629.763-2.546,1.164-.134-.6-.281-.922-.208-.984,7.357-6.25,10.429-16.487,19.585-21.065.737-.368,1.4-.877,3.208-2.02-2.373,3.039-3.929,5.032-5.486,7.024Z"/></svg>