<?xml version="1.0" encoding="utf-8"?>
<!-- Generator: Adobe Illustrator 24.2.3, SVG Export Plug-In . SVG Version: 6.00 Build 0)  -->
<svg version="1.1" id="Layer_1" xmlns="http://www.w3.org/2000/svg" xmlns:xlink="http://www.w3.org/1999/xlink" x="0px" y="0px"
	 viewBox="0 0 900 841.9" style="enable-background:new 0 0 850 841.9; fill: #215342;" xml:space="preserve"
	 height="385" width="450" transform="translate(50, -25)">
<g>
	<path d="M440,401.9c-1.3,0.7-1.2,1.9-1.1,3.1c0.8,6.7,0.1,13.6,2.6,20.4c-2.7-0.1-4.1-2.4-7.4-3.2c3.9,4,8,6.5,10.6,10.2
		c-4.2,3.1-9.1,3.6-14.2,5.7c4.6,0.9,8.2,0,11.9-0.6c-5,1.7-10,3.4-13.9,7c1.1,1.5,2.1,0.4,3.3,1c-0.6,1.4-1.2,2.7-1.8,4.2
		c1.9,0,1.4,1,0.4,2.7c2.1-1.3,3.6-2.2,5.1-3.1c0.2,0.2,0.3,0.3,0.5,0.5c-1,1.2-2,2.4-3.4,4.1c1.7-0.9,2.7-1.5,4.5-2.5
		c-4.1,7-9.3,11.7-16.5,15.2c3.6,1.2,5.7-1.4,8.9-0.8c-2.9,3.8-5.6,7.4-8.6,11.4c-0.2-1.5-0.3-2.8-0.5-5.4
		c-0.6,4.9-1.1,8.6-1.6,12.2c2.8-6.8,8.3-11.5,12.3-17.3c-1.5,5.8-5.3,10.4-8.1,16.6c4.9-3.9,6.7-8.8,9.6-13
		c-1.2,6.4-4.5,11.7-8.7,16.5c3.7,2.4,0.6,5.4,1.1,8c4.4-11.5,12.7-21.6,13.1-34.6c-0.9,0.4-2.1,1-4.3,2c3.8-6.2,7.5-10.6,13.9-12.2
		c-6.2,6.6-10.4,14.4-10.5,23.3c-0.1,9-8,15.7-6.1,25.7c0.9-1.9,1.5-3.1,2.8-6c-0.8,5.3-0.9,8.9,2,11.9c-0.4-10.7,0.5-17.8,3.3-22.4
		c-6.5,13.9,2.2,21.4,11.5,28.7c-2.7-4.1-5.7-8.1-7.1-12.9l0,0c1.7-2.8,0.4-6.1,1.6-9.1c1.1-2.5,1.9-5.2,5.2-8.1
		c-5,9-7.4,16.6,0.7,24.5c-0.3-2.5-0.5-4.1-0.8-6.1c0.9,2,1.7,3.7,3.2,6.9c-0.2-3.6-1.4-5.4-0.6-7.6c1.9,3.7,4.2,6.9,8,10.2
		c-0.3-5.5-0.9-10.3,0.5-14.9c0.4-1.2,0.6-2.4,1.1-3.6c1.8-4.3,3.7-4.7,7-1.4c0.9-0.5-0.7-1.7,1-2.2c0.5,6.7,0.9,13.2,1.4,19.8
		c7.4-7.3,4-18.2,7.8-28.4c-0.7-2.4,1.1-6,2.8-10.4c0,2.7,0,4.8,0,6.9c1.5-4.2,3.4-8.1,3.5-12.8c0.1-5.9-2.2-10.8-4.3-15.9
		c-1-2.4-0.5-4.5,1.3-6.7c0.6,2.8,0.1,5.6,2,8.1c2.1-4.1-0.4-8.6,2.3-12.3c0,2.5,0,5.1,0,7.6c0.3,0,0.6,0,0.9,0c0.3-3,0.6-5.9,0.9-9
		c1.3,0.8,2.6,1.5,3.9,2.3c1.8,1.1,0.5,2.8-0.2,3c-5.3,1.9-2.6,6.3-2.9,9.8c0.6-1.6,1.3-3.2,2.2-5.5c0.4,4.8-0.1,8.8-1.4,13.2
		c1.7-1.2,2.9-2,4.7-3.3c-1.3,3.2-4.1,4.5-4.5,7.8c1.6-1.1,2.9-2,5.1-3.7c-2.6,4.2-4.6,7.4-6.6,10.7c0.9,1.2,2-0.7,2.9,0.9
		c-1,1.6-2.1,3.4-3.3,5.3c0.2,0.1,0.4,0.3,0.6,0.4c1.3-1.5,2.6-3,4.5-5.2c-2.6,6.7-8.3,11.6-5.7,18.8c-4.1,1.2-1,5-2.7,7
		c-2.1,0.7-1.5-1.7-2.7-2.1c-1.1,3.5,1,7.1-0.8,11.1c0-2.9,0.1-5.3-1.2-8.2c-1.5,5.8-1.1,11.3-2.5,16.5c1-1.7,2-3.4,3.7-6.3
		c-0.2,3.6-0.2,5.9-0.4,8.2c-0.1,1.1-0.7,2-2.2,1.4c-4.7-2.2-8.7,0.6-12.1,2.9c-1.6,1-1,4.6,0,7.2c-2.9,1.2-4.5,0.1-5.3-2.9
		c-2,1.5-3.1,1.3-3.6-1.2c-0.3-1.9-6.3-4.7-7.7-3.8c-0.4-0.6-0.8-1.3-1.4-2.1c-0.4,0.5-0.7,0.9-1.2,1.6c-0.1-3.3-2.7-2.2-4.3-2.9
		c-1-0.4-1.6-0.3-2.2,0.7c-0.7,1.2-2.4,1.6-2.9,0.5c-1.2-2.2-3.3-2.6-5.2-3.5c0-0.2,0.1-0.4,0.1-0.6c-0.2-0.3-0.3-0.6-0.5-0.9
		c0,0-0.2-0.2-0.2-0.2c-0.2-0.4-0.4-0.8-0.6-1.2c1.1-1.1,0.2-1.7-0.6-2.3c-0.3,0-0.7,0-1,0c0.1,0.8,0.2,1.6,0.3,2.4
		c-1.1,2.1-3.5,0.4-4.9,2.6c-0.5-2.8-0.8-4.6,1.4-5.8c-2.2-5.3-6.2-7.4-11.5-7.4c-1.9,0-2.6-0.8-2.4-2.6c0.4-6.4,0.7-12.8,1-19.2
		c0.2-5.2-2-9.8-4.3-14.5c3.4,2,4.1,4.5,6.6,22.6c0.1-13.6,1.5-27.4-5.9-40.1c3.9,3.1,5,7.7,6.8,12c2.4-4.6-4.4-21.6-11.1-27.7
		c-0.2,0.5-0.4,0.9-0.5,1.4c-1.1-1.9-2.2-3.8-3.3-5.7c-0.2,0.1-0.4,0.2-0.6,0.3c0.5,1.3,1,2.6,1.4,3.9c-7-8.5-11.2-19.2-20.3-26.2
		c4.2,0.5,7.1,3.2,10.6,5c-6.9-7.4-14.6-14-24.6-20.3c2.9,0.3,4,0.4,5.4,0.6c-2.8-3.7-7-5.1-10.2-8.2c2.5-1.2,4.3,0.6,6.9,1.1
		c-4-4.1-9.2-4.6-13.9-7.3c3.1-1,5.6,0.5,8.8,0.3c-5.4-4.7-11-7.2-18.6-7.6c1.6-0.8,2.3-1.1,3.6-1.8c-2.8-0.6-5-1.1-7.2-1.6
		c4.9-0.6,9.9,1.7,14.7-1.7c-3.1-1.7-6.5-3.5-10.5-5.7c6.2,0.1,10.1,3.4,14.3,6.5c-0.9-3.9-3.9-6.5-12.7-10.9c1.4,0,2.4,0,3.6,0
		c-0.7-1.5-2.2-1.7-3.3-2.4c-1.2-0.7-2.8-1-3.3-2.7c1.5,0,2.9,0,4.9,0c-1-0.6-1.5-0.9-2.3-1.4c3.4-0.9,7.1-1.6,2.7-5.9
		c-1-1-0.3-2.8,0.8-4c1.8-1.9,3.2-3.9,0.3-6.3c-0.5,0.4-1.1,1-2.2,2c0.3-1.4,0.4-2.2,0.6-3.3c-3.9,1.1-6.2,5-11.2,5.5
		c3.7-4.1,6.4-7.8,7.3-13.4c-1.9,2.7-2.6,5.4-5.3,7.3c-0.6-4.1,2.3-8.1-0.9-11.7c-0.4,0.8-0.8,1.5-1.2,2.4c-2-1-0.5-3-1.7-4.3
		c-1.4,1.9-3.6,2.9-6.2,4.3c0.8-4.5-0.8-8-2.2-11.5c-0.6-1.5-1-3.1-2.5-3.7c-4.4-1.7-2.8-5.1-2.8-8.2c2.1,0.7,2.3,5.2,5.2,3.1
		c2.4-1.8,1.1-4.7-0.5-7c1.1-0.6,1.5,1.4,2.7,0.3c0.3-2.4-2.4-4.5-1.5-7.7c1.2,1.8,2.3,3.4,4.2,6.2c-0.5-3-0.8-4.4-1.2-6.8
		c1.1,1.4,1.7,2.1,2.1,2.7c2.3-5.3,4-10.5,4.1-16.6c0.2-8.8,11.7-17.5,22.7-18.5c8.5-0.7,15.7,2.5,17.8,7.9
		c-8.3-8.2-18.1-8.8-29.5-2c-7.5,4.5-11.6,13.4-9.2,21.5c0.4-2.2,0.6-3.7,1-6.3c0.4,2.2,0.5,3.2,0.8,4.9c2-4.1,2.6-8.3,6.4-11.1
		c-1.3,3.3-2.4,6.2-3.5,9.2c-1.1,3.1-1.5,6.2-0.7,9.6c1.1-9.2,5.3-16.2,14.1-20c-5.3,5.4-12.3,9.8-11.8,19.5
		c2.9-6.1,6.3-11.3,11.4-15c5.2-3.8,11-5.3,17.4-5.2c-7,1.6-14,3.3-18.9,9.8c5.5-4.2,11.3-5.7,18.8-5.4c-3.2,1.4-5.7,1.6-8.3,4.1
		c5.9-1.6,10.9-2.4,16-0.3c-6.1-0.7-11.5,1.2-16.7,3.8c-5.4,2.7-9.5,6.5-11.7,12.7c15.8-11,17.3-11.8,23.4-11.2
		c-7.3,1.6-13.3,3.6-18.5,9.8c5.3-2.3,9.5-4.1,13.7-5.9c-1.9,2.9-4.9,4.8-5.8,9.5c5.1-3.7,9.1-7.4,15-7.2c-0.4,0.5-0.7,0.9-1.1,1.6
		c1.3-0.1,2.5-0.6,3.4,0.5c-2.1,2.1-5.7,1.2-7.7,3.8c1.9,1.3,4,0.1,5.9,0.7c-2,1.3-4.7,1.3-6.6,4.1c3.7-0.2,6.8-0.3,10-0.5
		c0.3,1.9,2.9,3.4,0.9,5.3c4.4,3.2,9.7,2.3,15.4,4.4c-2.9,0.7-4.6,1.1-7.3,1.7c1.9,0.6,3,0.9,4.4,1.3c-0.7,0.6-1.2,1-2.3,1.8
		c7.1,1.9,14.9,1,19.8,7.4c-6.6-3.8-13.1-7.2-21.3-3.8c1.6,0.3,3,0.6,4.9,1c-1.2,0.7-2,1.2-3,1.7c10.7-0.1,17.5,5.7,22.8,14
		c-6.7-6.8-13.1-14-24.8-10.9c2,4.5,6.3,3.9,9.6,5.2c-1.1,0.1-2.3,0.2-4.4,0.4c4.5,4.1,9.6,6.7,12.3,13c-2.6-2.8-4.6-4.8-8.3-6.6
		c5.2,6.3,11.1,10.5,12.2,18c-2.2-4.6-4.8-8.8-10-12.2c2.8,7.3,8.3,12.6,8.4,20.6c-1.6-2.2-2.9-4-4.6-6.4
		c-0.1,10.7,4.9,19.5,6.8,29.5c-1-0.4-1.5-0.6-2.6-1.1c-0.1,10.8,3.2,20.1,8.8,30.1c0.8-6.9-1.6-12.5,0.2-18.1
		c-1-5.6-1.7-11.5-5-16.7c1.9,2.6,4.3,4.7,7.3,5.9c-1.3-21,1.3-42.6-7.1-63.2c0.6,0.1,1.2,0.2,2.3,0.3c-2.1-4.3-5.6-7.2-8.3-11
		c2.8-0.5,2-1.9,0.8-3.3c-2.7-3.3-5-6.9-8-10.1c1.6,0.8,3.2,1.7,5.3,2.7c-2-3.5-5.4-5.1-7.8-7.7c1.7-1.5,3.6-0.3,5.4-1
		c-3.1-3.4-8.1-1.7-11.5-4.2c1.5-2,3.6-0.8,5.4-2c-3.2-2.7-6.9-4.9-8.5-10c1.9,1.4,3.2,2.4,5,3.7c-2.7-5.3-8-6.4-11.9-9.2
		c0.2-0.4,0.4-0.9,0.6-1.3c5.1,2.3,10.3,4.5,15.4,6.8c-5.1-6.6-12.1-10.5-18.9-15c7.2,2.5,14.1,7.1,21.9,2.9
		c-1.8-0.3-3.8-0.6-5.8-0.9c6.7,0.2,13.1-1,19.6-2.4c-2.5,2-5,3.6-6.8,6.9c3.9-1.4,7.3-2.9,11.8-2.8c-2.9,1-4.9,2.1-6.3,4.3
		c2.2-1.1,4.4-2.1,7.5-3.7c-2.4,2.9-5.5,3.4-6.9,6.3c5.1,0.4,9.6-2.8,15-1.3c-2.7,1.2-5.6,1.1-7.6,4.2c3.9-1.1,7.2,0,11.7,0.4
		c-3.9,1.2-7.3-0.3-9.8,2.3c5,4,10.7-0.6,15.5,2c-3.1,0.7-6.3,1.4-10.4,2.4c3.8,1.4,7.2,0.7,10.3,3c-4.6-0.5-8.8-1.7-13.1,1.1
		c3.8,1.6,7.8,1.9,10.9,4.2c-0.7,1.6-2.5-0.4-3.3,1.3c2.8,1,5.6,1.9,8.5,2.9c-5.3-0.8-10.3,0.4-15.3,1.9c6.8,1.3,14.5-1.1,20.4,5.1
		c-2.2-0.4-4.1-0.7-6.8-1.2c15.6,21,34,37,58,46.2c-18.4-5.2-33.6-15.6-47.2-29c1.6,2.5,3.1,5.2,5,7.6c4,5.2,8.2,10.3,12.3,15.5
		c1.3,1.6,3.5,1.6,5.1,2.7c2.2,0.6,2,2.6,2.3,4.3c0,5,6.4,6.1,6.5,11.1c0.3-3.9-1-7.4-2.3-10.8l0,0.1c8.9,5.6,3.2,13.6,3.3,20.5
		c0.1,3.4-2.2,6.9,0.2,10.3c-3.9,2.6-5,9.4-2.3,14.4c0-2.6,0-5.3,0-9.7c0.9,4.4,0.5,7.3,2.5,10.9c0.5-5.9,0.5-10.6,0-15.4
		c0.7,1.7,1.5,3.3,2.4,5.4c3.1-7.9-1.7-15.6,0.6-23.7c2.7,6.7,3.5,13.2,2.5,19.7c-0.5,2.8,0.8,5.3,0.2,8c-0.2,0.8,0.8,1.5,1.6,1.2
		c2-0.5,0.3-1.9,0.7-3.1c1.3-0.4,2.8-0.9,5-1.5c-4.1-1.9-3.3-5.2-3.5-8.4c-0.5-9.2-0.1-18.7-5.5-27c-0.9-1.3,0.7-1,0.7-1.6
		c-0.7-0.6-1.4-1.2-2.1-1.8c6.5,2.7,13.2,3.6,21.3,1.7c-3.2,2.2-5.7,2-9.8,3c11.9,4.1,18.6,11.6,21.5,22c-3.7-1.6-7.9-3.5-13.4-5.8
		c5,8.5,15.5,10.6,17.4,20.4c-1.7-1.8-3.1-3.4-4.6-4.9c4.2,13.9,7.4,28,10.4,42.2c-2.6-4-3.7-8.5-5-13c-1.9-6.8-4.3-13.3-8.3-19.1
		c-0.7,0.3-1.3,0.6-2,0.8c5,10.9,10,21.7,15,32.6c1.2,4.2,1.8,8.5,1,12.9c-0.5,3.2,2.8,5.1,3,8.7c-2-1.5-3.7-2.9-5.5-4.3
		c0.1-0.1,0.1-0.3,0.2-0.4c1,0.5,1.9,1,4.1,2.2c-5-7.9-11.2-8.9-19.4-7.2c2-1.2,3.2-1.9,5.5-3.3c-3.4,0.5-5.6,0.7-8.1,1.1
		c1.8-2.6,4.3-4.5,4.6-8.2c-3.5,2.6-5.3,7.1-10.3,6.3c0-1.3,2.1-1.8,1.4-3.7c-5.7,2.8-11.5,4.8-18.5,5.7c3.5-2.1,6.9-3.2,8.9-6.6
		c-3.7,1.6-7.4,3.2-11.7,5.1c2.3-2.2,5.2-2.4,6.8-5c-2.4,0.8-4.5,1.6-6.6,2.3c-0.8,0.3-1.7,0.6-2.4-0.3c-0.6-0.9,0.1-1.5,0.5-2.1
		c1-1.6,2.1-3.2,4.2-6.2c-5.5,2.7-8.1,6.7-12.8,8.1c1.7-4.2,4.5-8.2,2.1-13.8c-1.1,5.6-3,9.8-8.1,12.4c2.3-6.6,8.3-11.9,4.6-20.6
		c-0.3,6.4-1.7,11.3-5.5,15.7c-0.2-1.5-0.3-2.5-0.4-4.1c-2.8,4.2-4.7,8.7-9.5,10.8c-0.7-2.7,0.7-5.4-0.6-8.2
		c-1.3,3.3-1.3,6.8-3.8,9.7c0.5-3.3,2.2-6.1,1.5-9.4c-2.5,1.1-1.3,3.8-2.8,5.1c-0.5-2.8-0.9-5.6-1.6-8.4c-0.4-1.6-0.9-3.3-1.9-4.5
		c-1.2-1.5-2.7-4.2-4.6-3.1c-2,1.2,0.6,3.1,1,4.7c1.5,5.1,2.6,10.2,0.1,15.3l0.1,0.1c-1.2-3.8-1.9-7.7-3.6-11.3
		c-3.4-7.3-3.3-15-3.3-23.1c0.9,1.5,1.7,2.6,2.8,4.3c-0.1-3.1-2.9-4.6-2.2-7.8c1.3,2,2.4,3.6,4.2,6.3c-1.1-6.9-1.4-12.6-7.1-16.6
		c-0.1,1.6-0.2,2.8-0.4,5.2c-0.6-2-0.8-2.9-1.1-3.7c2.3,7.9-0.1,16.1,2.4,24.2c-3-0.7-2.9-3.3-4.5-4.6
		C437.8,399.3,439.6,400.4,440,401.9L440,401.9z M443,316.6c-2.4-1.5-4-4.6-7.3-4c-2.2,4.9,0.7,8.8,1.7,13c0.7,2.9,1,6,2,8.8
		c0.7,1.8-2.2,1.9-1.1,4c3.3,5.8,5.7,12.1,10,17.4c1.1,1.3,2.5,2.5,2.8,4c1.1,4.5,4.7,7.2,6.3,10.9c1.7-0.2,0.6-1.3,1.2-1.6
		c2.2,0.2,4.1,2.3,7.9,1.1c-7.9-4.2-11.3-11.2-15.9-17.2c-4.5-5.8-9.1-15.3-9.7-20.4c1.4,5.6,6.9,6.6,11.1,11.1
		c-2.2-7.1-6.8-11.2-9.9-17c1.5,0.8,2.3,1.2,3.7,1.9c-2.5-4.9-4.6-9.2-8-12.9C440.4,314,441,317.6,443,316.6
		c1.9,2.6,3.1,5.8,6.8,7.8c-1.4-7.1-4-12.9-8.8-17.4c-1.7-1.6-4.3-3-7.7-2c3.2,2.7,7.7,2.4,9,6.6c-0.6,0.3-1.3,0.6-2,1
		C441.3,314,442.2,315.3,443,316.6z M361.6,317c-0.6,0.9-1.1,1.8-1.7,2.7c-4.1,6.5-3.7,13.8-2.7,20.7c0.7,4.7,6.5,4,10,5.5
		c0.9,0.4,1.9,0.4,2.8,0.6c10,1.9,19-3.5,21.3-12.9c2.1-8.7-5.1-21.5-13.6-24.3C372.2,307.5,364.2,311.3,361.6,317z M467.4,489.3
		c-7.1,5.8-8.6,28.8-2.1,33.3c0.5-10.2,1.1-20.1,1.6-30.1c0,0,0.1,0,0.1,0c0,5.4,0,10.9,0,16.8c1.9-2.3,1.8-4.6,2.3-6.9
		c0.2,0.8,0.3,1.4,0.5,2.1C470,499.4,471,494.1,467.4,489.3z M443.6,294.7c-3.6,0.3-6.6-1-10,2.7c10-1.9,12,6.4,17.4,11.4
		c-0.2-1.7-0.3-2.5-0.5-4.1c4.7,5.2,6.2,11.7,12.6,15.7c-6.6-10-9.7-20.9-17.8-28.8c-1.6,1.8-3.8,0.3-5.9,0.9
		C440.7,293.2,441.7,293.7,443.6,294.7z M440,356.3c0.4,13.5-0.5,17.1,5.5,16.4c-0.3-2.2-1.5-4.3-1.1-6.7c9.4,4.8,14.9,12.6,19,23.2
		C462.2,372.6,448.8,366.8,440,356.3z M384.1,358.4c5.9,3.1,8.9,8.4,14.2,11.1c3.6,1.9,6.9,4.2,8,8.7c0.5,2.3,1,5.2,4.7,5.8
		c-1.4-3.5-2.3-6.8-3.9-9.7c-1.7-3-5.4-4.2-7.1-7.6c0.9-0.2,1.5-0.3,3.6-0.8C396,364.1,392.7,356.5,384.1,358.4z M458.2,343.5
		c0.8,4.9,1.3,8.2,1.8,11.9c-1.7-1.9-1.2-4.6-4.1-5.9c-0.2,3.4-0.2,6.7,1.9,8.7c3.9,3.7,8.3,6.7,14.6,6
		C463.6,360.7,463.1,351.5,458.2,343.5z M486,349.7c-3.8-5.8-6.6-11-13-12.9c0.8-0.6,1.9,0.5,2.5-1c-3.3-3.8-6.7-7.7-10.1-11.6
		C468.3,335.5,475.1,343.6,486,349.7z M391.6,388.4c2.7,8.2,16.8,23.9,20.3,22.8C405.5,403.4,399.2,395.5,391.6,388.4z M415.9,254.8
		c-2.2,0.8-4.1,1-5.5,2.7c0.6,0.2,1.2,0.4,2,0.6c-3.4,2.1-6.8,1-11.2,0.7c4,3.1,6.4,6.6,10.4,7.3c2.5,0.4,3.2-2.8,4.8-4.9
		c-2.8-0.3-5.2,1.2-7.6-0.2c3.2-0.9,5.9-2.3,8.3-5c-1,0.2-1.7,0.4-2.5,0.6C415.2,256.1,415.4,255.7,415.9,254.8z M479.4,358.4
		c-5.4-0.6-4.5-6.3-7.9-8.4c-1.7,7.5,2.1,14.1,7.5,13C479.3,361.5,476.9,360.1,479.4,358.4z M518.6,410c3.5-6.9,3.1-10.6-1-12.8
		c-3.6,4-3,8.3-0.8,13.1c0.3-0.9,0.5-1.6,0.8-2.5C518.1,408.7,518.3,409.2,518.6,410z M413,433.3c3.6,7.8,7.2,15.6,10.8,23.4
		C423.5,447.3,419.9,439.5,413,433.3z M395.2,332.7c-2.4,4.2-3.5,8.2-6.6,10.9c-3.2,2.9-7.1,3.8-12.6,4.7c7.5,1.2,12.4-1.4,16.4-5.2
		C394.7,340.9,396.6,337.6,395.2,332.7z M518.5,352c-4.5-2.9-8.5-5.7-13.3-6.9c4.1,4.4,8.2,8.6,13.7,11.6c0.4-2.4-1.8-2.7-2.3-4.2
		C517.1,352.4,517.5,352.3,518.5,352z M355.5,365.8c8.1,3.2,15.1,8.2,21.5,13.9C370.9,373.5,365.7,365.7,355.5,365.8z M432.4,300.1
		c3.2,3.2,7.3,3.3,11.3,5C442.2,299.2,437.4,297.3,432.4,300.1z M400.9,391c1.8,4,3.9,6.6,7.7,7.5c0.8,0.2,1.6,0.3,2.1-0.5
		c0.5-0.8,0.1-1.6-0.5-2.1C407.5,394.1,404.8,392.1,400.9,391z M390.5,368.2c0-3.4-4-6.2-7.6-5.4
		C384.3,367.3,385.4,368.1,390.5,368.2z M405.3,361.3c-1.4-5.8-6-9-10.2-7.7C398.4,356.1,401.6,358.4,405.3,361.3z M408.7,416.9
		c2.5,3.9,4.4,8.3,10.3,10.6C415.5,423.1,412.6,419.5,408.7,416.9z M494.2,392.9c0.9,4.5,4.7,5.5,7.9,7.4
		C499.5,397.8,496.8,395.3,494.2,392.9z"/>
	<path d="M263,277.7c1.2,1.7,2.5,3.3,4,5.5c-2.8-12.6-11.1-22.1-26-18.1c3.4-2.2,8.5-3.3,12.5-2.6c-1.1,0.4-1.8,0.7-3.2,1.4
		c10.3,1.5,15.5,7.7,18.1,16.9c1.1-3,1.1-3-4.1-12.3c1.9,1.7,3.9,3.5,5.9,5.3c1.2-1.6-0.6-3-0.2-4.6c5.2,3.1,5,8.6,6.2,14
		c0.8-4.2,0.4-7.8,0.1-11.8c1.3,1.5,2.2,2.6,3.3,3.9c0.7-2.5-0.1-4.7-0.3-6.9c1.8,4.3,1.7,8.9,2.1,14.3c2-5.7,2.4-10.6,0.2-16.4
		c6.1,4.5,4.4,10.7,5.8,16.6c2.8-5.8,2-11.2,1.1-17.7c6,7.8,2.3,15,1.3,23.5c4.7-6.8,5.1-12.8,3.4-18.8c-1.4-4.9-4.3-8.5-10.1-9.7
		c-5.5-1.2-11.9-0.1-17.1-5.7c6.2,3.3,12.3,2.8,18,4.3c6.9,1.8,10.1,6.4,11.2,13c0.8,4.8,0.8,9.4-1.2,14c2.8-3.6,3.4-8.4,6.9-11.5
		c-0.7,1.7-2,3.3-1.9,5c0.3,6.1-3.8,10.7-5.5,16.1c2,0.9,3.6,0.3,5.7-0.5c-0.7,6.9-9.3,9.5-7.9,16.7c2.1-3.4,4.2-7,7.5-10.2
		c-2.9,11.2-6.4,15.9-10.5,14.5c-0.6,4.7-2.2,9.3,0.1,14.2c-1.1,0.1-1.9,0.2-2.9,0.3c0.5,2.8,1.9,5.3,1.9,8.1
		c0.1,2.9-1.6,5.8,0.5,8.7c0.5,0.7-0.8,1.4-2,1.1c-2.2-0.6-4.5-1-7.8-1.7c4.1,2.7,8.2,2.8,11.7,6.4c-5.2-1.5-9.5-2.9-14-1.1
		c6.8,3.1,15.7,1.4,21.1,9c-18.1-8.4-24.8-8.8-34.3-3.8c8.6,0,16.8-1.5,26,2.5c-4-0.5-6.5-0.8-8.9-1.1c-11.4-1.7-21.4,2.2-29.9,8.9
		c-6.5,5.2-13.4,10.6-17.1,18.6c-4.8,2.8-10.1,9.9-9.6,12.9c4.6-4.9,9-9.8,13.5-14.6c-0.1-0.1-0.2-0.3-0.3-0.4
		c-0.9,0.5-1.8,1.1-2.6,1.6c2.2-4.4,6.8-5.6,10.7-7.5c7.6-3.7,15.7-5.9,24-7.4c-8.1,3.3-17.2,4.7-24,10.6c-3.8,3.3-6.8,7.3-9.6,10.4
		c1.4-0.4,3.3-2.4,7.2-2.5c-9.1,8.5-19.3,15-21.8,27.4c-0.5-2.8,0.6-5.1,1.5-7.4c1-2.4,2.1-4.7,2.8-7.2
		c-7.9,8.8-15.5,17.6-18.7,29.7c-2,7.9-5.4,15.8-10.3,22.7c-0.7,1-2.1,1.9-1.1,4c2.3-2.3,4.3-4.4,5.4-7.4c3.1-8.4,5.4-17.3,12-24
		c0.8-0.8,1.3-1.9,2.7-2.2c-1.5,3.4-3.1,6.7-5.1,11c0-1.5,0-2,0-2.4c-4.5,10.7-9.1,21.4-17.2,30.3c0.5,0.3,1.1,0.6,1.6,0.9
		c4.1-5.4,8.3-10.9,12.4-16.3c0.1,0.1,0.2,0.1,0.3,0.2c-2.2,4.2-4.9,8.2-6.5,12.6c-1.7,4.8-7.2,6-8.7,10.7c2-1.6,4-3.3,6.4-5.3
		c-0.7,5.3-5.8,8-6.6,14.3c2-3.3,3.4-5.5,4.7-7.7c-0.1,4.7-0.2,9.1,0.8,13.8c-0.5-11,5.4-18.9,12.4-26.3c-4.5,6.7-7.6,13.8-8.1,22.5
		c1.6-2.2,2.1-4.7,4.9-5.7c-0.1,7.2-1.6,14.1-0.9,21.1c0.7,7,2.5,13.7,4.5,20.3c-3.2-5.8-5-12-5.6-18.5c-0.6-6.5-0.1-13.1,0.2-19.6
		c-3.1,5.6-5.2,11.4-3.9,18c-0.2-0.5-0.7-1.1-0.7-1.6c0.3-6.2-3.4-6.6-8.3-6.3c-10.6,0.7-21.3-0.8-31.9,1.6
		c-5.3,1.2-10.8,0-15.7-2.5c-1.2,1,0.2,3-1.8,3.4c0,0,0.1,0.1,0.1,0.1c-1.2-8.3-1.6-16.6-0.1-25.5c-1.1,0.7-1.7,1.1-2.3,1.5l0.1,0.1
		c-0.5-1.8,0.8-2.8,2.1-2.7c1.8,0.2,1.8,1.9,1.2,4.1c1.6-1.4,2.7-2.4,3.8-3.3c-3.3,2.6,1.5,5.7-0.6,8.3c-0.3-0.3-0.5-0.6-0.8-0.9
		c-1.5,1.7,0,3.6-0.8,5.8c8-2.8,11.6-8.7,13.7-16.7c1.2,4.7-1,8.1-1.1,12c0.9-2.1,1.8-4.1,2.7-6.4c0,3.1,0,5.9,0,10
		c3.3-7.3,2.1-13.3-0.2-20.6c4.1,7.1,5.7,13.1,2.3,19.5c2.4,1,2.6,0.7,3.6-4.2c1.1,1.9,0.6,4.1,0.7,6.9c0.8-1.3,1.2-2,1.6-2.7
		c0.7,0.3,1.4,0.7,2.1,1c1.3-1,0.1-1.9,0.2-2.8c0.4,0.1,0.9,0.2,1.4,0.4c-1.1-5.5-2.2-10.8-3.4-17.1c4.1,4.6,6.4,9.3,9.3,13.7
		c-3.5-8.8-7-17.5-11-27.4c6.7,7,6.5,16.7,13.9,23.1c-1.7-4.7-3.1-8.6-4.5-12.4c0.2-0.1,0.4-0.2,0.7-0.3c0.9,1.8,1.8,3.6,2.7,5.5
		c0.2-0.1,0.5-0.1,0.7-0.2c-0.8-4-1.7-7.9-2.7-12.6c2.3,2.5,4.1,4.4,6.9,7.3c-2.3-7.6-5.7-13-9.7-18.5c1.6,1.2,3.2,2.5,6.1,4.8
		c-2.3-4-3.8-6.6-5.5-9.4c0.5-0.1,1.1-0.3,2.1-0.5c-1.7-1-3.1-1.8-4.9-2.8c3.1-1,6.2-0.6,9.3-2.7c-5.5,0.8-10.3,2.1-16.2,0.1
		c5.7,0,10.2,0,14.5-1.5c-4.6,0-9.2,0-12.8,0c12.2-6.7,15.7-18.5,17.1-31.6c1.4,2.5,0.3,5.4,1.3,9.1c0.7-5.8,2.5-10.7-1.7-15
		c-1.6,2.3,0.8,4,0.4,6c-1.3,2.5-1.8,5.5-4.8,7.6c-0.2-4.2,3.4-7.6,0.8-11.7c-0.8,1.8-1.5,3.3-2.3,5.3c-0.6-0.7-1-1.2-1.5-1.7
		c-4.5,12.2-11.2,22-24.8,24.9c4-2.1,8.3-3.9,10.5-8.5c-6.1,4.2-12.4,8-21.1,7.4c3.4-0.7,5.9-1.2,8.3-1.7c-3.2,0.3-5.6-1.5-8-3.2
		c0.2-0.4,0.5-1.4,1.5-1c3.6,1.4,4.6-1.1,4.7-3.6c0.3-6.5,3.7-12.3,3.7-18.8c0-2.2,0-4.4,0-7.7c-1,1.9-1.5,2.9-2.2,4.4
		c-1.7-4.5,0.2-8.4,0.1-12.4c-2.4-0.3-2.9,1.3-3.4,2.8c-2.5,6.9-2.9,14.2-3.8,21.5c-0.2,1.7,0,3.5-1.3,5.4c-5.9-7.7-4.9-16.4-5.4-25
		c-0.6-10.5,10.2-13.3,13.3-21.3c-4.4,1.4-8.9,3.3-13.5,0.1c12.8,3.2,16.5-7,21.9-14.6c0,0-0.1,0.1-0.1,0.1c0.9-0.4,1.8-0.8,3-1.3
		c-3.2,8.2-8.8,14.6-13.2,21.9c12.7-3.7,18.5-13.3,23.4-25.1c-2.6,2.5-3.4,5.4-7,7c4.5-5.4,4.9-11.4,8.2-16.3
		c-0.2,2.2-0.4,4.5-0.6,6.7c0.7-2,1.7-3.7,2.8-5.5c1.4-2.2,4.5-3,5-5.9c3.3,1.1,4.8-1.6,6.2-3.5c3.7-5.3,7.6-10.5,8.6-17.2
		c0.1-0.6,0.6-1.1,1.2-1.6c-1.8,9.8-6.6,18.3-11.8,27.3c2.8-0.3,3-2.4,4.4-3.2c-3.9,12.2-11.7,22.5-17,34.6
		c3.5-4.2,6.2-8.6,9.9-11.5c8-6.2,5.4-15.2,7.1-23.1c0.5-1.3,1.1-2.6,2.1-5.2c-0.8,10-1.6,18.7-2.4,28.5c4.9-9.7,5.1-19.6,8.1-28.7
		c-0.9,5.2-1.1,10.4,0.3,15c3.3-9.1-1.6-19.7,3.8-30.2c-2.2,10.3-3.1,19.4,2.1,27.8c0,0,0,0,0,0c0.1,4.9,2.3,9.4,3.1,14.1
		c1.9,10.5,1.2,20.8-2.5,31.1c4.8-1.9,6-3.6,5.3-7.8c-0.3-1.8,0.8-2.5,1.8-3.3c1.6-1.4,2.4-3.2,2.9-5.7c-0.7,0.8-1.2,1.4-2.3,2.6
		c1.1-6.5,2.1-12.1,3.2-18.3c-1.8,4.5-3.5,8.6-5.1,12.7c-0.5-8.4,1.4-16.1,4.1-24.1c-0.9,1.4-1.7,2.7-2.6,4.1
		c1.4-7.4,3.5-14.1,8.7-19.4c-4.3,3.2-7.4,7.7-12.7,9.5c0.1-0.2,0.1-0.8,0.4-1.1c3.8-4,3.9-10.1,8.3-13.9c1.2-1.1,1.7-4.2,3.1-6.2
		c2.8-4.2,6.7-6.4,11-8.6c3.7-1.9,7.3-3.8,11.2-4.9c-11.2-0.7-19,5.1-26,13.3c8.7-11.6,8.4-27.3,18.3-38.2c-2,4-5.5,7.1-7,13.3
		c5.6-7.4,11-14.5,18.8-14.4c7.3,0.1,15.5,2.2,20.1,9.7c-1.4-1-2.8-2-4.2-3.1c-4.4-3.5-9.8-5.2-15.1-5.6
		c-7.1-0.5-20.6,13.4-21.5,21.3c3.2-2.6,6.5-4.8,8.2-8.6c1.8-4.3,5.3-5.9,9.6-6.3c5.9-0.5,11.4,0.7,16.3,4.2
		c1.6,1.1,3.2,2.2,5.3,3.6c-0.2-3.7-2.8-5-4.8-6.8C259,276.2,260.5,278.9,263,277.7z M219.7,381.9L219.7,381.9
		c1.1-0.7,2.2-1.5,3.3-2.2l0,0.1c-0.1-0.5-0.2-1.1-0.3-1.6c3.3-0.4,5.4-2.5,6.9-5.3c2.3-4.2,5.4-8,8.4-11.3
		c2.9-3.1,3.5-6.6,6.1-10.5c-3.9,0.6-7.3-0.2-10.6,2.3c1.4-0.1,2.4-0.2,4-0.4c-5.8,5-13.1,4.3-18.8,8c5.2-1.1,10.3-2.1,15.5-3.2
		c0,0.1,0.1,0.2,0.1,0.4c-2.3,1-4.6,1.9-6.9,2.9c0.1,0.2,0.2,0.4,0.2,0.6c1.3-0.2,2.6-0.5,4.5-0.8c-2.7,3.6-6.7,4.3-9.2,7
		c-3,1.8-6,3.7-8.9,5.5c4.3-2,9.8-1.2,12.8-5.7c1-0.3,1.9-0.6,3.7-1.1c-7.3,7.8-16.5,11.9-24,18.2c6.6-2.1,11.8-6.3,17.6-10.6
		c-0.3,2-2.3,2.4-1.7,3.9c-1,1-2.1,1.9-3.1,2.9c-0.2,0.2-0.4,0.4-0.6,0.6c-0.1,0.1-0.3,0.3-0.4,0.4c-2.4-1.1-3.8,1-5.4,2
		c-4.8,2.7-9.5,5.6-14.5,10c2.9-0.6,4.3-2.5,6.8-1.8c-3.8,5.2-10,7.6-11.7,14.2c2.9-3.2,5.7-6.4,8.6-9.6c-3.2,5.7-6.9,11-12.6,16.2
		c2.1-0.8,3-1.1,4.2-1.6c-3.4,4.7-7,8.9-8.9,14c4.6-5.5,9.2-11,13.1-16.9c6.3-9.3,10.6-19.9,20.3-26.6c0.1-0.1,0.3-0.3,0.4-0.4
		C219,381.7,219.4,381.8,219.7,381.9z M269,326.7c0-1.7,0.1-3.5,0-5.2c-0.6-6.7-2.4-13-9.3-15.9c-6.8-2.8-12.6,0-17.5,4.6
		c-5,4.7-7.8,10.8-10.6,16.9c-1.7,3.7-1,7.2,1.7,10.2c5.2,5.9,12.1,6.4,19.2,5.5C264,341.2,269.4,336,269,326.7z M185.4,473.4
		c-0.1-5.8,2.2-11.4,1.7-17.5c-0.5-5.6,2.9-11,5.5-16.1c6.3-12.3,17-21.9,20.9-35.8c1-3.7,0.8-7.7,2.1-11.6
		c-3.1,3.8-6.1,7.6-9.4,11.7c-0.2-0.8-0.3-1.3-0.6-2.7c-3.9,5.6-7.4,10.6-11,15.6c0.2,0.1,0.3,0.3,0.5,0.4c2-2.5,4.1-4.9,6.1-7.4
		c0.2,0.1,0.4,0.3,0.6,0.4c-3.5,5.5-7,11-10.5,16.4c0.2,0.1,0.3,0.2,0.5,0.3c0.8-0.7,1.6-1.4,2.4-2.1
		C183.3,440,187.1,457.3,185.4,473.4z M166.3,384.2c0.6-4.9,3.2-8.5,4.3-12.6c2-7.5,4.6-14.6,11.7-18.9c2-1.2,1.6-3.6,1.6-5.8
		C172.8,355.3,161.7,378.5,166.3,384.2z M235,281.9c9.6-4.2,16.6,1.8,24.2,5.6c-2.9-4.7-5-9.8-11.6-10.6
		C242.4,276.2,238.5,278,235,281.9z M238.1,284c-5.2-1.3-17.1,8.3-18.5,14.7c4.5-3.1,9.1-5.5,14.1-7.6c-0.7-0.4-1.1-0.6-1.7-0.9
		c2.3-2,5.1-2.6,8.4-3.7c-1.9-0.8-3.2-1.4-4.6-2C236.5,284.4,237,284.3,238.1,284z M154.5,370.4c-3.4,11-0.9,22.8-4.7,33.8
		C156.3,393.5,156,382,154.5,370.4z M164,373.5c-3.3,11.2-3.6,23.2-8.9,34.2C160.3,407.5,162.4,399.1,164,373.5z M160.5,362.4
		c-2.3,1.7-5.6,1.3-5.2,4.5c0.5,4.4,1.5,8.7,2.5,13.9c0.9-7.7,4.9-13.3,7.5-21c-3.7,4.1-5.3,7.8-6.8,11.5
		C159.1,368.6,159.7,365.9,160.5,362.4z M268.5,309.7c-3.5-7.6-8.5-9.9-14.8-9.9c-7.3,0-17.2,7.5-20.3,15.4
		c5.2-4.9,8.8-11.3,15.9-13.2C256.7,299.9,262.7,302.4,268.5,309.7z M228.8,331c-0.9,4.9,0.9,10,4.5,11.8c8,4.1,16.3,3.4,24.7,1.3
		c0.7-0.2,1.3-0.9,2.4-1.7C236,345.3,232.2,343.9,228.8,331z M224.4,382.1c1.3,0.8,3.6-2.5,3.5,1.4c3.9-4.7,6.7-9.7,11.6-14.1
		C231.3,370.6,229.6,378.1,224.4,382.1z M168.9,351.1c1.4-3,6.1-4.2,3.4-8.8c-0.6-0.1-1.4-0.2-2.4-0.4
		C169,344.9,166.6,347.5,168.9,351.1z M157.7,385.4c-0.5,9.9-0.8,19.8-9.2,27.1C157.7,405.6,157.9,395.5,157.7,385.4z M142.7,369
		c-5,1.4-7.7,5.9-6.8,11C138.3,376.2,140.3,372.9,142.7,369z M285,314.2c2.2-3.3,4.9-6,5.8-11.5C287.9,307.1,282.6,308.5,285,314.2z
		 M279.1,328.5c1-3.3,0.8-6.6,0-11C277.2,322,277.2,325.2,279.1,328.5z"/>
	<path d="M264.2,601.4c-2.6,3.4-3.8,7.4-4.9,11.4c-1,3.9-2,7.9-1.4,13.1c-4.8-6.8-4.1-13.5-4.5-20.1c-1.7,3.9-0.9,8-1.2,12.9
		c-2.1-4.7-1.3-8.7-0.9-13.3c-2.9,2.3-2.1,6.3-4.9,8.1c-1.4-5.2-0.3-10.1,1.8-14.9c-2.8,4-6.1,7.8-4.7,13.5c-2.5-5-0.9-10-0.8-15.2
		c-2,0.8-1.7,2.8-3.1,4.1c-1-3.8,0.8-7.2,1-10.9c-0.4,0.2-0.8,0.4-1.3,0.6c-0.3-1.7,0.6-3.2,1.7-5.4c-3.9,2.6-5.6,6.2-8.9,9.7
		c2.2-5.9,4.8-10.2,8.9-14.6c-3.4,0.9-5.3,2.8-7.2,4.3c2.7-9.1,15.6-8.9,17.8-18.8c-10.8,8.8-23.8,15.9-24.8,32.5
		c-1.7-4.9,0.1-10.5,4.1-16.5c3.2-4.8,7.9-8.4,11.9-12.9c-2.2-0.5-2.8,1.6-5.2,1.8c2.3-2.2,4.2-3.9,6.4-5.9
		c-4.2-0.7-4.5,5.6-8.6,4.1c-0.1-5.2,4.4-8.2,6.7-12.8c-3.6,1.7-5.1,4.6-7.5,6.7c0.3-6.2,2.2-11.7,4.3-17.2
		c-2.9,3.2-3.2,7.3-4.9,11.2c-1.8-5.8,1.5-10.2,2.4-15.2c-0.8,1.7-1.6,3.3-2.4,5c4-6.5-0.1-11-3.9-15.5c-2.8-3.4-4.9-7.4-7.2-12.4
		c-0.3,4.3,1.5,7.2,1.5,10.4c-3.7-8.9-7.3-17.7-11-26.6l0,0.1c-1.2-7-0.6-13.8,3.6-21c-3.8,11.6-2.7,21.8,2.9,31.5
		c-0.9-3.7-1.9-7.4-2.7-11.2c-0.9-3.9-1-7.9-0.4-11.9c0.5-3.9,0.8-7.9,2.8-11.5c-5,19,0.1,35.6,12.2,50.4
		c-3.8-10.5-9.3-20.5-7.5-32.7c1.4,5.5,3.2,10.5,6.8,14.7c-4.5-9.6-5.7-19.3-1.9-30.3c-0.4,4.8-2,8.4-1.5,12.9
		c0.5-1,0.8-1.5,1.3-2.4c2.3,8.6,4.5,16.7,6.7,24.9c0.9-4.5-0.8-8.7-0.4-13.6c1.4,2,2.4,3.5,3.5,5.1c-1.9-5.4-3.8-10.7,0.9-16.4
		c-0.1,5.4-1,10.5,2.5,15.5c0.5-4.8,0.9-9.1,1.4-13.6c1.8,2.7,1.7,2.6,0.4,8.9c-0.6,2.9-1.7,5.7-1,9.1c4.5-18.2,18-30,28.5-43.9
		c-5.3,11.4-16.2,18.9-21.4,31.1c5.2-1.1,9.6-3.7,14.7-3.3c1.9-3.5,4-7.4,6.1-11.3c0.3,0.1,0.6,0.3,0.9,0.4c-1.3,2.7-2.6,5.4-4,8.3
		c2.1,0.5,3.8-0.4,5.8-1c-0.5,1.7-1,3.2-1.7,5.5c3.6-2.8,3.3-7,6.1-9.8c-0.3,3.5-0.6,6.6-0.9,11.1c3-4.3,3.4-8.3,7.1-12.2
		c-1.1,3.9-1.8,6.4-2.7,9.5c4.9-3.6,5.3-9.5,9.8-12.8c-0.8,3-1.7,5.9-2.6,9.1c1,0,1.8,0.1,2.8,0.1c-0.7,4.6-3.1,7.6-6.9,10.1
		c-0.2-1.2-0.3-2-0.4-3.2c-2.6,2.6-4.9,4.2-3.7,8.5c3,9.7-1.2,18.7-3.8,27.8c-0.8,2.8-2.2,5.4-3.3,8.2c-1.9-0.6-2.5-2.4-3.4-3.7
		c-1.7-2.4-3.4-2-5-0.2c-4.6,5.2,0,26.7,6.7,29.8c0-4.9-1-9.5-2-14c-1-4.5-2.1-9-3.3-14.2c2.1,1.7,1.8,3.6,2.2,5
		c1.8,6.7,3.5,13.5,5.2,20.3c3.3,13.2,12.2,19.5,25.3,20.7c2.4,0.2,5.1,1.6,7.6-0.4c2.1,2.8,5.4,1.2,8.2,0.7
		c16.6-2.7,24.9-13.7,28.6-29.1c1.2-4.8,2.6-9.5,4.4-15.8c0.5,7.9-4.4,13.5-2.5,21c5.8-5.8,6.3-12.1,5.7-18.8
		c-0.5-5.5-3.3-8.8-8.8-9.2c-2.4-9.1-2.5-18.4-4.1-27.4c-0.9-5-2.5-9.8-8.5-11.2c-0.7-0.2-1.6-1-1.9-1.7c-2.4-5.3-4.8-10.5-7.1-15.8
		c-0.4-1-0.8-2.1,0.7-2.6c1.6-0.6,1.7,0.8,2.1,1.7c4.3,10.9,4.3,10.9,11.6,16.7c-1-2.2-1.8-4-2.6-5.8c3.3,3.2,5.7,7,10.4,8.7
		c4.5,1.7,8.1,5.7,13.8,6c-2.3-7.2-10.5-6.7-14.8-12c8,3.6,15.4,6.9,22.7,10.1c0.2-0.2,0.4-0.4,0.6-0.6c-4.7-4.5-9.5-9-14.2-13.5
		c8.5,6.2,15.5,14.2,26.4,20c-2.8-4.4-4.7-7.5-6.7-10.6c0.3-0.2,0.5-0.4,0.8-0.6c3,3.9,6,7.9,9.5,12.5c-0.2-1.9-0.2-2.9-0.4-4.7
		c1.6,1.9,2.7,3.1,4.4,5.1c-1.7-7.5-4.7-13-11.2-17.1c3.3,0.5,7.1,3.5,11.1,8.4c2.8,3.5,5.4,7.2,8.8,11.8
		c-1.1-7.1-5.7-11.3-8.4-17.5c4.3,4,5.9,8.7,8.8,13.3c2.9-18.6-6.7-31-18.9-42.7c3.1,1.1,6.8,4.6,10.2,8.9
		c4.5,5.6,7.1,12.5,12.2,17.9c3.3,3.6,2.4,9.6,2,14.7c-0.4,1.7-0.4,3.8-2.1,4.4c-2.7,1-2.6,2.9-2.5,5.1c-2.5,1.6-0.7,4.2-1.5,6.3
		c-1.8-0.7-2.4-2-2-3.8c0.6-2.5-1.7-3.8-3-4.2c-1.8-0.5-2.2,1.6-2.5,3.3c-0.3,2-1,4-3,5.3c-1.5-1.6,0.5-4.2-2.3-6
		c-1.7,12.6-5.1,24.6-3.4,37.2c-0.7-2-1.3-4-2.4-7.1c-0.5,6.9,0.3,12.4,2.3,17.9c-1.5-2.4-3.1-4.8-4.6-7.2c0,3.8,0.7,7.3,0.1,11.1
		c-1.6-1.3-1.8-3.5-3.8-4.2c-1.5,2-1.1,3.9,0.2,5.8c5.3,8.3,2.7,17.6,3.2,26.6c-0.7-2.2-1.3-4.4-2.1-7c-3.6,5-0.1,10.4-2,15.4
		c-0.3-0.7-0.5-1.2-0.9-2.3c-0.2,3.6-0.4,6.6-0.6,9.5c0.3-6.4-6-9.2-8.2-14.1c1.1,2,1.9,4.1,3.2,6c1.4,2,2,4.2,2.3,6.5
		c0.2,2.4,0.1,4.8,0.1,7.2c-1.7-1.1-1,3-3.2,0.8c0.7,3.1,1.3,5.7,2,8.5c-4.1-3.2-8.9-5.2-12.7-10.4c0.4,6.3,3.3,11.6-1.4,16.3
		c-1.7-4.2-2.9-8.9-6.4-12.4c0,0,0,0.1,0,0.1c-0.4-6.4-3-12.2-5.4-17.5c-5.1,5.4-2.3,11.6,0.9,16.6c3,4.7,4.6,9,4,14.3
		c0,0.4-0.1,0.7-0.4,1.8c-3.3-7-6-13.7-11.9-19.8c0.4,6.2,0.8,11.4,1.1,16.6c-2.3-4.9-4.2-10.5-2.9-15.4c1.4-5.1-1.3-7.2-3.6-10.4
		c-0.4,0.9-0.8,1.6-1.3,2.6c-0.7-1.5-1.2-2.6-1.8-4.1c-1.9,2.1-4.3,3.6-3.7,6.9c0.2,1.3,0.4,2.7,0.6,4c0.5,3.3,0.9,6.5,1.4,9.8
		c0.2,1.3,0.7,2.6-0.8,3c-5.6-6.1-0.1-15.1-5.9-21.5c-0.8,1.5-1.6,2.9-2.2,4.1c-3.5-1.8,0.2-4.3-0.6-6.5c-1.1-0.7-1,1-2.2,0.6
		c-0.3-0.7-0.4-2.6-2.6-0.1c0.6-2,0.9-3,1.2-4.3c-2.1,0.3-4.7-2.3-5.9,1.4c-0.1-0.7,0.4-1.6-0.7-1.9c-4.7,6-4.3,22.3,1.1,29.1
		c-0.8-4.9-1.5-9.4-2.1-13.9c-0.6-4.6,0.4-9,1.8-13.4c-0.7,7,1.5,13.6,3,20.3c-0.2-4-1.9-7.9-0.1-13.2c0,2.9,0,4.4,0,6
		c0.2,0,0.4,0,0.6,0c0.2-1.6,0.3-3.2,0.5-5.5c1.2,2.8,2.1,5.1,3.1,7.3c0.3,1.9,0.7,3.9,1,5.8c-0.1,0.6-0.1,1.1-0.2,2.1
		c-2.4-2.7-2.7-5.8-3.7-10c-0.8,11,3.8,19.6,5.6,29.8c-2.4-2.9-4.3-5-7.1-8.4c0.7,2.8,1.1,4.2,1.5,5.6c-8.6-8.2-13.7-19.5-12.2-29
		c1.7,5.6,3,10.1,4.3,14.6c-0.9-8.8-0.5-17.8-4.7-26.1c-0.4,1.1-0.8,2.3-1.3,3.6c-2.6-1.4-2.7,0.4-2.7,2.1c-0.1,6.2,1.1,12.2,3.2,18
		c0.3,0.9,1.2,1.6,0.3,3c-4.4-3.6-3.6-8.9-4.6-14c-1.7,3.7,0.4,6.8-0.2,10.1c-2.9-8.8-3.7-18-4.2-27.5c2.3,0.7,1.5,2.4,2.1,3.4
		c2-3.8,1.1-4.9-6.5-7.3c3.5,10.9,3.2,22.3,5.7,33.2c-3.2-5.7-2.9-12.4-5.2-18.9c-1.5,5.4,0,10.3-0.4,15.6c-0.8-1.5-1.5-2.8-2.6-4.9
		c-0.3,5.2,0.8,9.3,1,13.6c-1.9-9.6-6.2-18.6-5.7-29.7c-1.9,2.9-3.3,5-4.7,7.1c-0.1,0.1-0.3,0.1-0.4,0.1c0.2-5.1,4.7-8.4,5.1-13.6
		c-2.2-0.9-2.5-5.8-6.7-3.5c-0.2,0.1-1.2-0.8-1.1-1c1-3-1.3-5.8-0.7-8.8c-0.7,1-1.3,1.9-1.9,2.8c-3.7-1.7-0.6-5.4-2.4-7.7
		c-14.1,15.1-15.1,16.7-13.5,22.1c3-5.1,7.5-7.9,13.3-9.1c-1.8,2.7-4.4,4.5-6.5,6.8c-2.3,2.5-3.2,6.1-2.8,8.7
		c2.6-4.4,4.7-9,9.1-12.6c1.2,4.7-1.9,8.5-1.4,12.6c2.3-4,7.1-5.5,9.3-9.7C264.6,599.1,264.4,600.2,264.2,601.4
		C264.2,601.3,264.2,601.4,264.2,601.4z M288.9,590c-6.6-6.2-13.5-12.7-21-19.6c1,3.4,2.4,5.7,4,8c8.1,11.8,19.8,15.9,33.6,16.6
		c21.5,1,32.1-6,38.1-26.2c0.3-1.1,1.2-2.3-0.4-3.4c-0.4,0.7-0.9,1.2-1.1,1.8c-5.7,18.1-24.6,25.7-39.7,24.2
		C298.2,590.9,294.2,588.5,288.9,590z M352,505.6c-2.9,5.2-2.9,5.2-1.9,10.1c-1.5,0.5-3.1,1-4.6,1.7c-2.3,1-0.9,3.2-1.2,4.8
		c-0.3,1.5,1.8,2,3,2.7c1,0.6,1.9,0.2,2.5-0.7c3.4-4.9,4-10.5,4-16.3C353.9,506.9,353.2,506,352,505.6z M267.1,506.1
		c-0.7,5.6,0.3,10.3,2.7,14.7c0.6,1.1,0.9,3,2.7,2.4c1.7-0.6,3.1-2,3.6-3.9c0.4-1.7-0.3-2.8-1.7-4c-2.4-2.2-7.5-2.2-6.4-7.4
		C268,507.4,267.4,506.7,267.1,506.1z M273.2,596.5c-3.8,4.4-1,8.9-0.8,13c1.8,0.9,1.8-0.9,2.7-0.7c0.2,0.7,0.3,1.4,0.5,2.4
		c2.2-5.3,2.4-9.3,0.4-11.5c-0.5,0.8-1,1.6-2.1,3.3C274.5,600,275.2,598,273.2,596.5z M267,533.5c-1.5-4-3.2-8.8-5.1-13.7
		c-0.1-0.4-1-0.8-1.4-0.6c-0.4,0.1-0.9,0.9-0.8,1.3c1,5.1,2.6,10.1,4.7,14.9c0.2,0.4,1.1,0.7,1.7,0.7C267,536.1,267,535.2,267,533.5
		z M331.6,599.1c-3.5,2.3-1.3,6.4-3.4,8.8c-0.9-0.4-0.1-2-1.5-1.8c-1.6,2.7,1.2,8.2,5,9.2C330.4,609.9,332.1,604.7,331.6,599.1z
		 M350.6,613.9c-2.1-5.8-0.2-11.6-0.1-18.4c-1.4,2.1-2.6,1.6-3.9,1.1C344.8,603.3,348.3,608.5,350.6,613.9z M341.2,601.6
		c-2.5,7.7,3.8,12.3,5.8,18.3C346.8,613.3,345.2,607.2,341.2,601.6z M272.1,540.3c1.1-2,2.2-4,3.3-6c0.6-1.1,1-2.1,0.1-3.2
		c-1.2-1.2-2.2,0-3.1,0.4C268.8,533.5,268.7,536.5,272.1,540.3z M355,607.2c2.1,2.3,1.9,5.5,5,7.7c-2.3-5.6-3.3-10.8-7.3-16
		c0,5,1.2,8.4,2.9,11.6C355.4,609.6,355.2,608.6,355,607.2z M363.1,578.1c3.6,4.1,1.9,9.7,3.9,15.3
		C368.7,583.6,367.7,579.9,363.1,578.1z M394.2,491.7c0.7,6.3,1.3,11.7,1.9,17.1C397.2,503.2,397.3,497.7,394.2,491.7z M285.5,615.3
		c0.2-4,0.4-8,0.6-12C282.3,607.2,284.4,611.3,285.5,615.3z"/>
	<path d="M306.7,475.5c0.5-2.1-1.4-1.8-2.4-2.2c-6.1-2.3-12.4-3.8-18.2-7c-4-2.2-6.8,1.4-10.2,3.5c0.9-3.2,4.4-3.1,5.9-5.9
		c-7.4-3.2-6.4-11.7-10.5-16.6c-5.9-7.2-5.9-14.9-5.6-23c0.3-9.6,6.5-15.1,14.5-18.7c19.8-9.1,40.4-8.8,60.9-3.1
		c18.1,5,26.2,23.9,17.5,40.6c-1.9,3.6-3.1,7.1-3.7,11c-1,6.3-5.3,9.8-10.8,11.9c-6.9,2.5-14,4.7-21,7c-2.7,0.9-6.2,1.8-6.4,4.6
		c-0.3,3.9-0.7,8.2,2.9,11.8c2.2,2.2,2.4,5.7,2.1,10.1c-1.4-3.4-5.2-1.3-5.7-5.4c-0.6,1.6-0.8,2.4-1.4,4.3
		c-0.3-3.9-0.5-6.7-0.8-10.4c-1.1,2.7,0.3,5.4-2.2,7.3c0-3.6,0-6.9,0-10.2c-1.8,4.1-3.3,8.1-5.9,12c-0.6-0.6-1.1-1.1-1.8-1.7
		c-0.7,1.8-2.2,1.8-3.8,1.7c-1.1-2.3,0.2-4.1,1.3-5.9c0,0,0.1,0,0.1,0c3.6-2.5,7.7-4.1,9.6-8.7C313.2,477.2,312.3,475.5,306.7,475.5
		z M285.5,451.6c1.8,1.4,4,0.9,5.9,0.5c12.6-2.8,18.4-7.6,14-18.5c-1.3-3.2-3.9-6.8,2.9-5.9c0.4,0,0.8-0.6,1.3-0.8
		c2.3-1.4,4.8-1.5,7.4-0.7c0.2-0.7,0.3-1.5,0.6-2.6c1.1,3.7,3.9,1.8,6,2.6c-0.4,1.8,1.7,3.1,0.8,5.7c-4.2,11.2,3.5,21.6,15.5,21.6
		c2.3,0,4.6,0,8,0c-3,2.2-5.6,1.5-8.5,2.4c2.1,0.5,1.6,1.8,1.8,3.1c2.3-0.6,4.3-0.8,4.4,2.4c3.3-0.9,5.4-2.8,6.4-5.7
		c0.7-1.9,2.2-4.1,0.9-6c-1.5-2.2-4-1.2-6.2-0.8c-3.9,0.7-7.8,1.2-11.4-0.7c-1.9-1-3.5-1.3-4.8,0.7c-2.4-1.1-3.9-2.8-4.6-5
		c-4.3-15.2,6.4-16.6,16.9-18c3.1-0.4,5.5,1.2,7.3,3.3c3.8,4.3,5.1,9.3,3.1,14.9c-0.3-2.6-0.4-5.3-1-7.9c-0.3-1.2-0.5-3.1-2.6-2.7
		c-1.9,0.4-2.7,2-2.8,3.5c-0.2,1.9,1.7,1.7,3.1,2c-1.3,3.2,0.9,4.2,3.3,5c2.5-1.1,3.8-3,4.7-5.6c6.3-17.1-5.9-31.9-22.2-35.1
		c-8.2-1.6-16.7-0.7-25-1.6c-10.8-1.1-20.4,2-29.8,6.4c-12.8,6-14.8,15.5-10.8,29.6c0.8,2.7,2.8,6,5.7,5.3c4.1-1,10.5,0.9,11.5-6.5
		c-1.7,0.3-3.6,3.1-4.9-0.9c-0.5,1.5-1,2.3-2.3,1.8c-1.2-0.5-1-1.6-0.9-2.5c0.1-1.2,0-2.1-1.4-2.3c-1.4-0.2-1.9,0.6-2.4,1.6
		c-0.6,1.2-0.2,3-2.1,3.9c-2.2-3.1-1.7-6.1-0.1-9.2c3.7-7,10.5-6.5,16.6-6.1c5.6,0.4,10.7,2.1,12.8,8.8c2.7,8.5,2.2,12.1-4.2,16.7
		c0.5-1.9-1-2.6-2.2-2.8c-6.6-0.8-12.7,2.2-19.7,2C278.8,452.3,282.4,451.3,285.5,451.6z M343.8,445.7c-2.7-1.6-5.3-3.2-9.2-5.5
		C336.6,445.7,339.8,446.4,343.8,445.7z"/>
	<path d="M156.3,342.6c-3.8,2.1-7.7,4.1-11.5,6.2c5-4.7,7.4-10.6,9.9-17.6c-1.7,1.4-2.7,2.3-3.8,3.2c-1.3-3.6,14.1-33.4,18-35.1
		c0.5,1.5-1.9,2.3-0.9,4.1c0.8-1,1.6-1.8,3-3.5c-0.5,2.1-0.8,3.2-1.4,5.2c5.5-5.8,4.6-14.1,10.3-19c-2.7,0.9-5.4,1.7-7.9,2.8
		c-5.2,2.2-10.3,4.6-15.9,7.1c2.6-2.9,4.8-5.7,7.3-8.2c2.6-2.7,5.3-5.5,8.3-7.8c2.9-2.2,6.2-3.8,9.4-5.9c-2.1,0.6-2.1-2.2-4-1.8
		c8-0.9,16-0.7,23.9-2.3c-6.7,3.3-14,5.6-17.7,13.2c6.9-2.3,12.1-8.1,19.6-9.6c-2.9,4.4-7.8,6-12.4,10.2c4.9,1.1,6.9-2.9,10.3-3.6
		c-3,6.8-9.8,11.3-10.4,19.2c5.5-4.7,8.9-11.3,15.2-17.3c-6.6,9-11.6,17.3-18.6,24.7c2.5,0.4,2.9-1.3,4.2-1.7
		c-2.5,5.7-6.8,10.1-10,15.2c-2.1-1.3-2.8,2.1-5.1,1.4c0.9-2,1.8-3.9,2.7-5.8c-5.3,5.5-12.1,9.7-13.5,18c0.1-3.3,1.7-6.2,0.9-10.3
		c-1.3,1.8-2.1,3-3,4.2C166.2,329.2,163.5,334.7,156.3,342.6L156.3,342.6z M186.8,275.9c-4.9-0.8-11.4,2.6-12.8,6
		C179.4,282.6,182.4,278.6,186.8,275.9z"/>
	<path d="M50.4,475.8c1.1,5.2,1.9,8.9,2.8,13.4c0.8-2.5,1.4-4.4,1.9-6.2c0.2,3-1,5.9,0.5,8.7c4.7-4.8,7.1-10.7,7.8-17.5
		c2.6,2.7,2.2,4.3-4.2,15.9c5.2,0.7,9.2-1.5,13.2-5.4c-1.5,3.9-4.2,5.6-7.4,7.6c11-2.3,15.5-6.7,15-14.3c-1.7,0.2-1.6,2-3.9,3.6
		c3.5-8.3,2.6-16,4.1-23.8c-1.1,0.1-1.9,0.3-3,0.4c0.6-1.6,2.6-2,2.7-4c-0.6,0-1.1,0.1-1.5,0.1c0.1-2.7,4.3-4.2,1.8-7.9
		c1.3-1.4,2.9-3.1,4.9-5.2c1.1,3.4-0.8,5.3-0.8,7.5c-2.3,7.6,1.6,14.6,0.9,22.1c1.2-1.9,1.4-4.3,4-5.9c-0.2,3.7-2.3,6.4-2.2,9.6
		c0.1,3.1,0.5,6.1,2.7,10c-0.5-3.8-0.8-6.4-1.2-10.5c2,5.9,0.9,11.3,5.8,15.4c-0.9-3.9-2.6-6.8-1.7-10.6c3.5,3.5,7.7,5.1,12.7,6.2
		c-0.5-6.5-0.7-12.9,3.7-18.3c-3.2,5.5-3.4,11.4-2.7,17.4c0.7,6.2,2.5,11.9,6.9,17c-2.7,0.1-3.2-2.4-4.3-2.6
		c-3.1,1.6-5.9-3.1-8.8-0.4c-1.6-1.5-3.2-4.8-5.8,0.2c-1.6,3.1-4.2,5.7-6.6,8.4c-1.3,1.5-2.7-0.1-3.9-0.3c-5.8-1-11.6-0.4-17.3-1.2
		c-12-1.6-14.8-10.6-16.1-20.7C50,482.1,49.3,479.8,50.4,475.8z M75,492.5c3.3,1.2,6.6,0.9,9.9,3.5c-0.7-2.5,0.6-4.7-2.6-5
		c0.7-2.7-1.3-4.7-1.7-8.5C78.5,486.6,77.7,490,75,492.5z"/>
	<path d="M142.2,433.3c0.7-0.2,1.4-0.4,2.6-0.8c-4.1,6.3-3.6,13.4-5.9,19.7c-2.5,6.9-3.8,13.8-3.7,21.1c1-2,2.2-3.4,4.2-4
		c0,0-0.1-0.1-0.1-0.1c-4,7.4-2.9,19.1,2.4,24c0,0-0.1-0.1-0.1-0.1c-0.5,2.3-2.4,0.9-3.6,1.3c-6.3,2.3-12.9,2.9-19.5,3.9
		c-1.6,0.2-3.1,0.9-4.8,1.4c-3.2-6.8-4.2-14.3-6.3-21.4c-0.7-2.3,1.5-3.5,3.1-5.1c-1.1,3.5-3.5,7.1,0.2,10.7
		c0.4-1.9,0.7-3.6,1.1-5.5c1.5,2.6-0.7,5,0.2,7.9c4.3-3,5.6-8.7,10.5-10.9c0.3,4.1-2.1,7.1-4.7,10.8c6.2-2.7,6.4-8.4,9-14
		c0.6,5.5-1,9.4-2.6,14.5c1.5-1.9,2.2-2.9,3.1-4c0.3,0.9,0.4,1.6,0.8,2.7c2.3-3.1,1.7-6.3,2.2-9.9c0.9,1.6,1.6,2.7,2.3,3.9
		c0.2-0.3,0.3-0.4,0.3-0.4c-6.2-12.8-0.5-26.5-3-39.7c-0.3-1.5-2.4-2.3-0.9-4.5c1.5,2.8,2.9,5.5,4.7,8.6c0.1-4.7-1.6-8.1-3.7-11.7
		c3.8,3.3,7.6,6.3,12.1,1.5C142.1,433.4,142.2,433.3,142.2,433.3z"/>
	<path d="M544.5,456.3c2,2.9,5.1,2,8.1,2.6c-2.8,1.1-5.2,2.2-8,3.3c1.1,0.6,1.9,1,2.7,1.4c-0.5,1.8-2.2,0.8-2.8,1.5
		c0.3,6.4,5.9,10.6,6.9,17.3c-1.9-2.3-1.9-5.3-4.7-6.9c-0.9,4.5,1.7,8,2.5,12.2c-0.7-0.5-1.2-0.8-1.7-1.1
		c-1.2,7.2,1.2,13.2,6.9,18.4c-1.2-4.7-6.1-8.5-1.7-13.6c0.6,3.4,0.9,6.6,3.2,10.4c-0.6-2.9-0.9-4.7-1.3-6.7
		c2.4,1.2,2.6-2.4,4.7-1.6c1.3,2.7,4.1,4.7,5.1,7.8c-0.3-3.5-0.5-7-0.8-10.5c2.9,4.4,1.6,9.3,2.8,14.8c2.2-6.9,2.5-12.9,0.3-20
		c3.3,6.3,3.3,7.4-1,32.4c-2.3-6.6,0.9-14.5-5.6-19.7c-0.3,9.3,1.8,18.6-2.1,27.5c1.1-3.7,0.9-7.4,0.8-11.2
		c-0.2-5.5-2.5-7.4-7.8-7.6c-4.2-0.2-8.3,0.2-12.4,1c-0.8,0.2-1.3,0.2-1.4,1c-0.5,5.7-5.9,7.3-9.1,10.9c2-7.4,5.6-14.6,1.8-22.4
		c2,5.1,3.2,10.2,1.1,15.7c5.3-2.5,9.5-17.9,7.8-26.2c0.7,1.6,1.4,3.3,2,5c1.8-8.1-1.6-15-5.1-21.9c1.1,1.7,2.2,3.4,3.9,6
		c-1.1-5.1-3.5-8.3-6.3-12c2.1,1.4,3.7,2.4,5.3,3.5c0.7-0.6,1.4-1.1,2.3-1.8c-2.6-3.1-6-5.6-6.3-10.5c1.4,2.1,2.7,4.2,4.1,6.3
		c0.5-0.4,0.9-0.8,1.4-1.2c-1.2-3.7-2.5-7.3-4.9-10.8c3.4,2.3,7.1,3.7,11.7,4C545.9,454.8,545.3,455.5,544.5,456.3z M557.8,494.1
		c-2.3,4.7-2,8.8,0.8,13.4C559,502.7,560.9,498.5,557.8,494.1z"/>
	<path d="M103.4,395.5c-2.6,4.8-3.6,9.6-0.4,14.5c-2.3-2.1-4.2-4.4-5.2-8c-0.5,2.6,1.1,4.1,1.5,6.5c-4.2-2.4-3.6-6.5-4.8-10.6
		c0,3,0,5.1,0,7.6c-1.2-0.7-2.2-1.2-3.3-1.8c0.5,2,2.4,4.1,5.7,6c2.5,1.5,5,2.8,9,4.9c-5-1.6-8.4-2.7-12.6-4
		c2.1,3.5,5.6,3.1,7.9,4.6c-4.2,1.5-8.5-0.6-12.2-6.2c-0.5,2.6,1.3,4.6,1.5,7.3c-0.6-0.4-1-0.7-1.7-1.2c-0.1,1.2-0.2,2.3-0.3,3.5
		c-1.8-8.8-1.6-17.6-1.1-26.5c0.5-9.1,5.3-16.6,9.8-24.7c-9.3,4.7-13.6,12.7-17.6,22.5c0.3-7.5,1.8-13.4,4.3-20
		c-2,1.7-3.1,2.7-4.8,4.1c2.6-5.6,7.5-7.9,11.4-11.4c-2.9,4.1-5.7,8.2-6.2,13.6c-0.3-6.1,7.4-4.9,8.3-9.4c1-4.6,4.7-5.3,7.8-7.1
		c1.2-0.7,2.6-0.9,4.1,0c-0.9,4.3-4.5,7.1-6.2,11.2c0.8,0.1,1.4,0.2,2.2,0.3c0.1,4.9-2.2,9.2-3.5,14.9c4.7-4.9,5.1-10.3,5.9-15.7
		c1,3.6-0.7,7.4,2,10.5c0.4,0.4-0.9,2.3-1.5,3.5c-2.4,5.2-5.6,10.2-3.1,16.8c1.4-4.8,0.9-9.5,2.9-13.7c0.5-1,0.7-3,2.4-2.3
		c1.7,0.7,0.5,2.2,0,3.2C104.5,390.7,103.3,392.9,103.4,395.5L103.4,395.5z M89,395.5c0.8-5.8,2.8-11.2,4.8-16.7
		C90.3,383.9,88.6,389.4,89,395.5z"/>
	<path d="M161.5,304.6c1.6,0.2,0.6,1.1,0.4,1.7c-4.6,10.5-11.3,19.8-18.2,28.7c-10.2,13.1-18.5,26.9-20.8,43.6
		c-1,7.3,0.4,14.4,1.7,21.5c-3.6-12.1-4.3-24.1,0.8-36.7c-5.5,4.7-4.5,11.1-5.8,17.4c-1.5-2.9-0.6-5.2-0.8-7.4
		c-1.2-11.9,0.5-22.5,11.6-29.6c0.6-0.4,0.9-1,1.4-1.5c0.1-0.1,0-0.4,0.1-1c-1.9,0.5-3.6,1-5.4,1.5c-0.1-0.2-0.2-0.4-0.2-0.6
		c3.5-1.6,7.2-3,10.5-5c3.1-1.8,6.7-2.8,7.6-7.7c0.6-3.2,4.3-5.7,6.5-8.8c-3.7,2.2-7.2,4.6-11.8,4.8c8.8-4.9,15.9-11.6,21.5-19.8
		C160.8,305.5,161.2,305,161.5,304.6z"/>
	<path d="M161.5,304.6c-0.4,0.4-0.7,0.8-1.1,1.2c-11.2,9.3-24,16.7-34,27.7c1.7,2.7,3.2,0.9,4.6-0.2c1.4-1.1,2.8-2.1,4.5-2.9
		c-3.6,4.3-7.9,7.8-12.5,10.9l0.1,0c-0.2-0.7-0.6-1.6-1.3-0.7c-3.3,4.8-9.6,3.4-13.6,6.9c-1.3,1.1-2.8,2-5.3,3.7
		c3.2-1,3.9,2.9,7.3,0c-2.7,4.7-6.1,4.6-10,4.9c1-0.8,1.5-1.2,2-1.7c-5.3,1.6-9,6.6-15,6.8c0.3-0.4,0.6-0.8,1.4-1.7
		c-2.8,1.2-5,2.2-8.4,3.7c4.6-3.9,9.2-5.5,13.8-8.2c-1.6,0-2.7,0-3.7,0c7.3-2.9,14.3-6.4,20.4-12.1c-2.6,0.4-5,0.7-6.2,0.9
		c18-14.7,40-25.2,58.1-42.9C162.1,303,161.8,303.8,161.5,304.6z"/>
	<path d="M38.6,463.3c1.4-1.2,2.7-2.4,3.9-3.4c-0.8,6.6-3.2,13.8,1.5,20.5c-0.1,0.1,0.4-0.3,1-0.8c0.2,0.7,0.4,1.4,0.6,2
		c0.2,0,0.3,0,0.5-0.1c-0.1-1.5-0.3-3.1-0.4-4.6c0.8-1,1.5,0.6,1.9-0.1c-2.4,11.7,1.6,21.2,10.1,29.2c-2.8-0.6-6.1-3.7-9-8.7
		c-1.1-1.8-1.9-2.7-4.4-2.1c-8.5,2-8.6,1.8-8.7,10.7c0,1.7,0,3.5-0.2,5.2c-1.6-7.9-0.7-15.9,0.7-23.9c-6.6,1.5-7.2,12-2.2,28.4
		c-5.7-6.5-6.2-22-0.9-28.8c2.4-3,4.4-1.4,6.4,1.5c1.7-3.4,3.2-6.2,2.4-9.8c-0.3,1.9-1.6,2.6-3.5,3c1-3.8,1.3-7.5,0.7-11.7
		c-0.8,1.1-1.4,1.8-2.5,3.2C35.6,469,36.9,466,38.6,463.3C38.6,463.2,38.6,463.3,38.6,463.3z"/>
	<path d="M482.6,518.8c1.1-6.2,3.4-12.1,2.5-19.8c6.2,7.7,5.7,17.3,13.3,23.4c-2.8-7-3.3-13.6-1.8-20.4c-1.2,7.3,0.1,14.1,3.5,22.2
		c0.5-5.7,0.6-10.1,1.2-14.3c0.5-3.7,2.2-6.1,6.4-4.3c0.8,0.3,1.3,0.6,1,1.7c-0.4,1.9-1.3-0.5-1.7,0.2c-0.8,10.5,1,21.8-9.5,28.9
		c0-4.5,3.2-9-1-13.3c-0.5,0.4-1,0.8-1.7,1.4c0-1.9-1.3-1.8-2.4-1.9c0.1-2.7-1.1-4.2-3.4-5c0.8-1.3,0.2-2.1-1-2.5
		c-1.1-0.3-0.9,0.6-0.9,1.2c-0.4,0.4-0.8,0.7-1.3,1.1c-1,0.4-1.4,2-2.9,1.7C482.8,519.1,482.7,518.9,482.6,518.8z M504.6,506.6
		c-4.5,9.2-2.7,19.3-7.1,28.9C504.4,529.9,507.6,516,504.6,506.6z"/>
	<path d="M394.2,516.9c-0.1-2.1-0.2-4,2.5-5.1c1.7-0.6,1.8-2.8,2.1-4.4c0.7-2.1,1.3-4,2.5-6c2.1-3.6-1.1-6.8-2.5-10
		c-1-2.3-2.5-4.5-3.5-6.9c4.6,4.2,5.6,10.6,10.3,15.5c2.6-6.6,0.9-12.7-1.3-19.9c3.7,4.5,4.2,9.1,5.3,13.7
		c3.2-6.8-3.5-23.8-13.2-32.9c5.7,2.9,7.9,7.5,10.5,11.7c4.4,7.3,6.1,15.5,6.4,23.9c0,0.8,0,2.1-0.7,2c-5.7-0.8-5.5,4-6.7,7.2
		c-1.1,3-4.7,3.6-5.6,6.6c-0.4,1.4-1.4,2.5-1.9,3.9c-0.4,1.2-0.7,2.6-2.1,2.9C394.7,519.3,395.3,517.3,394.2,516.9z"/>
	<path d="M129.2,361.8c-0.4,2.5,0.9,3.4,3.4,3.2c-0.4,3.6-1.2,7.1-1.9,10.3c-2.5,11.9,1.4,22.3,5.7,32.8c0.4,1,1.3,2.1-0.3,3
		c-1.7,1-3.7,1.9-5.3,0.7c-0.8-0.6-1.9-2.5-1.1-4c0.5-0.9,0.6-1.7,0.2-2.4c-6.6-12.9-5-26.1-1.7-39.5
		C128.7,364.6,128.9,363.2,129.2,361.8z"/>
	<path d="M522.4,511c-0.5,1.9-1,3.8-1.5,5.7c0.1,0.1,0.3,0.2,0.4,0.3c0.9-1.6,1.9-3.2,3.6-6.1c-0.5,2.7-0.8,4.1-1.2,6.1
		c2.7-2.6,3.6-5.3,4.5-8c-0.8,5.4-1.3,10.8-4.1,17.4c-1.1-6.4-4-3.7-5.9-2.9c-2.1,0.8-4,1.7-6.3,0.9c-0.5,0.7-1,1.3-1.4,2
		c-1.4-0.8,0-4.1-3.4-3.2C512.9,519.9,519.4,517.7,522.4,511z"/>
	<path d="M301.5,491.1C301.5,491.1,301.4,491.1,301.5,491.1c-2.6,1.7-4.4,3.8-5.4,6.4c-2.3-1.7-3.5,1.3-5.6,1
		c3.2-8.9,7.2-17.3,15.8-22.4c-2.6,3.4-5.8,6.4-7.7,11.7c2-1.6,3-2.5,4-3.4c0.6,0.6-0.3,1.8,1.2,1.9c1.2-2.9,1.6-6.3,4.7-8.6
		c0.2,1.7,0.9,2.9-0.3,4.4C305.8,485,303.7,488.1,301.5,491.1z"/>
	<path d="M38.6,463.2c-2.9,0.7-4.9,2.7-7.5,4.5c2.5-4.5,5.1-9.1,7.6-13.6c-2.7-0.8-1.8-2-0.7-3.2c1-1.1,2.2-2.1,2.6-4
		c-6.6,1.7-9.9,8.8-16.8,9.6c3-2.1,6-4.1,9.1-6.3c-1.8-1.1-3.3,0.4-5.3,0c5.7-3.1,12.8-2.4,17-8.1c-2.4,4.9-4.7,9.7-6.4,15.1
		c0.9-0.2,1.5-0.4,2.3-0.6C39.8,458.9,39.2,461.1,38.6,463.2C38.6,463.3,38.6,463.2,38.6,463.2z"/>
	<path d="M25.1,464.3c-3.5,5.2-6.6,10.4-6.9,17.3c1.1-2.8,1.9-5.3,3.1-7.5c1.2-2.3,2.7-4.4,6.7-6.1c-9.9,12.6-12.4,24.6-2.8,37.4
		c-7.4-3.5-9.8-21.4-5-35.7c-0.9,0.4-1.6,0.7-2.8,1.2C19.3,467.6,22.1,465.9,25.1,464.3z"/>
	<path d="M116.7,404.1c0.5-2.4,0.8-3.3,1-4.3c0.3,2.6,4.7,4.5,1.4,7.7c-0.5,0.5,0.5,2.4,0.8,3.7c-1.8-0.3-1.8-0.3-5.4-11.7
		c-0.1,1.1-0.1,1.9-0.2,3.6c-4-10.3-3-19.8-1.2-30.4C114.2,383.5,114,393.3,116.7,404.1z"/>
	<path d="M275,377.9c-21.7,6.3-38.2,18-46.7,39.1C227.8,401.3,260.2,376.6,275,377.9z"/>
	<path d="M306,568.1c0-18.7,0.1-37.4,3.1-56C310.9,530.9,305.3,549.3,306,568.1z"/>
	<path d="M251.5,257.1c-20.5-0.5-32.1,12.8-42.8,28.4C211.3,269.7,236.6,253.1,251.5,257.1z"/>
	<path d="M233,246.2c8.8-2.4,17.6-4.8,26.8-2.1c2.4,0.7,4.8,1.6,7,3.3c-19.9-6.5-36.4-2.6-49.1,13.9c0.1-2.5,2.8-7,5.6-8.9
		C226.5,250.4,229.8,248.3,233,246.2L233,246.2z"/>
	<path d="M235.3,234.3c4.4-1.6,8.8-0.4,14.7,0c-8.6-3.2-15.8-5.8-23.3-7.1c12.6-0.7,22.5,7.3,33.8,10.8
		C252,238,243.9,234.5,235.3,234.3z"/>
	<path d="M572.6,504c0.8-6,2.7-11.9-0.1-18.8c1.1,1.2,1.5,1.6,1.9,2c2-10.7-7.5-21.1-23.3-25.2c2-1.6,3.9-1.9,6.2-1
		c11.5,4.9,17.5,13.7,18.3,26.1C575.9,493,576,498.7,572.6,504z"/>
	<path d="M321.3,305.8c0.4,0.7,0.9,1.4,1.5,2.3c1-2.5-0.2-4.8,0.1-7.5c0.9,1.1,1.5,1.8,2.3,2.7c0.2-0.7,0.3-1.2,0.5-2
		c4,7.3-1.9,12.8-2.2,20.8C320.5,315.8,322.5,310.6,321.3,305.8z"/>
	<path d="M317.2,617.8c-0.2-1.3-0.4-2.7-0.6-4c4.3,5.1,8.5,10.1,9.7,17.1c0.4,2.6,2.9,4.8,3.8,7.7c-2.8-3.6-5.6-7.3-8.8-11.5
		c0.6,2.5,1.1,4.4,1.6,6.3c-0.2,0.1-0.3,0.1-0.5,0.2C320.6,628.4,318.9,623.1,317.2,617.8z"/>
	<path d="M264.2,601.4C264.2,601.4,264.2,601.3,264.2,601.4c0.8,1,0.2,2.1-0.1,3.3c-0.9,4.3-1.7,8.7-2.7,13.9
		c1.5-3.1,2.5-5.4,3.6-7.6c0.1,0,0.3-0.1,0.4-0.1c-1,6.3-4,12.2-4.1,20.1C255.7,619.3,261.6,610.6,264.2,601.4z"/>
	<path d="M422.2,363.8c1.3-17.3-1.9-33.1-15.5-46.3C418.7,322.9,426.6,347.5,422.2,363.8z"/>
	<path d="M206.1,255.7c-3.6-0.8-7.2-1.5-11.3-2.4c6.1-4.6,12.5-4.6,19.2-2.9c-5.4,0.4-11.1-1.1-16.7,2.2c6.6,1.1,12.4,3.3,18.7,3
		c-6,1.2-11.9,2.9-18,0.3c2.7,0.2,5.3,0.4,8,0.6C206,256.2,206,255.9,206.1,255.7z"/>
	<path d="M452.9,438.1c-6.4,4.4-10.8,10-14.6,16.4c-1.3-4.4,2.7-11.8,8.3-15.2C448.2,438.3,449.9,435.9,452.9,438.1z"/>
	<path d="M345.4,196.3c-2.1,5.5-5,11.2-8,17c-3,5.8-4.5,12.4-10,17.1C334.8,219.4,336.4,205.6,345.4,196.3z"/>
	<path d="M293.2,236.9c-4.3-7.1-9.2-12.1-15-16.2c-5.8-4.1-12.4-6.5-20-9.2C273.5,213.7,292.1,226.9,293.2,236.9z"/>
	<path d="M87.5,434.8c-1.1,3.3-2.5,6-6.6,6.9c-2.9,0.6-3.3,4-4.2,6.5c-0.4,0.9-0.7,1.9-1.5,3.9c-0.3-2.1-0.4-3-0.7-4.9
		c-1,1.5-1.6,2.5-2.3,3.6c1.6-4.5,3.4-8.9,7.7-11.3C82.5,437.9,85,436.3,87.5,434.8z"/>
	<path d="M142.2,433.3c0,0-0.1,0.1-0.1,0.1c-2,1-3.4,0.4-4.6-1.4c-2.2-3.5-4.4-6.9-7.1-11c6.2,0.9,7.3,6.1,10.3,9.6
		c0.9,0.2,2.1-1.6,3.1,0.3C143.3,431.6,142.7,432.5,142.2,433.3z"/>
	<path d="M451.4,424.3c0.9,2.2,0.9,4.3-1.1,6.3c-0.3-0.8-0.5-1.5-0.9-2.4c-0.8,1.9-2.1,2.3-2.9,0.5c-1.5-3.7-2.1-7.7-1.9-12.4
		c2.8,2.8,2.3,6.3,4.4,9c0-1.3,0-2.4,0-3.9C450.1,422.7,450.8,423.5,451.4,424.3C451.5,424.4,451.4,424.3,451.4,424.3z"/>
	<path d="M247.2,489.5c0.5-8.3,3.4-16.1,7.2-19.9c-1.1,2.6-2,4.7-3.3,7.6c3-2.3,3.2-5.7,7.1-7.7C254,476.8,250.1,482.8,247.2,489.5z
		"/>
	<path d="M87.5,434.8c-2.5,1.6-5.1,3.1-7.6,4.7c-1.6-4,1.9-5.8,3.8-8.2c1.4-1.8,3.4-2.8,5.7-3.5c-0.4,2.6-3,3.2-4.2,5.9
		c2.4-1.3,4.3-2.3,6.4-3.5C90.7,432.4,89.3,433.7,87.5,434.8z"/>
	<path d="M353.7,249.4c-10.9,3.4-19.2,8.7-25.3,17.4C328.2,260,342.6,249.9,353.7,249.4z"/>
	<path d="M163.7,457.2c-1.7-3.5-2.9-6.9-3.6-10.4c-0.4,2.7-0.8,5.5-1.3,8.2c-0.1,0-0.2,0-0.2,0c0.4-4.5,0.9-9.1,1.4-14.3
		c2,3.7,1.4,7.7,3.6,10.8c1.5-2,1.7-4.2,1.8-7c0.3,4.3,0.6,8.1,0.9,12C165.2,456.6,164.2,455.5,163.7,457.2z"/>
	<path d="M293.9,215.3c8.7,3.5,15.1,13.9,14.1,23.1C306,229,301.6,221.1,293.9,215.3z"/>
	<path d="M103.3,395.6c0.5,1.6,1,3.2,1.5,4.8c1.9-0.1,2-1.9,3.3-2.8c1.5,3.6,3.1,7.2,4.6,10.8C106.7,408.2,102.8,402.7,103.3,395.6
		C103.4,395.5,103.3,395.6,103.3,395.6z"/>
	<path d="M270.7,229.1c-1.6,0.6-2.5,0.6-3.3-0.7c-5-8.7-12.1-14.8-21.7-17.9C256.5,213.3,264.6,219.7,270.7,229.1z"/>
	<path d="M305,308.5c-7,13.5-4.9,26.1-1.9,38.2C298.9,339.5,296,317.2,305,308.5z"/>
	<path d="M208.6,302.1c-5.5,9.6-8.5,19.9-8.3,31c0,0,0,0,0,0c-2.1-11.6,0.6-22.1,7.8-31.4C208.3,301.9,208.5,302,208.6,302.1z"/>
	<path d="M332.8,206.4c-2.8,10.9-13.7,17.5-15.1,29.2C318,223.4,328.6,216.6,332.8,206.4z"/>
	<path d="M307.9,624.9c-0.3-1.9-0.7-3.9-1-5.8c-0.1-1.5-0.2-3-0.3-4.5c4.1,7,3.8,15.1,6.9,23.4C309.1,633.9,309.5,629,307.9,624.9z"
		/>
	<path d="M459.8,496.7c-0.1-8.7-0.8-17.4,4.9-24.8c-2.4,5.1-3.2,10.6-4.4,16.1c1.7-2.9,3-6,5.9-8C463,485.2,460.5,490.6,459.8,496.7
		z"/>
	<path d="M394.5,240.1c5.8-1.4,10.7-4.3,15.2-8.2c-3.6,4.7-7.8,8.8-12.9,12.1c0.7-0.8,1.4-1.7,2.6-3.1c-2.3,0.8-3.8,2.2-5.5,0.7
		c0.2-0.3,0.6-0.9,0.9-1.5c-0.1,0-0.2-0.1-0.2-0.1C394.7,240.1,394.6,240.1,394.5,240.1L394.5,240.1z"/>
	<path d="M252.8,430.3c-9.8,3.6-14.9,12.5-22,19.1C236.5,441.3,242.1,432.9,252.8,430.3z"/>
	<path d="M261.1,436.4c-7.7,4.8-14.2,9.7-16.9,18.5C243,448.4,254,436.1,261.1,436.4z"/>
	<path d="M300.2,384.5c-1.1-1.7-1.8-2.7-3.1-4.7c4.2,1.9,6.9,3.9,9.9,6.6c-1.4,0-2.3,0-3.2,0c-0.4,0.7,0.4,1.9-1.1,2.3
		c-2.5-0.4-4.7-1.8-6-4.7C297.8,384.2,298.8,384.3,300.2,384.5z"/>
	<path d="M179.2,404.4c-1.5,10.4-5.7,16-13.2,16.4C172.7,416.6,175.3,410.9,179.2,404.4z"/>
	<path d="M294.1,232.2c-3.7-7.9-7.1-15.9-12.8-22.7C288,215.8,292.9,223,294.1,232.2z"/>
	<path d="M482.9,339.4c-0.3-1.7,0-3.6-2.3-4.3c-2.3-2.7-4.6-5.5-7-8.2c6.3,2.5,10.2,7.3,13.3,12.9c0,0,0-0.1,0-0.1
		C485.7,339.6,484.3,339.5,482.9,339.4z"/>
	<path d="M305.2,209.8c4.6,8.3,11.7,15.9,7.6,26.7C315.2,226.2,309,218.4,305.2,209.8z"/>
	<path d="M336.3,470.2c2,3.1,4.1,6.1,6,9.2c2,3.2,3.9,6.4,5.5,9.8C342.7,483.7,337.8,478,336.3,470.2z"/>
	<path d="M347.5,216.6c0.4-0.7,0.8-1.4,1.5-2.7c-0.2,6-5.4,14.5-9.2,15.9c1.4-5,5.6-8.4,7.4-13C347.3,216.7,347.4,216.6,347.5,216.6
		z"/>
	<path d="M439.9,401.9c3,4.4,3,9.5,3,14.5c0,3,0.5,5.9,0.6,8.9C441.3,417.7,439,410,439.9,401.9C440,401.9,439.9,401.9,439.9,401.9z
		"/>
	<path d="M265.6,446.9c-7.1,4.6-10.7,10.6-15.6,16.8C251.1,457,258.8,448.5,265.6,446.9z"/>
	<path d="M265.6,235.5c-5.6-4.3-12.2-6.2-20.3-7.5C254,227,263.9,230.8,265.6,235.5z"/>
	<path d="M240.4,447.2c-6.6,7.1-12.7,14.7-17.8,23C226,460.5,233.4,454,240.4,447.2z"/>
	<path d="M202.7,264.1c-6.9,2.7-13.4,0.3-19.5,1.9c2.2-1.7,4.8-1.9,7.6-2.4c-0.4-0.7-0.7-1.4-1-2.1
		C193.3,265.1,197.8,263.9,202.7,264.1z"/>
	<path d="M76,424.9c-2.8,1.1-5.5,1.8-7.6-0.6c-1.4,0.6,0.3,1.2-0.6,2c-1.2-0.9-2.6-1.8-5-3.5c0.9,1.7,1.3,2.3,1.8,3.3
		c-2.8-0.7-5-2-7.5-3.9C63.8,423.1,69.9,424,76,424.9z"/>
	<path d="M392.2,231.7c-6.6,4.9-13.9,6.9-22.1,4.7C377.9,237.1,385.2,235.2,392.2,231.7z"/>
	<path d="M253.4,463.2c2.1-6.8,7.5-11.6,12.7-11.4C261.3,454.9,257.7,458.7,253.4,463.2z"/>
	<path d="M347.5,216.6c-0.1,0-0.2,0.1-0.3,0.2c-3.9,3.8-7.8,7.6-11.8,11.5C335.2,225.1,344,216.9,347.5,216.6z"/>
	<path d="M338.3,486.8c-3.1-3.9-6.4-7.5-7.3-13.3C335.1,477.6,338.2,481.2,338.3,486.8z"/>
	<path d="M208.6,302.1c-0.1-0.1-0.3-0.2-0.4-0.3c3.7-6,6.4-12.6,11.6-19.2C216.8,290.5,212.8,296.3,208.6,302.1z"/>
	<path d="M341.5,622.1c0,0,0-0.1,0-0.1c1.3,3.1,2.6,6.2,3.9,9.2c-3.7-5-8-9.8-7.9-17.1C339,617.1,340.2,619.6,341.5,622.1z"/>
	<path d="M123.1,341.4c-3.7,6.9-7.4,13.7-11,20.6C114.2,354.3,117.5,347.2,123.1,341.4C123.1,341.5,123.1,341.4,123.1,341.4z"/>
	<path d="M233,246.2c-7.2-1.1-14.4-2.3-20.2-7.3C219.1,242.7,226.5,243.3,233,246.2C233,246.2,233,246.2,233,246.2z"/>
	<path d="M184.9,257.9c7.3,0.7,14.1,3.9,21.4,4.4C199.1,261.5,191.6,261.6,184.9,257.9z"/>
	<path d="M333.4,213.8c-1.6,7.3-7.2,12.1-11.7,17.5c1.2-3.4,3.4-6.3,5.9-8.7C330.3,220.1,332.2,217.2,333.4,213.8z"/>
	<path d="M394.5,240.1c-2.6,0.9-5.2,1.8-8.5,2.9c1.8-2.4,4.6-2.9,5.3-5.6c-0.6,0-1.2,0.1-2.4,0.2c3.1-1.9,5-4,6.9-6.3
		c-1.3,2.8-2.6,5.5-4,8.5C392.9,239.9,393.7,240,394.5,240.1C394.5,240.1,394.5,240.1,394.5,240.1z"/>
	<path d="M350.9,235.6c4.9-5.4,11.7-6.8,18.3-8.5C363,229.7,356.8,232.4,350.9,235.6z"/>
	<path d="M304.1,361.5c-3.7-3-8-5.6-8.4-11.4C298.6,353.9,301.3,357.7,304.1,361.5z"/>
	<path d="M474.9,426.5c-7.6,1-15.1,2.3-22.2,5.3C459.6,428,467,426.2,474.9,426.5z"/>
	<path d="M325.1,499.3c-1.8-3.5-4-6.9-3.6-11.9C324.4,491.4,326.5,494.8,325.1,499.3z"/>
	<path d="M26,490c2,5.1,2.7,9.1-0.9,12.4C24.2,498.7,25.1,494.9,26,490z"/>
	<path d="M275.9,365.2c-8.9,0.8-17.5,2.7-25.7,6C258.3,367.2,266.8,364.8,275.9,365.2z"/>
	<path d="M359.4,241.7c8.5-2.4,14.8,0.3,20.5,4.7C374.1,242.4,367.4,241.9,359.4,241.7z"/>
	<path d="M301.2,392.5c-5.1-0.8-10.2-1.6-15.3-2.4C291.3,389.2,296.5,389.3,301.2,392.5z"/>
	<path d="M443.6,498.1c-1.8-9.4-1-14.9,3-18.7C443.4,485.3,443.6,491.8,443.6,498.1C443.6,498.2,443.6,498.1,443.6,498.1z"/>
	<path d="M247.6,247.8c-6.3,2.4-13.1,3.6-19,7.2C234.1,250.6,240.6,248.4,247.6,247.8z"/>
	<path d="M437.8,475.4c0.7-6.8,3-12.8,8.8-17.1C442.1,463.2,439.8,469.2,437.8,475.4z"/>
	<path d="M343.2,230.7c5.4-2.5,11-3.9,17-3.5C354.5,228.4,348.9,229.5,343.2,230.7z"/>
	<path d="M492.2,506.3c-0.4-4.7-1.2-8.3,0.8-11.6c0.5-0.8,0.6-2.1,2-1.5c1.1,0.5,0.5,1.5,0.2,2.3
		C493.6,498.5,492.6,501.7,492.2,506.3z"/>
	<path d="M275.9,478.9c2.1-4.5,4.9-7.2,8.3-9.9C284,472.3,280.5,476.6,275.9,478.9z"/>
	<path d="M249.1,226.1c-3.4-1.2-6.8-2.6-10.2-3.6c-3.5-1-7.1-1.7-10.6-2.6C235.7,220.2,242.6,222.3,249.1,226.1z"/>
	<path d="M48,434.9c-3.8,7.2-5.9,7.8-13.4,4.4C40.1,441.5,44.6,440.3,48,434.9z"/>
	<path d="M317.5,268.4c2.4-7.7,7.5-10.8,12.6-13.7C325.3,257.9,321.9,262.6,317.5,268.4z"/>
	<path d="M82,422.8c-5.3,1.8-8.5,0-11.3-3.2C74.2,420.5,77.6,421.5,82,422.8z"/>
	<path d="M516.4,444.3c4.8,5.1,5.5,10.3,5.2,15.7C520.4,455,519.2,450.1,516.4,444.3z"/>
	<path d="M553.1,453.5c4-2.1,8.9,1.1,12,8.1C561.6,457.1,558.1,454.3,553.1,453.5z"/>
	<path d="M249.2,411.2c5.6-4.1,11.8-3.5,18.1-2.3C261,407.9,255.1,409.5,249.2,411.2z"/>
	<path d="M406.8,244.3c-0.9,0.7-1.8,1.3-3.1,2.3c2.3,0.4,4.1,0.6,7.2,1.1c-5.8,0.5-9.9,0-14-2C400.4,246.6,403.5,245.4,406.8,244.3z
		"/>
	<path d="M562.1,473.9c-3.1-4.2-7.6-6.6-11.7-9.6C556,465.4,559.6,469,562.1,473.9z"/>
	<path d="M401,442.5c6,2.4,8.7,7.3,9.8,13.4C408.6,450.7,405.7,446,401,442.5z"/>
	<path d="M339.4,393.2c3-3.7,7.4-4.1,11.7-4.6C347.2,390.2,343.1,391.3,339.4,393.2z"/>
	<path d="M118,450.3c-0.1-5.6-1.7-10.9-2.5-16.3c1.2,5.4,4.8,10.3,2.8,16.2C118.3,450.3,118.1,450.3,118,450.3z"/>
	<path d="M511.6,501.8c0.5,4.5,3.3,8.8,0.8,13.5C514.2,510.6,509.9,506.4,511.6,501.8z"/>
	<path d="M277.7,393.8c5.1-1.9,10.2-2,15.3-0.3C287.9,393.1,282.8,393.3,277.7,393.8z"/>
	<path d="M352.6,207c-1.9,3.4-4.8,5.8-9.6,8.6C346.1,211,349.4,209.1,352.6,207z"/>
	<path d="M343.3,231.8c-2.3,4.7-6.1,5.4-9.1,7.3C336.3,236,339.2,233.9,343.3,231.8z"/>
	<path d="M550.3,473.6c4,2.8,4.5,7.1,5,11.5C553.7,481.3,552.2,477.4,550.3,473.6z"/>
	<path d="M320.6,282.2c1.3-5.9,2.3-10.9,5.9-15C324.7,271.9,322.8,276.6,320.6,282.2z"/>
	<path d="M15.7,466.9c3.7-5.4,8.9-4.5,12.5-6.6C24.5,462.2,20.8,464.1,15.7,466.9z"/>
	<path d="M287.6,210.2c3.4,4.2,7.8,7.4,9.9,12.6C294.3,218.5,289.7,215.4,287.6,210.2z"/>
	<path d="M213.3,502.7c0.7,6.2,2,12.3,3.6,18.3C214.7,515.1,212,509.4,213.3,502.7C213.3,502.8,213.3,502.7,213.3,502.7z"/>
	<path d="M346.4,480.4c-2.9-2.3-4.5-5-5.4-8.2C343.1,474.6,347.3,475.5,346.4,480.4z"/>
	<path d="M395.7,474.4c3.4,2.6,6.2,5.5,6.8,10C400.2,481.1,397.9,477.8,395.7,474.4z"/>
	<path d="M253.3,388.9c3.8-0.9,7.6-1.7,12.9-2.9C261.3,389.3,257.3,389.3,253.3,388.9z"/>
	<path d="M260.3,414.6c-6-0.3-11.6,1.7-17.2,3.3C248.3,413.8,254.5,415.1,260.3,414.6z"/>
	<path d="M432.3,507.1c0.8,0.6,1.7,1.2,0.6,2.3c-0.4,0-0.8,0-1.3,0c-0.1-0.8-0.2-1.6-0.3-2.4c0.3,0.4,0.5,0.9,0.8,1.3
		c0.1,0.1,0.2,0.2,0.3,0.3c0-0.2-0.1-0.4-0.1-0.6C432.3,507.8,432.3,507.4,432.3,507.1z"/>
	<path d="M487.7,521.3c-1.2,0.7-1.5,0.9-1.8,1c0.1-0.3,0.1-0.5,0.2-0.8C486.1,521.4,486.4,521.4,487.7,521.3z"/>
	<path d="M481.9,520c0,0.1,0.1,0.1,0.1,0.2c-0.1,0-0.1,0.1-0.2,0.1c-0.1-0.1-0.1-0.2-0.2-0.3C481.7,520,481.8,520,481.9,520z"/>
	<path d="M434.1,511.7c0,0.2-0.1,0.4-0.1,0.6C434.1,512.1,434.1,511.9,434.1,511.7z"/>
	<polygon points="488.3,517.5 488.5,517.7 488.6,517.5 488.5,517.5 	"/>
	<path d="M482.6,518.8c0.1,0.1,0.2,0.3,0.3,0.4C482.8,519.1,482.7,518.9,482.6,518.8z"/>
	<path d="M433.5,510.6c0,0,0.2,0.2,0.2,0.2C433.7,510.8,433.5,510.6,433.5,510.6z"/>
	<path d="M359.9,319.7c0.6-0.9,1.1-1.8,1.7-2.7c8.4-6.8,14.1-7.1,20.3-1.1c3.9,3.8,5.7,8.4,5.2,13.9c-0.6,7-6.8,12.4-14.6,12.8
		c-7.2,0.3-13-3.9-14.1-10.3C357.8,328,359.2,323.9,359.9,319.7z M363,328.1c-2.6,1.6-2.1,3.8-1.2,5.4c2.4,4.1,4.7,7.5,11.2,6.2
		c8.9-1.7,11.5-3.4,11.7-12.3c0.1-2.3-1-3.9-2.6-5.3c-0.9-0.8-1.9-0.5-2.8-0.1c-0.9,0.3-0.9,1-0.7,1.9c1.1,3.8,0.5,7.8-3.1,9.2
		C371.3,334.9,364.7,334.7,363,328.1z M370.7,325.9c-1.6-2.5-1.2-6.2-5-5.8c-2.1,0.2-3.6,2.7-2.7,4.3
		C364.5,327.1,367.5,326.4,370.7,325.9z M376.2,317.1c-0.6-1.6-1-2.9-2.6-2.7c-2,0.2-3.7,1-4.8,3.3
		C371.4,317.5,373.6,317.3,376.2,317.1z"/>
	<path d="M223,379.6c-0.1,0-0.1,0-0.2,0C222.9,379.7,223,379.7,223,379.6C223,379.7,223,379.6,223,379.6z"/>
	<path d="M219.7,381.9c-0.1-0.3-0.3-0.5-0.4-0.8C219.4,381.3,219.5,381.6,219.7,381.9C219.7,381.9,219.7,381.9,219.7,381.9z"/>
	<path d="M487.6,517.6c-0.2-0.4-0.4-0.8-0.6-1.2c0.2,0.1,0.3,0,0.4-0.1c0,0-0.1,0.1-0.1,0.1C487.4,516.8,487.5,517.2,487.6,517.6z"
		/>
	<polygon points="487.4,516.3 487.5,516.3 487.4,516.3 	"/>
	<path d="M237.5,323.3c0-8.1,7.6-15.6,15.7-15.5c7.1,0.1,13.8,7.6,13.7,15.4c0,9-6.4,15.2-15.6,15.2
		C243.5,338.4,237.5,331.9,237.5,323.3z M245,311.7c-1,1.2-1.7,2.3-2.6,3.4c-5.1,6.3-2.8,17.2,4.4,20.6c4.4,2.1,9,1.9,12.6-1.4
		c4.3-3.9,5.2-9,3-14.6c-0.5-1.3-0.8-2.6-2.6-2.4c-1.2,0.1-2.3,0.5-2.5,1.6c-0.3,1.5,1,2.3,2.2,2.7c2.4,0.9,2.5,2.4,1.8,4.6
		c-2.1,6.4-7.3,4.9-11.8,4.7c-4.6-0.3-6.9-3.7-6.1-8.3c1.6-0.9,4.7,1.3,5.1-2.1c0.3-2.4-1.1-3.9-3.9-4
		C245.7,314.8,247,313.4,245,311.7z"/>
	<path d="M187.7,444.4c3.8-11.8,9.7-22.4,18.5-31.3C199.5,423.3,193.1,433.5,187.7,444.4z"/>
</g>
</svg>
