<?xml version="1.0" encoding="utf-8"?>
<!-- Generator: Adobe Illustrator 24.2.3, SVG Export Plug-In . SVG Version: 6.00 Build 0)  -->
<svg version="1.1" id="Layer_1" xmlns="http://www.w3.org/2000/svg" xmlns:xlink="http://www.w3.org/1999/xlink" x="0px" y="0px"
	 viewBox="0 0 595.3 841.9" style="enable-background:new 0 0 595.3 841.9; fill: #215342;" xml:space="preserve"
	 height="300" width="450" transform="translate(-150, -15)">
<g>
	<path d="M266,263.4c12.8,3.2,26.3,22.2,22.2,31.6c-4.2-4.2-9.4-6.1-16.5-6.7c3.3,2,5.4,3.3,7.5,4.7c-0.1,0.2-0.2,0.4-0.3,0.6
		c-3.7-1.2-7.4-2.4-11.1-3.5c12,6.8,19.3,17.7,26.9,28.4c-14.1-14.7-33.3-15.9-52.2-20.2c1.9,3.2,4.6,4,7,5c2.6,1,5.2,1.8,8.5,2.9
		c-5.7,2.3-10.5,0.1-15.6-0.4c10.1,6.8,24,6.3,33.8,18.7c-9.4-5.6-17.1-9.6-28.6-9.8c16.1,11.1,31,20.7,33.9,40.8
		c-5-8.3-10.4-15-19.4-17.8c9.5,8.1,14.7,18.8,18.8,30.3c-5.3-5-9.8-10.8-17-13.3c15.1,16.7,30.5,33,38.3,56.5
		c-5.6-4.2-8.5-9.3-15.9-11.9c10.6,10.5,15.3,21.3,15.2,34.2c-0.1,18.4-10.7,32.1-28.6,36.4c-9.9,2.4-19.9,4.2-31,6.6
		c6.1,1.9,11,3.5,17.1,5.4c-9,3.2-17.1,4.8-24.9,9.2c5.1,2,9.6,0,15.1,0.6c-9.2,5.9-20,6.7-28.1,15.5c4.3-1,7.3-1.7,11.9-2.8
		c-6.7,4.6-12,8.2-18.4,12.6c5.7-0.5,8.7-4.6,14.1-4.5c-3.8,2.7-6.8,4.8-10.1,7.2c3,1.4,5.4-1.4,8.5-0.9
		c-4.6,5.8-10.5,9.3-17.5,14.1c7.4-0.4,12.6-2.6,18.1-4.9c-10.9,12.2-18.9,25.7-22,41.8c4-4.7,5.5-11.3,13-15.1
		c-3,7.7-6.1,14.1-6.9,21.2c-0.9,8,3.2,13.1,9.9,19.4c-2.9-8.3-5.2-14.8-2.2-24.2c0,13.5,6.1,19.9,15.4,25.4
		c10.4,6.2,18.6,2.3,27.4-2.6c-2.9,4.2-7.6,5.8-11.8,8.4c4.8,2,6.5,5.4,6,9.8c-17.1-6.3-32.7-16.6-51.9-14.4
		c4.3-0.3,8.6-0.5,12.9-0.8c-9.6-5.7-20-2.4-29.9-3.9c8.1-0.4,16.4-0.8,24.6-1.2c0-0.5,0-1.1,0-1.6c-19.4,0-39.2-2.5-58.1,0.7
		c-20,3.3-38.9-3.8-58.4-1.9c7.5-0.4,15-0.8,22.9-1.2c-2.7-4.2-14.6-6.7-17.5-3.6c-5.7,6.1-8.8-1.9-13.3-2.3c-1.2-0.1-3.8-2.1-6-2.2
		c-8.2-0.1-16.4-0.1-24.6-0.4c8.1-0.5,16.1-1,24.2-1.6c1.2-0.1,3.1,0.4,2.9-1.8c-0.1-1.9-1.6-2.1-3.1-2c-3.5,0.1-7.1-0.1-10.3,1.9
		c-4.2,2.6-7.4-1.7-11.5-1.5c-13.2,0.6-26.5,0.5-39.7,0.7c-1.2,0-2.4-0.1-3.6-1.1c14.2-1.5,28.4-3,42.6-4.3c2.6-0.2,3.7-1,4.1-3.6
		c1.1-8.4,5.2-16,7.7-24.1c3.1-10,12.1-14.8,22.4-16.1c2.2-0.3,3.2-1,3.3-3.1c1.6-28.5,8.9-55.6,20.5-81.6c0.1-0.3,0-0.7,0-1.4
		c-0.7,0.1-1.3,0.1-1.8,0.3c-4.7,2.3-6,1.4-5.7-4.2c0.8-16.2-3.4-31-14.7-43.2c-1.1-1.1-2.7-2.6-4-2.5c-1.8,0.1-1.8,2.5-2.2,4
		c-0.8,3.2-1.4,6.5-2.2,10.1c-11.7-12.5-13.5-20.4-9.8-42.4c-2.1,1.5-3.7,4-5.4,9.2c-1.2,3.6-2.1,7.2-3.4,12.1
		c-4.1-8.2-3.5-15.7-2.6-23.2c2-16.9,13.3-26.5,27.8-32.5c20-8.3,38.3-19,55.1-32.7c6.9-5.7,15.2-8.7,25.7-10
		c-8-2.9-14.7-3.5-22.6-4.3c11.1-6,22.2-7.6,34.6-9.8c-3.8-0.8-6.3-1.4-9.6-2.1c7.8-4.7,14.9-3.2,21.9-1.3c7.3,1.9,13,6.2,19.5,13.2
		c-1.8-5.1-2.9-8.2-4.7-13.4c10.8,9.3,14.8,21.2,23.2,30.5c0.1-3.9,1.8-3.5,4.3-2.6c10.8,4,22.7,2.5,35.3,7.4
		c-6.9-8-14.3-11.6-22.9-15.7c10.4-2.9,19.5-3.4,29.5-1.2C279.3,275.4,272.8,269.3,266,263.4C266,263.4,266,263.4,266,263.4z
		 M184.3,449.5c3.8-1.8,6.2-5.3,11.4-6.2c-9.5,11.1-21,19.3-25.9,32.5c5.6-5.5,10.8-11.1,20.2-14.1c-10,10.7-15.6,21.6-15,37.2
		c2.4-5.5,3.9-9.1,5.6-12.6c1.7-3.5,3.6-6.9,8-10c-4.5,12-6.7,22.9-0.6,36c0.4-5.9-0.6-9.9,1.3-14.5c2.7,10.9,8.1,19.1,16.2,27.6
		c-1.4-3.9-3.4-5.8-3-8.6c4.4,3.3,11.7,0.1,15-6.5c-1.5-0.5-3-1-5.8-1.8c6.8-4.6,12.8-8.7,18.8-12.8c-3,0.6-4.9-0.6-6.7-2.6
		c6.3-5.1,13.9-7.8,21.9-11.2c-4.8-2.2-10.1-1.5-13.9-5.9c1.7-0.7,2.9-1.3,4.2-1.6c9.9-3,20.1-4.8,30.4-5.9
		c31.2-3.2,40.1-42.9,23.7-60.7c-3.2-3.4-5.8-7.4-9-11.5c5.3-0.5,9.1,1.6,14,4.7c-11.1-21.7-25-39.2-44.1-54.5
		c9.3,0.9,15.6,4.7,23,9.8c-5.7-10.3-12.6-17.2-22.5-21.5c4.1-2.3,7.8-1.2,12.9-1.4c-9.6-3.9-16.8-8.7-21.8-16.1
		c-1.9-2.7-3.9-3-6.7-2.2c-12.1,3.6-21.9,10.6-29.7,20.5c-0.9,1.2-1.4,2.7-3.2,6.2c8.4-7.1,15.3-12.2,27.1-9.3
		c-8.9,0.6-14.7,2.7-18.5,9.7c2.4-0.6,3.9-0.9,5.9-1.4c-3.3,3.4-6.2,6.3-8.9,9.4c-2.6,3.1-4.5,6.6-6,11.5
		c15.6-13.9,16.9-14.8,22.2-14.8c-12.4,8.5-14.4,22.5-19.3,34.9c4.2-3.6,6.5-8.8,11.8-11.3c-11.9,13.9-18.7,31.8-34.6,42.6
		c7.2-2.6,12.6-7.5,18.3-12.3c-6.7,8.1-13.4,16.2-20,24.3c6.4-3.1,10.3-9.3,17.8-12.6c-2.7,5.4-4.8,9.7-8,16.1
		c4.7-4.1,7.5-6.5,10.3-9c0.3,0.3,0.7,0.6,1,0.9C196.1,430.2,190.4,439.6,184.3,449.5z M212.5,539.6c-14.1,0.2-21.2-10.4-30.3-18
		c-9.3-7.7-17.3-8.4-26.7-2.7c-10.2,6.1-19.5,13.4-26.9,22.9c-6.7,8.6-11.4,26.4-8.7,34.4c0.8-4.1,1.1-8,3.1-11.4
		c1.3-2.1,3.1-3.3,5.6-3c2.5,0.3,3.6,2,4.3,4.2c1.2,3.9,0.4,7.8-0.8,11.5c-1.2,3.5,0.2,4.4,3.3,4.7c12.2,1.3,24.8-6.5,31.4-19.5
		c3-5.9,4.8-12.1,6.8-19.9c0.4,10.7-2.3,19.3-5,28.3c8,0.7,15.5,1.6,23-0.2c5.8-1.4,4.6-7.3,6.8-12c0.6,2.3,1.1,3.8,1.6,5.8
		C204.2,556.1,208.2,548.2,212.5,539.6z M149.4,345.3c1.5-14.9-5-30.1,6.6-42.6c0,3.1,0,5.9,0,8.6c6.6-5.7,9.5-14.5,18.3-18
		c-11.5,9.6-13.5,22.7-14.2,36.3c-0.8,16.8-2.8,33.4-7,49.7c-2.3,8.7-5,17.2-7.9,25.7c11.1-21.5,21.6-43.2,29.4-66.2
		c3.7-11,6.8-22.2,12.4-32.4c3.6-6.4,8-12.2,16.5-11.5c2,0.2,1.4-2,3.4-2.6c3.8,7.4,13.8,4.8,18.6,11.4c0.7,1,2.5,0.7,2.5-0.9
		c0-3.6,0.6-7.4-1-10.9c-1.5,1-1,3.2-3.3,3.4c-0.7-6.8-1-13.7-6.4-19.2c0.1,3.6,2.7,6.6,0.8,10.8c-6.8-5.4-12.3-12.3-21.5-14.4
		c1.6,2.3,4.5,2.6,5.1,6.1c-8.2-2.4-16-5.7-24.8-2.5c1.9,0.6,3.1,0.9,5.9,1.7c-6.5,0-11.5-1.2-16.7,1.5c6,2.1,12.3,2.4,17,8
		c-7,0.6-13.3,0.5-18.8,3.4c-5.3,2.8-10.7,5.7-15.7,9c-5.2,3.4-10,7.2-15,10.8c-12.5,9-12.5,9-13,12.2c4-1.5,7.2-4.7,12.3-5
		c-3.5,6-8.7,10.2-11.2,16.9c3.3-1.8,5.1-4.8,9.2-5c-4.2,8.7-7.8,17.2-7.2,27.8c3-6.2,4.1-12.1,9-16.9c0.8,6.1,0.3,11.5,2.6,17.7
		c1.1-4.1,1.9-7.3,2.8-10.8c2.5,2.4,2.1,5.9,5.3,7.4c-0.1-1.2,0-2.1-0.3-2.8c-1.6-4.6-2.4-9.3-2.1-14.1c0.1-1.2,1-3.1,1.8-3.3
		c1.8-0.5,1.9,1.6,2.3,2.8C146.1,339.7,146.5,342.4,149.4,345.3z M98.7,526.4c2.9-2.6,4.5-4.4,6.3-5.8c2-1.5,4-3.1,6.3-4.1
		c2.9-1.2,3.8-3.2,4.2-6c5.5-40.8,21-77.3,46.3-109.7c1.1-1.4,4.5-3.2,1.1-5.4c-2.7-1.7-5.5-4-8.2,1c-7.6,13.7-15.8,27-28.5,36.8
		c-2.5,1.9-5.1,3.5-6.5,6.6c-6.9,15.7-12.7,31.8-16.4,48.6C100.8,500.5,99.1,512.6,98.7,526.4z M142.9,521.4
		c-3-4.3-9.7-6.7-15.9-5.8c-22.7,3.4-43.2,32.7-38.7,55.4c0.2,1.2,0.1,2.8,2,3.6c0.3-3.6,0.4-7,1.1-10.4c0.7-3.3,2.7-6.3,6.3-5.8
		c3.4,0.5,4.5,3.7,4.6,7c0.1,3.9,0,7.7,0,11.6c7.1,0.1,10.8-1.8,10.8-6.1C113.3,548.6,123.9,532.6,142.9,521.4z M83.3,380.5
		c-1.8-15.7,6.1-27.8,15.8-39.6c-2.7,0.1-4.3,2.5-7,1c4.4-7.7,12.9-11.1,18.8-18.1c-27.6,7.1-49.1,30.8-43.5,50.3
		c1.2-15.4,11.9-21,21.8-29.4c-11.8,27.7-13,40-4.5,47.3c1.8-8.8,7.2-16.4,6.1-26.7C87.6,370.8,87.5,376.6,83.3,380.5z M74.6,567.6
		c4.8,0.6,8.9,0.7,7.8-6.1c-0.2-1.5,0.1-3,0.3-4.5c1-11.2,6.7-20.1,14.1-28.2c-8.5-2.4-21.6,9.2-25,21.5
		C81,554.7,75,561.6,74.6,567.6z M112,435.9c7-3.6,12.2-7.6,16.8-13.5c-3.5-0.2-4-2.4-4.2-4.9c-2.3,1.6-2.3,4.6-4.9,5.5
		c-1.2-2.8,1.8-6.1-1.2-8.7c-0.8,0.7-1.6,1.4-2.5,2.2c-0.1-10.9-0.1-10.9-3.8-9.3c-0.4-2.2-0.7-4.3-1.4-8.6
		C108.4,412.3,113.2,423.5,112,435.9z M168.7,397.9c-20.3,13.7-56.4,98.1-49.6,115.7C125.5,470.7,141.7,432,168.7,397.9z M156,587.1
		c17.5,0,35.1,0,54.4,0C204,582.8,160.1,583.9,156,587.1z M96.6,580.9c1.8-2.8,3.4-13.5,2.3-16.3c-0.8-2-2.2-3.3-4.3-1.7
		C91.7,565,93.3,579,96.6,580.9z M124.5,587.7c3.8-7.5,5-13.5,4.7-19.8c0-0.8-1.7-2.2-2.2-2.1c-1,0.4-2.2,1.4-2.6,2.4
		C122,573.9,122.9,579.7,124.5,587.7z M65.8,566.8c0.2,1.5-0.7,3.5,1.4,4.5c0.4,0.2,1.7-0.7,1.9-1.3c1.5-4,2.8-8,4.1-12.1
		c0.3-1,0.3-2.4-1-2.9c-1.3-0.5-2.2,0.3-2.9,1.2C66.7,559.1,66.1,562.9,65.8,566.8z"/>
	<path d="M344.1,354.3c-3.8-11.3,6.9-14.4,12-21.3c-11.3,0.4-15.3,9.1-20.4,16.6c-1.5-12.7,11.4-33.5,25.2-40.9
		c5.6-3,11.8-5.3,15-11.5c0.9-1.8,2-3.5,0.9-6.7c-5.6,7-11.8,12.2-21.4,12.7c1.3-1.4,2.1-2.3,3.6-4c-6.5,1.2-12.1,2.2-17.8,3.2
		c-0.2-0.4-0.3-0.7-0.5-1.1c2.7-1.8,5.3-3.6,8.7-5.9c-8.4-2.8-12.7,5.3-19.6,5.7c3.9-7.6,6.4-15.5,6-25c-3,3.9-4.4,7.8-8.2,10.7
		c-0.8-3.2-1.4-5.7-2.1-8.3c0.2,9.1-1.7,16.9-11.7,21.9c2.8-8.2,2.4-15.1-3.8-21.1c-2.3,4.7,0.6,10.8-4.6,14.5
		c-6.2-15.7-19.5-22.9-33.4-29.6c-1.9-0.9-4-1.4-6.2-0.7c0,0,0.1,0,0.1,0c-1.2-0.6-2.3-1.2-3.8-2c10.5-4,27.5,5.6,43.2,23.9
		c1.5-6-1.6-11.1-3.1-16.6c7.1,1.3,12,8.7,16.5,24.3c3.8-2.7,3.8-3.5,1.3-25.3c6.2,2.2,7.8,7.7,9.8,14.1c2.5-6.1,4.6-11.1,7-16.9
		c4.3,9.3,3.8,18.1,0.6,29.4c4.9-5.2,8.3-8.8,11.7-12.2c1.1-1.1,1.7-3.6,3.5-2.7c2.1,1,0.6,3.2,0,4.7c-0.6,1.8-1.5,3.4-2.8,6.1
		c3.7-1.5,6.5-2.6,9.8-3.9c-0.4,3.9-3.3,5.7-5,8.3c9.1,0.6,18.3-5.9,20.3-14c2.9-11.7,7.6-22.5,17-30.5c2.9-2.5,3.8-2.8,7-2.9
		c-2,4.1-4,8.1-6.9,14c6.2-4.6,10.9-7.7,16.2-9.5c5.4-1.8,10.8-3,17.9-1.9c-4.5,2.3-7.8,4-11.1,5.8c14-0.8,25.5,5.2,37.7,13
		c-6.5,0-11.8-1.6-17.6,0c22.9,10.8,39.6,29.5,61.1,41.3c8.7,4.8,17.8,8.3,26.9,12c11.4,4.7,20.3,11.8,22.5,24.9
		c0.1,0.4,0.2,0.7,0.1,1.1c0,0.2-0.2,0.4-0.6,1.1c-4.8-4.6-9-9.8-15.6-13.7c1.6,6.7,2.8,12.6,1.2,18.7c-1.3,5-3.2,9.6-7.1,13.1
		c-0.8,0.7-2.1,1.4-3,1.2c-1.4-0.3-0.9-1.9-0.9-2.9c-0.1-2.8,0.5-5.7-2-8.9c-4.7,19.1-21.6,33-19.4,54.8
		c-11.9-6.3-21.5-14.2-30.4-23.1c6.2,9.3,12.7,18.4,18.4,28c20.5,34.8,32.8,72.1,35.3,112.5c0.3,4.4,1.1,7,6.6,7.7
		c11.7,1.5,19.3,11,21.1,23.2c0.6,4.3,2.7,8.7,4.6,12.4c2,4,8.2,1.9,12.5,2.6c5.9,1.1,12,1.4,17.9,3.5c-8.7,0-17.5,0-26.2,0
		c-3.1,0-6.3-0.4-8.7,2.5c-1.1,1.2-2.9,1-4.2,0.1c-6.6-4.6-10.8-3-12.4,5.5c5.5,0.4,11.1,0.9,16.8,1.3c0,0.3,0,0.5,0,0.8
		c-4.4,0-8.8-0.1-13.2,0c-3.5,0.1-7.2-0.4-9.3,3.8c-1,1.9-3.9,2.1-5.4,0.5c-3.4-3.8-7.7-2-11.7-2.4c-2.4-0.2-2.4,1.8-2.7,3.3
		c-0.6,2.7-2.4,4.8-4.7,3.3c-3.7-2.5-5.6-0.3-8.3,1.3c-8.1,4.8-21.8,2.3-30.8-5.6c-3.3-2.9-6.6-4-10.9-3.9
		c-13.6,0.2-27.2,0-40.9,0.1c-1.4,0-3.1-0.5-4.3,1.6c8.2,0.4,16.2,0.7,25.2,1.1c-10.9,0.9-20.9-0.9-30.4,3.4c19.7,0,39.5,0,59.2,0
		c0,0.7,0,1.4,0,2.1c-9,0-18,0-27,0c-8.2,0-16.4,0.4-24.6,0c-7.5-0.3-13.9,1.2-18.9,7.2c-1.9,2.2-4.5,3.8-7.9,6.7
		c0.7-3.2,1.2-5,1.8-7.5c-4.3,1.5-7.9,2.7-12.5,4.3c3.6-7.8,9.1-11.8,16.2-14.3c0.1,0.4,0.2,1,0.4,2.1c7.6-6.4,9-14.7,8.1-25.2
		c4,7.1,2.7,13.3,2.6,19.3c9.3-3.5,10.4-8.4,5.1-24.6c2.6,2.4,4.5,4.2,6.8,6.3c1.1-4.5-1.4-7.8-2-12.3c2.1,2.4,3.6,4.1,5.8,6.5
		c-0.4-15.6-6.8-27.4-18.6-38.9c8.3,3.1,14.8,5.3,22.2,1.2c-12.3-7.3-23.4-15.1-33.4-24.9c2.5-1.6,4.8,1.1,7.1-0.8
		c-5.8-5.6-13.3-8.4-20.5-13.2c4.1-0.4,7.5,1.2,11.5-0.4c-7.2-3.6-14.6-5.3-21.2-10c6.3-1.6,12.2-3.1,18-4.6
		c-22.5-1.4-45.6-1.3-56.4-26.9c-10-23.8-0.8-43,14.9-60.5c-2.7-0.1-4.7,1-9.1,5.6c-2.6,2.8-5.1,5.8-7.8,8.7
		c0.4-14.3,9-25.7,35.6-47.8c-5.9,0.1-10.5,2.7-16.3,5.7C342.8,356.5,343.4,355.4,344.1,354.3c8.4-5.3,17.2-7.9,27-3.5
		c-6.4,1.6-12.5,3.5-17.8,7.6c-5.2,4-10.4,8-14.6,13.1c-4.1,5-7.9,10.1-10.4,16.8c9.7-5.8,13-6.7,17.4-4.8
		c-8.9,6.3-14.1,15.3-18.8,24.8c-11.2,22.8,2.2,56.7,31.2,58.4c8.4,0.5,16.8,1.7,25.2,2.8c2.9,0.4,6.2,0.5,8.9,3.9
		c-7.9,1.6-15.3,2.7-23.8,6.4c16,3.4,27.1,11.7,34.5,25.2c-1,0.6-3,1.7-5.4,3c3.2,2.8,5.3,4.5,7.2-0.6c1.2-3.1,2.7-6.4,7.4-7.2
		c-0.3,4.3-2.5,6.8-5.4,9c-1,0.8-2.5,1.5-2.2,3.2c0.1,0.5,1.1,1.1,1.7,1.2c1.8,0.3,2.1-1.3,2.9-2.4c7.4-10.4,13.5-21.4,14.7-35.2
		c3.4,3.8,3.3,8,5.3,12.4c1.6-11.4-1.1-20.9-5.1-30.2c12.4,11.8,13.5,26.5,9.9,44c5.3-7,7.3-13.4,8.2-20.2c0.9-7-2.3-13.1-5.8-20.9
		c5.3,4,8.1,7.9,10.5,12c-0.7-8.2-6-13.6-10.8-19.5c3,2.3,6,4.6,10.3,8c-5.1-11.2-14.6-16.6-21.5-26.8c5.8,4.7,10,8,14.9,12
		c-5.5-14.9-12.5-27.9-19-41.3c3.9,5.7,7.8,11.3,11.6,17c-4-11.7-11.6-21.3-17.2-32c6.3,6.4,12.5,12.9,20,18
		c-11.9-12.4-15-30.7-30.4-43.2c6.5,2.6,8.9,6.6,13.2,9.9c-3.6-13.9-10.2-24.3-24-30.7c7.9-1,13,2.7,19.6,5.4
		c-4.1-7-9.3-11-15.7-14.8c5.8-1.3,9.8,2.8,15,2.5c-4.4-8.3-10.8-13.1-19.2-15.4c7.5-0.1,13.4,4.2,21,8.4
		c-9.7-13.8-21.6-21.4-36-25.4c-0.8-0.2-2.3,0.1-2.7,0.7c-7.1,10.2-19.4,13.3-28.4,21c-2.7,2.3-4.5,4.9-6.6,9
		c10.3-7.7,19.2-8.7,24.5-3.3C354.8,336.3,347.8,343.7,344.1,354.3z M538.8,336.1c-23.1-18.2-54.4-21.3-77.7-40.3
		c1.9,3.3,3.8,6.6,6.1,10.6c-5.6-2.9-10.3-5.3-15-7.7c5.7,4.9,4.5,13.5,10.5,17.9c-3,0.7-4.6-2.1-6.9-2.2c2,21,6.9,41,18.8,59
		c0.6-0.9,1.1-1.6,1.7-2.5c1.7,2.8,3.2,5.2,4.9,8c1.4-2.7-0.5-5.6,1.9-7.8c2.6,5,5,9.8,7.9,15.6c0.7-2.6,1-3.7,1.6-5.6
		c1.2,2.8,2.2,4.9,3.4,7.8c1.9-3.4,3.4-6,5.1-9c0.2,1.4,0.3,2.3,0.6,4.1c5.7-12.6,12.9-23.7,13.8-37.1c3.2,0,3.1,3.3,5.3,4
		c0.4-2.3,0.7-4.3,1.2-7c1.6,3.3-0.1,6.7,2.5,9.6c0.7-12.2-4.4-20.6-14-26.7c6.9,2,12.2,5.9,16.3,12.7c-0.2-4.4-3-6.6-4.4-10.3
		C529,330.3,533.7,333.6,538.8,336.1z M427.8,563.1c1.9,5.9,0,13.5,8.1,15.4c6.2,1.5,12.4,0.9,19.2,0.5c-2.9-8.4-5.4-16.3-4.7-25.9
		c0.5,2.2,0.8,3.4,1,4.6c3.4,14.7,9.5,27.3,25.2,32.2c5.7,1.8,12.3,2.3,17.2-1.1c2.6-1.8-1.7-5.8-2.3-9c-0.8-4.6-2.1-9.5,2.5-12.4
		c4.5-2.9,5.9,2.5,8.9,4.6c0-1,0.1-1.7,0-2.4c-2.5-17.1-13.2-28.7-26.3-38.5c-14.6-10.9-24.1-10.5-38.6,0.5c-3.9,3-7.1,7.5-12,8.3
		c-10.9,1.8-10.1,7.6-6.4,15.1c0.8,1.5,0.6,3.5,2.3,4.5c1-0.5,2-1,3.4-1.8c0,2.8,0,5.1,0,7.9C426.3,564.7,426.8,564.1,427.8,563.1z
		 M437.8,394.4c2.3,2.7,4.7,5.2,7,7.9c27.9,33.6,44.4,72.3,51.8,115.1c0.2,1.3,0,3.3,1.8,3.3c8.1,0.2,14.2,4.3,20.5,10
		c0-2,0.1-3,0-4.1c-1-11.5-2.5-23-5-34.3c-9.1-41.4-27.9-78.1-55.2-110.4c-1.1-1.3-2-3-4.2-1.1C449.1,385.4,443.7,389.7,437.8,394.4
		z M383.5,293.8c2.3-10.4,8.7-12.1,18-13.6c10.2-1.6,14.6,3.3,19.1,9.7c3,4.2,5.5,8.8,7.4,13.5c12,28.5,24.6,56.7,44.2,81.1
		c3.1,3.8,6.5,7.4,9.7,11.1c-14.8-25.5-23.6-52.9-29.9-81.4c-5.1-22.9-15.9-42.3-41.1-49.2c4.3,0.5,8.7,1,13,2
		c4.5,1.1,8.4-0.5,13.5-2c-13.1-5.1-25.2-6.7-38.5,0.3c4-7,11.2-7.6,15.7-12.3c-6,0.5-10.5,3.2-14.9,6c-4.6,2.9-8.3,6.7-11.5,11.9
		c-1.8-4.8,0.6-8.3,0.6-12.1C381.2,265.8,378.2,284.4,383.5,293.8z M529.3,577.8c1.4-0.7,1.1-2.1,1.1-3.3
		c0.6-20.2-8.5-35.6-24.1-47.5c-6.4-4.9-15.7-4.6-21.6-0.3c-1.7,1.3-3.3,2.4-0.4,4.5c16.3,11.4,25.1,27,24.8,47
		c-0.1,7.1,4.2,5.6,8.2,6.1c-0.5-5.2-1.2-9.7-1.4-14.4c-0.2-3,0.7-6,4.1-6.8c3.6-0.8,5.3,1.9,6.4,4.6
		C527.7,571.1,528.4,574.5,529.3,577.8z M493.6,522.9c6.7-23.2-36.8-116.1-58.3-126.6C466.9,432.1,485.6,474,493.6,522.9z
		 M524.8,539.3c9.5,14.2,11.4,17.8,11.2,26.8c-0.1,5.5,2.8,6,7.1,6.3c-0.9-5.2,0.5-10,1-14.8C544.8,550.3,533.1,540.1,524.8,539.3z
		 M524.2,590.2c2.4-9,2.3-15.6-1.2-21.8c-0.4-0.7-1.6-1.3-2.5-1.3c-1.3,0.1-1.7,1.4-1.7,2.6C518.7,576.2,520.9,582.1,524.2,590.2z
		 M503.3,592.2c0-7.7-2.2-13.4-4.5-19.1c-0.5-1.3-1.4-3-3.4-2.3c-1.6,0.7-2,2.4-1.6,3.9C495.5,580.8,497.8,586.6,503.3,592.2z
		 M549.2,572.2c-0.1-0.8-0.1-1.7-0.3-2.5c-0.8-2.6-0.4-7.5-3.4-7c-3.5,0.6-0.9,4.9-1,7.5c0,0.9,0.1,1.8,0.3,2.6
		c0.3,1.6-0.1,4.2,2.3,4C549.5,576.7,548.9,574,549.2,572.2z"/>
	<path d="M346.5,599.8c-2.5-2.7-4.2-4.6-5.9-6.6c7.3,2.8,13.4,8.3,22.5,8c-1.7-2.5-3.1-4.5-5.1-7.6c6,2.6,10.9,4.7,15.7,6.9
		c1.3,0.6,1,1.8,0,2.4c-1.3,0.8-2.8,1.9-4.1,1.8c-8-0.7-7.6,5-8.2,10.2c-0.7,6.2-1.8,12.3-5.9,18.3c-0.6-3.3-1-5.6-1.7-9
		c-3,5.6-4.9,10.8-9.2,15c-0.2-2.5-0.4-4.5-0.8-8.4c-6,11.2-16.2,14.3-24.1,20.6c-1.8,1.4-3.2,0.9-4.8,0.3
		c-10.4-4.3-20.2-9.5-28.1-20.4c0.6,4.1,1,6.5,1.6,10.9c-3.9-5.6-6.6-9.5-9.5-13.6c-1.8,2,0.8,4.2-0.6,6.4c-6.3-5.4-7.9-12.7-9.5-20
		c-0.1-0.2,0-0.5-0.1-0.8c-0.4-6.1,0.4-13.3-9.7-9.8c-1,0.4-2.5-0.2-3.2-1.9c4.1-2.9,8.2-5.8,12.7-8.9c-0.6,3.9-4.2,4.6-6.5,7.8
		c7-1.1,12.2-4.6,18.8-8.7c-2.1,3.2-3.3,5-5,7.6c9.2-1.6,14.6-8.1,21.8-13c-0.7,4.8-4.5,6.6-6.9,10c1.4-0.2,2.2-0.2,2.9-0.5
		c5.3-2.3,10.7-4.3,15.6-7.2c4-2.3,2.9-10-1.4-12.1c-13.8-6.9-25.1-16.6-34-29.3c-10.1-14.5-7.5-31,8.5-38.5
		c20.9-9.8,42.9-9.4,63.5,1.1c13.4,6.9,16.3,21.1,8.8,34.1c-8.3,14.5-21.1,24.2-35.4,32.1c-4,2.2-5.2,11-1.4,11.8
		C327.7,590.8,335,599,346.5,599.8z M314.2,611.2c-0.3,0-0.5,0-0.8-0.1c-0.1-1.3-0.2-2.6-0.3-4c-0.3-9.5-1.8-10.7-11-8.5
		c-1.1,0.3-2.2,0.6-3.3,0.8c-10.1,1-11.8,13.2-8.7,19.1c8.4,16.1,31.4,19.3,43.9,6.1c10.4-10.9,6.8-23.7-7.8-27.3
		c-5.6-1.4-9.7,0.3-10.8,6.7C315.1,606.5,314.6,608.8,314.2,611.2z M346.6,521.8c-2-3.5-3.2-5.9-6-7.5c-16.9-9.1-34.2-5.6-51.6-2.1
		c-1,0.2-2.5,0.9-1.7,1.9c3,4.2,0.8,11.3,9.9,12.3C314,528.3,330.3,529.5,346.6,521.8z M355.3,621c0.9-2.9-0.3-5.5,2.4-7.8
		c1.5-1.3,3.3-6.1,0.2-8.2c-3.3-2.2-6.5-1.6-8.4,3.2c-2.2,5.7-5,11.4-9.4,15.8c-18.1,18.4-35,19.2-50.9-0.5
		c-4.4-5.5-7.8-11.7-11.4-17.8c-1.5-2.4-3.1-3.5-5.9-2.7c-3.1,0.9-1.8,3.2-1.4,5c0.9,4.2,2,8.3,3.1,12.5c0.1,0.4,0.6,0.7,1,1.1
		c0.7-1,1.2-1.9,2-3c2.8,4.8,3.2,10.5,7.3,14.2c1.6-1.5-0.5-3.9,2-5.4c6.6,10,17.3,14.6,27.1,20.4c2.4,1.4,4,1.3,6.3-0.6
		c7.7-6.4,17.5-10,24-19c1.1,2.8,1.8,4.5,2.9,7.1c2.4-6.4,4.4-11.9,6.7-17.9C353.8,618.8,354.4,619.7,355.3,621z"/>
	<path d="M235.5,452.6c3.4,0,6.1,0,8.8,0c-10.7-0.5-18.1-7-25.5-13.6c-2.4-2.1-5.2-1.2-9.6,1.2c8.6-13.6,9.7-29.4,23.5-37.7
		c7.7-4.6,15.7-5,23.3-0.3c9.7,5.9,14.5,15,14.2,26.3c-0.3,13.9-18.2,27.9-31.9,25.2C237.5,453.6,236.8,453.2,235.5,452.6z
		 M240.7,405.4c-10.2,1-20.5,13.4-19.8,23.7c0.6,7.8,9.4,16.7,16.4,16.5C225,427.4,225.6,421,240.7,405.4z M264.9,426.5
		c-2.5,6.7-6.2,11.5-13.1,12.5c-6.9,1-11.9-1.8-14.9-8.3c-0.4-0.9-2.1-2-2.9-1.8c-1.8,0.4-1.1,2.3-0.9,3.5
		c1.3,8.6,10,14.9,18.7,13.6C261,444.7,266.4,436.9,264.9,426.5z M256.6,419.6c-0.1-3.6-1.9-6-5.9-6.1c-3.9-0.1-6,2.3-6.1,6.1
		c0,3.5,1.9,5.8,5.5,5.9C253.7,425.6,256.4,424,256.6,419.6z"/>
	<path d="M274.3,421.8c-7.4-13.9-13.6-29.2-33.6-25.3c-17.3,3.4-24.1,17-30,33.6c0-10.5,3.6-18.1,7-25.3
		c3.4-7.3,10.4-12.3,17.8-16.3c-3.2,0.7-6.4,1.4-10.5,2.2c9-8.5,19-9.1,29.8-8.7c-2.8-1.4-5.6-2.7-9.3-4.5
		c6.8-2.5,11.7,0.7,16.3,3.2C270.4,385.3,277.1,407.7,274.3,421.8z"/>
	<path d="M403.8,408.8c2.2-1.6,1.8-3.9,2.6-5.9c1,4.8,1.6,9.6,2.9,14.2c1.3,4.7,3.1,9.3,5.1,15c-12.5-4.4-18.1,6.9-27,11
		c-10.9,5-24.9,2.6-31.2-5.6c-7.5-9.7-6.7-24.6,1.7-34.7c7.1-8.4,18.8-10.4,28.8-4.9c4.5,2.5,7.6,6.4,10.9,10
		c-4.6-8.9-11.2-15.5-21.9-15.8c-15.6-0.5-21.6,10.4-26.1,22.9c-3.9-5.3-1.7-19.8,4-27.2c6.2-8.1,18.9-12.8,26.7-9.8
		c-1.7,0.9-3.1,1.6-5.8,3.1c4.8,0,8.3,0,12.8,0c-1.8,1.3-2.6,1.9-3.8,2.7c4.8,2.6,10.4,3,12.3,9.4
		C397.5,398.6,401,403.4,403.8,408.8z M357.5,430.2c-2.1,2.6-0.4,4.2,0.8,5.7c5.3,6.3,12.5,6.8,19.4,4.6c7.5-2.4,10.6-8.9,11.5-16.4
		c0.3-2.2,1.3-5.8-1.5-6.2c-2.8-0.4-3.4,3.1-3.9,5.6c-2.3,10.4-12.6,15.1-21.8,9.8C360.4,432.4,359.1,431.3,357.5,430.2z
		 M385.7,439.1c7.3-2.1,13.7-11.5,12.4-18.3c-1.9-10.1-11.6-20.4-18.5-19.7C394.1,413.4,395.5,422.7,385.7,439.1z M361.7,413.9
		c0.1,4.9,2.3,7.3,6.3,7.1c3.9-0.1,6.5-2.4,6.3-6.4c-0.1-3.6-2.1-6.4-6-6.4C364.4,408.1,361.9,410.4,361.7,413.9z"/>
</g>
</svg>
