<?xml version="1.0" encoding="utf-8"?>
<!-- Generator: Adobe Illustrator 24.2.3, SVG Export Plug-In . SVG Version: 6.00 Build 0)  -->
<svg version="1.1" id="Layer_1" xmlns="http://www.w3.org/2000/svg" xmlns:xlink="http://www.w3.org/1999/xlink" x="0px" y="0px"
	 viewBox="0 0 595.3 841.9" style="enable-background:new 0 0 595.3 841.9; fill: #215342;" xml:space="preserve"
	 height="375" width="450" transform="translate(-52, -90)">
<g>
	<path d="M201.4,235.1c-6.6-3.8-13.3-2-19.7-2.6c5.9-7,17.2-8.5,27.5-4c-3.8-5.8-11-7.2-26.7-5.4c1.7-4.2,8.7-6.7,16-5.9
		c6.3,0.7,11.1,4.6,17.3,6.8c-4.2-5.4-8.4-10.7-13.3-16.8c7.7,2.6,12.5,7.8,18.5,13.2c-2.9-10.5-7.8-18.3-16.8-25.8
		c9.7,2.9,15.6,7.5,21.1,14.9c-0.3-2.8-0.5-4.5-0.7-7.2c5.9,9.2,6.6,18.9,8.4,28.3c0.8,4.3,0.2,9.8,2.7,12.6c3,3.5,7.9-0.7,12-1.2
		c11.5-1.5,22.6-0.3,33.6,4.6c-5-14.9-23.1-20-41.1-11.4c4.3-6.6,9.9-10.2,16.6-12.3c6.7-2,13.5-2.1,22.4-0.9
		c-11.9-6.8-22.8-7.9-34.2-8c17.2-12.5,51.2-1,72.9,24.5c8.2-12.7,19.4-19.7,36.8-18.6c-5.7,2.6-9.9,4.2-13.1,7.5
		c-2.8,2.8-3.1,5.4-0.2,8c7.6,7,17.3,8.6,27.1,9.6c2.5,0.3,1.6-2.1,1.5-3.4c-0.2-12,1.8-23.5,9.2-33.4c4.8-6.5,10.8-11.3,21.1-13.3
		c-9.3,7-14,14.8-16.6,24.9c5.9-4.5,10.6-9.7,18.3-12.6c-5.8,6.9-10.8,12.8-15.8,18.8c0.3,0.7,0.5,1.4,0.8,2.1
		c10.6-11.6,21.9-14.6,35.6-3.6c-7.7-1.1-14.2-2.5-21.1,1.9c10.5-1.7,19.2,0.4,27.2,5.7c-7.9-2-15.4-1-23.6,2.6
		c4.9,1.9,9.1,1.2,13,2.8c12.2,5.3,17.2,16.6,23.4,27c9.9,16.9,12.1,36,15.6,54.6c5.2,27.5,17.3,51.1,36.8,71
		c2.5,2.6,4.7,5.5,8.2,9.6c-0.5-9.3-3.5-16-8.8-23.8c3.2,2.7,4.9,4.2,6.6,5.7c-4-9.7-12-16.9-16.7-27.4c1.7,1,2.4,1.4,3,1.7
		c-9.5-16.8-16.8-34.4-20.2-53.7c6.2,11.1,13.2,21.5,24,31.7c-2.6-5-4.3-8.2-6.1-11.7c3.7-0.5,4.5,3.8,8.4,4
		c-3.1-6.6-5.9-12.7-9.4-20.2c8.3,9,15.7,16.9,24.2,26.1c-2.1-9-6.3-15-10.7-21c-0.9-1.3-3.3-2.2-2.1-4.3c1.1-1.8,3.2-0.9,5-0.9
		c0.4-3.8-4.7-4.8-4.2-8.7c3.2,0,4.7,3.2,7.9,3.8c-1.2-5.6-5.4-9.1-7.9-13.5c15.7,10.7,22.9,26.6,27.5,44.3c0-5.1,0-10.2,0-16.7
		c2.1,3.3,3.4,5.4,4.8,7.4c0.3-0.1,0.6-0.2,0.9-0.3c-1-3.6-2-7.3-3.1-11c6.1,0.2,1-3.8,2.9-6.5c8,8.8,19.5,13.6,24.3,25.5
		c-5.4-21.5-20.2-36.5-36.6-52.6c16.9,6.3,32.4,11.4,51.2,10.9c-4.4-1.4-6.9-2.1-9.3-2.9c-11.5-3.6-22-8.9-31.2-16.8
		c-6-5.2-13-8-20.9-8.2c-2.6-0.1-5.2,0.1-6.3,0.9c-2.5,4.7,1.6,7.8,0.5,12.9c-5.8-6.8-11.6-12.2-20.8-16.3c4.4,0,6.5,0,10.5,0
		c-3.6-1.8-5.6-2.9-7.6-3.9c9.3,2.7,18.6,4.1,28.6,2.7c-2.5-1-4.7-1.9-8.2-3.3c2.6,0,3.8,0,5.9,0c-8.6-3.9-16.7-6.6-25.3-7.8
		c-19-2.9-35.5-10.8-50.4-22.7c-14.8-11.8-16.7-12-35.4-6.5c3.3-5.7,6.7-10.2,12.9-13.2c-0.8,1.8-1.3,3-2.3,5.1
		c15.2-3.6,29.7,3.4,46.1-0.7c-7.6,5.7-14.8,7.3-23.1,7.8c11.4,8.8,22.8,15.9,35.8,20.4c7.2,2.5,14.7,4.2,22.2,5.4
		c15.2,2.5,27.4,10.8,38.4,21c16.4,15.3,36,23.2,57.9,26.1c0.6,0.1,1.1,0.2,3.2,0.6c-18.1,6.2-35,4.7-53.4,1.1
		c8.3,7.7,16.4,12.7,24.8,17.4c5,2.8,10.4,5,14.8,8.8c3.8,3.3,6.8,7,6.5,13.7c-7.1-8.7-16.7-10.7-27-14.5c3.4,5.7,6.2,10.4,8.9,15
		c-0.2,0.2-0.4,0.4-0.6,0.5c-1.6-2-3.3-4.1-4.9-6.1c1.5,11.1,3.9,21.3,2.9,34.2c-0.8-3.2-1.1-4.3-1.8-7.3
		c-1.4,8.9-1.9,16.3-8.7,23.1c4.8-15.6,0.5-27.9-8.7-40.2c-0.1,9.3-0.2,17.5-1.8,27c-1.3-4.7-2.2-8.1-3.4-12.6
		c-4.1,25.3-15.9,48.1-11.4,73.4c0.5,3.1,1.4,6.1,2.2,9.9c-6.6-1.7-8.2-7.7-12.2-13.3c1,13.3-0.1,25.1-8.6,36.1
		c3.9-13,3.9-24.5-2.6-35.6c-3.8-6.3-8.8-11.5-14.1-16.5c-9.2-8.8-19.1-17.1-25.5-28.4c-0.4-0.8-0.8-1.5-2.5-1.3
		c1.5,3.1,3.1,6.2,4.9,9.9c-6.4-2.1-10.8-6.1-15.5-9.8c1,5,4.5,7.9,8.1,10.8c1.8,1.5,5.8,1.7,5.2,4.4c-0.5,2.6-4.3,0.6-6.8,2.1
		c3.8,7.2,10.3,9.4,18,9.5c-5.5,6-15.7,1.9-32.6-12.9c0.6,8.4,2.3,15.9,7.8,23.5c-3.4-1-5.6-1.6-9.4-2.8c11,12.3,9,32.6,29.5,36.1
		c-4,3.3-8.4,1.8-12.7,2.6c4.9,5.1,11.3,6.3,18.3,8.9c-10.3,3.3-19.6,2.2-29.6,0.8c4.1,5.7,8.5,9.8,14.5,13.6
		c-8.6,0.4-15.6-2.1-23.9-5.2c10.8,18,25.8,33.3,19.6,55.7c-2.1-10.2-8.5-17.4-16.8-24.3c1.2,7.6,2.6,14.4,0.5,21.7
		c-2.9-5.9-5.5-11.3-8.8-18c-2.6,14.2-9.2,25.9-10,39.5c9.7-4.2,20.7-1.3,31.1-6.5c13.7-6.8,29.3-11.2,44-5.4
		c13.4,5.2,27.1,8.1,40.7,12c14.5,4.2,23.9,21.8,20.3,36.6c-0.4,1.6,0.3,2.6,0.9,3.8c3.3,6.1,4.7,12.6,2.8,19.2
		c-3.5,11.9-1,14.2-14.6,5.6c-0.4,0.7-0.9,1.4-1.2,2.2c-7.8,18.3-25.7,27.8-45.2,23.7c-2-0.4-3.5-0.1-5.2,1.1
		c-3.9,2.6-8,4.6-13.3,4.2c0.6-1.4,1.2-2.6,1.9-4.2c-7.9,0-15-2-21.4-6.4c-0.4-0.3-1.6-0.3-1.9,0c-7.1,7.3-14.1,4.4-21.6,0.4
		c-9.4-4.9-14-13.4-17.9-22.4c-1.4-3.1-3.1-4.1-6.5-4.1c-76.6,0.1-153.2,0.1-229.8,0c-3.5,0-5.4,1.1-6.9,4.3
		c-5.1,10.9-11.7,19.7-23.9,24.6c-6.9,2.8-11.1,1.6-16-2.1c-1.2-0.9-1.9-1.2-3.2-0.4c-5.9,3.8-12.3,6-19.7,6.1
		c0.4,1.5,0.8,2.6,1.3,4.2c-5.3,0.3-9.7-1.5-13.9-4.1c-1.3-0.8-2.3-1.9-4.1-1.6c-22.7,3.8-39.2-3.9-48-25.9c-0.3,0-0.6,0-0.7,0.1
		c-9.6,7.5-11.1,7.1-14.1-4.3c-0.2-0.8-0.7-1.8-0.6-2.5c2.6-14.7,0.7-30.3,7.6-44.3c5.7-11.6,16.8-14.8,28.1-17.1
		c7.6-1.5,14.8-3.3,21.9-6.9c13.1-6.6,26.9-4.1,40.4-0.3c0.7,0.2,1.5,0.3,2.1,0.7c12.5,7,26.8,7.1,40.2,9.6
		c-1.6-13.3-9.5-25.4-9.5-40.4c-5.3,5.9-8,12-10.5,20.1c-2-9.4-0.8-16.9,1.8-26c-7.9,9.2-16.7,15.6-17.6,27.3
		c-6.7-22.2,8-37,19.3-53.8c-7.5,1.2-14.1,4.3-22.5,3.1c6.5-3.2,11.2-7.2,15.8-12.6c-10.7,0.7-20.9,2.6-31.6-1.5
		c6.8-2.7,13.5-4.1,18.9-9c-4.9-0.7-9.6,0.9-15.1-2.5c16.9-1.7,19.2-15.6,24.9-26.4c2.5-4.8,6-8.9,10.9-14.2
		c-5.5,2.9-8.7,6.3-14,6.9c5-6.6,9-13.2,8.4-22.5c-4.5,5.8-9.3,10.1-15.4,12.5c-5.9,2.3-11.9,4.1-18.1,0.1c7.8,0,14.1-2.5,18.7-9.9
		c-2.7-0.5-4.8-0.9-8.1-1.6c7-4.8,13.2-8.8,15.2-17.5c-5.6,4.1-9.3,9.4-16.1,11.6c1.3-3.1,2.3-5.7,3.3-8.2
		c-10.5,15.4-26.8,24.9-38,39.4c-9.2,11.9-11.4,25-6.8,39.5c-6.5-4.9-9.4-18.8-7.4-35.9c-4.2,5.4-5.4,12.8-13.6,14.9
		c11.3-29.3-3.2-55.5-8.1-82.7c-1.5,1-1.3,3.1-1.8,4.9c-0.5,1.8-0.9,3.6-1.6,6.6c-2-9.4-1.9-17.9-2.2-26.5
		c-8.6,6.7-12.1,21.4-9.5,38.5c-3.8-2.5-3.9-2.8-8-20.6c-0.5,1.4-0.9,2.6-1.7,5c-0.9-12.5,1.9-23.1,5.4-34.9c-2.9,3.2-4.9,5.4-8.1,9
		c2.7-6.9,6.3-11.2,9.9-16.9c-10.5,3.7-20.5,5.5-27.4,14.1c-1.1-3.3,0-6.7,3.1-10.3c4.1-4.8,9.9-7.1,15.4-9.9
		c9.2-4.8,18-10.2,26.4-18c-17.3,2.7-33.7,4.9-51.3-1.7c6.4-1.1,11.5-1.8,16.6-2.7c17-3.2,32.5-9.9,45.3-21.5
		c15.9-14.3,34-22.8,55.4-25.3c19.1-2.3,35.3-12,51.2-24c-8.5-0.8-16.5-1.4-24-7.3c8.1,1.4,15.2,0.9,22.3-0.1
		c7.2-1.1,14.4-1.2,22.1,0.5c-0.5-1.7-0.8-2.8-1.3-4.6c5.3,3.2,8.9,7.3,11.8,12.1c-0.4,0.3-0.7,0.5-0.8,0.5
		c-12.6-5.6-23.1-1.4-32.8,6.9c-18.1,15.3-39.6,22.1-62.6,25.1c-4.4,0.6-9.1,1.3-12.4,4c-2.1,1.8-4.2,3.3-7.6,4.5
		c7.2,0.4,13-1.7,19.2-2.4c-2.7,1-5.5,1.9-9.2,3.2c14.8,3.4,27-4.5,40.1-5.8c-0.1,0.7,0,0.9-0.1,1c-12.5,8-23.3,18.6-37.3,24.4
		c-3.1,1.3-5.5-0.2-9,0.6c1.8-4.5-2.1-10,4.2-12.8c-10.3-5.7-18.9-2.5-26.9,4.5c-11,9.6-24.5,14-39.4,18.6c6.7,0.7,11.8-0.3,17-1.3
		c5.3-1.1,10.5-2.3,15.7-3.9c5.1-1.6,10-3.7,15.2-5.7c-0.1,2.2-1.7,2.7-2.8,3.5c-10.1,7.9-18.1,17.6-25.6,27.9
		c-1.7,2.3-2.7,5.3-0.5,7.1c2.2,1.9,3.2-2.1,5-2.5c6-1.6,8.5-7.9,15.3-11.2c-3.8,8.7-9.3,14.9-9.9,23.6c5.4-1.7,6.1-7.5,10.9-9.9
		c-0.3,4.5-0.5,8.4-0.8,12.3c3.1-8.5,6-16.9,12.8-23.8c-0.2,4.6-1.7,8.9-0.5,14.7c2.6-8,4.3-15,8.6-20.9c4.2-5.8,8.6-11.2,15.8-13.4
		c-5.2,5.3-9.1,11.4-12.6,19.6c5.7-3.1,8.7-8,15.5-9.4c-4.4,3.9-7.8,6.7-12.3,10.7c6.2-1.6,10.2-4.9,16.1-4.8
		c-2.9,2.7-5.2,4.9-8.6,8.1c2.2-0.7,3.2-1,4.8-1.5c-6.7,6.3-12.6,12.5-14.4,22.3c6.7-4.4,12.7-8.4,18.6-12.4
		c0.2,0.2,0.3,0.4,0.5,0.5c-1.6,2-3.1,3.9-4.7,5.9c9.9-6.8,18-15.3,25.1-24.9c-1.8,8.1-7.3,14.3-11.1,23.1c2.7-2.1,4.1-3.3,6.6-5.3
		c-4.6,13.3-12.3,23.4-18,34.8c2-2.5,4-5,6-7.5c-8.2,20.2-26.9,34.6-28.8,55.9c28.9-25.5,51.5-56.5,58.6-96.9
		c1.8-9.9,4.4-20,8.4-29.2c6.6-15.4,14.5-30.2,32.4-36C194.3,236.5,197.4,235.9,201.4,235.1z M329.1,454.3c2.1-5.2-1.3-7.2-5.2-8.5
		c-14.1-4.8-28.5-4.8-43-2c-3.1,0.6-6.2,1-9.5,3.8c3.2-0.6,5.4-1.1,9.6-1.9c-2.8,1.3-3.9,1.6-4.8,2.3c-4.5,3.3-10.4,4.7-13.5,9.8
		c-1.8,3-1.2,6.1,1.4,8.6c2.7,2.5,4.5,0.3,6.4-1.3c2.4-2,5.2-3,8.2-3.4c7-0.8,12.4,3,12.8,9c0.5,6.5-3.8,11-11.1,11.5
		c-1.9,0.1-4-0.4-5.6,1.3c4,3.9,10.3,3.6,14.9-0.5c5.3-4.7,6-15.6,1.5-21.5c-3-3.8-14.9-2.6-22.4,2.3c-1.7-2.8-1.2-4.4,3.5-5.6
		c13.1-3.5,26.3-6.1,40-4.5C318,454.2,323.5,456.3,329.1,454.3L329.1,454.3z M185.2,358.7c-9.3,10.2-10.2,22.5-12.5,34.3
		c1.5-3.7,2.9-7.4,4.8-12.1c0.9,5.3-0.5,9.2-1.4,14.2c1.8-2.2,2.8-3.5,4.3-5.4c-1.2,9.5-6.4,15.9-12.5,24c6.2-3.5,9.1-7.8,13.6-11.6
		c-3.3,10.6-10.3,17.6-18.3,26c8.2-1.6,12.4-6.4,18.5-10.4c-6.9,11.5-15.9,19.4-27.2,27.2c7.7-0.8,13.1-3.1,20-5.1
		c-9.3,8.9-17.5,16.8-26.4,25.3c7.7-1.4,14-3.6,21.2-6.6c-15.7,17-27.8,36.8-28.1,45.7c5.9-8.1,13-14.3,21.9-20.1
		c-2.6,6.9-5.5,12.3-6.4,19.6c5.6-8.7,11-16,17.6-23.8c-1.6,8.5-1.6,8.5-0.1,10.1c10-14.6,18.8-30.4,39.2-37.6
		c-7.3,0.1-12,1.4-16.7,2.3c8-6.8,19-4.6,28.4-10c-11.4-1.9-21.1,0.6-30.9,4c0.8-1.2,1.8-1.9,2.8-2.5c8.6-5.4,18.1-6.5,27.9-5.8
		c4.8,0.3,8.4-1.1,12-4c8-6.2,16.2-11.9,26.7-13.1c12-1.4,22.7,0.9,31.2,10.2c-9.8-5.3-20-7.7-31-5.4c-10.9,2.2-19.4,8.7-28.5,15
		c1.4,0.9,2.4,1.5,3.4,2.1c-6.9-2.5-11.1,2.5-17.2,5.5c4.1,0.7,7.1,1.2,10.1,1.7c-19.7,2.6-35.1,11.4-46.2,29.9
		c3.8-2.8,6.3-4.6,8.8-6.4c-5.6,6.1-11.3,11.8-13,21.1c2.7-2.9,4.9-5.3,7.1-7.7c-8,13.7-7.3,28.3-5.3,43c-0.3-14.8,5.1-26.8,17-35.6
		c-7,13.9-6.1,28.1-2.3,42.4c-0.6-7.4,0.4-14.3,4.3-20.8c-1.1,7.7-1.1,15.1,5.1,23.2c-1.5-8-1.3-14.1,1.7-21.2
		c2.2,6.1,3.6,11,5.6,15.6c2.8,6.1,6.7,10.4,9.8,11.5c-5.4-18.6-5.9-27.5-2-33.7c-0.5,8.4,5.9,11,11.8,13.5
		c17.3,7.2,43.3,1.3,56.1-12.4c4-4.3,6.8-9.3,7.6-15.2c0.3-1.8,0.2-3.3-2.2-3.3c-17.2-0.1-26.2-14-38-22.9c-2.2-1.7-3.2-4.4-3.9-7.2
		c-2.4-8.9,2.1-17.5,12.3-22.3c15-7.2,31.1-7.2,47.2-6.2c9.3,0.6,18.1,2.7,25.8,8.2c13.1,9.3,12.3,24.7-1.6,32.8
		c-1.4,0.8-3.3,1.4-4.1,2.6c-6.8,10.3-16.9,14-28.5,15.1c-2.9,0.3-3.2,1.7-2.7,4.1c1.5,7.7,5.3,14.1,11.7,18.6
		c13,9.1,27.4,13.1,43.1,10.4c8.6-1.5,17.9-3.3,19-16.8c5.2,12.9,1.8,23.7-1.8,35.8c9.2-9.4,14.5-18.7,12-31c2.3,0.3,1.7,3.3,4.2,3
		c2.3-4-0.1-8.2-0.1-13.6c2.2,4.1,3.8,7.1,6.2,11.6c-0.8-10-1.7-18.2-6.1-25.6c-4.4-7.5-11-12.5-18.3-16.8
		c21.4,4,32.8,18.3,39.7,39.5c1.1-7.7-1.8-12.9-3.7-19.7c4,5.3,5.1,10.3,7.7,14.5c-0.1-14.2-6.7-25-20.3-34.1
		c10.9,3.1,16.9,9,22.9,17.9c-1.9-8.8-5.2-14.7-9.6-19.9c-10.6-12.6-24-20.3-40.7-22c3.6-0.4,7.1-0.8,11.8-1.4
		c-6.3-2.7-10.4-7.9-17.2-6.2c0.9-0.6,1.7-1.1,2.6-1.7c-17.4-14.4-35.8-21.7-57.5-9.4c0.5-1,1-1.6,1.6-2.2
		c12.6-11.2,32.3-11.7,48.3,0.1c8.8,6.5,17.4,10.1,28.4,9.6c9.1-0.4,17,4,23.3,10.8c-10-5.6-20.5-8.7-33.1-7.5
		c9.3,5.9,20.4,3.8,29.3,11.5c-5.8-1.1-10.1-3.6-15.9-2.8c12.1,5.3,20.4,13.6,27.3,24c0.2-2.2,0.4-3.7,0.6-5.6
		c1.6,0.8,2.9,1.5,4.6,2.3c-1.1-2.8-3.8-4.3-3.4-8.3c8.6,7.7,18.5,12.7,24.3,22.4c-3.4-8-9.1-14.3-13.6-21.4
		c-4.5-7.1-9-14.1-14.6-20.8c3.3,1,4.9,4.8,8.5,3.3c-0.7-5.1-3.2-9.1-5.6-13.2c-9.2-15.3-12-16.2-27.9-8.7
		c-20,9.4-41.9-1.8-45.2-23.3c-1.3-8.7,0.6-16.9,5.5-25.1c-1.4,0.8-2.2,1.2-3.4,1.9c6.6-15.7,34.9-23.9,48.9-14.3
		c-2.3,0.1-4.4,0.3-7.8,0.5c8.8,4.2,16.8,7.1,23.3,15.8c-4.6-2.9-7.4-4.7-10.2-6.5c8.1,11.8,10.1,24.2,5.9,37.6
		c-0.6,2,0.6,2.7,1.9,3.5c4.6,3,7.7,7.1,9.5,12.3c2.1,6.1,12.7,13.1,19.9,12.5c-7.3-6.1-14-12.3-17.4-21.4c2.6,2.3,5.1,4.7,7.1,6.5
		c-0.3-2-3.5-3.8-3.2-7.2c1.4,0.1,2.6,0.2,4.3,0.3c-4.7-6.2-8.3-12.5-10.3-21.1c3.1,3.7,5.3,6.3,8.9,10.6
		c-4.3-11.2-4-21.7-11.8-31.4c8.5,4.3,10.6,11.2,14.6,16.6c-2.3-12.6-4.5-25.2-13.5-35.6c4-0.2,6.2,2.7,10,4.4
		c-6.2-11.8-11.5-23.1-24.3-28.1c9.1,0.2,16.2,5,23.7,9.2c-7.1-14.3-19.3-22.8-33.6-30c8.3-1.8,15.3,0.8,24.3,2.2
		c-9.3-6-17.9-8.5-27.5-10.1c5.2-0.8,9.5,0.8,15.6,1.2c-10-5-18.5-9.3-28.7-10.7c5.6-1.8,10.6-0.8,15.6-1.1
		c-9.6-3.1-19.3-4.4-29.1-0.9c2.5-1.5,4.9-3,7.4-4.5c-10.4,4.3-20.2,9.6-28.8,16.7c1.8-5.2,5.1-9.6,8.1-14.3
		c-14.1,7.7-21.6,20.5-26.9,35.2c-2.9-5.1-3.8-10-3-15.4c-8.7,18.7-15.3,37.4-3.7,59.1c-6.2-4.2-7.2-9.4-10.3-14.8
		c0.6,11.3,4.9,20.1,9.4,30.2c-5.4-3.9-8.4-7.9-11.8-13.3c-0.1,7,2,12.1,3.5,18.7c-5.6-6.5-8.3-13.1-10.8-21.6
		c-0.9,8.1,1.8,13.7,4,20.9c-12.7-15.8-9.4-32.5-7.9-49.2c-1,2.3-2,4.6-3.4,8.2c-0.6-14,4.5-27-2.2-40.5c0,6.6,1.2,12,0,17.5
		c-5.8-23.2-12.3-36.3-19.2-38c2.4,4.8,5.7,9,7.1,14.2c-1.3-0.2-1.1-2.3-2.9-1.6c0.2,0.6,0.4,1.2,0.5,1.8c0.2,0.7,0.3,1.4,0.7,3.9
		c-9.6-14.9-21-24.4-37-27.8c15.8-3,31.2-3.2,45.9,8.7c-1.8-3.2-2.7-4.8-4.4-7.7c6.2,4.7,8.7,10.2,12.5,15.8c0-2.2,0-3.6,0-5.6
		c4,3.8,4,8.8,6.7,14.2c0-2.9,0-4.4,0-7c3.4,7.1,3.6,13.7,5.4,20c0.8-20.6-2.8-39.7-20.8-52.7c-15.6-11.3-33.4-11.7-51.6-8.7
		c13.4-0.8,26.5,0,39,9.7c-10.3-4.4-19.4-6.3-30.5-5.6c7.4,2.1,14,2.6,19.9,8.4c-10.5-0.8-19.6-1-28.6,0.6
		c-15.6,2.7-23.1,4.9-25.7,7.9c5.8,0.4,11.6-1.3,19.1,1.5c-7.5-0.6-12.8,0.6-20,1.9c4.2,0.3,3,3.9,6.4,3.5c-2.7,1.4-4.6,2.5-6.6,3.5
		c10.8-1.7,21.4-6,31.7,0.8c-4.5-0.8-9-1.6-14.6,0c3.6,1.8,6.3,3.1,8.9,4.4c-7.3-0.7-14.3-1.1-21.1,2.3c4.6,0,9.2,0,13.8,0
		c-9.5,1.8-17.5,6.4-26.8,12.6c6.5-1.4,11-2.9,15.9-2.3c-8.6,1.9-16.5,5.6-23.9,10.3c7.9-1.8,15.7-4.3,25.7-1.9
		c-6.1,2.1-9.5,5.4-13.4,7.5c-5.5,2.8-5.5,9.5-10.5,12.4c-4.2,2.5-7.9,6-11.8,9c0.2,0.3,0.3,0.5,0.5,0.8c4-1.9,7.9-3.8,13.5-6.5
		c-7.7,8.6-11.9,17.1-16,27.2C177.9,362.7,180.2,359.6,185.2,358.7z M53.9,562c-2.4,3.1-3.8,4.9-5.4,7c4.5,0.2,6.6-2.3,8.3-5.1
		c5.2-8.5,13-13.8,21.9-17.6c5-2.2,10.3-3.5,17.8-2.4c-3.3,1-4.9,1.5-6.5,2c-11.5,3.4-21.1,9.7-28.3,19.5
		c-13.2,18-10.3,44.4,6.3,55.1c1.8,1.2,3.6,2.6,6.4,2.1c-2.9-5.2-5.6-10.1-4.9-17.5c1.2,2.5,1.7,3.7,2.3,4.8c3.5,7,9,12,16,15.3
		c1.7,0.8,4,1.1,5.4-0.2c1.7-1.5-0.4-2.9-1.1-4.2c-7.1-12.9-11.7-26.3-9-41.5c-0.9,0.4-1.4,0.7-2,1c-0.2-1.6-0.8-3.2-0.6-4.7
		c1.5-12.1,21.3-29,33.8-29c-22.8,18.3-29.6,30.8-25.8,47.9c4.2-7.3,6.6-9.9,10.4-11.3c-9.1,16.8-6.7,37.8,5,43
		c-0.7-6.1-3.8-12.1,0.3-18.8c0.2,1.6,0.2,2.3,0.3,3c2.5,17.6,10,19.8,25.9,11.1c1-0.5,2-1.3,1.6-2.7c-1.4-4.8-2.2-9.9-4.2-14.3
		c-5.2-11.3-7.1-22.6-2.6-34.6c3-7.9,12-15.4,18.4-15.1c-11.6,11.8-17.1,29.3-12.9,41.1c4.2-9.5,7.1-12.9,12-13.9
		c-11,13-11.2,34.2-0.1,41.9c-2.2-6-3.4-11.9,0-19.8c0.4,6,1.1,9.9,2.9,13.5c2.3,4.6,5.2,5.7,10,3.3c8.5-4.2,12.9-11.4,16.1-19.9
		c2-5.2,3.6-10.7,7.2-15.2c6.5-7.9,7-16.5,1.3-25c-0.5-0.8-1.5-2.2-1.2-2.5c3.2-4-1-4.2-2.8-5.3c-1.7-1.1-3.7-1.6-6.4-2.6
		c4.1-0.8,6.7,1.7,9.9,1.8c0.6-2.8-1.3-4.5-3-5.6c-14-9.6-28.3-5.5-43.2-0.2c3.1-4.8,8-5.6,12.2-8.2c-2.9-1.2-5.2-2.2-7.5-3.1
		c-14.3-5.1-28.9-8.5-43.5-1.8c-6.9,3.2-13.8,5.8-21.2,7c-4.4,0.7-8.8,2-13.1,3.5c-10.6,3.7-19.2,15.6-18.5,25.4
		c0.7-1.2,1.4-2.5,2.1-3.7c0.2,0.5,0.4,0.9,0.7,1.4C47,565.4,49.6,564.1,53.9,562z M553,570.5c0-14.5-8.7-24.7-23.2-28.4
		c-8-2-16.8-1.5-24-5.8c-9.6-5.6-19.5-7.7-30.3-6.3c-9.2,1.2-18.1,3.8-27.3,8.2c5.3,2.2,9.9,3.6,14.5,8.6c-4-1.4-6.1-2.4-8.4-3
		c-11.2-3-22.3-5-33.4,0.4c-1.6,0.8-3.5,1.5-2.8,3.8c0.6,2.2,2.5,1,3.8,1.1c1.7,0.1,3.7-0.8,5.6,1.9c-8.9,0-7.9,8-10.6,12.7
		c-4.8,8.2-6.5,16.7,2.9,23.9c3.9,3,5.5,8,6.5,13.2c1.6,8.3,6.1,15,13.5,19.5c4.6,2.8,8.2,2.3,10.8-2.8c1-2,1.4-4.6,3.8-5.9
		c1.5,3.8-0.7,7.4-0.2,12.3c11.2-13.6,8.8-26.6,1.3-40.8c5.6,3.6,7.9,8.1,10.5,13.8c2.9-16-0.1-29.5-10-41.9
		c15.6,5.8,23.2,24.7,16.3,39.8c-3.4,7.4-6,15.1-8.1,23c-0.4,1.6,0,2.5,1.2,3.5c10.8,8.4,21.5,6,27.4-6.2c0.1-0.1,0.4-0.2,0.7-0.3
		c1.6,3.8-1,7.3-0.9,12c12.8-13.6,12.7-27.8,5.4-43.4c5.5,2.6,7.5,7.5,10.5,13.3c2.3-22.5-5.8-38.1-24.3-48.5
		c3.9,1.7,8.1,0.8,12.1,3c13.8,7.4,21.3,18.9,24.8,33.7c0.6,2.4,1.1,3.6,4.5,3c3.9-0.7,8.6,0,9.8,5.2c2,8.5-4.8,14.9-4.8,23.3
		c-2-1.2-0.4-2.9-2.4-3.3c-1.3,2.2-3.2,4.2-3,8.4c7.6-4.9,13.7-10.4,15.1-18.6c5.6-34-13.5-50.7-44.1-59.1
		c15-2.9,33.6,6.6,42.3,21.2c1.8,2.9,4.1,4.3,7.9,5.4c-2.3-2.4-3.9-4.2-3.2-7.2C547.4,564.9,550,567.6,553,570.5z M303.2,240.8
		c-16.3-16.4-32.5-19.9-42.4-15.1c9,0.3,16.3,3.8,22.6,9.9c-0.8-1.1-1.6-2.2-2.4-3.4c5.5-0.2,8.5,3,11.3,6.7
		c5.1,6.6,7.4,14.1,8.5,22.2c0.9,6,2.1,12,3,16.8c6.2,0.6,5.8,4.8,6.4,7.8c0.7,3.6,0.9,7.2,1.4,11.7c2.4-5.4,5.3-9.3,9.7-12.6
		c0.2,2.6,0.3,4.5,0.5,7.5c3.3-6,6.2-10.9,12-15.9c-3,5.8-6,9.6-6.7,15.9c9.3-9.2,19.7-13.4,31.8-15.6c-1.8,2.3-4.6,2.3-5.4,4.9
		c1.6,0,2.8,0,4.6,0c-4,2.8-7.4,5.3-10.9,7.8c13.4-2.5,27.2-2.2,39.1-9c-0.8-0.2-1.8-0.4-2.8-0.6c0-0.2,0.1-0.5,0.1-0.7
		c5.6-0.3,11.2-0.5,18.1-0.8c-15-5.3-29.3-7.7-43.9-9c7.2-1.1,14.3-2.3,21.5-3.4c0-0.3-0.1-0.6-0.1-0.9c-4.6,0.2-9.1,0.4-14.6,0.7
		c7.7-2.9,15-2.1,22.9-3.4c-4.1-3.6-8.9-3.6-13.3-5.6c1.9-0.4,3.2-0.6,5.6-1.1c-17.1-5.5-27.6,5.9-40.6,13.4
		c4.3-8.1,10-12.8,17.1-16.9c-3.6-1.6-7-2.3-9.3-4.3c-4.5-3.8-8.4-8-10.6,1.7c-1.7-1.5-0.7-3.7-2.8-4.6c-3.5,3.3-3.5,8.4-6.4,12.9
		c0-3.2,0-5.5,0-9.3c-0.9,2.8-1.3,4.2-2.1,6.8c-0.9-10.7,0.4-19.6,7.2-27.1c-7.6,4.7-11.7,11.6-13.3,21
		c-7.9-17.2-20.2-27.7-37.2-32.5c4,3.6,8.7,6.3,11.9,10.7C297,231.7,300,236.3,303.2,240.8z M301.3,552.3c-0.7-3.6-1.3-7.1-2.1-10.4
		c-2-7.6-8.6-12.9-15.1-12.1c-14.1,1.7-15.9,3.3-16,14.9c-0.2,18.3,13.3,33,30.6,33.5c17.8,0.4,32.1-13.2,33-31.6
		c0.6-12.2,0.3-12.6-11.6-15.5c-12.6-3.1-20.2,3.4-18.8,16.2C301.5,548.7,301.3,550.4,301.3,552.3z M290.7,588.6
		c6.3,2.6,11.9,2.4,18.3,1.2c14.2-2.6,26.5-7.7,34.4-20.4c1.3-2.1,1.9-5.1,4.9-4.8c3.2,0.4,0.1,3.7,1.9,5.3
		c2.6-3.1,5.9-6.2,5.8-10.2c-0.1-3.7-5.6-1.7-7.5-4.7c9.4-2.7,17-7.4,22.9-17.6c-2.7,1.2-3.7,1.4-4.6,2c-7.9,5.2-16.7,8.2-25.9,9.7
		c-3.7,0.6-5.4,1.9-6.5,5.8c-3.6,13.2-11.3,22.9-25.1,26.4c-21.5,5.5-39.9-6.2-45.1-29c-0.8-3.4-2.3-5-5.8-5.7
		c-8.6-1.9-16.7-5.3-24.2-9.9c-3-1.8-6-3.7-9.9-6.2c4.6,12.7,12.4,20.3,24.4,23.4c3.2,0.8,6.6,1.7,6.9,5.8
		c1,14.8,16.4,30.5,32.2,32.3c-1-1.3-1.9-2.5-2.8-3.7c3.3,1.6,6,3.9,10.2,3.7C293.7,590.8,292.2,589.7,290.7,588.6z M327.5,591.7
		c17,0,32,0,46.9,0c2.3,0,2.7-1.9,2.7-3.8c0.1-8.6,3.5-16,8.7-22.8c0.9-1.2,2.5-2.2,1.9-4.7c-2.4,1-4.7,2-7.5,3.2c0-2.7,0-4.8,0-6.2
		c-7.3-2.4-8.2,3.6-10.9,7.3c-2,2.8-3.8,5.1-5.5,0.4c-5.5,5.1-10.9,10.2-16.4,15.3c-1.7,1.6-3.2,2.8-4.1-0.9
		C338.8,583.9,334.4,587.7,327.5,591.7z M271.3,591.7c-9-6.1-15.1-12.6-19.8-21.6c0.3,6.5,3.6,10.3,6.6,14.4
		c-2.2-1.7-4.4-3.3-6.6-5.1c-0.4,1.4-0.7,2.5-1.2,4.1c-6.7-5.6-11.5-12.2-16.5-18.8c-1.9,1.5-3,5.9-4.8,2.4c-3.1-6-8.8-5.8-13.8-7.5
		c-1.6-0.5-3.6-2.2-4.8-0.6c-1.4,1.8,0.1,3.9,1.3,5.5c5.2,7.4,9,15.3,9.5,24.5c0.1,2,1.3,2.8,3.2,2.8
		C239.3,591.7,254.5,591.7,271.3,591.7z M350.5,411.1c5.3,10.1,12.2,14.7,21.7,15.6c10,0.9,17.6-3.4,23.8-10.9
		c3.4-4.1,2.4-7.4-1.1-10.8C383.1,422.3,365.4,425.2,350.5,411.1z M237.6,249.5c6.1,2.1,12.1,2.3,18.2,2c9.1-0.5,18.3-0.3,26.4,4.9
		c4.8,3.1,8.7,7.2,12.7,12.4C291,249.3,252.8,236.8,237.6,249.5z M368.3,395.5c5.2-0.6,8.3-3.5,8.1-8.6c-0.2-4.7-3.1-7.7-8-7.6
		c-5.1,0.1-8.3,3-8.2,8.2C360.2,392.5,363.4,395,368.3,395.5z M395.7,387.2c-0.3-3.5-2.3-5.7-5.9-5.8c-3.7-0.1-5.9,2.2-5.8,5.9
		c0.1,3.6,1.9,5.9,5.8,5.9C393.6,393.3,395.4,391.1,395.7,387.2z M51,572.8c-7.9,2.8-13.9,12.3-12.6,19.9
		C41.7,585.5,52.6,583.3,51,572.8z M543.6,573.1c-0.8,9.7,9.4,11.1,12.9,18.1C557,583.4,551.8,576.4,543.6,573.1z M554.1,603.5
		c0.2-7.1-1.5-12.9-7.3-18.3C548,592.3,545.5,599.7,554.1,603.5z M41.2,603.4c8.2-3.7,6.2-11.1,6.9-17.8
		C43.4,590.8,40.6,596.4,41.2,603.4z"/>
	<path d="M184,434.4c0.7-8.4,4.3-13.6,10.2-17.3c1.1-0.7,2.6-1,1.9-3c-4.7-12.4-3.1-24.1,5.8-36.6c-3.8,2.3-5.9,3.6-9.5,5.8
		c6.6-8.4,14.2-12.5,23.5-16.5c-3.6,0-5.9,0-8.6,0c11.6-10.1,45.6-0.4,49,13.9c-1.2-1-2.2-1.8-4.2-3.5c3.2,6.7,5.6,12.2,6,18.4
		c1,12.9-3.6,23.3-14.2,30.3c-10.7,7.1-22.2,6.2-33.3,0.7c-12.3-6.1-16-5.4-24.5,5.7C185.7,432.7,185.2,433.1,184,434.4z M253.3,403
		c-4,13.4-14.4,15.6-25,16.7c-9.7,1-15.6-4.9-19.6-13c-0.8-1.5-1.4-2.5-3.4-1.5c-1.7,0.9-2.9,1.3-2.2,3.7
		c3.2,11.1,15.2,18.7,28,17.5C242.8,425.4,252.3,415.8,253.3,403z M229.7,379.3c-5.3,0.2-8.6,2.7-8.8,7.7c-0.1,4.9,2.8,8.2,7.8,8.2
		c5.1,0,8.2-3.1,8.2-8.3C237,382.2,233.9,379.8,229.7,379.3z"/>
	<path d="M329.2,454.2c-8.6-7.8-19.3-8.1-30-8.2c-1.5,0-3.1,0-4.6-0.5c11.3-1,22.5-1.7,32.9,4.1
		C329.4,450.6,329.3,452.5,329.2,454.2C329.1,454.3,329.2,454.2,329.2,454.2z"/>
</g>
</svg>
