<!-- SVG credit to RostoumArt on Etsy, https://www.etsy.com/shop/RostoumArt -->

<svg xmlns="http://www.w3.org/2000/svg" viewBox="0 0 433.86 440.33" style="fill: #215342;"><title>Asset 141</title><g id="Layer_2" data-name="Layer 2"><g id="Layer_1-2" data-name="Layer 1"><path d="M304.71,440.33c-12.18-1.69-24.61-2.31-36.47-5.25-35.94-8.91-71.4-6.8-107.29.68-14.78,3.08-30.49,3.61-45.63,2.73C71,435.88,47.31,405.85,53,361.81,55,347,61,334.67,72.25,324.9c7.43-6.47,14.73-13.13,22.58-19,13.67-10.29,23.57-23.39,31.22-38.52,5.3-10.48,11.13-20.69,16.73-31,28.68-52.88,119.48-53,148.29-.1,6.27,11.52,12.73,23,18.73,34.61,6.74,13.11,15.55,24.33,27.33,33.33,7.6,5.81,14.73,12.23,22.07,18.38,24.69,20.7,26.34,47.57,18.32,75.64-7.73,27.06-29.87,36.71-55.51,40.27-5.67.79-11.45.88-17.18,1.29ZM141.69,0C138.25,9,135,18.11,131.24,27a21,21,0,0,1-6,7.28c-7.43,6.16-16.36,11-22.42,18.23-9.33,11.16-12.54,25.43-13.3,39.8-1.78,33.46,6.37,63.71,32.37,86.55,23.09,20.28,52,14.61,67-12.24,10.31-18.4,12.62-38.35,9.68-58.79-4.19-29.19-15.23-54.6-42-70.61-2-1.2-3.14-4.59-3.8-7.18-2.47-9.84-4.58-19.77-6.83-29.67ZM288.15.44c-2.27,9.91-4.45,19.84-6.88,29.71-.6,2.41-1.43,5.72-3.22,6.74-23.74,13.47-35.27,35.31-40.79,60.64-5.57,25.54-4.3,50.69,10.64,73.38,8.46,12.85,20.29,20.63,36.36,19.78,16.91-.9,29.26-10.27,38.84-23.14,20.06-27,26.27-57.32,19-90-4.44-20-13.94-36.71-35.05-44-2.05-.71-3.48-4.21-4.5-6.7C299,18,295.68,9,292.26,0Zm96.73,148.74c-.83,2.35-2.2,5.53-4.13,6.29-23.1,9.14-35.52,27.63-43.12,49.78-7.88,23-9.16,46.24,2.44,68.54,11.51,22.1,33.71,28.15,54.77,15.2a62.25,62.25,0,0,0,13.86-11.43c20.51-23,28.17-50.31,24.11-80.59-2.09-15.55-8.38-29.37-22.26-38.61-1.84-1.22-3-4.21-3.5-6.59-2.32-10.34-4.22-20.78-12.75-30.86C390.86,131.33,388,140.32,384.88,149.18ZM36.38,122.26c-2.93,9.14-5.61,18.38-8.93,27.38-1.38,3.74-3.86,7.18-6.32,10.4-4.42,5.8-10.38,10.73-13.65,17.08-17.52,34-2.81,88.89,29,110.32,22.73,15.3,46.94,8.76,58.66-15.94,7.3-15.37,8.64-31.74,5.65-48.1-5.42-29.71-17.55-55.15-47.61-67.93-1.94-.82-3.25-4-4.09-6.4-3-8.66-5.76-17.44-8.6-26.18Z"/></g></g></svg>